<?xml version="1.0" encoding="UTF-8"?>
<!-- Generated by Pixelmator Pro 3.7.1 -->
<svg width="256" height="256" viewBox="0 0 256 256" xmlns="http://www.w3.org/2000/svg">
    <path id="Path" fill="#ffffff" stroke="none" d="M 184 80 C 184 102.957001 170.181 122.677002 150.410995 131.320007 C 153.770996 126.854004 156.763 121.251007 159.330994 114.528992 C 168.738007 105.985992 174.666992 93.677994 174.666992 80 L 167.285995 80 C 167.591003 77.162003 167.796005 74.472 167.904999 72 L 184 72 Z M 166.800003 84 L 170.479996 84 C 169.746994 91.856003 166.863998 99.091995 162.440002 105.132996 C 164.455994 98.052994 165.893997 90.733994 166.800003 84 M 128 140 C 101 140 92 88.570999 92 68 L 128 68 L 164 68 C 164 88.570999 155 140 128 140 M 148 188 L 108 188 C 117.287003 178.955002 122.255997 161.511002 122.917999 143.468002 C 124.57 143.819 126.264 144 128 144 C 129.735001 144 131.429993 143.819 133.082001 143.468002 C 133.744003 161.511002 138.712997 178.955002 148 188 M 72 80 L 72 72 L 88.094002 72 C 88.204002 74.472 88.408997 77.162003 88.713997 80 L 81.333 80 C 81.333 93.677994 87.262001 105.985992 96.667999 114.528992 C 99.237999 121.251007 102.228996 126.854004 105.588997 131.320007 C 85.819 122.677002 72 102.957001 72 80 M 93.559998 105.132996 C 89.136002 99.091995 86.252998 91.856003 85.518997 84 L 89.200996 84 C 90.106003 90.733994 91.543999 98.052994 93.559998 105.132996 M 184 68 L 168 68 L 168 64 L 164 64 L 128 64 L 92 64 L 88 64 L 88 68 L 72 68 L 68 68 L 68 72 L 68 80 C 68 107.362 86.419998 130.481003 111.503998 137.667999 C 113.851997 139.652008 116.331001 141.19101 118.938004 142.244003 C 118.445999 160.994003 113.293999 177.261002 105.209 185.13501 L 98.160004 192 L 108 192 L 148 192 L 157.839996 192 L 150.791 185.13501 C 142.705994 177.261002 137.554993 160.994003 137.061996 142.244003 C 139.669998 141.19101 142.147995 139.652008 144.496002 137.667999 C 169.580002 130.481003 188 107.362 188 80 L 188 72 L 188 68 Z"/>
</svg>
