<?xml version="1.0" encoding="UTF-8"?>
<!-- Generated by Pixelmator Pro 3.7.1 -->
<svg width="256" height="256" viewBox="0 0 256 256" xmlns="http://www.w3.org/2000/svg">
    <path id="path1" fill="#ffffff" stroke="none" d="M 128 64 C 123.588997 64 120 67.589005 120 72 L 120 120 L 72 120 C 67.589005 120 64 123.589005 64 128 C 64 132.411011 67.589005 136 72 136 L 120 136 L 120 184 C 120 188.411011 123.588997 192 128 192 C 132.410995 192 136 188.411011 136 184 L 136 136 L 184 136 C 188.410995 136 192 132.411011 192 128 C 192 123.589005 188.410995 120 184 120 L 136 120 L 136 72 C 136 67.589005 132.410995 64 128 64 M 128 68 C 130.209 68 132 69.791 132 72 L 132 124 L 184 124 C 186.209 124 188 125.791 188 128 C 188 130.209 186.209 132 184 132 L 132 132 L 132 184 C 132 186.209 130.209 188 128 188 C 125.791 188 124 186.209 124 184 L 124 132 L 72 132 C 69.791 132 68 130.209 68 128 C 68 125.791 69.791 124 72 124 L 124 124 L 124 72 C 124 69.791 125.791 68 128 68"/>
</svg>
