<?xml version="1.0" encoding="UTF-8"?>
<!-- Generated by Pixelmator Pro 3.7.1 -->
<svg width="256" height="256" viewBox="0 0 256 256" xmlns="http://www.w3.org/2000/svg">
    <path id="Path" fill="#ffffff" stroke="none" d="M 136 80 L 120 80 C 115.582001 80 112 83.582001 112 88 L 112 136 L 88 136 L 128.016006 184 L 168 136 L 144 136 L 144 88 C 144 83.582001 140.417999 80 136 80 M 136 84 C 138.205994 84 140 85.794006 140 88 L 140 136 L 140 140 L 144 140 L 159.462006 140 L 128.014999 177.751999 L 96.542 140 L 112 140 L 116 140 L 116 136 L 116 88 C 116 85.794006 117.793999 84 120 84 L 136 84"/>
    <path id="path1" fill="#ffffff" stroke="none" d="M 164 188 L 92 188 C 87.588997 188 84 191.588989 84 196 C 84 200.410995 87.588997 204 92 204 L 164 204 C 168.410995 204 172 200.410995 172 196 C 172 191.588989 168.410995 188 164 188 M 164 192 C 166.209 192 168 193.791 168 196 C 168 198.209 166.209 200 164 200 L 92 200 C 89.791 200 88 198.209 88 196 C 88 193.791 89.791 192 92 192 L 164 192"/>
    <path id="path3" fill="#ffffff" stroke="none" d="M 171.4189 80.275894 C 167.856903 63.944901 153.174896 51.999908 135.999908 51.999908 C 125.066902 51.999908 116.549904 55.928894 110.026901 63.999908 L 103.999901 63.999908 C 94.226898 63.999908 86.067902 71.046906 84.337898 80.325897 C 63.701897 83.098907 47.999901 100.776901 47.999901 121.999893 C 47.999901 133.294891 51.976898 143.803894 59.196899 151.589905 C 66.617897 159.592896 76.846901 163.999908 87.999901 163.999908 L 111.999901 163.999908 L 111.999901 159.999908 L 87.999901 159.999908 C 67.012901 159.999908 51.999901 142.985901 51.999901 121.999893 C 51.999901 101.682907 67.941902 85.038895 87.999901 83.999893 C 87.999901 75.163895 95.163902 67.999893 103.999901 67.999893 L 111.999901 67.999893 C 117.816902 59.996902 125.3489 55.999908 135.999908 55.999908 C 152.332901 55.999908 166.049896 68.194901 167.999893 83.999893 C 188.174896 84.913895 203.999908 101.599899 203.999908 121.999893 C 203.999908 142.985901 188.985901 159.999908 167.999893 159.999908 L 143.999893 159.999908 L 143.999893 163.999908 L 167.999893 163.999908 C 179.152893 163.999908 189.381897 159.592896 196.802902 151.589905 C 204.022903 143.803894 207.999908 133.294891 207.999908 121.999893 C 207.999908 100.564896 192.177902 82.828903 171.4189 80.275894"/>
</svg>
