<?xml version="1.0" encoding="UTF-8"?>
<!-- Generated by Pixelmator Pro 3.7.1 -->
<svg width="256" height="256" viewBox="0 0 256 256" xmlns="http://www.w3.org/2000/svg">
    <path id="path1" fill="#ffffff" stroke="none" d="M 88.071404 88.001907 C 90.249397 87.963898 92.000397 86.183899 92.000397 83.999893 C 92.000397 77.382904 97.3834 71.999893 104.000397 71.999893 L 112.000404 71.999893 C 113.280403 71.999893 114.483398 71.386902 115.235397 70.351898 C 120.4384 63.192902 126.8424 59.999893 136.000397 59.999893 C 150.257401 59.999893 162.307404 70.527893 164.030396 84.489899 C 164.269394 86.425903 165.870407 87.907898 167.819397 87.995895 C 185.864395 88.813904 200.000397 103.749893 200.000397 121.999908 C 200.000397 141.382904 186.243393 155.999908 168.000397 155.999908 L 156.546402 155.999908 L 171.073395 138.559906 C 172.066406 137.367905 172.280396 135.707901 171.622406 134.302902 C 170.963394 132.897903 169.552399 131.999908 168.000397 131.999908 L 148.000397 131.999908 L 148.000397 87.999893 C 148.000397 81.382904 142.616394 75.999893 136.000397 75.999893 L 120.000404 75.999893 C 113.3834 75.999893 108.000404 81.382904 108.000404 87.999893 L 108.000404 131.999908 L 88.000397 131.999908 C 86.447403 131.999908 85.0354 132.897903 84.377403 134.303894 C 83.719398 135.7099 83.933403 137.368896 84.927399 138.560898 L 99.465401 155.999908 L 88.000397 155.999908 C 69.757401 155.999908 56.000401 141.382904 56.000401 121.999908 C 56.000401 103.911896 70.076401 89.004898 88.071404 88.001907 M 128.016403 183.999908 L 88.000397 135.999908 L 112.000404 135.999908 L 112.000404 87.999893 C 112.000404 83.581894 115.581398 79.999893 120.000404 79.999893 L 136.000397 79.999893 C 140.418396 79.999893 144.000397 83.581894 144.000397 87.999893 L 144.000397 135.999908 L 168.000397 135.999908 Z M 164.000397 191.999908 C 166.209396 191.999908 168.000397 193.790894 168.000397 195.999908 C 168.000397 198.208893 166.209396 199.999908 164.000397 199.999908 L 92.000397 199.999908 C 89.790398 199.999908 88.000397 198.208893 88.000397 195.999908 C 88.000397 193.790894 89.790398 191.999908 92.000397 191.999908 Z M 88.000397 159.999908 L 102.8004 159.999908 L 124.943405 186.560898 C 125.7034 187.4729 126.829399 187.999908 128.016403 187.999908 L 92.000397 187.999908 C 87.588402 187.999908 84.000397 191.588898 84.000397 195.999908 C 84.000397 200.410889 87.588402 203.999908 92.000397 203.999908 L 164.000397 203.999908 C 168.411392 203.999908 172.000397 200.410889 172.000397 195.999908 C 172.000397 191.588898 168.411392 187.999908 164.000397 187.999908 L 128.016403 187.999908 C 129.204407 187.999908 130.329407 187.471893 131.089401 186.559906 L 153.214401 159.999908 L 168.000397 159.999908 C 188.986404 159.999908 204.000397 142.986908 204.000397 121.999908 C 204.000397 101.599899 188.1754 84.913895 168.000397 83.999893 C 166.049393 68.194901 152.332397 55.999908 136.000397 55.999908 C 125.349403 55.999908 117.816399 59.996902 112.000404 67.999893 L 104.000397 67.999893 C 95.163399 67.999893 88.000397 75.163895 88.000397 83.999893 C 67.941399 85.038895 52.000401 101.682907 52.000401 121.999908 C 52.000401 142.986908 67.013397 159.999908 88.000397 159.999908"/>
</svg>
