<?xml version="1.0" encoding="UTF-8"?>
<!-- Generated by Pixelmator Pro 3.7.1 -->
<svg width="256" height="256" viewBox="0 0 256 256" xmlns="http://www.w3.org/2000/svg">
    <path id="path1" fill="#ffffff" stroke="none" d="M 128 52 C 94.828003 52 72 67.718002 72 128.088989 C 72 188.281998 94.828003 204 128 204 C 161.171997 204 184 188.281998 184 127.911011 C 184 67.718002 161.171997 52 128 52 M 128 55.996002 C 145.307999 55.996002 157.192993 60.440994 165.406006 69.987 C 175.227005 81.402008 180 100.348999 180 127.911011 C 180 155.554993 175.225998 174.554001 165.403 185.992996 C 157.195007 195.552994 145.311005 200.003998 128 200.003998 C 110.692001 200.003998 98.806 195.559006 90.594002 186.013 C 80.774002 174.597992 76 155.649994 76 128.088989 C 76 100.445007 80.774002 81.445999 90.597 70.007004 C 98.804001 60.447998 110.688995 55.996002 128 55.996002"/>
    <path id="path2" fill="#ffffff" stroke="none" d="M 136.039093 163.055695 L 136.039093 140.844696 L 147.119095 151.866699 Z M 136.039093 115.236694 L 136.039093 93.025696 L 147.119095 103.865707 Z M 124.039101 63.916702 L 124.039101 115.720703 L 100.231102 92.002701 L 92.039101 100.263702 L 120.039101 127.916702 L 92.039101 155.569702 L 100.231102 163.829697 L 124.039101 140.113708 L 124.039101 191.916702 L 164.039093 151.916702 L 140.039093 127.916702 L 164.039093 103.916702 Z M 132.039093 172.779694 L 138.881104 165.86969 L 149.962097 154.680695 L 152.769104 151.844696 L 149.940094 149.029694 L 138.8591 138.008698 L 132.039093 131.223694 L 132.039093 140.844696 L 132.039093 163.055695 L 132.039093 172.779694 M 132.039093 125.072693 L 138.903107 118.028702 L 149.9841 106.6577 L 152.770096 103.798706 L 149.916107 101.006699 L 138.836105 90.166702 L 132.039093 83.516693 L 132.039093 93.025696 L 132.039093 115.236694 L 132.039093 125.072693 M 128.039093 73.5737 L 158.382095 103.916702 L 137.210098 125.088699 L 134.382095 127.916702 L 137.210098 130.74469 L 158.382095 151.916702 L 128.039093 182.259705 L 128.039093 140.113708 L 128.039093 130.482697 L 121.216103 137.279694 L 100.2481 158.166702 L 97.702095 155.598694 L 122.850098 130.762695 L 125.731102 127.916702 L 122.850098 125.070694 L 97.702095 100.234695 L 100.2481 97.665695 L 121.216103 118.553696 L 128.039093 125.350693 L 128.039093 115.720703 Z"/>
</svg>
