<?xml version="1.0" encoding="UTF-8"?>
<!-- Generated by Pixelmator Pro 3.7.1 -->
<svg width="256" height="256" viewBox="0 0 256 256" xmlns="http://www.w3.org/2000/svg">
    <path id="Path" fill="#ffffff" stroke="none" d="M 127.957001 167.982391 C 127.947998 167.987396 127.942001 167.996399 127.931999 168.000397 L 127.989998 168.000397 C 127.980003 167.996399 127.973999 167.987396 127.964996 167.982391 C 127.975998 167.975403 127.988998 167.968399 128 167.961395 C 128.011002 167.968399 128.024002 167.975403 128.035004 167.982391 C 128.026001 167.987396 128.020004 167.996399 128.009995 168.000397"/>
    <path id="path1" fill="#ffffff" stroke="none" d="M 128.041504 44 C 103.123497 44 79.655495 54.936996 63.6535 74.007004 C 49.231503 91.194 42.366497 112.970001 44.321499 135.320999 C 46.276501 157.671997 56.8195 177.923996 74.0065 192.347 C 89.111496 205.020996 108.2715 212 127.958504 212 C 152.875504 212 176.344498 201.061996 192.346497 181.992996 C 206.768494 164.806 213.633499 143.029999 211.678497 120.679001 C 209.722504 98.328003 199.180496 78.076004 181.9935 63.653992 C 166.888504 50.979996 147.7285 44 128.041504 44 M 128.041504 48 C 146.185501 48 164.434494 54.141998 179.421494 66.718002 C 213.266495 95.117004 217.681503 145.575989 189.282501 179.421997 C 173.458496 198.279999 150.790497 208 127.958504 208 C 109.813499 208 91.565498 201.856995 76.578499 189.281998 C 42.732502 160.882996 38.318501 110.423004 66.717499 76.578003 C 82.541496 57.720001 105.210503 48 128.041504 48"/>
    <path id="path2" fill="#ffffff" stroke="none" d="M 201.133804 140.179703 C 197.472794 153.693695 189.991806 164.774689 178.593796 172.620697 C 162.107803 183.969696 144.763794 189.753693 126.749794 189.753693 C 115.761795 189.753693 104.526794 187.602692 93.081795 183.249695 C 79.802795 178.200699 69.868797 168.897705 67.14579 154.314697 C 63.828808 136.549698 68.79879 121.5327 82.228798 110.399704 C 81.021797 113.185699 80.240799 116.292694 80.008797 119.730698 C 79.213799 131.519699 86.692795 142.650696 93.5298 150.240692 C 94.861794 152.631699 96.6828 154.866699 98.966797 156.856689 C 102.366798 159.822693 105.9758 162.261703 109.762794 164.18869 C 116.471794 168.9487 125.2258 174.990692 125.720795 175.322693 L 126.730797 175.999695 L 127.9478 175.999695 L 127.999794 175.999695 L 129.216797 175.999695 L 130.227798 175.322693 C 130.559799 175.099701 134.611801 172.305695 139.265793 169.054703 C 167.469803 166.08371 187.719803 150.617706 201.827805 126.0047 C 202.254807 125.260696 202.727798 124.542694 203.178802 123.812698 C 203.178802 126.366699 201.915802 137.294708 201.133804 140.179703 M 117.700798 92.592697 C 119.411797 92.424698 121.112793 92.338699 122.777794 92.338699 C 126.855797 92.338699 130.817795 92.841705 134.647797 93.842697 C 133.399796 94.398697 132.181793 95.074707 131.002808 95.868698 C 130.972794 95.859695 130.944794 95.848694 130.913803 95.839706 C 127.828796 94.9617 124.737793 94.348694 121.6698 93.996704 C 120.376793 93.394699 119.051796 92.924698 117.700798 92.592697 M 148.177795 163.549698 C 147.664795 163.664703 147.145798 163.768707 146.627792 163.873703 C 146.673798 163.841705 146.721802 163.807709 146.767792 163.775696 C 147.237793 163.704697 147.706802 163.63269 148.177795 163.549698 M 145.250793 159.946701 C 145.248795 159.9487 145.245804 159.949707 145.243805 159.950699 C 143.344803 161.306702 141.183792 162.829697 139.0448 164.328705 C 139.036804 164.33371 139.0298 164.339691 139.021805 164.344696 C 138.657791 164.599701 138.295792 164.853699 137.934799 165.106689 C 137.900803 165.130707 137.8638 165.155701 137.829803 165.179703 C 135.563797 166.764709 133.389801 168.27771 131.659805 169.475708 C 131.156799 169.824707 130.693802 170.145691 130.274796 170.435699 C 130.257797 170.446701 130.242798 170.455688 130.226807 170.467697 C 129.6698 170.852692 129.199799 171.177704 128.831802 171.430695 C 128.7258 171.503693 128.631805 171.568695 128.543808 171.628693 C 128.485794 171.667694 128.426804 171.70871 128.377808 171.742706 C 128.195801 171.866699 128.064804 171.955688 127.999794 171.999695 L 127.9478 171.999695 C 127.908798 171.973694 127.842796 171.928711 127.761795 171.872711 C 127.747795 171.863708 127.727798 171.849701 127.7118 171.839691 C 127.6408 171.79071 127.559799 171.735703 127.462799 171.668701 C 127.426796 171.644699 127.388794 171.617706 127.3498 171.590698 C 127.245796 171.519699 127.131798 171.441696 127.006798 171.354706 C 126.982796 171.337708 126.958794 171.322693 126.9338 171.304703 C 126.788795 171.204697 126.629799 171.095703 126.458794 170.977692 C 126.428795 170.956696 126.401794 170.937698 126.370796 170.916702 C 125.972794 170.6427 125.517799 170.326691 125.005798 169.972702 C 124.900795 169.900696 124.786797 169.821701 124.676796 169.74469 C 124.527794 169.641693 124.378799 169.537689 124.220795 169.429703 C 124.115799 169.356689 124.007797 169.281708 123.899796 169.205688 C 123.7108 169.075699 123.519798 168.942703 123.3218 168.805695 C 123.271797 168.770691 123.2258 168.7397 123.174797 168.702698 C 118.872795 165.716705 112.660797 161.375702 108.649796 158.477692 C 108.6008 158.441696 108.552795 158.4077 108.504799 158.371704 C 108.222794 158.167694 107.951797 157.97171 107.694794 157.783691 C 107.671799 157.7677 107.647797 157.749695 107.625793 157.733704 C 107.338799 157.524689 107.066795 157.324707 106.814796 157.137695 C 106.810799 157.134705 106.8078 157.13269 106.803795 157.1297 C 106.579796 156.963699 106.373795 156.810699 106.180794 156.664703 C 106.121796 156.61969 106.066795 156.577698 106.009796 156.535706 C 105.870796 156.429703 105.742798 156.331696 105.623795 156.2397 C 105.574799 156.201691 105.523796 156.162689 105.478798 156.126709 C 105.328796 156.009705 105.192795 155.901703 105.083794 155.811707 C 104.9618 155.710693 104.803795 155.577698 104.630798 155.432709 C 104.584793 155.394699 104.5438 155.359711 104.494797 155.318695 C 104.110794 154.992706 103.6278 154.575699 103.062798 154.072693 C 102.991798 154.008698 102.922798 153.947693 102.8498 153.881699 C 102.267799 153.359711 101.611794 152.753693 100.897797 152.071701 C 100.811798 151.9897 100.7258 151.906708 100.637794 151.821701 C 99.911797 151.121704 99.136795 150.349701 98.327797 149.50769 C 98.228798 149.404694 98.129799 149.30069 98.028793 149.194702 C 95.722794 146.770691 93.1978 143.822693 90.925797 140.516693 L 90.925797 140.515701 C 90.1828 139.435699 89.469795 138.316696 88.798798 137.16571 C 88.763794 137.106689 88.727798 137.047699 88.693794 136.988708 C 88.523796 136.694702 88.360794 136.397705 88.1968 136.100708 C 88.117798 135.954697 88.036797 135.810699 87.958794 135.664703 C 87.814796 135.393707 87.673798 135.120697 87.534798 134.847702 C 87.443794 134.668701 87.354797 134.490692 87.2658 134.310699 C 87.139793 134.051697 87.014793 133.792694 86.893799 133.5327 C 86.799797 133.329697 86.709793 133.126709 86.618797 132.922699 C 86.508797 132.674698 86.398796 132.42569 86.2938 132.174698 C 86.1978 131.946701 86.108795 131.716705 86.017799 131.486694 C 85.925797 131.2547 85.832794 131.025696 85.746796 130.792694 C 85.598793 130.393707 85.459793 129.991699 85.327797 129.587708 C 85.262794 129.388702 85.203796 129.189697 85.143799 128.990692 C 85.042793 128.661697 84.944794 128.33371 84.855797 128.002701 C 84.803795 127.809708 84.759796 127.616699 84.712799 127.423706 C 84.639793 127.130707 84.569794 126.838699 84.507797 126.544693 C 84.464798 126.342697 84.426796 126.139694 84.388794 125.937698 C 84.333794 125.646698 84.282799 125.355698 84.2388 125.062698 C 84.207794 124.862701 84.178795 124.660706 84.153793 124.459702 C 84.114799 124.158707 84.083794 123.855698 84.055794 123.553696 C 84.038795 123.361694 84.019798 123.169693 84.006798 122.9767 C 83.984795 122.645706 83.9748 122.312698 83.966797 121.980698 C 83.962799 121.816696 83.953796 121.653702 83.953796 121.490707 C 83.953796 120.993698 83.966797 120.497696 83.999794 119.999695 C 84.032799 119.508698 84.081795 119.028702 84.139793 118.554703 C 84.158798 118.399704 84.1828 118.249695 84.204796 118.096695 C 84.248795 117.780701 84.296799 117.466705 84.351799 117.158707 C 84.383797 116.982697 84.417793 116.809692 84.452797 116.636703 C 84.508797 116.355698 84.570793 116.078705 84.634796 115.805695 C 84.676796 115.630707 84.718796 115.454697 84.764793 115.2827 C 84.8358 115.012695 84.912796 114.747696 84.991798 114.484695 C 85.040794 114.321701 85.0868 114.156693 85.138794 113.996704 C 85.240799 113.682693 85.351799 113.375702 85.464798 113.071701 C 85.548798 112.847702 85.635796 112.628693 85.7248 112.410706 C 85.825798 112.163696 85.926796 111.916702 86.035797 111.675705 C 86.124794 111.479706 86.219795 111.289703 86.313797 111.097702 C 86.398796 110.922699 86.483795 110.746704 86.5728 110.575699 C 86.678795 110.370697 86.788795 110.1707 86.900795 109.971695 C 86.982796 109.824707 87.066795 109.678696 87.151794 109.534698 C 87.275795 109.324707 87.400795 109.116699 87.5308 108.911697 C 87.602798 108.798706 87.677795 108.687698 87.751793 108.575699 C 88.483795 107.467697 89.299797 106.441696 90.185799 105.495697 C 90.218796 105.460693 90.251793 105.423706 90.285797 105.387695 C 90.503799 105.158707 90.7258 104.933701 90.951797 104.713699 L 91.055794 104.612701 C 91.291794 104.384705 91.5308 104.160706 91.775795 103.943695 L 91.775795 103.942703 C 97.6828 98.6707 105.795799 96.325699 111.999794 95.999695 C 115.315796 95.825699 118.186798 96.688705 120.556793 97.897705 L 120.579796 97.898697 C 120.731796 97.9767 120.875793 98.058701 121.023796 98.139694 C 121.214798 98.243698 121.403793 98.347702 121.587799 98.455704 C 121.843796 98.605698 122.093796 98.758698 122.3358 98.913696 C 122.499794 99.018707 122.656799 99.124695 122.813797 99.231705 C 122.982796 99.346695 123.146797 99.463699 123.3088 99.580704 C 123.534798 99.744705 123.7528 99.906708 123.962799 100.071701 C 124.117798 100.191696 124.271797 100.311707 124.417793 100.431702 C 124.561798 100.549698 124.6978 100.664703 124.833794 100.781708 C 124.954796 100.885696 125.068794 100.986694 125.1828 101.088699 C 125.382797 101.266708 125.569794 101.438705 125.748795 101.608704 C 125.852798 101.707703 125.956795 101.806702 126.053795 101.902695 C 126.163795 102.009705 126.2658 102.111694 126.365799 102.213699 C 126.455795 102.305695 126.538795 102.3927 126.620796 102.478699 C 126.761795 102.626694 126.889793 102.763702 127.008797 102.894699 C 127.078796 102.971695 127.147797 103.047699 127.2108 103.117706 C 127.281799 103.1987 127.344795 103.269699 127.4058 103.340698 C 127.463799 103.4077 127.512794 103.464706 127.561798 103.521698 C 127.686798 103.669708 127.788795 103.791702 127.855797 103.870697 C 127.867798 103.885696 127.878799 103.897705 127.888794 103.909698 C 127.936798 103.965698 127.966797 103.999695 127.973793 103.999695 C 128.049805 103.999695 130.836807 100.155701 135.636795 97.789703 C 135.634796 97.788696 135.631805 97.787704 135.629807 97.786697 C 135.660797 97.771698 135.695801 97.758698 135.726807 97.743698 C 135.987793 97.616699 136.261795 97.499695 136.534805 97.381699 C 136.704803 97.308701 136.872803 97.235703 137.047806 97.166702 C 137.339798 97.051697 137.640793 96.949707 137.944794 96.847702 C 138.107803 96.793701 138.270798 96.7397 138.437805 96.689697 C 138.764801 96.591705 139.098801 96.505707 139.438797 96.425705 C 139.595795 96.389694 139.752792 96.354706 139.911804 96.322708 C 140.265793 96.250702 140.624802 96.189697 140.992798 96.139694 C 141.062805 96.130707 141.127792 96.1147 141.196793 96.105698 C 141.203796 96.108704 141.2108 96.112701 141.217804 96.115707 C 142.111801 96.007706 143.031799 95.949707 143.999802 95.999695 C 146.812805 96.147705 150.018799 96.713699 153.233795 97.775696 C 153.325806 97.805695 153.418793 97.835693 153.511795 97.866699 C 154.047806 98.048706 154.582794 98.242706 155.115799 98.451706 C 155.174805 98.475708 155.233795 98.500702 155.291794 98.524704 C 155.783798 98.720703 156.273804 98.930695 156.760803 99.151703 C 156.844803 99.189697 156.928802 99.2267 157.012802 99.264694 C 157.530792 99.506699 158.046799 99.761703 158.556793 100.0327 C 158.645798 100.079697 158.734802 100.1297 158.8228 100.177704 C 159.291794 100.431702 159.756805 100.697708 160.213806 100.977707 C 160.273804 101.013702 160.333801 101.047699 160.392792 101.084702 C 160.883804 101.389694 161.365799 101.712708 161.840805 102.048706 C 161.939804 102.117706 162.036804 102.189697 162.134796 102.260696 C 162.603806 102.6017 163.065796 102.952698 163.513794 103.324707 C 163.523804 103.331696 163.532791 103.339706 163.542801 103.347702 C 163.993805 103.723694 164.430801 104.120697 164.857803 104.528702 C 164.951797 104.618698 165.045792 104.709702 165.139801 104.801697 C 165.558792 105.214706 165.967804 105.640701 166.358795 106.0867 C 166.394806 106.127701 166.427795 106.171707 166.463806 106.212708 C 166.8228 106.6297 167.166794 107.062698 167.498795 107.507706 C 167.576797 107.612701 167.6548 107.715698 167.731796 107.821701 C 168.077805 108.302704 168.408798 108.798706 168.720795 109.313705 C 168.775803 109.404694 168.825806 109.498703 168.879791 109.589706 C 169.153793 110.055695 169.409805 110.535706 169.652802 111.029694 C 169.703796 111.134705 169.758804 111.237701 169.809799 111.343704 C 170.071793 111.900696 170.312805 112.475693 170.532806 113.067703 C 170.580795 113.195694 170.624802 113.325699 170.6698 113.454697 C 170.8638 114.005707 171.041794 114.568695 171.1978 115.149704 C 171.219803 115.232697 171.245804 115.312698 171.267807 115.396698 C 171.4328 116.035706 171.567795 116.6987 171.681793 117.374695 C 171.708801 117.5327 171.732803 117.692703 171.756805 117.852707 C 171.862793 118.550705 171.949799 119.261703 171.999802 119.999695 C 173.145798 136.978699 153.884796 153.311707 150.8638 155.811707 C 150.765793 155.893707 150.646805 155.988708 150.512802 156.093689 C 150.467804 156.128693 150.412796 156.1707 150.3638 156.20871 C 150.267792 156.283691 150.167801 156.361694 150.056793 156.445709 C 149.994797 156.491699 149.926804 156.543701 149.861801 156.593689 C 149.747803 156.678711 149.631805 156.766693 149.506805 156.859711 C 149.433792 156.913696 149.357803 156.970703 149.2798 157.028702 C 149.142792 157.130707 148.998795 157.237701 148.848801 157.347702 C 148.776794 157.401703 148.702805 157.454697 148.627792 157.509705 C 148.464798 157.6297 148.2948 157.753693 148.119797 157.880707 C 148.038803 157.939697 147.959793 157.997711 147.876801 158.058701 C 147.684799 158.197693 147.484802 158.342697 147.280792 158.4897 C 147.213806 158.537689 147.150803 158.58371 147.081802 158.633698 C 146.509796 159.046692 145.895798 159.486694 145.250793 159.946701 M 53.230801 132.828705 C 53.057796 133.146698 52.852795 133.445709 52.282803 134.368698 C 52.328808 125.227707 53.843807 117.076706 57.316799 109.347702 C 64.860802 92.560699 78.0868 81.8367 94.830795 75.302704 C 95.739799 74.947693 96.650795 74.609695 97.561798 74.279694 C 108.423798 70.346695 119.362793 68.210693 130.3228 68.210693 C 140.831802 68.210693 151.3638 70.168701 161.875793 74.373703 C 174.4198 79.3927 183.998795 87.7827 187.840805 101.2957 C 193.526794 121.289703 184.198807 142.736694 165.138794 153.206696 C 164.621796 153.490692 164.103806 153.766693 163.584793 154.034698 C 160.675797 155.537689 157.721802 156.792694 154.724792 157.7827 C 161.403793 151.998703 177.122803 136.5047 175.990799 119.730698 C 175.398804 110.946701 171.190796 103.621704 163.8228 98.547699 C 158.316803 94.7547 151.167801 92.369705 144.208801 92.005707 C 143.8508 91.986694 143.494797 91.977707 143.144806 91.977707 C 142.719803 91.977707 142.296799 92.014694 141.872803 92.041702 C 135.831802 89.581696 129.445801 88.338699 122.777794 88.338699 C 120.3498 88.337708 117.885796 88.502701 115.386795 88.832703 C 87.069794 92.572708 66.7808 108.033707 53.230801 132.828705 M 199.776794 121.709702 C 199.639801 121.931702 199.499802 122.152695 199.360794 122.372696 C 199.030807 122.895706 198.691803 123.434692 198.358795 124.015701 C 192.026794 135.061707 184.4888 143.987701 175.914795 150.611694 C 190.531799 138.155701 196.9478 118.697693 191.688797 100.201706 C 187.812805 86.568695 178.280792 76.628708 163.361801 70.659698 C 161.337799 69.850693 159.2948 69.141693 157.242798 68.483704 C 153.179794 67.179703 149.066803 66.173706 144.916794 65.468704 C 143.2388 65.183701 141.556793 64.942703 139.868805 64.756699 C 136.699799 64.406693 133.5168 64.210693 130.3228 64.210693 C 128.852798 64.210693 127.375793 64.248703 125.892799 64.3237 C 125.815796 64.326706 125.737793 64.331696 125.660797 64.335693 C 123.594795 64.444702 121.517799 64.628693 119.429794 64.881699 C 119.028793 64.929703 118.626793 64.982697 118.2248 65.036697 C 111.088799 65.992706 103.842796 67.7827 96.554794 70.3927 C 95.496796 70.772705 94.436798 71.161697 93.376793 71.575699 C 74.489799 78.946701 61.130795 91.102707 53.668804 107.708694 C 50.093807 115.661697 48.332806 124.376694 48.282803 134.348694 L 48.210796 148.571701 L 55.685802 136.47171 C 55.8988 136.126709 56.058804 135.871704 56.184795 135.671692 C 56.452801 135.243698 56.603802 134.998703 56.740795 134.747711 C 63.226803 122.8797 71.289803 113.374695 80.706795 106.480698 C 65.552803 118.481705 59.507793 135.197693 63.213802 155.048706 C 65.990791 169.922699 75.827797 180.967697 91.659798 186.988708 C 103.463799 191.477692 115.268799 193.753693 126.749794 193.753693 C 145.4608 193.753693 163.666794 187.751709 180.861801 175.91571 C 192.879807 167.6427 200.998795 155.97171 204.994797 141.225708 C 205.886795 137.933701 207.178802 126.596695 207.178802 123.812698 L 207.178802 109.729706 Z"/>
</svg>
