<?xml version="1.0" encoding="UTF-8"?>
<!-- Generated by Pixelmator Pro 3.7.1 -->
<svg width="256" height="256" viewBox="0 0 256 256" xmlns="http://www.w3.org/2000/svg">
    <path id="Path" fill="#ffffff" stroke="none" d="M 136 108 L 120 108 C 113.373001 108 108 113.373001 108 120 L 108 136 C 108 142.626999 113.373001 148 120 148 L 136 148 C 142.626999 148 148 142.626999 148 136 L 148 120 C 148 113.373001 142.626999 108 136 108 M 136 112 C 140.410995 112 144 115.589005 144 120 L 144 136 C 144 140.410995 140.410995 144 136 144 L 120 144 C 115.589005 144 112 140.410995 112 136 L 112 120 C 112 115.589005 115.589005 112 120 112 L 136 112"/>
    <path id="path1" fill="#ffffff" stroke="none" d="M 180 84 L 180 88 L 180 92 L 180 96 L 180 100 L 180 104 L 180 108 L 180 112 L 180 116 L 180 120 L 180 124 L 180 128 L 180 132 L 180 136 L 180 140 L 180 144 L 180 148 L 180 152 L 180 156 L 180 160 L 180 164 L 180 168 L 180 172 L 180 176 L 180 180 L 176 180 L 172 180 L 168 180 L 164 180 L 160 180 L 156 180 L 152 180 L 148 180 L 144 180 L 140 180 L 136 180 L 132 180 L 128 180 L 124 180 L 120 180 L 116 180 L 112 180 L 108 180 L 104 180 L 100 180 L 96 180 L 92 180 L 88 180 L 84 180 L 80 180 L 76 180 L 76 176 L 76 172 L 76 168 L 76 164 L 76 160 L 76 156 L 76 152 L 76 148 L 76 144 L 76 140 L 76 136 L 76 132 L 76 128 L 76 124 L 76 120 L 76 116 L 76 112 L 76 108 L 76 104 L 76 100 L 76 96 L 76 92 L 76 88 L 76 84 L 76 80 L 76 76 L 84 76 L 88 76 L 92 76 L 96 76 L 100 76 L 104 76 L 108 76 L 112 76 L 116 76 L 120 76 L 124 76 L 128 76 L 132 76 L 136 76 L 140 76 L 144 76 L 148 76 L 152 76 L 156 76 L 160 76 L 164 76 L 168 76 L 172 76 L 176 76 L 180 76 L 180 80 Z M 192.220993 80 L 192.220993 76 L 184 76 L 184 72 L 184 64 L 180 64 L 180 72 L 176 72 L 176 64 L 172 64 L 172 72 L 168 72 L 168 64 L 164 64 L 164 72 L 160 72 L 160 64 L 156 64 L 156 72 L 152 72 L 152 64 L 148 64 L 148 72 L 144 72 L 144 64 L 140 64 L 140 72 L 136 72 L 136 64 L 132 64 L 132 72 L 128 72 L 128 64 L 124 64 L 124 72 L 120 72 L 120 64 L 116 64 L 116 72 L 112 72 L 112 64 L 108 64 L 108 72 L 104 72 L 104 64 L 100 64 L 100 72 L 96 72 L 96 64 L 92 64 L 92 72 L 88 72 L 88 64 L 84 64 L 84 72 L 80 72 L 80 64 L 76 64 L 76 72 L 72 72 L 63.778999 72 L 63.778999 76 L 72 76 L 72 80 L 63.778999 80 L 63.778999 84 L 72 84 L 72 88 L 63.778999 88 L 63.778999 92 L 72 92 L 72 96 L 63.778999 96 L 63.778999 100 L 72 100 L 72 104 L 63.778999 104 L 63.778999 108 L 72 108 L 72 112 L 63.778999 112 L 63.778999 116 L 72 116 L 72 120 L 63.778999 120 L 63.778999 124 L 72 124 L 72 128 L 63.778999 128 L 63.778999 132 L 72 132 L 72 136 L 63.778999 136 L 63.778999 140 L 72 140 L 72 144 L 63.778999 144 L 63.778999 148 L 72 148 L 72 152 L 63.778999 152 L 63.778999 156 L 72 156 L 72 160 L 63.778999 160 L 63.778999 164 L 72 164 L 72 168 L 63.778999 168 L 63.778999 172 L 72 172 L 72 176 L 63.778999 176 L 63.778999 180 L 72 180 L 72 184 L 72 192 L 76 192 L 76 184 L 80 184 L 80 192 L 84 192 L 84 184 L 88 184 L 88 192 L 92 192 L 92 184 L 96 184 L 96 192 L 100 192 L 100 184 L 104 184 L 104 192 L 108 192 L 108 184 L 112 184 L 112 192 L 116 192 L 116 184 L 120 184 L 120 192 L 124 192 L 124 184 L 128 184 L 128 192 L 132 192 L 132 184 L 136 184 L 136 192 L 140 192 L 140 184 L 144 184 L 144 192 L 148 192 L 148 184 L 152 184 L 152 192 L 156 192 L 156 184 L 160 184 L 160 192 L 164 192 L 164 184 L 168 184 L 168 192 L 172 192 L 172 184 L 176 184 L 176 192 L 180 192 L 180 184 L 184 184 L 192.220993 184 L 192.220993 180 L 184 180 L 184 176 L 192.220993 176 L 192.220993 172 L 184 172 L 184 168 L 192.220993 168 L 192.220993 164 L 184 164 L 184 160 L 192.220993 160 L 192.220993 156 L 184 156 L 184 152 L 192.220993 152 L 192.220993 148 L 184 148 L 184 144 L 192.220993 144 L 192.220993 140 L 184 140 L 184 136 L 192.220993 136 L 192.220993 132 L 184 132 L 184 128 L 192.220993 128 L 192.220993 124 L 184 124 L 184 120 L 192.220993 120 L 192.220993 116 L 184 116 L 184 112 L 192.220993 112 L 192.220993 108 L 184 108 L 184 104 L 192.220993 104 L 192.220993 100 L 184 100 L 184 96 L 192.220993 96 L 192.220993 92 L 184 92 L 184 88 L 192.220993 88 L 192.220993 84 L 184 84 L 184 80 Z"/>
    <path id="path2" fill="#ffffff" stroke="none" d="M 88 184 L 88 164 L 167.980011 164 L 167.980011 184 L 171.980011 184 L 171.980011 164 L 171.980011 160 L 167.980011 160 L 88 160 L 84 160 L 84 164 L 84 184 Z"/>
</svg>
