<?xml version="1.0" encoding="UTF-8"?>
<!-- Generated by Pixelmator Pro 3.7.1 -->
<svg width="256" height="256" viewBox="0 0 256 256" xmlns="http://www.w3.org/2000/svg">
    <path id="Path" fill="#ffffff" stroke="none" d="M 148 72 L 144 72 L 112 72 L 108 72 L 108 76 L 108 92 L 108 96 L 112 96 L 144 96 L 148 96 L 148 92 L 148 76 Z M 144 92 L 112 92 L 112 76 L 144 76 Z"/>
    <path id="path1" fill="#ffffff" stroke="none" d="M 148 108 L 144 108 L 112 108 L 108 108 L 108 112 L 108 176 L 108 180 L 112 180 L 144 180 L 148 180 L 148 176 L 148 112 Z M 144 176 L 112 176 L 112 112 L 144 112 Z"/>
</svg>
