<?xml version="1.0" encoding="UTF-8"?>
<!-- Generated by Pixelmator Pro 3.7.1 -->
<svg width="256" height="256" viewBox="0 0 256 256" xmlns="http://www.w3.org/2000/svg">
    <path id="Path" fill="#ffffff" stroke="none" d="M 128 67.5 L 126.167 68.444 C 116.390999 73.483002 104.190002 85.509995 93.531998 100.615997 C 88.259995 108.085999 76 127.001999 76 141.264999 C 76 154.854004 83.932999 163.983002 95.738998 163.983002 C 101.527 163.983002 107.941002 161.783997 114.694 157.533997 L 104.307999 182.462006 L 102 188 L 108 188 L 128 188 L 148 188 L 154 188 L 151.692001 182.462006 L 141.306 157.533997 C 148.059006 161.783997 154.472992 163.983002 160.261002 163.983002 C 172.067001 163.983002 180 154.854004 180 141.264999 C 180 127.001999 167.738998 108.085999 162.468994 100.615997 C 151.809998 85.509995 139.608994 73.483002 129.832001 68.444 Z M 128 72 C 147.199997 81.895004 176 121.475006 176 141.264999 C 176 152.11499 170.223999 159.983002 160.261002 159.983002 C 152.846008 159.983002 143.112 155.628998 131.709 144.902008 L 148 184 L 128 184 L 108 184 L 124.291 144.902008 C 112.888 155.628998 103.154999 159.983002 95.738998 159.983002 C 85.776001 159.983002 80 152.11499 80 141.264999 C 80 121.475006 108.800003 81.895004 128 72"/>
</svg>
