<?xml version="1.0" encoding="UTF-8"?>
<!-- Generated by Pixelmator Pro 3.7.1 -->
<svg width="256" height="256" viewBox="0 0 256 256" xmlns="http://www.w3.org/2000/svg">
    <path id="Path" fill="#ffffff" stroke="none" d="M 128 72 C 97.122002 72 72 97.121994 72 128 C 72 158.878998 97.122002 184 128 184 C 158.878998 184 184 158.878998 184 128 C 184 97.121994 158.878998 72 128 72 M 128 76 C 156.725006 76 180 99.274994 180 128 C 180 156.725006 156.725006 180 128 180 C 99.275002 180 76 156.725006 76 128 C 76 99.274994 99.275002 76 128 76"/>
    <path id="path1" fill="#ffffff" stroke="none" d="M 128 112 C 119.178001 112 112 119.177994 112 128 C 112 136.821991 119.178001 144 128 144 C 136.822006 144 144 136.821991 144 128 C 144 119.177994 136.822006 112 128 112 M 128 116 C 134.636002 116 140 121.363998 140 128 C 140 134.636002 134.636002 140 128 140 C 121.363998 140 116 134.636002 116 128 C 116 121.363998 121.363998 116 128 116"/>
</svg>
