<?xml version="1.0" encoding="UTF-8"?>
<!-- Generated by Pixelmator Pro 3.7.1 -->
<svg width="256" height="256" viewBox="0 0 256 256" xmlns="http://www.w3.org/2000/svg">
    <path id="Path" fill="#ffffff" stroke="none" d="M 180 116.910599 C 178.048996 117.7966 175.451004 118.730606 172.020004 119.631607 C 161.134995 122.489594 145.912994 123.999603 128 123.999603 C 110.086998 123.999603 94.864998 122.489594 83.980003 119.631607 C 80.549004 118.730606 77.950996 117.7966 76 116.910599 L 76 110.163605 C 77.807999 110.822601 79.779999 111.440598 81.948997 112.009598 C 93.487 115.038605 109.412003 116.639603 128 116.639603 C 146.587997 116.639603 162.513 115.038605 174.050995 112.009598 C 176.220001 111.440598 178.192001 110.822601 180 110.163605 Z M 189.440002 112.639603 L 189.440002 120.319595 L 189.440002 127.999603 L 189.440002 135.679596 C 189.440002 144.161591 166.173996 151.039612 128 151.039612 C 89.827003 151.039612 66.559998 144.161591 66.559998 135.679596 L 66.559998 127.999603 L 66.559998 120.319595 L 66.559998 112.639603 C 66.559998 121.122604 89.827003 127.999603 128 127.999603 C 166.173996 127.999603 189.440002 121.122604 189.440002 112.639603 M 180 155.310608 C 178.048996 156.197601 175.451004 157.1306 172.020004 158.032593 C 161.134995 160.889603 145.912994 162.400604 128 162.400604 C 110.086998 162.400604 94.864998 160.889603 83.980003 158.032593 C 80.549004 157.1306 77.950996 156.197601 76 155.310608 L 76 148.564606 C 77.807999 149.222595 79.779999 149.840607 81.948997 150.410599 C 93.487 153.438599 109.412003 155.039612 128 155.039612 C 146.587997 155.039612 162.513 153.438599 174.050995 150.410599 C 176.220001 149.840607 178.192001 149.222595 180 148.564606 Z M 189.440002 151.039612 L 189.440002 158.719604 L 189.440002 166.400604 L 189.440002 174.07959 C 189.440002 182.562592 166.173996 189.440598 128 189.440598 C 89.827003 189.440598 66.559998 182.562592 66.559998 174.07959 L 66.559998 166.400604 L 66.559998 158.719604 L 66.559998 151.039612 C 66.559998 159.522598 89.827003 166.400604 128 166.400604 C 166.173996 166.400604 189.440002 159.522598 189.440002 151.039612 M 66.559998 97.280594 L 66.559998 81.919601 C 66.559998 73.437607 89.827003 66.559601 128 66.559601 C 166.173996 66.559601 189.440002 73.437607 189.440002 81.919601 L 189.440002 97.280594 C 189.440002 105.762604 166.173996 112.639603 128 112.639603 C 89.827003 112.639603 66.559998 105.762604 66.559998 97.280594 M 193.440002 97.280594 L 193.440002 81.919601 C 193.440002 75.523605 186.916 70.567596 174.050995 67.189606 C 162.513 64.160599 146.587997 62.559601 128 62.559601 C 109.412003 62.559601 93.487 64.160599 81.948997 67.189606 C 69.083 70.567596 62.559998 75.523605 62.559998 81.919601 L 62.559998 97.280594 C 62.559998 101.734604 65.733002 105.488602 72 108.498596 L 72 114.553604 C 70.931 113.674606 70.559998 112.985596 70.559998 112.639603 C 70.559998 110.430603 68.768997 108.639603 66.559998 108.639603 C 64.350998 108.639603 62.559998 110.430603 62.559998 112.639603 L 62.559998 120.319595 L 62.559998 127.999603 L 62.559998 135.679596 C 62.559998 140.134598 65.733002 143.888611 72 146.899597 L 72 152.953598 C 70.931 152.075592 70.559998 151.38559 70.559998 151.039612 C 70.559998 148.830597 68.768997 147.039597 66.559998 147.039597 C 64.350998 147.039597 62.559998 148.830597 62.559998 151.039612 L 62.559998 158.719604 L 62.559998 166.400604 L 62.559998 174.07959 C 62.559998 180.476593 69.083 185.432602 81.948997 188.809601 C 93.487 191.838593 109.412003 193.440598 128 193.440598 C 146.587997 193.440598 162.513 191.838593 174.050995 188.809601 C 186.916 185.432602 193.440002 180.476593 193.440002 174.07959 L 193.440002 166.400604 L 193.440002 158.719604 L 193.440002 151.039612 C 193.440002 148.830597 191.649002 147.039597 189.440002 147.039597 C 187.229996 147.039597 185.440002 148.830597 185.440002 151.039612 C 185.440002 151.38559 185.069 152.075592 184 152.953598 L 184 146.899597 C 190.266998 143.888611 193.440002 140.134598 193.440002 135.679596 L 193.440002 127.999603 L 193.440002 120.319595 L 193.440002 112.639603 C 193.440002 110.430603 191.649002 108.639603 189.440002 108.639603 C 187.229996 108.639603 185.440002 110.430603 185.440002 112.639603 C 185.440002 112.985596 185.069 113.674606 184 114.553604 L 184 108.498596 C 190.266998 105.488602 193.440002 101.734604 193.440002 97.280594"/>
</svg>
