<?xml version="1.0" encoding="UTF-8"?>
<!-- Generated by Pixelmator Pro 3.7.1 -->
<svg width="256" height="256" viewBox="0 0 256 256" xmlns="http://www.w3.org/2000/svg">
    <path id="Path" fill="#ffffff" stroke="none" d="M 158.497101 145.762695 L 158.6241 145.216705 L 149.428101 152.936707 C 143.049103 158.291702 135.675095 162.202698 127.510101 164.561707 L 124.044098 165.56369 L 124.115097 165.95871 C 118.445099 167.268707 112.250099 167.999695 105.455101 167.999695 L 88.000099 150.6297 C 88.000099 77.918701 155.292099 72.000702 177.198105 71.999695 C 181.458099 71.999695 184.000107 72.223694 184.000107 72.223694 C 184.000107 72.223694 184.000107 117.468704 158.497101 145.762695 M 128.000107 183.999695 C 128.000107 183.999695 129.697098 175.345703 128.6931 168.890701 C 137.134094 166.474701 144.794098 162.66571 151.605103 157.496704 C 146.711105 174.478699 128.000107 183.999695 128.000107 183.999695 M 80.954102 127.352707 C 76.311104 127.352707 72.000099 127.999695 72.000099 127.999695 C 72.000099 127.999695 78.948097 107.184708 96.000099 103.999695 C 91.490097 110.932693 88.243103 118.840698 86.309097 127.7267 C 84.632103 127.450699 82.768105 127.352707 80.954102 127.352707 M 76.000099 179.999695 C 76.000099 179.999695 80.591103 160.000702 88.492104 159.999695 C 90.037102 159.999695 91.708099 160.764709 93.497101 162.592697 C 104.432098 173.771698 76.000099 179.999695 76.000099 179.999695 M 184.351105 68.2397 C 184.239105 68.229706 181.584106 67.999695 177.200104 67.999695 L 177.198105 67.999695 C 165.425095 67.999695 142.659103 69.627701 122.483101 80.529694 C 113.414101 85.429703 105.8591 91.693695 99.925102 99.197708 L 95.266098 100.067703 C 76.120102 103.643707 68.520103 125.792694 68.2061 126.733704 L 66.139099 132.924698 L 72.594101 131.955688 C 72.632103 131.949707 76.686104 131.352692 80.954102 131.352692 C 82.778099 131.352692 84.363098 131.460693 85.662102 131.673706 L 85.664101 131.673706 C 84.559097 137.628693 84.000099 143.953705 84.000099 150.6297 L 84.000099 152.292694 L 85.1791 153.465698 L 87.764099 156.037689 C 83.044098 156.42569 78.955101 160.58371 75.604103 168.429703 C 73.355103 173.697693 72.1511 178.886703 72.101097 179.105698 L 70.689102 185.258698 L 76.856102 183.9077 C 77.049103 183.865692 81.646103 182.847702 86.573097 180.893707 C 94.087097 177.913696 98.356102 174.403702 99.6241 170.160706 C 99.798096 169.576691 99.930099 168.91571 99.980103 168.195709 L 102.633102 170.834702 L 103.803101 171.999695 L 105.455101 171.999695 C 112.269096 171.999695 118.7201 171.2827 124.798096 169.887695 C 125.558098 175.505707 124.090096 183.149704 124.075096 183.229706 L 122.500099 191.283691 L 129.813095 187.565704 C 130.690094 187.118698 151.343094 176.41571 155.895096 156.908691 L 156.772095 153.149689 C 165.477097 145.113708 172.574097 134.575699 177.883102 121.6297 C 187.885101 97.236694 188.000107 73.233704 188.000107 72.223694 L 188.000107 68.559692 Z"/>
    <path id="path1" fill="#ffffff" stroke="none" d="M 148 112 C 143.584 112 140 108.416 140 104 C 140 99.584 143.584 96 148 96 C 152.416 96 156 99.584 156 104 C 156 108.416 152.416 112 148 112 M 148 92 C 141.382996 92 136 97.382996 136 104 C 136 110.617004 141.382996 116 148 116 C 154.617004 116 160 110.617004 160 104 C 160 97.382996 154.617004 92 148 92"/>
    <path id="path2" fill="#ffffff" stroke="none" d="M 96 46 C 96 47.104004 95.103996 48 94 48 C 92.895996 48 92 47.104004 92 46 C 92 44.895996 92.895996 44 94 44 C 95.103996 44 96 44.895996 96 46"/>
    <path id="path3" fill="#ffffff" stroke="none" d="M 68 50 C 68 51.104004 67.103996 52 66 52 C 64.895996 52 64 51.104004 64 50 C 64 48.895996 64.895996 48 66 48 C 67.103996 48 68 48.895996 68 50"/>
    <path id="path4" fill="#ffffff" stroke="none" d="M 52 78 C 52 79.104004 51.104 80 50 80 C 48.896 80 48 79.104004 48 78 C 48 76.895996 48.896 76 50 76 C 51.104 76 52 76.895996 52 78"/>
    <path id="path5" fill="#ffffff" stroke="none" d="M 64 90 C 64 91.104004 63.104 92 62 92 C 60.896 92 60 91.104004 60 90 C 60 88.895996 60.896 88 62 88 C 63.104 88 64 88.895996 64 90"/>
    <path id="path6" fill="#ffffff" stroke="none" d="M 44 150 C 44 151.104004 43.104 152 42 152 C 40.896 152 40 151.104004 40 150 C 40 148.895996 40.896 148 42 148 C 43.104 148 44 148.895996 44 150"/>
    <path id="path7" fill="#ffffff" stroke="none" d="M 68 146 C 68 147.104004 67.103996 148 66 148 C 64.895996 148 64 147.104004 64 146 C 64 144.895996 64.895996 144 66 144 C 67.103996 144 68 144.895996 68 146"/>
    <path id="path8" fill="#ffffff" stroke="none" d="M 100 206 C 100 207.104004 99.103996 208 98 208 C 96.895996 208 96 207.104004 96 206 C 96 204.895996 96.895996 204 98 204 C 99.103996 204 100 204.895996 100 206"/>
    <path id="path9" fill="#ffffff" stroke="none" d="M 76 214 C 76 215.104004 75.103996 216 74 216 C 72.895996 216 72 215.104004 72 214 C 72 212.895996 72.895996 212 74 212 C 75.103996 212 76 212.895996 76 214"/>
    <path id="path10" fill="#ffffff" stroke="none" d="M 172 182 C 172 183.104004 171.104004 184 170 184 C 168.895996 184 168 183.104004 168 182 C 168 180.895996 168.895996 180 170 180 C 171.104004 180 172 180.895996 172 182"/>
    <path id="path11" fill="#ffffff" stroke="none" d="M 208 170 C 208 171.104004 207.104004 172 206 172 C 204.895996 172 204 171.104004 204 170 C 204 168.895996 204.895996 168 206 168 C 207.104004 168 208 168.895996 208 170"/>
    <path id="path12" fill="#ffffff" stroke="none" d="M 176 218 C 176 219.104004 175.104004 220 174 220 C 172.895996 220 172 219.104004 172 218 C 172 216.895996 172.895996 216 174 216 C 175.104004 216 176 216.895996 176 218"/>
    <path id="path13" fill="#ffffff" stroke="none" d="M 200 142 C 200 143.104004 199.104004 144 198 144 C 196.895996 144 196 143.104004 196 142 C 196 140.895996 196.895996 140 198 140 C 199.104004 140 200 140.895996 200 142"/>
    <path id="path14" fill="#ffffff" stroke="none" d="M 203.947296 94 C 203.947296 95.104004 203.0513 96 201.947296 96 C 200.843307 96 199.947296 95.104004 199.947296 94 C 199.947296 92.895996 200.843307 92 201.947296 92 C 203.0513 92 203.947296 92.895996 203.947296 94"/>
    <path id="path15" fill="#ffffff" stroke="none" d="M 219.366196 86 C 219.366196 87.104004 218.4702 88 217.366196 88 C 216.262207 88 215.366196 87.104004 215.366196 86 C 215.366196 84.895996 216.262207 84 217.366196 84 C 218.4702 84 219.366196 84.895996 219.366196 86"/>
    <path id="path16" fill="#ffffff" stroke="none" d="M 132 58 C 132 59.104004 131.104004 60 130 60 C 128.895996 60 128 59.104004 128 58 C 128 56.895996 128.895996 56 130 56 C 131.104004 56 132 56.895996 132 58"/>
    <path id="path17" fill="#ffffff" stroke="none" d="M 136.214798 38 C 136.214798 39.104004 135.318802 40 134.214798 40 C 133.110794 40 132.214798 39.104004 132.214798 38 C 132.214798 36.895996 133.110794 36 134.214798 36 C 135.318802 36 136.214798 36.895996 136.214798 38"/>
</svg>
