<?xml version="1.0" encoding="UTF-8"?>
<!-- Generated by Pixelmator Pro 3.7.1 -->
<svg width="256" height="256" viewBox="0 0 256 256" xmlns="http://www.w3.org/2000/svg">
    <path id="Path" fill="#ffffff" stroke="none" d="M 90.148399 189.195297 L 87.320396 192.0233 L 83.986397 195.356293 L 80.664398 198.678299 L 84.474403 201.428299 C 85.061401 201.851303 99.1614 211.802307 126.787399 211.997299 C 127.044403 211.999298 127.301399 212.000305 127.556404 212.000305 C 154.588409 212.000305 171.500397 202.039307 172.207397 201.615295 L 172.616409 201.369293 L 172.956406 201.034302 C 174.330399 199.680298 175.581406 197.211304 174.586411 194.705292 C 173.111404 190.989304 168.4384 190.886292 166.903397 190.852295 L 165.195404 190.815308 L 163.986404 192.0233 L 161.825409 194.185303 L 160.148407 194.185303 L 156.815399 194.185303 L 155.158401 194.185303 L 153.986404 195.356293 L 153.4814 195.861298 L 152.976395 195.356293 L 150.148407 192.528305 L 147.320404 195.356293 L 145.158401 197.518295 L 143.4814 197.518295 L 141.825394 197.518295 L 141.2444 198.099304 L 140.392395 196.396301 L 136.815399 189.241302 L 133.237396 196.396301 L 132.385406 198.099304 L 130.148407 195.861298 L 127.320404 198.690308 L 126.815399 199.195297 L 126.310402 198.690308 L 123.4814 195.861298 L 121.2444 198.099304 L 120.393402 196.396301 L 117.9114 191.432297 L 113.986397 195.356293 L 111.825401 197.518295 L 110.148399 197.518295 L 108.491402 197.518295 L 107.9114 198.099304 L 107.059402 196.396301 L 104.5774 191.432297 L 100.653397 195.356293 L 100.148399 195.861298 L 99.643402 195.356293 L 98.472397 194.185303 L 96.815399 194.185303 L 95.138397 194.185303 L 92.977402 192.0233 Z M 166.815399 194.851303 C 173.383408 194.996307 170.148407 198.185303 170.148407 198.185303 C 170.148407 198.185303 153.791397 208.000305 127.556404 208.000305 C 127.311401 208.000305 127.0634 207.999298 126.815399 207.997299 C 100.148399 207.809296 86.815399 198.185303 86.815399 198.185303 L 90.148399 194.851303 L 93.4814 198.185303 L 96.815399 198.185303 L 100.148399 201.518295 L 103.4814 198.185303 L 106.815399 204.851303 L 110.148399 201.518295 L 113.4814 201.518295 L 116.815399 198.185303 L 120.148399 204.851303 L 123.4814 201.518295 L 126.815399 204.851303 L 130.148407 201.518295 L 133.4814 204.851303 L 136.815399 198.185303 L 140.148407 204.851303 L 143.4814 201.518295 L 146.815399 201.518295 L 150.148407 198.185303 L 153.4814 201.518295 L 156.815399 198.185303 L 160.148407 198.185303 L 163.4814 198.185303 L 166.815399 194.851303"/>
    <path id="path1" fill="#ffffff" stroke="none" d="M 73.473099 131.059601 C 68.9021 131.059601 64.010101 135.410599 61.299099 141.884598 C 58.0061 149.752594 59.3181 157.545593 64.286102 159.62561 C 65.084099 159.959595 65.945099 160.128601 66.847099 160.128601 C 71.418098 160.128601 76.310097 155.778595 79.021103 149.303589 C 82.314102 141.435608 81.002098 133.642609 76.034103 131.562592 C 75.236099 131.228607 74.375099 131.059601 73.473099 131.059601 M 73.473099 135.059601 C 73.839104 135.059601 74.181099 135.122589 74.489098 135.251602 C 76.937103 136.276611 77.882103 141.664597 75.3311 147.758606 C 73.102097 153.083603 69.383102 156.128601 66.847099 156.128601 C 66.481102 156.128601 66.140099 156.065598 65.8311 155.9366 C 63.384102 154.911591 62.438099 149.52359 64.989098 143.429596 C 67.218102 138.104599 70.937103 135.059601 73.473099 135.059601"/>
    <path id="path2" fill="#ffffff" stroke="none" d="M 188.4814 131.666992 C 183.435394 131.666992 179.4814 137.81601 179.4814 145.666992 C 179.4814 153.518005 183.435394 159.666992 188.4814 159.666992 C 193.528397 159.666992 197.4814 153.518005 197.4814 145.666992 C 197.4814 137.81601 193.528397 131.666992 188.4814 131.666992 M 188.4814 135.666992 C 190.848404 135.666992 193.4814 139.774002 193.4814 145.666992 C 193.4814 151.55899 190.848404 155.666992 188.4814 155.666992 C 186.115402 155.666992 183.4814 151.55899 183.4814 145.666992 C 183.4814 139.774002 186.115402 135.666992 188.4814 135.666992"/>
    <path id="path3" fill="#ffffff" stroke="none" d="M 188.4814 155 C 186.714401 155 184.148407 151.363998 184.148407 145.666992 C 184.148407 139.968994 186.714401 136.333008 188.4814 136.333008 C 190.249405 136.333008 192.815399 139.968994 192.815399 145.666992 C 192.815399 151.363998 190.249405 155 188.4814 155 M 66.970398 155.464996 C 66.6754 155.464996 66.409401 155.414001 66.157402 155.30899 C 64.8564 154.764008 64.412399 152.847 64.281403 152.046997 C 63.895401 149.688004 64.363403 146.686996 65.565399 143.815002 C 67.687401 138.748993 71.162399 136.014999 73.3554 136.014999 C 73.649399 136.014999 73.915398 136.065002 74.168396 136.17099 C 75.468399 136.716003 75.912399 138.632996 76.043396 139.432007 C 76.429398 141.791992 75.961403 144.791992 74.759399 147.664001 C 72.638397 152.730011 69.163399 155.464996 66.970398 155.464996 M 166.146408 100.725006 L 166.146408 100.725006 Z M 87.642403 93.143005 C 88.562401 92.846008 89.560402 92.548004 90.643402 92.251999 C 100.698402 89.51001 114.136398 88 128.4814 88 C 139.374405 88 149.926407 88.904999 158.811401 90.575989 L 158.279404 91.507004 C 149.469406 90.518997 139.235397 90 128.4814 90 C 114.474396 90 101.273399 90.88501 91.311401 92.492004 C 90.012398 92.701004 88.791397 92.916992 87.642403 93.143005 M 165.326401 99.915009 L 172.8004 87.893997 L 166.669403 98.692001 L 166.148407 99.610001 L 166.148407 99.985001 C 165.8414 99.970001 165.568405 99.945999 165.326401 99.915009 M 196.826401 50 L 190.062393 50 C 187.822403 50 185.735397 51.002991 184.335403 52.751999 L 171.002396 69.419006 L 170.840393 69.621002 L 170.646408 69.863998 L 170.491394 70.13501 L 170.362396 70.360992 L 165.767395 78.401001 C 155.293396 75.037003 144.447403 73.333008 133.4814 73.333008 L 110.148399 73.333008 L 109.949402 73.333008 L 109.750397 73.352997 C 106.142403 73.713989 74.513397 77.277008 66.751396 91.860992 C 64.807396 94.703995 64.054398 101.699005 69.687401 118.597992 L 69.944397 119.369003 L 70.159401 119.613007 C 70.170403 120.192001 69.668396 121.904999 67.0924 124.552994 C 65.545403 126.143005 64.204399 127.067001 62.907402 127.960999 C 58.395401 131.070007 55.498398 133.630997 52.894394 146.542999 L 52.814392 146.938995 L 52.815399 147.345001 C 52.816406 147.834991 52.980392 159.324005 64.237396 167.084991 C 67.507401 170.477997 71.194397 176.298004 69.904396 178.877991 L 69.776398 179.132004 L 69.687401 179.401001 L 66.354401 189.401001 L 65.088402 193.195999 L 68.8834 194.460999 L 78.8834 197.794998 L 81.782402 198.761002 L 83.476402 196.218994 L 88.496399 188.688995 C 93.609398 190.063995 105.100403 192.444 123.358398 192.444 C 137.335403 192.444 152.609406 191.048996 168.787399 188.296005 L 177.320404 196.828003 L 180.148407 199.656998 L 182.976395 196.828003 L 189.643402 190.162003 L 191.391403 188.414001 L 190.610397 186.067993 L 187.740402 177.458008 L 193.051407 164.179993 C 194.679398 163.692001 196.760406 162.71701 198.707397 160.768005 C 202.348404 157.119003 204.1884 151.475998 204.176407 143.992996 L 204.1754 143.5 L 204.054398 143.022003 C 203.900406 142.410004 200.254395 128.414001 189.151398 123.932999 C 188.509399 123.134995 187.399399 121.563995 186.792404 119.608002 C 185.741394 116.222 186.673401 113.132004 189.643402 110.162003 L 189.923401 109.882004 L 190.143402 109.552002 C 190.367401 109.216003 192.348404 106.145996 192.867401 101.996002 C 193.588394 96.227997 191.154404 91.110001 186.005402 87.54599 L 189.454407 81.513 L 202.477402 65.690002 L 202.967407 65.093994 L 203.201401 64.358002 L 203.989395 61.876007 L 204.176407 61.286011 L 204.176407 60.666992 L 204.176407 57.333008 C 204.163406 53.283997 200.865402 50 196.826401 50 M 188.4814 159 C 193.156403 159 196.815399 153.143997 196.815399 145.666992 C 196.815399 138.188995 193.156403 132.333008 188.4814 132.333008 C 183.807404 132.333008 180.148407 138.188995 180.148407 145.666992 C 180.148407 153.143997 183.807404 159 188.4814 159 M 66.970398 159.464996 C 71.154396 159.464996 75.8414 155.436996 78.448402 149.208008 C 81.561401 141.77301 80.360397 134.427002 75.712402 132.481003 C 74.958397 132.166 74.166397 132.014999 73.3554 132.014999 C 69.169403 132.014999 64.482399 136.042999 61.876396 142.270996 C 58.763397 149.705994 59.964401 157.052002 64.612396 158.998001 C 65.367401 159.313004 66.159401 159.464996 66.970398 159.464996 M 153.4814 133.998993 C 152.124405 133.998993 150.395401 133.791 149.862396 132.798004 C 149.038406 131.261993 150.633408 127.951004 151.5354 126.589005 L 151.815399 126.166992 L 151.815399 125.666 C 151.815399 124.522995 151.320404 123.522003 150.385406 122.772995 C 148.807404 121.507996 145.714401 121.048996 142.062408 121.048996 C 133.970398 121.048996 123.137398 123.298996 119.9674 123.998993 C 94.354401 123.938004 78.018402 111.158997 77.8554 111.029999 C 77.548401 110.785995 77.182396 110.666992 76.818398 110.666992 C 76.329399 110.666992 75.843399 110.882004 75.513397 111.291992 C 74.9394 112.011993 75.055397 113.059998 75.773399 113.634995 C 76.473396 114.192993 93.207397 127.333008 120.148399 127.333008 L 120.509399 127.292999 C 127.259399 125.791992 136.512405 124.356995 142.566406 124.356995 C 145.314407 124.356995 147.404404 124.653 148.299408 125.373001 C 148.315399 125.386002 148.332397 125.399002 148.344406 125.412003 C 147.368408 127.080002 145.2724 131.287994 146.922409 134.369995 C 147.973404 136.335999 150.180405 137.333008 153.4814 137.333008 C 153.983398 137.333008 158.432404 137.238007 160.158401 134.015991 C 161.405396 131.682007 160.747406 128.561996 158.202408 124.740997 L 158.0784 124.287003 L 157.960403 124.169998 C 158.002396 123.996002 158.524399 122.408997 164.008408 120.580002 C 174.005402 117.248001 180.617401 113.962006 180.893402 113.822998 C 181.717407 113.412003 182.049393 112.410995 181.639404 111.587006 C 181.345398 111.001999 180.758392 110.666992 180.1474 110.666992 C 179.8974 110.666992 179.643402 110.723999 179.403397 110.841995 C 179.337402 110.873993 172.710403 114.165009 162.954407 117.419006 C 157.970398 119.078995 155.275406 121.037003 154.718399 123.404999 C 154.364395 124.910995 154.992401 126.197998 155.428406 126.589996 C 157.186401 129.22699 157.824402 131.303009 157.221405 132.436996 C 156.554398 133.692993 154.237396 133.992004 153.4814 133.998993 M 128.4814 114 C 158.857407 114 183.4814 107.283997 183.4814 99 C 183.4814 96.765991 181.646393 94.652008 178.426407 92.748993 L 175.009399 98.729004 C 178.268402 99.820007 180.148407 101.040009 180.148407 102.333008 C 180.148407 106.936005 157.016403 110.666992 128.4814 110.666992 C 99.947403 110.666992 76.8144 106.936005 76.8144 102.333008 C 76.8144 97.731003 99.947403 94 128.4814 94 C 140.557404 94 151.639404 94.673004 160.436401 95.792999 L 160.502396 95.679993 L 164.998398 87.811996 C 155.280396 85.449997 142.521408 84 128.4814 84 C 98.1064 84 73.4814 90.716003 73.4814 99 C 73.4814 107.283997 98.1064 114 128.4814 114 M 166.815399 104 C 166.815399 104 170.148407 104 170.148407 100.666992 L 183.396393 77.333008 L 196.815399 61.029999 L 196.729401 57.333008 L 190.062393 57.333008 L 176.729401 74 L 160.148407 100.666992 C 160.148407 100.666992 160.148407 104 166.815399 104 M 196.826401 54 C 198.663406 54 200.169403 55.497009 200.176407 57.333008 L 200.176407 60.666992 L 199.388397 63.14801 L 186.149399 79.233002 L 180.586395 88.968002 C 182.462402 89.996002 183.4814 90.666992 183.4814 90.666992 C 193.4814 97.333008 186.815399 107.333008 186.815399 107.333008 C 176.815399 117.333008 186.815399 127.333008 186.815399 127.333008 C 196.815399 130.666992 200.176407 144 200.176407 144 C 200.204407 160.666992 190.148407 160.666992 190.148407 160.666992 L 183.4814 177.333008 L 186.815399 187.333008 L 180.148407 194 L 170.148407 184 C 151.257401 187.334 135.705399 188.444 123.358398 188.444 C 98.669403 188.444 86.8144 184 86.8144 184 L 80.148399 194 L 70.148399 190.666992 L 73.4814 180.666992 C 76.8144 174 66.8144 164 66.8144 164 C 56.843399 157.333008 56.815399 147.333008 56.815399 147.333008 C 60.176407 130.666992 63.4814 134 69.959396 127.341995 C 76.436401 120.68399 73.4814 117.333008 73.4814 117.333008 C 66.8144 97.333008 70.148399 94 70.148399 94 C 76.8144 80.666992 110.148399 77.333008 110.148399 77.333008 L 133.4814 77.333008 C 147.342407 77.333008 159.003403 80.18399 167.6064 83.246002 L 173.835403 72.346008 L 173.963394 72.121002 L 174.126404 71.916992 L 187.460403 55.251007 C 188.0914 54.459991 189.049393 54 190.062393 54 L 196.826401 54"/>
</svg>
