<?xml version="1.0" encoding="UTF-8"?>
<!-- Generated by Pixelmator Pro 3.7.1 -->
<svg width="256" height="256" viewBox="0 0 256 256" xmlns="http://www.w3.org/2000/svg">
    <path id="Path" fill="#ffffff" stroke="none" d="M 128 33.6436 C 76.046005 33.6436 33.778 75.971603 33.778 127.999603 C 33.778 179.954605 76.046005 222.222595 128 222.222595 C 179.953995 222.222595 222.222992 179.954605 222.222992 127.999603 C 222.222992 75.971603 179.953995 33.6436 128 33.6436 M 128 37.6436 C 177.777008 37.6436 218.222992 78.222595 218.222992 127.999603 C 218.222992 177.777603 177.777008 218.222595 128 218.222595 C 78.223 218.222595 37.778 177.777603 37.778 127.999603 C 37.778 78.222595 78.223 37.6436 128 37.6436"/>
    <path id="path1" fill="#ffffff" stroke="none" d="M 128 42.370605 C 105.102997 42.370605 83.593002 51.270599 67.431999 67.431595 C 51.271004 83.592606 42.371002 105.1026 42.371002 127.999603 C 42.371002 150.890594 51.272003 172.377594 67.434998 188.504608 C 83.587006 204.620605 105.096001 213.495605 128 213.495605 C 150.903 213.495605 172.412994 204.620605 188.565002 188.504608 C 204.729004 172.377594 213.630005 150.890594 213.630005 127.999603 C 213.630005 105.1026 204.729004 83.592606 188.567993 67.431595 C 172.406998 51.270599 150.897003 42.370605 128 42.370605 M 128 46.370605 C 173.134003 46.370605 209.630005 82.866592 209.630005 127.999603 C 209.630005 173.133606 173.134003 209.495605 128 209.495605 C 82.865997 209.495605 46.371002 173.133606 46.371002 127.999603 C 46.371002 82.866592 82.865997 46.370605 128 46.370605"/>
    <path id="path2" fill="#ffffff" stroke="none" d="M 95.917999 87.088898 C 102.271004 82.096893 109.848999 78.533905 118.209999 76.934906 C 118.843002 76.813904 119.443001 76.609894 120 76.337906 L 120 110.754898 L 97.652 88.406906 C 97.128998 87.883896 96.545998 87.442902 95.917999 87.088898 M 128 59.999893 C 125.304001 59.999893 122.915001 61.340897 121.465004 63.389908 C 120.033997 62.047897 118.112 61.225906 116.000999 61.225906 C 115.465004 61.225906 114.924004 61.279907 114.394997 61.387894 C 82.875999 67.815903 60 95.829895 60 127.999893 C 60 161.013901 83.834999 189.178894 116 194.919907 L 116 199.171906 C 116 202.482895 118.697998 205.175903 122.014999 205.175903 C 123.605003 205.175903 125.107002 204.549896 126.243004 203.413895 L 137.414001 192.241898 C 139.753998 189.902893 139.753998 186.096893 137.414001 183.757904 L 126.243004 172.585907 C 125.107002 171.44989 123.605003 170.823898 122.014999 170.823898 C 118.697998 170.82489 116 173.51889 116 176.827896 L 116 178.590897 C 105.537003 176.105896 96.024002 170.381897 88.848 162.176895 C 80.563004 152.702896 76 140.565903 76 127.999893 C 76 117.101898 79.397003 106.860901 85.267998 98.396896 C 85.572998 98.869904 85.931 99.313904 86.337997 99.720901 L 112.186996 125.568893 C 112.063004 126.372894 112 127.184906 112 127.999893 C 112 136.821899 119.178001 143.999908 128 143.999908 C 136.822006 143.999908 144 136.821899 144 127.999893 C 144 122.233902 140.878998 116.977905 136 114.155899 L 136 67.999893 C 136 63.588898 132.410995 59.999893 128 59.999893 M 116.000999 65.225906 C 118.156998 65.225906 120 66.978897 120 69.233902 L 120 69.914902 C 120 71.420898 118.938004 72.7229 117.459 73.005905 C 91.603996 77.951904 72 100.724899 72 127.999893 C 72 156.161896 92.899002 179.524902 120 183.419891 L 120 176.827896 C 120 175.622894 120.986 174.823898 122.014999 174.823898 C 122.505997 174.823898 123.007004 175.006897 123.414001 175.413895 L 134.585999 186.585907 C 135.367004 187.366898 135.367004 188.632904 134.585999 189.413895 L 123.414001 200.585907 C 123.007004 200.992905 122.505997 201.175903 122.014999 201.175903 C 120.986 201.175903 120 200.376907 120 199.171906 L 120 191.482895 C 88.474998 187.529907 64 160.578888 64 127.999893 C 64 97.096893 86.022003 71.255905 115.194 65.307907 C 115.466003 65.251907 115.736 65.225906 116.000999 65.225906 M 128 131.999908 C 130.257004 131.999908 132 130.256897 132 127.999893 C 132 125.743896 130.257004 123.999893 128 123.999893 C 125.744003 123.999893 124 125.743896 124 127.999893 C 124 130.256897 125.744003 131.999908 128 131.999908 M 128 63.999893 C 130.199997 63.999893 132 65.799896 132 67.999893 L 132 116.696899 C 136.656998 118.346893 140 122.776901 140 127.999893 C 140 134.626892 134.626999 139.999908 128 139.999908 C 121.373001 139.999908 116 134.626892 116 127.999893 C 116 126.711899 116.209 125.4729 116.584 124.309906 L 89.167 96.891907 C 87.611 95.336899 87.611 92.790894 89.167 91.234894 C 89.944 90.457901 90.970001 90.067902 91.995003 90.067902 C 93.021004 90.067902 94.045998 90.457901 94.823997 91.234894 L 121.505997 117.917908 C 122.280998 117.4189 123.116997 117.009903 124 116.696899 L 124 67.999893 C 124 65.799896 125.800003 63.999893 128 63.999893"/>
</svg>
