<?xml version="1.0" encoding="UTF-8"?>
<!-- Generated by Pixelmator Pro 3.7.1 -->
<svg width="256" height="256" viewBox="0 0 256 256" xmlns="http://www.w3.org/2000/svg">
    <path id="Path" fill="#ffffff" stroke="none" d="M 172 116 L 172 124 L 172 188 L 84 188 L 84 68 L 96 68 L 124 68 L 128 68 L 128 112 L 172 112 Z M 132 73.656998 L 166.343002 108 L 132 108 Z M 128 64 L 80 64 L 80 192 L 176 192 L 176 112 Z"/>
    <path id="path1" fill="#ffffff" stroke="none" d="M 144 132 L 120 156 L 108 144 L 88 164 L 88 184 L 168 184 L 168 156 Z M 144 137.656998 L 164 157.656998 L 164 180 L 92 180 L 92 165.656998 L 108 149.656998 L 117.170998 158.828003 L 120 161.656998 L 122.829002 158.828003 Z"/>
    <path id="path2" fill="#ffffff" stroke="none" d="M 98 108 C 92.486 108 88 112.485992 88 118 C 88 123.514008 92.486 128 98 128 C 103.514 128 108 123.514008 108 118 C 108 112.485992 103.514 108 98 108 M 98 112 C 101.313004 112 104 114.686996 104 118 C 104 121.313004 101.313004 124 98 124 C 94.686996 124 92 121.313004 92 118 C 92 114.686996 94.686996 112 98 112"/>
</svg>
