<?xml version="1.0" encoding="UTF-8"?>
<!-- Generated by Pixelmator Pro 3.7.1 -->
<svg width="256" height="256" viewBox="0 0 256 256" xmlns="http://www.w3.org/2000/svg">
    <path id="Path" fill="#ffffff" stroke="none" d="M 192 188 L 162.742996 188 C 151.003998 188 140.619003 181.175995 136 170.919006 C 149.391998 168.531006 160.334 159.173996 164.764999 146.789001 C 172.096008 146.403 178.871994 143.938995 184.507004 140 C 189.298004 145.253998 192 152.102997 192 159.222992 Z M 135.998993 199.79599 C 136.061996 204.264008 132.531006 207.936996 128.113007 207.998993 C 128.074005 208 128.035995 208 127.998001 208 C 123.632004 208 120.063004 204.453003 120.000999 200.024994 C 120 199.947998 120 199.873001 120.000999 199.79599 L 120.000999 186.362 C 123.219002 183.436005 125.973999 179.972992 127.996002 176 C 130.018005 179.985001 132.774994 183.458008 135.998993 186.388 Z M 93.263 188 L 64 188 L 64 159.222 C 64 152.096008 66.705002 145.253998 71.498001 140 C 77.134003 143.938004 83.908997 146.401001 91.239998 146.787003 C 95.670998 159.169998 106.611 168.524002 120 170.916 C 115.370003 181.162003 104.967003 188 93.263 188 M 64 106 C 64 90.686996 75.436996 78.022003 90.220001 76 C 90.084 77.320999 90.013 78.660004 90.013 80.016998 C 90.013 89.985992 93.811996 99.065002 100 105.964996 C 93.614998 113.07901 90.013 122.337006 90.013 131.983002 C 90.013 133.339996 90.084 134.679001 90.220001 136 C 75.436996 133.977997 64 121.313004 64 106 M 128 50.740997 C 144.541992 50.740997 158 64.197998 158 80.740997 C 158 97.28299 144.541992 110.740997 128 110.740997 C 111.458 110.740997 98 97.28299 98 80.740997 C 98 64.197998 111.458 50.740997 128 50.740997 M 192 106 C 192 121.313004 180.563004 133.977997 165.781006 136 C 165.916992 134.679001 165.988007 133.339996 165.988007 131.983002 C 165.988007 122.333008 162.384995 113.07901 156 105.96701 C 162.188004 99.067001 165.988007 89.987 165.988007 80.016998 C 165.988007 78.660004 165.916992 77.320999 165.781006 76 C 180.563004 78.022003 192 90.686996 192 106 M 128 119.460999 C 136.317993 119.460999 144.011002 116.789001 150.317993 112.294006 C 155.229004 117.766998 158 124.888 158 132.311996 C 158 148.845001 144.541992 162.294998 128 162.294998 C 111.458 162.294998 98 148.845001 98 132.311996 C 98 124.890991 100.771004 117.768005 105.681999 112.294006 C 111.988998 116.789001 119.681 119.460999 128 119.460999 M 185.240997 133.386002 C 185.240997 133.386002 197 123.544998 197 106 C 197 88.455002 183.869995 73.428009 166.458008 71.04599 L 161.427994 70.358002 C 156.994003 56.112 143.686005 45.740997 128 45.740997 C 112.314003 45.740997 99.005997 56.112 94.571999 70.358002 L 89.542 71.04599 C 72.129997 73.428009 59 88.455002 59 106 C 59 123.544998 70.764 133.386993 70.764 133.386993 L 67.805 136.630005 C 62.126999 142.854004 59 150.876999 59 159.222 L 59 188 L 59 193 L 64 193 L 93.263 193 C 101.350998 193 108.985001 190.167999 115.000999 185.299011 L 115.000999 186.362 L 115.000999 199.764999 C 115 199.876007 115 199.985992 115.000999 200.097 C 115.100998 207.210999 120.931 213 127.998001 213 L 128.18399 212.998993 C 135.337997 212.895996 141.078995 206.964005 140.998993 199.765991 L 140.998993 186.388 L 140.998993 185.30899 C 147.011993 190.171997 154.647003 193 162.742996 193 L 192 193 L 197 193 L 197 188 L 197 159.222992 C 197 150.876007 193.875 142.852997 188.201004 136.630997 Z"/>
</svg>
