<?xml version="1.0" encoding="UTF-8"?>
<!-- Generated by Pixelmator Pro 3.7.1 -->
<svg width="256" height="256" viewBox="0 0 256 256" xmlns="http://www.w3.org/2000/svg">
    <path id="Path" fill="#ffffff" stroke="none" d="M 172.102493 131.897491 L 131.897491 131.897491 L 131.897491 172.102509 C 131.897491 174.255493 130.153503 176.000504 127.999496 176.000504 C 126.9235 176.000504 125.948502 175.563507 125.2435 174.85849 C 124.538498 174.153503 124.102501 173.178497 124.102501 172.102509 L 124.102501 131.897491 L 83.897499 131.897491 C 82.820503 131.897491 81.846504 131.461502 81.141502 130.7565 C 80.435501 130.050507 79.999504 129.077499 79.999504 128.000504 C 79.999504 125.846497 81.744499 124.102493 83.897499 124.102493 L 124.102501 124.102493 L 124.102501 83.897507 C 124.102501 81.744507 125.846497 80.000504 127.999496 80.000504 C 130.153503 80.000504 131.897491 81.744507 131.897491 83.897507 L 131.897491 124.102493 L 172.102493 124.102493 C 174.255493 124.102493 175.999496 125.846497 175.999496 128.000504 C 175.999496 130.153503 174.255493 131.897491 172.102493 131.897491 M 177.712494 122.475494 C 176.238495 121.000504 174.276505 120.1875 172.189499 120.1875 L 135.811493 120.1875 L 135.811493 83.809494 C 135.811493 81.722504 134.998505 79.761505 133.524506 78.286499 C 132.048492 76.811508 130.086502 75.998505 128.000504 75.998505 C 123.693497 75.998505 120.189499 79.502502 120.189499 83.809494 L 120.189499 120.1875 L 83.811501 120.1875 C 79.504501 120.1875 76.000504 123.691498 76.000504 127.998505 C 76.000504 130.08551 76.8125 132.046509 78.288498 133.522491 C 79.763504 134.997498 81.724503 135.809509 83.811501 135.809509 L 120.189499 135.809509 L 120.189499 172.1875 C 120.189499 174.274506 121.001495 176.236511 122.477501 177.71051 C 123.952499 179.186493 125.913498 179.998505 128.000504 179.998505 C 132.307495 179.998505 135.811493 176.494507 135.811493 172.1875 L 135.811493 135.809509 L 172.189499 135.809509 C 174.276505 135.809509 176.238495 134.997498 177.712494 133.522491 C 179.188507 132.046509 180.000504 130.08551 180.000504 127.998505 C 180.000504 125.911499 179.188507 123.9505 177.712494 122.475494"/>
</svg>
