<?xml version="1.0" encoding="UTF-8"?>
<!-- Generated by Pixelmator Pro 3.7.1 -->
<svg width="256" height="256" viewBox="0 0 256 256" xmlns="http://www.w3.org/2000/svg">
    <path id="Path" fill="#ffffff" stroke="none" d="M 175.998993 68 C 172.794006 68 169.781006 69.248993 167.514008 71.514999 L 127.999001 111.029999 L 88.484001 71.514999 C 86.217003 69.248993 83.204002 68 79.999001 68 C 76.793999 68 73.780998 69.248993 71.514 71.514999 C 66.834999 76.192993 66.834999 83.806 71.514 88.485001 L 111.028999 128 L 71.514 167.514999 C 66.835999 172.192993 66.835999 179.807007 71.514 184.484009 C 73.780998 186.751999 76.793999 188 79.999001 188 C 83.204002 188 86.217003 186.751999 88.483002 184.485001 L 127.999001 144.970001 L 167.514008 184.484009 C 169.781006 186.751999 172.794006 188 175.998993 188 C 179.203995 188 182.216995 186.751999 184.483002 184.484009 C 189.162003 179.807007 189.162003 172.192993 184.483002 167.514999 L 144.968994 128 L 184.483002 88.485001 C 186.751007 86.218002 187.998993 83.205002 187.998993 80 C 187.998993 76.794998 186.75 73.781998 184.483002 71.514999 C 182.216995 69.248993 179.203995 68 175.998993 68 M 175.998993 74 C 177.533997 74 179.069 74.585999 180.240997 75.757996 C 182.585007 78.102005 182.585007 81.897995 180.240997 84.242004 L 136.483002 128 L 180.240997 171.757996 C 182.585007 174.10199 182.585007 177.89801 180.240997 180.242004 C 179.069 181.414001 177.533997 182 175.998993 182 C 174.464005 182 172.929001 181.414001 171.757004 180.242004 L 127.999001 136.484009 L 84.240997 180.242004 C 83.069 181.414001 81.534004 182 79.999001 182 C 78.463997 182 76.929001 181.414001 75.757004 180.242004 C 73.413002 177.89801 73.413002 174.10199 75.757004 171.757996 L 119.514999 128 L 75.757004 84.242004 C 73.413002 81.897995 73.413002 78.102005 75.757004 75.757996 C 76.929001 74.585999 78.463997 74 79.999001 74 C 81.534004 74 83.069 74.585999 84.240997 75.757996 L 127.999001 119.515991 L 171.757004 75.757996 C 172.929001 74.585999 174.464005 74 175.998993 74"/>
</svg>
