<?xml version="1.0" encoding="UTF-8"?>
<!-- Generated by Pixelmator Pro 3.7.1 -->
<svg width="256" height="256" viewBox="0 0 256 256" xmlns="http://www.w3.org/2000/svg">
    <path id="Path" fill="#ffffff" stroke="none" d="M 131.240204 190.325195 C 129.439194 190.412201 128.000198 191.803192 128.000198 193.561203 L 128.000198 200.746201 C 128.000198 203.162201 125.392197 204.7332 123.176201 203.652191 L 85.963196 185.510193 C 83.506195 184.312195 83.506195 180.893188 85.963196 179.696198 L 123.176201 161.554199 C 125.392197 160.472198 128.000198 162.045197 128.000198 164.461197 L 128.000198 171.423203 C 128.000198 173.347198 129.7052 174.812195 131.673203 174.668198 C 156.4552 172.838196 176.000198 152.644196 176.000198 128.000198 C 176.000198 119.816193 173.840195 112.123199 170.050201 105.428192 C 171.306198 102.506195 170.750198 98.985199 168.367203 96.603195 C 167.004196 95.240204 165.234192 94.435196 163.332199 94.290192 C 163.471191 93.686203 163.780197 93.112198 164.256195 92.6492 L 170.826202 86.242203 C 172.153198 84.948196 174.350204 84.943192 175.604202 86.303192 C 185.797195 97.350204 192.000198 111.9702 192.000198 128.000198 C 192.000198 161.418198 165.064194 188.679199 131.240204 190.325195 M 124.665199 157.206207 C 123.537201 157.206207 122.446198 157.459198 121.423203 157.958191 L 115.380203 160.904205 L 167.371201 108.913193 C 170.388199 114.797195 172.000198 121.320206 172.000198 128.000198 C 172.000198 138.843201 167.822205 149.186203 160.237198 157.12619 C 152.810196 164.901199 142.803192 169.681198 132.000198 170.628204 L 132.000198 164.461197 C 132.000198 160.461197 128.710205 157.207199 124.665199 157.206207 M 106.142197 158.828201 L 103.313202 156.000198 L 89.171196 141.857208 C 87.6092 140.296204 87.6092 137.762207 89.171196 136.201202 C 90.7342 134.638199 93.266197 134.638199 94.828201 136.201202 L 108.9702 150.343201 L 159.882202 99.431198 C 161.444199 97.869202 163.976196 97.869202 165.5392 99.431198 C 167.101196 100.993195 167.101196 103.526199 165.5392 105.088196 L 111.799202 158.828201 C 110.237198 160.390198 107.704201 160.390198 106.142197 158.828201 M 91.962196 158.905197 C 93.117195 160.185211 92.981201 162.145203 91.744202 163.350189 L 85.173195 169.759201 C 83.846199 171.0522 81.6502 171.05719 80.395195 169.697205 C 70.203201 158.6492 64.000198 144.030212 64.000198 128.000198 C 64.000198 94.582199 90.935196 67.320206 124.760201 65.675201 C 126.561203 65.587204 128.000198 64.197205 128.000198 62.438202 L 128.000198 55.254196 C 128.000198 52.838196 130.607193 51.26619 132.824203 52.347198 L 170.037201 70.490204 C 172.494202 71.687195 172.494202 75.106201 170.037201 76.304199 L 132.824203 94.446198 C 130.607193 95.527206 128.000198 93.9552 128.000198 91.5392 L 128.000198 84.577194 C 128.000198 82.652206 126.295197 81.187195 124.326202 81.332199 C 99.545197 83.162201 80.000198 103.355194 80.000198 128.000198 C 80.000198 139.841202 84.517197 150.660202 91.962196 158.905197 M 178.545197 83.591202 C 177.188202 82.120193 175.246201 81.277206 173.215195 81.277206 C 171.263199 81.277206 169.424194 82.023193 168.034195 83.377197 L 161.463196 89.785202 C 159.975204 91.235199 159.235199 93.1492 159.246201 95.055206 C 158.444199 95.441193 157.701202 95.9552 157.053192 96.603195 L 108.9702 144.686203 L 97.657196 133.373199 C 96.146194 131.861206 94.1362 131.029205 92.000198 131.029205 C 89.863197 131.029205 87.854195 131.861206 86.343201 133.373199 C 85.704201 134.012207 85.195198 134.744202 84.810196 135.533203 C 84.356201 133.061203 84.120201 130.542206 84.120201 128.000198 C 84.120201 117.158203 88.297195 106.813202 95.883202 98.873199 C 103.310196 91.098206 113.3172 86.319199 124.120201 85.371201 L 124.120201 91.5392 C 124.120201 95.5392 127.410202 98.793198 131.4552 98.793198 C 132.583206 98.793198 133.674194 98.540192 134.697205 98.042206 L 171.910202 79.8992 C 174.432205 78.669205 176.000198 76.178192 176.000198 73.397202 C 176.000198 70.616196 174.432205 68.124207 171.910202 66.894196 L 134.697205 48.752197 C 133.674194 48.253189 132.583206 48.000198 131.4552 48.000198 C 127.410202 48.000198 124.120201 51.254196 124.120201 55.254196 L 124.120201 61.709198 C 88.184196 63.743195 60.120197 92.756195 60.120197 128.000198 C 60.120197 144.435211 66.319199 160.208191 77.575195 172.40921 C 78.931198 173.880203 80.874199 174.722198 82.905197 174.722198 C 84.857201 174.722198 86.697197 173.976196 88.086197 172.622192 L 94.657196 166.21521 C 97.465195 163.477203 97.637199 159.09021 95.051201 156.224197 C 92.535194 153.438202 90.430199 150.365204 88.754196 147.097198 L 100.485199 158.828201 L 103.313202 161.657196 C 104.824196 163.168198 106.834198 164.000198 108.9702 164.000198 C 108.993202 164.000198 109.014198 163.997192 109.037201 163.997192 L 84.210197 176.100189 C 81.687195 177.3302 80.120201 179.822205 80.120201 182.60321 C 80.120201 185.384201 81.687195 187.87619 84.210197 189.105194 L 121.423203 207.248199 C 122.446198 207.747192 123.537201 208.000198 124.665199 208.000198 C 128.709198 208.000198 132.000198 204.746201 132.000198 200.746201 L 132.000198 194.291199 C 167.935196 192.257202 196.000198 163.244202 196.000198 128.000198 C 196.000198 111.564194 189.801193 95.792206 178.545197 83.591202"/>
</svg>
