<?xml version="1.0" encoding="UTF-8"?>
<!-- Generated by Pixelmator Pro 3.7.1 -->
<svg width="256" height="256" viewBox="0 0 256 256" xmlns="http://www.w3.org/2000/svg">
    <path id="Path" fill="#ffffff" stroke="none" d="M 96 64 C 96 64 116 60 128 60 C 140 60 160 64 160 64 C 160 80 184 84 184 84 L 176 140 C 168 180 128 196 128 196 C 128 196 88 180 80 140 L 72 84 C 72 84 96 80 96 64 M 76.040001 140.565002 L 76.056 140.675995 L 76.078003 140.783997 C 79.531998 158.05899 89.349998 173.72699 104.467003 186.096008 C 115.811996 195.378998 126.083 199.541 126.514999 199.714005 L 128 200.309006 L 129.485001 199.714005 C 129.916992 199.541 140.188004 195.378998 151.533005 186.096008 C 166.649994 173.72699 176.468002 158.05899 179.921997 140.783997 L 179.944 140.675995 L 179.959991 140.565002 L 187.959991 84.565002 L 188.513 80.697006 L 184.656998 80.054001 C 184.457001 80.020996 164 76.404999 164 64 L 164 60.720993 L 160.783997 60.078003 C 159.951996 59.910995 140.255005 56 128 56 C 115.745003 56 96.047997 59.910995 95.214996 60.078003 L 92 60.720993 L 92 64 C 92 76.404999 71.542999 80.020996 71.335999 80.054993 L 67.495003 80.708008 L 68.040001 84.565002 Z"/>
    <path id="path1" fill="#ffffff" stroke="none" d="M 140 116 L 128 116 L 116 116 L 116 111.882004 C 116 105.774002 121.832001 100 128 100 C 134.167999 100 140 105.774002 140 111.882004 Z M 128 96 C 119.681999 96 112 103.584 112 111.882004 L 112 120 L 128 120 L 144 120 L 144 111.882004 C 144 103.584 136.317001 96 128 96"/>
    <path id="path2" fill="#ffffff" stroke="none" d="M 100 152 L 156 152 L 156 153.526001 C 156 154.893005 154.889999 156 153.520996 156 L 102.479004 156 C 101.110001 156 100 154.893005 100 153.526001 Z M 100 144 L 156 144 L 156 148 L 100 148 Z M 100 120 L 104 120 L 104 111.882004 C 104 98.446991 114.532997 88 128 88 C 141.466995 88 152 98.446991 152 111.882004 L 152 120 L 156 120 L 156 140 L 100 140 Z M 102.479004 160 L 153.520996 160 C 157.093002 160 160 157.096008 160 153.526001 L 160 120 L 160 116 L 156 116 L 156 111.882004 C 156 96.247009 143.701004 84 128 84 C 112.298996 84 100 96.247009 100 111.882004 L 100 116 L 96 116 L 96 120 L 96 153.526001 C 96 157.096008 98.906998 160 102.479004 160"/>
</svg>
