<?xml version="1.0" encoding="UTF-8"?>
<!-- Generated by Pixelmator Pro 3.7.1 -->
<svg width="256" height="256" viewBox="0 0 256 256" xmlns="http://www.w3.org/2000/svg">
    <path id="Path" fill="#ffffff" stroke="none" d="M 180.609406 95.526901 L 103.755402 172.5849 C 101.5214 174.823898 97.899399 174.823898 95.665398 172.5849 L 95.665398 172.583893 L 91.620399 168.5289 L 71.3964 148.249908 C 69.162399 146.010895 69.162399 142.378906 71.3964 140.138901 C 73.630402 137.899902 77.252396 137.899902 79.485397 140.138901 L 99.710396 160.417908 L 172.519394 87.415894 C 174.754395 85.175903 178.375397 85.175903 180.609406 87.415894 C 182.843399 89.654907 182.843399 93.286896 180.609406 95.526901 M 184.654404 83.359894 C 182.493393 81.193893 179.620407 79.999893 176.564407 79.999893 C 173.508408 79.999893 170.635406 81.193893 168.474396 83.359894 L 99.710396 152.3069 L 83.530396 136.083893 C 81.370399 133.916901 78.497398 132.723907 75.441399 132.723907 C 72.384399 132.723907 69.511398 133.916901 67.351395 136.083893 C 65.190399 138.249908 64.000397 141.13089 64.000397 144.194901 C 64.000397 147.258896 65.190399 150.139893 67.351395 152.3069 L 87.575401 172.583893 L 91.620399 176.6409 C 93.781395 178.8069 96.654396 179.999908 99.710396 179.999908 C 102.766396 179.999908 105.639397 178.8069 107.8004 176.6409 L 184.654404 99.582901 C 189.115402 95.109894 189.115402 87.832901 184.654404 83.359894"/>
</svg>
