<?xml version="1.0" encoding="UTF-8"?>
<!-- Generated by Pixelmator Pro 3.7.1 -->
<svg width="256" height="256" viewBox="0 0 256 256" xmlns="http://www.w3.org/2000/svg">
    <path id="Path" fill="#ffffff" stroke="none" d="M 136.485397 136.485397 C 134.142395 138.8284 131.071396 140.000397 128.000397 140.000397 C 124.928398 140.000397 121.858398 138.8284 119.514397 136.485397 C 114.8284 131.798401 114.8284 124.201401 119.514397 119.514404 C 121.858398 117.171402 124.928398 116.000397 128.000397 116.000397 C 131.071396 116.000397 134.142395 117.171402 136.485397 119.514404 C 141.172394 124.201401 141.172394 131.798401 136.485397 136.485397 M 132.000397 184.000397 C 132.000397 186.209396 130.209396 188.000397 128.000397 188.000397 C 125.791397 188.000397 124.000397 186.209396 124.000397 184.000397 L 124.000397 143.479401 C 125.293396 143.810394 126.630402 144.000397 128.000397 144.000397 C 129.3694 144.000397 130.707397 143.810394 132.000397 143.479401 Z M 124.000397 72.000397 C 124.000397 69.791397 125.791397 68.000397 128.000397 68.000397 C 130.209396 68.000397 132.000397 69.791397 132.000397 72.000397 L 132.000397 112.520401 C 130.707397 112.189407 129.3694 112.000397 128.000397 112.000397 C 126.630402 112.000397 125.293396 112.189407 124.000397 112.520401 Z M 139.3134 116.686401 C 138.312393 115.684402 137.193405 114.848404 136.000397 114.155396 L 136.000397 72.000397 C 136.000397 67.589401 132.411407 64.000397 128.000397 64.000397 C 123.589401 64.000397 120.000397 67.589401 120.000397 72.000397 L 120.000397 114.155396 C 118.806396 114.848404 117.687401 115.684402 116.686401 116.686401 C 110.447403 122.924393 110.447403 133.075409 116.686401 139.3134 C 117.6884 140.315399 118.806396 141.152405 120.000397 141.843399 L 120.000397 184.000397 C 120.000397 188.411407 123.589401 192.000397 128.000397 192.000397 C 132.411407 192.000397 136.000397 188.411407 136.000397 184.000397 L 136.000397 141.843399 C 137.193405 141.152405 138.312393 140.315399 139.3134 139.3134 C 145.551407 133.075409 145.551407 122.924393 139.3134 116.686401"/>
    <path id="path1" fill="#ffffff" stroke="none" d="M 88.485397 116.485397 C 86.142403 118.8284 83.071404 120.000397 80.000397 120.000397 C 76.928398 120.000397 73.858398 118.8284 71.514397 116.485397 C 66.8284 111.798401 66.8284 104.201401 71.514397 99.514404 C 73.858398 97.171402 76.928398 96.000397 80.000397 96.000397 C 83.071404 96.000397 86.142403 97.171402 88.485397 99.514404 C 93.171402 104.201401 93.171402 111.798401 88.485397 116.485397 M 84.000397 184.000397 C 84.000397 186.209396 82.209396 188.000397 80.000397 188.000397 C 77.791397 188.000397 76.000397 186.209396 76.000397 184.000397 L 76.000397 123.479401 C 77.293396 123.811401 78.630402 124.000397 80.000397 124.000397 C 81.3694 124.000397 82.707397 123.811401 84.000397 123.479401 Z M 76.000397 72.000397 C 76.000397 69.791397 77.791397 68.000397 80.000397 68.000397 C 82.209396 68.000397 84.000397 69.791397 84.000397 72.000397 L 84.000397 92.520401 C 82.707397 92.189407 81.3694 92.000397 80.000397 92.000397 C 78.630402 92.000397 77.293396 92.189407 76.000397 92.520401 Z M 91.3134 96.686401 C 90.312401 95.684402 89.193398 94.848404 88.000397 94.155396 L 88.000397 72.000397 C 88.000397 67.589401 84.4114 64.000397 80.000397 64.000397 C 75.589401 64.000397 72.000397 67.589401 72.000397 72.000397 L 72.000397 94.155396 C 70.806396 94.848404 69.687401 95.684402 68.686401 96.686401 C 62.447399 102.924393 62.447399 113.075394 68.686401 119.3134 C 69.6884 120.315399 70.806396 121.152405 72.000397 121.844406 L 72.000397 184.000397 C 72.000397 188.411407 75.589401 192.000397 80.000397 192.000397 C 84.4114 192.000397 88.000397 188.411407 88.000397 184.000397 L 88.000397 121.844406 C 89.193398 121.152405 90.312401 120.315399 91.3134 119.3134 C 97.552399 113.075394 97.552399 102.924393 91.3134 96.686401"/>
    <path id="path2" fill="#ffffff" stroke="none" d="M 184.485397 108.485397 C 182.142395 110.8284 179.071396 112.000397 176.000397 112.000397 C 172.928406 112.000397 169.857407 110.8284 167.514404 108.485397 C 162.8284 103.798401 162.8284 96.201401 167.514404 91.514404 C 169.857407 89.171402 172.928406 88.000397 176.000397 88.000397 C 179.071396 88.000397 182.142395 89.171402 184.485397 91.514404 C 189.172394 96.201401 189.172394 103.798401 184.485397 108.485397 M 180.000397 184.000397 C 180.000397 186.209396 178.209396 188.000397 176.000397 188.000397 C 173.791397 188.000397 172.000397 186.209396 172.000397 184.000397 L 172.000397 115.479401 C 173.293396 115.811401 174.631393 116.000397 176.000397 116.000397 C 177.3694 116.000397 178.707397 115.811401 180.000397 115.479401 Z M 172.000397 72.000397 C 172.000397 69.791397 173.791397 68.000397 176.000397 68.000397 C 178.209396 68.000397 180.000397 69.791397 180.000397 72.000397 L 180.000397 84.520401 C 178.707397 84.189407 177.3694 84.000397 176.000397 84.000397 C 174.631393 84.000397 173.293396 84.189407 172.000397 84.520401 Z M 187.3134 88.686401 C 186.312393 87.684402 185.193405 86.848404 184.000397 86.155396 L 184.000397 72.000397 C 184.000397 67.589401 180.411407 64.000397 176.000397 64.000397 C 171.589401 64.000397 168.000397 67.589401 168.000397 72.000397 L 168.000397 86.155396 C 166.806396 86.848404 165.687393 87.684402 164.686401 88.686401 C 158.448395 94.924393 158.448395 105.075394 164.686401 111.3134 C 165.687393 112.315399 166.806396 113.152405 168.000397 113.844406 L 168.000397 184.000397 C 168.000397 188.411407 171.589401 192.000397 176.000397 192.000397 C 180.411407 192.000397 184.000397 188.411407 184.000397 184.000397 L 184.000397 113.844406 C 185.193405 113.152405 186.312393 112.315399 187.3134 111.3134 C 193.551407 105.075394 193.551407 94.924393 187.3134 88.686401"/>
</svg>
