<?xml version="1.0" encoding="UTF-8"?>
<!-- Generated by Pixelmator Pro 3.7.1 -->
<svg width="256" height="256" viewBox="0 0 256 256" xmlns="http://www.w3.org/2000/svg">
    <path id="Path" fill="#ffffff" stroke="none" d="M 124.3218 89.8013 C 122.6968 89.8013 121.176804 90.447296 120.040802 91.619293 L 110.179802 101.795303 L 107.481796 104.578293 L 110.179802 107.362305 C 115.503799 112.855301 118.435799 120.155304 118.435799 127.916306 C 118.435799 135.698303 115.4888 143.012299 110.136803 148.511292 L 107.4338 151.290298 L 110.125801 154.0793 L 119.965797 164.274292 C 121.102798 165.453308 122.626801 166.101303 124.255798 166.101303 C 125.9608 166.101303 127.594803 165.366302 128.739807 164.082306 C 137.571793 154.177307 142.435806 141.33429 142.435806 127.916306 C 142.435806 114.5383 137.597794 101.722305 128.813797 91.830307 C 127.6698 90.541306 126.031799 89.8013 124.3218 89.8013 M 124.3218 93.8013 C 124.870804 93.8013 125.420799 94.032303 125.8228 94.486298 C 133.652802 103.302307 138.435806 115.044296 138.435806 127.916306 C 138.435806 140.825287 133.622803 152.595306 125.754799 161.420303 C 125.351799 161.872299 124.802803 162.101303 124.255798 162.101303 C 123.744797 162.101303 123.235802 161.902298 122.843803 161.497299 L 113.003799 151.3013 C 118.825798 145.318298 122.435799 137.045288 122.435799 127.916306 C 122.435799 118.812302 118.846802 110.557297 113.051796 104.578293 L 122.912804 94.403305 C 123.303802 94.000305 123.812798 93.8013 124.3218 93.8013"/>
    <path id="path1" fill="#ffffff" stroke="none" d="M 95.995102 90.792496 C 94.649101 90.792496 93.307098 91.142502 92.115097 91.804504 L 62.963097 108.000504 L 52.899097 108.000504 C 47.9921 108.000504 44.000099 111.992508 44.000099 116.898499 L 44.000099 139.100494 C 44.000099 144.007507 47.9921 148.000504 52.899097 148.000504 L 62.963097 148.000504 L 92.115097 164.195496 C 93.307098 164.857513 94.649101 165.208496 95.995102 165.208496 C 100.409103 165.208496 104.000099 161.616501 104.000099 157.202515 L 104.000099 98.797501 C 104.000099 94.383499 100.409103 90.792496 95.995102 90.792496 M 95.995102 94.792496 C 98.087097 94.792496 100.000099 96.467499 100.000099 98.797501 L 100.000099 157.202515 C 100.000099 159.532501 98.087097 161.208496 95.995102 161.208496 C 95.349098 161.208496 94.686096 161.047501 94.058098 160.698502 L 64.000099 144.000504 L 52.899097 144.000504 C 50.1931 144.000504 48.000099 141.806503 48.000099 139.100494 L 48.000099 116.898499 C 48.000099 114.193497 50.1931 112.000504 52.899097 112.000504 L 64.000099 112.000504 L 94.058098 95.301498 C 94.686096 94.952499 95.349098 94.792496 95.995102 94.792496"/>
</svg>
