<?xml version="1.0" encoding="UTF-8"?>
<!-- Generated by Pixelmator Pro 3.7.1 -->
<svg width="256" height="256" viewBox="0 0 256 256" xmlns="http://www.w3.org/2000/svg">
    <path id="Path" fill="#ffffff" stroke="none" d="M 148.069305 156 L 144.000305 156 L 112.277298 156 L 108.345299 156 L 108.277298 159.931 L 108.000298 175.931 L 107.930298 180 L 112.000298 180 L 143.722305 180 L 147.654297 180 L 147.722305 176.069 L 147.999298 160.069 Z M 144.000305 160 L 143.722305 176 L 112.000298 176 L 112.277298 160 Z"/>
    <path id="path1" fill="#ffffff" stroke="none" d="M 128 80 C 108.149002 80 92 96.149002 92 116 L 92 120 L 96 120 L 120 120 L 124 120 L 124 116 C 124 113.794006 125.793999 112 128 112 C 128.274994 112 128.557999 112.028 128.837997 112.083008 C 130.354004 112.380005 131.619995 113.645996 131.917007 115.162003 C 132.242996 116.826004 131.539001 117.988998 131.089996 118.535004 C 130.322998 119.466003 129.197006 120 128 120 C 127.454002 120 122.524002 120.106003 117.599998 123.800003 C 109.666 129.751007 108 140.244995 108 148 L 108 152 L 112 152 L 128 152 L 144 152 L 148 152 L 148 148 C 148 146.709 148.619003 145.516998 149.699997 144.697998 C 159.438995 137.320007 164.752991 125.645996 163.912003 113.468994 C 162.686005 95.682999 148.350998 81.332993 130.567001 80.089996 C 129.714996 80.029999 128.850998 80 128 80 M 128 84 C 128.757004 84 129.520996 84.026001 130.287994 84.080002 C 146.061996 85.182999 158.834 97.970001 159.921997 113.744003 C 160.703003 125.061996 155.556 135.244003 147.283997 141.509995 C 145.248001 143.053009 144 145.415009 144 147.970001 L 144 148 L 128 148 L 112 148 C 112 124 128 124 128 124 C 132.936996 124 136.843994 119.505005 135.843002 114.393005 C 135.231995 111.278 132.723007 108.768005 129.606995 108.158005 C 129.061996 108.050995 128.526001 108 128 108 C 123.588997 108 120 111.589005 120 116 L 96 116 C 96 98.354996 110.354996 84 128 84"/>
</svg>
