<?xml version="1.0" encoding="UTF-8"?>
<!-- Generated by Pixelmator Pro 3.7.1 -->
<svg width="256" height="256" viewBox="0 0 256 256" xmlns="http://www.w3.org/2000/svg">
    <path id="Path" fill="#ffffff" stroke="none" d="M 148 108 L 144 108 L 112 108 L 108 108 L 108 112 L 108 176 L 108 180 L 112 180 L 144 180 L 148 180 L 148 176 L 148 112 Z M 144 176 L 112 176 L 112 112 L 144 112 Z"/>
    <path id="path1" fill="#ffffff" stroke="none" d="M 148.069305 76 L 144.000305 76 L 112.277298 76 L 108.345299 76 L 108.277298 79.931 L 108.000298 95.931 L 107.930298 100 L 112.000298 100 L 143.722305 100 L 147.654297 100 L 147.722305 96.069 L 147.999298 80.069 Z M 144.000305 80 L 143.722305 96 L 112.000298 96 L 112.277298 80 Z"/>
</svg>
