<?xml version="1.0" encoding="UTF-8"?>
<!-- Generated by Pixelmator Pro 3.7.1 -->
<svg width="256" height="256" viewBox="0 0 256 256" xmlns="http://www.w3.org/2000/svg">
    <path id="Path" fill="#ffffff" stroke="none" d="M 189.991196 59.432098 L 185.463196 60.035095 C 185.265198 60.061096 185.099197 60.080093 184.954193 60.097107 C 184.585205 60.139099 184.204193 60.182098 183.764206 60.283096 L 166.554199 64.252106 C 148.321198 68.458099 129.467209 72.807098 110.9142 77.038101 C 107.402206 77.840103 105.598206 80.147095 105.5532 83.898102 C 105.389206 97.584106 105.188202 111.501099 104.994202 124.959106 C 104.887207 132.412109 104.780205 139.864105 104.6782 147.317108 C 104.652206 149.1931 104.6492 151.059097 104.653206 152.976105 C 101.235207 151.563095 97.565201 150.825104 93.887207 150.825104 C 81.408203 150.825104 70.2882 159.131104 66.8442 171.023102 C 65.153206 176.862091 66.055206 182.925095 69.319206 187.655106 C 72.590202 192.395096 77.953201 195.397095 84.034203 195.891098 C 84.923203 195.964096 85.821205 196.000092 86.703201 196.000092 C 104.069206 196.000092 117.860207 181.986099 118.101204 164.0961 C 118.4282 139.845093 118.6222 119.765106 118.712204 100.903107 C 118.712204 100.880096 118.712204 100.857101 118.712204 100.835098 C 118.717201 100.834106 118.7202 100.833099 118.725204 100.832108 C 130.698196 98.244095 142.847198 95.535095 154.597198 92.9151 C 159.287201 91.870102 163.976196 90.824097 168.668198 89.784103 C 171.209198 89.220093 173.753204 88.669098 176.227203 88.136093 L 176.227203 136.566101 C 172.962204 135.4021 169.546204 134.813095 166.042206 134.813095 C 153.510208 134.813095 142.335205 142.201096 137.575195 153.634094 C 135.342209 158.997101 135.653198 164.939102 138.428207 169.936096 C 141.065201 174.683105 145.640198 177.907104 150.980194 178.781097 C 153.353195 179.170105 155.7612 179.366089 158.137207 179.366089 C 160.913208 179.366089 163.582199 179.097107 166.068207 178.565094 C 181.712204 175.223099 190.160202 164.938095 189.857193 149.607101 C 189.571198 135.118103 189.709198 120.349106 189.843201 106.066101 C 189.902206 99.668106 189.964203 93.052094 189.987198 86.5401 C 190.005203 81.468094 190.001205 76.495102 189.996201 71.231094 C 189.993195 68.8461 189.991196 66.439102 189.991196 64.000107 Z M 185.991196 64.000107 C 185.991196 71.720093 186.013199 79.123093 185.987198 86.526093 C 185.912201 107.580093 185.4422 128.64209 185.8582 149.686096 C 186.158203 164.890106 176.901199 172.160095 165.232193 174.654099 C 162.950195 175.141098 160.545197 175.366089 158.137207 175.366089 C 155.938202 175.366089 153.738205 175.180099 151.627197 174.834106 C 142.5802 173.352097 137.734207 163.657104 141.267197 155.172089 C 145.512207 144.978088 155.574203 138.813095 166.042206 138.813095 C 169.678207 138.813095 173.359207 139.557098 176.866196 141.132095 C 177.773193 141.539093 178.678207 141.9561 180.227203 142.663101 L 180.227203 83.181107 C 176.301193 84.032104 172.047195 84.936096 167.8022 85.878098 C 151.163208 89.571106 134.538208 93.321106 117.880203 96.923096 C 115.468201 97.445099 114.723206 98.368103 114.712204 100.885101 C 114.612206 121.937103 114.3862 142.990097 114.102203 164.041107 C 113.887207 179.991089 101.824203 192.000092 86.703201 192.000092 C 85.929207 192.000092 85.147202 191.969101 84.3582 191.904099 C 74.1362 191.075104 67.838203 181.970093 70.686203 172.1371 C 73.783203 161.442108 83.570206 154.825104 93.887207 154.825104 C 97.784203 154.825104 101.757202 155.769104 105.474205 157.796097 C 106.332207 158.264099 107.186203 158.741089 108.669205 159.559097 C 108.669205 155.172089 108.623207 151.271088 108.6772 147.372101 C 108.967201 126.230103 109.299202 105.089096 109.5532 83.947098 C 109.574203 82.231094 109.965202 81.358093 111.8032 80.938095 C 136.100204 75.397095 160.379196 69.7771 184.663193 64.181107 C 185.003204 64.102097 185.357193 64.084106 185.991196 64.000107"/>
</svg>
