<?xml version="1.0" encoding="UTF-8"?>
<!-- Generated by Pixelmator Pro 3.7.1 -->
<svg width="256" height="256" viewBox="0 0 256 256" xmlns="http://www.w3.org/2000/svg">
    <path id="Path" fill="#ffffff" stroke="none" d="M 70 120 C 57.849998 120 48 129.850006 48 142 C 48 154.149994 57.849998 164 70 164 C 82.150002 164 92 154.149994 92 142 C 92 129.850006 82.150002 120 70 120 M 70 124 C 79.925003 124 88 132.074997 88 142 C 88 151.925003 79.925003 160 70 160 C 60.075001 160 52 151.925003 52 142 C 52 132.074997 60.075001 124 70 124"/>
    <path id="path1" fill="#ffffff" stroke="none" d="M 186 120 C 173.850006 120 164 129.850006 164 142 C 164 154.149994 173.850006 164 186 164 C 198.149994 164 208 154.149994 208 142 C 208 129.850006 198.149994 120 186 120 M 186 124 C 195.925003 124 204 132.074997 204 142 C 204 151.925003 195.925003 160 186 160 C 176.074997 160 168 151.925003 168 142 C 168 132.074997 176.074997 124 186 124"/>
    <path id="path2" fill="#ffffff" stroke="none" d="M 128 114 C 112.560997 114 100 126.561005 100 142 C 100 157.438995 112.560997 170 128 170 C 143.438995 170 156 157.438995 156 142 C 156 126.561005 143.438995 114 128 114 M 128 118 C 141.255005 118 152 128.744995 152 142 C 152 155.255005 141.255005 166 128 166 C 114.745003 166 104 155.255005 104 142 C 104 128.744995 114.745003 118 128 118"/>
    <path id="path3" fill="#ffffff" stroke="none" d="M 128 86.227997 C 113.731003 86.227997 100.175003 90.371994 89.828995 97.895004 C 83.531998 102.475998 78.792 107.964996 75.738998 114.210999 L 73.826004 118.128998 L 77.893005 119.699005 C 80.026001 120.522003 82.013 121.671005 83.796005 123.110992 L 87.781998 126.332001 L 89.938004 121.682999 C 95.334 110.046005 110.629997 102.227997 128 102.227997 C 140.761993 102.227997 152.464005 106.414993 160.028 113.561005 L 156.876999 117.501007 L 151.677994 124 L 160 124 L 176 124 L 180 124 L 180 120 L 180 100 L 180 88.597 L 172.876999 97.501007 L 170.057007 101.026001 C 168.821991 99.925995 167.524002 98.880005 166.171005 97.895004 C 155.824997 90.371994 142.270004 86.227997 128 86.227997 M 128 90.227997 C 141.431 90.227997 154.149994 94.100006 163.817993 101.130997 C 166.292999 102.931 168.488007 104.891998 170.419006 106.977005 L 176 100 L 176 120 L 160 120 L 165.332001 113.334 C 157.565002 104.272003 143.766006 98.227997 128 98.227997 C 108.620003 98.227997 92.178001 107.345001 86.309998 120 C 84.224998 118.315002 81.875 116.947998 79.333 115.966995 C 82.056 110.395004 86.395004 105.339005 92.181999 101.130997 C 101.848999 94.100006 114.57 90.227997 128 90.227997"/>
</svg>
