<?xml version="1.0" encoding="UTF-8"?>
<!-- Generated by Pixelmator Pro 3.7.1 -->
<svg width="256" height="256" viewBox="0 0 256 256" xmlns="http://www.w3.org/2000/svg">
    <path id="Path" fill="#ffffff" stroke="none" d="M 128 140.039093 C 125.769997 140.039093 123.960999 138.230103 123.960999 136.000092 C 123.960999 133.769104 125.769997 131.962097 128 131.962097 C 130.229996 131.962097 132.039001 133.769104 132.039001 136.000092 C 132.039001 138.230103 130.229996 140.039093 128 140.039093 M 130.020004 128.18811 L 130.020004 97.631104 C 130.020004 96.516098 129.115005 95.612106 128 95.612106 C 126.885002 95.612106 125.980003 96.516098 125.980003 97.631104 L 125.980003 128.18811 C 122.501999 129.089111 119.921997 132.245102 119.921997 136.000092 C 119.921997 140.454102 123.545998 144.078094 128 144.078094 C 132.453995 144.078094 136.078003 140.454102 136.078003 136.000092 C 136.078003 132.245102 133.498001 129.089111 130.020004 128.18811"/>
    <path id="path1" fill="#ffffff" stroke="none" d="M 128 182.973602 C 101.987 182.973602 80.953003 162.032593 80.953003 136.038605 C 80.953003 110.045593 101.987 89.026596 128 89.026596 C 154.013 89.026596 175.048004 110.045593 175.048004 136.038605 C 175.048004 162.032593 154.013 182.973602 128 182.973602 M 83.734001 100.301605 L 92.300995 91.733597 C 92.695999 91.3396 93.212006 91.142593 93.729004 91.142593 C 94.246002 91.142593 94.763 91.3396 95.156998 91.733597 L 97.416 93.992599 C 93.042999 97.1866 89.186996 101.044601 85.994995 105.418594 L 83.734001 103.157593 C 82.945 102.369598 82.945 101.090591 83.734001 100.301605 M 119.921997 81.475601 C 119.921997 80.360596 120.827003 80.155594 121.942001 80.155594 L 134.059006 80.155594 C 135.173996 80.155594 136.078003 80.360596 136.078003 81.475601 L 136.078003 84.636597 C 133.444 84.222595 130.748001 84.000595 128 84.000595 C 125.251999 84.000595 122.556 84.222595 119.921997 84.636597 Z M 119.921997 70.057602 C 119.921997 68.942596 120.827003 68.038605 121.942001 68.038605 L 134.059006 68.038605 C 135.173996 68.038605 136.078003 68.942596 136.078003 70.057602 L 136.078003 74.097595 C 136.078003 75.212601 135.173996 76.116592 134.059006 76.116592 L 121.942001 76.116592 C 120.827003 76.116592 119.921997 75.212601 119.921997 74.097595 Z M 160.843002 91.733597 C 161.237 91.3396 161.753998 91.142593 162.270996 91.142593 C 162.787003 91.142593 163.304993 91.3396 163.697998 91.733597 L 172.266998 100.301605 C 173.054993 101.090591 173.054993 102.369598 172.266998 103.157593 L 170.005005 105.418594 C 166.813004 101.044601 162.957001 97.1866 158.584 93.992599 Z M 172.303009 108.833603 L 175.122009 106.013596 C 176.266998 104.869598 176.895996 103.347595 176.895996 101.729599 C 176.895996 100.111603 176.266998 98.5896 175.122009 97.445602 L 166.554993 88.877594 C 165.410004 87.733597 163.889008 87.103592 162.270996 87.103592 C 160.652008 87.103592 159.130997 87.733597 157.985992 88.878601 L 155.171997 91.693604 C 150.576004 88.861603 145.507996 86.730606 140.115997 85.435593 L 140.115997 81.475601 C 140.115997 79.923599 139.524002 79.208603 138.561005 78.135605 C 139.524002 77.062592 140.115997 75.649597 140.115997 74.097595 L 140.115997 70.057602 C 140.115997 66.717606 137.397995 63.999603 134.059006 63.999603 L 121.942001 63.999603 C 118.600998 63.999603 115.883003 66.717606 115.883003 70.057602 L 115.883003 74.097595 C 115.883003 75.649597 116.475998 77.062592 117.439003 78.135605 C 116.475998 79.208603 115.883003 79.923599 115.883003 81.475601 L 115.883003 85.435593 C 110.492996 86.730606 105.423996 88.861603 100.828003 91.692596 L 98.013 88.877594 C 96.869003 87.733597 95.348 87.103592 93.729004 87.103592 C 92.111 87.103592 90.589996 87.733597 89.445 88.878601 L 80.877998 97.445602 C 79.734001 98.5896 79.104004 100.111603 79.104004 101.729599 C 79.104004 103.347595 79.733002 104.869598 80.877998 106.013596 L 83.697998 108.833603 C 78.82 116.757599 76 126.076599 76 136.038605 C 76 164.706604 99.311005 187.999603 128 187.999603 C 156.688995 187.999603 180 164.706604 180 136.038605 C 180 126.076599 177.179993 116.757599 172.303009 108.833603"/>
</svg>
