<?xml version="1.0" encoding="UTF-8"?>
<!-- Generated by Pixelmator Pro 3.7.1 -->
<svg width="256" height="256" viewBox="0 0 256 256" xmlns="http://www.w3.org/2000/svg">
    <path id="Path" fill="#ffffff" stroke="none" d="M 112 154 C 112 157.300003 109.300003 160 106 160 C 102.699997 160 100 157.300003 100 154 L 100 102 C 100 98.699997 102.699997 96 106 96 C 109.300003 96 112 98.699997 112 102 Z M 106 92 C 100.486 92 96 96.485992 96 102 L 96 154 C 96 159.514008 100.486 164 106 164 C 111.514 164 116 159.514008 116 154 L 116 102 C 116 96.485992 111.514 92 106 92"/>
    <path id="path1" fill="#ffffff" stroke="none" d="M 156 154 C 156 157.300003 153.300003 160 150 160 C 146.699997 160 144 157.300003 144 154 L 144 102 C 144 98.699997 146.699997 96 150 96 C 153.300003 96 156 98.699997 156 102 Z M 150 92 C 144.485992 92 140 96.485992 140 102 L 140 154 C 140 159.514008 144.485992 164 150 164 C 155.514008 164 160 159.514008 160 154 L 160 102 C 160 96.485992 155.514008 92 150 92"/>
</svg>
