<?xml version="1.0" encoding="UTF-8"?>
<!-- Generated by Pixelmator Pro 3.7.1 -->
<svg width="256" height="256" viewBox="0 0 256 256" xmlns="http://www.w3.org/2000/svg">
    <path id="Path" fill="#ffffff" stroke="none" d="M 208 80 L 204 80 L 199.529007 80 L 56.470993 80 L 52 80 L 48 80 L 48 84 L 48 88.399994 L 48 167.600006 L 48 172 L 48 176 L 52 176 L 56.470993 176 L 199.529007 176 L 204 176 L 208 176 L 208 172 L 208 167.600006 L 208 88.399994 L 208 84 Z M 204 84 L 204 88.399994 L 204 167.600006 L 204 172 L 199.529007 172 L 56.470993 172 L 52 172 L 52 167.600006 L 52 88.399994 L 52 84 L 56.470993 84 L 199.529007 84 Z"/>
    <path id="path1" fill="#ffffff" stroke="none" d="M 108 88 L 104 88 L 60 88 L 56 88 L 56 92 L 56 112 L 56 116 L 60 116 L 104 116 L 108 116 L 108 112 L 108 92 Z M 104 112 L 60 112 L 60 92 L 104 92 Z"/>
</svg>
