<?xml version="1.0" encoding="UTF-8"?>
<!-- Generated by Pixelmator Pro 3.7.1 -->
<svg width="256" height="256" viewBox="0 0 256 256" xmlns="http://www.w3.org/2000/svg">
    <path id="Path" fill="#ffffff" stroke="none" d="M 108 108 L 104 108 L 92 108 L 88 108 L 88 112 L 88 124 L 88 128 L 92 128 L 104 128 L 108 128 L 108 124 L 108 112 Z M 104 124 L 92 124 L 92 112 L 104 112 Z"/>
    <path id="path1" fill="#ffffff" stroke="none" d="M 128 112 L 124 112 L 116 112 L 112 112 L 112 116 L 112 124 L 112 128 L 116 128 L 124 128 L 128 128 L 128 124 L 128 116 Z M 124 124 L 116 124 L 116 116 L 124 116 Z"/>
    <path id="path2" fill="#ffffff" stroke="none" d="M 84 112 L 80 112 L 72 112 L 68 112 L 68 116 L 68 124 L 68 128 L 72 128 L 80 128 L 84 128 L 84 124 L 84 116 Z M 80 124 L 72 124 L 72 116 L 80 116 Z"/>
    <path id="path3" fill="#ffffff" stroke="none" d="M 104 92 L 100 92 L 96 92 L 92 92 L 92 96 L 92 100 L 92 104 L 96 104 L 100 104 L 104 104 L 104 100 L 104 96 Z M 100 100 L 96 100 L 96 96 L 100 96 Z"/>
    <path id="path4" fill="#ffffff" stroke="none" d="M 106 132 L 102 132 L 94 132 L 90 132 L 90 136 L 90 144 L 90 148 L 94 148 L 102 148 L 106 148 L 106 144 L 106 136 Z M 102 144 L 94 144 L 94 136 L 102 136 Z"/>
    <path id="path5" fill="#ffffff" stroke="none" d="M 104 152 L 100 152 L 96 152 L 92 152 L 92 156 L 92 160 L 92 164 L 96 164 L 100 164 L 104 164 L 104 160 L 104 156 Z M 100 160 L 96 160 L 96 156 L 100 156 Z"/>
    <path id="path6" fill="#ffffff" stroke="none" d="M 148 112 L 144 112 L 136 112 L 132 112 L 132 116 L 132 124 L 132 128 L 136 128 L 144 128 L 148 128 L 148 124 L 148 116 Z M 144 124 L 136 124 L 136 116 L 144 116 Z"/>
    <path id="path7" fill="#ffffff" stroke="none" d="M 168 112 L 164 112 L 156 112 L 152 112 L 152 116 L 152 124 L 152 128 L 156 128 L 164 128 L 168 128 L 168 124 L 168 116 Z M 164 124 L 156 124 L 156 116 L 164 116 Z"/>
    <path id="path8" fill="#ffffff" stroke="none" d="M 188 112 L 184 112 L 176 112 L 172 112 L 172 116 L 172 124 L 172 128 L 176 128 L 184 128 L 188 128 L 188 124 L 188 116 Z M 184 124 L 176 124 L 176 116 L 184 116 Z"/>
    <path id="path10" fill="#ffffff" stroke="none" d="M 208 80 L 204 80 L 199.529007 80 L 56.470993 80 L 52 80 L 48 80 L 48 84 L 48 88.399994 L 48 167.600006 L 48 172 L 48 176 L 52 176 L 56.470993 176 L 199.529007 176 L 204 176 L 208 176 L 208 172 L 208 167.600006 L 208 88.399994 L 208 84 Z M 204 84 L 204 88.399994 L 204 167.600006 L 204 172 L 199.529007 172 L 56.470993 172 L 52 172 L 52 167.600006 L 52 88.399994 L 52 84 L 56.470993 84 L 199.529007 84 Z"/>
</svg>
