<?xml version="1.0" encoding="UTF-8"?>
<!-- Generated by Pixelmator Pro 3.7.1 -->
<svg width="256" height="256" viewBox="0 0 256 256" xmlns="http://www.w3.org/2000/svg">
    <path id="Path" fill="#ffffff" stroke="none" d="M 123.049797 82.263702 L 122.624802 78.285706 C 124.692802 78.065704 126.810799 77.971695 128.889801 78.007706 L 128.820801 82.006699 C 126.902802 81.975693 124.953796 82.060699 123.049797 82.263702 M 138.362793 83.171707 C 136.496796 82.742706 134.580795 82.426697 132.665802 82.233704 L 133.066803 78.253693 C 135.148804 78.463699 137.231796 78.805695 139.258804 79.272705 Z M 113.6558 84.280701 L 112.409798 80.479706 C 114.389801 79.829697 116.434799 79.300705 118.485802 78.904694 L 119.242798 82.832703 C 117.356804 83.196701 115.476799 83.683701 113.6558 84.280701 M 147.4478 86.300705 C 145.705795 85.486694 143.897797 84.777695 142.071793 84.191696 L 143.2948 80.383698 C 145.278793 81.019699 147.246796 81.791702 149.1418 82.676697 Z M 104.895798 88.213699 L 102.883797 84.756699 C 104.687798 83.706696 106.573799 82.762695 108.491798 81.9487 L 110.053802 85.631699 C 108.290802 86.3797 106.554802 87.247696 104.895798 88.213699 M 155.685806 91.261703 C 154.151794 90.102707 152.528793 89.031693 150.865799 88.076706 L 152.858795 84.607697 C 154.665802 85.645706 156.427795 86.809692 158.095795 88.068695 Z M 97.138802 93.888702 L 94.453796 90.923706 C 95.999802 89.523697 97.650803 88.206696 99.358803 87.010696 L 101.652802 90.287704 C 100.079803 91.388702 98.561798 92.599701 97.138802 93.888702 M 162.715805 97.819702 C 161.454803 96.370697 160.089798 94.986694 158.659805 93.707703 L 161.327805 90.7267 C 162.880798 92.116699 164.362793 93.619705 165.733795 95.193695 Z M 90.718796 101.047699 L 87.479797 98.700699 C 88.701797 97.013702 90.0448 95.384705 91.471802 93.858704 L 94.393799 96.589706 C 93.079803 97.994705 91.843803 99.494705 90.718796 101.047699 M 168.236801 105.687698 C 167.303802 104.010696 166.255798 102.375702 165.120804 100.827698 L 168.347794 98.463699 C 169.579803 100.144699 170.718796 101.921707 171.732803 103.743698 Z M 85.923798 109.380707 L 82.2668 107.759705 C 83.111801 105.853699 84.087799 103.979706 85.167801 102.190704 L 88.591797 104.258698 C 87.598801 105.903702 86.700798 107.627701 85.923798 109.380707 M 171.995804 114.528702 C 171.433792 112.692703 170.749802 110.874695 169.962799 109.125702 L 173.609802 107.483704 C 174.465805 109.385696 175.209793 111.361694 175.820801 113.358704 Z M 82.9748 118.531708 L 79.059799 117.713699 C 79.487801 115.666702 80.049797 113.6297 80.732796 111.6577 L 84.512802 112.964706 C 83.885796 114.777695 83.368797 116.650696 82.9748 118.531708 M 173.824799 123.9617 C 173.658798 122.048706 173.369797 120.127701 172.965805 118.252701 L 176.875793 117.409698 C 177.315796 119.4487 177.628799 121.535706 177.809799 123.615707 Z M 77.999802 128.098694 L 77.999802 127.999695 C 77.999802 125.943695 78.126801 123.871704 78.374802 121.842697 L 82.345802 122.329697 C 82.115799 124.197693 81.999802 126.105698 81.999802 127.999695 Z M 177.611801 134.259705 L 173.642792 133.763702 C 173.879807 131.865692 173.999802 129.92569 173.999802 127.999695 L 173.999802 127.801697 L 177.999802 127.801697 L 177.999802 127.999695 C 177.999802 130.091705 177.868805 132.197693 177.611801 134.259705 M 79.102798 138.490692 C 78.667801 136.454712 78.357796 134.366699 78.180801 132.2827 L 82.166801 131.944702 C 82.329796 133.861694 82.614799 135.783691 83.014801 137.654694 Z M 175.233795 144.440704 L 171.455795 143.125702 C 172.087799 141.310699 172.608795 139.43869 173.004807 137.561707 L 176.918793 138.387695 C 176.487793 140.429703 175.920792 142.465698 175.233795 144.440704 M 82.347801 148.422699 C 81.493797 146.5177 80.753799 144.538696 80.148796 142.543701 L 83.9758 141.381699 C 84.532799 143.216705 85.212799 145.035706 85.997803 146.787704 Z M 170.778793 153.897705 L 167.358795 151.821701 C 168.353806 150.182709 169.254807 148.4617 170.037796 146.705704 L 173.690796 148.334702 C 172.839798 150.243713 171.859802 152.115692 170.778793 153.897705 M 87.591797 157.454712 C 86.360802 155.768707 85.2258 153.9897 84.216797 152.16571 L 87.717796 150.230713 C 88.644798 151.9077 89.689796 153.544708 90.8228 155.095703 Z M 164.456802 162.217712 L 161.540802 159.479706 C 162.859802 158.075699 164.098801 156.577698 165.224792 155.030701 L 168.458801 157.381699 C 167.236801 159.064697 165.889801 160.691711 164.456802 162.217712 M 94.594803 165.204712 C 93.0448 163.811707 91.564796 162.305695 90.1978 160.728699 L 93.220802 158.109711 C 94.478798 159.560699 95.840797 160.947693 97.267799 162.228699 Z M 156.5578 169.047699 L 154.270798 165.766693 C 155.844803 164.668701 157.364792 163.460693 158.791794 162.174713 L 161.469803 165.145706 C 159.920792 166.541702 158.268799 167.855713 156.5578 169.047699 M 103.051804 171.340698 C 101.246803 170.299713 99.487801 169.131699 97.8218 167.868713 L 100.2388 164.681702 C 101.770798 165.843704 103.389801 166.917694 105.049797 167.875702 Z M 147.411804 174.090698 L 145.859802 170.405701 C 147.625793 169.659698 149.362793 168.794708 151.021805 167.83371 L 153.027802 171.294708 C 151.223801 172.340698 149.333801 173.281708 147.411804 174.090698 M 112.606804 175.584702 C 110.617798 174.942703 108.652802 174.16571 106.763802 173.278702 L 108.465797 169.659698 C 110.200798 170.474701 112.007797 171.187714 113.8368 171.778702 Z M 137.411804 177.115692 L 136.663803 173.185699 C 138.545807 172.827698 140.426804 172.344696 142.253799 171.749695 L 143.491806 175.552704 C 141.504807 176.200699 139.458801 176.725708 137.411804 177.115692 M 122.830803 177.735703 C 120.751801 177.521698 118.6698 177.173706 116.6408 176.702698 L 117.545799 172.806702 C 119.411797 173.240692 121.327797 173.559692 123.239799 173.756699 Z M 128.026794 177.999695 C 127.687798 178.003693 127.342804 177.996704 127.001801 177.990692 L 127.087799 173.990692 C 127.400803 173.996704 127.706802 173.996704 128.025803 173.999695 C 129.634796 173.999695 131.258804 173.914703 132.855804 173.746704 L 133.273804 177.725708 C 131.537796 177.9077 129.773804 177.999695 128.026794 177.999695"/>
    <path id="path1" fill="#ffffff" stroke="none" d="M 150.304703 126.000504 C 150.099701 121.377502 149.271698 116.763504 147.809708 112.302505 C 151.123703 110.964493 154.331696 109.279495 157.380707 107.246506 C 161.196701 112.612503 163.591705 119.052505 163.999695 126.000504 Z M 157.402695 148.769501 C 154.380707 146.75351 151.202698 145.078491 147.921707 143.7435 C 149.353699 139.264496 150.150696 134.635498 150.319702 130.000504 L 163.999695 130.000504 C 163.593704 136.967499 161.208694 143.407501 157.402695 148.769501 M 136.6427 162.986511 C 137.202698 162.382507 137.749695 161.767502 138.280701 161.139496 C 141.766693 157.011505 144.487701 152.487503 146.455704 147.744507 C 149.313705 148.916504 152.083694 150.369507 154.7267 152.104492 C 149.980698 157.359497 143.718704 161.217499 136.6427 162.986511 M 129.999695 163.498505 L 129.999695 144.130493 C 134.202698 144.314499 138.387695 145.036499 142.444702 146.2995 C 140.646698 150.581497 138.178696 154.662506 135.028702 158.392502 C 133.4897 160.213501 131.800705 161.928497 129.999695 163.498505 M 127.999702 130.000504 C 126.895699 130.000504 125.999702 129.104492 125.999702 128.000504 C 125.999702 126.895493 126.895699 126.000504 127.999702 126.000504 C 129.104706 126.000504 129.999695 126.895493 129.999695 128.000504 C 129.999695 129.104492 129.104706 130.000504 127.999702 130.000504 M 125.999702 139.870499 C 121.299698 140.057495 116.617699 140.867493 112.0867 142.298492 C 110.817703 138.287506 110.105698 134.149506 109.938698 130.000504 L 125.999702 130.000504 Z M 125.999702 163.498505 C 124.199699 161.928497 122.510696 160.213501 120.971703 158.392502 C 117.821701 154.662506 115.353699 150.581497 113.555702 146.2995 C 117.612701 145.036499 121.7967 144.314499 125.999702 144.130493 Z M 101.272697 152.104492 C 103.916702 150.369507 106.686699 148.916504 109.543701 147.744507 C 111.512703 152.487503 114.233704 157.011505 117.719704 161.139496 C 118.249702 161.767502 118.7967 162.382507 119.357697 162.986511 C 112.2817 161.217499 106.019699 157.359497 101.272697 152.104492 M 98.597702 148.769501 C 94.790703 143.407501 92.4067 136.967499 91.999702 130.000504 L 105.680702 130.000504 C 105.849701 134.635498 106.645699 139.264496 108.078697 143.7435 C 104.7967 145.078491 101.618698 146.75351 98.597702 148.769501 M 98.596703 107.231506 C 101.6567 109.273499 104.876701 110.9655 108.202698 112.308502 C 106.750702 116.746506 105.911697 121.358505 105.699699 126.000504 L 91.999702 126.000504 C 92.405701 119.041504 94.788704 112.597504 98.596703 107.231506 M 119.833702 92.897507 C 115.446701 97.479507 112.057701 102.718506 109.694702 108.318497 C 106.783699 107.136505 103.9627 105.662506 101.271698 103.8965 C 106.120705 98.527496 112.555702 94.611496 119.833702 92.897507 M 125.999702 116.130493 L 125.999702 126.000504 L 109.959702 126.000504 C 110.167702 121.844498 110.9217 117.718506 112.2127 113.742493 C 116.704704 115.148499 121.343697 115.945496 125.999702 116.130493 M 125.999702 92.894501 L 125.999702 111.870499 C 121.849701 111.689499 117.720703 110.983505 113.7127 109.750504 C 116.4077 103.459503 120.516701 97.670502 125.999702 92.894501 M 146.060699 130.000504 C 145.894699 134.149506 145.182693 138.287506 143.912704 142.298492 C 139.381699 140.867493 134.700699 140.057495 129.999695 139.870499 L 129.999695 130.000504 Z M 129.999695 116.130493 C 134.660706 115.944504 139.304703 115.1465 143.799698 113.738495 C 145.099701 117.735504 145.843704 121.860504 146.044693 126.000504 L 129.999695 126.000504 Z M 129.999695 92.894501 C 131.801697 94.464508 133.490707 96.179504 135.028702 98.000504 C 138.093704 101.629501 140.512695 105.592499 142.296707 109.747498 C 138.286697 110.981506 134.152695 111.688507 129.999695 111.869507 Z M 154.703705 103.912506 C 152.023697 105.668503 149.213699 107.136505 146.314697 108.314499 C 144.358704 103.691498 141.686707 99.285507 138.281708 95.253494 C 137.602707 94.451508 136.898697 93.667496 136.169693 92.904495 C 143.422699 94.624496 149.8517 98.543503 154.703705 103.912506 M 165.999695 128.000504 C 165.999695 126.912506 166.869705 126.031494 167.950699 126.004501 C 166.944702 105.503494 150.500702 89.060501 129.999695 88.050507 L 129.999695 88.000504 C 129.999695 89.104507 129.104706 90.000504 127.999702 90.000504 C 126.895699 90.000504 125.999702 89.104507 125.999702 88.000504 L 125.999702 88.050507 C 105.498703 89.060501 89.055702 105.503494 88.048698 126.004501 C 89.130699 126.031494 89.999702 126.912506 89.999702 128.000504 C 89.999702 129.087494 89.130699 129.968506 88.048698 129.995499 C 89.055702 150.497498 105.498703 166.939499 125.999702 167.949493 L 125.999702 168.000504 C 125.999702 166.895508 126.895699 166.000504 127.999702 166.000504 C 129.104706 166.000504 129.999695 166.895508 129.999695 168.000504 L 129.999695 167.949493 C 150.500702 166.939499 166.944702 150.497498 167.950699 129.995499 C 166.869705 129.968506 165.999695 129.087494 165.999695 128.000504"/>
</svg>
