<?xml version="1.0" encoding="UTF-8"?>
<!-- Generated by Pixelmator Pro 3.7.1 -->
<svg width="256" height="256" viewBox="0 0 256 256" xmlns="http://www.w3.org/2000/svg">
    <path id="Path" fill="#ffffff" stroke="none" d="M 104 128 L 96 128 L 96 104 L 104 104 Z M 96 100 L 92 100 L 92 104 L 92 128 L 92 132 L 96 132 L 104 132 L 108 132 L 108 128 L 108 104 L 108 100 L 104 100 Z"/>
    <path id="path1" fill="#ffffff" stroke="none" d="M 168 136 L 168 152 L 160 152 L 160 168 L 152 168 L 152 176 L 136 176 L 136 184 L 104 184 L 104 176 L 88 176 L 88 168 L 80 168 L 80 152 L 72 152 L 72 104 L 80 104 L 80 88 L 88 88 L 88 80 L 104 80 L 104 72 L 128 72 L 128 80 L 128 88 L 128 96 L 128 104 L 128 112 L 128 120 L 136 120 L 136 128 L 160 128 L 160 136 Z M 152 116 L 160 116 L 164 116 L 164 120 L 164 124 L 160 124 L 140 124 L 140 120 L 140 116 L 136 116 L 132 116 L 132 112 L 132 104 L 132 96 L 132 88 L 132 84 L 144 84 L 144 108 L 144 112 L 148 112 L 148 116 Z M 64 96 L 72 96 L 72 80 L 80 80 L 80 72 L 97.269997 72 L 97.269997 64 L 160 64 L 160 72 L 164 72 L 164 76 L 160 76 L 156 76 L 156 80 L 156 84 L 152 84 L 148 84 L 148 80 L 132 80 L 132 72 L 132 68 L 128 68 L 104 68 L 100 68 L 100 72 L 100 76 L 88 76 L 84 76 L 84 80 L 84 84 L 80 84 L 76 84 L 76 88 L 76 100 L 72 100 L 68 100 L 68 104 L 68 152 L 68 156 L 72 156 L 76 156 L 76 168 L 76 172 L 80 172 L 84 172 L 84 176 L 84 180 L 88 180 L 100 180 L 100 184 L 100 188 L 104 188 L 136 188 L 140 188 L 140 184 L 140 180 L 152 180 L 156 180 L 156 176 L 156 172 L 160 172 L 164 172 L 164 168 L 164 156 L 168 156 L 172 156 L 172 152 L 172 136 L 172 132 L 168 132 L 164 132 L 164 128 L 168 128 L 168 120 L 176 120 L 176 104 L 176 100 L 172 100 L 172 104 L 168 104 L 168 112 L 160 112 L 152 112 L 152 108 L 148 108 L 148 88 L 152 88 L 160 88 L 160 80 L 168 80 L 176 80 L 176 88 L 168 88 L 168 96 L 160 96 L 160 104 L 152 104 L 152 108 L 160 108 L 164 108 L 164 104 L 164 100 L 168 100 L 172 100 L 172 96 L 172 92 L 176 92 L 180 92 L 184 92 L 184 96 L 192 96 L 192 160 L 192 168 L 184 168 L 184 176 L 176 176 L 176 184 L 160 184 L 160 192 L 96 192 L 96 184 L 80 184 L 80 176 L 72 176 L 72 168 L 72 160 L 64 160 Z M 168 64 L 176 64 L 176 72 L 172 72 L 168 72 L 168 68 Z M 183.737 64 L 191.737 64 L 191.737 72 L 183.737 72 Z M 184 84 L 184 80 L 192 80 L 192 88 L 188 88 L 184 88 Z M 68 164 L 68 168 L 68 176 L 68 180 L 72 180 L 76 180 L 76 184 L 76 188 L 80 188 L 92 188 L 92 192 L 92 196 L 96 196 L 160 196 L 164 196 L 164 192 L 164 188 L 176 188 L 180 188 L 180 184 L 180 180 L 184 180 L 188 180 L 188 176 L 188 172 L 192 172 L 196 172 L 196 168 L 196 160 L 196 96 L 196 92 L 196 88 L 196 80 L 196 76 L 195.737 76 L 195.737 72 L 195.737 64 L 195.737 60 L 191.737 60 L 183.737 60 L 180 60 L 179.737 60 L 176 60 L 168 60 L 164 60 L 160 60 L 97.269997 60 L 93.269997 60 L 93.269997 64 L 93.269997 68 L 80 68 L 76 68 L 76 72 L 76 76 L 72 76 L 68 76 L 68 80 L 68 92 L 64 92 L 60 92 L 60 96 L 60 160 L 60 164 L 64 164 Z"/>
</svg>
