<?xml version="1.0" encoding="UTF-8"?>
<!-- Generated by Pixelmator Pro 3.7.1 -->
<svg width="256" height="256" viewBox="0 0 256 256" xmlns="http://www.w3.org/2000/svg">
    <path id="Path" fill="#ffffff" stroke="none" d="M 191.982407 56 L 187.454407 56.602997 C 187.256393 56.628998 187.090393 56.647995 186.945404 56.664993 C 186.576401 56.707001 186.195404 56.75 185.755402 56.852005 L 168.545395 60.820007 C 150.311401 65.026001 131.458405 69.376007 112.905396 73.606995 C 109.393402 74.408005 107.589401 76.716003 107.544395 80.466995 C 107.380402 94.152008 107.179398 108.069 106.985397 121.527008 C 106.878403 128.980011 106.770401 136.432999 106.668396 143.886002 C 106.643402 145.761002 106.639397 147.627991 106.643402 149.544998 C 103.226402 148.132004 99.556396 147.393997 95.877396 147.393997 C 83.399399 147.393997 72.279396 155.699005 68.835396 167.59201 C 67.144402 173.431 68.046402 179.492004 71.310402 184.223999 C 74.581398 188.964005 79.944397 191.966003 86.025398 192.459 C 86.914398 192.531006 87.812401 192.567993 88.694397 192.567993 C 106.060402 192.567993 119.851402 178.554001 120.0924 160.662994 C 120.419395 136.412994 120.613396 116.333008 120.7024 97.472 C 120.7024 97.447998 120.7034 97.425995 120.7034 97.403992 L 120.7164 97.401001 C 132.689407 94.811996 144.838394 92.104004 156.588394 89.484009 C 161.278397 88.438004 165.967407 87.393005 170.659393 86.352005 C 173.200394 85.787994 175.7444 85.237 178.218399 84.703995 L 178.218399 133.13501 C 174.952393 131.971008 171.537399 131.382004 168.033401 131.382004 C 155.500397 131.382004 144.326401 138.769989 139.566406 150.201996 C 137.333405 155.565002 137.643402 161.507996 140.419403 166.505005 C 143.056396 171.251007 147.630402 174.475998 152.971405 175.350006 C 155.344406 175.737 157.752396 175.934998 160.128403 175.934998 C 162.904404 175.934998 165.572403 175.665009 168.059402 175.134003 C 183.702408 171.791 192.151398 161.507004 191.848404 146.175995 C 191.562393 131.686996 191.700394 116.916992 191.834396 102.634003 C 191.893402 96.235992 191.955399 89.619995 191.978394 83.108002 C 191.996399 78.035995 191.991394 73.063995 191.987396 67.798996 C 191.984406 65.414001 191.982407 63.007004 191.982407 60.567993 Z M 187.982407 60.567993 C 187.982407 68.289001 188.004395 75.690994 187.978394 83.093994 C 187.903397 104.147995 187.433395 125.209991 187.848404 146.255005 C 188.149399 161.458008 178.892395 168.729004 167.223404 171.222 C 164.941406 171.709991 162.5354 171.934998 160.128403 171.934998 C 157.929398 171.934998 155.729401 171.747009 153.618408 171.401001 C 144.571396 169.92099 139.725403 160.225998 143.258408 151.738998 C 147.503403 141.546997 157.565399 135.382004 168.033401 135.382004 C 171.669403 135.382004 175.350403 136.123993 178.857407 137.699997 C 179.764404 138.106995 180.669403 138.524002 182.218399 139.231003 L 182.218399 79.748993 C 178.292404 80.600998 174.038406 81.503998 169.792404 82.447006 C 153.154404 86.139008 136.528397 89.889008 119.871399 93.490997 C 117.459396 94.013 116.714401 94.936005 116.7024 97.453003 C 116.603401 118.505005 116.377396 139.55899 116.093399 160.609009 C 115.878403 176.55899 103.815399 188.567993 88.694397 188.567993 C 87.920403 188.567993 87.138397 188.535995 86.349396 188.473007 C 76.126396 187.643005 69.829399 178.537994 72.677399 168.70401 C 75.774399 158.011002 85.561401 151.393997 95.877396 151.393997 C 99.775398 151.393997 103.748398 152.337997 107.465401 154.363998 C 108.323402 154.832001 109.177399 155.30899 110.6604 156.127991 C 110.6604 151.73999 110.614403 147.838989 110.668396 143.940002 C 110.958397 122.798004 111.290398 101.656998 111.544395 80.514999 C 111.565399 78.798996 111.955399 77.925995 113.794395 77.507004 C 138.0914 71.966003 162.370407 66.345001 186.654404 60.748993 C 186.9944 60.671005 187.347397 60.651993 187.982407 60.567993"/>
</svg>
