<?xml version="1.0" encoding="UTF-8"?>
<!-- Generated by Pixelmator Pro 3.7.1 -->
<svg width="256" height="256" viewBox="0 0 256 256" xmlns="http://www.w3.org/2000/svg">
    <path id="Path" fill="#ffffff" stroke="none" d="M 126 16 C 113.869003 16 104 25.869003 104 38 C 104 50.130997 113.869003 60 126 60 C 138.130997 60 148 50.130997 148 38 C 148 25.869003 138.130997 16 126 16 M 126 20 C 135.940994 20 144 28.059006 144 38 C 144 47.940994 135.940994 56 126 56 C 116.058998 56 108 47.940994 108 38 C 108 28.059006 116.058998 20 126 20"/>
    <path id="path1" fill="#ffffff" stroke="none" d="M 64 60 L 60 60 L 24 60 L 20 60 L 20 64 L 20 100 L 20 104 L 24 104 L 60 104 L 64 104 L 64 100 L 64 64 Z M 60 100 L 24 100 L 24 64 L 60 64 Z"/>
    <path id="path2" fill="#ffffff" stroke="none" d="M 152 196 L 148 196 L 112 196 L 108 196 L 108 200 L 108 236 L 108 240 L 112 240 L 148 240 L 152 240 L 152 236 L 152 200 Z M 148 236 L 112 236 L 112 200 L 148 200 Z"/>
    <path id="path3" fill="#ffffff" stroke="none" d="M 236 60 L 232 60 L 196 60 L 192 60 L 192 64 L 192 100 L 192 104 L 196 104 L 232 104 L 236 104 L 236 100 L 236 64 Z M 232 100 L 196 100 L 196 64 L 232 64 Z"/>
    <path id="path4" fill="#ffffff" stroke="none" d="M 42 152 C 29.868999 152 20 161.869003 20 174 C 20 186.130997 29.868999 196 42 196 C 54.131001 196 64 186.130997 64 174 C 64 161.869003 54.131001 152 42 152 M 42 156 C 51.941002 156 60 164.05899 60 174 C 60 183.94101 51.941002 192 42 192 C 32.058998 192 24 183.94101 24 174 C 24 164.05899 32.058998 156 42 156"/>
    <path id="path5" fill="#ffffff" stroke="none" d="M 214 152 C 201.869003 152 192 161.869003 192 174 C 192 186.130997 201.869003 196 214 196 C 226.130997 196 236 186.130997 236 174 C 236 161.869003 226.130997 152 214 152 M 214 156 C 223.940994 156 232 164.05899 232 174 C 232 183.94101 223.940994 192 214 192 C 204.059006 192 196 183.94101 196 174 C 196 164.05899 204.059006 156 214 156"/>
    <path id="path6" fill="#ffffff" stroke="none" d="M 128 80.686005 L 125.170998 83.514999 L 122.343002 86.343002 L 86.343002 122.343002 L 83.514999 125.171005 L 80.686005 128 L 83.514999 130.828003 L 86.343002 133.656998 L 122.343002 169.656998 L 125.170998 172.485001 L 128 175.312988 L 130.828003 172.485001 L 133.656998 169.656998 L 169.656998 133.656998 L 172.485001 130.828003 L 175.313004 128 L 172.485001 125.171005 L 169.656998 122.343002 L 133.656998 86.343002 L 130.828003 83.514999 Z M 128 86.343002 L 130.828003 89.171005 L 166.828003 125.171005 L 169.656998 128 L 166.828003 130.828003 L 130.828003 166.828003 L 128 169.656998 L 125.170998 166.828003 L 89.171005 130.828003 L 86.343002 128 L 89.171005 125.171005 L 125.170998 89.171005 Z"/>
</svg>
