<?xml version="1.0" encoding="UTF-8"?>
<!-- Generated by Pixelmator Pro 3.7.1 -->
<svg width="256" height="256" viewBox="0 0 256 256" xmlns="http://www.w3.org/2000/svg">
    <path id="path1" fill="#ffffff" stroke="none" d="M 63.047901 121.426804 C 68.808899 127.929794 87.461899 134.983795 101.133896 136.058807 L 105.340897 179.905792 C 105.457901 182.326813 107.3909 184.1828 109.849899 184.1828 C 112.277901 184.1828 114.2659 182.24881 114.358902 179.828796 L 117.2509 132.686798 L 117.2509 123.243805 C 117.2509 120.536804 115.2089 118.426804 112.617897 118.426804 C 99.123901 118.348801 87.685898 117.118805 79.565903 114.845795 C 75.490898 113.708801 73.077896 112.556793 71.724899 111.736801 C 73.255898 110.893799 76.371902 109.563797 82.5979 107.854797 C 84.762901 107.5298 86.440903 105.657806 86.440903 103.400803 C 86.440903 100.917801 84.074898 98.8918 81.576897 98.8918 C 81.382896 98.929794 76.425903 99.896805 71.747902 101.435806 C 66.372902 103.198807 60.193901 105.859802 60.193901 110.847794 C 60.2019 111.512802 60.402901 117.621796 63.047901 121.426804 M 192.9599 121.387802 C 195.596893 117.551804 195.797897 111.458801 195.797897 110.785797 C 195.797897 105.789795 189.626907 103.129807 184.243896 101.373795 C 179.558899 99.842804 174.608902 98.876801 174.407898 98.837799 C 171.878906 98.837799 169.5439 100.809799 169.5439 103.345795 C 169.5439 105.611801 171.213898 107.4758 173.386902 107.8078 C 179.627899 109.524796 182.743896 110.854797 184.275894 111.690796 C 180.779907 113.816803 170.246902 118.2798 143.350906 118.371796 C 140.443909 118.371796 138.702896 120.8228 138.702896 123.1978 L 138.702896 132.639801 L 141.594894 179.7668 C 141.672897 182.218811 143.620895 184.120804 146.103897 184.120804 C 148.508896 184.120804 150.4879 182.233795 150.611908 179.851807 L 154.818909 136.01181 C 168.514908 134.990799 187.191895 127.922806 192.9599 121.387802 M 127.999901 65.313797 C 125.571899 65.313797 123.599899 67.231796 123.491898 69.636795 L 118.943901 131.239807 L 123.491898 186.38681 C 123.599899 188.814804 125.532898 190.694794 127.999901 190.694794 C 130.412903 190.694794 132.392899 188.783813 132.508896 186.402802 L 137.055908 131.255798 L 132.508896 69.651794 C 132.400894 67.231796 130.428894 65.313797 127.999901 65.313797 M 81.932899 102.518799 C 82.426903 102.518799 82.813904 102.889801 82.813904 103.400803 C 82.813904 103.894806 82.442902 104.281799 81.932899 104.281799 C 65.614899 108.712799 66.937897 111.481796 67.022903 112.2388 C 67.215897 113.785797 76.387901 121.867798 112.610901 122.045807 C 113.615898 122.045807 113.615898 123.243805 113.615898 123.243805 L 113.615898 132.577789 L 110.7239 179.681793 C 110.7239 180.153809 110.352898 180.563812 109.841896 180.563812 C 109.339897 180.563812 108.960899 180.19281 108.960899 179.681793 L 104.428902 132.577789 C 91.5989 132.508789 71.321899 125.308807 65.893898 119.176804 C 63.8139 116.191803 63.8139 110.847794 63.8139 110.847794 C 63.828899 106.036804 81.932899 102.518799 81.932899 102.518799 M 174.067902 102.448807 C 174.067902 102.448807 192.178894 105.967804 192.178894 110.777802 C 192.178894 110.777802 192.178894 116.121796 190.106903 119.137802 C 184.669907 125.301804 164.393906 132.500793 151.531906 132.500793 L 147.0009 179.596802 C 147.0009 180.068802 146.629898 180.47879 146.118896 180.47879 C 145.608902 180.47879 145.236908 180.107803 145.236908 179.596802 L 142.345901 132.500793 L 142.345901 123.158798 C 142.345901 123.158798 142.345901 121.9608 143.381897 121.9608 C 179.604904 121.836807 188.752899 113.723801 188.969894 112.185806 C 189.093903 111.396805 190.376907 108.627808 174.059906 104.196808 C 173.564896 104.196808 173.185898 103.825806 173.185898 103.315796 C 173.193909 102.8358 173.564896 102.448807 174.067902 102.448807 M 127.999901 68.9328 C 128.471909 68.9328 128.881897 69.303802 128.881897 69.814804 L 133.412903 131.216797 L 128.881897 186.1698 C 128.881897 186.6418 128.509903 187.051804 127.999901 187.051804 C 127.504898 187.051804 127.117897 186.680801 127.117897 186.1698 L 122.586899 131.224792 L 127.117897 69.8228 C 127.117897 69.342804 127.504898 68.9328 127.999901 68.9328"/>
</svg>
