<?xml version="1.0" encoding="UTF-8"?>
<!-- Generated by Pixelmator Pro 3.7.1 -->
<svg width="256" height="256" viewBox="0 0 256 256" xmlns="http://www.w3.org/2000/svg">
    <path id="Path" fill="#ffffff" stroke="none" d="M 131.335007 48 C 127.291 48 124 51.253998 124 55.253998 L 124 61.709 C 88.064003 63.744003 60 92.755997 60 128 C 60 144.436005 66.198997 160.208008 77.455002 172.408997 C 78.811005 173.880005 80.753998 174.722992 82.785004 174.722992 C 84.736 174.722992 86.577003 173.97699 87.966003 172.622009 L 94.537003 166.214996 C 97.344002 163.477997 97.516998 159.089996 94.931 156.225006 C 87.882004 148.417999 84 138.393997 84 128 C 84 117.15799 88.177002 106.813004 95.763 98.873993 C 103.190002 91.098999 113.196999 86.319 124 85.372009 L 124 91.540009 C 124 95.540009 127.291 98.792999 131.335007 98.792999 C 132.462997 98.792999 133.554001 98.541 134.576996 98.041992 L 171.790009 79.899002 C 174.313004 78.669006 175.880005 76.177994 175.880005 73.397003 C 175.880005 70.615997 174.313004 68.123993 171.790009 66.893997 L 134.576996 48.751999 C 133.552994 48.253006 132.462997 48 131.335007 48 M 131.335007 52 C 131.828995 52 132.335999 52.108994 132.824005 52.347 L 170.037003 70.490005 C 172.494003 71.686996 172.494003 75.106003 170.037003 76.304001 L 132.824005 94.445999 C 132.335999 94.684998 131.828995 94.792999 131.335007 94.792999 C 129.585999 94.792999 128 93.423004 128 91.540009 L 128 84.576996 C 128 82.740005 126.447998 81.321991 124.596001 81.321991 C 124.506996 81.321991 124.417 81.326004 124.327003 81.333008 C 99.544998 83.162994 80 103.354996 80 128 C 80 139.841003 84.517998 150.660004 91.961998 158.904999 C 93.118004 160.186005 92.981003 162.145996 91.745003 163.35199 L 85.173004 169.759003 C 84.516998 170.39801 83.647003 170.722992 82.785004 170.722992 C 81.903 170.722992 81.028999 170.38501 80.395004 169.696991 C 70.204002 158.649002 64 144.029999 64 128 C 64 94.583008 90.936005 67.320007 124.760002 65.675003 C 126.560997 65.587006 128 64.197006 128 62.438004 L 128 55.253998 C 128 53.369995 129.585999 52 131.335007 52"/>
    <path id="path1" fill="#ffffff" stroke="none" d="M 173.214798 81.276901 C 171.263794 81.276901 169.423798 82.022903 168.033798 83.377899 L 161.462799 89.784897 C 158.6548 92.521896 158.482803 96.909897 161.068802 99.774902 C 168.117798 107.582901 171.999802 117.606903 171.999802 127.999893 C 171.999802 138.842896 167.821793 149.186905 160.236801 157.1259 C 152.810806 164.901901 142.802795 169.6819 131.999802 170.627899 L 131.999802 164.460907 C 131.999802 160.460907 128.709793 157.206909 124.665802 157.205902 C 123.536797 157.205902 122.445801 157.458893 121.422798 157.957901 L 84.209801 176.100891 C 81.686798 177.330902 80.119797 179.821899 80.119797 182.603912 C 80.119797 185.384903 81.687798 187.8759 84.209801 189.105896 L 121.422798 207.247894 C 122.4468 207.746902 123.537804 207.999908 124.665802 207.999908 C 128.709793 207.999908 131.999802 204.745911 131.999802 200.745911 L 131.999802 194.289902 C 167.935806 192.256897 195.999802 163.243896 195.999802 127.999893 C 195.999802 111.563904 189.800797 95.792892 178.5448 83.589905 C 177.188797 82.119904 175.245804 81.276901 173.214798 81.276901 M 173.214798 85.276901 C 174.096802 85.276901 174.970795 85.615906 175.604797 86.302902 C 185.796799 97.350906 191.999802 111.969894 191.999802 127.999893 C 191.999802 161.417908 165.064804 188.679901 131.239807 190.32489 C 129.439804 190.411896 127.999802 191.802902 127.999802 193.561905 L 127.999802 200.745911 C 127.999802 202.629898 126.414803 203.999908 124.665802 203.999908 C 124.171799 203.999908 123.663803 203.8909 123.175797 203.651901 L 85.962799 185.509903 C 83.505798 184.312897 83.505798 180.89389 85.962799 179.695892 L 123.175797 161.553894 C 123.663803 161.315903 124.171799 161.205902 124.665802 161.205902 C 126.414803 161.205902 127.999802 162.576904 127.999802 164.460907 L 127.999802 171.422913 C 127.999802 173.259903 129.551804 174.677902 131.403793 174.677902 C 131.492798 174.677902 131.582794 174.673904 131.672806 174.667908 C 156.454803 172.837891 175.999802 152.644897 175.999802 127.999893 C 175.999802 116.158905 171.482803 105.339905 164.037796 97.093903 C 162.881805 95.814896 163.018799 93.854904 164.255798 92.648895 L 170.825806 86.241898 C 171.483795 85.601898 172.352798 85.276901 173.214798 85.276901"/>
</svg>
