<?xml version="1.0" encoding="UTF-8"?>
<!-- Generated by Pixelmator Pro 3.7.1 -->
<svg width="256" height="256" viewBox="0 0 256 256" xmlns="http://www.w3.org/2000/svg">
    <path id="path1" fill="#ffffff" stroke="none" d="M 164 200 L 160 196 L 156 192 L 155.755997 191.755997 C 166.634995 190.321991 174.322006 182.63501 175.755997 171.755997 L 176 172 L 180 176 L 184 180 C 184 192 176 200 164 200 M 152 188 L 148 184 C 160 184 168 176 168 164 L 172 168 C 172 180 164 188 152 188 M 160 156 L 164 160 C 164 172 156 180 144 180 L 140 176 C 152 176 160 168 160 156 M 124.765999 148.766998 L 146.785995 170.785995 C 144.783997 171.574005 142.509995 172 140 172 L 136 172 L 115.755997 151.755997 C 119.087997 151.31601 122.121002 150.291 124.765999 148.766998 M 132.766998 140.766998 C 134.291 138.121002 135.315994 135.087997 135.755997 131.755997 L 156 152 L 156 156 C 156 158.509995 155.574005 160.783997 154.785995 162.785995 Z M 152.738007 166.395996 C 152.054993 167.270996 151.270996 168.054993 150.395996 168.738007 L 128.076996 146.419998 C 128.917999 145.699997 129.699997 144.917999 130.419998 144.076996 Z M 112 136 L 112 130.343002 L 112 128 L 114.343002 128 L 120 128 C 120 132 116 136 112 136 M 124 128 L 132 128 C 132 131.697998 131.235001 135.011993 129.833008 137.833008 C 129.214005 139.078003 128.468002 140.225006 127.609001 141.265991 C 126.903 142.121002 126.121002 142.903 125.265999 143.608002 C 124.223999 144.468002 123.078995 145.214005 121.833 145.833008 C 119.012001 147.235001 115.697998 148 112 148 L 112 140 C 118.167999 140 124 134.167999 124 128 M 84 68 L 96 68 L 124 68 L 128 68 L 128 112 L 172 112 L 172 116 L 172 124 L 172 162.343002 L 170.828003 161.171997 L 168 158.343002 L 166.828003 157.171997 L 164 154.343002 L 162.828003 153.171997 L 156 146.343002 L 136 126.343002 L 133.656998 124 L 132 124 L 124 124 L 120 124 L 112 124 L 110.343002 124 L 108 124 L 108 126.343002 L 108 128 L 108 136 L 108 140 L 108 148 L 108 149.656998 L 110.343002 152 L 130.343002 172 L 137.171997 178.828003 L 138.343002 180 L 141.171997 182.828003 L 142.343002 184 L 145.171997 186.828003 L 146.343002 188 L 84 188 Z M 132 73.656998 L 166.343002 108 L 132 108 Z M 186.828003 177.171997 L 185.656998 176 L 178.828003 169.171997 L 176 166.343002 L 176 112 L 128 64 L 80 64 L 80 192 L 150.343002 192 L 153.171997 194.828003 L 160 201.656998 L 161.171997 202.828003 L 162.343002 204 L 164 204 C 178.130997 204 188 194.130997 188 180 L 188 178.343002 Z"/>
</svg>
