<?xml version="1.0" encoding="UTF-8"?>
<!-- Generated by Pixelmator Pro 3.7.1 -->
<svg width="256" height="256" viewBox="0 0 256 256" xmlns="http://www.w3.org/2000/svg">
    <path id="path1" fill="#ffffff" stroke="none" d="M 108 140 L 72 140 L 72 136 L 108 136 Z"/>
    <path id="path2" fill="#ffffff" stroke="none" d="M 72 144 L 64 144 L 64 140 L 72 140 Z"/>
    <path id="path3" fill="#ffffff" stroke="none" d="M 64 152 L 60 152 L 60 144 L 64 144 Z"/>
    <path id="path4" fill="#ffffff" stroke="none" d="M 60 160 L 56 160 L 56 152 L 60 152 Z"/>
    <path id="path5" fill="#ffffff" stroke="none" d="M 56 172 L 52 172 L 52 160 L 56 160 Z"/>
    <path id="path6" fill="#ffffff" stroke="none" d="M 52 172 L 48 172 L 48 184 L 52 184 Z"/>
    <path id="path7" fill="#ffffff" stroke="none" d="M 60 184 L 56 184 L 56 172 L 60 172 Z"/>
    <path id="path8" fill="#ffffff" stroke="none" d="M 56 188 L 52 188 L 52 184 L 56 184 Z"/>
    <path id="path9" fill="#ffffff" stroke="none" d="M 200 156 L 196 156 L 196 168 L 200 168 Z"/>
    <path id="path10" fill="#ffffff" stroke="none" d="M 208 168 L 204 168 L 204 156 L 208 156 Z"/>
    <path id="path11" fill="#ffffff" stroke="none" d="M 204 172 L 200 172 L 200 168 L 204 168 Z"/>
    <path id="path12" fill="#ffffff" stroke="none" d="M 48 172 L 44 172 L 44 92 L 48 92 Z"/>
    <path id="path13" fill="#ffffff" stroke="none" d="M 108 144 L 116 144 L 116 140 L 108 140 Z"/>
    <path id="path14" fill="#ffffff" stroke="none" d="M 212 156 L 208 156 L 208 88 L 212 88 Z"/>
    <path id="path15" fill="#ffffff" stroke="none" d="M 200 144 L 196 144 L 196 140 L 200 140 Z"/>
    <path id="path16" fill="#ffffff" stroke="none" d="M 196 140 L 192 140 L 192 136 L 196 136 Z"/>
    <path id="path17" fill="#ffffff" stroke="none" d="M 192 136 L 184 136 L 184 132 L 192 132 Z"/>
    <path id="path18" fill="#ffffff" stroke="none" d="M 184 132 L 164 132 L 164 128 L 184 128 Z"/>
    <path id="path19" fill="#ffffff" stroke="none" d="M 164 136 L 152 136 L 152 132 L 164 132 Z"/>
    <path id="path20" fill="#ffffff" stroke="none" d="M 152 140 L 148 140 L 148 136 L 152 136 Z"/>
    <path id="path21" fill="#ffffff" stroke="none" d="M 148 156 L 144 156 L 144 140 L 148 140 Z"/>
    <path id="path22" fill="#ffffff" stroke="none" d="M 144 164 L 140 164 L 140 156 L 144 156 Z"/>
    <path id="path23" fill="#ffffff" stroke="none" d="M 140 168 L 136 168 L 136 164 L 140 164 Z"/>
    <path id="path24" fill="#ffffff" stroke="none" d="M 136 172 L 132 172 L 132 168 L 136 168 Z"/>
    <path id="path25" fill="#ffffff" stroke="none" d="M 132 176 L 128 176 L 128 172 L 132 172 Z"/>
    <path id="path26" fill="#ffffff" stroke="none" d="M 128 180 L 120 180 L 120 176 L 128 176 Z"/>
    <path id="path27" fill="#ffffff" stroke="none" d="M 120 184 L 104 184 L 104 180 L 120 180 Z"/>
    <path id="path28" fill="#ffffff" stroke="none" d="M 104 200 L 100 200 L 100 184 L 104 184 Z"/>
    <path id="path29" fill="#ffffff" stroke="none" d="M 100 204 L 96 204 L 96 200 L 100 200 Z"/>
    <path id="path30" fill="#ffffff" stroke="none" d="M 96 200 L 92 200 L 92 192 L 96 192 Z"/>
    <path id="path31" fill="#ffffff" stroke="none" d="M 92 192 L 88 192 L 88 180 L 92 180 Z"/>
    <path id="path32" fill="#ffffff" stroke="none" d="M 96 180 L 92 180 L 92 176 L 96 176 Z"/>
    <path id="path33" fill="#ffffff" stroke="none" d="M 108 176 L 96 176 L 96 172 L 108 172 Z"/>
    <path id="path34" fill="#ffffff" stroke="none" d="M 112 172 L 108 172 L 108 168 L 112 168 Z"/>
    <path id="path35" fill="#ffffff" stroke="none" d="M 116 168 L 112 168 L 112 164 L 116 164 Z"/>
    <path id="path36" fill="#ffffff" stroke="none" d="M 120 164 L 116 164 L 116 160 L 120 160 Z"/>
    <path id="path37" fill="#ffffff" stroke="none" d="M 124 160 L 120 160 L 120 148 L 124 148 Z"/>
    <path id="path38" fill="#ffffff" stroke="none" d="M 120 148 L 116 148 L 116 144 L 120 144 Z"/>
    <path id="path39" fill="#ffffff" stroke="none" d="M 120 96 L 108 96 L 108 92 L 120 92 Z"/>
    <path id="path40" fill="#ffffff" stroke="none" d="M 156 96 L 140 96 L 140 92 L 156 92 Z"/>
    <path id="path41" fill="#ffffff" stroke="none" d="M 160 92 L 156 92 L 156 88 L 160 88 Z"/>
    <path id="path42" fill="#ffffff" stroke="none" d="M 164 88 L 160 88 L 160 80 L 164 80 Z"/>
    <path id="path43" fill="#ffffff" stroke="none" d="M 168 80 L 164 80 L 164 72 L 168 72 Z"/>
    <path id="path44" fill="#ffffff" stroke="none" d="M 164 72 L 160 72 L 160 68 L 164 68 Z"/>
    <path id="path45" fill="#ffffff" stroke="none" d="M 184 68 L 164 68 L 164 64 L 184 64 Z"/>
    <path id="path46" fill="#ffffff" stroke="none" d="M 184 72 L 192 72 L 192 68 L 184 68 Z"/>
    <path id="path47" fill="#ffffff" stroke="none" d="M 192 76 L 196 76 L 196 72 L 192 72 Z"/>
    <path id="path48" fill="#ffffff" stroke="none" d="M 196 80 L 200 80 L 200 76 L 196 76 Z"/>
    <path id="path49" fill="#ffffff" stroke="none" d="M 200 84 L 204 84 L 204 80 L 200 80 Z"/>
    <path id="path50" fill="#ffffff" stroke="none" d="M 204 88 L 208 88 L 208 84 L 204 84 Z"/>
    <path id="path51" fill="#ffffff" stroke="none" d="M 144 96 L 140 96 L 140 88 L 144 88 Z"/>
    <path id="path52" fill="#ffffff" stroke="none" d="M 140 88 L 136 88 L 136 80 L 140 80 Z"/>
    <path id="path53" fill="#ffffff" stroke="none" d="M 148 88 L 144 88 L 144 84 L 148 84 Z"/>
    <path id="path54" fill="#ffffff" stroke="none" d="M 152 84 L 148 84 L 148 68 L 152 68 Z"/>
    <path id="path55" fill="#ffffff" stroke="none" d="M 148 68 L 144 68 L 144 64 L 148 64 Z"/>
    <path id="path56" fill="#ffffff" stroke="none" d="M 140 68 L 136 68 L 136 64 L 140 64 Z"/>
    <path id="path57" fill="#ffffff" stroke="none" d="M 144 64 L 140 64 L 140 60 L 144 60 Z"/>
    <path id="path58" fill="#ffffff" stroke="none" d="M 136 64 L 132 64 L 132 60 L 136 60 Z"/>
    <path id="path59" fill="#ffffff" stroke="none" d="M 140 60 L 136 60 L 136 56 L 140 56 Z"/>
    <path id="path60" fill="#ffffff" stroke="none" d="M 132 72 L 128 72 L 128 68 L 132 68 Z"/>
    <path id="path61" fill="#ffffff" stroke="none" d="M 128 68 L 124 68 L 124 60 L 128 60 Z"/>
    <path id="path62" fill="#ffffff" stroke="none" d="M 132 60 L 128 60 L 128 56 L 132 56 Z"/>
    <path id="path63" fill="#ffffff" stroke="none" d="M 128 80 L 124 80 L 124 72 L 128 72 Z"/>
    <path id="path64" fill="#ffffff" stroke="none" d="M 124 72 L 120 72 L 120 68 L 124 68 Z"/>
    <path id="path65" fill="#ffffff" stroke="none" d="M 124 88 L 120 88 L 120 80 L 124 80 Z"/>
    <path id="path66" fill="#ffffff" stroke="none" d="M 120 92 L 116 92 L 116 88 L 120 88 Z"/>
    <path id="path67" fill="#ffffff" stroke="none" d="M 100 84 L 96 84 L 96 80 L 100 80 Z"/>
    <path id="path68" fill="#ffffff" stroke="none" d="M 100 88 L 104 88 L 104 84 L 100 84 Z"/>
    <path id="path69" fill="#ffffff" stroke="none" d="M 104 92 L 108 92 L 108 88 L 104 88 Z"/>
    <path id="path70" fill="#ffffff" stroke="none" d="M 96 80 L 92 80 L 92 72 L 96 72 Z"/>
    <path id="path71" fill="#ffffff" stroke="none" d="M 96 76 L 100 76 L 100 72 L 96 72 Z"/>
    <path id="path72" fill="#ffffff" stroke="none" d="M 104 72 L 100 72 L 100 68 L 104 68 Z"/>
    <path id="path73" fill="#ffffff" stroke="none" d="M 100 68 L 80 68 L 80 64 L 100 64 Z"/>
    <path id="path74" fill="#ffffff" stroke="none" d="M 80 72 L 72 72 L 72 68 L 80 68 Z"/>
    <path id="path75" fill="#ffffff" stroke="none" d="M 72 76 L 64 76 L 64 72 L 72 72 Z"/>
    <path id="path76" fill="#ffffff" stroke="none" d="M 64 80 L 60 80 L 60 76 L 64 76 Z"/>
    <path id="path77" fill="#ffffff" stroke="none" d="M 60 84 L 56 84 L 56 80 L 60 80 Z"/>
    <path id="path78" fill="#ffffff" stroke="none" d="M 56 88 L 52 88 L 52 84 L 56 84 Z"/>
    <path id="path79" fill="#ffffff" stroke="none" d="M 52 92 L 48 92 L 48 88 L 52 88 Z"/>
    <path id="path80" fill="#ffffff" stroke="none" d="M 204 156 L 200 156 L 200 144 L 204 144 Z"/>
</svg>
