<?xml version="1.0" encoding="UTF-8"?>
<!-- Generated by Pixelmator Pro 3.7.1 -->
<svg width="256" height="256" viewBox="0 0 256 256" xmlns="http://www.w3.org/2000/svg">
    <path id="Path" fill="#ffffff" stroke="none" d="M 99.209 76 C 91.221001 76 84.585999 82.296997 84.054001 90.356995 C 84.017998 90.692993 84 91.033005 84 91.371002 L 84 164.613007 C 84 173.097992 90.822998 180 99.209 180 C 101.644997 180 103.986 179.428009 106.167 178.299011 C 106.530998 178.108002 163.897003 144.723999 168.425003 141.662003 C 173.169006 138.449005 176 133.343002 176 128 C 176 122.653992 173.162003 117.541992 168.408997 114.328003 C 164.042999 111.367996 106.568001 77.914001 106.206001 77.723999 C 104.037003 76.593994 101.621002 76 99.209 76 M 99.209 80 C 100.980003 80 102.751999 80.436005 104.347 81.266006 C 104.708 81.455994 161.832001 114.701996 166.169006 117.640991 C 169.820007 120.110992 172 123.983002 172 128 C 172 132.014008 169.826996 135.882004 166.184006 138.348999 C 161.688995 141.389008 104.694 174.556 104.328003 174.747009 C 102.721001 175.578003 100.999001 176 99.209 176 C 93.028 176 88 170.891998 88 164.613007 L 88 91.371002 C 88 91.147995 88.013 90.927002 88.040001 90.708008 C 88.388 84.757996 93.296997 80 99.209 80"/>
</svg>
