<?xml version="1.0" encoding="UTF-8"?>
<!-- Generated by Pixelmator Pro 3.7.1 -->
<svg width="256" height="256" viewBox="0 0 256 256" xmlns="http://www.w3.org/2000/svg">
    <path id="Path" fill="#ffffff" stroke="none" d="M 134 64 L 122.012001 64 C 116.498001 64 112.012001 68.485992 112.012001 74 L 112.012001 112.007996 L 91.998001 112.018005 L 84 112.022003 L 88.800995 118.419006 L 124.813004 166.401001 L 128.013 170.664001 L 131.212006 166.399994 L 167.212006 118.417999 L 172.011002 112.022003 L 164.014008 112.018005 L 144 112.007996 L 144 74 C 144 68.485992 139.514008 64 134 64 M 134 68 C 137.317993 68 140 70.682007 140 74 L 140 116.005997 L 140.011993 116.005997 L 164.011993 116.018005 L 128.011993 164 L 92 116.018005 L 116 116.005997 L 116.012001 116.005997 L 116.012001 74 C 116.012001 70.682007 118.694 68 122.012001 68 L 134 68"/>
    <path id="path1" fill="#ffffff" stroke="none" d="M 170 172 L 86 172 C 80.486 172 76 176.485992 76 182 C 76 187.514008 80.486 192 86 192 L 170 192 C 175.514008 192 180 187.514008 180 182 C 180 176.485992 175.514008 172 170 172 M 170 176 C 173.317993 176 176 178.682007 176 182 C 176 185.317993 173.317993 188 170 188 L 86 188 C 82.681999 188 80 185.317993 80 182 C 80 178.682007 82.681999 176 86 176 L 170 176"/>
</svg>
