<?xml version="1.0" encoding="UTF-8"?>
<!-- Generated by Pixelmator Pro 3.7.1 -->
<svg width="256" height="256" viewBox="0 0 256 256" xmlns="http://www.w3.org/2000/svg">
    <path id="Path" fill="#ffffff" stroke="none" d="M 160 124 L 162 124 L 164 124 L 164 120 L 164 118 L 164 116 L 162 116 L 160 116 L 156 116 L 156 118 L 156 120 L 160 120 Z"/>
    <path id="path1" fill="#ffffff" stroke="none" d="M 160 172 L 160 176 L 156 176 L 156 178 L 156 180 L 160 180 L 162 180 L 164 180 L 164 178 L 164 176 L 164 172 L 162 172 Z"/>
    <path id="path2" fill="#ffffff" stroke="none" d="M 96 172 L 94 172 L 92 172 L 92 176 L 92 178 L 92 180 L 94 180 L 96 180 L 100 180 L 100 178 L 100 176 L 96 176 Z"/>
    <path id="path3" fill="#ffffff" stroke="none" d="M 128 120 C 151.244995 120 156 124.710007 156 148 C 156 171.287994 151.322006 176 128 176 C 104.681 176 100 171.278 100 148 C 100 124.722 104.754997 120 128 120 M 96 148 C 96 174.604004 101.350998 180 128 180 C 154.653 180 160 174.613998 160 148 C 160 121.382996 154.565994 116 128 116 C 101.434998 116 96 121.395996 96 148"/>
    <path id="path4" fill="#ffffff" stroke="none" d="M 172 116 L 172 124 L 172 188 L 84 188 L 84 68 L 96 68 L 124 68 L 128 68 L 128 112 L 172 112 Z M 132 73.656998 L 166.343002 108 L 132 108 Z M 128 64 L 80 64 L 80 192 L 176 192 L 176 112 Z"/>
    <path id="path5" fill="#ffffff" stroke="none" d="M 96 124 L 96 120 L 100 120 L 100 118 L 100 116 L 96 116 L 94 116 L 92 116 L 92 118 L 92 120 L 92 124 L 94 124 Z"/>
    <path id="path6" fill="#ffffff" stroke="none" d="M 136 132 L 132 132 L 124 132 L 120 132 L 120 136 L 120 140 L 116 140 L 112 140 L 112 144 L 112 152 L 112 156 L 116 156 L 120 156 L 120 160 L 120 164 L 124 164 L 132 164 L 136 164 L 136 160 L 136 156 L 140 156 L 144 156 L 144 152 L 144 144 L 144 140 L 140 140 L 136 140 L 136 136 Z M 132 136 L 132 144 L 140 144 L 140 152 L 132 152 L 132 160 L 124 160 L 124 152 L 116 152 L 116 144 L 124 144 L 124 136 Z"/>
</svg>
