<?xml version="1.0" encoding="UTF-8"?>
<!-- Generated by Pixelmator Pro 3.7.1 -->
<svg width="256" height="256" viewBox="0 0 256 256" xmlns="http://www.w3.org/2000/svg">
    <path id="Path" fill="#ffffff" stroke="none" d="M 126.262199 60 C 119.032204 60 112.092201 60.811996 105.634201 62.412994 C 99.065201 64.044998 93.179199 66.503006 88.1362 69.718002 C 82.950203 73.024994 78.760201 77.181 75.680199 82.070007 C 72.284203 87.462006 72.000198 93.884003 72.000198 100 C 72.000198 105.802002 72.336205 111.953995 76.349205 117.781998 C 79.743202 122.710999 84.012199 127.130997 89.036201 130.919006 C 93.929199 134.612 99.294197 137.871002 104.981201 140.604004 L 114.465202 145.166 L 120.248199 147.949005 C 124.778198 150.132996 128.594193 152.238007 131.587204 154.205994 C 133.426193 155.419998 134.527206 156.643997 134.527206 157.475998 C 134.527206 158.589996 134.327194 159.265991 133.931198 159.484009 C 133.2742 159.848999 131.650208 160.455002 128.115204 160.455002 C 125.054199 160.455002 121.683197 160.001007 118.0952 159.104004 C 114.340202 158.169998 110.629196 156.962997 107.063202 155.514999 C 103.512199 154.078003 100.179199 152.393005 97.1502 150.501999 C 94.280197 148.712006 92.571198 147.21701 92.554199 147.201996 C 91.065201 145.880005 89.126198 145.149002 87.098198 145.149002 C 84.9002 145.149002 82.852203 145.988998 81.334198 147.514008 L 81.2742 147.574005 L 81.217201 147.636002 L 65.049202 165.299011 L 62.5812 167.996002 L 65.045204 170.695999 C 72.361198 178.710999 80.727203 184.488007 92.172203 189.429993 C 102.276199 193.789993 114.835197 196 129.503204 196 C 136.843201 196 144.252197 195.197006 151.5242 193.613007 C 158.909195 192.001007 165.626205 189.511002 171.490204 186.212997 C 177.530197 182.81601 182.518204 178.412003 186.314194 173.121002 C 189.928207 168.084991 192.000198 160.386993 192.000198 152 C 192.000198 144.626999 190.570206 139.509003 186.901199 133.748001 C 183.489197 128.402008 179.147202 123.751007 173.995209 119.919998 C 169.009201 116.221008 163.592209 113.020004 157.890198 110.404999 C 152.410202 107.893997 147.197205 105.591995 142.395203 103.561005 C 137.7892 101.615005 133.950195 99.725006 130.984207 97.94101 C 128.769196 96.612 128.179199 95.604004 128.179199 95.216995 C 128.179199 94.681 128.310196 94.399002 128.718201 94.057999 C 128.921204 93.886993 129.764206 93.341003 132.277206 93.341003 C 134.283203 93.341003 136.721207 93.649994 139.525192 94.259995 C 142.3992 94.888 145.556198 95.850998 148.906204 97.122009 C 152.296204 98.410004 155.819199 99.987 159.375198 101.807007 C 162.784195 103.557999 165.943207 105.722 165.974197 105.744003 C 167.397202 106.722992 169.073196 107.240997 170.819199 107.240997 C 173.318207 107.240997 175.619202 106.178009 177.132202 104.324005 L 177.156204 104.294006 L 177.179199 104.264999 L 191.14621 86.470001 L 193.583206 83.365997 L 190.512207 80.888 C 181.482208 73.597992 171.734207 69.681 160.8452 65.664993 C 150.645203 61.906006 139.0112 60 126.262199 60 M 126.262199 64 C 138.599197 64 149.666199 65.807999 159.462204 69.416992 C 169.256195 73.029999 179.207199 76.902008 188.000198 84 L 174.032196 101.794998 C 173.259201 102.744003 172.054199 103.240997 170.819199 103.240997 C 169.9272 103.240997 169.018204 102.981995 168.241196 102.447998 C 168.241196 102.447998 164.898209 100.147003 161.198196 98.246002 C 157.496201 96.350998 153.871201 94.729004 150.324203 93.380997 C 146.775208 92.035004 143.458206 91.024994 140.375198 90.350998 C 137.288193 89.679993 134.592194 89.341003 132.277206 89.341003 C 129.501205 89.341003 127.454201 89.891998 126.146202 90.994003 C 124.834198 92.095001 124.179199 93.502991 124.179199 95.216995 C 124.179199 97.419006 125.759201 99.471008 128.923203 101.369003 C 132.081207 103.268005 136.055206 105.225006 140.837204 107.244995 C 145.617203 109.265991 150.746201 111.531006 156.222198 114.041 C 161.696198 116.550995 166.826202 119.582001 171.6082 123.130997 C 176.390198 126.686005 180.362198 130.938004 183.527206 135.895996 C 186.685196 140.855011 188.000198 145.144989 188.000198 152 C 188.000198 158.610992 186.533203 165.95401 183.064194 170.789001 C 179.594208 175.626007 175.083206 179.604004 169.529205 182.72699 C 163.977203 185.848999 157.688202 188.173004 150.673203 189.705002 C 143.652206 191.233994 136.5952 192 129.503204 192 C 115.311203 192 103.396202 189.917007 93.758202 185.757996 C 84.118202 181.596008 75.710205 176.447998 68.000198 168 L 84.168198 150.337006 C 84.954201 149.548004 86.023201 149.149002 87.098198 149.149002 C 88.104202 149.149002 89.115204 149.497009 89.905205 150.197998 C 89.905205 150.197998 91.793198 151.876007 95.032204 153.895996 C 98.270203 155.916992 101.777199 157.69101 105.558197 159.221008 C 109.335197 160.753998 113.193199 162.007004 117.125198 162.985001 C 121.060204 163.968002 124.721199 164.455002 128.115204 164.455002 C 131.506195 164.455002 134.093201 163.96701 135.865204 162.985001 C 137.637207 162.007004 138.527206 160.169998 138.527206 157.475998 C 138.527206 155.151001 136.9422 152.947998 133.784195 150.863998 C 130.621201 148.785004 126.687202 146.612 121.9832 144.345001 C 117.277199 142.080002 112.187202 139.632996 106.713203 136.998001 C 101.237198 134.365997 96.148201 131.274994 91.444199 127.725006 C 86.737198 124.175995 82.804199 120.102997 79.644203 115.513 C 76.481201 110.921005 76.000198 106 76.000198 100 C 76.000198 94.123001 76.2882 88.610001 79.065201 84.201996 C 81.841202 79.792999 85.579201 76.091995 90.286201 73.091003 C 94.989197 70.093002 100.426201 67.828995 106.596199 66.294998 C 112.764198 64.766006 119.322197 64 126.262199 64"/>
</svg>
