<?xml version="1.0" encoding="UTF-8"?>
<!-- Generated by Pixelmator Pro 3.7.1 -->
<svg width="256" height="256" viewBox="0 0 256 256" xmlns="http://www.w3.org/2000/svg">
    <path id="Path" fill="#ffffff" stroke="none" d="M 104 120.773895 C 94.736 120.773895 87.199997 113.239899 87.199997 103.978897 C 87.199997 94.712906 94.736 87.173904 104 87.173904 C 113.264 87.173904 120.800003 94.712906 120.800003 103.978897 C 120.800003 113.239899 113.264 120.773895 104 120.773895 M 104 47.999893 C 100.037003 47.999893 96.036003 48.428894 92.107002 49.274902 L 89.218002 49.897903 L 88.964996 52.841904 L 88.318001 60.350906 C 83.130997 62.218903 78.273003 65.0289 74.042999 68.609894 L 64.087997 63.973907 L 61.418999 62.730896 L 59.438999 64.910904 C 53.773998 71.146896 50.451 80.089905 48.188999 87.184906 L 47.162998 90.404907 L 50.166 91.954895 L 58.292 96.148895 C 57.846001 98.752899 57.619999 101.382904 57.619999 103.999893 C 57.619999 106.613907 57.846001 109.243896 58.292999 111.850906 L 50.166 116.044907 L 47.162998 117.594894 L 48.188999 120.814896 C 50.451 127.909897 53.773998 136.853897 59.438999 143.089905 L 61.417999 145.26889 L 64.087006 144.025909 L 74.042999 139.394897 C 78.273003 142.975891 83.130997 145.785889 88.318001 147.6539 L 88.964996 155.162903 L 89.219002 158.111908 L 92.112999 158.731903 C 96.047997 159.572906 100.047997 159.999908 104 159.999908 C 107.967003 159.999908 111.966003 159.569901 115.884003 158.724899 L 118.770004 158.100891 L 119.025002 155.158905 L 119.675003 147.649902 C 124.863998 145.783905 129.723999 142.973907 133.955994 139.3909 L 143.910995 144.025909 L 146.582001 145.269897 L 148.563004 143.087891 C 154.30899 136.75589 157.734009 127.341904 159.811996 120.812897 L 160.835999 117.593903 L 157.834991 116.044907 L 149.712006 111.853897 C 150.158997 109.259903 150.384995 106.629898 150.384995 103.999893 C 150.384995 101.366898 150.158997 98.736893 149.712997 96.146896 L 157.834991 91.954895 L 160.835999 90.405899 L 159.811996 87.187897 C 157.734009 80.657898 154.30899 71.243896 148.563004 64.911896 L 146.583008 62.730896 L 143.912994 63.9729 L 133.957001 68.604904 C 129.725006 65.021896 124.863998 62.210907 119.675003 60.343903 L 119.025002 52.8349 L 118.770004 49.889893 L 115.878998 49.269897 C 111.954002 48.426895 107.957001 47.999893 104 47.999893 M 104 124.773895 C 115.487 124.773895 124.800003 115.455902 124.800003 103.978897 C 124.800003 92.486893 115.487 83.173904 104 83.173904 C 92.513 83.173904 83.199997 92.486893 83.199997 103.978897 C 83.199997 115.455902 92.513 124.773895 104 124.773895 M 104 51.999893 C 107.791 51.999893 111.477997 52.415894 115.040001 53.179901 L 115.917999 63.325897 C 122.507004 65.249908 128.419006 68.732895 133.25 73.345901 L 145.600006 67.599899 C 150.544998 73.049896 153.716995 81.223907 156 88.399902 L 145.179001 93.984894 C 145.964005 97.192902 146.384995 100.546906 146.384995 103.999893 C 146.384995 107.452896 145.964005 110.801895 145.179001 114.014893 L 156 119.599899 C 153.716995 126.775894 150.544998 134.94989 145.600006 140.399902 L 133.25 134.648895 C 128.419006 139.261902 122.507004 142.744904 115.917999 144.6689 L 115.040001 154.814911 C 111.477997 155.583893 107.791 155.999908 104 155.999908 C 100.209 155.999908 96.522003 155.583893 92.949997 154.818909 L 92.076004 144.674896 C 85.499001 142.749908 79.581001 139.266907 74.75 134.6539 L 62.400002 140.399902 C 57.450001 134.94989 54.287998 126.775894 52 119.599899 L 62.820999 114.014893 C 62.046001 110.801895 61.619999 107.452896 61.619999 103.999893 C 61.619999 100.546906 62.046001 97.192902 62.820999 93.984894 L 52 88.399902 C 54.287998 81.223907 57.450001 73.049896 62.400002 67.599899 L 74.75 73.350906 C 79.581001 68.738907 85.499001 65.254898 92.076004 63.330902 L 92.949997 53.185898 C 96.522003 52.415894 100.209 51.999893 104 51.999893"/>
    <path id="path1" fill="#ffffff" stroke="none" d="M 172.008804 180.78421 C 171.892807 180.78421 171.776794 180.782196 171.658798 180.777191 C 166.885803 180.586197 163.156799 176.485199 163.347794 171.637207 C 163.533798 166.89621 167.330795 163.184204 171.991806 163.183197 C 172.109802 163.183197 172.2258 163.186203 172.342804 163.190201 C 177.114807 163.383209 180.843796 167.486206 180.653793 172.338196 C 180.466797 177.074203 176.6698 180.78421 172.008804 180.78421 M 172.004807 136.000198 L 172.004807 136.000198 C 169.948807 136.000198 167.865799 136.183197 165.813797 136.545197 L 162.9048 137.05719 L 162.537796 139.98819 L 162.082794 143.6362 C 159.377808 144.60321 156.8078 145.971191 154.477798 147.68219 L 149.427795 145.054199 L 146.787796 143.680206 L 144.713806 145.812195 C 140.910797 149.721191 138.587799 155.333191 136.9888 159.785202 L 135.856796 162.939209 L 138.762802 164.607208 L 142.650803 166.838196 C 142.422806 168.154205 142.281799 169.482208 142.230804 170.80719 C 142.177795 172.132202 142.214798 173.46521 142.337799 174.796204 L 138.292801 176.7052 L 135.258804 178.138199 L 136.140793 181.375198 C 137.385803 185.940201 139.260803 191.7202 142.742798 195.920197 L 144.640793 198.208191 L 147.378799 197.051208 L 152.617798 194.838196 C 154.808792 196.732208 157.265793 198.303192 159.888794 199.485199 L 160.056793 203.162201 L 160.191803 206.112198 L 163.050797 206.851196 C 165.532806 207.494202 168.067795 207.871201 170.583801 207.971191 C 171.055801 207.990204 171.526794 208.000198 171.994797 208.000198 C 174.052795 208.000198 176.134796 207.816193 178.1828 207.454193 L 181.087799 206.940201 L 181.454803 204.013199 L 181.911804 200.365204 C 184.618805 199.398193 187.190796 198.030197 189.522797 196.3172 L 194.571793 198.946198 L 197.212799 200.321198 L 199.287796 198.185196 C 203.144806 194.218201 205.542801 188.310211 207.011795 184.212189 L 208.1418 181.059204 L 205.237793 179.392197 L 201.352798 177.1642 C 201.579803 175.851196 201.720795 174.523193 201.773804 173.1922 C 201.824799 171.861206 201.788803 170.527191 201.665802 169.202209 L 205.706802 167.295197 L 208.7388 165.86319 L 207.860794 162.628204 C 206.716797 158.426208 204.789795 152.3452 201.257797 148.082199 L 199.361801 145.791199 L 196.620804 146.949203 L 191.381805 149.162201 C 189.189804 147.265198 186.731796 145.69519 184.106796 144.513199 L 183.936798 140.836197 L 183.800797 137.888199 L 180.945801 137.148193 C 178.468796 136.507202 175.935806 136.130203 173.415802 136.028198 C 172.944794 136.010193 172.473801 136.000198 172.004807 136.000198 M 172.008804 184.78421 C 178.768799 184.78421 184.378799 179.379211 184.649796 172.495209 C 184.927795 165.429199 179.487793 159.474197 172.502808 159.194199 C 172.331802 159.187195 172.161804 159.183197 171.991806 159.183197 C 165.232803 159.184204 159.621796 164.586197 159.351807 171.479202 C 159.073807 178.536194 164.512802 184.493195 171.497803 184.7742 C 171.668793 184.781189 171.839798 184.78421 172.008804 184.78421 M 172.004807 140.000198 C 172.4198 140.000198 172.836807 140.008209 173.255798 140.025208 C 175.561798 140.117203 177.792801 140.464203 179.941803 141.020203 L 180.230804 147.280197 C 184.190796 148.624207 187.701797 150.911194 190.528793 153.865204 L 198.177795 150.634201 C 201.053802 154.105194 202.784805 159.209198 203.999802 163.678192 L 197.283798 166.847198 C 197.684799 168.839203 197.859802 170.912201 197.776794 173.035202 C 197.692795 175.158203 197.355804 177.207199 196.800797 179.1642 L 203.245804 182.862198 C 201.684799 187.219208 199.558792 192.168198 196.418793 195.398193 L 189.047806 191.560211 C 185.998795 194.278198 182.319794 196.276199 178.265793 197.299194 L 177.486801 203.515198 C 175.6978 203.832199 173.864807 204.000198 171.994797 204.000198 C 171.579803 204.000198 171.162796 203.992203 170.743805 203.974197 C 168.438797 203.883209 166.206802 203.536194 164.052795 202.979202 L 163.7668 196.7202 C 159.812805 195.376205 156.297806 193.089203 153.471802 190.135193 L 145.821793 193.366196 C 142.943802 189.894196 141.217804 184.791199 139.999802 180.322205 L 146.715805 177.152191 C 146.321793 175.158203 146.143799 173.088196 146.227798 170.96521 C 146.310806 168.842194 146.650803 166.790192 147.198807 164.836197 L 140.753799 161.138199 C 142.318802 156.781189 144.438797 151.832199 147.580795 148.601196 L 154.951797 152.439209 C 158.000793 149.722198 161.684799 147.723206 165.731796 146.701202 L 166.507797 140.484192 C 168.300797 140.168198 170.134796 140.000198 172.004807 140.000198"/>
</svg>
