<?xml version="1.0" encoding="UTF-8"?>
<!-- Generated by Pixelmator Pro 3.7.1 -->
<svg width="256" height="256" viewBox="0 0 256 256" xmlns="http://www.w3.org/2000/svg">
    <path id="Path" fill="#ffffff" stroke="none" d="M 172 60 L 84 60 C 66.355003 60 52 74.354996 52 92 C 52 109.645004 66.355003 124 84 124 L 172 124 C 189.645004 124 204 109.645004 204 92 C 204 74.354996 189.645004 60 172 60 M 172 64 C 187.438995 64 200 76.561996 200 92 C 200 107.438004 187.438995 120 172 120 L 84 120 C 68.560997 120 56 107.438004 56 92 C 56 76.561996 68.560997 64 84 64 L 172 64"/>
    <path id="path1" fill="#ffffff" stroke="none" d="M 172 68 C 158.766998 68 148 78.766998 148 92 C 148 105.233002 158.766998 116 172 116 C 185.233002 116 196 105.233002 196 92 C 196 78.766998 185.233002 68 172 68 M 172 72 C 183.046005 72 192 80.953995 192 92 C 192 103.046005 183.046005 112 172 112 C 160.953995 112 152 103.046005 152 92 C 152 80.953995 160.953995 72 172 72"/>
    <path id="path2" fill="#ffffff" stroke="none" d="M 172 132 L 84 132 C 66.355003 132 52 146.354996 52 164 C 52 181.645004 66.355003 196 84 196 L 172 196 C 189.645004 196 204 181.645004 204 164 C 204 146.354996 189.645004 132 172 132 M 172 136 C 187.438995 136 200 148.561996 200 164 C 200 179.438004 187.438995 192 172 192 L 84 192 C 68.560997 192 56 179.438004 56 164 C 56 148.561996 68.560997 136 84 136 L 172 136"/>
    <path id="path3" fill="#ffffff" stroke="none" d="M 84 140 C 70.766998 140 60 150.765991 60 164 C 60 177.233002 70.766998 188 84 188 C 97.233002 188 108 177.233002 108 164 C 108 150.765991 97.233002 140 84 140 M 84 144 C 95.045998 144 104 152.95401 104 164 C 104 175.044998 95.045998 184 84 184 C 72.954002 184 64 175.044998 64 164 C 64 152.95401 72.954002 144 84 144"/>
</svg>
