<?xml version="1.0" encoding="UTF-8"?>
<!-- Generated by Pixelmator Pro 3.7.1 -->
<svg width="256" height="256" viewBox="0 0 256 256" xmlns="http://www.w3.org/2000/svg">
    <path id="Path" fill="#ffffff" stroke="none" d="M 172 116 L 172 124 L 172 188 L 120 188 L 120 184 L 116 184 L 116 188 L 84 188 L 84 68 L 96 68 L 124 68 L 128 68 L 128 112 L 172 112 Z M 132 73.656998 L 166.343002 108 L 132 108 Z M 128 64 L 80 64 L 80 192 L 176 192 L 176 112 Z"/>
    <path id="path1" fill="#ffffff" stroke="none" d="M 116 140 L 120 140 L 120 136 L 116 136 Z"/>
    <path id="path2" fill="#ffffff" stroke="none" d="M 124 132 L 120 132 L 120 136 L 124 136 Z"/>
    <path id="path3" fill="#ffffff" stroke="none" d="M 124 116 L 120 116 L 120 120 L 124 120 Z"/>
    <path id="path4" fill="#ffffff" stroke="none" d="M 124 140 L 120 140 L 120 144 L 124 144 Z"/>
    <path id="path5" fill="#ffffff" stroke="none" d="M 116 148 L 120 148 L 120 144 L 116 144 Z"/>
    <path id="path6" fill="#ffffff" stroke="none" d="M 116 156 L 120 156 L 120 152 L 116 152 Z"/>
    <path id="path7" fill="#ffffff" stroke="none" d="M 124 148 L 120 148 L 120 152 L 124 152 Z"/>
    <path id="path8" fill="#ffffff" stroke="none" d="M 124 156 L 120 156 L 120 160 L 124 160 Z"/>
    <path id="path9" fill="#ffffff" stroke="none" d="M 116 164 L 120 164 L 120 160 L 116 160 Z"/>
    <path id="path10" fill="#ffffff" stroke="none" d="M 116 172 L 120 172 L 120 168 L 116 168 Z"/>
    <path id="path11" fill="#ffffff" stroke="none" d="M 124 164 L 120 164 L 120 168 L 124 168 Z"/>
    <path id="path12" fill="#ffffff" stroke="none" d="M 124 172 L 120 172 L 120 176 L 124 176 Z"/>
    <path id="path13" fill="#ffffff" stroke="none" d="M 116 180 L 120 180 L 120 176 L 116 176 Z"/>
    <path id="path14" fill="#ffffff" stroke="none" d="M 124 180 L 120 180 L 120 184 L 124 184 Z"/>
    <path id="path15" fill="#ffffff" stroke="none" d="M 116 116 L 120 116 L 120 112 L 116 112 Z"/>
    <path id="path16" fill="#ffffff" stroke="none" d="M 116 132 L 120 132 L 120 128 L 116 128 Z"/>
    <path id="path17" fill="#ffffff" stroke="none" d="M 124 124 L 120 124 L 120 128 L 124 128 Z"/>
    <path id="path18" fill="#ffffff" stroke="none" d="M 116 124 L 120 124 L 120 120 L 116 120 Z"/>
    <path id="path19" fill="#ffffff" stroke="none" d="M 116 100 L 120 100 L 120 96 L 116 96 Z"/>
    <path id="path20" fill="#ffffff" stroke="none" d="M 124 92 L 120 92 L 120 96 L 124 96 Z"/>
    <path id="path21" fill="#ffffff" stroke="none" d="M 124 76 L 120 76 L 120 80 L 124 80 Z"/>
    <path id="path22" fill="#ffffff" stroke="none" d="M 124 100 L 120 100 L 120 104 L 124 104 Z"/>
    <path id="path23" fill="#ffffff" stroke="none" d="M 116 108 L 120 108 L 120 104 L 116 104 Z"/>
    <path id="path24" fill="#ffffff" stroke="none" d="M 124 108 L 120 108 L 120 112 L 124 112 Z"/>
    <path id="path25" fill="#ffffff" stroke="none" d="M 116 76 L 120 76 L 120 72 L 116 72 Z"/>
    <path id="path26" fill="#ffffff" stroke="none" d="M 116 92 L 120 92 L 120 88 L 116 88 Z"/>
    <path id="path27" fill="#ffffff" stroke="none" d="M 124 84 L 120 84 L 120 88 L 124 88 Z"/>
    <path id="path28" fill="#ffffff" stroke="none" d="M 116 84 L 120 84 L 120 80 L 116 80 Z"/>
    <path id="path29" fill="#ffffff" stroke="none" d="M 128 172 L 136 172 L 136 176 L 140 176 L 140 172 L 144 172 L 144 168 L 128 168 Z"/>
    <path id="path30" fill="#ffffff" stroke="none" d="M 132 180 L 128 180 L 128 184 L 144 184 L 144 180 L 136 180 L 136 176 L 132 176 Z"/>
    <path id="path31" fill="#ffffff" stroke="none" d="M 152 168 L 148 168 L 148 184 L 152 184 Z"/>
    <path id="path32" fill="#ffffff" stroke="none" d="M 160 172 L 164 172 L 164 176 L 160 176 Z M 160 180 L 168 180 L 168 176 L 168 168 L 164 168 L 160 168 L 156 168 L 156 184 L 160 184 Z"/>
</svg>
