<?xml version="1.0" encoding="UTF-8"?>
<!-- Generated by Pixelmator Pro 3.7.1 -->
<svg width="256" height="256" viewBox="0 0 256 256" xmlns="http://www.w3.org/2000/svg">
    <path id="Path" fill="#ffffff" stroke="none" d="M 240 212 L 16 212 L 16 40 L 240 40 Z M 240 36 L 16 36 C 13.791 36 12 37.791 12 40 L 12 216 L 244 216 L 244 40 C 244 37.791 242.209 36 240 36"/>
    <path id="path1" fill="#ffffff" stroke="none" d="M 228 148 L 28 148 L 28 56 L 84.014999 56 C 84.013 56.050995 84 56.098999 84 56.151001 L 84 103.848999 C 84 106.141998 85.858002 108 88.151001 108 L 167.848999 108 C 170.141998 108 172 106.141998 172 103.848999 L 172 56.151001 C 172 56.098999 171.987 56.050995 171.985001 56 L 228 56 Z M 167.848999 103.848999 L 88.151001 103.848999 L 88.151001 56.151001 L 167.848999 56.151001 Z M 232 56 C 232 53.791 230.209 52 228 52 L 167.848999 52 L 88.151001 52 L 28 52 C 25.791 52 24 53.791 24 56 L 24 152 L 232 152 Z"/>
</svg>
