<?xml version="1.0" encoding="UTF-8"?>
<!-- Generated by Pixelmator Pro 3.7.1 -->
<svg width="256" height="256" viewBox="0 0 256 256" xmlns="http://www.w3.org/2000/svg">
    <path id="Path" fill="#ffffff" stroke="none" d="M 240 196 L 16 196 L 16 60 L 240 60 Z M 242 56 L 14 56 C 12.895 56 12 56.895004 12 58 L 12 198 C 12 199.104996 12.895 200 14 200 L 242 200 C 243.104996 200 244 199.104996 244 198 L 244 58 C 244 56.895004 243.104996 56 242 56"/>
    <path id="path1" fill="#ffffff" stroke="none" d="M 136 184 L 24 184 L 24 172 L 136 172 Z M 24 132 L 136 132 L 136 168 L 24 168 Z M 24 92 L 136 92 L 136 128 L 24 128 Z M 21.966999 188 L 138.033005 188 C 139.119003 188 140 187.119003 140 186.03299 L 140 172 L 140 168 L 140 132 L 140 128 L 140 89.966995 C 140 88.880997 139.119003 88 138.033005 88 L 21.966999 88 C 20.881001 88 20 88.880997 20 89.966995 L 20 128 L 20 132 L 20 168 L 20 172 L 20 186.03299 C 20 187.119003 20.881001 188 21.966999 188"/>
    <path id="path2" fill="#ffffff" stroke="none" d="M 148 120 L 148 109.634003 C 148 110.940002 149.059998 112 150.365997 112 L 229.634003 112 C 230.940002 112 232 110.940002 232 109.634003 L 232 120 Z M 232 128 L 148 128 L 148 124 L 232 124 Z M 232 136 L 148 136 L 148 132 L 232 132 Z M 232 144 L 148 144 L 148 140 L 232 140 Z M 232 152 L 148 152 L 148 148 L 232 148 Z M 232 160 L 148 160 L 148 156 L 232 156 Z M 232 168 L 148 168 L 148 164 L 232 164 Z M 232 184 L 148 184 L 148 172 L 232 172 Z M 228 108 L 152 108 L 152 100 L 228 100 Z M 148 92 L 232 92 L 232 98.365997 C 232 97.059006 230.940002 96 229.634003 96 L 150.365997 96 C 149.059998 96 148 97.059006 148 98.365997 Z M 234.277008 88 L 145.723007 88 C 144.770996 88 144 88.770996 144 89.722992 L 144 120 L 144 124 L 144 128 L 144 132 L 144 136 L 144 140 L 144 144 L 144 148 L 144 152 L 144 156 L 144 160 L 144 164 L 144 168 L 144 172 L 144 186.277008 C 144 187.229004 144.770996 188 145.723007 188 L 234.277008 188 C 235.229004 188 236 187.229004 236 186.277008 L 236 172 L 236 168 L 236 164 L 236 160 L 236 156 L 236 152 L 236 148 L 236 144 L 236 140 L 236 136 L 236 132 L 236 128 L 236 124 L 236 120 L 236 89.722992 C 236 88.770996 235.229004 88 234.277008 88"/>
    <path id="path3" fill="#ffffff" stroke="none" d="M 24 68 L 232 68 L 232 72 L 24 72 Z M 21.982 76 L 234.018005 76 C 235.113007 76 236 75.113007 236 74.018005 L 236 65.981995 C 236 64.886993 235.113007 64 234.018005 64 L 21.982 64 C 20.886999 64 20 64.886993 20 65.981995 L 20 74.018005 C 20 75.113007 20.886999 76 21.982 76"/>
    <path id="path4" fill="#ffffff" stroke="none" d="M 48 104 L 40 104 L 40 100 L 48 100 Z M 48 112 L 40 112 L 40 108 L 48 108 Z M 36 104 L 36 108 L 36 116 L 52 116 L 52 108 L 52 104 L 52 96 L 36 96 Z"/>
    <path id="path5" fill="#ffffff" stroke="none" d="M 72 104 L 64 104 L 64 100 L 72 100 Z M 72 112 L 64 112 L 64 108 L 72 108 Z M 60 104 L 60 108 L 60 116 L 76 116 L 76 108 L 76 104 L 76 96 L 60 96 Z"/>
    <path id="path6" fill="#ffffff" stroke="none" d="M 96 104 L 88 104 L 88 100 L 96 100 Z M 96 112 L 88 112 L 88 108 L 96 108 Z M 84 104 L 84 108 L 84 116 L 100 116 L 100 108 L 100 104 L 100 96 L 84 96 Z"/>
    <path id="path7" fill="#ffffff" stroke="none" d="M 112 100 L 120 100 L 120 104 L 112 104 Z M 120 112 L 112 112 L 112 108 L 120 108 Z M 108 96 L 108 104 L 108 108 L 108 116 L 124 116 L 124 108 L 124 104 L 124 96 Z"/>
</svg>
