<?xml version="1.0" encoding="UTF-8"?>
<!-- Generated by Pixelmator Pro 3.7.1 -->
<svg width="256" height="256" viewBox="0 0 256 256" xmlns="http://www.w3.org/2000/svg">
    <path id="Path" fill="#ffffff" stroke="none" d="M 186.974594 130.2939 C 188.185593 130.689911 190.384598 133.283905 190.440598 134.432892 C 190.433594 135.323898 190.426605 136.257904 187.050598 136.257904 L 186.876602 136.256897 C 183.562607 136.215897 183.552597 135.312897 183.543594 134.437897 C 183.532593 133.294891 185.742599 130.657898 186.974594 130.2939 M 186.828598 140.25589 C 186.902603 140.256897 186.9776 140.257904 187.050598 140.257904 C 191.894608 140.257904 194.411606 138.280899 194.440598 134.451904 C 194.4646 131.218903 190.205597 126.440903 187.153595 126.275894 C 187.100601 126.272903 187.0466 126.271896 186.993607 126.271896 C 183.872604 126.271896 179.507599 131.035889 179.543594 134.479889 C 179.582596 138.248901 182.040604 140.196899 186.828598 140.25589"/>
    <path id="path1" fill="#ffffff" stroke="none" d="M 184.464798 112.144501 C 184.608795 112.051498 185.252792 111.711502 186.994797 111.711502 C 188.758804 111.713501 189.403793 112.056503 189.546799 112.148499 C 189.5578 112.193497 189.571793 112.277496 189.575806 112.412506 C 189.291794 113.199493 187.852798 114.604507 187.003799 114.9505 C 186.150803 114.611496 184.707794 113.199493 184.435806 112.407501 C 184.439804 112.272507 184.453796 112.188507 184.464798 112.144501 M 186.996796 118.992493 L 187.012802 118.992493 C 189.5728 118.992493 193.514801 115.184494 193.574799 112.643494 C 193.652802 109.404495 191.4048 107.716507 187.011795 107.711502 L 186.994797 107.711502 C 182.614807 107.711502 180.367798 109.392502 180.436798 112.616501 C 180.489807 115.182495 184.394806 118.976501 186.996796 118.992493"/>
    <path id="path2" fill="#ffffff" stroke="none" d="M 89.6689 109.354996 C 92.331902 103.089005 97.162903 100.272003 105.301903 100.272003 C 105.610901 100.272003 105.924904 100.274994 106.243904 100.283997 C 113.200897 100.460007 118.267899 103.811005 120.410904 110.102005 C 123.524902 119.242996 123.548904 128.520996 120.5159 137.675003 C 118.238899 144.546005 112.970901 147.884003 105.080902 147.997009 C 104.954903 147.998993 104.829903 148 104.705902 148 C 97.2929 148 92.177902 144.791992 89.548897 138.363998 C 88.884903 136.740997 88.5009 134.997009 88.037903 133.294998 C 87.194901 130.195007 87.415901 127.013 87.367897 122.897003 C 87.174896 118.863007 87.697899 113.990997 89.6689 109.354996 M 130.771896 126.445999 C 136.751907 118.964996 142.304901 111.134003 148.047897 103.459 C 149.143906 101.996002 153.4039 100.815994 156.315903 100.815002 C 157.314911 100.815002 158.154907 100.955002 158.6539 101.268997 C 159.729904 101.945999 159.380905 103.063004 159.3909 104.016006 C 159.429901 108.070999 159.406906 112.126999 159.407898 116.182007 C 159.408905 120.238007 159.462906 124.294006 159.38591 128.347992 C 159.353897 130.048004 159.554901 131.363998 161.287903 131.363998 C 161.494904 131.363998 161.724899 131.346008 161.978897 131.307007 C 162.292908 131.257996 162.574905 131.234009 162.826904 131.234009 C 165.179901 131.234009 164.938904 133.242004 164.814911 135.093002 C 164.698898 136.858002 165.670898 139.406998 162.842911 139.406998 C 162.611908 139.406998 162.356903 139.390991 162.073898 139.355011 C 161.833908 139.324997 161.6129 139.311005 161.409897 139.311005 C 159.027908 139.311005 159.173904 141.306 159.456909 143.005005 C 160.065903 146.664001 158.23291 146.951996 155.957901 146.951996 C 155.562897 146.951996 155.152908 146.942993 154.740906 146.942001 L 154.576904 146.942001 C 154.395905 146.942001 154.214905 146.942993 154.035904 146.942993 C 151.652908 146.942993 149.644897 146.815002 150.367905 143.144012 C 150.929901 140.294006 149.708908 139.291992 147.068909 139.291 C 146.925903 139.291 146.7789 139.294998 146.627899 139.300003 C 144.836899 139.368011 143.044907 139.386993 141.251907 139.386993 C 138.998901 139.386993 136.743896 139.356995 134.490906 139.356995 C 133.146896 139.356995 131.801895 139.368011 130.457901 139.402008 C 130.387909 139.403 130.318909 139.403992 130.251907 139.403992 C 128.246902 139.403992 127.7799 138.598999 127.693901 136.569 C 127.533905 132.757004 128.267899 129.578003 130.771896 126.445999 M 175.741898 124.117996 C 176.354904 123.684998 176.989899 123.283997 177.626907 122.860992 C 177.281906 121.542999 176.0289 121.328003 175.211899 120.641998 C 169.119904 115.529007 169.877899 106.220001 176.897903 102.498001 C 180.113907 100.792007 183.443909 100 186.790909 100 C 189.813904 100 192.849899 100.645996 195.82991 101.845001 C 204.299896 105.255005 205.339905 115.141998 198.025909 120.626007 C 197.129898 121.298004 196.205902 121.932007 195.150909 122.686996 C 195.939911 123.181 196.554901 123.578003 197.180908 123.955994 C 202.438904 127.126007 204.6129 131.187012 203.852905 136.424011 C 203.045898 141.981995 199.41391 145.876999 193.593903 147.166992 C 191.394897 147.653992 189.179901 147.906006 186.967911 147.906006 C 184.69191 147.906006 182.419907 147.639999 180.1689 147.089996 C 175.197906 145.873001 171.458908 143.057999 170.4039 137.714996 C 169.297897 132.106003 171.013901 127.464996 175.741898 124.117996 M 83.374901 125.287994 C 83.369904 128.40799 83.364899 131.355011 84.177902 134.345001 C 84.276901 134.709991 84.372902 135.078003 84.468903 135.445007 C 84.842903 136.882996 85.229897 138.369003 85.846901 139.877991 C 89.089897 147.80899 95.610901 152 104.705902 152 C 104.8489 152 104.992897 151.998993 105.137901 151.997009 C 117.160904 151.824005 122.113899 145.143005 124.1539 139.373993 C 125.302902 142.812012 128.324905 143.403992 130.251907 143.403992 C 130.351898 143.403992 130.453903 143.403 130.559906 143.399994 C 131.728897 143.371002 132.978897 143.356995 134.490906 143.356995 C 135.607895 143.356995 136.726898 143.363998 137.844894 143.372009 C 138.980896 143.380005 140.115906 143.386993 141.251907 143.386993 C 143.194901 143.386993 144.812897 143.363998 146.2939 143.313995 C 146.038895 145.488007 146.475906 147.276001 147.594894 148.638 C 149.489899 150.942993 152.335907 150.942993 154.035904 150.942993 L 154.312897 150.942001 L 154.576904 150.942001 L 154.728897 150.942001 L 155.268906 150.946991 C 155.501907 150.950012 155.731903 150.951996 155.957901 150.951996 C 157.327896 150.951996 160.178909 150.951996 162.095901 148.688995 C 163.595901 146.919998 163.665909 144.751999 163.540909 143.377991 C 165.464905 143.208008 166.660904 142.352005 167.345901 141.622009 C 167.364899 141.600998 167.377899 141.578003 167.397903 141.557007 C 168.932907 145.337006 172.235901 149.266998 179.218903 150.975006 C 181.744904 151.593002 184.351898 151.906006 186.967911 151.906006 C 189.440903 151.906006 191.961899 151.626007 194.458908 151.071991 C 201.884903 149.427002 206.751907 144.296997 207.811905 136.998001 C 208.41391 132.847992 207.777908 127.190994 202.022903 122.477997 C 205.637909 119.042999 207.401901 114.417999 206.791901 109.763 C 206.113907 104.595993 202.574905 100.248993 197.323898 98.134995 C 193.805908 96.718002 190.261902 96 186.791901 96 L 186.790909 96 C 182.689911 96 178.731903 96.996994 175.022903 98.964005 C 170.558899 101.332001 167.698898 105.518005 167.177902 110.449997 C 166.7099 114.871994 168.263901 119.270996 171.374908 122.520004 C 169.402908 124.354004 167.971909 126.487 167.0979 128.847992 C 166.37291 128.143997 165.197906 127.391006 163.402908 127.255997 C 163.437897 124.705002 163.427902 122.145996 163.417908 119.660004 C 163.412903 118.501007 163.407898 117.341003 163.407898 116.181 C 163.407898 115.067001 163.408905 113.953995 163.410904 112.839005 C 163.414902 109.938004 163.4189 106.938004 163.3909 103.977005 C 163.389908 103.882004 163.398911 103.783005 163.404907 103.682999 C 163.467911 102.695007 163.655899 99.692001 160.784897 97.884003 C 159.644897 97.164993 158.182907 96.815002 156.315903 96.815002 C 153.109909 96.815994 147.160904 97.968994 144.845901 101.063004 C 143.063904 103.444 141.273895 105.875 139.544907 108.225006 C 135.702896 113.442993 131.731903 118.837997 127.647903 123.947998 C 127.325905 124.350998 127.031898 124.759995 126.7509 125.173004 C 126.8899 119.701004 126.0439 114.231995 124.196899 108.811996 C 121.559898 101.072006 115.053902 96.505997 106.345901 96.285004 C 105.991898 96.276001 105.644897 96.272003 105.301903 96.272003 C 95.599899 96.272003 89.281898 100.039993 85.9879 107.789993 C 83.517899 113.602005 83.196899 119.263 83.368896 123.013 C 83.377899 123.804993 83.3769 124.561005 83.374901 125.287994"/>
    <path id="path3" fill="#ffffff" stroke="none" d="M 101.749001 115.6465 C 102.714996 112.471497 103.640999 112.448502 104.712997 112.421494 L 104.871002 112.419495 C 106.164001 112.419495 107.130997 112.607498 107.813004 115.0345 C 109.498001 121.035507 109.491997 127.102493 107.793999 133.065491 C 107.017998 135.793503 105.751999 135.793503 104.915001 135.793503 C 104.858002 135.793503 104.801003 135.792511 104.742996 135.791504 C 103.857002 135.761505 102.643997 135.72049 101.760002 132.587494 C 101.030998 130.001495 100.970001 127.232498 100.964996 123.880493 C 100.971001 121.088501 100.975998 118.188507 101.749001 115.6465 M 104.609001 139.78949 C 104.711998 139.792511 104.814003 139.793503 104.915001 139.793503 C 108.542999 139.793503 110.668999 137.576508 111.641998 134.160492 C 113.555 127.439499 113.552002 120.675507 111.664001 113.952499 C 110.696999 110.509506 108.627998 108.419495 104.871002 108.419495 C 104.786003 108.419495 104.700996 108.420502 104.613998 108.422501 C 100.595001 108.5215 98.935997 111.1465 97.921997 114.482498 C 96.992996 117.539505 96.971001 120.718506 96.964996 123.886505 C 96.970001 127.179504 97.006996 130.47049 97.911003 133.673492 C 98.883003 137.123505 100.773003 139.661499 104.609001 139.78949"/>
    <path id="path4" fill="#ffffff" stroke="none" d="M 146.363297 125.4673 C 146.362305 126.078293 146.361298 126.689301 146.359299 127.300293 L 144.970306 127.300293 Z M 148.509293 131.300293 L 148.5103 131.300293 C 149.456299 131.300293 150.3423 131.123291 150.348297 129.93631 C 150.377304 124.875305 150.360306 119.813293 150.360306 114.751297 C 150.099304 114.711304 149.839294 114.671295 149.577301 114.631302 C 145.513306 119.975296 141.450302 125.320297 136.904297 131.300293 L 143.5233 131.300293 Z"/>
    <path id="path5" fill="#ffffff" stroke="none" d="M 208 208 L 48 208 L 48 150.778992 C 48.654007 151.013 49.378006 151.139999 50.158005 151.139999 C 50.936996 151.139999 51.666 151.022995 52.251999 150.931 C 52.481003 150.895004 52.826996 150.839005 52.945999 150.834 C 56.727005 150.904999 60.677002 150.938995 64.983002 150.938995 C 68.261993 150.938995 71.725998 150.919998 75.570999 150.877991 L 76.003006 150.876007 C 76.651001 150.876007 77.203995 150.890991 77.675003 150.903 C 78.087997 150.915009 78.447998 150.923996 78.761993 150.923996 C 84.598999 150.923996 84.685997 146.442993 84.744003 143.479004 C 84.754997 142.906006 84.767998 142.238998 84.794998 141.462997 C 84.825996 140.606995 84.917999 138.005005 83.067001 136.087006 C 81.436996 134.395996 79.313004 134.200989 77.856003 134.200989 C 77.716003 134.200989 77.570007 134.203003 77.421005 134.207001 C 75.649994 134.255005 73.792999 134.278 71.462997 134.281006 C 74.973999 131.104004 78.453003 127.697998 80.867996 123.061996 C 84.642998 115.81601 83.933998 106.846008 79.182007 101.735001 C 75.875 98.179001 70.393005 96.139008 64.139999 96.139008 C 57.675003 96.139008 51.757004 98.277008 48 101.837006 L 48 48 L 208 48 Z M 53.307007 116.415009 C 54.057007 116.764999 54.832993 116.942001 55.613998 116.942001 C 58.436005 116.942001 59.923996 114.763 60.561005 113.833008 C 60.623001 113.740997 60.705994 113.619995 60.772003 113.527008 C 61.785995 112.912994 63.041 112.537994 64.108002 112.537994 C 64.828995 112.537994 65.173996 112.712006 65.227997 112.759003 C 65.755005 113.307007 66.138 113.705002 64.503998 116.877991 C 63.082993 119.638 60.904007 121.90799 58.960999 123.764999 L 58.684998 124.028992 C 55.229996 127.32901 51.660995 130.727997 48 133.824005 L 48 112.936005 C 49.576004 114.199005 51.317993 115.487 53.307007 116.415009 M 70.873993 138.281998 C 73.143997 138.281998 75.335999 138.264999 77.529007 138.205994 C 77.641006 138.203003 77.75 138.200989 77.856003 138.200989 C 79.959 138.200989 80.887001 138.824005 80.797997 141.320007 C 80.619003 146.354996 81.038002 146.923996 78.761993 146.923996 C 78.098999 146.923996 77.205994 146.876007 76.003006 146.876007 C 75.850006 146.876007 75.690994 146.876999 75.528 146.877991 C 72.013 146.916 68.498001 146.938995 64.983002 146.938995 C 60.981995 146.938995 56.981003 146.908997 52.981003 146.834991 C 52.962997 146.834991 52.945007 146.834 52.925995 146.834 C 52.130005 146.834 51.054993 147.139999 50.158005 147.139999 C 49.304001 147.139999 48.610001 146.863007 48.473999 145.778992 C 48.126007 143.03299 47.057007 139.838989 50.033997 137.35199 C 54.082001 133.971008 57.904007 130.306 61.723999 126.656998 C 64.181 124.309998 66.483002 121.772003 68.061005 118.709 C 69.537003 115.843002 70.800003 112.778992 68.104996 109.981003 C 67.147003 108.985992 65.697998 108.537994 64.108994 108.537994 C 62.179993 108.537994 60.044998 109.197998 58.328995 110.34201 C 57.300003 111.027008 56.809998 112.942001 55.613998 112.942001 C 55.427994 112.942001 55.223999 112.895996 54.998001 112.790009 C 52.764999 111.748001 50.794998 110.061005 48.852997 108.473999 C 47.852005 107.654999 48.970001 106.863007 49.421005 106.235992 C 52.296997 102.242004 58.309998 100.139008 64.139999 100.139008 C 68.899994 100.139008 73.539001 101.541 76.251999 104.458008 C 79.867996 108.347 80.331001 115.436005 77.320007 121.213989 C 74.688995 126.265991 70.417007 129.830994 66.307999 133.535004 C 64.770004 134.92099 63.182999 136.251999 60.878006 138.25 C 64.485992 138.25 67.753006 138.281998 70.873993 138.281998 M 208 44 L 48 44 L 44 44 L 44 48 L 44 208 L 44 212 L 48 212 L 208 212 L 212 212 L 212 208 L 212 48 L 212 44 Z"/>
</svg>
