<?xml version="1.0" encoding="UTF-8"?>
<!-- Generated by Pixelmator Pro 3.7.1 -->
<svg width="256" height="256" viewBox="0 0 256 256" xmlns="http://www.w3.org/2000/svg">
    <path id="Path" fill="#ffffff" stroke="none" d="M 186.974594 130.2939 C 188.185593 130.689911 190.384598 133.283905 190.440598 134.432892 C 190.433594 135.323898 190.426605 136.257904 187.050598 136.257904 L 186.876602 136.256897 C 183.562607 136.215897 183.552597 135.312897 183.543594 134.437897 C 183.532593 133.294891 185.742599 130.657898 186.974594 130.2939 M 186.828598 140.25589 C 186.902603 140.256897 186.9776 140.257904 187.050598 140.257904 C 191.894608 140.257904 194.411606 138.280899 194.440598 134.451904 C 194.4646 131.218903 190.205597 126.440903 187.153595 126.275894 C 187.100601 126.272903 187.0466 126.271896 186.993607 126.271896 C 183.872604 126.271896 179.507599 131.035889 179.543594 134.479889 C 179.582596 138.248901 182.040604 140.196899 186.828598 140.25589"/>
    <path id="path1" fill="#ffffff" stroke="none" d="M 184.464798 112.144501 C 184.608795 112.051498 185.252792 111.711502 186.994797 111.711502 C 188.758804 111.713501 189.403793 112.056503 189.546799 112.148499 C 189.5578 112.193497 189.571793 112.277496 189.575806 112.412506 C 189.291794 113.199493 187.852798 114.604507 187.003799 114.9505 C 186.150803 114.611496 184.707794 113.199493 184.435806 112.407501 C 184.439804 112.272507 184.453796 112.188507 184.464798 112.144501 M 186.996796 118.992493 L 187.012802 118.992493 C 189.5728 118.992493 193.514801 115.184494 193.574799 112.643494 C 193.652802 109.404495 191.4048 107.716507 187.011795 107.711502 L 186.994797 107.711502 C 182.614807 107.711502 180.367798 109.392502 180.436798 112.616501 C 180.489807 115.182495 184.394806 118.976501 186.996796 118.992493"/>
    <path id="path2" fill="#ffffff" stroke="none" d="M 89.6689 109.354996 C 92.331902 103.089005 97.162903 100.272003 105.301903 100.272003 C 105.610901 100.272003 105.924904 100.274994 106.243904 100.283997 C 113.200897 100.460007 118.267899 103.811005 120.410904 110.102005 C 123.524902 119.242996 123.548904 128.520996 120.5159 137.675003 C 118.238899 144.546005 112.970901 147.884003 105.080902 147.997009 C 104.954903 147.998993 104.829903 148 104.705902 148 C 97.2929 148 92.177902 144.791992 89.548897 138.363998 C 88.884903 136.740997 88.5009 134.997009 88.037903 133.294998 C 87.194901 130.195007 87.415901 127.013 87.367897 122.897003 C 87.174896 118.863007 87.697899 113.990997 89.6689 109.354996 M 130.771896 126.445999 C 136.751907 118.964996 142.304901 111.134003 148.047897 103.459 C 149.143906 101.996002 153.4039 100.815994 156.315903 100.815002 C 157.314911 100.815002 158.154907 100.955002 158.6539 101.268997 C 159.729904 101.945999 159.380905 103.063004 159.3909 104.016006 C 159.429901 108.070999 159.406906 112.126999 159.407898 116.182007 C 159.408905 120.238007 159.462906 124.294006 159.38591 128.347992 C 159.353897 130.048004 159.554901 131.363998 161.287903 131.363998 C 161.494904 131.363998 161.724899 131.346008 161.978897 131.307007 C 162.292908 131.257996 162.574905 131.234009 162.826904 131.234009 C 165.179901 131.234009 164.938904 133.242004 164.814911 135.093002 C 164.698898 136.858002 165.670898 139.406998 162.842911 139.406998 C 162.611908 139.406998 162.356903 139.390991 162.073898 139.355011 C 161.833908 139.324997 161.6129 139.311005 161.409897 139.311005 C 159.027908 139.311005 159.173904 141.306 159.456909 143.005005 C 160.065903 146.664001 158.23291 146.951996 155.957901 146.951996 C 155.562897 146.951996 155.152908 146.942993 154.740906 146.942001 L 154.576904 146.942001 C 154.395905 146.942001 154.214905 146.942993 154.035904 146.942993 C 151.652908 146.942993 149.644897 146.815002 150.367905 143.144012 C 150.929901 140.294006 149.708908 139.291992 147.068909 139.291 C 146.925903 139.291 146.7789 139.294998 146.627899 139.300003 C 144.836899 139.368011 143.044907 139.386993 141.251907 139.386993 C 138.998901 139.386993 136.743896 139.356995 134.490906 139.356995 C 133.146896 139.356995 131.801895 139.368011 130.457901 139.402008 C 130.387909 139.403 130.318909 139.403992 130.251907 139.403992 C 128.246902 139.403992 127.7799 138.598999 127.693901 136.569 C 127.533905 132.757004 128.267899 129.578003 130.771896 126.445999 M 175.741898 124.117996 C 176.354904 123.684998 176.989899 123.283997 177.626907 122.860992 C 177.281906 121.542999 176.0289 121.328003 175.211899 120.641998 C 169.119904 115.529007 169.877899 106.220001 176.897903 102.498001 C 180.113907 100.792007 183.443909 100 186.790909 100 C 189.813904 100 192.849899 100.645996 195.82991 101.845001 C 204.299896 105.255005 205.339905 115.141998 198.025909 120.626007 C 197.129898 121.298004 196.205902 121.932007 195.150909 122.686996 C 195.939911 123.181 196.554901 123.578003 197.180908 123.955994 C 202.438904 127.126007 204.6129 131.187012 203.852905 136.424011 C 203.045898 141.981995 199.41391 145.876999 193.593903 147.166992 C 191.394897 147.653992 189.179901 147.906006 186.967911 147.906006 C 184.69191 147.906006 182.419907 147.639999 180.1689 147.089996 C 175.197906 145.873001 171.458908 143.057999 170.4039 137.714996 C 169.297897 132.106003 171.013901 127.464996 175.741898 124.117996 M 83.374901 125.287994 C 83.369904 128.40799 83.364899 131.355011 84.177902 134.345001 C 84.276901 134.709991 84.372902 135.078003 84.468903 135.445007 C 84.842903 136.882996 85.229897 138.369003 85.846901 139.877991 C 89.089897 147.80899 95.610901 152 104.705902 152 C 104.8489 152 104.992897 151.998993 105.137901 151.997009 C 117.160904 151.824005 122.113899 145.143005 124.1539 139.373993 C 125.302902 142.812012 128.324905 143.403992 130.251907 143.403992 C 130.351898 143.403992 130.453903 143.403 130.559906 143.399994 C 131.728897 143.371002 132.978897 143.356995 134.490906 143.356995 C 135.607895 143.356995 136.726898 143.363998 137.844894 143.372009 C 138.980896 143.380005 140.115906 143.386993 141.251907 143.386993 C 143.194901 143.386993 144.812897 143.363998 146.2939 143.313995 C 146.038895 145.488007 146.475906 147.276001 147.594894 148.638 C 149.489899 150.942993 152.335907 150.942993 154.035904 150.942993 L 154.312897 150.942001 L 154.576904 150.942001 L 154.728897 150.942001 L 155.268906 150.946991 C 155.501907 150.950012 155.731903 150.951996 155.957901 150.951996 C 157.327896 150.951996 160.178909 150.951996 162.095901 148.688995 C 163.595901 146.919998 163.665909 144.751999 163.540909 143.377991 C 165.464905 143.208008 166.660904 142.352005 167.345901 141.622009 C 167.364899 141.600998 167.377899 141.578003 167.397903 141.557007 C 168.932907 145.337006 172.235901 149.266998 179.218903 150.975006 C 181.744904 151.593002 184.351898 151.906006 186.967911 151.906006 C 189.440903 151.906006 191.961899 151.626007 194.458908 151.071991 C 201.884903 149.427002 206.751907 144.296997 207.811905 136.998001 C 208.41391 132.847992 207.777908 127.190994 202.022903 122.477997 C 205.637909 119.042999 207.401901 114.417999 206.791901 109.763 C 206.113907 104.595993 202.574905 100.248993 197.323898 98.134995 C 193.805908 96.718002 190.261902 96 186.791901 96 L 186.790909 96 C 182.689911 96 178.731903 96.996994 175.022903 98.964005 C 170.558899 101.332001 167.698898 105.518005 167.177902 110.449997 C 166.7099 114.871994 168.263901 119.270996 171.374908 122.520004 C 169.402908 124.354004 167.971909 126.487 167.0979 128.847992 C 166.37291 128.143997 165.197906 127.391006 163.402908 127.255997 C 163.437897 124.705002 163.427902 122.145996 163.417908 119.660004 C 163.412903 118.501007 163.407898 117.341003 163.407898 116.181 C 163.407898 115.067001 163.408905 113.953995 163.410904 112.839005 C 163.414902 109.938004 163.4189 106.938004 163.3909 103.977005 C 163.389908 103.882004 163.398911 103.783005 163.404907 103.682999 C 163.467911 102.695007 163.655899 99.692001 160.784897 97.884003 C 159.644897 97.164993 158.182907 96.815002 156.315903 96.815002 C 153.109909 96.815994 147.160904 97.968994 144.845901 101.063004 C 143.063904 103.444 141.273895 105.875 139.544907 108.225006 C 135.702896 113.442993 131.731903 118.837997 127.647903 123.947998 C 127.325905 124.350998 127.031898 124.759995 126.7509 125.173004 C 126.8899 119.701004 126.0439 114.231995 124.196899 108.811996 C 121.559898 101.072006 115.053902 96.505997 106.345901 96.285004 C 105.991898 96.276001 105.644897 96.272003 105.301903 96.272003 C 95.599899 96.272003 89.281898 100.039993 85.9879 107.789993 C 83.517899 113.602005 83.196899 119.263 83.368896 123.013 C 83.377899 123.804993 83.3769 124.561005 83.374901 125.287994"/>
    <path id="path3" fill="#ffffff" stroke="none" d="M 101.749001 115.6465 C 102.714996 112.471497 103.640999 112.448502 104.712997 112.421494 L 104.871002 112.419495 C 106.164001 112.419495 107.130997 112.607498 107.813004 115.0345 C 109.498001 121.035507 109.491997 127.102493 107.793999 133.065491 C 107.017998 135.793503 105.751999 135.793503 104.915001 135.793503 C 104.858002 135.793503 104.801003 135.792511 104.742996 135.791504 C 103.857002 135.761505 102.643997 135.72049 101.760002 132.587494 C 101.030998 130.001495 100.970001 127.232498 100.964996 123.880493 C 100.971001 121.088501 100.975998 118.188507 101.749001 115.6465 M 104.609001 139.78949 C 104.711998 139.792511 104.814003 139.793503 104.915001 139.793503 C 108.542999 139.793503 110.668999 137.576508 111.641998 134.160492 C 113.555 127.439499 113.552002 120.675507 111.664001 113.952499 C 110.696999 110.509506 108.627998 108.419495 104.871002 108.419495 C 104.786003 108.419495 104.700996 108.420502 104.613998 108.422501 C 100.595001 108.5215 98.935997 111.1465 97.921997 114.482498 C 96.992996 117.539505 96.971001 120.718506 96.964996 123.886505 C 96.970001 127.179504 97.006996 130.47049 97.911003 133.673492 C 98.883003 137.123505 100.773003 139.661499 104.609001 139.78949"/>
    <path id="path4" fill="#ffffff" stroke="none" d="M 146.363297 125.4673 C 146.362305 126.078293 146.361298 126.689301 146.359299 127.300293 L 144.970306 127.300293 Z M 148.509293 131.300293 L 148.5103 131.300293 C 149.456299 131.300293 150.3423 131.123291 150.348297 129.93631 C 150.377304 124.875305 150.360306 119.813293 150.360306 114.751297 C 150.099304 114.711304 149.839294 114.671295 149.577301 114.631302 C 145.513306 119.975296 141.450302 125.320297 136.904297 131.300293 L 143.5233 131.300293 Z"/>
    <path id="path5" fill="#ffffff" stroke="none" d="M 68.105499 109.9814 C 67.147499 108.986404 65.698502 108.538406 64.108498 108.538406 C 62.1805 108.538406 60.044498 109.197403 58.329498 110.3414 C 57.300499 111.027405 56.810501 112.941406 55.614498 112.941406 C 55.427498 112.941406 55.224499 112.895401 54.998501 112.790405 C 52.7645 111.748398 50.794498 110.060394 48.8535 108.473404 C 47.851501 107.654404 48.970501 106.863403 49.421501 106.236404 C 52.297501 102.242401 58.309502 100.139404 64.140503 100.139404 C 68.899498 100.139404 73.539497 101.540405 76.251503 104.458405 C 79.8675 108.347397 80.330498 115.436401 77.320503 121.214401 C 74.688499 126.265396 70.417503 129.83139 66.307503 133.5354 C 64.7705 134.92041 63.183498 136.252411 60.877499 138.250397 C 64.485497 138.250397 67.752502 138.28241 70.874496 138.28241 C 73.144501 138.28241 75.336502 138.264404 77.528503 138.20639 C 77.641502 138.2034 77.750504 138.201401 77.856499 138.201401 C 79.959503 138.201401 80.886497 138.824402 80.797501 141.320404 C 80.6185 146.355408 81.038498 146.923401 78.762497 146.923401 C 78.098503 146.923401 77.206497 146.876404 76.002502 146.876404 C 75.849503 146.876404 75.691498 146.877411 75.527496 146.877411 C 72.013496 146.916412 68.498497 146.939392 64.983498 146.939392 C 60.981499 146.939392 56.980499 146.909393 52.981499 146.835403 C 52.963501 146.835403 52.9445 146.834412 52.926498 146.834412 C 52.130501 146.834412 51.0555 147.139404 50.158501 147.139404 C 49.303501 147.139404 48.6105 146.863403 48.473499 145.779404 C 48.126499 143.033401 47.057499 139.838409 50.0345 137.35141 C 54.0825 133.970398 57.904499 130.305389 61.724499 126.657394 C 64.180504 124.310394 66.482498 121.7724 68.060501 118.709396 C 69.536499 115.842407 70.7995 112.779404 68.105499 109.9814 M 58.960499 123.764404 L 58.684502 124.028397 C 55.0625 127.489395 51.317501 131.067398 47.469501 134.281403 C 43.169498 137.87439 43.906502 142.472412 44.3465 145.219391 C 44.4035 145.580399 44.461502 145.934402 44.504501 146.281403 C 44.878502 149.233398 47.0975 151.139404 50.158501 151.139404 C 50.936501 151.139404 51.6665 151.023407 52.251499 150.930405 C 52.480499 150.894409 52.8265 150.838409 52.946499 150.834412 C 56.726501 150.905396 60.676498 150.939392 64.983498 150.939392 C 68.262497 150.939392 71.725502 150.919403 75.570503 150.877411 L 76.002502 150.876404 C 76.651497 150.876404 77.204498 150.890411 77.6745 150.903412 C 78.088501 150.915405 78.448502 150.923401 78.762497 150.923401 C 84.599503 150.923401 84.686501 146.443405 84.7435 143.478394 C 84.754501 142.906403 84.767502 142.23941 84.795502 141.462402 C 84.8255 140.607391 84.918503 138.004395 83.067497 136.086395 C 81.436501 134.396393 79.3125 134.201401 77.856499 134.201401 C 77.7155 134.201401 77.570503 134.2034 77.421501 134.207397 C 75.650497 134.254395 73.792503 134.278412 71.463501 134.281403 C 74.974503 131.104401 78.452499 127.698395 80.8675 123.062393 C 84.643501 115.815399 83.934502 106.846405 79.181503 101.734406 C 75.875504 98.178406 70.392502 96.139404 64.140503 96.139404 C 56.5285 96.139404 49.663502 99.094406 46.206501 103.8564 C 46.1735 103.895401 46.1385 103.934402 46.102501 103.974396 C 45.560501 104.588394 44.2915 106.025406 44.463501 108.1474 C 44.570499 109.462402 45.230499 110.678406 46.321499 111.570404 L 46.797501 111.960403 C 48.6745 113.500397 50.801498 115.246399 53.307499 116.415405 C 54.056499 116.764404 54.8335 116.941406 55.614498 116.941406 C 58.435501 116.941406 59.9245 114.762405 60.560501 113.832397 C 60.622501 113.741394 60.705502 113.620407 60.772499 113.527405 C 61.7855 112.913406 63.040501 112.538406 64.108498 112.538406 C 64.829498 112.538406 65.1745 112.712402 65.227501 112.759399 C 65.754501 113.307404 66.138496 113.705399 64.503502 116.877396 C 63.0825 119.638397 60.904499 121.908401 58.960499 123.764404"/>
    <path id="path6" fill="#ffffff" stroke="none" d="M 244 244 L 12 244 L 12 12 L 244 12 Z M 244 8 L 12 8 L 8 8 L 8 12 L 8 244 L 8 248 L 12 248 L 244 248 L 248 248 L 248 244 L 248 12 L 248 8 Z"/>
</svg>
