<?xml version="1.0" encoding="UTF-8"?>
<!-- Generated by Pixelmator Pro 3.7.1 -->
<svg width="256" height="256" viewBox="0 0 256 256" xmlns="http://www.w3.org/2000/svg">
    <path id="Path" fill="#ffffff" stroke="none" d="M 244 238.727097 C 244 241.643097 241.643005 244.000107 238.727005 244.000107 L 224 244.000107 L 224 161.867096 C 224 156.426086 219.445007 152.000092 213.846008 152.000092 L 66.154007 152.000092 C 60.554993 152.000092 56 156.426086 56 161.867096 L 56 244.000107 L 33.091003 244.000107 L 12 217.636108 L 12 17.272095 C 12 14.357101 14.356995 12.000092 17.272995 12.000092 L 40 12.000092 L 40 122.200104 C 40 127.604095 44.011002 132.000092 48.940994 132.000092 L 207.05899 132.000092 C 211.988998 132.000092 216 127.604095 216 122.200104 L 216 12.000092 L 238.727005 12.000092 C 241.643005 12.000092 244 14.357101 244 17.272095 Z M 192 244.000107 L 192 171.272095 C 192 164.951096 187.847 160.000092 182.546005 160.000092 L 73.453995 160.000092 C 68.153 160.000092 64 164.951096 64 171.272095 L 64 244.000107 L 60 244.000107 L 60 161.867096 C 60 158.622101 62.751007 156.000092 66.154007 156.000092 L 213.846008 156.000092 C 217.248993 156.000092 220 158.622101 220 161.867096 L 220 244.000107 Z M 68 244.000107 L 68 171.272095 C 68 167.251099 70.438004 164.000092 73.453995 164.000092 L 182.546005 164.000092 C 185.561996 164.000092 188 167.251099 188 171.272095 L 188 244.000107 Z M 212 12.000092 L 212 122.200104 C 212 125.407104 209.791 128.000092 207.05899 128.000092 L 48.940994 128.000092 C 46.209 128.000092 44 125.407104 44 122.200104 L 44 12.000092 Z M 238.727005 8.000092 L 216 8.000092 L 212 8.000092 L 44 8.000092 L 40 8.000092 L 17.272995 8.000092 C 12.160004 8.000092 8 12.160095 8 17.272095 L 8 217.636108 L 8 219.039093 L 8.876999 220.135101 L 29.968002 246.4991 L 31.167999 248.000107 L 33.091003 248.000107 L 56 248.000107 L 60 248.000107 L 64 248.000107 L 68 248.000107 L 188 248.000107 L 192 248.000107 L 220 248.000107 L 224 248.000107 L 238.727005 248.000107 C 243.839996 248.000107 248 243.840103 248 238.727097 L 248 17.272095 C 248 12.160095 243.839996 8.000092 238.727005 8.000092"/>
    <path id="path1" fill="#ffffff" stroke="none" d="M 236 44 L 224 44 L 224 32 L 236 32 Z M 224 28.535995 L 220.535995 28.535995 L 220.535995 32 L 220.535995 44 L 220.535995 47.464005 L 224 47.464005 L 236 47.464005 L 239.464005 47.464005 L 239.464005 44 L 239.464005 32 L 239.464005 28.535995 L 236 28.535995 Z"/>
    <path id="path2" fill="#ffffff" stroke="none" d="M 84 180 L 112 180 L 112 232 L 84 232 Z M 80 236 L 116 236 L 116 176 L 80 176 Z"/>
</svg>
