<?xml version="1.0" encoding="UTF-8"?>
<!-- Generated by Pixelmator Pro 3.7.1 -->
<svg width="256" height="256" viewBox="0 0 256 256" xmlns="http://www.w3.org/2000/svg">
    <path id="Path" fill="#ffffff" stroke="none" d="M 244 204 L 12 204 L 12 112 L 20 52 L 24 52 L 24 88 L 28 88 L 28 52 L 32 52 L 32 100 C 32 102.209 33.791 104 36 104 L 36 52 L 40 52 L 40 104 L 44 104 L 44 52 L 48 52 L 48 104 L 52 104 L 52 52 L 56 52 L 56 104 L 60 104 L 60 52 L 64 52 L 64 104 L 68 104 L 68 52 L 72 52 L 72 104 L 76 104 L 76 52 L 80 52 L 80 104 C 82.209 104 84 102.209 84 100 L 84 52 L 88 52 L 88 88 L 92 88 L 92 52 L 96 52 L 96 88 L 100 88 L 100 52 L 104 52 L 104 88 L 108 88 L 108 52 L 112 52 L 112 88 L 116 88 L 116 52 L 120 52 L 120 88 L 124 88 L 124 52 L 128 52 L 128 88 L 132 88 L 132 52 L 136 52 L 136 88 L 140 88 L 140 52 L 144 52 L 144 88 L 148 88 L 148 52 L 152 52 L 152 88 L 156 88 L 156 52 L 160 52 L 160 88 L 164 88 L 164 52 L 172 52 L 172 88 L 176 88 L 176 52 L 180 52 L 180 88 L 184 88 L 184 52 L 188 52 L 188 88 L 192 88 L 192 52 L 196 52 L 196 88 L 200 88 L 200 52 L 204 52 L 204 88 L 208 88 L 208 52 L 212 52 L 212 88 L 216 88 L 216 52 L 220 52 L 220 88 L 224 88 L 224 52 L 228 52 L 228 88 L 232 88 L 232 52 L 236 52 L 244 112 Z M 247.964996 111.471008 L 239.964996 51.470993 L 239.501999 48 L 236 48 L 20 48 L 16.498001 48 L 16.035004 51.470993 L 8.035004 111.471008 L 8 111.734009 L 8 112 L 8 204 L 8 208 L 12 208 L 244 208 L 248 208 L 248 204 L 248 112 L 248 111.734009 Z"/>
    <path id="path1" fill="#ffffff" stroke="none" d="M 20 116 L 36 116 L 36 124 L 20 124 Z M 36 127.578003 L 39.577999 127.578003 L 39.577999 124 L 39.577999 116 L 39.577999 112.421997 L 36 112.421997 L 20 112.421997 L 16.422001 112.421997 L 16.422001 116 L 16.422001 124 L 16.422001 127.578003 L 20 127.578003 Z"/>
    <path id="path2" fill="#ffffff" stroke="none" d="M 224 148 L 220 148 L 212 148 L 208 148 L 200 148 L 196 148 L 196 140 L 232 140 L 232 148 Z M 232 160 L 224 160 L 224 152 L 232 152 Z M 232 172 L 224 172 L 224 164 L 232 164 Z M 232 184 L 224 184 L 224 176 L 232 176 Z M 232 196 L 224 196 L 224 188 L 232 188 Z M 220 196 L 212 196 L 212 188 L 220 188 Z M 208 196 L 200 196 L 200 188 L 208 188 Z M 200 176 L 208 176 L 208 184 L 200 184 Z M 192 172 L 184 172 L 184 164 L 192 164 Z M 180 172 L 172 172 L 172 164 L 180 164 Z M 172 152 L 180 152 L 180 160 L 172 160 Z M 184 152 L 192 152 L 192 160 L 184 160 Z M 208 160 L 200 160 L 200 152 L 208 152 Z M 200 164 L 208 164 L 208 172 L 200 172 Z M 220 184 L 212 184 L 212 176 L 220 176 Z M 220 172 L 212 172 L 212 164 L 220 164 Z M 220 160 L 212 160 L 212 152 L 220 152 Z M 192 196 L 184 196 L 184 188 L 192 188 Z M 180 196 L 172 196 L 172 188 L 180 188 Z M 196 136 L 192 136 L 192 140 L 192 148 L 184 148 L 180 148 L 172 148 L 168 148 L 168 152 L 168 160 L 168 164 L 168 172 L 168 176 L 172 176 L 180 176 L 184 176 L 192 176 L 196 176 L 196 184 L 192 184 L 184 184 L 180 184 L 172 184 L 168 184 L 168 188 L 168 196 L 168 200 L 172 200 L 180 200 L 184 200 L 192 200 L 196 200 L 200 200 L 208 200 L 212 200 L 220 200 L 224 200 L 232 200 L 236 200 L 236 196 L 236 188 L 236 184 L 236 176 L 236 172 L 236 164 L 236 160 L 236 152 L 236 148 L 236 140 L 236 136 L 232 136 Z"/>
    <path id="path3" fill="#ffffff" stroke="none" d="M 200 116 L 228 116 L 228 124 L 200 124 Z M 228 128 L 232 128 L 232 124 L 232 116 L 232 112 L 228 112 L 200 112 L 196 112 L 196 116 L 196 124 L 196 128 L 200 128 Z"/>
    <path id="path4" fill="#ffffff" stroke="none" d="M 156 140 L 160 140 L 160 148 L 156 148 Z M 160 160 L 156 160 L 156 152 L 160 152 Z M 160 172 L 148 172 L 148 164 L 152 164 L 156 164 L 160 164 Z M 160 184 L 148 184 L 144 184 L 140 184 L 140 176 L 144 176 L 148 176 L 160 176 Z M 160 196 L 148 196 L 148 188 L 160 188 Z M 140 196 L 128 196 L 128 188 L 136 188 L 140 188 Z M 124 196 L 64 196 L 64 188 L 68 188 L 76 188 L 80 188 L 88 188 L 92 188 L 100 188 L 104 188 L 112 188 L 116 188 L 124 188 Z M 60 196 L 48 196 L 48 188 L 52 188 L 56 188 L 60 188 Z M 44 176 L 48 176 L 52 176 L 52 184 L 48 184 L 44 184 Z M 40 184 L 36 184 L 24 184 L 24 176 L 36 176 L 40 176 Z M 36 196 L 24 196 L 24 188 L 36 188 Z M 24 164 L 32 164 L 36 164 L 36 172 L 24 172 Z M 24 152 L 32 152 L 32 160 L 24 160 Z M 24 140 L 32 140 L 32 148 L 24 148 Z M 36 140 L 44 140 L 44 148 L 36 148 Z M 48 140 L 56 140 L 56 148 L 48 148 Z M 60 140 L 68 140 L 68 148 L 60 148 Z M 72 140 L 80 140 L 80 148 L 72 148 Z M 84 140 L 92 140 L 92 148 L 84 148 Z M 96 140 L 104 140 L 104 148 L 96 148 Z M 108 140 L 116 140 L 116 148 L 108 148 Z M 120 140 L 128 140 L 128 148 L 120 148 Z M 132 140 L 140 140 L 140 148 L 132 148 Z M 116 176 L 120 176 L 124 176 L 124 184 L 116 184 Z M 104 176 L 108 176 L 112 176 L 112 184 L 104 184 Z M 92 176 L 96 176 L 100 176 L 100 184 L 92 184 Z M 80 176 L 84 176 L 88 176 L 88 184 L 80 184 Z M 68 176 L 72 176 L 76 176 L 76 184 L 68 184 Z M 56 176 L 60 176 L 64 176 L 64 184 L 60 184 L 56 184 Z M 52 164 L 56 164 L 60 164 L 60 172 L 56 172 L 52 172 Z M 40 164 L 44 164 L 48 164 L 48 172 L 44 172 L 40 172 Z M 56 160 L 52 160 L 48 160 L 48 152 L 56 152 Z M 68 160 L 64 160 L 60 160 L 60 152 L 68 152 Z M 80 160 L 76 160 L 72 160 L 72 152 L 80 152 Z M 92 160 L 88 160 L 84 160 L 84 152 L 92 152 Z M 104 160 L 100 160 L 96 160 L 96 152 L 104 152 Z M 116 160 L 112 160 L 108 160 L 108 152 L 116 152 Z M 128 160 L 124 160 L 120 160 L 120 152 L 128 152 Z M 112 164 L 116 164 L 120 164 L 120 172 L 116 172 L 112 172 Z M 100 164 L 104 164 L 108 164 L 108 172 L 104 172 L 100 172 Z M 88 164 L 92 164 L 96 164 L 96 172 L 92 172 L 88 172 Z M 76 164 L 80 164 L 84 164 L 84 172 L 80 172 L 76 172 Z M 64 164 L 68 164 L 72 164 L 72 172 L 68 172 L 64 172 Z M 132 172 L 128 172 L 124 172 L 124 164 L 128 164 L 132 164 Z M 140 160 L 136 160 L 132 160 L 132 152 L 140 152 Z M 36 152 L 44 152 L 44 160 L 40 160 L 36 160 Z M 136 184 L 128 184 L 128 176 L 132 176 L 136 176 Z M 144 172 L 140 172 L 136 172 L 136 164 L 140 164 L 144 164 Z M 152 160 L 148 160 L 144 160 L 144 152 L 152 152 Z M 144 140 L 152 140 L 152 148 L 144 148 Z M 156 136 L 152 136 L 144 136 L 140 136 L 132 136 L 128 136 L 120 136 L 116 136 L 108 136 L 104 136 L 96 136 L 92 136 L 84 136 L 80 136 L 72 136 L 68 136 L 60 136 L 56 136 L 48 136 L 44 136 L 36 136 L 32 136 L 24 136 L 20 136 L 20 140 L 20 148 L 20 152 L 20 160 L 20 164 L 20 172 L 20 176 L 20 184 L 20 188 L 20 196 L 20 200 L 24 200 L 36 200 L 40 200 L 40 196 L 40 188 L 44 188 L 44 196 L 44 200 L 48 200 L 60 200 L 64 200 L 124 200 L 128 200 L 140 200 L 144 200 L 148 200 L 160 200 L 164 200 L 164 196 L 164 188 L 164 184 L 164 176 L 164 172 L 164 164 L 164 160 L 164 152 L 164 148 L 164 140 L 164 136 L 160 136 Z"/>
</svg>
