<?xml version="1.0" encoding="UTF-8"?>
<!-- Generated by Pixelmator Pro 3.7.1 -->
<svg width="256" height="256" viewBox="0 0 256 256" xmlns="http://www.w3.org/2000/svg">
    <path id="Path" fill="#ffffff" stroke="none" d="M 248 108 L 244 108 L 12 108 L 8 108 L 8 112 L 8 216 L 8 220 L 12 220 L 244 220 L 248 220 L 248 216 L 248 112 Z M 244 216 L 12 216 L 12 112 L 244 112 Z"/>
    <path id="path1" fill="#ffffff" stroke="none" d="M 240 128 L 236 128 L 20 128 L 16 128 L 16 132 L 16 208 L 16 212 L 20 212 L 236 212 L 240 212 L 240 208 L 240 132 Z M 236 208 L 20 208 L 20 132 L 236 132 Z"/>
    <path id="path2" fill="#ffffff" stroke="none" d="M 244 40 L 12 40 L 8 112 L 248 112 Z M 240.216003 44 L 243.772003 108 L 12.227997 108 L 15.783997 44 Z"/>
    <path id="path3" fill="#ffffff" stroke="none" d="M 240 116 L 236 116 L 20 116 L 16 116 L 16 120 L 16 128 L 16 132 L 20 132 L 236 132 L 240 132 L 240 128 L 240 120 Z M 236 128 L 20 128 L 20 120 L 236 120 Z"/>
    <path id="path4" fill="#ffffff" stroke="none" d="M 88 128 L 84 128 L 76 128 L 72 128 L 72 132 L 72 140 L 72 144 L 76 144 L 84 144 L 88 144 L 88 140 L 88 132 Z M 84 140 L 76 140 L 76 132 L 84 132 Z"/>
    <path id="path5" fill="#ffffff" stroke="none" d="M 100 128 L 96 128 L 88 128 L 84 128 L 84 132 L 84 140 L 84 144 L 88 144 L 96 144 L 100 144 L 100 140 L 100 132 Z M 96 140 L 88 140 L 88 132 L 96 132 Z"/>
    <path id="path6" fill="#ffffff" stroke="none" d="M 112 128 L 108 128 L 100 128 L 96 128 L 96 132 L 96 140 L 96 144 L 100 144 L 108 144 L 112 144 L 112 140 L 112 132 Z M 108 140 L 100 140 L 100 132 L 108 132 Z"/>
    <path id="path7" fill="#ffffff" stroke="none" d="M 124 128 L 120 128 L 112 128 L 108 128 L 108 132 L 108 140 L 108 144 L 112 144 L 120 144 L 124 144 L 124 140 L 124 132 Z M 120 140 L 112 140 L 112 132 L 120 132 Z"/>
    <path id="path8" fill="#ffffff" stroke="none" d="M 136 128 L 132 128 L 124 128 L 120 128 L 120 132 L 120 140 L 120 144 L 124 144 L 132 144 L 136 144 L 136 140 L 136 132 Z M 132 140 L 124 140 L 124 132 L 132 132 Z"/>
    <path id="path9" fill="#ffffff" stroke="none" d="M 148 128 L 144 128 L 136 128 L 132 128 L 132 132 L 132 140 L 132 144 L 136 144 L 144 144 L 148 144 L 148 140 L 148 132 Z M 144 140 L 136 140 L 136 132 L 144 132 Z"/>
    <path id="path10" fill="#ffffff" stroke="none" d="M 160 128 L 156 128 L 148 128 L 144 128 L 144 132 L 144 140 L 144 144 L 148 144 L 156 144 L 160 144 L 160 140 L 160 132 Z M 156 140 L 148 140 L 148 132 L 156 132 Z"/>
    <path id="path11" fill="#ffffff" stroke="none" d="M 172 128 L 168 128 L 160 128 L 156 128 L 156 132 L 156 140 L 156 144 L 160 144 L 168 144 L 172 144 L 172 140 L 172 132 Z M 168 140 L 160 140 L 160 132 L 168 132 Z"/>
    <path id="path12" fill="#ffffff" stroke="none" d="M 184 128 L 180 128 L 172 128 L 168 128 L 168 132 L 168 140 L 168 144 L 172 144 L 180 144 L 184 144 L 184 140 L 184 132 Z M 180 140 L 172 140 L 172 132 L 180 132 Z"/>
    <path id="path13" fill="#ffffff" stroke="none" d="M 196 128 L 192 128 L 184 128 L 180 128 L 180 132 L 180 140 L 180 144 L 184 144 L 192 144 L 196 144 L 196 140 L 196 132 Z M 192 140 L 184 140 L 184 132 L 192 132 Z"/>
    <path id="path14" fill="#ffffff" stroke="none" d="M 60 140 L 56 140 L 48 140 L 44 140 L 44 144 L 44 152 L 44 156 L 48 156 L 56 156 L 60 156 L 60 152 L 60 144 Z M 56 152 L 48 152 L 48 144 L 56 144 Z"/>
    <path id="path15" fill="#ffffff" stroke="none" d="M 56 164 L 52 164 L 44 164 L 40 164 L 40 168 L 40 176 L 40 180 L 44 180 L 52 180 L 56 180 L 56 176 L 56 168 Z M 52 176 L 44 176 L 44 168 L 52 168 Z"/>
    <path id="path16" fill="#ffffff" stroke="none" d="M 88 176 L 84 176 L 76 176 L 72 176 L 72 180 L 72 188 L 72 192 L 76 192 L 84 192 L 88 192 L 88 188 L 88 180 Z M 84 188 L 76 188 L 76 180 L 84 180 Z"/>
    <path id="path17" fill="#ffffff" stroke="none" d="M 100 176 L 96 176 L 88 176 L 84 176 L 84 180 L 84 188 L 84 192 L 88 192 L 96 192 L 100 192 L 100 188 L 100 180 Z M 96 188 L 88 188 L 88 180 L 96 180 Z"/>
    <path id="path18" fill="#ffffff" stroke="none" d="M 176 188 L 172 188 L 84 188 L 80 188 L 80 192 L 80 200 L 80 204 L 84 204 L 172 204 L 176 204 L 176 200 L 176 192 Z M 172 200 L 84 200 L 84 192 L 172 192 Z"/>
    <path id="path19" fill="#ffffff" stroke="none" d="M 112 176 L 108 176 L 100 176 L 96 176 L 96 180 L 96 188 L 96 192 L 100 192 L 108 192 L 112 192 L 112 188 L 112 180 Z M 108 188 L 100 188 L 100 180 L 108 180 Z"/>
    <path id="path20" fill="#ffffff" stroke="none" d="M 124 176 L 120 176 L 112 176 L 108 176 L 108 180 L 108 188 L 108 192 L 112 192 L 120 192 L 124 192 L 124 188 L 124 180 Z M 120 188 L 112 188 L 112 180 L 120 180 Z"/>
    <path id="path21" fill="#ffffff" stroke="none" d="M 136 176 L 132 176 L 124 176 L 120 176 L 120 180 L 120 188 L 120 192 L 124 192 L 132 192 L 136 192 L 136 188 L 136 180 Z M 132 188 L 124 188 L 124 180 L 132 180 Z"/>
    <path id="path22" fill="#ffffff" stroke="none" d="M 148 176 L 144 176 L 136 176 L 132 176 L 132 180 L 132 188 L 132 192 L 136 192 L 144 192 L 148 192 L 148 188 L 148 180 Z M 144 188 L 136 188 L 136 180 L 144 180 Z"/>
    <path id="path23" fill="#ffffff" stroke="none" d="M 160 176 L 156 176 L 148 176 L 144 176 L 144 180 L 144 188 L 144 192 L 148 192 L 156 192 L 160 192 L 160 188 L 160 180 Z M 156 188 L 148 188 L 148 180 L 156 180 Z"/>
    <path id="path24" fill="#ffffff" stroke="none" d="M 172 176 L 168 176 L 160 176 L 156 176 L 156 180 L 156 188 L 156 192 L 160 192 L 168 192 L 172 192 L 172 188 L 172 180 Z M 168 188 L 160 188 L 160 180 L 168 180 Z"/>
    <path id="path25" fill="#ffffff" stroke="none" d="M 184 176 L 180 176 L 172 176 L 168 176 L 168 180 L 168 188 L 168 192 L 172 192 L 180 192 L 184 192 L 184 188 L 184 180 Z M 180 188 L 172 188 L 172 180 L 180 180 Z"/>
    <path id="path26" fill="#ffffff" stroke="none" d="M 200 176 L 196 176 L 184 176 L 180 176 L 180 180 L 180 188 L 180 192 L 184 192 L 196 192 L 200 192 L 200 188 L 200 180 Z M 196 188 L 184 188 L 184 180 L 196 180 Z"/>
    <path id="path27" fill="#ffffff" stroke="none" d="M 212 176 L 208 176 L 200 176 L 196 176 L 196 180 L 196 188 L 196 192 L 200 192 L 208 192 L 212 192 L 212 188 L 212 180 Z M 208 188 L 200 188 L 200 180 L 208 180 Z"/>
    <path id="path28" fill="#ffffff" stroke="none" d="M 224 176 L 220 176 L 212 176 L 208 176 L 208 180 L 208 188 L 208 192 L 212 192 L 220 192 L 224 192 L 224 188 L 224 180 Z M 220 188 L 212 188 L 212 180 L 220 180 Z"/>
    <path id="path29" fill="#ffffff" stroke="none" d="M 76 176 L 72 176 L 56 176 L 52 176 L 52 180 L 52 188 L 52 192 L 56 192 L 72 192 L 76 192 L 76 188 L 76 180 Z M 72 188 L 56 188 L 56 180 L 72 180 Z"/>
    <path id="path30" fill="#ffffff" stroke="none" d="M 68 164 L 64 164 L 56 164 L 52 164 L 52 168 L 52 176 L 52 180 L 56 180 L 64 180 L 68 180 L 68 176 L 68 168 Z M 64 176 L 56 176 L 56 168 L 64 168 Z"/>
    <path id="path31" fill="#ffffff" stroke="none" d="M 80 164 L 76 164 L 68 164 L 64 164 L 64 168 L 64 176 L 64 180 L 68 180 L 76 180 L 80 180 L 80 176 L 80 168 Z M 76 176 L 68 176 L 68 168 L 76 168 Z"/>
    <path id="path32" fill="#ffffff" stroke="none" d="M 92 164 L 88 164 L 80 164 L 76 164 L 76 168 L 76 176 L 76 180 L 80 180 L 88 180 L 92 180 L 92 176 L 92 168 Z M 88 176 L 80 176 L 80 168 L 88 168 Z"/>
    <path id="path33" fill="#ffffff" stroke="none" d="M 104 164 L 100 164 L 92 164 L 88 164 L 88 168 L 88 176 L 88 180 L 92 180 L 100 180 L 104 180 L 104 176 L 104 168 Z M 100 176 L 92 176 L 92 168 L 100 168 Z"/>
    <path id="path34" fill="#ffffff" stroke="none" d="M 116 164 L 112 164 L 104 164 L 100 164 L 100 168 L 100 176 L 100 180 L 104 180 L 112 180 L 116 180 L 116 176 L 116 168 Z M 112 176 L 104 176 L 104 168 L 112 168 Z"/>
    <path id="path35" fill="#ffffff" stroke="none" d="M 128 164 L 124 164 L 116 164 L 112 164 L 112 168 L 112 176 L 112 180 L 116 180 L 124 180 L 128 180 L 128 176 L 128 168 Z M 124 176 L 116 176 L 116 168 L 124 168 Z"/>
    <path id="path36" fill="#ffffff" stroke="none" d="M 140 164 L 136 164 L 128 164 L 124 164 L 124 168 L 124 176 L 124 180 L 128 180 L 136 180 L 140 180 L 140 176 L 140 168 Z M 136 176 L 128 176 L 128 168 L 136 168 Z"/>
    <path id="path37" fill="#ffffff" stroke="none" d="M 152 164 L 148 164 L 140 164 L 136 164 L 136 168 L 136 176 L 136 180 L 140 180 L 148 180 L 152 180 L 152 176 L 152 168 Z M 148 176 L 140 176 L 140 168 L 148 168 Z"/>
    <path id="path38" fill="#ffffff" stroke="none" d="M 164 164 L 160 164 L 152 164 L 148 164 L 148 168 L 148 176 L 148 180 L 152 180 L 160 180 L 164 180 L 164 176 L 164 168 Z M 160 176 L 152 176 L 152 168 L 160 168 Z"/>
    <path id="path39" fill="#ffffff" stroke="none" d="M 176 164 L 172 164 L 164 164 L 160 164 L 160 168 L 160 176 L 160 180 L 164 180 L 172 180 L 176 180 L 176 176 L 176 168 Z M 172 176 L 164 176 L 164 168 L 172 168 Z"/>
    <path id="path40" fill="#ffffff" stroke="none" d="M 188 164 L 184 164 L 176 164 L 172 164 L 172 168 L 172 176 L 172 180 L 176 180 L 184 180 L 188 180 L 188 176 L 188 168 Z M 184 176 L 176 176 L 176 168 L 184 168 Z"/>
    <path id="path41" fill="#ffffff" stroke="none" d="M 200 164 L 196 164 L 188 164 L 184 164 L 184 168 L 184 176 L 184 180 L 188 180 L 196 180 L 200 180 L 200 176 L 200 168 Z M 196 176 L 188 176 L 188 168 L 196 168 Z"/>
    <path id="path42" fill="#ffffff" stroke="none" d="M 224 164 L 220 164 L 200 164 L 196 164 L 196 168 L 196 176 L 196 180 L 200 180 L 220 180 L 224 180 L 224 176 L 224 168 Z M 220 176 L 200 176 L 200 168 L 220 168 Z"/>
    <path id="path43" fill="#ffffff" stroke="none" d="M 64 152 L 60 152 L 48 152 L 44 152 L 44 156 L 44 164 L 44 168 L 48 168 L 60 168 L 64 168 L 64 164 L 64 156 Z M 60 164 L 48 164 L 48 156 L 60 156 Z"/>
    <path id="path44" fill="#ffffff" stroke="none" d="M 72 140 L 68 140 L 60 140 L 56 140 L 56 144 L 56 152 L 56 156 L 60 156 L 68 156 L 72 156 L 72 152 L 72 144 Z M 68 152 L 60 152 L 60 144 L 68 144 Z"/>
    <path id="path45" fill="#ffffff" stroke="none" d="M 76 152 L 72 152 L 64 152 L 60 152 L 60 156 L 60 164 L 60 168 L 64 168 L 72 168 L 76 168 L 76 164 L 76 156 Z M 72 164 L 64 164 L 64 156 L 72 156 Z"/>
    <path id="path46" fill="#ffffff" stroke="none" d="M 88 152 L 84 152 L 76 152 L 72 152 L 72 156 L 72 164 L 72 168 L 76 168 L 84 168 L 88 168 L 88 164 L 88 156 Z M 84 164 L 76 164 L 76 156 L 84 156 Z"/>
    <path id="path47" fill="#ffffff" stroke="none" d="M 100 152 L 96 152 L 88 152 L 84 152 L 84 156 L 84 164 L 84 168 L 88 168 L 96 168 L 100 168 L 100 164 L 100 156 Z M 96 164 L 88 164 L 88 156 L 96 156 Z"/>
    <path id="path48" fill="#ffffff" stroke="none" d="M 112 152 L 108 152 L 100 152 L 96 152 L 96 156 L 96 164 L 96 168 L 100 168 L 108 168 L 112 168 L 112 164 L 112 156 Z M 108 164 L 100 164 L 100 156 L 108 156 Z"/>
    <path id="path49" fill="#ffffff" stroke="none" d="M 124 152 L 120 152 L 112 152 L 108 152 L 108 156 L 108 164 L 108 168 L 112 168 L 120 168 L 124 168 L 124 164 L 124 156 Z M 120 164 L 112 164 L 112 156 L 120 156 Z"/>
    <path id="path50" fill="#ffffff" stroke="none" d="M 136 152 L 132 152 L 124 152 L 120 152 L 120 156 L 120 164 L 120 168 L 124 168 L 132 168 L 136 168 L 136 164 L 136 156 Z M 132 164 L 124 164 L 124 156 L 132 156 Z"/>
    <path id="path51" fill="#ffffff" stroke="none" d="M 148 152 L 144 152 L 136 152 L 132 152 L 132 156 L 132 164 L 132 168 L 136 168 L 144 168 L 148 168 L 148 164 L 148 156 Z M 144 164 L 136 164 L 136 156 L 144 156 Z"/>
    <path id="path52" fill="#ffffff" stroke="none" d="M 160 152 L 156 152 L 148 152 L 144 152 L 144 156 L 144 164 L 144 168 L 148 168 L 156 168 L 160 168 L 160 164 L 160 156 Z M 156 164 L 148 164 L 148 156 L 156 156 Z"/>
    <path id="path53" fill="#ffffff" stroke="none" d="M 172 152 L 168 152 L 160 152 L 156 152 L 156 156 L 156 164 L 156 168 L 160 168 L 168 168 L 172 168 L 172 164 L 172 156 Z M 168 164 L 160 164 L 160 156 L 168 156 Z"/>
    <path id="path54" fill="#ffffff" stroke="none" d="M 184 152 L 180 152 L 172 152 L 168 152 L 168 156 L 168 164 L 168 168 L 172 168 L 180 168 L 184 168 L 184 164 L 184 156 Z M 180 164 L 172 164 L 172 156 L 180 156 Z"/>
    <path id="path55" fill="#ffffff" stroke="none" d="M 196 152 L 192 152 L 184 152 L 180 152 L 180 156 L 180 164 L 180 168 L 184 168 L 192 168 L 196 168 L 196 164 L 196 156 Z M 192 164 L 184 164 L 184 156 L 192 156 Z"/>
    <path id="path56" fill="#ffffff" stroke="none" d="M 208 152 L 204 152 L 196 152 L 192 152 L 192 156 L 192 164 L 192 168 L 196 168 L 204 168 L 208 168 L 208 164 L 208 156 Z M 204 164 L 196 164 L 196 156 L 204 156 Z"/>
    <path id="path57" fill="#ffffff" stroke="none" d="M 220 152 L 216 152 L 208 152 L 204 152 L 204 156 L 204 164 L 204 168 L 208 168 L 216 168 L 220 168 L 220 164 L 220 156 Z M 216 164 L 208 164 L 208 156 L 216 156 Z"/>
    <path id="path58" fill="#ffffff" stroke="none" d="M 232 152 L 228 152 L 220 152 L 216 152 L 216 156 L 216 164 L 216 168 L 220 168 L 228 168 L 232 168 L 232 164 L 232 156 Z M 228 164 L 220 164 L 220 156 L 228 156 Z"/>
    <path id="path59" fill="#ffffff" stroke="none" d="M 84 140 L 80 140 L 72 140 L 68 140 L 68 144 L 68 152 L 68 156 L 72 156 L 80 156 L 84 156 L 84 152 L 84 144 Z M 80 152 L 72 152 L 72 144 L 80 144 Z"/>
    <path id="path60" fill="#ffffff" stroke="none" d="M 96 140 L 92 140 L 84 140 L 80 140 L 80 144 L 80 152 L 80 156 L 84 156 L 92 156 L 96 156 L 96 152 L 96 144 Z M 92 152 L 84 152 L 84 144 L 92 144 Z"/>
    <path id="path61" fill="#ffffff" stroke="none" d="M 108 140 L 104 140 L 96 140 L 92 140 L 92 144 L 92 152 L 92 156 L 96 156 L 104 156 L 108 156 L 108 152 L 108 144 Z M 104 152 L 96 152 L 96 144 L 104 144 Z"/>
    <path id="path62" fill="#ffffff" stroke="none" d="M 120 140 L 116 140 L 108 140 L 104 140 L 104 144 L 104 152 L 104 156 L 108 156 L 116 156 L 120 156 L 120 152 L 120 144 Z M 116 152 L 108 152 L 108 144 L 116 144 Z"/>
    <path id="path63" fill="#ffffff" stroke="none" d="M 132 140 L 128 140 L 120 140 L 116 140 L 116 144 L 116 152 L 116 156 L 120 156 L 128 156 L 132 156 L 132 152 L 132 144 Z M 128 152 L 120 152 L 120 144 L 128 144 Z"/>
    <path id="path64" fill="#ffffff" stroke="none" d="M 144 140 L 140 140 L 132 140 L 128 140 L 128 144 L 128 152 L 128 156 L 132 156 L 140 156 L 144 156 L 144 152 L 144 144 Z M 140 152 L 132 152 L 132 144 L 140 144 Z"/>
    <path id="path65" fill="#ffffff" stroke="none" d="M 156 140 L 152 140 L 144 140 L 140 140 L 140 144 L 140 152 L 140 156 L 144 156 L 152 156 L 156 156 L 156 152 L 156 144 Z M 152 152 L 144 152 L 144 144 L 152 144 Z"/>
    <path id="path66" fill="#ffffff" stroke="none" d="M 168 140 L 164 140 L 156 140 L 152 140 L 152 144 L 152 152 L 152 156 L 156 156 L 164 156 L 168 156 L 168 152 L 168 144 Z M 164 152 L 156 152 L 156 144 L 164 144 Z"/>
    <path id="path67" fill="#ffffff" stroke="none" d="M 180 140 L 176 140 L 168 140 L 164 140 L 164 144 L 164 152 L 164 156 L 168 156 L 176 156 L 180 156 L 180 152 L 180 144 Z M 176 152 L 168 152 L 168 144 L 176 144 Z"/>
    <path id="path68" fill="#ffffff" stroke="none" d="M 192 140 L 188 140 L 180 140 L 176 140 L 176 144 L 176 152 L 176 156 L 180 156 L 188 156 L 192 156 L 192 152 L 192 144 Z M 188 152 L 180 152 L 180 144 L 188 144 Z"/>
    <path id="path69" fill="#ffffff" stroke="none" d="M 204 140 L 200 140 L 192 140 L 188 140 L 188 144 L 188 152 L 188 156 L 192 156 L 200 156 L 204 156 L 204 152 L 204 144 Z M 200 152 L 192 152 L 192 144 L 200 144 Z"/>
    <path id="path70" fill="#ffffff" stroke="none" d="M 216 140 L 212 140 L 204 140 L 200 140 L 200 144 L 200 152 L 200 156 L 204 156 L 212 156 L 216 156 L 216 152 L 216 144 Z M 212 152 L 204 152 L 204 144 L 212 144 Z"/>
    <path id="path71" fill="#ffffff" stroke="none" d="M 228 140 L 224 140 L 216 140 L 212 140 L 212 144 L 212 152 L 212 156 L 216 156 L 224 156 L 228 156 L 228 152 L 228 144 Z M 224 152 L 216 152 L 216 144 L 224 144 Z"/>
    <path id="path72" fill="#ffffff" stroke="none" d="M 52 202 C 52 203.104996 51.105 204 50 204 C 48.895 204 48 203.104996 48 202 C 48 200.895004 48.895 200 50 200 C 51.105 200 52 200.895004 52 202"/>
    <path id="path73" fill="#ffffff" stroke="none" d="M 76 202 C 76 203.104996 75.105003 204 74 204 C 72.894997 204 72 203.104996 72 202 C 72 200.895004 72.894997 200 74 200 C 75.105003 200 76 200.895004 76 202"/>
    <path id="path74" fill="#ffffff" stroke="none" d="M 64 202 C 64 203.104996 63.105 204 62 204 C 60.895 204 60 203.104996 60 202 C 60 200.895004 60.895 200 62 200 C 63.105 200 64 200.895004 64 202"/>
</svg>
