<?xml version="1.0" encoding="UTF-8"?>
<!-- Generated by Pixelmator Pro 3.7.1 -->
<svg width="256" height="256" viewBox="0 0 256 256" xmlns="http://www.w3.org/2000/svg">
    <path id="Path" fill="#ffffff" stroke="none" d="M 238.727402 8 L 17.272398 8 C 12.159407 8 8.000395 12.160004 8.000395 17.272995 L 8.000395 217.636002 L 8.000395 219.039993 L 8.876402 220.134995 L 29.967405 246.498993 L 31.168394 248 L 33.0914 248 L 238.727402 248 C 243.840393 248 248.000397 243.839996 248.000397 238.727005 L 248.000397 17.272995 C 248.000397 12.160004 243.840393 8 238.727402 8 M 238.727402 12 C 241.643402 12 244.000397 14.356995 244.000397 17.272995 L 244.000397 238.727005 C 244.000397 241.643005 241.643402 244 238.727402 244 L 33.0914 244 L 12.000395 217.636002 L 12.000395 17.272995 C 12.000395 14.356995 14.356398 12 17.272398 12 Z"/>
    <path id="path1" fill="#ffffff" stroke="none" d="M 240 32 L 224 32 L 224 44 L 240 44 Z M 236 40 L 228 40 L 228 36 L 236 36 Z"/>
    <path id="path2" fill="#ffffff" stroke="none" d="M 213.8461 152 L 66.154099 152 C 60.555099 152 56.000107 156.425995 56.000107 161.867004 L 56.000107 244 L 56.000107 248 L 60.000107 248 L 220.000107 248 L 224.000107 248 L 224.000107 244 L 224.000107 161.867004 C 224.000107 156.425995 219.445099 152 213.8461 152 M 213.8461 156 C 217.2491 156 220.000107 158.622009 220.000107 161.867004 L 220.000107 244 L 60.000107 244 L 60.000107 161.867004 C 60.000107 158.622009 62.751099 156 66.154099 156 Z"/>
    <path id="path3" fill="#ffffff" stroke="none" d="M 221.999802 8 L 217.999802 8 L 37.999802 8 L 33.999802 8 L 33.999802 12 L 33.999802 122.199997 C 33.999802 127.604004 38.168808 132 43.293808 132 L 212.705795 132 C 217.830795 132 221.999802 127.604004 221.999802 122.199997 L 221.999802 12 Z M 217.999802 12 L 217.999802 122.199997 C 217.999802 125.406998 215.633804 128 212.705795 128 L 43.293808 128 C 40.365799 128 37.999802 125.406998 37.999802 122.199997 L 37.999802 12 Z"/>
    <path id="path4" fill="#ffffff" stroke="none" d="M 84.544998 175.27301 L 113.454002 175.27301 L 113.454002 232.727997 L 84.544998 232.727997 Z M 180.727005 160 L 75.273003 160 C 70.072998 160 66 164.951996 66 171.27301 L 66 244 L 66 248 L 70 248 L 186 248 L 190 248 L 190 244 L 190 171.27301 C 190 164.951996 185.927002 160 180.727005 160 M 80.544998 236.727005 L 117.454002 236.727005 L 117.454002 171.272003 L 80.544998 171.272003 Z M 180.727005 164 C 183.643005 164 186 167.251007 186 171.27301 L 186 244 L 70 244 L 70 171.27301 C 70 167.251007 72.357002 164 75.273003 164 Z"/>
</svg>
