<?xml version="1.0" encoding="UTF-8"?>
<!-- Generated by Pixelmator Pro 3.7.1 -->
<svg width="256" height="256" viewBox="0 0 256 256" xmlns="http://www.w3.org/2000/svg">
    <path id="Path" fill="#ffffff" stroke="none" d="M 226 164 C 227.104996 164 228 164.894989 228 166 L 228 218 C 228 219.104996 227.104996 220 226 220 L 30 220 C 28.895004 220 28 219.104996 28 218 L 28 166 C 28 164.894989 28.895004 164 30 164 Z M 44 96 L 44 24 L 48 24 L 48 96 L 52 96 L 52 24 L 56 24 L 56 96 L 60 96 L 60 24 L 64 24 L 64 96 L 68 96 L 68 24 L 72 24 L 72 96 L 76 96 L 76 24 L 80 24 L 80 96 L 84 96 L 84 24 L 88 24 L 88 96 L 92 96 L 92 24 L 96 24 L 96 96 L 100 96 L 100 24 L 104 24 L 104 96 L 108 96 L 108 24 L 112 24 L 112 96 L 116 96 L 116 24 L 120 24 L 120 96 L 124 96 L 124 24 L 128 24 L 128 96 L 132 96 L 132 24 L 136 24 L 136 96 L 140 96 L 140 24 L 144 24 L 144 96 L 148 96 L 148 24 L 152 24 L 152 96 L 156 96 L 156 24 L 160 24 L 160 96 L 164 96 L 164 24 L 168 24 L 168 96 L 172 96 L 172 24 L 176 24 L 176 96 L 180 96 L 180 24 L 184 24 L 184 96 L 188 96 L 188 24 L 192 24 L 192 96 L 196 96 L 196 24 L 200 24 L 200 96 L 204 96 L 204 24 L 208 24 L 208 96 L 212 96 L 212 24 L 215.867996 24 C 218.132004 24 219.983994 25.725998 220.044998 27.891998 L 223.776001 160 L 32.223999 160 L 35.955002 27.891998 C 36.014999 25.768997 37.798004 24.080002 40 24.013 L 40 96 Z M 240 212 L 232 212 L 232 166 C 232 162.692001 229.307999 160 226 160 L 227.776993 160 L 224.044006 27.779007 C 223.921005 23.417007 220.328995 20 215.867996 20 L 40.132004 20 C 35.671005 20 32.078995 23.417007 31.955994 27.779007 L 28.223007 160 L 30 160 C 26.692001 160 24 162.692001 24 166 L 24 218 C 24 221.307999 26.692001 224 30 224 L 226 224 C 229.307999 224 232 221.307999 232 218 L 232 228 L 196 228 L 24 228 L 16 228 L 16 16 L 240 16 Z M 232 236 C 232 238.209 230.209 240 228 240 L 198 240 C 196.895004 240 196 239.105011 196 238 L 196 236 L 196 232 L 232 232 Z M 28 232 L 192 232 L 192 236 L 28 236 Z M 22 240 L 20 240 C 17.791 240 16 238.209 16 236 L 16 232 L 24 232 L 24 238 C 24 239.105011 23.104996 240 22 240 M 240 12 L 16 12 L 12 12 L 12 16 L 12 232 L 12 236 C 12 240.411011 15.589005 244 20 244 L 22 244 C 24.606003 244 26.824005 242.326996 27.649994 240 L 192.350006 240 C 193.175995 242.326996 195.393997 244 198 244 L 228 244 C 232.410995 244 236 240.411011 236 236 L 236 232 L 236 216 L 240 216 L 244 216 L 244 212 L 244 16 L 244 12 Z"/>
</svg>
