<?xml version="1.0" encoding="UTF-8"?>
<!-- Generated by Pixelmator Pro 3.7.1 -->
<svg width="256" height="256" viewBox="0 0 256 256" xmlns="http://www.w3.org/2000/svg">
    <path id="Path" fill="#ffffff" stroke="none" d="M 128.000107 232 C 123.589104 232 120.000099 228.410995 120.000099 224 L 120.000099 192 C 120.000099 187.589005 123.589104 184 128.000107 184 C 132.411102 184 136.000107 187.589005 136.000107 192 L 136.000107 224 C 136.000107 228.410995 132.411102 232 128.000107 232 M 170.000107 144.5 C 168.897095 144.5 168.000107 143.602997 168.000107 142.5 C 168.000107 141.397003 168.897095 140.5 170.000107 140.5 C 171.103104 140.5 172.000107 141.397003 172.000107 142.5 C 172.000107 143.602997 171.103104 144.5 170.000107 144.5 M 128.000107 156 C 112.561096 156 100.000099 143.438995 100.000099 128 C 100.000099 112.561005 112.561096 100 128.000107 100 C 143.439102 100 156.000107 112.561005 156.000107 128 C 156.000107 143.438995 143.439102 156 128.000107 156 M 239.857101 8 L 16.143097 8 C 11.6531 8 8.0001 11.653 8.0001 16.143005 L 8.0001 239.856995 C 8.0001 244.347 11.6531 248 16.143097 248 L 96.000099 248 L 100.000099 248 L 100.000099 244 L 100.000099 248 L 104.000099 248 L 152.000107 248 L 156.000107 248 L 156.000107 244 L 156.000107 248 L 160.000107 248 L 239.857101 248 C 244.347107 248 248.000107 244.347 248.000107 239.856995 L 248.000107 76 L 248.000107 72 L 244.000107 72 L 243.857101 72 L 244.000107 72 L 248.000107 72 L 248.000107 68 L 248.000107 16.143005 C 248.000107 11.653 244.347107 8 239.857101 8 M 128.000107 236 C 134.648102 236 140.000107 230.647995 140.000107 224 L 140.000107 192 C 140.000107 185.352005 134.648102 180 128.000107 180 C 121.352097 180 116.000099 185.352005 116.000099 192 L 116.000099 224 C 116.000099 230.647995 121.352097 236 128.000107 236 M 170.000107 148.5 C 173.314102 148.5 176.000107 145.813995 176.000107 142.5 C 176.000107 139.186005 173.314102 136.5 170.000107 136.5 C 166.686096 136.5 164.000107 139.186005 164.000107 142.5 C 164.000107 145.813995 166.686096 148.5 170.000107 148.5 M 128.000107 160 C 145.673096 160 160.000107 145.673004 160.000107 128 C 160.000107 110.326996 145.673096 96 128.000107 96 C 110.327103 96 96.000099 110.326996 96.000099 128 C 96.000099 145.673004 110.327103 160 128.000107 160 M 239.857101 12 C 242.1521 12 244.000107 13.848007 244.000107 16.143005 L 244.000107 68 L 239.857101 68 L 239.857101 76 L 244.000107 76 L 244.000107 239.856995 C 244.000107 242.152008 242.1521 244 239.857101 244 L 160.000107 244 C 160.000107 241.712006 158.288101 239.856995 156.000107 239.856995 C 153.712097 239.856995 152.000107 241.712006 152.000107 244 L 104.000099 244 C 104.000099 241.712006 102.288101 239.856995 100.000099 239.856995 C 97.712097 239.856995 96.000099 241.712006 96.000099 244 L 16.143097 244 C 13.8481 244 12.0001 242.152008 12.0001 239.856995 L 12.0001 16.143005 C 12.0001 13.848007 13.8481 12 16.143097 12 Z"/>
    <path id="path1" fill="#ffffff" stroke="none" d="M 157.307693 16 L 22.692694 16 C 18.939703 16 15.999701 19.514008 15.999701 24 L 15.999701 72 C 15.999701 76.485992 18.939703 80 22.692694 80 L 157.307693 80 C 161.060699 80 163.999695 76.485992 163.999695 72 L 163.999695 24 C 163.999695 19.514008 161.060699 16 157.307693 16 M 157.307693 20 C 158.794693 20 159.999695 21.791 159.999695 24 L 159.999695 72 C 159.999695 74.209 158.794693 76 157.307693 76 L 22.692694 76 C 21.205694 76 19.999701 74.209 19.999701 72 L 19.999701 24 C 19.999701 21.791 21.205694 20 22.692694 20 Z"/>
</svg>
