<?xml version="1.0" encoding="UTF-8"?>
<!-- Generated by Pixelmator Pro 3.7.1 -->
<svg width="256" height="256" viewBox="0 0 256 256" xmlns="http://www.w3.org/2000/svg">
    <path id="Path" fill="#ffffff" stroke="none" d="M 244 196 L 12 196 L 12 124 L 13.141998 124 L 31.764999 124 L 28 188 L 72 188 L 76 188 L 164 188 L 168 188 L 228 188 L 224.235001 124 L 242.858002 124 L 244 124 Z M 76 176 L 84 176 L 88 176 L 96 176 L 100 176 L 108 176 L 112 176 L 120 176 L 124 176 L 132 176 L 136 176 L 144 176 L 148 176 L 156 176 L 160 176 L 164 176 L 164 184 L 76 184 Z M 33.419006 164 L 36 164 L 36 172 L 36 176 L 40 176 L 48 176 L 52 176 L 60 176 L 64 176 L 72 176 L 72 184 L 32.242004 184 Z M 36 128 L 36 136 L 35.065994 136 L 35.772003 124 L 36 124 Z M 196 136 L 196 128 L 208 128 L 208 136 L 204 136 L 200 136 Z M 192 152 L 200 152 L 200 160 L 196 160 L 192 160 Z M 184 164 L 188 164 L 192 164 L 192 172 L 184 172 Z M 172 164 L 176 164 L 180 164 L 180 172 L 172 172 Z M 160 164 L 164 164 L 168 164 L 168 172 L 164 172 L 160 172 Z M 148 164 L 152 164 L 156 164 L 156 172 L 148 172 Z M 136 164 L 140 164 L 144 164 L 144 172 L 136 172 Z M 124 164 L 128 164 L 132 164 L 132 172 L 124 172 Z M 112 164 L 116 164 L 120 164 L 120 172 L 112 172 Z M 100 164 L 104 164 L 108 164 L 108 172 L 100 172 Z M 88 164 L 92 164 L 96 164 L 96 172 L 88 172 Z M 76 164 L 80 164 L 84 164 L 84 172 L 76 172 Z M 64 164 L 68 164 L 72 164 L 72 172 L 64 172 Z M 52 164 L 56 164 L 60 164 L 60 172 L 52 172 Z M 40 164 L 44 164 L 48 164 L 48 172 L 40 172 Z M 36 152 L 44 152 L 44 160 L 40 160 L 36 160 Z M 44 140 L 44 148 L 36 148 L 36 140 L 40 140 Z M 48 136 L 44 136 L 40 136 L 40 128 L 48 128 Z M 60 136 L 56 136 L 52 136 L 52 128 L 60 128 Z M 72 136 L 68 136 L 64 136 L 64 128 L 72 128 Z M 84 136 L 80 136 L 76 136 L 76 128 L 84 128 Z M 96 136 L 92 136 L 88 136 L 88 128 L 96 128 Z M 108 136 L 104 136 L 100 136 L 100 128 L 108 128 Z M 120 136 L 116 136 L 112 136 L 112 128 L 120 128 Z M 132 136 L 128 136 L 124 136 L 124 128 L 132 128 Z M 144 136 L 140 136 L 136 136 L 136 128 L 144 128 Z M 156 136 L 152 136 L 148 136 L 148 128 L 156 128 Z M 168 136 L 164 136 L 160 136 L 160 128 L 168 128 Z M 180 136 L 176 136 L 172 136 L 172 128 L 180 128 Z M 168 152 L 176 152 L 176 160 L 172 160 L 168 160 Z M 156 152 L 164 152 L 164 160 L 160 160 L 156 160 Z M 144 152 L 152 152 L 152 160 L 148 160 L 144 160 Z M 132 152 L 140 152 L 140 160 L 136 160 L 132 160 Z M 120 152 L 128 152 L 128 160 L 124 160 L 120 160 Z M 108 152 L 116 152 L 116 160 L 112 160 L 108 160 Z M 96 152 L 104 152 L 104 160 L 100 160 L 96 160 Z M 84 152 L 92 152 L 92 160 L 88 160 L 84 160 Z M 72 152 L 80 152 L 80 160 L 76 160 L 72 160 Z M 60 152 L 68 152 L 68 160 L 64 160 L 60 160 Z M 68 148 L 60 148 L 60 140 L 64 140 L 68 140 Z M 80 148 L 72 148 L 72 140 L 76 140 L 80 140 Z M 92 148 L 84 148 L 84 140 L 88 140 L 92 140 Z M 104 148 L 96 148 L 96 140 L 100 140 L 104 140 Z M 116 148 L 108 148 L 108 140 L 112 140 L 116 140 Z M 128 148 L 120 148 L 120 140 L 124 140 L 128 140 Z M 140 148 L 132 148 L 132 140 L 136 140 L 140 140 Z M 152 148 L 144 148 L 144 140 L 148 140 L 152 140 Z M 164 148 L 156 148 L 156 140 L 160 140 L 164 140 Z M 176 148 L 168 148 L 168 140 L 172 140 L 176 140 Z M 48 140 L 52 140 L 56 140 L 56 148 L 48 148 Z M 48 152 L 56 152 L 56 160 L 52 160 L 48 160 Z M 188 160 L 184 160 L 180 160 L 180 152 L 188 152 Z M 188 148 L 180 148 L 180 140 L 184 140 L 188 140 Z M 192 136 L 188 136 L 184 136 L 184 128 L 192 128 Z M 200 148 L 192 148 L 192 140 L 196 140 L 200 140 Z M 223.757996 184 L 168 184 L 168 176 L 172 176 L 180 176 L 184 176 L 192 176 L 196 176 L 196 172 L 196 164 L 200 164 L 204 164 L 204 160 L 204 152 L 204 148 L 204 140 L 208 140 L 212 140 L 212 136 L 212 128 L 212 124 L 220.227997 124 Z M 20 60 L 236 60 L 243.848999 118.867996 C 243.929001 119.46701 243.462997 120 242.858002 120 L 224 120 L 32 120 L 13.141998 120 C 12.537003 120 12.070999 119.46701 12.151001 118.867996 Z M 247.813995 118.338989 L 239.964996 59.470993 L 239.501999 56 L 236 56 L 20 56 L 16.498001 56 L 16.035004 59.470993 L 8.186005 118.338989 C 8.112 118.89801 8 120 8 120 L 8 124 L 8 196 L 8 200 L 12 200 L 244 200 L 248 200 L 248 196 L 248 124 L 248 120 C 248 120 247.889008 118.899002 247.813995 118.338989"/>
</svg>
