<?xml version="1.0" encoding="UTF-8"?>
<!-- Generated by Pixelmator Pro 3.7.1 -->
<svg width="256" height="256" viewBox="0 0 256 256" xmlns="http://www.w3.org/2000/svg">
    <path id="Path" fill="#ffffff" stroke="none" d="M 221.511505 215.244202 C 220.525497 215.737198 219.367493 216.000198 218.183502 216.000198 L 37.715496 216.000198 C 36.617504 216.000198 35.563503 215.782196 34.787502 215.393204 L 11.999507 204.000198 L 29.135492 204.000198 L 38.865505 211.578201 C 39.216503 211.851196 39.649502 212.000198 40.094494 212.000198 L 215.905502 212.000198 C 216.350494 212.000198 216.783493 211.851196 217.134506 211.578201 L 226.864502 204.000198 L 243.999496 204.000198 Z M 220.354507 204.000198 L 215.218506 208.000198 L 40.781506 208.000198 L 35.645504 204.000198 Z M 19.461496 69.429199 C 19.763498 64.137207 24.143503 60.000198 29.444498 60.000198 L 57.872494 60.000198 L 52.254498 113.372192 C 52.0975 114.868195 52.512508 116.365204 53.399502 117.565201 C 52.670498 118.222198 52.099499 119.0522 51.777508 120.018204 L 50.4165 124.101196 C 49.617504 124.041199 48.813503 124.000198 47.999508 124.000198 C 30.355494 124.000198 15.999507 138.355194 15.999507 156.000198 C 15.999507 173.645203 30.355494 188.000198 47.999508 188.000198 C 48.216503 188.000198 48.430508 187.989197 48.646496 187.985199 C 49.269497 189.125198 50.311504 190.063202 51.673504 190.581207 L 51.952496 190.687195 L 52.243496 190.750198 L 75.716499 195.860199 C 76.34449 196.058197 77.000496 196.158203 77.671501 196.158203 L 132.011505 196.000198 L 186.316498 196.158203 C 186.997498 196.158203 187.655502 196.058197 188.283493 195.860199 L 211.7565 190.750198 L 212.047501 190.687195 L 212.3255 190.581207 C 214.046494 189.9272 215.259506 188.606201 215.748505 187.046204 C 229.660507 183.572205 239.999496 170.973206 239.999496 156.000198 C 239.999496 138.879211 226.484497 124.857193 209.5625 124.0392 L 208.222504 120.018204 C 207.900497 119.0522 207.329498 118.222198 206.600494 117.565201 C 207.487503 116.365204 207.902496 114.868195 207.745499 113.372192 L 202.127502 60.000198 L 226.555496 60.000198 C 231.856506 60.000198 236.236496 64.137207 236.538498 69.429199 L 243.999496 200.000198 L 226.177505 200.000198 L 29.822504 200.000198 L 11.999507 200.000198 Z M 205.933502 125.8022 L 215.227493 153.683197 C 215.612503 154.838196 214.651505 156.000198 213.311493 156.000198 L 179.999496 156.000198 L 175.999496 156.000198 L 79.999504 156.000198 L 75.999504 156.000198 L 46.688503 156.000198 C 45.348507 156.000198 44.387508 154.838196 44.772503 153.683197 L 55.572506 121.283203 C 55.826504 120.521194 56.604504 120.000198 57.488506 120.000198 L 58.221508 120.000198 L 201.778503 120.000198 L 202.511505 120.000198 C 203.395508 120.000198 204.173508 120.521194 204.427505 121.283203 L 205.372498 124.117203 Z M 41.764507 157.517197 C 41.818508 157.593201 41.882504 157.65921 41.940502 157.732208 C 40.746502 158.850189 39.999508 160.412201 39.999508 162.142197 L 39.999508 177.857208 C 39.999508 180.742203 42.068508 183.162201 44.844494 183.818207 C 30.866495 182.250198 19.999506 170.39621 19.999506 156.000198 C 19.999506 140.536194 32.535503 128.000198 47.999508 128.000198 C 48.371502 128.000198 48.740505 128.012207 49.108501 128.026199 L 40.977505 152.418198 C 40.397503 154.15921 40.683498 156.018188 41.764507 157.517197 M 210.905502 186.841202 L 187.211502 192.000198 C 186.9375 192.104202 186.635498 192.158203 186.328506 192.158203 L 131.999496 192.000198 L 77.671501 192.158203 C 77.364494 192.158203 77.062492 192.104202 76.78849 192.000198 L 53.094494 186.841202 C 51.230495 186.134201 51.893505 184.000198 53.977505 184.000198 L 131.999496 184.000198 L 210.022507 184.000198 C 212.106506 184.000198 212.769501 186.134201 210.905502 186.841202 M 213.649506 160.000198 C 214.945496 160.000198 215.999496 160.961197 215.999496 162.142197 L 215.999496 177.857208 C 215.999496 179.0392 214.945496 180.000198 213.649506 180.000198 L 210.022507 180.000198 L 193.574493 180.000198 L 186.867493 180.000198 L 131.999496 180.000198 L 69.1325 180.000198 L 62.425503 180.000198 L 53.977505 180.000198 L 46.350506 180.000198 C 45.054501 180.000198 43.999508 179.0392 43.999508 177.857208 L 43.999508 162.142197 C 43.999508 160.961197 45.054501 160.000198 46.350506 160.000198 L 46.688503 160.000198 L 75.710503 160.000198 L 79.741493 160.000198 L 176.258499 160.000198 L 180.289505 160.000198 L 213.311493 160.000198 Z M 218.059494 157.732208 C 218.117493 157.65921 218.181503 157.593201 218.235504 157.517197 C 219.316498 156.018188 219.602493 154.15921 219.022507 152.418198 L 210.934494 128.153198 C 225.018494 129.620209 235.999496 141.527191 235.999496 156.000198 C 235.999496 167.831207 228.658493 177.940201 218.286499 182.041199 C 219.345505 180.943207 219.999496 179.474197 219.999496 177.857208 L 219.999496 162.142197 C 219.999496 160.412201 219.253494 158.850189 218.059494 157.732208 M 62.061504 58.417206 L 62.315502 56.000198 L 63.057507 48.953201 C 63.593502 43.864197 67.884499 40.000198 73.002495 40.000198 L 186.997498 40.000198 C 192.114502 40.000198 196.406494 43.864197 196.942505 48.953201 L 197.684494 56.000198 L 197.938507 58.417206 L 203.767502 113.790192 C 203.891495 114.971191 202.9655 116.000198 201.778503 116.000198 L 58.221508 116.000198 C 57.034496 116.000198 56.108501 114.971191 56.232494 113.790192 Z M 248.235504 204.000198 L 247.9935 199.772202 L 240.532501 69.201202 C 240.109497 61.799194 233.969498 56.000198 226.555496 56.000198 L 201.706497 56.000198 L 200.920502 48.534195 C 200.168503 41.388199 194.182495 36.000198 186.997498 36.000198 L 73.002495 36.000198 C 65.817497 36.000198 59.831509 41.388199 59.079494 48.534195 L 58.293499 56.000198 L 29.444498 56.000198 C 22.030497 56.000198 15.890498 61.799194 15.467494 69.201202 L 8.006495 199.772202 L 7.764506 204.000198 L 7.999506 204.000198 L 7.999506 206.472198 L 10.211497 207.577209 L 32.998501 218.971191 C 34.324505 219.634201 36.0005 220.000198 37.715496 220.000198 L 218.183502 220.000198 C 219.989502 220.000198 221.758499 219.592194 223.300507 218.822205 L 245.788498 207.577209 L 247.999496 206.472198 L 247.999496 204.000198 Z"/>
    <path id="path1" fill="#ffffff" stroke="none" d="M 32 194 C 32 192.895004 31.105 192 30 192 L 22 192 C 20.895 192 20 192.895004 20 194 C 20 195.104996 20.895 196 22 196 L 30 196 C 31.105 196 32 195.104996 32 194"/>
</svg>
