<?xml version="1.0" encoding="UTF-8"?>
<!-- Generated by Pixelmator Pro 3.7.1 -->
<svg width="256" height="256" viewBox="0 0 256 256" xmlns="http://www.w3.org/2000/svg">
    <path id="Path" fill="#ffffff" stroke="none" d="M 128 51.351105 L 124.205002 62.735107 L 109.117004 108.000092 L 64 108.000092 L 52.597 108.000092 L 61.500999 115.123093 L 99.322998 145.381104 L 84.205002 190.735107 L 79.921997 203.585098 L 90.499001 195.123108 L 128 165.122101 L 165.501007 195.123108 L 176.078003 203.585098 L 171.794998 190.735107 L 156.677002 145.381104 L 194.498993 115.123093 L 203.403 108.000092 L 192 108.000092 L 146.882996 108.000092 L 131.794998 62.735107 Z M 128 64.000107 L 144 112.000092 L 192 112.000092 L 152 144.000092 L 168 192.000107 L 128 160.000092 L 88 192.000107 L 104 144.000092 L 64 112.000092 L 112 112.000092 Z"/>
    <path id="path1" fill="#ffffff" stroke="none" d="M 220 36 L 36 36 L 36 220 L 220 220 Z M 216 216 L 40 216 L 40 40 L 216 40 Z"/>
    <path id="path2" fill="#ffffff" stroke="none" d="M 128 104 C 123.588997 104 120 107.589005 120 112 L 120 120 L 112 120 C 107.589005 120 104 123.589005 104 128 C 104 132.410995 107.589005 136 112 136 L 120 136 L 120 144 C 120 148.410995 123.588997 152 128 152 C 132.410995 152 136 148.410995 136 144 L 136 136 L 144 136 C 148.410995 136 152 132.410995 152 128 C 152 123.589005 148.410995 120 144 120 L 136 120 L 136 112 C 136 107.589005 132.410995 104 128 104 M 128 108 C 130.209 108 132 109.791 132 112 L 132 124 L 144 124 C 146.209 124 148 125.791 148 128 C 148 130.209 146.209 132 144 132 L 132 132 L 132 144 C 132 146.209 130.209 148 128 148 C 125.791 148 124 146.209 124 144 L 124 132 L 112 132 C 109.791 132 108 130.209 108 128 C 108 125.791 109.791 124 112 124 L 124 124 L 124 112 C 124 109.791 125.791 108 128 108"/>
</svg>
