<?xml version="1.0" encoding="UTF-8"?>
<!-- Generated by Pixelmator Pro 3.7.1 -->
<svg width="256" height="256" viewBox="0 0 256 256" xmlns="http://www.w3.org/2000/svg">
    <path id="Path" fill="#ffffff" stroke="none" d="M 210.988297 157.027298 L 128.027298 239.988297 L 127.972298 239.988297 L 45.011295 157.027298 C 44.998295 157.014297 44.998295 156.985291 45.011295 156.97229 L 127.972298 74.011307 C 127.981293 74.003296 127.984299 74.000305 128.000305 74.000305 L 128.027298 74.011307 L 210.988297 156.97229 C 211.002304 156.985291 211.002304 157.014297 210.988297 157.027298 M 120.000298 60.000305 L 136.000305 60.000305 L 136.000305 76.327301 L 130.855301 71.182297 C 130.067307 70.394302 129.033295 70.000305 128.000305 70.000305 C 126.966293 70.000305 125.933296 70.394302 125.144295 71.182297 L 120.000298 76.327301 Z M 116.000298 28.000305 L 140.000305 28.000305 L 140.000305 56.000305 L 116.000298 56.000305 Z M 120.000298 16.000305 L 136.000305 16.000305 L 136.000305 24.000305 L 120.000298 24.000305 Z M 213.817307 154.144302 L 140.000305 80.327301 L 140.000305 60.000305 L 144.000305 60.000305 L 144.000305 24.000305 L 140.000305 24.000305 L 140.000305 12.000305 L 116.000298 12.000305 L 116.000298 24.000305 L 112.000298 24.000305 L 112.000298 60.000305 L 116.000298 60.000305 L 116.000298 80.327301 L 42.182301 154.144302 C 40.605305 155.721298 40.605305 158.27829 42.182301 159.855301 L 125.144295 242.817307 C 125.933296 243.605301 126.966293 244.000305 128.000305 244.000305 C 129.033295 244.000305 130.067307 243.605301 130.855301 242.817307 L 213.817307 159.855301 C 215.394302 158.27829 215.394302 155.721298 213.817307 154.144302"/>
</svg>
