<?xml version="1.0" encoding="UTF-8"?>
<!-- Generated by Pixelmator Pro 3.7.1 -->
<svg width="256" height="256" viewBox="0 0 256 256" xmlns="http://www.w3.org/2000/svg">
    <path id="Path" fill="#ffffff" stroke="none" d="M 16 16 L 240 16 L 240 232 L 16 232 Z M 240 240 L 16 240 L 16 236 L 240 236 Z M 12 12 L 12 232 L 12 236 L 12 244 L 244 244 L 244 236 L 244 232 L 244 12 Z"/>
    <path id="path1" fill="#ffffff" stroke="none" d="M 66 104 C 53.868999 104 44 113.869003 44 126 C 44 138.130997 53.868999 148 66 148 C 78.130997 148 88 138.130997 88 126 C 88 113.869003 78.130997 104 66 104 M 66 108 C 75.941002 108 84 116.059006 84 126 C 84 135.94101 75.941002 144 66 144 C 56.058998 144 48 135.94101 48 126 C 48 116.059006 56.058998 108 66 108"/>
    <path id="path2" fill="#ffffff" stroke="none" d="M 190 104 C 177.869003 104 168 113.869003 168 126 C 168 138.130997 177.869003 148 190 148 C 202.130997 148 212 138.130997 212 126 C 212 113.869003 202.130997 104 190 104 M 190 108 C 199.940994 108 208 116.059006 208 126 C 208 135.94101 199.940994 144 190 144 C 180.059006 144 172 135.94101 172 126 C 172 116.059006 180.059006 108 190 108"/>
    <path id="path3" fill="#ffffff" stroke="none" d="M 128 44 C 115.869003 44 106 53.869003 106 66 C 106 78.130997 115.869003 88 128 88 C 140.130997 88 150 78.130997 150 66 C 150 53.869003 140.130997 44 128 44 M 128 48 C 137.940994 48 146 56.059006 146 66 C 146 75.940994 137.940994 84 128 84 C 118.058998 84 110 75.940994 110 66 C 110 56.059006 118.058998 48 128 48"/>
    <path id="path4" fill="#ffffff" stroke="none" d="M 128 164 C 115.869003 164 106 173.869003 106 186 C 106 198.130997 115.869003 208 128 208 C 140.130997 208 150 198.130997 150 186 C 150 173.869003 140.130997 164 128 164 M 128 168 C 137.940994 168 146 176.05899 146 186 C 146 195.94101 137.940994 204 128 204 C 118.058998 204 110 195.94101 110 186 C 110 176.05899 118.058998 168 128 168"/>
    <path id="path5" fill="#ffffff" stroke="none" d="M 98 28 C 94.691002 28 92 30.690994 92 34 C 92 37.309006 94.691002 40 98 40 C 101.308998 40 104 37.309006 104 34 C 104 30.690994 101.308998 28 98 28 M 98 32 C 99.103996 32 100 32.895996 100 34 C 100 35.104004 99.103996 36 98 36 C 96.896004 36 96 35.104004 96 34 C 96 32.895996 96.896004 32 98 32"/>
    <path id="path6" fill="#ffffff" stroke="none" d="M 158 28 C 154.690994 28 152 30.690994 152 34 C 152 37.309006 154.690994 40 158 40 C 161.309006 40 164 37.309006 164 34 C 164 30.690994 161.309006 28 158 28 M 158 32 C 159.104004 32 160 32.895996 160 34 C 160 35.104004 159.104004 36 158 36 C 156.895996 36 156 35.104004 156 34 C 156 32.895996 156.895996 32 158 32"/>
    <path id="path7" fill="#ffffff" stroke="none" d="M 98 92 C 94.691002 92 92 94.690994 92 98 C 92 101.309006 94.691002 104 98 104 C 101.308998 104 104 101.309006 104 98 C 104 94.690994 101.308998 92 98 92 M 98 96 C 99.103996 96 100 96.895996 100 98 C 100 99.104004 99.103996 100 98 100 C 96.896004 100 96 99.104004 96 98 C 96 96.895996 96.896004 96 98 96"/>
    <path id="path8" fill="#ffffff" stroke="none" d="M 158 92 C 154.690994 92 152 94.690994 152 98 C 152 101.309006 154.690994 104 158 104 C 161.309006 104 164 101.309006 164 98 C 164 94.690994 161.309006 92 158 92 M 158 96 C 159.104004 96 160 96.895996 160 98 C 160 99.104004 159.104004 100 158 100 C 156.895996 100 156 99.104004 156 98 C 156 96.895996 156.895996 96 158 96"/>
    <path id="path9" fill="#ffffff" stroke="none" d="M 98 148 C 94.691002 148 92 150.69101 92 154 C 92 157.30899 94.691002 160 98 160 C 101.308998 160 104 157.30899 104 154 C 104 150.69101 101.308998 148 98 148 M 98 152 C 99.103996 152 100 152.895996 100 154 C 100 155.104004 99.103996 156 98 156 C 96.896004 156 96 155.104004 96 154 C 96 152.895996 96.896004 152 98 152"/>
    <path id="path10" fill="#ffffff" stroke="none" d="M 158 148 C 154.690994 148 152 150.69101 152 154 C 152 157.30899 154.690994 160 158 160 C 161.309006 160 164 157.30899 164 154 C 164 150.69101 161.309006 148 158 148 M 158 152 C 159.104004 152 160 152.895996 160 154 C 160 155.104004 159.104004 156 158 156 C 156.895996 156 156 155.104004 156 154 C 156 152.895996 156.895996 152 158 152"/>
    <path id="path11" fill="#ffffff" stroke="none" d="M 98 212 C 94.691002 212 92 214.69101 92 218 C 92 221.30899 94.691002 224 98 224 C 101.308998 224 104 221.30899 104 218 C 104 214.69101 101.308998 212 98 212 M 98 216 C 99.103996 216 100 216.895996 100 218 C 100 219.104004 99.103996 220 98 220 C 96.896004 220 96 219.104004 96 218 C 96 216.895996 96.896004 216 98 216"/>
    <path id="path12" fill="#ffffff" stroke="none" d="M 158 212 C 154.690994 212 152 214.69101 152 218 C 152 221.30899 154.690994 224 158 224 C 161.309006 224 164 221.30899 164 218 C 164 214.69101 161.309006 212 158 212 M 158 216 C 159.104004 216 160 216.895996 160 218 C 160 219.104004 159.104004 220 158 220 C 156.895996 220 156 219.104004 156 218 C 156 216.895996 156.895996 216 158 216"/>
</svg>
