<?xml version="1.0" encoding="UTF-8"?>
<!-- Generated by Pixelmator Pro 3.7.1 -->
<svg width="256" height="256" viewBox="0 0 256 256" xmlns="http://www.w3.org/2000/svg">
    <path id="Path" fill="#ffffff" stroke="none" d="M 188 48 L 128 48 L 68 48 C 67.091003 48 45.585999 48.248993 32.570007 69.942001 C 20.427002 90.179993 12.524994 136.533997 12.065002 139.279999 C 11.770004 140.768005 8 160.085999 8 176 C 8 193.645004 16.972 208 28 208 L 36.209 208 C 39.822998 208 43.207993 206.395996 45.496002 203.598999 L 74.294998 168.401001 C 76.583 165.604004 79.968002 164 83.582001 164 L 172.417999 164 C 176.031998 164 179.416992 165.604004 181.705002 168.401001 L 210.503006 203.598999 C 212.791992 206.395996 216.177002 208 219.791 208 L 228 208 C 239.028 208 248 193.645004 248 176 C 248 160.085999 244.229996 140.768005 243.934998 139.279999 C 243.475006 136.533997 235.572998 90.179993 223.429993 69.942001 C 210.414001 48.248993 188.908997 48 188 48 M 188 52 C 188 52 208 52 220 72 C 232 92 240 140 240 140 C 240 140 244 160 244 176 C 244 192 236 204 228 204 L 219.791 204 C 217.391998 204 215.119003 202.923004 213.598999 201.065994 L 184.800995 165.867996 C 181.761993 162.153992 177.216995 160 172.417999 160 L 83.582001 160 C 78.782997 160 74.237999 162.153992 71.198997 165.867996 L 42.401001 201.065994 C 40.880997 202.923004 38.608002 204 36.209 204 L 28 204 C 20 204 12 192 12 176 C 12 160 16 140 16 140 C 16 140 24 92 36 72 C 48 52 68 52 68 52 L 128 52 Z"/>
    <path id="path1" fill="#ffffff" stroke="none" d="M 192 56 L 176 56 L 80 56 L 64 56 C 46.354996 56 32 70.354996 32 88 C 32 90.787994 33.082993 100.246002 36.570007 106.057999 C 46.371994 122.394989 66.303001 148.740997 74.416 159.309998 C 76.670998 162.247009 80.227997 164 83.932999 164 L 128 164 L 172.067001 164 C 175.772003 164 179.328995 162.247009 181.584 159.309998 C 189.697006 148.740997 209.628006 122.394989 219.429993 106.057999 C 222.916992 100.246002 224 90.787994 224 88 C 224 70.354996 209.645004 56 192 56 M 192 60 C 207.464005 60 220 72.535995 220 88 C 220 90.826996 218.841995 99.263 216 104 C 206.134995 120.442001 185.455994 147.696991 178.410995 156.875 C 176.897003 158.846008 174.552994 160 172.067001 160 L 128 160 L 83.932999 160 C 81.446999 160 79.102997 158.846008 77.588997 156.875 C 70.543999 147.696991 49.865005 120.442001 40 104 C 37.158005 99.263 36 90.826996 36 88 C 36 72.535995 48.535995 60 64 60 L 80 60 L 176 60 Z"/>
    <path id="path2" fill="#ffffff" stroke="none" d="M 66 74 C 58.279999 74 52 80.279999 52 88 C 52 95.720001 58.279999 102 66 102 C 73.720001 102 80 95.720001 80 88 C 80 80.279999 73.720001 74 66 74 M 66 78 C 71.523003 78 76 82.477005 76 88 C 76 93.522995 71.523003 98 66 98 C 60.477001 98 56 93.522995 56 88 C 56 82.477005 60.477001 78 66 78"/>
    <path id="path3" fill="#ffffff" stroke="none" d="M 160 114 C 152.279999 114 146 120.279999 146 128 C 146 135.720001 152.279999 142 160 142 C 167.720001 142 174 135.720001 174 128 C 174 120.279999 167.720001 114 160 114 M 160 118 C 165.522995 118 170 122.477005 170 128 C 170 133.52301 165.522995 138 160 138 C 154.477005 138 150 133.52301 150 128 C 150 122.477005 154.477005 118 160 118"/>
    <path id="path4" fill="#ffffff" stroke="none" d="M 96 104 C 82.765999 104 72 114.766006 72 128 C 72 141.234009 82.765999 152 96 152 C 109.234001 152 120 141.234009 120 128 C 120 114.766006 109.234001 104 96 104 M 96 108 C 107.045998 108 116 116.953995 116 128 C 116 139.046005 107.045998 148 96 148 C 84.954002 148 76 139.046005 76 128 C 76 116.953995 84.954002 108 96 108"/>
    <path id="path5" fill="#ffffff" stroke="none" d="M 96 104 C 92.679001 104 89.447998 104.675995 86.397003 106.009995 L 84 107.059006 L 84 109.675003 L 84 116 L 77.675003 116 L 75.058998 116 L 74.010002 118.397003 C 72.676003 121.447998 72 124.679001 72 128 C 72 131.320999 72.676003 134.552002 74.010002 137.602997 L 75.058998 140 L 77.675003 140 L 84 140 L 84 146.324997 L 84 148.94101 L 86.397003 149.990005 C 89.447998 151.324005 92.679001 152 96 152 C 99.320999 152 102.552002 151.324005 105.602997 149.990005 L 108 148.94101 L 108 146.324997 L 108 140 L 114.324997 140 L 116.941002 140 L 117.989998 137.602997 C 119.323997 134.552002 120 131.320999 120 128 C 120 124.679001 119.323997 121.447998 117.989998 118.397003 L 116.941002 116 L 114.324997 116 L 108 116 L 108 109.675003 L 108 107.059006 L 105.602997 106.009995 C 102.552002 104.675995 99.320999 104 96 104 M 96 108 C 98.846001 108 101.548996 108.604004 104 109.675003 L 104 120 L 114.324997 120 C 115.395996 122.451004 116 125.153992 116 128 C 116 130.846008 115.395996 133.548996 114.324997 136 L 104 136 L 104 146.324997 C 101.548996 147.395996 98.846001 148 96 148 C 93.153999 148 90.451004 147.395996 88 146.324997 L 88 136 L 77.675003 136 C 76.604004 133.548996 76 130.846008 76 128 C 76 125.153992 76.604004 122.451004 77.675003 120 L 88 120 L 88 109.675003 C 90.451004 108.604004 93.153999 108 96 108"/>
    <path id="path6" fill="#ffffff" stroke="none" d="M 128 92 C 123.588997 92 120 95.589005 120 100 C 120 104.410995 123.588997 108 128 108 C 132.410995 108 136 104.410995 136 100 C 136 95.589005 132.410995 92 128 92 M 128 96 C 130.209 96 132 97.791 132 100 C 132 102.209 130.209 104 128 104 C 125.791 104 124 102.209 124 100 C 124 97.791 125.791 96 128 96"/>
    <path id="path7" fill="#ffffff" stroke="none" d="M 108 72 C 103.588997 72 100 75.589005 100 80 C 100 84.410995 103.588997 88 108 88 C 112.411003 88 116 84.410995 116 80 C 116 75.589005 112.411003 72 108 72 M 108 76 C 110.209 76 112 77.791 112 80 C 112 82.209 110.209 84 108 84 C 105.791 84 104 82.209 104 80 C 104 77.791 105.791 76 108 76"/>
    <path id="path8" fill="#ffffff" stroke="none" d="M 148 72 C 143.589005 72 140 75.589005 140 80 C 140 84.410995 143.589005 88 148 88 C 152.410995 88 156 84.410995 156 80 C 156 75.589005 152.410995 72 148 72 M 148 76 C 150.209 76 152 77.791 152 80 C 152 82.209 150.209 84 148 84 C 145.791 84 144 82.209 144 80 C 144 77.791 145.791 76 148 76"/>
    <path id="path9" fill="#ffffff" stroke="none" d="M 128 68 C 121.383003 68 116 73.382996 116 80 C 116 86.617004 121.383003 92 128 92 C 134.617004 92 140 86.617004 140 80 C 140 73.382996 134.617004 68 128 68 M 128 72 C 132.417999 72 136 75.582001 136 80 C 136 84.417999 132.417999 88 128 88 C 123.582001 88 120 84.417999 120 80 C 120 75.582001 123.582001 72 128 72"/>
    <path id="path10" fill="#ffffff" stroke="none" d="M 172 80 C 165.382996 80 160 85.382996 160 92 C 160 98.617004 165.382996 104 172 104 C 178.617004 104 184 98.617004 184 92 C 184 85.382996 178.617004 80 172 80 M 172 84 C 176.417999 84 180 87.582001 180 92 C 180 96.417999 176.417999 100 172 100 C 167.582001 100 164 96.417999 164 92 C 164 87.582001 167.582001 84 172 84"/>
    <path id="path11" fill="#ffffff" stroke="none" d="M 204 80 C 197.382996 80 192 85.382996 192 92 C 192 98.617004 197.382996 104 204 104 C 210.617004 104 216 98.617004 216 92 C 216 85.382996 210.617004 80 204 80 M 204 84 C 208.417999 84 212 87.582001 212 92 C 212 96.417999 208.417999 100 204 100 C 199.582001 100 196 96.417999 196 92 C 196 87.582001 199.582001 84 204 84"/>
    <path id="path12" fill="#ffffff" stroke="none" d="M 188 64 C 181.382996 64 176 69.382996 176 76 C 176 82.617004 181.382996 88 188 88 C 194.617004 88 200 82.617004 200 76 C 200 69.382996 194.617004 64 188 64 M 188 68 C 192.417999 68 196 71.582001 196 76 C 196 80.417999 192.417999 84 188 84 C 183.582001 84 180 80.417999 180 76 C 180 71.582001 183.582001 68 188 68"/>
    <path id="path13" fill="#ffffff" stroke="none" d="M 188 96 C 181.382996 96 176 101.382996 176 108 C 176 114.617004 181.382996 120 188 120 C 194.617004 120 200 114.617004 200 108 C 200 101.382996 194.617004 96 188 96 M 188 100 C 192.417999 100 196 103.582001 196 108 C 196 112.417999 192.417999 116 188 116 C 183.582001 116 180 112.417999 180 108 C 180 103.582001 183.582001 100 188 100"/>
</svg>
