<?xml version="1.0" encoding="UTF-8"?>
<!-- Generated by Pixelmator Pro 3.7.1 -->
<svg width="256" height="256" viewBox="0 0 256 256" xmlns="http://www.w3.org/2000/svg">
    <path id="Path" fill="#ffffff" stroke="none" d="M 164 116 L 172 116 L 172 108 L 164 108 Z"/>
    <path id="path1" fill="#ffffff" stroke="none" d="M 244 164 L 240 164 L 240 160 L 240 152 L 240 148 L 240 132 L 240 128 L 240 112 L 240 108 L 236 108 L 188 108 L 184 108 L 184 104 L 180 104 L 176 104 L 176 100 L 176 96 L 244 96 Z M 132 164 L 132 160 L 132 152 L 136 152 L 140 152 L 140 151.925003 L 148 151.925003 L 148 152 L 148 160 L 148 164 Z M 12 164 L 12 96 L 160 96 L 160 100 L 160 104 L 156 104 L 152 104 L 152 108 L 152 112 L 148 112 L 136 112 L 132 112 L 128 112 L 120 112 L 116 112 L 108 112 L 104 112 L 96 112 L 92 112 L 84 112 L 80 112 L 72 112 L 68 112 L 60 112 L 56 112 L 48 112 L 44 112 L 36 112 L 32 112 L 24 112 L 20 112 L 20 116 L 20 124 L 20 128 L 20 135.850998 L 20 136 L 20 139.850998 L 20 140 L 20 147.925003 L 20 151.925003 L 24 151.925003 L 40 151.925003 L 44 151.925003 L 44 160 L 44 164 Z M 180 116 L 172 116 L 172 124 L 164 124 L 164 116 L 156 116 L 156 108 L 164 108 L 164 100 L 172 100 L 172 108 L 180 108 Z M 184 124 L 176 124 L 176 120 L 180 120 L 184 120 Z M 128 147.925003 L 128 140 L 132 140 L 136 140 L 136 147.925003 L 136 148 L 132 148 L 128 148 Z M 44 140 L 48 140 L 52 140 L 52 147.925003 L 48 147.925003 L 44 147.925003 Z M 32 124 L 24 124 L 24 116 L 32 116 Z M 44 124 L 36 124 L 36 116 L 44 116 Z M 56 124 L 48 124 L 48 116 L 56 116 Z M 68 124 L 60 124 L 60 116 L 68 116 Z M 80 124 L 72 124 L 72 116 L 80 116 Z M 92 124 L 84 124 L 84 116 L 92 116 Z M 104 124 L 96 124 L 96 116 L 104 116 Z M 116 124 L 108 124 L 108 116 L 116 116 Z M 128 135.925003 L 124 135.925003 L 120 135.925003 L 120 128 L 128 128 Z M 124 147.925003 L 120 147.925003 L 116 147.925003 L 116 140 L 120 140 L 124 140 Z M 104 140 L 108 140 L 112 140 L 112 147.925003 L 104 147.925003 Z M 92 140 L 96 140 L 100 140 L 100 147.925003 L 92 147.925003 Z M 80 140 L 84 140 L 88 140 L 88 147.925003 L 80 147.925003 Z M 68 140 L 72 140 L 76 140 L 76 147.925003 L 68 147.925003 Z M 56 140 L 60 140 L 64 140 L 64 147.925003 L 56 147.925003 Z M 44 135.850998 L 40 135.850998 L 36 135.850998 L 36 128 L 44 128 Z M 56 135.925003 L 52 135.925003 L 48 135.925003 L 48 128 L 56 128 Z M 68 135.925003 L 64 135.925003 L 60 135.925003 L 60 128 L 68 128 Z M 80 135.925003 L 76 135.925003 L 72 135.925003 L 72 128 L 80 128 Z M 92 135.925003 L 88 135.925003 L 84 135.925003 L 84 128 L 92 128 Z M 104 135.925003 L 100 135.925003 L 96 135.925003 L 96 128 L 104 128 Z M 116 135.925003 L 112 135.925003 L 108 135.925003 L 108 128 L 116 128 Z M 128 124 L 120 124 L 120 116 L 128 116 Z M 148 123.925003 L 140 123.925003 L 136 123.925003 L 136 116 L 148 116 Z M 172 136 L 164 136 L 164 128 L 172 128 Z M 184 132 L 184 136 L 176 136 L 176 128 L 184 128 Z M 188 140 L 236 140 L 236 148 L 188 148 Z M 176 140 L 184 140 L 184 148 L 176 148 Z M 164 140 L 172 140 L 172 148 L 164 148 Z M 152 128 L 160 128 L 160 136 L 152 136 Z M 152 147.925003 L 152 140 L 160 140 L 160 148 L 152 148 Z M 222 120 L 202 120 C 198.69101 120 196 122.69101 196 126 C 196 126.701996 196.126999 127.373001 196.350006 128 L 188 128 L 188 112 L 236 112 L 236 128 L 227.649994 128 C 227.873001 127.373001 228 126.701996 228 126 C 228 122.69101 225.309006 120 222 120 M 220 126 C 220 124.895996 220.895996 124 222 124 C 223.104004 124 224 124.895996 224 126 C 224 127.104004 223.104004 128 222 128 C 220.895996 128 220 127.104004 220 126 M 208 124 L 216 124 L 216 128 L 208 128 Z M 200 126 C 200 124.895996 200.895996 124 202 124 C 203.104004 124 204 124.895996 204 126 C 204 127.104004 203.104004 128 202 128 C 200.895996 128 200 127.104004 200 126 M 192 132 L 204 132 L 208 132 L 216 132 L 220 132 L 232 132 L 236 132 L 236 136 L 232 136 L 192 136 L 188 136 L 188 132 Z M 156 120 L 160 120 L 160 124 L 152 124 L 152 123.925003 L 152 120 Z M 24 128 L 32 128 L 32 135.850998 L 24 135.850998 Z M 24 140 L 32 140 L 36 140 L 40 140 L 40 147.925003 L 24 147.925003 Z M 116 152 L 116 160 L 48 160 L 48 151.925003 L 52 151.925003 L 56 151.925003 L 64 151.925003 L 68 151.925003 L 76 151.925003 L 80 151.925003 L 88 151.925003 L 92 151.925003 L 100 151.925003 L 104 151.925003 L 112 151.925003 L 116 151.925003 Z M 128 160 L 120 160 L 120 152 L 124 152 L 128 152 Z M 136 136 L 132 136 L 132 128 L 136 128 L 140 128 L 148 128 L 148 136 L 148 140 L 148 147.925003 L 140 147.925003 L 140 140 L 140 136 Z M 160 160 L 152 160 L 152 152 L 160 152 Z M 172 160 L 164 160 L 164 152 L 172 152 Z M 184 160 L 176 160 L 176 152 L 184 152 Z M 200 160 L 192 160 L 192 152 L 200 152 Z M 212 160 L 204 160 L 204 152 L 212 152 Z M 224 160 L 216 160 L 216 152 L 224 152 Z M 236 160 L 228 160 L 228 152 L 236 152 Z M 244 92 L 12 92 L 8 92 L 8 96 L 8 164 L 8 168 L 12 168 L 244 168 L 248 168 L 248 164 L 248 96 L 248 92 Z"/>
</svg>
