<?xml version="1.0" encoding="UTF-8"?>
<!-- Generated by Pixelmator Pro 3.7.1 -->
<svg width="256" height="256" viewBox="0 0 256 256" xmlns="http://www.w3.org/2000/svg">
    <path id="Path" fill="#ffffff" stroke="none" d="M 190 228 L 168 212 L 212 212 Z M 168 208 L 155.699005 208 L 165.647003 215.235001 L 187.647003 231.235001 L 190 232.945999 L 192.352997 231.235001 L 214.352997 215.235001 L 224.300995 208 L 212 208 Z"/>
    <path id="path1" fill="#ffffff" stroke="none" d="M 66 228 L 44 212 L 88 212 Z M 44 208 L 31.699001 208 L 41.646999 215.235001 L 63.646999 231.235001 L 66 232.945999 L 68.352997 231.235001 L 90.352997 215.235001 L 100.300995 208 L 88 208 Z"/>
    <path id="path2" fill="#ffffff" stroke="none" d="M 244 64 L 244 242 C 244 243.104004 243.104004 244 242 244 L 14 244 C 12.895996 244 12 243.104004 12 242 L 12 64 L 12 16 L 12 14 C 12 12.895996 12.895996 12 14 12 L 40 12 L 40 40 L 40 44 L 40 144 C 40 148.411011 43.589005 152 48 152 L 208 152 C 212.410995 152 216 148.411011 216 144 L 216 44 L 216 40 L 216 12 L 242 12 C 243.104004 12 244 12.895996 244 14 Z M 44 44 L 212 44 L 212 144 C 212 146.209 210.209 148 208 148 L 48 148 C 45.791 148 44 146.209 44 144 Z M 212 40 L 44 40 L 44 12 L 212 12 Z M 242 8 L 216 8 L 212 8 L 44 8 L 40 8 L 14 8 C 10.690994 8 8 10.69101 8 14 L 8 242 C 8 245.309006 10.690994 248 14 248 L 242 248 C 245.309006 248 248 245.309006 248 242 L 248 14 C 248 10.69101 245.309006 8 242 8"/>
</svg>
