<?xml version="1.0" encoding="UTF-8"?>
<!-- Generated by Pixelmator Pro 3.7.1 -->
<svg width="256" height="256" viewBox="0 0 256 256" xmlns="http://www.w3.org/2000/svg">
    <path id="Path" fill="#ffffff" stroke="none" d="M 224 108 L 224 116 L 216 116 L 192 116 L 184 116 L 184 108 L 184 100 L 192 100 L 216 100 L 224 100 Z M 184 96 L 180 96 L 180 100 L 180 116 L 180 120 L 184 120 L 224 120 L 228 120 L 228 116 L 228 100 L 228 96 L 224 96 Z"/>
    <path id="path1" fill="#ffffff" stroke="none" d="M 192 112 C 189.791 112 188 110.209 188 108 C 188 105.791 189.791 104 192 104 C 194.209 104 196 105.791 196 108 C 196 110.209 194.209 112 192 112 M 200 108 C 200 103.589005 196.410995 100 192 100 C 187.589005 100 184 103.589005 184 108 C 184 112.410995 187.589005 116 192 116 C 196.410995 116 200 112.410995 200 108"/>
    <path id="path2" fill="#ffffff" stroke="none" d="M 216 112 C 213.791 112 212 110.209 212 108 C 212 105.791 213.791 104 216 104 C 218.209 104 220 105.791 220 108 C 220 110.209 218.209 112 216 112 M 216 100 C 211.589005 100 208 103.589005 208 108 C 208 112.410995 211.589005 116 216 116 C 220.410995 116 224 112.410995 224 108 C 224 103.589005 220.410995 100 216 100"/>
    <path id="path3" fill="#ffffff" stroke="none" d="M 196 76 L 188 76 L 188 80 L 196 80 Z"/>
    <path id="path4" fill="#ffffff" stroke="none" d="M 202 80 C 203.104996 80 204 79.104996 204 78 C 204 76.895004 203.104996 76 202 76 C 200.895004 76 200 76.895004 200 78 C 200 79.104996 200.895004 80 202 80"/>
    <path id="path5" fill="#ffffff" stroke="none" d="M 68 116 L 88 116 L 88 112 L 68 112 Z"/>
    <path id="path6" fill="#ffffff" stroke="none" d="M 92 116 L 112 116 L 112 112 L 92 112 Z"/>
    <path id="path7" fill="#ffffff" stroke="none" d="M 240 160 L 240 220 L 128 220 L 128 216 L 128 208 L 132 208 L 140 208 L 144 208 L 152 208 L 156 208 L 156 204 L 156 196 L 156 192 L 156 184 L 156 180 L 156 172 L 156 168 L 152 168 L 144 168 L 140 168 L 132 168 L 128 168 L 120 168 L 116 168 L 108 168 L 104 168 L 96 168 L 92 168 L 84 168 L 80 168 L 72 168 L 68 168 L 60 168 L 56 168 L 48 168 L 44 168 L 36 168 L 32 168 L 24 168 L 20 168 L 20 172 L 20 180 L 16 180 L 16 160 L 12 152 L 16 152 L 164 152 L 168 152 L 172 152 L 172 156 L 172 160 L 176 160 L 184 160 L 188 160 L 196 160 L 200 160 L 208 160 L 212 160 L 220 160 L 224 160 L 232 160 L 236 160 L 236 156 L 236 152 L 240 152 L 244 152 Z M 28 184 L 28 192 L 24 192 L 20 192 L 20 184 L 24 184 Z M 32 180 L 28 180 L 24 180 L 24 172 L 32 172 Z M 44 180 L 40 180 L 36 180 L 36 172 L 44 172 Z M 56 180 L 52 180 L 48 180 L 48 172 L 56 172 Z M 68 180 L 64 180 L 60 180 L 60 172 L 68 172 Z M 80 180 L 76 180 L 72 180 L 72 172 L 80 172 Z M 92 180 L 88 180 L 84 180 L 84 172 L 92 172 Z M 104 180 L 100 180 L 96 180 L 96 172 L 104 172 Z M 116 180 L 112 180 L 108 180 L 108 172 L 116 172 Z M 128 180 L 124 180 L 120 180 L 120 172 L 128 172 Z M 140 180 L 136 180 L 132 180 L 132 172 L 140 172 Z M 144 196 L 152 196 L 152 204 L 144 204 Z M 132 196 L 136 196 L 140 196 L 140 204 L 132 204 Z M 120 204 L 120 196 L 124 196 L 128 196 L 128 204 L 124 204 Z M 48 196 L 52 196 L 56 196 L 56 204 L 52 204 L 48 204 Z M 36 196 L 40 196 L 44 196 L 44 204 L 36 204 Z M 52 192 L 48 192 L 44 192 L 44 184 L 48 184 L 52 184 Z M 64 192 L 60 192 L 56 192 L 56 184 L 60 184 L 64 184 Z M 76 192 L 72 192 L 68 192 L 68 184 L 72 184 L 76 184 Z M 88 192 L 84 192 L 80 192 L 80 184 L 84 184 L 88 184 Z M 100 192 L 96 192 L 92 192 L 92 184 L 96 184 L 100 184 Z M 112 192 L 108 192 L 104 192 L 104 184 L 108 184 L 112 184 Z M 96 196 L 100 196 L 104 196 L 104 204 L 96 204 Z M 84 196 L 88 196 L 92 196 L 92 204 L 84 204 Z M 72 196 L 76 196 L 80 196 L 80 204 L 72 204 Z M 60 196 L 64 196 L 68 196 L 68 204 L 60 204 Z M 116 204 L 108 204 L 108 196 L 112 196 L 116 196 Z M 124 192 L 120 192 L 116 192 L 116 184 L 120 184 L 124 184 Z M 136 192 L 132 192 L 128 192 L 128 184 L 132 184 L 136 184 Z M 32 184 L 36 184 L 40 184 L 40 192 L 36 192 L 32 192 Z M 24 196 L 28 196 L 32 196 L 32 204 L 24 204 Z M 124 216 L 52 216 L 52 208 L 56 208 L 60 208 L 68 208 L 72 208 L 80 208 L 84 208 L 92 208 L 96 208 L 104 208 L 108 208 L 116 208 L 120 208 L 124 208 Z M 152 192 L 144 192 L 140 192 L 140 184 L 144 184 L 152 184 Z M 152 180 L 144 180 L 144 172 L 152 172 Z M 16 220 L 16 196 L 20 196 L 20 204 L 20 208 L 24 208 L 32 208 L 36 208 L 44 208 L 48 208 L 48 216 L 48 220 Z M 56 56 L 56 40 L 60 40 L 60 44 L 60 48 L 60 52 L 60 56 L 60 60 L 56 60 L 20 60 L 16 60 L 15.832993 60 L 16 56 Z M 142 84 C 148.617004 84 154 78.617004 154 72 C 154 68.925003 152.828003 66.126007 150.919006 64 L 156 64 L 156 112 L 128 112 L 128 64 L 133.080994 64 C 131.171997 66.126007 130 68.925003 130 72 C 130 78.617004 135.382996 84 142 84 M 150 72 C 150 76.411011 146.411011 80 142 80 C 137.588989 80 134 76.411011 134 72 C 134 67.588989 137.588989 64 142 64 C 146.411011 64 150 67.588989 150 72 M 64 92 L 116 92 L 116 120 L 64 120 Z M 120 124 L 152 124 L 152 140 L 28 140 L 28 124 L 60 124 L 64 124 L 116 124 Z M 116 84 L 64 84 L 64 56 L 116 56 Z M 64 44 L 116 44 L 116 48 L 64 48 Z M 56 116 L 56 64 L 60 64 L 60 84 L 60 88 L 60 92 L 60 120 L 28 120 L 24 120 L 24 124 L 24 140 L 24 144 L 28 144 L 152 144 L 156 144 L 156 140 L 156 124 L 156 120 L 152 120 L 120 120 L 120 92 L 120 88 L 120 84 L 120 64 L 124 64 L 124 116 L 160 116 L 160 64 L 164 64 L 164 148 L 16 148 L 16 64 L 20 64 L 20 116 Z M 38 84 C 44.617004 84 50 78.617004 50 72 C 50 68.925003 48.828003 66.126007 46.919006 64 L 52 64 L 52 112 L 24 112 L 24 64 L 29.080994 64 C 27.171997 66.126007 26 68.925003 26 72 C 26 78.617004 31.382996 84 38 84 M 46 72 C 46 76.411011 42.410995 80 38 80 C 33.589005 80 30 76.411011 30 72 C 30 67.588989 33.589005 64 38 64 C 42.410995 64 46 67.588989 46 72 M 232 84 L 176 84 L 176 64 L 232 64 Z M 176 92 L 232 92 L 232 128 L 176 128 Z M 184 140 L 184 152 L 184 156 L 176 156 L 176 152 L 176 140 Z M 196 140 L 196 152 L 196 156 L 188 156 L 188 152 L 188 140 Z M 208 140 L 208 152 L 208 156 L 200 156 L 200 152 L 200 140 Z M 220 140 L 220 152 L 220 156 L 212 156 L 212 152 L 212 140 Z M 232 140 L 232 152 L 232 156 L 224 156 L 224 152 L 224 140 Z M 232 136 L 224 136 L 220 136 L 212 136 L 208 136 L 200 136 L 196 136 L 188 136 L 184 136 L 176 136 L 172 136 L 172 140 L 172 148 L 168 148 L 168 64 L 172 64 L 172 84 L 172 88 L 172 92 L 172 128 L 172 132 L 176 132 L 232 132 L 236 132 L 236 128 L 236 106 L 240 148 L 236 148 L 236 140 L 236 136 Z M 124 40 L 124 56 L 240 56 L 243.690002 144.550995 L 236 63.809998 L 236 60 L 235.636993 60 L 232 60 L 176 60 L 172 60 L 168 60 L 164 60 L 160 60 L 124 60 L 120 60 L 120 56 L 120 52 L 120 48 L 120 44 L 120 40 Z M 247.996994 151.833008 L 243.996994 55.833008 L 243.837006 52 L 240 52 L 128 52 L 128 40 L 128 36 L 124 36 L 56 36 L 52 36 L 52 40 L 52 52 L 16 52 L 12.162994 52 L 12.003006 55.833008 L 8.003006 151.833008 L 7.960007 152.86499 L 8.421997 153.789001 L 12 160.944 L 12 220 L 12 224 L 16 224 L 240 224 L 244 224 L 244 220 L 244 160.944 L 247.578003 153.789001 L 248.039993 152.86499 Z"/>
    <path id="path8" fill="#ffffff" stroke="none" d="M 228 204 L 176 204 L 176 172 L 228 172 Z M 176 168 L 172 168 L 172 172 L 172 204 L 172 208 L 176 208 L 228 208 L 232 208 L 232 204 L 232 172 L 232 168 L 228 168 Z"/>
    <path id="path9" fill="#ffffff" stroke="none" d="M 184 176 L 180 176 L 180 200 L 184 200 Z"/>
    <path id="path10" fill="#ffffff" stroke="none" d="M 192 176 L 188 176 L 188 200 L 192 200 Z"/>
    <path id="path11" fill="#ffffff" stroke="none" d="M 200 176 L 196 176 L 196 200 L 200 200 Z"/>
    <path id="path12" fill="#ffffff" stroke="none" d="M 208 176 L 204 176 L 204 200 L 208 200 Z"/>
    <path id="path13" fill="#ffffff" stroke="none" d="M 216 176 L 212 176 L 212 200 L 216 200 Z"/>
    <path id="path14" fill="#ffffff" stroke="none" d="M 224 176 L 220 176 L 220 200 L 224 200 Z"/>
</svg>
