<?xml version="1.0" encoding="UTF-8"?>
<!-- Generated by Pixelmator Pro 3.7.1 -->
<svg width="256" height="256" viewBox="0 0 256 256" xmlns="http://www.w3.org/2000/svg">
    <path id="Path" fill="#ffffff" stroke="none" d="M 244 184 C 244 186.209 242.209 188 240 188 L 16 188 C 13.791 188 12 186.209 12 184 L 12 76 C 12 73.791 13.791 72 16 72 L 20 72 L 20 100 L 20 104 L 20 148 L 76 148 L 76 104 L 76 100 L 76 72 L 180 72 L 180 100 L 180 104 L 180 148 L 236 148 L 236 104 L 236 100 L 236 72 L 240 72 C 242.209 72 244 73.791 244 76 Z M 24 104 L 72 104 L 72 144 L 24 144 Z M 38.210999 72 C 35.615005 74.541992 34 78.080002 34 82 C 34 89.731995 40.268005 96 48 96 C 55.731995 96 62 89.731995 62 82 C 62 78.080002 60.384995 74.541992 57.789001 72 L 72 72 L 72 100 L 24 100 L 24 72 Z M 58 82 C 58 87.514008 53.514008 92 48 92 C 42.485992 92 38 87.514008 38 82 C 38 76.485992 42.485992 72 48 72 C 53.514008 72 58 76.485992 58 82 M 184 104 L 232 104 L 232 144 L 184 144 Z M 198.210999 72 C 195.615005 74.541992 194 78.080002 194 82 C 194 89.731995 200.268005 96 208 96 C 215.731995 96 222 89.731995 222 82 C 222 78.080002 220.384995 74.541992 217.789001 72 L 232 72 L 232 100 L 184 100 L 184 72 Z M 218 82 C 218 87.514008 213.514008 92 208 92 C 202.485992 92 198 87.514008 198 82 C 198 76.485992 202.485992 72 208 72 C 213.514008 72 218 76.485992 218 82 M 240 68 L 236 68 L 232 68 L 184 68 L 180 68 L 76 68 L 72 68 L 24 68 L 20 68 L 16 68 C 11.589005 68 8 71.588989 8 76 L 8 184 C 8 188.411011 11.589005 192 16 192 L 240 192 C 244.410995 192 248 188.411011 248 184 L 248 76 C 248 71.588989 244.410995 68 240 68"/>
    <path id="path1" fill="#ffffff" stroke="none" d="M 232 176 L 24 176 L 24 156 L 80 156 L 84 156 L 172 156 L 176 156 L 232 156 Z M 84 104 L 172 104 L 172 152 L 84 152 Z M 84 80 L 172 80 L 172 100 L 84 100 Z M 176 152 L 176 104 L 176 100 L 176 80 L 176 76 L 172 76 L 84 76 L 80 76 L 80 80 L 80 100 L 80 104 L 80 152 L 24 152 L 20 152 L 20 156 L 20 176 L 20 180 L 24 180 L 232 180 L 236 180 L 236 176 L 236 156 L 236 152 L 232 152 Z"/>
    <path id="path2" fill="#ffffff" stroke="none" d="M 28 172 L 32 172 L 32 160 L 28 160 Z"/>
    <path id="path3" fill="#ffffff" stroke="none" d="M 36 172 L 40 172 L 40 160 L 36 160 Z"/>
    <path id="path4" fill="#ffffff" stroke="none" d="M 44 172 L 48 172 L 48 160 L 44 160 Z"/>
    <path id="path5" fill="#ffffff" stroke="none" d="M 52 172 L 56 172 L 56 160 L 52 160 Z"/>
    <path id="path6" fill="#ffffff" stroke="none" d="M 60 172 L 64 172 L 64 160 L 60 160 Z"/>
    <path id="path7" fill="#ffffff" stroke="none" d="M 68 172 L 72 172 L 72 160 L 68 160 Z"/>
    <path id="path8" fill="#ffffff" stroke="none" d="M 76 172 L 80 172 L 80 160 L 76 160 Z"/>
    <path id="path9" fill="#ffffff" stroke="none" d="M 84 172 L 88 172 L 88 160 L 84 160 Z"/>
    <path id="path10" fill="#ffffff" stroke="none" d="M 92 172 L 96 172 L 96 160 L 92 160 Z"/>
    <path id="path11" fill="#ffffff" stroke="none" d="M 100 172 L 104 172 L 104 160 L 100 160 Z"/>
    <path id="path12" fill="#ffffff" stroke="none" d="M 108 172 L 112 172 L 112 160 L 108 160 Z"/>
    <path id="path13" fill="#ffffff" stroke="none" d="M 116 172 L 120 172 L 120 160 L 116 160 Z"/>
    <path id="path14" fill="#ffffff" stroke="none" d="M 124 172 L 128 172 L 128 160 L 124 160 Z"/>
    <path id="path15" fill="#ffffff" stroke="none" d="M 132 172 L 136 172 L 136 160 L 132 160 Z"/>
    <path id="path16" fill="#ffffff" stroke="none" d="M 140 172 L 144 172 L 144 160 L 140 160 Z"/>
    <path id="path17" fill="#ffffff" stroke="none" d="M 148 172 L 152 172 L 152 160 L 148 160 Z"/>
    <path id="path18" fill="#ffffff" stroke="none" d="M 156 172 L 160 172 L 160 160 L 156 160 Z"/>
    <path id="path19" fill="#ffffff" stroke="none" d="M 164 172 L 168 172 L 168 160 L 164 160 Z"/>
    <path id="path20" fill="#ffffff" stroke="none" d="M 172 172 L 176 172 L 176 160 L 172 160 Z"/>
    <path id="path21" fill="#ffffff" stroke="none" d="M 184 160 L 180 160 L 180 172 L 184 172 Z"/>
    <path id="path22" fill="#ffffff" stroke="none" d="M 192 160 L 188 160 L 188 172 L 192 172 Z"/>
    <path id="path23" fill="#ffffff" stroke="none" d="M 200 160 L 196 160 L 196 172 L 200 172 Z"/>
    <path id="path24" fill="#ffffff" stroke="none" d="M 208 160 L 204 160 L 204 172 L 208 172 Z"/>
    <path id="path25" fill="#ffffff" stroke="none" d="M 216 160 L 212 160 L 212 172 L 216 172 Z"/>
    <path id="path26" fill="#ffffff" stroke="none" d="M 224 160 L 220 160 L 220 172 L 224 172 Z"/>
    <path id="path27" fill="#ffffff" stroke="none" d="M 92 112 L 164 112 L 164 132 L 132 132 L 128 132 L 124 132 L 92 132 Z M 164 144 L 132 144 L 132 136 L 164 136 Z M 124 144 L 92 144 L 92 136 L 124 136 Z M 88 132 L 88 136 L 88 144 L 88 148 L 92 148 L 124 148 L 128 148 L 132 148 L 164 148 L 168 148 L 168 144 L 168 136 L 168 132 L 168 108 L 88 108 Z"/>
    <path id="path28" fill="#ffffff" stroke="none" d="M 33 112 L 27 112 C 26.448 112 26 112.447998 26 113 L 26 115 C 26 115.552002 26.448 116 27 116 L 33 116 C 33.551998 116 34 115.552002 34 115 L 34 113 C 34 112.447998 33.551998 112 33 112"/>
    <path id="path29" fill="#ffffff" stroke="none" d="M 45 112 L 39 112 C 38.447998 112 38 112.447998 38 113 L 38 115 C 38 115.552002 38.447998 116 39 116 L 45 116 C 45.551998 116 46 115.552002 46 115 L 46 113 C 46 112.447998 45.551998 112 45 112"/>
    <path id="path30" fill="#ffffff" stroke="none" d="M 57 112 L 51 112 C 50.447998 112 50 112.447998 50 113 L 50 115 C 50 115.552002 50.447998 116 51 116 L 57 116 C 57.551998 116 58 115.552002 58 115 L 58 113 C 58 112.447998 57.551998 112 57 112"/>
    <path id="path31" fill="#ffffff" stroke="none" d="M 69 112 L 63 112 C 62.447998 112 62 112.447998 62 113 L 62 115 C 62 115.552002 62.447998 116 63 116 L 69 116 C 69.552002 116 70 115.552002 70 115 L 70 113 C 70 112.447998 69.552002 112 69 112"/>
    <path id="path32" fill="#ffffff" stroke="none" d="M 33 122 L 27 122 C 26.448 122 26 122.447998 26 123 L 26 125 C 26 125.552002 26.448 126 27 126 L 33 126 C 33.551998 126 34 125.552002 34 125 L 34 123 C 34 122.447998 33.551998 122 33 122"/>
    <path id="path33" fill="#ffffff" stroke="none" d="M 45 122 L 39 122 C 38.447998 122 38 122.447998 38 123 L 38 125 C 38 125.552002 38.447998 126 39 126 L 45 126 C 45.551998 126 46 125.552002 46 125 L 46 123 C 46 122.447998 45.551998 122 45 122"/>
    <path id="path34" fill="#ffffff" stroke="none" d="M 57 122 L 51 122 C 50.447998 122 50 122.447998 50 123 L 50 125 C 50 125.552002 50.447998 126 51 126 L 57 126 C 57.551998 126 58 125.552002 58 125 L 58 123 C 58 122.447998 57.551998 122 57 122"/>
    <path id="path35" fill="#ffffff" stroke="none" d="M 69 122 L 63 122 C 62.447998 122 62 122.447998 62 123 L 62 125 C 62 125.552002 62.447998 126 63 126 L 69 126 C 69.552002 126 70 125.552002 70 125 L 70 123 C 70 122.447998 69.552002 122 69 122"/>
    <path id="path36" fill="#ffffff" stroke="none" d="M 33 132 L 27 132 C 26.448 132 26 132.446991 26 133 L 26 135 C 26 135.553009 26.448 136 27 136 L 33 136 C 33.551998 136 34 135.553009 34 135 L 34 133 C 34 132.446991 33.551998 132 33 132"/>
    <path id="path37" fill="#ffffff" stroke="none" d="M 45 132 L 39 132 C 38.447998 132 38 132.446991 38 133 L 38 135 C 38 135.553009 38.447998 136 39 136 L 45 136 C 45.551998 136 46 135.553009 46 135 L 46 133 C 46 132.446991 45.551998 132 45 132"/>
    <path id="path38" fill="#ffffff" stroke="none" d="M 57 132 L 51 132 C 50.447998 132 50 132.446991 50 133 L 50 135 C 50 135.553009 50.447998 136 51 136 L 57 136 C 57.551998 136 58 135.553009 58 135 L 58 133 C 58 132.446991 57.551998 132 57 132"/>
    <path id="path39" fill="#ffffff" stroke="none" d="M 69 132 L 63 132 C 62.447998 132 62 132.446991 62 133 L 62 135 C 62 135.553009 62.447998 136 63 136 L 69 136 C 69.552002 136 70 135.553009 70 135 L 70 133 C 70 132.446991 69.552002 132 69 132"/>
    <path id="path40" fill="#ffffff" stroke="none" d="M 193 112 L 187 112 C 186.447006 112 186 112.447998 186 113 L 186 115 C 186 115.552002 186.447006 116 187 116 L 193 116 C 193.552994 116 194 115.552002 194 115 L 194 113 C 194 112.447998 193.552994 112 193 112"/>
    <path id="path41" fill="#ffffff" stroke="none" d="M 205 112 L 199 112 C 198.447006 112 198 112.447998 198 113 L 198 115 C 198 115.552002 198.447006 116 199 116 L 205 116 C 205.552994 116 206 115.552002 206 115 L 206 113 C 206 112.447998 205.552994 112 205 112"/>
    <path id="path42" fill="#ffffff" stroke="none" d="M 217 112 L 211 112 C 210.447006 112 210 112.447998 210 113 L 210 115 C 210 115.552002 210.447006 116 211 116 L 217 116 C 217.552994 116 218 115.552002 218 115 L 218 113 C 218 112.447998 217.552994 112 217 112"/>
    <path id="path43" fill="#ffffff" stroke="none" d="M 229 112 L 223 112 C 222.447006 112 222 112.447998 222 113 L 222 115 C 222 115.552002 222.447006 116 223 116 L 229 116 C 229.552994 116 230 115.552002 230 115 L 230 113 C 230 112.447998 229.552994 112 229 112"/>
    <path id="path44" fill="#ffffff" stroke="none" d="M 193 122 L 187 122 C 186.447006 122 186 122.447998 186 123 L 186 125 C 186 125.552002 186.447006 126 187 126 L 193 126 C 193.552994 126 194 125.552002 194 125 L 194 123 C 194 122.447998 193.552994 122 193 122"/>
    <path id="path45" fill="#ffffff" stroke="none" d="M 205 122 L 199 122 C 198.447006 122 198 122.447998 198 123 L 198 125 C 198 125.552002 198.447006 126 199 126 L 205 126 C 205.552994 126 206 125.552002 206 125 L 206 123 C 206 122.447998 205.552994 122 205 122"/>
    <path id="path46" fill="#ffffff" stroke="none" d="M 217 122 L 211 122 C 210.447006 122 210 122.447998 210 123 L 210 125 C 210 125.552002 210.447006 126 211 126 L 217 126 C 217.552994 126 218 125.552002 218 125 L 218 123 C 218 122.447998 217.552994 122 217 122"/>
    <path id="path47" fill="#ffffff" stroke="none" d="M 229 122 L 223 122 C 222.447006 122 222 122.447998 222 123 L 222 125 C 222 125.552002 222.447006 126 223 126 L 229 126 C 229.552994 126 230 125.552002 230 125 L 230 123 C 230 122.447998 229.552994 122 229 122"/>
    <path id="path48" fill="#ffffff" stroke="none" d="M 193 132 L 187 132 C 186.447006 132 186 132.446991 186 133 L 186 135 C 186 135.553009 186.447006 136 187 136 L 193 136 C 193.552994 136 194 135.553009 194 135 L 194 133 C 194 132.446991 193.552994 132 193 132"/>
    <path id="path49" fill="#ffffff" stroke="none" d="M 205 132 L 199 132 C 198.447006 132 198 132.446991 198 133 L 198 135 C 198 135.553009 198.447006 136 199 136 L 205 136 C 205.552994 136 206 135.553009 206 135 L 206 133 C 206 132.446991 205.552994 132 205 132"/>
    <path id="path50" fill="#ffffff" stroke="none" d="M 217 132 L 211 132 C 210.447006 132 210 132.446991 210 133 L 210 135 C 210 135.553009 210.447006 136 211 136 L 217 136 C 217.552994 136 218 135.553009 218 135 L 218 133 C 218 132.446991 217.552994 132 217 132"/>
    <path id="path51" fill="#ffffff" stroke="none" d="M 229 132 L 223 132 C 222.447006 132 222 132.446991 222 133 L 222 135 C 222 135.553009 222.447006 136 223 136 L 229 136 C 229.552994 136 230 135.553009 230 135 L 230 133 C 230 132.446991 229.552994 132 229 132"/>
</svg>
