<?xml version="1.0" encoding="UTF-8"?>
<!-- Generated by Pixelmator Pro 3.7.1 -->
<svg width="256" height="256" viewBox="0 0 256 256" xmlns="http://www.w3.org/2000/svg">
    <path id="Path" fill="#ffffff" stroke="none" d="M 204 216 L 128 216 L 52 216 L 20 200 L 46.343002 200 L 49.171997 202.828003 L 56.572006 210.229004 C 57.973007 212.570007 61.684006 213.085999 64.792999 213.518997 C 68.322006 214.009995 73.332001 214.447998 79.681999 214.821991 C 92.600998 215.580994 109.761002 216 128 216 C 146.238998 216 163.399002 215.580994 176.317993 214.821991 C 182.667999 214.447998 187.677994 214.009995 191.207001 213.518997 C 194.701004 213.033005 198.955994 212.44101 199.835999 209.272003 L 203.578003 201.789001 L 204.472 200 L 236 200 Z M 204 226 C 204 227.104996 203.104996 228 202 228 L 54 228 C 52.895004 228 52 227.104996 52 226 L 52 220 L 204 220 Z M 200 242 C 200 243.104996 199.104996 244 198 244 L 58 244 C 56.895004 244 56 243.104996 56 242 L 56 232 L 200 232 Z M 200 200 L 196 208 C 196 210.209 165.554993 212 128 212 C 90.445 212 60 210.209 60 208 L 52 200 Z M 20 136 L 236 136 L 236 196 L 206.472 196 L 200 196 L 52 196 L 42.343002 196 L 20 196 Z M 20 124 C 20 121.791 21.791 120 24 120 L 44 120 L 48 120 L 52 120 L 56 120 L 60 120 L 64 120 L 68 120 L 72 120 L 76 120 L 80 120 L 84 120 L 88 120 L 92 120 L 96 120 L 100 120 L 104 120 L 108 120 L 112 120 L 116 120 L 120 120 L 124 120 L 128 120 L 132 120 L 136 120 L 140 120 L 144 120 L 148 120 L 152 120 L 156 120 L 160 120 L 164 120 L 168 120 L 172 120 L 176 120 L 180 120 L 184 120 L 188 120 L 192 120 L 196 120 L 200 120 L 204 120 L 208 120 L 212 120 L 216 120 L 232 120 C 234.209 120 236 121.791 236 124 L 236 132 L 20 132 Z M 40 14 C 40 12.895004 40.895004 12 42 12 L 218 12 C 219.104996 12 220 12.895004 220 14 L 220 116 L 216 116 L 216 16 L 212 16 L 212 116 L 208 116 L 208 16 L 204 16 L 204 116 L 200 116 L 200 16 L 196 16 L 196 116 L 192 116 L 192 16 L 188 16 L 188 116 L 184 116 L 184 16 L 180 16 L 180 116 L 176 116 L 176 16 L 172 16 L 172 116 L 168 116 L 168 16 L 164 16 L 164 116 L 160 116 L 160 16 L 156 16 L 156 116 L 152 116 L 152 16 L 148 16 L 148 116 L 144 116 L 144 16 L 140 16 L 140 116 L 136 116 L 136 16 L 132 16 L 132 116 L 128 116 L 128 16 L 124 16 L 124 116 L 120 116 L 120 16 L 116 16 L 116 116 L 112 116 L 112 16 L 108 16 L 108 116 L 104 116 L 104 16 L 100 16 L 100 116 L 96 116 L 96 16 L 92 16 L 92 116 L 88 116 L 88 16 L 84 16 L 84 116 L 80 116 L 80 16 L 76 16 L 76 116 L 72 116 L 72 16 L 68 16 L 68 116 L 64 116 L 64 16 L 60 16 L 60 116 L 56 116 L 56 16 L 52 16 L 52 116 L 48 116 L 48 16 L 44 16 L 44 116 L 40 116 Z M 232 116 L 224 116 L 224 14 C 224 10.692001 221.307999 8 218 8 L 42 8 C 38.692001 8 36 10.692001 36 14 L 36 116 L 24 116 C 19.589005 116 16 119.588989 16 124 L 16 196 L 16 200 L 16.013 200 C 16.013 201.488007 16.834 202.889008 18.210999 203.578003 L 48 218.472 L 48 226 C 48 228.606003 49.673004 230.824005 52 231.649994 L 52 242 C 52 245.307999 54.692001 248 58 248 L 198 248 C 201.307999 248 204 245.307999 204 242 L 204 231.649994 C 206.326996 230.824005 208 228.606003 208 226 L 208 218.472 L 237.789001 203.578003 C 239.166 202.889008 239.987 201.488007 239.987 200 L 240 200 L 240 196 L 240 124 C 240 119.588989 236.410995 116 232 116"/>
</svg>
