<?xml version="1.0" encoding="UTF-8"?>
<!-- Generated by Pixelmator Pro 3.7.1 -->
<svg width="256" height="256" viewBox="0 0 256 256" xmlns="http://www.w3.org/2000/svg">
    <path id="Path" fill="#ffffff" stroke="none" d="M 212 104.181793 C 212 106.290802 210.291 107.999802 208.182007 107.999802 L 47.817993 107.999802 C 45.709 107.999802 44 106.290802 44 104.181793 L 44 27.817795 C 44 25.709793 45.709 23.999802 47.817993 23.999802 L 208.182007 23.999802 C 210.291 23.999802 212 25.709793 212 27.817795 Z M 208.182007 20.181793 L 47.817993 20.181793 C 43.606995 20.181793 40.182007 23.607803 40.182007 27.817795 L 40.182007 104.181793 C 40.182007 108.392807 43.606995 111.817795 47.817993 111.817795 L 208.182007 111.817795 C 212.393005 111.817795 215.817993 108.392807 215.817993 104.181793 L 215.817993 27.817795 C 215.817993 23.607803 212.393005 20.181793 208.182007 20.181793"/>
    <path id="path1" fill="#ffffff" stroke="none" d="M 222 24 L 228 24 L 228 28 L 222 28 C 220.895004 28 220 28.895004 220 30 C 220 31.104996 220.895004 32 222 32 L 228 32 L 228 36 L 222 36 C 220.895004 36 220 36.895004 220 38 C 220 39.104996 220.895004 40 222 40 L 228 40 L 228 44 L 222 44 C 220.895004 44 220 44.895004 220 46 C 220 47.104996 220.895004 48 222 48 L 228 48 L 228 52 L 222 52 C 220.895004 52 220 52.895004 220 54 C 220 55.104996 220.895004 56 222 56 L 228 56 L 228 60 L 222 60 C 220.895004 60 220 60.895004 220 62 C 220 63.104996 220.895004 64 222 64 L 228 64 L 228 68 L 222 68 C 220.895004 68 220 68.895004 220 70 C 220 71.104996 220.895004 72 222 72 L 228 72 L 228 76 L 222 76 C 220.895004 76 220 76.895004 220 78 C 220 79.104996 220.895004 80 222 80 L 228 80 L 228 84 L 222 84 C 220.895004 84 220 84.895004 220 86 C 220 87.104996 220.895004 88 222 88 L 228 88 L 228 92 L 222 92 C 220.895004 92 220 92.894989 220 94 C 220 95.105011 220.895004 96 222 96 L 228 96 L 228 100 L 222 100 C 220.895004 100 220 100.894989 220 102 C 220 103.105011 220.895004 104 222 104 L 228 104 L 228 108 L 222 108 C 220.895004 108 220 108.894989 220 110 C 220 111.105011 220.895004 112 222 112 L 228 112 L 228 116 L 228 148 C 228 152.417999 224.417999 156 220 156 L 36 156 C 31.582001 156 28 152.417999 28 148 L 28 116 L 28 112 L 34 112 C 35.104996 112 36 111.105011 36 110 C 36 108.894989 35.104996 108 34 108 L 28 108 L 28 104 L 34 104 C 35.104996 104 36 103.105011 36 102 C 36 100.894989 35.104996 100 34 100 L 28 100 L 28 96 L 34 96 C 35.104996 96 36 95.105011 36 94 C 36 92.894989 35.104996 92 34 92 L 28 92 L 28 88 L 34 88 C 35.104996 88 36 87.104996 36 86 C 36 84.895004 35.104996 84 34 84 L 28 84 L 28 80 L 34 80 C 35.104996 80 36 79.104996 36 78 C 36 76.895004 35.104996 76 34 76 L 28 76 L 28 72 L 34 72 C 35.104996 72 36 71.104996 36 70 C 36 68.895004 35.104996 68 34 68 L 28 68 L 28 64 L 34 64 C 35.104996 64 36 63.104996 36 62 C 36 60.895004 35.104996 60 34 60 L 28 60 L 28 56 L 34 56 C 35.104996 56 36 55.104996 36 54 C 36 52.895004 35.104996 52 34 52 L 28 52 L 28 48 L 34 48 C 35.104996 48 36 47.104996 36 46 C 36 44.895004 35.104996 44 34 44 L 28 44 L 28 40 L 34 40 C 35.104996 40 36 39.104996 36 38 C 36 36.895004 35.104996 36 34 36 L 28 36 L 28 32 L 34 32 C 35.104996 32 36 31.104996 36 30 C 36 28.895004 35.104996 28 34 28 L 28 28 L 28 24 L 34 24 C 35.104996 24 36 23.104996 36 22 C 36 20.895004 35.104996 20 34 20 L 28 20 C 28 15.582001 31.582001 12 36 12 L 220 12 C 224.417999 12 228 15.582001 228 20 L 222 20 C 220.895004 20 220 20.895004 220 22 C 220 23.104996 220.895004 24 222 24 M 28.421997 157.294998 C 30.490005 158.983994 33.128006 160 36 160 L 220 160 C 222.871994 160 225.509995 158.983994 227.578003 157.294998 L 227.235992 164.802994 C 226.162003 164.287003 224.979996 164 223.772003 164 L 32.227997 164 C 31.020004 164 29.837997 164.287003 28.764008 164.802994 Z M 224.210007 236.222 C 224.091995 238.341995 222.339005 240 220.216003 240 L 35.783997 240 C 33.660995 240 31.908005 238.341995 31.789993 236.222 L 28.235001 172.222 C 28.106995 169.929001 29.932007 168 32.227997 168 L 223.772003 168 C 226.067993 168 227.893005 169.929001 227.764999 172.222 Z M 232.003998 148 L 232 148 L 232 116 L 232 20 C 232 13.382996 226.617004 8 220 8 L 36 8 C 29.382996 8 24 13.382996 24 20 L 24 116 L 24 148 L 23.996002 148 L 24.003998 148.182007 L 24.794006 169.072006 C 24.375 170.136002 24.175995 171.285995 24.240997 172.444 L 27.796005 236.444 C 28.031998 240.681 31.539993 244 35.783997 244 L 220.216003 244 C 224.460007 244 227.968002 240.681 228.203995 236.444 L 231.759003 172.444 C 231.824005 171.285995 231.625 170.136002 231.205994 169.072006 L 231.996002 148.182007 Z"/>
    <path id="path2" fill="#ffffff" stroke="none" d="M 96 147.134003 C 96 147.612 95.612 148 95.134003 148 L 84.865997 148 C 84.388 148 84 147.612 84 147.134003 L 84 146.677002 L 84 137.322998 L 84 136.865997 C 84 136.388 84.388 136 84.865997 136 L 95.134003 136 C 95.612 136 96 136.388 96 136.865997 Z M 78.677002 148 L 53.323002 148 C 52.591999 148 52 147.40799 52 146.677002 L 52 137.322998 C 52 136.59201 52.591999 136 53.323002 136 L 78.677002 136 C 79.408005 136 80 136.59201 80 137.322998 L 80 146.677002 C 80 147.40799 79.408005 148 78.677002 148 M 95.134003 132 L 84.865997 132 C 83.722 132 82.682999 132.412994 81.851997 133.076004 C 80.962997 132.410004 79.871002 132 78.677002 132 L 53.323002 132 C 50.388 132 48 134.388 48 137.322998 L 48 146.677002 C 48 149.612 50.388 152 53.323002 152 L 78.677002 152 C 79.871002 152 80.962997 151.591003 81.851997 150.924011 C 82.682999 151.587006 83.722 152 84.865997 152 L 95.134003 152 C 97.817001 152 100 149.817001 100 147.134003 L 100 136.865997 C 100 134.182999 97.817001 132 95.134003 132"/>
    <path id="path3" fill="#ffffff" stroke="none" d="M 212 192 L 204 192 L 204 184 L 212 184 Z M 200 204 L 192 204 L 192 196 L 200 196 Z M 200 216 L 192 216 L 188 216 L 184 216 L 184 208 L 188 208 L 192 208 L 200 208 Z M 200 228 L 192 228 L 192 220 L 200 220 Z M 188 228 L 180 228 L 180 220 L 184 220 L 188 220 Z M 176 228 L 168 228 L 168 220 L 172 220 L 176 220 Z M 164 228 L 156 228 L 156 220 L 160 220 L 164 220 Z M 152 228 L 96 228 L 96 220 L 100 220 L 108 220 L 112 220 L 120 220 L 124 220 L 132 220 L 136 220 L 144 220 L 148 220 L 152 220 Z M 92 228 L 84 228 L 84 220 L 88 220 L 92 220 Z M 80 228 L 72 228 L 72 220 L 76 220 L 80 220 Z M 68 228 L 60 228 L 60 220 L 68 220 Z M 56 208 L 68 208 L 72 208 L 72 216 L 68 216 L 60 216 L 56 216 Z M 56 196 L 64 196 L 68 196 L 68 204 L 56 204 Z M 56 184 L 64 184 L 64 192 L 56 192 Z M 68 184 L 76 184 L 76 192 L 72 192 L 68 192 Z M 80 184 L 88 184 L 88 192 L 84 192 L 80 192 Z M 92 184 L 100 184 L 100 192 L 96 192 L 92 192 Z M 104 184 L 112 184 L 112 192 L 108 192 L 104 192 Z M 116 184 L 124 184 L 124 192 L 120 192 L 116 192 Z M 128 184 L 136 184 L 136 192 L 132 192 L 128 192 Z M 140 184 L 148 184 L 148 192 L 144 192 L 140 192 Z M 152 184 L 160 184 L 160 192 L 156 192 L 152 192 Z M 164 184 L 172 184 L 172 192 L 168 192 L 164 192 Z M 176 184 L 184 184 L 184 192 L 180 192 L 176 192 Z M 160 208 L 164 208 L 168 208 L 168 216 L 164 216 L 160 216 Z M 148 208 L 152 208 L 156 208 L 156 216 L 152 216 L 148 216 Z M 136 208 L 140 208 L 144 208 L 144 216 L 136 216 Z M 124 208 L 128 208 L 132 208 L 132 216 L 124 216 Z M 112 208 L 116 208 L 120 208 L 120 216 L 112 216 Z M 100 208 L 104 208 L 108 208 L 108 216 L 100 216 Z M 88 208 L 92 208 L 96 208 L 96 216 L 92 216 L 88 216 Z M 76 208 L 80 208 L 84 208 L 84 216 L 80 216 L 76 216 Z M 92 204 L 88 204 L 84 204 L 84 196 L 88 196 L 92 196 Z M 104 204 L 100 204 L 96 204 L 96 196 L 100 196 L 104 196 Z M 116 204 L 112 204 L 108 204 L 108 196 L 112 196 L 116 196 Z M 128 204 L 124 204 L 120 204 L 120 196 L 124 196 L 128 196 Z M 140 204 L 136 204 L 132 204 L 132 196 L 136 196 L 140 196 Z M 152 204 L 148 204 L 144 204 L 144 196 L 148 196 L 152 196 Z M 164 204 L 160 204 L 156 204 L 156 196 L 160 196 L 164 196 Z M 176 204 L 172 204 L 168 204 L 168 196 L 172 196 L 176 196 Z M 72 196 L 76 196 L 80 196 L 80 204 L 76 204 L 72 204 Z M 180 216 L 176 216 L 172 216 L 172 208 L 176 208 L 180 208 Z M 188 204 L 184 204 L 180 204 L 180 196 L 184 196 L 188 196 Z M 188 184 L 200 184 L 200 192 L 192 192 L 188 192 Z M 204 180 L 200 180 L 188 180 L 184 180 L 176 180 L 172 180 L 164 180 L 160 180 L 152 180 L 148 180 L 140 180 L 136 180 L 128 180 L 124 180 L 116 180 L 112 180 L 104 180 L 100 180 L 92 180 L 88 180 L 80 180 L 76 180 L 68 180 L 64 180 L 56 180 L 52 180 L 52 184 L 52 192 L 52 196 L 52 204 L 52 208 L 52 216 L 52 220 L 56 220 L 56 228 L 56 232 L 60 232 L 68 232 L 72 232 L 80 232 L 84 232 L 92 232 L 96 232 L 152 232 L 156 232 L 164 232 L 168 232 L 176 232 L 180 232 L 188 232 L 192 232 L 200 232 L 204 232 L 204 228 L 204 220 L 204 216 L 204 208 L 204 204 L 204 196 L 212 196 L 216 196 L 216 192 L 216 184 L 216 180 L 212 180 Z"/>
</svg>
