<?xml version="1.0" encoding="UTF-8"?>
<!-- Generated by Pixelmator Pro 3.7.1 -->
<svg width="256" height="256" viewBox="0 0 256 256" xmlns="http://www.w3.org/2000/svg">
    <path id="Path" fill="#ffffff" stroke="none" d="M 232.166 240.160202 L 226.751999 240.3862 C 227.565002 236.956207 228 233.471191 228 230.000198 C 228 229.097198 227.966003 228.196198 227.912003 227.299194 L 236 227.000198 L 236 236.163208 C 236 238.307205 234.309006 240.070206 232.166 240.160202 M 116 244.000198 L 33.393005 240.557205 C 32.479996 237.126205 32 233.599197 32 230.000198 C 32 229.144196 32.033997 228.294205 32.087006 227.447205 L 128 230.997192 L 128.037003 230.999207 L 223.912003 227.447205 C 223.966003 228.295197 224 229.144196 224 230.000198 C 224 233.599197 223.520004 237.126205 222.606995 240.557205 L 140 244.000198 Z M 20 236.163208 L 20 227.000198 L 28.087997 227.299194 C 28.033997 228.196198 28 229.096191 28 230.000198 C 28 233.471191 28.434998 236.956207 29.248993 240.3862 L 23.833008 240.160202 C 21.690994 240.070206 20 238.307205 20 236.163208 M 223.470001 223.463196 L 128.07399 227.001205 L 32.531006 223.462204 C 37.589005 192.294189 78.399994 168.000198 128 168.000198 C 177.600998 168.000198 218.412003 192.294189 223.470001 223.463196 M 23.833008 15.840195 L 116 12.000198 L 140 12.000198 L 232.166 15.840195 C 234.309006 15.930206 236 17.6922 236 19.837204 L 236 222.998199 L 227.503006 223.313202 C 225.199997 207.903198 214.945999 193.710205 198.052994 182.799194 C 179.281006 170.6772 154.403 164.000198 128 164.000198 C 101.597 164.000198 76.718994 170.6772 57.947998 182.799194 C 41.054001 193.710205 30.800003 207.903198 28.496994 223.312195 L 20 222.998199 L 20 19.837204 C 20 17.6922 21.690994 15.930206 23.833008 15.840195 M 232.332993 11.844208 L 140.166992 8.003204 L 140.082993 8.000198 L 140 8.000198 L 116 8.000198 L 115.916 8.000198 L 115.833 8.003204 L 23.667007 11.844208 C 19.367996 12.023209 16 15.534195 16 19.837204 L 16 236.163208 C 16 240.466202 19.367996 243.977203 23.667007 244.156204 L 30.283005 244.431198 L 33.225998 244.555206 L 108.889999 247.707199 L 115.833 247.996201 L 115.916 248.000198 L 116 248.000198 L 140 248.000198 L 140.082993 248.000198 L 140.166992 247.996201 L 222.774002 244.555206 L 225.716995 244.431198 L 232.332993 244.156204 C 236.632004 243.977203 240 240.466202 240 236.163208 L 240 19.837204 C 240 15.534195 236.632004 12.023209 232.332993 11.844208"/>
    <path id="path1" fill="#ffffff" stroke="none" d="M 34 28 C 35.104 28 36 27.104004 36 26 C 36 24.895996 35.104 24 34 24 C 32.896 24 32 24.895996 32 26 C 32 27.104004 32.896 28 34 28"/>
    <path id="path2" fill="#ffffff" stroke="none" d="M 42 28 C 43.104 28 44 27.104004 44 26 C 44 24.895996 43.104 24 42 24 C 40.896 24 40 24.895996 40 26 C 40 27.104004 40.896 28 42 28"/>
    <path id="path3" fill="#ffffff" stroke="none" d="M 50 28 C 51.104 28 52 27.104004 52 26 C 52 24.895996 51.104 24 50 24 C 48.896 24 48 24.895996 48 26 C 48 27.104004 48.896 28 50 28"/>
    <path id="path4" fill="#ffffff" stroke="none" d="M 58 28 C 59.104 28 60 27.104004 60 26 C 60 24.895996 59.104 24 58 24 C 56.896 24 56 24.895996 56 26 C 56 27.104004 56.896 28 58 28"/>
    <path id="path5" fill="#ffffff" stroke="none" d="M 66 28 C 67.103996 28 68 27.104004 68 26 C 68 24.895996 67.103996 24 66 24 C 64.896004 24 64 24.895996 64 26 C 64 27.104004 64.896004 28 66 28"/>
    <path id="path6" fill="#ffffff" stroke="none" d="M 74 28 C 75.103996 28 76 27.104004 76 26 C 76 24.895996 75.103996 24 74 24 C 72.896004 24 72 24.895996 72 26 C 72 27.104004 72.896004 28 74 28"/>
    <path id="path7" fill="#ffffff" stroke="none" d="M 82 28 C 83.103996 28 84 27.104004 84 26 C 84 24.895996 83.103996 24 82 24 C 80.896004 24 80 24.895996 80 26 C 80 27.104004 80.896004 28 82 28"/>
    <path id="path8" fill="#ffffff" stroke="none" d="M 90 28 C 91.103996 28 92 27.104004 92 26 C 92 24.895996 91.103996 24 90 24 C 88.896004 24 88 24.895996 88 26 C 88 27.104004 88.896004 28 90 28"/>
    <path id="path9" fill="#ffffff" stroke="none" d="M 170 28 C 171.104004 28 172 27.104004 172 26 C 172 24.895996 171.104004 24 170 24 C 168.895996 24 168 24.895996 168 26 C 168 27.104004 168.895996 28 170 28"/>
    <path id="path10" fill="#ffffff" stroke="none" d="M 178 28 C 179.104004 28 180 27.104004 180 26 C 180 24.895996 179.104004 24 178 24 C 176.895996 24 176 24.895996 176 26 C 176 27.104004 176.895996 28 178 28"/>
    <path id="path11" fill="#ffffff" stroke="none" d="M 186 28 C 187.104004 28 188 27.104004 188 26 C 188 24.895996 187.104004 24 186 24 C 184.895996 24 184 24.895996 184 26 C 184 27.104004 184.895996 28 186 28"/>
    <path id="path12" fill="#ffffff" stroke="none" d="M 194 28 C 195.104004 28 196 27.104004 196 26 C 196 24.895996 195.104004 24 194 24 C 192.895996 24 192 24.895996 192 26 C 192 27.104004 192.895996 28 194 28"/>
    <path id="path13" fill="#ffffff" stroke="none" d="M 202 28 C 203.104004 28 204 27.104004 204 26 C 204 24.895996 203.104004 24 202 24 C 200.895996 24 200 24.895996 200 26 C 200 27.104004 200.895996 28 202 28"/>
    <path id="path14" fill="#ffffff" stroke="none" d="M 210 28 C 211.104004 28 212 27.104004 212 26 C 212 24.895996 211.104004 24 210 24 C 208.895996 24 208 24.895996 208 26 C 208 27.104004 208.895996 28 210 28"/>
    <path id="path15" fill="#ffffff" stroke="none" d="M 218 28 C 219.104004 28 220 27.104004 220 26 C 220 24.895996 219.104004 24 218 24 C 216.895996 24 216 24.895996 216 26 C 216 27.104004 216.895996 28 218 28"/>
    <path id="path16" fill="#ffffff" stroke="none" d="M 226 28 C 227.104004 28 228 27.104004 228 26 C 228 24.895996 227.104004 24 226 24 C 224.895996 24 224 24.895996 224 26 C 224 27.104004 224.895996 28 226 28"/>
    <path id="path17" fill="#ffffff" stroke="none" d="M 98 24 C 99.103996 24 100 23.104004 100 22 C 100 20.895996 99.103996 20 98 20 C 96.896004 20 96 20.895996 96 22 C 96 23.104004 96.896004 24 98 24"/>
    <path id="path18" fill="#ffffff" stroke="none" d="M 106 24 C 107.103996 24 108 23.104004 108 22 C 108 20.895996 107.103996 20 106 20 C 104.896004 20 104 20.895996 104 22 C 104 23.104004 104.896004 24 106 24"/>
    <path id="path19" fill="#ffffff" stroke="none" d="M 114 24 C 115.103996 24 116 23.104004 116 22 C 116 20.895996 115.103996 20 114 20 C 112.896004 20 112 20.895996 112 22 C 112 23.104004 112.896004 24 114 24"/>
    <path id="path20" fill="#ffffff" stroke="none" d="M 122 24 C 123.103996 24 124 23.104004 124 22 C 124 20.895996 123.103996 20 122 20 C 120.896004 20 120 20.895996 120 22 C 120 23.104004 120.896004 24 122 24"/>
    <path id="path21" fill="#ffffff" stroke="none" d="M 130 24 C 131.104004 24 132 23.104004 132 22 C 132 20.895996 131.104004 20 130 20 C 128.895996 20 128 20.895996 128 22 C 128 23.104004 128.895996 24 130 24"/>
    <path id="path22" fill="#ffffff" stroke="none" d="M 138 24 C 139.104004 24 140 23.104004 140 22 C 140 20.895996 139.104004 20 138 20 C 136.895996 20 136 20.895996 136 22 C 136 23.104004 136.895996 24 138 24"/>
    <path id="path23" fill="#ffffff" stroke="none" d="M 146 24 C 147.104004 24 148 23.104004 148 22 C 148 20.895996 147.104004 20 146 20 C 144.895996 20 144 20.895996 144 22 C 144 23.104004 144.895996 24 146 24"/>
    <path id="path24" fill="#ffffff" stroke="none" d="M 154 24 C 155.104004 24 156 23.104004 156 22 C 156 20.895996 155.104004 20 154 20 C 152.895996 20 152 20.895996 152 22 C 152 23.104004 152.895996 24 154 24"/>
    <path id="path25" fill="#ffffff" stroke="none" d="M 162 24 C 163.104004 24 164 23.104004 164 22 C 164 20.895996 163.104004 20 162 20 C 160.895996 20 160 20.895996 160 22 C 160 23.104004 160.895996 24 162 24"/>
    <path id="path26" fill="#ffffff" stroke="none" d="M 34 36 C 35.104 36 36 35.104004 36 34 C 36 32.895996 35.104 32 34 32 C 32.896 32 32 32.895996 32 34 C 32 35.104004 32.896 36 34 36"/>
    <path id="path27" fill="#ffffff" stroke="none" d="M 42 36 C 43.104 36 44 35.104004 44 34 C 44 32.895996 43.104 32 42 32 C 40.896 32 40 32.895996 40 34 C 40 35.104004 40.896 36 42 36"/>
    <path id="path28" fill="#ffffff" stroke="none" d="M 50 36 C 51.104 36 52 35.104004 52 34 C 52 32.895996 51.104 32 50 32 C 48.896 32 48 32.895996 48 34 C 48 35.104004 48.896 36 50 36"/>
    <path id="path29" fill="#ffffff" stroke="none" d="M 58 36 C 59.104 36 60 35.104004 60 34 C 60 32.895996 59.104 32 58 32 C 56.896 32 56 32.895996 56 34 C 56 35.104004 56.896 36 58 36"/>
    <path id="path30" fill="#ffffff" stroke="none" d="M 66 36 C 67.103996 36 68 35.104004 68 34 C 68 32.895996 67.103996 32 66 32 C 64.896004 32 64 32.895996 64 34 C 64 35.104004 64.896004 36 66 36"/>
    <path id="path31" fill="#ffffff" stroke="none" d="M 74 36 C 75.103996 36 76 35.104004 76 34 C 76 32.895996 75.103996 32 74 32 C 72.896004 32 72 32.895996 72 34 C 72 35.104004 72.896004 36 74 36"/>
    <path id="path32" fill="#ffffff" stroke="none" d="M 82 36 C 83.103996 36 84 35.104004 84 34 C 84 32.895996 83.103996 32 82 32 C 80.896004 32 80 32.895996 80 34 C 80 35.104004 80.896004 36 82 36"/>
    <path id="path33" fill="#ffffff" stroke="none" d="M 90 36 C 91.103996 36 92 35.104004 92 34 C 92 32.895996 91.103996 32 90 32 C 88.896004 32 88 32.895996 88 34 C 88 35.104004 88.896004 36 90 36"/>
    <path id="path34" fill="#ffffff" stroke="none" d="M 170 36 C 171.104004 36 172 35.104004 172 34 C 172 32.895996 171.104004 32 170 32 C 168.895996 32 168 32.895996 168 34 C 168 35.104004 168.895996 36 170 36"/>
    <path id="path35" fill="#ffffff" stroke="none" d="M 178 36 C 179.104004 36 180 35.104004 180 34 C 180 32.895996 179.104004 32 178 32 C 176.895996 32 176 32.895996 176 34 C 176 35.104004 176.895996 36 178 36"/>
    <path id="path36" fill="#ffffff" stroke="none" d="M 186 36 C 187.104004 36 188 35.104004 188 34 C 188 32.895996 187.104004 32 186 32 C 184.895996 32 184 32.895996 184 34 C 184 35.104004 184.895996 36 186 36"/>
    <path id="path37" fill="#ffffff" stroke="none" d="M 194 36 C 195.104004 36 196 35.104004 196 34 C 196 32.895996 195.104004 32 194 32 C 192.895996 32 192 32.895996 192 34 C 192 35.104004 192.895996 36 194 36"/>
    <path id="path38" fill="#ffffff" stroke="none" d="M 202 36 C 203.104004 36 204 35.104004 204 34 C 204 32.895996 203.104004 32 202 32 C 200.895996 32 200 32.895996 200 34 C 200 35.104004 200.895996 36 202 36"/>
    <path id="path39" fill="#ffffff" stroke="none" d="M 210 36 C 211.104004 36 212 35.104004 212 34 C 212 32.895996 211.104004 32 210 32 C 208.895996 32 208 32.895996 208 34 C 208 35.104004 208.895996 36 210 36"/>
    <path id="path40" fill="#ffffff" stroke="none" d="M 218 36 C 219.104004 36 220 35.104004 220 34 C 220 32.895996 219.104004 32 218 32 C 216.895996 32 216 32.895996 216 34 C 216 35.104004 216.895996 36 218 36"/>
    <path id="path41" fill="#ffffff" stroke="none" d="M 226 36 C 227.104004 36 228 35.104004 228 34 C 228 32.895996 227.104004 32 226 32 C 224.895996 32 224 32.895996 224 34 C 224 35.104004 224.895996 36 226 36"/>
    <path id="path42" fill="#ffffff" stroke="none" d="M 98 32 C 99.103996 32 100 31.104004 100 30 C 100 28.895996 99.103996 28 98 28 C 96.896004 28 96 28.895996 96 30 C 96 31.104004 96.896004 32 98 32"/>
    <path id="path43" fill="#ffffff" stroke="none" d="M 106 32 C 107.103996 32 108 31.104004 108 30 C 108 28.895996 107.103996 28 106 28 C 104.896004 28 104 28.895996 104 30 C 104 31.104004 104.896004 32 106 32"/>
    <path id="path44" fill="#ffffff" stroke="none" d="M 114 32 C 115.103996 32 116 31.104004 116 30 C 116 28.895996 115.103996 28 114 28 C 112.896004 28 112 28.895996 112 30 C 112 31.104004 112.896004 32 114 32"/>
    <path id="path45" fill="#ffffff" stroke="none" d="M 122 32 C 123.103996 32 124 31.104004 124 30 C 124 28.895996 123.103996 28 122 28 C 120.896004 28 120 28.895996 120 30 C 120 31.104004 120.896004 32 122 32"/>
    <path id="path46" fill="#ffffff" stroke="none" d="M 130 32 C 131.104004 32 132 31.104004 132 30 C 132 28.895996 131.104004 28 130 28 C 128.895996 28 128 28.895996 128 30 C 128 31.104004 128.895996 32 130 32"/>
    <path id="path47" fill="#ffffff" stroke="none" d="M 138 32 C 139.104004 32 140 31.104004 140 30 C 140 28.895996 139.104004 28 138 28 C 136.895996 28 136 28.895996 136 30 C 136 31.104004 136.895996 32 138 32"/>
    <path id="path48" fill="#ffffff" stroke="none" d="M 146 32 C 147.104004 32 148 31.104004 148 30 C 148 28.895996 147.104004 28 146 28 C 144.895996 28 144 28.895996 144 30 C 144 31.104004 144.895996 32 146 32"/>
    <path id="path49" fill="#ffffff" stroke="none" d="M 154 32 C 155.104004 32 156 31.104004 156 30 C 156 28.895996 155.104004 28 154 28 C 152.895996 28 152 28.895996 152 30 C 152 31.104004 152.895996 32 154 32"/>
    <path id="path50" fill="#ffffff" stroke="none" d="M 162 32 C 163.104004 32 164 31.104004 164 30 C 164 28.895996 163.104004 28 162 28 C 160.895996 28 160 28.895996 160 30 C 160 31.104004 160.895996 32 162 32"/>
    <path id="path51" fill="#ffffff" stroke="none" d="M 34 44 C 35.104 44 36 43.104004 36 42 C 36 40.895996 35.104 40 34 40 C 32.896 40 32 40.895996 32 42 C 32 43.104004 32.896 44 34 44"/>
    <path id="path52" fill="#ffffff" stroke="none" d="M 42 44 C 43.104 44 44 43.104004 44 42 C 44 40.895996 43.104 40 42 40 C 40.896 40 40 40.895996 40 42 C 40 43.104004 40.896 44 42 44"/>
    <path id="path53" fill="#ffffff" stroke="none" d="M 50 44 C 51.104 44 52 43.104004 52 42 C 52 40.895996 51.104 40 50 40 C 48.896 40 48 40.895996 48 42 C 48 43.104004 48.896 44 50 44"/>
    <path id="path54" fill="#ffffff" stroke="none" d="M 58 44 C 59.104 44 60 43.104004 60 42 C 60 40.895996 59.104 40 58 40 C 56.896 40 56 40.895996 56 42 C 56 43.104004 56.896 44 58 44"/>
    <path id="path55" fill="#ffffff" stroke="none" d="M 66 44 C 67.103996 44 68 43.104004 68 42 C 68 40.895996 67.103996 40 66 40 C 64.896004 40 64 40.895996 64 42 C 64 43.104004 64.896004 44 66 44"/>
    <path id="path56" fill="#ffffff" stroke="none" d="M 74 44 C 75.103996 44 76 43.104004 76 42 C 76 40.895996 75.103996 40 74 40 C 72.896004 40 72 40.895996 72 42 C 72 43.104004 72.896004 44 74 44"/>
    <path id="path57" fill="#ffffff" stroke="none" d="M 82 44 C 83.103996 44 84 43.104004 84 42 C 84 40.895996 83.103996 40 82 40 C 80.896004 40 80 40.895996 80 42 C 80 43.104004 80.896004 44 82 44"/>
    <path id="path58" fill="#ffffff" stroke="none" d="M 90 44 C 91.103996 44 92 43.104004 92 42 C 92 40.895996 91.103996 40 90 40 C 88.896004 40 88 40.895996 88 42 C 88 43.104004 88.896004 44 90 44"/>
    <path id="path59" fill="#ffffff" stroke="none" d="M 170 44 C 171.104004 44 172 43.104004 172 42 C 172 40.895996 171.104004 40 170 40 C 168.895996 40 168 40.895996 168 42 C 168 43.104004 168.895996 44 170 44"/>
    <path id="path60" fill="#ffffff" stroke="none" d="M 178 44 C 179.104004 44 180 43.104004 180 42 C 180 40.895996 179.104004 40 178 40 C 176.895996 40 176 40.895996 176 42 C 176 43.104004 176.895996 44 178 44"/>
    <path id="path61" fill="#ffffff" stroke="none" d="M 186 44 C 187.104004 44 188 43.104004 188 42 C 188 40.895996 187.104004 40 186 40 C 184.895996 40 184 40.895996 184 42 C 184 43.104004 184.895996 44 186 44"/>
    <path id="path62" fill="#ffffff" stroke="none" d="M 194 44 C 195.104004 44 196 43.104004 196 42 C 196 40.895996 195.104004 40 194 40 C 192.895996 40 192 40.895996 192 42 C 192 43.104004 192.895996 44 194 44"/>
    <path id="path63" fill="#ffffff" stroke="none" d="M 202 44 C 203.104004 44 204 43.104004 204 42 C 204 40.895996 203.104004 40 202 40 C 200.895996 40 200 40.895996 200 42 C 200 43.104004 200.895996 44 202 44"/>
    <path id="path64" fill="#ffffff" stroke="none" d="M 210 44 C 211.104004 44 212 43.104004 212 42 C 212 40.895996 211.104004 40 210 40 C 208.895996 40 208 40.895996 208 42 C 208 43.104004 208.895996 44 210 44"/>
    <path id="path65" fill="#ffffff" stroke="none" d="M 218 44 C 219.104004 44 220 43.104004 220 42 C 220 40.895996 219.104004 40 218 40 C 216.895996 40 216 40.895996 216 42 C 216 43.104004 216.895996 44 218 44"/>
    <path id="path66" fill="#ffffff" stroke="none" d="M 226 44 C 227.104004 44 228 43.104004 228 42 C 228 40.895996 227.104004 40 226 40 C 224.895996 40 224 40.895996 224 42 C 224 43.104004 224.895996 44 226 44"/>
    <path id="path67" fill="#ffffff" stroke="none" d="M 98 40 C 99.103996 40 100 39.104004 100 38 C 100 36.895996 99.103996 36 98 36 C 96.896004 36 96 36.895996 96 38 C 96 39.104004 96.896004 40 98 40"/>
    <path id="path68" fill="#ffffff" stroke="none" d="M 106 40 C 107.103996 40 108 39.104004 108 38 C 108 36.895996 107.103996 36 106 36 C 104.896004 36 104 36.895996 104 38 C 104 39.104004 104.896004 40 106 40"/>
    <path id="path69" fill="#ffffff" stroke="none" d="M 114 40 C 115.103996 40 116 39.104004 116 38 C 116 36.895996 115.103996 36 114 36 C 112.896004 36 112 36.895996 112 38 C 112 39.104004 112.896004 40 114 40"/>
    <path id="path70" fill="#ffffff" stroke="none" d="M 122 40 C 123.103996 40 124 39.104004 124 38 C 124 36.895996 123.103996 36 122 36 C 120.896004 36 120 36.895996 120 38 C 120 39.104004 120.896004 40 122 40"/>
    <path id="path71" fill="#ffffff" stroke="none" d="M 130 40 C 131.104004 40 132 39.104004 132 38 C 132 36.895996 131.104004 36 130 36 C 128.895996 36 128 36.895996 128 38 C 128 39.104004 128.895996 40 130 40"/>
    <path id="path72" fill="#ffffff" stroke="none" d="M 138 40 C 139.104004 40 140 39.104004 140 38 C 140 36.895996 139.104004 36 138 36 C 136.895996 36 136 36.895996 136 38 C 136 39.104004 136.895996 40 138 40"/>
    <path id="path73" fill="#ffffff" stroke="none" d="M 146 40 C 147.104004 40 148 39.104004 148 38 C 148 36.895996 147.104004 36 146 36 C 144.895996 36 144 36.895996 144 38 C 144 39.104004 144.895996 40 146 40"/>
    <path id="path74" fill="#ffffff" stroke="none" d="M 154 40 C 155.104004 40 156 39.104004 156 38 C 156 36.895996 155.104004 36 154 36 C 152.895996 36 152 36.895996 152 38 C 152 39.104004 152.895996 40 154 40"/>
    <path id="path75" fill="#ffffff" stroke="none" d="M 162 40 C 163.104004 40 164 39.104004 164 38 C 164 36.895996 163.104004 36 162 36 C 160.895996 36 160 36.895996 160 38 C 160 39.104004 160.895996 40 162 40"/>
    <path id="path76" fill="#ffffff" stroke="none" d="M 34 52 C 35.104 52 36 51.104004 36 50 C 36 48.895996 35.104 48 34 48 C 32.896 48 32 48.895996 32 50 C 32 51.104004 32.896 52 34 52"/>
    <path id="path77" fill="#ffffff" stroke="none" d="M 42 52 C 43.104 52 44 51.104004 44 50 C 44 48.895996 43.104 48 42 48 C 40.896 48 40 48.895996 40 50 C 40 51.104004 40.896 52 42 52"/>
    <path id="path78" fill="#ffffff" stroke="none" d="M 50 52 C 51.104 52 52 51.104004 52 50 C 52 48.895996 51.104 48 50 48 C 48.896 48 48 48.895996 48 50 C 48 51.104004 48.896 52 50 52"/>
    <path id="path79" fill="#ffffff" stroke="none" d="M 58 52 C 59.104 52 60 51.104004 60 50 C 60 48.895996 59.104 48 58 48 C 56.896 48 56 48.895996 56 50 C 56 51.104004 56.896 52 58 52"/>
    <path id="path80" fill="#ffffff" stroke="none" d="M 66 52 C 67.103996 52 68 51.104004 68 50 C 68 48.895996 67.103996 48 66 48 C 64.896004 48 64 48.895996 64 50 C 64 51.104004 64.896004 52 66 52"/>
    <path id="path81" fill="#ffffff" stroke="none" d="M 74 52 C 75.103996 52 76 51.104004 76 50 C 76 48.895996 75.103996 48 74 48 C 72.896004 48 72 48.895996 72 50 C 72 51.104004 72.896004 52 74 52"/>
    <path id="path82" fill="#ffffff" stroke="none" d="M 82 52 C 83.103996 52 84 51.104004 84 50 C 84 48.895996 83.103996 48 82 48 C 80.896004 48 80 48.895996 80 50 C 80 51.104004 80.896004 52 82 52"/>
    <path id="path83" fill="#ffffff" stroke="none" d="M 90 52 C 91.103996 52 92 51.104004 92 50 C 92 48.895996 91.103996 48 90 48 C 88.896004 48 88 48.895996 88 50 C 88 51.104004 88.896004 52 90 52"/>
    <path id="path84" fill="#ffffff" stroke="none" d="M 170 52 C 171.104004 52 172 51.104004 172 50 C 172 48.895996 171.104004 48 170 48 C 168.895996 48 168 48.895996 168 50 C 168 51.104004 168.895996 52 170 52"/>
    <path id="path85" fill="#ffffff" stroke="none" d="M 178 52 C 179.104004 52 180 51.104004 180 50 C 180 48.895996 179.104004 48 178 48 C 176.895996 48 176 48.895996 176 50 C 176 51.104004 176.895996 52 178 52"/>
    <path id="path86" fill="#ffffff" stroke="none" d="M 186 52 C 187.104004 52 188 51.104004 188 50 C 188 48.895996 187.104004 48 186 48 C 184.895996 48 184 48.895996 184 50 C 184 51.104004 184.895996 52 186 52"/>
    <path id="path87" fill="#ffffff" stroke="none" d="M 194 52 C 195.104004 52 196 51.104004 196 50 C 196 48.895996 195.104004 48 194 48 C 192.895996 48 192 48.895996 192 50 C 192 51.104004 192.895996 52 194 52"/>
    <path id="path88" fill="#ffffff" stroke="none" d="M 202 52 C 203.104004 52 204 51.104004 204 50 C 204 48.895996 203.104004 48 202 48 C 200.895996 48 200 48.895996 200 50 C 200 51.104004 200.895996 52 202 52"/>
    <path id="path89" fill="#ffffff" stroke="none" d="M 210 52 C 211.104004 52 212 51.104004 212 50 C 212 48.895996 211.104004 48 210 48 C 208.895996 48 208 48.895996 208 50 C 208 51.104004 208.895996 52 210 52"/>
    <path id="path90" fill="#ffffff" stroke="none" d="M 218 52 C 219.104004 52 220 51.104004 220 50 C 220 48.895996 219.104004 48 218 48 C 216.895996 48 216 48.895996 216 50 C 216 51.104004 216.895996 52 218 52"/>
    <path id="path91" fill="#ffffff" stroke="none" d="M 226 52 C 227.104004 52 228 51.104004 228 50 C 228 48.895996 227.104004 48 226 48 C 224.895996 48 224 48.895996 224 50 C 224 51.104004 224.895996 52 226 52"/>
    <path id="path92" fill="#ffffff" stroke="none" d="M 98 48 C 99.103996 48 100 47.104004 100 46 C 100 44.895996 99.103996 44 98 44 C 96.896004 44 96 44.895996 96 46 C 96 47.104004 96.896004 48 98 48"/>
    <path id="path93" fill="#ffffff" stroke="none" d="M 106 48 C 107.103996 48 108 47.104004 108 46 C 108 44.895996 107.103996 44 106 44 C 104.896004 44 104 44.895996 104 46 C 104 47.104004 104.896004 48 106 48"/>
    <path id="path94" fill="#ffffff" stroke="none" d="M 114 48 C 115.103996 48 116 47.104004 116 46 C 116 44.895996 115.103996 44 114 44 C 112.896004 44 112 44.895996 112 46 C 112 47.104004 112.896004 48 114 48"/>
    <path id="path95" fill="#ffffff" stroke="none" d="M 122 48 C 123.103996 48 124 47.104004 124 46 C 124 44.895996 123.103996 44 122 44 C 120.896004 44 120 44.895996 120 46 C 120 47.104004 120.896004 48 122 48"/>
    <path id="path96" fill="#ffffff" stroke="none" d="M 130 48 C 131.104004 48 132 47.104004 132 46 C 132 44.895996 131.104004 44 130 44 C 128.895996 44 128 44.895996 128 46 C 128 47.104004 128.895996 48 130 48"/>
    <path id="path97" fill="#ffffff" stroke="none" d="M 138 48 C 139.104004 48 140 47.104004 140 46 C 140 44.895996 139.104004 44 138 44 C 136.895996 44 136 44.895996 136 46 C 136 47.104004 136.895996 48 138 48"/>
    <path id="path98" fill="#ffffff" stroke="none" d="M 146 48 C 147.104004 48 148 47.104004 148 46 C 148 44.895996 147.104004 44 146 44 C 144.895996 44 144 44.895996 144 46 C 144 47.104004 144.895996 48 146 48"/>
    <path id="path99" fill="#ffffff" stroke="none" d="M 154 48 C 155.104004 48 156 47.104004 156 46 C 156 44.895996 155.104004 44 154 44 C 152.895996 44 152 44.895996 152 46 C 152 47.104004 152.895996 48 154 48"/>
    <path id="path100" fill="#ffffff" stroke="none" d="M 162 48 C 163.104004 48 164 47.104004 164 46 C 164 44.895996 163.104004 44 162 44 C 160.895996 44 160 44.895996 160 46 C 160 47.104004 160.895996 48 162 48"/>
    <path id="path101" fill="#ffffff" stroke="none" d="M 34 60 C 35.104 60 36 59.104004 36 58 C 36 56.895996 35.104 56 34 56 C 32.896 56 32 56.895996 32 58 C 32 59.104004 32.896 60 34 60"/>
    <path id="path102" fill="#ffffff" stroke="none" d="M 42 60 C 43.104 60 44 59.104004 44 58 C 44 56.895996 43.104 56 42 56 C 40.896 56 40 56.895996 40 58 C 40 59.104004 40.896 60 42 60"/>
    <path id="path103" fill="#ffffff" stroke="none" d="M 50 60 C 51.104 60 52 59.104004 52 58 C 52 56.895996 51.104 56 50 56 C 48.896 56 48 56.895996 48 58 C 48 59.104004 48.896 60 50 60"/>
    <path id="path104" fill="#ffffff" stroke="none" d="M 58 60 C 59.104 60 60 59.104004 60 58 C 60 56.895996 59.104 56 58 56 C 56.896 56 56 56.895996 56 58 C 56 59.104004 56.896 60 58 60"/>
    <path id="path105" fill="#ffffff" stroke="none" d="M 66 60 C 67.103996 60 68 59.104004 68 58 C 68 56.895996 67.103996 56 66 56 C 64.896004 56 64 56.895996 64 58 C 64 59.104004 64.896004 60 66 60"/>
    <path id="path106" fill="#ffffff" stroke="none" d="M 74 60 C 75.103996 60 76 59.104004 76 58 C 76 56.895996 75.103996 56 74 56 C 72.896004 56 72 56.895996 72 58 C 72 59.104004 72.896004 60 74 60"/>
    <path id="path107" fill="#ffffff" stroke="none" d="M 82 60 C 83.103996 60 84 59.104004 84 58 C 84 56.895996 83.103996 56 82 56 C 80.896004 56 80 56.895996 80 58 C 80 59.104004 80.896004 60 82 60"/>
    <path id="path108" fill="#ffffff" stroke="none" d="M 90 60 C 91.103996 60 92 59.104004 92 58 C 92 56.895996 91.103996 56 90 56 C 88.896004 56 88 56.895996 88 58 C 88 59.104004 88.896004 60 90 60"/>
    <path id="path109" fill="#ffffff" stroke="none" d="M 170 60 C 171.104004 60 172 59.104004 172 58 C 172 56.895996 171.104004 56 170 56 C 168.895996 56 168 56.895996 168 58 C 168 59.104004 168.895996 60 170 60"/>
    <path id="path110" fill="#ffffff" stroke="none" d="M 178 60 C 179.104004 60 180 59.104004 180 58 C 180 56.895996 179.104004 56 178 56 C 176.895996 56 176 56.895996 176 58 C 176 59.104004 176.895996 60 178 60"/>
    <path id="path111" fill="#ffffff" stroke="none" d="M 186 60 C 187.104004 60 188 59.104004 188 58 C 188 56.895996 187.104004 56 186 56 C 184.895996 56 184 56.895996 184 58 C 184 59.104004 184.895996 60 186 60"/>
    <path id="path112" fill="#ffffff" stroke="none" d="M 194 60 C 195.104004 60 196 59.104004 196 58 C 196 56.895996 195.104004 56 194 56 C 192.895996 56 192 56.895996 192 58 C 192 59.104004 192.895996 60 194 60"/>
    <path id="path113" fill="#ffffff" stroke="none" d="M 202 60 C 203.104004 60 204 59.104004 204 58 C 204 56.895996 203.104004 56 202 56 C 200.895996 56 200 56.895996 200 58 C 200 59.104004 200.895996 60 202 60"/>
    <path id="path114" fill="#ffffff" stroke="none" d="M 210 60 C 211.104004 60 212 59.104004 212 58 C 212 56.895996 211.104004 56 210 56 C 208.895996 56 208 56.895996 208 58 C 208 59.104004 208.895996 60 210 60"/>
    <path id="path115" fill="#ffffff" stroke="none" d="M 218 60 C 219.104004 60 220 59.104004 220 58 C 220 56.895996 219.104004 56 218 56 C 216.895996 56 216 56.895996 216 58 C 216 59.104004 216.895996 60 218 60"/>
    <path id="path116" fill="#ffffff" stroke="none" d="M 226 60 C 227.104004 60 228 59.104004 228 58 C 228 56.895996 227.104004 56 226 56 C 224.895996 56 224 56.895996 224 58 C 224 59.104004 224.895996 60 226 60"/>
    <path id="path117" fill="#ffffff" stroke="none" d="M 98 56 C 99.103996 56 100 55.104004 100 54 C 100 52.895996 99.103996 52 98 52 C 96.896004 52 96 52.895996 96 54 C 96 55.104004 96.896004 56 98 56"/>
    <path id="path118" fill="#ffffff" stroke="none" d="M 106 56 C 107.103996 56 108 55.104004 108 54 C 108 52.895996 107.103996 52 106 52 C 104.896004 52 104 52.895996 104 54 C 104 55.104004 104.896004 56 106 56"/>
    <path id="path119" fill="#ffffff" stroke="none" d="M 114 56 C 115.103996 56 116 55.104004 116 54 C 116 52.895996 115.103996 52 114 52 C 112.896004 52 112 52.895996 112 54 C 112 55.104004 112.896004 56 114 56"/>
    <path id="path120" fill="#ffffff" stroke="none" d="M 122 56 C 123.103996 56 124 55.104004 124 54 C 124 52.895996 123.103996 52 122 52 C 120.896004 52 120 52.895996 120 54 C 120 55.104004 120.896004 56 122 56"/>
    <path id="path121" fill="#ffffff" stroke="none" d="M 130 56 C 131.104004 56 132 55.104004 132 54 C 132 52.895996 131.104004 52 130 52 C 128.895996 52 128 52.895996 128 54 C 128 55.104004 128.895996 56 130 56"/>
    <path id="path122" fill="#ffffff" stroke="none" d="M 138 56 C 139.104004 56 140 55.104004 140 54 C 140 52.895996 139.104004 52 138 52 C 136.895996 52 136 52.895996 136 54 C 136 55.104004 136.895996 56 138 56"/>
    <path id="path123" fill="#ffffff" stroke="none" d="M 146 56 C 147.104004 56 148 55.104004 148 54 C 148 52.895996 147.104004 52 146 52 C 144.895996 52 144 52.895996 144 54 C 144 55.104004 144.895996 56 146 56"/>
    <path id="path124" fill="#ffffff" stroke="none" d="M 154 56 C 155.104004 56 156 55.104004 156 54 C 156 52.895996 155.104004 52 154 52 C 152.895996 52 152 52.895996 152 54 C 152 55.104004 152.895996 56 154 56"/>
    <path id="path125" fill="#ffffff" stroke="none" d="M 162 56 C 163.104004 56 164 55.104004 164 54 C 164 52.895996 163.104004 52 162 52 C 160.895996 52 160 52.895996 160 54 C 160 55.104004 160.895996 56 162 56"/>
    <path id="path126" fill="#ffffff" stroke="none" d="M 34 68 C 35.104 68 36 67.104004 36 66 C 36 64.895996 35.104 64 34 64 C 32.896 64 32 64.895996 32 66 C 32 67.104004 32.896 68 34 68"/>
    <path id="path127" fill="#ffffff" stroke="none" d="M 42 68 C 43.104 68 44 67.104004 44 66 C 44 64.895996 43.104 64 42 64 C 40.896 64 40 64.895996 40 66 C 40 67.104004 40.896 68 42 68"/>
    <path id="path128" fill="#ffffff" stroke="none" d="M 50 68 C 51.104 68 52 67.104004 52 66 C 52 64.895996 51.104 64 50 64 C 48.896 64 48 64.895996 48 66 C 48 67.104004 48.896 68 50 68"/>
    <path id="path129" fill="#ffffff" stroke="none" d="M 58 68 C 59.104 68 60 67.104004 60 66 C 60 64.895996 59.104 64 58 64 C 56.896 64 56 64.895996 56 66 C 56 67.104004 56.896 68 58 68"/>
    <path id="path130" fill="#ffffff" stroke="none" d="M 66 68 C 67.103996 68 68 67.104004 68 66 C 68 64.895996 67.103996 64 66 64 C 64.896004 64 64 64.895996 64 66 C 64 67.104004 64.896004 68 66 68"/>
    <path id="path131" fill="#ffffff" stroke="none" d="M 74 68 C 75.103996 68 76 67.104004 76 66 C 76 64.895996 75.103996 64 74 64 C 72.896004 64 72 64.895996 72 66 C 72 67.104004 72.896004 68 74 68"/>
    <path id="path132" fill="#ffffff" stroke="none" d="M 82 68 C 83.103996 68 84 67.104004 84 66 C 84 64.895996 83.103996 64 82 64 C 80.896004 64 80 64.895996 80 66 C 80 67.104004 80.896004 68 82 68"/>
    <path id="path133" fill="#ffffff" stroke="none" d="M 90 68 C 91.103996 68 92 67.104004 92 66 C 92 64.895996 91.103996 64 90 64 C 88.896004 64 88 64.895996 88 66 C 88 67.104004 88.896004 68 90 68"/>
    <path id="path134" fill="#ffffff" stroke="none" d="M 170 68 C 171.104004 68 172 67.104004 172 66 C 172 64.895996 171.104004 64 170 64 C 168.895996 64 168 64.895996 168 66 C 168 67.104004 168.895996 68 170 68"/>
    <path id="path135" fill="#ffffff" stroke="none" d="M 178 68 C 179.104004 68 180 67.104004 180 66 C 180 64.895996 179.104004 64 178 64 C 176.895996 64 176 64.895996 176 66 C 176 67.104004 176.895996 68 178 68"/>
    <path id="path136" fill="#ffffff" stroke="none" d="M 186 68 C 187.104004 68 188 67.104004 188 66 C 188 64.895996 187.104004 64 186 64 C 184.895996 64 184 64.895996 184 66 C 184 67.104004 184.895996 68 186 68"/>
    <path id="path137" fill="#ffffff" stroke="none" d="M 194 68 C 195.104004 68 196 67.104004 196 66 C 196 64.895996 195.104004 64 194 64 C 192.895996 64 192 64.895996 192 66 C 192 67.104004 192.895996 68 194 68"/>
    <path id="path138" fill="#ffffff" stroke="none" d="M 202 68 C 203.104004 68 204 67.104004 204 66 C 204 64.895996 203.104004 64 202 64 C 200.895996 64 200 64.895996 200 66 C 200 67.104004 200.895996 68 202 68"/>
    <path id="path139" fill="#ffffff" stroke="none" d="M 210 68 C 211.104004 68 212 67.104004 212 66 C 212 64.895996 211.104004 64 210 64 C 208.895996 64 208 64.895996 208 66 C 208 67.104004 208.895996 68 210 68"/>
    <path id="path140" fill="#ffffff" stroke="none" d="M 218 68 C 219.104004 68 220 67.104004 220 66 C 220 64.895996 219.104004 64 218 64 C 216.895996 64 216 64.895996 216 66 C 216 67.104004 216.895996 68 218 68"/>
    <path id="path141" fill="#ffffff" stroke="none" d="M 226 68 C 227.104004 68 228 67.104004 228 66 C 228 64.895996 227.104004 64 226 64 C 224.895996 64 224 64.895996 224 66 C 224 67.104004 224.895996 68 226 68"/>
    <path id="path142" fill="#ffffff" stroke="none" d="M 98 64 C 99.103996 64 100 63.104004 100 62 C 100 60.895996 99.103996 60 98 60 C 96.896004 60 96 60.895996 96 62 C 96 63.104004 96.896004 64 98 64"/>
    <path id="path143" fill="#ffffff" stroke="none" d="M 106 64 C 107.103996 64 108 63.104004 108 62 C 108 60.895996 107.103996 60 106 60 C 104.896004 60 104 60.895996 104 62 C 104 63.104004 104.896004 64 106 64"/>
    <path id="path144" fill="#ffffff" stroke="none" d="M 114 64 C 115.103996 64 116 63.104004 116 62 C 116 60.895996 115.103996 60 114 60 C 112.896004 60 112 60.895996 112 62 C 112 63.104004 112.896004 64 114 64"/>
    <path id="path145" fill="#ffffff" stroke="none" d="M 122 64 C 123.103996 64 124 63.104004 124 62 C 124 60.895996 123.103996 60 122 60 C 120.896004 60 120 60.895996 120 62 C 120 63.104004 120.896004 64 122 64"/>
    <path id="path146" fill="#ffffff" stroke="none" d="M 130 64 C 131.104004 64 132 63.104004 132 62 C 132 60.895996 131.104004 60 130 60 C 128.895996 60 128 60.895996 128 62 C 128 63.104004 128.895996 64 130 64"/>
    <path id="path147" fill="#ffffff" stroke="none" d="M 138 64 C 139.104004 64 140 63.104004 140 62 C 140 60.895996 139.104004 60 138 60 C 136.895996 60 136 60.895996 136 62 C 136 63.104004 136.895996 64 138 64"/>
    <path id="path148" fill="#ffffff" stroke="none" d="M 146 64 C 147.104004 64 148 63.104004 148 62 C 148 60.895996 147.104004 60 146 60 C 144.895996 60 144 60.895996 144 62 C 144 63.104004 144.895996 64 146 64"/>
    <path id="path149" fill="#ffffff" stroke="none" d="M 154 64 C 155.104004 64 156 63.104004 156 62 C 156 60.895996 155.104004 60 154 60 C 152.895996 60 152 60.895996 152 62 C 152 63.104004 152.895996 64 154 64"/>
    <path id="path150" fill="#ffffff" stroke="none" d="M 162 64 C 163.104004 64 164 63.104004 164 62 C 164 60.895996 163.104004 60 162 60 C 160.895996 60 160 60.895996 160 62 C 160 63.104004 160.895996 64 162 64"/>
    <path id="path151" fill="#ffffff" stroke="none" d="M 34 76 C 35.104 76 36 75.104004 36 74 C 36 72.895996 35.104 72 34 72 C 32.896 72 32 72.895996 32 74 C 32 75.104004 32.896 76 34 76"/>
    <path id="path152" fill="#ffffff" stroke="none" d="M 42 76 C 43.104 76 44 75.104004 44 74 C 44 72.895996 43.104 72 42 72 C 40.896 72 40 72.895996 40 74 C 40 75.104004 40.896 76 42 76"/>
    <path id="path153" fill="#ffffff" stroke="none" d="M 50 76 C 51.104 76 52 75.104004 52 74 C 52 72.895996 51.104 72 50 72 C 48.896 72 48 72.895996 48 74 C 48 75.104004 48.896 76 50 76"/>
    <path id="path154" fill="#ffffff" stroke="none" d="M 58 76 C 59.104 76 60 75.104004 60 74 C 60 72.895996 59.104 72 58 72 C 56.896 72 56 72.895996 56 74 C 56 75.104004 56.896 76 58 76"/>
    <path id="path155" fill="#ffffff" stroke="none" d="M 66 76 C 67.103996 76 68 75.104004 68 74 C 68 72.895996 67.103996 72 66 72 C 64.896004 72 64 72.895996 64 74 C 64 75.104004 64.896004 76 66 76"/>
    <path id="path156" fill="#ffffff" stroke="none" d="M 74 76 C 75.103996 76 76 75.104004 76 74 C 76 72.895996 75.103996 72 74 72 C 72.896004 72 72 72.895996 72 74 C 72 75.104004 72.896004 76 74 76"/>
    <path id="path157" fill="#ffffff" stroke="none" d="M 82 76 C 83.103996 76 84 75.104004 84 74 C 84 72.895996 83.103996 72 82 72 C 80.896004 72 80 72.895996 80 74 C 80 75.104004 80.896004 76 82 76"/>
    <path id="path158" fill="#ffffff" stroke="none" d="M 90 76 C 91.103996 76 92 75.104004 92 74 C 92 72.895996 91.103996 72 90 72 C 88.896004 72 88 72.895996 88 74 C 88 75.104004 88.896004 76 90 76"/>
    <path id="path159" fill="#ffffff" stroke="none" d="M 170 76 C 171.104004 76 172 75.104004 172 74 C 172 72.895996 171.104004 72 170 72 C 168.895996 72 168 72.895996 168 74 C 168 75.104004 168.895996 76 170 76"/>
    <path id="path160" fill="#ffffff" stroke="none" d="M 178 76 C 179.104004 76 180 75.104004 180 74 C 180 72.895996 179.104004 72 178 72 C 176.895996 72 176 72.895996 176 74 C 176 75.104004 176.895996 76 178 76"/>
    <path id="path161" fill="#ffffff" stroke="none" d="M 186 76 C 187.104004 76 188 75.104004 188 74 C 188 72.895996 187.104004 72 186 72 C 184.895996 72 184 72.895996 184 74 C 184 75.104004 184.895996 76 186 76"/>
    <path id="path162" fill="#ffffff" stroke="none" d="M 194 76 C 195.104004 76 196 75.104004 196 74 C 196 72.895996 195.104004 72 194 72 C 192.895996 72 192 72.895996 192 74 C 192 75.104004 192.895996 76 194 76"/>
    <path id="path163" fill="#ffffff" stroke="none" d="M 202 76 C 203.104004 76 204 75.104004 204 74 C 204 72.895996 203.104004 72 202 72 C 200.895996 72 200 72.895996 200 74 C 200 75.104004 200.895996 76 202 76"/>
    <path id="path164" fill="#ffffff" stroke="none" d="M 210 76 C 211.104004 76 212 75.104004 212 74 C 212 72.895996 211.104004 72 210 72 C 208.895996 72 208 72.895996 208 74 C 208 75.104004 208.895996 76 210 76"/>
    <path id="path165" fill="#ffffff" stroke="none" d="M 218 76 C 219.104004 76 220 75.104004 220 74 C 220 72.895996 219.104004 72 218 72 C 216.895996 72 216 72.895996 216 74 C 216 75.104004 216.895996 76 218 76"/>
    <path id="path166" fill="#ffffff" stroke="none" d="M 226 76 C 227.104004 76 228 75.104004 228 74 C 228 72.895996 227.104004 72 226 72 C 224.895996 72 224 72.895996 224 74 C 224 75.104004 224.895996 76 226 76"/>
    <path id="path167" fill="#ffffff" stroke="none" d="M 98 72 C 99.103996 72 100 71.104004 100 70 C 100 68.895996 99.103996 68 98 68 C 96.896004 68 96 68.895996 96 70 C 96 71.104004 96.896004 72 98 72"/>
    <path id="path168" fill="#ffffff" stroke="none" d="M 106 72 C 107.103996 72 108 71.104004 108 70 C 108 68.895996 107.103996 68 106 68 C 104.896004 68 104 68.895996 104 70 C 104 71.104004 104.896004 72 106 72"/>
    <path id="path169" fill="#ffffff" stroke="none" d="M 114 72 C 115.103996 72 116 71.104004 116 70 C 116 68.895996 115.103996 68 114 68 C 112.896004 68 112 68.895996 112 70 C 112 71.104004 112.896004 72 114 72"/>
    <path id="path170" fill="#ffffff" stroke="none" d="M 122 72 C 123.103996 72 124 71.104004 124 70 C 124 68.895996 123.103996 68 122 68 C 120.896004 68 120 68.895996 120 70 C 120 71.104004 120.896004 72 122 72"/>
    <path id="path171" fill="#ffffff" stroke="none" d="M 130 72 C 131.104004 72 132 71.104004 132 70 C 132 68.895996 131.104004 68 130 68 C 128.895996 68 128 68.895996 128 70 C 128 71.104004 128.895996 72 130 72"/>
    <path id="path172" fill="#ffffff" stroke="none" d="M 138 72 C 139.104004 72 140 71.104004 140 70 C 140 68.895996 139.104004 68 138 68 C 136.895996 68 136 68.895996 136 70 C 136 71.104004 136.895996 72 138 72"/>
    <path id="path173" fill="#ffffff" stroke="none" d="M 146 72 C 147.104004 72 148 71.104004 148 70 C 148 68.895996 147.104004 68 146 68 C 144.895996 68 144 68.895996 144 70 C 144 71.104004 144.895996 72 146 72"/>
    <path id="path174" fill="#ffffff" stroke="none" d="M 154 72 C 155.104004 72 156 71.104004 156 70 C 156 68.895996 155.104004 68 154 68 C 152.895996 68 152 68.895996 152 70 C 152 71.104004 152.895996 72 154 72"/>
    <path id="path175" fill="#ffffff" stroke="none" d="M 162 72 C 163.104004 72 164 71.104004 164 70 C 164 68.895996 163.104004 68 162 68 C 160.895996 68 160 68.895996 160 70 C 160 71.104004 160.895996 72 162 72"/>
    <path id="path176" fill="#ffffff" stroke="none" d="M 34 84 C 35.104 84 36 83.104004 36 82 C 36 80.895996 35.104 80 34 80 C 32.896 80 32 80.895996 32 82 C 32 83.104004 32.896 84 34 84"/>
    <path id="path177" fill="#ffffff" stroke="none" d="M 42 84 C 43.104 84 44 83.104004 44 82 C 44 80.895996 43.104 80 42 80 C 40.896 80 40 80.895996 40 82 C 40 83.104004 40.896 84 42 84"/>
    <path id="path178" fill="#ffffff" stroke="none" d="M 50 84 C 51.104 84 52 83.104004 52 82 C 52 80.895996 51.104 80 50 80 C 48.896 80 48 80.895996 48 82 C 48 83.104004 48.896 84 50 84"/>
    <path id="path179" fill="#ffffff" stroke="none" d="M 58 84 C 59.104 84 60 83.104004 60 82 C 60 80.895996 59.104 80 58 80 C 56.896 80 56 80.895996 56 82 C 56 83.104004 56.896 84 58 84"/>
    <path id="path180" fill="#ffffff" stroke="none" d="M 66 84 C 67.103996 84 68 83.104004 68 82 C 68 80.895996 67.103996 80 66 80 C 64.896004 80 64 80.895996 64 82 C 64 83.104004 64.896004 84 66 84"/>
    <path id="path181" fill="#ffffff" stroke="none" d="M 74 84 C 75.103996 84 76 83.104004 76 82 C 76 80.895996 75.103996 80 74 80 C 72.896004 80 72 80.895996 72 82 C 72 83.104004 72.896004 84 74 84"/>
    <path id="path182" fill="#ffffff" stroke="none" d="M 82 84 C 83.103996 84 84 83.104004 84 82 C 84 80.895996 83.103996 80 82 80 C 80.896004 80 80 80.895996 80 82 C 80 83.104004 80.896004 84 82 84"/>
    <path id="path183" fill="#ffffff" stroke="none" d="M 90 84 C 91.103996 84 92 83.104004 92 82 C 92 80.895996 91.103996 80 90 80 C 88.896004 80 88 80.895996 88 82 C 88 83.104004 88.896004 84 90 84"/>
    <path id="path184" fill="#ffffff" stroke="none" d="M 170 84 C 171.104004 84 172 83.104004 172 82 C 172 80.895996 171.104004 80 170 80 C 168.895996 80 168 80.895996 168 82 C 168 83.104004 168.895996 84 170 84"/>
    <path id="path185" fill="#ffffff" stroke="none" d="M 178 84 C 179.104004 84 180 83.104004 180 82 C 180 80.895996 179.104004 80 178 80 C 176.895996 80 176 80.895996 176 82 C 176 83.104004 176.895996 84 178 84"/>
    <path id="path186" fill="#ffffff" stroke="none" d="M 186 84 C 187.104004 84 188 83.104004 188 82 C 188 80.895996 187.104004 80 186 80 C 184.895996 80 184 80.895996 184 82 C 184 83.104004 184.895996 84 186 84"/>
    <path id="path187" fill="#ffffff" stroke="none" d="M 194 84 C 195.104004 84 196 83.104004 196 82 C 196 80.895996 195.104004 80 194 80 C 192.895996 80 192 80.895996 192 82 C 192 83.104004 192.895996 84 194 84"/>
    <path id="path188" fill="#ffffff" stroke="none" d="M 202 84 C 203.104004 84 204 83.104004 204 82 C 204 80.895996 203.104004 80 202 80 C 200.895996 80 200 80.895996 200 82 C 200 83.104004 200.895996 84 202 84"/>
    <path id="path189" fill="#ffffff" stroke="none" d="M 210 84 C 211.104004 84 212 83.104004 212 82 C 212 80.895996 211.104004 80 210 80 C 208.895996 80 208 80.895996 208 82 C 208 83.104004 208.895996 84 210 84"/>
    <path id="path190" fill="#ffffff" stroke="none" d="M 218 84 C 219.104004 84 220 83.104004 220 82 C 220 80.895996 219.104004 80 218 80 C 216.895996 80 216 80.895996 216 82 C 216 83.104004 216.895996 84 218 84"/>
    <path id="path191" fill="#ffffff" stroke="none" d="M 226 84 C 227.104004 84 228 83.104004 228 82 C 228 80.895996 227.104004 80 226 80 C 224.895996 80 224 80.895996 224 82 C 224 83.104004 224.895996 84 226 84"/>
    <path id="path192" fill="#ffffff" stroke="none" d="M 98 80 C 99.103996 80 100 79.104004 100 78 C 100 76.895996 99.103996 76 98 76 C 96.896004 76 96 76.895996 96 78 C 96 79.104004 96.896004 80 98 80"/>
    <path id="path193" fill="#ffffff" stroke="none" d="M 106 80 C 107.103996 80 108 79.104004 108 78 C 108 76.895996 107.103996 76 106 76 C 104.896004 76 104 76.895996 104 78 C 104 79.104004 104.896004 80 106 80"/>
    <path id="path194" fill="#ffffff" stroke="none" d="M 114 80 C 115.103996 80 116 79.104004 116 78 C 116 76.895996 115.103996 76 114 76 C 112.896004 76 112 76.895996 112 78 C 112 79.104004 112.896004 80 114 80"/>
    <path id="path195" fill="#ffffff" stroke="none" d="M 122 80 C 123.103996 80 124 79.104004 124 78 C 124 76.895996 123.103996 76 122 76 C 120.896004 76 120 76.895996 120 78 C 120 79.104004 120.896004 80 122 80"/>
    <path id="path196" fill="#ffffff" stroke="none" d="M 130 80 C 131.104004 80 132 79.104004 132 78 C 132 76.895996 131.104004 76 130 76 C 128.895996 76 128 76.895996 128 78 C 128 79.104004 128.895996 80 130 80"/>
    <path id="path197" fill="#ffffff" stroke="none" d="M 138 80 C 139.104004 80 140 79.104004 140 78 C 140 76.895996 139.104004 76 138 76 C 136.895996 76 136 76.895996 136 78 C 136 79.104004 136.895996 80 138 80"/>
    <path id="path198" fill="#ffffff" stroke="none" d="M 146 80 C 147.104004 80 148 79.104004 148 78 C 148 76.895996 147.104004 76 146 76 C 144.895996 76 144 76.895996 144 78 C 144 79.104004 144.895996 80 146 80"/>
    <path id="path199" fill="#ffffff" stroke="none" d="M 154 80 C 155.104004 80 156 79.104004 156 78 C 156 76.895996 155.104004 76 154 76 C 152.895996 76 152 76.895996 152 78 C 152 79.104004 152.895996 80 154 80"/>
    <path id="path200" fill="#ffffff" stroke="none" d="M 162 80 C 163.104004 80 164 79.104004 164 78 C 164 76.895996 163.104004 76 162 76 C 160.895996 76 160 76.895996 160 78 C 160 79.104004 160.895996 80 162 80"/>
    <path id="path201" fill="#ffffff" stroke="none" d="M 34 92 C 35.104 92 36 91.104004 36 90 C 36 88.895996 35.104 88 34 88 C 32.896 88 32 88.895996 32 90 C 32 91.104004 32.896 92 34 92"/>
    <path id="path202" fill="#ffffff" stroke="none" d="M 42 92 C 43.104 92 44 91.104004 44 90 C 44 88.895996 43.104 88 42 88 C 40.896 88 40 88.895996 40 90 C 40 91.104004 40.896 92 42 92"/>
    <path id="path203" fill="#ffffff" stroke="none" d="M 50 92 C 51.104 92 52 91.104004 52 90 C 52 88.895996 51.104 88 50 88 C 48.896 88 48 88.895996 48 90 C 48 91.104004 48.896 92 50 92"/>
    <path id="path204" fill="#ffffff" stroke="none" d="M 58 92 C 59.104 92 60 91.104004 60 90 C 60 88.895996 59.104 88 58 88 C 56.896 88 56 88.895996 56 90 C 56 91.104004 56.896 92 58 92"/>
    <path id="path205" fill="#ffffff" stroke="none" d="M 66 92 C 67.103996 92 68 91.104004 68 90 C 68 88.895996 67.103996 88 66 88 C 64.896004 88 64 88.895996 64 90 C 64 91.104004 64.896004 92 66 92"/>
    <path id="path206" fill="#ffffff" stroke="none" d="M 74 92 C 75.103996 92 76 91.104004 76 90 C 76 88.895996 75.103996 88 74 88 C 72.896004 88 72 88.895996 72 90 C 72 91.104004 72.896004 92 74 92"/>
    <path id="path207" fill="#ffffff" stroke="none" d="M 82 92 C 83.103996 92 84 91.104004 84 90 C 84 88.895996 83.103996 88 82 88 C 80.896004 88 80 88.895996 80 90 C 80 91.104004 80.896004 92 82 92"/>
    <path id="path208" fill="#ffffff" stroke="none" d="M 90 92 C 91.103996 92 92 91.104004 92 90 C 92 88.895996 91.103996 88 90 88 C 88.896004 88 88 88.895996 88 90 C 88 91.104004 88.896004 92 90 92"/>
    <path id="path209" fill="#ffffff" stroke="none" d="M 170 92 C 171.104004 92 172 91.104004 172 90 C 172 88.895996 171.104004 88 170 88 C 168.895996 88 168 88.895996 168 90 C 168 91.104004 168.895996 92 170 92"/>
    <path id="path210" fill="#ffffff" stroke="none" d="M 178 92 C 179.104004 92 180 91.104004 180 90 C 180 88.895996 179.104004 88 178 88 C 176.895996 88 176 88.895996 176 90 C 176 91.104004 176.895996 92 178 92"/>
    <path id="path211" fill="#ffffff" stroke="none" d="M 186 92 C 187.104004 92 188 91.104004 188 90 C 188 88.895996 187.104004 88 186 88 C 184.895996 88 184 88.895996 184 90 C 184 91.104004 184.895996 92 186 92"/>
    <path id="path212" fill="#ffffff" stroke="none" d="M 194 92 C 195.104004 92 196 91.104004 196 90 C 196 88.895996 195.104004 88 194 88 C 192.895996 88 192 88.895996 192 90 C 192 91.104004 192.895996 92 194 92"/>
    <path id="path213" fill="#ffffff" stroke="none" d="M 202 92 C 203.104004 92 204 91.104004 204 90 C 204 88.895996 203.104004 88 202 88 C 200.895996 88 200 88.895996 200 90 C 200 91.104004 200.895996 92 202 92"/>
    <path id="path214" fill="#ffffff" stroke="none" d="M 210 92 C 211.104004 92 212 91.104004 212 90 C 212 88.895996 211.104004 88 210 88 C 208.895996 88 208 88.895996 208 90 C 208 91.104004 208.895996 92 210 92"/>
    <path id="path215" fill="#ffffff" stroke="none" d="M 218 92 C 219.104004 92 220 91.104004 220 90 C 220 88.895996 219.104004 88 218 88 C 216.895996 88 216 88.895996 216 90 C 216 91.104004 216.895996 92 218 92"/>
    <path id="path216" fill="#ffffff" stroke="none" d="M 226 92 C 227.104004 92 228 91.104004 228 90 C 228 88.895996 227.104004 88 226 88 C 224.895996 88 224 88.895996 224 90 C 224 91.104004 224.895996 92 226 92"/>
    <path id="path217" fill="#ffffff" stroke="none" d="M 98 88 C 99.103996 88 100 87.104004 100 86 C 100 84.895996 99.103996 84 98 84 C 96.896004 84 96 84.895996 96 86 C 96 87.104004 96.896004 88 98 88"/>
    <path id="path218" fill="#ffffff" stroke="none" d="M 106 88 C 107.103996 88 108 87.104004 108 86 C 108 84.895996 107.103996 84 106 84 C 104.896004 84 104 84.895996 104 86 C 104 87.104004 104.896004 88 106 88"/>
    <path id="path219" fill="#ffffff" stroke="none" d="M 114 88 C 115.103996 88 116 87.104004 116 86 C 116 84.895996 115.103996 84 114 84 C 112.896004 84 112 84.895996 112 86 C 112 87.104004 112.896004 88 114 88"/>
    <path id="path220" fill="#ffffff" stroke="none" d="M 122 88 C 123.103996 88 124 87.104004 124 86 C 124 84.895996 123.103996 84 122 84 C 120.896004 84 120 84.895996 120 86 C 120 87.104004 120.896004 88 122 88"/>
    <path id="path221" fill="#ffffff" stroke="none" d="M 130 88 C 131.104004 88 132 87.104004 132 86 C 132 84.895996 131.104004 84 130 84 C 128.895996 84 128 84.895996 128 86 C 128 87.104004 128.895996 88 130 88"/>
    <path id="path222" fill="#ffffff" stroke="none" d="M 138 88 C 139.104004 88 140 87.104004 140 86 C 140 84.895996 139.104004 84 138 84 C 136.895996 84 136 84.895996 136 86 C 136 87.104004 136.895996 88 138 88"/>
    <path id="path223" fill="#ffffff" stroke="none" d="M 146 88 C 147.104004 88 148 87.104004 148 86 C 148 84.895996 147.104004 84 146 84 C 144.895996 84 144 84.895996 144 86 C 144 87.104004 144.895996 88 146 88"/>
    <path id="path224" fill="#ffffff" stroke="none" d="M 154 88 C 155.104004 88 156 87.104004 156 86 C 156 84.895996 155.104004 84 154 84 C 152.895996 84 152 84.895996 152 86 C 152 87.104004 152.895996 88 154 88"/>
    <path id="path225" fill="#ffffff" stroke="none" d="M 162 88 C 163.104004 88 164 87.104004 164 86 C 164 84.895996 163.104004 84 162 84 C 160.895996 84 160 84.895996 160 86 C 160 87.104004 160.895996 88 162 88"/>
    <path id="path226" fill="#ffffff" stroke="none" d="M 34 100 C 35.104 100 36 99.104004 36 98 C 36 96.895996 35.104 96 34 96 C 32.896 96 32 96.895996 32 98 C 32 99.104004 32.896 100 34 100"/>
    <path id="path227" fill="#ffffff" stroke="none" d="M 42 100 C 43.104 100 44 99.104004 44 98 C 44 96.895996 43.104 96 42 96 C 40.896 96 40 96.895996 40 98 C 40 99.104004 40.896 100 42 100"/>
    <path id="path228" fill="#ffffff" stroke="none" d="M 50 100 C 51.104 100 52 99.104004 52 98 C 52 96.895996 51.104 96 50 96 C 48.896 96 48 96.895996 48 98 C 48 99.104004 48.896 100 50 100"/>
    <path id="path229" fill="#ffffff" stroke="none" d="M 58 100 C 59.104 100 60 99.104004 60 98 C 60 96.895996 59.104 96 58 96 C 56.896 96 56 96.895996 56 98 C 56 99.104004 56.896 100 58 100"/>
    <path id="path230" fill="#ffffff" stroke="none" d="M 66 100 C 67.103996 100 68 99.104004 68 98 C 68 96.895996 67.103996 96 66 96 C 64.896004 96 64 96.895996 64 98 C 64 99.104004 64.896004 100 66 100"/>
    <path id="path231" fill="#ffffff" stroke="none" d="M 74 100 C 75.103996 100 76 99.104004 76 98 C 76 96.895996 75.103996 96 74 96 C 72.896004 96 72 96.895996 72 98 C 72 99.104004 72.896004 100 74 100"/>
    <path id="path232" fill="#ffffff" stroke="none" d="M 82 100 C 83.103996 100 84 99.104004 84 98 C 84 96.895996 83.103996 96 82 96 C 80.896004 96 80 96.895996 80 98 C 80 99.104004 80.896004 100 82 100"/>
    <path id="path233" fill="#ffffff" stroke="none" d="M 90 100 C 91.103996 100 92 99.104004 92 98 C 92 96.895996 91.103996 96 90 96 C 88.896004 96 88 96.895996 88 98 C 88 99.104004 88.896004 100 90 100"/>
    <path id="path234" fill="#ffffff" stroke="none" d="M 170 100 C 171.104004 100 172 99.104004 172 98 C 172 96.895996 171.104004 96 170 96 C 168.895996 96 168 96.895996 168 98 C 168 99.104004 168.895996 100 170 100"/>
    <path id="path235" fill="#ffffff" stroke="none" d="M 178 100 C 179.104004 100 180 99.104004 180 98 C 180 96.895996 179.104004 96 178 96 C 176.895996 96 176 96.895996 176 98 C 176 99.104004 176.895996 100 178 100"/>
    <path id="path236" fill="#ffffff" stroke="none" d="M 186 100 C 187.104004 100 188 99.104004 188 98 C 188 96.895996 187.104004 96 186 96 C 184.895996 96 184 96.895996 184 98 C 184 99.104004 184.895996 100 186 100"/>
    <path id="path237" fill="#ffffff" stroke="none" d="M 194 100 C 195.104004 100 196 99.104004 196 98 C 196 96.895996 195.104004 96 194 96 C 192.895996 96 192 96.895996 192 98 C 192 99.104004 192.895996 100 194 100"/>
    <path id="path238" fill="#ffffff" stroke="none" d="M 202 100 C 203.104004 100 204 99.104004 204 98 C 204 96.895996 203.104004 96 202 96 C 200.895996 96 200 96.895996 200 98 C 200 99.104004 200.895996 100 202 100"/>
    <path id="path239" fill="#ffffff" stroke="none" d="M 210 100 C 211.104004 100 212 99.104004 212 98 C 212 96.895996 211.104004 96 210 96 C 208.895996 96 208 96.895996 208 98 C 208 99.104004 208.895996 100 210 100"/>
    <path id="path240" fill="#ffffff" stroke="none" d="M 218 100 C 219.104004 100 220 99.104004 220 98 C 220 96.895996 219.104004 96 218 96 C 216.895996 96 216 96.895996 216 98 C 216 99.104004 216.895996 100 218 100"/>
    <path id="path241" fill="#ffffff" stroke="none" d="M 226 100 C 227.104004 100 228 99.104004 228 98 C 228 96.895996 227.104004 96 226 96 C 224.895996 96 224 96.895996 224 98 C 224 99.104004 224.895996 100 226 100"/>
    <path id="path242" fill="#ffffff" stroke="none" d="M 98 96 C 99.103996 96 100 95.104004 100 94 C 100 92.895996 99.103996 92 98 92 C 96.896004 92 96 92.895996 96 94 C 96 95.104004 96.896004 96 98 96"/>
    <path id="path243" fill="#ffffff" stroke="none" d="M 106 96 C 107.103996 96 108 95.104004 108 94 C 108 92.895996 107.103996 92 106 92 C 104.896004 92 104 92.895996 104 94 C 104 95.104004 104.896004 96 106 96"/>
    <path id="path244" fill="#ffffff" stroke="none" d="M 114 96 C 115.103996 96 116 95.104004 116 94 C 116 92.895996 115.103996 92 114 92 C 112.896004 92 112 92.895996 112 94 C 112 95.104004 112.896004 96 114 96"/>
    <path id="path245" fill="#ffffff" stroke="none" d="M 122 96 C 123.103996 96 124 95.104004 124 94 C 124 92.895996 123.103996 92 122 92 C 120.896004 92 120 92.895996 120 94 C 120 95.104004 120.896004 96 122 96"/>
    <path id="path246" fill="#ffffff" stroke="none" d="M 130 96 C 131.104004 96 132 95.104004 132 94 C 132 92.895996 131.104004 92 130 92 C 128.895996 92 128 92.895996 128 94 C 128 95.104004 128.895996 96 130 96"/>
    <path id="path247" fill="#ffffff" stroke="none" d="M 138 96 C 139.104004 96 140 95.104004 140 94 C 140 92.895996 139.104004 92 138 92 C 136.895996 92 136 92.895996 136 94 C 136 95.104004 136.895996 96 138 96"/>
    <path id="path248" fill="#ffffff" stroke="none" d="M 146 96 C 147.104004 96 148 95.104004 148 94 C 148 92.895996 147.104004 92 146 92 C 144.895996 92 144 92.895996 144 94 C 144 95.104004 144.895996 96 146 96"/>
    <path id="path249" fill="#ffffff" stroke="none" d="M 154 96 C 155.104004 96 156 95.104004 156 94 C 156 92.895996 155.104004 92 154 92 C 152.895996 92 152 92.895996 152 94 C 152 95.104004 152.895996 96 154 96"/>
    <path id="path250" fill="#ffffff" stroke="none" d="M 162 96 C 163.104004 96 164 95.104004 164 94 C 164 92.895996 163.104004 92 162 92 C 160.895996 92 160 92.895996 160 94 C 160 95.104004 160.895996 96 162 96"/>
    <path id="path251" fill="#ffffff" stroke="none" d="M 34 108 C 35.104 108 36 107.104004 36 106 C 36 104.895996 35.104 104 34 104 C 32.896 104 32 104.895996 32 106 C 32 107.104004 32.896 108 34 108"/>
    <path id="path252" fill="#ffffff" stroke="none" d="M 42 108 C 43.104 108 44 107.104004 44 106 C 44 104.895996 43.104 104 42 104 C 40.896 104 40 104.895996 40 106 C 40 107.104004 40.896 108 42 108"/>
    <path id="path253" fill="#ffffff" stroke="none" d="M 50 108 C 51.104 108 52 107.104004 52 106 C 52 104.895996 51.104 104 50 104 C 48.896 104 48 104.895996 48 106 C 48 107.104004 48.896 108 50 108"/>
    <path id="path254" fill="#ffffff" stroke="none" d="M 58 108 C 59.104 108 60 107.104004 60 106 C 60 104.895996 59.104 104 58 104 C 56.896 104 56 104.895996 56 106 C 56 107.104004 56.896 108 58 108"/>
    <path id="path255" fill="#ffffff" stroke="none" d="M 66 108 C 67.103996 108 68 107.104004 68 106 C 68 104.895996 67.103996 104 66 104 C 64.896004 104 64 104.895996 64 106 C 64 107.104004 64.896004 108 66 108"/>
    <path id="path256" fill="#ffffff" stroke="none" d="M 74 108 C 75.103996 108 76 107.104004 76 106 C 76 104.895996 75.103996 104 74 104 C 72.896004 104 72 104.895996 72 106 C 72 107.104004 72.896004 108 74 108"/>
    <path id="path257" fill="#ffffff" stroke="none" d="M 82 108 C 83.103996 108 84 107.104004 84 106 C 84 104.895996 83.103996 104 82 104 C 80.896004 104 80 104.895996 80 106 C 80 107.104004 80.896004 108 82 108"/>
    <path id="path258" fill="#ffffff" stroke="none" d="M 90 108 C 91.103996 108 92 107.104004 92 106 C 92 104.895996 91.103996 104 90 104 C 88.896004 104 88 104.895996 88 106 C 88 107.104004 88.896004 108 90 108"/>
    <path id="path259" fill="#ffffff" stroke="none" d="M 170 108 C 171.104004 108 172 107.104004 172 106 C 172 104.895996 171.104004 104 170 104 C 168.895996 104 168 104.895996 168 106 C 168 107.104004 168.895996 108 170 108"/>
    <path id="path260" fill="#ffffff" stroke="none" d="M 178 108 C 179.104004 108 180 107.104004 180 106 C 180 104.895996 179.104004 104 178 104 C 176.895996 104 176 104.895996 176 106 C 176 107.104004 176.895996 108 178 108"/>
    <path id="path261" fill="#ffffff" stroke="none" d="M 186 108 C 187.104004 108 188 107.104004 188 106 C 188 104.895996 187.104004 104 186 104 C 184.895996 104 184 104.895996 184 106 C 184 107.104004 184.895996 108 186 108"/>
    <path id="path262" fill="#ffffff" stroke="none" d="M 194 108 C 195.104004 108 196 107.104004 196 106 C 196 104.895996 195.104004 104 194 104 C 192.895996 104 192 104.895996 192 106 C 192 107.104004 192.895996 108 194 108"/>
    <path id="path263" fill="#ffffff" stroke="none" d="M 202 108 C 203.104004 108 204 107.104004 204 106 C 204 104.895996 203.104004 104 202 104 C 200.895996 104 200 104.895996 200 106 C 200 107.104004 200.895996 108 202 108"/>
    <path id="path264" fill="#ffffff" stroke="none" d="M 210 108 C 211.104004 108 212 107.104004 212 106 C 212 104.895996 211.104004 104 210 104 C 208.895996 104 208 104.895996 208 106 C 208 107.104004 208.895996 108 210 108"/>
    <path id="path265" fill="#ffffff" stroke="none" d="M 218 108 C 219.104004 108 220 107.104004 220 106 C 220 104.895996 219.104004 104 218 104 C 216.895996 104 216 104.895996 216 106 C 216 107.104004 216.895996 108 218 108"/>
    <path id="path266" fill="#ffffff" stroke="none" d="M 226 108 C 227.104004 108 228 107.104004 228 106 C 228 104.895996 227.104004 104 226 104 C 224.895996 104 224 104.895996 224 106 C 224 107.104004 224.895996 108 226 108"/>
    <path id="path267" fill="#ffffff" stroke="none" d="M 98 104 C 99.103996 104 100 103.104004 100 102 C 100 100.895996 99.103996 100 98 100 C 96.896004 100 96 100.895996 96 102 C 96 103.104004 96.896004 104 98 104"/>
    <path id="path268" fill="#ffffff" stroke="none" d="M 106 104 C 107.103996 104 108 103.104004 108 102 C 108 100.895996 107.103996 100 106 100 C 104.896004 100 104 100.895996 104 102 C 104 103.104004 104.896004 104 106 104"/>
    <path id="path269" fill="#ffffff" stroke="none" d="M 114 104 C 115.103996 104 116 103.104004 116 102 C 116 100.895996 115.103996 100 114 100 C 112.896004 100 112 100.895996 112 102 C 112 103.104004 112.896004 104 114 104"/>
    <path id="path270" fill="#ffffff" stroke="none" d="M 122 104 C 123.103996 104 124 103.104004 124 102 C 124 100.895996 123.103996 100 122 100 C 120.896004 100 120 100.895996 120 102 C 120 103.104004 120.896004 104 122 104"/>
    <path id="path271" fill="#ffffff" stroke="none" d="M 130 104 C 131.104004 104 132 103.104004 132 102 C 132 100.895996 131.104004 100 130 100 C 128.895996 100 128 100.895996 128 102 C 128 103.104004 128.895996 104 130 104"/>
    <path id="path272" fill="#ffffff" stroke="none" d="M 138 104 C 139.104004 104 140 103.104004 140 102 C 140 100.895996 139.104004 100 138 100 C 136.895996 100 136 100.895996 136 102 C 136 103.104004 136.895996 104 138 104"/>
    <path id="path273" fill="#ffffff" stroke="none" d="M 146 104 C 147.104004 104 148 103.104004 148 102 C 148 100.895996 147.104004 100 146 100 C 144.895996 100 144 100.895996 144 102 C 144 103.104004 144.895996 104 146 104"/>
    <path id="path274" fill="#ffffff" stroke="none" d="M 154 104 C 155.104004 104 156 103.104004 156 102 C 156 100.895996 155.104004 100 154 100 C 152.895996 100 152 100.895996 152 102 C 152 103.104004 152.895996 104 154 104"/>
    <path id="path275" fill="#ffffff" stroke="none" d="M 162 104 C 163.104004 104 164 103.104004 164 102 C 164 100.895996 163.104004 100 162 100 C 160.895996 100 160 100.895996 160 102 C 160 103.104004 160.895996 104 162 104"/>
    <path id="path276" fill="#ffffff" stroke="none" d="M 34 116 C 35.104 116 36 115.104004 36 114 C 36 112.895996 35.104 112 34 112 C 32.896 112 32 112.895996 32 114 C 32 115.104004 32.896 116 34 116"/>
    <path id="path277" fill="#ffffff" stroke="none" d="M 42 116 C 43.104 116 44 115.104004 44 114 C 44 112.895996 43.104 112 42 112 C 40.896 112 40 112.895996 40 114 C 40 115.104004 40.896 116 42 116"/>
    <path id="path278" fill="#ffffff" stroke="none" d="M 50 116 C 51.104 116 52 115.104004 52 114 C 52 112.895996 51.104 112 50 112 C 48.896 112 48 112.895996 48 114 C 48 115.104004 48.896 116 50 116"/>
    <path id="path279" fill="#ffffff" stroke="none" d="M 58 116 C 59.104 116 60 115.104004 60 114 C 60 112.895996 59.104 112 58 112 C 56.896 112 56 112.895996 56 114 C 56 115.104004 56.896 116 58 116"/>
    <path id="path280" fill="#ffffff" stroke="none" d="M 66 116 C 67.103996 116 68 115.104004 68 114 C 68 112.895996 67.103996 112 66 112 C 64.896004 112 64 112.895996 64 114 C 64 115.104004 64.896004 116 66 116"/>
    <path id="path281" fill="#ffffff" stroke="none" d="M 74 116 C 75.103996 116 76 115.104004 76 114 C 76 112.895996 75.103996 112 74 112 C 72.896004 112 72 112.895996 72 114 C 72 115.104004 72.896004 116 74 116"/>
    <path id="path282" fill="#ffffff" stroke="none" d="M 82 116 C 83.103996 116 84 115.104004 84 114 C 84 112.895996 83.103996 112 82 112 C 80.896004 112 80 112.895996 80 114 C 80 115.104004 80.896004 116 82 116"/>
    <path id="path283" fill="#ffffff" stroke="none" d="M 90 116 C 91.103996 116 92 115.104004 92 114 C 92 112.895996 91.103996 112 90 112 C 88.896004 112 88 112.895996 88 114 C 88 115.104004 88.896004 116 90 116"/>
    <path id="path284" fill="#ffffff" stroke="none" d="M 170 116 C 171.104004 116 172 115.104004 172 114 C 172 112.895996 171.104004 112 170 112 C 168.895996 112 168 112.895996 168 114 C 168 115.104004 168.895996 116 170 116"/>
    <path id="path285" fill="#ffffff" stroke="none" d="M 178 116 C 179.104004 116 180 115.104004 180 114 C 180 112.895996 179.104004 112 178 112 C 176.895996 112 176 112.895996 176 114 C 176 115.104004 176.895996 116 178 116"/>
    <path id="path286" fill="#ffffff" stroke="none" d="M 186 116 C 187.104004 116 188 115.104004 188 114 C 188 112.895996 187.104004 112 186 112 C 184.895996 112 184 112.895996 184 114 C 184 115.104004 184.895996 116 186 116"/>
    <path id="path287" fill="#ffffff" stroke="none" d="M 194 116 C 195.104004 116 196 115.104004 196 114 C 196 112.895996 195.104004 112 194 112 C 192.895996 112 192 112.895996 192 114 C 192 115.104004 192.895996 116 194 116"/>
    <path id="path288" fill="#ffffff" stroke="none" d="M 202 116 C 203.104004 116 204 115.104004 204 114 C 204 112.895996 203.104004 112 202 112 C 200.895996 112 200 112.895996 200 114 C 200 115.104004 200.895996 116 202 116"/>
    <path id="path289" fill="#ffffff" stroke="none" d="M 210 116 C 211.104004 116 212 115.104004 212 114 C 212 112.895996 211.104004 112 210 112 C 208.895996 112 208 112.895996 208 114 C 208 115.104004 208.895996 116 210 116"/>
    <path id="path290" fill="#ffffff" stroke="none" d="M 218 116 C 219.104004 116 220 115.104004 220 114 C 220 112.895996 219.104004 112 218 112 C 216.895996 112 216 112.895996 216 114 C 216 115.104004 216.895996 116 218 116"/>
    <path id="path291" fill="#ffffff" stroke="none" d="M 226 116 C 227.104004 116 228 115.104004 228 114 C 228 112.895996 227.104004 112 226 112 C 224.895996 112 224 112.895996 224 114 C 224 115.104004 224.895996 116 226 116"/>
    <path id="path292" fill="#ffffff" stroke="none" d="M 98 112 C 99.103996 112 100 111.104004 100 110 C 100 108.895996 99.103996 108 98 108 C 96.896004 108 96 108.895996 96 110 C 96 111.104004 96.896004 112 98 112"/>
    <path id="path293" fill="#ffffff" stroke="none" d="M 106 112 C 107.103996 112 108 111.104004 108 110 C 108 108.895996 107.103996 108 106 108 C 104.896004 108 104 108.895996 104 110 C 104 111.104004 104.896004 112 106 112"/>
    <path id="path294" fill="#ffffff" stroke="none" d="M 114 112 C 115.103996 112 116 111.104004 116 110 C 116 108.895996 115.103996 108 114 108 C 112.896004 108 112 108.895996 112 110 C 112 111.104004 112.896004 112 114 112"/>
    <path id="path295" fill="#ffffff" stroke="none" d="M 122 112 C 123.103996 112 124 111.104004 124 110 C 124 108.895996 123.103996 108 122 108 C 120.896004 108 120 108.895996 120 110 C 120 111.104004 120.896004 112 122 112"/>
    <path id="path296" fill="#ffffff" stroke="none" d="M 130 112 C 131.104004 112 132 111.104004 132 110 C 132 108.895996 131.104004 108 130 108 C 128.895996 108 128 108.895996 128 110 C 128 111.104004 128.895996 112 130 112"/>
    <path id="path297" fill="#ffffff" stroke="none" d="M 138 112 C 139.104004 112 140 111.104004 140 110 C 140 108.895996 139.104004 108 138 108 C 136.895996 108 136 108.895996 136 110 C 136 111.104004 136.895996 112 138 112"/>
    <path id="path298" fill="#ffffff" stroke="none" d="M 146 112 C 147.104004 112 148 111.104004 148 110 C 148 108.895996 147.104004 108 146 108 C 144.895996 108 144 108.895996 144 110 C 144 111.104004 144.895996 112 146 112"/>
    <path id="path299" fill="#ffffff" stroke="none" d="M 154 112 C 155.104004 112 156 111.104004 156 110 C 156 108.895996 155.104004 108 154 108 C 152.895996 108 152 108.895996 152 110 C 152 111.104004 152.895996 112 154 112"/>
    <path id="path300" fill="#ffffff" stroke="none" d="M 162 112 C 163.104004 112 164 111.104004 164 110 C 164 108.895996 163.104004 108 162 108 C 160.895996 108 160 108.895996 160 110 C 160 111.104004 160.895996 112 162 112"/>
    <path id="path301" fill="#ffffff" stroke="none" d="M 34 124 C 35.104 124 36 123.104004 36 122 C 36 120.895996 35.104 120 34 120 C 32.896 120 32 120.895996 32 122 C 32 123.104004 32.896 124 34 124"/>
    <path id="path302" fill="#ffffff" stroke="none" d="M 42 124 C 43.104 124 44 123.104004 44 122 C 44 120.895996 43.104 120 42 120 C 40.896 120 40 120.895996 40 122 C 40 123.104004 40.896 124 42 124"/>
    <path id="path303" fill="#ffffff" stroke="none" d="M 50 124 C 51.104 124 52 123.104004 52 122 C 52 120.895996 51.104 120 50 120 C 48.896 120 48 120.895996 48 122 C 48 123.104004 48.896 124 50 124"/>
    <path id="path304" fill="#ffffff" stroke="none" d="M 58 124 C 59.104 124 60 123.104004 60 122 C 60 120.895996 59.104 120 58 120 C 56.896 120 56 120.895996 56 122 C 56 123.104004 56.896 124 58 124"/>
    <path id="path305" fill="#ffffff" stroke="none" d="M 66 124 C 67.103996 124 68 123.104004 68 122 C 68 120.895996 67.103996 120 66 120 C 64.896004 120 64 120.895996 64 122 C 64 123.104004 64.896004 124 66 124"/>
    <path id="path306" fill="#ffffff" stroke="none" d="M 74 124 C 75.103996 124 76 123.104004 76 122 C 76 120.895996 75.103996 120 74 120 C 72.896004 120 72 120.895996 72 122 C 72 123.104004 72.896004 124 74 124"/>
    <path id="path307" fill="#ffffff" stroke="none" d="M 82 124 C 83.103996 124 84 123.104004 84 122 C 84 120.895996 83.103996 120 82 120 C 80.896004 120 80 120.895996 80 122 C 80 123.104004 80.896004 124 82 124"/>
    <path id="path308" fill="#ffffff" stroke="none" d="M 90 124 C 91.103996 124 92 123.104004 92 122 C 92 120.895996 91.103996 120 90 120 C 88.896004 120 88 120.895996 88 122 C 88 123.104004 88.896004 124 90 124"/>
    <path id="path309" fill="#ffffff" stroke="none" d="M 170 124 C 171.104004 124 172 123.104004 172 122 C 172 120.895996 171.104004 120 170 120 C 168.895996 120 168 120.895996 168 122 C 168 123.104004 168.895996 124 170 124"/>
    <path id="path310" fill="#ffffff" stroke="none" d="M 178 124 C 179.104004 124 180 123.104004 180 122 C 180 120.895996 179.104004 120 178 120 C 176.895996 120 176 120.895996 176 122 C 176 123.104004 176.895996 124 178 124"/>
    <path id="path311" fill="#ffffff" stroke="none" d="M 186 124 C 187.104004 124 188 123.104004 188 122 C 188 120.895996 187.104004 120 186 120 C 184.895996 120 184 120.895996 184 122 C 184 123.104004 184.895996 124 186 124"/>
    <path id="path312" fill="#ffffff" stroke="none" d="M 194 124 C 195.104004 124 196 123.104004 196 122 C 196 120.895996 195.104004 120 194 120 C 192.895996 120 192 120.895996 192 122 C 192 123.104004 192.895996 124 194 124"/>
    <path id="path313" fill="#ffffff" stroke="none" d="M 202 124 C 203.104004 124 204 123.104004 204 122 C 204 120.895996 203.104004 120 202 120 C 200.895996 120 200 120.895996 200 122 C 200 123.104004 200.895996 124 202 124"/>
    <path id="path314" fill="#ffffff" stroke="none" d="M 210 124 C 211.104004 124 212 123.104004 212 122 C 212 120.895996 211.104004 120 210 120 C 208.895996 120 208 120.895996 208 122 C 208 123.104004 208.895996 124 210 124"/>
    <path id="path315" fill="#ffffff" stroke="none" d="M 218 124 C 219.104004 124 220 123.104004 220 122 C 220 120.895996 219.104004 120 218 120 C 216.895996 120 216 120.895996 216 122 C 216 123.104004 216.895996 124 218 124"/>
    <path id="path316" fill="#ffffff" stroke="none" d="M 226 124 C 227.104004 124 228 123.104004 228 122 C 228 120.895996 227.104004 120 226 120 C 224.895996 120 224 120.895996 224 122 C 224 123.104004 224.895996 124 226 124"/>
    <path id="path317" fill="#ffffff" stroke="none" d="M 98 120 C 99.103996 120 100 119.104004 100 118 C 100 116.895996 99.103996 116 98 116 C 96.896004 116 96 116.895996 96 118 C 96 119.104004 96.896004 120 98 120"/>
    <path id="path318" fill="#ffffff" stroke="none" d="M 106 120 C 107.103996 120 108 119.104004 108 118 C 108 116.895996 107.103996 116 106 116 C 104.896004 116 104 116.895996 104 118 C 104 119.104004 104.896004 120 106 120"/>
    <path id="path319" fill="#ffffff" stroke="none" d="M 114 120 C 115.103996 120 116 119.104004 116 118 C 116 116.895996 115.103996 116 114 116 C 112.896004 116 112 116.895996 112 118 C 112 119.104004 112.896004 120 114 120"/>
    <path id="path320" fill="#ffffff" stroke="none" d="M 122 120 C 123.103996 120 124 119.104004 124 118 C 124 116.895996 123.103996 116 122 116 C 120.896004 116 120 116.895996 120 118 C 120 119.104004 120.896004 120 122 120"/>
    <path id="path321" fill="#ffffff" stroke="none" d="M 130 120 C 131.104004 120 132 119.104004 132 118 C 132 116.895996 131.104004 116 130 116 C 128.895996 116 128 116.895996 128 118 C 128 119.104004 128.895996 120 130 120"/>
    <path id="path322" fill="#ffffff" stroke="none" d="M 138 120 C 139.104004 120 140 119.104004 140 118 C 140 116.895996 139.104004 116 138 116 C 136.895996 116 136 116.895996 136 118 C 136 119.104004 136.895996 120 138 120"/>
    <path id="path323" fill="#ffffff" stroke="none" d="M 146 120 C 147.104004 120 148 119.104004 148 118 C 148 116.895996 147.104004 116 146 116 C 144.895996 116 144 116.895996 144 118 C 144 119.104004 144.895996 120 146 120"/>
    <path id="path324" fill="#ffffff" stroke="none" d="M 154 120 C 155.104004 120 156 119.104004 156 118 C 156 116.895996 155.104004 116 154 116 C 152.895996 116 152 116.895996 152 118 C 152 119.104004 152.895996 120 154 120"/>
    <path id="path325" fill="#ffffff" stroke="none" d="M 162 120 C 163.104004 120 164 119.104004 164 118 C 164 116.895996 163.104004 116 162 116 C 160.895996 116 160 116.895996 160 118 C 160 119.104004 160.895996 120 162 120"/>
    <path id="path326" fill="#ffffff" stroke="none" d="M 34 132 C 35.104 132 36 131.104004 36 130 C 36 128.895996 35.104 128 34 128 C 32.896 128 32 128.895996 32 130 C 32 131.104004 32.896 132 34 132"/>
    <path id="path327" fill="#ffffff" stroke="none" d="M 42 132 C 43.104 132 44 131.104004 44 130 C 44 128.895996 43.104 128 42 128 C 40.896 128 40 128.895996 40 130 C 40 131.104004 40.896 132 42 132"/>
    <path id="path328" fill="#ffffff" stroke="none" d="M 50 132 C 51.104 132 52 131.104004 52 130 C 52 128.895996 51.104 128 50 128 C 48.896 128 48 128.895996 48 130 C 48 131.104004 48.896 132 50 132"/>
    <path id="path329" fill="#ffffff" stroke="none" d="M 58 132 C 59.104 132 60 131.104004 60 130 C 60 128.895996 59.104 128 58 128 C 56.896 128 56 128.895996 56 130 C 56 131.104004 56.896 132 58 132"/>
    <path id="path330" fill="#ffffff" stroke="none" d="M 66 132 C 67.103996 132 68 131.104004 68 130 C 68 128.895996 67.103996 128 66 128 C 64.896004 128 64 128.895996 64 130 C 64 131.104004 64.896004 132 66 132"/>
    <path id="path331" fill="#ffffff" stroke="none" d="M 74 132 C 75.103996 132 76 131.104004 76 130 C 76 128.895996 75.103996 128 74 128 C 72.896004 128 72 128.895996 72 130 C 72 131.104004 72.896004 132 74 132"/>
    <path id="path332" fill="#ffffff" stroke="none" d="M 82 132 C 83.103996 132 84 131.104004 84 130 C 84 128.895996 83.103996 128 82 128 C 80.896004 128 80 128.895996 80 130 C 80 131.104004 80.896004 132 82 132"/>
    <path id="path333" fill="#ffffff" stroke="none" d="M 90 132 C 91.103996 132 92 131.104004 92 130 C 92 128.895996 91.103996 128 90 128 C 88.896004 128 88 128.895996 88 130 C 88 131.104004 88.896004 132 90 132"/>
    <path id="path334" fill="#ffffff" stroke="none" d="M 170 132 C 171.104004 132 172 131.104004 172 130 C 172 128.895996 171.104004 128 170 128 C 168.895996 128 168 128.895996 168 130 C 168 131.104004 168.895996 132 170 132"/>
    <path id="path335" fill="#ffffff" stroke="none" d="M 178 132 C 179.104004 132 180 131.104004 180 130 C 180 128.895996 179.104004 128 178 128 C 176.895996 128 176 128.895996 176 130 C 176 131.104004 176.895996 132 178 132"/>
    <path id="path336" fill="#ffffff" stroke="none" d="M 186 132 C 187.104004 132 188 131.104004 188 130 C 188 128.895996 187.104004 128 186 128 C 184.895996 128 184 128.895996 184 130 C 184 131.104004 184.895996 132 186 132"/>
    <path id="path337" fill="#ffffff" stroke="none" d="M 194 132 C 195.104004 132 196 131.104004 196 130 C 196 128.895996 195.104004 128 194 128 C 192.895996 128 192 128.895996 192 130 C 192 131.104004 192.895996 132 194 132"/>
    <path id="path338" fill="#ffffff" stroke="none" d="M 202 132 C 203.104004 132 204 131.104004 204 130 C 204 128.895996 203.104004 128 202 128 C 200.895996 128 200 128.895996 200 130 C 200 131.104004 200.895996 132 202 132"/>
    <path id="path339" fill="#ffffff" stroke="none" d="M 210 132 C 211.104004 132 212 131.104004 212 130 C 212 128.895996 211.104004 128 210 128 C 208.895996 128 208 128.895996 208 130 C 208 131.104004 208.895996 132 210 132"/>
    <path id="path340" fill="#ffffff" stroke="none" d="M 218 132 C 219.104004 132 220 131.104004 220 130 C 220 128.895996 219.104004 128 218 128 C 216.895996 128 216 128.895996 216 130 C 216 131.104004 216.895996 132 218 132"/>
    <path id="path341" fill="#ffffff" stroke="none" d="M 226 132 C 227.104004 132 228 131.104004 228 130 C 228 128.895996 227.104004 128 226 128 C 224.895996 128 224 128.895996 224 130 C 224 131.104004 224.895996 132 226 132"/>
    <path id="path342" fill="#ffffff" stroke="none" d="M 98 128 C 99.103996 128 100 127.104004 100 126 C 100 124.895996 99.103996 124 98 124 C 96.896004 124 96 124.895996 96 126 C 96 127.104004 96.896004 128 98 128"/>
    <path id="path343" fill="#ffffff" stroke="none" d="M 106 128 C 107.103996 128 108 127.104004 108 126 C 108 124.895996 107.103996 124 106 124 C 104.896004 124 104 124.895996 104 126 C 104 127.104004 104.896004 128 106 128"/>
    <path id="path344" fill="#ffffff" stroke="none" d="M 114 128 C 115.103996 128 116 127.104004 116 126 C 116 124.895996 115.103996 124 114 124 C 112.896004 124 112 124.895996 112 126 C 112 127.104004 112.896004 128 114 128"/>
    <path id="path345" fill="#ffffff" stroke="none" d="M 122 128 C 123.103996 128 124 127.104004 124 126 C 124 124.895996 123.103996 124 122 124 C 120.896004 124 120 124.895996 120 126 C 120 127.104004 120.896004 128 122 128"/>
    <path id="path346" fill="#ffffff" stroke="none" d="M 130 128 C 131.104004 128 132 127.104004 132 126 C 132 124.895996 131.104004 124 130 124 C 128.895996 124 128 124.895996 128 126 C 128 127.104004 128.895996 128 130 128"/>
    <path id="path347" fill="#ffffff" stroke="none" d="M 138 128 C 139.104004 128 140 127.104004 140 126 C 140 124.895996 139.104004 124 138 124 C 136.895996 124 136 124.895996 136 126 C 136 127.104004 136.895996 128 138 128"/>
    <path id="path348" fill="#ffffff" stroke="none" d="M 146 128 C 147.104004 128 148 127.104004 148 126 C 148 124.895996 147.104004 124 146 124 C 144.895996 124 144 124.895996 144 126 C 144 127.104004 144.895996 128 146 128"/>
    <path id="path349" fill="#ffffff" stroke="none" d="M 154 128 C 155.104004 128 156 127.104004 156 126 C 156 124.895996 155.104004 124 154 124 C 152.895996 124 152 124.895996 152 126 C 152 127.104004 152.895996 128 154 128"/>
    <path id="path350" fill="#ffffff" stroke="none" d="M 162 128 C 163.104004 128 164 127.104004 164 126 C 164 124.895996 163.104004 124 162 124 C 160.895996 124 160 124.895996 160 126 C 160 127.104004 160.895996 128 162 128"/>
    <path id="path351" fill="#ffffff" stroke="none" d="M 34 140 C 35.104 140 36 139.104004 36 138 C 36 136.895996 35.104 136 34 136 C 32.896 136 32 136.895996 32 138 C 32 139.104004 32.896 140 34 140"/>
    <path id="path352" fill="#ffffff" stroke="none" d="M 42 140 C 43.104 140 44 139.104004 44 138 C 44 136.895996 43.104 136 42 136 C 40.896 136 40 136.895996 40 138 C 40 139.104004 40.896 140 42 140"/>
    <path id="path353" fill="#ffffff" stroke="none" d="M 50 140 C 51.104 140 52 139.104004 52 138 C 52 136.895996 51.104 136 50 136 C 48.896 136 48 136.895996 48 138 C 48 139.104004 48.896 140 50 140"/>
    <path id="path354" fill="#ffffff" stroke="none" d="M 58 140 C 59.104 140 60 139.104004 60 138 C 60 136.895996 59.104 136 58 136 C 56.896 136 56 136.895996 56 138 C 56 139.104004 56.896 140 58 140"/>
    <path id="path355" fill="#ffffff" stroke="none" d="M 66 140 C 67.103996 140 68 139.104004 68 138 C 68 136.895996 67.103996 136 66 136 C 64.896004 136 64 136.895996 64 138 C 64 139.104004 64.896004 140 66 140"/>
    <path id="path356" fill="#ffffff" stroke="none" d="M 74 140 C 75.103996 140 76 139.104004 76 138 C 76 136.895996 75.103996 136 74 136 C 72.896004 136 72 136.895996 72 138 C 72 139.104004 72.896004 140 74 140"/>
    <path id="path357" fill="#ffffff" stroke="none" d="M 82 140 C 83.103996 140 84 139.104004 84 138 C 84 136.895996 83.103996 136 82 136 C 80.896004 136 80 136.895996 80 138 C 80 139.104004 80.896004 140 82 140"/>
    <path id="path358" fill="#ffffff" stroke="none" d="M 90 140 C 91.103996 140 92 139.104004 92 138 C 92 136.895996 91.103996 136 90 136 C 88.896004 136 88 136.895996 88 138 C 88 139.104004 88.896004 140 90 140"/>
    <path id="path359" fill="#ffffff" stroke="none" d="M 170 140 C 171.104004 140 172 139.104004 172 138 C 172 136.895996 171.104004 136 170 136 C 168.895996 136 168 136.895996 168 138 C 168 139.104004 168.895996 140 170 140"/>
    <path id="path360" fill="#ffffff" stroke="none" d="M 178 140 C 179.104004 140 180 139.104004 180 138 C 180 136.895996 179.104004 136 178 136 C 176.895996 136 176 136.895996 176 138 C 176 139.104004 176.895996 140 178 140"/>
    <path id="path361" fill="#ffffff" stroke="none" d="M 186 140 C 187.104004 140 188 139.104004 188 138 C 188 136.895996 187.104004 136 186 136 C 184.895996 136 184 136.895996 184 138 C 184 139.104004 184.895996 140 186 140"/>
    <path id="path362" fill="#ffffff" stroke="none" d="M 194 140 C 195.104004 140 196 139.104004 196 138 C 196 136.895996 195.104004 136 194 136 C 192.895996 136 192 136.895996 192 138 C 192 139.104004 192.895996 140 194 140"/>
    <path id="path363" fill="#ffffff" stroke="none" d="M 202 140 C 203.104004 140 204 139.104004 204 138 C 204 136.895996 203.104004 136 202 136 C 200.895996 136 200 136.895996 200 138 C 200 139.104004 200.895996 140 202 140"/>
    <path id="path364" fill="#ffffff" stroke="none" d="M 210 140 C 211.104004 140 212 139.104004 212 138 C 212 136.895996 211.104004 136 210 136 C 208.895996 136 208 136.895996 208 138 C 208 139.104004 208.895996 140 210 140"/>
    <path id="path365" fill="#ffffff" stroke="none" d="M 218 140 C 219.104004 140 220 139.104004 220 138 C 220 136.895996 219.104004 136 218 136 C 216.895996 136 216 136.895996 216 138 C 216 139.104004 216.895996 140 218 140"/>
    <path id="path366" fill="#ffffff" stroke="none" d="M 226 140 C 227.104004 140 228 139.104004 228 138 C 228 136.895996 227.104004 136 226 136 C 224.895996 136 224 136.895996 224 138 C 224 139.104004 224.895996 140 226 140"/>
    <path id="path367" fill="#ffffff" stroke="none" d="M 98 136 C 99.103996 136 100 135.104004 100 134 C 100 132.895996 99.103996 132 98 132 C 96.896004 132 96 132.895996 96 134 C 96 135.104004 96.896004 136 98 136"/>
    <path id="path368" fill="#ffffff" stroke="none" d="M 106 136 C 107.103996 136 108 135.104004 108 134 C 108 132.895996 107.103996 132 106 132 C 104.896004 132 104 132.895996 104 134 C 104 135.104004 104.896004 136 106 136"/>
    <path id="path369" fill="#ffffff" stroke="none" d="M 114 136 C 115.103996 136 116 135.104004 116 134 C 116 132.895996 115.103996 132 114 132 C 112.896004 132 112 132.895996 112 134 C 112 135.104004 112.896004 136 114 136"/>
    <path id="path370" fill="#ffffff" stroke="none" d="M 122 136 C 123.103996 136 124 135.104004 124 134 C 124 132.895996 123.103996 132 122 132 C 120.896004 132 120 132.895996 120 134 C 120 135.104004 120.896004 136 122 136"/>
    <path id="path371" fill="#ffffff" stroke="none" d="M 130 136 C 131.104004 136 132 135.104004 132 134 C 132 132.895996 131.104004 132 130 132 C 128.895996 132 128 132.895996 128 134 C 128 135.104004 128.895996 136 130 136"/>
    <path id="path372" fill="#ffffff" stroke="none" d="M 138 136 C 139.104004 136 140 135.104004 140 134 C 140 132.895996 139.104004 132 138 132 C 136.895996 132 136 132.895996 136 134 C 136 135.104004 136.895996 136 138 136"/>
    <path id="path373" fill="#ffffff" stroke="none" d="M 146 136 C 147.104004 136 148 135.104004 148 134 C 148 132.895996 147.104004 132 146 132 C 144.895996 132 144 132.895996 144 134 C 144 135.104004 144.895996 136 146 136"/>
    <path id="path374" fill="#ffffff" stroke="none" d="M 154 136 C 155.104004 136 156 135.104004 156 134 C 156 132.895996 155.104004 132 154 132 C 152.895996 132 152 132.895996 152 134 C 152 135.104004 152.895996 136 154 136"/>
    <path id="path375" fill="#ffffff" stroke="none" d="M 162 136 C 163.104004 136 164 135.104004 164 134 C 164 132.895996 163.104004 132 162 132 C 160.895996 132 160 132.895996 160 134 C 160 135.104004 160.895996 136 162 136"/>
    <path id="path376" fill="#ffffff" stroke="none" d="M 88 218 C 85.791 218 84 216.209 84 214 C 84 211.791 85.791 210 88 210 C 90.209 210 92 211.791 92 214 C 92 216.209 90.209 218 88 218 M 72 220 C 68.686996 220 66 217.313004 66 214 C 66 210.686996 68.686996 208 72 208 C 75.313004 208 78 210.686996 78 214 C 78 217.313004 75.313004 220 72 220 M 88 206 C 85.075996 206 82.520996 207.582001 81.125 209.929993 C 79.561996 206.440002 76.064003 204 72 204 C 66.486 204 62 208.485992 62 214 C 62 219.514008 66.486 224 72 224 C 76.064003 224 79.561996 221.559998 81.125 218.070007 C 82.520996 220.417999 85.075996 222 88 222 C 92.411003 222 96 218.410995 96 214 C 96 209.589005 92.411003 206 88 206"/>
    <path id="path377" fill="#ffffff" stroke="none" d="M 104 218 C 101.791 218 100 216.209 100 214 C 100 211.791 101.791 210 104 210 C 106.209 210 108 211.791 108 214 C 108 216.209 106.209 218 104 218 M 104 206 C 99.588997 206 96 209.589005 96 214 C 96 218.410995 99.588997 222 104 222 C 108.411003 222 112 218.410995 112 214 C 112 209.589005 108.411003 206 104 206"/>
    <path id="path378" fill="#ffffff" stroke="none" d="M 120 218 C 117.791 218 116 216.209 116 214 C 116 211.791 117.791 210 120 210 C 122.209 210 124 211.791 124 214 C 124 216.209 122.209 218 120 218 M 120 206 C 115.588997 206 112 209.589005 112 214 C 112 218.410995 115.588997 222 120 222 C 124.411003 222 128 218.410995 128 214 C 128 209.589005 124.411003 206 120 206"/>
    <path id="path379" fill="#ffffff" stroke="none" d="M 136 218 C 133.791 218 132 216.209 132 214 C 132 211.791 133.791 210 136 210 C 138.209 210 140 211.791 140 214 C 140 216.209 138.209 218 136 218 M 136 206 C 131.589005 206 128 209.589005 128 214 C 128 218.410995 131.589005 222 136 222 C 140.410995 222 144 218.410995 144 214 C 144 209.589005 140.410995 206 136 206"/>
    <path id="path380" fill="#ffffff" stroke="none" d="M 152 218 C 149.791 218 148 216.209 148 214 C 148 211.791 149.791 210 152 210 C 154.209 210 156 211.791 156 214 C 156 216.209 154.209 218 152 218 M 152 206 C 147.589005 206 144 209.589005 144 214 C 144 218.410995 147.589005 222 152 222 C 156.410995 222 160 218.410995 160 214 C 160 209.589005 156.410995 206 152 206"/>
    <path id="path381" fill="#ffffff" stroke="none" d="M 184 220 C 180.686996 220 178 217.313004 178 214 C 178 210.686996 180.686996 208 184 208 C 187.313004 208 190 210.686996 190 214 C 190 217.313004 187.313004 220 184 220 M 168 218 C 165.791 218 164 216.209 164 214 C 164 211.791 165.791 210 168 210 C 170.209 210 172 211.791 172 214 C 172 216.209 170.209 218 168 218 M 184 204 C 179.936996 204 176.438004 206.440002 174.875 209.929993 C 173.479004 207.582001 170.923996 206 168 206 C 163.589005 206 160 209.589005 160 214 C 160 218.410995 163.589005 222 168 222 C 170.923996 222 173.479004 220.417999 174.875 218.070007 C 176.438004 221.559998 179.936996 224 184 224 C 189.514008 224 194 219.514008 194 214 C 194 208.485992 189.514008 204 184 204"/>
</svg>
