<?xml version="1.0" encoding="UTF-8"?>
<!-- Generated by Pixelmator Pro 3.7.1 -->
<svg width="256" height="256" viewBox="0 0 256 256" xmlns="http://www.w3.org/2000/svg">
    <path id="Path" fill="#ffffff" stroke="none" d="M 220 180 L 216 180 L 216 168 L 220 168 Z M 212 180 L 208 180 L 208 168 L 212 168 Z M 200 180 L 196 180 L 196 168 L 200 168 Z M 188 180 L 184 180 L 184 168 L 188 168 Z M 176 180 L 172 180 L 172 168 L 176 168 Z M 164 180 L 160 180 L 160 168 L 164 168 Z M 152 180 L 148 180 L 148 168 L 152 168 Z M 140 180 L 136 180 L 136 168 L 140 168 Z M 128 180 L 124 180 L 124 168 L 128 168 Z M 116 180 L 112 180 L 112 172 L 112 168 L 116 168 Z M 108 180 L 76 180 L 76 172 L 105 172 L 107 172 L 108 172 Z M 104 167 L 104 165 C 104 164.447998 104.447998 164 105 164 L 107 164 C 107.552002 164 108 164.447998 108 165 L 108 167 C 108 167.552002 107.552002 168 107 168 L 105 168 C 104.447998 168 104 167.552002 104 167 M 72 180 L 40 180 L 40 172 L 72 172 Z M 32 180 L 28 180 L 28 168 L 32 168 Z M 24 180 L 20 180 L 20 168 L 24 168 Z M 216 164 L 212 164 L 208 164 L 204 164 L 200 164 L 196 164 L 192 164 L 188 164 L 184 164 L 180 164 L 176 164 L 172 164 L 168 164 L 164 164 L 160 164 L 156 164 L 152 164 L 148 164 L 144 164 L 140 164 L 136 164 L 132 164 L 128 164 L 124 164 L 120 164 L 116 164 L 112 164 L 111.899002 164 C 111.433998 161.721008 109.415001 160 107 160 L 105 160 C 102.242996 160 100 162.242996 100 165 L 100 167 C 100 167.34201 100.035004 167.677002 100.100998 168 L 76 168 L 72 168 L 40 168 L 36 168 L 36 164 L 32 164 L 28 164 L 24 164 L 20 164 L 16 164 L 16 168 L 16 180 L 16 184 L 20 184 L 24 184 L 28 184 L 32 184 L 36 184 L 40 184 L 72 184 L 76 184 L 108 184 L 112 184 L 116 184 L 120 184 L 124 184 L 128 184 L 132 184 L 136 184 L 140 184 L 144 184 L 148 184 L 152 184 L 156 184 L 160 184 L 164 184 L 168 184 L 172 184 L 176 184 L 180 184 L 184 184 L 188 184 L 192 184 L 196 184 L 200 184 L 204 184 L 208 184 L 212 184 L 216 184 L 220 184 L 224 184 L 224 180 L 224 168 L 224 164 L 220 164 Z"/>
    <path id="path1" fill="#ffffff" stroke="none" d="M 240.267502 92 C 240.449493 91.798004 240.623505 91.587006 240.776505 91.356003 C 241.147507 90.796997 241.402496 90.182007 241.539505 89.544006 C 242.464493 89.347 243.307495 88.899994 243.999496 88.268997 L 243.999496 92 Z M 239.999496 118 C 239.999496 119.104996 239.104507 120 237.999496 120 L 235.999496 120 L 235.999496 116 L 235.999496 112 L 235.999496 104 L 235.999496 100 L 235.999496 96 L 239.999496 96 Z M 237.999496 132 C 239.104507 132 239.999496 132.895004 239.999496 134 L 239.999496 136 L 235.999496 136 L 235.999496 132 Z M 239.999496 140 L 235.999496 140 L 235.999496 138 L 239.999496 138 Z M 239.999496 144 L 235.999496 144 L 235.999496 142 L 239.999496 142 Z M 239.999496 148 L 235.999496 148 L 235.999496 146 L 239.999496 146 Z M 239.999496 152 L 235.999496 152 L 235.999496 150 L 239.999496 150 Z M 239.999496 156 L 235.999496 156 L 235.999496 154 L 239.999496 154 Z M 239.999496 160 L 235.999496 160 L 235.999496 158 L 239.999496 158 Z M 239.999496 164 L 235.999496 164 L 235.999496 162 L 239.999496 162 Z M 239.999496 168 L 235.999496 168 L 235.999496 166 L 239.999496 166 Z M 239.999496 172 L 235.999496 172 L 235.999496 170 L 239.999496 170 Z M 239.999496 176 L 235.999496 176 L 235.999496 174 L 239.999496 174 Z M 239.999496 180 L 235.999496 180 L 235.999496 178 L 239.999496 178 Z M 239.999496 184 L 235.999496 184 L 235.999496 182 L 239.999496 182 Z M 239.999496 188 L 235.999496 188 L 235.999496 186 L 239.999496 186 Z M 23.999495 152 L 19.999495 152 L 19.999495 140 L 23.999495 140 Z M 35.999496 152 L 31.999495 152 L 31.999495 140 L 35.999496 140 Z M 47.999496 152 L 43.999496 152 L 43.999496 140 L 47.999496 140 Z M 59.999496 152 L 55.999496 152 L 55.999496 140 L 59.999496 140 Z M 67.999496 152 L 63.999496 152 L 63.999496 140 L 67.999496 140 Z M 79.999496 152 L 75.999496 152 L 75.999496 140 L 79.999496 140 Z M 91.999496 152 L 87.999496 152 L 87.999496 140 L 91.999496 140 Z M 103.999496 152 L 99.999496 152 L 99.999496 140 L 103.999496 140 Z M 139.999496 140 L 139.999496 152 L 135.999496 152 L 135.999496 148 L 135.999496 140 Z M 131.999496 148 L 111.999496 148 L 111.999496 140 L 131.999496 140 Z M 151.999496 152 L 147.999496 152 L 147.999496 140 L 151.999496 140 Z M 163.999496 152 L 159.999496 152 L 159.999496 140 L 163.999496 140 Z M 175.999496 152 L 171.999496 152 L 171.999496 140 L 175.999496 140 Z M 23.999495 124 L 19.999495 124 L 19.999495 112 L 23.999495 112 Z M 29.025496 118 C 28.390501 118.837997 27.999495 119.869995 27.999495 121 L 27.999495 115 C 27.999495 116.130005 28.390501 117.162003 29.025496 118 M 39.999496 115 L 39.999496 121 C 39.999496 119.869995 39.608505 118.837997 38.974503 118 C 39.608505 117.162003 39.999496 116.130005 39.999496 115 M 31.999495 115 L 31.999495 113 C 31.999495 112.447998 32.447495 112 32.999496 112 L 34.999496 112 C 35.552505 112 35.999496 112.447998 35.999496 113 L 35.999496 115 C 35.999496 115.552002 35.552505 116 34.999496 116 L 32.999496 116 C 32.447495 116 31.999495 115.552002 31.999495 115 M 35.999496 121 L 35.999496 123 C 35.999496 123.552002 35.552505 124 34.999496 124 L 32.999496 124 C 32.447495 124 31.999495 123.552002 31.999495 123 L 31.999495 121 C 31.999495 120.447998 32.447495 120 32.999496 120 L 34.999496 120 C 35.552505 120 35.999496 120.447998 35.999496 121 M 47.999496 124 L 43.999496 124 L 43.999496 112 L 47.999496 112 Z M 59.999496 124 L 55.999496 124 L 55.999496 112 L 59.999496 112 Z M 71.999496 124 L 67.999496 124 L 67.999496 112 L 71.999496 112 Z M 79.999496 124 L 75.999496 124 L 75.999496 112 L 79.999496 112 Z M 91.999496 124 L 87.999496 124 L 87.999496 112 L 91.999496 112 Z M 103.999496 124 L 99.999496 124 L 99.999496 112 L 103.999496 112 Z M 115.999504 124 L 111.999496 124 L 111.999496 112 L 115.999504 112 Z M 127.999504 124 L 123.999504 124 L 123.999504 112 L 127.999504 112 Z M 139.999496 124 L 135.999496 124 L 135.999496 112 L 139.999496 112 Z M 151.999496 124 L 147.999496 124 L 147.999496 112 L 151.999496 112 Z M 163.999496 124 L 159.999496 124 L 159.999496 112 L 163.999496 112 Z M 175.999496 124 L 171.999496 124 L 171.999496 112 L 175.999496 112 Z M 23.999495 84 L 23.999495 88 L 23.999495 96 L 19.999495 96 L 19.999495 84 Z M 231.999496 192 L 11.999495 192 L 11.999495 76 L 15.999495 76 L 27.999495 76 L 28.999495 76 C 26.585493 76 24.565504 77.720993 24.1015 80 L 23.999495 80 L 19.999495 80 L 15.999495 80 L 15.999495 84 L 15.999495 96 L 15.999495 100 L 19.999495 100 L 23.999495 100 L 27.999495 100 L 47.999496 100 L 51.999496 100 L 55.999496 100 L 59.999496 100 L 63.999496 100 L 67.999496 100 L 71.999496 100 L 75.999496 100 L 79.999496 100 L 83.999496 100 L 87.999496 100 L 91.999496 100 L 95.999496 100 L 99.999496 100 L 103.999496 100 L 107.999496 100 L 111.999496 100 L 115.999504 100 L 119.999504 100 L 123.999504 100 L 127.999504 100 L 131.999496 100 L 135.999496 100 L 139.999496 100 L 143.999496 100 L 147.999496 100 L 151.999496 100 L 155.999496 100 L 159.999496 100 L 163.999496 100 L 167.999496 100 L 171.999496 100 L 175.999496 100 L 179.999496 100 L 180.101501 100 C 180.035507 100.322998 179.999496 100.658005 179.999496 101 L 179.999496 103 C 179.999496 105.757004 182.242493 108 184.999496 108 L 183.999496 108 L 179.999496 108 L 175.999496 108 L 171.999496 108 L 167.999496 108 L 163.999496 108 L 159.999496 108 L 155.999496 108 L 151.999496 108 L 147.999496 108 L 143.999496 108 L 139.999496 108 L 135.999496 108 L 131.999496 108 L 127.999504 108 L 123.999504 108 L 119.999504 108 L 115.999504 108 L 111.999496 108 L 107.999496 108 L 103.999496 108 L 99.999496 108 L 95.999496 108 L 91.999496 108 L 87.999496 108 L 83.999496 108 L 79.999496 108 L 75.999496 108 L 71.999496 108 L 67.999496 108 L 63.999496 108 L 59.999496 108 L 55.999496 108 L 51.999496 108 L 47.999496 108 L 43.999496 108 L 39.999496 108 L 39.999496 112 L 39.999496 113 C 39.999496 110.242996 37.757507 108 34.999496 108 L 32.999496 108 C 30.242506 108 27.999495 110.242996 27.999495 113 L 27.999495 112 L 27.999495 108 L 23.999495 108 L 19.999495 108 L 15.999495 108 L 15.999495 112 L 15.999495 124 L 15.999495 128 L 19.999495 128 L 23.999495 128 L 27.999495 128 L 27.999495 124 L 27.999495 123 C 27.999495 125.757004 30.242506 128 32.999496 128 L 34.999496 128 C 37.757507 128 39.999496 125.757004 39.999496 123 L 39.999496 124 L 39.999496 128 L 43.999496 128 L 47.999496 128 L 51.999496 128 L 55.999496 128 L 59.999496 128 L 63.999496 128 L 67.999496 128 L 71.999496 128 L 75.999496 128 L 79.999496 128 L 83.999496 128 L 87.999496 128 L 91.999496 128 L 95.999496 128 L 99.999496 128 L 103.999496 128 L 107.999496 128 L 111.999496 128 L 115.999504 128 L 119.999504 128 L 123.999504 128 L 127.999504 128 L 131.999496 128 L 135.999496 128 L 139.999496 128 L 143.999496 128 L 147.999496 128 L 151.999496 128 L 155.999496 128 L 159.999496 128 L 163.999496 128 L 167.999496 128 L 171.999496 128 L 175.999496 128 L 176.101501 128 C 176.035492 128.322998 175.999496 128.658005 175.999496 129 L 175.999496 131 C 175.999496 133.757004 178.242493 136 180.999496 136 L 179.999496 136 L 175.999496 136 L 171.999496 136 L 167.999496 136 L 163.999496 136 L 159.999496 136 L 155.999496 136 L 151.999496 136 L 147.999496 136 L 143.999496 136 L 139.999496 136 L 135.999496 136 L 131.999496 136 L 111.999496 136 L 107.999496 136 L 103.999496 136 L 99.999496 136 L 95.999496 136 L 91.999496 136 L 87.999496 136 L 83.999496 136 L 79.999496 136 L 75.999496 136 L 71.999496 136 L 67.999496 136 L 63.999496 136 L 59.999496 136 L 55.999496 136 L 51.999496 136 L 47.999496 136 L 43.999496 136 L 39.999496 136 L 35.999496 136 L 31.999495 136 L 27.999495 136 L 23.999495 136 L 19.999495 136 L 15.999495 136 L 15.999495 140 L 15.999495 152 L 15.999495 156 L 19.999495 156 L 23.999495 156 L 27.999495 156 L 31.999495 156 L 35.999496 156 L 39.999496 156 L 43.999496 156 L 47.999496 156 L 51.999496 156 L 55.999496 156 L 59.999496 156 L 63.999496 156 L 67.999496 156 L 71.999496 156 L 75.999496 156 L 79.999496 156 L 83.999496 156 L 87.999496 156 L 91.999496 156 L 95.999496 156 L 99.999496 156 L 103.999496 156 L 107.999496 156 L 107.999496 152 L 111.999496 152 L 131.999496 152 L 131.999496 156 L 135.999496 156 L 139.999496 156 L 143.999496 156 L 147.999496 156 L 151.999496 156 L 155.999496 156 L 159.999496 156 L 163.999496 156 L 167.999496 156 L 171.999496 156 L 175.999496 156 L 179.999496 156 L 183.999496 156 L 187.999496 156 L 191.999496 156 L 195.999496 156 L 199.999496 156 L 203.999496 156 L 207.999496 156 L 211.999496 156 L 215.999496 156 L 219.999496 156 L 223.999496 156 L 223.999496 152 L 223.999496 140 L 227.999496 140 L 227.999496 188 L 231.999496 188 Z M 27.999495 72 L 15.999495 72 L 15.999495 64 L 27.999495 64 Z M 27.999495 88 L 28.999495 88 L 30.999495 88 L 47.999496 88 L 47.999496 96 L 27.999495 96 Z M 31.999495 83 C 31.999495 83.552002 31.552504 84 30.999495 84 L 28.999495 84 C 28.447493 84 27.999495 83.552002 27.999495 83 L 27.999495 81 C 27.999495 80.447998 28.447493 80 28.999495 80 L 30.999495 80 C 31.552504 80 31.999495 80.447998 31.999495 81 Z M 59.999496 96 L 55.999496 96 L 55.999496 84 L 59.999496 84 Z M 71.999496 96 L 67.999496 96 L 67.999496 84 L 71.999496 84 Z M 79.999496 96 L 75.999496 96 L 75.999496 84 L 79.999496 84 Z M 91.999496 96 L 87.999496 96 L 87.999496 84 L 91.999496 84 Z M 103.999496 96 L 99.999496 96 L 99.999496 84 L 103.999496 84 Z M 115.999504 96 L 111.999496 96 L 111.999496 84 L 115.999504 84 Z M 127.999504 96 L 123.999504 96 L 123.999504 88 L 127.999504 88 Z M 139.999496 96 L 135.999496 96 L 135.999496 84 L 139.999496 84 Z M 151.999496 96 L 147.999496 96 L 147.999496 88 L 151.999496 88 Z M 151.999496 64 L 151.999496 68 L 151.999496 76 L 151.999496 80 L 151.999496 84 L 147.999496 84 L 143.999496 84 L 143.999496 80 L 139.999496 80 L 135.999496 80 L 131.999496 80 L 131.999496 84 L 127.999504 84 L 123.999504 84 L 119.999504 84 L 119.999504 80 L 115.999504 80 L 111.999496 80 L 107.999496 80 L 103.999496 80 L 99.999496 80 L 95.999496 80 L 91.999496 80 L 87.999496 80 L 83.999496 80 L 79.999496 80 L 75.999496 80 L 71.999496 80 L 67.999496 80 L 63.999496 80 L 59.999496 80 L 55.999496 80 L 51.999496 80 L 51.999496 84 L 47.999496 84 L 35.898499 84 C 35.964508 83.677002 35.999496 83.341995 35.999496 83 L 35.999496 81 C 35.999496 78.242996 33.757507 76 30.999495 76 L 31.999495 76 L 31.999495 72 L 31.999495 64 Z M 195.999496 64 L 195.999496 68 L 195.999496 76 L 195.999496 80 L 191.999496 80 L 187.999496 80 L 183.999496 80 L 179.999496 80 L 175.999496 80 L 171.999496 80 L 167.999496 80 L 162.999496 80 L 160.999496 80 L 155.999496 80 L 155.999496 76 L 155.999496 68 L 155.999496 64 Z M 207.999496 64 L 207.999496 73.093002 C 207.999496 73.110001 207.999496 73.126999 207.999496 73.143997 L 207.999496 78.854004 C 207.999496 78.871994 207.999496 78.889999 207.999496 78.908997 L 207.999496 92 L 207.999496 96 L 199.268494 96 C 199.737503 94.843002 199.999496 93.488007 199.999496 92 C 199.999496 87.365005 197.476501 84 193.999496 84 C 193.287506 84 192.6185 84.147995 191.999496 84.412003 L 191.999496 84 L 193.999496 84 L 195.999496 84 L 199.999496 84 L 199.999496 80 L 199.999496 76 L 199.999496 68 L 199.999496 64 Z M 215.732498 60 C 215.550507 60.201996 215.376495 60.412994 215.223495 60.643997 C 214.852493 61.203003 214.597504 61.817993 214.460495 62.455994 C 213.535507 62.653 212.692505 63.100006 211.999496 63.731003 L 211.999496 60 Z M 211.999496 92 L 211.999496 88.268997 C 212.692505 88.899994 213.535507 89.347 214.460495 89.544006 C 214.597504 90.182007 214.852493 90.796997 215.223495 91.356003 C 215.376495 91.587006 215.550507 91.798004 215.732498 92 Z M 231.999496 112 L 231.999496 116 L 195.999496 116 L 195.999496 112 L 195.999496 104 L 195.999496 100 L 231.999496 100 L 231.999496 104 Z M 215.999496 140 L 219.999496 140 L 219.999496 152 L 215.999496 152 Z M 207.999496 140 L 211.999496 140 L 211.999496 152 L 207.999496 152 Z M 195.999496 140 L 199.999496 140 L 199.999496 152 L 195.999496 152 Z M 179.999496 129 C 179.999496 128.447998 180.447495 128 180.999496 128 L 182.999496 128 C 183.552505 128 183.999496 128.447998 183.999496 129 L 183.999496 131 C 183.999496 131.552002 183.552505 132 182.999496 132 L 180.999496 132 C 180.447495 132 179.999496 131.552002 179.999496 131 Z M 183.999496 124 L 182.999496 124 L 180.999496 124 L 179.999496 124 L 179.999496 112 L 183.999496 112 Z M 183.999496 101 C 183.999496 100.447998 184.447495 100 184.999496 100 L 186.999496 100 C 187.552505 100 187.999496 100.447998 187.999496 101 L 187.999496 103 C 187.999496 103.552002 187.552505 104 186.999496 104 L 184.999496 104 C 184.447495 104 183.999496 103.552002 183.999496 103 Z M 187.999496 96 L 186.999496 96 L 184.999496 96 L 183.999496 96 L 183.999496 84 L 187.999496 84 Z M 193.999496 96 C 192.895493 96 191.999496 94.209 191.999496 92 C 191.999496 89.791 192.895493 88 193.999496 88 C 195.104507 88 195.999496 89.791 195.999496 92 C 195.999496 94.209 195.104507 96 193.999496 96 M 191.999496 100 L 191.999496 101 C 191.999496 100.658005 191.964493 100.322998 191.898499 100 Z M 171.999496 84 L 175.999496 84 L 175.999496 96 L 171.999496 96 Z M 167.898499 84 L 167.999496 84 L 167.999496 85 C 167.999496 84.658005 167.964493 84.322998 167.898499 84 M 155.999496 87 C 155.999496 87.341995 156.035492 87.677002 156.101501 88 L 155.999496 88 Z M 155.999496 84 L 156.101501 84 C 156.035492 84.322998 155.999496 84.658005 155.999496 85 Z M 163.999496 85 L 163.999496 87 C 163.999496 87.552002 163.552505 88 162.999496 88 L 160.999496 88 C 160.447495 88 159.999496 87.552002 159.999496 87 L 159.999496 85 C 159.999496 84.447998 160.447495 84 160.999496 84 L 162.999496 84 C 163.552505 84 163.999496 84.447998 163.999496 85 M 163.999496 92 L 163.999496 96 L 159.999496 96 L 159.999496 92 L 160.999496 92 L 162.999496 92 Z M 167.898499 88 C 167.964493 87.677002 167.999496 87.341995 167.999496 87 L 167.999496 88 Z M 187.999496 152 L 183.999496 152 L 183.999496 140 L 187.999496 140 Z M 183.999496 136 L 182.999496 136 C 185.757507 136 187.999496 133.757004 187.999496 131 L 187.999496 129 C 187.999496 128.658005 187.964493 128.322998 187.898499 128 L 187.999496 128 L 187.999496 124 L 187.999496 112 L 187.999496 108 L 186.999496 108 C 189.757507 108 191.999496 105.757004 191.999496 103 L 191.999496 104 L 191.999496 112 L 191.999496 116 L 191.999496 120 L 191.999496 124 L 191.999496 132 L 191.999496 136 L 187.999496 136 Z M 227.999496 136 L 223.999496 136 L 219.999496 136 L 215.999496 136 L 211.999496 136 L 207.999496 136 L 203.999496 136 L 199.999496 136 L 195.999496 136 L 195.999496 132 L 195.999496 124 L 195.999496 120 L 231.999496 120 L 231.999496 122 L 231.999496 124 L 231.999496 130 L 231.999496 132 L 231.999496 136 Z M 229.999496 182 L 233.999496 182 L 233.999496 184 L 229.999496 184 Z M 229.999496 142 L 233.999496 142 L 233.999496 144 L 229.999496 144 Z M 229.999496 146 L 233.999496 146 L 233.999496 148 L 229.999496 148 Z M 229.999496 150 L 233.999496 150 L 233.999496 152 L 229.999496 152 Z M 229.999496 154 L 233.999496 154 L 233.999496 156 L 229.999496 156 Z M 229.999496 158 L 233.999496 158 L 233.999496 160 L 229.999496 160 Z M 229.999496 162 L 233.999496 162 L 233.999496 164 L 229.999496 164 Z M 229.999496 166 L 233.999496 166 L 233.999496 168 L 229.999496 168 Z M 229.999496 170 L 233.999496 170 L 233.999496 172 L 229.999496 172 Z M 233.999496 180 L 229.999496 180 L 229.999496 178 L 233.999496 178 Z M 229.999496 174 L 233.999496 174 L 233.999496 176 L 229.999496 176 Z M 242.175507 77.257996 L 243.151505 77.654007 C 244.5345 78.214996 244.129501 80.270004 242.642502 80.270004 L 242.630493 80.270004 L 241.577499 80.261993 C 241.574493 80.261993 241.570496 80.261993 241.566498 80.261993 C 240.354507 80.261993 239.749496 81.733994 240.614502 82.587006 L 241.364502 83.326004 C 242.2845 84.233002 241.540497 85.660004 240.433502 85.660004 C 240.257507 85.660004 240.072495 85.623993 239.883499 85.544006 L 238.913498 85.134003 C 238.732498 85.057007 238.551498 85.022995 238.377502 85.022995 C 237.467499 85.022995 236.735504 85.970993 237.133499 86.912994 L 237.543503 87.882996 C 237.968506 88.886993 237.155502 89.779007 236.277496 89.779007 C 235.949493 89.779007 235.611496 89.654999 235.326508 89.365005 L 234.586502 88.615005 C 234.309494 88.332993 233.966507 88.207001 233.630493 88.207001 C 232.929504 88.207001 232.2565 88.753998 232.262497 89.578003 L 232.269501 90.630997 C 232.276505 91.496994 231.586502 92 230.895508 92 C 230.393494 92 229.890503 91.735001 229.654495 91.151001 L 229.258499 90.175003 C 229.028503 89.610001 228.514496 89.328003 227.999496 89.328003 C 227.485504 89.328003 226.971497 89.610001 226.741501 90.175003 L 226.345505 91.151001 C 226.109497 91.735001 225.606506 92 225.104507 92 C 224.413498 92 223.723495 91.496994 223.730499 90.630997 L 223.737503 89.578003 C 223.7435 88.753998 223.070496 88.207001 222.369507 88.207001 C 222.033508 88.207001 221.690506 88.332993 221.413498 88.615005 L 220.673508 89.365005 C 220.388504 89.654999 220.050507 89.779007 219.722504 89.779007 C 218.843506 89.779007 218.031494 88.886993 218.456497 87.882996 L 218.866501 86.912994 C 219.264496 85.970993 218.532501 85.022995 217.622498 85.022995 C 217.448502 85.022995 217.267502 85.057007 217.086502 85.134003 L 216.116501 85.544006 C 215.927505 85.623993 215.742508 85.660004 215.566498 85.660004 C 214.459503 85.660004 213.7155 84.233002 214.635498 83.326004 L 215.385498 82.587006 C 216.250504 81.733994 215.644501 80.261993 214.433502 80.261993 C 214.429504 80.261993 214.426498 80.261993 214.422501 80.261993 L 213.369507 80.270004 L 213.357498 80.270004 C 211.870499 80.270004 211.4655 78.214996 212.848495 77.654007 L 213.824493 77.257996 C 214.954498 76.800003 214.954498 75.199997 213.824493 74.742004 L 212.848495 74.346008 C 211.4655 73.785004 211.870499 71.729996 213.357498 71.729996 C 213.361496 71.729996 213.365494 71.729996 213.369507 71.729996 L 214.422501 71.738007 L 214.433502 71.738007 C 215.645508 71.738007 216.250504 70.266006 215.385498 69.412994 L 214.635498 68.673996 C 213.7155 67.766998 214.459503 66.339996 215.566498 66.339996 C 215.742508 66.339996 215.927505 66.376007 216.116501 66.455994 L 217.086502 66.865997 C 217.267502 66.942993 217.448502 66.977005 217.622498 66.977005 C 218.532501 66.977005 219.264496 66.028992 218.866501 65.087006 L 218.456497 64.117004 C 218.031494 63.113007 218.843506 62.221008 219.722504 62.221008 C 220.050507 62.221008 220.387497 62.345001 220.673508 62.634995 L 221.413498 63.384995 C 221.690506 63.666992 222.033508 63.792999 222.369507 63.792999 C 223.070496 63.792999 223.7435 63.246002 223.737503 62.421997 L 223.730499 61.369003 C 223.723495 60.503006 224.413498 60 225.104507 60 C 225.606506 60 226.109497 60.264999 226.345505 60.848999 L 226.741501 61.824997 C 226.971497 62.389999 227.485504 62.671997 227.999496 62.671997 C 228.514496 62.671997 229.028503 62.389999 229.258499 61.824997 L 229.654495 60.848999 C 229.890503 60.264999 230.393494 60 230.895508 60 C 231.586502 60 232.276505 60.501999 232.269501 61.369003 L 232.262497 62.421997 C 232.2565 63.246002 232.929504 63.792999 233.630493 63.792999 C 233.966507 63.792999 234.309494 63.666992 234.586502 63.384995 L 235.326508 62.634995 C 235.611496 62.345001 235.949493 62.221008 236.277496 62.221008 C 237.156494 62.221008 237.968506 63.113007 237.543503 64.117004 L 237.133499 65.087006 C 236.735504 66.028992 237.467499 66.977005 238.377502 66.977005 C 238.551498 66.977005 238.732498 66.942993 238.913498 66.865997 L 239.883499 66.455994 C 240.072495 66.376007 240.257507 66.339996 240.433502 66.339996 C 241.540497 66.339996 242.2845 67.766998 241.364502 68.673996 L 240.614502 69.412994 C 239.749496 70.266006 240.355499 71.738007 241.566498 71.738007 L 241.577499 71.738007 L 242.630493 71.729996 C 242.634506 71.729996 242.638504 71.729996 242.642502 71.729996 C 244.129501 71.729996 244.5345 73.785004 243.151505 74.346008 L 242.175507 74.742004 C 241.045502 75.199997 241.045502 76.800003 242.175507 77.257996 M 243.999496 63.731003 C 243.307495 63.100006 242.464493 62.653 241.539505 62.455994 C 241.402496 61.817993 241.147507 61.203003 240.776505 60.643997 C 240.623505 60.412994 240.449493 60.201996 240.267502 60 L 243.999496 60 Z M 247.999496 78.856003 L 247.999496 73.145996 C 248.000504 73.128006 248.000504 73.110001 247.999496 73.091003 L 247.999496 60 L 247.999496 56 L 243.999496 56 L 211.999496 56 L 207.999496 56 L 207.999496 60 L 199.999496 60 L 195.999496 60 L 155.999496 60 L 151.999496 60 L 31.999495 60 L 27.999495 60 L 15.999495 60 L 11.999495 60 L 7.999495 60 L 7.999495 64 L 7.999495 192 L 7.999495 196 L 11.999495 196 L 231.999496 196 L 235.999496 196 L 235.999496 192 L 239.999496 192 L 243.999496 192 L 243.999496 188 L 243.999496 134 C 243.999496 130.692001 241.308502 128 237.999496 128 L 235.999496 128 L 235.999496 124 L 237.999496 124 C 241.308502 124 243.999496 121.307999 243.999496 118 L 243.999496 96 L 247.999496 96 L 247.999496 92 L 247.999496 78.906998 C 248.000504 78.889999 248.000504 78.873001 247.999496 78.856003"/>
    <path id="path2" fill="#ffffff" stroke="none" d="M 228 84 C 223.582001 84 220 80.417999 220 76 C 220 71.582001 223.582001 68 228 68 C 232.417999 68 236 71.582001 236 76 C 236 80.417999 232.417999 84 228 84 M 228 64 C 221.382996 64 216 69.382996 216 76 C 216 82.617004 221.382996 88 228 88 C 234.617004 88 240 82.617004 240 76 C 240 69.382996 234.617004 64 228 64"/>
</svg>
