<?xml version="1.0" encoding="UTF-8"?>
<!-- Generated by Pixelmator Pro 3.7.1 -->
<svg width="256" height="256" viewBox="0 0 256 256" xmlns="http://www.w3.org/2000/svg">
    <path id="Path" fill="#ffffff" stroke="none" d="M 44 27.818207 C 44 25.709198 45.709 24.000198 47.818001 24.000198 L 208.182007 24.000198 C 210.291 24.000198 212 25.709198 212 27.818207 L 212 104.182205 C 212 106.290207 210.291 108.000198 208.182007 108.000198 L 47.818001 108.000198 C 45.709 108.000198 44 106.290207 44 104.182205 Z M 47.818001 111.818207 L 208.182007 111.818207 C 212.393005 111.818207 215.817993 108.392197 215.817993 104.182205 L 215.817993 27.818207 C 215.817993 23.607193 212.393005 20.182205 208.182007 20.182205 L 47.818001 20.182205 C 43.606998 20.182205 40.181999 23.607193 40.181999 27.818207 L 40.181999 104.182205 C 40.181999 108.392197 43.606998 111.818207 47.818001 111.818207"/>
    <path id="path1" fill="#ffffff" stroke="none" d="M 152 146.267899 C 152 147.224899 151.225006 147.999908 150.268005 147.999908 L 105.731995 147.999908 C 104.775002 147.999908 104 147.224899 104 146.267899 L 104 137.731903 C 104 136.775909 104.775002 135.999908 105.731995 135.999908 L 150.268005 135.999908 C 151.225006 135.999908 152 136.775909 152 137.731903 Z M 150.268005 132.535889 L 105.731995 132.535889 C 102.867004 132.535889 100.535995 134.866898 100.535995 137.731903 L 100.535995 146.267899 C 100.535995 149.132904 102.867004 151.463898 105.731995 151.463898 L 150.268005 151.463898 C 153.132996 151.463898 155.464005 149.132904 155.464005 146.267899 L 155.464005 137.731903 C 155.464005 134.866898 153.132996 132.535889 150.268005 132.535889"/>
    <path id="path2" fill="#ffffff" stroke="none" d="M 192 192 L 188 192 L 188 184 L 200 184 L 200 192 Z M 200 204 L 192 204 L 192 196 L 200 196 Z M 200 216 L 184 216 L 184 208 L 188 208 L 192 208 L 200 208 Z M 180 216 L 172 216 L 172 208 L 176 208 L 180 208 Z M 168 216 L 160 216 L 160 208 L 164 208 L 168 208 Z M 156 216 L 152 216 L 148 216 L 148 208 L 152 208 L 156 208 Z M 152 228 L 96 228 L 96 220 L 100 220 L 108 220 L 112 220 L 120 220 L 124 220 L 132 220 L 136 220 L 144 220 L 148 220 L 152 220 Z M 88 216 L 88 208 L 92 208 L 96 208 L 96 216 L 92 216 Z M 84 216 L 76 216 L 76 208 L 80 208 L 84 208 Z M 72 216 L 68 216 L 64 216 L 56 216 L 56 208 L 68 208 L 72 208 Z M 64 228 L 56 228 L 56 220 L 64 220 Z M 56 196 L 64 196 L 68 196 L 68 204 L 56 204 Z M 56 184 L 64 184 L 64 192 L 56 192 Z M 68 184 L 76 184 L 76 192 L 72 192 L 68 192 Z M 80 184 L 88 184 L 88 192 L 84 192 L 80 192 Z M 92 184 L 100 184 L 100 192 L 96 192 L 92 192 Z M 104 184 L 112 184 L 112 192 L 108 192 L 104 192 Z M 116 184 L 124 184 L 124 192 L 120 192 L 116 192 Z M 128 184 L 136 184 L 136 192 L 132 192 L 128 192 Z M 140 184 L 148 184 L 148 192 L 144 192 L 140 192 Z M 152 184 L 160 184 L 160 192 L 156 192 L 152 192 Z M 164 184 L 172 184 L 172 192 L 168 192 L 164 192 Z M 176 184 L 184 184 L 184 192 L 180 192 L 176 192 Z M 168 196 L 172 196 L 176 196 L 176 204 L 172 204 L 168 204 Z M 156 196 L 160 196 L 164 196 L 164 204 L 160 204 L 156 204 Z M 144 196 L 148 196 L 152 196 L 152 204 L 148 204 L 144 204 Z M 124 208 L 128 208 L 132 208 L 132 216 L 124 216 Z M 112 208 L 116 208 L 120 208 L 120 216 L 112 216 Z M 100 208 L 104 208 L 108 208 L 108 216 L 100 216 Z M 116 204 L 112 204 L 108 204 L 108 196 L 112 196 L 116 196 Z M 128 204 L 124 204 L 120 204 L 120 196 L 124 196 L 128 196 Z M 140 204 L 136 204 L 132 204 L 132 196 L 136 196 L 140 196 Z M 96 196 L 100 196 L 104 196 L 104 204 L 100 204 L 96 204 Z M 84 196 L 88 196 L 92 196 L 92 204 L 88 204 L 84 204 Z M 72 196 L 76 196 L 80 196 L 80 204 L 76 204 L 72 204 Z M 144 216 L 136 216 L 136 208 L 140 208 L 144 208 Z M 188 204 L 184 204 L 180 204 L 180 196 L 184 196 L 188 196 Z M 188 180 L 184 180 L 176 180 L 172 180 L 164 180 L 160 180 L 152 180 L 148 180 L 140 180 L 136 180 L 128 180 L 124 180 L 116 180 L 112 180 L 104 180 L 100 180 L 92 180 L 88 180 L 80 180 L 76 180 L 68 180 L 64 180 L 56 180 L 52 180 L 52 184 L 52 192 L 52 196 L 52 204 L 52 208 L 52 216 L 52 220 L 52 228 L 52 232 L 56 232 L 64 232 L 68 232 L 68 228 L 68 220 L 72 220 L 76 220 L 84 220 L 88 220 L 92 220 L 92 228 L 92 232 L 96 232 L 152 232 L 156 232 L 156 228 L 156 220 L 160 220 L 168 220 L 172 220 L 180 220 L 184 220 L 200 220 L 204 220 L 204 216 L 204 208 L 204 204 L 204 196 L 204 192 L 204 184 L 204 180 L 200 180 Z"/>
    <path id="path3" fill="#ffffff" stroke="none" d="M 224.2099 236.221893 C 224.091904 238.341904 222.338898 239.999908 220.215897 239.999908 L 35.783905 239.999908 C 33.660904 239.999908 31.907898 238.341904 31.789902 236.221893 L 28.234894 172.221893 C 28.106903 169.928894 29.9319 167.999908 32.227905 167.999908 L 223.771896 167.999908 C 226.067902 167.999908 227.892899 169.928894 227.7659 172.221893 Z M 27.999893 115.999893 L 27.999893 111.999893 L 33.999893 111.999893 C 35.104904 111.999893 35.999893 111.104904 35.999893 109.999893 C 35.999893 108.895905 35.104904 107.999893 33.999893 107.999893 L 27.999893 107.999893 L 27.999893 103.999893 L 33.999893 103.999893 C 35.104904 103.999893 35.999893 103.104889 35.999893 101.999893 C 35.999893 100.895889 35.104904 99.999893 33.999893 99.999893 L 27.999893 99.999893 L 27.999893 95.999893 L 33.999893 95.999893 C 35.104904 95.999893 35.999893 95.104889 35.999893 93.999893 C 35.999893 92.895889 35.104904 91.999893 33.999893 91.999893 L 27.999893 91.999893 L 27.999893 87.999893 L 33.999893 87.999893 C 35.104904 87.999893 35.999893 87.104889 35.999893 85.999893 C 35.999893 84.895889 35.104904 83.999893 33.999893 83.999893 L 27.999893 83.999893 L 27.999893 79.999893 L 33.999893 79.999893 C 35.104904 79.999893 35.999893 79.104889 35.999893 77.999893 C 35.999893 76.895889 35.104904 75.999893 33.999893 75.999893 L 27.999893 75.999893 L 27.999893 71.999893 L 33.999893 71.999893 C 35.104904 71.999893 35.999893 71.104889 35.999893 69.999893 C 35.999893 68.895889 35.104904 67.999893 33.999893 67.999893 L 27.999893 67.999893 L 27.999893 63.999893 L 33.999893 63.999893 C 35.104904 63.999893 35.999893 63.104889 35.999893 61.999893 C 35.999893 60.895889 35.104904 59.999893 33.999893 59.999893 L 27.999893 59.999893 L 27.999893 55.999893 L 33.999893 55.999893 C 35.104904 55.999893 35.999893 55.104889 35.999893 53.999893 C 35.999893 52.895889 35.104904 51.999893 33.999893 51.999893 L 27.999893 51.999893 L 27.999893 47.999893 L 33.999893 47.999893 C 35.104904 47.999893 35.999893 47.104889 35.999893 45.999893 C 35.999893 44.895889 35.104904 43.999893 33.999893 43.999893 L 27.999893 43.999893 L 27.999893 39.999893 L 33.999893 39.999893 C 35.104904 39.999893 35.999893 39.104889 35.999893 37.999893 C 35.999893 36.895889 35.104904 35.999893 33.999893 35.999893 L 27.999893 35.999893 L 27.999893 31.999893 L 33.999893 31.999893 C 35.104904 31.999893 35.999893 31.104889 35.999893 29.999893 C 35.999893 28.895889 35.104904 27.999893 33.999893 27.999893 L 27.999893 27.999893 L 27.999893 23.999893 L 33.999893 23.999893 C 35.104904 23.999893 35.999893 23.104889 35.999893 21.999893 C 35.999893 20.895889 35.104904 19.999893 33.999893 19.999893 L 27.999893 19.999893 C 27.999893 15.581894 31.581894 11.999893 35.999893 11.999893 L 219.999893 11.999893 C 224.417892 11.999893 227.999893 15.581894 227.999893 19.999893 L 221.999893 19.999893 C 220.895905 19.999893 219.999893 20.895889 219.999893 21.999893 C 219.999893 23.104889 220.895905 23.999893 221.999893 23.999893 L 227.999893 23.999893 L 227.999893 27.999893 L 221.999893 27.999893 C 220.895905 27.999893 219.999893 28.895889 219.999893 29.999893 C 219.999893 31.104889 220.895905 31.999893 221.999893 31.999893 L 227.999893 31.999893 L 227.999893 35.999893 L 221.999893 35.999893 C 220.895905 35.999893 219.999893 36.895889 219.999893 37.999893 C 219.999893 39.104889 220.895905 39.999893 221.999893 39.999893 L 227.999893 39.999893 L 227.999893 43.999893 L 221.999893 43.999893 C 220.895905 43.999893 219.999893 44.895889 219.999893 45.999893 C 219.999893 47.104889 220.895905 47.999893 221.999893 47.999893 L 227.999893 47.999893 L 227.999893 51.999893 L 221.999893 51.999893 C 220.895905 51.999893 219.999893 52.895889 219.999893 53.999893 C 219.999893 55.104889 220.895905 55.999893 221.999893 55.999893 L 227.999893 55.999893 L 227.999893 59.999893 L 221.999893 59.999893 C 220.895905 59.999893 219.999893 60.895889 219.999893 61.999893 C 219.999893 63.104889 220.895905 63.999893 221.999893 63.999893 L 227.999893 63.999893 L 227.999893 67.999893 L 221.999893 67.999893 C 220.895905 67.999893 219.999893 68.895889 219.999893 69.999893 C 219.999893 71.104889 220.895905 71.999893 221.999893 71.999893 L 227.999893 71.999893 L 227.999893 75.999893 L 221.999893 75.999893 C 220.895905 75.999893 219.999893 76.895889 219.999893 77.999893 C 219.999893 79.104889 220.895905 79.999893 221.999893 79.999893 L 227.999893 79.999893 L 227.999893 83.999893 L 221.999893 83.999893 C 220.895905 83.999893 219.999893 84.895889 219.999893 85.999893 C 219.999893 87.104889 220.895905 87.999893 221.999893 87.999893 L 227.999893 87.999893 L 227.999893 91.999893 L 221.999893 91.999893 C 220.895905 91.999893 219.999893 92.895889 219.999893 93.999893 C 219.999893 95.104889 220.895905 95.999893 221.999893 95.999893 L 227.999893 95.999893 L 227.999893 99.999893 L 221.999893 99.999893 C 220.895905 99.999893 219.999893 100.895889 219.999893 101.999893 C 219.999893 103.104889 220.895905 103.999893 221.999893 103.999893 L 227.999893 103.999893 L 227.999893 107.999893 L 221.999893 107.999893 C 220.895905 107.999893 219.999893 108.895905 219.999893 109.999893 C 219.999893 111.104904 220.895905 111.999893 221.999893 111.999893 L 227.999893 111.999893 L 227.999893 115.999893 L 227.999893 147.999908 C 227.999893 152.417908 224.417892 155.999908 219.999893 155.999908 L 35.999893 155.999908 C 31.581894 155.999908 27.999893 152.417908 27.999893 147.999908 Z M 223.771896 163.999908 L 32.227905 163.999908 C 31.019897 163.999908 29.837906 164.286896 28.763901 164.802902 L 28.422897 157.294891 C 30.489899 158.983902 33.127899 159.999908 35.999893 159.999908 L 219.999893 159.999908 C 222.871902 159.999908 225.509903 158.983902 227.577896 157.294891 L 227.235901 164.802902 C 226.161896 164.286896 224.979904 163.999908 223.771896 163.999908 M 232.003906 147.999908 L 231.999893 147.999908 L 231.999893 115.999893 L 231.999893 19.999893 C 231.999893 13.382889 226.616898 7.999893 219.999893 7.999893 L 35.999893 7.999893 C 29.382904 7.999893 23.999893 13.382889 23.999893 19.999893 L 23.999893 115.999893 L 23.999893 147.999908 L 23.995895 147.999908 L 24.003906 148.1819 L 24.7939 169.072906 C 24.3759 170.136902 24.175903 171.285904 24.240906 172.443909 L 27.795898 236.443893 C 28.031906 240.680908 31.539902 243.999893 35.783905 243.999893 L 220.215897 243.999893 C 224.4599 243.999893 227.967896 240.680908 228.203903 236.443893 L 231.758896 172.443909 C 231.823898 171.285904 231.624893 170.136902 231.205902 169.072906 L 231.995895 148.1819 Z"/>
</svg>
