<?xml version="1.0" encoding="UTF-8"?>
<!-- Generated by Pixelmator Pro 3.7.1 -->
<svg width="256" height="256" viewBox="0 0 256 256" xmlns="http://www.w3.org/2000/svg">
    <path id="Path" fill="#ffffff" stroke="none" d="M 212 104 L 172 104 L 172 24 L 212 24 Z M 214 20 L 170 20 C 168.895004 20 168 20.895004 168 22 L 168 106 C 168 107.104996 168.895004 108 170 108 L 214 108 C 215.104996 108 216 107.104996 216 106 L 216 22 C 216 20.895004 215.104996 20 214 20"/>
    <path id="path1" fill="#ffffff" stroke="none" d="M 84 104 L 44 104 L 44 24 L 84 24 Z M 86 20 L 42 20 C 40.895 20 40 20.895004 40 22 L 40 106 C 40 107.104996 40.895 108 42 108 L 86 108 C 87.105003 108 88 107.104996 88 106 L 88 22 C 88 20.895004 87.105003 20 86 20"/>
    <path id="path2" fill="#ffffff" stroke="none" d="M 220.074005 230.076797 C 220.033005 231.150803 219.149994 231.999802 218.074997 231.999802 L 216 231.999802 L 75.999992 231.999802 L 75.999992 223.999802 L 75.999992 219.999802 L 71.999992 219.999802 L 59.999996 219.999802 L 55.999996 219.999802 L 55.999996 223.999802 L 55.999996 231.999802 L 39.999996 231.999802 L 37.924999 231.999802 C 36.850002 231.999802 35.967007 231.150803 35.926006 230.076797 L 31.999994 131.999786 L 224 131.999786 Z M 71.999992 231.999802 L 59.999996 231.999802 L 59.999996 223.999802 L 71.999992 223.999802 Z M 213.106003 241.788803 C 212.427994 243.143799 211.042999 243.999802 209.528 243.999802 L 46.471996 243.999802 C 44.956997 243.999802 43.572002 243.143799 42.894009 241.788803 L 39.999996 235.999802 L 55.999996 235.999802 L 59.999996 235.999802 L 71.999992 235.999802 L 75.999992 235.999802 L 216 235.999802 Z M 31.999994 123.999802 L 224 123.999802 L 224 127.999802 L 31.999994 127.999802 Z M 35.928997 13.925797 C 35.967999 12.8508 36.852001 11.999802 37.926998 11.999802 L 91.999992 11.999802 L 91.999992 15.999802 L 91.999992 43.999802 L 91.999992 47.999802 L 91.999992 63.999802 L 91.999992 67.999802 L 96 67.999802 L 160 67.999802 L 164 67.999802 L 164 63.999802 L 164 47.999802 L 164 43.999802 L 164 15.999802 L 164 11.999802 L 218.072998 11.999802 C 219.149002 11.999802 220.031998 12.8508 220.070999 13.925797 L 224 119.999802 L 31.999994 119.999802 Z M 96 47.999802 L 160 47.999802 L 160 63.999802 L 96 63.999802 Z M 160 43.999802 L 96 43.999802 L 96 15.999802 L 160 15.999802 Z M 228 127.999802 L 228 123.999802 L 228.151001 123.999802 L 227.996994 119.851807 L 224.069 13.777802 C 223.949005 10.537796 221.315002 7.999802 218.072998 7.999802 L 162 7.999802 C 159.393005 7.999802 157.167999 9.671799 156.343002 11.999802 L 99.656998 11.999802 C 98.832001 9.671799 96.607994 7.999802 94 7.999802 L 37.926998 7.999802 C 34.684994 7.999802 32.051006 10.537796 31.930994 13.777802 L 28.003 119.851807 L 27.848993 123.999802 L 27.999994 123.999802 L 27.999994 127.999802 L 27.837 127.999802 L 28.003 132.15979 L 31.928995 230.236801 C 32.016003 232.487793 33.322994 234.397797 35.202999 235.349792 L 36.422009 237.788803 L 39.316998 243.577805 C 40.680996 246.305801 43.422009 247.999802 46.471996 247.999802 L 209.528 247.999802 C 212.578003 247.999802 215.319 246.305801 216.682999 243.577805 L 219.578003 237.788803 L 220.796997 235.349792 C 222.677002 234.396805 223.983994 232.485794 224.070999 230.230804 L 227.996994 132.15979 L 228.162994 127.999802 Z"/>
    <path id="path3" fill="#ffffff" stroke="none" d="M 51.983501 144 L 52.016499 144.362 L 55.704498 184.932999 C 56.065498 188.906998 59.218498 191.960999 63.202499 192.195007 L 123.749496 195.992004 L 123.874496 196 L 123.999496 196 L 127.999496 196 L 131.999496 196 L 132.125504 196 L 132.250504 195.992004 L 192.813507 192.194 C 196.780502 191.960999 199.934509 188.906998 200.295502 184.932999 L 203.983505 144.362 L 204.01651 144 L 207.999512 144 L 204.265503 196.285004 C 204.115509 198.377991 202.374512 200 200.275513 200 L 55.724499 200 C 53.6255 200 51.884499 198.377991 51.734501 196.285004 L 47.9995 144 Z M 199.999512 144 L 196.311508 184.570999 C 196.132507 186.541992 194.538498 188.085999 192.563507 188.201996 L 131.999496 192 L 127.999496 192 L 123.999496 192 L 63.436501 188.201996 C 61.461498 188.085999 59.8675 186.541992 59.688499 184.570999 L 55.9995 144 Z M 47.744499 196.570007 C 48.0425 200.735992 51.547501 204 55.724499 204 L 200.275513 204 C 204.452499 204 207.957504 200.735992 208.255508 196.570007 L 211.989502 144.285004 L 212.295502 140 L 207.999512 140 L 204.380508 140 L 199.999512 140 L 55.9995 140 L 51.619499 140 L 47.9995 140 L 43.704498 140 L 44.010498 144.285004 Z"/>
    <path id="path4" fill="#ffffff" stroke="none" d="M 204 216 L 204 220 L 176 220 L 128 220 L 128 216 L 176 216 L 176 212 L 204 212 Z M 176 208 L 172 208 L 172 212 L 128 212 L 124 212 L 124 216 L 124 220 L 124 224 L 128 224 L 176 224 L 204 224 L 208 224 L 208 220 L 208 216 L 208 212 L 208 208 L 204 208 Z"/>
</svg>
