<?xml version="1.0" encoding="UTF-8"?>
<!-- Generated by Pixelmator Pro 3.7.1 -->
<svg width="256" height="256" viewBox="0 0 256 256" xmlns="http://www.w3.org/2000/svg">
    <path id="Path" fill="#ffffff" stroke="none" d="M 244 191.52951 C 244 196.205505 240.151001 200.000504 235.406998 200.000504 L 209.630005 200.000504 L 208.087997 200.000504 L 207.914001 199.173492 L 203.763 179.510498 C 203.531006 175.782501 200.666992 172.000504 195.542999 172.000504 L 60.444 172.000504 C 55.328003 172.000504 52.468994 175.782501 52.237 179.510498 L 48.085999 199.173492 L 47.912003 200.000504 L 46.369995 200.000504 L 20.593002 200.000504 C 15.848999 200.000504 12 196.205505 12 191.52951 L 12 64.470505 C 12 59.794495 15.848999 56.000488 20.593002 56.000488 L 235.406998 56.000488 C 240.151001 56.000488 244 59.794495 244 64.470505 Z M 184 200.000504 L 72 200.000504 L 52 200.000504 L 56.222 180.000488 C 56.222 180.000488 56.222 176.000488 60.444 176.000488 L 128 176.000488 L 195.542999 176.000488 C 199.778 176.000488 199.778 180.000488 199.778 180.000488 L 204 200.000504 Z M 235.406998 52.000488 L 20.593002 52.000488 C 13.649002 52.000488 8 57.594498 8 64.470505 L 8 191.52951 C 8 198.405502 13.649002 204.000504 20.593002 204.000504 L 46.369995 204.000504 L 47.067001 204.000504 L 52 204.000504 L 204 204.000504 L 208.932999 204.000504 L 209.630005 204.000504 L 235.406998 204.000504 C 242.350998 204.000504 248 198.405502 248 191.52951 L 248 64.470505 C 248 57.594498 242.350998 52.000488 235.406998 52.000488"/>
    <path id="path1" fill="#ffffff" stroke="none" d="M 232 147.199997 C 232 152.057999 228.117004 156 223.333008 156 L 32.667007 156 C 27.882996 156 24 152.057999 24 147.199997 L 24 76.800003 L 32.667007 68 L 223.333008 68 L 232 76.800003 Z M 236 76.800003 L 236 75.160995 L 234.850006 73.992996 L 226.182999 65.192993 L 225.007996 64 L 223.333008 64 L 32.667007 64 L 30.992004 64 L 29.817001 65.192993 L 21.149994 73.992996 L 20 75.160995 L 20 76.800003 L 20 147.199997 C 20 154.257996 25.682007 160 32.667007 160 L 223.333008 160 C 230.317993 160 236 154.257996 236 147.199997 Z"/>
    <path id="path2" fill="#ffffff" stroke="none" d="M 170.111298 123.212906 C 168.915298 122.705902 167.837296 121.9729 166.932297 121.067902 C 166.706299 120.841904 166.490295 120.603897 166.286301 120.356903 C 165.878296 119.8629 165.517303 119.328903 165.208298 118.762894 C 164.438293 117.345901 164.000305 115.7229 164.000305 113.999893 C 164.000305 112.621902 164.280304 111.3069 164.787308 110.110901 C 164.914307 109.811905 165.054306 109.520905 165.208298 109.236893 C 165.517303 108.670898 165.878296 108.136902 166.286301 107.642899 C 166.490295 107.395905 166.706299 107.158905 166.932297 106.9319 C 167.837296 106.026901 168.915298 105.2939 170.111298 104.786896 C 171.307297 104.280899 172.621307 103.999893 174.000305 103.999893 C 178.1353 103.999893 181.692307 106.522903 183.213303 110.110901 C 183.719299 111.3069 184.000305 112.621902 184.000305 113.999893 C 184.000305 116.411896 183.141296 118.627899 181.713303 120.356903 C 181.509293 120.603897 181.294296 120.841904 181.067307 121.067902 C 180.841293 121.2939 180.604294 121.509903 180.3573 121.713898 C 179.863297 122.121902 179.3293 122.482895 178.762299 122.790894 C 177.346298 123.561905 175.723297 123.999893 174.000305 123.999893 C 172.621307 123.999893 171.307297 123.719894 170.111298 123.212906 M 156.000305 120.666901 C 156.000305 122.509903 153.914307 123.999893 151.333298 123.999893 L 113.118301 123.999893 C 115.021301 120.814896 116.000298 117.463898 116.000298 113.999893 C 116.000298 110.535904 115.021301 107.185898 113.118301 103.999893 L 151.333298 103.999893 C 153.914307 103.999893 156.000305 105.489899 156.000305 107.332901 Z M 105.561295 123.999893 C 102.778297 123.999893 100.484299 122.777893 100.072296 121.179901 C 100.035301 121.010895 100.000298 120.841904 100.000298 120.666901 L 100.000298 107.332901 C 100.000298 107.157898 100.035301 106.988892 100.072296 106.820892 C 100.484299 105.221893 102.778297 103.999893 105.561295 103.999893 L 108.298302 103.999893 C 110.650299 107.044907 112.000298 110.423904 112.000298 113.999893 C 112.000298 117.575897 110.650299 120.954895 108.298302 123.999893 Z M 175.431305 100.071899 C 174.960297 100.024902 174.483307 99.999893 174.000305 99.999893 C 173.517303 99.999893 173.039307 100.024902 172.569305 100.071899 C 166.923294 100.645905 162.266296 104.575897 160.629303 109.836899 C 160.3573 110.712906 160.168304 111.626892 160.072296 112.568893 C 160.024307 113.037903 160.000305 113.514893 160.000305 113.997894 L 160.000305 107.332901 C 160.000305 103.220901 156.193298 99.999893 151.333298 99.999893 L 110.263298 99.999893 L 108.298302 99.999893 L 105.561295 99.999893 L 104.666298 99.999893 C 99.819298 99.999893 96.021301 103.204895 96.002296 107.301895 C 96.002296 107.312897 96.000298 107.322906 96.000298 107.332901 L 96.000298 113.999893 L 96.000298 113.999893 L 96.000298 120.666901 C 96.000298 120.676895 96.002296 120.687897 96.002296 120.697906 C 96.021301 124.794907 99.819298 127.999893 104.666298 127.999893 L 105.561295 127.999893 L 108.298302 127.999893 L 110.263298 127.999893 L 151.333298 127.999893 C 156.193298 127.999893 160.000305 124.7789 160.000305 120.666901 L 160.000305 114.002899 C 160.000305 116.782898 160.822296 119.367905 162.221298 121.545898 C 162.362305 121.7659 162.5103 121.979904 162.6633 122.190903 C 163.049301 122.7229 163.466293 123.228897 163.921295 123.700897 C 163.983307 123.7659 164.0383 123.835907 164.102295 123.899902 C 164.102295 123.899902 164.102295 123.899902 164.102295 123.899902 C 164.165298 123.962906 164.237305 124.018906 164.302307 124.080902 C 164.7733 124.534897 165.279297 124.952896 165.810303 125.336899 C 166.168304 125.595901 166.5383 125.837906 166.920303 126.061905 C 167.057297 126.142899 167.188293 126.233902 167.328293 126.310898 C 168.416306 126.901901 169.596298 127.339905 170.834305 127.626907 C 171.402298 127.757904 171.978302 127.867905 172.569305 127.927902 C 173.039307 127.975906 173.517303 127.999893 174.000305 127.999893 C 174.483307 127.999893 174.960297 127.975906 175.431305 127.927902 C 182.487305 127.210907 188.000305 121.249893 188.000305 113.999893 L 188.000305 113.999893 C 188.000305 113.516907 187.975296 113.038895 187.927307 112.568893 C 187.832306 111.626892 187.643295 110.712906 187.3703 109.836899 C 185.733307 104.575897 181.076294 100.645905 175.431305 100.071899"/>
    <path id="path3" fill="#ffffff" stroke="none" d="M 192 114 C 192 123.899994 183.899994 132 174 132 L 82 132 C 72.099998 132 64 123.899994 64 114 L 64 114 C 64 104.100006 72.099998 96 82 96 L 174 96 C 183.899994 96 192 104.100006 192 114 Z M 174 92 L 82 92 C 69.869003 92 60 101.869003 60 114 C 60 126.130997 69.869003 136 82 136 L 174 136 C 186.130997 136 196 126.130997 196 114 C 196 101.869003 186.130997 92 174 92"/>
    <path id="path4" fill="#ffffff" stroke="none" d="M 72 196 C 69.788002 196 68 194.212006 68 192 C 68 189.787994 69.788002 188 72 188 C 74.211998 188 76 189.787994 76 192 C 76 194.212006 74.211998 196 72 196 M 80 192 C 80 187.588989 76.411003 184 72 184 C 67.588997 184 64 187.588989 64 192 C 64 196.410995 67.588997 200 72 200 C 76.411003 200 80 196.410995 80 192"/>
    <path id="path5" fill="#ffffff" stroke="none" d="M 92 192 C 89.788002 192 88 190.212006 88 188 C 88 185.787994 89.788002 184 92 184 C 94.211998 184 96 185.787994 96 188 C 96 190.212006 94.211998 192 92 192 M 92 180 C 87.588997 180 84 183.588989 84 188 C 84 192.410995 87.588997 196 92 196 C 96.411003 196 100 192.410995 100 188 C 100 183.588989 96.411003 180 92 180"/>
    <path id="path6" fill="#ffffff" stroke="none" d="M 128 180 C 130.212006 180 132 181.787994 132 184 C 132 186.212006 130.212006 188 128 188 C 125.788002 188 124 186.212006 124 184 C 124 181.787994 125.788002 180 128 180 M 120 184 C 120 188.411011 123.588997 192 128 192 C 132.410995 192 136 188.411011 136 184 C 136 179.588989 132.410995 176 128 176 C 123.588997 176 120 179.588989 120 184"/>
    <path id="path7" fill="#ffffff" stroke="none" d="M 164 192 C 161.787994 192 160 190.212006 160 188 C 160 185.787994 161.787994 184 164 184 C 166.212006 184 168 185.787994 168 188 C 168 190.212006 166.212006 192 164 192 M 164 180 C 159.589005 180 156 183.588989 156 188 C 156 192.410995 159.589005 196 164 196 C 168.410995 196 172 192.410995 172 188 C 172 183.588989 168.410995 180 164 180"/>
    <path id="path8" fill="#ffffff" stroke="none" d="M 184 196 C 181.787994 196 180 194.212006 180 192 C 180 189.787994 181.787994 188 184 188 C 186.212006 188 188 189.787994 188 192 C 188 194.212006 186.212006 196 184 196 M 192 192 C 192 187.588989 188.410995 184 184 184 C 179.589005 184 176 187.588989 176 192 C 176 196.410995 179.589005 200 184 200 C 188.410995 200 192 196.410995 192 192"/>
    <path id="path9" fill="#ffffff" stroke="none" d="M 17.965099 192.000305 C 16.861099 192.019302 15.9811 192.931305 16.000099 194.035309 C 16.0201 195.138306 16.931101 196.019302 18.035101 195.999298 C 19.139099 195.980301 20.0191 195.069305 20.000099 193.965302 C 19.980101 192.861298 19.069099 191.981293 17.965099 192.000305"/>
    <path id="path10" fill="#ffffff" stroke="none" d="M 18 64 C 19.104 64 20 63.104004 20 62 C 20 60.895996 19.104 60 18 60 C 16.896 60 16 60.895996 16 62 C 16 63.104004 16.896 64 18 64"/>
    <path id="path11" fill="#ffffff" stroke="none" d="M 238 192 C 236.895996 192 236 192.895996 236 194 C 236 195.104004 236.895996 196 238 196 C 239.104004 196 240 195.104004 240 194 C 240 192.895996 239.104004 192 238 192"/>
    <path id="path12" fill="#ffffff" stroke="none" d="M 238 60 C 236.895996 60 236 60.895996 236 62 C 236 63.104004 236.895996 64 238 64 C 239.104004 64 240 63.104004 240 62 C 240 60.895996 239.104004 60 238 60"/>
    <path id="path13" fill="#ffffff" stroke="none" d="M 82 124 C 80.622002 124 79.306999 123.720001 78.111 123.212997 C 76.915001 122.705994 75.837997 121.973007 74.931999 121.067993 C 74.706001 120.841003 74.489998 120.604004 74.286003 120.356995 C 73.877998 119.863007 73.516998 119.328995 73.209 118.763 C 72.438004 117.345993 72 115.722992 72 114 C 72 112.621002 72.279999 111.307007 72.787003 110.110992 C 72.914001 109.811996 73.055 109.520996 73.209 109.237 C 73.516998 108.671005 73.877998 108.136993 74.286003 107.643005 C 74.489998 107.395996 74.706001 107.158997 74.931999 106.932007 C 75.837997 106.027008 76.915001 105.294006 78.111 104.787003 C 79.306999 104.279999 80.622002 104 82 104 C 83.377998 104 84.693001 104.279999 85.889 104.787003 C 87.084999 105.294006 88.162003 106.027008 89.068001 106.932007 C 89.293999 107.158997 89.510002 107.395996 89.713997 107.643005 C 90.122002 108.136993 90.483002 108.671005 90.791 109.237 C 90.945 109.520996 91.085999 109.811996 91.212997 110.110992 C 91.720001 111.307007 92 112.621002 92 114 C 92 115.722992 91.561996 117.345993 90.791 118.763 C 90.483002 119.328995 90.122002 119.863007 89.713997 120.356995 C 89.510002 120.604004 89.293999 120.841003 89.068001 121.067993 C 88.162003 121.973007 87.084999 122.705994 85.889 123.212997 C 84.693001 123.720001 83.377998 124 82 124 M 96 114 C 96 110.738998 94.875 107.746002 93.004997 105.365997 C 92.910004 105.244995 92.819 105.121994 92.720001 105.003998 C 92.003998 104.153 91.182999 103.395996 90.287003 102.735992 C 89.770996 102.354996 89.237999 101.996994 88.670998 101.690002 C 87.877998 101.259003 87.038002 100.902008 86.162003 100.628998 C 85.285004 100.356995 84.372002 100.167999 83.431 100.072006 C 82.959999 100.024002 82.483002 100 82 100 C 79.101997 100 76.408997 100.880997 74.173996 102.391006 C 70.449997 104.906998 68 109.166992 68 114 L 68 114 C 68 114.966995 68.098 115.910004 68.285004 116.822006 C 68.377998 117.276993 68.492996 117.725006 68.629997 118.162994 C 69.311996 120.354996 70.517998 122.315994 72.101997 123.899994 C 74.636002 126.432999 78.136002 128 82 128 C 82.483002 128 82.959999 127.975998 83.431 127.927994 C 84.372002 127.832001 85.285004 127.643005 86.162003 127.371002 C 87.038002 127.098007 87.877998 126.740997 88.670998 126.309998 C 89.464996 125.878998 90.211998 125.373993 90.903999 124.802994 C 91.249001 124.518005 91.581001 124.216003 91.898003 123.899994 C 93.482002 122.315994 94.688004 120.354996 95.370003 118.162994 C 95.507004 117.725006 95.622002 117.276993 95.714996 116.822006 C 95.902 115.910004 96 114.966995 96 114 Z"/>
</svg>
