<?xml version="1.0" encoding="UTF-8"?>
<!-- Generated by Pixelmator Pro 3.7.1 -->
<svg width="256" height="256" viewBox="0 0 256 256" xmlns="http://www.w3.org/2000/svg">
    <path id="Path" fill="#ffffff" stroke="none" d="M 244 238.727097 C 244 241.643097 241.643005 244.000107 238.727005 244.000107 L 224 244.000107 L 224 161.867096 C 224 156.426086 219.445007 152.000092 213.846008 152.000092 L 66.154007 152.000092 C 60.554993 152.000092 56 156.426086 56 161.867096 L 56 244.000107 L 33.091003 244.000107 L 12 217.636108 L 12 17.272095 C 12 14.357101 14.356995 12.000092 17.272995 12.000092 L 34 12.000092 L 34 122.200104 C 34 127.604095 38.169006 132.000092 43.294006 132.000092 L 212.705994 132.000092 C 217.830994 132.000092 222 127.604095 222 122.200104 L 222 12.000092 L 238.727005 12.000092 C 241.643005 12.000092 244 14.357101 244 17.272095 Z M 190 244.000107 L 190 171.272095 C 190 164.951096 185.927002 160.000092 180.727005 160.000092 L 75.272995 160.000092 C 70.072998 160.000092 66 164.951096 66 171.272095 L 66 244.000107 L 60 244.000107 L 60 161.867096 C 60 158.622101 62.751007 156.000092 66.154007 156.000092 L 213.846008 156.000092 C 217.248993 156.000092 220 158.622101 220 161.867096 L 220 244.000107 Z M 70 244.000107 L 70 171.272095 C 70 167.251099 72.356995 164.000092 75.272995 164.000092 L 180.727005 164.000092 C 183.643005 164.000092 186 167.251099 186 171.272095 L 186 244.000107 Z M 218 12.000092 L 218 122.200104 C 218 125.407104 215.632996 128.000092 212.705994 128.000092 L 43.294006 128.000092 C 40.365997 128.000092 38 125.407104 38 122.200104 L 38 12.000092 Z M 238.727005 8.000092 L 222 8.000092 L 218 8.000092 L 38 8.000092 L 34 8.000092 L 17.272995 8.000092 C 12.160004 8.000092 8 12.160095 8 17.272095 L 8 217.636108 L 8 219.039093 L 8.876999 220.135101 L 29.968002 246.4991 L 31.167999 248.000107 L 33.091003 248.000107 L 56 248.000107 L 60 248.000107 L 66 248.000107 L 70 248.000107 L 186 248.000107 L 190 248.000107 L 220 248.000107 L 224 248.000107 L 238.727005 248.000107 C 243.839996 248.000107 248 243.840103 248 238.727097 L 248 17.272095 C 248 12.160095 243.839996 8.000092 238.727005 8.000092"/>
    <path id="path1" fill="#ffffff" stroke="none" d="M 236 44 L 228 44 L 228 36 L 236 36 Z M 228 32 L 224 32 L 224 36 L 224 44 L 224 48 L 228 48 L 236 48 L 240 48 L 240 44 L 240 36 L 240 32 L 236 32 Z"/>
    <path id="path2" fill="#ffffff" stroke="none" d="M 84.544998 175.27301 L 113.454002 175.27301 L 113.454002 232.727997 L 84.544998 232.727997 Z M 80.544998 236.727005 L 117.454002 236.727005 L 117.454002 171.272003 L 80.544998 171.272003 Z"/>
</svg>
