<?xml version="1.0" encoding="UTF-8"?>
<!-- Generated by Pixelmator Pro 3.7.1 -->
<svg width="256" height="256" viewBox="0 0 256 256" xmlns="http://www.w3.org/2000/svg">
    <path id="Path" fill="#ffffff" stroke="none" d="M 224 128 L 32 128 L 32 124 L 224 124 Z M 220.154007 228 L 220 228 L 220 230.527008 C 219.766998 231.376999 218.994003 232 218.074997 232 L 76 232 L 76 224 L 76 220 L 72 220 L 60 220 L 56 220 L 56 224 L 56 232 L 37.924999 232 C 36.849998 232 35.966999 231.151001 35.925999 230.076996 L 32.153999 132 L 223.845993 132 Z M 72 232 L 60 232 L 60 224 L 72 224 Z M 213.106003 237.789001 C 212.427994 239.143997 211.042999 240 209.528 240 L 46.472 240 C 44.957001 240 43.571999 239.143997 42.894001 237.789001 L 42 236 L 56 236 L 60 236 L 72 236 L 76 236 L 214 236 Z M 35.929001 13.925995 C 35.967999 12.850998 36.852001 12 37.926998 12 L 94 12 C 95.105003 12 96 12.895004 96 14 L 96 16 L 96 40 L 96 44 L 96 64 L 160 64 L 160 44 L 160 40 L 160 16 L 160 14 C 160 12.895004 160.895004 12 162 12 L 218.072998 12 C 219.147995 12 220.031006 12.850998 220.070999 13.925995 L 224 120 L 32 120 Z M 100 44 L 156 44 L 156 60 L 100 60 Z M 156 40 L 100 40 L 100 16 L 156 16 Z M 227.996994 119.852005 L 224.069 13.778 C 223.949005 10.537994 221.315002 8 218.072998 8 L 162 8 C 159.393005 8 157.167999 9.671997 156.343002 12 L 99.656998 12 C 98.832001 9.671997 96.607002 8 94 8 L 37.926998 8 C 34.685001 8 32.050999 10.537994 31.931 13.778 L 28.003 119.852005 L 27.849001 124 L 28 124 L 28 128 L 28 132 L 28.150999 132 L 31.929001 230.231003 C 32.053001 233.466003 34.687 236 37.924999 236 L 37.528 236 L 39.317001 239.578003 C 40.681 242.304993 43.422001 244 46.472 244 L 209.528 244 C 212.578003 244 215.319 242.304993 216.682999 239.578003 L 218.472 236 L 218.074997 236 C 221.313004 236 223.947006 233.466003 224.070999 230.231003 L 227.848999 132 L 228 132 L 228 128 L 228 124 L 228.151001 124 Z"/>
    <path id="path1" fill="#ffffff" stroke="none" d="M 88 106 C 88 107.104996 87.105003 108 86 108 L 42 108 C 40.895 108 40 107.104996 40 106 L 40 22 C 40 20.894989 40.895 20 42 20 L 86 20 C 87.105003 20 88 20.894989 88 22 Z M 86 16 L 42 16 C 38.692001 16 36 18.692001 36 22 L 36 106 C 36 109.307999 38.692001 112 42 112 L 86 112 C 89.307999 112 92 109.307999 92 106 L 92 22 C 92 18.692001 89.307999 16 86 16"/>
    <path id="path2" fill="#ffffff" stroke="none" d="M 51.983501 144 L 52.016499 144.362 L 55.704498 184.932999 C 56.065498 188.906998 59.218498 191.960999 63.202499 192.195007 L 123.749496 195.992004 L 123.874496 196 L 123.999496 196 L 127.999496 196 L 131.999496 196 L 132.125504 196 L 132.250504 195.992004 L 192.813507 192.194 C 196.780502 191.960999 199.934509 188.906998 200.295502 184.932999 L 203.983505 144.362 L 204.01651 144 L 207.999512 144 L 204.265503 196.285004 C 204.115509 198.377991 202.374512 200 200.275513 200 L 55.724499 200 C 53.6255 200 51.884499 198.377991 51.734501 196.285004 L 47.9995 144 Z M 199.999512 144 L 196.311508 184.570999 C 196.132507 186.541992 194.538498 188.085999 192.563507 188.201996 L 131.999496 192 L 127.999496 192 L 123.999496 192 L 63.436501 188.201996 C 61.461498 188.085999 59.8675 186.541992 59.688499 184.570999 L 55.9995 144 Z M 47.744499 196.570007 C 48.0425 200.735992 51.547501 204 55.724499 204 L 200.275513 204 C 204.452499 204 207.957504 200.735992 208.255508 196.570007 L 211.989502 144.285004 L 212.295502 140 L 207.999512 140 L 204.380508 140 L 199.999512 140 L 55.9995 140 L 51.619499 140 L 47.9995 140 L 43.704498 140 L 44.010498 144.285004 Z"/>
    <path id="path3" fill="#ffffff" stroke="none" d="M 204 216 L 204 220 L 176 220 L 128 220 L 128 216 L 176 216 L 176 212 L 204 212 Z M 176 208 L 172 208 L 172 212 L 128 212 L 124 212 L 124 216 L 124 220 L 124 224 L 128 224 L 176 224 L 204 224 L 208 224 L 208 220 L 208 216 L 208 212 L 208 208 L 204 208 Z"/>
    <path id="path4" fill="#ffffff" stroke="none" d="M 82.199997 24 L 45.799999 24 C 44.806 24 44 24.806 44 25.800003 L 44 26.199997 C 44 27.194 44.806 28 45.799999 28 L 82.199997 28 C 83.194 28 84 27.194 84 26.199997 L 84 25.800003 C 84 24.806 83.194 24 82.199997 24"/>
    <path id="path5" fill="#ffffff" stroke="none" d="M 82.199997 32 L 45.799999 32 C 44.806 32 44 32.806 44 33.800003 L 44 34.199997 C 44 35.194 44.806 36 45.799999 36 L 82.199997 36 C 83.194 36 84 35.194 84 34.199997 L 84 33.800003 C 84 32.806 83.194 32 82.199997 32"/>
    <path id="path6" fill="#ffffff" stroke="none" d="M 82.199997 40 L 45.799999 40 C 44.806 40 44 40.806 44 41.800003 L 44 42.199997 C 44 43.194 44.806 44 45.799999 44 L 82.199997 44 C 83.194 44 84 43.194 84 42.199997 L 84 41.800003 C 84 40.806 83.194 40 82.199997 40"/>
    <path id="path7" fill="#ffffff" stroke="none" d="M 82.199997 48 L 45.799999 48 C 44.806 48 44 48.806 44 49.800003 L 44 50.199997 C 44 51.194 44.806 52 45.799999 52 L 82.199997 52 C 83.194 52 84 51.194 84 50.199997 L 84 49.800003 C 84 48.806 83.194 48 82.199997 48"/>
    <path id="path8" fill="#ffffff" stroke="none" d="M 82.199997 56 L 45.799999 56 C 44.806 56 44 56.806 44 57.800003 L 44 58.199997 C 44 59.194 44.806 60 45.799999 60 L 82.199997 60 C 83.194 60 84 59.194 84 58.199997 L 84 57.800003 C 84 56.806 83.194 56 82.199997 56"/>
    <path id="path9" fill="#ffffff" stroke="none" d="M 82.199997 64 L 45.799999 64 C 44.806 64 44 64.806 44 65.800003 L 44 66.199997 C 44 67.194 44.806 68 45.799999 68 L 82.199997 68 C 83.194 68 84 67.194 84 66.199997 L 84 65.800003 C 84 64.806 83.194 64 82.199997 64"/>
    <path id="path10" fill="#ffffff" stroke="none" d="M 82.199997 72 L 45.799999 72 C 44.806 72 44 72.806 44 73.800003 L 44 74.199997 C 44 75.194 44.806 76 45.799999 76 L 82.199997 76 C 83.194 76 84 75.194 84 74.199997 L 84 73.800003 C 84 72.806 83.194 72 82.199997 72"/>
    <path id="path11" fill="#ffffff" stroke="none" d="M 82.199997 80 L 45.799999 80 C 44.806 80 44 80.806 44 81.800003 L 44 82.199997 C 44 83.194 44.806 84 45.799999 84 L 82.199997 84 C 83.194 84 84 83.194 84 82.199997 L 84 81.800003 C 84 80.806 83.194 80 82.199997 80"/>
    <path id="path12" fill="#ffffff" stroke="none" d="M 82.199997 88 L 45.799999 88 C 44.806 88 44 88.806 44 89.800003 L 44 90.199997 C 44 91.194 44.806 92 45.799999 92 L 82.199997 92 C 83.194 92 84 91.194 84 90.199997 L 84 89.800003 C 84 88.806 83.194 88 82.199997 88"/>
    <path id="path13" fill="#ffffff" stroke="none" d="M 82.199997 96 L 45.799999 96 C 44.806 96 44 96.806 44 97.800003 L 44 98.199997 C 44 99.194 44.806 100 45.799999 100 L 82.199997 100 C 83.194 100 84 99.194 84 98.199997 L 84 97.800003 C 84 96.806 83.194 96 82.199997 96"/>
    <path id="path14" fill="#ffffff" stroke="none" d="M 216 106 C 216 107.104996 215.104996 108 214 108 L 170 108 C 168.895004 108 168 107.104996 168 106 L 168 22 C 168 20.894989 168.895004 20 170 20 L 214 20 C 215.104996 20 216 20.894989 216 22 Z M 214 16 L 170 16 C 166.692001 16 164 18.692001 164 22 L 164 106 C 164 109.307999 166.692001 112 170 112 L 214 112 C 217.307999 112 220 109.307999 220 106 L 220 22 C 220 18.692001 217.307999 16 214 16"/>
    <path id="path15" fill="#ffffff" stroke="none" d="M 210.199997 24 L 173.800003 24 C 172.806 24 172 24.806 172 25.800003 L 172 26.199997 C 172 27.194 172.806 28 173.800003 28 L 210.199997 28 C 211.194 28 212 27.194 212 26.199997 L 212 25.800003 C 212 24.806 211.194 24 210.199997 24"/>
    <path id="path16" fill="#ffffff" stroke="none" d="M 210.199997 32 L 173.800003 32 C 172.806 32 172 32.806 172 33.800003 L 172 34.199997 C 172 35.194 172.806 36 173.800003 36 L 210.199997 36 C 211.194 36 212 35.194 212 34.199997 L 212 33.800003 C 212 32.806 211.194 32 210.199997 32"/>
    <path id="path17" fill="#ffffff" stroke="none" d="M 210.199997 40 L 173.800003 40 C 172.806 40 172 40.806 172 41.800003 L 172 42.199997 C 172 43.194 172.806 44 173.800003 44 L 210.199997 44 C 211.194 44 212 43.194 212 42.199997 L 212 41.800003 C 212 40.806 211.194 40 210.199997 40"/>
    <path id="path18" fill="#ffffff" stroke="none" d="M 210.199997 48 L 173.800003 48 C 172.806 48 172 48.806 172 49.800003 L 172 50.199997 C 172 51.194 172.806 52 173.800003 52 L 210.199997 52 C 211.194 52 212 51.194 212 50.199997 L 212 49.800003 C 212 48.806 211.194 48 210.199997 48"/>
    <path id="path19" fill="#ffffff" stroke="none" d="M 210.199997 56 L 173.800003 56 C 172.806 56 172 56.806 172 57.800003 L 172 58.199997 C 172 59.194 172.806 60 173.800003 60 L 210.199997 60 C 211.194 60 212 59.194 212 58.199997 L 212 57.800003 C 212 56.806 211.194 56 210.199997 56"/>
    <path id="path20" fill="#ffffff" stroke="none" d="M 210.199997 64 L 173.800003 64 C 172.806 64 172 64.806 172 65.800003 L 172 66.199997 C 172 67.194 172.806 68 173.800003 68 L 210.199997 68 C 211.194 68 212 67.194 212 66.199997 L 212 65.800003 C 212 64.806 211.194 64 210.199997 64"/>
    <path id="path21" fill="#ffffff" stroke="none" d="M 210.199997 72 L 173.800003 72 C 172.806 72 172 72.806 172 73.800003 L 172 74.199997 C 172 75.194 172.806 76 173.800003 76 L 210.199997 76 C 211.194 76 212 75.194 212 74.199997 L 212 73.800003 C 212 72.806 211.194 72 210.199997 72"/>
    <path id="path22" fill="#ffffff" stroke="none" d="M 210.199997 80 L 173.800003 80 C 172.806 80 172 80.806 172 81.800003 L 172 82.199997 C 172 83.194 172.806 84 173.800003 84 L 210.199997 84 C 211.194 84 212 83.194 212 82.199997 L 212 81.800003 C 212 80.806 211.194 80 210.199997 80"/>
    <path id="path23" fill="#ffffff" stroke="none" d="M 210.199997 88 L 173.800003 88 C 172.806 88 172 88.806 172 89.800003 L 172 90.199997 C 172 91.194 172.806 92 173.800003 92 L 210.199997 92 C 211.194 92 212 91.194 212 90.199997 L 212 89.800003 C 212 88.806 211.194 88 210.199997 88"/>
    <path id="path24" fill="#ffffff" stroke="none" d="M 210.199997 96 L 173.800003 96 C 172.806 96 172 96.806 172 97.800003 L 172 98.199997 C 172 99.194 172.806 100 173.800003 100 L 210.199997 100 C 211.194 100 212 99.194 212 98.199997 L 212 97.800003 C 212 96.806 211.194 96 210.199997 96"/>
</svg>
