<?xml version="1.0" encoding="UTF-8"?>
<!-- Generated by Pixelmator Pro 3.7.1 -->
<svg width="256" height="256" viewBox="0 0 256 256" xmlns="http://www.w3.org/2000/svg">
    <path id="Path" fill="#ffffff" stroke="none" d="M 20 84 L 24 84 L 24 88 L 24 96 L 20 96 Z M 48 96 L 28 96 L 28 88 L 48 88 Z M 56 84 L 60 84 L 60 96 L 56 96 Z M 68 84 L 72 84 L 72 96 L 68 96 Z M 76 84 L 80 84 L 80 96 L 76 96 Z M 88 84 L 92 84 L 92 96 L 88 96 Z M 100 84 L 104 84 L 104 96 L 100 96 Z M 112 84 L 116 84 L 116 96 L 112 96 Z M 124 88 L 128 88 L 128 96 L 124 96 Z M 136 84 L 140 84 L 140 96 L 136 96 Z M 148 88 L 152 88 L 152 96 L 148 96 Z M 160 92 L 164 92 L 164 96 L 160 96 Z M 172 84 L 176 84 L 176 96 L 172 96 Z M 184 84 L 188 84 L 188 96 L 184 96 Z M 24 100 L 28 100 L 48 100 L 52 100 L 56 100 L 60 100 L 64 100 L 68 100 L 72 100 L 76 100 L 80 100 L 84 100 L 88 100 L 92 100 L 96 100 L 100 100 L 104 100 L 108 100 L 112 100 L 116 100 L 120 100 L 124 100 L 128 100 L 132 100 L 136 100 L 140 100 L 144 100 L 148 100 L 152 100 L 156 100 L 160 100 L 164 100 L 168 100 L 172 100 L 176 100 L 180 100 L 184 100 L 188 100 L 192 100 L 192 96 L 192 84 L 192 80 L 188 80 L 184 80 L 180 80 L 176 80 L 172 80 L 168 80 L 168 84 L 168 88 L 164 88 L 160 88 L 156 88 L 156 84 L 152 84 L 148 84 L 144 84 L 144 80 L 140 80 L 136 80 L 132 80 L 132 84 L 128 84 L 124 84 L 120 84 L 120 80 L 116 80 L 112 80 L 108 80 L 104 80 L 100 80 L 96 80 L 92 80 L 88 80 L 84 80 L 80 80 L 76 80 L 72 80 L 68 80 L 64 80 L 60 80 L 56 80 L 52 80 L 52 84 L 48 84 L 28 84 L 28 80 L 24 80 L 20 80 L 16 80 L 16 84 L 16 96 L 16 100 L 20 100 Z"/>
    <path id="path1" fill="#ffffff" stroke="none" d="M 20 112 L 24 112 L 24 124 L 20 124 Z M 24 128 L 28 128 L 28 124 L 28 112 L 28 108 L 24 108 L 20 108 L 16 108 L 16 112 L 16 124 L 16 128 L 20 128 Z"/>
    <path id="path2" fill="#ffffff" stroke="none" d="M 224 180 L 220 180 L 220 168 L 224 168 Z M 212 180 L 208 180 L 208 168 L 212 168 Z M 200 180 L 196 180 L 196 168 L 200 168 Z M 188 180 L 184 180 L 184 168 L 188 168 Z M 176 180 L 172 180 L 172 168 L 176 168 Z M 164 180 L 160 180 L 160 168 L 164 168 Z M 152 180 L 148 180 L 148 168 L 152 168 Z M 140 180 L 136 180 L 136 168 L 140 168 Z M 128 180 L 124 180 L 124 168 L 128 168 Z M 116 180 L 112 180 L 112 172 L 112 168 L 116 168 Z M 108 180 L 76 180 L 76 172 L 108 172 Z M 72 180 L 40 180 L 40 172 L 72 172 Z M 32 180 L 28 180 L 28 168 L 32 168 Z M 24 180 L 20 180 L 20 168 L 24 168 Z M 220 164 L 216 164 L 212 164 L 208 164 L 204 164 L 200 164 L 196 164 L 192 164 L 188 164 L 184 164 L 180 164 L 176 164 L 172 164 L 168 164 L 164 164 L 160 164 L 156 164 L 152 164 L 148 164 L 144 164 L 140 164 L 136 164 L 132 164 L 128 164 L 124 164 L 120 164 L 116 164 L 112 164 L 108 164 L 108 168 L 76 168 L 72 168 L 40 168 L 36 168 L 36 164 L 32 164 L 28 164 L 24 164 L 20 164 L 16 164 L 16 168 L 16 180 L 16 184 L 20 184 L 24 184 L 28 184 L 32 184 L 36 184 L 40 184 L 72 184 L 76 184 L 108 184 L 112 184 L 116 184 L 120 184 L 124 184 L 128 184 L 132 184 L 136 184 L 140 184 L 144 184 L 148 184 L 152 184 L 156 184 L 160 184 L 164 184 L 168 184 L 172 184 L 176 184 L 180 184 L 184 184 L 188 184 L 192 184 L 196 184 L 200 184 L 204 184 L 208 184 L 212 184 L 216 184 L 220 184 L 224 184 L 228 184 L 228 180 L 228 168 L 228 164 L 224 164 Z"/>
    <path id="path3" fill="#ffffff" stroke="none" d="M 224 152 L 220 152 L 220 140 L 224 140 Z M 212 152 L 208 152 L 208 140 L 212 140 Z M 200 152 L 196 152 L 196 140 L 200 140 Z M 188 152 L 184 152 L 184 140 L 188 140 Z M 176 152 L 172 152 L 172 140 L 176 140 Z M 164 152 L 160 152 L 160 140 L 164 140 Z M 152 152 L 148 152 L 148 140 L 152 140 Z M 140 152 L 136 152 L 136 148 L 136 140 L 140 140 Z M 112 140 L 132 140 L 132 148 L 112 148 Z M 104 152 L 100 152 L 100 140 L 104 140 Z M 92 152 L 88 152 L 88 140 L 92 140 Z M 80 152 L 76 152 L 76 140 L 80 140 Z M 68 152 L 64 152 L 64 140 L 68 140 Z M 60 152 L 56 152 L 56 140 L 60 140 Z M 48 152 L 44 152 L 44 140 L 48 140 Z M 36 152 L 32 152 L 32 140 L 36 140 Z M 24 152 L 20 152 L 20 140 L 24 140 Z M 220 136 L 216 136 L 212 136 L 208 136 L 204 136 L 200 136 L 196 136 L 192 136 L 188 136 L 184 136 L 180 136 L 176 136 L 172 136 L 168 136 L 164 136 L 160 136 L 156 136 L 152 136 L 148 136 L 144 136 L 140 136 L 136 136 L 132 136 L 112 136 L 108 136 L 104 136 L 100 136 L 96 136 L 92 136 L 88 136 L 84 136 L 80 136 L 76 136 L 72 136 L 68 136 L 64 136 L 60 136 L 56 136 L 52 136 L 48 136 L 44 136 L 40 136 L 36 136 L 32 136 L 28 136 L 24 136 L 20 136 L 16 136 L 16 140 L 16 152 L 16 156 L 20 156 L 24 156 L 28 156 L 32 156 L 36 156 L 40 156 L 44 156 L 48 156 L 52 156 L 56 156 L 60 156 L 64 156 L 68 156 L 72 156 L 76 156 L 80 156 L 84 156 L 88 156 L 92 156 L 96 156 L 100 156 L 104 156 L 108 156 L 108 152 L 112 152 L 132 152 L 132 156 L 136 156 L 140 156 L 144 156 L 148 156 L 152 156 L 156 156 L 160 156 L 164 156 L 168 156 L 172 156 L 176 156 L 180 156 L 184 156 L 188 156 L 192 156 L 196 156 L 200 156 L 204 156 L 208 156 L 212 156 L 216 156 L 220 156 L 224 156 L 228 156 L 228 152 L 228 140 L 228 136 L 224 136 Z"/>
    <path id="path4" fill="#ffffff" stroke="none" d="M 188 124 L 184 124 L 184 112 L 188 112 Z M 176 124 L 172 124 L 172 112 L 176 112 Z M 164 124 L 160 124 L 160 112 L 164 112 Z M 152 124 L 148 124 L 148 112 L 152 112 Z M 140 124 L 136 124 L 136 112 L 140 112 Z M 128 124 L 124 124 L 124 112 L 128 112 Z M 116 124 L 112 124 L 112 112 L 116 112 Z M 104 124 L 100 124 L 100 112 L 104 112 Z M 92 124 L 88 124 L 88 112 L 92 112 Z M 80 124 L 76 124 L 76 112 L 80 112 Z M 72 124 L 68 124 L 68 112 L 72 112 Z M 60 124 L 56 124 L 56 112 L 60 112 Z M 48 124 L 44 124 L 44 112 L 48 112 Z M 184 108 L 180 108 L 176 108 L 172 108 L 168 108 L 164 108 L 160 108 L 156 108 L 152 108 L 148 108 L 144 108 L 140 108 L 136 108 L 132 108 L 128 108 L 124 108 L 120 108 L 116 108 L 112 108 L 108 108 L 104 108 L 100 108 L 96 108 L 92 108 L 88 108 L 84 108 L 80 108 L 76 108 L 72 108 L 68 108 L 64 108 L 60 108 L 56 108 L 52 108 L 48 108 L 44 108 L 40 108 L 40 112 L 40 124 L 40 128 L 44 128 L 48 128 L 52 128 L 56 128 L 60 128 L 64 128 L 68 128 L 72 128 L 76 128 L 80 128 L 84 128 L 88 128 L 92 128 L 96 128 L 100 128 L 104 128 L 108 128 L 112 128 L 116 128 L 120 128 L 124 128 L 128 128 L 132 128 L 136 128 L 140 128 L 144 128 L 148 128 L 152 128 L 156 128 L 160 128 L 164 128 L 168 128 L 172 128 L 176 128 L 180 128 L 184 128 L 188 128 L 192 128 L 192 124 L 192 112 L 192 108 L 188 108 Z"/>
    <path id="path5" fill="#ffffff" stroke="none" d="M 240.267502 92 C 240.449493 91.798004 240.623505 91.587006 240.776505 91.356003 C 241.147507 90.796997 241.402496 90.182007 241.539505 89.544006 C 242.464493 89.347 243.307495 88.899994 243.999496 88.268997 L 243.999496 92 Z M 239.999496 116 L 239.999496 118 C 239.999496 119.104996 239.104507 120 237.999496 120 L 233.999496 120 C 232.895493 120 231.999496 120.895004 231.999496 122 L 231.999496 130 C 231.999496 131.104996 232.895493 132 233.999496 132 L 237.999496 132 C 239.104507 132 239.999496 132.895004 239.999496 134 L 239.999496 188 L 231.999496 188 L 231.999496 192 L 11.999495 192 L 11.999495 76 L 15.999495 76 L 27.999495 76 L 31.999495 76 L 31.999495 72 L 31.999495 64 L 159.999496 64 L 159.999496 72 L 159.999496 76 L 163.999496 76 L 187.999496 76 L 191.999496 76 L 191.999496 72 L 191.999496 64 L 211.7155 64 C 211.260498 64.479996 210.885498 65.048004 210.623505 65.688995 C 210.226501 66.656006 210.130508 67.686996 210.309494 68.666992 C 209.1875 69.434998 208.380508 70.626999 208.100494 72.061996 C 207.823502 73.481995 208.114502 74.875 208.842499 76 C 208.114502 77.125 207.823502 78.518005 208.100494 79.938004 C 208.3815 81.376007 209.190506 82.569 210.309494 83.337006 C 210.130508 84.315994 210.227493 85.345993 210.622498 86.311005 C 211.3125 87.992004 212.7565 89.181 214.460495 89.544006 C 214.597504 90.182007 214.852493 90.796997 215.223495 91.356003 C 216.229507 92.873001 217.911499 93.779007 219.722504 93.779007 C 220.043503 93.779007 220.360504 93.75 220.671494 93.694 C 220.846497 93.947998 221.046494 94.188004 221.267502 94.410995 C 222.270508 95.421005 223.668503 96 225.104507 96 C 226.158493 96 227.156494 95.692993 227.999496 95.147003 C 228.843506 95.692993 229.841507 96 230.895508 96 C 232.331497 96 233.729507 95.421005 234.732498 94.410995 C 234.953506 94.188004 235.152496 93.947998 235.328506 93.694 C 235.639496 93.75 235.956497 93.779007 236.277496 93.779007 C 237.682495 93.779007 239.005493 93.229004 239.999496 92.276001 L 239.999496 104 L 235.999496 104 L 235.999496 116 Z M 27.999495 72 L 15.999495 72 L 15.999495 64 L 27.999495 64 Z M 187.999496 72 L 163.999496 72 L 163.999496 64 L 187.999496 64 Z M 215.732498 60 C 215.550507 60.201996 215.376495 60.412994 215.223495 60.643997 C 214.852493 61.203003 214.597504 61.817993 214.460495 62.455994 C 213.535507 62.653 212.692505 63.100006 211.999496 63.731003 L 211.999496 60 Z M 242.175507 77.257996 L 243.151505 77.654007 C 244.5345 78.214996 244.129501 80.270004 242.642502 80.270004 L 242.630493 80.270004 L 241.577499 80.261993 C 241.574493 80.261993 241.570496 80.261993 241.566498 80.261993 C 240.354507 80.261993 239.749496 81.733994 240.614502 82.587006 L 241.364502 83.326004 C 242.2845 84.233002 241.540497 85.660004 240.433502 85.660004 C 240.257507 85.660004 240.072495 85.623993 239.883499 85.544006 L 238.913498 85.134003 C 238.732498 85.057007 238.551498 85.022995 238.377502 85.022995 C 237.467499 85.022995 236.735504 85.970993 237.133499 86.912994 L 237.543503 87.882996 C 237.968506 88.886993 237.155502 89.779007 236.277496 89.779007 C 235.949493 89.779007 235.611496 89.654999 235.326508 89.365005 L 234.586502 88.615005 C 234.309494 88.332993 233.966507 88.207001 233.630493 88.207001 C 232.929504 88.207001 232.2565 88.753998 232.262497 89.578003 L 232.269501 90.630997 C 232.276505 91.496994 231.586502 92 230.895508 92 C 230.393494 92 229.890503 91.735001 229.654495 91.151001 L 229.258499 90.175003 C 229.028503 89.610001 228.514496 89.328003 227.999496 89.328003 C 227.485504 89.328003 226.971497 89.610001 226.741501 90.175003 L 226.345505 91.151001 C 226.109497 91.735001 225.606506 92 225.104507 92 C 224.413498 92 223.723495 91.496994 223.730499 90.630997 L 223.737503 89.578003 C 223.7435 88.753998 223.070496 88.207001 222.369507 88.207001 C 222.033508 88.207001 221.690506 88.332993 221.413498 88.615005 L 220.673508 89.365005 C 220.388504 89.654999 220.050507 89.779007 219.722504 89.779007 C 218.843506 89.779007 218.031494 88.886993 218.456497 87.882996 L 218.866501 86.912994 C 219.264496 85.970993 218.532501 85.022995 217.622498 85.022995 C 217.448502 85.022995 217.267502 85.057007 217.086502 85.134003 L 216.116501 85.544006 C 215.927505 85.623993 215.742508 85.660004 215.566498 85.660004 C 214.459503 85.660004 213.7155 84.233002 214.635498 83.326004 L 215.385498 82.587006 C 216.250504 81.733994 215.644501 80.261993 214.433502 80.261993 C 214.429504 80.261993 214.426498 80.261993 214.422501 80.261993 L 213.369507 80.270004 L 213.357498 80.270004 C 211.870499 80.270004 211.4655 78.214996 212.848495 77.654007 L 213.824493 77.257996 C 214.954498 76.800003 214.954498 75.199997 213.824493 74.742004 L 212.848495 74.346008 C 211.4655 73.785004 211.870499 71.729996 213.357498 71.729996 C 213.361496 71.729996 213.365494 71.729996 213.369507 71.729996 L 214.422501 71.738007 L 214.433502 71.738007 C 215.645508 71.738007 216.250504 70.266006 215.385498 69.412994 L 214.635498 68.673996 C 213.7155 67.766998 214.459503 66.339996 215.566498 66.339996 C 215.742508 66.339996 215.927505 66.376007 216.116501 66.455994 L 217.086502 66.865997 C 217.267502 66.942993 217.448502 66.977005 217.622498 66.977005 C 218.532501 66.977005 219.264496 66.028992 218.866501 65.087006 L 218.456497 64.117004 C 218.031494 63.113007 218.843506 62.221008 219.722504 62.221008 C 220.050507 62.221008 220.387497 62.345001 220.673508 62.634995 L 221.413498 63.384995 C 221.690506 63.666992 222.033508 63.792999 222.369507 63.792999 C 223.070496 63.792999 223.7435 63.246002 223.737503 62.421997 L 223.730499 61.369003 C 223.723495 60.503006 224.413498 60 225.104507 60 C 225.606506 60 226.109497 60.264999 226.345505 60.848999 L 226.741501 61.824997 C 226.971497 62.389999 227.485504 62.671997 227.999496 62.671997 C 228.514496 62.671997 229.028503 62.389999 229.258499 61.824997 L 229.654495 60.848999 C 229.890503 60.264999 230.393494 60 230.895508 60 C 231.586502 60 232.276505 60.501999 232.269501 61.369003 L 232.262497 62.421997 C 232.2565 63.246002 232.929504 63.792999 233.630493 63.792999 C 233.966507 63.792999 234.309494 63.666992 234.586502 63.384995 L 235.326508 62.634995 C 235.611496 62.345001 235.949493 62.221008 236.277496 62.221008 C 237.156494 62.221008 237.968506 63.113007 237.543503 64.117004 L 237.133499 65.087006 C 236.735504 66.028992 237.467499 66.977005 238.377502 66.977005 C 238.551498 66.977005 238.732498 66.942993 238.913498 66.865997 L 239.883499 66.455994 C 240.072495 66.376007 240.257507 66.339996 240.433502 66.339996 C 241.540497 66.339996 242.2845 67.766998 241.364502 68.673996 L 240.614502 69.412994 C 239.749496 70.266006 240.355499 71.738007 241.566498 71.738007 L 241.577499 71.738007 L 242.630493 71.729996 C 242.634506 71.729996 242.638504 71.729996 242.642502 71.729996 C 244.129501 71.729996 244.5345 73.785004 243.151505 74.346008 L 242.175507 74.742004 C 241.045502 75.199997 241.045502 76.800003 242.175507 77.257996 M 243.999496 63.731003 C 243.307495 63.100006 242.464493 62.653 241.539505 62.455994 C 241.402496 61.817993 241.147507 61.203003 240.776505 60.643997 C 240.623505 60.412994 240.449493 60.201996 240.267502 60 L 243.999496 60 Z M 247.999496 78.856003 L 247.999496 73.145996 C 248.000504 73.128006 248.000504 73.110001 247.999496 73.091003 L 247.999496 60 L 247.999496 56 L 243.999496 56 L 211.999496 56 L 207.999496 56 L 207.999496 60 L 191.999496 60 L 187.999496 60 L 163.999496 60 L 159.999496 60 L 31.999495 60 L 27.999495 60 L 15.999495 60 L 11.999495 60 L 7.999495 60 L 7.999495 64 L 7.999495 192 L 7.999495 196 L 11.999495 196 L 231.999496 196 L 235.999496 196 L 235.999496 192 L 239.999496 192 L 243.999496 192 L 243.999496 188 L 243.999496 134 C 243.999496 130.692001 241.308502 128 237.999496 128 L 235.999496 128 L 235.999496 124 L 237.999496 124 C 241.308502 124 243.999496 121.307999 243.999496 118 L 243.999496 96 L 247.999496 96 L 247.999496 92 L 247.999496 78.906998 C 248.000504 78.889999 248.000504 78.873001 247.999496 78.856003"/>
    <path id="path6" fill="#ffffff" stroke="none" d="M 228 84 C 223.582001 84 220 80.417999 220 76 C 220 71.582001 223.582001 68 228 68 C 232.417999 68 236 71.582001 236 76 C 236 80.417999 232.417999 84 228 84 M 228 64 C 221.382996 64 216 69.382996 216 76 C 216 82.617004 221.382996 88 228 88 C 234.617004 88 240 82.617004 240 76 C 240 69.382996 234.617004 64 228 64"/>
    <path id="path7" fill="#ffffff" stroke="none" d="M 200 108 L 224 108 L 224 116 L 200 116 Z M 224 128 L 200 128 L 200 120 L 224 120 Z M 200 104 L 196 104 L 196 108 L 196 116 L 196 120 L 196 128 L 196 132 L 200 132 L 224 132 L 228 132 L 228 128 L 228 120 L 228 116 L 228 108 L 228 104 L 224 104 Z"/>
</svg>
