<?xml version="1.0" encoding="UTF-8"?>
<!-- Generated by Pixelmator Pro 3.7.1 -->
<svg width="256" height="256" viewBox="0 0 256 256" xmlns="http://www.w3.org/2000/svg">
    <path id="Path" fill="#ffffff" stroke="none" d="M 200 236 C 200 240.417999 196.417999 244 192 244 L 64 244 C 59.582001 244 56 240.417999 56 236 L 56 20 C 56 15.582001 59.582001 12 64 12 L 192 12 C 196.417999 12 200 15.582001 200 20 Z M 192 8 L 64 8 C 57.382996 8 52 13.382996 52 20 L 52 236 C 52 242.617004 57.382996 248 64 248 L 192 248 C 198.617004 248 204 242.617004 204 236 L 204 20 C 204 13.382996 198.617004 8 192 8"/>
    <path id="path1" fill="#ffffff" stroke="none" d="M 70 232 C 68.894997 232 68 231.104996 68 230 C 68 228.895004 68.894997 228 70 228 C 71.105003 228 72 228.895004 72 230 C 72 231.104996 71.105003 232 70 232 M 70 224 C 66.692001 224 64 226.692001 64 230 C 64 233.307999 66.692001 236 70 236 C 73.307999 236 76 233.307999 76 230 C 76 226.692001 73.307999 224 70 224"/>
    <path id="path2" fill="#ffffff" stroke="none" d="M 186 232 C 184.895004 232 184 231.104996 184 230 C 184 228.895004 184.895004 228 186 228 C 187.104996 228 188 228.895004 188 230 C 188 231.104996 187.104996 232 186 232 M 186 224 C 182.692001 224 180 226.692001 180 230 C 180 233.307999 182.692001 236 186 236 C 189.307999 236 192 233.307999 192 230 C 192 226.692001 189.307999 224 186 224"/>
    <path id="path3" fill="#ffffff" stroke="none" d="M 70 24 C 71.105003 24 72 24.895004 72 26 C 72 27.104996 71.105003 28 70 28 C 68.894997 28 68 27.104996 68 26 C 68 24.895004 68.894997 24 70 24 M 70 32 C 73.307999 32 76 29.307999 76 26 C 76 22.692001 73.307999 20 70 20 C 66.692001 20 64 22.692001 64 26 C 64 29.307999 66.692001 32 70 32"/>
    <path id="path4" fill="#ffffff" stroke="none" d="M 186 24 C 187.104996 24 188 24.895004 188 26 C 188 27.104996 187.104996 28 186 28 C 184.895004 28 184 27.104996 184 26 C 184 24.895004 184.895004 24 186 24 M 186 32 C 189.307999 32 192 29.307999 192 26 C 192 22.692001 189.307999 20 186 20 C 182.692001 20 180 22.692001 180 26 C 180 29.307999 182.692001 32 186 32"/>
    <path id="path5" fill="#ffffff" stroke="none" d="M 176 164 C 169.373001 164 164 158.626999 164 152 C 164 145.373001 169.373001 140 176 140 C 182.626999 140 188 145.373001 188 152 C 188 158.626999 182.626999 164 176 164 M 152 176 C 145.373001 176 140 170.626999 140 164 C 140 157.373001 145.373001 152 152 152 C 158.626999 152 164 157.373001 164 164 C 164 170.626999 158.626999 176 152 176 M 176 136 C 167.777008 136 160.988998 142.237 160.104004 150.227997 C 157.723999 148.821991 154.959 148 152 148 C 143.178009 148 136 155.178009 136 164 C 136 172.821991 143.178009 180 152 180 C 160.222992 180 167.011002 173.763 167.895996 165.772003 C 170.276001 167.178009 173.041 168 176 168 C 184.822006 168 192 160.821991 192 152 C 192 143.178009 184.822006 136 176 136"/>
    <path id="path6" fill="#ffffff" stroke="none" d="M 127.1716 166 C 127.1716 167.105011 126.276604 168 125.1716 168 L 111.999603 168 C 111.469597 168 110.960602 167.789001 110.585602 167.414001 L 100.585602 157.414001 C 99.804596 156.632996 99.804596 155.367004 100.585602 154.585999 L 110.585602 144.585999 C 110.960602 144.210999 111.469597 144 111.999603 144 L 125.1716 144 C 126.276604 144 127.1716 144.895004 127.1716 146 Z M 107.585602 185.171997 C 107.585602 186.276001 106.690598 187.171997 105.585602 187.171997 L 85.585602 187.171997 C 84.481598 187.171997 83.585602 186.276001 83.585602 185.171997 L 83.585602 172 C 83.585602 171.470001 83.7966 170.960999 84.1716 170.585999 L 94.1716 160.585999 C 94.952599 159.804993 96.218597 159.804993 96.999596 160.585999 L 106.999596 170.585999 C 107.374596 170.960999 107.585602 171.470001 107.585602 172 Z M 80.585602 167.414001 C 80.210602 167.789001 79.701599 168 79.1716 168 L 65.999596 168 C 64.895599 168 63.999599 167.105011 63.999599 166 L 63.999599 146 C 63.999599 144.895004 64.895599 144 65.999596 144 L 79.1716 144 C 79.701599 144 80.210602 144.210999 80.585602 144.585999 L 90.585602 154.585999 C 91.3666 155.367004 91.3666 156.632996 90.585602 157.414001 Z M 83.585602 126 C 83.585602 124.895004 84.481598 124 85.585602 124 L 105.585602 124 C 106.690598 124 107.585602 124.895004 107.585602 126 L 107.585602 139.171997 C 107.585602 139.701996 107.374596 140.210999 106.999596 140.585999 L 96.999596 150.585999 C 96.218597 151.367004 94.952599 151.367004 94.1716 150.585999 L 84.1716 140.585999 C 83.7966 140.210999 83.585602 139.701996 83.585602 139.171997 Z M 125.1716 140 L 111.999603 140 C 111.841599 140 111.683601 140.005997 111.526596 140.018005 C 111.565598 139.73999 111.585602 139.457001 111.585602 139.171997 L 111.585602 126 C 111.585602 122.692001 108.8946 120 105.585602 120 L 85.585602 120 C 82.277596 120 79.585602 122.692001 79.585602 126 L 79.585602 139.171997 C 79.585602 139.457001 79.605598 139.73999 79.6446 140.018005 C 79.488602 140.005997 79.330597 140 79.1716 140 L 65.999596 140 C 62.691597 140 59.999603 142.692001 59.999603 146 L 59.999603 166 C 59.999603 169.307999 62.691597 172 65.999596 172 L 79.1716 172 C 79.3106 172 79.448601 171.994995 79.585602 171.985992 L 79.585602 172 L 79.585602 185.171997 C 79.585602 188.479996 82.277596 191.171997 85.585602 191.171997 L 105.585602 191.171997 C 108.8946 191.171997 111.585602 188.479996 111.585602 185.171997 L 111.585602 172 C 111.585602 171.994995 111.585602 171.990997 111.585602 171.985992 C 111.722603 171.994995 111.861603 172 111.999603 172 L 125.1716 172 C 128.479599 172 131.1716 169.307999 131.1716 166 L 131.1716 146 C 131.1716 142.692001 128.479599 140 125.1716 140"/>
    <path id="path7" fill="#ffffff" stroke="none" d="M 84 108 L 84 97.835007 C 86.357002 99.203003 89.084 100 92 100 L 108 100 L 108 104 L 112 104 L 140 104 L 144 104 L 144 100 L 167 100 C 168.848999 100 170.569 99.438004 172 98.477997 L 172 108 Z M 80 76 L 88 84 L 80 84 Z M 176 32 L 176 72 C 174.959 72 173.936996 72.406998 173.171997 73.171997 L 165.171997 81.171997 C 164.028 82.315994 163.684998 84.035995 164.304993 85.531006 C 164.924011 87.024994 166.382004 88 168 88 L 172 88 L 172 91 C 172 93.761002 169.761002 96 167 96 L 144 96 L 140 96 L 140 100 L 112 100 L 112 96 L 92 96 C 86.777 96 82.346001 92.658005 80.696999 88 L 88 88 C 89.617996 88 91.076004 87.024994 91.695 85.531006 C 92.315002 84.035995 91.972 82.315994 90.828003 81.171997 L 82.828003 73.171997 C 82.063004 72.406998 81.041 72 80 72 L 80 32 Z M 176 80 L 176 84 L 168 84 L 176 76 Z M 176 91 L 176 90.925995 C 178.389999 89.541 180 86.955002 180 84 L 180 80 L 180 76 L 180 32 L 180 28 L 176 28 L 80 28 L 76 28 L 76 32 L 76 76 L 76 84 C 76 88.041992 77.518997 91.727997 80 94.548004 L 80 108 L 60 108 L 60 112 L 196 112 L 196 108 L 176 108 Z"/>
</svg>
