<?xml version="1.0" encoding="UTF-8"?>
<!-- Generated by Pixelmator Pro 3.7.1 -->
<svg width="256" height="256" viewBox="0 0 256 256" xmlns="http://www.w3.org/2000/svg">
    <path id="Path" fill="#ffffff" stroke="none" d="M 142 92 C 139.863007 92 137.854004 92.832993 136.343994 94.343994 L 108.344002 122.343994 C 106.833 123.854996 106 125.863998 106 128 C 106 130.127991 106.830002 132.134003 108.335999 133.647995 L 136.343994 161.656006 C 137.865997 163.17099 139.871994 164 142 164 C 146.414001 163.992004 150 160.403 150 156 C 150 153.854996 149.162994 151.843002 147.645004 150.332001 L 125.313004 128 L 147.656006 105.656006 C 149.171005 104.134003 150 102.128006 150 100 C 150 95.589005 146.410995 92 142 92 M 142 96 C 144.212006 96 146 97.787994 146 100 C 146 101.104004 145.552002 102.100006 144.828003 102.828003 L 119.655998 128 L 144.824005 153.167999 C 145.552002 153.891998 146 154.891998 146 156 C 146 158.208008 144.212006 159.996002 142 160 C 140.899994 160 139.899994 159.552002 139.171997 158.828003 L 111.171997 130.828003 C 110.447998 130.100006 110 129.104004 110 128 C 110 126.895996 110.447998 125.895996 111.171997 125.171997 L 139.171997 97.171997 C 139.895996 96.447998 140.895996 96 142 96"/>
</svg>
