<?xml version="1.0" encoding="UTF-8"?>
<!-- Generated by Pixelmator Pro 3.7.1 -->
<svg width="256" height="256" viewBox="0 0 256 256" xmlns="http://www.w3.org/2000/svg">
    <path id="Path" fill="#ffffff" stroke="none" d="M 244 139.084 L 218.324997 120.744995 L 217.281998 120 L 216 120 L 216 104 L 216 100 L 216 44 L 244 44 Z M 228 144 L 224 144 L 208 144 L 204 144 L 200 144 L 196 144 L 192 144 L 188 144 L 180 144 L 176 144 L 168 144 L 164 144 L 156 144 L 152 144 L 144 144 L 140 144 L 132 144 L 128 144 L 120 144 L 116 144 L 108 144 L 104 144 L 96 144 L 92 144 L 84 144 L 80 144 L 72 144 L 68 144 L 60 144 L 56 144 L 48 144 L 44 144 L 36 144 L 32 144 L 12 144 L 40 124 L 44 140 L 208 140 L 212 124 L 216 124 L 244 144 Z M 208 196 L 224 196 L 224 204 L 208 204 Z M 224 192 L 208 192 L 208 184 L 224 184 Z M 224 180 L 208 180 L 208 172 L 224 172 Z M 224 168 L 208 168 L 208 160 L 224 160 Z M 224 156 L 208 156 L 208 148 L 224 148 Z M 44 156 L 36 156 L 36 148 L 44 148 Z M 56 156 L 52 156 L 48 156 L 48 148 L 56 148 Z M 68 156 L 64 156 L 60 156 L 60 148 L 68 148 Z M 80 156 L 76 156 L 72 156 L 72 148 L 80 148 Z M 92 156 L 88 156 L 84 156 L 84 148 L 92 148 Z M 104 156 L 100 156 L 96 156 L 96 148 L 104 148 Z M 116 156 L 112 156 L 108 156 L 108 148 L 116 148 Z M 128 156 L 124 156 L 120 156 L 120 148 L 128 148 Z M 140 156 L 136 156 L 132 156 L 132 148 L 140 148 Z M 152 156 L 148 156 L 144 156 L 144 148 L 152 148 Z M 164 156 L 160 156 L 156 156 L 156 148 L 164 148 Z M 176 156 L 172 156 L 168 156 L 168 148 L 176 148 Z M 188 156 L 184 156 L 180 156 L 180 148 L 188 148 Z M 184 160 L 188 160 L 192 160 L 196 160 L 196 168 L 188 168 L 184 168 Z M 180 184 L 184 184 L 184 192 L 180 192 Z M 168 184 L 172 184 L 176 184 L 176 192 L 168 192 Z M 156 192 L 156 184 L 160 184 L 164 184 L 164 192 L 160 192 Z M 64 196 L 68 196 L 72 196 L 80 196 L 84 196 L 92 196 L 96 196 L 104 196 L 108 196 L 116 196 L 120 196 L 128 196 L 132 196 L 140 196 L 144 196 L 152 196 L 156 196 L 160 196 L 160 204 L 64 204 Z M 60 184 L 64 184 L 68 184 L 68 192 L 64 192 L 60 192 Z M 40 172 L 48 172 L 52 172 L 52 180 L 40 180 Z M 60 168 L 56 168 L 52 168 L 52 160 L 56 160 L 60 160 Z M 72 168 L 68 168 L 64 168 L 64 160 L 68 160 L 72 160 Z M 84 168 L 80 168 L 76 168 L 76 160 L 80 160 L 84 160 Z M 96 168 L 92 168 L 88 168 L 88 160 L 92 160 L 96 160 Z M 108 168 L 104 168 L 100 168 L 100 160 L 104 160 L 108 160 Z M 120 168 L 116 168 L 112 168 L 112 160 L 116 160 L 120 160 Z M 132 168 L 128 168 L 124 168 L 124 160 L 128 160 L 132 160 Z M 144 168 L 140 168 L 136 168 L 136 160 L 140 160 L 144 160 Z M 156 168 L 152 168 L 148 168 L 148 160 L 152 160 L 156 160 Z M 168 168 L 164 168 L 160 168 L 160 160 L 164 160 L 168 160 Z M 152 172 L 156 172 L 160 172 L 160 180 L 156 180 L 152 180 Z M 132 184 L 136 184 L 140 184 L 140 192 L 132 192 Z M 120 184 L 124 184 L 128 184 L 128 192 L 120 192 Z M 108 184 L 112 184 L 116 184 L 116 192 L 108 192 Z M 96 184 L 100 184 L 104 184 L 104 192 L 96 192 Z M 84 184 L 88 184 L 92 184 L 92 192 L 84 192 Z M 72 184 L 76 184 L 80 184 L 80 192 L 72 192 Z M 88 180 L 84 180 L 80 180 L 80 172 L 84 172 L 88 172 Z M 100 180 L 96 180 L 92 180 L 92 172 L 96 172 L 100 172 Z M 112 180 L 108 180 L 104 180 L 104 172 L 108 172 L 112 172 Z M 124 180 L 120 180 L 116 180 L 116 172 L 120 172 L 124 172 Z M 136 180 L 132 180 L 128 180 L 128 172 L 132 172 L 136 172 Z M 148 180 L 144 180 L 140 180 L 140 172 L 144 172 L 148 172 Z M 68 172 L 72 172 L 76 172 L 76 180 L 72 180 L 68 180 Z M 56 172 L 60 172 L 64 172 L 64 180 L 60 180 L 56 180 Z M 152 192 L 144 192 L 144 184 L 148 184 L 152 184 Z M 172 180 L 168 180 L 164 180 L 164 172 L 168 172 L 172 172 Z M 180 168 L 176 168 L 172 168 L 172 160 L 176 160 L 180 160 Z M 36 160 L 44 160 L 48 160 L 48 168 L 40 168 L 36 168 Z M 40 184 L 52 184 L 56 184 L 56 192 L 40 192 Z M 184 180 L 180 180 L 176 180 L 176 172 L 180 172 L 184 172 Z M 196 156 L 192 156 L 192 148 L 196 148 Z M 244 216 L 12 216 L 12 148 L 32 148 L 32 156 L 32 160 L 32 168 L 32 172 L 36 172 L 36 180 L 36 184 L 36 192 L 36 196 L 40 196 L 56 196 L 60 196 L 60 204 L 60 208 L 64 208 L 160 208 L 164 208 L 164 204 L 164 196 L 168 196 L 176 196 L 180 196 L 184 196 L 188 196 L 188 192 L 188 184 L 188 180 L 188 172 L 196 172 L 200 172 L 200 168 L 200 160 L 200 156 L 200 148 L 204 148 L 204 156 L 204 160 L 204 168 L 204 172 L 204 180 L 204 184 L 204 192 L 204 196 L 204 204 L 204 208 L 208 208 L 224 208 L 228 208 L 228 204 L 228 196 L 228 192 L 228 184 L 228 180 L 228 172 L 228 168 L 228 160 L 228 156 L 228 148 L 244 148 Z M 12 44 L 40 44 L 40 100 L 40 104 L 40 119.084 L 37.675003 120.744995 L 12 139.084 Z M 207.876999 124 L 204.876999 136 L 47.123001 136 L 44.123001 124 Z M 44 104 L 212 104 L 212 120 L 208.876999 120 L 44 120 Z M 44 96 L 44 44 L 48 44 L 48 96 L 52 96 L 52 44 L 56 44 L 56 96 L 60 96 L 60 44 L 64 44 L 64 96 L 68 96 L 68 44 L 72 44 L 72 96 L 76 96 L 76 44 L 80 44 L 80 96 L 84 96 L 84 44 L 88 44 L 88 96 L 92 96 L 92 44 L 96 44 L 96 96 L 100 96 L 100 44 L 104 44 L 104 96 L 108 96 L 108 44 L 112 44 L 112 96 L 116 96 L 116 44 L 120 44 L 120 96 L 124 96 L 124 44 L 128 44 L 128 96 L 132 96 L 132 44 L 136 44 L 136 96 L 140 96 L 140 44 L 144 44 L 144 96 L 148 96 L 148 44 L 152 44 L 152 96 L 156 96 L 156 44 L 160 44 L 160 96 L 164 96 L 164 44 L 168 44 L 168 96 L 172 96 L 172 44 L 176 44 L 176 96 L 180 96 L 180 44 L 184 44 L 184 96 L 188 96 L 188 44 L 192 44 L 192 96 L 196 96 L 196 44 L 200 44 L 200 96 L 204 96 L 204 44 L 212 44 L 212 100 L 44 100 Z M 244 40 L 216 40 L 44 40 L 42 40 L 40 40 L 12 40 L 8 40 L 8 44 L 8 141.94101 L 8 148 L 8 216 L 8 220 L 12 220 L 244 220 L 248 220 L 248 216 L 248 148 L 248 141.94101 L 248 44 L 248 40 Z"/>
</svg>
