<?xml version="1.0" encoding="UTF-8"?>
<!-- Generated by Pixelmator Pro 3.7.1 -->
<svg width="256" height="256" viewBox="0 0 256 256" xmlns="http://www.w3.org/2000/svg">
    <path id="Path" fill="#ffffff" stroke="none" d="M 142 196 C 136.477997 196 132 191.522003 132 186 C 132 180.477997 136.477997 176 142 176 C 147.522003 176 152 180.477997 152 186 C 152 191.522003 147.522003 196 142 196 M 156 186 C 156 178.279999 149.720001 172 142 172 C 134.279999 172 128 178.279999 128 186 C 128 193.720001 134.279999 200 142 200 C 149.720001 200 156 193.720001 156 186"/>
    <path id="path1" fill="#ffffff" stroke="none" d="M 170 196 C 164.477997 196 160 191.522003 160 186 C 160 180.477997 164.477997 176 170 176 C 175.522003 176 180 180.477997 180 186 C 180 191.522003 175.522003 196 170 196 M 184 186 C 184 178.279999 177.720001 172 170 172 C 162.279999 172 156 178.279999 156 186 C 156 193.720001 162.279999 200 170 200 C 177.720001 200 184 193.720001 184 186"/>
    <path id="path2" fill="#ffffff" stroke="none" d="M 198 196 C 192.477997 196 188 191.522003 188 186 C 188 180.477997 192.477997 176 198 176 C 203.522003 176 208 180.477997 208 186 C 208 191.522003 203.522003 196 198 196 M 212 186 C 212 178.279999 205.720001 172 198 172 C 190.279999 172 184 178.279999 184 186 C 184 193.720001 190.279999 200 198 200 C 205.720001 200 212 193.720001 212 186"/>
    <path id="path3" fill="#ffffff" stroke="none" d="M 226 196 C 220.477997 196 216 191.522003 216 186 C 216 180.477997 220.477997 176 226 176 C 231.522003 176 236 180.477997 236 186 C 236 191.522003 231.522003 196 226 196 M 240 186 C 240 178.279999 233.720001 172 226 172 C 218.279999 172 212 178.279999 212 186 C 212 193.720001 218.279999 200 226 200 C 233.720001 200 240 193.720001 240 186"/>
    <path id="path4" fill="#ffffff" stroke="none" d="M 244 168 L 96.388 168 L 95.522003 167.007004 L 58.996002 125.069 L 58.363998 124.343994 L 66.212997 115.238998 L 99.360992 153.298996 L 102.376999 156.761993 L 105.393997 153.298996 L 109.393997 148.705994 L 111.682007 146.078003 L 109.393997 143.451004 L 87.531006 118.350006 L 116 85.325989 L 116 85.143005 L 137.360992 109.669006 L 140.376999 113.132004 L 143.393997 109.669006 L 147.393997 105.076004 L 149.682007 102.449005 L 147.393997 99.821991 L 113.906006 61.373001 L 113.274002 60.64801 L 115.029999 58.612 L 117.280998 56 L 244 56 Z M 244 200 L 226 200 L 198 200 L 170 200 L 142 200 L 12 200 L 12 172 L 17.281006 172 L 142 172 L 170 172 L 198 172 L 226 172 L 244 172 Z M 53.417007 140.028992 C 45.968994 140.337997 40 146.477997 40 154 C 40 161.720001 46.279999 168 54 168 C 60.865005 168 66.580002 163.028992 67.764008 156.501007 L 77.779007 168 L 54 168 L 20.729004 168 L 49.106995 135.080994 Z M 64 154 C 64 159.522003 59.522995 164 54 164 C 48.477005 164 44 159.522003 44 154 C 44 153.654999 44.018005 153.313004 44.052002 152.977997 C 44.119995 152.304993 44.255005 151.652008 44.449997 151.026001 C 44.645004 150.399994 44.899002 149.800003 45.207001 149.233002 C 45.822998 148.100006 46.651001 147.098999 47.639008 146.283005 C 47.886002 146.080002 48.143005 145.888 48.408997 145.708008 C 48.940994 145.348999 49.509003 145.039001 50.106995 144.785995 C 51.304001 144.278992 52.619003 144 54 144 C 54.315994 144 54.628006 144.018005 54.936996 144.046997 C 55.123993 144.063995 55.307007 144.096008 55.490997 144.123001 C 55.597 144.139999 55.703003 144.152008 55.807999 144.171997 C 56.052002 144.216003 56.292007 144.27301 56.529999 144.335999 C 56.561005 144.343994 56.591995 144.350998 56.623001 144.359009 C 60.539993 145.423004 63.503006 148.796997 63.942001 152.93399 C 63.942001 152.938995 63.944 152.945007 63.944 152.951004 C 63.979996 153.29599 64 153.645996 64 154 M 52 132.311996 L 55.979004 127.695999 L 91.082993 168 L 83.082993 168 Z M 106.910004 68.615997 L 110.889999 64 L 144.376999 102.449005 L 140.376999 107.041992 Z M 106.376999 146.078003 L 102.376999 150.67099 L 69.104996 112.470001 L 73.085007 107.854004 Z M 76.100998 105.227005 L 75.470001 104.501007 L 104.018005 71.386002 L 113.425003 82.186996 L 84.876999 115.303009 Z M 12 162.813995 L 104 56 L 112 56 L 15.447998 168 L 12 168 Z M 12 144.238007 L 88 56 L 96 56 L 12 153.440002 Z M 12 125.662003 L 72 56 L 80 56 L 12 134.880005 Z M 12 107.084991 L 56 56 L 64 56 L 12 116.320007 Z M 12 88.509003 L 40 56 L 48 56 L 12 97.76001 Z M 12 69.932999 L 24 56 L 32 56 L 12 79.199997 Z M 12 56 L 16 56 L 12 60.639999 Z M 244 52 L 120.728996 52 L 112 52 L 104.729004 52 L 104 52 L 102.166 52 L 96 52 L 88.729004 52 L 88 52 L 86.166 52 L 80 52 L 72.729004 52 L 72 52 L 70.166 52 L 64 52 L 56.729004 52 L 56 52 L 54.166 52 L 48 52 L 40.729004 52 L 40 52 L 38.166 52 L 32 52 L 24.729004 52 L 24 52 L 22.166 52 L 16 52 L 12 52 L 8 52 L 8 56 L 8 60.639999 L 8 68.446991 L 8 69.932999 L 8 71.406006 L 8 79.199997 L 8 87.02301 L 8 88.509003 L 8 89.966003 L 8 97.76001 L 8 105.600006 L 8 107.084991 L 8 108.526001 L 8 116.320007 L 8 124.177002 L 8 125.662003 L 8 127.085999 L 8 134.880005 L 8 142.752991 L 8 144.238007 L 8 145.645996 L 8 153.440002 L 8 161.330002 L 8 162.813995 L 8 164.205994 L 8 172 L 8 200 L 8 204 L 12 204 L 244 204 L 248 204 L 248 200 L 248 56 L 248 52 Z"/>
    <path id="path5" fill="#ffffff" stroke="none" d="M 58 152 C 56.896 152 56 152.895996 56 154 C 56 155.104004 56.896 156 58 156 C 59.104 156 60 155.104004 60 154 C 60 152.895996 59.104 152 58 152"/>
</svg>
