<?xml version="1.0" encoding="UTF-8"?>
<!-- Generated by Pixelmator Pro 3.7.1 -->
<svg width="256" height="256" viewBox="0 0 256 256" xmlns="http://www.w3.org/2000/svg">
    <path id="Path" fill="#ffffff" stroke="none" d="M 220 212 L 220 244 L 208 244 L 208 240 L 208 216 L 208 212 L 208 188 L 208 32 L 208 12 L 220 12 Z M 204 32 L 52 32 L 52 12 L 204 12 Z M 204 184 L 52 184 L 52 36 L 204 36 Z M 204 212 L 180 212 L 172 212 L 168 212 L 160 212 L 156 212 L 148 212 L 144 212 L 136 212 L 132 212 L 124 212 L 120 212 L 112 212 L 108 212 L 100 212 L 96 212 L 88 212 L 84 212 L 76 212 L 52 212 L 52 188 L 204 188 Z M 76 216 L 84 216 L 84 232 L 76 232 Z M 88 216 L 96 216 L 96 232 L 88 232 Z M 100 216 L 108 216 L 108 232 L 100 232 Z M 112 216 L 120 216 L 120 232 L 112 232 Z M 124 216 L 132 216 L 132 232 L 124 232 Z M 136 216 L 144 216 L 144 232 L 136 232 Z M 148 216 L 156 216 L 156 232 L 148 232 Z M 160 216 L 168 216 L 168 232 L 160 232 Z M 172 216 L 180 216 L 180 232 L 172 232 Z M 204 240 L 52 240 L 52 216 L 72 216 L 72 232 L 72 236 L 184 236 L 184 232 L 184 216 L 204 216 Z M 48 32 L 48 188 L 48 212 L 48 216 L 48 240 L 48 244 L 36 244 L 36 212 L 36 12 L 48 12 Z M 220 8 L 208 8 L 204 8 L 52 8 L 48 8 L 36 8 L 32 8 L 32 12 L 32 212 L 32 244 L 32 248 L 36 248 L 48 248 L 52 248 L 52 244 L 204 244 L 204 248 L 208 248 L 220 248 L 224 248 L 224 244 L 224 212 L 224 12 L 224 8 Z"/>
</svg>
