<?xml version="1.0" encoding="UTF-8"?>
<!-- Generated by Pixelmator Pro 3.7.1 -->
<svg width="256" height="256" viewBox="0 0 256 256" xmlns="http://www.w3.org/2000/svg">
    <path id="Path" fill="#ffffff" stroke="none" d="M 163.642593 112 C 163.870605 111.373001 163.999603 110.701996 163.999603 110 L 163.999603 98 C 163.999603 94.690994 161.248596 92 157.867599 92 L 98.133598 92 C 94.751602 92 91.999603 94.690994 91.999603 98 L 91.999603 110 C 91.999603 110.701996 92.1306 111.373001 92.357597 112 L 11.999595 112 L 11.999595 56 L 11.999595 52 L 11.999595 48 C 11.999595 45.791 13.790595 44 15.999595 44 L 35.999603 44 L 35.999603 52 L 39.999603 52 L 39.999603 44 L 43.999603 44 L 43.999603 52 L 47.999603 52 L 47.999603 44 L 51.999603 44 L 51.999603 52 L 55.999603 52 L 55.999603 44 L 59.999603 44 L 59.999603 52 L 63.999603 52 L 63.999603 44 L 67.999603 44 L 67.999603 52 L 71.999603 52 L 71.999603 44 L 75.999603 44 L 75.999603 52 L 79.999603 52 L 79.999603 44 L 83.999603 44 L 83.999603 52 L 87.999603 52 L 87.999603 44 L 91.999603 44 L 91.999603 52 L 95.999603 52 L 95.999603 44 L 99.999596 44 L 99.999596 52 L 103.999596 52 L 103.999596 44 L 107.999596 44 L 107.999596 52 L 111.999596 52 L 111.999596 44 L 115.999596 44 L 115.999596 52 L 119.999596 52 L 119.999596 44 L 123.999596 44 L 123.999596 52 L 127.999596 52 L 127.999596 44 L 131.999603 44 L 131.999603 52 L 135.999603 52 L 135.999603 44 L 139.999603 44 L 139.999603 52 L 143.999603 52 L 143.999603 44 L 147.999603 44 L 147.999603 52 L 151.999603 52 L 151.999603 44 L 155.999603 44 L 155.999603 52 L 159.999603 52 L 159.999603 44 L 163.999603 44 L 163.999603 52 L 167.999603 52 L 167.999603 44 L 171.999603 44 L 171.999603 52 L 175.999603 52 L 175.999603 44 L 179.999603 44 L 179.999603 52 L 183.999603 52 L 183.999603 44 L 187.999603 44 L 187.999603 52 L 191.999603 52 L 191.999603 44 L 195.999603 44 L 195.999603 52 L 199.999603 52 L 199.999603 44 L 203.999603 44 L 203.999603 52 L 207.999603 52 L 207.999603 44 L 211.999603 44 L 211.999603 52 L 215.999603 52 L 215.999603 44 L 239.999603 44 C 242.208603 44 243.999603 45.791 243.999603 48 L 243.999603 52 L 243.999603 56 L 243.999603 112 Z M 243.999603 188 L 11.999595 188 L 11.999595 156 L 243.999603 156 Z M 243.999603 208 C 243.999603 210.209 242.208603 212 239.999603 212 L 15.999595 212 C 13.790595 212 11.999595 210.209 11.999595 208 L 11.999595 204 L 243.999603 204 Z M 19.999594 200 L 11.999595 200 L 11.999595 192 L 19.999594 192 Z M 35.999603 200 L 23.999594 200 L 23.999594 192 L 35.999603 192 Z M 47.999603 200 L 39.999603 200 L 39.999603 192 L 47.999603 192 Z M 63.999603 200 L 51.999603 200 L 51.999603 192 L 63.999603 192 Z M 187.999603 200 L 67.999603 200 L 67.999603 192 L 187.999603 192 Z M 203.999603 200 L 191.999603 200 L 191.999603 192 L 203.999603 192 Z M 215.999603 200 L 207.999603 200 L 207.999603 192 L 215.999603 192 Z M 231.999603 200 L 219.999603 200 L 219.999603 192 L 231.999603 192 Z M 235.999603 192 L 243.999603 192 L 243.999603 200 L 235.999603 200 Z M 98.133598 116 L 157.867599 116 L 243.999603 116 L 243.999603 152 L 11.999595 152 L 11.999595 116 Z M 95.999603 110 L 95.999603 98 C 95.999603 96.895996 96.954597 96 98.133598 96 L 157.867599 96 C 159.044601 96 159.999603 96.895996 159.999603 98 L 159.999603 110 C 159.999603 111.104004 159.044601 112 157.867599 112 L 98.133598 112 C 96.954597 112 95.999603 111.104004 95.999603 110 M 239.999603 40 L 15.999595 40 C 11.588599 40 7.999595 43.588989 7.999595 48 L 7.999595 52 L 7.999595 56 L 7.999595 112 L 7.999595 116 L 7.999595 152 L 7.999595 156 L 7.999595 188 L 7.999595 192 L 7.999595 200 L 7.999595 204 L 7.999595 208 C 7.999595 212.411011 11.588599 216 15.999595 216 L 239.999603 216 C 244.411591 216 247.999603 212.411011 247.999603 208 L 247.999603 204 L 247.999603 200 L 247.999603 192 L 247.999603 188 L 247.999603 156 L 247.999603 152 L 247.999603 116 L 247.999603 112 L 247.999603 56 L 247.999603 52 L 247.999603 48 C 247.999603 43.588989 244.411591 40 239.999603 40"/>
</svg>
