<?xml version="1.0" encoding="UTF-8"?>
<!-- Generated by Pixelmator Pro 3.7.1 -->
<svg width="256" height="256" viewBox="0 0 256 256" xmlns="http://www.w3.org/2000/svg">
    <path id="Path" fill="#ffffff" stroke="none" d="M 236.183594 212 L 19.815603 212 C 17.641592 212 15.865607 210.266998 15.813605 208.096008 L 15.525596 196 L 240.474594 196 L 240.1866 208.096008 C 240.134598 210.266998 238.357605 212 236.183594 212 M 191.999603 112 L 211.999603 112 L 211.999603 128 L 191.999603 128 Z M 167.999603 112 L 187.999603 112 L 187.999603 128 L 167.999603 128 Z M 91.999596 80 L 163.999603 80 L 163.999603 108 L 91.999596 108 Z M 163.999603 128 L 91.999596 128 L 91.999596 112 L 163.999603 112 Z M 67.999596 112 L 87.999596 112 L 87.999596 128 L 67.999596 128 Z M 43.999596 112 L 63.999596 112 L 63.999596 128 L 43.999596 128 Z M 14.381598 148 L 241.618607 148 L 240.569595 192 L 15.430594 192 Z M 11.999595 144 L 14.3796 147.925003 L 14.191596 140 L 241.808594 140 L 241.620605 147.934998 L 241.666595 144 Z M 13.523597 112 L 39.999596 112 L 39.999596 128 L 13.905601 128 Z M 16.003607 44 L 39.999596 44 L 39.999596 56 L 43.999596 56 L 43.999596 44 L 47.999596 44 L 47.999596 56 L 51.999596 56 L 51.999596 44 L 55.999596 44 L 55.999596 56 L 59.999596 56 L 59.999596 44 L 63.999596 44 L 63.999596 56 L 67.999596 56 L 67.999596 44 L 71.999596 44 L 71.999596 56 L 75.999596 56 L 75.999596 44 L 79.999596 44 L 79.999596 56 L 83.999596 56 L 83.999596 44 L 87.999596 44 L 87.999596 56 L 91.999596 56 L 91.999596 44 L 95.999596 44 L 95.999596 56 L 99.999596 56 L 99.999596 44 L 103.999596 44 L 103.999596 56 L 107.999596 56 L 107.999596 44 L 111.999603 44 L 111.999603 56 L 115.999603 56 L 115.999603 44 L 119.999603 44 L 119.999603 56 L 123.999603 56 L 123.999603 44 L 127.999603 44 L 127.999603 56 L 131.999603 56 L 131.999603 44 L 135.999603 44 L 135.999603 56 L 139.999603 56 L 139.999603 44 L 143.999603 44 L 143.999603 56 L 147.999603 56 L 147.999603 44 L 151.999603 44 L 151.999603 56 L 155.999603 56 L 155.999603 44 L 159.999603 44 L 159.999603 56 L 163.999603 56 L 163.999603 44 L 167.999603 44 L 167.999603 56 L 171.999603 56 L 171.999603 44 L 175.999603 44 L 175.999603 56 L 179.999603 56 L 179.999603 44 L 183.999603 44 L 183.999603 56 L 187.999603 56 L 187.999603 44 L 191.999603 44 L 191.999603 56 L 195.999603 56 L 195.999603 44 L 199.999603 44 L 199.999603 56 L 203.999603 56 L 203.999603 44 L 207.999603 44 L 207.999603 56 L 211.999603 56 L 211.999603 44 L 239.996597 44 C 242.245605 44 244.052597 45.850006 243.998596 48.095001 L 241.904602 136 L 14.095603 136 L 14.000602 132 L 39.999596 132 L 43.999596 132 L 63.999596 132 L 67.999596 132 L 87.999596 132 L 91.999596 132 L 163.999603 132 L 167.999603 132 L 187.999603 132 L 191.999603 132 L 211.999603 132 L 215.999603 132 L 241.998596 132 L 242.094604 128 L 215.999603 128 L 215.999603 112 L 242.475601 112 L 242.571594 108 L 215.999603 108 L 211.999603 108 L 191.999603 108 L 187.999603 108 L 167.999603 108 L 167.999603 80 L 167.999603 76 L 163.999603 76 L 91.999596 76 L 87.999596 76 L 87.999596 80 L 87.999596 108 L 67.999596 108 L 63.999596 108 L 43.999596 108 L 39.999596 108 L 13.428596 108 L 12.000602 48.095001 C 11.947608 45.850006 13.7546 44 16.003607 44 M 245.723602 42.412003 C 244.204605 40.856003 242.170593 40 239.996597 40 L 16.003607 40 C 13.829597 40 11.794593 40.856003 10.275596 42.412003 C 8.758597 43.966995 7.950598 46.018997 8.002601 48.190002 L 11.814597 208.190002 C 11.919593 212.569 15.4336 216 19.815603 216 L 236.183594 216 C 240.566605 216 244.080597 212.569 244.185593 208.190002 L 247.997604 48.190002 C 248.049606 46.018997 247.242599 43.966995 245.723602 42.412003"/>
    <path id="path1" fill="#ffffff" stroke="none" d="M 152 92 L 144 92 L 144 96 L 152 96 L 152 100 L 104 100 L 104 96 L 112 96 L 112 92 L 104 92 L 104 88 L 152 88 Z M 154 84 L 102 84 C 100.895996 84 100 84.895996 100 86 L 100 102 C 100 103.104004 100.895996 104 102 104 L 154 104 C 155.104004 104 156 103.104004 156 102 L 156 86 C 156 84.895996 155.104004 84 154 84"/>
</svg>
