<?xml version="1.0" encoding="UTF-8"?>
<!-- Generated by Pixelmator Pro 3.7.1 -->
<svg width="256" height="256" viewBox="0 0 256 256" xmlns="http://www.w3.org/2000/svg">
    <path id="Path" fill="#ffffff" stroke="none" d="M 224 244 L 32 244 L 32 16.832993 C 32 14.160995 34.149994 12 36.800003 12 L 219.199997 12 C 221.854004 12 224 14.160995 224 16.832993 Z M 219.199997 8 L 36.800003 8 C 31.947998 8 28 11.962006 28 16.832993 L 28 244 L 28 248 L 32 248 L 224 248 L 228 248 L 228 244 L 228 16.832993 C 228 11.962006 224.052994 8 219.199997 8"/>
    <path id="path1" fill="#ffffff" stroke="none" d="M 186 188.75 C 186 192.753998 182.753998 196 178.75 196 L 77.25 196 C 73.246002 196 70 192.753998 70 188.75 L 70 80 L 186 80 Z M 70 76 L 66 76 L 66 80 L 66 188.75 C 66 194.953003 71.046997 200 77.25 200 L 178.75 200 C 184.953003 200 190 194.953003 190 188.75 L 190 80 L 190 76 L 186 76 Z"/>
    <path id="path2" fill="#ffffff" stroke="none" d="M 208 228 L 48 228 L 48 33.263 C 48 30.352997 50.384003 28 53.332993 28 L 158.343002 28 L 161.171997 30.828995 L 205.171997 74.828995 L 208 77.656998 Z M 202.666992 28 C 205.615997 28 208 30.352997 208 33.263 L 208 72 L 164 28 Z M 203 24 L 202.666992 24 L 164 24 L 154.343002 24 L 53.332993 24 C 48.186996 24 44 28.154999 44 33.263 L 44 228 L 44 232 L 48 232 L 208 232 L 212 232 L 212 228 L 212 81.656998 L 212 72 L 212 33.263 L 212 33 C 212 28.037003 207.962997 24 203 24"/>
</svg>
