<?xml version="1.0" encoding="UTF-8"?>
<!-- Generated by Pixelmator Pro 3.7.1 -->
<svg width="256" height="256" viewBox="0 0 256 256" xmlns="http://www.w3.org/2000/svg">
    <path id="Path" fill="#ffffff" stroke="none" d="M 244 238.727509 C 244 241.642502 241.643997 243.999496 238.727997 243.999496 L 224 243.999496 L 224 161.867493 C 224 156.425507 219.445007 151.999512 213.846008 151.999512 L 66.154007 151.999512 C 60.554993 151.999512 56 156.425507 56 161.867493 L 56 243.999496 L 33.091003 243.999496 L 12 217.636505 L 12 17.272491 C 12 14.356491 14.356995 11.999496 17.272003 11.999496 L 36 11.999496 L 36 123.999496 C 36 129.308502 38.690994 131.999512 44 131.999512 L 212 131.999512 C 217.309006 131.999512 220 129.308502 220 123.999496 L 220 11.999496 L 238.727997 11.999496 C 241.643997 11.999496 244 14.356491 244 17.272491 Z M 190 243.999496 L 190 171.272491 C 190 164.951508 185.927002 159.999512 180.727997 159.999512 L 75.272003 159.999512 C 70.072998 159.999512 66 164.951508 66 171.272491 L 66 243.999496 L 60 243.999496 L 60 161.867493 C 60 158.622498 62.751007 155.999512 66.154007 155.999512 L 213.846008 155.999512 C 217.248993 155.999512 220 158.622498 220 161.867493 L 220 243.999496 Z M 70 243.999496 L 70 171.272491 C 70 167.250504 72.356995 163.999512 75.272003 163.999512 L 180.727997 163.999512 C 183.643997 163.999512 186 167.250504 186 171.272491 L 186 243.999496 Z M 216 11.999496 L 216 123.999496 C 216 127.207504 214.927994 127.999496 212 127.999496 L 44 127.999496 C 41.072006 127.999496 40 127.207504 40 123.999496 L 40 11.999496 Z M 238.727997 7.999496 L 220 7.999496 L 216 7.999496 L 40 7.999496 L 36 7.999496 L 17.272003 7.999496 C 12.160004 7.999496 8 12.1595 8 17.272491 L 8 217.636505 L 8 219.039505 L 8.876007 220.134491 L 29.968002 246.498505 L 31.167999 247.999496 L 33.091003 247.999496 L 56 247.999496 L 60 247.999496 L 66 247.999496 L 70 247.999496 L 186 247.999496 L 190 247.999496 L 220 247.999496 L 224 247.999496 L 238.727997 247.999496 C 243.839996 247.999496 248 243.839508 248 238.727509 L 248 17.272491 C 248 12.1595 243.839996 7.999496 238.727997 7.999496"/>
    <path id="path1" fill="#ffffff" stroke="none" d="M 236 44 L 228 44 L 228 36 L 236 36 Z M 228 32 L 224 32 L 224 36 L 224 44 L 224 48 L 228 48 L 236 48 L 240 48 L 240 44 L 240 36 L 240 32 L 236 32 Z"/>
    <path id="path2" fill="#ffffff" stroke="none" d="M 84.544998 175.272003 L 113.454002 175.272003 L 113.454002 232.727005 L 84.544998 232.727005 Z M 80.544998 236.727997 L 117.454002 236.727997 L 117.454002 171.27301 L 80.544998 171.27301 Z"/>
    <path id="path3" fill="#ffffff" stroke="none" d="M 66.701202 76.147003 L 87.362198 56.660995 C 87.829201 56.220001 88.4422 56 89.054199 56 C 89.666199 56 90.279198 56.220001 90.746201 56.660995 C 91.681198 57.542999 91.681198 58.970993 90.746201 59.852997 L 70.085197 79.339005 C 69.618202 79.779007 69.005203 80 68.393204 80 C 67.781197 80 67.168198 79.779007 66.701202 79.339005 C 65.766197 78.457001 65.766197 77.029007 66.701202 76.147003 M 68.393204 84 C 70.056198 84 71.632202 83.378006 72.829201 82.248993 L 93.491203 62.763 C 94.7342 61.589996 95.447197 59.947998 95.447197 58.257004 C 95.447197 56.565994 94.7342 54.923996 93.491203 53.751007 C 92.293198 52.621994 90.718201 52 89.054199 52 C 87.390198 52 85.815201 52.621994 84.618202 53.751007 L 63.9562 73.237 C 62.7132 74.410004 62.000198 76.052002 62.000198 77.742996 C 62.000198 79.434006 62.7132 81.076004 63.9562 82.248993 C 65.154198 83.378006 66.729202 84 68.393204 84"/>
    <path id="path4" fill="#ffffff" stroke="none" d="M 91.339798 76.147003 L 112.000801 56.660995 C 112.467804 56.220001 113.080803 56 113.692802 56 C 114.304802 56 114.917801 56.220001 115.384804 56.660995 C 116.319801 57.542999 116.319801 58.970993 115.384804 59.852997 L 94.723801 79.339005 C 94.256798 79.779007 93.643799 80 93.031799 80 C 92.4198 80 91.806801 79.779007 91.339798 79.339005 C 90.4048 78.457001 90.4048 77.029007 91.339798 76.147003 M 86.638802 77.742996 C 86.638802 79.434006 87.351799 81.076004 88.594803 82.248993 C 89.792801 83.378006 91.367798 84 93.031799 84 C 94.694801 84 96.270798 83.378006 97.467796 82.248993 L 118.129799 62.763 C 119.372803 61.589996 120.0858 59.947998 120.0858 58.257004 C 120.0858 56.565994 119.372803 54.923996 118.129799 53.751007 C 116.931801 52.621994 115.356804 52 113.692802 52 C 112.028801 52 110.453804 52.621994 109.256798 53.751007 L 88.594803 73.237 C 87.351799 74.410004 86.638802 76.052002 86.638802 77.742996"/>
    <path id="path5" fill="#ffffff" stroke="none" d="M 115.9785 76.147003 L 136.637497 56.660995 C 137.104492 56.220001 137.716507 56 138.329498 56 C 138.941498 56 139.553497 56.220001 140.0215 56.660995 C 140.956497 57.542999 140.956497 58.970993 140.0215 59.852997 L 119.362503 79.339005 C 118.8955 79.779007 118.282501 80 117.670502 80 C 117.058502 80 116.445503 79.779007 115.9785 79.339005 C 115.043503 78.457001 115.043503 77.029007 115.9785 76.147003 M 111.277496 77.742996 C 111.277496 79.434006 111.990501 81.076004 113.233498 82.248993 C 114.431503 83.378006 116.0065 84 117.670502 84 C 119.333504 84 120.9095 83.378006 122.106499 82.248993 L 142.765503 62.763 C 144.009506 61.589996 144.722504 59.947998 144.722504 58.257004 C 144.722504 56.565994 144.009506 54.923996 142.765503 53.751007 C 141.568497 52.621994 139.9935 52 138.329498 52 C 136.665497 52 135.089493 52.621994 133.892502 53.751007 L 113.233498 73.237 C 111.990501 74.410004 111.277496 76.052002 111.277496 77.742996"/>
    <path id="path6" fill="#ffffff" stroke="none" d="M 140.617203 76.147003 L 161.276199 56.660995 C 161.744202 56.220001 162.355194 56 162.968201 56 C 163.5802 56 164.1922 56.220001 164.660202 56.660995 C 165.5952 57.542999 165.5952 58.970993 164.660202 59.852997 L 144.001205 79.339005 C 143.534195 79.779007 142.922195 80 142.309204 80 C 141.697205 80 141.085205 79.779007 140.617203 79.339005 C 139.682205 78.457001 139.682205 77.029007 140.617203 76.147003 M 135.916199 77.742996 C 135.916199 79.434006 136.629196 81.076004 137.873199 82.248993 C 139.070206 83.378006 140.645203 84 142.309204 84 C 143.972198 84 145.549194 83.378006 146.746201 82.248993 L 167.404205 62.763 C 168.648193 61.589996 169.361206 59.947998 169.361206 58.257004 C 169.361206 56.565994 168.648193 54.923996 167.404205 53.751007 C 166.207199 52.621994 164.632202 52 162.968201 52 C 161.304199 52 159.729202 52.621994 158.531204 53.751007 L 137.873199 73.237 C 136.629196 74.410004 135.916199 76.052002 135.916199 77.742996"/>
    <path id="path7" fill="#ffffff" stroke="none" d="M 165.255905 76.147003 L 185.914902 56.660995 C 186.382904 56.220001 186.994904 56 187.607895 56 C 188.218903 56 188.831894 56.220001 189.298904 56.660995 C 190.233902 57.542999 190.233902 58.970993 189.298904 59.852997 L 168.639893 79.339005 C 168.172897 79.779007 167.560898 80 166.947906 80 C 166.335907 80 165.723907 79.779007 165.255905 79.339005 C 164.320908 78.457001 164.320908 77.029007 165.255905 76.147003 M 160.554901 77.742996 C 160.554901 79.434006 161.268906 81.076004 162.511902 82.248993 C 163.708893 83.378006 165.283905 84 166.947906 84 C 168.610901 84 170.187897 83.378006 171.384903 82.248993 L 192.0439 62.763 C 193.286896 61.589996 193.999893 59.947998 193.999893 58.257004 C 193.999893 56.565994 193.286896 54.923996 192.0439 53.751007 C 190.845901 52.621994 189.270905 52 187.607895 52 C 185.942902 52 184.367905 52.621994 183.169907 53.751007 L 162.511902 73.237 C 161.268906 74.410004 160.554901 76.052002 160.554901 77.742996"/>
</svg>
