<?xml version="1.0" encoding="UTF-8"?>
<!-- Generated by Pixelmator Pro 3.7.1 -->
<svg width="256" height="256" viewBox="0 0 256 256" xmlns="http://www.w3.org/2000/svg">
    <path id="Path" fill="#ffffff" stroke="none" d="M 100 132 L 156 132 L 156 128 L 100 128 Z"/>
    <path id="path1" fill="#ffffff" stroke="none" d="M 52 158.666992 C 40.954002 158.666992 32 149.712006 32 138.666992 C 32 127.621002 40.954002 118.667007 52 118.667007 C 63.045998 118.667007 72 127.621002 72 138.666992 C 72 149.712006 63.045998 158.666992 52 158.666992 M 52 114.667007 C 38.766998 114.667007 28 125.432999 28 138.666992 C 28 151.899994 38.766998 162.666992 52 162.666992 C 65.233002 162.666992 76 151.899994 76 138.666992 C 76 125.432999 65.233002 114.667007 52 114.667007"/>
    <path id="path2" fill="#ffffff" stroke="none" d="M 52 146.666992 C 47.589001 146.666992 44 143.078003 44 138.666992 C 44 134.255997 47.589001 130.666992 52 130.666992 C 56.410999 130.666992 60 134.255997 60 138.666992 C 60 143.078003 56.410999 146.666992 52 146.666992 M 52 126.667007 C 45.382999 126.667007 40 132.050003 40 138.666992 C 40 145.28299 45.382999 150.666992 52 150.666992 C 58.617001 150.666992 64 145.28299 64 138.666992 C 64 132.050003 58.617001 126.667007 52 126.667007"/>
    <path id="path3" fill="#ffffff" stroke="none" d="M 98 156 C 96.896004 156 96 155.104004 96 154 C 96 152.895996 96.896004 152 98 152 C 99.103996 152 100 152.895996 100 154 C 100 155.104004 99.103996 156 98 156 M 112 156 L 104 156 L 104 148 L 112 148 Z M 116 148 L 120 148 L 120 156 L 116 156 Z M 236 176 L 168 176 L 164 172 L 128 172 L 92 172 L 88 176 L 20 176 L 16 172 L 88 172 L 91.848999 172 L 91.997002 168.153 L 92.454002 156.281998 C 93.354004 158.462006 95.5 160 98 160 C 98.702003 160 99.373001 159.873001 100 159.649994 L 100 160 L 104 160 L 112 160 L 116 160 L 120 160 L 124 160 L 124 156 L 124 148 L 124 144 L 120 144 L 116 144 L 112 144 L 104 144 L 100 144 L 100 148 L 100 148.350006 C 99.373001 148.126999 98.702003 148 98 148 C 95.660004 148 93.634003 149.350006 92.644997 151.30899 L 95.695 72 L 160.304993 72 L 164.002991 168.153 L 164.149994 172 L 168 172 L 240 172 Z M 212 188 L 44 188 L 49.333 180 L 88 180 L 89.656998 180 L 90.829002 178.828003 L 93.656998 176 L 128 176 L 162.343002 176 L 165.171997 178.828003 L 166.343002 180 L 168 180 L 206.666992 180 Z M 16 100 L 27.543999 65.367996 C 27.816002 64.550995 28.581001 64 29.441002 64 L 92 64 L 88 168 L 12 168 Z M 226.559006 64 C 227.419006 64 228.184006 64.550995 228.455994 65.367996 L 240 100 L 244 168 L 168 168 L 164 64 Z M 248.242004 172 L 247.992996 167.764999 L 243.992996 99.764999 L 243.962006 99.237 L 243.794998 98.735001 L 232.251007 64.102997 C 231.432999 61.649002 229.145996 60 226.559006 60 L 164 60 L 159.843002 60 L 160.002991 64.153992 L 160.151001 68 L 95.848999 68 L 95.997002 64.153992 L 96.156998 60 L 92 60 L 29.441002 60 C 26.855003 60 24.567001 61.649002 23.75 64.102997 L 12.205002 98.735001 L 12.038002 99.237 L 12.007004 99.764999 L 8.007004 167.764999 L 7.758003 172 L 10.343002 172 L 17.170998 178.828003 L 18.343002 180 L 20 180 L 44.526001 180 L 40.672001 185.781006 L 36.526001 192 L 44 192 L 212 192 L 219.473999 192 L 215.328003 185.781006 L 211.473999 180 L 236 180 L 237.656998 180 L 238.828003 178.828003 L 245.656998 172 Z"/>
    <path id="path4" fill="#ffffff" stroke="none" d="M 204 118.666504 C 215.046005 118.666504 224 127.621506 224 138.666504 C 224 149.711502 215.046005 158.666504 204 158.666504 C 192.953995 158.666504 184 149.711502 184 138.666504 C 184 127.621506 192.953995 118.666504 204 118.666504 M 204 162.666504 C 217.233002 162.666504 228 151.900497 228 138.666504 C 228 125.433502 217.233002 114.666504 204 114.666504 C 190.766998 114.666504 180 125.433502 180 138.666504 C 180 151.900497 190.766998 162.666504 204 162.666504"/>
    <path id="path5" fill="#ffffff" stroke="none" d="M 204 130.666992 C 208.410995 130.666992 212 134.255997 212 138.666992 C 212 143.078003 208.410995 146.666992 204 146.666992 C 199.589005 146.666992 196 143.078003 196 138.666992 C 196 134.255997 199.589005 130.666992 204 130.666992 M 204 150.666992 C 210.617004 150.666992 216 145.28299 216 138.666992 C 216 132.050003 210.617004 126.667007 204 126.667007 C 197.382996 126.667007 192 132.050003 192 138.666992 C 192 145.28299 197.382996 150.666992 204 150.666992"/>
    <path id="path6" fill="#ffffff" stroke="none" d="M 104 84 L 152 84 L 152 88 L 104 88 Z M 100 92 L 156 92 L 156 80 L 100 80 Z"/>
    <path id="path7" fill="#ffffff" stroke="none" d="M 100 100 L 156 100 L 156 96 L 100 96 Z"/>
    <path id="path8" fill="#ffffff" stroke="none" d="M 100 108 L 156 108 L 156 104 L 100 104 Z"/>
    <path id="path9" fill="#ffffff" stroke="none" d="M 100 124 L 156 124 L 156 120 L 100 120 Z"/>
    <path id="path10" fill="#ffffff" stroke="none" d="M 136 116 L 156 116 L 156 112 L 136 112 Z"/>
    <path id="path11" fill="#ffffff" stroke="none" d="M 120 112 L 100 112 L 100 116 L 120 116 Z"/>
    <path id="path12" fill="#ffffff" stroke="none" d="M 150 156 C 148.895996 156 148 155.104004 148 154 C 148 152.895996 148.895996 152 150 152 C 151.104004 152 152 152.895996 152 154 C 152 155.104004 151.104004 156 150 156 M 150 148 C 146.690994 148 144 150.69101 144 154 C 144 157.30899 146.690994 160 150 160 C 153.309006 160 156 157.30899 156 154 C 156 150.69101 153.309006 148 150 148"/>
</svg>
