<?xml version="1.0" encoding="UTF-8"?>
<!-- Generated by Pixelmator Pro 3.7.1 -->
<svg width="256" height="256" viewBox="0 0 256 256" xmlns="http://www.w3.org/2000/svg">
    <path id="Path" fill="#ffffff" stroke="none" d="M 244 96 L 12 96 L 12 28 L 244 28 Z M 244 124 L 240 124 L 240 100 L 244 100 Z M 244 168 L 12 168 L 12 128 L 244 128 Z M 244 228 L 12 228 L 12 172 L 244 172 Z M 24 124 L 20 124 L 20 100 L 24 100 Z M 32 124 L 28 124 L 28 100 L 32 100 Z M 40 124 L 36 124 L 36 100 L 40 100 Z M 48 124 L 44 124 L 44 100 L 48 100 Z M 56 124 L 52 124 L 52 100 L 56 100 Z M 64 124 L 60 124 L 60 100 L 64 100 Z M 72 124 L 68 124 L 68 100 L 72 100 Z M 80 124 L 76 124 L 76 100 L 80 100 Z M 88 124 L 84 124 L 84 100 L 88 100 Z M 164 124 L 92 124 L 92 100 L 164 100 Z M 172 124 L 168 124 L 168 100 L 172 100 Z M 180 124 L 176 124 L 176 100 L 180 100 Z M 188 124 L 184 124 L 184 100 L 188 100 Z M 196 124 L 192 124 L 192 100 L 196 100 Z M 204 124 L 200 124 L 200 100 L 204 100 Z M 212 124 L 208 124 L 208 100 L 212 100 Z M 220 124 L 216 124 L 216 100 L 220 100 Z M 228 124 L 224 124 L 224 100 L 228 100 Z M 236 124 L 232 124 L 232 100 L 236 100 Z M 12 100 L 16 100 L 16 124 L 12 124 Z M 244 24 L 12 24 L 8 24 L 8 28 L 8 228 L 8 232 L 12 232 L 244 232 L 248 232 L 248 228 L 248 28 L 248 24 Z"/>
    <path id="path1" fill="#ffffff" stroke="none" d="M 84 200 L 80 200 L 80 208 L 84 208 Z"/>
    <path id="path2" fill="#ffffff" stroke="none" d="M 92 200 L 88 200 L 88 208 L 92 208 Z"/>
    <path id="path3" fill="#ffffff" stroke="none" d="M 68 200 L 64 200 L 64 208 L 68 208 Z"/>
    <path id="path4" fill="#ffffff" stroke="none" d="M 76 200 L 72 200 L 72 208 L 76 208 Z"/>
    <path id="path5" fill="#ffffff" stroke="none" d="M 100 200 L 96 200 L 96 208 L 100 208 Z"/>
    <path id="path6" fill="#ffffff" stroke="none" d="M 124 200 L 120 200 L 120 208 L 124 208 Z"/>
    <path id="path7" fill="#ffffff" stroke="none" d="M 108 200 L 104 200 L 104 208 L 108 208 Z"/>
    <path id="path8" fill="#ffffff" stroke="none" d="M 116 200 L 112 200 L 112 208 L 116 208 Z"/>
    <path id="path9" fill="#ffffff" stroke="none" d="M 28 200 L 24 200 L 24 208 L 28 208 Z"/>
    <path id="path10" fill="#ffffff" stroke="none" d="M 36 200 L 32 200 L 32 208 L 36 208 Z"/>
    <path id="path11" fill="#ffffff" stroke="none" d="M 20 200 L 16 200 L 16 208 L 20 208 Z"/>
    <path id="path12" fill="#ffffff" stroke="none" d="M 52 200 L 48 200 L 48 208 L 52 208 Z"/>
    <path id="path13" fill="#ffffff" stroke="none" d="M 232 208 L 236 208 L 236 200 L 232 200 Z"/>
    <path id="path14" fill="#ffffff" stroke="none" d="M 44 200 L 40 200 L 40 208 L 44 208 Z"/>
    <path id="path15" fill="#ffffff" stroke="none" d="M 60 200 L 56 200 L 56 208 L 60 208 Z"/>
    <path id="path16" fill="#ffffff" stroke="none" d="M 204 200 L 200 200 L 200 208 L 204 208 Z"/>
    <path id="path17" fill="#ffffff" stroke="none" d="M 196 200 L 192 200 L 192 208 L 196 208 Z"/>
    <path id="path18" fill="#ffffff" stroke="none" d="M 212 200 L 208 200 L 208 208 L 212 208 Z"/>
    <path id="path19" fill="#ffffff" stroke="none" d="M 224 208 L 228 208 L 228 200 L 224 200 Z"/>
    <path id="path20" fill="#ffffff" stroke="none" d="M 188 200 L 184 200 L 184 208 L 188 208 Z"/>
    <path id="path21" fill="#ffffff" stroke="none" d="M 216 208 L 220 208 L 220 200 L 216 200 Z"/>
    <path id="path22" fill="#ffffff" stroke="none" d="M 156 200 L 152 200 L 152 208 L 156 208 Z"/>
    <path id="path23" fill="#ffffff" stroke="none" d="M 148 200 L 144 200 L 144 208 L 148 208 Z"/>
    <path id="path24" fill="#ffffff" stroke="none" d="M 180 200 L 176 200 L 176 208 L 180 208 Z"/>
    <path id="path25" fill="#ffffff" stroke="none" d="M 140 200 L 136 200 L 136 208 L 140 208 Z"/>
    <path id="path26" fill="#ffffff" stroke="none" d="M 132 200 L 128 200 L 128 208 L 132 208 Z"/>
    <path id="path27" fill="#ffffff" stroke="none" d="M 172 200 L 168 200 L 168 208 L 172 208 Z"/>
    <path id="path28" fill="#ffffff" stroke="none" d="M 164 200 L 160 200 L 160 208 L 164 208 Z"/>
    <path id="path29" fill="#ffffff" stroke="none" d="M 216 180 L 236 180 L 236 192 L 216 192 Z M 236 196 L 240 196 L 240 192 L 240 180 L 240 176 L 236 176 L 216 176 L 212 176 L 212 180 L 212 192 L 212 196 L 216 196 Z"/>
    <path id="path30" fill="#ffffff" stroke="none" d="M 100 109 C 100 108.447998 100.447998 108 101 108 L 155 108 C 155.553009 108 156 108.447998 156 109 L 156 115 C 156 115.552002 155.553009 116 155 116 L 101 116 C 100.447998 116 100 115.552002 100 115 Z M 101 120 L 155 120 C 157.757004 120 160 117.757004 160 115 L 160 109 C 160 106.242996 157.757004 104 155 104 L 101 104 C 98.242996 104 96 106.242996 96 109 L 96 115 C 96 117.757004 98.242996 120 101 120"/>
</svg>
