<?xml version="1.0" encoding="UTF-8"?>
<!-- Generated by Pixelmator Pro 3.7.1 -->
<svg width="256" height="256" viewBox="0 0 256 256" xmlns="http://www.w3.org/2000/svg">
    <path id="Path" fill="#ffffff" stroke="none" d="M 48 112 C 43.582001 112 40 108.417999 40 104 C 40 99.582001 43.582001 96 48 96 C 52.417999 96 56 99.582001 56 104 C 56 108.417999 52.417999 112 48 112 M 60 104 C 60 97.382996 54.617001 92 48 92 C 41.382999 92 36 97.382996 36 104 C 36 110.617004 41.382999 116 48 116 C 54.617001 116 60 110.617004 60 104"/>
    <path id="path1" fill="#ffffff" stroke="none" d="M 80 112 C 75.582001 112 72 108.417999 72 104 C 72 99.582001 75.582001 96 80 96 C 84.417999 96 88 99.582001 88 104 C 88 108.417999 84.417999 112 80 112 M 92 104 C 92 97.382996 86.616997 92 80 92 C 73.383003 92 68 97.382996 68 104 C 68 110.617004 73.383003 116 80 116 C 86.616997 116 92 110.617004 92 104"/>
    <path id="path2" fill="#ffffff" stroke="none" d="M 152 112 C 147.582001 112 144 108.417999 144 104 C 144 99.582001 147.582001 96 152 96 C 156.417999 96 160 99.582001 160 104 C 160 108.417999 156.417999 112 152 112 M 164 104 C 164 97.382996 158.617004 92 152 92 C 145.382996 92 140 97.382996 140 104 C 140 110.617004 145.382996 116 152 116 C 158.617004 116 164 110.617004 164 104"/>
    <path id="path3" fill="#ffffff" stroke="none" d="M 176 112 C 171.582001 112 168 108.417999 168 104 C 168 99.582001 171.582001 96 176 96 C 180.417999 96 184 99.582001 184 104 C 184 108.417999 180.417999 112 176 112 M 188 104 C 188 97.382996 182.617004 92 176 92 C 169.382996 92 164 97.382996 164 104 C 164 110.617004 169.382996 116 176 116 C 182.617004 116 188 110.617004 188 104"/>
    <path id="path4" fill="#ffffff" stroke="none" d="M 208 112 C 203.582001 112 200 108.417999 200 104 C 200 99.582001 203.582001 96 208 96 C 212.417999 96 216 99.582001 216 104 C 216 108.417999 212.417999 112 208 112 M 220 104 C 220 97.382996 214.617004 92 208 92 C 201.382996 92 196 97.382996 196 104 C 196 110.617004 201.382996 116 208 116 C 214.617004 116 220 110.617004 220 104"/>
    <path id="path5" fill="#ffffff" stroke="none" d="M 244 200 L 12 200 L 12 56 L 41.009995 56 C 40.160995 57.136993 39.822006 58.593002 40.108002 60 L 20 60 L 16 60 L 16 66.472 L 16 196 L 240 196 L 240 66.472 L 240 60 L 236 60 L 215.891998 60 C 216.177994 58.593002 215.839005 57.136993 214.990005 56 L 244 56 Z M 44.369995 58.218994 L 46.824005 56.218994 C 46.998001 56.076996 47.214005 56 47.436996 56 L 56.563004 56 C 56.785995 56 57.001999 56.076996 57.175995 56.218994 L 59.630005 58.218994 C 60.354004 58.809998 59.944 60 59.016998 60 L 44.983002 60 C 44.056 60 43.645996 58.809998 44.369995 58.218994 M 193.009995 56 C 192.160995 57.136993 191.821991 58.593002 192.108002 60 L 63.891998 60 C 64.177994 58.593002 63.839005 57.136993 62.990005 56 Z M 228 68 L 28 68 L 20 64 L 44.983002 64 L 59.016998 64 L 196.983002 64 L 211.016998 64 L 236 64 Z M 224 84 L 32 84 L 32 72 L 224 72 Z M 31.207993 88 L 224.791 88 L 231.014008 116 L 208 116 L 176 116 L 152 116 L 80 116 L 48 116 L 24.985992 116 Z M 20 124 L 20 120 L 20 68.472 L 26.210999 71.578003 L 27.056 72 L 28 72 L 28 84 L 20 120 L 236 120 L 228 84 L 228 72 L 228.944 72 L 229.789001 71.578003 L 236 68.472 L 236 120 L 236 124 Z M 20 128 L 236 128 L 236 132 L 20 132 Z M 20 136 L 236 136 L 236 140 L 20 140 Z M 20 144 L 236 144 L 236 148 L 20 148 Z M 20 152 L 236 152 L 236 156 L 20 156 Z M 20 160 L 236 160 L 236 164 L 20 164 Z M 20 168 L 236 168 L 236 172 L 20 172 Z M 236 192 L 20 192 L 20 184 L 236 184 Z M 20 176 L 236 176 L 236 180 L 20 180 Z M 196.369995 58.218994 L 198.824005 56.218994 C 198.998001 56.076996 199.214005 56 199.436996 56 L 208.561996 56 C 208.785995 56 209.001999 56.076996 209.175995 56.218994 L 211.630005 58.218994 C 212.354004 58.809998 211.944 60 211.016998 60 L 196.983002 60 C 196.056 60 195.645996 58.809998 196.369995 58.218994 M 244 52 L 208.561996 52 L 199.436996 52 L 56.563004 52 L 47.436996 52 L 12 52 L 8 52 L 8 56 L 8 200 L 8 204 L 12 204 L 244 204 L 248 204 L 248 200 L 248 56 L 248 52 Z"/>
</svg>
