<?xml version="1.0" encoding="UTF-8"?>
<!-- Generated by Pixelmator Pro 3.7.1 -->
<svg width="256" height="256" viewBox="0 0 256 256" xmlns="http://www.w3.org/2000/svg">
    <path id="Path" fill="#ffffff" stroke="none" d="M 244 239.538101 C 244 242.003098 242.003006 244.000107 239.537994 244.000107 L 16.460999 244.000107 C 13.998001 244.000107 12 242.003098 12 239.538101 L 12 16.461105 C 12 13.997101 13.998001 12.000107 16.460999 12.000107 L 239.537994 12.000107 C 242.003006 12.000107 244 13.997101 244 16.461105 Z M 239.537994 8.000107 L 16.460999 8.000107 C 11.796005 8.000107 8 11.796097 8 16.461105 L 8 239.538101 C 8 244.204102 11.796005 248.000107 16.460999 248.000107 L 239.537994 248.000107 C 244.203995 248.000107 248 244.204102 248 239.538101 L 248 16.461105 C 248 11.796097 244.203995 8.000107 239.537994 8.000107"/>
    <path id="path1" fill="#ffffff" stroke="none" d="M 22 240 L 26 240 L 26 212 L 22 212 Z"/>
    <path id="path2" fill="#ffffff" stroke="none" d="M 30 240 L 34 240 L 34 212 L 30 212 Z"/>
    <path id="path3" fill="#ffffff" stroke="none" d="M 38 236 L 42 236 L 42 212 L 38 212 Z"/>
    <path id="path4" fill="#ffffff" stroke="none" d="M 46 236 L 50 236 L 50 212 L 46 212 Z"/>
    <path id="path5" fill="#ffffff" stroke="none" d="M 54 236 L 58 236 L 58 212 L 54 212 Z"/>
    <path id="path6" fill="#ffffff" stroke="none" d="M 62 236 L 66 236 L 66 212 L 62 212 Z"/>
    <path id="path7" fill="#ffffff" stroke="none" d="M 70 236 L 74 236 L 74 212 L 70 212 Z"/>
    <path id="path8" fill="#ffffff" stroke="none" d="M 78 236 L 82 236 L 82 212 L 78 212 Z"/>
    <path id="path9" fill="#ffffff" stroke="none" d="M 86 236 L 90 236 L 90 212 L 86 212 Z"/>
    <path id="path10" fill="#ffffff" stroke="none" d="M 94 236 L 98 236 L 98 212 L 94 212 Z"/>
    <path id="path11" fill="#ffffff" stroke="none" d="M 102 236 L 106 236 L 106 212 L 102 212 Z"/>
    <path id="path12" fill="#ffffff" stroke="none" d="M 110 236 L 114 236 L 114 212 L 110 212 Z"/>
    <path id="path13" fill="#ffffff" stroke="none" d="M 118 236 L 122 236 L 122 212 L 118 212 Z"/>
    <path id="path14" fill="#ffffff" stroke="none" d="M 126 236 L 130 236 L 130 212 L 126 212 Z"/>
    <path id="path15" fill="#ffffff" stroke="none" d="M 134 236 L 138 236 L 138 212 L 134 212 Z"/>
    <path id="path16" fill="#ffffff" stroke="none" d="M 142 236 L 146 236 L 146 212 L 142 212 Z"/>
    <path id="path17" fill="#ffffff" stroke="none" d="M 150 236 L 154 236 L 154 212 L 150 212 Z"/>
    <path id="path18" fill="#ffffff" stroke="none" d="M 158 236 L 162 236 L 162 212 L 158 212 Z"/>
    <path id="path19" fill="#ffffff" stroke="none" d="M 166 236 L 170 236 L 170 212 L 166 212 Z"/>
    <path id="path20" fill="#ffffff" stroke="none" d="M 174 236 L 178 236 L 178 212 L 174 212 Z"/>
    <path id="path21" fill="#ffffff" stroke="none" d="M 182 236 L 186 236 L 186 212 L 182 212 Z"/>
    <path id="path22" fill="#ffffff" stroke="none" d="M 190 236 L 194 236 L 194 212 L 190 212 Z"/>
    <path id="path23" fill="#ffffff" stroke="none" d="M 198 236 L 202 236 L 202 212 L 198 212 Z"/>
    <path id="path24" fill="#ffffff" stroke="none" d="M 206 236 L 210 236 L 210 212 L 206 212 Z"/>
    <path id="path25" fill="#ffffff" stroke="none" d="M 214 236 L 218 236 L 218 212 L 214 212 Z"/>
    <path id="path26" fill="#ffffff" stroke="none" d="M 222 236 L 226 236 L 226 212 L 222 212 Z"/>
    <path id="path27" fill="#ffffff" stroke="none" d="M 230 240 L 234 240 L 234 212 L 230 212 Z"/>
    <path id="path28" fill="#ffffff" stroke="none" d="M 232 108 L 24 108 L 24 68 L 232 68 Z M 232 200 L 24 200 L 24 112 L 232 112 Z M 24 64 L 20 64 L 20 68 L 20 108 L 20 112 L 20 200 L 20 204 L 24 204 L 232 204 L 236 204 L 236 200 L 236 112 L 236 108 L 236 68 L 236 64 L 232 64 Z"/>
</svg>
