<?xml version="1.0" encoding="UTF-8"?>
<!-- Generated by Pixelmator Pro 3.7.1 -->
<svg width="256" height="256" viewBox="0 0 256 256" xmlns="http://www.w3.org/2000/svg">
    <path id="Path" fill="#ffffff" stroke="none" d="M 244 53 C 244 55.764999 244 58 239.166992 58 C 237.880997 58 158.003998 63.496002 128 63.496002 C 97.996002 63.496002 18.119003 58 16.832993 58 C 12 58 12 55.764999 12 53 L 12 33 C 12 30.235001 12 28 16.832993 28 C 31.332993 28 94.167007 33 128 33 C 161.833008 33 224.666992 28 239.166992 28 C 244 28 244 30.235001 244 33 Z M 200.889999 64.248001 C 202.613998 64.141006 204.317001 64.035004 205.992004 63.931 C 216.233002 63.294006 225.335999 62.727997 232 62.399994 L 232 64.248001 Z M 24 64.248001 L 24 62.399994 C 30.664001 62.727997 39.766998 63.294006 50.007996 63.931 C 51.682999 64.035004 53.386002 64.141006 55.110001 64.248001 Z M 239.166992 73 L 239.166992 223 C 239.166992 225.764999 237.005997 228 234.333008 228 L 21.667007 228 C 18.994003 228 16.832993 225.764999 16.832993 223 L 16.832993 73 C 16.832993 70.753998 18.268997 68.880005 20.235992 68.248001 L 235.764008 68.248001 C 237.731003 68.880005 239.166992 70.753998 239.166992 73 M 239.166992 24 C 233.311996 24 220.294006 24.766006 203.813004 25.735001 C 179.093994 27.190002 148.330002 29 128 29 C 107.669998 29 76.906006 27.190002 52.186996 25.735001 C 35.705994 24.766006 22.688004 24 16.832993 24 C 8 24 8 30.539001 8 33 L 8 53 C 8 55.460999 8 62 16.832993 62 C 17.087006 62 17.363007 62.001999 17.667007 62.005997 L 17.667007 64.977005 C 14.800995 66.466003 12.832993 69.503006 12.832993 73 L 12.832993 223 C 12.832993 227.962997 16.796005 232 21.667007 232 L 234.333008 232 C 239.203995 232 243.167007 227.962997 243.167007 223 L 243.167007 73 C 243.167007 69.503006 241.199005 66.466003 238.333008 64.977005 L 238.333008 62.005997 C 238.636993 62.001999 238.912994 62 239.166992 62 C 248 62 248 55.460999 248 53 L 248 33 C 248 30.539001 248 24 239.166992 24"/>
    <path id="path1" fill="#ffffff" stroke="none" d="M 24 208 L 232 208 L 232 204 L 24 204 Z"/>
    <path id="path2" fill="#ffffff" stroke="none" d="M 24 200 L 232 200 L 232 196 L 24 196 Z"/>
    <path id="path3" fill="#ffffff" stroke="none" d="M 24 192 L 232 192 L 232 188 L 24 188 Z"/>
    <path id="path4" fill="#ffffff" stroke="none" d="M 228 166.25 C 228 169.429993 225.647003 172 222.737 172 L 33.263 172 C 30.352997 172 28 169.429993 28 166.25 L 28 85.75 C 28 82.570007 30.352997 80 33.263 80 L 222.737 80 C 225.647003 80 228 82.570007 228 85.75 Z M 222.737 76 L 33.263 76 C 28.154999 76 24 80.373993 24 85.75 L 24 166.25 C 24 171.626007 28.154999 176 33.263 176 L 222.737 176 C 227.845001 176 232 171.626007 232 166.25 L 232 85.75 C 232 80.373993 227.845001 76 222.737 76"/>
</svg>
