<?xml version="1.0" encoding="UTF-8"?>
<!-- Generated by Pixelmator Pro 3.7.1 -->
<svg width="256" height="256" viewBox="0 0 256 256" xmlns="http://www.w3.org/2000/svg">
    <path id="Path" fill="#ffffff" stroke="none" d="M 220 84 L 32 84 L 32 68 L 220 68 Z M 220 92 L 216 92 L 216 100 L 216 104 L 216 112 L 220 112 L 220 120 L 32 120 L 32 112 L 36 112 L 36 104 L 36 100 L 36 92 L 32 92 L 32 88 L 220 88 Z M 212.395996 184 L 214.423004 148 L 218.25 148 L 216 184 Z M 43.611 184 L 41.583 148 L 210.417007 148 L 208.389008 184 Z M 36 184 L 33.75 148 L 37.577 148 L 39.604 184 Z M 32.25 124 L 219.75 124 L 218.5 144 L 214.647995 144 L 210.641998 144 L 41.358002 144 L 37.352001 144 L 33.5 144 Z M 220 64 L 32 64 L 28 64 L 28 68 L 28 92 L 28 96 L 32 96 L 32 100 L 28 100 L 28 104 L 32 104 L 32 108 L 28 108 L 28 112 L 28 120 L 28 120.125 L 28.007999 120.25 L 32.007999 184.25 L 32.242001 188 L 36 188 L 39.830002 188 L 212.169998 188 L 216 188 L 219.757996 188 L 219.992004 184.25 L 223.992004 120.25 L 224 120.125 L 224 120 L 224 112 L 224 108 L 220 108 L 220 104 L 224 104 L 224 100 L 220 100 L 220 96 L 224 96 L 224 92 L 224 68 L 224 64 Z"/>
    <path id="path1" fill="#ffffff" stroke="none" d="M 48 104 L 64 104 L 64 112 L 48 112 Z M 48 96 L 64 96 L 64 100 L 48 100 Z M 72 108 L 88 108 L 88 112 L 72 112 Z M 72 96 L 88 96 L 88 104 L 72 104 Z M 96 98 C 96 96.895996 96.896004 96 98 96 L 154 96 C 155.104004 96 156 96.895996 156 98 L 156 110 C 156 111.104004 155.104004 112 154 112 L 98 112 C 96.896004 112 96 111.104004 96 110 Z M 164 108 L 180 108 L 180 112 L 164 112 Z M 164 96 L 180 96 L 180 104 L 164 104 Z M 188 104 L 204 104 L 204 112 L 188 112 Z M 188 96 L 204 96 L 204 100 L 188 100 Z M 64 116 L 68 116 L 72 116 L 88 116 L 92 116 L 92 112 L 92 110 C 92 113.309006 94.691002 116 98 116 L 154 116 C 157.309006 116 160 113.309006 160 110 L 160 112 L 160 116 L 164 116 L 180 116 L 184 116 L 188 116 L 204 116 L 208 116 L 208 112 L 208 96 L 208 92 L 204 92 L 188 92 L 184 92 L 180 92 L 164 92 L 160 92 L 160 96 L 160 98 C 160 94.690994 157.309006 92 154 92 L 98 92 C 94.691002 92 92 94.690994 92 98 L 92 96 L 92 92 L 88 92 L 72 92 L 68 92 L 64 92 L 48 92 L 44 92 L 44 96 L 44 112 L 44 116 L 48 116 Z"/>
    <path id="path2" fill="#ffffff" stroke="none" d="M 108 104 L 100 104 L 100 108 L 108 108 Z"/>
    <path id="path3" fill="#ffffff" stroke="none" d="M 152 104 L 144 104 L 144 108 L 152 108 Z"/>
</svg>
