<?xml version="1.0" encoding="UTF-8"?>
<!-- Generated by Pixelmator Pro 3.7.1 -->
<svg width="256" height="256" viewBox="0 0 256 256" xmlns="http://www.w3.org/2000/svg">
    <path id="Path" fill="#ffffff" stroke="none" d="M 239 40 L 17 40 C 12.037994 40 8 44.037994 8 49 L 8 207 C 8 211.962997 12.037994 216 17 216 L 239 216 C 243.962997 216 248 211.962997 248 207 L 248 49 C 248 44.037994 243.962997 40 239 40 M 239 44 C 241.761993 44 244 46.238998 244 49 L 244 207 C 244 209.761993 241.761993 212 239 212 L 17 212 C 14.238998 212 12 209.761993 12 207 L 12 49 C 12 46.238998 14.238998 44 17 44 L 239 44"/>
    <path id="path1" fill="#ffffff" stroke="none" d="M 240 104 L 16 104 L 16 148 L 240 148 Z M 236 144 L 20 144 L 20 108 L 236 108 Z"/>
    <path id="path2" fill="#ffffff" stroke="none" d="M 248 180 L 244 180 L 12 180 L 8 180 L 8 184 L 8 200 L 8 204 L 12 204 L 244 204 L 248 204 L 248 200 L 248 184 Z M 244 200 L 12 200 L 12 184 L 244 184 Z"/>
    <path id="path3" fill="#ffffff" stroke="none" d="M 63.292999 186 L 44.707001 186 C 42.112 186 40 188.110992 40 190.707001 L 40 193.292999 C 40 195.889008 42.112 198 44.707001 198 L 63.292999 198 C 65.888 198 68 195.889008 68 193.292999 L 68 190.707001 C 68 188.110992 65.888 186 63.292999 186 M 63.292999 190 C 63.683998 190 64 190.31601 64 190.707001 L 64 193.292999 C 64 193.68399 63.683998 194 63.292999 194 L 44.707001 194 C 44.316002 194 44 193.68399 44 193.292999 L 44 190.707001 C 44 190.31601 44.316002 190 44.707001 190 L 63.292999 190"/>
    <path id="path4" fill="#ffffff" stroke="none" d="M 215.292999 186 L 196.707001 186 C 194.111008 186 192 188.110992 192 190.707001 L 192 193.292999 C 192 195.889008 194.111008 198 196.707001 198 L 215.292999 198 C 217.889008 198 220 195.889008 220 193.292999 L 220 190.707001 C 220 188.110992 217.889008 186 215.292999 186 M 215.292999 190 C 215.684006 190 216 190.31601 216 190.707001 L 216 193.292999 C 216 193.68399 215.684006 194 215.292999 194 L 196.707001 194 C 196.315994 194 196 193.68399 196 193.292999 L 196 190.707001 C 196 190.31601 196.315994 190 196.707001 190 L 215.292999 190"/>
</svg>
