<?xml version="1.0" encoding="UTF-8"?>
<!-- Generated by Pixelmator Pro 3.7.1 -->
<svg width="256" height="256" viewBox="0 0 256 256" xmlns="http://www.w3.org/2000/svg">
    <path id="Path" fill="#ffffff" stroke="none" d="M 244 175.595703 C 244 182.435699 238.436005 187.999695 231.595993 187.999695 L 24.404999 187.999695 C 17.563995 187.999695 12 182.435699 12 175.595703 L 12 80.404694 C 12 73.564697 17.563995 67.999695 24.404999 67.999695 L 231.595993 67.999695 C 238.436005 67.999695 244 73.564697 244 80.404694 Z M 231.595993 63.999695 L 24.404999 63.999695 C 15.358994 63.999695 8 71.359695 8 80.404694 L 8 175.595703 C 8 184.640701 15.358994 191.999695 24.404999 191.999695 L 231.595993 191.999695 C 240.641006 191.999695 248 184.640701 248 175.595703 L 248 80.404694 C 248 71.359695 240.641006 63.999695 231.595993 63.999695"/>
    <path id="path1" fill="#ffffff" stroke="none" d="M 172 172 L 84 172 L 84 84 L 172 84 Z M 172 80 L 84 80 C 81.791 80 80 81.791 80 84 L 80 172 C 80 174.209 81.791 176 84 176 L 172 176 C 174.209 176 176 174.209 176 172 L 176 84 C 176 81.791 174.209 80 172 80"/>
    <path id="path2" fill="#ffffff" stroke="none" d="M 136 152 L 164 152 L 164 164 L 136 164 Z M 133.800003 168 L 166.199997 168 C 167.194 168 168 167.104004 168 166 L 168 150 C 168 148.895996 167.194 148 166.199997 148 L 133.800003 148 C 132.806 148 132 148.895996 132 150 L 132 166 C 132 167.104004 132.806 168 133.800003 168"/>
    <path id="path3" fill="#ffffff" stroke="none" d="M 92 152 L 120 152 L 120 164 L 92 164 Z M 89.897003 168 L 122.102997 168 C 123.150002 168 124 167.149994 124 166.102997 L 124 149.897003 C 124 148.850006 123.150002 148 122.102997 148 L 89.897003 148 C 88.849998 148 88 148.850006 88 149.897003 L 88 166.102997 C 88 167.149994 88.849998 168 89.897003 168"/>
    <path id="path4" fill="#ffffff" stroke="none" d="M 104 140 L 92 140 L 92 132 L 104 132 Z M 92 120 L 104 120 L 104 128 L 92 128 Z M 92 108 L 104 108 L 104 116 L 92 116 Z M 92 96 L 104 96 L 104 104 L 92 104 Z M 108 96 L 120 96 L 120 104 L 108 104 Z M 120 116 L 108 116 L 108 108 L 120 108 Z M 120 128 L 108 128 L 108 120 L 120 120 Z M 120 140 L 108 140 L 108 132 L 120 132 Z M 104 144 L 108 144 L 120 144 L 124 144 L 124 140 L 124 132 L 124 128 L 124 120 L 124 116 L 124 108 L 124 104 L 124 96 L 124 92 L 120 92 L 108 92 L 104 92 L 92 92 L 88 92 L 88 96 L 88 104 L 88 108 L 88 116 L 88 120 L 88 128 L 88 132 L 88 140 L 88 144 L 92 144 Z"/>
    <path id="path5" fill="#ffffff" stroke="none" d="M 148 140 L 136 140 L 136 132 L 148 132 Z M 136 120 L 148 120 L 148 128 L 136 128 Z M 136 108 L 148 108 L 148 116 L 136 116 Z M 136 96 L 148 96 L 148 104 L 136 104 Z M 152 96 L 164 96 L 164 104 L 152 104 Z M 164 116 L 152 116 L 152 108 L 164 108 Z M 164 128 L 152 128 L 152 120 L 164 120 Z M 164 140 L 152 140 L 152 132 L 164 132 Z M 148 144 L 152 144 L 164 144 L 168 144 L 168 140 L 168 132 L 168 128 L 168 120 L 168 116 L 168 108 L 168 104 L 168 96 L 168 92 L 164 92 L 152 92 L 148 92 L 136 92 L 132 92 L 132 96 L 132 104 L 132 108 L 132 116 L 132 120 L 132 128 L 132 132 L 132 140 L 132 144 L 136 144 Z"/>
    <path id="path6" fill="#ffffff" stroke="none" d="M 40 128 L 48 128 L 48 168 L 40 168 Z M 36 172 L 52 172 L 52 124 L 36 124 Z"/>
    <path id="path7" fill="#ffffff" stroke="none" d="M 44 80 C 52.821999 80 60 87.177994 60 96 C 60 104.822006 52.821999 112 44 112 C 35.178001 112 28 104.822006 28 96 C 28 87.177994 35.178001 80 44 80 M 24 96 C 24 107.046005 32.954002 116 44 116 C 55.045998 116 64 107.046005 64 96 C 64 84.953995 55.045998 76 44 76 C 32.954002 76 24 84.953995 24 96"/>
    <path id="path8" fill="#ffffff" stroke="none" d="M 44 88 C 48.410999 88 52 91.589005 52 96 C 52 100.410995 48.410999 104 44 104 C 39.589001 104 36 100.410995 36 96 C 36 91.589005 39.589001 88 44 88 M 44 108 C 50.626999 108 56 102.626999 56 96 C 56 89.373001 50.626999 84 44 84 C 37.373001 84 32 89.373001 32 96 C 32 102.626999 37.373001 108 44 108"/>
    <path id="path9" fill="#ffffff" stroke="none" d="M 231.155304 120 C 227.219299 120 224.000305 123.220001 224.000305 127.154999 L 224.000305 168.845001 C 224.000305 172.779999 227.219299 176 231.155304 176 L 235.959305 176 C 235.751297 178.235992 233.8853 180 231.595306 180 L 192.000305 180 C 189.794296 180 188.000305 178.205994 188.000305 176 L 192.844299 176 C 196.780304 176 200.000305 172.779999 200.000305 168.845001 L 200.000305 127.154999 C 200.000305 123.220001 196.780304 120 192.844299 120 L 188.000305 120 L 188.000305 80 C 188.000305 77.794006 189.794296 76 192.000305 76 L 212.000305 76 L 231.595306 76 C 234.024307 76 236.000305 77.975998 236.000305 80.404999 L 236.000305 120 Z M 236.000305 172 L 231.155304 172 C 229.416306 172 228.000305 170.584 228.000305 168.845001 L 228.000305 127.154999 C 228.000305 125.416 229.416306 124 231.155304 124 L 236.000305 124 Z M 24.4053 180 C 22.1143 180 20.249294 178.235992 20.041302 176 L 24.844296 176 C 28.7803 176 32.000301 172.779999 32.000301 168.845001 L 32.000301 127.154999 C 32.000301 123.220001 28.7803 120 24.844296 120 L 20.000301 120 L 20.000301 80.404999 C 20.000301 77.975998 21.976299 76 24.4053 76 L 44.000301 76 L 64.000298 76 C 66.205299 76 68.000298 77.794006 68.000298 80 L 68.000298 120 L 63.1553 120 C 59.219296 120 56.000301 123.220001 56.000301 127.154999 L 56.000301 168.845001 C 56.000301 172.779999 59.219296 176 63.1553 176 L 68.000298 176 C 68.000298 178.205994 66.205299 180 64.000298 180 Z M 20.000301 124 L 24.844296 124 C 26.584301 124 28.000301 125.416 28.000301 127.154999 L 28.000301 168.845001 C 28.000301 170.584 26.584301 172 24.844296 172 L 20.000301 172 Z M 68.000298 172 L 63.1553 172 C 61.415295 172 60.000301 170.584 60.000301 168.845001 L 60.000301 127.154999 C 60.000301 125.416 61.415295 124 63.1553 124 L 68.000298 124 Z M 184.000305 120 L 184.000305 176 C 184.000305 177.455994 184.400299 178.820007 185.088303 180 L 70.9123 180 C 71.599297 178.820007 72.000298 177.455994 72.000298 176 L 72.000298 120 L 72.000298 80 C 72.000298 78.544006 71.599297 77.179993 70.9123 76 L 185.088303 76 C 184.400299 77.179993 184.000305 78.544006 184.000305 80 Z M 188.000305 124 L 192.844299 124 C 194.584305 124 196.000305 125.416 196.000305 127.154999 L 196.000305 168.845001 C 196.000305 170.584 194.584305 172 192.844299 172 L 188.000305 172 Z M 232.000305 72 L 231.595306 72 L 192.000305 72 L 64.000298 72 L 24.4053 72 L 24.000301 72 C 19.600307 72 16.000301 75.600006 16.000301 80 L 16.000301 80.404999 L 16.000301 120 L 16.000301 175.596008 L 16.000301 176 C 16.000301 180.399994 19.600307 184 24.000301 184 L 24.4053 184 L 64.000298 184 L 192.000305 184 L 231.595306 184 L 232.000305 184 C 236.400299 184 240.000305 180.399994 240.000305 176 L 240.000305 175.596008 L 240.000305 120 L 240.000305 80.404999 L 240.000305 80 C 240.000305 75.600006 236.400299 72 232.000305 72"/>
    <path id="path10" fill="#ffffff" stroke="none" d="M 208 128 L 216 128 L 216 168 L 208 168 Z M 204 172 L 220 172 L 220 124 L 204 124 Z"/>
    <path id="path11" fill="#ffffff" stroke="none" d="M 212 80 C 220.822006 80 228 87.177994 228 96 C 228 104.822006 220.822006 112 212 112 C 203.177994 112 196 104.822006 196 96 C 196 87.177994 203.177994 80 212 80 M 192 96 C 192 107.046005 200.953995 116 212 116 C 223.046005 116 232 107.046005 232 96 C 232 84.953995 223.046005 76 212 76 C 200.953995 76 192 84.953995 192 96"/>
    <path id="path12" fill="#ffffff" stroke="none" d="M 212 88 C 216.410995 88 220 91.589005 220 96 C 220 100.410995 216.410995 104 212 104 C 207.589005 104 204 100.410995 204 96 C 204 91.589005 207.589005 88 212 88 M 212 108 C 218.626999 108 224 102.626999 224 96 C 224 89.373001 218.626999 84 212 84 C 205.373001 84 200 89.373001 200 96 C 200 102.626999 205.373001 108 212 108"/>
</svg>
