<?xml version="1.0" encoding="UTF-8"?>
<!-- Generated by Pixelmator Pro 3.7.1 -->
<svg width="256" height="256" viewBox="0 0 256 256" xmlns="http://www.w3.org/2000/svg">
    <path id="Path" fill="#ffffff" stroke="none" d="M 228 12 L 224 12 L 32 12 L 28 12 L 28 16 L 28 244 L 28 248 L 32 248 L 224 248 L 228 248 L 228 244 L 228 16 Z M 224 244 L 32 244 L 32 16 L 224 16 Z"/>
    <path id="path1" fill="#ffffff" stroke="none" d="M 200.051804 24 L 55.947796 24 C 53.767803 24 51.999798 25.768005 51.999798 27.947998 L 51.999798 172.052002 C 51.999798 174.231995 53.767803 176 55.947796 176 L 200.051804 176 C 202.232803 176 203.999802 174.231995 203.999802 172.052002 L 203.999802 27.947998 C 203.999802 25.768005 202.232803 24 200.051804 24 M 199.999802 172 L 55.999798 172 L 55.999798 28 L 199.999802 28 Z M 199.999802 28"/>
    <path id="path2" fill="#ffffff" stroke="none" d="M 44 184 L 40 184 L 40 16 L 44 16 Z"/>
    <path id="path3" fill="#ffffff" stroke="none" d="M 216 184 L 212 184 L 212 16 L 216 16 Z"/>
    <path id="path4" fill="#ffffff" stroke="none" d="M 48 216 L 44 216 L 44 184 L 48 184 Z"/>
    <path id="path5" fill="#ffffff" stroke="none" d="M 56 216 L 52 216 L 52 184 L 56 184 Z"/>
    <path id="path6" fill="#ffffff" stroke="none" d="M 64 216 L 60 216 L 60 184 L 64 184 Z"/>
    <path id="path7" fill="#ffffff" stroke="none" d="M 72 216 L 68 216 L 68 184 L 72 184 Z"/>
    <path id="path8" fill="#ffffff" stroke="none" d="M 80 216 L 76 216 L 76 184 L 80 184 Z"/>
    <path id="path9" fill="#ffffff" stroke="none" d="M 88 216 L 84 216 L 84 184 L 88 184 Z"/>
    <path id="path10" fill="#ffffff" stroke="none" d="M 96 216 L 92 216 L 92 184 L 96 184 Z"/>
    <path id="path11" fill="#ffffff" stroke="none" d="M 104 216 L 100 216 L 100 184 L 104 184 Z"/>
    <path id="path12" fill="#ffffff" stroke="none" d="M 112 216 L 108 216 L 108 184 L 112 184 Z"/>
    <path id="path13" fill="#ffffff" stroke="none" d="M 120 216 L 116 216 L 116 184 L 120 184 Z"/>
    <path id="path14" fill="#ffffff" stroke="none" d="M 128 216 L 124 216 L 124 184 L 128 184 Z"/>
    <path id="path15" fill="#ffffff" stroke="none" d="M 136 216 L 132 216 L 132 184 L 136 184 Z"/>
    <path id="path16" fill="#ffffff" stroke="none" d="M 144 216 L 140 216 L 140 184 L 144 184 Z"/>
    <path id="path17" fill="#ffffff" stroke="none" d="M 152 216 L 148 216 L 148 184 L 152 184 Z"/>
    <path id="path18" fill="#ffffff" stroke="none" d="M 160 216 L 156 216 L 156 184 L 160 184 Z"/>
    <path id="path19" fill="#ffffff" stroke="none" d="M 168 216 L 164 216 L 164 184 L 168 184 Z"/>
    <path id="path20" fill="#ffffff" stroke="none" d="M 176 216 L 172 216 L 172 184 L 176 184 Z"/>
    <path id="path21" fill="#ffffff" stroke="none" d="M 184 216 L 180 216 L 180 184 L 184 184 Z"/>
    <path id="path22" fill="#ffffff" stroke="none" d="M 192 216 L 188 216 L 188 184 L 192 184 Z"/>
    <path id="path23" fill="#ffffff" stroke="none" d="M 200 216 L 196 216 L 196 184 L 200 184 Z"/>
    <path id="path24" fill="#ffffff" stroke="none" d="M 208 216 L 204 216 L 204 184 L 208 184 Z"/>
    <path id="path25" fill="#ffffff" stroke="none" d="M 52 240 L 48 240 L 48 216 L 52 216 Z"/>
    <path id="path26" fill="#ffffff" stroke="none" d="M 60 240 L 56 240 L 56 216 L 60 216 Z"/>
    <path id="path27" fill="#ffffff" stroke="none" d="M 68 240 L 64 240 L 64 216 L 68 216 Z"/>
    <path id="path28" fill="#ffffff" stroke="none" d="M 76 240 L 72 240 L 72 216 L 76 216 Z"/>
    <path id="path29" fill="#ffffff" stroke="none" d="M 84 240 L 80 240 L 80 216 L 84 216 Z"/>
    <path id="path30" fill="#ffffff" stroke="none" d="M 92 240 L 88 240 L 88 216 L 92 216 Z"/>
    <path id="path31" fill="#ffffff" stroke="none" d="M 100 240 L 96 240 L 96 216 L 100 216 Z"/>
    <path id="path32" fill="#ffffff" stroke="none" d="M 108 240 L 104 240 L 104 216 L 108 216 Z"/>
    <path id="path33" fill="#ffffff" stroke="none" d="M 116 240 L 112 240 L 112 216 L 116 216 Z"/>
    <path id="path34" fill="#ffffff" stroke="none" d="M 124 240 L 120 240 L 120 216 L 124 216 Z"/>
    <path id="path35" fill="#ffffff" stroke="none" d="M 132 240 L 128 240 L 128 216 L 132 216 Z"/>
    <path id="path36" fill="#ffffff" stroke="none" d="M 140 240 L 136 240 L 136 216 L 140 216 Z"/>
    <path id="path37" fill="#ffffff" stroke="none" d="M 148 240 L 144 240 L 144 216 L 148 216 Z"/>
    <path id="path38" fill="#ffffff" stroke="none" d="M 156 240 L 152 240 L 152 216 L 156 216 Z"/>
    <path id="path39" fill="#ffffff" stroke="none" d="M 164 240 L 160 240 L 160 216 L 164 216 Z"/>
    <path id="path40" fill="#ffffff" stroke="none" d="M 172 240 L 168 240 L 168 216 L 172 216 Z"/>
    <path id="path41" fill="#ffffff" stroke="none" d="M 180 240 L 176 240 L 176 216 L 180 216 Z"/>
    <path id="path42" fill="#ffffff" stroke="none" d="M 188 240 L 184 240 L 184 216 L 188 216 Z"/>
    <path id="path43" fill="#ffffff" stroke="none" d="M 196 240 L 192 240 L 192 216 L 196 216 Z"/>
    <path id="path44" fill="#ffffff" stroke="none" d="M 204 240 L 200 240 L 200 216 L 204 216 Z"/>
    <path id="path45" fill="#ffffff" stroke="none" d="M 212 240 L 208 240 L 208 216 L 212 216 Z"/>
</svg>
