<?xml version="1.0" encoding="UTF-8"?>
<!-- Generated by Pixelmator Pro 3.7.1 -->
<svg width="256" height="256" viewBox="0 0 256 256" xmlns="http://www.w3.org/2000/svg">
    <path id="Path" fill="#ffffff" stroke="none" d="M 244 228 L 236 236 L 20 236 L 12 228 L 12 224 L 32 224 L 32 216 L 12 216 L 12 212 L 32 212 L 32 204 L 12 204 L 12 200 L 32 200 L 32 192 L 12 192 L 12 188 L 32 188 L 32 180 L 12 180 L 12 176 L 32 176 L 32 168 L 12 168 L 12 164 L 32 164 L 32 156 L 12 156 L 12 152 L 32 152 L 32 144 L 12 144 L 12 140 L 32 140 L 32 132 L 12 132 L 12 128 L 32 128 L 32 120 L 12 120 L 12 116 L 32 116 L 32 108 L 12 108 L 12 104 L 32 104 L 32 96 L 12 96 L 12 92 L 32 92 L 32 84 L 12 84 L 12 80 L 32 80 L 32 72 L 12 72 L 12 68 L 32 68 L 32 60 L 12 60 L 12 56 L 32 56 L 32 48 L 12 48 L 12 44 L 32 44 L 32 36 L 12 36 L 12 28 L 20 20 L 236 20 L 244 27.990005 L 244 36 L 224 36 L 224 44 L 244 44 L 244 48 L 224 48 L 224 56 L 244 56 L 244 60 L 224 60 L 224 68 L 244 68 L 244 72 L 224 72 L 224 80 L 244 80 L 244 84 L 224 84 L 224 92 L 244 92 L 244 96 L 224 96 L 224 104 L 244 104 L 244 108 L 224 108 L 224 116 L 244 116 L 244 120 L 224 120 L 224 128 L 244 128 L 244 132 L 224 132 L 224 140 L 244 140 L 244 144 L 224 144 L 224 152 L 244 152 L 244 156 L 224 156 L 224 164 L 244 164 L 244 168 L 224 168 L 224 176 L 244 176 L 244 180 L 224 180 L 224 188 L 244 188 L 244 192 L 224 192 L 224 200 L 244 200 L 244 204 L 224 204 L 224 212 L 244 212 L 244 216 L 224 216 L 224 224 L 244 224 Z M 246.826004 25.160004 L 238.826004 17.169998 L 237.654999 16 L 236 16 L 20 16 L 18.343002 16 L 17.171005 17.171005 L 9.171005 25.171005 L 8 26.343002 L 8 28 L 8 36 L 8 40 L 8 44 L 8 48 L 8 52 L 8 56 L 8 60 L 8 64 L 8 68 L 8 72 L 8 76 L 8 80 L 8 84 L 8 88 L 8 92 L 8 96 L 8 100 L 8 104 L 8 108 L 8 112 L 8 116 L 8 120 L 8 124 L 8 128 L 8 132 L 8 136 L 8 140 L 8 144 L 8 148 L 8 152 L 8 156 L 8 160 L 8 164 L 8 168 L 8 172 L 8 176 L 8 180 L 8 184 L 8 188 L 8 192 L 8 196 L 8 200 L 8 204 L 8 208 L 8 212 L 8 216 L 8 220 L 8 224 L 8 228 L 8 229.656998 L 9.171005 230.828003 L 17.171005 238.828003 L 18.343002 240 L 20 240 L 236 240 L 237.656998 240 L 238.828003 238.828003 L 246.828003 230.828003 L 248 229.656998 L 248 228 L 248 224 L 248 220 L 248 216 L 248 212 L 248 208 L 248 204 L 248 200 L 248 196 L 248 192 L 248 188 L 248 184 L 248 180 L 248 176 L 248 172 L 248 168 L 248 164 L 248 160 L 248 156 L 248 152 L 248 148 L 248 144 L 248 140 L 248 136 L 248 132 L 248 128 L 248 124 L 248 120 L 248 116 L 248 112 L 248 108 L 248 104 L 248 100 L 248 96 L 248 92 L 248 88 L 248 84 L 248 80 L 248 76 L 248 72 L 248 68 L 248 64 L 248 60 L 248 56 L 248 52 L 248 48 L 248 44 L 248 40 L 248 36 L 248 27.990005 L 248 26.332001 Z"/>
    <path id="path1" fill="#ffffff" stroke="none" d="M 40 64 L 40 44 C 40 41.791 41.791 40 44 40 L 212 40 C 214.209 40 216 41.791 216 44 L 216 64 Z M 216 168 C 216 170.209 214.209 172 212 172 L 44 172 C 41.791 172 40 170.209 40 168 L 40 92 L 68 92 L 68 156 L 68 160 L 72 160 L 184 160 L 188 160 L 188 156 L 188 92 L 216 92 Z M 72 88 L 68 88 L 40 88 L 40 68 L 216 68 L 216 88 L 188 88 L 184 88 Z M 72 92 L 184 92 L 184 156 L 72 156 Z M 212 36 L 44 36 C 39.589001 36 36 39.589005 36 44 L 36 64 L 36 68 L 36 88 L 36 92 L 36 168 C 36 172.411011 39.589001 176 44 176 L 212 176 C 216.410995 176 220 172.411011 220 168 L 220 92 L 220 88 L 220 68 L 220 64 L 220 44 C 220 39.589005 216.410995 36 212 36"/>
</svg>
