<?xml version="1.0" encoding="UTF-8"?>
<!-- Generated by Pixelmator Pro 3.7.1 -->
<svg width="256" height="256" viewBox="0 0 256 256" xmlns="http://www.w3.org/2000/svg">
    <path id="Path" fill="#ffffff" stroke="none" d="M 127.9888 80 C 154.455795 80 175.9888 101.533005 175.9888 128 C 175.9888 154.46701 154.455795 176 127.9888 176 C 101.521797 176 79.9888 154.46701 79.9888 128 C 79.9888 101.533005 101.521797 80 127.9888 80 M 127.9888 180 C 156.707794 180 179.9888 156.718994 179.9888 128 C 179.9888 99.281006 156.707794 76 127.9888 76 C 99.269798 76 75.9888 99.281006 75.9888 128 C 75.9888 156.718994 99.269798 180 127.9888 180"/>
    <path id="path1" fill="#ffffff" stroke="none" d="M 176.088898 60 L 80.088898 60 L 80.088898 42.488998 C 84.380898 40.613998 98.012901 36 128.088898 36 C 147.7789 36 160.279907 38.001007 167.300903 39.681 C 171.618896 40.712997 174.445908 41.753006 176.088898 42.462006 Z M 180.088898 40 C 180.088898 40 168.088898 32 128.088898 32 C 88.088898 32 75.831894 40.039001 76.088898 40.110001 L 76.088898 64 L 180.088898 64 Z"/>
    <path id="path2" fill="#ffffff" stroke="none" d="M 56 27.844193 C 54.639 28.375198 53.305 28.921204 52 29.481201 L 52 83.672195 L 56 83.672195 Z"/>
    <path id="path3" fill="#ffffff" stroke="none" d="M 48 31.285202 C 46.630001 31.934204 45.296001 32.600204 44 33.282196 L 44 83.672195 L 48 83.672195 Z"/>
    <path id="path4" fill="#ffffff" stroke="none" d="M 40 35.503906 C 38.612999 36.320908 37.282001 37.158905 36 38.014893 L 36 83.671906 L 40 83.671906 Z"/>
    <path id="path5" fill="#ffffff" stroke="none" d="M 64 24.997604 C 62.645 25.4366 61.311001 25.889603 60 26.354599 L 60 83.672592 L 64 83.672592 Z"/>
    <path id="path6" fill="#ffffff" stroke="none" d="M 200 83.672394 L 204 83.672394 L 204 29.4814 C 202.695007 28.921402 201.360992 28.375397 200 27.844406 Z"/>
    <path id="path7" fill="#ffffff" stroke="none" d="M 208 83.672394 L 212 83.672394 L 212 33.282394 C 210.703995 32.600403 209.369995 31.934402 208 31.2854 Z"/>
    <path id="path8" fill="#ffffff" stroke="none" d="M 192 83.672394 L 196 83.672394 L 196 26.355392 C 194.688995 25.889404 193.354996 25.436401 192 24.997406 Z"/>
    <path id="path9" fill="#ffffff" stroke="none" d="M 240 152 C 240 156.779999 238.604004 161.408997 236 165.806 L 236 186.464996 C 230.753998 179.113998 220.432999 172.54599 205.68399 167.356003 C 198.182007 164.71701 189.787994 162.511993 180.761993 160.761993 C 185.371002 153.399002 187.988998 144.964996 187.988998 136 L 188 14 C 188 12.895996 187.104004 12 186 12 L 187.587006 12 C 187.867004 12 188.139999 12.028 188.414001 12.085999 C 191.162994 12.671005 207.024002 16.233002 218.035004 22.772003 C 219.248993 23.492996 219.988998 24.804001 219.988998 26.216003 L 219.988998 38.007004 C 218.710999 37.154999 217.384003 36.317993 216 35.503998 L 216 83.671997 L 220 83.671997 L 220 38.34201 C 221.402008 39.278 222.729004 40.23999 224 41.218994 L 224 83.671997 L 228 83.671997 L 228 44.578003 C 229.453995 45.912994 230.792999 47.278992 232 48.677002 L 232 171.002991 C 233.548004 169.209 234.884003 167.365997 236 165.481003 L 236 54.19101 C 238.604004 58.587997 240 63.218002 240 68 Z M 199.089996 230.604004 C 198.889008 230.666 198.686996 230.695007 198.490005 230.695007 C 197.382996 230.695007 196.416992 229.777008 196.483002 228.597992 C 196.494003 228.399002 196.5 228.199997 196.5 228 C 196.5 214.742004 174.031006 203.645004 143.869003 200.744995 C 142.968994 195.610001 136.574005 192 127.988998 192 C 119.375 192 112.963997 195.632996 112.098 200.794998 C 82.563995 203.737 60.550003 214.559998 60.029007 227.531006 C 60.020004 227.528 60.009003 227.526001 60 227.52301 L 60 229.208008 C 59.835007 230.156998 58.966995 230.845001 58.001007 230.845001 C 57.804001 230.845001 57.602997 230.815002 57.403 230.755005 C 35.824997 224.190002 21.714996 214.671005 20.153 203.983002 L 20.138 196 C 22.164001 182.25 44.970993 170.436996 77.712006 164.365997 C 88.419006 178.591003 106.931 188 127.988998 188 C 149.046997 188 167.55899 178.591003 178.265991 164.365997 C 211.007004 170.438004 233.813004 182.25 235.839996 196 L 235.848007 203.983002 C 234.296997 214.589005 220.389999 224.044998 199.089996 230.604004 M 115.988998 202 C 115.988998 201.283997 116.251999 200.602005 116.711998 199.964996 C 116.714996 199.959991 116.719002 199.955002 116.723 199.949997 C 117.265999 199.205002 118.091003 198.531006 119.139999 197.957001 C 119.185997 197.932999 119.230003 197.906006 119.277 197.882004 C 119.448997 197.791 119.625999 197.703995 119.807999 197.619003 C 119.884003 197.583008 119.961998 197.548004 120.041 197.514008 C 120.212997 197.436996 120.388 197.362 120.569 197.290009 C 120.667999 197.251007 120.772003 197.214005 120.874001 197.177002 C 121.047997 197.112 121.221001 197.046997 121.402 196.987 C 121.542 196.94101 121.690002 196.899002 121.834 196.856003 C 122.087997 196.779999 122.346001 196.708008 122.611 196.641998 C 122.807999 196.591995 123.003998 196.542999 123.207001 196.498001 C 123.346001 196.468002 123.489998 196.44101 123.632004 196.414001 C 123.832001 196.375 124.031998 196.337006 124.237 196.304001 C 124.378998 196.279999 124.524002 196.259003 124.668999 196.238007 C 124.884003 196.207001 125.100998 196.179001 125.320999 196.153992 C 125.461998 196.138 125.601997 196.122009 125.745003 196.108002 C 125.988998 196.085999 126.236 196.067001 126.486 196.052002 C 126.608002 196.044998 126.728996 196.033997 126.851997 196.028 C 127.226997 196.011002 127.605003 196 127.988998 196 C 128.373001 196 128.75 196.011002 129.125 196.028 C 129.246002 196.033997 129.36499 196.044006 129.485992 196.052002 C 129.735992 196.067001 129.985001 196.084991 130.231003 196.108002 C 130.372009 196.122009 130.51001 196.136993 130.64801 196.153 C 130.871002 196.178009 131.091003 196.205994 131.30899 196.238007 C 131.449005 196.257996 131.589996 196.278 131.729004 196.300995 C 131.94101 196.335999 132.14801 196.375 132.354004 196.416 C 132.488998 196.442001 132.625 196.466995 132.757996 196.494995 C 132.988998 196.544998 133.214996 196.602005 133.438004 196.658997 C 133.65799 196.714996 133.873001 196.774994 134.084 196.837997 C 134.247009 196.886993 134.410004 196.93399 134.567001 196.985001 C 134.735001 197.040009 134.895996 197.100006 135.057999 197.158997 C 135.174011 197.201004 135.289001 197.242996 135.401001 197.287994 C 135.571991 197.354004 135.737 197.425003 135.899994 197.496002 C 135.988998 197.535995 136.076996 197.576004 136.164001 197.615997 C 136.337006 197.696991 136.505997 197.778992 136.669006 197.863998 C 136.722992 197.893005 136.77301 197.921997 136.824997 197.949997 C 137.640991 198.395996 138.321991 198.899994 138.84201 199.453003 C 138.85199 199.462997 138.862 199.473999 138.871002 199.483002 C 138.998001 199.619995 139.112 199.759003 139.218994 199.899994 C 139.230011 199.916 139.240997 199.932007 139.252991 199.946991 C 139.721008 200.589005 139.988998 201.278 139.988998 202 C 139.988998 203.115005 139.369003 204.156006 138.309998 205.050995 C 138.252991 205.097992 138.195999 205.145004 138.138 205.19101 C 137.583008 205.632004 136.917999 206.031998 136.160004 206.386002 C 136.074997 206.425003 135.990997 206.464005 135.903992 206.501999 C 135.515991 206.673004 135.110992 206.835999 134.679993 206.979996 C 134.679993 206.981003 134.679001 206.981003 134.678009 206.981003 C 134.252991 207.125 133.803009 207.248993 133.34201 207.363998 C 133.230011 207.391998 133.119995 207.419006 133.007004 207.445007 C 132.535004 207.554001 132.052002 207.653 131.549011 207.731003 C 131.544998 207.731995 131.539001 207.731995 131.535004 207.733002 C 131.040009 207.809998 130.528 207.863998 130.009003 207.908005 C 129.876999 207.919998 129.744995 207.929993 129.612 207.938004 C 129.080002 207.975006 128.541 208 127.988998 208 C 127.439003 208 126.903 207.975006 126.374001 207.938995 C 126.240997 207.931 126.109001 207.919998 125.977997 207.908997 C 125.471001 207.865997 124.971001 207.813004 124.487999 207.738998 C 124.473 207.735992 124.458 207.735001 124.443001 207.733002 C 123.940002 207.654999 123.457001 207.557007 122.985001 207.447998 C 122.877998 207.423996 122.773003 207.397995 122.667999 207.372009 C 122.211998 207.259003 121.766998 207.136002 121.346001 206.994995 C 121.339996 206.994003 121.334999 206.992004 121.330002 206.990005 C 120.890999 206.843994 120.478996 206.679993 120.083 206.505997 C 120.012001 206.475006 119.943001 206.442001 119.873001 206.410004 C 119.096001 206.053009 118.414001 205.645996 117.848 205.196991 C 117.806 205.164001 117.765999 205.130997 117.725998 205.097992 C 116.630997 204.192001 115.988998 203.134995 115.988998 202 M 192.488998 228.373993 C 192.487 228.408997 192.490005 228.442993 192.488998 228.479004 C 174.48999 233.201996 152.169998 236 127.988998 236 C 104.042007 236 81.925995 233.252991 64.018997 228.612 C 64.016998 228.565002 64.020004 228.519989 64.016998 228.472992 C 64.005997 228.315002 64 228.15799 64 228 C 64 218.294998 83.296005 207.649002 112.552002 204.763 C 114.332001 209.080994 120.272003 212 127.988998 212 C 135.734009 212 141.688004 209.059998 143.444 204.714996 C 172.981995 207.528 192.5 218.238998 192.5 228 C 192.5 228.125 192.496002 228.25 192.488998 228.373993 M 16 152 L 16 68 C 16 63.218002 17.395996 58.587997 20 54.190002 L 20 165.481003 C 21.115997 167.365997 22.453003 169.209 24 171.002991 L 24 48.677002 C 25.207001 47.278992 26.546005 45.914001 28 44.57901 L 28 83.671997 L 32 83.671997 L 32 41.220001 C 33.266998 40.242996 34.589996 39.28299 35.988998 38.350006 L 35.988998 26.21701 C 35.988998 24.804001 36.729004 23.492996 37.942993 22.772003 C 48.957001 16.231995 64.837006 12.669998 67.587006 12.085999 C 67.860992 12.028 68.132004 12 68.412003 12 L 70 12 C 68.895996 12 68 12.895996 68 14 L 67.988998 136 C 67.988998 144.964996 70.606995 153.399002 75.216003 160.761993 C 66.188995 162.511993 57.796005 164.71701 50.294006 167.356003 C 35.565994 172.539001 25.253006 179.096008 20 186.43399 L 20 165.806 C 17.397003 161.408997 16 156.779999 16 152 M 72 16 L 184 16 L 183.998001 27.998993 C 183.968002 27.984009 168.050995 20 128.088989 20 C 88.089005 20 71.742996 28.039001 72 28.110001 L 72 32 C 72 32 96 24 128.088989 24 C 159.975006 24 183.959991 31.985992 183.998001 32 L 183.988998 136 C 183.988998 162.46701 158.867004 184 127.988998 184 C 97.110001 184 71.988998 162.46701 71.988998 136 Z M 223.988998 36.229004 L 223.988998 26.216003 C 223.988998 23.403 222.490005 20.766006 220.076996 19.332993 C 208.591003 12.511002 192.378998 8.839996 189.246002 8.173996 C 188.703995 8.059006 188.145996 8 187.587006 8 L 131.988998 8 L 123.988998 8 L 68.412003 8 C 67.854004 8 67.296997 8.059006 66.755005 8.173004 C 63.619003 8.839996 47.391006 12.509995 35.901001 19.332993 C 33.488007 20.764999 31.988998 23.403 31.988998 26.21701 L 31.988998 36.244995 C 18.901001 45.501007 12 56.446991 12 68 L 12 152 C 12 157.061996 13.345001 162.057999 16 166.867996 L 16 204 L 17.169998 208.339005 C 21.078995 218.820999 34.725998 228.037003 56.238998 234.582001 C 56.811996 234.755997 57.404007 234.845001 58.001007 234.845001 C 59.677002 234.845001 61.292999 234.141998 62.436996 232.916 C 62.582001 232.761002 62.716995 232.598999 62.843002 232.432007 C 81.647003 237.337006 104.248993 240 127.988998 240 C 151.958008 240 174.764999 237.28299 193.675995 232.287003 C 193.811005 232.46701 193.953995 232.640991 194.110992 232.807007 C 195.246002 234.007004 196.841995 234.695007 198.490005 234.695007 C 199.091003 234.695007 199.688004 234.604004 200.266998 234.427002 C 221.481003 227.894989 234.951004 218.733002 238.828995 208.337997 L 240 204 L 240 166.867996 C 242.654999 162.057999 244 157.061996 244 152 L 244 68 C 244 56.440002 237.091003 45.488998 223.988998 36.229004"/>
</svg>
