<?xml version="1.0" encoding="UTF-8"?>
<!-- Generated by Pixelmator Pro 3.7.1 -->
<svg width="256" height="256" viewBox="0 0 256 256" xmlns="http://www.w3.org/2000/svg">
    <path id="Path" fill="#ffffff" stroke="none" d="M 8 104 L 8 76 L 59.408001 76 L 28 100 L 32.233002 100 L 63.640999 76 L 68.841003 76 L 37.432999 100 L 41.666 100 L 73.073997 76 L 78.274002 76 L 46.866001 100 L 51.098999 100 L 82.507004 76 L 87.707001 76 L 56.299 100 L 60.530998 100 L 91.939003 76 L 97.139999 76 L 65.731995 100 L 69.964005 100 L 101.372002 76 L 106.572998 76 L 75.164001 100 L 79.397003 100 L 110.805 76 L 116.004997 76 L 84.597 100 L 88.830002 100 L 120.237999 76 L 125.438004 76 L 94.029999 100 L 98.263 100 L 129.67099 76 L 134.871002 76 L 103.462997 100 L 107.695999 100 L 139.104004 76 L 144.304001 76 L 112.896004 100 L 117.128998 100 L 148.537003 76 L 153.737 76 L 122.329002 100 L 126.561996 100 L 157.970001 76 L 163.169998 76 L 131.761993 100 L 135.994995 100 L 167.403 76 L 172.602997 76 L 141.195007 100 L 145.427994 100 L 176.835999 76 L 182.035995 76 L 150.628006 100 L 154.860001 100 L 186.268005 76 L 191.468994 76 L 160.061005 100 L 164.292999 100 L 195.701004 76 L 200.901993 76 L 169.492996 100 L 173.725998 100 L 205.134003 76 L 210.334 76 L 178.925995 100 L 183.158997 100 L 214.567001 76 L 219.766998 76 L 188.358994 100 L 192.591995 100 L 224 76 L 248 76 L 248 104 Z M 248 124 L 22.062 124 L 8 124 L 8 108 L 248 108 Z M 248 188 L 8 188 L 8 128 L 22.062 128 L 248 128 Z M 248 72 L 8 72 L 4 72 L 4 76 L 4 104 L 4 108 L 4 124 L 4 128 L 4 188 L 4 192 L 8 192 L 248 192 L 252 192 L 252 188 L 252 128 L 252 124 L 252 108 L 252 104 L 252 76 L 252 72 Z"/>
    <path id="path1" fill="#ffffff" stroke="none" d="M 228 112 L 179.804993 112 L 176 116 L 224.119003 116 Z"/>
    <path id="path2" fill="#ffffff" stroke="none" d="M 24 143.925003 L 16 143.925003 L 16 135.925003 L 24 135.925003 Z M 28 135.925003 L 36 135.925003 L 36 143.925003 L 32 143.925003 L 28 143.925003 Z M 40 135.925003 L 48 135.925003 L 48 143.925003 L 44 143.925003 L 40 143.925003 Z M 52 135.925003 L 60 135.925003 L 60 143.925003 L 56 143.925003 L 52 143.925003 Z M 64 135.925003 L 72 135.925003 L 72 143.925003 L 68 143.925003 L 64 143.925003 Z M 76 135.925003 L 84 135.925003 L 84 143.925003 L 80 143.925003 L 76 143.925003 Z M 88 135.925003 L 96 135.925003 L 96 143.925003 L 92 143.925003 L 88 143.925003 Z M 100 135.925003 L 108 135.925003 L 108 143.925003 L 104 143.925003 L 100 143.925003 Z M 112 135.925003 L 120 135.925003 L 120 143.925003 L 116 143.925003 L 112 143.925003 Z M 124 135.925003 L 132 135.925003 L 132 143.925003 L 128 143.925003 L 124 143.925003 Z M 136 135.925003 L 148 135.925003 L 148 143.925003 L 140 143.925003 L 136 143.925003 Z M 156 135.925003 L 168 135.925003 L 168 143.925003 L 164 143.925003 L 156 143.925003 Z M 176 135.925003 L 188 135.925003 L 188 143.925003 L 180 143.925003 L 176 143.925003 Z M 196 135.925003 L 204 135.925003 L 204 143.925003 L 196 143.925003 Z M 208 135.925003 L 216 135.925003 L 216 143.925003 L 208 143.925003 Z M 220 135.925003 L 228 135.925003 L 228 143.925003 L 220 143.925003 Z M 232 135.925003 L 240 135.925003 L 240 143.925003 L 232 143.925003 Z M 240 155.925003 L 232 155.925003 L 232 147.925003 L 240 147.925003 Z M 240 179.925003 L 232 179.925003 L 232 171.925003 L 232 167.925003 L 232 159.925003 L 240 159.925003 Z M 228 179.925003 L 220 179.925003 L 220 171.925003 L 228 171.925003 Z M 216 179.925003 L 208 179.925003 L 208 171.925003 L 216 171.925003 Z M 204 179.925003 L 196 179.925003 L 196 171.925003 L 204 171.925003 Z M 188 167.925003 L 180 167.925003 L 180 159.925003 L 188 159.925003 Z M 176 167.925003 L 168 167.925003 L 168 159.925003 L 176 159.925003 Z M 164 167.925003 L 156 167.925003 L 156 159.925003 L 164 159.925003 Z M 164 155.925003 L 156 155.925003 L 156 147.925003 L 164 147.925003 Z M 176 155.925003 L 168 155.925003 L 168 147.925003 L 172 147.925003 L 176 147.925003 Z M 188 155.925003 L 180 155.925003 L 180 147.925003 L 188 147.925003 Z M 204 155.925003 L 196 155.925003 L 196 147.925003 L 204 147.925003 Z M 216 155.925003 L 208 155.925003 L 208 147.925003 L 216 147.925003 Z M 208 159.925003 L 216 159.925003 L 216 167.925003 L 208 167.925003 Z M 196 159.925003 L 204 159.925003 L 204 167.925003 L 196 167.925003 Z M 228 167.925003 L 220 167.925003 L 220 159.925003 L 228 159.925003 Z M 228 155.925003 L 220 155.925003 L 220 147.925003 L 228 147.925003 Z M 148 167.925003 L 144 167.925003 L 144 159.925003 L 144 155.925003 L 140 155.925003 L 140 147.925003 L 148 147.925003 Z M 136 180 L 120 180 L 120 171.925003 L 128 171.925003 L 132 171.925003 L 136 171.925003 Z M 116 180 L 36 180 L 36 171.925003 L 44 171.925003 L 48 171.925003 L 56 171.925003 L 60 171.925003 L 68 171.925003 L 72 171.925003 L 80 171.925003 L 84 171.925003 L 92 171.925003 L 96 171.925003 L 104 171.925003 L 108 171.925003 L 116 171.925003 Z M 32 180 L 16 180 L 16 171.925003 L 32 171.925003 Z M 16 159.925003 L 28 159.925003 L 32 159.925003 L 32 167.925003 L 16 167.925003 Z M 40 155.925003 L 36 155.925003 L 36 155.850006 L 32 155.850006 L 32 147.925003 L 36 147.925003 L 40 147.925003 Z M 52 155.925003 L 48 155.925003 L 44 155.925003 L 44 147.925003 L 48 147.925003 L 52 147.925003 Z M 64 155.925003 L 60 155.925003 L 56 155.925003 L 56 147.925003 L 60 147.925003 L 64 147.925003 Z M 76 155.925003 L 72 155.925003 L 68 155.925003 L 68 147.925003 L 72 147.925003 L 76 147.925003 Z M 88 155.925003 L 84 155.925003 L 80 155.925003 L 80 147.925003 L 84 147.925003 L 88 147.925003 Z M 100 155.925003 L 96 155.925003 L 92 155.925003 L 92 147.925003 L 96 147.925003 L 100 147.925003 Z M 112 155.925003 L 108 155.925003 L 104 155.925003 L 104 147.925003 L 108 147.925003 L 112 147.925003 Z M 124 155.925003 L 120 155.925003 L 116 155.925003 L 116 147.925003 L 120 147.925003 L 124 147.925003 Z M 136 155.925003 L 132 155.925003 L 128 155.925003 L 128 147.925003 L 132 147.925003 L 136 147.925003 Z M 120 159.925003 L 124 159.925003 L 128 159.925003 L 128 167.925003 L 120 167.925003 Z M 108 159.925003 L 112 159.925003 L 116 159.925003 L 116 167.925003 L 108 167.925003 Z M 96 159.925003 L 100 159.925003 L 104 159.925003 L 104 167.925003 L 96 167.925003 Z M 84 159.925003 L 88 159.925003 L 92 159.925003 L 92 167.925003 L 84 167.925003 Z M 72 159.925003 L 76 159.925003 L 80 159.925003 L 80 167.925003 L 72 167.925003 Z M 60 159.925003 L 64 159.925003 L 68 159.925003 L 68 167.925003 L 60 167.925003 Z M 48 159.925003 L 52 159.925003 L 56 159.925003 L 56 167.925003 L 48 167.925003 Z M 36 159.925003 L 40 159.925003 L 44 159.925003 L 44 167.925003 L 36 167.925003 Z M 136 167.925003 L 132 167.925003 L 132 159.925003 L 136 159.925003 Z M 16 147.925003 L 24 147.925003 L 28 147.925003 L 28 155.850006 L 16 155.850006 Z M 12 131.925003 L 12 135.925003 L 12 143.925003 L 12 147.925003 L 12 155.850006 L 12 155.925003 L 12 159.850006 L 12 159.925003 L 12 167.925003 L 12 171.925003 L 12 180 L 12 184 L 16 184 L 32 184 L 36 184 L 116 184 L 120 184 L 136 184 L 140 184 L 140 180 L 140 171.925003 L 144 171.925003 L 148 171.925003 L 152 171.925003 L 156 171.925003 L 164 171.925003 L 168 171.925003 L 176 171.925003 L 180 171.925003 L 188 171.925003 L 192 171.925003 L 192 179.925003 L 192 183.925003 L 196 183.925003 L 204 183.925003 L 208 183.925003 L 216 183.925003 L 220 183.925003 L 228 183.925003 L 232 183.925003 L 240 183.925003 L 244 183.925003 L 244 179.925003 L 244 159.925003 L 244 155.925003 L 244 147.925003 L 244 143.925003 L 244 135.925003 L 244 131.925003 L 240 131.925003 L 232 131.925003 L 228 131.925003 L 220 131.925003 L 216 131.925003 L 208 131.925003 L 204 131.925003 L 196 131.925003 L 192 131.925003 L 188 131.925003 L 176 131.925003 L 172 131.925003 L 168 131.925003 L 156 131.925003 L 152 131.925003 L 148 131.925003 L 136 131.925003 L 132 131.925003 L 124 131.925003 L 120 131.925003 L 112 131.925003 L 108 131.925003 L 100 131.925003 L 96 131.925003 L 88 131.925003 L 84 131.925003 L 76 131.925003 L 72 131.925003 L 64 131.925003 L 60 131.925003 L 52 131.925003 L 48 131.925003 L 40 131.925003 L 36 131.925003 L 28 131.925003 L 24 131.925003 L 16 131.925003 Z"/>
</svg>
