<?xml version="1.0" encoding="UTF-8"?>
<!-- Generated by Pixelmator Pro 3.7.1 -->
<svg width="256" height="256" viewBox="0 0 256 256" xmlns="http://www.w3.org/2000/svg">
    <path id="Path" fill="#ffffff" stroke="none" d="M 240 177.072296 C 240 178.68631 238.686996 180.000305 237.072006 180.000305 L 18.927994 180.000305 C 17.313004 180.000305 16 178.68631 16 177.072296 L 16 174.927307 C 16 173.313293 17.313004 172.000305 18.927994 172.000305 L 237.072006 172.000305 C 238.686996 172.000305 240 173.313293 240 174.927307 Z M 237.072006 168.000305 L 18.927994 168.000305 C 15.102005 168.000305 12 171.101303 12 174.927307 L 12 177.072296 C 12 180.8983 15.102005 184.000305 18.927994 184.000305 L 237.072006 184.000305 C 240.897995 184.000305 244 180.8983 244 177.072296 L 244 174.927307 C 244 171.101303 240.897995 168.000305 237.072006 168.000305"/>
    <path id="path1" fill="#ffffff" stroke="none" d="M 238 120 L 18 120 C 14.686996 120 12 122.686996 12 126 L 12 128 L 12.348999 128 C 13.173004 125.671005 15.389008 124 18 124 L 238 124 C 240.610992 124 242.826996 125.671005 243.651001 128 L 244 128 L 244 126 C 244 122.686996 241.313004 120 238 120"/>
    <path id="path2" fill="#ffffff" stroke="none" d="M 238 128 L 18 128 C 14.686996 128 12 130.686996 12 134 L 12 136 L 12.348999 136 C 13.173004 133.67099 15.389008 132 18 132 L 238 132 C 240.610992 132 242.826996 133.67099 243.651001 136 L 244 136 L 244 134 C 244 130.686996 241.313004 128 238 128"/>
    <path id="path3" fill="#ffffff" stroke="none" d="M 238 136 L 18 136 C 14.686996 136 12 138.686996 12 142 L 12 144 L 12.348999 144 C 13.173004 141.67099 15.389008 140 18 140 L 238 140 C 240.610992 140 242.826996 141.67099 243.651001 144 L 244 144 L 244 142 C 244 138.686996 241.313004 136 238 136"/>
    <path id="path4" fill="#ffffff" stroke="none" d="M 238 144 L 18 144 C 14.686996 144 12 146.686996 12 150 L 12 152 L 12.348999 152 C 13.173004 149.67099 15.389008 148 18 148 L 238 148 C 240.610992 148 242.826996 149.67099 243.651001 152 L 244 152 L 244 150 C 244 146.686996 241.313004 144 238 144"/>
    <path id="path5" fill="#ffffff" stroke="none" d="M 238 152 L 18 152 C 14.686996 152 12 154.686996 12 158 L 12 160 L 12.348999 160 C 13.173004 157.67099 15.389008 156 18 156 L 238 156 C 240.610992 156 242.826996 157.67099 243.651001 160 L 244 160 L 244 158 C 244 154.686996 241.313004 152 238 152"/>
    <path id="path6" fill="#ffffff" stroke="none" d="M 238 160 L 18 160 C 14.686996 160 12 162.686996 12 166 L 12 168 L 12.348999 168 C 13.173004 165.67099 15.389008 164 18 164 L 238 164 C 240.610992 164 242.826996 165.67099 243.651001 168 L 244 168 L 244 166 C 244 162.686996 241.313004 160 238 160"/>
    <path id="path7" fill="#ffffff" stroke="none" d="M 238 112 L 18 112 C 14.686996 112 12 114.686996 12 118 L 12 120 L 12.348999 120 C 13.173004 117.671005 15.389008 116 18 116 L 238 116 C 240.610992 116 242.826996 117.671005 243.651001 120 L 244 120 L 244 118 C 244 114.686996 241.313004 112 238 112"/>
    <path id="path8" fill="#ffffff" stroke="none" d="M 18 108.879898 L 36 107.999893 L 220 107.999893 L 220 103.999893 L 36 103.999893 L 18 106.879898 C 14.687 106.879898 12 109.566895 12 112.879898 L 12.349 112.879898 C 13.173 110.550903 15.389 108.879898 18 108.879898"/>
    <path id="path9" fill="#ffffff" stroke="none" d="M 18 82 L 68 76 L 188 76 L 238 82 C 240.610992 82 242.826996 83.671005 243.651001 86 L 244 86 C 244 82.686996 241.313004 80 238 80 L 188 72 L 68 72 L 18 80 C 14.687 80 12 82.686996 12 86 L 12.349 86 C 13.173 83.671005 15.389 82 18 82"/>
    <path id="path10" fill="#ffffff" stroke="none" d="M 238 86.719696 L 196 79.999695 L 60 79.999695 L 18 86.719696 C 14.686996 86.719696 12 89.406693 12 92.719696 L 12.348999 92.719696 C 13.173004 90.390701 15.389008 88.719696 18 88.719696 L 60 83.999695 L 196 83.999695 L 238 88.719696 C 240.610992 88.719696 242.826996 90.390701 243.651001 92.719696 L 244 92.719696 C 244 89.406693 241.313004 86.719696 238 86.719696"/>
    <path id="path11" fill="#ffffff" stroke="none" d="M 238 93.439896 L 204 87.999893 L 52 87.999893 L 18 93.439896 C 14.686996 93.439896 12 96.126907 12 99.439896 L 12.348999 99.439896 C 13.173004 97.110901 15.389008 95.439896 18 95.439896 L 52 91.999893 L 204 91.999893 L 238 95.439896 C 240.610992 95.439896 242.826996 97.110901 243.651001 99.439896 L 244 99.439896 C 244 96.126907 241.313004 93.439896 238 93.439896"/>
    <path id="path12" fill="#ffffff" stroke="none" d="M 238 100.160202 L 212 96.000198 L 44 96.000198 L 18 100.160202 C 14.686996 100.160202 12 102.846207 12 106.160202 L 12.348999 106.160202 C 13.173004 103.831207 15.389008 102.160202 18 102.160202 L 44 100.000198 L 212 100.000198 L 238 102.160202 C 240.610992 102.160202 242.826996 103.831207 243.651001 106.160202 L 244 106.160202 C 244 102.846207 241.313004 100.160202 238 100.160202"/>
    <path id="path13" fill="#ffffff" stroke="none" d="M 220 104 L 238 106.880005 C 241.313004 106.880005 244 109.565994 244 112.880005 L 243.651001 112.880005 C 242.826996 110.550995 240.610992 108.880005 238 108.880005 L 220 108 Z"/>
</svg>
