<?xml version="1.0" encoding="UTF-8"?>
<!-- Generated by Pixelmator Pro 3.7.1 -->
<svg width="256" height="256" viewBox="0 0 256 256" xmlns="http://www.w3.org/2000/svg">
    <path id="Path" fill="#ffffff" stroke="none" d="M 232.308594 72 L 229.853607 72 L 192.129593 72 L 191.490601 72 L 190.882599 72.199005 L 180.173599 75.714005 L 75.826607 75.714005 L 65.117607 72.199005 L 64.509605 72 L 63.870598 72 L 26.146597 72 L 23.691595 72 L 22.579596 74.188995 C 3.170599 112.410004 3.170599 143.589996 22.579596 181.811996 L 23.691595 184 L 26.146597 184 L 63.870598 184 L 64.509605 184 L 65.117607 183.800995 L 75.826607 180.286011 L 180.173599 180.286011 L 190.882599 183.800995 L 191.490601 184 L 192.129593 184 L 229.853607 184 L 232.308594 184 L 233.419601 181.811996 C 252.829605 143.589996 252.829605 112.410004 233.419601 74.188995 Z M 229.853607 76 C 248.715607 113.143005 248.715607 142.856995 229.853607 180 L 192.129593 180 L 180.813599 176.286011 L 75.186607 176.286011 L 63.870598 180 L 26.146597 180 C 7.284598 142.856995 7.284598 113.143005 26.146597 76 L 63.870598 76 L 75.186607 79.714005 L 180.813599 79.714005 L 192.129593 76 L 229.853607 76"/>
    <path id="path1" fill="#ffffff" stroke="none" d="M 183.284195 76 L 180.706207 76 L 75.292206 76 L 72.713203 76 L 71.648201 78.350006 C 56.091198 112.694 56.091198 143.319 71.6492 177.651001 L 72.713203 180 L 75.292206 180 L 180.706207 180 L 183.284195 180 L 184.348206 177.651001 C 199.910202 143.313004 199.910202 112.686996 184.348206 78.348999 Z M 180.706207 80 C 195.764206 113.231003 195.764206 142.769989 180.706207 176 L 75.292206 176 C 60.233196 142.769989 60.239201 113.231003 75.292206 80 L 180.706207 80"/>
    <path id="path2" fill="#ffffff" stroke="none" d="M 169 94 L 87 94 C 84.242996 94 82 96.242996 82 99 L 82 157 C 82 159.757004 84.242996 162 87 162 L 169 162 C 171.757004 162 174 159.757004 174 157 L 174 99 C 174 96.242996 171.757004 94 169 94 M 169 98 C 169.552994 98 170 98.447998 170 99 L 170 157 C 170 157.553009 169.552994 158 169 158 L 87 158 C 86.447998 158 86 157.553009 86 157 L 86 99 C 86 98.447998 86.447998 98 87 98 L 169 98"/>
    <path id="path3" fill="#ffffff" stroke="none" d="M 166 102 L 162 102 L 94 102 L 90 102 L 90 106 L 90 150 L 90 154 L 94 154 L 162 154 L 166 154 L 166 150 L 166 106 Z M 162 150 L 94 150 L 94 106 L 162 106 Z"/>
    <path id="path4" fill="#ffffff" stroke="none" d="M 41.5 110 L 34.5 110 C 31.33 110 28.75 112.580002 28.75 115.75 L 28.75 118.75 L 25.75 118.75 C 22.58 118.75 20 121.330002 20 124.5 L 20 131.5 C 20 134.67099 22.58 137.25 25.75 137.25 L 28.75 137.25 L 28.75 140.25 C 28.75 143.421005 31.33 146 34.5 146 L 41.5 146 C 44.669998 146 47.25 143.421005 47.25 140.25 L 47.25 137.25 L 50.25 137.25 C 53.419998 137.25 56 134.67099 56 131.5 L 56 124.5 C 56 121.330002 53.419998 118.75 50.25 118.75 L 47.25 118.75 L 47.25 115.75 C 47.25 112.580002 44.669998 110 41.5 110 M 41.5 114 C 42.466 114 43.25 114.783997 43.25 115.75 L 43.25 122.75 L 50.25 122.75 C 51.216 122.75 52 123.533997 52 124.5 L 52 131.5 C 52 132.466995 51.216 133.25 50.25 133.25 L 43.25 133.25 L 43.25 140.25 C 43.25 141.216995 42.466 142 41.5 142 L 34.5 142 C 33.534 142 32.75 141.216995 32.75 140.25 L 32.75 133.25 L 25.75 133.25 C 24.784 133.25 24 132.466995 24 131.5 L 24 124.5 C 24 123.533997 24.784 122.75 25.75 122.75 L 32.75 122.75 L 32.75 115.75 C 32.75 114.783997 33.534 114 34.5 114 L 41.5 114"/>
    <path id="path5" fill="#ffffff" stroke="none" d="M 72 133.0625 L 72 122.666504 C 72 122.221497 72.337997 121.859497 72.773003 121.859497 L 75.226997 121.859497 C 75.653999 121.859497 76 122.221497 76 122.666504 L 76 133.0625 C 76 133.501495 75.653999 133.859497 75.226997 133.859497 L 72.773003 133.859497 C 72.337997 133.859497 72 133.501495 72 133.0625"/>
    <path id="path6" fill="#ffffff" stroke="none" d="M 184 133.0625 C 184 133.501495 183.658005 133.859497 183.223999 133.859497 L 180.772003 133.859497 C 180.345993 133.859497 180 133.501495 180 133.0625 L 180 122.666504 C 180 122.221497 180.345993 121.859497 180.772003 121.859497 L 183.223999 121.859497 C 183.658005 121.859497 184 122.221497 184 122.666504 Z"/>
    <path id="path7" fill="#ffffff" stroke="none" d="M 180 119.202103 C 180 119.642105 179.658005 120.000107 179.223999 120.000107 L 176.772003 120.000107 C 176.345993 120.000107 176 119.642105 176 119.202103 L 176 108.806107 C 176 108.362106 176.345993 108.000107 176.772003 108.000107 L 179.223999 108.000107 C 179.658005 108.000107 180 108.362106 180 108.806107 Z"/>
    <path id="path8" fill="#ffffff" stroke="none" d="M 180 147.202103 C 180 147.64209 179.658005 148.000092 179.223999 148.000092 L 176.772003 148.000092 C 176.345993 148.000092 176 147.64209 176 147.202103 L 176 136.806091 C 176 136.361099 176.345993 136.000092 176.772003 136.000092 L 179.223999 136.000092 C 179.658005 136.000092 180 136.361099 180 136.806091 Z"/>
    <path id="path9" fill="#ffffff" stroke="none" d="M 80 119.202103 C 80 119.642105 79.657997 120.000107 79.223999 120.000107 L 76.772003 120.000107 C 76.346001 120.000107 76 119.642105 76 119.202103 L 76 108.806107 C 76 108.362106 76.346001 108.000107 76.772003 108.000107 L 79.223999 108.000107 C 79.657997 108.000107 80 108.362106 80 108.806107 Z"/>
    <path id="path10" fill="#ffffff" stroke="none" d="M 80 147.202103 C 80 147.64209 79.657997 148.000092 79.223999 148.000092 L 76.772003 148.000092 C 76.346001 148.000092 76 147.64209 76 147.202103 L 76 136.806091 C 76 136.361099 76.346001 136.000092 76.772003 136.000092 L 79.223999 136.000092 C 79.657997 136.000092 80 136.361099 80 136.806091 Z"/>
    <path id="path11" fill="#ffffff" stroke="none" d="M 197.1035 83.383804 C 191.589493 83.383804 187.1035 87.869797 187.1035 93.383804 C 187.1035 98.897797 191.589493 103.383804 197.1035 103.383804 C 202.617493 103.383804 207.1035 98.897797 207.1035 93.383804 C 207.1035 87.869797 202.617493 83.383804 197.1035 83.383804 M 197.1035 87.383804 C 200.415497 87.383804 203.1035 90.071793 203.1035 93.383804 C 203.1035 96.695801 200.415497 99.383804 197.1035 99.383804 C 193.790497 99.383804 191.1035 96.695801 191.1035 93.383804 C 191.1035 90.071793 193.790497 87.383804 197.1035 87.383804"/>
    <path id="path12" fill="#ffffff" stroke="none" d="M 197.1035 152.616211 C 191.589493 152.616211 187.1035 157.102203 187.1035 162.616211 C 187.1035 168.131195 191.589493 172.616211 197.1035 172.616211 C 202.617493 172.616211 207.1035 168.131195 207.1035 162.616211 C 207.1035 157.102203 202.617493 152.616211 197.1035 152.616211 M 197.1035 156.616211 C 200.415497 156.616211 203.1035 159.304199 203.1035 162.616211 C 203.1035 165.929199 200.415497 168.616211 197.1035 168.616211 C 193.790497 168.616211 191.1035 165.929199 191.1035 162.616211 C 191.1035 159.304199 193.790497 156.616211 197.1035 156.616211"/>
    <path id="path13" fill="#ffffff" stroke="none" d="M 218.966797 158.474609 C 213.451797 158.474609 208.966797 162.960602 208.966797 168.474609 C 208.966797 173.988602 213.451797 178.474609 218.966797 178.474609 C 224.480804 178.474609 228.966797 173.988602 228.966797 168.474609 C 228.966797 162.960602 224.480804 158.474609 218.966797 158.474609 M 218.966797 162.474609 C 222.278793 162.474609 224.966797 165.162598 224.966797 168.474609 C 224.966797 171.787598 222.278793 174.474609 218.966797 174.474609 C 215.653793 174.474609 212.966797 171.787598 212.966797 168.474609 C 212.966797 165.162598 215.653793 162.474609 218.966797 162.474609"/>
    <path id="path14" fill="#ffffff" stroke="none" d="M 218.966797 77.525406 C 213.451797 77.525406 208.966797 82.011398 208.966797 87.525406 C 208.966797 93.039398 213.451797 97.525406 218.966797 97.525406 C 224.480804 97.525406 228.966797 93.039398 228.966797 87.525406 C 228.966797 82.011398 224.480804 77.525406 218.966797 77.525406 M 218.966797 81.525406 C 222.278793 81.525406 224.966797 84.213394 224.966797 87.525406 C 224.966797 90.837402 222.278793 93.525406 218.966797 93.525406 C 215.653793 93.525406 212.966797 90.837402 212.966797 87.525406 C 212.966797 84.213394 215.653793 81.525406 218.966797 81.525406"/>
    <path id="path15" fill="#ffffff" stroke="none" d="M 215.029297 157.117203 L 218.787292 157.953201 C 224.7883 137.675201 224.791306 118.325195 218.789307 98.047195 L 215.030304 98.882202 C 220.707306 118.578201 220.7043 137.421204 215.029297 157.117203"/>
    <path id="path16" fill="#ffffff" stroke="none" d="M 207.484406 155.441406 L 211.268402 156.28241 C 216.625397 137.166397 216.623398 118.834396 211.263397 99.719406 L 207.498398 100.556396 C 212.547394 119.088394 212.531403 136.908401 207.484406 155.441406"/>
    <path id="path17" fill="#ffffff" stroke="none" d="M 199.928696 153.761703 L 203.705704 154.6017 C 208.454697 136.648697 208.480698 119.345703 203.730698 101.3927 L 199.941696 102.235703 C 204.399704 119.607697 204.382706 136.388702 199.928696 153.761703"/>
</svg>
