<?xml version="1.0" encoding="UTF-8"?>
<!-- Generated by Pixelmator Pro 3.7.1 -->
<svg width="256" height="256" viewBox="0 0 256 256" xmlns="http://www.w3.org/2000/svg">
    <path id="Path" fill="#ffffff" stroke="none" d="M 52 92.669907 L 56 92.669907 L 56 36.841904 C 54.639 37.372894 53.305 37.9189 52 38.478897 Z"/>
    <path id="path1" fill="#ffffff" stroke="none" d="M 44 92.669907 L 48 92.669907 L 48 40.282898 C 46.630001 40.9319 45.296001 41.5979 44 42.279907 Z"/>
    <path id="path2" fill="#ffffff" stroke="none" d="M 40 92.669907 L 40 44.501907 C 38.612999 45.317902 37.282001 46.156906 36 47.011902 L 36 92.669907 Z"/>
    <path id="path3" fill="#ffffff" stroke="none" d="M 204 37.636703 C 202.695007 37.076706 201.360992 36.531693 200 35.999695 L 200 91.827698 L 204 91.827698 Z"/>
    <path id="path4" fill="#ffffff" stroke="none" d="M 212 41.438004 C 210.703995 40.755997 209.369995 40.089996 208 39.440994 L 208 91.828003 L 212 91.828003 Z"/>
    <path id="path5" fill="#ffffff" stroke="none" d="M 236 173.805695 L 236 194.464691 C 230.753998 187.1147 220.432999 180.5457 205.684006 175.356689 C 199.895996 173.320709 193.578003 171.539703 186.848999 170.028702 C 191.382996 162.215698 194.415009 153.412689 195.520004 143.999695 L 196 139.999695 L 196 90.664703 L 196 63.999695 L 196 59.999695 L 196 43.999695 L 196 33.347702 L 196 21.974701 C 202.291992 23.732697 211.119003 26.664688 218.035004 30.771698 C 219.248993 31.493698 219.988998 32.803696 219.988998 34.21669 L 219.988998 46.162704 C 218.710999 45.310699 217.384003 44.473694 216 43.659698 L 216 91.827698 L 220 91.827698 L 220 46.342697 C 221.402008 47.278702 222.729004 48.2397 224 49.219696 L 224 90.664703 L 228 90.664703 L 228 52.577698 C 229.453995 53.912704 230.792999 55.279694 232 56.677704 L 232 177.99469 C 233.548004 176.201691 234.884003 174.359711 236 172.473694 L 236 62.191696 C 238.604004 66.588699 240 71.218704 240 75.999695 L 240 159.999695 C 240 164.780701 238.604004 169.409698 236 173.805695 M 236 211.999695 L 235.848007 211.983704 C 234.296997 222.588699 220.389999 232.044693 199.089996 238.604706 C 198.889008 238.665695 198.686996 238.695694 198.490005 238.695694 C 197.382996 238.695694 196.416992 237.777695 196.483002 236.597702 C 196.494003 236.399704 196.5 236.200699 196.5 235.999695 C 196.5 222.743698 174.029999 211.650696 143.869995 208.751694 C 143.471008 206.460693 141.973999 204.4767 139.681 202.9767 C 158.307007 199.729706 174.431 188.867706 184.593994 173.637695 C 213.916 179.999695 233.947006 191.154694 235.839996 203.999695 L 236 203.999695 Z M 192.488998 236.373703 C 192.487 236.409698 192.490005 236.443695 192.488998 236.478699 C 174.490005 241.201706 152.169998 243.999695 127.988998 243.999695 C 104.042007 243.999695 81.925995 241.252701 64.018997 236.612701 C 64.016998 236.565704 64.020004 236.519699 64.016998 236.472702 C 64.005997 236.315704 64 236.158707 64 235.999695 C 64 226.294693 83.298996 215.654694 112.554001 212.7677 C 114.335999 217.083694 120.275002 219.999695 127.988998 219.999695 C 135.731003 219.999695 141.684998 217.061707 143.442001 212.718689 C 172.979004 215.5327 192.5 226.240707 192.5 235.999695 C 192.5 236.124695 192.496002 236.249695 192.488998 236.373703 M 60.024994 235.530701 C 60.016998 235.528702 60.007996 235.525696 60 235.523697 L 60 237.207703 C 59.835007 238.1577 58.966995 238.844696 58.001007 238.844696 C 57.804001 238.844696 57.602997 238.815704 57.403 238.7547 C 35.824997 232.190704 21.714996 222.6707 20.153 211.983704 L 20.138 203.999695 C 22.031006 191.151703 42.070007 179.99469 71.403 173.63269 C 71.740997 174.138702 72.080002 174.643707 72.431 175.139709 C 73.334 178.463699 75.628006 181.212708 78.653 182.727692 C 88.526001 193.141693 101.641006 200.413696 116.302002 202.973694 C 113.987999 204.485703 112.481003 206.4897 112.096001 208.803696 C 82.561996 211.745697 60.546997 222.560699 60.024994 235.530701 M 20 174.478699 C 21.115997 176.3647 22.453003 178.206696 24 179.999695 L 24 56.676697 C 25.207001 55.279694 26.546005 53.913696 28 52.578705 L 28 92.669693 L 32 92.669693 L 32 49.219696 C 33.266998 48.242691 34.589996 47.283691 35.988998 46.349701 L 35.988998 34.21669 C 35.988998 32.803696 36.729004 31.493698 37.942993 30.771698 C 44.863007 26.662689 53.701996 23.730698 60 21.972702 L 60 35.352692 L 60 39.999695 L 60 59.999695 L 60 63.999695 L 60 92.669693 L 60 139.999695 L 60.479996 143.999695 C 61.584 153.410706 64.615997 162.2117 69.147995 170.024689 C 62.412003 171.535706 56.087997 173.317703 50.294006 175.356689 C 35.565994 180.538696 25.253006 187.095703 20 194.433701 Z M 16 159.999695 L 16 75.999695 C 16 71.218704 17.395996 66.587692 20 62.190704 L 20 173.805695 C 17.397003 169.409698 16 164.780701 16 159.999695 M 76 59.999695 L 72 59.999695 L 72 51.999695 L 72.089005 51.999695 L 76 51.999695 Z M 176 51.999695 L 180 51.999695 L 180 59.999695 L 176 59.999695 Z M 92 59.999695 L 88 59.999695 L 88 51.999695 L 92 51.999695 Z M 100 59.999695 L 96 59.999695 L 96 51.999695 L 100 51.999695 Z M 108 59.999695 L 104 59.999695 L 104 51.999695 L 108 51.999695 Z M 116 59.999695 L 112 59.999695 L 112 51.999695 L 116 51.999695 Z M 124 59.999695 L 120 59.999695 L 120 51.999695 L 124 51.999695 Z M 132 59.999695 L 128 59.999695 L 128 51.999695 L 132 51.999695 Z M 140 59.999695 L 136 59.999695 L 136 51.999695 L 140 51.999695 Z M 148 59.999695 L 144 59.999695 L 144 51.999695 L 148 51.999695 Z M 156 59.999695 L 152 59.999695 L 152 51.999695 L 156 51.999695 Z M 164 59.999695 L 160 59.999695 L 160 51.999695 L 164 51.999695 Z M 172 59.999695 L 168 59.999695 L 168 51.999695 L 172 51.999695 Z M 80 51.999695 L 84 51.999695 L 84 59.999695 L 80 59.999695 Z M 128 187.999695 C 114.571999 187.999695 102.259995 182.852692 92.988007 174.395691 L 92.807007 174.229706 C 91.903 173.397705 91.031006 172.535706 90.190002 171.646698 C 90.190002 171.646698 90.188995 171.645691 90.188995 171.644699 C 88.529999 169.888702 87.001007 168.022705 85.604996 166.061707 C 85.559006 165.996704 85.514999 165.931702 85.468994 165.867706 C 84.794006 164.909698 84.145996 163.930695 83.537994 162.928711 L 83.255997 162.466705 C 79.182999 155.602692 76.636002 147.716705 76.113998 139.260712 L 76 137.410706 L 76 63.999695 L 180 63.999695 L 180 137.410706 L 179.886002 139.260712 C 178.199005 166.590698 155.40799 187.999695 128 187.999695 M 181.671997 166.980698 C 179.041992 171.520691 175.854996 175.692703 172.205002 179.406708 C 171.82901 179.788696 171.311996 179.999695 170.776001 179.999695 L 170.768997 179.999695 C 169.009003 179.999695 168.115997 177.88269 169.350006 176.626709 C 172.763 173.15271 175.742004 169.246704 178.203003 164.999695 C 178.559998 164.384705 179.208008 163.999695 179.919006 163.999695 L 179.938004 163.999695 C 181.466003 163.999695 182.436996 165.658691 181.671997 166.980698 M 188 59.999695 L 184 59.999695 L 184 51.999695 L 184.089005 51.999695 L 188 51.999695 Z M 76.089005 27.999695 C 80.089005 27.999695 88.089005 19.999695 128.088989 19.999695 C 168.088989 19.999695 180.089005 27.999695 180.089005 27.999695 L 180.089005 47.999695 L 76.089005 47.999695 L 76.089005 28.110687 C 75.832001 28.038696 75.813004 27.999695 76.089005 27.999695 M 64 51.999695 L 68 51.999695 L 68 59.999695 L 64 59.999695 Z M 64.136993 139.999695 L 64 92.669693 L 64 63.999695 L 72 63.999695 L 72 137.534698 L 72.121994 139.506699 C 72.610001 147.411697 74.75 154.850708 78.171997 161.512695 C 75.535995 162.979706 73.615005 165.367706 72.667999 168.136703 C 67.802994 159.773697 64.768005 150.213699 64.136993 139.999695 M 76.145004 173.493698 C 76.052994 173.008698 76 172.510696 76 171.999695 C 76 168.990692 77.664001 166.371704 80.119995 165.006699 C 80.130997 165.025696 80.143005 165.042694 80.154007 165.061707 C 80.723999 165.995697 81.324997 166.908691 81.947006 167.804703 C 82.113007 168.043701 82.278 168.284698 82.447006 168.521698 C 82.718994 168.901703 82.996994 169.276703 83.276993 169.648697 C 83.438004 169.862701 83.602997 170.0737 83.766998 170.284698 C 84.070007 170.673706 84.373001 171.06369 84.686996 171.445709 C 84.699005 171.460693 84.712997 171.4767 84.725998 171.492706 C 85.473007 172.400696 86.251007 173.281708 87.052994 174.141693 C 87.158997 174.2547 87.264008 174.370697 87.371002 174.484711 C 87.742004 174.874695 88.119003 175.25769 88.5 175.637695 C 88.628998 175.766693 88.759003 175.893707 88.889999 176.020691 C 89.287994 176.409698 89.688004 176.794708 90.098007 177.171692 C 88.630005 178.900696 86.445007 179.999695 84 179.999695 C 82.942993 179.999695 81.936005 179.789703 81.011993 179.416702 C 79.278 177.539703 77.645996 175.568695 76.145004 173.493698 M 85.569 183.885696 C 88.494003 183.499695 91.190002 182.055695 93.134003 179.774689 C 102.733002 187.429703 114.871002 191.999695 128 191.999695 C 142.024994 191.999695 154.921997 186.786697 164.796997 178.163696 C 164.815002 178.894699 164.951996 179.627701 165.247009 180.328705 C 166.126007 182.42569 168.097992 183.807709 170.339996 183.967697 C 159.05899 193.93869 144.242004 199.999695 128 199.999695 C 111.713997 199.999695 96.862 193.905701 85.569 183.885696 M 127.988998 203.999695 C 134.615997 203.999695 139.988998 206.686707 139.988998 209.999695 C 139.988998 213.31369 134.615997 215.999695 127.988998 215.999695 C 121.435997 215.999695 116.119003 213.371704 116 210.110703 L 116 209.889694 C 116.119003 206.627701 121.435997 203.999695 127.988998 203.999695 M 192 139.999695 C 192 139.999695 189.122009 156.638702 185.563995 163.953705 C 185.446991 163.6297 185.311996 163.310699 185.136002 163.005707 C 184.067001 161.151703 182.074997 159.999695 179.938004 159.999695 L 179.919006 159.999695 C 179.436996 159.999695 178.964005 160.066696 178.505005 160.179703 C 181.537003 153.865692 183.423004 146.886688 183.877991 139.506699 L 184 137.534698 L 184 63.999695 L 192 63.999695 L 192 90.664703 Z M 192 11.999695 L 192 31.9897 L 192 43.999695 L 192 47.999695 L 184.089005 47.999695 L 184.089005 27.999695 L 184.089005 25.859695 L 182.307999 24.671692 C 181.776001 24.317688 168.832001 15.999695 128.088989 15.999695 C 96.951004 15.999695 84.561996 20.799698 78.608002 23.106689 C 77.591003 23.500702 76.440994 23.946701 76.044006 23.999695 C 73.537003 24.020691 72.151001 25.818695 71.925003 27.4897 C 71.848999 28.056702 71.897003 28.673691 72.089005 29.2677 L 72.089005 47.999695 L 64 47.999695 L 64 39.999695 L 64 33.99469 L 64 11.999695 Z M 244 75.999695 C 244 64.439697 237.091003 53.488693 223.988998 44.229691 L 223.988998 34.21669 C 223.988998 31.403702 222.490005 28.765701 220.076996 27.332687 C 212.386993 22.764694 202.583008 19.612701 196 17.826691 L 196 11.999695 L 196 7.999695 L 192 7.999695 L 64 7.999695 L 60 7.999695 L 60 11.999695 L 60 17.824692 C 53.410995 19.610687 43.595993 22.763687 35.901001 27.332687 C 33.488007 28.764694 31.988998 31.403702 31.988998 34.21669 L 31.988998 44.24469 C 18.901001 53.501694 12 64.446701 12 75.999695 L 12 159.999695 C 12 165.061707 13.345001 170.057709 16 174.867706 L 16 211.999695 L 17.169998 216.338699 C 21.078995 226.821701 34.725998 236.036697 56.238998 242.581696 C 56.811996 242.755692 57.404007 242.844696 58.001007 242.844696 C 59.677002 242.844696 61.292999 242.141693 62.436996 240.915695 C 62.582001 240.760696 62.716995 240.598694 62.843002 240.431702 C 81.647003 245.3367 104.248993 247.999695 127.988998 247.999695 C 151.958008 247.999695 174.764999 245.283691 193.675995 240.286697 C 193.811005 240.466705 193.953995 240.640701 194.110992 240.806702 C 195.246002 242.006699 196.841995 242.695694 198.490005 242.695694 C 199.091003 242.695694 199.688004 242.604706 200.266998 242.426697 C 221.481003 235.894699 234.951004 226.733704 238.828995 216.337708 L 240 211.999695 L 240 174.867706 C 242.654999 170.057709 244 165.061707 244 159.999695 Z"/>
    <path id="path6" fill="#ffffff" stroke="none" d="M 90.632301 144 C 87.894302 144 85.372299 145.376999 83.886299 147.682999 C 82.417297 149.960999 82.205299 152.787003 83.319298 155.242996 C 89.462303 168.79599 103.2173 178.192993 119.216301 179.766998 C 119.477303 179.791992 119.742302 179.804993 120.004303 179.804993 C 124.4133 179.804993 128.000305 176.214005 128.000305 171.798996 C 128.000305 167.664001 124.907303 164.246002 120.805298 163.845001 C 110.519302 162.835999 101.757301 157.052002 97.939301 148.748001 C 96.612297 145.863007 93.744301 144 90.632301 144 M 90.632301 148 C 92.230301 148 93.637299 148.968002 94.304298 150.419006 C 98.611298 159.785004 108.539299 166.660995 120.415298 167.824997 C 122.452301 168.024994 124.000298 169.747009 124.000298 171.794006 L 124.000298 171.798996 C 124.000298 174.027008 122.184303 175.804993 120.004303 175.804993 C 119.873299 175.804993 119.741302 175.798996 119.608299 175.785004 C 104.778297 174.326996 92.391296 165.570007 86.962303 153.59201 C 85.7733 150.971008 87.754303 148 90.632301 148"/>
</svg>
