<?xml version="1.0" encoding="UTF-8"?>
<!-- Generated by Pixelmator Pro 3.7.1 -->
<svg width="256" height="256" viewBox="0 0 256 256" xmlns="http://www.w3.org/2000/svg">
    <path id="Path" fill="#ffffff" stroke="none" d="M 136 116 L 156 116 L 156 112 L 136 112 Z"/>
    <path id="path1" fill="#ffffff" stroke="none" d="M 156 96 L 100 96 L 100 100 L 156 100 Z"/>
    <path id="path2" fill="#ffffff" stroke="none" d="M 156 104 L 100 104 L 100 108 L 156 108 Z"/>
    <path id="path3" fill="#ffffff" stroke="none" d="M 120 112 L 100 112 L 100 116 L 120 116 Z"/>
    <path id="path4" fill="#ffffff" stroke="none" d="M 156 128 L 100 128 L 100 132 L 156 132 Z"/>
    <path id="path5" fill="#ffffff" stroke="none" d="M 52.242199 158.666992 C 41.196201 158.666992 32.242199 149.712006 32.242199 138.666992 C 32.242199 127.621002 41.196201 118.667007 52.242199 118.667007 C 63.2882 118.667007 72.242203 127.621002 72.242203 138.666992 C 72.242203 149.712006 63.2882 158.666992 52.242199 158.666992 M 52.242199 114.667007 C 39.009201 114.667007 28.242201 125.432999 28.242201 138.666992 C 28.242201 151.899994 39.009201 162.666992 52.242199 162.666992 C 65.475197 162.666992 76.242203 151.899994 76.242203 138.666992 C 76.242203 125.432999 65.475197 114.667007 52.242199 114.667007"/>
    <path id="path6" fill="#ffffff" stroke="none" d="M 52.242199 146.666992 C 47.8312 146.666992 44.242199 143.078003 44.242199 138.666992 C 44.242199 134.255997 47.8312 130.666992 52.242199 130.666992 C 56.653198 130.666992 60.242199 134.255997 60.242199 138.666992 C 60.242199 143.078003 56.653198 146.666992 52.242199 146.666992 M 52.242199 126.667007 C 45.625198 126.667007 40.242199 132.050003 40.242199 138.666992 C 40.242199 145.28299 45.625198 150.666992 52.242199 150.666992 C 58.8592 150.666992 64.242203 145.28299 64.242203 138.666992 C 64.242203 132.050003 58.8592 126.667007 52.242199 126.667007"/>
    <path id="path7" fill="#ffffff" stroke="none" d="M 204.242203 158.666992 C 193.196198 158.666992 184.242203 149.712006 184.242203 138.666992 C 184.242203 127.621002 193.196198 118.667007 204.242203 118.667007 C 215.288193 118.667007 224.242203 127.621002 224.242203 138.666992 C 224.242203 149.712006 215.288193 158.666992 204.242203 158.666992 M 204.242203 114.667007 C 191.009201 114.667007 180.242203 125.432999 180.242203 138.666992 C 180.242203 151.899994 191.009201 162.666992 204.242203 162.666992 C 217.475204 162.666992 228.242203 151.899994 228.242203 138.666992 C 228.242203 125.432999 217.475204 114.667007 204.242203 114.667007"/>
    <path id="path8" fill="#ffffff" stroke="none" d="M 204.242203 146.666992 C 199.831207 146.666992 196.242203 143.078003 196.242203 138.666992 C 196.242203 134.255997 199.831207 130.666992 204.242203 130.666992 C 208.653198 130.666992 212.242203 134.255997 212.242203 138.666992 C 212.242203 143.078003 208.653198 146.666992 204.242203 146.666992 M 204.242203 126.667007 C 197.625198 126.667007 192.242203 132.050003 192.242203 138.666992 C 192.242203 145.28299 197.625198 150.666992 204.242203 150.666992 C 210.859207 150.666992 216.242203 145.28299 216.242203 138.666992 C 216.242203 132.050003 210.859207 126.667007 204.242203 126.667007"/>
    <path id="path9" fill="#ffffff" stroke="none" d="M 152 88 L 104 88 L 104 84 L 152 84 Z M 156 80 L 100 80 L 100 92 L 156 92 Z"/>
    <path id="path10" fill="#ffffff" stroke="none" d="M 156 122 L 156 120 L 100 120 L 100 122 L 100 124 L 156 124 Z"/>
    <path id="path11" fill="#ffffff" stroke="none" d="M 150.242203 156 C 149.138199 156 148.242203 155.104004 148.242203 154 C 148.242203 152.895996 149.138199 152 150.242203 152 C 151.346207 152 152.242203 152.895996 152.242203 154 C 152.242203 155.104004 151.346207 156 150.242203 156 M 150.242203 148 C 146.933197 148 144.242203 150.69101 144.242203 154 C 144.242203 157.30899 146.933197 160 150.242203 160 C 153.551193 160 156.242203 157.30899 156.242203 154 C 156.242203 150.69101 153.551193 148 150.242203 148"/>
    <path id="path12" fill="#ffffff" stroke="none" d="M 168 168 L 164 64 L 226.55899 64 C 227.419006 64 228.18399 64.550995 228.455994 65.367996 L 240 100 L 244 168 Z M 236 176 L 228 176 L 224 176 L 210.666992 176 L 205.459991 176 L 168 176 L 164 172 L 160 172 L 156 172 L 152 172 L 132 172 L 128 172 L 108 172 L 104 172 L 96 172 L 92 172 L 88 176 L 32 176 L 28 176 L 20 176 L 16 172 L 88 172 L 91.848999 172 L 91.997002 168.153 L 92.002998 168 L 163.996994 168 L 164.003006 168.153 L 164.149994 172 L 168 172 L 240 172 Z M 208.792999 180 L 215.459991 188 L 170.210007 188 C 168.942993 185.888 167.240005 182.761002 165.936996 179.593994 L 166.343002 180 L 168 180 L 206.666992 180 Z M 108 176 L 128 176 L 128 180 L 108 180 Z M 132 176 L 152 176 L 152 180 L 132 180 Z M 47.207001 180 L 49.333 180 L 88 180 L 89.656998 180 L 90.086998 179.569 C 88.792 182.727997 87.088997 185.850998 85.792999 188 L 40.540001 188 Z M 224 192 L 224 194 C 224 195.104004 223.104004 196 222 196 L 34 196 C 32.895996 196 32 195.104004 32 194 L 32 192 L 32 180 L 42 180 L 32 192 L 88 192 C 88 192 93.685997 183.471008 95.471001 176 L 104 176 L 104 180 L 104 184 L 108 184 L 128 184 L 132 184 L 152 184 L 156 184 L 156 180 L 156 176 L 160.529007 176 C 162.313995 183.471008 168 192 168 192 L 224 192 L 214 180 L 224 180 Z M 16 100 L 27.544006 65.367996 C 27.815994 64.550995 28.580994 64 29.440994 64 L 92 64 L 88 168 L 12 168 Z M 116 148 L 120 148 L 120 156 L 116 156 Z M 104 148 L 112 148 L 112 156 L 104 156 Z M 96 154 C 96 152.895996 96.896004 152 98 152 C 99.103996 152 100 152.895996 100 154 C 100 155.104004 99.103996 156 98 156 C 96.896004 156 96 155.104004 96 154 M 98 160 C 98.702003 160 99.373001 159.873001 100 159.649994 L 100 160 L 104 160 L 112 160 L 116 160 L 120 160 L 124 160 L 124 156 L 124 148 L 124 144 L 120 144 L 116 144 L 112 144 L 104 144 L 100 144 L 100 148 L 100 148.350006 C 99.373001 148.126999 98.702003 148 98 148 C 95.660004 148 93.634003 149.350006 92.644997 151.30899 L 95.695 72 L 160.304993 72 L 163.843002 164 L 92.156998 164 L 92.454002 156.281998 C 93.353996 158.462006 95.5 160 98 160 M 247.992996 167.764999 L 243.992996 99.764999 L 243.962006 99.237 L 243.794998 98.735001 L 232.251007 64.102997 C 231.432999 61.649002 229.145996 60 226.55899 60 L 164 60 L 159.843002 60 L 160.003006 64.153992 L 160.151001 68 L 95.848999 68 L 95.997002 64.153992 L 96.156998 60 L 92 60 L 29.440994 60 C 26.854996 60 24.567001 61.649002 23.75 64.102997 L 12.205002 98.735001 L 12.037994 99.237 L 12.007004 99.764999 L 8.007004 167.764999 L 7.757996 172 L 10.343002 172 L 17.171005 178.828003 L 18.343002 180 L 19.757996 180 L 20 180 L 28 180 L 28 194 C 28 197.30899 30.690994 200 34 200 L 222 200 C 225.30899 200 228 197.30899 228 194 L 228 180 L 231.757996 180 L 236 180 L 237.656998 180 L 238.828003 178.828003 L 245.656998 172 L 248.242004 172 Z"/>
</svg>
