<?xml version="1.0" encoding="UTF-8"?>
<!-- Generated by Pixelmator Pro 3.7.1 -->
<svg width="256" height="256" viewBox="0 0 256 256" xmlns="http://www.w3.org/2000/svg">
    <path id="Path" fill="#ffffff" stroke="none" d="M 232 238.957001 C 232 241.744995 229.675995 244 226.800003 244 L 29.199997 244 C 26.324005 244 24 241.744995 24 238.957001 L 24 17.042999 C 24 14.253998 26.324005 12 29.199997 12 L 226.800003 12 C 229.675995 12 232 14.253998 232 17.042999 Z M 226.800003 8 L 29.199997 8 C 24.126999 8 20 12.057007 20 17.042999 L 20 238.957001 C 20 243.942993 24.126999 248 29.199997 248 L 226.800003 248 C 231.873001 248 236 243.942993 236 238.957001 L 236 17.042999 C 236 12.057007 231.873001 8 226.800003 8"/>
    <path id="path1" fill="#ffffff" stroke="none" d="M 220 228.486298 C 220 232.630295 216.595001 236.000305 212.408005 236.000305 L 43.591995 236.000305 C 39.404999 236.000305 36 232.630295 36 228.486298 L 36 39.51329 C 36 35.3703 39.404999 32.000305 43.591995 32.000305 L 212.408005 32.000305 C 216.595001 32.000305 220 35.3703 220 39.51329 Z M 212.408005 28.000305 L 43.591995 28.000305 C 37.199997 28.000305 32 33.165298 32 39.51329 L 32 228.486298 C 32 234.835297 37.199997 240.000305 43.591995 240.000305 L 212.408005 240.000305 C 218.800003 240.000305 224 234.835297 224 228.486298 L 224 39.51329 C 224 33.165298 218.800003 28.000305 212.408005 28.000305"/>
    <path id="path2" fill="#ffffff" stroke="none" d="M 200 204 C 200 208.417999 195.970993 212 191 212 L 65 212 C 60.029007 212 56 208.417999 56 204 L 56 92 C 56 87.582001 60.029007 84 65 84 L 191 84 C 195.970993 84 200 87.582001 200 92 Z M 191 80 L 65 80 C 57.832001 80 52 85.382996 52 92 L 52 204 C 52 210.617004 57.832001 216 65 216 L 191 216 C 198.167999 216 204 210.617004 204 204 L 204 92 C 204 85.382996 198.167999 80 191 80"/>
</svg>
