<?xml version="1.0" encoding="UTF-8"?>
<!-- Generated by Pixelmator Pro 3.7.1 -->
<svg width="256" height="256" viewBox="0 0 256 256" xmlns="http://www.w3.org/2000/svg">
    <path id="Path" fill="#ffffff" stroke="none" d="M 244 184 L 12 184 L 12 60.330994 L 12.054993 60.65799 L 16 84.330994 L 16 112 L 16 116 L 20 116 L 236 116 L 240 116 L 240 112 L 240 84.330994 L 243.945007 60.65799 L 244 60.330994 Z M 244 200 L 12 200 L 12 188 L 244 188 Z M 160 106 L 160 94 C 160 90.69101 157.30899 88 154 88 L 172 88 L 192 88 L 212 88 L 236 88 L 236 112 L 212 112 L 192 112 L 172 112 L 154 112 C 157.30899 112 160 109.30899 160 106 M 96 106 L 96 94 C 96 92.895996 96.895996 92 98 92 L 154 92 C 155.104004 92 156 92.895996 156 94 L 156 106 C 156 107.104004 155.104004 108 154 108 L 98 108 C 96.895996 108 96 107.104004 96 106 M 98 112 L 80 112 L 60 112 L 40 112 L 20 112 L 20 88 L 40 88 L 60 88 L 80 88 L 98 88 C 94.690994 88 92 90.69101 92 94 L 92 106 C 92 109.30899 94.690994 112 98 112 M 20 84 L 16 60 L 240 60 L 236 84 M 244 52 L 12 52 L 8 52 L 8 56 L 8 184 L 8 188 L 8 200 L 8 204 L 12 204 L 244 204 L 248 204 L 248 200 L 248 188 L 248 184 L 248 56 L 248 52 Z"/>
    <path id="path1" fill="#ffffff" stroke="none" d="M 20 132 L 236 132 L 236 128 L 20 128 Z"/>
    <path id="path2" fill="#ffffff" stroke="none" d="M 20 124 L 236 124 L 236 120 L 20 120 Z"/>
    <path id="path3" fill="#ffffff" stroke="none" d="M 20 140 L 236 140 L 236 136 L 20 136 Z"/>
    <path id="path4" fill="#ffffff" stroke="none" d="M 20 148 L 236 148 L 236 144 L 20 144 Z"/>
    <path id="path5" fill="#ffffff" stroke="none" d="M 20 156 L 236 156 L 236 152 L 20 152 Z"/>
    <path id="path6" fill="#ffffff" stroke="none" d="M 20 164 L 236 164 L 236 160 L 20 160 Z"/>
    <path id="path7" fill="#ffffff" stroke="none" d="M 20 172 L 236 172 L 236 168 L 20 168 Z"/>
    <path id="path8" fill="#ffffff" stroke="none" d="M 20 180 L 236 180 L 236 176 L 20 176 Z"/>
    <path id="path9" fill="#ffffff" stroke="none" d="M 56 96 C 56 93.800003 57.799999 92 60 92 C 62.200001 92 64 93.800003 64 96 L 64 104 C 64 106.199997 62.200001 108 60 108 C 57.799999 108 56 106.199997 56 104 Z M 52 96 L 52 104 C 52 108.410995 55.589001 112 60 112 C 64.411003 112 68 108.410995 68 104 L 68 96 C 68 91.589005 64.411003 88 60 88 C 55.589001 88 52 91.589005 52 96"/>
    <path id="path10" fill="#ffffff" stroke="none" d="M 60 98 C 61.104 98 62 97.104004 62 96 C 62 94.895996 61.104 94 60 94 C 58.896 94 58 94.895996 58 96 C 58 97.104004 58.896 98 60 98"/>
    <path id="path11" fill="#ffffff" stroke="none" d="M 76 96 C 76 93.800003 77.800003 92 80 92 C 82.199997 92 84 93.800003 84 96 L 84 104 C 84 106.199997 82.199997 108 80 108 C 77.800003 108 76 106.199997 76 104 Z M 72 96 L 72 104 C 72 108.410995 75.588997 112 80 112 C 84.411003 112 88 108.410995 88 104 L 88 96 C 88 91.589005 84.411003 88 80 88 C 75.588997 88 72 91.589005 72 96"/>
    <path id="path12" fill="#ffffff" stroke="none" d="M 80 106 C 81.103996 106 82 105.104004 82 104 C 82 102.895996 81.103996 102 80 102 C 78.896004 102 78 102.895996 78 104 C 78 105.104004 78.896004 106 80 106"/>
    <path id="path13" fill="#ffffff" stroke="none" d="M 168 96 C 168 93.800003 169.800003 92 172 92 C 174.199997 92 176 93.800003 176 96 L 176 104 C 176 106.199997 174.199997 108 172 108 C 169.800003 108 168 106.199997 168 104 Z M 164 96 L 164 104 C 164 108.410995 167.589005 112 172 112 C 176.410995 112 180 108.410995 180 104 L 180 96 C 180 91.589005 176.410995 88 172 88 C 167.589005 88 164 91.589005 164 96"/>
    <path id="path14" fill="#ffffff" stroke="none" d="M 172 106 C 173.104004 106 174 105.104004 174 104 C 174 102.895996 173.104004 102 172 102 C 170.895996 102 170 102.895996 170 104 C 170 105.104004 170.895996 106 172 106"/>
    <path id="path15" fill="#ffffff" stroke="none" d="M 188 96 C 188 93.800003 189.800003 92 192 92 C 194.199997 92 196 93.800003 196 96 L 196 104 C 196 106.199997 194.199997 108 192 108 C 189.800003 108 188 106.199997 188 104 Z M 184 96 L 184 104 C 184 108.410995 187.589005 112 192 112 C 196.410995 112 200 108.410995 200 104 L 200 96 C 200 91.589005 196.410995 88 192 88 C 187.589005 88 184 91.589005 184 96"/>
    <path id="path16" fill="#ffffff" stroke="none" d="M 192 98 C 193.104004 98 194 97.104004 194 96 C 194 94.895996 193.104004 94 192 94 C 190.895996 94 190 94.895996 190 96 C 190 97.104004 190.895996 98 192 98"/>
</svg>
