<?xml version="1.0" encoding="UTF-8"?>
<!-- Generated by Pixelmator Pro 3.7.1 -->
<svg width="256" height="256" viewBox="0 0 256 256" xmlns="http://www.w3.org/2000/svg">
    <path id="Path" fill="#ffffff" stroke="none" d="M 244 224.296295 C 244 228.5513 240.354996 232.000305 235.860001 232.000305 L 204 232.000305 C 201.791 232.000305 200 230.209305 200 228.000305 L 147.936996 227.640305 L 147.942001 227.942307 C 147.973999 230.174301 146.174011 232.000305 143.942001 232.000305 L 20.139999 232.000305 C 15.645004 232.000305 12 228.5513 12 224.296295 L 12 31.703293 C 12 27.449295 15.645004 24.00029 20.139999 24.00029 L 144 24.00029 C 146.209 24.00029 148 25.79129 148 28.00029 L 200 28.00029 C 200 25.79129 201.791 24.00029 204 24.00029 L 235.860001 24.00029 C 240.354996 24.00029 244 27.449295 244 31.703293 Z M 235.860001 20.00029 L 204 20.00029 C 201.044998 20.00029 198.459 21.610291 197.074005 24.00029 L 150.925995 24.00029 C 149.541 21.610291 146.955002 20.00029 144 20.00029 L 20.139999 20.00029 C 13.445999 20.00029 8 25.25029 8 31.703293 L 8 224.296295 C 8 230.749298 13.445999 236.000305 20.139999 236.000305 L 143.942001 236.000305 C 146.100998 236.000305 148.123993 235.153305 149.639008 233.616302 C 150.21701 233.030304 150.692993 232.371307 151.059998 231.661301 L 197.061996 231.979294 C 198.444 234.380295 201.035995 236.000305 204 236.000305 L 235.860001 236.000305 C 242.554001 236.000305 248 230.749298 248 224.296295 L 248 31.703293 C 248 25.25029 242.554001 20.00029 235.860001 20.00029"/>
    <path id="path1" fill="#ffffff" stroke="none" d="M 232 218.042099 C 232 219.123108 231.123001 220.000092 230.042007 220.000092 L 25.957993 220.000092 C 24.876999 220.000092 24 219.123108 24 218.042099 L 24 37.958099 C 24 36.876099 24.876999 36.000092 25.957993 36.000092 L 28 36.000092 L 28 167.143097 L 28 171.238098 L 28 204.000092 L 228 204.000092 L 228 171.238098 L 228 167.143097 L 228 36.000092 L 230.042007 36.000092 C 231.123001 36.000092 232 36.876099 232 37.958099 Z M 223.953003 36.047104 L 223.953003 167.143097 L 223.953003 171.238098 L 223.953003 199.953094 L 32.046997 199.953094 L 32.046997 171.238098 L 32.046997 167.143097 L 32.046997 36.047104 Z M 230.042007 32.084106 L 226.537003 32.084106 C 226.365005 32.035095 226.186996 32.000092 226 32.000092 L 30 32.000092 C 29.813004 32.000092 29.634995 32.035095 29.462997 32.084106 L 25.957993 32.084106 C 22.718994 32.084106 20.084 34.719101 20.084 37.958099 L 20.084 218.042099 C 20.084 221.281097 22.718994 223.916107 25.957993 223.916107 L 230.042007 223.916107 C 233.281006 223.916107 235.916 221.281097 235.916 218.042099 L 235.916 37.958099 C 235.916 34.719101 233.281006 32.084106 230.042007 32.084106"/>
</svg>
