<?xml version="1.0" encoding="UTF-8"?>
<!-- Generated by Pixelmator Pro 3.7.1 -->
<svg width="256" height="256" viewBox="0 0 256 256" xmlns="http://www.w3.org/2000/svg">
    <path id="Path" fill="#ffffff" stroke="none" d="M 182 32 C 178.692001 32 176 34.692001 176 38 L 176 88 L 152 88 L 152 62 C 152 60.895004 151.104996 60 150 60 L 148 60 L 148 36 L 148 32 L 144 32 L 100 32 L 96 32 L 96 36 L 96 60 L 50 60 C 48.895004 60 48 60.895004 48 62 L 48 154 C 48 155.105011 48.895004 156 50 156 L 96 156 L 96 176 L 30 176 C 26.692001 176 24 178.692001 24 182 L 24 240 L 16 240 C 13.791 240 12 238.209 12 236 L 12 16 C 12 13.791 13.791 12 16 12 L 240 12 C 242.209 12 244 13.791 244 16 L 244 32 Z M 244 236 C 244 238.209 242.209 240 240 240 L 176 240 L 176 182 C 176 178.692001 173.307999 176 170 176 L 148 176 L 148 156 L 150 156 C 151.104996 156 152 155.105011 152 154 L 152 144 L 176 144 L 176 154 C 176 157.307999 178.692001 160 182 160 L 244 160 Z M 108 64 L 108 66 L 112 66 L 132 66 L 136 66 L 136 64 L 144 64 L 146 64 C 147.104996 64 148 64.895004 148 66 L 148 88 L 148 92 L 148 100 L 146 100 L 146 104 L 146 128 L 146 132 L 148 132 L 148 140 L 148 144 L 148 150 C 148 151.105011 147.104996 152 146 152 L 144 152 L 140 152 L 136 152 L 136 150 L 132 150 L 112 150 L 108 150 L 108 152 L 104 152 L 100 152 L 96 152 L 54 152 C 52.895004 152 52 151.105011 52 150 L 52 66 C 52 64.895004 52.895004 64 54 64 L 96 64 L 100 64 Z M 144 60 L 132 60 L 112 60 L 100 60 L 100 36 L 144 36 Z M 182 104 L 182 128 L 180 128 L 180 140 L 176 140 L 152 140 L 152 128 L 150 128 L 150 104 L 152 104 L 152 92 L 176 92 L 180 92 L 180 104 Z M 180 144 L 184 144 L 184 140 L 184 132 L 186 132 L 186 128 L 186 104 L 186 100 L 184 100 L 184 92 L 184 88 L 180 88 L 180 38 C 180 36.895004 180.895004 36 182 36 L 244 36 L 244 156 L 182 156 C 180.895004 156 180 155.105011 180 154 Z M 100 176 L 100 156 L 104 156 L 112 156 L 112 154 L 132 154 L 132 156 L 140 156 L 144 156 L 144 176 L 144 180 L 132 180 L 132 182 L 112 182 L 112 180 L 100 180 Z M 28 240 L 28 182 C 28 180.895004 28.895004 180 30 180 L 96 180 L 96 184 L 100 184 L 108 184 L 108 186 L 112 186 L 132 186 L 136 186 L 136 184 L 144 184 L 148 184 L 148 180 L 170 180 C 171.104996 180 172 180.895004 172 182 L 172 240 Z M 240 8 L 16 8 C 11.589005 8 8 11.589005 8 16 L 8 236 C 8 240.410995 11.589005 244 16 244 L 24 244 L 28 244 L 172 244 L 176 244 L 240 244 C 244.410995 244 248 240.410995 248 236 L 248 160 L 248 156 L 248 36 L 248 32 L 248 16 C 248 11.589005 244.410995 8 240 8"/>
    <path id="path1" fill="#ffffff" stroke="none" d="M 138 120 C 139.104996 120 140 120.895004 140 122 C 140 123.104996 139.104996 124 138 124 C 136.895004 124 136 123.104996 136 122 C 136 120.895004 136.895004 120 138 120 M 136 78 L 140 78 L 140 118 L 136 118 Z M 138 72 C 139.104996 72 140 72.895004 140 74 C 140 75.104996 139.104996 76 138 76 C 136.895004 76 136 75.104996 136 74 C 136 72.895004 136.895004 72 138 72 M 138 128 C 141.307999 128 144 125.307999 144 122 L 144 118 L 144 78 L 144 74 C 144 70.692001 141.307999 68 138 68 C 134.692001 68 132 70.692001 132 74 L 132 78 L 132 118 L 132 122 C 132 125.307999 134.692001 128 138 128"/>
    <path id="path2" fill="#ffffff" stroke="none" d="M 184 185 C 184 184.447998 184.447998 184 185 184 L 235 184 C 235.552002 184 236 184.447998 236 185 L 236 231 C 236 231.552002 235.552002 232 235 232 L 185 232 C 184.447998 232 184 231.552002 184 231 Z M 180 185 L 180 231 C 180 233.757004 182.242996 236 185 236 L 235 236 C 237.757004 236 240 233.757004 240 231 L 240 185 C 240 182.242996 237.757004 180 235 180 L 185 180 C 182.242996 180 180 182.242996 180 185"/>
</svg>
