<?xml version="1.0" encoding="UTF-8"?>
<!-- Generated by Pixelmator Pro 3.7.1 -->
<svg width="256" height="256" viewBox="0 0 256 256" xmlns="http://www.w3.org/2000/svg">
    <path id="Path" fill="#ffffff" stroke="none" d="M 236 56 L 20 56 C 13.382996 56 8 61.382996 8 68 L 8 192 C 8 198.617004 13.382996 204 20 204 L 236 204 C 242.617004 204 248 198.617004 248 192 L 248 68 C 248 61.382996 242.617004 56 236 56 M 236 60 C 240.399994 60 244 63.600006 244 68 L 244 192 C 244 196.399994 240.399994 200 236 200 L 20 200 C 15.600006 200 12 196.399994 12 192 L 12 68 C 12 63.600006 15.600006 60 20 60 L 236 60"/>
    <path id="path1" fill="#ffffff" stroke="none" d="M 220 92 L 36 92 C 31.589005 92 28 95.589005 28 100 L 28 172 C 28 176.411011 31.589005 180 36 180 L 220 180 C 224.410995 180 228 176.411011 228 172 L 228 100 C 228 95.589005 224.410995 92 220 92 M 220 96 C 222.209 96 224 97.791 224 100 L 224 172 C 224 174.209 222.209 176 220 176 L 36 176 C 33.791 176 32 174.209 32 172 L 32 100 C 32 97.791 33.791 96 36 96 L 220 96"/>
</svg>
