<?xml version="1.0" encoding="UTF-8"?>
<!-- Generated by Pixelmator Pro 3.7.1 -->
<svg width="256" height="256" viewBox="0 0 256 256" xmlns="http://www.w3.org/2000/svg">
    <path id="Path" fill="#ffffff" stroke="none" d="M 124 112 L 196 112 L 196 120 L 124 120 Z M 196 124 L 200 124 L 200 120 L 200 112 L 200 108 L 196 108 L 124 108 L 120 108 L 120 112 L 120 120 L 120 124 L 124 124 Z"/>
    <path id="path1" fill="#ffffff" stroke="none" d="M 62 140 C 63.104 140 64 139.104004 64 138 C 64 136.895996 63.104 136 62 136 C 60.896 136 60 136.895996 60 138 C 60 139.104004 60.896 140 62 140"/>
    <path id="path2" fill="#ffffff" stroke="none" d="M 132 144 L 188 144 L 188 152 L 132 152 Z M 188 172 L 172 172 L 168 172 L 148 172 L 144 172 L 132 172 L 132 156 L 188 156 Z M 168 184 L 148 184 L 148 176 L 168 176 Z M 144 184 L 132 184 L 132 176 L 144 176 Z M 188 140 L 132 140 L 128 140 L 128 144 L 128 152 L 128 156 L 128 172 L 128 176 L 128 184 L 128 188 L 132 188 L 144 188 L 148 188 L 168 188 L 172 188 L 172 184 L 172 176 L 188 176 L 192 176 L 192 172 L 192 156 L 192 152 L 192 144 L 192 140 Z"/>
    <path id="path3" fill="#ffffff" stroke="none" d="M 240 192 L 240 195.350998 L 239.794998 194.735001 L 238.882996 192 L 236 192 L 235.651993 192 L 229.391998 120 L 229.389008 120 L 231.945007 104.65799 L 232.722 100 L 228 100 L 24 100 L 19.278 100 L 20.054993 104.65799 L 22.610992 120 L 22.608994 120 L 16.348007 192 L 16 192 L 13.117004 192 L 12.205002 194.735001 L 12 195.350998 L 12 192 L 12 56 L 20 48 L 24 48 L 228 48 L 232 48 L 240 56 Z M 25.580002 132 L 28 132 L 76 132 L 76 192 L 20.363007 192 Z M 224 128 L 28 128 L 24 104 L 228 104 Z M 204 132 L 224 132 L 226.419998 132 L 231.636993 192 L 204 192 Z M 120 132 L 200 132 L 200 192 L 120 192 Z M 80 132 L 116 132 L 116 192 L 80 192 Z M 12 208 L 16 196 L 116 196 L 120 196 L 200 196 L 204 196 L 236 196 L 240 208 Z M 242.828003 53.171005 L 234.828003 45.171005 L 233.656998 44 L 232 44 L 228 44 L 24 44 L 20 44 L 18.343002 44 L 17.171005 45.171005 L 9.171005 53.171005 L 8 54.343002 L 8 56 L 6.449997 212 L 244 212 L 244 56 L 244 54.343002 Z"/>
    <path id="path4" fill="#ffffff" stroke="none" d="M 84 144 L 88 144 L 88 140 L 84 140 Z"/>
    <path id="path5" fill="#ffffff" stroke="none" d="M 92 144 L 96 144 L 96 140 L 92 140 Z"/>
    <path id="path6" fill="#ffffff" stroke="none" d="M 100 144 L 104 144 L 104 140 L 100 140 Z"/>
    <path id="path7" fill="#ffffff" stroke="none" d="M 108 144 L 112 144 L 112 140 L 108 140 Z"/>
    <path id="path8" fill="#ffffff" stroke="none" d="M 84 152 L 88 152 L 88 148 L 84 148 Z"/>
    <path id="path9" fill="#ffffff" stroke="none" d="M 92 152 L 96 152 L 96 148 L 92 148 Z"/>
    <path id="path10" fill="#ffffff" stroke="none" d="M 100 152 L 104 152 L 104 148 L 100 148 Z"/>
    <path id="path11" fill="#ffffff" stroke="none" d="M 108 152 L 112 152 L 112 148 L 108 148 Z"/>
    <path id="path12" fill="#ffffff" stroke="none" d="M 84 160 L 88 160 L 88 156 L 84 156 Z"/>
    <path id="path13" fill="#ffffff" stroke="none" d="M 92 160 L 96 160 L 96 156 L 92 156 Z"/>
    <path id="path14" fill="#ffffff" stroke="none" d="M 100 160 L 104 160 L 104 156 L 100 156 Z"/>
    <path id="path15" fill="#ffffff" stroke="none" d="M 108 160 L 112 160 L 112 156 L 108 156 Z"/>
    <path id="path16" fill="#ffffff" stroke="none" d="M 84 168 L 88 168 L 88 164 L 84 164 Z"/>
    <path id="path17" fill="#ffffff" stroke="none" d="M 92 168 L 96 168 L 96 164 L 92 164 Z"/>
    <path id="path18" fill="#ffffff" stroke="none" d="M 100 168 L 104 168 L 104 164 L 100 164 Z"/>
    <path id="path19" fill="#ffffff" stroke="none" d="M 108 168 L 112 168 L 112 164 L 108 164 Z"/>
    <path id="path20" fill="#ffffff" stroke="none" d="M 84 176 L 88 176 L 88 172 L 84 172 Z"/>
    <path id="path21" fill="#ffffff" stroke="none" d="M 92 176 L 96 176 L 96 172 L 92 172 Z"/>
    <path id="path22" fill="#ffffff" stroke="none" d="M 100 176 L 104 176 L 104 172 L 100 172 Z"/>
    <path id="path23" fill="#ffffff" stroke="none" d="M 108 176 L 112 176 L 112 172 L 108 172 Z"/>
    <path id="path24" fill="#ffffff" stroke="none" d="M 84 184 L 88 184 L 88 180 L 84 180 Z"/>
    <path id="path25" fill="#ffffff" stroke="none" d="M 92 184 L 96 184 L 96 180 L 92 180 Z"/>
    <path id="path26" fill="#ffffff" stroke="none" d="M 100 184 L 104 184 L 104 180 L 100 180 Z"/>
    <path id="path27" fill="#ffffff" stroke="none" d="M 108 184 L 112 184 L 112 180 L 108 180 Z"/>
</svg>
