<?xml version="1.0" encoding="UTF-8"?>
<!-- Generated by Pixelmator Pro 3.7.1 -->
<svg width="256" height="256" viewBox="0 0 256 256" xmlns="http://www.w3.org/2000/svg">
    <path id="Path" fill="#ffffff" stroke="none" d="M 200 164 L 216 164 L 216 172 L 200 172 Z M 213.970993 232 L 193.964996 232 C 190.421997 232 186.940002 232.800995 183.725006 234.287003 C 176.576004 237.591003 154.332993 240 128 240 C 101.667 240 79.424004 237.591003 72.275002 234.287003 C 69.059998 232.800995 65.577003 232 62.035 232 L 42.028999 232 C 35.298 232 27.875 226.488007 28.002001 219.774002 L 29.985001 148.923004 C 34.867001 150.554993 51.911999 156 62.084999 156 L 69.629997 156 C 72.848999 156 76.082001 155.679993 79.238998 155.048004 L 110.011002 148.893997 C 110.010002 148.929993 110 148.963989 110 149 L 110 157.582001 C 107.694 157.428009 105.396004 157.244003 103.124001 157.001007 C 96.999001 156.346008 90.061996 156 83.063004 156 C 71.913002 156 60.707001 156.877991 52.32 158.40799 C 44.25 159.880997 36 162.171997 36 168 C 36 173.828003 44.25 176.119003 52.32 177.59201 C 60.707001 179.122009 71.913002 180 83.063004 180 C 86.713997 180 90.344002 179.903992 93.853996 179.721008 C 96.115997 181.524002 100.149002 182.244995 104.258003 182.792999 C 110.094002 183.570999 117.815002 184 126 184 C 134.184998 184 141.906006 183.570999 147.742004 182.792999 C 151.656998 182.270996 155.509003 181.596008 157.820999 179.973999 C 158.873993 179.988998 159.929001 180 160.987 180 C 174.197006 180 186.444 178.806 194.589005 176.723999 C 196.468002 176.244003 198.317001 176 200.085007 176 L 216 176 L 220 176 L 220 172 L 220 164 L 220 160 L 216 160 L 200.082001 160 C 198.315994 160 196.468002 159.755997 194.587997 159.276001 C 186.444 157.194 174.197006 156 160.987 156 C 155.858994 156 150.766998 156.188004 146 156.544998 L 146 149 C 146 148.951996 145.987 148.906998 145.985992 148.859009 L 176.932007 155.048004 C 180.089005 155.679993 183.322006 156 186.541 156 L 194.085007 156 C 204.113998 156 220.966995 150.636002 225.936005 148.979004 L 227.998001 219.774002 C 228.125 226.488007 220.701996 232 213.970993 232 M 34.723999 50.964996 L 35.652 22.194 C 36.316002 20.895004 37.655998 20 39.213001 20 L 56.126999 20 C 50.932999 22.520996 45.554001 26.380005 43.68 32 C 39.68 44 35.68 144 35.68 144 L 32 144.518005 Z M 114 157.807999 L 114 149 C 114 148.64801 114.193001 148.35199 114.469002 148.174011 C 115.625 148.05899 116.787003 148 117.946999 148 L 126.084999 148 L 130.085007 148 L 138.223999 148 C 139.319 148 140.414993 148.056 141.507996 148.158997 C 141.796997 148.334 142 148.636993 142 149 L 142 156.894989 C 141.643005 156.929993 141.279007 156.962997 140.927002 157.001007 C 134.727997 157.664001 128.369003 158 122.025002 158 C 119.348 158 116.669998 157.927002 114 157.807999 M 143.488007 179.248993 C 138.563995 179.721008 132.528 180 126 180 C 117.750999 180 110.280998 179.556 104.857002 178.837006 C 110.507004 178.291 116.269997 178 122.025002 178 C 128.369003 178 134.727997 178.335999 140.927002 178.998993 C 141.764999 179.088989 142.621002 179.17099 143.488007 179.248993 M 141.352005 175.022003 C 134.932007 174.334991 128.483994 174 122.025002 174 L 122.025002 174 C 115.567001 174 109.119003 174.334991 102.698997 175.022003 C 96.870003 175.644989 90.181999 176 83.063004 176 C 60.412998 176 40 172.417999 40 168 C 40 163.582001 60.412998 160 83.063004 160 C 90.181999 160 96.870003 160.355011 102.698997 160.977997 C 109.119003 161.665009 115.567001 162 122.025002 162 L 122.025002 162 C 128.483994 162 134.932007 161.665009 141.352005 160.977997 C 147.181 160.355011 153.869003 160 160.987 160 C 174.289993 160 186.106003 161.235992 193.598007 163.151001 C 194.391006 163.354004 195.194 163.511993 196 163.643997 L 196 164 L 196 172 L 196 172.356003 C 195.192993 172.488007 194.391006 172.645996 193.598007 172.848999 C 186.106995 174.764008 174.289993 176 160.987 176 C 153.869003 176 147.181 175.644989 141.352005 175.022003 M 66.753998 20 L 191.102005 20 L 196.557007 22.110001 C 200.889999 23.787003 208.447998 27.464996 210.380997 33.264999 C 213.184006 41.673996 216.580002 104.190994 218.179001 144.160004 L 218.300003 147.19101 C 210.591995 149.484009 200.513 152 194.085007 152 L 186.541 152 C 183.578003 152 180.621994 151.707001 177.716003 151.126007 L 145.871994 144.757004 C 144.735001 144.529999 143.587997 144.360992 142.436996 144.235992 C 141.979004 144.097 141.503006 144 141 144 L 138.223999 144 L 130.085007 144 L 126.084999 144 L 117.946999 144 L 115 144 C 114.456001 144 113.941002 144.109009 113.449997 144.270996 C 112.393997 144.393005 111.342003 144.549011 110.299004 144.757004 L 78.455002 151.126007 C 75.549004 151.707001 72.593002 152 69.629997 152 L 62.084999 152 C 55.983002 152 46.597 149.744995 39.067001 147.563004 L 39.543999 147.496002 L 39.676998 144.160004 C 41.276001 104.190002 44.672001 41.673996 47.474998 33.264999 C 49.408001 27.464996 56.966 23.787003 61.299 22.110001 Z M 218.283997 20 C 220.181 20 221.770996 21.317993 222.184998 23.091003 L 222.617004 36.464005 L 222.714005 38.397003 L 225.806 144.511002 L 222.175995 144 C 222.175995 144 218.175995 44 214.175995 32 C 212.302994 26.380005 206.923004 22.520996 201.729996 20 Z M 229.942001 149.132004 L 229.992004 149.139008 L 229.854004 144.401001 L 227.130005 50.848007 L 227.037003 47.951996 L 226.813004 40.279007 L 226.811996 40.237 L 226.809998 40.194 L 226.744995 38.912003 L 226.595993 34.294998 L 226.291 23.807999 C 226.285995 23.533005 226.264999 23.261993 226.231995 22.994995 L 226.201996 22.065002 L 225.766006 20.373993 C 224.421997 17.742996 221.792999 16.084 218.867004 16.003006 C 217.664993 15.888 210.039993 15.173996 198.266006 14.389008 L 173.123001 13.044998 C 159.669998 12.447998 144.184998 12 128 12 C 112.658997 12 97.934998 12.403 84.971001 12.953003 L 70.757004 13.643997 C 51.507 14.699997 38.521 15.893997 37.287998 16.009003 C 37.273998 16.009995 37.261002 16.011002 37.247002 16.011993 C 33.02 16.143005 29.559 19.606995 29.483999 23.858002 L 24.003 219.662003 C 23.931 223.449997 25.516001 227.169998 28.464001 230.175003 C 32.042999 233.822006 37.113998 236 42.028999 236 L 62.035 236 C 64.962997 236 67.844002 236.645004 70.597 237.917999 C 78.592003 241.613007 101.124001 244 128 244 C 154.876007 244 177.408005 241.613007 185.403 237.917999 C 188.156006 236.645004 191.037003 236 193.964996 236 L 213.970993 236 C 218.886002 236 223.957001 233.822006 227.535995 230.175003 C 230.483994 227.169998 232.069 223.449997 231.998001 219.697998 Z"/>
</svg>
