<?xml version="1.0" encoding="UTF-8"?>
<!-- Generated by Pixelmator Pro 3.7.1 -->
<svg width="256" height="256" viewBox="0 0 256 256" xmlns="http://www.w3.org/2000/svg">
    <path id="Path" fill="#ffffff" stroke="none" d="M 226 64 L 204 64 L 204 52 L 226 52 Z M 200 64 L 180 64 L 180 52 L 200 52 Z M 176 64 L 156 64 L 156 52 L 176 52 Z M 152 64 L 132 64 L 132 52 L 152 52 Z M 128 64 L 108 64 L 108 52 L 128 52 Z M 104 64 L 32 64 L 32 52 L 104 52 Z M 204 48 L 200 48 L 180 48 L 176 48 L 156 48 L 152 48 L 132 48 L 128 48 L 108 48 L 104 48 L 32 48 L 28 48 L 28 52 L 28 64 L 28 68 L 32 68 L 104 68 L 108 68 L 128 68 L 132 68 L 152 68 L 156 68 L 176 68 L 180 68 L 200 68 L 204 68 L 226 68 L 230 68 L 230 64 L 230 52 L 230 48 L 226 48 Z"/>
    <path id="path1" fill="#ffffff" stroke="none" d="M 44 128 L 224 128 L 224 124 L 44 124 Z"/>
    <path id="path2" fill="#ffffff" stroke="none" d="M 44 120 L 32 120 L 32 124 L 44 124 Z"/>
    <path id="path3" fill="#ffffff" stroke="none" d="M 44 128 L 32 128 L 32 132 L 44 132 Z"/>
    <path id="path4" fill="#ffffff" stroke="none" d="M 224 124 L 232 124 L 232 120 L 224 120 Z"/>
    <path id="path5" fill="#ffffff" stroke="none" d="M 224 132 L 232 132 L 232 128 L 224 128 Z"/>
    <path id="path6" fill="#ffffff" stroke="none" d="M 244 96 L 12 96 L 12 44 L 244 44 Z M 240 108 L 16 108 L 12 100 L 244 100 Z M 240 124 L 232 124 L 232 128 L 240 128 L 240 196 L 236 196 L 236 188 L 236 184 L 236 164 L 236 160 L 236 152 L 236 148 L 236 140 L 236 136 L 232 136 L 224 136 L 220 136 L 216 136 L 208 136 L 204 136 L 204 140 L 204 148 L 196 148 L 196 140 L 196 136 L 192 136 L 184 136 L 180 136 L 172 136 L 168 136 L 160 136 L 156 136 L 148 136 L 144 136 L 144 140 L 144 148 L 136 148 L 132 148 L 124 148 L 120 148 L 112 148 L 108 148 L 100 148 L 96 148 L 88 148 L 84 148 L 76 148 L 72 148 L 64 148 L 60 148 L 52 148 L 48 148 L 40 148 L 36 148 L 36 152 L 36 160 L 32 160 L 24 160 L 20 160 L 20 164 L 20 172 L 20 176 L 20 184 L 20 188 L 20 196 L 16 196 L 16 128 L 32 128 L 32 124 L 16 124 L 16 112 L 240 112 Z M 240 212 L 168 212 L 168 200 L 176 200 L 180 200 L 188 200 L 192 200 L 200 200 L 204 200 L 212 200 L 216 200 L 232 200 L 236 200 L 240 200 Z M 164 184 L 160 184 L 160 176 L 164 176 L 168 176 L 168 184 Z M 164 196 L 156 196 L 156 188 L 160 188 L 164 188 Z M 164 212 L 92 212 L 92 200 L 96 200 L 104 200 L 108 200 L 116 200 L 120 200 L 128 200 L 132 200 L 140 200 L 144 200 L 152 200 L 156 200 L 164 200 Z M 88 196 L 84 196 L 84 188 L 88 188 L 92 188 L 92 196 Z M 44 164 L 44 172 L 40 172 L 36 172 L 36 164 L 40 164 Z M 48 160 L 44 160 L 40 160 L 40 152 L 48 152 Z M 56 164 L 56 172 L 52 172 L 48 172 L 48 164 L 52 164 Z M 60 160 L 56 160 L 52 160 L 52 152 L 60 152 Z M 68 164 L 68 172 L 64 172 L 60 172 L 60 164 L 64 164 Z M 72 160 L 68 160 L 64 160 L 64 152 L 72 152 Z M 80 164 L 80 172 L 76 172 L 72 172 L 72 164 L 76 164 Z M 76 184 L 76 176 L 80 176 L 84 176 L 84 184 L 80 184 Z M 72 188 L 76 188 L 80 188 L 80 196 L 72 196 Z M 64 184 L 64 176 L 68 176 L 72 176 L 72 184 L 68 184 Z M 60 188 L 64 188 L 68 188 L 68 196 L 60 196 Z M 52 184 L 52 176 L 56 176 L 60 176 L 60 184 L 56 184 Z M 44 184 L 40 184 L 40 176 L 44 176 L 48 176 L 48 184 Z M 48 188 L 52 188 L 56 188 L 56 196 L 48 196 Z M 84 160 L 80 160 L 76 160 L 76 152 L 84 152 Z M 92 164 L 92 172 L 88 172 L 84 172 L 84 164 L 88 164 Z M 96 160 L 92 160 L 88 160 L 88 152 L 96 152 Z M 104 164 L 104 172 L 100 172 L 96 172 L 96 164 L 100 164 Z M 108 160 L 104 160 L 100 160 L 100 152 L 108 152 Z M 116 164 L 116 172 L 112 172 L 108 172 L 108 164 L 112 164 Z M 120 160 L 116 160 L 112 160 L 112 152 L 120 152 Z M 128 164 L 128 172 L 124 172 L 120 172 L 120 164 L 124 164 Z M 132 160 L 128 160 L 124 160 L 124 152 L 132 152 Z M 140 164 L 140 172 L 136 172 L 132 172 L 132 164 L 136 164 Z M 144 160 L 140 160 L 136 160 L 136 152 L 144 152 Z M 152 164 L 152 172 L 148 172 L 144 172 L 144 164 L 148 164 Z M 148 184 L 148 176 L 152 176 L 156 176 L 156 184 L 152 184 Z M 144 188 L 148 188 L 152 188 L 152 196 L 144 196 Z M 136 184 L 136 176 L 140 176 L 144 176 L 144 184 L 140 184 Z M 132 188 L 136 188 L 140 188 L 140 196 L 132 196 Z M 124 184 L 124 176 L 128 176 L 132 176 L 132 184 L 128 184 Z M 120 188 L 124 188 L 128 188 L 128 196 L 120 196 Z M 112 184 L 112 176 L 116 176 L 120 176 L 120 184 L 116 184 Z M 108 188 L 112 188 L 116 188 L 116 196 L 108 196 Z M 100 184 L 100 176 L 104 176 L 108 176 L 108 184 L 104 184 Z M 92 184 L 88 184 L 88 176 L 92 176 L 96 176 L 96 184 Z M 96 188 L 100 188 L 104 188 L 104 196 L 96 196 Z M 156 152 L 156 160 L 152 160 L 148 160 L 148 152 Z M 156 148 L 148 148 L 148 140 L 156 140 Z M 164 164 L 164 172 L 160 172 L 156 172 L 156 164 L 160 164 Z M 168 152 L 168 160 L 164 160 L 160 160 L 160 152 Z M 168 148 L 160 148 L 160 140 L 168 140 Z M 176 164 L 176 172 L 172 172 L 168 172 L 168 164 L 172 164 Z M 180 152 L 180 160 L 176 160 L 172 160 L 172 152 Z M 180 148 L 172 148 L 172 140 L 180 140 Z M 188 164 L 188 172 L 184 172 L 180 172 L 180 164 L 184 164 Z M 192 152 L 192 160 L 188 160 L 184 160 L 184 152 Z M 192 148 L 184 148 L 184 140 L 192 140 Z M 200 164 L 200 172 L 196 172 L 192 172 L 192 164 L 196 164 Z M 204 160 L 200 160 L 196 160 L 196 152 L 204 152 Z M 212 164 L 212 172 L 208 172 L 204 172 L 204 164 L 208 164 Z M 216 152 L 216 160 L 212 160 L 208 160 L 208 152 Z M 216 148 L 208 148 L 208 140 L 216 140 Z M 208 184 L 208 176 L 212 176 L 216 176 L 216 184 L 212 184 Z M 204 188 L 208 188 L 212 188 L 212 196 L 204 196 Z M 196 184 L 196 176 L 200 176 L 204 176 L 204 184 L 200 184 Z M 192 188 L 196 188 L 200 188 L 200 196 L 192 196 Z M 184 184 L 184 176 L 188 176 L 192 176 L 192 184 L 188 184 Z M 180 188 L 184 188 L 188 188 L 188 196 L 180 196 Z M 176 188 L 176 196 L 168 196 L 168 188 L 172 188 Z M 172 184 L 172 176 L 176 176 L 180 176 L 180 184 L 176 184 Z M 232 188 L 232 196 L 216 196 L 216 188 L 220 188 Z M 232 164 L 232 184 L 220 184 L 220 176 L 220 172 L 220 164 L 224 164 Z M 224 140 L 232 140 L 232 148 L 224 148 Z M 232 160 L 224 160 L 224 152 L 232 152 Z M 36 188 L 40 188 L 44 188 L 44 196 L 24 196 L 24 188 Z M 24 164 L 32 164 L 32 172 L 24 172 Z M 32 176 L 36 176 L 36 184 L 24 184 L 24 176 Z M 88 212 L 16 212 L 16 200 L 20 200 L 24 200 L 44 200 L 48 200 L 56 200 L 60 200 L 68 200 L 72 200 L 80 200 L 84 200 L 88 200 Z M 248 96 L 248 88 L 248 44 L 248 40 L 244 40 L 12 40 L 8 40 L 8 44 L 8 80 L 8 96 L 8 100.944 L 8.422 101.789001 L 12 108.944 L 12 112 L 12 196 L 12 200 L 12 212 L 12 216 L 16 216 L 88 216 L 92 216 L 164 216 L 168 216 L 240 216 L 244 216 L 244 212 L 244 200 L 244 196 L 244 112 L 244 108.944 L 247.578003 101.789001 L 248 100.944 Z"/>
</svg>
