<?xml version="1.0" encoding="UTF-8"?>
<!-- Generated by Pixelmator Pro 3.7.1 -->
<svg width="256" height="256" viewBox="0 0 256 256" xmlns="http://www.w3.org/2000/svg">
    <path id="Path" fill="#ffffff" stroke="none" d="M 244 47.999893 L 226 47.999893 C 224.895004 47.999893 224 48.894897 224 49.999893 C 224 51.104904 224.895004 51.999893 226 51.999893 L 244 51.999893 L 244 55.999893 L 226 55.999893 C 224.895004 55.999893 224 56.894897 224 57.999893 C 224 59.104904 224.895004 59.999893 226 59.999893 L 244 59.999893 L 244 63.999893 L 226 63.999893 C 224.895004 63.999893 224 64.894897 224 65.999893 C 224 67.104904 224.895004 67.999893 226 67.999893 L 244 67.999893 L 244 211.999908 C 244 218.626892 238.626999 223.999908 232 223.999908 L 88 223.999908 C 81.373001 223.999908 76 218.626892 76 211.999908 L 76 93.999893 C 76 92.895905 75.104996 91.999893 74 91.999893 C 72.895004 91.999893 72 91.104904 72 89.999893 L 72 67.999893 L 86 67.999893 C 87.104996 67.999893 88 67.104904 88 65.999893 C 88 64.894897 87.104996 63.999893 86 63.999893 L 72 63.999893 L 72 59.999893 L 86 59.999893 C 87.104996 59.999893 88 59.104904 88 57.999893 C 88 56.894897 87.104996 55.999893 86 55.999893 L 72 55.999893 L 72 51.999893 L 86 51.999893 C 87.104996 51.999893 88 51.104904 88 49.999893 C 88 48.894897 87.104996 47.999893 86 47.999893 L 72 47.999893 L 72 43.999893 C 72 37.372894 77.373001 31.999893 84 31.999893 L 232 31.999893 C 238.626999 31.999893 244 37.372894 244 43.999893 Z M 72 159.999908 L 68 159.999908 L 68 89.999893 C 68 92.607895 69.671997 94.831894 72 95.656906 Z M 72 183.999908 L 68 183.999908 L 68 163.999908 L 72 163.999908 Z M 64 203.999908 C 64 215.045898 55.046005 223.999908 44 223.999908 L 32 223.999908 C 20.953995 223.999908 12 215.045898 12 203.999908 L 12 51.999893 C 12 40.953903 20.953995 31.999893 32 31.999893 L 44 31.999893 C 55.046005 31.999893 64 40.953903 64 51.999893 Z M 232 27.999893 L 84 27.999893 C 75.177994 27.999893 68 35.177902 68 43.999893 L 68 51.999893 C 68 38.7659 57.233994 27.999893 44 27.999893 L 32 27.999893 C 18.766006 27.999893 8 38.7659 8 51.999893 L 8 203.999908 C 8 217.233887 18.766006 227.999908 32 227.999908 L 44 227.999908 C 57.233994 227.999908 68 217.233887 68 203.999908 L 68 187.999908 L 72 187.999908 L 72 211.999908 C 72 220.822906 79.177994 227.999908 88 227.999908 L 232 227.999908 C 240.822006 227.999908 248 220.822906 248 211.999908 L 248 43.999893 C 248 35.177902 240.822006 27.999893 232 27.999893"/>
    <path id="path1" fill="#ffffff" stroke="none" d="M 224 108 L 224 196 C 224 200.417999 220.417999 204 216 204 L 184 204 C 179.582001 204 176 200.417999 176 196 L 176 108 C 176 103.582001 179.582001 100 184 100 L 216 100 C 220.417999 100 224 103.582001 224 108 M 184 96 C 177.382996 96 172 101.382996 172 108 L 172 196 C 172 202.617004 177.382996 208 184 208 L 216 208 C 222.617004 208 228 202.617004 228 196 L 228 108 C 228 101.382996 222.617004 96 216 96 Z"/>
    <path id="path2" fill="#ffffff" stroke="none" d="M 188 188 C 188 185.791 189.791 184 192 184 L 208 184 C 210.209 184 212 185.791 212 188 Z M 208 196 L 192 196 C 189.791 196 188 194.209 188 192 L 212 192 C 212 194.209 210.209 196 208 196 M 208 180 L 192 180 C 187.589005 180 184 183.588989 184 188 L 184 192 C 184 196.410995 187.589005 200 192 200 L 208 200 C 212.410995 200 216 196.410995 216 192 L 216 188 C 216 183.588989 212.410995 180 208 180"/>
    <path id="path3" fill="#ffffff" stroke="none" d="M 183.414093 108.585907 C 183.023102 108.194901 182.5121 107.999893 182.000107 107.999893 C 181.488098 107.999893 180.976105 108.194901 180.586105 108.585907 C 179.805099 109.366898 179.805099 110.632904 180.586105 111.413895 L 216.586105 147.41391 C 217.367096 148.194901 218.633102 148.194901 219.414093 147.41391 C 220.195099 146.632904 220.195099 145.366898 219.414093 144.585907 Z"/>
    <path id="path4" fill="#ffffff" stroke="none" d="M 204.586197 147.4142 C 204.961197 147.7892 205.4702 148.000198 206.000198 148.000198 L 206.000198 148.000198 C 207.782196 148.000198 208.674194 145.846191 207.4142 144.586197 L 183.4142 120.586197 C 183.023193 120.195206 182.512207 120.000198 182.000198 120.000198 C 181.440201 120.000198 180.880203 120.234207 180.478195 120.702194 C 179.785202 121.5112 179.919205 122.747208 180.672195 123.500198 Z"/>
    <path id="path5" fill="#ffffff" stroke="none" d="M 183.916 145.087891 L 183.414001 144.585907 C 183.022995 144.194901 182.511993 143.999908 182 143.999908 C 181.440002 143.999908 180.880005 144.233902 180.477997 144.701904 C 179.785004 145.510895 179.919006 146.746902 180.671997 147.499908 C 180.992004 147.819901 181.425995 147.999908 181.878006 147.999908 L 182.710007 147.999908 C 184.229996 147.999908 184.990997 146.162903 183.916 145.087891"/>
    <path id="path6" fill="#ffffff" stroke="none" d="M 180.672195 135.500397 L 192.586197 147.414398 C 192.961197 147.789398 193.4702 148.000397 194.000198 148.000397 L 194.000198 148.000397 C 195.782196 148.000397 196.674194 145.846405 195.4142 144.586395 L 183.4142 132.586395 C 183.023193 132.195404 182.5112 132.000397 182.000198 132.000397 C 181.440201 132.000397 180.879196 132.234406 180.478195 132.702393 C 179.785202 133.511398 179.919205 134.747406 180.672195 135.500397"/>
    <path id="path7" fill="#ffffff" stroke="none" d="M 216.509293 135.337402 C 217.214294 136.042389 218.348297 136.214401 219.157303 135.632401 C 220.187302 134.890411 220.2733 133.444397 219.414307 132.586395 L 191.4133 104.585403 C 191.0383 104.210403 190.530304 104.000397 189.999298 104.000397 L 189.999298 104.000397 C 188.218292 104.000397 187.326294 106.154404 188.585297 107.413406 Z"/>
    <path id="path8" fill="#ffffff" stroke="none" d="M 213.999802 104 L 213.999802 104 C 212.217804 104 211.325806 106.154007 212.5858 107.414001 L 216.509796 111.337006 C 217.213806 112.041992 218.348801 112.214005 219.156799 111.632004 C 220.187805 110.891006 220.272797 109.444 219.413803 108.585999 L 215.413803 104.585999 C 215.038803 104.210999 214.5298 104 213.999802 104"/>
    <path id="path9" fill="#ffffff" stroke="none" d="M 216.509293 123.337402 C 217.214294 124.042404 218.348297 124.214401 219.157303 123.632401 C 220.187302 122.890396 220.2733 121.444397 219.414307 120.586395 L 203.4133 104.585403 C 203.0383 104.210403 202.530304 104.000397 201.999298 104.000397 L 201.999298 104.000397 C 200.218292 104.000397 199.326294 106.154404 200.585297 107.413406 Z"/>
    <path id="path10" fill="#ffffff" stroke="none" d="M 164 130 C 164 126.692001 161.307999 124 158 124 L 134 124 C 130.692001 124 128 126.692001 128 130 C 128 126.692001 125.307999 124 122 124 L 98 124 C 94.692001 124 92 126.692001 92 130 L 92 108 C 92 103.582001 95.582001 100 100 100 L 114 100 C 115.104996 100 116 99.104996 116 98 L 116 96 C 116 93.791 117.791 92 120 92 L 136 92 C 138.209 92 140 93.791 140 96 L 140 98 C 140 99.104996 140.895004 100 142 100 L 156 100 C 160.417999 100 164 103.582001 164 108 Z M 132 140 C 132 145.096008 134.746002 149.550995 138.826004 152 L 134 152 C 132.895004 152 132 151.104996 132 150 L 132 140 L 132 130 C 132 128.894989 132.895004 128 134 128 L 138.826004 128 C 134.746002 130.449005 132 134.903992 132 140 M 160 140 C 160 134.903992 157.253998 130.449005 153.173996 128 L 158 128 C 159.104996 128 160 128.894989 160 130 L 160 140 L 160 150 C 160 151.104996 159.104996 152 158 152 L 153.173996 152 C 157.253998 149.550995 160 145.096008 160 140 M 146 130 C 151.522995 130 156 134.47699 156 140 C 156 145.52301 151.522995 150 146 150 C 140.477005 150 136 145.52301 136 140 C 136 134.47699 140.477005 130 146 130 M 96 140 C 96 145.096008 98.746002 149.550995 102.826004 152 L 98 152 C 96.894997 152 96 151.104996 96 150 L 96 140 L 96 130 C 96 128.894989 96.894997 128 98 128 L 102.826004 128 C 98.746002 130.449005 96 134.903992 96 140 M 124 140 C 124 134.903992 121.253998 130.449005 117.173996 128 L 122 128 C 123.104996 128 124 128.894989 124 130 L 124 140 L 124 150 C 124 151.104996 123.104996 152 122 152 L 117.173996 152 C 121.253998 149.550995 124 145.096008 124 140 M 110 130 C 115.522995 130 120 134.47699 120 140 C 120 145.52301 115.522995 150 110 150 C 104.477005 150 100 145.52301 100 140 C 100 134.47699 104.477005 130 110 130 M 164 178 C 164 174.692001 161.307999 172 158 172 L 134 172 C 130.692001 172 128 174.692001 128 178 C 128 174.692001 125.307999 172 122 172 L 98 172 C 94.692001 172 92 174.692001 92 178 L 92 150 C 92 153.307999 94.692001 156 98 156 L 122 156 C 125.307999 156 128 153.307999 128 150 C 128 153.307999 130.692001 156 134 156 L 158 156 C 161.307999 156 164 153.307999 164 150 Z M 132 188 C 132 193.096008 134.746002 197.550995 138.826004 200 L 134 200 C 132.895004 200 132 199.105011 132 198 L 132 188 L 132 178 C 132 176.895004 132.895004 176 134 176 L 138.826004 176 C 134.746002 178.449005 132 182.903992 132 188 M 146 178 C 151.522995 178 156 182.477005 156 188 C 156 193.522995 151.522995 198 146 198 C 140.477005 198 136 193.522995 136 188 C 136 182.477005 140.477005 178 146 178 M 160 188 L 160 198 C 160 199.105011 159.104996 200 158 200 L 153.173996 200 C 157.253998 197.550995 160 193.096008 160 188 C 160 182.903992 157.253998 178.449005 153.173996 176 L 158 176 C 159.104996 176 160 176.895004 160 178 Z M 122 204 C 125.307999 204 128 201.307999 128 198 C 128 201.307999 130.692001 204 134 204 Z M 96 188 C 96 193.096008 98.746002 197.550995 102.826004 200 L 98 200 C 96.894997 200 96 199.105011 96 198 L 96 188 L 96 178 C 96 176.895004 96.894997 176 98 176 L 102.826004 176 C 98.746002 178.449005 96 182.903992 96 188 M 124 188 C 124 182.903992 121.253998 178.449005 117.173996 176 L 122 176 C 123.104996 176 124 176.895004 124 178 L 124 188 L 124 198 C 124 199.105011 123.104996 200 122 200 L 117.173996 200 C 121.253998 197.550995 124 193.096008 124 188 M 110 178 C 115.522995 178 120 182.477005 120 188 C 120 193.522995 115.522995 198 110 198 C 104.477005 198 100 193.522995 100 188 C 100 182.477005 104.477005 178 110 178 M 156 96 L 144 96 C 144 91.589005 140.410995 88 136 88 L 120 88 C 115.589005 88 112 91.589005 112 96 L 100 96 C 93.383003 96 88 101.382996 88 108 L 88 196 C 88 202.617004 93.383003 208 100 208 L 156 208 C 162.617004 208 168 202.617004 168 196 L 168 108 C 168 101.382996 162.617004 96 156 96"/>
</svg>
