<?xml version="1.0" encoding="UTF-8"?>
<!-- Generated by Pixelmator Pro 3.7.1 -->
<svg width="256" height="256" viewBox="0 0 256 256" xmlns="http://www.w3.org/2000/svg">
    <path id="Path" fill="#ffffff" stroke="none" d="M 217.779297 191.492203 C 200.086304 194.756195 185.985306 195.771194 173.739304 195.771194 C 153.558304 195.771194 138.420303 193.013199 120.557297 193.013199 C 112.544296 193.013199 103.979294 193.568207 94.169296 195.1772 C 90.423294 195.794205 87.094299 196.000198 82.93129 196.000198 C 74.6073 196.000198 62.952305 195.1772 37.982304 195.1772 C 37.915302 195.178192 37.8503 195.178192 37.784306 195.178192 C 29.688297 195.178192 23.900303 189.581207 19.2533 180.438202 C 11.761294 165.701202 7.622303 86.697205 19.2533 73.587204 C 30.490299 60.920197 43.668308 64.911194 56.711308 62.533203 C 64.2043 60.690201 70.990295 60.000198 77.371292 60.000198 C 96.508293 60.000198 111.963295 66.218201 131.627304 66.218201 C 151.434296 66.218201 162.628296 60.250198 184.728302 60.251205 C 191.883301 60.251205 200.185303 60.877197 210.2883 62.533203 C 232.286301 66.139206 243.097305 65.478195 243.952301 80.000198 L 214.000305 80.000198 C 212.895294 80.000198 212.000305 80.895203 212.000305 82.000198 C 212.000305 83.104202 212.895294 84.000198 214.000305 84.000198 L 244.000305 84.000198 L 244.000305 88.000198 L 218.000305 88.000198 C 216.895294 88.000198 216.000305 88.895203 216.000305 90.000198 C 216.000305 91.104202 216.895294 92.000198 218.000305 92.000198 L 244.000305 92.000198 L 244.000305 96.000198 L 222.000305 96.000198 C 220.895294 96.000198 220.000305 96.895203 220.000305 98.000198 C 220.000305 99.104202 220.895294 100.000198 222.000305 100.000198 L 244.000305 100.000198 L 244.000305 173.069199 C 243.428299 181.186203 237.976303 187.767197 217.779297 191.492203 M 247.998306 80.8452 C 247.779297 72.962204 245.050293 67.852203 239.409302 64.764206 C 234.591293 62.128204 228.152298 61.1772 219.239304 59.860199 C 216.614304 59.472198 213.899307 59.072205 210.935303 58.586197 C 201.352295 57.014206 192.780304 56.251205 184.728302 56.251205 C 173.007294 56.250198 164.323303 57.864197 155.9263 59.42421 C 148.194305 60.861206 140.890305 62.218201 131.627304 62.218201 C 122.082298 62.218201 113.309296 60.653198 104.826294 59.139206 C 96.175301 57.596207 87.228302 56.000198 77.371292 56.000198 C 70.115295 56.000198 63.084293 56.856201 55.8783 58.61821 C 52.582294 59.209198 49.260303 59.367203 45.746296 59.53421 C 36.265293 59.986206 25.519306 60.497208 16.261295 70.932205 C 8.269305 79.940201 7.707294 109.6082 8.083301 126.492203 C 8.541293 147.043198 11.115298 173.258209 15.687304 182.25119 C 21.477299 193.641205 28.705296 199.178192 37.784306 199.178192 L 38.026295 199.1772 C 53.749302 199.1772 64.203293 199.507202 71.836304 199.748199 C 76.298294 199.888199 79.821304 200.000198 82.93129 200.000198 C 87.598297 200.000198 91.042297 199.746201 94.819298 199.124207 C 103.4813 197.704193 111.901299 197.013199 120.557297 197.013199 C 129.054306 197.013199 136.8853 197.646194 145.1763 198.316193 C 154.027298 199.031204 163.179306 199.77121 173.739304 199.77121 C 188.208298 199.77121 202.432297 198.390198 218.505295 195.426208 C 238.077301 191.816193 247.170303 185.008209 247.990295 173.350189 L 248.000305 173.210205 L 248.000305 173.069199 L 248.000305 80.956192 L 248.000305 80.900192 Z"/>
    <path id="path1" fill="#ffffff" stroke="none" d="M 138 184 C 134.686996 184 132 182.209 132 180 C 132 177.791 134.686996 176 138 176 C 141.313004 176 144 177.791 144 180 C 144 182.209 141.313004 184 138 184 M 45.307999 138.188995 C 44.160004 138.188995 43.037003 138.261002 41.950996 138.403 C 39.512001 132.240005 39.369003 125.847992 41.528999 119.73999 C 42.773003 119.929993 44.038002 120.026001 45.307999 120.026001 C 58.815002 120.026001 69.805 109.102997 69.805 95.677002 C 69.805 95.027008 69.778999 94.36499 69.727997 93.709991 C 86.072998 86.225006 107.630997 82.179993 132.194 82.001999 L 133.287994 82 C 155.251007 82 179.248993 84.765991 204.621002 90.220001 C 212.644989 96.82901 216.929993 112.227997 215.822998 130.604004 C 214.871002 146.406998 210.110001 160.813004 204.733002 164.373001 C 182.466003 169.544998 163.537003 172.764008 148.449997 173.945007 C 145.621002 171.839996 143.231995 170.822998 138.539993 170.77301 L 138.501007 170.77301 L 138.462006 170.77301 C 133.936996 170.813995 131.485001 171.472 128.490997 173.531006 C 105.096001 173.25 84.356003 169.626999 69.791 163.289001 C 69.800003 163.080002 69.805 162.869003 69.805 162.653992 C 69.805 149.164001 58.815002 138.188995 45.307999 138.188995 M 33.579002 108.141998 C 33.273003 107.460999 33.392998 106.665009 33.883003 106.104004 L 40.563004 98.468994 C 40.926003 98.053009 41.462997 97.845001 42 97.845001 C 42.537003 97.845001 43.073997 98.053009 43.436996 98.468994 L 50.116997 106.104004 C 50.702003 106.77301 50.747002 107.761002 50.224998 108.481995 C 48.588997 110.734009 45.647003 112 42.177002 112 C 41.671997 112 41.155998 111.973999 40.629997 111.919998 C 37.913002 111.636993 34.634003 110.498001 33.579002 108.141998 M 27.859001 102.419998 C 25.502998 101.36499 24.363998 98.085999 24.081001 95.369003 C 23.652 91.234009 24.938004 87.647003 27.517998 85.772003 C 27.853996 85.529999 28.249001 85.410004 28.641998 85.410004 C 29.089996 85.410004 29.538002 85.567001 29.896004 85.880005 L 37.529999 92.561996 C 37.945999 92.925003 38.182999 93.449005 38.182999 93.998993 C 38.182999 94.548004 37.945999 95.071991 37.529999 95.436005 L 29.896004 102.117004 C 29.542 102.425995 29.093002 102.587997 28.639999 102.587997 C 28.375 102.587997 28.111 102.533997 27.859001 102.419998 M 33.579002 79.856003 C 34.634003 77.5 37.913002 76.360992 40.629997 76.076996 C 41.147003 76.024994 41.653999 76 42.152 76 C 45.639 76 48.584999 77.257996 50.224998 79.514999 C 50.747002 80.235992 50.702003 81.223999 50.116997 81.893997 L 43.436996 89.528 C 43.073997 89.944 42.550003 90.181 42 90.181 C 41.449997 90.181 40.926003 89.944 40.563004 89.528 L 33.883003 81.893997 C 33.392998 81.332001 33.273003 80.536011 33.579002 79.856003 M 56.140999 85.576996 C 58.497002 86.632004 59.636002 89.911011 59.918999 92.627991 C 60.348 96.763 59.061996 100.350006 56.482002 102.225006 C 56.146004 102.46701 55.752998 102.587997 55.360001 102.587997 C 54.911003 102.587997 54.460999 102.429993 54.103996 102.117004 L 46.469002 95.436005 C 46.054001 95.071991 45.817001 94.548004 45.817001 93.998993 C 45.817001 93.449005 46.054001 92.925003 46.469002 92.561996 L 54.103996 85.880005 C 54.457001 85.570007 54.903999 85.406006 55.358002 85.406006 C 55.623001 85.406006 55.889999 85.462006 56.140999 85.576996 M 147.936005 177.996002 C 163.432999 176.847992 182.962006 173.548996 205.985992 168.188004 C 206.175003 168.141998 206.356995 168.067993 206.524002 167.971008 C 214.403992 163.225006 218.938995 145.401001 219.81601 130.845001 C 221.035004 110.589996 216.136993 94.113007 206.709991 86.768997 C 206.488007 86.596008 206.233002 86.475998 205.957001 86.416992 C 179.830994 80.768005 155.367996 78 133.287994 78 C 132.916 78 132.548004 78.001007 132.177994 78.001999 C 106.323997 78.188995 83.658997 82.596008 66.628998 90.744003 C 65.894997 91.095001 65.473999 91.882996 65.592003 92.690002 C 65.732002 93.651001 65.805 94.675995 65.805 95.677002 C 65.805 106.89801 56.610001 116.026001 45.307999 116.026001 C 44.686996 116.026001 44.07 115.990997 43.456001 115.936996 C 47.686996 115.628998 51.292 113.819 53.460999 110.834 C 54.397003 109.539001 54.730003 107.992004 54.514999 106.511993 C 54.793999 106.552002 55.074997 106.587997 55.360001 106.587997 C 56.611 106.587997 57.808998 106.200989 58.823997 105.46701 C 62.582001 102.735001 64.474998 97.783997 63.897003 92.216003 C 63.379997 87.257004 61.092003 83.411011 57.776001 81.925995 C 57.028999 81.584991 56.207001 81.406006 55.358002 81.406006 C 55.072998 81.406006 54.793999 81.442001 54.515999 81.483002 C 54.731003 80.003998 54.399002 78.459991 53.466003 77.169998 C 51.077003 73.882004 46.955002 72 42.152 72 C 41.521004 72 40.875 72.03299 40.231003 72.097 C 35.259003 72.615997 31.414001 74.903992 29.929001 78.221008 C 29.460999 79.261002 29.319 80.394989 29.476997 81.485001 C 29.200996 81.445007 28.924004 81.410004 28.641998 81.410004 C 27.391998 81.410004 26.195 81.79599 25.18 82.527008 C 21.417999 85.261993 19.525002 90.212997 20.102997 95.781006 C 20.620003 100.73999 22.907997 104.585999 26.223999 106.070999 C 26.978996 106.412994 27.795998 106.587997 28.639999 106.587997 C 28.922997 106.587997 29.200996 106.552002 29.477997 106.513 C 29.319 107.604004 29.461998 108.738007 29.931 109.779999 C 31.306999 112.855011 34.732002 115.027008 39.178001 115.73999 C 38.871002 115.936996 38.619003 116.222992 38.467003 116.580002 C 35.019997 124.722 35.186996 133.362 38.955002 141.567993 C 39.263 142.242004 39.936996 142.649994 40.660004 142.649994 C 40.781998 142.649994 40.906998 142.639008 41.030998 142.613998 C 42.376999 142.330994 43.817001 142.188995 45.307999 142.188995 C 56.610001 142.188995 65.805 151.372009 65.805 162.653992 C 65.805 163.218002 65.751999 163.807007 65.695999 164.475998 C 65.628998 165.255997 66.059998 165.994003 66.773003 166.320999 C 81.895996 173.264008 103.787994 177.231003 128.473999 177.526001 C 128.167999 178.303009 128 179.132996 128 180 C 128 184.485992 132.393005 188 138 188 C 143.606995 188 148 184.485992 148 180 C 148 179.298996 147.880997 178.625 147.679001 177.980011 C 147.718994 177.981995 147.755997 178 147.796997 178 C 147.843994 178 147.888 178 147.936005 177.996002"/>
    <path id="path2" fill="#ffffff" stroke="none" d="M 117.428703 180 L 110.571701 180 C 109.151703 180 107.999702 180.895996 107.999702 182 C 107.999702 183.104004 109.151703 184 110.571701 184 L 117.428703 184 C 118.848701 184 119.999702 183.104004 119.999702 182 C 119.999702 180.895996 118.848701 180 117.428703 180"/>
    <path id="path3" fill="#ffffff" stroke="none" d="M 97.428703 180 L 90.571701 180 C 89.151703 180 87.999702 180.895996 87.999702 182 C 87.999702 183.104004 89.151703 184 90.571701 184 L 97.428703 184 C 98.848701 184 99.999702 183.104004 99.999702 182 C 99.999702 180.895996 98.848701 180 97.428703 180"/>
    <path id="path4" fill="#ffffff" stroke="none" d="M 56.482399 174.222702 C 56.1474 174.468689 55.753399 174.587708 55.360401 174.587708 C 54.9114 174.587708 54.461399 174.427704 54.104401 174.1147 L 46.469402 167.432709 C 46.053402 167.070709 45.817402 166.548706 45.817402 165.995697 C 45.817402 165.444702 46.053402 164.922699 46.469402 164.560699 L 54.104401 157.878693 C 54.455399 157.564697 54.902401 157.405701 55.354401 157.405701 C 55.621399 157.405701 55.8904 157.460693 56.141399 157.5737 C 58.497398 158.631699 59.637402 161.912689 59.919399 164.631699 C 60.346401 168.763702 59.062401 172.350708 56.482399 174.222702 M 50.225399 180.483704 C 48.588402 182.736694 45.6474 183.999695 42.178402 183.999695 C 41.673401 183.999695 41.157402 183.973694 40.6334 183.921692 C 37.914398 183.638702 34.6334 182.496704 33.579399 180.140701 C 33.273399 179.4617 33.392399 178.663696 33.882401 178.104706 L 40.5634 170.467697 C 40.926399 170.053711 41.463402 169.84671 42.000401 169.84671 C 42.5364 169.84671 43.073399 170.053711 43.437401 170.467697 L 50.117401 178.104706 C 50.7024 178.775696 50.747398 179.759705 50.225399 180.483704 M 27.8584 174.419708 C 25.503401 173.361694 24.362402 170.079697 24.0804 167.361694 C 23.653402 163.229706 24.9384 159.6427 27.517401 157.770691 C 27.852402 157.525696 28.245401 157.404694 28.637402 157.404694 C 29.0874 157.404694 29.536402 157.56369 29.8964 157.878693 L 37.530399 164.560699 C 37.9464 164.922699 38.1824 165.444702 38.1824 165.995697 C 38.1824 166.548706 37.9464 167.070709 37.530399 167.432709 L 29.8964 174.1147 C 29.5424 174.427704 29.092402 174.587708 28.6394 174.587708 C 28.375401 174.587708 28.1084 174.5327 27.8584 174.419708 M 33.579399 151.852692 C 34.6334 149.495697 37.914398 148.354706 40.6334 148.071701 C 41.1334 148.023697 41.625401 147.999695 42.107399 147.999695 C 45.604401 147.999695 48.5774 149.24469 50.225399 151.509705 C 50.747398 152.233704 50.7024 153.217697 50.117401 153.888702 L 43.437401 161.525696 C 43.073399 161.939697 42.5494 162.177704 42.000401 162.177704 C 41.450401 162.177704 40.926399 161.939697 40.5634 161.525696 L 33.882401 153.888702 C 33.392399 153.328705 33.273399 152.531708 33.579399 151.852692 M 57.781399 153.924698 C 57.005402 153.577698 56.192402 153.405701 55.354401 153.405701 C 55.0704 153.405701 54.791401 153.441696 54.513401 153.482697 C 54.729401 152.002701 54.399399 150.45871 53.469398 149.168701 C 51.075401 145.878693 46.937401 143.999695 42.107399 143.999695 C 41.498402 143.999695 40.874401 144.030701 40.252399 144.089691 C 35.260399 144.609695 31.413401 146.899689 29.9284 150.218689 C 29.460402 151.256699 29.3174 152.390701 29.475401 153.480698 C 29.1984 153.440704 28.920401 153.404694 28.637402 153.404694 C 27.378401 153.404694 26.1744 153.797699 25.1574 154.54071 C 21.420401 157.252701 19.5264 162.201691 20.1024 167.772705 C 20.6154 172.728699 22.9014 176.577698 26.218401 178.068695 C 26.989401 178.413696 27.802401 178.587708 28.6394 178.587708 C 28.922401 178.587708 29.1994 178.551697 29.4764 178.511703 C 29.3174 179.603699 29.461401 180.740692 29.9314 181.783691 C 31.413401 185.093689 35.260399 187.383698 40.219398 187.900696 C 40.8894 187.966705 41.5434 187.999695 42.178402 187.999695 C 46.963402 187.999695 51.076401 186.117706 53.461399 182.834702 C 54.3964 181.538696 54.728401 179.991699 54.513401 178.511703 C 54.7934 178.551697 55.074402 178.587708 55.360401 178.587708 C 56.625401 178.587708 57.831402 178.193695 58.8484 177.447693 C 62.579399 174.740692 64.473404 169.79071 63.898399 164.220703 C 63.384399 159.264709 61.0984 155.41571 57.781399 153.924698"/>
    <path id="path5" fill="#ffffff" stroke="none" d="M 232.482407 170.222702 C 232.146393 170.468689 231.753403 170.587708 231.360397 170.587708 C 230.911407 170.587708 230.461395 170.427704 230.103394 170.1147 L 222.469406 163.432709 C 222.053406 163.070709 221.817398 162.548706 221.817398 161.995697 C 221.817398 161.444702 222.053406 160.922699 222.469406 160.560699 L 230.103394 153.878693 C 230.455399 153.564697 230.902405 153.405701 231.354401 153.405701 C 231.621399 153.405701 231.889404 153.460693 232.141403 153.5737 C 234.497406 154.631699 235.637405 157.912689 235.919403 160.631699 C 236.345398 164.763702 235.061401 168.350708 232.482407 170.222702 M 226.225403 176.483704 C 224.588394 178.736694 221.6474 179.999695 218.178406 179.999695 C 217.673401 179.999695 217.157394 179.973694 216.633408 179.921692 C 213.914398 179.638702 210.633392 178.496704 209.579407 176.140701 C 209.273407 175.4617 209.392395 174.663696 209.882401 174.104706 L 216.562393 166.467697 C 216.926407 166.053711 217.462402 165.84671 218.000397 165.84671 C 218.537399 165.84671 219.073395 166.053711 219.437393 166.467697 L 226.117401 174.104706 C 226.702393 174.775696 226.747406 175.759705 226.225403 176.483704 M 233.781403 149.924698 C 233.005402 149.577698 232.192398 149.405701 231.354401 149.405701 C 229.905396 149.405701 228.514404 149.934692 227.4384 150.896698 L 219.835403 157.55069 C 218.590393 158.633698 217.864395 160.199707 217.825394 161.855698 C 216.172394 161.903702 214.625397 162.612701 213.557404 163.827698 L 206.872406 171.470703 C 205.355392 173.201691 204.985397 175.680695 205.931396 177.783691 C 207.414398 181.093689 211.260406 183.383698 216.218399 183.900696 C 216.889404 183.966705 217.543396 183.999695 218.178406 183.999695 C 222.963394 183.999695 227.076401 182.117706 229.461395 178.834702 C 230.396393 177.538696 230.728394 175.991699 230.512405 174.511703 C 230.793396 174.551697 231.074402 174.587708 231.360397 174.587708 C 232.625397 174.587708 233.832397 174.193695 234.848404 173.447693 C 238.579407 170.740692 240.473404 165.79071 239.898407 160.220703 C 239.384399 155.264709 237.098404 151.41571 233.781403 149.924698"/>
    <path id="path6" fill="#ffffff" stroke="none" d="M 188 156 L 88 156 L 88 96 L 188 96 Z M 192 92 L 84 92 L 84 160 L 192 160 Z"/>
</svg>
