<?xml version="1.0" encoding="UTF-8"?>
<!-- Generated by Pixelmator Pro 3.7.1 -->
<svg width="256" height="256" viewBox="0 0 256 256" xmlns="http://www.w3.org/2000/svg">
    <path id="Path" fill="#ffffff" stroke="none" d="M 244 146 C 244 140.98999 241.606995 136.205002 237.600006 133.199997 L 230.399994 127.800003 C 228.897003 126.673004 228 124.878006 228 123 L 228 100 C 228 92.350006 226.332001 85.613007 223.042999 79.97699 C 219.959991 74.695007 214.455002 71.229004 208.31601 70.70401 C 170.925003 67.505005 70.830002 60.084991 69.822998 60.011002 L 69.712997 60.002991 C 69.779007 60.002991 69.845993 60 69.912003 60 L 196.673996 60 C 206.153992 60 215.626999 60.729004 224.977005 62.299011 C 237.518005 64.406006 243.675995 66.929993 244 78.820007 Z M 244 172.921997 C 243.492004 180.300003 239.119003 186.436005 223.934006 190.380005 C 219.621002 190.921997 215.352997 191.458008 211.041 192 L 175.53299 192 C 173.179001 192 170.824997 191.908997 168.477997 191.729004 L 128.113007 188.623993 C 125.764999 188.442993 123.411003 188.354004 121.057999 188.354004 C 118.001999 188.354004 114.945999 188.505997 111.903 188.809998 L 84.565994 191.542999 C 81.524002 191.847992 78.468994 192 75.412003 192 L 41.707993 192 C 36.376007 192 31.076996 190.774994 26.419998 188.179001 C 24.048996 186.856003 21.869003 185.209 20.755005 183.266998 C 20.240997 182.369003 19.740997 181.429993 19.253006 180.449997 C 15.037003 171.975998 11.882004 142.701996 12.003998 116.339996 C 12.014008 118.223999 12.041 120.016006 12.080994 121.666992 C 12.524002 140.261993 15.031998 164.003998 19.490005 172.192001 C 20.003006 173.13501 20.533005 174.041992 21.063995 174.889999 C 25.212006 181.503998 33.048996 185.619003 41.526001 185.639008 C 43.716003 185.701004 106.179993 187.479004 135.350006 187.936005 L 135.425003 187.936996 L 135.5 187.934998 C 168.139999 187.210999 211.328003 184.406006 231.720993 175.158005 C 239.179993 171.774994 244 164.274002 244 156.050003 Z M 19.253006 71.291992 C 25.994003 63.529999 33.432007 61.891998 41.121002 61.298004 C 41.940994 61.234009 42.763 61.182007 43.582993 61.122009 C 42.514999 61.231003 41.457993 61.348999 40.410004 61.475998 C 34.593994 62.178009 27.029999 63.919998 20.104004 71.208008 C 16.938995 74.539001 14.962997 80.917999 13.755005 88.347 C 14.919998 80.369995 16.710007 74.221008 19.253006 71.291992 M 218 157.847 C 218.537003 157.847 219.072998 158.054001 219.438004 158.468002 L 226.117004 166.104004 C 226.701996 166.774994 226.746994 167.76001 226.225998 168.483002 C 224.589005 170.735992 221.647003 172 218.179001 172 C 217.673996 172 217.156998 171.973999 216.634003 171.921997 C 213.914001 171.639008 210.634003 170.497009 209.578995 168.140991 C 209.272995 167.462006 209.393005 166.664001 209.882996 166.104004 L 216.563004 158.468002 C 216.927002 158.054001 217.462997 157.847 218 157.847 M 222.470001 155.432007 C 222.054001 155.070007 221.817001 154.548996 221.817001 153.996002 C 221.817001 153.444 222.054001 152.923004 222.470001 152.561005 L 230.104004 145.878998 C 230.455002 145.563995 230.902008 145.404999 231.354004 145.404999 C 231.621002 145.404999 231.889999 145.460999 232.141998 145.572998 C 234.496994 146.632004 235.638 149.912994 235.919006 152.632004 C 236.345993 156.764008 235.061996 160.350998 232.481995 162.222992 C 232.145996 162.468994 231.753998 162.587997 231.360001 162.587997 C 230.910995 162.587997 230.462006 162.428009 230.104004 162.113998 Z M 228 131 L 235.199997 136.399994 C 238.222 138.666 240 142.222992 240 146 L 240 156.050003 C 240 162.705002 236.130005 168.766998 230.067993 171.515991 C 229.434006 171.803009 228.774994 172.084 228.095993 172.358002 C 228.591003 171.886993 229.059006 171.389008 229.460999 170.834991 C 230.395996 169.539001 230.729004 167.990997 230.513 166.511993 C 230.792999 166.552002 231.074005 166.587997 231.360001 166.587997 C 232.625 166.587997 233.830994 166.192993 234.848999 165.447998 C 238.578995 162.73999 240.473999 157.791 239.897995 152.221008 C 239.384995 147.264999 237.098999 143.416 233.781006 141.925003 C 233.005997 141.578003 232.192001 141.404999 231.354004 141.404999 C 229.904999 141.404999 228.514999 141.934998 227.438004 142.895996 L 219.834991 149.550995 C 218.591003 150.634003 217.863998 152.199005 217.824997 153.855011 C 216.173004 153.903 214.625 154.612 213.557999 155.828003 L 206.872009 163.471008 C 205.354996 165.201996 204.985001 167.681 205.932007 169.783005 C 207.414001 173.093994 211.261002 175.384003 216.220001 175.899994 C 216.397995 175.917999 216.565994 175.914001 216.744003 175.927002 C 194.367996 181.5 160.813995 183.372009 135.412003 183.936005 C 105.554001 183.468002 41.585999 181.639008 41.585999 181.639008 C 34.576004 181.639008 27.951996 178.343994 24.453003 172.764999 C 23.957001 171.972992 23.473999 171.143997 23.003006 170.278992 C 15.770004 156.994003 11.772995 85.781006 23.003006 73.963989 C 28.563004 68.113007 34.615005 66.205002 40.889999 65.445999 C 50.375 64.300003 59.960007 64 69.528 64 C 69.528 64 170.175003 71.455994 207.975006 74.688995 C 212.802994 75.10199 217.145996 77.80899 219.587997 81.992996 C 222.201004 86.470001 224 92.334 224 100 L 224 123 C 224 126.147003 225.481995 129.110992 228 131 M 247.998001 78.710999 C 247.578003 63.289001 237.623993 60.367996 225.639008 58.354004 C 216.339005 56.791992 206.593994 56 196.673996 56 L 69.912003 56 C 61.518005 56 52.542999 56.403992 40.813004 57.309998 C 32.621002 57.942001 23.973999 59.755997 16.233002 68.669006 C 8.266998 77.84201 7.707993 108.109009 8.082993 125.334991 C 8.541 146.311996 11.110992 173.063995 15.671997 182.231995 C 16.197998 183.287994 16.740005 184.306 17.285004 185.255005 C 18.630997 187.604004 21.048996 189.764008 24.472 191.671997 C 29.548996 194.503998 35.509003 196 41.707993 196 L 75.412003 196 C 78.589005 196 81.802994 195.839996 84.964005 195.522995 L 112.300995 192.790009 C 115.199005 192.5 118.146004 192.354004 121.057999 192.354004 C 123.300003 192.354004 125.570999 192.440002 127.806999 192.612 L 168.17099 195.716995 C 170.609009 195.904999 173.087006 196 175.53299 196 L 211.041 196 L 211.291 196 L 211.539001 195.968994 L 217.985992 195.158005 L 224.432999 194.348999 L 224.688995 194.31601 L 224.938995 194.251007 C 239.945007 190.354004 247.270004 183.664001 247.990005 173.196991 L 248 173.059998 L 248 172.921997 L 248 78.820007 L 248 78.765991 Z"/>
    <path id="path1" fill="#ffffff" stroke="none" d="M 197.623993 169.694305 C 197.029999 170.8573 195.722 171.662292 194.209 171.793304 C 180.682007 172.968292 154.552994 174.91629 144 175.695297 L 144 174.000305 C 144 170.691299 141.309006 168.000305 138 168.000305 L 124 168.000305 C 122.465004 168.000305 121.062004 168.580292 120 169.531311 C 118.938004 168.580292 117.535004 168.000305 116 168.000305 L 86 168.000305 C 82.692001 168.000305 80 170.691299 80 174.000305 L 80 175.8983 C 78.573997 175.6073 77.391998 174.714294 76.962997 173.529297 C 60.618996 128.315308 73.012001 89.701309 77.199997 78.944305 C 77.643997 77.803299 78.602997 76.623306 79.577003 76.574295 C 87.122002 76.193298 95.320999 76.000305 103.945999 76.000305 C 142.729004 76.000305 180.787003 79.7883 193.350006 82.5233 C 194.852005 82.849304 196.072006 83.869308 196.457993 85.1203 C 211.528 133.990295 202.294006 160.546295 197.623993 169.694305 M 194.199997 78.614304 C 180.660995 75.667297 141.811005 72.000305 103.945999 72.000305 C 95.613998 72.000305 87.333 72.177307 79.375 72.5793 C 76.567001 72.721298 74.429001 75.035309 73.472 77.492294 C 68.708 89.731308 56.532997 128.77829 73.202003 174.889297 C 74.315002 177.968292 77.501999 180.000305 81.010002 180.000305 L 82 180.000305 C 83.104004 180.000305 84 179.104309 84 178.000305 L 84 174.000305 C 84 172.895294 84.895004 172.000305 86 172.000305 L 116 172.000305 C 117.104004 172.000305 118 172.895294 118 174.000305 C 118 175.104309 118.895004 176.000305 120 176.000305 C 121.104004 176.000305 122 175.104309 122 174.000305 C 122 172.895294 122.895004 172.000305 124 172.000305 L 138 172.000305 C 139.104004 172.000305 140 172.895294 140 174.000305 L 140 177.84729 C 140 178.960297 140.899994 179.848297 141.994003 179.848297 C 142.042999 179.848297 142.093002 179.846298 142.143005 179.8423 C 150.326004 179.241302 179.882004 177.052307 194.556 175.77829 C 197.431 175.52829 199.953003 173.929291 201.186996 171.512299 C 206.039001 162.006302 215.806 134.289307 200.279999 83.941299 C 199.460007 81.281296 197.108002 79.247299 194.199997 78.614304"/>
    <path id="path2" fill="#ffffff" stroke="none" d="M 113.428703 176 L 106.571701 176 C 105.151703 176 103.999702 176.895996 103.999702 178 C 103.999702 179.104004 105.151703 180 106.571701 180 L 113.428703 180 C 114.848701 180 115.999702 179.104004 115.999702 178 C 115.999702 176.895996 114.848701 176 113.428703 176"/>
    <path id="path3" fill="#ffffff" stroke="none" d="M 133.428696 176 L 126.571701 176 C 125.151703 176 123.999702 176.895996 123.999702 178 C 123.999702 179.104004 125.151703 180 126.571701 180 L 133.428696 180 C 134.848694 180 135.999695 179.104004 135.999695 178 C 135.999695 176.895996 134.848694 176 133.428696 176"/>
    <path id="path4" fill="#ffffff" stroke="none" d="M 97.428703 176 L 90.571701 176 C 89.151703 176 87.999702 176.895996 87.999702 178 C 87.999702 179.104004 89.151703 180 90.571701 180 L 97.428703 180 C 98.848701 180 99.999702 179.104004 99.999702 178 C 99.999702 176.895996 98.848701 176 97.428703 176"/>
    <path id="path5" fill="#ffffff" stroke="none" d="M 27.5186 85.772507 C 27.854601 85.530502 28.2486 85.4095 28.642599 85.4095 C 29.090601 85.4095 29.538601 85.566498 29.896601 85.880493 L 37.530602 92.561493 C 37.946602 92.9245 38.183601 93.448502 38.183601 93.998505 C 38.183601 94.548492 37.946602 95.072495 37.530602 95.435501 L 29.896601 102.116501 C 29.542601 102.426498 29.093599 102.588501 28.6406 102.588501 C 28.375601 102.588501 28.1106 102.5345 27.8596 102.420502 C 25.503599 101.365494 24.364599 98.086502 24.0816 95.3685 C 23.652599 91.234497 24.938601 87.647507 27.5186 85.772507 M 33.579601 79.855499 C 34.634602 77.499496 37.913601 76.360504 40.6306 76.077499 C 41.146599 76.025497 41.654598 76.000504 42.1516 76.000504 C 45.639599 76.000504 48.585598 77.258499 50.225601 79.514496 C 50.747601 80.236496 50.702599 81.224503 50.117599 81.893494 L 43.4366 89.528503 C 43.073601 89.944504 42.549599 90.181503 41.999599 90.181503 C 41.4506 90.181503 40.926601 89.944504 40.562599 89.528503 L 33.883598 81.893494 C 33.3936 81.332504 33.273602 80.536499 33.579601 79.855499 M 56.141598 85.576508 C 58.497601 86.6315 59.635601 89.910507 59.918602 92.628494 C 60.347599 96.763504 59.0616 100.349503 56.481598 102.224503 C 56.146599 102.467499 55.753601 102.588501 55.3596 102.588501 C 54.910599 102.588501 54.461601 102.429504 54.1036 102.116501 L 46.469601 95.435501 C 46.0546 95.072495 45.8176 94.548492 45.8176 93.998505 C 45.8176 93.448502 46.0546 92.9245 46.469601 92.561493 L 54.1036 85.880493 C 54.4566 85.569504 54.904598 85.406494 55.357601 85.406494 C 55.622601 85.406494 55.889599 85.461502 56.141598 85.576508 M 50.225601 108.482498 C 48.5886 110.734497 45.647598 112.000504 42.177601 112.000504 C 41.6716 112.000504 41.155602 111.974503 40.6306 111.919495 C 37.913601 111.636505 34.634602 110.497498 33.579601 108.141495 C 33.273602 107.460495 33.3936 106.665497 33.883598 106.104507 L 40.562599 98.468506 C 40.926601 98.052505 41.4636 97.845505 41.999599 97.845505 C 42.537601 97.845505 43.073601 98.052505 43.4366 98.468506 L 50.117599 106.104507 C 50.702599 106.772507 50.747601 107.761505 50.225601 108.482498 M 26.2246 106.071503 C 26.9786 106.412506 27.7966 106.588501 28.6406 106.588501 C 28.9226 106.588501 29.201599 106.552505 29.4776 106.512497 C 29.319599 107.604507 29.462601 108.738495 29.930599 109.780502 C 31.413601 113.092499 35.259602 115.3815 40.215599 115.898499 C 40.872601 115.9655 41.531601 116.000504 42.177601 116.000504 C 46.962601 116.000504 51.0756 114.117493 53.460598 110.834503 C 54.397598 109.539505 54.730598 107.991501 54.514599 106.511505 C 54.793598 106.552505 55.0746 106.588501 55.3596 106.588501 C 56.611599 106.588501 57.809601 106.2005 58.8246 105.467499 C 62.5816 102.735504 64.475601 97.7845 63.897602 92.2155 C 63.3806 87.2565 61.092602 83.411499 57.7756 81.925507 C 57.028599 81.585495 56.2066 81.406494 55.357601 81.406494 C 55.073601 81.406494 54.793598 81.442505 54.515598 81.482498 C 54.730598 80.004501 54.398598 78.460495 53.466599 77.170502 C 51.077599 73.8815 46.955601 72.000504 42.1516 72.000504 C 41.521599 72.000504 40.874599 72.032501 40.230598 72.097504 C 35.259602 72.615494 31.413601 74.904495 29.9286 78.221497 C 29.461599 79.260498 29.3186 80.394501 29.4776 81.484497 C 29.201599 81.445496 28.923599 81.4095 28.642599 81.4095 C 27.392599 81.4095 26.195601 81.795502 25.180599 82.526505 C 21.4186 85.261505 19.5256 90.212494 20.1026 95.781494 C 20.6196 100.740494 22.9086 104.585495 26.2246 106.071503"/>
    <path id="path6" fill="#ffffff" stroke="none" d="M 56.482399 166.222702 C 56.1474 166.468689 55.753399 166.587708 55.360401 166.587708 C 54.9114 166.587708 54.461399 166.427704 54.104401 166.1147 L 46.469402 159.431702 C 46.054401 159.070709 45.817402 158.548706 45.817402 157.995697 C 45.817402 157.444702 46.054401 156.922699 46.469402 156.560699 L 54.104401 149.878693 C 54.455399 149.564697 54.902401 149.405701 55.3554 149.405701 C 55.621399 149.405701 55.8904 149.460693 56.141399 149.5737 C 58.497398 150.631699 59.638401 153.912689 59.919399 156.631699 C 60.346401 160.763702 59.062401 164.350708 56.482399 166.222702 M 50.225399 172.483704 C 48.588402 174.736694 45.648399 175.999695 42.179401 175.999695 C 41.673401 175.999695 41.157402 175.973694 40.6334 175.921692 C 37.914398 175.638702 34.634399 174.496704 33.579399 172.140701 C 33.273399 171.4617 33.392399 170.663696 33.882401 170.104706 L 40.5634 162.467697 C 40.926399 162.053711 41.463402 161.84671 42.000401 161.84671 C 42.537399 161.84671 43.073399 162.053711 43.437401 162.467697 L 50.117401 170.104706 C 50.7024 170.775696 50.747398 171.759705 50.225399 172.483704 M 27.8584 166.419708 C 25.503401 165.361694 24.362402 162.079697 24.0814 159.361694 C 23.654402 155.229706 24.9384 151.6427 27.5184 149.770691 C 27.853401 149.525696 28.246401 149.404694 28.638401 149.404694 C 29.0874 149.404694 29.536402 149.56369 29.8964 149.878693 L 37.530399 156.560699 C 37.9464 156.922699 38.183399 157.444702 38.183399 157.995697 C 38.183399 158.548706 37.9464 159.070709 37.530399 159.431702 L 29.8964 166.1147 C 29.5424 166.427704 29.092402 166.587708 28.640402 166.587708 C 28.375401 166.587708 28.1084 166.5327 27.8584 166.419708 M 33.579399 143.852692 C 34.634399 141.495697 37.914398 140.354706 40.6334 140.071701 C 41.1334 140.023697 41.625401 139.999695 42.107399 139.999695 C 45.604401 139.999695 48.5774 141.24469 50.225399 143.509705 C 50.747398 144.233704 50.7024 145.217697 50.117401 145.888702 L 43.437401 153.525696 C 43.073399 153.939697 42.5494 154.177704 42.000401 154.177704 C 41.450401 154.177704 40.926399 153.939697 40.5634 153.525696 L 33.882401 145.888702 C 33.392399 145.328705 33.273399 144.531708 33.579399 143.852692 M 57.781399 145.924698 C 57.005402 145.577698 56.192402 145.405701 55.3554 145.405701 C 55.0704 145.405701 54.791401 145.441696 54.513401 145.482697 C 54.7304 144.002701 54.399399 142.45871 53.469398 141.169708 C 51.075401 137.878693 46.937401 135.999695 42.107399 135.999695 C 41.498402 135.999695 40.874401 136.030701 40.252399 136.089691 C 35.261398 136.609695 31.4144 138.899689 29.9284 142.218689 C 29.460402 143.256699 29.3174 144.390701 29.4764 145.480698 C 29.1994 145.440704 28.920401 145.404694 28.638401 145.404694 C 27.378401 145.404694 26.1744 145.797699 25.1574 146.54071 C 21.420401 149.252701 19.5264 154.201691 20.1024 159.772705 C 20.6154 164.728699 22.9014 168.576691 26.218401 170.068695 C 26.989401 170.413696 27.802401 170.587708 28.640402 170.587708 C 28.922401 170.587708 29.1994 170.551697 29.4764 170.511703 C 29.318401 171.603699 29.461401 172.740692 29.932402 173.783691 C 31.4144 177.093689 35.261398 179.383698 40.219398 179.900696 C 40.8904 179.966705 41.5434 179.999695 42.179401 179.999695 C 46.963402 179.999695 51.076401 178.117706 53.461399 174.834702 C 54.3964 173.538696 54.728401 171.990692 54.513401 170.511703 C 54.7934 170.551697 55.074402 170.587708 55.360401 170.587708 C 56.625401 170.587708 57.831402 170.193695 58.8484 169.4487 C 62.579399 166.740692 64.473404 161.79071 63.898399 156.220703 C 63.385399 151.264709 61.0984 147.41571 57.781399 145.924698"/>
    <path id="path7" fill="#ffffff" stroke="none" d="M 84 96 L 184 96 L 184 156 L 84 156 Z M 80 160 L 188 160 L 188 92 L 80 92 Z"/>
</svg>
