<?xml version="1.0" encoding="UTF-8"?>
<!-- Generated by Pixelmator Pro 3.7.1 -->
<svg width="256" height="256" viewBox="0 0 256 256" xmlns="http://www.w3.org/2000/svg">
    <path id="Path" fill="#ffffff" stroke="none" d="M 170.461899 75.077103 L 85.538902 75.077103 C 82.479897 75.077103 79.999901 72.597107 79.999901 69.538101 C 79.999901 66.479095 82.479897 64.000107 85.538902 64.000107 L 170.461899 64.000107 C 173.520905 64.000107 175.999893 66.479095 175.999893 69.538101 C 175.999893 72.597107 173.520905 75.077103 170.461899 75.077103 M 223.036896 80.000107 C 227.9879 80.000107 232.002899 83.867096 232.002899 88.636093 L 232.002899 147.363098 C 232.002899 152.134094 227.9879 156.000092 223.036896 156.000092 L 32.962906 156.000092 C 28.011904 156.000092 23.997896 152.134094 23.997896 147.363098 L 23.997896 88.636093 C 23.997896 83.867096 28.011904 80.000107 32.962906 80.000107 Z M 242.128906 191.613098 C 242.128906 196.796097 237.956909 200.968094 232.774902 200.968094 L 23.225908 200.968094 C 18.042894 200.968094 13.870896 196.796097 13.870896 191.613098 C 13.870896 188.844101 15.602906 187.43811 17.999895 186.723114 L 17.999895 178.000092 L 17.737902 178.000092 C 15.672898 178.000092 13.999894 176.992096 13.999894 175.750092 L 13.999894 167.553101 C 12.815904 166.928101 11.999894 165.703094 11.999894 164.275101 L 11.999894 63.724106 C 11.999894 61.667099 13.674897 60.000107 15.741899 60.000107 L 85.538902 60.000107 C 80.2789 60.000107 75.999901 64.279099 75.999901 69.538101 C 75.999901 72.032104 76.969902 74.299103 78.5429 76.000107 L 32.962906 76.000107 C 25.813906 76.000107 19.997896 81.668106 19.997896 88.636093 L 19.997896 147.363098 C 19.997896 154.3311 25.813906 160.000092 32.962906 160.000092 L 223.036896 160.000092 C 230.186905 160.000092 236.002899 154.3311 236.002899 147.363098 L 236.002899 88.636093 C 236.002899 81.668106 230.186905 76.000107 223.036896 76.000107 L 177.457901 76.000107 C 179.029907 74.299103 179.999893 72.032104 179.999893 69.538101 C 179.999893 64.279099 175.720901 60.000107 170.461899 60.000107 L 240.257904 60.000107 C 242.323898 60.000107 243.999908 61.667099 243.999908 63.724106 L 243.999908 164.275101 C 243.999908 165.703094 243.184906 166.928101 241.999908 167.553101 L 241.999908 175.750092 C 241.999908 176.992096 240.325897 178.000092 238.262909 178.000092 L 237.999908 178.000092 L 237.999908 186.723114 C 240.397903 187.43811 242.128906 188.844101 242.128906 191.613098 M 245.999908 175.750092 L 245.999908 169.440094 C 247.268906 168.046112 247.999908 166.218109 247.999908 164.275101 L 247.999908 63.724106 C 247.999908 59.465103 244.526901 56.000107 240.257904 56.000107 L 15.741899 56.000107 C 11.472901 56.000107 7.999895 59.465103 7.999895 63.724106 L 7.999895 164.275101 C 7.999895 166.218109 8.731904 168.046112 9.999894 169.440094 L 9.999894 175.750092 C 9.999894 178.203094 11.576905 180.241104 13.999894 181.273102 L 13.999894 184.151093 C 11.342896 185.798096 9.870896 188.405106 9.870896 191.613098 C 9.870896 198.976105 15.861894 204.968109 23.225908 204.968109 L 232.774902 204.968109 C 240.137909 204.968109 246.128906 198.976105 246.128906 191.613098 C 246.128906 188.405106 244.656906 185.798096 241.999908 184.151093 L 241.999908 181.273102 C 244.422897 180.241104 245.999908 178.203094 245.999908 175.750092"/>
    <path id="path1" fill="#ffffff" stroke="none" d="M 20 172 L 26 172 L 26 196 L 30 196 L 30 172 L 34 172 L 34 192 L 38 192 L 38 172 L 42 172 L 42 192 L 46 192 L 46 172 L 50 172 L 50 192 L 54 192 L 54 172 L 58 172 L 58 192 L 62 192 L 62 172 L 66 172 L 66 192 L 70 192 L 70 172 L 74 172 L 74 192 L 78 192 L 78 172 L 82 172 L 82 192 L 86 192 L 86 172 L 90 172 L 90 192 L 94 192 L 94 172 L 98 172 L 98 192 L 102 192 L 102 172 L 106 172 L 106 192 L 110 192 L 110 172 L 114 172 L 114 192 L 118 192 L 118 172 L 122 172 L 122 196 L 126 196 L 126 172 L 130 172 L 130 196 L 134 196 L 134 172 L 138 172 L 138 192 L 142 192 L 142 172 L 146 172 L 146 192 L 150 192 L 150 172 L 154 172 L 154 192 L 158 192 L 158 172 L 162 172 L 162 192 L 166 192 L 166 172 L 170 172 L 170 192 L 174 192 L 174 172 L 178 172 L 178 192 L 182 192 L 182 172 L 186 172 L 186 192 L 190 192 L 190 172 L 194 172 L 194 192 L 198 192 L 198 172 L 202 172 L 202 192 L 206 192 L 206 172 L 210 172 L 210 192 L 214 192 L 214 172 L 218 172 L 218 192 L 222 192 L 222 172 L 226 172 L 226 196 L 230 196 L 230 172 L 236 172 L 236 168 L 20 168 Z"/>
</svg>
