<?xml version="1.0" encoding="UTF-8"?>
<!-- Generated by Pixelmator Pro 3.7.1 -->
<svg width="256" height="256" viewBox="0 0 256 256" xmlns="http://www.w3.org/2000/svg">
    <path id="Path" fill="#ffffff" stroke="none" d="M 12 184 L 12 36 L 60 36 L 60 140 L 60 144 L 64 144 L 192 144 L 196 144 L 196 140 L 196 36 L 244 36 L 244 184 Z M 244 220 L 12 220 L 12 188 L 244 188 Z M 192 140 L 64 140 L 64 36 L 192 36 Z M 244 32 L 196 32 L 192 32 L 64 32 L 60 32 L 12 32 L 8 32 L 8 36 L 8 184 L 8 188 L 8 220 L 8 224 L 12 224 L 244 224 L 248 224 L 248 220 L 248 188 L 248 184 L 248 36 L 248 32 Z"/>
    <path id="path1" fill="#ffffff" stroke="none" d="M 188 40 L 68 40 L 68 44 L 188 44 Z"/>
    <path id="path2" fill="#ffffff" stroke="none" d="M 188 48 L 68 48 L 68 52 L 188 52 Z"/>
    <path id="path3" fill="#ffffff" stroke="none" d="M 188 56 L 68 56 L 68 60 L 188 60 Z"/>
    <path id="path4" fill="#ffffff" stroke="none" d="M 188 64 L 68 64 L 68 68 L 188 68 Z"/>
    <path id="path5" fill="#ffffff" stroke="none" d="M 188 72 L 68 72 L 68 76 L 188 76 Z"/>
    <path id="path6" fill="#ffffff" stroke="none" d="M 188 80 L 68 80 L 68 84 L 188 84 Z"/>
    <path id="path7" fill="#ffffff" stroke="none" d="M 96 132 L 72 132 L 72 108 L 96 108 Z M 72 92 L 184 92 L 184 104 L 100 104 L 96 104 L 72 104 Z M 184 132 L 100 132 L 100 108 L 184 108 Z M 96 136 L 100 136 L 188 136 L 188 108 L 188 104 L 188 92 L 188 88 L 184 88 L 72 88 L 68 88 L 68 92 L 68 104 L 68 108 L 68 132 L 68 136 L 72 136 Z"/>
</svg>
