<?xml version="1.0" encoding="UTF-8"?>
<!-- Generated by Pixelmator Pro 3.7.1 -->
<svg width="256" height="256" viewBox="0 0 256 256" xmlns="http://www.w3.org/2000/svg">
    <path id="Path" fill="#ffffff" stroke="none" d="M 217.779297 187.993195 C 207.404297 189.833191 198.3423 190.885193 190.0923 191.474197 C 180.194305 191.974197 151.323303 192.000198 145.675308 192.000198 L 144.851303 192.000198 C 116.2593 191.647202 99.387299 190.772202 90.651299 190.153198 C 84.197296 189.69519 77.744293 189.481201 71.272293 189.481201 L 38.500294 189.481201 C 31.2383 189.481201 24.3783 185.967194 20.755299 180.015198 C 20.240299 179.171204 19.740299 178.287201 19.2533 177.365204 C 11.761294 163.194199 7.622303 87.2332 19.2533 74.628204 C 25.011295 68.387192 31.280308 66.351196 37.778294 65.543198 C 47.602299 64.320206 57.530308 64.000198 67.439301 64.000198 L 196.067307 64.000198 C 205.749298 64.000198 215.4263 64.654205 224.976303 66.1642 C 236.844299 68.040192 242.988297 70.281204 243.888306 80.000198 L 214.000305 80.000198 C 212.895294 80.000198 212.000305 80.895203 212.000305 82.000198 C 212.000305 83.104202 212.895294 84.000198 214.000305 84.000198 L 244.000305 84.000198 L 244.000305 88.000198 L 218.000305 88.000198 C 216.895294 88.000198 216.000305 88.895203 216.000305 90.000198 C 216.000305 91.104202 216.895294 92.000198 218.000305 92.000198 L 244.000305 92.000198 L 244.000305 96.000198 L 222.000305 96.000198 C 220.895294 96.000198 220.000305 96.895203 220.000305 98.000198 C 220.000305 99.104202 220.895294 100.000198 222.000305 100.000198 L 244.000305 100.000198 L 244.000305 170.279205 C 243.428299 178.084198 237.976303 184.411194 217.779297 187.993195 M 247.998306 81.597198 C 247.572296 66.879196 237.602295 64.111191 225.600296 62.213196 C 216.313293 60.744202 206.377304 60.000198 196.067307 60.000198 L 67.439301 60.000198 C 55.328297 60.000198 46.028294 60.485199 37.284306 61.574203 C 31.273304 62.322205 23.457294 64.173203 16.313297 71.915192 C 8.274295 80.628204 7.706302 109.229202 8.083301 125.502197 C 8.5423 145.294189 11.1263 170.551208 15.717303 179.234192 C 16.245304 180.2332 16.790302 181.196198 17.338306 182.096191 C 21.614307 189.119202 29.723301 193.481201 38.500294 193.481201 L 71.272293 193.481201 C 77.752304 193.481201 84.1763 193.704193 90.368294 194.142197 C 99.603294 194.798203 116.543297 195.651199 144.802307 195.999207 L 144.826294 196.000198 L 144.881302 196.000198 L 145.675308 196.000198 C 151.373306 196.000198 180.302292 195.974197 190.295303 195.4702 L 190.336304 195.468201 L 190.378296 195.465195 C 199.593292 194.805206 208.785294 193.650208 218.477295 191.931198 C 238.060303 188.459198 247.1633 181.871201 247.989304 170.571198 L 248.000305 170.426208 L 248.000305 170.279205 L 248.000305 81.713196 L 248.000305 81.655197 Z"/>
    <path id="path1" fill="#ffffff" stroke="none" d="M 197.623993 169.694305 C 197.029999 170.8573 195.722 171.662292 194.209 171.793304 C 180.154007 173.013306 141.263992 175.105301 128.377991 175.785309 L 128.376999 172.069305 C 128.376999 168.723297 125.654999 166.002289 122.309998 166.002289 L 85.195999 166.002289 C 81.849998 166.002289 79.127998 168.724304 79.127998 172.070297 L 79.127998 175.633301 C 78.105003 175.214294 77.300003 174.462311 76.962997 173.529297 C 60.618996 128.315308 73.012001 89.701309 77.199997 78.944305 C 77.643997 77.803299 78.602997 76.623306 79.577003 76.574295 C 87.122002 76.193298 95.320999 76.000305 103.945999 76.000305 C 142.729004 76.000305 180.787003 79.7883 193.350006 82.5233 C 194.852005 82.849304 196.072006 83.869308 196.457993 85.1203 C 211.528 133.990295 202.294006 160.546295 197.623993 169.694305 M 200.279999 83.941299 C 199.460007 81.281296 197.108002 79.247299 194.199005 78.614304 C 180.660004 75.667297 141.811005 72.000305 103.945999 72.000305 C 95.612999 72.000305 87.333 72.177307 79.375 72.5793 C 76.567001 72.721298 74.429001 75.035309 73.472 77.492294 C 68.708 89.731308 56.532005 128.77829 73.202003 174.889297 C 74.314003 177.968292 77.501999 180.000305 81.010002 180.000305 L 83.127998 180.000305 L 83.127998 172.070297 C 83.127998 170.927307 84.054001 170.002289 85.195999 170.002289 L 122.309998 170.002289 C 123.452003 170.002289 124.376999 170.927307 124.376999 172.070297 L 124.377998 180.000305 C 124.377998 180.000305 177.421997 177.266296 194.556 175.77829 C 197.431 175.52829 199.953003 173.929291 201.186996 171.512299 C 206.039001 162.006302 215.806 134.289307 200.279999 83.941299"/>
    <path id="path2" fill="#ffffff" stroke="none" d="M 117.428703 176 L 110.571701 176 C 109.151703 176 107.999702 176.895996 107.999702 178 C 107.999702 179.104004 109.151703 180 110.571701 180 L 117.428703 180 C 118.848701 180 119.999702 179.104004 119.999702 178 C 119.999702 176.895996 118.848701 176 117.428703 176"/>
    <path id="path3" fill="#ffffff" stroke="none" d="M 97.428703 176 L 90.571701 176 C 89.151703 176 87.999702 176.895996 87.999702 178 C 87.999702 179.104004 89.151703 180 90.571701 180 L 97.428703 180 C 98.848701 180 99.999702 179.104004 99.999702 178 C 99.999702 176.895996 98.848701 176 97.428703 176"/>
    <path id="path4" fill="#ffffff" stroke="none" d="M 27.518101 85.772507 C 27.854099 85.530502 28.2481 85.4095 28.642099 85.4095 C 29.090099 85.4095 29.538099 85.566498 29.896099 85.880493 L 37.530102 92.561493 C 37.946102 92.9245 38.183102 93.448502 38.183102 93.998505 C 38.183102 94.548492 37.946102 95.072495 37.530102 95.435501 L 29.896099 102.116501 C 29.542099 102.426498 29.0931 102.588501 28.6401 102.588501 C 28.375099 102.588501 28.111099 102.5345 27.8591 102.420502 C 25.503099 101.365494 24.365099 98.086502 24.0811 95.3685 C 23.6521 91.234497 24.938101 87.647507 27.518101 85.772507 M 33.579102 79.855499 C 34.634102 77.499496 37.913101 76.360504 40.6301 76.077499 C 41.147099 76.025497 41.655102 76.000504 42.1521 76.000504 C 45.639099 76.000504 48.585098 77.258499 50.225101 79.514496 C 50.747101 80.236496 50.702099 81.224503 50.1171 81.893494 L 43.437099 89.528503 C 43.0741 89.944504 42.550098 90.181503 42.000099 90.181503 C 41.4501 90.181503 40.926102 89.944504 40.563099 89.528503 L 33.883099 81.893494 C 33.393101 81.332504 33.273102 80.536499 33.579102 79.855499 M 56.141098 85.576508 C 58.497101 86.6315 59.635101 89.910507 59.919102 92.628494 C 60.348103 96.763504 59.0611 100.349503 56.482101 102.224503 C 56.146099 102.467499 55.753101 102.588501 55.3601 102.588501 C 54.911098 102.588501 54.461102 102.429504 54.1031 102.116501 L 46.469101 95.435501 C 46.0541 95.072495 45.817101 94.548492 45.817101 93.998505 C 45.817101 93.448502 46.0541 92.9245 46.469101 92.561493 L 54.1031 85.880493 C 54.4561 85.569504 54.904099 85.406494 55.358101 85.406494 C 55.622101 85.406494 55.890099 85.461502 56.141098 85.576508 M 50.225101 108.482498 C 48.5881 110.734497 45.647099 112.000504 42.177101 112.000504 C 41.6721 112.000504 41.156101 111.974503 40.6301 111.919495 C 37.913101 111.636505 34.634102 110.497498 33.579102 108.141495 C 33.273102 107.460495 33.393101 106.665497 33.883099 106.104507 L 40.563099 98.468506 C 40.926102 98.052505 41.4631 97.845505 42.000099 97.845505 C 42.537102 97.845505 43.0741 98.052505 43.437099 98.468506 L 50.1171 106.104507 C 50.702099 106.772507 50.747101 107.761505 50.225101 108.482498 M 26.2241 106.071503 C 26.979099 106.412506 27.796101 106.588501 28.6401 106.588501 C 28.9231 106.588501 29.201099 106.552505 29.4771 106.512497 C 29.319099 107.604507 29.462099 108.738495 29.931101 109.780502 C 31.414101 113.092499 35.259102 115.3815 40.215099 115.898499 C 40.8731 115.9655 41.531101 116.000504 42.177101 116.000504 C 46.962101 116.000504 51.0751 114.117493 53.461102 110.834503 C 54.397099 109.539505 54.730099 107.991501 54.515099 106.511505 C 54.794098 106.552505 55.0751 106.588501 55.3601 106.588501 C 56.611099 106.588501 57.809101 106.2005 58.8241 105.467499 C 62.5821 102.735504 64.475098 97.7845 63.897102 92.2155 C 63.3801 87.2565 61.092102 83.411499 57.7761 81.925507 C 57.028099 81.585495 56.2061 81.406494 55.358101 81.406494 C 55.073101 81.406494 54.794098 81.442505 54.516098 81.482498 C 54.731098 80.004501 54.399101 78.460495 53.466099 77.170502 C 51.077099 73.8815 46.955101 72.000504 42.1521 72.000504 C 41.521099 72.000504 40.875099 72.032501 40.231102 72.097504 C 35.259102 72.615494 31.414101 74.904495 29.9291 78.221497 C 29.4611 79.261505 29.319099 80.394501 29.4771 81.484497 C 29.201099 81.445496 28.924101 81.4095 28.642099 81.4095 C 27.392099 81.4095 26.195101 81.795502 25.180099 82.526505 C 21.4181 85.261505 19.525101 90.212494 20.1021 95.781494 C 20.6201 100.740494 22.9081 104.585495 26.2241 106.071503"/>
    <path id="path5" fill="#ffffff" stroke="none" d="M 56.482399 166.222702 C 56.1474 166.468689 55.753399 166.587708 55.360401 166.587708 C 54.9114 166.587708 54.461399 166.427704 54.104401 166.1147 L 46.469402 159.431702 C 46.053402 159.070709 45.817402 158.548706 45.817402 157.995697 C 45.817402 157.444702 46.053402 156.922699 46.469402 156.560699 L 54.104401 149.878693 C 54.455399 149.564697 54.902401 149.405701 55.354401 149.405701 C 55.621399 149.405701 55.8904 149.460693 56.141399 149.5737 C 58.497398 150.631699 59.637402 153.912689 59.919399 156.631699 C 60.346401 160.763702 59.062401 164.350708 56.482399 166.222702 M 50.225399 172.483704 C 48.588402 174.736694 45.6474 175.999695 42.178402 175.999695 C 41.673401 175.999695 41.157402 175.973694 40.6334 175.921692 C 37.914398 175.638702 34.6334 174.496704 33.579399 172.140701 C 33.273399 171.4617 33.392399 170.663696 33.882401 170.104706 L 40.5634 162.467697 C 40.926399 162.053711 41.463402 161.84671 42.000401 161.84671 C 42.5364 161.84671 43.073399 162.053711 43.437401 162.467697 L 50.117401 170.104706 C 50.7024 170.775696 50.747398 171.759705 50.225399 172.483704 M 27.8584 166.419708 C 25.503401 165.361694 24.362402 162.079697 24.0804 159.361694 C 23.653402 155.229706 24.9384 151.6427 27.517401 149.770691 C 27.852402 149.525696 28.245401 149.404694 28.637402 149.404694 C 29.0874 149.404694 29.536402 149.56369 29.8964 149.878693 L 37.530399 156.560699 C 37.9464 156.922699 38.1824 157.444702 38.1824 157.995697 C 38.1824 158.548706 37.9464 159.070709 37.530399 159.431702 L 29.8964 166.1147 C 29.5424 166.427704 29.092402 166.587708 28.6394 166.587708 C 28.375401 166.587708 28.1084 166.5327 27.8584 166.419708 M 33.579399 143.852692 C 34.6334 141.495697 37.914398 140.354706 40.6334 140.071701 C 41.1334 140.023697 41.625401 139.999695 42.107399 139.999695 C 45.604401 139.999695 48.5774 141.24469 50.225399 143.509705 C 50.747398 144.233704 50.7024 145.217697 50.117401 145.888702 L 43.437401 153.525696 C 43.073399 153.939697 42.5494 154.177704 42.000401 154.177704 C 41.450401 154.177704 40.926399 153.939697 40.5634 153.525696 L 33.882401 145.888702 C 33.392399 145.328705 33.273399 144.531708 33.579399 143.852692 M 57.781399 145.924698 C 57.005402 145.577698 56.192402 145.405701 55.354401 145.405701 C 55.0704 145.405701 54.791401 145.441696 54.513401 145.482697 C 54.7304 144.002701 54.399399 142.45871 53.469398 141.169708 C 51.075401 137.878693 46.937401 135.999695 42.107399 135.999695 C 41.498402 135.999695 40.874401 136.030701 40.252399 136.089691 C 35.260399 136.609695 31.413401 138.899689 29.9284 142.218689 C 29.460402 143.256699 29.3174 144.390701 29.475401 145.480698 C 29.1984 145.440704 28.920401 145.404694 28.637402 145.404694 C 27.378401 145.404694 26.1744 145.797699 25.1574 146.54071 C 21.420401 149.252701 19.5264 154.201691 20.1014 159.772705 C 20.6154 164.728699 22.9014 168.576691 26.218401 170.068695 C 26.989401 170.413696 27.802401 170.587708 28.6394 170.587708 C 28.922401 170.587708 29.1994 170.551697 29.4764 170.511703 C 29.3174 171.603699 29.461401 172.740692 29.932402 173.783691 C 31.413401 177.093689 35.260399 179.383698 40.219398 179.900696 C 40.8904 179.966705 41.5434 179.999695 42.178402 179.999695 C 46.963402 179.999695 51.076401 178.117706 53.461399 174.834702 C 54.3964 173.538696 54.728401 171.991699 54.512402 170.511703 C 54.7934 170.551697 55.074402 170.587708 55.360401 170.587708 C 56.625401 170.587708 57.831402 170.193695 58.8484 169.4487 C 62.579399 166.740692 64.473404 161.79071 63.898399 156.220703 C 63.384399 151.264709 61.0984 147.41571 57.781399 145.924698"/>
    <path id="path6" fill="#ffffff" stroke="none" d="M 232.482407 162.222702 C 232.146393 162.468689 231.753403 162.587708 231.360397 162.587708 C 230.911407 162.587708 230.461395 162.427704 230.103394 162.1147 L 222.469406 155.431702 C 222.053406 155.070709 221.817398 154.548706 221.817398 153.995697 C 221.817398 153.444702 222.053406 152.922699 222.469406 152.560699 L 230.103394 145.878693 C 230.455399 145.564697 230.902405 145.405701 231.354401 145.405701 C 231.621399 145.405701 231.889404 145.460693 232.141403 145.5737 C 234.497406 146.631699 235.637405 149.912689 235.919403 152.631699 C 236.345398 156.763702 235.061401 160.350708 232.482407 162.222702 M 226.225403 168.483704 C 224.588394 170.736694 221.6474 171.999695 218.178406 171.999695 C 217.673401 171.999695 217.157394 171.973694 216.633408 171.921692 C 213.914398 171.638702 210.633392 170.496704 209.579407 168.140701 C 209.273407 167.4617 209.392395 166.663696 209.882401 166.104706 L 216.562393 158.467697 C 216.926407 158.053711 217.462402 157.84671 218.000397 157.84671 C 218.537399 157.84671 219.073395 158.053711 219.437393 158.467697 L 226.117401 166.104706 C 226.702393 166.775696 226.747406 167.759705 226.225403 168.483704 M 233.781403 141.924698 C 233.005402 141.577698 232.192398 141.405701 231.354401 141.405701 C 229.905396 141.405701 228.514404 141.934692 227.4384 142.896698 L 219.835403 149.55069 C 218.590393 150.633698 217.864395 152.199707 217.824402 153.855698 C 216.172394 153.903702 214.625397 154.612701 213.557404 155.827698 L 206.872406 163.470703 C 205.354401 165.201691 204.985397 167.680695 205.931396 169.783691 C 207.414398 173.093689 211.260406 175.383698 216.219406 175.900696 C 216.889404 175.966705 217.543396 175.999695 218.178406 175.999695 C 222.963394 175.999695 227.076401 174.117706 229.461395 170.834702 C 230.396393 169.538696 230.728394 167.991699 230.512405 166.511703 C 230.793396 166.551697 231.074402 166.587708 231.360397 166.587708 C 232.625397 166.587708 233.831406 166.193695 234.848404 165.4487 C 238.579407 162.740692 240.473404 157.79071 239.898407 152.220703 C 239.384399 147.264709 237.098404 143.41571 233.781403 141.924698"/>
    <path id="path7" fill="#ffffff" stroke="none" d="M 84 96 L 184 96 L 184 156 L 84 156 Z M 80 160 L 188 160 L 188 92 L 80 92 Z"/>
</svg>
