<?xml version="1.0" encoding="UTF-8"?>
<!-- Generated by Pixelmator Pro 3.7.1 -->
<svg width="256" height="256" viewBox="0 0 256 256" xmlns="http://www.w3.org/2000/svg">
    <path id="Path" fill="#ffffff" stroke="none" d="M 184 20 L 180 20 L 180 24 L 180 144 L 180 148 L 76 148 L 76 144 L 76 24 L 76 20 L 72 20 L 16 20 L 16 12 L 100 12 L 104 20 L 152 20 L 156 12 L 240 12 L 240 20 Z M 184 24 L 240 24 L 240 144 L 184 144 Z M 240 172 L 108 172 L 108 160 L 240 160 Z M 240 244 L 16 244 L 16 184 L 240 184 Z M 16 160 L 32 160 L 32 172 L 16 172 Z M 72 144 L 16 144 L 16 24 L 72 24 Z M 108 176 L 240 176 L 240 180 L 16 180 L 16 176 L 32 176 L 36 176 L 104 176 Z M 104 172 L 36 172 L 36 160 L 104 160 Z M 240 152 L 240 156 L 108 156 L 104 156 L 36 156 L 32 156 L 16 156 L 16 152 Z M 240 8 L 156 8 L 153.527008 8 L 152.421997 10.210999 L 149.528 16 L 106.472 16 L 103.578003 10.210999 L 102.472 8 L 100 8 L 16 8 L 12 8 L 12 12 L 12 20 L 12 24 L 12 144 L 12 148 L 12 152 L 12 156 L 12 160 L 12 172 L 12 176 L 12 180 L 12 184 L 12 244 L 12 248 L 16 248 L 240 248 L 244 248 L 244 244 L 244 184 L 244 180 L 244 176 L 244 172 L 244 160 L 244 156 L 244 152 L 244 148 L 244 144 L 244 24 L 244 20 L 244 12 L 244 8 Z"/>
    <path id="path1" fill="#ffffff" stroke="none" d="M 84 32 L 172 32 L 172 52 L 84 52 Z M 172 68 L 84 68 L 84 56 L 172 56 Z M 172 80 L 84 80 L 84 72 L 172 72 Z M 84 28 L 80 28 L 80 32 L 80 52 L 80 56 L 80 68 L 80 72 L 80 80 L 80 84 L 84 84 L 172 84 L 176 84 L 176 80 L 176 72 L 176 68 L 176 56 L 176 52 L 176 32 L 176 28 L 172 28 Z"/>
    <path id="path2" fill="#ffffff" stroke="none" d="M 172 140 L 84 140 L 84 92 L 172 92 Z M 84 88 L 80 88 L 80 92 L 80 140 L 80 144 L 84 144 L 172 144 L 176 144 L 176 140 L 176 92 L 176 88 L 172 88 Z"/>
    <path id="path3" fill="#ffffff" stroke="none" d="M 112 128 L 92 128 L 92 120 L 112 120 Z M 116 116 L 88 116 L 88 132 L 116 132 Z"/>
    <path id="path4" fill="#ffffff" stroke="none" d="M 164 128 L 144 128 L 144 120 L 164 120 Z M 168 116 L 140 116 L 140 132 L 168 132 Z"/>
    <path id="path5" fill="#ffffff" stroke="none" d="M 36 84 L 28 84 L 28 76 L 36 76 Z M 28 64 L 36 64 L 36 72 L 28 72 Z M 28 52 L 36 52 L 36 60 L 28 60 Z M 28 40 L 36 40 L 36 48 L 28 48 Z M 40 40 L 48 40 L 48 48 L 40 48 Z M 52 40 L 60 40 L 60 48 L 52 48 Z M 60 60 L 52 60 L 52 52 L 60 52 Z M 60 72 L 52 72 L 52 64 L 60 64 Z M 60 84 L 52 84 L 52 76 L 60 76 Z M 40 52 L 48 52 L 48 60 L 40 60 Z M 40 64 L 48 64 L 48 72 L 40 72 Z M 48 84 L 40 84 L 40 76 L 48 76 Z M 36 88 L 40 88 L 48 88 L 52 88 L 60 88 L 64 88 L 64 84 L 64 76 L 64 72 L 64 64 L 64 60 L 64 52 L 64 48 L 64 40 L 64 36 L 60 36 L 52 36 L 48 36 L 40 36 L 36 36 L 28 36 L 24 36 L 24 40 L 24 48 L 24 52 L 24 60 L 24 64 L 24 72 L 24 76 L 24 84 L 24 88 L 28 88 Z"/>
    <path id="path6" fill="#ffffff" stroke="none" d="M 42 100 C 51.941002 100 60 108.059006 60 118 C 60 127.940994 51.941002 136 42 136 C 32.058998 136 24 127.940994 24 118 C 24 108.059006 32.058998 100 42 100 M 42 140 C 54.131001 140 64 130.130997 64 118 C 64 105.869003 54.131001 96 42 96 C 29.868999 96 20 105.869003 20 118 C 20 130.130997 29.868999 140 42 140"/>
    <path id="path7" fill="#ffffff" stroke="none" d="M 220 40 L 228 40 L 228 48 L 220 48 Z M 228 60 L 220 60 L 220 52 L 228 52 Z M 228 72 L 220 72 L 220 64 L 228 64 Z M 228 84 L 220 84 L 220 76 L 228 76 Z M 216 84 L 208 84 L 208 76 L 216 76 Z M 204 84 L 196 84 L 196 76 L 204 76 Z M 196 64 L 204 64 L 204 72 L 196 72 Z M 196 52 L 204 52 L 204 60 L 196 60 Z M 196 40 L 204 40 L 204 48 L 196 48 Z M 216 72 L 208 72 L 208 64 L 216 64 Z M 216 60 L 208 60 L 208 52 L 216 52 Z M 208 40 L 216 40 L 216 48 L 208 48 Z M 220 36 L 216 36 L 208 36 L 204 36 L 196 36 L 192 36 L 192 40 L 192 48 L 192 52 L 192 60 L 192 64 L 192 72 L 192 76 L 192 84 L 192 88 L 196 88 L 204 88 L 208 88 L 216 88 L 220 88 L 228 88 L 232 88 L 232 84 L 232 76 L 232 72 L 232 64 L 232 60 L 232 52 L 232 48 L 232 40 L 232 36 L 228 36 Z"/>
    <path id="path8" fill="#ffffff" stroke="none" d="M 210 136 C 200.059006 136 192 127.940994 192 118 C 192 108.059006 200.059006 100 210 100 C 219.940994 100 228 108.059006 228 118 C 228 127.940994 219.940994 136 210 136 M 210 96 C 197.869003 96 188 105.869003 188 118 C 188 130.130997 197.869003 140 210 140 C 222.130997 140 232 130.130997 232 118 C 232 105.869003 222.130997 96 210 96"/>
    <path id="path9" fill="#ffffff" stroke="none" d="M 76 192 L 180 192 L 180 228 L 76 228 Z M 180 232 L 184 232 L 184 228 L 184 192 L 184 188 L 180 188 L 76 188 L 72 188 L 72 192 L 72 228 L 72 232 L 76 232 Z"/>
</svg>
