<?xml version="1.0" encoding="UTF-8"?>
<!-- Generated by Pixelmator Pro 3.7.1 -->
<svg width="256" height="256" viewBox="0 0 256 256" xmlns="http://www.w3.org/2000/svg">
    <path id="Path" fill="#ffffff" stroke="none" d="M 200 20 L 192 20 L 192 24 L 200 24 L 200 28 L 192 28 L 192 32 L 200 32 L 200 36 L 192 36 L 192 40 L 200 40 L 200 44 L 192 44 L 192 48 L 200 48 L 200 52 L 192 52 L 192 56 L 200 56 L 200 60 L 192 60 L 192 64 L 200 64 L 200 68 L 192 68 L 192 72 L 200 72 L 200 244 L 56 244 L 56 72 L 64 72 L 64 68 L 56 68 L 56 64 L 64 64 L 64 60 L 56 60 L 56 56 L 64 56 L 64 52 L 56 52 L 56 48 L 64 48 L 64 44 L 56 44 L 56 40 L 64 40 L 64 36 L 56 36 L 56 32 L 64 32 L 64 28 L 56 28 L 56 24 L 64 24 L 64 20 L 56 20 L 56 12 L 200 12 Z M 200 8 L 56 8 L 52 8 L 52 12 L 52 244 L 52 248 L 56 248 L 200 248 L 204 248 L 204 244 L 204 12 L 204 8 Z"/>
    <path id="path1" fill="#ffffff" stroke="none" d="M 72 112 L 184 112 L 184 120 L 72 120 Z M 72 24 L 184 24 L 184 44 L 72 44 Z M 184 108 L 72 108 L 72 48 L 184 48 Z M 188 112 L 188 44 L 188 20 L 68 20 L 68 44 L 68 112 L 68 124 L 188 124 Z"/>
</svg>
