<?xml version="1.0" encoding="UTF-8"?>
<!-- Generated by Pixelmator Pro 3.7.1 -->
<svg width="256" height="256" viewBox="0 0 256 256" xmlns="http://www.w3.org/2000/svg">
    <path id="Path" fill="#ffffff" stroke="none" d="M 157.997101 193.752594 L 128.704102 219.383606 C 128.515106 219.549606 128.280106 219.631592 128.046097 219.631592 C 127.789101 219.631592 127.533096 219.5336 127.338097 219.338593 L 101.7071 193.707596 C 101.077103 193.077606 101.523102 191.999603 102.414101 191.999603 L 157.338104 191.999603 C 158.2621 191.999603 158.692093 193.144592 157.997101 193.752594 M 157.338104 187.999603 L 102.414101 187.999603 C 100.385101 187.999603 98.571098 189.211609 97.795097 191.086609 C 97.018097 192.961609 97.444099 195.100601 98.879097 196.535599 L 124.510101 222.166595 C 125.454102 223.111603 126.710098 223.631592 128.046097 223.631592 C 129.257095 223.631592 130.426102 223.191605 131.338104 222.394592 L 160.631104 196.762604 C 162.214096 195.377594 162.759094 193.210602 162.019104 191.241608 C 161.279099 189.272598 159.442093 187.999603 157.338104 187.999603"/>
    <path id="path1" fill="#ffffff" stroke="none" d="M 220 114 C 220 115.104996 219.104996 116 218 116 L 212 116 L 208 116 L 180 116 L 180 78 C 180 74.692001 177.307999 72 174 72 L 82 72 C 78.692001 72 76 74.692001 76 78 L 76 116 L 48 116 L 44 116 L 38 116 C 36.895004 116 36 115.104996 36 114 L 36 112 L 36 40 L 68 40 L 72 40 L 184 40 L 188 40 L 220 40 L 220 112 Z M 208 120 L 208 176 C 208 178.209 206.209 180 204 180 L 52 180 C 49.791 180 48 178.209 48 176 L 48 120 Z M 176 116 L 80 116 L 80 78 C 80 76.895004 80.895004 76 82 76 L 174 76 C 175.104996 76 176 76.895004 176 78 Z M 36 244 L 36 119.649994 C 36.626999 119.873001 37.298004 120 38 120 L 44 120 L 44 176 C 44 180.411011 47.589005 184 52 184 L 204 184 C 208.410995 184 212 180.411011 212 176 L 212 120 L 218 120 C 218.701996 120 219.373001 119.873001 220 119.649994 L 220 244 Z M 44 12 L 68 12 L 68 36 L 44 36 Z M 184 36 L 72 36 L 72 12 L 184 12 Z M 212 36 L 188 36 L 188 12 L 212 12 Z M 220 36 L 216 36 L 216 12 L 216 8 L 212 8 L 44 8 L 40 8 L 40 12 L 40 36 L 36 36 L 32 36 L 32 40 L 32 112 L 32 114 L 32 244 L 32 248 L 36 248 L 220 248 L 224 248 L 224 244 L 224 114 L 224 112 L 224 40 L 224 36 Z"/>
</svg>
