<?xml version="1.0" encoding="UTF-8"?>
<!-- Generated by Pixelmator Pro 3.7.1 -->
<svg width="256" height="256" viewBox="0 0 256 256" xmlns="http://www.w3.org/2000/svg">
    <path id="Path" fill="#ffffff" stroke="none" d="M 228 188 C 208 124 216 88 220 52 C 223.572998 19.839996 214.384995 13.223007 212.382004 12.175995 C 221.194 13.343994 228 20.869003 228 30 Z M 228 212.651001 C 228 221.494003 221.576004 229.027008 212.843994 230.425003 L 199.501999 232.899002 L 192.531998 194.569 C 191.841003 190.763 188.529999 188 184.662003 188 L 144 188 L 144 184 L 140 184 L 116 184 L 112 184 L 112 188 L 71.337997 188 C 67.470001 188 64.158997 190.763 63.466995 194.569 L 56.498001 232.899002 L 43.156006 230.425003 C 34.423996 229.027008 28 221.494003 28 212.651001 L 28 192 L 28.003006 192 C 29.727997 192 31.289993 190.882996 31.817993 189.192993 C 36.542007 174.078003 39.707001 160.459 41.753006 148 L 78.093002 148 C 89.832993 162.617004 107.835999 172 128 172 C 148.162994 172 166.167999 162.617004 177.906998 148 L 214.246994 148 C 216.292999 160.459 219.459 174.078003 224.182007 189.192993 C 224.710007 190.882996 226.272003 192 227.996994 192 L 228 192 Z M 116 188 L 140 188 L 140 196 L 116 196 Z M 148.380997 242.380005 C 141.630005 243.459991 134.815002 244 128 244 C 121.184998 244 114.370003 243.459991 107.619003 242.380005 L 60.431 233.628998 L 67.403 195.283997 C 67.748993 193.382996 69.404999 192 71.337997 192 L 112 192 L 112 196 L 112 200 L 116 200 L 140 200 L 144 200 L 144 196 L 144 192 L 184.662003 192 C 186.595001 192 188.251007 193.382996 188.597992 195.283997 L 195.567993 233.628998 Z M 28 30 C 28 20.869003 34.806 13.343994 43.617996 12.175995 C 41.615005 13.223007 32.427002 19.839996 36 52 C 40 88 48 124 28 188 Z M 45.389999 15.768005 C 47.173996 15.348007 48.227005 13.806 48.225998 12 L 45.998993 12 L 46 12 L 63.901993 12 L 64.095001 12.867996 L 71.399002 45.735001 C 72.218994 49.423996 75.429993 52 79.207993 52 L 97.059998 52 C 77.365005 62.925003 64 83.927002 64 108 C 64 121.339996 68.106995 133.735001 75.117004 144 L 42.378998 144 C 47.263 110.994003 44.218994 86.290009 41.429993 63.731003 C 40.936005 59.731003 40.423996 55.593994 39.975998 51.557999 C 36.716003 22.218994 44.417999 16.378006 45.389999 15.768005 M 128 44 L 180.889008 44 L 180.695999 44.867996 C 180.289001 46.697998 178.666 48 176.791 48 L 150.261993 48 C 143.324005 45.417999 135.824997 44 128 44 C 120.174004 44 112.675003 45.417999 105.737999 48 L 79.207993 48 C 77.334 48 75.710007 46.697998 75.304001 44.867996 L 75.110992 44 Z M 181.777008 40 L 74.222 40 L 73.332993 36 L 182.666992 36 Z M 184.444 28 L 183.556 32 L 72.444 32 L 71.556 28 Z M 187.110992 16 L 68.889008 16 L 68 12 L 188 12 Z M 185.333008 24 L 70.667007 24 L 69.778 20 L 186.222992 20 Z M 79.998993 144 C 72.466003 133.972 68 121.507996 68 108 C 68 74.863007 94.863007 48 128 48 C 161.136993 48 188 74.863007 188 108 C 188 121.507996 183.533997 133.972 176.001007 144 L 176 144 L 176 144.001007 C 165.054001 158.571991 147.628998 168 128 168 C 108.372002 168 90.947006 158.571991 80 144.001007 L 80 144 Z M 210.001007 12 L 207.774002 12 C 207.772995 13.806 208.824997 15.348007 210.610001 15.768005 C 211.582001 16.378006 219.283997 22.218994 216.024002 51.557999 C 215.576004 55.593994 215.063995 59.731003 214.570007 63.731003 C 211.779999 86.290009 208.737 110.994003 213.621002 144 L 180.882996 144 C 187.893005 133.735001 192 121.339996 192 108 C 192 83.927002 178.634995 62.925003 158.940002 52 L 176.791 52 C 180.570007 52 183.781006 49.423996 184.600998 45.735001 L 191.903992 12.867996 L 192.097992 12 L 210 12 Z M 210 8 L 46 8 C 33.869003 8 24 17.869003 24 30 L 24 212.651001 C 24 223.503998 31.766998 232.628998 42.473999 234.365997 L 106.889999 246.313004 L 106.938004 246.321991 L 106.987 246.330002 C 113.915001 247.438004 120.984001 248 128 248 C 135.015991 248 142.084991 247.438004 149.013 246.330002 L 149.061996 246.321991 L 149.110001 246.313004 L 213.526001 234.365997 C 224.233002 232.628998 232 223.503998 232 212.651001 L 232 30 C 232 17.869003 222.130997 8 210 8"/>
    <path id="path1" fill="#ffffff" stroke="none" d="M 50 160 L 62 160 C 63.104 160 64 159.104004 64 158 C 64 156.895996 63.104 156 62 156 L 50 156 C 48.896 156 48 156.895996 48 158 C 48 159.104004 48.896 160 50 160"/>
    <path id="path2" fill="#ffffff" stroke="none" d="M 96 219 C 93.791 219 92 217.656998 92 216 C 92 214.343002 93.791 213 96 213 C 98.209 213 100 214.343002 100 216 C 100 217.656998 98.209 219 96 219 M 88 212 C 86.343002 212 85 210.209 85 208 C 85 205.791 86.343002 204 88 204 C 89.656998 204 91 205.791 91 208 C 91 210.209 89.656998 212 88 212 M 88 228 C 86.343002 228 85 226.209 85 224 C 85 221.791 86.343002 220 88 220 C 89.656998 220 91 221.791 91 224 C 91 226.209 89.656998 228 88 228 M 80 219 C 77.791 219 76 217.656998 76 216 C 76 214.343002 77.791 213 80 213 C 82.209 213 84 214.343002 84 216 C 84 217.656998 82.209 219 80 219 M 96 209 C 95.640999 209 95.288002 209.020004 94.942001 209.057999 C 94.980003 208.712997 95 208.359009 95 208 C 95 203.514008 91.925003 200 88 200 C 84.074997 200 81 203.514008 81 208 C 81 208.359009 81.020004 208.712997 81.057999 209.057999 C 80.711998 209.020004 80.359001 209 80 209 C 75.514 209 72 212.074997 72 216 C 72 219.925003 75.514 223 80 223 C 80.359001 223 80.711998 222.979996 81.057999 222.942001 C 81.020004 223.287003 81 223.640991 81 224 C 81 228.485992 84.074997 232 88 232 C 91.925003 232 95 228.485992 95 224 C 95 223.640991 94.980003 223.287003 94.942001 222.942001 C 95.288002 222.979996 95.640999 223 96 223 C 100.486 223 104 219.925003 104 216 C 104 212.074997 100.486 209 96 209"/>
    <path id="path3" fill="#ffffff" stroke="none" d="M 154 224 C 150.686996 224 148 221.313004 148 218 C 148 214.686996 150.686996 212 154 212 C 157.313004 212 160 214.686996 160 218 C 160 221.313004 157.313004 224 154 224 M 154 208 C 148.485992 208 144 212.485992 144 218 C 144 223.514008 148.485992 228 154 228 C 159.514008 228 164 223.514008 164 218 C 164 212.485992 159.514008 208 154 208"/>
    <path id="path4" fill="#ffffff" stroke="none" d="M 174 220 C 170.686996 220 168 217.313004 168 214 C 168 210.686996 170.686996 208 174 208 C 177.313004 208 180 210.686996 180 214 C 180 217.313004 177.313004 220 174 220 M 174 204 C 168.485992 204 164 208.485992 164 214 C 164 219.514008 168.485992 224 174 224 C 179.514008 224 184 219.514008 184 214 C 184 208.485992 179.514008 204 174 204"/>
    <path id="path5" fill="#ffffff" stroke="none" d="M 196 172 C 191.582001 172 188 168.417999 188 164 C 188 159.582001 191.582001 156 196 156 C 200.417999 156 204 159.582001 204 164 C 204 168.417999 200.417999 172 196 172 M 196 152 C 189.382996 152 184 157.382996 184 164 C 184 170.617004 189.382996 176 196 176 C 202.617004 176 208 170.617004 208 164 C 208 157.382996 202.617004 152 196 152"/>
    <path id="path6" fill="#ffffff" stroke="none" d="M 86 140 C 87.103996 140 88 136.417999 88 132 C 88 127.582001 87.103996 124 86 124 C 84.896004 124 84 127.582001 84 132 C 84 136.417999 84.896004 140 86 140"/>
    <path id="path7" fill="#ffffff" stroke="none" d="M 170 140 C 171.104004 140 172 136.417999 172 132 C 172 127.582001 171.104004 124 170 124 C 168.895996 124 168 127.582001 168 132 C 168 136.417999 168.895996 140 170 140"/>
    <path id="path8" fill="#ffffff" stroke="none" d="M 114 152 C 115.103996 152 116 145.731995 116 138 C 116 130.268005 115.103996 124 114 124 C 112.896004 124 112 130.268005 112 138 C 112 145.731995 112.896004 152 114 152"/>
    <path id="path9" fill="#ffffff" stroke="none" d="M 142 152 C 143.104004 152 144 145.731995 144 138 C 144 130.268005 143.104004 124 142 124 C 140.895996 124 140 130.268005 140 138 C 140 145.731995 140.895996 152 142 152"/>
    <path id="path10" fill="#ffffff" stroke="none" d="M 60 176 C 57.791 176 56 174.209 56 172 C 56 169.791 57.791 168 60 168 C 62.209 168 64 169.791 64 172 C 64 174.209 62.209 176 60 176 M 53.083 176 L 52 176 C 49.791 176 48 174.209 48 172 C 48 169.791 49.791 168 52 168 L 53.083 168 C 52.397999 169.179001 52 170.541992 52 172 C 52 173.458008 52.397999 174.820999 53.083 176 M 60 164 L 56 164 L 52 164 C 47.589001 164 44 167.588989 44 172 C 44 176.411011 47.589001 180 52 180 L 56 180 L 60 180 C 64.411003 180 68 176.411011 68 172 C 68 167.588989 64.411003 164 60 164"/>
</svg>
