<?xml version="1.0" encoding="UTF-8"?>
<!-- Generated by Pixelmator Pro 3.7.1 -->
<svg width="256" height="256" viewBox="0 0 256 256" xmlns="http://www.w3.org/2000/svg">
    <path id="Path" fill="#ffffff" stroke="none" d="M 237.041 189.2164 C 236.440994 193.1194 233.082993 196.000397 229.134003 196.000397 L 105.884003 196.000397 C 99.824005 196.000397 94.283005 192.575409 91.572998 187.155396 L 77.100998 158.211395 C 76.423004 156.8564 75.037994 156.000397 73.522995 156.000397 L 18.878006 156.000397 C 17.156006 156.000397 15.626999 154.898407 15.083008 153.264404 L 11.994003 144.000397 L 243.996994 144.000397 Z M 15.994003 68.000397 L 239.996994 68.000397 L 240.220001 72.000397 L 111.996002 72.000397 C 109.787003 72.000397 107.996002 73.79039 107.996002 76.000397 L 107.996002 124.000397 C 107.996002 126.209396 109.787003 128.000397 111.996002 128.000397 L 243.330994 128.000397 L 243.330994 128.000397 L 243.996994 140.000397 L 11.994003 140.000397 Z M 223.996994 116.000397 C 223.996994 111.588394 220.408005 108.000397 215.996994 108.000397 C 220.408005 108.000397 223.996994 104.411392 223.996994 100.000397 C 223.996994 95.588394 220.408005 92.000397 215.996994 92.000397 C 220.408005 92.000397 223.996994 88.411392 223.996994 84.000397 C 223.996994 79.588394 220.408005 76.000397 215.996994 76.000397 L 240.442001 76.000397 L 243.108994 124.000397 L 215.996994 124.000397 C 220.408005 124.000397 223.996994 120.411392 223.996994 116.000397 M 215.996994 112.000397 C 218.205994 112.000397 219.996994 113.79039 219.996994 116.000397 C 219.996994 118.209396 218.205994 120.000397 215.996994 120.000397 L 211.996994 120.000397 C 209.787994 120.000397 207.996994 118.209396 207.996994 116.000397 C 207.996994 113.79039 209.787994 112.000397 211.996994 112.000397 Z M 175.996994 116.000397 C 175.996994 111.588394 172.40799 108.000397 167.996002 108.000397 C 170.386993 108.000397 172.528992 106.941391 173.996994 105.273392 C 175.464005 106.941391 177.606003 108.000397 179.996994 108.000397 L 183.996994 108.000397 C 186.386993 108.000397 188.529999 106.941391 189.996994 105.273392 C 191.464005 106.941391 193.606995 108.000397 195.996994 108.000397 L 199.996994 108.000397 C 202.386993 108.000397 204.529999 106.941391 205.996994 105.273392 C 207.464005 106.941391 209.606995 108.000397 211.996994 108.000397 C 207.585999 108.000397 203.996994 111.588394 203.996994 116.000397 C 203.996994 120.411392 207.585999 124.000397 211.996994 124.000397 L 167.996002 124.000397 C 172.40799 124.000397 175.996994 120.411392 175.996994 116.000397 M 167.996002 112.000397 C 170.205994 112.000397 171.996002 113.79039 171.996002 116.000397 C 171.996002 118.209396 170.205994 120.000397 167.996002 120.000397 L 163.996002 120.000397 C 161.787003 120.000397 159.996002 118.209396 159.996002 116.000397 C 159.996002 113.79039 161.787003 112.000397 163.996002 112.000397 Z M 173.996994 78.726395 C 172.528992 77.059402 170.386993 76.000397 167.996002 76.000397 L 179.996994 76.000397 C 177.606003 76.000397 175.464005 77.059402 173.996994 78.726395 M 189.996994 78.726395 C 188.529999 77.059402 186.386993 76.000397 183.996994 76.000397 L 195.996994 76.000397 C 193.606995 76.000397 191.464005 77.059402 189.996994 78.726395 M 205.996994 78.726395 C 204.529999 77.059402 202.386993 76.000397 199.996994 76.000397 L 211.996994 76.000397 C 209.606995 76.000397 207.464005 77.059402 205.996994 78.726395 M 207.996994 84.000397 C 207.996994 81.79039 209.787994 80.000397 211.996994 80.000397 L 215.996994 80.000397 C 218.205994 80.000397 219.996994 81.79039 219.996994 84.000397 C 219.996994 86.209396 218.205994 88.000397 215.996994 88.000397 L 211.996994 88.000397 C 209.787994 88.000397 207.996994 86.209396 207.996994 84.000397 M 195.996994 96.000397 L 199.996994 96.000397 C 202.205994 96.000397 203.996994 97.79039 203.996994 100.000397 C 203.996994 102.209396 202.205994 104.000397 199.996994 104.000397 L 195.996994 104.000397 C 193.787994 104.000397 191.996994 102.209396 191.996994 100.000397 C 191.996994 97.79039 193.787994 96.000397 195.996994 96.000397 M 191.996994 84.000397 C 191.996994 81.79039 193.787994 80.000397 195.996994 80.000397 L 199.996994 80.000397 C 202.205994 80.000397 203.996994 81.79039 203.996994 84.000397 C 203.996994 86.209396 202.205994 88.000397 199.996994 88.000397 L 195.996994 88.000397 C 193.787994 88.000397 191.996994 86.209396 191.996994 84.000397 M 183.996994 92.000397 C 186.386993 92.000397 188.529999 90.941391 189.996994 89.273392 C 191.464005 90.941391 193.606995 92.000397 195.996994 92.000397 C 193.606995 92.000397 191.464005 93.059402 189.996994 94.726395 C 188.529999 93.059402 186.386993 92.000397 183.996994 92.000397 M 179.996994 96.000397 L 183.996994 96.000397 C 186.205994 96.000397 187.996994 97.79039 187.996994 100.000397 C 187.996994 102.209396 186.205994 104.000397 183.996994 104.000397 L 179.996994 104.000397 C 177.787003 104.000397 175.996994 102.209396 175.996994 100.000397 C 175.996994 97.79039 177.787003 96.000397 179.996994 96.000397 M 175.996994 84.000397 C 175.996994 81.79039 177.787003 80.000397 179.996994 80.000397 L 183.996994 80.000397 C 186.205994 80.000397 187.996994 81.79039 187.996994 84.000397 C 187.996994 86.209396 186.205994 88.000397 183.996994 88.000397 L 179.996994 88.000397 C 177.787003 88.000397 175.996994 86.209396 175.996994 84.000397 M 163.996002 88.000397 C 161.787003 88.000397 159.996002 86.209396 159.996002 84.000397 C 159.996002 81.79039 161.787003 80.000397 163.996002 80.000397 L 167.996002 80.000397 C 170.205994 80.000397 171.996002 81.79039 171.996002 84.000397 C 171.996002 86.209396 170.205994 88.000397 167.996002 88.000397 Z M 171.996002 100.000397 C 171.996002 102.209396 170.205994 104.000397 167.996002 104.000397 L 163.996002 104.000397 C 161.787003 104.000397 159.996002 102.209396 159.996002 100.000397 C 159.996002 97.79039 161.787003 96.000397 163.996002 96.000397 L 167.996002 96.000397 C 170.205994 96.000397 171.996002 97.79039 171.996002 100.000397 M 167.996002 92.000397 C 170.386993 92.000397 172.528992 90.941391 173.996994 89.273392 C 175.464005 90.941391 177.606003 92.000397 179.996994 92.000397 C 177.606003 92.000397 175.464005 93.059402 173.996994 94.726395 C 172.528992 93.059402 170.386993 92.000397 167.996002 92.000397 M 205.996994 94.726395 C 204.529999 93.059402 202.386993 92.000397 199.996994 92.000397 C 202.386993 92.000397 204.529999 90.941391 205.996994 89.273392 C 207.464005 90.941391 209.606995 92.000397 211.996994 92.000397 C 209.606995 92.000397 207.464005 93.059402 205.996994 94.726395 M 215.996994 96.000397 C 218.205994 96.000397 219.996994 97.79039 219.996994 100.000397 C 219.996994 102.209396 218.205994 104.000397 215.996994 104.000397 L 211.996994 104.000397 C 209.787994 104.000397 207.996994 102.209396 207.996994 100.000397 C 207.996994 97.79039 209.787994 96.000397 211.996994 96.000397 Z M 135.996002 96.000397 C 138.205002 96.000397 139.996002 97.79039 139.996002 100.000397 C 139.996002 102.209396 138.205002 104.000397 135.996002 104.000397 L 131.996002 104.000397 C 129.787003 104.000397 127.996002 102.209396 127.996002 100.000397 C 127.996002 97.79039 129.787003 96.000397 131.996002 96.000397 Z M 135.996002 80.000397 C 138.205002 80.000397 139.996002 81.79039 139.996002 84.000397 C 139.996002 86.209396 138.205002 88.000397 135.996002 88.000397 L 131.996002 88.000397 C 129.787003 88.000397 127.996002 86.209396 127.996002 84.000397 C 127.996002 81.79039 129.787003 80.000397 131.996002 80.000397 Z M 129.996002 116.000397 C 126.687004 116.000397 123.996002 118.691391 123.996002 122.000397 C 123.996002 122.702393 124.123001 123.373398 124.346001 124.000397 L 111.996002 124.000397 L 111.996002 76.000397 L 131.996002 76.000397 C 127.584999 76.000397 123.996002 79.588394 123.996002 84.000397 C 123.996002 88.411392 127.584999 92.000397 131.996002 92.000397 C 127.584999 92.000397 123.996002 95.588394 123.996002 100.000397 C 123.996002 104.411392 127.584999 108.000397 131.996002 108.000397 L 135.996002 108.000397 C 140.406998 108.000397 143.996002 104.411392 143.996002 100.000397 C 143.996002 95.588394 140.406998 92.000397 135.996002 92.000397 C 140.406998 92.000397 143.996002 88.411392 143.996002 84.000397 C 143.996002 79.588394 140.406998 76.000397 135.996002 76.000397 L 163.996002 76.000397 C 159.584991 76.000397 155.996002 79.588394 155.996002 84.000397 C 155.996002 88.411392 159.584991 92.000397 163.996002 92.000397 C 159.584991 92.000397 155.996002 95.588394 155.996002 100.000397 C 155.996002 104.411392 159.584991 108.000397 163.996002 108.000397 C 159.584991 108.000397 155.996002 111.588394 155.996002 116.000397 C 155.996002 120.411392 159.584991 124.000397 163.996002 124.000397 L 135.645996 124.000397 C 135.869003 123.373398 135.996002 122.702393 135.996002 122.000397 C 135.996002 118.691391 133.304001 116.000397 129.996002 116.000397 M 127.996002 122.000397 C 127.996002 120.895401 128.890991 120.000397 129.996002 120.000397 C 131.100998 120.000397 131.996002 120.895401 131.996002 122.000397 C 131.996002 123.104401 131.100998 124.000397 129.996002 124.000397 C 128.890991 124.000397 127.996002 123.104401 127.996002 122.000397 M 247.990997 139.778397 L 244 64.000397 L 12 64.000397 L 8 139.778397 L 8 144.000397 C 8 144.424408 8.061996 144.851395 8.199997 145.264404 L 11.287994 154.529388 C 12.378998 157.801392 15.429001 160.000397 18.878006 160.000397 L 73.522995 160.000397 L 87.994995 188.944397 C 91.404999 195.763397 98.259995 200.000397 105.884003 200.000397 L 229.134003 200.000397 C 235.098999 200.000397 240.087006 195.720398 240.994995 189.824402 L 247.927002 144.763397 C 247.975006 144.516388 248 144.261398 248 144.000397 Z"/>
    <path id="path1" fill="#ffffff" stroke="none" d="M 27.995001 84 L 55.994999 84 L 55.994999 80 L 27.995001 80 Z"/>
</svg>
