<?xml version="1.0" encoding="UTF-8"?>
<!-- Generated by Pixelmator Pro 3.7.1 -->
<svg width="256" height="256" viewBox="0 0 256 256" xmlns="http://www.w3.org/2000/svg">
    <path id="Path" fill="#ffffff" stroke="none" d="M 72 48 L 184 48 L 184 136 L 72 136 Z M 188 44 L 68 44 L 68 140 L 188 140 Z"/>
    <path id="path1" fill="#ffffff" stroke="none" d="M 60 24 L 60 20 C 60 17.794006 61.793999 16 64 16 L 192 16 C 194.205994 16 196 17.794006 196 20 L 196 24 Z M 196 32 L 60 32 L 60 28 L 196 28 Z M 196 216 L 60 216 L 60 36 L 196 36 Z M 196 240 L 60 240 L 60 220 L 196 220 Z M 192 12 L 64 12 C 59.582001 12 56 15.582001 56 20 L 56 24 L 56 28 L 56 32 L 56 36 L 56 216 L 56 220 L 56 244 L 200 244 L 200 220 L 200 216 L 200 36 L 200 32 L 200 28 L 200 24 L 200 20 C 200 15.582001 196.417999 12 192 12"/>
</svg>
