<?xml version="1.0" encoding="UTF-8"?>
<!-- Generated by Pixelmator Pro 3.7.1 -->
<svg width="256" height="256" viewBox="0 0 256 256" xmlns="http://www.w3.org/2000/svg">
    <path id="Path" fill="#ffffff" stroke="none" d="M 216 196 L 40 196 C 24.535995 196 12 183.463989 12 168 L 16 80 C 16 71.164001 19.164001 64 28 64 L 228 64 C 236.837006 64 240 71.164001 240 80 L 244 168 C 244 183.463989 231.464005 196 216 196 M 247.996002 167.817993 L 244 79.906006 C 243.970001 67.438995 237.994003 60 228 60 L 28 60 C 18.005997 60 12.029999 67.438995 12 79.906006 L 8.003998 167.817993 L 8 167.908997 L 8 168 C 8 185.645004 22.354996 200 40 200 L 216 200 C 233.645004 200 248 185.645004 248 168 L 248 167.908997 Z"/>
    <path id="path1" fill="#ffffff" stroke="none" d="M 216 120 L 48 120 C 45.179993 120 40 110.888 40 96 C 40 81.112 45.179993 72 48 72 L 216 72 C 218.820007 72 224 81.112 224 96 C 224 110.888 218.820007 120 216 120 M 216 68 L 48 68 C 41.373001 68 36 80.535995 36 96 C 36 111.464005 41.373001 124 48 124 L 216 124 C 222.626999 124 228 111.464005 228 96 C 228 80.535995 222.626999 68 216 68"/>
    <path id="path2" fill="#ffffff" stroke="none" d="M 52 80 L 212 80 L 212 112 L 52 112 Z M 48 116 L 216 116 L 216 76 L 48 76 Z"/>
    <path id="path3" fill="#ffffff" stroke="none" d="M 28 140 L 24 140 C 21.791 140 20 138.209 20 136 C 20 133.791 21.791 132 24 132 L 28 132 C 30.209 132 32 133.791 32 136 C 32 138.209 30.209 140 28 140 M 36 136 C 36 131.588989 32.410999 128 28 128 L 24 128 C 19.589001 128 16 131.588989 16 136 C 16 140.411011 19.589001 144 24 144 L 28 144 C 32.410999 144 36 140.411011 36 136"/>
    <path id="path4" fill="#ffffff" stroke="none" d="M 106 148 C 102.686996 148 100 146.209 100 144 C 100 141.791 102.686996 140 106 140 C 109.313004 140 112 141.791 112 144 C 112 146.209 109.313004 148 106 148 M 116 144 C 116 139.514008 111.607002 136 106 136 C 100.392998 136 96 139.514008 96 144 C 96 148.485992 100.392998 152 106 152 C 111.607002 152 116 148.485992 116 144"/>
    <path id="path5" fill="#ffffff" stroke="none" d="M 106 156 C 109.313004 156 112 157.791 112 160 C 112 162.209 109.313004 164 106 164 C 102.686996 164 100 162.209 100 160 C 100 157.791 102.686996 156 106 156 M 96 160 C 96 164.485992 100.392998 168 106 168 C 111.607002 168 116 164.485992 116 160 C 116 155.514008 111.607002 152 106 152 C 100.392998 152 96 155.514008 96 160"/>
    <path id="path6" fill="#ffffff" stroke="none" d="M 134 148 C 130.686996 148 128 146.209 128 144 C 128 141.791 130.686996 140 134 140 C 137.313004 140 140 141.791 140 144 C 140 146.209 137.313004 148 134 148 M 144 144 C 144 139.514008 139.606995 136 134 136 C 128.393005 136 124 139.514008 124 144 C 124 148.485992 128.393005 152 134 152 C 139.606995 152 144 148.485992 144 144"/>
    <path id="path7" fill="#ffffff" stroke="none" d="M 134 156 C 137.313004 156 140 157.791 140 160 C 140 162.209 137.313004 164 134 164 C 130.686996 164 128 162.209 128 160 C 128 157.791 130.686996 156 134 156 M 124 160 C 124 164.485992 128.393005 168 134 168 C 139.606995 168 144 164.485992 144 160 C 144 155.514008 139.606995 152 134 152 C 128.393005 152 124 155.514008 124 160"/>
    <path id="path8" fill="#ffffff" stroke="none" d="M 106 172 C 108.209 172 110 173.791 110 176 C 110 178.209 108.209 180 106 180 C 103.791 180 102 178.209 102 176 C 102 173.791 103.791 172 106 172 M 98 176 C 98 180.411011 101.588997 184 106 184 C 110.411003 184 114 180.411011 114 176 C 114 171.588989 110.411003 168 106 168 C 101.588997 168 98 171.588989 98 176"/>
    <path id="path9" fill="#ffffff" stroke="none" d="M 134 172 C 136.209 172 138 173.791 138 176 C 138 178.209 136.209 180 134 180 C 131.791 180 130 178.209 130 176 C 130 173.791 131.791 172 134 172 M 126 176 C 126 180.411011 129.589005 184 134 184 C 138.410995 184 142 180.411011 142 176 C 142 171.588989 138.410995 168 134 168 C 129.589005 168 126 171.588989 126 176"/>
    <path id="path10" fill="#ffffff" stroke="none" d="M 60 184 C 46.744999 184 36 173.255005 36 160 C 36 146.744995 46.744999 136 60 136 C 73.254997 136 84 146.744995 84 160 C 84 173.255005 73.254997 184 60 184 M 60 132 C 44.561001 132 32 144.561005 32 160 C 32 175.438995 44.561001 188 60 188 C 75.439003 188 88 175.438995 88 160 C 88 144.561005 75.439003 132 60 132"/>
    <path id="path11" fill="#ffffff" stroke="none" d="M 212 180 C 207.582001 180 204 176.417999 204 172 C 204 167.582001 207.582001 164 212 164 C 216.417999 164 220 167.582001 220 172 C 220 176.417999 216.417999 180 212 180 M 212 160 C 205.382996 160 200 165.382996 200 172 C 200 178.617004 205.382996 184 212 184 C 218.617004 184 224 178.617004 224 172 C 224 165.382996 218.617004 160 212 160"/>
    <path id="path12" fill="#ffffff" stroke="none" d="M 74.142097 145.857391 C 73.361099 145.077393 72.0951 145.077393 71.313103 145.857391 L 60.000099 157.171402 L 48.6861 145.857391 C 47.905102 145.077393 46.639099 145.077393 45.858101 145.857391 C 45.077099 146.638397 45.077099 147.905396 45.858101 148.686401 L 57.171101 160.000397 L 45.858101 171.3134 C 45.077099 172.094391 45.077099 173.361389 45.858101 174.142395 C 46.639099 174.922394 47.905102 174.922394 48.6861 174.142395 L 60.000099 162.8284 L 71.313103 174.142395 C 72.0951 174.922394 73.361099 174.922394 74.142097 174.142395 C 74.923103 173.361389 74.923103 172.094391 74.142097 171.3134 L 62.829102 160.000397 L 74.142097 148.686401 C 74.923103 147.905396 74.923103 146.638397 74.142097 145.857391"/>
    <path id="path13" fill="#ffffff" stroke="none" d="M 216 148 C 212.203995 148 208.5 148.496002 204.934006 149.394989 L 197.520004 134.56601 C 203.399002 132.824005 209.602005 131.867996 216 131.867996 L 216 132 C 220.417999 132 224 135.582001 224 140 C 224 144.417999 220.417999 148 216 148 M 181.076996 163.613998 L 168.472 152.408997 C 175.384003 145.083008 184.020996 139.359009 193.679993 135.830994 L 201.037003 150.546997 C 193.375 153.203003 186.516006 157.787994 181.076996 163.613998 M 172.998001 175.188995 C 171.539001 178.106995 168.613007 180 165.352005 180 C 159.007996 180 154.949997 173.317993 157.787994 167.645004 C 159.984009 163.255005 162.69101 159.153992 165.81601 155.402008 L 178.464005 166.645004 C 176.347992 169.307007 174.507996 172.171997 172.998001 175.188995 M 217.238007 128.063004 C 216.848999 127.936996 216.432999 127.867996 216 127.867996 C 209.395996 127.867996 202.794998 128.832001 196.382996 130.731003 C 195.656006 130.946991 195.029999 131.377991 194.539001 131.93399 C 194.257996 131.871002 193.971008 131.830002 193.679001 131.830002 C 193.222 131.830002 192.759003 131.908997 192.307007 132.074005 C 182.177002 135.77301 172.929001 141.856003 165.561996 149.664001 C 165.533997 149.692993 165.515991 149.729004 165.488998 149.76001 L 165.386993 149.669006 L 162.742996 152.84201 C 159.384003 156.875 156.513 161.253998 154.210999 165.854996 C 152.242996 169.789001 152.444 174.363007 154.748993 178.093002 C 157.035004 181.791992 160.998001 184 165.352005 184 C 170.109009 184 174.410004 181.309998 176.576004 176.979004 C 177.945007 174.23999 179.634003 171.600006 181.595001 169.132996 L 183.389008 166.876007 C 183.604996 166.722 183.811996 166.54599 184.001999 166.343994 C 189.108994 160.872009 195.453003 156.71701 202.347992 154.326996 C 202.970001 154.110992 203.507996 153.735001 203.947006 153.264999 C 204.268005 153.347 204.597 153.394989 204.932999 153.394989 C 205.257004 153.394989 205.584 153.355011 205.910004 153.27301 C 209.266998 152.429001 212.660995 152 216 152 C 222.617004 152 228 146.617004 228 140 C 228 133.800995 223.276001 128.684998 217.238007 128.063004"/>
</svg>
