<?xml version="1.0" encoding="UTF-8"?>
<!-- Generated by Pixelmator Pro 3.7.1 -->
<svg width="256" height="256" viewBox="0 0 256 256" xmlns="http://www.w3.org/2000/svg">
    <path id="Path" fill="#ffffff" stroke="none" d="M 12 176 L 12 60 C 12 57.791 13.791 56 16 56 L 240 56 C 242.209 56 244 57.791 244 60 L 244 176 Z M 244 200 L 12 200 L 12 180 L 24 180 L 24 192 L 28 192 L 28 180 L 32 180 L 32 192 L 36 192 L 36 180 L 40 180 L 40 192 L 44 192 L 44 180 L 48 180 L 48 192 L 52 192 L 52 180 L 56 180 L 56 192 L 60 192 L 60 180 L 64 180 L 64 192 L 68 192 L 68 180 L 72 180 L 72 192 L 76 192 L 76 180 L 80 180 L 80 192 L 84 192 L 84 180 L 88 180 L 88 192 L 92 192 L 92 180 L 96 180 L 96 192 L 100 192 L 100 180 L 104 180 L 104 192 L 108 192 L 108 180 L 112 180 L 112 196 L 116 196 L 116 180 L 120 180 L 120 196 L 124 196 L 124 180 L 128 180 L 128 192 L 132 192 L 132 180 L 136 180 L 136 192 L 140 192 L 140 180 L 144 180 L 144 192 L 148 192 L 148 180 L 152 180 L 152 192 L 156 192 L 156 180 L 160 180 L 160 192 L 164 192 L 164 180 L 168 180 L 168 192 L 172 192 L 172 180 L 176 180 L 176 192 L 180 192 L 180 180 L 184 180 L 184 192 L 188 192 L 188 180 L 192 180 L 192 192 L 196 192 L 196 180 L 200 180 L 200 192 L 204 192 L 204 180 L 208 180 L 208 192 L 212 192 L 212 180 L 216 180 L 216 192 L 220 192 L 220 180 L 224 180 L 224 196 L 228 196 L 228 180 L 244 180 Z M 240 52 L 16 52 C 11.589 52 8 55.588989 8 60 L 8 176 L 8 180 L 8 200 L 8 204 L 12 204 L 244 204 L 248 204 L 248 200 L 248 180 L 248 176 L 248 60 C 248 55.588989 244.410995 52 240 52"/>
    <path id="path1" fill="#ffffff" stroke="none" d="M 40 108 L 40 97 C 40 94.238998 42.238998 92 45 92 L 211 92 C 213.761993 92 216 94.238998 216 97 L 216 108 Z M 216 155 C 216 157.761993 213.761993 160 211 160 L 45 160 C 42.238998 160 40 157.761993 40 155 L 40 144 L 216 144 Z M 40 112 L 216 112 L 216 140 L 40 140 Z M 211 88 L 45 88 C 40.036999 88 36 92.037003 36 97 L 36 108 L 36 112 L 36 140 L 36 144 L 36 155 C 36 159.962997 40.036999 164 45 164 L 211 164 C 215.962997 164 220 159.962997 220 155 L 220 144 L 220 140 L 220 112 L 220 108 L 220 97 C 220 92.037003 215.962997 88 211 88"/>
    <path id="path2" fill="#ffffff" stroke="none" d="M 82 84 L 174 84 C 175.104004 84 176 83.104004 176 82 C 176 80.895996 175.104004 80 174 80 L 82 80 C 80.896004 80 80 80.895996 80 82 C 80 83.104004 80.896004 84 82 84"/>
    <path id="path3" fill="#ffffff" stroke="none" d="M 82 76 L 174 76 C 175.104004 76 176 75.104004 176 74 C 176 72.895996 175.104004 72 174 72 L 82 72 C 80.896004 72 80 72.895996 80 74 C 80 75.104004 80.896004 76 82 76"/>
    <path id="path4" fill="#ffffff" stroke="none" d="M 82 68 L 174 68 C 175.104004 68 176 67.104004 176 66 C 176 64.895996 175.104004 64 174 64 L 82 64 C 80.896004 64 80 64.895996 80 66 C 80 67.104004 80.896004 68 82 68"/>
</svg>
