<?xml version="1.0" encoding="UTF-8"?>
<!-- Generated by Pixelmator Pro 3.7.1 -->
<svg width="256" height="256" viewBox="0 0 256 256" xmlns="http://www.w3.org/2000/svg">
    <path id="Path" fill="#ffffff" stroke="none" d="M 212 112 L 48 112 C 45.791 112 44 113.791 44 116 L 44 208 C 44 210.209 45.791 212 48 212 L 212 212 C 214.209 212 216 210.209 216 208 L 216 116 C 216 113.791 214.209 112 212 112 M 212 208 L 48 208 L 48 116 L 212 116 Z M 212 116"/>
    <path id="path1" fill="#ffffff" stroke="none" d="M 240 80 C 240 82.205994 238.205994 84 236 84 L 215.882996 84 C 214.886993 75.001007 207.264999 68 198 68 L 62 68 C 52.735992 68 45.113007 75.001007 44.117004 84 L 20 84 C 17.794006 84 16 82.205994 16 80 L 16 20 L 240 20 Z M 48.160004 84 C 49.134995 77.227005 54.960999 72 62 72 L 198 72 C 205.039001 72 210.863998 77.227005 211.839996 84 L 211.839996 88 C 210.863998 94.772995 205.039001 100 198 100 L 62 100 C 54.960999 100 49.134995 94.772995 48.160004 88 Z M 236 236 L 20 236 L 20 88 L 44.117004 88 C 45.113007 96.998993 52.735992 104 62 104 L 198 104 C 207.264999 104 214.886993 96.998993 215.882996 88 L 236 88 Z M 240 16 L 16 16 C 13.791 16 12 17.791 12 20 L 12 80 C 12 82.959 13.610992 85.537003 16 86.921005 L 16 236 C 16 238.209 17.791 240 20 240 L 236 240 C 238.209 240 240 238.209 240 236 L 240 86.921005 C 242.389008 85.537003 244 82.959 244 80 L 244 20 C 244 17.791 242.209 16 240 16"/>
</svg>
