<?xml version="1.0" encoding="UTF-8"?>
<!-- Generated by Pixelmator Pro 3.7.1 -->
<svg width="256" height="256" viewBox="0 0 256 256" xmlns="http://www.w3.org/2000/svg">
    <path id="Path" fill="#ffffff" stroke="none" d="M 213.0439 199.988297 C 212.9039 199.992294 212.139893 199.9953 211.003906 199.9953 C 210.1689 199.9953 209.133896 199.993301 207.999893 199.991302 L 207.999893 188.000305 L 207.999893 184.000305 L 203.999893 184.000305 L 51.999893 184.000305 L 47.999893 184.000305 L 47.999893 188.000305 L 47.999893 199.991302 C 46.865906 199.993301 45.830902 199.9953 44.995895 199.9953 C 43.860901 199.9953 43.095901 199.992294 42.955902 199.988297 C 26.149902 199.424301 13.001892 185.060303 14.059906 168.132294 L 16.815903 124.000305 L 17.065903 124.000305 L 20.473892 124.000305 L 24.231903 124.000305 L 24.465897 120.249298 L 27.464905 72.259308 L 27.4729 72.1353 L 27.4729 72.0103 C 27.4729 71.039291 27.606903 70.027298 27.872894 69.001297 L 29.165894 64.00029 L 23.999893 64.00029 L 22.217896 64.00029 C 24.982895 59.219299 30.136902 55.994293 36.054901 55.994293 L 219.944901 55.994293 C 228.775894 55.994293 235.935898 63.158295 235.935898 71.996307 L 238.571899 114.212296 C 240.670898 116.919296 241.932907 120.308304 241.932907 123.999298 C 241.932907 126.975296 241.105896 129.751297 239.691895 132.137299 L 241.939896 168.132294 C 242.997894 185.060303 229.850906 199.424301 213.0439 199.988297 M 169.328903 196.128296 C 168.427902 196.046295 167.522903 196.005295 166.617905 196.005295 L 89.381897 196.005295 C 88.476898 196.005295 87.572899 196.046295 86.671898 196.128296 L 59.999893 199.912292 C 59.673904 199.942291 55.909897 199.966309 51.999893 199.980301 L 51.999893 188.000305 L 203.999893 188.000305 L 203.999893 199.980301 C 200.089905 199.966309 196.325897 199.942291 195.999893 199.912292 Z M 20.063904 71.996307 C 20.063904 71.540298 20.094894 71.0923 20.131897 70.646301 C 20.148895 70.4543 20.166901 70.261292 20.190903 70.071289 C 20.211899 69.892303 20.244904 69.7173 20.271896 69.539291 C 20.355896 69.019302 20.457901 68.504303 20.586899 68.00029 L 20.586899 68.00029 L 23.999893 68.00029 C 23.667892 69.283295 23.4729 70.622299 23.4729 72.0103 L 20.473892 120.000305 L 17.065903 120.000305 Z M 245.932907 167.882294 L 243.756897 133.043304 C 245.183899 130.238297 245.932907 127.137299 245.932907 123.999298 C 245.932907 119.9673 244.746902 116.123306 242.491898 112.805298 L 239.935898 71.864304 C 239.864899 60.895294 230.924896 51.994293 219.944901 51.994293 L 36.054901 51.994293 C 27.872894 51.994293 20.828903 56.941299 17.7379 64.00029 L 17.485901 64.00029 L 16.712906 67.003296 C 16.698898 67.057297 16.689896 67.113297 16.675903 67.167297 C 16.573898 67.578293 16.481903 67.991302 16.405899 68.411301 C 16.335907 68.790298 16.273895 69.169296 16.225906 69.547302 C 16.198898 69.7603 16.178894 69.975296 16.159897 70.190292 C 16.106903 70.75029 16.067902 71.309296 16.064896 71.862289 L 16.064896 71.864304 L 10.066895 167.882294 C 9.488907 177.136292 12.602905 186.0103 18.833893 192.8703 C 25.062897 199.727295 33.581894 203.6763 42.821899 203.985291 C 42.922897 203.989304 43.091904 203.9953 44.995895 203.9953 C 45.138901 203.9953 59.371902 203.986298 60.360901 203.896301 L 60.461899 203.886292 L 60.561905 203.873291 L 87.129898 200.102295 C 87.8759 200.0383 88.632896 200.005295 89.381897 200.005295 L 166.617905 200.005295 C 167.366898 200.005295 168.123901 200.0383 168.870895 200.102295 L 195.437897 203.873291 L 195.537903 203.886292 L 195.638901 203.896301 C 196.627899 203.986298 210.860901 203.9953 211.003906 203.9953 C 212.906906 203.9953 213.076904 203.989304 213.178894 203.985291 C 222.417892 203.6763 230.936905 199.727295 237.165894 192.8703 C 243.397903 186.0103 246.510895 177.136292 245.932907 167.882294"/>
    <path id="path1" fill="#ffffff" stroke="none" d="M 184.502899 148.347702 C 184.315903 152.638702 180.805893 155.999695 176.510895 155.999695 L 176.345901 155.999695 L 176.1819 156.013702 L 140.818909 158.929703 C 136.572906 159.279694 132.260895 159.456696 127.999901 159.456696 C 123.739899 159.456696 119.425896 159.279694 115.179901 158.929703 L 79.817902 156.013702 L 79.6539 155.999695 L 79.489899 155.999695 C 75.193901 155.999695 71.683899 152.638702 71.496902 148.347702 L 68.540901 80.347702 C 68.444901 78.146698 69.231895 76.058701 70.754898 74.467697 C 72.277901 72.876694 74.329903 71.999695 76.532898 71.999695 L 179.466904 71.999695 C 181.669907 71.999695 183.721893 72.876694 185.244904 74.467697 C 186.768906 76.058701 187.554901 78.146698 187.458893 80.347702 Z M 191.455902 80.521698 C 191.751907 73.695694 186.298904 67.999695 179.466904 67.999695 L 76.532898 67.999695 C 69.700897 67.999695 64.247902 73.695694 64.544899 80.521698 L 67.5009 148.521698 C 67.7799 154.939697 73.064896 159.999695 79.489899 159.999695 L 114.851898 162.91571 C 119.226898 163.276703 123.6129 163.456696 127.999901 163.456696 C 132.386902 163.456696 136.773895 163.276703 141.148895 162.91571 L 176.510895 159.999695 C 182.935898 159.999695 188.219894 154.939697 188.498901 148.521698 Z"/>
    <path id="path2" fill="#ffffff" stroke="none" d="M 80 84 L 176 84 L 176 148 L 80 148 Z M 76 152 L 180 152 L 180 80 L 76 80 Z"/>
    <path id="path3" fill="#ffffff" stroke="none" d="M 204 108 C 206.209 108 208 109.791 208 112 C 208 114.209 206.209 116 204 116 C 201.791 116 200 114.209 200 112 C 200 109.791 201.791 108 204 108 M 204 120 C 208.410995 120 212 116.410995 212 112 C 212 107.589005 208.410995 104 204 104 C 199.589005 104 196 107.589005 196 112 C 196 116.410995 199.589005 120 204 120"/>
    <path id="path4" fill="#ffffff" stroke="none" d="M 59.996601 142.072296 C 59.995602 142.154297 59.988602 142.235291 59.983601 142.317291 C 59.815601 146.588303 56.3106 150.000305 51.999599 150.000305 C 50.027599 150.000305 48.226601 149.284302 46.835598 148.098297 C 45.326599 146.812302 43.473598 146.000305 41.490601 146.000305 L 38.509602 146.000305 C 36.5266 146.000305 34.673599 146.812302 33.1646 148.098297 C 31.7736 149.284302 29.972599 150.000305 27.999599 150.000305 C 23.688601 150.000305 20.183599 146.588303 20.0166 142.317291 C 20.011599 142.235291 20.004599 142.154297 20.003599 142.072296 C 20.003599 142.048309 19.999598 142.024292 19.999598 142.000305 C 19.999598 141.858307 20.013597 141.719299 20.021601 141.5793 C 20.025599 141.520294 20.024599 141.463303 20.0306 141.40329 C 20.336599 137.264297 23.783598 134.000305 27.999599 134.000305 C 29.972599 134.000305 31.7736 134.716309 33.163601 135.901306 C 34.673599 137.187302 36.5266 138.000305 38.509602 138.000305 L 41.490601 138.000305 C 43.473598 138.000305 45.326599 137.187302 46.835598 135.901306 C 48.226601 134.716309 50.027599 134.000305 51.999599 134.000305 C 56.216599 134.000305 59.663601 137.264297 59.969601 141.40329 C 59.975601 141.463303 59.974602 141.520294 59.9786 141.5793 C 59.986599 141.719299 59.999599 141.858307 59.999599 142.000305 C 59.999599 142.024292 59.996601 142.048309 59.996601 142.072296 M 39.999599 166.000305 C 35.5816 166.000305 31.999599 162.418304 31.999599 158.000305 C 31.999599 153.582306 35.5816 150.000305 39.999599 150.000305 C 44.418598 150.000305 47.999599 153.582306 47.999599 158.000305 C 47.999599 162.418304 44.418598 166.000305 39.999599 166.000305 M 39.999599 118.000305 C 44.418598 118.000305 47.999599 121.581299 47.999599 126.000305 C 47.999599 130.418304 44.418598 134.000305 39.999599 134.000305 C 35.5816 134.000305 31.999599 130.418304 31.999599 126.000305 C 31.999599 121.581299 35.5816 118.000305 39.999599 118.000305 M 51.999599 108.000305 C 54.208599 108.000305 55.999599 109.791306 55.999599 112.000305 C 55.999599 114.209305 54.208599 116.000305 51.999599 116.000305 C 49.7906 116.000305 47.999599 114.209305 47.999599 112.000305 C 47.999599 109.791306 49.7906 108.000305 51.999599 108.000305 M 63.973598 141.371307 L 63.972599 141.361298 C 63.969601 141.264297 63.9646 141.175293 63.9566 141.085297 C 63.4846 134.86731 58.237598 130.000305 51.999599 130.000305 C 51.7616 130.000305 51.5256 130.017303 51.288601 130.031311 C 51.740601 128.769302 51.999599 127.416306 51.999599 126.000305 C 51.999599 123.731308 51.355598 121.614304 50.256599 119.802307 C 50.8186 119.928299 51.4006 120.000305 51.999599 120.000305 C 56.411598 120.000305 59.999599 116.411301 59.999599 112.000305 C 59.999599 107.589294 56.411598 104.000305 51.999599 104.000305 C 47.5886 104.000305 43.999599 107.589294 43.999599 112.000305 C 43.999599 113.025299 44.2006 114.002304 44.5536 114.903305 C 43.147598 114.324295 41.611599 114.000305 39.999599 114.000305 C 33.383598 114.000305 27.999599 119.383301 27.999599 126.000305 C 27.999599 127.416306 28.2596 128.769302 28.711599 130.031311 C 28.4746 130.017303 28.2386 130.000305 27.999599 130.000305 C 21.762598 130.000305 16.5156 134.86731 16.042601 141.08429 C 16.035601 141.177307 16.0306 141.269302 16.027597 141.361298 L 16.026598 141.371307 L 16.021601 141.444305 C 16.0096 141.629303 15.999599 141.812302 15.999599 142.000305 L 15.999599 142.146301 L 16.006598 142.249298 C 16.0096 142.332306 16.014601 142.4133 16.019598 142.493301 C 16.2736 148.937302 21.5366 154.000305 27.999599 154.000305 C 28.2386 154.000305 28.4746 153.9823 28.711599 153.968292 C 28.2596 155.230301 27.999599 156.58429 27.999599 158.000305 C 27.999599 164.61731 33.383598 170.000305 39.999599 170.000305 C 46.6166 170.000305 51.999599 164.61731 51.999599 158.000305 C 51.999599 156.58429 51.740601 155.230301 51.288601 153.968292 C 51.5256 153.9823 51.7616 154.000305 51.999599 154.000305 C 58.4506 154.000305 63.704601 148.95929 63.979599 142.514297 C 63.9856 142.412292 63.990601 142.322296 63.993599 142.237305 C 63.997601 142.158295 63.999599 142.080292 63.999599 142.000305 C 63.999599 141.812302 63.990601 141.629303 63.9776 141.444305 Z"/>
    <path id="path5" fill="#ffffff" stroke="none" d="M 227.758804 135.835907 C 226.768799 131.354889 222.7798 127.999893 217.999802 127.999893 C 217.398804 127.999893 216.813797 128.062897 216.240799 128.16391 C 216.086807 127.465897 215.999802 126.743896 215.999802 125.999893 C 215.999802 120.476898 220.477798 115.999893 225.999802 115.999893 C 231.522797 115.999893 235.999802 120.476898 235.999802 125.999893 C 235.999802 130.921906 232.441803 135.003906 227.758804 135.835907 M 223.949799 142.991898 C 223.939804 143.102905 223.917801 143.208893 223.903793 143.317902 C 223.874802 143.532898 223.847794 143.746902 223.805801 143.956909 C 223.7798 144.0849 223.744797 144.207901 223.714798 144.332901 C 223.6698 144.520905 223.626801 144.706909 223.571793 144.889893 C 223.531799 145.021896 223.484802 145.148895 223.439804 145.276901 C 223.379807 145.447906 223.321793 145.617889 223.253799 145.783905 C 223.199799 145.914902 223.139801 146.041901 223.079803 146.170898 C 223.007797 146.327896 222.935806 146.483902 222.855804 146.636902 C 222.787796 146.764893 222.715805 146.888901 222.643799 147.012909 C 222.558807 147.157898 222.473801 147.302902 222.381805 147.442902 C 222.301804 147.565903 222.217804 147.684906 222.132797 147.803894 C 222.036804 147.937897 221.939804 148.069901 221.837799 148.198898 C 221.744797 148.314911 221.650803 148.427902 221.553802 148.539902 C 221.446793 148.661896 221.338806 148.781891 221.227798 148.898895 C 221.123795 149.007904 221.018799 149.1129 220.909805 149.216888 C 220.7948 149.327896 220.676804 149.434906 220.555801 149.53891 C 220.441803 149.638901 220.325806 149.736908 220.206802 149.831909 C 220.082794 149.929901 219.955795 150.023895 219.826797 150.114899 C 219.701797 150.204895 219.577805 150.2939 219.448807 150.377899 C 219.317795 150.464905 219.181793 150.5439 219.0448 150.623901 C 218.910797 150.701904 218.778793 150.780899 218.640793 150.853897 C 218.501801 150.92691 218.359802 150.991898 218.215805 151.058899 C 218.073807 151.124908 217.9328 151.192902 217.786804 151.252899 C 217.640793 151.312897 217.490799 151.361908 217.341797 151.415894 C 217.192795 151.468903 217.0448 151.524902 216.8918 151.570892 C 216.737793 151.616898 216.580795 151.651901 216.424805 151.690903 C 216.270798 151.730896 216.117798 151.773895 215.959793 151.804901 C 215.7948 151.837891 215.624802 151.856903 215.456802 151.881897 C 214.980804 151.951904 214.495804 151.999908 213.999802 151.999908 C 212.417801 151.999908 210.927795 151.622894 209.597794 150.968903 C 209.534805 150.938904 209.472794 150.909897 209.410797 150.878906 C 209.229797 150.784897 209.053802 150.682892 208.878799 150.577896 C 208.796799 150.527893 208.713806 150.480896 208.633804 150.428894 C 208.471802 150.32489 208.314804 150.217896 208.158798 150.105896 C 208.071793 150.042908 207.986801 149.977905 207.900803 149.911896 C 207.755798 149.799896 207.612793 149.685898 207.473801 149.565903 C 207.384796 149.489899 207.300797 149.409897 207.214798 149.330902 C 207.084793 149.210907 206.954803 149.090897 206.831802 148.964905 C 206.743805 148.873901 206.661804 148.777893 206.576797 148.684906 C 206.464798 148.558899 206.348801 148.43689 206.241806 148.305908 C 206.065796 148.088898 205.897797 147.863892 205.737793 147.631897 C 205.664795 147.524902 205.601807 147.411896 205.531799 147.30191 C 205.439804 147.154907 205.346802 147.009903 205.262802 146.856903 C 205.196793 146.740906 205.139801 146.621902 205.079803 146.502899 C 205.001801 146.348907 204.924805 146.193909 204.854797 146.035889 C 204.801804 145.914902 204.752792 145.791901 204.703796 145.6689 C 204.638794 145.503906 204.576797 145.337891 204.520798 145.167908 C 204.479797 145.045898 204.440796 144.922897 204.4048 144.798889 C 204.352798 144.618896 204.306793 144.43689 204.264801 144.252899 C 204.236801 144.133911 204.207794 144.0159 204.184799 143.894897 C 204.145798 143.688904 204.115799 143.479889 204.089798 143.269897 C 204.075806 143.165894 204.058792 143.064911 204.048798 142.9599 C 204.018799 142.64389 203.999802 142.323898 203.999802 141.999908 C 203.999802 141.664902 204.017807 141.333893 204.049805 141.007904 C 204.060806 140.897903 204.081802 140.790894 204.096802 140.6819 C 204.124802 140.466904 204.152802 140.252899 204.194794 140.042908 C 204.219803 139.914902 204.254807 139.791901 204.284805 139.665894 C 204.329803 139.479889 204.372803 139.292908 204.427795 139.109894 C 204.467804 138.978897 204.515793 138.851898 204.560806 138.7229 C 204.619797 138.55191 204.677795 138.381897 204.745804 138.215897 C 204.799805 138.0849 204.860794 137.957901 204.9198 137.828903 C 204.991806 137.671906 205.064804 137.5159 205.144806 137.3629 C 205.211792 137.234894 205.283798 137.110901 205.356796 136.986908 C 205.441803 136.841904 205.526794 136.696899 205.617798 136.557892 C 205.6978 136.433899 205.781799 136.314911 205.867798 136.194901 C 205.962799 136.06189 206.060806 135.929901 206.161804 135.80191 C 206.253799 135.685898 206.349792 135.570892 206.446793 135.458893 C 206.552795 135.336899 206.660797 135.217896 206.772797 135.101898 C 206.875793 134.991898 206.981796 134.886902 207.089798 134.781891 C 207.204803 134.671906 207.3228 134.564911 207.444794 134.460907 C 207.558792 134.360901 207.673798 134.262909 207.792801 134.167908 C 207.916794 134.069901 208.043793 133.976898 208.172806 133.884903 C 208.297806 133.794891 208.421799 133.704895 208.550797 133.620911 C 208.6828 133.535889 208.817795 133.456909 208.952805 133.376892 C 209.087799 133.297897 209.221802 133.218903 209.359802 133.146896 C 209.497803 133.072906 209.640793 133.008911 209.781799 132.941895 C 209.924805 132.8759 210.066803 132.8069 210.213806 132.746902 C 210.358795 132.687897 210.507797 132.637909 210.655792 132.5849 C 210.806793 132.530899 210.954803 132.474899 211.108795 132.428894 C 211.260803 132.382904 211.417801 132.3479 211.573807 132.308899 C 211.729797 132.270905 211.881805 132.226898 212.039795 132.193909 C 212.203796 132.161896 212.372803 132.142899 212.540802 132.117889 C 213.018799 132.047897 213.502808 131.999908 213.999802 131.999908 C 215.582794 131.999908 217.073807 132.377899 218.4048 133.031891 C 218.464798 133.062897 218.527802 133.089905 218.587799 133.120911 C 218.770798 133.214905 218.945801 133.316895 219.121796 133.422897 C 219.203796 133.471893 219.285797 133.519897 219.365799 133.570892 C 219.528793 133.674896 219.685806 133.781891 219.840805 133.894897 C 219.927795 133.956909 220.013794 134.022903 220.099792 134.087891 C 220.243805 134.19989 220.387802 134.314911 220.526794 134.433899 C 220.6138 134.509903 220.698807 134.589905 220.783798 134.667908 C 220.913803 134.78891 221.0448 134.908905 221.167801 135.035889 C 221.255798 135.1259 221.336807 135.220901 221.420807 135.313904 C 221.533798 135.439911 221.650803 135.562897 221.757797 135.693909 C 221.934799 135.911896 222.102798 136.135895 222.261795 136.366898 C 222.334793 136.475891 222.399796 136.588898 222.468796 136.698898 C 222.560806 136.845901 222.653793 136.990906 222.737793 137.142899 C 222.802795 137.258911 222.860794 137.377899 222.9198 137.496902 C 222.997803 137.650909 223.074799 137.805908 223.145798 137.963898 C 223.1978 138.0849 223.246796 138.207901 223.295807 138.330902 C 223.361801 138.495911 223.422806 138.661896 223.479797 138.831909 C 223.520798 138.953903 223.559799 139.076904 223.595795 139.200897 C 223.647797 139.38089 223.693802 139.562897 223.735794 139.745911 C 223.763794 139.865906 223.791794 139.983902 223.815796 140.105896 C 223.854797 140.31189 223.883804 140.520905 223.909805 140.730896 C 223.923798 140.833893 223.941803 140.935898 223.950806 141.039902 C 223.981796 141.356903 223.999802 141.675903 223.999802 141.999908 C 223.999802 142.3349 223.982803 142.665894 223.949799 142.991898 M 201.999802 167.999908 C 196.477798 167.999908 191.999802 163.522903 191.999802 157.999908 C 191.999802 153.077911 195.558792 148.995911 200.240799 148.16391 C 201.231796 152.645905 205.220795 155.999908 209.999802 155.999908 C 210.601807 155.999908 211.186798 155.937897 211.758804 155.835907 C 211.912796 156.532898 211.999802 157.25589 211.999802 157.999908 C 211.999802 163.522903 207.522797 167.999908 201.999802 167.999908 M 225.999802 111.999893 C 218.2798 111.999893 211.999802 118.279907 211.999802 125.999893 C 211.999802 126.704895 212.075806 127.417892 212.187805 128.13089 C 205.3228 129.023895 199.999802 134.896896 199.999802 141.999908 C 199.999802 142.71991 200.071793 143.421906 200.176804 144.111908 L 199.540802 144.225891 C 192.853806 145.41391 187.999802 151.206909 187.999802 157.999908 C 187.999802 165.71991 194.2798 171.999908 201.999802 171.999908 C 209.719803 171.999908 215.999802 165.71991 215.999802 157.999908 C 215.999802 157.294891 215.923798 156.581909 215.812805 155.868896 C 222.676804 154.975891 227.999802 149.103897 227.999802 141.999908 C 227.999802 141.279907 227.928802 140.577911 227.8228 139.887909 L 228.458801 139.773895 C 235.146805 138.585907 239.999802 132.792908 239.999802 125.999893 C 239.999802 118.279907 233.719803 111.999893 225.999802 111.999893"/>
</svg>
