<?xml version="1.0" encoding="UTF-8"?>
<!-- Generated by Pixelmator Pro 3.7.1 -->
<svg width="256" height="256" viewBox="0 0 256 256" xmlns="http://www.w3.org/2000/svg">
    <path id="Path" fill="#ffffff" stroke="none" d="M 244 143.43161 C 244 143.809601 243.973007 144.188599 243.919998 144.562592 L 240 171.999603 C 240 171.999603 240 195.999603 200 195.999603 L 140.259003 199.660599 C 136.175995 199.886597 132.087997 199.999603 128 199.999603 C 123.912003 199.999603 119.823997 199.886597 115.740997 199.660599 L 56 195.999603 C 16 195.999603 16 171.999603 16 171.999603 L 12.080994 144.562592 C 12.026993 144.188599 12 143.809601 12 143.43161 L 12 115.999603 C 12 67.999603 40 67.999603 40 67.999603 L 65.360001 64.376602 C 67.074005 64.132599 68.662003 63.338593 69.886002 62.114594 L 69.921005 62.078598 C 71.263 60.736603 73.039001 59.915604 74.929993 59.761597 L 115.888 55.999603 L 140.112 55.999603 L 181.070007 59.761597 C 182.962006 59.915604 184.735992 60.736603 186.078995 62.078598 L 186.113998 62.114594 C 187.337997 63.338593 188.927002 64.132599 190.639999 64.376602 L 216 67.999603 C 216 67.999603 244 67.999603 244 115.999603 Z M 232.604004 70.962601 C 225.408997 64.7966 218.059006 64.090591 216.354996 64.010605 L 191.205002 60.417603 C 190.354004 60.295593 189.550995 59.8936 188.942001 59.285599 L 188.908005 59.251602 C 186.895996 57.239594 184.229004 56.0056 181.395004 55.774597 L 140.477997 52.016602 L 140.294998 51.999603 L 140.112 51.999603 L 115.888 51.999603 L 115.705002 51.999603 L 115.522003 52.016602 L 74.563995 55.778595 C 71.772003 56.0056 69.104004 57.239594 67.093002 59.249603 L 67.056 59.287598 C 66.449005 59.8936 65.645996 60.295593 64.794006 60.417603 L 39.645004 64.010605 C 37.942001 64.090591 30.591003 64.7966 23.397003 70.962601 C 13.179993 79.720596 8 94.872604 8 115.999603 L 8 143.43161 C 8 143.996597 8.041 144.568604 8.121002 145.128601 L 12.007004 172.336609 C 12.072006 173.966599 12.669998 180.251602 17.927002 186.560608 C 25.341003 195.457596 38.108994 199.978607 55.876007 199.999603 L 115.496994 203.652603 C 119.656998 203.883606 123.856003 203.999603 128 203.999603 C 132.143997 203.999603 136.343002 203.883606 140.480011 203.653595 L 200.123001 199.999603 C 217.891006 199.978607 230.658997 195.457596 238.072998 186.560608 C 243.330002 180.251602 243.927994 173.966599 243.992004 172.336609 L 247.880005 145.128601 C 247.959 144.568604 248 143.996597 248 143.43161 L 248 115.999603 C 248 94.872604 242.819 79.720596 232.604004 70.962601"/>
    <path id="path1" fill="#ffffff" stroke="none" d="M 180 172.295898 C 180 174.385895 178.391006 176.123901 176.307007 176.283905 L 129.227997 179.904907 C 128.819 179.937897 128.408997 179.952911 128 179.952911 C 127.591003 179.952911 127.181 179.937897 126.772995 179.904907 L 79.693001 176.283905 C 77.609001 176.123901 76 174.385895 76 172.295898 L 76 67.999908 C 76 65.790909 77.791 63.999908 80 63.999908 L 176 63.999908 C 178.209 63.999908 180 65.790909 180 67.999908 Z M 176 59.999908 L 80 59.999908 C 75.588997 59.999908 72 63.588898 72 67.999908 L 72 143.999908 L 72 172.295898 C 72 176.44989 75.245003 179.953903 79.386002 180.272903 L 126.466003 183.89389 C 126.974998 183.932892 127.490005 183.952896 128 183.952896 C 128.509995 183.952896 129.024994 183.932892 129.533997 183.89389 L 176.613007 180.272903 C 180.755997 179.953903 184 176.44989 184 172.295898 L 184 67.999908 C 184 63.588898 180.410995 59.999908 176 59.999908"/>
    <path id="path2" fill="#ffffff" stroke="none" d="M 171.990204 164.320297 L 128.996201 168.013306 C 128.666199 168.04129 128.331192 168.055298 128.000198 168.055298 C 127.669197 168.055298 127.333199 168.04129 127.013199 168.014297 L 84.000198 164.319305 L 84.000198 72.000305 L 172.000198 72.000305 Z M 172.000198 68.000305 L 84.000198 68.000305 C 81.791199 68.000305 80.000198 69.791306 80.000198 72.000305 L 80.000198 164.319305 C 80.000198 166.399292 81.594193 168.133301 83.668198 168.305298 L 126.671196 172.000305 C 127.113197 172.037292 127.556198 172.055298 128.000198 172.055298 C 128.443192 172.055298 128.8862 172.037292 129.329193 172.000305 L 172.332199 168.305298 C 174.405197 168.133301 176.000198 166.399292 176.000198 164.319305 L 176.000198 72.000305 C 176.000198 69.791306 174.209198 68.000305 172.000198 68.000305"/>
    <path id="path3" fill="#ffffff" stroke="none" d="M 160 144 L 96 144 L 96 84 L 160 84 Z M 164 80 L 92 80 L 92 148 L 164 148 Z"/>
    <path id="path4" fill="#ffffff" stroke="none" d="M 216 144 C 211.582001 144 208 140.417999 208 136 C 208 133.712997 208.964996 131.654999 210.503998 130.196991 C 210.643005 130.065002 210.781006 129.934998 210.927002 129.815002 C 211.048004 129.716003 211.177002 129.626007 211.304001 129.53299 C 211.386993 129.472992 211.468002 129.406998 211.552994 129.350998 C 211.684998 129.263 211.822998 129.18399 211.960007 129.104004 C 212.048996 129.050995 212.136002 128.994995 212.225998 128.946991 C 212.352005 128.878998 212.481995 128.820999 212.612 128.761002 C 212.723007 128.709 212.830002 128.653992 212.940994 128.608002 C 213.054001 128.561996 213.171005 128.524002 213.285004 128.481995 C 213.419006 128.434998 213.552002 128.382996 213.686996 128.343002 C 213.789001 128.311996 213.893997 128.290009 213.996994 128.263 C 214.147003 128.223999 214.296997 128.182999 214.449005 128.153 C 214.557999 128.132004 214.669006 128.119995 214.778 128.102997 C 214.925995 128.080002 215.072998 128.054001 215.222 128.039001 C 215.429001 128.020004 215.639008 128.011993 215.850998 128.007996 C 215.901001 128.007004 215.953003 128 216.005005 128 C 216.276001 128 216.544006 128.014008 216.809006 128.041 C 216.843994 128.044006 216.880005 128.052002 216.916 128.056 C 217.147003 128.083008 217.376999 128.11499 217.602997 128.161011 C 217.626007 128.166 217.649002 128.173004 217.673004 128.178009 C 220.748001 128.833008 223.166992 131.251999 223.822006 134.326996 C 223.826996 134.350998 223.834 134.373993 223.839005 134.397003 C 223.884995 134.623001 223.916992 134.852997 223.942993 135.084 C 223.947998 135.119995 223.955002 135.154999 223.959 135.19101 C 223.985001 135.455994 224 135.723999 224 135.994995 C 224 136.046997 223.992996 136.098999 223.992004 136.149002 C 223.988007 136.360992 223.979996 136.570999 223.960999 136.778 C 223.945999 136.927002 223.919998 137.074005 223.897003 137.222 C 223.880005 137.330994 223.867996 137.442001 223.847 137.550995 C 223.817001 137.703003 223.774994 137.852997 223.737 138.002991 C 223.710007 138.106003 223.686996 138.210999 223.656998 138.313004 C 223.615997 138.447998 223.565002 138.580994 223.518005 138.714996 C 223.475998 138.82901 223.438004 138.945999 223.391998 139.05899 C 223.345993 139.169998 223.291 139.278 223.238998 139.388 C 223.179001 139.518005 223.121002 139.64801 223.054001 139.774002 C 223.005005 139.863998 222.949005 139.949997 222.897003 140.039001 C 222.815994 140.177002 222.737 140.315002 222.647995 140.447998 C 222.593002 140.531998 222.528 140.612 222.468002 140.694 C 222.375 140.821991 222.285004 140.950989 222.184998 141.072998 C 222.065002 141.218994 221.934998 141.356995 221.802994 141.496002 C 220.345001 143.035004 218.287003 144 216 144 M 210.796005 146.79599 C 212.186996 147.470001 213.723007 147.878998 215.347 147.96701 L 211.966995 151.347 C 211.878998 149.722992 211.470001 148.186996 210.796005 146.79599 M 200.653 140.03299 L 204.033005 136.653 C 204.121002 138.277008 204.529999 139.813004 205.203995 141.20401 C 203.813004 140.529999 202.277008 140.121002 200.653 140.03299 M 200 160 C 195.582001 160 192 156.417999 192 152 C 192 147.582001 195.582001 144 200 144 C 204.417999 144 208 147.582001 208 152 C 208 156.417999 204.417999 160 200 160 M 227.003006 140.774994 C 227.022003 140.731003 227.044998 140.688995 227.063004 140.645996 C 227.186005 140.352997 227.291 140.056 227.389999 139.755997 C 227.414993 139.679993 227.445007 139.605011 227.468994 139.527008 C 227.559006 139.235001 227.630997 138.938004 227.697006 138.641998 C 227.716995 138.554001 227.742996 138.468994 227.761993 138.380005 C 227.832001 138.026001 227.884995 137.67099 227.925003 137.313004 C 227.927994 137.279999 227.936005 137.248993 227.938004 137.21701 C 228.291992 133.748993 227.145996 130.156006 224.494995 127.505005 C 222.233994 125.244995 219.222 124 216.009995 124 L 216.005005 124 L 216 124 C 215.925995 124 215.854004 124.009995 215.781006 124.011002 C 215.449997 124.016998 215.119995 124.028992 214.794006 124.061005 C 214.682999 124.072006 214.574005 124.096008 214.462997 124.110001 C 214.171997 124.147003 213.882004 124.184998 213.595993 124.242004 C 213.550003 124.251999 213.505005 124.266998 213.457993 124.277008 C 211.223999 124.755997 209.173004 125.856003 207.524002 127.505005 L 191.171997 143.856995 C 186.492996 148.537003 186.492996 156.149002 191.171997 160.828003 C 193.432007 163.089005 196.445007 164.333008 199.656998 164.333008 C 202.867996 164.333008 205.882004 163.089005 208.143005 160.828003 L 224.494995 144.475998 C 225.328995 143.640991 226.009003 142.709991 226.544998 141.722992 C 226.546997 141.720001 226.548996 141.71701 226.550003 141.713989 C 226.716995 141.406006 226.865005 141.093002 227.003006 140.774994"/>
    <path id="path5" fill="#ffffff" stroke="none" d="M 224.8311 96.826202 L 219.174103 102.4832 C 218.420105 103.237198 217.416107 103.652206 216.3461 103.652206 C 215.275101 103.652206 214.271103 103.237198 213.518097 102.4832 C 211.957108 100.923203 211.958099 98.3862 213.518097 96.826202 L 219.174103 91.169205 C 219.928101 90.415207 220.933105 90.000198 222.002106 90.000198 C 223.072098 90.000198 224.077103 90.415207 224.8311 91.169205 C 226.391098 92.728195 226.391098 95.266205 224.8311 96.826202 M 204.8311 96.826202 L 199.174103 102.4832 C 198.420105 103.237198 197.416092 103.652206 196.3461 103.652206 C 195.275101 103.652206 194.271103 103.237198 193.518097 102.4832 C 191.957092 100.923203 191.958099 98.3862 193.518097 96.826202 L 199.174103 91.169205 C 199.928101 90.415207 200.933105 90.000198 202.002106 90.000198 C 203.072098 90.000198 204.077103 90.415207 204.8311 91.169205 C 206.391098 92.728195 206.391098 95.266205 204.8311 96.826202 M 222.002106 86.000198 C 219.864105 86.000198 217.855103 86.831207 216.3461 88.341202 L 210.688095 93.997192 C 210.4151 94.271194 210.174103 94.565201 209.947098 94.867203 C 210.200104 92.5392 209.440094 90.121201 207.659103 88.341202 C 206.150101 86.831207 204.141098 86.000198 202.002106 86.000198 C 199.864105 86.000198 197.855103 86.831207 196.3461 88.341202 L 190.688095 93.997192 C 187.569092 97.117203 187.569092 102.1922 190.688095 105.311203 C 192.198105 106.821198 194.207092 107.652206 196.3461 107.652206 C 198.4841 107.652206 200.493103 106.821198 202.002106 105.311203 L 207.659103 99.654205 C 207.934097 99.380203 208.175095 99.086197 208.400101 98.784195 C 208.148102 101.113205 208.908096 103.530197 210.688095 105.311203 C 212.198105 106.821198 214.207108 107.652206 216.3461 107.652206 C 218.4841 107.652206 220.493103 106.821198 222.002106 105.311203 L 227.659103 99.654205 C 230.778107 96.535202 230.778107 91.460205 227.659103 88.341202 C 226.150101 86.831207 224.141098 86.000198 222.002106 86.000198"/>
    <path id="path6" fill="#ffffff" stroke="none" d="M 56 136 L 56 125.675003 C 60.610001 127.690994 64.308998 131.390991 66.324997 136 Z M 68 144 C 68 145.369995 67.861 146.707001 67.598999 148 L 56 148 L 56 140 L 67.598999 140 C 67.861 141.292999 68 142.630005 68 144 M 56 162.324005 L 56 152 L 66.324997 152 C 64.308998 156.609009 60.610001 160.30899 56 162.324005 M 52 136 L 44 136 L 44 124.401001 C 45.292 124.139008 46.630001 124 48 124 C 49.369999 124 50.708 124.139008 52 124.401001 Z M 48 148 C 45.791 148 44 146.209 44 144 C 44 141.791 45.791 140 48 140 C 50.209 140 52 141.791 52 144 C 52 146.209 50.209 148 48 148 M 52 163.598999 C 50.708 163.860992 49.369999 164 48 164 C 46.630001 164 45.292 163.860992 44 163.598999 L 44 152 L 52 152 Z M 40 136 L 29.674999 136 C 31.691 131.390991 35.389999 127.690994 40 125.675003 Z M 40 148 L 28.400999 148 C 28.139 146.707001 28 145.369995 28 144 C 28 142.630005 28.139 141.292999 28.400999 140 L 40 140 Z M 40 162.324005 C 35.389999 160.30899 31.691 156.609009 29.674999 152 L 40 152 Z M 48 120 C 34.766998 120 24 130.766998 24 144 C 24 157.233002 34.766998 168 48 168 C 61.233002 168 72 157.233002 72 144 C 72 130.766998 61.233002 120 48 120"/>
</svg>
