<?xml version="1.0" encoding="UTF-8"?>
<!-- Generated by Pixelmator Pro 3.7.1 -->
<svg width="256" height="256" viewBox="0 0 256 256" xmlns="http://www.w3.org/2000/svg">
    <path id="Path" fill="#ffffff" stroke="none" d="M 136 228 L 120 228 L 120 216 L 136 216 Z M 120 212 L 116 212 L 116 216 L 116 228 L 116 232 L 120 232 L 136 232 L 140 232 L 140 228 L 140 216 L 140 212 L 136 212 Z"/>
    <path id="path1" fill="#ffffff" stroke="none" d="M 92 164 C 92 161.791 93.791 160 96 160 L 116 160 C 118.209 160 120 161.791 120 164 L 120 184 C 120 186.209 118.209 188 116 188 L 96 188 C 93.791 188 92 186.209 92 184 Z M 96 192 L 116 192 C 120.410995 192 124 188.410995 124 184 L 124 164 C 124 159.588989 120.410995 156 116 156 L 96 156 C 91.588997 156 88 159.588989 88 164 L 88 184 C 88 188.410995 91.588997 192 96 192"/>
    <path id="path2" fill="#ffffff" stroke="none" d="M 104 164 L 100 164 L 100 168 L 104 168 Z"/>
    <path id="path3" fill="#ffffff" stroke="none" d="M 112 164 L 108 164 L 108 168 L 112 168 Z"/>
    <path id="path4" fill="#ffffff" stroke="none" d="M 104 180 L 100 180 L 100 184 L 104 184 Z"/>
    <path id="path5" fill="#ffffff" stroke="none" d="M 112 180 L 108 180 L 108 184 L 112 184 Z"/>
    <path id="path6" fill="#ffffff" stroke="none" d="M 80 12 L 176 12 L 176 36 L 80 36 Z M 168 72 L 168 108 L 176 132 L 176 140 C 176 142.209 174.209 144 172 144 L 118 144 L 84 144 C 81.791 144 80 142.209 80 140 L 80 132 L 88 108 L 88 72 L 80 40 L 176 40 Z M 164 244 L 164 220 L 164 216 L 160 216 L 148 216 L 144 216 L 144 220 L 144 244 L 84 244 L 92 208 L 164 208 L 172 244 Z M 148 220 L 160 220 L 160 244 L 148 244 Z M 172 225.561005 L 167.904007 207.132004 L 167.209 204 L 164 204 L 92 204 L 88.792 204 L 88.095001 207.132004 L 84 225.561005 L 84 148 L 172 148 Z M 176 8 L 80 8 L 76 8 L 76 12 L 76 36 L 76 40 L 76 40.492004 L 76.120003 40.970001 L 84 72.492004 L 84 107.350998 L 76.205002 130.735001 L 76 131.350998 L 76 132 L 76 140 C 76 142.955002 77.610001 145.541 80 146.927002 L 80 243.561005 L 80 244 L 80 248 L 84 248 L 144 248 L 148 248 L 160 248 L 164 248 L 172 248 L 176 248 L 176 244 L 176 243.561005 L 176 146.927002 C 178.389999 145.541 180 142.955002 180 140 L 180 132 L 180 131.350998 L 179.794998 130.735001 L 172 107.350998 L 172 72.492004 L 179.880997 40.970001 L 180 40.492004 L 180 40 L 180 36 L 180 12 L 180 8 Z"/>
    <path id="path7" fill="#ffffff" stroke="none" d="M 109.587402 129.158203 C 108.551399 128.373199 107.626404 127.448196 106.8424 126.412201 L 110.502403 125.497192 Z M 112.706398 120.823196 L 100.962402 123.760193 C 102.757401 129.054199 106.945396 133.243195 112.240402 135.038208 L 115.176399 123.293198 C 114.128403 122.7332 113.266403 121.871201 112.706398 120.823196"/>
    <path id="path8" fill="#ffffff" stroke="none" d="M 111.191399 110.674805 L 106.829399 109.583801 C 109.4244 106.132797 113.526398 103.999802 118.000397 103.999802 C 122.473396 103.999802 126.575401 106.132797 129.170395 109.583801 L 124.808403 110.674805 C 122.987396 108.980804 120.570396 107.999802 118.000397 107.999802 C 115.429398 107.999802 113.012398 108.980804 111.191399 110.674805 M 123.293404 115.176804 L 135.038406 112.239807 C 132.628403 105.134796 125.909401 99.999802 118.000397 99.999802 C 110.090401 99.999802 103.371399 105.134796 100.962402 112.239807 L 112.706398 115.176804 C 113.7164 113.286804 115.707397 111.999802 118.000397 111.999802 C 120.292397 111.999802 122.283401 113.286804 123.293404 115.176804"/>
    <path id="path9" fill="#ffffff" stroke="none" d="M 129.158203 126.412598 C 128.373199 127.448593 127.448196 128.373596 126.412201 129.1586 L 125.4972 125.497604 Z M 120.823196 123.293594 L 123.760201 135.037598 C 129.054199 133.243591 133.243195 129.054596 135.038193 123.759598 L 123.293198 120.823593 C 122.7332 121.871597 121.871201 122.733597 120.823196 123.293594"/>
    <path id="path10" fill="#ffffff" stroke="none" d="M 118 140 C 105.849998 140 96 130.149994 96 118 C 96 105.850006 105.849998 96 118 96 C 130.149994 96 140 105.850006 140 118 C 140 130.149994 130.149994 140 118 140 M 99.277 100 C 98.052002 101.274994 96.947998 102.666992 96 104.169006 L 96 104 L 96 100 Z M 103.056 80 L 96 83.528 L 96 80 Z M 90.246002 48 L 165.753998 48 L 164 55.014999 L 164 52 L 160 52 L 96 52 L 92 52 L 92 55.014999 Z M 160 83.528 L 152.944 80 L 160 80 Z M 136 84 L 136 88 L 120 88 L 120 84 L 124 80 L 132 80 Z M 96 72 L 96 71.507996 L 96 71.014999 L 96 56 L 160 56 L 160 71.014999 L 160 71.507996 L 160 72 L 160 76 L 144.944 76 L 144 76 L 136 76 L 133.656998 76 L 132 76 L 124 76 L 122.343002 76 L 120 76 L 111.056 76 L 96 76 Z M 96 96 L 96 88 L 112 80 L 118.343002 80 L 117.170998 81.171005 L 116 82.343002 L 116 84 L 116 88 L 116 92 L 118 92 L 120 92 L 136 92 L 140 92 L 140 88 L 140 84 L 140 82.343002 L 138.828003 81.171005 L 137.656998 80 L 144 80 L 160 88 L 160 96 L 132 96 L 132 96.109009 C 127.957001 93.511993 123.153 92 118 92 C 112.847 92 108.042999 93.511993 104 96.109009 L 104 96 Z M 160 104 L 140 104 L 140 104.169006 C 139.052002 102.666992 137.947998 101.274994 136.722992 100 L 160 100 Z M 160 124 C 157.791 124 156 114.209 156 112 C 156 109.791 157.791 108 160 108 C 162.209 108 164 109.791 164 112 C 164 114.209 162.209 124 160 124 M 144 118 C 144 114.458008 143.285995 111.080002 141.996994 108 L 153.082001 108 C 152.397995 109.177994 152 110.541992 152 112 C 152 113.649994 152.572998 117.100998 153.306 119.856003 C 153.847 121.891006 155 126.192993 158 127.561996 L 158 134 C 158 135.100006 158.899994 136 160 136 C 161.100006 136 162 135.100006 162 134 L 162 127.561996 C 165 126.192993 166.153 121.891006 166.694 119.856003 C 167.427002 117.100998 168 113.649994 168 112 C 168 109.046997 166.386993 106.468002 164 105.083008 L 164 104 L 164 100 L 164 96 L 164 88 L 164 85.528 L 164 80 L 164 76 L 164 72 L 164 71.507996 L 164.119003 71.029999 L 170.876999 44 L 85.123001 44 L 91.879997 71.029999 L 92 71.507996 L 92 72 L 92 76 L 92 80 L 92 85.528 L 92 88 L 92 96 L 92 100 L 92 104 L 92 108 L 94.002998 108 C 92.714005 111.080002 92 114.458008 92 118 C 92 132.335999 103.664001 144 118 144 C 132.335999 144 144 132.335999 144 118"/>
</svg>
