<?xml version="1.0" encoding="UTF-8"?>
<!-- Generated by Pixelmator Pro 3.7.1 -->
<svg width="256" height="256" viewBox="0 0 256 256" xmlns="http://www.w3.org/2000/svg">
    <path id="Path" fill="#ffffff" stroke="none" d="M 112 16 L 88 16 L 88 28 L 112 28 Z M 108 24 L 92 24 L 92 20 L 108 20 Z"/>
    <path id="path1" fill="#ffffff" stroke="none" d="M 112 32 L 88 32 L 88 44 L 112 44 Z M 108 40 L 92 40 L 92 36 L 108 36 Z"/>
    <path id="path2" fill="#ffffff" stroke="none" d="M 112 48 L 88 48 L 88 60 L 112 60 Z M 108 56 L 92 56 L 92 52 L 108 52 Z"/>
    <path id="path3" fill="#ffffff" stroke="none" d="M 112 64 L 88 64 L 88 76 L 112 76 Z M 108 72 L 92 72 L 92 68 L 108 68 Z"/>
    <path id="path4" fill="#ffffff" stroke="none" d="M 112 80 L 88 80 L 88 92 L 112 92 Z M 108 88 L 92 88 L 92 84 L 108 84 Z"/>
    <path id="path5" fill="#ffffff" stroke="none" d="M 36 64 L 24 64 L 24 60 L 36 60 Z"/>
    <path id="path6" fill="#ffffff" stroke="none" d="M 36 72 L 24 72 L 24 68 L 36 68 Z"/>
    <path id="path7" fill="#ffffff" stroke="none" d="M 36 80 L 24 80 L 24 76 L 36 76 Z"/>
    <path id="path8" fill="#ffffff" stroke="none" d="M 36 88 L 24 88 L 24 84 L 36 84 Z"/>
    <path id="path9" fill="#ffffff" stroke="none" d="M 36 96 L 24 96 L 24 92 L 36 92 Z"/>
    <path id="path10" fill="#ffffff" stroke="none" d="M 56 64 L 44 64 L 44 60 L 56 60 Z"/>
    <path id="path11" fill="#ffffff" stroke="none" d="M 56 72 L 44 72 L 44 68 L 56 68 Z"/>
    <path id="path12" fill="#ffffff" stroke="none" d="M 56 80 L 44 80 L 44 76 L 56 76 Z"/>
    <path id="path13" fill="#ffffff" stroke="none" d="M 56 88 L 44 88 L 44 84 L 56 84 Z"/>
    <path id="path14" fill="#ffffff" stroke="none" d="M 56 96 L 44 96 L 44 92 L 56 92 Z"/>
    <path id="path15" fill="#ffffff" stroke="none" d="M 76 64 L 64 64 L 64 60 L 76 60 Z"/>
    <path id="path16" fill="#ffffff" stroke="none" d="M 76 72 L 64 72 L 64 68 L 76 68 Z"/>
    <path id="path17" fill="#ffffff" stroke="none" d="M 76 80 L 64 80 L 64 76 L 76 76 Z"/>
    <path id="path18" fill="#ffffff" stroke="none" d="M 76 88 L 64 88 L 64 84 L 76 84 Z"/>
    <path id="path19" fill="#ffffff" stroke="none" d="M 76 96 L 64 96 L 64 92 L 76 92 Z"/>
    <path id="path20" fill="#ffffff" stroke="none" d="M 36 124 L 24 124 L 24 120 L 36 120 Z"/>
    <path id="path21" fill="#ffffff" stroke="none" d="M 56 124 L 44 124 L 44 120 L 56 120 Z"/>
    <path id="path22" fill="#ffffff" stroke="none" d="M 76 124 L 64 124 L 64 120 L 76 120 Z"/>
    <path id="path23" fill="#ffffff" stroke="none" d="M 36 132 L 24 132 L 24 128 L 36 128 Z"/>
    <path id="path24" fill="#ffffff" stroke="none" d="M 56 132 L 44 132 L 44 128 L 56 128 Z"/>
    <path id="path25" fill="#ffffff" stroke="none" d="M 76 132 L 64 132 L 64 128 L 76 128 Z"/>
    <path id="path26" fill="#ffffff" stroke="none" d="M 36 140 L 24 140 L 24 136 L 36 136 Z"/>
    <path id="path27" fill="#ffffff" stroke="none" d="M 60 140 L 44 140 L 44 136 L 60 136 Z"/>
    <path id="path28" fill="#ffffff" stroke="none" d="M 80 140 L 64 140 L 64 136 L 80 136 Z"/>
    <path id="path29" fill="#ffffff" stroke="none" d="M 36 156 L 20 156 L 20 152 L 36 152 Z"/>
    <path id="path30" fill="#ffffff" stroke="none" d="M 36 188 L 20 188 L 20 184 L 36 184 Z"/>
    <path id="path31" fill="#ffffff" stroke="none" d="M 36 196 L 20 196 L 20 192 L 36 192 Z"/>
    <path id="path32" fill="#ffffff" stroke="none" d="M 36 204 L 20 204 L 20 200 L 36 200 Z"/>
    <path id="path33" fill="#ffffff" stroke="none" d="M 32 180 L 20 180 L 20 176 L 32 176 Z"/>
    <path id="path34" fill="#ffffff" stroke="none" d="M 60 156 L 44 156 L 44 152 L 60 152 Z"/>
    <path id="path35" fill="#ffffff" stroke="none" d="M 80 156 L 64 156 L 64 152 L 80 152 Z"/>
    <path id="path36" fill="#ffffff" stroke="none" d="M 108 156 L 88 156 L 88 152 L 108 152 Z"/>
    <path id="path37" fill="#ffffff" stroke="none" d="M 108 164 L 88 164 L 88 160 L 108 160 Z"/>
    <path id="path38" fill="#ffffff" stroke="none" d="M 128 156 L 112 156 L 112 152 L 128 152 Z"/>
    <path id="path39" fill="#ffffff" stroke="none" d="M 128 164 L 112 164 L 112 160 L 128 160 Z"/>
    <path id="path40" fill="#ffffff" stroke="none" d="M 148 164 L 132 164 L 132 160 L 148 160 Z"/>
    <path id="path41" fill="#ffffff" stroke="none" d="M 168 164 L 152 164 L 152 160 L 168 160 Z"/>
    <path id="path42" fill="#ffffff" stroke="none" d="M 168 176 L 156 176 L 156 172 L 168 172 Z"/>
    <path id="path43" fill="#ffffff" stroke="none" d="M 172 184 L 156 184 L 156 180 L 172 180 Z"/>
    <path id="path44" fill="#ffffff" stroke="none" d="M 172 192 L 156 192 L 156 188 L 172 188 Z"/>
    <path id="path45" fill="#ffffff" stroke="none" d="M 172 200 L 156 200 L 156 196 L 172 196 Z"/>
    <path id="path46" fill="#ffffff" stroke="none" d="M 172 208 L 156 208 L 156 204 L 172 204 Z"/>
    <path id="path47" fill="#ffffff" stroke="none" d="M 172 216 L 156 216 L 156 212 L 172 212 Z"/>
    <path id="path48" fill="#ffffff" stroke="none" d="M 172 224 L 156 224 L 156 220 L 172 220 Z"/>
    <path id="path49" fill="#ffffff" stroke="none" d="M 172 232 L 156 232 L 156 228 L 172 228 Z"/>
    <path id="path50" fill="#ffffff" stroke="none" d="M 168 156 L 152 156 L 152 152 L 168 152 Z"/>
    <path id="path51" fill="#ffffff" stroke="none" d="M 168 148 L 152 148 L 152 144 L 168 144 Z"/>
    <path id="path52" fill="#ffffff" stroke="none" d="M 168 140 L 152 140 L 152 136 L 168 136 Z"/>
    <path id="path53" fill="#ffffff" stroke="none" d="M 168 132 L 152 132 L 152 128 L 168 128 Z"/>
    <path id="path54" fill="#ffffff" stroke="none" d="M 168 124 L 152 124 L 152 120 L 168 120 Z"/>
    <path id="path55" fill="#ffffff" stroke="none" d="M 168 116 L 152 116 L 152 112 L 168 112 Z"/>
    <path id="path56" fill="#ffffff" stroke="none" d="M 144 116 L 132 116 L 132 112 L 144 112 Z"/>
    <path id="path57" fill="#ffffff" stroke="none" d="M 160 108 L 152 108 L 152 104 L 160 104 Z"/>
    <path id="path58" fill="#ffffff" stroke="none" d="M 60 164 L 44 164 L 44 160 L 60 160 Z"/>
    <path id="path59" fill="#ffffff" stroke="none" d="M 80 164 L 64 164 L 64 160 L 80 160 Z"/>
    <path id="path60" fill="#ffffff" stroke="none" d="M 60 172 L 44 172 L 44 168 L 60 168 Z"/>
    <path id="path61" fill="#ffffff" stroke="none" d="M 80 172 L 64 172 L 64 168 L 80 168 Z"/>
    <path id="path62" fill="#ffffff" stroke="none" d="M 60 180 L 44 180 L 44 176 L 60 176 Z"/>
    <path id="path63" fill="#ffffff" stroke="none" d="M 80 180 L 64 180 L 64 176 L 80 176 Z"/>
    <path id="path64" fill="#ffffff" stroke="none" d="M 60 188 L 44 188 L 44 184 L 60 184 Z"/>
    <path id="path65" fill="#ffffff" stroke="none" d="M 80 188 L 64 188 L 64 184 L 80 184 Z"/>
    <path id="path66" fill="#ffffff" stroke="none" d="M 60 196 L 40 196 L 40 192 L 60 192 Z"/>
    <path id="path67" fill="#ffffff" stroke="none" d="M 88 196 L 64 196 L 64 192 L 88 192 Z"/>
    <path id="path68" fill="#ffffff" stroke="none" d="M 60 204 L 40 204 L 40 200 L 60 200 Z"/>
    <path id="path69" fill="#ffffff" stroke="none" d="M 88 204 L 64 204 L 64 200 L 88 200 Z"/>
    <path id="path70" fill="#ffffff" stroke="none" d="M 36 212 L 20 212 L 20 208 L 36 208 Z"/>
    <path id="path71" fill="#ffffff" stroke="none" d="M 60 212 L 40 212 L 40 208 L 60 208 Z"/>
    <path id="path72" fill="#ffffff" stroke="none" d="M 88 212 L 64 212 L 64 208 L 88 208 Z"/>
    <path id="path73" fill="#ffffff" stroke="none" d="M 32 220 L 20 220 L 20 216 L 32 216 Z"/>
    <path id="path74" fill="#ffffff" stroke="none" d="M 60 220 L 40 220 L 40 216 L 60 216 Z"/>
    <path id="path75" fill="#ffffff" stroke="none" d="M 88 220 L 64 220 L 64 216 L 88 216 Z"/>
    <path id="path76" fill="#ffffff" stroke="none" d="M 32 228 L 20 228 L 20 224 L 32 224 Z"/>
    <path id="path77" fill="#ffffff" stroke="none" d="M 60 228 L 40 228 L 40 224 L 60 224 Z"/>
    <path id="path78" fill="#ffffff" stroke="none" d="M 88 228 L 64 228 L 64 224 L 88 224 Z"/>
    <path id="path79" fill="#ffffff" stroke="none" d="M 104 104 L 88 104 L 88 100 L 104 100 Z"/>
    <path id="path80" fill="#ffffff" stroke="none" d="M 124 104 L 108 104 L 108 100 L 124 100 Z"/>
    <path id="path81" fill="#ffffff" stroke="none" d="M 104 112 L 88 112 L 88 108 L 104 108 Z"/>
    <path id="path82" fill="#ffffff" stroke="none" d="M 124 112 L 108 112 L 108 108 L 124 108 Z"/>
    <path id="path83" fill="#ffffff" stroke="none" d="M 104 120 L 88 120 L 88 116 L 104 116 Z"/>
    <path id="path84" fill="#ffffff" stroke="none" d="M 124 120 L 108 120 L 108 116 L 124 116 Z"/>
    <path id="path85" fill="#ffffff" stroke="none" d="M 148 128 L 88 128 L 88 144 L 148 144 Z M 144 140 L 92 140 L 92 132 L 144 132 Z"/>
    <path id="path86" fill="#ffffff" stroke="none" d="M 236 128 L 176 128 L 176 144 L 236 144 Z M 232 140 L 180 140 L 180 132 L 232 132 Z"/>
    <path id="path87" fill="#ffffff" stroke="none" d="M 52 104 L 24 104 L 24 116 L 52 116 Z M 48 112 L 28 112 L 28 108 L 48 108 Z"/>
    <path id="path88" fill="#ffffff" stroke="none" d="M 84 104 L 56 104 L 56 116 L 84 116 Z M 80 112 L 60 112 L 60 108 L 80 108 Z"/>
    <path id="path89" fill="#ffffff" stroke="none" d="M 136 40 L 124 40 L 124 56 L 136 56 Z M 132 52 L 128 52 L 128 44 L 132 44 Z"/>
    <path id="path90" fill="#ffffff" stroke="none" d="M 144 24 L 120 24 L 120 20 L 144 20 Z"/>
    <path id="path91" fill="#ffffff" stroke="none" d="M 144 32 L 120 32 L 120 28 L 144 28 Z"/>
    <path id="path92" fill="#ffffff" stroke="none" d="M 160 24 L 148 24 L 148 20 L 160 20 Z"/>
    <path id="path93" fill="#ffffff" stroke="none" d="M 156 60 L 120 60 L 120 72 L 156 72 Z M 152 68 L 124 68 L 124 64 L 152 64 Z"/>
    <path id="path94" fill="#ffffff" stroke="none" d="M 168 84 L 152 84 L 152 80 L 168 80 Z"/>
    <path id="path95" fill="#ffffff" stroke="none" d="M 148 76 L 120 76 L 120 88 L 148 88 Z M 144 84 L 124 84 L 124 80 L 144 80 Z"/>
    <path id="path96" fill="#ffffff" stroke="none" d="M 148 96 L 124 96 L 124 92 L 148 92 Z"/>
    <path id="path97" fill="#ffffff" stroke="none" d="M 172 96 L 152 96 L 152 92 L 172 92 Z"/>
    <path id="path98" fill="#ffffff" stroke="none" d="M 176 64 L 164 64 L 164 60 L 176 60 Z"/>
    <path id="path99" fill="#ffffff" stroke="none" d="M 192 76 L 176 76 L 176 72 L 192 72 Z"/>
    <path id="path100" fill="#ffffff" stroke="none" d="M 192 88 L 180 88 L 180 84 L 192 84 Z"/>
    <path id="path101" fill="#ffffff" stroke="none" d="M 196 96 L 176 96 L 176 92 L 196 92 Z"/>
    <path id="path102" fill="#ffffff" stroke="none" d="M 192 104 L 180 104 L 180 100 L 192 100 Z"/>
    <path id="path103" fill="#ffffff" stroke="none" d="M 192 112 L 180 112 L 180 108 L 192 108 Z"/>
    <path id="path104" fill="#ffffff" stroke="none" d="M 232 88 L 204 88 L 204 116 L 232 116 Z M 228 112 L 208 112 L 208 92 L 228 92 Z"/>
    <path id="path105" fill="#ffffff" stroke="none" d="M 212 60 L 204 60 L 204 56 L 212 56 Z"/>
    <path id="path106" fill="#ffffff" stroke="none" d="M 212 68 L 204 68 L 204 64 L 212 64 Z"/>
    <path id="path107" fill="#ffffff" stroke="none" d="M 200 60 L 192 60 L 192 56 L 200 56 Z"/>
    <path id="path108" fill="#ffffff" stroke="none" d="M 200 68 L 192 68 L 192 64 L 200 64 Z"/>
    <path id="path109" fill="#ffffff" stroke="none" d="M 180 60 L 184 60 L 184 68 L 180 68 Z"/>
    <path id="path110" fill="#ffffff" stroke="none" d="M 168 32 L 164 32 L 164 28 L 168 28 Z"/>
    <path id="path111" fill="#ffffff" stroke="none" d="M 160 52 L 156 52 L 156 48 L 160 48 Z"/>
    <path id="path112" fill="#ffffff" stroke="none" d="M 176 32 L 172 32 L 172 28 L 176 28 Z"/>
    <path id="path113" fill="#ffffff" stroke="none" d="M 184 32 L 180 32 L 180 28 L 184 28 Z"/>
    <path id="path114" fill="#ffffff" stroke="none" d="M 192 32 L 188 32 L 188 28 L 192 28 Z"/>
    <path id="path115" fill="#ffffff" stroke="none" d="M 208 44 L 204 44 L 204 40 L 208 40 Z"/>
    <path id="path116" fill="#ffffff" stroke="none" d="M 202 16 C 198.686996 16 196 18.686996 196 22 C 196 25.313004 198.686996 28 202 28 C 205.313004 28 208 25.313004 208 22 C 208 18.686996 205.313004 16 202 16 M 202 20 C 203.102997 20 204 20.897003 204 22 C 204 23.102997 203.102997 24 202 24 C 200.897003 24 200 23.102997 200 22 C 200 20.897003 200.897003 20 202 20"/>
    <path id="path117" fill="#ffffff" stroke="none" d="M 222 240 C 220.897003 240 220 239.102997 220 238 C 220 236.897003 220.897003 236 222 236 C 223.102997 236 224 236.897003 224 238 C 224 239.102997 223.102997 240 222 240 M 222 232 C 218.686996 232 216 234.686996 216 238 C 216 241.313004 218.686996 244 222 244 C 225.313004 244 228 241.313004 228 238 C 228 234.686996 225.313004 232 222 232"/>
    <path id="path118" fill="#ffffff" stroke="none" d="M 34 240 C 32.896999 240 32 239.102997 32 238 C 32 236.897003 32.896999 236 34 236 C 35.103001 236 36 236.897003 36 238 C 36 239.102997 35.103001 240 34 240 M 34 232 C 30.687 232 28 234.686996 28 238 C 28 241.313004 30.687 244 34 244 C 37.313 244 40 241.313004 40 238 C 40 234.686996 37.313 232 34 232"/>
    <path id="path119" fill="#ffffff" stroke="none" d="M 30 16 C 26.687 16 24 18.686996 24 22 C 24 25.313004 26.687 28 30 28 C 33.313 28 36 25.313004 36 22 C 36 18.686996 33.313 16 30 16 M 30 20 C 31.103001 20 32 20.897003 32 22 C 32 23.102997 31.103001 24 30 24 C 28.896999 24 28 23.102997 28 22 C 28 20.897003 28.896999 20 30 20"/>
    <path id="path120" fill="#ffffff" stroke="none" d="M 220 16 C 217.791 16 216 17.791 216 20 C 216 22.209 217.791 24 220 24 C 222.209 24 224 22.209 224 20 C 224 17.791 222.209 16 220 16 M 220 20 L 219.994995 20 L 220 20"/>
    <path id="path121" fill="#ffffff" stroke="none" d="M 188 40 C 185.791 40 184 41.791 184 44 C 184 46.209 185.791 48 188 48 C 190.209 48 192 46.209 192 44 C 192 41.791 190.209 40 188 40 M 188 44 L 187.994995 44 L 188 44"/>
    <path id="path122" fill="#ffffff" stroke="none" d="M 200 74 C 200 75.104004 199.104004 76 198 76 C 196.895996 76 196 75.104004 196 74 C 196 72.895996 196.895996 72 198 72 C 199.104004 72 200 72.895996 200 74"/>
    <path id="path123" fill="#ffffff" stroke="none" d="M 208 74 C 208 75.104004 207.104004 76 206 76 C 204.895996 76 204 75.104004 204 74 C 204 72.895996 204.895996 72 206 72 C 207.104004 72 208 72.895996 208 74"/>
    <path id="path124" fill="#ffffff" stroke="none" d="M 156 42 C 156 43.104004 155.104004 44 154 44 C 152.895996 44 152 43.104004 152 42 C 152 40.895996 152.895996 40 154 40 C 155.104004 40 156 40.895996 156 42"/>
    <path id="path125" fill="#ffffff" stroke="none" d="M 164 42 C 164 43.104004 163.104004 44 162 44 C 160.895996 44 160 43.104004 160 42 C 160 40.895996 160.895996 40 162 40 C 163.104004 40 164 40.895996 164 42"/>
    <path id="path126" fill="#ffffff" stroke="none" d="M 120 38 C 120 39.104004 119.103996 40 118 40 C 116.895996 40 116 39.104004 116 38 C 116 36.895996 116.895996 36 118 36 C 119.103996 36 120 36.895996 120 38"/>
    <path id="path127" fill="#ffffff" stroke="none" d="M 232 32 L 228 32 L 220 32 L 216 32 L 216 36 L 216 56 L 216 60 L 220 60 L 228 60 L 232 60 L 232 56 L 232 36 Z M 228 56 L 220 56 L 220 36 L 228 36 Z"/>
    <path id="path128" fill="#ffffff" stroke="none" d="M 232 56 L 228 56 L 220 56 L 216 56 L 216 60 L 216 72 L 216 76 L 220 76 L 228 76 L 232 76 L 232 72 L 232 60 Z M 228 72 L 220 72 L 220 60 L 228 60 Z"/>
    <path id="path129" fill="#ffffff" stroke="none" d="M 120 168 L 92 168 L 92 180 L 120 180 Z M 116 176 L 96 176 L 96 172 L 116 172 Z"/>
    <path id="path130" fill="#ffffff" stroke="none" d="M 152 168 L 124 168 L 124 180 L 152 180 Z M 148 176 L 128 176 L 128 172 L 148 172 Z"/>
    <path id="path131" fill="#ffffff" stroke="none" d="M 120 184 L 92 184 L 92 196 L 120 196 Z M 116 192 L 96 192 L 96 188 L 116 188 Z"/>
    <path id="path132" fill="#ffffff" stroke="none" d="M 152 184 L 124 184 L 124 196 L 152 196 Z M 148 192 L 128 192 L 128 188 L 148 188 Z"/>
    <path id="path133" fill="#ffffff" stroke="none" d="M 120 200 L 92 200 L 92 212 L 120 212 Z M 116 208 L 96 208 L 96 204 L 116 204 Z"/>
    <path id="path134" fill="#ffffff" stroke="none" d="M 152 200 L 124 200 L 124 212 L 152 212 Z M 148 208 L 128 208 L 128 204 L 148 204 Z"/>
    <path id="path135" fill="#ffffff" stroke="none" d="M 144 100 L 128 100 L 128 104 L 144 104 Z"/>
    <path id="path136" fill="#ffffff" stroke="none" d="M 160 36 L 148 36 L 148 28 L 160 28 Z"/>
    <path id="path137" fill="#ffffff" stroke="none" d="M 192 156 L 176 156 L 176 152 L 192 152 Z"/>
    <path id="path138" fill="#ffffff" stroke="none" d="M 192 164 L 176 164 L 176 160 L 192 160 Z"/>
    <path id="path139" fill="#ffffff" stroke="none" d="M 212 156 L 196 156 L 196 152 L 212 152 Z"/>
    <path id="path140" fill="#ffffff" stroke="none" d="M 212 164 L 196 164 L 196 160 L 212 160 Z"/>
    <path id="path141" fill="#ffffff" stroke="none" d="M 232 156 L 216 156 L 216 152 L 232 152 Z"/>
    <path id="path142" fill="#ffffff" stroke="none" d="M 232 164 L 216 164 L 216 160 L 232 160 Z"/>
    <path id="path143" fill="#ffffff" stroke="none" d="M 204 216 L 176 216 L 176 208 L 204 208 Z"/>
    <path id="path144" fill="#ffffff" stroke="none" d="M 236 216 L 208 216 L 208 208 L 236 208 Z"/>
    <path id="path145" fill="#ffffff" stroke="none" d="M 204 228 L 176 228 L 176 220 L 204 220 Z"/>
    <path id="path146" fill="#ffffff" stroke="none" d="M 236 228 L 208 228 L 208 220 L 236 220 Z"/>
    <path id="path147" fill="#ffffff" stroke="none" d="M 204 192 L 176 192 L 176 184 L 204 184 Z"/>
    <path id="path148" fill="#ffffff" stroke="none" d="M 236 192 L 208 192 L 208 184 L 236 184 Z"/>
    <path id="path149" fill="#ffffff" stroke="none" d="M 236 180 L 208 180 L 208 172 L 236 172 Z"/>
    <path id="path150" fill="#ffffff" stroke="none" d="M 204 180 L 176 180 L 176 172 L 204 172 Z"/>
    <path id="path151" fill="#ffffff" stroke="none" d="M 36 44 L 20 44 L 20 40 L 36 40 Z"/>
    <path id="path152" fill="#ffffff" stroke="none" d="M 60 44 L 44 44 L 44 40 L 60 40 Z"/>
    <path id="path153" fill="#ffffff" stroke="none" d="M 84 44 L 68 44 L 68 40 L 84 40 Z"/>
    <path id="path154" fill="#ffffff" stroke="none" d="M 36 36 L 20 36 L 20 32 L 36 32 Z"/>
    <path id="path155" fill="#ffffff" stroke="none" d="M 60 36 L 44 36 L 44 32 L 60 32 Z"/>
    <path id="path156" fill="#ffffff" stroke="none" d="M 84 36 L 68 36 L 68 32 L 84 32 Z"/>
    <path id="path157" fill="#ffffff" stroke="none" d="M 36 52 L 20 52 L 20 48 L 36 48 Z"/>
    <path id="path158" fill="#ffffff" stroke="none" d="M 60 52 L 44 52 L 44 48 L 60 48 Z"/>
    <path id="path159" fill="#ffffff" stroke="none" d="M 84 52 L 68 52 L 68 48 L 84 48 Z"/>
    <path id="path160" fill="#ffffff" stroke="none" d="M 204 204 L 176 204 L 176 196 L 204 196 Z"/>
    <path id="path161" fill="#ffffff" stroke="none" d="M 236 204 L 208 204 L 208 196 L 236 196 Z"/>
    <path id="path162" fill="#ffffff" stroke="none" d="M 116 220 L 92 220 L 92 216 L 116 216 Z"/>
    <path id="path163" fill="#ffffff" stroke="none" d="M 148 220 L 124 220 L 124 216 L 148 216 Z"/>
    <path id="path164" fill="#ffffff" stroke="none" d="M 116 228 L 92 228 L 92 224 L 116 224 Z"/>
    <path id="path165" fill="#ffffff" stroke="none" d="M 148 228 L 124 228 L 124 224 L 148 224 Z"/>
    <path id="path166" fill="#ffffff" stroke="none" d="M 236 18 C 236 16.895996 235.104004 16 234 16 C 232.895996 16 232 16.895996 232 18 C 232 19.104004 232.895996 20 234 20 C 235.104004 20 236 19.104004 236 18"/>
    <path id="path167" fill="#ffffff" stroke="none" d="M 236 238 C 236 236.895996 235.104004 236 234 236 C 232.895996 236 232 236.895996 232 238 C 232 239.104004 232.895996 240 234 240 C 235.104004 240 236 239.104004 236 238"/>
    <path id="path168" fill="#ffffff" stroke="none" d="M 22 236 C 20.896 236 20 236.895996 20 238 C 20 239.104004 20.896 240 22 240 C 23.104 240 24 239.104004 24 238 C 24 236.895996 23.104 236 22 236"/>
    <path id="path169" fill="#ffffff" stroke="none" d="M 22 16 C 20.896 16 20 16.895996 20 18 C 20 19.104004 20.896 20 22 20 C 23.104 20 24 19.104004 24 18 C 24 16.895996 23.104 16 22 16"/>
    <path id="path170" fill="#ffffff" stroke="none" d="M 240 8 L 224 8 L 220 8 L 16 8 L 12 8 L 12 12 L 12 244 L 12 248 L 16 248 L 216 248 L 224 248 L 240 248 L 244 248 L 244 244 L 244 76 L 244 72 L 240 72 L 232 72 L 232 76 L 240 76 L 240 244 L 224 244 L 216 244 L 16 244 L 16 12 L 220 12 L 224 12 L 240 12 L 240 28 L 232 28 L 232 32 L 240 32 L 244 32 L 244 28 L 244 12 L 244 8 Z"/>
</svg>
