<?xml version="1.0" encoding="UTF-8"?>
<!-- Generated by Pixelmator Pro 3.7.1 -->
<svg width="256" height="256" viewBox="0 0 256 256" xmlns="http://www.w3.org/2000/svg">
    <path id="Path" fill="#ffffff" stroke="none" d="M 208 232 C 208 238.626999 202.626999 244 196 244 L 128 244 L 60 244 C 53.373001 244 48 238.626999 48 232 L 48 196 L 56 196 L 60.003998 196 L 195.632996 196 L 199.636993 196 L 207.636993 196 L 208 196 Z M 48 184 L 56.520996 184 L 56.173996 192 L 48 192 Z M 48 164 L 48 160 L 57.565002 160 L 57.391006 164 Z M 56.869995 176 L 56.695999 180 L 48 180 L 48 176 Z M 48 172 L 48 168 L 57.216995 168 L 57.042999 172 Z M 57.912994 152 L 57.738998 156 L 48 156 L 48 152 Z M 52.904999 25.813004 C 52.985992 25.75 53.074997 25.686005 53.160004 25.623001 C 53.388 25.453995 53.626007 25.283997 53.876999 25.112 C 53.968994 25.048996 54.061996 24.985992 54.158005 24.921997 C 54.466995 24.716995 54.791 24.509995 55.134995 24.302002 C 55.175003 24.278 55.210999 24.253998 55.251007 24.229996 C 56.074005 23.735992 56.998001 23.233994 58.020996 22.729996 C 58.076996 22.703003 58.134003 22.675003 58.190002 22.647003 C 58.675995 22.410995 59.182007 22.173996 59.712997 21.936996 C 59.744003 21.923004 59.772995 21.908997 59.804001 21.895996 C 60.970001 21.376999 62.244995 20.860001 63.636002 20.348007 C 63.636002 20.348007 63.636993 20.348007 63.636993 20.348007 L 58.087006 148 L 48 148 L 48 35.501007 C 48 32.039993 49.477005 28.738007 52.091995 26.470001 C 52.339996 26.255005 52.615005 26.035004 52.904999 25.813004 M 70.584 18.128998 C 69 19.591995 68 21.679001 68 24 C 68 28.410995 71.589005 32 76 32 C 80.411003 32 84 28.410995 84 24 C 84 20.341003 81.527 17.255005 78.167007 16.307007 C 90.160004 13.794998 106.445 12 128 12 C 156.356995 12 175.606003 15.104004 187.932007 18.863998 L 188.003998 20.520996 L 193.546997 148 L 170 148 C 168.895996 148 168 148.895996 168 150 C 168 151.104004 168.895996 152 170 152 L 193.720993 152 L 193.895004 156 L 178 156 C 176.895996 156 176 156.895996 176 158 C 176 159.104004 176.895996 160 178 160 L 194.067993 160 L 194.242004 164 L 186 164 C 184.895996 164 184 164.895996 184 166 C 184 167.104004 184.895996 168 186 168 L 194.416 168 L 194.589996 172 L 190 172 C 188.895996 172 188 172.895996 188 174 C 188 175.104004 188.895996 176 190 176 L 194.764008 176 L 194.936996 180 L 194 180 C 192.895996 180 192 180.895996 192 182 C 192 183.104004 192.895996 184 194 184 L 195.110992 184 L 195.459 192 L 60.177994 192 L 60.524994 184 L 62 184 C 63.104004 184 64 183.104004 64 182 C 64 180.895996 63.104004 180 62 180 L 60.699005 180 L 60.873993 176 L 66 176 C 67.104004 176 68 175.104004 68 174 C 68 172.895996 67.104004 172 66 172 L 61.046997 172 L 61.220993 168 L 70 168 C 71.104004 168 72 167.104004 72 166 C 72 164.895996 71.104004 164 70 164 L 61.395004 164 L 61.569 160 L 78 160 C 79.104004 160 80 159.104004 80 158 C 80 156.895996 79.104004 156 78 156 L 61.742996 156 L 61.917007 152 L 86 152 C 87.103996 152 88 151.104004 88 150 C 88 148.895996 87.103996 148 86 148 L 62.091003 148 L 67.632996 20.520996 L 67.699997 18.979004 C 68.626007 18.692001 69.578003 18.408005 70.584 18.128998 M 76 20 C 78.209 20 80 21.791 80 24 C 80 26.209 78.209 28 76 28 C 73.791 28 72 26.209 72 24 C 72 21.791 73.791 20 76 20 M 207.636993 184 L 207.636993 192 L 199.462997 192 L 199.115005 184 Z M 207.636993 176 L 207.636993 180 L 198.940994 180 L 198.768005 176 Z M 207.636993 168 L 207.636993 172 L 198.593994 172 L 198.419998 168 Z M 207.636993 160 L 207.636993 164 L 198.246002 164 L 198.072006 160 Z M 207.636993 152 L 207.636993 156 L 197.897995 156 L 197.723999 152 Z M 203.546005 26.470001 C 206.160004 28.738007 207.636993 32.039993 207.636993 35.501007 L 207.636993 148 L 197.550003 148 L 192 20.348007 C 197.615005 22.414001 201.362 24.576996 203.546005 26.470001 M 206.529007 23.449005 C 202.990997 20.378998 197.076004 17.520996 189.507004 15.167999 L 187.748001 14.638 C 185.904999 14.102005 183.977005 13.595001 181.964996 13.121994 C 167.511002 9.723007 149.354004 8 128 8 C 106.646004 8 88.488998 9.723007 74.035004 13.121994 C 71.889999 13.626007 69.837006 14.169006 67.884003 14.744995 L 62.255997 16.593994 C 61.945007 16.707993 61.651001 16.826996 61.348007 16.942993 C 61.132996 17.026001 60.916 17.108002 60.703995 17.190994 C 60.350006 17.330994 60.003006 17.472 59.660004 17.613998 C 59.391998 17.725006 59.128998 17.835999 58.867996 17.949005 C 58.582001 18.072006 58.294998 18.195007 58.016998 18.320007 C 57.641998 18.488007 57.279007 18.658005 56.919006 18.828995 C 56.759003 18.904999 56.593002 18.979004 56.436005 19.056 C 55.893997 19.320007 55.369995 19.587006 54.865005 19.856995 C 54.820007 19.882004 54.776993 19.906006 54.731995 19.931 C 54.276001 20.177002 53.837006 20.425003 53.412994 20.675995 C 53.304993 20.738998 53.201004 20.802994 53.095993 20.867004 C 52.742996 21.080994 52.401001 21.294998 52.070999 21.511993 C 51.955002 21.587006 51.839996 21.664001 51.727005 21.740005 C 51.414993 21.951004 51.115997 22.162994 50.826996 22.376999 C 50.725998 22.451004 50.621002 22.524994 50.522995 22.598999 C 50.154007 22.880005 49.798996 23.164001 49.470993 23.449005 C 48.602005 24.203003 47.824997 25.042999 47.149002 25.951004 C 45.796997 27.768005 44.848999 29.858994 44.365997 32.082993 C 44.125 33.195007 44 34.339996 44 35.501007 L 44 192 L 44 196 L 44 232 C 44 235.858994 45.373993 239.403992 47.658005 242.171997 C 50.595001 245.729004 55.037003 248 60 248 L 128 248 L 196 248 C 200.962997 248 205.404007 245.729004 208.341995 242.171997 C 210.626007 239.403992 212 235.858994 212 232 L 212 196 L 212 192 L 212 35.501007 C 212 30.856995 210.005997 26.464005 206.529007 23.449005"/>
    <path id="path1" fill="#ffffff" stroke="none" d="M 148 104 L 180 104 L 180 120 L 148 120 Z M 148 124 L 180 124 C 182.209 124 184 122.209 184 120 L 184 104 C 184 101.791 182.209 100 180 100 L 148 100 C 145.791 100 144 101.791 144 104 L 144 120 C 144 122.209 145.791 124 148 124"/>
    <path id="path2" fill="#ffffff" stroke="none" d="M 72 44 L 128 44 L 128 116 L 72 116 Z M 72 120 L 128 120 C 130.209 120 132 118.209 132 116 L 132 44 C 132 41.791 130.209 40 128 40 L 72 40 C 69.791 40 68 41.791 68 44 L 68 116 C 68 118.209 69.791 120 72 120"/>
</svg>
