<?xml version="1.0" encoding="UTF-8"?>
<!-- Generated by Pixelmator Pro 3.7.1 -->
<svg width="256" height="256" viewBox="0 0 256 256" xmlns="http://www.w3.org/2000/svg">
    <path id="Path" fill="#ffffff" stroke="none" d="M 26 16 C 24.896 16 24 16.895996 24 18 C 24 19.104004 24.896 20 26 20 C 27.104 20 28 19.104004 28 18 C 28 16.895996 27.104 16 26 16"/>
    <path id="path1" fill="#ffffff" stroke="none" d="M 230 20 C 231.104004 20 232 19.104004 232 18 C 232 16.895996 231.104004 16 230 16 C 228.895996 16 228 16.895996 228 18 C 228 19.104004 228.895996 20 230 20"/>
    <path id="path2" fill="#ffffff" stroke="none" d="M 222 104 L 220 104 L 220 108 L 218 108 L 218 104 L 216 104 L 216 108 L 214 108 L 214 104 L 212 104 L 212 108 L 210 108 L 210 104 L 208 104 L 208 108 L 206 108 L 206 104 L 204 104 L 204 108 L 202 108 L 202 104 L 200 104 L 200 108 L 198 108 L 198 104 L 196 104 L 196 108 L 194 108 L 194 104 L 192 104 L 192 108 L 190 108 L 190 104 L 188 104 L 188 108 L 186 108 L 186 104 L 184 104 L 184 108 L 182 108 L 182 104 L 180 104 L 180 108 L 178 108 L 178 104 L 176 104 L 176 108 L 174 108 L 174 104 L 172 104 L 172 108 L 170 108 L 170 104 L 168 104 L 168 108 L 166 108 L 166 104 L 164 104 L 164 108 L 162 108 L 162 104 L 160 104 L 160 108 L 158 108 L 158 104 L 156 104 L 156 108 L 154 108 L 154 104 L 152 104 L 152 108 L 152 112 L 152 116 L 154 116 L 154 112 L 156 112 L 156 116 L 158 116 L 158 112 L 160 112 L 160 116 L 162 116 L 162 112 L 164 112 L 164 116 L 166 116 L 166 112 L 168 112 L 168 116 L 170 116 L 170 112 L 172 112 L 172 116 L 174 116 L 174 112 L 176 112 L 176 116 L 178 116 L 178 112 L 180 112 L 180 116 L 182 116 L 182 112 L 184 112 L 184 116 L 186 116 L 186 112 L 188 112 L 188 116 L 190 116 L 190 112 L 192 112 L 192 116 L 194 116 L 194 112 L 196 112 L 196 116 L 198 116 L 198 112 L 200 112 L 200 116 L 202 116 L 202 112 L 204 112 L 204 116 L 206 116 L 206 112 L 208 112 L 208 116 L 210 116 L 210 112 L 212 112 L 212 116 L 214 116 L 214 112 L 216 112 L 216 116 L 218 116 L 218 112 L 220 112 L 220 116 L 222 116 L 222 112 L 224 112 L 224 108 L 222 108 Z"/>
    <path id="path3" fill="#ffffff" stroke="none" d="M 120 40 L 32 40 L 32 36 L 120 36 Z M 32 32 L 28 32 L 28 36 L 28 40 L 28 44 L 32 44 L 120 44 L 124 44 L 124 40 L 124 36 L 124 32 L 120 32 Z"/>
    <path id="path4" fill="#ffffff" stroke="none" d="M 120 54 L 32 54 L 32 50 L 120 50 Z M 32 46 L 28 46 L 28 50 L 28 54 L 28 58 L 32 58 L 120 58 L 124 58 L 124 54 L 124 50 L 124 46 L 120 46 Z"/>
    <path id="path5" fill="#ffffff" stroke="none" d="M 140 36 L 200 36 L 204 36 L 220 36 L 224 36 L 228 36 L 228 40 L 140 40 Z M 204 19.333008 L 220 19.333008 L 220 32 L 204 32 Z M 228 44 L 232 44 L 232 40 L 232 36 L 232 32 L 228 32 L 224 32 L 224 19.333008 L 224 16 L 220 16 L 204 16 L 200 16 L 200 19.333008 L 200 32 L 140 32 L 136 32 L 136 36 L 136 40 L 136 44 L 140 44 Z"/>
    <path id="path6" fill="#ffffff" stroke="none" d="M 140 50 L 228 50 L 228 54 L 140 54 Z M 228 58 L 232 58 L 232 54 L 232 50 L 232 46 L 228 46 L 140 46 L 136 46 L 136 50 L 136 54 L 136 58 L 140 58 Z"/>
    <path id="path7" fill="#ffffff" stroke="none" d="M 120 68 L 32 68 L 32 64 L 120 64 Z M 32 60 L 28 60 L 28 64 L 28 68 L 28 72 L 32 72 L 120 72 L 124 72 L 124 68 L 124 64 L 124 60 L 120 60 Z"/>
    <path id="path8" fill="#ffffff" stroke="none" d="M 140 64 L 168 64 L 168 92 L 140 92 Z M 168 96 L 172 96 L 172 92 L 172 64 L 172 60 L 168 60 L 140 60 L 136 60 L 136 64 L 136 92 L 136 96 L 140 96 Z"/>
    <path id="path9" fill="#ffffff" stroke="none" d="M 180 64 L 208 64 L 208 92 L 180 92 Z M 208 96 L 212 96 L 212 92 L 212 64 L 212 60 L 208 60 L 180 60 L 176 60 L 176 64 L 176 92 L 176 96 L 180 96 Z"/>
    <path id="path10" fill="#ffffff" stroke="none" d="M 112 100 L 124 100 L 124 120 L 112 120 Z M 124 124 L 128 124 L 128 120 L 128 100 L 128 96 L 124 96 L 112 96 L 108 96 L 108 100 L 108 120 L 108 124 L 112 124 Z"/>
    <path id="path11" fill="#ffffff" stroke="none" d="M 240 152 L 224 152 L 224 148 L 224 144 L 220 144 L 36 144 L 32 144 L 32 148 L 32 152 L 16 152 L 12 152 L 12 144 C 12 143.567993 12.024994 143.143997 12.069 142.725006 C 12.082001 142.609009 12.104996 142.498993 12.121002 142.386002 C 12.162003 142.080002 12.207001 141.774994 12.270996 141.477997 C 12.294998 141.363007 12.328995 141.253998 12.356995 141.140991 C 12.429001 140.846008 12.505997 140.553009 12.600006 140.266998 C 12.630997 140.17099 12.669006 140.07901 12.703003 139.984009 C 12.809998 139.68399 12.923996 139.388 13.054001 139.098999 C 13.085999 139.027008 13.121994 138.958008 13.156006 138.888 C 13.302002 138.578003 13.457993 138.276001 13.628998 137.981995 C 13.656006 137.936005 13.686005 137.890991 13.712997 137.843994 C 13.901993 137.528992 14.104004 137.225006 14.319 136.929993 C 14.337006 136.904999 14.354996 136.880997 14.373993 136.856003 C 14.606003 136.544006 14.852997 136.244003 15.113998 135.955994 C 15.121994 135.946991 15.128998 135.938995 15.136993 135.931 C 16.660004 134.259003 18.643997 133.02301 20.893997 132.42099 C 20.945007 132.406006 20.996994 132.395004 21.048996 132.380997 C 21.313995 132.313004 21.580994 132.251999 21.852997 132.201996 C 21.990997 132.177002 22.132996 132.158997 22.272995 132.139008 C 22.477005 132.108002 22.679993 132.074997 22.886993 132.057007 C 23.253006 132.020996 23.623993 132 24 132 L 28 132 L 64 132 L 68 132 L 108 132 L 112 132 L 124 132 L 128 132 L 132 132 L 136 132 L 164 132 L 168 132 L 180 132 L 184 132 L 188 132 L 192 132 L 232 132 C 234.688004 132 237.162003 132.895004 239.162003 134.389008 C 239.194 134.412003 239.225998 134.436005 239.257004 134.459 C 239.475006 134.623993 239.686005 134.794998 239.891006 134.975006 C 239.925003 135.003998 239.957001 135.035004 239.990997 135.065002 C 240.574005 135.587997 241.104996 136.165009 241.576996 136.791992 C 241.653 136.891998 241.729004 136.98999 241.802002 137.09201 C 241.914993 137.251007 242.020996 137.414001 242.126007 137.57901 C 242.212997 137.714996 242.296005 137.854004 242.376999 137.992996 C 242.466003 138.145996 242.554001 138.296997 242.634995 138.453003 C 242.733002 138.641998 242.822998 138.834 242.912003 139.027008 C 242.966995 139.147003 243.026993 139.264999 243.078003 139.386993 C 243.207993 139.697998 243.322998 140.016998 243.427994 140.341003 C 243.464005 140.455994 243.492996 140.572998 243.526001 140.688995 C 243.593994 140.923996 243.656006 141.160004 243.709 141.399002 C 243.737 141.527008 243.764008 141.656006 243.787003 141.786011 C 243.834 142.03299 243.871002 142.281998 243.901001 142.535004 C 243.916 142.651001 243.932999 142.766998 243.942993 142.884003 C 243.977997 143.251999 244 143.623001 244 144 L 244 152 Z M 244 160 L 240 160 L 224 160 L 224 156 L 240 156 L 244 156 Z M 244 168 L 240 168 L 224 168 L 224 164 L 240 164 L 244 164 Z M 244 176 L 240 176 L 224 176 L 224 172 L 240 172 L 244 172 Z M 244 244 L 240 244 L 236 244 L 66 244 L 20 244 L 16 244 L 12 244 L 12 180 L 16 180 L 32 180 L 32 208 L 32 212 L 32 228 L 32 232 L 36 232 L 220 232 L 224 232 L 224 228 L 224 212 L 224 208 L 224 180 L 240 180 L 244 180 Z M 12 172 L 16 172 L 32 172 L 32 176 L 16 176 L 12 176 Z M 12 164 L 16 164 L 32 164 L 32 168 L 16 168 L 12 168 Z M 36 212 L 220 212 L 220 228 L 36 228 Z M 36 152 L 36 148 L 220 148 L 220 152 L 220 156 L 220 160 L 220 164 L 220 168 L 220 172 L 220 176 L 220 180 L 220 208 L 36 208 L 36 180 L 36 176 L 36 172 L 36 168 L 36 164 L 36 160 L 36 156 Z M 12 156 L 16 156 L 32 156 L 32 160 L 16 160 L 12 160 Z M 64 128 L 28 128 L 28 104 L 64 104 Z M 100 124 L 76 124 L 76 100 L 100 100 Z M 112 80 L 128 80 L 128 88 L 112 88 Z M 92 80 L 108 80 L 108 88 L 92 88 Z M 72 80 L 88 80 L 88 88 L 72 88 Z M 60 80 L 68 80 L 68 88 L 60 88 Z M 48 80 L 56 80 L 56 88 L 48 88 Z M 36 80 L 44 80 L 44 88 L 36 88 Z M 24 80 L 32 80 L 32 88 L 24 88 Z M 20 92 L 24 92 L 32 92 L 36 92 L 44 92 L 48 92 L 56 92 L 60 92 L 68 92 L 72 92 L 88 92 L 92 92 L 108 92 L 112 92 L 128 92 L 132 92 L 132 88 L 132 80 L 132 76 L 128 76 L 112 76 L 108 76 L 92 76 L 88 76 L 72 76 L 68 76 L 60 76 L 56 76 L 48 76 L 44 76 L 36 76 L 32 76 L 24 76 L 20 76 L 20 12 L 236 12 L 236 128 L 232 128 L 191.649994 128 C 190.822998 125.673004 188.606003 124 186 124 C 183.393997 124 181.177002 125.673004 180.350006 128 L 168 128 L 168 124 L 164 124 L 136 124 L 132 124 L 132 128 L 128 128 L 124 128 L 112 128 L 108 128 L 104 128 L 104 124 L 104 100 L 104 96 L 100 96 L 76 96 L 72 96 L 72 100 L 72 124 L 72 128 L 68 128 L 68 104 L 68 100 L 64 100 L 28 100 L 24 100 L 24 104 L 24 128 C 22.617004 128 21.281006 128.195007 20 128.526001 Z M 240 130.165009 L 240 128 L 240 12 L 240 8 L 236 8 L 20 8 L 16 8 L 16 12 L 16 130.165009 C 11.225998 132.936996 8 138.093994 8 144 L 8 152 L 8 156 L 8 160 L 8 164 L 8 168 L 8 172 L 8 176 L 8 180 L 8 244 L 8 248 L 12 248 L 16 248 L 20 248 L 236 248 L 240 248 L 244 248 L 248 248 L 248 244 L 248 180 L 248 176 L 248 172 L 248 168 L 248 164 L 248 160 L 248 156 L 248 152 L 248 144 C 248 138.093994 244.774002 132.936996 240 130.165009"/>
</svg>
