<?xml version="1.0" encoding="UTF-8"?>
<!-- Generated by Pixelmator Pro 3.7.1 -->
<svg width="256" height="256" viewBox="0 0 256 256" xmlns="http://www.w3.org/2000/svg">
    <path id="Path" fill="#ffffff" stroke="none" d="M 192 180 L 188 180 L 72 180 L 68 180 L 68 184 L 68 244 L 68 248 L 72 248 L 188 248 L 192 248 L 192 244 L 192 184 Z M 188 244 L 72 244 L 72 184 L 188 184 Z"/>
    <path id="path1" fill="#ffffff" stroke="none" d="M 176 188 L 144 188 C 141.800003 188 140 189.800003 140 192 L 140 204 C 140 206.199997 141.800003 208 144 208 L 176 208 C 178.199997 208 180 206.199997 180 204 L 180 192 C 180 189.800003 178.199997 188 176 188 M 176 204 L 144 204 L 144 192 L 176 192 Z M 176 192"/>
    <path id="path2" fill="#ffffff" stroke="none" d="M 176 212 L 144 212 C 141.800003 212 140 213.800003 140 216 L 140 236 C 140 238.199997 141.800003 240 144 240 L 176 240 C 178.199997 240 180 238.199997 180 236 L 180 216 C 180 213.800003 178.199997 212 176 212 M 176 236 L 144 236 L 144 216 L 176 216 Z M 176 216"/>
    <path id="path3" fill="#ffffff" stroke="none" d="M 171.988297 52 L 91.555298 52 C 87.312294 52 83.803299 55.319 83.568298 59.556 L 80.012299 123.556 C 79.891296 125.742004 80.684296 127.906998 82.188293 129.498001 C 83.693298 131.087997 85.811295 132 88.000298 132 L 175.543304 132 C 177.7323 132 179.850296 131.087997 181.355301 129.498001 C 182.859299 127.906998 183.652298 125.742004 183.531296 123.556 L 179.975296 59.556 C 179.740295 55.319 176.231293 52 171.988297 52 M 171.988297 56 C 174.110306 56 175.864304 57.658997 175.981293 59.778 L 179.537292 123.778 C 179.665298 126.070999 177.840302 128 175.543304 128 L 88.000298 128 C 85.703293 128 83.879295 126.070999 84.006294 123.778 L 87.562294 59.778 C 87.679298 57.658997 89.432297 56 91.555298 56 L 171.988297 56"/>
    <path id="path4" fill="#ffffff" stroke="none" d="M 127.547401 188 L 80.4524 188 C 77.997398 188 76.000397 189.52301 76.000397 191.395996 L 76.000397 236.604004 C 76.000397 238.477005 77.997398 240 80.4524 240 L 127.547401 240 C 130.002396 240 132.000397 238.477005 132.000397 236.604004 L 132.000397 191.395996 C 132.000397 189.52301 130.002396 188 127.547401 188 M 127.547401 192 C 127.7314 192 127.882401 192.024994 128.000397 192.05899 L 128.000397 235.94101 C 127.882401 235.975006 127.7314 236 127.547401 236 L 80.4524 236 C 80.269402 236 80.117401 235.975006 80.000397 235.94101 L 80.000397 192.05899 C 80.117401 192.024994 80.269402 192 80.4524 192 L 127.547401 192"/>
    <path id="path5" fill="#ffffff" stroke="none" d="M 160 198 C 160 199.104004 159.104004 200 158 200 C 156.895996 200 156 199.104004 156 198 C 156 196.895996 156.895996 196 158 196 C 159.104004 196 160 196.895996 160 198"/>
    <path id="path6" fill="#ffffff" stroke="none" d="M 108 198 C 108 199.104004 107.103996 200 106 200 C 104.895996 200 104 199.104004 104 198 C 104 196.895996 104.895996 196 106 196 C 107.103996 196 108 196.895996 108 198"/>
    <path id="path7" fill="#ffffff" stroke="none" d="M 152 226 C 152 227.104004 151.104004 228 150 228 C 148.895996 228 148 227.104004 148 226 C 148 224.895996 148.895996 224 150 224 C 151.104004 224 152 224.895996 152 226"/>
    <path id="path8" fill="#ffffff" stroke="none" d="M 188 156 C 188 157.104004 186.656998 158 185 158 C 183.343002 158 182 157.104004 182 156 C 182 154.895996 183.343002 154 185 154 C 186.656998 154 188 154.895996 188 156"/>
    <path id="path9" fill="#ffffff" stroke="none" d="M 184 162 C 184 163.104004 182.656998 164 181 164 C 179.343002 164 178 163.104004 178 162 C 178 160.895996 179.343002 160 181 160 C 182.656998 160 184 160.895996 184 162"/>
    <path id="path10" fill="#ffffff" stroke="none" d="M 180 156 C 180 157.104004 178.656998 158 177 158 C 175.343002 158 174 157.104004 174 156 C 174 154.895996 175.343002 154 177 154 C 178.656998 154 180 154.895996 180 156"/>
    <path id="path11" fill="#ffffff" stroke="none" d="M 176 162 C 176 163.104004 174.656998 164 173 164 C 171.343002 164 170 163.104004 170 162 C 170 160.895996 171.343002 160 173 160 C 174.656998 160 176 160.895996 176 162"/>
    <path id="path12" fill="#ffffff" stroke="none" d="M 172 156 C 172 157.104004 170.656998 158 169 158 C 167.343002 158 166 157.104004 166 156 C 166 154.895996 167.343002 154 169 154 C 170.656998 154 172 154.895996 172 156"/>
    <path id="path13" fill="#ffffff" stroke="none" d="M 137 158 C 137 159.104004 135.656998 160 134 160 C 132.343002 160 131 159.104004 131 158 C 131 156.895996 132.343002 156 134 156 C 135.656998 156 137 156.895996 137 158"/>
    <path id="path14" fill="#ffffff" stroke="none" d="M 129 158 C 129 159.104004 127.656998 160 126 160 C 124.343002 160 123 159.104004 123 158 C 123 156.895996 124.343002 156 126 156 C 127.656998 156 129 156.895996 129 158"/>
    <path id="path15" fill="#ffffff" stroke="none" d="M 168 162 C 168 163.104004 166.656998 164 165 164 C 163.343002 164 162 163.104004 162 162 C 162 160.895996 163.343002 160 165 160 C 166.656998 160 168 160.895996 168 162"/>
    <path id="path16" fill="#ffffff" stroke="none" d="M 116 156 C 116 157.104004 114.656998 158 113 158 C 111.343002 158 110 157.104004 110 156 C 110 154.895996 111.343002 154 113 154 C 114.656998 154 116 154.895996 116 156"/>
    <path id="path17" fill="#ffffff" stroke="none" d="M 112 162 C 112 163.104004 110.656998 164 109 164 C 107.343002 164 106 163.104004 106 162 C 106 160.895996 107.343002 160 109 160 C 110.656998 160 112 160.895996 112 162"/>
    <path id="path18" fill="#ffffff" stroke="none" d="M 108 156 C 108 157.104004 106.656998 158 105 158 C 103.343002 158 102 157.104004 102 156 C 102 154.895996 103.343002 154 105 154 C 106.656998 154 108 154.895996 108 156"/>
    <path id="path19" fill="#ffffff" stroke="none" d="M 104 162 C 104 163.104004 102.656998 164 101 164 C 99.343002 164 98 163.104004 98 162 C 98 160.895996 99.343002 160 101 160 C 102.656998 160 104 160.895996 104 162"/>
    <path id="path20" fill="#ffffff" stroke="none" d="M 100 156 C 100 157.104004 98.656998 158 97 158 C 95.343002 158 94 157.104004 94 156 C 94 154.895996 95.343002 154 97 154 C 98.656998 154 100 154.895996 100 156"/>
    <path id="path21" fill="#ffffff" stroke="none" d="M 96 162 C 96 163.104004 94.656998 164 93 164 C 91.343002 164 90 163.104004 90 162 C 90 160.895996 91.343002 160 93 160 C 94.656998 160 96 160.895996 96 162"/>
    <path id="path22" fill="#ffffff" stroke="none" d="M 198 176 C 198 178.209 196.209 180 194 180 L 62 180 C 59.791 180 58 178.209 58 176 L 58 168 L 198 168 Z M 63.332993 152 L 66 152 L 72 152 C 72 152.804993 72.124001 153.593994 72.357002 154.345001 C 70.856003 155.56601 70 157.182999 70 159 C 70 161.018005 71.042 162.757996 72.800003 164 L 59.332993 164 Z M 77.857002 25.479004 C 77.952003 24.501007 78.224998 23.550003 78.664001 22.671005 L 80 21.001007 L 80 32 L 80 35.468994 L 83.434998 35.960007 L 111.434998 39.960007 L 111.716003 40 L 83.848999 40 C 80.745003 40 78.117996 42.393005 77.869003 45.447006 L 70.172997 139.681 L 70.167 139.764008 L 70.163002 139.846008 C 70.078003 141.968994 70.848999 143.988998 72.334 145.535004 C 72.808998 146.028992 73.350998 146.447998 73.931 146.802002 C 73.612 147.173996 73.330002 147.574005 73.083 148 L 66 148 Z M 84 16 L 84 12 L 112 12 L 112 12.266998 L 112 16 L 112 20 L 112 36 L 84 32 Z M 180.074997 44 C 181.149994 44 182.031998 44.815994 182.074005 45.848999 L 185.919998 142.002991 C 185.964005 143.093994 185.057007 144 183.921997 144 L 78.156998 144 C 75.887001 144 74.071999 142.186996 74.160004 140.005997 L 81.855003 45.772003 C 81.936996 44.772003 82.805 44 83.848999 44 Z M 116 20 L 148 20 L 148 36 L 116 36 Z M 116 12 L 148 12 L 148 16 L 116 16 Z M 152 20 L 152 16 L 152 12.266998 L 152 12 L 180 12 L 180 16 L 180 32 L 152 36 Z M 180.565002 35.960007 L 184 35.468994 L 184 32 L 184 20.966995 L 185.276001 22.552002 C 185.753998 23.507996 186.035004 24.548996 186.104004 25.615005 L 194 148 L 183.921997 148 C 185.561005 148 187.147003 147.326996 188.274994 146.153 C 189.382004 145.001007 189.979996 143.431 189.916992 141.843002 L 186.070007 45.688995 C 185.942993 42.498993 183.309998 40 180.074997 40 L 152.283997 40 L 152.565002 39.960007 Z M 148 152 C 148 149.791 149.791 148 152 148 C 154.209 148 156 149.791 156 152 C 156 153.47699 155.190002 154.751999 154 155.445007 L 154 156.175003 C 156.328995 156.587006 158 157.694 158 159 C 158 160.656998 155.313004 162 152 162 C 148.686996 162 146 160.656998 146 159 C 146 157.694 147.671005 156.587006 150 156.175003 L 150 155.445007 C 148.809998 154.751999 148 153.47699 148 152 M 87.642998 154.345001 C 87.875999 153.593994 88 152.804993 88 152 L 144 152 C 144 152.804993 144.123993 153.593994 144.356995 154.345001 C 142.856003 155.56601 142 157.182999 142 159 C 142 161.018005 143.041 162.757996 144.800003 164 L 87.199997 164 C 88.958 162.757996 90 161.018005 90 159 C 90 157.182999 89.143997 155.56601 87.642998 154.345001 M 76 152 C 76 149.791 77.791 148 80 148 C 82.209 148 84 149.791 84 152 C 84 153.47699 83.190002 154.751999 82 155.445007 L 82 156.175003 C 84.329002 156.587006 86 157.694 86 159 C 86 160.656998 83.313004 162 80 162 C 76.686996 162 74 160.656998 74 159 C 74 157.694 75.670998 156.587006 78 156.175003 L 78 155.445007 C 76.809998 154.751999 76 153.47699 76 152 M 197.332993 164 L 159.199997 164 C 160.959 162.757996 162 161.018005 162 159 C 162 157.182999 161.143997 155.56601 159.643005 154.345001 C 159.876007 153.593994 160 152.804993 160 152 L 194 152 L 195.332993 152 Z M 198.007996 148 L 197.992004 147.742004 L 190.095993 25.356995 C 189.992004 23.75 189.574005 22.203995 188.854004 20.764008 L 188.660995 20.378998 L 188.391998 20.044006 L 184 14.589996 L 184 12 L 184 8 L 180 8 L 152 8 L 150.265991 8 L 150 8 L 148 8 L 116 8 L 114 8 L 113.734001 8 L 112 8 L 84 8 L 80 8 L 80 12 L 80 14.597 L 75.541 20.173004 L 75.276001 20.503998 L 75.085999 20.882996 C 74.425003 22.205002 74.017998 23.621994 73.875 25.093002 L 61.981003 148 L 54 164 L 54 168 L 54 176 C 54 180.411011 57.589005 184 62 184 L 194 184 C 198.410995 184 202 180.411011 202 176 L 202 168 L 202 164 Z"/>
    <path id="path23" fill="#ffffff" stroke="none" d="M 130.117203 176 L 129.888199 176 L 130.007202 176.007004 Z"/>
</svg>
