<?xml version="1.0" encoding="UTF-8"?>
<!-- Generated by Pixelmator Pro 3.7.1 -->
<svg width="256" height="256" viewBox="0 0 256 256" xmlns="http://www.w3.org/2000/svg">
    <path id="Path" fill="#ffffff" stroke="none" d="M 110 128 L 78 128 C 74.691002 128 72 130.69101 72 134 L 72 158 C 72 161.30899 74.691002 164 78 164 L 110 164 C 113.308998 164 116 161.30899 116 158 L 116 134 C 116 130.69101 113.308998 128 110 128 M 110 132 C 111.099998 132 112 132.899994 112 134 L 112 158 C 112 159.100006 111.099998 160 110 160 L 78 160 C 76.900002 160 76 159.100006 76 158 L 76 134 C 76 132.899994 76.900002 132 78 132 L 110 132"/>
    <path id="path1" fill="#ffffff" stroke="none" d="M 180 224 C 175.589005 224 172 227.589005 172 232 C 172 236.410995 175.589005 240 180 240 C 184.410995 240 188 236.410995 188 232 C 188 227.589005 184.410995 224 180 224 M 180 228 C 182.209 228 184 229.791 184 232 C 184 234.209 182.209 236 180 236 C 177.791 236 176 234.209 176 232 C 176 229.791 177.791 228 180 228"/>
    <path id="path2" fill="#ffffff" stroke="none" d="M 72 224 C 67.588997 224 64 227.589005 64 232 C 64 236.410995 67.588997 240 72 240 C 76.411003 240 80 236.410995 80 232 C 80 227.589005 76.411003 224 72 224 M 72 228 C 74.209 228 76 229.791 76 232 C 76 234.209 74.209 236 72 236 C 69.791 236 68 234.209 68 232 C 68 229.791 69.791 228 72 228"/>
    <path id="path3" fill="#ffffff" stroke="none" d="M 190 128 L 134 128 C 130.69101 128 128 130.69101 128 134 L 128 222 C 128 225.30899 130.69101 228 134 228 L 190 228 C 193.309006 228 196 225.30899 196 222 L 196 134 C 196 130.69101 193.309006 128 190 128 M 190 132 C 191.104004 132 192 132.895996 192 134 L 192 222 C 192 223.104004 191.104004 224 190 224 L 134 224 C 132.895996 224 132 223.104004 132 222 L 132 134 C 132 132.895996 132.895996 132 134 132 L 190 132"/>
    <path id="path4" fill="#ffffff" stroke="none" d="M 128 48 C 123.582001 48 120 44.417999 120 40 C 120 35.582001 123.582001 32 128 32 C 132.417999 32 136 35.582001 136 40 C 136 44.417999 132.417999 48 128 48 M 140 40 C 140 33.382996 134.617004 28 128 28 C 121.383003 28 116 33.382996 116 40 C 116 46.617004 121.383003 52 128 52 C 134.617004 52 140 46.617004 140 40"/>
    <path id="path5" fill="#ffffff" stroke="none" d="M 180 28 C 177.791 28 176 26.209 176 24 C 176 21.791 177.791 20 180 20 C 182.209 20 184 21.791 184 24 C 184 26.209 182.209 28 180 28 M 180 16 C 175.589005 16 172 19.589005 172 24 C 172 28.410995 175.589005 32 180 32 C 184.410995 32 188 28.410995 188 24 C 188 19.589005 184.410995 16 180 16"/>
    <path id="path6" fill="#ffffff" stroke="none" d="M 204 236 C 204 240.399994 200.399994 244 196 244 L 132 244 C 131.667999 244 131.34201 243.972992 131.019989 243.932999 C 130.928009 243.921997 130.837997 243.904999 130.747009 243.891006 C 130.503998 243.852997 130.264008 243.802994 130.028 243.742004 C 129.946991 243.722 129.867004 243.703003 129.787003 243.679993 C 129.162994 243.498001 128.570007 243.242996 128.018005 242.923004 C 127.972 242.895996 127.927002 242.867004 127.880997 242.839996 C 127.632004 242.688004 127.391998 242.526001 127.163002 242.350006 C 127.136002 242.330002 127.109001 242.311005 127.083 242.289993 C 126.556999 241.876007 126.083 241.397995 125.672997 240.867996 C 125.666 240.858002 125.657997 240.847992 125.650002 240.837997 C 125.446999 240.570999 125.258003 240.291992 125.087997 240 C 124.401001 238.820999 124 237.455994 124 236 L 124 132 C 124 127.600006 127.599998 124 132 124 L 188 124 L 192 124 L 196 124 C 197.455994 124 198.820999 124.401001 200 125.087997 C 200.292007 125.257996 200.570999 125.446991 200.837997 125.649994 C 200.848007 125.65799 200.858002 125.666 200.867996 125.673004 C 201.397995 126.082001 201.876007 126.557007 202.289993 127.083008 C 202.311005 127.109009 202.330002 127.136002 202.350006 127.162994 C 202.526001 127.391998 202.688004 127.632004 202.839996 127.880997 C 202.867004 127.927002 202.895996 127.972 202.923004 128.018005 C 203.242996 128.570007 203.498001 129.162994 203.679993 129.787003 C 203.703003 129.867004 203.722 129.946991 203.742004 130.028 C 203.802994 130.264008 203.852997 130.503998 203.891006 130.747009 C 203.904999 130.837997 203.921997 130.928009 203.932999 131.019989 C 203.973007 131.34201 204 131.667999 204 132 Z M 120 132 L 120 236 C 120 237.403992 120.254997 238.746994 120.699997 240 L 64 240 L 64 52 C 70.617004 52 76 46.617004 76 40 C 76 36.901001 74.809006 34.082001 72.873993 31.949997 C 76.875 31.513 80 28.115997 80 24 C 80 19.589005 76.411003 16 72 16 C 67.589005 16 64 19.589005 64 24 C 64 25.481003 64.412003 26.865005 65.117004 28.057007 C 64.748993 28.022003 64.376999 28 64 28 L 64 24 L 64 12 L 188 12 L 188 24 L 188 36 L 144 36 L 144 40 L 188 40 L 188 44 L 144 44 L 144 48 L 188 48 L 188 52 L 144 52 L 144 56 L 188 56 L 188 60 L 144 60 L 144 64 L 188 64 L 188 68 L 144 68 L 144 72 L 188 72 L 188 76 L 144 76 L 144 80 L 188 80 L 188 84 L 144 84 L 144 88 L 188 88 L 188 92 L 144 92 L 144 96 L 188 96 L 188 120 L 132 120 C 125.383003 120 120 125.382996 120 132 M 68 24 C 68 21.791 69.791 20 72 20 C 74.209 20 76 21.791 76 24 C 76 26.209 74.209 28 72 28 C 69.791 28 68 26.209 68 24 M 60 46.921005 L 60 46.921005 C 59.709 46.751999 59.431 46.565002 59.164001 46.362 C 59.151993 46.354004 59.139999 46.345001 59.128006 46.335007 C 58.598007 45.927002 58.119995 45.455994 57.707001 44.929001 C 57.686996 44.903 57.667999 44.876007 57.647995 44.850006 C 57.473007 44.619995 57.309998 44.380997 57.160004 44.132996 C 57.130997 44.085999 57.102005 44.039993 57.074005 43.992004 C 56.755005 43.438995 56.5 42.847 56.319 42.220993 C 56.296005 42.141998 56.278 42.061005 56.257004 41.979996 C 56.197006 41.742996 56.147003 41.503006 56.108002 41.259003 C 56.093994 41.167007 56.078003 41.076996 56.067001 40.983994 C 56.026993 40.660995 56 40.334 56 40 C 56 39.666 56.026993 39.339005 56.067001 39.016006 C 56.078003 38.923004 56.093994 38.832993 56.108002 38.740997 C 56.147003 38.496994 56.197006 38.257004 56.257004 38.020004 C 56.278 37.938995 56.296005 37.858002 56.319 37.779007 C 56.5 37.153 56.755005 36.561005 57.074005 36.007996 C 57.102005 35.960007 57.130997 35.914001 57.160004 35.867004 C 57.309998 35.619003 57.473007 35.380005 57.647995 35.149994 C 57.667999 35.123993 57.686996 35.097 57.707001 35.070999 C 58.119995 34.544006 58.598007 34.072998 59.128006 33.664993 C 59.139999 33.654999 59.151993 33.645996 59.164001 33.638 C 59.431 33.434998 59.709 33.248001 60 33.078995 C 61.177994 32.397003 62.541 32 64 32 C 68.417999 32 72 35.582001 72 40 C 72 44.417999 68.417999 48 64 48 C 62.541 48 61.177994 47.602997 60 46.921005 M 60 239.302994 C 55.341995 237.653 52 233.222992 52 228 L 52 40 L 52 24 C 52 18.776993 55.341995 14.347 60 12.697006 L 60 28.699997 C 55.347 30.352997 52 34.787003 52 40 C 52 45.212997 55.347 49.647003 60 51.300003 Z M 192 12.697006 C 196.656998 14.347 200 18.776993 200 24 L 200 120.699997 C 198.746994 120.255005 197.404007 120 196 120 L 192 120 L 192 96 L 192 92 L 192 88 L 192 84 L 192 80 L 192 76 L 192 72 L 192 68 L 192 64 L 192 60 L 192 56 L 192 52 L 192 48 L 192 44 L 192 40 L 192 36 Z M 204 123.080994 L 204 24 C 204 16.561005 198.889999 10.309998 192 8.526001 L 188 8 L 64 8 L 60 8.526001 C 53.110001 10.309998 48 16.561005 48 24 L 48 228 C 48 235.438995 53.110001 241.690002 60 243.473999 L 64 244 L 123.081001 244 C 125.279999 246.447998 128.458008 248 132 248 L 196 248 C 202.617004 248 208 242.617004 208 236 L 208 132 C 208 128.458008 206.447998 125.279999 204 123.080994"/>
</svg>
