<?xml version="1.0" encoding="UTF-8"?>
<!-- Generated by Pixelmator Pro 3.7.1 -->
<svg width="256" height="256" viewBox="0 0 256 256" xmlns="http://www.w3.org/2000/svg">
    <path id="Path" fill="#ffffff" stroke="none" d="M 240 152 L 224 152 L 224 148 L 224 144 L 220 144 L 36 144 L 32 144 L 32 148 L 32 152 L 16 152 L 12 152 L 12 150.588989 L 16.425003 137.449005 C 17.522995 134.188995 20.567001 132 24 132 L 78 132 L 82 132 L 114.216003 132 L 118.216003 132 L 174 132 L 178 132 L 232 132 C 235.432999 132 238.477005 134.188995 239.574005 137.447998 L 244 150.585999 L 244 152 Z M 244 160 L 240 160 L 224 160 L 224 156 L 240 156 L 244 156 Z M 244 168 L 240 168 L 224 168 L 224 164 L 240 164 L 244 164 Z M 244 176 L 240 176 L 224 176 L 224 172 L 240 172 L 244 172 Z M 244 244 L 12 244 L 12 180 L 16 180 L 32 180 L 32 212 L 32 216 L 32 228 L 32 232 L 36 232 L 220 232 L 224 232 L 224 228 L 224 216 L 224 212 L 224 180 L 240 180 L 244 180 Z M 32 160 L 16 160 L 12 160 L 12 156 L 16 156 L 32 156 Z M 12 168 L 12 164 L 16 164 L 32 164 L 32 168 L 16 168 Z M 16 172 L 32 172 L 32 176 L 16 176 L 12 176 L 12 172 Z M 36 216 L 220 216 L 220 228 L 36 228 Z M 220 212 L 36 212 L 36 148 L 220 148 Z M 128.001999 114.214996 C 120.406998 114.214996 114.216003 120.395996 114.216003 128 L 82 128 C 82 102.651001 102.639008 82 128.002991 82 C 153.341003 82 174 102.651001 174 128 L 141.778992 128 C 141.778992 120.395996 135.602997 114.214996 128.001999 114.214996 M 137.778992 128 L 118.216003 128 C 118.216003 122.604004 122.606003 118.214996 128.001999 118.214996 C 133.393997 118.214996 137.778992 122.604004 137.778992 128 M 12 124 C 12 59.93399 63.929001 8 128 8 C 192.050995 8 244 59.93399 244 124 C 244 127.050995 243.878998 130.072998 243.645996 133.063004 C 240.968002 130.212006 237.264008 128.347 233.123993 128.057007 C 232.753006 128.022003 232.380005 128 232 128 L 178 128 C 178 100.429993 155.570999 78 128.002991 78 C 100.432007 78 78 100.429993 78 128 L 24 128 C 23.621002 128 23.246994 128.022003 22.876007 128.057007 C 18.735992 128.347 15.031998 130.212006 12.352997 133.063995 C 12.121002 130.072998 12 127.050995 12 124 M 247.343994 136.587006 C 247.779007 132.412003 248 128.177002 248 124 C 248 91.947998 235.516006 61.813004 212.847992 39.145996 C 190.181 16.481995 160.048004 4 128 4 C 95.945007 4 65.809006 16.481995 43.145004 39.147003 C 20.481003 61.811005 8 91.945999 8 124 C 8 128.178009 8.220993 132.412003 8.656006 136.587006 L 8.886002 138.794998 C 8.322006 140.429993 8 142.175995 8 144 L 8 152 L 8 156 L 8 160 L 8 164 L 8 168 L 8 172 L 8 176 L 8 180 L 8 244 L 8 248 L 12 248 L 244 248 L 248 248 L 248 244 L 248 180 L 248 176 L 248 172 L 248 168 L 248 164 L 248 160 L 248 156 L 248 152 L 248 144 C 248 142.175995 247.677994 140.429001 247.113007 138.794998 Z"/>
</svg>
