<?xml version="1.0" encoding="UTF-8"?>
<!-- Generated by Pixelmator Pro 3.7.1 -->
<svg width="256" height="256" viewBox="0 0 256 256" xmlns="http://www.w3.org/2000/svg">
    <path id="Path" fill="#ffffff" stroke="none" d="M 126 192 L 130 192 L 130 188 L 126 188 Z"/>
    <path id="path1" fill="#ffffff" stroke="none" d="M 128 220 C 129.104004 220 130 219.104004 130 218 C 130 216.895996 129.104004 216 128 216 C 126.896004 216 126 216.895996 126 218 C 126 219.104004 126.896004 220 128 220"/>
    <path id="path2" fill="#ffffff" stroke="none" d="M 164 188 L 160 188 L 160 192 L 164 192 Z"/>
    <path id="path3" fill="#ffffff" stroke="none" d="M 92 192 L 96 192 L 96 188 L 92 188 Z"/>
    <path id="path4" fill="#ffffff" stroke="none" d="M 56 168 L 200 168 L 200 164 L 56 164 Z"/>
    <path id="path5" fill="#ffffff" stroke="none" d="M 78.286102 120 L 85.286102 64 L 173.822098 64 L 178.481094 120 Z M 177.808105 63.667999 C 177.636093 61.595001 175.903091 60 173.822098 60 L 85.286102 60 C 83.268097 60 81.567101 61.501999 81.317101 63.503998 L 74.317101 119.503998 C 74.018097 121.891006 75.880096 124 78.286102 124 L 178.481094 124 C 180.821106 124 182.662094 122 182.468094 119.667999 Z"/>
    <path id="path6" fill="#ffffff" stroke="none" d="M 166.5 146.5 C 164.843002 146.5 163.5 146.053009 163.5 145.5 C 163.5 144.946991 164.843002 144.5 166.5 144.5 C 168.156998 144.5 169.5 144.946991 169.5 145.5 C 169.5 146.053009 168.156998 146.5 166.5 146.5 M 173.5 149.5 C 173.5 150.053009 172.156998 150.5 170.5 150.5 C 168.843002 150.5 167.5 150.053009 167.5 149.5 C 167.5 148.946991 168.843002 148.5 170.5 148.5 C 172.156998 148.5 173.5 148.946991 173.5 149.5 M 174.5 146.5 C 172.843002 146.5 171.5 146.053009 171.5 145.5 C 171.5 144.946991 172.843002 144.5 174.5 144.5 C 176.156998 144.5 177.5 144.946991 177.5 145.5 C 177.5 146.053009 176.156998 146.5 174.5 146.5 M 179.5 145.5 C 179.5 144.946991 180.843002 144.5 182.5 144.5 C 184.156998 144.5 185.5 144.946991 185.5 145.5 C 185.5 146.053009 184.156998 146.5 182.5 146.5 C 180.843002 146.5 179.5 146.053009 179.5 145.5 M 181.5 149.5 C 181.5 150.053009 180.156998 150.5 178.5 150.5 C 176.843002 150.5 175.5 150.053009 175.5 149.5 C 175.5 148.946991 176.843002 148.5 178.5 148.5 C 180.156998 148.5 181.5 148.946991 181.5 149.5 M 162.5 148.5 C 164.156998 148.5 165.5 148.946991 165.5 149.5 C 165.5 150.053009 164.156998 150.5 162.5 150.5 C 161.035004 150.5 159.819 150.149002 159.557007 149.686996 C 159.639008 149.494003 159.705002 149.294998 159.764999 149.093002 C 160.231995 148.744003 161.278 148.5 162.5 148.5 M 92.5 146.5 C 90.843002 146.5 89.5 146.053009 89.5 145.5 C 89.5 144.946991 90.843002 144.5 92.5 144.5 C 94.156998 144.5 95.5 144.946991 95.5 145.5 C 95.5 146.053009 94.156998 146.5 92.5 146.5 M 99.5 149.5 C 99.5 150.053009 98.156998 150.5 96.5 150.5 C 94.843002 150.5 93.5 150.053009 93.5 149.5 C 93.5 148.946991 94.843002 148.5 96.5 148.5 C 98.156998 148.5 99.5 148.946991 99.5 149.5 M 100.5 146.5 C 98.843002 146.5 97.5 146.053009 97.5 145.5 C 97.5 144.946991 98.843002 144.5 100.5 144.5 C 102.156998 144.5 103.5 144.946991 103.5 145.5 C 103.5 146.053009 102.156998 146.5 100.5 146.5 M 105.5 145.5 C 105.5 144.946991 106.843002 144.5 108.5 144.5 C 110.156998 144.5 111.5 144.946991 111.5 145.5 C 111.5 146.053009 110.156998 146.5 108.5 146.5 C 106.843002 146.5 105.5 146.053009 105.5 145.5 M 107.5 149.5 C 107.5 150.053009 106.156998 150.5 104.5 150.5 C 102.843002 150.5 101.5 150.053009 101.5 149.5 C 101.5 148.946991 102.843002 148.5 104.5 148.5 C 106.156998 148.5 107.5 148.946991 107.5 149.5 M 88.5 148.5 C 90.156998 148.5 91.5 148.946991 91.5 149.5 C 91.5 150.053009 90.156998 150.5 88.5 150.5 C 87.035004 150.5 85.82 150.149002 85.556999 149.686996 C 85.639 149.494003 85.705002 149.294998 85.764999 149.093002 C 86.232002 148.744003 87.278999 148.5 88.5 148.5 M 208 168 C 208 170.209 206.209 172 204 172 L 188 172 L 184 172 L 72 172 L 68 172 L 52 172 C 49.791 172 48 170.209 48 168 L 48 152 L 55.295998 138.136993 C 55.987999 136.822998 57.350998 136 58.835999 136 L 69.390999 136 C 68.514 137.28299 68 138.832001 68 140.5 C 68 141.304993 68.124001 142.093994 68.357002 142.845001 C 66.856003 144.06601 66 145.682999 66 147.5 C 66 151.556 70.206001 154.5 76 154.5 C 79.921997 154.5 83.110001 153.14801 84.764999 151.019989 C 85.524002 151.643005 86.814003 152 88.5 152 C 90.411003 152 91.805 151.537994 92.5 150.751999 C 93.195 151.537994 94.588997 152 96.5 152 C 98.411003 152 99.805 151.537994 100.5 150.751999 C 101.195 151.537994 102.589005 152 104.5 152 C 107.276001 152 109 151.041992 109 149.5 C 109 148.89801 108.731003 148.390991 108.247002 147.988007 C 108.333 147.98999 108.410995 148 108.5 148 C 111.276001 148 113 147.041992 113 145.5 C 113 143.958008 111.276001 143 108.5 143 C 106.589005 143 105.195 143.462006 104.5 144.248001 C 103.805 143.462006 102.411003 143 100.5 143 C 98.588997 143 97.195 143.462006 96.5 144.248001 C 95.805 143.462006 94.411003 143 92.5 143 C 89.723999 143 88 143.958008 88 145.5 C 88 146.10199 88.268997 146.609009 88.752998 147.011993 C 88.667 147.01001 88.588997 147 88.5 147 C 87.519997 147 86.679001 147.125 85.990997 147.347992 C 85.944 145.593994 85.100998 144.031006 83.642998 142.845001 C 83.875999 142.093994 84 141.304993 84 140.5 C 84 138.832001 83.486 137.28299 82.609001 136 L 143.391006 136 C 142.514999 137.28299 142 138.832001 142 140.5 C 142 141.304993 142.123993 142.093994 142.356995 142.845001 C 140.856003 144.06601 140 145.682999 140 147.5 C 140 151.556 144.205994 154.5 150 154.5 C 153.921997 154.5 157.110001 153.14801 158.764999 151.019989 C 159.524002 151.643005 160.813995 152 162.5 152 C 164.410004 152 165.804993 151.537994 166.5 150.751999 C 167.195007 151.537994 168.589996 152 170.5 152 C 172.410004 152 173.804993 151.537994 174.5 150.751999 C 175.195007 151.537994 176.589996 152 178.5 152 C 181.274994 152 183 151.041992 183 149.5 C 183 148.89801 182.729996 148.390991 182.246994 147.988007 C 182.333008 147.98999 182.410995 148 182.5 148 C 185.274994 148 187 147.041992 187 145.5 C 187 143.958008 185.274994 143 182.5 143 C 180.589996 143 179.195007 143.462006 178.5 144.248001 C 177.804993 143.462006 176.410004 143 174.5 143 C 172.589996 143 171.195007 143.462006 170.5 144.248001 C 169.804993 143.462006 168.410004 143 166.5 143 C 163.725006 143 162 143.958008 162 145.5 C 162 146.10199 162.270004 146.609009 162.753006 147.011993 C 162.667007 147.01001 162.589005 147 162.5 147 C 161.520004 147 160.679993 147.125 159.990997 147.347992 C 159.944 145.593994 159.102005 144.031006 157.643005 142.845001 C 157.876007 142.093994 158 141.304993 158 140.5 C 158 138.832001 157.485001 137.28299 156.608994 136 L 197.164001 136 C 198.649002 136 200.011993 136.822998 200.703995 138.136993 L 208 152 Z M 160 232 L 96 232 L 96 212 L 160 212 Z M 92 208 L 92 232 L 72 232 L 72 176 L 184 176 L 184 232 L 164 232 L 164 208 Z M 192 244 L 188 244 L 68 244 L 64 244 L 68 240 L 72 236 L 184 236 L 188 240 Z M 72 140.5 C 72 138.291 73.791 136.5 76 136.5 C 78.209 136.5 80 138.291 80 140.5 C 80 141.97699 79.190002 143.251999 78 143.945007 L 78 144.675003 C 80.329002 145.087006 82 146.194 82 147.5 C 82 149.156998 79.313004 150.5 76 150.5 C 72.686996 150.5 70 149.156998 70 147.5 C 70 146.194 71.670998 145.087006 74 144.675003 L 74 143.945007 C 72.809998 143.251999 72 141.97699 72 140.5 M 146 140.5 C 146 138.291 147.791 136.5 150 136.5 C 152.209 136.5 154 138.291 154 140.5 C 154 141.97699 153.190002 143.251999 152 143.945007 L 152 144.675003 C 154.328995 145.087006 156 146.194 156 147.5 C 156 149.156998 153.313004 150.5 150 150.5 C 146.686996 150.5 144 149.156998 144 147.5 C 144 146.194 145.671005 145.087006 148 144.675003 L 148 143.945007 C 146.809998 143.251999 146 141.97699 146 140.5 M 77.037003 44 L 80 44 L 112 44 L 116 44 L 144 44 L 148 44 L 180 44 L 182.369995 44 L 195.406998 132 L 60.740997 132 Z M 80 28 L 80 20 C 80 15.582001 83.582001 12 88 12 L 112 12 L 112 40 L 80 40 Z M 116 12 L 144 12 L 144 40 L 116 40 Z M 148 12 L 172 12 C 176.417999 12 180 15.582001 180 20 L 180 28 L 180 40 L 148 40 Z M 211.540009 150.136993 L 204.242996 136.274002 C 202.854996 133.638 199.451004 132 199.451004 132 L 184 27.705002 L 184 20 L 184 12 C 184 9.791 182.209 8 180 8 L 172 8 L 148 8 L 144 8 L 116 8 L 112 8 L 88 8 L 80 8 C 77.791 8 76 9.791 76 12 L 76 20 L 76 27.632996 L 56.672997 132 C 56.672997 132 53.143997 133.638 51.757004 136.274002 L 44.459999 150.136993 L 44 151.011993 L 44 152 L 44 168 C 44 172.417999 47.582001 176 52 176 L 68 176 L 68 234.343002 L 61.170998 241.171997 L 54.343002 248 L 64 248 L 192 248 L 201.656998 248 L 194.828003 241.171997 L 188 234.343002 L 188 176 L 204 176 C 208.417999 176 212 172.417999 212 168 L 212 152 L 212 151.011993 Z"/>
</svg>
