<?xml version="1.0" encoding="UTF-8"?>
<!-- Generated by Pixelmator Pro 3.7.1 -->
<svg width="256" height="256" viewBox="0 0 256 256" xmlns="http://www.w3.org/2000/svg">
    <path id="Path" fill="#ffffff" stroke="none" d="M 26 240 C 27.104 240 28 239.104004 28 238 C 28 236.895996 27.104 236 26 236 C 24.896 236 24 236.895996 24 238 C 24 239.104004 24.896 240 26 240"/>
    <path id="path1" fill="#ffffff" stroke="none" d="M 112 80 L 128 80 L 128 88 L 112 88 Z M 92 80 L 108 80 L 108 88 L 92 88 Z M 72 80 L 88 80 L 88 88 L 72 88 Z M 60 80 L 68 80 L 68 88 L 60 88 Z M 48 80 L 56 80 L 56 88 L 48 88 Z M 36 80 L 44 80 L 44 88 L 36 88 Z M 24 80 L 32 80 L 32 88 L 24 88 Z M 236 128 L 232 128 L 232 144 L 236 144 L 236 156 L 232 156 L 232 172 L 236 172 L 236 244 L 66 244 L 20 244 L 20 92 L 24 92 L 32 92 L 36 92 L 44 92 L 48 92 L 56 92 L 60 92 L 68 92 L 72 92 L 88 92 L 92 92 L 108 92 L 112 92 L 128 92 L 132 92 L 132 88 L 132 80 L 132 76 L 128 76 L 112 76 L 108 76 L 92 76 L 88 76 L 72 76 L 68 76 L 60 76 L 56 76 L 48 76 L 44 76 L 36 76 L 32 76 L 24 76 L 20 76 L 20 12 L 236 12 Z M 236 8 L 20 8 L 16 8 L 16 12 L 16 244 L 16 248 L 20 248 L 236 248 L 240 248 L 240 244 L 240 172 L 240 168 L 236 168 L 236 160 L 240 160 L 240 156 L 240 144 L 240 140 L 236 140 L 236 132 L 240 132 L 240 128 L 240 12 L 240 8 Z"/>
    <path id="path2" fill="#ffffff" stroke="none" d="M 26 20 C 27.104 20 28 19.104004 28 18 C 28 16.895996 27.104 16 26 16 C 24.896 16 24 16.895996 24 18 C 24 19.104004 24.896 20 26 20"/>
    <path id="path3" fill="#ffffff" stroke="none" d="M 230 20 C 231.104004 20 232 19.104004 232 18 C 232 16.895996 231.104004 16 230 16 C 228.895996 16 228 16.895996 228 18 C 228 19.104004 228.895996 20 230 20"/>
    <path id="path4" fill="#ffffff" stroke="none" d="M 230 236 C 228.895996 236 228 236.895996 228 238 C 228 239.104004 228.895996 240 230 240 C 231.104004 240 232 239.104004 232 238 C 232 236.895996 231.104004 236 230 236"/>
    <path id="path5" fill="#ffffff" stroke="none" d="M 110 240 L 112 240 L 112 236 L 110 236 Z"/>
    <path id="path6" fill="#ffffff" stroke="none" d="M 114 240 L 116 240 L 116 236 L 114 236 Z"/>
    <path id="path7" fill="#ffffff" stroke="none" d="M 102 240 L 104 240 L 104 236 L 102 236 Z"/>
    <path id="path8" fill="#ffffff" stroke="none" d="M 106 240 L 108 240 L 108 236 L 106 236 Z"/>
    <path id="path9" fill="#ffffff" stroke="none" d="M 98 240 L 100 240 L 100 236 L 98 236 Z"/>
    <path id="path10" fill="#ffffff" stroke="none" d="M 90 240 L 92 240 L 92 236 L 90 236 Z"/>
    <path id="path11" fill="#ffffff" stroke="none" d="M 94 240 L 96 240 L 96 236 L 94 236 Z"/>
    <path id="path12" fill="#ffffff" stroke="none" d="M 118 240 L 120 240 L 120 236 L 118 236 Z"/>
    <path id="path13" fill="#ffffff" stroke="none" d="M 122 240 L 124 240 L 124 236 L 122 236 Z"/>
    <path id="path14" fill="#ffffff" stroke="none" d="M 126 240 L 128 240 L 128 236 L 126 236 Z"/>
    <path id="path15" fill="#ffffff" stroke="none" d="M 214 116 L 214 112 L 216 112 L 216 116 L 218 116 L 218 112 L 220 112 L 220 116 L 222 116 L 222 112 L 224 112 L 224 108 L 222 108 L 222 104 L 220 104 L 220 108 L 218 108 L 218 104 L 216 104 L 216 108 L 214 108 L 214 104 L 212 104 L 212 108 L 210 108 L 210 104 L 208 104 L 208 108 L 206 108 L 206 104 L 204 104 L 204 108 L 202 108 L 202 104 L 200 104 L 200 108 L 198 108 L 198 104 L 196 104 L 196 108 L 194 108 L 194 104 L 192 104 L 192 108 L 190 108 L 190 104 L 188 104 L 188 108 L 186 108 L 186 104 L 184 104 L 184 108 L 182 108 L 182 104 L 180 104 L 180 108 L 178 108 L 178 104 L 176 104 L 176 108 L 174 108 L 174 104 L 172 104 L 172 108 L 170 108 L 170 104 L 168 104 L 168 108 L 166 108 L 166 104 L 164 104 L 164 108 L 162 108 L 162 104 L 160 104 L 160 108 L 158 108 L 158 104 L 156 104 L 156 108 L 154 108 L 154 104 L 152 104 L 152 108 L 152 112 L 152 116 L 154 116 L 154 112 L 156 112 L 156 116 L 158 116 L 158 112 L 160 112 L 160 116 L 162 116 L 162 112 L 164 112 L 164 116 L 166 116 L 166 112 L 168 112 L 168 116 L 170 116 L 170 112 L 172 112 L 172 116 L 174 116 L 174 112 L 176 112 L 176 116 L 178 116 L 178 112 L 180 112 L 180 116 L 182 116 L 182 112 L 184 112 L 184 116 L 186 116 L 186 112 L 188 112 L 188 116 L 190 116 L 190 112 L 192 112 L 192 116 L 194 116 L 194 112 L 196 112 L 196 116 L 198 116 L 198 112 L 200 112 L 200 116 L 202 116 L 202 112 L 204 112 L 204 116 L 206 116 L 206 112 L 208 112 L 208 116 L 210 116 L 210 112 L 212 112 L 212 116 Z"/>
    <path id="path16" fill="#ffffff" stroke="none" d="M 32 36 L 120 36 L 120 40 L 32 40 Z M 28 36 L 28 40 L 28 44 L 32 44 L 120 44 L 124 44 L 124 40 L 124 36 L 124 32 L 120 32 L 32 32 L 28 32 Z"/>
    <path id="path17" fill="#ffffff" stroke="none" d="M 120 54 L 32 54 L 32 50 L 120 50 Z M 32 46 L 28 46 L 28 50 L 28 54 L 28 58 L 32 58 L 120 58 L 124 58 L 124 54 L 124 50 L 124 46 L 120 46 Z"/>
    <path id="path18" fill="#ffffff" stroke="none" d="M 140 36 L 200 36 L 204 36 L 220 36 L 224 36 L 228 36 L 228 40 L 140 40 Z M 204 19.333008 L 220 19.333008 L 220 32 L 204 32 Z M 228 44 L 232 44 L 232 40 L 232 36 L 232 32 L 228 32 L 224 32 L 224 19.333008 L 224 16 L 220 16 L 204 16 L 200 16 L 200 19.333008 L 200 32 L 140 32 L 136 32 L 136 36 L 136 40 L 136 44 L 140 44 Z"/>
    <path id="path19" fill="#ffffff" stroke="none" d="M 140 50 L 228 50 L 228 54 L 140 54 Z M 228 58 L 232 58 L 232 54 L 232 50 L 232 46 L 228 46 L 140 46 L 136 46 L 136 50 L 136 54 L 136 58 L 140 58 Z"/>
    <path id="path20" fill="#ffffff" stroke="none" d="M 120 68 L 32 68 L 32 64 L 120 64 Z M 32 60 L 28 60 L 28 64 L 28 68 L 28 72 L 32 72 L 120 72 L 124 72 L 124 68 L 124 64 L 124 60 L 120 60 Z"/>
    <path id="path21" fill="#ffffff" stroke="none" d="M 140 64 L 168 64 L 168 92 L 140 92 Z M 168 96 L 172 96 L 172 92 L 172 64 L 172 60 L 168 60 L 140 60 L 136 60 L 136 64 L 136 92 L 136 96 L 140 96 Z"/>
    <path id="path22" fill="#ffffff" stroke="none" d="M 180 64 L 208 64 L 208 92 L 180 92 Z M 208 96 L 212 96 L 212 92 L 212 64 L 212 60 L 208 60 L 180 60 L 176 60 L 176 64 L 176 92 L 176 96 L 180 96 Z"/>
    <path id="path23" fill="#ffffff" stroke="none" d="M 28 104 L 64 104 L 64 140 L 28 140 Z M 64 144 L 68 144 L 68 140 L 68 104 L 68 100 L 64 100 L 28 100 L 24 100 L 24 104 L 24 140 L 24 144 L 28 144 Z"/>
    <path id="path24" fill="#ffffff" stroke="none" d="M 76 100 L 100 100 L 100 124 L 76 124 Z M 100 128 L 104 128 L 104 124 L 104 100 L 104 96 L 100 96 L 76 96 L 72 96 L 72 100 L 72 124 L 72 128 L 76 128 Z"/>
    <path id="path25" fill="#ffffff" stroke="none" d="M 112 100 L 124 100 L 124 120 L 112 120 Z M 124 124 L 128 124 L 128 120 L 128 100 L 128 96 L 124 96 L 112 96 L 108 96 L 108 100 L 108 120 L 108 124 L 112 124 Z"/>
    <path id="path26" fill="#ffffff" stroke="none" d="M 136 128 L 164 128 L 164 156 L 136 156 Z M 132 128 L 132 156 L 132 160 L 136 160 L 164 160 L 168 160 L 168 156 L 168 128 L 168 124 L 164 124 L 136 124 L 132 124 Z"/>
    <path id="path27" fill="#ffffff" stroke="none" d="M 132 184 L 124 184 L 124 180 L 132 180 Z M 120 184 L 112 184 L 112 180 L 120 180 Z M 108 184 L 100 184 L 100 180 L 108 180 Z M 96 184 L 88 184 L 88 180 L 96 180 Z M 76 176 L 76 152 L 84 152 L 84 164 L 84 168 L 84 176 Z M 96 176 L 88 176 L 88 168 L 96 168 Z M 100 168 L 104 168 L 108 168 L 108 176 L 100 176 Z M 104 144 L 108 144 L 112 144 L 112 164 L 108 164 L 104 164 Z M 112 132 L 124 132 L 124 140 L 116 140 L 112 140 Z M 124 164 L 120 164 L 116 164 L 116 144 L 124 144 Z M 112 168 L 116 168 L 120 168 L 120 176 L 112 176 Z M 132 168 L 132 176 L 124 176 L 124 168 L 128 168 Z M 72 176 L 64 176 L 64 152 L 72 152 Z M 60 176 L 52 176 L 52 152 L 60 152 Z M 48 176 L 40 176 L 40 152 L 48 152 Z M 36 176 L 28 176 L 28 152 L 36 152 Z M 136 184 L 136 180 L 136 176 L 136 168 L 136 164 L 132 164 L 128 164 L 128 144 L 128 140 L 128 132 L 128 128 L 124 128 L 112 128 L 108 128 L 108 132 L 108 140 L 104 140 L 100 140 L 100 144 L 100 164 L 96 164 L 88 164 L 88 152 L 88 148 L 84 148 L 76 148 L 72 148 L 64 148 L 60 148 L 52 148 L 48 148 L 40 148 L 36 148 L 28 148 L 24 148 L 24 152 L 24 176 L 24 180 L 28 180 L 36 180 L 40 180 L 48 180 L 52 180 L 60 180 L 64 180 L 72 180 L 76 180 L 84 180 L 84 184 L 84 188 L 88 188 L 96 188 L 100 188 L 108 188 L 112 188 L 120 188 L 124 188 L 132 188 L 136 188 Z"/>
    <path id="path28" fill="#ffffff" stroke="none" d="M 172 208 L 164 208 L 164 188 L 172 188 Z M 156 208 L 148 208 L 148 188 L 156 188 Z M 176 188 L 176 184 L 172 184 L 164 184 L 160 184 L 156 184 L 148 184 L 144 184 L 144 188 L 144 208 L 144 212 L 148 212 L 156 212 L 160 212 L 164 212 L 172 212 L 176 212 L 176 208 Z"/>
    <path id="path29" fill="#ffffff" stroke="none" d="M 204 236 L 196 236 L 196 216 L 204 216 Z M 188 236 L 180 236 L 180 216 L 188 216 Z M 196 212 L 192 212 L 188 212 L 180 212 L 176 212 L 176 216 L 176 236 L 176 240 L 180 240 L 188 240 L 192 240 L 196 240 L 204 240 L 208 240 L 208 236 L 208 216 L 208 212 L 204 212 Z"/>
    <path id="path30" fill="#ffffff" stroke="none" d="M 222 226 C 219.791 226 218 224.209 218 222 C 218 219.791 219.791 218 222 218 C 224.209 218 226 219.791 226 222 C 226 224.209 224.209 226 222 226 M 222 214 C 217.589005 214 214 217.589005 214 222 C 214 226.410995 217.589005 230 222 230 C 226.410995 230 230 226.410995 230 222 C 230 217.589005 226.410995 214 222 214"/>
    <path id="path31" fill="#ffffff" stroke="none" d="M 66 240 C 62.687 240 60 237.313004 60 234 C 60 230.686996 62.687 228 66 228 C 69.313004 228 72 230.686996 72 234 C 72 237.313004 69.313004 240 66 240 M 56 228 L 48 228 L 48 224 L 56 224 Z M 28 224 L 44 224 L 44 228 L 28 228 Z M 28 216 L 44 216 L 44 220 L 28 220 Z M 28 208 L 44 208 L 44 212 L 28 212 Z M 28 200 L 44 200 L 44 204 L 28 204 Z M 28 192 L 44 192 L 44 196 L 28 196 Z M 56 196 L 48 196 L 48 192 L 56 192 Z M 56 204 L 48 204 L 48 200 L 56 200 Z M 64 204 C 66.209 204 68 205.791 68 208 C 68 210.209 66.209 212 64 212 C 61.791 212 60 210.209 60 208 C 60 205.791 61.791 204 64 204 M 74 204 C 75.104004 204 76 204.895996 76 206 C 76 207.104004 75.104004 208 74 208 C 72.895996 208 72 207.104004 72 206 C 72 204.895996 72.895996 204 74 204 M 78 190 C 80.209 190 82 191.791 82 194 C 82 196.209 80.209 198 78 198 C 75.791 198 74 196.209 74 194 C 74 191.791 75.791 190 78 190 M 84 206 C 84 207.104004 83.104004 208 82 208 C 80.895996 208 80 207.104004 80 206 C 80 204.895996 80.895996 204 82 204 C 83.104004 204 84 204.895996 84 206 M 90 212 C 91.104004 212 92 212.895996 92 214 C 92 215.104004 91.104004 216 90 216 C 88.895996 216 88 215.104004 88 214 C 88 212.895996 88.895996 212 90 212 M 98 212 C 99.104004 212 100 212.895996 100 214 C 100 215.104004 99.104004 216 98 216 C 96.895996 216 96 215.104004 96 214 C 96 212.895996 96.895996 212 98 212 M 82 216 C 80.895996 216 80 215.104004 80 214 C 80 212.895996 80.895996 212 82 212 C 83.104004 212 84 212.895996 84 214 C 84 215.104004 83.104004 216 82 216 M 74 216 C 72.895996 216 72 215.104004 72 214 C 72 212.895996 72.895996 212 74 212 C 75.104004 212 76 212.895996 76 214 C 76 215.104004 75.104004 216 74 216 M 56 220 L 48 220 L 48 216 L 56 216 Z M 56 212 L 48 212 L 48 208 L 56 208 Z M 68 220 C 68 222.209 66.209 224 64 224 C 61.791 224 60 222.209 60 220 C 60 217.791 61.791 216 64 216 C 66.209 216 68 217.791 68 220 M 104 195.333008 L 112 195.333008 L 112 196 L 112 208 L 112 208.666992 L 104 208.666992 Z M 116 196 L 128 196 L 128 208 L 116 208 Z M 76 234 C 76 230.011002 73.645996 226.570007 70.260002 224.966995 C 71.346001 223.600998 72 221.876999 72 220 C 72 219.880005 71.987 219.763 71.982002 219.643997 C 72.613998 219.869995 73.291 220 74 220 C 75.538002 220 76.936996 219.414001 78 218.459 C 79.063004 219.414001 80.461998 220 82 220 C 83.538002 220 84.936996 219.414001 86 218.459 C 87.063004 219.414001 88.461998 220 90 220 C 91.538002 220 92.936996 219.414001 94 218.459 C 95.063004 219.414001 96.461998 220 98 220 C 101.308998 220 104 217.30899 104 214 C 104 213.298004 103.873001 212.626999 103.650002 212 L 104 212 L 112 212 L 116 212 L 128 212 L 132 212 L 132 208 L 132 196 L 132 192 L 128 192 L 116 192 L 112 192 L 104 192 L 100 192 L 100 195.333008 L 100 208.350006 C 99.373001 208.126999 98.701996 208 98 208 C 96.461998 208 95.063004 208.585999 94 209.541 C 92.936996 208.585999 91.538002 208 90 208 C 89.067001 208 88.186996 208.221008 87.398003 208.60199 C 87.779999 207.813004 88 206.932999 88 206 C 88 203.084991 85.908997 200.651001 83.149002 200.113007 C 84.889999 198.645004 86 196.449997 86 194 C 86 189.589005 82.410995 186 78 186 C 73.588997 186 70 189.589005 70 194 C 70 196.449997 71.110001 198.645004 72.850998 200.113007 C 71.485001 200.378998 70.285004 201.109009 69.419998 202.132996 C 67.992996 200.813004 66.092003 200 64 200 C 62.542 200 61.178001 200.397995 60 201.082001 L 60 200 L 60 196 L 60 192 L 60 188 L 56 188 L 48 188 L 44 188 L 28 188 L 24 188 L 24 192 L 24 196 L 24 200 L 24 204 L 24 208 L 24 212 L 24 216 L 24 220 L 24 224 L 24 228 L 24 232 L 28 232 L 44 232 L 48 232 L 56 232 L 56.202 232 C 56.07 232.645996 56 233.315002 56 234 C 56 239.514008 60.486 244 66 244 C 71.514 244 76 239.514008 76 234"/>
    <path id="path32" fill="#ffffff" stroke="none" d="M 184 166 C 184 164.895996 184.895996 164 186 164 C 187.104004 164 188 164.895996 188 166 L 188 170 C 188 171.104004 187.104004 172 186 172 C 184.895996 172 184 171.104004 184 170 Z M 180 170 C 180 173.30899 182.690994 176 186 176 C 189.309006 176 192 173.30899 192 170 L 192 166 C 192 162.69101 189.309006 160 186 160 C 182.690994 160 180 162.69101 180 166 Z"/>
    <path id="path33" fill="#ffffff" stroke="none" d="M 184 146 C 184 144.895996 184.895996 144 186 144 C 187.104004 144 188 144.895996 188 146 L 188 150 C 188 151.104004 187.104004 152 186 152 C 184.895996 152 184 151.104004 184 150 Z M 180 146 L 180 150 C 180 153.30899 182.690994 156 186 156 C 189.309006 156 192 153.30899 192 150 L 192 146 C 192 142.69101 189.309006 140 186 140 C 182.690994 140 180 142.69101 180 146"/>
    <path id="path34" fill="#ffffff" stroke="none" d="M 228 150 C 228 151.104004 227.104004 152 226 152 C 224.895996 152 224 151.104004 224 150 L 224 146 C 224 144.895996 224.895996 144 226 144 C 227.104004 144 228 144.895996 228 146 Z M 226 140 C 222.690994 140 220 142.69101 220 146 L 220 150 C 220 153.30899 222.690994 156 226 156 C 229.309006 156 232 153.30899 232 150 L 232 146 C 232 142.69101 229.309006 140 226 140"/>
    <path id="path35" fill="#ffffff" stroke="none" d="M 188 134 C 188 135.104004 187.104004 136 186 136 C 184.895996 136 184 135.104004 184 134 L 184 130 C 184 128.895996 184.895996 128 186 128 C 187.104004 128 188 128.895996 188 130 Z M 192 134 L 192 130 C 192 126.690994 189.309006 124 186 124 C 182.690994 124 180 126.690994 180 130 L 180 134 C 180 137.30899 182.690994 140 186 140 C 189.309006 140 192 137.30899 192 134"/>
    <path id="path36" fill="#ffffff" stroke="none" d="M 136 240 L 140 240 L 140 216 L 136 216 Z"/>
    <path id="path37" fill="#ffffff" stroke="none" d="M 144 240 L 148 240 L 148 216 L 144 216 Z"/>
    <path id="path38" fill="#ffffff" stroke="none" d="M 152 240 L 156 240 L 156 216 L 152 216 Z"/>
    <path id="path39" fill="#ffffff" stroke="none" d="M 160 240 L 164 240 L 164 216 L 160 216 Z"/>
    <path id="path40" fill="#ffffff" stroke="none" d="M 168 240 L 172 240 L 172 216 L 168 216 Z"/>
</svg>
