<?xml version="1.0" encoding="UTF-8"?>
<!-- Generated by Pixelmator Pro 3.7.1 -->
<svg width="256" height="256" viewBox="0 0 256 256" xmlns="http://www.w3.org/2000/svg">
    <path id="Path" fill="#ffffff" stroke="none" d="M 244 68 L 240 68 L 240 72 L 244 72 L 244 76 L 240 76 L 240 80 L 244 80 L 244 84 L 240 84 L 240 88 L 244 88 L 244 200 L 12 200 L 12 88 L 16 88 L 16 84 L 12 84 L 12 80 L 16 80 L 16 76 L 12 76 L 12 72 L 16 72 L 16 68 L 12 68 L 12 56 L 20 56 L 20 116 L 20 120 L 20 124 L 20 128 L 20 136 L 20 140 L 20 192 L 20 196 L 24 196 L 232 196 L 236 196 L 236 192 L 236 156 L 236 152 L 236 128 L 236 124 L 236 120 L 236 116 L 236 56 L 244 56 Z M 24 140 L 188 140 L 188 152 L 188 156 L 192 156 L 232 156 L 232 192 L 24 192 Z M 24 128 L 24 124 L 24 120 L 188 120 L 188 124 L 188 128 L 188 136 L 24 136 Z M 232 120 L 232 124 L 232 128 L 232 152 L 192 152 L 192 140 L 192 136 L 192 128 L 192 124 L 192 120 Z M 24 56 L 232 56 L 232 116 L 192 116 L 188 116 L 24 116 Z M 244 52 L 236 52 L 232 52 L 24 52 L 20 52 L 12 52 L 8 52 L 8 56 L 8 68 L 8 72 L 8 76 L 8 80 L 8 84 L 8 88 L 8 200 L 8 204 L 12 204 L 244 204 L 248 204 L 248 200 L 248 88 L 248 84 L 248 80 L 248 76 L 248 72 L 248 68 L 248 56 L 248 52 Z"/>
</svg>
