<?xml version="1.0" encoding="UTF-8"?>
<!-- Generated by Pixelmator Pro 3.7.1 -->
<svg width="256" height="256" viewBox="0 0 256 256" xmlns="http://www.w3.org/2000/svg">
    <path id="Path" fill="#ffffff" stroke="none" d="M 240 62 L 240 64 L 216 64 L 216 68 L 240 68 L 240 70 L 240 72 L 216 72 L 216 76 L 240 76 L 240 78 L 240 80 L 216 80 L 216 84 L 240 84 L 240 86 L 240 88 L 216 88 L 216 98 C 216 99.320007 215.968994 98.656006 215.906998 100 L 240 100 L 240 104 L 216 104 L 216 108 L 240 108 L 240 110 L 240 112 L 214.880997 112 C 211.606995 132.395996 201.201996 151.11499 185.328003 165.029999 C 168.929993 179.404999 147.929993 187.488998 126 187.955002 C 104.070999 187.488998 83.070007 179.404999 66.671005 165.029999 C 50.796997 151.11499 40.393005 132.395996 37.119003 112 L 12 112 L 12 110 L 12 108 L 36 108 L 36 104 L 12 104 L 12 100 L 36.093002 100 C 36.031006 98.656006 36 99.320007 36 98 L 36 88 L 12 88 L 12 86 L 12 84 L 36 84 L 36 80 L 12 80 L 12 78 L 12 76 L 36 76 L 36 72 L 12 72 L 12 70 L 12 68 L 36 68 L 36 64 L 12 64 L 12 62 L 12 60 L 40 60 L 40 56 C 40.095001 56 49.542007 55.841995 52.438995 50.177994 L 53.552994 48 L 56 48 L 124 48 L 128 48 L 196 48 L 198.445999 48 L 199.561005 50.177994 C 202.459 55.841995 211.904999 56 212 56 L 212 60 L 240 60 Z M 240 96 L 220 96 L 220 92 L 240 92 Z M 240 200 C 240 202.209 238.209 204 236 204 L 128 204 L 124 204 L 16 204 C 13.791 204 12 202.209 12 200 L 12 116 L 33.774994 116 C 37.761002 135.97699 48.419006 154.350006 64.035004 168.037994 C 80.664001 182.61499 101.824997 191.005997 124 191.910004 L 124 192 C 124.667999 192 125.333 191.968994 126 191.955002 C 126.667 191.968994 127.332001 192 128 192 L 128 191.910004 C 150.175995 191.005997 171.335999 182.61499 187.964996 168.037994 C 203.580994 154.350006 214.238998 135.97699 218.225006 116 L 240 116 Z M 12 92 L 32 92 L 32 96 L 12 96 Z M 240 56 L 220 56 L 220 52 L 216 52 L 212.035004 52 C 209.692993 51.947998 204.471008 50.992996 203.122009 48.356003 L 202.007996 46.177994 L 200.893997 44 L 198.445999 44 L 196 44 L 128 44 L 124 44 L 56 44 L 53.552994 44 L 51.106995 44 L 49.992004 46.177994 L 48.878006 48.356003 C 47.529007 50.992996 42.306 51.947998 39.964996 52 L 36 52 L 32 52 L 32 56 L 12 56 L 8 56 L 8 58 L 8 60 L 8 62 L 8 64 L 8 66 L 8 68 L 8 70 L 8 72 L 8 74 L 8 76 L 8 78 L 8 80 L 8 82 L 8 84 L 8 86 L 8 88 L 8 92 L 8 98 L 8 102 L 8 104 L 8 106 L 8 108 L 8 110 L 8 112 L 8 116 L 8 200 C 8 204.410995 11.589005 208 16 208 L 124 208 L 128 208 L 236 208 C 240.410995 208 244 204.410995 244 200 L 244 116 L 244 112 L 244 110 L 244 108 L 244 106 L 244 104 L 244 102 L 244 98 L 244 92 L 244 88 L 244 86 L 244 84 L 244 82 L 244 80 L 244 78 L 244 76 L 244 74 L 244 72 L 244 70 L 244 68 L 244 66 L 244 64 L 244 62 L 244 60 L 244 58 L 244 56 Z"/>
    <path id="path1" fill="#ffffff" stroke="none" d="M 60 80 L 196 80 L 196 96 L 180 96 L 180 88 L 176 88 L 80 88 L 76 88 L 76 96 L 60 96 Z M 60 72 L 196 72 L 196 76 L 60 76 Z M 60 64 L 196 64 L 196 68 L 60 68 Z M 60 56 L 196 56 L 196 60 L 60 60 Z M 80 108 L 80 100 L 80 96 L 80 92 L 176 92 L 176 96 L 176 100 L 176 108 Z M 130 164 L 126 164 C 90.278 164 61.113998 135.468994 60.050999 100 L 76 100 L 76 108 L 76 112 L 80 112 L 176 112 L 180 112 L 180 108 L 180 100 L 195.949005 100 C 194.886002 135.468994 165.722 164 130 164 M 56 96 L 56 98 L 56 100 L 56.050999 100 C 57.112 137.731995 88.011002 168 126 168 L 130 168 C 167.988998 168 198.888 137.731995 199.949005 100 L 200 100 L 200 98 L 200 96 L 200 52 L 56 52 Z"/>
</svg>
