<?xml version="1.0" encoding="UTF-8"?>
<!-- Generated by Pixelmator Pro 3.7.1 -->
<svg width="256" height="256" viewBox="0 0 256 256" xmlns="http://www.w3.org/2000/svg">
    <path id="Path" fill="#ffffff" stroke="none" d="M 240 208 L 224 208 L 224 224 L 32 224 L 32 208 L 16 208 L 16 52 C 16 52 16 44 40 40 C 64 36 124 36 124 36 L 128 36 L 132 36 C 132 36 192 36 216 40 C 240 44 240 52 240 52 Z M 239.561005 44.427002 C 235.026001 40.647995 227.320007 37.832001 216.656998 36.054001 C 192.606995 32.046005 134.463989 32 132 32 L 128 32 L 124 32 C 121.537003 32 63.393005 32.046005 39.341995 36.054001 C 28.679001 37.832001 20.973999 40.647995 16.438995 44.427002 C 12.320007 47.860001 12 51.091003 12 52 L 12 208 L 12 212 L 16 212 L 28 212 L 28 224 L 28 228 L 32 228 L 224 228 L 228 228 L 228 224 L 228 212 L 240 212 L 244 212 L 244 208 L 244 52 C 244 51.091003 243.679993 47.860001 239.561005 44.427002"/>
    <path id="path1" fill="#ffffff" stroke="none" d="M 88 172 L 60 172 C 57.791 172 56 170.209 56 168 C 56 165.791 57.791 164 60 164 L 88 164 C 90.209 164 92 165.791 92 168 C 92 170.209 90.209 172 88 172 M 88 160 L 60 160 C 55.589001 160 52 163.588989 52 168 C 52 172.411011 55.589001 176 60 176 L 88 176 C 92.411003 176 96 172.411011 96 168 C 96 163.588989 92.411003 160 88 160"/>
    <path id="path2" fill="#ffffff" stroke="none" d="M 200 172 L 172 172 C 169.791 172 168 170.209 168 168 C 168 165.791 169.791 164 172 164 L 200 164 C 202.209 164 204 165.791 204 168 C 204 170.209 202.209 172 200 172 M 200 160 L 172 160 C 167.589005 160 164 163.588989 164 168 C 164 172.411011 167.589005 176 172 176 L 200 176 C 204.410995 176 208 172.411011 208 168 C 208 163.588989 204.410995 160 200 160"/>
    <path id="path3" fill="#ffffff" stroke="none" d="M 115.276398 161.447296 L 112.894402 166.211304 C 112.710403 166.580292 112.3554 166.763306 112.000397 166.763306 C 111.645401 166.763306 111.290398 166.580292 111.1054 166.211304 L 108.723396 161.447296 C 108.391403 160.782303 108.874397 160.000305 109.618401 160.000305 L 114.381401 160.000305 C 115.125397 160.000305 115.609398 160.782303 115.276398 161.447296 M 114.381401 156.000305 L 109.618401 156.000305 C 107.872398 156.000305 106.282402 156.886292 105.364403 158.371307 C 104.447403 159.856293 104.365402 161.675293 105.1464 163.236298 L 107.527397 168.000305 C 108.380402 169.705292 110.093399 170.763306 112.000397 170.763306 C 113.906403 170.763306 115.6194 169.705292 116.472397 168.000305 L 118.854401 163.236298 C 119.634399 161.675293 119.552399 159.856293 118.635399 158.371307 C 117.7174 156.886292 116.127403 156.000305 114.381401 156.000305"/>
    <path id="path4" fill="#ffffff" stroke="none" d="M 154.660202 161.447296 L 152.277206 166.211304 C 152.094193 166.580292 151.738205 166.763306 151.383194 166.763306 C 151.028198 166.763306 150.673203 166.580292 150.489197 166.211304 L 148.106201 161.447296 C 147.7742 160.782303 148.258194 160.000305 149.001205 160.000305 L 153.765198 160.000305 C 154.509201 160.000305 154.992203 160.782303 154.660202 161.447296 M 153.765198 156.000305 L 149.001205 156.000305 C 147.256195 156.000305 145.666199 156.886292 144.748199 158.371307 C 143.8302 159.856293 143.748199 161.675293 144.529205 163.236298 L 146.911194 168.000305 C 147.764206 169.705292 149.477203 170.763306 151.383194 170.763306 C 153.2892 170.763306 155.003204 169.705292 155.855194 168.000305 L 158.237198 163.236298 C 159.017197 161.675293 158.936203 159.856293 158.018204 158.371307 C 157.100204 156.886292 155.5112 156.000305 153.765198 156.000305"/>
    <path id="path5" fill="#ffffff" stroke="none" d="M 220 124.417999 C 220 126.466995 218.453995 128.186005 216.416 128.397003 C 206.621994 129.406006 177.091003 132 132 132 C 130.651001 132 129.324997 131.990997 128 131.981995 C 126.675003 131.990997 125.348999 132 124 132 C 78.908997 132 49.378006 129.406006 39.584 128.397003 C 37.546005 128.186005 36 126.466995 36 124.417999 L 36 59.647003 C 36 57.574005 37.584 55.845001 39.649994 55.66301 C 50.552002 54.697998 84.578003 52 124 52 L 128 52 L 132 52 C 171.421997 52 205.447998 54.697998 216.350998 55.66301 C 218.416 55.845001 220 57.574005 220 59.647003 Z M 216.703003 51.678009 C 204.199997 50.572006 170.919998 48 132 48 L 128 48 L 124 48 C 85.080002 48 51.798996 50.572006 39.296997 51.678009 C 35.136993 52.046005 32 55.472 32 59.647003 L 32 124.417999 C 32 128.531998 35.084 131.953003 39.173004 132.375 C 49.738007 133.464996 79.153 136 124 136 C 125.348999 136 126.675003 135.990997 128 135.981995 C 129.324997 135.990997 130.651001 136 132 136 C 176.847992 136 206.261993 133.464996 216.826004 132.375 C 220.916 131.953003 224 128.531998 224 124.417999 L 224 59.647003 C 224 55.472 220.863007 52.046005 216.703003 51.678009"/>
</svg>
