<?xml version="1.0" encoding="UTF-8"?>
<!-- Generated by Pixelmator Pro 3.7.1 -->
<svg width="256" height="256" viewBox="0 0 256 256" xmlns="http://www.w3.org/2000/svg">
    <path id="Path" fill="#ffffff" stroke="none" d="M 240 164 C 240 166.209 238.209 168 236 168 L 208 168 L 204 168 L 144 168 L 140 168 L 112 168 C 109.791 168 108 166.209 108 164 L 108 76 C 108 73.791 109.791 72 112 72 L 236 72 C 238.209 72 240 73.791 240 76 Z M 204 180 L 144 180 L 144 172 L 204 172 Z M 236 68 L 112 68 C 107.589005 68 104 71.588989 104 76 L 104 164 C 104 168.411011 107.589005 172 112 172 L 140 172 L 140 180 L 140 184 L 144 184 L 204 184 L 208 184 L 208 180 L 208 172 L 236 172 C 240.410995 172 244 168.411011 244 164 L 244 76 C 244 71.588989 240.410995 68 236 68"/>
    <path id="path1" fill="#ffffff" stroke="none" d="M 62 120 L 26 120 C 24.896 120 24 120.895996 24 122 C 24 123.104004 24.896 124 26 124 L 62 124 C 63.104 124 64 123.104004 64 122 C 64 120.895996 63.104 120 62 120"/>
    <path id="path2" fill="#ffffff" stroke="none" d="M 26 128 C 24.896 128 24 128.895996 24 130 C 24 131.104004 24.896 132 26 132 C 27.104 132 28 131.104004 28 130 C 28 128.895996 27.104 128 26 128"/>
    <path id="path3" fill="#ffffff" stroke="none" d="M 34 132 C 32.896 132 32 132.895996 32 134 C 32 135.104004 32.896 136 34 136 C 35.104 136 36 135.104004 36 134 C 36 132.895996 35.104 132 34 132"/>
    <path id="path4" fill="#ffffff" stroke="none" d="M 62 132 C 60.896 132 60 132.895996 60 134 C 60 135.104004 60.896 136 62 136 C 63.104 136 64 135.104004 64 134 C 64 132.895996 63.104 132 62 132"/>
    <path id="path5" fill="#ffffff" stroke="none" d="M 54 132 L 42 132 C 40.896 132 40 132.895996 40 134 C 40 135.104004 40.896 136 42 136 L 54 136 C 55.104 136 56 135.104004 56 134 C 56 132.895996 55.104 132 54 132"/>
    <path id="path6" fill="#ffffff" stroke="none" d="M 34 100 C 32.896 100 32 100.895996 32 102 C 32 103.104004 32.896 104 34 104 C 35.104 104 36 103.104004 36 102 C 36 100.895996 35.104 100 34 100"/>
    <path id="path7" fill="#ffffff" stroke="none" d="M 50 100 C 48.896 100 48 100.895996 48 102 C 48 103.104004 48.896 104 50 104 C 51.104 104 52 103.104004 52 102 C 52 100.895996 51.104 100 50 100"/>
    <path id="path8" fill="#ffffff" stroke="none" d="M 62 100 C 60.896 100 60 100.895996 60 102 C 60 103.104004 60.896 104 62 104 C 63.104 104 64 103.104004 64 102 C 64 100.895996 63.104 100 62 100"/>
    <path id="path9" fill="#ffffff" stroke="none" d="M 228 156 L 120 156 L 120 84 L 228 84 Z M 120 80 L 116 80 L 116 84 L 116 156 L 116 160 L 120 160 L 228 160 L 232 160 L 232 156 L 232 84 L 232 80 L 228 80 Z"/>
    <path id="path10" fill="#ffffff" stroke="none" d="M 92 140 L 88 140 L 76 140 L 72 140 L 68 140 L 64 140 L 24 140 L 20 140 L 20 144 L 20 180 L 12 180 L 12 88 C 12 85.791 13.791 84 16 84 L 28 84 C 23.588997 84 20 87.589005 20 92 L 20 108 C 20 112.410995 23.588997 116 28 116 L 76 116 C 71.589005 116 68 119.589005 68 124 L 68 128 C 68 132.411011 71.589005 136 76 136 L 92 136 C 93.458 136 94.821999 135.60199 96 134.917999 L 96 140 Z M 88 156 L 76 156 L 76 144 L 88 144 Z M 88 180 L 76 180 L 76 168 L 88 168 Z M 76 160 L 92 160 L 92 164 L 76 164 L 76 162 Z M 68 180 L 68 144 L 72 144 L 72 156 L 72 162 L 72 168 L 72 180 Z M 32 156 L 60 156 L 60 180 L 32 180 Z M 24 180 L 24 144 L 64 144 L 64 152 L 60 152 L 32 152 L 28 152 L 28 156 L 28 180 Z M 69 92 L 24 92 C 24 89.791 25.791 88 28 88 L 80 88 C 82.209 88 84 89.791 84 92 L 84 108 C 84 110.209 82.209 112 80 112 L 28 112 C 25.791 112 24 110.209 24 108 L 24 96 L 60 96 L 69 96 C 70.656998 96 72 95.104004 72 94 C 72 92.895996 70.656998 92 69 92 M 96 128 C 96 130.209 94.209 132 92 132 L 76 132 C 73.791 132 72 130.209 72 128 L 72 124 C 72 121.791 73.791 120 76 120 L 92 120 C 94.209 120 96 121.791 96 124 Z M 92 84 C 94.209 84 96 85.791 96 88 L 96 117.083008 C 94.821999 116.397995 93.458 116 92 116 L 80 116 C 84.411003 116 88 112.410995 88 108 L 88 92 C 88 87.589005 84.411003 84 80 84 Z M 92 80 L 16 80 C 11.588997 80 8 83.589005 8 88 L 8 180 L 8 184 L 12 184 L 20 184 L 24 184 L 28 184 L 32 184 L 60 184 L 64 184 L 68 184 L 72 184 L 76 184 L 88 184 L 92 184 L 92 180 L 92 168 C 94.209 168 96 166.209 96 164 L 96 162 L 96 160 C 96 157.791 94.209 156 92 156 L 92 144 L 96 144 L 100 144 L 100 140 L 100 128 L 100 124 L 100 88 C 100 83.589005 96.411003 80 92 80"/>
</svg>
