<?xml version="1.0" encoding="UTF-8"?>
<!-- Generated by Pixelmator Pro 3.7.1 -->
<svg width="256" height="256" viewBox="0 0 256 256" xmlns="http://www.w3.org/2000/svg">
    <path id="Path" fill="#ffffff" stroke="none" d="M 232 138.3125 C 232 139.370499 231.580002 140.383499 230.832001 141.1315 L 131.132004 240.832489 C 130.354004 241.610504 129.333008 242.000504 128.311996 242.000504 C 127.292 242.000504 126.271004 241.610504 125.491997 240.832489 L 119.515999 234.855499 L 174.042999 179.186493 C 177.208008 176.0215 177.339996 170.955505 174.307007 167.921509 L 88.806 82.421509 C 87.388 81.002502 85.477997 80.221497 83.427994 80.221497 C 81.264999 80.221497 79.121994 81.119507 77.541 82.686493 L 21.507004 136.846497 L 15.479996 130.820496 C 13.923004 129.262497 13.923004 126.737503 15.479996 125.180496 L 125.491997 15.167511 C 126.271004 14.389496 127.292 13.999496 128.311996 13.999496 C 129.333008 13.999496 130.354004 14.389496 131.132004 15.167511 L 141.153 25.189499 L 96 70.343506 C 92.880997 73.462494 92.880997 78.537506 96 81.656494 L 169.636002 155.292496 C 171.335999 156.9935 173.596008 157.928497 176 157.928497 C 178.403992 157.928497 180.664001 156.9935 182.363998 155.292496 L 226.811005 110.846497 L 230.832001 114.8685 C 231.580002 115.615494 232 116.630493 232 117.6875 Z M 24.335999 139.675507 L 80.339996 85.542496 C 81.216003 84.667496 82.343002 84.221497 83.427994 84.221497 C 84.373993 84.221497 85.289001 84.561493 85.977997 85.249496 L 171.479004 170.750504 C 172.955994 172.2285 172.824997 174.748505 171.186005 176.387497 L 116.686996 232.026489 Z M 161.067001 45.1035 L 123.982002 82.349503 C 120.875999 85.468506 120.880997 90.538498 123.994003 93.650497 L 173.636002 143.292511 C 175.335999 144.9935 177.596008 145.928497 180 145.928497 C 182.403992 145.928497 184.664001 144.9935 186.363998 143.292511 L 222.811005 106.846497 L 223.981995 108.018494 L 179.535004 152.464508 C 178.559998 153.440491 177.278992 153.928497 176 153.928497 C 174.721008 153.928497 173.440002 153.440491 172.464996 152.464508 L 98.828995 78.828491 C 97.266998 77.266495 97.266998 74.733505 98.828995 73.171509 L 143.981995 28.018494 Z M 219.981995 104.018494 L 183.535004 140.464508 C 182.559998 141.440491 181.278992 141.928497 180 141.928497 C 178.721008 141.928497 177.440002 141.440491 176.464996 140.464508 L 126.821999 90.822495 C 125.263 89.262497 125.260002 86.734497 126.816002 85.171509 L 163.895996 47.931503 Z M 233.660004 112.039505 L 229.639008 108.018494 L 229.656998 108.000504 L 226.828003 105.171509 L 222.852997 101.195496 L 222.833008 101.175507 L 166.833008 45.002502 L 163.998001 42.1595 L 163.90799 42.250504 L 146.828003 25.171509 L 144 22.343506 L 143.981995 22.361511 L 133.960999 12.339508 C 132.451996 10.831497 130.445007 10.000504 128.311996 10.000504 C 126.179001 10.000504 124.171997 10.831497 122.664001 12.339508 L 12.651993 122.351501 C 9.537003 125.466507 9.537003 130.5345 12.651993 133.648499 L 122.664001 243.660492 C 124.171997 245.168503 126.179001 246.000504 128.311996 246.000504 C 130.445007 246.000504 132.451996 245.168503 133.960999 243.660492 L 233.660004 143.96051 C 235.169006 142.452499 236 140.445496 236 138.3125 L 236 117.6875 C 236 115.554504 235.169006 113.548492 233.660004 112.039505"/>
    <path id="path1" fill="#ffffff" stroke="none" d="M 27.9883 120.059601 L 31.9883 124.011597 L 35.9883 120.011597 L 31.9883 116.011597 Z"/>
    <path id="path2" fill="#ffffff" stroke="none" d="M 188 84 L 208 104 L 180 132 L 160 112 Z M 177.171997 134.828003 L 180 137.656998 L 182.828003 134.828003 L 210.828003 106.828995 L 213.656998 104 L 210.828003 101.171005 L 190.828003 81.171005 L 188 78.343002 L 185.171997 81.171005 L 157.171997 109.171005 L 154.343002 112 L 157.171997 114.828995 Z"/>
</svg>
