<?xml version="1.0" encoding="UTF-8"?>
<!-- Generated by Pixelmator Pro 3.7.1 -->
<svg width="256" height="256" viewBox="0 0 256 256" xmlns="http://www.w3.org/2000/svg">
    <path id="Path" fill="#ffffff" stroke="none" d="M 66 84 L 46 84 C 44.896 84 44 84.895996 44 86 C 44 87.104004 44.896 88 46 88 L 66 88 C 67.103996 88 68 87.104004 68 86 C 68 84.895996 67.103996 84 66 84"/>
    <path id="path1" fill="#ffffff" stroke="none" d="M 66 96 L 46 96 C 44.896 96 44 96.895996 44 98 C 44 99.104004 44.896 100 46 100 L 66 100 C 67.103996 100 68 99.104004 68 98 C 68 96.895996 67.103996 96 66 96"/>
    <path id="path2" fill="#ffffff" stroke="none" d="M 66 108 L 46 108 C 44.896 108 44 108.895996 44 110 C 44 111.104004 44.896 112 46 112 L 66 112 C 67.103996 112 68 111.104004 68 110 C 68 108.895996 67.103996 108 66 108"/>
    <path id="path3" fill="#ffffff" stroke="none" d="M 66 120 L 46 120 C 44.896 120 44 120.895996 44 122 C 44 123.104004 44.896 124 46 124 L 66 124 C 67.103996 124 68 123.104004 68 122 C 68 120.895996 67.103996 120 66 120"/>
    <path id="path4" fill="#ffffff" stroke="none" d="M 66 132 L 46 132 C 44.896 132 44 132.895996 44 134 C 44 135.104004 44.896 136 46 136 L 66 136 C 67.103996 136 68 135.104004 68 134 C 68 132.895996 67.103996 132 66 132"/>
    <path id="path5" fill="#ffffff" stroke="none" d="M 66 144 L 46 144 C 44.896 144 44 144.895996 44 146 C 44 147.104004 44.896 148 46 148 L 66 148 C 67.103996 148 68 147.104004 68 146 C 68 144.895996 67.103996 144 66 144"/>
    <path id="path6" fill="#ffffff" stroke="none" d="M 66 156 L 46 156 C 44.896 156 44 156.895996 44 158 C 44 159.104004 44.896 160 46 160 L 66 160 C 67.103996 160 68 159.104004 68 158 C 68 156.895996 67.103996 156 66 156"/>
    <path id="path7" fill="#ffffff" stroke="none" d="M 66 168 L 46 168 C 44.896 168 44 168.895996 44 170 C 44 171.104004 44.896 172 46 172 L 66 172 C 67.103996 172 68 171.104004 68 170 C 68 168.895996 67.103996 168 66 168"/>
    <path id="path8" fill="#ffffff" stroke="none" d="M 244 212 C 244 214.209 242.209 216 240 216 L 145.656998 216 L 142.828003 213.171997 L 138.828003 209.171997 L 137.656998 208 L 136 208 L 116 208 L 114.343002 208 L 113.171005 209.171997 L 109.171005 213.171997 L 106.343002 216 L 16 216 C 13.791 216 12 214.209 12 212 L 12 60 C 12 57.791 13.791 56 16 56 L 32.350006 56 C 33.175995 58.326996 35.393997 60 38 60 L 114 60 C 116.606003 60 118.823997 58.326996 119.650002 56 L 132.350006 56 C 133.177002 58.326996 135.393997 60 138 60 L 214 60 C 216.606003 60 218.822998 58.326996 219.649994 56 L 240 56 C 242.209 56 244 57.791 244 60 Z M 112 216 L 116 212 L 136 212 L 140 216 Z M 32 52 L 16 52 L 16 48 L 32 48 Z M 116 46 L 116 48 L 116 52 L 116 54 C 116 55.104004 115.104004 56 114 56 L 38 56 C 36.895996 56 36 55.104004 36 54 L 36 52 L 36 48 L 36 46 C 36 44.895996 36.895996 44 38 44 L 114 44 C 115.104004 44 116 44.895996 116 46 M 132 52 L 120 52 L 120 48 L 132 48 Z M 216 46 L 216 48 L 216 52 L 216 54 C 216 55.104004 215.104004 56 214 56 L 138 56 C 136.895996 56 136 55.104004 136 54 L 136 52 L 136 48 L 136 46 C 136 44.895996 136.895996 44 138 44 L 214 44 C 215.104004 44 216 44.895996 216 46 M 240 52 L 220 52 L 220 48 L 240 48 Z M 16 36 L 240 36 C 242.209 36 244 37.791 244 40 C 244 42.209 242.209 44 240 44 L 219.649994 44 C 218.822998 41.673004 216.606003 40 214 40 L 138 40 C 135.393997 40 133.177002 41.673004 132.350006 44 L 119.650002 44 C 118.823997 41.673004 116.606003 40 114 40 L 38 40 C 35.393997 40 33.175995 41.673004 32.350006 44 L 16 44 C 13.791 44 12 42.209 12 40 C 12 37.791 13.791 36 16 36 M 244 53.082993 L 244 52 L 244 48 L 244 46.917007 C 246.386993 45.531998 248 42.953003 248 40 C 248 35.589005 244.410995 32 240 32 L 16 32 C 11.589005 32 8 35.589005 8 40 C 8 42.953003 9.613007 45.531998 12 46.917007 L 12 48 L 12 52 L 12 53.082993 C 9.613007 54.468002 8 57.046997 8 60 L 8 212 C 8 216.410995 11.589005 220 16 220 L 102.343002 220 L 112 220 L 140 220 L 149.656998 220 L 240 220 C 244.410995 220 248 216.410995 248 212 L 248 60 C 248 57.046997 246.386993 54.468002 244 53.082993"/>
    <path id="path9" fill="#ffffff" stroke="none" d="M 142 148 C 143.104004 148 144 147.104004 144 146 C 144 144.895996 143.104004 144 142 144 C 140.895996 144 140 144.895996 140 146 C 140 147.104004 140.895996 148 142 148"/>
    <path id="path10" fill="#ffffff" stroke="none" d="M 142 160 C 143.104004 160 144 159.104004 144 158 C 144 156.895996 143.104004 156 142 156 C 140.895996 156 140 156.895996 140 158 C 140 159.104004 140.895996 160 142 160"/>
    <path id="path11" fill="#ffffff" stroke="none" d="M 144 170 C 144 168.895996 143.104004 168 142 168 C 140.895996 168 140 168.895996 140 170 C 140 171.104004 140.895996 172 142 172 C 143.104004 172 144 171.104004 144 170"/>
    <path id="path12" fill="#ffffff" stroke="none" d="M 224 200 C 224 202.209 222.209 204 220 204 L 160 204 C 157.791 204 156 202.209 156 200 L 156 140 C 156 137.791 157.791 136 160 136 L 220 136 C 222.209 136 224 137.791 224 140 Z M 136 146 C 136 142.686996 138.686996 140 142 140 C 145.313004 140 148 142.686996 148 146 L 148 178 C 148 174.69101 145.30899 172 142 172 C 138.69101 172 136 174.69101 136 178 Z M 138 184 C 138 182.52301 138.809998 181.248001 140 180.554993 L 140 178 C 140 176.895996 140.895996 176 142 176 C 143.104004 176 144 176.895996 144 178 L 144 180.554993 C 145.190002 181.248001 146 182.52301 146 184 C 146 186.209 144.209 188 142 188 C 139.791 188 138 186.209 138 184 M 220 132 L 160 132 C 155.588989 132 152 135.588989 152 140 L 152 146 C 152 140.485992 147.514008 136 142 136 C 136.485992 136 132 140.485992 132 146 L 132 182 C 132 187.514008 136.485992 192 142 192 C 147.514008 192 152 187.514008 152 182 L 152 200 C 152 204.410995 155.588989 208 160 208 L 220 208 C 224.410995 208 228 204.410995 228 200 L 228 140 C 228 135.588989 224.410995 132 220 132"/>
    <path id="path13" fill="#ffffff" stroke="none" d="M 204 148 L 212 148 L 212 156 L 204 156 Z M 212 168 L 204 168 L 204 160 L 212 160 Z M 212 180 L 204 180 L 204 172 L 212 172 Z M 212 192 L 204 192 L 204 184 L 212 184 Z M 200 192 L 192 192 L 192 184 L 200 184 Z M 188 192 L 180 192 L 180 184 L 188 184 Z M 176 192 L 168 192 L 168 184 L 176 184 Z M 168 172 L 176 172 L 176 180 L 168 180 Z M 168 160 L 176 160 L 176 168 L 168 168 Z M 168 148 L 176 148 L 176 156 L 168 156 Z M 180 148 L 188 148 L 188 156 L 180 156 Z M 180 160 L 188 160 L 188 168 L 180 168 Z M 180 172 L 188 172 L 188 180 L 180 180 Z M 200 180 L 192 180 L 192 172 L 200 172 Z M 200 168 L 192 168 L 192 160 L 200 160 Z M 192 148 L 200 148 L 200 156 L 192 156 Z M 204 144 L 200 144 L 192 144 L 188 144 L 180 144 L 176 144 L 168 144 L 164 144 L 164 148 L 164 156 L 164 160 L 164 168 L 164 172 L 164 180 L 164 184 L 164 192 L 164 196 L 168 196 L 176 196 L 180 196 L 188 196 L 192 196 L 200 196 L 204 196 L 212 196 L 216 196 L 216 192 L 216 184 L 216 180 L 216 172 L 216 168 L 216 160 L 216 156 L 216 148 L 216 144 L 212 144 Z"/>
    <path id="path14" fill="#ffffff" stroke="none" d="M 40 52 L 44 52 L 44 48 L 40 48 Z"/>
    <path id="path15" fill="#ffffff" stroke="none" d="M 48 52 L 52 52 L 52 48 L 48 48 Z"/>
    <path id="path16" fill="#ffffff" stroke="none" d="M 56 52 L 60 52 L 60 48 L 56 48 Z"/>
    <path id="path17" fill="#ffffff" stroke="none" d="M 64 52 L 68 52 L 68 48 L 64 48 Z"/>
    <path id="path18" fill="#ffffff" stroke="none" d="M 72 52 L 76 52 L 76 48 L 72 48 Z"/>
    <path id="path19" fill="#ffffff" stroke="none" d="M 80 52 L 84 52 L 84 48 L 80 48 Z"/>
    <path id="path20" fill="#ffffff" stroke="none" d="M 88 52 L 92 52 L 92 48 L 88 48 Z"/>
    <path id="path21" fill="#ffffff" stroke="none" d="M 96 52 L 100 52 L 100 48 L 96 48 Z"/>
    <path id="path22" fill="#ffffff" stroke="none" d="M 104 52 L 108 52 L 108 48 L 104 48 Z"/>
    <path id="path23" fill="#ffffff" stroke="none" d="M 144 52 L 148 52 L 148 48 L 144 48 Z"/>
    <path id="path24" fill="#ffffff" stroke="none" d="M 152 52 L 156 52 L 156 48 L 152 48 Z"/>
    <path id="path25" fill="#ffffff" stroke="none" d="M 160 52 L 164 52 L 164 48 L 160 48 Z"/>
    <path id="path26" fill="#ffffff" stroke="none" d="M 168 52 L 172 52 L 172 48 L 168 48 Z"/>
    <path id="path27" fill="#ffffff" stroke="none" d="M 176 52 L 180 52 L 180 48 L 176 48 Z"/>
    <path id="path28" fill="#ffffff" stroke="none" d="M 184 52 L 188 52 L 188 48 L 184 48 Z"/>
    <path id="path29" fill="#ffffff" stroke="none" d="M 192 52 L 196 52 L 196 48 L 192 48 Z"/>
    <path id="path30" fill="#ffffff" stroke="none" d="M 200 52 L 204 52 L 204 48 L 200 48 Z"/>
    <path id="path31" fill="#ffffff" stroke="none" d="M 208 52 L 212 52 L 212 48 L 208 48 Z"/>
</svg>
