<?xml version="1.0" encoding="UTF-8"?>
<!-- Generated by Pixelmator Pro 3.7.1 -->
<svg width="256" height="256" viewBox="0 0 256 256" xmlns="http://www.w3.org/2000/svg">
    <path id="Path" fill="#ffffff" stroke="none" d="M 128 143.2939 C 113.992996 143.2939 102.667 132.017899 102.667 118.020905 C 102.667 104.023895 113.992996 92.705902 128 92.705902 C 142.007004 92.705902 153.334 104.023895 153.334 118.020905 C 153.334 132.017899 142.007004 143.2939 128 143.2939 M 128 89.999908 C 112.552002 89.999908 100 102.583908 100 118.020905 C 100 133.456909 112.552002 145.999908 128 145.999908 C 143.447998 145.999908 156 133.456909 156 118.020905 C 156 102.583908 143.447998 89.999908 128 89.999908"/>
    <path id="path1" fill="#ffffff" stroke="none" d="M 128 119.2612 C 127.300003 119.2612 126.759003 118.7202 126.759003 118.021194 C 126.759003 117.321198 127.300003 116.780197 128 116.780197 C 128.699997 116.780197 129.240997 117.321198 129.240997 118.021194 C 129.240997 118.7202 128.699997 119.2612 128 119.2612 M 129.240997 114.515198 L 129.240997 99.4142 C 129.240997 98.732208 128.682999 98.173203 128 98.173203 C 127.317001 98.173203 126.759003 98.732208 126.759003 99.4142 L 126.759003 114.515198 C 126.484001 114.613205 126.224998 114.739197 125.985001 114.894196 L 117.704002 106.619202 C 117.221001 106.137207 116.431 106.137207 115.947998 106.619202 C 115.464996 107.102203 115.464996 107.891205 115.947998 108.374207 L 124.457001 116.876205 C 124.339996 117.237198 124.276001 117.621201 124.276001 118.021194 C 124.276001 120.076202 125.943001 121.742203 128 121.742203 C 130.057007 121.742203 131.725006 120.076202 131.725006 118.021194 C 131.725006 116.401199 130.686996 115.027206 129.240997 114.515198"/>
</svg>
