<?xml version="1.0" encoding="UTF-8"?>
<!-- Generated by Pixelmator Pro 3.7.1 -->
<svg width="256" height="256" viewBox="0 0 256 256" xmlns="http://www.w3.org/2000/svg">
    <path id="Path" fill="#ffffff" stroke="none" d="M 160 88 C 157.863007 88 155.854004 88.832001 154.343994 90.343002 L 128 116.686996 L 101.656998 90.343002 C 100.145996 88.832993 98.137001 88 96 88 C 93.862999 88 91.853996 88.832993 90.343002 90.343994 C 87.224998 93.462006 87.224998 98.537994 90.343002 101.656006 L 116.686996 128 L 90.343002 154.343994 C 87.224998 157.462997 87.224998 162.537003 90.343002 165.656006 C 91.855003 167.167999 93.863998 168 96 168 C 98.136002 168 100.145004 167.167999 101.655998 165.656006 L 128 139.313004 L 154.343994 165.656006 C 155.854004 167.167999 157.863007 168 160 168 C 162.136993 168 164.145996 167.167999 165.656006 165.656006 C 168.774994 162.537003 168.774994 157.462997 165.656006 154.343994 L 139.313004 128 L 165.656006 101.656998 C 167.167999 100.145996 168 98.136002 168 96 C 168 93.863007 167.167999 91.854004 165.656006 90.343002 C 164.145996 88.832993 162.136993 88 160 88 M 160 92 C 161.022995 92 162.046997 92.391006 162.828003 93.171997 C 164.391006 94.733994 164.391006 97.266006 162.828003 98.828003 L 133.656006 128 L 162.828003 157.171997 C 164.391006 158.734009 164.391006 161.265991 162.828003 162.828003 C 162.046997 163.609009 161.022995 164 160 164 C 158.977005 164 157.953003 163.609009 157.171997 162.828003 L 128 133.656006 L 98.828003 162.828003 C 98.046997 163.609009 97.022995 164 96 164 C 94.976997 164 93.953003 163.609009 93.171997 162.828003 C 91.609001 161.265991 91.609001 158.734009 93.171997 157.171997 L 122.344002 128 L 93.171997 98.828003 C 91.609001 97.266006 91.609001 94.733994 93.171997 93.171997 C 93.953003 92.391006 94.976997 92 96 92 C 97.022995 92 98.046997 92.391006 98.828003 93.171997 L 128 122.343994 L 157.171997 93.171997 C 157.953003 92.391006 158.977005 92 160 92"/>
</svg>
