<?xml version="1.0" encoding="UTF-8"?>
<!-- Generated by Pixelmator Pro 3.7.1 -->
<svg width="256" height="256" viewBox="0 0 256 256" xmlns="http://www.w3.org/2000/svg">
    <path id="Path" fill="#ffffff" stroke="none" d="M 244 200 L 12 200 L 12 56 L 244 56 Z M 244 52 L 12 52 L 8 52 L 8 56 L 8 200 L 8 204 L 12 204 L 244 204 L 248 204 L 248 200 L 248 56 L 248 52 Z"/>
    <path id="path1" fill="#ffffff" stroke="none" d="M 102.758797 99.666504 L 102.758797 99.666504 C 96.092796 99.666504 90.688797 94.441498 90.689796 87.998505 C 90.690804 81.555496 96.093803 76.333496 102.758797 76.333496 C 102.758797 76.333496 102.758797 76.333496 102.758797 76.333496 C 109.422798 76.333496 114.826797 81.556503 114.827797 87.998505 C 114.827797 94.442505 109.424797 99.666504 102.758797 99.666504 M 102.758797 72.333496 C 93.899803 72.333496 86.690796 79.360504 86.689796 87.997498 C 86.688797 92.208496 88.3778 96.160507 91.443802 99.124496 C 94.472801 102.053497 98.490799 103.666504 102.758797 103.666504 C 107.025803 103.666504 111.0438 102.053497 114.0728 99.124496 C 117.139801 96.160507 118.827797 92.208496 118.827797 87.998505 C 118.825798 79.360504 111.617798 72.333496 102.758797 72.333496"/>
    <path id="path2" fill="#ffffff" stroke="none" d="M 64 72 L 72 72 L 72 80 L 64 80 Z M 72 92 L 64 92 L 64 84 L 72 84 Z M 72 104 L 64 104 L 64 96 L 72 96 Z M 60 104 L 52 104 L 52 96 L 60 96 Z M 48 104 L 40 104 L 40 96 L 48 96 Z M 36 104 L 28 104 L 28 96 L 36 96 Z M 28 84 L 36 84 L 36 92 L 28 92 Z M 28 72 L 36 72 L 36 80 L 28 80 Z M 40 72 L 48 72 L 48 80 L 40 80 Z M 40 84 L 48 84 L 48 92 L 40 92 Z M 60 92 L 52 92 L 52 84 L 60 84 Z M 52 72 L 60 72 L 60 80 L 52 80 Z M 64 68 L 60 68 L 52 68 L 48 68 L 40 68 L 36 68 L 28 68 L 24 68 L 24 72 L 24 80 L 24 84 L 24 92 L 24 96 L 24 104 L 24 108 L 28 108 L 36 108 L 40 108 L 48 108 L 52 108 L 60 108 L 64 108 L 72 108 L 76 108 L 76 104 L 76 96 L 76 92 L 76 84 L 76 80 L 76 72 L 76 68 L 72 68 Z"/>
    <path id="path3" fill="#ffffff" stroke="none" d="M 80 96 L 84 96 L 84 80 L 80 80 Z"/>
    <path id="path4" fill="#ffffff" stroke="none" d="M 102.758797 128.333496 C 102.758797 128.333496 102.758797 128.333496 102.758797 128.333496 C 109.422798 128.333496 114.826797 133.555511 114.827797 139.998505 C 114.827797 146.442505 109.424797 151.666504 102.758797 151.666504 L 102.758797 151.666504 C 96.092796 151.666504 90.688797 146.442505 90.689796 139.998505 C 90.690804 133.555511 96.093803 128.333496 102.758797 128.333496 M 102.758797 155.666504 C 107.025803 155.666504 111.0438 154.053497 114.0728 151.125504 C 117.139801 148.160492 118.827797 144.208496 118.827797 139.998505 C 118.825798 131.360504 111.617798 124.333496 102.758797 124.333496 C 93.899803 124.333496 86.690796 131.360504 86.689796 139.998505 C 86.688797 144.208496 88.3778 148.160492 91.443802 151.125504 C 94.472801 154.053497 98.490799 155.666504 102.758797 155.666504"/>
    <path id="path5" fill="#ffffff" stroke="none" d="M 36 156 L 28 156 L 28 148 L 36 148 Z M 28 136 L 36 136 L 36 144 L 28 144 Z M 28 124 L 36 124 L 36 132 L 28 132 Z M 40 124 L 48 124 L 48 132 L 40 132 Z M 52 124 L 60 124 L 60 132 L 52 132 Z M 64 124 L 72 124 L 72 132 L 64 132 Z M 72 144 L 64 144 L 64 136 L 72 136 Z M 72 156 L 64 156 L 64 148 L 72 148 Z M 60 156 L 52 156 L 52 148 L 60 148 Z M 60 144 L 52 144 L 52 136 L 60 136 Z M 40 136 L 48 136 L 48 144 L 40 144 Z M 48 156 L 40 156 L 40 148 L 48 148 Z M 36 160 L 40 160 L 48 160 L 52 160 L 60 160 L 64 160 L 72 160 L 76 160 L 76 156 L 76 148 L 76 144 L 76 136 L 76 132 L 76 124 L 76 120 L 72 120 L 64 120 L 60 120 L 52 120 L 48 120 L 40 120 L 36 120 L 28 120 L 24 120 L 24 124 L 24 132 L 24 136 L 24 144 L 24 148 L 24 156 L 24 160 L 28 160 Z"/>
    <path id="path6" fill="#ffffff" stroke="none" d="M 84 132 L 80 132 L 80 148 L 84 148 Z"/>
    <path id="path7" fill="#ffffff" stroke="none" d="M 212 144 L 209.845993 144 L 156 144 L 152 144 L 152 148 L 152 152 L 132 152 L 132 68 L 144 68 L 144 84 L 148 84 L 148 68 L 152 68 L 152 84 L 156 84 L 156 68 L 160 68 L 160 84 L 164 84 L 164 68 L 168 68 L 168 84 L 172 84 L 172 68 L 176 68 L 176 84 L 180 84 L 180 68 L 184 68 L 184 84 L 188 84 L 188 68 L 192 68 L 192 84 L 196 84 L 196 68 L 200 68 L 200 84 L 204 84 L 204 68 L 208 68 L 208 84 L 212 84 L 212 68 L 216 68 L 216 84 L 220 84 L 220 68 L 224 68 L 224 84 L 228 84 L 228 68 L 236 68 L 236 152 L 216 152 L 216 148 L 216 144 L 213.845993 144 Z M 212 156 L 208 164 L 160 164 L 156 156 L 156 148 L 212 148 Z M 212 176 L 140 176 L 140 168 L 212 168 Z M 212 184 L 212 188 L 212 192 L 140 192 L 140 188 L 140 184 L 140 180 L 212 180 Z M 136 176 L 124 176 L 124 168 L 136 168 Z M 136 184 L 136 188 L 136 192 L 124 192 L 124 188 L 124 184 L 124 180 L 136 180 Z M 216 188 L 216 184 L 216 183.272995 C 217.466995 184.94101 219.608994 186 222 186 C 224.391006 186 226.533005 184.94101 228 183.272995 L 228 188 L 228 192 L 216 192 Z M 226 178 C 226 180.209 224.209 182 222 182 C 219.791 182 218 180.209 218 178 C 218 175.791 219.791 174 222 174 C 224.209 174 226 175.791 226 178 M 216 168 L 228 168 L 228 172.72699 C 226.533005 171.05899 224.391006 170 222 170 C 219.608994 170 217.466995 171.05899 216 172.72699 Z M 232 188 L 232 168 L 236 168 L 236 192 L 232 192 Z M 120 112 L 20 112 L 20 64 L 120 64 Z M 120 164 L 20 164 L 20 116 L 120 116 Z M 120 188 L 120 192 L 100 192 L 100 168 L 120 168 Z M 96 192 L 92 192 L 92 168 L 96 168 Z M 88 192 L 84 192 L 84 168 L 88 168 Z M 80 192 L 76 192 L 76 168 L 80 168 Z M 72 192 L 68 192 L 68 168 L 72 168 Z M 64 192 L 60 192 L 60 168 L 64 168 Z M 56 192 L 52 192 L 52 168 L 56 168 Z M 48 192 L 44 192 L 44 168 L 48 168 Z M 40 192 L 36 192 L 36 168 L 40 168 Z M 32 192 L 28 192 L 28 168 L 32 168 Z M 24 192 L 20 192 L 20 168 L 24 168 Z M 240 156 L 240 64 L 228 64 L 224 64 L 220 64 L 216 64 L 212 64 L 208 64 L 204 64 L 200 64 L 196 64 L 192 64 L 188 64 L 184 64 L 180 64 L 176 64 L 172 64 L 168 64 L 164 64 L 160 64 L 156 64 L 152 64 L 148 64 L 144 64 L 128 64 L 128 156 L 152 156 L 156 164 L 124 164 L 124 116 L 124 112 L 124 64 L 124 60 L 120 60 L 20 60 L 16 60 L 16 64 L 16 112 L 16 116 L 16 164 L 16 168 L 16 192 L 16 196 L 20 196 L 236 196 L 240 196 L 240 192 L 240 168 L 240 164 L 236 164 L 232 164 L 228 164 L 212 164 L 216 156 Z"/>
</svg>
