<?xml version="1.0" encoding="UTF-8"?>
<!-- Generated by Pixelmator Pro 3.7.1 -->
<svg width="256" height="256" viewBox="0 0 256 256" xmlns="http://www.w3.org/2000/svg">
    <path id="Path" fill="#ffffff" stroke="none" d="M 211.519501 8 L 206.879501 8 L 49.120499 8 L 44.479507 8 C 39.7155 8 35.839508 11.876007 35.839508 16.639999 L 35.839508 21.919998 L 35.2005 21.919998 L 31.2005 21.919998 L 31.2005 25.919998 L 31.2005 30.559998 L 31.2005 34.559998 L 31.2005 35.199997 L 31.2005 39.839996 L 31.2005 43.839996 L 31.2005 44.479996 L 31.2005 49.119995 L 31.2005 53.119995 L 31.2005 53.759995 L 31.2005 58.399994 L 31.2005 62.399994 L 31.2005 63.040009 L 31.2005 67.679993 L 31.2005 71.679993 L 31.2005 72.320007 L 31.2005 76.959991 L 31.2005 80.959991 L 35.2005 80.959991 L 35.852493 80.959991 C 35.942505 113.007996 35.910507 146.981995 35.875504 182.867996 C 35.858505 201.565002 35.839508 220.479004 35.839508 239.360001 C 35.839508 244.123993 39.7155 248 44.479507 248 L 211.519501 248 C 216.2845 248 220.160507 244.123993 220.160507 239.360001 L 220.160507 80.959991 L 220.7995 80.959991 L 224.7995 80.959991 L 224.7995 76.959991 L 224.7995 72.320007 L 224.7995 71.679993 L 224.7995 67.679993 L 224.7995 63.040009 L 224.7995 62.399994 L 224.7995 58.399994 L 224.7995 53.759995 L 224.7995 53.119995 L 224.7995 49.119995 L 224.7995 44.479996 L 224.7995 43.839996 L 224.7995 39.839996 L 224.7995 35.199997 L 224.7995 34.559998 L 224.7995 30.559998 L 224.7995 25.919998 L 224.7995 21.919998 L 220.7995 21.919998 L 220.160507 21.919998 L 220.160507 16.639999 C 220.160507 11.876007 216.2845 8 211.519501 8 M 211.519501 12 C 214.085495 12 216.160507 14.074005 216.160507 16.639999 L 216.160507 25.919998 L 220.7995 25.919998 L 220.7995 30.559998 L 216.160507 30.559998 L 216.160507 35.199997 L 220.7995 35.199997 L 220.7995 39.839996 L 216.160507 39.839996 L 216.160507 44.479996 L 220.7995 44.479996 L 220.7995 49.119995 L 216.160507 49.119995 L 216.160507 53.759995 L 220.7995 53.759995 L 220.7995 58.399994 L 216.160507 58.399994 L 216.160507 63.040009 L 220.7995 63.040009 L 220.7995 67.679993 L 216.160507 67.679993 L 216.160507 72.320007 L 220.7995 72.320007 L 220.7995 76.959991 L 216.160507 76.959991 L 216.160507 239.360001 C 216.160507 241.925995 214.085495 244 211.519501 244 L 44.479507 244 C 41.914505 244 39.839508 241.925995 39.839508 239.360001 C 39.839508 183.356003 39.999496 127.078003 39.839508 76.959991 L 35.2005 76.959991 L 35.2005 72.320007 L 39.839508 72.320007 L 39.839508 67.679993 L 35.2005 67.679993 L 35.2005 63.040009 L 39.839508 63.040009 L 39.839508 58.399994 L 35.2005 58.399994 L 35.2005 53.759995 L 39.839508 53.759995 L 39.839508 49.119995 L 35.2005 49.119995 L 35.2005 44.479996 L 39.839508 44.479996 L 39.839508 39.839996 L 35.2005 39.839996 L 35.2005 35.199997 L 39.839508 35.199997 L 39.839508 30.559998 L 35.2005 30.559998 L 35.2005 25.919998 L 39.839508 25.919998 L 39.839508 16.639999 C 39.839508 14.074005 41.914505 12 44.479507 12 L 49.120499 12 L 206.879501 12 L 211.519501 12"/>
    <path id="path1" fill="#ffffff" stroke="none" d="M 197.066406 16 L 58.933403 16 C 54.007393 16 50.000404 20.166992 50.000404 25.291 L 50.000404 178.710007 C 50.000404 183.832001 54.007393 188 58.933403 188 L 197.066406 188 C 201.992401 188 206.000397 183.832001 206.000397 178.710007 L 206.000397 25.291 C 206.000397 20.166992 201.992401 16 197.066406 16 M 197.066406 20 C 199.795395 20 202.000397 22.365005 202.000397 25.291 L 202.000397 178.710007 C 202.000397 181.634995 199.795395 184 197.066406 184 L 58.933403 184 C 56.205406 184 54.000404 181.634995 54.000404 178.710007 L 54.000404 25.291 C 54.000404 22.365005 56.205406 20 58.933403 20 L 197.066406 20"/>
    <path id="path2" fill="#ffffff" stroke="none" d="M 190.5811 37.891098 L 65.419098 37.891098 C 61.271103 37.891098 57.897095 41.260101 57.897095 45.401108 L 57.897095 174.599091 C 57.897095 178.740097 61.271103 182.108093 65.419098 182.108093 L 190.5811 182.108093 C 194.728104 182.108093 198.102097 178.740097 198.102097 174.599091 L 198.102097 45.401108 C 198.102097 41.260101 194.728104 37.891098 190.5811 37.891098 M 190.5811 41.891098 C 192.523102 41.891098 194.102097 43.466095 194.102097 45.401108 L 194.102097 174.599091 C 194.102097 176.535095 192.523102 178.108093 190.5811 178.108093 L 65.419098 178.108093 C 63.477104 178.108093 61.897095 176.535095 61.897095 174.599091 L 61.897095 45.401108 C 61.897095 43.466095 63.477104 41.891098 65.419098 41.891098 L 190.5811 41.891098"/>
</svg>
