<?xml version="1.0" encoding="UTF-8"?>
<!-- Generated by Pixelmator Pro 3.7.1 -->
<svg width="256" height="256" viewBox="0 0 256 256" xmlns="http://www.w3.org/2000/svg">
    <path id="Path" fill="#ffffff" stroke="none" d="M 66 208 C 62.687 208 60 205.313004 60 202 C 60 198.686996 62.687 196 66 196 C 69.313004 196 72 198.686996 72 202 C 72 205.313004 69.313004 208 66 208 M 66 192 C 60.477001 192 56 196.477997 56 202 C 56 207.522003 60.477001 212 66 212 C 71.523003 212 76 207.522003 76 202 C 76 196.477997 71.523003 192 66 192"/>
    <path id="path1" fill="#ffffff" stroke="none" d="M 82 182 L 86 182 L 86 186 L 82 186 Z M 78 190 L 82 190 L 86 190 L 90 190 L 90 186 L 90 182 L 90 178 L 86 178 L 82 178 L 78 178 L 78 182 L 78 184 L 78 186 Z"/>
    <path id="path2" fill="#ffffff" stroke="none" d="M 206.405304 215.410202 C 204.429306 215.784195 202.147293 216.000198 199.511307 216.000198 L 168.000305 216.000198 L 168.000305 200.000198 L 168.000305 196.000198 L 168.000305 172.000198 L 172.000305 172.000198 C 179.670303 172.000198 186.725296 174.490204 192.918304 178.078201 C 192.618301 178.031189 192.312302 178.000198 192.000305 178.000198 C 188.691299 178.000198 186.000305 180.691193 186.000305 184.000198 C 186.000305 187.308197 188.691299 190.000198 192.000305 190.000198 C 195.308304 190.000198 198.000305 187.308197 198.000305 184.000198 C 198.000305 182.765198 197.625305 181.618195 196.983307 180.6642 C 203.8423 185.421204 209.406296 191.279205 213.243301 195.938202 C 219.015305 202.946198 215.239304 213.739197 206.405304 215.410202 M 164.000305 216.000198 L 100.000298 216.000198 L 100.000298 200.000198 L 164.000305 200.000198 Z M 96.000298 216.000198 L 64.488289 216.000198 C 61.852306 216.000198 59.571301 215.784195 57.594296 215.410202 C 48.761303 213.739197 44.984295 202.946198 50.756298 195.938202 C 54.594296 191.279205 60.158306 185.421204 67.016289 180.6642 C 66.375298 181.618195 66.000298 182.765198 66.000298 184.000198 C 66.000298 187.308197 68.691292 190.000198 72.000298 190.000198 C 75.308296 190.000198 78.000298 187.308197 78.000298 184.000198 C 78.000298 180.691193 75.308296 178.000198 72.000298 178.000198 C 71.687294 178.000198 71.382301 178.031189 71.082298 178.078201 C 77.2743 174.490204 84.330299 172.000198 92.000298 172.000198 L 96.000298 172.000198 L 96.000298 196.000198 L 96.000298 200.000198 Z M 72.000298 182.000198 C 73.104301 182.000198 74.000298 182.895203 74.000298 184.000198 C 74.000298 185.104202 73.104301 186.000198 72.000298 186.000198 C 70.895302 186.000198 70.000298 185.104202 70.000298 184.000198 C 70.000298 182.895203 70.895302 182.000198 72.000298 182.000198 M 100.000298 172.000198 L 104.000298 172.000198 L 108.000298 172.000198 L 156.000305 172.000198 L 160.000305 172.000198 L 164.000305 172.000198 L 164.000305 196.000198 L 100.000298 196.000198 Z M 108.000298 156.000198 L 156.000305 156.000198 L 156.000305 168.000198 L 108.000298 168.000198 Z M 100.000298 152.000198 L 124.000298 119.000198 L 124.000298 120.000198 L 124.000298 128.000198 L 120.000298 128.000198 L 108.000298 148.000198 L 156.000305 148.000198 L 144.000305 128.000198 L 140.000305 128.000198 L 140.000305 120.000198 L 140.000305 119.000198 L 164.000305 152.000198 L 160.000305 152.000198 L 156.000305 152.000198 L 108.000298 152.000198 L 104.000298 152.000198 Z M 128.000305 120.000198 L 136.000305 120.000198 L 136.000305 128.000198 L 128.000305 128.000198 Z M 140.000305 132.000198 L 141.735306 132.000198 L 148.935303 144.000198 L 115.0653 144.000198 L 122.264297 132.000198 L 124.000298 132.000198 L 128.000305 132.000198 L 136.000305 132.000198 Z M 132.000305 108.000198 L 137.818298 116.000198 L 136.000305 116.000198 L 128.000305 116.000198 L 126.181297 116.000198 Z M 194.000305 184.000198 C 194.000305 185.104202 193.104294 186.000198 192.000305 186.000198 C 190.895294 186.000198 190.000305 185.104202 190.000305 184.000198 C 190.000305 182.895203 190.895294 182.000198 192.000305 182.000198 C 193.104294 182.000198 194.000305 182.895203 194.000305 184.000198 M 172.000305 168.000198 L 168.000305 168.000198 L 164.000305 168.000198 L 160.000305 168.000198 L 160.000305 156.000198 L 164.000305 156.000198 L 171.855301 156.000198 L 167.235306 149.647202 L 135.235306 105.647202 L 132.000305 101.199203 L 128.765305 105.647202 L 96.765297 149.647202 L 92.145294 156.000198 L 100.000298 156.000198 L 104.000298 156.000198 L 104.000298 168.000198 L 100.000298 168.000198 L 96.000298 168.000198 L 92.000298 168.000198 C 71.630302 168.000198 55.481304 183.911194 47.669308 193.395203 C 44.0173 197.829193 43.011303 203.721191 44.979305 209.155197 C 46.911297 214.492203 51.350307 218.300201 56.851299 219.341202 C 59.164303 219.778198 61.733303 220.000198 64.488289 220.000198 L 96.000298 220.000198 L 100.000298 220.000198 L 164.000305 220.000198 L 168.000305 220.000198 L 199.511307 220.000198 C 202.266296 220.000198 204.836304 219.778198 207.1483 219.341202 C 212.650299 218.300201 217.088303 214.492203 219.020294 209.155197 C 220.988297 203.721191 219.983307 197.829193 216.331299 193.395203 C 208.518295 183.911194 192.3703 168.000198 172.000305 168.000198"/>
    <path id="path3" fill="#ffffff" stroke="none" d="M 198 208 C 194.686996 208 192 205.313004 192 202 C 192 198.686996 194.686996 196 198 196 C 201.313004 196 204 198.686996 204 202 C 204 205.313004 201.313004 208 198 208 M 198 192 C 192.477997 192 188 196.477997 188 202 C 188 207.522003 192.477997 212 198 212 C 203.522003 212 208 207.522003 208 202 C 208 196.477997 203.522003 192 198 192"/>
    <path id="path4" fill="#ffffff" stroke="none" d="M 182 186 L 178 186 L 178 182 L 182 182 Z M 186 178 L 182 178 L 178 178 L 174 178 L 174 182 L 174 186 L 174 190 L 178 190 L 182 190 L 186 190 L 186 186 L 186 184 L 186 182 Z"/>
    <path id="path5" fill="#ffffff" stroke="none" d="M 132 188 C 129.791 188 128 186.209 128 184 C 128 181.791 129.791 180 132 180 C 134.209 180 136 181.791 136 184 C 136 186.209 134.209 188 132 188 M 132 176 C 127.582001 176 124 179.582001 124 184 C 124 188.417999 127.582001 192 132 192 C 136.417999 192 140 188.417999 140 184 C 140 179.582001 136.417999 176 132 176"/>
    <path id="path6" fill="#ffffff" stroke="none" d="M 112 186 C 110.896004 186 110 185.104004 110 184 C 110 182.895996 110.896004 182 112 182 C 113.103996 182 114 182.895996 114 184 C 114 185.104004 113.103996 186 112 186 M 112 178 C 108.691002 178 106 180.69101 106 184 C 106 187.30899 108.691002 190 112 190 C 115.308998 190 118 187.30899 118 184 C 118 180.69101 115.308998 178 112 178"/>
    <path id="path7" fill="#ffffff" stroke="none" d="M 156 188 L 152 188 L 152 180 L 156 180 Z M 148 188 L 144 188 L 144 180 L 148 180 Z M 152 176 L 148 176 L 144 176 L 140 176 L 140 180 L 140 184 L 140 188 L 140 192 L 144 192 L 148 192 L 152 192 L 156 192 L 160 192 L 160 188 L 160 180 L 160 176 L 156 176 Z"/>
    <path id="path8" fill="#ffffff" stroke="none" d="M 93.6978 76.0513 C 90.554802 78.375305 87.393799 80.466293 84.2798 82.330307 C 83.254799 80.525299 85.148804 76.429306 88.789803 72.789307 C 91.652802 69.9263 94.7948 68.1483 96.885803 68.015305 L 103.816803 36.823303 C 105.354797 36.437302 106.8088 36.166306 108.177803 36.000305 L 111.999802 36.000305 L 111.999802 58.899292 C 107.483803 64.514297 101.213799 70.494293 93.6978 76.0513 M 49.524799 89.488297 C 44.1688 82.832306 55.261799 66.025299 74.301804 51.948303 C 83.007797 45.513306 91.862801 40.768295 99.426804 38.143295 L 93.510803 64.762299 C 91.054802 65.715302 88.394798 67.527298 85.9608 69.961304 C 83.720802 72.201294 81.938797 74.716293 80.941803 77.042297 C 79.4468 80.530304 79.968803 82.879303 80.8078 84.3293 C 71.5718 89.387299 63.001801 92.199295 56.955799 92.199295 C 53.590801 92.199295 51.005798 91.328293 49.524799 89.488297 M 118.4758 38.512299 C 120.994804 41.642303 119.873802 47.018295 115.999802 53.299301 L 115.999802 36.692291 C 117.004799 37.132294 117.845802 37.729294 118.4758 38.512299 M 123.6978 44.6203 C 124.248802 40.346298 122.856804 37.576294 121.591797 36.004303 C 120.048798 34.086304 116.965797 31.800293 111.0448 31.800293 C 101.041801 31.800293 86.051804 38.2883 71.924797 48.7323 C 56.376801 60.226303 45.534801 73.826294 44.3018 83.380295 C 43.750801 87.653305 45.142799 90.424301 46.407799 91.9953 C 47.951801 93.9133 51.033798 96.199295 56.955799 96.199295 C 66.958801 96.199295 81.9478 89.712296 96.075798 79.267303 C 111.622803 67.7733 122.465797 54.173294 123.6978 44.6203"/>
    <path id="path9" fill="#ffffff" stroke="none" d="M 187.658203 148 L 206.000198 148 L 226.719208 175.625 L 223.625198 178.718994 L 194.808197 157.106003 C 193.932205 156.005997 191.291199 152.678009 187.658203 148 M 212.098206 228 L 43.901196 228 C 17.755199 228 2.751202 199.798004 18.304195 179.886002 L 43.261196 148.917999 L 44.937206 150.593994 L 28.000195 176 L 36.000195 184 L 68.000206 160 L 112.000206 100 L 111.867203 99.973999 C 116.068207 93.244995 119.114204 87.541992 120.000206 84 C 122.018204 75.927002 121.292206 71.040009 119.939201 68.117996 C 122.021202 65.686996 123.876198 63.259003 125.450203 60.873001 C 125.461205 60.856995 125.4702 60.84201 125.481201 60.825989 C 127.8992 60.285004 130.369202 60 132.841202 60 C 142.619202 60 152.387207 64.212997 158.726196 72.589996 L 179.732193 101.130997 L 175.079193 104.233002 L 172.000198 100 L 175.500198 100 L 146.723206 67.112 C 145.912201 66.184998 144.795197 65.737 143.690201 65.737 C 142.260208 65.737 140.849197 66.488007 140.150208 67.923004 C 138.740204 70.820999 137.936203 75.748001 140.000198 84 C 140.887207 87.546997 143.939194 93.259995 148.1492 100 L 148.000198 100 L 180.000198 144 L 179.521194 144 C 186.721207 153.401001 192.000198 160 192.000198 160 L 224.000198 184 L 232.000198 176 L 208.000198 144 L 204.000198 144 L 192.363205 128 L 196.639206 128 L 198.043198 128 L 198.966202 127.261993 L 237.696198 179.886002 C 253.249207 199.798004 238.245209 228 212.098206 228 M 61.333202 160 L 36.375195 178.718994 L 33.147198 175.48999 L 47.822201 153.479004 L 53.1712 158.828003 L 54.343197 160 L 56.000195 160 Z M 36.000195 136 L 26.242199 145.757996 C 25.8522 146.147003 25.340206 146.343002 24.828197 146.343002 C 24.316204 146.343002 23.804195 146.147003 23.414196 145.757996 L 14.2422 136.585999 C 13.461194 135.804993 13.461194 134.537994 14.2422 133.757996 L 39.414196 108.585999 C 39.804195 108.195007 40.316204 108 40.828197 108 C 41.340206 108 41.8522 108.195007 42.242199 108.585999 L 51.414196 117.757004 C 52.195202 118.539001 52.195202 119.804993 51.414196 120.585999 L 40.000195 132 L 52.000195 144 L 60.000202 152 L 68.000206 152 L 64.000206 156 L 56.000195 156 Z M 84.293205 100 L 88.666206 100 L 54.571194 140.914001 L 52.339199 138.682999 Z M 104.145203 104 L 72.000206 144 L 57.657192 144 L 56.760204 143.104004 L 89.895203 104 Z M 112.000206 88 L 104.000206 96 L 98.285202 96 L 92.000206 96 L 87.597206 96 L 84.133202 96 C 89.7052 93.145004 95.423203 89.600998 101.046204 85.444 C 104.964203 82.546997 108.643204 79.48999 112.000206 76.362 Z M 116.119202 83.029999 C 116.086205 83.162994 116.045204 83.30899 116.000206 83.462997 L 116.000206 72.436996 C 116.300201 72.126999 116.598206 71.817993 116.890205 71.507996 C 117.431206 73.802002 117.523201 77.416 116.119202 83.029999 M 43.080196 94.251007 C 36.886196 86.554001 41.188198 76.450989 45.887203 69.330994 C 51.063198 61.48999 59.389202 53.123001 69.332207 45.772003 C 84.385201 34.643997 99.978203 28 111.044205 28 C 118.689201 28 122.809204 31.126007 124.919205 33.748001 C 131.114197 41.445999 126.812202 51.549011 122.112206 58.669006 C 116.937202 66.51001 108.611206 74.876999 98.668205 82.227997 C 83.615204 93.356003 68.021202 100 56.955196 100 C 49.311199 100 45.190197 96.873993 43.080196 94.251007 M 236.562195 75.75 C 238.750198 75.75 240.000198 76 240.000198 76 L 244.000198 84 C 244.000198 84 236.000198 84 228.000198 88 C 224.283203 89.858002 221.430206 93.442001 219.040207 96.748993 C 216.953201 94.709991 212.161194 90.358002 207.4142 88.304993 C 219.736206 77.330994 231.087204 75.75 236.562195 75.75 M 227.407196 96.444 C 226.122208 96.444 225.124207 96.274002 224.549194 96.143997 C 226.126205 94.240997 227.849197 92.546997 229.7892 91.578003 C 234.263199 89.339996 238.792206 88.503998 241.502197 88.190002 C 236.603195 95.136993 230.935196 96.444 227.407196 96.444 M 188.639206 116 L 180.639206 108 C 180.639206 108 194.529205 94.110992 201.473206 94.110992 C 202.861206 94.110992 203.973206 94.666992 204.639206 96 C 208.639206 104 188.639206 116 188.639206 116 M 181.756195 126.884003 C 181.421204 127.218994 181.056198 127.583008 180.639206 128 C 179.840195 128.800003 179.040207 129.119995 178.272202 129.119995 C 175.200195 129.119995 172.639206 124 172.639206 124 C 171.801193 124 171.048203 123.979004 170.3582 123.942001 L 166.560196 118.720001 L 173.311203 114.218994 L 176.061203 112.386002 L 184.563202 124.076004 C 184.387207 124.253006 183.7892 124.850998 181.756195 126.884003 M 216.633194 100.097 C 214.954193 102.362 213.476196 104 212.000198 104 L 208.5392 101.692001 C 209.393204 99.216995 209.451202 96.679001 208.218201 94.210999 C 207.916199 93.608002 207.547195 93.070999 207.129196 92.591995 C 211.719208 95.080994 216.639206 100 216.639206 100 C 216.639206 100.031006 216.634201 100.065002 216.633194 100.097 M 169.963196 104 L 172.639206 107.681 L 172.639206 108 L 172.639206 109.859009 L 164.206207 115.481995 L 155.855194 104 Z M 150.381195 96 C 145.848206 88.557007 144.336197 84.850006 143.881195 83.029999 C 141.951202 75.311005 142.9272 71.415009 143.713196 69.746002 L 166.684204 96 Z M 182.037201 140 L 176.937195 132.988007 C 177.367203 133.072998 177.812195 133.119995 178.272202 133.119995 C 179.597198 133.119995 181.574203 132.722992 183.469193 130.828003 L 186.297195 128 L 187.418198 128 L 196.144196 140 Z M 196.639206 124 L 189.454193 124 L 189.369202 123.882004 L 187.968201 121.781006 L 186.376205 119.393005 L 188.019196 121.037003 L 190.698196 119.429993 C 193.242203 117.903 202.342194 112.136002 206.746201 105.304993 L 209.781204 107.328003 L 210.7892 108 L 212.000198 108 C 212.318207 108 212.623199 107.968994 212.924194 107.925003 C 207.140198 115.597 196.639206 124 196.639206 124 M 202.042206 124.694 C 204.004196 123.005005 206.721207 120.576004 209.469208 117.828995 C 216.309204 110.988007 219.014206 106.509003 220.044205 103.445007 L 224.821198 100.259995 C 225.537201 100.363998 226.410202 100.444 227.407196 100.444 C 231.913208 100.444 240.127197 98.761993 246.391205 87.987 L 250.443207 87.964996 L 248.471207 84.002991 L 248.472198 84 L 247.578201 82.210999 L 243.578201 74.210999 L 242.703201 72.460999 L 240.784195 72.078003 C 240.5112 72.02301 239.021194 71.75 236.562195 71.75 C 229.500198 71.75 216.432205 73.921997 202.716202 87.188995 C 200.962204 87.205002 199.398193 87.770996 198.162201 88.843994 L 183.064194 98.910004 L 161.948196 70.218994 L 161.932205 70.196991 L 161.916199 70.175995 C 155.098206 61.166992 144.501205 56 132.841202 56 C 131.259201 56 129.698196 56.112 128.159195 56.306 C 134.634201 44.005005 131.838196 35.964996 128.035202 31.240997 C 125.378204 27.936996 120.272202 24 111.044205 24 C 99.153206 24 82.671204 30.936996 66.954201 42.556 C 56.6432 50.179001 47.976192 58.904999 42.549206 67.126999 C 32.705196 82.041 35.710201 91.472992 39.964199 96.759003 C 42.622204 100.061996 47.7272 104 56.955196 104 C 62.293201 104 68.560204 102.591995 75.264206 100 L 79.105202 100 L 49.498196 135.84201 L 45.657192 132 L 54.242199 123.414001 C 55.376202 122.281006 56.000195 120.774002 56.000195 119.171005 C 56.000195 117.569 55.376202 116.061996 54.242199 114.929001 L 45.071194 105.757004 C 43.938198 104.623993 42.431194 104 40.828197 104 C 39.225201 104 37.719204 104.623993 36.586193 105.757004 L 11.414197 130.929001 C 9.075208 133.268997 9.075208 137.074997 11.414197 139.414001 L 20.586193 148.585999 C 21.719204 149.718994 23.225201 150.343002 24.828197 150.343002 C 26.431194 150.343002 27.938198 149.718994 29.071194 148.585999 L 36.000195 141.656998 L 40.761196 146.417999 L 15.220197 177.337997 L 15.185193 177.380997 L 15.151196 177.423996 C 7.1582 187.656006 5.751202 200.662994 11.387204 212.21701 C 17.340206 224.419998 29.799206 232 43.901196 232 L 212.098206 232 C 226.201202 232 238.660202 224.419998 244.612198 212.21701 C 250.240204 200.681 248.846207 187.696991 240.8862 177.471008 Z"/>
</svg>
