<?xml version="1.0" encoding="UTF-8"?>
<!-- Generated by Pixelmator Pro 3.7.1 -->
<svg width="256" height="256" viewBox="0 0 256 256" xmlns="http://www.w3.org/2000/svg">
    <path id="Path" fill="#ffffff" stroke="none" d="M 244 164 L 172 167.789001 L 172 88.209991 L 244 92 Z M 88 88 L 168 88 L 168 168 L 88 168 Z M 12 92 L 84 88.209991 L 84 167.789001 L 12 164 Z M 244.210007 88.005005 L 168.209991 84.005005 L 168.105011 84 L 168 84 L 88 84 L 87.895004 84 L 87.789993 84.005005 L 11.789993 88.005005 L 8 88.205002 L 8 92 L 8 164 L 8 167.794998 L 11.789993 167.994003 L 87.789993 171.994003 L 87.895004 172 L 88 172 L 168 172 L 168.105011 172 L 168.209991 171.994003 L 244.210007 167.994003 L 248 167.794998 L 248 164 L 248 92 L 248 88.205002 Z"/>
    <path id="path1" fill="#ffffff" stroke="none" d="M 76 116 L 64 116 L 64 104 L 76 104 Z M 76 128 L 59.841 128 C 59.935001 127.345001 60 126.681 60 126 C 60 118.268005 53.731998 112 46 112 C 38.268002 112 32 118.268005 32 126 C 32 126.681 32.064999 127.345001 32.159 128 L 20 128 L 20 100 L 76 96 L 76 100 L 64 100 C 61.791 100 60 101.791 60 104 L 60 116 C 60 118.209 61.791 120 64 120 L 76 120 Z M 46 136 C 40.486 136 36 131.514008 36 126 C 36 120.485992 40.486 116 46 116 C 51.514 116 56 120.485992 56 126 C 56 131.514008 51.514 136 46 136 M 76 160 L 20 156 L 20 132 L 33.365002 132 C 35.613998 136.725998 40.417999 140 46 140 C 51.582001 140 56.386002 136.725998 58.634998 132 L 76 132 Z M 75.714996 92.009995 L 19.715 96.009995 L 16 96.274994 L 16 100 L 16 128 L 16 132 L 16 156 L 16 159.725006 L 19.715 159.98999 L 75.714996 163.98999 L 80 164.29599 L 80 160 L 80 116 L 80 104 L 80 96 L 80 91.703995 Z"/>
    <path id="path2" fill="#ffffff" stroke="none" d="M 56 152 L 72 152 L 72 148 L 56 148 Z"/>
    <path id="path3" fill="#ffffff" stroke="none" d="M 180 104 L 192 104 L 192 116 L 180 116 Z M 180 96 L 236 100 L 236 128 L 223.841003 128 C 223.934998 127.345001 224 126.681 224 126 C 224 118.268005 217.731995 112 210 112 C 202.268005 112 196 118.268005 196 126 C 196 126.681 196.065002 127.345001 196.158997 128 L 180 128 L 180 120 L 192 120 C 194.209 120 196 118.209 196 116 L 196 104 C 196 101.791 194.209 100 192 100 L 180 100 Z M 210 136 C 204.485992 136 200 131.514008 200 126 C 200 120.485992 204.485992 116 210 116 C 215.514008 116 220 120.485992 220 126 C 220 131.514008 215.514008 136 210 136 M 236 156 L 180 160 L 180 132 L 197.365005 132 C 199.613998 136.725998 204.417999 140 210 140 C 215.582001 140 220.386002 136.725998 222.634995 132 L 236 132 Z M 180.285004 163.98999 L 236.285004 159.98999 L 240 159.725006 L 240 156 L 240 132 L 240 128 L 240 100 L 240 96.274994 L 236.285004 96.009995 L 180.285004 92.009995 L 176 91.703995 L 176 96 L 176 104 L 176 116 L 176 160 L 176 164.29599 Z"/>
    <path id="path4" fill="#ffffff" stroke="none" d="M 184 152 L 200 152 L 200 148 L 184 148 Z"/>
    <path id="path5" fill="#ffffff" stroke="none" d="M 92 100 L 164 100 L 164 96 L 92 96 Z"/>
    <path id="path6" fill="#ffffff" stroke="none" d="M 108 104 L 92 104 L 92 108 L 108 108 Z"/>
    <path id="path7" fill="#ffffff" stroke="none" d="M 148 108 L 164 108 L 164 104 L 148 104 Z"/>
    <path id="path8" fill="#ffffff" stroke="none" d="M 92 116 L 164 116 L 164 112 L 92 112 Z"/>
    <path id="path9" fill="#ffffff" stroke="none" d="M 92 124 L 164 124 L 164 120 L 92 120 Z"/>
    <path id="path10" fill="#ffffff" stroke="none" d="M 92 132 L 164 132 L 164 128 L 92 128 Z"/>
    <path id="path11" fill="#ffffff" stroke="none" d="M 92 140 L 164 140 L 164 136 L 92 136 Z"/>
    <path id="path12" fill="#ffffff" stroke="none" d="M 92 148 L 164 148 L 164 144 L 92 144 Z"/>
    <path id="path13" fill="#ffffff" stroke="none" d="M 92 156 L 164 156 L 164 152 L 92 152 Z"/>
</svg>
