<?xml version="1.0" encoding="UTF-8"?>
<!-- Generated by Pixelmator Pro 3.7.1 -->
<svg width="256" height="256" viewBox="0 0 256 256" xmlns="http://www.w3.org/2000/svg">
    <path id="Path" fill="#ffffff" stroke="none" d="M 244 180 L 12 180 L 12 80 L 244 80 Z M 244 76 L 12 76 L 8 76 L 8 80 L 8 180 L 8 184 L 12 184 L 244 184 L 248 184 L 248 180 L 248 80 L 248 76 Z"/>
    <path id="path1" fill="#ffffff" stroke="none" d="M 20 88 L 236 88 L 236 172 L 20 172 Z M 236 176 L 240 176 L 240 172 L 240 88 L 240 84 L 236 84 L 20 84 L 16 84 L 16 88 L 16 172 L 16 176 L 20 176 Z"/>
    <path id="path2" fill="#ffffff" stroke="none" d="M 228 120 L 224 120 L 168 120 L 164 120 L 92 120 L 88 120 L 32 120 L 28 120 L 28 96 L 228 96 Z M 224 160 L 168 160 L 168 124 L 224 124 Z M 88 160 L 32 160 L 32 124 L 88 124 Z M 28 92 L 24 92 L 24 96 L 24 120 L 24 124 L 28 124 L 28 160 L 28 164 L 32 164 L 88 164 L 92 164 L 92 160 L 92 124 L 164 124 L 164 160 L 164 164 L 168 164 L 224 164 L 228 164 L 228 160 L 228 124 L 232 124 L 232 120 L 232 96 L 232 92 L 228 92 Z"/>
    <path id="path3" fill="#ffffff" stroke="none" d="M 100 132 L 156 132 L 156 136 L 132 136 L 124 136 L 100 136 Z M 156 156 L 100 156 L 100 152 L 124 152 L 132 152 L 156 152 Z M 108 144 L 108 148 L 100 148 L 100 140 L 108 140 Z M 141.541 148 L 132 148 L 124 148 L 112 148 L 112 144 L 112 140 L 124 140 L 132 140 L 141.541 140 C 140.585999 141.063004 140 142.462997 140 144 C 140 145.537003 140.585999 146.938004 141.541 148 M 150.459 140 L 156 140 L 156 148 L 150.459 148 C 151.414001 146.938004 152 145.537003 152 144 C 152 142.462997 151.414001 141.063004 150.459 140 M 146 142 C 147.104004 142 148 142.895996 148 144 C 148 145.104004 147.104004 146 146 146 C 144.895996 146 144 145.104004 144 144 C 144 142.895996 144.895996 142 146 142 M 96 136 L 96 140 L 96 148 L 96 152 L 96 160 L 160 160 L 160 152 L 160 148 L 160 140 L 160 136 L 160 128 L 96 128 Z"/>
    <path id="path4" fill="#ffffff" stroke="none" d="M 60 140 C 62.206001 140 64 141.794006 64 144 C 64 146.205002 62.206001 148 60 148 C 57.793999 148 56 146.205002 56 144 C 56 141.794006 57.793999 140 60 140 M 60 152 C 64.417999 152 68 148.417999 68 144 C 68 139.582001 64.417999 136 60 136 C 55.582001 136 52 139.582001 52 144 C 52 148.417999 55.582001 152 60 152"/>
    <path id="path5" fill="#ffffff" stroke="none" d="M 196 140 C 198.205994 140 200 141.794006 200 144 C 200 146.205002 198.205994 148 196 148 C 193.794998 148 192 146.205002 192 144 C 192 141.794006 193.794998 140 196 140 M 196 152 C 200.417999 152 204 148.417999 204 144 C 204 139.582001 200.417999 136 196 136 C 191.582001 136 188 139.582001 188 144 C 188 148.417999 191.582001 152 196 152"/>
</svg>
