<?xml version="1.0" encoding="UTF-8"?>
<!-- Generated by Pixelmator Pro 3.7.1 -->
<svg width="256" height="256" viewBox="0 0 256 256" xmlns="http://www.w3.org/2000/svg">
    <path id="Path" fill="#ffffff" stroke="none" d="M 46 164 C 44.896 164 44 163.104004 44 162 C 44 160.895996 44.896 160 46 160 C 47.104 160 48 160.895996 48 162 C 48 163.104004 47.104 164 46 164 M 41.757 157.757996 C 39.414001 160.100998 39.414001 163.899002 41.757 166.242004 C 44.101002 168.585999 47.898998 168.585999 50.243 166.242004 C 52.585999 163.899002 52.585999 160.100998 50.243 157.757996 C 47.898998 155.414001 44.101002 155.414001 41.757 157.757996"/>
    <path id="path1" fill="#ffffff" stroke="none" d="M 210 160 C 211.104004 160 212 160.895996 212 162 C 212 163.104004 211.104004 164 210 164 C 208.895996 164 208 163.104004 208 162 C 208 160.895996 208.895996 160 210 160 M 214.242004 166.242004 C 216.585999 163.899002 216.585999 160.100998 214.242004 157.757996 C 211.899002 155.414001 208.100998 155.414001 205.757996 157.757996 C 203.414001 160.100998 203.414001 163.899002 205.757996 166.242004 C 208.100998 168.585999 211.899002 168.585999 214.242004 166.242004"/>
    <path id="path2" fill="#ffffff" stroke="none" d="M 143.620102 120 L 141.074097 148 L 114.926102 148 L 112.380096 120 Z M 116.000099 152 L 140.000107 152 L 140.000107 156 L 116.000099 156 Z M 112.000099 160 L 144.000107 160 L 148.000107 116 L 108.000099 116 Z"/>
    <path id="path3" fill="#ffffff" stroke="none" d="M 136 176 L 120 176 L 120 180 L 136 180 Z"/>
    <path id="path4" fill="#ffffff" stroke="none" d="M 144 190 C 144 191.104004 143.104004 192 142 192 C 140.895996 192 140 191.104004 140 190 C 140 188.895996 140.895996 188 142 188 C 143.104004 188 144 188.895996 144 190 M 136 190 C 136 193.313004 138.686996 196 142 196 C 145.313004 196 148 193.313004 148 190 C 148 186.686996 145.313004 184 142 184 C 138.686996 184 136 186.686996 136 190"/>
    <path id="path5" fill="#ffffff" stroke="none" d="M 110 196 L 114 196 L 114 188 L 110 188 Z"/>
    <path id="path6" fill="#ffffff" stroke="none" d="M 78 180 C 76.896004 180 76 179.104004 76 178 C 76 176.895996 76.896004 176 78 176 C 79.103996 176 80 176.895996 80 178 C 80 179.104004 79.103996 180 78 180 M 73.757004 173.757996 C 71.414001 176.100998 71.414001 179.899002 73.757004 182.242004 C 76.100998 184.585999 79.899002 184.585999 82.242996 182.242004 C 84.585999 179.899002 84.585999 176.100998 82.242996 173.757996 C 79.899002 171.414001 76.100998 171.414001 73.757004 173.757996"/>
    <path id="path7" fill="#ffffff" stroke="none" d="M 178 180 C 176.895996 180 176 179.104004 176 178 C 176 176.895996 176.895996 176 178 176 C 179.104004 176 180 176.895996 180 178 C 180 179.104004 179.104004 180 178 180 M 173.757996 173.757996 C 171.414001 176.100998 171.414001 179.899002 173.757996 182.242004 C 176.100998 184.585999 179.899002 184.585999 182.242004 182.242004 C 184.585999 179.899002 184.585999 176.100998 182.242004 173.757996 C 179.899002 171.414001 176.100998 171.414001 173.757996 173.757996"/>
    <path id="path8" fill="#ffffff" stroke="none" d="M 192 76 L 188 56 L 68 56 L 64 76 L 12 76 L 20 52 L 128 52 L 236 52 L 244 76 Z M 244 160.110001 L 210.994003 104 L 203.794998 86.735001 L 202.882996 84 L 200 84 L 192 84 L 192 80 L 244 80 Z M 229.429001 168 L 196 116 L 202 104 L 204 104 L 206.352997 104 L 244 168 Z M 177.414993 198.584 L 156.093994 163.048004 L 159.681 120 L 193.815994 120 L 226.356003 170.617996 Z M 165.597 198 L 146.929993 170 L 109.07 170 L 90.403999 198 L 83.599998 198 L 104 164 L 100 116 L 64.472 116 L 63.578003 114.210999 L 58.472 104 L 197.528 104 L 192.421997 114.210999 L 191.526993 116 L 156 116 L 152 164 L 172.399994 198 Z M 95.210999 198 L 111.210999 174 L 144.789001 174 L 160.789001 198 Z M 78.584999 198.584 L 29.643997 170.617996 L 31.326996 168 L 62.184006 120 L 96.319 120 L 99.906998 163.048004 Z M 12 168 L 49.647003 104 L 52 104 L 54 104 L 60 116 L 26.570999 168 Z M 64 84 L 56 84 L 53.117004 84 L 52.205002 86.735001 L 45.005997 104 L 12 160.110001 L 12 80 L 64 80 Z M 192 88 L 200 88 L 204 100 L 52 100 L 56 88 L 64 88 Z M 188 84 L 68 84 L 68 76.395996 L 71.278999 60 L 184.720993 60 L 188 76.395996 Z M 247.794998 74.735001 L 239.794998 50.735001 L 238.882996 48 L 236 48 L 128 48 L 20 48 L 17.117004 48 L 16.205002 50.735001 L 8.205002 74.735001 L 8 75.350998 L 8 76 L 8 80 L 8 168 L 8 172 L 12 172 L 24 172 L 80 204 L 81.199997 202 L 87.737 202 L 168.263 202 L 174.800003 202 L 176 204 L 232 172 L 244 172 L 248 172 L 248 168 L 248 80 L 248 76 L 248 75.350998 Z"/>
</svg>
