<?xml version="1.0" encoding="UTF-8"?>
<!-- Generated by Pixelmator Pro 3.7.1 -->
<svg width="256" height="256" viewBox="0 0 256 256" xmlns="http://www.w3.org/2000/svg">
    <path id="Path" fill="#ffffff" stroke="none" d="M 28 72 L 24 72 L 24 84 L 28 84 Z"/>
    <path id="path1" fill="#ffffff" stroke="none" d="M 36 72 L 32 72 L 32 84 L 36 84 Z"/>
    <path id="path2" fill="#ffffff" stroke="none" d="M 44 72 L 40 72 L 40 84 L 44 84 Z"/>
    <path id="path3" fill="#ffffff" stroke="none" d="M 52 72 L 48 72 L 48 84 L 52 84 Z"/>
    <path id="path4" fill="#ffffff" stroke="none" d="M 60 72 L 56 72 L 56 84 L 60 84 Z"/>
    <path id="path5" fill="#ffffff" stroke="none" d="M 68 72 L 64 72 L 64 84 L 68 84 Z"/>
    <path id="path6" fill="#ffffff" stroke="none" d="M 76 72 L 72 72 L 72 84 L 76 84 Z"/>
    <path id="path7" fill="#ffffff" stroke="none" d="M 84 72 L 80 72 L 80 84 L 84 84 Z"/>
    <path id="path8" fill="#ffffff" stroke="none" d="M 92 72 L 88 72 L 88 84 L 92 84 Z"/>
    <path id="path9" fill="#ffffff" stroke="none" d="M 100 72 L 96 72 L 96 84 L 100 84 Z"/>
    <path id="path10" fill="#ffffff" stroke="none" d="M 108 72 L 104 72 L 104 84 L 108 84 Z"/>
    <path id="path11" fill="#ffffff" stroke="none" d="M 116 72 L 112 72 L 112 84 L 116 84 Z"/>
    <path id="path12" fill="#ffffff" stroke="none" d="M 124 72 L 120 72 L 120 84 L 124 84 Z"/>
    <path id="path13" fill="#ffffff" stroke="none" d="M 132 72 L 128 72 L 128 84 L 132 84 Z"/>
    <path id="path14" fill="#ffffff" stroke="none" d="M 140 72 L 136 72 L 136 84 L 140 84 Z"/>
    <path id="path15" fill="#ffffff" stroke="none" d="M 148 72 L 144 72 L 144 84 L 148 84 Z"/>
    <path id="path16" fill="#ffffff" stroke="none" d="M 160 72 L 156 72 L 156 108 L 160 108 Z"/>
    <path id="path17" fill="#ffffff" stroke="none" d="M 168 72 L 164 72 L 164 108 L 168 108 Z"/>
    <path id="path18" fill="#ffffff" stroke="none" d="M 176 72 L 172 72 L 172 108 L 176 108 Z"/>
    <path id="path19" fill="#ffffff" stroke="none" d="M 184 72 L 180 72 L 180 108 L 184 108 Z"/>
    <path id="path20" fill="#ffffff" stroke="none" d="M 192 72 L 188 72 L 188 108 L 192 108 Z"/>
    <path id="path21" fill="#ffffff" stroke="none" d="M 200 72 L 196 72 L 196 108 L 200 108 Z"/>
    <path id="path22" fill="#ffffff" stroke="none" d="M 208 72 L 204 72 L 204 108 L 208 108 Z"/>
    <path id="path23" fill="#ffffff" stroke="none" d="M 216 72 L 212 72 L 212 108 L 216 108 Z"/>
    <path id="path24" fill="#ffffff" stroke="none" d="M 224 72 L 220 72 L 220 108 L 224 108 Z"/>
    <path id="path25" fill="#ffffff" stroke="none" d="M 232 72 L 228 72 L 228 108 L 232 108 Z"/>
    <path id="path26" fill="#ffffff" stroke="none" d="M 244 172 L 236 172 L 236 160 L 236 156 L 232 156 L 224 156 L 223 156 L 220 156 L 219 156 L 177 156 L 176 156 L 173 156 L 172 156 L 164 156 L 160 156 L 160 160 L 160 172 L 152 172 L 152 140 L 154 140 C 157.30899 140 160 137.30899 160 134 L 160 130 C 160 126.69101 157.30899 124 154 124 L 152 124 L 152 92 L 152 88 L 148 88 L 24 88 L 20 88 L 20 92 L 20 172 L 12 172 L 12 68 L 244 68 Z M 172 172 L 164 172 L 164 168 L 172 168 Z M 172 164 L 164 164 L 164 160 L 172 160 Z M 220 164 L 220 168 L 216 172 L 180 172 L 176 168 L 176 164 L 176 160 L 219 160 L 220 160 Z M 232 164 L 224 164 L 224 160 L 232 160 Z M 224 168 L 232 168 L 232 172 L 224 172 Z M 244 188 L 152 188 L 152 176 L 160 176 L 164 176 L 172 176 L 176 176 L 178 176 L 180 176 L 216 176 L 218 176 L 220 176 L 224 176 L 232 176 L 236 176 L 244 176 Z M 88 188 L 88 176 L 140 176 L 144 176 L 148 176 L 148 188 Z M 140 172 L 32 172 L 32 160 L 140 160 Z M 148 128 L 148 136 L 148 140 L 148 172 L 144 172 L 144 160 L 144 156 L 140 156 L 32 156 L 28 156 L 28 160 L 28 172 L 24 172 L 24 92 L 148 92 L 148 124 Z M 152 128 L 154 128 C 155.104004 128 156 128.895996 156 130 L 156 134 C 156 135.104004 155.104004 136 154 136 L 152 136 Z M 24 188 L 24 176 L 28 176 L 32 176 L 86 176 L 86 188 Z M 12 176 L 20 176 L 20 188 L 12 188 Z M 244 64 L 12 64 L 8 64 L 8 68 L 8 172 L 8 176 L 8 180 L 8 184 L 8 188 L 8 192 L 12 192 L 244 192 L 248 192 L 248 188 L 248 184 L 248 180 L 248 176 L 248 172 L 248 68 L 248 64 Z"/>
    <path id="path27" fill="#ffffff" stroke="none" d="M 28 108 L 32 108 L 32 96 L 28 96 Z"/>
    <path id="path28" fill="#ffffff" stroke="none" d="M 36 108 L 40 108 L 40 96 L 36 96 Z"/>
    <path id="path29" fill="#ffffff" stroke="none" d="M 44 108 L 48 108 L 48 96 L 44 96 Z"/>
    <path id="path30" fill="#ffffff" stroke="none" d="M 52 108 L 56 108 L 56 96 L 52 96 Z"/>
    <path id="path31" fill="#ffffff" stroke="none" d="M 60 108 L 64 108 L 64 96 L 60 96 Z"/>
    <path id="path32" fill="#ffffff" stroke="none" d="M 68 108 L 72 108 L 72 96 L 68 96 Z"/>
    <path id="path33" fill="#ffffff" stroke="none" d="M 76 108 L 80 108 L 80 96 L 76 96 Z"/>
    <path id="path34" fill="#ffffff" stroke="none" d="M 84 108 L 88 108 L 88 96 L 84 96 Z"/>
    <path id="path35" fill="#ffffff" stroke="none" d="M 92 108 L 96 108 L 96 96 L 92 96 Z"/>
    <path id="path36" fill="#ffffff" stroke="none" d="M 100 108 L 104 108 L 104 96 L 100 96 Z"/>
    <path id="path37" fill="#ffffff" stroke="none" d="M 108 108 L 112 108 L 112 96 L 108 96 Z"/>
    <path id="path38" fill="#ffffff" stroke="none" d="M 116 108 L 120 108 L 120 96 L 116 96 Z"/>
    <path id="path39" fill="#ffffff" stroke="none" d="M 124 108 L 128 108 L 128 96 L 124 96 Z"/>
    <path id="path40" fill="#ffffff" stroke="none" d="M 132 108 L 136 108 L 136 96 L 132 96 Z"/>
    <path id="path41" fill="#ffffff" stroke="none" d="M 140 108 L 144 108 L 144 96 L 140 96 Z"/>
</svg>
