<?xml version="1.0" encoding="UTF-8"?>
<!-- Generated by Pixelmator Pro 3.7.1 -->
<svg width="256" height="256" viewBox="0 0 256 256" xmlns="http://www.w3.org/2000/svg">
    <path id="Path" fill="#ffffff" stroke="none" d="M 218.774399 164.046906 C 212.741394 164.356903 152.969406 167.467896 145.695404 167.999908 L 96.139397 167.999908 C 90.580399 167.496902 45.135391 164.435898 37.366394 164.045898 C 35.132401 163.066895 28.000399 154.8479 28.000399 128.009903 C 28.000399 127.944901 28.017397 122.713898 28.518404 115.999893 L 227.609406 115.999893 C 228.109406 122.710907 228.127396 127.938904 228.127396 127.999893 C 228.127396 154.935898 220.947403 163.120911 218.774399 164.046906 M 32.093399 94.693909 C 45.734406 93.0009 88.289398 92.0009 124.000397 91.999908 L 132.127396 91.999908 C 167.839401 91.999908 210.395401 93.0009 224.033401 94.692902 C 224.894394 97.116898 226.1884 101.9319 227.124405 110.6259 C 227.173401 111.086899 227.219406 111.5439 227.263397 111.999893 L 28.862398 111.999893 C 28.907396 111.5439 28.953402 111.086899 29.003405 110.6259 C 29.938402 101.9319 31.232393 97.116898 32.093399 94.693909 M 226.842407 91.062897 C 215.907394 89.137909 171.424408 87.999908 132.127396 87.999908 L 124.000397 87.999908 C 84.7034 88.0009 40.221405 89.138901 29.284395 91.062897 C 28.343401 92.904907 26.331408 98.067902 25.025408 110.197906 C 24.019396 119.551895 24.000399 127.921906 24.000399 128.004898 C 24.000399 158.775909 33.051392 167.270905 36.692398 168.01889 C 45.361404 168.395905 95.344398 171.889893 96.000397 171.999908 L 145.69841 171.999908 C 146.393402 171.8759 210.776398 168.395905 219.434402 168.01889 C 223.075394 167.270905 232.127396 158.775909 232.127396 127.999893 C 232.127396 127.921906 232.107407 119.551895 231.100403 110.197906 C 229.795395 98.066895 227.783401 92.904907 226.842407 91.062897"/>
    <path id="path1" fill="#ffffff" stroke="none" d="M 220.126999 180 C 220.126999 180 156.462997 183.628998 152 183.973999 C 152.070999 183.953003 145.945007 183.945999 137.582001 183.945999 C 119.823997 183.945999 91.985992 183.977997 92 183.979004 L 36 180 C 36 180 12.000001 180 12.000001 128 C 12.000001 128 12.000001 84 24.000002 80 C 36 76 124 76 124 76 L 132.126999 76 C 132.126999 76 220.126999 76 232.126999 80 C 244.126999 84 244.126999 128 244.126999 128 C 244.126999 180 220.126999 180 220.126999 180 M 246.593002 104.981995 C 244.324997 87.596008 240.130997 78.451996 233.391998 76.205002 C 221.130005 72.117996 141.199997 72 132.126999 72 L 124 72 C 114.926003 72 34.996994 72.117996 22.735003 76.205002 C 15.996003 78.451996 11.800996 87.596008 9.533998 104.981995 C 8.018006 116.606003 8.000001 127.540009 8.000001 128 C 8.000001 181.494995 33.074005 183.894989 35.798004 183.996002 L 91.716003 187.968994 C 91.811005 187.975998 91.906006 187.979004 92 187.979004 C 92.009003 187.979004 92.018005 187.979004 92.026001 187.979004 C 92.643997 187.977997 119.952995 187.945999 137.582001 187.945999 C 148.630997 187.945999 151.251999 187.959 151.763 187.96701 C 151.839996 187.972 151.917999 187.973999 151.996002 187.973999 C 152.100006 187.973999 152.203003 187.970001 152.307999 187.962006 C 156.619995 187.628998 218.014008 184.126999 220.294006 183.997009 C 222.834 183.915009 248.126999 181.727997 248.126999 128 C 248.126999 127.540009 248.108994 116.606003 246.593002 104.981995"/>
    <path id="path2" fill="#ffffff" stroke="none" d="M 56 148 C 51.582001 148 48 144.417999 48 140 C 48 135.582001 51.582001 132 56 132 C 60.417999 132 64 135.582001 64 140 C 64 144.417999 60.417999 148 56 148 M 56 128 C 49.373001 128 44 133.373001 44 140 C 44 146.626999 49.373001 152 56 152 C 62.626999 152 68 146.626999 68 140 C 68 133.373001 62.626999 128 56 128"/>
    <path id="path3" fill="#ffffff" stroke="none" d="M 196 148 C 191.582001 148 188 144.417999 188 140 C 188 135.582001 191.582001 132 196 132 C 200.417999 132 204 135.582001 204 140 C 204 144.417999 200.417999 148 196 148 M 196 128 C 189.373001 128 184 133.373001 184 140 C 184 146.626999 189.373001 152 196 152 C 202.626999 152 208 146.626999 208 140 C 208 133.373001 202.626999 128 196 128"/>
    <path id="path4" fill="#ffffff" stroke="none" d="M 120 148 L 132 148 L 132 152 L 120 152 Z M 112 148 L 108 148 L 108 140 L 112 140 Z M 152 142 L 152 152 C 152 156.411011 148.410995 160 144 160 L 108 160 C 103.588997 160 100 156.411011 100 152 L 100 136 C 100 131.588989 103.588997 128 108 128 L 116 128 L 116 132 L 116 136 L 112 136 L 108 136 L 104 136 L 104 140 L 104 148 L 104 152 L 108 152 L 112 152 L 116 152 L 116 156 L 120 156 L 132 156 L 136 156 L 136 152 L 136 148 L 136 144 L 132 144 L 120 144 L 116 144 L 116 140 L 120 140 L 132 140 L 136 140 L 136 136 L 136 132 L 136 128 L 144 128 C 148.410995 128 152 131.588989 152 136 Z M 120 132 L 132 132 L 132 136 L 120 136 Z M 144 124 L 108 124 C 101.400002 124 96 129.399994 96 136 L 96 152 C 96 158.600006 101.400002 164 108 164 L 144 164 C 150.600006 164 156 158.600006 156 152 L 156 136 C 156 129.399994 150.600006 124 144 124"/>
    <path id="path5" fill="#ffffff" stroke="none" d="M 146 144 C 144.895996 144 144 143.104004 144 142 C 144 140.895996 144.895996 140 146 140 C 147.104004 140 148 140.895996 148 142 C 148 143.104004 147.104004 144 146 144 M 146 136 C 142.690994 136 140 138.69101 140 142 C 140 145.30899 142.690994 148 146 148 C 149.309006 148 152 145.30899 152 142 C 152 138.69101 149.309006 136 146 136"/>
    <path id="path6" fill="#ffffff" stroke="none" d="M 41.336399 100 L 62.4534 100 L 62.4534 104 L 40.003399 104 Z M 40.003399 108 L 62.4534 108 C 64.662399 108 66.4534 106.209 66.4534 104 L 66.4534 100 C 66.4534 97.791 64.662399 96 62.4534 96 L 41.336399 96 C 39.614399 96 38.086399 97.102005 37.541401 98.735001 L 36.208401 102.735001 C 35.344398 105.324997 37.273399 108 40.003399 108"/>
</svg>
