<?xml version="1.0" encoding="UTF-8"?>
<!-- Generated by Pixelmator Pro 3.7.1 -->
<svg width="256" height="256" viewBox="0 0 256 256" xmlns="http://www.w3.org/2000/svg">
    <path id="Path" fill="#ffffff" stroke="none" d="M 240 176.725601 C 240 178.798599 238.442993 180.51059 236.378998 180.707611 L 159.809998 187.999603 L 96.190002 187.999603 L 19.621002 180.707611 C 17.557007 180.51059 16 178.798599 16 176.725601 L 16 79.274597 C 16 77.200592 17.557007 75.488602 19.621002 75.292603 L 96.190002 67.999603 L 159.809998 67.999603 L 236.378998 75.292603 C 238.442993 75.488602 240 77.200592 240 79.274597 Z M 236.759003 71.310593 L 160 63.999603 L 96 63.999603 L 19.242004 71.310593 C 15.136002 71.701599 12 75.149597 12 79.274597 L 12 176.725601 C 12 180.850601 15.136002 184.298599 19.242004 184.689606 L 96 191.999603 L 160 191.999603 L 236.759003 184.689606 C 240.863998 184.298599 244 180.850601 244 176.725601 L 244 79.274597 C 244 75.149597 240.863998 71.701599 236.759003 71.310593"/>
    <path id="path1" fill="#ffffff" stroke="none" d="M 24 88 L 232 88 L 232 84 L 24 84 Z"/>
    <path id="path2" fill="#ffffff" stroke="none" d="M 112 76 L 24 80 L 232 80 L 144 76 Z"/>
    <path id="path3" fill="#ffffff" stroke="none" d="M 92 96 L 232 96 L 232 92 L 92 92 Z"/>
    <path id="path4" fill="#ffffff" stroke="none" d="M 92 104 L 232 104 L 232 100 L 92 100 Z"/>
    <path id="path5" fill="#ffffff" stroke="none" d="M 32 92 L 24 92 L 24 96 L 32 96 Z"/>
    <path id="path6" fill="#ffffff" stroke="none" d="M 32 100 L 24 100 L 24 104 L 32 104 Z"/>
    <path id="path7" fill="#ffffff" stroke="none" d="M 128 176.001999 C 128.013 176.001999 128.024994 176.001007 128 176 C 127.974998 176.001007 127.987 176.001999 128 176.001999"/>
    <path id="path8" fill="#ffffff" stroke="none" d="M 228 168.150391 L 184 169.842407 L 184 120.000397 L 228 120.000397 Z M 230 116.000397 L 180 116.000397 L 180 174.000397 L 230.076996 172.074402 C 231.149994 172.03241 232 171.150391 232 170.075409 L 232 118.000397 C 232 116.895401 231.104004 116.000397 230 116.000397"/>
    <path id="path9" fill="#ffffff" stroke="none" d="M 50 152 C 44.486 152 40 147.514008 40 142 C 40 136.485992 44.486 132 50 132 C 55.514 132 60 136.485992 60 142 C 60 147.514008 55.514 152 50 152 M 50 128 C 42.268002 128 36 134.268005 36 142 C 36 149.731995 42.268002 156 50 156 C 57.731998 156 64 149.731995 64 142 C 64 134.268005 57.731998 128 50 128"/>
    <path id="path10" fill="#ffffff" stroke="none" d="M 206 132 C 211.514008 132 216 136.485992 216 142 C 216 147.514008 211.514008 152 206 152 C 200.485992 152 196 147.514008 196 142 C 196 136.485992 200.485992 132 206 132 M 206 156 C 213.731995 156 220 149.731995 220 142 C 220 134.268005 213.731995 128 206 128 C 198.268005 128 192 134.268005 192 142 C 192 149.731995 198.268005 156 206 156"/>
    <path id="path11" fill="#ffffff" stroke="none" d="M 116 128 L 144 128 L 144 136 L 116 136 Z M 144 140 L 148 140 L 148 136 L 148 128 L 148 124 L 144 124 L 116 124 L 112 124 L 112 128 L 112 136 L 112 140 L 116 140 Z"/>
    <path id="path12" fill="#ffffff" stroke="none" d="M 120 148 L 140 148 L 140 156 L 120 156 Z M 144 160 L 144 156 L 144 148 L 144 144 L 140 144 L 120 144 L 116 144 L 116 148 L 116 156 L 116 160 L 120 160 L 140 160 Z"/>
    <path id="path13" fill="#ffffff" stroke="none" d="M 98 144 C 96.896004 144 96 143.104004 96 142 C 96 140.895996 96.896004 140 98 140 C 99.103996 140 100 140.895996 100 142 C 100 143.104004 99.103996 144 98 144 M 98 136 C 94.686996 136 92 138.686996 92 142 C 92 145.313004 94.686996 148 98 148 C 101.313004 148 104 145.313004 104 142 C 104 138.686996 101.313004 136 98 136"/>
    <path id="path14" fill="#ffffff" stroke="none" d="M 28 120 L 72 120 L 72 169.843002 L 28 168.149994 Z M 24 118 L 24 170.074997 C 24 171.149994 24.848999 172.031998 25.923 172.074005 L 76 174 L 76 116 L 26 116 C 24.896 116 24 116.895996 24 118"/>
    <path id="path15" fill="#ffffff" stroke="none" d="M 168 148 L 160 148 L 160 136 L 168 136 Z M 84 120 L 172 120 L 172 132 L 168 132 L 160 132 L 156 132 L 156 136 L 156 148 L 156 152 L 160 152 L 168 152 L 172 152 L 172 170.304993 L 128 171.997009 L 84 170.304993 Z M 80 174.153992 L 128 176 L 176 174.153992 L 176 116 L 80 116 Z"/>
</svg>
