<?xml version="1.0" encoding="UTF-8"?>
<!-- Generated by Pixelmator Pro 3.7.1 -->
<svg width="256" height="256" viewBox="0 0 256 256" xmlns="http://www.w3.org/2000/svg">
    <path id="Path" fill="#ffffff" stroke="none" d="M 244 238.727509 C 244 241.642502 241.643997 243.999496 238.727997 243.999496 L 220 243.999496 L 220 165.599503 C 220 160.306503 215.514008 155.999512 210 155.999512 L 66 155.999512 C 60.485992 155.999512 56 160.306503 56 165.599503 L 56 243.999496 L 33.091003 243.999496 L 12 217.636505 L 12 17.272491 C 12 14.356491 14.356995 11.999496 17.272003 11.999496 L 32 11.999496 L 32 122.2005 C 32 127.6035 36.222 131.999512 41.412003 131.999512 L 214.587997 131.999512 C 219.777008 131.999512 224 127.6035 224 122.2005 L 224 11.999496 L 238.727997 11.999496 C 241.643997 11.999496 244 14.356491 244 17.272491 Z M 192 243.999496 L 192 175.272491 C 192 168.951508 187.927002 163.999512 182.727997 163.999512 L 77.272003 163.999512 C 72.072998 163.999512 68 168.951508 68 175.272491 L 68 243.999496 L 60 243.999496 L 60 165.599503 C 60 162.502502 62.682007 159.999512 66 159.999512 L 210 159.999512 C 213.317993 159.999512 216 162.502502 216 165.599503 L 216 243.999496 Z M 72 243.999496 L 72 175.272491 C 72 171.250504 74.356995 167.999512 77.272003 167.999512 L 182.727997 167.999512 C 185.643997 167.999512 188 171.250504 188 175.272491 L 188 243.999496 Z M 220 11.999496 L 220 122.2005 C 220 125.407501 217.580994 127.999496 214.587997 127.999496 L 41.412003 127.999496 C 38.419006 127.999496 36 125.407501 36 122.2005 L 36 11.999496 Z M 238.727997 7.999496 L 224 7.999496 L 220 7.999496 L 36 7.999496 L 32 7.999496 L 17.272003 7.999496 C 12.160004 7.999496 8 12.1595 8 17.272491 L 8 217.636505 L 8 219.039505 L 8.876007 220.134491 L 29.968002 246.498505 L 31.167999 247.999496 L 33.091003 247.999496 L 56 247.999496 L 60 247.999496 L 68 247.999496 L 72 247.999496 L 188 247.999496 L 192 247.999496 L 216 247.999496 L 220 247.999496 L 238.727997 247.999496 C 243.839996 247.999496 248 243.839508 248 238.727509 L 248 17.272491 C 248 12.1595 243.839996 7.999496 238.727997 7.999496"/>
    <path id="path1" fill="#ffffff" stroke="none" d="M 232 36 L 236 36 L 236 40 L 232 40 Z M 228 44 L 240 44 L 240 32 L 228 32 Z"/>
    <path id="path2" fill="#ffffff" stroke="none" d="M 88 176 L 116 176 L 116 232 L 88 232 Z M 84 236 L 120 236 L 120 172 L 84 172 Z"/>
</svg>
