<?xml version="1.0" encoding="UTF-8"?>
<!-- Generated by Pixelmator Pro 3.7.1 -->
<svg width="256" height="256" viewBox="0 0 256 256" xmlns="http://www.w3.org/2000/svg">
    <path id="Path" fill="#ffffff" stroke="none" d="M 236 88 L 236 80 L 244 88 Z M 244 96 L 236 96 L 236 92 L 244 92 Z M 244 104 L 236 104 L 236 100 L 244 100 Z M 244 112 L 236 112 L 236 108 L 244 108 Z M 244 164 L 236 164 L 236 116 L 244 116 Z M 236 176 L 236 168 L 244 168 Z M 224 164 L 224 120 L 224 116 L 224 100 L 224 96 L 224 92 L 232 92 L 232 96 L 228 96 L 228 100 L 232 100 L 232 104 L 228 104 L 228 108 L 232 108 L 232 112 L 228 112 L 228 116 L 232 116 L 232 164 Z M 232 176 L 24 176 L 24 168 L 176 168 L 224 168 L 232 168 Z M 12 116 L 20 116 L 20 164 L 12 164 Z M 20 176 L 12 168 L 20 168 Z M 12 108 L 20 108 L 20 112 L 12 112 Z M 12 100 L 20 100 L 20 104 L 12 104 Z M 12 92 L 20 92 L 20 96 L 12 96 Z M 20 80 L 20 88 L 12 88 Z M 176 92 L 176 96 L 176 100 L 176 116 L 176 120 L 176 164 L 24 164 L 24 116 L 172 116 L 172 112 L 24 112 L 24 108 L 172 108 L 172 104 L 24 104 L 24 100 L 172 100 L 172 96 L 24 96 L 24 92 Z M 180 100 L 220 100 L 220 116 L 180 116 Z M 220 164 L 180 164 L 180 120 L 220 120 Z M 220 96 L 180 96 L 180 92 L 220 92 Z M 24 80 L 232 80 L 232 88 L 224 88 L 176 88 L 24 88 Z M 246.828003 85.171005 L 238.828003 77.171005 L 237.656998 76 L 232 76 L 24 76 L 18.343002 76 L 17.171005 77.171005 L 9.171005 85.171005 L 8 86.343002 L 8 92 L 8 96 L 8 100 L 8 104 L 8 108 L 8 112 L 8 116 L 8 164 L 8 169.656998 L 9.171005 170.828003 L 17.171005 178.828003 L 18.343002 180 L 24 180 L 232 180 L 237.656998 180 L 238.828003 178.828003 L 246.828003 170.828003 L 248 169.656998 L 248 164 L 248 92 L 248 86.343002 Z"/>
</svg>
