<?xml version="1.0" encoding="UTF-8"?>
<!-- Generated by Pixelmator Pro 3.7.1 -->
<svg width="256" height="256" viewBox="0 0 256 256" xmlns="http://www.w3.org/2000/svg">
    <path id="Path" fill="#ffffff" stroke="none" d="M 240 206 C 240 207.104996 239.104996 208 238 208 L 18 208 C 16.895004 208 16 207.104996 16 206 L 16 116 L 20 108 L 24 80 L 232 80 L 236 108 L 240 116 Z M 29.735001 52 L 226.264999 52 C 227.261002 52 228.104996 52.731995 228.244995 53.716995 L 229.143005 60 L 26.856995 60 L 27.755005 53.716995 C 27.895004 52.731995 28.738998 52 29.735001 52 M 230.285995 68 L 25.714005 68 L 26.285995 64 L 229.714005 64 Z M 231.429001 76 L 24.570999 76 L 25.143005 72 L 230.856995 72 Z M 243.578003 114.210999 L 239.867996 106.791992 L 232.205002 53.151001 C 231.785995 50.214996 229.231995 48 226.264999 48 L 29.735001 48 C 26.768005 48 24.214005 50.214996 23.794998 53.151001 L 16.132004 106.791992 L 12.421997 114.210999 L 12 115.056 L 12 116 L 12 206 C 12 209.307999 14.692001 212 18 212 L 238 212 C 241.307999 212 244 209.307999 244 206 L 244 116 L 244 115.056 Z"/>
    <path id="path1" fill="#ffffff" stroke="none" d="M 188 96 L 228 96 L 228 104 L 188 104 Z M 232 108 L 232 104 L 232 96 L 232 92 L 228 92 L 188 92 L 184 92 L 184 96 L 184 104 L 184 108 L 188 108 L 228 108 Z"/>
    <path id="path2" fill="#ffffff" stroke="none" d="M 232 140 L 224 140 L 224 132 L 232 132 Z M 232 152 L 224 152 L 224 144 L 232 144 Z M 232 162 L 224 162 L 224 154 L 232 154 Z M 232 182 L 224 182 L 224 164 L 232 164 Z M 222 140 L 214 140 L 214 132 L 222 132 Z M 222 152 L 214 152 L 214 144 L 222 144 Z M 222 162 L 214 162 L 214 154 L 222 154 Z M 222 172 L 214 172 L 214 164 L 222 164 Z M 222 182 L 214 182 L 214 174 L 222 174 Z M 212 140 L 204 140 L 204 132 L 212 132 Z M 212 152 L 204 152 L 204 144 L 212 144 Z M 212 162 L 204 162 L 204 154 L 212 154 Z M 212 172 L 204 172 L 204 164 L 212 164 Z M 212 182 L 204 182 L 204 174 L 212 174 Z M 202 140 L 194 140 L 194 132 L 202 132 Z M 202 152 L 194 152 L 194 144 L 202 144 Z M 202 162 L 194 162 L 194 154 L 202 154 Z M 202 172 L 194 172 L 194 164 L 202 164 Z M 202 182 L 194 182 L 194 174 L 202 174 Z M 226 128 L 222 128 L 216 128 L 212 128 L 206 128 L 202 128 L 194 128 L 190 128 L 190 132 L 190 140 L 190 144 L 190 152 L 190 156 L 190 162 L 190 166 L 190 172 L 190 176 L 190 182 L 190 186 L 194 186 L 200 186 L 204 186 L 210 186 L 214 186 L 220 186 L 224 186 L 232 186 L 236 186 L 236 182 L 236 164 L 236 160 L 236 154 L 236 150 L 236 144 L 236 140 L 236 132 L 236 128 L 232 128 Z"/>
    <path id="path3" fill="#ffffff" stroke="none" d="M 182 140 L 174 140 L 174 132 L 182 132 Z M 182 152 L 174 152 L 174 144 L 182 144 Z M 182 162 L 170 162 L 170 154 L 182 154 Z M 182 172 L 164 172 L 164 164 L 182 164 Z M 182 182 L 174 182 L 174 174 L 182 174 Z M 172 182 L 164 182 L 164 174 L 172 174 Z M 160 154 L 168 154 L 168 162 L 160 162 Z M 162 172 L 154 172 L 154 164 L 162 164 Z M 162 182 L 154 182 L 154 174 L 162 174 Z M 150 154 L 158 154 L 158 162 L 150 162 Z M 152 172 L 144 172 L 144 164 L 152 164 Z M 152 182 L 144 182 L 144 174 L 152 174 Z M 148 192 L 56 192 L 56 184 L 148 184 Z M 54 174 L 62 174 L 62 182 L 54 182 Z M 52 172 L 44 172 L 44 164 L 52 164 Z M 52 182 L 44 182 L 44 174 L 52 174 Z M 40 154 L 48 154 L 48 162 L 40 162 Z M 42 172 L 34 172 L 34 164 L 42 164 Z M 42 182 L 34 182 L 34 174 L 42 174 Z M 24 154 L 38 154 L 38 162 L 24 162 Z M 32 172 L 24 172 L 24 164 L 32 164 Z M 32 182 L 24 182 L 24 174 L 32 174 Z M 24 144 L 32 144 L 32 152 L 24 152 Z M 24 132 L 32 132 L 32 140 L 24 140 Z M 34 144 L 42 144 L 42 152 L 34 152 Z M 34 132 L 42 132 L 42 140 L 34 140 Z M 44 144 L 52 144 L 52 152 L 44 152 Z M 44 132 L 52 132 L 52 140 L 44 140 Z M 58 162 L 50 162 L 50 154 L 58 154 Z M 54 144 L 62 144 L 62 152 L 54 152 Z M 54 132 L 62 132 L 62 140 L 54 140 Z M 62 172 L 54 172 L 54 164 L 62 164 Z M 68 162 L 60 162 L 60 154 L 68 154 Z M 64 144 L 72 144 L 72 152 L 64 152 Z M 72 182 L 64 182 L 64 174 L 72 174 Z M 64 164 L 72 164 L 72 172 L 64 172 Z M 78 162 L 70 162 L 70 154 L 78 154 Z M 74 144 L 82 144 L 82 152 L 74 152 Z M 84 144 L 92 144 L 92 152 L 84 152 Z M 84 132 L 92 132 L 92 140 L 84 140 Z M 84 164 L 92 164 L 92 172 L 84 172 Z M 84 174 L 92 174 L 92 182 L 84 182 Z M 80 154 L 88 154 L 88 162 L 80 162 Z M 82 182 L 74 182 L 74 174 L 82 174 Z M 74 164 L 82 164 L 82 172 L 74 172 Z M 98 162 L 90 162 L 90 154 L 98 154 Z M 94 144 L 102 144 L 102 152 L 94 152 Z M 94 132 L 102 132 L 102 140 L 94 140 Z M 102 182 L 94 182 L 94 174 L 102 174 Z M 94 164 L 102 164 L 102 172 L 94 172 Z M 108 162 L 100 162 L 100 154 L 108 154 Z M 104 144 L 112 144 L 112 152 L 104 152 Z M 104 132 L 112 132 L 112 140 L 104 140 Z M 112 182 L 104 182 L 104 174 L 112 174 Z M 104 164 L 112 164 L 112 172 L 104 172 Z M 118 162 L 110 162 L 110 154 L 118 154 Z M 114 144 L 122 144 L 122 152 L 114 152 Z M 114 132 L 122 132 L 122 140 L 114 140 Z M 122 182 L 114 182 L 114 174 L 122 174 Z M 114 164 L 122 164 L 122 172 L 114 172 Z M 128 162 L 120 162 L 120 154 L 128 154 Z M 124 144 L 132 144 L 132 152 L 124 152 Z M 132 182 L 124 182 L 124 174 L 132 174 Z M 124 164 L 132 164 L 132 172 L 124 172 Z M 138 162 L 130 162 L 130 154 L 138 154 Z M 134 144 L 142 144 L 142 152 L 134 152 Z M 140 154 L 148 154 L 148 162 L 140 162 Z M 142 182 L 134 182 L 134 174 L 142 174 Z M 134 164 L 142 164 L 142 172 L 134 172 Z M 144 144 L 152 144 L 152 152 L 144 152 Z M 144 132 L 152 132 L 152 140 L 144 140 Z M 154 144 L 162 144 L 162 152 L 154 152 Z M 154 132 L 162 132 L 162 140 L 154 140 Z M 164 144 L 172 144 L 172 152 L 164 152 Z M 164 132 L 172 132 L 172 140 L 164 140 Z M 176 128 L 172 128 L 166 128 L 162 128 L 156 128 L 152 128 L 144 128 L 140 128 L 140 132 L 140 140 L 136 140 L 132 140 L 126 140 L 126 132 L 126 128 L 122 128 L 116 128 L 112 128 L 106 128 L 102 128 L 96 128 L 92 128 L 84 128 L 80 128 L 80 132 L 80 140 L 76 140 L 72 140 L 66 140 L 66 132 L 66 128 L 62 128 L 56 128 L 52 128 L 46 128 L 42 128 L 36 128 L 32 128 L 24 128 L 20 128 L 20 132 L 20 140 L 20 144 L 20 152 L 20 156 L 20 162 L 20 166 L 20 172 L 20 176 L 20 182 L 20 186 L 24 186 L 30 186 L 34 186 L 40 186 L 44 186 L 50 186 L 52 186 L 52 192 L 52 196 L 56 196 L 148 196 L 152 196 L 152 192 L 152 186 L 154 186 L 160 186 L 164 186 L 170 186 L 174 186 L 182 186 L 186 186 L 186 182 L 186 174 L 186 170 L 186 164 L 186 160 L 186 154 L 186 150 L 186 144 L 186 140 L 186 132 L 186 128 L 182 128 Z"/>
</svg>
