<?xml version="1.0" encoding="UTF-8"?>
<!-- Generated by Pixelmator Pro 3.7.1 -->
<svg width="256" height="256" viewBox="0 0 256 256" xmlns="http://www.w3.org/2000/svg">
    <path id="Path" fill="#ffffff" stroke="none" d="M 136 204 L 136 184 L 142.020004 184 C 140.757996 185.673996 140 187.747009 140 190 C 140 195.514008 144.485992 200 150 200 L 152 200 L 162 200 L 240 200 L 240.666992 200 L 240 204 Z M 16 204 L 12 184 L 132 184 L 132 204 Z M 12 52 L 132 52 L 132 180 L 12 180 Z M 244 100 L 136 100 L 136 52 L 244 52 Z M 136 104 L 244 104 L 244 108 L 136 108 Z M 136 112 L 244 112 L 244 116 L 136 116 Z M 136 120 L 244 120 L 244 124 L 136 124 Z M 244 140 L 136 140 L 136 136 L 244 136 Z M 136 128 L 244 128 L 244 132 L 136 132 Z M 162 180 L 150 180 L 136 180 L 136 144 L 244 144 L 244 180 Z M 169.979996 184 L 204 184 L 204 188 L 192 188 L 192 192 L 204 192 L 204 196 L 169.979996 196 C 171.242004 194.326004 172 192.252991 172 190 C 172 187.747009 171.242004 185.673996 169.979996 184 M 150 184 L 162 184 C 165.313004 184 168 186.686996 168 190 C 168 193.313004 165.313004 196 162 196 L 152 196 L 150 196 C 146.686996 196 144 193.313004 144 190 C 144 186.686996 146.686996 184 150 184 M 241.324005 196 L 240 196 L 208 196 L 208 192 L 212 192 L 212 188 L 208 188 L 208 184 L 244 184 C 244 184 238.315002 188.536011 241.324005 196 M 248 183.975998 L 248 180 L 248 52 L 248 48 L 244 48 L 12 48 L 8 48 L 8 52 L 8 180 L 8 184 L 8.010002 184 C 8.010002 184.261993 8.025002 184.52301 8.078003 184.783997 L 12.078003 204.783997 C 12.452003 206.653992 14.093002 208 16 208 L 240 208 C 241.955002 208 243.623993 206.585999 243.945007 204.656998 L 245.274994 196.675995 C 245.397003 195.947998 245.313995 195.201004 245.037994 194.518005 C 243.234009 190.061005 246.188995 187.386993 246.472992 187.145004 C 247.403992 186.412003 248.002991 185.276001 248.002991 184 C 248.002991 183.990997 248 183.983002 248 183.975998"/>
    <path id="path1" fill="#ffffff" stroke="none" d="M 228 192 C 226.895996 192 226 191.104004 226 190 C 226 188.895996 226.895996 188 228 188 C 229.104004 188 230 188.895996 230 190 C 230 191.104004 229.104004 192 228 192 M 228 186 C 225.791 186 224 187.791 224 190 C 224 192.209 225.791 194 228 194 C 230.209 194 232 192.209 232 190 C 232 187.791 230.209 186 228 186"/>
    <path id="path2" fill="#ffffff" stroke="none" d="M 115.612297 132 L 56.000301 132 L 28.387302 132 C 25.957302 132 23.706303 133.087997 22.198299 134.942001 C 20.775303 130.207001 20.000301 125.192993 20.000301 120 C 20.000301 114.417999 20.894299 109.044006 22.529301 104 L 121.470299 104 C 123.1063 109.044006 124.000298 114.417999 124.000298 120 C 124.000298 125.192001 123.225304 130.205002 121.802299 134.940002 C 120.292297 133.087006 118.041298 132 115.612297 132 M 119.263298 141.643005 C 119.237297 141.699005 119.212303 141.757996 119.185303 141.813995 C 118.966301 142.289001 118.738297 142.759003 118.505302 143.225006 C 118.437302 143.359009 118.367302 143.492004 118.299301 143.626999 C 117.558296 145.072998 116.751297 146.479996 115.883301 147.845001 C 115.779297 148.007004 115.675301 148.169998 115.570297 148.330994 C 115.300301 148.744995 115.026299 149.156006 114.744301 149.561996 C 114.651299 149.696991 114.555298 149.82901 114.460297 149.962006 C 113.917297 150.729004 113.354301 151.481003 112.771301 152.218002 C 112.661301 152.356003 112.554298 152.498001 112.443298 152.636002 C 112.154297 152.992996 111.858299 153.343994 111.560303 153.692993 C 111.393303 153.889008 111.225304 154.082001 111.056297 154.274002 C 110.7603 154.610992 110.464302 154.946991 110.160301 155.274994 C 109.9963 155.453003 109.827301 155.625 109.660301 155.800003 C 109.129303 156.359009 108.585297 156.906006 108.029297 157.44101 C 107.806297 157.656006 107.584297 157.872009 107.3573 158.083008 C 107.062302 158.356003 106.763298 158.626999 106.463303 158.893997 C 106.209297 159.119003 105.951302 159.339996 105.693298 159.561005 C 105.405304 159.806 105.119301 160.053009 104.827301 160.291992 C 104.332298 160.695999 103.8293 161.091995 103.319298 161.477997 C 103.046303 161.684998 102.767303 161.882996 102.490303 162.084991 C 102.167297 162.319 101.8433 162.552002 101.515297 162.778 C 101.233299 162.973999 100.950302 163.166992 100.664299 163.356003 C 100.280304 163.610992 99.891304 163.859009 99.500298 164.104004 C 99.2313 164.272003 98.964302 164.442001 98.691299 164.606003 C 98.1483 164.932999 97.597298 165.248993 97.041298 165.556 C 96.784302 165.697998 96.5243 165.834 96.264297 165.972 C 95.846298 166.192993 95.425301 166.410004 94.999298 166.621002 C 94.7463 166.746002 94.494301 166.872009 94.238297 166.994003 C 93.602303 167.296005 92.960297 167.589996 92.310303 167.867004 C 92.1633 167.929993 92.014297 167.985992 91.867302 168.046997 C 91.309303 168.278 90.747299 168.501007 90.179298 168.714005 C 89.936302 168.804993 89.691299 168.893005 89.445297 168.979996 C 88.932297 169.164001 88.415298 169.339005 87.894302 169.505997 C 87.682297 169.574005 87.472298 169.645996 87.258301 169.712006 C 86.549301 169.929993 85.833298 170.134995 85.111298 170.322998 C 84.935303 170.369003 84.757301 170.408005 84.581299 170.451996 C 84.001297 170.597 83.418297 170.731995 82.831299 170.856995 C 82.595299 170.906998 82.360298 170.955994 82.123299 171.002991 C 81.500298 171.126999 80.873299 171.238998 80.242302 171.339996 C 80.100296 171.362 79.960297 171.389999 79.817299 171.410995 C 79.054298 171.527008 78.285301 171.623001 77.511299 171.705002 C 77.305298 171.727997 77.097298 171.742996 76.889297 171.763 C 76.289299 171.819 75.686302 171.865005 75.080299 171.901001 C 74.851295 171.914001 74.624298 171.929001 74.395302 171.938995 C 73.600296 171.975998 72.803299 172 72.000298 172 C 71.029297 172 70.066299 171.968994 69.109299 171.915009 C 68.818298 171.899002 68.531296 171.869995 68.241302 171.850006 C 67.569298 171.800995 66.8993 171.747009 66.234299 171.673004 C 65.916298 171.638 65.601295 171.593002 65.285301 171.552002 C 64.643295 171.468994 64.003296 171.376999 63.367302 171.270996 C 63.069302 171.220001 62.7733 171.166 62.477303 171.110001 C 61.807301 170.985001 61.1423 170.848999 60.4823 170.697998 C 60.237301 170.643005 59.992302 170.587997 59.749302 170.528 C 58.9953 170.346008 58.248302 170.145996 57.507301 169.929993 C 57.366302 169.889008 57.223301 169.850998 57.082302 169.80899 C 55.347301 169.287003 52.199303 168 52.199303 168 L 68.000298 148 L 60.000301 136 L 115.612297 136 C 118.519302 136 120.439301 138.997009 119.263298 141.643005 M 49.075298 166.654999 C 48.219303 166.233002 47.3773 165.787003 46.548298 165.320007 C 46.512302 165.300003 46.476299 165.278 46.441303 165.257996 C 45.666302 164.819 44.9053 164.360001 44.1563 163.884003 C 44.070301 163.82901 43.985302 163.77301 43.899303 163.718994 C 43.188297 163.26001 42.4883 162.783997 41.801304 162.291992 C 41.717304 162.231995 41.633305 162.173996 41.549297 162.112 C 40.806301 161.574005 40.075298 161.018997 39.362301 160.44101 C 39.359303 160.438004 39.356304 160.436996 39.352299 160.43399 L 36.386303 157.837997 C 36.324299 157.778992 36.262302 157.720001 36.200298 157.660995 C 35.668301 157.153992 35.144299 156.636993 34.633305 156.106995 C 34.576298 156.050003 34.521297 155.98999 34.465298 155.932007 C 33.945301 155.389008 33.435299 154.834991 32.939304 154.270004 C 32.894299 154.218994 32.851299 154.167999 32.807301 154.117004 C 32.305302 153.541992 31.816303 152.955994 31.340298 152.359009 C 31.301304 152.311996 31.264301 152.264008 31.226299 152.216003 C 30.749302 151.613007 30.285297 151 29.834301 150.376999 C 29.800304 150.32901 29.7663 150.281006 29.732304 150.233002 C 29.283298 149.606995 28.847301 148.972 28.425304 148.326004 C 28.3923 148.274994 28.360302 148.223999 28.327297 148.173004 C 27.910297 147.527008 27.505299 146.873001 27.115299 146.209 C 27.083302 146.152008 27.051304 146.096008 27.018299 146.040009 C 26.633305 145.377991 26.262302 144.707001 25.9063 144.027008 C 25.873302 143.964996 25.841297 143.899994 25.809299 143.837006 C 25.459301 143.161011 25.122303 142.477997 24.801304 141.785004 C 24.783298 141.746002 24.765301 141.707001 24.747303 141.667999 C 23.5583 139.014008 25.469303 136 28.387302 136 L 56.000301 136 L 64.000298 148 L 49.078304 166.651001 C 49.110302 166.664001 49.135303 166.686005 49.075298 166.654999 M 72.000298 68 C 93.589302 68 112.142303 81.227005 119.994301 100 L 24.005299 100 C 31.858303 81.227005 50.411304 68 72.000298 68 M 72.000298 64 C 41.0723 64 16.000301 89.071991 16.000301 120 C 16.000301 145.391998 32.904301 166.822998 56.069302 173.688004 C 56.2463 173.740005 56.425301 173.787994 56.603302 173.839005 C 57.347301 174.052002 58.096302 174.251007 58.853302 174.432999 C 59.186302 174.514008 59.520302 174.589996 59.855301 174.664001 C 60.4683 174.800003 61.0853 174.923996 61.706303 175.039001 C 62.111301 175.115005 62.515301 175.190002 62.922302 175.257004 C 63.501301 175.350998 64.085297 175.431 64.670296 175.507004 C 65.091301 175.563004 65.5103 175.622009 65.933296 175.667999 C 66.568298 175.735992 67.209297 175.783005 67.849297 175.830994 C 68.216301 175.856995 68.580299 175.895004 68.948296 175.914001 C 69.959297 175.968994 70.975296 176 72.000298 176 C 72.840302 176 73.675301 175.975006 74.5093 175.936996 C 74.810303 175.923004 75.109299 175.904999 75.408302 175.886993 C 75.917297 175.854996 76.424301 175.81601 76.930298 175.770996 C 105.547302 173.272995 128.000305 149.265991 128.000305 120 C 128.000305 89.071991 102.927299 64 72.000298 64"/>
    <path id="path3" fill="#ffffff" stroke="none" d="M 76 163.810501 L 76 151.742493 C 82.532997 150.926498 88.451996 148.139496 93.149002 143.999496 L 108.869003 143.999496 C 101.703003 154.981506 89.770004 162.569489 76 163.810501 M 93.149002 139.999496 L 91.638 139.999496 L 90.503998 140.998505 C 86.264999 144.735504 81.078003 147.077499 75.504997 147.773499 L 72 148.209503 L 72 151.742493 L 72 163.810501 L 72 168.1875 L 76.359001 167.794495 C 91.051003 166.469498 104.122002 158.593506 112.219002 146.186493 L 116.255997 139.999496 L 108.869003 139.999496 Z"/>
    <path id="path4" fill="#ffffff" stroke="none" d="M 49.075699 166.655304 L 49.078701 166.651306 C 49.050701 166.640289 49.040699 166.638306 49.075699 166.655304"/>
</svg>
