<?xml version="1.0" encoding="UTF-8"?>
<!-- Generated by Pixelmator Pro 3.7.1 -->
<svg width="256" height="256" viewBox="0 0 256 256" xmlns="http://www.w3.org/2000/svg">
    <path id="Path" fill="#ffffff" stroke="none" d="M 244 76 L 240 76 L 240 96 L 244 96 L 244 124 L 240 124 L 240 116 L 240 112 L 236 112 L 196 112 L 192 112 L 192 116 L 192 124 L 16 124 L 12 124 L 12 96 L 228 96 L 228 92 L 12 92 L 12 88 L 228 88 L 228 84 L 12 84 L 12 80 L 228 80 L 228 76 L 20 76 L 12 76 L 12 72 L 20 72 L 20 60 L 22 60 L 24 60 L 24 72 L 28 72 L 28 60 L 30 60 L 32 60 L 32 72 L 36 72 L 36 60 L 38 60 L 40 60 L 40 72 L 44 72 L 44 60 L 46 60 L 48 60 L 48 72 L 52 72 L 52 60 L 54 60 L 56 60 L 56 72 L 60 72 L 60 60 L 62 60 L 64 60 L 64 72 L 68 72 L 68 60 L 70 60 L 72 60 L 72 72 L 76 72 L 76 60 L 78 60 L 80 60 L 80 72 L 84 72 L 84 60 L 86 60 L 88 60 L 88 72 L 92 72 L 92 60 L 94 60 L 96 60 L 96 72 L 100 72 L 100 60 L 102 60 L 104 60 L 104 72 L 108 72 L 108 60 L 110 60 L 112 60 L 112 72 L 116 72 L 116 60 L 118 60 L 120 60 L 120 72 L 124 72 L 124 60 L 126 60 L 128 60 L 128 72 L 132 72 L 132 60 L 134 60 L 136 60 L 136 72 L 140 72 L 140 60 L 142 60 L 144 60 L 144 72 L 148 72 L 148 60 L 150 60 L 152 60 L 152 72 L 156 72 L 156 60 L 158 60 L 160 60 L 160 72 L 164 72 L 164 60 L 166 60 L 168 60 L 168 72 L 172 72 L 172 60 L 174 60 L 176 60 L 176 72 L 180 72 L 180 60 L 182 60 L 184 60 L 184 72 L 188 72 L 188 60 L 190 60 L 192 60 L 192 72 L 196 72 L 196 60 L 198 60 L 200 60 L 200 72 L 204 72 L 204 60 L 206 60 L 208 60 L 208 72 L 212 72 L 212 60 L 214 60 L 216 60 L 216 72 L 220 72 L 220 60 L 222 60 L 224 60 L 224 72 L 228 72 L 228 60 L 230 60 L 232 60 L 234 60 L 236 60 L 236 68 L 244 68 Z M 236 124 L 196 124 L 196 116 L 236 116 Z M 244 192 C 244 194.209 242.209 196 240 196 L 240 195.925003 L 240 175.925003 L 240 171.925003 L 240 163.925003 L 240 159.925003 L 240 151.925003 L 240 147.925003 L 236 147.925003 L 228 147.925003 L 224 147.925003 L 216 147.925003 L 212 147.925003 L 204 147.925003 L 200 147.925003 L 192 147.925003 L 188 147.925003 L 176 147.925003 L 172 147.925003 L 168 147.925003 L 156 147.925003 L 152 147.925003 L 152 140 L 152 136 L 148 136 L 140 136 L 136 136 L 128 136 L 124 136 L 116 136 L 112 136 L 104 136 L 100 136 L 92 136 L 88 136 L 80 136 L 76 136 L 68 136 L 64 136 L 56 136 L 52 136 L 44 136 L 40 136 L 32 136 L 28 136 L 20 136 L 16 136 L 16 140 L 16 147.925003 L 16 148 L 16 151.925003 L 16 152 L 16 159.925003 L 16 163.925003 L 16 171.850998 L 16 171.925003 L 16 175.850998 L 16 175.925003 L 16 183.925003 L 16 187.925003 L 20 187.925003 L 20 196 L 16 196 C 13.791 196 12 194.209 12 192 L 12 128 L 16 128 L 192 128 L 196 128 L 236 128 L 240 128 L 244 128 Z M 180 196 L 180 188 L 188 188 L 188 195.925003 L 188 196 Z M 168 188 L 176 188 L 176 196 L 168 196 Z M 156 188 L 164 188 L 164 196 L 156 196 Z M 140 196 L 140 187.925003 L 144 187.925003 L 148 187.925003 L 148 196 Z M 124 196 L 124 187.925003 L 132 187.925003 L 136 187.925003 L 136 196 Z M 40 196 L 40 187.925003 L 48 187.925003 L 52 187.925003 L 60 187.925003 L 64 187.925003 L 72 187.925003 L 76 187.925003 L 84 187.925003 L 88 187.925003 L 96 187.925003 L 100 187.925003 L 108 187.925003 L 112 187.925003 L 120 187.925003 L 120 196 Z M 28 147.925003 L 20 147.925003 L 20 140 L 28 140 Z M 40 147.925003 L 32 147.925003 L 32 140 L 40 140 Z M 52 147.925003 L 44 147.925003 L 44 140 L 52 140 Z M 64 147.925003 L 56 147.925003 L 56 140 L 64 140 Z M 76 147.925003 L 68 147.925003 L 68 140 L 76 140 Z M 88 147.925003 L 80 147.925003 L 80 140 L 88 140 Z M 100 147.925003 L 92 147.925003 L 92 140 L 100 140 Z M 112 147.925003 L 104 147.925003 L 104 140 L 112 140 Z M 124 147.925003 L 116 147.925003 L 116 140 L 124 140 Z M 136 147.925003 L 128 147.925003 L 128 140 L 136 140 Z M 148 147.925003 L 140 147.925003 L 140 140 L 148 140 Z M 144 159.925003 L 140 159.925003 L 140 152 L 148 152 L 152 152 L 152 159.925003 Z M 168 159.925003 L 156 159.925003 L 156 151.925003 L 168 151.925003 Z M 148 175.925003 L 148 172 L 148 171.925003 L 144 171.925003 L 144 163.925003 L 152 163.925003 L 152 183.925003 L 148 183.925003 Z M 136 175.925003 L 140 175.925003 L 140 176 L 144 176 L 144 183.925003 L 140 183.925003 L 136 183.925003 Z M 124 175.925003 L 128 175.925003 L 132 175.925003 L 132 183.925003 L 124 183.925003 Z M 112 175.925003 L 116 175.925003 L 120 175.925003 L 120 183.925003 L 112 183.925003 Z M 100 175.925003 L 104 175.925003 L 108 175.925003 L 108 183.925003 L 100 183.925003 Z M 88 175.925003 L 92 175.925003 L 96 175.925003 L 96 183.925003 L 88 183.925003 Z M 76 175.925003 L 80 175.925003 L 84 175.925003 L 84 183.925003 L 76 183.925003 Z M 64 175.925003 L 68 175.925003 L 72 175.925003 L 72 183.925003 L 64 183.925003 Z M 52 175.925003 L 56 175.925003 L 60 175.925003 L 60 183.925003 L 52 183.925003 Z M 40 175.925003 L 44 175.925003 L 48 175.925003 L 48 183.925003 L 40 183.925003 Z M 36 163.925003 L 40 163.925003 L 44 163.925003 L 44 171.925003 L 40 171.925003 L 40 171.850998 L 36 171.850998 Z M 52 152 L 52 159.925003 L 48 159.925003 L 44 159.925003 L 44 152 Z M 64 152 L 64 159.925003 L 60 159.925003 L 56 159.925003 L 56 152 Z M 76 152 L 76 159.925003 L 72 159.925003 L 68 159.925003 L 68 152 Z M 88 152 L 88 159.925003 L 84 159.925003 L 80 159.925003 L 80 152 Z M 100 152 L 100 159.925003 L 96 159.925003 L 92 159.925003 L 92 152 Z M 112 152 L 112 159.925003 L 108 159.925003 L 104 159.925003 L 104 152 Z M 124 152 L 124 159.925003 L 120 159.925003 L 116 159.925003 L 116 152 Z M 120 163.925003 L 124 163.925003 L 128 163.925003 L 128 171.925003 L 124 171.925003 L 120 171.925003 Z M 108 163.925003 L 112 163.925003 L 116 163.925003 L 116 171.925003 L 112 171.925003 L 108 171.925003 Z M 96 163.925003 L 100 163.925003 L 104 163.925003 L 104 171.925003 L 100 171.925003 L 96 171.925003 Z M 84 163.925003 L 88 163.925003 L 92 163.925003 L 92 171.925003 L 88 171.925003 L 84 171.925003 Z M 72 163.925003 L 76 163.925003 L 80 163.925003 L 80 171.925003 L 76 171.925003 L 72 171.925003 Z M 60 163.925003 L 64 163.925003 L 68 163.925003 L 68 171.925003 L 64 171.925003 L 60 171.925003 Z M 48 163.925003 L 52 163.925003 L 56 163.925003 L 56 171.925003 L 52 171.925003 L 48 171.925003 Z M 140 171.925003 L 136 171.925003 L 132 171.925003 L 132 163.925003 L 136 163.925003 L 140 163.925003 Z M 136 152 L 136 159.925003 L 132 159.925003 L 128 159.925003 L 128 152 Z M 32 152 L 40 152 L 40 159.925003 L 36 159.925003 L 32 159.925003 Z M 176 184 L 168 184 L 168 176 L 176 176 Z M 188 159.925003 L 176 159.925003 L 176 151.925003 L 188 151.925003 Z M 200 159.925003 L 192 159.925003 L 192 151.925003 L 200 151.925003 Z M 212 159.925003 L 204 159.925003 L 204 151.925003 L 212 151.925003 Z M 224 159.925003 L 216 159.925003 L 216 151.925003 L 224 151.925003 Z M 236 195.925003 L 228 195.925003 L 228 187.925003 L 228 183.925003 L 228 175.925003 L 236 175.925003 Z M 200 187.925003 L 200 195.925003 L 192 195.925003 L 192 188 L 192 187.925003 Z M 212 171.925003 L 204 171.925003 L 204 163.925003 L 212 163.925003 Z M 216 187.925003 L 224 187.925003 L 224 195.925003 L 216 195.925003 Z M 204 175.925003 L 212 175.925003 L 212 183.925003 L 204 183.925003 Z M 204 187.925003 L 212 187.925003 L 212 195.925003 L 204 195.925003 Z M 224 183.925003 L 216 183.925003 L 216 175.925003 L 224 175.925003 Z M 224 171.925003 L 216 171.925003 L 216 163.925003 L 224 163.925003 Z M 192 163.925003 L 200 163.925003 L 200 171.925003 L 192 171.925003 Z M 192 175.925003 L 200 175.925003 L 200 183.925003 L 192 183.925003 Z M 236 171.925003 L 228 171.925003 L 228 163.925003 L 236 163.925003 Z M 236 159.925003 L 228 159.925003 L 228 151.925003 L 236 151.925003 Z M 176 163.925003 L 188 163.925003 L 188 171.925003 L 188 175.925003 L 188 183.925003 L 188 184 L 180 184 L 180 176 L 180 172 L 176 172 L 168 172 L 164 172 L 164 176 L 164 184 L 156 184 L 156 183.925003 L 156 163.925003 L 168 163.925003 L 172 163.925003 Z M 20 152 L 28 152 L 28 159.925003 L 20 159.925003 Z M 20 163.925003 L 28 163.925003 L 32 163.925003 L 32 171.850998 L 20 171.850998 Z M 20 175.925003 L 32 175.925003 L 36 175.925003 L 36 183.925003 L 24 183.925003 L 20 183.925003 Z M 24 187.925003 L 36 187.925003 L 36 196 L 24 196 Z M 244 64 L 238 64 L 238 60 L 238 56 L 234 56 L 230 56 L 226 56 L 222 56 L 218 56 L 214 56 L 210 56 L 206 56 L 202 56 L 198 56 L 194 56 L 190 56 L 186 56 L 182 56 L 178 56 L 174 56 L 170 56 L 166 56 L 162 56 L 158 56 L 154 56 L 150 56 L 146 56 L 142 56 L 138 56 L 134 56 L 130 56 L 126 56 L 122 56 L 118 56 L 114 56 L 110 56 L 106 56 L 102 56 L 98 56 L 94 56 L 90 56 L 86 56 L 82 56 L 78 56 L 74 56 L 70 56 L 66 56 L 62 56 L 58 56 L 54 56 L 50 56 L 46 56 L 42 56 L 38 56 L 34 56 L 30 56 L 26 56 L 22 56 L 20 56 L 16 56 L 16 60 L 16 68 L 12 68 L 8 68 L 8 72 L 8 76 L 8 80 L 8 84 L 8 88 L 8 92 L 8 96 L 8 124 L 8 128 L 8 192 C 8 196.411011 11.589005 200 16 200 L 20 200 L 24 200 L 36 200 L 40 200 L 120 200 L 124 200 L 136 200 L 140 200 L 148 200 L 152 200 L 156 200 L 164 200 L 168 200 L 176 200 L 180 200 L 188 200 L 192 200 L 240 200 C 244.410995 200 248 196.411011 248 192 L 248 128 L 248 124 L 248 96 L 248 92 L 244 92 L 244 80 L 248 80 L 248 76 L 248 68 L 248 64 Z"/>
    <path id="path1" fill="#ffffff" stroke="none" d="M 224 136 L 236 136 L 236 132 L 224 132 Z"/>
    <path id="path2" fill="#ffffff" stroke="none" d="M 224 144 L 236 144 L 236 140 L 224 140 Z"/>
</svg>
