<?xml version="1.0" encoding="UTF-8"?>
<!-- Generated by Pixelmator Pro 3.7.1 -->
<svg width="256" height="256" viewBox="0 0 256 256" xmlns="http://www.w3.org/2000/svg">
    <path id="Path" fill="#ffffff" stroke="none" d="M 248 36 L 244 36 L 12 36 L 8 36 L 8 40 L 8 216 L 8 220 L 12 220 L 244 220 L 248 220 L 248 216 L 248 40 Z M 244 216 L 12 216 L 12 40 L 244 40 Z"/>
    <path id="path1" fill="#ffffff" stroke="none" d="M 228 170 L 224 170 L 224 168 L 228 168 Z"/>
    <path id="path2" fill="#ffffff" stroke="none" d="M 228 178 L 224 178 L 224 176 L 228 176 Z"/>
    <path id="path3" fill="#ffffff" stroke="none" d="M 228 186 L 224 186 L 224 184 L 228 184 Z"/>
    <path id="path4" fill="#ffffff" stroke="none" d="M 228 194 L 224 194 L 224 192 L 228 192 Z"/>
    <path id="path5" fill="#ffffff" stroke="none" d="M 36 172 L 28 172 L 28 168 L 36 168 Z"/>
    <path id="path6" fill="#ffffff" stroke="none" d="M 36 180 L 28 180 L 28 176 L 36 176 Z"/>
    <path id="path7" fill="#ffffff" stroke="none" d="M 36 188 L 28 188 L 28 184 L 36 184 Z"/>
    <path id="path8" fill="#ffffff" stroke="none" d="M 36 196 L 28 196 L 28 192 L 36 192 Z"/>
    <path id="path9" fill="#ffffff" stroke="none" d="M 52 172 L 44 172 L 44 168 L 52 168 Z"/>
    <path id="path10" fill="#ffffff" stroke="none" d="M 52 180 L 44 180 L 44 176 L 52 176 Z"/>
    <path id="path11" fill="#ffffff" stroke="none" d="M 52 188 L 44 188 L 44 184 L 52 184 Z"/>
    <path id="path12" fill="#ffffff" stroke="none" d="M 52 196 L 44 196 L 44 192 L 52 192 Z"/>
    <path id="path13" fill="#ffffff" stroke="none" d="M 68 172 L 60 172 L 60 168 L 68 168 Z"/>
    <path id="path14" fill="#ffffff" stroke="none" d="M 68 180 L 60 180 L 60 176 L 68 176 Z"/>
    <path id="path15" fill="#ffffff" stroke="none" d="M 68 188 L 60 188 L 60 184 L 68 184 Z"/>
    <path id="path16" fill="#ffffff" stroke="none" d="M 68 196 L 60 196 L 60 192 L 68 192 Z"/>
    <path id="path17" fill="#ffffff" stroke="none" d="M 84 172 L 76 172 L 76 168 L 84 168 Z"/>
    <path id="path18" fill="#ffffff" stroke="none" d="M 84 180 L 76 180 L 76 176 L 84 176 Z"/>
    <path id="path19" fill="#ffffff" stroke="none" d="M 84 188 L 76 188 L 76 184 L 84 184 Z"/>
    <path id="path20" fill="#ffffff" stroke="none" d="M 84 196 L 76 196 L 76 192 L 84 192 Z"/>
    <path id="path21" fill="#ffffff" stroke="none" d="M 100 172 L 92 172 L 92 168 L 100 168 Z"/>
    <path id="path22" fill="#ffffff" stroke="none" d="M 100 180 L 92 180 L 92 176 L 100 176 Z"/>
    <path id="path23" fill="#ffffff" stroke="none" d="M 100 188 L 92 188 L 92 184 L 100 184 Z"/>
    <path id="path24" fill="#ffffff" stroke="none" d="M 100 196 L 92 196 L 92 192 L 100 192 Z"/>
    <path id="path25" fill="#ffffff" stroke="none" d="M 116 172 L 108 172 L 108 168 L 116 168 Z"/>
    <path id="path26" fill="#ffffff" stroke="none" d="M 116 180 L 108 180 L 108 176 L 116 176 Z"/>
    <path id="path27" fill="#ffffff" stroke="none" d="M 116 188 L 108 188 L 108 184 L 116 184 Z"/>
    <path id="path28" fill="#ffffff" stroke="none" d="M 116 196 L 108 196 L 108 192 L 116 192 Z"/>
    <path id="path29" fill="#ffffff" stroke="none" d="M 132 172 L 124 172 L 124 168 L 132 168 Z"/>
    <path id="path30" fill="#ffffff" stroke="none" d="M 132 180 L 124 180 L 124 176 L 132 176 Z"/>
    <path id="path31" fill="#ffffff" stroke="none" d="M 132 188 L 124 188 L 124 184 L 132 184 Z"/>
    <path id="path32" fill="#ffffff" stroke="none" d="M 132 196 L 124 196 L 124 192 L 132 192 Z"/>
    <path id="path33" fill="#ffffff" stroke="none" d="M 148 172 L 140 172 L 140 168 L 148 168 Z"/>
    <path id="path34" fill="#ffffff" stroke="none" d="M 148 180 L 140 180 L 140 176 L 148 176 Z"/>
    <path id="path35" fill="#ffffff" stroke="none" d="M 148 188 L 140 188 L 140 184 L 148 184 Z"/>
    <path id="path36" fill="#ffffff" stroke="none" d="M 148 196 L 140 196 L 140 192 L 148 192 Z"/>
    <path id="path37" fill="#ffffff" stroke="none" d="M 164 172 L 156 172 L 156 168 L 164 168 Z"/>
    <path id="path38" fill="#ffffff" stroke="none" d="M 164 180 L 156 180 L 156 176 L 164 176 Z"/>
    <path id="path39" fill="#ffffff" stroke="none" d="M 164 188 L 156 188 L 156 184 L 164 184 Z"/>
    <path id="path40" fill="#ffffff" stroke="none" d="M 164 196 L 156 196 L 156 192 L 164 192 Z"/>
    <path id="path41" fill="#ffffff" stroke="none" d="M 180 172 L 172 172 L 172 168 L 180 168 Z"/>
    <path id="path42" fill="#ffffff" stroke="none" d="M 180 180 L 172 180 L 172 176 L 180 176 Z"/>
    <path id="path43" fill="#ffffff" stroke="none" d="M 180 188 L 172 188 L 172 184 L 180 184 Z"/>
    <path id="path44" fill="#ffffff" stroke="none" d="M 180 196 L 172 196 L 172 192 L 180 192 Z"/>
    <path id="path45" fill="#ffffff" stroke="none" d="M 196 172 L 188 172 L 188 168 L 196 168 Z"/>
    <path id="path46" fill="#ffffff" stroke="none" d="M 196 180 L 188 180 L 188 176 L 196 176 Z"/>
    <path id="path47" fill="#ffffff" stroke="none" d="M 196 188 L 188 188 L 188 184 L 196 184 Z"/>
    <path id="path48" fill="#ffffff" stroke="none" d="M 196 196 L 188 196 L 188 192 L 196 192 Z"/>
    <path id="path49" fill="#ffffff" stroke="none" d="M 212 172 L 204 172 L 204 168 L 212 168 Z"/>
    <path id="path50" fill="#ffffff" stroke="none" d="M 212 180 L 204 180 L 204 176 L 212 176 Z"/>
    <path id="path51" fill="#ffffff" stroke="none" d="M 212 188 L 204 188 L 204 184 L 212 184 Z"/>
    <path id="path52" fill="#ffffff" stroke="none" d="M 212 196 L 204 196 L 204 192 L 212 192 Z"/>
    <path id="path53" fill="#ffffff" stroke="none" d="M 228 172 L 220 172 L 220 168 L 228 168 Z"/>
    <path id="path54" fill="#ffffff" stroke="none" d="M 228 180 L 220 180 L 220 176 L 228 176 Z"/>
    <path id="path55" fill="#ffffff" stroke="none" d="M 228 188 L 220 188 L 220 184 L 228 184 Z"/>
    <path id="path56" fill="#ffffff" stroke="none" d="M 228 196 L 220 196 L 220 192 L 228 192 Z"/>
</svg>
