<?xml version="1.0" encoding="UTF-8"?>
<!-- Generated by Pixelmator Pro 3.7.1 -->
<svg width="256" height="256" viewBox="0 0 256 256" xmlns="http://www.w3.org/2000/svg">
    <path id="Path" fill="#ffffff" stroke="none" d="M 24 150 C 24 148.895996 24.896 148 26 148 L 30 148 C 31.104 148 32 148.895996 32 150 L 32 154 C 32 155.104004 31.104 156 30 156 L 26 156 C 24.896 156 24 155.104004 24 154 Z M 28 126 C 28 124.895996 28.896 124 30 124 C 31.104 124 32 124.895996 32 126 L 32 130 C 32 131.104004 31.104 132 30 132 C 28.896 132 28 131.104004 28 130 Z M 38 124 L 42 124 C 43.104 124 44 124.895996 44 126 L 44 130 C 44 131.104004 43.104 132 42 132 L 38 132 C 36.896 132 36 131.104004 36 130 L 36 126 C 36 124.895996 36.896 124 38 124 M 50 124 L 54 124 C 55.104 124 56 124.895996 56 126 L 56 130 C 56 131.104004 55.104 132 54 132 L 50 132 C 48.896 132 48 131.104004 48 130 L 48 126 C 48 124.895996 48.896 124 50 124 M 62 124 L 66 124 C 67.104004 124 68 124.895996 68 126 L 68 130 C 68 131.104004 67.104004 132 66 132 L 62 132 C 60.896 132 60 131.104004 60 130 L 60 126 C 60 124.895996 60.896 124 62 124 M 74 124 L 78 124 C 79.104004 124 80 124.895996 80 126 L 80 130 C 80 131.104004 79.104004 132 78 132 L 74 132 C 72.895996 132 72 131.104004 72 130 L 72 126 C 72 124.895996 72.895996 124 74 124 M 86 124 L 90 124 C 91.103996 124 92 124.895996 92 126 L 92 130 C 92 131.104004 91.103996 132 90 132 L 86 132 C 84.895996 132 84 131.104004 84 130 L 84 126 C 84 124.895996 84.895996 124 86 124 M 98 124 L 102 124 C 103.103996 124 104 124.895996 104 126 L 104 130 C 104 131.104004 103.103996 132 102 132 L 98 132 C 96.896004 132 96 131.104004 96 130 L 96 126 C 96 124.895996 96.896004 124 98 124 M 110 124 L 114 124 C 115.103996 124 116 124.895996 116 126 L 116 130 C 116 131.104004 115.103996 132 114 132 L 110 132 C 108.896004 132 108 131.104004 108 130 L 108 126 C 108 124.895996 108.896004 124 110 124 M 122 124 L 126 124 C 127.103996 124 128 124.895996 128 126 L 128 130 C 128 131.104004 127.103996 132 126 132 L 122 132 C 120.896004 132 120 131.104004 120 130 L 120 126 C 120 124.895996 120.896004 124 122 124 M 134 124 L 138 124 C 139.104004 124 140 124.895996 140 126 L 140 130 C 140 131.104004 139.104004 132 138 132 L 134 132 C 132.895996 132 132 131.104004 132 130 L 132 126 C 132 124.895996 132.895996 124 134 124 M 146 124 L 150 124 C 151.104004 124 152 124.895996 152 126 L 152 130 C 152 131.104004 151.104004 132 150 132 L 146 132 C 144.895996 132 144 131.104004 144 130 L 144 126 C 144 124.895996 144.895996 124 146 124 M 158 124 L 162 124 C 163.104004 124 164 124.895996 164 126 L 164 130 C 164 131.104004 163.104004 132 162 132 L 158 132 C 156.895996 132 156 131.104004 156 130 L 156 126 C 156 124.895996 156.895996 124 158 124 M 170 124 L 174 124 C 175.104004 124 176 124.895996 176 126 L 176 130 C 176 131.104004 175.104004 132 174 132 L 170 132 C 168.895996 132 168 131.104004 168 130 L 168 126 C 168 124.895996 168.895996 124 170 124 M 182 124 L 186 124 C 187.104004 124 188 124.895996 188 126 L 188 130 C 188 131.104004 187.104004 132 186 132 L 182 132 C 180.895996 132 180 131.104004 180 130 L 180 126 C 180 124.895996 180.895996 124 182 124 M 194 124 L 198 124 C 199.104004 124 200 124.895996 200 126 L 200 130 C 200 131.104004 199.104004 132 198 132 L 194 132 C 192.895996 132 192 131.104004 192 130 L 192 126 C 192 124.895996 192.895996 124 194 124 M 200 142 C 200 143.104004 199.104004 144 198 144 L 194 144 L 190 144 C 188.895996 144 188 143.104004 188 142 L 188 138 C 188 136.895996 188.895996 136 190 136 L 194 136 L 198 136 C 199.104004 136 200 136.895996 200 138 Z M 196 166 C 196 167.104004 195.104004 168 194 168 L 190 168 C 188.895996 168 188 167.104004 188 166 L 188 162 C 188 160.895996 188.895996 160 190 160 L 194 160 C 195.104004 160 196 160.895996 196 162 Z M 182 168 L 178 168 C 176.895996 168 176 167.104004 176 166 L 176 162 C 176 160.895996 176.895996 160 178 160 L 182 160 C 183.104004 160 184 160.895996 184 162 L 184 166 C 184 167.104004 183.104004 168 182 168 M 170 168 L 162 168 C 160.895996 168 160 167.104004 160 166 L 160 162 C 160 160.895996 160.895996 160 162 160 L 170 160 C 171.104004 160 172 160.895996 172 162 L 172 166 C 172 167.104004 171.104004 168 170 168 M 154 168 L 150 168 C 148.895996 168 148 167.104004 148 166 L 148 162 C 148 160.895996 148.895996 160 150 160 L 154 160 C 155.104004 160 156 160.895996 156 162 L 156 166 C 156 167.104004 155.104004 168 154 168 M 152 178 C 152 179.104004 151.104004 180 150 180 L 54 180 C 52.896 180 52 179.104004 52 178 L 52 174 C 52 172.895996 52.896 172 54 172 L 58 172 L 66 172 L 70 172 L 78 172 L 82 172 L 90 172 L 94 172 L 102 172 L 106 172 L 114 172 L 118 172 L 126 172 L 130 172 L 138 172 L 142 172 L 150 172 C 151.104004 172 152 172.895996 152 174 Z M 46 168 L 38 168 C 36.896 168 36 167.104004 36 166 L 36 162 C 36 160.895996 36.896 160 38 160 L 42 160 L 46 160 C 47.104 160 48 160.895996 48 162 L 48 166 C 48 167.104004 47.104 168 46 168 M 36 150 C 36 148.895996 36.896 148 38 148 L 42 148 C 43.104 148 44 148.895996 44 150 L 44 154 C 44 155.104004 43.104 156 42 156 L 38 156 C 36.896 156 36 155.104004 36 154 Z M 52 138 L 52 142 C 52 143.104004 51.104 144 50 144 L 46 144 C 44.896 144 44 143.104004 44 142 L 44 138 C 44 136.895996 44.896 136 46 136 L 50 136 C 51.104 136 52 136.895996 52 138 M 64 138 L 64 142 C 64 143.104004 63.104 144 62 144 L 58 144 C 56.896 144 56 143.104004 56 142 L 56 138 C 56 136.895996 56.896 136 58 136 L 62 136 C 63.104 136 64 136.895996 64 138 M 76 138 L 76 142 C 76 143.104004 75.104004 144 74 144 L 70 144 C 68.895996 144 68 143.104004 68 142 L 68 138 C 68 136.895996 68.895996 136 70 136 L 74 136 C 75.104004 136 76 136.895996 76 138 M 88 138 L 88 142 C 88 143.104004 87.104004 144 86 144 L 82 144 C 80.895996 144 80 143.104004 80 142 L 80 138 C 80 136.895996 80.895996 136 82 136 L 86 136 C 87.104004 136 88 136.895996 88 138 M 100 138 L 100 142 C 100 143.104004 99.103996 144 98 144 L 94 144 C 92.896004 144 92 143.104004 92 142 L 92 138 C 92 136.895996 92.896004 136 94 136 L 98 136 C 99.103996 136 100 136.895996 100 138 M 112 138 L 112 142 C 112 143.104004 111.103996 144 110 144 L 106 144 C 104.896004 144 104 143.104004 104 142 L 104 138 C 104 136.895996 104.896004 136 106 136 L 110 136 C 111.103996 136 112 136.895996 112 138 M 124 138 L 124 142 C 124 143.104004 123.103996 144 122 144 L 118 144 C 116.896004 144 116 143.104004 116 142 L 116 138 C 116 136.895996 116.896004 136 118 136 L 122 136 C 123.103996 136 124 136.895996 124 138 M 136 138 L 136 142 C 136 143.104004 135.104004 144 134 144 L 130 144 C 128.895996 144 128 143.104004 128 142 L 128 138 C 128 136.895996 128.895996 136 130 136 L 134 136 C 135.104004 136 136 136.895996 136 138 M 148 138 L 148 142 C 148 143.104004 147.104004 144 146 144 L 142 144 C 140.895996 144 140 143.104004 140 142 L 140 138 C 140 136.895996 140.895996 136 142 136 L 146 136 C 147.104004 136 148 136.895996 148 138 M 160 138 L 160 142 C 160 143.104004 159.104004 144 158 144 L 154 144 C 152.895996 144 152 143.104004 152 142 L 152 138 C 152 136.895996 152.895996 136 154 136 L 158 136 C 159.104004 136 160 136.895996 160 138 M 172 138 L 172 142 C 172 143.104004 171.104004 144 170 144 L 166 144 C 164.895996 144 164 143.104004 164 142 L 164 138 C 164 136.895996 164.895996 136 166 136 L 170 136 C 171.104004 136 172 136.895996 172 138 M 184 138 L 184 142 C 184 143.104004 183.104004 144 182 144 L 178 144 C 176.895996 144 176 143.104004 176 142 L 176 138 C 176 136.895996 176.895996 136 178 136 L 182 136 C 183.104004 136 184 136.895996 184 138 M 168 154 L 168 150 C 168 148.895996 168.895996 148 170 148 L 174 148 C 175.104004 148 176 148.895996 176 150 L 176 154 C 176 155.104004 175.104004 156 174 156 L 170 156 C 168.895996 156 168 155.104004 168 154 M 158 156 C 156.895996 156 156 155.104004 156 154 L 156 150 C 156 148.895996 156.895996 148 158 148 L 162 148 C 163.104004 148 164 148.895996 164 150 L 164 154 C 164 155.104004 163.104004 156 162 156 Z M 146 156 C 144.895996 156 144 155.104004 144 154 L 144 150 C 144 148.895996 144.895996 148 146 148 L 150 148 C 151.104004 148 152 148.895996 152 150 L 152 154 C 152 155.104004 151.104004 156 150 156 Z M 136 166 L 136 162 C 136 160.895996 136.895996 160 138 160 L 142 160 C 143.104004 160 144 160.895996 144 162 L 144 166 C 144 167.104004 143.104004 168 142 168 L 138 168 C 136.895996 168 136 167.104004 136 166 M 124 166 L 124 162 C 124 160.895996 124.896004 160 126 160 L 130 160 C 131.104004 160 132 160.895996 132 162 L 132 166 C 132 167.104004 131.104004 168 130 168 L 126 168 C 124.896004 168 124 167.104004 124 166 M 112 166 L 112 162 C 112 160.895996 112.896004 160 114 160 L 118 160 C 119.103996 160 120 160.895996 120 162 L 120 166 C 120 167.104004 119.103996 168 118 168 L 114 168 C 112.896004 168 112 167.104004 112 166 M 100 166 L 100 162 C 100 160.895996 100.896004 160 102 160 L 106 160 C 107.103996 160 108 160.895996 108 162 L 108 166 C 108 167.104004 107.103996 168 106 168 L 102 168 C 100.896004 168 100 167.104004 100 166 M 88 166 L 88 162 C 88 160.895996 88.896004 160 90 160 L 94 160 C 95.103996 160 96 160.895996 96 162 L 96 166 C 96 167.104004 95.103996 168 94 168 L 90 168 C 88.896004 168 88 167.104004 88 166 M 76 166 L 76 162 C 76 160.895996 76.895996 160 78 160 L 82 160 C 83.104004 160 84 160.895996 84 162 L 84 166 C 84 167.104004 83.104004 168 82 168 L 78 168 C 76.895996 168 76 167.104004 76 166 M 64 166 L 64 162 C 64 160.895996 64.895996 160 66 160 L 70 160 C 71.104004 160 72 160.895996 72 162 L 72 166 C 72 167.104004 71.104004 168 70 168 L 66 168 C 64.895996 168 64 167.104004 64 166 M 52 166 L 52 162 C 52 160.895996 52.896 160 54 160 L 58 160 C 59.104 160 60 160.895996 60 162 L 60 166 C 60 167.104004 59.104 168 58 168 L 54 168 C 52.896 168 52 167.104004 52 166 M 54 148 C 55.104 148 56 148.895996 56 150 L 56 154 C 56 155.104004 55.104 156 54 156 L 50 156 C 48.896 156 48 155.104004 48 154 L 48 150 C 48 148.895996 48.896 148 50 148 Z M 66 148 C 67.104004 148 68 148.895996 68 150 L 68 154 C 68 155.104004 67.104004 156 66 156 L 62 156 C 60.896 156 60 155.104004 60 154 L 60 150 C 60 148.895996 60.896 148 62 148 Z M 78 148 C 79.104004 148 80 148.895996 80 150 L 80 154 C 80 155.104004 79.104004 156 78 156 L 74 156 C 72.895996 156 72 155.104004 72 154 L 72 150 C 72 148.895996 72.895996 148 74 148 Z M 90 148 C 91.103996 148 92 148.895996 92 150 L 92 154 C 92 155.104004 91.103996 156 90 156 L 86 156 C 84.895996 156 84 155.104004 84 154 L 84 150 C 84 148.895996 84.895996 148 86 148 Z M 102 148 C 103.103996 148 104 148.895996 104 150 L 104 154 C 104 155.104004 103.103996 156 102 156 L 98 156 C 96.896004 156 96 155.104004 96 154 L 96 150 C 96 148.895996 96.896004 148 98 148 Z M 114 148 C 115.103996 148 116 148.895996 116 150 L 116 154 C 116 155.104004 115.103996 156 114 156 L 110 156 C 108.896004 156 108 155.104004 108 154 L 108 150 C 108 148.895996 108.896004 148 110 148 Z M 126 148 C 127.103996 148 128 148.895996 128 150 L 128 154 C 128 155.104004 127.103996 156 126 156 L 122 156 C 120.896004 156 120 155.104004 120 154 L 120 150 C 120 148.895996 120.896004 148 122 148 Z M 138 148 C 139.104004 148 140 148.895996 140 150 L 140 154 C 140 155.104004 139.104004 156 138 156 L 134 156 C 132.895996 156 132 155.104004 132 154 L 132 150 C 132 148.895996 132.895996 148 134 148 Z M 196 150 L 196 154 C 196 155.104004 195.104004 156 194 156 L 190 156 L 182 156 C 180.895996 156 180 155.104004 180 154 L 180 150 C 180 148.895996 180.895996 148 182 148 L 190 148 L 194 148 C 195.104004 148 196 148.895996 196 150 M 28 142 L 28 138 C 28 136.895996 28.896 136 30 136 L 38 136 C 39.104 136 40 136.895996 40 138 L 40 142 C 40 143.104004 39.104 144 38 144 L 30 144 C 28.896 144 28 143.104004 28 142 M 30 168 L 26 168 C 24.896 168 24 167.104004 24 166 L 24 162 C 24 160.895996 24.896 160 26 160 L 30 160 C 31.104 160 32 160.895996 32 162 L 32 166 C 32 167.104004 31.104 168 30 168 M 26 172 L 30 172 C 31.538 172 32.937 171.414001 34 170.459 C 35.063 171.414001 36.461998 172 38 172 L 46 172 C 46.932999 172 47.813 171.778992 48.601997 171.39801 C 48.220001 172.186996 48 173.067001 48 174 L 48 178 C 48 181.30899 50.691002 184 54 184 L 150 184 C 153.309006 184 156 181.30899 156 178 L 156 174 C 156 173.216995 155.845001 172.471008 155.570999 171.783997 C 156.485992 171.535004 157.313004 171.076004 158 170.459 C 159.061996 171.414001 160.462997 172 162 172 L 170 172 C 171.537003 172 172.936996 171.414001 174 170.459 C 175.061996 171.414001 176.462997 172 178 172 L 182 172 C 183.537003 172 184.936996 171.414001 186 170.459 C 187.061996 171.414001 188.462997 172 190 172 L 194 172 C 197.309006 172 200 169.30899 200 166 L 200 162 C 200 160.462997 199.414001 159.063004 198.459 158 C 199.414001 156.936996 200 155.537003 200 154 L 200 150 C 200 149.21701 199.845001 148.471008 199.570999 147.783997 C 202.117996 147.09201 204 144.764008 204 142 L 204 138 C 204 136.462997 203.414001 135.061996 202.459 134 C 203.414001 132.938004 204 131.537003 204 130 L 204 126 C 204 122.690994 201.309006 120 198 120 L 194 120 C 192.462997 120 191.061996 120.585999 190 121.541 C 188.936996 120.585999 187.537003 120 186 120 L 182 120 C 180.462997 120 179.061996 120.585999 178 121.541 C 176.936996 120.585999 175.537003 120 174 120 L 170 120 C 168.462997 120 167.061996 120.585999 166 121.541 C 164.936996 120.585999 163.537003 120 162 120 L 158 120 C 156.462997 120 155.061996 120.585999 154 121.541 C 152.936996 120.585999 151.537003 120 150 120 L 146 120 C 144.462997 120 143.063004 120.585999 142 121.541 C 140.938004 120.585999 139.537003 120 138 120 L 134 120 C 132.462997 120 131.063004 120.585999 130 121.541 C 128.936996 120.585999 127.538002 120 126 120 L 122 120 C 120.461998 120 119.063004 120.585999 118 121.541 C 116.936996 120.585999 115.538002 120 114 120 L 110 120 C 108.461998 120 107.063004 120.585999 106 121.541 C 104.936996 120.585999 103.538002 120 102 120 L 98 120 C 96.461998 120 95.063004 120.585999 94 121.541 C 92.936996 120.585999 91.538002 120 90 120 L 86 120 C 84.462006 120 83.063004 120.585999 82 121.541 C 80.936996 120.585999 79.537994 120 78 120 L 74 120 C 72.462006 120 71.063004 120.585999 70 121.541 C 68.936996 120.585999 67.537994 120 66 120 L 62 120 C 60.462002 120 59.063 120.585999 58 121.541 C 56.937 120.585999 55.538002 120 54 120 L 50 120 C 48.461998 120 47.063 120.585999 46 121.541 C 44.937 120.585999 43.538002 120 42 120 L 38 120 C 36.461998 120 35.063 120.585999 34 121.541 C 32.937 120.585999 31.538 120 30 120 C 26.691 120 24 122.690994 24 126 L 24 130 C 24 131.537003 24.586 132.938004 25.541 134 C 24.586 135.061996 24 136.462997 24 138 L 24 142 C 24 142.78299 24.155001 143.528992 24.429001 144.216003 C 21.881001 144.90799 20 147.235992 20 150 L 20 154 C 20 155.537003 20.586 156.936996 21.541 158 C 20.586 159.063004 20 160.462997 20 162 L 20 166 C 20 169.30899 22.691 172 26 172"/>
    <path id="path1" fill="#ffffff" stroke="none" d="M 212 126 C 212 124.895996 212.895996 124 214 124 L 226 124 C 227.104004 124 228 124.895996 228 126 L 228 130 C 228 131.104004 227.104004 132 226 132 L 214 132 C 212.895996 132 212 131.104004 212 130 Z M 212 142 L 212 138 C 212 136.895996 212.895996 136 214 136 L 226 136 C 227.104004 136 228 136.895996 228 138 L 228 142 C 228 143.104004 227.104004 144 226 144 L 214 144 C 212.895996 144 212 143.104004 212 142 M 212 154 L 212 150 C 212 148.895996 212.895996 148 214 148 L 226 148 C 227.104004 148 228 148.895996 228 150 L 228 154 C 228 155.104004 227.104004 156 226 156 L 214 156 C 212.895996 156 212 155.104004 212 154 M 228 166 C 228 167.104004 227.104004 168 226 168 L 214 168 C 212.895996 168 212 167.104004 212 166 L 212 162 C 212 160.895996 212.895996 160 214 160 L 226 160 C 227.104004 160 228 160.895996 228 162 Z M 214 172 L 226 172 C 229.309006 172 232 169.30899 232 166 L 232 162 C 232 160.462997 231.414001 159.063004 230.459 158 C 231.414001 156.936996 232 155.537003 232 154 L 232 150 C 232 148.462997 231.414001 147.061996 230.459 146 C 231.414001 144.936996 232 143.537003 232 142 L 232 138 C 232 136.462997 231.414001 135.063004 230.459 134 C 231.414001 132.936996 232 131.537003 232 130 L 232 126 C 232 122.690994 229.309006 120 226 120 L 214 120 C 210.690994 120 208 122.690994 208 126 L 208 130 C 208 131.537003 208.585999 132.936996 209.541 134 C 208.585999 135.063004 208 136.462997 208 138 L 208 142 C 208 143.537003 208.585999 144.936996 209.541 146 C 208.585999 147.061996 208 148.462997 208 150 L 208 154 C 208 155.537003 208.585999 156.936996 209.541 158 C 208.585999 159.063004 208 160.462997 208 162 L 208 166 C 208 169.30899 210.690994 172 214 172"/>
    <path id="path2" fill="#ffffff" stroke="none" d="M 16 112 L 24 104 L 232 104 L 240 112 Z M 236.195007 188 L 228 188 L 228 180 L 228 176 L 224 176 L 184 176 L 180 176 L 180 180 L 180 188 L 19.805 188 L 16.205 116 L 239.794998 116 Z M 184 180 L 224 180 L 224 188 L 184 188 Z M 232 100 L 24 100 L 24 96 L 232 96 Z M 24 88 L 232 88 L 232 92 L 24 92 Z M 24 80 L 232 80 L 232 84 L 24 84 Z M 24 68 L 232 68 L 232 76 L 24 76 Z M 242.828003 109.171005 L 236 102.343002 L 236 96 L 236 92 L 236 88 L 236 84 L 236 80 L 236 76 L 236 64 L 20 64 L 20 76 L 20 80 L 20 84 L 20 88 L 20 92 L 20 96 L 20 102.343002 L 13.171 109.171005 L 12 110.343002 L 12 116 L 12.2 116 L 16 192 L 180 192 L 184 192 L 224 192 L 228 192 L 240 192 L 243.800003 116 L 244 116 L 244 110.343002 Z"/>
</svg>
