<?xml version="1.0" encoding="UTF-8"?>
<!-- Generated by Pixelmator Pro 3.7.1 -->
<svg width="256" height="256" viewBox="0 0 256 256" xmlns="http://www.w3.org/2000/svg">
    <path id="Path" fill="#ffffff" stroke="none" d="M 101 201 L 63 201 L 63 179 L 101 179 Z M 104 176 L 60 176 L 60 204 L 104 204 Z"/>
    <path id="path1" fill="#ffffff" stroke="none" d="M 72 188 C 73.105003 188 74 188.894989 74 190 C 74 191.105011 73.105003 192 72 192 C 70.894997 192 70 191.105011 70 190 C 70 188.894989 70.894997 188 72 188 M 72 195 C 74.757004 195 77 192.757004 77 190 C 77 187.242996 74.757004 185 72 185 C 69.242996 185 67 187.242996 67 190 C 67 192.757004 69.242996 195 72 195"/>
    <path id="path2" fill="#ffffff" stroke="none" d="M 92 188 C 93.105003 188 94 188.894989 94 190 C 94 191.105011 93.105003 192 92 192 C 90.894997 192 90 191.105011 90 190 C 90 188.894989 90.894997 188 92 188 M 92 195 C 94.757004 195 97 192.757004 97 190 C 97 187.242996 94.757004 185 92 185 C 89.242996 185 87 187.242996 87 190 C 87 192.757004 89.242996 195 92 195"/>
    <path id="path3" fill="#ffffff" stroke="none" d="M 210 204 L 210 202 L 210 200 L 210 196 L 210 194 L 210 190 L 210 188 L 210 184 L 206 184 L 204 184 L 200 184 L 198 184 L 194 184 L 192 184 L 188 184 L 184 184 L 180 184 L 176 184 L 174 184 L 170 184 L 168 184 L 164 184 L 162 184 L 158 184 L 156 184 L 152 184 L 150 184 L 146 184 L 144 184 L 140 184 L 138 184 L 134 184 L 132 184 L 128 184 L 126 184 L 122 184 L 120 184 L 116 184 L 112 184 L 112 172 L 112 168 L 212 168 Z M 206 216 L 202 216 L 202 212 L 206 212 Z M 206 210 L 202 210 L 202 206 L 206 206 Z M 206 204 L 202 204 L 202 200 L 206 200 Z M 202 188 L 206 188 L 206 192 L 202 192 Z M 206 198 L 202 198 L 202 194 L 206 194 Z M 200 216 L 196 216 L 196 212 L 200 212 Z M 200 210 L 196 210 L 196 206 L 200 206 Z M 200 204 L 196 204 L 196 200 L 200 200 Z M 196 188 L 200 188 L 200 192 L 196 192 Z M 200 198 L 196 198 L 196 194 L 200 194 Z M 194 216 L 190 216 L 190 212 L 194 212 Z M 194 210 L 190 210 L 190 206 L 194 206 Z M 194 204 L 190 204 L 190 200 L 194 200 Z M 190 188 L 194 188 L 194 192 L 190 192 Z M 194 198 L 190 198 L 190 194 L 194 194 Z M 188 216 L 184 216 L 184 212 L 188 212 Z M 188 210 L 184 210 L 184 206 L 188 206 Z M 188 204 L 184 204 L 184 200 L 188 200 Z M 184 188 L 188 188 L 188 192 L 184 192 Z M 188 198 L 184 198 L 184 194 L 188 194 Z M 176 216 L 172 216 L 172 212 L 176 212 Z M 176 210 L 172 210 L 172 200 L 176 200 Z M 172 188 L 176 188 L 176 192 L 172 192 Z M 176 198 L 172 198 L 172 194 L 176 194 Z M 170 216 L 166 216 L 166 212 L 170 212 Z M 170 210 L 166 210 L 166 206 L 170 206 Z M 170 204 L 166 204 L 166 200 L 170 200 Z M 166 188 L 170 188 L 170 192 L 166 192 Z M 170 198 L 166 198 L 166 194 L 170 194 Z M 164 216 L 160 216 L 160 212 L 164 212 Z M 164 210 L 160 210 L 160 206 L 164 206 Z M 164 204 L 160 204 L 160 200 L 164 200 Z M 160 188 L 164 188 L 164 192 L 160 192 Z M 164 198 L 160 198 L 160 194 L 164 194 Z M 158 216 L 154 216 L 154 212 L 158 212 Z M 158 210 L 154 210 L 154 206 L 158 206 Z M 158 204 L 154 204 L 154 200 L 158 200 Z M 154 188 L 158 188 L 158 192 L 154 192 Z M 158 198 L 154 198 L 154 194 L 158 194 Z M 152 210 L 148 210 L 148 206 L 152 206 Z M 152 204 L 148 204 L 148 200 L 152 200 Z M 148 188 L 152 188 L 152 192 L 148 192 Z M 152 198 L 148 198 L 148 194 L 152 194 Z M 152 216 L 142 216 L 142 212 L 152 212 Z M 146 210 L 142 210 L 142 206 L 146 206 Z M 146 204 L 142 204 L 142 200 L 146 200 Z M 142 188 L 146 188 L 146 192 L 142 192 Z M 146 198 L 142 198 L 142 194 L 146 194 Z M 140 216 L 136 216 L 136 212 L 140 212 Z M 140 210 L 136 210 L 136 206 L 140 206 Z M 140 204 L 136 204 L 136 200 L 140 200 Z M 136 188 L 140 188 L 140 192 L 136 192 Z M 140 198 L 136 198 L 136 194 L 140 194 Z M 134 216 L 130 216 L 130 212 L 134 212 Z M 134 210 L 130 210 L 130 206 L 134 206 Z M 134 204 L 130 204 L 130 200 L 134 200 Z M 130 188 L 134 188 L 134 192 L 130 192 Z M 134 198 L 130 198 L 130 194 L 134 194 Z M 128 216 L 124 216 L 124 212 L 128 212 Z M 128 210 L 124 210 L 124 206 L 128 206 Z M 128 204 L 124 204 L 124 200 L 128 200 Z M 124 188 L 128 188 L 128 192 L 124 192 Z M 128 198 L 124 198 L 124 194 L 128 194 Z M 122 216 L 118 216 L 118 212 L 122 212 Z M 122 210 L 118 210 L 118 206 L 122 206 Z M 122 204 L 118 204 L 118 200 L 122 200 Z M 118 188 L 122 188 L 122 192 L 118 192 Z M 122 198 L 118 198 L 118 194 L 122 194 Z M 48 240 L 44 168 L 47.723999 168 L 48.009003 172.265991 L 52 232.132996 L 52 236 L 52.257996 236 L 56 236 L 60 236 L 64 236 L 68 236 L 72 236 L 76 236 L 80 236 L 84 236 L 88 236 L 92 236 L 96 236 L 100 236 L 104 236 L 108 236 L 112 236 L 112 232 L 112 220 L 114 220 L 118 220 L 120 220 L 124 220 L 126 220 L 130 220 L 132 220 L 136 220 L 138 220 L 142 220 L 150 220 L 154 220 L 156 220 L 160 220 L 162 220 L 166 220 L 168 220 L 172 220 L 176 220 L 180 220 L 184 220 L 186 220 L 190 220 L 192 220 L 196 220 L 198 220 L 202 220 L 206 220 L 209.110992 220 L 208 240 Z M 40 40 L 44 40 L 44 160 L 40 160 Z M 60 16 L 196 16 L 196 16 L 208 40 L 208 160 L 196 144 L 196 144 L 60 144 L 48 160 L 48 40 Z M 212 40 L 216 40 L 216 160 L 212 160 L 212 160 Z M 195.960007 150.613007 C 195.979996 150.740997 196 150.867996 196 151 L 196 152 C 196 154.209 165.554993 156 128 156 C 90.445 156 60 154.209 60 152 L 60 151 C 60 150.867996 60.020004 150.740005 60.039993 150.613007 L 62 148 L 194 148 Z M 48.001999 164 C 49.235992 163.998993 50.429993 163.425995 51.199997 162.399994 L 56.947006 154.737 C 58.554001 156.643997 61.925995 157.119995 64.792999 157.518997 C 68.322006 158.009995 73.332001 158.447998 79.682007 158.820999 C 92.600998 159.580994 109.761002 160 128 160 C 146.238998 160 163.399002 159.580994 176.317993 158.820999 C 182.667999 158.447998 187.677994 158.009995 191.207001 157.518997 C 194.074005 157.119995 197.445999 156.643997 199.052994 154.737 L 204.800003 162.399994 C 205.570007 163.425995 206.764999 164 207.998993 164 Z M 108 220 L 108 232 L 104 232 L 104 216 L 108 216 Z M 100 232 L 96 232 L 96 216 L 100 216 Z M 92 232 L 88 232 L 88 216 L 92 216 Z M 84 232 L 80 232 L 80 216 L 84 216 Z M 76 232 L 72 232 L 72 216 L 76 216 Z M 68 232 L 64 232 L 64 216 L 68 216 Z M 60 232 L 56 232 L 56 216 L 60 216 Z M 108 172 L 108 184 L 108 188 L 108 192 L 108 196 L 108 198 L 108 202 L 108 204 L 108 208 L 108 210 L 108 212 L 104 212 L 100 212 L 96 212 L 92 212 L 88 212 L 84 212 L 80 212 L 76 212 L 72 212 L 68 212 L 64 212 L 60 212 L 56 212 L 54.667007 212 L 52 172 L 52 168 L 108 168 Z M 112 188 L 116 188 L 116 192 L 112 192 Z M 112 194 L 116 194 L 116 198 L 112 198 Z M 112 200 L 116 200 L 116 204 L 112 204 Z M 112 206 L 116 206 L 116 210 L 112 210 Z M 112 212 L 116 212 L 116 216 L 112 216 Z M 216 36 L 210.472 36 L 199.578003 14.210999 C 198.899994 12.856003 197.514999 12 196 12 L 60 12 C 58.485001 12 57.100006 12.856003 56.421997 14.210999 L 45.528 36 L 40 36 L 36 36 L 36 40 L 36 160 L 36 164 L 39.772003 164 L 40.005997 168.222 L 44.005997 240.222 L 44.216003 244 L 48 244 L 208 244 L 211.783997 244 L 211.994003 240.222 L 215.994003 168.222 L 216.227997 164 L 220 164 L 220 160 L 220 40 L 220 36 Z"/>
</svg>
