<?xml version="1.0" encoding="UTF-8"?>
<!-- Generated by Pixelmator Pro 3.7.1 -->
<svg width="256" height="256" viewBox="0 0 256 256" xmlns="http://www.w3.org/2000/svg">
    <path id="Path" fill="#ffffff" stroke="none" d="M 240 60 L 16 60 C 11.589005 60 8 63.589005 8 68 L 8 188 L 8 192 L 12 192 L 244 192 L 248 192 L 248 188 L 248 68 C 248 63.589005 244.410995 60 240 60 M 240 64 C 242.209 64 244 65.791 244 68 L 244 188 L 12 188 L 12 68 C 12 65.791 13.791 64 16 64 L 240 64"/>
    <path id="path1" fill="#ffffff" stroke="none" d="M 228 68 L 28 68 C 23.589005 68 20 71.589005 20 76 L 20 164 C 20 168.411011 23.589005 172 28 172 L 228 172 C 232.410995 172 236 168.411011 236 164 L 236 76 C 236 71.589005 232.410995 68 228 68 M 228 72 C 230.209 72 232 73.791 232 76 L 232 164 C 232 166.209 230.209 168 228 168 L 28 168 C 25.791 168 24 166.209 24 164 L 24 76 C 24 73.791 25.791 72 28 72 L 228 72"/>
    <path id="path2" fill="#ffffff" stroke="none" d="M 216 84 L 40 84 C 33.382996 84 28 89.382996 28 96 L 28 152 C 28 158.617004 33.382996 164 40 164 L 216 164 C 222.617004 164 228 158.617004 228 152 L 228 96 C 228 89.382996 222.617004 84 216 84 M 216 88 C 220.410995 88 224 91.589005 224 96 L 224 152 C 224 156.411011 220.410995 160 216 160 L 40 160 C 35.589005 160 32 156.411011 32 152 L 32 96 C 32 91.589005 35.589005 88 40 88 L 216 88"/>
</svg>
