<?xml version="1.0" encoding="UTF-8"?>
<!-- Generated by Pixelmator Pro 3.7.1 -->
<svg width="256" height="256" viewBox="0 0 256 256" xmlns="http://www.w3.org/2000/svg">
    <path id="Path" fill="#ffffff" stroke="none" d="M 236 128 L 232 128 L 232 116 L 236 116 Z M 236 200 L 16 200 L 16 116 L 20 116 L 20 128 L 20 132 L 20 144 L 20 148 L 20 160 L 20 164 L 20 176 L 20 180 L 24 180 L 36 180 L 40 180 L 56 180 L 60 180 L 64 180 L 64 192 L 64 196 L 68 196 L 184 196 L 188 196 L 188 192 L 188 180 L 204 180 L 208 180 L 208 176 L 208 164 L 220 164 L 224 164 L 224 160 L 224 148 L 232 148 L 236 148 Z M 20 65.600006 L 20 68.113998 L 24 68.113998 L 24 96 L 21.858999 96 L 20.672001 97.781006 L 16 104.789001 L 16 66.970993 Z M 28 68.113998 L 32 68.113998 L 32 88 L 36 88 L 36 68.113998 L 40 68.113998 L 40 88 L 44 88 L 44 68.113998 L 48 68.113998 L 48 88 L 52 88 L 52 68.113998 L 56 68.113998 L 56 88 L 60 88 L 60 68.113998 L 64 68.113998 L 64 88 L 68 88 L 68 68.113998 L 72 68.113998 L 72 88 L 76 88 L 76 68.113998 L 80 68.113998 L 80 88 L 84 88 L 84 68.113998 L 88 68.113998 L 88 88 L 92 88 L 92 68.113998 L 96 68.113998 L 96 88 L 100 88 L 100 68.113998 L 104 68.113998 L 104 88 L 108 88 L 108 68.113998 L 112 68.113998 L 112 88 L 116 88 L 116 68.113998 L 120 68.113998 L 120 88 L 124 88 L 124 68.113998 L 128 68.113998 L 128 88 L 132 88 L 132 68.113998 L 136 68.113998 L 136 88 L 140 88 L 140 68.113998 L 144 68.113998 L 144 88 L 148 88 L 148 68.113998 L 152 68.113998 L 152 88 L 156 88 L 156 68.113998 L 160 68.113998 L 160 88 L 164 88 L 164 68.113998 L 168 68.113998 L 168 88 L 172 88 L 172 68.113998 L 176 68.113998 L 176 88 L 180 88 L 180 68.113998 L 184 68.113998 L 184 88 L 188 88 L 188 68.113998 L 192 68.113998 L 192 88 L 196 88 L 196 68.113998 L 200 68.113998 L 200 88 L 204 88 L 204 68.113998 L 208 68.113998 L 208 88 L 212 88 L 212 68.113998 L 216 68.113998 L 216 88 L 220 88 L 220 68.113998 L 224 68.113998 L 224 96 L 28 96 Z M 228 128 L 220 128 L 216 128 L 216 116 L 228 116 Z M 220 132 L 228 132 L 232 132 L 232 144 L 224 144 L 220 144 Z M 200 160 L 200 148 L 204 148 L 216 148 L 220 148 L 220 160 L 208 160 L 204 160 Z M 188 164 L 196 164 L 200 164 L 204 164 L 204 176 L 188 176 Z M 172 176 L 172 164 L 180 164 L 184 164 L 184 176 Z M 68 180 L 72 180 L 76 180 L 88 180 L 92 180 L 104 180 L 108 180 L 120 180 L 124 180 L 136 180 L 140 180 L 152 180 L 156 180 L 168 180 L 172 180 L 184 180 L 184 192 L 68 192 Z M 60 164 L 68 164 L 72 164 L 72 176 L 68 176 L 64 176 L 60 176 Z M 40 164 L 52 164 L 56 164 L 56 176 L 40 176 Z M 52 128 L 44 128 L 40 128 L 40 116 L 52 116 Z M 68 128 L 60 128 L 56 128 L 56 116 L 68 116 Z M 84 128 L 76 128 L 72 128 L 72 116 L 84 116 Z M 100 128 L 92 128 L 88 128 L 88 116 L 100 116 Z M 116 128 L 108 128 L 104 128 L 104 116 L 116 116 Z M 132 128 L 124 128 L 120 128 L 120 116 L 132 116 Z M 148 128 L 140 128 L 136 128 L 136 116 L 148 116 Z M 164 128 L 156 128 L 152 128 L 152 116 L 164 116 Z M 180 128 L 172 128 L 168 128 L 168 116 L 180 116 Z M 196 128 L 188 128 L 184 128 L 184 116 L 196 116 Z M 212 128 L 204 128 L 200 128 L 200 116 L 212 116 Z M 188 144 L 188 132 L 196 132 L 200 132 L 200 144 L 196 144 Z M 168 148 L 172 148 L 180 148 L 180 160 L 172 160 L 168 160 Z M 140 164 L 148 164 L 152 164 L 152 176 L 140 176 Z M 124 164 L 132 164 L 136 164 L 136 176 L 124 176 Z M 108 164 L 116 164 L 120 164 L 120 176 L 108 176 Z M 92 164 L 100 164 L 104 164 L 104 176 L 92 176 Z M 76 164 L 84 164 L 88 164 L 88 176 L 76 176 Z M 72 148 L 76 148 L 84 148 L 84 160 L 76 160 L 72 160 Z M 56 148 L 60 148 L 68 148 L 68 160 L 60 160 L 56 160 Z M 72 144 L 68 144 L 60 144 L 60 132 L 68 132 L 72 132 Z M 88 144 L 84 144 L 76 144 L 76 132 L 84 132 L 88 132 Z M 104 144 L 100 144 L 92 144 L 92 132 L 100 132 L 104 132 Z M 120 144 L 116 144 L 108 144 L 108 132 L 116 132 L 120 132 Z M 136 144 L 132 144 L 124 144 L 124 132 L 132 132 L 136 132 Z M 152 144 L 148 144 L 140 144 L 140 132 L 148 132 L 152 132 Z M 136 148 L 140 148 L 148 148 L 148 160 L 140 160 L 136 160 Z M 120 148 L 124 148 L 132 148 L 132 160 L 124 160 L 120 160 Z M 104 148 L 108 148 L 116 148 L 116 160 L 108 160 L 104 160 Z M 88 148 L 92 148 L 100 148 L 100 160 L 92 160 L 88 160 Z M 164 160 L 156 160 L 152 160 L 152 148 L 156 148 L 164 148 Z M 168 144 L 164 144 L 156 144 L 156 132 L 164 132 L 168 132 Z M 184 144 L 180 144 L 172 144 L 172 132 L 180 132 L 184 132 Z M 44 132 L 52 132 L 56 132 L 56 144 L 52 144 L 44 144 Z M 40 148 L 44 148 L 52 148 L 52 160 L 40 160 Z M 168 176 L 156 176 L 156 164 L 164 164 L 168 164 Z M 196 160 L 188 160 L 184 160 L 184 148 L 188 148 L 196 148 Z M 216 144 L 204 144 L 204 132 L 212 132 L 216 132 Z M 24 116 L 36 116 L 36 128 L 24 128 Z M 24 132 L 36 132 L 40 132 L 40 144 L 36 144 L 24 144 Z M 24 148 L 36 148 L 36 160 L 24 160 Z M 24 164 L 36 164 L 36 176 L 24 176 Z M 232 112 L 228 112 L 216 112 L 212 112 L 200 112 L 196 112 L 184 112 L 180 112 L 168 112 L 164 112 L 152 112 L 148 112 L 136 112 L 132 112 L 120 112 L 116 112 L 104 112 L 100 112 L 88 112 L 84 112 L 72 112 L 68 112 L 56 112 L 52 112 L 40 112 L 36 112 L 24 112 L 20 112 L 16 112 L 24 100 L 228 100 L 236 112 Z M 232 68.113998 L 232 65.600006 L 236 66.970993 L 236 104.789001 L 231.328003 97.781006 L 230.141006 96 L 228 96 L 228 68.113998 Z M 228 60 L 228 64 L 220 64 L 220 60 L 216 60 L 216 64 L 212 64 L 212 60 L 208 60 L 208 64 L 204 64 L 204 60 L 200 60 L 200 64 L 196 64 L 196 60 L 192 60 L 192 64 L 188 64 L 188 60 L 184 60 L 184 64 L 180 64 L 180 60 L 176 60 L 176 64 L 172 64 L 172 60 L 168 60 L 168 64 L 164 64 L 164 60 L 160 60 L 160 64 L 156 64 L 156 60 L 152 60 L 152 64 L 148 64 L 148 60 L 144 60 L 144 64 L 140 64 L 140 60 L 136 60 L 136 64 L 132 64 L 132 60 L 128 60 L 128 64 L 124 64 L 124 60 L 120 60 L 120 64 L 116 64 L 116 60 L 112 60 L 112 64 L 108 64 L 108 60 L 104 60 L 104 64 L 100 64 L 100 60 L 96 60 L 96 64 L 92 64 L 92 60 L 88 60 L 88 64 L 84 64 L 84 60 L 80 60 L 80 64 L 76 64 L 76 60 L 72 60 L 72 64 L 68 64 L 68 60 L 64 60 L 64 64 L 60 64 L 60 60 L 56 60 L 56 64 L 52 64 L 52 60 L 48 60 L 48 64 L 44 64 L 44 60 L 40 60 L 40 64 L 36 64 L 36 60 L 32 60 L 32 64 L 24 64 L 24 60 L 12 64.113998 L 12 110.789001 L 12 113.485992 L 12 116 L 12 204 L 240 204 L 240 116 L 240 113.485992 L 240 110.789001 L 240 64.113998 Z"/>
    <path id="path1" fill="#ffffff" stroke="none" d="M 36 108 L 60 108 L 60 104 L 36 104 Z"/>
    <path id="path2" fill="#ffffff" stroke="none" d="M 64 108 L 88 108 L 88 104 L 64 104 Z"/>
    <path id="path3" fill="#ffffff" stroke="none" d="M 92 108 L 116 108 L 116 104 L 92 104 Z"/>
    <path id="path4" fill="#ffffff" stroke="none" d="M 120 108 L 144 108 L 144 104 L 120 104 Z"/>
</svg>
