<?xml version="1.0" encoding="UTF-8"?>
<!-- Generated by Pixelmator Pro 3.7.1 -->
<svg width="256" height="256" viewBox="0 0 256 256" xmlns="http://www.w3.org/2000/svg">
    <path id="Path" fill="#ffffff" stroke="none" d="M 12 76 C 12 73.791 13.791 72 16 72 L 240 72 C 242.209 72 244 73.791 244 76 Z M 244 84 L 12 84 L 12 80 L 244 80 Z M 244 176 C 244 180.417999 240.417999 184 236 184 L 20 184 C 15.582 184 12 180.417999 12 176 L 12 88 L 244 88 Z M 240 68 L 16 68 C 11.589 68 8 71.589005 8 76 L 8 176 C 8 182.617004 13.383 188 20 188 L 236 188 C 242.617004 188 248 182.617004 248 176 L 248 76 C 248 71.589005 244.410995 68 240 68"/>
    <path id="path1" fill="#ffffff" stroke="none" d="M 20 134 C 20 132.895996 20.896 132 22 132 L 26 132 C 27.104 132 28 132.895996 28 134 L 28 138 C 28 139.104004 27.104 140 26 140 L 22 140 C 20.896 140 20 139.104004 20 138 Z M 24 110 C 24 108.895996 24.896 108 26 108 C 27.104 108 28 108.895996 28 110 L 28 114 C 28 115.104004 27.104 116 26 116 C 24.896 116 24 115.104004 24 114 Z M 34 108 L 38 108 C 39.104 108 40 108.895996 40 110 L 40 114 C 40 115.104004 39.104 116 38 116 L 34 116 C 32.896 116 32 115.104004 32 114 L 32 110 C 32 108.895996 32.896 108 34 108 M 46 108 L 50 108 C 51.104 108 52 108.895996 52 110 L 52 114 C 52 115.104004 51.104 116 50 116 L 46 116 C 44.896 116 44 115.104004 44 114 L 44 110 C 44 108.895996 44.896 108 46 108 M 58 108 L 62 108 C 63.104 108 64 108.895996 64 110 L 64 114 C 64 115.104004 63.104 116 62 116 L 58 116 C 56.896 116 56 115.104004 56 114 L 56 110 C 56 108.895996 56.896 108 58 108 M 70 108 L 74 108 C 75.104004 108 76 108.895996 76 110 L 76 114 C 76 115.104004 75.104004 116 74 116 L 70 116 C 68.895996 116 68 115.104004 68 114 L 68 110 C 68 108.895996 68.895996 108 70 108 M 82 108 L 86 108 C 87.103996 108 88 108.895996 88 110 L 88 114 C 88 115.104004 87.103996 116 86 116 L 82 116 C 80.895996 116 80 115.104004 80 114 L 80 110 C 80 108.895996 80.895996 108 82 108 M 94 108 L 98 108 C 99.103996 108 100 108.895996 100 110 L 100 114 C 100 115.104004 99.103996 116 98 116 L 94 116 C 92.896004 116 92 115.104004 92 114 L 92 110 C 92 108.895996 92.896004 108 94 108 M 106 108 L 110 108 C 111.103996 108 112 108.895996 112 110 L 112 114 C 112 115.104004 111.103996 116 110 116 L 106 116 C 104.896004 116 104 115.104004 104 114 L 104 110 C 104 108.895996 104.896004 108 106 108 M 118 108 L 122 108 C 123.103996 108 124 108.895996 124 110 L 124 114 C 124 115.104004 123.103996 116 122 116 L 118 116 C 116.896004 116 116 115.104004 116 114 L 116 110 C 116 108.895996 116.896004 108 118 108 M 130 108 L 134 108 C 135.104004 108 136 108.895996 136 110 L 136 114 C 136 115.104004 135.104004 116 134 116 L 130 116 C 128.895996 116 128 115.104004 128 114 L 128 110 C 128 108.895996 128.895996 108 130 108 M 142 108 L 146 108 C 147.104004 108 148 108.895996 148 110 L 148 114 C 148 115.104004 147.104004 116 146 116 L 142 116 C 140.895996 116 140 115.104004 140 114 L 140 110 C 140 108.895996 140.895996 108 142 108 M 154 108 L 158 108 C 159.104004 108 160 108.895996 160 110 L 160 114 C 160 115.104004 159.104004 116 158 116 L 154 116 C 152.895996 116 152 115.104004 152 114 L 152 110 C 152 108.895996 152.895996 108 154 108 M 166 108 L 170 108 C 171.104004 108 172 108.895996 172 110 L 172 114 C 172 115.104004 171.104004 116 170 116 L 166 116 C 164.895996 116 164 115.104004 164 114 L 164 110 C 164 108.895996 164.895996 108 166 108 M 178 108 L 182 108 C 183.104004 108 184 108.895996 184 110 L 184 114 C 184 115.104004 183.104004 116 182 116 L 178 116 C 176.895996 116 176 115.104004 176 114 L 176 110 C 176 108.895996 176.895996 108 178 108 M 190 108 L 194 108 C 195.104004 108 196 108.895996 196 110 L 196 114 C 196 115.104004 195.104004 116 194 116 L 190 116 C 188.895996 116 188 115.104004 188 114 L 188 110 C 188 108.895996 188.895996 108 190 108 M 196 126 C 196 127.104004 195.104004 128 194 128 L 190 128 L 186 128 C 184.895996 128 184 127.104004 184 126 L 184 122 C 184 120.895996 184.895996 120 186 120 L 190 120 L 194 120 C 195.104004 120 196 120.895996 196 122 Z M 192 150 C 192 151.104004 191.104004 152 190 152 L 186 152 C 184.895996 152 184 151.104004 184 150 L 184 146 C 184 144.895996 184.895996 144 186 144 L 190 144 C 191.104004 144 192 144.895996 192 146 Z M 178 152 L 174 152 C 172.895996 152 172 151.104004 172 150 L 172 146 C 172 144.895996 172.895996 144 174 144 L 178 144 C 179.104004 144 180 144.895996 180 146 L 180 150 C 180 151.104004 179.104004 152 178 152 M 166 152 L 158 152 C 156.895996 152 156 151.104004 156 150 L 156 146 C 156 144.895996 156.895996 144 158 144 L 166 144 C 167.104004 144 168 144.895996 168 146 L 168 150 C 168 151.104004 167.104004 152 166 152 M 150 152 L 146 152 C 144.895996 152 144 151.104004 144 150 L 144 146 C 144 144.895996 144.895996 144 146 144 L 150 144 C 151.104004 144 152 144.895996 152 146 L 152 150 C 152 151.104004 151.104004 152 150 152 M 148 162 C 148 163.104004 147.104004 164 146 164 L 50 164 C 48.896 164 48 163.104004 48 162 L 48 158 C 48 156.895996 48.896 156 50 156 L 54 156 L 62 156 L 66 156 L 74 156 L 78 156 L 86 156 L 90 156 L 98 156 L 102 156 L 110 156 L 114 156 L 122 156 L 126 156 L 134 156 L 138 156 L 146 156 C 147.104004 156 148 156.895996 148 158 Z M 42 152 L 34 152 C 32.896 152 32 151.104004 32 150 L 32 146 C 32 144.895996 32.896 144 34 144 L 38 144 L 42 144 C 43.104 144 44 144.895996 44 146 L 44 150 C 44 151.104004 43.104 152 42 152 M 32 134 C 32 132.895996 32.896 132 34 132 L 38 132 C 39.104 132 40 132.895996 40 134 L 40 138 C 40 139.104004 39.104 140 38 140 L 34 140 C 32.896 140 32 139.104004 32 138 Z M 48 122 L 48 126 C 48 127.104004 47.104 128 46 128 L 42 128 C 40.896 128 40 127.104004 40 126 L 40 122 C 40 120.895996 40.896 120 42 120 L 46 120 C 47.104 120 48 120.895996 48 122 M 60 122 L 60 126 C 60 127.104004 59.104 128 58 128 L 54 128 C 52.896 128 52 127.104004 52 126 L 52 122 C 52 120.895996 52.896 120 54 120 L 58 120 C 59.104 120 60 120.895996 60 122 M 72 122 L 72 126 C 72 127.104004 71.104004 128 70 128 L 66 128 C 64.895996 128 64 127.104004 64 126 L 64 122 C 64 120.895996 64.895996 120 66 120 L 70 120 C 71.104004 120 72 120.895996 72 122 M 84 122 L 84 126 C 84 127.104004 83.104004 128 82 128 L 78 128 C 76.895996 128 76 127.104004 76 126 L 76 122 C 76 120.895996 76.895996 120 78 120 L 82 120 C 83.104004 120 84 120.895996 84 122 M 96 122 L 96 126 C 96 127.104004 95.103996 128 94 128 L 90 128 C 88.896004 128 88 127.104004 88 126 L 88 122 C 88 120.895996 88.896004 120 90 120 L 94 120 C 95.103996 120 96 120.895996 96 122 M 108 122 L 108 126 C 108 127.104004 107.103996 128 106 128 L 102 128 C 100.896004 128 100 127.104004 100 126 L 100 122 C 100 120.895996 100.896004 120 102 120 L 106 120 C 107.103996 120 108 120.895996 108 122 M 120 122 L 120 126 C 120 127.104004 119.103996 128 118 128 L 114 128 C 112.896004 128 112 127.104004 112 126 L 112 122 C 112 120.895996 112.896004 120 114 120 L 118 120 C 119.103996 120 120 120.895996 120 122 M 132 122 L 132 126 C 132 127.104004 131.104004 128 130 128 L 126 128 C 124.896004 128 124 127.104004 124 126 L 124 122 C 124 120.895996 124.896004 120 126 120 L 130 120 C 131.104004 120 132 120.895996 132 122 M 144 122 L 144 126 C 144 127.104004 143.104004 128 142 128 L 138 128 C 136.895996 128 136 127.104004 136 126 L 136 122 C 136 120.895996 136.895996 120 138 120 L 142 120 C 143.104004 120 144 120.895996 144 122 M 156 122 L 156 126 C 156 127.104004 155.104004 128 154 128 L 150 128 C 148.895996 128 148 127.104004 148 126 L 148 122 C 148 120.895996 148.895996 120 150 120 L 154 120 C 155.104004 120 156 120.895996 156 122 M 168 122 L 168 126 C 168 127.104004 167.104004 128 166 128 L 162 128 C 160.895996 128 160 127.104004 160 126 L 160 122 C 160 120.895996 160.895996 120 162 120 L 166 120 C 167.104004 120 168 120.895996 168 122 M 180 122 L 180 126 C 180 127.104004 179.104004 128 178 128 L 174 128 C 172.895996 128 172 127.104004 172 126 L 172 122 C 172 120.895996 172.895996 120 174 120 L 178 120 C 179.104004 120 180 120.895996 180 122 M 164 138 L 164 134 C 164 132.895996 164.895996 132 166 132 L 170 132 C 171.104004 132 172 132.895996 172 134 L 172 138 C 172 139.104004 171.104004 140 170 140 L 166 140 C 164.895996 140 164 139.104004 164 138 M 154 140 C 152.895996 140 152 139.104004 152 138 L 152 134 C 152 132.895996 152.895996 132 154 132 L 158 132 C 159.104004 132 160 132.895996 160 134 L 160 138 C 160 139.104004 159.104004 140 158 140 Z M 142 140 C 140.895996 140 140 139.104004 140 138 L 140 134 C 140 132.895996 140.895996 132 142 132 L 146 132 C 147.104004 132 148 132.895996 148 134 L 148 138 C 148 139.104004 147.104004 140 146 140 Z M 132 150 L 132 146 C 132 144.895996 132.895996 144 134 144 L 138 144 C 139.104004 144 140 144.895996 140 146 L 140 150 C 140 151.104004 139.104004 152 138 152 L 134 152 C 132.895996 152 132 151.104004 132 150 M 120 150 L 120 146 C 120 144.895996 120.896004 144 122 144 L 126 144 C 127.103996 144 128 144.895996 128 146 L 128 150 C 128 151.104004 127.103996 152 126 152 L 122 152 C 120.896004 152 120 151.104004 120 150 M 108 150 L 108 146 C 108 144.895996 108.896004 144 110 144 L 114 144 C 115.103996 144 116 144.895996 116 146 L 116 150 C 116 151.104004 115.103996 152 114 152 L 110 152 C 108.896004 152 108 151.104004 108 150 M 96 150 L 96 146 C 96 144.895996 96.896004 144 98 144 L 102 144 C 103.103996 144 104 144.895996 104 146 L 104 150 C 104 151.104004 103.103996 152 102 152 L 98 152 C 96.896004 152 96 151.104004 96 150 M 84 150 L 84 146 C 84 144.895996 84.896004 144 86 144 L 90 144 C 91.103996 144 92 144.895996 92 146 L 92 150 C 92 151.104004 91.103996 152 90 152 L 86 152 C 84.896004 152 84 151.104004 84 150 M 72 150 L 72 146 C 72 144.895996 72.895996 144 74 144 L 78 144 C 79.104004 144 80 144.895996 80 146 L 80 150 C 80 151.104004 79.104004 152 78 152 L 74 152 C 72.895996 152 72 151.104004 72 150 M 60 150 L 60 146 C 60 144.895996 60.896 144 62 144 L 66 144 C 67.104004 144 68 144.895996 68 146 L 68 150 C 68 151.104004 67.104004 152 66 152 L 62 152 C 60.896 152 60 151.104004 60 150 M 48 150 L 48 146 C 48 144.895996 48.896 144 50 144 L 54 144 C 55.104 144 56 144.895996 56 146 L 56 150 C 56 151.104004 55.104 152 54 152 L 50 152 C 48.896 152 48 151.104004 48 150 M 50 132 C 51.104 132 52 132.895996 52 134 L 52 138 C 52 139.104004 51.104 140 50 140 L 46 140 C 44.896 140 44 139.104004 44 138 L 44 134 C 44 132.895996 44.896 132 46 132 Z M 62 132 C 63.104 132 64 132.895996 64 134 L 64 138 C 64 139.104004 63.104 140 62 140 L 58 140 C 56.896 140 56 139.104004 56 138 L 56 134 C 56 132.895996 56.896 132 58 132 Z M 74 132 C 75.104004 132 76 132.895996 76 134 L 76 138 C 76 139.104004 75.104004 140 74 140 L 70 140 C 68.895996 140 68 139.104004 68 138 L 68 134 C 68 132.895996 68.895996 132 70 132 Z M 86 132 C 87.103996 132 88 132.895996 88 134 L 88 138 C 88 139.104004 87.103996 140 86 140 L 82 140 C 80.895996 140 80 139.104004 80 138 L 80 134 C 80 132.895996 80.895996 132 82 132 Z M 98 132 C 99.103996 132 100 132.895996 100 134 L 100 138 C 100 139.104004 99.103996 140 98 140 L 94 140 C 92.896004 140 92 139.104004 92 138 L 92 134 C 92 132.895996 92.896004 132 94 132 Z M 110 132 C 111.103996 132 112 132.895996 112 134 L 112 138 C 112 139.104004 111.103996 140 110 140 L 106 140 C 104.896004 140 104 139.104004 104 138 L 104 134 C 104 132.895996 104.896004 132 106 132 Z M 122 132 C 123.103996 132 124 132.895996 124 134 L 124 138 C 124 139.104004 123.103996 140 122 140 L 118 140 C 116.896004 140 116 139.104004 116 138 L 116 134 C 116 132.895996 116.896004 132 118 132 Z M 134 132 C 135.104004 132 136 132.895996 136 134 L 136 138 C 136 139.104004 135.104004 140 134 140 L 130 140 C 128.895996 140 128 139.104004 128 138 L 128 134 C 128 132.895996 128.895996 132 130 132 Z M 192 134 L 192 138 C 192 139.104004 191.104004 140 190 140 L 186 140 L 178 140 C 176.895996 140 176 139.104004 176 138 L 176 134 C 176 132.895996 176.895996 132 178 132 L 186 132 L 190 132 C 191.104004 132 192 132.895996 192 134 M 24 126 L 24 122 C 24 120.895996 24.896 120 26 120 L 34 120 C 35.104 120 36 120.895996 36 122 L 36 126 C 36 127.104004 35.104 128 34 128 L 26 128 C 24.896 128 24 127.104004 24 126 M 26 152 L 22 152 C 20.896 152 20 151.104004 20 150 L 20 146 C 20 144.895996 20.896 144 22 144 L 26 144 C 27.104 144 28 144.895996 28 146 L 28 150 C 28 151.104004 27.104 152 26 152 M 22 156 L 26 156 C 27.538 156 28.937 155.414001 30 154.459 C 31.063 155.414001 32.461998 156 34 156 L 42 156 C 42.932999 156 43.813 155.778992 44.601997 155.39801 C 44.220001 156.186996 44 157.067001 44 158 L 44 162 C 44 165.30899 46.691002 168 50 168 L 146 168 C 149.309006 168 152 165.30899 152 162 L 152 158 C 152 157.216995 151.845001 156.471008 151.570999 155.783997 C 152.485992 155.535004 153.313004 155.076004 154 154.459 C 155.061996 155.414001 156.462997 156 158 156 L 166 156 C 167.537003 156 168.936996 155.414001 170 154.459 C 171.061996 155.414001 172.462997 156 174 156 L 178 156 C 179.537003 156 180.936996 155.414001 182 154.459 C 183.061996 155.414001 184.462997 156 186 156 L 190 156 C 193.309006 156 196 153.30899 196 150 L 196 146 C 196 144.462997 195.414001 143.063004 194.459 142 C 195.414001 140.936996 196 139.537003 196 138 L 196 134 C 196 133.21701 195.845001 132.471008 195.570999 131.783997 C 198.117996 131.09201 200 128.764008 200 126 L 200 122 C 200 120.462006 199.414001 119.063004 198.459 118 C 199.414001 116.936996 200 115.537994 200 114 L 200 110 C 200 106.690994 197.309006 104 194 104 L 190 104 C 188.462997 104 187.061996 104.585999 186 105.541 C 184.936996 104.585999 183.537003 104 182 104 L 178 104 C 176.462997 104 175.061996 104.585999 174 105.541 C 172.936996 104.585999 171.537003 104 170 104 L 166 104 C 164.462997 104 163.061996 104.585999 162 105.541 C 160.936996 104.585999 159.537003 104 158 104 L 154 104 C 152.462997 104 151.061996 104.585999 150 105.541 C 148.936996 104.585999 147.537003 104 146 104 L 142 104 C 140.462997 104 139.063004 104.585999 138 105.541 C 136.938004 104.585999 135.537003 104 134 104 L 130 104 C 128.462006 104 127.063004 104.585999 126 105.541 C 124.936996 104.585999 123.538002 104 122 104 L 118 104 C 116.461998 104 115.063004 104.585999 114 105.541 C 112.936996 104.585999 111.538002 104 110 104 L 106 104 C 104.461998 104 103.063004 104.585999 102 105.541 C 100.936996 104.585999 99.538002 104 98 104 L 94 104 C 92.461998 104 91.063004 104.585999 90 105.541 C 88.936996 104.585999 87.538002 104 86 104 L 82 104 C 80.462006 104 79.063004 104.585999 78 105.541 C 76.936996 104.585999 75.537994 104 74 104 L 70 104 C 68.462006 104 67.063004 104.585999 66 105.541 C 64.936996 104.585999 63.537998 104 62 104 L 58 104 C 56.462002 104 55.063 104.585999 54 105.541 C 52.937 104.585999 51.538002 104 50 104 L 46 104 C 44.461998 104 43.063 104.585999 42 105.541 C 40.937 104.585999 39.538002 104 38 104 L 34 104 C 32.461998 104 31.063 104.585999 30 105.541 C 28.937 104.585999 27.538 104 26 104 C 22.691 104 20 106.690994 20 110 L 20 114 C 20 115.537994 20.586 116.936996 21.541 118 C 20.586 119.063004 20 120.462006 20 122 L 20 126 C 20 126.783005 20.155001 127.529007 20.429001 128.216003 C 17.881001 128.908997 16 131.235992 16 134 L 16 138 C 16 139.537003 16.586 140.936996 17.541 142 C 16.586 143.063004 16 144.462997 16 146 L 16 150 C 16 153.30899 18.691 156 22 156"/>
    <path id="path2" fill="#ffffff" stroke="none" d="M 208 110 C 208 108.895996 208.895996 108 210 108 L 222 108 C 223.104004 108 224 108.895996 224 110 L 224 114 C 224 115.104004 223.104004 116 222 116 L 210 116 C 208.895996 116 208 115.104004 208 114 Z M 208 126 L 208 122 C 208 120.895996 208.895996 120 210 120 L 222 120 C 223.104004 120 224 120.895996 224 122 L 224 126 C 224 127.104004 223.104004 128 222 128 L 210 128 C 208.895996 128 208 127.104004 208 126 M 208 138 L 208 134 C 208 132.895996 208.895996 132 210 132 L 222 132 C 223.104004 132 224 132.895996 224 134 L 224 138 C 224 139.104004 223.104004 140 222 140 L 210 140 C 208.895996 140 208 139.104004 208 138 M 224 150 C 224 151.104004 223.104004 152 222 152 L 210 152 C 208.895996 152 208 151.104004 208 150 L 208 146 C 208 144.895996 208.895996 144 210 144 L 222 144 C 223.104004 144 224 144.895996 224 146 Z M 210 156 L 222 156 C 225.309006 156 228 153.30899 228 150 L 228 146 C 228 144.462997 227.414001 143.063004 226.459 142 C 227.414001 140.936996 228 139.537003 228 138 L 228 134 C 228 132.462997 227.414001 131.061996 226.459 130 C 227.414001 128.936996 228 127.537994 228 126 L 228 122 C 228 120.462006 227.414001 119.063004 226.459 118 C 227.414001 116.936996 228 115.537994 228 114 L 228 110 C 228 106.690994 225.309006 104 222 104 L 210 104 C 206.690994 104 204 106.690994 204 110 L 204 114 C 204 115.537994 204.585999 116.936996 205.541 118 C 204.585999 119.063004 204 120.462006 204 122 L 204 126 C 204 127.537994 204.585999 128.936996 205.541 130 C 204.585999 131.061996 204 132.462997 204 134 L 204 138 C 204 139.537003 204.585999 140.936996 205.541 142 C 204.585999 143.063004 204 144.462997 204 146 L 204 150 C 204 153.30899 206.690994 156 210 156"/>
</svg>
