<?xml version="1.0" encoding="UTF-8"?>
<!-- Generated by Pixelmator Pro 3.7.1 -->
<svg width="256" height="256" viewBox="0 0 256 256" xmlns="http://www.w3.org/2000/svg">
    <path id="Path" fill="#ffffff" stroke="none" d="M 224 96 L 32 96 L 32 244 L 224 244 Z M 220 240 L 36 240 L 36 100 L 220 100 Z"/>
    <path id="path1" fill="#ffffff" stroke="none" d="M 204 84 C 204 86.199997 202.199997 88 200 88 L 56 88 C 53.800003 88 52 86.199997 52 84 L 52 56 C 52 53.800003 53.800003 52 56 52 L 200 52 C 202.199997 52 204 53.800003 204 56 Z M 224 52 L 224 48 L 208 48 L 48 48 L 32 48 L 32 52 L 48 52 L 48 56 L 32 56 L 32 60 L 48 60 L 48 64 L 32 64 L 32 68 L 48 68 L 48 72 L 32 72 L 32 76 L 48 76 L 48 80 L 32 80 L 32 84 L 48 84 L 48 88 L 32 88 L 32 92 L 48 92 L 208 92 L 224 92 L 224 88 L 208 88 L 208 84 L 224 84 L 224 80 L 208 80 L 208 76 L 224 76 L 224 72 L 208 72 L 208 68 L 224 68 L 224 64 L 208 64 L 208 60 L 224 60 L 224 56 L 208 56 L 208 52 Z"/>
    <path id="path2" fill="#ffffff" stroke="none" d="M 220 12 L 36 12 C 33.791 12 32 13.791 32 16 L 32 44 L 224 44 L 224 16 C 224 13.791 222.209 12 220 12 M 220 40 L 36 40 L 36 16 L 220 16 Z M 220 16"/>
</svg>
