<?xml version="1.0" encoding="UTF-8"?>
<!-- Generated by Pixelmator Pro 3.7.1 -->
<svg width="256" height="256" viewBox="0 0 256 256" xmlns="http://www.w3.org/2000/svg">
    <path id="Path" fill="#ffffff" stroke="none" d="M 176 120 L 164 120 L 162.343002 120 L 161.171997 121.171005 L 154.343002 128 L 77.656998 128 L 70.829002 121.171005 L 69.656998 120 L 68 120 L 56 120 L 56 80 L 68 80 L 69.656998 80 L 70.829002 78.828995 L 77.656998 72 L 154.343002 72 L 161.171997 78.828995 L 162.343002 80 L 164 80 L 176 80 Z M 156 68 L 76 68 L 68 76 L 52 76 L 52 124 L 68 124 L 76 132 L 156 132 L 164 124 L 180 124 L 180 76 L 164 76 Z"/>
    <path id="path1" fill="#ffffff" stroke="none" d="M 104 92 L 128 92 L 128 108 L 104 108 Z M 100 112 L 132 112 L 132 88 L 100 88 Z"/>
    <path id="path2" fill="#ffffff" stroke="none" d="M 88 104 C 85.793999 104 84 102.205994 84 100 C 84 97.794006 85.793999 96 88 96 C 90.206001 96 92 97.794006 92 100 C 92 102.205994 90.206001 104 88 104 M 88 92 C 83.582001 92 80 95.582001 80 100 C 80 104.417999 83.582001 108 88 108 C 92.417999 108 96 104.417999 96 100 C 96 95.582001 92.417999 92 88 92"/>
    <path id="path3" fill="#ffffff" stroke="none" d="M 144 104 C 141.794006 104 140 102.205994 140 100 C 140 97.794006 141.794006 96 144 96 C 146.205994 96 148 97.794006 148 100 C 148 102.205994 146.205994 104 144 104 M 144 92 C 139.582001 92 136 95.582001 136 100 C 136 104.417999 139.582001 108 144 108 C 148.417999 108 152 104.417999 152 100 C 152 95.582001 148.417999 92 144 92"/>
    <path id="path4" fill="#ffffff" stroke="none" d="M 48 56 L 184 56 L 184 140 L 48 140 Z M 48 144 L 184 144 C 186.209 144 188 142.209 188 140 L 188 56 C 188 53.791 186.209 52 184 52 L 48 52 C 45.791 52 44 53.791 44 56 L 44 140 C 44 142.209 45.791 144 48 144"/>
    <path id="path5" fill="#ffffff" stroke="none" d="M 232 192 L 196 192 L 196 168 L 228 168 L 228 156 L 196 156 L 196 144 L 212 144 L 216 144 L 224 144 L 228 144 L 228 140 L 228 132 L 228 128 L 224 128 L 216 128 L 212 128 L 196 128 L 196 48 L 196 44 L 192 44 L 40 44 L 36 44 L 36 48 L 36 192 L 24 192 C 24 192 19.826004 191.990997 16 190.483002 L 16 48 C 16 43.589005 19.589005 40 24 40 L 232 40 C 236.410995 40 240 43.589005 240 48 L 240 190.483002 C 236.173996 191.990997 232 192 232 192 M 240 204 C 240 208.410995 236.410995 212 232 212 L 196 212 L 196 196 L 232 196 C 235.386002 196 238.046997 195.281998 240 194.455002 Z M 192 220 L 188 220 L 188 196 L 192 196 Z M 168 196 L 184 196 L 184 220 L 168 220 Z M 148 196 L 164 196 L 164 220 L 148 220 Z M 128 196 L 144 196 L 144 220 L 128 220 Z M 108 196 L 124 196 L 124 220 L 108 220 Z M 88 196 L 104 196 L 104 220 L 88 220 Z M 68 196 L 84 196 L 84 220 L 68 220 Z M 48 196 L 64 196 L 64 220 L 48 220 Z M 196 160 L 224 160 L 224 164 L 196 164 Z M 192 128 L 192 132 L 192 140 L 192 144 L 192 156 L 192 168 L 192 192 L 188 192 L 184 192 L 168 192 L 164 192 L 148 192 L 144 192 L 128 192 L 124 192 L 108 192 L 104 192 L 88 192 L 84 192 L 68 192 L 64 192 L 48 192 L 44 192 L 40 192 L 40 48 L 192 48 Z M 212 140 L 196 140 L 196 132 L 212 132 Z M 216 132 L 224 132 L 224 140 L 216 140 Z M 40 196 L 44 196 L 44 220 L 40 220 Z M 36 212 L 24 212 C 19.589005 212 16 208.410995 16 204 L 16 194.455002 C 17.953003 195.281998 20.613998 196 24 196 L 36 196 Z M 232 36 L 24 36 C 17.373001 36 12 41.373001 12 48 L 12 188 L 12 192 L 12 204 C 12 210.626999 17.373001 216 24 216 L 36 216 L 36 220 L 36 224 L 40 224 L 44 224 L 48 224 L 64 224 L 68 224 L 84 224 L 88 224 L 104 224 L 108 224 L 124 224 L 128 224 L 144 224 L 148 224 L 164 224 L 168 224 L 184 224 L 188 224 L 192 224 L 196 224 L 196 220 L 196 216 L 232 216 C 238.626999 216 244 210.626999 244 204 L 244 192 L 244 188 L 244 48 C 244 41.373001 238.626999 36 232 36"/>
</svg>
