<?xml version="1.0" encoding="UTF-8"?>
<!-- Generated by Pixelmator Pro 3.7.1 -->
<svg width="256" height="256" viewBox="0 0 256 256" xmlns="http://www.w3.org/2000/svg">
    <path id="Path" fill="#ffffff" stroke="none" d="M 12 64 L 244 64 L 244 72 L 12 72 Z M 244 192 L 12 192 L 12 104 L 16 104 L 20 104 L 20 100 L 20 84 L 236 84 L 236 100 L 236 104 L 240 104 L 244 104 Z M 16 80 L 16 100 L 12 100 L 12 80 L 12 76 L 244 76 L 244 80 L 244 100 L 240 100 L 240 80 Z M 244 60 L 12 60 L 8 60 L 8 64 L 8 72 L 8 76 L 8 80 L 8 100 L 8 104 L 8 192 L 8 196 L 12 196 L 244 196 L 248 196 L 248 192 L 248 104 L 248 100 L 248 80 L 248 76 L 248 72 L 248 64 L 248 60 Z"/>
    <path id="path1" fill="#ffffff" stroke="none" d="M 224 164 L 186 164 C 184.895004 164 184 163.105011 184 162 L 184 156 C 197.233994 156 208 145.234009 208 132 C 208 118.765991 197.233994 108 184 108 L 184 106 C 184 104.895004 184.895004 104 186 104 L 224 104 C 230.626999 104 236 117.431 236 134 C 236 150.569 230.626999 164 224 164 M 192 132 C 192 127.589005 188.410995 124 184 124 L 184 120 C 190.626999 120 196 125.373001 196 132 C 196 138.626999 190.626999 144 184 144 L 184 140 C 188.410995 140 192 136.410995 192 132 M 184 128 C 186.209 128 188 129.791 188 132 C 188 134.209 186.209 136 184 136 Z M 184 148 C 192.822006 148 200 140.821991 200 132 C 200 123.178009 192.822006 116 184 116 L 184 112 C 195.046005 112 204 120.953995 204 132 C 204 143.04599 195.046005 152 184 152 Z M 176 160 C 176 162.209 174.209 164 172 164 L 84 164 C 81.791 164 80 162.209 80 160 L 80 108 C 80 105.791 81.791 104 84 104 L 172 104 C 174.209 104 176 105.791 176 108 Z M 64 132 C 64 136.410995 67.589005 140 72 140 L 72 148 C 63.162994 148 56 140.837006 56 132 C 56 123.162994 63.162994 116 72 116 L 72 124 C 67.589005 124 64 127.589005 64 132 M 72 136 C 69.791 136 68 134.209 68 132 C 68 129.791 69.791 128 72 128 Z M 72 162 C 72 163.105011 71.104996 164 70 164 L 56 164 L 40.231995 164 C 32.628998 155.507004 28 144.29599 28 132 C 28 121.546997 31.352005 111.882004 37.024002 104 L 56 104 L 70 104 C 71.104996 104 72 104.895004 72 106 L 72 112 C 60.972 112 52 120.972 52 132 C 52 143.028 60.972 152 72 152 Z M 20 134 C 20 117.431 25.373001 104 32 104 L 32.199997 104 C 26.832001 112.367004 24 121.985992 24 132 C 24 143.649994 27.904007 154.880005 35.035995 164 L 32 164 C 25.373001 164 20 150.569 20 134 M 224 100 L 186 100 C 182.692001 100 180 102.692001 180 106 L 180 108 C 180 103.589005 176.410995 100 172 100 L 84 100 C 79.589005 100 76 103.589005 76 108 L 76 106 C 76 102.692001 73.307999 100 70 100 L 56 100 L 37.024002 100 L 34.975006 100 L 32 100 C 29.132004 100 23.733994 101.468002 19.800995 111.300995 C 17.350006 117.429001 16 125.490005 16 134 C 16 150.895996 21.496002 168 32 168 L 38.444 168 L 40.231995 168 L 56 168 L 70 168 C 73.307999 168 76 165.307999 76 162 L 76 160 C 76 164.411011 79.589005 168 84 168 L 172 168 C 176.410995 168 180 164.411011 180 160 L 180 162 C 180 165.307999 182.692001 168 186 168 L 224 168 C 226.867996 168 232.266006 166.531998 236.199005 156.699005 C 238.649994 150.570999 240 142.51001 240 134 C 240 117.104004 234.503998 100 224 100"/>
</svg>
