<?xml version="1.0" encoding="UTF-8"?>
<!-- Generated by Pixelmator Pro 3.7.1 -->
<svg width="256" height="256" viewBox="0 0 256 256" xmlns="http://www.w3.org/2000/svg">
    <path id="Path" fill="#ffffff" stroke="none" d="M 244 192 C 244 196.417999 240.417999 200 236 200 L 20 200 C 15.582001 200 12 196.417999 12 192 L 12 84 C 12 68.536011 24.535995 56 40 56 L 216 56 C 231.464005 56 244 68.536011 244 84 Z M 216 52 L 40 52 C 22.354996 52 8 66.355011 8 84 L 8 192 C 8 198.617004 13.382996 204 20 204 L 236 204 C 242.617004 204 248 198.617004 248 192 L 248 84 C 248 66.355011 233.645004 52 216 52"/>
    <path id="path1" fill="#ffffff" stroke="none" d="M 232 160 L 224 84 C 224 77.382996 218.617004 72 212 72 L 44 72 C 37.382996 72 32 77.382996 32 84 L 24 160 L 24 84 C 24 72.95401 32.953995 64 44 64 L 212 64 C 223.046005 64 232 72.95401 232 84 Z M 212 60 L 44 60 C 30.766006 60 20 70.765991 20 84 L 20 160 C 20 162.127991 21.666 163.882996 23.789993 163.994995 C 23.862 163.998001 23.932007 164 24.003006 164 C 26.037003 164 27.763 162.463989 27.977997 160.419006 L 35.977997 84.419006 C 35.992996 84.279999 36 84.139999 36 84 C 36 79.588989 39.589005 76 44 76 L 212 76 C 216.410995 76 220 79.588989 220 84 C 220 84.139999 220.007004 84.279999 220.022003 84.419006 L 228.022003 160.419006 C 228.237 162.463989 229.964005 164 231.996994 164 C 232.067993 164 232.138 163.998001 232.210007 163.994995 C 234.334 163.882996 236 162.127991 236 160 L 236 84 C 236 70.765991 225.233994 60 212 60"/>
    <path id="path2" fill="#ffffff" stroke="none" d="M 86 116 L 38 116 C 36.895 116 36 116.895004 36 118 C 36 119.104996 36.895 120 38 120 L 86 120 C 87.105003 120 88 119.104996 88 118 C 88 116.895004 87.105003 116 86 116"/>
    <path id="path3" fill="#ffffff" stroke="none" d="M 86 124 L 38 124 C 36.895 124 36 124.895004 36 126 C 36 127.104996 36.895 128 38 128 L 86 128 C 87.105003 128 88 127.104996 88 126 C 88 124.895004 87.105003 124 86 124"/>
    <path id="path4" fill="#ffffff" stroke="none" d="M 86 132 L 38 132 C 36.895 132 36 132.894989 36 134 C 36 135.105011 36.895 136 38 136 L 86 136 C 87.105003 136 88 135.105011 88 134 C 88 132.894989 87.105003 132 86 132"/>
    <path id="path5" fill="#ffffff" stroke="none" d="M 86 140 L 38 140 C 36.895 140 36 140.894989 36 142 C 36 143.105011 36.895 144 38 144 L 86 144 C 87.105003 144 88 143.105011 88 142 C 88 140.894989 87.105003 140 86 140"/>
    <path id="path6" fill="#ffffff" stroke="none" d="M 38 152 L 86 152 C 87.104996 152 88 151.105011 88 150 C 88 148.894989 87.104996 148 86 148 L 38 148 C 36.895 148 36 148.894989 36 150 C 36 151.105011 36.895 152 38 152"/>
    <path id="path7" fill="#ffffff" stroke="none" d="M 86 156 L 38 156 C 36.895 156 36 156.894989 36 158 C 36 159.105011 36.895 160 38 160 L 86 160 C 87.105003 160 88 159.105011 88 158 C 88 156.894989 87.105003 156 86 156"/>
    <path id="path8" fill="#ffffff" stroke="none" d="M 218.431107 156 L 189.569107 156 C 188.702103 156 188.000107 156.701996 188.000107 157.569 L 188.000107 158.431 C 188.000107 159.298004 188.702103 160 189.569107 160 L 218.431107 160 C 219.297104 160 220.000107 159.298004 220.000107 158.431 L 220.000107 157.569 C 220.000107 156.701996 219.297104 156 218.431107 156"/>
    <path id="path9" fill="#ffffff" stroke="none" d="M 86 164 L 38 164 C 36.895 164 36 164.894989 36 166 C 36 167.105011 36.895 168 38 168 L 86 168 C 87.105003 168 88 167.105011 88 166 C 88 164.894989 87.105003 164 86 164"/>
    <path id="path10" fill="#ffffff" stroke="none" d="M 86 172 L 38 172 C 36.895 172 36 172.894989 36 174 C 36 175.105011 36.895 176 38 176 L 86 176 C 87.105003 176 88 175.105011 88 174 C 88 172.894989 87.105003 172 86 172"/>
    <path id="path11" fill="#ffffff" stroke="none" d="M 86 180 L 38 180 C 36.895 180 36 180.894989 36 182 C 36 183.105011 36.895 184 38 184 L 86 184 C 87.105003 184 88 183.105011 88 182 C 88 180.894989 87.105003 180 86 180"/>
    <path id="path12" fill="#ffffff" stroke="none" d="M 170 120 L 218 120 C 219.104996 120 220 119.104996 220 118 C 220 116.895004 219.104996 116 218 116 L 170 116 C 168.895004 116 168 116.895004 168 118 C 168 119.104996 168.895004 120 170 120"/>
    <path id="path13" fill="#ffffff" stroke="none" d="M 170 128 L 218 128 C 219.104996 128 220 127.104996 220 126 C 220 124.895004 219.104996 124 218 124 L 170 124 C 168.895004 124 168 124.895004 168 126 C 168 127.104996 168.895004 128 170 128"/>
    <path id="path14" fill="#ffffff" stroke="none" d="M 170 136 L 218 136 C 219.104996 136 220 135.105011 220 134 C 220 132.894989 219.104996 132 218 132 L 170 132 C 168.895004 132 168 132.894989 168 134 C 168 135.105011 168.895004 136 170 136"/>
    <path id="path15" fill="#ffffff" stroke="none" d="M 218.431107 140 L 189.569107 140 C 188.702103 140 188.000107 140.701996 188.000107 141.569 L 188.000107 142.431 C 188.000107 143.298004 188.702103 144 189.569107 144 L 218.431107 144 C 219.297104 144 220.000107 143.298004 220.000107 142.431 L 220.000107 141.569 C 220.000107 140.701996 219.297104 140 218.431107 140"/>
    <path id="path16" fill="#ffffff" stroke="none" d="M 170 168 L 218 168 C 219.104996 168 220 167.105011 220 166 C 220 164.894989 219.104996 164 218 164 L 170 164 C 168.895004 164 168 164.894989 168 166 C 168 167.105011 168.895004 168 170 168"/>
    <path id="path17" fill="#ffffff" stroke="none" d="M 170 176 L 218 176 C 219.104996 176 220 175.105011 220 174 C 220 172.894989 219.104996 172 218 172 L 170 172 C 168.895004 172 168 172.894989 168 174 C 168 175.105011 168.895004 176 170 176"/>
    <path id="path18" fill="#ffffff" stroke="none" d="M 170 184 L 218 184 C 219.104996 184 220 183.105011 220 182 C 220 180.894989 219.104996 180 218 180 L 170 180 C 168.895004 180 168 180.894989 168 182 C 168 183.105011 168.895004 184 170 184"/>
    <path id="path19" fill="#ffffff" stroke="none" d="M 184 144 L 184 148 L 168 148 L 168 146 L 168 144 Z M 184 156 L 168 156 L 168 154 L 168 152 L 184 152 Z M 164 182 C 164 183.104996 163.104996 184 162 184 L 134 184 C 132.895004 184 132 183.104996 132 182 L 132 154 C 132 152.895004 132.895004 152 134 152 L 162 152 C 163.104996 152 164 152.895004 164 154 L 164 156 Z M 126.459 150 C 127.414001 148.936996 128 147.537003 128 146 C 128 147.537003 128.585999 148.936996 129.541 150 C 128.585999 151.063004 128 152.462997 128 154 C 128 152.462997 127.414001 151.063004 126.459 150 M 124 182 C 124 183.104996 123.104996 184 122 184 L 94 184 C 92.894997 184 92 183.104996 92 182 L 92 154 C 92 152.895004 92.894997 152 94 152 L 122 152 C 123.104996 152 124 152.895004 124 154 Z M 92 118 C 92 116.895004 92.894997 116 94 116 L 122 116 C 123.104996 116 124 116.895004 124 118 L 124 146 C 124 147.105011 123.104996 148 122 148 L 94 148 C 92.894997 148 92 147.105011 92 146 Z M 132 118 C 132 116.895004 132.895004 116 134 116 L 162 116 C 163.104996 116 164 116.895004 164 118 L 164 144 L 164 146 C 164 147.105011 163.104996 148 162 148 L 134 148 C 132.895004 148 132 147.105011 132 146 Z M 162 112 L 134 112 C 130.692001 112 128 114.692001 128 118 C 128 114.692001 125.307999 112 122 112 L 94 112 C 90.692001 112 88 114.692001 88 118 L 88 126 L 88 134 L 88 142 L 88 146 C 88 147.537003 88.585999 148.936996 89.541 150 C 88.585999 151.063004 88 152.462997 88 154 L 88 158 L 88 166 L 88 174 L 88 182 C 88 185.307999 90.692001 188 94 188 L 122 188 C 125.307999 188 128 185.307999 128 182 C 128 185.307999 130.692001 188 134 188 L 162 188 C 165.307999 188 168 185.307999 168 182 L 168 174 L 168 166 L 168 160 L 184 160 C 186.209 160 188 158.209 188 156 L 188 150.431 C 188 151.298004 188.701996 152 189.569 152 L 218.431 152 C 219.298004 152 220 151.298004 220 150.431 L 220 149.569 C 220 148.701996 219.298004 148 218.431 148 L 189.569 148 C 188.701996 148 188 148.701996 188 149.569 L 188 148 L 188 144 C 188 141.791 186.209 140 184 140 L 168 140 L 168 134 L 168 126 L 168 118 C 168 114.692001 165.307999 112 162 112"/>
</svg>
