<?xml version="1.0" encoding="UTF-8"?>
<!-- Generated by Pixelmator Pro 3.7.1 -->
<svg width="256" height="256" viewBox="0 0 256 256" xmlns="http://www.w3.org/2000/svg">
    <path id="Path" fill="#ffffff" stroke="none" d="M 126 132.828094 L 126 188.225098 L 98.302002 160.5271 Z M 67.774002 130.000092 L 123.171997 130.000092 L 95.473 157.69809 Z M 130 123.172104 L 130 67.774094 L 157.697998 95.473099 Z M 188.225998 126.000107 L 132.828003 126.000107 L 160.527008 98.302094 Z M 132.828003 130.000092 L 188.225998 130.000092 L 160.527008 157.69809 Z M 130 188.225098 L 130 132.828094 L 157.697998 160.5271 Z M 123.171997 126.000107 L 67.774002 126.000107 L 95.473 98.302094 Z M 126 67.774094 L 126 123.172104 L 98.302002 95.473099 Z M 195.882004 128.000092 L 128 60.118103 L 60.117996 128.000092 L 128 195.882095 Z"/>
    <path id="path1" fill="#ffffff" stroke="none" d="M 216 216 L 40 216 L 40 40 L 216 40 Z M 36 220 L 220 220 L 220 36 L 36 36 Z"/>
</svg>
