<?xml version="1.0" encoding="UTF-8"?>
<!-- Generated by Pixelmator Pro 3.7.1 -->
<svg width="256" height="256" viewBox="0 0 256 256" xmlns="http://www.w3.org/2000/svg">
    <path id="Path" fill="#ffffff" stroke="none" d="M 176 96 C 158.326996 96 144 110.326996 144 128 C 144 145.673004 158.326996 160 176 160 C 193.673004 160 208 145.673004 208 128 C 208 110.326996 193.673004 96 176 96 M 176 100 C 191.438995 100 204 112.561005 204 128 C 204 143.438995 191.438995 156 176 156 C 160.561005 156 148 143.438995 148 128 C 148 112.561005 160.561005 100 176 100"/>
    <path id="path1" fill="#ffffff" stroke="none" d="M 80 96 C 62.327 96 48 110.326996 48 128 C 48 145.673004 62.327 160 80 160 C 97.673004 160 112 145.673004 112 128 C 112 110.326996 97.673004 96 80 96 M 80 100 C 95.439003 100 108 112.561005 108 128 C 108 143.438995 95.439003 156 80 156 C 64.560997 156 52 143.438995 52 128 C 52 112.561005 64.560997 100 80 100"/>
    <path id="path2" fill="#ffffff" stroke="none" d="M 128 48 C 110.326996 48 96 62.326996 96 80 C 96 97.673004 110.326996 112 128 112 C 145.673004 112 160 97.673004 160 80 C 160 62.326996 145.673004 48 128 48 M 128 52 C 143.438995 52 156 64.561005 156 80 C 156 95.438995 143.438995 108 128 108 C 112.560997 108 100 95.438995 100 80 C 100 64.561005 112.560997 52 128 52"/>
    <path id="path3" fill="#ffffff" stroke="none" d="M 128 144 C 110.326996 144 96 158.326996 96 176 C 96 193.673004 110.326996 208 128 208 C 145.673004 208 160 193.673004 160 176 C 160 158.326996 145.673004 144 128 144 M 128 148 C 143.438995 148 156 160.561005 156 176 C 156 191.438995 143.438995 204 128 204 C 112.560997 204 100 191.438995 100 176 C 100 160.561005 112.560997 148 128 148"/>
    <path id="path4" fill="#ffffff" stroke="none" d="M 220 36 L 36 36 L 36 220 L 220 220 Z M 216 216 L 40 216 L 40 40 L 216 40 Z"/>
</svg>
