<?xml version="1.0" encoding="UTF-8"?>
<!-- Generated by Pixelmator Pro 3.7.1 -->
<svg width="256" height="256" viewBox="0 0 256 256" xmlns="http://www.w3.org/2000/svg">
    <path id="Path" fill="#ffffff" stroke="none" d="M 60 68 C 60 63.582001 63.582001 60 68 60 L 188 60 C 192.417999 60 196 63.582001 196 68 L 196 188 C 196 192.417999 192.417999 196 188 196 L 68 196 C 63.582001 196 60 192.417999 60 188 Z M 68 200 L 188 200 C 194.617004 200 200 194.617004 200 188 L 200 68 C 200 61.382996 194.617004 56 188 56 L 68 56 C 61.382999 56 56 61.382996 56 68 L 56 188 C 56 194.617004 61.382999 200 68 200"/>
    <path id="path1" fill="#ffffff" stroke="none" d="M 128 108 C 139.028 108 148 116.972 148 128 C 148 139.028 139.028 148 128 148 C 116.972 148 108 139.028 108 128 C 108 116.972 116.972 108 128 108 M 128 152 C 141.255005 152 152 141.255005 152 128 C 152 114.744995 141.255005 104 128 104 C 114.745003 104 104 114.744995 104 128 C 104 141.255005 114.745003 152 128 152"/>
    <path id="path2" fill="#ffffff" stroke="none" d="M 80.7202 120.867203 L 90.646202 119.417206 C 91.616203 115.184204 93.296204 111.258194 95.523201 107.696198 L 89.494202 99.584198 C 92.336197 95.724197 95.7342 92.346207 99.584198 89.494202 L 107.696198 95.523193 C 111.258202 93.286194 115.193199 91.616196 119.417198 90.637207 L 120.867203 80.7202 C 123.209198 80.365204 125.5522 80.000198 128.000198 80.000198 C 130.448196 80.000198 132.790207 80.365204 135.133194 80.7202 L 136.582199 90.637207 C 140.816208 91.616196 144.742203 93.296204 148.303207 95.523193 L 156.416199 89.494202 C 160.275208 92.346207 163.6642 95.734207 166.50621 99.584198 L 160.476196 107.696198 C 162.714203 111.258194 164.384201 115.193207 165.35321 119.417206 L 175.280197 120.867203 C 175.635208 123.209198 176.000198 125.5522 176.000198 128.000198 C 176.000198 130.448212 175.635208 132.790192 175.280197 135.133209 L 165.35321 136.582199 C 164.384201 140.816193 162.704208 144.742203 160.476196 148.304199 L 166.50621 156.416199 C 163.6642 160.275208 160.265198 163.654205 156.416199 166.506195 L 148.303207 160.476196 C 144.742203 162.714203 140.806198 164.384201 136.582199 165.36319 L 135.133194 175.280197 C 132.790207 175.635193 130.448196 176.000198 128.000198 176.000198 C 125.5522 176.000198 123.209198 175.635193 120.867203 175.280197 L 119.417198 165.36319 C 115.184204 164.384201 111.258202 162.704193 107.696198 160.476196 L 99.584198 166.506195 C 95.724197 163.654205 92.336197 160.265198 89.494202 156.416199 L 95.523201 148.304199 C 93.286201 144.742203 91.616203 140.806198 90.646202 136.582199 L 80.7202 135.133209 C 80.365196 132.790192 80.000198 130.448212 80.000198 128.000198 C 80.000198 125.5522 80.365196 123.209198 80.7202 120.867203 M 76.765198 135.732208 L 77.209198 138.662201 L 80.142197 139.091202 L 87.458199 140.15921 C 88.277199 142.883209 89.374199 145.517197 90.738197 148.037201 L 86.284203 154.030197 L 84.516197 156.408203 L 86.276199 158.791199 C 89.352203 162.959198 93.030197 166.637207 97.207199 169.722198 L 99.591202 171.484192 L 101.9702 169.716202 L 107.965202 165.260193 C 110.492203 166.62619 113.126198 167.725204 115.840202 168.547211 L 116.909203 175.8582 L 117.338203 178.791199 L 120.267204 179.234192 L 120.440201 179.2612 C 122.835205 179.624207 125.310204 180.000198 128.000198 180.000198 C 130.689209 180.000198 133.166199 179.624207 135.560196 179.2612 L 135.732208 179.234192 L 138.662201 178.790192 L 139.091202 175.8582 L 140.159195 168.547211 C 142.8862 167.722198 145.52121 166.624207 148.037201 165.262207 L 154.030197 169.716202 L 156.412201 171.486206 L 158.797211 169.7202 C 163.001205 166.606201 166.678207 162.928192 169.726196 158.787201 L 171.481201 156.405197 L 169.716202 154.030197 L 165.260208 148.03421 C 166.627197 145.505203 167.724197 142.871201 168.542206 140.15921 L 175.8582 139.091202 L 178.790207 138.662201 L 179.234207 135.732208 L 179.2612 135.561203 C 179.624207 133.167206 180.000198 130.690201 180.000198 128.000198 C 180.000198 125.309204 179.624207 122.833206 179.2612 120.438202 L 179.234207 120.267197 L 178.790207 117.337204 L 175.8582 116.909195 L 168.542206 115.841202 C 167.722198 113.117203 166.625198 110.482193 165.262207 107.963196 L 169.716202 101.9702 L 171.4832 99.592194 L 169.723206 97.208206 C 166.647202 93.041199 162.9702 89.363205 158.793198 86.277206 L 156.40921 84.516205 L 154.030197 86.284195 L 148.03421 90.740204 C 145.508209 89.374207 142.874207 88.2742 140.159195 87.453201 L 139.091202 80.141205 L 138.662201 77.209198 L 135.732208 76.765198 L 135.559204 76.739197 C 133.165207 76.375198 130.689209 76.000198 128.000198 76.000198 C 125.310204 76.000198 122.835205 76.375198 120.440201 76.739197 L 120.267204 76.765198 L 117.338203 77.209198 L 116.909203 80.141205 L 115.840202 87.453201 C 113.114204 88.277206 110.479202 89.376205 107.963203 90.738205 L 101.9702 86.284195 L 99.588203 84.513199 L 97.203201 86.280197 C 92.999199 89.393204 89.322197 93.072205 86.273201 97.212204 L 84.519203 99.5952 L 86.284203 101.9702 L 90.740204 107.966202 C 89.3722 110.495193 88.2752 113.129196 87.458199 115.841202 L 80.142197 116.909195 L 77.209198 117.337204 L 76.765198 120.267197 L 76.739197 120.439194 C 76.376198 122.834198 76.000198 125.310196 76.000198 128.000198 C 76.000198 130.689209 76.376198 133.166199 76.739197 135.560211 Z"/>
    <path id="path3" fill="#ffffff" stroke="none" d="M 216 216 L 40 216 L 40 40 L 216 40 Z M 36 220 L 220 220 L 220 36 L 36 36 Z"/>
    <path id="path4" fill="#ffffff" stroke="none" d="M 72 180 L 72 176 L 72 172 L 72 168 L 72 164 L 72 160 L 72 156 L 72 152 L 72 148 L 72 144 L 72 140 L 72 136 L 72 132 L 72 128 L 72 124 L 72 120 L 72 116 L 72 112 L 72 108 L 72 104 L 72 100 L 72 96 L 72 92 L 72 88 L 72 84 L 72 80 L 72 76 L 72 72 L 76 72 L 80 72 L 84 72 L 88 72 L 92 72 L 96 72 L 100 72 L 104 72 L 108 72 L 112 72 L 116 72 L 120 72 L 124 72 L 128 72 L 132 72 L 136 72 L 140 72 L 144 72 L 148 72 L 152 72 L 156 72 L 160 72 L 164 72 L 168 72 L 172 72 L 176 72 L 180 72 L 184 72 L 184 76 L 184 80 L 184 84 L 184 88 L 184 92 L 184 96 L 184 100 L 184 104 L 184 108 L 184 112 L 184 116 L 184 120 L 184 124 L 184 128 L 184 132 L 184 136 L 184 140 L 184 144 L 184 148 L 184 152 L 184 156 L 184 160 L 184 164 L 184 168 L 184 172 L 184 176 L 184 180 L 184 184 L 180 184 L 176 184 L 172 184 L 168 184 L 164 184 L 160 184 L 156 184 L 152 184 L 148 184 L 144 184 L 140 184 L 136 184 L 132 184 L 128 184 L 124 184 L 120 184 L 116 184 L 112 184 L 108 184 L 104 184 L 100 184 L 96 184 L 92 184 L 88 184 L 84 184 L 80 184 L 76 184 L 72 184 Z M 72 188 L 72 192 L 76 192 L 76 188 L 80 188 L 80 192 L 84 192 L 84 188 L 88 188 L 88 192 L 92 192 L 92 188 L 96 188 L 96 192 L 100 192 L 100 188 L 104 188 L 104 192 L 108 192 L 108 188 L 112 188 L 112 192 L 116 192 L 116 188 L 120 188 L 120 192 L 124 192 L 124 188 L 128 188 L 128 192 L 132 192 L 132 188 L 136 188 L 136 192 L 140 192 L 140 188 L 144 188 L 144 192 L 148 192 L 148 188 L 152 188 L 152 192 L 156 192 L 156 188 L 160 188 L 160 192 L 164 192 L 164 188 L 168 188 L 168 192 L 172 192 L 172 188 L 176 188 L 176 192 L 180 192 L 180 188 L 184 188 L 184 192 L 188 192 L 188 188 L 188 184 L 192 184 L 192 180 L 188 180 L 188 176 L 192 176 L 192 172 L 188 172 L 188 168 L 192 168 L 192 164 L 188 164 L 188 160 L 192 160 L 192 156 L 188 156 L 188 152 L 192 152 L 192 148 L 188 148 L 188 144 L 192 144 L 192 140 L 188 140 L 188 136 L 192 136 L 192 132 L 188 132 L 188 128 L 192 128 L 192 124 L 188 124 L 188 120 L 192 120 L 192 116 L 188 116 L 188 112 L 192 112 L 192 108 L 188 108 L 188 104 L 192 104 L 192 100 L 188 100 L 188 96 L 192 96 L 192 92 L 188 92 L 188 88 L 192 88 L 192 84 L 188 84 L 188 80 L 192 80 L 192 76 L 188 76 L 188 72 L 192 72 L 192 68 L 188 68 L 184 68 L 184 64 L 180 64 L 180 68 L 176 68 L 176 64 L 172 64 L 172 68 L 168 68 L 168 64 L 164 64 L 164 68 L 160 68 L 160 64 L 156 64 L 156 68 L 152 68 L 152 64 L 148 64 L 148 68 L 144 68 L 144 64 L 140 64 L 140 68 L 136 68 L 136 64 L 132 64 L 132 68 L 128 68 L 128 64 L 124 64 L 124 68 L 120 68 L 120 64 L 116 64 L 116 68 L 112 68 L 112 64 L 108 64 L 108 68 L 104 68 L 104 64 L 100 64 L 100 68 L 96 68 L 96 64 L 92 64 L 92 68 L 88 68 L 88 64 L 84 64 L 84 68 L 80 68 L 80 64 L 76 64 L 76 68 L 72 68 L 72 64 L 68 64 L 68 68 L 68 72 L 64 72 L 64 76 L 68 76 L 68 80 L 64 80 L 64 84 L 68 84 L 68 88 L 64 88 L 64 92 L 68 92 L 68 96 L 64 96 L 64 100 L 68 100 L 68 104 L 64 104 L 64 108 L 68 108 L 68 112 L 64 112 L 64 116 L 68 116 L 68 120 L 64 120 L 64 124 L 68 124 L 68 128 L 64 128 L 64 132 L 68 132 L 68 136 L 64 136 L 64 140 L 68 140 L 68 144 L 64 144 L 64 148 L 68 148 L 68 152 L 64 152 L 64 156 L 68 156 L 68 160 L 64 160 L 64 164 L 68 164 L 68 168 L 64 168 L 64 172 L 68 172 L 68 176 L 64 176 L 64 180 L 68 180 L 68 184 L 64 184 L 64 188 L 68 188 Z"/>
</svg>
