<?xml version="1.0" encoding="UTF-8"?>
<!-- Generated by Pixelmator Pro 3.7.1 -->
<svg width="256" height="256" viewBox="0 0 256 256" xmlns="http://www.w3.org/2000/svg">
    <path id="Path" fill="#ffffff" stroke="none" d="M 228 176 L 219.679001 174.080002 C 219.322998 174.632004 218.705994 175 218 175 L 38 175 C 37.294006 175 36.677002 174.632004 36.320999 174.080002 L 28 176 C 28 176 12 168.61499 12 128 C 12 99.789001 19.716003 87.617996 24.431 82.809998 L 28 84 L 40 80 L 42 81 L 218 81 C 218.705994 81 219.322998 81.367996 219.679001 81.919998 L 228 80 C 228 80 244 87.38501 244 128 C 244 168.61499 228 176 228 176 M 239.462997 86.768005 C 234.959 78.971008 230.203995 76.612 229.675995 76.367996 L 228.434006 75.794998 L 227.100998 76.10199 L 220.615997 77.598999 C 219.815002 77.209991 218.923996 77 218 77 L 42.944 77 L 41.789001 76.421997 L 40.307007 75.681 L 38.735001 76.205002 L 28 79.783997 L 25.695999 79.015991 L 23.324997 78.225006 L 21.574997 80.01001 C 9.764008 92.053009 8 115.246002 8 128 C 8 145.556 10.871994 159.428009 16.537003 169.231995 C 21.041 177.028992 25.796005 179.388 26.324005 179.632004 L 27.565994 180.205002 L 28.899002 179.89801 L 35.384003 178.401001 C 36.184998 178.790009 37.076004 179 38 179 L 218 179 C 218.923996 179 219.815002 178.790009 220.615997 178.401001 L 227.100998 179.89801 L 228.434006 180.205002 L 229.675995 179.632004 C 230.203995 179.388 234.959 177.028992 239.462997 169.231995 C 245.128006 159.428009 248 145.556 248 128 C 248 110.444 245.128006 96.571991 239.462997 86.768005"/>
    <path id="path1" fill="#ffffff" stroke="none" d="M 172 160 L 84 160 L 84 96 L 172 96 Z M 84 92 L 80 92 L 80 96 L 80 160 L 80 164 L 84 164 L 172 164 L 176 164 L 176 160 L 176 96 L 176 92 L 172 92 Z"/>
    <path id="path2" fill="#ffffff" stroke="none" d="M 37.266201 133.333298 L 40.000198 133.333298 C 41.473198 133.333298 42.666199 134.527298 42.666199 136.000305 L 42.666199 138.733307 C 40.3312 137.568298 38.431198 135.668304 37.266201 133.333298 M 42.666199 117.266296 L 42.666199 120.000305 C 42.666199 121.472305 41.473198 122.666306 40.000198 122.666306 L 37.266201 122.666306 C 38.431198 120.331299 40.3312 118.431305 42.666199 117.266296 M 58.7342 122.666306 L 56.000198 122.666306 C 54.527199 122.666306 53.333199 121.472305 53.333199 120.000305 L 53.333199 117.266296 C 55.668201 118.431305 57.568199 120.331299 58.7342 122.666306 M 53.333199 138.733307 L 53.333199 136.000305 C 53.333199 134.527298 54.527199 133.333298 56.000198 133.333298 L 58.7342 133.333298 C 57.568199 135.668304 55.668201 137.568298 53.333199 138.733307 M 40.000198 129.333298 L 36.078201 129.333298 L 36.078201 129.333298 C 36.026199 128.886292 36.000198 128.441299 36.000198 128.000305 C 36.000198 127.558304 36.026199 127.113297 36.078201 126.666306 L 40.000198 126.666306 C 43.676201 126.666306 46.666199 123.6763 46.666199 120.000305 L 46.666199 116.078308 L 46.667198 116.078308 C 47.113201 116.026306 47.5592 116.000305 48.000198 116.000305 C 48.4412 116.000305 48.8862 116.026306 49.333199 116.078308 L 49.333199 116.078308 L 49.333199 120.000305 C 49.333199 123.6763 52.3242 126.666306 56.000198 126.666306 L 59.9212 126.666306 C 59.973202 127.113297 60.000198 127.558304 60.000198 128.000305 C 60.000198 128.441299 59.973202 128.886292 59.9212 129.333298 L 59.9212 129.333298 L 56.000198 129.333298 C 52.3242 129.333298 49.333199 132.32431 49.333199 136.000305 L 49.333199 139.921295 L 49.333199 139.921295 C 48.8862 139.973297 48.4412 140.000305 48.000198 140.000305 C 47.5592 140.000305 47.113201 139.973297 46.667198 139.921295 L 46.666199 139.921295 L 46.666199 136.000305 C 46.666199 132.32431 43.676201 129.333298 40.000198 129.333298 M 43.652199 143.386292 C 44.2052 143.542297 44.771198 143.66629 45.347198 143.762299 C 45.576199 143.8013 45.806198 143.838303 46.0382 143.86731 C 46.228199 143.891296 46.417198 143.9133 46.610199 143.929291 C 47.068199 143.971298 47.530201 144.000305 48.000198 144.000305 C 48.4692 144.000305 48.932201 143.971298 49.390198 143.929291 C 49.582199 143.9133 49.772198 143.891296 49.9622 143.86731 C 50.194199 143.838303 50.424198 143.8013 50.652199 143.762299 C 51.229198 143.66629 51.794201 143.542297 52.348198 143.386292 C 52.348198 143.386292 52.349201 143.3853 52.350201 143.3853 L 52.350201 143.3853 C 57.6852 141.879303 61.8792 137.685303 63.385201 132.350311 L 63.385201 132.350311 C 63.3862 132.349304 63.3862 132.348297 63.3862 132.348297 C 63.542198 131.794296 63.666199 131.228302 63.762199 130.652298 C 63.801201 130.424301 63.8382 130.194305 63.867199 129.962311 C 63.891201 129.772308 63.9132 129.582306 63.930199 129.390289 C 63.971199 128.931305 64.000198 128.469299 64.000198 128.000305 C 64.000198 127.530304 63.971199 127.068298 63.930199 126.609299 C 63.9132 126.417297 63.891201 126.228302 63.867199 126.0383 C 63.8382 125.806305 63.801201 125.576294 63.762199 125.348297 C 62.737202 119.218307 58.239201 114.277298 52.350201 112.614304 L 52.350201 112.614304 C 52.349201 112.614304 52.348198 112.614304 52.348198 112.614304 C 51.794201 112.457306 51.229198 112.334305 50.652199 112.237305 C 50.424198 112.198303 50.194199 112.162308 49.9622 112.132294 C 49.772198 112.109299 49.582199 112.086304 49.390198 112.070297 C 48.932201 112.028305 48.4692 112.000305 48.000198 112.000305 C 47.530201 112.000305 47.068199 112.028305 46.610199 112.070297 C 46.417198 112.086304 46.228199 112.109299 46.0382 112.132294 C 45.806198 112.162308 45.576199 112.198303 45.347198 112.237305 C 44.771198 112.334305 44.2052 112.457306 43.652199 112.614304 C 43.651199 112.614304 43.6502 112.614304 43.6492 112.614304 L 43.6492 112.614304 C 37.7612 114.277298 33.263199 119.218307 32.237202 125.348297 C 32.1982 125.576294 32.162201 125.806305 32.132198 126.0383 C 32.1092 126.228302 32.086201 126.417297 32.070198 126.609299 C 32.028198 127.068298 32.000198 127.530304 32.000198 128.000305 C 32.000198 128.469299 32.028198 128.931305 32.070198 129.390289 C 32.086201 129.582306 32.1092 129.772308 32.132198 129.962311 C 32.162201 130.194305 32.1982 130.424301 32.238201 130.652298 C 32.334198 131.228302 32.458199 131.794296 32.614201 132.348297 C 32.614201 132.348297 32.614201 132.349304 32.614201 132.350311 L 32.614201 132.350311 C 34.120201 137.685303 38.315201 141.879303 43.6492 143.3853 L 43.6492 143.3853 C 43.6502 143.3853 43.651199 143.386292 43.652199 143.386292"/>
    <path id="path3" fill="#ffffff" stroke="none" d="M 48 129 C 48.551998 129 49 128.552002 49 128 C 49 127.447998 48.551998 127 48 127 C 47.448002 127 47 127.447998 47 128 C 47 128.552002 47.448002 129 48 129"/>
    <path id="path4" fill="#ffffff" stroke="none" d="M 228.828506 125.475403 C 227.605499 125.9384 226.588501 126.822403 226.004501 127.991394 L 226.000504 127.998398 C 225.404495 129.190399 225.336502 130.555389 225.7005 131.838409 C 225.895493 132.525391 226.000504 133.250397 226.000504 134.000397 C 226.000504 137.383392 223.886505 140.277405 220.911499 141.44339 C 219.663498 141.932404 218.600494 142.798401 218.001495 143.997406 C 217.403503 145.192398 217.339493 146.559402 217.702499 147.845398 C 218.008499 148.928406 218.0905 150.103394 217.892502 151.320404 C 217.338501 154.721405 214.551498 157.447403 211.138504 157.92041 C 210.753494 157.974396 210.374496 158.000397 210.000504 158.000397 C 206.586502 158.000397 203.670502 155.848389 202.525497 152.83139 C 202.061493 151.607391 201.176498 150.588409 200.005493 150.002411 C 199.292496 149.646393 198.518494 149.479401 197.737503 149.479401 C 197.206497 149.479401 196.672501 149.556396 196.151505 149.7034 C 195.466507 149.896393 194.745499 150.000397 194.000504 150.000397 C 193.567505 150.000397 193.126495 149.965393 192.679504 149.892395 C 189.278503 149.338409 186.552505 146.551392 186.079498 143.138397 C 185.538498 139.245392 187.822495 135.793396 191.171494 134.524399 C 192.394501 134.061401 193.411499 133.178406 193.995499 132.008392 L 193.999496 132.001404 C 194.595505 130.809402 194.663498 129.444397 194.2995 128.162399 C 194.104507 127.474396 194.000504 126.749405 194.000504 126.000397 C 194.000504 122.616394 196.113495 119.722397 199.088501 118.556396 C 200.336502 118.067398 201.399506 117.201401 201.998505 116.002396 C 202.596497 114.807404 202.660507 113.440399 202.297501 112.154404 C 201.992493 111.072403 201.9095 109.8974 202.107498 108.679398 C 202.661499 105.278397 205.448502 102.552399 208.861496 102.079407 C 209.246506 102.025406 209.625504 102.000397 210.000504 102.000397 C 213.413498 102.000397 216.329498 104.151398 217.474503 107.168396 C 217.938507 108.392395 218.823502 109.411407 219.994507 109.997406 C 220.707504 110.353394 221.481506 110.520401 222.262497 110.520401 C 222.793503 110.520401 223.327499 110.443405 223.848495 110.296402 C 224.533493 110.103394 225.254501 110.000397 226.000504 110.000397 C 226.432495 110.000397 226.873505 110.0354 227.320496 110.107407 C 230.721497 110.662399 233.447495 113.448395 233.920502 116.861404 C 234.461502 120.755402 232.177505 124.206406 228.828506 125.475403 M 206.000504 168.000397 C 204.895493 168.000397 204.000504 167.104401 204.000504 166.000397 C 204.000504 165.967407 204.008499 165.936401 204.009506 165.904404 C 204.234497 165.464401 204.454498 165.006409 204.667496 164.518402 C 205.022507 164.199402 205.486496 164.000397 206.000504 164.000397 C 207.104492 164.000397 208.000504 164.895401 208.000504 166.000397 C 208.000504 167.104401 207.104492 168.000397 206.000504 168.000397 M 196.250504 168.000397 L 59.750496 168.000397 C 56.317497 168.000397 53.303505 160.707397 51.566505 149.70639 C 62.006493 147.996399 70.000496 138.916397 70.000496 128.000397 C 70.000496 117.083405 62.006493 108.003403 51.566505 106.293396 C 53.303505 95.292404 56.317497 88.000397 59.750496 88.000397 L 196.250504 88.000397 C 198.988495 88.000397 201.460495 92.644394 203.231506 100.105392 C 200.592499 101.920395 198.693497 104.762405 198.1595 108.036407 C 197.872498 109.796402 197.969498 111.547394 198.448502 113.241394 C 198.509506 113.460403 198.588501 113.878403 198.421494 114.213394 C 198.2995 114.457397 198.010498 114.682404 197.628494 114.832397 C 192.994507 116.648407 190.000504 121.031403 190.000504 126.000397 C 190.000504 127.101395 190.151505 128.195404 190.451508 129.252411 C 190.511505 129.467407 190.589508 129.877411 190.421494 130.212402 C 190.293503 130.468399 190.057495 130.669403 189.754501 130.784393 C 184.480499 132.78241 181.3405 138.088409 182.117508 143.687408 C 182.830505 148.830399 186.9095 153.004395 192.036499 153.840393 C 192.6875 153.946411 193.347504 154.000397 194.000504 154.000397 C 195.095505 154.000397 196.184494 153.849396 197.236496 153.553406 C 197.410507 153.504395 197.578506 153.479401 197.737503 153.479401 C 197.921494 153.479401 198.082504 153.513397 198.216507 153.580399 C 198.467499 153.705399 198.669495 153.94339 198.785507 154.250397 C 199.533493 156.220398 200.779495 157.9104 202.341507 159.208405 C 200.673492 164.702393 198.556503 168.000397 196.250504 168.000397 M 30.000498 128.000397 C 30.000498 118.074402 38.074501 110.000397 48.000496 110.000397 C 57.925499 110.000397 66.000496 118.074402 66.000496 128.000397 C 66.000496 137.9254 57.925499 146.000397 48.000496 146.000397 C 38.074501 146.000397 30.000498 137.9254 30.000498 128.000397 M 36.000496 94.000397 C 36.000496 92.895401 36.8955 92.000397 38.000496 92.000397 L 51.112495 92.000397 C 50.616493 93.195404 50.153496 94.531403 49.719505 96.000397 L 38.000496 96.000397 C 36.8955 96.000397 36.000496 95.104401 36.000496 94.000397 M 218.000504 92.000397 C 219.104507 92.000397 220.000504 92.895401 220.000504 94.000397 C 220.000504 95.104401 219.104507 96.000397 218.000504 96.000397 L 206.280502 96.000397 C 205.846497 94.531403 205.383499 93.195404 204.887497 92.000397 Z M 237.882507 116.312393 C 237.169495 111.170395 233.0905 106.995407 227.963501 106.159393 C 227.3125 106.053406 226.652496 106.000397 226.000504 106.000397 C 224.904495 106.000397 223.815506 106.150406 222.763504 106.446396 C 222.589493 106.495407 222.421494 106.520401 222.262497 106.520401 C 222.078506 106.520401 221.917496 106.486404 221.783493 106.419403 C 221.532501 106.294403 221.330505 106.056396 221.214493 105.749405 C 220.303497 103.349396 218.652496 101.363403 216.588501 100.000397 L 218.000504 100.000397 C 221.308502 100.000397 224.000504 97.308395 224.000504 94.000397 C 224.000504 90.691406 221.308502 88.000397 218.000504 88.000397 L 202.773499 88.000397 C 200.934494 85.329407 198.7715 84.000397 196.250504 84.000397 L 59.750496 84.000397 C 57.228493 84.000397 55.065498 85.329407 53.226494 88.000397 L 38.000496 88.000397 C 34.691505 88.000397 32.000496 90.691406 32.000496 94.000397 C 32.000496 97.308395 34.691505 100.000397 38.000496 100.000397 L 48.689491 100.000397 C 48.265495 101.882401 47.887505 103.890396 47.560493 106.011398 C 35.6325 106.246399 26.000498 116.016403 26.000498 128.000397 C 26.000498 139.983398 35.6325 149.753403 47.560493 149.988403 C 47.959496 152.573395 48.427498 155.008392 48.969505 157.2314 C 51.391502 167.169403 54.918495 172.000397 59.750496 172.000397 L 196.250504 172.000397 C 198.142502 172.000397 199.830505 171.2444 201.334503 169.7444 C 202.434494 171.113403 204.111496 172.000397 206.000504 172.000397 C 209.308502 172.000397 212.000504 169.308411 212.000504 166.000397 C 212.000504 164.455399 211.408493 163.049408 210.445496 161.984406 C 210.859497 161.969391 211.275497 161.940399 211.6875 161.882401 C 216.830505 161.169403 221.004501 157.090393 221.8405 151.963409 C 222.127502 150.2034 222.030502 148.452393 221.552505 146.758392 C 221.490494 146.539398 221.411499 146.121399 221.578506 145.786407 C 221.7005 145.542389 221.989502 145.317398 222.371506 145.167389 C 227.005493 143.35141 230.000504 138.968399 230.000504 134.000397 C 230.000504 132.898407 229.848495 131.804398 229.548492 130.747406 C 229.488495 130.53241 229.410507 130.122406 229.578506 129.787399 C 229.706497 129.531403 229.942505 129.33139 230.245499 129.215393 C 235.519501 127.217407 238.6595 121.911407 237.882507 116.312393"/>
    <path id="path5" fill="#ffffff" stroke="none" d="M 202 128 C 200.897003 128 200 127.102997 200 126 C 200 124.897003 200.897003 124 202 124 C 203.102997 124 204 124.897003 204 126 C 204 127.102997 203.102997 128 202 128 M 208 126 C 208 122.686005 205.313995 120 202 120 C 198.686005 120 196 122.686005 196 126 C 196 129.313995 198.686005 132 202 132 C 205.313995 132 208 129.313995 208 126"/>
    <path id="path6" fill="#ffffff" stroke="none" d="M 210 108 C 211.102997 108 212 108.897003 212 110 C 212 111.102997 211.102997 112 210 112 C 208.897003 112 208 111.102997 208 110 C 208 108.897003 208.897003 108 210 108 M 210 116 C 213.313995 116 216 113.313995 216 110 C 216 106.686005 213.313995 104 210 104 C 206.686005 104 204 106.686005 204 110 C 204 113.313995 206.686005 116 210 116"/>
    <path id="path7" fill="#ffffff" stroke="none" d="M 218 136 C 216.897003 136 216 135.102997 216 134 C 216 132.897003 216.897003 132 218 132 C 219.102997 132 220 132.897003 220 134 C 220 135.102997 219.102997 136 218 136 M 218 128 C 214.686005 128 212 130.686005 212 134 C 212 137.313995 214.686005 140 218 140 C 221.313995 140 224 137.313995 224 134 C 224 130.686005 221.313995 128 218 128"/>
    <path id="path8" fill="#ffffff" stroke="none" d="M 194 144 C 192.897003 144 192 143.102997 192 142 C 192 140.897003 192.897003 140 194 140 C 195.102997 140 196 140.897003 196 142 C 196 143.102997 195.102997 144 194 144 M 194 136 C 190.686005 136 188 138.686005 188 142 C 188 145.313995 190.686005 148 194 148 C 197.313995 148 200 145.313995 200 142 C 200 138.686005 197.313995 136 194 136"/>
    <path id="path9" fill="#ffffff" stroke="none" d="M 210 152 C 208.897003 152 208 151.102997 208 150 C 208 148.897003 208.897003 148 210 148 C 211.102997 148 212 148.897003 212 150 C 212 151.102997 211.102997 152 210 152 M 210 144 C 206.686005 144 204 146.686005 204 150 C 204 153.313995 206.686005 156 210 156 C 213.313995 156 216 153.313995 216 150 C 216 146.686005 213.313995 144 210 144"/>
    <path id="path10" fill="#ffffff" stroke="none" d="M 226 120 C 224.897003 120 224 119.102997 224 118 C 224 116.897003 224.897003 116 226 116 C 227.102997 116 228 116.897003 228 118 C 228 119.102997 227.102997 120 226 120 M 226 112 C 222.686005 112 220 114.686005 220 118 C 220 121.313995 222.686005 124 226 124 C 229.313995 124 232 121.313995 232 118 C 232 114.686005 229.313995 112 226 112"/>
</svg>
