<?xml version="1.0" encoding="UTF-8"?>
<!-- Generated by Pixelmator Pro 3.7.1 -->
<svg width="256" height="256" viewBox="0 0 256 256" xmlns="http://www.w3.org/2000/svg">
    <path id="Path" fill="#ffffff" stroke="none" d="M 244 64 L 236 72 L 236 176 L 244 184 L 244 208 C 244 210.209 192.065002 212 128 212 C 63.934998 212 12 210.209 12 208 L 12 184 L 20 176 L 20 72 L 12 64 L 12 48 C 12 45.791 63.934998 44 128 44 C 192.065002 44 244 45.791 244 48 Z M 242.307999 43.248993 C 240.649002 42.970001 238.326996 42.709991 235.209 42.455994 C 229.304993 41.975006 220.878006 41.542999 210.162003 41.173996 C 188.208008 40.416992 159.028992 40 128 40 C 96.970993 40 67.792007 40.416992 45.837997 41.173996 C 35.121994 41.542999 26.695007 41.975006 20.791 42.455994 C 17.673004 42.709991 15.350998 42.970001 13.692001 43.248993 C 12.134995 43.511993 8 44.209 8 48 L 8 64 L 8 65.656998 L 9.171997 66.828003 L 16 73.656998 L 16 174.343002 L 9.171997 181.171997 L 8 182.343002 L 8 184 L 8 208 C 8 211.791 12.134995 212.488007 13.692001 212.751007 C 15.350998 213.029999 17.673004 213.289993 20.791 213.544006 C 26.695007 214.024994 35.121994 214.457001 45.837997 214.826004 C 67.792007 215.582993 96.970993 216 128 216 C 159.028992 216 188.208008 215.582993 210.162003 214.826004 C 220.878006 214.457001 229.304993 214.024994 235.209 213.544006 C 238.326996 213.289993 240.649002 213.029999 242.307999 212.751007 C 243.865005 212.488007 248 211.791 248 208 L 248 184 L 248 182.343002 L 246.828003 181.171997 L 240 174.343002 L 240 73.656998 L 246.828003 66.828003 L 248 65.656998 L 248 64 L 248 48 C 248 44.209 243.865005 43.511993 242.307999 43.248993"/>
    <path id="path1" fill="#ffffff" stroke="none" d="M 108 188 C 103.588997 188 100 184.411011 100 180 C 100 175.588989 103.588997 172 108 172 C 112.411003 172 116 175.588989 116 180 C 116 184.411011 112.411003 188 108 188 M 108 168 C 101.373001 168 96 173.373001 96 180 C 96 186.626999 101.373001 192 108 192 C 114.626999 192 120 186.626999 120 180 C 120 173.373001 114.626999 168 108 168"/>
    <path id="path2" fill="#ffffff" stroke="none" d="M 148 188 C 143.589005 188 140 184.411011 140 180 C 140 175.588989 143.589005 172 148 172 C 152.410995 172 156 175.588989 156 180 C 156 184.411011 152.410995 188 148 188 M 148 168 C 141.373001 168 136 173.373001 136 180 C 136 186.626999 141.373001 192 148 192 C 154.626999 192 160 186.626999 160 180 C 160 173.373001 154.626999 168 148 168"/>
    <path id="path3" fill="#ffffff" stroke="none" d="M 220 116 L 216 116 L 202.776001 120.408005 C 195.639008 122.787003 188.164001 124 180.640991 124 L 71.358994 124 C 63.835999 124 56.360992 122.787003 49.223999 120.408005 L 36 116 L 32 116 L 32 88 L 36 88 L 49.223999 83.591995 C 56.360992 81.212997 63.835999 80 71.358994 80 L 180.640991 80 C 188.164001 80 195.639008 81.212997 202.776001 83.591995 L 216 88 L 220 88 Z M 216.649002 84 L 204.041 79.796997 C 196.481995 77.278 188.608994 76 180.640991 76 L 71.358994 76 C 63.391006 76 55.518005 77.278 47.959 79.796997 L 35.350998 84 L 32 84 L 28 84 L 28 88 L 28 116 L 28 120 L 32 120 L 35.350998 120 L 47.959 124.203003 C 55.518005 126.722 63.391006 128 71.358994 128 L 180.640991 128 C 188.608994 128 196.481995 126.722 204.041 124.203003 L 216.649002 120 L 220 120 L 224 120 L 224 116 L 224 88 L 224 84 L 220 84 Z"/>
    <path id="path4" fill="#ffffff" stroke="none" d="M 128 202 C 126.894997 202 126 201.104996 126 200 C 126 198.895004 126.894997 198 128 198 C 129.104996 198 130 198.895004 130 200 C 130 201.104996 129.104996 202 128 202 M 128 196 C 125.793999 196 124 197.794006 124 200 C 124 202.205994 125.793999 204 128 204 C 130.205994 204 132 202.205994 132 200 C 132 197.794006 130.205994 196 128 196"/>
    <path id="path5" fill="#ffffff" stroke="none" d="M 212 92 L 212 99.544006 L 170.994003 100 L 40 100 L 40 92 Z M 212 112 L 40 112 L 40 104 L 212 104 Z M 36 100 L 36 101.5 L 35.994995 101.5 L 36 102 L 36 104 L 36 112 C 36 114.209 37.791 116 40 116 L 212 116 C 214.209 116 216 114.209 216 112 L 216 104 L 216 100.5 L 216.005997 100.5 L 216 100 L 216 92 L 216 88 L 212 88 L 40 88 L 36 88 L 36 92 Z"/>
</svg>
