<?xml version="1.0" encoding="UTF-8"?>
<!-- Generated by Pixelmator Pro 3.7.1 -->
<svg width="256" height="256" viewBox="0 0 256 256" xmlns="http://www.w3.org/2000/svg">
    <path id="Path" fill="#ffffff" stroke="none" d="M 147.8965 114.318802 C 146.100494 114.318802 143.822495 115.869797 143.459503 117.946793 C 143.227493 119.286804 143.783493 121.007797 146.041504 121.817795 C 146.069504 121.826797 146.130493 121.846802 146.1595 121.855804 C 146.204498 121.869797 146.250504 121.881805 146.296494 121.892807 C 146.516495 121.943802 146.7285 121.968796 146.946503 121.968796 C 147.483505 121.968796 148.520493 121.803802 149.426498 120.698807 C 150.214493 119.735794 151.167496 117.577805 150.371506 115.8918 C 149.915497 114.921799 148.966507 114.318802 147.8965 114.318802"/>
    <path id="path1" fill="#ffffff" stroke="none" d="M 168.046906 157.487305 C 168.690903 157.253296 169.3909 156.988297 170.1539 156.695297 C 169.608902 157.110291 169.0159 157.621307 168.349899 158.231293 C 168.233902 157.984299 168.132904 157.733307 168.046906 157.487305 M 185.659897 166.911301 C 180.235901 171.937302 174.626907 177.134308 169.904907 181.731293 C 166.226898 185.313293 164.129898 187.809296 161.909897 190.452301 C 160.127899 192.57431 158.289902 194.762299 155.482895 197.667297 C 148.0849 195.090302 134.275894 193.613297 124.108902 193.109299 C 123.550903 192.895294 122.933899 192.719299 122.267899 192.576294 C 134.173904 192.990295 144.303894 193.850296 152.768906 195.534302 C 152.984894 195.578308 153.210907 195.600296 153.439896 195.600296 C 155.055893 195.600296 156.456894 194.445297 156.772903 192.854309 C 156.773895 192.851303 156.773895 192.848297 156.774902 192.845306 C 157.129898 191.008301 155.930893 189.216309 154.099899 188.850311 C 140.005905 186.048309 122.186897 185.43631 99.821899 185.41629 C 98.952896 184.129303 98.114899 182.861298 97.2789 181.596298 L 97.086899 181.306305 C 96.141899 179.876297 95.191895 178.43631 94.192902 176.963303 C 94.595901 177.093292 95.012901 177.210297 95.441895 177.310303 C 97.976898 177.901306 100.942902 177.865295 103.460899 176.9133 C 102.322899 178.744293 101.385895 180.475311 100.703896 182.103302 C 100.4589 182.684296 100.455894 183.326294 100.693901 183.909302 C 100.9319 184.489304 101.380898 184.943298 101.965897 185.190308 C 103.145897 185.682297 104.561897 185.087311 105.0429 183.928299 C 107.078903 179.069305 112.227898 172.442291 117.7929 165.372299 C 117.969902 165.490295 118.146896 165.608307 118.321899 165.726303 L 119.245903 166.344299 C 120.979897 167.509308 123.185898 167.605301 125.318901 167.698303 C 126.853897 167.765289 128.440903 167.835297 129.422897 168.3293 C 129.672897 168.455292 129.934906 168.553299 130.205902 168.625305 C 126.808899 169.636292 122.397903 169.813293 119.1409 169.214294 C 118.523903 169.081299 117.869904 169.20929 117.3479 169.56131 C 116.825897 169.912292 116.462898 170.4673 116.3479 171.086304 C 116.231903 171.705292 116.363899 172.333298 116.720901 172.851303 C 117.077896 173.3703 117.614899 173.718292 118.232903 173.832306 C 119.718903 174.106293 121.465897 174.252289 123.282898 174.252289 C 126.676903 174.252289 137.898895 173.654297 139.809906 165.977295 C 139.953903 165.418304 139.889908 164.838303 139.629898 164.328308 C 141.534897 162.667297 143.408905 160.726303 144.992905 158.8703 C 143.383896 164.8013 143.524902 168.999298 145.422897 171.688293 C 146.063904 172.59729 147.162903 173.661301 148.981903 174.221298 C 148.995895 175.361298 149.317902 176.633301 150.538895 177.327301 C 153.249893 178.864304 157.002899 175.649292 162.906906 170.282303 C 164.357895 168.963303 166.343903 167.157303 166.910904 166.876297 C 166.879898 166.891296 166.849899 166.901306 166.823898 166.909302 C 167.022903 166.839294 183.283905 158.919296 183.663895 153.49231 C 183.759903 152.13031 183.052902 150.973297 181.724899 150.320297 C 180.751907 149.841309 179.534897 149.740295 177.895905 150.000305 C 177.734894 150.025299 177.580902 150.070297 177.435898 150.131302 C 177.2659 150.129303 177.118896 150.143311 176.961899 150.177307 C 174.628906 150.689301 171.8909 151.74231 169.242905 152.7603 C 167.566895 153.405304 165.196899 154.316299 163.914902 154.613297 L 163.900894 154.560303 C 163.116898 151.8853 162.428894 148.292297 161.978897 145.822296 C 161.881897 145.294312 161.585907 144.850311 161.180893 144.558304 C 161.159897 144.304291 161.141907 144.06131 161.123901 143.832306 C 160.964905 141.758301 160.819901 139.928299 160.662903 138.546295 C 160.655899 138.488297 160.647903 138.430298 160.635895 138.374298 C 160.463898 137.529297 160.325897 136.980301 160.189896 136.5923 C 159.955902 135.931305 159.392899 135.441299 158.705902 135.300293 C 158.018906 135.160309 157.308899 135.388306 156.832901 135.904297 C 155.703903 137.13031 153.071899 141.063293 150.8629 144.605301 C 150.951904 142.121307 150.4879 140.044296 149.457901 138.263306 C 153.679901 137.101303 158.188904 134.441299 160.828903 130.253296 C 165.302902 132.011292 169.566895 133.481293 173.393906 134.800293 C 180.407898 137.216309 185.947906 139.124298 188.813904 141.423309 C 189.767899 142.174301 191.271896 142.029297 192.059906 141.104309 C 192.064896 141.099304 192.068893 141.093292 192.073898 141.088303 C 192.475906 140.608307 192.669907 139.976303 192.606903 139.354309 C 192.5439 138.733307 192.226898 138.15329 191.742905 137.768311 C 189.131897 135.675293 185.176895 134.012299 180.226898 132.2323 C 180.615906 131.839294 181.049896 131.470306 181.549896 131.110291 L 185.9729 128.781311 C 186.513901 128.550293 187.063904 128.323303 187.633896 128.090302 C 189.206894 127.446304 190.833908 126.781296 192.426895 125.945297 C 193.575897 125.341293 194.071899 123.922302 193.548904 122.695297 C 193.453903 122.479294 193.332901 122.282303 193.188904 122.106293 C 192.992905 121.626297 192.6539 121.212296 192.217896 120.934296 C 192.177902 120.909302 192.137894 120.8853 192.096893 120.862305 C 191.980896 120.7323 191.851898 120.613297 191.7099 120.509293 C 191.174896 120.118301 190.527908 119.963303 189.866898 120.070297 C 189.532898 120.127304 189.204895 120.199295 188.879898 120.278305 L 188.989899 118.632294 C 189.660904 118.3703 190.329895 118.098297 190.991898 117.811295 C 191.657898 117.521301 192.187897 116.9673 192.442902 116.292297 C 192.701904 115.612305 192.674896 114.874298 192.369904 114.216293 C 192.223907 113.901306 192.017899 113.621292 191.766907 113.388306 C 191.473907 112.737305 190.926895 112.236298 190.267899 111.979294 C 189.679901 111.338303 188.786896 110.988297 187.870895 111.117294 C 187.850906 111.1203 187.830902 111.125305 187.811905 111.128296 L 186.215897 106.202301 C 186.3629 106.133301 186.519897 106.071304 186.665894 106.002304 C 187.267899 105.716293 187.755905 105.2453 188.060898 104.672302 C 193.516907 115.627304 199.170898 126.781296 205.307907 137.027298 C 207.103897 140.02829 208.197906 141.670303 209.465897 143.570297 L 209.511902 143.639297 C 204.717896 149.254303 195.038895 158.221298 185.659897 166.911301 M 70.349899 111.359299 C 70.354897 111.378296 70.357895 111.396301 70.359901 111.415298 L 68.946899 111.7043 C 68.943901 111.699295 68.942902 111.694305 68.939896 111.689301 Z M 103.796898 192.775299 C 100.5149 193.067307 96.8619 193.393295 95.136894 193.267303 C 89.621895 184.2173 81.739899 173.81131 71.656898 161.050293 C 71.601898 160.981293 71.541901 160.915298 71.477898 160.853302 C 62.344898 152.024292 52.2999 141.402298 50.235905 138.446289 C 51.693905 135.5233 52.921902 132.685303 54.113903 129.932297 C 57.062901 123.119293 59.847904 116.685303 65.650894 109.920303 C 66.525894 108.900299 67.378899 107.914291 68.207901 106.9543 C 74.706902 99.431305 79.840897 93.489304 83.780899 85.6633 C 90.194901 72.925308 102.566895 64.156296 108.059898 62.096298 L 173.309906 80.604294 C 173.564896 80.824295 173.814896 81.048294 174.059906 81.274307 C 173.908905 81.279297 173.757904 81.296295 173.607895 81.322296 C 165.488907 82.690308 158.491898 86.557297 151.726898 90.296295 C 147.560898 92.596298 143.271896 94.965302 138.840897 96.628296 C 138.660904 96.048294 138.454895 95.463303 138.225906 94.881302 C 138.350906 94.951294 138.477905 95.018295 138.605896 95.083298 C 139.082901 95.320297 139.631897 95.360306 140.135895 95.191299 C 140.639908 95.022293 141.055908 94.660294 141.291901 94.184296 L 141.606903 93.5513 C 142.096893 92.564301 141.695908 91.367294 140.710907 90.873306 C 139.399902 90.216293 138.060898 88.700302 136.7659 87.233307 C 135.279907 85.552307 133.744904 83.814301 131.799896 82.687302 C 131.340897 82.421295 130.794907 82.348297 130.279907 82.486298 C 129.767899 82.624298 129.329895 82.960297 129.065903 83.420303 L 128.712906 84.031296 C 128.507904 84.386307 128.424896 84.777298 128.448898 85.157303 C 126.368896 84.608307 124.200897 84.404297 122.1679 84.320297 C 118.344902 77.461304 115.297897 71.239304 112.616898 64.823303 C 112.374901 64.244308 111.921898 63.794296 111.340897 63.556305 C 110.759903 63.318298 110.122902 63.321304 109.526901 63.572296 C 108.350899 64.080307 107.796898 65.456299 108.290901 66.637299 C 108.636902 67.465302 108.988899 68.289307 109.346901 69.111298 C 108.9879 68.637299 108.6259 68.1633 108.259903 67.689301 C 107.129898 66.226303 104.999901 65.934296 103.505898 67.042297 C 102.773895 67.589294 102.300896 68.386307 102.176895 69.289307 C 102.052895 70.189301 102.290901 71.084305 102.8479 71.808304 C 105.3349 75.034302 107.690903 78.316299 109.8899 81.618301 C 108.218903 82.063293 106.747902 82.867294 105.392899 83.608307 C 105.032898 83.805298 104.674896 84.000305 104.317902 84.187302 C 102.983894 84.881302 101.207901 85.143295 99.489899 85.396301 C 97.477898 85.692307 95.197899 86.028305 93.150894 87.095306 C 85.870895 90.887299 78.969894 101.554306 76.368896 113.036301 C 75.685898 116.053299 75.337898 118.965302 75.316895 121.692307 C 74.589897 118.396301 73.755898 114.743301 72.804901 110.688293 C 72.5979 109.797302 72.035896 109.021301 71.2649 108.562302 C 70.510895 108.112305 69.631897 107.991302 68.789894 108.222305 C 67.058899 108.697296 66.033897 110.477295 66.455894 112.2733 L 68.402901 111.815292 L 68.9319 111.691299 C 68.932899 111.696304 68.934898 111.701294 68.935898 111.706299 L 68.402901 111.815292 L 66.467896 112.326294 C 67.143898 115.211304 68.272896 120.028305 69.398895 125.248306 L 72.363899 148.123291 C 71.6549 148.869293 71.286896 149.941299 71.463898 151.036301 C 71.577896 151.749298 71.900894 152.377289 72.360901 152.8573 C 71.604897 152.942291 70.901901 153.277298 70.349899 153.825302 C 69.026901 155.141296 69.012901 157.297302 70.318901 158.631302 C 81.5019 170.049301 86.5439 177.683289 91.421898 185.070297 C 92.633896 186.904297 93.886894 188.8013 95.231895 190.753296 C 95.864899 191.678299 96.910896 192.230301 98.0289 192.230301 C 102.044899 192.2323 105.911903 192.251297 109.631897 192.295303 C 107.677902 192.431305 105.705902 192.606293 103.796898 192.775299 M 175.453903 86.893295 C 175.474899 87.207306 175.567902 87.516296 175.733902 87.793304 C 175.819901 87.936295 175.922897 88.067307 176.038895 88.182297 L 175.949905 88.225296 C 175.858902 88.271301 175.7789 88.334305 175.697906 88.395294 L 174.977905 87.365295 C 174.484894 86.662308 173.600906 86.353302 172.775894 86.593307 C 164.965897 88.882294 157.497894 92.543304 151.223907 95.822296 C 150.256897 96.327301 149.873901 97.514297 150.361908 98.490295 C 150.850906 99.466293 152.031906 99.868301 153.014908 99.3983 C 156.470901 97.742294 160.149902 96.249298 163.706894 94.804306 C 166.637894 93.614304 169.651901 92.391296 172.658905 91.029297 L 173.108902 91.671295 C 169.807907 93.379303 166.210907 94.923294 162.674896 96.421295 C 156.481903 99.044296 150.076904 101.757294 145.053894 105.558304 C 144.388901 106.061295 144.106903 106.924301 144.343903 107.723297 C 144.450897 108.086304 144.664902 108.390305 144.933899 108.632294 L 140.057907 107.879303 C 142.198898 105.855301 144.671906 104.017303 147.583908 102.282303 C 148.518906 101.725296 148.836899 100.5233 148.299896 99.576294 C 147.763901 98.631302 146.568893 98.287292 145.609894 98.804306 L 144.798904 99.239304 C 141.693893 100.906296 138.484894 102.630295 135.330902 104.219299 C 134.833893 104.153305 134.317902 104.274292 133.9039 104.569305 C 132.166901 101.394302 130.234894 98.142303 128.354904 94.975296 C 127.115898 92.887299 125.846901 90.744308 124.552902 88.508301 C 126.402901 88.718307 128.234894 89.116302 129.792892 89.900299 C 132.289902 91.157303 134.751907 95.942307 135.483902 99.621292 C 135.594894 100.180298 135.939896 100.665298 136.430908 100.955292 C 136.921906 101.244293 137.513901 101.310303 138.055908 101.136292 C 143.571899 99.368301 148.700897 96.536301 153.660904 93.797302 C 159.951904 90.320297 166.451904 86.728302 173.660904 85.375305 C 173.756897 85.765305 173.968903 86.122299 174.276901 86.395294 C 174.608902 86.689301 175.023895 86.861298 175.453903 86.893295 M 180.450897 89.458298 C 180.547897 89.640305 180.642899 89.822296 180.734894 90.006302 C 181.758896 92.026306 182.7939 94.091293 183.840897 96.190292 C 183.773895 96.195297 183.704895 96.203293 183.637894 96.213303 C 182.891907 96.316299 182.160904 96.447296 181.437897 96.5923 L 178.675903 92.647308 C 178.953903 92.169296 179.118896 91.631302 179.148895 91.078308 C 179.754898 90.675308 180.198898 90.104294 180.450897 89.458298 M 175.963898 115.189301 C 173.053894 116.531296 170.0439 117.919296 166.919907 118.575302 C 166.200897 118.726303 165.586899 119.147293 165.191895 119.761292 C 164.799896 120.369293 164.670898 121.0923 164.827896 121.795303 C 164.842896 121.861298 164.858902 121.925293 164.878906 121.989304 C 164.690903 122.608292 164.730896 123.265305 164.999893 123.866302 C 165.141907 124.179306 165.349899 124.445297 165.587906 124.677292 L 162.715897 124.868301 C 162.776901 124.250305 162.809906 123.622299 162.780899 122.975296 C 162.857895 120.817307 162.587906 118.474304 162.012894 116.239304 C 165.751907 113.727295 170.986893 111.897293 176.064896 110.121292 C 178.212906 109.3703 180.396896 108.595306 182.517899 107.765305 L 183.8909 112.005295 C 181.079895 112.839294 178.490906 114.0233 175.963898 115.189301 M 182.142899 123.235306 C 181.907898 123.365295 181.670898 123.494293 181.435898 123.625305 L 174.940903 124.056305 L 180.533905 121.612305 C 181.478897 121.279297 182.436905 120.950302 183.410904 120.6203 C 183.897903 120.455292 184.389908 120.287292 184.881897 120.119293 L 184.766907 121.834305 C 183.849899 122.287292 182.976898 122.771301 182.142899 123.235306 M 177.294907 97.650299 C 173.341904 98.859299 169.663895 100.522293 166.073898 102.159302 C 162.940903 103.587296 159.420898 105.191299 155.828903 106.312302 C 154.952896 105.762299 154.023895 105.3983 153.063904 105.231293 C 156.572906 103.349304 160.452896 101.706299 164.260895 100.093292 C 168.014893 98.503296 171.856903 96.851303 175.420898 94.973297 Z M 162.689896 109.310303 C 162.490906 108.899292 162.165894 108.593292 161.785904 108.402298 C 163.369904 107.758301 164.904907 107.081299 166.366898 106.419296 C 166.252899 106.826294 166.258896 107.270294 166.425903 107.692307 C 166.670898 108.313293 167.193893 108.739304 167.795898 108.892303 C 165.957901 109.626297 164.188904 110.418304 162.538895 111.294296 C 162.923904 110.722305 163.009903 109.972305 162.689896 109.310303 M 157.5849 123.855301 L 158.744904 121.022293 C 158.786896 121.662292 158.805893 122.294296 158.780899 122.905304 C 158.777893 122.966293 158.777893 123.027298 158.781906 123.087296 C 158.804901 123.522293 158.787903 123.941299 158.752899 124.352295 C 158.352905 124.184296 157.961899 124.018295 157.5849 123.855301 M 128.314896 118.888306 C 128.666901 119.864304 129.005905 120.822296 129.3349 121.762299 C 129.616898 122.567307 130.184906 123.215302 130.900894 123.610306 C 131.272903 126.119293 131.697906 126.977295 131.852905 127.287292 C 132.329895 128.251297 132.892899 129.15329 133.571899 130.043304 C 133.620895 130.106293 133.672897 130.16629 133.726898 130.22229 L 134.964905 131.527298 L 128.975906 126.007294 C 128.921906 123.564301 128.680893 121.197296 128.314896 118.888306 M 115.703903 121.871292 C 115.730896 121.916306 115.752899 121.963303 115.782898 122.006302 C 115.636902 122.085297 115.498901 122.178299 115.3479 122.251297 C 115.477898 122.129303 115.582901 121.997299 115.703903 121.871292 M 106.968903 125.803299 C 106.557899 125.096298 105.755898 124.711304 104.9459 124.8293 C 104.047897 124.963303 103.197899 125.178299 102.332901 125.407303 C 101.4729 125.6353 100.698898 125.832306 99.891899 125.939301 C 99.656898 125.976303 99.426895 125.987305 99.134895 125.993301 L 99.027901 126.000305 C 98.368896 125.9953 97.797897 125.873306 97.234901 125.615295 C 96.339897 125.205292 95.510895 124.772293 94.744896 124.320297 C 94.686897 123.945297 94.526901 123.585297 94.256897 123.285294 C 91.189896 119.888306 89.815895 114.793304 91.022896 111.599304 L 104.235901 103.846298 C 105.219902 103.880295 106.196899 104.007294 107.150902 104.225296 C 108.589897 104.554306 109.9879 104.991302 111.525902 105.594299 C 113.352898 107.140305 114.800903 109.162292 115.634903 111.335297 L 116.2939 116.456299 C 116.137901 117.4543 115.800903 118.378296 115.288902 119.205292 C 114.784897 120.017303 114.933899 121.056305 115.602898 121.699295 C 113.5019 123.539291 110.811897 124.507294 108.0009 125.496307 C 107.662903 125.615295 107.325897 125.736298 106.989899 125.856293 C 106.980896 125.840302 106.978897 125.820297 106.968903 125.803299 M 115.896896 100.121292 C 115.824898 99.959305 115.753899 99.797302 115.682899 99.633301 L 116.249901 99.428299 Z M 120.2379 110.171295 C 119.814903 108.394302 119.135902 106.177292 118.133904 104.540298 L 119.249901 102.352295 C 119.5839 103.526306 119.922897 104.685303 120.258904 105.831299 C 121.7239 110.832306 123.226898 115.960297 123.905899 121.333298 L 121.069901 118.719299 C 121.0979 118.640305 121.1259 118.560303 121.151901 118.479294 C 121.831902 116.428299 121.549896 113.863297 120.2379 110.171295 M 113.296898 89.491302 C 113.380898 89.338303 113.595901 88.969299 114.314903 88.673294 C 115.512901 90.694305 116.651901 92.692307 117.698898 94.651306 L 114.170898 95.927292 C 113.162903 93.1763 112.610901 90.744308 113.296898 89.491302 M 81.142899 137.927307 C 80.670898 137.927307 79.401901 138.071289 78.728897 139.517303 C 78.462898 137.612305 78.100899 135.434296 77.634895 132.938293 C 78.008896 133.674301 78.426895 134.364304 78.8899 135.008301 C 79.630898 136.017303 81.164894 136.266296 82.2089 135.4673 C 83.199898 134.691299 83.4039 133.275299 82.665901 132.231293 C 79.836899 128.303299 79.202896 121.687302 80.926895 114.081299 C 83.207901 104.015305 89.252899 94.422302 95.299896 91.272308 C 96.648895 90.569305 98.4319 90.305298 100.166901 90.049301 C 102.166901 89.755295 104.433899 89.422302 106.465897 88.363297 C 106.8349 88.172302 107.202896 87.970306 107.571899 87.769302 C 107.571899 87.769302 107.688896 87.705307 107.689903 87.705307 C 108.7509 87.124298 109.774902 86.563293 110.795898 86.244308 C 110.396896 86.631302 110.060898 87.073303 109.788902 87.570297 C 108.407898 90.093307 109.016899 93.486298 110.402901 97.289291 L 105.063896 99.220306 C 97.671898 98.758301 88.359901 102.8293 85.196899 110.654297 C 82.282898 117.864304 86.257896 124.990295 95.5709 129.253296 C 96.669899 129.756302 97.813896 130.000305 99.066895 130.000305 C 99.1269 130.000305 99.185898 129.997299 99.247894 129.993301 C 99.666901 129.99231 100.089897 129.958298 100.465897 129.897308 C 101.031898 129.823303 101.5839 129.713303 102.130898 129.585297 C 102.045898 130.070297 101.974899 130.559296 101.9039 131.046295 C 101.7379 132.192291 101.566895 133.378296 101.227898 134.059296 C 99.580894 137.378296 98.921898 140.65329 99.253899 143.845306 C 98.484901 144.841309 97.652901 146.2603 96.713898 147.864304 C 95.716896 149.564301 93.947899 152.583298 92.921898 153.489304 C 92.786896 153.383301 92.6409 153.295303 92.4869 153.228302 C 92.412895 153.0513 92.312897 152.883301 92.186897 152.730301 C 90.983894 151.269302 89.813896 148.861298 88.680901 146.532303 C 86.436897 141.915298 84.497894 137.927307 81.142899 137.927307 M 84.672897 164.283295 C 82.034897 161.139297 78.935898 157.705292 75.162895 153.853302 C 75.152901 153.8423 75.142899 153.833298 75.132896 153.823303 C 75.1819 153.816299 75.230896 153.808304 75.2799 153.799301 C 76.506897 153.564301 77.561897 152.8013 78.2509 151.650299 C 78.571899 151.112305 78.814896 150.481293 78.9879 149.7323 C 79.1819 149.399292 79.294899 149.017303 79.307899 148.61731 C 79.976898 151.481293 80.948898 154.83429 82.127899 158.3013 C 82.142899 158.344299 82.158897 158.387299 82.175896 158.428299 C 82.186897 158.466309 82.197899 158.50531 82.210899 158.543304 C 82.673897 159.895294 83.148895 161.19931 83.620895 162.418304 C 83.655899 162.508301 83.696899 162.595306 83.744896 162.679291 C 84.045898 163.211304 84.355896 163.746307 84.672897 164.283295 M 83.257896 147.935303 C 83.356895 148.141296 83.455894 148.348297 83.553902 148.554291 C 84.2229 149.955292 84.906898 151.3853 85.719894 152.6763 C 85.3909 152.902298 85.067902 153.144302 84.753899 153.408295 C 84.162895 151.466309 83.6549 149.608307 83.257896 147.935303 M 90.596901 166.237305 C 89.416901 164.427307 88.3069 162.611298 87.296898 160.836304 C 87.030899 160.144302 86.763901 159.424301 86.497894 158.683289 C 86.504898 158.668304 86.511894 158.652298 86.519897 158.636292 C 86.993896 157.578308 87.804901 156.865295 88.991898 156.171295 C 89.620895 156.567291 90.280899 156.852295 90.961899 157.0233 C 90.9739 157.026306 90.985901 157.030304 90.997894 157.033295 C 91.171898 157.146301 91.346901 157.248291 91.524895 157.339294 C 93.672897 158.424301 95.525894 156.920303 97.317902 154.438293 C 97.6679 154.440308 98.020897 154.435303 98.3759 154.430298 L 98.478897 154.429291 C 99.383896 154.41629 100.313896 154.404297 101.103897 154.494293 L 101.164894 154.726303 C 102.689896 160.529297 104.4179 167.105301 102.436897 169.678299 C 102.179901 170.012299 101.400894 171.026306 98.460899 171.026306 C 97.170898 171.026306 96.120895 172.068298 96.106895 173.354309 C 93.716896 172.735291 91.0439 171.128296 91.0439 168.513306 C 91.0439 168.303299 91.009895 168.09729 90.947899 167.90329 C 91.0439 167.325302 90.921898 166.739304 90.596901 166.237305 M 105.089897 148.794312 C 104.912903 148.494293 104.666901 148.25531 104.381897 148.088303 C 104.317902 147.783295 104.258904 147.483307 104.205902 147.188293 C 104.180901 147.053299 104.141899 146.921295 104.088898 146.793304 C 102.655899 143.287292 102.891899 139.703308 104.810898 135.838303 C 105.432899 134.58429 105.651901 133.076294 105.8629 131.619293 C 106.059898 130.258301 106.282898 128.7173 106.812897 128.043304 C 107.159897 127.600296 107.281898 127.043304 107.199898 126.507294 C 107.554901 126.380295 107.909897 126.253296 108.2649 126.128296 C 111.0009 125.165298 113.788902 124.159302 116.005898 122.265305 C 116.024902 122.283295 116.037903 122.304306 116.0569 122.321304 C 116.831902 123.040298 118.030899 123.033295 118.796898 122.302292 C 118.838898 122.262299 118.880898 122.221298 118.922897 122.180298 L 124.280899 127.119293 C 124.316902 128.430298 125.4589 129.49231 126.761902 129.406311 L 133.047897 135.200302 C 128.839905 143.533295 122.1119 152.267303 116.377899 159.560303 C 111.8479 156.383301 107.512901 152.883301 105.089897 148.794312 M 107.105896 157.343292 C 109.189903 159.265289 111.520897 161.037292 113.897903 162.711304 C 112.216896 164.846298 110.607903 166.901306 109.110901 168.872299 C 109.311897 165.368301 108.216896 161.319305 107.105896 157.343292 M 145.576904 134.911301 C 144.770905 134.970306 144.078903 135.5103 143.824905 136.279297 C 143.570908 137.048309 143.8069 137.892303 144.419907 138.421295 C 146.406906 140.132294 148.285904 142.688293 145.397903 151.419312 C 144.743896 153.392303 137.635895 161.883301 132.877899 164.263306 C 131.672897 164.86731 131.225906 164.758301 131.221893 164.757294 C 129.4729 163.876297 127.449898 163.7883 125.493896 163.702301 C 123.911903 163.633301 122.276901 163.562302 121.475899 163.024292 L 120.546898 162.402298 C 120.457901 162.3423 120.363899 162.279297 120.273903 162.218292 C 126.313896 154.532303 133.402893 145.290298 137.739899 136.327301 C 137.937897 135.915298 138.009903 135.464294 137.953903 135.021301 L 138.251907 134.361298 C 138.339905 134.421295 138.427902 134.481293 138.517899 134.54129 C 139.314896 135.072296 140.369904 134.9673 141.044907 134.293304 C 141.719894 133.61731 141.822906 132.559296 141.291901 131.765289 C 141.109894 131.496307 140.919907 131.237305 140.7229 130.999298 C 140.5289 130.764297 140.283905 130.577301 140.006897 130.452301 C 139.747894 130.335297 139.494904 130.201294 139.248901 130.0513 C 139.219894 129.649292 139.068893 129.252289 138.7939 128.920303 C 138.267899 128.283295 137.940903 127.624298 137.940903 126.310303 C 137.940903 125.054306 137.474899 123.713303 136.980896 122.294296 C 136.3069 120.356293 135.542892 118.159302 136.245895 116.700302 C 136.545898 116.078293 136.859894 115.492294 137.208908 114.907303 C 137.275894 114.796295 137.329895 114.678299 137.372894 114.558304 C 137.4599 114.4673 137.538895 114.368301 137.609894 114.261292 C 138.207901 113.339294 138.852905 112.529297 139.532898 111.845306 L 154.900894 114.218292 C 154.9039 114.221298 154.906906 114.224304 154.908905 114.228302 C 155.303894 114.688293 155.863907 114.928299 156.430893 114.928299 C 156.443893 114.928299 156.457901 114.928299 156.470901 114.927292 L 156.569901 115.7733 L 153.026901 124.431305 C 152.788895 124.984299 152.771896 125.596298 152.981903 126.1633 C 153.196899 126.747299 153.646896 127.228302 154.2229 127.488297 C 155.108902 127.884293 156.042908 128.287292 157.040894 128.706299 C 154.344894 132.429291 149.482895 134.622299 145.576904 134.911301 M 154.098907 146.977295 C 155.085907 145.387299 156.099899 143.815308 157.004898 142.45929 C 157.047897 142.996307 157.090897 143.557297 157.135895 144.139297 C 157.268906 145.8573 157.388901 147.349304 157.507904 148.6483 C 156.410904 148.063293 155.284897 147.511292 154.098907 146.977295 M 157.557907 154.08429 C 157.780899 154.22229 158.024902 154.322296 158.277893 154.379303 C 158.692902 156.151306 159.239899 156.933289 160.127899 157.378296 C 160.349899 157.490295 160.585907 157.582306 160.837906 157.652298 C 161.083893 157.975311 161.408905 158.237305 161.7939 158.418304 C 162.284897 158.6483 162.837906 158.743301 163.494904 158.701294 C 163.808899 159.693298 164.274902 160.705292 164.830902 161.600311 C 160.652893 165.638306 154.423904 171.350311 151.419907 169.089294 C 151.002899 168.782303 150.514908 168.634308 150.029907 168.634308 C 149.499893 168.634308 148.9729 168.812302 148.545898 169.154297 C 148.101898 168.379303 147.663895 166.855301 148.024902 163.961304 C 148.482895 163.692291 148.853897 163.269302 149.047897 162.7323 C 149.695908 160.938293 149.784897 159.024292 149.8629 157.33429 C 149.874893 157.072296 149.887894 156.812302 149.901901 156.555298 C 150.496902 154.855301 151.210907 153.064301 152.032898 151.210297 C 154.010895 152.093292 155.800903 153.026306 157.557907 154.08429 M 174.905899 128.661301 C 174.910904 128.681305 174.914902 128.702301 174.919907 128.72229 C 174.801895 129.230301 174.835907 129.780304 175.052902 130.298309 C 175.073898 130.349304 175.0979 130.400299 175.122894 130.44931 C 175.057907 130.427307 174.992905 130.405304 174.927902 130.383301 C 173.160904 129.7733 171.287903 129.127289 169.348907 128.43631 L 174.858902 128.070297 C 174.854904 128.265289 174.864899 128.462311 174.905899 128.661301 M 184.843903 101.318298 C 184.786896 101.377304 184.746902 101.450302 184.697906 101.517303 L 184.631897 101.313293 C 184.622894 101.284302 184.6129 101.256302 184.602905 101.227295 C 184.593903 101.205292 184.577896 101.188293 184.568893 101.166306 C 184.650894 101.191299 184.728897 101.229294 184.812897 101.244293 C 184.821899 101.269302 184.832901 101.294296 184.843903 101.318298 M 213.667892 142.66629 L 212.7939 141.351303 C 211.555893 139.494293 210.485901 137.889297 208.738907 134.97229 C 201.958893 123.652298 195.735901 111.132294 189.718903 99.024292 C 187.877899 95.320297 186.072906 91.690308 184.303894 88.197296 C 182.220901 84.088303 179.280899 80.412308 175.567902 77.272308 C 175.351898 77.089294 175.096893 76.953308 174.822906 76.875305 L 108.545898 58.075302 C 108.1689 57.970306 107.768898 57.975296 107.392899 58.094299 C 101.492897 59.972305 87.460899 69.460297 80.2089 83.864304 C 76.489899 91.248306 71.499901 97.025299 65.180901 104.339294 C 64.3489 105.302292 63.4939 106.292297 62.614902 107.316299 C 56.417904 114.540298 53.515903 121.244293 50.442905 128.343292 C 49.154903 131.320297 47.821903 134.3983 46.219898 137.524292 C 46.075901 137.806305 45.999905 138.119293 45.999905 138.43631 C 45.999905 139.3573 45.999905 140.310303 54.3559 149.196289 C 58.582905 153.692291 64.031898 159.215302 68.600899 163.6353 C 78.844894 176.601303 86.776901 187.091309 92.186897 196.119293 C 92.448898 196.555298 92.867897 196.877304 93.357895 197.015305 C 95.156898 197.5233 98.461899 197.263306 104.150902 196.759308 C 110.578903 196.191299 119.384903 195.410309 122.874901 196.925293 C 123.096901 197.021301 123.3349 197.077301 123.575897 197.089294 C 134.898895 197.629303 149.079895 199.310303 155.236893 201.848297 C 155.483902 201.951294 155.742905 202.000305 155.999893 202.000305 C 156.524902 202.000305 157.040894 201.793304 157.423904 201.404297 C 160.867905 197.9133 162.954895 195.427307 164.973907 193.024292 C 167.126907 190.461304 169.160904 188.039307 172.695908 184.596298 C 177.381897 180.035309 182.9729 174.855301 188.378906 169.845306 C 198.983902 160.020294 208.999893 150.740295 213.563904 145.016296 C 214.104904 144.338303 214.146896 143.388306 213.667892 142.66629"/>
    <path id="path2" fill="#ffffff" stroke="none" d="M 212 44 L 208 44 L 48 44 L 44 44 L 44 48 L 44 208 L 44 212 L 48 212 L 208 212 L 212 212 L 212 208 L 212 48 Z M 208 208 L 48 208 L 48 48 L 208 48 Z"/>
</svg>
