<?xml version="1.0" encoding="UTF-8"?>
<!-- Generated by Pixelmator Pro 3.7.1 -->
<svg width="256" height="256" viewBox="0 0 256 256" xmlns="http://www.w3.org/2000/svg">
    <path id="Path" fill="#ffffff" stroke="none" d="M 211.5 244 L 211.5 236 L 211.5 232 L 207.5 232 L 192.5 232 L 188.5 232 L 188.5 236 L 188.5 244 L 68 244 L 68 236 L 68 232 L 64 232 L 48 232 L 44 232 L 44 236 L 44 244 L 20 244 L 20 211.162003 C 21.158997 211.701004 22.481995 212 23.865005 212 C 28.307007 212 31.761993 209.093994 31.761993 205.384995 L 31.761993 170 L 35.942993 170 L 36 170 L 40 170 L 40 166 L 40 124 L 40 120 L 36 120 L 35.942993 120 L 32.087006 120 C 36.524002 120 40 117.018997 40 113.212997 L 40 56 L 65.522995 56 C 69.093994 56 72 53.093994 72 49.522995 C 72 53.093994 74.906006 56 78.477005 56 L 97.523003 56 C 101.094002 56 104 53.093994 104 49.522995 C 104 53.093994 106.905998 56 110.476997 56 L 145.52301 56 C 149.095001 56 152 53.093994 152 49.522995 C 152 53.093994 154.904999 56 158.477005 56 L 177.522995 56 C 181.095001 56 184 53.093994 184 49.522995 C 184 53.093994 186.904999 56 190.477005 56 L 216 56 L 216 113.212997 C 216 117.018997 219.475998 120 223.912994 120 L 220.057999 120 L 220 120 L 216 120 L 216 124 L 216 166 L 216 170 L 220 170 L 220.057999 170 L 224.238007 170 L 224.238007 205.384995 C 224.238007 209.093994 227.692993 212 232.104004 212 C 233.505997 212 234.837006 211.701004 236 211.160995 L 236 244 Z M 192.5 236 L 207.5 236 L 207.5 244 L 192.5 244 Z M 48 236 L 64 236 L 64 244 L 48 244 Z M 68 46.477005 L 68 49.522995 C 68 50.891006 66.891006 52 65.522995 52 L 40 52 L 36 52 L 36 46.477005 C 36 45.108994 37.108994 44 38.477005 44 L 65.522995 44 C 66.891006 44 68 45.108994 68 46.477005 M 28.175003 116 L 23.912994 116 C 21.751999 116 20 114.751999 20 113.212997 L 20 110.182007 C 20 108.643005 21.751999 107.395996 23.912994 107.395996 L 28.175003 107.395996 L 28.175003 56 L 32 56 L 36 56 L 36 113.212997 C 36 114.751999 34.248001 116 32.087006 116 Z M 20.455002 159.897003 C 20.468994 158.459991 22.195999 157.300003 24.320007 157.300003 L 28.212006 157.300003 L 28.212006 132.699997 L 24.347 132.699997 C 22.212006 132.699997 20.481003 131.528992 20.481003 130.084991 L 20.481003 126.61499 C 20.481003 125.17099 22.212006 124 24.347 124 L 28.212006 124 L 35.942993 124 L 36 124 L 36 166 L 35.942993 166 L 28.212006 166 L 27.761993 166 L 27.761993 205.384995 C 27.761993 206.828995 26.031006 208 23.895996 208 L 23.865005 208 C 21.720001 208 19.985001 206.817993 20 205.367004 Z M 20 135.623001 C 21.203995 136.283997 22.643997 136.678009 24.212006 136.699005 L 24.212006 153.300995 C 22.647003 153.317001 21.207001 153.708008 20 154.367004 Z M 20 119.13501 C 21.147995 119.684998 22.479004 120 23.912994 120 L 24.347 120 C 22.727005 120 21.238007 120.394989 20 121.074005 Z M 100 46.477005 L 100 49.522995 C 100 50.891006 98.890999 52 97.523003 52 L 78.477005 52 C 77.108994 52 76 50.891006 76 49.522995 L 76 46.477005 C 76 45.108994 77.108994 44 78.477005 44 L 97.523003 44 C 98.890999 44 100 45.108994 100 46.477005 M 148 46.477005 L 148 49.522995 C 148 50.891006 146.890991 52 145.52301 52 L 110.476997 52 C 109.109001 52 108 50.891006 108 49.522995 L 108 46.477005 C 108 45.108994 109.109001 44 110.476997 44 L 145.52301 44 C 146.890991 44 148 45.108994 148 46.477005 M 180 46.477005 L 180 49.522995 C 180 50.891006 178.890991 52 177.522995 52 L 158.477005 52 C 157.109009 52 156 50.891006 156 49.522995 L 156 46.477005 C 156 45.108994 157.109009 44 158.477005 44 L 177.522995 44 C 178.890991 44 180 45.108994 180 46.477005 M 220 52 L 216 52 L 190.477005 52 C 189.108994 52 188 50.891006 188 49.522995 L 188 46.477005 C 188 45.108994 189.108994 44 190.477005 44 L 217.522995 44 C 218.891006 44 220 45.108994 220 46.477005 Z M 236 113.212997 C 236 114.751999 234.248001 116 232.087006 116 L 227.824997 116 L 223.912994 116 C 221.751999 116 220 114.751999 220 113.212997 L 220 56 L 224 56 L 227.824997 56 L 227.824997 107.395996 L 232.087006 107.395996 C 234.248001 107.395996 236 108.643005 236 110.182007 Z M 236 121.074005 C 234.761993 120.394989 233.272995 120 231.653 120 L 232.087006 120 C 233.520996 120 234.852005 119.684998 236 119.13501 Z M 231.787994 153.300995 L 231.787994 136.699005 C 233.356003 136.678009 234.796005 136.283997 236 135.623001 L 236 154.367004 C 234.792999 153.708008 233.352997 153.317001 231.787994 153.300995 M 227.787994 166 L 220.057999 166 L 220 166 L 220 124 L 220.057999 124 L 227.787994 124 L 231.653 124 C 233.787994 124 235.518997 125.17099 235.518997 126.61499 L 235.518997 130.084991 C 235.518997 131.528992 233.787994 132.699997 231.653 132.699997 L 227.787994 132.699997 L 227.787994 157.300003 L 231.679993 157.300003 C 233.804993 157.300003 235.529999 158.459991 235.544998 159.897003 L 236 205.367004 C 236.014999 206.817993 234.278992 208 232.134995 208 L 232.104004 208 C 229.968994 208 228.238007 206.828995 228.238007 205.384995 L 228.238007 166 Z M 20 40 L 20 38.220001 L 35.940002 12 L 220.164001 12 L 236 38.220001 L 236 40 L 236 46.347 L 236 104.259995 C 234.852005 103.710007 233.520996 103.395996 232.087006 103.395996 L 231.824997 103.395996 L 231.824997 56 L 231.824997 52 L 227.824997 52 L 224 52 L 224 46.477005 C 224 42.906006 221.095001 40 217.522995 40 L 190.477005 40 C 186.904999 40 184 42.906006 184 46.477005 C 184 42.906006 181.095001 40 177.522995 40 L 158.477005 40 C 154.904999 40 152 42.906006 152 46.477005 C 152 42.906006 149.095001 40 145.52301 40 L 110.476997 40 C 106.905998 40 104 42.906006 104 46.477005 C 104 42.906006 101.094002 40 97.523003 40 L 78.477005 40 C 74.906006 40 72 42.906006 72 46.477005 C 72 42.906006 69.093994 40 65.522995 40 L 38.477005 40 C 34.906006 40 32 42.906006 32 46.477005 L 32 52 L 28.175003 52 L 24.175003 52 L 24.175003 56 L 24.175003 103.395996 L 23.912994 103.395996 C 22.479004 103.395996 21.147995 103.710007 20 104.259995 L 20 46.347 Z M 239.423996 36.151993 L 223.587997 9.932007 L 222.421005 8 L 220.164001 8 L 35.940002 8 L 33.690994 8 L 32.522003 9.921997 L 16.582001 36.141998 L 16 37.100006 L 16 38.220001 L 16 40 L 16 46.347 L 16 110.182007 L 16 113.212997 L 16 244 L 16 248 L 20 248 L 44 248 L 48 248 L 64 248 L 68 248 L 188.5 248 L 192.5 248 L 207.5 248 L 211.5 248 L 236 248 L 240 248 L 240 244 L 240 113.212997 L 240 110.182007 L 240 46.347 L 240 40 L 240 38.220001 L 240 37.106003 Z"/>
    <path id="path1" fill="#ffffff" stroke="none" d="M 208 192.320297 L 47.807999 192.320297 L 48 64.00029 L 208 64.00029 Z M 48 60.00029 L 44.005997 60.00029 L 44 63.994293 L 43.807999 192.314301 L 43.802002 196.320297 L 47.807999 196.320297 L 208 196.320297 L 212 196.320297 L 212 192.320297 L 212 64.00029 L 212 60.00029 L 208 60.00029 Z"/>
    <path id="path2" fill="#ffffff" stroke="none" d="M 140 212 L 140 220 L 140 226 C 140 227.104004 139.104004 228 138 228 L 134 228 L 122 228 L 118 228 C 116.895996 228 116 227.104004 116 226 L 116 220 L 116 212 L 116 206 C 116 204.895996 116.895996 204 118 204 L 122 204 L 134 204 L 138 204 C 139.104004 204 140 204.895996 140 206 Z M 138 200 L 134 200 L 122 200 L 118 200 C 114.691002 200 112 202.69101 112 206 L 112 212 L 112 220 L 112 226 C 112 229.309006 114.691002 232 118 232 L 122 232 L 134 232 L 138 232 C 141.309006 232 144 229.309006 144 226 L 144 220 L 144 212 L 144 206 C 144 202.69101 141.309006 200 138 200"/>
    <path id="path3" fill="#ffffff" stroke="none" d="M 100 218 C 100 219.104004 99.103996 220 98 220 L 96 220 L 94 220 C 92.895996 220 92 219.104004 92 218 L 92 212 L 90 212 C 88.895996 212 88 211.104004 88 210 L 88 204 L 92 204 L 96 204 L 100 204 Z M 96 200 L 92 200 L 88 200 L 84 200 L 84 204 L 84 210 C 84 212.606995 85.671997 214.832001 88 215.656998 L 88 218 C 88 221.30899 90.691002 224 94 224 L 96 224 L 98 224 C 101.308998 224 104 221.30899 104 218 L 104 204 L 104 200 L 100 200 Z"/>
    <path id="path4" fill="#ffffff" stroke="none" d="M 72 218 C 72 219.104004 71.103996 220 70 220 L 68 220 L 66 220 C 64.895996 220 64 219.104004 64 218 L 64 212 L 62 212 C 60.896 212 60 211.104004 60 210 L 60 204 L 64 204 L 68 204 L 72 204 Z M 68 200 L 64 200 L 60 200 L 56 200 L 56 204 L 56 210 C 56 212.606995 57.672001 214.832001 60 215.656998 L 60 218 C 60 221.30899 62.691002 224 66 224 L 68 224 L 70 224 C 73.308998 224 76 221.30899 76 218 L 76 204 L 76 200 L 72 200 Z"/>
    <path id="path5" fill="#ffffff" stroke="none" d="M 168 210 C 168 211.104004 167.104004 212 166 212 L 164 212 L 164 218 C 164 219.104004 163.104004 220 162 220 L 160 220 L 158 220 C 156.895996 220 156 219.104004 156 218 L 156 204 L 160 204 L 164 204 L 168 204 Z M 164 200 L 160 200 L 156 200 L 152 200 L 152 204 L 152 218 C 152 221.30899 154.690994 224 158 224 L 160 224 L 162 224 C 165.309006 224 168 221.30899 168 218 L 168 215.656998 C 170.328003 214.832001 172 212.606995 172 210 L 172 204 L 172 200 L 168 200 Z"/>
    <path id="path6" fill="#ffffff" stroke="none" d="M 196 210 C 196 211.104004 195.104004 212 194 212 L 192 212 L 192 218 C 192 219.104004 191.104004 220 190 220 L 188 220 L 186 220 C 184.895996 220 184 219.104004 184 218 L 184 204 L 188 204 L 192 204 L 196 204 Z M 192 200 L 188 200 L 184 200 L 180 200 L 180 204 L 180 218 C 180 221.30899 182.690994 224 186 224 L 188 224 L 190 224 C 193.309006 224 196 221.30899 196 218 L 196 215.656998 C 198.328003 214.832001 200 212.606995 200 210 L 200 204 L 200 200 L 196 200 Z"/>
    <path id="path7" fill="#ffffff" stroke="none" d="M 76.362801 115.976593 C 78.2388 114.457596 79.843803 113.129593 79.930801 113.024597 C 80.054802 112.872604 80.081802 109.745605 80.055801 97.998596 L 80.024803 83.165604 L 76.4188 83.133606 L 72.812798 83.101593 L 72.812798 100.919601 C 72.812798 110.720596 72.843803 118.738602 72.882797 118.738602 C 72.920799 118.738602 74.486801 117.495605 76.362801 115.976593"/>
    <path id="path8" fill="#ffffff" stroke="none" d="M 72.847198 72 L 85.695198 72 L 88.252197 73.738998 L 90.809196 75.477997 L 90.8722 99.102997 L 90.935196 122.727005 L 91.850197 123.501007 L 92.765198 124.274994 L 92.4142 124.546997 C 90.4702 126.050995 61.127201 148.479004 60.871201 148.654999 C 60.779202 148.718994 60.714199 148.761993 60.680199 148.761993 C 60.5942 148.761993 60.7202 148.47699 61.153198 147.529999 L 61.777199 146.169006 L 61.777199 110.022003 L 61.777199 73.876007 L 60.889198 72.938004 L 60.000198 72 Z M 95.509201 73.856003 L 97.763199 72.365997 L 108.7192 72.365997 L 119.675201 72.365997 L 121.512199 73.921997 L 123.348198 75.477997 L 123.348198 98.481003 L 123.348198 121.484009 L 115.993202 127.341003 C 111.947197 130.563004 108.603203 133.210999 108.564201 133.225006 L 108.563202 133.225006 C 108.506203 133.225006 107.2612 132.296005 105.781197 131.149002 L 105.780197 131.149002 C 104.2882 129.994995 100.861198 127.347992 98.162201 125.266998 L 93.256203 121.484009 L 93.256203 98.415009 L 93.255203 75.347 Z M 125.917198 76.132996 L 126.007202 75.201004 L 127.811203 73.662003 L 129.616196 72.121994 L 140.542206 72.121994 L 151.468201 72.121994 L 153.777206 73.653 L 156.087204 75.184006 L 156.087204 87.167999 C 156.087204 93.759003 156.04921 104.143005 156.003204 110.242004 L 155.920197 121.332001 L 153.777206 122.988998 C 147.756195 127.645996 140.769196 133.016998 140.732208 133.016998 C 140.709198 133.016998 139.681198 132.212006 138.449203 131.229004 C 137.218201 130.247009 133.939194 127.636002 131.1642 125.425995 C 128.389206 123.216995 126.093201 121.367004 126.059204 121.315002 C 125.959198 121.158005 125.820198 77.132004 125.917198 76.132996 M 164.363205 72.121994 L 164.363205 72.121994 C 168.502197 72.121994 171.889206 72.143005 171.889206 72.167999 C 171.889206 72.194 172.428207 74.130005 173.087204 76.470001 C 173.746201 78.811005 174.604202 81.863998 174.995209 83.257004 C 175.385208 84.649002 175.734207 85.789001 175.77121 85.789001 C 175.808197 85.787994 176.157196 84.729996 176.546204 83.438995 C 176.935196 82.147003 177.862198 79.072998 178.606201 76.606003 L 179.960205 72.121994 L 187.979202 72.121994 L 196.000198 72.121994 L 194.416199 73.354004 L 192.832199 74.585007 L 192.832199 110.438004 C 192.832199 142.447998 192.853195 146.39801 193.028198 147.296997 C 193.267197 148.520996 193.860199 150.276001 194.360199 151.242004 C 194.563202 151.63501 194.710205 151.975006 194.685196 151.998993 C 194.684204 152 194.683197 152 194.681198 152 C 194.629196 152 194.17421 151.682999 193.642197 151.274994 C 192.509201 150.403992 186.5952 145.869003 182.892197 143.031006 L 180.4142 141.130997 L 181.168198 140.417999 L 181.922195 139.70401 L 181.922195 123.160004 C 181.922195 114.084991 181.889206 106.686996 181.849197 106.686005 L 181.849197 106.686996 C 181.810196 106.725006 181.648209 107.296997 181.490204 107.958008 C 181.332199 108.617996 180.6922 111.218002 180.068207 113.735001 C 179.443207 116.251999 178.440201 120.315002 177.838196 122.764999 C 177.236206 125.214996 176.395203 128.619995 175.969208 130.330994 L 175.194199 133.442993 L 174.9142 132.283005 C 174.760208 131.645996 173.393204 125.688004 171.878204 119.042999 C 168.140198 102.654999 168.239197 103.080994 168.14621 102.873993 C 168.14621 102.873001 168.145203 102.873001 168.145203 102.873001 C 168.100204 102.873001 168.04921 109.333008 168.031204 117.313995 L 168.000198 131.938004 L 167.530197 131.572998 C 166.430206 130.722992 156.898209 122.856003 156.867203 122.774002 C 156.848206 122.725006 157.228195 122.341995 157.714203 121.921997 L 158.5952 121.160004 L 158.5952 97.910004 L 158.5952 74.658997 L 157.717209 73.447006 C 157.234207 72.781006 156.839203 72.209 156.839203 72.177994 C 156.839203 72.147003 160.224197 72.121994 164.363205 72.121994 M 57.777199 75.468994 L 57.777199 110.022003 L 57.777199 145.29599 L 57.516201 145.863998 C 56.841198 147.341003 56.075199 149.014008 57.294201 150.912994 L 58.474201 152.751999 L 60.680199 152.761993 C 61.968201 152.761993 62.826199 152.166992 63.1502 151.942001 C 63.654202 151.593002 93.5382 128.725998 94.821198 127.742004 L 95.7202 128.434998 C 98.416199 130.514008 101.841202 133.158005 103.3312 134.313004 C 106.665199 136.893997 107.093201 137.225006 108.563202 137.225006 L 109.267197 137.225006 L 109.931198 136.983002 C 110.603203 136.746002 110.603203 136.746002 118.4842 130.471008 L 124.7882 125.451004 C 125.628197 126.130997 126.853203 127.106003 128.673203 128.556 C 131.446198 130.764999 134.723206 133.375 135.956207 134.356995 C 138.975204 136.764999 139.291199 137.016998 140.732208 137.016998 C 142.120209 137.016998 142.120209 137.016998 147.448196 132.919998 C 149.731201 131.165009 152.635208 128.927002 155.412201 126.781006 C 156.267197 127.507004 157.487198 128.514008 159.252197 129.971008 C 161.538208 131.856995 164.436203 134.237 165.081207 134.735992 L 165.550201 135.100006 L 171.982208 140.084 L 171.988205 137.20401 L 175.137207 150.230011 L 176.831207 143.425003 L 177.980209 144.306 L 180.459198 146.205002 C 184.160202 149.042999 190.073196 153.576996 191.207199 154.446991 C 192.292206 155.279999 193.228195 156 194.681198 156 L 196.3022 156 L 197.469208 154.872009 C 198.917206 153.464996 199.064209 151.625 197.912201 149.401001 C 197.624207 148.846008 197.157196 147.519989 196.968201 146.597992 C 196.843201 145.355011 196.832199 136.609009 196.832199 110.438004 L 196.832199 76.541992 L 196.872208 76.511002 L 198.4552 75.279007 L 207.659195 68.121994 L 196.005203 68.121994 L 196.000198 68.121994 L 187.979202 68.121994 L 179.960205 68.121994 L 176.988205 68.121994 L 176.131195 70.966003 L 175.907196 71.705994 C 175.831207 71.429993 175.785202 71.261002 175.770203 71.203995 L 175.7612 71.207001 C 175.467209 70.020996 174.502197 68.197006 171.353195 68.151001 C 170.963196 68.145004 170.3992 68.139999 169.703201 68.136002 C 168.333206 68.126999 166.4422 68.121994 164.363205 68.121994 C 162.282196 68.121994 160.390198 68.128006 159.019196 68.138 C 158.320206 68.143997 157.754196 68.149994 157.361206 68.156998 C 155.890198 68.182999 154.897202 68.597 154.227203 69.151001 L 153.679199 68.787994 L 152.67421 68.121994 L 151.468201 68.121994 L 140.542206 68.121994 L 129.616196 68.121994 L 128.142197 68.121994 L 127.020203 69.078995 L 125.215202 70.619003 L 124.5112 71.220001 L 124.097198 70.869995 L 122.2612 69.313995 L 121.142197 68.365997 L 119.675201 68.365997 L 108.7192 68.365997 L 97.763199 68.365997 L 96.560196 68.365997 L 95.556198 69.029007 L 93.3032 70.520004 L 91.949196 71.414993 L 90.501198 70.431 L 87.943199 68.692001 L 86.926201 68 L 85.695198 68 L 72.847198 68 L 60.000198 68 L 50.701199 68 L 57.096199 74.751007 Z"/>
    <path id="path9" fill="#ffffff" stroke="none" d="M 112.161598 118.976105 C 112.178596 118.976105 112.192596 110.963104 112.192596 101.1651 L 112.192596 83.349106 L 108.507599 83.349106 L 104.822601 83.349106 L 104.822601 83.349106 L 104.746597 83.623093 C 104.704597 83.774094 104.670601 90.4711 104.669601 98.505096 L 104.667603 113.111099 L 105.263603 113.603104 C 105.909599 114.136093 112.109596 118.966095 112.161598 118.976105"/>
    <path id="path10" fill="#ffffff" stroke="none" d="M 137.301804 118.654297 C 137.303802 118.654297 137.304794 118.654297 137.306793 118.652298 C 137.392807 118.589294 139.0858 117.281296 141.069794 115.748306 L 144.675797 112.959305 L 144.643799 98.062302 L 144.611801 83.165298 L 140.880798 83.133301 L 137.149796 83.101303 L 137.149796 100.934296 C 137.149796 115.003296 137.180801 118.654297 137.301804 118.654297"/>
</svg>
