<?xml version="1.0" encoding="UTF-8"?>
<!-- Generated by Pixelmator Pro 3.7.1 -->
<svg width="256" height="256" viewBox="0 0 256 256" xmlns="http://www.w3.org/2000/svg">
    <path id="Path" fill="#ffffff" stroke="none" d="M 244 238.727509 C 244 241.642502 241.643997 243.999496 238.727997 243.999496 L 224 243.999496 L 224 161.867493 C 224 156.425507 219.445007 151.999512 213.846008 151.999512 L 66.154007 151.999512 C 60.554993 151.999512 56 156.425507 56 161.867493 L 56 243.999496 L 33.091003 243.999496 L 12 217.636505 L 12 17.272491 C 12 14.356491 14.356995 11.999496 17.272003 11.999496 L 32 11.999496 L 32 122.2005 C 32 127.6035 36.222 131.999512 41.412003 131.999512 L 214.587997 131.999512 C 219.778 131.999512 224 127.6035 224 122.2005 L 224 11.999496 L 238.727997 11.999496 C 241.643997 11.999496 244 14.356491 244 17.272491 Z M 192 243.999496 L 192 171.272491 C 192 164.951508 187.927002 159.999512 182.727997 159.999512 L 77.272003 159.999512 C 72.072998 159.999512 68 164.951508 68 171.272491 L 68 243.999496 L 60 243.999496 L 60 161.867493 C 60 158.622498 62.751007 155.999512 66.154007 155.999512 L 213.846008 155.999512 C 217.248993 155.999512 220 158.622498 220 161.867493 L 220 243.999496 Z M 72 243.999496 L 72 171.272491 C 72 167.250504 74.356995 163.999512 77.272003 163.999512 L 182.727997 163.999512 C 185.643997 163.999512 188 167.250504 188 171.272491 L 188 243.999496 Z M 220 11.999496 L 220 122.2005 C 220 125.407501 217.580994 127.999496 214.587997 127.999496 L 41.412003 127.999496 C 38.419006 127.999496 36 125.407501 36 122.2005 L 36 11.999496 Z M 238.727997 7.999496 L 224 7.999496 L 220 7.999496 L 36 7.999496 L 32 7.999496 L 17.272003 7.999496 C 12.160004 7.999496 8 12.1595 8 17.272491 L 8 217.636505 L 8 219.039505 L 8.876007 220.134491 L 29.968002 246.498505 L 31.167999 247.999496 L 33.091003 247.999496 L 56 247.999496 L 60 247.999496 L 68 247.999496 L 72 247.999496 L 188 247.999496 L 192 247.999496 L 220 247.999496 L 224 247.999496 L 238.727997 247.999496 C 243.839996 247.999496 248 243.839508 248 238.727509 L 248 17.272491 C 248 12.1595 243.839996 7.999496 238.727997 7.999496"/>
    <path id="path1" fill="#ffffff" stroke="none" d="M 232 36 L 236 36 L 236 40 L 232 40 Z M 228 44 L 240 44 L 240 32 L 228 32 Z"/>
    <path id="path2" fill="#ffffff" stroke="none" d="M 88 176 L 116 176 L 116 232 L 88 232 Z M 84 236 L 120 236 L 120 172 L 84 172 Z"/>
    <path id="path3" fill="#ffffff" stroke="none" d="M 137.301804 74.654297 C 137.303802 74.654297 137.304794 74.654297 137.306793 74.652298 C 137.392807 74.589294 139.0858 73.281296 141.069794 71.748306 L 144.675797 68.959305 L 144.643799 54.062302 L 144.611801 39.165298 L 140.880798 39.133301 L 137.149796 39.101303 L 137.149796 56.934296 C 137.149796 71.003296 137.180801 74.654297 137.301804 74.654297"/>
    <path id="path4" fill="#ffffff" stroke="none" d="M 72.847198 28 L 85.695198 28 L 88.252197 29.738998 L 90.809196 31.477997 L 90.8722 55.102997 L 90.935196 78.727005 L 91.850197 79.501007 L 92.765198 80.274994 L 92.4142 80.546997 C 90.4702 82.050995 61.127201 104.477997 60.871201 104.654999 C 60.779202 104.718994 60.714199 104.761993 60.680199 104.761993 C 60.5942 104.761993 60.7202 104.47699 61.153198 103.529999 L 61.777199 102.167999 L 61.777199 66.022003 L 61.777199 29.876007 L 60.889198 28.938004 L 60.000198 28 Z M 95.509201 29.856003 L 97.763199 28.365997 L 108.7192 28.365997 L 119.675201 28.365997 L 121.512199 29.921997 L 123.348198 31.477997 L 123.348198 54.481003 L 123.348198 77.484009 L 115.993202 83.341003 C 111.947197 86.563004 108.603203 89.209991 108.564201 89.225006 L 108.563202 89.225006 C 108.506203 89.225006 107.2612 88.296005 105.781197 87.149994 L 105.780197 87.149994 C 104.2882 85.994995 100.861198 83.347992 98.162201 81.266998 L 93.256203 77.484009 L 93.256203 54.415009 L 93.255203 31.347 Z M 125.917198 32.132996 L 126.007202 31.201004 L 127.811203 29.662003 L 129.616196 28.121994 L 140.542206 28.121994 L 151.468201 28.121994 L 153.777206 29.653 L 156.087204 31.184006 L 156.087204 43.167999 C 156.087204 49.759003 156.04921 60.143005 156.003204 66.242004 L 155.920197 77.332001 L 153.777206 78.988998 C 147.756195 83.645996 140.769196 89.015991 140.732208 89.015991 C 140.709198 89.015991 139.681198 88.212006 138.449203 87.229004 C 137.218201 86.247009 133.939194 83.636002 131.1642 81.425995 C 128.389206 79.216995 126.093201 77.367004 126.059204 77.315002 C 125.959198 77.158005 125.820198 33.130997 125.917198 32.132996 M 164.363205 28.121994 L 164.363205 28.121994 C 168.502197 28.121994 171.889206 28.143005 171.889206 28.167999 C 171.889206 28.194 172.428207 30.130005 173.087204 32.470001 C 173.746201 34.811005 174.604202 37.863998 174.995209 39.257004 C 175.385208 40.649002 175.734207 41.789001 175.77121 41.789001 C 175.808197 41.787994 176.157196 40.729996 176.546204 39.438995 C 176.935196 38.147003 177.862198 35.072998 178.606201 32.606003 L 179.960205 28.121994 L 187.979202 28.121994 L 196.000198 28.121994 L 194.416199 29.354004 L 192.832199 30.585007 L 192.832199 66.438004 C 192.832199 98.447998 192.853195 102.39801 193.028198 103.296997 C 193.267197 104.519989 193.860199 106.276001 194.360199 107.242004 C 194.563202 107.634003 194.710205 107.975006 194.685196 107.998993 C 194.684204 108 194.683197 108 194.681198 108 C 194.629196 108 194.17421 107.682007 193.642197 107.274994 C 192.509201 106.403992 186.5952 101.869003 182.892197 99.031006 L 180.4142 97.130997 L 181.168198 96.416992 L 181.922195 95.70401 L 181.922195 79.160004 C 181.922195 70.084991 181.889206 62.686996 181.849197 62.686005 L 181.849197 62.686996 C 181.810196 62.725006 181.648209 63.296997 181.490204 63.958008 C 181.332199 64.617996 180.6922 67.218002 180.068207 69.735001 C 179.443207 72.251999 178.440201 76.315002 177.838196 78.764999 C 177.236206 81.214996 176.395203 84.619995 175.969208 86.330994 L 175.194199 89.442993 L 174.9142 88.283997 C 174.760208 87.645996 173.393204 81.688004 171.878204 75.042999 C 168.140198 58.654999 168.239197 59.080994 168.14621 58.873993 C 168.14621 58.873001 168.145203 58.873001 168.145203 58.873001 C 168.100204 58.873001 168.04921 65.333008 168.031204 73.313995 L 168.000198 87.938004 L 167.530197 87.574005 C 166.430206 86.722 156.898209 78.856003 156.867203 78.774002 C 156.848206 78.725006 157.228195 78.341995 157.714203 77.921997 L 158.5952 77.160004 L 158.5952 53.908997 L 158.5952 30.658997 L 157.717209 29.447006 C 157.234207 28.781006 156.839203 28.209 156.839203 28.177994 C 156.839203 28.147003 160.224197 28.121994 164.363205 28.121994 M 57.777199 31.468994 L 57.777199 66.022003 L 57.777199 101.29599 L 57.516201 101.863998 C 56.841198 103.339996 56.075199 105.013 57.294201 106.912994 L 58.474201 108.751999 L 60.680199 108.761993 C 61.968201 108.761993 62.826199 108.166992 63.1502 107.942993 C 63.655201 107.593002 93.535202 84.729004 94.822197 83.742004 L 95.7202 84.434998 C 98.416199 86.513 101.841202 89.158997 103.3312 90.313004 C 106.665199 92.893005 107.093201 93.225006 108.563202 93.225006 L 109.267197 93.225006 L 109.931198 92.983002 C 110.603203 92.746002 110.603203 92.746002 118.4842 86.471008 L 124.7882 81.451004 C 125.627197 82.130997 126.853203 83.106003 128.673203 84.556 C 131.446198 86.764008 134.723206 89.375 135.956207 90.356995 C 138.975204 92.764999 139.291199 93.015991 140.732208 93.015991 C 142.120209 93.015991 142.120209 93.015991 147.448196 88.919998 C 149.731201 87.165009 152.635208 84.927002 155.412201 82.781006 C 156.267197 83.507004 157.487198 84.514008 159.252197 85.971008 C 161.538208 87.856995 164.436203 90.237 165.081207 90.735992 L 165.550201 91.100006 L 171.982208 96.083008 L 171.988205 93.20401 L 175.137207 106.230011 L 176.831207 99.425003 L 177.980209 100.306 L 180.459198 102.205994 C 184.160202 105.042999 190.073196 109.576996 191.207199 110.447998 C 192.292206 111.281006 193.228195 112 194.681198 112 L 196.3022 112 L 197.469208 110.872009 C 198.917206 109.463989 199.064209 107.625 197.912201 105.401001 C 197.624207 104.846008 197.157196 103.518997 196.968201 102.597 C 196.843201 101.355011 196.832199 92.610001 196.832199 66.438004 L 196.832199 32.541992 L 196.872208 32.511002 L 198.4552 31.279007 L 207.659195 24.121994 L 196.000198 24.121994 L 187.979202 24.121994 L 179.960205 24.121994 L 176.988205 24.121994 L 176.131195 26.966003 L 175.907196 27.705994 C 175.831207 27.429993 175.785202 27.261002 175.770203 27.203995 L 175.7612 27.207001 C 175.467209 26.020996 174.502197 24.197006 171.353195 24.151001 C 170.963196 24.145004 170.3992 24.139999 169.703201 24.136002 C 168.333206 24.126999 166.4422 24.121994 164.363205 24.121994 C 162.283203 24.121994 160.390198 24.128006 159.019196 24.138 C 158.320206 24.143997 157.754196 24.149994 157.361206 24.156998 C 155.890198 24.182999 154.897202 24.597 154.227203 25.151001 L 153.679199 24.787994 L 152.67421 24.121994 L 151.468201 24.121994 L 140.542206 24.121994 L 129.616196 24.121994 L 128.142197 24.121994 L 127.020203 25.078995 L 125.215202 26.619003 L 124.5112 27.220001 L 124.097198 26.869995 L 122.2612 25.313995 L 121.142197 24.365997 L 119.675201 24.365997 L 108.7192 24.365997 L 97.763199 24.365997 L 96.560196 24.365997 L 95.556198 25.029007 L 93.3032 26.520004 L 91.949196 27.414993 L 90.501198 26.431 L 87.943199 24.692001 L 86.926201 24 L 85.695198 24 L 72.847198 24 L 60.000198 24 L 50.701199 24 L 57.096199 30.751007 Z"/>
    <path id="path5" fill="#ffffff" stroke="none" d="M 76.362801 71.976593 C 78.2388 70.457596 79.843803 69.129593 79.930801 69.024597 C 80.054802 68.872604 80.081802 65.745605 80.055801 53.998596 L 80.024803 39.165604 L 76.4188 39.133606 L 72.812798 39.101593 L 72.812798 56.919601 C 72.812798 66.720596 72.843803 74.738602 72.882797 74.738602 C 72.920799 74.738602 74.486801 73.495605 76.362801 71.976593"/>
    <path id="path6" fill="#ffffff" stroke="none" d="M 112.161598 74.976105 C 112.178596 74.976105 112.192596 66.963104 112.192596 57.1651 L 112.192596 39.349106 L 108.507599 39.349106 L 104.822601 39.349106 L 104.822601 39.349106 L 104.746597 39.623093 C 104.704597 39.774094 104.670601 46.4711 104.669601 54.505096 L 104.667603 69.111099 L 105.263603 69.603104 C 105.909599 70.136093 112.109596 74.966095 112.161598 74.976105"/>
</svg>
