<?xml version="1.0" encoding="UTF-8"?>
<!-- Generated by Pixelmator Pro 3.7.1 -->
<svg width="256" height="256" viewBox="0 0 256 256" xmlns="http://www.w3.org/2000/svg">
    <path id="Path" fill="#ffffff" stroke="none" d="M 56 128 L 52 128 L 52 152 L 56 152 Z"/>
    <path id="path1" fill="#ffffff" stroke="none" d="M 64 128 L 60 128 L 60 152 L 64 152 Z"/>
    <path id="path2" fill="#ffffff" stroke="none" d="M 72 128 L 68 128 L 68 152 L 72 152 Z"/>
    <path id="path3" fill="#ffffff" stroke="none" d="M 80 128 L 76 128 L 76 152 L 80 152 Z"/>
    <path id="path4" fill="#ffffff" stroke="none" d="M 88 128 L 84 128 L 84 152 L 88 152 Z"/>
    <path id="path5" fill="#ffffff" stroke="none" d="M 96 128 L 92 128 L 92 152 L 96 152 Z"/>
    <path id="path6" fill="#ffffff" stroke="none" d="M 104 128 L 100 128 L 100 152 L 104 152 Z"/>
    <path id="path7" fill="#ffffff" stroke="none" d="M 112 128 L 108 128 L 108 152 L 112 152 Z"/>
    <path id="path8" fill="#ffffff" stroke="none" d="M 120 128 L 116 128 L 116 152 L 120 152 Z"/>
    <path id="path9" fill="#ffffff" stroke="none" d="M 128 128 L 124 128 L 124 152 L 128 152 Z"/>
    <path id="path10" fill="#ffffff" stroke="none" d="M 136 128 L 132 128 L 132 152 L 136 152 Z"/>
    <path id="path11" fill="#ffffff" stroke="none" d="M 144 128 L 140 128 L 140 152 L 144 152 Z"/>
    <path id="path12" fill="#ffffff" stroke="none" d="M 152 128 L 148 128 L 148 152 L 152 152 Z"/>
    <path id="path13" fill="#ffffff" stroke="none" d="M 160 128 L 156 128 L 156 152 L 160 152 Z"/>
    <path id="path14" fill="#ffffff" stroke="none" d="M 168 128 L 164 128 L 164 152 L 168 152 Z"/>
    <path id="path15" fill="#ffffff" stroke="none" d="M 176 128 L 172 128 L 172 152 L 176 152 Z"/>
    <path id="path16" fill="#ffffff" stroke="none" d="M 184 128 L 180 128 L 180 152 L 184 152 Z"/>
    <path id="path17" fill="#ffffff" stroke="none" d="M 192 128 L 188 128 L 188 152 L 192 152 Z"/>
    <path id="path18" fill="#ffffff" stroke="none" d="M 200 128 L 196 128 L 196 152 L 200 152 Z"/>
    <path id="path19" fill="#ffffff" stroke="none" d="M 208 128 L 204 128 L 204 152 L 208 152 Z"/>
    <path id="path20" fill="#ffffff" stroke="none" d="M 244 196 L 12 196 L 12 36 L 44 36 L 44 156 L 40 156 L 40 160 L 40 184 C 40 188.411011 43.589005 192 48 192 L 212 192 C 216.410995 192 220 188.411011 220 184 L 220 160 L 220 156 L 216 156 L 216 36 L 244 36 Z M 244 220 L 240 220 L 240 216 L 240 212 C 240 207.589005 236.410995 204 232 204 L 228 204 L 168 204 L 164 204 L 104 204 L 100 204 C 95.589005 204 92 207.589005 92 212 L 92 216 L 92 220 L 84 220 L 84 212 L 80 212 L 80 220 L 76 220 L 76 212 L 72 212 L 72 220 L 68 220 L 68 212 L 64 212 L 64 220 L 60 220 L 60 212 L 56 212 L 56 220 L 52 220 L 52 212 L 48 212 L 48 220 L 44 220 L 44 212 L 40 212 L 40 220 L 36 220 L 36 212 L 32 212 L 32 220 L 28 220 L 28 212 L 24 212 L 24 220 L 12 220 L 12 200 L 244 200 Z M 104 208 L 164 208 L 164 212 L 104 212 Z M 168 208 L 228 208 L 228 212 L 168 212 Z M 96 220 L 96 216 L 96 212 C 96 209.791 97.791 208 100 208 L 100 212 L 100 216 L 104 216 L 164 216 L 168 216 L 228 216 L 232 216 L 232 212 L 232 208 C 234.209 208 236 209.791 236 212 L 236 216 L 236 220 Z M 216 160 L 216 184 C 216 186.209 214.209 188 212 188 L 48 188 C 45.791 188 44 186.209 44 184 L 44 160 L 48 160 L 212 160 Z M 212 156 L 48 156 L 48 28 L 212 28 Z M 244 32 L 216 32 L 216 28 L 216 24 L 212 24 L 48 24 L 44 24 L 44 28 L 44 32 L 12 32 L 8 32 L 8 36 L 8 220 L 8 224 L 12 224 L 92 224 L 96 224 L 236 224 L 240 224 L 244 224 L 248 224 L 248 220 L 248 36 L 248 32 Z"/>
</svg>
