<?xml version="1.0" encoding="UTF-8"?>
<!-- Generated by Pixelmator Pro 3.7.1 -->
<svg width="256" height="256" viewBox="0 0 256 256" xmlns="http://www.w3.org/2000/svg">
    <path id="Path" fill="#ffffff" stroke="none" d="M 244 192 L 12 192 L 12 64 L 16 64 L 16 184 L 16 188 L 20 188 L 76 188 L 80 188 L 80 184 L 80 64 L 176 64 L 176 184 L 176 188 L 180 188 L 236 188 L 240 188 L 240 184 L 240 64 L 244 64 Z M 20 64 L 76 64 L 76 184 L 20 184 Z M 180 64 L 236 64 L 236 184 L 180 184 Z M 244 60 L 240 60 L 236 60 L 180 60 L 176 60 L 80 60 L 76 60 L 20 60 L 16 60 L 12 60 L 8 60 L 8 64 L 8 192 L 8 196 L 12 196 L 244 196 L 248 196 L 248 192 L 248 64 L 248 60 Z"/>
    <path id="path1" fill="#ffffff" stroke="none" d="M 88 112 L 154.350006 112 C 154.126999 112.626999 154 113.298004 154 114 C 154 117.309006 156.69101 120 160 120 C 163.30899 120 166 117.309006 166 114 C 166 113.298004 165.873001 112.626999 165.649994 112 L 168 112 L 168 148 L 164 148 L 164 140 L 164 136 L 160 136 L 144 136 L 140 136 L 140 138.72699 C 138.533005 137.05899 136.390991 136 134 136 C 131.609009 136 129.466995 137.05899 128 138.72699 C 126.533005 137.05899 124.389999 136 122 136 C 119.610001 136 117.466995 137.05899 116 138.72699 C 114.533005 137.05899 112.389999 136 110 136 C 107.610001 136 105.466995 137.05899 104 138.72699 C 102.532997 137.05899 100.389999 136 98 136 C 93.588997 136 90 139.589005 90 144 C 90 145.458008 90.398003 146.820999 91.083 148 L 88 148 Z M 160 112 C 161.104004 112 162 112.895996 162 114 C 162 115.104004 161.104004 116 160 116 C 158.895996 116 158 115.104004 158 114 C 158 112.895996 158.895996 112 160 112 M 160 148 L 144 148 L 144 140 L 160 140 Z M 134 148 C 131.791 148 130 146.209 130 144 C 130 141.791 131.791 140 134 140 C 136.209 140 138 141.791 138 144 C 138 146.209 136.209 148 134 148 M 122 148 C 119.791 148 118 146.209 118 144 C 118 141.791 119.791 140 122 140 C 124.209 140 126 141.791 126 144 C 126 146.209 124.209 148 122 148 M 110 148 C 107.791 148 106 146.209 106 144 C 106 141.791 107.791 140 110 140 C 112.209 140 114 141.791 114 144 C 114 146.209 112.209 148 110 148 M 98 148 C 95.791 148 94 146.209 94 144 C 94 141.791 95.791 140 98 140 C 100.209 140 102 141.791 102 144 C 102 146.209 100.209 148 98 148 M 84 152 L 140 152 L 144 152 L 160 152 L 164 152 L 172 152 L 172 108 L 84 108 Z"/>
    <path id="path2" fill="#ffffff" stroke="none" d="M 84 184 L 88 184 L 88 164 L 84 164 Z"/>
    <path id="path3" fill="#ffffff" stroke="none" d="M 92 184 L 96 184 L 96 164 L 92 164 Z"/>
    <path id="path4" fill="#ffffff" stroke="none" d="M 100 184 L 104 184 L 104 164 L 100 164 Z"/>
    <path id="path5" fill="#ffffff" stroke="none" d="M 108 184 L 112 184 L 112 164 L 108 164 Z"/>
    <path id="path6" fill="#ffffff" stroke="none" d="M 116 184 L 120 184 L 120 164 L 116 164 Z"/>
    <path id="path7" fill="#ffffff" stroke="none" d="M 124 184 L 128 184 L 128 164 L 124 164 Z"/>
    <path id="path8" fill="#ffffff" stroke="none" d="M 132 184 L 136 184 L 136 164 L 132 164 Z"/>
    <path id="path9" fill="#ffffff" stroke="none" d="M 140 184 L 144 184 L 144 164 L 140 164 Z"/>
    <path id="path10" fill="#ffffff" stroke="none" d="M 148 184 L 152 184 L 152 164 L 148 164 Z"/>
    <path id="path11" fill="#ffffff" stroke="none" d="M 156 184 L 160 184 L 160 164 L 156 164 Z"/>
    <path id="path12" fill="#ffffff" stroke="none" d="M 164 184 L 168 184 L 168 164 L 164 164 Z"/>
    <path id="path13" fill="#ffffff" stroke="none" d="M 88 80 L 168 80 L 168 92 L 88 92 Z M 84 96 L 172 96 L 172 76 L 84 76 Z"/>
    <path id="path14" fill="#ffffff" stroke="none" d="M 68 80 L 28 80 L 28 72 L 68 72 Z M 68 92 L 68 104 L 68 116 L 68 128 L 68 136 L 60 136 L 48 136 L 36 136 L 28 136 L 28 128 L 28 116 L 28 104 L 28 92 L 28 84 L 36 84 L 48 84 L 60 84 L 68 84 Z M 28 68 L 24 68 L 24 72 L 24 80 L 24 84 L 24 140 L 72 140 L 72 84 L 72 80 L 72 72 L 72 68 L 68 68 Z"/>
    <path id="path15" fill="#ffffff" stroke="none" d="M 60 96 C 57.791 96 56 94.209 56 92 C 56 89.791 57.791 88 60 88 C 62.209 88 64 89.791 64 92 C 64 94.209 62.209 96 60 96 M 60 108 C 57.791 108 56 106.209 56 104 C 56 101.791 57.791 100 60 100 C 62.209 100 64 101.791 64 104 C 64 106.209 62.209 108 60 108 M 60 120 C 57.791 120 56 118.209 56 116 C 56 113.791 57.791 112 60 112 C 62.209 112 64 113.791 64 116 C 64 118.209 62.209 120 60 120 M 60 132 C 57.791 132 56 130.209 56 128 C 56 125.791 57.791 124 60 124 C 62.209 124 64 125.791 64 128 C 64 130.209 62.209 132 60 132 M 54 98.725998 C 53.772999 98.468994 53.530998 98.227005 53.274002 98 C 53.530998 97.772995 53.772999 97.531006 54 97.274002 C 54.227001 97.531006 54.469002 97.772995 54.725998 98 C 54.469002 98.227005 54.227001 98.468994 54 98.725998 M 54 110.725998 C 53.772999 110.468994 53.530998 110.227005 53.274002 110 C 53.530998 109.772995 53.772999 109.531006 54 109.274002 C 54.227001 109.531006 54.469002 109.772995 54.725998 110 C 54.469002 110.227005 54.227001 110.468994 54 110.725998 M 54 122.725998 C 53.772999 122.468994 53.530998 122.227005 53.274002 122 C 53.530998 121.772995 53.772999 121.531006 54 121.274002 C 54.227001 121.531006 54.469002 121.772995 54.725998 122 C 54.469002 122.227005 54.227001 122.468994 54 122.725998 M 48 96 C 45.791 96 44 94.209 44 92 C 44 89.791 45.791 88 48 88 C 50.209 88 52 89.791 52 92 C 52 94.209 50.209 96 48 96 M 48 108 C 45.791 108 44 106.209 44 104 C 44 101.791 45.791 100 48 100 C 50.209 100 52 101.791 52 104 C 52 106.209 50.209 108 48 108 M 48 120 C 45.791 120 44 118.209 44 116 C 44 113.791 45.791 112 48 112 C 50.209 112 52 113.791 52 116 C 52 118.209 50.209 120 48 120 M 48 132 C 45.791 132 44 130.209 44 128 C 44 125.791 45.791 124 48 124 C 50.209 124 52 125.791 52 128 C 52 130.209 50.209 132 48 132 M 42 98.725998 C 41.773003 98.468994 41.530998 98.227005 41.274002 98 C 41.530998 97.772995 41.773003 97.531006 42 97.274002 C 42.226997 97.531006 42.469002 97.772995 42.725998 98 C 42.469002 98.227005 42.226997 98.468994 42 98.725998 M 42 110.725998 C 41.773003 110.468994 41.530998 110.227005 41.274002 110 C 41.530998 109.772995 41.773003 109.531006 42 109.274002 C 42.226997 109.531006 42.469002 109.772995 42.725998 110 C 42.469002 110.227005 42.226997 110.468994 42 110.725998 M 42 122.725998 C 41.773003 122.468994 41.530998 122.227005 41.274002 122 C 41.530998 121.772995 41.773003 121.531006 42 121.274002 C 42.226997 121.531006 42.469002 121.772995 42.725998 122 C 42.469002 122.227005 42.226997 122.468994 42 122.725998 M 36 96 C 33.791 96 32 94.209 32 92 C 32 89.791 33.791 88 36 88 C 38.209 88 40 89.791 40 92 C 40 94.209 38.209 96 36 96 M 36 108 C 33.791 108 32 106.209 32 104 C 32 101.791 33.791 100 36 100 C 38.209 100 40 101.791 40 104 C 40 106.209 38.209 108 36 108 M 36 120 C 33.791 120 32 118.209 32 116 C 32 113.791 33.791 112 36 112 C 38.209 112 40 113.791 40 116 C 40 118.209 38.209 120 36 120 M 36 132 C 33.791 132 32 130.209 32 128 C 32 125.791 33.791 124 36 124 C 38.209 124 40 125.791 40 128 C 40 130.209 38.209 132 36 132 M 60 84 C 57.610001 84 55.466999 85.059006 54 86.725998 C 52.533001 85.059006 50.389999 84 48 84 C 45.610001 84 43.466999 85.059006 42 86.725998 C 40.533001 85.059006 38.389999 84 36 84 C 31.589001 84 28 87.589005 28 92 C 28 94.389999 29.059 96.533005 30.726 98 C 29.059 99.466995 28 101.610001 28 104 C 28 106.389999 29.059 108.533005 30.726 110 C 29.059 111.466995 28 113.610001 28 116 C 28 118.389999 29.059 120.533005 30.726 122 C 29.059 123.466995 28 125.610001 28 128 C 28 132.410995 31.589001 136 36 136 C 38.389999 136 40.533001 134.94101 42 133.272995 C 43.466999 134.94101 45.610001 136 48 136 C 50.389999 136 52.533001 134.94101 54 133.272995 C 55.466999 134.94101 57.610001 136 60 136 C 64.411003 136 68 132.410995 68 128 C 68 125.610001 66.941002 123.466995 65.274002 122 C 66.941002 120.533005 68 118.389999 68 116 C 68 113.610001 66.941002 111.466995 65.274002 110 C 66.941002 108.533005 68 106.389999 68 104 C 68 101.610001 66.941002 99.466995 65.274002 98 C 66.941002 96.533005 68 94.389999 68 92 C 68 87.589005 64.411003 84 60 84"/>
    <path id="path16" fill="#ffffff" stroke="none" d="M 48 176 C 41.382999 176 36 170.617004 36 164 C 36 157.382996 41.382999 152 48 152 C 54.617001 152 60 157.382996 60 164 C 60 170.617004 54.617001 176 48 176 M 48 148 C 39.164001 148 32 155.162994 32 164 C 32 172.837006 39.164001 180 48 180 C 56.835999 180 64 172.837006 64 164 C 64 155.162994 56.835999 148 48 148"/>
    <path id="path17" fill="#ffffff" stroke="none" d="M 48 166 C 46.896 166 46 165.104004 46 164 C 46 162.895996 46.896 162 48 162 C 49.104 162 50 162.895996 50 164 C 50 165.104004 49.104 166 48 166 M 48 160 C 45.791 160 44 161.791 44 164 C 44 166.209 45.791 168 48 168 C 50.209 168 52 166.209 52 164 C 52 161.791 50.209 160 48 160"/>
    <path id="path18" fill="#ffffff" stroke="none" d="M 228 80 L 188 80 L 188 72 L 228 72 Z M 228 92 L 228 104 L 228 116 L 228 128 L 228 136 L 220 136 L 208 136 L 196 136 L 188 136 L 188 128 L 188 116 L 188 104 L 188 92 L 188 84 L 196 84 L 208 84 L 220 84 L 228 84 Z M 188 68 L 184 68 L 184 72 L 184 80 L 184 84 L 184 140 L 232 140 L 232 84 L 232 80 L 232 72 L 232 68 L 228 68 Z"/>
    <path id="path19" fill="#ffffff" stroke="none" d="M 220 96 C 217.791 96 216 94.209 216 92 C 216 89.791 217.791 88 220 88 C 222.209 88 224 89.791 224 92 C 224 94.209 222.209 96 220 96 M 220 108 C 217.791 108 216 106.209 216 104 C 216 101.791 217.791 100 220 100 C 222.209 100 224 101.791 224 104 C 224 106.209 222.209 108 220 108 M 220 120 C 217.791 120 216 118.209 216 116 C 216 113.791 217.791 112 220 112 C 222.209 112 224 113.791 224 116 C 224 118.209 222.209 120 220 120 M 220 132 C 217.791 132 216 130.209 216 128 C 216 125.791 217.791 124 220 124 C 222.209 124 224 125.791 224 128 C 224 130.209 222.209 132 220 132 M 214 98.725998 C 213.772995 98.468994 213.531006 98.227005 213.272995 98 C 213.531006 97.772995 213.772995 97.531006 214 97.274002 C 214.227005 97.531006 214.468994 97.772995 214.727005 98 C 214.468994 98.227005 214.227005 98.468994 214 98.725998 M 214 110.725998 C 213.772995 110.468994 213.531006 110.227005 213.272995 110 C 213.531006 109.772995 213.772995 109.531006 214 109.274002 C 214.227005 109.531006 214.468994 109.772995 214.727005 110 C 214.468994 110.227005 214.227005 110.468994 214 110.725998 M 214 122.725998 C 213.772995 122.468994 213.531006 122.227005 213.272995 122 C 213.531006 121.772995 213.772995 121.531006 214 121.274002 C 214.227005 121.531006 214.468994 121.772995 214.727005 122 C 214.468994 122.227005 214.227005 122.468994 214 122.725998 M 208 96 C 205.791 96 204 94.209 204 92 C 204 89.791 205.791 88 208 88 C 210.209 88 212 89.791 212 92 C 212 94.209 210.209 96 208 96 M 208 108 C 205.791 108 204 106.209 204 104 C 204 101.791 205.791 100 208 100 C 210.209 100 212 101.791 212 104 C 212 106.209 210.209 108 208 108 M 208 120 C 205.791 120 204 118.209 204 116 C 204 113.791 205.791 112 208 112 C 210.209 112 212 113.791 212 116 C 212 118.209 210.209 120 208 120 M 208 132 C 205.791 132 204 130.209 204 128 C 204 125.791 205.791 124 208 124 C 210.209 124 212 125.791 212 128 C 212 130.209 210.209 132 208 132 M 202 98.725998 C 201.772995 98.468994 201.531006 98.227005 201.272995 98 C 201.531006 97.772995 201.772995 97.531006 202 97.274002 C 202.227005 97.531006 202.468994 97.772995 202.727005 98 C 202.468994 98.227005 202.227005 98.468994 202 98.725998 M 202 110.725998 C 201.772995 110.468994 201.531006 110.227005 201.272995 110 C 201.531006 109.772995 201.772995 109.531006 202 109.274002 C 202.227005 109.531006 202.468994 109.772995 202.727005 110 C 202.468994 110.227005 202.227005 110.468994 202 110.725998 M 202 122.725998 C 201.772995 122.468994 201.531006 122.227005 201.272995 122 C 201.531006 121.772995 201.772995 121.531006 202 121.274002 C 202.227005 121.531006 202.468994 121.772995 202.727005 122 C 202.468994 122.227005 202.227005 122.468994 202 122.725998 M 196 96 C 193.791 96 192 94.209 192 92 C 192 89.791 193.791 88 196 88 C 198.209 88 200 89.791 200 92 C 200 94.209 198.209 96 196 96 M 196 108 C 193.791 108 192 106.209 192 104 C 192 101.791 193.791 100 196 100 C 198.209 100 200 101.791 200 104 C 200 106.209 198.209 108 196 108 M 196 120 C 193.791 120 192 118.209 192 116 C 192 113.791 193.791 112 196 112 C 198.209 112 200 113.791 200 116 C 200 118.209 198.209 120 196 120 M 196 132 C 193.791 132 192 130.209 192 128 C 192 125.791 193.791 124 196 124 C 198.209 124 200 125.791 200 128 C 200 130.209 198.209 132 196 132 M 220 84 C 217.608994 84 215.466995 85.059006 214 86.725998 C 212.533005 85.059006 210.391006 84 208 84 C 205.608994 84 203.466995 85.059006 202 86.725998 C 200.533005 85.059006 198.391006 84 196 84 C 191.589005 84 188 87.589005 188 92 C 188 94.389999 189.059006 96.533005 190.727005 98 C 189.059006 99.466995 188 101.610001 188 104 C 188 106.389999 189.059006 108.533005 190.727005 110 C 189.059006 111.466995 188 113.610001 188 116 C 188 118.389999 189.059006 120.533005 190.727005 122 C 189.059006 123.466995 188 125.610001 188 128 C 188 132.410995 191.589005 136 196 136 C 198.391006 136 200.533005 134.94101 202 133.272995 C 203.466995 134.94101 205.608994 136 208 136 C 210.391006 136 212.533005 134.94101 214 133.272995 C 215.466995 134.94101 217.608994 136 220 136 C 224.410995 136 228 132.410995 228 128 C 228 125.610001 226.940994 123.466995 225.272995 122 C 226.940994 120.533005 228 118.389999 228 116 C 228 113.610001 226.940994 111.466995 225.272995 110 C 226.940994 108.533005 228 106.389999 228 104 C 228 101.610001 226.940994 99.466995 225.272995 98 C 226.940994 96.533005 228 94.389999 228 92 C 228 87.589005 224.410995 84 220 84"/>
    <path id="path20" fill="#ffffff" stroke="none" d="M 208 176 C 201.382996 176 196 170.617004 196 164 C 196 157.382996 201.382996 152 208 152 C 214.617004 152 220 157.382996 220 164 C 220 170.617004 214.617004 176 208 176 M 208 148 C 199.162994 148 192 155.162994 192 164 C 192 172.837006 199.162994 180 208 180 C 216.837006 180 224 172.837006 224 164 C 224 155.162994 216.837006 148 208 148"/>
    <path id="path21" fill="#ffffff" stroke="none" d="M 208 166 C 206.895996 166 206 165.104004 206 164 C 206 162.895996 206.895996 162 208 162 C 209.104004 162 210 162.895996 210 164 C 210 165.104004 209.104004 166 208 166 M 208 160 C 205.791 160 204 161.791 204 164 C 204 166.209 205.791 168 208 168 C 210.209 168 212 166.209 212 164 C 212 161.791 210.209 160 208 160"/>
</svg>
