<?xml version="1.0" encoding="UTF-8"?>
<!-- Generated by Pixelmator Pro 3.7.1 -->
<svg width="256" height="256" viewBox="0 0 256 256" xmlns="http://www.w3.org/2000/svg">
    <path id="Path" fill="#ffffff" stroke="none" d="M 240 208 L 16 208 L 16 68 L 28 68 L 32 68 L 36 68 L 220 68 L 224 68 L 228 68 L 240 68 Z M 220 64 L 36 64 L 36 48 L 220 48 Z M 228 64 L 228 48 L 224 48 L 224 44 L 32 44 L 32 48 L 28 48 L 28 64 L 12 64 L 12 212 L 244 212 L 244 64 Z"/>
    <path id="path1" fill="#ffffff" stroke="none" d="M 28 88 L 228 88 L 228 200 L 28 200 Z M 24 204 L 232 204 L 232 84 L 24 84 Z"/>
    <path id="path2" fill="#ffffff" stroke="none" d="M 220 168 L 36 168 L 36 120 L 220 120 Z M 36 96 L 220 96 L 220 116 L 36 116 Z M 36 92 L 32 92 L 32 96 L 32 116 L 32 120 L 32 172 L 224 172 L 224 120 L 224 116 L 224 96 L 224 92 L 220 92 Z"/>
    <path id="path3" fill="#ffffff" stroke="none" d="M 36 180 L 220 180 L 220 192 L 36 192 Z M 32 196 L 224 196 L 224 176 L 32 176 Z"/>
</svg>
