<?xml version="1.0" encoding="UTF-8"?>
<!-- Generated by Pixelmator Pro 3.7.1 -->
<svg width="256" height="256" viewBox="0 0 256 256" xmlns="http://www.w3.org/2000/svg">
    <path id="Path" fill="#ffffff" stroke="none" d="M 240 184 L 184 184 L 184 72 L 240 72 Z M 76 212 L 76 186 L 76 156 L 180 156 L 180 186 L 180 212 Z M 16 72 L 72 72 L 72 184 L 16 184 Z M 180 68 L 76 68 L 76 44 L 180 44 Z M 76 72 L 180 72 L 180 152 L 76 152 Z M 242 68 L 184 68 L 184 44 L 184 40 L 180 40 L 76 40 L 72 40 L 72 44 L 72 68 L 14 68 C 12.896 68 12 68.895996 12 70 L 12 186 C 12 187.104004 12.896 188 14 188 L 72 188 L 72 212 L 72 216 L 76 216 L 180 216 L 184 216 L 184 212 L 184 188 L 242 188 C 243.104004 188 244 187.104004 244 186 L 244 70 C 244 68.895996 243.104004 68 242 68"/>
    <path id="path1" fill="#ffffff" stroke="none" d="M 168 144 L 88 144 L 88 84 L 168 84 Z M 170 80 L 86 80 C 84.896004 80 84 80.895996 84 82 L 84 146 C 84 147.104004 84.896004 148 86 148 L 170 148 C 171.104004 148 172 147.104004 172 146 L 172 82 C 172 80.895996 171.104004 80 170 80"/>
    <path id="path2" fill="#ffffff" stroke="none" d="M 168 200 L 160 200 L 160 168 L 168 168 Z M 100 168 L 156 168 L 156 200 L 100 200 Z M 88 168 L 96 168 L 96 200 L 88 200 Z M 96 164 L 84 164 L 84 204 L 96 204 L 160 204 L 172 204 L 172 164 L 160 164 Z"/>
    <path id="path3" fill="#ffffff" stroke="none" d="M 100 56 L 88 56 L 88 60 L 100 60 Z"/>
    <path id="path4" fill="#ffffff" stroke="none" d="M 168 56 L 156 56 L 156 60 L 168 60 Z"/>
    <path id="path5" fill="#ffffff" stroke="none" d="M 120 56 L 112 56 L 112 60 L 120 60 Z"/>
    <path id="path6" fill="#ffffff" stroke="none" d="M 144 56 L 136 56 L 136 60 L 144 60 Z"/>
    <path id="path7" fill="#ffffff" stroke="none" d="M 48 88 L 44 88 L 44 84 L 48 84 Z M 52 80 L 40 80 L 40 92 L 52 92 Z"/>
    <path id="path8" fill="#ffffff" stroke="none" d="M 48 104 L 44 104 L 44 100 L 48 100 Z M 52 96 L 40 96 L 40 108 L 52 108 Z"/>
    <path id="path9" fill="#ffffff" stroke="none" d="M 48 120 L 44 120 L 44 116 L 48 116 Z M 52 112 L 40 112 L 40 124 L 52 124 Z"/>
    <path id="path10" fill="#ffffff" stroke="none" d="M 48 140 L 44 140 L 44 136 L 48 136 Z M 52 132 L 40 132 L 40 144 L 52 144 Z"/>
    <path id="path11" fill="#ffffff" stroke="none" d="M 56 152 L 60 152 L 60 156 L 56 156 Z M 52 160 L 64 160 L 64 148 L 52 148 Z"/>
    <path id="path12" fill="#ffffff" stroke="none" d="M 36 156 L 32 156 L 32 152 L 36 152 Z M 40 148 L 28 148 L 28 160 L 40 160 Z"/>
    <path id="path13" fill="#ffffff" stroke="none" d="M 44 168 L 48 168 L 48 172 L 44 172 Z M 40 176 L 52 176 L 52 164 L 40 164 Z"/>
    <path id="path14" fill="#ffffff" stroke="none" d="M 212 88 L 208 88 L 208 84 L 212 84 Z M 216 80 L 204 80 L 204 92 L 216 92 Z"/>
    <path id="path15" fill="#ffffff" stroke="none" d="M 220 100 L 224 100 L 224 104 L 220 104 Z M 216 108 L 228 108 L 228 96 L 216 96 Z"/>
    <path id="path16" fill="#ffffff" stroke="none" d="M 200 104 L 196 104 L 196 100 L 200 100 Z M 204 96 L 192 96 L 192 108 L 204 108 Z"/>
    <path id="path17" fill="#ffffff" stroke="none" d="M 208 116 L 212 116 L 212 120 L 208 120 Z M 204 124 L 216 124 L 216 112 L 204 112 Z"/>
    <path id="path18" fill="#ffffff" stroke="none" d="M 208 136 L 212 136 L 212 140 L 208 140 Z M 204 144 L 216 144 L 216 132 L 204 132 Z"/>
    <path id="path19" fill="#ffffff" stroke="none" d="M 208 152 L 212 152 L 212 156 L 208 156 Z M 204 160 L 216 160 L 216 148 L 204 148 Z"/>
    <path id="path20" fill="#ffffff" stroke="none" d="M 208 168 L 212 168 L 212 172 L 208 172 Z M 204 176 L 216 176 L 216 164 L 204 164 Z"/>
</svg>
