<?xml version="1.0" encoding="UTF-8"?>
<!-- Generated by Pixelmator Pro 3.7.1 -->
<svg width="256" height="256" viewBox="0 0 256 256" xmlns="http://www.w3.org/2000/svg">
    <path id="Path" fill="#ffffff" stroke="none" d="M 240 180 C 240 182.209 238.209 184 236 184 L 20 184 C 17.791 184 16 182.209 16 180 L 16 80 C 16 77.791 17.791 76 20 76 L 236 76 C 238.209 76 240 77.791 240 80 Z M 236 72 L 20 72 C 15.589005 72 12 75.588989 12 80 L 12 180 C 12 184.411011 15.589005 188 20 188 L 236 188 C 240.410995 188 244 184.411011 244 180 L 244 80 C 244 75.588989 240.410995 72 236 72"/>
    <path id="path1" fill="#ffffff" stroke="none" d="M 24 92 L 232 92 L 232 140 L 24 140 Z M 232 172 L 24 172 L 24 160 L 232 160 Z M 24 144 L 232 144 L 232 156 L 24 156 Z M 24 84 L 232 84 L 232 88 L 24 88 Z M 24 80 L 20 80 L 20 84 L 20 140 L 20 144 L 20 156 L 20 160 L 20 172 L 20 176 L 24 176 L 232 176 L 236 176 L 236 172 L 236 160 L 236 156 L 236 144 L 236 140 L 236 84 L 236 80 L 232 80 Z"/>
</svg>
