<?xml version="1.0" encoding="UTF-8"?>
<!-- Generated by Pixelmator Pro 3.7.1 -->
<svg width="256" height="256" viewBox="0 0 256 256" xmlns="http://www.w3.org/2000/svg">
    <path id="Path" fill="#ffffff" stroke="none" d="M 62 202 L 54 206 L 46 202 L 54 198 Z M 64 192 L 72 196 L 64 200 L 56 196 Z M 82 202 L 74 206 L 66 202 L 74 198 Z M 64 212 L 56 208 L 64 204 L 72 208 Z M 64 216 L 90 202 L 64 188 L 38 202 Z"/>
    <path id="path1" fill="#ffffff" stroke="none" d="M 239.9189 240 C 239.9189 242.182007 238.169907 243.947998 235.998901 243.992004 L 235.999893 244 L 235.9189 244 L 231.9189 244 L 23.999893 244 L 19.999893 244 C 17.790894 244 15.999893 242.209 15.999893 240 L 15.999893 217.175003 C 15.999893 216.408005 16.220901 215.656998 16.634903 215.011993 L 50.647903 162.104004 C 51.527893 160.733002 51.969894 159.127991 51.913895 157.501007 L 48.059906 45.742996 C 48.020905 44.593994 47.733902 43.468002 47.219894 42.440002 L 44.421906 36.845001 C 44.144897 36.289001 43.999893 35.677002 43.999893 35.056 L 43.999893 16 C 43.999893 13.791 45.790894 12 47.999893 12 L 51.999893 12 L 203.9189 12 L 207.9189 12 L 207.999893 12 L 207.999893 12.007996 C 210.170898 12.052994 211.9189 13.819 211.9189 16 L 211.9189 35.056 C 211.9189 35.677002 211.773895 36.289001 211.495895 36.845001 L 208.697906 42.440002 C 208.184906 43.468002 207.897903 44.593994 207.857895 45.742996 L 204.004898 157.501007 C 203.947906 159.127991 204.3909 160.733002 205.270905 162.104004 L 239.282898 215.011993 C 239.697906 215.656998 239.9189 216.408005 239.9189 217.175003 Z M 242.647903 212.848999 L 208.635895 159.940002 C 208.192902 159.251999 207.974899 158.455994 208.001907 157.639008 L 211.856903 45.880005 C 211.8759 45.302002 212.017899 44.746994 212.275894 44.229004 L 215.073898 38.632996 C 215.626907 37.528 215.9189 36.291 215.9189 35.056 L 215.9189 16 C 215.9189 11.804993 212.600906 8.302002 208.448898 8.024994 C 208.301895 8.007996 208.150894 8 207.999893 8 L 207.9189 8 L 203.9189 8 L 51.999893 8 L 47.999893 8 C 43.588898 8 39.999893 11.589005 39.999893 16 L 39.999893 35.056 C 39.999893 36.291 40.291901 37.528 40.844894 38.632996 L 43.642899 44.229004 C 43.900894 44.746994 44.042892 45.302002 44.062897 45.880005 L 47.915894 157.639008 C 47.943893 158.455994 47.725906 159.251999 47.282898 159.940002 L 13.270905 212.848999 C 12.439896 214.141998 11.999893 215.638 11.999893 217.175003 L 11.999893 240 C 11.999893 244.410995 15.588898 248 19.999893 248 L 23.999893 248 L 231.9189 248 L 235.9189 248 L 235.999893 248 C 236.147903 248 236.295898 247.992004 236.441895 247.975998 C 240.596893 247.701996 243.9189 244.197006 243.9189 240 L 243.9189 217.175003 C 243.9189 215.638 243.479904 214.141998 242.647903 212.848999"/>
    <path id="path2" fill="#ffffff" stroke="none" d="M 197.121094 40.651901 C 196.345093 42.203903 195.921097 43.869904 195.861099 45.604904 L 192.085098 155.095901 L 128.442093 148.024902 C 128.295105 148.007904 128.147095 147.999908 128.000092 147.999908 C 127.852104 147.999908 127.705101 148.007904 127.558098 148.024902 L 63.833107 155.105896 L 60.058098 45.604904 C 59.9981 43.870895 59.574104 42.203903 58.798103 40.651901 L 58.472099 39.999893 L 197.446106 39.999893 Z M 200.698105 42.440903 L 203.496094 36.844894 C 203.631104 36.574905 203.731094 36.290894 203.803101 35.999893 L 52.116096 35.999893 C 52.187096 36.290894 52.288109 36.574905 52.422096 36.844894 L 55.2201 42.440903 C 55.734108 43.467896 56.020103 44.593903 56.060097 45.742905 L 59.914101 157.5009 C 59.938103 158.208893 59.851097 158.907898 59.692101 159.589905 L 128.000092 151.999908 L 196.225098 159.579895 C 196.067093 158.901901 195.980103 158.204895 196.005096 157.5009 L 199.858093 45.742905 C 199.898102 44.593903 200.184097 43.467896 200.698105 42.440903"/>
    <path id="path3" fill="#ffffff" stroke="none" d="M 80 144 C 75.599998 144 72 140.399994 72 136 L 72 76 C 72 71.600006 75.599998 68 80 68 L 176 68 C 180.399994 68 184 71.600006 184 76 L 184 136 C 184 140.399994 180.399994 144 176 144 Z M 188 136 L 188 76 C 188 69.382996 182.617004 64 176 64 L 80 64 C 73.383003 64 68 69.382996 68 76 L 68 136 C 68 142.617004 73.383003 148 80 148 L 128 148 L 176 148 C 182.617004 148 188 142.617004 188 136"/>
    <path id="path4" fill="#ffffff" stroke="none" d="M 194 200 L 186 196 L 194 192 L 202 196 Z M 212 202 L 204 206 L 196 202 L 204 198 Z M 194 212 L 186 208 L 194 204 L 202 208 Z M 176 202 L 184 198 L 192 202 L 184 206 Z M 168 202 L 194 216 L 220 202 L 194 188 Z"/>
    <path id="path5" fill="#ffffff" stroke="none" d="M 204 16 L 52 16 L 52 20 L 204 20 Z"/>
    <path id="path6" fill="#ffffff" stroke="none" d="M 204 24 L 52 24 L 52 28 L 204 28 Z"/>
    <path id="path7" fill="#ffffff" stroke="none" d="M 135.207001 176 C 134.994003 175.852997 134.776001 175.709 134.541 175.587997 C 132.800003 174.694 130.761993 174.222992 128.645004 174.222992 C 126.494003 174.222992 124.234001 174.696991 121.927002 175.634003 C 121.676003 175.735992 121.444 175.867004 121.213997 176 L 104 176 L 107.087997 166.735001 C 107.633003 165.10199 109.161003 164 110.883003 164 L 145.117004 164 C 146.839005 164 148.367004 165.10199 148.912003 166.735001 L 152 176 Z M 144 202 C 144 205.313004 136.837006 208 128 208 C 119.164001 208 112 205.313004 112 202 C 112 199.11499 117.431 196.708008 124.667 196.132996 L 123.310997 188 L 122.231003 181.518997 C 122.209999 181.390991 122.204002 181.263 122.207001 181.136002 C 122.208 181.102997 122.212997 181.070007 122.216003 181.037994 C 122.223999 180.94101 122.236 180.846008 122.257004 180.751999 C 122.264 180.722992 122.271004 180.692993 122.279999 180.665009 C 122.306999 180.563995 122.341003 180.468002 122.383003 180.373001 C 122.390999 180.355011 122.398003 180.337006 122.406998 180.319 C 122.459999 180.207001 122.522003 180.100998 122.596001 180 L 122.596001 180 C 122.805 179.713989 123.087997 179.480011 123.432999 179.339996 C 128.029007 177.473999 131.123001 178.330002 132.714005 179.145996 C 133.126007 179.356995 133.429001 179.700989 133.608994 180.10199 C 133.682007 180.261993 133.738998 180.429993 133.768997 180.604004 C 133.770996 180.622009 133.770004 180.639999 133.772995 180.656998 C 133.800003 180.852997 133.802994 181.054001 133.768997 181.255997 L 133.311005 184 L 131.289993 196.127991 C 138.548004 196.696991 144 199.109009 144 202 M 216 184 L 137.365997 184 L 137.714005 181.912994 C 137.822006 181.265991 137.822998 180.621002 137.727997 180 L 152 180 C 153.285995 180 154.492996 179.382004 155.244995 178.338989 C 155.996994 177.29599 156.201004 175.955002 155.794998 174.735001 L 152.705994 165.470001 C 151.615997 162.197998 148.565002 160 145.117004 160 L 110.883003 160 C 107.433998 160 104.384003 162.197998 103.292999 165.470001 L 100.205002 174.735001 C 99.798996 175.955002 100.002998 177.29599 100.754997 178.338989 C 101.506996 179.382004 102.713997 180 104 180 L 118.337997 180 C 118.193001 180.705002 118.163002 181.438995 118.286003 182.175995 L 118.588997 184 L 40 184 L 40 188 L 64 188 L 119.255997 188 L 120.041 192.709 C 112.512001 194.125 108 197.520996 108 202 C 108 203.964005 108.945999 207.612 115.281998 209.988007 C 118.741997 211.285004 123.259003 212 128 212 C 132.740997 212 137.257996 211.285004 140.718002 209.988007 C 147.054001 207.612 148 203.964005 148 202 C 148 197.511002 143.472 194.109009 135.917007 192.699005 L 136.699997 188 L 194 188 L 216 188 Z"/>
</svg>
