<?xml version="1.0" encoding="UTF-8"?>
<!-- Generated by Pixelmator Pro 3.7.1 -->
<svg width="256" height="256" viewBox="0 0 256 256" xmlns="http://www.w3.org/2000/svg">
    <path id="Path" fill="#ffffff" stroke="none" d="M 212 44 L 208 44 L 48 44 L 44 44 L 44 48 L 44 208 L 44 212 L 48 212 L 208 212 L 212 212 L 212 208 L 212 48 Z M 208 208 L 48 208 L 48 48 L 208 48 Z"/>
    <path id="path1" fill="#ffffff" stroke="none" d="M 128 64 C 58.264999 64 44 74.791992 44 128 C 44 181.208008 58.042999 192 128 192 C 197.966003 192 212 181.229004 212 128 C 212 74.766006 197.735001 64 128 64 M 128 68 C 158.600998 68 181.488998 69.908005 193.729004 79.220993 C 203.998993 87.035004 208 100.710999 208 128 C 208 155.31601 204.020996 168.992996 193.811996 176.779999 C 181.602997 186.09201 158.673004 188 128 188 C 97.334 188 74.406998 186.091003 62.192001 176.772003 C 51.978996 168.981003 48 155.307007 48 128 C 48 100.721008 52.000999 87.046997 62.272003 79.229996 C 74.516998 69.910004 97.403999 68 128 68"/>
    <path id="path2" fill="#ffffff" stroke="none" d="M 128 76 L 124 76 L 124 68 L 128 68 Z"/>
    <path id="path3" fill="#ffffff" stroke="none" d="M 128 88 L 124 88 L 124 80 L 128 80 Z"/>
    <path id="path4" fill="#ffffff" stroke="none" d="M 128 100 L 124 100 L 124 92 L 128 92 Z"/>
    <path id="path5" fill="#ffffff" stroke="none" d="M 128 112 L 124 112 L 124 104 L 128 104 Z"/>
    <path id="path6" fill="#ffffff" stroke="none" d="M 128 124 L 124 124 L 124 116 L 128 116 Z"/>
    <path id="path7" fill="#ffffff" stroke="none" d="M 60 112 L 56 112 L 56 96 L 60 96 Z"/>
    <path id="path8" fill="#ffffff" stroke="none" d="M 200 164 L 196 164 L 196 148 L 200 148 Z"/>
    <path id="path9" fill="#ffffff" stroke="none" d="M 128 136 L 124 136 L 124 128 L 128 128 Z"/>
    <path id="path10" fill="#ffffff" stroke="none" d="M 128 148 L 124 148 L 124 140 L 128 140 Z"/>
    <path id="path11" fill="#ffffff" stroke="none" d="M 128 160 L 124 160 L 124 152 L 128 152 Z"/>
    <path id="path12" fill="#ffffff" stroke="none" d="M 128 172 L 124 172 L 124 164 L 128 164 Z"/>
    <path id="path13" fill="#ffffff" stroke="none" d="M 128 184 L 124 184 L 124 176 L 128 176 Z"/>
    <path id="path14" fill="#ffffff" stroke="none" d="M 100 116 L 96 116 L 96 112 L 100 112 Z"/>
</svg>
