<?xml version="1.0" encoding="UTF-8"?>
<!-- Generated by Pixelmator Pro 3.7.1 -->
<svg width="256" height="256" viewBox="0 0 256 256" xmlns="http://www.w3.org/2000/svg">
    <path id="Path" fill="#ffffff" stroke="none" d="M 236 56 L 232 56 L 24 56 L 20 56 L 20 60 L 20 240 L 20 244 L 24 244 L 232 244 L 236 244 L 236 240 L 236 60 Z M 232 240 L 24 240 L 24 60 L 232 60 Z"/>
    <path id="path1" fill="#ffffff" stroke="none" d="M 236 12 L 232 12 L 24 12 L 20 12 L 20 16 L 20 56 L 20 60 L 24 60 L 232 60 L 236 60 L 236 56 L 236 16 Z M 232 56 L 24 56 L 24 16 L 232 16 Z"/>
    <path id="path2" fill="#ffffff" stroke="none" d="M 216 84 L 212 84 L 44 84 L 40 84 L 40 88 L 40 204 L 40 208 L 44 208 L 212 208 L 216 208 L 216 204 L 216 88 Z M 212 204 L 44 204 L 44 88 L 212 88 Z"/>
</svg>
