<?xml version="1.0" encoding="UTF-8"?>
<!-- Generated by Pixelmator Pro 3.7.1 -->
<svg width="256" height="256" viewBox="0 0 256 256" xmlns="http://www.w3.org/2000/svg">
    <path id="Path" fill="#ffffff" stroke="none" d="M 244 136 L 244 148 C 244 150.209 242.209 152 240 152 L 228 152 L 188 152 L 160 152 L 160 158.533997 C 160 161.705994 158.412994 164.520996 156 166.23999 L 156 164 L 156 160 L 156 156 L 152 156 L 148 156 L 144 156 L 140 156 L 136 156 L 132 156 L 132 160 L 132 164 L 132 168 L 124 168 L 124 164 L 124 160 L 124 156 L 120 156 L 116 156 L 112 156 L 108 156 L 104 156 L 100 156 L 100 160 L 100 164 L 100 166.23999 C 97.585999 164.520996 96 161.705994 96 158.533997 L 96 152 L 68 152 L 28 152 L 16 152 C 13.791 152 12 150.209 12 148 L 12 136 L 12 100 C 12 97.791 13.791 96 16 96 L 79.843002 96 C 79.929993 96 80 95.929993 80 95.843002 C 80 93.721008 81.720993 92 83.843002 92 L 172.156998 92 C 174.278992 92 176 93.721008 176 95.843002 C 176 95.929993 176.070007 96 176.156998 96 L 240 96 C 242.209 96 244 97.791 244 100 Z M 236.199997 156.190002 L 163.936005 159.803009 C 163.975006 159.38501 164 158.962997 164 158.533997 L 164 156 L 237.186996 156 C 236.871002 156.098999 236.544998 156.173004 236.199997 156.190002 M 152 164 L 148 164 L 148 160 L 152 160 Z M 140 164 L 136 164 L 136 160 L 140 160 Z M 120 164 L 116 164 L 116 160 L 120 160 Z M 108 164 L 104 164 L 104 160 L 108 160 Z M 19.800003 156.190002 C 19.455994 156.173004 19.128998 156.098999 18.813995 156 L 92 156 L 92 158.533997 C 92 158.962997 92.024994 159.38501 92.063995 159.803009 Z M 240 92 L 178.992004 92 C 177.645996 89.613998 175.085999 88 172.156998 88 L 83.843002 88 C 80.914001 88 78.354004 89.613998 77.007996 92 L 16 92 C 11.589005 92 8 95.589005 8 100 L 8 148 C 8 151.192001 9.884003 153.945999 12.595001 155.229004 C 13.737 158.018005 16.410004 160.024994 19.600998 160.184998 L 93.102997 163.860001 C 95.171005 168.643005 99.932007 172 105.466003 172 L 150.533997 172 C 156.067001 172 160.828003 168.643005 162.895996 163.860001 L 236.399002 160.184998 C 239.589996 160.024994 242.263 158.018005 243.404999 155.229004 C 246.115005 153.945999 248 151.192001 248 148 L 248 100 C 248 95.589005 244.410995 92 240 92"/>
    <path id="path1" fill="#ffffff" stroke="none" d="M 170 96 L 86 96 C 84.900002 96 84 96.899994 84 98 C 84 99.100006 84.900002 100 86 100 L 170 100 C 171.100006 100 172 99.100006 172 98 C 172 96.899994 171.100006 96 170 96"/>
    <path id="path2" fill="#ffffff" stroke="none" d="M 20 104 L 52 104 L 52 116 L 20 116 Z M 56 120 L 56 116 L 56 104 L 56 100 L 52 100 L 20 100 L 16 100 L 16 104 L 16 116 L 16 120 L 20 120 L 28 120 L 52 120 Z"/>
    <path id="path3" fill="#ffffff" stroke="none" d="M 156 140 L 104 140 C 101.800003 140 100 138.199997 100 136 C 100 133.800003 101.800003 132 104 132 L 156 132 C 158.199997 132 160 133.800003 160 136 C 160 138.199997 158.199997 140 156 140 M 156 128 L 104 128 C 99.589005 128 96 131.588989 96 136 C 96 140.411011 99.589005 144 104 144 L 156 144 C 160.410995 144 164 140.411011 164 136 C 164 131.588989 160.410995 128 156 128"/>
    <path id="path4" fill="#ffffff" stroke="none" d="M 100 114 C 100 112.895996 100.896004 112 102 112 C 103.104004 112 104 112.895996 104 114 C 104 115.104004 103.104004 116 102 116 C 100.896004 116 100 115.104004 100 114 M 108 114 C 108 110.699997 105.300003 108 102 108 C 98.699997 108 96 110.699997 96 114 C 96 117.300003 98.699997 120 102 120 C 105.300003 120 108 117.300003 108 114"/>
    <path id="path5" fill="#ffffff" stroke="none" d="M 190 112 C 188.895996 112 188 111.104004 188 110 C 188 108.895996 188.895996 108 190 108 C 191.104004 108 192 108.895996 192 110 C 192 111.104004 191.104004 112 190 112 M 190 104 C 186.699997 104 184 106.699997 184 110 C 184 113.300003 186.699997 116 190 116 C 193.300003 116 196 113.300003 196 110 C 196 106.699997 193.300003 104 190 104"/>
    <path id="path6" fill="#ffffff" stroke="none" d="M 28 148 C 21.373001 148 16 142.626999 16 136 C 16 129.373001 21.373001 124 28 124 C 34.626999 124 40 129.373001 40 136 C 40 142.626999 34.626999 148 28 148 M 44 136 C 44 127.177994 36.821999 120 28 120 C 19.178001 120 12 127.177994 12 136 C 12 144.821991 19.178001 152 28 152 C 36.821999 152 44 144.821991 44 136"/>
    <path id="path7" fill="#ffffff" stroke="none" d="M 28 140 C 25.791 140 24 138.209 24 136 C 24 133.791 25.791 132 28 132 C 30.209 132 32 133.791 32 136 C 32 138.209 30.209 140 28 140 M 28 128 C 23.589001 128 20 131.588989 20 136 C 20 140.411011 23.589001 144 28 144 C 32.410999 144 36 140.411011 36 136 C 36 131.588989 32.410999 128 28 128"/>
    <path id="path8" fill="#ffffff" stroke="none" d="M 68 148 C 61.373001 148 56 142.626999 56 136 C 56 129.373001 61.373001 124 68 124 C 74.626999 124 80 129.373001 80 136 C 80 142.626999 74.626999 148 68 148 M 84 136 C 84 127.177994 76.821999 120 68 120 C 59.178001 120 52 127.177994 52 136 C 52 144.821991 59.178001 152 68 152 C 76.821999 152 84 144.821991 84 136"/>
    <path id="path9" fill="#ffffff" stroke="none" d="M 68 140 C 65.791 140 64 138.209 64 136 C 64 133.791 65.791 132 68 132 C 70.209 132 72 133.791 72 136 C 72 138.209 70.209 140 68 140 M 68 128 C 63.589001 128 60 131.588989 60 136 C 60 140.411011 63.589001 144 68 144 C 72.411003 144 76 140.411011 76 136 C 76 131.588989 72.411003 128 68 128"/>
    <path id="path10" fill="#ffffff" stroke="none" d="M 188 148 C 181.373001 148 176 142.626999 176 136 C 176 129.373001 181.373001 124 188 124 C 194.626999 124 200 129.373001 200 136 C 200 142.626999 194.626999 148 188 148 M 204 136 C 204 127.177994 196.822006 120 188 120 C 179.177994 120 172 127.177994 172 136 C 172 144.821991 179.177994 152 188 152 C 196.822006 152 204 144.821991 204 136"/>
    <path id="path11" fill="#ffffff" stroke="none" d="M 188 140 C 185.791 140 184 138.209 184 136 C 184 133.791 185.791 132 188 132 C 190.209 132 192 133.791 192 136 C 192 138.209 190.209 140 188 140 M 188 128 C 183.589005 128 180 131.588989 180 136 C 180 140.411011 183.589005 144 188 144 C 192.410995 144 196 140.411011 196 136 C 196 131.588989 192.410995 128 188 128"/>
    <path id="path12" fill="#ffffff" stroke="none" d="M 228 148 C 221.373001 148 216 142.626999 216 136 C 216 129.373001 221.373001 124 228 124 C 234.626999 124 240 129.373001 240 136 C 240 142.626999 234.626999 148 228 148 M 228 120 C 219.177994 120 212 127.177994 212 136 C 212 144.821991 219.177994 152 228 152 C 236.822006 152 244 144.821991 244 136 C 244 127.177994 236.822006 120 228 120"/>
    <path id="path13" fill="#ffffff" stroke="none" d="M 228 140 C 225.791 140 224 138.209 224 136 C 224 133.791 225.791 132 228 132 C 230.209 132 232 133.791 232 136 C 232 138.209 230.209 140 228 140 M 228 128 C 223.589005 128 220 131.588989 220 136 C 220 140.411011 223.589005 144 228 144 C 232.410995 144 236 140.411011 236 136 C 236 131.588989 232.410995 128 228 128"/>
    <path id="path14" fill="#ffffff" stroke="none" d="M 122 108 C 122 106.895996 122.896004 106 124 106 C 125.104004 106 126 106.895996 126 108 C 126 109.104004 125.104004 110 124 110 C 122.896004 110 122 109.104004 122 108 M 132 106 C 133.104004 106 134 106.895996 134 108 C 134 109.104004 133.104004 110 132 110 C 130.895996 110 130 109.104004 130 108 C 130 106.895996 130.895996 106 132 106 M 132 114 C 135.309006 114 138 111.309006 138 108 C 138 104.690994 135.309006 102 132 102 L 124 102 C 120.691002 102 118 104.690994 118 108 C 118 111.309006 120.691002 114 124 114 Z"/>
    <path id="path15" fill="#ffffff" stroke="none" d="M 226 108 C 224.899994 108 224 108.899994 224 110 L 224 114 C 224 115.100006 224.899994 116 226 116 C 227.100006 116 228 115.100006 228 114 L 228 110 C 228 108.899994 227.100006 108 226 108"/>
    <path id="path16" fill="#ffffff" stroke="none" d="M 24 112 L 28 112 L 28 108 L 24 108 Z"/>
</svg>
