<?xml version="1.0" encoding="UTF-8"?>
<!-- Generated by Pixelmator Pro 3.7.1 -->
<svg width="256" height="256" viewBox="0 0 256 256" xmlns="http://www.w3.org/2000/svg">
    <path id="Path" fill="#ffffff" stroke="none" d="M 60 76 L 196 76 L 196 152 L 60 152 L 59.999001 152 Z M 60 48 L 196 48 L 196 52 L 60 52 Z M 224 8 L 220 8 L 36 8 L 32 8 L 32 12 L 32 244 L 32 248 L 36 248 L 220 248 L 224 248 L 224 244 L 224 12 Z M 60 156 L 196 156 C 198.199997 156 200 154.199997 200 152 L 200 72 L 56 72 L 56 152 C 56 154.199997 57.799999 156 60 156 M 56 56 L 200 56 L 200 44 L 56 44 Z M 220 244 L 36 244 L 36 12 L 220 12 Z M 220 12"/>
</svg>
