<?xml version="1.0" encoding="UTF-8"?>
<!-- Generated by Pixelmator Pro 3.7.1 -->
<svg width="256" height="256" viewBox="0 0 256 256" xmlns="http://www.w3.org/2000/svg">
    <path id="Path" fill="#ffffff" stroke="none" d="M 244 205.973602 C 244 207.092606 243.093002 207.999603 241.973999 207.999603 L 14.026001 207.999603 C 12.906998 207.999603 12 207.092606 12 205.973602 L 12 54.026596 C 12 52.907608 12.906998 51.999603 14.026001 51.999603 L 241.973999 51.999603 C 243.093002 51.999603 244 52.907608 244 54.026596 Z M 241.973999 47.999603 L 14.026001 47.999603 C 10.703003 47.999603 8 50.702606 8 54.026596 L 8 205.973602 C 8 209.2966 10.703003 211.999603 14.026001 211.999603 L 241.973999 211.999603 C 245.296997 211.999603 248 209.2966 248 205.973602 L 248 54.026596 C 248 50.702606 245.296997 47.999603 241.973999 47.999603"/>
    <path id="path1" fill="#ffffff" stroke="none" d="M 44 192 C 35.164001 192 28 184.837006 28 176 C 28 167.162994 35.164001 160 44 160 C 52.835999 160 60 167.162994 60 176 C 60 184.837006 52.835999 192 44 192 M 44 156 C 32.954002 156 24 164.95401 24 176 C 24 187.04599 32.954002 196 44 196 C 55.045998 196 64 187.04599 64 176 C 64 164.95401 55.045998 156 44 156"/>
    <path id="path2" fill="#ffffff" stroke="none" d="M 152 136 L 92 136 L 92 84 L 152 84 Z M 156 80 L 88 80 L 88 140 L 156 140 Z"/>
    <path id="path3" fill="#ffffff" stroke="none" d="M 52 128 L 44 128 L 44 120 L 52 120 Z M 52 140 L 48 140 L 48 132 L 52 132 Z M 36 132 L 44 132 L 44 140 L 36 140 Z M 36 120 L 40 120 L 40 128 L 36 128 Z M 56 116 L 32 116 L 32 144 L 56 144 Z"/>
    <path id="path4" fill="#ffffff" stroke="none" d="M 228 188 L 216 188 L 216 180 L 228 180 Z M 212 188 L 200 188 L 200 180 L 212 180 Z M 216 176 L 212 176 L 200 176 L 196 176 L 196 180 L 196 188 L 196 192 L 200 192 L 212 192 L 216 192 L 228 192 L 232 192 L 232 188 L 232 180 L 232 176 L 228 176 Z"/>
    <path id="path5" fill="#ffffff" stroke="none" d="M 236 64 L 228 64 L 228 72 L 164 72 L 160 72 L 80 72 L 80 148 L 20 148 L 20 60 L 236 60 Z M 236 132 L 236 148 L 232 148 L 232 140 L 232 136 L 228 136 L 216 136 L 212 136 L 200 136 L 196 136 L 196 140 L 196 148 L 164 148 L 164 128 L 196 128 L 196 124 L 164 124 L 164 76 L 228 76 L 228 124 L 220 124 L 220 128 L 228 128 L 228 132 Z M 216 148 L 216 140 L 228 140 L 228 148 L 220 148 Z M 200 140 L 212 140 L 212 148 L 200 148 Z M 160 148 L 84 148 L 84 76 L 160 76 Z M 236 156 L 232 156 L 228 156 L 216 156 L 212 156 L 200 156 L 196 156 L 124 156 L 80 200 L 20 200 L 20 152 L 80 152 L 164 152 L 196 152 L 200 152 L 212 152 L 216 152 L 220 152 L 228 152 L 232 152 L 236 152 Z M 228 168 L 216 168 L 216 160 L 228 160 Z M 212 168 L 200 168 L 200 160 L 212 160 Z M 20 56 L 16 56 L 16 60 L 16 148 L 16 152 L 16 200 L 16 204 L 20 204 L 80 204 L 81.656998 204 L 82.828995 202.828003 L 125.656998 160 L 196 160 L 196 168 L 196 172 L 200 172 L 212 172 L 216 172 L 228 172 L 232 172 L 232 168 L 232 160 L 236 160 L 240 160 L 240 156 L 240 152 L 240 148 L 240 132 L 240 128 L 236 128 L 232 128 L 232 68 L 236 68 L 240 68 L 240 64 L 240 60 L 240 56 L 236 56 Z"/>
    <path id="path6" fill="#ffffff" stroke="none" d="M 216 116 L 196 116 L 196 84 L 216 84 Z M 220 80 L 192 80 L 192 120 L 220 120 Z"/>
</svg>
