<?xml version="1.0" encoding="UTF-8"?>
<!-- Generated by Pixelmator Pro 3.7.1 -->
<svg width="256" height="256" viewBox="0 0 256 256" xmlns="http://www.w3.org/2000/svg">
    <path id="Path" fill="#ffffff" stroke="none" d="M 244 40 L 224 40 L 224 24 L 224 22 C 224 20.895996 224.895996 20 226 20 L 242 20 C 243.104004 20 244 20.895996 244 22 Z M 244 48 L 224 48 L 224 44 L 240 44 L 244 44 Z M 244 56 L 224 56 L 224 52 L 240 52 L 244 52 Z M 244 64 L 224 64 L 224 60 L 240 60 L 244 60 Z M 244 72 L 224 72 L 224 68 L 240 68 L 244 68 Z M 244 80 L 224 80 L 224 76 L 240 76 L 244 76 Z M 244 223.753006 C 244 223.917007 243.979996 224.080002 243.940002 224.238007 L 240.378998 238.485001 C 240.156006 239.375 239.356003 240 238.438004 240 L 17.561996 240 C 16.643997 240 15.843994 239.375 15.621002 238.485001 L 12.059998 224.238007 C 12.020004 224.080002 12 223.917007 12 223.753006 L 12 84 L 16 84 L 32 84 L 32 124 C 32 128.411011 35.589005 132 40 132 L 216 132 C 220.410995 132 224 128.411011 224 124 L 224 84 L 240 84 L 244 84 Z M 12 76 L 16 76 L 32 76 L 32 80 L 12 80 Z M 12 68 L 16 68 L 32 68 L 32 72 L 12 72 Z M 12 60 L 16 60 L 32 60 L 32 64 L 12 64 Z M 12 52 L 16 52 L 32 52 L 32 56 L 12 56 Z M 12 44 L 16 44 L 32 44 L 32 48 L 12 48 Z M 12 22 C 12 20.895996 12.895996 20 14 20 L 30 20 C 31.104004 20 32 20.895996 32 22 L 32 24 L 32 40 L 12 40 Z M 64 24 L 36 48 L 36 24 Z M 220 24 L 220 124 C 220 126.209 218.209 128 216 128 L 40 128 C 37.791 128 36 126.209 36 124 L 36 53.268005 L 38.602997 51.037003 L 66.602997 27.037003 L 70.145996 24 Z M 242 16 L 226 16 C 223.393005 16 221.167999 17.671997 220.343002 20 L 220 20 L 74.813004 20 L 64 20 L 36 20 L 35.656998 20 C 34.832001 17.671997 32.606995 16 30 16 L 14 16 C 10.690994 16 8 18.690994 8 22 L 8 40.029007 L 8 44.029007 L 8 48.029007 L 8 52.029007 L 8 56.028992 L 8 60.028992 L 8 64.028992 L 8 68.028992 L 8 72.028992 L 8 76.028992 L 8 80.028992 L 8 84.028992 L 8 223.753006 C 8 224.242996 8.059998 224.733002 8.179001 225.209 L 11.740997 239.455002 C 12.410004 242.130997 14.802994 244 17.561996 244 L 238.438004 244 C 241.195999 244 243.589996 242.130997 244.259995 239.455002 L 247.820999 225.207993 C 247.938995 224.733002 248 224.242996 248 223.753006 L 248 84.028992 L 248 80.028992 L 248 76.028992 L 248 72.028992 L 248 68.028992 L 248 64.028992 L 248 60.028992 L 248 56.028992 L 248 52.029007 L 248 48.029007 L 248 44.029007 L 248 40.029007 L 248 22 C 248 18.690994 245.309006 16 242 16"/>
</svg>
