<?xml version="1.0" encoding="UTF-8"?>
<!-- Generated by Pixelmator Pro 3.7.1 -->
<svg width="256" height="256" viewBox="0 0 256 256" xmlns="http://www.w3.org/2000/svg">
    <path id="Path" fill="#ffffff" stroke="none" d="M 50 76 C 57.720001 76 64 82.279999 64 90 C 64 97.720001 57.720001 104 50 104 C 42.279999 104 36 97.720001 36 90 C 36 82.279999 42.279999 76 50 76 M 50 108 C 59.941002 108 68 99.940994 68 90 C 68 80.059006 59.941002 72 50 72 C 40.058998 72 32 80.059006 32 90 C 32 99.940994 40.058998 108 50 108"/>
    <path id="path1" fill="#ffffff" stroke="none" d="M 50 84 C 53.313 84 56 86.686996 56 90 C 56 93.313004 53.313 96 50 96 C 46.687 96 44 93.313004 44 90 C 44 86.686996 46.687 84 50 84 M 50 100 C 55.522999 100 60 95.522995 60 90 C 60 84.477005 55.522999 80 50 80 C 44.477001 80 40 84.477005 40 90 C 40 95.522995 44.477001 100 50 100"/>
    <path id="path2" fill="#ffffff" stroke="none" d="M 50 116 C 57.720001 116 64 122.279999 64 130 C 64 137.720001 57.720001 144 50 144 C 42.279999 144 36 137.720001 36 130 C 36 122.279999 42.279999 116 50 116 M 50 148 C 59.941002 148 68 139.94101 68 130 C 68 120.059006 59.941002 112 50 112 C 40.058998 112 32 120.059006 32 130 C 32 139.94101 40.058998 148 50 148"/>
    <path id="path3" fill="#ffffff" stroke="none" d="M 50 124 C 53.313 124 56 126.686996 56 130 C 56 133.313004 53.313 136 50 136 C 46.687 136 44 133.313004 44 130 C 44 126.686996 46.687 124 50 124 M 50 140 C 55.522999 140 60 135.522003 60 130 C 60 124.477005 55.522999 120 50 120 C 44.477001 120 40 124.477005 40 130 C 40 135.522003 44.477001 140 50 140"/>
    <path id="path4" fill="#ffffff" stroke="none" d="M 206 76 C 213.720001 76 220 82.279999 220 90 C 220 97.720001 213.720001 104 206 104 C 198.279999 104 192 97.720001 192 90 C 192 82.279999 198.279999 76 206 76 M 206 108 C 215.940994 108 224 99.940994 224 90 C 224 80.059006 215.940994 72 206 72 C 196.059006 72 188 80.059006 188 90 C 188 99.940994 196.059006 108 206 108"/>
    <path id="path5" fill="#ffffff" stroke="none" d="M 206 84 C 209.313004 84 212 86.686996 212 90 C 212 93.313004 209.313004 96 206 96 C 202.686996 96 200 93.313004 200 90 C 200 86.686996 202.686996 84 206 84 M 206 100 C 211.522003 100 216 95.522995 216 90 C 216 84.477005 211.522003 80 206 80 C 200.477997 80 196 84.477005 196 90 C 196 95.522995 200.477997 100 206 100"/>
    <path id="path6" fill="#ffffff" stroke="none" d="M 206 116 C 213.720001 116 220 122.279999 220 130 C 220 137.720001 213.720001 144 206 144 C 198.279999 144 192 137.720001 192 130 C 192 122.279999 198.279999 116 206 116 M 206 148 C 215.940994 148 224 139.94101 224 130 C 224 120.059006 215.940994 112 206 112 C 196.059006 112 188 120.059006 188 130 C 188 139.94101 196.059006 148 206 148"/>
    <path id="path7" fill="#ffffff" stroke="none" d="M 206 124 C 209.313004 124 212 126.686996 212 130 C 212 133.313004 209.313004 136 206 136 C 202.686996 136 200 133.313004 200 130 C 200 126.686996 202.686996 124 206 124 M 206 140 C 211.522003 140 216 135.522003 216 130 C 216 124.477005 211.522003 120 206 120 C 200.477997 120 196 124.477005 196 130 C 196 135.522003 200.477997 140 206 140"/>
    <path id="path8" fill="#ffffff" stroke="none" d="M 100 68 L 156 68 L 156 80 L 100 80 Z M 156 84 L 160 84 L 160 80 L 160 68 L 160 64 L 156 64 L 100 64 L 96 64 L 96 68 L 96 80 L 96 84 L 100 84 Z"/>
    <path id="path9" fill="#ffffff" stroke="none" d="M 130 122 C 130 123.104004 129.104004 124 128 124 C 126.895996 124 126 123.104004 126 122 C 126 120.895996 126.895996 120 128 120 C 129.104004 120 130 120.895996 130 122 M 122 122 C 122 125.309006 124.691002 128 128 128 C 131.309006 128 134 125.309006 134 122 C 134 118.690994 131.309006 116 128 116 C 124.691002 116 122 118.690994 122 122"/>
    <path id="path10" fill="#ffffff" stroke="none" d="M 148 144 L 140 144 L 140 140 L 148 140 Z M 132 144 L 124 144 L 124 140 L 132 140 Z M 116 144 L 108 144 L 108 140 L 116 140 Z M 152 144 L 152 140 L 152 136 L 148 136 L 140 136 L 136 136 L 132 136 L 124 136 L 120 136 L 116 136 L 108 136 L 104 136 L 104 140 L 104 144 L 104 148 L 108 148 L 116 148 L 120 148 L 124 148 L 132 148 L 136 148 L 140 148 L 148 148 L 152 148 Z"/>
    <path id="path11" fill="#ffffff" stroke="none" d="M 126 168 C 126 166.895996 126.896004 166 128 166 C 129.104004 166 130 166.895996 130 168 C 130 169.104004 129.104004 170 128 170 C 126.896004 170 126 169.104004 126 168 M 134 168 C 134 164.69101 131.309006 162 128 162 C 124.691002 162 122 164.69101 122 168 C 122 171.30899 124.691002 174 128 174 C 131.309006 174 134 171.30899 134 168"/>
    <path id="path12" fill="#ffffff" stroke="none" d="M 144 192 L 112 192 L 112 180 L 144 180 Z M 112 176 L 108 176 L 108 180 L 108 192 L 108 196 L 112 196 L 144 196 L 148 196 L 148 192 L 148 180 L 148 176 L 144 176 Z"/>
    <path id="path13" fill="#ffffff" stroke="none" d="M 122 188 L 134 188 C 135.104004 188 136 187.104004 136 186 C 136 184.895996 135.104004 184 134 184 L 122 184 C 120.896004 184 120 184.895996 120 186 C 120 187.104004 120.896004 188 122 188"/>
    <path id="path14" fill="#ffffff" stroke="none" d="M 100 188 L 84 188 L 84 180 L 100 180 Z M 76 188 L 60 188 L 60 180 L 76 180 Z M 84 176 L 80 176 L 76 176 L 60 176 L 56 176 L 56 180 L 56 188 L 56 192 L 60 192 L 76 192 L 80 192 L 84 192 L 100 192 L 104 192 L 104 188 L 104 180 L 104 176 L 100 176 Z"/>
    <path id="path15" fill="#ffffff" stroke="none" d="M 196 188 L 180 188 L 180 180 L 196 180 Z M 172 188 L 156 188 L 156 180 L 172 180 Z M 180 176 L 176 176 L 172 176 L 156 176 L 152 176 L 152 180 L 152 188 L 152 192 L 156 192 L 172 192 L 176 192 L 180 192 L 196 192 L 200 192 L 200 188 L 200 180 L 200 176 L 196 176 Z"/>
    <path id="path16" fill="#ffffff" stroke="none" d="M 40 186 C 38.896 186 38 185.104004 38 184 C 38 182.895996 38.896 182 40 182 C 41.104 182 42 182.895996 42 184 C 42 185.104004 41.104 186 40 186 M 40 178 C 36.691002 178 34 180.69101 34 184 C 34 187.30899 36.691002 190 40 190 C 43.308998 190 46 187.30899 46 184 C 46 180.69101 43.308998 178 40 178"/>
    <path id="path17" fill="#ffffff" stroke="none" d="M 216 186 C 214.895996 186 214 185.104004 214 184 C 214 182.895996 214.895996 182 216 182 C 217.104004 182 218 182.895996 218 184 C 218 185.104004 217.104004 186 216 186 M 216 178 C 212.690994 178 210 180.69101 210 184 C 210 187.30899 212.690994 190 216 190 C 219.309006 190 222 187.30899 222 184 C 222 180.69101 219.309006 178 216 178"/>
    <path id="path18" fill="#ffffff" stroke="none" d="M 244 204 C 244 206.209 242.209 208 240 208 L 16 208 C 13.791 208 12 206.209 12 204 L 12 164 C 12 161.791 13.791 160 16 160 L 84 160 C 86.209 160 88 158.209 88 156 L 88 52 C 88 49.791 89.791 48 92 48 L 164 48 C 166.209 48 168 49.791 168 52 L 168 156 C 168 158.209 169.791 160 172 160 L 240 160 C 242.209 160 244 161.791 244 164 Z M 15.449005 52 L 84 52 L 84 156 L 16 156 C 14.542007 156 13.177994 156.397995 12 157.082001 L 12 55.449005 C 12 53.544006 13.544006 52 15.449005 52 M 240.550995 52 C 242.455994 52 244 53.544006 244 55.449005 L 244 157.082001 C 242.820999 156.397995 241.457993 156 240 156 L 172 156 L 172 52 Z M 240.550995 48 L 170.917999 48 C 169.531006 45.613007 166.953003 44 164 44 L 92 44 C 89.046997 44 86.468002 45.613007 85.082993 48 L 15.449005 48 C 11.341995 48 8 51.341995 8 55.449005 L 8 164 L 8 204 C 8 208.410995 11.589005 212 16 212 L 240 212 C 244.410995 212 248 208.410995 248 204 L 248 164 L 248 55.449005 C 248 51.341995 244.658005 48 240.550995 48"/>
</svg>
