<?xml version="1.0" encoding="UTF-8"?>
<!-- Generated by Pixelmator Pro 3.7.1 -->
<svg width="256" height="256" viewBox="0 0 256 256" xmlns="http://www.w3.org/2000/svg">
    <path id="Path" fill="#ffffff" stroke="none" d="M 120 200 L 108 200 L 108 188 L 120 188 Z M 104 200 L 92 200 L 92 188 L 104 188 Z M 88 200 L 76 200 L 76 188 L 88 188 Z M 72 200 L 60 200 L 60 188 L 72 188 Z M 56 200 L 44 200 L 44 188 L 56 188 Z M 108 184 L 104 184 L 92 184 L 88 184 L 76 184 L 72 184 L 60 184 L 56 184 L 44 184 L 40 184 L 40 188 L 40 200 L 40 204 L 44 204 L 56 204 L 60 204 L 72 204 L 76 204 L 88 204 L 92 204 L 104 204 L 108 204 L 120 204 L 124 204 L 124 200 L 124 188 L 124 184 L 120 184 Z"/>
    <path id="path1" fill="#ffffff" stroke="none" d="M 152 180 L 216 180 L 216 188 L 152 188 Z M 148 192 L 220 192 L 220 176 L 148 176 Z"/>
    <path id="path2" fill="#ffffff" stroke="none" d="M 152 200 L 216 200 L 216 208 L 152 208 Z M 148 212 L 220 212 L 220 196 L 148 196 Z"/>
    <path id="path3" fill="#ffffff" stroke="none" d="M 236 156 L 236 152 L 236 68 L 236 64 L 236 44 L 236 40 L 244 32 L 244 224 Z M 16.498001 220 L 239.501999 220 L 239.973007 224 L 16.026993 224 Z M 20 40 L 20 44 L 20 64 L 20 68 L 20 152 L 20 156 L 12 224 L 12 32 Z M 226 56 L 30 56 C 26.690994 56 24 58.69101 24 62 L 24 44 L 232 44 L 232 62 C 232 58.69101 229.309006 56 226 56 M 28 68 L 228 68 L 228 70 C 228 71.104004 227.104004 72 226 72 L 30 72 C 28.895996 72 28 71.104004 28 70 Z M 228 64 L 28 64 L 28 62 C 28 60.895996 28.895996 60 30 60 L 226 60 C 227.104004 60 228 60.895996 228 62 Z M 22.222 208 L 37.778 180 L 132 180 L 132 208 Z M 232.026993 156.468002 L 239.031006 216 L 16.968994 216 L 17.438995 212 L 22.222 212 L 132 212 L 136 212 L 136 208 L 136 180 L 136 176 L 132 176 L 37.778 176 L 35.423996 176 L 34.281006 178.057999 L 18.725998 206.057999 L 17.979996 207.397995 L 23.973007 156.468002 L 24 156.234009 L 24 156 L 232 156 L 232 156.234009 Z M 232 152 L 24 152 L 24 70 C 24 73.30899 26.690994 76 30 76 L 226 76 C 229.309006 76 232 73.30899 232 70 Z M 232 38.343002 L 232 40 L 24 40 L 24 38.343002 L 22.828995 37.17099 L 17.656998 32 L 238.343002 32 L 233.171997 37.17099 Z M 242.671997 27.671005 L 242.343002 28 L 13.656998 28 L 13.328003 27.671005 L 8 27.671005 L 8 28 L 8 32 L 8 224 L 8 228 L 12 228 L 244 228 L 248 228 L 248 224 L 248 32 L 248 28 L 248 27.671005 Z"/>
    <path id="path4" fill="#ffffff" stroke="none" d="M 152 164 L 224 164 L 228 160 L 152 160 Z"/>
    <path id="path5" fill="#ffffff" stroke="none" d="M 152 172 L 216.42099 172 L 220 168 L 152 168 Z"/>
</svg>
