<?xml version="1.0" encoding="UTF-8"?>
<!-- Generated by Pixelmator Pro 3.7.1 -->
<svg width="256" height="256" viewBox="0 0 256 256" xmlns="http://www.w3.org/2000/svg">
    <path id="Path" fill="#ffffff" stroke="none" d="M 212 188 L 160 188 L 160 180 L 212 180 Z M 160 176 L 156 176 L 156 180 L 156 188 L 156 192 L 160 192 L 212 192 L 216 192 L 216 188 L 216 180 L 216 176 L 212 176 Z"/>
    <path id="path1" fill="#ffffff" stroke="none" d="M 120 216 L 108 216 L 108 204 L 120 204 Z M 104 216 L 92 216 L 92 204 L 104 204 Z M 88 216 L 76 216 L 76 204 L 88 204 Z M 72 216 L 60 216 L 60 204 L 72 204 Z M 56 216 L 44 216 L 44 204 L 56 204 Z M 40 216 L 36 216 L 36 204 L 40 204 Z M 108 200 L 104 200 L 92 200 L 88 200 L 76 200 L 72 200 L 60 200 L 56 200 L 44 200 L 40 200 L 36 200 L 32 200 L 32 204 L 32 216 L 32 220 L 36 220 L 40 220 L 44 220 L 56 220 L 60 220 L 72 220 L 76 220 L 88 220 L 92 220 L 104 220 L 108 220 L 120 220 L 124 220 L 124 216 L 124 204 L 124 200 L 120 200 Z"/>
    <path id="path2" fill="#ffffff" stroke="none" d="M 156 200 L 216 200 L 216 196 L 156 196 Z"/>
    <path id="path3" fill="#ffffff" stroke="none" d="M 156 208 L 216 208 L 216 204 L 156 204 Z"/>
    <path id="path4" fill="#ffffff" stroke="none" d="M 156 216 L 216 216 L 216 212 L 156 212 Z"/>
    <path id="path5" fill="#ffffff" stroke="none" d="M 156 224 L 216 224 L 216 220 L 156 220 Z"/>
    <path id="path6" fill="#ffffff" stroke="none" d="M 156 232 L 216 232 L 216 228 L 156 228 Z"/>
    <path id="path7" fill="#ffffff" stroke="none" d="M 244 236 L 236 128 L 236 100 L 236 96 L 236 88 L 236 84 L 236 76 L 236 72 L 236 64 L 236 60 L 236 52 L 236 48 L 236 40 L 236 36 L 236 28 L 244 20 Z M 228 152 L 144 152 L 144 132 L 228 132 Z M 231.794998 178.735001 L 228.705994 169.470001 C 227.615997 166.197998 224.565002 164 221.117004 164 L 150.882996 164 C 147.434998 164 144.384003 166.197998 143.294006 169.470001 L 140.205002 178.735001 L 140 179.350998 L 140 180 L 140 192 L 140 236 L 136 236 L 136 136 C 136 131.588989 132.411011 128 128 128 L 28 128 C 26.511993 128 25.121994 128.416 23.927994 129.126999 L 23.988998 128.294998 L 24 128.14801 L 24 128 L 24 100 L 232 100 L 232 128 L 228 128 L 144 128 L 140 128 L 140 132 L 140 152 L 140 156 L 144 156 L 228 156 L 232 156 L 232 152 L 232 132 L 232 128.14801 L 232.011002 128.294998 L 239.988998 236 L 232 236 L 232 192 L 232 180 L 232 179.350998 Z M 144 236 L 144 192 L 144 180 L 147.087997 170.735001 C 147.632996 169.10199 149.161011 168 150.882996 168 L 221.117004 168 C 222.839005 168 224.367004 169.10199 224.912003 170.735001 L 228 180 L 228 192 L 228 236 Z M 28 236 L 24.285995 184 L 132 184 L 132 236 Z M 20.072998 181.164001 L 23.990005 236 L 16.011002 236 Z M 132 180 L 24 180 L 24 156 L 132 156 Z M 132 152 L 24 152 L 24 136 C 24 133.791 25.791 132 28 132 L 128 132 C 130.209 132 132 133.791 132 136 Z M 20 28 L 20 36 L 20 40 L 20 48 L 20 52 L 20 60 L 20 64 L 20 72 L 20 76 L 20 84 L 20 88 L 20 96 L 20 100 L 20 128 L 12 236 L 12 20 Z M 24 32 L 232 32 L 232 36 L 24 36 Z M 24 40 L 232 40 L 232 48 L 24 48 Z M 24 52 L 232 52 L 232 60 L 24 60 Z M 24 64 L 232 64 L 232 72 L 24 72 Z M 232 96 L 24 96 L 24 88 L 232 88 Z M 24 76 L 232 76 L 232 84 L 24 84 Z M 232 20 L 238.343002 20 L 233.171997 25.171005 L 232 26.343002 L 232 28 L 24 28 L 24 26.343002 L 22.828995 25.171005 L 17.656998 20 L 24 20 Z M 244 16 L 242.343002 16 L 13.656998 16 L 12 16 L 8 16 L 8 20 L 8 236 L 8 240 L 12 240 L 24.274994 240 L 28 240 L 132 240 L 136 240 L 140 240 L 144 240 L 228 240 L 232 240 L 244 240 L 248 240 L 248 236 L 248 20 L 248 16 Z"/>
</svg>
