<?xml version="1.0" encoding="UTF-8"?>
<!-- Generated by Pixelmator Pro 3.7.1 -->
<svg width="256" height="256" viewBox="0 0 256 256" xmlns="http://www.w3.org/2000/svg">
    <path id="Path" fill="#ffffff" stroke="none" d="M 196 188 C 196 190.209 194.209 192 192 192 L 60 192 C 57.791 192 56 190.209 56 188 L 56 40 C 56 37.791 57.791 36 60 36 L 192 36 C 194.209 36 196 37.791 196 40 Z M 192 32 L 60 32 C 55.589005 32 52 35.589005 52 40 L 52 188 C 52 192.410995 55.589005 196 60 196 L 192 196 C 196.410995 196 200 192.410995 200 188 L 200 40 C 200 35.589005 196.410995 32 192 32"/>
    <path id="path1" fill="#ffffff" stroke="none" d="M 214 200 L 212 200 L 44 200 L 42 200 C 40.895996 200 40 199.104004 40 198 C 40 196.895996 40.895996 196 42 196 L 44 196 L 44 20.944 C 44 20.322998 44.145004 19.710999 44.421997 19.154999 L 46.895004 14.210999 C 47.572006 12.856003 48.957001 12 50.472 12 L 205.528 12 C 207.042999 12 208.427994 12.856003 209.104996 14.210999 L 211.578003 19.154999 C 211.854996 19.710999 212 20.322998 212 20.944 L 212 196 L 214 196 C 215.104004 196 216 196.895996 216 198 C 216 199.104004 215.104004 200 214 200 M 214 208 L 212 208 L 44 208 L 42 208 C 40.895996 208 40 207.104004 40 206 C 40 204.895996 40.895996 204 42 204 L 44 204 L 212 204 L 214 204 C 215.104004 204 216 204.895996 216 206 C 216 207.104004 215.104004 208 214 208 M 214 216 L 212 216 L 44 216 L 42 216 C 40.895996 216 40 215.104004 40 214 C 40 212.895996 40.895996 212 42 212 L 44 212 L 212 212 L 214 212 C 215.104004 212 216 212.895996 216 214 C 216 215.104004 215.104004 216 214 216 M 214 224 L 212 224 L 44 224 L 42 224 C 40.895996 224 40 223.104004 40 222 C 40 220.895996 40.895996 220 42 220 L 44 220 L 212 220 L 214 220 C 215.104004 220 216 220.895996 216 222 C 216 223.104004 215.104004 224 214 224 M 214 232 L 212 232 L 44 232 L 42 232 C 40.895996 232 40 231.104004 40 230 C 40 228.895996 40.895996 228 42 228 L 44 228 L 212 228 L 214 228 C 215.104004 228 216 228.895996 216 230 C 216 231.104004 215.104004 232 214 232 M 214 240 L 212 240 L 212 244 L 44 244 L 44 240 L 42 240 C 40.895996 240 40 239.104004 40 238 C 40 236.895996 40.895996 236 42 236 L 44 236 L 212 236 L 214 236 C 215.104004 236 216 236.895996 216 238 C 216 239.104004 215.104004 240 214 240 M 218.468994 202 C 219.419998 200.936996 220 199.535004 220 198 C 220 195.393005 218.328003 193.167999 216 192.343002 L 216 20.944 C 216 19.707993 215.707993 18.472 215.154999 17.365997 L 212.684006 12.421997 C 211.319 9.694 208.578003 8 205.528 8 L 50.472 8 C 47.421997 8 44.681 9.694 43.317001 12.421997 L 40.845001 17.367004 C 40.292007 18.472 40 19.707993 40 20.944 L 40 192.343002 C 37.671997 193.167999 36 195.393005 36 198 C 36 199.535004 36.580002 200.936996 37.531006 202 C 36.580002 203.063004 36 204.464996 36 206 C 36 207.535004 36.580002 208.938004 37.531006 210 C 36.580002 211.063004 36 212.464996 36 214 C 36 215.535004 36.580002 216.936996 37.531006 218 C 36.580002 219.061996 36 220.464996 36 222 C 36 223.535004 36.580002 224.936996 37.531006 226 C 36.580002 227.061996 36 228.464996 36 230 C 36 231.535004 36.580002 232.938004 37.531006 234 C 36.580002 235.063004 36 236.464996 36 238 C 36 240.606995 37.671997 242.832001 40 243.656998 L 40 244 L 40 248 L 44 248 L 212 248 L 216 248 L 216 244 L 216 243.656998 C 218.328003 242.832001 220 240.606995 220 238 C 220 236.464996 219.419998 235.063004 218.468994 234 C 219.419998 232.938004 220 231.535004 220 230 C 220 228.464996 219.419998 227.061996 218.468994 226 C 219.419998 224.936996 220 223.535004 220 222 C 220 220.464996 219.419998 219.061996 218.468994 218 C 219.419998 216.936996 220 215.535004 220 214 C 220 212.464996 219.419998 211.063004 218.468994 210 C 219.419998 208.938004 220 207.535004 220 206 C 220 204.464996 219.419998 203.063004 218.468994 202"/>
</svg>
