<?xml version="1.0" encoding="UTF-8"?>
<!-- Generated by Pixelmator Pro 3.7.1 -->
<svg width="256" height="256" viewBox="0 0 256 256" xmlns="http://www.w3.org/2000/svg">
    <path id="Path" fill="#ffffff" stroke="none" d="M 128 19.9814 L 124.227997 30.669403 L 101.169998 96.000397 L 32 96.000397 L 20.597 96.000397 L 29.500999 103.123398 L 87.281998 149.348404 L 64.227997 214.668396 L 59.915001 226.889404 L 70.365005 219.225403 L 128 176.960403 L 185.634995 219.225403 L 196.084991 226.889404 L 191.770996 214.668396 L 168.718002 149.348404 L 226.498993 103.123398 L 235.403 96.000397 L 224 96.000397 L 154.830002 96.000397 L 131.770996 30.669403 Z M 128 32.000397 L 152 100.000397 L 224 100.000397 L 164 148.000397 L 188 216.000397 L 128 172.000397 L 68 216.000397 L 92 148.000397 L 32 100.000397 L 104 100.000397 Z"/>
    <path id="path1" fill="#ffffff" stroke="none" d="M 244 244 L 12 244 L 12 12 L 244 12 Z M 244 8 L 12 8 L 8 8 L 8 12 L 8 244 L 8 248 L 12 248 L 244 248 L 248 248 L 248 244 L 248 12 L 248 8 Z"/>
</svg>
