<?xml version="1.0" encoding="UTF-8"?>
<!-- Generated by Pixelmator Pro 3.7.1 -->
<svg width="256" height="256" viewBox="0 0 256 256" xmlns="http://www.w3.org/2000/svg">
    <path id="Path" fill="#ffffff" stroke="none" d="M 244 244 L 12 244 L 12 12 L 244 12 Z M 244 8 L 12 8 L 8 8 L 8 12 L 8 244 L 8 248 L 12 248 L 244 248 L 248 248 L 248 244 L 248 12 L 248 8 Z"/>
    <path id="path1" fill="#ffffff" stroke="none" d="M 20 240 C 22.209 240 24 238.209 24 236 C 24 233.791 22.209 232 20 232 C 17.791 232 16 233.791 16 236 C 16 238.209 17.791 240 20 240"/>
    <path id="path2" fill="#ffffff" stroke="none" d="M 236 232 C 233.791 232 232 233.791 232 236 C 232 238.209 233.791 240 236 240 C 238.209 240 240 238.209 240 236 C 240 233.791 238.209 232 236 232"/>
    <path id="path3" fill="#ffffff" stroke="none" d="M 20 24 C 22.209 24 24 22.209 24 20 C 24 17.791 22.209 16 20 16 C 17.791 16 16 17.791 16 20 C 16 22.209 17.791 24 20 24"/>
    <path id="path4" fill="#ffffff" stroke="none" d="M 32.5 52 L 68.5 52 L 68.5 88 L 32.5 88 Z M 72.5 92 L 72.5 88 L 72.5 52 L 72.5 48 L 68.5 48 L 32.5 48 L 28.5 48 L 28.5 52 L 28.5 88 L 28.5 92 L 32.5 92 L 68.5 92 Z"/>
    <path id="path5" fill="#ffffff" stroke="none" d="M 60 80 L 40 80 L 40 60 L 60 60 Z M 40 56 L 36 56 L 36 60 L 36 80 L 36 84 L 40 84 L 60 84 L 64 84 L 64 80 L 64 60 L 64 56 L 60 56 Z"/>
    <path id="path6" fill="#ffffff" stroke="none" d="M 36 108 L 36 123.576996 L 28 123.576996 L 28 107.576996 L 36 107.576996 Z M 48 108 L 48 108.423004 L 48 124 L 40 124 L 40 123.576996 L 40 108 Z M 60 108.423004 L 60 124 L 60 124.423004 L 52 124.423004 L 52 124 L 52 108.423004 Z M 68 100 L 76 100 L 76 124 L 72 124 L 68 124 Z M 80 60 L 92 60 L 92 96 L 88 96 L 80 96 Z M 80 20 L 92 20 L 92 56 L 80 56 Z M 96 20 L 108 20 L 108 56 L 96 56 Z M 112 20 L 124 20 L 124 56 L 112 56 Z M 128 20 L 140 20 L 140 56 L 128 56 Z M 140 96 L 136 96 L 128 96 L 128 60 L 140 60 Z M 148 100 L 148 124 L 144 124 L 140 124 L 140 100 L 144 100 Z M 152 100 L 156 100 L 160 100 L 160 124 L 156 124 L 152 124 Z M 160 64 L 172 64 L 172 96 L 164 96 L 160 96 Z M 160 28 L 172 28 L 172 60 L 160 60 Z M 176 28 L 188 28 L 188 60 L 176 60 Z M 192 28 L 204 28 L 204 60 L 192 60 Z M 208 28 L 220 28 L 220 56 L 220 60 L 208 60 Z M 236 24 L 236 56 L 224 56 L 224 28 L 224 24 Z M 236 96 L 232 96 L 224 96 L 224 64 L 224 60 L 236 60 Z M 232 124 L 224 124 L 224 100 L 232 100 Z M 232 160 L 220 160 L 220 156 L 220 152 L 220 128 L 224 128 L 232 128 Z M 212 168 L 220 168 L 220 200 L 212 200 Z M 220 236 L 212 236 L 212 204 L 220 204 Z M 207.862 224 L 200 224 L 200 204.074997 L 200 204 L 207.862 204 Z M 188 204.074997 L 195.862 204.074997 L 195.862 224 L 195.862 224.074997 L 188 224.074997 Z M 188 180.074997 L 195.862 180.074997 L 195.862 200 L 195.862 200.074997 L 188 200.074997 Z M 188 156.074997 L 195.862 156.074997 L 195.862 176 L 195.862 176.074997 L 188 176.074997 Z M 180 152 L 172 152 L 172 128 L 176 128 L 180 128 Z M 184 100 L 184 124 L 180 124 L 176 124 L 176 100 Z M 204 96 L 200 96 L 196 96 L 192 96 L 192 64 L 204 64 Z M 216 152 L 211.862 152 L 208 152 L 208 128 L 212 128 L 216 128 Z M 200 180.074997 L 200 180 L 207.862 180 L 207.862 200 L 200 200 Z M 204 152 L 199.862 152 L 196 152 L 196 128 L 200 128 L 204 128 Z M 200 156.074997 L 200 156 L 204 156 L 207.862 156 L 207.862 176 L 200 176 Z M 208 124 L 204 124 L 200 124 L 200 100 L 204 100 L 208 100 Z M 188 100 L 192 100 L 196 100 L 196 124 L 192 124 L 188 124 Z M 184 128 L 188 128 L 192 128 L 192 152 L 184 152 Z M 216 160 L 216 164 L 212 164 L 211.862 164 L 211.862 156 L 216 156 Z M 220 124 L 216 124 L 212 124 L 212 100 L 220 100 Z M 220 96 L 212 96 L 208 96 L 208 64 L 220 64 Z M 176 64 L 188 64 L 188 96 L 184 96 L 176 96 Z M 164 100 L 172 100 L 172 124 L 168 124 L 164 124 Z M 168 152 L 160 152 L 160 128 L 164 128 L 168 128 Z M 156 152 L 152 152 L 148 152 L 148 128 L 152 128 L 156 128 Z M 148 160 L 144.604004 160 L 144.151001 160 L 140.604004 160 L 140.151001 160 L 136 160 L 136 156 L 144 156 L 148 156 Z M 156.151001 164 L 156.151001 196 L 144.604004 196 L 144.604004 164 L 148 164 L 152 164 Z M 156.151001 232 L 144.604004 232 L 144.604004 200 L 156.151001 200 Z M 132.604004 200 L 140.151001 200 L 140.151001 232 L 132.604004 232 Z M 128.45401 232 L 120.454002 232 L 120.454002 200 L 128.45401 200 Z M 116.302002 232 L 108.302002 232 L 108.302002 200 L 116.302002 200 Z M 104.151001 232 L 96.151001 232 L 96.151001 200 L 104.151001 200 Z M 92 232 L 84 232 L 84 204 L 84 200 L 92 200 Z M 76 200 L 72 200 L 72 180 L 80 180 L 80 196 L 80 200 Z M 72 220 L 64 220 L 64 204 L 68 204 L 72 204 Z M 60 220 L 52 220 L 52 204 L 56 204 L 60 204 Z M 60 180 L 68 180 L 68 200 L 64 200 L 60 200 Z M 52 184 L 24 184 L 24 156 L 28 156 L 36 156 L 40 156 L 48 156 L 52 156 Z M 28 136 L 36 136 L 36 152 L 28 152 Z M 40 136 L 48 136 L 48 152 L 40 152 Z M 52 136 L 60 136 L 60 152 L 56 152 L 52 152 Z M 84 128 L 84 152 L 80 152 L 76 152 L 76 128 L 80 128 Z M 100 100 L 100 124 L 96 124 L 92 124 L 92 100 L 96 100 Z M 124 96 L 116 96 L 112 96 L 112 60 L 124 60 Z M 136 124 L 132 124 L 128 124 L 128 100 L 136 100 Z M 124 152 L 124 128 L 128 128 L 132 128 L 132 152 Z M 132 160 L 128.605011 160 L 128.45401 160 L 120.454002 160 L 120.302002 160 L 120 160 L 120 156 L 124 156 L 132 156 Z M 120.454002 164 L 128.45401 164 L 128.45401 196 L 120.454002 196 Z M 108.302002 164 L 116 164 L 116.302002 164 L 116.302002 196 L 108.302002 196 Z M 96.151001 164 L 100 164 L 104 164 L 104.151001 164 L 104.151001 196 L 96.151001 196 Z M 84 180 L 84 176 L 84 164 L 88 164 L 92 164 L 92 196 L 84 196 Z M 96 156 L 100 156 L 100 160 L 96.151001 160 L 96 160 L 92.151001 160 L 92 160 L 88 160 L 88 156 Z M 108 128 L 108 152 L 104 152 L 100 152 L 100 128 L 104 128 Z M 116 160 L 108.302002 160 L 108.151001 160 L 104.302002 160 L 104.151001 160 L 104 160 L 104 156 L 108 156 L 112 156 L 116 156 Z M 120 152 L 116 152 L 112 152 L 112 128 L 116 128 L 120 128 Z M 124 124 L 120 124 L 116 124 L 116 100 L 124 100 Z M 104 100 L 108 100 L 112 100 L 112 124 L 108 124 L 104 124 Z M 88 128 L 92 128 L 96 128 L 96 152 L 88 152 Z M 72 156 L 76 156 L 80 156 L 80 160 L 80 164 L 80 176 L 72 176 Z M 60 156 L 64 156 L 68 156 L 68 176 L 60 176 Z M 140.151001 196 L 132.604004 196 L 132.604004 164 L 136 164 L 140.151001 164 Z M 144 152 L 136 152 L 136 128 L 140 128 L 144 128 Z M 96 60 L 108 60 L 108 96 L 104 96 L 100 96 L 96 96 Z M 80 100 L 88 100 L 88 124 L 84 124 L 80 124 Z M 64 128.423004 L 64 128 L 68 128 L 72 128 L 72 152 L 68 152 L 64 152 L 64 136 L 64 132 Z M 72 40 L 32 40 L 32 24 L 72 24 Z M 48 220 L 40 220 L 40 204 L 48 204 Z M 36 220 L 28 220 L 28 204 L 36 204 Z M 24 103.576996 L 24 107.576996 L 24 123.576996 L 24 127.576996 L 28 127.576996 L 36 127.576996 L 36 128 L 40 128 L 48 128 L 48 128.423004 L 52 128.423004 L 60 128.423004 L 60 132 L 52 132 L 48 132 L 40 132 L 36 132 L 28 132 L 24 132 L 24 136 L 24 152 L 20 152 L 20 156 L 20 184 L 20 188 L 24 188 L 52 188 L 56 188 L 56 200 L 52 200 L 48 200 L 40 200 L 36 200 L 28 200 L 24 200 L 24 204 L 24 220 L 24 224 L 28 224 L 36 224 L 40 224 L 48 224 L 52 224 L 60 224 L 64 224 L 72 224 L 76 224 L 76 220 L 76 204 L 80 204 L 80 232 L 80 236 L 84 236 L 92 236 L 92.151001 236 L 96 236 L 96.151001 236 L 104.151001 236 L 104.302002 236 L 108.151001 236 L 108.302002 236 L 116.302002 236 L 116.454002 236 L 120.302002 236 L 120.454002 236 L 128.45401 236 L 128.605011 236 L 132.453003 236 L 132.604004 236 L 140.151001 236 L 140.604004 236 L 144.151001 236 L 144.604004 236 L 156.151001 236 L 160.151001 236 L 160.151001 232 L 160.151001 200 L 160.151001 196 L 160.151001 164 L 160.151001 160 L 156.151001 160 L 152 160 L 152 156 L 156 156 L 160 156 L 168 156 L 172 156 L 180 156 L 184 156 L 184 156.074997 L 184 176.074997 L 184 180.074997 L 184 200.074997 L 184 204.074997 L 184 224.074997 L 184 228.074997 L 188 228.074997 L 196 228.074997 L 200 228.074997 L 200 228 L 207.862 228 L 208 228 L 208 236 L 208 240 L 212 240 L 220 240 L 224 240 L 224 236 L 224 204 L 224 200 L 224 168 L 224 164 L 232 164 L 236 164 L 236 160 L 236 128 L 236 124 L 236 100 L 240 100 L 240 96 L 240 60 L 240 56 L 240 24 L 240 20 L 236 20 L 224 20 L 220 20 L 220 24 L 208 24 L 204 24 L 192 24 L 188 24 L 176 24 L 172 24 L 160 24 L 156 24 L 156 28 L 156 60 L 156 64 L 156 96 L 152 96 L 148 96 L 144 96 L 144 60 L 144 56 L 144 20 L 144 16 L 140 16 L 128 16 L 124 16 L 112 16 L 108 16 L 96 16 L 92 16 L 80 16 L 76 16 L 76 20 L 72 20 L 32 20 L 28 20 L 28 24 L 28 40 L 28 44 L 32 44 L 72 44 L 76 44 L 76 56 L 76 60 L 76 96 L 68 96 L 64 96 L 64 100 L 64 104.423004 L 60 104.423004 L 52 104.423004 L 52 104 L 48 104 L 40 104 L 40 103.576996 L 36 103.576996 L 28 103.576996 Z"/>
</svg>
