<?xml version="1.0" encoding="UTF-8"?>
<!-- Generated by Pixelmator Pro 3.7.1 -->
<svg width="256" height="256" viewBox="0 0 256 256" xmlns="http://www.w3.org/2000/svg">
    <path id="Path" fill="#ffffff" stroke="none" d="M 179.148407 60.001007 L 143.720398 60.001007 C 140.284409 60.001007 137.055405 61.339005 134.627396 63.768997 L 119.806404 78.589996 C 121.440399 75.320999 121.625404 71.449005 120.169403 67.938004 C 118.1744 63.117004 113.512398 60.001007 108.292397 60.001007 L 72.863396 60.001007 C 65.774399 60.001007 60.006401 65.768997 60.006401 72.858002 C 60.006401 79.947006 65.774399 85.714996 72.863396 85.714996 L 77.252396 85.714996 L 63.773399 99.195999 C 61.344398 101.621994 60.006401 104.850006 60.006401 108.285995 L 60.006401 143.714996 C 60.006401 148.934998 63.122398 153.597992 67.945396 155.593002 C 69.511398 156.240997 71.164398 156.569 72.858398 156.569 C 74.884399 156.569 76.837402 156.104996 78.597397 155.227997 L 63.773399 170.053009 C 60.082397 173.740997 58.987396 179.240997 60.985397 184.063995 C 62.982399 188.88501 67.645401 192 72.863396 192 L 108.292397 192 C 111.725403 192 114.9534 190.661987 117.382401 188.233002 L 132.206406 173.410004 C 130.572403 176.679993 130.386398 180.552002 131.842407 184.063995 C 133.838394 188.88501 138.502396 192 143.720398 192 L 179.148407 192 C 186.238403 192 192.005402 186.231995 192.005402 179.143005 C 192.005402 172.054001 186.238403 166.286011 179.148407 166.286011 L 174.759399 166.286011 L 188.239395 152.804993 C 190.668396 150.380005 192.005402 147.149994 192.005402 143.714996 L 192.005402 108.285995 C 192.005402 103.065994 188.889404 98.403 184.067398 96.408005 C 182.502396 95.757996 180.847397 95.427994 179.150406 95.427994 C 177.127396 95.427994 175.177399 95.891006 173.419403 96.768997 L 188.239395 81.949005 C 191.930405 78.259995 193.025406 72.759003 191.026398 67.938004 C 189.031403 63.117004 184.3694 60.001007 179.148407 60.001007 M 179.148407 64.001007 C 182.7314 64.001007 185.960403 66.158005 187.331406 69.468994 C 188.7034 72.778 187.945404 76.587006 185.411407 79.119995 L 94.247398 170.286011 L 104.623398 170.286011 L 172.886398 102.024002 C 174.581406 100.328003 176.846405 99.427994 179.150406 99.427994 C 180.292404 99.427994 181.442398 99.647995 182.537399 100.104004 C 185.848404 101.473999 188.005402 104.703995 188.005402 108.285995 L 188.005402 143.714996 C 188.005402 146.063995 187.073395 148.31601 185.411407 149.97699 L 165.103394 170.286011 L 179.148407 170.286011 C 184.041397 170.286011 188.005402 174.251007 188.005402 179.143005 C 188.005402 184.035004 184.041397 188 179.148407 188 L 143.720398 188 C 140.137405 188 136.908401 185.841003 135.538406 182.53299 C 134.166397 179.222992 134.923401 175.412994 137.458405 172.880997 L 170.292404 140.046997 L 170.292404 129.667999 L 114.554398 185.404999 C 112.893402 187.065002 110.641396 188 108.292397 188 L 72.863396 188 C 69.280403 188 66.051399 185.841003 64.681396 182.53299 C 63.309402 179.222992 64.066399 175.412994 66.601402 172.880997 L 157.765396 81.714996 L 147.389404 81.714996 L 79.126396 149.97699 C 77.431396 151.67099 75.163399 152.569 72.858398 152.569 C 71.718399 152.569 70.568398 152.350006 69.474396 151.897003 C 66.163399 150.527008 64.006401 147.29599 64.006401 143.714996 L 64.006401 108.285995 C 64.006401 105.936996 64.9394 103.684998 66.601402 102.024002 L 86.908401 81.714996 L 72.863396 81.714996 C 67.971397 81.714996 64.006401 77.75 64.006401 72.858002 C 64.006401 67.966003 67.971397 64.001007 72.863396 64.001007 L 108.292397 64.001007 C 111.874397 64.001007 115.104401 66.158005 116.474403 69.468994 C 117.846405 72.778 117.088402 76.587006 114.554398 79.119995 L 81.720398 111.956009 L 81.720398 122.333008 L 137.458405 66.595993 C 139.1194 64.932999 141.371399 64.001007 143.720398 64.001007 L 179.148407 64.001007"/>
    <path id="path1" fill="#ffffff" stroke="none" d="M 244 244 L 12 244 L 12 12 L 244 12 Z M 244 8 L 12 8 L 8 8 L 8 12 L 8 244 L 8 248 L 12 248 L 244 248 L 248 248 L 248 244 L 248 12 L 248 8 Z"/>
</svg>
