<?xml version="1.0" encoding="UTF-8"?>
<!-- Generated by Pixelmator Pro 3.7.1 -->
<svg width="256" height="256" viewBox="0 0 256 256" xmlns="http://www.w3.org/2000/svg">
    <path id="Path" fill="#ffffff" stroke="none" d="M 224 36 L 232 36 L 232 40 L 224 40 Z M 244 238.727997 C 244 241.643005 241.643997 244 238.727997 244 L 220 244 L 220 165.600006 C 220 160.307007 215.514008 156 210 156 L 66 156 C 60.486 156 56 160.307007 56 165.600006 L 56 244 L 33.091 244 L 12 217.636993 L 12 17.272003 C 12 14.356995 14.357 12 17.271999 12 L 32 12 L 32 122.199997 C 32 127.604004 36.222 132 41.411999 132 L 214.587997 132 C 219.776993 132 224 127.604004 224 122.199997 L 224 44 L 236 44 L 236 32 L 224 32 L 224 12 L 238.727997 12 C 241.643997 12 244 14.356995 244 17.272003 Z M 216 244 L 192 244 L 192 175.272003 C 192 168.950989 187.927002 164 182.727997 164 L 77.272003 164 C 72.072998 164 68 168.950989 68 175.272003 L 68 244 L 60 244 L 60 165.600006 C 60 162.502991 62.681999 160 66 160 L 210 160 C 213.317993 160 216 162.502991 216 165.600006 Z M 188 244 L 72 244 L 72 175.272003 C 72 171.251007 74.357002 168 77.272003 168 L 182.727997 168 C 185.643997 168 188 171.251007 188 175.272003 Z M 36 12 L 220 12 L 220 122.199997 C 220 125.406998 217.580994 128 214.587997 128 L 41.411999 128 C 38.418999 128 36 125.406998 36 122.199997 Z M 238.727997 8 L 224 8 L 220 8 L 36 8 L 32 8 L 17.271999 8 C 12.16 8 8 12.160004 8 17.272003 L 8 217.636993 L 8 219.039001 L 8.876 220.134995 L 29.968 246.498993 L 31.167999 248 L 33.091 248 L 56 248 L 60 248 L 216 248 L 220 248 L 238.727997 248 C 243.839996 248 248 243.839996 248 238.727997 L 248 17.272003 C 248 12.160004 243.839996 8 238.727997 8"/>
    <path id="path1" fill="#ffffff" stroke="none" d="M 164 60 L 168 72 L 160 72 Z M 156 80 L 157.600006 76 L 170.399994 76 L 172 80 L 176 80 L 174.666992 76 L 176 76 L 176 76.535995 C 176 78.449005 177.550995 80 179.464005 80 L 188 80 L 188 76 L 180 76 L 180 60 L 192 60 L 192 80 L 196 80 L 196 68 L 196 56 L 192 56 L 179.578003 56 C 177.602005 56 176 57.602005 176 59.578003 L 176 60 L 176 72 L 173.333008 72 L 168 56 L 160 56 L 152 80 Z"/>
    <path id="path2" fill="#ffffff" stroke="none" d="M 212 80 L 201.333008 68 L 212 56 L 206.666992 56 L 196 68 L 206.666992 80 Z"/>
    <path id="path3" fill="#ffffff" stroke="none" d="M 84 60 L 88 72 L 80 72 Z M 140 68 L 144 68 L 146 68 C 147.104004 68 148 68.895996 148 70 L 148 72 L 148 74 C 148 75.104004 147.104004 76 146 76 L 140 76 Z M 140 60 L 146 60 C 147.104004 60 148 60.895996 148 62 C 148 63.104004 147.104004 64 146 64 L 140 64 Z M 48 72 L 56 72 L 56 68 L 48 68 L 48 60 L 60 60 L 60 76 C 60 78.209 61.791 80 64 80 L 68 80 L 72 80 L 76 80 L 77.333 76 L 90.667 76 L 92 80 L 96 80 L 100 80 L 108 80 C 110.209 80 112 78.209 112 76 L 112 68 C 112 65.791 110.209 64 108 64 L 100 64 L 100 60 L 116 60 L 116 80 L 120 80 L 120 68 L 128 68 L 128 80 L 132 80 L 132 68 L 136 68 L 136 76 L 136 80 L 140 80 L 148 80 C 150.209 80 152 78.209 152 76 L 152 72 C 152 69.791 150.209 68 148 68 C 150.209 68 152 66.209 152 64 L 152 60 C 152 57.791 150.209 56 148 56 L 140 56 L 136 56 L 136 60 L 136 64 L 132 64 L 132 56 L 128 56 L 128 64 L 120 64 L 120 56 L 116 56 L 100 56 C 97.791 56 96 57.791 96 60 L 96 64 C 96 66.209 97.791 68 100 68 L 106 68 C 107.104004 68 108 68.895996 108 70 L 108 74 C 108 75.104004 107.104004 76 106 76 L 100 76 L 96 76 L 94.667 76 L 88 56 L 80 56 L 73.333 76 L 72 76 L 68 76 L 64 76 L 64 60 L 64 56 L 60 56 L 48 56 C 45.791 56 44 57.791 44 60 L 44 80 L 48 80 Z"/>
    <path id="path4" fill="#ffffff" stroke="none" d="M 88 176 L 116 176 L 116 232 L 88 232 Z M 84 236 L 120 236 L 120 172 L 84 172 Z"/>
</svg>
