<?xml version="1.0" encoding="UTF-8"?>
<!-- Generated by Pixelmator Pro 3.7.1 -->
<svg width="256" height="256" viewBox="0 0 256 256" xmlns="http://www.w3.org/2000/svg">
    <path id="Path" fill="#ffffff" stroke="none" d="M 244 204 L 228 204 L 224 204 L 36 204 L 32 204 L 12 204 L 12 23.869003 C 12 21.710999 13.710007 19.942993 15.867004 19.871002 L 131.862 16.003998 C 131.906006 16.003006 131.950989 16.001999 131.994995 16.001999 C 132.042999 16.001999 132.091003 16.003006 132.138 16.005005 L 240.143005 19.862 C 242.294998 19.938995 244 21.705994 244 23.860001 Z M 244 220 C 244 222.209 242.209 224 240 224 L 228 224 L 228 208 L 244 208 Z M 224 224 L 36 224 L 36 208 L 224 208 Z M 224 236 L 208 236 L 204 236 L 192 236 L 188 236 L 68 236 L 64 236 L 52 236 L 48 236 L 36 236 L 36 228 L 224 228 Z M 200 244 L 196 244 C 193.791 244 192 242.209 192 240 L 204 240 C 204 242.209 202.209 244 200 244 M 60 244 L 56 244 C 53.791 244 52 242.209 52 240 L 64 240 C 64 242.209 62.209 244 60 244 M 32 224 L 16 224 C 13.791 224 12 222.209 12 220 L 12 208 L 32 208 Z M 240.285004 15.865005 L 132.281006 12.007004 C 132.186005 12.003998 132.091003 12.001999 131.994995 12.001999 C 131.906006 12.001999 131.81601 12.003998 131.727997 12.007004 L 15.733002 15.873993 C 11.397003 16.018005 8 19.529999 8 23.869003 L 8 220 C 8 224.410995 11.589005 228 16 228 L 32 228 L 32 236 L 32 240 L 36 240 L 48 240 C 48 244.410995 51.589005 248 56 248 L 60 248 C 64.410995 248 68 244.410995 68 240 L 188 240 C 188 244.410995 191.589005 248 196 248 L 200 248 C 204.410995 248 208 244.410995 208 240 L 224 240 L 228 240 L 228 236 L 228 228 L 240 228 C 244.410995 228 248 224.410995 248 220 L 248 23.860001 C 248 19.531006 244.610992 16.020004 240.285004 15.865005"/>
    <path id="path1" fill="#ffffff" stroke="none" d="M 228 188 C 228 190.209 226.209 192 224 192 L 32 192 C 29.791 192 28 190.209 28 188 L 28 40 C 28 37.791 29.791 36 32 36 L 224 36 C 226.209 36 228 37.791 228 40 Z M 224 32 L 32 32 C 27.589005 32 24 35.589005 24 40 L 24 188 C 24 192.410995 27.589005 196 32 196 L 224 196 C 228.410995 196 232 192.410995 232 188 L 232 40 C 232 35.589005 228.410995 32 224 32"/>
    <path id="path2" fill="#ffffff" stroke="none" d="M 216 172 C 216 176.417999 212.417999 180 208 180 L 48 180 C 43.582001 180 40 176.417999 40 172 L 40 56 C 40 51.582001 43.582001 48 48 48 L 208 48 C 212.417999 48 216 51.582001 216 56 Z M 208 44 L 48 44 C 41.382996 44 36 49.382996 36 56 L 36 172 C 36 178.617004 41.382996 184 48 184 L 208 184 C 214.617004 184 220 178.617004 220 172 L 220 56 C 220 49.382996 214.617004 44 208 44"/>
    <path id="path3" fill="#ffffff" stroke="none" d="M 52 60 L 204 60 L 204 168 L 148 168 L 148 152 L 148 148 L 148 140 L 148 136 L 144 136 L 144 132 L 144 128 L 140 128 L 140 124 L 144 124 L 144 128 L 148 128 L 156 128 L 160 128 L 160 124 L 160 120 L 160 116 L 156 116 L 156 112 L 156 108 L 152 108 L 152 104 L 148 104 L 148 100 L 148 96 L 144 96 L 144 92 L 144 88 L 140 88 L 140 72 L 140 68 L 140 64 L 136 64 L 128 64 L 124 64 L 120 64 L 116 64 L 112 64 L 108 64 L 108 68 L 104 68 L 104 72 L 104 84 L 100 84 L 100 88 L 96 88 L 96 92 L 96 104 L 96 108 L 100 108 L 100 112 L 104 112 L 104 116 L 104 120 L 104 124 L 108 124 L 108 128 L 108 152 L 108 156 L 112 156 L 112 164 L 112 168 L 52 168 Z M 144 148 L 144 152 L 144 168 L 136 168 L 136 152 L 132 152 L 132 148 L 128 148 L 128 140 L 124 140 L 124 152 L 124 168 L 116 168 L 116 164 L 116 152 L 112 152 L 112 128 L 116 128 L 116 124 L 112 124 L 112 120 L 108 120 L 108 116 L 108 108 L 104 108 L 104 104 L 100 104 L 100 92 L 104 92 L 104 88 L 108 88 L 108 84 L 112 84 L 112 80 L 108 80 L 108 72 L 112 72 L 112 68 L 116 68 L 116 84 L 120 84 L 120 72 L 124 72 L 124 68 L 128 68 L 136 68 L 136 72 L 136 88 L 132 88 L 132 92 L 136 92 L 140 92 L 140 100 L 144 100 L 144 108 L 148 108 L 148 112 L 144 112 L 144 116 L 152 116 L 152 120 L 156 120 L 156 124 L 148 124 L 148 120 L 144 120 L 144 116 L 140 116 L 136 116 L 136 124 L 136 128 L 136 132 L 140 132 L 140 140 L 144 140 Z M 132 168 L 128 168 L 128 156 L 132 156 Z M 48 172 L 208 172 L 208 56 L 48 56 Z"/>
    <path id="path4" fill="#ffffff" stroke="none" d="M 112 92 L 104 92 L 104 96 L 112 96 Z"/>
    <path id="path5" fill="#ffffff" stroke="none" d="M 132 120 L 132 96 L 132 92 L 124 92 L 124 84 L 120 84 L 120 96 L 124 96 L 128 96 L 128 120 L 120 120 L 120 96 L 116 96 L 116 120 L 116 124 L 132 124 Z"/>
    <path id="path6" fill="#ffffff" stroke="none" d="M 112 92 L 116 92 L 116 88 L 116 84 L 112 84 L 112 88 Z"/>
</svg>
