<?xml version="1.0" encoding="UTF-8"?>
<!-- Generated by Pixelmator Pro 3.7.1 -->
<svg width="256" height="256" viewBox="0 0 256 256" xmlns="http://www.w3.org/2000/svg">
    <path id="Path" fill="#ffffff" stroke="none" d="M 192 180 C 192 180 188.419998 188 184 188 L 72 188 C 67.580002 188 64 180 64 180 L 48 124 C 48 119.580002 51.580002 116 56 116 L 60 116 L 64 116 L 192 116 L 196 116 L 200 116 C 204.419998 116 208 119.580002 208 124 Z M 64 108 L 64 84 C 64 75.156006 71.155998 68 80 68 L 112 68 C 120.844002 68 128 75.156006 128 84 L 176 84 C 184.843994 84 192 91.156006 192 100 L 192 108 L 192 112 L 64 112 Z M 200 112 L 196 112 L 196 108 L 196 100 C 196 88.972 187.028 80 176 80 L 131.598999 80 C 129.738998 70.882004 121.657997 64 112 64 L 80 64 C 68.972 64 60 72.972 60 84 L 60 108 L 60 112 L 56 112 C 49.382996 112 44 117.382996 44 124 L 44 124.559998 L 44.154007 125.098999 L 60.154007 181.098999 L 60.231995 181.373001 L 60.348999 181.634003 C 61.123993 183.36499 65.325996 192 72 192 L 184 192 C 190.673996 192 194.876999 183.36499 195.651001 181.634003 L 195.768005 181.373001 L 195.845993 181.098999 L 211.846008 125.098999 L 212 124.559998 L 212 124 C 212 117.382996 206.617004 112 200 112"/>
    <path id="path1" fill="#ffffff" stroke="none" d="M 220 36 L 36 36 L 36 220 L 220 220 Z M 216 216 L 40 216 L 40 40 L 216 40 Z"/>
</svg>
