<?xml version="1.0" encoding="UTF-8"?>
<!-- Generated by Pixelmator Pro 3.7.1 -->
<svg width="256" height="256" viewBox="0 0 256 256" xmlns="http://www.w3.org/2000/svg">
    <path id="Path" fill="#ffffff" stroke="none" d="M 119.936501 155.936493 C 120.691498 155.180496 121.696503 154.764496 122.764503 154.764496 C 123.833504 154.764496 124.837502 155.180496 125.593498 155.936493 C 127.152496 157.49649 127.152496 160.033508 125.593498 161.593506 C 124.837502 162.348511 123.833504 162.764496 122.764503 162.764496 C 121.696503 162.764496 120.691498 162.348511 119.936501 161.593506 C 119.181503 160.837494 118.764503 159.832489 118.764503 158.764496 C 118.764503 157.696503 119.181503 156.692505 119.936501 155.936493 M 122.764503 166.764496 C 124.8125 166.764496 126.859497 165.98349 128.421494 164.421509 C 131.545502 161.297501 131.545502 156.232498 128.421494 153.10849 C 126.859497 151.545502 124.8125 150.764496 122.764503 150.764496 C 120.717499 150.764496 118.669502 151.545502 117.107498 153.10849 C 113.983498 156.232498 113.983498 161.297501 117.107498 164.421509 C 118.669502 165.98349 120.717499 166.764496 122.764503 166.764496"/>
    <path id="path1" fill="#ffffff" stroke="none" d="M 105.794403 141.7939 C 105.039398 142.549896 104.034401 142.965897 102.965401 142.965897 C 101.8974 142.965897 100.893402 142.549896 100.137398 141.7939 L 83.167397 124.823898 C 82.4114 124.067902 81.995399 123.063904 81.995399 121.994904 C 81.995399 120.926895 82.4114 119.921906 83.167397 119.166901 C 83.922401 118.410904 84.926399 117.994904 85.995399 117.994904 C 87.0644 117.994904 88.068398 118.410904 88.823402 119.166901 L 105.794403 136.137909 C 106.5494 136.892899 106.965401 137.897903 106.965401 138.965897 C 106.965401 140.033905 106.5494 141.03891 105.794403 141.7939 M 91.652397 116.337906 C 90.089401 114.775894 88.043404 113.994904 85.995399 113.994904 C 83.947403 113.994904 81.900398 114.775894 80.338402 116.337906 C 77.214401 119.462906 77.214401 124.527893 80.338402 127.651901 L 97.309402 144.622894 C 98.871399 146.184906 100.918404 146.965897 102.965401 146.965897 C 105.013397 146.965897 107.060402 146.184906 108.622398 144.622894 C 111.747398 141.497894 111.747398 136.433899 108.622398 133.308899 Z"/>
    <path id="path2" fill="#ffffff" stroke="none" d="M 240 196 L 224 196 L 220 196 L 216 196 L 212 196 L 120 196 L 116 196 L 16 196 L 16 52 L 20 52 L 20 112 L 20.050995 112 C 21.104004 140.895996 44.848007 164 74 164 C 83.828995 164 93.035004 161.360992 100.973999 156.772003 L 112.864998 168.664001 C 115.507004 171.306 119.022003 172.76001 122.764999 172.76001 C 126.507004 172.76001 130.02301 171.306 132.664001 168.664001 C 138.123001 163.205994 138.123001 154.324005 132.664001 148.865005 L 120.773003 136.973999 C 125.047997 129.576996 127.617996 121.076996 127.948997 112 L 128 112 C 127.999001 111.975998 127.997002 111.951996 127.996002 111.927002 L 127.996002 110.149002 C 127.996002 110.100006 128 110.050003 128 110 C 128 109.949997 127.996002 109.899994 127.996002 109.850998 L 127.996002 52 L 236 52 L 240 52 Z M 240 220 L 208 220 L 208 200 L 212 200 L 212 208 L 216 208 L 216 200 L 220 200 L 220 208 L 224 208 L 224 200 L 240 200 Z M 204 220 L 192 220 L 192 200 L 204 200 Z M 188 220 L 16 220 L 16 200 L 116 200 L 116 208 L 120 208 L 120 200 L 188 200 Z M 20 36 L 24 36 L 24 48 L 20 48 Z M 28 36 L 32 36 L 32 48 L 28 48 Z M 36 36 L 40 36 L 40 48 L 36 48 Z M 44 36 L 48 36 L 48 48 L 44 48 Z M 52 36 L 56 36 L 56 48 L 52 48 Z M 60 36 L 64 36 L 64 48 L 60 48 Z M 68 36 L 72 36 L 72 48 L 68 48 Z M 76 36 L 80 36 L 80 48 L 76 48 Z M 84 36 L 88 36 L 88 48 L 84 48 Z M 92 36 L 96 36 L 96 48 L 92 48 Z M 100 36 L 104 36 L 104 48 L 100 48 Z M 108 36 L 112 36 L 112 48 L 108 48 Z M 116 36 L 120 36 L 120 48 L 116 48 Z M 123.996002 89.588989 C 115.944 69.886993 96.598999 56 74 56 C 51.397003 56 32.050003 69.891998 24 89.598999 L 24 52 L 123.996002 52 Z M 112.864998 129.06601 L 110.037003 126.238007 L 95.895004 112.096008 C 93.253006 109.455002 89.738007 108 85.994995 108 C 82.253006 108 78.737 109.455002 76.095993 112.096008 C 70.636993 117.554993 70.636993 126.436005 76.095993 131.894989 L 90.238007 146.037003 L 93.065994 148.865005 L 98.031998 153.830994 C 90.895996 157.759003 82.705994 160 74 160 C 46.429993 160 24 137.570007 24 110 C 24 82.429993 46.429993 60 74 60 C 101.520004 60 123.915001 82.350006 123.996002 109.850998 L 123.996002 110.149002 C 123.971001 118.799011 121.736 126.936996 117.831001 134.031006 Z M 118.593002 140.451004 L 129.835999 151.692993 C 133.735001 155.593002 133.735001 161.936996 129.835999 165.835999 C 127.886002 167.785004 125.325996 168.76001 122.764999 168.76001 C 120.205002 168.76001 117.642998 167.785004 115.694 165.835999 L 104.451004 154.593994 C 109.998001 150.798996 114.797997 145.997009 118.593002 140.451004 M 101.552994 151.695007 L 95.895004 146.037003 L 93.065994 143.209 L 78.923996 129.06601 C 75.024994 125.166992 75.024994 118.822998 78.923996 114.924011 C 80.873993 112.975006 83.434998 112 85.994995 112 C 88.556 112 91.117004 112.975006 93.065994 114.924011 L 107.207993 129.06601 L 110.037003 131.894989 L 115.695 137.553009 C 111.977005 143.160995 107.160995 147.977005 101.552994 151.695007 M 124 36 L 128 36 L 128 48 L 124 48 Z M 132 36 L 136 36 L 136 48 L 132 48 Z M 140 36 L 144 36 L 144 48 L 140 48 Z M 148 36 L 152 36 L 152 48 L 148 48 Z M 156 36 L 160 36 L 160 48 L 156 48 Z M 164 36 L 168 36 L 168 48 L 164 48 Z M 172 36 L 176 36 L 176 48 L 172 48 Z M 180 36 L 184 36 L 184 48 L 180 48 Z M 188 36 L 192 36 L 192 48 L 188 48 Z M 196 36 L 200 36 L 200 48 L 196 48 Z M 204 36 L 208 36 L 208 48 L 204 48 Z M 212 36 L 216 36 L 216 48 L 212 48 Z M 220 36 L 224 36 L 224 48 L 220 48 Z M 228 36 L 236 36 L 236 48 L 228 48 Z M 240 48 L 240 36 L 240 32 L 236 32 L 20 32 L 16 32 L 16 36 L 16 48 L 12 48 L 12 52 L 12 220 L 12 224 L 16 224 L 240 224 L 244 224 L 244 220 L 244 52 L 244 48 Z"/>
</svg>
