<?xml version="1.0" encoding="UTF-8"?>
<!-- Generated by Pixelmator Pro 3.7.1 -->
<svg width="256" height="256" viewBox="0 0 256 256" xmlns="http://www.w3.org/2000/svg">
    <path id="Path" fill="#ffffff" stroke="none" d="M 243.981003 118.272095 L 232.429001 202.181091 C 232.393005 202.583099 232.236008 202.946106 232 203.241104 L 232 200.000092 L 232 180.000092 L 232 176.000092 L 232 168.000092 L 232 164.000092 L 232 156.000092 L 232 152.000092 L 232 144.000092 L 232 140.000092 L 232 132.000092 L 232 128.000092 L 232 120.000107 L 232 116.000107 L 240 116.000107 L 241.994995 116.000107 C 243.210007 116.000107 244.145996 117.071106 243.981003 118.272095 M 168 204.000092 L 168 200.000092 L 168 192.000092 L 180 192.000092 L 180 200.000092 L 180 204.000092 Z M 25.568007 204.000092 C 24.531004 204.000092 23.665007 203.211105 23.570997 202.181091 L 12.018994 118.272095 C 11.854001 117.071106 12.790006 116.000107 14.005002 116.000107 L 15.999997 116.000107 L 43.999996 116.000107 L 43.999996 120.000107 L 43.999996 128.000092 L 43.999996 132.000092 L 43.999996 140.000092 L 35.999996 140.000092 L 35.999996 138.000092 L 35.999996 130.000092 L 35.999996 126.000107 L 31.999998 126.000107 L 23.999998 126.000107 L 19.999998 126.000107 L 19.999998 130.000092 L 19.999998 138.000092 L 19.999998 142.000092 L 19.999998 144.000092 L 19.999998 152.000092 L 19.999998 156.000092 L 19.999998 164.000092 L 19.999998 168.000092 L 23.999998 168.000092 L 23.999998 176.000092 L 23.999998 180.000092 L 27.999998 180.000092 L 27.999998 188.000092 L 27.999998 192.000092 L 31.999998 192.000092 L 39.999996 192.000092 L 39.999996 200.000092 L 39.999996 204.000092 Z M 220 180.000092 L 228 180.000092 L 228 200.000092 L 220 200.000092 Z M 220 144.000092 L 228 144.000092 L 228 152.000092 L 220 152.000092 Z M 228 176.000092 L 220 176.000092 L 220 168.000092 L 228 168.000092 Z M 220 156.000092 L 228 156.000092 L 228 164.000092 L 220 164.000092 Z M 216 132.000092 L 228 132.000092 L 228 140.000092 L 216 140.000092 Z M 208 192.000092 L 216 192.000092 L 216 200.000092 L 208 200.000092 Z M 200 132.000092 L 212 132.000092 L 212 140.000092 L 200 140.000092 Z M 204 152.000092 L 196 152.000092 L 196 144.000092 L 204 144.000092 Z M 184 192.000092 L 204 192.000092 L 204 200.000092 L 184 200.000092 Z M 184 120.000107 L 196 120.000107 L 196 128.000092 L 184 128.000092 Z M 184 144.000092 L 192 144.000092 L 192 152.000092 L 184 152.000092 Z M 184 156.000092 L 192 156.000092 L 192 164.000092 L 184 164.000092 Z M 192 188.000092 L 184 188.000092 L 184 180.000092 L 192 180.000092 Z M 184 168.000092 L 192 168.000092 L 192 176.000092 L 184 176.000092 Z M 184 132.000092 L 196 132.000092 L 196 140.000092 L 184 140.000092 Z M 196 156.000092 L 204 156.000092 L 204 164.000092 L 196 164.000092 Z M 204 188.000092 L 196 188.000092 L 196 180.000092 L 204 180.000092 Z M 196 168.000092 L 204 168.000092 L 204 176.000092 L 196 176.000092 Z M 212 128.000092 L 200 128.000092 L 200 120.000107 L 212 120.000107 Z M 208 144.000092 L 216 144.000092 L 216 152.000092 L 208 152.000092 Z M 208 156.000092 L 216 156.000092 L 216 164.000092 L 208 164.000092 Z M 216 188.000092 L 208 188.000092 L 208 180.000092 L 216 180.000092 Z M 208 168.000092 L 216 168.000092 L 216 176.000092 L 208 176.000092 Z M 228 128.000092 L 216 128.000092 L 216 120.000107 L 228 120.000107 Z M 168 180.000092 L 180 180.000092 L 180 188.000092 L 168 188.000092 Z M 160 164.000092 L 160 156.000092 L 180 156.000092 L 180 160.000092 L 180 164.000092 L 180 176.000092 L 164 176.000092 L 164 164.000092 Z M 156 192.000092 L 164 192.000092 L 164 200.000092 L 156 200.000092 Z M 164 188.000092 L 156 188.000092 L 156 180.000092 L 164 180.000092 Z M 152 168.000092 L 160 168.000092 L 160 176.000092 L 152 176.000092 Z M 72 192.000092 L 152 192.000092 L 152 200.000092 L 72 200.000092 Z M 68 168.000092 L 76 168.000092 L 76 176.000092 L 68 176.000092 Z M 55.999996 192.000092 L 68 192.000092 L 68 200.000092 L 55.999996 200.000092 Z M 47.999996 180.000092 L 55.999996 180.000092 L 55.999996 188.000092 L 47.999996 188.000092 Z M 31.999998 180.000092 L 43.999996 180.000092 L 43.999996 188.000092 L 31.999998 188.000092 Z M 43.999996 152.000092 L 35.999996 152.000092 L 35.999996 144.000092 L 43.999996 144.000092 Z M 47.999996 164.000092 L 39.999996 164.000092 L 39.999996 156.000092 L 47.999996 156.000092 Z M 152 120.000107 L 152 128.000092 L 152 132.000092 L 152 140.000092 L 148 140.000092 L 148 132.000092 L 148 128.000092 L 148 120.000107 L 148 116.000107 L 152 116.000107 Z M 148 156.000092 L 156 156.000092 L 156 164.000092 L 148 164.000092 Z M 144 180.000092 L 152 180.000092 L 152 188.000092 L 144 188.000092 Z M 140 168.000092 L 148 168.000092 L 148 176.000092 L 140 176.000092 Z M 136 156.000092 L 144 156.000092 L 144 164.000092 L 136 164.000092 Z M 132 180.000092 L 140 180.000092 L 140 188.000092 L 132 188.000092 Z M 128 168.000092 L 136 168.000092 L 136 176.000092 L 128 176.000092 Z M 140 152.000092 L 132 152.000092 L 132 144.000092 L 140 144.000092 Z M 144 140.000092 L 128 140.000092 L 128 132.000092 L 144 132.000092 Z M 152 152.000092 L 144 152.000092 L 144 144.000092 L 152 144.000092 Z M 144 128.000092 L 128 128.000092 L 128 120.000107 L 144 120.000107 Z M 124 156.000092 L 132 156.000092 L 132 164.000092 L 124 164.000092 Z M 120 180.000092 L 128 180.000092 L 128 188.000092 L 120 188.000092 Z M 116 168.000092 L 124 168.000092 L 124 176.000092 L 116 176.000092 Z M 112 156.000092 L 120 156.000092 L 120 164.000092 L 112 164.000092 Z M 108 180.000092 L 116 180.000092 L 116 188.000092 L 108 188.000092 Z M 116 152.000092 L 108 152.000092 L 108 144.000092 L 116 144.000092 Z M 124 140.000092 L 108 140.000092 L 108 132.000092 L 124 132.000092 Z M 128 152.000092 L 120 152.000092 L 120 144.000092 L 128 144.000092 Z M 124 128.000092 L 108 128.000092 L 108 120.000107 L 124 120.000107 Z M 104 168.000092 L 112 168.000092 L 112 176.000092 L 104 176.000092 Z M 100 156.000092 L 108 156.000092 L 108 164.000092 L 100 164.000092 Z M 96 180.000092 L 104 180.000092 L 104 188.000092 L 96 188.000092 Z M 92 168.000092 L 100 168.000092 L 100 176.000092 L 92 176.000092 Z M 88 156.000092 L 96 156.000092 L 96 164.000092 L 88 164.000092 Z M 84 180.000092 L 92 180.000092 L 92 188.000092 L 84 188.000092 Z M 80 168.000092 L 88 168.000092 L 88 176.000092 L 80 176.000092 Z M 72 144.000092 L 80 144.000092 L 80 152.000092 L 72 152.000092 Z M 84 128.000092 L 68 128.000092 L 68 120.000107 L 84 120.000107 Z M 92 152.000092 L 84 152.000092 L 84 144.000092 L 92 144.000092 Z M 104 152.000092 L 96 152.000092 L 96 144.000092 L 104 144.000092 Z M 88 120.000107 L 104 120.000107 L 104 128.000092 L 88 128.000092 Z M 104 140.000092 L 88 140.000092 L 88 132.000092 L 104 132.000092 Z M 68 132.000092 L 84 132.000092 L 84 140.000092 L 68 140.000092 Z M 63.999996 156.000092 L 72 156.000092 L 72 164.000092 L 63.999996 164.000092 Z M 59.999996 180.000092 L 68 180.000092 L 68 188.000092 L 59.999996 188.000092 Z M 55.999996 168.000092 L 63.999996 168.000092 L 63.999996 176.000092 L 55.999996 176.000092 Z M 51.999996 156.000092 L 59.999996 156.000092 L 59.999996 164.000092 L 51.999996 164.000092 Z M 63.999996 140.000092 L 47.999996 140.000092 L 47.999996 132.000092 L 63.999996 132.000092 Z M 68 152.000092 L 59.999996 152.000092 L 59.999996 144.000092 L 68 144.000092 Z M 63.999996 128.000092 L 47.999996 128.000092 L 47.999996 120.000107 L 63.999996 120.000107 Z M 51.999996 176.000092 L 43.999996 176.000092 L 43.999996 168.000092 L 51.999996 168.000092 Z M 47.999996 144.000092 L 55.999996 144.000092 L 55.999996 152.000092 L 47.999996 152.000092 Z M 80 188.000092 L 72 188.000092 L 72 180.000092 L 80 180.000092 Z M 76 156.000092 L 84 156.000092 L 84 164.000092 L 76 164.000092 Z M 156 120.000107 L 164 120.000107 L 164 128.000092 L 156 128.000092 Z M 164 152.000092 L 156 152.000092 L 156 144.000092 L 164 144.000092 Z M 156 132.000092 L 164 132.000092 L 164 140.000092 L 156 140.000092 Z M 180 152.000092 L 168 152.000092 L 168 144.000092 L 180 144.000092 Z M 168 120.000107 L 176 120.000107 L 176 128.000092 L 168 128.000092 Z M 176 140.000092 L 168 140.000092 L 168 132.000092 L 176 132.000092 Z M 27.999998 168.000092 L 39.999996 168.000092 L 39.999996 176.000092 L 27.999998 176.000092 Z M 35.999996 164.000092 L 23.999998 164.000092 L 23.999998 156.000092 L 35.999996 156.000092 Z M 23.999998 130.000092 L 31.999998 130.000092 L 31.999998 138.000092 L 23.999998 138.000092 Z M 31.999998 152.000092 L 23.999998 152.000092 L 23.999998 144.000092 L 31.999998 144.000092 Z M 51.999996 200.000092 L 43.999996 200.000092 L 43.999996 192.000092 L 51.999996 192.000092 Z M 11.999997 54.000092 C 11.999997 52.895096 12.895001 52.000092 13.999997 52.000092 L 242 52.000092 C 243.104996 52.000092 244 52.895096 244 54.000092 L 244 108.000107 C 244 110.209106 242.209 112.000107 240 112.000107 L 15.999997 112.000107 C 13.790998 112.000107 11.999997 110.209106 11.999997 108.000107 Z M 248 54.000092 C 248 50.691101 245.307999 48.000092 242 48.000092 L 13.999997 48.000092 C 10.691998 48.000092 7.999997 50.691101 7.999997 54.000092 L 7.999997 108.000107 C 7.999997 110.093094 8.815 111.995102 10.135007 113.423096 C 9.902997 113.619095 9.680005 113.827103 9.477002 114.059097 C 8.337995 115.366104 7.820004 117.100098 8.055997 118.8181 L 19.598997 202.658096 C 19.934004 205.711105 22.479994 208.000092 25.568007 208.000092 L 230.432007 208.000092 C 233.520004 208.000092 236.065994 205.711105 236.401001 202.658096 L 247.944 118.8181 C 248.179993 117.100098 247.662003 115.366104 246.522995 114.059097 C 246.320007 113.827103 246.097 113.619095 245.863998 113.423096 C 247.184998 111.995102 248 110.093094 248 108.000107 Z"/>
    <path id="path1" fill="#ffffff" stroke="none" d="M 200 60 L 228 60 L 228 76 L 200 76 Z M 196 80 L 232 80 L 232 76 L 240 76 L 240 72 L 232 72 L 232 68 L 240 68 L 240 64 L 232 64 L 232 60 L 240 60 L 240 56 L 232 56 L 196 56 L 16 56 L 16 60 L 196 60 L 196 64 L 16 64 L 16 68 L 196 68 L 196 72 L 16 72 L 16 76 L 196 76 Z"/>
    <path id="path2" fill="#ffffff" stroke="none" d="M 208 68 L 208 72 L 214 72 L 220 72 L 220 68 L 214 68 Z"/>
</svg>
