<?xml version="1.0" encoding="UTF-8"?>
<!-- Generated by Pixelmator Pro 3.7.1 -->
<svg width="256" height="256" viewBox="0 0 256 256" xmlns="http://www.w3.org/2000/svg">
    <path id="Path" fill="#ffffff" stroke="none" d="M 172 240 C 172 242.209 170.209 244 168 244 L 88 244 C 85.791 244 84 242.209 84 240 L 84 12 L 172 12 Z M 172 8 L 84 8 L 80 8 L 80 12 L 80 240 C 80 244.410995 83.588997 248 88 248 L 168 248 C 172.410995 248 176 244.410995 176 240 L 176 12 L 176 8 Z"/>
    <path id="path1" fill="#ffffff" stroke="none" d="M 116 54.0755 C 116 52.929504 117.114998 51.999496 118.490997 51.999496 L 137.509003 51.999496 C 138.884995 51.999496 140 52.929504 140 54.0755 L 140 161.9245 C 140 163.070496 138.884995 163.999512 137.509003 163.999512 L 118.490997 163.999512 C 117.114998 163.999512 116 163.070496 116 161.9245 Z M 118.943001 167.999512 L 137.057007 167.999512 C 140.884995 167.999512 144 165.274506 144 161.9245 L 144 54.0755 C 144 50.725494 140.884995 47.999496 137.057007 47.999496 L 118.943001 47.999496 C 115.114998 47.999496 112 50.725494 112 54.0755 L 112 161.9245 C 112 165.274506 115.114998 167.999512 118.943001 167.999512"/>
    <path id="path2" fill="#ffffff" stroke="none" d="M 136 223 C 136 223.552002 135.552002 224 135 224 L 121 224 C 120.447998 224 120 223.552002 120 223 L 120 209 C 120 208.447998 120.447998 208 121 208 L 135 208 C 135.552002 208 136 208.447998 136 209 Z M 136.399994 204 L 119.599998 204 C 117.614998 204 116 205.61499 116 207.600006 L 116 224.399994 C 116 226.384995 117.614998 228 119.599998 228 L 136.399994 228 C 138.384995 228 140 226.384995 140 224.399994 L 140 207.600006 C 140 205.61499 138.384995 204 136.399994 204"/>
    <path id="path3" fill="#ffffff" stroke="none" d="M 92 33.818207 C 92 32.814194 92.671997 32.000198 93.5 32.000198 L 102.5 32.000198 C 103.328003 32.000198 104 32.814194 104 33.818207 L 104 70.182205 C 104 71.186203 103.328003 72.000198 102.5 72.000198 L 93.5 72.000198 C 92.671997 72.000198 92 71.186203 92 70.182205 Z M 92 76.000198 L 104 76.000198 C 106.206001 76.000198 108 74.2052 108 72.000198 L 108 32.000198 C 108 29.794205 106.206001 28.000198 104 28.000198 L 102 28.000198 L 98 28.000198 L 92 28.000198 C 89.793999 28.000198 88 29.794205 88 32.000198 L 88 72.000198 C 88 74.2052 89.793999 76.000198 92 76.000198"/>
    <path id="path4" fill="#ffffff" stroke="none" d="M 92 180 L 164 180 L 164 176 L 92 176 Z"/>
    <path id="path5" fill="#ffffff" stroke="none" d="M 92 188 L 164 188 L 164 184 L 92 184 Z"/>
    <path id="path6" fill="#ffffff" stroke="none" d="M 92 196 L 164 196 L 164 192 L 92 192 Z"/>
</svg>
