<?xml version="1.0" encoding="UTF-8"?>
<!-- Generated by Pixelmator Pro 3.7.1 -->
<svg width="256" height="256" viewBox="0 0 256 256" xmlns="http://www.w3.org/2000/svg">
    <path id="Path" fill="#ffffff" stroke="none" d="M 242 203 C 242 203.552002 241.552002 204 241 204 L 240 204 L 240 200 L 240 180 L 240 176 L 240 168 L 240 164 L 240 156 L 240 152 L 240 144 L 240 140 L 240 136 L 240 128 L 240 124 L 240 116 L 241 116 C 241.552002 116 242 116.447998 242 117 Z M 168 204 L 168 200 L 168 192 L 184 192 L 188 192 L 188 200 L 188 204 Z M 15 204 C 14.447998 204 14 203.552002 14 203 L 14 117 C 14 116.447998 14.447998 116 15 116 L 16 116 L 36 116 L 36 124 L 32 124 L 24 124 L 20 124 L 20 128 L 20 136 L 20 140 L 20 144 L 20 152 L 20 156 L 20 164 L 20 168 L 20 176 L 20 180 L 20 188 L 20 192 L 24 192 L 36 192 L 36 200 L 36 204 Z M 236 124 L 220 124 L 220 116 L 236 116 Z M 228 180 L 236 180 L 236 200 L 228 200 Z M 228 144 L 236 144 L 236 152 L 228 152 Z M 236 176 L 228 176 L 228 168 L 236 168 Z M 228 156 L 236 156 L 236 164 L 228 164 Z M 220 128 L 236 128 L 236 136 L 220 136 Z M 224 152 L 216 152 L 216 144 L 224 144 Z M 216 192 L 224 192 L 224 200 L 216 200 Z M 216 156 L 224 156 L 224 164 L 216 164 Z M 224 188 L 216 188 L 216 180 L 224 180 Z M 216 168 L 224 168 L 224 176 L 216 176 Z M 208 128 L 216 128 L 216 136 L 208 136 Z M 212 152 L 204 152 L 204 144 L 212 144 Z M 204 192 L 212 192 L 212 200 L 204 200 Z M 204 156 L 212 156 L 212 164 L 204 164 Z M 212 188 L 204 188 L 204 180 L 212 180 Z M 204 168 L 212 168 L 212 176 L 204 176 Z M 188 116 L 204 116 L 204 124 L 188 124 Z M 208 116 L 216 116 L 216 124 L 208 124 Z M 180 124 L 172 124 L 172 116 L 180 116 Z M 168 144 L 184 144 L 184 152 L 168 152 Z M 184 188 L 164 188 L 164 180 L 184 180 Z M 152 192 L 164 192 L 164 200 L 152 200 Z M 144 180 L 152 180 L 152 188 L 144 188 Z M 60 180 L 68 180 L 68 188 L 60 188 Z M 48 180 L 56 180 L 56 188 L 48 188 Z M 40 192 L 48 192 L 48 200 L 40 200 Z M 44 188 L 24 188 L 24 180 L 44 180 Z M 44 152 L 36 152 L 36 144 L 44 144 Z M 40 128 L 60 128 L 60 136 L 40 136 Z M 60 124 L 40 124 L 40 116 L 60 116 Z M 82 124 L 62 124 L 62 116 L 82 116 Z M 104 124 L 84 124 L 84 116 L 104 116 Z M 126 124 L 106 124 L 106 116 L 126 116 Z M 148 124 L 128 124 L 128 116 L 148 116 Z M 156 124 L 156 128 L 156 136 L 156 140 L 152 140 L 152 136 L 152 128 L 152 124 L 152 116 L 156 116 Z M 160 116 L 168 116 L 168 124 L 160 124 Z M 160 128 L 168 128 L 168 136 L 160 136 Z M 156 144 L 164 144 L 164 152 L 156 152 Z M 148 156 L 156 156 L 156 164 L 148 164 Z M 144 144 L 152 144 L 152 152 L 144 152 Z M 140 168 L 148 168 L 148 176 L 140 176 Z M 136 156 L 144 156 L 144 164 L 136 164 Z M 132 180 L 140 180 L 140 188 L 132 188 Z M 128 168 L 136 168 L 136 176 L 128 176 Z M 140 152 L 132 152 L 132 144 L 140 144 Z M 128 128 L 148 128 L 148 136 L 128 136 Z M 124 156 L 132 156 L 132 164 L 124 164 Z M 120 180 L 128 180 L 128 188 L 120 188 Z M 116 168 L 124 168 L 124 176 L 116 176 Z M 112 156 L 120 156 L 120 164 L 112 164 Z M 108 180 L 116 180 L 116 188 L 108 188 Z M 104 168 L 112 168 L 112 176 L 104 176 Z M 116 152 L 108 152 L 108 144 L 116 144 Z M 128 152 L 120 152 L 120 144 L 128 144 Z M 126 136 L 106 136 L 106 128 L 126 128 Z M 100 156 L 108 156 L 108 164 L 100 164 Z M 96 180 L 104 180 L 104 188 L 96 188 Z M 92 168 L 100 168 L 100 176 L 92 176 Z M 88 156 L 96 156 L 96 164 L 88 164 Z M 84 180 L 92 180 L 92 188 L 84 188 Z M 92 152 L 84 152 L 84 144 L 92 144 Z M 104 152 L 96 152 L 96 144 L 104 144 Z M 84 128 L 104 128 L 104 136 L 84 136 Z M 80 168 L 88 168 L 88 176 L 80 176 Z M 76 156 L 84 156 L 84 164 L 76 164 Z M 72 180 L 80 180 L 80 188 L 72 188 Z M 68 168 L 76 168 L 76 176 L 68 176 Z M 64 156 L 72 156 L 72 164 L 64 164 Z M 80 152 L 72 152 L 72 144 L 80 144 Z M 62 128 L 82 128 L 82 136 L 62 136 Z M 60 144 L 68 144 L 68 152 L 60 152 Z M 56 168 L 64 168 L 64 176 L 56 176 Z M 52 156 L 60 156 L 60 164 L 52 164 Z M 48 144 L 56 144 L 56 152 L 48 152 Z M 40 156 L 48 156 L 48 164 L 40 164 Z M 44 168 L 52 168 L 52 176 L 44 176 Z M 160 188 L 156 188 L 156 180 L 160 180 Z M 152 168 L 160 168 L 160 176 L 152 176 Z M 172 128 L 180 128 L 180 136 L 172 136 Z M 40 176 L 24 176 L 24 168 L 40 168 Z M 36 164 L 24 164 L 24 156 L 36 156 Z M 24 128 L 32 128 L 32 136 L 24 136 Z M 32 152 L 24 152 L 24 144 L 32 144 Z M 64 200 L 52 200 L 52 192 L 64 192 Z M 148 200 L 68 200 L 68 192 L 148 192 Z M 184 164 L 184 176 L 164 176 L 164 164 L 160 164 L 160 156 L 184 156 L 184 160 L 164 160 L 164 164 Z M 188 128 L 204 128 L 204 136 L 188 136 Z M 200 152 L 192 152 L 192 144 L 200 144 Z M 200 200 L 192 200 L 192 192 L 200 192 Z M 200 188 L 192 188 L 192 180 L 200 180 Z M 192 156 L 200 156 L 200 164 L 192 164 Z M 200 176 L 192 176 L 192 168 L 200 168 Z M 14 90 L 14 53 C 14 52.447998 14.447998 52 15 52 L 196 52 L 196 56 L 16 56 L 16 60 L 196 60 L 196 64 L 16 64 L 16 68 L 196 68 L 196 72 L 16 72 L 16 76 L 196 76 L 200 76 L 228 76 L 232 76 L 240 76 L 240 72 L 232 72 L 232 68 L 240 68 L 240 64 L 232 64 L 232 60 L 240 60 L 240 56 L 232 56 L 232 52 L 241 52 C 241.552002 52 242 52.447998 242 53 L 242 90 L 244 104 L 242 108 L 242 111 C 242 111.552002 241.552002 112 241 112 L 240 112 L 236 112 L 220 112 L 216 112 L 208 112 L 204 112 L 188 112 L 184 112 L 180 112 L 172 112 L 168 112 L 160 112 L 156 112 L 152 112 L 148 112 L 130 112 L 126 112 L 108 112 L 104 112 L 86 112 L 82 112 L 64 112 L 60 112 L 40 112 L 36 112 L 16 112 L 15 112 C 14.447998 112 14 111.552002 14 111 L 14 108 L 12 104 Z M 228 52 L 228 72 L 200 72 L 200 68 L 200 64 L 200 60 L 200 56 L 200 52 Z M 247.960007 103.43399 L 246 89.716003 L 246 53 C 246 50.242996 243.757004 48 241 48 L 232 48 L 228 48 L 200 48 L 196 48 L 15 48 C 12.242996 48 10 50.242996 10 53 L 10 89.716003 L 8.039993 103.43399 L 7.863998 104.67099 L 8.421997 105.789001 L 10 108.944 L 10 111 C 10 112.130005 10.391006 113.162003 11.024994 114 C 10.391006 114.837997 10 115.869995 10 117 L 10 203 C 10 205.757004 12.242996 208 15 208 L 241 208 C 243.757004 208 246 205.757004 246 203 L 246 117 C 246 115.869995 245.608994 114.837997 244.975006 114 C 245.608994 113.162003 246 112.130005 246 111 L 246 108.944 L 247.578003 105.789001 L 248.136993 104.67099 Z"/>
    <path id="path1" fill="#ffffff" stroke="none" d="M 222 60 C 223.104996 60 224 59.104996 224 58 C 224 56.895004 223.104996 56 222 56 C 220.895004 56 220 56.895004 220 58 C 220 59.104996 220.895004 60 222 60"/>
    <path id="path2" fill="#ffffff" stroke="none" d="M 224 64 L 204 64 L 204 68 L 224 68 Z"/>
</svg>
