<?xml version="1.0" encoding="UTF-8"?>
<!-- Generated by Pixelmator Pro 3.7.1 -->
<svg width="256" height="256" viewBox="0 0 256 256" xmlns="http://www.w3.org/2000/svg">
    <path id="Path" fill="#ffffff" stroke="none" d="M 160 196 L 164 196 L 164 200 L 160 200 Z M 156 208 L 156 204 L 168 204 L 168 192 L 156 192 L 156 188 L 180 188 L 180 208 Z M 184 220 L 72 220 L 72 212 L 76 212 L 100 212 L 104 212 L 152 212 L 156 212 L 180 212 L 184 212 Z M 184 228 L 72 228 L 72 224 L 184 224 Z M 96 200 L 92 200 L 92 196 L 96 196 Z M 76 188 L 100 188 L 100 192 L 88 192 L 88 204 L 100 204 L 100 208 L 76 208 Z M 184 188 L 184 184 L 180 184 L 156 184 L 152 184 L 152 188 L 152 208 L 104 208 L 104 188 L 104 184 L 100 184 L 76 184 L 72 184 L 72 188 L 72 208 L 68 208 L 68 212 L 68 220 L 68 224 L 68 228 L 68 232 L 72 232 L 184 232 L 188 232 L 188 228 L 188 224 L 188 220 L 188 212 L 188 208 L 184 208 Z"/>
    <path id="path1" fill="#ffffff" stroke="none" d="M 92 20 L 164 20 L 164 64 L 152 64 L 128 64 L 120 64 C 115.589005 64 112 67.589005 112 72 C 112 76.410995 115.589005 80 120 80 L 128 80 L 152 80 L 164 80 L 164 98 C 164 101.30899 161.30899 104 158 104 L 98 104 C 94.691002 104 92 101.30899 92 98 Z M 159.959 71.182999 C 159.841003 70.031998 159.472992 68.955994 158.917999 68 L 164 68 L 164 76 L 158.917999 76 C 159.60199 74.821991 160 73.458008 160 72 C 160 71.723999 159.985992 71.451996 159.959 71.182999 M 148 72 C 148 69.791 149.791 68 152 68 C 154.209 68 156 69.791 156 72 C 156 74.209 154.209 76 152 76 C 149.791 76 148 74.209 148 72 M 121.083 76 L 120 76 C 117.791 76 116 74.209 116 72 C 116 69.791 117.791 68 120 68 L 121.083 68 C 120.398003 69.178009 120 70.541992 120 72 C 120 73.458008 120.398003 74.821991 121.083 76 M 124 72 C 124 69.791 125.791 68 128 68 L 145.082001 68 C 144.397995 69.178009 144 70.541992 144 72 C 144 73.458008 144.397995 74.821991 145.082001 76 L 128 76 C 125.791 76 124 74.209 124 72 M 98 108 L 158 108 C 163.522003 108 168 103.52301 168 98 L 168 80 L 168 76 L 168 68 L 168 64 L 168 16 L 88 16 L 88 98 C 88 103.52301 92.476997 108 98 108"/>
    <path id="path2" fill="#ffffff" stroke="none" d="M 106 136 L 98 136 C 96.895996 136 96 136.895996 96 138 C 96 139.104004 96.895996 140 98 140 L 106 140 C 107.103996 140 108 139.104004 108 138 C 108 136.895996 107.103996 136 106 136"/>
    <path id="path3" fill="#ffffff" stroke="none" d="M 204 168.336899 C 204 170.351898 202.352005 171.999908 200.337006 171.999908 L 195.979996 171.999908 L 195.979996 67.999908 L 200.337006 67.999908 C 202.352005 67.999908 204 69.648895 204 71.662903 Z M 191.979996 239.999908 L 64.020004 239.999908 L 64.020004 175.999908 L 64.337006 175.999908 C 68.563004 175.999908 72 172.562897 72 168.336899 L 72 146.917908 C 73.177994 147.601898 74.542007 147.999908 76 147.999908 L 108 147.999908 L 108 167.999908 L 108 191.999908 L 148 191.999908 L 148 167.999908 L 148 147.999908 L 180 147.999908 C 181.458008 147.999908 182.820999 147.601898 184 146.917908 L 184 168.336899 C 184 172.562897 187.438004 175.999908 191.662994 175.999908 L 191.979996 175.999908 Z M 55.662994 171.999908 C 53.647995 171.999908 52 170.351898 52 168.336899 L 52 71.662903 C 52 69.648895 53.647995 67.999908 55.662994 67.999908 L 60.020004 67.999908 L 60.020004 171.999908 Z M 64.020004 51.999908 L 68 51.999908 L 68 64.934906 C 66.910995 64.338898 65.662994 63.999908 64.337006 63.999908 L 64.020004 63.999908 Z M 72 15.999893 C 72 13.790894 73.791 11.999893 76 11.999893 L 180 11.999893 C 182.209 11.999893 184 13.790894 184 15.999893 L 184 71.662903 L 184 103.999908 L 176 103.999908 L 160 115.999893 L 96 115.999893 L 80 103.999908 L 72 103.999908 L 72 71.662903 Z M 188 139.999908 L 188 71.662903 C 188 69.648895 189.647995 67.999908 191.662994 67.999908 L 191.979996 67.999908 L 191.979996 171.999908 L 191.662994 171.999908 C 189.647995 171.999908 188 170.351898 188 168.336899 Z M 68 139.999908 L 68 168.336899 C 68 170.351898 66.352005 171.999908 64.337006 171.999908 L 64.020004 171.999908 L 64.020004 67.999908 L 64.337006 67.999908 C 66.352005 67.999908 68 69.648895 68 71.662903 Z M 108 143.999908 L 76 143.999908 C 73.791 143.999908 72 142.208893 72 139.999908 L 72 107.999893 L 80 107.999893 L 96 119.999893 L 160 119.999893 L 176 107.999893 L 184 107.999893 L 184 139.999908 C 184 142.208893 182.209 143.999908 180 143.999908 L 148 143.999908 Z M 112 171.999908 L 144 171.999908 L 144 187.999908 L 112 187.999908 Z M 144 167.999908 L 112 167.999908 L 112 147.999908 L 144 147.999908 Z M 191.979996 51.999908 L 191.979996 63.999908 L 191.662994 63.999908 C 190.337006 63.999908 189.089005 64.338898 188 64.934906 L 188 51.999908 Z M 200.337006 63.999908 L 195.979996 63.999908 L 195.979996 47.999908 L 188 47.999908 L 188 15.999893 C 188 11.588898 184.410995 7.999893 180 7.999893 L 76 7.999893 C 71.589005 7.999893 68 11.588898 68 15.999893 L 68 47.999908 L 60.020004 47.999908 L 60.020004 63.999908 L 55.662994 63.999908 C 51.438004 63.999908 48 67.437897 48 71.662903 L 48 168.336899 C 48 172.562897 51.438004 175.999908 55.662994 175.999908 L 60.020004 175.999908 L 60.020004 243.999908 L 195.979996 243.999908 L 195.979996 175.999908 L 200.337006 175.999908 C 204.561996 175.999908 208 172.562897 208 168.336899 L 208 71.662903 C 208 67.437897 204.561996 63.999908 200.337006 63.999908"/>
</svg>
