<?xml version="1.0" encoding="UTF-8"?>
<!-- Generated by Pixelmator Pro 3.7.1 -->
<svg width="256" height="256" viewBox="0 0 256 256" xmlns="http://www.w3.org/2000/svg">
    <path id="Path" fill="#ffffff" stroke="none" d="M 48 172 L 208 172 L 208 168 L 48 168 Z"/>
    <path id="path1" fill="#ffffff" stroke="none" d="M 48 180 L 208 180 L 208 176 L 48 176 Z"/>
    <path id="path2" fill="#ffffff" stroke="none" d="M 48 188 L 208 188 L 208 184 L 48 184 Z"/>
    <path id="path3" fill="#ffffff" stroke="none" d="M 48 196 L 208 196 L 208 192 L 48 192 Z"/>
    <path id="path4" fill="#ffffff" stroke="none" d="M 48 204 L 208 204 L 208 200 L 48 200 Z"/>
    <path id="path5" fill="#ffffff" stroke="none" d="M 240 200 L 216 200 L 216 140 C 218.209 140 220 138.209 220 136 L 220 72 C 220 69.791 218.209 68 216 68 L 216 60 L 240 60 Z M 228 208 L 28 208 L 28 204 L 44 204 L 44 140 L 212 140 L 212 204 L 228 204 Z M 16 200 L 16 60 L 40 60 L 40 68 C 37.791 68 36 69.791 36 72 L 36 136 C 36 138.209 37.791 140 40 140 L 40 200 Z M 208 72 L 216 72 L 216 136 L 40 136 L 40 72 L 48 72 Z M 204 68 L 52 68 L 52 60 L 204 60 Z M 124 48 C 188 48 228 56 228 56 L 212 56 L 212 68 L 208 68 L 208 56 L 48 56 L 48 68 L 44 68 L 44 56 L 28 56 C 28 56 60 48 124 48 M 240 56 L 232 56 L 232 52.720993 L 228.783997 52.078003 C 228.380997 51.996994 187.660004 44 124 44 C 60.240997 44 28.356003 51.787994 27.029999 52.119003 L 24 52.876999 L 24 56 L 16 56 C 13.791 56 12 57.791 12 60 L 12 204 L 24 204 L 24 208 L 24 212 L 28 212 L 228 212 L 232 212 L 232 208 L 232 204 L 244 204 L 244 60 C 244 57.791 242.209 56 240 56"/>
    <path id="path6" fill="#ffffff" stroke="none" d="M 188 152 L 188 156 L 188 160 L 148 160 L 148 156 L 148 152 L 148 148 L 188 148 Z M 108 156 L 144 156 L 144 160 L 108 160 Z M 72 148 L 104 148 L 104 160 L 72 160 Z M 144 152 L 108 152 L 108 148 L 144 148 Z M 188 144 L 148 144 L 144 144 L 108 144 L 104 144 L 72 144 L 68 144 L 48 144 L 48 148 L 68 148 L 68 152 L 48 152 L 48 156 L 68 156 L 68 160 L 48 160 L 48 164 L 68 164 L 72 164 L 104 164 L 108 164 L 144 164 L 148 164 L 188 164 L 192 164 L 208 164 L 208 160 L 192 160 L 192 156 L 208 156 L 208 152 L 192 152 L 192 148 L 208 148 L 208 144 L 192 144 Z"/>
</svg>
