<?xml version="1.0" encoding="UTF-8"?>
<!-- Generated by Pixelmator Pro 3.7.1 -->
<svg width="256" height="256" viewBox="0 0 256 256" xmlns="http://www.w3.org/2000/svg">
    <path id="Path" fill="#ffffff" stroke="none" d="M 224 104 C 226.209 104 228 105.791 228 108 L 228 208 C 228 210.209 226.209 212 224 212 L 120 212 C 117.791 212 116 210.209 116 208 L 116 108 C 116 105.791 117.791 104 120 104 Z M 60 188 L 60 72 L 64 72 C 66.209 72 68 73.791 68 76 L 68 184 C 68 186.209 66.209 188 64 188 Z M 20 205 L 20 59 C 20 57.343002 21.343002 56 23 56 L 53 56 C 54.656998 56 56 57.343002 56 59 L 56 205 C 56 206.656998 54.656998 208 53 208 L 23 208 C 21.343002 208 20 206.656998 20 205 M 244 216 C 244 218.209 242.209 220 240 220 L 16 220 C 13.791 220 12 218.209 12 216 L 12 192 L 16 192 L 16 205 C 16 208.859009 19.139999 212 23 212 L 53 212 C 56.860001 212 60 208.859009 60 205 L 60 192 L 64 192 C 68.410995 192 72 188.411011 72 184 L 72 178 L 72 76 C 72 71.589005 68.410995 68 64 68 L 60 68 L 60 59 C 60 55.139999 56.860001 52 53 52 L 23 52 C 19.139999 52 16 55.139999 16 59 L 16 68 L 12 68 L 12 40 C 12 37.791 13.791 36 16 36 L 113.083 36 C 112.398003 37.178009 112 38.541992 112 40 L 112 92 C 112 96.410995 115.588997 100 120 100 C 115.588997 100 112 103.589005 112 108 L 112 208 C 112 212.411011 115.588997 216 120 216 L 224 216 C 228.410995 216 232 212.411011 232 208 L 232 108 C 232 103.589005 228.410995 100 224 100 C 228.410995 100 232 96.410995 232 92 L 232 40 C 232 38.541992 231.602005 37.178009 230.917999 36 L 240 36 C 242.209 36 244 37.791 244 40 Z M 12 72 L 16 72 L 16 188 L 12 188 Z M 224 36 C 226.209 36 228 37.791 228 40 L 228 92 C 228 94.209 226.209 96 224 96 L 120 96 C 117.791 96 116 94.209 116 92 L 116 40 C 116 37.791 117.791 36 120 36 Z M 240 32 L 224 32 L 120 32 L 16 32 C 11.589005 32 8 35.588989 8 40 L 8 68 L 8 72 L 8 188 L 8 192 L 8 216 C 8 220.411011 11.589005 224 16 224 L 240 224 C 244.410995 224 248 220.411011 248 216 L 248 40 C 248 35.588989 244.410995 32 240 32"/>
    <path id="path1" fill="#ffffff" stroke="none" d="M 128 66 L 220 66 L 220 76 L 128 76 Z M 128 52 L 220 52 L 220 62 L 128 62 Z M 220 80 L 224 80 L 224 76 L 224 52 L 224 48 L 220 48 L 128 48 L 124 48 L 124 52 L 124 76 L 124 80 L 128 80 Z"/>
    <path id="path2" fill="#ffffff" stroke="none" d="M 216 156 L 216 160 L 216 176 L 216 180 L 128 180 L 128 176 L 128 160 L 128 156 Z M 172 148 C 176.904999 148 181.464005 149.475006 185.264999 152 L 158.735001 152 C 162.535995 149.475006 167.095001 148 172 148 M 172 196 C 163.117996 196 155.369003 191.171997 151.218994 184 L 192.781006 184 C 188.630997 191.171997 180.882004 196 172 196 M 120 156 L 120 180 L 124 180 L 124 184 L 146.707001 184 C 151.209 193.451004 160.854004 200 172 200 C 183.145996 200 192.791 193.451004 197.292999 184 L 220 184 L 220 176 L 220 160 L 220 152 L 191.569 152 C 186.518005 147.056 179.610001 144 172 144 C 164.389999 144 157.481995 147.056 152.431 152 L 124 152 L 124 156 Z"/>
    <path id="path3" fill="#ffffff" stroke="none" d="M 28 80 L 48 80 L 48 92 L 28 92 Z M 48 95.651001 L 51.651001 95.651001 L 51.651001 92 L 51.651001 80 L 51.651001 76.348999 L 48 76.348999 L 28 76.348999 L 24.349001 76.348999 L 24.349001 80 L 24.349001 92 L 24.349001 95.651001 L 28 95.651001 Z"/>
    <path id="path4" fill="#ffffff" stroke="none" d="M 80 192 L 88 192 L 88 196 L 80 196 Z M 100 196 L 92 196 L 92 192 L 100 192 Z M 76 200 L 104 200 L 104 188 L 76 188 Z"/>
    <path id="path5" fill="#ffffff" stroke="none" d="M 78 176 C 79.103996 176 80 176.895996 80 178 C 80 179.104004 79.103996 180 78 180 C 76.896004 180 76 179.104004 76 178 C 76 176.895996 76.896004 176 78 176 M 78 184 C 81.308998 184 84 181.30899 84 178 C 84 174.69101 81.308998 172 78 172 C 74.691002 172 72 174.69101 72 178 C 72 181.30899 74.691002 184 78 184"/>
    <path id="path6" fill="#ffffff" stroke="none" d="M 100 180 C 97.791 180 96 178.209 96 176 C 96 173.791 97.791 172 100 172 C 102.209 172 104 173.791 104 176 C 104 178.209 102.209 180 100 180 M 100 168 C 95.588997 168 92 171.588989 92 176 C 92 180.411011 95.588997 184 100 184 C 104.411003 184 108 180.411011 108 176 C 108 171.588989 104.411003 168 100 168"/>
</svg>
