<?xml version="1.0" encoding="UTF-8"?>
<!-- Generated by Pixelmator Pro 3.7.1 -->
<svg width="256" height="256" viewBox="0 0 256 256" xmlns="http://www.w3.org/2000/svg">
    <path id="Path" fill="#ffffff" stroke="none" d="M 196 164 C 196 161.791 197.791 160 200 160 L 216 160 C 218.209 160 220 161.791 220 164 C 220 166.209 218.209 168 216 168 L 200 168 C 197.791 168 196 166.209 196 164 M 240 168 C 240 168 240 176 228 180 C 216 184 128 184 128 184 C 128 184 40 184 28 180 C 16 176 16 168 16 168 L 12 140 L 16 136 L 16 121.578003 C 19.705994 130.057007 28.169998 136 38 136 C 47.830002 136 56.294006 130.057007 60 121.578003 L 60 142.018997 C 58.326004 140.757996 56.253006 140 54 140 L 42 140 C 36.485992 140 32 144.485992 32 150 L 32 152 L 32 156 L 32 160 L 32 162 C 32 167.514008 36.485992 172 42 172 L 54 172 C 57.548996 172 60.664001 170.136002 62.440002 167.341003 L 62.945007 170.255005 C 63.923004 175.902008 68.900002 180 74.777 180 L 181.222992 180 C 187.100006 180 192.076996 175.902008 193.054993 170.255005 L 193.365997 168.466003 C 194.804001 170.596008 197.240997 172 200 172 L 216 172 C 220.410995 172 224 168.411011 224 164 C 224 159.588989 220.410995 156 216 156 L 200 156 C 198.222 156 196.582993 156.589996 195.253006 157.574997 L 195.940994 153.606003 L 196 153.266998 L 196 152.923004 L 196 125.247009 C 200.302994 131.722 207.660004 136 216 136 C 229.234009 136 240 125.234009 240 112 C 240 98.765991 229.234009 88 216 88 C 207.350998 88 199.757004 92.600006 195.533005 99.481995 L 192.938004 82.016998 C 192.395996 78.367004 190.110001 75.296997 186.987 73.552002 L 204 74 L 208 72 C 208 72 236 72 240 88 C 244 104 244 116 244 116 L 240 120 L 240 124 L 242 126 L 242 130 L 240 132 L 240 136 L 244 140 Z M 8 122 L 10.171997 119.828003 L 12 121.656998 L 12 134.343002 L 10.171997 136.171997 L 8 134 Z M 58 112 C 58 123.046005 49.046005 132 38 132 C 26.953995 132 18 123.046005 18 112 C 18 100.953995 26.953995 92 38 92 C 49.046005 92 58 100.953995 58 112 M 16 88 C 20 72 48 72 48 72 L 52 74 L 69.013 73.552002 C 65.889999 75.296997 63.604004 78.367004 63.061996 82.016998 L 60.042999 102.334991 L 60.022995 102.472992 C 56.328995 93.966003 47.850006 88 38 88 C 24.766006 88 14 98.765991 14 112 C 14 114.457001 14.373001 116.828003 15.061996 119.061996 L 12 116 C 12 116 12 104 16 88 M 60 152 L 36 152 L 36 150 C 36 146.686005 38.686005 144 42 144 L 54 144 C 57.313995 144 60 146.686005 60 150 Z M 36 160 L 60 160 L 60 162 C 60 165.313995 57.313995 168 54 168 L 42 168 C 38.686005 168 36 165.313995 36 162 Z M 192 152.923004 L 189.113998 169.571991 C 188.470993 173.281006 185.134003 176 181.222992 176 L 74.777 176 C 70.865997 176 67.529007 173.281006 66.886002 169.571991 L 64 152.923004 L 64 152 L 64 150 L 64 102.923004 L 67.018997 82.604004 C 67.582001 78.815002 70.957001 76 74.938004 76 L 181.061996 76 C 185.042999 76 188.417999 78.815002 188.981003 82.604004 L 192 102.923004 Z M 204 100 C 202.348007 100 200.774002 100.335999 199.339996 100.942001 C 200.815994 98.722992 202.723007 96.81601 204.942001 95.339996 C 204.335999 96.774002 204 98.347992 204 100 M 224 100 C 224 104.417999 220.417999 108 216 108 C 211.582001 108 208 104.417999 208 100 C 208 95.582001 211.582001 92 216 92 C 220.417999 92 224 95.582001 224 100 M 228 100 C 228 98.347992 227.664001 96.774002 227.057999 95.339996 C 229.277008 96.81601 231.18399 98.722992 232.660004 100.942001 C 231.225998 100.335999 229.652008 100 228 100 M 228 124 C 229.652008 124 231.225998 123.664001 232.660004 123.057999 C 231.18399 125.278 229.277008 127.18399 227.057999 128.660004 C 227.664001 127.225998 228 125.652008 228 124 M 236 112 C 236 116.417999 232.417999 120 228 120 C 223.582001 120 220 116.417999 220 112 C 220 107.582001 223.582001 104 228 104 C 232.417999 104 236 107.582001 236 112 M 208 124 C 208 119.582001 211.582001 116 216 116 C 220.417999 116 224 119.582001 224 124 C 224 128.417999 220.417999 132 216 132 C 211.582001 132 208 128.417999 208 124 M 204 124 C 204 125.652008 204.335999 127.225998 204.942001 128.660004 C 202.723007 127.18399 200.815994 125.278 199.339996 123.057999 C 200.774002 123.664001 202.348007 124 204 124 M 204 104 C 208.417999 104 212 107.582001 212 112 C 212 116.417999 208.417999 120 204 120 C 199.582001 120 196 116.417999 196 112 C 196 107.582001 199.582001 104 204 104 M 246.828003 137.171997 L 244 134.343002 L 244 133.656998 L 244.828003 132.828003 L 246 131.656998 L 246 130 L 246 126 L 246 124.343002 L 244.828003 123.171997 L 244 122.343002 L 244 121.656998 L 246.828003 118.828003 L 248 117.656998 L 248 116 C 248 115.490005 247.953003 103.320007 243.880997 87.029999 C 239.177002 68.216003 209.270996 68 208 68 L 207.056 68 L 206.210999 68.421997 L 203.106003 69.975006 L 128.105011 68.001007 L 128 67.998993 L 127.894997 68.001007 L 52.893997 69.975006 L 49.789001 68.421997 L 48.944 68 L 48 68 C 46.729004 68 16.822998 68.216003 12.119003 87.029999 C 8.046997 103.320007 8 115.490005 8 116 L 8 116.343002 L 5.171997 119.171997 L 4 120.343002 L 4 122 L 4 134 L 4 135.656998 L 5.171997 136.828003 L 7.895004 139.552002 L 8.039993 140.56601 L 12.018997 168.419006 C 12.177994 170.487 13.625 179.425003 26.735001 183.794998 C 38.996994 187.882004 118.926003 188 128 188 C 137.074005 188 217.003006 187.882004 229.264999 183.794998 C 242.375 179.425003 243.821991 170.487 243.981003 168.419006 L 247.959991 140.56601 L 248.242996 138.585999 Z"/>
    <path id="path1" fill="#ffffff" stroke="none" d="M 184 164 L 72 164 L 72 84 L 184 84 Z M 72 80 L 68 80 L 68 84 L 68 164 L 68 168 L 72 168 L 184 168 L 188 168 L 188 164 L 188 84 L 188 80 L 184 80 Z"/>
    <path id="path2" fill="#ffffff" stroke="none" d="M 38 126 C 30.268 126 24 119.731995 24 112 C 24 104.268005 30.268 98 38 98 C 45.731998 98 52 104.268005 52 112 C 52 119.731995 45.731998 126 38 126 M 38 94 C 28.075001 94 20 102.074997 20 112 C 20 121.925003 28.075001 130 38 130 C 47.924999 130 56 121.925003 56 112 C 56 102.074997 47.924999 94 38 94"/>
    <path id="path3" fill="#ffffff" stroke="none" d="M 38 120 C 33.582001 120 30 116.417999 30 112 C 30 107.582001 33.582001 104 38 104 C 42.417999 104 46 107.582001 46 112 C 46 116.417999 42.417999 120 38 120 M 38 100 C 31.382999 100 26 105.382996 26 112 C 26 118.617004 31.382999 124 38 124 C 44.617001 124 50 118.617004 50 112 C 50 105.382996 44.617001 100 38 100"/>
</svg>
