<?xml version="1.0" encoding="UTF-8"?>
<!-- Generated by Pixelmator Pro 3.7.1 -->
<svg width="256" height="256" viewBox="0 0 256 256" xmlns="http://www.w3.org/2000/svg">
    <path id="Path" fill="#ffffff" stroke="none" d="M 244 176 C 244 180.417999 240.417999 184 236 184 L 20 184 C 15.582001 184 12 180.417999 12 176 L 12 80 C 12 75.582001 15.582001 72 20 72 L 236 72 C 240.417999 72 244 75.582001 244 80 Z M 236 68 L 20 68 C 13.382996 68 8 73.382996 8 80 L 8 176 C 8 182.617004 13.382996 188 20 188 L 236 188 C 242.617004 188 248 182.617004 248 176 L 248 80 C 248 73.382996 242.617004 68 236 68"/>
    <path id="path1" fill="#ffffff" stroke="none" d="M 56 110 C 56 111.104996 55.105 112 54 112 L 46 112 C 44.895 112 44 112.895004 44 114 L 44 122 C 44 123.104996 43.105 124 42 124 L 34 124 C 32.895 124 32 123.104996 32 122 L 32 114 C 32 112.895004 31.105 112 30 112 L 22 112 C 20.895 112 20 111.104996 20 110 L 20 102 C 20 100.895004 20.895 100 22 100 L 30 100 C 31.105 100 32 99.104996 32 98 L 32 90 C 32 88.895004 32.895 88 34 88 L 42 88 C 43.105 88 44 88.895004 44 90 L 44 98 C 44 99.104996 44.895 100 46 100 L 54 100 C 55.105 100 56 100.895004 56 102 Z M 54 96 L 48 96 L 48 90 C 48 86.692001 45.307999 84 42 84 L 34 84 C 30.691999 84 28 86.692001 28 90 L 28 96 L 22 96 C 18.692001 96 16 98.692001 16 102 L 16 110 C 16 113.307999 18.692001 116 22 116 L 28 116 L 28 122 C 28 125.307999 30.691999 128 34 128 L 42 128 C 45.307999 128 48 125.307999 48 122 L 48 116 L 54 116 C 57.307999 116 60 113.307999 60 110 L 60 102 C 60 98.692001 57.307999 96 54 96"/>
    <path id="path2" fill="#ffffff" stroke="none" d="M 184 168 L 72 168 L 72 84 L 184 84 Z M 72 80 L 68 80 L 68 84 L 68 168 L 68 172 L 72 172 L 184 172 L 188 172 L 188 168 L 188 84 L 188 80 L 184 80 Z"/>
    <path id="path3" fill="#ffffff" stroke="none" d="M 38 152 C 34.686001 152 32 149.313995 32 146 C 32 142.686005 34.686001 140 38 140 C 41.313999 140 44 142.686005 44 146 C 44 149.313995 41.313999 152 38 152 M 38 136 C 32.486 136 28 140.485992 28 146 C 28 151.514008 32.486 156 38 156 C 43.514 156 48 151.514008 48 146 C 48 140.485992 43.514 136 38 136"/>
    <path id="path4" fill="#ffffff" stroke="none" d="M 235 110 C 235 111.104996 234.104996 112 233 112 L 225 112 C 223.895004 112 223 112.895004 223 114 L 223 122 C 223 123.104996 222.104996 124 221 124 L 213 124 C 211.895004 124 211 123.104996 211 122 L 211 114 C 211 112.895004 210.104996 112 209 112 L 201 112 C 199.895004 112 199 111.104996 199 110 L 199 102 C 199 100.895004 199.895004 100 201 100 L 209 100 C 210.104996 100 211 99.104996 211 98 L 211 90 C 211 88.895004 211.895004 88 213 88 L 221 88 C 222.104996 88 223 88.895004 223 90 L 223 98 C 223 99.104996 223.895004 100 225 100 L 233 100 C 234.104996 100 235 100.895004 235 102 Z M 233 96 L 227 96 L 227 90 C 227 86.692001 224.307999 84 221 84 L 213 84 C 209.692001 84 207 86.692001 207 90 L 207 96 L 201 96 C 197.692001 96 195 98.692001 195 102 L 195 110 C 195 113.307999 197.692001 116 201 116 L 207 116 L 207 122 C 207 125.307999 209.692001 128 213 128 L 221 128 C 224.307999 128 227 125.307999 227 122 L 227 116 L 233 116 C 236.307999 116 239 113.307999 239 110 L 239 102 C 239 98.692001 236.307999 96 233 96"/>
    <path id="path5" fill="#ffffff" stroke="none" d="M 217 152 C 213.686005 152 211 149.313995 211 146 C 211 142.686005 213.686005 140 217 140 C 220.313995 140 223 142.686005 223 146 C 223 149.313995 220.313995 152 217 152 M 217 136 C 211.485992 136 207 140.485992 207 146 C 207 151.514008 211.485992 156 217 156 C 222.514008 156 227 151.514008 227 146 C 227 140.485992 222.514008 136 217 136"/>
</svg>
