<?xml version="1.0" encoding="UTF-8"?>
<!-- Generated by Pixelmator Pro 3.7.1 -->
<svg width="256" height="256" viewBox="0 0 256 256" xmlns="http://www.w3.org/2000/svg">
    <path id="Path" fill="#ffffff" stroke="none" d="M 223.998001 235.998001 C 223.998993 240.416992 220.417007 244 215.998001 244 L 60 244 L 31.999998 216 L 31.999998 16 C 31.999998 13.791 33.791 12 36 12 L 58 12 L 58 64 C 58 70.617004 63.382996 76 70 76 L 83.999008 76 L 186 76 C 192.617004 76 198 70.617004 198 64 L 198 12 L 220 12 C 222.209 12 224 13.791 224 16 Z M 194 12 L 194 64 C 194 68.417999 190.417999 72 186 72 L 70 72 C 65.580994 72 62 68.417999 62 64 L 62 12 Z M 220 8 L 198 8 L 194 8 L 62 8 L 58 8 L 36 8 C 31.589003 8 27.999998 11.589005 27.999998 16 L 27.999998 216 L 27.999998 217.656998 L 29.171003 218.828003 L 57.171005 246.828003 L 58.343002 248 L 60 248 L 215.998001 248 C 219.203995 248 222.218002 246.751999 224.483994 244.483994 C 226.751007 242.216995 227.998993 239.203003 227.998001 235.996994 L 228 16 C 228 11.589005 224.410995 8 220 8"/>
    <path id="path1" fill="#ffffff" stroke="none" d="M 85 132 L 75 132 L 75 128 L 85 128 Z M 200 140 L 200 169.996002 L 199.632004 170.141998 C 199.580994 170.162003 198.229996 170.68399 196 171.447998 L 196 144 C 196 137.373001 190.626999 132 184 132 L 173 132 L 173 128 L 188 128 C 194.626999 128 200 133.373001 200 140 M 188 216 L 187 216 L 187 211.606003 C 192.173004 210.272003 196 205.589996 196 200 L 196 175.596008 C 197.776001 174.984009 199.156998 174.470001 200 174.145996 L 200 204 C 200 210.626999 194.626999 216 188 216 M 56 204 L 56 174.003998 L 56.318001 173.897003 C 56.374001 173.878998 57.747002 173.429993 60 172.757996 L 60 200 C 60 206.290009 64.842003 211.440002 71 211.949005 L 71 216 L 68 216 C 61.373001 216 56 210.626999 56 204 M 85 153.632996 C 81.934998 154.020996 78.580002 154.59201 75 155.333008 L 75 136 L 85 136 Z M 99 136 L 99 153.233002 C 97.287003 153.078003 95.610001 153 94 153 C 92.470001 153 90.792 153.072998 89 153.21701 L 89 136 Z M 99 132 L 89 132 L 89 128 L 99 128 Z M 113 132 L 103 132 L 103 128 L 113 128 Z M 127 132 L 117 132 L 117 128 L 127 128 Z M 141 132 L 131 132 L 131 128 L 141 128 Z M 155 132 L 145 132 L 145 128 L 155 128 Z M 159 128 L 169 128 L 169 132 L 159 132 Z M 169 168.528 C 166.406998 168.846008 164.108994 169 162 169 C 161.052002 169 160.063004 168.968994 159 168.904999 L 159 136 L 169 136 Z M 183 165.735992 C 179.516006 166.664001 176.160995 167.404999 173 167.945007 L 173 136 L 183 136 Z M 117 136 L 127 136 L 127 161.248993 C 126.918999 161.218994 126.889 161.207001 126.893997 161.210999 C 126.460999 160.994995 122.639 159.117004 117 157.209991 Z M 131 136 L 141 136 L 141 165.742996 C 136.979004 164.674011 133.470993 163.544998 131 162.695007 Z M 145 136 L 155 136 L 155 168.544006 C 151.917007 168.169998 148.561996 167.565002 145 166.740997 Z M 103 136 L 113 136 L 113 155.958008 C 109.584999 154.972 106.230003 154.223999 103 153.727997 Z M 185.723999 182.988007 C 179.363007 184.817993 170.084 187 162 187 C 147.457993 187 129.235992 180.11499 126.853996 179.190002 C 125.745003 178.640991 110.041 171 94 171 C 88.128998 171 80.653 172.019989 71.778999 174.031006 L 71 174.208008 L 71 207.931 C 67.059998 207.436005 64 204.071991 64 200 L 64 171.605011 C 72.375 169.27301 85.922997 166 96 166 C 111.005997 166 126.524002 173.501999 127.258003 173.856995 C 128.089996 174.188995 147.835999 182 164 182 C 173.701004 182 184.574005 179.233002 192 176.908997 L 192 200 C 192 203.350006 189.927994 206.222 187 207.410995 L 187 182.621002 Z M 173 212 L 183 212 L 183 216 L 173 216 Z M 159 212 L 169 212 L 169 216 L 159 216 Z M 145 212 L 155 212 L 155 216 L 145 216 Z M 131 212 L 141 212 L 141 216 L 131 216 Z M 117 212 L 127 212 L 127 216 L 117 216 Z M 103 212 L 113 212 L 113 216 L 103 216 Z M 89 212 L 99 212 L 99 216 L 89 216 Z M 75 212 L 85 212 L 85 216 L 75 216 Z M 85 208 L 75 208 L 75 177.442001 C 78.619003 176.671997 81.973999 176.07901 85 175.675003 Z M 99 208 L 89 208 L 89 175.240997 C 90.858002 175.07901 92.500999 175 94 175 C 95.592003 175 97.271004 175.087006 99 175.257996 Z M 113 208 L 103 208 L 103 175.790009 C 106.211998 176.320999 109.567001 177.115997 113 178.15799 Z M 127 208 L 117 208 L 117 179.472992 C 121.681999 181.126999 124.82 182.645996 125.262001 182.859009 C 125.399002 182.912994 126.009003 183.154999 127 183.522003 Z M 141 208 L 131 208 L 131 184.932007 C 133.582001 185.796997 137.080994 186.891998 141 187.899994 Z M 155 208 L 145 208 L 145 188.860992 C 148.531006 189.649002 151.886002 190.225006 155 190.575989 Z M 169 208 L 159 208 L 159 190.912994 C 160.056 190.972 161.044998 191 162 191 C 164.164993 191 166.516006 190.856995 169 190.574997 Z M 183 208 L 173 208 L 173 190.020996 C 176.154999 189.51001 179.509995 188.796997 183 187.89801 Z M 192 172.757996 C 184.697998 175.044006 173.436005 178 164 178 C 149.457993 178 131.235992 171.11499 128.854004 170.190002 C 127.745003 169.640991 112.041 162 96 162 C 85.774002 162 72.518997 165.145996 64 167.51001 L 64 144 C 64 139.928009 67.059998 136.563995 71 136.069 L 71 160.334 L 72.223999 160.053009 C 81.046997 158.027008 88.374001 157 94 157 C 109.005997 157 124.524002 164.501999 125.258003 164.856995 C 126.089996 165.188995 145.835999 173 162 173 C 168.792007 173 176.959 171.658997 186.272995 169.014999 L 187 168.755997 L 187 136.588989 C 189.927994 137.778 192 140.649994 192 144 Z M 68 128 L 71 128 L 71 132.050995 C 64.842003 132.559998 60 137.709991 60 144 L 60 168.658997 C 58.108002 169.222992 56.714001 169.665009 56 169.895996 L 56 140 C 56 133.373001 61.373001 128 68 128 M 52 140 L 52 204 C 52 212.821991 59.178001 220 68 220 L 188 220 C 196.822006 220 204 212.821991 204 204 L 204 140 C 204 131.178009 196.822006 124 188 124 L 84.000999 124 L 68 124 C 59.178001 124 52 131.178009 52 140"/>
    <path id="path2" fill="#ffffff" stroke="none" d="M 60 99.948196 L 60 99.997192 C 59.999001 113.2332 70.712997 123.971207 83.947998 124.000198 L 84.000999 124.000198 C 97.231003 124.000198 107.972 113.288193 108 100.0522 C 108.028 86.797195 97.306 76.028198 84.052002 76.000198 L 83.999001 76.000198 L 84.042999 80.000198 C 89.385002 80.0112 94.403 82.102203 98.171997 85.888199 C 101.942001 89.674194 104.011002 94.700195 104 100.043198 C 103.977005 111.047195 95.005005 120.000198 83.957001 120.000198 C 72.951996 119.976196 63.999001 111.003204 64 99.957199 C 64.023003 88.953201 72.995003 80.000198 83.999001 80.000198 L 83.999001 76.000198 C 70.768997 76.000198 60.028 86.711197 60 99.948196"/>
    <path id="path3" fill="#ffffff" stroke="none" d="M 192 116 L 120 116 L 120 92 L 192 92 Z M 120 88 L 116 88 L 116 92 L 116 116 L 116 120 L 120 120 L 192 120 L 196 120 L 196 116 L 196 92 L 196 88 L 192 88 Z"/>
</svg>
