<?xml version="1.0" encoding="UTF-8"?>
<!-- Generated by Pixelmator Pro 3.7.1 -->
<svg width="256" height="256" viewBox="0 0 256 256" xmlns="http://www.w3.org/2000/svg">
    <path id="Path" fill="#ffffff" stroke="none" d="M 192 151.843689 L 151.843002 151.843689 L 151.843002 191.999695 L 104.155998 191.999695 L 104.155998 151.843689 L 64 151.843689 L 64 104.156693 L 104.155998 104.156693 L 104.155998 63.999695 L 151.843002 63.999695 L 151.843002 104.156693 L 192 104.156693 Z M 192 100.156693 L 155.843002 100.156693 L 155.843002 63.999695 L 155.843002 59.999695 L 151.843002 59.999695 L 104.155998 59.999695 L 100.155998 59.999695 L 100.155998 63.999695 L 100.155998 100.156693 L 64 100.156693 L 60 100.156693 L 60 104.156693 L 60 151.843689 L 60 155.843689 L 64 155.843689 L 100.155998 155.843689 L 100.155998 191.999695 L 100.155998 195.999695 L 104.155998 195.999695 L 151.843002 195.999695 L 155.843002 195.999695 L 155.843002 191.999695 L 155.843002 155.843689 L 192 155.843689 L 196 155.843689 L 196 151.843689 L 196 104.156693 L 196 100.156693 Z"/>
    <path id="path1" fill="#ffffff" stroke="none" d="M 127.999001 113.972702 C 135.746994 113.972702 142.024994 120.251694 142.024994 127.998703 C 142.024994 135.745697 135.746994 142.025696 127.999001 142.025696 C 120.254997 142.025696 113.973 135.745697 113.973 127.998703 C 113.973 120.251694 120.254997 113.972702 127.999001 113.972702 M 127.999001 146.025696 C 137.938004 146.025696 146.024994 137.93869 146.024994 127.998703 C 146.024994 118.059692 137.938004 109.972702 127.999001 109.972702 C 118.059998 109.972702 109.973 118.059692 109.973 127.998703 C 109.973 137.93869 118.059998 146.025696 127.999001 146.025696"/>
    <path id="path2" fill="#ffffff" stroke="none" d="M 127.999001 178.2314 L 114.148003 164.379395 L 141.850998 164.379395 Z M 114.148003 160.379395 L 104.490997 160.379395 L 111.32 167.209396 L 125.170998 181.059402 L 127.999001 183.88739 L 130.826996 181.059402 L 144.679001 167.209396 L 151.507004 160.379395 L 141.850998 160.379395 Z"/>
    <path id="path3" fill="#ffffff" stroke="none" d="M 114.147903 91.618698 L 127.998901 77.7677 L 141.850906 91.618698 Z M 130.826904 74.938705 L 127.998901 72.110703 L 125.170898 74.938705 L 111.319901 88.789703 L 104.490898 95.618698 L 114.147903 95.618698 L 141.850906 95.618698 L 151.506897 95.618698 L 144.678894 88.789703 Z"/>
    <path id="path4" fill="#ffffff" stroke="none" d="M 91.618698 141.850601 L 77.7677 127.998596 L 91.618698 114.147598 Z M 74.938698 125.170593 L 72.110703 127.998596 L 74.938698 130.827606 L 88.789703 144.678589 L 95.618698 151.506592 L 95.618698 141.850601 L 95.618698 114.147598 L 95.618698 104.491592 L 88.789703 111.319595 Z"/>
    <path id="path5" fill="#ffffff" stroke="none" d="M 164.379898 114.147903 L 178.231903 127.998901 L 164.379898 141.850891 Z M 181.059906 130.826904 L 183.887894 127.998901 L 181.059906 125.170898 L 167.208893 111.319901 L 160.379898 104.490906 L 160.379898 114.147903 L 160.379898 141.850891 L 160.379898 151.506897 L 167.208893 144.678894 Z"/>
    <path id="path6" fill="#ffffff" stroke="none" d="M 244 244 L 12 244 L 12 12 L 244 12 Z M 244 8 L 12 8 L 8 8 L 8 12 L 8 244 L 8 248 L 12 248 L 244 248 L 248 248 L 248 244 L 248 12 L 248 8 Z"/>
</svg>
