<?xml version="1.0" encoding="UTF-8"?>
<!-- Generated by Pixelmator Pro 3.7.1 -->
<svg width="256" height="256" viewBox="0 0 256 256" xmlns="http://www.w3.org/2000/svg">
    <path id="Path" fill="#ffffff" stroke="none" d="M 212 196 L 180 196 C 184.410995 196 188 192.410995 188 188 C 188 186.541992 187.602005 185.178009 186.917999 184 L 220 184 C 229.524002 184 237.947998 179.216995 243.007996 171.929993 C 239.479996 185.766998 226.936005 196 212 196 M 44 196 C 29.063995 196 16.520004 185.766998 12.992004 171.929993 C 18.052002 179.216995 26.475998 184 36 184 L 69.082001 184 C 68.397995 185.178009 68 186.541992 68 188 C 68 192.410995 71.589005 196 76 196 Z M 86 186 C 87.105003 186 88 186.895004 88 188 C 88 189.105011 87.105003 190 86 190 C 84.894997 190 84 189.105011 84 188 C 84 186.895004 84.894997 186 86 186 M 165.541 192 L 90.459 192 C 91.414001 190.936996 92 189.537003 92 188 C 92 186.462997 91.414001 185.063004 90.459 184 L 165.541 184 C 164.585999 185.063004 164 186.462997 164 188 C 164 189.537003 164.585999 190.936996 165.541 192 M 170 190 C 168.895004 190 168 189.105011 168 188 C 168 186.895004 168.895004 186 170 186 C 171.104996 186 172 186.895004 172 188 C 172 189.105011 171.104996 190 170 190 M 76 184 L 81.541 184 C 80.585999 185.063004 80 186.462997 80 188 C 80 189.537003 80.585999 190.936996 81.541 192 L 76 192 C 73.791 192 72 190.209 72 188 C 72 185.791 73.791 184 76 184 M 184 188 C 184 190.209 182.209 192 180 192 L 174.459 192 C 175.414001 190.936996 176 189.537003 176 188 C 176 186.462997 175.414001 185.063004 174.459 184 L 180 184 C 182.209 184 184 185.791 184 188 M 12 84 L 14 84 L 14 80 L 12 80 L 12 76 C 12 69.373001 17.373001 64 24 64 L 232 64 C 238.626999 64 244 69.373001 244 76 L 244 80 L 242 80 L 242 84 L 244 84 L 244 156 C 244 169.255005 233.255005 180 220 180 L 180 180 L 76 180 L 36 180 C 22.744995 180 12 169.255005 12 156 Z M 232 60 L 24 60 C 15.177994 60 8 67.177994 8 76 L 8 80 L 8 84 L 8 156 C 8 157.358002 8.102005 158.692993 8.289993 160 L 8 160 L 8 164 C 8 183.850006 24.149994 200 44 200 L 212 200 C 231.850006 200 248 183.850006 248 164 L 248 160 L 247.709991 160 C 247.897995 158.692993 248 157.358002 248 156 L 248 84 L 248 80 L 248 76 C 248 67.177994 240.822006 60 232 60"/>
    <path id="path1" fill="#ffffff" stroke="none" d="M 60 72 L 196 72 L 196 168 L 60 168 Z M 206 100 C 209.313995 100 212 102.686005 212 106 C 212 109.313995 209.313995 112 206 112 C 202.686005 112 200 109.313995 200 106 C 200 102.686005 202.686005 100 206 100 M 218 88 C 221.313995 88 224 90.686005 224 94 C 224 97.313995 221.313995 100 218 100 C 214.686005 100 212 97.313995 212 94 C 212 90.686005 214.686005 88 218 88 M 236 106 C 236 109.313995 233.313995 112 230 112 C 226.686005 112 224 109.313995 224 106 C 224 102.686005 226.686005 100 230 100 C 233.313995 100 236 102.686005 236 106 M 215.729996 108.270004 C 215.901001 107.539001 216 106.781998 216 106 C 216 105.218002 215.901001 104.460999 215.729996 103.729996 C 216.460999 103.901001 217.218002 104 218 104 C 218.781998 104 219.539001 103.901001 220.270004 103.729996 C 220.098999 104.460999 220 105.218002 220 106 C 220 106.781998 220.098999 107.539001 220.270004 108.270004 C 219.539001 108.098999 218.781998 108 218 108 C 217.218002 108 216.460999 108.098999 215.729996 108.270004 M 218 124 C 214.686005 124 212 121.313995 212 118 C 212 114.686005 214.686005 112 218 112 C 221.313995 112 224 114.686005 224 118 C 224 121.313995 221.313995 124 218 124 M 56 172 L 60 172 L 196 172 L 200 172 L 200 168 L 200 113.981003 C 201.673996 115.242004 203.746994 116 206 116 C 206.781998 116 207.539001 115.901001 208.270004 115.729996 C 208.098999 116.460999 208 117.218002 208 118 C 208 123.514008 212.485992 128 218 128 C 223.514008 128 228 123.514008 228 118 C 228 117.218002 227.901001 116.460999 227.729996 115.729996 C 228.460999 115.901001 229.218002 116 230 116 C 235.514008 116 240 111.514008 240 106 C 240 100.485992 235.514008 96 230 96 C 229.218002 96 228.460999 96.098999 227.729996 96.270004 C 227.901001 95.539001 228 94.781998 228 94 C 228 88.485992 223.514008 84 218 84 C 212.485992 84 208 88.485992 208 94 C 208 94.781998 208.098999 95.539001 208.270004 96.270004 C 207.539001 96.098999 206.781998 96 206 96 C 203.746994 96 201.673996 96.757996 200 98.018997 L 200 72 L 200 68 L 196 68 L 60 68 L 56 68 L 56 72 L 56 144 L 56 168 Z"/>
    <path id="path2" fill="#ffffff" stroke="none" d="M 184 160 L 72 160 L 72 80 L 184 80 Z M 72 76.095993 L 68.096001 76.095993 L 68.096001 80 L 68.096001 160 L 68.096001 163.903992 L 72 163.903992 L 184 163.903992 L 187.904007 163.903992 L 187.904007 160 L 187.904007 80 L 187.904007 76.095993 L 184 76.095993 Z"/>
    <path id="path3" fill="#ffffff" stroke="none" d="M 36 96 C 42.626999 96 48 101.373001 48 108 C 48 114.626999 42.626999 120 36 120 C 29.373001 120 24 114.626999 24 108 C 24 101.373001 29.373001 96 36 96 M 36 124 C 44.836998 124 52 116.837006 52 108 C 52 99.162994 44.836998 92 36 92 C 27.163 92 20 99.162994 20 108 C 20 116.837006 27.163 124 36 124"/>
    <path id="path4" fill="#ffffff" stroke="none" d="M 20 144 C 20 141.791 21.791 140 24 140 L 48 140 C 50.209 140 52 141.791 52 144 C 52 146.209 50.209 148 48 148 L 24 148 C 21.791 148 20 146.209 20 144 M 48 152 C 52.410999 152 56 148.411011 56 144 C 56 139.588989 52.410999 136 48 136 L 24 136 C 19.589001 136 16 139.588989 16 144 C 16 148.411011 19.589001 152 24 152 Z"/>
    <path id="path5" fill="#ffffff" stroke="none" d="M 231.121307 145.121307 L 226.878296 149.364304 C 226.293304 149.94931 225.525299 150.24231 224.757294 150.24231 C 223.989304 150.24231 223.222305 149.94931 222.636307 149.364304 C 221.464294 148.192291 221.464294 146.293304 222.636307 145.121307 L 226.878296 140.878296 C 227.464294 140.293304 228.2323 140.000305 229.000305 140.000305 C 229.767303 140.000305 230.535294 140.293304 231.121307 140.878296 C 232.293304 142.050293 232.293304 143.94931 231.121307 145.121307 M 216.242294 145.121307 L 212.000305 149.364304 C 211.414307 149.94931 210.646301 150.24231 209.878296 150.24231 C 209.111298 150.24231 208.343307 149.94931 207.757294 149.364304 C 206.585297 148.192291 206.585297 146.293304 207.757294 145.121307 L 212.000305 140.878296 C 212.585297 140.293304 213.353302 140.000305 214.121307 140.000305 C 214.889297 140.000305 215.657303 140.293304 216.242294 140.878296 C 217.414307 142.050293 217.414307 143.94931 216.242294 145.121307 M 229.000305 136.000305 C 227.130295 136.000305 225.372299 136.728302 224.050293 138.050293 L 220.882294 141.218292 C 220.578293 140.057297 219.979294 138.958298 219.071304 138.050293 C 217.749298 136.728302 215.991302 136.000305 214.121307 136.000305 C 212.251297 136.000305 210.493301 136.728302 209.171295 138.050293 L 204.929306 142.293304 C 202.199295 145.022308 202.199295 149.463303 204.929306 152.192291 C 206.251297 153.514297 208.009308 154.24231 209.878296 154.24231 C 211.748306 154.24231 213.506302 153.514297 214.828308 152.192291 L 217.996307 149.024292 C 218.300293 150.185303 218.899307 151.284302 219.807297 152.192291 C 221.129303 153.514297 222.887299 154.24231 224.757294 154.24231 C 226.627304 154.24231 228.3853 153.514297 229.707306 152.192291 L 233.949295 147.94931 C 236.679306 145.220306 236.679306 140.779297 233.949295 138.050293 C 232.627304 136.728302 230.869293 136.000305 229.000305 136.000305"/>
</svg>
