<?xml version="1.0" encoding="UTF-8"?>
<!-- Generated by Pixelmator Pro 3.7.1 -->
<svg width="256" height="256" viewBox="0 0 256 256" xmlns="http://www.w3.org/2000/svg">
    <path id="Path" fill="#ffffff" stroke="none" d="M 200 176 C 200 180.411011 196.410995 184 192 184 L 64 184 C 59.589005 184 56 180.411011 56 176 L 56 44 C 56 39.589005 59.589005 36 64 36 L 192 36 C 196.410995 36 200 39.589005 200 44 Z M 192 32 L 64 32 C 57.399994 32 52 37.399994 52 44 L 52 176 C 52 182.600006 57.399994 188 64 188 L 192 188 C 198.600006 188 204 182.600006 204 176 L 204 44 C 204 37.399994 198.600006 32 192 32"/>
    <path id="path1" fill="#ffffff" stroke="none" d="M 180 168 C 180 172.411011 176.410995 176 172 176 L 84 176 C 79.588997 176 76 172.411011 76 168 L 76 56 C 76 51.588989 79.588997 48 84 48 L 172 48 C 176.410995 48 180 51.588989 180 56 Z M 172 44 L 84 44 C 77.400002 44 72 49.399994 72 56 L 72 168 C 72 174.600006 77.400002 180 84 180 L 172 180 C 178.600006 180 184 174.600006 184 168 L 184 56 C 184 49.399994 178.600006 44 172 44"/>
    <path id="path2" fill="#ffffff" stroke="none" d="M 208 24 L 48 24 L 48 28 L 208 28 Z"/>
    <path id="path3" fill="#ffffff" stroke="none" d="M 208 16 L 48 16 L 48 20 L 208 20 Z"/>
    <path id="path4" fill="#ffffff" stroke="none" d="M 64 212 L 68 212 L 68 196 L 64 196 Z"/>
    <path id="path5" fill="#ffffff" stroke="none" d="M 72 212 L 76 212 L 76 196 L 72 196 Z"/>
    <path id="path6" fill="#ffffff" stroke="none" d="M 80 212 L 84 212 L 84 196 L 80 196 Z"/>
    <path id="path7" fill="#ffffff" stroke="none" d="M 88 212 L 92 212 L 92 196 L 88 196 Z"/>
    <path id="path8" fill="#ffffff" stroke="none" d="M 96 212 L 100 212 L 100 196 L 96 196 Z"/>
    <path id="path9" fill="#ffffff" stroke="none" d="M 104 212 L 108 212 L 108 204 L 104 204 Z"/>
    <path id="path10" fill="#ffffff" stroke="none" d="M 112 212 L 116 212 L 116 204 L 112 204 Z"/>
    <path id="path11" fill="#ffffff" stroke="none" d="M 64 228 L 68 228 L 68 216 L 64 216 Z"/>
    <path id="path12" fill="#ffffff" stroke="none" d="M 72 232 L 76 232 L 76 216 L 72 216 Z"/>
    <path id="path13" fill="#ffffff" stroke="none" d="M 80 232 L 84 232 L 84 216 L 80 216 Z"/>
    <path id="path14" fill="#ffffff" stroke="none" d="M 88 232 L 92 232 L 92 216 L 88 216 Z"/>
    <path id="path15" fill="#ffffff" stroke="none" d="M 96 232 L 100 232 L 100 216 L 96 216 Z"/>
    <path id="path16" fill="#ffffff" stroke="none" d="M 104 232 L 108 232 L 108 216 L 104 216 Z"/>
    <path id="path17" fill="#ffffff" stroke="none" d="M 112 232 L 116 232 L 116 216 L 112 216 Z"/>
    <path id="path18" fill="#ffffff" stroke="none" d="M 148 232 C 143.582001 232 140 228.417999 140 224 C 140 219.582001 143.582001 216 148 216 C 152.417999 216 156 219.582001 156 224 C 156 228.417999 152.417999 232 148 232 M 144 212 L 140 204 L 140 196 L 156 196 L 156 204 L 152 212 Z M 160 224 C 160 220.104996 158.126999 216.649002 155.244003 214.455994 L 155.578003 213.789001 L 159.578003 205.789001 L 160 204.944 L 160 204 L 160 196 L 160 192 L 156 192 L 140 192 L 136 192 L 136 196 L 136 204 L 136 204.944 L 136.421997 205.789001 L 140.421997 213.789001 L 140.755997 214.455994 C 137.873001 216.649002 136 220.104996 136 224 C 136 230.617004 141.382996 236 148 236 C 154.617004 236 160 230.617004 160 224"/>
    <path id="path19" fill="#ffffff" stroke="none" d="M 176 232 C 171.582001 232 168 228.417999 168 224 C 168 219.582001 171.582001 216 176 216 C 180.417999 216 184 219.582001 184 224 C 184 228.417999 180.417999 232 176 232 M 172 212 L 168 204 L 168 196 L 184 196 L 184 204 L 180 212 Z M 188 224 C 188 220.104996 186.126999 216.649002 183.244003 214.455994 L 183.578003 213.789001 L 187.578003 205.789001 L 188 204.944 L 188 204 L 188 196 L 188 192 L 184 192 L 168 192 L 164 192 L 164 196 L 164 204 L 164 204.944 L 164.421997 205.789001 L 168.421997 213.789001 L 168.755997 214.455994 C 165.873001 216.649002 164 220.104996 164 224 C 164 230.617004 169.382996 236 176 236 C 182.617004 236 188 230.617004 188 224"/>
    <path id="path20" fill="#ffffff" stroke="none" d="M 212 192 L 204 192 L 200 192 L 200 236 L 176 236 L 148 236 L 56 236 L 56 192 L 52 192 L 44 192 L 44 12 L 212 12 Z M 212 8 L 44 8 L 40 8 L 40 12 L 40 192 L 40 196 L 44 196 L 52 196 L 52 240 L 204 240 L 204 196 L 212 196 L 216 196 L 216 192 L 216 12 L 216 8 Z"/>
</svg>
