<?xml version="1.0" encoding="UTF-8"?>
<!-- Generated by Pixelmator Pro 3.7.1 -->
<svg width="256" height="256" viewBox="0 0 256 256" xmlns="http://www.w3.org/2000/svg">
    <path id="Path" fill="#ffffff" stroke="none" d="M 240.359406 244 L 16.092402 244 C 13.950403 244 12.225397 242.309998 12.225397 240.210999 L 12.225397 111.367996 C 12.225397 109.268997 13.845392 107.578995 16.092402 107.578995 C 18.339396 107.578995 19.959406 105.929001 19.959406 103.789993 C 19.959406 101.649994 21.683405 100 23.825403 100 L 232.626404 100 C 234.767395 100 236.492401 101.744003 236.492401 103.789993 C 236.492401 105.835007 238.208405 107.578995 240.359406 107.578995 C 242.0634 107.578995 243.479401 108.647003 244.000397 110.132004 L 244.225403 240.210999 C 244.225403 242.309998 242.501404 244 240.359406 244 M 15.728403 16 L 16.000406 16 L 16.000406 103.085007 C 15.9844 103.25 15.966394 103.412994 15.962397 103.580002 C 14.500406 103.602997 13.152399 104.007996 12.000406 104.690994 L 12.000406 19.714005 C 12.000406 17.662994 13.669397 16 15.728403 16 M 23.703394 12 L 232.296402 12 C 234.3414 12 236.000397 13.718994 236.000397 15.839996 L 236.000397 16 L 236.000397 96.763 C 234.975403 96.279007 233.834396 96 232.626404 96 L 23.825403 96 C 22.436396 96 21.133402 96.363007 20.000406 96.990997 L 20.000406 16 L 20.000406 15.839996 C 20.000406 13.718994 21.657404 12 23.703394 12 M 240.271393 16 C 242.331406 16 244.000397 17.662994 244.000397 19.714005 L 244.000397 104.473007 C 242.946396 103.925003 241.755402 103.600998 240.489395 103.580002 C 240.465393 102.709 240.291397 101.876007 240.000397 101.098007 L 240.000397 16 Z M 248.000397 19.714005 C 248.000397 15.460007 244.533401 12 240.271393 12 L 240.000397 12 L 239.005402 12 C 237.682404 9.615997 235.173401 8 232.296402 8 L 23.703394 8 C 20.826395 8 18.317392 9.615997 16.994394 12 L 16.000406 12 L 15.728403 12 C 11.466394 12 8.000406 15.460007 8.000406 19.714005 L 8.225397 240.210999 C 8.225397 244.505997 11.755396 248 16.092402 248 L 240.359406 248 C 244.697403 248 248.225403 244.505997 248.225403 240.210999 Z"/>
    <path id="path1" fill="#ffffff" stroke="none" d="M 236.492203 223.744095 C 236.492203 228.015106 233.030197 231.477097 228.759201 231.477097 L 27.692198 231.477097 C 23.421202 231.477097 19.959196 228.015106 19.959196 223.744095 L 19.959196 123.211105 C 19.959196 118.939102 23.421202 115.477097 27.692198 115.477097 L 228.759201 115.477097 C 233.030197 115.477097 236.492203 118.939102 236.492203 123.211105 Z M 228.759201 111.477097 L 27.692198 111.477097 C 21.222197 111.477097 15.959195 116.741104 15.959195 123.211105 L 15.959195 223.744095 C 15.959195 230.214096 21.222197 235.477097 27.692198 235.477097 L 228.759201 235.477097 C 235.228195 235.477097 240.492203 230.214096 240.492203 223.744095 L 240.492203 123.211105 C 240.492203 116.741104 235.228195 111.477097 228.759201 111.477097"/>
    <path id="path2" fill="#ffffff" stroke="none" d="M 106.917503 43.885696 L 126.473503 28.525696 C 126.919502 28.175705 127.459503 27.999695 128.000504 27.999695 C 128.540497 27.999695 129.081497 28.175705 129.527496 28.525696 L 149.082504 43.885696 C 149.893509 44.522705 150.206497 45.592697 149.862503 46.553696 C 149.518509 47.515701 148.593506 48.159698 147.555496 48.159698 L 142.177505 48.159698 L 142.177505 49.599701 C 142.177505 50.925705 141.083496 51.999695 139.733505 51.999695 L 116.266502 51.999695 C 114.917503 51.999695 113.822502 50.925705 113.822502 49.599701 L 113.822502 48.159698 L 108.444496 48.159698 C 107.406502 48.159698 106.481499 47.515701 106.137497 46.553696 C 105.794502 45.592697 106.106499 44.522705 106.917503 43.885696 M 108.444496 52.159698 L 110.360497 52.159698 C 111.356499 54.418701 113.628502 55.999695 116.266502 55.999695 L 139.733505 55.999695 C 142.371506 55.999695 144.643509 54.418701 145.639496 52.159698 L 147.555496 52.159698 C 150.277496 52.159698 152.718506 50.447693 153.628494 47.900696 C 154.551498 45.317703 153.717499 42.439697 151.552505 40.7397 L 131.998505 25.380707 C 130.864502 24.4897 129.444504 23.999695 128.000504 23.999695 C 126.555504 23.999695 125.135498 24.4897 124.002502 25.3797 L 104.446503 40.7397 C 102.282501 42.439697 101.448502 45.317703 102.371498 47.900696 C 103.281502 50.447693 105.722504 52.159698 108.444496 52.159698"/>
</svg>
