<?xml version="1.0" encoding="UTF-8"?>
<!-- Generated by Pixelmator Pro 3.7.1 -->
<svg width="256" height="256" viewBox="0 0 256 256" xmlns="http://www.w3.org/2000/svg">
    <path id="Path" fill="#ffffff" stroke="none" d="M 234.671906 192.781204 C 231.433899 197.638199 226.634903 200.000198 219.999893 200.000198 C 212.914902 200.000198 208.0289 199.241196 204.025894 195.365204 C 199.548904 191.032196 195.920898 182.757202 192.261902 168.531189 C 192.093903 167.881195 191.983902 167.216202 191.933899 166.5522 C 190.443893 146.974197 176.526901 140.000198 163.999908 140.000198 L 91.999901 140.000198 C 72.893898 140.000198 65.0429 153.716202 64.066902 166.5522 C 64.015892 167.21521 63.905895 167.881195 63.738903 168.531189 C 60.078899 182.757202 56.450909 191.032196 51.974895 195.365204 C 47.969906 199.241196 43.084896 200.000198 35.999905 200.000198 C 29.3659 200.000198 24.566904 197.638199 21.327906 192.781204 C 17.792902 187.477203 15.999903 179.140198 15.999903 168.000198 C 15.999903 145.726196 34.256908 89.925201 35.704906 85.535202 C 41.836895 73.426193 51.726894 64.787201 65.106895 59.854202 C 75.356895 56.075211 83.921898 56.000198 83.999901 56.000198 L 171.991898 56.000198 C 172.077896 56.000198 180.643906 56.075211 190.893906 59.854202 C 191.2229 59.975204 191.538895 60.109207 191.863907 60.235199 C 187.373901 61.217209 183.999893 65.219208 183.999893 70.000198 C 183.999893 75.514206 188.485901 80.000198 193.999893 80.000198 C 199.513901 80.000198 203.999893 75.514206 203.999893 70.000198 C 203.999893 68.618195 203.717896 67.3022 203.208908 66.103195 C 205.836899 67.872208 208.262894 69.844208 210.477905 72.0242 C 210.317902 72.016205 210.160904 72.000198 209.999893 72.000198 C 204.485901 72.000198 199.999893 76.486206 199.999893 82.000198 C 199.999893 87.514206 204.485901 92.000198 209.999893 92.000198 C 214.680908 92.000198 218.609894 88.762207 219.692902 84.412201 C 219.893906 84.786194 220.101898 85.154205 220.294907 85.535202 C 221.742905 89.925201 239.999893 145.726196 239.999893 168.000198 C 239.999893 179.140198 238.206894 187.477203 234.671906 192.781204 M 47.999905 64.000198 C 51.999905 52.000198 83.999901 52.000198 83.999901 52.000198 C 83.999901 52.000198 64.636894 52.017197 47.999905 64.643204 Z M 199.999893 70.000198 C 199.999893 73.313202 197.313904 76.000198 193.999893 76.000198 C 190.686905 76.000198 187.999893 73.313202 187.999893 70.000198 C 187.999893 66.686203 190.686905 64.000198 193.999893 64.000198 C 197.313904 64.000198 199.999893 66.686203 199.999893 70.000198 M 207.999893 64.000198 L 207.999893 64.643204 C 191.3629 52.017197 171.999893 52.000198 171.999893 52.000198 C 171.999893 52.000198 203.999893 52.000198 207.999893 64.000198 M 215.999893 82.000198 C 215.999893 85.313202 213.313904 88.000198 209.999893 88.000198 C 206.686905 88.000198 203.999893 85.313202 203.999893 82.000198 C 203.999893 78.686203 206.686905 76.000198 209.999893 76.000198 C 213.313904 76.000198 215.999893 78.686203 215.999893 82.000198 M 223.999893 84.000198 C 220.692902 77.384201 216.523895 72.153198 211.999893 67.990204 L 211.999893 64.000198 C 211.999893 63.570206 211.930908 63.143204 211.794907 62.735199 C 209.635895 56.259201 202.031906 51.826202 189.194901 49.561203 C 180.450897 48.017197 172.340897 48.000198 171.999893 48.000198 C 170.110901 48.000198 168.479904 49.322205 168.086899 51.169205 C 168.001907 51.569199 168.145905 51.829208 168.408905 52.000198 L 88.002892 52.000198 C 88.002892 49.791199 86.213905 48.000198 84.00489 48.000198 L 83.999901 48.000198 C 83.658897 48.000198 75.548897 48.017197 66.804893 49.561203 C 53.967907 51.826202 46.363903 56.259201 44.204906 62.735199 C 44.068905 63.143204 43.999905 63.570206 43.999905 64.000198 L 43.999905 67.990204 C 39.476894 72.153198 35.307903 77.384201 31.999903 84.000198 C 31.999903 84.000198 11.999903 144.000198 11.999903 168.000198 C 11.999903 192.000198 19.999903 204.000198 35.999905 204.000198 C 51.741909 204.000198 59.739895 200.128204 67.612892 169.527191 C 67.837898 168.651199 67.9869 167.757202 68.054893 166.855194 C 68.418892 162.0802 71.169899 144.000198 91.999901 144.000198 L 163.999908 144.000198 C 184.830902 144.000198 187.580902 162.0802 187.943893 166.855194 C 188.013901 167.757202 188.161896 168.651199 188.387894 169.527191 C 196.260895 200.128204 204.257904 204.000198 219.999893 204.000198 C 235.999893 204.000198 243.999893 192.000198 243.999893 168.000198 C 243.999893 144.000198 223.999893 84.000198 223.999893 84.000198"/>
    <path id="path1" fill="#ffffff" stroke="none" d="M 90 128 C 82.279999 128 76 121.720001 76 114 C 76 113.319 76.065002 112.654999 76.160004 112 C 77.135002 118.772995 82.960999 124 90 124 C 97.039001 124 102.864998 118.772995 103.839996 112 C 103.934998 112.654999 104 113.319 104 114 C 104 121.720001 97.720001 128 90 128 M 91.024002 100.052002 C 96.066002 100.563995 100 104.822998 100 110 C 100 115.522995 95.523003 120 90 120 C 84.476997 120 80 115.522995 80 110 C 80 104.822998 83.933998 100.563995 88.975998 100.052002 C 89.315002 100.027008 89.653999 100 90 100 C 90.346001 100 90.684998 100.027008 91.024002 100.052002 M 103.068001 105.018997 C 101.054001 99.755005 95.962997 96 90 96 C 84.037003 96 78.945999 99.755005 76.931999 105.018997 C 73.882004 107.884995 72 111.742996 72 116 C 72 124.835999 80.058998 132 90 132 C 99.941002 132 108 124.835999 108 116 C 108 111.742996 106.117996 107.884995 103.068001 105.018997"/>
    <path id="path2" fill="#ffffff" stroke="none" d="M 166 128 C 158.279999 128 152 121.720001 152 114 C 152 113.319 152.065002 112.654999 152.160004 112 C 153.136002 118.772995 158.960999 124 166 124 C 173.039001 124 178.863998 118.772995 179.839996 112 C 179.934998 112.654999 180 113.319 180 114 C 180 121.720001 173.720001 128 166 128 M 167.022995 100.052002 C 172.065002 100.563995 176 104.822998 176 110 C 176 115.522995 171.522003 120 166 120 C 160.477997 120 156 115.522995 156 110 C 156 104.822998 159.934998 100.563995 164.977005 100.052002 C 165.315002 100.027008 165.654007 100 166 100 C 166.345993 100 166.684998 100.027008 167.022995 100.052002 M 179.067001 105.018997 C 177.054001 99.755005 171.964005 96 166 96 C 160.035995 96 154.945999 99.755005 152.932999 105.018997 C 149.882996 107.884995 148 111.742996 148 116 C 148 124.835999 156.059006 132 166 132 C 175.940994 132 184 124.835999 184 116 C 184 111.742996 182.117004 107.884995 179.067001 105.018997"/>
    <path id="path3" fill="#ffffff" stroke="none" d="M 128 124 C 123.582001 124 120 120.417999 120 116 C 120 111.582001 123.582001 108 128 108 C 132.417999 108 136 111.582001 136 116 C 136 120.417999 132.417999 124 128 124 M 128 104 C 121.383003 104 116 109.382996 116 116 C 116 122.617004 121.383003 128 128 128 C 134.617004 128 140 122.617004 140 116 C 140 109.382996 134.617004 104 128 104"/>
    <path id="path4" fill="#ffffff" stroke="none" d="M 144 88 C 141.791 88 140 86.209 140 84 C 140 81.791 141.791 80 144 80 C 146.209 80 148 81.791 148 84 C 148 86.209 146.209 88 144 88 M 152 84 C 152 79.589005 148.410995 76 144 76 C 139.589005 76 136 79.589005 136 84 C 136 88.410995 139.589005 92 144 92 C 148.410995 92 152 88.410995 152 84"/>
    <path id="path5" fill="#ffffff" stroke="none" d="M 112 88 C 109.791 88 108 86.209 108 84 C 108 81.791 109.791 80 112 80 C 114.209 80 116 81.791 116 84 C 116 86.209 114.209 88 112 88 M 120 84 C 120 79.589005 116.411003 76 112 76 C 107.588997 76 104 79.589005 104 84 C 104 88.410995 107.588997 92 112 92 C 116.411003 92 120 88.410995 120 84"/>
    <path id="path6" fill="#ffffff" stroke="none" d="M 151 66 L 157 66 C 158.656998 66 160 67.343002 160 69 C 160 70.656998 158.656998 72 157 72 L 151 72 C 149.343002 72 148 70.656998 148 69 C 148 67.343002 149.343002 66 151 66 M 151 76 L 157 76 C 160.858994 76 164 72.860001 164 69 C 164 65.139999 160.858994 62 157 62 L 151 62 C 147.141006 62 144 65.139999 144 69 C 144 72.860001 147.141006 76 151 76"/>
    <path id="path7" fill="#ffffff" stroke="none" d="M 99 66 L 105 66 C 106.656998 66 108 67.343002 108 69 C 108 70.656998 106.656998 72 105 72 L 99 72 C 97.343002 72 96 70.656998 96 69 C 96 67.343002 97.343002 66 99 66 M 99 76 L 105 76 C 108.860001 76 112 72.860001 112 69 C 112 65.139999 108.860001 62 105 62 L 99 62 C 95.139999 62 92 65.139999 92 69 C 92 72.860001 95.139999 76 99 76"/>
    <path id="path8" fill="#ffffff" stroke="none" d="M 178 76 C 181.313004 76 184 78.686996 184 82 C 184 85.313004 181.313004 88 178 88 C 174.686996 88 172 85.313004 172 82 C 172 78.686996 174.686996 76 178 76 M 178 92 C 183.514008 92 188 87.514008 188 82 C 188 76.485992 183.514008 72 178 72 C 172.485992 72 168 76.485992 168 82 C 168 87.514008 172.485992 92 178 92"/>
    <path id="path9" fill="#ffffff" stroke="none" d="M 194 104 C 190.686996 104 188 101.313004 188 98 C 188 94.686996 190.686996 92 194 92 C 197.313004 92 200 94.686996 200 98 C 200 101.313004 197.313004 104 194 104 M 194 88 C 188.485992 88 184 92.485992 184 98 C 184 103.514008 188.485992 108 194 108 C 199.514008 108 204 103.514008 204 98 C 204 92.485992 199.514008 88 194 88"/>
    <path id="path10" fill="#ffffff" stroke="none" d="M 68 90 L 68 94 C 68 97.313004 65.313004 100 62 100 C 58.687 100 56 97.313004 56 94 L 56 90 L 52 90 C 48.687 90 46 87.313004 46 84 C 46 80.686996 48.687 78 52 78 L 56 78 L 56 74 C 56 70.686996 58.687 68 62 68 C 65.313004 68 68 70.686996 68 74 L 68 78 L 72 78 C 75.313004 78 78 80.686996 78 84 C 78 87.313004 75.313004 90 72 90 Z M 82 84 C 82 78.485992 77.514 74 72 74 C 72 68.485992 67.514 64 62 64 C 56.486 64 52 68.485992 52 74 C 46.486 74 42 78.485992 42 84 C 42 89.514008 46.486 94 52 94 C 52 99.514008 56.486 104 62 104 C 67.514 104 72 99.514008 72 94 C 77.514 94 82 89.514008 82 84"/>
</svg>
