<?xml version="1.0" encoding="UTF-8"?>
<!-- Generated by Pixelmator Pro 3.7.1 -->
<svg width="256" height="256" viewBox="0 0 256 256" xmlns="http://www.w3.org/2000/svg">
    <path id="Path" fill="#ffffff" stroke="none" d="M 128 8 C 95.946999 8 65.811996 20.481995 43.147003 43.147003 C 20.482002 65.811996 8 95.946991 8 128 C 8 160.052994 20.482002 190.186996 43.147003 212.852997 C 65.811996 235.518005 95.946999 248 128 248 C 160.053009 248 190.188004 235.518005 212.852997 212.852997 C 235.518005 190.186996 248 160.052994 248 128 C 248 95.946991 235.518005 65.811996 212.852997 43.147003 C 190.188004 20.481995 160.053009 8 128 8 M 128 12 C 192.065002 12 244 63.934998 244 128 C 244 192.065002 192.065002 244 128 244 C 63.934998 244 12 192.065002 12 128 C 12 63.934998 63.934998 12 128 12"/>
</svg>
