<?xml version="1.0" encoding="UTF-8"?>
<!-- Generated by Pixelmator Pro 3.7.1 -->
<svg width="256" height="256" viewBox="0 0 256 256" xmlns="http://www.w3.org/2000/svg">
    <path id="Path" fill="#ffffff" stroke="none" d="M 244 58.151901 L 244 197.848907 L 244 203.999908 L 237.878998 203.999908 L 18.121002 203.999908 L 12 203.999908 L 12 197.848907 L 12 58.151901 L 12 51.999893 L 18.121002 51.999893 L 237.878998 51.999893 L 244 51.999893 Z M 244 47.999893 L 237.878998 47.999893 L 18.121002 47.999893 L 12 47.999893 L 8 47.999893 L 8 51.999893 L 8 58.151901 L 8 197.848907 L 8 203.999908 L 8 207.999908 L 12 207.999908 L 18.121002 207.999908 L 237.878998 207.999908 L 244 207.999908 L 248 207.999908 L 248 203.999908 L 248 197.848907 L 248 58.151901 L 248 51.999893 L 248 47.999893 Z"/>
    <path id="path1" fill="#ffffff" stroke="none" d="M 66.826202 172 C 66.370201 172 66.000198 171.625 66.000198 171.165009 L 66.000198 72.834991 C 66.000198 72.375 66.370201 72 66.826202 72 L 189.174194 72 C 189.629196 72 190.000198 72.375 190.000198 72.834991 L 190.000198 171.165009 C 190.000198 171.625 189.629196 172 189.174194 172 Z M 129.861206 192 C 126.629204 192 124.000198 189.30899 124.000198 186 C 124.000198 182.69101 126.629204 180 129.861206 180 L 134.139206 180 C 137.371201 180 140.000198 182.69101 140.000198 186 C 140.000198 189.30899 137.371201 192 134.139206 192 Z M 236.000198 191.270996 C 236.000198 193.882996 233.873199 196 231.249207 196 L 134.139206 196 C 139.576202 196 144.000198 191.514008 144.000198 186 C 144.000198 180.485992 139.576202 176 134.139206 176 L 189.174194 176 C 191.839203 176 194.000198 173.834991 194.000198 171.165009 L 194.000198 72.834991 C 194.000198 70.165009 191.839203 68 189.174194 68 L 66.826202 68 C 64.160202 68 62.000198 70.165009 62.000198 72.834991 L 62.000198 171.165009 C 62.000198 173.834991 64.160202 176 66.826202 176 L 129.861206 176 C 124.424202 176 120.000198 180.485992 120.000198 186 C 120.000198 191.514008 124.424202 196 129.861206 196 L 24.7502 196 C 22.127199 196 20.0002 193.882996 20.0002 191.270996 L 20.0002 64.729004 C 20.0002 62.117004 22.127199 60 24.7502 60 L 231.249207 60 C 233.873199 60 236.000198 62.117004 236.000198 64.729004 Z M 231.249207 56 L 24.7502 56 C 19.926199 56 16.0002 59.916 16.0002 64.729004 L 16.0002 191.270996 C 16.0002 196.084 19.926199 200 24.7502 200 L 231.249207 200 C 236.074203 200 240.000198 196.084 240.000198 191.270996 L 240.000198 64.729004 C 240.000198 59.916 236.074203 56 231.249207 56"/>
    <path id="path2" fill="#ffffff" stroke="none" d="M 180 156 L 76 156 L 76 88 L 180 88 Z M 76 84 L 72 84 L 72 88 L 72 156 L 72 160 L 76 160 L 180 160 L 184 160 L 184 156 L 184 88 L 184 84 L 180 84 Z"/>
    <path id="path3" fill="#ffffff" stroke="none" d="M 90 184 C 91.103996 184 92 183.104004 92 182 C 92 180.895996 91.103996 180 90 180 C 88.896004 180 88 180.895996 88 182 C 88 183.104004 88.896004 184 90 184"/>
    <path id="path4" fill="#ffffff" stroke="none" d="M 38 172 C 32.486 172 28 167.514008 28 162 C 28 156.485992 32.486 152 38 152 C 43.514 152 48 156.485992 48 162 C 48 167.514008 43.514 172 38 172 M 38 148 C 30.280001 148 24 154.279999 24 162 C 24 169.720001 30.280001 176 38 176 C 45.720001 176 52 169.720001 52 162 C 52 154.279999 45.720001 148 38 148"/>
    <path id="path5" fill="#ffffff" stroke="none" d="M 214 172 C 208.485992 172 204 167.514008 204 162 C 204 156.485992 208.485992 152 214 152 C 219.514008 152 224 156.485992 224 162 C 224 167.514008 219.514008 172 214 172 M 214 148 C 206.279999 148 200 154.279999 200 162 C 200 169.720001 206.279999 176 214 176 C 221.720001 176 228 169.720001 228 162 C 228 154.279999 221.720001 148 214 148"/>
    <path id="path6" fill="#ffffff" stroke="none" d="M 162 186.209991 C 162 188.303009 160.412003 190 158.453003 190 L 153.546997 190 C 151.587997 190 150 188.303009 150 186.209991 L 150 185.790009 C 150 183.696991 151.587997 182 153.546997 182 L 158.453003 182 C 160.412003 182 162 183.696991 162 185.790009 Z M 158.453003 178 L 153.546997 178 C 149.386002 178 146 181.494995 146 185.790009 L 146 186.209991 C 146 190.505005 149.386002 194 153.546997 194 L 158.453003 194 C 162.613998 194 166 190.505005 166 186.209991 L 166 185.790009 C 166 181.494995 162.613998 178 158.453003 178"/>
    <path id="path7" fill="#ffffff" stroke="none" d="M 186 186.209991 C 186 188.303009 184.412003 190 182.453003 190 L 177.546997 190 C 175.587997 190 174 188.303009 174 186.209991 L 174 185.790009 C 174 183.696991 175.587997 182 177.546997 182 L 182.453003 182 C 184.412003 182 186 183.696991 186 185.790009 Z M 182.453003 178 L 177.546997 178 C 173.386002 178 170 181.494995 170 185.790009 L 170 186.209991 C 170 190.505005 173.386002 194 177.546997 194 L 182.453003 194 C 186.613998 194 190 190.505005 190 186.209991 L 190 185.790009 C 190 181.494995 186.613998 178 182.453003 178"/>
</svg>
