<?xml version="1.0" encoding="UTF-8"?>
<!-- Generated by Pixelmator Pro 3.7.1 -->
<svg width="256" height="256" viewBox="0 0 256 256" xmlns="http://www.w3.org/2000/svg">
    <path id="Path" fill="#ffffff" stroke="none" d="M 240 12 L 16 12 C 11.589005 12 8 15.589005 8 20 L 8 208 C 8 212.410995 11.589005 216 16 216 L 16.343002 216 C 16.121002 216.626007 16 217.298996 16 218 L 16 236 C 16 240.410995 19.589005 244 24 244 L 236 244 C 240.410995 244 244 240.410995 244 236 L 244 218 C 244 217.298996 243.878998 216.626007 243.656998 216 L 244 216 L 248 216 L 248 212 L 248 20 C 248 15.589005 244.410995 12 240 12 M 240 16 C 242.209 16 244 17.791 244 20 L 244 212 L 236 212 L 236 216 L 238 216 C 239.104004 216 240 216.895996 240 218 L 240 236 C 240 238.209 238.209 240 236 240 L 24 240 C 21.791 240 20 238.209 20 236 L 20 218 C 20 216.895996 20.895996 216 22 216 L 28 216 L 28 212 L 16 212 C 13.791 212 12 210.209 12 208 L 12 20 C 12 17.791 13.791 16 16 16 L 240 16"/>
    <path id="path1" fill="#ffffff" stroke="none" d="M 216 28 L 48 28 C 34.766998 28 24 38.766998 24 52 L 24 212 L 24 216 L 28 216 L 236 216 L 240 216 L 240 212 L 240 52 C 240 38.766998 229.233002 28 216 28 M 216 32 C 227.046005 32 236 40.953995 236 52 L 236 212 L 28 212 L 28 52 C 28 40.953995 36.953995 32 48 32 L 216 32"/>
    <path id="path2" fill="#ffffff" stroke="none" d="M 192 40 L 68 40 L 68 36 L 192 36 Z"/>
    <path id="path3" fill="#ffffff" stroke="none" d="M 192 48 L 68 48 L 68 44 L 192 44 Z"/>
    <path id="path4" fill="#ffffff" stroke="none" d="M 216 52 L 48 52 C 41.382996 52 36 57.382996 36 64 L 36 184 C 36 190.617004 41.382996 196 48 196 L 216 196 C 222.617004 196 228 190.617004 228 184 L 228 64 C 228 57.382996 222.617004 52 216 52 M 216 56 C 220.417999 56 224 59.582001 224 64 L 224 184 C 224 188.417999 220.417999 192 216 192 L 48 192 C 43.582001 192 40 188.417999 40 184 L 40 64 C 40 59.582001 43.582001 56 48 56 L 216 56"/>
    <path id="path5" fill="#ffffff" stroke="none" d="M 32 236 L 28 236 L 28 216 L 32 216 Z"/>
    <path id="path6" fill="#ffffff" stroke="none" d="M 44 236 L 40 236 L 40 216 L 44 216 Z"/>
    <path id="path7" fill="#ffffff" stroke="none" d="M 56 236 L 52 236 L 52 216 L 56 216 Z"/>
    <path id="path8" fill="#ffffff" stroke="none" d="M 68 236 L 64 236 L 64 216 L 68 216 Z"/>
    <path id="path9" fill="#ffffff" stroke="none" d="M 80 236 L 76 236 L 76 216 L 80 216 Z"/>
    <path id="path10" fill="#ffffff" stroke="none" d="M 92 236 L 88 236 L 88 216 L 92 216 Z"/>
    <path id="path11" fill="#ffffff" stroke="none" d="M 104 236 L 100 236 L 100 216 L 104 216 Z"/>
    <path id="path12" fill="#ffffff" stroke="none" d="M 116 236 L 112 236 L 112 216 L 116 216 Z"/>
    <path id="path13" fill="#ffffff" stroke="none" d="M 128 236 L 124 236 L 124 216 L 128 216 Z"/>
    <path id="path14" fill="#ffffff" stroke="none" d="M 140 236 L 136 236 L 136 216 L 140 216 Z"/>
    <path id="path15" fill="#ffffff" stroke="none" d="M 152 236 L 148 236 L 148 216 L 152 216 Z"/>
    <path id="path16" fill="#ffffff" stroke="none" d="M 164 236 L 160 236 L 160 216 L 164 216 Z"/>
    <path id="path17" fill="#ffffff" stroke="none" d="M 176 236 L 172 236 L 172 216 L 176 216 Z"/>
    <path id="path18" fill="#ffffff" stroke="none" d="M 188 236 L 184 236 L 184 216 L 188 216 Z"/>
    <path id="path19" fill="#ffffff" stroke="none" d="M 200 236 L 196 236 L 196 216 L 200 216 Z"/>
    <path id="path20" fill="#ffffff" stroke="none" d="M 212 232 L 208 232 L 208 216 L 212 216 Z"/>
    <path id="path21" fill="#ffffff" stroke="none" d="M 224 232 L 220 232 L 220 216 L 224 216 Z"/>
    <path id="path22" fill="#ffffff" stroke="none" d="M 236 232 L 232 232 L 232 216 L 236 216 Z"/>
</svg>
