<?xml version="1.0" encoding="UTF-8"?>
<!-- Generated by Pixelmator Pro 3.7.1 -->
<svg width="256" height="256" viewBox="0 0 256 256" xmlns="http://www.w3.org/2000/svg">
    <path id="Path" fill="#ffffff" stroke="none" d="M 84 80 C 84 77.794006 85.793999 76 88 76 L 172 76 C 174.205994 76 176 77.794006 176 80 L 176 160 C 176 162.205994 174.205994 164 172 164 L 88 164 C 85.793999 164 84 162.205994 84 160 Z M 88 168 L 172 168 C 176.417999 168 180 164.417999 180 160 L 180 80 C 180 75.582001 176.417999 72 172 72 L 88 72 C 83.582001 72 80 75.582001 80 80 L 80 160 C 80 164.417999 83.582001 168 88 168"/>
    <path id="path1" fill="#ffffff" stroke="none" d="M 104 92 L 156 92 L 156 152 L 104 152 Z M 156 156 L 160 156 L 160 152 L 160 92 L 160 88 L 156 88 L 104 88 L 100 88 L 100 92 L 100 152 L 100 156 L 104 156 Z"/>
    <path id="path2" fill="#ffffff" stroke="none" d="M 53.4702 167.589798 L 45.881199 165.059799 L 43.3512 172.649811 L 35.7612 170.118805 L 38.291199 162.528809 L 30.7012 159.999802 L 33.231201 152.40979 L 40.821201 154.940796 L 43.3512 147.3508 L 50.940201 149.880798 L 48.410198 157.469803 L 56.000198 159.999802 Z M 53.4702 154.940796 L 54.735199 151.145798 L 56.000198 147.3508 L 52.2052 146.0858 L 44.616199 143.556793 L 40.821201 142.290802 L 39.556202 146.0858 L 38.291199 149.880798 L 34.496201 148.615799 L 30.7012 147.3508 L 29.437199 151.145798 L 26.9072 158.735809 L 25.6422 162.5298 L 29.437199 163.7948 L 33.231201 165.059799 L 31.967199 168.854797 L 30.7012 172.649811 L 34.496201 173.913803 L 42.086201 176.443802 L 45.881199 177.708801 L 47.145199 173.913803 L 48.410198 170.118805 L 52.2052 171.383789 L 56.000198 172.649811 L 57.264198 168.854797 L 59.7952 161.264801 L 61.0592 157.469803 L 57.264198 156.204803 Z"/>
    <path id="path3" fill="#ffffff" stroke="none" d="M 204 124 C 201.791 124 200 122.209 200 120 C 200 117.791 201.791 116 204 116 C 206.209 116 208 117.791 208 120 C 208 122.209 206.209 124 204 124 M 204 112 C 199.589005 112 196 115.589005 196 120 C 196 124.410995 199.589005 128 204 128 C 208.410995 128 212 124.410995 212 120 C 212 115.589005 208.410995 112 204 112"/>
    <path id="path4" fill="#ffffff" stroke="none" d="M 220 112 C 222.209 112 224 113.791 224 116 C 224 118.209 222.209 120 220 120 C 217.791 120 216 118.209 216 116 C 216 113.791 217.791 112 220 112 M 220 124 C 224.410995 124 228 120.410995 228 116 C 228 111.589005 224.410995 108 220 108 C 215.589005 108 212 111.589005 212 116 C 212 120.410995 215.589005 124 220 124"/>
    <path id="path5" fill="#ffffff" stroke="none" d="M 224 160 C 219.582001 160 216 156.417999 216 152 C 216 147.582001 219.582001 144 224 144 C 228.417999 144 232 147.582001 232 152 C 232 156.417999 228.417999 160 224 160 M 224 140 C 217.382996 140 212 145.382996 212 152 C 212 158.617004 217.382996 164 224 164 C 230.617004 164 236 158.617004 236 152 C 236 145.382996 230.617004 140 224 140"/>
    <path id="path6" fill="#ffffff" stroke="none" d="M 212 188 L 44 188 C 26.326996 188 12 177.673004 12 160 L 22.363998 84 L 20 84 L 20 83.315002 C 20.847 83.757004 21.796997 84 22.774994 84 L 44.910004 84 L 65.789001 164.039001 C 67.626007 171.080994 73.992996 176 81.270996 176 L 176 176 C 180.901001 176 185.289001 173.779999 188.227005 170.298996 C 189.302994 175.817993 194.169998 180 200 180 C 206.617004 180 212 174.617004 212 168 C 212 161.382996 206.617004 156 200 156 C 196.925003 156 194.126007 157.173004 192 159.080994 L 192 88 C 192 85.794006 193.794998 84 196 84 L 216 84 C 220.410995 84 224 80.411011 224 76 L 224 72 L 225.016998 72 C 229.018005 72 232.403 74.955002 232.942993 78.919006 L 244 160 C 244 177.673004 229.673004 188 212 188 M 200 160 C 204.417999 160 208 163.582001 208 168 C 208 172.417999 204.417999 176 200 176 C 195.582001 176 192 172.417999 192 168 C 192 163.582001 195.582001 160 200 160 M 20.876999 77.367996 L 22.255005 73.233002 C 23.306 70.083008 24.682007 68.138 28 68 L 128 68 L 216 68 C 218.209 68 220 69.791 220 72 L 220 76 C 220 78.209 218.209 80 216 80 L 196 80 C 191.582001 80 188 83.582001 188 88 L 188 160 C 188 166.626999 182.626999 172 176 172 L 81.270996 172 C 75.811005 172 71.037994 168.313004 69.660004 163.028992 L 48.779999 82.98999 C 48.320999 81.229004 46.729996 80 44.910004 80 L 22.774994 80 C 21.410004 80 20.445999 78.662994 20.876999 77.367996 M 247.962997 159.459991 L 236.906998 78.378998 C 236.100006 72.462006 230.988007 68 225.016998 68 L 224 68 L 222.917999 68 C 221.531006 65.613007 218.953003 64 216 64 L 128 64 L 28 64 L 27.917007 64 L 27.832993 64.002991 C 21.020996 64.287003 19.160995 69.867996 18.460999 71.968994 L 17.082993 76.102997 C 16.475006 77.927002 16.783005 79.947998 17.906998 81.507996 C 18.104004 81.781006 18.328003 82.027008 18.563995 82.259003 L 8.037003 159.459991 L 8 159.729004 L 8 160 C 8 178.841003 22.804001 192 44 192 L 212 192 C 233.195999 192 248 178.841003 248 160 L 248 159.729004 Z"/>
</svg>
