<?xml version="1.0" encoding="UTF-8"?>
<!-- Generated by Pixelmator Pro 3.7.1 -->
<svg width="256" height="256" viewBox="0 0 256 256" xmlns="http://www.w3.org/2000/svg">
    <path id="Path" fill="#ffffff" stroke="none" d="M 120 220.670197 C 120 222.501205 118.501999 224.000198 116.669998 224.000198 L 99.330002 224.000198 C 97.498001 224.000198 96 222.501205 96 220.670197 L 96 179.3302 C 96 177.498199 97.498001 176.000198 99.330002 176.000198 L 116.669998 176.000198 C 118.501999 176.000198 120 177.498199 120 179.3302 Z M 116.669998 172.000198 L 99.330002 172.000198 C 95.288002 172.000198 92 175.288208 92 179.3302 L 92 220.670197 C 92 224.712204 95.288002 228.000198 99.330002 228.000198 L 116.669998 228.000198 C 120.711998 228.000198 124 224.712204 124 220.670197 L 124 179.3302 C 124 175.288208 120.711998 172.000198 116.669998 172.000198"/>
    <path id="path1" fill="#ffffff" stroke="none" d="M 100 188 L 104 188 L 104 184 L 100 184 Z"/>
    <path id="path2" fill="#ffffff" stroke="none" d="M 108 188 L 112 188 L 112 184 L 108 184 Z"/>
    <path id="path3" fill="#ffffff" stroke="none" d="M 100 196 L 104 196 L 104 192 L 100 192 Z"/>
    <path id="path4" fill="#ffffff" stroke="none" d="M 108 196 L 112 196 L 112 192 L 108 192 Z"/>
    <path id="path5" fill="#ffffff" stroke="none" d="M 160 220.670197 C 160 222.501205 158.501999 224.000198 156.669998 224.000198 L 139.330002 224.000198 C 137.498001 224.000198 136 222.501205 136 220.670197 L 136 179.3302 C 136 177.498199 137.498001 176.000198 139.330002 176.000198 L 156.669998 176.000198 C 158.501999 176.000198 160 177.498199 160 179.3302 Z M 156.669998 172.000198 L 139.330002 172.000198 C 135.287994 172.000198 132 175.288208 132 179.3302 L 132 220.670197 C 132 224.712204 135.287994 228.000198 139.330002 228.000198 L 156.669998 228.000198 C 160.712006 228.000198 164 224.712204 164 220.670197 L 164 179.3302 C 164 175.288208 160.712006 172.000198 156.669998 172.000198"/>
    <path id="path6" fill="#ffffff" stroke="none" d="M 144 188 L 148 188 L 148 184 L 144 184 Z"/>
    <path id="path7" fill="#ffffff" stroke="none" d="M 152 188 L 156 188 L 156 184 L 152 184 Z"/>
    <path id="path8" fill="#ffffff" stroke="none" d="M 144 196 L 148 196 L 148 192 L 144 192 Z"/>
    <path id="path9" fill="#ffffff" stroke="none" d="M 152 196 L 156 196 L 156 192 L 152 192 Z"/>
    <path id="path10" fill="#ffffff" stroke="none" d="M 144 148 C 141.791 148 140 146.992996 140 145.75 C 140 144.804001 141.041 143.997009 142.511002 143.665009 L 141.75 139.162994 C 141.75 138.248001 142.763 137.5 144 137.5 C 145.237 137.5 146.25 138.248001 146.25 139.162994 L 145.488998 143.665009 C 146.959 143.997009 148 144.804001 148 145.75 C 148 146.992996 146.209 148 144 148 M 149.919006 141.45401 L 150.194 139.830002 L 150.25 139.498993 L 150.25 139.162994 C 150.25 135.987 147.505005 133.5 144 133.5 C 140.494995 133.5 137.75 135.987 137.75 139.162994 L 137.75 139.498993 L 137.806 139.830002 L 138.080994 141.45401 C 136.761002 142.56601 136 144.070007 136 145.75 C 136 149.313004 139.438995 152 144 152 C 148.561005 152 152 149.313004 152 145.75 C 152 144.070007 151.238998 142.56601 149.919006 141.45401"/>
    <path id="path11" fill="#ffffff" stroke="none" d="M 108 148 C 105.791 148 104 146.992996 104 145.75 C 104 144.804001 105.041 143.997009 106.511002 143.665009 L 105.75 139.162994 C 105.75 138.248001 106.763 137.5 108 137.5 C 109.237 137.5 110.25 138.248001 110.25 139.162994 L 109.488998 143.665009 C 110.959 143.997009 112 144.804001 112 145.75 C 112 146.992996 110.209 148 108 148 M 113.918999 141.45401 L 114.194 139.830002 L 114.25 139.498993 L 114.25 139.162994 C 114.25 135.987 111.504997 133.5 108 133.5 C 104.495003 133.5 101.75 135.987 101.75 139.162994 L 101.75 139.498993 L 101.806 139.830002 L 102.081001 141.45401 C 100.761002 142.56601 100 144.070007 100 145.75 C 100 149.313004 103.439003 152 108 152 C 112.560997 152 116 149.313004 116 145.75 C 116 144.070007 115.238998 142.56601 113.918999 141.45401"/>
    <path id="path12" fill="#ffffff" stroke="none" d="M 132 96 L 124 96 L 124 88 L 120 88 L 120 108 L 124 108 L 124 100 L 132 100 L 132 108 L 136 108 L 136 88 L 132 88 Z"/>
    <path id="path13" fill="#ffffff" stroke="none" d="M 144 92 L 152 92 L 152 88 L 144 88 L 140 88 L 140 108 L 144 108 L 152 108 L 152 104 L 144 104 L 144 100 L 152 100 L 152 96 L 144 96 Z"/>
    <path id="path14" fill="#ffffff" stroke="none" d="M 156 100 L 152 100 L 152 104 L 156 104 Z"/>
    <path id="path15" fill="#ffffff" stroke="none" d="M 152 96 L 156 96 L 156 92 L 152 92 Z"/>
    <path id="path16" fill="#ffffff" stroke="none" d="M 100 100 L 116 100 L 116 96 L 100 96 Z"/>
    <path id="path17" fill="#ffffff" stroke="none" d="M 100 92 L 116 92 L 116 88 L 100 88 Z"/>
    <path id="path18" fill="#ffffff" stroke="none" d="M 100 108 L 116 108 L 116 104 L 100 104 Z"/>
    <path id="path19" fill="#ffffff" stroke="none" d="M 174 44 L 82 44 L 82 20 L 174 20 Z M 178 16 L 78 16 L 78 48 L 178 48 Z"/>
    <path id="path20" fill="#ffffff" stroke="none" d="M 169.055801 56 L 165.055801 64 L 90.944801 64 L 86.944801 56 Z M 167.527802 68 L 175.527802 52 L 80.471802 52 L 88.471802 68 Z"/>
    <path id="path21" fill="#ffffff" stroke="none" d="M 96.347198 116 C 96.343201 116 96.341202 116 96.340202 116 L 99.680199 76 L 156.319199 76 L 159.653198 116 Z M 156.319199 72 L 99.680199 72 C 97.600197 72 95.867203 73.595001 95.694199 75.667999 L 92.361198 115.667999 C 92.167198 118 94.007202 120 96.347198 120 L 159.653198 120 C 161.99321 120 163.833206 118 163.639206 115.667999 L 160.305206 75.667999 C 160.133194 73.595001 158.400208 72 156.319199 72"/>
    <path id="path22" fill="#ffffff" stroke="none" d="M 197.116898 172.600006 L 179.777893 172.600006 L 175.999893 244 L 79.999901 244 L 76.221901 172.600006 L 58.882908 172.600006 C 57.160908 172.600006 55.632908 171.442993 55.087894 169.727997 L 53.269901 164 L 202.729904 164 L 200.911896 169.727997 C 200.366898 171.442993 198.838898 172.600006 197.116898 172.600006 M 66.89389 130.210999 C 67.571899 128.856003 68.956894 128 70.471901 128 L 74.0159 128 C 73.843895 128.524002 73.749901 129.082001 73.749901 129.662994 L 73.749901 129.998993 L 73.805901 130.330002 L 74.080894 131.95401 C 72.760895 133.06601 71.999901 134.570007 71.999901 136.25 C 71.999901 139.813004 75.438896 142.5 79.999901 142.5 C 84.560898 142.5 87.999901 139.813004 87.999901 136.25 C 87.999901 134.570007 87.238899 133.06601 85.9189 131.95401 L 86.193901 130.330002 L 86.249901 129.998993 L 86.249901 129.662994 C 86.249901 129.082001 86.155899 128.524002 85.983894 128 L 170.0159 128 C 169.843903 128.524002 169.749893 129.082001 169.749893 129.662994 L 169.749893 129.998993 L 169.805893 130.330002 L 170.080902 131.95401 C 168.760895 133.06601 167.999893 134.570007 167.999893 136.25 C 167.999893 139.813004 171.438904 142.5 175.999893 142.5 C 180.560898 142.5 183.999893 139.813004 183.999893 136.25 C 183.999893 134.570007 183.238907 133.06601 181.9189 131.95401 L 182.193893 130.330002 L 182.249893 129.998993 L 182.249893 129.662994 C 182.249893 129.082001 182.155899 128.524002 181.983902 128 L 185.527893 128 C 187.042892 128 188.427902 128.856003 189.105896 130.210999 L 203.999893 160 L 51.999897 160 Z M 82.249901 129.662994 L 81.488899 134.165009 C 82.9589 134.497009 83.999901 135.304001 83.999901 136.25 C 83.999901 137.493011 82.2089 138.5 79.999901 138.5 C 77.790901 138.5 75.999901 137.493011 75.999901 136.25 C 75.999901 135.304001 77.040901 134.497009 78.511894 134.165009 L 77.749901 129.662994 C 77.749901 128.748001 78.762901 128 79.999901 128 C 81.2379 128 82.249901 128.748001 82.249901 129.662994 M 74.421898 48.845001 C 74.144897 48.289001 73.999901 47.677002 73.999901 47.056 L 73.999901 16 C 73.999901 13.791 75.790901 12 77.999901 12 L 177.999893 12 C 180.208893 12 181.999893 13.791 181.999893 16 L 181.999893 47.056 C 181.999893 47.677002 181.854904 48.289001 181.577896 48.845001 L 169.999893 72 L 173.713898 124 L 82.285896 124 L 85.999901 72 Z M 178.249893 129.662994 L 177.488907 134.165009 C 178.958893 134.497009 179.999893 135.304001 179.999893 136.25 C 179.999893 137.493011 178.208893 138.5 175.999893 138.5 C 173.790894 138.5 171.999893 137.493011 171.999893 136.25 C 171.999893 135.304001 173.040894 134.497009 174.511902 134.165009 L 173.749893 129.662994 C 173.749893 128.748001 174.762894 128 175.999893 128 C 177.2379 128 178.249893 128.748001 178.249893 129.662994 M 207.992905 160 C 207.992905 159.389008 207.859894 158.776001 207.577896 158.210999 L 192.682907 128.421997 C 191.318893 125.695007 188.577896 124 185.527893 124 L 177.724899 124 L 174.067902 72.807999 L 185.154907 50.632996 C 185.707901 49.528 185.999893 48.291 185.999893 47.056 L 185.999893 16 C 185.999893 11.589005 182.410904 8 177.999893 8 L 77.999901 8 C 73.588898 8 69.999901 11.589005 69.999901 16 L 69.999901 47.056 C 69.999901 48.291 70.291901 49.528 70.844894 50.632996 L 81.9319 72.807999 L 78.275894 124 L 70.471901 124 C 67.42189 124 64.680893 125.695007 63.316898 128.421997 L 48.421894 158.210999 C 48.139896 158.776001 48.006901 159.389008 48.006901 160 L 47.802906 160 L 48.187901 161.209991 L 51.275898 170.938995 C 52.350895 174.324997 55.407902 176.600006 58.882908 176.600006 L 72.427895 176.600006 L 76.005898 244.210999 L 76.205894 248 L 79.999901 248 L 175.999893 248 L 179.7939 248 L 179.994904 244.210999 L 183.571899 176.600006 L 197.116898 176.600006 C 200.591904 176.600006 203.648895 174.324997 204.723907 170.938004 L 207.812897 161.209991 L 208.196899 160 Z"/>
</svg>
