<?xml version="1.0" encoding="UTF-8"?>
<!-- Generated by Pixelmator Pro 3.7.1 -->
<svg width="256" height="256" viewBox="0 0 256 256" xmlns="http://www.w3.org/2000/svg">
    <path id="Path" fill="#ffffff" stroke="none" d="M 238 208 C 236.895004 208 236 208.895004 236 210 C 236 211.104996 236.895004 212 238 212 C 239.104996 212 240 211.104996 240 210 C 240 208.895004 239.104996 208 238 208"/>
    <path id="path1" fill="#ffffff" stroke="none" d="M 18 44 C 16.895 44 16 44.895004 16 46 C 16 47.104996 16.895 48 18 48 C 19.105 48 20 47.104996 20 46 C 20 44.895004 19.105 44 18 44"/>
    <path id="path2" fill="#ffffff" stroke="none" d="M 18 208 C 16.895 208 16 208.895004 16 210 C 16 211.104996 16.895 212 18 212 C 19.105 212 20 211.104996 20 210 C 20 208.895004 19.105 208 18 208"/>
    <path id="path3" fill="#ffffff" stroke="none" d="M 240 46 C 240 44.895004 239.104996 44 238 44 C 236.895004 44 236 44.895004 236 46 C 236 47.104996 236.895004 48 238 48 C 239.104996 48 240 47.104996 240 46"/>
    <path id="path4" fill="#ffffff" stroke="none" d="M 50 48 C 48.895 48 48 48.895004 48 50 C 48 51.104996 48.895 52 50 52 C 51.105 52 52 51.104996 52 50 C 52 48.895004 51.105 48 50 48"/>
    <path id="path5" fill="#ffffff" stroke="none" d="M 30 52 C 31.105 52 32 51.104996 32 50 C 32 48.895004 31.105 48 30 48 C 28.895 48 28 48.895004 28 50 C 28 51.104996 28.895 52 30 52"/>
    <path id="path6" fill="#ffffff" stroke="none" d="M 28 184 L 32 184 L 32 164 L 28 164 Z"/>
    <path id="path7" fill="#ffffff" stroke="none" d="M 40 164 L 36 164 L 36 184 L 40 184 Z"/>
    <path id="path8" fill="#ffffff" stroke="none" d="M 28 208 L 32 208 L 32 188 L 28 188 Z"/>
    <path id="path9" fill="#ffffff" stroke="none" d="M 40 188 L 36 188 L 36 208 L 40 208 Z"/>
    <path id="path10" fill="#ffffff" stroke="none" d="M 28 74 C 29.103001 74 30 74.897003 30 76 C 30 77.102997 29.103001 78 28 78 C 26.896999 78 26 77.102997 26 76 C 26 74.897003 26.896999 74 28 74 M 28 80 C 30.209 80 32 78.209 32 76 C 32 73.791 30.209 72 28 72 C 25.791 72 24 73.791 24 76 C 24 78.209 25.791 80 28 80"/>
    <path id="path11" fill="#ffffff" stroke="none" d="M 24 66 C 22.896999 66 22 65.102997 22 64 C 22 62.897003 22.896999 62 24 62 C 25.103001 62 26 62.897003 26 64 C 26 65.102997 25.103001 66 24 66 M 24 60 C 21.791 60 20 61.791 20 64 C 20 66.209 21.791 68 24 68 C 26.209 68 28 66.209 28 64 C 28 61.791 26.209 60 24 60"/>
    <path id="path12" fill="#ffffff" stroke="none" d="M 32 66 C 30.896999 66 30 65.102997 30 64 C 30 62.897003 30.896999 62 32 62 C 33.103001 62 34 62.897003 34 64 C 34 65.102997 33.103001 66 32 66 M 32 60 C 29.791 60 28 61.791 28 64 C 28 66.209 29.791 68 32 68 C 34.209 68 36 66.209 36 64 C 36 61.791 34.209 60 32 60"/>
    <path id="path13" fill="#ffffff" stroke="none" d="M 40 66 C 38.896999 66 38 65.102997 38 64 C 38 62.897003 38.896999 62 40 62 C 41.103001 62 42 62.897003 42 64 C 42 65.102997 41.103001 66 40 66 M 40 60 C 37.791 60 36 61.791 36 64 C 36 66.209 37.791 68 40 68 C 42.209 68 44 66.209 44 64 C 44 61.791 42.209 60 40 60"/>
    <path id="path14" fill="#ffffff" stroke="none" d="M 48 66 C 46.896999 66 46 65.102997 46 64 C 46 62.897003 46.896999 62 48 62 C 49.103001 62 50 62.897003 50 64 C 50 65.102997 49.103001 66 48 66 M 48 60 C 45.791 60 44 61.791 44 64 C 44 66.209 45.791 68 48 68 C 50.209 68 52 66.209 52 64 C 52 61.791 50.209 60 48 60"/>
    <path id="path15" fill="#ffffff" stroke="none" d="M 56 62 C 57.103001 62 58 62.897003 58 64 C 58 65.102997 57.103001 66 56 66 C 54.896999 66 54 65.102997 54 64 C 54 62.897003 54.896999 62 56 62 M 52 64 C 52 66.209 53.791 68 56 68 C 58.209 68 60 66.209 60 64 C 60 61.791 58.209 60 56 60 C 53.791 60 52 61.791 52 64"/>
    <path id="path16" fill="#ffffff" stroke="none" d="M 56 108 L 36 108 L 36 112 L 56 112 Z"/>
    <path id="path17" fill="#ffffff" stroke="none" d="M 40 92 L 24 92 L 24 96 L 40 96 Z"/>
    <path id="path18" fill="#ffffff" stroke="none" d="M 40 84 L 24 84 L 24 88 L 40 88 Z"/>
    <path id="path19" fill="#ffffff" stroke="none" d="M 40 100 L 24 100 L 24 104 L 40 104 Z"/>
    <path id="path20" fill="#ffffff" stroke="none" d="M 244 48 L 240 48 L 238 48 L 232 48 L 228 48 L 228 52 L 228 92 L 228 96 L 228 136 L 228 140 L 228 168 L 216 168 L 212 168 L 212 172 L 212 212 L 212 216 L 192 216 L 192 212 L 192 200 L 192 196 L 192 184 L 192 180 L 200 180 L 204 180 L 204 176 L 204 164 L 208 164 L 212 164 L 216 164 L 220 164 L 224 164 L 224 160 L 224 144 L 224 140 L 224 124 L 224 120 L 224 104 L 224 100 L 224 84 L 224 80 L 224 64 L 224 60 L 224 44 L 224 40 L 244 40 Z M 240 140 L 240 180 L 232 180 L 232 172 L 232 168 L 232 140 Z M 232 52 L 240 52 L 240 92 L 232 92 Z M 240 136 L 232 136 L 232 96 L 240 96 Z M 244 216 L 232 216 L 232 212 L 232 184 L 240 184 L 244 184 Z M 228 180 L 228 184 L 228 212 L 216 212 L 216 172 L 228 172 Z M 188 196 L 148 196 L 148 184 L 188 184 Z M 188 212 L 148 212 L 148 200 L 188 200 Z M 144 184 L 144 196 L 144 200 L 144 212 L 144 216 L 88 216 L 88 212 L 92 212 L 108 212 L 112 212 L 112 208 L 112 204 L 112 200 L 128 200 L 128 208 L 128 212 L 132 212 L 136 212 L 140 212 L 140 208 L 140 180 L 144 180 Z M 64 148 L 64 144 L 96 144 L 96 148 L 88 148 L 84 148 Z M 84 156 L 84 160 L 84 164 L 52 164 L 52 160 L 52 156 L 52 152 L 60 152 L 64 152 L 84 152 Z M 84 172 L 84 180 L 52 180 L 52 168 L 84 168 Z M 84 192 L 84 196 L 52 196 L 52 184 L 84 184 Z M 84 212 L 52 212 L 52 200 L 84 200 Z M 40 156 L 36 156 L 36 144 L 40 144 Z M 36 124 L 40 124 L 40 136 L 36 136 Z M 44 120 L 40 120 L 36 120 L 32 120 L 32 124 L 32 136 L 32 140 L 32 144 L 32 156 L 32 160 L 36 160 L 40 160 L 44 160 L 48 160 L 48 164 L 48 168 L 48 180 L 48 184 L 48 196 L 48 200 L 48 212 L 48 216 L 20 216 L 12 216 L 12 196 L 20 196 L 20 188 L 12 188 L 12 124 L 20 124 L 20 120 L 12 120 L 12 100 L 20 100 L 20 92 L 12 92 L 12 40 L 52 40 L 52 44 L 52 50 L 52 56 L 52 60 L 56 60 L 60 60 L 60 64 L 60 72 L 52 72 L 48 72 L 48 76 L 48 80 L 48 84 L 52 84 L 56 84 L 56 92 L 48 92 L 48 84 L 44 84 L 44 104 L 48 104 L 48 96 L 56 96 L 56 104 L 60 104 L 60 84 L 64 84 L 64 104 L 68 104 L 76 104 L 76 100 L 68 100 L 68 96 L 76 96 L 76 92 L 68 92 L 68 88 L 76 88 L 76 84 L 80 84 L 84 84 L 84 88 L 84 108 L 80 108 L 64 108 L 60 108 L 60 112 L 60 116 L 60 120 L 60 124 L 60 128 L 60 132 L 60 136 L 60 140 L 60 144 L 60 148 L 52 148 L 52 144 L 52 140 L 52 136 L 52 124 L 52 120 L 48 120 Z M 48 136 L 44 136 L 44 124 L 48 124 Z M 48 148 L 48 152 L 48 156 L 44 156 L 44 144 L 48 144 Z M 56 44 L 96 44 L 96 56 L 92 56 L 88 56 L 64 56 L 60 56 L 56 56 Z M 100 44 L 136 44 L 136 56 L 124 56 L 120 56 L 100 56 Z M 140 80 L 140 76 L 140 72 L 140 68 L 156 68 L 160 68 L 160 72 L 156 72 L 152 72 L 152 76 L 152 80 L 152 84 L 140 84 Z M 140 60 L 156 60 L 156 64 L 140 64 Z M 140 44 L 140 40 L 160 40 L 160 44 L 160 48 L 160 52 L 160 56 L 156 56 L 140 56 Z M 180 76 L 180 80 L 156 80 L 156 76 L 160 76 L 164 76 Z M 164 68 L 180 68 L 180 72 L 164 72 Z M 164 60 L 180 60 L 180 64 L 164 64 Z M 164 52 L 180 52 L 180 56 L 164 56 Z M 164 44 L 180 44 L 180 48 L 164 48 Z M 200 124 L 200 140 L 180 140 L 180 124 L 184 124 Z M 188 84 L 188 60 L 212 60 L 212 64 L 212 80 L 212 84 Z M 172 136 L 156 136 L 156 132 L 172 132 Z M 172 128 L 156 128 L 156 124 L 172 124 Z M 180 116 L 180 120 L 176 120 L 172 120 L 156 120 L 156 116 Z M 180 112 L 156 112 L 156 108 L 180 108 Z M 180 104 L 156 104 L 156 100 L 180 100 Z M 156 84 L 180 84 L 180 88 L 156 88 Z M 180 96 L 156 96 L 156 92 L 180 92 Z M 128 112 L 152 112 L 152 116 L 128 116 Z M 128 120 L 152 120 L 152 124 L 128 124 Z M 152 140 L 128 140 L 128 136 L 152 136 Z M 128 128 L 152 128 L 152 132 L 128 132 Z M 124 108 L 120 108 L 120 100 L 152 100 L 152 104 L 152 108 L 128 108 Z M 112 156 L 112 152 L 124 152 L 128 152 L 128 156 Z M 112 160 L 128 160 L 128 164 L 112 164 Z M 112 168 L 128 168 L 128 172 L 112 172 Z M 112 176 L 128 176 L 128 180 L 112 180 Z M 112 184 L 128 184 L 128 188 L 112 188 Z M 112 192 L 128 192 L 128 196 L 112 196 Z M 104 148 L 100 148 L 100 144 L 124 144 L 124 148 L 112 148 L 108 148 Z M 100 172 L 100 192 L 88 192 L 88 184 L 88 180 L 88 172 Z M 104 164 L 88 164 L 88 160 L 104 160 Z M 100 152 L 104 152 L 104 156 L 88 156 L 88 152 L 96 152 Z M 96 140 L 64 140 L 64 136 L 96 136 Z M 96 132 L 64 132 L 64 128 L 96 128 Z M 96 124 L 64 124 L 64 120 L 96 120 Z M 96 112 L 96 116 L 64 116 L 64 112 L 80 112 L 84 112 Z M 100 120 L 124 120 L 124 124 L 100 124 Z M 124 140 L 100 140 L 100 136 L 124 136 Z M 100 128 L 124 128 L 124 132 L 100 132 Z M 120 112 L 124 112 L 124 116 L 100 116 L 100 112 L 116 112 Z M 120 76 L 120 80 L 120 84 L 116 84 L 116 80 L 116 76 Z M 120 64 L 116 64 L 116 60 L 120 60 Z M 136 68 L 136 72 L 124 72 L 120 72 L 120 68 L 124 68 Z M 136 64 L 124 64 L 124 60 L 136 60 Z M 124 76 L 136 76 L 136 80 L 124 80 Z M 152 88 L 152 92 L 152 96 L 120 96 L 120 88 Z M 96 64 L 112 64 L 112 80 L 96 80 Z M 72 76 L 88 76 L 88 80 L 72 80 Z M 68 76 L 68 80 L 52 80 L 52 76 L 60 76 L 64 76 Z M 64 72 L 64 60 L 88 60 L 88 72 L 72 72 L 68 72 Z M 88 88 L 116 88 L 116 96 L 116 100 L 116 108 L 100 108 L 96 108 L 88 108 Z M 108 208 L 92 208 L 92 204 L 108 204 Z M 92 200 L 88 200 L 88 196 L 100 196 L 104 196 L 104 192 L 104 172 L 104 168 L 108 168 L 108 172 L 108 176 L 108 180 L 108 184 L 108 188 L 108 192 L 108 196 L 108 200 Z M 136 180 L 136 208 L 132 208 L 132 200 L 132 196 L 132 192 L 132 188 L 132 184 L 132 180 Z M 160 152 L 160 176 L 140 176 L 136 176 L 136 152 Z M 200 176 L 176 176 L 176 152 L 200 152 Z M 176 148 L 172 148 L 172 152 L 172 176 L 172 180 L 164 180 L 164 176 L 164 152 L 164 148 L 160 148 L 136 148 L 132 148 L 128 148 L 128 144 L 152 144 L 156 144 L 156 140 L 172 140 L 176 140 L 176 144 L 180 144 L 200 144 L 204 144 L 204 148 L 200 148 Z M 188 116 L 188 92 L 212 92 L 212 100 L 212 104 L 212 116 Z M 212 160 L 208 160 L 208 144 L 212 144 Z M 208 124 L 212 124 L 212 140 L 208 140 Z M 184 52 L 188 52 L 212 52 L 212 56 L 188 56 L 184 56 Z M 188 44 L 212 44 L 212 48 L 188 48 Z M 216 144 L 220 144 L 220 160 L 216 160 Z M 216 124 L 220 124 L 220 140 L 216 140 Z M 216 116 L 216 104 L 220 104 L 220 120 L 216 120 Z M 216 92 L 216 88 L 216 84 L 220 84 L 220 100 L 216 100 Z M 216 64 L 220 64 L 220 80 L 216 80 Z M 216 56 L 216 52 L 216 48 L 216 44 L 220 44 L 220 60 L 216 60 Z M 244 36 L 12 36 L 8 36 L 8 40 L 8 92 L 8 96 L 8 100 L 8 120 L 8 124 L 8 188 L 8 192 L 8 196 L 8 216 L 8 220 L 12 220 L 20 220 L 244 220 L 248 220 L 248 216 L 248 92 L 248 40 L 248 36 Z"/>
    <path id="path21" fill="#ffffff" stroke="none" d="M 80 88 L 76 88 L 76 92 L 80 92 Z"/>
    <path id="path22" fill="#ffffff" stroke="none" d="M 80 96 L 76 96 L 76 100 L 80 100 Z"/>
</svg>
