<?xml version="1.0" encoding="UTF-8"?>
<!-- Generated by Pixelmator Pro 3.7.1 -->
<svg width="256" height="256" viewBox="0 0 256 256" xmlns="http://www.w3.org/2000/svg">
    <path id="Path" fill="#ffffff" stroke="none" d="M 244 204 L 232 204 L 228 204 L 216 204 L 216 134.04599 C 216 132.916 215.084 132 213.953995 132 L 212.007004 132 L 208.084991 41.975998 C 208.072998 41.283005 207.942001 40.619995 207.722 40 L 244 40 Z M 244 220 L 232 220 L 232 208 L 244 208 Z M 126 220 L 28 220 L 28 208 L 36 208 L 36 209.953995 C 36 211.084 36.916 212 38.046005 212 L 44 212 C 44 213.610001 44.800003 215.731003 48.612 216.686005 C 49.815002 216.987 51.462006 217.263 53.647995 217.528 C 57.667999 218.014999 63.384995 218.451004 70.641006 218.822998 C 85.438995 219.582001 105.098999 220 126 220 C 146.901001 220 166.561005 219.582001 181.359009 218.822998 C 188.615005 218.451004 194.332001 218.014999 198.352005 217.528 C 200.537994 217.263 202.184998 216.987 203.388 216.686005 C 207.199997 215.731003 208 213.610001 208 212 L 213.953995 212 C 215.084 212 216 211.084 216 209.953995 L 216 208 L 228 208 L 228 220 Z M 12 208 L 24 208 L 24 220 L 12 220 Z M 12 40 L 44.278 40 C 44.057999 40.619995 43.927002 41.283005 43.914993 41.975998 L 39.992996 132 L 38.046005 132 C 36.916 132 36 132.916 36 134.04599 L 36 204 L 28 204 L 24 204 L 12 204 Z M 204 212 C 204 214.209 169.078003 216 126 216 C 82.921997 216 48 214.209 48 212 Z M 40.091995 136.09201 L 211.908005 136.09201 L 211.908005 207.908005 L 40.091995 207.908005 Z M 204 42.087006 L 207.916992 132 L 44.082993 132 L 48 42.087006 C 48 40.934006 48.895004 40 50 40 L 202 40 C 203.104996 40 204 40.934006 204 42.087006 M 244 36 L 202.972 36 C 202.654999 35.947998 202.330994 35.914001 202 35.914001 L 50 35.914001 C 49.669006 35.914001 49.345001 35.947998 49.028 36 L 12 36 L 8 36 L 8 40 L 8 204 L 8 208 L 8 220 L 8 224 L 12 224 L 24 224 L 28 224 L 228 224 L 232 224 L 244 224 L 248 224 L 248 220 L 248 40 L 248 36 Z"/>
</svg>
