<?xml version="1.0" encoding="UTF-8"?>
<!-- Generated by Pixelmator Pro 3.7.1 -->
<svg width="256" height="256" viewBox="0 0 256 256" xmlns="http://www.w3.org/2000/svg">
    <path id="Path" fill="#ffffff" stroke="none" d="M 89.143097 100.571304 C 92.930099 100.571304 96.000099 103.641296 96.000099 107.428299 C 96.000099 111.216293 92.930099 114.285294 89.143097 114.285294 C 85.356102 114.285294 82.286102 111.216293 82.286102 107.428299 C 82.286102 103.641296 85.356102 100.571304 89.143097 100.571304 M 89.143097 118.285294 C 95.129097 118.285294 100.000099 113.415298 100.000099 107.428299 C 100.000099 101.442307 95.129097 96.571304 89.143097 96.571304 C 83.156097 96.571304 78.286102 101.442307 78.286102 107.428299 C 78.286102 113.415298 83.156097 118.285294 89.143097 118.285294"/>
    <path id="path1" fill="#ffffff" stroke="none" d="M 244 244 L 12 244 L 12 12 L 244 12 Z M 244 8 L 12 8 L 8 8 L 8 12 L 8 244 L 8 248 L 12 248 L 244 248 L 248 248 L 248 244 L 248 12 L 248 8 Z"/>
    <path id="path2" fill="#ffffff" stroke="none" d="M 60 160 L 64 164 L 64 176 L 64 180 L 64.570999 180 L 68 180 L 68.570999 180 L 80 180 L 84 184 L 60 184 Z M 68 80 L 81.656998 80 L 174.343002 80 L 188 80 L 188 93.656998 L 188 138.962997 L 154.602997 113.395996 L 152.171997 111.533997 L 149.73999 113.395996 L 116.343002 138.962997 L 100.860001 127.109009 L 98.429001 125.248001 L 95.997002 127.109009 L 68 148.542999 L 68 93.656998 Z M 60 96 L 60 72 L 84 72 L 80 76 L 68 76 L 64 76 L 64 80 L 64 92 Z M 172 72 L 196 72 L 196 96 L 192 92 L 192 80 L 192 76 L 188 76 L 176 76 Z M 188 176 L 174.343002 176 L 81.656998 176 L 68.570999 176 L 68.570999 153.143005 L 98.429001 130.285995 L 116.343002 144 L 152.171997 116.570999 L 188 144 L 188 162.343002 Z M 196 160 L 196 184 L 172 184 L 176 180 L 188 180 L 192 180 L 192 176 L 192 164 Z M 84 188 L 93.656998 188 L 86.829002 181.171997 L 85.656998 180 L 170.343002 180 L 169.171997 181.171997 L 162.343002 188 L 172 188 L 196 188 L 200 188 L 200 184 L 200 160 L 200 150.343002 L 193.171997 157.171997 L 192 158.343002 L 192 144 L 192 142.024002 L 192 97.656998 L 193.171997 98.828995 L 200 105.656998 L 200 96 L 200 72 L 200 68 L 196 68 L 172 68 L 162.343002 68 L 169.171997 74.82901 L 170.343002 76 L 85.656998 76 L 86.829002 74.82901 L 93.656998 68 L 84 68 L 60 68 L 56 68 L 56 72 L 56 96 L 56 105.656998 L 62.828999 98.828995 L 64 97.656998 L 64 158.343002 L 62.828999 157.171997 L 56 150.343002 L 56 160 L 56 184 L 56 188 L 60 188 Z"/>
</svg>
