<?xml version="1.0" encoding="UTF-8"?>
<!-- Generated by Pixelmator Pro 3.7.1 -->
<svg width="256" height="256" viewBox="0 0 256 256" xmlns="http://www.w3.org/2000/svg">
    <path id="Path" fill="#ffffff" stroke="none" d="M 128.000107 148.857101 C 116.4991 148.857101 107.143097 139.501099 107.143097 128.000092 C 107.143097 116.4991 116.4991 107.143097 128.000107 107.143097 C 139.501099 107.143097 148.857101 116.4991 148.857101 128.000092 C 148.857101 139.501099 139.501099 148.857101 128.000107 148.857101 M 128.000107 103.143097 C 114.272102 103.143097 103.143097 114.272095 103.143097 128.000092 C 103.143097 141.728088 114.272102 152.857101 128.000107 152.857101 C 141.728104 152.857101 152.857101 141.728088 152.857101 128.000092 C 152.857101 114.272095 141.728104 103.143097 128.000107 103.143097"/>
    <path id="path1" fill="#ffffff" stroke="none" d="M 136.000107 224 C 136.000107 228.410995 132.411102 232 128.000107 232 C 123.589096 232 120.000099 228.410995 120.000099 224 L 120.000099 192 C 120.000099 187.589005 123.589096 184 128.000107 184 C 132.411102 184 136.000107 187.589005 136.000107 192 Z M 128.000107 180 C 121.352097 180 116.000099 185.352005 116.000099 192 L 116.000099 224 C 116.000099 230.647995 121.352097 236 128.000107 236 C 134.648102 236 140.000107 230.647995 140.000107 224 L 140.000107 192 C 140.000107 185.352005 134.648102 180 128.000107 180"/>
    <path id="path2" fill="#ffffff" stroke="none" d="M 244.000107 239.857101 C 244.000107 242.1521 242.1521 244.000107 239.857101 244.000107 L 160.000107 244.000107 C 160.000107 241.712097 158.288101 239.857101 156.000107 239.857101 C 153.712097 239.857101 152.000107 241.712097 152.000107 244.000107 L 104.000099 244.000107 C 104.000099 241.712097 102.288094 239.857101 100.000099 239.857101 C 97.712105 239.857101 96.000099 241.712097 96.000099 244.000107 L 16.143105 244.000107 C 13.848107 244.000107 12.0001 242.1521 12.0001 239.857101 L 12.0001 16.143097 C 12.0001 13.848099 13.848107 12.000107 16.143105 12.000107 L 239.857101 12.000107 C 242.1521 12.000107 244.000107 13.848099 244.000107 16.143097 L 244.000107 68.000107 L 239.857101 68.000107 L 239.857101 76.000107 L 244.000107 76.000107 Z M 239.857101 8.000107 L 16.143105 8.000107 C 11.6531 8.000107 8.0001 11.653107 8.0001 16.143097 L 8.0001 239.857101 C 8.0001 244.347107 11.6531 248.000107 16.143105 248.000107 L 96.000099 248.000107 L 100.000099 248.000107 L 104.000099 248.000107 L 152.000107 248.000107 L 156.000107 248.000107 L 160.000107 248.000107 L 239.857101 248.000107 C 244.347107 248.000107 248.000107 244.347107 248.000107 239.857101 L 248.000107 76.000107 L 248.000107 72.000107 L 248.000107 68.000107 L 248.000107 16.143097 C 248.000107 11.653107 244.347107 8.000107 239.857101 8.000107"/>
    <path id="path3" fill="#ffffff" stroke="none" d="M 170 144.5 C 168.897003 144.5 168 143.602997 168 142.5 C 168 141.397003 168.897003 140.5 170 140.5 C 171.102997 140.5 172 141.397003 172 142.5 C 172 143.602997 171.102997 144.5 170 144.5 M 170 136.5 C 166.686005 136.5 164 139.186005 164 142.5 C 164 145.813995 166.686005 148.5 170 148.5 C 173.313995 148.5 176 145.813995 176 142.5 C 176 139.186005 173.313995 136.5 170 136.5"/>
    <path id="path4" fill="#ffffff" stroke="none" d="M 128.000107 156 C 112.561096 156 100.000099 143.438995 100.000099 128 C 100.000099 112.561005 112.561096 100 128.000107 100 C 143.439102 100 156.000107 112.561005 156.000107 128 C 156.000107 143.438995 143.439102 156 128.000107 156 M 128.000107 96 C 110.327103 96 96.000099 110.326996 96.000099 128 C 96.000099 145.673004 110.327103 160 128.000107 160 C 145.673096 160 160.000107 145.673004 160.000107 128 C 160.000107 110.326996 145.673096 96 128.000107 96"/>
    <path id="path5" fill="#ffffff" stroke="none" d="M 160 72 C 160 74.209 158.794998 76 157.307999 76 L 22.692001 76 C 21.205994 76 20 74.209 20 72 L 20 24 C 20 21.791 21.205994 20 22.692001 20 L 157.307999 20 C 158.794998 20 160 21.791 160 24 Z M 164 24 C 164 19.514008 161.059998 16 157.307999 16 L 22.692001 16 C 18.940002 16 16 19.514008 16 24 L 16 72 C 16 76.485992 18.940002 80 22.692001 80 L 157.307999 80 C 161.059998 80 164 76.485992 164 72 Z"/>
</svg>
