<?xml version="1.0" encoding="UTF-8"?>
<!-- Generated by Pixelmator Pro 3.7.1 -->
<svg width="256" height="256" viewBox="0 0 256 256" xmlns="http://www.w3.org/2000/svg">
    <path id="Path" fill="#ffffff" stroke="none" d="M 244 228 L 188 228 L 188 176 L 208 176 L 212 176 L 212 172 L 212 120.139999 L 244 120.139999 Z M 184 228 L 100.046997 228 L 100.046997 160 L 184 160 L 184 172 L 184 176 Z M 12 228 L 12 56 L 95.860001 56 L 95.860001 116 L 95.860001 120.139999 L 96 120.139999 L 96 132 L 96 136 L 96 156 L 96 160 L 96 228 Z M 12 44 L 96 44 L 96 51.860001 L 95.860001 51.860001 L 95.860001 51.953003 L 12 51.953003 Z M 12 32 L 96 32 L 96 40 L 12 40 Z M 100 32 L 184 32 L 184 40 L 100 40 Z M 188 32 L 244 32 L 244 40 L 188 40 Z M 244 87.860001 L 197.464005 87.860001 C 201.177002 87.169006 204 83.910995 204 80 C 204 75.589005 200.410995 72 196 72 C 192.089005 72 188.830994 74.822998 188.139999 78.535995 L 188.139999 56 L 244 56 Z M 238.917999 116 C 239.602005 114.821991 240 113.458008 240 112 C 240 107.588989 236.410995 104 232 104 C 229.610001 104 227.466995 105.05899 226 106.725998 C 224.533005 105.05899 222.389999 104 220 104 C 217.610001 104 215.466995 105.05899 214 106.725998 C 212.533005 105.05899 210.389999 104 208 104 C 203.589005 104 200 107.588989 200 112 C 200 113.458008 200.397995 114.821991 201.082001 116 L 188.139999 116 L 188.139999 92.139999 L 244 92.139999 L 244 116 Z M 188 160 L 188 156 L 188 136 L 188 132 L 188 120.139999 L 188.139999 120.139999 L 208 120.139999 L 208 172 L 188 172 Z M 100.046997 136 L 104 136 L 104 148 L 104 152 L 108 152 L 140 152 L 144 152 L 144 148 L 144 136 L 184 136 L 184 156 L 100.046997 156 Z M 183.860001 78.535995 C 183.169006 74.822998 179.911011 72 176 72 C 173.610001 72 171.46701 73.059006 170 74.725998 C 168.53299 73.059006 166.389999 72 164 72 C 161.610001 72 159.46701 73.059006 158 74.725998 C 156.53299 73.059006 154.389999 72 152 72 C 149.610001 72 147.46701 73.059006 146 74.725998 C 144.53299 73.059006 142.389999 72 140 72 C 136.088989 72 132.830994 74.822998 132.139999 78.535995 L 132.139999 56 L 183.860001 56 Z M 177.463989 87.860001 C 180.701996 87.257004 183.257996 84.701996 183.860001 81.464005 L 183.860001 87.860001 Z M 176 116 L 176 112 L 176 108 L 176 96 L 132.139999 96 L 132.139999 92.139999 L 183.860001 92.139999 L 183.860001 116 Z M 127.860001 87.860001 L 127.860001 88 L 127.860001 92 L 127.860001 92.139999 L 127.860001 116 L 100.046997 116 L 100.046997 56 L 127.860001 56 Z M 172 116 L 132.139999 116 L 132.139999 112 L 172 112 Z M 172 108 L 136 108 L 136 100 L 172 100 Z M 138.536011 87.860001 L 132.139999 87.860001 L 132.139999 81.464005 C 132.742004 84.701996 135.298004 87.257004 138.536011 87.860001 M 140 84 C 137.791 84 136 82.209 136 80 C 136 77.791 137.791 76 140 76 C 142.209 76 144 77.791 144 80 C 144 82.209 142.209 84 140 84 M 150.536011 87.860001 L 141.463989 87.860001 C 143.257996 87.526001 144.839996 86.591995 146 85.274002 C 147.160004 86.591995 148.742004 87.526001 150.536011 87.860001 M 152 84 C 149.791 84 148 82.209 148 80 C 148 77.791 149.791 76 152 76 C 154.209 76 156 77.791 156 80 C 156 82.209 154.209 84 152 84 M 162.536011 87.860001 L 153.463989 87.860001 C 155.257996 87.526001 156.839996 86.591995 158 85.274002 C 159.160004 86.591995 160.742004 87.526001 162.536011 87.860001 M 164 84 C 161.791 84 160 82.209 160 80 C 160 77.791 161.791 76 164 76 C 166.209 76 168 77.791 168 80 C 168 82.209 166.209 84 164 84 M 172 80 C 172 77.791 173.791 76 176 76 C 178.209 76 180 77.791 180 80 C 180 82.209 178.209 84 176 84 C 173.791 84 172 82.209 172 80 M 174.536011 87.860001 L 165.463989 87.860001 C 167.257996 87.526001 168.839996 86.591995 170 85.274002 C 171.160004 86.591995 172.742004 87.526001 174.536011 87.860001 M 108 136 L 140 136 L 140 148 L 108 148 Z M 184 132 L 144 132 L 140 132 L 108 132 L 104 132 L 100.046997 132 L 100.046997 120.139999 L 127.860001 120.139999 L 128 120.139999 L 132 120.139999 L 132.139999 120.139999 L 183.860001 120.139999 L 184 120.139999 Z M 220 116 C 217.791 116 216 114.209 216 112 C 216 109.791 217.791 108 220 108 C 222.209 108 224 109.791 224 112 C 224 114.209 222.209 116 220 116 M 232 116 C 229.791 116 228 114.209 228 112 C 228 109.791 229.791 108 232 108 C 234.209 108 236 109.791 236 112 C 236 114.209 234.209 116 232 116 M 204 112 C 204 109.791 205.791 108 208 108 C 210.209 108 212 109.791 212 112 C 212 114.209 210.209 116 208 116 C 205.791 116 204 114.209 204 112 M 192 80 C 192 77.791 193.791 76 196 76 C 198.209 76 200 77.791 200 80 C 200 82.209 198.209 84 196 84 C 193.791 84 192 82.209 192 80 M 194.535995 87.860001 L 188.139999 87.860001 L 188.139999 81.464005 C 188.742004 84.701996 191.298004 87.257004 194.535995 87.860001 M 100 44 L 184 44 L 184 51.860001 L 183.860001 51.860001 L 132.139999 51.860001 L 132 51.860001 L 128 51.860001 L 127.860001 51.860001 L 100 51.860001 Z M 244 51.860001 L 188.139999 51.860001 L 188 51.860001 L 188 44 L 244 44 Z M 248 51.860001 L 248 44 L 248 40 L 248 32 L 248 28 L 244 28 L 188 28 L 184 28 L 100 28 L 96 28 L 12 28 L 8 28 L 8 32 L 8 40 L 8 44 L 8 51.953003 L 7.953003 51.953003 L 7.953003 56 L 7.953003 228 L 7.953003 232.046997 L 12 232.046997 L 96 232.046997 L 100.046997 232.046997 L 100.046997 232 L 184 232 L 188 232 L 244 232 L 248 232 L 248 228 L 248 120.139999 L 248.139999 120.139999 L 248.139999 116 L 248.139999 92.139999 L 248.139999 92 L 248.139999 88 L 248.139999 87.860001 L 248.139999 56 L 248.139999 51.860001 Z"/>
    <path id="path1" fill="#ffffff" stroke="none" d="M 156 64 L 136 64 L 136 68 L 156 68 Z"/>
    <path id="path2" fill="#ffffff" stroke="none" d="M 180 64 L 160 64 L 160 68 L 180 68 Z"/>
    <path id="path3" fill="#ffffff" stroke="none" d="M 200 72 L 204 72 L 204 66 C 204 64.895004 203.104996 64 202 64 C 200.895004 64 200 64.895004 200 66 Z"/>
    <path id="path4" fill="#ffffff" stroke="none" d="M 197.984695 68.448502 C 199.270706 67.7715 199.999695 66.360504 199.999695 64.907501 L 199.999695 64.000504 C 199.999695 64.000504 191.999695 64.000504 191.999695 72.000504 L 195.999695 72.000504 C 195.999695 72.000504 195.999695 69.4935 197.984695 68.448502"/>
    <path id="path5" fill="#ffffff" stroke="none" d="M 206.015305 68.448502 C 208.000305 69.4935 208.000305 72.000504 208.000305 72.000504 L 212.000305 72.000504 C 212.000305 64.000504 204.000305 64.000504 204.000305 64.000504 L 204.000305 64.907501 C 204.000305 66.360504 204.729294 67.7715 206.015305 68.448502"/>
    <path id="path6" fill="#ffffff" stroke="none" d="M 216 64 L 236 64 L 236 76 L 216 76 Z M 212 80 L 216 80 L 236 80 L 240 80 L 240 76 L 240 64 L 240 60 L 236 60 L 216 60 L 212 60 L 212 64 L 212 72 L 212 76 Z"/>
</svg>
