<?xml version="1.0" encoding="UTF-8"?>
<!-- Generated by Pixelmator Pro 3.7.1 -->
<svg width="256" height="256" viewBox="0 0 256 256" xmlns="http://www.w3.org/2000/svg">
    <path id="Path" fill="#ffffff" stroke="none" d="M 224 160 C 224 162.209 222.209 164 220 164 L 164 164 L 164 220 C 164 222.209 162.209 224 160 224 L 96 224 C 93.791 224 92 222.209 92 220 L 92 164 L 36 164 C 33.791 164 32 162.209 32 160 L 32 96 C 32 93.791 33.791 92 36 92 L 92 92 L 92 36 C 92 33.791 93.791 32 96 32 L 160 32 C 162.209 32 164 33.791 164 36 L 164 92 L 220 92 C 222.209 92 224 93.791 224 96 Z M 220 88 L 168 88 L 168 36 C 168 31.589005 164.410995 28 160 28 L 96 28 C 91.589005 28 88 31.589005 88 36 L 88 88 L 36 88 C 31.589005 88 28 91.588989 28 96 L 28 160 C 28 164.411011 31.589005 168 36 168 L 88 168 L 88 220 C 88 224.411011 91.589005 228 96 228 L 160 228 C 164.410995 228 168 224.411011 168 220 L 168 168 L 220 168 C 224.410995 168 228 164.411011 228 160 L 228 96 C 228 91.588989 224.410995 88 220 88"/>
    <path id="path1" fill="#ffffff" stroke="none" d="M 128 104 C 114.745003 104 104 114.744995 104 128 C 104 141.255005 114.745003 152 128 152 C 141.255005 152 152 141.255005 152 128 C 152 114.744995 141.255005 104 128 104 M 128 108 C 139.028 108 148 116.972 148 128 C 148 139.028 139.028 148 128 148 C 116.972 148 108 139.028 108 128 C 108 116.972 116.972 108 128 108"/>
    <path id="path2" fill="#ffffff" stroke="none" d="M 152 196 L 144 196 L 144 172 L 112 172 L 112 196 L 104 196 L 128 220 Z M 142.343002 200 L 128 214.343002 L 113.656998 200 L 116 200 L 116 196 L 116 176 L 140 176 L 140 196 L 140 200 Z"/>
    <path id="path3" fill="#ffffff" stroke="none" d="M 160 164 L 96 164 L 96 228 L 160 228 Z M 156 224 L 100 224 L 100 168 L 156 168 Z"/>
</svg>
