<?xml version="1.0" encoding="UTF-8"?>
<!-- Generated by Pixelmator Pro 3.7.1 -->
<svg width="256" height="256" viewBox="0 0 256 256" xmlns="http://www.w3.org/2000/svg">
    <path id="Path" fill="#ffffff" stroke="none" d="M 188 128 C 188 161.136993 161.136993 188 128 188 C 126.030998 188 124.087006 187.895996 122.168999 187.705994 C 121.002998 187.589996 120 188.522003 120 189.692993 C 120 190.712006 120.764 191.580994 121.777 191.682999 C 123.824997 191.886993 125.899002 192 128 192 C 163.290009 192 192 163.290009 192 128 C 192 92.709991 163.290009 64 128 64 C 125.899002 64 123.824997 64.113007 121.777 64.317993 C 120.764 64.419006 120 65.287994 120 66.306 C 120 67.477997 121.002998 68.410004 122.168999 68.294006 C 124.087006 68.104004 126.030998 68 128 68 C 161.136993 68 188 94.863007 188 128"/>
    <path id="path1" fill="#ffffff" stroke="none" d="M 13.6567 128 L 37.6567 104 L 37.6567 112 L 62.519699 112 C 60.889702 117.041992 59.999699 122.416 59.999699 128 C 59.999699 133.584 60.889702 138.958008 62.519699 144 L 37.6567 144 L 37.6567 152 Z M 111.999702 80 C 138.46669 80 159.999695 101.533005 159.999695 128 C 159.999695 154.466995 138.46669 176 111.999702 176 C 85.5327 176 63.999699 154.466995 63.999699 128 C 63.999699 101.533005 85.5327 80 111.999702 80 M 41.6567 148 L 63.991699 148 C 71.828697 166.790009 90.368698 180 111.999702 180 C 140.718689 180 163.999695 156.718994 163.999695 128 C 163.999695 99.281006 140.718689 76 111.999702 76 C 90.368698 76 71.828697 89.209991 63.991699 108 L 41.6567 108 L 41.6567 104 L 41.6567 94.343002 L 34.828701 101.171005 L 10.8287 125.171005 L 7.9997 128 L 10.8287 130.828003 L 34.828701 154.828003 L 41.6567 161.656998 L 41.6567 152 Z"/>
    <path id="path2" fill="#ffffff" stroke="none" d="M 52.580101 101.320297 C 52.1171 102.625305 53.083099 104.000305 54.468102 104.000305 L 54.4711 104.000305 C 55.321098 104.000305 56.0681 103.458298 56.351101 102.656296 C 66.997101 72.560303 96.044098 51.160294 129.983093 52.025299 C 170.226105 53.050293 202.997101 85.859299 203.976089 126.103302 C 205.020096 168.943298 170.603104 204.000305 128.000092 204.000305 C 94.9161 204.000305 66.789101 182.851288 56.351101 153.3423 C 56.0681 152.542297 55.322102 152.000305 54.472099 152.000305 L 54.467098 152.000305 C 53.077099 152.000305 52.119099 153.38031 52.584099 154.690308 C 63.778099 186.226288 94.2211 208.728302 129.714096 207.9823 C 171.320099 207.106308 205.669098 173.911301 207.884094 132.354309 C 210.339096 86.274307 173.556091 48.000305 128.000092 48.000305 C 93.239098 48.000305 63.591099 70.287292 52.580101 101.320297"/>
</svg>
