<?xml version="1.0" encoding="UTF-8"?>
<!-- Generated by Pixelmator Pro 3.7.1 -->
<svg width="256" height="256" viewBox="0 0 256 256" xmlns="http://www.w3.org/2000/svg">
    <path id="Path" fill="#ffffff" stroke="none" d="M 196 88 L 192 84 L 188 84 L 192 88 Z"/>
    <path id="path1" fill="#ffffff" stroke="none" d="M 204 88 L 200 84 L 196 84 L 200 88 Z"/>
    <path id="path2" fill="#ffffff" stroke="none" d="M 212 88 L 208 84 L 204 84 L 208 88 Z"/>
    <path id="path3" fill="#ffffff" stroke="none" d="M 220 88 L 216 84 L 212 84 L 216 88 Z"/>
    <path id="path4" fill="#ffffff" stroke="none" d="M 240 108 L 236 108 L 232 112 L 228.138 111.707993 L 231.921997 92.785004 L 232.078995 92 L 244 92 Z M 201.571991 120.080002 C 200.565002 120.432999 199.733002 121.192993 199.259003 122.190994 L 196.697998 127.582001 C 196.244003 128.540009 196.076996 129.619995 196.221008 130.679993 L 203.347992 183.194 C 203.692001 185.730011 201.821991 188 199.388 188 L 188.044998 188 L 188 188 L 175.005997 113.283997 L 214.365005 115.470993 Z M 171.557007 188 C 169.528 188 167.820999 186.402008 167.584 184.281006 L 160 116.421005 L 149.761002 113.591995 L 152.838989 112.052994 L 170.906006 113.057007 L 183.938995 188 L 172 188 Z M 155.919006 141.307007 C 153.809998 140.604004 152.671997 138.31601 153.399994 136.214996 C 154.082001 134.244995 154.977997 131.507004 156 128 C 158.333008 120 144 120 144 120 L 141.138 115.707001 L 143.240997 115.940002 L 156.324997 119.556 L 158.865997 142.289001 Z M 64 88 L 140 88 L 152 80 L 210.343002 80 L 216 80 L 228 92 L 224.119003 111.404999 L 223.347 111.347 L 224 112 L 152 108 L 144 112 L 72 104 Z M 20 96 L 16 96 L 14 92 L 61.528 92 L 65.235001 99.414001 Z M 16 80 L 20 80 L 48 80 L 52 80 L 144.789001 80 L 138.789001 84 L 64 84 L 57.528 84 L 59.528 88 L 12 88 Z M 45.212006 68.179001 C 45.473999 68.057007 45.740997 68 46.001007 68 C 47.056 68 48 68.931 48 70.190002 L 48 76 L 28.531006 76 Z M 224 72 L 228 72 L 230 76 L 220 76 Z M 240 84 L 242 88 L 229.656998 88 L 221.656998 80 L 232 80 L 236 84 Z M 247.578003 90.210999 L 243.578003 82.210999 L 242.473007 80 L 240 80 L 237.656998 80 L 235.287003 77.630005 L 231.578003 70.210999 L 230.472992 68 L 228 68 L 224 68 L 222.343002 68 L 221.171997 69.171005 L 214.343002 76 L 152 76 L 150.789001 76 L 52 76 L 52 70.190002 C 52 66.777008 49.309006 64 46.001007 64 C 45.139999 64 44.302994 64.186996 43.514008 64.557999 L 19.108994 76 L 13.528 76 L 8 88 L 13.528 100 L 19.848999 100 L 67.319 103.583008 L 69.395996 107.735001 L 135.945007 115.130005 L 140.671997 122.218994 L 141.859009 124 L 144 124 C 147.125 124.011993 151.299011 124.921997 152.195007 126.121994 C 152.229004 126.166 152.32901 126.300995 152.160004 126.880005 C 151.309998 129.796997 150.455002 132.497009 149.619995 134.904999 C 148.916992 136.936005 149.053009 139.115997 150.002991 141.044006 C 150.955994 142.979004 152.606995 144.419006 154.653992 145.100998 L 159.355011 146.667999 L 163.609009 184.725998 C 164.071991 188.873001 167.488998 192 171.557007 192 L 184 192 L 184.636002 192 L 188 192 L 188.645004 192 L 199.388 192 C 201.658997 192 203.830002 191.005997 205.345001 189.270996 C 206.919998 187.468002 207.636993 185.057007 207.311996 182.656006 L 200.184998 130.143005 C 200.145996 129.854004 200.190002 129.554001 200.311996 129.298996 L 202.872009 123.908005 C 202.890991 123.869003 202.910004 123.850006 202.916 123.845001 L 224.589996 116.039001 L 227.242004 116.186996 L 227.399002 115.399002 L 227.686005 115.686005 L 231.699005 115.988998 L 233.529999 116.126999 L 234.828003 114.828995 L 237.656998 112 L 240 112 L 243.123001 112 L 243.880997 108.970001 L 247.880997 92.970001 L 248.238998 91.535004 Z"/>
    <path id="path5" fill="#ffffff" stroke="none" d="M 126.397499 100.807602 L 126.4645 100.605606 L 126.205498 100.5186 Z"/>
</svg>
