<?xml version="1.0" encoding="UTF-8"?>
<!-- Generated by Pixelmator Pro 3.7.1 -->
<svg width="256" height="256" viewBox="0 0 256 256" xmlns="http://www.w3.org/2000/svg">
    <path id="Path" fill="#ffffff" stroke="none" d="M 128 188 C 94.862999 188 68 161.136993 68 128 C 68 126.031006 68.104004 124.087006 68.293999 122.169006 C 68.410004 121.002991 67.477997 120 66.306 120 C 65.287994 120 64.418999 120.764008 64.318001 121.777008 C 64.112999 123.824997 64 125.899002 64 128 C 64 163.290009 92.709999 192 128 192 C 163.290009 192 192 163.290009 192 128 C 192 125.899002 191.886993 123.824997 191.682999 121.777008 C 191.580994 120.764008 190.712006 120 189.692993 120 C 188.522003 120 187.589996 121.002991 187.705994 122.169006 C 187.895996 124.087006 188 126.031006 188 128 C 188 161.136993 161.136993 188 128 188"/>
    <path id="path1" fill="#ffffff" stroke="none" d="M 128 13.656693 L 152 37.656693 L 144 37.656693 L 144 62.519699 C 138.958008 60.889694 133.584 59.999695 128 59.999695 C 122.416 59.999695 117.042 60.889694 112 62.519699 L 112 37.656693 L 104 37.656693 Z M 176 111.999695 C 176 138.466705 154.466995 159.999695 128 159.999695 C 101.533005 159.999695 80 138.466705 80 111.999695 C 80 85.5327 101.533005 63.999695 128 63.999695 C 154.466995 63.999695 176 85.5327 176 111.999695 M 108 41.656693 L 108 63.991699 C 89.209999 71.828705 76 90.368698 76 111.999695 C 76 140.718689 99.280998 163.999695 128 163.999695 C 156.718994 163.999695 180 140.718689 180 111.999695 C 180 90.368698 166.790009 71.828705 148 63.991699 L 148 41.656693 L 152 41.656693 L 161.656998 41.656693 L 154.828003 34.828705 L 130.828003 10.828705 L 128 7.999695 L 125.170998 10.828705 L 101.170998 34.828705 L 94.343002 41.656693 L 104 41.656693 Z"/>
    <path id="path2" fill="#ffffff" stroke="none" d="M 154.679703 52.580093 C 153.373703 52.117096 151.999695 53.083099 151.999695 54.468094 L 151.999695 54.4711 C 151.999695 55.321106 152.541702 56.0681 153.343704 56.351105 C 183.439697 66.997101 204.839706 96.044098 203.974701 129.983093 C 202.949707 170.226105 170.140701 202.997101 129.896698 203.976105 C 87.055702 205.020111 51.999699 170.603104 51.999699 128.000092 C 51.999699 94.916092 73.148705 66.789093 102.6577 56.351105 C 103.458702 56.0681 103.999702 55.322098 103.999702 54.472107 L 103.999702 54.467102 C 103.999702 53.077103 102.619698 52.119095 101.3097 52.584106 C 69.772705 63.778107 47.271702 94.2211 48.017696 129.714111 C 48.892696 171.320099 82.088699 205.669098 123.644699 207.884094 C 169.725693 210.339111 207.999695 173.556091 207.999695 128.000092 C 207.999695 93.239105 185.712708 63.591095 154.679703 52.580093"/>
</svg>
