<?xml version="1.0" encoding="UTF-8"?>
<!-- Generated by Pixelmator Pro 3.7.1 -->
<svg width="256" height="256" viewBox="0 0 256 256" xmlns="http://www.w3.org/2000/svg">
    <path id="Path" fill="#ffffff" stroke="none" d="M 40 28 C 37.791 28 36 29.791 36 32 L 36 104 C 36 106.209 37.791 108 40 108 L 180 108 C 182.209 108 184 106.209 184 104 L 184 32 C 184 29.791 182.209 28 180 28 Z M 40 32 L 180 32 L 180 104 L 40 104 Z"/>
    <path id="path1" fill="#ffffff" stroke="none" d="M 32 152 L 224 152 C 224 191.701004 191.701004 224 152 224 L 104 224 C 64.298996 224 32 191.701004 32 152 M 28 152 L 28 152 C 28 193.973999 62.026001 228 104 228 L 152 228 C 193.973999 228 228 193.973999 228 152 C 228 149.791 226.209 148 224 148 L 32 148 C 29.791 148 28 149.791 28 152"/>
    <path id="path2" fill="#ffffff" stroke="none" d="M 219.883804 156 L 36.115795 156 C 38.194805 191.639999 67.847801 220 103.999794 220 L 151.999802 220 C 188.152802 220 217.805801 191.639999 219.883804 156 M 215.503799 160 C 211.542801 191.727997 184.428802 216 151.999802 216 L 103.999794 216 C 71.5718 216 44.456799 191.727997 40.4958 160 L 215.503799 160"/>
</svg>
