<?xml version="1.0" encoding="UTF-8"?>
<!-- Generated by Pixelmator Pro 3.7.1 -->
<svg width="256" height="256" viewBox="0 0 256 256" xmlns="http://www.w3.org/2000/svg">
    <path id="Path" fill="#ffffff" stroke="none" d="M 188 188 L 68 188 L 68 104 L 72 104 L 184 104 L 188 104 Z M 76 88 L 80 88 L 176 88 L 180 88 L 180 100 L 76 100 Z M 84 72 L 172 72 L 172 84 L 84 84 Z M 188 100 L 184 100 L 184 88 C 184 85.791 182.209 84 180 84 L 176 84 L 176 72 C 176 69.791 174.209 68 172 68 L 84 68 C 81.791 68 80 69.791 80 72 L 80 84 L 76 84 C 73.791 84 72 85.791 72 88 L 72 100 L 68 100 C 65.791 100 64 101.791 64 104 L 64 188 C 64 190.209 65.791 192 68 192 L 188 192 C 190.209 192 192 190.209 192 188 L 192 104 C 192 101.791 190.209 100 188 100"/>
    <path id="path1" fill="#ffffff" stroke="none" d="M 158.273407 130.182602 L 118.6064 170.252594 C 117.491402 171.379608 116.0084 171.999603 114.431404 171.999603 C 112.854401 171.999603 111.371399 171.379608 110.255402 170.252594 L 108.168404 168.1436 L 97.729401 157.599609 C 96.614403 156.472595 96.000404 154.974609 96.000404 153.3806 C 96.000404 151.787598 96.614403 150.289597 97.729401 149.162598 C 98.844398 148.036591 100.3274 147.415588 101.904404 147.415588 C 103.482399 147.415588 104.965401 148.036591 106.080399 149.162598 L 114.431404 157.599609 L 149.921402 121.746597 C 151.038406 120.620605 152.520401 119.999603 154.097397 119.999603 C 155.674393 119.999603 157.158401 120.620605 158.273407 121.746597 C 160.575394 124.072601 160.575394 127.856598 158.273407 130.182602 M 154.097397 115.999603 C 151.444397 115.999603 148.952393 117.041595 147.080399 118.932602 L 114.431404 151.912598 L 108.922401 146.349609 C 107.0504 144.457596 104.558403 143.415588 101.904404 143.415588 C 99.251404 143.415588 96.759399 144.457596 94.886398 146.349609 C 93.025398 148.229599 92.000397 150.7276 92.000397 153.3806 C 92.000397 156.035599 93.025398 158.5336 94.886398 160.412598 L 105.325401 170.957611 L 107.413399 173.067596 C 109.2854 174.957611 111.777405 175.999603 114.431404 175.999603 C 117.084404 175.999603 119.5774 174.957611 121.449402 173.067596 L 161.116394 132.996597 C 164.954407 129.119598 164.954407 122.810593 161.116394 118.932602 C 159.2444 117.041595 156.751404 115.999603 154.097397 115.999603"/>
</svg>
