<?xml version="1.0" encoding="UTF-8"?>
<!-- Generated by Pixelmator Pro 3.7.1 -->
<svg width="256" height="256" viewBox="0 0 256 256" xmlns="http://www.w3.org/2000/svg">
    <path id="Path" fill="#ffffff" stroke="none" d="M 216 28 L 76 28 C 73.791 28 72 29.791 72 32 L 72 104 C 72 106.209 73.791 108 76 108 L 216 108 C 218.209 108 220 106.209 220 104 L 220 32 C 220 29.791 218.209 28 216 28 M 216 104 L 76 104 L 76 32 L 216 32 Z M 216 32"/>
    <path id="path1" fill="#ffffff" stroke="none" d="M 152 224 L 104 224 C 64.299004 224 32 191.701004 32 152 L 224 152 C 224 191.701004 191.701004 224 152 224 M 224 148 L 32 148 C 29.791 148 28 149.791 28 152 C 28 193.973999 62.026001 228 104 228 L 152 228 C 193.973999 228 228 193.973999 228 152 C 228 149.791 226.209 148 224 148"/>
    <path id="path2" fill="#ffffff" stroke="none" d="M 208 36 L 84 36 C 81.791 36 80 37.791 80 40 L 80 96 C 80 98.209 81.791 100 84 100 L 208 100 C 210.209 100 212 98.209 212 96 L 212 40 C 212 37.791 210.209 36 208 36 M 208 96 L 84 96 L 84 40 L 208 40 Z M 208 40"/>
</svg>
