<?xml version="1.0" encoding="UTF-8"?>
<!-- Generated by Pixelmator Pro 3.7.1 -->
<svg width="256" height="256" viewBox="0 0 256 256" xmlns="http://www.w3.org/2000/svg">
    <path id="Path" fill="#ffffff" stroke="none" d="M 92 136 C 92 138.209 90.209 140 88 140 L 36 140 C 33.791 140 32 138.209 32 136 L 32 120 C 32 117.791 33.791 116 36 116 L 88 116 C 90.209 116 92 117.791 92 120 Z M 88 112 L 36 112 C 31.589001 112 28 115.589005 28 120 L 28 136 C 28 140.411011 31.589001 144 36 144 L 88 144 C 92.411003 144 96 140.411011 96 136 L 96 120 C 96 115.589005 92.411003 112 88 112"/>
    <path id="path1" fill="#ffffff" stroke="none" d="M 220 112 L 168 112 C 163.589005 112 160 115.589005 160 120 L 160 136 C 160 140.410995 163.589005 144 168 144 L 220 144 C 224.410995 144 228 140.410995 228 136 L 228 120 C 228 115.589005 224.410995 112 220 112 M 220 116 C 222.205994 116 224 117.794006 224 120 L 224 136 C 224 138.205994 222.205994 140 220 140 L 168 140 C 165.794006 140 164 138.205994 164 136 L 164 120 C 164 117.794006 165.794006 116 168 116 L 220 116"/>
    <path id="path2" fill="#ffffff" stroke="none" d="M 220 120 L 168 120 L 168 136 L 220 136 Z M 216 132 L 172 132 L 172 124 L 216 124 Z"/>
</svg>
