<?xml version="1.0" encoding="UTF-8"?>
<!-- Generated by Pixelmator Pro 3.7.1 -->
<svg width="256" height="256" viewBox="0 0 256 256" xmlns="http://www.w3.org/2000/svg">
    <path id="Path" fill="#ffffff" stroke="none" d="M 188 164 C 168.149002 164 152 147.850998 152 128 C 152 108.149002 168.149002 92 188 92 C 207.850998 92 224 108.149002 224 128 C 224 147.850998 207.850998 164 188 164 M 188 88 C 165.908005 88 148 105.908997 148 128 C 148 150.09201 165.908005 168 188 168 C 210.091995 168 228 150.09201 228 128 C 228 105.908997 210.091995 88 188 88"/>
    <path id="path1" fill="#ffffff" stroke="none" d="M 128 224 C 108.149002 224 92 207.850998 92 188 C 92 168.149002 108.149002 152 128 152 C 147.850998 152 164 168.149002 164 188 C 164 207.850998 147.850998 224 128 224 M 128 148 C 105.908997 148 88 165.908005 88 188 C 88 210.091995 105.908997 228 128 228 C 150.091995 228 168 210.091995 168 188 C 168 165.908005 150.091995 148 128 148"/>
    <path id="path2" fill="#ffffff" stroke="none" d="M 68 164 C 48.149002 164 32 147.850998 32 128 C 32 108.149002 48.149002 92 68 92 C 87.850998 92 104 108.149002 104 128 C 104 147.850998 87.850998 164 68 164 M 68 88 C 45.909 88 28 105.908997 28 128 C 28 150.09201 45.909 168 68 168 C 90.091003 168 108 150.09201 108 128 C 108 105.908997 90.091003 88 68 88"/>
    <path id="path3" fill="#ffffff" stroke="none" d="M 128 104 C 108.149002 104 92 87.850998 92 68 C 92 48.149002 108.149002 32 128 32 C 147.850998 32 164 48.149002 164 68 C 164 87.850998 147.850998 104 128 104 M 128 28 C 105.908997 28 88 45.908997 88 68 C 88 90.091003 105.908997 108 128 108 C 150.091995 108 168 90.091003 168 68 C 168 45.908997 150.091995 28 128 28"/>
    <path id="path4" fill="#ffffff" stroke="none" d="M 128 36 C 110.326996 36 96 50.326996 96 68 C 96 85.673004 110.326996 100 128 100 C 145.673004 100 160 85.673004 160 68 C 160 50.326996 145.673004 36 128 36 M 128 40 C 143.438995 40 156 52.561005 156 68 C 156 83.438995 143.438995 96 128 96 C 112.560997 96 100 83.438995 100 68 C 100 52.561005 112.560997 40 128 40"/>
</svg>
