<?xml version="1.0" encoding="UTF-8"?>
<!-- Generated by Pixelmator Pro 3.7.1 -->
<svg width="256" height="256" viewBox="0 0 256 256" xmlns="http://www.w3.org/2000/svg">
    <path id="Path" fill="#ffffff" stroke="none" d="M 128 68 C 161.136993 68 188 94.863007 188 128 C 188 129.968994 187.895996 131.912003 187.705994 133.830994 C 187.589996 134.996002 188.522003 136 189.692993 136 C 190.712006 136 191.580994 135.235992 191.682999 134.223999 C 191.886993 132.175003 192 130.100998 192 128 C 192 92.709991 163.290009 64 128 64 C 92.709999 64 64 92.709991 64 128 C 64 130.100998 64.113998 132.175003 64.318001 134.223999 C 64.418999 135.235992 65.287994 136 66.306 136 C 67.477997 136 68.410004 134.996002 68.293999 133.830994 C 68.104004 131.912003 68 129.968994 68 128 C 68 94.863007 94.862999 68 128 68"/>
    <path id="path1" fill="#ffffff" stroke="none" d="M 128 242.342804 L 104 218.342804 L 112 218.342804 L 112 193.480804 C 117.042 195.109802 122.416 195.999802 128 195.999802 C 133.584 195.999802 138.958008 195.109802 144 193.480804 L 144 218.342804 L 152 218.342804 Z M 80 143.999786 C 80 117.532806 101.533005 95.999802 128 95.999802 C 154.468002 95.999802 176 117.532806 176 143.999786 C 176 170.466797 154.468002 191.999802 128 191.999802 C 101.533005 191.999802 80 170.466797 80 143.999786 M 148 214.342804 L 148 192.008804 C 166.790009 184.170807 180 165.630798 180 143.999786 C 180 115.280807 156.718994 91.999802 128 91.999802 C 99.280998 91.999802 76 115.280807 76 143.999786 C 76 165.630798 89.209999 184.170807 108 192.008804 L 108 214.342804 L 104 214.342804 L 94.343002 214.342804 L 101.170998 221.171799 L 125.170998 245.171799 L 128 247.999802 L 130.828003 245.171799 L 154.828003 221.171799 L 161.656998 214.342804 L 152 214.342804 Z"/>
    <path id="path2" fill="#ffffff" stroke="none" d="M 101.320297 203.419891 C 102.625298 203.882904 104.000298 202.916901 104.000298 201.531891 L 104.000298 201.5289 C 104.000298 200.678894 103.458298 199.9319 102.656303 199.648895 C 72.560303 189.001892 51.160301 159.955902 52.025303 126.016907 C 53.050301 85.773895 85.859299 53.002899 126.103302 52.022903 C 168.944305 50.979904 204.000305 85.395905 204.000305 127.999908 C 204.000305 161.083893 182.851303 189.210907 153.3423 199.648895 C 152.542297 199.9319 152.000305 200.678894 152.000305 201.527893 L 152.000305 201.532898 C 152.000305 202.922897 153.380295 203.880905 154.690292 203.415894 C 186.226303 192.221893 208.728302 161.7789 207.9823 126.285904 C 207.106308 84.678909 173.911301 50.330902 132.354294 48.115906 C 86.2743 45.660904 48.000301 82.444901 48.000301 127.999908 C 48.000301 162.760895 70.2873 192.408905 101.320297 203.419891"/>
</svg>
