<?xml version="1.0" encoding="UTF-8"?>
<!-- Generated by Pixelmator Pro 3.7.1 -->
<svg width="256" height="256" viewBox="0 0 256 256" xmlns="http://www.w3.org/2000/svg">
    <path id="Path" fill="#ffffff" stroke="none" d="M 148 201.300797 L 148 188.798798 C 173.548996 180.398804 192 156.359802 192 127.999802 C 192 92.653793 163.345993 63.999802 128 63.999802 C 92.653999 63.999802 64 92.653793 64 127.999802 C 64 156.359802 82.452003 180.398804 108 188.798798 L 108 201.300797 C 75.769997 192.496796 52 162.983795 52 127.999802 C 52 86.092804 86.093002 51.999802 128 51.999802 C 169.906006 51.999802 204 86.092804 204 127.999802 C 204 162.983795 180.229996 192.496796 148 201.300797 M 180 127.999802 C 180 99.280807 156.718994 75.999802 128 75.999802 C 99.280998 75.999802 76 99.280807 76 127.999802 C 76 149.628799 89.210999 168.162796 108 175.999802 L 108 184.543793 C 84.723999 176.287796 68 154.070801 68 127.999802 C 68 94.915802 94.916 67.999802 128 67.999802 C 161.084 67.999802 188 94.915802 188 127.999802 C 188 154.070801 171.274994 176.287796 148 184.543793 L 148 175.999802 C 166.789001 168.162796 180 149.628799 180 127.999802 M 154.828003 149.171799 L 130.828003 125.171799 L 128 122.342804 L 125.170998 125.171799 L 101.171005 149.171799 L 94.343002 155.999802 L 104 155.999802 L 108 155.999802 L 108 171.6138 C 91.494003 164.014801 80 147.330795 80 127.999802 C 80 101.532806 101.533005 79.999802 128 79.999802 C 154.466995 79.999802 176 101.532806 176 127.999802 C 176 147.330795 164.505997 164.014801 148 171.6138 L 148 155.999802 L 152 155.999802 L 161.656998 155.999802 Z M 144 223.999802 L 112 223.999802 L 112 206.396805 L 112 202.290802 L 112 189.983795 L 112 185.816803 L 112 177.480804 L 112 173.247803 L 112 151.999802 L 104 151.999802 L 128 127.999802 L 152 151.999802 L 144 151.999802 L 144 173.247803 L 144 177.480804 L 144 185.816803 L 144 189.983795 L 144 202.290802 L 144 206.396805 Z M 208 127.999802 C 208 83.817795 172.182999 47.999802 128 47.999802 C 83.817001 47.999802 48 83.817795 48 127.999802 C 48 165.275787 73.498001 196.581802 108 205.464798 L 108 223.999802 L 108 227.999802 L 112 227.999802 L 144 227.999802 L 148 227.999802 L 148 223.999802 L 148 205.464798 C 182.501999 196.582794 208 165.275787 208 127.999802"/>
</svg>
