<?xml version="1.0" encoding="UTF-8"?>
<!-- Generated by Pixelmator Pro 3.7.1 -->
<svg width="256" height="256" viewBox="0 0 256 256" xmlns="http://www.w3.org/2000/svg">
    <path id="Path" fill="#ffffff" stroke="none" d="M 68 128 C 68 94.863007 94.862999 68 128 68 C 129.968994 68 131.912003 68.104004 133.830994 68.294006 C 134.996002 68.410004 136 67.477997 136 66.306 C 136 65.287994 135.235992 64.419006 134.223999 64.317993 C 132.175003 64.113007 130.100998 64 128 64 C 92.709999 64 64 92.709991 64 128 C 64 163.290009 92.709999 192 128 192 C 130.100998 192 132.175003 191.886993 134.223999 191.682999 C 135.235992 191.580994 136 190.712006 136 189.692993 C 136 188.522003 134.996002 187.589996 133.830994 187.705994 C 131.912003 187.895996 129.968994 188 128 188 C 94.862999 188 68 161.136993 68 128"/>
    <path id="path1" fill="#ffffff" stroke="none" d="M 242.342804 128 L 218.342804 152 L 218.342804 144 L 193.480804 144 C 195.109802 138.958008 195.999802 133.584 195.999802 128 C 195.999802 122.416 195.109802 117.041992 193.480804 112 L 218.342804 112 L 218.342804 104 Z M 143.999802 176 C 117.532799 176 95.999794 154.466995 95.999794 128 C 95.999794 101.533005 117.532799 80 143.999802 80 C 170.466797 80 191.999802 101.533005 191.999802 128 C 191.999802 154.466995 170.466797 176 143.999802 176 M 214.342804 108 L 192.008804 108 C 184.170792 89.209991 165.630798 76 143.999802 76 C 115.2808 76 91.999794 99.281006 91.999794 128 C 91.999794 156.718994 115.2808 180 143.999802 180 C 165.630798 180 184.170792 166.790009 192.008804 148 L 214.342804 148 L 214.342804 152 L 214.342804 161.656998 L 221.171799 154.828003 L 245.171799 130.828003 L 247.999802 128 L 245.171799 125.171005 L 221.171799 101.171005 L 214.342804 94.343002 L 214.342804 104 Z"/>
    <path id="path2" fill="#ffffff" stroke="none" d="M 203.419907 154.679703 C 203.882904 153.373703 202.916901 151.999695 201.531906 151.999695 L 201.5289 151.999695 C 200.678894 151.999695 199.9319 152.541702 199.648895 153.343689 C 189.001907 183.439697 159.955902 204.839691 126.016899 203.974701 C 85.773895 202.949707 53.002892 170.140701 52.022896 129.896698 C 50.979897 87.055695 85.395897 51.999695 127.999901 51.999695 C 161.083908 51.999695 189.210907 73.148697 199.648895 102.6577 C 199.9319 103.458694 200.678894 103.999695 201.527893 103.999695 L 201.532898 103.999695 C 202.922897 103.999695 203.880905 102.619705 203.415894 101.309708 C 192.221893 69.772705 161.7789 47.271698 126.285896 48.0177 C 84.678902 48.8927 50.330894 82.088699 48.115898 123.644699 C 45.660896 169.725708 82.444901 207.999695 127.999901 207.999695 C 162.760895 207.999695 192.408905 185.712708 203.419907 154.679703"/>
</svg>
