<?xml version="1.0" encoding="UTF-8"?>
<!-- Generated by Pixelmator Pro 3.7.1 -->
<svg width="256" height="256" viewBox="0 0 256 256" xmlns="http://www.w3.org/2000/svg">
    <path id="Path" fill="#ffffff" stroke="none" d="M 128 228 C 72.770996 228 28 183.229004 28 128 C 28 72.770996 72.770996 28 128 28 C 183.229004 28 228 72.770996 228 128 C 228 183.229004 183.229004 228 128 228 M 128 24 C 70.653999 24 24 70.654007 24 128 C 24 185.346008 70.653999 232 128 232 C 185.346008 232 232 185.346008 232 128 C 232 70.654007 185.346008 24 128 24"/>
    <path id="path1" fill="#ffffff" stroke="none" d="M 128 216 C 79.477005 216 40 176.522995 40 128 C 40 79.477005 79.477005 40 128 40 C 176.522995 40 216 79.477005 216 128 C 216 176.522995 176.522995 216 128 216 M 128 36 C 77.270996 36 36 77.270996 36 128 C 36 178.729004 77.270996 220 128 220 C 178.729004 220 220 178.729004 220 128 C 220 77.270996 178.729004 36 128 36"/>
    <path id="path2" fill="#ffffff" stroke="none" d="M 92 56 L 96 56 L 96 88 L 92 88 Z M 100 56 L 124 56 C 132.837006 56 140 63.164001 140 72 C 140 80.835999 132.837006 88 124 88 L 100 88 Z M 96 92 L 100 92 L 124 92 C 135.028 92 144 83.028 144 72 C 144 60.972 135.028 52 124 52 L 100 52 L 96 52 L 92 52 L 88 52 L 88 56 L 88 88 L 88 92 L 92 92 Z"/>
    <path id="path3" fill="#ffffff" stroke="none" d="M 144 178 C 144 185.731995 138.029999 192 130.666992 192 L 112 192 L 112 164 L 130.666992 164 C 138.029999 164 144 170.268005 144 178 M 108 192 L 104 192 L 104 164 L 108 164 Z M 130.666992 160 L 112 160 L 108 160 L 104 160 L 100 160 L 100 164 L 100 192 L 100 196 L 104 196 L 108 196 L 112 196 L 130.666992 196 C 140.225006 196 148 187.925003 148 178 C 148 168.074997 140.225006 160 130.666992 160"/>
    <path id="path4" fill="#ffffff" stroke="none" d="M 178.400406 152 L 140.000397 152 L 140.000397 100 L 178.400406 100 C 192.538406 100 204.000397 111.640991 204.000397 126 C 204.000397 140.359009 192.538406 152 178.400406 152 M 136.000397 152 L 128.000397 152 L 128.000397 100 L 136.000397 100 Z M 178.400406 96 L 140.000397 96 L 136.000397 96 L 128.000397 96 L 124.000397 96 L 124.000397 100 L 124.000397 152 L 124.000397 156 L 128.000397 156 L 136.000397 156 L 140.000397 156 L 178.400406 156 C 194.721405 156 208.000397 142.541992 208.000397 126 C 208.000397 109.458008 194.721405 96 178.400406 96"/>
    <path id="path5" fill="#ffffff" stroke="none" d="M 120 104 L 52 104 L 52 108 L 120 108 Z"/>
    <path id="path6" fill="#ffffff" stroke="none" d="M 120 112 L 48 112 L 48 116 L 120 116 Z"/>
    <path id="path7" fill="#ffffff" stroke="none" d="M 120 120 L 44 120 L 44 124 L 120 124 Z"/>
    <path id="path8" fill="#ffffff" stroke="none" d="M 120 128 L 44 128 L 44 132 L 120 132 Z"/>
    <path id="path9" fill="#ffffff" stroke="none" d="M 120 136 L 48 136 L 48 140 L 120 140 Z"/>
    <path id="path10" fill="#ffffff" stroke="none" d="M 120 144 L 52 144 L 52 148 L 120 148 Z"/>
    <path id="path11" fill="#ffffff" stroke="none" d="M 56 168 L 96 168 L 96 164 L 56 164 Z"/>
    <path id="path12" fill="#ffffff" stroke="none" d="M 60 176 L 96 176 L 96 172 L 60 172 Z"/>
    <path id="path13" fill="#ffffff" stroke="none" d="M 68 184 L 96 184 L 96 180 L 68 180 Z"/>
    <path id="path14" fill="#ffffff" stroke="none" d="M 84 84 L 56 84 L 56 88 L 84 88 Z"/>
    <path id="path15" fill="#ffffff" stroke="none" d="M 84 76 L 60 76 L 60 80 L 84 80 Z"/>
    <path id="path16" fill="#ffffff" stroke="none" d="M 84 68 L 68 68 L 68 72 L 84 72 Z"/>
    <path id="path17" fill="#ffffff" stroke="none" d="M 84 60 L 76 60 L 76 64 L 84 64 Z"/>
</svg>
