<?xml version="1.0" encoding="UTF-8"?>
<!-- Generated by Pixelmator Pro 3.7.1 -->
<svg width="256" height="256" viewBox="0 0 256 256" xmlns="http://www.w3.org/2000/svg">
    <path id="Path" fill="#ffffff" stroke="none" d="M 240 212 L 16 212 L 16 40 L 240 40 Z M 240 36 L 16 36 C 13.791 36 12 37.791 12 40 L 12 216 L 244 216 L 244 40 C 244 37.791 242.209 36 240 36"/>
    <path id="path1" fill="#ffffff" stroke="none" d="M 228 148 L 28 148 L 28 56 L 81.082993 56 C 80.397995 57.178009 80 58.541992 80 60 L 80 104 C 80 108.410995 83.589005 112 88 112 L 168 112 C 172.410995 112 176 108.410995 176 104 L 176 60 C 176 58.541992 175.602005 57.178009 174.917999 56 L 228 56 Z M 168 56 C 170.209 56 172 57.791 172 60 L 172 104 C 172 106.209 170.209 108 168 108 L 88 108 C 85.791 108 84 106.209 84 104 L 84 60 C 84 57.791 85.791 56 88 56 Z M 232 56 C 232 53.791 230.209 52 228 52 L 168 52 L 88 52 L 28 52 C 25.791 52 24 53.791 24 56 L 24 152 L 232 152 Z"/>
</svg>
