<?xml version="1.0" encoding="UTF-8"?>
<!-- Generated by Pixelmator Pro 3.7.1 -->
<svg width="256" height="256" viewBox="0 0 256 256" xmlns="http://www.w3.org/2000/svg">
    <path id="Path" fill="#ffffff" stroke="none" d="M 172 160 L 84 160 L 84 120 L 172 120 Z M 174.039993 116 L 81.959 116 C 80.876999 116 80 116.876999 80 117.959 L 80 162.040009 C 80 163.123001 80.876999 164 81.959 164 L 174.039993 164 C 175.123001 164 176 163.123001 176 162.040009 L 176 117.959 C 176 116.876999 175.123001 116 174.039993 116"/>
    <path id="path1" fill="#ffffff" stroke="none" d="M 92 128 L 164 128 L 164 140 L 92 140 Z M 89.956001 144 L 166.044006 144 C 167.123993 144 168 143.123993 168 142.044006 L 168 125.955994 C 168 124.876007 167.123993 124 166.044006 124 L 89.956001 124 C 88.875999 124 88 124.876007 88 125.955994 L 88 142.044006 C 88 143.123993 88.875999 144 89.956001 144"/>
    <path id="path2" fill="#ffffff" stroke="none" d="M 96 184 L 92 184 L 92 172 L 96 172 Z M 84 172 L 88 172 L 88 184 L 84 184 Z M 98.210999 168 L 92 168 L 88 168 L 81.789001 168 C 80.801003 168 80 168.800995 80 169.789001 L 80 186.210999 C 80 187.199005 80.801003 188 81.789001 188 L 88 188 L 92 188 L 98.210999 188 C 99.198997 188 100 187.199005 100 186.210999 L 100 169.789001 C 100 168.800995 99.198997 168 98.210999 168"/>
    <path id="path3" fill="#ffffff" stroke="none" d="M 120 184 L 108 184 L 108 172 L 120 172 Z M 122 168 L 106 168 C 104.896004 168 104 168.895996 104 170 L 104 186 C 104 187.104004 104.896004 188 106 188 L 122 188 C 123.103996 188 124 187.104004 124 186 L 124 170 C 124 168.895996 123.103996 168 122 168"/>
    <path id="path4" fill="#ffffff" stroke="none" d="M 148 184 L 136 184 L 136 172 L 148 172 Z M 150 168 L 134 168 C 132.895996 168 132 168.895996 132 170 L 132 186 C 132 187.104004 132.895996 188 134 188 L 150 188 C 151.104004 188 152 187.104004 152 186 L 152 170 C 152 168.895996 151.104004 168 150 168"/>
    <path id="path5" fill="#ffffff" stroke="none" d="M 172 184 L 160 184 L 160 172 L 172 172 Z M 174 168 L 158 168 C 156.895996 168 156 168.895996 156 170 L 156 186 C 156 187.104004 156.895996 188 158 188 L 174 188 C 175.104004 188 176 187.104004 176 186 L 176 170 C 176 168.895996 175.104004 168 174 168"/>
    <path id="path6" fill="#ffffff" stroke="none" d="M 88 92 L 88 88 L 88 84 L 112 84 L 112 88 L 144 88 L 144 84 L 168 84 L 168 88 L 168 92 L 168 104 L 88 104 Z M 168 108 L 172 108 L 172 104 L 172 92 L 172 88 L 172 84 L 172 80 L 168 80 L 144 80 L 140 80 L 140 84 L 116 84 L 116 80 L 112 80 L 88 80 L 84 80 L 84 84 L 84 88 L 84 92 L 84 104 L 84 108 L 88 108 Z"/>
    <path id="path7" fill="#ffffff" stroke="none" d="M 172 64 L 84 64 L 84 68 L 172 68 Z"/>
    <path id="path8" fill="#ffffff" stroke="none" d="M 172 72 L 84 72 L 84 76 L 172 76 Z"/>
    <path id="path9" fill="#ffffff" stroke="none" d="M 36 80 L 56 80 L 52 100 L 32 100 Z M 52 104 L 55.278999 104 L 55.922001 100.785004 L 59.922001 80.785004 L 60.878998 76 L 56 76 L 36 76 L 32.721001 76 L 32.077999 79.214996 L 28.077999 99.214996 L 27.121 104 L 32 104 Z"/>
    <path id="path10" fill="#ffffff" stroke="none" d="M 24 128 L 32 128 L 32 124 L 24 124 Z"/>
    <path id="path11" fill="#ffffff" stroke="none" d="M 52 128 L 60 128 L 60 124 L 52 124 Z"/>
    <path id="path12" fill="#ffffff" stroke="none" d="M 24 140 L 32 140 L 32 136 L 24 136 Z"/>
    <path id="path13" fill="#ffffff" stroke="none" d="M 38 140 L 46 140 L 46 136 L 38 136 Z"/>
    <path id="path14" fill="#ffffff" stroke="none" d="M 52 140 L 60 140 L 60 136 L 52 136 Z"/>
    <path id="path15" fill="#ffffff" stroke="none" d="M 24 152 L 32 152 L 32 148 L 24 148 Z"/>
    <path id="path16" fill="#ffffff" stroke="none" d="M 38 152 L 46 152 L 46 148 L 38 148 Z"/>
    <path id="path17" fill="#ffffff" stroke="none" d="M 52 152 L 60 152 L 60 148 L 52 148 Z"/>
    <path id="path18" fill="#ffffff" stroke="none" d="M 24 164 L 32 164 L 32 160 L 24 160 Z"/>
    <path id="path19" fill="#ffffff" stroke="none" d="M 38 164 L 46 164 L 46 160 L 38 160 Z"/>
    <path id="path20" fill="#ffffff" stroke="none" d="M 52 164 L 60 164 L 60 160 L 52 160 Z"/>
    <path id="path21" fill="#ffffff" stroke="none" d="M 24 176 L 32 176 L 32 172 L 24 172 Z"/>
    <path id="path22" fill="#ffffff" stroke="none" d="M 38 176 L 46 176 L 46 172 L 38 172 Z"/>
    <path id="path23" fill="#ffffff" stroke="none" d="M 52 176 L 60 176 L 60 172 L 52 172 Z"/>
    <path id="path24" fill="#ffffff" stroke="none" d="M 44 92 C 42.896999 92 42 91.102997 42 90 C 42 88.897003 42.896999 88 44 88 C 45.103001 88 46 88.897003 46 90 C 46 91.102997 45.103001 92 44 92 M 44 84 C 40.687 84 38 86.686996 38 90 C 38 93.313004 40.687 96 44 96 C 47.313 96 50 93.313004 50 90 C 50 86.686996 47.313 84 44 84"/>
    <path id="path25" fill="#ffffff" stroke="none" d="M 220 80 L 224 100 L 204 100 L 200 80 Z M 200.078003 100.785004 L 200.721008 104 L 204 104 L 224 104 L 228.878998 104 L 227.921997 99.214996 L 223.921997 79.214996 L 223.279007 76 L 220 76 L 200 76 L 195.121002 76 L 196.078003 80.785004 Z"/>
    <path id="path26" fill="#ffffff" stroke="none" d="M 236 194 C 236 195.102997 235.102997 196 234 196 L 184 196 L 184 113.5 L 184 113.338989 L 183.987 113.178009 L 180.013 64 L 228.550995 64 C 230.639999 64 232.393005 65.632004 232.541 67.714996 L 232.561996 68 L 184 68 L 188 116 L 188 184 L 188 186 L 188 188 L 190 188 L 192 188 L 236 188 Z M 128 196 L 76 196 L 76 113.5 L 80 64 L 80 59.843002 C 80 57.720993 81.720993 56 83.843002 56 L 172.156998 56 C 174.278992 56 176 57.720993 176 59.843002 L 176 64 L 180 113.5 L 180 196 Z M 22 196 C 20.897003 196 20 195.102997 20 194 L 20 188 L 64 188 L 66 188 L 68 188 L 68 186 L 68 184 L 68 116 L 72 68 L 23.438995 68 L 23.459 67.714996 C 23.608002 65.632004 25.360001 64 27.449005 64 L 75.987 64 L 72.013 113.178009 L 72 113.338989 L 72 113.5 L 72 196 Z M 20 116.166 L 20.014008 116 L 64 116 L 64 184 L 20 184 Z M 64.319 112 L 64 112 L 20.347 112 L 23.681 72 L 67.653 72 Z M 192 116 L 235.985992 116 L 236 116.166 L 236 184 L 192 184 Z M 188.347992 72 L 232.319 72 L 235.651993 112 L 192 112 L 191.681 112 Z M 239.714005 112 L 236.529999 67.429993 C 236.231003 63.244003 232.748001 60 228.550995 60 L 180 60 L 180 59.843002 C 180 55.518997 176.481003 52 172.156998 52 L 83.843002 52 C 79.518997 52 76 55.518997 76 59.843002 L 76 60 L 27.449005 60 C 23.251999 60 19.768997 63.244003 19.468994 67.429993 L 16.285995 112 L 16 112 L 16 116 L 16 184 L 16 186 L 16 188 L 16 194 C 16 197.313004 18.686996 200 22 200 L 72 200 L 76 200 L 128 200 L 180 200 L 184 200 L 234 200 C 237.313004 200 240 197.313004 240 194 L 240 188 L 240 186 L 240 184 L 240 116 L 240 112 Z"/>
    <path id="path27" fill="#ffffff" stroke="none" d="M 224 128 L 232 128 L 232 124 L 224 124 Z"/>
    <path id="path28" fill="#ffffff" stroke="none" d="M 196 128 L 204 128 L 204 124 L 196 124 Z"/>
    <path id="path29" fill="#ffffff" stroke="none" d="M 224 140 L 232 140 L 232 136 L 224 136 Z"/>
    <path id="path30" fill="#ffffff" stroke="none" d="M 210 140 L 218 140 L 218 136 L 210 136 Z"/>
    <path id="path31" fill="#ffffff" stroke="none" d="M 196 140 L 204 140 L 204 136 L 196 136 Z"/>
    <path id="path32" fill="#ffffff" stroke="none" d="M 224 152 L 232 152 L 232 148 L 224 148 Z"/>
    <path id="path33" fill="#ffffff" stroke="none" d="M 210 152 L 218 152 L 218 148 L 210 148 Z"/>
    <path id="path34" fill="#ffffff" stroke="none" d="M 196 152 L 204 152 L 204 148 L 196 148 Z"/>
    <path id="path35" fill="#ffffff" stroke="none" d="M 224 164 L 232 164 L 232 160 L 224 160 Z"/>
    <path id="path36" fill="#ffffff" stroke="none" d="M 210 164 L 218 164 L 218 160 L 210 160 Z"/>
    <path id="path37" fill="#ffffff" stroke="none" d="M 196 164 L 204 164 L 204 160 L 196 160 Z"/>
    <path id="path38" fill="#ffffff" stroke="none" d="M 224 176 L 232 176 L 232 172 L 224 172 Z"/>
    <path id="path39" fill="#ffffff" stroke="none" d="M 210 176 L 218 176 L 218 172 L 210 172 Z"/>
    <path id="path40" fill="#ffffff" stroke="none" d="M 196 176 L 204 176 L 204 172 L 196 172 Z"/>
    <path id="path41" fill="#ffffff" stroke="none" d="M 212 88 C 213.102997 88 214 88.897003 214 90 C 214 91.102997 213.102997 92 212 92 C 210.897003 92 210 91.102997 210 90 C 210 88.897003 210.897003 88 212 88 M 212 96 C 215.313004 96 218 93.313004 218 90 C 218 86.686996 215.313004 84 212 84 C 208.686996 84 206 86.686996 206 90 C 206 93.313004 208.686996 96 212 96"/>
</svg>
