<?xml version="1.0" encoding="UTF-8"?>
<!-- Generated by Pixelmator Pro 3.7.1 -->
<svg width="256" height="256" viewBox="0 0 256 256" xmlns="http://www.w3.org/2000/svg">
    <path id="Path" fill="#ffffff" stroke="none" d="M 240 128 L 192.044998 128 L 192.044998 80 L 240 80 Z M 236 192 L 20 192 C 17.791 192 16 190.209 16 188 L 100 188 L 156 188 L 240 188 C 240 190.209 238.209 192 236 192 M 16 80 L 63.955002 80 L 63.955002 128 L 16 128 Z M 16 68 C 16 65.791 17.791 64 20 64 L 236 64 C 238.209 64 240 65.791 240 68 L 240 76 L 192.044998 76 L 192.044998 75.955002 L 188 75.955002 L 68 75.955002 L 63.955002 75.955002 L 63.955002 76 L 16 76 Z M 188 88 L 160 88 L 156 88 L 156 92 L 100 92 L 100 88 L 96 88 L 68 88 L 68 80 L 188 80 Z M 156 128 L 135.888 128 C 137.160004 126.330994 137.925003 124.255997 137.925003 122 C 137.925003 119.744003 137.160004 117.669006 135.888 116 L 188 116 L 188 128 Z M 239.858994 183.859009 L 160.139999 183.859009 L 160.139999 132.139999 L 239.858994 132.139999 Z M 100 132.044998 L 156 132.044998 L 156 184 L 100 184 Z M 95.859001 183.859009 L 16.139999 183.859009 L 16.139999 132.139999 L 95.859001 132.139999 Z M 68 116 L 120.112 116 C 118.839996 117.669006 118.074997 119.744003 118.074997 122 C 118.074997 124.255997 118.839996 126.330994 120.112 128 L 100 128 L 68 128 Z M 134 122 C 134 125.313004 131.313004 128 128 128 C 124.686996 128 122 125.313004 122 122 C 122 118.686996 124.686996 116 128 116 C 131.313004 116 134 118.686996 134 122 M 160 96 L 160 92 L 188 92 L 188 112 L 68 112 L 68 92 L 96 92 L 96 96 Z M 236 60 L 20 60 C 15.589 60 12 63.589005 12 68 L 12 76 L 12 80 L 12.075 80 L 12.075 128 L 12 128 L 12 188 L 12.075 188 C 12.075 192.369995 15.63 195.925003 20 195.925003 L 236 195.925003 C 240.369995 195.925003 243.925003 192.369995 243.925003 188 L 244 188 L 244 128 L 243.925003 128 L 243.925003 80 L 244 80 L 244 76 L 244 68 C 244 63.589005 240.410995 60 236 60"/>
    <path id="path1" fill="#ffffff" stroke="none" d="M 38 140 C 41.313 140 44 142.686996 44 146 C 44 149.313004 41.313 152 38 152 C 34.687 152 32 149.313004 32 146 C 32 142.686996 34.687 140 38 140 M 38 155.925003 C 43.473 155.925003 47.924999 151.472992 47.924999 146 C 47.924999 140.527008 43.473 136.074997 38 136.074997 C 32.527 136.074997 28.075001 140.527008 28.075001 146 C 28.075001 151.472992 32.527 155.925003 38 155.925003"/>
    <path id="path2" fill="#ffffff" stroke="none" d="M 74 140 C 77.313004 140 80 142.686996 80 146 C 80 149.313004 77.313004 152 74 152 C 70.686996 152 68 149.313004 68 146 C 68 142.686996 70.686996 140 74 140 M 74 155.925003 C 79.473 155.925003 83.925003 151.472992 83.925003 146 C 83.925003 140.527008 79.473 136.074997 74 136.074997 C 68.527 136.074997 64.074997 140.527008 64.074997 146 C 64.074997 151.472992 68.527 155.925003 74 155.925003"/>
    <path id="path3" fill="#ffffff" stroke="none" d="M 58 156 C 59.104 156 60 156.895996 60 158 C 60 159.104004 59.104 160 58 160 C 56.896 160 56 159.104004 56 158 C 56 156.895996 56.896 156 58 156 M 58 163.925003 C 61.266998 163.925003 63.924999 161.268005 63.924999 158 C 63.924999 154.731995 61.266998 152.074997 58 152.074997 C 54.733002 152.074997 52.075001 154.731995 52.075001 158 C 52.075001 161.268005 54.733002 163.925003 58 163.925003"/>
    <path id="path4" fill="#ffffff" stroke="none" d="M 56 168 L 92 168 L 92 164 L 56 164 Z"/>
    <path id="path5" fill="#ffffff" stroke="none" d="M 182 140 C 185.313004 140 188 142.686996 188 146 C 188 149.313004 185.313004 152 182 152 C 178.686996 152 176 149.313004 176 146 C 176 142.686996 178.686996 140 182 140 M 182 155.925003 C 187.473007 155.925003 191.925003 151.472992 191.925003 146 C 191.925003 140.527008 187.473007 136.074997 182 136.074997 C 176.526993 136.074997 172.074997 140.527008 172.074997 146 C 172.074997 151.472992 176.526993 155.925003 182 155.925003"/>
    <path id="path6" fill="#ffffff" stroke="none" d="M 218 140 C 221.313004 140 224 142.686996 224 146 C 224 149.313004 221.313004 152 218 152 C 214.686996 152 212 149.313004 212 146 C 212 142.686996 214.686996 140 218 140 M 218 155.925003 C 223.473007 155.925003 227.925003 151.472992 227.925003 146 C 227.925003 140.527008 223.473007 136.074997 218 136.074997 C 212.526993 136.074997 208.074997 140.527008 208.074997 146 C 208.074997 151.472992 212.526993 155.925003 218 155.925003"/>
    <path id="path7" fill="#ffffff" stroke="none" d="M 202 156 C 203.104004 156 204 156.895996 204 158 C 204 159.104004 203.104004 160 202 160 C 200.895996 160 200 159.104004 200 158 C 200 156.895996 200.895996 156 202 156 M 202 163.925003 C 205.268005 163.925003 207.925003 161.268005 207.925003 158 C 207.925003 154.731995 205.268005 152.074997 202 152.074997 C 198.731995 152.074997 196.074997 154.731995 196.074997 158 C 196.074997 161.268005 198.731995 163.925003 202 163.925003"/>
    <path id="path8" fill="#ffffff" stroke="none" d="M 200 168 L 236 168 L 236 164 L 200 164 Z"/>
    <path id="path9" fill="#ffffff" stroke="none" d="M 80 100 L 80 108 L 84 108 L 172 108 L 176 108 L 176 100 L 172 100 L 84 100 Z"/>
</svg>
