<?xml version="1.0" encoding="UTF-8"?>
<!-- Generated by Pixelmator Pro 3.7.1 -->
<svg width="256" height="256" viewBox="0 0 256 256" xmlns="http://www.w3.org/2000/svg">
    <path id="Path" fill="#ffffff" stroke="none" d="M 236.591797 123.264603 C 236.1978 126.416595 235.569794 129.535599 234.712799 132.594604 L 219.999802 185.098602 C 217.133804 203.252594 207.143799 218.4086 188.833801 219.999603 L 131.999802 223.999603 L 127.999794 223.999603 L 123.999794 223.999603 L 67.165802 219.999603 C 48.8568 218.4086 38.865803 203.252594 35.999805 185.098602 L 21.2878 132.594604 C 20.429798 129.535599 19.801807 126.416595 19.407795 123.264603 L 11.999804 63.999603 C 11.999804 46.326599 26.326801 31.999603 43.999805 31.999603 L 127.999794 31.999603 L 211.999802 31.999603 C 229.672806 31.999603 243.999802 46.326599 243.999802 63.999603 Z M 211.999802 27.999603 L 127.999794 27.999603 L 43.999805 27.999603 C 24.149799 27.999603 7.999805 44.149597 7.999805 63.999603 L 7.999805 64.248596 L 8.030795 64.495605 L 15.4388 123.760605 C 15.856799 127.098602 16.528797 130.434601 17.435795 133.673599 L 32.086796 185.956604 C 35.671803 208.195602 48.643803 222.404602 66.819794 223.985596 L 66.852798 223.988602 L 66.884796 223.990601 L 123.718796 227.990601 L 123.859795 227.999603 L 123.999794 227.999603 L 127.999794 227.999603 L 131.999802 227.999603 L 132.140808 227.999603 L 132.280807 227.990601 L 189.1138 223.990601 L 189.147797 223.988602 L 189.180801 223.985596 C 207.356796 222.404602 220.327805 208.195602 223.913803 185.956604 L 238.564804 133.673599 C 239.471802 130.434601 240.143799 127.098602 240.560806 123.760605 L 247.968796 64.495605 L 247.999802 64.248596 L 247.999802 63.999603 C 247.999802 44.149597 231.8508 27.999603 211.999802 27.999603"/>
    <path id="path1" fill="#ffffff" stroke="none" d="M 183.594696 44 C 190.378693 44 195.813705 49.617996 195.587708 56.397995 L 192.134705 160.39801 C 191.919693 166.867004 186.6147 172 180.141693 172 L 159.999695 172 L 95.999702 172 L 75.858704 172 C 69.385704 172 64.079704 166.867004 63.864697 160.39801 L 60.411701 56.397995 C 60.186703 49.617996 65.621704 44 72.405701 44 Z M 224.738708 62.828995 L 215.999695 124 L 199.690704 185.975998 C 197.4897 194.341995 190.158707 200.343994 181.523697 200.852005 L 139.999695 204 L 115.999702 204 L 74.476707 200.852005 C 65.840706 200.343994 58.5107 194.341995 56.309696 185.975998 L 39.999699 124 L 31.261707 62.828995 C 29.539707 50.779999 38.888706 40 51.059696 40 L 72.405701 40 C 68.030701 40 63.946697 41.731003 60.905697 44.875 C 57.863697 48.020004 56.268703 52.158997 56.4137 56.531006 L 59.866703 160.531006 C 60.155697 169.205002 67.178703 176 75.858704 176 L 180.141693 176 C 188.821701 176 195.844696 169.205002 196.132706 160.531006 L 199.585693 56.531006 C 199.731705 52.158997 198.136703 48.020004 195.094696 44.875 C 192.053696 41.731003 187.969696 40 183.594696 40 L 204.939697 40 C 217.110703 40 226.459702 50.779999 224.738708 62.828995 M 133.528702 212 L 122.471703 212 C 120.956703 212 119.572701 211.143997 118.894707 209.789001 L 117.999702 208 L 137.999695 208 L 137.105698 209.789001 C 136.427704 211.143997 135.042709 212 133.528702 212 M 204.939697 36 L 51.059696 36 C 44.098698 36 37.490696 39.016006 32.928699 44.274994 C 28.367695 49.533997 26.3167 56.503006 27.301701 63.393997 L 36.039707 124.565002 L 36.072697 124.794006 L 36.131702 125.018005 L 52.4417 186.994003 C 55.086704 197.048996 63.831699 204.218002 74.207703 204.843002 L 113.436707 207.817001 L 115.316704 211.578003 C 116.680702 214.306 119.422707 216 122.471703 216 L 133.528702 216 C 136.577698 216 139.319702 214.306 140.683701 211.578003 L 142.563705 207.817001 L 181.791702 204.843002 C 192.167694 204.218002 200.912704 197.048996 203.558701 186.994003 L 219.867706 125.018005 L 219.926697 124.794006 L 219.959702 124.565002 L 228.6987 63.393997 C 229.683701 56.503006 227.631699 49.533997 223.070709 44.274994 C 218.509705 39.016006 211.901703 36 204.939697 36"/>
    <path id="path2" fill="#ffffff" stroke="none" d="M 134 180 L 122 180 C 120.895996 180 120 180.895996 120 182 C 120 183.104004 120.895996 184 122 184 L 134 184 C 135.104004 184 136 183.104004 136 182 C 136 180.895996 135.104004 180 134 180"/>
    <path id="path3" fill="#ffffff" stroke="none" d="M 184 160 C 184 161.123993 182.192001 163.106995 178.223999 164.80899 C 173.490997 166.837006 166.848999 168 160 168 C 153.151001 168 146.509003 166.837006 141.776001 164.80899 C 137.807999 163.106995 136 161.123993 136 160 L 136 56 C 136 53.794006 137.794998 52 140 52 L 180 52 C 182.205994 52 184 53.794006 184 56 Z M 188 160 L 188 56 C 188 51.582001 184.417999 48 180 48 L 140 48 C 135.582001 48 132 51.582001 132 56 L 132 160 C 132 166.626999 144.535995 172 160 172 C 175.464005 172 188 166.626999 188 160"/>
    <path id="path4" fill="#ffffff" stroke="none" d="M 144 60 L 176 60 L 176 112 L 144 112 Z M 140 116 L 180 116 L 180 56 L 140 56 Z"/>
    <path id="path5" fill="#ffffff" stroke="none" d="M 160 160 C 152.279999 160 146 153.720001 146 146 C 146 138.279999 152.279999 132 160 132 C 167.720001 132 174 138.279999 174 146 C 174 153.720001 167.720001 160 160 160 M 160 128 C 150.059006 128 142 136.05899 142 146 C 142 155.94101 150.059006 164 160 164 C 169.940994 164 178 155.94101 178 146 C 178 136.05899 169.940994 128 160 128"/>
    <path id="path6" fill="#ffffff" stroke="none" d="M 120 160 C 120 161.123993 118.192001 163.106995 114.223 164.80899 C 109.490997 166.837006 102.848999 168 96 168 C 89.151001 168 82.509003 166.837006 77.777 164.80899 C 73.807999 163.106995 72 161.123993 72 160 L 72 56 C 72 53.794006 73.793999 52 76 52 L 116 52 C 118.206001 52 120 53.794006 120 56 Z M 124 160 L 124 56 C 124 51.582001 120.417999 48 116 48 L 76 48 C 71.582001 48 68 51.582001 68 56 L 68 160 C 68 166.626999 80.535995 172 96 172 C 111.463997 172 124 166.626999 124 160"/>
    <path id="path7" fill="#ffffff" stroke="none" d="M 80 60 L 112 60 L 112 112 L 80 112 Z M 76 116 L 116 116 L 116 56 L 76 56 Z"/>
    <path id="path8" fill="#ffffff" stroke="none" d="M 96 160 C 88.279999 160 82 153.720001 82 146 C 82 138.279999 88.279999 132 96 132 C 103.720001 132 110 138.279999 110 146 C 110 153.720001 103.720001 160 96 160 M 96 128 C 86.058998 128 78 136.05899 78 146 C 78 155.94101 86.058998 164 96 164 C 105.941002 164 114 155.94101 114 146 C 114 136.05899 105.941002 128 96 128"/>
</svg>
