<?xml version="1.0" encoding="UTF-8"?>
<!-- Generated by Pixelmator Pro 3.7.1 -->
<svg width="256" height="256" viewBox="0 0 256 256" xmlns="http://www.w3.org/2000/svg">
    <path id="Path" fill="#ffffff" stroke="none" d="M 244 212 L 12 212 L 12 52 C 12 49.791 13.791 48 16 48 L 48 48 L 48 52 L 48 56 L 52 56 L 204 56 L 208 56 L 208 52 L 208 48 L 240 48 C 242.209 48 244 49.791 244 52 Z M 52 48 L 204 48 L 204 52 L 52 52 Z M 240 44 L 208 44 L 204 44 L 52 44 L 48 44 L 16 44 C 11.589005 44 8 47.589005 8 52 L 8 212 L 8 216 L 12 216 L 244 216 L 248 216 L 248 212 L 248 52 C 248 47.589005 244.410995 44 240 44"/>
    <path id="path1" fill="#ffffff" stroke="none" d="M 54.4063 100 C 55.137299 98.570007 56.015301 97.227997 57.029301 96 L 198.970291 96 C 199.985291 97.227997 200.862289 98.570007 201.593292 100 Z M 203.142288 103.936005 C 203.00029 103.438004 202.825302 102.953995 202.649292 102.472 C 202.826294 102.955002 203.00029 103.438004 203.142288 103.936005 M 202.460297 101.919998 C 202.201294 101.264999 201.9133 100.623993 201.593292 100 C 201.9133 100.623993 202.201294 101.264999 202.460297 101.919998 M 52.094299 108 C 52.2183 106.625 52.476299 105.289993 52.841301 104 L 203.158295 104 C 203.524292 105.289993 203.781296 106.625 203.905289 108 Z M 203.152298 116 L 52.845299 116 C 52.480301 114.709 52.2183 113.375 52.094299 112 L 203.905289 112 C 203.781296 113.376007 203.517288 114.709 203.152298 116 M 202.474289 118.048004 C 202.710297 117.449997 202.910294 116.834991 203.093292 116.212006 C 202.910294 116.834 202.710297 117.449997 202.474289 118.048004 M 201.604294 119.975998 C 201.924301 119.350006 202.215302 118.707001 202.474289 118.048004 C 202.215302 118.707001 201.924301 119.350006 201.604294 119.975998 M 198.935303 124 L 57.052299 124 C 56.0373 122.770996 55.157299 121.431 54.425301 120 L 201.591293 120 C 200.856293 121.436005 199.955292 122.768005 198.935303 124 M 194.641296 128 C 195.44429 127.434998 196.20929 126.817993 196.928299 126.154999 C 196.20929 126.820007 195.445297 127.434998 194.641296 128 M 182.000305 132 L 74.000298 132 C 69.293297 132 64.935303 130.518005 61.358299 128 L 194.641296 128 C 191.064301 130.518005 186.707291 132 182.000305 132 M 59.071301 126.154999 C 59.791302 126.817993 60.555302 127.434998 61.358299 128 C 60.555302 127.434998 59.790298 126.820007 59.071301 126.154999 M 53.693298 118.417999 C 53.866299 118.837006 54.0513 119.248993 54.249298 119.653 C 54.0513 119.248001 53.866299 118.837006 53.693298 118.417999 M 52.970299 116.401001 C 53.1133 116.871994 53.2663 117.337006 53.4403 117.792999 C 53.2663 117.337006 53.1133 116.871994 52.970299 116.401001 M 53.3503 102.472 C 53.174301 102.953995 52.999302 103.438004 52.8573 103.936005 C 52.999302 103.438004 53.174301 102.955002 53.3503 102.472 M 54.4063 100 C 54.087299 100.623993 53.799301 101.264999 53.540298 101.919998 C 53.799301 101.264999 54.087299 100.623993 54.4063 100 M 61.358299 92 C 60.555302 92.565002 59.791302 93.182007 59.071301 93.845001 C 59.790298 93.179993 60.555302 92.565002 61.358299 92 M 74.000298 88 L 182.000305 88 C 186.707291 88 191.064301 89.483002 194.641296 92 L 61.358299 92 C 64.935303 89.483002 69.293297 88 74.000298 88 M 196.928299 93.845001 C 196.20929 93.182007 195.44429 92.565002 194.641296 92 C 195.445297 92.565002 196.20929 93.179993 196.928299 93.845001 M 182.000305 84 L 74.000298 84 C 59.6633 84 48.000301 95.664001 48.000301 110 C 48.000301 124.335999 59.6633 136 74.000298 136 L 182.000305 136 C 196.337296 136 208.00029 124.335999 208.00029 110 C 208.00029 95.664001 196.337296 84 182.000305 84"/>
</svg>
