<?xml version="1.0" encoding="UTF-8"?>
<!-- Generated by Pixelmator Pro 3.7.1 -->
<svg width="256" height="256" viewBox="0 0 256 256" xmlns="http://www.w3.org/2000/svg">
    <path id="Path" fill="#ffffff" stroke="none" d="M 191.9561 90.701202 C 191.947098 90.773193 191.934097 90.843201 191.923096 90.913193 C 191.898102 91.074203 191.869095 91.232193 191.832108 91.387207 C 191.814102 91.463196 191.795105 91.538193 191.774094 91.614197 C 191.730103 91.769196 191.681107 91.921204 191.625107 92.071198 C 191.602097 92.133194 191.582108 92.197205 191.557098 92.258194 C 191.388107 92.674194 191.173096 93.066193 190.920105 93.429199 C 190.883102 93.481201 190.843094 93.531204 190.805099 93.582199 C 190.709106 93.711197 190.608093 93.836197 190.502106 93.957199 C 190.4561 94.010193 190.409103 94.061203 190.360107 94.113205 C 190.247101 94.2332 190.129105 94.347198 190.006104 94.458206 C 189.963104 94.496201 189.922104 94.536194 189.878098 94.574203 C 189.707108 94.719193 189.529099 94.857193 189.343094 94.982193 C 188.3871 95.625198 187.237106 96.000198 186.000107 96.000198 C 185.779099 96.000198 185.562103 95.986206 185.348099 95.963196 C 184.972107 95.922195 184.607101 95.847198 184.256104 95.741196 C 184.256104 95.740204 184.255096 95.740204 184.254105 95.740204 C 183.918106 95.638199 183.5961 95.503204 183.287094 95.347198 C 183.266098 95.336197 183.244095 95.326202 183.223099 95.316193 C 182.930099 95.162201 182.6521 94.982193 182.390106 94.784195 C 182.360107 94.762207 182.330093 94.740204 182.300095 94.717194 C 182.049103 94.519196 181.814102 94.3022 181.598099 94.0672 C 181.567093 94.034195 181.537094 94.001205 181.507095 93.967194 C 181.298096 93.730194 181.107101 93.478195 180.936096 93.210205 C 180.912094 93.171204 180.889099 93.131195 180.865097 93.091202 C 180.700104 92.818207 180.555099 92.533203 180.435104 92.2332 C 180.419098 92.195206 180.406097 92.155197 180.391098 92.115204 C 180.274094 91.806198 180.179092 91.487198 180.114105 91.157196 C 180.108093 91.128204 180.105103 91.099197 180.101105 91.071198 C 180.038101 90.723206 180.000107 90.366196 180.000107 90.000198 C 180.000107 89.634201 180.038101 89.277206 180.101105 88.929199 C 180.105103 88.900208 180.108093 88.871201 180.114105 88.843201 C 180.179092 88.513199 180.274094 88.193207 180.391098 87.885193 C 180.406097 87.8452 180.419098 87.805206 180.435104 87.766205 C 180.555099 87.467194 180.700104 87.181198 180.864105 86.909195 C 180.889099 86.868195 180.912094 86.829193 180.937103 86.7892 C 181.107101 86.522202 181.298096 86.269196 181.507095 86.033203 C 181.537094 85.999207 181.567093 85.966202 181.598099 85.933197 C 181.814102 85.698196 182.049103 85.480194 182.300095 85.283203 C 182.330093 85.260193 182.360107 85.238205 182.390106 85.216202 C 182.6521 85.017197 182.929092 84.838196 183.223099 84.684204 C 183.244095 84.673203 183.267105 84.6642 183.288101 84.653198 C 183.5961 84.496201 183.918106 84.362198 184.254105 84.260193 C 184.255096 84.260193 184.256104 84.260193 184.256104 84.259201 C 184.607101 84.153198 184.972107 84.077194 185.348099 84.037201 C 185.562103 84.014206 185.779099 84.000198 186.000107 84.000198 C 187.237106 84.000198 188.3871 84.375198 189.343094 85.017197 C 189.529099 85.143204 189.707108 85.281204 189.878098 85.426193 C 189.922104 85.463196 189.963104 85.503204 190.005096 85.541199 C 190.128098 85.652206 190.247101 85.767197 190.361099 85.888199 C 190.409103 85.938202 190.4561 85.990204 190.502106 86.042206 C 190.608093 86.163193 190.709106 86.288193 190.805099 86.417206 C 190.843094 86.469193 190.883102 86.518204 190.920105 86.571198 C 191.046097 86.751205 191.1651 86.937195 191.271103 87.132202 C 191.271103 87.133194 191.271103 87.134201 191.272095 87.134201 C 191.379105 87.3302 191.472107 87.534195 191.557098 87.742203 C 191.582108 87.803207 191.602097 87.867203 191.625107 87.929199 C 191.681107 88.079193 191.730103 88.231201 191.774094 88.3862 C 191.795105 88.461197 191.814102 88.536194 191.832108 88.613205 C 191.869095 88.768204 191.898102 88.926193 191.923096 89.086197 C 191.934097 89.157196 191.947098 89.227203 191.9561 89.299194 C 191.982101 89.529205 192.000107 89.763199 192.000107 90.000198 C 192.000107 90.237198 191.982101 90.471207 191.9561 90.701202 M 193.018097 98.657196 L 193.018097 98.657196 C 193.143097 98.471207 193.281097 98.293198 193.426102 98.122192 C 193.463104 98.078201 193.504105 98.037201 193.542099 97.994202 C 193.6521 97.871201 193.767105 97.753204 193.888107 97.639206 C 193.938095 97.591202 193.990097 97.544205 194.043106 97.498199 C 194.163101 97.391205 194.288101 97.291199 194.418106 97.195206 C 194.469101 97.157196 194.519104 97.117203 194.570099 97.0802 C 194.752106 96.954193 194.937103 96.835205 195.132095 96.729202 L 195.135101 96.727203 C 195.330093 96.621201 195.533096 96.528198 195.742096 96.443207 C 195.804108 96.418198 195.867096 96.397202 195.930099 96.374207 C 196.079102 96.319199 196.231094 96.269196 196.3871 96.226196 C 196.461105 96.2052 196.536102 96.185196 196.612106 96.168198 C 196.768097 96.131195 196.926102 96.101196 197.086105 96.076202 C 197.157104 96.066193 197.227097 96.053207 197.299103 96.044205 C 197.529099 96.017197 197.763107 96.000198 198.000107 96.000198 C 198.237106 96.000198 198.4711 96.017197 198.701096 96.044205 C 198.772095 96.053207 198.843094 96.066193 198.914093 96.076202 C 199.074097 96.101196 199.231094 96.131195 199.388107 96.168198 C 199.464096 96.185196 199.539093 96.2052 199.613098 96.226196 C 199.768097 96.269196 199.921097 96.319199 200.070099 96.374207 C 200.133102 96.397202 200.196106 96.418198 200.258102 96.443207 C 200.467102 96.528198 200.670105 96.621201 200.865097 96.727203 L 200.868103 96.729202 C 201.062103 96.835205 201.248093 96.954193 201.430099 97.0802 C 201.481094 97.117203 201.531097 97.157196 201.582108 97.195206 C 201.712097 97.291199 201.837097 97.392197 201.957108 97.498199 C 202.010101 97.544205 202.061096 97.591202 202.112106 97.638199 C 202.232101 97.752197 202.348099 97.871201 202.459106 97.995193 C 202.497101 98.037201 202.537094 98.078201 202.574097 98.122192 C 202.719101 98.293198 202.857101 98.471207 202.982101 98.657196 C 203.625107 99.613205 204.000107 100.763199 204.000107 102.000198 C 204.000107 102.221207 203.986099 102.438202 203.963104 102.652206 L 203.963104 102.653198 C 203.922104 103.028198 203.847107 103.392197 203.740097 103.744202 L 203.740097 103.746201 C 203.638107 104.082199 203.504105 104.404205 203.347107 104.712204 C 203.336105 104.734207 203.327103 104.756195 203.315094 104.777206 C 203.162094 105.071198 202.982101 105.347198 202.784103 105.610199 C 202.7621 105.640198 202.740097 105.670197 202.717102 105.700195 C 202.519104 105.951202 202.302094 106.185196 202.066101 106.402206 C 202.034103 106.433197 202.001099 106.463196 201.967102 106.493195 C 201.730103 106.702194 201.478104 106.892197 201.210098 107.063202 C 201.171097 107.088196 201.131104 107.111206 201.091095 107.135193 C 200.8181 107.300201 200.533096 107.445206 200.233093 107.566193 C 200.194107 107.581192 200.154099 107.594193 200.115097 107.609207 C 199.807098 107.725204 199.487106 107.821198 199.156097 107.8862 C 199.128098 107.891205 199.100098 107.894196 199.071106 107.8992 C 198.723099 107.962204 198.366104 108.000198 198.000107 108.000198 C 197.634094 108.000198 197.2771 107.962204 196.929108 107.8992 C 196.900101 107.894196 196.872101 107.891205 196.844101 107.8862 C 196.513107 107.821198 196.1931 107.725204 195.885101 107.609207 C 195.8461 107.594193 195.806107 107.581192 195.767105 107.566193 C 195.467102 107.445206 195.182098 107.300201 194.909103 107.135193 C 194.869095 107.111206 194.829102 107.088196 194.7901 107.063202 C 194.521103 106.893204 194.269104 106.702194 194.033096 106.493195 C 193.9991 106.463196 193.966095 106.433197 193.933105 106.402206 C 193.698105 106.185196 193.480103 105.951202 193.283096 105.700195 C 193.260101 105.670197 193.238098 105.640198 193.216095 105.610199 C 193.018097 105.347198 192.838104 105.071198 192.685104 104.777206 C 192.673096 104.756195 192.664093 104.734207 192.653107 104.712204 C 192.496094 104.404205 192.362106 104.082199 192.260101 103.746201 L 192.260101 103.744202 C 192.153107 103.392197 192.078094 103.028198 192.037094 102.653198 L 192.037094 102.652206 C 192.014099 102.438202 192.000107 102.221207 192.000107 102.000198 C 192.000107 100.763199 192.375107 99.613205 193.018097 98.657196 M 200.269104 92.269196 C 199.539093 92.099197 198.781097 92.000198 198.000107 92.000198 C 197.219101 92.000198 196.461105 92.099197 195.730103 92.269196 C 195.900101 91.5392 196.000107 90.782196 196.000107 90.000198 C 196.000107 89.218201 195.900101 88.461197 195.730103 87.730194 C 196.461105 87.901199 197.219101 88.000198 198.000107 88.000198 C 198.781097 88.000198 199.539093 87.901199 200.269104 87.730194 C 200.100098 88.461197 200.000107 89.218201 200.000107 90.000198 C 200.000107 90.782196 200.100098 91.5392 200.269104 92.269196 M 204.044098 89.299194 C 204.053101 89.227203 204.066101 89.157196 204.077103 89.086197 C 204.102097 88.926193 204.131104 88.768204 204.168106 88.613205 C 204.185104 88.536194 204.205093 88.461197 204.226105 88.3862 C 204.269104 88.231201 204.319107 88.079193 204.375107 87.929199 C 204.397095 87.867203 204.418106 87.803207 204.4431 87.742203 C 204.528107 87.534195 204.621094 87.3302 204.727097 87.135193 L 204.730103 87.129196 C 204.836105 86.935196 204.955093 86.750198 205.080093 86.571198 C 205.117096 86.518204 205.157104 86.469193 205.195099 86.417206 C 205.291107 86.288193 205.392105 86.163193 205.497101 86.043198 C 205.544098 85.990204 205.592102 85.938202 205.640106 85.887207 C 205.753098 85.767197 205.871094 85.653198 205.993103 85.542206 C 206.037094 85.504196 206.078094 85.463196 206.122101 85.426193 C 206.293106 85.281204 206.4711 85.143204 206.657104 85.017197 C 207.613098 84.375198 208.763092 84.000198 210.000107 84.000198 C 210.2211 84.000198 210.437103 84.014206 210.6521 84.037201 C 211.028107 84.077194 211.393097 84.153198 211.744095 84.259201 C 211.744095 84.260193 211.745102 84.260193 211.746094 84.260193 C 212.082092 84.362198 212.404099 84.496201 212.712097 84.653198 C 212.733093 84.6642 212.756104 84.673203 212.7771 84.684204 C 213.071106 84.838196 213.348099 85.017197 213.610092 85.216202 C 213.640106 85.238205 213.670105 85.260193 213.700104 85.283203 C 213.952103 85.480194 214.185104 85.699203 214.4021 85.933197 C 214.434097 85.966202 214.463104 85.999207 214.493103 86.033203 C 214.702103 86.269196 214.893097 86.522202 215.062103 86.7892 C 215.088104 86.829193 215.111099 86.868195 215.136093 86.909195 C 215.300095 87.181198 215.445099 87.467194 215.565094 87.766205 C 215.5811 87.805206 215.594101 87.8452 215.6091 87.885193 C 215.726105 88.193207 215.821106 88.513199 215.886093 88.843201 C 215.892105 88.871201 215.894104 88.900208 215.899094 88.929199 C 215.962097 89.277206 216.000107 89.634201 216.000107 90.000198 C 216.000107 90.366196 215.962097 90.723206 215.899094 91.071198 C 215.894104 91.099197 215.892105 91.128204 215.886093 91.157196 C 215.821106 91.487198 215.726105 91.806198 215.6091 92.115204 C 215.594101 92.155197 215.5811 92.195206 215.565094 92.2332 C 215.445099 92.533203 215.300095 92.818207 215.135101 93.091202 C 215.111099 93.131195 215.088104 93.171204 215.063095 93.210205 C 214.893097 93.478195 214.702103 93.730194 214.492096 93.968201 C 214.463104 94.001205 214.434097 94.034195 214.4021 94.066193 C 214.185104 94.301193 213.952103 94.519196 213.700104 94.717194 C 213.670105 94.740204 213.640106 94.762207 213.610092 94.784195 C 213.348099 94.982193 213.070099 95.162201 212.7771 95.316193 C 212.756104 95.326202 212.7341 95.336197 212.713104 95.347198 C 212.404099 95.503204 212.082092 95.638199 211.746094 95.740204 C 211.745102 95.740204 211.744095 95.740204 211.744095 95.741196 C 211.393097 95.847198 211.028107 95.922195 210.6521 95.963196 C 210.437103 95.986206 210.2211 96.000198 210.000107 96.000198 C 208.763092 96.000198 207.613098 95.625198 206.657104 94.982193 C 206.4711 94.857193 206.293106 94.719193 206.122101 94.574203 C 206.078094 94.536194 206.037094 94.496201 205.994095 94.458206 C 205.871094 94.347198 205.753098 94.2332 205.640106 94.113205 C 205.591095 94.062195 205.544098 94.010193 205.498093 93.957199 C 205.392105 93.836197 205.291107 93.711197 205.195099 93.582199 C 205.157104 93.531204 205.117096 93.481201 205.080093 93.429199 C 204.827103 93.066193 204.612106 92.674194 204.4431 92.258194 C 204.418106 92.197205 204.397095 92.133194 204.375107 92.071198 C 204.319107 91.921204 204.269104 91.769196 204.226105 91.614197 C 204.205093 91.538193 204.185104 91.463196 204.168106 91.387207 C 204.131104 91.232193 204.102097 91.074203 204.077103 90.913193 C 204.066101 90.843201 204.053101 90.773193 204.044098 90.701202 C 204.018097 90.471207 204.000107 90.237198 204.000107 90.000198 C 204.000107 89.763199 204.018097 89.529205 204.044098 89.299194 M 202.574097 81.878204 C 202.537094 81.922195 202.497101 81.963196 202.458099 82.005203 C 202.348099 82.128204 202.232101 82.247192 202.112106 82.361206 C 202.061096 82.409195 202.010101 82.4552 201.958099 82.501205 C 201.837097 82.6082 201.711105 82.709198 201.5811 82.805206 C 201.531097 82.844193 201.481094 82.883194 201.430099 82.919205 C 201.2491 83.045197 201.062103 83.165207 200.868103 83.271194 L 200.865097 83.272202 C 200.670105 83.379196 200.467102 83.472198 200.258102 83.556198 C 200.196106 83.582199 200.133102 83.602203 200.070099 83.625198 C 199.921097 83.680206 199.768097 83.731201 199.613098 83.7742 C 199.539093 83.795197 199.464096 83.814194 199.388107 83.832199 C 199.231094 83.869202 199.074097 83.8992 198.914093 83.923203 C 198.843094 83.934204 198.772095 83.947205 198.701096 83.9552 C 198.4711 83.982193 198.237106 84.000198 198.000107 84.000198 C 197.763107 84.000198 197.529099 83.982193 197.299103 83.9552 C 197.227097 83.947205 197.157104 83.934204 197.086105 83.923203 C 196.926102 83.8992 196.768097 83.869202 196.612106 83.832199 C 196.536102 83.814194 196.461105 83.795197 196.3871 83.7742 C 196.231094 83.731201 196.079102 83.680206 195.930099 83.625198 C 195.867096 83.602203 195.804108 83.582199 195.742096 83.556198 C 195.326096 83.388199 194.934097 83.173203 194.570099 82.919205 C 194.519104 82.883194 194.469101 82.844193 194.418106 82.805206 C 194.289093 82.709198 194.163101 82.6082 194.042099 82.502197 C 193.990097 82.4552 193.938095 82.409195 193.888107 82.361206 C 193.767105 82.247192 193.6521 82.128204 193.541107 82.005203 C 193.503098 81.962204 193.463104 81.922195 193.427094 81.878204 C 192.538101 80.832199 192.000107 79.480194 192.000107 78.000198 C 192.000107 77.779205 192.014099 77.562195 192.037094 77.347198 L 192.037094 77.347198 C 192.078094 76.972198 192.153107 76.607193 192.260101 76.256195 L 192.260101 76.254196 C 192.362106 75.918198 192.496094 75.596207 192.653107 75.287201 C 192.664093 75.266205 192.673096 75.244202 192.685104 75.222198 C 192.838104 74.929199 193.018097 74.652206 193.216095 74.389206 C 193.238098 74.360199 193.260101 74.329193 193.283096 74.300201 C 193.480103 74.048203 193.698105 73.814194 193.934097 73.597198 C 193.966095 73.5672 193.9991 73.537201 194.033096 73.507202 C 194.269104 73.298203 194.521103 73.107193 194.7901 72.937195 C 194.829102 72.912201 194.869095 72.889206 194.909103 72.865204 C 195.182098 72.700195 195.467102 72.555206 195.767105 72.434204 C 195.806107 72.418198 195.8461 72.406204 195.885101 72.391205 C 196.1931 72.2742 196.513107 72.179199 196.844101 72.114197 C 196.872101 72.1082 196.900101 72.106201 196.929108 72.100204 C 197.2771 72.038193 197.634094 72.000198 198.000107 72.000198 C 198.366104 72.000198 198.723099 72.038193 199.071106 72.100204 C 199.100098 72.106201 199.128098 72.1082 199.156097 72.114197 C 199.487106 72.179199 199.807098 72.2742 200.115097 72.391205 C 200.154099 72.406204 200.194107 72.418198 200.233093 72.434204 C 200.533096 72.555206 200.8181 72.700195 201.091095 72.865204 C 201.131104 72.889206 201.171097 72.912201 201.210098 72.937195 C 201.478104 73.107193 201.730103 73.298203 201.968094 73.507202 C 202.001099 73.537201 202.033096 73.5672 202.066101 73.597198 C 202.302094 73.814194 202.519104 74.048203 202.717102 74.300201 C 202.740097 74.329193 202.7621 74.360199 202.784103 74.389206 C 202.982101 74.652206 203.162094 74.929199 203.315094 75.222198 C 203.327103 75.244202 203.336105 75.266205 203.347107 75.287201 C 203.504105 75.596207 203.638107 75.918198 203.740097 76.254196 L 203.740097 76.256195 C 203.847107 76.607193 203.922104 76.972198 203.963104 77.347198 L 203.963104 77.347198 C 203.986099 77.562195 204.000107 77.779205 204.000107 78.000198 C 204.000107 79.479202 203.462097 80.832199 202.574097 81.878204 M 232.000092 192.000198 C 226.343094 208.971191 212.000107 216.000198 212.000107 216.000198 C 212.000107 216.000198 184.000107 192.000198 164.000107 192.000198 C 164.000107 192.000198 162.553101 192.722198 160.000107 193.728195 L 160.000107 165.906204 C 171.439102 157.910202 179.769104 145.764191 182.772095 131.6642 C 188.055099 130.407196 192.000107 125.661194 192.000107 120.000198 C 192.000107 114.339203 188.055099 109.592194 182.772095 108.336197 C 181.954102 104.492203 180.737106 100.795197 179.172104 97.285202 C 180.961105 98.963196 183.3591 100.000198 186.000107 100.000198 C 186.687103 100.000198 187.358093 99.930206 188.008102 99.797195 C 188.072098 99.863205 188.1371 99.928207 188.203094 99.992203 C 188.070099 100.641205 188.000107 101.312195 188.000107 102.000198 C 188.000107 107.514206 192.486099 112.000198 198.000107 112.000198 C 203.514099 112.000198 208.000107 107.514206 208.000107 102.000198 C 208.000107 101.312195 207.930099 100.641205 207.797104 99.992203 C 207.863098 99.928207 207.928101 99.863205 207.992096 99.797195 C 208.642105 99.930206 209.312103 100.000198 210.000107 100.000198 C 215.514099 100.000198 220.000107 95.514206 220.000107 90.000198 C 220.000107 84.486206 215.514099 80.000198 210.000107 80.000198 C 209.312103 80.000198 208.642105 80.070206 207.992096 80.202194 C 207.928101 80.137207 207.863098 80.072205 207.797104 80.008194 C 207.930099 79.359207 208.000107 78.687195 208.000107 78.000198 C 208.000107 72.486206 203.514099 68.000198 198.000107 68.000198 C 192.486099 68.000198 188.000107 72.486206 188.000107 78.000198 C 188.000107 78.687195 188.070099 79.359207 188.203094 80.008194 C 188.1371 80.072205 188.072098 80.137207 188.008102 80.202194 C 187.358093 80.070206 186.687103 80.000198 186.000107 80.000198 C 180.486099 80.000198 176.000107 84.486206 176.000107 90.000198 C 176.000107 90.4702 176.044098 90.928207 176.106094 91.380203 C 172.019104 84.542206 166.513092 78.646194 160.000107 74.094193 L 160.000107 48.400208 L 196.000107 52.000198 C 196.000107 52.000198 216.000107 56.000198 224.000092 92.000198 C 224.000092 92.000198 236.000092 140.000198 236.000092 144.000198 C 236.000092 156.000214 236.000092 180.000214 232.000092 192.000198 M 164.000107 112.000198 C 159.582092 112.000198 156.000092 108.418198 156.000092 104.000198 C 156.000092 99.581207 159.582092 96.000198 164.000107 96.000198 C 168.418106 96.000198 172.000107 99.581207 172.000107 104.000198 C 172.000107 108.418198 168.418106 112.000198 164.000107 112.000198 M 180.000107 128.000198 C 179.786102 128.000198 179.577103 127.984207 179.367096 127.968201 L 179.367096 127.968201 C 179.120102 127.949203 178.877106 127.917206 178.6371 127.875198 C 178.622101 127.873199 178.608093 127.871201 178.595093 127.869202 C 178.365097 127.828201 178.140106 127.776199 177.917099 127.716202 C 177.893097 127.710205 177.869095 127.704193 177.8461 127.698196 C 177.633102 127.639206 177.425095 127.569199 177.220093 127.493195 C 177.187103 127.481201 177.154099 127.4702 177.121094 127.457199 C 176.927094 127.382202 176.736099 127.299194 176.549103 127.209198 C 176.508102 127.189194 176.468094 127.170197 176.428101 127.150208 C 176.250107 127.061203 176.078094 126.967194 175.908096 126.865204 C 175.861099 126.837204 175.813095 126.808197 175.768097 126.779205 C 175.607101 126.680206 175.453094 126.575195 175.302094 126.465195 C 175.2491 126.4272 175.197098 126.388199 175.145096 126.348206 C 175.005096 126.240204 174.867096 126.129196 174.733093 126.012207 C 174.677094 125.962204 174.621094 125.910202 174.565094 125.859207 C 174.442093 125.745193 174.322098 125.629196 174.207092 125.507202 C 174.147095 125.445206 174.090103 125.380203 174.032104 125.315201 C 173.928101 125.197205 173.824097 125.078201 173.727097 124.954193 C 173.666092 124.878204 173.6091 124.799194 173.551102 124.7202 C 173.464096 124.600204 173.377106 124.481201 173.296097 124.356201 C 173.236099 124.265198 173.183105 124.172195 173.127106 124.078201 C 173.056107 123.958206 172.983093 123.839203 172.918106 123.715195 C 172.863098 123.610199 172.814102 123.501205 172.764099 123.393204 C 172.708099 123.275208 172.650101 123.158203 172.600098 123.035202 C 172.550095 122.9142 172.509094 122.7892 172.465103 122.665207 C 172.424103 122.551193 172.380096 122.438202 172.345093 122.321198 C 172.303101 122.181198 172.270096 122.038193 172.235092 121.895203 C 172.209106 121.788193 172.179092 121.682205 172.156097 121.574203 C 172.123093 121.408203 172.102097 121.237198 172.079102 121.068207 C 172.067093 120.978195 172.050095 120.889206 172.0401 120.799194 C 172.015106 120.536194 172.000107 120.269196 172.000107 120.000198 C 172.000107 119.730194 172.015106 119.464203 172.0401 119.201202 C 172.050095 119.110199 172.067093 119.022202 172.079102 118.932205 C 172.102097 118.763199 172.123093 118.592194 172.156097 118.426193 C 172.179092 118.3172 172.209106 118.212204 172.235092 118.104202 C 172.270096 117.962204 172.303101 117.818207 172.345093 117.679199 C 172.380096 117.562195 172.424103 117.449203 172.465103 117.334198 C 172.509094 117.210205 172.550095 117.085205 172.600098 116.964203 C 172.650101 116.842194 172.708099 116.725204 172.764099 116.606201 C 172.814102 116.498199 172.863098 116.389206 172.918106 116.284195 C 172.983093 116.160202 173.056107 116.041199 173.127106 115.921204 C 173.183105 115.828201 173.236099 115.734207 173.296097 115.643204 C 173.377106 115.519196 173.464096 115.3992 173.551102 115.280197 C 173.6091 115.201202 173.666092 115.122192 173.727097 115.045197 C 173.824097 114.921204 173.928101 114.803192 174.032104 114.685196 C 174.090103 114.620193 174.147095 114.555206 174.207092 114.493195 C 174.322098 114.371201 174.442093 114.255203 174.565094 114.141205 C 174.621094 114.090195 174.677094 114.038193 174.733093 113.988205 C 174.867096 113.871201 175.005096 113.760193 175.145096 113.651199 C 175.197098 113.612198 175.2491 113.573196 175.302094 113.535202 C 175.453094 113.425201 175.607101 113.320206 175.768097 113.221207 C 175.813095 113.191193 175.861099 113.162201 175.908096 113.135193 C 176.078094 113.033203 176.250107 112.938202 176.428101 112.849197 C 176.468094 112.829193 176.508102 112.810196 176.549103 112.791199 C 176.736099 112.701202 176.927094 112.618195 177.121094 112.542206 C 177.154099 112.530197 177.187103 112.518204 177.220093 112.506195 C 177.425095 112.430206 177.633102 112.361206 177.8461 112.3022 C 177.869095 112.295197 177.893097 112.290207 177.917099 112.284195 C 178.140106 112.223206 178.365097 112.172195 178.595093 112.131195 C 178.608093 112.128204 178.622101 112.127197 178.6371 112.124207 C 178.877106 112.083206 179.120102 112.051193 179.367096 112.032196 L 179.367096 112.032196 C 179.577103 112.015198 179.786102 112.000198 180.000107 112.000198 C 182.052094 112.000198 183.916107 112.779205 185.332108 114.048203 C 185.344101 114.058197 185.355103 114.069199 185.366104 114.079193 C 185.890106 114.554199 186.351105 115.094193 186.733093 115.691193 C 186.756104 115.725204 186.775101 115.762207 186.797104 115.796204 C 186.958099 116.055206 187.102097 116.323196 187.233093 116.599197 C 187.257095 116.6492 187.282104 116.697205 187.305099 116.747192 C 187.442093 117.055206 187.562103 117.372192 187.660095 117.700195 C 187.675095 117.748199 187.685104 117.799194 187.698105 117.847198 C 187.775101 118.124207 187.837097 118.407196 187.885101 118.696198 C 187.899094 118.784195 187.914093 118.873199 187.926102 118.963196 C 187.970093 119.304199 188.000107 119.648193 188.000107 120.000198 C 188.000107 120.352203 187.970093 120.696198 187.926102 121.036194 C 187.914093 121.127197 187.899094 121.215195 187.885101 121.304199 C 187.837097 121.593201 187.775101 121.875198 187.698105 122.152206 C 187.685104 122.201202 187.675095 122.251205 187.660095 122.300201 C 187.562103 122.627197 187.442093 122.944199 187.305099 123.253204 C 187.282104 123.303207 187.257095 123.350204 187.233093 123.400208 C 187.102097 123.6772 186.958099 123.945206 186.797104 124.203201 C 186.775101 124.239197 186.756104 124.2742 186.733093 124.309204 C 186.351105 124.906204 185.890106 125.446198 185.367096 125.920197 C 185.355103 125.931198 185.344101 125.9422 185.332108 125.952194 C 184.794098 126.434204 184.191101 126.844208 183.537094 127.167206 C 182.470093 127.695206 181.271103 128.000198 180.000107 128.000198 M 96.000099 193.728195 L 96.000099 170.004211 C 100.9711 167.930206 105.157097 164.356201 108.000099 159.849213 L 108.000099 166.000214 C 108.000099 167.099213 108.900101 168.000214 110.000099 168.000214 C 111.100098 168.000214 112.000099 167.099213 112.000099 166.000214 L 112.000099 158.000214 C 112.000099 156.901199 111.102104 156.003204 110.004097 156.000214 C 111.288101 152.922211 112.000099 149.544189 112.000099 146.000198 C 112.000099 131.640198 100.3591 120.000198 86.000099 120.000198 C 82.480103 120.000198 79.125099 120.703201 76.064102 121.971207 C 76.039101 121.314194 76.000099 120.662201 76.000099 120.000198 C 76.000099 119.903198 76.006104 119.807205 76.007103 119.710205 C 89.572098 117.765198 100.000099 106.103195 100.000099 92.000198 C 100.000099 87.138199 98.759102 82.5672 96.580101 78.583206 C 97.687103 77.745193 98.828102 76.951202 100.000099 76.199203 L 100.000099 76.000198 L 104.000099 76.000198 L 104.000099 45.685196 C 108.030098 43.653198 112.244102 42.346207 116.000099 41.508194 L 116.000099 56.000198 L 120.000099 56.000198 L 120.000099 40.747208 C 121.496101 40.5112 122.851097 40.347198 124.000099 40.237198 L 124.000099 56.000198 L 128.000092 56.000198 L 128.000092 40.000198 C 128.000092 40.000198 129.532104 40.000198 132.000092 40.237198 L 132.000092 56.000198 L 136.000092 56.000198 L 136.000092 40.747208 C 137.246094 40.944199 138.589096 41.193207 140.000092 41.508194 L 140.000092 56.000198 L 144.000092 56.000198 L 144.000092 42.545197 C 145.390091 42.958206 146.807098 43.441208 148.227097 44.000198 L 148.000092 44.000198 L 148.000092 72.000198 L 152.000092 72.000198 L 152.000092 45.685196 C 153.362091 46.372208 154.705093 47.137207 156.000092 48.000198 L 156.000092 71.534195 L 156.000092 76.000198 L 156.000092 76.1922 C 156.208099 76.326202 156.404099 76.474197 156.610092 76.610199 L 160.000107 80.000198 L 160.000107 79.059204 C 169.163101 86.229202 175.854095 96.391205 178.602097 108.089203 C 177.251099 108.246201 175.973099 108.634201 174.796097 109.203201 C 175.560104 107.627197 176.000107 105.866196 176.000107 104.000198 C 176.000107 97.383194 170.617096 92.000198 164.000107 92.000198 C 157.383102 92.000198 152.000092 97.383194 152.000092 104.000198 C 152.000092 110.617203 157.383102 116.000198 164.000107 116.000198 C 165.866104 116.000198 167.627106 115.559204 169.204102 114.796204 C 168.440094 116.373199 168.000107 118.134201 168.000107 120.000198 C 168.000107 123.647202 169.641098 126.913208 172.217102 129.115204 C 172.082092 129.384201 172.000107 129.681198 172.000107 130.000198 L 172.000107 138.000198 C 172.000107 139.099197 172.900101 140.000198 174.000107 140.000198 C 175.100098 140.000198 176.000107 139.099197 176.000107 138.000198 L 176.000107 131.300201 C 176.830093 131.5952 177.699097 131.805206 178.602097 131.911194 C 175.854095 143.6082 169.163101 153.77121 160.000107 160.941193 L 160.000107 160.000214 L 156.610092 163.389206 C 156.404099 163.525208 156.208099 163.675201 156.000092 163.807205 L 156.000092 164.000214 L 156.000092 168.466202 L 156.000092 195.191193 C 149.420105 197.421204 139.357101 200.000198 128.000092 200.000198 C 113.996101 200.000198 101.962097 196.0802 96.000099 193.728195 M 86.000099 124.000198 C 98.131104 124.000198 108.000099 133.869202 108.000099 146.000198 C 108.000099 158.131195 98.131104 168.000214 86.000099 168.000214 C 73.869102 168.000214 64.000099 158.131195 64.000099 146.000198 C 64.000099 133.869202 73.869102 124.000198 86.000099 124.000198 M 44.000107 216.000198 C 44.000107 216.000198 29.657104 208.971191 24.000107 192.000198 C 20.000107 180.000214 20.000107 160.000214 20.000107 148.000198 C 20.000107 143.605194 32.000107 92.000198 32.000107 92.000198 C 40.000107 56.000198 60.000107 52.000198 60.000107 52.000198 L 92.000099 48.800201 L 92.000099 72.411194 C 86.917099 67.223206 79.837097 64.000198 72.000099 64.000198 C 56.536102 64.000198 44.000107 76.536194 44.000107 92.000198 C 44.000107 107.464203 56.536102 120.000198 72.000099 120.000198 C 72.000099 121.346207 72.050102 122.681198 72.144104 124.004196 C 72.144104 124.004196 72.144104 124.004196 72.144104 124.003204 C 64.850098 128.6082 60.000107 136.735199 60.000107 146.000198 C 60.000107 160.359192 71.641098 172.000214 86.000099 172.000214 C 88.066101 172.000214 90.073097 171.752197 92.000099 171.296204 L 92.000099 192.000198 C 72.000099 192.000198 44.000107 216.000198 44.000107 216.000198 M 76.160103 115.632202 C 75.516098 115.744202 74.863098 115.834198 74.203102 115.894196 C 74.202103 115.895203 74.201103 115.895203 74.201103 115.895203 C 73.528099 115.957199 72.847099 115.992203 72.159103 115.996201 C 72.106102 115.996201 72.053101 116.000198 72.000099 116.000198 C 58.767105 116.000198 48.000107 105.2332 48.000107 92.000198 C 48.000107 78.766205 58.767105 68.000198 72.000099 68.000198 C 80.053101 68.000198 87.187103 71.991196 91.543098 78.096207 C 91.785103 78.435196 92.019104 78.780197 92.243103 79.132202 C 92.328102 79.264206 92.4161 79.395203 92.4981 79.529205 C 92.787102 80.005203 93.058098 80.493195 93.314102 80.990204 C 95.0261 84.290207 96.000099 88.032196 96.000099 92.000198 C 96.000099 103.814194 87.4161 113.655197 76.160103 115.632202 M 100.000099 48.000198 L 100.000099 71.544205 C 98.628098 72.342194 97.297104 73.201202 96.000099 74.106201 L 96.000099 48.400208 Z M 227.894104 91.0802 C 219.418106 53.019196 197.705093 48.262207 196.784103 48.077194 L 196.593094 48.0392 L 196.398102 48.020203 L 157.361099 44.116196 C 150.153091 39.574203 141.916092 37.574203 136.000092 36.693207 L 136.000092 36.000198 L 132.000092 36.000198 L 132.000092 36.216202 C 129.686096 36.009201 128.199097 36.000198 128.000092 36.000198 L 124.000099 36.000198 L 124.000099 36.216202 C 118.333099 36.722198 107.678101 38.420197 98.6381 44.116196 L 59.602097 48.020203 L 59.407104 48.0392 L 59.215103 48.077194 C 58.294098 48.262207 36.563095 53.027206 28.095108 91.132202 C 25.265106 103.305206 16.000107 143.496201 16.000107 148.000198 C 16.000107 160.211212 16.000107 180.6492 20.205093 193.264206 C 26.322098 211.614197 41.593094 219.2742 42.240097 219.592209 L 44.604095 220.751205 L 46.603104 219.037201 C 46.867096 218.810196 72.8881 196.707199 91.136101 196.016205 C 94.9431 197.764206 109.808098 204.000198 128.000092 204.000198 C 146.192093 204.000198 161.057098 197.764206 164.864105 196.016205 C 183.141098 196.707199 209.132095 218.810196 209.396103 219.037201 L 211.396103 220.751205 L 213.761093 219.592209 C 214.407104 219.2742 229.679092 211.614197 235.795105 193.264206 C 240.000092 180.6492 240.000092 156.808197 240.000092 144.000198 C 240.000092 139.838196 230.751099 102.512207 227.894104 91.0802"/>
    <path id="path1" fill="#ffffff" stroke="none" d="M 112 120 C 112 111.177994 119.178001 104 128 104 C 136.822006 104 144 111.177994 144 120 C 144 128.821991 136.822006 136 128 136 C 119.178001 136 112 128.821991 112 120 M 148 120 C 148 108.953995 139.046005 100 128 100 C 116.954002 100 108 108.953995 108 120 C 108 131.04599 116.954002 140 128 140 C 139.046005 140 148 131.04599 148 120"/>
    <path id="path2" fill="#ffffff" stroke="none" d="M 72 100 C 67.588997 100 64 96.410995 64 92 C 64 87.589005 67.588997 84 72 84 C 76.411003 84 80 87.589005 80 92 C 80 96.410995 76.411003 100 72 100 M 72 80 C 65.373001 80 60 85.373001 60 92 C 60 98.626999 65.373001 104 72 104 C 78.626999 104 84 98.626999 84 92 C 84 85.373001 78.626999 80 72 80"/>
    <path id="path3" fill="#ffffff" stroke="none" d="M 54 90 C 52.896 90 52 90.895996 52 92 C 52 93.104004 52.896 94 54 94 C 55.104 94 56 93.104004 56 92 C 56 90.895996 55.104 90 54 90"/>
    <path id="path4" fill="#ffffff" stroke="none" d="M 57.857899 103.313507 C 57.0769 104.094498 57.0769 105.361496 57.857899 106.142502 C 58.638901 106.923492 59.9049 106.923492 60.686901 106.142502 C 61.4669 105.361496 61.4669 104.094498 60.686901 103.313507 C 59.9049 102.532501 58.638901 102.532501 57.857899 103.313507"/>
    <path id="path5" fill="#ffffff" stroke="none" d="M 60.686501 80.686493 C 61.467499 79.905502 61.467499 78.638504 60.686501 77.857498 C 59.905499 77.076508 58.6385 77.076508 57.857498 77.857498 C 57.0765 78.638504 57.0765 79.905502 57.857498 80.686493 C 58.6385 81.467499 59.905499 81.467499 60.686501 80.686493"/>
    <path id="path6" fill="#ffffff" stroke="none" d="M 72 108 C 70.896004 108 70 108.895996 70 110 C 70 111.104004 70.896004 112 72 112 C 73.103996 112 74 111.104004 74 110 C 74 108.895996 73.103996 108 72 108"/>
    <path id="path7" fill="#ffffff" stroke="none" d="M 106 188 C 104.896004 188 104 188.895996 104 190 C 104 191.104004 104.896004 192 106 192 C 107.103996 192 108 191.104004 108 190 C 108 188.895996 107.103996 188 106 188"/>
    <path id="path8" fill="#ffffff" stroke="none" d="M 158 160 C 159.100006 160 160 159.100006 160 158 L 160 118 C 160 116.899994 159.100006 116 158 116 C 156.899994 116 156 116.899994 156 118 L 156 158 C 156 159.100006 156.899994 160 158 160"/>
    <path id="path9" fill="#ffffff" stroke="none" d="M 166 92 C 167.100006 92 168 91.100006 168 90 C 168 88.899994 167.100006 88 166 88 C 164.899994 88 164 88.899994 164 90 C 164 91.100006 164.899994 92 166 92"/>
    <path id="path10" fill="#ffffff" stroke="none" d="M 83.313499 103.313507 C 82.532501 104.094498 82.532501 105.361496 83.313499 106.142502 C 84.094498 106.923492 85.361504 106.923492 86.142502 106.142502 C 86.9235 105.361496 86.9235 104.094498 86.142502 103.313507 C 85.361504 102.532501 84.094498 102.532501 83.313499 103.313507"/>
    <path id="path11" fill="#ffffff" stroke="none" d="M 118 64 C 119.103996 64 120 63.104004 120 62 C 120 60.895996 119.103996 60 118 60 C 116.896004 60 116 60.895996 116 62 C 116 63.104004 116.896004 64 118 64"/>
    <path id="path12" fill="#ffffff" stroke="none" d="M 102 80 C 100.900002 80 100 80.899994 100 82 L 100 86 C 100 87.100006 100.900002 88 102 88 C 103.099998 88 104 87.100006 104 86 L 104 82 C 104 80.899994 103.099998 80 102 80"/>
    <path id="path13" fill="#ffffff" stroke="none" d="M 102 96 C 100.900002 96 100 96.899994 100 98 L 100 122 C 100 123.100006 100.900002 124 102 124 C 103.099998 124 104 123.100006 104 122 L 104 98 C 104 96.899994 103.099998 96 102 96"/>
    <path id="path14" fill="#ffffff" stroke="none" d="M 72 76 C 73.103996 76 74 75.104004 74 74 C 74 72.895996 73.103996 72 72 72 C 70.896004 72 70 72.895996 70 74 C 70 75.104004 70.896004 76 72 76"/>
    <path id="path15" fill="#ffffff" stroke="none" d="M 158 92 C 159.100006 92 160 91.100006 160 90 L 160 82 C 160 80.899994 159.100006 80 158 80 C 156.899994 80 156 80.899994 156 82 L 156 90 C 156 91.100006 156.899994 92 158 92"/>
    <path id="path16" fill="#ffffff" stroke="none" d="M 92 92 C 92 90.895996 91.103996 90 90 90 C 88.895996 90 88 90.895996 88 92 C 88 93.104004 88.895996 94 90 94 C 91.103996 94 92 93.104004 92 92"/>
    <path id="path17" fill="#ffffff" stroke="none" d="M 83.313499 77.857895 C 82.532501 78.638901 82.532501 79.904907 83.313499 80.686905 C 84.094498 81.466904 85.361504 81.466904 86.142502 80.686905 C 86.9235 79.904907 86.9235 78.638901 86.142502 77.857895 C 85.361504 77.076904 84.094498 77.076904 83.313499 77.857895"/>
    <path id="path18" fill="#ffffff" stroke="none" d="M 94 112 C 92.900002 112 92 112.899994 92 114 L 92 118 C 92 119.100006 92.900002 120 94 120 C 95.099998 120 96 119.100006 96 118 L 96 114 C 96 112.899994 95.099998 112 94 112"/>
    <path id="path19" fill="#ffffff" stroke="none" d="M 130 80 C 133.313004 80 136 82.686996 136 86 C 136 86.207001 135.988998 86.412003 135.968994 86.613007 C 135.824997 88.024994 135.192001 89.291992 134.242004 90.242996 C 133.156998 91.328995 131.656998 92 130 92 C 128.343002 92 126.843002 91.328995 125.757004 90.242996 C 124.806999 89.291992 124.173996 88.024994 124.030998 86.613007 C 124.011002 86.412003 124 86.207001 124 86 C 124 82.686996 126.686996 80 130 80 M 124 70 C 124 66.686996 126.686996 64 130 64 C 133.313004 64 136 66.686996 136 70 C 136 70.207001 135.988998 70.412003 135.968994 70.613007 C 135.824997 72.024994 135.192001 73.291992 134.242004 74.242996 C 133.156998 75.328995 131.656998 76 130 76 C 128.343002 76 126.843002 75.328995 125.757004 74.242996 C 124.806999 73.291992 124.173996 72.024994 124.030998 70.613007 C 124.011002 70.412003 124 70.207001 124 70 M 124.001999 93.981995 C 124.001999 93.988007 124 93.994003 124 94 L 124 98 C 124 99.100006 124.900002 100 126 100 C 127.099998 100 128 99.100006 128 98 L 128 95.798004 C 128.645996 95.929993 129.315002 96 130 96 C 130.684998 96 131.354004 95.929993 132 95.798004 L 132 98 C 132 99.100006 132.899994 100 134 100 C 135.100006 100 136 99.100006 136 98 L 136 94 C 136 93.994003 135.998001 93.988007 135.998001 93.981995 C 138.423004 92.156006 140 89.261993 140 86 C 140 82.727005 138.412003 79.824997 135.975006 78 C 138.412003 76.175003 140 73.272995 140 70 C 140 64.485992 135.514008 60 130 60 C 124.486 60 120 64.485992 120 70 C 120 73.272995 121.586998 76.175003 124.025002 78 C 121.586998 79.824997 120 82.727005 120 86 C 120 89.261993 121.576996 92.156006 124.001999 93.981995"/>
    <path id="path20" fill="#ffffff" stroke="none" d="M 150 188 C 148.895996 188 148 188.895996 148 190 C 148 191.104004 148.895996 192 150 192 C 151.104004 192 152 191.104004 152 190 C 152 188.895996 151.104004 188 150 188"/>
    <path id="path21" fill="#ffffff" stroke="none" d="M 142 104 C 143.100006 104 144 103.100006 144 102 L 144 74 C 144 72.899994 143.100006 72 142 72 C 140.899994 72 140 72.899994 140 74 L 140 86 L 140 102 C 140 103.100006 140.899994 104 142 104"/>
    <path id="path22" fill="#ffffff" stroke="none" d="M 142 136 C 140.899994 136 140 136.899994 140 138 L 140 166 C 140 167.100006 140.899994 168 142 168 C 143.100006 168 144 167.100006 144 166 L 144 138 C 144 136.899994 143.100006 136 142 136"/>
    <path id="path23" fill="#ffffff" stroke="none" d="M 118 100.444305 C 119.099998 100.444305 120 99.544296 120 98.444305 L 120 86.000305 L 120 74.000305 C 120 72.900299 119.099998 72.000305 118 72.000305 C 116.900002 72.000305 116 72.900299 116 74.000305 L 116 98.444305 C 116 99.544296 116.900002 100.444305 118 100.444305"/>
    <path id="path24" fill="#ffffff" stroke="none" d="M 150 76 C 148.899994 76 148 76.899994 148 78 L 148 110 C 148 111.100006 148.899994 112 150 112 C 151.100006 112 152 111.100006 152 110 L 152 104 L 152 78 C 152 76.899994 151.100006 76 150 76"/>
    <path id="path25" fill="#ffffff" stroke="none" d="M 150 128 C 148.899994 128 148 128.899994 148 130 L 148 162 C 148 163.100006 148.899994 164 150 164 C 151.100006 164 152 163.100006 152 162 L 152 130 C 152 128.899994 151.100006 128 150 128"/>
    <path id="path26" fill="#ffffff" stroke="none" d="M 166 116 C 164.899994 116 164 116.899994 164 118 L 164 150.666992 C 164 151.766998 164.899994 152.666992 166 152.666992 C 167.100006 152.666992 168 151.766998 168 150.666992 L 168 120 L 168 118 C 168 116.899994 167.100006 116 166 116"/>
    <path id="path27" fill="#ffffff" stroke="none" d="M 142 64 C 143.104004 64 144 63.104004 144 62 C 144 60.895996 143.104004 60 142 60 C 140.895996 60 140 60.895996 140 62 C 140 63.104004 140.895996 64 142 64"/>
    <path id="path28" fill="#ffffff" stroke="none" d="M 110 108 C 111.099998 108 112 107.100006 112 106 L 112 78 C 112 76.899994 111.099998 76 110 76 C 108.900002 76 108 76.899994 108 78 L 108 106 C 108 107.100006 108.900002 108 110 108"/>
    <path id="path29" fill="#ffffff" stroke="none" d="M 74 152 C 70.686996 152 68 149.313004 68 146 C 68 142.686996 70.686996 140 74 140 C 77.313004 140 80 142.686996 80 146 C 80 149.313004 77.313004 152 74 152 M 86 128 C 89.313004 128 92 130.686996 92 134 C 92 137.313004 89.313004 140 86 140 C 82.686996 140 80 137.313004 80 134 C 80 130.686996 82.686996 128 86 128 M 98 140 C 101.313004 140 104 142.686996 104 146 C 104 149.313004 101.313004 152 98 152 C 94.686996 152 92 149.313004 92 146 C 92 142.686996 94.686996 140 98 140 M 86 164 C 82.686996 164 80 161.313004 80 158 C 80 154.686996 82.686996 152 86 152 C 89.313004 152 92 154.686996 92 158 C 92 161.313004 89.313004 164 86 164 M 76 134 L 76 136 L 74 136 C 68.486 136 64 140.485992 64 146 C 64 151.514008 68.486 156 74 156 L 76 156 L 76 158 C 76 163.514008 80.486 168 86 168 C 91.514 168 96 163.514008 96 158 L 96 156 L 98 156 C 103.514 156 108 151.514008 108 146 C 108 140.485992 103.514 136 98 136 L 96 136 L 96 134 C 96 128.485992 91.514 124 86 124 C 80.486 124 76 128.485992 76 134"/>
    <path id="path30" fill="#ffffff" stroke="none" d="M 118 140 C 116.900002 140 116 140.899994 116 142 L 116 170 C 116 171.100006 116.900002 172 118 172 C 119.099998 172 120 171.100006 120 170 L 120 142 C 120 140.899994 119.099998 140 118 140"/>
    <path id="path31" fill="#ffffff" stroke="none" d="M 128 170 L 128 146 C 128 144.899994 127.099998 144 126 144 C 124.900002 144 124 144.899994 124 146 L 124 170 C 124 171.100006 124.900002 172 126 172 C 127.099998 172 128 171.100006 128 170"/>
    <path id="path32" fill="#ffffff" stroke="none" d="M 134 140 C 132.899994 140 132 140.899994 132 142 L 132 170 C 132 171.100006 132.899994 172 134 172 C 135.100006 172 136 171.100006 136 170 L 136 142 C 136 140.899994 135.100006 140 134 140"/>
    <path id="path33" fill="#ffffff" stroke="none" d="M 128 192 C 126.896004 192 126 192.895996 126 194 C 126 195.104004 126.896004 196 128 196 C 129.104004 196 130 195.104004 130 194 C 130 192.895996 129.104004 192 128 192"/>
    <path id="path34" fill="#ffffff" stroke="none" d="M 112 44 L 108 44 L 108 72 L 112 72 Z"/>
</svg>
