<?xml version="1.0" encoding="UTF-8"?>
<!-- Generated by Pixelmator Pro 3.7.1 -->
<svg width="256" height="256" viewBox="0 0 256 256" xmlns="http://www.w3.org/2000/svg">
    <path id="Path" fill="#ffffff" stroke="none" d="M 80 24 L 176 24 L 176 96 L 80 96 Z M 180 96 L 180 24 C 180 21.791 178.209 20 176 20 L 80 20 C 77.791 20 76 21.791 76 24 L 76 96 C 76 98.209 77.791 100 80 100 L 176 100 C 178.209 100 180 98.209 180 96"/>
    <path id="path1" fill="#ffffff" stroke="none" d="M 184 152.4785 C 183.375 151.426498 182.733994 150.392502 182.078995 149.375504 C 182.733994 150.39151 183.375 151.426498 184 152.4785 M 156.003006 123.7155 C 156.656998 124.093506 157.304993 124.487503 157.947998 124.890503 C 157.304993 124.485504 156.656998 124.093506 156.003006 123.7155 M 99.997002 123.7155 C 99.343002 124.093506 98.694 124.486496 98.050003 124.890503 C 98.695 124.487503 99.343002 124.093506 99.997002 123.7155 M 72 152.4785 C 72.625999 151.425507 73.265999 150.390503 73.921997 149.374496 C 73.266998 150.39151 72.625999 151.425507 72 152.4785 M 200 223.999512 C 200 226.0905 194.865997 230.551498 180.723007 234.273499 C 166.690002 237.966492 147.966995 239.999512 128 239.999512 C 108.032997 239.999512 89.309998 237.966492 75.278 234.273499 C 61.134003 230.551498 56 226.0905 56 223.999512 L 56 213.999496 C 56 194.058502 60.402 175.494507 67.947998 159.999496 L 68 159.999496 L 68 159.892502 C 69.25 157.333496 70.584 154.861511 72 152.4785 L 72 220.348511 C 69.670998 221.172501 68 223.388504 68 225.999512 C 68 229.313507 70.686996 231.999512 74 231.999512 C 77.313004 231.999512 80 229.313507 80 225.999512 C 80 223.388504 78.329002 221.172501 76 220.348511 L 76 146.286499 C 75.319 147.25351 74.654999 148.2435 74.003998 149.249496 C 77.564003 143.754501 81.569 138.806503 85.941002 134.508499 C 85.286003 135.153503 84.639 135.811493 84 136.485504 L 84 205.999496 C 84 207.104492 84.896004 207.999496 86 207.999496 C 87.103996 207.999496 88 207.104492 88 205.999496 L 88 132.555496 C 87.321999 133.173492 86.653 133.808502 85.991997 134.457489 C 89.700996 130.819489 93.671997 127.649506 97.861 125.011505 C 97.236 125.406494 96.614998 125.811493 96 126.2285 L 96 224.348511 C 93.670998 225.172501 92 227.388504 92 229.999512 C 92 233.313507 94.686996 235.999512 98 235.999512 C 101.313004 235.999512 104 233.313507 104 229.999512 C 104 227.388504 102.329002 225.172501 100 224.348511 L 100 123.714493 C 102.593002 122.218506 105.264 120.929504 108 119.850494 L 108 209.999496 C 108 211.104492 108.896004 211.999496 110 211.999496 C 111.103996 211.999496 112 211.104492 112 209.999496 L 112 118.442505 C 110.652 118.860504 109.319 119.330505 108.000999 119.850494 C 111.876999 118.322495 115.887001 117.229492 120 116.608505 L 120 217.999512 C 120 219.104492 120.895996 219.999512 122 219.999512 C 123.104004 219.999512 124 219.104492 124 217.999512 L 124 116.153503 C 125.324997 116.054504 126.658005 115.999496 128 115.999496 C 129.343002 115.999496 130.675995 116.054504 132 116.153503 L 132 217.999512 C 132 219.104492 132.895996 219.999512 134 219.999512 C 135.104004 219.999512 136 219.104492 136 217.999512 L 136 116.608505 C 140.113007 117.229492 144.123001 118.322495 147.998993 119.850494 C 146.681 119.330505 145.347992 118.860504 144 118.442505 L 144 209.999496 C 144 211.104492 144.895996 211.999496 146 211.999496 C 147.104004 211.999496 148 211.104492 148 209.999496 L 148 119.850494 C 150.735992 120.929504 153.406998 122.218506 156 123.714493 L 156 224.348511 C 153.671005 225.172501 152 227.388504 152 229.999512 C 152 233.313507 154.686996 235.999512 158 235.999512 C 161.313004 235.999512 164 233.313507 164 229.999512 C 164 227.388504 162.328995 225.172501 160 224.348511 L 160 126.2285 C 159.384995 125.811493 158.766006 125.407501 158.141998 125.012497 C 162.328995 127.651505 166.300003 130.819489 170.007996 134.457489 C 169.347 133.808502 168.677994 133.173492 168 132.555496 L 168 205.999496 C 168 207.104492 168.895996 207.999496 170 207.999496 C 171.104004 207.999496 172 207.104492 172 205.999496 L 172 136.485504 C 171.360992 135.811493 170.714005 135.153503 170.059006 134.508499 C 174.431 138.805496 178.434006 143.752502 181.994003 149.247498 C 181.343994 148.242493 180.679993 147.25351 180 146.286499 L 180 220.348511 C 177.671005 221.172501 176 223.388504 176 225.999512 C 176 229.313507 178.686996 231.999512 182 231.999512 C 185.313004 231.999512 188 229.313507 188 225.999512 C 188 223.388504 186.328995 221.172501 184 220.348511 L 184 152.4785 C 185.414993 154.861511 186.751007 157.333496 188 159.892502 L 188 159.999496 L 188.052002 159.999496 C 195.597992 175.494507 200 194.058502 200 213.999496 Z M 76 225.999512 C 76 227.102509 75.102997 227.999512 74 227.999512 C 72.897003 227.999512 72 227.102509 72 225.999512 C 72 224.897491 72.897003 223.999512 74 223.999512 C 75.102997 223.999512 76 224.897491 76 225.999512 M 100 229.999512 C 100 231.102509 99.102997 231.999512 98 231.999512 C 96.897003 231.999512 96 231.102509 96 229.999512 C 96 228.897491 96.897003 227.999512 98 227.999512 C 99.102997 227.999512 100 228.897491 100 229.999512 M 121.962997 116.347504 C 121.306999 116.422501 120.652 116.509491 120 116.607498 C 120.652 116.509491 121.306999 116.421494 121.962997 116.347504 M 124 116.153503 C 123.332001 116.203491 122.667 116.267502 122.005005 116.342499 C 122.667 116.267502 123.332001 116.203491 124 116.153503 M 133.994995 116.342499 C 133.333008 116.267502 132.667999 116.203491 132.001007 116.153503 C 132.667999 116.203491 133.333008 116.267502 133.994995 116.342499 M 135.998993 116.607498 C 135.347992 116.509491 134.692993 116.422501 134.037003 116.347504 C 134.692993 116.421494 135.347992 116.509491 135.998993 116.607498 M 160 229.999512 C 160 231.102509 159.102997 231.999512 158 231.999512 C 156.897003 231.999512 156 231.102509 156 229.999512 C 156 228.897491 156.897003 227.999512 158 227.999512 C 159.102997 227.999512 160 228.897491 160 229.999512 M 184 225.999512 C 184 227.102509 183.102997 227.999512 182 227.999512 C 180.897003 227.999512 180 227.102509 180 225.999512 C 180 224.897491 180.897003 223.999512 182 223.999512 C 183.102997 223.999512 184 224.897491 184 225.999512 M 68 15.999496 L 188 15.999496 L 188 151.393494 C 174.093994 127.421494 152.389999 111.999496 128 111.999496 C 103.610001 111.999496 81.905998 127.421494 68 151.393494 Z M 192 158.968506 L 192 11.999496 L 64 11.999496 L 64 158.968506 C 56.404999 174.844498 52 193.731506 52 213.999496 L 52 223.999512 C 52 235.045502 86.026001 243.999512 128 243.999512 C 169.973999 243.999512 204 235.045502 204 223.999512 L 204 213.999496 C 204 193.731506 199.595001 174.844498 192 158.968506"/>
    <path id="path2" fill="#ffffff" stroke="none" d="M 68 194 C 68 192.895996 67.103996 192 66 192 C 64.895996 192 64 192.895996 64 194 L 64 202 C 64 203.104004 64.895996 204 66 204 C 67.103996 204 68 203.104004 68 202 Z"/>
    <path id="path3" fill="#ffffff" stroke="none" d="M 188 194 L 188 202 C 188 203.104004 188.895996 204 190 204 C 191.104004 204 192 203.104004 192 202 L 192 194 C 192 192.895996 191.104004 192 190 192 C 188.895996 192 188 192.895996 188 194"/>
</svg>
