<?xml version="1.0" encoding="UTF-8"?>
<!-- Generated by Pixelmator Pro 3.7.1 -->
<svg width="256" height="256" viewBox="0 0 256 256" xmlns="http://www.w3.org/2000/svg">
    <path id="Path" fill="#ffffff" stroke="none" d="M 156 132 L 148 132 L 148 140 L 156 140 Z"/>
    <path id="path1" fill="#ffffff" stroke="none" d="M 140 116 L 140 108 L 132 108 L 132 116 L 132 124 L 140 124 Z"/>
    <path id="path2" fill="#ffffff" stroke="none" d="M 156 116 L 156 108 L 148 108 L 148 116 L 148 124 L 156 124 Z"/>
    <path id="path3" fill="#ffffff" stroke="none" d="M 208 188 L 200 188 L 196 188 L 188 188 L 184 188 L 176 188 L 176 180 L 176 176 L 172 176 L 168 176 L 168 172 L 168 168 L 164 168 L 160 168 L 160 164 L 160 156 L 160 152 L 164 152 L 172 152 L 176 152 L 176 148 L 176 144 L 180 144 L 184 144 L 184 140 L 184 132 L 184 124 L 184 120 L 180 120 L 176 120 L 176 116 L 176 108 L 176 104 L 172 104 L 168 104 L 168 100 L 168 96 L 164 96 L 160 96 L 160 92 L 160 88 L 164 88 L 172 88 L 180 88 L 184 88 L 184 84 L 184 76 L 184 72 L 180 72 L 176 72 L 176 68 L 176 64 L 172 64 L 164 64 L 156 64 L 148 64 L 144 64 L 144 68 L 144 72 L 140 72 L 136 72 L 136 76 L 136 80 L 132 80 L 128 80 L 128 76 L 128 72 L 124 72 L 120 72 L 120 68 L 120 64 L 116 64 L 108 64 L 100 64 L 92 64 L 88 64 L 88 68 L 88 72 L 84 72 L 80 72 L 80 76 L 80 84 L 80 92 L 80 96 L 84 96 L 92 96 L 100 96 L 104 96 L 104 100 L 104 104 L 100 104 L 96 104 L 96 108 L 96 116 L 96 124 L 96 132 L 96 140 L 96 144 L 92 144 L 84 144 L 80 144 L 80 148 L 80 152 L 76 152 L 72 152 L 72 156 L 72 164 L 72 168 L 76 168 L 80 168 L 80 172 L 80 176 L 80 180 L 80 188 L 68 188 L 64 188 L 56 188 L 52 188 L 48 188 L 48 48 L 208 48 Z M 188 192 L 196 192 L 196 200 L 188 200 Z M 120 192 L 124 192 L 128 192 L 128 200 L 120 200 Z M 156 156 L 156 164 L 148 164 L 140 164 L 140 156 L 140 148 L 148 148 L 156 148 Z M 92 156 L 92 172 L 84 172 L 84 164 L 76 164 L 76 156 L 84 156 L 84 148 L 92 148 L 100 148 L 108 148 L 108 140 L 100 140 L 100 132 L 100 124 L 100 116 L 100 108 L 108 108 L 108 100 L 116 100 L 116 92 L 108 92 L 100 92 L 92 92 L 84 92 L 84 84 L 84 76 L 92 76 L 92 68 L 100 68 L 108 68 L 116 68 L 116 76 L 124 76 L 124 84 L 132 84 L 132 92 L 132 100 L 140 100 L 140 92 L 140 84 L 140 76 L 148 76 L 148 68 L 156 68 L 164 68 L 172 68 L 172 76 L 180 76 L 180 84 L 172 84 L 164 84 L 156 84 L 156 92 L 156 100 L 164 100 L 164 108 L 172 108 L 172 116 L 172 124 L 180 124 L 180 132 L 180 140 L 172 140 L 172 148 L 164 148 L 160 148 L 160 144 L 156 144 L 148 144 L 140 144 L 136 144 L 136 148 L 136 156 L 136 164 L 136 168 L 140 168 L 148 168 L 148 172 L 156 172 L 164 172 L 164 180 L 172 180 L 172 188 L 164 188 L 156 188 L 148 188 L 140 188 L 132 188 L 128 188 L 124 188 L 120 188 L 116 188 L 108 188 L 100 188 L 92 188 L 84 188 L 84 180 L 92 180 L 100 180 L 100 156 Z M 56 192 L 64 192 L 64 200 L 56 200 Z M 208 208 L 172 208 L 172 200 L 172 196 L 168 196 L 160 196 L 156 196 L 156 200 L 156 208 L 96 208 L 96 200 L 96 196 L 92 196 L 84 196 L 80 196 L 80 200 L 80 208 L 48 208 L 48 192 L 52 192 L 52 200 L 52 204 L 56 204 L 64 204 L 68 204 L 68 200 L 68 192 L 80 192 L 84 192 L 92 192 L 100 192 L 108 192 L 116 192 L 116 200 L 116 204 L 120 204 L 128 204 L 132 204 L 132 200 L 132 192 L 140 192 L 148 192 L 156 192 L 164 192 L 172 192 L 176 192 L 184 192 L 184 200 L 184 204 L 188 204 L 196 204 L 200 204 L 200 200 L 200 192 L 208 192 Z M 160 200 L 168 200 L 168 208 L 160 208 Z M 84 200 L 92 200 L 92 208 L 84 208 Z M 208 44 L 48 44 L 44 44 L 44 48 L 44 208 L 44 212 L 48 212 L 80 212 L 84 212 L 92 212 L 96 212 L 156 212 L 160 212 L 168 212 L 172 212 L 208 212 L 212 212 L 212 208 L 212 48 L 212 44 Z"/>
</svg>
