<?xml version="1.0" encoding="UTF-8"?>
<!-- Generated by Pixelmator Pro 3.7.1 -->
<svg width="256" height="256" viewBox="0 0 256 256" xmlns="http://www.w3.org/2000/svg">
    <path id="Path" fill="#ffffff" stroke="none" d="M 96 136 L 112 136 L 112 152 L 96 152 Z M 72 88 L 79.713997 88 L 79.713997 80 L 88 80 L 88 72 L 96 72 L 104 72 L 104 80 L 112 80 L 112 88 L 120 88 L 136 88 L 136 80 L 144 80 L 144 72 L 168 72 L 176 72 L 176 80 L 184 80 L 184 88 L 176 88 L 176 96 L 160 96 L 160 88 L 144 88 L 144 96 L 152 96 L 152 104 L 160 104 L 160 120 L 160 136 L 160 144 L 168 144 L 176 144 L 176 152 L 168 152 L 168 160 L 160 160 L 160 168 L 168 168 L 176 168 L 176 176 L 184 176 L 184 184 L 176 184 L 168 184 L 152 184 L 144 184 L 136 184 L 136 176 L 128 176 L 128 168 L 120 168 L 120 160 L 112 160 L 104 160 L 96 160 L 96 156 L 112 156 L 116 156 L 116 152 L 116 136 L 116 132 L 112 132 L 96 132 L 92 132 L 92 136 L 84 136 L 84 128 L 80 128 L 80 112 L 88 112 L 88 104 L 96 104 L 96 96 L 104 96 L 104 88 L 88 88 L 88 96 L 72 96 Z M 84 100 L 84 104 L 84 108 L 80 108 L 76 108 L 76 112 L 76 128 L 76 132 L 80 132 L 80 136 L 80 140 L 84 140 L 92 140 L 92 152 L 92 156 L 92 160 L 92 164 L 96 164 L 104 164 L 112 164 L 116 164 L 116 168 L 116 172 L 120 172 L 124 172 L 124 176 L 124 180 L 128 180 L 132 180 L 132 184 L 132 188 L 136 188 L 144 188 L 152 188 L 168 188 L 176 188 L 184 188 L 188 188 L 188 184 L 188 176 L 188 172 L 184 172 L 180 172 L 180 168 L 180 164 L 176 164 L 172 164 L 172 160 L 172 156 L 176 156 L 180 156 L 180 152 L 180 144 L 180 140 L 176 140 L 168 140 L 164 140 L 164 136 L 164 120 L 164 104 L 164 100 L 176 100 L 180 100 L 180 96 L 180 92 L 184 92 L 188 92 L 188 88 L 188 80 L 188 76 L 184 76 L 180 76 L 180 72 L 180 68 L 176 68 L 168 68 L 144 68 L 140 68 L 140 72 L 140 76 L 136 76 L 132 76 L 132 80 L 132 84 L 120 84 L 116 84 L 116 80 L 116 76 L 112 76 L 108 76 L 108 72 L 108 68 L 104 68 L 96 68 L 88 68 L 84 68 L 84 72 L 84 76 L 79.713997 76 L 75.713997 76 L 75.713997 80 L 75.713997 84 L 72 84 L 68 84 L 68 88 L 68 96 L 68 100 L 72 100 Z"/>
    <path id="path1" fill="#ffffff" stroke="none" d="M 240.132996 240.132996 L 15.866 240.132996 L 15.866 15.865997 L 240.132996 15.865997 Z M 240.132996 12 L 15.867 12 L 12 12 L 12 15.867004 L 12 240.132996 L 12 244 L 15.867 244 L 240.132996 244 L 244 244 L 244 240.132996 L 244 15.867004 L 244 12 Z"/>
    <path id="path2" fill="#ffffff" stroke="none" d="M 128 96 L 120 96 L 120 112 L 128 112 Z"/>
    <path id="path3" fill="#ffffff" stroke="none" d="M 112 96 L 104 96 L 104 112 L 112 112 Z"/>
    <path id="path4" fill="#ffffff" stroke="none" d="M 104 128 L 112 128 L 112 120 L 104 120 Z"/>
</svg>
