<?xml version="1.0" encoding="UTF-8"?>
<!-- Generated by Pixelmator Pro 3.7.1 -->
<svg width="256" height="256" viewBox="0 0 256 256" xmlns="http://www.w3.org/2000/svg">
    <path id="Path" fill="#ffffff" stroke="none" d="M 216 236 L 40 236 L 40 20 L 216 20 Z M 218 16 L 38 16 C 36.896 16 36 16.895996 36 18 L 36 238 C 36 239.104004 36.896 240 38 240 L 218 240 C 219.104004 240 220 239.104004 220 238 L 220 18 C 220 16.895996 219.104004 16 218 16"/>
    <path id="path1" fill="#ffffff" stroke="none" d="M 208 184 L 48 184 L 48 168 L 208 168 Z M 48.136002 48.136002 L 207.865005 48.136002 L 207.865005 163.86499 L 48.136002 163.86499 Z M 48 28 L 208 28 L 208 44 L 48 44 Z M 45.953999 188 L 210.046005 188 C 211.125 188 212 187.125 212 186.04599 L 212 168 L 212 164 L 212 48 L 212 44 L 212 25.953995 C 212 24.875 211.125 24 210.046005 24 L 45.953999 24 C 44.875 24 44 24.875 44 25.953995 L 44 44 L 44 48 L 44 164 L 44 168 L 44 186.04599 C 44 187.125 44.875 188 45.953999 188"/>
</svg>
