<?xml version="1.0" encoding="UTF-8"?>
<!-- Generated by Pixelmator Pro 3.7.1 -->
<svg width="256" height="256" viewBox="0 0 256 256" xmlns="http://www.w3.org/2000/svg">
    <path id="Path" fill="#ffffff" stroke="none" d="M 140.111298 32 L 140.000305 32 L 116.000298 32 L 115.889297 32 L 115.778297 32.005997 L 43.778301 36.005997 L 43.640301 36.014008 L 43.504299 36.031006 C 43.149303 36.074997 34.726299 37.164993 26.211298 41.421997 C 14.297297 47.378998 8.000308 56.570007 8.000308 68 L 8.000308 220 C 8.000308 224.410995 11.589297 228 16.000299 228 L 240.000305 228 C 244.411301 228 248.000305 224.410995 248.000305 220 L 248.000305 68 C 248.000305 56.570007 241.703308 47.378998 229.789307 41.421997 C 221.2733 37.164993 212.850296 36.074997 212.496307 36.031006 L 212.359299 36.014008 L 212.221298 36.005997 L 140.221298 32.005997 Z M 140.000305 36 L 212.000305 40 C 212.000305 40 244.000305 44 244.000305 68 L 244.000305 220 C 244.000305 222.209 242.209305 224 240.000305 224 L 16.000299 224 C 13.791301 224 12.000308 222.209 12.000308 220 L 12.000308 68 C 12.000308 44 44.000301 40 44.000301 40 L 116.000298 36 L 140.000305 36"/>
    <path id="path1" fill="#ffffff" stroke="none" d="M 36 52 C 31.582001 52 28 55.582001 28 60 C 28 64.417999 31.582001 68 36 68 C 40.417999 68 44 64.417999 44 60 C 44 55.582001 40.417999 52 36 52 M 36 56 C 38.206001 56 40 57.794006 40 60 C 40 62.205994 38.206001 64 36 64 C 33.793999 64 32 62.205994 32 60 C 32 57.794006 33.793999 56 36 56"/>
    <path id="path2" fill="#ffffff" stroke="none" d="M 228 188 C 228 196.821991 220.822006 204 212 204 L 48 204 C 39.177994 204 32 196.821991 32 188 L 32 81.015991 C 33.216003 79.319 38.649002 74.237 61.578003 69.720001 C 80.298004 66.031006 104.598 64 130 64 C 155.402008 64 179.701004 66.031006 198.421997 69.720001 C 221.352005 74.237 226.783005 79.319 228 81.015991 Z M 130 60 C 76.792999 60 32.686005 68.787003 28 80 L 28 188 C 28 199.04599 36.953995 208 48 208 L 212 208 C 223.046005 208 232 199.04599 232 188 L 232 80 C 227.313995 68.787003 183.207001 60 130 60"/>
    <path id="path3" fill="#ffffff" stroke="none" d="M 130 40 C 103.843002 40 78.720001 42.112 59.258003 45.945999 C 57.566002 46.279007 55.872002 46.636993 54.224998 47.009003 C 50.559998 47.835999 48 51.042999 48 54.809998 C 48 59.221008 51.578003 62.809998 55.976997 62.809998 C 56.561996 62.809998 57.151001 62.744003 57.726997 62.615005 C 59.205002 62.283997 60.760002 61.958008 62.350998 61.643997 C 80.824997 58.003998 104.849998 56 130 56 C 155.149994 56 179.175995 58.003998 197.64801 61.643997 L 198.432999 61.800003 C 198.955002 61.906006 199.488998 61.959 200.018997 61.959 C 204.419998 61.959 208 58.371002 208 53.960999 C 208 50.164993 205.30899 46.867996 201.60199 46.117996 L 200.742004 45.945999 C 181.279999 42.112 156.156998 40 130 40 M 130 44 C 155.904999 44 180.753998 46.085007 199.968994 49.871002 C 200.25 49.925995 200.529999 49.981995 200.80899 50.037994 C 202.67099 50.414993 204 52.056 204 53.955994 L 204 53.960999 C 204 56.210999 202.169006 57.959 200.018997 57.959 C 199.757004 57.959 199.48999 57.932999 199.222 57.878998 C 198.958008 57.826004 198.69101 57.772995 198.421997 57.720001 C 179.701004 54.031006 155.402008 52 130 52 C 104.598 52 80.298004 54.031006 61.578003 57.720001 C 59.912003 58.048004 58.338997 58.378998 56.853996 58.712006 C 56.557999 58.778 56.264999 58.809998 55.976997 58.809998 C 53.834 58.809998 52 57.061996 52 54.809998 C 52 52.942993 53.283997 51.322006 55.105003 50.910995 C 56.686996 50.554001 58.325996 50.207001 60.031998 49.871002 C 79.246002 46.085007 104.094002 44 130 44"/>
</svg>
