<?xml version="1.0" encoding="UTF-8"?>
<!-- Generated by Pixelmator Pro 3.7.1 -->
<svg width="256" height="256" viewBox="0 0 256 256" xmlns="http://www.w3.org/2000/svg">
    <path id="Path" fill="#ffffff" stroke="none" d="M 128 192 C 108 192 71.612999 199.613007 71.612999 199.613007 C 70.382996 199.781998 69.138 199.876007 67.884995 199.934998 L 62.327003 196.761002 C 51.573997 185.747009 40 170.82901 40 164.098999 C 40 153.755005 43.140999 150.613998 54.829002 138.927002 C 67.849998 125.904999 68 112.656006 68 112.097992 C 68 106.190002 65.917999 100.666992 61.897003 95.709991 C 62.569 95.893997 63.271004 96 64 96 C 68.410995 96 72 92.411011 72 88 C 72 83.588989 68.410995 80 64 80 C 62.503998 80 61.108002 80.419998 59.910004 81.138 C 59.962997 80.764999 60 80.386993 60 80 C 60 75.588989 56.411003 72 52 72 C 50.350998 72 48.818001 72.501999 47.542999 73.360001 C 46.448997 70.244003 43.485001 68 40 68 C 35.588997 68 32 71.588989 32 76 C 32 76.753998 32.112 77.480011 32.307999 78.173004 C 30.620003 77.649002 29.138 77.235001 27.944 76.925995 C 37.706001 63.994003 51.152 56 66 56 C 67.895996 56 69.768005 56.132996 71.612999 56.386993 C 71.612999 56.386993 108 64 128 64 C 148 64 184 56.453003 184 56.453003 C 185.971008 56.162003 187.971008 56 190 56 C 204.847992 56 218.294006 63.994003 228.056 76.925995 C 223.479004 78.113998 214.627991 80.802002 206.477997 85.529999 C 194.389999 92.541 188 101.729004 188 112.097992 C 188 112.656006 188.149002 125.904999 201.171997 138.927002 C 212.858002 150.613998 216 153.755005 216 164.098999 C 216 170.82901 204.425995 185.747009 193.673004 196.761002 L 188.091995 199.946991 C 186.714996 199.880005 185.350006 199.746002 184 199.546997 C 184 199.546997 148 192 128 192 M 44.457001 82.639999 C 44.489998 82.735001 44.524002 82.830002 44.560997 82.924011 C 44.455002 82.873001 44.348 82.820999 44.241997 82.770996 C 44.311996 82.725998 44.387001 82.686996 44.457001 82.639999 M 40 80 C 37.791 80 36 78.209 36 76 C 36 73.791 37.791 72 40 72 C 42.209 72 44 73.791 44 76 C 44 78.209 42.209 80 40 80 M 52 84 C 49.791 84 48 82.209 48 80 C 48 77.791 49.791 76 52 76 C 54.209 76 56 77.791 56 80 C 56 82.209 54.209 84 52 84 M 56.311996 90.190002 C 55.347 89.403992 54.324997 88.639008 53.244003 87.893997 C 54.271004 87.731995 55.231003 87.376007 56.089996 86.862 C 56.037003 87.235001 56 87.613007 56 88 C 56 88.76001 56.112999 89.492996 56.311996 90.190002 M 60 88 C 60 85.791 61.791 84 64 84 C 66.209 84 68 85.791 68 88 C 68 90.209 66.209 92 64 92 C 61.791 92 60 90.209 60 88 M 25.536003 80.445007 C 32.862999 82.203003 64 90.92099 64 112.097992 C 64 112.097992 64 124.097992 52 136.098999 C 40 148.098999 36 152.098999 36 164.098999 C 36 174.938004 55.561996 195.546997 59.350998 199.436996 C 32.678001 195.067001 12.018997 164.785995 12.000999 128.046997 C 12.000999 127.647003 12.016998 127.251999 12.021004 126.854004 C 12.030998 126.098999 12.038002 125.343002 12.064003 124.593994 C 12.095001 123.747009 12.144997 122.906006 12.196999 122.067001 C 12.214996 121.78299 12.225998 121.497009 12.246002 121.213989 C 12.315002 120.238998 12.402 119.270996 12.500999 118.307007 C 12.514 118.177002 12.524002 118.046997 12.538002 117.917999 C 12.651001 116.850998 12.780998 115.791 12.93 114.738998 C 12.931 114.733002 12.931 114.72699 12.931999 114.721008 C 14.766998 101.725998 19.223999 89.96701 25.536003 80.445007 M 208 128 C 216.821991 128 224 120.821991 224 112 C 224 110.487 223.774994 109.028 223.380997 107.639999 C 224.21701 107.867996 225.093002 108 226 108 C 231.514008 108 236 103.514008 236 98 C 236 92.485992 231.514008 88 226 88 C 220.485992 88 216 92.485992 216 98 C 216 98.057999 216.007996 98.113007 216.009003 98.169998 C 213.649994 96.799011 210.919006 96 208 96 C 199.5 96 192.548004 102.666992 192.049011 111.042999 C 193.067993 90.638 223.261993 82.174011 230.463989 80.445007 C 236.776001 89.96701 241.233002 101.725998 243.067993 114.721008 C 243.067993 114.72699 243.069 114.733002 243.070007 114.738998 C 243.218994 115.791 243.348999 116.850998 243.462006 117.917999 C 243.475998 118.046997 243.485992 118.177002 243.498993 118.307007 C 243.597992 119.270996 243.684998 120.238998 243.753998 121.213989 C 243.77301 121.497009 243.785004 121.78299 243.803009 122.067001 C 243.855011 122.906006 243.904999 123.747009 243.936005 124.593994 C 243.962006 125.343002 243.970001 126.098999 243.979004 126.854004 C 243.983002 127.251999 243.998993 127.647003 243.998993 128.046997 C 243.981003 164.785995 223.320999 195.067001 196.649002 199.436996 C 200.438004 195.546997 220 174.938004 220 164.098999 C 220 152.098999 216 148.098999 204 136.098999 C 196.083008 128.181 193.390991 120.265991 192.473999 115.794998 C 194.184998 122.789001 200.487 128 208 128 M 220 112 C 220 118.626999 214.626999 124 208 124 C 201.373001 124 196 118.626999 196 112 C 196 105.373001 201.373001 100 208 100 C 214.626999 100 220 105.373001 220 112 M 220 98 C 220 94.686996 222.686996 92 226 92 C 229.313004 92 232 94.686996 232 98 C 232 101.313004 229.313004 104 226 104 C 222.686996 104 220 101.313004 220 98 M 192.001999 112.046997 C 192.002991 112.356003 192.029999 112.658997 192.049011 112.963989 C 192 112.404999 192 112.097992 192 112.097992 C 192 112.080994 192.001999 112.063995 192.001999 112.046997 M 236.748993 173.05899 C 237.113007 172.412003 237.459 171.751007 237.806 171.091003 C 237.944 170.826004 238.088989 170.56601 238.225998 170.300003 C 238.628998 169.511002 239.015991 168.709 239.395996 167.902008 C 239.464996 167.753998 239.537003 167.606995 239.606003 167.459 C 240.005997 166.597992 240.389008 165.725006 240.761002 164.845001 C 240.804993 164.738998 240.850998 164.636002 240.895996 164.529999 C 241.270996 163.628998 241.632996 162.718002 241.980011 161.798996 C 242.018997 161.697998 242.057007 161.600006 242.093994 161.498993 C 242.438004 160.580002 242.766998 159.653 243.080994 158.718002 C 243.121002 158.597992 243.161011 158.479004 243.200989 158.358002 C 243.503998 157.444 243.794006 156.522995 244.069 155.595001 C 244.119995 155.425003 244.167999 155.252991 244.218002 155.082001 C 244.473999 154.197998 244.720001 153.311005 244.950989 152.414001 C 245.015991 152.164001 245.074997 151.912003 245.138 151.660004 C 245.343994 150.833008 245.542999 150.003998 245.72699 149.166992 C 245.807007 148.804001 245.878998 148.436005 245.955002 148.069 C 246.106995 147.333008 246.26001 146.596008 246.395996 145.852005 C 246.490997 145.328995 246.572998 144.802002 246.661011 144.274994 C 246.761002 143.671005 246.86499 143.067993 246.95401 142.459991 C 247.063004 141.725998 247.152008 140.983002 247.242996 140.242004 C 247.294998 139.824005 247.354004 139.408005 247.399994 138.987 C 247.511993 137.977005 247.602997 136.957001 247.682999 135.93399 C 247.695999 135.764999 247.716003 135.597 247.729004 135.428009 C 247.904999 133.013 248 130.567993 248 128.097992 C 248 128.082001 247.998993 128.063995 247.998993 128.046997 C 247.998993 128.031998 248 128.015991 248 128 C 248 127.527008 247.980011 127.057999 247.973999 126.584991 C 247.963989 125.923004 247.960999 125.259003 247.938004 124.598999 C 247.32901 106.337997 241.817993 89.225006 232.257996 75.912003 L 232.251999 75.902008 L 232.251999 75.903 C 231.960999 75.498993 231.682007 75.084991 231.384003 74.688004 C 220.410004 60.057999 205.713989 52 190 52 C 187.860992 52 185.645996 52.167007 183.416 52.496002 L 183.296997 52.513 L 183.179993 52.537994 C 182.822998 52.612 147.352005 60 128 60 C 108.638 60 72.792 52.546997 72.431999 52.472 L 72.296005 52.442993 L 72.158005 52.425003 C 70.112 52.143005 68.041 52 66 52 C 50.286003 52 35.588997 60.057999 24.615997 74.688004 C 24.318001 75.084991 24.039001 75.498993 23.749001 75.903 L 23.748001 75.902008 L 23.741997 75.912003 C 14.181 89.225006 8.670998 106.337997 8.061996 124.598999 C 8.039001 125.259003 8.036003 125.923004 8.026001 126.584991 C 8.019997 127.057999 8 127.527008 8 128 C 8 128.015991 8.000999 128.031998 8.000999 128.046997 C 8.000999 128.063995 8 128.082001 8 128.097992 C 8 130.567993 8.094002 133.013 8.272003 135.428009 C 8.283997 135.597 8.304001 135.764999 8.317001 135.93399 C 8.397003 136.957001 8.487999 137.977005 8.599998 138.987 C 8.646004 139.408005 8.706001 139.824005 8.757004 140.242004 C 8.848 140.983002 8.938004 141.725998 9.044998 142.459991 C 9.134003 143.067993 9.238998 143.671005 9.338997 144.274994 C 9.426003 144.802002 9.509003 145.328995 9.605003 145.852005 C 9.740997 146.596008 9.892998 147.333008 10.044998 148.069 C 10.121002 148.436005 10.193001 148.804001 10.273003 149.166992 C 10.457001 150.003998 10.656998 150.833008 10.862 151.660004 C 10.925003 151.912003 10.985001 152.164001 11.049004 152.414001 C 11.279999 153.309998 11.525002 154.196991 11.780998 155.080002 C 11.832001 155.251999 11.879997 155.425003 11.931 155.597 C 12.206001 156.524002 12.496002 157.442993 12.797997 158.356003 C 12.837997 158.477997 12.877998 158.598999 12.918999 158.718994 C 13.234001 159.653992 13.561996 160.580994 13.905998 161.498993 C 13.943001 161.600006 13.982002 161.697998 14.019997 161.798996 C 14.367996 162.718002 14.727997 163.628998 15.105003 164.529999 C 15.149002 164.636002 15.195 164.738998 15.238998 164.845001 C 15.611 165.725006 15.994003 166.597992 16.393997 167.459 C 16.461998 167.606995 16.535004 167.753998 16.605003 167.902008 C 16.985001 168.709 17.371002 169.511002 17.775002 170.300003 C 17.911003 170.56601 18.055 170.826004 18.194 171.091003 C 18.542 171.751007 18.887001 172.412003 19.250999 173.05899 C 19.754997 173.958008 20.274002 174.841995 20.806999 175.710999 C 20.814003 175.722992 20.82 175.733002 20.827003 175.744003 C 29.992996 190.666992 43.400002 201.020996 58.830002 203.503998 L 59.002998 203.438004 C 61.307999 203.79599 63.639999 204 66 204 C 68.041 204 70.112 203.856995 72.158005 203.574997 L 72.296005 203.557007 L 72.431999 203.528 C 72.792 203.453003 108.647003 196 128 196 C 147.360992 196 182.822998 203.388 183.179993 203.462006 L 183.296997 203.485992 L 183.416 203.503998 C 185.645996 203.833008 187.860992 204 190 204 C 192.359009 204 194.692001 203.79599 196.997009 203.438004 L 197.17099 203.503998 C 212.600006 201.020996 226.007996 190.666992 235.174011 175.744003 C 235.179993 175.733002 235.186996 175.722992 235.192001 175.710999 C 235.725998 174.841995 236.244995 173.958008 236.748993 173.05899"/>
    <path id="path1" fill="#ffffff" stroke="none" d="M 172 172 L 84 172 C 77.373001 172 72 151.404999 72 126 C 72 100.595001 77.373001 80 84 80 L 172 80 C 178.626999 80 184 100.595001 184 126 C 184 151.404999 178.626999 172 172 172 M 172 76 L 84 76 C 71.370003 76 68 107.429001 68 126 C 68 144.570999 71.370003 176 84 176 L 172 176 C 184.630005 176 188 144.570999 188 126 C 188 107.429001 184.630005 76 172 76"/>
    <path id="path2" fill="#ffffff" stroke="none" d="M 164 160 L 92 160 L 92 88 L 164 88 Z M 166 84 L 90 84 C 88.896004 84 88 84.895996 88 86 L 88 162 C 88 163.104004 88.896004 164 90 164 L 166 164 C 167.104004 164 168 163.104004 168 162 L 168 86 C 168 84.895996 167.104004 84 166 84"/>
    <path id="path3" fill="#ffffff" stroke="none" d="M 28 108 L 36 108 L 36 100 L 44 100 L 44 108 L 52 108 L 52 116 L 44 116 L 44 124 L 36 124 L 36 116 L 28 116 Z M 28 120 L 32 120 L 32 124 L 32 128 L 36 128 L 44 128 L 48 128 L 48 124 L 48 120 L 52 120 L 56 120 L 56 116 L 56 108 L 56 104 L 52 104 L 48 104 L 48 100 L 48 96 L 44 96 L 36 96 L 32 96 L 32 100 L 32 104 L 28 104 L 24 104 L 24 108 L 24 116 L 24 120 Z"/>
</svg>
