<?xml version="1.0" encoding="UTF-8"?>
<!-- Generated by Pixelmator Pro 3.7.1 -->
<svg width="256" height="256" viewBox="0 0 256 256" xmlns="http://www.w3.org/2000/svg">
    <path id="Path" fill="#ffffff" stroke="none" d="M 124 48 C 71.949005 48 13.209999 67.380005 10.735001 68.205002 L 8 69.117004 L 8 72 L 8 204 L 8 208 L 12 208 L 244 208 L 248 208 L 248 204 L 248 72 L 248 69.007004 L 245.128998 68.162994 C 242.32901 67.339005 175.979004 48 124 48 M 124 52 C 176 52 244 72 244 72 L 244 204 L 12 204 L 12 72 C 12 72 72 52 124 52"/>
    <path id="path1" fill="#ffffff" stroke="none" d="M 232 192 L 188 192 L 184 192 L 184 69.402008 L 184 69.399994 C 184.123001 69.42099 184.242996 69.442993 184.365997 69.463989 C 184.571991 69.5 184.774994 69.535004 184.979996 69.570999 C 185.850998 69.721008 186.712997 69.873001 187.567993 70.026001 C 187.710999 70.050995 187.856995 70.075989 188 70.10199 L 188 70.102997 C 213.173004 74.623001 232 80 232 80 Z M 128 192 L 76 192 L 76 68.738007 C 92.378006 66.080002 110.704002 64 128 64 C 145.29599 64 163.622009 66.080002 180 68.738007 L 180 192 Z M 68 192 L 24 192 L 24 80 C 24 80 42.826996 74.623001 68 70.102997 L 68 70.10199 C 68.141998 70.075989 68.289001 70.050995 68.432007 70.026001 C 69.287003 69.873001 70.149002 69.721008 71.020004 69.570999 C 71.225006 69.535004 71.427994 69.5 71.634003 69.463989 C 71.755997 69.442993 71.876999 69.42099 72 69.399994 L 72 69.402008 L 72 192 Z M 233.098999 76.153992 C 232.917007 76.10199 215.442001 71.139999 192 66.768997 L 192 66.757004 L 188.707001 66.165009 L 188.466003 66.122009 L 188.272995 66.087997 C 187.408997 65.93399 186.540009 65.781006 185.662994 65.628998 L 185.414001 65.585999 L 185.044006 65.520996 L 184.876999 65.492996 L 184.675995 65.458008 L 180 64.656998 L 180 64.68399 C 160.682007 61.574997 143.209 60 128 60 C 112.792 60 95.319 61.574997 76 64.68399 L 76 64.658997 L 71.324997 65.458008 L 71.123001 65.492996 L 70.957001 65.520996 L 70.585007 65.585999 L 70.337006 65.628998 C 69.460007 65.781006 68.591003 65.93399 67.727997 66.087997 L 67.535004 66.122009 L 67.292999 66.165009 L 64 66.755997 L 64 66.768997 C 40.557999 71.139999 23.082993 76.10199 22.901001 76.153992 L 20 76.981995 L 20 80 L 20 192 L 20 196 L 24 196 L 68 196 L 72 196 L 128 196 L 184 196 L 188 196 L 232 196 L 236 196 L 236 192 L 236 80 L 236 76.981995 Z"/>
</svg>
