<?xml version="1.0" encoding="UTF-8"?>
<!-- Generated by Pixelmator Pro 3.7.1 -->
<svg width="256" height="256" viewBox="0 0 256 256" xmlns="http://www.w3.org/2000/svg">
    <path id="Path" fill="#ffffff" stroke="none" d="M 128 48 C 96.882004 48 67.606003 49.255997 45.564003 51.535995 C 34.730003 52.656998 26.184998 53.970993 20.166 55.444 C 13.847 56.988998 8 59.095001 8 64 L 8 72 C 8 74.955002 9.610001 77.541 12 78.925995 L 12 200 L 12 204 L 16 204 L 240 204 L 244 204 L 244 200 L 244 78.925995 C 246.389999 77.541 248 74.955002 248 72 L 248 64 C 248 59.095001 242.153 56.988998 235.834 55.444 C 229.815002 53.970993 221.269989 52.656998 210.436005 51.535995 C 188.393997 49.255997 159.117996 48 128 48 M 128 52 C 192.065002 52 244 57.373001 244 64 L 244 72 C 244 74.209 242.209 76 240 76 L 240 200 L 16 200 L 16 76 C 13.791 76 12 74.209 12 72 L 12 64 C 12 57.373001 63.934998 52 128 52"/>
    <path id="path1" fill="#ffffff" stroke="none" d="M 28 184 L 24 184 L 20 184 L 16 184 L 16 188 L 16 192 L 16 196 L 20 196 L 24 196 L 28 196 L 28 192 L 28 188 Z M 24 192 L 20 192 L 20 188 L 24 188 Z"/>
    <path id="path2" fill="#ffffff" stroke="none" d="M 240 184 L 236 184 L 232 184 L 228 184 L 228 188 L 228 192 L 228 196 L 232 196 L 236 196 L 240 196 L 240 192 L 240 188 Z M 236 192 L 232 192 L 232 188 L 236 188 Z"/>
    <path id="path3" fill="#ffffff" stroke="none" d="M 220 80 L 36 80 C 33.791 80 32 81.791 32 84 L 32 184 C 32 186.209 33.791 188 36 188 L 220 188 C 222.209 188 224 186.209 224 184 L 224 84 C 224 81.791 222.209 80 220 80 M 220 184 L 36 184 L 36 84 L 220 84 Z"/>
    <path id="path4" fill="#ffffff" stroke="none" d="M 128 60 C 84 60 16 72 16 72 C 16 72 64 76 128 76 C 192 76 240 72 240 72 C 240 72 172 60 128 60 M 128 64 C 150.403992 64 179.376007 67.188004 202.145996 70.270004 C 182.669998 71.171005 156.906006 72 128 72 C 99.094002 72 73.330002 71.171005 53.853996 70.270004 C 76.624001 67.188004 105.596001 64 128 64"/>
</svg>
