<?xml version="1.0" encoding="UTF-8"?>
<!-- Generated by Pixelmator Pro 3.7.1 -->
<svg width="256" height="256" viewBox="0 0 256 256" xmlns="http://www.w3.org/2000/svg">
    <path id="Path" fill="#ffffff" stroke="none" d="M 172 128 L 172 160 L 128 160 L 84 160 L 84 128 L 84 96 L 128 96 L 172 96 Z M 80 92 L 80 128 L 80 164 L 128 164 L 176 164 L 176 128 L 176 92 L 128 92 Z"/>
    <path id="path1" fill="#ffffff" stroke="none" d="M 192.319794 187.999908 C 191.065796 187.999908 189.898804 187.973907 188.843796 187.933899 C 188.559799 187.953903 188.286804 187.981903 187.999802 187.999908 C 187.999802 187.999908 187.558807 187.93689 186.733795 187.826904 C 186.090805 187.786896 185.504807 187.742889 184.998795 187.69989 C 184.811798 187.683899 184.652802 187.621902 184.512802 187.539902 C 176.175797 186.488892 154.093796 183.999908 131.999802 183.999908 L 123.999802 183.999908 C 101.9058 183.999908 79.823799 186.488892 71.486801 187.539902 C 71.346802 187.621902 71.188805 187.683899 71.000801 187.69989 C 70.494804 187.742889 69.908798 187.786896 69.2658 187.826904 C 68.440804 187.93689 67.999802 187.999908 67.999802 187.999908 C 67.713799 187.981903 67.439804 187.953903 67.156799 187.933899 C 66.0998 187.973907 64.935799 187.999908 63.679802 187.999908 C 43.3498 187.999908 -0.481195 181.25589 15.395804 120.75589 C 15.477805 120.442902 15.703803 120.2229 15.981803 120.10289 C 15.992805 120.041901 15.999793 119.999893 15.999793 119.999893 C 16.898794 110.111893 20.023794 102.249893 24.322805 95.992889 C 24.213797 95.993896 24.109793 95.999893 23.999792 95.999893 C 23.999792 95.999893 34.413795 78.600891 45.591805 76.048904 C 45.737801 76.0159 45.882805 75.999893 46.023796 75.999893 C 46.894798 75.999893 47.6408 76.603897 47.899803 77.416901 C 58.672798 72.779892 67.999802 71.999893 67.999802 71.999893 L 120.009804 68.284897 C 122.6688 68.094894 125.333801 67.999893 127.999802 67.999893 C 130.665802 67.999893 133.330795 68.094894 135.989792 68.284897 L 187.999802 71.999893 C 187.999802 71.999893 197.326797 72.779892 208.099792 77.416901 C 208.359802 76.603897 209.104797 75.999893 209.976807 75.999893 C 210.117798 75.999893 210.261795 76.0159 210.408798 76.048904 C 221.5858 78.600891 231.999802 95.999893 231.999802 95.999893 C 231.889801 95.999893 231.786804 95.993896 231.676804 95.992889 C 235.9758 102.249893 239.1008 110.111893 239.999802 119.999893 C 239.999802 119.999893 240.007797 120.041901 240.018799 120.10289 C 240.295807 120.2229 240.522797 120.442902 240.604797 120.75589 C 256.482788 181.259903 212.647797 187.999908 192.319794 187.999908 M 244.473801 119.739899 C 244.339798 119.229904 244.127792 118.752899 243.849792 118.320892 C 242.883804 109.673904 240.215805 101.887894 235.9048 95.133896 C 235.813797 94.720901 235.655792 94.319901 235.431793 93.945892 C 234.276794 92.014893 223.780807 74.998901 211.298798 72.149902 C 210.8638 72.049896 210.418808 71.999893 209.9758 71.999893 C 208.967804 71.999893 208.006805 72.253891 207.160797 72.711899 C 197.024796 68.7789 188.709793 68.045898 188.332794 68.013901 L 136.274796 64.294891 C 133.533798 64.098892 130.749802 63.999893 127.999802 63.999893 C 125.250801 63.999893 122.466805 64.098892 119.7248 64.294891 L 67.714798 68.009903 C 67.2938 68.044891 58.9748 68.7789 48.838799 72.711899 C 47.993797 72.253891 47.031807 71.999893 46.023796 71.999893 L 46.021797 71.999893 C 45.580803 71.999893 45.135796 72.049896 44.700798 72.149902 C 32.218803 74.998901 21.723806 92.014893 20.567801 93.945892 C 20.343801 94.319901 20.186804 94.720901 20.094793 95.133896 C 15.783805 101.887894 13.115806 109.673904 12.149802 118.320892 C 11.871802 118.752899 11.660804 119.229904 11.526801 119.740891 C 5.443793 142.9189 7.249793 161.009903 16.894796 173.511902 C 29.303793 189.5979 51.533806 191.999908 63.679802 191.999908 C 64.809799 191.999908 65.948799 191.979889 67.070801 191.939911 L 67.181801 191.948898 C 67.369804 191.964905 67.5578 191.979889 67.750801 191.991898 C 67.833801 191.997894 67.916801 191.999908 67.999802 191.999908 C 68.188805 191.999908 68.3778 191.986908 68.565804 191.9599 C 68.575798 191.957901 68.954803 191.9039 69.657799 191.809906 C 70.278801 191.769897 70.845802 191.727905 71.340805 191.685898 C 71.743805 191.651901 72.137802 191.569901 72.520798 191.441895 C 81.255798 190.353897 102.631798 187.999908 123.999802 187.999908 L 131.999802 187.999908 C 153.367798 187.999908 174.743805 190.353897 183.479797 191.441895 C 183.861801 191.569901 184.256805 191.651901 184.659805 191.685898 C 185.153793 191.727905 185.721802 191.769897 186.341797 191.809906 C 187.0448 191.9039 187.423798 191.957901 187.434799 191.9599 C 187.621796 191.986908 187.810806 191.999908 187.999802 191.999908 C 188.082794 191.999908 188.165802 191.997894 188.248795 191.991898 C 188.440796 191.979889 188.628799 191.964905 188.815796 191.948898 L 188.929794 191.939911 C 190.050797 191.979889 191.189804 191.999908 192.319794 191.999908 C 204.466797 191.999908 226.696793 189.5979 239.105804 173.512909 C 248.750793 161.010895 250.555801 142.9189 244.473801 119.739899"/>
    <path id="path2" fill="#ffffff" stroke="none" d="M 52 92 C 54.209 92 56 93.791 56 96 C 56 98.209 54.209 100 52 100 C 49.791 100 48 98.209 48 96 C 48 93.791 49.791 92 52 92 M 52 104 C 56.410999 104 60 100.410995 60 96 C 60 91.589005 56.410999 88 52 88 C 47.589001 88 44 91.589005 44 96 C 44 100.410995 47.589001 104 52 104"/>
    <path id="path3" fill="#ffffff" stroke="none" d="M 196 92 C 198.209 92 200 93.791 200 96 C 200 98.209 198.209 100 196 100 C 193.791 100 192 98.209 192 96 C 192 93.791 193.791 92 196 92 M 208 92 C 210.209 92 212 93.791 212 96 C 212 98.209 210.209 100 208 100 C 205.791 100 204 98.209 204 96 C 204 93.791 205.791 92 208 92 M 196 104 C 198.389999 104 200.533005 102.940994 202 101.274002 C 203.466995 102.940994 205.610001 104 208 104 C 212.410995 104 216 100.410995 216 96 C 216 91.589005 212.410995 88 208 88 C 205.610001 88 203.466995 89.059006 202 90.725998 C 200.533005 89.059006 198.389999 88 196 88 C 191.589005 88 188 91.589005 188 96 C 188 100.410995 191.589005 104 196 104"/>
    <path id="path4" fill="#ffffff" stroke="none" d="M 58 132 C 54.686001 132 52 134.686005 52 138 C 52 141.313995 49.313999 144 46 144 C 42.686001 144 40 141.313995 40 138 C 40 134.686005 37.313999 132 34 132 C 30.686001 132 28 129.313995 28 126 C 28 122.686005 30.686001 120 34 120 C 37.313999 120 40 117.313995 40 114 C 40 110.686005 42.686001 108 46 108 C 49.313999 108 52 110.686005 52 114 C 52 117.313995 54.686001 120 58 120 C 61.313999 120 64 122.686005 64 126 C 64 129.313995 61.313999 132 58 132 M 58 116 C 56.896999 116 56 115.102997 56 114 C 56 108.485992 51.514 104 46 104 C 40.486 104 36 108.485992 36 114 C 36 115.102997 35.103001 116 34 116 C 28.486 116 24 120.485992 24 126 C 24 131.514008 28.486 136 34 136 C 35.103001 136 36 136.897003 36 138 C 36 143.514008 40.486 148 46 148 C 51.514 148 56 143.514008 56 138 C 56 136.897003 56.896999 136 58 136 C 63.514 136 68 131.514008 68 126 C 68 120.485992 63.514 116 58 116"/>
    <path id="path5" fill="#ffffff" stroke="none" d="M 34 124 C 32.895 124 32 124.895004 32 126 C 32 127.104996 32.895 128 34 128 C 35.105 128 36 127.104996 36 126 C 36 124.895004 35.105 124 34 124"/>
    <path id="path6" fill="#ffffff" stroke="none" d="M 58 124 C 56.895 124 56 124.895004 56 126 C 56 127.104996 56.895 128 58 128 C 59.105 128 60 127.104996 60 126 C 60 124.895004 59.105 124 58 124"/>
    <path id="path7" fill="#ffffff" stroke="none" d="M 46 136 C 44.895 136 44 136.894989 44 138 C 44 139.105011 44.895 140 46 140 C 47.105 140 48 139.105011 48 138 C 48 136.894989 47.105 136 46 136"/>
    <path id="path8" fill="#ffffff" stroke="none" d="M 46 112 C 44.895 112 44 112.895004 44 114 C 44 115.104996 44.895 116 46 116 C 47.105 116 48 115.104996 48 114 C 48 112.895004 47.105 112 46 112"/>
    <path id="path9" fill="#ffffff" stroke="none" d="M 220 128 C 215.582001 128 212 124.417999 212 120 C 212 115.582001 215.582001 112 220 112 C 224.417999 112 228 115.582001 228 120 C 228 124.417999 224.417999 128 220 128 M 198 132 C 192.477005 132 188 127.522995 188 122 C 188 116.477005 192.477005 112 198 112 C 203.522995 112 208 116.477005 208 122 C 208 127.522995 203.522995 132 198 132 M 180 168 C 180 170.209 156.718994 172 128 172 C 99.280998 172 76 170.209 76 168 C 73.791 168 72 150.091003 72 128 C 72 105.908997 73.791 88 76 88 C 76 85.791 99.280998 84 128 84 C 156.718994 84 180 85.791 180 88 C 182.209 88 184 105.908997 184 128 C 184 150.091003 182.209 168 180 168 M 220 108 C 215.522995 108 211.617996 110.468002 209.556 114.110992 C 207.031998 110.425003 202.794998 108 198 108 C 193.921005 108 190.255997 109.764008 187.695007 112.556 C 187.492996 107.669998 187.195007 103.177994 186.80899 99.317993 C 186.423996 95.468994 185.966003 92.408997 185.449997 90.222992 C 185.166 89.024994 184.552002 86.429001 182.824997 84.997009 C 181.238998 83.346008 178.406006 82.830994 176.628998 82.507996 C 173.875 82.007004 169.988998 81.561005 165.076004 81.182999 C 155.156006 80.419998 141.988998 80 128 80 C 114.011002 80 100.844002 80.419998 90.923996 81.182999 C 86.011002 81.561005 82.125 82.007004 79.371002 82.507996 C 77.593994 82.830994 74.761002 83.346008 73.175003 84.997009 C 71.447998 86.429001 70.834 89.024994 70.550003 90.222992 C 70.033997 92.408997 69.576004 95.468994 69.190994 99.317993 C 68.423004 107.001007 68 117.186996 68 128 C 68 138.813004 68.423004 148.998993 69.190994 156.682007 C 69.576004 160.531006 70.033997 163.591003 70.550003 165.777008 C 70.834 166.975006 71.447006 169.571991 73.175003 171.002991 C 74.761002 172.653992 77.593994 173.169006 79.371002 173.492004 C 82.125 173.992996 86.011002 174.438995 90.923996 174.817001 C 100.844002 175.580002 114.011002 176 128 176 C 141.988998 176 155.156006 175.580002 165.076004 174.817001 C 169.988998 174.438995 173.875 173.992996 176.628998 173.492004 C 178.406006 173.169006 181.238998 172.653992 182.824997 171.002991 C 184.553009 169.571991 185.166 166.975006 185.449997 165.777008 C 185.966003 163.591003 186.423996 160.531006 186.80899 156.682007 C 187.487 149.897003 187.895996 141.15799 187.981995 131.76001 C 190.527008 134.371002 194.074997 136 198 136 C 203.697998 136 208.604004 132.572998 210.785995 127.675995 C 212.988998 130.31601 216.300995 132 220 132 C 226.617004 132 232 126.617004 232 120 C 232 113.382996 226.617004 108 220 108"/>
</svg>
