<?xml version="1.0" encoding="UTF-8"?>
<!-- Generated by Pixelmator Pro 3.7.1 -->
<svg width="256" height="256" viewBox="0 0 256 256" xmlns="http://www.w3.org/2000/svg">
    <path id="Path" fill="#ffffff" stroke="none" d="M 244 84.151901 C 244 90.770905 242.210999 96.135895 240.003006 96.135895 C 242.210999 96.135895 244 101.501907 244 108.120895 C 244 114.738907 242.210999 120.104904 240.003006 120.104904 C 242.210999 120.104904 244 126.364899 244 134.085907 C 244 141.808899 242.210999 148.068909 240.003006 148.068909 C 240.003006 148.068909 243.076004 166.558899 232 180.571899 L 232 159.657898 C 234.291 158.863892 235.968994 156.748901 236.091003 154.192902 L 239.710007 78.183899 C 239.835999 75.540894 238.860992 72.926895 237.035004 71.012894 C 235.210007 69.0979 232.645996 67.999893 230 67.999893 C 227.354004 67.999893 224.790009 69.0979 222.964996 71.012894 C 221.139008 72.926895 220.164001 75.540894 220.290009 78.183899 L 223.186005 138.984894 C 222.5 136.920898 221.408005 135.042908 220 133.446899 L 220 70.882904 C 220 69.160904 218.897995 67.632904 217.264999 67.088898 L 208 63.999893 L 208 63.923904 C 208.165009 63.969894 208.337006 63.999893 208.514999 63.999893 C 209.777008 63.999893 210.703003 62.813904 210.397003 61.588898 L 210.046005 60.183899 L 216.020004 60.183899 L 216.020004 56.188904 C 216.020004 53.982895 217.809006 52.193893 220.016998 52.193893 L 232.007996 52.193893 C 238.630997 52.193893 244 57.559906 244 64.177902 Z M 159.089996 199.617905 C 159.472992 198.457901 159.742996 197.249908 159.882004 195.999908 L 192.406006 195.999908 C 192.281006 195.999908 192.162003 196.004898 192.035995 196.004898 C 192.035995 196.004898 178.927002 198.620911 159.089996 199.617905 M 142 207.999908 C 134.268005 207.999908 128 201.73291 128 193.999908 C 128 186.267899 134.268005 179.999908 142 179.999908 C 149.731995 179.999908 156 186.267899 156 193.999908 C 156 201.73291 149.731995 207.999908 142 207.999908 M 168 179.999908 C 168 177.790894 169.791 175.999908 172 175.999908 C 174.209 175.999908 176 177.790894 176 179.999908 C 176 182.189911 174.238998 183.962891 172.057007 183.993896 C 172.037003 183.980896 172.019989 183.966904 172 183.952911 L 172 183.999908 C 169.791 183.999908 168 182.208893 168 179.999908 M 230 155.999908 C 228.880997 155.999908 227.958008 155.120911 227.904999 154.001892 L 224.285004 77.992905 C 224.130005 74.730896 226.733002 71.999893 230 71.999893 C 233.266998 71.999893 235.869995 74.730896 235.714996 77.992905 L 232.095001 154.001892 C 232.041992 155.120911 231.119003 155.999908 230 155.999908 M 92.104996 196.004898 L 72.119003 196.004898 C 72.119003 196.004898 56.128998 192.010895 48.134995 184.020905 C 48.134995 184.020905 28.149002 176.030899 24.151001 160.052902 C 24.151001 160.052902 12.160004 148.068909 16.156998 136.083893 C 8.162994 120.104904 14.158997 114.1129 14.158997 114.1129 L 13.360001 113.314896 C 12.570999 112.525894 12.151993 111.438904 12.188995 110.323898 C 12.554993 99.340897 16.156998 92.141907 16.156998 92.141907 C 12.160004 88.146896 16.156998 80.156906 16.156998 80.156906 L 16.251999 80.275894 C 16.033005 77.571899 16.203995 74.758896 16.910004 71.876907 C 19.473007 61.413895 28.468002 53.545898 39.179993 52.358902 C 41.660995 52.082901 44.832993 51.999893 47.759995 51.999893 C 52.229004 51.999893 56.128998 52.193893 56.128998 52.193893 L 72.119003 52.193893 C 74.326004 52.193893 76.115997 53.982895 76.115997 56.188904 L 76.115997 60.183899 L 84 60.183899 L 84 63.999893 L 74.735001 67.088898 C 73.102005 67.632904 72 69.160904 72 70.882904 L 72 96.047897 C 71.686996 96.024902 71.375 95.999893 71.056 95.999893 L 68.944 95.999893 C 62.802002 95.999893 57.654999 100.304901 56.337006 106.053894 C 56.266006 106.111893 56.199997 106.177902 56.128998 106.238907 L 56.128998 103.417908 C 56.128998 102.259903 55.184006 101.427902 54.132004 101.427902 C 53.843002 101.427902 53.544998 101.490906 53.257004 101.627899 C 49.886993 103.227905 46.119003 104.1259 42.139008 104.1259 C 39.494003 104.1259 34.714996 102.613907 31.182999 101.313904 C 30.951996 101.228897 30.718994 101.189896 30.492996 101.189896 C 29.356995 101.189896 28.376999 102.183899 28.514008 103.411896 C 28.514008 103.411896 30.223007 124.350906 31.362 134.620911 C 31.667007 137.370911 36.595993 151.246902 39.044006 157.443909 C 39.878998 159.557892 41.479004 161.279907 43.539001 162.242905 C 45.529007 163.173904 48.393997 164.046906 52.132004 164.046906 C 52.132004 164.046906 56.128998 164.046906 56.128998 156.057892 L 56.128998 125.760895 C 56.199997 125.821899 56.266006 125.887894 56.337006 125.945892 C 57.654999 131.694901 62.802002 135.999908 68.944 135.999908 L 69.516998 135.999908 C 68.554993 137.928894 68 140.09491 68 142.392899 L 68 161.60791 C 68 169.5439 74.457001 175.999908 82.393005 175.999908 L 85.606995 175.999908 C 92.727005 175.999908 98.639999 170.798904 99.783997 163.999908 L 184.526001 163.999908 C 186.309998 170.889893 192.561005 175.999908 200 175.999908 L 208 175.999908 C 216.822006 175.999908 224 168.821899 224 159.999908 L 224 154.9189 C 224.375 157.142899 225.931 158.941895 228 159.657898 L 228 179.999908 L 228 183.999908 C 228 184.292908 227.981003 184.581909 227.951004 184.866898 C 226.751007 185.942902 225.449997 186.973907 224.014008 187.937897 L 224.014008 188.0159 L 223.895996 188.0159 C 221.643997 189.513901 219.091995 190.859894 216.201996 191.999908 L 216 191.999908 L 196 191.999908 C 186.5 191.999908 179.674011 189.256897 178.113998 188.569901 C 177.589996 188.1539 176.863998 187.586899 175.994003 186.920898 C 178.38501 185.535904 180 182.955902 180 179.999908 C 180 175.588898 176.411011 171.999908 172 171.999908 C 168.050003 171.999908 164.768005 174.88089 164.123001 178.651901 C 158.373001 175.082901 152.19101 171.999908 148 171.999908 L 144 171.999908 L 140 171.999908 C 131.337997 171.999908 114.171997 185.169891 109.884003 188.570892 C 108.347 189.248901 101.514999 191.999908 92 191.999908 C 89.867996 191.999908 88.110992 193.671906 88.005005 195.800903 C 88.001007 195.867905 88.014999 195.932892 88.014999 195.999908 L 92 195.999908 C 104 195.999908 112 191.999908 112 191.999908 C 112 191.999908 132 175.999908 140 175.999908 L 142 175.999908 L 144 175.999908 L 148 175.999908 C 152.031006 175.999908 159.108002 180.062897 165.139999 184.093903 C 166.296997 186.024902 168.238007 187.429901 170.524994 187.858902 C 173.777008 190.223907 176 191.999908 176 191.999908 L 159.882004 191.999908 C 158.882996 183.013901 151.248001 175.999908 142 175.999908 C 132.074997 175.999908 124 184.07489 124 193.999908 C 124 195.885895 124.294998 197.703903 124.834999 199.41391 C 105.934998 198.304901 92.104996 196.004898 92.104996 196.004898 M 72 151.999908 C 72 158.626892 77.373001 163.999908 84 163.999908 L 95.709 163.999908 C 94.619995 168.569901 90.5 171.999908 85.606995 171.999908 L 82.393005 171.999908 C 76.677002 171.999908 72 167.322906 72 161.60791 Z M 62 127.999893 C 67.606995 127.999893 72 122.728897 72 115.999893 C 72 109.270905 67.606995 103.999893 62 103.999893 C 61.826004 103.999893 61.656998 104.019897 61.485001 104.029907 C 63.089996 101.607895 65.837006 99.999893 68.944 99.999893 L 71.056 99.999893 C 71.376007 99.999893 71.688004 100.037903 72 100.070892 L 72 115.999893 L 72 131.939896 C 71.688995 131.975891 71.375 131.999908 71.056 131.999908 L 68.944 131.999908 C 65.837006 131.999908 63.089996 130.392899 61.485001 127.969894 C 61.656998 127.979904 61.826004 127.999893 62 127.999893 M 52.128998 114.118896 C 52.052002 114.732895 52 115.356903 52 115.999893 C 52 116.642899 52.052002 117.267899 52.128998 117.880905 L 52.128998 156.057892 C 52.128998 158.55191 51.669998 159.6409 51.434998 160.034912 C 49.156998 159.954895 47.072998 159.479904 45.231995 158.618896 C 44.106995 158.093903 43.229996 157.1539 42.764008 155.973907 C 39.985992 148.943909 35.598007 136.25589 35.337006 134.175903 C 34.475006 126.397903 33.266998 112.264908 32.75 106.0979 C 36.001999 107.1689 39.613007 108.1259 42.139008 108.1259 C 45.585999 108.1259 48.934006 107.551895 52.128998 106.417908 Z M 60 123.055893 L 60 108.943893 C 60 108.777893 60.016006 108.615906 60.024994 108.452896 C 60.645004 108.164902 61.307007 107.999893 62 107.999893 C 65.313004 107.999893 68 111.581894 68 115.999893 C 68 120.4189 65.313004 123.999893 62 123.999893 C 61.307007 123.999893 60.645004 123.835892 60.024994 123.547897 C 60.016006 123.383896 60 123.221893 60 123.055893 M 216 130.164902 L 216 135.092896 L 216 151.999908 C 216 156.417908 212.417999 159.999908 208 159.999908 L 188 159.999908 L 184 159.999908 L 100 159.999908 L 96 159.999908 L 84 159.999908 C 79.582001 159.999908 76 156.417908 76 151.999908 L 76 135.013901 L 76 129.516907 L 76 101.503906 L 76 96.985901 L 76 70.882904 L 85.264999 67.794907 L 85.264999 67.794907 C 86.632996 67.338898 87.617996 66.188904 87.904999 64.816895 L 88.334 66.529907 C 88.550003 67.393906 89.326004 67.999893 90.216003 67.999893 C 91.479004 67.999893 92.404999 66.813904 92.098999 65.588898 L 90.746994 60.183899 L 94.203003 60.183899 L 95.789993 66.529907 C 96.005997 67.393906 96.781998 67.999893 97.671997 67.999893 C 98.934998 67.999893 99.860992 66.813904 99.554993 65.588898 L 98.203003 60.183899 L 101.660004 60.183899 L 103.246002 66.529907 C 103.462006 67.393906 104.238007 67.999893 105.128006 67.999893 C 106.391006 67.999893 107.317001 66.813904 107.011002 65.588898 L 105.660004 60.183899 L 109.115997 60.183899 L 110.701996 66.529907 C 110.917999 67.393906 111.694 67.999893 112.585007 67.999893 C 113.847 67.999893 114.772995 66.813904 114.466995 65.588898 L 113.115997 60.183899 L 116.571999 60.183899 L 118.158997 66.529907 C 118.375 67.393906 119.150002 67.999893 120.041 67.999893 C 121.303001 67.999893 122.228996 66.813904 121.922997 65.588898 L 120.571999 60.183899 L 124.028 60.183899 L 125.614998 66.529907 C 125.831001 67.393906 126.607002 67.999893 127.497002 67.999893 C 128.759003 67.999893 129.686005 66.813904 129.378998 65.588898 L 128.028 60.183899 L 131.484009 60.183899 L 133.070999 66.529907 C 133.287003 67.393906 134.061996 67.999893 134.953003 67.999893 C 136.216003 67.999893 137.141998 66.813904 136.835999 65.588898 L 135.484009 60.183899 L 138.940002 60.183899 L 140.527008 66.529907 C 140.742996 67.393906 141.519989 67.999893 142.408997 67.999893 C 143.671997 67.999893 144.597992 66.813904 144.291992 65.588898 L 142.940002 60.183899 L 146.395996 60.183899 L 147.983002 66.529907 C 148.199005 67.393906 148.975998 67.999893 149.86499 67.999893 C 151.127991 67.999893 152.054001 66.813904 151.748001 65.588898 L 150.395996 60.183899 L 153.852997 60.183899 L 155.438995 66.529907 C 155.654999 67.393906 156.432007 67.999893 157.320999 67.999893 C 158.584 67.999893 159.51001 66.813904 159.20401 65.588898 L 157.852997 60.183899 L 161.30899 60.183899 L 162.895996 66.529907 C 163.110992 67.393906 163.888 67.999893 164.778 67.999893 C 166.040009 67.999893 166.96701 66.813904 166.660004 65.588898 L 165.30899 60.183899 L 168.764999 60.183899 L 170.35199 66.529907 C 170.567001 67.393906 171.343994 67.999893 172.234009 67.999893 C 173.496002 67.999893 174.423004 66.813904 174.115997 65.588898 L 172.764999 60.183899 L 176.221008 60.183899 L 177.807999 66.529907 C 178.02301 67.393906 178.800003 67.999893 179.690002 67.999893 C 180.951996 67.999893 181.878998 66.813904 181.571991 65.588898 L 180.221008 60.183899 L 183.678009 60.183899 L 185.264008 66.529907 C 185.479996 67.393906 186.255997 67.999893 187.145996 67.999893 C 188.408005 67.999893 189.334991 66.813904 189.028 65.588898 L 187.678009 60.183899 L 191.134003 60.183899 L 192.721008 66.529907 C 192.936996 67.393906 193.712006 67.999893 194.602997 67.999893 C 195.865005 67.999893 196.791 66.813904 196.485001 65.588898 L 195.134003 60.183899 L 198.589996 60.183899 L 200.177002 66.529907 C 200.393005 67.393906 201.167999 67.999893 202.05899 67.999893 C 203.320999 67.999893 204.247009 66.813904 203.94101 65.588898 L 202.589996 60.183899 L 204 60.183899 L 204 63.999893 C 204 65.721893 205.102005 67.249893 206.735001 67.794907 L 216 70.882904 Z M 220 151.999908 L 220 159.999908 C 220 166.599899 214.600006 171.999908 208 171.999908 L 200 171.999908 C 194.803009 171.999908 190.362 168.645905 188.703995 163.999908 L 208 163.999908 C 214.626999 163.999908 220 158.626892 220 151.999908 M 248 64.177902 C 248 55.363907 240.826004 48.193893 232.007996 48.193893 L 220.016998 48.193893 C 215.608002 48.193893 212.020996 51.776901 212.020004 56.183899 L 209.046005 56.183899 L 208.395004 53.577896 C 208.18399 52.734894 207.477997 52.0569 206.609009 52.003906 C 206.576004 52.001892 206.544006 52.0009 206.511002 52.0009 C 206.337997 52.0009 206.171997 52.027893 206.013 52.068893 C 205.854004 52.026901 205.688004 51.999893 205.514999 51.999893 C 204.625 51.999893 203.848999 52.605896 203.632996 53.469894 L 202.953995 56.183899 L 201.589996 56.183899 L 200.910995 53.469894 C 200.695007 52.605896 199.919006 51.999893 199.028992 51.999893 C 198.860001 51.999893 198.697998 52.024902 198.544006 52.063904 C 198.389008 52.024902 198.227997 51.999893 198.05899 51.999893 C 197.167999 51.999893 196.393005 52.605896 196.177002 53.469894 L 195.498001 56.183899 L 194.134003 56.183899 L 193.455002 53.469894 C 193.238998 52.605896 192.462997 51.999893 191.571991 51.999893 C 191.403992 51.999893 191.242004 52.024902 191.087997 52.063904 C 190.932999 52.024902 190.770996 51.999893 190.602997 51.999893 C 189.712006 51.999893 188.936996 52.605896 188.721008 53.469894 L 188.041992 56.183899 L 186.678009 56.183899 L 185.998993 53.469894 C 185.783005 52.605896 185.007004 51.999893 184.115997 51.999893 C 183.946991 51.999893 183.785995 52.024902 183.632004 52.063904 C 183.477005 52.024902 183.315002 51.999893 183.145996 51.999893 C 182.255997 51.999893 181.479996 52.605896 181.264008 53.469894 L 180.585999 56.183899 L 179.221008 56.183899 L 178.542999 53.469894 C 178.326996 52.605896 177.550995 51.999893 176.660004 51.999893 C 176.490997 51.999893 176.330002 52.024902 176.175995 52.063904 C 176.020996 52.024902 175.859009 51.999893 175.690002 51.999893 C 174.800003 51.999893 174.02301 52.605896 173.807999 53.469894 L 173.130005 56.183899 L 171.764999 56.183899 L 171.087006 53.469894 C 170.871002 52.605896 170.095001 51.999893 169.20401 51.999893 C 169.035004 51.999893 168.873993 52.024902 168.718994 52.063904 C 168.563995 52.024902 168.403 51.999893 168.234009 51.999893 C 167.343994 51.999893 166.567001 52.605896 166.35199 53.469894 L 165.674011 56.183899 L 164.30899 56.183899 L 163.630997 53.469894 C 163.414001 52.605896 162.639008 51.999893 161.748001 51.999893 C 161.57901 51.999893 161.417999 52.024902 161.263 52.063904 C 161.108002 52.024902 160.946991 51.999893 160.778 51.999893 C 159.888 51.999893 159.110992 52.605896 158.895996 53.469894 L 158.21701 56.183899 L 156.852997 56.183899 L 156.174011 53.469894 C 155.958008 52.605896 155.182999 51.999893 154.291992 51.999893 C 154.123001 51.999893 153.962006 52.024902 153.807007 52.063904 C 153.652008 52.024902 153.48999 51.999893 153.320999 51.999893 C 152.432007 51.999893 151.654999 52.605896 151.438995 53.469894 L 150.761002 56.183899 L 149.395996 56.183899 L 148.718002 53.469894 C 148.501999 52.605896 147.72699 51.999893 146.835999 51.999893 C 146.666992 51.999893 146.505997 52.024902 146.350998 52.063904 C 146.195999 52.024902 146.033997 51.999893 145.86499 51.999893 C 144.975998 51.999893 144.199005 52.605896 143.983002 53.469894 L 143.304993 56.183899 L 141.940002 56.183899 L 141.261993 53.469894 C 141.04599 52.605896 140.269989 51.999893 139.380005 51.999893 C 139.210999 51.999893 139.049011 52.024902 138.894989 52.063904 C 138.73999 52.024902 138.578003 51.999893 138.408997 51.999893 C 137.519989 51.999893 136.742996 52.605896 136.527008 53.469894 L 135.848999 56.183899 L 134.484009 56.183899 L 133.806 53.469894 C 133.589996 52.605896 132.813004 51.999893 131.924011 51.999893 C 131.755005 51.999893 131.593002 52.024902 131.438004 52.063904 C 131.28299 52.024902 131.122009 51.999893 130.953003 51.999893 C 130.061996 51.999893 129.287003 52.605896 129.070999 53.469894 L 128.393005 56.183899 L 127.028 56.183899 L 126.349998 53.469894 C 126.134003 52.605896 125.357002 51.999893 124.467003 51.999893 C 124.297997 51.999893 124.137001 52.024902 123.982002 52.063904 C 123.828003 52.024902 123.666 51.999893 123.497002 51.999893 C 122.607002 51.999893 121.831001 52.605896 121.614998 53.469894 L 120.936996 56.183899 L 119.571999 56.183899 L 118.893997 53.469894 C 118.677002 52.605896 117.901001 51.999893 117.011002 51.999893 C 116.842003 51.999893 116.681 52.024902 116.526001 52.063904 C 116.371002 52.024902 116.209999 51.999893 116.041 51.999893 C 115.149994 51.999893 114.375 52.605896 114.158997 53.469894 L 113.479996 56.183899 L 112.115997 56.183899 L 111.436996 53.469894 C 111.220993 52.605896 110.445007 51.999893 109.554993 51.999893 C 109.386002 51.999893 109.225006 52.024902 109.070007 52.063904 C 108.914993 52.024902 108.753998 51.999893 108.585007 51.999893 C 107.694 51.999893 106.917999 52.605896 106.701996 53.469894 L 106.024002 56.183899 L 104.658997 56.183899 L 103.981003 53.469894 C 103.764999 52.605896 102.988998 51.999893 102.098999 51.999893 C 101.929993 51.999893 101.768997 52.024902 101.613998 52.063904 C 101.459 52.024902 101.296997 51.999893 101.128006 51.999893 C 100.238007 51.999893 99.462006 52.605896 99.246002 53.469894 L 98.567993 56.183899 L 97.203003 56.183899 L 96.524994 53.469894 C 96.309006 52.605896 95.533005 51.999893 94.643005 51.999893 C 94.473999 51.999893 94.311996 52.024902 94.156998 52.063904 C 94.003006 52.024902 93.841003 51.999893 93.671997 51.999893 C 92.781998 51.999893 92.005997 52.605896 91.789993 53.469894 L 91.112 56.183899 L 89.746994 56.183899 L 89.069 53.469894 C 88.852997 52.605896 88.076996 51.999893 87.186996 51.999893 C 87.018005 51.999893 86.856003 52.024902 86.701004 52.063904 C 86.546005 52.024902 86.384995 51.999893 86.216003 51.999893 C 85.326004 51.999893 84.550003 52.605896 84.334 53.469894 L 83.654999 56.183899 L 80.115997 56.183899 C 80.113007 51.776901 76.526001 48.193893 72.119003 48.193893 L 56.225998 48.193893 C 55.563995 48.162903 51.931 47.999893 47.759995 47.999893 C 44.063995 47.999893 41.029007 48.128906 38.738998 48.381897 C 26.324997 49.758896 15.990997 58.817902 13.024994 70.924896 C 12.363007 73.6259 12.082001 76.411896 12.184006 79.223907 C 11.173996 81.560898 8.998001 87.726898 11.604004 92.643906 C 10.393997 95.809906 8.462006 102.052902 8.192001 110.190903 C 8.141006 111.721893 8.529999 113.227905 9.287003 114.526901 C 7.714996 118.239899 6.647003 125.251892 11.893005 136.455902 C 9.067001 148.191895 17.817001 159.027893 20.552994 162.060898 C 25.052994 177.4729 42.009995 185.706909 45.886993 187.411896 C 54.697006 195.702911 70.466995 199.715912 71.149002 199.885895 L 71.626007 200.004898 L 72.119003 200.004898 L 91.779999 200.004898 C 94.186005 200.392899 108.248993 202.564911 126.759003 203.531891 C 129.945007 208.608902 135.576996 211.999908 142 211.999908 C 148.345001 211.999908 153.921997 208.691895 157.127991 203.717896 C 176.488998 202.889893 189.921005 200.480896 192.423996 200.004898 C 201.747009 199.968903 209.938004 198.620911 216.912994 195.999908 L 220 195.999908 C 225.585999 195.999908 230.298996 192.1259 231.619003 186.935898 C 244.781006 174.353912 244.785995 156.644897 244.248001 150.013901 C 247.667007 146.014893 248 137.292908 248 134.085907 C 248 131.366898 247.761002 124.680893 245.602997 120.272903 C 247.035004 117.738907 248 113.815903 248 108.120895 C 248 102.549896 247.076996 98.674896 245.695007 96.135895 C 247.076996 93.5979 248 89.721893 248 84.151901 Z"/>
    <path id="path1" fill="#ffffff" stroke="none" d="M 24 76 C 24 67.177994 31.177999 60 40 60 C 48.821999 60 56 67.177994 56 76 C 56 84.822006 48.821999 92 40 92 C 31.177999 92 24 84.822006 24 76 M 60 76 C 60 64.953995 51.045998 56 40 56 C 28.954 56 20 64.953995 20 76 C 20 87.046005 28.954 96 40 96 C 51.045998 96 60 87.046005 60 76"/>
    <path id="path2" fill="#ffffff" stroke="none" d="M 106 172 C 109.308998 172 112 174.69101 112 178 C 112 181.30899 109.308998 184 106 184 C 102.691002 184 100 181.30899 100 178 C 100 174.69101 102.691002 172 106 172 M 106 188 C 111.523003 188 116 183.522003 116 178 C 116 172.477997 111.523003 168 106 168 C 100.476997 168 96 172.477997 96 178 C 96 183.522003 100.476997 188 106 188"/>
</svg>
