<?xml version="1.0" encoding="UTF-8"?>
<!-- Generated by Pixelmator Pro 3.7.1 -->
<svg width="256" height="256" viewBox="0 0 256 256" xmlns="http://www.w3.org/2000/svg">
    <path id="Path" fill="#ffffff" stroke="none" d="M 128 52 C 66.143997 52 16 64.535995 16 80 L 16 204 L 240 204 L 240 80 C 240 64.535995 189.854996 52 128 52 M 128 56 C 157.598999 56 185.380005 58.869995 206.225998 64.082001 C 228.201996 69.576004 236 76.089996 236 80 L 236 200 L 20 200 L 20 80 C 20 76.089996 27.797997 69.576004 49.774002 64.082001 C 70.619995 58.869995 98.401001 56 128 56"/>
    <path id="path1" fill="#ffffff" stroke="none" d="M 60 67.416504 C 60 68.669495 61.133999 69.607498 62.366001 69.379501 C 81.239998 65.891495 104.014999 63.999496 128 63.999496 C 151.985001 63.999496 174.761002 65.891495 193.634003 69.379501 C 194.865997 69.607498 196 68.669495 196 67.416504 L 196 67.416504 C 196 66.451508 195.320007 65.621506 194.373001 65.446503 C 175.796997 62.023499 152.846008 59.999496 128 59.999496 C 103.153999 59.999496 80.203003 62.023499 61.626999 65.446503 C 60.679001 65.621506 60 66.451508 60 67.416504 Z"/>
    <path id="path2" fill="#ffffff" stroke="none" d="M 46 72 C 42.687 72 40 74.686996 40 78 C 40 81.313004 42.687 84 46 84 C 49.313 84 52 81.313004 52 78 C 52 74.686996 49.313 72 46 72 M 46 76 C 47.103001 76 48 76.897003 48 78 C 48 79.102997 47.103001 80 46 80 C 44.896999 80 44 79.102997 44 78 C 44 76.897003 44.896999 76 46 76"/>
    <path id="path3" fill="#ffffff" stroke="none" d="M 128 88 C 98.363998 88 72.701996 94.251007 60.171997 103.369003 C 56.053001 106.367004 51.106003 108 46.011002 108 L 40 108 C 35.582001 108 32 111.582001 32 116 L 32 160 C 32 171.04599 40.954002 180 52 180 L 204 180 C 215.04599 180 224 171.04599 224 160 L 224 116 C 224 111.582001 220.417999 108 216 108 L 209.988998 108 C 204.894989 108 199.946991 106.367004 195.826996 103.369003 C 183.298004 94.251007 157.636002 88 128 88 M 128 92 C 155.583008 92 181.283005 97.731995 193.473999 106.602997 C 198.324997 110.134003 204.036011 112 209.988998 112 L 216 112 C 218.205994 112 220 113.794006 220 116 L 220 160 C 220 168.821991 212.821991 176 204 176 L 52 176 C 43.178001 176 36 168.821991 36 160 L 36 116 C 36 113.794006 37.793999 112 40 112 L 46.011002 112 C 51.962997 112 57.674004 110.134003 62.526001 106.602997 C 74.716995 97.731995 100.417 92 128 92"/>
</svg>
