<?xml version="1.0" encoding="UTF-8"?>
<!-- Generated by Pixelmator Pro 3.7.1 -->
<svg width="256" height="256" viewBox="0 0 256 256" xmlns="http://www.w3.org/2000/svg">
    <path id="Path" fill="#ffffff" stroke="none" d="M 180 156 C 180 160.411011 176.410995 164 172 164 L 80 164 C 75.588997 164 72 160.411011 72 156 L 72 76 C 72 71.588989 75.588997 68 80 68 L 172 68 C 176.410995 68 180 71.588989 180 76 Z M 145.283005 176 L 110.717003 176 C 114.170998 171.222992 120.604004 168 128 168 C 135.395996 168 141.828995 171.222992 145.283005 176 M 157.082001 180 C 158.468994 182.386993 161.046997 184 164 184 C 166.953003 184 169.531006 182.386993 170.917999 180 L 176 180 C 178.199997 180 180 181.800003 180 184 C 180 186.199997 178.199997 188 176 188 L 170.917999 188 C 169.531006 185.613007 166.953003 184 164 184 C 161.046997 184 158.468994 185.613007 157.082001 188 L 151.516998 188 L 147.345001 188 L 108.655998 188 L 104.483002 188 L 94.917 188 C 93.531998 185.613007 90.953003 184 88 184 C 85.046997 184 82.468002 185.613007 81.083 188 L 76 188 C 73.800003 188 72 186.199997 72 184 C 72 181.800003 73.800003 180 76 180 L 81.083 180 C 82.468002 182.386993 85.046997 184 88 184 C 90.953003 184 93.531998 182.386993 94.917 180 L 104.483002 180 L 108.655998 180 L 147.345001 180 L 151.516998 180 Z M 160.313995 174.442993 C 160.516998 173.964996 160.809998 173.533005 161.171997 173.171997 C 161.352997 172.98999 161.550995 172.826996 161.764008 172.68399 C 162.188995 172.395996 162.673004 172.186996 163.192993 172.080994 C 163.453995 172.028 163.723999 172 164 172 C 166.209 172 168 173.791 168 176 C 168 178.209 166.209 180 164 180 C 161.791 180 160 178.209 160 176 C 160 175.446991 160.112 174.921997 160.313995 174.442993 M 164 196 C 163.723999 196 163.453995 195.972 163.192993 195.919006 C 162.673004 195.813004 162.188995 195.604004 161.764008 195.31601 C 161.550995 195.173004 161.352997 195.009995 161.171997 194.828003 C 160.809998 194.466995 160.516998 194.035004 160.313995 193.557007 C 160.112 193.078003 160 192.553009 160 192 C 160 189.791 161.791 188 164 188 C 166.209 188 168 189.791 168 192 C 168 194.209 166.209 196 164 196 M 128 200 C 120.604004 200 114.170998 196.777008 110.717003 192 L 145.283005 192 C 141.828995 196.777008 135.395996 200 128 200 M 88 196 C 87.723999 196 87.454002 195.972 87.194 195.919006 C 86.672997 195.813004 86.189003 195.604004 85.764 195.31601 C 85.551003 195.173004 85.352997 195.009995 85.170998 194.828003 C 84.809998 194.466995 84.516998 194.035004 84.314003 193.557007 C 84.112 193.078003 84 192.553009 84 192 C 84 189.791 85.791 188 88 188 C 90.209 188 92 189.791 92 192 C 92 194.209 90.209 196 88 196 M 84.314003 174.442993 C 84.516998 173.964996 84.809998 173.533005 85.170998 173.171997 C 85.352997 172.98999 85.551003 172.826996 85.764 172.68399 C 86.189003 172.395996 86.672997 172.186996 87.194 172.080994 C 87.454002 172.028 87.723999 172 88 172 C 90.209 172 92 173.791 92 176 C 92 178.209 90.209 180 88 180 C 85.791 180 84 178.209 84 176 C 84 175.446991 84.112 174.921997 84.314003 174.442993 M 172 64 L 80 64 C 73.373001 64 68 69.373001 68 76 L 68 156 C 68 162.626999 73.373001 168 80 168 L 88 168 L 113.650002 168 C 110.347 170.063004 107.706001 172.813004 106.028 176 L 96 176 C 96 171.588989 92.411003 168 88 168 C 83.588997 168 80 171.588989 80 176 L 76 176 C 71.588997 176 68 179.589005 68 184 C 68 188.410995 71.588997 192 76 192 L 80 192 C 80 196.410995 83.588997 200 88 200 C 92.411003 200 96 196.410995 96 192 L 106.028 192 C 109.740997 199.053009 118.181999 204 128 204 C 137.817993 204 146.259003 199.053009 149.972 192 L 156 192 C 156 196.410995 159.589005 200 164 200 C 168.410995 200 172 196.410995 172 192 L 176 192 C 180.410995 192 184 188.410995 184 184 C 184 179.589005 180.410995 176 176 176 L 172 176 C 172 171.588989 168.410995 168 164 168 C 159.589005 168 156 171.588989 156 176 L 149.972 176 C 148.294006 172.813004 145.653 170.063004 142.350006 168 L 164 168 L 172 168 C 178.626999 168 184 162.626999 184 156 L 184 76 C 184 69.373001 178.626999 64 172 64"/>
    <path id="path1" fill="#ffffff" stroke="none" d="M 84 80 L 168 80 L 168 156 L 84 156 Z M 80 160 L 172 160 L 172 76 L 80 76 Z"/>
    <path id="path2" fill="#ffffff" stroke="none" d="M 208.996094 167.651398 L 188.876099 153.574402 C 188.479095 155.003403 188.223099 156.454407 188.097107 157.911407 L 207.642105 171.586395 C 208.179092 170.324402 208.633102 169.011398 208.996094 167.651398"/>
    <path id="path3" fill="#ffffff" stroke="none" d="M 208.846695 138.25589 L 206.521698 136.628906 C 204.919693 137.004898 203.356705 137.546906 201.854706 138.245911 L 209.228699 143.4039 C 209.109695 141.728897 208.981705 140.010895 208.846695 138.25589"/>
    <path id="path4" fill="#ffffff" stroke="none" d="M 210 160 C 210 159.541 209.996002 159.067993 209.990005 158.583008 L 192.339005 146.233002 C 191.557007 147.350998 190.889999 148.514008 190.322006 149.705002 L 209.807999 163.337006 C 209.929993 162.248993 210 161.139008 210 160"/>
    <path id="path5" fill="#ffffff" stroke="none" d="M 189.669907 168.775391 L 203.573898 178.503403 C 204.383896 177.455399 205.134903 176.349396 205.818893 175.191406 L 188.177902 162.849396 C 188.421906 164.876404 188.921906 166.868408 189.669907 168.775391"/>
    <path id="path6" fill="#ffffff" stroke="none" d="M 209.569305 148.525391 L 198.048294 140.464401 C 196.937302 141.257401 195.886307 142.154404 194.908295 143.149399 L 209.839294 153.594391 C 209.768295 151.987396 209.6763 150.293396 209.569305 148.525391"/>
    <path id="path7" fill="#ffffff" stroke="none" d="M 220 114 C 220 110.686996 222.686996 108 226 108 C 229.313004 108 232 110.686996 232 114 C 232 117.313004 229.313004 120 226 120 C 222.686996 120 220 117.313004 220 114 M 240 172 C 240 172 236.597992 189.013 220.376999 191.656006 C 216.266006 192.326996 212.179993 193.14801 208.166 194.264008 C 201.746994 196.046997 191.910004 198.632996 180.653 201.080994 C 181.320999 199.578003 183.164001 197.828003 189.264999 195.794998 C 196.143997 193.501999 203.302002 188.712997 208.479004 181.93399 L 211.406998 183.983002 C 213.455002 184.031998 215.498001 183.819 217.485001 183.354004 L 210.735992 178.632004 C 211.429993 177.494003 212.065994 176.311005 212.641998 175.083008 L 222.151993 181.737 C 223.477997 181.119995 224.753006 180.380997 225.959 179.518997 L 214.175995 171.274002 C 214.619995 169.945999 214.983994 168.571991 215.272995 167.160995 L 229.098999 176.833008 C 230.022995 175.891998 230.886993 174.867004 231.669006 173.75 L 215.889999 162.709991 C 215.955994 161.819 216 160.917999 216 160 C 216 159.324997 215.990997 158.615005 215.977997 157.890991 L 233.684998 170.278 C 234.283997 169.018005 234.766998 167.723999 235.130997 166.408005 L 215.811996 152.893005 C 215.738007 151.274002 215.645996 149.580994 215.537003 147.817993 L 235.910004 162.071991 C 236.052994 160.421997 236.026001 158.768005 235.828995 157.134003 L 215.192993 142.695999 C 215.072998 141.018005 214.944 139.298004 214.809998 137.54599 L 234.337006 151.208008 C 232.671005 146.959991 229.779999 143.139008 225.761993 140.326004 C 222.360001 137.945999 218.556 136.585999 214.701996 136.153992 C 214.526993 133.925995 214.345993 131.652008 214.160995 129.35199 C 216.748993 127.485992 218.671005 124.761002 219.516998 121.600006 C 221.264999 123.091995 223.526001 124 226 124 C 231.514008 124 236 119.514008 236 114 C 236 108.485992 231.514008 104 226 104 C 222.110992 104 218.742004 106.235992 217.089005 109.485001 C 215.845001 107.873001 214.263 106.531998 212.442001 105.583008 C 212.171997 100.701996 212 96.096008 212 92 C 212 90.824005 211.929001 89.399002 211.735001 87.731003 C 212.464005 87.901001 213.220001 88 214 88 C 219.514008 88 224 83.514008 224 78 C 224 72.485992 219.514008 68 214 68 C 211.356003 68 208.957001 69.037994 207.166992 70.718994 C 204.671997 64.376999 200.949005 56.821991 195.421005 48 L 198.110992 48 C 205.643997 48.199997 219.951004 50.535995 228 72 C 240 104 244 140 240 172 M 210.988998 83.184998 C 209.203995 82.145004 208 80.214996 208 78 C 208 76.938995 208.277008 75.945007 208.761002 75.080002 L 208.761002 75.080002 C 208.878998 74.867996 209.013 74.666 209.154999 74.471008 C 209.179993 74.436996 209.203995 74.403992 209.229004 74.371002 C 209.367004 74.190002 209.514008 74.015991 209.671005 73.852005 C 209.682999 73.839996 209.692993 73.828003 209.703995 73.81601 C 209.876999 73.638 210.061996 73.472 210.255005 73.317001 C 210.279999 73.296005 210.307999 73.278 210.334 73.257996 C 210.496994 73.130997 210.666992 73.014008 210.843994 72.903992 C 210.893005 72.873993 210.940002 72.843994 210.990005 72.815002 C 211.179993 72.705002 211.375 72.602997 211.576996 72.514008 C 211.597 72.505005 211.613998 72.494995 211.634003 72.485992 C 211.854004 72.391998 212.083008 72.311996 212.315002 72.244003 C 212.375 72.227005 212.436005 72.212997 212.494995 72.197998 C 212.675003 72.151001 212.858002 72.113007 213.044998 72.083008 C 213.115005 72.071991 213.184006 72.059998 213.253998 72.050995 C 213.498993 72.020996 213.746994 72 214 72 C 217.313004 72 220 74.686996 220 78 C 220 78.207001 219.988998 78.412003 219.968994 78.613007 C 219.824997 80.024994 219.192001 81.291992 218.242004 82.242996 C 217.156998 83.328995 215.656998 84 214 84 C 213.748993 84 213.503998 83.979004 213.261002 83.949997 C 213.199005 83.942001 213.139999 83.932007 213.078995 83.921997 C 212.880005 83.891998 212.684998 83.850998 212.492996 83.802002 C 212.451996 83.791 212.410995 83.781998 212.371002 83.770004 C 211.882004 83.632004 211.419006 83.434998 210.988998 83.184998 M 213.757996 124.304993 C 212.751999 125.541992 211.455994 126.531998 209.973999 127.175003 C 209.376999 127.434006 208.75 127.636002 208.100006 127.774994 C 208.085007 127.778 208.070999 127.783005 208.057007 127.785995 C 207.766998 127.847 207.470001 127.891006 207.169998 127.925995 C 207.126007 127.931 207.084 127.940994 207.039001 127.945999 C 206.697006 127.981003 206.352005 128 206 128 C 200.477997 128 196 123.522995 196 118 C 196 112.477005 200.477997 108 206 108 C 206.429993 108 206.850006 108.035995 207.264999 108.087997 C 207.317001 108.095993 207.369003 108.104004 207.421997 108.113007 C 209.462997 108.404007 211.300995 109.307999 212.75 110.636993 C 212.998001 110.865005 213.233994 111.104004 213.459 111.356003 C 213.460999 111.356995 213.462006 111.358994 213.462997 111.360001 C 213.682007 111.606003 213.889008 111.862 214.083008 112.128998 C 214.091003 112.139999 214.098999 112.149002 214.104996 112.160004 C 214.289001 112.414001 214.460007 112.677002 214.619995 112.947998 C 214.634995 112.973999 214.651001 113 214.666992 113.026001 C 214.813004 113.279999 214.947006 113.542007 215.070007 113.809998 C 215.091995 113.854996 215.115997 113.899994 215.136993 113.945999 C 215.246994 114.195999 215.345001 114.451996 215.436005 114.710999 C 215.459 114.779007 215.485992 114.843994 215.509003 114.912003 C 215.587997 115.156998 215.651993 115.408005 215.712997 115.660004 C 215.733994 115.744995 215.759995 115.828003 215.778 115.914001 C 215.832001 116.164001 215.867996 116.421005 215.901993 116.677994 C 215.914001 116.768005 215.934006 116.854004 215.942993 116.945007 C 215.979004 117.292007 216 117.643997 216 118 C 216 118.324005 215.981003 118.643005 215.951004 118.959 C 215.940994 119.065994 215.923004 119.171005 215.908997 119.278 C 215.882996 119.483994 215.854004 119.688004 215.815994 119.889999 C 215.791992 120.016998 215.761993 120.141006 215.731995 120.266006 C 215.690994 120.442001 215.647995 120.615997 215.598007 120.787994 C 215.559998 120.921997 215.518005 121.052994 215.473999 121.184998 C 215.421005 121.341003 215.363007 121.496002 215.304001 121.647995 C 215.25 121.783997 215.195999 121.919006 215.138 122.052002 C 215.074005 122.192993 215.005997 122.332001 214.936996 122.468994 C 214.869003 122.604004 214.802994 122.740005 214.729004 122.871002 C 214.658005 122.998001 214.580002 123.119995 214.503998 123.242996 C 214.281006 123.602997 214.042999 123.951004 213.778 124.278 C 213.770996 124.287003 213.766006 124.296005 213.757996 124.304993 M 176.285004 202.005997 L 175.975006 202.070007 C 175.261002 202.218002 174.542999 202.363007 173.820999 202.507996 C 173.576996 202.557007 173.334 202.606003 173.089005 202.654999 C 172.343994 202.804001 171.593002 202.949005 170.839996 203.095001 C 170.617004 203.138 170.395004 203.182007 170.171005 203.225006 C 169.369003 203.377991 168.561996 203.528 167.753998 203.678009 C 167.574997 203.710999 167.397995 203.744003 167.221008 203.776001 C 164.238998 204.321991 161.218994 204.837006 158.188004 205.307999 C 157.975006 205.341003 157.759995 205.372009 157.546005 205.403992 C 156.770996 205.52301 155.994995 205.640991 155.220001 205.752991 C 154.895996 205.800003 154.570999 205.843994 154.247009 205.889999 C 153.582001 205.983002 152.917999 206.076996 152.253998 206.166 C 151.878998 206.216003 151.503998 206.264008 151.127991 206.313004 C 150.513 206.393005 149.897003 206.471008 149.28299 206.54599 C 148.886002 206.595001 148.488998 206.640991 148.09201 206.688004 C 147.501999 206.757004 146.912994 206.824005 146.324005 206.889008 C 145.915009 206.93399 145.505997 206.97699 145.097992 207.019989 C 144.52301 207.07901 143.951996 207.136002 143.380997 207.19101 C 142.966003 207.230011 142.552002 207.269989 142.139008 207.307007 C 141.572998 207.356995 141.011002 207.404999 140.449005 207.450989 C 140.040009 207.484009 139.630997 207.518005 139.223999 207.548004 C 138.656998 207.589996 138.096008 207.627991 137.53299 207.664001 C 137.136993 207.690002 136.738007 207.718002 136.343994 207.73999 C 135.765991 207.774002 135.192001 207.802002 134.619003 207.82901 C 134.25 207.847 133.878998 207.867004 133.513 207.882004 C 132.886002 207.906998 132.265991 207.925003 131.645996 207.942001 C 131.341003 207.949997 131.031006 207.962997 130.729004 207.970001 C 129.809998 207.988998 128.899002 208 128 208 C 127.100998 208 126.190002 207.988998 125.272003 207.970001 C 124.968002 207.962997 124.660004 207.949997 124.353996 207.942001 C 123.734001 207.925003 123.113998 207.906998 122.487 207.882004 C 122.121002 207.867004 121.75 207.847 121.380997 207.82901 C 120.807999 207.802002 120.235001 207.774002 119.656998 207.73999 C 119.262001 207.718002 118.862999 207.690002 118.466003 207.664001 C 117.904999 207.627991 117.342003 207.589996 116.776001 207.548004 C 116.369003 207.518005 115.959999 207.484009 115.551003 207.450989 C 114.988998 207.404999 114.427002 207.356995 113.861 207.307007 C 113.447998 207.269989 113.033997 207.230011 112.619003 207.19101 C 112.047997 207.136002 111.475998 207.07901 110.903 207.019989 C 110.494003 206.97699 110.084999 206.93399 109.675003 206.889008 C 109.086998 206.824005 108.498001 206.757004 107.907997 206.688004 C 107.511002 206.640991 107.113998 206.595001 106.716003 206.54599 C 106.102997 206.471008 105.487 206.393005 104.872002 206.313004 C 104.497002 206.264008 104.122002 206.216003 103.746002 206.166 C 103.082001 206.076996 102.417 205.983002 101.752998 205.889999 C 101.429001 205.843994 101.103996 205.800003 100.779999 205.752991 C 100.004997 205.640991 99.228996 205.52301 98.454002 205.403992 C 98.239998 205.372009 98.026001 205.341003 97.811996 205.307999 C 94.780998 204.837006 91.759995 204.321991 88.779999 203.776001 C 88.602005 203.744003 88.425003 203.710999 88.246994 203.678009 C 87.438004 203.528 86.630997 203.377991 85.828995 203.225006 C 85.604996 203.182007 85.382996 203.138 85.160004 203.095001 C 84.406998 202.949005 83.656998 202.804001 82.910995 202.654999 C 82.667007 202.606003 82.423004 202.557007 82.179001 202.507996 C 81.457993 202.363007 80.738998 202.218002 80.026001 202.070007 C 79.921997 202.049011 79.817993 202.027008 79.714005 202.005997 C 79.009995 197.705002 76.554993 194.85199 68 192 C 56 188 44 176 44 160 C 44 153.709 44.619003 144.938995 45.369995 135.403 C 49.227997 134.015991 52 130.330002 52 126 L 52 124 L 54 124 C 59.514008 124 64 119.514008 64 114 C 64 108.485992 59.514008 104 54 104 L 52 104 L 52 102 C 52 98.731995 50.417999 95.834991 47.987 94.009003 C 47.994995 93.328003 48 92.656998 48 92 C 48 91.636993 48.013 91.270004 48.024994 90.902008 C 48.173004 90.815994 48.307999 90.712006 48.447998 90.617004 C 49.535995 93.744995 52.505997 96 56 96 C 60.410995 96 64 92.410995 64 88 C 64 83.589005 60.410995 80 56 80 C 54.352997 80 52.820999 80.501007 51.546997 81.358002 C 51.235992 80.475006 50.778 79.660995 50.197006 78.949005 C 53.850006 66.783005 61.173996 54.436996 65.195999 48.188995 C 72.307007 48.584 87.923004 49.531006 101.804001 50.382996 C 101.887001 50.388 101.969002 50.393005 102.053001 50.397995 C 105.871002 50.632004 109.553001 50.859009 112.884003 51.063995 C 113.014 51.071991 113.142998 51.080002 113.271004 51.087997 C 116.569 51.291992 119.511002 51.473999 121.879997 51.621002 C 121.928001 51.623993 121.978996 51.626007 122.026001 51.628998 C 123.292 51.708008 124.389999 51.776001 125.287003 51.832001 C 125.311996 51.833008 125.333 51.834 125.358002 51.835999 C 126.054001 51.878998 126.620003 51.914001 127.052002 51.94101 C 127.220001 51.951996 127.367996 51.960999 127.492996 51.968002 C 127.821999 51.988998 128 52 128 52 C 128 52 128.178009 51.988998 128.507004 51.968002 C 128.632004 51.960999 128.779999 51.951996 128.947998 51.94101 C 129.380005 51.914001 129.945999 51.878998 130.641998 51.835999 C 130.666 51.834 130.688004 51.833008 130.712997 51.832001 C 131.610001 51.776001 132.709 51.708008 133.975006 51.628998 C 134.020996 51.626007 134.071991 51.623993 134.119003 51.621002 C 136.488998 51.473999 139.431 51.291992 142.729004 51.087997 C 142.856995 51.080002 142.985001 51.071991 143.115997 51.063995 C 146.446991 50.859009 150.128998 50.632004 153.946991 50.397995 C 154.029999 50.393005 154.113007 50.388 154.195999 50.382996 C 168.076996 49.531006 183.692993 48.584 190.804001 48.188995 C 194.384995 53.751999 200.584 64.149002 204.479996 74.947998 C 204.171005 75.910995 204 76.936005 204 78 C 204 80.972992 205.311996 83.639999 207.378006 85.472992 C 207.772995 87.708008 208 89.899002 208 92 C 208 95.716995 208.139008 99.848999 208.363007 104.214996 C 207.593994 104.083008 206.807007 104 206 104 C 198.279999 104 192 110.279999 192 118 C 192 125.720001 198.279999 132 206 132 C 207.503006 132 208.947998 131.755997 210.306 131.315002 C 211.194 142.412003 212 152.817993 212 160 C 212 176 200 188 188 192 C 179.444 194.85199 176.990005 197.705002 176.285004 202.005997 M 32 92 C 29.791 92 28 90.209 28 88 C 28 85.791 29.791 84 32 84 C 34.209 84 36 85.791 36 88 C 36 90.209 34.209 92 32 92 M 39.542999 90.639999 C 40.817993 91.498001 42.350998 92 44 92 C 44 92.065994 43.998993 92.134995 43.998993 92.201004 C 43.352997 92.070007 42.684998 92 42 92 C 40.768005 92 39.591995 92.233994 38.501007 92.643997 C 38.938004 92.033997 39.289993 91.360001 39.542999 90.639999 M 54 108 C 57.313004 108 60 110.686996 60 114 C 60 117.313004 57.313004 120 54 120 L 48 120 L 48 126 C 48 126.223999 47.985001 126.444 47.962006 126.662003 C 47.953995 126.729004 47.940994 126.794998 47.931 126.862 C 47.910004 127.011993 47.886002 127.160004 47.852997 127.306 C 47.837006 127.380005 47.815994 127.451996 47.796997 127.524994 C 47.761002 127.662003 47.722 127.798004 47.677002 127.931 C 47.653 128 47.626999 128.069 47.600998 128.136993 C 47.548996 128.27301 47.492996 128.406006 47.431 128.537994 C 47.403 128.596008 47.376007 128.654999 47.347 128.712997 C 47.274002 128.856003 47.195007 128.994995 47.110992 129.130997 C 47.085999 129.171997 47.063004 129.212997 47.037003 129.252991 C 46.927002 129.423004 46.809998 129.587006 46.684998 129.744003 C 46.681 129.748001 46.677994 129.751999 46.675003 129.757004 C 45.574997 131.123001 43.891006 132 42 132 C 41.475998 132 40.970993 131.925995 40.487 131.800003 C 40.485992 131.800003 40.483994 131.800003 40.483002 131.798996 C 40.302002 131.751999 40.125 131.695999 39.949997 131.632996 C 39.945007 131.630997 39.940002 131.630005 39.936005 131.627991 C 39.766006 131.565002 39.598999 131.496002 39.436996 131.419006 C 39.427994 131.414001 39.417999 131.410004 39.410004 131.404999 C 39.251999 131.330002 39.100006 131.248993 38.949997 131.160004 C 38.934998 131.151001 38.919998 131.143005 38.904999 131.132996 C 38.764008 131.048004 38.625 130.957001 38.490997 130.860001 C 38.470001 130.845001 38.449997 130.82901 38.429001 130.813004 C 38.302994 130.720001 38.179993 130.623001 38.063004 130.520004 C 38.035004 130.496002 38.009003 130.471008 37.981995 130.446991 C 37.873001 130.348999 37.766998 130.248001 37.666 130.141998 C 37.632996 130.106995 37.602997 130.071991 37.570999 130.037994 C 37.479004 129.936996 37.388 129.834 37.302994 129.72699 C 37.266998 129.682007 37.233994 129.63501 37.199997 129.589996 C 37.123993 129.487 37.048004 129.38501 36.977997 129.277008 C 36.940002 129.221008 36.906998 129.160004 36.871002 129.102997 C 36.809998 129.001007 36.748993 128.901001 36.692993 128.79599 C 36.656006 128.725998 36.625 128.653 36.589996 128.580994 C 36.542999 128.483002 36.494995 128.386002 36.453003 128.286011 C 36.417999 128.201004 36.389999 128.113007 36.358002 128.026001 C 36.324997 127.934006 36.289001 127.843002 36.261002 127.748001 C 36.229004 127.645996 36.207001 127.541992 36.181 127.438004 C 36.160004 127.354004 36.134995 127.270996 36.117996 127.186005 C 36.093002 127.059998 36.076996 126.932007 36.059998 126.802994 C 36.050995 126.735992 36.037003 126.669998 36.029999 126.602997 C 36.011002 126.404007 36 126.203995 36 126 L 36 120 L 30 120 C 26.686996 120 24 117.313004 24 114 C 24 110.686996 26.686996 108 30 108 L 36 108 L 36 102 C 36 98.686996 38.686996 96 42 96 C 42.319 96 42.630997 96.031998 42.936996 96.080002 C 42.970001 96.085999 43.003998 96.089996 43.037994 96.096008 C 45.595993 96.541992 47.591995 98.604996 47.940002 101.195999 C 47.942993 101.218994 47.947998 101.242004 47.951004 101.266006 C 47.979996 101.507004 48 101.751007 48 102 L 48 108 Z M 44 88 C 41.791 88 40 86.209 40 84 C 40 81.791 41.791 80 44 80 C 46.209 80 48 81.791 48 84 C 48 86.209 46.209 88 44 88 M 56 84 C 58.209 84 60 85.791 60 88 C 60 90.209 58.209 92 56 92 C 53.791 92 52 90.209 52 88 C 52 85.791 53.791 84 56 84 M 47.834 194.264008 C 43.820007 193.14801 39.735001 192.326996 35.623001 191.656006 C 19.401993 189.013 16 172 16 172 C 12 140 16 104 28 72 C 36.048996 50.535995 50.356003 48.199997 57.889008 48 L 60.580002 48 C 53.257996 59.682999 49.098007 69.147995 46.774994 76.505997 C 45.908997 76.184998 44.977005 76 44 76 C 40.514999 76 37.550995 78.244003 36.457001 81.360001 C 35.182007 80.501999 33.649002 80 32 80 C 27.589005 80 24 83.589005 24 88 C 24 92.410995 27.589005 96 32 96 C 32.787994 96 33.548004 95.880997 34.268005 95.667999 C 32.852005 97.393997 32 99.598999 32 102 L 32 104 L 30 104 C 24.485992 104 20 108.485992 20 114 C 20 119.514008 24.485992 124 30 124 L 32 124 L 32 126 C 32 131.281998 36.119995 135.609009 41.313004 135.964996 C 40.585999 145.252991 40 153.761002 40 160 C 40 178.471008 53.858994 191.502991 66.735001 195.794998 C 72.835999 197.828003 74.677994 199.578003 75.347 201.080994 C 64.089996 198.632996 54.251999 196.046997 47.834 194.264008 M 231.744995 70.596008 C 227.908005 60.363998 222.244003 52.959991 214.908997 48.589996 C 210.011002 45.669998 204.550995 44.169006 198.218002 44.001007 L 198.164001 44 L 198.110992 44 L 194.647995 44 C 194.445999 44 193.841003 44.026001 192.912003 44.072998 L 192.906998 44.06601 L 190.582001 44.195007 C 187.003998 44.393997 181.235001 44.735001 174.609009 45.134003 C 156.766998 46.205994 132.803009 47.692993 128 47.992004 C 123.196999 47.692993 99.233002 46.205994 81.391006 45.134003 C 74.764999 44.735001 68.996002 44.393997 65.417007 44.195007 L 63.093002 44.06601 L 63.087997 44.072998 C 62.158997 44.026001 61.552994 44 61.352005 44 L 57.889008 44 L 57.835999 44 L 57.783005 44.001007 C 51.449997 44.169006 45.990005 45.669998 41.089996 48.589996 C 33.755997 52.959991 28.091003 60.363998 24.255005 70.596008 C 12.182007 102.789001 7.841003 138.977997 12.031006 172.496002 L 12.048996 172.641998 L 12.078003 172.783997 C 12.238998 173.589996 16.238998 192.550995 34.979004 195.604004 C 39.438004 196.330994 43.292007 197.153 46.764008 198.117996 C 53.209 199.908997 63.889999 202.718994 76.207993 205.343994 L 76.212006 205.367004 L 78.904007 205.924011 C 95.730003 209.406006 110.338997 211.402008 122.447998 211.882996 C 122.509003 211.88501 122.570999 211.889008 122.632004 211.890991 C 123.400002 211.92099 124.153999 211.942001 124.901001 211.959 C 125.060997 211.962997 125.222 211.970001 125.379997 211.972992 C 126.267998 211.98999 127.141998 212 128 212 C 128.858002 212 129.731995 211.98999 130.619003 211.972992 C 130.778 211.970001 130.938995 211.962997 131.098999 211.959 C 131.846008 211.942001 132.600006 211.92099 133.367996 211.890991 C 133.429001 211.889008 133.48999 211.88501 133.552002 211.882996 C 145.661011 211.402008 160.270996 209.406006 177.096008 205.924011 L 179.787994 205.367004 L 179.791992 205.343994 C 192.110001 202.718994 202.790009 199.908997 209.235992 198.117996 C 212.708008 197.153 216.561996 196.330994 221.020996 195.604004 C 239.761002 192.550995 243.761002 173.589996 243.921997 172.783997 L 243.951004 172.641998 L 243.968994 172.496002 C 248.158997 138.977997 243.817001 102.789001 231.744995 70.596008"/>
</svg>
