<?xml version="1.0" encoding="UTF-8"?>
<!-- Generated by Pixelmator Pro 3.7.1 -->
<svg width="256" height="256" viewBox="0 0 256 256" xmlns="http://www.w3.org/2000/svg">
    <path id="Path" fill="#ffffff" stroke="none" d="M 207.949203 124.863297 L 203.960205 199.610306 L 203.494202 202.8703 C 194.271194 210.179306 188.314194 223.722305 185.619202 231.025299 L 182.891205 232.116302 L 131.7202 240.000305 L 124.336205 240.000305 L 73.1082 232.116302 L 70.314209 230.998306 C 67.620209 223.707306 61.688198 210.236298 52.513195 202.924301 L 52.040203 199.610306 L 48.051205 124.866302 C 48.017193 124.222305 48.000195 123.568298 48.000195 122.925293 L 48.056194 48.285294 L 48.687206 43.869293 C 54.036205 38.855301 62.554195 29.883301 66.523209 20.384308 L 68.576202 19.973297 L 128.000198 16.0103 L 187.424194 19.973297 L 189.415207 20.372299 C 193.398193 29.915298 201.974197 38.925293 207.321198 43.930298 L 207.943207 48.285294 L 208.000198 122.922302 C 208.000198 123.567307 207.982193 124.221298 207.949203 124.863297 M 201.619202 215.987305 C 200.811203 221.6353 197.019196 226.461304 191.721207 228.580307 L 190.687195 228.994293 C 193.322205 222.647293 197.3862 214.787308 202.592194 209.1763 Z M 64.272202 228.581299 C 58.976192 226.462296 55.185192 221.636307 54.379192 215.987305 L 53.413204 209.223297 C 56.568203 212.621307 59.590206 217.146301 62.362194 222.668304 C 63.474194 224.884308 64.429199 227.031296 65.224197 228.962296 Z M 50.014202 34.573303 C 50.920193 28.233307 55.536205 23.068298 61.650204 21.403305 C 58.596203 27.368301 53.780193 33.055298 49.619198 37.340302 Z M 194.376205 21.409302 C 194.590195 21.4673 194.798203 21.537308 195.007202 21.603302 C 195.182205 21.660294 195.360199 21.713303 195.533203 21.775299 C 195.741196 21.850296 195.945206 21.934296 196.1492 22.016296 C 196.3172 22.084305 196.485199 22.151306 196.6492 22.224304 C 196.851196 22.314301 197.049194 22.412308 197.246201 22.5103 C 197.406204 22.589294 197.565201 22.668304 197.721207 22.752304 C 197.916199 22.8573 198.105194 22.9673 198.294205 23.0793 C 198.446198 23.170303 198.598206 23.2603 198.747208 23.356293 C 198.931198 23.474304 199.112198 23.597305 199.291199 23.722305 C 199.436203 23.823303 199.5802 23.9263 199.721207 24.032303 C 199.895203 24.162308 200.066193 24.296295 200.234207 24.433304 C 200.372192 24.546295 200.509201 24.661301 200.643204 24.778305 C 200.805206 24.919296 200.965195 25.063293 201.121201 25.211304 C 201.252197 25.334305 201.379196 25.461304 201.506195 25.588303 C 201.656204 25.740295 201.803207 25.893295 201.947205 26.050293 C 202.070206 26.184296 202.188202 26.322296 202.306198 26.460297 C 202.444199 26.621307 202.5802 26.783295 202.711197 26.949295 C 202.825195 27.094299 202.934204 27.242294 203.043198 27.391296 C 203.167206 27.560303 203.291199 27.729294 203.408203 27.902298 C 203.512207 28.058304 203.611206 28.218307 203.711197 28.378296 C 203.821198 28.553299 203.931198 28.728302 204.034195 28.908295 C 204.129196 29.073303 204.217194 29.244293 204.305206 29.4133 C 204.401199 29.595306 204.498199 29.776306 204.587204 29.962296 C 204.672195 30.138306 204.747208 30.321304 204.825195 30.501297 C 204.905197 30.686295 204.988205 30.8703 205.062195 31.059296 C 205.1362 31.249298 205.199203 31.445297 205.265198 31.638306 C 205.3302 31.824295 205.398193 32.009308 205.456207 32.198303 C 205.519196 32.407303 205.570206 32.622299 205.625198 32.834305 C 205.672195 33.014297 205.724197 33.191299 205.765198 33.373306 C 205.827194 33.652298 205.874207 33.937302 205.921204 34.221298 C 205.940201 34.339294 205.968201 34.4543 205.984207 34.573303 L 206.389206 37.409302 C 202.211197 33.113297 197.353195 27.389297 194.284195 21.387299 C 194.314194 21.395294 194.3452 21.401306 194.376205 21.409302 M 211.943207 48.000305 L 209.945206 34.008301 C 208.746201 25.613297 202.3862 18.887299 194.073196 17.224304 L 187.951202 16.000305 L 128.028198 12.004303 L 128.028198 12.000305 L 128.000198 12.002304 L 127.971207 12.000305 L 127.971207 12.004303 L 68.048203 16.000305 L 67.997208 16.0103 L 68.000198 16.000305 L 61.875195 17.225296 C 53.560192 18.887299 47.198193 25.613297 45.999203 34.008301 L 44.000195 48.000305 C 44.000195 48.000305 44.023205 47.981293 44.064205 47.948303 L 44.056194 48.000305 L 44.000195 122.922302 C 44.000195 123.640305 44.019207 124.359299 44.056194 125.076294 L 48.055202 200.000305 L 48.060192 200.033295 C 48.039196 200.022293 48.020199 200.009308 48.000195 200.000305 L 50.3652 216.553299 C 51.376202 223.634308 56.094204 229.637299 62.736202 232.294296 L 72.000198 236.000305 C 72.000198 236.000305 71.995209 235.9823 71.99321 235.978302 L 72.047211 236.000305 L 123.727203 243.953293 C 123.9282 243.984299 124.132202 244.000305 124.335205 244.000305 L 131.7202 244.000305 C 131.925201 244.000305 132.128204 243.984299 132.329193 243.953293 L 183.953201 236.000305 L 193.214203 232.294296 C 199.853195 229.637299 204.569199 223.634308 205.581207 216.553299 L 207.944199 200.000305 L 211.943207 125.076294 C 211.981201 124.359299 212.000198 123.640305 212.000198 122.922302 Z"/>
    <path id="path1" fill="#ffffff" stroke="none" d="M 188 68 C 188 70.209 186.209 72 184 72 C 181.791 72 180 70.209 180 68 C 180 65.791 181.791 64 184 64 C 186.209 64 188 65.791 188 68 M 188 52 C 188 54.209 186.209 56 184 56 C 181.791 56 180 54.209 180 52 C 180 49.791 181.791 48 184 48 C 186.209 48 188 49.791 188 52 M 68 54 C 68 50.686996 70.686996 48 74 48 C 77.313004 48 80 50.686996 80 54 C 80 57.313004 77.313004 60 74 60 C 70.686996 60 68 57.313004 68 54 M 191.768005 121.464005 L 184.723007 188.384003 C 184.410995 191.343994 182.501007 193.867996 179.738007 194.973999 L 148.902008 207.309006 C 146.061996 198.354004 137.707001 192.016998 127.964996 192.001007 C 118.235001 192.016998 109.882004 198.354004 107.041 207.309006 L 76.205002 194.973999 C 73.442001 193.869003 71.531998 191.343994 71.220001 188.384003 L 64.176003 121.464005 C 64.066002 120.423004 64.039001 119.365005 64.094002 118.319 L 67.098999 61.220001 C 68.896004 62.938004 71.323997 64 74 64 C 79.514 64 84 59.514008 84 54 C 84 48.485992 79.514 44 74 44 C 71.700996 44 69.585999 44.787994 67.894997 46.097992 L 67.973999 44.596008 L 70.282997 35.360992 C 70.949997 32.692993 72.904999 30.580994 75.514 29.710999 L 79.943001 28.235001 C 80.528 28.041 81.136002 27.912994 81.749001 27.856995 L 123.82 24.033005 C 124.059998 24.011002 124.304001 24 124.543999 24 L 131.455002 24 C 131.695999 24 131.940002 24.011002 132.179993 24.033005 L 174.194 27.856995 C 174.807999 27.912994 175.414993 28.040009 175.998993 28.235001 L 180.429001 29.710999 C 183.037994 30.580994 184.992996 32.692993 185.660004 35.360992 L 187.968994 44.596008 L 187.994003 45.078995 C 186.817001 44.397003 185.455994 44 184 44 C 179.589005 44 176 47.589005 176 52 C 176 56.410995 179.589005 60 184 60 C 185.757004 60 187.378006 59.423996 188.699005 58.460007 L 188.867004 61.666 C 187.518005 60.626007 185.832001 60 184 60 C 179.589005 60 176 63.589005 176 68 C 176 72.410995 179.589005 76 184 76 C 186.134003 76 188.070007 75.154999 189.505997 73.789001 L 191.850006 118.319 C 191.904007 119.365005 191.876999 120.423004 191.768005 121.464005 M 191.942993 44 L 189.541 34.390991 C 188.546005 30.410004 185.585999 27.214005 181.694 25.916992 L 177.264008 24.440002 C 176.386993 24.147003 175.479004 23.958008 174.557007 23.873993 L 132.542999 20.048996 C 132.181 20.016998 131.817993 20 131.455002 20 L 124.543999 20 C 124.181999 20 123.819 20.016998 123.458 20.048996 L 81.387001 23.873993 C 80.464996 23.958008 79.556999 24.147995 78.679001 24.440002 L 74.25 25.916992 C 70.357002 27.214005 67.397003 30.410004 66.402 34.390991 L 64 44 L 60.099998 118.109009 C 60.032997 119.367996 60.066002 120.630005 60.197998 121.882996 L 67.241997 188.803009 C 67.708 193.229004 70.586998 197.035004 74.720001 198.686996 L 108 212 L 110.116997 212 C 111.112 203.011002 118.720001 196.016006 127.972 196.001007 C 137.222992 196.016006 144.830994 203.011002 145.826004 212 L 147.942993 212 L 181.223999 198.686996 C 185.356003 197.033997 188.235001 193.229004 188.701004 188.803009 L 195.744995 121.882996 C 195.876999 120.630005 195.910004 119.367996 195.843994 118.109009 Z"/>
    <path id="path2" fill="#ffffff" stroke="none" d="M 88 40 L 168 40 L 168 176 L 88 176 Z M 172 180 L 172 36 L 84 36 L 84 54 L 84 180 Z"/>
    <path id="path3" fill="#ffffff" stroke="none" d="M 166 224 C 162.686996 224 160 221.313004 160 218 C 160 214.686996 162.686996 212 166 212 C 169.313004 212 172 214.686996 172 218 C 172 221.313004 169.313004 224 166 224 M 166 208 C 160.485992 208 156 212.485992 156 218 C 156 223.514008 160.485992 228 166 228 C 171.514008 228 176 223.514008 176 218 C 176 212.485992 171.514008 208 166 208"/>
    <path id="path4" fill="#ffffff" stroke="none" d="M 128 228 C 121.373001 228 116 222.626999 116 216 C 116 209.373001 121.373001 204 128 204 C 134.626999 204 140 209.373001 140 216 C 140 222.626999 134.626999 228 128 228 M 128 201 C 119.729004 201 113 207.729004 113 216 C 113 224.270996 119.729004 231 128 231 C 136.270996 231 143 224.270996 143 216 C 143 207.729004 136.270996 201 128 201"/>
    <path id="path5" fill="#ffffff" stroke="none" d="M 128 222 C 124.686996 222 122 219.313004 122 216 C 122 212.686996 124.686996 210 128 210 C 131.313004 210 134 212.686996 134 216 C 134 219.313004 131.313004 222 128 222 M 128 207 C 123.037003 207 119 211.037003 119 216 C 119 220.962997 123.037003 225 128 225 C 132.962997 225 137 220.962997 137 216 C 137 211.037003 132.962997 207 128 207"/>
</svg>
