<?xml version="1.0" encoding="UTF-8"?>
<!-- Generated by Pixelmator Pro 3.7.1 -->
<svg width="256" height="256" viewBox="0 0 256 256" xmlns="http://www.w3.org/2000/svg">
    <path id="Path" fill="#ffffff" stroke="none" d="M 172 80 L 84 80 C 57.532997 80 36 101.533005 36 128 L 36 141.654999 C 36 160.593002 51.406998 176 70.345001 176 L 109.580002 176 C 112.953995 176 116.085999 174.324005 117.958 171.516998 L 120.423004 167.817001 C 120.807999 167.240997 121.451004 166.895996 122.145004 166.895996 L 133.854996 166.895996 C 134.548996 166.895996 135.192001 167.240997 135.576996 167.817993 L 137.817001 171.179001 C 139.830002 174.196991 143.197998 176 146.826004 176 L 185.654999 176 C 204.593002 176 220 160.593002 220 141.654999 L 220 128 C 220 101.533005 198.468002 80 172 80 M 172 84 C 196.300995 84 216 103.699997 216 128 L 216 141.654999 C 216 158.414001 202.414001 172 185.654999 172 L 146.826004 172 C 144.544006 172 142.412003 170.859009 141.145996 168.959991 L 138.904999 165.598999 C 137.778992 163.911011 135.884995 162.895996 133.854996 162.895996 L 122.145004 162.895996 C 120.115005 162.895996 118.221001 163.911011 117.095001 165.598999 L 114.628998 169.298004 C 113.502998 170.985992 111.609001 172 109.580002 172 L 70.345001 172 C 53.585999 172 40 158.414001 40 141.654999 L 40 128 C 40 103.699997 59.698997 84 84 84 L 172 84"/>
    <path id="path1" fill="#ffffff" stroke="none" d="M 83.5 92 L 68.5 92 C 66.018997 92 64 94.018997 64 96.5 L 64 104 L 56.5 104 C 54.018997 104 52 106.018997 52 108.5 L 52 123.5 C 52 125.981003 54.018997 128 56.5 128 L 64 128 L 64 135.5 C 64 137.981003 66.018997 140 68.5 140 L 83.5 140 C 85.981003 140 88 137.981003 88 135.5 L 88 128 L 95.5 128 C 97.981003 128 100 125.981003 100 123.5 L 100 108.5 C 100 106.018997 97.981003 104 95.5 104 L 88 104 L 88 96.5 C 88 94.018997 85.981003 92 83.5 92 M 83.5 96 C 83.776001 96 84 96.223999 84 96.5 L 84 108 L 95.5 108 C 95.776001 108 96 108.223999 96 108.5 L 96 123.5 C 96 123.776001 95.776001 124 95.5 124 L 84 124 L 84 135.5 C 84 135.776001 83.776001 136 83.5 136 L 68.5 136 C 68.223999 136 68 135.776001 68 135.5 L 68 124 L 56.5 124 C 56.223999 124 56 123.776001 56 123.5 L 56 108.5 C 56 108.223999 56.223999 108 56.5 108 L 68 108 L 68 96.5 C 68 96.223999 68.223999 96 68.5 96 L 83.5 96"/>
    <path id="path2" fill="#ffffff" stroke="none" d="M 104 136 C 95.178001 136 88 143.178009 88 152 C 88 160.821991 95.178001 168 104 168 C 112.821999 168 120 160.821991 120 152 C 120 143.178009 112.821999 136 104 136 M 104 140 C 110.626999 140 116 145.373001 116 152 C 116 158.626999 110.626999 164 104 164 C 97.373001 164 92 158.626999 92 152 C 92 145.373001 97.373001 140 104 140"/>
    <path id="path3" fill="#ffffff" stroke="none" d="M 152 136 C 143.177994 136 136 143.178009 136 152 C 136 160.821991 143.177994 168 152 168 C 160.822006 168 168 160.821991 168 152 C 168 143.178009 160.822006 136 152 136 M 152 140 C 158.626999 140 164 145.373001 164 152 C 164 158.626999 158.626999 164 152 164 C 145.373001 164 140 158.626999 140 152 C 140 145.373001 145.373001 140 152 140"/>
    <path id="path4" fill="#ffffff" stroke="none" d="M 180 92 C 173.382996 92 168 97.382996 168 104 C 161.382996 104 156 109.382996 156 116 C 156 122.617004 161.382996 128 168 128 C 168 134.617004 173.382996 140 180 140 C 186.617004 140 192 134.617004 192 128 C 198.617004 128 204 122.617004 204 116 C 204 109.382996 198.617004 104 192 104 C 192 97.382996 186.617004 92 180 92 M 180 120 C 184.417999 120 188 123.582001 188 128 C 188 132.417999 184.417999 136 180 136 C 175.582001 136 172 132.417999 172 128 C 172 123.582001 175.582001 120 180 120 M 168 108 C 172.417999 108 176 111.582001 176 116 C 176 120.417999 172.417999 124 168 124 C 163.582001 124 160 120.417999 160 116 C 160 111.582001 163.582001 108 168 108 M 192 108 C 196.417999 108 200 111.582001 200 116 C 200 120.417999 196.417999 124 192 124 C 187.582001 124 184 120.417999 184 116 C 184 111.582001 187.582001 108 192 108 M 180 96 C 184.417999 96 188 99.582001 188 104 C 188 108.417999 184.417999 112 180 112 C 175.582001 112 172 108.417999 172 104 C 172 99.582001 175.582001 96 180 96"/>
    <path id="path5" fill="#ffffff" stroke="none" d="M 119.799797 120 L 108.199799 120 C 105.883797 120 103.999802 121.884003 103.999802 124.199997 L 103.999802 127.800003 C 103.999802 130.115997 105.883797 132 108.199799 132 L 119.799797 132 C 122.115799 132 123.999802 130.115997 123.999802 127.800003 L 123.999802 124.199997 C 123.999802 121.884003 122.115799 120 119.799797 120 M 119.799797 124 C 119.910797 124 119.999802 124.089005 119.999802 124.199997 L 119.999802 127.800003 C 119.999802 127.910995 119.910797 128 119.799797 128 L 108.199799 128 C 108.089798 128 107.999802 127.910995 107.999802 127.800003 L 107.999802 124.199997 C 107.999802 124.089005 108.089798 124 108.199799 124 L 119.799797 124"/>
    <path id="path6" fill="#ffffff" stroke="none" d="M 147.799805 120 L 136.199799 120 C 133.883804 120 131.999802 121.884003 131.999802 124.199997 L 131.999802 127.800003 C 131.999802 130.115997 133.883804 132 136.199799 132 L 147.799805 132 C 150.115799 132 151.999802 130.115997 151.999802 127.800003 L 151.999802 124.199997 C 151.999802 121.884003 150.115799 120 147.799805 120 M 147.799805 124 C 147.909805 124 147.999802 124.089005 147.999802 124.199997 L 147.999802 127.800003 C 147.999802 127.910995 147.909805 128 147.799805 128 L 136.199799 128 C 136.089798 128 135.999802 127.910995 135.999802 127.800003 L 135.999802 124.199997 C 135.999802 124.089005 136.089798 124 136.199799 124 L 147.799805 124"/>
    <path id="path7" fill="#ffffff" stroke="none" d="M 104 144 C 99.582001 144 96 147.582001 96 152 C 96 156.417999 99.582001 160 104 160 C 108.417999 160 112 156.417999 112 152 C 112 147.582001 108.417999 144 104 144 M 104 148 C 106.206001 148 108 149.794006 108 152 C 108 154.205994 106.206001 156 104 156 C 101.793999 156 100 154.205994 100 152 C 100 149.794006 101.793999 148 104 148"/>
    <path id="path8" fill="#ffffff" stroke="none" d="M 152 144 C 147.582001 144 144 147.582001 144 152 C 144 156.417999 147.582001 160 152 160 C 156.417999 160 160 156.417999 160 152 C 160 147.582001 156.417999 144 152 144 M 152 148 C 154.205994 148 156 149.794006 156 152 C 156 154.205994 154.205994 156 152 156 C 149.794006 156 148 154.205994 148 152 C 148 149.794006 149.794006 148 152 148"/>
    <path id="path9" fill="#ffffff" stroke="none" d="M 76 108 C 71.582001 108 68 111.582001 68 116 C 68 120.417999 71.582001 124 76 124 C 80.417999 124 84 120.417999 84 116 C 84 111.582001 80.417999 108 76 108 M 76 112 C 78.206001 112 80 113.794006 80 116 C 80 118.205994 78.206001 120 76 120 C 73.793999 120 72 118.205994 72 116 C 72 113.794006 73.793999 112 76 112"/>
    <path id="path10" fill="#ffffff" stroke="none" d="M 220 36 L 36 36 L 36 220 L 220 220 Z M 216 216 L 40 216 L 40 40 L 216 40 Z"/>
    <path id="path11" fill="#ffffff" stroke="none" d="M 52.075199 92.472198 C 52.1842 91.910202 52.422199 91.366196 52.8242 90.895203 C 60.4072 82.038193 69.481201 76.547195 81.115204 76.547195 C 82.708199 76.547195 84.000198 78.0392 84.000198 79.880203 L 84.000198 80.547195 L 88.000198 80.547195 L 88.000198 79.880203 L 88.000198 79.214203 C 88.000198 77.741196 89.279198 76.547195 90.857201 76.547195 L 105.143204 76.547195 C 106.721199 76.547195 108.000198 77.741196 108.000198 79.214203 L 108.000198 80.547195 L 112.000198 80.547195 L 112.000198 79.214203 C 112.000198 75.537201 108.924202 72.547195 105.143204 72.547195 L 90.857201 72.547195 C 88.908203 72.547195 87.1502 73.346207 85.901199 74.619202 C 84.660202 73.339203 82.974197 72.547195 81.115204 72.547195 C 69.105202 72.547195 58.857201 77.698196 49.785198 88.294205 C 47.982201 90.401199 47.528198 93.376205 48.547199 96.000198 Z"/>
    <path id="path12" fill="#ffffff" stroke="none" d="M 148 80.546906 L 148 79.213898 C 148 77.740906 149.279007 76.546906 150.856995 76.546906 L 165.143005 76.546906 C 166.721008 76.546906 168 77.740906 168 79.213898 L 168 79.879898 L 168 80.546906 L 172 80.546906 L 172 79.879898 C 172 78.039902 173.291992 76.546906 174.884995 76.546906 C 186.518997 76.546906 195.593002 82.038895 203.175995 90.895905 C 203.578003 91.365906 203.815002 91.910904 203.925003 92.471893 L 207.453003 95.999893 C 208.472 93.3759 208.018005 90.400894 206.214005 88.2939 C 197.143005 77.697906 186.895004 72.546906 174.884995 72.546906 C 173.024994 72.546906 171.339996 73.338898 170.100006 74.619904 C 168.850006 73.345901 167.091995 72.546906 165.143005 72.546906 L 150.856995 72.546906 C 147.076004 72.546906 144 75.537903 144 79.213898 L 144 80.546906 Z"/>
</svg>
