<?xml version="1.0" encoding="UTF-8"?>
<!-- Generated by Pixelmator Pro 3.7.1 -->
<svg width="256" height="256" viewBox="0 0 256 256" xmlns="http://www.w3.org/2000/svg">
    <path id="Path" fill="#ffffff" stroke="none" d="M 187.265305 208 L 149.594299 110.041992 L 148.257294 106.56601 L 140.237305 85.710999 L 196.881302 63.496994 L 204.901306 84.35199 L 206.238297 87.828003 L 244.000305 186.022003 Z M 76.000298 196 L 76.000298 133.23999 C 76.174294 134.057999 76.394295 134.873993 76.7033 135.679993 C 79.069298 141.830002 85.080299 145.962006 91.6623 145.962006 C 93.633293 145.962006 95.571297 145.598999 97.420296 144.882996 L 134.790298 130.406006 C 142.254303 127.514008 146.313293 119.591003 144.644302 111.983002 L 145.8703 111.501999 L 178.365295 196 Z M 16.000301 196 C 13.791301 196 12.0003 194.209 12.0003 192 L 12.0003 164 L 25.727306 158.617004 C 28.6143 163.259995 33.770306 166.229996 39.343304 166.229996 C 41.315304 166.229996 43.2523 165.867004 45.102306 165.149994 L 63.787304 157.912003 C 67.417297 156.505997 70.243294 153.908005 72.000298 150.735992 L 72.000298 196 Z M 29.539303 157.122009 C 31.762295 160.246002 35.409298 162.210999 39.331295 162.210999 C 40.813305 162.210999 42.269299 161.938004 43.659298 161.399994 C 47.561306 159.888 50.2243 156.541 51.0583 152.720001 C 53.056301 154.147003 55.478298 154.972992 58.016308 154.972992 C 59.498302 154.972992 60.954304 154.699997 62.344303 154.160995 C 68.517296 151.770004 71.603294 144.789001 69.222298 138.598999 C 67.448296 133.985992 62.944302 130.886993 58.013302 130.886993 L 58.013302 130.886993 C 56.531307 130.886993 55.075298 131.160004 53.685299 131.697998 C 49.783306 133.209991 47.120296 136.557007 46.286297 140.377991 C 44.288296 138.950989 41.866299 138.125 39.328304 138.125 L 39.328304 138.125 C 37.846294 138.125 36.390301 138.39801 35.000301 138.936996 C 29.067303 141.235001 26.001293 147.770996 27.883297 153.770996 L 27.8773 153.774002 C 25.995296 147.761993 29.064297 141.21701 35.0023 138.916 L 53.687298 131.678009 C 55.106304 131.127991 56.564297 130.867996 58.001293 130.867996 C 62.825298 130.867996 67.387299 133.806 69.226295 138.587006 C 71.612297 144.791 68.5243 151.787003 62.342304 154.182007 L 43.657299 161.419998 C 42.238308 161.970001 40.7803 162.229996 39.343304 162.229996 C 35.477306 162.229996 31.783306 160.339996 29.520306 157.128998 Z M 50.541302 145.824997 C 48.947308 141.682007 51.0023 137.027008 55.130306 135.428009 C 56.078304 135.061005 57.054302 134.886993 58.013302 134.886993 C 61.228298 134.886993 64.261299 136.843002 65.489296 140.033997 C 67.082298 144.177002 65.027298 148.832001 60.899303 150.431 C 59.951298 150.798996 58.975307 150.972992 58.016308 150.972992 C 54.801296 150.972992 51.768307 149.015991 50.541302 145.824997 M 36.445293 142.666992 C 37.393307 142.299011 38.369305 142.125 39.328304 142.125 C 42.543301 142.125 45.576305 144.082001 46.804302 147.272995 C 48.397305 151.416 46.342297 156.070999 42.214306 157.669998 C 41.266308 158.037003 40.290295 158.210999 39.331295 158.210999 C 37.003307 158.210999 34.7803 157.173996 33.259304 155.395996 C 33.174297 155.296997 33.088299 155.199005 33.008297 155.095001 C 32.814297 154.843994 32.632305 154.580002 32.467297 154.303009 C 32.418301 154.222 32.374294 154.138 32.328304 154.056 C 32.153301 153.738007 31.9893 153.410995 31.855297 153.063995 C 31.760296 152.813995 31.678295 152.563004 31.609295 152.309998 C 30.519299 148.371002 32.565304 144.169998 36.445293 142.666992 M 12.0003 136 L 72.000298 112.471008 L 72.000298 135.119003 C 69.201294 130.110001 63.827297 126.867996 58.001293 126.867996 C 56.029308 126.867996 54.092297 127.231003 52.243298 127.947998 L 33.557308 135.186005 C 25.559307 138.285004 21.469296 147.160004 24.151302 155.235001 L 12.0003 160 Z M 12.0003 52 C 12.0003 49.791 13.791301 48 16.000301 48 L 72.000298 48 L 72.000298 108.471008 L 12.0003 132 Z M 143.444305 108.453003 C 140.797302 102.96701 135.151306 99.362 129.004303 99.362 C 127.033302 99.362 125.095299 99.725006 123.2463 100.442001 L 85.876297 114.919006 C 80.656296 116.94101 77.100296 121.425995 76.000298 126.541992 L 76.000298 110.902008 L 136.513306 87.17099 L 144.533295 108.026001 Z M 102.859299 125.557999 C 101.266296 121.415009 103.320297 116.76001 107.448296 115.161011 C 108.397301 114.794006 109.372299 114.619003 110.331299 114.619003 C 113.547295 114.619003 116.580299 116.575989 117.807297 119.766998 C 119.400299 123.910004 117.346298 128.565002 113.2183 130.164001 C 112.269295 130.531006 111.294296 130.705002 110.335297 130.705002 C 107.119293 130.705002 104.086296 128.748993 102.859299 125.557999 M 99.122299 127.005005 C 100.715294 131.14801 98.660294 135.803009 94.533295 137.402008 C 93.584297 137.769989 92.609299 137.944 91.650299 137.944 C 88.434296 137.944 85.401299 135.987 84.174294 132.79599 C 82.581299 128.653 84.6353 123.998001 88.763298 122.399002 C 89.711296 122.031998 90.687294 121.858002 91.646294 121.858002 C 94.862297 121.858002 97.895294 123.813995 99.122299 127.005005 M 131.903305 122.925003 C 130.955292 123.292999 129.979294 123.46701 129.020294 123.46701 C 125.804298 123.46701 122.771294 121.51001 121.544296 118.319 C 119.951294 114.175995 122.006294 109.522003 126.133301 107.921997 C 127.082298 107.554993 128.057297 107.380997 129.016296 107.380997 C 131.830292 107.380997 134.504303 108.878998 135.951294 111.391998 L 135.941299 111.394989 C 136.149292 111.755005 136.338303 112.128998 136.492294 112.528992 C 136.633301 112.894989 136.736298 113.264999 136.820297 113.636993 C 136.836304 113.705994 136.852295 113.774002 136.865295 113.843002 C 136.940292 114.220001 136.994293 114.597992 137.015305 114.973999 C 137.205292 118.363998 135.229294 121.636993 131.903305 122.925003 M 133.345306 126.675995 L 95.975296 141.153 C 94.557297 141.701996 93.098297 141.962006 91.6623 141.962006 C 86.837296 141.962006 82.275299 139.024994 80.437294 134.244003 C 78.0513 128.039001 81.139297 121.042999 87.321297 118.649002 L 124.691299 104.171997 C 126.109299 103.622009 127.568298 103.362 129.004303 103.362 C 133.423294 103.362 137.615295 105.832001 139.703293 109.919998 L 139.693298 109.924011 C 137.654297 105.96701 133.517303 103.380997 129.017303 103.380997 L 129.017303 103.380997 C 127.535301 103.380997 126.0783 103.653992 124.688301 104.192993 C 120.786301 105.70401 118.124298 109.050995 117.290298 112.872009 C 115.292297 111.445007 112.8703 110.619003 110.332298 110.619003 L 110.331299 110.619003 C 108.850296 110.619003 107.393295 110.893005 106.003296 111.431 C 102.101295 112.942993 99.438293 116.290009 98.605293 120.110001 C 96.6073 118.68399 94.185295 117.858002 91.646294 117.858002 L 91.646294 117.858002 C 90.164299 117.858002 88.708298 118.130997 87.318298 118.669006 C 81.145294 121.061005 78.060295 128.041992 80.4403 134.231995 C 82.214294 138.845001 86.719299 141.944 91.650299 141.944 C 93.131294 141.944 94.587296 141.67099 95.978294 141.132004 C 99.880295 139.619995 102.542297 136.27301 103.376297 132.453003 C 105.374298 133.878998 107.796295 134.705002 110.335297 134.705002 C 111.816299 134.705002 113.2733 134.432007 114.6633 133.893997 C 118.5653 132.382004 121.228294 129.035004 122.061295 125.213989 C 124.060295 126.640991 126.4823 127.46701 129.020294 127.46701 C 130.502304 127.46701 131.958298 127.194 133.348297 126.654999 C 138.742294 124.56601 141.777298 118.971008 140.869293 113.462997 L 140.875305 113.460999 C 141.784302 118.980011 138.746292 124.584 133.345306 126.675995 M 216.000305 84 L 216.000305 102.067993 L 209.962296 86.367996 Z M 208.625305 82.891998 L 200.605301 62.037003 L 216.000305 56 L 216.000305 80 Z M 212.000305 48 C 214.209305 48 216.000305 49.791 216.000305 52 L 199.269302 58.561005 L 199.102295 58.128006 L 195.363297 59.576004 L 138.628296 81.554993 L 134.907303 82.996002 L 135.1763 83.695007 L 76.000298 106.902008 L 76.000298 48 Z M 247.733292 184.585999 L 220.000305 112.468994 L 220.000305 52 C 220.000305 47.589005 216.411301 44 212.000305 44 L 16.000301 44 C 11.588298 44 8.0003 47.589005 8.0003 52 L 8.0003 192 C 8.0003 196.410995 11.588298 200 16.000301 200 L 179.903305 200 L 183.532303 209.436005 L 184.971298 213.178009 L 188.710297 211.729996 L 245.445297 189.751999 L 249.165298 188.309998 Z"/>
    <path id="path1" fill="#ffffff" stroke="none" d="M 218.148697 140.948898 C 220.534698 147.152893 217.446701 154.148895 211.264694 156.5439 L 192.579697 163.782898 C 191.161697 164.331909 189.702698 164.591888 188.265701 164.591888 C 183.441696 164.591888 178.8797 161.6539 177.041702 156.872894 C 174.655701 150.6689 177.743698 143.672897 183.925705 141.277893 L 202.610703 134.039902 C 204.028702 133.489899 205.487701 133.229889 206.923706 133.229889 C 211.748703 133.229889 216.309708 136.167908 218.148697 140.948898 M 201.165695 130.309906 L 182.480698 137.547897 C 174.246704 140.7379 170.132706 150.050903 173.307693 158.308899 C 175.673706 164.4599 181.684692 168.591888 188.265701 168.591888 C 190.237701 168.591888 192.175705 168.228897 194.024704 167.512909 L 212.709702 160.273895 C 220.942703 157.0849 225.057693 147.770905 221.881699 139.512909 C 219.516693 133.3629 213.505707 129.229889 206.923706 129.229889 C 204.952698 129.229889 203.014694 129.593903 201.165695 130.309906"/>
    <path id="path2" fill="#ffffff" stroke="none" d="M 206.935898 137.248901 C 210.150894 137.248901 213.184906 139.204895 214.411896 142.396896 C 216.004898 146.539902 213.949905 151.193909 209.822906 152.792908 C 208.873901 153.160889 207.898895 153.3349 206.939896 153.3349 C 203.723907 153.3349 200.690903 151.378906 199.463898 148.18689 C 197.870895 144.0439 199.924896 139.389893 204.052902 137.790894 C 205.0009 137.422897 205.976898 137.248901 206.935898 137.248901 M 191.136902 160.031891 C 190.188904 160.398895 189.212906 160.572906 188.253906 160.572906 C 185.038895 160.572906 182.005905 158.616898 180.7789 155.425903 C 179.184906 151.282898 181.239899 146.627899 185.367905 145.0289 C 186.315903 144.661896 187.291901 144.486908 188.2509 144.486908 C 191.465897 144.486908 194.498901 146.443909 195.726898 149.634903 C 197.319901 153.777893 195.264908 158.432892 191.136902 160.031891 M 195.208893 142.739899 C 193.210907 141.313904 190.789902 140.486908 188.2509 140.486908 L 188.2509 140.486908 C 186.768906 140.4879 185.312897 140.760895 183.922897 141.298889 C 177.749893 143.689911 174.664902 150.671906 177.044907 156.860901 C 178.818893 161.473907 183.323898 164.572906 188.253906 164.572906 C 189.735901 164.572906 191.191895 164.299896 192.581894 163.761902 C 196.483902 162.249908 199.146896 158.902893 199.980896 155.081909 C 201.978897 156.508911 204.400894 157.3349 206.939896 157.3349 C 208.420898 157.3349 209.876907 157.06189 211.266907 156.522903 C 217.439896 154.131897 220.525894 147.150909 218.144897 140.960907 C 216.370895 136.3479 211.866898 133.248901 206.935898 133.248901 L 206.935898 133.248901 C 205.453903 133.248901 203.997894 133.521896 202.607895 134.060898 C 198.705902 135.571899 196.042908 138.9189 195.208893 142.739899"/>
    <path id="path3" fill="#ffffff" stroke="none" d="M 164.217697 108.306198 C 164.217697 107.675201 164.2547 107.0522 164.311707 106.436203 C 164.359695 105.913193 164.440704 105.401199 164.527695 104.891205 C 164.549698 104.7612 164.562698 104.627197 164.587708 104.497192 C 164.675705 104.040207 164.790695 103.593201 164.908707 103.147202 C 164.954697 102.972198 164.992706 102.793198 165.043701 102.620193 C 165.164703 102.206207 165.309692 101.803207 165.456696 101.401199 C 165.527695 101.2052 165.592697 101.007202 165.6707 100.814194 C 165.821701 100.436203 165.991699 100.069199 166.164703 99.703201 C 166.262695 99.498199 166.355698 99.290207 166.459702 99.089203 C 166.637695 98.744202 166.829697 98.410202 167.026703 98.078201 C 167.150696 97.868195 167.273697 97.657196 167.404694 97.452194 C 167.604706 97.141205 167.816696 96.837204 168.0327 96.538193 C 168.183701 96.328201 168.3367 96.120193 168.495697 95.916199 C 168.714706 95.6362 168.942703 95.362198 169.175705 95.094193 C 169.354706 94.889206 169.537704 94.687195 169.724701 94.489197 C 169.959702 94.240204 170.200699 93.996201 170.4487 93.759201 C 170.654694 93.562195 170.867706 93.370193 171.082703 93.181198 C 171.330704 92.963196 171.582703 92.748199 171.841705 92.543198 C 172.076706 92.356201 172.317703 92.178192 172.561707 92.002197 C 172.819702 91.815201 173.079697 91.630203 173.346695 91.4552 C 173.610703 91.283203 173.881699 91.123199 174.153702 90.963196 C 174.418701 90.807205 174.683701 90.650192 174.956696 90.506195 C 175.248703 90.352203 175.549698 90.214203 175.849701 90.074203 C 176.118698 89.949203 176.385696 89.819199 176.661697 89.706192 C 176.984695 89.573196 177.316696 89.460205 177.646698 89.344193 C 177.914703 89.250198 178.179703 89.1492 178.452698 89.066193 C 178.811707 88.957199 179.179703 88.872192 179.546707 88.783203 C 179.804703 88.721207 180.058701 88.648193 180.320694 88.5952 C 180.738693 88.512192 181.166702 88.457199 181.593704 88.400192 C 181.814697 88.371201 182.031693 88.327194 182.2547 88.305206 C 182.909698 88.240204 183.5737 88.204193 184.246704 88.204193 C 184.894699 88.204193 185.534698 88.241196 186.167694 88.301193 C 186.383698 88.322205 186.594696 88.359192 186.809692 88.387192 C 187.220703 88.439194 187.6297 88.497192 188.0327 88.574203 C 188.286697 88.623199 188.536697 88.684204 188.786697 88.742203 C 189.139694 88.824203 189.488693 88.912201 189.833694 89.013199 C 190.099701 89.090195 190.361694 89.174194 190.622696 89.262192 C 190.939697 89.369202 191.252701 89.485199 191.563705 89.6082 C 191.830704 89.713196 192.097702 89.820206 192.359695 89.937195 C 192.648697 90.066193 192.930695 90.207199 193.212708 90.349197 C 193.4767 90.4832 193.742706 90.612198 194.000702 90.756195 C 194.265701 90.905197 194.519699 91.070206 194.777695 91.230194 C 195.034698 91.390198 195.296707 91.541199 195.544693 91.712204 C 195.972702 92.006195 196.384705 92.320206 196.787704 92.645203 C 196.818695 92.670197 196.852692 92.6922 196.883698 92.717194 C 201.391693 96.403198 204.274704 102.015198 204.274704 108.306198 C 204.274704 119.408203 195.307693 128.408203 184.246704 128.408203 C 173.184692 128.408203 164.217697 119.408203 164.217697 108.306198 M 161.092697 101.838196 L 155.008698 100.731201 L 149.575699 88.349197 L 191.849701 71.972198 L 196.490692 84.040192 L 195.188705 86.854202 C 195.149704 86.834198 195.108704 86.818192 195.069702 86.798203 C 194.695694 86.6082 194.316696 86.4272 193.931702 86.256195 C 193.919693 86.251205 193.908707 86.245193 193.896698 86.240204 C 192.2117 85.496201 190.425705 84.9422 188.565704 84.602203 C 188.5177 84.593201 188.468704 84.584198 188.419693 84.575195 C 188.033707 84.507202 187.643707 84.448196 187.251694 84.3992 C 187.165695 84.388199 187.079697 84.376205 186.994705 84.366196 C 186.632706 84.325195 186.268707 84.293198 185.902695 84.268204 C 185.803696 84.2612 185.704697 84.251205 185.605698 84.245193 C 185.155701 84.2202 184.702698 84.204193 184.246704 84.204193 C 183.640701 84.204193 183.042694 84.234192 182.4487 84.278198 C 182.305695 84.2892 182.162704 84.298203 182.019699 84.311203 C 181.4897 84.360199 180.965698 84.425201 180.445694 84.508194 C 180.217697 84.544205 179.992706 84.588196 179.766693 84.630203 C 179.475693 84.686203 179.187698 84.747192 178.900696 84.813202 C 178.325699 84.9422 177.759705 85.093201 177.200699 85.263199 C 177.160706 85.275192 177.120697 85.286194 177.079697 85.299194 C 170.3237 87.391205 164.854706 92.367203 162.123703 98.900192 C 162.108704 98.937195 162.093704 98.974197 162.078705 99.0112 C 161.876694 99.500198 161.688705 99.994202 161.518707 100.499207 C 161.401703 100.840195 161.292694 101.183197 161.191696 101.529205 C 161.161697 101.634201 161.121704 101.7332 161.092697 101.838196 M 208.274704 108.306198 C 208.274704 100.412201 204.471695 93.392197 198.606705 88.993195 L 200.830704 84.184204 L 194.143707 66.794205 L 144.233704 86.129196 L 152.200699 104.286194 L 160.3517 105.769196 C 160.264694 106.603195 160.217697 107.449203 160.217697 108.306198 C 160.217697 121.596207 170.996704 132.408203 184.246704 132.408203 C 197.495697 132.408203 208.274704 121.596207 208.274704 108.306198"/>
    <path id="path4" fill="#ffffff" stroke="none" d="M 172.229202 108.306198 C 172.229202 101.645203 177.609207 96.245193 184.246201 96.245193 C 190.883194 96.245193 196.263199 101.645203 196.263199 108.306198 C 196.263199 114.967194 190.883194 120.367203 184.246201 120.367203 C 177.609207 120.367203 172.229202 114.967194 172.229202 108.306198 M 200.263199 108.306198 C 200.263199 99.450195 193.078201 92.245193 184.246201 92.245193 C 175.4142 92.245193 168.229202 99.450195 168.229202 108.306198 C 168.229202 117.162201 175.4142 124.367203 184.246201 124.367203 C 193.078201 124.367203 200.263199 117.162201 200.263199 108.306198"/>
</svg>
