<?xml version="1.0" encoding="UTF-8"?>
<!-- Generated by Pixelmator Pro 3.7.1 -->
<svg width="256" height="256" viewBox="0 0 256 256" xmlns="http://www.w3.org/2000/svg">
    <path id="Path" fill="#ffffff" stroke="none" d="M 127.999496 61.335403 L 124.800499 65.599396 L 88.800499 113.581406 L 84.000496 119.978409 L 91.998497 119.9814 L 112.012497 119.992401 L 112.012497 158.000397 C 112.012497 163.513397 116.498497 168.000397 122.012497 168.000397 L 133.999496 168.000397 C 139.513504 168.000397 143.999496 163.513397 143.999496 158.000397 L 143.999496 119.992401 L 164.013504 119.9814 L 172.012497 119.978409 L 167.210495 113.581406 L 131.199493 65.599396 Z M 127.999496 68.000397 L 164.011505 115.9814 L 140.011505 115.9944 L 139.999496 115.9944 L 139.999496 158.000397 C 139.999496 161.318405 137.318497 164.000397 133.999496 164.000397 L 122.012497 164.000397 C 118.693497 164.000397 116.012497 161.318405 116.012497 158.000397 L 116.012497 115.9944 L 115.999496 115.9944 L 91.999496 115.9814 L 127.999496 68.000397"/>
    <path id="path1" fill="#ffffff" stroke="none" d="M 170 172 L 86 172 C 80.486 172 76 176.485992 76 182 C 76 187.514008 80.486 192 86 192 L 170 192 C 175.514008 192 180 187.514008 180 182 C 180 176.485992 175.514008 172 170 172 M 170 176 C 173.317993 176 176 178.682007 176 182 C 176 185.317993 173.317993 188 170 188 L 86 188 C 82.681999 188 80 185.317993 80 182 C 80 178.682007 82.681999 176 86 176 L 170 176"/>
    <path id="path2" fill="#ffffff" stroke="none" d="M 220 36 L 36 36 L 36 220 L 220 220 Z M 216 216 L 40 216 L 40 40 L 216 40 Z"/>
</svg>
