<?xml version="1.0" encoding="UTF-8"?>
<!-- Generated by Pixelmator Pro 3.7.1 -->
<svg width="256" height="256" viewBox="0 0 256 256" xmlns="http://www.w3.org/2000/svg">
    <path id="Path" fill="#ffffff" stroke="none" d="M 80 44 L 176 44 L 176 108 L 80 108 Z M 80 111.880997 L 176 111.880997 C 178.143005 111.880997 179.880997 110.143005 179.880997 108 L 179.880997 44 C 179.880997 41.856995 178.143005 40.119003 176 40.119003 L 80 40.119003 C 77.857002 40.119003 76.119003 41.856995 76.119003 44 L 76.119003 108 C 76.119003 110.143005 77.857002 111.880997 80 111.880997"/>
    <path id="path1" fill="#ffffff" stroke="none" d="M 98.912003 83.984299 C 98.790001 83.9953 98.666 84.000305 98.539001 84.000305 C 94.579002 84.000305 88.417 78.953293 88.041 75.435303 C 87.466003 70.056305 93.07 64.278305 99.125 64.007294 C 99.227997 64.002304 99.330002 64.000305 99.431999 64.000305 C 103.897003 64.000305 107.389999 68.395294 107.678001 74.458298 C 109.43 80.066299 103.681999 83.572296 98.912003 83.984299 M 99.431999 60.000305 C 99.271004 60.000305 99.109001 60.003296 98.945999 60.011307 C 94.740997 60.199295 90.477997 62.352295 87.542 65.769302 C 84.928001 68.811295 83.693001 72.395294 84.063004 75.860306 C 84.656998 81.419296 92.503998 88.000305 98.539001 88.000305 C 98.782997 88.000305 99.021004 87.989304 99.255997 87.969299 C 102.863998 87.658295 107.661003 85.923294 110.300003 81.988297 C 111.928001 79.562302 112.398003 76.668304 111.644997 73.785294 C 111.078003 65.767303 106.000999 60.000305 99.431999 60.000305"/>
    <path id="path2" fill="#ffffff" stroke="none" d="M 143.874802 75.992096 C 143.769806 75.997101 143.664795 76.000107 143.559799 76.000107 C 139.886795 76.000107 136.121796 72.866104 136.003799 69.625107 C 135.837799 65.022095 140.713806 60.000107 145.340805 60.000107 C 145.347794 60.000107 145.355804 60.000107 145.362793 60.000107 C 148.978806 60.0121 151.751801 64.046097 151.991806 69.639099 C 152.166794 73.717102 149.623795 75.7061 143.874802 75.992096 M 145.376801 56.000107 L 145.369797 56.000107 L 145.340805 56.000107 C 142.042801 56.000107 138.627792 57.580093 135.970795 60.335098 C 133.333801 63.070099 131.888794 66.508102 132.006805 69.769104 C 132.200806 75.1241 137.706802 80.000107 143.559799 80.000107 C 143.730804 80.000107 143.901794 79.996094 144.0728 79.987106 C 154.808807 79.454102 156.146805 73.168106 155.987793 69.468094 C 155.6548 61.684097 151.191803 56.020096 145.376801 56.000107"/>
    <path id="path3" fill="#ffffff" stroke="none" d="M 208 167.333405 C 208 172.1194 204.020004 176.000397 199.110992 176.000397 L 196 176.000397 L 195.968002 176.000397 L 195.968002 156.000397 L 195.968002 152.031403 L 192 152.031403 L 68 152.031403 L 64.031998 152.031403 L 64.031998 156.000397 L 64.031998 176.000397 L 61.110992 176.000397 L 56.889008 176.000397 L 56 176.000397 L 56 175.95639 C 51.507996 175.521393 48 171.827393 48 167.333405 L 48 28.666397 C 48 23.880402 51.979996 20.000412 56.889008 20.000412 L 199.110992 20.000412 C 204.020004 20.000412 208 23.880402 208 28.666397 Z M 188 176.000397 L 188 162.000397 C 188 160.895401 187.104996 160.000397 186 160.000397 C 184.895004 160.000397 184 160.895401 184 162.000397 L 184 176.000397 L 180 176.000397 L 180 162.000397 C 180 160.895401 179.104996 160.000397 178 160.000397 C 176.895004 160.000397 176 160.895401 176 162.000397 L 176 176.000397 L 172 176.000397 L 172 162.000397 C 172 160.895401 171.104996 160.000397 170 160.000397 C 168.895004 160.000397 168 160.895401 168 162.000397 L 168 176.000397 L 164 176.000397 L 164 162.000397 C 164 160.895401 163.104996 160.000397 162 160.000397 C 160.895004 160.000397 160 160.895401 160 162.000397 L 160 176.000397 L 156 176.000397 L 156 162.000397 C 156 160.895401 155.104996 160.000397 154 160.000397 C 152.895004 160.000397 152 160.895401 152 162.000397 L 152 176.000397 L 148 176.000397 L 148 162.000397 C 148 160.895401 147.104996 160.000397 146 160.000397 C 144.895004 160.000397 144 160.895401 144 162.000397 L 144 176.000397 L 140 176.000397 L 140 162.000397 C 140 160.895401 139.105011 160.000397 138 160.000397 C 136.894989 160.000397 136 160.895401 136 162.000397 L 136 176.000397 L 132 176.000397 L 132 162.000397 C 132 160.895401 131.105011 160.000397 130 160.000397 C 128.894989 160.000397 128 160.895401 128 162.000397 L 128 176.000397 L 124 176.000397 L 124 162.000397 C 124 160.895401 123.105003 160.000397 122 160.000397 C 120.894997 160.000397 120 160.895401 120 162.000397 L 120 176.000397 L 116 176.000397 L 116 162.000397 C 116 160.895401 115.105003 160.000397 114 160.000397 C 112.894997 160.000397 112 160.895401 112 162.000397 L 112 176.000397 L 108 176.000397 L 108 162.000397 C 108 160.895401 107.105003 160.000397 106 160.000397 C 104.894997 160.000397 104 160.895401 104 162.000397 L 104 176.000397 L 100 176.000397 L 100 162.000397 C 100 160.895401 99.105003 160.000397 98 160.000397 C 96.894997 160.000397 96 160.895401 96 162.000397 L 96 176.000397 L 92 176.000397 L 92 162.000397 C 92 160.895401 91.105003 160.000397 90 160.000397 C 88.894997 160.000397 88 160.895401 88 162.000397 L 88 176.000397 L 84 176.000397 L 84 162.000397 C 84 160.895401 83.105003 160.000397 82 160.000397 C 80.894997 160.000397 80 160.895401 80 162.000397 L 80 176.000397 L 76 176.000397 L 76 162.000397 C 76 160.895401 75.104996 160.000397 74 160.000397 C 72.895004 160.000397 72 160.895401 72 162.000397 L 72 176.000397 L 68 176.000397 L 68 156.000397 L 192 156.000397 L 192 176.000397 L 191.912003 176.000397 Z M 152 215.312408 C 151.319 215.541397 150.639008 215.770401 149.958008 216.000397 C 149.125 212.259399 148.386993 208.473404 147.44101 204.788406 C 145.315002 196.513397 143.617004 187.918396 140.88501 180.056396 L 147.526001 180.000397 C 147.623001 180.6754 147.718994 181.348404 147.800003 182.015411 C 149.156006 193.124405 150.593994 204.214401 152 215.312408 M 157.613007 217.402405 C 159.126999 210.805405 159.164001 210.232391 165.268005 209.315399 C 166.872009 209.074402 168.464005 208.931396 170.031006 208.931396 C 174.255005 208.931396 178.302002 209.969406 181.927994 212.932404 C 184.503998 215.0354 185.309006 217.959396 183.376999 220.499405 C 182.171005 222.085403 180.763 223.771393 179.054993 224.6754 C 171.591995 228.623398 163.998993 232.393402 155.277008 232.521408 C 153.919998 232.541397 152.513 232.625397 151.127991 232.625397 C 149.382996 232.625397 147.671997 232.492401 146.138 231.928406 C 145.494995 231.692398 144.897003 231.333405 144.326996 230.902405 C 143.737 230.455399 143.451996 229.701401 143.587997 228.974396 C 143.781998 227.931396 144.119995 226.8564 144.658005 225.812408 L 153.067993 220.814392 C 154.809998 220.411407 157.279999 218.852402 157.613007 217.402405 M 101.238998 209.447403 C 101.027 209.576401 100.832001 209.706406 100.648003 209.837402 C 99.039001 209.277405 97.028 208.928406 94.518997 208.928406 C 94.285004 208.928406 94.046997 208.931396 93.804001 208.937408 C 93.698997 208.643402 93.579002 208.349396 93.482002 208.055405 C 92.787003 205.9664 92.775002 203.485397 93.072998 201.261398 C 93.912003 194.976395 95.009003 188.723389 96.138 182.4814 C 96.276001 181.718399 96.514 180.977402 96.769997 180.269409 L 99.004997 180.4104 L 104.828003 180.000397 C 98.376999 188.379395 95.862999 200.995392 101.238998 209.447403 M 90.635002 236.093399 C 90.009003 236.107407 89.382004 236.113403 88.754997 236.113403 C 82.977997 236.113403 77.179001 235.567398 71.421005 235.001404 C 69.662003 234.829407 67.667999 233.737396 66.419998 232.448395 C 64.371994 230.333405 62.858002 228.310394 65.143997 224.629395 C 67.184006 221.344406 70.123001 220.658401 72.863007 219.0784 C 75.334 217.654404 77.802994 216.284393 80.405998 216.284393 C 81.917999 216.284393 83.474998 216.745392 85.106003 217.927399 C 85.557999 218.254395 86.246002 218.256409 87.012001 218.459396 L 87.017998 218.416397 C 87.179001 217.267395 88.150002 216.579407 89.143997 216.579407 C 89.730003 216.579407 90.323997 216.818405 90.764999 217.342407 C 92.460999 219.359406 94.049004 221.246399 95.633003 223.130402 C 97.981003 221.672394 99.948997 220.385406 97.404999 217.104401 C 96.603996 216.072403 95.918999 214.928406 95.296997 213.742401 L 99.07 215.251404 C 99.342003 215.673401 99.695 216.1064 100.136002 216.554398 C 101.156998 217.5914 102.170998 218.8694 102.595001 220.224396 C 104.949997 227.757401 99.010002 235.912399 90.635002 236.093399 M 199.110992 16.003403 L 56.889008 16.003403 C 49.783997 16.003403 44.003006 21.684402 44.003006 28.666397 L 44.003006 167.333405 C 44.003006 174.316406 49.783997 179.996399 56.889008 179.996399 L 61.110992 179.996399 L 65.768997 179.996399 L 65.764008 179.968399 L 68 179.968399 L 92.653 179.968399 C 92.483002 180.513397 92.319 181.117401 92.200996 181.769409 C 91.113998 187.783401 89.980003 194.200409 89.108002 200.7314 C 88.809998 202.960403 88.668999 206.260406 89.685997 209.318405 C 89.761002 209.544403 89.846001 209.771393 89.931 209.997406 C 89.967003 210.092407 90.002998 210.1884 90.037003 210.284393 C 90.334999 211.115402 90.890999 211.79541 91.591003 212.261398 C 91.495003 212.501404 91.414001 212.747406 91.366997 212.999405 C 90.666 212.725403 89.914001 212.579407 89.143997 212.579407 C 87.872002 212.579407 86.690002 212.954407 85.709999 213.607391 C 84.015999 212.728394 82.239998 212.284393 80.405998 212.284393 C 76.639999 212.284393 73.438004 214.130402 70.865005 215.613403 C 70.311005 215.932404 69.707993 216.227402 69.067993 216.538406 C 66.761993 217.663406 63.891998 219.062408 61.746002 222.519409 C 57.639999 229.131409 61.779007 233.405396 63.546005 235.2314 C 65.537003 237.287399 68.404999 238.724396 71.029007 238.982407 C 77.326996 239.601395 83.008003 240.113403 88.754997 240.113403 C 89.411003 240.113403 90.067001 240.1064 90.721001 240.092407 C 96.046997 239.977402 100.893997 237.418396 104.017998 233.070404 C 107.022003 228.889404 107.894997 223.7724 106.412003 219.030396 C 105.856003 217.251404 104.735001 215.5224 102.985001 213.746399 C 102.815002 213.574402 102.695999 213.435394 102.601997 213.315399 C 102.724998 213.246399 102.848999 213.180405 102.964996 213.098404 C 103.074997 213.020401 103.191002 212.942398 103.317001 212.865402 C 104.236 212.307404 104.890999 211.402405 105.135002 210.355408 C 105.378998 209.308395 105.191002 208.207397 104.613998 207.3004 C 100.550003 200.911407 102.004997 190.224396 107.998001 182.440399 C 108.554001 181.717407 108.825996 180.844391 108.819 179.968399 L 136.886002 179.968399 C 136.876007 180.4384 136.947998 180.913391 137.106995 181.3694 C 138.968994 186.730408 140.382004 192.643402 141.748993 198.362396 C 142.330994 200.798401 142.932999 203.317398 143.567001 205.783401 C 144.196991 208.238403 144.75 210.822403 145.283997 213.320404 C 145.537994 214.505402 145.791 215.689392 146.054001 216.8694 C 146.278992 217.881409 146.899994 218.747406 147.757996 219.316406 L 142.61499 222.373398 C 141.970001 222.756409 141.445999 223.3134 141.10199 223.979401 C 140.425003 225.293396 139.938004 226.72641 139.656006 228.239395 C 139.244003 230.442398 140.128998 232.739395 141.912003 234.090408 C 142.855011 234.805405 143.787003 235.326401 144.759003 235.683395 C 147.033005 236.518402 149.356995 236.625397 151.127991 236.625397 C 151.988007 236.625397 152.832001 236.596405 153.649002 236.568405 C 154.216003 236.549408 154.779999 236.529404 155.335999 236.521408 C 164.722 236.383408 172.796005 232.511398 180.925003 228.211395 C 183.296005 226.957397 185.035004 224.927399 186.559998 222.921402 C 189.701004 218.791397 188.837006 213.4104 184.459 209.834396 C 180.419998 206.534393 175.701004 204.931396 170.031998 204.931396 C 168.345001 204.931396 166.591995 205.071396 164.673004 205.359406 C 161.289001 205.868408 158.744995 206.388397 156.828003 208.463409 C 156.238007 209.10141 155.796005 209.792404 155.429001 210.573395 C 155.210999 208.857391 154.992996 207.140396 154.774002 205.423401 C 153.774994 197.594391 152.742996 189.498398 151.770996 181.530396 C 151.707001 181.013397 151.632004 180.490402 151.557999 179.968399 L 192 179.968399 L 192.123993 179.968399 L 192.126007 179.996399 L 195.914001 179.996399 L 199.110992 179.996399 C 206.216003 179.996399 211.996994 174.316406 211.996994 167.333405 L 211.996994 28.666397 C 211.996994 21.684402 206.216003 16.003403 199.110992 16.003403"/>
    <path id="path4" fill="#ffffff" stroke="none" d="M 184 116 L 72 116 L 72 36 L 184 36 Z M 184 32 L 72 32 C 69.791 32 68 33.791 68 36 L 68 116 C 68 118.209 69.791 120 72 120 L 184 120 C 186.209 120 188 118.209 188 116 L 188 36 C 188 33.791 186.209 32 184 32"/>
</svg>
