<?xml version="1.0" encoding="UTF-8"?>
<!-- Generated by Pixelmator Pro 3.7.1 -->
<svg width="256" height="256" viewBox="0 0 256 256" xmlns="http://www.w3.org/2000/svg">
    <path id="Path" fill="#ffffff" stroke="none" d="M 160.113998 124 L 99.885002 124 L 99.885002 80 L 160.113998 80 Z M 99.886002 76 L 96 76 L 96 80 L 96 124 L 96 128 L 99.886002 128 L 160.113998 128 L 164 128 L 164 124 L 164 80 L 164 76 L 160.113998 76 Z"/>
    <path id="path1" fill="#ffffff" stroke="none" d="M 148.638901 137.26889 C 147.968903 139.789902 147.194901 142.083893 145.599899 144.188904 C 144.384903 145.790894 142.828903 146.3629 141.2789 146.751892 C 137.917908 147.595901 134.468903 147.970901 131.039902 146.965897 C 130.876907 146.917908 130.7509 146.725891 130.815903 146.781891 C 133.201904 145.483902 135.601898 144.367889 137.812897 142.9189 C 139.627899 141.729889 141.492905 140.497894 143.079895 139.03891 C 144.484894 137.746902 146.367905 136.728897 146.993896 134.547897 C 147.052902 134.339905 147.598907 134.292908 147.917892 134.171906 C 147.960907 135.238892 149.009903 135.873901 148.638901 137.26889 M 147.536896 130.0289 C 146.604904 129.838898 144.760895 130.611908 144.534897 131.364899 C 143.687897 134.175903 141.783905 135.796906 139.7659 137.404907 C 138.361893 138.523895 137.002899 139.743896 135.489899 140.66391 C 133.696899 141.752899 131.813904 142.744904 129.865906 143.442902 C 128.4039 143.967896 126.782898 144.0439 125.221901 144.160904 C 124.309898 144.229889 123.3769 143.988892 122.452896 143.882904 C 121.581902 143.783905 120.271896 143.262909 119.938896 143.6689 C 119.356903 144.38089 119.2099 145.6539 119.180901 146.701904 C 119.145897 148.0159 119.852898 148.298889 121.095901 148.057892 C 122.252899 147.832901 123.594902 147.836899 124.688896 148.249908 C 129.281906 149.984894 133.928894 151.068909 138.839905 150.525909 C 139.807907 150.335907 140.774902 150.138901 141.744904 149.955902 C 145.455902 149.256897 148.186905 146.966904 149.937897 143.532898 C 150.846893 141.749908 151.208893 139.621902 151.678894 137.611908 C 152.266907 135.101898 149.897903 130.509903 147.536896 130.0289"/>
    <path id="path2" fill="#ffffff" stroke="none" d="M 136.017105 105.625504 C 136.128098 103.413498 137.469101 101.809494 139.183105 101.809494 C 139.222107 101.809494 139.2621 101.810501 139.301102 101.8125 C 141.626099 101.911499 143.778107 104.019501 143.558105 105.981506 C 143.413101 107.265503 141.047104 109.106506 139.526093 109.106506 C 139.477097 109.106506 139.430099 109.104507 139.383102 109.101501 C 137.551102 108.9505 135.344101 107.671494 136.017105 105.625504 M 139.056107 113.087494 C 139.210098 113.100494 139.366104 113.106506 139.526093 113.106506 C 142.792099 113.106506 147.128098 110.025497 147.533096 106.428497 C 147.750107 104.4935 147.101105 102.529495 145.705093 100.898499 C 144.1371 99.067505 141.807098 97.915497 139.472107 97.815506 C 139.375107 97.811493 139.279099 97.809494 139.183105 97.809494 L 139.183105 97.809494 C 135.463104 97.809494 132.472107 100.841507 132.059097 104.938507 C 131.668106 106.605499 131.963104 108.281494 132.913101 109.712494 C 134.397095 111.951508 137.059097 112.923492 139.056107 113.087494"/>
    <path id="path3" fill="#ffffff" stroke="none" d="M 114.396202 99.990997 C 114.3992 99.990997 114.401199 99.990997 114.404198 99.990997 C 116.0952 99.990997 117.876198 101.727997 117.815201 103.320007 C 117.772202 104.440994 116.397202 105.524994 115.055199 105.524994 C 115.016197 105.524994 114.978203 105.524002 114.940201 105.522003 C 112.839203 105.423004 111.911201 104.735001 111.974197 103.324997 C 112.062202 101.389999 113.075203 99.994995 114.396202 99.990997 M 114.752197 109.518005 C 114.852203 109.522003 114.953201 109.524994 115.055199 109.524994 C 118.592201 109.524994 121.687202 106.753006 121.812202 103.473007 C 121.881203 101.673996 121.126198 99.817001 119.741203 98.376999 C 118.281197 96.860992 116.336197 95.990997 114.404198 95.990997 L 114.396202 95.990997 L 114.379204 95.990997 C 110.8592 96.001999 108.165199 99.011002 107.978203 103.143997 C 107.777199 107.604004 111.501198 109.365005 114.752197 109.518005"/>
    <path id="path4" fill="#ffffff" stroke="none" d="M 70.309898 112 C 62.760899 112 56.6199 105.720001 56.6199 98 C 56.6199 90.279999 62.760899 84 70.309898 84 C 77.858902 84 83.999901 90.279999 83.999901 98 C 83.999901 105.720001 77.858902 112 70.309898 112 M 70.309898 80.044006 C 60.579899 80.044006 52.663898 88.098999 52.663898 98 C 52.663898 107.901001 60.579899 115.955002 70.309898 115.955002 C 80.039902 115.955002 87.955902 107.901001 87.955902 98 C 87.955902 88.098999 80.039902 80.044006 70.309898 80.044006"/>
    <path id="path5" fill="#ffffff" stroke="none" d="M 104.186302 99.142197 C 104.886299 97.073196 105.865303 95.0672 106.753304 93.042206 C 106.850304 92.819199 107.096298 92.639206 107.276299 92.441193 C 107.910301 91.741196 108.879303 91.366196 109.109299 90.266205 C 109.311302 89.294205 111.177299 88.667206 112.777298 88.667206 C 113.077301 88.667206 113.367302 88.688202 113.636299 88.734207 C 114.021301 88.800201 114.424301 88.847198 114.819298 88.847198 C 114.919296 88.847198 115.018303 88.844193 115.117302 88.837204 C 115.299301 88.825195 115.480301 88.819199 115.660301 88.819199 C 118.627296 88.819199 121.2453 90.412201 122.220299 92.819199 C 122.633301 93.840195 123.227303 94.813202 123.586296 95.5112 C 123.867302 97.322205 124.161301 98.770203 124.293297 100.228195 C 124.378296 101.169205 124.458298 102.182205 124.1343 103.062195 C 123.351303 105.193207 122.601303 107.387207 121.3153 109.321198 C 120.3703 110.743195 119.486298 112.381195 117.340302 113.134201 C 116.671303 113.369202 116.044296 113.467194 115.446297 113.467194 C 113.910301 113.467194 112.559303 112.826202 111.143303 112.235199 C 108.255302 111.029205 107.016296 108.8992 105.922302 106.556198 C 105.252296 105.122208 104.110298 103.833206 104.077301 102.223206 C 104.056297 101.193207 103.860298 100.104202 104.186302 99.142197 M 128.449295 98.7892 C 128.449295 98.7892 128.604294 98.530197 128.639297 98.389206 C 129.189301 96.212204 129.757294 94.038193 130.264297 91.854202 C 130.739304 89.814194 131.548294 89.1922 133.931305 89.129196 C 135.106293 87.686203 137.018295 84.533203 137.018295 84.533203 L 139.590302 84.701202 C 143.803299 84.701202 147.741302 86.710205 149.378296 89.947205 C 149.391296 89.972198 149.403305 89.997192 149.415298 90.021194 C 150.344299 91.895203 150.782303 93.943207 151.392303 95.923203 C 151.806305 97.270203 152.720306 98.574203 151.945297 100.057205 C 151.865295 100.211197 152.279297 100.528198 152.419296 100.787201 C 152.606293 101.134201 152.920303 101.5112 152.881302 101.851196 C 152.7043 103.405197 152.698303 105.028198 152.116302 106.481201 C 151.101303 109.0112 149.943298 111.544205 148.402298 113.869202 C 147.1203 115.8022 145.345306 117.600204 142.312302 117.600204 C 142.205307 117.600204 142.097305 117.598206 141.988297 117.593201 C 140.367294 117.527206 138.750305 117.340195 137.138306 117.168198 C 133.268295 116.754196 130.906296 114.888199 130.060303 111.740204 C 129.596298 110.0112 128.401306 108.342194 129.228302 106.464203 C 127.452301 104.017197 128.449295 98.7892 128.449295 98.7892 M 100.0783 102.305206 C 100.122299 104.469208 101.080299 106.109207 101.779297 107.307205 C 101.9823 107.655197 102.174301 107.984207 102.298302 108.249207 C 103.692299 111.234207 105.542297 114.230194 109.601303 115.926193 L 109.993301 116.091202 C 111.443298 116.704193 113.247299 117.467194 115.446297 117.467194 C 116.527298 117.467194 117.611298 117.279205 118.666298 116.908203 C 121.8853 115.778198 123.392296 113.461197 124.389297 111.928207 L 124.647301 111.535202 C 124.8993 111.155197 125.1343 110.769196 125.353302 110.381195 C 125.515297 110.923203 125.700302 111.404205 125.8563 111.811203 C 125.9963 112.1772 126.129303 112.522202 126.197296 112.777206 C 127.489296 117.587204 131.224304 120.558197 136.712296 121.145203 L 137.210297 121.198196 C 138.699295 121.359192 140.238297 121.525192 141.824295 121.590195 C 141.989304 121.597198 142.151306 121.600204 142.312302 121.600204 C 146.137299 121.600204 149.308304 119.742203 151.736298 116.078201 C 153.623306 113.231201 154.914307 110.249207 155.828293 107.9702 C 156.496307 106.304199 156.637299 104.702194 156.761307 103.288193 C 156.790298 102.959198 156.818298 102.631195 156.856293 102.306198 C 157.002304 101.025208 156.575302 100.005203 156.230301 99.376205 C 156.361298 97.687195 155.800293 96.265198 155.446304 95.368195 C 155.352295 95.129196 155.263306 94.904205 155.215302 94.746201 C 155.065308 94.259201 154.9263 93.768204 154.787308 93.277206 C 154.348297 91.723206 153.850296 89.962204 152.999298 88.245193 L 152.947296 88.140198 C 150.680298 83.658203 145.502304 80.747192 139.729294 80.701202 L 137.278305 80.542206 L 134.856293 80.384201 L 133.597305 82.459198 C 133.146301 83.203201 132.402298 84.380203 131.740295 85.350204 C 129.540298 85.803207 127.256302 87.131195 126.368301 90.949203 C 126.300301 91.242203 126.230301 91.537201 126.159302 91.833206 C 126.073296 91.657196 125.994301 91.484207 125.927299 91.318207 C 124.3293 87.370193 120.299301 84.819199 115.660301 84.819199 C 115.394302 84.819199 115.126297 84.828201 114.8573 84.846207 C 114.852303 84.846207 114.846298 84.846207 114.841301 84.846207 C 114.720299 84.846207 114.5653 84.835205 114.308296 84.791199 C 113.823303 84.708206 113.308296 84.667206 112.777298 84.667206 C 109.733299 84.667206 106.3993 85.941193 105.3853 88.766205 C 105.104301 88.995193 104.729301 89.3022 104.351303 89.711197 L 104.322304 89.739197 C 104.047302 90.005203 103.475304 90.557205 103.089302 91.436203 C 102.877296 91.920197 102.660301 92.403198 102.442299 92.8862 C 101.727303 94.473206 100.988297 96.114197 100.397301 97.860199 C 99.901299 99.326202 99.985298 100.693207 100.047302 101.691193 C 100.060303 101.897202 100.074303 102.103195 100.0783 102.305206"/>
    <path id="path6" fill="#ffffff" stroke="none" d="M 190.619797 136 C 189.514801 136 188.619797 135.105011 188.619797 134 C 188.619797 132.894989 189.514801 132 190.619797 132 C 191.724792 132 192.619797 132.894989 192.619797 134 C 192.619797 135.105011 191.724792 136 190.619797 136 M 186.619797 140 C 185.514801 140 184.619797 139.105011 184.619797 138 C 184.619797 136.894989 185.514801 136 186.619797 136 C 187.724792 136 188.619797 136.894989 188.619797 138 C 188.619797 139.105011 187.724792 140 186.619797 140 M 182.619797 136 C 181.514801 136 180.619797 135.105011 180.619797 134 C 180.619797 132.894989 181.514801 132 182.619797 132 C 183.724792 132 184.619797 132.894989 184.619797 134 C 184.619797 135.105011 183.724792 136 182.619797 136 M 186.619797 128 C 187.724792 128 188.619797 128.894989 188.619797 130 C 188.619797 131.105011 187.724792 132 186.619797 132 C 185.514801 132 184.619797 131.105011 184.619797 130 C 184.619797 128.894989 185.514801 128 186.619797 128 M 192.361801 128.257996 C 191.6138 125.796005 189.3228 124 186.619797 124 C 183.916794 124 181.625793 125.796005 180.877808 128.257996 C 178.415802 129.005997 176.619797 131.296997 176.619797 134 C 176.619797 136.703003 178.415802 138.994003 180.877808 139.742004 C 181.625793 142.20401 183.916794 144 186.619797 144 C 189.3228 144 191.6138 142.20401 192.361801 139.742004 C 194.823807 138.994003 196.619797 136.703003 196.619797 134 C 196.619797 131.296997 194.823807 129.005997 192.361801 128.257996"/>
    <path id="path7" fill="#ffffff" stroke="none" d="M 74.619797 136 C 73.514801 136 72.619797 135.105011 72.619797 134 C 72.619797 132.894989 73.514801 132 74.619797 132 C 75.7248 132 76.619797 132.894989 76.619797 134 C 76.619797 135.105011 75.7248 136 74.619797 136 M 70.619797 140 C 69.514801 140 68.619797 139.105011 68.619797 138 C 68.619797 136.894989 69.514801 136 70.619797 136 C 71.7248 136 72.619797 136.894989 72.619797 138 C 72.619797 139.105011 71.7248 140 70.619797 140 M 66.619797 136 C 65.514801 136 64.619797 135.105011 64.619797 134 C 64.619797 132.894989 65.514801 132 66.619797 132 C 67.7248 132 68.619797 132.894989 68.619797 134 C 68.619797 135.105011 67.7248 136 66.619797 136 M 70.619797 128 C 71.7248 128 72.619797 128.894989 72.619797 130 C 72.619797 131.105011 71.7248 132 70.619797 132 C 69.514801 132 68.619797 131.105011 68.619797 130 C 68.619797 128.894989 69.514801 128 70.619797 128 M 76.361801 128.257996 C 75.6138 125.796005 73.3228 124 70.619797 124 C 67.916801 124 65.625801 125.796005 64.8778 128.257996 C 62.415798 129.005997 60.619801 131.296997 60.619801 134 C 60.619801 136.703003 62.415798 138.994003 64.8778 139.742004 C 65.625801 142.20401 67.916801 144 70.619797 144 C 73.3228 144 75.6138 142.20401 76.361801 139.742004 C 78.823799 138.994003 80.619797 136.703003 80.619797 134 C 80.619797 131.296997 78.823799 129.005997 76.361801 128.257996"/>
    <path id="path8" fill="#ffffff" stroke="none" d="M 240.445801 103.687698 C 239.508804 104.268707 238.511795 104.901703 237.4608 105.099701 C 236.084793 105.360703 234.661804 105.361694 233.056793 105.434692 C 232.685806 105.451706 232.4328 105.826706 232.551804 106.182693 C 232.747803 106.765701 232.871796 107.213699 233.069794 107.251694 C 234.456802 107.515701 235.861801 107.682693 237.263794 107.849701 C 237.982803 107.935699 238.401794 108.742706 238.036804 109.376694 C 237.083801 111.027695 235.041794 112.105698 232.364807 112.105698 C 230.158798 112.105698 227.522797 111.374695 224.707794 109.628693 C 224.629807 109.580704 224.541794 109.556702 224.455795 109.556702 C 224.338806 109.556702 224.222794 109.599701 224.132797 109.684708 L 224.130798 109.687698 C 223.530792 109.430695 223.021805 109.339706 222.6008 109.339706 C 222.333801 109.339706 222.101807 109.376694 221.906799 109.430695 C 221.593796 109.369705 221.2798 109.307693 220.977798 109.307693 C 220.859802 109.307693 220.743805 109.316696 220.629807 109.339706 C 219.549805 109.558701 218.524796 110.059708 217.445801 110.294693 C 214.318802 110.973694 211.1698 111.547699 208.045792 112.240707 L 208.045792 109.184708 C 208.872803 108.894699 209.667801 108.605698 210.258804 108.433701 C 211.204803 108.1577 212.075806 107.598694 213.027802 107.370697 C 215.370804 106.809692 217.767807 106.459702 220.0858 105.812698 C 220.729797 105.632706 221.668793 104.671707 221.627792 104.136703 C 221.513794 102.633698 224.080795 98.4487 224.828796 97.447693 C 225.091797 97.095703 225.4608 96.933701 225.828796 96.933701 C 226.385803 96.933701 226.938797 97.304703 227.1138 97.950699 C 227.115799 97.960693 225.146805 101.071701 225.149796 101.080704 C 225.382797 101.918701 225.827805 103.043701 226.469803 103.307693 C 226.542801 103.337708 226.631805 103.3517 226.730804 103.3517 C 227.347794 103.3517 228.3638 102.804703 228.661804 102.269699 C 229.821808 100.1987 231.819794 99.606705 233.721802 98.799698 C 234.381805 98.520706 235.094803 98.343704 235.800797 98.219696 C 235.819794 98.216705 235.838806 98.214706 235.859802 98.214706 C 236.095795 98.214706 236.452805 98.416702 236.531799 98.607697 C 236.603806 98.781693 236.386795 99.236694 236.1828 99.346695 C 235.147797 99.908707 234.077805 100.402695 233.015793 100.912704 C 232.377808 101.219696 231.737793 101.521698 230.973801 101.882706 C 230.305801 102.197693 230.172806 103.107697 230.7258 103.6017 C 231.084793 103.922699 231.390793 104.149704 231.713806 104.176697 C 231.762802 104.180695 231.812805 104.182693 231.861801 104.182693 C 232.636795 104.182693 233.444794 103.706696 234.243805 103.477707 C 236.022797 102.967697 237.798798 102.441696 239.595795 102.006699 C 239.635803 101.997696 239.679794 101.992706 239.727798 101.992706 C 240.063797 101.992706 240.558807 102.2117 240.642807 102.433701 C 240.776794 102.790695 240.691803 103.535706 240.445801 103.687698 M 188.619797 89.999695 C 188.619797 86.686707 191.305801 83.999695 194.619797 83.999695 C 197.933792 83.999695 200.619797 86.686707 200.619797 89.999695 C 200.619797 93.313705 197.933792 95.999695 194.619797 95.999695 C 191.305801 95.999695 188.619797 93.313705 188.619797 89.999695 M 180.619797 87.999695 C 178.410797 87.999695 176.619797 86.208694 176.619797 83.999695 C 176.619797 81.790695 178.410797 79.999695 180.619797 79.999695 C 182.828796 79.999695 184.619797 81.790695 184.619797 83.999695 C 184.619797 86.208694 182.828796 87.999695 180.619797 87.999695 M 188.619797 101.999695 C 188.619797 105.313705 185.933792 107.999695 182.619797 107.999695 C 179.305801 107.999695 176.619797 105.313705 176.619797 101.999695 C 176.619797 98.686707 179.305801 95.999695 182.619797 95.999695 C 185.933792 95.999695 188.619797 98.686707 188.619797 101.999695 M 187.567795 155.999695 L 171.999802 155.999695 L 171.999802 72.133698 L 187.567795 72.133698 C 195.611801 72.133698 202.311798 78.067703 203.716797 85.870697 C 202.140793 82.413696 198.660797 79.999695 194.619797 79.999695 C 192.270798 79.999695 190.111801 80.819702 188.402802 82.180695 C 187.576797 78.644699 184.4048 75.999695 180.619797 75.999695 C 176.208801 75.999695 172.619797 79.588699 172.619797 83.999695 C 172.619797 88.410706 176.208801 91.999695 180.619797 91.999695 C 182.096802 91.999695 183.4758 91.590698 184.664795 90.889694 C 184.706802 91.360703 184.784805 91.819702 184.889801 92.269699 C 184.158798 92.099701 183.401794 91.999695 182.619797 91.999695 C 177.105804 91.999695 172.619797 96.485703 172.619797 101.999695 C 172.619797 107.513702 177.105804 111.999695 182.619797 111.999695 C 188.133804 111.999695 192.619797 107.513702 192.619797 101.999695 C 192.619797 101.218704 192.520798 100.460693 192.349792 99.729706 C 193.080795 99.900696 193.837799 99.999695 194.619797 99.999695 C 198.926804 99.999695 202.594803 97.257706 203.999802 93.432693 L 203.999802 139.2267 C 203.999802 148.475708 196.628799 155.999695 187.567795 155.999695 M 91.999802 72.133698 L 167.999802 72.133698 L 167.999802 156.000702 L 91.999802 156.000702 Z M 151.388794 167.662689 C 151.180801 168.091705 150.716797 168.630707 150.299789 168.696701 C 148.848801 168.926697 148.870804 169.807709 149.052795 170.858704 C 149.07579 170.990692 149.106796 171.126709 149.137802 171.263702 C 149.040802 171.486694 148.958801 171.719696 148.901794 171.964691 L 148.658798 173.016693 C 148.64679 173.024689 148.634796 173.0327 148.622803 173.040695 L 148.393799 173.066696 L 147.979797 173.112701 C 147.829803 172.783691 147.648804 172.444702 147.7258 172.177704 C 148.878799 168.192688 148.726791 164.109711 148.819794 160.0457 L 152.859802 160.0457 C 153.177795 162.679703 152.571793 165.219696 151.388794 167.662689 M 144.621796 177.515701 C 144.737793 177.501709 144.849792 177.4897 144.96579 177.4767 C 145.651794 177.399689 146.328796 177.3237 146.990799 177.249695 C 147.355804 177.354706 147.729797 177.4077 148.099792 177.4077 C 148.774796 177.4077 149.440796 177.235687 150.033798 176.9077 C 150.676804 176.835693 151.305801 176.764709 151.911804 176.696701 C 152.035797 176.161697 152.163803 175.609695 152.296799 175.035706 C 152.570801 174.673706 152.821793 174.246704 152.997803 173.7267 C 153.088791 173.457703 153.144791 173.197693 153.186798 172.942688 C 153.18779 172.943695 153.188797 172.943695 153.189804 172.943695 C 153.454803 172.99469 153.717804 173.047699 153.97879 173.103699 C 154.048798 173.118698 154.11879 173.134705 154.188797 173.149689 C 154.402802 173.197693 154.615799 173.246704 154.82579 173.299698 C 154.925797 173.324707 155.023804 173.352692 155.121796 173.3797 C 155.306793 173.428696 155.489792 173.479706 155.670792 173.535706 C 155.787796 173.571701 155.901794 173.611694 156.0168 173.650696 C 156.178802 173.705688 156.34079 173.759705 156.499802 173.820709 C 156.627792 173.870697 156.753799 173.926697 156.879791 173.981689 C 157.02179 174.041687 157.163803 174.100708 157.302795 174.167694 C 157.442795 174.235687 157.577805 174.31369 157.713791 174.388702 C 157.833801 174.454697 157.955795 174.516693 158.073792 174.588699 C 158.229797 174.684692 158.379791 174.794708 158.530792 174.902695 C 158.622803 174.967697 158.717804 175.026703 158.8078 175.095703 C 159.041794 175.278702 159.268799 175.4767 159.487793 175.693695 C 159.490799 175.696701 159.494797 175.699707 159.497803 175.702698 C 160.694794 176.890701 162.019791 178.023697 162.928802 179.404694 C 164.259796 181.427704 164.719803 183.746704 164.664795 186.099701 C 164.657791 186.435699 164.638794 186.772705 164.611801 187.109695 C 164.556793 187.768707 164.184799 188.161697 163.686798 188.397705 C 163.188797 188.634705 162.565796 188.714691 162.009796 188.749695 C 161.50679 188.780701 161.008804 188.797699 160.513794 188.797699 C 158.087799 188.797699 155.77179 188.403702 153.623795 187.483704 C 153.193802 187.299698 152.77179 187.093689 152.355804 186.866699 C 151.524796 186.411697 150.722794 185.868698 149.952805 185.227692 C 148.681793 184.168701 147.630798 182.962708 146.75679 181.659698 C 145.88179 180.357697 145.184799 178.95871 144.621796 177.515701 M 105.580795 170.002701 C 105.798798 171.526703 106.986801 172.8367 107.753799 174.224701 C 108.045807 174.753693 108.401794 175.227692 108.755798 175.7677 C 108.750793 175.777695 108.745804 175.787689 108.740799 175.797699 L 107.6698 175.993698 C 106.720795 176.008698 105.843796 176.218689 105.060806 176.617706 C 104.9888 176.653702 104.928802 176.690704 104.858795 176.727692 C 104.688797 176.5047 104.541794 176.258698 104.459808 175.953705 C 104.295807 175.352692 103.920807 174.850708 103.428802 174.706696 C 102.625793 174.471695 102.289795 173.430695 101.977798 172.417694 C 101.378799 170.469696 100.776794 168.512695 100.3228 166.506699 C 100.090805 165.481689 100.086807 164.334702 100.139801 163.255707 C 100.191803 162.184692 100.260803 161.1147 100.3358 160.0457 L 104.608795 160.0457 C 104.620804 163.397705 105.110794 166.7117 105.580795 170.002701 M 110.684799 180.263702 C 110.341797 182.000702 109.170807 182.774689 107.851807 183.492706 C 103.331802 185.955688 98.640808 188.00769 93.650803 189.185699 C 90.879807 189.839691 88.005798 190.035706 85.177795 190.43869 C 84.512802 190.533691 83.8078 190.515701 83.190796 190.746704 C 82.222794 191.109695 81.261795 191.260696 80.312805 191.260696 C 78.739807 191.260696 77.196808 190.845703 75.696808 190.292694 C 74.869797 189.987701 74.347794 188.818695 73.633804 187.983704 C 75.234802 185.565704 77.517807 184.650696 79.806793 183.899689 C 84.070801 182.500702 88.368805 181.190704 92.700806 180.028702 C 94.739807 179.481689 96.881805 179.277695 98.991806 179.099701 C 99.080795 179.091705 99.173798 179.087708 99.268799 179.087708 C 99.958801 179.087708 100.721802 179.337708 100.548798 180.562698 C 100.437805 181.347702 101.532806 182.237701 102.539795 182.237701 C 102.712799 182.237701 102.882797 182.2117 103.043808 182.154694 C 103.586807 181.960693 104.105804 181.700699 104.619797 181.424698 C 105.384796 181.781708 106.168808 181.963699 106.950806 181.963699 C 108.686798 181.963699 109.874802 181.165695 110.684799 180.263702 M 68.4328 155.999695 C 59.371796 155.999695 51.999802 148.475708 51.999802 139.2267 L 51.999802 88.906693 C 51.999802 79.6577 59.371796 72.133698 68.4328 72.133698 L 87.999802 72.133698 L 87.999802 155.999695 Z M 38.439804 116.421707 C 37.625793 116.266693 36.878799 116.191696 36.205795 116.191696 C 34.343796 116.191696 33.056793 116.761703 32.531799 117.755707 L 32.226807 118.828705 C 31.776794 120.0867 31.079803 121.303696 30.263794 122.358704 C 29.549805 123.280701 28.281799 123.799698 27.693802 124.771698 C 26.397797 126.908707 24.415802 127.940704 22.281799 128.740692 C 22.255798 128.750702 22.2258 128.755707 22.192795 128.755707 C 21.745804 128.755707 20.709808 127.923706 20.740799 127.847702 C 21.3508 126.365692 21.7668 124.473694 22.9048 123.645706 C 23.870804 122.943695 24.889801 122.505707 25.330795 121.334702 C 24.689804 120.746704 24.217804 119.871704 23.476807 119.871704 C 23.078796 119.870697 22.604797 120.121704 21.986801 120.802704 C 20.831802 122.072693 18.691803 122.456696 16.940796 123.084702 C 16.745804 123.154694 16.492798 123.189697 16.235794 123.189697 C 15.773803 123.189697 15.295806 123.075699 15.106795 122.840698 C 14.724807 122.3647 14.517806 121.043701 14.786803 120.8367 C 16.037796 119.877701 17.400803 118.895706 18.874802 118.468704 C 19.5168 118.2827 20.198807 118.230698 20.892807 118.230698 C 21.721802 118.230698 22.569794 118.304703 23.392807 118.313705 C 23.565796 118.314697 23.740799 118.322693 23.907806 118.322693 C 24.528793 118.322693 25.055801 118.212692 25.087799 117.265701 C 25.126801 116.149704 24.729797 115.220703 23.543808 115.118698 C 22.842804 115.058701 22.132797 115.021698 21.424805 115.021698 C 20.752808 115.021698 20.081802 115.054703 19.420807 115.134705 C 19.287796 115.150696 19.146805 115.158707 19.001801 115.158707 C 17.865799 115.158707 16.439804 114.672699 15.651793 113.855698 C 15.5018 113.700699 15.569793 113.439697 15.775802 113.381699 C 16.573807 113.155701 17.369797 112.935699 18.161804 112.699707 C 19.750793 112.223694 21.331802 111.870697 22.908798 111.870697 C 24.324799 111.870697 25.737808 112.154694 27.153793 112.888702 C 27.888794 113.270706 28.665802 113.7547 29.436798 113.7547 C 29.997803 113.7547 30.554794 113.498703 31.092804 112.762695 C 31.236801 112.563705 31.700806 112.639694 31.971802 112.499695 C 32.062805 112.452698 32.152802 112.402695 32.242798 112.3517 C 32.984802 111.925705 33.187805 111.467697 32.5578 110.883698 C 32.357803 110.697693 32.150803 110.400696 31.724808 110.366699 C 30.513794 110.268707 28.825806 109.713699 28.097794 108.658707 C 27.907806 108.383698 28.089798 108.298706 28.082794 107.962708 C 28.538803 107.743698 28.982803 107.628693 29.416794 107.628693 C 30.099808 107.628693 30.754807 107.913696 31.383804 108.520706 C 31.819794 108.941696 32.241806 109.560699 32.757797 109.675705 C 34.168808 109.988693 34.925797 110.978699 35.268799 112.186707 C 35.519806 113.072693 35.965805 113.346695 36.598801 113.346695 C 36.718796 113.346695 36.845795 113.3367 36.979797 113.319702 C 39.1828 113.0327 41.385803 112.732697 43.579803 112.376694 C 45.228806 112.108704 46.565796 111.827698 47.953796 111.539703 L 47.953796 115.922699 C 44.671799 116.090698 42.206802 116.255707 38.439804 116.421707 M 244.384796 101.021698 C 243.714798 99.245697 242.028793 98.294693 240.496796 98.054703 C 240.448807 97.7267 240.360794 97.398697 240.227798 97.077698 C 239.5298 95.391693 237.733795 94.214706 235.859802 94.214706 C 235.607803 94.214706 235.355804 94.236694 235.110794 94.279694 C 233.993805 94.475693 233.028793 94.749695 232.160797 95.116699 C 231.945801 95.208694 231.728806 95.296707 231.512802 95.384705 C 231.202805 95.510696 230.874802 95.644699 230.535797 95.792694 C 229.622803 94.063705 227.8228 92.933701 225.828796 92.933701 C 224.162796 92.933701 222.629807 93.706696 221.623795 95.054703 C 221.588806 95.100693 218.803802 98.901703 217.903793 102.244705 C 217.030792 102.451706 216.124802 102.632706 215.1828 102.821701 C 214.179794 103.022705 213.142807 103.229706 212.094803 103.480698 C 211.224792 103.689697 210.495804 104.014694 209.910797 104.276703 C 209.618805 104.406693 209.316803 104.541702 209.140793 104.592697 C 208.800797 104.691696 208.428802 104.816696 208.045792 104.9487 L 208.045792 88.906693 C 208.045792 77.426697 198.859802 68.087708 187.567795 68.087708 L 68.4328 68.087708 C 57.140808 68.087708 47.953796 77.426697 47.953796 88.906693 L 47.953796 107.455704 C 47.607803 107.526703 47.2668 107.596695 46.9328 107.665695 C 45.639801 107.933701 44.418808 108.187698 42.937805 108.427704 C 41.364807 108.683701 39.761795 108.912704 38.269806 109.113693 C 37.406799 107.668701 36.122803 106.6017 34.5448 106.035706 C 34.416794 105.898697 34.289795 105.765701 34.161804 105.6427 C 32.437805 103.978699 30.629807 103.628693 29.416794 103.628693 C 28.387802 103.628693 27.355804 103.873703 26.349808 104.357697 C 25.095795 104.959702 24.256805 106.163696 24.106796 107.521698 C 24.079803 107.656693 24.058807 107.788696 24.043808 107.917694 C 23.668808 107.886703 23.290802 107.870697 22.908798 107.870697 C 21.133804 107.870697 19.315796 108.178696 17.014801 108.867706 C 16.400803 109.050705 15.784804 109.223694 15.165801 109.397705 L 14.689803 109.531693 C 13.248794 109.937698 12.110793 111.088699 11.719802 112.535706 C 11.327804 113.984695 11.731795 115.554703 12.773803 116.633698 C 12.905807 116.770706 13.046798 116.903702 13.193801 117.031693 C 12.903792 117.243698 12.623794 117.454697 12.352798 117.662704 C 11.436797 118.3647 10.849807 119.421707 10.703795 120.637695 C 10.546798 121.938705 10.881804 123.967697 11.988799 125.345703 C 12.944793 126.534698 14.452804 127.189697 16.235794 127.189697 C 16.427795 127.189697 16.615799 127.182693 16.801804 127.166702 C 16.629807 128.177704 16.849808 129.2397 17.428802 130.103699 C 17.985794 130.934692 19.957794 132.755707 22.192795 132.755707 C 22.707794 132.755707 23.209808 132.664703 23.684799 132.486694 C 26.064804 131.594696 29.036804 130.16571 31.023804 126.991699 C 31.128799 126.900696 31.321808 126.753693 31.469803 126.641693 C 32.020798 126.221695 32.776794 125.646698 33.426804 124.806702 C 34.527802 123.383698 35.412796 121.790695 35.984802 120.196701 C 36.051804 120.193695 36.124802 120.191696 36.205795 120.191696 C 36.638794 120.191696 37.136795 120.245697 37.686798 120.350693 C 37.934799 120.398697 38.186798 120.421692 38.439804 120.421692 C 38.498795 120.421692 38.556793 120.4207 38.615799 120.418701 C 40.980804 120.313705 42.858795 120.208694 44.674805 120.106705 C 45.715805 120.047699 46.790802 119.987701 47.953796 119.927704 L 47.953796 139.2267 C 47.953796 150.706696 57.140808 160.0457 68.4328 160.0457 L 96.323807 160.0457 C 96.251801 161.098694 96.191803 162.102692 96.144806 163.059692 C 96.0858 164.248703 96.064804 165.815704 96.421799 167.389709 C 96.909805 169.544708 97.542801 171.603699 98.1548 173.593689 C 98.2798 173.998688 98.445801 174.535706 98.696808 175.111694 C 98.6828 175.112701 98.668808 175.112701 98.6548 175.113708 C 96.2948 175.312698 93.984802 175.542694 91.664795 176.165695 C 87.556793 177.2677 83.269806 178.553696 78.559799 180.098694 C 76.549805 180.758698 72.8078 181.985687 70.298798 185.774689 C 69.312805 187.263702 69.4328 189.224701 70.592804 190.581696 C 70.688797 190.694702 70.839798 190.912689 70.985794 191.123688 C 71.614807 192.030701 72.564804 193.401703 74.313797 194.046692 C 76.560806 194.874695 78.466797 195.260696 80.312805 195.260696 C 81.754807 195.260696 83.159805 195.014709 84.4888 194.531708 C 84.586807 194.5177 84.762802 194.501709 84.897797 194.490692 C 85.181793 194.465698 85.464798 194.43869 85.742798 194.398697 C 86.591797 194.277695 87.445801 194.176697 88.299805 194.074707 C 90.3358 193.831696 92.440796 193.581696 94.569794 193.078705 C 99.378799 191.942688 104.349808 189.956696 109.765808 187.005707 C 111.173798 186.238708 114.445801 184.455688 114.762802 179.881699 C 114.775803 179.752701 114.781799 179.622696 114.781799 179.4897 C 114.781799 177.995697 113.954803 176.70871 112.741798 176.021698 C 112.795799 175.172699 112.584801 174.31369 112.101807 173.576691 C 111.974808 173.38269 111.847794 173.195709 111.722794 173.012695 C 111.5298 172.729706 111.362808 172.485687 111.254807 172.289703 C 110.953796 171.745697 110.626801 171.245697 110.338806 170.804688 C 110.0448 170.354706 109.599808 169.674698 109.536804 169.416687 L 109.467804 168.929688 C 109.028793 165.860703 108.617798 162.931702 108.607803 160.0457 L 144.821793 160.0457 C 144.8078 160.681702 144.791794 161.321701 144.783798 161.937698 C 144.741791 165.176697 144.701797 168.235687 143.882797 171.065704 C 143.596802 172.055695 143.702805 172.930695 143.8918 173.605698 C 143.337799 173.709702 142.817795 173.916687 142.361801 174.229706 C 142.311798 174.263702 142.270798 174.307709 142.222794 174.343689 C 142.050797 174.473694 141.878799 174.603699 141.72879 174.760696 C 141.528793 174.967697 141.349792 175.195709 141.1978 175.446701 C 141.036804 175.712708 140.90979 175.993698 140.815796 176.283691 C 140.53479 177.152695 140.556793 178.1017 140.894791 178.969696 C 141.175797 179.687698 141.487793 180.372696 141.814804 181.040695 C 142.804794 183.061707 143.999802 184.858704 145.405792 186.399689 C 146.028793 187.082703 146.691803 187.716705 147.393799 188.301697 C 147.84079 188.674698 148.301804 189.024689 148.775803 189.3517 C 152.09079 191.639709 156.030792 192.797699 160.513794 192.797699 L 160.513794 192.797699 C 161.083801 192.797699 161.670792 192.778702 162.260803 192.741699 C 167.763794 192.396698 168.502792 188.594696 168.597794 187.437698 C 168.71579 186.012695 168.6828 184.655701 168.512802 183.366699 C 168.2108 181.085693 167.464798 179.021698 166.269791 177.205688 C 165.549789 176.111694 164.695801 175.191696 163.867798 174.370697 C 163.592804 174.097702 163.319794 173.834702 163.054794 173.581696 C 163.047791 173.574707 163.040802 173.567688 163.033798 173.560699 C 162.792801 173.328705 162.551804 173.097702 162.315796 172.863708 C 162.314804 172.862701 162.313797 172.861694 162.31279 172.860687 C 162.009796 172.559692 161.695801 172.288696 161.376801 172.033691 C 161.268799 171.947693 161.157791 171.871704 161.048798 171.790695 C 160.832794 171.630707 160.616791 171.475708 160.395798 171.33371 C 160.261795 171.247696 160.127792 171.166687 159.992798 171.0867 C 159.791794 170.968689 159.589798 170.856689 159.385803 170.750702 C 159.2388 170.674698 159.092804 170.597702 158.944794 170.527695 C 158.752792 170.437698 158.560791 170.355698 158.367798 170.274689 C 158.207794 170.207703 158.048798 170.136688 157.888794 170.074707 C 157.760803 170.026703 157.63179 169.985687 157.502792 169.940704 C 157.017792 169.769699 156.532791 169.618698 156.048798 169.490692 C 156.024796 169.484695 156.000793 169.4767 155.976791 169.470703 C 155.668793 169.389709 155.362793 169.316696 155.0578 169.248688 C 156.539795 166.130707 157.139801 163.046692 156.875793 160.0457 L 187.567795 160.0457 C 198.859802 160.0457 208.045792 150.706696 208.045792 139.2267 L 208.045792 116.737701 C 208.562805 116.530701 208.974792 116.2957 209.298798 116.056702 C 210.792801 115.730698 212.3228 115.423706 213.8078 115.126694 C 215.274796 114.833694 216.791794 114.529694 218.2948 114.202698 C 219.052795 114.038696 219.716797 113.808701 220.302795 113.606705 C 220.582794 113.509705 220.852798 113.415695 221.088806 113.346695 L 221.117798 113.3517 C 221.374802 113.401703 221.640793 113.426697 221.906799 113.426697 C 222.130798 113.426697 222.354797 113.408707 222.574799 113.372696 C 222.934799 113.524704 223.3078 113.620697 223.683807 113.662704 C 226.591797 115.264694 229.570801 116.105698 232.364807 116.105698 C 236.377808 116.105698 239.792801 114.3367 241.501801 111.374695 C 242.194794 110.172699 242.351807 108.757706 241.963806 107.450699 C 242.140793 107.343704 242.310806 107.237701 242.474792 107.135696 L 242.554794 107.0867 C 244.643799 105.790695 245.125793 102.985703 244.384796 101.021698"/>
    <path id="path9" fill="#ffffff" stroke="none" d="M 72 88 L 68 88 L 68 96 L 60 96 L 60 100 L 68 100 L 68 108 L 72 108 L 72 100 L 80 100 L 80 96 L 72 96 Z"/>
</svg>
