<?xml version="1.0" encoding="UTF-8"?>
<!-- Generated by Pixelmator Pro 3.7.1 -->
<svg width="256" height="256" viewBox="0 0 256 256" xmlns="http://www.w3.org/2000/svg">
    <path id="Path" fill="#ffffff" stroke="none" d="M 208 208 L 50.828003 208 L 107.088997 151.738998 C 111.350998 156.455002 115.341003 160.690002 118.216003 163.695999 C 120.369003 165.946991 122.133003 167.757996 123.235001 168.880997 C 125.882004 171.578995 126.289001 171.994003 127.982002 171.994003 C 128.580994 171.994003 129.17099 171.859009 129.709991 171.602005 C 130.421997 171.261002 130.59201 171.179993 137.75 163.694 C 141.537003 159.734009 147.255005 153.645996 152.984009 147.136002 C 175.973999 121.009003 175.992996 114.466003 176 112.002991 C 176.022003 104.278992 173.106995 96.912994 168.002991 91.794006 C 167.841995 91.632004 167.673004 91.479004 167.507004 91.320999 L 208 50.828003 Z M 163.119003 92.81601 C 163.143005 92.834991 163.166992 92.854004 163.190002 92.872009 C 163.709 93.278 164.205994 93.70401 164.679001 94.149002 C 169.565002 98.751007 172.020004 105.36499 172 111.990997 C 171.964996 123.997009 127.985001 167.996002 127.982002 167.994003 C 127.978996 167.994003 119.460999 159.472992 109.919998 148.908005 L 109.920998 148.906998 C 109.037003 147.929001 108.144997 146.932007 107.249001 145.923004 L 107.248001 145.923996 C 95.845001 133.078003 83.983002 118.223999 83.964996 111.990997 C 83.931 99.983002 92 88 108 88 C 123.425003 88 127.695999 95.432999 127.982002 95.96701 C 128.269989 95.432999 132.540009 88 147.964996 88 C 153.393005 88 157.903992 89.382004 161.5 91.671997 C 162.061996 92.031006 162.602005 92.415009 163.119003 92.81601 M 48 48 L 205.171997 48 L 164.384003 88.789001 C 159.811996 85.647003 154.225006 84 147.964996 84 C 140.75 84 134.757996 85.481995 130.152008 88.406998 C 129.317993 88.936996 128.59201 89.475998 127.962997 90.002991 C 124.588997 87.195007 118.453003 84 108 84 C 99.974998 84 93.045998 86.695007 87.961998 91.794006 C 82.857002 96.912994 79.942993 104.278992 79.964996 112.002991 C 79.972 114.466003 79.990997 121.01001 102.981003 147.136993 C 103.459999 147.682007 103.938004 148.218002 104.416 148.755997 L 48 205.171997 Z M 209.171997 44 L 208 44 L 48 44 L 44 44 L 44 48 L 44 208 L 44 209.171997 L 44 212 L 46.828003 212 L 48 212 L 208 212 L 212 212 L 212 208 L 212 48 L 212 46.828003 L 212 44 Z"/>
</svg>
