<?xml version="1.0" encoding="UTF-8"?>
<!-- Generated by Pixelmator Pro 3.7.1 -->
<svg width="256" height="256" viewBox="0 0 256 256" xmlns="http://www.w3.org/2000/svg">
    <path id="Path" fill="#ffffff" stroke="none" d="M 14.8281 244 L 107.089104 151.738998 C 111.351105 156.455002 115.341103 160.690002 118.216103 163.695999 C 120.369102 165.946991 122.133102 167.757996 123.2351 168.880997 C 125.882103 171.57901 126.288101 171.994003 127.982101 171.994003 C 128.580093 171.994003 129.171097 171.859009 129.710098 171.60199 C 130.422104 171.261002 130.592102 171.179993 137.750092 163.694 C 141.537094 159.734009 147.255096 153.645996 152.9841 147.136002 C 175.974091 121.009003 175.993088 114.466003 176.000092 112.003006 C 176.022095 104.279007 173.107101 96.912994 168.003098 91.794006 C 167.842102 91.632004 167.673096 91.479004 167.507095 91.320999 L 244.000092 14.828003 L 244.000092 244 Z M 163.119095 92.815994 C 163.14209 92.835007 163.167099 92.854004 163.190094 92.871994 C 163.709091 93.278 164.2061 93.703995 164.679092 94.149002 C 169.565094 98.751007 172.019089 105.365005 172.000092 111.990997 C 171.965088 123.997009 127.9851 167.996002 127.982101 167.994003 C 127.979103 167.994003 119.461105 159.472992 109.920105 148.90799 L 109.921104 148.906998 C 109.036102 147.929001 108.144104 146.932007 107.2481 145.923004 L 107.2481 145.924011 C 95.8451 133.078003 83.983101 118.223999 83.965103 111.990997 C 83.931099 99.983002 92.000099 88 108.000099 88 C 123.425102 88 127.696098 95.432999 127.982101 95.966995 C 128.269104 95.432999 132.5401 88 147.965088 88 C 153.39209 88 157.904099 89.382004 161.500092 91.671997 C 162.062088 92.031006 162.601089 92.414993 163.119095 92.815994 M 241.172089 12 L 164.384094 88.789001 C 159.812088 85.647003 154.224091 84 147.965088 84 C 140.750092 84 134.758102 85.481995 130.1521 88.406998 C 129.3181 88.936996 128.592102 89.475998 127.963104 90.003006 C 124.589104 87.195007 118.453102 84 108.000099 84 C 99.975105 84 93.046104 86.695007 87.962105 91.794006 C 82.857101 96.912994 79.9431 104.279007 79.965103 112.003006 C 79.972099 114.466003 79.991104 121.01001 102.981102 147.136993 C 103.460106 147.682007 103.938103 148.218002 104.4161 148.755997 L 12.0001 241.171997 L 12.0001 12 Z M 244.000092 8 L 12.0001 8 L 8.0001 8 L 8.0001 12 L 8.0001 244 L 8.0001 248 L 12.0001 248 L 244.000092 248 L 248.000092 248 L 248.000092 244 L 248.000092 12 L 248.000092 8 Z"/>
</svg>
