<?xml version="1.0" encoding="UTF-8"?>
<!-- Generated by Pixelmator Pro 3.7.1 -->
<svg width="256" height="256" viewBox="0 0 256 256" xmlns="http://www.w3.org/2000/svg">
    <path id="Path" fill="#ffffff" stroke="none" d="M 60 50 C 60 48.895004 60.895 48 62 48 L 234 48 C 235.104996 48 236 48.895004 236 50 L 236 98 C 236 99.104996 235.104996 100 234 100 L 62 100 C 60.895 100 60 99.104996 60 98 Z M 62 104 L 234 104 C 237.307999 104 240 101.307999 240 98 L 240 50 C 240 46.692001 237.307999 44 234 44 L 62 44 C 58.692001 44 56 46.692001 56 50 L 56 98 C 56 101.307999 58.692001 104 62 104"/>
    <path id="path1" fill="#ffffff" stroke="none" d="M 224 92 L 100 92 L 100 60 L 224 60 Z M 228 56 L 96 56 L 96 96 L 228 96 Z"/>
    <path id="path2" fill="#ffffff" stroke="none" d="M 244 112 L 240 176 L 244 180 L 236 204 L 232 208 L 24 208 L 20 204 L 12 180 L 16 176 L 12 112 L 12 40 L 244 40 Z M 246.828003 177.171997 L 244.104996 174.447998 L 247.992004 112.25 L 248 112.125 L 248 112 L 248 40 L 248 36 L 244 36 L 12 36 L 8 36 L 8 40 L 8 112 L 8 112.125 L 8.007996 112.25 L 11.895004 174.447998 L 9.171997 177.171997 L 7.423996 178.919998 L 8.205002 181.264999 L 16.205002 205.264999 L 16.503998 206.161011 L 17.171997 206.828003 L 21.171997 210.828003 L 22.343002 212 L 24 212 L 232 212 L 233.656998 212 L 234.828003 210.828003 L 238.828003 206.828003 L 239.496002 206.161011 L 239.794998 205.264999 L 247.794998 181.264999 L 248.576996 178.919998 Z"/>
    <path id="path3" fill="#ffffff" stroke="none" d="M 36 134 L 44 134 L 44 142 L 36 142 Z M 40 124 L 48 124 L 48 132 L 40 132 Z M 54 142 L 46 142 L 46 134 L 54 134 Z M 50 124 L 58 124 L 58 132 L 50 132 Z M 64 142 L 56 142 L 56 134 L 64 134 Z M 60 124 L 68 124 L 68 132 L 60 132 Z M 74 142 L 66 142 L 66 134 L 74 134 Z M 70 124 L 78 124 L 78 132 L 70 132 Z M 84 142 L 76 142 L 76 134 L 84 134 Z M 80 124 L 88 124 L 88 132 L 80 132 Z M 94 142 L 86 142 L 86 134 L 94 134 Z M 90 124 L 98 124 L 98 132 L 90 132 Z M 104 142 L 96 142 L 96 134 L 104 134 Z M 100 124 L 108 124 L 108 132 L 100 132 Z M 114 142 L 106 142 L 106 134 L 114 134 Z M 110 124 L 118 124 L 118 132 L 110 132 Z M 124 142 L 116 142 L 116 134 L 124 134 Z M 120 124 L 128 124 L 128 132 L 120 132 Z M 134 142 L 126 142 L 126 134 L 134 134 Z M 130 124 L 138 124 L 138 132 L 130 132 Z M 144 142 L 136 142 L 136 134 L 144 134 Z M 140 124 L 148 124 L 148 132 L 140 132 Z M 150 142 L 146 142 L 146 134 L 150 134 Z M 150 124 L 158 124 L 158 132 L 150 132 Z M 164 142 L 152 142 L 152 134 L 164 134 Z M 160 152 L 152 152 L 152 144 L 160 144 Z M 160 162 L 156 162 L 156 154 L 160 154 Z M 140 144 L 150 144 L 150 152 L 140 152 Z M 152 162 L 140 162 L 140 154 L 152 154 Z M 138 152 L 130 152 L 130 144 L 138 144 Z M 138 162 L 134 162 L 134 154 L 138 154 Z M 132 162 L 124 162 L 124 154 L 132 154 Z M 132 172 L 64 172 L 64 164 L 132 164 Z M 72 162 L 64 162 L 64 154 L 72 154 Z M 78 152 L 70 152 L 70 144 L 78 144 Z M 82 162 L 74 162 L 74 154 L 82 154 Z M 88 152 L 80 152 L 80 144 L 88 144 Z M 92 162 L 84 162 L 84 154 L 92 154 Z M 98 152 L 90 152 L 90 144 L 98 144 Z M 102 162 L 94 162 L 94 154 L 102 154 Z M 108 152 L 100 152 L 100 144 L 108 144 Z M 112 162 L 104 162 L 104 154 L 112 154 Z M 118 152 L 110 152 L 110 144 L 118 144 Z M 120 144 L 128 144 L 128 152 L 120 152 Z M 122 162 L 114 162 L 114 154 L 122 154 Z M 60 144 L 68 144 L 68 152 L 60 152 Z M 62 162 L 54 162 L 54 154 L 62 154 Z M 50 144 L 58 144 L 58 152 L 50 152 Z M 40 144 L 48 144 L 48 152 L 40 152 Z M 52 162 L 40 162 L 40 154 L 52 154 Z M 168 154 L 176 154 L 176 162 L 168 162 Z M 168 144 L 176 144 L 176 152 L 168 152 Z M 168 134 L 176 134 L 176 142 L 168 142 Z M 168 124 L 176 124 L 176 132 L 168 132 Z M 178 154 L 186 154 L 186 162 L 178 162 Z M 178 144 L 186 144 L 186 152 L 178 152 Z M 178 134 L 186 134 L 186 142 L 178 142 Z M 178 124 L 186 124 L 186 132 L 178 132 Z M 192 154 L 200 154 L 200 162 L 192 162 Z M 192 144 L 200 144 L 200 152 L 192 152 Z M 192 134 L 200 134 L 200 142 L 192 142 Z M 192 124 L 200 124 L 200 132 L 192 132 Z M 202 154 L 210 154 L 210 162 L 202 162 Z M 202 144 L 210 144 L 210 152 L 202 152 Z M 202 134 L 210 134 L 210 142 L 202 142 Z M 202 124 L 210 124 L 210 132 L 202 132 Z M 212 154 L 220 154 L 220 162 L 212 162 Z M 212 144 L 220 144 L 220 152 L 212 152 Z M 212 134 L 220 134 L 220 142 L 212 142 Z M 212 124 L 220 124 L 220 132 L 212 132 Z M 222 154 L 230 154 L 230 162 L 222 162 Z M 222 144 L 230 144 L 230 152 L 222 152 Z M 222 134 L 230 134 L 230 142 L 222 142 Z M 222 124 L 230 124 L 230 132 L 222 132 Z M 36 152 L 36 156 L 36 162 L 36 166 L 40 166 L 50 166 L 54 166 L 60 166 L 60 172 L 60 176 L 64 176 L 132 176 L 136 176 L 136 172 L 136 166 L 140 166 L 152 166 L 156 166 L 160 166 L 164 166 L 168 166 L 174 166 L 178 166 L 186 166 L 188 166 L 192 166 L 198 166 L 202 166 L 208 166 L 212 166 L 218 166 L 222 166 L 230 166 L 234 166 L 234 162 L 234 154 L 234 150 L 234 144 L 234 140 L 234 134 L 234 130 L 234 124 L 234 120 L 230 120 L 224 120 L 220 120 L 214 120 L 210 120 L 204 120 L 200 120 L 192 120 L 190 120 L 186 120 L 180 120 L 176 120 L 168 120 L 164 120 L 164 124 L 164 130 L 162 130 L 162 124 L 162 120 L 158 120 L 152 120 L 148 120 L 142 120 L 138 120 L 132 120 L 128 120 L 122 120 L 118 120 L 112 120 L 108 120 L 102 120 L 98 120 L 92 120 L 88 120 L 82 120 L 78 120 L 72 120 L 68 120 L 62 120 L 58 120 L 52 120 L 48 120 L 40 120 L 36 120 L 36 124 L 36 130 L 32 130 L 32 134 L 32 142 L 32 146 L 36 146 Z"/>
</svg>
