<?xml version="1.0" encoding="UTF-8"?>
<!-- Generated by Pixelmator Pro 3.7.1 -->
<svg width="256" height="256" viewBox="0 0 256 256" xmlns="http://www.w3.org/2000/svg">
    <path id="Path" fill="#ffffff" stroke="none" d="M 192 202.559601 C 192 203.240601 191.067001 203.999603 189.817993 203.999603 L 66.181999 203.999603 C 64.932999 203.999603 64 203.240601 64 202.559601 L 64 77.43959 C 64 76.76059 64.932999 75.999603 66.181999 75.999603 L 189.817993 75.999603 C 191.067001 75.999603 192 76.76059 192 77.43959 Z M 189.817993 71.999603 L 66.181999 71.999603 C 62.763 71.999603 60 74.431595 60 77.43959 L 60 202.559601 C 60 205.568604 62.763 207.999603 66.181999 207.999603 L 189.817993 207.999603 C 193.235992 207.999603 196 205.568604 196 202.559601 L 196 77.43959 C 196 74.431595 193.235992 71.999603 189.817993 71.999603"/>
    <path id="path1" fill="#ffffff" stroke="none" d="M 80.739304 58 L 83.597298 32 L 102.994301 32 L 106.000298 32 L 150.000305 32 L 157.845306 32 L 172.402298 32 L 175.2603 58 Z M 175.986298 28 L 157.845306 28 L 150.000305 28 L 106.000298 28 L 102.994301 28 L 80.013298 28 L 76.275299 62 L 179.724304 62 Z"/>
    <path id="path2" fill="#ffffff" stroke="none" d="M 204 244 L 112 244 L 112 224 L 112 220 L 108 220 L 88 220 L 84 220 L 84 224 L 84 244 L 52 244 L 52 62 L 52.028 62 C 52.565994 53.093994 60.688995 17.475998 60.688995 17.475998 C 61.942001 12.276993 70.940994 12 72.843994 12 C 73.070999 12 73.197006 12.003998 73.197006 12.003998 L 102.994003 12.003998 L 106 12.003998 L 150 12.003998 L 157.846008 12.003998 L 182.802994 12.003998 C 182.802994 12.003998 182.929001 12 183.156006 12 C 185.059998 12 194.057999 12.276993 195.311005 17.475998 C 195.311005 17.475998 203.434006 53.093994 203.972 62 L 204 62 Z M 88 224 L 108 224 L 108 244 L 88 244 Z M 207.927994 61.240005 C 207.132004 51.391006 199.539001 18.026993 199.210999 16.585999 C 197.289001 8.615997 186.436996 8 183.156006 8 C 182.968002 8 182.830994 8.001999 182.753006 8.003998 L 157.846008 8.003998 L 150 8.003998 L 106 8.003998 L 102.994003 8.003998 L 73.248001 8.003998 C 73.169998 8.001999 73.033005 8 72.843994 8 C 69.563004 8 58.710007 8.615005 56.800995 16.537994 C 56.460999 18.026993 48.863998 51.412003 48.070999 61.248993 C 48.024002 61.492004 48 61.742996 48 62 L 48 244 C 48 246.209 49.791 248 52 248 L 84 248 L 88 248 L 108 248 L 112 248 L 204 248 C 206.209 248 208 246.209 208 244 L 208 62 C 208 61.740005 207.975998 61.485992 207.927994 61.240005"/>
    <path id="path3" fill="#ffffff" stroke="none" d="M 76 100 L 180 100 L 180 96 L 76 96 Z"/>
    <path id="path4" fill="#ffffff" stroke="none" d="M 76 88 L 180 88 L 180 84 L 76 84 Z"/>
</svg>
