<?xml version="1.0" encoding="UTF-8"?>
<!-- Generated by Pixelmator Pro 3.7.1 -->
<svg width="256" height="256" viewBox="0 0 256 256" xmlns="http://www.w3.org/2000/svg">
    <path id="Path" fill="#ffffff" stroke="none" d="M 244 196 L 12 196 L 12 60 L 20 60 L 20 84 L 20 88 L 20 188 L 20 192 L 24 192 L 232 192 L 236 192 L 236 188 L 236 88 L 236 84 L 236 60 L 244 60 Z M 216 160 L 216 88 L 232 88 L 232 188 L 208 188 Z M 157.278 172 L 156.610992 176 L 99.389008 176 L 98.722 172 Z M 157.945007 168 L 98.054993 168 L 96.722 160 L 159.278 160 Z M 192 84 L 180 84 L 180 68 L 192 68 Z M 164 78 C 164 74.686996 166.686996 72 170 72 C 173.313004 72 176 74.686996 176 78 C 176 81.313004 173.313004 84 170 84 C 166.686996 84 164 81.313004 164 78 M 104 88 L 108 88 L 120 88 L 124 88 L 132 88 L 136 88 L 176 88 L 180 88 L 192 88 L 196 88 L 212 88 L 212 156 L 164 156 L 92 156 L 44 156 L 44 88 L 88 88 L 92 88 Z M 104 84 L 92 84 L 92 68 L 104 68 Z M 114 84 C 110.686996 84 108 81.313004 108 78 C 108 74.686996 110.686996 72 114 72 C 117.313004 72 120 74.686996 120 78 C 120 81.313004 117.313004 84 114 84 M 132 84 L 124 84 L 124 72 L 132 72 Z M 44 160 L 92.667007 160 L 96 180 L 160 180 L 163.333008 160 L 212 160 L 204 188 L 48 188 Z M 24 88 L 40 88 L 40 160 L 44 188 L 24 188 Z M 232 60 L 232 84 L 216 84 L 196 84 L 196 68 L 196 64 L 192 64 L 180 64 L 176 64 L 176 68 L 176 70.018997 C 174.325989 68.757996 172.252991 68 170 68 C 164.485992 68 160 72.485992 160 78 C 160 80.251999 160.757996 82.325989 162.019989 84 L 136 84 L 136 72 L 136 68 L 132 68 L 124 68 L 120 68 L 120 70.018997 C 118.325996 68.757996 116.251999 68 114 68 C 111.748001 68 109.673996 68.757996 108 70.018997 L 108 68 L 108 64 L 104 64 L 92 64 L 88 64 L 88 68 L 88 84 L 40 84 L 24 84 L 24 60 Z M 244 56 L 12 56 L 8 56 L 8 60 L 8 196 L 8 200 L 12 200 L 244 200 L 248 200 L 248 196 L 248 60 L 248 56 Z"/>
    <path id="path1" fill="#ffffff" stroke="none" d="M 154 80 C 155.104004 80 156 79.104004 156 78 C 156 76.895996 155.104004 76 154 76 C 152.895996 76 152 76.895996 152 78 C 152 79.104004 152.895996 80 154 80"/>
</svg>
