<?xml version="1.0" encoding="UTF-8"?>
<!-- Generated by Pixelmator Pro 3.7.1 -->
<svg width="256" height="256" viewBox="0 0 256 256" xmlns="http://www.w3.org/2000/svg">
    <path id="Path" fill="#ffffff" stroke="none" d="M 244 144 L 240 144 L 236 144 L 228 144 L 224 144 L 220 144 L 216 144 L 212 144 L 208 144 L 204 144 L 200 144 L 196 144 L 192 144 L 188 144 L 184 144 L 180 144 L 176 144 L 172 144 L 168 144 L 164 144 L 160 144 L 156 144 L 152 144 L 148 144 L 144 144 L 140 144 L 136 144 L 132 144 L 128 144 L 124 144 L 120 144 L 116 144 L 112 144 L 108 144 L 104 144 L 100 144 L 96 144 L 92 144 L 88 144 L 84 144 L 80 144 L 76 144 L 72 144 L 68 144 L 64 144 L 60 144 L 56 144 L 52 144 L 48 144 L 44 144 L 40 144 L 36 144 L 32 144 L 28 144 L 24 144 L 20 144 L 16 144 L 12 144 L 12 56 L 244 56 Z M 236 200 L 228 200 L 228 148 L 236 148 Z M 220 148 L 224 148 L 224 200 L 220 200 Z M 212 148 L 216 148 L 216 200 L 212 200 Z M 204 148 L 208 148 L 208 200 L 204 200 Z M 196 148 L 200 148 L 200 200 L 196 200 Z M 188 148 L 192 148 L 192 200 L 188 200 Z M 180 148 L 184 148 L 184 200 L 180 200 Z M 172 148 L 176 148 L 176 200 L 172 200 Z M 164 148 L 168 148 L 168 200 L 164 200 Z M 156 148 L 160 148 L 160 200 L 156 200 Z M 148 148 L 152 148 L 152 200 L 148 200 Z M 140 148 L 144 148 L 144 200 L 140 200 Z M 132 148 L 136 148 L 136 200 L 132 200 Z M 124 148 L 128 148 L 128 200 L 124 200 Z M 116 148 L 120 148 L 120 200 L 116 200 Z M 108 148 L 112 148 L 112 200 L 108 200 Z M 100 148 L 104 148 L 104 200 L 100 200 Z M 92 148 L 96 148 L 96 200 L 92 200 Z M 84 148 L 88 148 L 88 200 L 84 200 Z M 76 148 L 80 148 L 80 200 L 76 200 Z M 68 148 L 72 148 L 72 200 L 68 200 Z M 60 148 L 64 148 L 64 200 L 60 200 Z M 52 148 L 56 148 L 56 200 L 52 200 Z M 44 148 L 48 148 L 48 200 L 44 200 Z M 36 148 L 40 148 L 40 200 L 36 200 Z M 28 148 L 32 148 L 32 200 L 28 200 Z M 20 148 L 24 148 L 24 200 L 20 200 Z M 244 52 L 12 52 L 8 52 L 8 56 L 8 144 L 8 148 L 12 148 L 16 148 L 16 200 L 16 204 L 20 204 L 236 204 L 240 204 L 240 200 L 240 148 L 244 148 L 248 148 L 248 144 L 248 56 L 248 52 Z"/>
    <path id="path1" fill="#ffffff" stroke="none" d="M 28 78 C 28 76.895996 28.896 76 30 76 L 226 76 C 227.104004 76 228 76.895996 228 78 L 228 110 C 228 111.104004 227.104004 112 226 112 L 158 112 C 156.895996 112 156 112.895996 156 114 L 156 134 C 156 135.104004 155.104004 136 154 136 L 106 136 C 104.896004 136 104 135.104004 104 134 L 104 114 C 104 112.895996 103.103996 112 102 112 L 30 112 C 28.896 112 28 111.104004 28 110 Z M 30 116 L 100 116 L 100 134 C 100 137.30899 102.691002 140 106 140 L 154 140 C 157.309006 140 160 137.30899 160 134 L 160 116 L 226 116 C 229.309006 116 232 113.30899 232 110 L 232 78 C 232 74.690994 229.309006 72 226 72 L 30 72 C 26.691 72 24 74.690994 24 78 L 24 110 C 24 113.30899 26.691 116 30 116"/>
    <path id="path2" fill="#ffffff" stroke="none" d="M 148 128 L 112 128 L 112 116 L 148 116 Z M 148 112 L 112 112 C 109.800003 112 108 113.800003 108 116 L 108 128 C 108 130.199997 109.800003 132 112 132 L 148 132 C 150.199997 132 152 130.199997 152 128 L 152 116 C 152 113.800003 150.199997 112 148 112"/>
    <path id="path3" fill="#ffffff" stroke="none" d="M 34 108 L 222 108 C 223.104004 108 224 107.104004 224 106 C 224 104.895996 223.104004 104 222 104 L 34 104 C 32.896 104 32 104.895996 32 106 C 32 107.104004 32.896 108 34 108"/>
    <path id="path4" fill="#ffffff" stroke="none" d="M 34 100 L 222 100 C 223.104004 100 224 99.104004 224 98 C 224 96.895996 223.104004 96 222 96 L 34 96 C 32.896 96 32 96.895996 32 98 C 32 99.104004 32.896 100 34 100"/>
    <path id="path5" fill="#ffffff" stroke="none" d="M 34 92 L 222 92 C 223.104004 92 224 91.104004 224 90 C 224 88.895996 223.104004 88 222 88 L 34 88 C 32.896 88 32 88.895996 32 90 C 32 91.104004 32.896 92 34 92"/>
    <path id="path6" fill="#ffffff" stroke="none" d="M 34 84 L 222 84 C 223.104004 84 224 83.104004 224 82 C 224 80.895996 223.104004 80 222 80 L 34 80 C 32.896 80 32 80.895996 32 82 C 32 83.104004 32.896 84 34 84"/>
</svg>
