<?xml version="1.0" encoding="UTF-8"?>
<!-- Generated by Pixelmator Pro 3.7.1 -->
<svg width="256" height="256" viewBox="0 0 256 256" xmlns="http://www.w3.org/2000/svg">
    <path id="Path" fill="#ffffff" stroke="none" d="M 56 156 C 56 153.791 57.791 152 60 152 C 62.209 152 70 159.791 70 162 C 70 164.209 68.209 166 66 166 C 63.791 166 56 158.209 56 156 M 40 140 C 40 137.791 41.791 136 44 136 C 46.209 136 54 143.791 54 146 C 54 148.209 52.209 150 50 150 C 47.791 150 40 142.209 40 140 M 80 168 C 80 172.417999 76.417999 176 72 176 L 30.688999 176 C 24.903999 176 20.326 171.106003 20.710999 165.334991 L 23.055 130.173004 C 23.682999 130.921997 24.43 131.742996 25.343 132.656998 C 30.687 138 33.094002 138 34 138 C 34.819 138 35.610001 137.875 36.354 137.645996 C 36.125 138.390991 36 139.181 36 140 C 36 140.906006 36 143.313004 41.343002 148.656998 C 46.687 154 49.094002 154 50 154 C 50.819 154 51.610001 153.875 52.354 153.645996 C 52.125 154.390991 52 155.181 52 156 C 52 156.906006 52 159.313004 57.342999 164.656998 C 62.687 170 65.094002 170 66 170 C 70.411003 170 74 166.411011 74 162 C 74 161.093994 74 158.686996 68.656998 153.343002 C 63.313 148 60.905998 148 60 148 C 59.181 148 58.389999 148.125 57.646 148.354004 C 57.875 147.609009 58 146.819 58 146 C 58 145.093994 58 142.686996 52.657001 137.343002 C 47.313 132 44.905998 132 44 132 C 43.181 132 42.389999 132.125 41.646 132.354004 C 41.875 131.609009 42 130.819 42 130 C 42 129.093994 42 126.686996 36.656998 121.343002 C 31.313 116 28.906 116 28 116 C 27.816 116 27.636999 116.014999 27.457001 116.027008 C 27.552999 116.020996 27.645 116 27.742001 116 L 28 116 L 36.460999 116 C 38.715 116 40.863998 116.951004 42.380001 118.619003 L 77.918999 157.712006 C 79.257996 159.18399 80 161.102997 80 163.093002 Z M 28 120 C 30.209 120 38 127.791 38 130 C 38 132.209 36.209 134 34 134 C 31.791 134 24 126.209 24 124 C 24 121.791 25.791 120 28 120 M 45.34 115.928009 C 43.070999 113.432007 39.834 112 36.460999 112 L 27.742001 112 C 23.544998 112 20.039001 115.279999 19.759998 119.468002 L 16.720001 165.067993 C 16.463001 168.919998 17.827999 172.746002 20.465 175.563995 C 23.103001 178.384003 26.829 180 30.688999 180 L 72 180 C 78.617004 180 84 174.617004 84 168 L 84 163.093002 C 84 160.10199 82.891998 157.234009 80.878998 155.020996 Z"/>
    <path id="path1" fill="#ffffff" stroke="none" d="M 200 156 C 200 158.209 192.209 166 190 166 C 187.791 166 186 164.209 186 162 C 186 159.791 193.791 152 196 152 C 198.209 152 200 153.791 200 156 M 216 140 C 216 142.209 208.209 150 206 150 C 203.791 150 202 148.209 202 146 C 202 143.791 209.791 136 212 136 C 214.209 136 216 137.791 216 140 M 225.311996 176 L 184 176 C 179.582001 176 176 172.417999 176 168 L 176 163.093002 C 176 161.102997 176.742004 159.18399 178.080002 157.712006 L 213.619003 118.619003 C 215.136002 116.951004 217.285004 116 219.539001 116 L 228 116 L 228.257996 116 C 228.354996 116 228.447006 116.020996 228.542999 116.027008 C 228.363007 116.014999 228.184006 116 228 116 C 227.093994 116 224.686996 116 219.343002 121.343002 C 214 126.686996 214 129.093994 214 130 C 214 130.819 214.125 131.609009 214.354004 132.354004 C 213.608994 132.125 212.819 132 212 132 C 211.093994 132 208.686996 132 203.343002 137.343002 C 198 142.686996 198 145.093994 198 146 C 198 146.819 198.125 147.609009 198.354004 148.354004 C 197.608994 148.125 196.819 148 196 148 C 195.093994 148 192.686996 148 187.343002 153.343002 C 182 158.686996 182 161.093994 182 162 C 182 166.411011 185.589005 170 190 170 C 190.906006 170 193.313004 170 198.656998 164.656998 C 204 159.313004 204 156.906006 204 156 C 204 155.181 203.875 154.390991 203.645996 153.645996 C 204.391006 153.875 205.181 154 206 154 C 206.906006 154 209.313004 154 214.656998 148.656998 C 220 143.313004 220 140.906006 220 140 C 220 139.181 219.875 138.390991 219.645996 137.645996 C 220.391006 137.875 221.181 138 222 138 C 222.906006 138 225.313004 138 230.656998 132.656998 C 231.570007 131.742996 232.317001 130.921997 232.945007 130.173004 L 235.289001 165.334991 C 235.673996 171.106003 231.096008 176 225.311996 176 M 232 124 C 232 126.209 224.209 134 222 134 C 219.791 134 218 132.209 218 130 C 218 127.791 225.791 120 228 120 C 230.209 120 232 121.791 232 124 M 236.240005 119.468002 C 235.960999 115.279999 232.455002 112 228.257996 112 L 219.539001 112 C 216.165009 112 212.929001 113.432007 210.660004 115.928009 L 175.121002 155.020996 C 173.108002 157.234009 172 160.10199 172 163.093002 L 172 168 C 172 174.617004 177.382996 180 184 180 L 225.311996 180 C 229.171005 180 232.897003 178.384003 235.533997 175.563995 C 238.171997 172.746002 239.537003 168.919998 239.279999 165.067993 Z"/>
    <path id="path2" fill="#ffffff" stroke="none" d="M 116 156 L 116 152 L 116 148 L 112 148 L 112 152 L 112 156 L 112 160 L 116 160 Z"/>
    <path id="path3" fill="#ffffff" stroke="none" d="M 140 152 L 140 156 L 140 160 L 144 160 L 144 156 L 144 152 L 144 148 L 140 148 Z"/>
    <path id="path4" fill="#ffffff" stroke="none" d="M 112 172 L 124 172 L 124 176 L 128 176 L 132 176 L 132 172 L 144 172 L 144 164 L 112 164 Z"/>
    <path id="path5" fill="#ffffff" stroke="none" d="M 236 188 L 147.338989 191.283997 C 150.084 190.03299 152 187.270996 152 184.061996 L 152 184 L 152 180 L 152 128 L 152 124 L 152 112 L 152 108 L 152 72 L 152 68 L 152 67.936996 C 152 66.860992 151.78299 65.835999 151.393997 64.899994 L 221.561005 67.598999 C 227.544998 67.82901 232.442993 72.436005 233.039001 78.395996 L 244 176 C 244.690002 182.899994 242.931 187.761002 236 188 M 144.061996 188 L 111.936996 188 C 109.763 188 108 186.237 108 184.061996 L 108 184 L 148 184 L 148 184.061996 C 148 186.237 146.237 188 144.061996 188 M 24 188 C 17.069 187.761002 11.309998 182.899994 12 176 L 22.960007 78.395996 C 23.557007 72.436005 28.455002 67.82901 34.438995 67.598999 L 104.606003 64.899994 C 104.216995 65.835999 104 66.860992 104 67.936996 L 104 68 L 104 72 L 104 116 L 104 120 L 104 132 L 104 136 L 104 180 L 104 184 L 104 184.061996 C 104 187.246002 105.888 189.98999 108.598999 191.253998 Z M 108 136 L 120 136 L 120 160 L 124 160 L 124 136 L 124 132 L 128 132 L 132 132 L 132 160 L 136 160 L 136 128 L 140 128 L 140 136 L 144 136 L 144 128 L 148 128 L 148 180 L 108 180 Z M 108 120 L 112 120 L 116 120 L 120 120 L 120 122 C 120 123.104004 120.896004 124 122 124 L 124 124 L 128 124 L 128 128 L 122 128 C 120.896004 128 120 128.895996 120 130 L 120 132 L 108 132 Z M 134 120 L 132 120 L 128 120 L 128 116 L 134 116 C 135.104004 116 136 115.104004 136 114 L 136 112 L 140 112 L 144 112 L 148 112 L 148 124 L 136 124 L 136 122 C 136 120.895996 135.104004 120 134 120 M 108 72 L 112 72 C 112 75.30899 114.691002 78 118 78 C 121.308998 78 124 75.30899 124 72 L 132 72 C 132 75.30899 134.69101 78 138 78 C 141.30899 78 144 75.30899 144 72 L 148 72 L 148 108 L 144 108 L 144 80 L 140 80 L 140 108 L 136 108 L 136 80 L 132 80 L 132 108 L 132 112 L 128 112 L 124 112 L 124 80 L 120 80 L 120 116 L 116 116 L 116 80 L 112 80 L 112 116 L 108 116 Z M 120 72 C 120 73.104004 119.103996 74 118 74 C 116.896004 74 116 73.104004 116 72 C 116 70.895996 116.896004 70 118 70 C 119.103996 70 120 70.895996 120 72 M 140 72 C 140 73.104004 139.104004 74 138 74 C 136.895996 74 136 73.104004 136 72 C 136 70.895996 136.895996 70 138 70 C 139.104004 70 140 70.895996 140 72 M 108 67.936996 C 108 66.596008 108.672997 65.415009 109.696999 64.70401 L 128 64 L 146.303009 64.70401 C 147.325989 65.415009 148 66.596008 148 67.936996 L 148 68 L 142.459 68 C 141.360001 66.776001 139.770996 66 138 66 C 136.229004 66 134.639999 66.776001 133.541 68 L 122.459 68 C 121.360001 66.776001 119.771004 66 118 66 C 116.228996 66 114.639999 66.776001 113.541 68 L 108 68 Z M 247.979996 175.60199 L 237.014999 77.949005 C 236.229004 70.096008 229.649002 63.906998 221.714005 63.60199 L 147.394989 60.742996 C 146.380005 60.270996 145.253998 60 144.061996 60 L 128.078003 60 L 128 59.996994 L 127.921997 60 L 111.936996 60 C 110.746002 60 109.620003 60.270996 108.605003 60.742996 L 34.285995 63.60199 C 26.350998 63.906998 19.770996 70.096008 18.979996 77.998001 L 8.024994 175.554001 C 7.621002 179.593994 8.830994 183.428009 11.427994 186.39801 C 14.389008 189.786011 18.921005 191.826996 23.862 191.998001 L 127.846001 195.997009 L 127.997002 196.002991 L 128.14801 195.997009 L 236.147995 191.997009 C 240.001007 191.863998 243.022995 190.580002 245.119995 188.182007 C 247.606003 185.337006 248.541992 181.222 247.979996 175.60199"/>
</svg>
