<?xml version="1.0" encoding="UTF-8"?>
<!-- Generated by Pixelmator Pro 3.7.1 -->
<svg width="256" height="256" viewBox="0 0 256 256" xmlns="http://www.w3.org/2000/svg">
    <path id="Path" fill="#ffffff" stroke="none" d="M 236 188 L 147.338989 191.283997 C 150.084 190.03299 152 187.270996 152 184.061996 L 152 132.472 L 152 130 L 152 127.764008 L 152 124 L 152 72 L 152 68 L 152 67.936996 C 152 66.860992 151.78299 65.835999 151.393997 64.899994 L 221.561005 67.598999 C 227.544998 67.82901 232.442993 72.436005 233.039001 78.395996 L 244 176 C 244.690002 182.899994 242.931 187.761002 236 188 M 12 176 L 22.960007 78.395996 C 23.557007 72.436005 28.455002 67.82901 34.438995 67.598999 L 104.606003 64.899994 C 104.216995 65.835999 104 66.860992 104 67.936996 L 104 68 L 104 72 L 104 124 L 104 127.764008 L 104 130 L 104 132.472 L 104 184.061996 C 104 187.246002 105.888 189.98999 108.598999 191.253998 L 24 188 C 17.069 187.761002 11.309998 182.899994 12 176 M 112 148 L 116 148 L 116 160 L 112 160 Z M 116 72 C 116 70.895996 116.896004 70 118 70 C 119.103996 70 120 70.895996 120 72 C 120 73.104004 119.103996 74 118 74 C 116.896004 74 116 73.104004 116 72 M 118 78 C 118.702003 78 119.373001 77.873001 120 77.649994 L 120 136 L 108 130 L 108 127.764008 L 108 124 L 108 72 L 112 72 C 112 75.30899 114.691002 78 118 78 M 144 160 L 140 160 L 140 148 L 144 148 Z M 136 72 C 136 70.895996 136.895996 70 138 70 C 139.104004 70 140 70.895996 140 72 C 140 73.104004 139.104004 74 138 74 C 136.895996 74 136 73.104004 136 72 M 138 78 C 141.30899 78 144 75.30899 144 72 L 148 72 L 148 124 L 148 127.764008 L 148 130 L 136 136 L 136 77.649994 C 136.626999 77.873001 137.298004 78 138 78 M 148 67.936996 L 148 68 L 142.459 68 C 141.360001 66.776001 139.770996 66 138 66 C 136.229004 66 134.639999 66.776001 133.541 68 L 132 68 L 132 72 L 132 136 L 132 142.472 L 137.789001 139.578003 L 148 134.472 L 148 144 L 144 144 L 140 144 L 136 144 L 136 148 L 136 160 L 136 164 L 140 164 L 144 164 L 148 164 L 148 184.061996 C 148 186.237 146.237 188 144.061996 188 L 111.936996 188 C 109.763 188 108 186.237 108 184.061996 L 108 164 L 112 164 L 116 164 L 120 164 L 120 160 L 120 148 L 120 144 L 116 144 L 112 144 L 108 144 L 108 134.472 L 118.210999 139.578003 L 124 142.472 L 124 136 L 124 72 L 124 68 L 122.459 68 C 121.360001 66.776001 119.771004 66 118 66 C 116.228996 66 114.639999 66.776001 113.541 68 L 108 68 L 108 67.936996 C 108 66.596008 108.672997 65.415009 109.696999 64.70401 L 128 64 L 146.303009 64.70401 C 147.325989 65.415009 148 66.596008 148 67.936996 M 247.979996 175.60199 L 237.014999 77.949005 C 236.229004 70.096008 229.649002 63.906998 221.714005 63.60199 L 147.394989 60.742996 C 146.380005 60.270996 145.253998 60 144.061996 60 L 128.078003 60 L 128 59.996994 L 127.921997 60 L 111.936996 60 C 110.746002 60 109.620003 60.270996 108.605003 60.742996 L 34.285995 63.60199 C 26.350998 63.906998 19.770996 70.096008 18.979996 77.998001 L 8.024994 175.554001 C 7.621002 179.593994 8.830994 183.428009 11.427994 186.39801 C 14.389008 189.786011 18.921005 191.826996 23.862 191.998001 L 127.846001 195.997009 L 127.997002 196.002991 L 128.14801 195.997009 L 236.147995 191.997009 C 240.001007 191.863998 243.022995 190.580002 245.119995 188.182007 C 247.606003 185.337006 248.541992 181.222 247.979996 175.60199"/>
    <path id="path1" fill="#ffffff" stroke="none" d="M 80 168 C 80 172.417999 76.417999 176 72 176 L 30.688999 176 C 24.903999 176 20.326 171.106003 20.710999 165.334991 L 23.055 130.173004 C 23.682999 130.921997 24.43 131.742996 25.342999 132.656998 C 30.687 138 33.094002 138 34 138 C 34.819 138 35.610001 137.875 36.354 137.645996 C 36.125 138.390991 36 139.181 36 140 C 36 140.906006 36 143.313004 41.342999 148.656998 C 46.687 154 49.094002 154 50 154 C 50.819 154 51.610001 153.875 52.354 153.645996 C 52.125 154.390991 52 155.181 52 156 C 52 156.906006 52 159.313004 57.343002 164.656998 C 62.687 170 65.094002 170 66 170 C 70.411003 170 74 166.411011 74 162 C 74 161.093994 74 158.686996 68.656998 153.343002 C 63.313 148 60.905998 148 60 148 C 59.181 148 58.389999 148.125 57.646 148.354004 C 57.875 147.609009 58 146.819 58 146 C 58 145.093994 58 142.686996 52.656998 137.343002 C 47.313 132 44.905998 132 44 132 C 43.181 132 42.389999 132.125 41.646 132.354004 C 41.875 131.609009 42 130.819 42 130 C 42 129.093994 42 126.686996 36.657001 121.343002 C 31.313 116 28.905998 116 28 116 C 27.816002 116 27.637001 116.014999 27.457001 116.027008 C 27.553001 116.020996 27.645 116 27.742001 116 L 28 116 L 36.460999 116 C 38.715 116 40.863998 116.951004 42.380001 118.619003 L 77.918999 157.712006 C 79.258003 159.18399 80 161.102997 80 163.093002 Z M 34 134 C 31.791 134 24 126.209 24 124 C 24 121.791 25.791 120 28 120 C 30.209 120 38 127.791 38 130 C 38 132.209 36.209 134 34 134 M 50 150 C 47.791 150 40 142.209 40 140 C 40 137.791 41.791 136 44 136 C 46.209 136 54 143.791 54 146 C 54 148.209 52.209 150 50 150 M 60 152 C 62.209 152 70 159.791 70 162 C 70 164.209 68.209 166 66 166 C 63.791 166 56 158.209 56 156 C 56 153.791 57.791 152 60 152 M 45.34 115.928009 C 43.070999 113.432007 39.834 112 36.460999 112 L 27.742001 112 C 23.544998 112 20.039001 115.279999 19.759998 119.468002 L 16.720001 165.067993 C 16.463001 168.919998 17.827999 172.746002 20.465 175.563995 C 23.103001 178.384003 26.828999 180 30.688999 180 L 72 180 C 78.616997 180 84 174.617004 84 168 L 84 163.093002 C 84 160.10199 82.891998 157.234009 80.878998 155.020996 Z"/>
    <path id="path2" fill="#ffffff" stroke="none" d="M 225.311493 176 L 183.999496 176 C 179.582504 176 175.999496 172.417999 175.999496 168 L 175.999496 163.093002 C 175.999496 161.102997 176.742493 159.18399 178.080505 157.712006 L 213.619507 118.619003 C 215.135498 116.951004 217.285507 116 219.539505 116 L 227.999496 116 L 228.257507 116 C 228.355499 116 228.447495 116.020996 228.542496 116.027008 C 228.363495 116.014999 228.183502 116 227.999496 116 C 227.093506 116 224.686493 116 219.342499 121.343002 C 213.999496 126.686996 213.999496 129.093994 213.999496 130 C 213.999496 130.819 214.124496 131.609009 214.354507 132.354004 C 213.609497 132.125 212.819504 132 211.999496 132 C 211.093506 132 208.686493 132 203.342499 137.343002 C 197.999496 142.686996 197.999496 145.093994 197.999496 146 C 197.999496 146.819 198.124496 147.609009 198.354492 148.354004 C 197.609497 148.125 196.819504 148 195.999496 148 C 195.093506 148 192.686493 148 187.342499 153.343002 C 181.999496 158.686996 181.999496 161.093994 181.999496 162 C 181.999496 166.411011 185.588501 170 189.999496 170 C 190.906494 170 193.313507 170 198.657501 164.656998 C 203.999496 159.313004 203.999496 156.906006 203.999496 156 C 203.999496 155.181 203.874496 154.390991 203.645493 153.645996 C 204.390503 153.875 205.180496 154 205.999496 154 C 206.906494 154 209.313507 154 214.657501 148.656998 C 219.999496 143.313004 219.999496 140.906006 219.999496 140 C 219.999496 139.181 219.874496 138.390991 219.645493 137.645996 C 220.390503 137.875 221.180496 138 221.999496 138 C 222.906494 138 225.313507 138 230.657501 132.656998 C 231.570496 131.742996 232.317505 130.921997 232.945496 130.173004 L 235.289505 165.334991 C 235.673508 171.106003 231.095505 176 225.311493 176 M 217.999496 130 C 217.999496 127.791 225.790497 120 227.999496 120 C 230.208496 120 231.999496 121.791 231.999496 124 C 231.999496 126.209 224.208496 134 221.999496 134 C 219.790497 134 217.999496 132.209 217.999496 130 M 201.999496 146 C 201.999496 143.791 209.790497 136 211.999496 136 C 214.208496 136 215.999496 137.791 215.999496 140 C 215.999496 142.209 208.208496 150 205.999496 150 C 203.790497 150 201.999496 148.209 201.999496 146 M 199.999496 156 C 199.999496 158.209 192.208496 166 189.999496 166 C 187.790497 166 185.999496 164.209 185.999496 162 C 185.999496 159.791 193.790497 152 195.999496 152 C 198.208496 152 199.999496 153.791 199.999496 156 M 236.240494 119.468002 C 235.960495 115.279999 232.455505 112 228.257507 112 L 219.539505 112 C 216.165497 112 212.928497 113.432007 210.660507 115.928009 L 175.121506 155.020996 C 173.108505 157.234009 171.999496 160.10199 171.999496 163.093002 L 171.999496 168 C 171.999496 174.617004 177.382492 180 183.999496 180 L 225.311493 180 C 229.170502 180 232.897507 178.384003 235.5345 175.563995 C 238.171494 172.746002 239.537506 168.919998 239.280502 165.067993 Z"/>
    <path id="path3" fill="#ffffff" stroke="none" d="M 132 176 L 128 176 L 124 176 L 124 172 L 128 172 L 132 172 Z M 124 168 L 120 168 L 120 172 L 120 176 L 120 180 L 124 180 L 128 180 L 132 180 L 136 180 L 136 176 L 136 172 L 136 168 L 132 168 L 128 168 Z"/>
</svg>
