<?xml version="1.0" encoding="UTF-8"?>
<!-- Generated by Pixelmator Pro 3.7.1 -->
<svg width="256" height="256" viewBox="0 0 256 256" xmlns="http://www.w3.org/2000/svg">
    <path id="Path" fill="#ffffff" stroke="none" d="M 204 88 L 200 88 L 200 92 L 200 156 L 200 160 L 200 168 L 200 172 L 204 172 L 244 172 L 244 186 C 244 187.104004 243.104004 188 242 188 L 14 188 C 12.895996 188 12 187.104004 12 186 L 12 172 L 52 172 L 56 172 L 56 168 L 56 160 L 56 156 L 56 92 L 56 88 L 52 88 L 12 88 L 12 70 C 12 68.895996 12.895996 68 14 68 L 242 68 C 243.104004 68 244 68.895996 244 70 L 244 88 Z M 204 92 L 244 92 L 244 156 L 204 156 Z M 244 168 L 204 168 L 204 160 L 244 160 Z M 52 168 L 12 168 L 12 160 L 52 160 Z M 12 92 L 52 92 L 52 156 L 12 156 Z M 242 64 L 14 64 C 10.690994 64 8 66.690994 8 70 L 8 88 L 8 92 L 8 156 L 8 160 L 8 168 L 8 172 L 8 186 C 8 189.30899 10.690994 192 14 192 L 242 192 C 245.30899 192 248 189.30899 248 186 L 248 172 L 248 168 L 248 160 L 248 156 L 248 92 L 248 88 L 248 70 C 248 66.690994 245.30899 64 242 64"/>
    <path id="path1" fill="#ffffff" stroke="none" d="M 16 76 L 52 76 L 52 72 L 16 72 Z"/>
    <path id="path2" fill="#ffffff" stroke="none" d="M 16 84 L 52 84 L 52 80 L 16 80 Z"/>
    <path id="path3" fill="#ffffff" stroke="none" d="M 204 76 L 240 76 L 240 72 L 204 72 Z"/>
    <path id="path4" fill="#ffffff" stroke="none" d="M 204 84 L 240 84 L 240 80 L 204 80 Z"/>
    <path id="path5" fill="#ffffff" stroke="none" d="M 188 72 L 64 72 L 64 76 L 188 76 Z"/>
    <path id="path6" fill="#ffffff" stroke="none" d="M 188 80 L 64 80 L 64 84 L 188 84 Z"/>
    <path id="path7" fill="#ffffff" stroke="none" d="M 24 118 L 24 104 L 44 104 L 44 118 L 44 140 L 24 140 Z M 20 144 L 48 144 L 48 100 L 20 100 Z"/>
    <path id="path8" fill="#ffffff" stroke="none" d="M 34 112 C 37.308998 112 40 114.690994 40 118 C 40 121.309006 37.308998 124 34 124 C 30.691 124 28 121.309006 28 118 C 28 114.690994 30.691 112 34 112 M 34 128 C 39.522999 128 44 123.522995 44 118 C 44 112.477005 39.522999 108 34 108 C 28.477001 108 24 112.477005 24 118 C 24 123.522995 28.477001 128 34 128"/>
    <path id="path9" fill="#ffffff" stroke="none" d="M 212 118 L 212 104 L 232 104 L 232 118 L 232 140 L 212 140 Z M 208 144 L 236 144 L 236 100 L 208 100 Z"/>
    <path id="path10" fill="#ffffff" stroke="none" d="M 222 112 C 225.309006 112 228 114.690994 228 118 C 228 121.309006 225.309006 124 222 124 C 218.690994 124 216 121.309006 216 118 C 216 114.690994 218.690994 112 222 112 M 222 128 C 227.522003 128 232 123.522995 232 118 C 232 112.477005 227.522003 108 222 108 C 216.477997 108 212 112.477005 212 118 C 212 123.522995 216.477997 128 222 128"/>
    <path id="path11" fill="#ffffff" stroke="none" d="M 192 168 L 64 168 L 64 92 L 192 92 Z M 64 88 L 60 88 L 60 92 L 60 168 L 60 172 L 64 172 L 192 172 L 196 172 L 196 168 L 196 92 L 196 88 L 192 88 Z"/>
    <path id="path12" fill="#ffffff" stroke="none" d="M 72 144 L 82 144 L 94 144 L 106 144 L 118 144 L 130 144 L 140 144 L 140 160 L 130 160 L 118 160 L 106 160 L 94 160 L 82 160 L 72 160 Z M 148 144 L 164 144 L 164 160 L 148 160 Z M 168 144 L 184 144 L 184 160 L 168 160 Z M 140 164 L 144 164 L 148 164 L 164 164 L 168 164 L 184 164 L 188 164 L 188 160 L 188 144 L 188 140 L 184 140 L 168 140 L 164 140 L 148 140 L 144 140 L 140 140 L 72 140 L 68 140 L 68 144 L 68 160 L 68 164 L 72 164 Z"/>
    <path id="path13" fill="#ffffff" stroke="none" d="M 80 150 C 80 148.895996 80.896004 148 82 148 C 83.104004 148 84 148.895996 84 150 L 84 154 C 84 155.104004 83.104004 156 82 156 C 80.896004 156 80 155.104004 80 154 Z M 92 150 C 92 148.895996 92.895996 148 94 148 C 95.104004 148 96 148.895996 96 150 L 96 154 C 96 155.104004 95.104004 156 94 156 C 92.895996 156 92 155.104004 92 154 Z M 104 150 C 104 148.895996 104.895996 148 106 148 C 107.104004 148 108 148.895996 108 150 L 108 154 C 108 155.104004 107.104004 156 106 156 C 104.895996 156 104 155.104004 104 154 Z M 116 150 C 116 148.895996 116.895996 148 118 148 C 119.104004 148 120 148.895996 120 150 L 120 154 C 120 155.104004 119.104004 156 118 156 C 116.895996 156 116 155.104004 116 154 Z M 128 150 C 128 148.895996 128.895996 148 130 148 C 131.104004 148 132 148.895996 132 150 L 132 154 C 132 155.104004 131.104004 156 130 156 C 128.895996 156 128 155.104004 128 154 Z M 76 150 L 76 154 C 76 157.30899 78.691002 160 82 160 C 85.308998 160 88 157.30899 88 154 C 88 157.30899 90.691002 160 94 160 C 97.308998 160 100 157.30899 100 154 C 100 157.30899 102.691002 160 106 160 C 109.308998 160 112 157.30899 112 154 C 112 157.30899 114.691002 160 118 160 C 121.308998 160 124 157.30899 124 154 C 124 157.30899 126.691002 160 130 160 C 133.30899 160 136 157.30899 136 154 L 136 150 C 136 146.69101 133.30899 144 130 144 C 126.691002 144 124 146.69101 124 150 C 124 146.69101 121.308998 144 118 144 C 114.691002 144 112 146.69101 112 150 C 112 146.69101 109.308998 144 106 144 C 102.691002 144 100 146.69101 100 150 C 100 146.69101 97.308998 144 94 144 C 90.691002 144 88 146.69101 88 150 C 88 146.69101 85.308998 144 82 144 C 78.691002 144 76 146.69101 76 150"/>
    <path id="path14" fill="#ffffff" stroke="none" d="M 144.032196 119.345703 L 156.654205 131.967697 C 156.436203 131.979706 156.2202 131.999695 156.000198 131.999695 C 152.795197 131.999695 149.781204 130.751709 147.514206 128.485703 C 145.248199 126.218704 144.000198 123.204697 144.000198 119.999695 C 144.000198 119.779694 144.020203 119.563705 144.032196 119.345703 M 147.514206 111.514694 C 148.494202 110.534698 149.620193 109.758698 150.834198 109.177704 L 166.822205 125.165695 C 166.242203 126.3797 165.465195 127.505707 164.485199 128.485703 C 163.505203 129.465698 162.379196 130.241699 161.162201 130.819702 L 145.178207 114.834702 C 145.758194 113.619705 146.535202 112.494705 147.514206 111.514694 M 156.000198 107.999695 C 159.2052 107.999695 162.219208 109.247696 164.485199 111.514694 C 166.752197 113.781693 168.000198 116.794693 168.000198 119.999695 C 168.000198 120.219696 167.979202 120.436707 167.968201 120.654694 L 155.3452 108.031693 C 155.563202 108.019699 155.780197 107.999695 156.000198 107.999695 M 156.000198 135.999695 C 160.094208 135.999695 164.189194 134.437698 167.313202 131.31369 C 173.562195 125.065704 173.562195 114.934708 167.313202 108.686707 C 164.189194 105.561707 160.094208 103.999695 156.000198 103.999695 C 151.905197 103.999695 147.810196 105.561707 144.686203 108.686707 C 138.437195 114.934708 138.437195 125.065704 144.686203 131.31369 C 147.810196 134.437698 151.905197 135.999695 156.000198 135.999695"/>
</svg>
