<?xml version="1.0" encoding="UTF-8"?>
<!-- Generated by Pixelmator Pro 3.7.1 -->
<svg width="256" height="256" viewBox="0 0 256 256" xmlns="http://www.w3.org/2000/svg">
    <path id="Path" fill="#ffffff" stroke="none" d="M 244 140 L 240.283997 188.307007 C 240.123993 190.390991 238.386002 192 236.296005 192 L 19.703995 192 C 17.613998 192 15.876007 190.390991 15.716003 188.307007 L 12 140 L 12 76 C 12 72.449997 13.550003 69.270996 16 67.074005 L 16 126 C 16 128.606003 17.673004 130.822998 20 131.649994 L 20 140 L 20 144 L 20 184 C 20 186.209 21.791 188 24 188 L 232 188 C 234.209 188 236 186.209 236 184 L 236 144 L 236 140 L 236 131.649994 C 238.326004 130.822998 240 128.606003 240 126 L 240 67.074005 C 242.449005 69.270996 244 72.449997 244 76 Z M 66 64 C 67.104004 64 68 64.895996 68 66 L 68 126 C 68 127.104004 67.104004 128 66 128 L 22 128 C 20.895996 128 20 127.104004 20 126 L 20 66 C 20 65.376999 20.291 64.828003 20.737 64.460999 C 21.776001 64.166992 22.867004 64 24 64 Z M 80 116 C 75.514008 116 72 120.393005 72 126 L 72 64 L 184 64 L 184 126 L 184 132 L 88 132 L 88 126 C 88 120.393005 84.485992 116 80 116 M 84 132 L 76 132 L 76 126 C 76 122.686996 77.791 120 80 120 C 82.209 120 84 122.686996 84 126 Z M 24 140 L 24 132 L 66 132 L 68 132 C 68 134.209 69.791 136 72 136 L 76 136 L 84 136 L 88 136 L 184 136 C 186.209 136 188 134.209 188 132 L 190 132 L 232 132 L 232 140 Z M 24 144 L 232 144 L 232 184 L 24 184 Z M 232 64 C 233.132996 64 234.225006 64.166992 235.263 64.460999 C 235.709 64.828003 236 65.376999 236 66 L 236 126 C 236 127.104004 235.104004 128 234 128 L 190 128 C 188.895996 128 188 127.104004 188 126 L 188 66 C 188 64.895996 188.895996 64 190 64 Z M 236.996994 60.811005 C 236.113998 60.298004 235.093002 60 234 60 L 232 60 L 190 60 L 66 60 L 24 60 L 22 60 C 20.908005 60 19.886002 60.298004 19.001999 60.811005 C 12.621994 62.915009 8 68.924011 8 76 L 8 140 L 8 140.153 L 8.011993 140.307007 L 11.727997 188.613007 C 12.046005 192.755997 15.550003 196 19.703995 196 L 236.296005 196 C 240.449997 196 243.953995 192.755997 244.272003 188.613007 L 247.988007 140.307007 L 248 140.153 L 248 140 L 248 76 C 248 68.924011 243.378006 62.915009 236.996994 60.811005"/>
    <path id="path1" fill="#ffffff" stroke="none" d="M 220 176 L 36 176 L 36 152 L 220 152 Z M 221.979004 148 L 34.021 148 C 32.904999 148 32 148.904999 32 150.020996 L 32 177.979004 C 32 179.095001 32.904999 180 34.021 180 L 221.979004 180 C 223.095001 180 224 179.095001 224 177.979004 L 224 150.020996 C 224 148.904999 223.095001 148 221.979004 148"/>
    <path id="path2" fill="#ffffff" stroke="none" d="M 40 96 C 40 93.794006 41.793999 92 44 92 C 46.206001 92 48 93.794006 48 96 C 48 98.205994 46.206001 100 44 100 C 41.793999 100 40 98.205994 40 96 M 52 96 C 52 91.589005 48.410999 88 44 88 C 39.589001 88 36 91.589005 36 96 C 36 100.410995 39.589001 104 44 104 C 48.410999 104 52 100.410995 52 96"/>
    <path id="path3" fill="#ffffff" stroke="none" d="M 208 96 C 208 93.794006 209.794006 92 212 92 C 214.205994 92 216 93.794006 216 96 C 216 98.205994 214.205994 100 212 100 C 209.794006 100 208 98.205994 208 96 M 220 96 C 220 91.589005 216.410995 88 212 88 C 207.589005 88 204 91.589005 204 96 C 204 100.410995 207.589005 104 212 104 C 216.410995 104 220 100.410995 220 96"/>
    <path id="path4" fill="#ffffff" stroke="none" d="M 32 108 L 36 108 L 36 116 L 32 116 Z M 32 76 L 56 76 L 56 116 L 40 116 L 40 108 L 40 104 L 32 104 Z M 40 120 L 60 120 L 60 72 L 28 72 L 28 104 L 28 108 L 28 120 L 36 120 Z"/>
    <path id="path5" fill="#ffffff" stroke="none" d="M 200 108 L 204 108 L 204 116 L 200 116 Z M 200 72 L 224 72 L 224 116 L 208 116 L 208 108 L 208 104 L 200 104 Z M 208 120 L 228 120 L 228 68 L 196 68 L 196 104 L 196 108 L 196 120 L 204 120 Z"/>
</svg>
