<?xml version="1.0" encoding="UTF-8"?>
<!-- Generated by Pixelmator Pro 3.7.1 -->
<svg width="256" height="256" viewBox="0 0 256 256" xmlns="http://www.w3.org/2000/svg">
    <path id="Path" fill="#ffffff" stroke="none" d="M 236 96 L 236 228 C 236 230.209 234.209 232 232 232 L 28 232 C 25.791 232 24 230.209 24 228 L 24 96 L 12 56 L 23.026993 26.596008 C 23.612 25.033997 25.104004 24 26.772003 24 L 229.229004 24 C 230.895996 24 232.388 25.033997 232.973999 26.596008 L 244 56 Z M 247.744995 54.596008 L 236.718994 25.19101 C 235.554993 22.085999 232.544006 20 229.229004 20 L 26.772003 20 C 23.455994 20 20.445999 22.085999 19.281006 25.19101 L 8.255005 54.596008 L 7.781006 55.858002 L 8.169006 57.149002 L 20 96.587006 L 20 228 C 20 232.410995 23.589005 236 28 236 L 232 236 C 236.410995 236 240 232.410995 240 228 L 240 96.395996 L 247.921997 56.783997 L 248.145996 55.665009 Z"/>
    <path id="path1" fill="#ffffff" stroke="none" d="M 227.347702 64.565399 L 223.999695 88.000397 C 223.999695 90.209396 222.208694 92.000397 219.999695 92.000397 L 75.999695 92.000397 C 73.790695 92.000397 71.999695 90.209396 71.999695 88.000397 L 68.652695 64.565399 C 68.307709 62.155396 70.177704 60.000397 72.612701 60.000397 L 223.387695 60.000397 C 225.822693 60.000397 227.692703 62.155396 227.347702 64.565399 M 223.387695 56.000397 L 72.612701 56.000397 C 70.291702 56.000397 68.088699 57.005402 66.568695 58.758392 C 65.047699 60.511398 64.3647 62.834396 64.692703 65.131393 L 68.006699 88.331406 C 68.181702 92.589401 71.700699 96.000397 75.999695 96.000397 L 219.999695 96.000397 C 224.299698 96.000397 227.818695 92.589401 227.993698 88.331406 L 231.307693 65.131393 C 231.635696 62.834396 230.951706 60.511398 229.431702 58.758392 C 227.910706 57.005402 225.707703 56.000397 223.387695 56.000397"/>
    <path id="path2" fill="#ffffff" stroke="none" d="M 216 140 L 204 140 L 204 132 L 216 132 Z M 200 140 L 188 140 L 188 132 L 200 132 Z M 184 140 L 172 140 L 172 132 L 184 132 Z M 168 140 L 156 140 L 156 132 L 168 132 Z M 152 140 L 140 140 L 140 132 L 152 132 Z M 136 140 L 124 140 L 124 132 L 136 132 Z M 120 140 L 108 140 L 108 132 L 120 132 Z M 104 140 L 92 140 L 92 132 L 104 132 Z M 88 140 L 76 140 L 76 132 L 88 132 Z M 76 116 L 88 116 L 88 124 L 76 124 Z M 92 116 L 104 116 L 104 124 L 92 124 Z M 108 116 L 120 116 L 120 124 L 108 124 Z M 124 116 L 136 116 L 136 124 L 124 124 Z M 140 116 L 152 116 L 152 124 L 140 124 Z M 156 116 L 168 116 L 168 124 L 156 124 Z M 172 116 L 184 116 L 184 124 L 172 124 Z M 188 116 L 200 116 L 200 124 L 188 124 Z M 204 116 L 216 116 L 216 124 L 204 124 Z M 204 112 L 200 112 L 188 112 L 184 112 L 172 112 L 168 112 L 156 112 L 152 112 L 140 112 L 136 112 L 124 112 L 120 112 L 108 112 L 104 112 L 92 112 L 88 112 L 76 112 L 72 112 L 72 116 L 72 124 L 72 128 L 72 132 L 72 140 L 72 144 L 76 144 L 88 144 L 92 144 L 104 144 L 108 144 L 120 144 L 124 144 L 136 144 L 140 144 L 152 144 L 156 144 L 168 144 L 172 144 L 184 144 L 188 144 L 200 144 L 204 144 L 216 144 L 220 144 L 220 140 L 220 132 L 220 128 L 220 124 L 220 116 L 220 112 L 216 112 Z"/>
    <path id="path3" fill="#ffffff" stroke="none" d="M 216 164 L 204 164 L 204 156 L 216 156 Z M 216 196 L 204 196 L 204 188 L 216 188 Z M 216 212 L 212 212 L 212 204 L 216 204 Z M 208 212 L 204 212 L 204 204 L 208 204 Z M 200 212 L 196 212 L 196 204 L 200 204 Z M 192 212 L 188 212 L 188 204 L 192 204 Z M 184 212 L 180 212 L 180 204 L 184 204 Z M 176 212 L 116 212 L 116 204 L 176 204 Z M 112 212 L 108 212 L 108 204 L 112 204 Z M 104 212 L 100 212 L 100 204 L 104 204 Z M 96 212 L 92 212 L 92 204 L 96 204 Z M 88 212 L 84 212 L 84 204 L 88 204 Z M 80 212 L 76 212 L 76 204 L 80 204 Z M 76 188 L 88 188 L 88 196 L 76 196 Z M 76 156 L 88 156 L 88 164 L 76 164 Z M 92 156 L 104 156 L 104 164 L 92 164 Z M 108 156 L 120 156 L 120 164 L 108 164 Z M 124 156 L 136 156 L 136 164 L 124 164 Z M 140 156 L 152 156 L 152 164 L 140 164 Z M 156 156 L 168 156 L 168 164 L 156 164 Z M 172 156 L 184 156 L 184 164 L 172 164 Z M 188 156 L 200 156 L 200 164 L 188 164 Z M 196 172 L 208 172 L 208 180 L 196 180 Z M 188 188 L 200 188 L 200 196 L 188 196 Z M 172 188 L 184 188 L 184 196 L 172 196 Z M 108 188 L 120 188 L 120 196 L 108 196 Z M 92 188 L 104 188 L 104 196 L 92 196 Z M 96 180 L 84 180 L 84 172 L 96 172 Z M 112 180 L 100 180 L 100 172 L 112 172 Z M 128 180 L 116 180 L 116 172 L 128 172 Z M 144 180 L 132 180 L 132 172 L 144 172 Z M 160 180 L 148 180 L 148 172 L 160 172 Z M 176 180 L 164 180 L 164 172 L 176 172 Z M 192 180 L 180 180 L 180 172 L 192 172 Z M 156 188 L 168 188 L 168 196 L 156 196 Z M 140 188 L 152 188 L 152 196 L 140 196 Z M 124 188 L 136 188 L 136 196 L 124 196 Z M 204 152 L 200 152 L 188 152 L 184 152 L 172 152 L 168 152 L 156 152 L 152 152 L 140 152 L 136 152 L 124 152 L 120 152 L 108 152 L 104 152 L 92 152 L 88 152 L 76 152 L 72 152 L 72 156 L 72 164 L 72 168 L 76 168 L 80 168 L 80 172 L 80 180 L 80 184 L 76 184 L 72 184 L 72 188 L 72 196 L 72 200 L 72 204 L 72 212 L 72 216 L 76 216 L 80 216 L 84 216 L 88 216 L 92 216 L 96 216 L 100 216 L 104 216 L 108 216 L 112 216 L 116 216 L 176 216 L 180 216 L 184 216 L 188 216 L 192 216 L 196 216 L 200 216 L 204 216 L 208 216 L 212 216 L 216 216 L 220 216 L 220 212 L 220 204 L 220 200 L 220 196 L 220 188 L 220 184 L 216 184 L 212 184 L 212 180 L 212 172 L 212 168 L 216 168 L 220 168 L 220 164 L 220 156 L 220 152 L 216 152 Z"/>
    <path id="path4" fill="#ffffff" stroke="none" d="M 160.876999 80 L 103.123001 80 L 101.123001 72 L 162.876999 72 Z M 96 68 L 100 84 L 164 84 L 168 68 Z"/>
    <path id="path5" fill="#ffffff" stroke="none" d="M 88 68 L 92 84 L 96 84 L 92 68 Z"/>
    <path id="path6" fill="#ffffff" stroke="none" d="M 80 68 L 84 84 L 88 84 L 84 68 Z"/>
    <path id="path7" fill="#ffffff" stroke="none" d="M 72 68 L 76 84 L 80 84 L 76 68 Z"/>
    <path id="path8" fill="#ffffff" stroke="none" d="M 172 68 L 168 84 L 172 84 L 176 68 Z"/>
    <path id="path9" fill="#ffffff" stroke="none" d="M 176 84 L 180 84 L 184 68 L 180 68 Z"/>
    <path id="path10" fill="#ffffff" stroke="none" d="M 217 80 L 221 80 L 223 72 L 219 72 Z"/>
    <path id="path11" fill="#ffffff" stroke="none" d="M 209 80 L 213 80 L 215 72 L 211 72 Z"/>
    <path id="path12" fill="#ffffff" stroke="none" d="M 201 80 L 205 80 L 207 72 L 203 72 Z"/>
    <path id="path13" fill="#ffffff" stroke="none" d="M 185 80 L 189 80 L 191 72 L 187 72 Z"/>
    <path id="path14" fill="#ffffff" stroke="none" d="M 165.510696 40 L 163.999695 28 L 159.999695 28 L 161.332703 40 Z"/>
    <path id="path15" fill="#ffffff" stroke="none" d="M 173.867203 40 L 172.000198 28 L 168.000198 28 L 169.688202 40 Z"/>
    <path id="path16" fill="#ffffff" stroke="none" d="M 148.799805 40 L 147.999802 28 L 143.999802 28 L 144.621796 40 Z"/>
    <path id="path17" fill="#ffffff" stroke="none" d="M 182.222702 40 L 179.999695 28 L 175.999695 28 L 178.044693 40 Z"/>
    <path id="path18" fill="#ffffff" stroke="none" d="M 157.155304 40 L 156.000305 28 L 152.000305 28 L 152.977295 40 Z"/>
    <path id="path19" fill="#ffffff" stroke="none" d="M 207.289093 40 L 204.000107 28 L 200.000107 28 L 203.111099 40 Z"/>
    <path id="path20" fill="#ffffff" stroke="none" d="M 190.578094 40 L 188.000107 28 L 184.000107 28 L 186.400101 40 Z"/>
    <path id="path21" fill="#ffffff" stroke="none" d="M 215.644501 40 L 211.999496 28 L 207.999496 28 L 211.466507 40 Z"/>
    <path id="path22" fill="#ffffff" stroke="none" d="M 224 40 L 220 28 L 216 28 L 219.822006 40 Z"/>
    <path id="path23" fill="#ffffff" stroke="none" d="M 140.444305 40 L 140.000305 28 L 136.000305 28 L 136.266296 40 Z"/>
    <path id="path24" fill="#ffffff" stroke="none" d="M 198.933594 40 L 195.999603 28 L 191.999603 28 L 194.7556 40 Z"/>
    <path id="path25" fill="#ffffff" stroke="none" d="M 36 40 L 40.178001 40 L 44 28 L 40 28 Z"/>
    <path id="path26" fill="#ffffff" stroke="none" d="M 44.355499 40 L 48.533501 40 L 52.0005 28 L 48.0005 28 Z"/>
    <path id="path27" fill="#ffffff" stroke="none" d="M 76 28 L 72 28 L 69.421997 40 L 73.599998 40 Z"/>
    <path id="path28" fill="#ffffff" stroke="none" d="M 68 28 L 64 28 L 61.066002 40 L 65.245003 40 Z"/>
    <path id="path29" fill="#ffffff" stroke="none" d="M 52.710899 40 L 56.888901 40 L 59.999901 28 L 55.999901 28 Z"/>
    <path id="path30" fill="#ffffff" stroke="none" d="M 132 28 L 128 28 L 127.911003 40 L 132.089005 40 Z"/>
    <path id="path31" fill="#ffffff" stroke="none" d="M 84 28 L 80 28 L 77.778 40 L 81.956001 40 Z"/>
    <path id="path32" fill="#ffffff" stroke="none" d="M 116 28 L 112 28 L 111.199997 40 L 115.377998 40 Z"/>
    <path id="path33" fill="#ffffff" stroke="none" d="M 92 28 L 88 28 L 86.133003 40 L 90.310997 40 Z"/>
    <path id="path34" fill="#ffffff" stroke="none" d="M 124 28 L 120 28 L 119.556 40 L 123.733002 40 Z"/>
    <path id="path35" fill="#ffffff" stroke="none" d="M 100 28 L 96 28 L 94.488998 40 L 98.667 40 Z"/>
    <path id="path36" fill="#ffffff" stroke="none" d="M 108 28 L 104 28 L 102.844002 40 L 107.022003 40 Z"/>
</svg>
