<?xml version="1.0" encoding="UTF-8"?>
<!-- Generated by Pixelmator Pro 3.7.1 -->
<svg width="256" height="256" viewBox="0 0 256 256" xmlns="http://www.w3.org/2000/svg">
    <path id="Path" fill="#ffffff" stroke="none" d="M 236 188 L 147.338989 191.283997 C 150.084 190.03299 152 187.270996 152 184.061996 L 152 132.472 L 152 130 L 152 127.764008 L 152 124 L 152 72 L 152 68 L 152 67.936996 C 152 66.860992 151.78299 65.835999 151.393997 64.899994 L 221.561005 67.598999 C 227.544998 67.82901 232.442993 72.436005 233.039001 78.395996 L 244 176 C 244.690002 182.899994 242.931 187.761002 236 188 M 12 176 L 22.960007 78.395996 C 23.557007 72.436005 28.455002 67.82901 34.438995 67.598999 L 104.606003 64.899994 C 104.216995 65.835999 104 66.860992 104 67.936996 L 104 68 L 104 72 L 104 124 L 104 127.764008 L 104 130 L 104 132.472 L 104 184.061996 C 104 187.246002 105.888 189.98999 108.598999 191.253998 L 24 188 C 17.069 187.761002 11.309998 182.899994 12 176 M 108 72 L 116 72 L 118 72 L 120 72 L 120 136 L 108 130 L 108 127.764008 L 108 124 Z M 148 130 L 136 136 L 136 72 L 138 72 L 140 72 L 148 72 L 148 124 L 148 127.764008 Z M 148 67.936996 L 148 68 L 140 68 L 138 68 L 136 68 L 132 68 L 132 72 L 132 136 L 132 142.472 L 137.789001 139.578003 L 148 134.472 L 148 184.061996 C 148 186.237 146.237 188 144.061996 188 L 111.936996 188 C 109.763 188 108 186.237 108 184.061996 L 108 134.472 L 118.210999 139.578003 L 124 142.472 L 124 136 L 124 72 L 124 68 L 120 68 L 118 68 L 116 68 L 108 68 L 108 67.936996 C 108 66.596008 108.672997 65.415009 109.696999 64.70401 L 128 64 L 146.303009 64.70401 C 147.325989 65.415009 148 66.596008 148 67.936996 M 247.979996 175.60199 L 237.014999 77.949005 C 236.229004 70.096008 229.649002 63.906998 221.714005 63.60199 L 147.394989 60.742996 C 146.380005 60.270996 145.253998 60 144.061996 60 L 128.078003 60 L 128 59.996994 L 127.921997 60 L 111.936996 60 C 110.746002 60 109.620003 60.270996 108.605003 60.742996 L 34.285995 63.60199 C 26.350998 63.906998 19.770996 70.096008 18.979996 77.998001 L 8.024994 175.554001 C 7.621002 179.593994 8.830994 183.428009 11.427994 186.39801 C 14.389008 189.786011 18.921005 191.826996 23.862 191.998001 L 127.846001 195.997009 L 127.997002 196.002991 L 128.14801 195.997009 L 236.147995 191.997009 C 240.001007 191.863998 243.022995 190.580002 245.119995 188.182007 C 247.606003 185.337006 248.541992 181.222 247.979996 175.60199"/>
    <path id="path1" fill="#ffffff" stroke="none" d="M 80 168 C 80 172.417999 76.417999 176 72 176 L 30.688999 176 C 24.903999 176 20.326 171.106003 20.710999 165.334991 L 23.750999 119.734009 C 23.890999 117.632996 25.636002 116 27.742001 116 L 36.460999 116 C 38.715 116 40.863998 116.951004 42.380001 118.619003 L 77.918999 157.712006 C 79.258003 159.18399 80 161.102997 80 163.093002 Z M 45.34 115.928009 C 43.070999 113.432007 39.834 112 36.460999 112 L 27.742001 112 C 23.544998 112 20.039001 115.279999 19.759998 119.468002 L 16.720001 165.067993 C 16.463001 168.919998 17.827999 172.746002 20.465 175.563995 C 23.103001 178.384003 26.828999 180 30.688999 180 L 72 180 C 78.616997 180 84 174.617004 84 168 L 84 163.093002 C 84 160.10199 82.891998 157.234009 80.878998 155.020996 Z"/>
    <path id="path2" fill="#ffffff" stroke="none" d="M 50 152 C 46.687 152 44 149.313004 44 146 C 44 142.686996 46.687 140 50 140 C 53.313 140 56 142.686996 56 146 C 56 149.313004 53.313 152 50 152 M 50 137 C 45.036999 137 41 141.037003 41 146 C 41 150.962997 45.036999 155 50 155 C 54.963001 155 59 150.962997 59 146 C 59 141.037003 54.963001 137 50 137"/>
    <path id="path3" fill="#ffffff" stroke="none" d="M 225.311493 176 L 183.999496 176 C 179.582504 176 175.999496 172.417999 175.999496 168 L 175.999496 163.093002 C 175.999496 161.102997 176.742493 159.18399 178.080505 157.712006 L 213.619507 118.619003 C 215.135498 116.951004 217.285507 116 219.539505 116 L 228.257507 116 C 230.363495 116 232.108505 117.632996 232.248505 119.734009 L 235.289505 165.334991 C 235.673508 171.106003 231.095505 176 225.311493 176 M 236.240494 119.468002 C 235.960495 115.279999 232.455505 112 228.257507 112 L 219.539505 112 C 216.165497 112 212.928497 113.432007 210.660507 115.928009 L 175.121506 155.020996 C 173.108505 157.234009 171.999496 160.10199 171.999496 163.093002 L 171.999496 168 C 171.999496 174.617004 177.382492 180 183.999496 180 L 225.311493 180 C 229.170502 180 232.897507 178.384003 235.5345 175.563995 C 238.171494 172.746002 239.537506 168.919998 239.280502 165.067993 Z"/>
    <path id="path4" fill="#ffffff" stroke="none" d="M 206 152 C 202.686996 152 200 149.313004 200 146 C 200 142.686996 202.686996 140 206 140 C 209.313004 140 212 142.686996 212 146 C 212 149.313004 209.313004 152 206 152 M 206 137 C 201.037003 137 197 141.037003 197 146 C 197 150.962997 201.037003 155 206 155 C 210.962997 155 215 150.962997 215 146 C 215 141.037003 210.962997 137 206 137"/>
    <path id="path5" fill="#ffffff" stroke="none" d="M 112 152 L 112 156 L 112 160 L 116 160 L 116 156 L 116 152 L 116 148 L 112 148 Z"/>
    <path id="path6" fill="#ffffff" stroke="none" d="M 144 152 L 144 148 L 140 148 L 140 152 L 140 160 L 144 160 Z"/>
    <path id="path7" fill="#ffffff" stroke="none" d="M 124 172 L 124 176 L 128 176 L 132 176 L 132 172 L 128 172 Z"/>
</svg>
