<?xml version="1.0" encoding="UTF-8"?>
<!-- Generated by Pixelmator Pro 3.7.1 -->
<svg width="256" height="256" viewBox="0 0 256 256" xmlns="http://www.w3.org/2000/svg">
    <path id="Path" fill="#ffffff" stroke="none" d="M 176 52 L 172 64 L 172 124 L 176 140 L 166 140 L 160 140 L 154 140 L 122 140 L 116 140 L 110 140 L 80 140 L 84 124 L 84 64 L 80 52 L 80 16 L 176 16 Z M 176 156.429993 C 176 158.401001 174.313995 160 172.235001 160 L 172 160 L 168 160 L 88 160 L 83.764999 160 C 81.685997 160 80 158.401001 80 156.429993 L 80 144 L 176 144 Z M 168 240 L 88 240 L 88 164 L 168 164 Z M 176 12 L 80 12 L 76 12 L 76 16 L 76 52 L 76 52.649002 L 76.205002 53.264999 L 80 64.649002 L 80 123.507004 L 76.120003 139.029999 L 76 139.507996 L 76 140 L 76 156.429993 C 76 160.604004 79.483002 164 83.764999 164 L 84 164 L 84 240 L 84 244 L 88 244 L 168 244 L 172 244 L 172 240 L 172 164 L 172.235001 164 C 176.516998 164 180 160.604004 180 156.429993 L 180 140 L 180 139.507996 L 179.880997 139.029999 L 176 123.507004 L 176 64.649002 L 179.794998 53.264999 L 180 52.649002 L 180 52 L 180 16 L 180 12 Z"/>
    <path id="path1" fill="#ffffff" stroke="none" d="M 168 44 L 88 44 L 88 24 L 168 24 Z M 172 20 L 84 20 L 84 48 L 172 48 Z"/>
    <path id="path2" fill="#ffffff" stroke="none" d="M 116 174.718689 C 116 173.223694 117.223999 171.999695 118.719002 171.999695 L 137.281006 171.999695 C 138.776001 171.999695 140 173.223694 140 174.718689 L 140 201.280701 C 140 202.776703 138.776001 203.999695 137.281006 203.999695 L 118.719002 203.999695 C 117.223999 203.999695 116 202.776703 116 201.280701 Z M 118.719002 207.999695 L 137.281006 207.999695 C 140.985992 207.999695 144 204.986694 144 201.280701 L 144 174.718689 C 144 171.013702 140.985992 167.999695 137.281006 167.999695 L 118.719002 167.999695 C 115.014 167.999695 112 171.013702 112 174.718689 L 112 201.280701 C 112 204.986694 115.014 207.999695 118.719002 207.999695"/>
    <path id="path3" fill="#ffffff" stroke="none" d="M 126 180 L 122 180 L 122 184 L 126 184 Z"/>
    <path id="path4" fill="#ffffff" stroke="none" d="M 134 180 L 130 180 L 130 184 L 134 184 Z"/>
    <path id="path5" fill="#ffffff" stroke="none" d="M 126 188 L 122 188 L 122 192 L 126 192 Z"/>
    <path id="path6" fill="#ffffff" stroke="none" d="M 134 188 L 130 188 L 130 192 L 134 192 Z"/>
    <path id="path7" fill="#ffffff" stroke="none" d="M 166 132 C 164.895996 132 164 131.553009 164 131 C 164 130.446991 164.895996 130 166 130 C 167.104004 130 168 130.446991 168 131 C 168 131.553009 167.104004 132 166 132 M 166 136 C 164.895996 136 164 135.553009 164 135 C 164 134.446991 164.895996 134 166 134 C 167.104004 134 168 134.446991 168 135 C 168 135.553009 167.104004 136 166 136 M 160 132 C 158.895996 132 158 131.553009 158 131 C 158 130.446991 158.895996 130 160 130 C 161.104004 130 162 130.446991 162 131 C 162 131.553009 161.104004 132 160 132 M 160 136 C 158.895996 136 158 135.553009 158 135 C 158 134.446991 158.895996 134 160 134 C 161.104004 134 162 134.446991 162 135 C 162 135.553009 161.104004 136 160 136 M 154 132 C 152.895996 132 152 131.553009 152 131 C 152 130.446991 152.895996 130 154 130 C 155.104004 130 156 130.446991 156 131 C 156 131.553009 155.104004 132 154 132 M 154 136 C 152.895996 136 152 135.553009 152 135 C 152 134.446991 152.895996 134 154 134 C 155.104004 134 156 134.446991 156 135 C 156 135.553009 155.104004 136 154 136 M 144 134.5 C 141.514999 134.5 139.5 133.492004 139.5 132.25 C 139.5 131.270996 140.759995 130.445007 142.507004 130.136993 L 141.75 125.662994 C 141.75 124.748001 142.763 124 144 124 C 145.237 124 146.25 124.748001 146.25 125.662994 L 145.492996 130.136993 C 147.240005 130.445007 148.5 131.270996 148.5 132.25 C 148.5 133.492004 146.485001 134.5 144 134.5 M 134 128 C 132.895996 128 132 127.552002 132 127 C 132 126.447998 132.895996 126 134 126 C 135.104004 126 136 126.447998 136 127 C 136 127.552002 135.104004 128 134 128 M 92 94 C 92 72.384003 98.112999 68 128 68 C 157.886993 68 164 72.373993 164 94 C 164 115.623993 157.985001 120 128 120 C 98.018997 120 92 115.615997 92 94 M 100 134.5 C 97.514999 134.5 95.5 133.492004 95.5 132.25 C 95.5 131.270996 96.759003 130.445007 98.507004 130.136993 L 97.75 125.662994 C 97.75 124.748001 98.763 124 100 124 C 101.237 124 102.25 124.748001 102.25 125.662994 L 101.492996 130.136993 C 103.240997 130.445007 104.5 131.270996 104.5 132.25 C 104.5 133.492004 102.485001 134.5 100 134.5 M 110 134 C 111.104004 134 112 134.446991 112 135 C 112 135.553009 111.104004 136 110 136 C 108.895996 136 108 135.553009 108 135 C 108 134.446991 108.895996 134 110 134 M 110 130 C 111.104004 130 112 130.446991 112 131 C 112 131.553009 111.104004 132 110 132 C 108.895996 132 108 131.553009 108 131 C 108 130.446991 108.895996 130 110 130 M 116 134 C 117.104004 134 118 134.446991 118 135 C 118 135.553009 117.104004 136 116 136 C 114.895996 136 114 135.553009 114 135 C 114 134.446991 114.895996 134 116 134 M 116 130 C 117.104004 130 118 130.446991 118 131 C 118 131.553009 117.104004 132 116 132 C 114.895996 132 114 131.553009 114 131 C 114 130.446991 114.895996 130 116 130 M 122 134 C 123.104004 134 124 134.446991 124 135 C 124 135.553009 123.104004 136 122 136 C 120.895996 136 120 135.553009 120 135 C 120 134.446991 120.895996 134 122 134 M 122 130 C 123.104004 130 124 130.446991 124 131 C 124 131.553009 123.104004 132 122 132 C 120.895996 132 120 131.553009 120 131 C 120 130.446991 120.895996 130 122 130 M 90 128 C 88.896004 128 88 127.552002 88 127 C 88 126.447998 88.896004 126 90 126 C 91.103996 126 92 126.447998 92 127 C 92 127.552002 91.103996 128 90 128 M 172 135 C 172 134.281006 171.835999 133.606003 171.535004 133 C 171.835999 132.393997 172 131.718994 172 131 C 172 128.149002 169.421005 126 166 126 C 164.891998 126 163.871994 126.225998 163 126.626999 C 162.128006 126.225998 161.108002 126 160 126 C 158.891998 126 157.871994 126.225998 157 126.626999 C 156.128006 126.225998 155.108002 126 154 126 C 152.460999 126 151.091995 126.436005 150.050995 127.173996 L 150.194 126.330002 L 150.25 125.998993 L 150.25 125.662994 C 150.25 124.485001 149.871002 123.403 149.216995 122.507004 C 153.386002 121.649002 156.839005 120.337997 159.587997 118.350998 C 166.569 113.302994 168 104.966003 168 94 C 168 83.041 166.561996 74.705994 159.548004 69.645996 C 153.029007 64.944 142.643997 64 128 64 C 113.358002 64 102.973999 64.945007 96.452003 69.649994 C 89.436996 74.710999 88 83.044998 88 94 C 88 104.962006 89.431 113.298004 96.413002 118.347 C 97.291 118.981995 98.247002 119.542999 99.266998 120.048004 C 96.983002 120.281006 95.105003 121.576996 94.25 123.404007 C 93.18 122.526001 91.693001 122 90 122 C 86.580002 122 84 124.149002 84 127 C 84 129.850998 86.580002 132 90 132 C 90.527 132 91.033997 131.949005 91.514999 131.852997 C 91.504997 131.983002 91.5 132.115997 91.5 132.25 C 91.5 135.871002 95.074997 138.5 100 138.5 C 101.806999 138.5 103.431999 138.145996 104.765999 137.519989 C 105.776001 139.024994 107.696999 140 110 140 C 111.108002 140 112.126999 139.774002 113 139.373001 C 113.873001 139.774002 114.891998 140 116 140 C 117.108002 140 118.126999 139.774002 119 139.373001 C 119.873001 139.774002 120.891998 140 122 140 C 125.419998 140 128 137.850998 128 135 C 128 134.281006 127.835999 133.606003 127.535995 133 C 127.835999 132.393997 128 131.718994 128 131 C 128 128.149002 125.419998 126 122 126 C 120.891998 126 119.873001 126.225998 119 126.626999 C 118.126999 126.225998 117.108002 126 116 126 C 114.891998 126 113.873001 126.225998 113 126.626999 C 112.126999 126.225998 111.108002 126 110 126 C 108.459999 126 107.091003 126.436005 106.050995 127.173996 L 106.194 126.330002 L 106.25 125.998993 L 106.25 125.662994 C 106.25 124.281998 105.729996 123.031998 104.854996 122.059998 C 110.865997 123.600006 118.541 124 128 124 C 128.389999 124 128.764008 123.996994 129.147003 123.994995 C 128.423996 124.820999 128 125.852005 128 127 C 128 129.850998 130.578995 132 134 132 C 134.527008 132 135.033997 131.949005 135.514999 131.852997 C 135.505005 131.983002 135.5 132.115997 135.5 132.25 C 135.5 135.871002 139.074997 138.5 144 138.5 C 145.807007 138.5 147.432007 138.145996 148.766006 137.519989 C 149.774994 139.024994 151.697006 140 154 140 C 155.108002 140 156.128006 139.774002 157 139.373001 C 157.871994 139.774002 158.891998 140 160 140 C 161.108002 140 162.128006 139.774002 163 139.373001 C 163.871994 139.774002 164.891998 140 166 140 C 169.421005 140 172 137.850998 172 135"/>
</svg>
