<?xml version="1.0" encoding="UTF-8"?>
<!-- Generated by Pixelmator Pro 3.7.1 -->
<svg width="256" height="256" viewBox="0 0 256 256" xmlns="http://www.w3.org/2000/svg">
    <path id="Path" fill="#ffffff" stroke="none" d="M 52 28 L 60 28 L 60 32 L 52 32 L 52 36 L 52 44 L 56 44 L 64 44 L 64 40 L 56 40 L 56 36 L 60 36 L 64 36 L 64 28 L 64 24 L 52 24 Z"/>
    <path id="path1" fill="#ffffff" stroke="none" d="M 76 40 L 72 40 L 72 28 L 76 28 Z M 72 24 L 68 24 L 68 44 L 72 44 L 76 44 L 80 44 L 80 24 L 76 24 Z"/>
    <path id="path2" fill="#ffffff" stroke="none" d="M 92 40 L 88 40 L 88 28 L 92 28 Z M 84 24 L 84 28 L 84 44 L 88 44 L 96 44 L 96 40 L 96 28 L 96 24 Z"/>
    <path id="path3" fill="#ffffff" stroke="none" d="M 108 24 L 100 24 L 100 28 L 108 28 L 108 32 L 100 32 L 100 36 L 108 36 L 108 40 L 100 40 L 100 44 L 108 44 L 112 44 L 112 40 L 112 36 L 112 32 L 112 28 L 112 24 Z"/>
    <path id="path4" fill="#ffffff" stroke="none" d="M 20 232 C 22.209 232 24 233.791 24 236 C 24 238.209 22.209 240 20 240 C 17.791 240 16 238.209 16 236 C 16 233.791 17.791 232 20 232 M 20 244 C 24.410999 244 28 240.410995 28 236 C 28 231.589005 24.410999 228 20 228 C 15.589001 228 12 231.589005 12 236 C 12 240.410995 15.589001 244 20 244"/>
    <path id="path5" fill="#ffffff" stroke="none" d="M 232 240 C 229.791 240 228 238.209 228 236 C 228 233.791 229.791 232 232 232 C 234.209 232 236 233.791 236 236 C 236 238.209 234.209 240 232 240 M 232 228 C 227.589005 228 224 231.589005 224 236 C 224 240.410995 227.589005 244 232 244 C 236.410995 244 240 240.410995 240 236 C 240 231.589005 236.410995 228 232 228"/>
    <path id="path6" fill="#ffffff" stroke="none" d="M 244 136 L 136 136 L 136 120 L 136 116 L 136 100 L 136 96 L 136 80 L 136 76 L 136 60 L 136 56 L 136 28 L 156 28 L 156 32 L 148 32 L 144 32 L 144 36 L 144 60 L 144 64 L 144 88 L 144 92 L 148 92 L 156 92 L 156 104 L 156 108 L 160 108 L 236 108 L 240 108 L 240 104 L 240 28 L 244 28 Z M 132 156 L 80 156 L 80 140 L 132 140 Z M 132 176 L 80 176 L 80 160 L 132 160 Z M 76 176 L 24 176 L 24 160 L 76 160 Z M 24 140 L 76 140 L 76 156 L 24 156 Z M 24 120 L 76 120 L 76 136 L 24 136 Z M 24 100 L 76 100 L 76 116 L 24 116 Z M 24 80 L 76 80 L 76 96 L 24 96 Z M 24 60 L 76 60 L 76 76 L 24 76 Z M 132 136 L 80 136 L 80 120 L 132 120 Z M 132 116 L 80 116 L 80 100 L 132 100 Z M 132 96 L 80 96 L 80 80 L 132 80 Z M 80 60 L 132 60 L 132 76 L 80 76 Z M 156 60 L 148 60 L 148 36 L 156 36 Z M 148 64 L 156 64 L 156 88 L 148 88 Z M 236 28 L 236 104 L 160 104 L 160 92 L 160 88 L 160 64 L 160 60 L 160 36 L 160 32 L 160 28 Z M 24 20 C 24 22.209 22.209 24 20 24 C 17.791 24 16 22.209 16 20 C 16 17.791 17.791 16 20 16 C 22.209 16 24 17.791 24 20 M 244 24 L 244 12 L 244 8 L 240 8 L 12 8 L 8 8 L 8 12 L 8 244 L 8 248 L 12 248 L 240 248 L 244 248 L 244 244 L 244 140.5 L 240 140.5 L 240 236 L 240 244 L 12 244 L 12 236 L 12 20 L 12 12 L 19.994995 12 C 15.585999 12.002991 12 15.589996 12 20 C 12 24.411011 15.589005 28 20 28 C 24.410995 28 28 24.411011 28 20 C 28 15.589996 24.414001 12.002991 20.005005 12 L 240 12 L 240 24 L 236 24 L 160 24 L 156 24 L 136 24 L 132 24 L 132 28 L 132 48.063995 L 96 48.063995 L 96 52 L 132 52 L 132 56 L 80 56 L 76 56 L 24 56 L 20 56 L 20 60 L 20 76 L 20 80 L 20 96 L 20 100 L 20 116 L 20 120 L 20 136 L 20 140 L 20 156 L 20 160 L 20 176 L 20 180 L 24 180 L 76 180 L 80 180 L 132 180 L 136 180 L 136 176 L 136 160 L 136 156 L 136 140 L 244 140 L 248 140 L 248 136 L 248 28 L 248 24 Z"/>
    <path id="path7" fill="#ffffff" stroke="none" d="M 176 40 L 208 40 L 208 72 L 176 72 Z M 208 76 L 212 76 L 212 72 L 212 40 L 212 36 L 208 36 L 176 36 L 172 36 L 172 40 L 172 72 L 172 76 L 176 76 Z"/>
    <path id="path8" fill="#ffffff" stroke="none" d="M 176 132 L 204 132 L 204 128 L 176 128 Z"/>
    <path id="path9" fill="#ffffff" stroke="none" d="M 156 132 L 172 132 L 172 128 L 156 128 Z"/>
    <path id="path10" fill="#ffffff" stroke="none" d="M 140 131.966003 L 148 131.966003 L 148 127.966003 L 140 127.966003 Z"/>
    <path id="path11" fill="#ffffff" stroke="none" d="M 208 132 L 236 132 L 236 128 L 208 128 Z"/>
    <path id="path12" fill="#ffffff" stroke="none" d="M 24 52 L 44 52 L 44 48.063995 L 24 48.063995 Z"/>
    <path id="path13" fill="#ffffff" stroke="none" d="M 52 52 L 88 52 L 88 48.063995 L 52 48.063995 Z"/>
    <path id="path14" fill="#ffffff" stroke="none" d="M 180 115.964996 L 204 115.964996 L 204 111.964996 L 180 111.964996 Z"/>
    <path id="path15" fill="#ffffff" stroke="none" d="M 180 123.964996 L 204 123.964996 L 204 119.964996 L 180 119.964996 Z"/>
    <path id="path16" fill="#ffffff" stroke="none" d="M 212 115.964996 L 236 115.964996 L 236 111.964996 L 212 111.964996 Z"/>
    <path id="path17" fill="#ffffff" stroke="none" d="M 212 123.964996 L 236 123.964996 L 236 119.964996 L 212 119.964996 Z"/>
    <path id="path18" fill="#ffffff" stroke="none" d="M 232 224 L 192 224 L 192 212 L 232 212 Z M 188 224 L 148 224 L 148 212 L 188 212 Z M 140 236 L 116 236 L 116 228 L 140 228 Z M 108 224 L 72 224 L 72 212 L 108 212 Z M 72 196 L 108 196 L 108 208 L 72 208 Z M 116 216 L 116.292 216 L 140 216 L 140 224 L 116 224 Z M 116.292 204 L 140.292007 204 L 140.292007 212 L 140 212 L 116.292 212 Z M 188 208 L 148 208 L 148 196 L 188 196 Z M 148 180 L 188 180 L 188 192 L 148 192 Z M 148 164 L 188 164 L 188 176 L 148 176 Z M 192 164 L 232 164 L 232 176 L 192 176 Z M 232 192 L 192 192 L 192 180 L 232 180 Z M 232 208 L 192 208 L 192 196 L 232 196 Z M 64 208 L 28 208 L 28 196 L 64 196 Z M 236 224 L 236 212 L 236 208 L 236 196 L 236 192 L 236 180 L 236 176 L 236 164 L 236 160 L 232 160 L 192 160 L 188 160 L 148 160 L 144 160 L 144 164 L 144 176 L 144 180 L 144 192 L 144 196 L 144 200 L 140.292007 200 L 116.292 200 L 112.292 200 L 112.292 204 L 112.292 212 L 112 212 L 112 208 L 112 196 L 112 192 L 108 192 L 72 192 L 68 192 L 64 192 L 28 192 L 24 192 L 24 196 L 24 208 L 24 212 L 28 212 L 64 212 L 68 212 L 68 224 L 68 228 L 72 228 L 108 228 L 112 228 L 112 236 L 112 240 L 116 240 L 140 240 L 144 240 L 144 236 L 144 228 L 148 228 L 188 228 L 192 228 L 232 228 L 236 228 Z"/>
    <path id="path19" fill="#ffffff" stroke="none" d="M 44 40 L 24 40 L 24 44 L 44 44 Z"/>
    <path id="path20" fill="#ffffff" stroke="none" d="M 124 28 L 116 28 L 116 24 L 124 24 Z"/>
    <path id="path21" fill="#ffffff" stroke="none" d="M 124 36 L 116 36 L 116 32 L 124 32 Z"/>
    <path id="path22" fill="#ffffff" stroke="none" d="M 124 44 L 116 44 L 116 40 L 124 40 Z"/>
</svg>
