<?xml version="1.0" encoding="UTF-8"?>
<!-- Generated by Pixelmator Pro 3.7.1 -->
<svg width="256" height="256" viewBox="0 0 256 256" xmlns="http://www.w3.org/2000/svg">
    <path id="Path" fill="#ffffff" stroke="none" d="M 92 88 L 100 88 L 100 92 L 92 92 L 92 96 L 92 104 L 96 104 L 104 104 L 104 100 L 96 100 L 96 96 L 100 96 L 104 96 L 104 88 L 104 84 L 92 84 Z"/>
    <path id="path1" fill="#ffffff" stroke="none" d="M 116 100 L 112 100 L 112 88 L 116 88 Z M 112 84 L 108 84 L 108 104 L 112 104 L 116 104 L 120 104 L 120 84 L 116 84 Z"/>
    <path id="path2" fill="#ffffff" stroke="none" d="M 132 100 L 128 100 L 128 88 L 132 88 Z M 128 84 L 124 84 L 124 104 L 128 104 L 132 104 L 136 104 L 136 84 L 132 84 Z"/>
    <path id="path3" fill="#ffffff" stroke="none" d="M 176 52 L 172 64 L 172 124 L 176 140 L 166 140 L 160 140 L 154 140 L 122 140 L 116 140 L 110 140 L 80 140 L 84 124 L 84 64 L 80 52 L 80 16 L 176 16 Z M 176 156.429993 C 176 158.401001 174.313995 160 172.235001 160 L 172 160 L 168 160 L 88 160 L 83.764999 160 C 81.685997 160 80 158.401001 80 156.429993 L 80 144 L 176 144 Z M 168 240 L 88 240 L 88 164 L 168 164 Z M 176 12 L 80 12 L 76 12 L 76 16 L 76 52 L 76 52.649002 L 76.205002 53.264999 L 80 64.649002 L 80 123.507004 L 76.120003 139.029999 L 76 139.507996 L 76 140 L 76 156.429993 C 76 160.604004 79.483002 164 83.764999 164 L 84 164 L 84 240 L 84 244 L 88 244 L 168 244 L 172 244 L 172 240 L 172 164 L 172.235001 164 C 176.516998 164 180 160.604004 180 156.429993 L 180 140 L 180 139.507996 L 179.880997 139.029999 L 176 123.507004 L 176 64.649002 L 179.794998 53.264999 L 180 52.649002 L 180 52 L 180 16 L 180 12 Z"/>
    <path id="path4" fill="#ffffff" stroke="none" d="M 168 44 L 88 44 L 88 24 L 168 24 Z M 172 20 L 84 20 L 84 48 L 172 48 Z"/>
    <path id="path5" fill="#ffffff" stroke="none" d="M 116 174.718689 C 116 173.223694 117.223999 171.999695 118.719002 171.999695 L 137.281006 171.999695 C 138.776001 171.999695 140 173.223694 140 174.718689 L 140 201.280701 C 140 202.776703 138.776001 203.999695 137.281006 203.999695 L 118.719002 203.999695 C 117.223999 203.999695 116 202.776703 116 201.280701 Z M 118.719002 207.999695 L 137.281006 207.999695 C 140.985992 207.999695 144 204.986694 144 201.280701 L 144 174.718689 C 144 171.013702 140.985992 167.999695 137.281006 167.999695 L 118.719002 167.999695 C 115.014 167.999695 112 171.013702 112 174.718689 L 112 201.280701 C 112 204.986694 115.014 207.999695 118.719002 207.999695"/>
    <path id="path6" fill="#ffffff" stroke="none" d="M 126 180 L 122 180 L 122 184 L 126 184 Z"/>
    <path id="path7" fill="#ffffff" stroke="none" d="M 134 180 L 130 180 L 130 184 L 134 184 Z"/>
    <path id="path8" fill="#ffffff" stroke="none" d="M 126 188 L 122 188 L 122 192 L 126 192 Z"/>
    <path id="path9" fill="#ffffff" stroke="none" d="M 134 188 L 130 188 L 130 192 L 134 192 Z"/>
    <path id="path10" fill="#ffffff" stroke="none" d="M 110 134 C 108.896004 134 108 134.446991 108 135 C 108 135.553009 108.896004 136 110 136 C 111.103996 136 112 135.553009 112 135 C 112 134.446991 111.103996 134 110 134 M 116 134 C 114.895996 134 114 134.446991 114 135 C 114 135.553009 114.895996 136 116 136 C 117.104004 136 118 135.553009 118 135 C 118 134.446991 117.104004 134 116 134 M 122 134 C 120.895996 134 120 134.446991 120 135 C 120 135.553009 120.895996 136 122 136 C 123.104004 136 124 135.553009 124 135 C 124 134.446991 123.104004 134 122 134 M 154 134 C 152.895996 134 152 134.446991 152 135 C 152 135.553009 152.895996 136 154 136 C 155.104004 136 156 135.553009 156 135 C 156 134.446991 155.104004 134 154 134 M 160 134 C 158.895996 134 158 134.446991 158 135 C 158 135.553009 158.895996 136 160 136 C 161.104004 136 162 135.553009 162 135 C 162 134.446991 161.104004 134 160 134 M 166 134 C 164.895996 134 164 134.446991 164 135 C 164 135.553009 164.895996 136 166 136 C 167.104004 136 168 135.553009 168 135 C 168 134.446991 167.104004 134 166 134 M 110 130 C 108.896004 130 108 130.446991 108 131 C 108 131.553009 108.896004 132 110 132 C 111.103996 132 112 131.553009 112 131 C 112 130.446991 111.103996 130 110 130 M 116 130 C 114.895996 130 114 130.446991 114 131 C 114 131.553009 114.895996 132 116 132 C 117.104004 132 118 131.553009 118 131 C 118 130.446991 117.104004 130 116 130 M 122 130 C 120.895996 130 120 130.446991 120 131 C 120 131.553009 120.895996 132 122 132 C 123.104004 132 124 131.553009 124 131 C 124 130.446991 123.104004 130 122 130 M 154 130 C 152.895996 130 152 130.446991 152 131 C 152 131.553009 152.895996 132 154 132 C 155.104004 132 156 131.553009 156 131 C 156 130.446991 155.104004 130 154 130 M 160 130 C 158.895996 130 158 130.446991 158 131 C 158 131.553009 158.895996 132 160 132 C 161.104004 132 162 131.553009 162 131 C 162 130.446991 161.104004 130 160 130 M 166 130 C 164.895996 130 164 130.446991 164 131 C 164 131.553009 164.895996 132 166 132 C 167.104004 132 168 131.553009 168 131 C 168 130.446991 167.104004 130 166 130 M 90 126 C 88.895996 126 88 126.447998 88 127 C 88 127.552002 88.895996 128 90 128 C 91.104004 128 92 127.552002 92 127 C 92 126.447998 91.104004 126 90 126 M 134 126 C 132.895996 126 132 126.447998 132 127 C 132 127.552002 132.895996 128 134 128 C 135.104004 128 136 127.552002 136 127 C 136 126.447998 135.104004 126 134 126"/>
    <path id="path11" fill="#ffffff" stroke="none" d="M 176 68 L 80 68 L 80 64 L 176 64 Z"/>
    <path id="path12" fill="#ffffff" stroke="none" d="M 176 56 L 80 56 L 80 52 L 176 52 Z"/>
    <path id="path13" fill="#ffffff" stroke="none" d="M 176 120 L 80 120 L 80 116 L 176 116 Z"/>
    <path id="path14" fill="#ffffff" stroke="none" d="M 98 136 L 98 136 C 96.896004 136 96 135.104004 96 134 L 96 126 C 96 124.895996 96.896004 124 98 124 C 99.103996 124 100 124.895996 100 126 L 100 134 C 100 135.104004 99.103996 136 98 136"/>
    <path id="path15" fill="#ffffff" stroke="none" d="M 104 134 C 104 135.104004 101.313004 136 98 136 C 94.686996 136 92 135.104004 92 134 C 92 132.895996 94.686996 132 98 132 C 101.313004 132 104 132.895996 104 134"/>
    <path id="path16" fill="#ffffff" stroke="none" d="M 142 136 L 142 136 C 140.895996 136 140 135.104004 140 134 L 140 126 C 140 124.895996 140.895996 124 142 124 C 143.104004 124 144 124.895996 144 126 L 144 134 C 144 135.104004 143.104004 136 142 136"/>
    <path id="path17" fill="#ffffff" stroke="none" d="M 148 134 C 148 135.104004 145.313004 136 142 136 C 138.686996 136 136 135.104004 136 134 C 136 132.895996 138.686996 132 142 132 C 145.313004 132 148 132.895996 148 134"/>
    <path id="path18" fill="#ffffff" stroke="none" d="M 148 84 L 140 84 L 140 88 L 148 88 L 148 92 L 140 92 L 140 96 L 148 96 L 148 100 L 140 100 L 140 104 L 148 104 L 152 104 L 152 100 L 152 96 L 152 92 L 152 88 L 152 84 Z"/>
    <path id="path19" fill="#ffffff" stroke="none" d="M 168 92 L 164 92 L 164 88 L 160 88 L 160 92 L 156 92 L 156 96 L 160 96 L 160 100 L 164 100 L 164 96 L 168 96 Z"/>
</svg>
