<?xml version="1.0" encoding="UTF-8"?>
<!-- Generated by Pixelmator Pro 3.7.1 -->
<svg width="256" height="256" viewBox="0 0 256 256" xmlns="http://www.w3.org/2000/svg">
    <path id="Path" fill="#ffffff" stroke="none" d="M 240 40 L 16 40 L 12 40 L 12 44 L 12 96 L 12 100 L 12 104 L 12 124 L 12 128 L 12 188 L 12 192 L 12 196 L 12 216 L 12 220 L 16 220 L 24 220 L 32 220 L 240 220 L 244 220 L 244 216 L 244 96 L 244 92 L 244 44 L 244 40 Z M 240 92 L 240 96 L 240 216 L 32 216 L 24 216 L 16 216 L 16 196 L 24 196 L 24 188 L 16 188 L 16 184 L 24 184 L 24 180 L 16 180 L 16 176 L 24 176 L 24 172 L 16 172 L 16 168 L 24 168 L 24 164 L 16 164 L 16 160 L 24 160 L 24 156 L 16 156 L 16 152 L 24 152 L 24 148 L 16 148 L 16 144 L 24 144 L 24 140 L 16 140 L 16 136 L 24 136 L 24 132 L 16 132 L 16 128 L 24 128 L 24 124 L 16 124 L 16 120 L 24 120 L 24 116 L 16 116 L 16 112 L 24 112 L 24 108 L 16 108 L 16 104 L 24 104 L 24 96 L 16 96 L 16 44 L 240 44 Z"/>
    <path id="path1" fill="#ffffff" stroke="none" d="M 22 208 C 20.896 208 20 208.895996 20 210 C 20 211.104004 20.896 212 22 212 C 23.104 212 24 211.104004 24 210 C 24 208.895996 23.104 208 22 208"/>
    <path id="path2" fill="#ffffff" stroke="none" d="M 22 52 C 23.104 52 24 51.104004 24 50 C 24 48.895996 23.104 48 22 48 C 20.896 48 20 48.895996 20 50 C 20 51.104004 20.896 52 22 52"/>
    <path id="path3" fill="#ffffff" stroke="none" d="M 234 208 C 232.895996 208 232 208.895996 232 210 C 232 211.104004 232.895996 212 234 212 C 235.104004 212 236 211.104004 236 210 C 236 208.895996 235.104004 208 234 208"/>
    <path id="path4" fill="#ffffff" stroke="none" d="M 234 52 C 235.104004 52 236 51.104004 236 50 C 236 48.895996 235.104004 48 234 48 C 232.895996 48 232 48.895996 232 50 C 232 51.104004 232.895996 52 234 52"/>
    <path id="path5" fill="#ffffff" stroke="none" d="M 64 68 L 64 76 L 64 80 L 68 80 L 68 84 L 68 96 L 68 100 L 72 100 L 88 100 L 92 100 L 100 100 L 104 100 L 104 96 L 104 80 L 108 80 L 108 76 L 108 68 L 112 68 L 116 68 L 116 64 L 116 56 L 116 52 L 112 52 L 72 52 L 68 52 L 68 56 L 68 64 L 64 64 Z M 88 96 L 72 96 L 72 84 L 88 84 Z M 100 96 L 92 96 L 92 84 L 92 80 L 100 80 Z M 72 56 L 112 56 L 112 64 L 108 64 L 104 64 L 72 64 Z M 68 68 L 72 68 L 104 68 L 104 76 L 100 76 L 92 76 L 88 76 L 68 76 Z"/>
    <path id="path6" fill="#ffffff" stroke="none" d="M 20 76 C 20 80.410995 23.589001 84 28 84 C 32.410999 84 36 80.410995 36 76 C 36 73.610001 34.941002 71.466995 33.274002 70 C 34.941002 68.533005 36 66.389999 36 64 C 36 59.589005 32.410999 56 28 56 C 23.589001 56 20 59.589005 20 64 C 20 66.389999 21.059 68.533005 22.726 70 C 21.059 71.466995 20 73.610001 20 76 M 24 64 C 24 61.791 25.791 60 28 60 C 30.209 60 32 61.791 32 64 C 32 66.209 30.209 68 28 68 C 25.791 68 24 66.209 24 64 M 32 76 C 32 78.209 30.209 80 28 80 C 25.791 80 24 78.209 24 76 C 24 73.791 25.791 72 28 72 C 30.209 72 32 73.791 32 76"/>
    <path id="path7" fill="#ffffff" stroke="none" d="M 38.726101 82 C 37.059101 83.466995 36.000099 85.610001 36.000099 88 C 36.000099 92.410995 39.5891 96 44.000099 96 C 48.411102 96 52.000099 92.410995 52.000099 88 C 52.000099 85.610001 50.941101 83.466995 49.274101 82 C 50.941101 80.533005 52.000099 78.389999 52.000099 76 C 52.000099 71.589005 48.411102 68 44.000099 68 C 39.5891 68 36.000099 71.589005 36.000099 76 C 36.000099 78.389999 37.059101 80.533005 38.726101 82 M 48.000099 88 C 48.000099 90.209 46.209099 92 44.000099 92 C 41.7911 92 40.000099 90.209 40.000099 88 C 40.000099 85.791 41.7911 84 44.000099 84 C 46.209099 84 48.000099 85.791 48.000099 88 M 44.000099 72 C 46.209099 72 48.000099 73.791 48.000099 76 C 48.000099 78.209 46.209099 80 44.000099 80 C 41.7911 80 40.000099 78.209 40.000099 76 C 40.000099 73.791 41.7911 72 44.000099 72"/>
    <path id="path8" fill="#ffffff" stroke="none" d="M 38 60 C 39.104 60 40 59.104004 40 58 C 40 56.895996 39.104 56 38 56 C 36.896 56 36 56.895996 36 58 C 36 59.104004 36.896 60 38 60"/>
    <path id="path9" fill="#ffffff" stroke="none" d="M 46 60 C 47.104 60 48 59.104004 48 58 C 48 56.895996 47.104 56 46 56 C 44.896 56 44 56.895996 44 58 C 44 59.104004 44.896 60 46 60"/>
    <path id="path10" fill="#ffffff" stroke="none" d="M 54 60 C 55.104 60 56 59.104004 56 58 C 56 56.895996 55.104 56 54 56 C 52.896 56 52 56.895996 52 58 C 52 59.104004 52.896 60 54 60"/>
    <path id="path11" fill="#ffffff" stroke="none" d="M 62 56 C 63.104 56 64 55.104004 64 54 C 64 52.895996 63.104 52 62 52 C 60.896 52 60 52.895996 60 54 C 60 55.104004 60.896 56 62 56"/>
    <path id="path12" fill="#ffffff" stroke="none" d="M 164 64 L 140 64 L 140 68 L 164 68 Z"/>
    <path id="path13" fill="#ffffff" stroke="none" d="M 164 76 L 140 76 L 140 80 L 164 80 Z"/>
    <path id="path14" fill="#ffffff" stroke="none" d="M 112 80 L 136 80 L 136 76 L 112 76 Z"/>
    <path id="path15" fill="#ffffff" stroke="none" d="M 108 88 L 128 88 L 128 84 L 108 84 Z"/>
    <path id="path16" fill="#ffffff" stroke="none" d="M 144 84 L 132 84 L 132 88 L 144 88 Z"/>
    <path id="path17" fill="#ffffff" stroke="none" d="M 164 84 L 148 84 L 148 88 L 164 88 Z"/>
    <path id="path18" fill="#ffffff" stroke="none" d="M 108 96 L 132 96 L 132 92 L 108 92 Z"/>
    <path id="path19" fill="#ffffff" stroke="none" d="M 64 96 L 48 96 L 48 100 L 64 100 Z"/>
    <path id="path20" fill="#ffffff" stroke="none" d="M 32 100 L 44 100 L 44 96 L 32 96 Z"/>
    <path id="path21" fill="#ffffff" stroke="none" d="M 204 188 L 208 188 L 216 188 L 220 188 L 228 188 L 232 188 L 232 184 L 232 172 L 232 168 L 232 132 L 232 128 L 232 92 L 232 88 L 232 56 L 232 52 L 228 52 L 220 52 L 216 52 L 208 52 L 204 52 L 204 56 L 184 56 L 180 56 L 180 60 L 180 80 L 180 84 L 184 84 L 204 84 L 204 88 L 184 88 L 180 88 L 180 92 L 180 112 L 180 116 L 184 116 L 204 116 L 204 128 L 184 128 L 180 128 L 180 132 L 180 152 L 180 156 L 184 156 L 204 156 L 204 160 L 184 160 L 180 160 L 180 164 L 180 184 L 180 188 L 184 188 Z M 216 184 L 208 184 L 208 172 L 216 172 Z M 228 184 L 220 184 L 220 172 L 228 172 Z M 228 168 L 220 168 L 220 132 L 228 132 Z M 228 128 L 220 128 L 220 92 L 228 92 Z M 220 56 L 228 56 L 228 88 L 220 88 Z M 184 60 L 204 60 L 204 80 L 184 80 Z M 208 84 L 208 80 L 208 60 L 208 56 L 216 56 L 216 88 L 208 88 Z M 184 92 L 204 92 L 204 112 L 184 112 Z M 208 116 L 208 112 L 208 92 L 216 92 L 216 128 L 208 128 Z M 184 132 L 204 132 L 204 152 L 184 152 Z M 208 156 L 208 152 L 208 132 L 216 132 L 216 168 L 208 168 L 208 164 L 208 160 Z M 184 164 L 204 164 L 204 168 L 204 172 L 204 184 L 184 184 Z"/>
    <path id="path22" fill="#ffffff" stroke="none" d="M 168 156 L 168 148 L 168 144 L 164 144 L 136 144 L 132 144 L 104 144 L 100 144 L 100 148 L 100 156 L 100 160 L 104 160 L 132 160 L 136 160 L 164 160 L 168 160 Z M 132 156 L 104 156 L 104 148 L 132 148 Z M 164 156 L 136 156 L 136 148 L 164 148 Z"/>
    <path id="path23" fill="#ffffff" stroke="none" d="M 200 48 L 184 48 L 184 52 L 200 52 Z"/>
    <path id="path24" fill="#ffffff" stroke="none" d="M 32 128 L 28 128 L 28 132 L 28 140 L 28 144 L 28 152 L 28 156 L 28 164 L 28 168 L 28 176 L 28 180 L 28 184 L 28 192 L 28 196 L 32 196 L 52 196 L 56 196 L 56 192 L 56 184 L 56 180 L 52 180 L 52 176 L 52 168 L 56 168 L 56 164 L 56 156 L 56 152 L 52 152 L 52 144 L 56 144 L 56 140 L 56 132 L 56 128 L 52 128 Z M 52 192 L 32 192 L 32 184 L 52 184 Z M 48 176 L 32 176 L 32 168 L 48 168 Z M 52 164 L 48 164 L 32 164 L 32 156 L 48 156 L 52 156 Z M 48 152 L 32 152 L 32 144 L 48 144 Z M 52 140 L 48 140 L 32 140 L 32 132 L 52 132 Z"/>
    <path id="path25" fill="#ffffff" stroke="none" d="M 28 204 L 56 204 L 56 200 L 28 200 Z"/>
    <path id="path26" fill="#ffffff" stroke="none" d="M 28 212 L 56 212 L 56 208 L 28 208 Z"/>
    <path id="path27" fill="#ffffff" stroke="none" d="M 60 136 L 76 136 L 76 132 L 60 132 Z"/>
    <path id="path28" fill="#ffffff" stroke="none" d="M 96 132 L 80 132 L 80 136 L 96 136 Z"/>
    <path id="path29" fill="#ffffff" stroke="none" d="M 60 144 L 76 144 L 76 140 L 60 140 Z"/>
    <path id="path30" fill="#ffffff" stroke="none" d="M 80 144 L 96 144 L 96 140 L 80 140 Z"/>
    <path id="path31" fill="#ffffff" stroke="none" d="M 60 152 L 76 152 L 76 148 L 60 148 Z"/>
    <path id="path32" fill="#ffffff" stroke="none" d="M 80 152 L 96 152 L 96 148 L 80 148 Z"/>
    <path id="path33" fill="#ffffff" stroke="none" d="M 60 160 L 76 160 L 76 156 L 60 156 Z"/>
    <path id="path34" fill="#ffffff" stroke="none" d="M 80 160 L 96 160 L 96 156 L 80 156 Z"/>
    <path id="path35" fill="#ffffff" stroke="none" d="M 60 168 L 76 168 L 76 164 L 60 164 Z"/>
    <path id="path36" fill="#ffffff" stroke="none" d="M 80 168 L 104 168 L 104 164 L 80 164 Z"/>
    <path id="path37" fill="#ffffff" stroke="none" d="M 60 176 L 76 176 L 76 172 L 60 172 Z"/>
    <path id="path38" fill="#ffffff" stroke="none" d="M 60 184 L 76 184 L 76 180 L 60 180 Z"/>
    <path id="path39" fill="#ffffff" stroke="none" d="M 60 192 L 76 192 L 76 188 L 60 188 Z"/>
    <path id="path40" fill="#ffffff" stroke="none" d="M 60 200 L 76 200 L 76 196 L 60 196 Z"/>
    <path id="path41" fill="#ffffff" stroke="none" d="M 60 208 L 76 208 L 76 204 L 60 204 Z"/>
    <path id="path42" fill="#ffffff" stroke="none" d="M 80 184 L 96 184 L 96 180 L 80 180 Z"/>
    <path id="path43" fill="#ffffff" stroke="none" d="M 80 192 L 96 192 L 96 188 L 80 188 Z"/>
    <path id="path44" fill="#ffffff" stroke="none" d="M 80 200 L 96 200 L 96 196 L 80 196 Z"/>
    <path id="path45" fill="#ffffff" stroke="none" d="M 80 208 L 96 208 L 96 204 L 80 204 Z"/>
    <path id="path46" fill="#ffffff" stroke="none" d="M 100 184 L 112 184 L 112 180 L 100 180 Z"/>
    <path id="path47" fill="#ffffff" stroke="none" d="M 100 192 L 112 192 L 112 188 L 100 188 Z"/>
    <path id="path48" fill="#ffffff" stroke="none" d="M 100 200 L 112 200 L 112 196 L 100 196 Z"/>
    <path id="path49" fill="#ffffff" stroke="none" d="M 100 208 L 112 208 L 112 204 L 100 204 Z"/>
    <path id="path50" fill="#ffffff" stroke="none" d="M 116 184 L 128 184 L 128 180 L 116 180 Z"/>
    <path id="path51" fill="#ffffff" stroke="none" d="M 116 192 L 128 192 L 128 188 L 116 188 Z"/>
    <path id="path52" fill="#ffffff" stroke="none" d="M 116 200 L 128 200 L 128 196 L 116 196 Z"/>
    <path id="path53" fill="#ffffff" stroke="none" d="M 116 208 L 128 208 L 128 204 L 116 204 Z"/>
    <path id="path54" fill="#ffffff" stroke="none" d="M 80 176 L 104 176 L 104 172 L 80 172 Z"/>
    <path id="path55" fill="#ffffff" stroke="none" d="M 124 164 L 108 164 L 108 168 L 124 168 Z"/>
    <path id="path56" fill="#ffffff" stroke="none" d="M 108 176 L 124 176 L 124 172 L 108 172 Z"/>
    <path id="path57" fill="#ffffff" stroke="none" d="M 144 164 L 132 164 L 132 168 L 144 168 Z"/>
    <path id="path58" fill="#ffffff" stroke="none" d="M 132 176 L 144 176 L 144 172 L 132 172 Z"/>
    <path id="path59" fill="#ffffff" stroke="none" d="M 132 184 L 144 184 L 144 180 L 132 180 Z"/>
    <path id="path60" fill="#ffffff" stroke="none" d="M 132 192 L 144 192 L 144 188 L 132 188 Z"/>
    <path id="path61" fill="#ffffff" stroke="none" d="M 132 200 L 144 200 L 144 196 L 132 196 Z"/>
    <path id="path62" fill="#ffffff" stroke="none" d="M 132 208 L 144 208 L 144 204 L 132 204 Z"/>
    <path id="path63" fill="#ffffff" stroke="none" d="M 152 168 L 168 168 L 168 164 L 152 164 Z"/>
    <path id="path64" fill="#ffffff" stroke="none" d="M 152 176 L 168 176 L 168 172 L 152 172 Z"/>
    <path id="path65" fill="#ffffff" stroke="none" d="M 152 184 L 168 184 L 168 180 L 152 180 Z"/>
    <path id="path66" fill="#ffffff" stroke="none" d="M 44 112 C 44 107.589005 40.410999 104 36 104 C 31.589001 104 28 107.589005 28 112 C 28 116.410995 31.589001 120 36 120 C 40.410999 120 44 116.410995 44 112 M 32 112 C 32 109.791 33.791 108 36 108 C 38.209 108 40 109.791 40 112 C 40 114.209 38.209 116 36 116 C 33.791 116 32 114.209 32 112"/>
    <path id="path67" fill="#ffffff" stroke="none" d="M 164 120 L 168 120 L 168 116 L 168 100 L 168 96 L 164 96 L 148 96 L 148 92 L 136 92 L 136 96 L 140 96 L 140 100 L 140 104 L 80 104 L 76 104 L 52 104 L 48 104 L 48 108 L 48 116 L 48 120 L 52 120 L 76 120 L 76 124 L 76 128 L 80 128 L 100 128 L 100 136 L 100 140 L 104 140 L 136 140 L 140 140 L 168 140 L 172 140 L 172 136 L 172 128 L 172 124 L 168 124 L 144 124 L 144 120 Z M 144 100 L 164 100 L 164 116 L 144 116 L 144 108 L 144 104 Z M 52 108 L 76 108 L 76 116 L 52 116 Z M 136 136 L 104 136 L 104 128 L 136 128 Z M 168 128 L 168 136 L 140 136 L 140 128 L 144 128 Z M 140 124 L 136 124 L 104 124 L 100 124 L 80 124 L 80 120 L 80 116 L 80 108 L 140 108 L 140 116 L 140 120 Z"/>
    <path id="path68" fill="#ffffff" stroke="none" d="M 148 196 L 156 196 L 156 200 L 152 200 L 148 204 L 148 212 L 152 212 L 160 212 L 160 208 L 152 208 L 152 204 L 156 204 L 160 204 L 160 196 L 160 192 L 152 192 Z"/>
    <path id="path69" fill="#ffffff" stroke="none" d="M 168 192 L 164 196 L 164 212 L 168 212 L 172 212 L 176 208 L 176 192 L 172 192 Z M 168 196 L 172 196 L 172 208 L 168 208 Z"/>
    <path id="path70" fill="#ffffff" stroke="none" d="M 188 208 L 188 192 L 184 192 L 180 196 L 184 196 L 184 208 L 180 212 L 184 212 L 188 212 L 192 208 Z"/>
    <path id="path71" fill="#ffffff" stroke="none" d="M 232 196 L 212 196 L 216 192 L 236 192 Z"/>
    <path id="path72" fill="#ffffff" stroke="none" d="M 228 204 L 212 204 L 216 200 L 232 200 Z"/>
    <path id="path73" fill="#ffffff" stroke="none" d="M 224 212 L 212 212 L 216 208 L 228 208 Z"/>
    <path id="path74" fill="#ffffff" stroke="none" d="M 204 196 L 208 192 L 200 192 L 196 196 L 196 204 L 204 204 L 204 208 L 200 208 L 196 212 L 204 212 L 208 208 L 208 200 L 204 200 L 200 200 L 200 196 Z"/>
</svg>
