<?xml version="1.0" encoding="UTF-8"?>
<!-- Generated by Pixelmator Pro 3.7.1 -->
<svg width="256" height="256" viewBox="0 0 256 256" xmlns="http://www.w3.org/2000/svg">
    <path id="Path" fill="#ffffff" stroke="none" d="M 84 172 L 140 172 L 140 228 L 84 228 Z M 84 232 L 140 232 C 142.209 232 144 230.209 144 228 L 144 172 C 144 169.791 142.209 168 140 168 L 84 168 C 81.791 168 80 169.791 80 172 L 80 228 C 80 230.209 81.791 232 84 232"/>
    <path id="path1" fill="#ffffff" stroke="none" d="M 152 180 L 172 180 L 172 196 L 152 196 Z M 152 200 L 172 200 C 174.209 200 176 198.209 176 196 L 176 180 C 176 177.791 174.209 176 172 176 L 152 176 C 149.791 176 148 177.791 148 180 L 148 196 C 148 198.209 149.791 200 152 200"/>
    <path id="path2" fill="#ffffff" stroke="none" d="M 152 208 L 172 208 L 172 228 L 152 228 Z M 152 232 L 172 232 C 174.209 232 176 230.209 176 228 L 176 208 C 176 205.791 174.209 204 172 204 L 152 204 C 149.791 204 148 205.791 148 208 L 148 228 C 148 230.209 149.791 232 152 232"/>
    <path id="path3" fill="#ffffff" stroke="none" d="M 180 44 L 76 44 L 76 32 C 76 29.794006 77.793999 28 80 28 L 176 28 C 178.205994 28 180 29.794006 180 32 Z M 176 24 L 80 24 C 75.582001 24 72 27.582001 72 32 L 72 48 L 184 48 L 184 32 C 184 27.582001 180.417999 24 176 24"/>
    <path id="path4" fill="#ffffff" stroke="none" d="M 80 64 C 77.793999 64 76 62.205994 76 60 C 76 57.794006 77.793999 56 80 56 C 82.206001 56 84 57.794006 84 60 C 84 62.205994 82.206001 64 80 64 M 80 52 C 75.582001 52 72 55.582001 72 60 C 72 64.417999 75.582001 68 80 68 C 84.417999 68 88 64.417999 88 60 C 88 55.582001 84.417999 52 80 52"/>
    <path id="path5" fill="#ffffff" stroke="none" d="M 176 64 C 173.794006 64 172 62.205994 172 60 C 172 57.794006 173.794006 56 176 56 C 178.205994 56 180 57.794006 180 60 C 180 62.205994 178.205994 64 176 64 M 176 52 C 171.582001 52 168 55.582001 168 60 C 168 64.417999 171.582001 68 176 68 C 180.417999 68 184 64.417999 184 60 C 184 55.582001 180.417999 52 176 52"/>
    <path id="path6" fill="#ffffff" stroke="none" d="M 114 176 C 112.896004 176 112 176.895996 112 178 C 112 179.104004 112.896004 180 114 180 C 115.103996 180 116 179.104004 116 178 C 116 176.895996 115.103996 176 114 176"/>
    <path id="path7" fill="#ffffff" stroke="none" d="M 158 188 C 156.895996 188 156 188.895996 156 190 C 156 191.104004 156.895996 192 158 192 C 159.104004 192 160 191.104004 160 190 C 160 188.895996 159.104004 188 158 188"/>
    <path id="path8" fill="#ffffff" stroke="none" d="M 158 212 C 156.895996 212 156 212.895996 156 214 C 156 215.104004 156.895996 216 158 216 C 159.104004 216 160 215.104004 160 214 C 160 212.895996 159.104004 212 158 212"/>
    <path id="path9" fill="#ffffff" stroke="none" d="M 188 140 L 188 144 L 188 148 C 188 152.411011 184.410995 156 180 156 L 76 156 C 71.588997 156 68 152.411011 68 148 L 68 144 L 68 140 L 68 32 C 68 25.382996 73.383003 20 80 20 L 176 20 C 182.617004 20 188 25.382996 188 32 Z M 180 236 L 76 236 L 76 160 L 180 160 Z M 176 16 L 80 16 C 71.178001 16 64 23.178009 64 32 L 64 148 C 64 153.212997 67.347 157.647003 72 159.300003 L 72 236 L 72 240 L 76 240 L 180 240 L 184 240 L 184 159.300003 C 188.653 157.647003 192 153.212997 192 148 L 192 32 C 192 23.178009 184.822006 16 176 16"/>
    <path id="path10" fill="#ffffff" stroke="none" d="M 180 72 L 76 72 L 76 124 L 180 124 Z M 176 120 L 80 120 L 80 76 L 176 76 Z"/>
    <path id="path11" fill="#ffffff" stroke="none" d="M 114 133 C 114 133.553009 113.103996 134 112 134 C 110.895996 134 110 133.553009 110 133 C 110 132.446991 110.895996 132 112 132 C 113.103996 132 114 132.446991 114 133"/>
    <path id="path12" fill="#ffffff" stroke="none" d="M 120 131 C 120 131.553009 119.103996 132 118 132 C 116.895996 132 116 131.553009 116 131 C 116 130.446991 116.895996 130 118 130 C 119.103996 130 120 130.446991 120 131"/>
    <path id="path13" fill="#ffffff" stroke="none" d="M 88 131 C 88 131.553009 87.103996 132 86 132 C 84.895996 132 84 131.553009 84 131 C 84 130.446991 84.895996 130 86 130 C 87.103996 130 88 130.446991 88 131"/>
    <path id="path14" fill="#ffffff" stroke="none" d="M 108 135 C 108 135.553009 107.103996 136 106 136 C 104.895996 136 104 135.553009 104 135 C 104 134.446991 104.895996 134 106 134 C 107.103996 134 108 134.446991 108 135"/>
    <path id="path15" fill="#ffffff" stroke="none" d="M 114 137 C 114 137.553009 113.103996 138 112 138 C 110.895996 138 110 137.553009 110 137 C 110 136.446991 110.895996 136 112 136 C 113.103996 136 114 136.446991 114 137"/>
    <path id="path16" fill="#ffffff" stroke="none" d="M 120 135 C 120 135.553009 119.103996 136 118 136 C 116.895996 136 116 135.553009 116 135 C 116 134.446991 116.895996 134 118 134 C 119.103996 134 120 134.446991 120 135"/>
    <path id="path17" fill="#ffffff" stroke="none" d="M 108 139 C 108 139.553009 107.103996 140 106 140 C 104.895996 140 104 139.553009 104 139 C 104 138.446991 104.895996 138 106 138 C 107.103996 138 108 138.446991 108 139"/>
    <path id="path18" fill="#ffffff" stroke="none" d="M 100 138 C 100 139.104004 97.313004 140 94 140 C 90.686996 140 88 139.104004 88 138 C 88 136.895996 90.686996 136 94 136 C 97.313004 136 100 136.895996 100 138"/>
    <path id="path19" fill="#ffffff" stroke="none" d="M 94 140 L 94 140 C 92.896004 140 92 139.104004 92 138 L 92 130 C 92 128.895996 92.896004 128 94 128 C 95.103996 128 96 128.895996 96 130 L 96 138 C 96 139.104004 95.103996 140 94 140"/>
    <path id="path20" fill="#ffffff" stroke="none" d="M 162 133 C 162 133.553009 161.104004 134 160 134 C 158.895996 134 158 133.553009 158 133 C 158 132.446991 158.895996 132 160 132 C 161.104004 132 162 132.446991 162 133"/>
    <path id="path21" fill="#ffffff" stroke="none" d="M 168 131 C 168 131.553009 167.104004 132 166 132 C 164.895996 132 164 131.553009 164 131 C 164 130.446991 164.895996 130 166 130 C 167.104004 130 168 130.446991 168 131"/>
    <path id="path22" fill="#ffffff" stroke="none" d="M 136 131 C 136 131.553009 135.104004 132 134 132 C 132.895996 132 132 131.553009 132 131 C 132 130.446991 132.895996 130 134 130 C 135.104004 130 136 130.446991 136 131"/>
    <path id="path23" fill="#ffffff" stroke="none" d="M 156 135 C 156 135.553009 155.104004 136 154 136 C 152.895996 136 152 135.553009 152 135 C 152 134.446991 152.895996 134 154 134 C 155.104004 134 156 134.446991 156 135"/>
    <path id="path24" fill="#ffffff" stroke="none" d="M 162 137 C 162 137.553009 161.104004 138 160 138 C 158.895996 138 158 137.553009 158 137 C 158 136.446991 158.895996 136 160 136 C 161.104004 136 162 136.446991 162 137"/>
    <path id="path25" fill="#ffffff" stroke="none" d="M 168 135 C 168 135.553009 167.104004 136 166 136 C 164.895996 136 164 135.553009 164 135 C 164 134.446991 164.895996 134 166 134 C 167.104004 134 168 134.446991 168 135"/>
    <path id="path26" fill="#ffffff" stroke="none" d="M 156 139 C 156 139.553009 155.104004 140 154 140 C 152.895996 140 152 139.553009 152 139 C 152 138.446991 152.895996 138 154 138 C 155.104004 138 156 138.446991 156 139"/>
    <path id="path27" fill="#ffffff" stroke="none" d="M 148 138 C 148 139.104004 145.313004 140 142 140 C 138.686996 140 136 139.104004 136 138 C 136 136.895996 138.686996 136 142 136 C 145.313004 136 148 136.895996 148 138"/>
    <path id="path28" fill="#ffffff" stroke="none" d="M 142 140 L 142 140 C 140.895996 140 140 139.104004 140 138 L 140 130 C 140 128.895996 140.895996 128 142 128 C 143.104004 128 144 128.895996 144 130 L 144 138 C 144 139.104004 143.104004 140 142 140"/>
    <path id="path29" fill="#ffffff" stroke="none" d="M 188 148 L 68 148 L 68 144 L 188 144 Z"/>
    <path id="path30" fill="#ffffff" stroke="none" d="M 76 124 L 68 144 L 72 144 L 80 124 Z"/>
    <path id="path31" fill="#ffffff" stroke="none" d="M 176 124 L 184 144 L 188 144 L 180 124 Z"/>
    <path id="path32" fill="#ffffff" stroke="none" d="M 84 92 L 92 92 L 92 96 L 88 96 L 84 100 L 84 108 L 88 108 L 96 108 L 96 104 L 88 104 L 88 100 L 92 100 L 96 100 L 96 92 L 96 88 L 88 88 Z"/>
    <path id="path33" fill="#ffffff" stroke="none" d="M 136 92 L 140 92 L 140 104 L 136 104 Z M 136 88 L 132 92 L 132 108 L 136 108 L 140 108 L 144 104 L 144 88 L 140 88 Z"/>
    <path id="path34" fill="#ffffff" stroke="none" d="M 104 92 L 108 92 L 108 104 L 104 104 Z M 104 88 L 100 92 L 100 108 L 104 108 L 108 108 L 112 104 L 112 88 L 108 88 Z"/>
    <path id="path35" fill="#ffffff" stroke="none" d="M 124 104 L 124 88 L 120 88 L 116 92 L 120 92 L 120 104 L 116 108 L 120 108 L 124 108 L 128 104 Z"/>
    <path id="path36" fill="#ffffff" stroke="none" d="M 168 92 L 148 92 L 152 88 L 172 88 Z"/>
    <path id="path37" fill="#ffffff" stroke="none" d="M 164 100 L 148 100 L 152 96 L 168 96 Z"/>
    <path id="path38" fill="#ffffff" stroke="none" d="M 160 108 L 148 108 L 152 104 L 164 104 Z"/>
</svg>
