<?xml version="1.0" encoding="UTF-8"?>
<!-- Generated by Pixelmator Pro 3.7.1 -->
<svg width="256" height="256" viewBox="0 0 256 256" xmlns="http://www.w3.org/2000/svg">
    <path id="Path" fill="#ffffff" stroke="none" d="M 244 192 C 244 194.209 242.209 196 240 196 L 16 196 C 13.791 196 12 194.209 12 192 L 12 68 C 12 65.791 13.791 64 16 64 L 16 72 L 16 76 L 16 80 L 16 84 L 16 88 L 16 92 L 16 96 L 16 100 L 16 104 L 16 108 L 16 112 L 16 116 L 16 120 L 16 124 L 16 176 L 16 180 L 16 180.944 L 16.421997 181.789001 L 20.421997 189.789001 L 21.528 192 L 24 192 L 97.528 192 L 100 192 L 156 192 L 158.472 192 L 165.528 192 L 168 192 L 224 192 L 226.472 192 L 232 192 L 234.472992 192 L 235.578003 189.789001 L 239.578003 181.789001 L 240 180.944 L 240 180 L 240 176 L 240 64 C 242.209 64 244 65.791 244 68 Z M 231.578003 181.789001 L 232.472 180 L 236 180 L 232 188 L 228.472 188 Z M 164.235992 180.472 L 164.472 180 L 228 180 L 224 188 L 168 188 Z M 162 184.944 L 163.528 188 L 160.472 188 Z M 160 176 L 157.528 176 L 96 176 L 96 72 L 160 72 Z M 228 176 L 166.472 176 L 164 176 L 164 72 L 228 72 Z M 96 180 L 159.528 180 L 159.764008 180.472 L 156 188 L 100 188 Z M 92.421997 181.789001 L 95.528 188 L 24 188 L 20 180 L 91.528 180 Z M 236 64 L 236 176 L 234.472 176 L 232 176 L 232 72 L 232 68 L 228 68 L 164 68 L 160 68 L 96 68 L 92 68 L 92 72 L 92 176 L 89.528 176 L 20 176 L 20 124 L 76 124 L 76 120 L 20 120 L 20 116 L 76 116 L 76 112 L 20 112 L 20 108 L 76 108 L 76 104 L 20 104 L 20 100 L 76 100 L 76 96 L 20 96 L 20 92 L 76 92 L 76 88 L 20 88 L 20 84 L 76 84 L 76 80 L 20 80 L 20 76 L 76 76 L 76 72 L 20 72 L 20 64 Z M 240 60 L 238 60 L 18 60 L 16 60 C 11.589005 60 8 63.589005 8 68 L 8 192 C 8 196.410995 11.589005 200 16 200 L 240 200 C 244.410995 200 248 196.410995 248 192 L 248 68 C 248 63.589005 244.410995 60 240 60"/>
    <path id="path1" fill="#ffffff" stroke="none" d="M 60 168 L 28 168 L 28 148 L 60 148 Z M 28 144 L 24 144 L 24 148 L 24 168 L 24 172 L 28 172 L 60 172 L 64 172 L 64 168 L 64 148 L 64 144 L 60 144 Z"/>
    <path id="path2" fill="#ffffff" stroke="none" d="M 70 160 C 68.896004 160 68 160.895996 68 162 C 68 163.104004 68.896004 164 70 164 C 71.103996 164 72 163.104004 72 162 C 72 160.895996 71.103996 160 70 160"/>
    <path id="path3" fill="#ffffff" stroke="none" d="M 128 136 C 136.837006 136 144 143.162994 144 152 C 144 160.837006 136.837006 168 128 168 C 119.164001 168 112 160.837006 112 152 C 112 143.162994 119.164001 136 128 136 M 108 152 C 108 163.028 116.972 172 128 172 C 139.028 172 148 163.028 148 152 C 148 140.972 139.028 132 128 132 C 116.972 132 108 140.972 108 152"/>
    <path id="path4" fill="#ffffff" stroke="none" d="M 126 128 C 124.896004 128 124 127.104004 124 126 L 124 122 C 124 120.895996 124.896004 120 126 120 L 130 120 C 131.104004 120 132 120.895996 132 122 L 132 126 C 132 127.104004 131.104004 128 130 128 Z M 118 128 L 114 128 C 112.895996 128 112 127.104004 112 126 L 112 122 C 112 120.895996 112.895996 120 114 120 L 118 120 C 119.104004 120 120 120.895996 120 122 L 120 126 C 120 127.104004 119.104004 128 118 128 M 112 86 C 112 84.895996 112.895996 84 114 84 L 118 84 C 119.104004 84 120 84.895996 120 86 L 120 90 C 120 91.104004 119.104004 92 118 92 L 114 92 C 112.895996 92 112 91.104004 112 90 Z M 126 84 L 130 84 C 131.104004 84 132 84.895996 132 86 L 132 90 C 132 91.104004 131.104004 92 130 92 L 126 92 C 124.896004 92 124 91.104004 124 90 L 124 86 C 124 84.895996 124.896004 84 126 84 M 138 84 L 142 84 C 143.104004 84 144 84.895996 144 86 L 144 90 C 144 91.104004 143.104004 92 142 92 L 138 92 C 136.895996 92 136 91.104004 136 90 L 136 86 C 136 84.895996 136.895996 84 138 84 M 144 126 C 144 127.104004 143.104004 128 142 128 L 138 128 C 136.895996 128 136 127.104004 136 126 L 136 122 C 136 120.895996 136.895996 120 138 120 L 142 120 C 143.104004 120 144 120.895996 144 122 Z M 124 114 L 124 110 C 124 108.895996 124.896004 108 126 108 L 130 108 C 131.104004 108 132 108.895996 132 110 L 132 114 C 132 115.104004 131.104004 116 130 116 L 126 116 C 124.896004 116 124 115.104004 124 114 M 132 98 L 132 102 C 132 103.104004 131.104004 104 130 104 L 126 104 C 124.896004 104 124 103.104004 124 102 L 124 98 C 124 96.895996 124.896004 96 126 96 L 130 96 C 131.104004 96 132 96.895996 132 98 M 144 110 L 144 114 C 144 115.104004 143.104004 116 142 116 L 138 116 C 136.895996 116 136 115.104004 136 114 L 136 110 C 136 108.895996 136.895996 108 138 108 L 142 108 C 143.104004 108 144 108.895996 144 110 M 144 98 L 144 102 C 144 103.104004 143.104004 104 142 104 L 138 104 C 136.895996 104 136 103.104004 136 102 L 136 98 C 136 96.895996 136.895996 96 138 96 L 142 96 C 143.104004 96 144 96.895996 144 98 M 112 102 L 112 98 C 112 96.895996 112.895996 96 114 96 L 118 96 C 119.104004 96 120 96.895996 120 98 L 120 102 C 120 103.104004 119.104004 104 118 104 L 114 104 C 112.895996 104 112 103.104004 112 102 M 112 114 L 112 110 C 112 108.895996 112.895996 108 114 108 L 118 108 C 119.104004 108 120 108.895996 120 110 L 120 114 C 120 115.104004 119.104004 116 118 116 L 114 116 C 112.895996 116 112 115.104004 112 114 M 134 130.459 C 135.063004 131.414001 136.462997 132 138 132 L 142 132 C 145.309006 132 148 129.30899 148 126 L 148 122 C 148 120.462006 147.414001 119.063004 146.459 118 C 147.414001 116.936996 148 115.537994 148 114 L 148 110 C 148 108.462006 147.414001 107.063004 146.459 106 C 147.414001 104.936996 148 103.537994 148 102 L 148 98 C 148 96.462006 147.414001 95.063004 146.459 94 C 147.414001 92.936996 148 91.537994 148 90 L 148 86 C 148 82.69101 145.309006 80 142 80 L 138 80 C 136.462997 80 135.063004 80.585999 134 81.541 C 132.936996 80.585999 131.537003 80 130 80 L 126 80 C 124.461998 80 123.063004 80.585999 122 81.541 C 120.936996 80.585999 119.538002 80 118 80 L 114 80 C 110.691002 80 108 82.69101 108 86 L 108 90 C 108 91.537994 108.585999 92.936996 109.541 94 C 108.585999 95.063004 108 96.462006 108 98 L 108 102 C 108 103.537994 108.585999 104.936996 109.541 106 C 108.585999 107.063004 108 108.462006 108 110 L 108 114 C 108 115.537994 108.585999 116.936996 109.541 118 C 108.585999 119.063004 108 120.462006 108 122 L 108 126 C 108 129.30899 110.691002 132 114 132 L 118 132 C 119.538002 132 120.936996 131.414001 122 130.459 C 123.063004 131.414001 124.461998 132 126 132 L 128 132 L 130 132 C 131.537003 132 132.936996 131.414001 134 130.459"/>
    <path id="path5" fill="#ffffff" stroke="none" d="M 194 128 C 192.895996 128 192 127.104004 192 126 L 192 122 C 192 120.895996 192.895996 120 194 120 L 198 120 C 199.104004 120 200 120.895996 200 122 L 200 126 C 200 127.104004 199.104004 128 198 128 Z M 186 128 L 182 128 C 180.895996 128 180 127.104004 180 126 L 180 122 C 180 120.895996 180.895996 120 182 120 L 186 120 C 187.104004 120 188 120.895996 188 122 L 188 126 C 188 127.104004 187.104004 128 186 128 M 180 86 C 180 84.895996 180.895996 84 182 84 L 186 84 C 187.104004 84 188 84.895996 188 86 L 188 90 C 188 91.104004 187.104004 92 186 92 L 182 92 C 180.895996 92 180 91.104004 180 90 Z M 194 84 L 198 84 C 199.104004 84 200 84.895996 200 86 L 200 90 C 200 91.104004 199.104004 92 198 92 L 194 92 C 192.895996 92 192 91.104004 192 90 L 192 86 C 192 84.895996 192.895996 84 194 84 M 206 84 L 210 84 C 211.104004 84 212 84.895996 212 86 L 212 90 C 212 91.104004 211.104004 92 210 92 L 206 92 C 204.895996 92 204 91.104004 204 90 L 204 86 C 204 84.895996 204.895996 84 206 84 M 212 126 C 212 127.104004 211.104004 128 210 128 L 206 128 C 204.895996 128 204 127.104004 204 126 L 204 122 C 204 120.895996 204.895996 120 206 120 L 210 120 C 211.104004 120 212 120.895996 212 122 Z M 192 114 L 192 110 C 192 108.895996 192.895996 108 194 108 L 198 108 C 199.104004 108 200 108.895996 200 110 L 200 114 C 200 115.104004 199.104004 116 198 116 L 194 116 C 192.895996 116 192 115.104004 192 114 M 200 98 L 200 102 C 200 103.104004 199.104004 104 198 104 L 194 104 C 192.895996 104 192 103.104004 192 102 L 192 98 C 192 96.895996 192.895996 96 194 96 L 198 96 C 199.104004 96 200 96.895996 200 98 M 212 110 L 212 114 C 212 115.104004 211.104004 116 210 116 L 206 116 C 204.895996 116 204 115.104004 204 114 L 204 110 C 204 108.895996 204.895996 108 206 108 L 210 108 C 211.104004 108 212 108.895996 212 110 M 212 98 L 212 102 C 212 103.104004 211.104004 104 210 104 L 206 104 C 204.895996 104 204 103.104004 204 102 L 204 98 C 204 96.895996 204.895996 96 206 96 L 210 96 C 211.104004 96 212 96.895996 212 98 M 180 102 L 180 98 C 180 96.895996 180.895996 96 182 96 L 186 96 C 187.104004 96 188 96.895996 188 98 L 188 102 C 188 103.104004 187.104004 104 186 104 L 182 104 C 180.895996 104 180 103.104004 180 102 M 180 114 L 180 110 C 180 108.895996 180.895996 108 182 108 L 186 108 C 187.104004 108 188 108.895996 188 110 L 188 114 C 188 115.104004 187.104004 116 186 116 L 182 116 C 180.895996 116 180 115.104004 180 114 M 202 130.459 C 203.063004 131.414001 204.462997 132 206 132 L 210 132 C 213.309006 132 216 129.30899 216 126 L 216 122 C 216 120.462006 215.414001 119.063004 214.459 118 C 215.414001 116.936996 216 115.537994 216 114 L 216 110 C 216 108.462006 215.414001 107.063004 214.459 106 C 215.414001 104.936996 216 103.537994 216 102 L 216 98 C 216 96.462006 215.414001 95.063004 214.459 94 C 215.414001 92.936996 216 91.537994 216 90 L 216 86 C 216 82.69101 213.309006 80 210 80 L 206 80 C 204.462997 80 203.063004 80.585999 202 81.541 C 200.936996 80.585999 199.537003 80 198 80 L 194 80 C 192.462997 80 191.061996 80.585999 190 81.541 C 188.938004 80.585999 187.537003 80 186 80 L 182 80 C 178.690994 80 176 82.69101 176 86 L 176 90 C 176 91.537994 176.585999 92.936996 177.541 94 C 176.585999 95.063004 176 96.462006 176 98 L 176 102 C 176 103.537994 176.585999 104.936996 177.541 106 C 176.585999 107.063004 176 108.462006 176 110 L 176 114 C 176 115.537994 176.585999 116.936996 177.541 118 C 176.585999 119.063004 176 120.462006 176 122 L 176 126 C 176 129.30899 178.690994 132 182 132 L 186 132 C 187.537003 132 188.938004 131.414001 190 130.459 C 191.061996 131.414001 192.462997 132 194 132 L 196 132 L 198 132 C 199.537003 132 200.936996 131.414001 202 130.459"/>
    <path id="path6" fill="#ffffff" stroke="none" d="M 196 136 C 204.837006 136 212 143.162994 212 152 C 212 160.837006 204.837006 168 196 168 C 187.162994 168 180 160.837006 180 152 C 180 143.162994 187.162994 136 196 136 M 176 152 C 176 163.028 184.972 172 196 172 C 207.028 172 216 163.028 216 152 C 216 140.972 207.028 132 196 132 C 184.972 132 176 140.972 176 152"/>
</svg>
