<?xml version="1.0" encoding="UTF-8"?>
<!-- Generated by Pixelmator Pro 3.7.1 -->
<svg width="256" height="256" viewBox="0 0 256 256" xmlns="http://www.w3.org/2000/svg">
    <path id="Path" fill="#ffffff" stroke="none" d="M 244 128 L 244 192 C 244 192 216 196 128 196 C 40 196 12 192 12 192 L 12 128 L 12 64 C 12 64 40 60 128 60 C 216 60 244 64 244 64 Z M 244.565002 60.040009 C 243.410995 59.875 215.281006 56 128 56 C 40.718994 56 12.589005 59.875 11.434998 60.040009 L 8 60.531006 L 8 64 L 8 192 L 8 195.468994 L 11.434998 195.959991 C 12.589005 196.125 40.718994 200 128 200 C 215.281006 200 243.410995 196.125 244.565002 195.959991 L 248 195.468994 L 248 192 L 248 64 L 248 60.531006 Z"/>
    <path id="path1" fill="#ffffff" stroke="none" d="M 176 168 L 176 172 C 176 176.411011 179.589005 180 184 180 L 28 180 C 25.800003 180 24 178.199997 24 176 L 24 164 C 24 161.800003 25.800003 160 28 160 L 184 160 C 179.589005 160 176 163.588989 176 168 M 184 176 C 181.791 176 180 174.209 180 172 L 180 168 C 180 165.791 181.791 164 184 164 L 196 164 C 198.209 164 200 165.791 200 168 L 200 172 C 200 174.209 198.209 176 196 176 Z M 216 160 C 211.589005 160 208 163.588989 208 168 L 208 172 C 208 176.411011 211.589005 180 216 180 L 196 180 C 200.410995 180 204 176.411011 204 172 L 204 168 C 204 163.588989 200.410995 160 196 160 Z M 220 176 L 216 176 C 213.791 176 212 174.209 212 172 L 212 168 C 212 165.791 213.791 164 216 164 L 220 164 Z M 232 168 L 232 172 C 232 174.209 230.209 176 228 176 L 224 176 L 224 164 L 228 164 C 230.209 164 232 165.791 232 168 M 20 164 L 20 176 C 20 180.411011 23.589005 184 28 184 L 228 184 C 232.410995 184 236 180.411011 236 176 L 236 172 L 236 168 L 236 164 C 236 159.588989 232.410995 156 228 156 L 28 156 C 23.589005 156 20 159.588989 20 164"/>
    <path id="path2" fill="#ffffff" stroke="none" d="M 108 124 C 109.099998 124 110 123.100006 110 122 L 110 110 C 110 108.899994 109.099998 108 108 108 C 106.900002 108 106 108.899994 106 110 L 106 122 C 106 123.100006 106.900002 124 108 124"/>
    <path id="path3" fill="#ffffff" stroke="none" d="M 116 124 C 117.099998 124 118 123.100006 118 122 L 118 110 C 118 108.899994 117.099998 108 116 108 C 114.900002 108 114 108.899994 114 110 L 114 122 C 114 123.100006 114.900002 124 116 124"/>
    <path id="path4" fill="#ffffff" stroke="none" d="M 124 124 C 125.099998 124 126 123.100006 126 122 L 126 110 C 126 108.899994 125.099998 108 124 108 C 122.900002 108 122 108.899994 122 110 L 122 122 C 122 123.100006 122.900002 124 124 124"/>
    <path id="path5" fill="#ffffff" stroke="none" d="M 132 124 C 133.100006 124 134 123.100006 134 122 L 134 110 C 134 108.899994 133.100006 108 132 108 C 130.899994 108 130 108.899994 130 110 L 130 122 C 130 123.100006 130.899994 124 132 124"/>
    <path id="path6" fill="#ffffff" stroke="none" d="M 140 124 C 141.100006 124 142 123.100006 142 122 L 142 110 C 142 108.899994 141.100006 108 140 108 C 138.899994 108 138 108.899994 138 110 L 138 122 C 138 123.100006 138.899994 124 140 124"/>
    <path id="path7" fill="#ffffff" stroke="none" d="M 148 124 C 149.100006 124 150 123.100006 150 122 L 150 110 C 150 108.899994 149.100006 108 148 108 C 146.899994 108 146 108.899994 146 110 L 146 122 C 146 123.100006 146.899994 124 148 124"/>
    <path id="path8" fill="#ffffff" stroke="none" d="M 106 146 C 106 147.100006 106.900002 148 108 148 C 109.099998 148 110 147.100006 110 146 L 110 134 C 110 132.899994 109.099998 132 108 132 C 106.900002 132 106 132.899994 106 134 Z"/>
    <path id="path9" fill="#ffffff" stroke="none" d="M 114 146 C 114 147.100006 114.900002 148 116 148 C 117.099998 148 118 147.100006 118 146 L 118 134 C 118 132.899994 117.099998 132 116 132 C 114.900002 132 114 132.899994 114 134 Z"/>
    <path id="path10" fill="#ffffff" stroke="none" d="M 122 146 C 122 147.100006 122.900002 148 124 148 C 125.099998 148 126 147.100006 126 146 L 126 134 C 126 132.899994 125.099998 132 124 132 C 122.900002 132 122 132.899994 122 134 Z"/>
    <path id="path11" fill="#ffffff" stroke="none" d="M 130 146 C 130 147.100006 130.899994 148 132 148 C 133.100006 148 134 147.100006 134 146 L 134 134 C 134 132.899994 133.100006 132 132 132 C 130.899994 132 130 132.899994 130 134 Z"/>
    <path id="path12" fill="#ffffff" stroke="none" d="M 138 146 C 138 147.100006 138.899994 148 140 148 C 141.100006 148 142 147.100006 142 146 L 142 134 C 142 132.899994 141.100006 132 140 132 C 138.899994 132 138 132.899994 138 134 Z"/>
    <path id="path13" fill="#ffffff" stroke="none" d="M 146 146 C 146 147.100006 146.899994 148 148 148 C 149.100006 148 150 147.100006 150 146 L 150 134 C 150 132.899994 149.100006 132 148 132 C 146.899994 132 146 132.899994 146 134 Z"/>
    <path id="path14" fill="#ffffff" stroke="none" d="M 28 116 C 34.626999 116 40 121.373001 40 128 C 40 134.626999 34.626999 140 28 140 C 21.373001 140 16 134.626999 16 128 C 16 121.373001 21.373001 116 28 116 M 28 144 C 36.821999 144 44 136.821991 44 128 C 44 119.177994 36.821999 112 28 112 C 19.178001 112 12 119.177994 12 128 C 12 136.821991 19.178001 144 28 144"/>
    <path id="path15" fill="#ffffff" stroke="none" d="M 228 140 C 221.373001 140 216 134.626999 216 128 C 216 121.373001 221.373001 116 228 116 C 234.626999 116 240 121.373001 240 128 C 240 134.626999 234.626999 140 228 140 M 228 112 C 219.177994 112 212 119.177994 212 128 C 212 136.821991 219.177994 144 228 144 C 236.822006 144 244 136.821991 244 128 C 244 119.177994 236.822006 112 228 112"/>
    <path id="path16" fill="#ffffff" stroke="none" d="M 48 114 C 48 112.895996 48.896 112 50 112 L 54 112 C 55.104 112 56 112.895996 56 114 L 56 118 C 56 119.104004 55.104 120 54 120 L 50 120 C 48.896 120 48 119.104004 48 118 Z M 62 112 L 66 112 C 67.104004 112 68 112.895996 68 114 L 68 118 C 68 119.104004 67.104004 120 66 120 L 62 120 C 60.896 120 60 119.104004 60 118 L 60 114 C 60 112.895996 60.896 112 62 112 M 74 112 L 78 112 C 79.104004 112 80 112.895996 80 114 L 80 118 C 80 119.104004 79.104004 120 78 120 L 74 120 C 72.895996 120 72 119.104004 72 118 L 72 114 C 72 112.895996 72.895996 112 74 112 M 86 112 L 90 112 C 91.104004 112 92 112.895996 92 114 L 92 118 C 92 119.104004 91.104004 120 90 120 L 86 120 C 84.895996 120 84 119.104004 84 118 L 84 114 C 84 112.895996 84.895996 112 86 112 M 92 142 C 92 143.104004 91.104004 144 90 144 L 86 144 C 84.895996 144 84 143.104004 84 142 L 84 138 C 84 136.895996 84.895996 136 86 136 L 90 136 C 91.104004 136 92 136.895996 92 138 Z M 78 144 L 74 144 C 72.895996 144 72 143.104004 72 142 L 72 138 C 72 136.895996 72.895996 136 74 136 L 78 136 C 79.104004 136 80 136.895996 80 138 L 80 142 C 80 143.104004 79.104004 144 78 144 M 66 144 L 62 144 C 60.896 144 60 143.104004 60 142 L 60 138 C 60 136.895996 60.896 136 62 136 L 66 136 C 67.104004 136 68 136.895996 68 138 L 68 142 C 68 143.104004 67.104004 144 66 144 M 54 144 L 50 144 C 48.896 144 48 143.104004 48 142 L 48 138 C 48 136.895996 48.896 136 50 136 L 54 136 C 55.104 136 56 136.895996 56 138 L 56 142 C 56 143.104004 55.104 144 54 144 M 68 126 L 68 130 C 68 131.104004 67.104004 132 66 132 L 62 132 C 60.896 132 60 131.104004 60 130 L 60 126 C 60 124.895996 60.896 124 62 124 L 66 124 C 67.104004 124 68 124.895996 68 126 M 80 126 L 80 130 C 80 131.104004 79.104004 132 78 132 L 74 132 C 72.895996 132 72 131.104004 72 130 L 72 126 C 72 124.895996 72.895996 124 74 124 L 78 124 C 79.104004 124 80 124.895996 80 126 M 92 126 L 92 130 C 92 131.104004 91.104004 132 90 132 L 86 132 C 84.895996 132 84 131.104004 84 130 L 84 126 C 84 124.895996 84.895996 124 86 124 L 90 124 C 91.104004 124 92 124.895996 92 126 M 48 130 L 48 126 C 48 124.895996 48.896 124 50 124 L 54 124 C 55.104 124 56 124.895996 56 126 L 56 130 C 56 131.104004 55.104 132 54 132 L 50 132 C 48.896 132 48 131.104004 48 130 M 45.541 134 C 44.585999 135.061996 44 136.462997 44 138 L 44 142 C 44 145.30899 46.691002 148 50 148 L 54 148 C 55.538002 148 56.937 147.414001 58 146.459 C 59.063 147.414001 60.461998 148 62 148 L 66 148 C 67.538002 148 68.936996 147.414001 70 146.459 C 71.063004 147.414001 72.461998 148 74 148 L 78 148 C 79.538002 148 80.936996 147.414001 82 146.459 C 83.063004 147.414001 84.462006 148 86 148 L 90 148 C 93.308998 148 96 145.30899 96 142 L 96 138 C 96 136.462997 95.414001 135.061996 94.459 134 C 95.414001 132.936996 96 131.537003 96 130 L 96 126 C 96 124.462006 95.414001 123.063004 94.459 122 C 95.414001 120.936996 96 119.537994 96 118 L 96 114 C 96 110.690994 93.308998 108 90 108 L 86 108 C 84.462006 108 83.063004 108.585999 82 109.541 C 80.936996 108.585999 79.538002 108 78 108 L 74 108 C 72.461998 108 71.063004 108.585999 70 109.541 C 68.936996 108.585999 67.538002 108 66 108 L 62 108 C 60.461998 108 59.063 108.585999 58 109.541 C 56.937 108.585999 55.538002 108 54 108 L 50 108 C 46.691002 108 44 110.690994 44 114 L 44 118 C 44 119.537994 44.585999 120.936996 45.541 122 C 44.585999 123.063004 44 124.462006 44 126 L 44 128 L 44 130 C 44 131.537003 44.585999 132.936996 45.541 134"/>
    <path id="path17" fill="#ffffff" stroke="none" d="M 208 142 C 208 143.104004 207.104004 144 206 144 L 202 144 C 200.895996 144 200 143.104004 200 142 L 200 138 C 200 136.895996 200.895996 136 202 136 L 206 136 C 207.104004 136 208 136.895996 208 138 Z M 194 144 L 190 144 C 188.895996 144 188 143.104004 188 142 L 188 138 C 188 136.895996 188.895996 136 190 136 L 194 136 C 195.104004 136 196 136.895996 196 138 L 196 142 C 196 143.104004 195.104004 144 194 144 M 182 144 L 178 144 C 176.895996 144 176 143.104004 176 142 L 176 138 C 176 136.895996 176.895996 136 178 136 L 182 136 C 183.104004 136 184 136.895996 184 138 L 184 142 C 184 143.104004 183.104004 144 182 144 M 170 144 L 166 144 C 164.895996 144 164 143.104004 164 142 L 164 138 C 164 136.895996 164.895996 136 166 136 L 170 136 C 171.104004 136 172 136.895996 172 138 L 172 142 C 172 143.104004 171.104004 144 170 144 M 164 114 C 164 112.895996 164.895996 112 166 112 L 170 112 C 171.104004 112 172 112.895996 172 114 L 172 118 C 172 119.104004 171.104004 120 170 120 L 166 120 C 164.895996 120 164 119.104004 164 118 Z M 178 112 L 182 112 C 183.104004 112 184 112.895996 184 114 L 184 118 C 184 119.104004 183.104004 120 182 120 L 178 120 C 176.895996 120 176 119.104004 176 118 L 176 114 C 176 112.895996 176.895996 112 178 112 M 190 112 L 194 112 C 195.104004 112 196 112.895996 196 114 L 196 118 C 196 119.104004 195.104004 120 194 120 L 190 120 C 188.895996 120 188 119.104004 188 118 L 188 114 C 188 112.895996 188.895996 112 190 112 M 202 112 L 206 112 C 207.104004 112 208 112.895996 208 114 L 208 118 C 208 119.104004 207.104004 120 206 120 L 202 120 C 200.895996 120 200 119.104004 200 118 L 200 114 C 200 112.895996 200.895996 112 202 112 M 188 130 L 188 126 C 188 124.895996 188.895996 124 190 124 L 194 124 C 195.104004 124 196 124.895996 196 126 L 196 130 C 196 131.104004 195.104004 132 194 132 L 190 132 C 188.895996 132 188 131.104004 188 130 M 176 130 L 176 126 C 176 124.895996 176.895996 124 178 124 L 182 124 C 183.104004 124 184 124.895996 184 126 L 184 130 C 184 131.104004 183.104004 132 182 132 L 178 132 C 176.895996 132 176 131.104004 176 130 M 164 130 L 164 126 C 164 124.895996 164.895996 124 166 124 L 170 124 C 171.104004 124 172 124.895996 172 126 L 172 130 C 172 131.104004 171.104004 132 170 132 L 166 132 C 164.895996 132 164 131.104004 164 130 M 208 126 L 208 130 C 208 131.104004 207.104004 132 206 132 L 202 132 C 200.895996 132 200 131.104004 200 130 L 200 126 C 200 124.895996 200.895996 124 202 124 L 206 124 C 207.104004 124 208 124.895996 208 126 M 210.459 122 C 211.414001 120.936996 212 119.537994 212 118 L 212 114 C 212 110.690994 209.309006 108 206 108 L 202 108 C 200.462997 108 199.061996 108.585999 198 109.541 C 196.936996 108.585999 195.537003 108 194 108 L 190 108 C 188.462997 108 187.063004 108.585999 186 109.541 C 184.938004 108.585999 183.537003 108 182 108 L 178 108 C 176.462997 108 175.061996 108.585999 174 109.541 C 172.936996 108.585999 171.537003 108 170 108 L 166 108 C 162.69101 108 160 110.690994 160 114 L 160 118 C 160 119.537994 160.585999 120.936996 161.541 122 C 160.585999 123.063004 160 124.462006 160 126 L 160 130 C 160 131.537003 160.585999 132.936996 161.541 134 C 160.585999 135.063004 160 136.462997 160 138 L 160 142 C 160 145.30899 162.69101 148 166 148 L 170 148 C 171.537003 148 172.936996 147.414001 174 146.459 C 175.061996 147.414001 176.462997 148 178 148 L 182 148 C 183.537003 148 184.938004 147.414001 186 146.459 C 187.063004 147.414001 188.462997 148 190 148 L 194 148 C 195.537003 148 196.936996 147.414001 198 146.459 C 199.061996 147.414001 200.462997 148 202 148 L 206 148 C 209.309006 148 212 145.30899 212 142 L 212 138 C 212 136.462997 211.414001 135.063004 210.459 134 C 211.414001 132.936996 212 131.537003 212 130 L 212 128 L 212 126 C 212 124.462006 211.414001 123.063004 210.459 122"/>
    <path id="path18" fill="#ffffff" stroke="none" d="M 232 80 L 232 92 C 232 94.199997 230.199997 96 228 96 L 28 96 C 25.800003 96 24 94.199997 24 92 L 24 80 C 24 77.800003 25.800003 76 28 76 L 228 76 C 230.199997 76 232 77.800003 232 80 M 20 80 L 20 92 C 20 96.410995 23.589005 100 28 100 L 228 100 C 232.410995 100 236 96.410995 236 92 L 236 80 C 236 75.589005 232.410995 72 228 72 L 28 72 C 23.589005 72 20 75.589005 20 80"/>
</svg>
