<?xml version="1.0" encoding="UTF-8"?>
<!-- Generated by Pixelmator Pro 3.7.1 -->
<svg width="256" height="256" viewBox="0 0 256 256" xmlns="http://www.w3.org/2000/svg">
    <path id="Path" fill="#ffffff" stroke="none" d="M 226 80 C 224.895996 80 224 79.104004 224 78 C 224 76.895996 224.895996 76 226 76 C 227.104004 76 228 76.895996 228 78 C 228 79.104004 227.104004 80 226 80 M 226 72 C 222.690994 72 220 74.690994 220 78 C 220 81.309006 222.690994 84 226 84 C 229.309006 84 232 81.309006 232 78 C 232 74.690994 229.309006 72 226 72"/>
    <path id="path1" fill="#ffffff" stroke="none" d="M 96 154 C 96 154.553009 95.149002 160 94.098999 160 C 93.049004 160 92.196999 154.553009 92.196999 154 L 92.196999 102 C 92.196999 101.447998 93.049004 96 94.098999 96 C 95.149002 96 96 101.447998 96 102 Z M 94.098999 92 C 90.273003 92 89.25 96.255997 88.864998 97.858002 C 88.543999 99.192993 88.196999 101.156998 88.196999 102 L 88.196999 154 C 88.196999 154.843994 88.543999 156.807007 88.864998 158.143005 C 89.25 159.744003 90.273003 164 94.098999 164 C 97.924004 164 98.946999 159.744003 99.332001 158.143005 C 99.653 156.807007 100 154.843994 100 154 L 100 102 C 100 101.156998 99.653 99.192993 99.332001 97.858002 C 98.946999 96.255997 97.924004 92 94.098999 92"/>
    <path id="path2" fill="#ffffff" stroke="none" d="M 71.802696 154 C 71.802696 154.553009 70.951698 160 69.901703 160 C 68.8507 160 67.999702 154.553009 67.999702 154 L 67.999702 102 C 67.999702 101.447998 68.8507 96 69.901703 96 C 70.951698 96 71.802696 101.447998 71.802696 102 Z M 69.901703 92 C 66.075699 92 65.052696 96.255997 64.667702 97.858002 C 64.346703 99.192993 63.999699 101.156998 63.999699 102 L 63.999699 154 C 63.999699 154.843994 64.346703 156.807007 64.667702 158.143005 C 65.052696 159.744003 66.075699 164 69.901703 164 C 73.7267 164 74.749702 159.744003 75.134697 158.143005 C 75.455704 156.807007 75.802696 154.843994 75.802696 154 L 75.802696 102 C 75.802696 101.156998 75.455704 99.192993 75.134697 97.858002 C 74.749702 96.255997 73.7267 92 69.901703 92"/>
    <path id="path3" fill="#ffffff" stroke="none" d="M 47.8027 154 C 47.8027 154.553009 46.951698 160 45.901699 160 C 44.8507 160 43.999699 154.553009 43.999699 154 L 43.999699 102 C 43.999699 101.447998 44.8507 96 45.901699 96 C 46.951698 96 47.8027 101.447998 47.8027 102 Z M 45.901699 92 C 42.075699 92 41.0527 96.255997 40.667698 97.858002 C 40.346699 99.192993 39.999699 101.156998 39.999699 102 L 39.999699 154 C 39.999699 154.843994 40.346699 156.807007 40.667698 158.143005 C 41.0527 159.744003 42.075699 164 45.901699 164 C 49.7267 164 50.749699 159.744003 51.134701 158.143005 C 51.4557 156.807007 51.8027 154.843994 51.8027 154 L 51.8027 102 C 51.8027 101.156998 51.4557 99.192993 51.134701 97.858002 C 50.749699 96.255997 49.7267 92 45.901699 92"/>
    <path id="path4" fill="#ffffff" stroke="none" d="M 226 180 C 224.895996 180 224 179.104004 224 178 C 224 176.895996 224.895996 176 226 176 C 227.104004 176 228 176.895996 228 178 C 228 179.104004 227.104004 180 226 180 M 226 172 C 222.690994 172 220 174.69101 220 178 C 220 181.30899 222.690994 184 226 184 C 229.309006 184 232 181.30899 232 178 C 232 174.69101 229.309006 172 226 172"/>
    <path id="path5" fill="#ffffff" stroke="none" d="M 30 80 C 28.896 80 28 79.104004 28 78 C 28 76.895996 28.896 76 30 76 C 31.104 76 32 76.895996 32 78 C 32 79.104004 31.104 80 30 80 M 30 72 C 26.691 72 24 74.690994 24 78 C 24 81.309006 26.691 84 30 84 C 33.308998 84 36 81.309006 36 78 C 36 74.690994 33.308998 72 30 72"/>
    <path id="path6" fill="#ffffff" stroke="none" d="M 184 132 C 181.794006 132 180 130.205994 180 128 C 180 125.794006 181.794006 124 184 124 C 186.205994 124 188 125.794006 188 128 C 188 130.205994 186.205994 132 184 132 M 184 120 C 179.582001 120 176 123.582001 176 128 C 176 132.417999 179.582001 136 184 136 C 188.417999 136 192 132.417999 192 128 C 192 123.582001 188.417999 120 184 120"/>
    <path id="path7" fill="#ffffff" stroke="none" d="M 176.693405 113.774399 C 176.471405 113.888397 176.254395 114.007401 176.0354 114.132401 C 175.829407 114.252396 175.626404 114.375397 175.426407 114.502396 C 175.220398 114.633408 175.016403 114.766403 174.817398 114.906403 C 174.615402 115.048401 174.420395 115.197403 174.226395 115.346405 L 174.158401 115.399399 C 173.996399 115.524399 173.835403 115.649399 173.676407 115.783401 C 173.488403 115.943405 173.306396 116.110397 173.126404 116.280396 L 173.080399 116.322403 L 173.002396 116.394394 C 172.873398 116.512405 172.745407 116.630402 172.621399 116.756393 C 172.2854 117.095398 171.969406 117.443405 171.681396 117.790405 C 171.592407 117.898407 171.507401 118.009399 171.414398 118.136398 C 171.206406 118.402405 171.000397 118.671402 170.808395 118.950394 C 170.7164 119.083405 170.631393 119.220398 170.546402 119.357407 L 170.493393 119.441406 C 170.337402 119.689407 170.182404 119.937393 170.039398 120.192398 C 169.951401 120.349396 169.8694 120.508408 169.787399 120.669403 L 169.752396 120.738403 C 169.622406 120.993393 169.497406 121.250397 169.381393 121.511398 C 169.296402 121.701401 169.2164 121.893402 169.139404 122.088394 C 169.032394 122.357407 168.932404 122.630402 168.839401 122.905396 C 168.774399 123.101395 168.711395 123.297394 168.652405 123.496399 C 168.567398 123.786407 168.493393 124.081406 168.423401 124.378403 L 168.403397 124.467407 C 168.365402 124.628403 168.3284 124.790405 168.296402 124.956406 C 168.232407 125.286407 168.183395 125.623398 168.140396 125.961395 L 168.130402 126.027405 C 168.110397 126.170395 168.090393 126.314407 168.077393 126.460403 C 168.025406 126.998398 168.000397 127.502396 168.000397 128.000397 C 168.000397 128.497406 168.025406 129.001404 168.077393 129.540405 C 168.090393 129.685394 168.110397 129.830399 168.130402 129.973389 L 168.140396 130.040405 C 168.183395 130.378403 168.232407 130.713409 168.297394 131.04541 C 168.3284 131.209396 168.365402 131.371399 168.403397 131.53241 L 168.423401 131.622406 C 168.493393 131.919403 168.567398 132.213409 168.652405 132.504395 C 168.711395 132.7034 168.774399 132.898407 168.839401 133.093399 C 168.932404 133.370392 169.032394 133.642395 169.139404 133.912399 C 169.2164 134.105408 169.296402 134.297394 169.380402 134.486389 C 169.496399 134.74939 169.622406 135.006409 169.754395 135.264404 L 169.790405 135.335403 C 169.870407 135.4944 169.952393 135.652405 170.038406 135.805389 C 170.181396 136.062408 170.337402 136.311401 170.496399 136.562408 L 170.547394 136.644409 C 170.631393 136.781403 170.717407 136.918396 170.807404 137.047394 C 170.999405 137.326401 171.204407 137.594391 171.424393 137.877411 C 171.507401 137.990402 171.592407 138.102402 171.681396 138.209396 C 171.968399 138.554398 172.2854 138.903397 172.622406 139.245392 C 172.745407 139.3694 172.873398 139.488403 173.002396 139.605408 L 173.079407 139.676392 L 173.126404 139.719391 C 173.306396 139.888397 173.488403 140.056396 173.678406 140.217407 C 173.833405 140.348389 173.993393 140.473389 174.154404 140.597397 L 174.224396 140.652405 C 174.420395 140.802399 174.616394 140.952393 174.819397 141.094391 C 175.017395 141.234406 175.220398 141.367401 175.4254 141.497406 C 175.627396 141.625397 175.830399 141.74939 176.037399 141.868408 C 176.253403 141.992401 176.471405 142.111389 176.693405 142.225403 C 176.807404 142.2854 176.923401 142.3414 177.041397 142.3974 L 176.838394 143.413391 C 170.961395 140.674408 167.000397 134.705399 167.000397 128.000397 C 167.000397 121.295395 170.961395 115.325394 176.838394 112.586395 L 177.041397 113.602402 C 176.924393 113.657394 176.808395 113.714401 176.693405 113.774399 M 184.000397 111.000397 C 182.859406 111.000397 181.745407 111.117401 180.666397 111.332397 L 179.881393 107.4104 C 170.268402 109.330399 163.000397 117.830399 163.000397 128.000397 C 163.000397 138.17041 170.268402 146.67041 179.881393 148.588409 L 180.666397 144.668396 C 181.745407 144.882401 182.859406 145.000397 184.000397 145.000397 C 187.822403 145.000397 191.3414 143.7164 194.184402 141.579407 L 191.192398 137.589401 C 189.186401 139.096405 186.702393 140.000397 184.000397 140.000397 C 183.194397 140.000397 182.408401 139.918396 181.646393 139.766403 C 181.459396 139.728394 181.276398 139.676392 181.0914 139.629395 C 180.915405 139.586395 180.737396 139.54541 180.5634 139.4944 C 180.379395 139.439392 180.200394 139.373398 180.019394 139.309402 C 179.851395 139.251404 179.684402 139.19339 179.520401 139.127411 C 179.344406 139.055389 179.172394 138.977402 179.000397 138.898407 C 178.839401 138.824402 178.679398 138.74939 178.523407 138.669403 C 178.3564 138.583405 178.193405 138.493408 178.031403 138.400391 C 177.876404 138.311401 177.723404 138.217407 177.572403 138.122406 C 177.419403 138.024399 177.265396 137.924408 177.117401 137.820404 C 176.964401 137.713409 176.818405 137.60141 176.672394 137.488403 C 176.533401 137.380402 176.393402 137.275391 176.259399 137.162399 C 176.105392 137.03241 175.959396 136.893402 175.811401 136.754395 C 175.696396 136.6474 175.577393 136.544403 175.465393 136.431396 C 175.220398 136.183411 174.984406 135.924408 174.760406 135.655396 C 174.690399 135.570404 174.628403 135.478394 174.560394 135.392395 C 174.404404 135.19339 174.249405 134.993408 174.105392 134.783401 C 174.0224 134.664398 173.949402 134.539398 173.871399 134.416397 C 173.753403 134.230408 173.636398 134.044403 173.528397 133.85141 C 173.4534 133.717407 173.384399 133.580399 173.315399 133.44339 C 173.217407 133.253403 173.123398 133.059402 173.0354 132.862396 C 172.972397 132.720398 172.913406 132.577393 172.855392 132.432404 C 172.775406 132.230408 172.701401 132.026398 172.631393 131.819397 C 172.582397 131.673401 172.534393 131.527405 172.490402 131.378403 C 172.426407 131.161407 172.372406 130.940399 172.320404 130.717407 C 172.287399 130.574402 172.252396 130.431396 172.223404 130.286407 C 172.1754 130.038391 172.140396 129.786407 172.108398 129.533401 C 172.092407 129.408401 172.070404 129.2854 172.058395 129.158401 C 172.021393 128.776398 172.000397 128.391403 172.000397 128.000397 C 172.000397 127.608398 172.021393 127.223404 172.058395 126.8414 C 172.070404 126.715393 172.092407 126.592407 172.108398 126.467407 C 172.140396 126.214401 172.1754 125.962402 172.223404 125.713394 C 172.252396 125.568405 172.287399 125.4254 172.320404 125.282394 C 172.372406 125.059402 172.426407 124.838394 172.490402 124.621399 C 172.534393 124.472397 172.582397 124.326401 172.631393 124.180405 C 172.701401 123.973404 172.775406 123.769394 172.855392 123.567398 C 172.913406 123.422394 172.972397 123.278397 173.0354 123.136398 C 173.123398 122.940399 173.217407 122.747406 173.315399 122.556396 C 173.384399 122.419403 173.4534 122.281403 173.528397 122.148407 C 173.635406 121.956406 173.753403 121.770401 173.871399 121.585403 C 173.949402 121.461395 174.0224 121.336395 174.105392 121.215393 C 174.249405 121.006393 174.404404 120.805405 174.561401 120.6064 C 174.629395 120.520401 174.690399 120.429398 174.759399 120.344406 C 174.983398 120.075394 175.220398 119.816406 175.465393 119.567398 C 175.577393 119.456406 175.696396 119.352402 175.811401 119.2444 C 175.959396 119.107407 176.105392 118.967407 176.259399 118.837402 C 176.393402 118.724396 176.533401 118.6194 176.672394 118.511398 C 176.818405 118.399399 176.964401 118.286407 177.116394 118.179398 C 177.265396 118.074402 177.419403 117.975403 177.573395 117.877396 C 177.723404 117.781403 177.876404 117.689407 178.030396 117.600403 C 178.192398 117.506393 178.3564 117.417404 178.523407 117.331406 C 178.679398 117.251404 178.839401 117.1754 178.999405 117.101395 C 179.172394 117.0224 179.344406 116.943405 179.521393 116.872406 C 179.684402 116.806396 179.851395 116.749405 180.018402 116.690399 C 180.199402 116.627396 180.379395 116.560394 180.5634 116.505402 C 180.737396 116.4534 180.915405 116.414398 181.0914 116.3694 C 181.276398 116.323395 181.459396 116.271393 181.646393 116.233398 C 182.408401 116.082397 183.194397 116.000397 184.000397 116.000397 C 186.702393 116.000397 189.186401 116.903397 191.192398 118.4104 L 194.184402 114.420395 C 191.3414 112.283401 187.822403 111.000397 184.000397 111.000397"/>
    <path id="path8" fill="#ffffff" stroke="none" d="M 199.110397 122.733398 L 215.980408 111.487396 C 218.6194 116.573395 220.000397 122.211395 220.000397 128.000397 C 220.000397 133.789398 218.6194 139.426392 215.980408 144.51239 L 199.110397 133.266403 C 199.697403 131.586395 200.000397 129.809402 200.000397 128.000397 C 200.000397 126.190399 199.697403 124.414398 199.110397 122.733398 M 196.000397 128.000397 C 196.000397 130.462402 195.256393 132.751404 193.983398 134.655396 L 217.268402 150.178406 C 221.516403 143.827393 224.000397 136.199402 224.000397 128.000397 C 224.000397 119.801407 221.516403 112.172394 217.268402 105.821396 L 193.983398 121.344406 C 195.256393 123.249405 196.000397 125.537399 196.000397 128.000397"/>
    <path id="path9" fill="#ffffff" stroke="none" d="M 158.004898 117.602097 L 154.298904 116.120102 C 153.166901 118.940094 152.420898 121.9561 152.137894 125.103104 L 156.118896 125.465103 C 156.366898 122.709106 157.017899 120.070099 158.004898 117.602097"/>
    <path id="path10" fill="#ffffff" stroke="none" d="M 157.392593 110.261703 L 160.708603 112.472702 C 165.7276 104.954697 174.282593 99.999695 183.999603 99.999695 C 189.746597 99.999695 195.086594 101.733704 199.531601 104.702698 L 201.743607 101.385696 C 196.662598 97.986694 190.558594 95.999695 183.999603 95.999695 C 172.913605 95.999695 163.134598 101.671707 157.392593 110.261703"/>
    <path id="path11" fill="#ffffff" stroke="none" d="M 154.298798 139.88089 L 158.004807 138.398895 C 157.017807 135.929901 156.366806 133.290894 156.118805 130.533905 L 152.137802 130.896896 C 152.420807 134.0439 153.166794 137.059906 154.298798 139.88089"/>
    <path id="path12" fill="#ffffff" stroke="none" d="M 184 160 C 190.559006 160 196.662003 158.014008 201.742996 154.613998 L 199.531006 151.296997 C 195.087006 154.266998 189.746002 156 184 156 C 174.281998 156 165.727997 151.044998 160.709 143.527008 L 157.393005 145.738007 C 163.134995 154.328003 172.914001 160 184 160"/>
    <path id="path13" fill="#ffffff" stroke="none" d="M 184 168 C 187.345001 168 190.593994 167.580994 193.701004 166.804993 L 192.731995 162.928009 C 189.936005 163.625 187.011993 164 184 164 C 166.535004 164 151.979004 151.561996 148.695999 135.061005 L 144.777008 135.845001 C 148.43399 154.156998 164.628998 168 184 168"/>
    <path id="path14" fill="#ffffff" stroke="none" d="M 184 92 C 187.011993 92 189.936005 92.375 192.731995 93.072006 L 193.701004 89.195999 C 190.593994 88.417999 187.345001 88 184 88 C 164.628998 88 148.43399 101.843002 144.777008 120.154999 L 148.695999 120.938995 C 151.979004 104.438004 166.535004 92 184 92"/>
    <path id="path15" fill="#ffffff" stroke="none" d="M 26.335899 166.2285 L 32.232899 170.372498 L 25.2059 172.714508 C 25.5639 170.7005 25.9459 168.51651 26.335899 166.2285 M 29.999901 179.999496 C 28.895901 179.999496 27.999901 179.104492 27.999901 177.999496 C 27.999901 176.895508 28.895901 175.999496 29.999901 175.999496 C 31.1049 175.999496 31.999901 176.895508 31.999901 177.999496 C 31.999901 179.104492 31.1049 179.999496 29.999901 179.999496 M 39.752899 170.767502 L 23.4359 159.30249 C 22.2019 166.886505 20.9189 174.027496 20.065901 178.644501 L 24.041901 177.319489 C 24.0159 177.542511 23.999901 177.769501 23.999901 177.999496 C 23.999901 181.308502 26.690901 183.999496 29.999901 183.999496 C 33.308899 183.999496 35.999901 181.308502 35.999901 177.999496 C 35.999901 176.405502 35.370899 174.957489 34.352901 173.882507 L 39.999901 171.999496 Z"/>
    <path id="path16" fill="#ffffff" stroke="none" d="M 140 90 C 140 88.895996 140.895996 88 142 88 C 143.104004 88 144 88.895996 144 90 C 144 91.104004 143.104004 92 142 92 C 140.895996 92 140 91.104004 140 90 M 140 128 C 140 103.699005 159.699005 84 184 84 C 208.300995 84 228 103.699005 228 128 C 228 152.300995 208.300995 172 184 172 C 159.699005 172 140 152.300995 140 128 M 241.503998 186 L 241.468002 186 C 228.299011 185.817001 172.936996 184.354004 137.748993 172.617004 C 137.529007 172.544006 137.298996 172.507004 137.070999 172.507004 C 136.505997 172.507004 135.955002 172.735001 135.613998 173.200989 C 135.25 173.697998 134.662994 174.020996 134 174.020996 L 132 174.020996 C 130.895996 174.020996 130 173.125 130 172.020996 L 130 160.014999 L 130.007004 160.014999 L 132 164 L 136.350006 164 C 136.126999 164.626999 136 165.298004 136 166 C 136 169.30899 138.690994 172 142 172 C 145.309006 172 148 169.30899 148 166 C 148 162.69101 145.309006 160 142 160 C 141.298004 160 140.626999 160.126999 140 160.350006 L 140 160 L 140 156 L 140 147.156006 C 147.412003 164.113998 164.339996 176 184 176 C 210.46701 176 232 154.46701 232 128 C 232 101.533005 210.46701 80 184 80 C 164.339996 80 147.412003 91.884995 140 108.843994 L 140 100 L 140 96 L 140 95.649994 C 140.626999 95.873001 141.298004 96 142 96 C 145.309006 96 148 93.309006 148 90 C 148 86.690994 145.309006 84 142 84 C 138.690994 84 136 86.690994 136 90 C 136 90.701996 136.126999 91.373001 136.350006 92 L 132 92 L 130.007004 95.985992 L 130 95.985992 L 130 83.979004 C 130 82.875 130.895996 81.979004 132 81.979004 L 134 81.979004 C 134.662994 81.979004 135.25 82.302002 135.613998 82.798996 C 135.955002 83.264999 136.505997 83.492996 137.070999 83.492996 C 137.298996 83.492996 137.529007 83.455994 137.748993 83.382996 C 172.936005 71.645996 228.299011 70.182999 241.468002 70 L 241.503998 70 C 243.016998 70 244.18399 71.337997 243.97699 72.843002 C 243.97699 72.843002 236 114.067001 236 128 C 236 141.932999 243.97699 183.156998 243.97699 183.156998 C 244.18399 184.662003 243.016998 186 241.503998 186 M 116 166 C 116 167.104004 115.104004 168 114 168 C 112.895996 168 112 167.104004 112 166 C 112 164.895996 112.895996 164 114 164 C 115.104004 164 116 164.895996 116 166 M 114 92 C 112.895996 92 112 91.104004 112 90 C 112 88.895996 112.895996 88 114 88 C 115.104004 88 116 88.895996 116 90 C 116 91.104004 115.104004 92 114 92 M 20 124 C 20 124 32 124 32 128 C 32 132 20 132 20 132 Z M 124 174.020996 L 122 174.020996 C 121.336998 174.020996 120.75 173.697998 120.386002 173.200989 C 120.044998 172.735001 119.495003 172.507004 118.928001 172.507004 C 118.701004 172.507004 118.471001 172.544006 118.25 172.617004 C 83.063995 184.354004 27.700996 185.817001 14.531998 186 L 14.497002 186 C 12.984001 186 11.815994 184.662003 12.024002 183.156998 C 12.024002 183.156998 17.760002 153.507996 19.502998 136 L 20 136 C 20.136002 136 23.369003 135.994003 26.657997 135.445007 C 30.918999 134.735001 36 132.867004 36 128 C 36 123.132996 30.918999 121.264999 26.657997 120.554001 C 23.369003 120.005997 20.136002 120 20 120 L 19.502998 120 C 17.760002 102.492996 12.024002 72.843002 12.024002 72.843002 C 11.815994 71.337997 12.983002 70 14.496002 70 L 14.531998 70 C 27.700996 70.182999 83.063995 71.645996 118.250999 83.382996 C 118.471001 83.455994 118.701004 83.492996 118.929001 83.492996 C 119.495003 83.492996 120.044998 83.264008 120.386002 82.798996 C 120.75 82.302002 121.336998 81.979004 122 81.979004 L 124 81.979004 C 125.104004 81.979004 126 82.875 126 83.979004 L 126 95.985992 L 125.992996 95.985992 L 124 92 L 119.650002 92 C 119.873001 91.373001 120 90.701996 120 90 C 120 86.690994 117.308998 84 114 84 C 110.691002 84 108 86.690994 108 90 C 108 93.309006 110.691002 96 114 96 C 114.701996 96 115.373001 95.873001 116 95.649994 L 116 96 L 116 100 L 116 156 L 116 160 L 116 160.350006 C 115.373001 160.126999 114.701996 160 114 160 C 110.691002 160 108 162.69101 108 166 C 108 169.30899 110.691002 172 114 172 C 117.308998 172 120 169.30899 120 166 C 120 165.298004 119.873001 164.626999 119.650002 164 L 124 164 L 125.992996 160.014999 L 126 160.014999 L 126 172.020996 C 126 173.125 125.104004 174.020996 124 174.020996 M 142 164 C 143.104004 164 144 164.895996 144 166 C 144 167.104004 143.104004 168 142 168 C 140.895996 168 140 167.104004 140 166 C 140 164.895996 140.895996 164 142 164 M 130 99.985992 L 132.473007 99.985992 L 133.585007 97.774002 L 134.473007 96 L 136 96 L 136 100 L 136 156 L 136 160 L 134.473007 160 L 133.585007 158.225998 L 132.479004 156.014999 L 130.007004 156.014999 L 130 156.014999 L 126.007004 156.014999 L 126 156.014999 L 123.528 156.014999 L 122.415001 158.225998 L 121.528 160 L 120 160 L 120 156 L 120 100 L 120 96 L 121.528 96 L 122.415001 97.774002 L 123.520996 99.985992 L 125.992996 99.985992 L 126 99.985992 L 129.992996 99.985992 Z M 247.924011 182.503998 L 247.903 182.397003 C 247.824005 181.988007 240 141.390991 240 128 C 240 114.608994 247.824005 74.011002 247.903 73.602997 L 247.924011 73.496994 L 247.938004 73.389008 C 248.195007 71.526001 247.63501 69.645004 246.399002 68.227997 C 245.165009 66.811996 243.380997 66 241.503998 66 L 241.475998 66 L 241.412003 66 C 234.893005 66.091003 217.561996 66.503006 197.492996 68.376007 C 172.884003 70.673004 152.755997 74.315994 137.636993 79.209 C 136.602005 78.423004 135.324005 77.979004 134 77.979004 L 132 77.979004 C 130.462997 77.979004 129.061996 78.565994 128 79.520004 C 126.936996 78.565994 125.538002 77.979004 124 77.979004 L 122 77.979004 C 120.676003 77.979004 119.398003 78.423004 118.363998 79.209 C 103.244003 74.315994 83.115997 70.673004 58.505997 68.376007 C 38.438004 66.503006 21.107002 66.091003 14.586998 66 L 14.559998 66 L 14.497002 66 L 14.496002 66 C 12.619003 66 10.835007 66.811996 9.600998 68.227997 C 8.365997 69.645004 7.804993 71.526001 8.061996 73.389008 L 8.076004 73.496994 L 8.097 73.602997 C 8.175995 74.011002 16 114.608994 16 128 C 16 141.390991 8.175995 181.988007 8.097 182.397003 L 8.076004 182.503998 L 8.061996 182.610992 C 7.804993 184.473999 8.365997 186.355011 9.600998 187.772003 C 10.835007 189.188004 12.619003 190 14.497002 190 L 14.524002 190 L 14.587997 189.998993 C 21.107002 189.908997 38.439003 189.496002 58.505997 187.623993 C 83.115997 185.326996 103.244003 181.68399 118.363998 176.790009 C 119.398003 177.576996 120.676003 178.020996 122 178.020996 L 124 178.020996 C 125.538002 178.020996 126.936996 177.434998 128 176.479004 C 129.061996 177.434998 130.462997 178.020996 132 178.020996 L 134 178.020996 C 135.324005 178.020996 136.602005 177.576996 137.636993 176.790009 C 152.755997 181.68399 172.884003 185.326996 197.494003 187.623993 C 217.561005 189.496002 234.893005 189.908997 241.412003 189.998993 L 241.440002 190 L 241.503998 190 C 243.380997 190 245.165009 189.188004 246.399002 187.772003 C 247.63501 186.355011 248.195007 184.473999 247.938004 182.610001 Z"/>
</svg>
