<?xml version="1.0" encoding="UTF-8"?>
<!-- Generated by Pixelmator Pro 3.7.1 -->
<svg width="256" height="256" viewBox="0 0 256 256" xmlns="http://www.w3.org/2000/svg">
    <path id="Path" fill="#ffffff" stroke="none" d="M 148 168 C 154.626999 168 160 173.373001 160 180 C 160 186.626999 154.626999 192 148 192 C 141.373001 192 136 186.626999 136 180 C 136 173.373001 141.373001 168 148 168 M 132 180 C 132 188.821991 139.177994 196 148 196 C 156.822006 196 164 188.821991 164 180 C 164 171.178009 156.822006 164 148 164 C 139.177994 164 132 171.178009 132 180"/>
    <path id="path1" fill="#ffffff" stroke="none" d="M 132 118 C 132 116.895996 132.895996 116 134 116 L 138 116 C 139.104004 116 140 116.895996 140 118 L 140 122 C 140 123.104004 139.104004 124 138 124 L 134 124 C 132.895996 124 132 123.104004 132 122 Z M 146 116 L 150 116 C 151.104004 116 152 116.895996 152 118 L 152 122 C 152 123.104004 151.104004 124 150 124 L 146 124 C 144.895996 124 144 123.104004 144 122 L 144 118 C 144 116.895996 144.895996 116 146 116 M 158 116 L 162 116 C 163.104004 116 164 116.895996 164 118 L 164 122 C 164 123.104004 163.104004 124 162 124 L 158 124 C 156.895996 124 156 123.104004 156 122 L 156 118 C 156 116.895996 156.895996 116 158 116 M 164 158 C 164 159.104004 163.104004 160 162 160 L 158 160 C 156.895996 160 156 159.104004 156 158 L 156 154 C 156 152.895996 156.895996 152 158 152 L 162 152 C 163.104004 152 164 152.895996 164 154 Z M 150 160 L 146 160 C 144.895996 160 144 159.104004 144 158 L 144 154 C 144 152.895996 144.895996 152 146 152 L 150 152 C 151.104004 152 152 152.895996 152 154 L 152 158 C 152 159.104004 151.104004 160 150 160 M 152 130 L 152 134 C 152 135.104004 151.104004 136 150 136 L 146 136 C 144.895996 136 144 135.104004 144 134 L 144 130 C 144 128.895996 144.895996 128 146 128 L 150 128 C 151.104004 128 152 128.895996 152 130 M 144 146 L 144 142 C 144 140.895996 144.895996 140 146 140 L 150 140 C 151.104004 140 152 140.895996 152 142 L 152 146 C 152 147.104004 151.104004 148 150 148 L 146 148 C 144.895996 148 144 147.104004 144 146 M 164 142 L 164 146 C 164 147.104004 163.104004 148 162 148 L 158 148 C 156.895996 148 156 147.104004 156 146 L 156 142 C 156 140.895996 156.895996 140 158 140 L 162 140 C 163.104004 140 164 140.895996 164 142 M 164 130 L 164 134 C 164 135.104004 163.104004 136 162 136 L 158 136 C 156.895996 136 156 135.104004 156 134 L 156 130 C 156 128.895996 156.895996 128 158 128 L 162 128 C 163.104004 128 164 128.895996 164 130 M 132 134 L 132 130 C 132 128.895996 132.895996 128 134 128 L 138 128 C 139.104004 128 140 128.895996 140 130 L 140 134 C 140 135.104004 139.104004 136 138 136 L 134 136 C 132.895996 136 132 135.104004 132 134 M 132 146 L 132 142 C 132 140.895996 132.895996 140 134 140 L 138 140 C 139.104004 140 140 140.895996 140 142 L 140 146 C 140 147.104004 139.104004 148 138 148 L 134 148 C 132.895996 148 132 147.104004 132 146 M 138 160 L 134 160 C 132.895996 160 132 159.104004 132 158 L 132 154 C 132 152.895996 132.895996 152 134 152 L 138 152 C 139.104004 152 140 152.895996 140 154 L 140 158 C 140 159.104004 139.104004 160 138 160 M 128 158 C 128 161.30899 130.690994 164 134 164 L 138 164 C 139.537003 164 140.938004 163.414001 142 162.459 C 143.063004 163.414001 144.462997 164 146 164 L 148 164 L 150 164 C 151.537003 164 152.936996 163.414001 154 162.459 C 155.061996 163.414001 156.462997 164 158 164 L 162 164 C 165.30899 164 168 161.30899 168 158 L 168 154 C 168 152.462997 167.414001 151.063004 166.459 150 C 167.414001 148.936996 168 147.537003 168 146 L 168 142 C 168 140.462997 167.414001 139.061996 166.459 138 C 167.414001 136.936996 168 135.537003 168 134 L 168 130 C 168 128.462006 167.414001 127.063004 166.459 126 C 167.414001 124.936996 168 123.537994 168 122 L 168 118 C 168 114.690994 165.30899 112 162 112 L 158 112 C 156.462997 112 155.061996 112.585999 154 113.541 C 152.936996 112.585999 151.537003 112 150 112 L 146 112 C 144.462997 112 143.063004 112.585999 142 113.541 C 140.938004 112.585999 139.537003 112 138 112 L 134 112 C 130.690994 112 128 114.690994 128 118 L 128 122 C 128 123.537994 128.585999 124.936996 129.541 126 C 128.585999 127.063004 128 128.462006 128 130 L 128 134 C 128 135.537003 128.585999 136.936996 129.541 138 C 128.585999 139.061996 128 140.462997 128 142 L 128 146 C 128 147.537003 128.585999 148.936996 129.541 150 C 128.585999 151.063004 128 152.462997 128 154 Z"/>
    <path id="path2" fill="#ffffff" stroke="none" d="M 96 168 C 102.626999 168 108 173.373001 108 180 C 108 186.626999 102.626999 192 96 192 C 89.373001 192 84 186.626999 84 180 C 84 173.373001 89.373001 168 96 168 M 80 180 C 80 188.821991 87.178001 196 96 196 C 104.821999 196 112 188.821991 112 180 C 112 171.178009 104.821999 164 96 164 C 87.178001 164 80 171.178009 80 180"/>
    <path id="path3" fill="#ffffff" stroke="none" d="M 80 118 C 80 116.895996 80.896004 116 82 116 L 86 116 C 87.104004 116 88 116.895996 88 118 L 88 122 C 88 123.104004 87.104004 124 86 124 L 82 124 C 80.896004 124 80 123.104004 80 122 Z M 94 116 L 98 116 C 99.104004 116 100 116.895996 100 118 L 100 122 C 100 123.104004 99.104004 124 98 124 L 94 124 C 92.895996 124 92 123.104004 92 122 L 92 118 C 92 116.895996 92.895996 116 94 116 M 106 116 L 110 116 C 111.104004 116 112 116.895996 112 118 L 112 122 C 112 123.104004 111.104004 124 110 124 L 106 124 C 104.895996 124 104 123.104004 104 122 L 104 118 C 104 116.895996 104.895996 116 106 116 M 112 158 C 112 159.104004 111.104004 160 110 160 L 106 160 C 104.895996 160 104 159.104004 104 158 L 104 154 C 104 152.895996 104.895996 152 106 152 L 110 152 C 111.104004 152 112 152.895996 112 154 Z M 98 160 L 94 160 C 92.895996 160 92 159.104004 92 158 L 92 154 C 92 152.895996 92.895996 152 94 152 L 98 152 C 99.104004 152 100 152.895996 100 154 L 100 158 C 100 159.104004 99.104004 160 98 160 M 100 130 L 100 134 C 100 135.104004 99.104004 136 98 136 L 94 136 C 92.895996 136 92 135.104004 92 134 L 92 130 C 92 128.895996 92.895996 128 94 128 L 98 128 C 99.104004 128 100 128.895996 100 130 M 92 146 L 92 142 C 92 140.895996 92.895996 140 94 140 L 98 140 C 99.104004 140 100 140.895996 100 142 L 100 146 C 100 147.104004 99.104004 148 98 148 L 94 148 C 92.895996 148 92 147.104004 92 146 M 112 142 L 112 146 C 112 147.104004 111.104004 148 110 148 L 106 148 C 104.895996 148 104 147.104004 104 146 L 104 142 C 104 140.895996 104.895996 140 106 140 L 110 140 C 111.104004 140 112 140.895996 112 142 M 112 130 L 112 134 C 112 135.104004 111.104004 136 110 136 L 106 136 C 104.895996 136 104 135.104004 104 134 L 104 130 C 104 128.895996 104.895996 128 106 128 L 110 128 C 111.104004 128 112 128.895996 112 130 M 80 134 L 80 130 C 80 128.895996 80.896004 128 82 128 L 86 128 C 87.104004 128 88 128.895996 88 130 L 88 134 C 88 135.104004 87.104004 136 86 136 L 82 136 C 80.896004 136 80 135.104004 80 134 M 80 146 L 80 142 C 80 140.895996 80.896004 140 82 140 L 86 140 C 87.104004 140 88 140.895996 88 142 L 88 146 C 88 147.104004 87.104004 148 86 148 L 82 148 C 80.896004 148 80 147.104004 80 146 M 86 160 L 82 160 C 80.896004 160 80 159.104004 80 158 L 80 154 C 80 152.895996 80.896004 152 82 152 L 86 152 C 87.104004 152 88 152.895996 88 154 L 88 158 C 88 159.104004 87.104004 160 86 160 M 82 164 L 86 164 C 87.538002 164 88.936996 163.414001 90 162.459 C 91.063004 163.414001 92.461998 164 94 164 L 96 164 L 98 164 C 99.538002 164 100.936996 163.414001 102 162.459 C 103.063004 163.414001 104.461998 164 106 164 L 110 164 C 113.308998 164 116 161.30899 116 158 L 116 154 C 116 152.462997 115.414001 151.063004 114.459 150 C 115.414001 148.936996 116 147.537003 116 146 L 116 142 C 116 140.462997 115.414001 139.061996 114.459 138 C 115.414001 136.936996 116 135.537003 116 134 L 116 130 C 116 128.462006 115.414001 127.063004 114.459 126 C 115.414001 124.936996 116 123.537994 116 122 L 116 118 C 116 114.690994 113.308998 112 110 112 L 106 112 C 104.461998 112 103.063004 112.585999 102 113.541 C 100.936996 112.585999 99.538002 112 98 112 L 94 112 C 92.461998 112 91.063004 112.585999 90 113.541 C 88.936996 112.585999 87.538002 112 86 112 L 82 112 C 78.691002 112 76 114.690994 76 118 L 76 122 C 76 123.537994 76.585999 124.936996 77.541 126 C 76.585999 127.063004 76 128.462006 76 130 L 76 134 C 76 135.537003 76.585999 136.936996 77.541 138 C 76.585999 139.061996 76 140.462997 76 142 L 76 146 C 76 147.537003 76.585999 148.936996 77.541 150 C 76.585999 151.063004 76 152.462997 76 154 L 76 158 C 76 161.30899 78.691002 164 82 164"/>
    <path id="path4" fill="#ffffff" stroke="none" d="M 240 96 L 236 96 L 180 96 L 124 96 L 120 96 L 64 96 L 20 96 L 16 96 L 12 96 L 16 92 L 240 92 L 244 96 Z M 244 187.056 L 243.578003 186.210999 L 242.473007 184 L 240 184 L 240 100 L 244 100 Z M 12 196 L 16 188 L 64 188 L 64 192 L 64 196 L 68 196 L 176 196 L 180 196 L 180 192 L 180 188 L 236 188 L 240 188 L 244 196 C 244 196 216 200 128 200 C 40 200 12 196 12 196 M 16 184 L 13.528 184 L 12.421997 186.210999 L 12 187.056 L 12 184 L 12 100 L 16 100 Z M 64 184 L 20 184 L 20 100 L 64 100 Z M 120 192 L 68 192 L 68 188 L 68 184 L 68 100 L 120 100 Z M 176 184 L 176 188 L 176 192 L 124 192 L 124 100 L 176 100 Z M 208 172 C 208 167.220001 205.882004 162.934998 202.548004 160 L 213.451996 160 C 210.117996 162.934998 208 167.220001 208 172 C 208 176.779999 210.117996 181.065002 213.451996 184 L 202.548004 184 C 205.882004 181.065002 208 176.779999 208 172 M 181.451996 184 L 180 184 L 180 182.548004 C 180.453003 183.063004 180.936996 183.546997 181.451996 184 M 180 172 C 180 165.373001 185.373001 160 192 160 C 198.626999 160 204 165.373001 204 172 C 204 178.626999 198.626999 184 192 184 C 185.373001 184 180 178.626999 180 172 M 236 182.548004 L 236 184 L 234.548004 184 C 235.063004 183.546997 235.546997 183.063004 236 182.548004 M 224 184 C 217.373001 184 212 178.626999 212 172 C 212 165.373001 217.373001 160 224 160 C 230.626999 160 236 165.373001 236 172 C 236 178.626999 230.626999 184 224 184 M 236 161.451996 C 233.065002 158.117996 228.779999 156 224 156 L 192 156 C 187.220001 156 182.934998 158.117996 180 161.451996 L 180 100 L 236 100 Z M 12 88 L 16 84 L 240 84 L 244 88 L 244 92 L 240 88 L 16 88 L 12 92 Z M 12 80 L 16 76 L 240 76 L 244 80 L 244 84 L 240 80 L 16 80 L 12 84 Z M 12 72 L 16 68 L 240 68 L 244 72 L 244 76 L 240 72 L 16 72 L 12 76 Z M 12 60 C 12 60 40 56 128 56 C 216 56 244 60 244 60 L 244 68 L 240 64 L 16 64 L 12 68 Z M 244.565002 56.040009 C 243.410995 55.875 215.281006 52 128 52 C 40.718994 52 12.589005 55.875 11.434998 56.040009 L 8 56.531006 L 8 60 L 8 96 L 8 100 L 8 195.056 L 8 196 L 8 199.468994 L 8 200 L 11.727997 200 C 15.052994 200.442993 44.373993 204 128 204 C 211.626999 204 240.947006 200.442993 244.270996 200 L 248 200 L 248 199.468994 L 248 196 L 248 195.056 L 248 100 L 248 96 L 248 60 L 248 56.531006 Z"/>
</svg>
