<?xml version="1.0" encoding="UTF-8"?>
<!-- Generated by Pixelmator Pro 3.7.1 -->
<svg width="256" height="256" viewBox="0 0 256 256" xmlns="http://www.w3.org/2000/svg">
    <path id="Path" fill="#ffffff" stroke="none" d="M 40 118 C 40 119.104004 40.896 120 42 120 L 214 120 C 215.104004 120 216 119.104004 216 118 C 216 116.895996 215.104004 116 214 116 L 42 116 C 40.896 116 40 116.895996 40 118"/>
    <path id="path1" fill="#ffffff" stroke="none" d="M 49.290001 47.693405 L 50.827999 27.693405 C 50.988998 25.609406 52.727001 24.000397 54.816002 24.000397 L 201.18399 24.000397 C 203.272995 24.000397 205.011993 25.609406 205.171997 27.693405 L 206.709991 47.693405 C 206.888992 50.016403 205.051987 52.000397 202.722 52.000397 L 53.278 52.000397 C 50.948002 52.000397 49.111 50.016403 49.290001 47.693405 M 208.591995 53.435394 C 210.100998 51.805405 210.868988 49.601395 210.697998 47.386398 L 209.159988 27.386398 C 208.841995 23.2444 205.337997 20.000397 201.18399 20.000397 L 54.816002 20.000397 C 50.661999 20.000397 47.159 23.2444 46.84 27.386398 L 45.302002 47.386398 C 45.131001 49.601395 45.898998 51.805405 47.408001 53.435394 C 48.917 55.065399 51.056999 56.000397 53.278 56.000397 L 202.722 56.000397 C 204.942993 56.000397 207.082993 55.065399 208.591995 53.435394"/>
    <path id="path2" fill="#ffffff" stroke="none" d="M 220 76 L 168.171997 76 C 166.083008 76 164.216995 77.526993 164.018997 79.606995 C 163.791 81.992996 165.660995 84 168 84 L 220 84 L 220 88 L 168 88 C 165.660995 88 163.791 90.007004 164.018997 92.393005 C 164.216995 94.472992 166.083008 96 168.171997 96 L 220 96 L 220 100 L 168 100 C 165.791 100 164 101.791 164 104 C 164 106.209 165.791 108 168 108 L 220 108 L 220 240 L 36 240 L 36 108 L 88 108 C 90.209 108 92 106.209 92 104 C 92 101.791 90.209 100 88 100 L 36 100 L 36 96 L 88 96 C 90.339005 96 92.209 93.992996 91.981003 91.606995 C 91.783005 89.527008 89.917007 88 87.828003 88 L 36 88 L 36 84 L 88 84 C 90.339005 84 92.209 81.992996 91.981003 79.606995 C 91.783005 77.526993 89.917007 76 87.828003 76 L 36 76 L 36 72 L 88 72 C 90.209 72 92 70.209 92 68 L 92 64 L 88 64 L 36 64 L 40 12 L 216 12 L 220 64 L 168 64 L 164 64 L 164 68 C 164 70.209 165.791 72 168 72 L 220 72 Z M 223.988007 63.692993 L 219.988007 11.692993 L 219.703995 8 L 216 8 L 40 8 L 36.296005 8 L 36.011993 11.692993 L 32.011993 63.692993 L 31.681 68 L 32 68 L 32 72 L 32 76 L 32 80 L 32 84 L 32 88 L 32 92 L 32 96 L 32 100 L 32 104 L 32 108 L 32 240 L 32 244 L 36 244 L 220 244 L 224 244 L 224 240 L 224 108 L 224 104 L 224 100 L 224 96 L 224 92 L 224 88 L 224 84 L 224 80 L 224 76 L 224 72 L 224 68 L 224.319 68 Z"/>
</svg>
