<?xml version="1.0" encoding="UTF-8"?>
<!-- Generated by Pixelmator Pro 3.7.1 -->
<svg width="256" height="256" viewBox="0 0 256 256" xmlns="http://www.w3.org/2000/svg">
    <path id="Path" fill="#ffffff" stroke="none" d="M 112.540001 108 C 108.036003 108 104.295998 111.567993 104.030998 116.031006 C 104.010002 116.195007 104 116.360992 104 116.528 L 104 171.459991 C 104 176.169006 107.831001 180 112.540001 180 C 113.903999 180 115.216003 179.68399 116.440002 179.059998 C 117.024002 178.76001 117.112 178.714996 130.095001 168.487 C 138.492996 161.869995 149.996002 152.80899 151.567993 151.761993 C 154.343994 149.910995 156 147.009995 156 144 C 156 140.987 154.339005 138.083008 151.556992 136.229996 C 149.983994 135.182007 138.470001 126.112 130.061996 119.490005 C 117.109001 109.287994 117.022003 109.242996 116.455002 108.949997 C 115.239998 108.326996 113.889999 108 112.540001 108 M 112.540001 112 C 113.288002 112 113.996002 112.184006 114.620003 112.503998 C 115.356003 112.884003 146.360001 137.571991 149.339996 139.559998 C 151.003998 140.667999 152 142.335999 152 144 C 152 145.664001 151.007996 147.328003 149.352005 148.432007 C 146.371994 150.416 115.363998 175.115997 114.624001 175.496002 C 113.996002 175.81601 113.292 176 112.540001 176 C 110.031998 176 108 173.968002 108 171.459991 L 108 116.528 C 108 116.507996 108.012001 116.492004 108.015999 116.472 C 108.052002 113.996002 110.056 112 112.540001 112"/>
    <path id="path1" fill="#ffffff" stroke="none" d="M 172 116 L 172 124 L 172 188 L 84 188 L 84 68 L 96 68 L 124 68 L 128 68 L 128 112 L 172 112 Z M 132 73.656998 L 166.343002 108 L 132 108 Z M 128 64 L 80 64 L 80 192 L 176 192 L 176 112 Z"/>
    <path id="path2" fill="#ffffff" stroke="none" d="M 220 36 L 36 36 L 36 220 L 220 220 Z M 216 216 L 40 216 L 40 40 L 216 40 Z"/>
</svg>
