<?xml version="1.0" encoding="UTF-8"?>
<!-- Generated by Pixelmator Pro 3.7.1 -->
<svg width="256" height="256" viewBox="0 0 256 256" xmlns="http://www.w3.org/2000/svg">
    <path id="Path" fill="#ffffff" stroke="none" d="M 124.3218 89.8013 C 122.6968 89.8013 121.176804 90.447296 120.040802 91.619293 L 110.179802 101.795303 L 107.481796 104.578293 L 110.179802 107.362305 C 115.503799 112.855301 118.435799 120.155304 118.435799 127.916306 C 118.435799 135.698303 115.4888 143.012299 110.136803 148.511292 L 107.4338 151.290298 L 110.125801 154.0793 L 119.965797 164.274292 C 121.102798 165.453308 122.626801 166.101303 124.255798 166.101303 C 125.9608 166.101303 127.594803 165.366302 128.739807 164.082306 C 137.571793 154.177307 142.435806 141.33429 142.435806 127.916306 C 142.435806 114.5383 137.597794 101.722305 128.813797 91.830307 C 127.6698 90.541306 126.031799 89.8013 124.3218 89.8013 M 124.3218 93.8013 C 124.870804 93.8013 125.420799 94.032303 125.8228 94.486298 C 133.652802 103.302307 138.435806 115.044296 138.435806 127.916306 C 138.435806 140.825287 133.622803 152.595306 125.754799 161.420303 C 125.351799 161.872299 124.802803 162.101303 124.255798 162.101303 C 123.744797 162.101303 123.235802 161.902298 122.843803 161.497299 L 113.003799 151.3013 C 118.825798 145.318298 122.435799 137.045288 122.435799 127.916306 C 122.435799 118.812302 118.846802 110.557297 113.051796 104.578293 L 122.912804 94.403305 C 123.303802 94.000305 123.812798 93.8013 124.3218 93.8013"/>
    <path id="path1" fill="#ffffff" stroke="none" d="M 169.546906 44.0186 C 167.369904 44.0186 165.325897 44.891602 163.789902 46.475601 L 155.412903 55.119598 L 152.715897 57.903595 L 155.412903 60.6866 C 172.838898 78.667603 182.435898 102.543594 182.435898 127.915604 C 182.435898 153.361603 172.789902 177.286606 155.275894 195.2836 L 152.572906 198.0616 L 155.264908 200.850601 L 163.623901 209.512604 C 165.160904 211.104599 167.208893 211.981598 169.392899 211.981598 C 171.636902 211.981598 173.796906 211.014603 175.318893 209.329605 C 195.384903 187.115601 206.435898 158.202606 206.435898 127.915604 C 206.435898 97.719604 195.442902 68.869598 175.483902 46.682602 C 173.961899 44.989594 171.797897 44.0186 169.546906 44.0186 M 169.546906 48.0186 C 170.628906 48.0186 171.707901 48.465607 172.510895 49.357605 C 191.071899 69.991592 202.435898 97.610596 202.435898 127.915604 C 202.435898 158.308594 191.005905 185.996597 172.350906 206.648605 C 171.548904 207.536606 170.471893 207.981598 169.392899 207.981598 C 168.349899 207.981598 167.304901 207.566605 166.502899 206.734604 L 158.143906 198.073593 C 175.608902 180.123596 186.435898 155.300598 186.435898 127.915604 C 186.435898 100.605606 175.6689 75.840607 158.285904 57.903595 L 166.662903 49.259598 C 167.464905 48.431595 168.507904 48.0186 169.546906 48.0186"/>
    <path id="path2" fill="#ffffff" stroke="none" d="M 146.917999 67.392105 C 144.757996 67.392105 142.658005 68.282104 141.154999 69.832108 L 132.796997 78.457092 L 130.098999 81.241104 L 132.796997 84.024094 C 144.171005 95.7621 150.436005 111.349106 150.436005 127.916092 C 150.436005 144.528107 144.139008 160.147095 132.705994 171.896088 L 130.003006 174.675095 L 132.694 177.464096 L 141.035004 186.106094 C 142.574997 187.702087 144.626999 188.5811 146.813004 188.5811 C 149.089005 188.5811 151.264008 187.589096 152.779999 185.8591 C 166.744995 169.923096 174.436005 149.345093 174.436005 127.916092 C 174.436005 106.550095 166.787003 86.018097 152.897995 70.103104 C 151.395996 68.380096 149.214996 67.392105 146.917999 67.392105 M 146.917999 71.392105 C 148.014008 71.392105 149.104996 71.839096 149.884995 72.733093 C 162.654007 87.367096 170.436005 106.7211 170.436005 127.916092 C 170.436005 149.172089 162.606995 168.575104 149.772003 183.223099 C 148.977997 184.130096 147.897003 184.5811 146.813004 184.5811 C 145.768997 184.5811 144.718994 184.163101 143.912994 183.329102 L 135.572998 174.686096 C 147.216995 162.7211 154.436005 146.173096 154.436005 127.916092 C 154.436005 109.709106 147.257996 93.199097 135.669006 81.241104 L 144.026993 72.616104 C 144.817993 71.800095 145.869995 71.392105 146.917999 71.392105"/>
    <path id="path3" fill="#ffffff" stroke="none" d="M 95.995102 90.792496 C 94.649101 90.792496 93.307098 91.142502 92.115097 91.804504 L 62.963097 108.000504 L 52.899097 108.000504 C 47.9921 108.000504 44.000099 111.992508 44.000099 116.898499 L 44.000099 139.100494 C 44.000099 144.007507 47.9921 148.000504 52.899097 148.000504 L 62.963097 148.000504 L 92.115097 164.195496 C 93.307098 164.857513 94.649101 165.208496 95.995102 165.208496 C 100.409103 165.208496 104.000099 161.616501 104.000099 157.202515 L 104.000099 98.797501 C 104.000099 94.383499 100.409103 90.792496 95.995102 90.792496 M 95.995102 94.792496 C 98.087097 94.792496 100.000099 96.467499 100.000099 98.797501 L 100.000099 157.202515 C 100.000099 159.532501 98.087097 161.208496 95.995102 161.208496 C 95.349098 161.208496 94.686096 161.047501 94.058098 160.698502 L 64.000099 144.000504 L 52.899097 144.000504 C 50.1931 144.000504 48.000099 141.806503 48.000099 139.100494 L 48.000099 116.898499 C 48.000099 114.193497 50.1931 112.000504 52.899097 112.000504 L 64.000099 112.000504 L 94.058098 95.301498 C 94.686096 94.952499 95.349098 94.792496 95.995102 94.792496"/>
    <path id="path4" fill="#ffffff" stroke="none" d="M 220 36 L 36 36 L 36 220 L 220 220 Z M 216 216 L 40 216 L 40 40 L 216 40 Z"/>
</svg>
