<?xml version="1.0" encoding="UTF-8"?>
<!-- Generated by Pixelmator Pro 3.7.1 -->
<svg width="256" height="256" viewBox="0 0 256 256" xmlns="http://www.w3.org/2000/svg">
    <path id="Path" fill="#ffffff" stroke="none" d="M 167 48 L 89 48 C 81.832001 48 76 53.832001 76 61 L 76 163 C 76 170.167999 81.832001 176 89 176 L 109.528 176 L 124.421997 205.789001 L 128 212.944 L 131.578003 205.789001 L 146.472 176 L 167 176 C 174.167999 176 180 170.167999 180 163 L 180 61 C 180 53.832001 174.167999 48 167 48 M 167 52 C 171.970993 52 176 56.029007 176 61 L 176 163 C 176 167.971008 171.970993 172 167 172 L 144 172 L 128 204 L 112 172 L 89 172 C 84.028999 172 80 167.971008 80 163 L 80 61 C 80 56.029007 84.028999 52 89 52 L 167 52"/>
    <path id="path1" fill="#ffffff" stroke="none" d="M 148 92 L 144 92 L 112 92 L 108 92 L 108 96 L 108 160 L 108 164 L 112 164 L 144 164 L 148 164 L 148 160 L 148 96 Z M 144 160 L 112 160 L 112 96 L 144 96 Z"/>
    <path id="path2" fill="#ffffff" stroke="none" d="M 148.069305 60 L 144.000305 60 L 112.277298 60 L 108.345299 60 L 108.277298 63.931 L 108.000298 79.931 L 107.930298 84 L 112.000298 84 L 143.722305 84 L 147.654297 84 L 147.722305 80.069 L 147.999298 64.069 Z M 144.000305 64 L 143.722305 80 L 112.000298 80 L 112.277298 64 Z"/>
    <path id="path3" fill="#ffffff" stroke="none" d="M 220 36 L 36 36 L 36 220 L 220 220 Z M 216 216 L 40 216 L 40 40 L 216 40 Z"/>
</svg>
