<?xml version="1.0" encoding="UTF-8"?>
<!-- Generated by Pixelmator Pro 3.7.1 -->
<svg width="256" height="256" viewBox="0 0 256 256" xmlns="http://www.w3.org/2000/svg">
    <path id="Path" fill="#ffffff" stroke="none" d="M 99.909698 106.237305 C 98.442703 106.237305 97.037697 106.868301 96.055702 107.969299 C 90.661697 114.018295 87.691696 121.859299 87.691696 130.049301 C 87.691696 138.214294 90.645699 146.037292 96.009697 152.078308 C 96.992699 153.184296 98.399696 153.819305 99.870697 153.819305 C 101.271698 153.819305 102.581703 153.262299 103.5597 152.254303 L 109.274696 146.3573 L 111.972702 143.573303 L 109.274696 140.790298 C 106.494698 137.922302 104.964699 134.1073 104.964699 130.049301 C 104.964699 125.979294 106.502701 122.156296 109.2967 119.286301 L 111.999702 116.508301 L 109.307701 113.718307 L 103.605698 107.810303 C 102.640701 106.810303 101.293701 106.237305 99.909698 106.237305 M 99.909698 110.237305 C 100.204697 110.237305 100.500702 110.352295 100.727699 110.588303 L 106.429703 116.496307 C 103.055702 119.963303 100.964699 124.758301 100.964699 130.049301 C 100.964699 135.32431 103.043701 140.108307 106.401703 143.573303 L 100.687698 149.469299 C 100.460701 149.7043 100.165703 149.819305 99.870697 149.819305 C 99.552696 149.819305 99.234703 149.685303 99.000702 149.422302 C 94.463699 144.312302 91.691696 137.508301 91.691696 130.049301 C 91.691696 122.567307 94.480698 115.746307 99.040703 110.632294 C 99.274696 110.3703 99.592697 110.237305 99.909698 110.237305"/>
    <path id="path1" fill="#ffffff" stroke="none" d="M 73.751503 79.648895 C 71.976501 79.648895 70.269501 80.410904 69.068497 81.739899 C 57.1605 94.922897 50.602501 112.079895 50.602501 130.048904 C 50.602501 147.964905 57.1255 165.082901 68.970497 178.249908 C 70.171501 179.5849 71.8815 180.351898 73.661499 180.351898 C 75.3825 180.351898 76.996498 179.66391 78.205498 178.415894 L 83.060501 173.405914 L 85.758499 170.622894 L 83.060501 167.838898 C 73.267502 157.733902 67.874496 144.313904 67.874496 130.048904 C 67.874496 115.742905 73.294502 102.294907 83.137497 92.180893 L 85.8405 89.401901 L 83.148499 86.6129 L 78.304497 81.593903 C 77.094498 80.338898 75.477501 79.648895 73.751503 79.648895 M 73.751503 83.648895 C 74.355499 83.648895 74.960503 83.888901 75.426498 84.370895 L 80.2705 89.3909 C 70.148499 99.792892 63.8745 114.177902 63.8745 130.048904 C 63.8745 145.8759 70.113503 160.227905 80.188499 170.622894 L 75.333504 175.631897 C 74.8685 176.111908 74.264503 176.351898 73.661499 176.351898 C 73.0345 176.351898 72.4095 176.091904 71.944496 175.574905 C 61.1875 163.616913 54.602501 147.610901 54.602501 130.048904 C 54.602501 112.435898 61.226501 96.389893 72.037498 84.420898 C 72.501503 83.906906 73.126503 83.648895 73.751503 83.648895"/>
    <path id="path2" fill="#ffffff" stroke="none" d="M 86.837402 93.209503 C 85.033401 93.209503 83.311401 93.9935 82.113403 95.360504 C 73.752403 104.902496 69.1474 117.222504 69.1474 130.048492 C 69.1474 142.837494 73.726402 155.12851 82.042397 164.658508 C 83.233398 166.022507 84.958397 166.805511 86.775398 166.805511 C 88.4804 166.805511 90.137398 166.1035 91.323402 164.879501 L 96.167397 159.8815 L 98.865402 157.097504 L 96.167397 154.314499 C 89.881401 147.828491 86.419403 139.209503 86.419403 130.048492 C 86.419403 120.861496 89.899399 112.226501 96.2174 105.733505 L 98.920403 102.955505 L 96.229401 100.166504 L 91.395401 95.157501 C 90.182404 93.901505 88.5644 93.209503 86.837402 93.209503 M 86.837402 97.209503 C 87.442398 97.209503 88.0504 97.452499 88.517403 97.935501 L 93.350403 102.944504 C 86.602402 109.878494 82.419403 119.468506 82.419403 130.048492 C 82.419403 140.599503 86.579399 150.167511 93.295403 157.097504 L 88.450401 162.096497 C 87.993401 162.569504 87.3834 162.805511 86.775398 162.805511 C 86.141403 162.805511 85.5084 162.546509 85.056396 162.028503 C 77.656403 153.547501 73.1474 142.331512 73.1474 130.048492 C 73.1474 117.730499 77.683403 106.485504 85.122398 97.997498 C 85.582397 97.471497 86.208397 97.209503 86.837402 97.209503"/>
    <path id="path3" fill="#ffffff" stroke="none" d="M 156.128906 106.181198 C 154.728897 106.181198 153.417892 106.737198 152.440903 107.746201 L 146.725906 113.643204 L 144.026901 116.4272 L 146.725906 119.210205 C 149.504898 122.078201 151.035904 125.893204 151.035904 129.951202 C 151.035904 134.020203 149.496902 137.843201 146.702896 140.714203 L 143.999893 143.492203 L 146.690903 146.281189 L 152.394897 152.190201 C 153.358902 153.189209 154.705902 153.763199 156.090897 153.763199 C 157.557907 153.763199 158.962906 153.131195 159.943893 152.030197 C 165.337906 145.981201 168.308899 138.140198 168.308899 129.951202 C 168.308899 121.786194 165.354904 113.963196 159.989899 107.922195 C 159.007904 106.815201 157.600906 106.181198 156.128906 106.181198 M 156.128906 110.181198 C 156.446899 110.181198 156.7659 110.315201 156.998901 110.578201 C 161.535904 115.687195 164.308899 122.492203 164.308899 129.951202 C 164.308899 137.43219 161.519897 144.254211 156.958893 149.368195 C 156.725906 149.630203 156.407898 149.763199 156.090897 149.763199 C 155.794907 149.763199 155.498901 149.647202 155.272903 149.412201 L 149.569901 143.504211 C 152.943893 140.036194 155.035904 135.241196 155.035904 129.951202 C 155.035904 124.676193 152.955902 119.891205 149.5979 116.4272 L 155.312897 110.530197 C 155.538895 110.296204 155.833893 110.181198 156.128906 110.181198"/>
    <path id="path4" fill="#ffffff" stroke="none" d="M 182.337906 79.648895 C 180.616898 79.648895 179.003906 80.335907 177.7939 81.583893 L 172.939896 86.592896 L 170.241898 89.376892 L 172.939896 92.160904 C 182.732895 102.2659 188.124893 115.686905 188.124893 129.950897 C 188.124893 144.256897 182.704895 157.704895 172.861893 167.818909 L 170.158905 170.5979 L 172.850906 173.386902 L 177.694901 178.405914 C 178.905899 179.659912 180.522903 180.351898 182.247894 180.351898 C 184.023895 180.351898 185.730896 179.588898 186.9319 178.259903 C 198.839905 165.076904 205.397903 147.920898 205.397903 129.950897 C 205.397903 112.035904 198.873901 94.916901 187.0289 81.749893 C 185.827896 80.414902 184.117905 79.648895 182.337906 79.648895 M 182.337906 83.648895 C 182.964905 83.648895 183.590897 83.907898 184.055893 84.424896 C 194.812897 96.381897 201.397903 112.387894 201.397903 129.950897 C 201.397903 147.564911 194.774902 163.609894 183.962906 175.577911 C 183.497894 176.093903 182.873901 176.351898 182.247894 176.351898 C 181.644897 176.351898 181.038895 176.109894 180.572906 175.628906 L 175.729904 170.608902 C 185.851898 160.206909 192.124893 145.820892 192.124893 129.950897 C 192.124893 114.123901 185.885895 99.772903 175.811905 89.376892 L 180.666901 84.367905 C 181.131897 83.887894 181.734894 83.648895 182.337906 83.648895"/>
    <path id="path5" fill="#ffffff" stroke="none" d="M 169.223602 93.194305 C 167.519608 93.194305 165.862595 93.896301 164.676605 95.119293 L 159.832596 100.118301 L 157.134598 102.902298 L 159.832596 105.685303 C 166.118607 112.172302 169.579605 120.790298 169.579605 129.951294 C 169.579605 139.137299 166.100601 147.7733 159.782593 154.266296 L 157.078598 157.044296 L 159.770599 159.83429 L 164.604599 164.841309 C 165.817596 166.098297 167.435593 166.790298 169.162598 166.790298 C 170.966599 166.790298 172.688599 166.006287 173.885605 164.639297 C 182.247604 155.096298 186.8526 142.77829 186.8526 129.951294 C 186.8526 117.162308 182.273605 104.871307 173.956604 95.341293 C 172.766602 93.977295 171.040604 93.194305 169.223602 93.194305 M 169.223602 97.194305 C 169.858597 97.194305 170.491592 97.453293 170.943604 97.971298 C 178.343597 106.452301 182.8526 117.668304 182.8526 129.951294 C 182.8526 142.269302 178.316605 153.514297 170.877594 162.003296 C 170.416595 162.52829 169.791595 162.790298 169.162598 162.790298 C 168.557602 162.790298 167.9496 162.548294 167.482605 162.064301 L 162.649597 157.055298 C 169.397598 150.121307 173.579605 140.531311 173.579605 129.951294 C 173.579605 119.400299 169.420593 109.832306 162.704605 102.902298 L 167.548599 97.903305 C 168.006607 97.431305 168.616592 97.194305 169.223602 97.194305"/>
    <path id="path6" fill="#ffffff" stroke="none" d="M 128 114 C 119.178001 114 112 121.177994 112 130 C 112 138.821991 119.178001 146 128 146 C 136.822006 146 144 138.821991 144 130 C 144 121.177994 136.822006 114 128 114 M 128 118 C 134.626999 118 140 123.373001 140 130 C 140 136.626999 134.626999 142 128 142 C 121.373001 142 116 136.626999 116 130 C 116 123.373001 121.373001 118 128 118"/>
    <path id="path7" fill="#ffffff" stroke="none" d="M 220 36 L 36 36 L 36 220 L 220 220 Z M 216 216 L 40 216 L 40 40 L 216 40 Z"/>
</svg>
