<?xml version="1.0" encoding="UTF-8"?>
<!-- Generated by Pixelmator Pro 3.7.1 -->
<svg width="256" height="256" viewBox="0 0 256 256" xmlns="http://www.w3.org/2000/svg">
    <path id="Path" fill="#ffffff" stroke="none" d="M 116 116.005905 L 116.012001 116.005905 L 116.012001 73.999893 C 116.012001 70.6819 118.694 67.999893 122.012001 67.999893 L 134 67.999893 C 137.317993 67.999893 140 70.6819 140 73.999893 L 140 116.005905 L 140.011993 116.005905 L 164.011993 116.017899 L 128.011993 163.999908 L 92 116.017899 Z M 124.813004 166.401901 L 128.013 170.66391 L 131.212006 166.400909 L 167.212006 118.4189 L 172.011002 112.021896 L 164.014008 112.017899 L 144 112.007904 L 144 73.999893 C 144 68.485901 139.514008 63.999893 134 63.999893 L 122.012001 63.999893 C 116.498001 63.999893 112.012001 68.485901 112.012001 73.999893 L 112.012001 112.007904 L 91.998001 112.017899 L 84 112.021896 L 88.801003 118.4189 Z"/>
    <path id="path1" fill="#ffffff" stroke="none" d="M 86 176 L 132 176 L 138 176 C 141.300003 176 144 178.699997 144 182 C 144 185.300003 141.300003 188 138 188 L 132 188 L 86 188 C 82.699997 188 80 185.300003 80 182 C 80 178.699997 82.699997 176 86 176 M 176 182 C 176 185.300003 173.300003 188 170 188 L 145.979996 188 C 147.242004 186.326004 148 184.252991 148 182 C 148 179.747009 147.242004 177.674011 145.979996 176 L 170 176 C 173.300003 176 176 178.699997 176 182 M 86 192 L 132 192 L 138 192 L 170 192 C 175.514008 192 180 187.514008 180 182 C 180 176.485992 175.514008 172 170 172 L 138 172 L 132 172 L 86 172 C 80.486 172 76 176.485992 76 182 C 76 187.514008 80.486 192 86 192"/>
    <path id="path2" fill="#ffffff" stroke="none" d="M 220 36 L 36 36 L 36 220 L 220 220 Z M 216 216 L 40 216 L 40 40 L 216 40 Z"/>
</svg>
