<?xml version="1.0" encoding="UTF-8"?>
<!-- Generated by Pixelmator Pro 3.7.1 -->
<svg width="256" height="256" viewBox="0 0 256 256" xmlns="http://www.w3.org/2000/svg">
    <path id="Path" fill="#ffffff" stroke="none" d="M 128.045395 84 C 126.399399 84 124.8414 84.628998 123.657402 85.772003 L 118.937401 90.326996 C 118.009399 91.223007 117.500397 92.477005 117.542397 93.766006 C 117.584396 95.061996 118.176399 96.287003 119.168404 97.126999 C 121.631401 99.214996 124.7864 100.365997 128.048401 100.365997 C 131.301407 100.365997 134.448395 99.222 136.909393 97.145996 C 137.901398 96.307999 138.497406 95.084 138.541397 93.789001 C 138.586395 92.498993 138.080399 91.244995 137.153397 90.347 L 132.442398 85.781006 C 131.256393 84.632004 129.695404 84 128.045395 84 M 128.045395 88 C 128.627396 88 129.209396 88.218002 129.658401 88.653 L 134.3694 93.218994 C 134.620407 93.462006 134.595398 93.863998 134.329407 94.089005 C 132.648407 95.507004 130.452393 96.365997 128.048401 96.365997 C 125.638397 96.365997 123.436401 95.501007 121.753403 94.076004 C 121.487396 93.850006 121.463402 93.447998 121.715401 93.205994 L 126.435402 88.649994 C 126.884399 88.216995 127.464401 88 128.045395 88"/>
    <path id="path1" fill="#ffffff" stroke="none" d="M 114.507797 94.602097 L 111.718803 97.294098 L 105.809799 102.997101 C 104.782799 103.988098 104.209801 105.372101 104.237801 106.794098 C 104.2658 108.223099 104.897797 109.591095 105.969803 110.547104 C 112.018799 115.940094 119.859802 118.911102 128.048798 118.911102 C 136.213806 118.911102 144.036804 115.9561 150.077805 110.592102 C 151.152802 109.638107 151.785797 108.271103 151.817795 106.843094 C 151.848801 105.421097 151.278793 104.036102 150.253799 103.042099 L 144.357803 97.328094 L 141.5728 94.630096 L 138.789795 97.328094 C 135.921799 100.107101 132.107803 101.638107 128.048798 101.638107 C 123.978798 101.638107 120.156799 100.100098 117.285797 97.306107 Z M 114.496803 100.172104 C 117.963799 103.546097 122.757797 105.638107 128.048798 105.638107 C 133.323807 105.638107 138.108795 103.558105 141.5728 100.200104 L 147.469803 105.9151 C 147.955795 106.386093 147.928802 107.151093 147.421799 107.601105 C 142.312805 112.138092 135.508804 114.911102 128.048798 114.911102 C 120.567802 114.911102 113.746803 112.122101 108.632797 107.561096 C 108.126801 107.110107 108.1008 106.345093 108.587799 105.8741 L 114.496803 100.172104"/>
    <path id="path2" fill="#ffffff" stroke="none" d="M 87.402298 120.761703 L 84.613297 123.453705 L 79.5933 128.297699 C 78.3293 129.5177 77.6213 131.214691 77.6493 132.953705 C 77.678299 134.690704 78.4403 136.359711 79.740303 137.5327 C 92.923302 149.441711 110.0793 155.999695 128.048294 155.999695 C 145.965302 155.999695 163.083298 149.4767 176.250305 137.631699 C 177.552307 136.459702 178.318298 134.792694 178.350296 133.056702 C 178.382309 131.317703 177.677307 129.618698 176.416306 128.396698 L 171.406296 123.541702 L 168.623306 120.844696 L 165.839294 123.541702 C 155.734299 133.334702 142.313293 138.727692 128.048294 138.727692 C 113.743301 138.727692 100.295303 133.307709 90.180298 123.464706 Z M 87.391296 126.331696 C 97.792297 136.452698 112.178299 142.727692 128.048294 142.727692 C 143.876297 142.727692 158.227295 136.488708 168.623306 126.413696 L 173.631302 131.268707 C 174.611298 132.217697 174.589294 133.745697 173.575302 134.6577 C 161.617294 145.414703 145.611298 151.999695 128.048294 151.999695 C 110.435303 151.999695 94.389297 145.375702 82.421303 134.565704 C 81.409302 133.651703 81.390297 132.122711 82.3713 131.17569 L 87.391296 126.331696"/>
    <path id="path3" fill="#ffffff" stroke="none" d="M 100.955597 107.681595 L 98.166603 110.372604 L 93.1576 115.206604 C 91.878601 116.441605 91.169601 118.157593 91.211601 119.915604 C 91.253601 121.661606 92.036598 123.327606 93.360603 124.488602 C 102.903603 132.850601 115.222603 137.45459 128.048599 137.45459 C 140.837601 137.45459 153.128601 132.874603 162.6586 124.559601 C 163.975601 123.410599 164.757599 121.744598 164.803604 119.991608 C 164.849594 118.225601 164.148605 116.507599 162.879593 115.278595 L 157.881592 110.434601 L 155.097595 107.737595 L 152.314606 110.434601 C 145.828598 116.720596 137.209595 120.182602 128.048599 120.182602 C 118.861603 120.182602 110.226601 116.702606 103.733597 110.384598 Z M 100.944603 113.251602 C 107.878601 119.999603 117.468597 124.182602 128.048599 124.182602 C 138.599594 124.182602 148.167603 120.023605 155.097595 113.306595 L 160.096603 118.151596 C 161.063599 119.087601 161.041595 120.660599 160.028595 121.545593 C 151.547592 128.945602 140.330597 133.45459 128.048599 133.45459 C 115.729599 133.45459 104.485603 128.91861 95.997597 121.479599 C 94.966599 120.576599 94.9496 119.036606 95.9356 118.084595 L 100.944603 113.251602"/>
    <path id="path4" fill="#ffffff" stroke="none" d="M 140 44 L 116 44 C 112.473999 44 109.473 46.292999 108.410995 49.466003 C 88.518005 52.850998 84.772003 61.048004 84.208 62.725998 L 83.999001 63.348999 L 84 64.005997 C 84.002998 65.912994 85.122002 69.281006 92 71.897995 L 92 72 C 92 74.987 93.645996 77.597992 96.078995 78.971008 C 96.543999 81.820007 99.022003 84 102 84 L 106 84 C 108.977997 84 111.456001 81.820007 111.920998 78.971008 C 113.275002 78.207001 114.385002 77.059998 115.102997 75.677994 C 115.707001 75.710999 116.320999 75.740997 116.944 75.768997 C 118.293999 78.285004 120.951004 80 124 80 L 132 80 C 135.050003 80 137.705994 78.285004 139.056 75.768997 C 139.679001 75.740997 140.292999 75.710999 140.895996 75.677994 C 141.615005 77.059998 142.725998 78.207001 144.078003 78.971008 C 144.544006 81.820007 147.022003 84 150 84 L 154 84 C 156.977997 84 159.455994 81.820007 159.921997 78.971008 C 162.354004 77.597992 164 74.987 164 72 L 164 71.897995 C 170.878006 69.281006 171.996994 65.912003 172 64.005997 L 172.001007 63.348999 L 171.791992 62.725998 C 171.227997 61.048004 167.481003 52.850998 147.589005 49.466003 C 146.526001 46.292999 143.526001 44 140 44 M 108 64 L 112 64 L 112 60 L 108 60 Z M 120 64 L 124 64 L 124 60 L 120 60 Z M 132 64 L 136 64 L 136 60 L 132 60 Z M 144 64 L 148 64 L 148 60 L 144 60 Z M 140 48 C 142.209 48 144 49.791 144 52 L 144 52.966995 C 165.25 55.815002 168 64 168 64 C 168 64 167.996002 66.735001 160 69.005997 L 160 72 C 160 74.209 158.209 76 156 76 L 156 78 C 156 79.104004 155.104004 80 154 80 L 150 80 C 148.895996 80 148 79.104004 148 78 L 148 76 C 145.791 76 144 74.209 144 72 L 144 71.472992 C 141.587006 71.652008 138.921997 71.790009 136 71.880005 L 136 72 C 136 74.209 134.209 76 132 76 L 124 76 C 121.791 76 120 74.209 120 72 L 120 71.880005 C 117.078003 71.790009 114.413002 71.652008 112 71.472992 L 112 72 C 112 74.209 110.209 76 108 76 L 108 78 C 108 79.104004 107.104004 80 106 80 L 102 80 C 100.895996 80 100 79.104004 100 78 L 100 76 C 97.791 76 96 74.209 96 72 L 96 69.005997 C 88.003998 66.735001 88 64 88 64 C 88 64 90.75 55.815002 112 52.966995 L 112 52 C 112 49.791 113.791 48 116 48 L 140 48"/>
    <path id="path5" fill="#ffffff" stroke="none" d="M 220 36 L 36 36 L 36 220 L 220 220 Z M 216 216 L 40 216 L 40 40 L 216 40 Z"/>
    <path id="path6" fill="#ffffff" stroke="none" d="M 154.2686 156 L 145.999603 156 L 139.999603 156 L 138.126602 156 L 136.926605 157.438995 L 131.459595 164 L 124.539597 164 L 119.072601 157.438995 L 117.873596 156 L 115.999596 156 L 109.999596 156 L 101.731598 156 L 106.863602 162.481995 L 108.064598 164 L 101.999596 164 L 99.375595 164 L 93.999596 164 L 87.999603 164 L 85.023598 164 L 84.168602 166.850998 L 78.168602 186.850998 L 76.623604 192 L 81.999603 192 L 85.999603 192 L 87.999603 192 L 92.766602 192 L 92.0886 195.162003 L 91.052597 200 L 95.999596 200 L 101.459602 200 L 96.927597 205.438995 L 91.459602 212 L 99.999596 212 L 107.999596 212 L 109.9356 212 L 111.136597 210.481995 L 119.4356 200 L 136.564606 200 L 144.864594 210.481995 L 146.064606 212 L 147.999603 212 L 155.999603 212 L 164.539597 212 L 159.073593 205.438995 L 154.539597 200 L 159.999603 200 L 164.948593 200 L 163.911606 195.162003 L 163.233597 192 L 169.999603 192 L 173.999603 192 L 173.999603 191.884003 L 174.079605 191.882996 L 179.353592 191.778 L 177.829605 186.727997 L 171.829605 166.845001 L 170.970596 164 L 167.999603 164 L 161.999603 164 L 157.233597 164 L 153.999603 164 L 147.935593 164 L 149.135605 162.481995 Z M 145.999603 160 L 139.666595 168 L 153.999603 168 L 156.571594 180 L 165.664597 180 L 161.999603 168 L 167.999603 168 L 173.999603 187.884003 L 169.999603 187.962006 L 169.999603 188 L 158.286606 188 L 159.999603 196 L 145.999603 196 L 155.999603 208 L 147.999603 208 L 138.499603 196 L 117.499596 196 L 107.999596 208 L 99.999596 208 L 109.999596 196 L 95.999596 196 L 97.7146 188 L 87.999603 188 L 85.999603 188 L 81.999603 188 L 87.999603 168 L 93.999596 168 L 90.399597 180 L 99.428596 180 L 101.999596 168 L 116.333595 168 L 109.999596 160 L 115.999596 160 L 122.666603 168 L 133.332596 168 L 139.999603 160 Z"/>
    <path id="path7" fill="#ffffff" stroke="none" d="M 140 182 L 148 182 L 148 174 L 140 174 Z"/>
    <path id="path8" fill="#ffffff" stroke="none" d="M 108 182 L 116 182 L 116 174 L 108 174 Z"/>
</svg>
