<?xml version="1.0" encoding="UTF-8"?>
<!-- Generated by Pixelmator Pro 3.7.1 -->
<svg width="256" height="256" viewBox="0 0 256 256" xmlns="http://www.w3.org/2000/svg">
    <path id="Path" fill="#ffffff" stroke="none" d="M 128 64 C 92.709999 64 64 92.709991 64 128 C 64 163.290009 92.709999 192 128 192 C 163.290009 192 192 163.290009 192 128 C 192 92.709991 163.290009 64 128 64 M 128 68 C 161.136993 68 188 94.863007 188 128 C 188 161.136993 161.136993 188 128 188 C 94.862999 188 68 161.136993 68 128 C 68 94.863007 94.862999 68 128 68"/>
    <path id="path1" fill="#ffffff" stroke="none" d="M 152.769501 100.581497 L 152.769501 100.581497 C 150.080505 100.581497 147.497498 101.572495 145.496506 103.371506 C 143.334503 105.314499 142.059494 107.983505 141.906494 110.885498 C 141.751495 113.788498 142.737503 116.576492 144.680496 118.737503 C 148.413498 122.889496 150.468506 128.239502 150.468506 133.80249 C 150.468506 146.192505 140.389496 156.2715 127.999496 156.2715 C 115.610497 156.2715 105.531502 146.192505 105.531502 133.80249 C 105.531502 128.239502 107.586502 122.889496 111.319496 118.738495 C 115.331497 114.276505 114.9655 107.383499 110.503502 103.371506 C 108.502502 101.572495 105.919502 100.581497 103.230499 100.581497 C 100.147499 100.581497 97.197502 101.895493 95.137497 104.1875 C 87.806503 112.3405 83.769501 122.857498 83.769501 133.80249 C 83.769501 158.191498 103.610497 178.0345 127.999496 178.0345 C 152.388504 178.0345 172.230499 158.191498 172.230499 133.80249 C 172.230499 122.857498 168.193497 112.3405 160.862503 104.1875 C 158.801498 101.895493 155.851501 100.581497 152.769501 100.581497 M 152.769501 104.581497 C 154.653503 104.581497 156.529495 105.350494 157.888504 106.861496 C 164.557495 114.279495 168.230499 123.847504 168.230499 133.80249 C 168.230499 155.986496 150.183502 174.0345 127.999496 174.0345 C 105.816498 174.0345 87.769501 155.986496 87.769501 133.80249 C 87.769501 123.846497 91.442497 114.278503 98.111496 106.861496 C 99.470497 105.350494 101.346497 104.581497 103.230499 104.581497 C 104.869499 104.581497 106.514496 105.163498 107.829498 106.346497 C 110.655502 108.886505 110.886497 113.237503 108.345497 116.063507 C 103.9515 120.9505 101.531502 127.249496 101.531502 133.80249 C 101.531502 148.398499 113.405502 160.2715 127.999496 160.2715 C 142.594498 160.2715 154.468506 148.398499 154.468506 133.80249 C 154.468506 127.250504 152.048492 120.9505 147.654495 116.063507 C 145.113495 113.237503 145.344498 108.886505 148.170502 106.346497 C 149.485504 105.163498 151.130493 104.581497 152.769501 104.581497"/>
    <path id="path2" fill="#ffffff" stroke="none" d="M 128 77.966293 C 122 77.966293 117.119003 82.847305 117.119003 88.847305 L 117.119003 133.802307 C 117.119003 139.802307 122 144.683304 128 144.683304 C 134 144.683304 138.880997 139.802307 138.880997 133.802307 L 138.880997 88.847305 C 138.880997 82.847305 134 77.966293 128 77.966293 M 128 81.966293 C 131.800003 81.966293 134.880997 85.047302 134.880997 88.847305 L 134.880997 133.802307 C 134.880997 137.603302 131.800003 140.683289 128 140.683289 C 124.199997 140.683289 121.119003 137.603302 121.119003 133.802307 L 121.119003 88.847305 C 121.119003 85.047302 124.199997 81.966293 128 81.966293"/>
    <path id="path3" fill="#ffffff" stroke="none" d="M 220 36 L 36 36 L 36 220 L 220 220 Z M 216 216 L 40 216 L 40 40 L 216 40 Z"/>
</svg>
