<?xml version="1.0" encoding="UTF-8"?>
<!-- Generated by Pixelmator Pro 3.7.1 -->
<svg width="256" height="256" viewBox="0 0 256 256" xmlns="http://www.w3.org/2000/svg">
    <path id="Path" fill="#ffffff" stroke="none" d="M 220 36 L 36 36 L 36 220 L 220 220 Z M 216 216 L 40 216 L 40 40 L 216 40 Z"/>
    <path id="path1" fill="#ffffff" stroke="none" d="M 80 213.884796 L 80 209.961792 C 80 208.874802 80.910004 207.999802 82.040001 207.999802 L 86.120003 207.999802 C 87.25 207.999802 88.160004 208.874802 88.160004 209.961792 L 88.160004 213.884796 C 88.160004 214.971802 87.25 215.845795 86.120003 215.845795 L 82.040001 215.845795 C 80.910004 215.845795 80 214.971802 80 213.884796 M 80 197.961792 C 80 196.874802 80.910004 195.999802 82.040001 195.999802 L 86.120003 195.999802 C 87.25 195.999802 88.160004 196.874802 88.160004 197.961792 L 88.160004 201.884796 C 88.160004 202.971802 87.25 203.845795 86.120003 203.845795 L 82.040001 203.845795 C 80.910004 203.845795 80 202.971802 80 201.884796 Z M 80 186.114807 C 80 185.028809 80.910004 184.1548 82.040001 184.1548 L 86.120003 184.1548 C 87.25 184.1548 88.160004 185.028809 88.160004 186.114807 L 88.160004 190.037811 C 88.160004 191.124802 87.25 191.999802 86.120003 191.999802 L 82.040001 191.999802 C 80.910004 191.999802 80 191.124802 80 190.037811 Z M 80 174.114807 C 80 173.028809 80.910004 172.1548 82.040001 172.1548 L 86.120003 172.1548 C 87.25 172.1548 88.160004 173.028809 88.160004 174.114807 L 88.160004 178.037811 C 88.160004 179.124802 87.25 179.999802 86.120003 179.999802 L 82.040001 179.999802 C 80.910004 179.999802 80 179.124802 80 178.037811 Z M 80 162.114807 C 80 161.028809 80.910004 160.1548 82.040001 160.1548 L 86.120003 160.1548 C 87.25 160.1548 88.160004 161.028809 88.160004 162.114807 L 88.160004 166.037811 C 88.160004 167.124802 87.25 167.999802 86.120003 167.999802 L 82.040001 167.999802 C 80.910004 167.999802 80 167.124802 80 166.037811 Z M 80 150.114807 C 80 149.028809 80.910004 148.1548 82.040001 148.1548 L 86.120003 148.1548 C 87.25 148.1548 88.160004 149.028809 88.160004 150.114807 L 88.160004 154.037811 C 88.160004 155.124802 87.25 155.999802 86.120003 155.999802 L 82.040001 155.999802 C 80.910004 155.999802 80 155.124802 80 154.037811 Z M 80 138.114807 C 80 137.028809 80.910004 136.1548 82.040001 136.1548 L 86.120003 136.1548 C 87.25 136.1548 88.160004 137.028809 88.160004 138.114807 L 88.160004 142.037811 C 88.160004 143.124802 87.25 143.999802 86.120003 143.999802 L 82.040001 143.999802 C 80.910004 143.999802 80 143.124802 80 142.037811 Z M 80 126.114807 C 80 125.028793 80.910004 124.153793 82.040001 124.153793 L 86.120003 124.153793 C 87.25 124.153793 88.160004 125.028793 88.160004 126.114807 L 88.160004 130.037811 C 88.160004 131.124802 87.25 131.999802 86.120003 131.999802 L 82.040001 131.999802 C 80.910004 131.999802 80 131.124802 80 130.037811 Z M 80 114.114807 C 80 113.028793 80.910004 112.153793 82.040001 112.153793 L 86.120003 112.153793 C 87.25 112.153793 88.160004 113.028793 88.160004 114.114807 L 88.160004 118.038803 C 88.160004 119.124802 87.25 119.999802 86.120003 119.999802 L 82.040001 119.999802 C 80.910004 119.999802 80 119.124802 80 118.038803 Z M 80 102.114807 C 80 101.028793 80.910004 100.153793 82.040001 100.153793 L 86.120003 100.153793 C 87.25 100.153793 88.160004 101.028793 88.160004 102.114807 L 88.160004 106.038803 C 88.160004 107.124802 87.25 107.999802 86.120003 107.999802 L 82.040001 107.999802 C 80.910004 107.999802 80 107.124802 80 106.038803 Z M 80 90.114807 C 80 89.028793 80.910004 88.153793 82.040001 88.153793 L 86.120003 88.153793 C 87.25 88.153793 88.160004 89.028793 88.160004 90.114807 L 88.160004 94.038803 C 88.160004 95.124802 87.25 95.999802 86.120003 95.999802 L 82.040001 95.999802 C 80.910004 95.999802 80 95.124802 80 94.038803 Z M 80 78.114792 C 80 77.028793 80.910004 76.153793 82.040001 76.153793 L 86.120003 76.153793 C 87.25 76.153793 88.160004 77.028793 88.160004 78.114792 L 88.160004 82.038803 C 88.160004 83.124802 87.25 83.999802 86.120003 83.999802 L 82.040001 83.999802 C 80.910004 83.999802 80 83.124802 80 82.038803 Z M 80 66.114792 C 80 65.028793 80.910004 64.153793 82.040001 64.153793 L 86.120003 64.153793 C 87.25 64.153793 88.160004 65.028793 88.160004 66.114792 L 88.160004 70.038803 C 88.160004 71.124802 87.25 71.999802 86.120003 71.999802 L 82.040001 71.999802 C 80.910004 71.999802 80 71.124802 80 70.038803 Z M 80 54.114792 C 80 53.028793 80.910004 52.153793 82.040001 52.153793 L 86.120003 52.153793 C 87.25 52.153793 88.160004 53.028793 88.160004 54.114792 L 88.160004 58.038803 C 88.160004 59.124802 87.25 59.999802 86.120003 59.999802 L 82.040001 59.999802 C 80.910004 59.999802 80 59.124802 80 58.038803 Z M 80 42.114792 C 80 41.028793 80.910004 40.153793 82.040001 40.153793 L 86.120003 40.153793 C 87.25 40.153793 88.160004 41.028793 88.160004 42.114792 L 88.160004 46.038803 C 88.160004 47.124802 87.25 47.999802 86.120003 47.999802 L 82.040001 47.999802 C 80.910004 47.999802 80 47.124802 80 46.038803 Z M 92 177.945801 C 92 174.660797 94.875 171.999802 98.419998 171.999802 L 157.57901 171.999802 C 161.125 171.999802 164 174.660797 164 177.945801 L 164 206.05481 C 164 209.337799 161.125 211.999802 157.57901 211.999802 L 98.419998 211.999802 C 94.875 211.999802 92 209.337799 92 206.05481 Z M 92 133.945801 C 92 130.660797 94.875 127.999802 98.419998 127.999802 L 157.57901 127.999802 C 161.125 127.999802 164 130.660797 164 133.945801 L 164 162.05481 C 164 165.337799 161.125 167.999802 157.57901 167.999802 L 98.419998 167.999802 C 94.875 167.999802 92 165.337799 92 162.05481 Z M 92 89.944794 C 92 86.661804 94.875 83.999802 98.419998 83.999802 L 157.57901 83.999802 C 161.125 83.999802 164 86.661804 164 89.944794 L 164 118.054794 C 164 121.338806 161.125 123.999802 157.57901 123.999802 L 98.419998 123.999802 C 94.875 123.999802 92 121.338806 92 118.054794 Z M 92 45.944794 C 92 42.661789 94.875 39.999802 98.419998 39.999802 L 157.57901 39.999802 C 161.125 39.999802 164 42.661789 164 45.944794 L 164 74.054794 C 164 77.338791 161.125 79.999802 157.57901 79.999802 L 98.419998 79.999802 C 94.875 79.999802 92 77.338791 92 74.054794 Z M 167.839996 209.961792 C 167.839996 208.874802 168.75 207.999802 169.880005 207.999802 L 173.959991 207.999802 C 175.089996 207.999802 176 208.874802 176 209.961792 L 176 213.884796 C 176 214.971802 175.089996 215.845795 173.959991 215.845795 L 169.880005 215.845795 C 168.75 215.845795 167.839996 214.971802 167.839996 213.884796 Z M 167.839996 197.961792 C 167.839996 196.874802 168.75 195.999802 169.880005 195.999802 L 173.959991 195.999802 C 175.089996 195.999802 176 196.874802 176 197.961792 L 176 201.884796 C 176 202.971802 175.089996 203.845795 173.959991 203.845795 L 169.880005 203.845795 C 168.75 203.845795 167.839996 202.971802 167.839996 201.884796 Z M 167.839996 186.114807 C 167.839996 185.028809 168.75 184.1548 169.880005 184.1548 L 173.959991 184.1548 C 175.089996 184.1548 176 185.028809 176 186.114807 L 176 190.037811 C 176 191.124802 175.089996 191.999802 173.959991 191.999802 L 169.880005 191.999802 C 168.75 191.999802 167.839996 191.124802 167.839996 190.037811 Z M 167.839996 174.114807 C 167.839996 173.028809 168.75 172.1548 169.880005 172.1548 L 173.959991 172.1548 C 175.089996 172.1548 176 173.028809 176 174.114807 L 176 178.037811 C 176 179.124802 175.089996 179.999802 173.959991 179.999802 L 169.880005 179.999802 C 168.75 179.999802 167.839996 179.124802 167.839996 178.037811 Z M 167.839996 162.114807 C 167.839996 161.028809 168.75 160.1548 169.880005 160.1548 L 173.959991 160.1548 C 175.089996 160.1548 176 161.028809 176 162.114807 L 176 166.037811 C 176 167.124802 175.089996 167.999802 173.959991 167.999802 L 169.880005 167.999802 C 168.75 167.999802 167.839996 167.124802 167.839996 166.037811 Z M 167.839996 150.114807 C 167.839996 149.028809 168.75 148.1548 169.880005 148.1548 L 173.959991 148.1548 C 175.089996 148.1548 176 149.028809 176 150.114807 L 176 154.037811 C 176 155.124802 175.089996 155.999802 173.959991 155.999802 L 169.880005 155.999802 C 168.75 155.999802 167.839996 155.124802 167.839996 154.037811 Z M 167.839996 138.114807 C 167.839996 137.028809 168.75 136.1548 169.880005 136.1548 L 173.959991 136.1548 C 175.089996 136.1548 176 137.028809 176 138.114807 L 176 142.037811 C 176 143.124802 175.089996 143.999802 173.959991 143.999802 L 169.880005 143.999802 C 168.75 143.999802 167.839996 143.124802 167.839996 142.037811 Z M 167.839996 126.114807 C 167.839996 125.028793 168.75 124.153793 169.880005 124.153793 L 173.959991 124.153793 C 175.089996 124.153793 176 125.028793 176 126.114807 L 176 130.037811 C 176 131.124802 175.089996 131.999802 173.959991 131.999802 L 169.880005 131.999802 C 168.75 131.999802 167.839996 131.124802 167.839996 130.037811 Z M 167.839996 114.114807 C 167.839996 113.028793 168.75 112.153793 169.880005 112.153793 L 173.959991 112.153793 C 175.089996 112.153793 176 113.028793 176 114.114807 L 176 118.038803 C 176 119.124802 175.089996 119.999802 173.959991 119.999802 L 169.880005 119.999802 C 168.75 119.999802 167.839996 119.124802 167.839996 118.038803 Z M 167.839996 102.114807 C 167.839996 101.028793 168.75 100.153793 169.880005 100.153793 L 173.959991 100.153793 C 175.089996 100.153793 176 101.028793 176 102.114807 L 176 106.038803 C 176 107.124802 175.089996 107.999802 173.959991 107.999802 L 169.880005 107.999802 C 168.75 107.999802 167.839996 107.124802 167.839996 106.038803 Z M 167.839996 90.114807 C 167.839996 89.028793 168.75 88.153793 169.880005 88.153793 L 173.959991 88.153793 C 175.089996 88.153793 176 89.028793 176 90.114807 L 176 94.038803 C 176 95.124802 175.089996 95.999802 173.959991 95.999802 L 169.880005 95.999802 C 168.75 95.999802 167.839996 95.124802 167.839996 94.038803 Z M 167.839996 78.114792 C 167.839996 77.028793 168.75 76.153793 169.880005 76.153793 L 173.959991 76.153793 C 175.089996 76.153793 176 77.028793 176 78.114792 L 176 82.038803 C 176 83.124802 175.089996 83.999802 173.959991 83.999802 L 169.880005 83.999802 C 168.75 83.999802 167.839996 83.124802 167.839996 82.038803 Z M 167.839996 66.114792 C 167.839996 65.028793 168.75 64.153793 169.880005 64.153793 L 173.959991 64.153793 C 175.089996 64.153793 176 65.028793 176 66.114792 L 176 70.038803 C 176 71.124802 175.089996 71.999802 173.959991 71.999802 L 169.880005 71.999802 C 168.75 71.999802 167.839996 71.124802 167.839996 70.038803 Z M 167.839996 54.114792 C 167.839996 53.028793 168.75 52.153793 169.880005 52.153793 L 173.959991 52.153793 C 175.089996 52.153793 176 53.028793 176 54.114792 L 176 58.038803 C 176 59.124802 175.089996 59.999802 173.959991 59.999802 L 169.880005 59.999802 C 168.75 59.999802 167.839996 59.124802 167.839996 58.038803 Z M 167.839996 42.114792 C 167.839996 41.028793 168.75 40.153793 169.880005 40.153793 L 173.959991 40.153793 C 175.089996 40.153793 176 41.028793 176 42.114792 L 176 46.038803 C 176 47.124802 175.089996 47.999802 173.959991 47.999802 L 169.880005 47.999802 C 168.75 47.999802 167.839996 47.124802 167.839996 46.038803 Z M 86.120003 219.999802 L 92.358002 219.999802 C 93.229004 217.672806 95.611 215.999802 98.419998 215.999802 L 157.57901 215.999802 C 160.389008 215.999802 162.770996 217.672806 163.641998 219.999802 L 169.880005 219.999802 L 173.959991 219.999802 L 180 219.999802 L 180 35.999802 L 173.959991 35.999802 L 169.880005 35.999802 L 157.57901 35.999802 L 98.419998 35.999802 L 86.120003 35.999802 L 82.040001 35.999802 L 76 35.999802 L 76 219.999802 L 82.040001 219.999802 Z"/>
</svg>
