<?xml version="1.0" encoding="UTF-8"?>
<!-- Generated by Pixelmator Pro 3.7.1 -->
<svg width="256" height="256" viewBox="0 0 256 256" xmlns="http://www.w3.org/2000/svg">
    <path id="Path" fill="#ffffff" stroke="none" d="M 71 132 L 69 132 C 66.556 132 64.515999 133.763 64.084 136.084 C 61.763 136.515991 60 138.556 60 141 L 60 143 C 60 145.444 61.763 147.484009 64.084 147.916 C 64.515999 150.237 66.556 152 69 152 L 71 152 C 73.444 152 75.484001 150.237 75.916 147.916 C 78.237 147.484009 80 145.444 80 143 L 80 141 C 80 138.556 78.237 136.515991 75.916 136.084 C 75.484001 133.763 73.444 132 71 132 M 71 136 C 71.552002 136 72 136.446991 72 137 L 72 140 L 75 140 C 75.552002 140 76 140.446991 76 141 L 76 143 C 76 143.553009 75.552002 144 75 144 L 72 144 L 72 147 C 72 147.553009 71.552002 148 71 148 L 69 148 C 68.447998 148 68 147.553009 68 147 L 68 144 L 65 144 C 64.447998 144 64 143.553009 64 143 L 64 141 C 64 140.446991 64.447998 140 65 140 L 68 140 L 68 137 C 68 136.446991 68.447998 136 69 136 L 71 136"/>
    <path id="path1" fill="#ffffff" stroke="none" d="M 80 148 C 75.588997 148 72 151.588989 72 156 C 72 160.411011 75.588997 164 80 164 C 84.411003 164 88 160.411011 88 156 C 88 151.588989 84.411003 148 80 148 M 80 152 C 82.209 152 84 153.791 84 156 C 84 158.209 82.209 160 80 160 C 77.791 160 76 158.209 76 156 C 76 153.791 77.791 152 80 152"/>
    <path id="path2" fill="#ffffff" stroke="none" d="M 176 148 C 171.589005 148 168 151.588989 168 156 C 168 160.411011 171.589005 164 176 164 C 180.410995 164 184 160.411011 184 156 C 184 151.588989 180.410995 148 176 148 M 176 152 C 178.209 152 180 153.791 180 156 C 180 158.209 178.209 160 176 160 C 173.791 160 172 158.209 172 156 C 172 153.791 173.791 152 176 152"/>
    <path id="path3" fill="#ffffff" stroke="none" d="M 186 132 C 183.296997 132 181.005997 133.79599 180.257996 136.257996 C 177.796005 137.005997 176 139.296997 176 142 C 176 144.703003 177.796005 146.994003 180.257996 147.742004 C 181.005997 150.20401 183.296997 152 186 152 C 188.703003 152 190.994003 150.20401 191.742004 147.742004 C 194.203995 146.994003 196 144.703003 196 142 C 196 139.296997 194.203995 137.005997 191.742004 136.257996 C 190.994003 133.79599 188.703003 132 186 132 M 186 144 C 187.104004 144 188 144.895996 188 146 C 188 147.104004 187.104004 148 186 148 C 184.895996 148 184 147.104004 184 146 C 184 144.895996 184.895996 144 186 144 M 182 140 C 183.104004 140 184 140.895996 184 142 C 184 143.104004 183.104004 144 182 144 C 180.895996 144 180 143.104004 180 142 C 180 140.895996 180.895996 140 182 140 M 190 140 C 191.104004 140 192 140.895996 192 142 C 192 143.104004 191.104004 144 190 144 C 188.895996 144 188 143.104004 188 142 C 188 140.895996 188.895996 140 190 140 M 186 136 C 187.104004 136 188 136.895996 188 138 C 188 139.104004 187.104004 140 186 140 C 184.895996 140 184 139.104004 184 138 C 184 136.895996 184.895996 136 186 136"/>
    <path id="path4" fill="#ffffff" stroke="none" d="M 106 88 L 102 88 C 98.691002 88 96 90.690994 96 94 L 96 95.210999 L 96.671997 96.218994 L 100.671997 102.218994 L 104 107.210999 L 107.328003 102.218994 L 111.328003 96.218994 L 112 95.210999 L 112 94 C 112 90.690994 109.308998 88 106 88 M 106 92 C 107.103996 92 108 92.895996 108 94 L 104 100 L 100 94 C 100 92.895996 100.895996 92 102 92 L 106 92"/>
    <path id="path5" fill="#ffffff" stroke="none" d="M 118 88 L 114 88 C 110.691002 88 108 90.690994 108 94 L 108 95.210999 L 108.671997 96.218994 L 112.671997 102.218994 L 116 107.210999 L 119.328003 102.218994 L 123.328003 96.218994 L 124 95.210999 L 124 94 C 124 90.690994 121.308998 88 118 88 M 118 92 C 119.103996 92 120 92.895996 120 94 L 116 100 L 112 94 C 112 92.895996 112.895996 92 114 92 L 118 92"/>
    <path id="path6" fill="#ffffff" stroke="none" d="M 136 108 L 132 108 L 124 108 L 120 108 L 120 112 L 120 116 C 120 120.410995 123.588997 124 128 124 C 132.410995 124 136 120.410995 136 116 L 136 112 Z M 132 112 L 132 116 C 132 118.209 130.209 120 128 120 C 125.791 120 124 118.209 124 116 L 124 112 L 132 112"/>
    <path id="path7" fill="#ffffff" stroke="none" d="M 148 108 L 144 108 L 136 108 L 132 108 L 132 112 L 132 116 C 132 120.410995 135.589005 124 140 124 C 144.410995 124 148 120.410995 148 116 L 148 112 Z M 144 112 L 144 116 C 144 118.209 142.209 120 140 120 C 137.791 120 136 118.209 136 116 L 136 112 L 144 112"/>
    <path id="path8" fill="#ffffff" stroke="none" d="M 160 108 L 156 108 L 148 108 L 144 108 L 144 112 L 144 116 C 144 120.410995 147.589005 124 152 124 C 156.410995 124 160 120.410995 160 116 L 160 112 Z M 156 112 L 156 116 C 156 118.209 154.209 120 152 120 C 149.791 120 148 118.209 148 116 L 148 112 L 156 112"/>
    <path id="path9" fill="#ffffff" stroke="none" d="M 124 108 L 120 108 L 112 108 L 108 108 L 108 112 L 108 116 C 108 120.410995 111.588997 124 116 124 C 120.411003 124 124 120.410995 124 116 L 124 112 Z M 120 112 L 120 116 C 120 118.209 118.209 120 116 120 C 113.791 120 112 118.209 112 116 L 112 112 L 120 112"/>
    <path id="path10" fill="#ffffff" stroke="none" d="M 112 108 L 108 108 L 100 108 L 96 108 L 96 112 L 96 116 C 96 120.410995 99.588997 124 104 124 C 108.411003 124 112 120.410995 112 116 L 112 112 Z M 108 112 L 108 116 C 108 118.209 106.209 120 104 120 C 101.791 120 100 118.209 100 116 L 100 112 L 108 112"/>
    <path id="path11" fill="#ffffff" stroke="none" d="M 130 88 L 126 88 C 122.691002 88 120 90.690994 120 94 L 120 95.210999 L 120.671997 96.218994 L 124.671997 102.218994 L 128 107.210999 L 131.328003 102.218994 L 135.328003 96.218994 L 136 95.210999 L 136 94 C 136 90.690994 133.309006 88 130 88 M 130 92 C 131.104004 92 132 92.895996 132 94 L 128 100 L 124 94 C 124 92.895996 124.895996 92 126 92 L 130 92"/>
    <path id="path12" fill="#ffffff" stroke="none" d="M 142 88 L 138 88 C 134.690994 88 132 90.690994 132 94 L 132 95.210999 L 132.671997 96.218994 L 136.671997 102.218994 L 140 107.210999 L 143.328003 102.218994 L 147.328003 96.218994 L 148 95.210999 L 148 94 C 148 90.690994 145.309006 88 142 88 M 142 92 C 143.104004 92 144 92.895996 144 94 L 140 100 L 136 94 C 136 92.895996 136.895996 92 138 92 L 142 92"/>
    <path id="path13" fill="#ffffff" stroke="none" d="M 154 88 L 150 88 C 146.690994 88 144 90.690994 144 94 L 144 95.210999 L 144.671997 96.218994 L 148.671997 102.218994 L 152 107.210999 L 155.328003 102.218994 L 159.328003 96.218994 L 160 95.210999 L 160 94 C 160 90.690994 157.309006 88 154 88 M 154 92 C 155.104004 92 156 92.895996 156 94 L 152 100 L 148 94 C 148 92.895996 148.895996 92 150 92 L 154 92"/>
    <path id="path14" fill="#ffffff" stroke="none" d="M 130 148 L 130 148 C 128.895996 148 128 147.104004 128 146 C 128 144.895996 128.895996 144 130 144 C 131.104004 144 132 144.895996 132 146 C 132 147.104004 131.104004 148 130 148"/>
    <path id="path15" fill="#ffffff" stroke="none" d="M 126 140 L 126 140 C 124.896004 140 124 139.104004 124 138 C 124 136.895996 124.896004 136 126 136 C 127.103996 136 128 136.895996 128 138 C 128 139.104004 127.103996 140 126 140"/>
    <path id="path16" fill="#ffffff" stroke="none" d="M 130 132 L 130 132 C 128.895996 132 128 131.104004 128 130 C 128 128.895996 128.895996 128 130 128 C 131.104004 128 132 128.895996 132 130 C 132 131.104004 131.104004 132 130 132"/>
    <path id="path17" fill="#ffffff" stroke="none" d="M 128 152 C 124.236 152 121.070999 154.613007 120.223 158.119995 L 117.170998 161.171997 L 110.343002 168 L 120 168 L 136 168 L 145.656998 168 L 138.828003 161.171997 L 135.776993 158.119995 C 134.929001 154.613007 131.764008 152 128 152 M 128 156 C 130.209 156 132 157.791 132 160 L 136 164 L 120 164 L 124 160 C 124 157.791 125.791 156 128 156"/>
    <path id="path18" fill="#ffffff" stroke="none" d="M 220 36 L 36 36 L 36 220 L 220 220 Z M 216 216 L 40 216 L 40 40 L 216 40 Z"/>
    <path id="path19" fill="#ffffff" stroke="none" d="M 208 80 L 204 80 L 199.529007 80 L 56.470993 80 L 52 80 L 48 80 L 48 84 L 48 88.399994 L 48 167.600006 L 48 172 L 48 176 L 52 176 L 56.470993 176 L 199.529007 176 L 204 176 L 208 176 L 208 172 L 208 167.600006 L 208 88.399994 L 208 84 Z M 204 84 L 204 88.399994 L 204 167.600006 L 204 172 L 199.529007 172 L 56.470993 172 L 52 172 L 52 167.600006 L 52 88.399994 L 52 84 L 56.470993 84 L 199.529007 84 Z"/>
</svg>
