<?xml version="1.0" encoding="UTF-8"?>
<!-- Generated by Pixelmator Pro 3.7.1 -->
<svg width="256" height="256" viewBox="0 0 256 256" xmlns="http://www.w3.org/2000/svg">
    <path id="Path" fill="#ffffff" stroke="none" d="M 79.788597 99.130402 L 77.999603 98.236404 L 76.211601 99.130402 L 74.4226 95.553406 L 77.999603 93.763397 L 81.577599 95.553406 Z"/>
    <path id="path1" fill="#ffffff" stroke="none" d="M 68.377899 103.047394 L 66.588898 99.469406 L 71.288902 97.1194 L 73.077896 100.697403 Z M 60.544899 106.963394 L 58.755901 103.386398 L 63.455898 101.036407 L 65.244904 104.613403 Z M 52.710899 110.880402 L 50.921902 107.302399 L 55.622898 104.952393 L 57.4119 108.530396 Z"/>
    <path id="path2" fill="#ffffff" stroke="none" d="M 48 115 L 44 115 L 44 110.764008 L 47.789001 108.869995 L 49.577999 112.447006 L 48 113.235992 Z"/>
    <path id="path3" fill="#ffffff" stroke="none" d="M 48 123.822998 L 44 123.822998 L 44 118.529007 L 48 118.529007 Z M 48 132.645996 L 44 132.645996 L 44 127.352997 L 48 127.352997 Z M 48 141.471008 L 44 141.471008 L 44 136.177002 L 48 136.177002 Z"/>
    <path id="path4" fill="#ffffff" stroke="none" d="M 47.788601 151.13089 L 43.999599 149.235901 L 43.999599 144.999908 L 47.999599 144.999908 L 47.999599 146.763901 L 49.577599 147.552902 Z"/>
    <path id="path5" fill="#ffffff" stroke="none" d="M 55.622601 155.046906 L 50.9226 152.696899 L 52.710602 149.118896 L 57.410599 151.468903 Z M 63.455601 158.963898 L 58.7556 156.613892 L 60.544601 153.035889 L 65.244598 155.385895 Z M 71.288597 162.88089 L 66.5886 160.529907 L 68.377602 156.951904 L 73.077599 159.302902 Z"/>
    <path id="path6" fill="#ffffff" stroke="none" d="M 78 166.236298 L 74.421997 164.447296 L 76.210999 160.869293 L 78 161.763306 L 79.789001 160.869293 L 81.578003 164.447296 Z"/>
    <path id="path7" fill="#ffffff" stroke="none" d="M 100.377403 155.047897 L 98.588402 151.46991 L 103.288399 149.118896 L 105.0774 152.696899 Z M 92.544403 158.963898 L 90.755402 155.385895 L 95.455399 153.035889 L 97.2444 156.613892 Z M 84.710403 162.88089 L 82.922401 159.302902 L 87.622398 156.952911 L 89.4104 160.530899 Z"/>
    <path id="path8" fill="#ffffff" stroke="none" d="M 108.211403 151.13089 L 106.422401 147.552902 L 108.000397 146.763901 L 108.000397 144.999908 L 112.000397 144.999908 L 112.000397 149.235901 Z"/>
    <path id="path9" fill="#ffffff" stroke="none" d="M 112 123.824005 L 108 123.824005 L 108 118.529999 L 112 118.529999 Z M 112 132.647003 L 108 132.647003 L 108 127.352997 L 112 127.352997 Z M 112 141.471008 L 108 141.471008 L 108 136.177002 L 112 136.177002 Z"/>
    <path id="path10" fill="#ffffff" stroke="none" d="M 112 115 L 108 115 L 108 113.235992 L 106.421997 112.447006 L 108.210999 108.869995 L 112 110.764008 Z"/>
    <path id="path11" fill="#ffffff" stroke="none" d="M 87.622597 103.047394 L 82.9226 100.697403 L 84.711601 97.1194 L 89.411598 99.469406 Z M 95.455597 106.964401 L 90.7556 104.613403 L 92.544601 101.036407 L 97.244598 103.386398 Z M 103.289597 110.880402 L 98.5886 108.530396 L 100.377602 104.952393 L 105.078598 107.302399 Z"/>
    <path id="path12" fill="#ffffff" stroke="none" d="M 179.789093 99.130905 L 178.000107 98.235901 L 176.211105 99.130905 L 174.422104 95.552902 L 178.000107 93.763901 L 181.578094 95.552902 Z"/>
    <path id="path13" fill="#ffffff" stroke="none" d="M 168.377899 103.047394 L 166.588898 99.469406 L 171.288895 97.1194 L 173.077896 100.697403 Z M 160.544907 106.964401 L 158.755905 103.385406 L 163.455902 101.0354 L 165.244904 104.613403 Z M 152.710907 110.880402 L 150.921906 107.302399 L 155.621902 104.952393 L 157.410904 108.530396 Z"/>
    <path id="path14" fill="#ffffff" stroke="none" d="M 148 115 L 144 115 L 144 110.764008 L 147.789001 108.869003 L 149.578003 112.447006 L 148 113.235992 Z"/>
    <path id="path15" fill="#ffffff" stroke="none" d="M 148 123.822998 L 144 123.822998 L 144 118.529007 L 148 118.529007 Z M 148 132.645996 L 144 132.645996 L 144 127.352997 L 148 127.352997 Z M 148 141.471008 L 144 141.471008 L 144 136.177002 L 148 136.177002 Z"/>
    <path id="path16" fill="#ffffff" stroke="none" d="M 147.789093 151.13089 L 144.000107 149.235901 L 144.000107 144.999908 L 148.000107 144.999908 L 148.000107 146.763901 L 149.578094 147.552902 Z"/>
    <path id="path17" fill="#ffffff" stroke="none" d="M 155.622101 155.046906 L 150.922104 152.696899 L 152.711105 149.118896 L 157.411102 151.468903 Z M 163.455093 158.963898 L 158.755096 156.613892 L 160.544098 153.035889 L 165.244095 155.385895 Z M 171.289093 162.88089 L 166.589096 160.529907 L 168.378098 156.951904 L 173.078094 159.302902 Z"/>
    <path id="path18" fill="#ffffff" stroke="none" d="M 178 166.236298 L 174.421997 164.447296 L 176.210999 160.869293 L 178 161.763306 L 179.789001 160.869293 L 181.578003 164.447296 Z"/>
    <path id="path19" fill="#ffffff" stroke="none" d="M 200.377899 155.047897 L 198.588898 151.46991 L 203.288895 149.118896 L 205.077896 152.696899 Z M 192.5439 158.963898 L 190.754898 155.385895 L 195.454895 153.035889 L 197.243896 156.613892 Z M 184.710907 162.88089 L 182.921906 159.302902 L 187.621902 156.952911 L 189.410904 160.530899 Z"/>
    <path id="path20" fill="#ffffff" stroke="none" d="M 208.210907 151.13089 L 206.421906 147.552902 L 207.999893 146.763901 L 207.999893 144.999908 L 211.999893 144.999908 L 211.999893 149.235901 Z"/>
    <path id="path21" fill="#ffffff" stroke="none" d="M 212 123.824005 L 208 123.824005 L 208 118.529999 L 212 118.529999 Z M 212 132.647003 L 208 132.647003 L 208 127.352997 L 212 127.352997 Z M 212 141.471008 L 208 141.471008 L 208 136.177002 L 212 136.177002 Z"/>
    <path id="path22" fill="#ffffff" stroke="none" d="M 212 115 L 208 115 L 208 113.235992 L 206.421997 112.447006 L 208.210999 108.869003 L 212 110.764008 Z"/>
    <path id="path23" fill="#ffffff" stroke="none" d="M 187.622101 103.047394 L 182.922104 100.697403 L 184.711105 97.1194 L 189.411102 99.469406 Z M 195.4561 106.964401 L 190.756104 104.614395 L 192.545105 101.036407 L 197.245102 103.386398 Z M 203.289093 110.880402 L 198.589096 108.530396 L 200.378098 104.952393 L 205.078094 107.302399 Z"/>
    <path id="path24" fill="#ffffff" stroke="none" d="M 220 36 L 36 36 L 36 220 L 220 220 Z M 216 216 L 40 216 L 40 40 L 216 40 Z"/>
    <path id="path25" fill="#ffffff" stroke="none" d="M 128 132 L 124 132 L 120 132 L 120 128 L 124 128 L 128 128 L 132 130 Z M 133.789001 126.421997 L 129.789001 124.421997 L 124 121.528 L 124 124 L 120 124 L 116 124 L 116 128 L 116 132 L 116 136 L 120 136 L 124 136 L 124 138.472 L 129.789001 135.578003 L 133.789001 133.578003 L 140.944 130 Z"/>
</svg>
