<?xml version="1.0" encoding="UTF-8"?>
<!-- Generated by Pixelmator Pro 3.7.1 -->
<svg width="256" height="256" viewBox="0 0 256 256" xmlns="http://www.w3.org/2000/svg">
    <path id="Path" fill="#ffffff" stroke="none" d="M 180 88 C 177.863007 88 175.854004 88.832001 174.343994 90.343002 L 148 116.686996 L 121.656998 90.343002 C 120.145996 88.832001 118.137001 88 116 88 C 113.863998 88 111.855003 88.832001 110.344002 90.343002 C 108.832001 91.854996 108 93.863998 108 96 C 108 98.136002 108.832001 100.145004 110.343002 101.656006 L 136.686996 128 L 110.343002 154.343994 C 108.832001 155.854004 108 157.863007 108 160 C 108 162.136993 108.832001 164.145996 110.343002 165.656006 C 111.853996 167.167999 113.863998 168 116 168 C 118.137001 168 120.145996 167.167999 121.656998 165.656006 L 148 139.313004 L 174.343994 165.656006 C 175.854004 167.167999 177.863007 168 180 168 C 182.136993 168 184.145996 167.167999 185.656006 165.656006 C 187.167999 164.145996 188 162.136993 188 160 C 188 157.863007 187.167999 155.854004 185.656006 154.343994 L 159.313004 128 L 185.656006 101.656998 C 188.774994 98.537994 188.774994 93.462006 185.656006 90.343002 C 184.145996 88.832001 182.136993 88 180 88 M 180 92 C 181.022995 92 182.046997 92.391006 182.828003 93.171997 C 184.391006 94.733994 184.391006 97.266006 182.828003 98.828003 L 153.656006 128 L 182.828003 157.171997 C 184.391006 158.734009 184.391006 161.265991 182.828003 162.828003 C 182.046997 163.609009 181.022995 164 180 164 C 178.977005 164 177.953003 163.609009 177.171997 162.828003 L 148 133.656006 L 118.828003 162.828003 C 118.046997 163.609009 117.022995 164 116 164 C 114.976997 164 113.953003 163.609009 113.171997 162.828003 C 112.390999 162.046997 112 161.02301 112 160 C 112 158.97699 112.390999 157.953003 113.171997 157.171997 L 142.343994 128 L 113.171997 98.828003 C 112.390999 98.046997 112 97.022995 112 96 C 112 94.977005 112.390999 93.953003 113.171997 93.171997 C 113.953003 92.391006 114.976997 92 116 92 C 117.022995 92 118.046997 92.391006 118.828003 93.171997 L 148 122.343994 L 177.171997 93.171997 C 177.953003 92.391006 178.977005 92 180 92"/>
    <path id="path1" fill="#ffffff" stroke="none" d="M 95.995102 90.792496 C 94.649101 90.792496 93.307098 91.142502 92.115097 91.804504 L 62.963097 108.000504 L 52.899097 108.000504 C 47.9921 108.000504 44.000099 111.992508 44.000099 116.898499 L 44.000099 139.100494 C 44.000099 144.007507 47.9921 148.000504 52.899097 148.000504 L 62.963097 148.000504 L 92.115097 164.195496 C 93.307098 164.857513 94.649101 165.208496 95.995102 165.208496 C 100.409103 165.208496 104.000099 161.616501 104.000099 157.202515 L 104.000099 98.797501 C 104.000099 94.383499 100.409103 90.792496 95.995102 90.792496 M 95.995102 94.792496 C 98.087097 94.792496 100.000099 96.467499 100.000099 98.797501 L 100.000099 157.202515 C 100.000099 159.532501 98.087097 161.208496 95.995102 161.208496 C 95.349098 161.208496 94.686096 161.047501 94.058098 160.698502 L 64.000099 144.000504 L 52.899097 144.000504 C 50.1931 144.000504 48.000099 141.806503 48.000099 139.100494 L 48.000099 116.898499 C 48.000099 114.193497 50.1931 112.000504 52.899097 112.000504 L 64.000099 112.000504 L 94.058098 95.301498 C 94.686096 94.952499 95.349098 94.792496 95.995102 94.792496"/>
    <path id="path2" fill="#ffffff" stroke="none" d="M 220 36 L 36 36 L 36 220 L 220 220 Z M 216 216 L 40 216 L 40 40 L 216 40 Z"/>
</svg>
