<?xml version="1.0" encoding="UTF-8"?>
<!-- Generated by Pixelmator Pro 3.7.1 -->
<svg width="256" height="256" viewBox="0 0 256 256" xmlns="http://www.w3.org/2000/svg">
    <path id="Path" fill="#ffffff" stroke="none" d="M 220 36 L 36 36 L 36 220 L 220 220 Z M 216 216 L 40 216 L 40 40 L 216 40 Z"/>
    <path id="path1" fill="#ffffff" stroke="none" d="M 176 204 L 80 204 C 77.793999 204 76 202.205002 76 200 C 76 197.794006 77.793999 196 80 196 L 84 196 L 172 196 L 176 196 C 178.205994 196 180 197.794006 180 200 C 180 202.205994 178.205994 204 176 204 M 84 188 L 84 168 C 85.055 146.528 103.047997 129.278 125.490997 128.072998 L 124.421997 130.210999 L 120.421997 138.210999 L 120 139.056 L 120 140 C 120 143.610992 122.405998 146.667999 125.697998 147.658997 L 124.421997 150.210999 L 120.421997 158.210999 L 120 159.056 L 120 160 C 120 162.699997 121.348 165.087006 123.403 166.537003 C 122.688004 166.834 121.997002 167.194 121.344002 167.630005 L 89.780998 188.671997 L 84.789001 192 L 84 192 Z M 84 84 L 128 92 L 172 84 C 170.906006 106.266998 151.597992 124 128 124 C 104.402 124 85.094002 106.266998 84 84 M 80 56 C 77.793999 56 76 54.205994 76 52 C 76 49.794006 77.793999 48 80 48 L 176 48 C 178.205994 48 180 49.794006 180 52 C 180 54.205994 178.205994 56 176 56 L 172 56 L 84 56 Z M 172 64 L 172 79.934998 L 171.283997 80.063995 L 128 87.934998 L 84.714996 80.063995 L 84 79.934998 L 84 64 L 84 60 L 172 60 Z M 128 169.615005 C 129.546997 169.615005 131.093994 170.061996 132.436996 170.958008 L 164 192 L 92 192 L 123.561996 170.958008 C 124.905998 170.061996 126.453003 169.615005 128 169.615005 M 132 160 C 132 162.199997 130.199997 164 128 164 C 125.800003 164 124 162.199997 124 160 L 128 152 Z M 132 140 C 132 142.199997 130.199997 144 128 144 C 125.800003 144 124 142.199997 124 140 L 128 132 Z M 172 168 L 172 188 L 172 192 L 171.210999 192 L 166.218994 188.671997 L 134.656006 167.630005 C 134.002991 167.194 133.311996 166.834 132.597 166.537003 C 134.651001 165.087006 136 162.699997 136 160 L 136 159.056 L 135.578003 158.210999 L 131.578003 150.210999 L 130.302002 147.658997 C 133.593994 146.667999 136 143.610992 136 140 L 136 139.056 L 135.578003 138.210999 L 131.578003 130.210999 L 130.509003 128.072998 C 152.951004 129.278 170.945007 146.528 172 168 M 176 192 L 176 192 L 176 168 L 176 167.901001 L 175.994995 167.804001 C 175.018005 147.916992 161.011002 131.522003 142.070999 126 C 161.011002 120.47699 175.018005 104.083008 175.994995 84.195999 L 176 84.097992 L 176 84 L 176 60 C 180.417999 60 184 56.417999 184 52 C 184 47.582001 180.417999 44 176 44 L 80 44 C 75.582001 44 72 47.582001 72 52 C 72 56.417999 75.582001 60 80 60 L 80 84 L 80 84.097992 L 80.004997 84.195999 C 80.982002 104.083008 94.988998 120.47699 113.928001 126 C 94.988998 131.522003 80.982002 147.916992 80.004997 167.804001 L 80 167.901001 L 80 168 L 80 192 C 75.582001 192 72 195.582001 72 200 C 72 204.417999 75.582001 208 80 208 L 176 208 C 180.417999 208 184 204.417999 184 200 C 184 195.582001 180.417999 192 176 192"/>
</svg>
