<?xml version="1.0" encoding="UTF-8"?>
<!-- Generated by Pixelmator Pro 3.7.1 -->
<svg width="256" height="256" viewBox="0 0 256 256" xmlns="http://www.w3.org/2000/svg">
    <path id="Path" fill="#ffffff" stroke="none" d="M 90.055702 104.686005 L 97.493698 108.444 L 99.297699 104.873993 L 91.859703 101.115997 Z"/>
    <path id="path1" fill="#ffffff" stroke="none" d="M 101.213402 110.3237 L 108.651398 114.081696 L 110.455399 110.511703 L 103.017403 106.753693 Z"/>
    <path id="path2" fill="#ffffff" stroke="none" d="M 112.370598 115.960907 L 119.808601 119.718903 L 121.612602 116.148895 L 114.174599 112.3909 Z"/>
    <path id="path3" fill="#ffffff" stroke="none" d="M 78.898399 99.048798 L 86.336403 102.806793 L 88.140396 99.236801 L 80.7024 95.478806 Z"/>
    <path id="path4" fill="#ffffff" stroke="none" d="M 167.859406 99.236801 L 169.663406 102.806793 L 177.101395 99.048798 L 175.297394 95.478806 Z"/>
    <path id="path5" fill="#ffffff" stroke="none" d="M 134.387695 116.148895 L 136.191696 119.718903 L 143.6297 115.960907 L 141.825699 112.3909 Z"/>
    <path id="path6" fill="#ffffff" stroke="none" d="M 156.702103 104.873993 L 158.506104 108.444 L 165.944107 104.686005 L 164.140106 101.115997 Z"/>
    <path id="path7" fill="#ffffff" stroke="none" d="M 145.544907 110.511703 L 147.348907 114.081696 L 154.786896 110.3237 L 152.982895 106.753693 Z"/>
    <path id="path8" fill="#ffffff" stroke="none" d="M 130 125.617203 L 130 122.847198 L 132.473007 121.598206 L 130.669006 118.028198 L 128 119.376205 L 125.332001 118.028198 L 123.528 121.598206 L 126 122.847198 L 126 125.617203 Z"/>
    <path id="path9" fill="#ffffff" stroke="none" d="M 130 163.162994 L 126 163.162994 L 126 170.671997 L 130 170.671997 Z"/>
    <path id="path10" fill="#ffffff" stroke="none" d="M 126 181.936996 L 130 181.936996 L 130 174.427002 L 126 174.427002 Z"/>
    <path id="path11" fill="#ffffff" stroke="none" d="M 130 151.899002 L 126 151.899002 L 126 159.40799 L 130 159.40799 Z"/>
    <path id="path12" fill="#ffffff" stroke="none" d="M 130 140.636002 L 126 140.636002 L 126 148.144989 L 130 148.144989 Z"/>
    <path id="path13" fill="#ffffff" stroke="none" d="M 130 129.372009 L 126 129.372009 L 126 136.880997 L 130 136.880997 Z"/>
    <path id="path14" fill="#ffffff" stroke="none" d="M 127.4888 63.8535 L 129.952805 65.275497 L 131.952805 61.811493 L 127.4888 59.234497 L 123.024803 61.811493 L 125.024803 65.275497 Z"/>
    <path id="path15" fill="#ffffff" stroke="none" d="M 110.083 73.902298 L 108.083 70.438293 L 100.612 74.752304 L 102.612 78.215302 Z"/>
    <path id="path16" fill="#ffffff" stroke="none" d="M 98.876999 80.372604 L 96.876999 76.9086 L 89.405998 81.221603 L 91.405998 84.685593 Z"/>
    <path id="path17" fill="#ffffff" stroke="none" d="M 121.289597 67.432602 L 119.289597 63.968597 L 111.818604 68.282593 L 113.818604 71.745605 Z"/>
    <path id="path18" fill="#ffffff" stroke="none" d="M 87.670403 86.8423 L 85.670403 83.378296 L 78.199402 87.692307 L 80.199402 91.155304 Z"/>
    <path id="path19" fill="#ffffff" stroke="none" d="M 74 94.735397 L 76.463997 93.312393 L 74.463997 89.848404 L 70 92.4254 L 70 97.580399 L 74 97.580399 Z"/>
    <path id="path20" fill="#ffffff" stroke="none" d="M 74 140.713989 L 70 140.713989 L 70 149.339996 L 74 149.339996 Z"/>
    <path id="path21" fill="#ffffff" stroke="none" d="M 74 127.774002 L 70 127.774002 L 70 136.399994 L 74 136.399994 Z"/>
    <path id="path22" fill="#ffffff" stroke="none" d="M 74 114.834 L 70 114.834 L 70 123.460007 L 74 123.460007 Z"/>
    <path id="path23" fill="#ffffff" stroke="none" d="M 74 101.893997 L 70 101.893997 L 70 110.520004 L 74 110.520004 Z"/>
    <path id="path24" fill="#ffffff" stroke="none" d="M 76.463898 157.920898 L 73.999901 156.498901 L 73.999901 153.652893 L 69.999901 153.652893 L 69.999901 158.807892 L 74.463898 161.385895 Z"/>
    <path id="path25" fill="#ffffff" stroke="none" d="M 89.406303 170.012695 L 96.877296 174.325699 L 98.877296 170.861694 L 91.406303 166.547699 Z"/>
    <path id="path26" fill="#ffffff" stroke="none" d="M 87.670403 164.391602 L 80.199402 160.078598 L 78.199402 163.542603 L 85.670403 167.856598 Z"/>
    <path id="path27" fill="#ffffff" stroke="none" d="M 121.289597 183.801804 L 113.818604 179.4888 L 111.818604 182.952789 L 119.289597 187.2668 Z"/>
    <path id="path28" fill="#ffffff" stroke="none" d="M 110.083 177.3311 L 102.612 173.019104 L 100.612 176.483093 L 108.083 180.796097 Z"/>
    <path id="path29" fill="#ffffff" stroke="none" d="M 131.953094 189.422897 L 129.953094 185.957901 L 127.489098 187.38089 L 125.025101 185.957901 L 123.025101 189.422897 L 127.489098 191.999908 Z"/>
    <path id="path30" fill="#ffffff" stroke="none" d="M 176.778305 163.542999 L 174.778305 160.078003 L 167.307297 164.391998 L 169.307297 167.856003 Z"/>
    <path id="path31" fill="#ffffff" stroke="none" d="M 154.366196 176.482391 L 152.366196 173.017395 L 144.894196 177.33139 L 146.894196 180.79541 Z"/>
    <path id="path32" fill="#ffffff" stroke="none" d="M 143.159195 182.952103 L 141.159195 179.487091 L 133.688202 183.801102 L 135.688202 187.265106 Z"/>
    <path id="path33" fill="#ffffff" stroke="none" d="M 165.572296 170.012695 L 163.572296 166.547699 L 156.101303 170.861694 L 158.101303 174.325699 Z"/>
    <path id="path34" fill="#ffffff" stroke="none" d="M 184.977493 158.807602 L 184.977493 153.653595 L 180.977493 153.653595 L 180.977493 156.498596 L 178.513504 157.920593 L 180.513504 161.38559 Z"/>
    <path id="path35" fill="#ffffff" stroke="none" d="M 180.977997 110.520996 L 184.977997 110.520996 L 184.977997 101.895004 L 180.977997 101.895004 Z"/>
    <path id="path36" fill="#ffffff" stroke="none" d="M 180.977997 123.460007 L 184.977997 123.460007 L 184.977997 114.834 L 180.977997 114.834 Z"/>
    <path id="path37" fill="#ffffff" stroke="none" d="M 180.977997 149.339996 L 184.977997 149.339996 L 184.977997 140.713989 L 180.977997 140.713989 Z"/>
    <path id="path38" fill="#ffffff" stroke="none" d="M 180.977997 136.399994 L 184.977997 136.399994 L 184.977997 127.774002 L 180.977997 127.774002 Z"/>
    <path id="path39" fill="#ffffff" stroke="none" d="M 180.977493 97.580597 L 184.977493 97.580597 L 184.977493 92.425598 L 180.513504 89.848602 L 178.513504 93.312607 L 180.977493 94.735596 Z"/>
    <path id="path40" fill="#ffffff" stroke="none" d="M 176.778305 87.691895 L 169.307297 83.378906 L 167.307297 86.841904 L 174.778305 91.155899 Z"/>
    <path id="path41" fill="#ffffff" stroke="none" d="M 165.572296 81.222198 L 158.101303 76.909195 L 156.101303 80.372192 L 163.572296 84.686203 Z"/>
    <path id="path42" fill="#ffffff" stroke="none" d="M 154.365204 74.751999 L 146.894196 70.438995 L 144.894196 73.901993 L 152.365204 78.216003 Z"/>
    <path id="path43" fill="#ffffff" stroke="none" d="M 143.159195 68.282196 L 135.688202 63.969193 L 133.688202 67.432205 L 141.159195 71.746201 Z"/>
    <path id="path44" fill="#ffffff" stroke="none" d="M 216 216 L 40 216 L 40 40 L 216 40 Z M 36 220 L 220 220 L 220 36 L 36 36 Z"/>
</svg>
