<?xml version="1.0" encoding="UTF-8"?>
<!-- Generated by Pixelmator Pro 3.7.1 -->
<svg width="256" height="256" viewBox="0 0 256 256" xmlns="http://www.w3.org/2000/svg">
    <path id="Path" fill="#ffffff" stroke="none" d="M 128 85.410599 L 126.039001 86.513596 L 94.039001 104.513596 L 92 105.660599 L 92 107.999603 L 92 143.999603 L 92 146.3396 L 94.039001 147.486603 L 126.039001 165.486603 L 128 166.5896 L 129.960999 165.486603 L 161.960999 147.486603 L 164 146.3396 L 164 143.999603 L 164 107.999603 L 164 105.660599 L 161.960999 104.513596 L 129.960999 86.513596 Z M 128 89.999603 L 160 107.999603 L 160 143.999603 L 128 161.999603 L 96 143.999603 L 96 107.999603 Z"/>
    <path id="path1" fill="#ffffff" stroke="none" d="M 150.814499 122.412094 L 148.304504 124.834106 C 143.1035 119.773102 135.911499 116.636093 127.975502 116.636093 C 120.0625 116.636093 112.886497 119.756104 107.688499 124.793106 L 105.184502 122.366104 C 104.694504 121.891098 104.705498 121.127106 105.212502 120.671097 C 111.191498 115.293106 119.194496 112.000107 127.975502 112.000107 C 136.782501 112.000107 144.804504 115.312103 150.789505 120.717102 C 151.294495 121.174103 151.304504 121.938095 150.814499 122.412094 M 144.032501 128.957092 L 141.528503 131.3741 C 138.060501 128.000092 133.265503 125.909103 127.975502 125.909103 C 122.7005 125.909103 117.916504 127.988098 114.4515 131.347107 L 111.9515 128.924103 C 111.468498 128.4561 111.4785 127.669098 111.985504 127.227097 C 116.226501 123.5271 121.834503 121.272095 127.975502 121.272095 C 134.134506 121.272095 139.7565 123.541107 144.002502 127.260101 C 144.516495 127.711105 144.525497 128.48111 144.032501 128.957092 M 137.706497 135.062103 L 134.752502 137.914093 C 133.018494 136.226105 130.621506 135.181091 127.975502 135.181091 C 125.337502 135.181091 122.945503 136.2211 121.213501 137.899109 L 118.265503 135.043091 C 118.022499 134.807098 118.0355 134.42511 118.289497 134.199097 C 120.843498 131.931091 124.246498 130.545105 127.975502 130.545105 C 131.716507 130.545105 135.126495 131.939102 137.683502 134.220093 C 137.936493 134.445099 137.949493 134.827103 137.706497 135.062103 M 131.142502 141.397095 L 128.782501 143.67511 C 128.557495 143.891098 128.267502 144.000092 127.977501 144.000092 C 127.686501 144.000092 127.3955 143.891098 127.170502 143.673096 L 124.815498 141.391098 C 124.689499 141.269104 124.702499 141.0681 124.835503 140.9561 C 125.675499 140.246094 126.773499 139.817108 127.975502 139.817108 C 129.180496 139.817108 130.282501 140.2491 131.123505 140.962097 C 131.255493 141.075104 131.267502 141.276093 131.142502 141.397095 M 153.470505 117.7491 C 146.510498 111.462097 137.456497 108.000107 127.975502 108.000107 C 118.522499 108.000107 109.488503 111.444107 102.537498 117.697098 C 101.475502 118.6521 100.851501 120.015106 100.8255 121.434097 C 100.7985 122.856094 101.373497 124.243103 102.400497 125.238098 L 104.904503 127.6651 L 107.688499 130.363098 L 107.994499 130.066101 C 108.262505 130.71109 108.658501 131.303101 109.168503 131.797104 L 111.667503 134.219101 L 114.4515 136.917099 L 114.633499 136.740097 C 114.857498 137.168091 115.128502 137.57309 115.481499 137.9151 L 118.429504 140.772095 L 121.213501 143.470093 L 121.337502 143.349091 C 121.531502 143.679108 121.752502 143.992096 122.031502 144.263092 L 124.387497 146.546112 C 125.3545 147.483093 126.629501 148.000092 127.977501 148.000092 C 129.321503 148.000092 130.593506 147.486099 131.559494 146.553101 L 133.919495 144.275101 C 134.2005 144.006104 134.421494 143.692108 134.616501 143.363098 L 134.740494 143.4841 L 137.529495 140.792099 L 140.484497 137.940094 C 140.837494 137.600098 141.109497 137.195099 141.334503 136.76709 L 141.516495 136.944092 L 144.305496 134.252106 L 146.809494 131.83609 C 147.321503 131.342102 147.719498 130.752106 147.990494 130.1091 L 148.293503 130.404099 L 151.082504 127.712097 L 153.591507 125.2901 C 154.621506 124.297104 155.198502 122.912094 155.1745 121.490097 C 155.151505 120.070099 154.530502 118.7061 153.470505 117.7491"/>
    <path id="path2" fill="#ffffff" stroke="none" d="M 130 52 L 126 52 L 126 48 L 130 48 Z"/>
    <path id="path3" fill="#ffffff" stroke="none" d="M 130 60 L 126 60 L 126 56 L 130 56 Z"/>
    <path id="path4" fill="#ffffff" stroke="none" d="M 130 68 L 126 68 L 126 64 L 130 64 Z"/>
    <path id="path5" fill="#ffffff" stroke="none" d="M 130 76 L 126 76 L 126 72 L 130 72 Z"/>
    <path id="path6" fill="#ffffff" stroke="none" d="M 130 84 L 126 84 L 126 80 L 130 80 Z"/>
    <path id="path7" fill="#ffffff" stroke="none" d="M 130 176 L 126 176 L 126 172 L 130 172 Z"/>
    <path id="path8" fill="#ffffff" stroke="none" d="M 130 184 L 126 184 L 126 180 L 130 180 Z"/>
    <path id="path9" fill="#ffffff" stroke="none" d="M 130 192 L 126 192 L 126 188 L 130 188 Z"/>
    <path id="path10" fill="#ffffff" stroke="none" d="M 130 200 L 126 200 L 126 196 L 130 196 Z"/>
    <path id="path11" fill="#ffffff" stroke="none" d="M 130 208 L 126 208 L 126 204 L 130 204 Z"/>
    <path id="path12" fill="#ffffff" stroke="none" d="M 209.298798 82.889206 L 207.348801 79.397202 L 210.840805 77.447205 L 212.790802 80.939194 Z"/>
    <path id="path13" fill="#ffffff" stroke="none" d="M 202.313507 86.789597 L 200.363495 83.297607 L 203.855499 81.347595 L 205.806503 84.8396 Z"/>
    <path id="path14" fill="#ffffff" stroke="none" d="M 195.329102 90.690399 L 193.379105 87.198395 L 196.871094 85.247406 L 198.821106 88.740402 Z"/>
    <path id="path15" fill="#ffffff" stroke="none" d="M 188.344696 94.590805 L 186.394699 91.098801 L 189.886703 89.148804 L 191.8367 92.640793 Z"/>
    <path id="path16" fill="#ffffff" stroke="none" d="M 181.360397 98.491699 L 179.4104 94.999695 L 182.902405 93.048706 L 184.852402 96.541702 Z"/>
    <path id="path17" fill="#ffffff" stroke="none" d="M 174.375 102.392105 L 172.425003 98.900101 L 175.917007 96.950104 L 177.867004 100.442093 Z"/>
    <path id="path18" fill="#ffffff" stroke="none" d="M 167.390594 106.292999 L 165.440598 102.800003 L 168.932602 100.850006 L 170.882599 104.341995 Z"/>
    <path id="path19" fill="#ffffff" stroke="none" d="M 87.067398 151.149399 L 85.117401 147.65741 L 88.609398 145.707397 L 90.559402 149.199402 Z"/>
    <path id="path20" fill="#ffffff" stroke="none" d="M 80.082497 155.050797 L 78.1325 151.5578 L 81.624496 149.607803 L 83.5755 153.1008 Z"/>
    <path id="path21" fill="#ffffff" stroke="none" d="M 73.098099 158.951202 L 71.147102 155.459198 L 74.640099 153.509201 L 76.590103 157.00119 Z"/>
    <path id="path22" fill="#ffffff" stroke="none" d="M 66.113297 162.851593 L 64.1633 159.359589 L 67.655296 157.409607 L 69.605301 160.901611 Z"/>
    <path id="path23" fill="#ffffff" stroke="none" d="M 59.128899 166.751999 L 57.177898 163.26001 L 60.670898 161.309998 L 62.620899 164.802002 Z"/>
    <path id="path24" fill="#ffffff" stroke="none" d="M 52.144001 170.65329 L 50.194 167.160309 L 53.686001 165.210297 L 55.636002 168.702301 Z"/>
    <path id="path25" fill="#ffffff" stroke="none" d="M 45.159199 174.553711 L 43.209202 171.061707 L 46.701199 169.110703 L 48.652199 172.603699 Z"/>
    <path id="path26" fill="#ffffff" stroke="none" d="M 46.701698 82.889206 L 48.651699 79.397202 L 45.159698 77.447205 L 43.208698 80.939194 Z"/>
    <path id="path27" fill="#ffffff" stroke="none" d="M 53.686001 86.789597 L 55.636002 83.297607 L 52.144001 81.347595 L 50.194 84.8396 Z"/>
    <path id="path28" fill="#ffffff" stroke="none" d="M 60.670898 90.690399 L 62.620899 87.198395 L 59.128899 85.247406 L 57.177898 88.740402 Z"/>
    <path id="path29" fill="#ffffff" stroke="none" d="M 67.655296 94.590805 L 69.605301 91.098801 L 66.113297 89.148804 L 64.1633 92.640793 Z"/>
    <path id="path30" fill="#ffffff" stroke="none" d="M 74.640099 98.491699 L 76.590103 94.999695 L 73.098099 93.048706 L 71.147102 96.541702 Z"/>
    <path id="path31" fill="#ffffff" stroke="none" d="M 81.624496 102.392105 L 83.5755 98.900101 L 80.082497 96.950104 L 78.1325 100.442093 Z"/>
    <path id="path32" fill="#ffffff" stroke="none" d="M 88.609398 106.292999 L 90.559402 102.800003 L 87.067398 100.850006 L 85.117401 104.341995 Z"/>
    <path id="path33" fill="#ffffff" stroke="none" d="M 168.932602 151.149399 L 170.882599 147.65741 L 167.390594 145.707397 L 165.440598 149.199402 Z"/>
    <path id="path34" fill="#ffffff" stroke="none" d="M 175.917007 155.050797 L 177.867004 151.5578 L 174.375 149.607803 L 172.425003 153.1008 Z"/>
    <path id="path35" fill="#ffffff" stroke="none" d="M 182.902298 158.951202 L 184.852295 155.459198 L 181.360306 153.509201 L 179.410294 157.00119 Z"/>
    <path id="path36" fill="#ffffff" stroke="none" d="M 189.886703 162.851593 L 191.8367 159.359589 L 188.344696 157.409607 L 186.394699 160.901611 Z"/>
    <path id="path37" fill="#ffffff" stroke="none" d="M 196.871094 166.751999 L 198.821106 163.26001 L 195.329102 161.309998 L 193.379105 164.802002 Z"/>
    <path id="path38" fill="#ffffff" stroke="none" d="M 203.855499 170.65329 L 205.806503 167.160309 L 202.313507 165.210297 L 200.363495 168.702301 Z"/>
    <path id="path39" fill="#ffffff" stroke="none" d="M 210.840805 174.553711 L 212.790802 171.061707 L 209.298798 169.110703 L 207.348801 172.603699 Z"/>
    <path id="path40" fill="#ffffff" stroke="none" d="M 220 36 L 36 36 L 36 220 L 220 220 Z M 216 216 L 40 216 L 40 40 L 216 40 Z"/>
</svg>
