<?xml version="1.0" encoding="UTF-8"?>
<!-- Generated by Pixelmator Pro 3.7.1 -->
<svg width="256" height="256" viewBox="0 0 256 256" xmlns="http://www.w3.org/2000/svg">
    <path id="Path" fill="#ffffff" stroke="none" d="M 159.1064 135.489304 C 159.685394 133.085297 160.000397 130.5793 160.000397 128.000305 C 160.000397 125.466293 159.695404 123.004303 159.135406 120.639297 L 180.000397 128.1073 Z M 155.288406 111.306305 C 152.664398 107.033295 149.065399 103.423294 144.803406 100.782303 L 164.845398 91.306305 Z M 164.693405 164.845306 L 144.694397 155.2883 C 148.9664 152.664307 152.577393 149.065308 155.217407 144.803299 Z M 128.000397 156.000305 C 112.5364 156.000305 100.000404 143.464294 100.000404 128.000305 C 100.000404 112.536301 112.5364 100.000305 128.000397 100.000305 C 143.463394 100.000305 156.000397 112.536301 156.000397 128.000305 C 156.000397 143.464294 143.463394 156.000305 128.000397 156.000305 M 127.892403 180.000305 L 120.511398 159.106293 C 122.915398 159.685303 125.420403 160.000305 128.000397 160.000305 C 130.533401 160.000305 132.996399 159.695297 135.361404 159.1353 Z M 91.154396 164.693298 L 100.711403 144.694305 C 103.335403 148.9673 106.935402 152.577301 111.196404 155.218292 Z M 91.306396 91.155304 L 111.306404 100.712296 C 107.033401 103.336304 103.422401 106.935303 100.782402 111.196304 Z M 128.107407 76.000305 L 135.489395 96.893295 C 133.085403 96.315308 130.579407 96.000305 128.000397 96.000305 C 125.4664 96.000305 123.004402 96.305298 120.639404 96.864304 Z M 96.864403 135.361298 L 76.000397 127.892303 L 96.893402 120.511307 C 96.3144 122.915298 96.000404 125.421295 96.000404 128.000305 C 96.000404 130.533295 96.305405 132.996307 96.864403 135.361298 M 181.347397 124.341293 L 160.484406 116.873306 C 160.044403 116.716293 159.588394 116.639297 159.136398 116.639297 C 158.7444 116.639297 158.357407 116.712296 157.982407 116.825302 C 157.730392 116.150299 157.451401 115.489304 157.155396 114.836304 C 157.901398 114.441299 158.520401 113.819305 158.8974 113.031296 L 168.392395 93.159302 C 168.683395 92.605301 168.847397 91.975296 168.847397 91.306305 C 168.847397 89.118301 167.093399 87.341309 164.914398 87.306305 C 164.890396 87.306305 164.867401 87.306305 164.844406 87.306305 C 164.739395 87.306305 164.634399 87.310303 164.529404 87.318298 C 164.004395 87.359299 163.508392 87.502304 163.059402 87.726303 L 143.093399 97.166306 C 142.304398 97.539307 141.679398 98.155304 141.282394 98.8983 C 140.633408 98.601303 139.976395 98.323303 139.305405 98.069305 C 139.553406 97.262299 139.551407 96.3853 139.260406 95.561295 L 131.878403 74.667297 C 131.315399 73.072296 129.807404 72.003296 128.115402 72.000305 L 128.107407 72.000305 C 126.418404 72.000305 124.9104 73.061295 124.3414 74.652298 L 116.873398 95.516296 C 116.579399 96.337296 116.572403 97.214294 116.816399 98.020294 C 116.145401 98.272308 115.485405 98.550308 114.836403 98.844299 C 114.441399 98.098297 113.818405 97.479309 113.030403 97.103302 L 93.031403 87.545303 C 92.4804 87.282303 91.891403 87.154297 91.307396 87.154297 C 90.2714 87.154297 89.250397 87.556305 88.483398 88.320297 C 87.284401 89.514297 86.9664 91.334305 87.6894 92.864304 L 97.166405 112.906296 C 97.539398 113.695297 98.154404 114.320297 98.898399 114.718307 C 98.600403 115.368301 98.320404 116.030304 98.065399 116.703308 C 97.708405 116.594299 97.338402 116.516296 96.946404 116.511307 L 96.893402 116.511307 C 96.822403 116.511307 96.752403 116.512299 96.682404 116.516296 C 96.2584 116.5383 95.852402 116.627304 95.473404 116.770294 L 74.667397 124.121307 C 73.071396 124.685303 72.003403 126.192307 72.000397 127.8853 C 71.996399 129.577301 73.058403 131.089294 74.651398 131.659302 L 95.516403 139.127289 C 95.955399 139.284302 96.4114 139.361298 96.863403 139.361298 C 97.256401 139.361298 97.642403 139.2883 98.017403 139.175293 C 98.269402 139.849304 98.548401 140.5103 98.844398 141.164307 C 98.098404 141.558289 97.479401 142.180298 97.103401 142.968292 L 87.545403 162.968292 C 86.815399 164.496307 87.126396 166.317291 88.320396 167.516296 C 89.087402 168.287292 90.114403 168.693298 91.155403 168.693298 C 91.734398 168.693298 92.317398 168.568298 92.864403 168.309296 L 112.906403 158.83429 C 113.695404 158.461304 114.319405 157.844299 114.7174 157.101303 C 115.365402 157.3983 116.023399 157.6763 116.694405 157.930298 C 116.446404 158.737305 116.448402 159.615295 116.739403 160.438293 L 124.121399 181.332306 C 124.685402 182.927307 126.191399 183.996307 127.884399 184.000305 L 127.893402 184.000305 C 129.582397 184.000305 131.089401 182.938293 131.659393 181.347305 L 139.074402 160.631302 C 139.260406 160.169312 139.363403 159.664307 139.363403 159.1353 C 139.363403 158.7323 139.286407 158.349304 139.174408 157.9823 C 139.849396 157.730301 140.510406 157.451294 141.164398 157.155304 C 141.558395 157.901306 142.180405 158.520294 142.969406 158.897308 L 162.968399 168.4543 C 163.519394 168.718292 164.108398 168.845306 164.692398 168.845306 C 165.728394 168.845306 166.749405 168.443298 167.516403 167.679291 C 168.715393 166.485291 169.033401 164.66629 168.309402 163.1353 L 158.834396 143.093292 C 158.460403 142.304291 157.844406 141.680298 157.101395 141.282303 C 157.400406 140.632294 157.679398 139.970306 157.934402 139.297302 C 158.314407 139.414307 158.707397 139.489304 159.1064 139.489304 C 159.553406 139.489304 160.003403 139.414307 160.4384 139.2603 L 181.332397 131.879303 C 182.927399 131.315308 183.996399 129.807297 184.000397 128.115295 C 184.003403 126.423294 182.941406 124.911301 181.347397 124.341293"/>
    <path id="path1" fill="#ffffff" stroke="none" d="M 220 36 L 36 36 L 36 220 L 220 220 Z M 216 216 L 40 216 L 40 40 L 216 40 Z"/>
</svg>
