<?xml version="1.0" encoding="UTF-8"?>
<!-- Generated by Pixelmator Pro 3.7.1 -->
<svg width="256" height="256" viewBox="0 0 256 256" xmlns="http://www.w3.org/2000/svg">
    <path id="Path" fill="#ffffff" stroke="none" d="M 120 96 L 88 96 L 88 92 L 120 92 Z"/>
    <path id="path1" fill="#ffffff" stroke="none" d="M 120 80 L 88 80 L 88 76 L 120 76 Z"/>
    <path id="path2" fill="#ffffff" stroke="none" d="M 116 104 L 88 104 L 88 100 L 116 100 Z"/>
    <path id="path3" fill="#ffffff" stroke="none" d="M 116 88 L 88 88 L 88 84 L 116 84 Z"/>
    <path id="path4" fill="#ffffff" stroke="none" d="M 120 112 L 88 112 L 88 108 L 120 108 Z"/>
    <path id="path5" fill="#ffffff" stroke="none" d="M 144 120 L 88 120 L 88 116 L 144 116 Z"/>
    <path id="path6" fill="#ffffff" stroke="none" d="M 132 128 L 88 128 L 88 124 L 132 124 Z"/>
    <path id="path7" fill="#ffffff" stroke="none" d="M 124 136 L 88 136 L 88 132 L 124 132 Z"/>
    <path id="path8" fill="#ffffff" stroke="none" d="M 116 144 L 88 144 L 88 140 L 116 140 Z"/>
    <path id="path9" fill="#ffffff" stroke="none" d="M 184 132 L 180 136 L 179.755997 136.244003 C 178.322006 125.365997 170.634995 117.677994 159.755997 116.244003 L 160 116 L 164 112 L 168 108 C 180 108 188 116 188 128 Z M 172 144 C 172 132 164 124 152 124 L 156 120 C 168 120 176 128 176 140 Z M 144 132 L 148 128 C 160 128 168 136 168 148 L 164 152 C 164 140 156 132 144 132 M 158.785995 145.213989 C 159.574005 147.216003 160 149.48999 160 152 L 160 156 L 139.755997 176.244003 C 139.31601 172.912003 138.291 169.878998 136.766998 167.233002 Z M 134.419998 163.923004 C 133.699997 163.082001 132.917999 162.300003 132.076996 161.580002 L 154.395996 139.261993 C 155.270996 139.945007 156.054993 140.729004 156.738007 141.604004 Z M 119.755997 156.244003 L 140 136 L 144 136 C 146.509995 136 148.783997 136.425995 150.785995 137.213989 L 128.765991 159.233002 C 126.121002 157.709 123.087997 156.68399 119.755997 156.244003 M 124 180 L 118.343002 180 L 116 180 L 116 177.656998 L 116 172 C 120 172 124 176 124 180 M 116 168 L 116 160 C 119.697998 160 123.012001 160.764999 125.833 162.166992 C 127.078995 162.785995 128.223999 163.531998 129.265991 164.391998 C 130.121002 165.097 130.903 165.878998 131.608002 166.734009 C 132.468002 167.774994 133.214005 168.921997 133.833008 170.166992 C 135.235001 172.988007 136 176.302002 136 180 L 128 180 C 128 173.832001 122.167999 168 116 168 M 172 188 L 84 188 L 84 68 L 96 68 L 124 68 L 128 68 L 128 112 L 158.343002 112 L 157.171997 113.171005 L 154.343002 116 L 153.171997 117.171005 L 149.171997 121.171005 L 146.343002 124 L 145.171997 125.171005 L 142.343002 128 L 141.171997 129.171997 L 134.343002 136 L 114.343002 156 L 112 158.343002 L 112 160 L 112 168 L 112 172 L 112 180 L 112 181.656998 L 112 184 L 114.343002 184 L 116 184 L 124 184 L 128 184 L 136 184 L 137.656998 184 L 140 181.656998 L 160 161.656998 L 166.828003 154.828003 L 168 153.656998 L 170.828003 150.828003 L 172 149.656998 Z M 132 73.656998 L 164.343002 106 L 164 106.343002 L 162.343002 108 L 132 108 Z M 168 104 L 128 64 L 80 64 L 80 192 L 176 192 L 176 145.656998 L 178.828003 142.828003 L 180 141.656998 L 182.828003 138.828003 L 189.656998 132 L 190.828003 130.828003 L 192 129.656998 L 192 128 C 192 113.869003 182.130997 104 168 104"/>
    <path id="path10" fill="#ffffff" stroke="none" d="M 220 36 L 36 36 L 36 220 L 220 220 Z M 216 216 L 40 216 L 40 40 L 216 40 Z"/>
</svg>
