<?xml version="1.0" encoding="UTF-8"?>
<!-- Generated by Pixelmator Pro 3.7.1 -->
<svg width="256" height="256" viewBox="0 0 256 256" xmlns="http://www.w3.org/2000/svg">
    <path id="Path" fill="#ffffff" stroke="none" d="M 169.599594 164.400391 L 157.249603 158.648407 C 152.418594 163.261398 146.506607 166.745392 139.917603 168.669403 L 139.039597 178.814392 C 135.4776 179.584396 131.790604 180.000397 127.999603 180.000397 C 124.208603 180.000397 120.522598 179.584396 116.9506 178.819397 L 116.076599 168.674408 C 109.498596 166.750397 103.580605 163.266403 98.749603 158.654404 L 86.399605 164.400391 C 81.4496 158.950409 78.287605 150.776398 75.999603 143.599396 L 85.300598 138.799408 C 85.298599 138.877396 85.288605 138.952393 85.288605 139.029388 C 85.288605 141.166397 86.121605 143.1754 87.632599 144.686401 L 101.774605 158.8284 L 104.6026 161.65741 C 106.114601 163.168396 108.122597 164.000397 110.259598 164.000397 C 112.396599 164.000397 114.405602 163.168396 115.916603 161.65741 L 128.842606 148.7314 C 139.655594 148.296402 148.326599 139.621399 148.757599 128.816406 L 169.657593 107.917404 C 172.776596 104.797394 172.776596 99.722397 169.657593 96.603409 C 168.145599 95.0914 166.136597 94.259399 163.999603 94.259399 C 163.955597 94.259399 163.912598 94.265396 163.869598 94.266403 L 169.599594 91.600403 C 174.544601 97.049408 177.716599 105.224396 179.999603 112.400406 L 169.178604 117.984406 C 169.963593 121.193405 170.384598 124.547394 170.384598 128.000397 C 170.384598 131.4534 169.963593 134.801392 169.178604 138.015396 L 179.999603 143.599396 C 177.716599 150.776398 174.544601 158.950409 169.599594 164.400391 M 75.999603 112.400406 C 78.287605 105.224396 81.4496 97.049408 86.399605 91.600403 L 98.749603 97.351395 C 103.580605 92.738403 109.498596 89.254395 116.076599 87.331406 L 116.9506 77.18541 C 120.522598 76.416397 124.208603 76.000397 127.999603 76.000397 C 131.790604 76.000397 135.4776 76.416397 139.039597 77.180405 L 139.917603 87.325409 C 146.506607 89.249405 152.418594 92.733398 157.249603 97.345398 L 157.905594 97.041397 L 142.168594 112.777405 C 138.453598 109.311401 133.481598 107.173401 127.999603 107.173401 C 116.513603 107.173401 107.2006 116.487396 107.2006 127.979401 C 107.2006 133.45639 109.337601 138.426392 112.803596 142.142395 L 110.259598 144.686401 L 98.946602 133.373398 C 97.434601 131.861389 95.426605 131.029404 93.288605 131.029404 C 91.152603 131.029404 89.1436 131.861389 87.632599 133.373398 C 87.077599 133.927399 86.6166 134.5504 86.251602 135.220398 C 85.846603 132.87439 85.620605 130.464401 85.620605 128.000397 C 85.620605 124.547394 86.0466 121.193405 86.821602 117.984406 Z M 115.635597 139.310394 C 112.891602 136.319397 111.2006 132.347397 111.2006 127.979401 C 111.2006 118.712402 118.736603 111.173401 127.999603 111.173401 C 132.370605 111.173401 136.343597 112.865402 139.334595 115.611404 Z M 143.717606 133.855408 C 142.015594 138.388397 138.416595 141.987396 133.883606 143.690399 Z M 161.1716 99.431396 C 162.733597 97.8694 165.266602 97.8694 166.828598 99.431396 C 168.390594 100.993393 168.390594 103.526398 166.828598 105.088394 L 113.0886 158.8284 C 111.526596 160.390396 108.993599 160.390396 107.431602 158.8284 L 104.6026 156.000397 L 90.460602 141.857391 C 88.898605 140.296402 88.898605 137.76239 90.460602 136.201401 C 92.022598 134.638397 94.555603 134.638397 96.117599 136.201401 L 110.259598 150.342407 Z M 173.711594 135.853394 C 174.159607 133.259399 174.384598 130.629395 174.384598 128.000397 C 174.384598 125.367401 174.159607 122.736404 173.712601 120.146393 L 181.834595 115.954407 L 184.835602 114.405396 L 183.8116 111.187393 C 181.734604 104.657394 178.308594 95.2444 172.562607 88.912399 L 170.582596 86.7314 L 167.912598 87.973404 L 157.956604 92.605408 C 153.724594 89.0224 148.863602 86.210403 143.674606 84.344406 L 143.024597 76.835403 L 142.769608 73.889404 L 139.878601 73.269409 C 135.953598 72.427399 131.956604 72.000397 127.999603 72.000397 C 124.036598 72.000397 120.035599 72.429398 116.107597 73.275406 L 113.218597 73.8974 L 112.9646 76.842407 L 112.318604 84.350403 C 107.131599 86.218399 102.273605 89.029404 98.043602 92.609406 L 88.0886 87.973404 L 85.418602 86.7314 L 83.439598 88.9104 C 77.773605 95.1474 74.451599 104.090393 72.188599 111.185394 L 71.162605 114.404404 L 74.165604 115.954407 L 82.292603 120.149399 C 81.845604 122.754395 81.620605 125.382401 81.620605 128.000397 C 81.620605 130.61441 81.845604 133.243408 82.292603 135.850403 L 74.165604 140.046402 L 71.162605 141.595398 L 72.188599 144.815399 C 74.451599 151.9104 77.773605 160.853394 83.439598 167.089401 L 85.418602 169.268402 L 88.087601 168.026398 L 98.042603 163.394409 C 102.273605 166.975403 107.1306 169.786407 112.318604 171.654404 L 112.9646 179.163391 L 113.218597 182.112396 L 116.113602 182.7314 C 120.048599 183.573395 124.0476 184.000397 127.999603 184.000397 C 131.967606 184.000397 135.965607 183.570404 139.884598 182.724396 L 142.769608 182.100403 L 143.024597 179.159393 L 143.674606 171.650391 C 148.864594 169.784393 153.723602 166.973389 157.955597 163.390411 L 167.911606 168.026398 L 170.581604 169.269409 L 172.562607 167.088409 C 178.308594 160.755402 181.734604 151.3414 183.8116 144.812408 L 184.835602 141.594391 L 181.834595 140.046402 Z"/>
    <path id="path1" fill="#ffffff" stroke="none" d="M 220 36 L 36 36 L 36 220 L 220 220 Z M 216 216 L 40 216 L 40 40 L 216 40 Z"/>
</svg>
