<?xml version="1.0" encoding="UTF-8"?>
<!-- Generated by Pixelmator Pro 3.7.1 -->
<svg width="256" height="256" viewBox="0 0 256 256" xmlns="http://www.w3.org/2000/svg">
    <path id="Path" fill="#ffffff" stroke="none" d="M 128 212 C 81.608002 212 44 174.391998 44 128 C 44 81.608002 81.608002 44 128 44 C 174.391998 44 212 81.608002 212 128 C 212 174.391998 174.391998 212 128 212 M 128 40 C 79.477005 40 40 79.477005 40 128 C 40 176.522995 79.477005 216 128 216 C 176.522995 216 216 176.522995 216 128 C 216 79.477005 176.522995 40 128 40"/>
    <path id="path1" fill="#ffffff" stroke="none" d="M 176 188 C 169.373001 188 164 182.626999 164 176 C 164 170.777008 167.343002 166.347 172 164.696991 L 172 136 C 172 133.791 170.209 132 168 132 L 151.662003 132 C 151.880005 130.697998 152 129.363007 152 128 C 152 126.636002 151.880005 125.300995 151.662003 124 L 168 124 C 170.209 124 172 122.209 172 120 L 172 91.303009 C 167.343002 89.653 164 85.222992 164 80 C 164 73.373001 169.373001 68 176 68 C 182.626999 68 188 73.373001 188 80 C 188 85.222992 184.656998 89.653 180 91.303009 L 180 164.696991 C 184.656998 166.347 188 170.777008 188 176 C 188 182.626999 182.626999 188 176 188 M 142.143005 142.143005 C 140.274994 144.009003 138.126999 145.416 135.837997 146.390991 C 135.634995 146.477997 135.431 146.561005 135.225006 146.640991 C 134.774994 146.813995 134.322998 146.977005 133.865005 147.115997 C 133.737 147.156006 133.606995 147.19101 133.479004 147.229004 C 129.899994 148.244003 126.098999 148.244003 122.520996 147.229004 C 122.393005 147.19101 122.263 147.156006 122.134995 147.115997 C 121.677002 146.977005 121.224998 146.813995 120.776001 146.640991 C 120.57 146.561005 120.365005 146.477997 120.162003 146.390991 C 117.874001 145.416 115.724998 144.009003 113.858002 142.143005 C 111.990997 140.274994 110.583 138.126999 109.609001 135.837997 C 109.522003 135.634995 109.439003 135.431 109.359001 135.223999 C 109.185997 134.774994 109.024002 134.322998 108.884003 133.865997 C 108.844002 133.737 108.807999 133.606995 108.771004 133.477997 C 107.754997 129.899994 107.754997 126.100006 108.771004 122.52301 C 108.807999 122.393005 108.844002 122.263 108.884003 122.134003 C 109.024002 121.677002 109.185997 121.225006 109.359001 120.776001 C 109.439003 120.570007 109.522003 120.36499 109.609001 120.162003 C 110.584 117.873001 111.990997 115.725006 113.858002 113.858002 C 115.724998 111.990997 117.873001 110.583008 120.162003 109.609009 C 120.365005 109.522003 120.57 109.438995 120.776001 109.359009 C 121.224998 109.186005 121.675995 109.024002 122.134003 108.884003 C 122.263 108.843994 122.393005 108.807999 122.522995 108.770996 C 126.099998 107.755005 129.899994 107.755005 133.477997 108.770996 C 133.606995 108.807999 133.737 108.843994 133.865997 108.884003 C 134.322998 109.024002 134.774994 109.186005 135.223999 109.359009 C 135.429993 109.438995 135.634995 109.522003 135.839005 109.609009 C 138.126999 110.584 140.274994 111.990997 142.143005 113.858002 C 144.009003 115.725006 145.416 117.873001 146.391006 120.162003 C 146.477997 120.36499 146.561005 120.570007 146.641998 120.776001 C 146.813995 121.225006 146.977005 121.677002 147.115997 122.134003 C 147.156006 122.263 147.192001 122.393005 147.229004 122.52301 C 148.244003 126.100006 148.244003 129.899994 147.229004 133.477997 C 147.192001 133.606995 147.156006 133.737 147.115997 133.865005 C 146.977005 134.322998 146.813995 134.774994 146.641006 135.225006 C 146.561005 135.431 146.477997 135.634995 146.391006 135.837997 C 145.416 138.126999 144.009003 140.274994 142.143005 142.143005 M 140 176 C 140 182.626999 134.626999 188 128 188 C 121.373001 188 116 182.626999 116 176 C 116 170.777008 119.341995 166.347 124 164.696991 L 124 151.662003 C 125.300995 151.880005 126.636002 152 128 152 C 129.363007 152 130.697998 151.880005 132 151.662003 L 132 164.696991 C 136.656998 166.347 140 170.777008 140 176 M 88 132 C 85.791 132 84 133.791 84 136 L 84 164.696991 C 88.657997 166.347 92 170.777008 92 176 C 92 182.626999 86.626999 188 80 188 C 73.373001 188 68 182.626999 68 176 C 68 170.777008 71.342003 166.347 76 164.696991 L 76 91.303009 C 71.342003 89.653 68 85.222992 68 80 C 68 73.373001 73.373001 68 80 68 C 86.626999 68 92 73.373001 92 80 C 92 85.222992 88.657997 89.653 84 91.303009 L 84 120 C 84 122.209 85.791 124 88 124 L 104.337997 124 C 104.120003 125.300995 104 126.636002 104 128 C 104 129.363007 104.120003 130.697998 104.337997 132 Z M 116 80 C 116 73.373001 121.373001 68 128 68 C 134.626999 68 140 73.373001 140 80 C 140 85.222992 136.656998 89.653 132 91.303009 L 132 104.337997 C 130.697998 104.119995 129.363007 104 128 104 C 126.636002 104 125.300995 104.119995 124 104.337997 L 124 91.303009 C 119.341995 89.653 116 85.222992 116 80 M 184 162.156006 L 184 93.843994 C 188.878998 91.022003 192 85.765991 192 80 C 192 71.178009 184.822006 64 176 64 C 167.177994 64 160 71.178009 160 80 C 160 85.765991 163.121002 91.022003 168 93.843994 L 168 120 L 150.628998 120 C 148.218994 113.182999 142.817001 107.781006 136 105.371002 L 136 93.843994 C 140.878998 91.022003 144 85.765991 144 80 C 144 71.178009 136.821991 64 128 64 C 119.178001 64 112 71.178009 112 80 C 112 85.765991 115.121002 91.022003 120 93.843994 L 120 105.371002 C 113.182999 107.781006 107.780998 113.182999 105.371002 120 L 88 120 L 88 93.843994 C 92.878998 91.022003 96 85.765991 96 80 C 96 71.178009 88.821999 64 80 64 C 71.178001 64 64 71.178009 64 80 C 64 85.765991 67.121002 91.022003 72 93.843994 L 72 162.156006 C 67.121002 164.977997 64 170.233002 64 176 C 64 184.821991 71.178001 192 80 192 C 88.821999 192 96 184.821991 96 176 C 96 170.233002 92.878998 164.977997 88 162.156006 L 88 136 L 105.371002 136 C 107.780998 142.817001 113.182999 148.218994 120 150.628998 L 120 162.156006 C 115.121002 164.977997 112 170.233002 112 176 C 112 184.821991 119.178001 192 128 192 C 136.821991 192 144 184.821991 144 176 C 144 170.233002 140.878998 164.977997 136 162.156006 L 136 150.628998 C 142.817001 148.218994 148.218994 142.817001 150.628998 136 L 168 136 L 168 162.156006 C 163.121002 164.977997 160 170.233002 160 176 C 160 184.821991 167.177994 192 176 192 C 184.822006 192 192 184.821991 192 176 C 192 170.233002 188.878998 164.977997 184 162.156006"/>
    <path id="path2" fill="#ffffff" stroke="none" d="M 220 36 L 36 36 L 36 220 L 220 220 Z M 216 216 L 40 216 L 40 40 L 216 40 Z"/>
</svg>
