<?xml version="1.0" encoding="UTF-8"?>
<!-- Generated by Pixelmator Pro 3.7.1 -->
<svg width="256" height="256" viewBox="0 0 256 256" xmlns="http://www.w3.org/2000/svg">
    <path id="Path" fill="#ffffff" stroke="none" d="M 23.2197 245.082001 C 22.2477 245.082001 21.324699 244.725998 20.606701 244.104004 C 20.4757 243.990997 20.3507 243.869995 20.234699 243.738998 C 20.2307 243.735001 20.2257 243.731003 20.221701 243.727997 C 20.103701 243.593002 19.991699 243.451996 19.891701 243.300995 L 17.078701 239.082001 L 21.3237 239.082001 L 25.3647 239.082001 L 238.692703 239.082001 L 239.07869 239.082001 L 236.266693 243.300995 C 235.524689 244.414001 234.275696 245.082001 232.93869 245.082001 Z M 39.060699 157.231003 L 29.5667 235.082001 L 25.935699 235.082001 L 21.8957 235.082001 L 17.5917 235.082001 L 27.078699 161.082001 Z M 19.2987 23.078995 L 31.4007 22.867004 L 38.630699 153.015991 L 37.813702 153.287003 L 26.6367 157.013 Z M 133.076706 21.083008 L 238.509689 23.072006 L 229.689697 84.902008 L 227.751694 85.593994 L 43.772701 151.300995 L 42.564701 151.70401 L 35.402699 22.796005 Z M 33.596699 235.082001 L 43.049702 157.56601 L 43.273701 155.72699 L 229.097702 89.361008 L 238.684692 235.082001 Z M 29.126699 18.906006 L 19.078701 19.082001 L 20.1677 15.817001 C 20.7117 14.184006 22.2407 13.082001 23.9617 13.082001 L 29.002701 13.082001 L 233.158691 13.082001 L 234.196701 13.082001 C 234.436691 13.082001 234.671692 13.108002 234.902695 13.149994 C 234.959702 13.160995 235.015701 13.177994 235.072693 13.190994 C 235.249695 13.231003 235.423691 13.281006 235.592697 13.343994 C 235.641693 13.362 235.68869 13.382996 235.736694 13.403 C 235.917694 13.479004 236.09169 13.567993 236.258698 13.669006 C 236.28569 13.686005 236.31369 13.701004 236.339691 13.718002 C 237.095703 14.199997 237.693695 14.925003 237.990692 15.817001 L 239.07869 19.082001 L 133.078705 17.082001 Z M 239.594696 245.518997 L 242.406693 241.300995 L 242.693695 235.082001 L 233.102692 89.302002 L 242.150696 25.873001 C 242.408691 24.059998 242.501694 22.227997 242.42569 20.399002 L 242.30069 17.360001 C 242.261703 16.404999 242.087692 15.459 241.784698 14.552002 C 241.784698 11.531006 239.3367 9.082001 236.315689 9.082001 L 133.158707 9.082001 L 133.081696 9.078995 L 133.002701 9.082001 L 23.9617 9.082001 C 20.5187 9.082001 17.4617 11.285995 16.3727 14.552002 L 15.2837 17.817001 L 15.2957 23.149002 L 22.821699 160.501007 L 13.5587 235.082001 L 13.3277 238.080994 C 13.1677 240.145996 13.8167 242.192993 15.1357 243.791 L 16.5637 245.518997 C 18.050699 247.75 20.5387 249.082001 23.2197 249.082001 L 232.93869 249.082001 C 235.613693 249.082001 238.111694 247.744995 239.594696 245.518997"/>
    <path id="path1" fill="#ffffff" stroke="none" d="M 112.325203 195.403305 L 113.144203 191.141296 L 90.882202 198.265305 L 90.1782 202.490295 Z"/>
    <path id="path2" fill="#ffffff" stroke="none" d="M 113.964401 186.878906 L 114.784401 182.615906 L 92.290398 189.814911 L 91.586403 194.039902 Z"/>
    <path id="path3" fill="#ffffff" stroke="none" d="M 110.685501 203.927704 L 111.505501 199.665695 L 89.473503 206.715698 L 88.768501 210.941696 Z"/>
    <path id="path4" fill="#ffffff" stroke="none" d="M 123.964401 155.678711 L 123.144402 159.941711 L 151.776398 150.779694 L 152.533401 146.536697 Z"/>
    <path id="path5" fill="#ffffff" stroke="none" d="M 119.046402 181.252899 L 118.226402 185.514893 L 147.230392 176.23291 L 147.988403 171.990906 Z"/>
    <path id="path6" fill="#ffffff" stroke="none" d="M 117.4067 189.777298 L 116.5877 194.039307 L 145.715698 184.718292 L 146.472702 180.475311 Z"/>
    <path id="path7" fill="#ffffff" stroke="none" d="M 122.325203 164.203094 L 121.505203 168.466095 L 150.2612 159.264099 L 151.018204 155.021103 Z"/>
    <path id="path8" fill="#ffffff" stroke="none" d="M 120.685501 172.727509 L 119.865501 176.990509 L 148.746506 167.748505 L 149.502502 163.5065 Z"/>
    <path id="path9" fill="#ffffff" stroke="none" d="M 117.243202 169.830109 L 118.062202 165.567108 L 95.107201 172.913101 L 94.403198 177.139099 Z"/>
    <path id="path10" fill="#ffffff" stroke="none" d="M 115.6035 178.354492 L 116.4235 174.091492 L 93.698502 181.364502 L 92.994499 185.588501 Z"/>
    <path id="path11" fill="#ffffff" stroke="none" d="M 112.4888 215.350601 L 111.6698 219.613602 L 141.1698 210.172607 L 141.927795 205.930603 Z"/>
    <path id="path12" fill="#ffffff" stroke="none" d="M 139.655304 218.658203 L 140.412292 214.415192 L 110.849297 223.876205 L 110.030296 228.137207 Z"/>
    <path id="path13" fill="#ffffff" stroke="none" d="M 97.924301 156.011703 L 97.219299 160.237701 L 120.521301 152.780701 L 121.341301 148.518707 Z"/>
    <path id="path14" fill="#ffffff" stroke="none" d="M 132.079102 233.082001 L 137.079102 233.082001 L 137.382095 231.384995 Z"/>
    <path id="path15" fill="#ffffff" stroke="none" d="M 105.767601 229.501999 L 106.587601 225.238998 L 85.247597 232.067993 L 85.079597 233.082001 L 94.579597 233.082001 Z"/>
    <path id="path16" fill="#ffffff" stroke="none" d="M 118.882301 161.304703 L 119.702301 157.042694 L 96.515297 164.462708 L 95.811302 168.687698 Z"/>
    <path id="path17" fill="#ffffff" stroke="none" d="M 115.767601 198.301804 L 114.947601 202.564804 L 144.200607 193.202805 L 144.957596 188.9608 Z"/>
    <path id="path18" fill="#ffffff" stroke="none" d="M 114.128403 206.826202 L 113.308403 211.089203 L 142.685394 201.688202 L 143.442398 197.445206 Z"/>
    <path id="path19" fill="#ffffff" stroke="none" d="M 87.360802 195.391602 L 88.064796 191.166595 L 61.869801 199.548599 L 61.270802 203.741608 Z"/>
    <path id="path20" fill="#ffffff" stroke="none" d="M 83.1353 220.744095 L 83.840302 216.518097 L 58.277302 224.699097 L 57.677299 228.890106 Z"/>
    <path id="path21" fill="#ffffff" stroke="none" d="M 84.5439 212.292999 L 85.247902 208.067993 L 59.4739 216.315002 L 58.8759 220.507004 Z"/>
    <path id="path22" fill="#ffffff" stroke="none" d="M 109.8657 208.190399 L 88.064697 215.167404 L 87.360703 219.391403 L 109.0467 212.452393 Z"/>
    <path id="path23" fill="#ffffff" stroke="none" d="M 85.952103 203.842804 L 86.657097 199.616791 L 60.6721 207.9328 L 60.073101 212.123795 Z"/>
    <path id="path24" fill="#ffffff" stroke="none" d="M 81.727097 229.194305 L 82.431099 224.969299 L 57.079098 233.082306 L 69.579102 233.082306 Z"/>
    <path id="path25" fill="#ffffff" stroke="none" d="M 88.768997 186.941406 L 89.473999 182.715393 L 63.067001 191.166397 L 62.467999 195.357391 Z"/>
    <path id="path26" fill="#ffffff" stroke="none" d="M 128.0625 134.367203 L 156.321503 125.325195 L 157.079498 121.082199 L 128.882507 130.105194 Z"/>
    <path id="path27" fill="#ffffff" stroke="none" d="M 125.6035 147.154297 L 124.7845 151.417297 L 153.290497 142.294296 L 154.048492 138.0513 Z"/>
    <path id="path28" fill="#ffffff" stroke="none" d="M 107.4067 220.977509 L 108.2267 216.714508 L 86.6567 223.617493 L 85.951698 227.842499 Z"/>
    <path id="path29" fill="#ffffff" stroke="none" d="M 138.139603 227.142593 L 138.897598 222.900604 L 109.210602 232.400604 L 109.078598 233.081604 L 119.578598 233.081604 Z"/>
    <path id="path30" fill="#ffffff" stroke="none" d="M 100.741203 139.110397 L 100.036201 143.336395 L 123.800201 135.7314 L 124.620201 131.468399 Z"/>
    <path id="path31" fill="#ffffff" stroke="none" d="M 98.628403 151.786102 L 122.1614 144.256104 L 122.9814 139.993103 L 99.332397 147.560089 Z"/>
    <path id="path32" fill="#ffffff" stroke="none" d="M 68.456497 153.441406 L 95.811501 144.687408 L 96.515503 140.462402 L 69.055496 149.250397 Z"/>
    <path id="path33" fill="#ffffff" stroke="none" d="M 127.243202 138.629898 L 126.423203 142.891907 L 154.806198 133.809906 L 155.563202 129.566895 Z"/>
    <path id="path34" fill="#ffffff" stroke="none" d="M 94.402802 153.138702 L 95.107803 148.912689 L 67.857803 157.63269 L 67.258804 161.824707 Z"/>
    <path id="path35" fill="#ffffff" stroke="none" d="M 91.585899 170.040009 L 92.290901 165.813995 L 65.461899 174.399002 L 64.8629 178.591003 Z"/>
    <path id="path36" fill="#ffffff" stroke="none" d="M 90.177696 178.490204 L 90.881699 174.265198 L 64.264702 182.783203 L 63.665699 186.974197 Z"/>
    <path id="path37" fill="#ffffff" stroke="none" d="M 92.994598 161.588898 L 93.698601 157.363892 L 66.659599 166.016907 L 66.0606 170.207901 Z"/>
</svg>
