<?xml version="1.0" encoding="UTF-8"?>
<!-- Generated by Pixelmator Pro 3.7.1 -->
<svg width="256" height="256" viewBox="0 0 256 256" xmlns="http://www.w3.org/2000/svg">
    <path id="Path" fill="#ffffff" stroke="none" d="M 233.343704 204 L 131.999695 162.022003 L 131.999695 157.692001 L 235.999695 200.770996 L 235.999695 196.44101 L 131.999695 153.363007 L 131.999695 149.033005 L 235.999695 192.110992 L 235.999695 187.781998 L 131.999695 144.703995 L 131.999695 140.373993 L 235.999695 183.451996 L 235.999695 179.123001 L 131.999695 136.044998 L 131.999695 131.714996 L 235.999695 174.792999 L 235.999695 170.464005 L 131.999695 127.386002 L 131.999695 123.056 L 235.999695 166.134003 L 235.999695 161.804993 L 131.999695 118.72699 L 131.999695 114.397003 L 235.999695 157.475006 L 235.999695 153.145996 L 131.999695 110.067001 L 131.999695 105.738007 L 235.999695 148.81601 L 235.999695 144.485992 L 131.999695 101.40799 L 131.999695 97.07901 L 235.999695 140.156006 L 235.999695 135.826996 L 131.999695 92.748993 L 131.999695 88.419006 L 235.999695 131.498001 L 235.999695 127.167999 L 131.999695 84.089996 L 131.999695 79.76001 L 235.999695 122.837997 L 235.999695 118.509003 L 131.999695 75.431 L 131.999695 71.100998 L 235.999695 114.179001 L 235.999695 109.850006 L 131.999695 66.770996 L 131.999695 62.442001 L 235.999695 105.519989 L 235.999695 101.190002 L 131.999695 58.112 L 131.999695 53.783005 L 235.999695 96.860992 L 235.999695 92.531006 L 131.999695 49.453003 L 131.999695 44 L 239.999695 44 L 239.999695 204 Z M 239.999695 216 L 131.999695 216 L 131.999695 208 L 138.475708 208 L 148.927704 208 L 159.380707 208 L 169.832703 208 L 180.284698 208 L 190.738693 208 L 201.190704 208 L 211.6427 208 L 222.095703 208 L 232.547699 208 L 235.999695 208 L 239.999695 208 Z M 127.999695 216 L 11.999706 216 L 11.999706 208 L 127.999695 208 Z M 131.999695 170.682007 L 131.999695 166.352005 L 222.890701 204 L 212.438705 204 Z M 131.999695 179.341003 L 131.999695 175.011002 L 201.986694 204 L 191.5327 204 Z M 131.999695 188 L 131.999695 183.669998 L 181.080704 204 L 170.628693 204 Z M 131.999695 196.658005 L 131.999695 192.32901 L 160.175705 204 L 149.723694 204 Z M 131.999695 200.988007 L 139.271698 204 L 131.999695 204 Z M 11.999706 44 L 127.999695 44 L 127.999695 48 L 127.999695 52.126007 L 127.999695 56.455994 L 127.999695 60.785004 L 127.999695 65.115005 L 127.999695 69.444 L 127.999695 73.774002 L 127.999695 78.104004 L 127.999695 82.432999 L 127.999695 86.763 L 127.999695 91.09201 L 127.999695 95.421997 L 127.999695 99.751007 L 127.999695 104.080994 L 127.999695 108.410004 L 127.999695 112.73999 L 127.999695 117.069 L 127.999695 121.399002 L 127.999695 125.729004 L 127.999695 130.05899 L 127.999695 134.388 L 127.999695 138.718002 L 127.999695 143.046997 L 127.999695 147.376999 L 127.999695 151.705994 L 127.999695 156.035004 L 127.999695 160.365005 L 127.999695 164.695007 L 127.999695 169.024002 L 127.999695 173.354004 L 127.999695 177.68399 L 127.999695 182.013 L 127.999695 186.343002 L 127.999695 190.671997 L 127.999695 195.001999 L 127.999695 199.330994 L 127.999695 203.660995 L 127.999695 204 L 11.999706 204 Z M 239.999695 40 L 131.999695 40 L 127.999695 40 L 11.999706 40 L 7.999706 40 L 7.999706 44 L 7.999706 204 L 7.999706 208 L 7.999706 216 L 7.999706 220 L 11.999706 220 L 127.999695 220 L 131.999695 220 L 239.999695 220 L 243.999695 220 L 243.999695 216 L 243.999695 208 L 243.999695 204 L 243.999695 44 L 243.999695 40 Z"/>
    <path id="path1" fill="#ffffff" stroke="none" d="M 180.753906 48 L 235.999893 70.884003 L 235.999893 66.554001 L 191.205902 48 Z"/>
    <path id="path2" fill="#ffffff" stroke="none" d="M 201.659195 48 L 236.000198 62.225006 L 236.000198 57.895004 L 212.111206 48 Z"/>
    <path id="path3" fill="#ffffff" stroke="none" d="M 222.564499 48 L 236.000504 53.565002 L 236.000504 49.235992 L 233.016495 48 Z"/>
    <path id="path4" fill="#ffffff" stroke="none" d="M 138.944305 48 L 236.000305 88.201996 L 236.000305 83.872009 L 149.396301 48 Z"/>
    <path id="path5" fill="#ffffff" stroke="none" d="M 159.848602 48 L 235.999603 79.542999 L 235.999603 75.212997 L 170.301605 48 Z"/>
</svg>
