<?xml version="1.0" encoding="UTF-8"?>
<!-- Generated by Pixelmator Pro 3.7.1 -->
<svg width="256" height="256" viewBox="0 0 256 256" xmlns="http://www.w3.org/2000/svg">
    <path id="Path" fill="#ffffff" stroke="none" d="M 236.135605 20 L 19.864603 20 C 15.520595 20 11.999599 23.582001 11.999599 28 L 11.999599 196 C 11.999599 200.417999 15.520595 204 19.864603 204 L 236.135605 204 C 240.478607 204 243.999603 200.417999 243.999603 196 L 243.999603 28 C 243.999603 23.582001 240.478607 20 236.135605 20 M 236.135605 24 C 238.266602 24 239.999603 25.794006 239.999603 28 L 239.999603 196 C 239.999603 198.205994 238.266602 200 236.135605 200 L 19.864603 200 C 17.733606 200 15.999599 198.205994 15.999599 196 L 15.999599 28 C 15.999599 25.794006 17.733606 24 19.864603 24 Z"/>
    <path id="path1" fill="#ffffff" stroke="none" d="M 228 36 L 28 36 L 28 180 L 228 180 Z M 224 176 L 32 176 L 32 40 L 224 40 Z"/>
    <path id="path2" fill="#ffffff" stroke="none" d="M 236 184 L 232 184 L 220 184 L 216 184 L 216 188 L 216 192 L 216 196 L 220 196 L 232 196 L 236 196 L 236 192 L 236 188 Z M 232 192 L 220 192 L 220 188 L 232 188 Z"/>
    <path id="path3" fill="#ffffff" stroke="none" d="M 184.732697 200 L 179.781693 200 L 76.222694 200 L 71.274696 200 L 72.311699 204.837997 C 72.943695 207.787003 74.535698 210.589005 77.044693 213.165009 C 77.273697 213.399994 77.515694 213.634003 77.761696 213.865997 C 77.860695 213.959991 77.9627 214.056 78.066696 214.152008 C 78.314697 214.378998 78.566696 214.604004 78.827698 214.826004 L 78.995697 214.964996 L 79.041695 215.002991 C 79.922699 215.738007 80.888695 216.455002 81.912697 217.134003 L 82.110695 217.264999 C 83.200699 217.977997 84.372696 218.665009 85.597694 219.30899 C 86.927696 220.009003 88.419693 220.377991 89.912697 220.377991 C 92.375694 220.377991 94.721695 219.363998 96.348694 217.593994 C 99.398697 214.276001 111.528694 210.75 127.999695 210.75 C 144.467697 210.75 156.597702 214.276001 159.649704 217.593002 C 161.283707 219.367996 163.635696 220.386993 166.100693 220.386993 C 167.566696 220.386993 169.027695 220.027008 170.326706 219.347 C 174.095703 217.371002 177.145706 215.13501 179.390701 212.699005 C 181.650696 210.247009 183.097702 207.604004 183.691696 204.841003 Z M 179.781693 204 C 179.330704 206.093994 178.186707 208.104004 176.449707 209.988007 C 174.497696 212.106003 171.789703 214.063995 168.469696 215.804001 C 167.725693 216.192993 166.909698 216.386993 166.100693 216.386993 C 164.7957 216.386993 163.511703 215.882004 162.592697 214.884003 C 158.270706 210.186996 144.422699 206.75 127.999695 206.75 C 111.574699 206.75 97.723694 210.188004 93.403694 214.886993 C 92.486694 215.884003 91.213699 216.377991 89.912697 216.377991 C 89.076698 216.377991 88.230698 216.175003 87.459694 215.768997 C 86.334694 215.177002 85.2817 214.559998 84.303696 213.919998 C 84.243698 213.880005 84.183693 213.841003 84.123695 213.800995 C 83.214699 213.196991 82.373695 212.572998 81.604698 211.932007 C 81.543694 211.880997 81.479698 211.830002 81.419693 211.778992 C 81.196693 211.589005 80.981697 211.397003 80.770699 211.20401 C 80.682693 211.123001 80.596695 211.041992 80.511696 210.960999 C 80.305695 210.766998 80.102699 210.571991 79.909698 210.373993 C 77.967697 208.380005 76.701698 206.238007 76.222694 204 Z"/>
    <path id="path4" fill="#ffffff" stroke="none" d="M 202.433197 209.604599 C 196.073196 208.306595 188.502197 207.207596 180.000198 206.333603 L 180.000198 210.361603 C 204.114197 212.872604 220.000198 217.146606 220.000198 221.999603 C 220.000198 229.731598 179.7052 235.999603 130.000198 235.999603 C 80.294197 235.999603 40.000202 229.731598 40.000202 221.999603 C 40.000202 217.419601 54.1422 213.354599 76.000198 210.800598 L 76.000198 206.770599 C 68.508194 207.634598 61.844196 208.679596 56.234196 209.883606 C 42.051197 212.927597 36.000202 216.551605 36.000202 221.999603 C 36.000202 228.465607 44.896198 232.608597 65.745193 235.851593 C 82.9412 238.526596 105.7612 239.999603 130.000198 239.999603 C 154.239197 239.999603 177.058197 238.526596 194.254196 235.851593 C 215.104202 232.608597 224.000198 228.465607 224.000198 221.999603 C 224.000198 216.397598 217.550201 212.690598 202.433197 209.604599"/>
    <path id="path5" fill="#ffffff" stroke="none" d="M 178.399002 90.715698 C 178.100006 90.469696 177.807007 90.215698 177.488007 89.991699 C 175.487 88.588699 173.311005 87.560699 170.959 86.909698 C 168.604996 86.259705 166.287003 85.933701 164.001007 85.933701 C 162.050995 85.933701 159.916992 86.259705 157.597992 86.909698 C 155.278992 87.560699 153.085007 88.604706 151.018005 90.043701 C 148.951004 91.481705 147.253998 93.348694 145.925995 95.6427 C 144.598007 97.936707 143.934998 100.727707 143.934998 104.015701 C 143.934998 107.953705 144.908997 111.206696 146.858994 113.774704 C 148.807999 116.342697 151.632004 118.4487 155.328995 120.093704 C 151.059998 122.113693 147.623001 124.612701 145.018997 127.592697 C 142.412994 130.571701 141.112 134.287689 141.112 138.7397 C 141.112 142.506699 142.018997 145.8797 143.834 148.858704 C 145.649002 151.837708 148.261993 154.192703 151.673996 155.921692 C 151.727997 155.949707 151.787003 155.972702 151.841995 155.999695 L 122.041 155.999695 L 133.095993 86.909698 L 126.844002 86.909698 L 117.113998 149.064697 L 108.442001 95.128693 L 98.762001 95.128693 L 89.687004 149.064697 L 82.103004 96.242706 L 82.103004 59.999695 L 114.250999 59.999695 C 114.250999 68.8367 121.414001 75.999695 130.251007 75.999695 C 139.087006 75.999695 146.251007 68.8367 146.251007 59.999695 L 150.250992 59.999695 L 178.399002 59.999695 Z M 178.399002 123.619705 C 176.432007 122.200699 174.227005 120.991699 171.764999 120.011703 C 174.358994 118.548706 176.563995 116.995697 178.399002 115.355698 Z M 158.203003 115.168701 C 155.682007 114.173706 153.731995 112.847702 152.354004 111.189697 C 150.975998 109.5327 150.287003 107.166702 150.287003 104.095703 C 150.287003 100.011703 151.496994 96.809692 153.917999 94.487701 C 156.337006 92.167694 159.697998 91.006699 164.001007 91.006699 C 168.369995 91.006699 171.764999 92.140701 174.186005 94.409698 C 176.604996 96.678696 177.815002 99.785706 177.815002 103.728699 C 177.815002 107.393692 176.891006 110.256699 175.042007 112.315704 C 173.194 114.375702 170.520996 116.381699 167.026001 118.3367 C 163.664993 117.219696 160.723999 116.163696 158.203003 115.168701 M 178.399002 146.486694 C 177.738998 147.639709 176.901993 148.703705 175.873993 149.671692 C 173.001007 152.377701 168.942001 153.729706 163.697998 153.729706 C 158.488007 153.729706 154.556 152.490692 151.901001 150.012695 C 149.246002 147.534698 147.917999 144.078705 147.917999 139.645691 C 147.917999 136.294708 148.488998 133.502701 149.632004 131.268707 C 150.774002 129.035706 152.270004 127.202698 154.119003 125.770706 C 155.966995 124.340698 157.934006 123.1707 160.018005 122.262695 C 163.815994 123.590698 167.235992 124.906708 170.278 126.215698 C 173.320007 127.524704 175.731003 129.173706 177.513 131.163696 C 177.841995 131.531708 178.130997 131.933701 178.399002 132.352692 Z M 178.399002 155.999695 L 175.998001 155.999695 C 175.998001 155.999695 175.998993 155.998688 176 155.997696 C 176.845993 155.261688 177.643997 154.451691 178.399002 153.574707 Z M 94.716003 155.999695 L 103.198006 103.999695 L 111.778999 155.999695 Z M 82.125999 155.999695 L 82.125999 142.580704 L 84.028999 155.999695 Z M 178.399002 55.999695 L 142.251007 55.999695 L 142.251007 59.999695 C 142.251007 66.627701 136.878006 71.999695 130.251007 71.999695 C 123.623001 71.999695 118.250999 66.627701 118.250999 59.999695 L 118.250999 55.999695 L 82.103004 55.999695 L 78.250999 55.999695 L 78.250999 59.999695 L 78.250999 155.999695 L 78.250999 159.999695 L 82.103004 159.999695 L 178.399002 159.999695 L 182.251007 159.999695 L 182.251007 155.999695 L 182.251007 59.999695 L 182.251007 55.999695 Z"/>
</svg>
