<?xml version="1.0" encoding="UTF-8"?>
<!-- Generated by Pixelmator Pro 3.7.1 -->
<svg width="256" height="256" viewBox="0 0 256 256" xmlns="http://www.w3.org/2000/svg">
    <path id="Path" fill="#ffffff" stroke="none" d="M 244 12 L 12 12 L 12 244 L 244 244 Z M 240 240 L 16 240 L 16 16 L 240 16 Z"/>
    <path id="path1" fill="#ffffff" stroke="none" d="M 28 220 C 23.582001 220 20 223.582001 20 228 C 20 232.417999 23.582001 236 28 236 C 32.417999 236 36 232.417999 36 228 C 36 223.582001 32.417999 220 28 220 M 48 220 C 43.582001 220 40 223.582001 40 228 C 40 232.417999 43.582001 236 48 236 C 52.417999 236 56 232.417999 56 228 C 56 223.582001 52.417999 220 48 220 M 68 220 C 63.582001 220 60 223.582001 60 228 C 60 232.417999 63.582001 236 68 236 C 72.417999 236 76 232.417999 76 228 C 76 223.582001 72.417999 220 68 220 M 88 220 C 83.582001 220 80 223.582001 80 228 C 80 232.417999 83.582001 236 88 236 C 92.417999 236 96 232.417999 96 228 C 96 223.582001 92.417999 220 88 220 M 108 220 C 103.582001 220 100 223.582001 100 228 C 100 232.417999 103.582001 236 108 236 C 112.417999 236 116 232.417999 116 228 C 116 223.582001 112.417999 220 108 220 M 128 220 C 123.582001 220 120 223.582001 120 228 C 120 232.417999 123.582001 236 128 236 C 132.417999 236 136 232.417999 136 228 C 136 223.582001 132.417999 220 128 220 M 148 220 C 143.582001 220 140 223.582001 140 228 C 140 232.417999 143.582001 236 148 236 C 152.417999 236 156 232.417999 156 228 C 156 223.582001 152.417999 220 148 220 M 168 220 C 163.582001 220 160 223.582001 160 228 C 160 232.417999 163.582001 236 168 236 C 172.417999 236 176 232.417999 176 228 C 176 223.582001 172.417999 220 168 220 M 188 220 C 183.582001 220 180 223.582001 180 228 C 180 232.417999 183.582001 236 188 236 C 192.417999 236 196 232.417999 196 228 C 196 223.582001 192.417999 220 188 220 M 208 220 C 203.582001 220 200 223.582001 200 228 C 200 232.417999 203.582001 236 208 236 C 212.417999 236 216 232.417999 216 228 C 216 223.582001 212.417999 220 208 220 M 228 220 C 223.582001 220 220 223.582001 220 228 C 220 232.417999 223.582001 236 228 236 C 232.417999 236 236 232.417999 236 228 C 236 223.582001 232.417999 220 228 220 M 28 200 C 23.582001 200 20 203.582001 20 208 C 20 212.417999 23.582001 216 28 216 C 32.417999 216 36 212.417999 36 208 C 36 203.582001 32.417999 200 28 200 M 48 200 C 43.582001 200 40 203.582001 40 208 C 40 212.417999 43.582001 216 48 216 C 52.417999 216 56 212.417999 56 208 C 56 203.582001 52.417999 200 48 200 M 68 200 C 63.582001 200 60 203.582001 60 208 C 60 212.417999 63.582001 216 68 216 C 72.417999 216 76 212.417999 76 208 C 76 203.582001 72.417999 200 68 200 M 88 200 C 83.582001 200 80 203.582001 80 208 C 80 212.417999 83.582001 216 88 216 C 92.417999 216 96 212.417999 96 208 C 96 203.582001 92.417999 200 88 200 M 108 200 C 103.582001 200 100 203.582001 100 208 C 100 212.417999 103.582001 216 108 216 C 112.417999 216 116 212.417999 116 208 C 116 203.582001 112.417999 200 108 200 M 128 200 C 123.582001 200 120 203.582001 120 208 C 120 212.417999 123.582001 216 128 216 C 132.417999 216 136 212.417999 136 208 C 136 203.582001 132.417999 200 128 200 M 148 200 C 143.582001 200 140 203.582001 140 208 C 140 212.417999 143.582001 216 148 216 C 152.417999 216 156 212.417999 156 208 C 156 203.582001 152.417999 200 148 200 M 168 200 C 163.582001 200 160 203.582001 160 208 C 160 212.417999 163.582001 216 168 216 C 172.417999 216 176 212.417999 176 208 C 176 203.582001 172.417999 200 168 200 M 188 200 C 183.582001 200 180 203.582001 180 208 C 180 212.417999 183.582001 216 188 216 C 192.417999 216 196 212.417999 196 208 C 196 203.582001 192.417999 200 188 200 M 208 200 C 203.582001 200 200 203.582001 200 208 C 200 212.417999 203.582001 216 208 216 C 212.417999 216 216 212.417999 216 208 C 216 203.582001 212.417999 200 208 200 M 228 200 C 223.582001 200 220 203.582001 220 208 C 220 212.417999 223.582001 216 228 216 C 232.417999 216 236 212.417999 236 208 C 236 203.582001 232.417999 200 228 200 M 28 180 C 23.582001 180 20 183.582001 20 188 C 20 192.417999 23.582001 196 28 196 C 32.417999 196 36 192.417999 36 188 C 36 183.582001 32.417999 180 28 180 M 48 180 C 43.582001 180 40 183.582001 40 188 C 40 192.417999 43.582001 196 48 196 C 52.417999 196 56 192.417999 56 188 C 56 183.582001 52.417999 180 48 180 M 68 180 C 63.582001 180 60 183.582001 60 188 C 60 192.417999 63.582001 196 68 196 C 72.417999 196 76 192.417999 76 188 C 76 183.582001 72.417999 180 68 180 M 88 180 C 83.582001 180 80 183.582001 80 188 C 80 192.417999 83.582001 196 88 196 C 92.417999 196 96 192.417999 96 188 C 96 183.582001 92.417999 180 88 180 M 108 180 C 103.582001 180 100 183.582001 100 188 C 100 192.417999 103.582001 196 108 196 C 112.417999 196 116 192.417999 116 188 C 116 183.582001 112.417999 180 108 180 M 128 180 C 123.582001 180 120 183.582001 120 188 C 120 192.417999 123.582001 196 128 196 C 132.417999 196 136 192.417999 136 188 C 136 183.582001 132.417999 180 128 180 M 148 180 C 143.582001 180 140 183.582001 140 188 C 140 192.417999 143.582001 196 148 196 C 152.417999 196 156 192.417999 156 188 C 156 183.582001 152.417999 180 148 180 M 168 180 C 163.582001 180 160 183.582001 160 188 C 160 192.417999 163.582001 196 168 196 C 172.417999 196 176 192.417999 176 188 C 176 183.582001 172.417999 180 168 180 M 188 180 C 183.582001 180 180 183.582001 180 188 C 180 192.417999 183.582001 196 188 196 C 192.417999 196 196 192.417999 196 188 C 196 183.582001 192.417999 180 188 180 M 208 180 C 203.582001 180 200 183.582001 200 188 C 200 192.417999 203.582001 196 208 196 C 212.417999 196 216 192.417999 216 188 C 216 183.582001 212.417999 180 208 180 M 228 180 C 223.582001 180 220 183.582001 220 188 C 220 192.417999 223.582001 196 228 196 C 232.417999 196 236 192.417999 236 188 C 236 183.582001 232.417999 180 228 180 M 28 160 C 23.582001 160 20 163.582001 20 168 C 20 172.417999 23.582001 176 28 176 C 32.417999 176 36 172.417999 36 168 C 36 163.582001 32.417999 160 28 160 M 48 160 C 43.582001 160 40 163.582001 40 168 C 40 172.417999 43.582001 176 48 176 C 52.417999 176 56 172.417999 56 168 C 56 163.582001 52.417999 160 48 160 M 68 160 C 63.582001 160 60 163.582001 60 168 C 60 172.417999 63.582001 176 68 176 C 72.417999 176 76 172.417999 76 168 C 76 163.582001 72.417999 160 68 160 M 88 160 C 83.582001 160 80 163.582001 80 168 C 80 172.417999 83.582001 176 88 176 C 92.417999 176 96 172.417999 96 168 C 96 163.582001 92.417999 160 88 160 M 108 160 C 103.582001 160 100 163.582001 100 168 C 100 172.417999 103.582001 176 108 176 C 112.417999 176 116 172.417999 116 168 C 116 163.582001 112.417999 160 108 160 M 128 160 C 123.582001 160 120 163.582001 120 168 C 120 172.417999 123.582001 176 128 176 C 132.417999 176 136 172.417999 136 168 C 136 163.582001 132.417999 160 128 160 M 148 160 C 143.582001 160 140 163.582001 140 168 C 140 172.417999 143.582001 176 148 176 C 152.417999 176 156 172.417999 156 168 C 156 163.582001 152.417999 160 148 160 M 168 160 C 163.582001 160 160 163.582001 160 168 C 160 172.417999 163.582001 176 168 176 C 172.417999 176 176 172.417999 176 168 C 176 163.582001 172.417999 160 168 160 M 188 160 C 183.582001 160 180 163.582001 180 168 C 180 172.417999 183.582001 176 188 176 C 192.417999 176 196 172.417999 196 168 C 196 163.582001 192.417999 160 188 160 M 208 160 C 203.582001 160 200 163.582001 200 168 C 200 172.417999 203.582001 176 208 176 C 212.417999 176 216 172.417999 216 168 C 216 163.582001 212.417999 160 208 160 M 228 160 C 223.582001 160 220 163.582001 220 168 C 220 172.417999 223.582001 176 228 176 C 232.417999 176 236 172.417999 236 168 C 236 163.582001 232.417999 160 228 160 M 28 140 C 23.582001 140 20 143.582001 20 148 C 20 152.417999 23.582001 156 28 156 C 32.417999 156 36 152.417999 36 148 C 36 143.582001 32.417999 140 28 140 M 48 140 C 43.582001 140 40 143.582001 40 148 C 40 152.417999 43.582001 156 48 156 C 52.417999 156 56 152.417999 56 148 C 56 143.582001 52.417999 140 48 140 M 68 140 C 63.582001 140 60 143.582001 60 148 C 60 152.417999 63.582001 156 68 156 C 72.417999 156 76 152.417999 76 148 C 76 143.582001 72.417999 140 68 140 M 88 140 C 83.582001 140 80 143.582001 80 148 C 80 152.417999 83.582001 156 88 156 C 92.417999 156 96 152.417999 96 148 C 96 143.582001 92.417999 140 88 140 M 108 140 C 103.582001 140 100 143.582001 100 148 C 100 152.417999 103.582001 156 108 156 C 112.417999 156 116 152.417999 116 148 C 116 143.582001 112.417999 140 108 140 M 128 140 C 123.582001 140 120 143.582001 120 148 C 120 152.417999 123.582001 156 128 156 C 132.417999 156 136 152.417999 136 148 C 136 143.582001 132.417999 140 128 140 M 148 140 C 143.582001 140 140 143.582001 140 148 C 140 152.417999 143.582001 156 148 156 C 152.417999 156 156 152.417999 156 148 C 156 143.582001 152.417999 140 148 140 M 168 140 C 163.582001 140 160 143.582001 160 148 C 160 152.417999 163.582001 156 168 156 C 172.417999 156 176 152.417999 176 148 C 176 143.582001 172.417999 140 168 140 M 188 140 C 183.582001 140 180 143.582001 180 148 C 180 152.417999 183.582001 156 188 156 C 192.417999 156 196 152.417999 196 148 C 196 143.582001 192.417999 140 188 140 M 208 140 C 203.582001 140 200 143.582001 200 148 C 200 152.417999 203.582001 156 208 156 C 212.417999 156 216 152.417999 216 148 C 216 143.582001 212.417999 140 208 140 M 228 140 C 223.582001 140 220 143.582001 220 148 C 220 152.417999 223.582001 156 228 156 C 232.417999 156 236 152.417999 236 148 C 236 143.582001 232.417999 140 228 140 M 28 120 C 23.582001 120 20 123.582001 20 128 C 20 132.417999 23.582001 136 28 136 C 32.417999 136 36 132.417999 36 128 C 36 123.582001 32.417999 120 28 120 M 48 120 C 43.582001 120 40 123.582001 40 128 C 40 132.417999 43.582001 136 48 136 C 52.417999 136 56 132.417999 56 128 C 56 123.582001 52.417999 120 48 120 M 68 120 C 63.582001 120 60 123.582001 60 128 C 60 132.417999 63.582001 136 68 136 C 72.417999 136 76 132.417999 76 128 C 76 123.582001 72.417999 120 68 120 M 88 120 C 83.582001 120 80 123.582001 80 128 C 80 132.417999 83.582001 136 88 136 C 92.417999 136 96 132.417999 96 128 C 96 123.582001 92.417999 120 88 120 M 108 120 C 103.582001 120 100 123.582001 100 128 C 100 132.417999 103.582001 136 108 136 C 112.417999 136 116 132.417999 116 128 C 116 123.582001 112.417999 120 108 120 M 128 120 C 123.582001 120 120 123.582001 120 128 C 120 132.417999 123.582001 136 128 136 C 132.417999 136 136 132.417999 136 128 C 136 123.582001 132.417999 120 128 120 M 148 120 C 143.582001 120 140 123.582001 140 128 C 140 132.417999 143.582001 136 148 136 C 152.417999 136 156 132.417999 156 128 C 156 123.582001 152.417999 120 148 120 M 168 120 C 163.582001 120 160 123.582001 160 128 C 160 132.417999 163.582001 136 168 136 C 172.417999 136 176 132.417999 176 128 C 176 123.582001 172.417999 120 168 120 M 188 120 C 183.582001 120 180 123.582001 180 128 C 180 132.417999 183.582001 136 188 136 C 192.417999 136 196 132.417999 196 128 C 196 123.582001 192.417999 120 188 120 M 208 120 C 203.582001 120 200 123.582001 200 128 C 200 132.417999 203.582001 136 208 136 C 212.417999 136 216 132.417999 216 128 C 216 123.582001 212.417999 120 208 120 M 228 120 C 223.582001 120 220 123.582001 220 128 C 220 132.417999 223.582001 136 228 136 C 232.417999 136 236 132.417999 236 128 C 236 123.582001 232.417999 120 228 120 M 28 100 C 23.582001 100 20 103.582001 20 108 C 20 112.417999 23.582001 116 28 116 C 32.417999 116 36 112.417999 36 108 C 36 103.582001 32.417999 100 28 100 M 48 100 C 43.582001 100 40 103.582001 40 108 C 40 112.417999 43.582001 116 48 116 C 52.417999 116 56 112.417999 56 108 C 56 103.582001 52.417999 100 48 100 M 68 100 C 63.582001 100 60 103.582001 60 108 C 60 112.417999 63.582001 116 68 116 C 72.417999 116 76 112.417999 76 108 C 76 103.582001 72.417999 100 68 100 M 88 100 C 83.582001 100 80 103.582001 80 108 C 80 112.417999 83.582001 116 88 116 C 92.417999 116 96 112.417999 96 108 C 96 103.582001 92.417999 100 88 100 M 108 100 C 103.582001 100 100 103.582001 100 108 C 100 112.417999 103.582001 116 108 116 C 112.417999 116 116 112.417999 116 108 C 116 103.582001 112.417999 100 108 100 M 128 100 C 123.582001 100 120 103.582001 120 108 C 120 112.417999 123.582001 116 128 116 C 132.417999 116 136 112.417999 136 108 C 136 103.582001 132.417999 100 128 100 M 148 100 C 143.582001 100 140 103.582001 140 108 C 140 112.417999 143.582001 116 148 116 C 152.417999 116 156 112.417999 156 108 C 156 103.582001 152.417999 100 148 100 M 168 100 C 163.582001 100 160 103.582001 160 108 C 160 112.417999 163.582001 116 168 116 C 172.417999 116 176 112.417999 176 108 C 176 103.582001 172.417999 100 168 100 M 188 100 C 183.582001 100 180 103.582001 180 108 C 180 112.417999 183.582001 116 188 116 C 192.417999 116 196 112.417999 196 108 C 196 103.582001 192.417999 100 188 100 M 208 100 C 203.582001 100 200 103.582001 200 108 C 200 112.417999 203.582001 116 208 116 C 212.417999 116 216 112.417999 216 108 C 216 103.582001 212.417999 100 208 100 M 228 100 C 223.582001 100 220 103.582001 220 108 C 220 112.417999 223.582001 116 228 116 C 232.417999 116 236 112.417999 236 108 C 236 103.582001 232.417999 100 228 100 M 28 80 C 23.582001 80 20 83.582001 20 88 C 20 92.417999 23.582001 96 28 96 C 32.417999 96 36 92.417999 36 88 C 36 83.582001 32.417999 80 28 80 M 48 80 C 43.582001 80 40 83.582001 40 88 C 40 92.417999 43.582001 96 48 96 C 52.417999 96 56 92.417999 56 88 C 56 83.582001 52.417999 80 48 80 M 68 80 C 63.582001 80 60 83.582001 60 88 C 60 92.417999 63.582001 96 68 96 C 72.417999 96 76 92.417999 76 88 C 76 83.582001 72.417999 80 68 80 M 88 80 C 83.582001 80 80 83.582001 80 88 C 80 92.417999 83.582001 96 88 96 C 92.417999 96 96 92.417999 96 88 C 96 83.582001 92.417999 80 88 80 M 108 80 C 103.582001 80 100 83.582001 100 88 C 100 92.417999 103.582001 96 108 96 C 112.417999 96 116 92.417999 116 88 C 116 83.582001 112.417999 80 108 80 M 128 80 C 123.582001 80 120 83.582001 120 88 C 120 92.417999 123.582001 96 128 96 C 132.417999 96 136 92.417999 136 88 C 136 83.582001 132.417999 80 128 80 M 148 80 C 143.582001 80 140 83.582001 140 88 C 140 92.417999 143.582001 96 148 96 C 152.417999 96 156 92.417999 156 88 C 156 83.582001 152.417999 80 148 80 M 168 80 C 163.582001 80 160 83.582001 160 88 C 160 92.417999 163.582001 96 168 96 C 172.417999 96 176 92.417999 176 88 C 176 83.582001 172.417999 80 168 80 M 188 80 C 183.582001 80 180 83.582001 180 88 C 180 92.417999 183.582001 96 188 96 C 192.417999 96 196 92.417999 196 88 C 196 83.582001 192.417999 80 188 80 M 208 80 C 203.582001 80 200 83.582001 200 88 C 200 92.417999 203.582001 96 208 96 C 212.417999 96 216 92.417999 216 88 C 216 83.582001 212.417999 80 208 80 M 228 80 C 223.582001 80 220 83.582001 220 88 C 220 92.417999 223.582001 96 228 96 C 232.417999 96 236 92.417999 236 88 C 236 83.582001 232.417999 80 228 80 M 28 60 C 23.582001 60 20 63.582001 20 68 C 20 72.417999 23.582001 76 28 76 C 32.417999 76 36 72.417999 36 68 C 36 63.582001 32.417999 60 28 60 M 48 60 C 43.582001 60 40 63.582001 40 68 C 40 72.417999 43.582001 76 48 76 C 52.417999 76 56 72.417999 56 68 C 56 63.582001 52.417999 60 48 60 M 68 60 C 63.582001 60 60 63.582001 60 68 C 60 72.417999 63.582001 76 68 76 C 72.417999 76 76 72.417999 76 68 C 76 63.582001 72.417999 60 68 60 M 88 60 C 83.582001 60 80 63.582001 80 68 C 80 72.417999 83.582001 76 88 76 C 92.417999 76 96 72.417999 96 68 C 96 63.582001 92.417999 60 88 60 M 108 60 C 103.582001 60 100 63.582001 100 68 C 100 72.417999 103.582001 76 108 76 C 112.417999 76 116 72.417999 116 68 C 116 63.582001 112.417999 60 108 60 M 128 60 C 123.582001 60 120 63.582001 120 68 C 120 72.417999 123.582001 76 128 76 C 132.417999 76 136 72.417999 136 68 C 136 63.582001 132.417999 60 128 60 M 148 60 C 143.582001 60 140 63.582001 140 68 C 140 72.417999 143.582001 76 148 76 C 152.417999 76 156 72.417999 156 68 C 156 63.582001 152.417999 60 148 60 M 168 60 C 163.582001 60 160 63.582001 160 68 C 160 72.417999 163.582001 76 168 76 C 172.417999 76 176 72.417999 176 68 C 176 63.582001 172.417999 60 168 60 M 188 60 C 183.582001 60 180 63.582001 180 68 C 180 72.417999 183.582001 76 188 76 C 192.417999 76 196 72.417999 196 68 C 196 63.582001 192.417999 60 188 60 M 208 60 C 203.582001 60 200 63.582001 200 68 C 200 72.417999 203.582001 76 208 76 C 212.417999 76 216 72.417999 216 68 C 216 63.582001 212.417999 60 208 60 M 228 60 C 223.582001 60 220 63.582001 220 68 C 220 72.417999 223.582001 76 228 76 C 232.417999 76 236 72.417999 236 68 C 236 63.582001 232.417999 60 228 60 M 28 40 C 23.582001 40 20 43.582001 20 48 C 20 52.417999 23.582001 56 28 56 C 32.417999 56 36 52.417999 36 48 C 36 43.582001 32.417999 40 28 40 M 48 40 C 43.582001 40 40 43.582001 40 48 C 40 52.417999 43.582001 56 48 56 C 52.417999 56 56 52.417999 56 48 C 56 43.582001 52.417999 40 48 40 M 68 40 C 63.582001 40 60 43.582001 60 48 C 60 52.417999 63.582001 56 68 56 C 72.417999 56 76 52.417999 76 48 C 76 43.582001 72.417999 40 68 40 M 88 40 C 83.582001 40 80 43.582001 80 48 C 80 52.417999 83.582001 56 88 56 C 92.417999 56 96 52.417999 96 48 C 96 43.582001 92.417999 40 88 40 M 108 40 C 103.582001 40 100 43.582001 100 48 C 100 52.417999 103.582001 56 108 56 C 112.417999 56 116 52.417999 116 48 C 116 43.582001 112.417999 40 108 40 M 128 40 C 123.582001 40 120 43.582001 120 48 C 120 52.417999 123.582001 56 128 56 C 132.417999 56 136 52.417999 136 48 C 136 43.582001 132.417999 40 128 40 M 148 40 C 143.582001 40 140 43.582001 140 48 C 140 52.417999 143.582001 56 148 56 C 152.417999 56 156 52.417999 156 48 C 156 43.582001 152.417999 40 148 40 M 168 40 C 163.582001 40 160 43.582001 160 48 C 160 52.417999 163.582001 56 168 56 C 172.417999 56 176 52.417999 176 48 C 176 43.582001 172.417999 40 168 40 M 188 40 C 183.582001 40 180 43.582001 180 48 C 180 52.417999 183.582001 56 188 56 C 192.417999 56 196 52.417999 196 48 C 196 43.582001 192.417999 40 188 40 M 208 40 C 203.582001 40 200 43.582001 200 48 C 200 52.417999 203.582001 56 208 56 C 212.417999 56 216 52.417999 216 48 C 216 43.582001 212.417999 40 208 40 M 228 40 C 223.582001 40 220 43.582001 220 48 C 220 52.417999 223.582001 56 228 56 C 232.417999 56 236 52.417999 236 48 C 236 43.582001 232.417999 40 228 40 M 28 20 C 23.582001 20 20 23.582001 20 28 C 20 32.417999 23.582001 36 28 36 C 32.417999 36 36 32.417999 36 28 C 36 23.582001 32.417999 20 28 20 M 48 20 C 43.582001 20 40 23.582001 40 28 C 40 32.417999 43.582001 36 48 36 C 52.417999 36 56 32.417999 56 28 C 56 23.582001 52.417999 20 48 20 M 68 20 C 63.582001 20 60 23.582001 60 28 C 60 32.417999 63.582001 36 68 36 C 72.417999 36 76 32.417999 76 28 C 76 23.582001 72.417999 20 68 20 M 88 20 C 83.582001 20 80 23.582001 80 28 C 80 32.417999 83.582001 36 88 36 C 92.417999 36 96 32.417999 96 28 C 96 23.582001 92.417999 20 88 20 M 108 20 C 103.582001 20 100 23.582001 100 28 C 100 32.417999 103.582001 36 108 36 C 112.417999 36 116 32.417999 116 28 C 116 23.582001 112.417999 20 108 20 M 128 20 C 123.582001 20 120 23.582001 120 28 C 120 32.417999 123.582001 36 128 36 C 132.417999 36 136 32.417999 136 28 C 136 23.582001 132.417999 20 128 20 M 148 20 C 143.582001 20 140 23.582001 140 28 C 140 32.417999 143.582001 36 148 36 C 152.417999 36 156 32.417999 156 28 C 156 23.582001 152.417999 20 148 20 M 168 20 C 163.582001 20 160 23.582001 160 28 C 160 32.417999 163.582001 36 168 36 C 172.417999 36 176 32.417999 176 28 C 176 23.582001 172.417999 20 168 20 M 188 20 C 183.582001 20 180 23.582001 180 28 C 180 32.417999 183.582001 36 188 36 C 192.417999 36 196 32.417999 196 28 C 196 23.582001 192.417999 20 188 20 M 208 20 C 203.582001 20 200 23.582001 200 28 C 200 32.417999 203.582001 36 208 36 C 212.417999 36 216 32.417999 216 28 C 216 23.582001 212.417999 20 208 20 M 228 20 C 223.582001 20 220 23.582001 220 28 C 220 32.417999 223.582001 36 228 36 C 232.417999 36 236 32.417999 236 28 C 236 23.582001 232.417999 20 228 20 M 28 224 C 30.205999 224 32 225.794006 32 228 C 32 230.205994 30.205999 232 28 232 C 25.794001 232 24 230.205994 24 228 C 24 225.794006 25.794001 224 28 224 M 48 224 C 50.206001 224 52 225.794006 52 228 C 52 230.205994 50.206001 232 48 232 C 45.793999 232 44 230.205994 44 228 C 44 225.794006 45.793999 224 48 224 M 68 224 C 70.206001 224 72 225.794006 72 228 C 72 230.205994 70.206001 232 68 232 C 65.793999 232 64 230.205994 64 228 C 64 225.794006 65.793999 224 68 224 M 88 224 C 90.206001 224 92 225.794006 92 228 C 92 230.205994 90.206001 232 88 232 C 85.793999 232 84 230.205994 84 228 C 84 225.794006 85.793999 224 88 224 M 108 224 C 110.206001 224 112 225.794006 112 228 C 112 230.205994 110.206001 232 108 232 C 105.793999 232 104 230.205994 104 228 C 104 225.794006 105.793999 224 108 224 M 128 224 C 130.205994 224 132 225.794006 132 228 C 132 230.205994 130.205994 232 128 232 C 125.793999 232 124 230.205994 124 228 C 124 225.794006 125.793999 224 128 224 M 148 224 C 150.205994 224 152 225.794006 152 228 C 152 230.205994 150.205994 232 148 232 C 145.794006 232 144 230.205994 144 228 C 144 225.794006 145.794006 224 148 224 M 168 224 C 170.205994 224 172 225.794006 172 228 C 172 230.205994 170.205994 232 168 232 C 165.794006 232 164 230.205994 164 228 C 164 225.794006 165.794006 224 168 224 M 188 224 C 190.205994 224 192 225.794006 192 228 C 192 230.205994 190.205994 232 188 232 C 185.794006 232 184 230.205994 184 228 C 184 225.794006 185.794006 224 188 224 M 208 224 C 210.205994 224 212 225.794006 212 228 C 212 230.205994 210.205994 232 208 232 C 205.794006 232 204 230.205994 204 228 C 204 225.794006 205.794006 224 208 224 M 228 224 C 230.205994 224 232 225.794006 232 228 C 232 230.205994 230.205994 232 228 232 C 225.794006 232 224 230.205994 224 228 C 224 225.794006 225.794006 224 228 224 M 28 204 C 30.205999 204 32 205.794006 32 208 C 32 210.205994 30.205999 212 28 212 C 25.794001 212 24 210.205994 24 208 C 24 205.794006 25.794001 204 28 204 M 48 204 C 50.206001 204 52 205.794006 52 208 C 52 210.205994 50.206001 212 48 212 C 45.793999 212 44 210.205994 44 208 C 44 205.794006 45.793999 204 48 204 M 68 204 C 70.206001 204 72 205.794006 72 208 C 72 210.205994 70.206001 212 68 212 C 65.793999 212 64 210.205994 64 208 C 64 205.794006 65.793999 204 68 204 M 88 204 C 90.206001 204 92 205.794006 92 208 C 92 210.205994 90.206001 212 88 212 C 85.793999 212 84 210.205994 84 208 C 84 205.794006 85.793999 204 88 204 M 108 204 C 110.206001 204 112 205.794006 112 208 C 112 210.205994 110.206001 212 108 212 C 105.793999 212 104 210.205994 104 208 C 104 205.794006 105.793999 204 108 204 M 128 204 C 130.205994 204 132 205.794006 132 208 C 132 210.205994 130.205994 212 128 212 C 125.793999 212 124 210.205994 124 208 C 124 205.794006 125.793999 204 128 204 M 148 204 C 150.205994 204 152 205.794006 152 208 C 152 210.205994 150.205994 212 148 212 C 145.794006 212 144 210.205994 144 208 C 144 205.794006 145.794006 204 148 204 M 168 204 C 170.205994 204 172 205.794006 172 208 C 172 210.205994 170.205994 212 168 212 C 165.794006 212 164 210.205994 164 208 C 164 205.794006 165.794006 204 168 204 M 188 204 C 190.205994 204 192 205.794006 192 208 C 192 210.205994 190.205994 212 188 212 C 185.794006 212 184 210.205994 184 208 C 184 205.794006 185.794006 204 188 204 M 208 204 C 210.205994 204 212 205.794006 212 208 C 212 210.205994 210.205994 212 208 212 C 205.794006 212 204 210.205994 204 208 C 204 205.794006 205.794006 204 208 204 M 228 204 C 230.205994 204 232 205.794006 232 208 C 232 210.205994 230.205994 212 228 212 C 225.794006 212 224 210.205994 224 208 C 224 205.794006 225.794006 204 228 204 M 28 184 C 30.205999 184 32 185.794006 32 188 C 32 190.205994 30.205999 192 28 192 C 25.794001 192 24 190.205994 24 188 C 24 185.794006 25.794001 184 28 184 M 48 184 C 50.206001 184 52 185.794006 52 188 C 52 190.205994 50.206001 192 48 192 C 45.793999 192 44 190.205994 44 188 C 44 185.794006 45.793999 184 48 184 M 68 184 C 70.206001 184 72 185.794006 72 188 C 72 190.205994 70.206001 192 68 192 C 65.793999 192 64 190.205994 64 188 C 64 185.794006 65.793999 184 68 184 M 88 184 C 90.206001 184 92 185.794006 92 188 C 92 190.205994 90.206001 192 88 192 C 85.793999 192 84 190.205994 84 188 C 84 185.794006 85.793999 184 88 184 M 108 184 C 110.206001 184 112 185.794006 112 188 C 112 190.205994 110.206001 192 108 192 C 105.793999 192 104 190.205994 104 188 C 104 185.794006 105.793999 184 108 184 M 128 184 C 130.205994 184 132 185.794006 132 188 C 132 190.205994 130.205994 192 128 192 C 125.793999 192 124 190.205994 124 188 C 124 185.794006 125.793999 184 128 184 M 148 184 C 150.205994 184 152 185.794006 152 188 C 152 190.205994 150.205994 192 148 192 C 145.794006 192 144 190.205994 144 188 C 144 185.794006 145.794006 184 148 184 M 168 184 C 170.205994 184 172 185.794006 172 188 C 172 190.205994 170.205994 192 168 192 C 165.794006 192 164 190.205994 164 188 C 164 185.794006 165.794006 184 168 184 M 188 184 C 190.205994 184 192 185.794006 192 188 C 192 190.205994 190.205994 192 188 192 C 185.794006 192 184 190.205994 184 188 C 184 185.794006 185.794006 184 188 184 M 208 184 C 210.205994 184 212 185.794006 212 188 C 212 190.205994 210.205994 192 208 192 C 205.794006 192 204 190.205994 204 188 C 204 185.794006 205.794006 184 208 184 M 228 184 C 230.205994 184 232 185.794006 232 188 C 232 190.205994 230.205994 192 228 192 C 225.794006 192 224 190.205994 224 188 C 224 185.794006 225.794006 184 228 184 M 28 164 C 30.205999 164 32 165.794006 32 168 C 32 170.205994 30.205999 172 28 172 C 25.794001 172 24 170.205994 24 168 C 24 165.794006 25.794001 164 28 164 M 48 164 C 50.206001 164 52 165.794006 52 168 C 52 170.205994 50.206001 172 48 172 C 45.793999 172 44 170.205994 44 168 C 44 165.794006 45.793999 164 48 164 M 68 164 C 70.206001 164 72 165.794006 72 168 C 72 170.205994 70.206001 172 68 172 C 65.793999 172 64 170.205994 64 168 C 64 165.794006 65.793999 164 68 164 M 88 164 C 90.206001 164 92 165.794006 92 168 C 92 170.205994 90.206001 172 88 172 C 85.793999 172 84 170.205994 84 168 C 84 165.794006 85.793999 164 88 164 M 108 164 C 110.206001 164 112 165.794006 112 168 C 112 170.205994 110.206001 172 108 172 C 105.793999 172 104 170.205994 104 168 C 104 165.794006 105.793999 164 108 164 M 128 164 C 130.205994 164 132 165.794006 132 168 C 132 170.205994 130.205994 172 128 172 C 125.793999 172 124 170.205994 124 168 C 124 165.794006 125.793999 164 128 164 M 148 164 C 150.205994 164 152 165.794006 152 168 C 152 170.205994 150.205994 172 148 172 C 145.794006 172 144 170.205994 144 168 C 144 165.794006 145.794006 164 148 164 M 168 164 C 170.205994 164 172 165.794006 172 168 C 172 170.205994 170.205994 172 168 172 C 165.794006 172 164 170.205994 164 168 C 164 165.794006 165.794006 164 168 164 M 188 164 C 190.205994 164 192 165.794006 192 168 C 192 170.205994 190.205994 172 188 172 C 185.794006 172 184 170.205994 184 168 C 184 165.794006 185.794006 164 188 164 M 208 164 C 210.205994 164 212 165.794006 212 168 C 212 170.205994 210.205994 172 208 172 C 205.794006 172 204 170.205994 204 168 C 204 165.794006 205.794006 164 208 164 M 228 164 C 230.205994 164 232 165.794006 232 168 C 232 170.205994 230.205994 172 228 172 C 225.794006 172 224 170.205994 224 168 C 224 165.794006 225.794006 164 228 164 M 28 144 C 30.205999 144 32 145.794006 32 148 C 32 150.205994 30.205999 152 28 152 C 25.794001 152 24 150.205994 24 148 C 24 145.794006 25.794001 144 28 144 M 48 144 C 50.206001 144 52 145.794006 52 148 C 52 150.205994 50.206001 152 48 152 C 45.793999 152 44 150.205994 44 148 C 44 145.794006 45.793999 144 48 144 M 68 144 C 70.206001 144 72 145.794006 72 148 C 72 150.205994 70.206001 152 68 152 C 65.793999 152 64 150.205994 64 148 C 64 145.794006 65.793999 144 68 144 M 88 144 C 90.206001 144 92 145.794006 92 148 C 92 150.205994 90.206001 152 88 152 C 85.793999 152 84 150.205994 84 148 C 84 145.794006 85.793999 144 88 144 M 108 144 C 110.206001 144 112 145.794006 112 148 C 112 150.205994 110.206001 152 108 152 C 105.793999 152 104 150.205994 104 148 C 104 145.794006 105.793999 144 108 144 M 128 144 C 130.205994 144 132 145.794006 132 148 C 132 150.205994 130.205994 152 128 152 C 125.793999 152 124 150.205994 124 148 C 124 145.794006 125.793999 144 128 144 M 148 144 C 150.205994 144 152 145.794006 152 148 C 152 150.205994 150.205994 152 148 152 C 145.794006 152 144 150.205994 144 148 C 144 145.794006 145.794006 144 148 144 M 168 144 C 170.205994 144 172 145.794006 172 148 C 172 150.205994 170.205994 152 168 152 C 165.794006 152 164 150.205994 164 148 C 164 145.794006 165.794006 144 168 144 M 188 144 C 190.205994 144 192 145.794006 192 148 C 192 150.205994 190.205994 152 188 152 C 185.794006 152 184 150.205994 184 148 C 184 145.794006 185.794006 144 188 144 M 208 144 C 210.205994 144 212 145.794006 212 148 C 212 150.205994 210.205994 152 208 152 C 205.794006 152 204 150.205994 204 148 C 204 145.794006 205.794006 144 208 144 M 228 144 C 230.205994 144 232 145.794006 232 148 C 232 150.205994 230.205994 152 228 152 C 225.794006 152 224 150.205994 224 148 C 224 145.794006 225.794006 144 228 144 M 28 124 C 30.205999 124 32 125.794006 32 128 C 32 130.205994 30.205999 132 28 132 C 25.794001 132 24 130.205994 24 128 C 24 125.794006 25.794001 124 28 124 M 48 124 C 50.206001 124 52 125.794006 52 128 C 52 130.205994 50.206001 132 48 132 C 45.793999 132 44 130.205994 44 128 C 44 125.794006 45.793999 124 48 124 M 68 124 C 70.206001 124 72 125.794006 72 128 C 72 130.205994 70.206001 132 68 132 C 65.793999 132 64 130.205994 64 128 C 64 125.794006 65.793999 124 68 124 M 88 124 C 90.206001 124 92 125.794006 92 128 C 92 130.205994 90.206001 132 88 132 C 85.793999 132 84 130.205994 84 128 C 84 125.794006 85.793999 124 88 124 M 108 124 C 110.206001 124 112 125.794006 112 128 C 112 130.205994 110.206001 132 108 132 C 105.793999 132 104 130.205994 104 128 C 104 125.794006 105.793999 124 108 124 M 128 124 C 130.205994 124 132 125.794006 132 128 C 132 130.205994 130.205994 132 128 132 C 125.793999 132 124 130.205994 124 128 C 124 125.794006 125.793999 124 128 124 M 148 124 C 150.205994 124 152 125.794006 152 128 C 152 130.205994 150.205994 132 148 132 C 145.794006 132 144 130.205994 144 128 C 144 125.794006 145.794006 124 148 124 M 168 124 C 170.205994 124 172 125.794006 172 128 C 172 130.205994 170.205994 132 168 132 C 165.794006 132 164 130.205994 164 128 C 164 125.794006 165.794006 124 168 124 M 188 124 C 190.205994 124 192 125.794006 192 128 C 192 130.205994 190.205994 132 188 132 C 185.794006 132 184 130.205994 184 128 C 184 125.794006 185.794006 124 188 124 M 208 124 C 210.205994 124 212 125.794006 212 128 C 212 130.205994 210.205994 132 208 132 C 205.794006 132 204 130.205994 204 128 C 204 125.794006 205.794006 124 208 124 M 228 124 C 230.205994 124 232 125.794006 232 128 C 232 130.205994 230.205994 132 228 132 C 225.794006 132 224 130.205994 224 128 C 224 125.794006 225.794006 124 228 124 M 28 104 C 30.205999 104 32 105.794006 32 108 C 32 110.205994 30.205999 112 28 112 C 25.794001 112 24 110.205994 24 108 C 24 105.794006 25.794001 104 28 104 M 48 104 C 50.206001 104 52 105.794006 52 108 C 52 110.205994 50.206001 112 48 112 C 45.793999 112 44 110.205994 44 108 C 44 105.794006 45.793999 104 48 104 M 68 104 C 70.206001 104 72 105.794006 72 108 C 72 110.205994 70.206001 112 68 112 C 65.793999 112 64 110.205994 64 108 C 64 105.794006 65.793999 104 68 104 M 88 104 C 90.206001 104 92 105.794006 92 108 C 92 110.205994 90.206001 112 88 112 C 85.793999 112 84 110.205994 84 108 C 84 105.794006 85.793999 104 88 104 M 108 104 C 110.206001 104 112 105.794006 112 108 C 112 110.205994 110.206001 112 108 112 C 105.793999 112 104 110.205994 104 108 C 104 105.794006 105.793999 104 108 104 M 128 104 C 130.205994 104 132 105.794006 132 108 C 132 110.205994 130.205994 112 128 112 C 125.793999 112 124 110.205994 124 108 C 124 105.794006 125.793999 104 128 104 M 148 104 C 150.205994 104 152 105.794006 152 108 C 152 110.205994 150.205994 112 148 112 C 145.794006 112 144 110.205994 144 108 C 144 105.794006 145.794006 104 148 104 M 168 104 C 170.205994 104 172 105.794006 172 108 C 172 110.205994 170.205994 112 168 112 C 165.794006 112 164 110.205994 164 108 C 164 105.794006 165.794006 104 168 104 M 188 104 C 190.205994 104 192 105.794006 192 108 C 192 110.205994 190.205994 112 188 112 C 185.794006 112 184 110.205994 184 108 C 184 105.794006 185.794006 104 188 104 M 208 104 C 210.205994 104 212 105.794006 212 108 C 212 110.205994 210.205994 112 208 112 C 205.794006 112 204 110.205994 204 108 C 204 105.794006 205.794006 104 208 104 M 228 104 C 230.205994 104 232 105.794006 232 108 C 232 110.205994 230.205994 112 228 112 C 225.794006 112 224 110.205994 224 108 C 224 105.794006 225.794006 104 228 104 M 28 84 C 30.205999 84 32 85.794006 32 88 C 32 90.205994 30.205999 92 28 92 C 25.794001 92 24 90.205994 24 88 C 24 85.794006 25.794001 84 28 84 M 48 84 C 50.206001 84 52 85.794006 52 88 C 52 90.205994 50.206001 92 48 92 C 45.793999 92 44 90.205994 44 88 C 44 85.794006 45.793999 84 48 84 M 68 84 C 70.206001 84 72 85.794006 72 88 C 72 90.205994 70.206001 92 68 92 C 65.793999 92 64 90.205994 64 88 C 64 85.794006 65.793999 84 68 84 M 88 84 C 90.206001 84 92 85.794006 92 88 C 92 90.205994 90.206001 92 88 92 C 85.793999 92 84 90.205994 84 88 C 84 85.794006 85.793999 84 88 84 M 108 84 C 110.206001 84 112 85.794006 112 88 C 112 90.205994 110.206001 92 108 92 C 105.793999 92 104 90.205994 104 88 C 104 85.794006 105.793999 84 108 84 M 128 84 C 130.205994 84 132 85.794006 132 88 C 132 90.205994 130.205994 92 128 92 C 125.793999 92 124 90.205994 124 88 C 124 85.794006 125.793999 84 128 84 M 148 84 C 150.205994 84 152 85.794006 152 88 C 152 90.205994 150.205994 92 148 92 C 145.794006 92 144 90.205994 144 88 C 144 85.794006 145.794006 84 148 84 M 168 84 C 170.205994 84 172 85.794006 172 88 C 172 90.205994 170.205994 92 168 92 C 165.794006 92 164 90.205994 164 88 C 164 85.794006 165.794006 84 168 84 M 188 84 C 190.205994 84 192 85.794006 192 88 C 192 90.205994 190.205994 92 188 92 C 185.794006 92 184 90.205994 184 88 C 184 85.794006 185.794006 84 188 84 M 208 84 C 210.205994 84 212 85.794006 212 88 C 212 90.205994 210.205994 92 208 92 C 205.794006 92 204 90.205994 204 88 C 204 85.794006 205.794006 84 208 84 M 228 84 C 230.205994 84 232 85.794006 232 88 C 232 90.205994 230.205994 92 228 92 C 225.794006 92 224 90.205994 224 88 C 224 85.794006 225.794006 84 228 84 M 28 64 C 30.205999 64 32 65.794006 32 68 C 32 70.205994 30.205999 72 28 72 C 25.794001 72 24 70.205994 24 68 C 24 65.794006 25.794001 64 28 64 M 48 64 C 50.206001 64 52 65.794006 52 68 C 52 70.205994 50.206001 72 48 72 C 45.793999 72 44 70.205994 44 68 C 44 65.794006 45.793999 64 48 64 M 68 64 C 70.206001 64 72 65.794006 72 68 C 72 70.205994 70.206001 72 68 72 C 65.793999 72 64 70.205994 64 68 C 64 65.794006 65.793999 64 68 64 M 88 64 C 90.206001 64 92 65.794006 92 68 C 92 70.205994 90.206001 72 88 72 C 85.793999 72 84 70.205994 84 68 C 84 65.794006 85.793999 64 88 64 M 108 64 C 110.206001 64 112 65.794006 112 68 C 112 70.205994 110.206001 72 108 72 C 105.793999 72 104 70.205994 104 68 C 104 65.794006 105.793999 64 108 64 M 128 64 C 130.205994 64 132 65.794006 132 68 C 132 70.205994 130.205994 72 128 72 C 125.793999 72 124 70.205994 124 68 C 124 65.794006 125.793999 64 128 64 M 148 64 C 150.205994 64 152 65.794006 152 68 C 152 70.205994 150.205994 72 148 72 C 145.794006 72 144 70.205994 144 68 C 144 65.794006 145.794006 64 148 64 M 168 64 C 170.205994 64 172 65.794006 172 68 C 172 70.205994 170.205994 72 168 72 C 165.794006 72 164 70.205994 164 68 C 164 65.794006 165.794006 64 168 64 M 188 64 C 190.205994 64 192 65.794006 192 68 C 192 70.205994 190.205994 72 188 72 C 185.794006 72 184 70.205994 184 68 C 184 65.794006 185.794006 64 188 64 M 208 64 C 210.205994 64 212 65.794006 212 68 C 212 70.205994 210.205994 72 208 72 C 205.794006 72 204 70.205994 204 68 C 204 65.794006 205.794006 64 208 64 M 228 64 C 230.205994 64 232 65.794006 232 68 C 232 70.205994 230.205994 72 228 72 C 225.794006 72 224 70.205994 224 68 C 224 65.794006 225.794006 64 228 64 M 28 44 C 30.205999 44 32 45.794006 32 48 C 32 50.205994 30.205999 52 28 52 C 25.794001 52 24 50.205994 24 48 C 24 45.794006 25.794001 44 28 44 M 48 44 C 50.206001 44 52 45.794006 52 48 C 52 50.205994 50.206001 52 48 52 C 45.793999 52 44 50.205994 44 48 C 44 45.794006 45.793999 44 48 44 M 68 44 C 70.206001 44 72 45.794006 72 48 C 72 50.205994 70.206001 52 68 52 C 65.793999 52 64 50.205994 64 48 C 64 45.794006 65.793999 44 68 44 M 88 44 C 90.206001 44 92 45.794006 92 48 C 92 50.205994 90.206001 52 88 52 C 85.793999 52 84 50.205994 84 48 C 84 45.794006 85.793999 44 88 44 M 108 44 C 110.206001 44 112 45.794006 112 48 C 112 50.205994 110.206001 52 108 52 C 105.793999 52 104 50.205994 104 48 C 104 45.794006 105.793999 44 108 44 M 128 44 C 130.205994 44 132 45.794006 132 48 C 132 50.205994 130.205994 52 128 52 C 125.793999 52 124 50.205994 124 48 C 124 45.794006 125.793999 44 128 44 M 148 44 C 150.205994 44 152 45.794006 152 48 C 152 50.205994 150.205994 52 148 52 C 145.794006 52 144 50.205994 144 48 C 144 45.794006 145.794006 44 148 44 M 168 44 C 170.205994 44 172 45.794006 172 48 C 172 50.205994 170.205994 52 168 52 C 165.794006 52 164 50.205994 164 48 C 164 45.794006 165.794006 44 168 44 M 188 44 C 190.205994 44 192 45.794006 192 48 C 192 50.205994 190.205994 52 188 52 C 185.794006 52 184 50.205994 184 48 C 184 45.794006 185.794006 44 188 44 M 208 44 C 210.205994 44 212 45.794006 212 48 C 212 50.205994 210.205994 52 208 52 C 205.794006 52 204 50.205994 204 48 C 204 45.794006 205.794006 44 208 44 M 228 44 C 230.205994 44 232 45.794006 232 48 C 232 50.205994 230.205994 52 228 52 C 225.794006 52 224 50.205994 224 48 C 224 45.794006 225.794006 44 228 44 M 28 24 C 30.205999 24 32 25.794006 32 28 C 32 30.205994 30.205999 32 28 32 C 25.794001 32 24 30.205994 24 28 C 24 25.794006 25.794001 24 28 24 M 48 24 C 50.206001 24 52 25.794006 52 28 C 52 30.205994 50.206001 32 48 32 C 45.793999 32 44 30.205994 44 28 C 44 25.794006 45.793999 24 48 24 M 68 24 C 70.206001 24 72 25.794006 72 28 C 72 30.205994 70.206001 32 68 32 C 65.793999 32 64 30.205994 64 28 C 64 25.794006 65.793999 24 68 24 M 88 24 C 90.206001 24 92 25.794006 92 28 C 92 30.205994 90.206001 32 88 32 C 85.793999 32 84 30.205994 84 28 C 84 25.794006 85.793999 24 88 24 M 108 24 C 110.206001 24 112 25.794006 112 28 C 112 30.205994 110.206001 32 108 32 C 105.793999 32 104 30.205994 104 28 C 104 25.794006 105.793999 24 108 24 M 128 24 C 130.205994 24 132 25.794006 132 28 C 132 30.205994 130.205994 32 128 32 C 125.793999 32 124 30.205994 124 28 C 124 25.794006 125.793999 24 128 24 M 148 24 C 150.205994 24 152 25.794006 152 28 C 152 30.205994 150.205994 32 148 32 C 145.794006 32 144 30.205994 144 28 C 144 25.794006 145.794006 24 148 24 M 168 24 C 170.205994 24 172 25.794006 172 28 C 172 30.205994 170.205994 32 168 32 C 165.794006 32 164 30.205994 164 28 C 164 25.794006 165.794006 24 168 24 M 188 24 C 190.205994 24 192 25.794006 192 28 C 192 30.205994 190.205994 32 188 32 C 185.794006 32 184 30.205994 184 28 C 184 25.794006 185.794006 24 188 24 M 208 24 C 210.205994 24 212 25.794006 212 28 C 212 30.205994 210.205994 32 208 32 C 205.794006 32 204 30.205994 204 28 C 204 25.794006 205.794006 24 208 24 M 228 24 C 230.205994 24 232 25.794006 232 28 C 232 30.205994 230.205994 32 228 32 C 225.794006 32 224 30.205994 224 28 C 224 25.794006 225.794006 24 228 24"/>
</svg>
