<?xml version="1.0" encoding="UTF-8"?>
<!-- Generated by Pixelmator Pro 3.7.1 -->
<svg width="256" height="256" viewBox="0 0 256 256" xmlns="http://www.w3.org/2000/svg">
    <path id="Path" fill="#ffffff" stroke="none" d="M 237.126007 48 L 18.874001 48 C 12.877999 48 7.999993 53.044998 7.999993 59.246994 L 7.999993 69 L 7.999993 73 L 7.999993 77 L 7.999993 81 L 7.999993 85 L 7.999993 89 L 7.999993 93 L 7.999993 97 L 7.999993 206 L 7.999993 210 L 11.999993 210 L 244 210 L 248 210 L 248 206 L 248 59.246994 C 248 53.044998 243.121994 48 237.126007 48 M 237.126007 52 C 240.923004 52 244 55.244995 244 59.246994 L 244 206 L 11.999993 206 L 11.999993 97 L 15.999993 97 L 15.999993 93 L 11.999993 93 L 11.999993 89 L 15.999993 89 L 15.999993 85 L 11.999993 85 L 11.999993 81 L 15.999993 81 L 15.999993 77 L 11.999993 77 L 11.999993 73 L 15.999993 73 L 15.999993 69 L 11.999993 69 L 11.999993 59.246994 C 11.999993 55.244995 15.077996 52 18.874001 52 L 237.126007 52"/>
    <path id="path1" fill="#ffffff" stroke="none" d="M 32 156 C 25.382999 156 20 161.382996 20 168 C 20 174.617004 25.382999 180 32 180 C 38.617001 180 44 174.617004 44 168 C 44 161.382996 38.617001 156 32 156 M 32 160 C 36.417999 160 40 163.582001 40 168 C 40 172.417999 36.417999 176 32 176 C 27.582001 176 24 172.417999 24 168 C 24 163.582001 27.582001 160 32 160"/>
    <path id="path2" fill="#ffffff" stroke="none" d="M 32 72 C 27.589001 72 24 75.589005 24 80 C 24 84.410995 27.589001 88 32 88 C 36.410999 88 40 84.410995 40 80 C 40 75.589005 36.410999 72 32 72 M 32 76 C 34.209 76 36 77.791 36 80 C 36 82.209 34.209 84 32 84 C 29.791 84 28 82.209 28 80 C 28 77.791 29.791 76 32 76"/>
    <path id="path3" fill="#ffffff" stroke="none" d="M 232 56 L 48 56 L 48 187 C 48 187.552994 48.447998 188 49 188 L 231 188 C 231.552994 188 232 187.552994 232 187 Z M 228 184 L 52 184 L 52 60 L 228 60 Z M 228 60"/>
</svg>
