<?xml version="1.0" encoding="UTF-8"?>
<!-- Generated by Pixelmator Pro 3.7.1 -->
<svg width="256" height="256" viewBox="0 0 256 256" xmlns="http://www.w3.org/2000/svg">
    <path id="Path" fill="#ffffff" stroke="none" d="M 244 233.859406 C 244 234.832397 243.643997 235.755402 243.022003 236.472397 C 242.908997 236.603394 242.787994 236.728394 242.656998 236.844406 L 242.645996 236.8564 C 242.511002 236.974396 242.369995 237.087402 242.218994 237.187408 L 238 240.000397 L 238 235.755402 L 238 231.713394 L 238 18.387405 L 238 18.000412 L 242.218994 20.812408 C 243.332001 21.554413 244 22.803406 244 24.140411 Z M 156.149002 218.018402 L 234 227.511398 L 234 231.142395 L 234 235.183395 L 234 239.487396 L 160 230.000397 Z M 21.996994 237.781403 L 21.783997 225.678406 L 151.932999 218.448395 L 152.205002 219.264404 L 155.931 230.442398 Z M 20 124.002396 L 21.990005 18.569412 L 83.820007 27.389404 L 84.511993 29.327408 L 150.218994 213.306396 L 150.622009 214.514404 L 21.714005 221.676392 Z M 234 223.482391 L 156.484009 214.029404 L 154.644989 213.804398 L 88.279007 27.9814 L 234 18.394409 Z M 17.824005 227.952393 L 18 238.000397 L 14.735001 236.912399 C 13.102005 236.367401 12 234.838394 12 233.117401 L 12 228.076401 L 12 23.919403 L 12 22.882401 C 12 22.64241 12.026001 22.40741 12.067993 22.176407 C 12.078003 22.118408 12.095993 22.0634 12.108994 22.006409 C 12.149002 21.8284 12.197998 21.654404 12.261993 21.485413 C 12.279999 21.437408 12.300995 21.390411 12.320999 21.342407 C 12.397003 21.161407 12.485001 20.987411 12.587006 20.820404 C 12.602997 20.793411 12.619003 20.766403 12.636002 20.73941 C 13.117996 19.983398 13.843002 19.385406 14.735001 19.088409 L 18 18.000412 L 16 124.000397 Z M 244.436996 17.484406 L 240.218994 14.672409 L 234 14.386398 L 88.220001 23.977402 L 24.789993 14.928406 C 22.977997 14.669403 21.145996 14.577408 19.317001 14.652405 L 16.278 14.778412 C 15.322998 14.817398 14.376999 14.991409 13.470001 15.293411 C 10.449005 15.293411 8 17.742401 8 20.763412 L 8 123.920395 L 7.996994 123.997406 L 8 124.076401 L 8 233.117401 C 8 236.560394 10.203995 239.617401 13.470001 240.706406 L 16.735001 241.795395 L 22.067001 241.783401 L 159.419006 234.256393 L 234 243.519394 L 236.998993 243.751404 C 239.063995 243.911407 241.110992 243.262405 242.709 241.943405 L 244.436996 240.515396 C 246.667999 239.028397 248 236.540405 248 233.859406 L 248 24.140411 C 248 21.465408 246.662994 18.967407 244.436996 17.484406"/>
    <path id="path1" fill="#ffffff" stroke="none" d="M 194.321304 144.753906 L 190.058304 143.934906 L 197.183304 166.196899 L 201.408295 166.900909 Z"/>
    <path id="path2" fill="#ffffff" stroke="none" d="M 185.796906 143.115204 L 181.533905 142.295197 L 188.732895 164.7892 L 192.957901 165.493195 Z"/>
    <path id="path3" fill="#ffffff" stroke="none" d="M 202.845703 146.3936 L 198.583694 145.5746 L 205.633698 167.605591 L 209.859695 168.309601 Z"/>
    <path id="path4" fill="#ffffff" stroke="none" d="M 154.596695 133.115204 L 158.859695 133.934204 L 149.697693 105.303192 L 145.453705 104.545197 Z"/>
    <path id="path5" fill="#ffffff" stroke="none" d="M 180.170898 138.033203 L 184.432907 138.852203 L 175.150894 109.848206 L 170.908905 109.091202 Z"/>
    <path id="path6" fill="#ffffff" stroke="none" d="M 188.695297 139.671906 L 192.957306 140.491898 L 183.636307 111.363907 L 179.393295 110.605896 Z"/>
    <path id="path7" fill="#ffffff" stroke="none" d="M 163.121094 134.753906 L 167.384094 135.573898 L 158.182098 106.817902 L 153.939102 106.060898 Z"/>
    <path id="path8" fill="#ffffff" stroke="none" d="M 171.645493 136.3936 L 175.908493 137.212601 L 166.666504 108.333603 L 162.423492 107.575592 Z"/>
    <path id="path9" fill="#ffffff" stroke="none" d="M 168.748001 139.835907 L 164.485001 139.016907 L 171.830994 161.971893 L 176.057007 162.675903 Z"/>
    <path id="path10" fill="#ffffff" stroke="none" d="M 177.272507 141.475601 L 173.009506 140.655609 L 180.281494 163.379608 L 184.5065 164.084595 Z"/>
    <path id="path11" fill="#ffffff" stroke="none" d="M 214.2686 144.589798 L 218.531601 145.40979 L 209.090607 115.908798 L 204.848602 115.151794 Z"/>
    <path id="path12" fill="#ffffff" stroke="none" d="M 217.576202 117.424301 L 213.333206 116.666306 L 222.793198 146.229309 L 227.055206 147.049301 Z"/>
    <path id="path13" fill="#ffffff" stroke="none" d="M 154.929703 159.155304 L 159.155701 159.859299 L 151.6987 136.557297 L 147.435699 135.737305 Z"/>
    <path id="path14" fill="#ffffff" stroke="none" d="M 232 125 L 232 120 L 230.302994 119.697006 Z"/>
    <path id="path15" fill="#ffffff" stroke="none" d="M 228.419907 151.311493 L 224.156906 150.492493 L 230.985901 171.831497 L 231.999893 171.999496 L 231.999893 162.499496 Z"/>
    <path id="path16" fill="#ffffff" stroke="none" d="M 160.222702 138.196289 L 155.960693 137.377289 L 163.3797 160.563293 L 167.605698 161.267303 Z"/>
    <path id="path17" fill="#ffffff" stroke="none" d="M 197.219696 141.311493 L 201.482697 142.130493 L 192.120697 112.878494 L 187.878708 112.121506 Z"/>
    <path id="path18" fill="#ffffff" stroke="none" d="M 205.744095 142.951202 L 210.007095 143.770203 L 200.606094 114.394196 L 196.363098 113.6362 Z"/>
    <path id="path19" fill="#ffffff" stroke="none" d="M 194.309601 169.718689 L 190.084595 169.013702 L 198.466599 195.209702 L 202.6586 195.808701 Z"/>
    <path id="path20" fill="#ffffff" stroke="none" d="M 219.662094 173.94339 L 215.436096 173.23941 L 223.617096 198.802399 L 227.808105 199.401398 Z"/>
    <path id="path21" fill="#ffffff" stroke="none" d="M 211.210907 172.535202 L 206.985901 171.831207 L 215.232895 197.604202 L 219.424896 198.203201 Z"/>
    <path id="path22" fill="#ffffff" stroke="none" d="M 207.108398 147.212891 L 214.085403 169.013901 L 218.309402 169.718903 L 211.370407 148.032898 Z"/>
    <path id="path23" fill="#ffffff" stroke="none" d="M 202.760696 171.126999 L 198.534698 170.423004 L 206.850693 196.406998 L 211.041702 197.005997 Z"/>
    <path id="path24" fill="#ffffff" stroke="none" d="M 228.112305 175.352509 L 223.887299 174.647491 L 232.000305 199.999496 L 232.000305 187.499512 Z"/>
    <path id="path25" fill="#ffffff" stroke="none" d="M 185.859406 168.309601 L 181.633408 167.605591 L 190.084396 194.011597 L 194.275406 194.610596 Z"/>
    <path id="path26" fill="#ffffff" stroke="none" d="M 133.285202 129.016602 L 124.242203 100.757599 L 120.000198 99.999603 L 129.023193 128.196594 Z"/>
    <path id="path27" fill="#ffffff" stroke="none" d="M 146.072296 131.475601 L 150.334305 132.294601 L 141.212296 103.788605 L 136.969299 103.030594 Z"/>
    <path id="path28" fill="#ffffff" stroke="none" d="M 219.895493 149.671906 L 215.632507 148.852905 L 222.535507 170.422897 L 226.760498 171.126892 Z"/>
    <path id="path29" fill="#ffffff" stroke="none" d="M 226.060501 118.939499 L 221.818497 118.181503 L 231.318497 147.869507 L 231.999496 148.000504 L 231.999496 137.500504 Z"/>
    <path id="path30" fill="#ffffff" stroke="none" d="M 138.028305 156.337891 L 142.254303 157.041901 L 134.649307 133.277893 L 130.386307 132.458893 Z"/>
    <path id="path31" fill="#ffffff" stroke="none" d="M 150.704102 158.451202 L 143.174103 134.918198 L 138.911102 134.098206 L 146.478104 157.746201 Z"/>
    <path id="path32" fill="#ffffff" stroke="none" d="M 152.359406 188.623001 L 143.605408 161.268005 L 139.380402 160.563004 L 148.168396 188.02301 Z"/>
    <path id="path33" fill="#ffffff" stroke="none" d="M 137.547897 129.835907 L 141.809906 130.655899 L 132.727905 102.272903 L 128.484894 101.514908 Z"/>
    <path id="path34" fill="#ffffff" stroke="none" d="M 152.056595 162.675797 L 147.830597 161.971802 L 156.550598 189.221802 L 160.742599 189.820801 Z"/>
    <path id="path35" fill="#ffffff" stroke="none" d="M 168.957993 165.493195 L 164.731995 164.7892 L 173.317001 191.617203 L 177.509003 192.216202 Z"/>
    <path id="path36" fill="#ffffff" stroke="none" d="M 177.408203 166.901398 L 173.183197 166.197403 L 181.700195 192.814392 L 185.892197 193.413391 Z"/>
    <path id="path37" fill="#ffffff" stroke="none" d="M 160.506805 164.084991 L 156.280807 163.380005 L 164.934799 190.419006 L 169.125793 191.018005 Z"/>
</svg>
