<?xml version="1.0" encoding="UTF-8"?>
<!-- Generated by Pixelmator Pro 3.7.1 -->
<svg width="256" height="256" viewBox="0 0 256 256" xmlns="http://www.w3.org/2000/svg">
    <path id="Path" fill="#ffffff" stroke="none" d="M 25 132 L 35 132 C 35.552002 132 36 131.553009 36 131 L 36 129 C 36 128.447998 35.552002 128 35 128 L 25 128 C 24.448 128 24 128.447998 24 129 L 24 131 C 24 131.553009 24.448 132 25 132"/>
    <path id="path1" fill="#ffffff" stroke="none" d="M 41 132 L 51 132 C 51.552002 132 52 131.553009 52 131 L 52 129 C 52 128.447998 51.552002 128 51 128 L 41 128 C 40.448002 128 40 128.447998 40 129 L 40 131 C 40 131.553009 40.448002 132 41 132"/>
    <path id="path2" fill="#ffffff" stroke="none" d="M 57 132 L 67 132 C 67.552002 132 68 131.553009 68 131 L 68 129 C 68 128.447998 67.552002 128 67 128 L 57 128 C 56.448002 128 56 128.447998 56 129 L 56 131 C 56 131.553009 56.448002 132 57 132"/>
    <path id="path3" fill="#ffffff" stroke="none" d="M 73 132 L 83 132 C 83.552002 132 84 131.553009 84 131 L 84 129 C 84 128.447998 83.552002 128 83 128 L 73 128 C 72.447998 128 72 128.447998 72 129 L 72 131 C 72 131.553009 72.447998 132 73 132"/>
    <path id="path4" fill="#ffffff" stroke="none" d="M 89 132 L 99 132 C 99.552002 132 100 131.553009 100 131 L 100 129 C 100 128.447998 99.552002 128 99 128 L 89 128 C 88.447998 128 88 128.447998 88 129 L 88 131 C 88 131.553009 88.447998 132 89 132"/>
    <path id="path5" fill="#ffffff" stroke="none" d="M 105 132 L 115 132 C 115.552002 132 116 131.553009 116 131 L 116 129 C 116 128.447998 115.552002 128 115 128 L 105 128 C 104.447998 128 104 128.447998 104 129 L 104 131 C 104 131.553009 104.447998 132 105 132"/>
    <path id="path6" fill="#ffffff" stroke="none" d="M 121 132 L 131 132 C 131.552994 132 132 131.553009 132 131 L 132 129 C 132 128.447998 131.552994 128 131 128 L 121 128 C 120.447998 128 120 128.447998 120 129 L 120 131 C 120 131.553009 120.447998 132 121 132"/>
    <path id="path7" fill="#ffffff" stroke="none" d="M 145 132 L 155 132 C 155.552994 132 156 131.553009 156 131 L 156 129 C 156 128.447998 155.552994 128 155 128 L 145 128 C 144.447006 128 144 128.447998 144 129 L 144 131 C 144 131.553009 144.447006 132 145 132"/>
    <path id="path8" fill="#ffffff" stroke="none" d="M 161 132 L 171 132 C 171.552994 132 172 131.553009 172 131 L 172 129 C 172 128.447998 171.552994 128 171 128 L 161 128 C 160.447006 128 160 128.447998 160 129 L 160 131 C 160 131.553009 160.447006 132 161 132"/>
    <path id="path9" fill="#ffffff" stroke="none" d="M 178 132 C 179.104004 132 180 131.104004 180 130 C 180 128.895996 179.104004 128 178 128 C 176.895996 128 176 128.895996 176 130 C 176 131.104004 176.895996 132 178 132"/>
    <path id="path10" fill="#ffffff" stroke="none" d="M 36 196 L 28 196 L 28 188 L 36 188 Z M 24 176 L 40 176 L 44 176 L 48 176 L 48 184 L 40 184 L 36 184 L 28 184 L 24 184 Z M 24 164 L 36 164 L 40 164 L 40 172 L 24 172 Z M 24 152 L 32 152 L 36 152 L 36 160 L 24 160 Z M 24 140 L 32 140 L 32 148 L 24 148 Z M 36 140 L 44 140 L 44 148 L 40 148 L 36 148 Z M 48 140 L 56 140 L 56 148 L 52 148 L 48 148 Z M 60 140 L 68 140 L 68 148 L 64 148 L 60 148 Z M 72 140 L 80 140 L 80 148 L 76 148 L 72 148 Z M 84 140 L 92 140 L 92 148 L 88 148 L 84 148 Z M 96 140 L 104 140 L 104 148 L 100 148 L 96 148 Z M 108 140 L 116 140 L 116 148 L 112 148 L 108 148 Z M 120 140 L 128 140 L 128 148 L 124 148 L 120 148 Z M 132 140 L 140 140 L 140 148 L 136 148 L 132 148 Z M 144 140 L 152 140 L 152 148 L 148 148 L 144 148 Z M 156 140 L 164 140 L 164 148 L 160 148 L 156 148 Z M 168 140 L 184 140 L 184 144 L 184 148 L 172 148 L 168 148 Z M 188 132 L 196 132 L 196 140 L 188 140 L 188 136 Z M 200 132 L 208 132 L 208 140 L 200 140 Z M 212 132 L 220 132 L 220 140 L 212 140 Z M 224 132 L 232 132 L 232 140 L 224 140 Z M 232 152 L 224 152 L 224 144 L 232 144 Z M 232 164 L 224 164 L 224 156 L 232 156 Z M 232 176 L 224 176 L 224 168 L 232 168 Z M 232 196 L 188 196 L 188 188 L 188 184 L 188 180 L 196 180 L 200 180 L 208 180 L 212 180 L 220 180 L 224 180 L 232 180 Z M 172 184 L 172 176 L 176 176 L 184 176 L 184 180 L 184 184 Z M 168 184 L 164 184 L 160 184 L 160 176 L 164 176 L 168 176 Z M 160 196 L 152 196 L 152 188 L 156 188 L 160 188 Z M 52 176 L 56 176 L 60 176 L 60 184 L 52 184 Z M 44 164 L 48 164 L 52 164 L 52 172 L 48 172 L 44 172 Z M 60 160 L 56 160 L 52 160 L 52 152 L 56 152 L 60 152 Z M 72 160 L 68 160 L 64 160 L 64 152 L 68 152 L 72 152 Z M 84 160 L 80 160 L 76 160 L 76 152 L 80 152 L 84 152 Z M 96 160 L 92 160 L 88 160 L 88 152 L 92 152 L 96 152 Z M 108 160 L 104 160 L 100 160 L 100 152 L 104 152 L 108 152 Z M 120 160 L 116 160 L 112 160 L 112 152 L 116 152 L 120 152 Z M 132 160 L 128 160 L 124 160 L 124 152 L 128 152 L 132 152 Z M 144 160 L 140 160 L 136 160 L 136 152 L 140 152 L 144 152 Z M 156 160 L 152 160 L 148 160 L 148 152 L 152 152 L 156 152 Z M 168 160 L 164 160 L 160 160 L 160 152 L 164 152 L 168 152 Z M 184 156 L 176 156 L 172 156 L 172 152 L 184 152 Z M 208 152 L 200 152 L 200 144 L 208 144 Z M 200 168 L 208 168 L 208 176 L 200 176 Z M 188 172 L 188 168 L 196 168 L 196 176 L 188 176 Z M 176 164 L 184 164 L 184 168 L 184 172 L 176 172 Z M 208 164 L 200 164 L 200 156 L 208 156 Z M 188 160 L 188 156 L 196 156 L 196 164 L 188 164 Z M 164 164 L 168 164 L 172 164 L 172 172 L 168 172 L 164 172 Z M 152 172 L 152 164 L 156 164 L 160 164 L 160 172 L 156 172 Z M 136 176 L 140 176 L 144 176 L 144 184 L 136 184 Z M 124 176 L 128 176 L 132 176 L 132 184 L 124 184 Z M 112 176 L 116 176 L 120 176 L 120 184 L 112 184 Z M 100 176 L 104 176 L 108 176 L 108 184 L 100 184 Z M 88 176 L 92 176 L 96 176 L 96 184 L 88 184 Z M 76 176 L 80 176 L 84 176 L 84 184 L 76 184 Z M 64 176 L 68 176 L 72 176 L 72 184 L 64 184 Z M 76 172 L 72 172 L 68 172 L 68 164 L 72 164 L 76 164 Z M 88 172 L 84 172 L 80 172 L 80 164 L 84 164 L 88 164 Z M 100 172 L 96 172 L 92 172 L 92 164 L 96 164 L 100 164 Z M 112 172 L 108 172 L 104 172 L 104 164 L 108 164 L 112 164 Z M 124 172 L 120 172 L 116 172 L 116 164 L 120 164 L 124 164 Z M 136 172 L 132 172 L 128 172 L 128 164 L 132 164 L 136 164 Z M 148 172 L 144 172 L 140 172 L 140 164 L 144 164 L 148 164 Z M 56 164 L 60 164 L 64 164 L 64 172 L 60 172 L 56 172 Z M 156 184 L 152 184 L 148 184 L 148 176 L 152 176 L 156 176 Z M 220 176 L 212 176 L 212 168 L 220 168 Z M 220 164 L 212 164 L 212 156 L 220 156 Z M 220 152 L 212 152 L 212 144 L 220 144 Z M 188 148 L 188 144 L 196 144 L 196 152 L 188 152 Z M 40 152 L 44 152 L 48 152 L 48 160 L 44 160 L 40 160 Z M 148 196 L 52 196 L 52 188 L 60 188 L 64 188 L 72 188 L 76 188 L 84 188 L 88 188 L 96 188 L 100 188 L 108 188 L 112 188 L 120 188 L 124 188 L 132 188 L 136 188 L 144 188 L 148 188 Z M 48 196 L 40 196 L 40 188 L 48 188 Z M 24 196 L 24 200 L 28 200 L 36 200 L 40 200 L 48 200 L 52 200 L 148 200 L 152 200 L 160 200 L 164 200 L 164 196 L 164 188 L 168 188 L 172 188 L 184 188 L 184 196 L 184 200 L 188 200 L 232 200 L 236 200 L 236 196 L 236 180 L 236 176 L 236 168 L 236 164 L 236 156 L 236 152 L 236 144 L 236 140 L 236 132 L 236 128 L 232 128 L 224 128 L 220 128 L 212 128 L 208 128 L 200 128 L 196 128 L 188 128 L 184 128 L 184 132 L 184 136 L 168 136 L 164 136 L 156 136 L 152 136 L 144 136 L 140 136 L 132 136 L 128 136 L 120 136 L 116 136 L 108 136 L 104 136 L 96 136 L 92 136 L 84 136 L 80 136 L 72 136 L 68 136 L 60 136 L 56 136 L 48 136 L 44 136 L 36 136 L 32 136 L 24 136 L 20 136 L 20 140 L 20 148 L 20 152 L 20 160 L 20 164 L 20 172 L 20 176 L 20 184 L 20 188 L 24 188 Z"/>
    <path id="path11" fill="#ffffff" stroke="none" d="M 240 208 L 12 208 L 12 120 L 240 120 Z M 240 112 L 232 112 L 232 104 L 240 104 Z M 232 100 L 232 88 L 232 84 L 232 56 L 240 56 L 240 100 Z M 28 112 L 28 88 L 228 88 L 228 100 L 228 104 L 228 112 Z M 12 48 L 20 48 L 20 56 L 24 56 L 24 48 L 28 48 L 28 56 L 32 56 L 32 48 L 36 48 L 36 56 L 40 56 L 40 48 L 44 48 L 44 56 L 48 56 L 48 48 L 52 48 L 52 56 L 56 56 L 56 48 L 60 48 L 60 56 L 64 56 L 64 48 L 68 48 L 68 56 L 72 56 L 72 48 L 76 48 L 76 56 L 80 56 L 80 48 L 84 48 L 84 56 L 88 56 L 88 48 L 92 48 L 92 56 L 96 56 L 96 48 L 100 48 L 100 56 L 104 56 L 104 48 L 108 48 L 108 56 L 112 56 L 112 48 L 116 48 L 116 56 L 120 56 L 120 48 L 124 48 L 124 56 L 128 56 L 128 48 L 132 48 L 132 56 L 136 56 L 136 48 L 140 48 L 140 56 L 144 56 L 144 48 L 148 48 L 148 56 L 152 56 L 152 48 L 156 48 L 156 56 L 160 56 L 160 48 L 164 48 L 164 56 L 168 56 L 168 48 L 240 48 L 240 52 L 232 52 L 228 52 L 228 56 L 228 84 L 28 84 L 24 84 L 24 88 L 24 112 L 12 112 Z M 240 44 L 168 44 L 164 44 L 160 44 L 156 44 L 152 44 L 148 44 L 144 44 L 140 44 L 136 44 L 132 44 L 128 44 L 124 44 L 120 44 L 116 44 L 112 44 L 108 44 L 104 44 L 100 44 L 96 44 L 92 44 L 88 44 L 84 44 L 80 44 L 76 44 L 72 44 L 68 44 L 64 44 L 60 44 L 56 44 L 52 44 L 48 44 L 44 44 L 40 44 L 36 44 L 32 44 L 28 44 L 24 44 L 20 44 L 12 44 L 8 44 L 8 48 L 8 112 L 8 116 L 8 120 L 8 208 L 8 212 L 12 212 L 240 212 L 244 212 L 244 208 L 244 120 L 244 116 L 244 112 L 244 104 L 244 100 L 244 56 L 244 52 L 244 48 L 244 44 Z"/>
    <path id="path12" fill="#ffffff" stroke="none" d="M 136 104 L 72 104 L 72 96 L 136 96 Z M 72 92 L 68 92 L 68 96 L 68 104 L 68 108 L 72 108 L 136 108 L 140 108 L 140 104 L 140 96 L 140 92 L 136 92 Z"/>
    <path id="path13" fill="#ffffff" stroke="none" d="M 24 60 L 20 60 L 20 68 L 24 68 Z"/>
    <path id="path14" fill="#ffffff" stroke="none" d="M 32 60 L 28 60 L 28 68 L 32 68 Z"/>
    <path id="path15" fill="#ffffff" stroke="none" d="M 40 60 L 36 60 L 36 68 L 40 68 Z"/>
    <path id="path16" fill="#ffffff" stroke="none" d="M 48 60 L 44 60 L 44 68 L 48 68 Z"/>
    <path id="path17" fill="#ffffff" stroke="none" d="M 56 60 L 52 60 L 52 68 L 56 68 Z"/>
    <path id="path18" fill="#ffffff" stroke="none" d="M 64 60 L 60 60 L 60 68 L 64 68 Z"/>
    <path id="path19" fill="#ffffff" stroke="none" d="M 72 60 L 68 60 L 68 68 L 72 68 Z"/>
    <path id="path20" fill="#ffffff" stroke="none" d="M 24 72 L 20 72 L 20 80 L 24 80 Z"/>
    <path id="path21" fill="#ffffff" stroke="none" d="M 32 72 L 28 72 L 28 80 L 32 80 Z"/>
    <path id="path22" fill="#ffffff" stroke="none" d="M 40 72 L 36 72 L 36 80 L 40 80 Z"/>
    <path id="path23" fill="#ffffff" stroke="none" d="M 48 72 L 44 72 L 44 80 L 48 80 Z"/>
    <path id="path24" fill="#ffffff" stroke="none" d="M 56 72 L 52 72 L 52 80 L 56 80 Z"/>
    <path id="path25" fill="#ffffff" stroke="none" d="M 64 72 L 60 72 L 60 80 L 64 80 Z"/>
    <path id="path26" fill="#ffffff" stroke="none" d="M 72 72 L 68 72 L 68 80 L 72 80 Z"/>
</svg>
