<?xml version="1.0" encoding="UTF-8"?>
<!-- Generated by Pixelmator Pro 3.7.1 -->
<svg width="256" height="256" viewBox="0 0 256 256" xmlns="http://www.w3.org/2000/svg">
    <path id="Path" fill="#ffffff" stroke="none" d="M 244 200 L 16 200 L 16 100 L 12 100 L 12 92 L 16 92 L 16 88 L 12 88 L 12 80 L 16 80 L 16 76 L 12 76 L 12 68 L 16 68 L 16 62.776001 C 16 59.033997 19.024994 56 22.755005 56 L 52 56 L 52 187 C 52 189.757004 54.242996 192 57 192 L 231 192 C 233.757004 192 236 189.757004 236 187 L 236 56 L 237.244003 56 C 240.975998 56 244 59.033997 244 62.776001 Z M 232 56 L 232 187 C 232 187.553009 231.552994 188 231 188 L 57 188 C 56.447998 188 56 187.553009 56 187 L 56 56 Z M 237.244003 52 L 236 52 L 232 52 L 56 52 L 52 52 L 22.755005 52 C 16.824997 52 12 56.834 12 62.776001 L 12 64 L 8 64 L 8 68 L 8 76 L 8 80 L 8 88 L 8 92 L 8 100 L 8 104 L 12 104 L 12 200 L 12 204 L 16 204 L 244 204 L 248 204 L 248 200 L 248 62.776001 C 248 56.834 243.175003 52 237.244003 52"/>
    <path id="path1" fill="#ffffff" stroke="none" d="M 36 67.648895 C 38.209 67.648895 40 69.439896 40 71.648895 C 40 73.857895 38.209 75.648895 36 75.648895 C 33.791 75.648895 32 73.857895 32 71.648895 C 32 69.439896 33.791 67.648895 36 67.648895 M 36 79.648895 C 40.410999 79.648895 44 76.059906 44 71.648895 C 44 67.2379 40.410999 63.648895 36 63.648895 C 31.589001 63.648895 28 67.2379 28 71.648895 C 28 76.059906 31.589001 79.648895 36 79.648895"/>
    <path id="path2" fill="#ffffff" stroke="none" d="M 36 171.648407 C 31.582001 171.648407 28 168.067398 28 163.648407 C 28 159.230408 31.582001 155.648407 36 155.648407 C 40.417999 155.648407 44 159.230408 44 163.648407 C 44 168.067398 40.417999 171.648407 36 171.648407 M 36 151.648407 C 29.382999 151.648407 24 157.03241 24 163.648407 C 24 170.265411 29.382999 175.648407 36 175.648407 C 42.617001 175.648407 48 170.265411 48 163.648407 C 48 157.03241 42.617001 151.648407 36 151.648407"/>
</svg>
