<?xml version="1.0" encoding="UTF-8"?>
<!-- Generated by Pixelmator Pro 3.7.1 -->
<svg width="256" height="256" viewBox="0 0 256 256" xmlns="http://www.w3.org/2000/svg">
    <path id="Path" fill="#ffffff" stroke="none" d="M 160 87.238297 L 160 80.761307 L 160 80.000305 L 161.182007 80.000305 L 222.817993 80.000305 L 224 80.000305 L 224 80.761307 L 224 87.238297 L 224 88.000305 L 222.817993 88.000305 L 161.182007 88.000305 L 160 88.000305 Z M 160 92.000305 L 161.182007 92.000305 L 222.817993 92.000305 L 224 92.000305 L 228 92.000305 L 228 88.000305 L 228 87.238297 L 228 80.761307 L 228 80.000305 L 228 76.000305 L 224 76.000305 L 222.817993 76.000305 L 161.182007 76.000305 L 160 76.000305 L 156 76.000305 L 156 80.000305 L 156 80.761307 L 156 87.238297 L 156 88.000305 L 156 92.000305 Z"/>
    <path id="path1" fill="#ffffff" stroke="none" d="M 48 112 L 36 112 L 36 116 L 48 116 Z"/>
    <path id="path2" fill="#ffffff" stroke="none" d="M 64 112 L 52 112 L 52 116 L 64 116 Z"/>
    <path id="path3" fill="#ffffff" stroke="none" d="M 80 112 L 68 112 L 68 116 L 80 116 Z"/>
    <path id="path4" fill="#ffffff" stroke="none" d="M 96 112 L 84 112 L 84 116 L 96 116 Z"/>
    <path id="path5" fill="#ffffff" stroke="none" d="M 112 112 L 100 112 L 100 116 L 112 116 Z"/>
    <path id="path6" fill="#ffffff" stroke="none" d="M 168 112 L 156 112 L 156 116 L 168 116 Z"/>
    <path id="path7" fill="#ffffff" stroke="none" d="M 184 112 L 172 112 L 172 116 L 184 116 Z"/>
    <path id="path8" fill="#ffffff" stroke="none" d="M 232 112 L 220 112 L 220 116 L 232 116 Z"/>
    <path id="path9" fill="#ffffff" stroke="none" d="M 216 112 L 204 112 L 204 116 L 216 116 Z"/>
    <path id="path10" fill="#ffffff" stroke="none" d="M 200 112 L 188 112 L 188 116 L 200 116 Z"/>
    <path id="path11" fill="#ffffff" stroke="none" d="M 120 124 L 128 124 L 128 132 L 124 132 L 120 132 Z M 132 124 L 140 124 L 140 132 L 136 132 L 132 132 Z M 144 124 L 152 124 L 152 132 L 148 132 L 144 132 Z M 156 124 L 164 124 L 164 132 L 160 132 L 156 132 Z M 168 124 L 184 124 L 184 132 L 172 132 L 168 132 Z M 184 140 L 176 140 L 172 140 L 172 136 L 184 136 Z M 184 156 L 176 156 L 176 148 L 184 148 Z M 184 168 L 172 168 L 172 160 L 176 160 L 184 160 Z M 168 168 L 164 168 L 160 168 L 160 160 L 164 160 L 168 160 Z M 160 180 L 152 180 L 152 172 L 156 172 L 160 172 Z M 148 180 L 52 180 L 52 172 L 60 172 L 64 172 L 72 172 L 76 172 L 84 172 L 88 172 L 96 172 L 100 172 L 108 172 L 112 172 L 120 172 L 124 172 L 132 172 L 136 172 L 144 172 L 148 172 Z M 48 180 L 40 180 L 40 172 L 48 172 Z M 36 180 L 28 180 L 28 172 L 36 172 Z M 24 160 L 40 160 L 44 160 L 48 160 L 48 168 L 40 168 L 36 168 L 28 168 L 24 168 Z M 24 148 L 36 148 L 40 148 L 40 156 L 24 156 Z M 24 136 L 32 136 L 36 136 L 36 144 L 24 144 Z M 24 124 L 32 124 L 32 132 L 24 132 Z M 36 124 L 44 124 L 44 132 L 40 132 L 36 132 Z M 48 124 L 56 124 L 56 132 L 52 132 L 48 132 Z M 60 124 L 68 124 L 68 132 L 64 132 L 60 132 Z M 72 124 L 80 124 L 80 132 L 76 132 L 72 132 Z M 84 124 L 92 124 L 92 132 L 88 132 L 84 132 Z M 96 124 L 104 124 L 104 132 L 100 132 L 96 132 Z M 120 144 L 116 144 L 112 144 L 112 136 L 116 136 L 120 136 Z M 132 144 L 128 144 L 124 144 L 124 136 L 128 136 L 132 136 Z M 144 144 L 140 144 L 136 144 L 136 136 L 140 136 L 144 136 Z M 156 144 L 152 144 L 148 144 L 148 136 L 152 136 L 156 136 Z M 168 144 L 164 144 L 160 144 L 160 136 L 164 136 L 168 136 Z M 152 156 L 152 148 L 156 148 L 160 148 L 160 156 L 156 156 Z M 136 160 L 140 160 L 144 160 L 144 168 L 136 168 Z M 124 160 L 128 160 L 132 160 L 132 168 L 124 168 Z M 112 160 L 116 160 L 120 160 L 120 168 L 112 168 Z M 100 160 L 104 160 L 108 160 L 108 168 L 100 168 Z M 88 160 L 92 160 L 96 160 L 96 168 L 88 168 Z M 76 160 L 80 160 L 84 160 L 84 168 L 76 168 Z M 64 160 L 68 160 L 72 160 L 72 168 L 64 168 Z M 52 160 L 56 160 L 60 160 L 60 168 L 52 168 Z M 44 148 L 48 148 L 52 148 L 52 156 L 48 156 L 44 156 Z M 60 144 L 56 144 L 52 144 L 52 136 L 56 136 L 60 136 Z M 72 144 L 68 144 L 64 144 L 64 136 L 68 136 L 72 136 Z M 84 144 L 80 144 L 76 144 L 76 136 L 80 136 L 84 136 Z M 96 144 L 92 144 L 88 144 L 88 136 L 92 136 L 96 136 Z M 108 144 L 104 144 L 100 144 L 100 136 L 104 136 L 108 136 Z M 92 148 L 96 148 L 100 148 L 100 156 L 96 156 L 92 156 Z M 80 148 L 84 148 L 88 148 L 88 156 L 84 156 L 80 156 Z M 68 148 L 72 148 L 76 148 L 76 156 L 72 156 L 68 156 Z M 56 148 L 60 148 L 64 148 L 64 156 L 60 156 L 56 156 Z M 112 156 L 108 156 L 104 156 L 104 148 L 108 148 L 112 148 Z M 124 156 L 120 156 L 116 156 L 116 148 L 120 148 L 124 148 Z M 136 156 L 132 156 L 128 156 L 128 148 L 132 148 L 136 148 Z M 148 156 L 144 156 L 140 156 L 140 148 L 144 148 L 148 148 Z M 40 136 L 44 136 L 48 136 L 48 144 L 44 144 L 40 144 Z M 156 168 L 152 168 L 148 168 L 148 160 L 152 160 L 156 160 Z M 172 156 L 168 156 L 164 156 L 164 148 L 168 148 L 172 148 Z M 108 124 L 116 124 L 116 132 L 112 132 L 108 132 Z M 108 120 L 104 120 L 96 120 L 92 120 L 84 120 L 80 120 L 72 120 L 68 120 L 60 120 L 56 120 L 48 120 L 44 120 L 36 120 L 32 120 L 24 120 L 20 120 L 20 124 L 20 132 L 20 136 L 20 144 L 20 148 L 20 156 L 20 160 L 20 168 L 20 172 L 24 172 L 24 180 L 24 184 L 28 184 L 36 184 L 40 184 L 48 184 L 52 184 L 148 184 L 152 184 L 160 184 L 164 184 L 164 180 L 164 172 L 168 172 L 172 172 L 184 172 L 188 172 L 188 168 L 188 160 L 188 156 L 188 148 L 188 144 L 188 140 L 188 136 L 188 132 L 188 124 L 188 120 L 184 120 L 168 120 L 164 120 L 156 120 L 152 120 L 144 120 L 140 120 L 132 120 L 128 120 L 120 120 L 116 120 Z"/>
    <path id="path12" fill="#ffffff" stroke="none" d="M 244 104 L 240 104 L 116 104 L 116 68 L 244 68 Z M 240 192 L 16 192 L 16 108 L 20 108 L 24 108 L 112 108 L 116 108 L 240 108 Z M 12 68 L 20 68 L 20 104 L 16 104 L 12 104 Z M 24 92 L 112 92 L 112 104 L 24 104 Z M 24 84 L 112 84 L 112 88 L 24 88 Z M 24 76 L 112 76 L 112 80 L 24 80 Z M 24 64 L 112 64 L 112 68 L 112 72 L 24 72 Z M 244 64 L 116 64 L 116 60 L 112 60 L 24 60 L 20 60 L 20 64 L 12 64 L 8 64 L 8 68 L 8 104 L 8 108 L 12 108 L 12 192 L 12 196 L 16 196 L 240 196 L 244 196 L 244 192 L 244 108 L 248 108 L 248 104 L 248 68 L 248 64 Z"/>
    <path id="path13" fill="#ffffff" stroke="none" d="M 214.829102 144 L 227.414093 131.414001 L 228.000107 132 L 228.000107 156 L 227.414093 156.585999 Z M 224.000107 160 L 200.000107 160 L 199.414093 159.414001 L 212.000107 146.82901 L 224.586105 159.414001 Z M 196.000107 156 L 196.000107 132 L 196.586105 131.414001 L 209.171097 144 L 196.586105 156.585999 Z M 200.000107 128 L 224.000107 128 L 224.586105 128.584991 L 212.000107 141.17099 L 199.414093 128.584991 Z M 230.243103 128.585999 L 230.242096 128.584991 L 227.414093 125.757004 L 226.828094 125.171005 L 225.657104 124 L 224.000107 124 L 200.000107 124 L 198.343094 124 L 197.172104 125.171005 L 196.586105 125.757004 L 193.758102 128.584991 L 193.757095 128.585999 L 193.172104 129.171997 L 192.000107 130.343002 L 192.000107 132 L 192.000107 156 L 192.000107 157.656998 L 193.172104 158.828003 L 193.757095 159.414001 L 193.758102 159.414001 L 196.586105 162.242004 L 196.586105 162.242996 L 197.172104 162.828003 L 198.343094 164 L 200.000107 164 L 224.000107 164 L 225.657104 164 L 226.828094 162.828003 L 227.414093 162.242996 L 227.414093 162.242004 L 230.242096 159.414001 L 230.243103 159.414001 L 230.828094 158.828003 L 232.000107 157.656998 L 232.000107 156 L 232.000107 132 L 232.000107 130.343002 L 230.828094 129.171997 Z"/>
</svg>
