<?xml version="1.0" encoding="UTF-8"?>
<!-- Generated by Pixelmator Pro 3.7.1 -->
<svg width="256" height="256" viewBox="0 0 256 256" xmlns="http://www.w3.org/2000/svg">
    <path id="Path" fill="#ffffff" stroke="none" d="M 241.2686 211.902298 L 131.991592 208.000305 L 23.999603 209.500305 L 23.999603 168.000305 L 23.999603 40.944305 C 23.999603 40.323303 24.144608 39.711304 24.422607 39.155304 L 24.795593 38.409302 C 25.476593 37.047302 26.866608 36.198303 28.371597 36.198303 C 28.476593 36.198303 28.580597 36.202301 28.685608 36.210297 L 125.238602 43.783295 C 126.487602 43.881302 127.739601 43.930298 128.991592 43.930298 C 129.583603 43.930298 130.175598 43.919296 130.7686 43.897293 L 235.999603 40.000305 C 235.999603 40.000305 243.999603 40.000305 243.999603 56.000305 C 243.999603 70.089294 243.998596 180.305298 241.2686 211.902298 M 236.807602 220.000305 L 235.999603 220.000305 L 135.673599 214.353302 C 134.146591 214.206299 132.613602 214.132294 131.080597 214.132294 C 130.1586 214.132294 129.236603 214.159302 128.315598 214.213303 L 35.446594 219.570297 L 26.962601 220.5923 C 26.844604 220.622299 26.719604 220.639297 26.591599 220.639297 C 25.556595 220.639297 24.291595 219.462296 24.045593 213.999298 L 131.981598 212.000305 L 240.856598 215.887299 C 240.827606 216.116302 240.798599 216.354309 240.7686 216.566299 C 240.494598 218.541306 238.801605 220.000305 236.807602 220.000305 M 23.999603 211.750305 L 24.001602 212.118301 C 24.001602 212.077301 23.999603 212.041306 23.999603 212.000305 Z M 17.600601 152.799301 C 16.568604 151.423309 15.999603 149.719299 15.999603 148.000305 L 15.999603 44.000305 L 19.999603 44.000305 L 19.999603 156.000305 Z M 235.999603 36.000305 L 235.925598 36.000305 L 235.851593 36.003296 L 130.62059 39.900299 C 130.077591 39.920303 129.535599 39.930298 128.991592 39.930298 C 127.848602 39.930298 126.690598 39.8853 125.551598 39.796295 L 28.998596 32.222305 C 28.788605 32.206299 28.579605 32.198303 28.371597 32.198303 C 25.322601 32.198303 22.581604 33.893295 21.217606 36.6203 L 20.844604 37.366302 C 20.433594 38.189301 20.166595 39.086304 20.057602 40.000305 L 15.999603 40.000305 C 13.790604 40.000305 11.999603 41.791306 11.999603 44.000305 L 11.999603 148.000305 C 11.999603 150.596298 12.842606 153.123291 14.399597 155.200302 L 19.999603 162.667297 L 19.999603 212.000305 C 19.999603 215.126297 19.999603 224.639297 26.591599 224.639297 C 26.932602 224.639297 27.275604 224.6073 27.616608 224.543304 L 35.801605 223.556305 L 128.545593 218.206299 C 129.38559 218.157303 130.238602 218.132294 131.080597 218.132294 C 132.480591 218.132294 133.897598 218.201294 135.290604 218.335297 L 135.37059 218.3423 L 135.4496 218.346298 L 235.775604 223.994293 L 235.887604 224.000305 L 235.999603 224.000305 L 236.807602 224.000305 C 240.778595 224.000305 244.184601 221.041306 244.730606 217.118301 C 247.764603 195.325302 247.999603 88.286301 247.999603 56.000305 C 247.999603 36.227295 236.490601 36.000305 235.999603 36.000305"/>
    <path id="path1" fill="#ffffff" stroke="none" d="M 168 160 L 153.214005 160 L 171.072998 138.561005 L 176.537994 132 L 168 132 L 148 132 L 148 88 C 148 81.382996 142.617004 76 136 76 L 120 76 C 113.382996 76 108 81.382996 108 88 L 108 132 L 88 132 L 79.458 132 L 84.928001 138.561996 L 102.800003 160 L 88 160 C 67.013 160 52 142.985992 52 122 C 52 101.682999 67.942001 85.039001 88 84 C 88 75.164001 95.164001 68 104 68 L 112 68 C 117.817001 59.997009 125.348999 56 136 56 C 152.333008 56 166.050003 68.195007 168 84 C 188.175003 84.914001 204 101.600006 204 122 C 204 142.985992 188.985992 160 168 160 M 128.015991 184 L 88 136 L 112 136 L 112 88 C 112 83.582001 115.582001 80 120 80 L 136 80 C 140.417999 80 144 83.582001 144 88 L 144 136 L 168 136 L 148.007996 160 L 148 160 L 148 160.01001 Z M 168 196 C 168 198.209 166.209 200 164 200 L 92 200 C 89.791 200 88 198.209 88 196 C 88 193.791 89.791 192 92 192 L 164 192 C 166.209 192 168 193.791 168 196 M 171.419006 80.276001 C 167.856995 63.945007 153.175003 52 136 52 C 125.067001 52 116.550003 55.929001 110.027 64 L 104 64 C 94.226997 64 86.068001 71.04599 84.337997 80.325989 C 63.702003 83.098999 48 100.777008 48 122 C 48 133.294998 51.976997 143.804001 59.196999 151.589996 C 66.617996 159.593002 76.847 164 88 164 L 106.134995 164 L 124.943001 186.561996 L 126.143005 188 L 92 188 C 87.588997 188 84 191.589005 84 196 C 84 200.410995 87.588997 204 92 204 L 164 204 C 168.410995 204 172 200.410995 172 196 C 172 191.589005 168.410995 188 164 188 L 129.889999 188 L 131.089996 186.561005 L 149.882004 164 L 168 164 C 179.153 164 189.382004 159.593002 196.802994 151.589996 C 204.022995 143.804001 208 133.294998 208 122 C 208 100.563995 192.177994 82.82901 171.419006 80.276001"/>
</svg>
