<?xml version="1.0" encoding="UTF-8"?>
<!-- Generated by Pixelmator Pro 3.7.1 -->
<svg width="64" height="64" viewBox="0 0 64 64" xmlns="http://www.w3.org/2000/svg">
    <path id="Path" fill="#ffffff" stroke="none" d="M 32 28.998001 C 30.346001 28.998001 28.997999 30.344002 28.997999 32 C 28.997999 33.654999 30.346001 35 32 35 C 33.654999 35 35 33.654999 35 32 C 35 30.344002 33.654999 28.998001 32 28.998001 M 32 39.000999 C 28.139999 39.000999 24.999001 35.858002 24.999001 32 C 24.999001 28.141998 28.139999 24.999001 32 24.999001 C 35.855999 24.999001 39 28.141998 39 32 C 39 35.858002 35.855999 39.000999 32 39.000999 M 32 41.000999 C 27.035999 41.000999 22.999001 36.962997 22.999001 32 C 22.999001 27.036999 27.035999 22.999001 32 22.999001 C 36.963001 22.999001 41 27.036999 41 32 C 41 36.962997 36.963001 41.000999 32 41.000999 M 32 8 C 18.743999 8 8 18.744999 8 32 C 8 45.254997 18.743999 56 32 56 C 45.251999 56 56 45.254997 56 32 C 56 18.744999 45.251999 8 32 8"/>
</svg>
