<?xml version="1.0" encoding="UTF-8"?>
<!-- Generated by Pixelmator Pro 3.7.1 -->
<svg width="256" height="256" viewBox="0 0 256 256" xmlns="http://www.w3.org/2000/svg">
    <path id="Path" fill="#ffffff" stroke="none" d="M 207.399307 203.874603 L 207.399307 207.874603 L 47.3993 207.874603 L 47.3993 203.874603 L 47.3993 150.653595 L 47.3993 133.6996 L 47.3993 112.810593 L 47.3993 101.711594 L 47.3993 47.874603 L 207.399307 47.874603 Z M 207.399307 43.874603 L 47.3993 43.874603 L 43.3993 43.874603 L 43.3993 47.874603 L 43.3993 207.874603 L 43.3993 211.874603 L 47.3993 211.874603 L 207.399307 211.874603 L 211.399307 211.874603 L 211.399307 207.874603 L 211.399307 47.874603 L 211.399307 43.874603 Z"/>
    <path id="path1" fill="#ffffff" stroke="none" d="M 176.148102 110.715698 C 175.849106 110.469696 175.556107 110.215698 175.237106 109.991699 C 173.236099 108.588699 171.060104 107.560699 168.708099 106.909698 C 166.354095 106.259705 164.036102 105.933701 161.750107 105.933701 C 159.800095 105.933701 157.666107 106.259705 155.347107 106.909698 C 153.028107 107.560699 150.834106 108.604706 148.767105 110.043701 C 146.700104 111.481705 145.003098 113.348694 143.675095 115.6427 C 142.347107 117.936707 141.684097 120.727707 141.684097 124.015701 C 141.684097 127.953705 142.658096 131.206696 144.608093 133.774689 C 146.557098 136.342697 149.381104 138.4487 153.078094 140.093689 C 148.809097 142.113708 145.372101 144.612701 142.768097 147.592697 C 140.162094 150.571701 138.861099 154.287689 138.861099 158.7397 C 138.861099 162.506699 139.768097 165.8797 141.583099 168.858704 C 143.398102 171.837708 146.011108 174.192703 149.423096 175.921692 C 149.477097 175.949707 149.536102 175.972702 149.591095 175.999695 L 119.7901 175.999695 L 130.845093 106.909698 L 124.593102 106.909698 L 114.863098 169.064697 L 106.191101 115.128693 L 96.511101 115.128693 L 87.436104 169.064697 L 79.852104 116.242706 L 79.852104 79.999695 L 112.000099 79.999695 C 112.000099 88.8367 119.163101 95.999695 128.000107 95.999695 C 136.836105 95.999695 144.000107 88.8367 144.000107 79.999695 L 148.000107 79.999695 L 176.148102 79.999695 Z M 176.148102 143.61969 C 174.181107 142.200699 171.976105 140.991699 169.514099 140.011688 C 172.108093 138.548706 174.313095 136.995697 176.148102 135.355698 Z M 155.952103 135.168701 C 153.431107 134.173706 151.481094 132.847702 150.103104 131.189697 C 148.725098 129.5327 148.036102 127.166702 148.036102 124.095703 C 148.036102 120.011703 149.246094 116.809692 151.667099 114.487701 C 154.086105 112.167694 157.447098 111.006699 161.750107 111.006699 C 166.119095 111.006699 169.514099 112.140701 171.935104 114.409698 C 174.354095 116.678696 175.564102 119.785706 175.564102 123.728699 C 175.564102 127.393692 174.640106 130.256699 172.791107 132.315704 C 170.9431 134.375702 168.270096 136.381699 164.775101 138.3367 C 161.414093 137.219696 158.473099 136.163696 155.952103 135.168701 M 176.148102 166.486694 C 175.488098 167.639709 174.651093 168.703705 173.623093 169.671692 C 170.750107 172.377701 166.691101 173.729706 161.447098 173.729706 C 156.237106 173.729706 152.305099 172.490692 149.650101 170.012695 C 146.995102 167.534698 145.667099 164.078705 145.667099 159.645691 C 145.667099 156.294708 146.238098 153.502701 147.381104 151.268707 C 148.523102 149.035706 150.019104 147.202698 151.868103 145.770691 C 153.716095 144.340698 155.683105 143.1707 157.767105 142.262695 C 161.565094 143.590698 164.985107 144.906708 168.0271 146.215698 C 171.069107 147.524689 173.480103 149.173706 175.2621 151.163696 C 175.591095 151.531708 175.880096 151.933701 176.148102 152.352692 Z M 176.148102 175.999695 L 173.747101 175.999695 C 173.747101 175.999695 173.748093 175.998688 173.7491 175.997696 C 174.595093 175.261688 175.393097 174.451691 176.148102 173.574707 Z M 92.465103 175.999695 L 100.947105 123.999695 L 109.528099 175.999695 Z M 79.875099 175.999695 L 79.875099 162.580704 L 81.778099 175.999695 Z M 176.148102 75.999695 L 140.000107 75.999695 L 140.000107 79.999695 C 140.000107 86.627701 134.627106 91.999695 128.000107 91.999695 C 121.372101 91.999695 116.000099 86.627701 116.000099 79.999695 L 116.000099 75.999695 L 79.852104 75.999695 L 76.000099 75.999695 L 76.000099 79.999695 L 76.000099 175.999695 L 76.000099 179.999695 L 79.852104 179.999695 L 176.148102 179.999695 L 180.000107 179.999695 L 180.000107 175.999695 L 180.000107 79.999695 L 180.000107 75.999695 Z"/>
</svg>
