<?xml version="1.0" encoding="UTF-8"?>
<!-- Generated by Pixelmator Pro 3.7.1 -->
<svg width="256" height="256" viewBox="0 0 256 256" xmlns="http://www.w3.org/2000/svg">
    <path id="Path" fill="#ffffff" stroke="none" d="M 240 16 L 36 16 L 36 12 L 238 12 C 239.104004 12 240 12.895996 240 14 Z M 240 140 L 36 140 L 36 20 L 240 20 Z M 240 236 L 144.48999 236 L 206.606995 148 L 202.606995 148 L 140.48999 236 L 136.48999 236 L 198.606995 148 L 194.606995 148 L 132.48999 236 L 128.48999 236 L 190.606995 148 L 186.606995 148 L 124.489998 236 L 120.489998 236 L 182.606995 148 L 178.606995 148 L 116.489998 236 L 112.489998 236 L 174.606995 148 L 170.606995 148 L 108.490005 236 L 104.490005 236 L 166.606995 148 L 162.606995 148 L 100.490005 236 L 96.490005 236 L 158.606995 148 L 154.606995 148 L 92.490005 236 L 88.490005 236 L 150.606995 148 L 146.606995 148 L 84.490005 236 L 80.490005 236 L 142.606995 148 L 138.606995 148 L 76.490005 236 L 72.490005 236 L 134.606995 148 L 130.606995 148 L 68.490005 236 L 64.490005 236 L 126.608002 148 L 122.608002 148 L 60.490005 236 L 56.490005 236 L 118.608002 148 L 114.608002 148 L 52.490005 236 L 48.490005 236 L 110.608002 148 L 106.608002 148 L 44.490005 236 L 40.490005 236 L 102.608002 148 L 98.608002 148 L 36.490005 236 L 36 236 L 36 231.026993 L 94.608002 148 L 90.608002 148 L 36 225.360992 L 36 219.694 L 86.608002 148 L 82.608002 148 L 36 214.026993 L 36 208.360992 L 78.608002 148 L 74.608002 148 L 36 202.694 L 36 197.026993 L 70.608002 148 L 66.608002 148 L 36 191.360992 L 36 185.694 L 62.608002 148 L 58.608002 148 L 36 180.026993 L 36 174.360992 L 54.608002 148 L 50.608002 148 L 36 168.694 L 36 163.026993 L 46.608002 148 L 42.608002 148 L 36 157.360992 L 36 152 L 36 151.694 L 38.608002 148 L 36 148 L 36 144 L 240 144 Z M 240 242 C 240 243.104004 239.104004 244 238 244 L 36 244 L 36 240 L 37.667007 240 L 41.667007 240 L 45.667007 240 L 49.667007 240 L 53.667007 240 L 57.667007 240 L 61.667007 240 L 65.667007 240 L 69.667007 240 L 73.667007 240 L 77.667007 240 L 81.667007 240 L 85.667007 240 L 89.667007 240 L 93.667007 240 L 97.667007 240 L 101.667007 240 L 105.667007 240 L 109.667007 240 L 113.667 240 L 117.667 240 L 121.667 240 L 125.667 240 L 129.666992 240 L 133.666992 240 L 137.666992 240 L 141.666992 240 L 240 240 Z M 32 16 L 16 16 L 16 14 C 16 12.895996 16.895996 12 18 12 L 24 12 L 28 12 L 32 12 Z M 32 140 L 16 140 L 16 20 L 32 20 Z M 32 148 L 32 152 L 32 156 L 32 157.360992 L 32 163.026993 L 32 168.694 L 32 174.360992 L 32 180.026993 L 32 185.694 L 32 191.360992 L 32 197.026993 L 32 202.694 L 32 208.360992 L 32 214.026993 L 32 219.694 L 32 225.360992 L 32 231.026993 L 32 236 L 16 236 L 16 156 L 16 152 L 16 148 L 16 144 L 32 144 Z M 32 244 L 28 244 L 24 244 L 18 244 C 16.895996 244 16 243.104004 16 242 L 16 240 L 32 240 Z M 238 8 L 36 8 L 32 8 L 28 8 L 24 8 L 18 8 C 14.690994 8 12 10.690994 12 14 L 12 140 L 12 144 L 12 148 L 12 152 L 12 242 C 12 245.309006 14.690994 248 18 248 L 24 248 L 28 248 L 32 248 L 36 248 L 238 248 C 241.309006 248 244 245.309006 244 242 L 244 144 L 244 140 L 244 14 C 244 10.690994 241.309006 8 238 8"/>
</svg>
