<?xml version="1.0" encoding="UTF-8"?>
<!-- Generated by Pixelmator Pro 3.7.1 -->
<svg width="256" height="256" viewBox="0 0 256 256" xmlns="http://www.w3.org/2000/svg">
    <path id="Path" fill="#ffffff" stroke="none" d="M 128 160 C 110.326996 160 96 145.673004 96 128 C 96 110.326996 110.326996 96 128 96 C 145.673004 96 160 110.326996 160 128 C 160 145.673004 145.673004 160 128 160 M 128 92 C 108.149002 92 92 108.149002 92 128 C 92 147.850998 108.149002 164 128 164 C 147.850998 164 164 147.850998 164 128 C 164 108.149002 147.850998 92 128 92"/>
    <path id="path1" fill="#ffffff" stroke="none" d="M 128 152 C 114.745003 152 104 141.255005 104 128 C 104 114.744995 114.745003 104 128 104 C 141.255005 104 152 114.744995 152 128 C 152 141.255005 141.255005 152 128 152 M 128 100 C 112.560997 100 100 112.561005 100 128 C 100 143.438995 112.560997 156 128 156 C 143.438995 156 156 143.438995 156 128 C 156 112.561005 143.438995 100 128 100"/>
    <path id="path2" fill="#ffffff" stroke="none" d="M 240 216 C 240 216 198.971008 221.471008 155.363998 223.363998 L 128 196 L 100.934998 223.065002 C 57.216995 220.242996 16 212 16 212 L 12 200 L 80 128 L 12 56 L 16 44 C 16 44 53.701004 38.973999 95.233002 36.889999 L 97.807999 39.464996 L 101.658005 43.315002 L 125.170998 66.828995 L 128 69.656998 L 130.828003 66.828995 L 154.34201 43.315002 L 158.192001 39.464996 L 160.768005 36.889999 C 202.298996 38.973999 240 44 240 44 L 244 56 L 172 128 L 244 200 Z M 127.850998 220 C 121.999001 220 116.045998 219.841003 110.089005 219.567001 L 128 201.656998 L 146.041992 219.697998 C 139.94101 219.889008 133.843994 220 127.850998 220 M 20 178 L 27.276001 178 L 23.410004 182.093002 C 23.285004 182.035004 23.147003 182 23 182 L 20 182 Z M 20 170 L 34.832001 170 L 31.044998 174.009003 C 31.029007 174.009003 31.016006 174 31 174 L 20 174 Z M 20 162 L 42.386993 162 L 38.608994 166 L 20 166 Z M 20 154 L 49.942001 154 L 46.164993 158 L 20 158 Z M 20 146 L 57.498001 146 L 53.720001 150 L 20 150 Z M 20 138 L 65.054001 138 L 61.276001 142 L 20 142 Z M 20 130 L 72.608994 130 L 68.832001 134 L 20 134 Z M 20 122 L 68.832001 122 L 72.608994 126 L 20 126 Z M 20 114 L 61.276001 114 L 65.054001 118 L 20 118 Z M 20 106 L 53.720001 106 L 57.498001 110 L 20 110 Z M 20 98 L 46.164993 98 L 49.942001 102 L 20 102 Z M 20 90 L 38.608994 90 L 42.386993 94 L 20 94 Z M 20 82 L 31 82 C 31.016006 82 31.029007 81.992004 31.044998 81.990997 L 34.832001 86 L 20 86 Z M 20 74 L 23 74 C 23.147003 74 23.285004 73.964005 23.410004 73.906998 L 27.276001 78 L 20 78 Z M 107.324997 36.376007 C 107.423004 36.373001 107.520996 36.369003 107.617996 36.365997 C 109.802994 36.292007 111.988998 36.227997 114.171997 36.175003 C 114.301003 36.171997 114.429001 36.169006 114.557999 36.166 C 116.738998 36.113998 118.916 36.074005 121.084999 36.046005 C 121.185997 36.044998 121.286003 36.044006 121.387001 36.042007 C 123.601997 36.014999 125.808998 36 128 36 C 130.19101 36 132.39801 36.014999 134.613007 36.042007 C 134.713989 36.044006 134.813995 36.044998 134.915009 36.046005 C 137.084 36.074005 139.261993 36.113998 141.442001 36.166 C 141.570007 36.169006 141.699005 36.171997 141.828003 36.175003 C 144.011002 36.227997 146.195999 36.292007 148.382004 36.365997 C 148.479004 36.369003 148.576996 36.373001 148.675003 36.376007 C 150.90799 36.453003 153.139999 36.539993 155.363998 36.636002 L 151.514008 40.485992 L 128 64 L 104.485992 40.485992 L 100.636002 36.636002 C 102.860992 36.539993 105.091995 36.453003 107.324997 36.376007 M 236 70 L 235.656998 70 L 236 69.656998 Z M 236 78 L 227.656998 78 L 231.656998 74 L 236 74 Z M 236 86 L 219.656998 86 L 223.656998 82 L 236 82 Z M 236 94 L 211.656998 94 L 215.656998 90 L 236 90 Z M 236 102 L 203.656998 102 L 207.656998 98 L 236 98 Z M 236 110 L 195.656998 110 L 199.656998 106 L 236 106 Z M 236 118 L 187.656998 118 L 191.656998 114 L 236 114 Z M 236 126 L 179.656998 126 L 183.656998 122 L 236 122 Z M 236 134 L 185 134 C 184.634995 134 184.328995 134.205002 184.153992 134.498001 L 179.656998 130 L 236 130 Z M 236 142 L 193 142 C 192.841995 142 192.360001 142.037994 191.759995 142.102997 L 186.626999 136.971008 L 188 138 L 236 138 Z M 236 150 L 199.656998 150 L 195.656998 146 L 236 146 Z M 236 158 L 207.656998 158 L 203.656998 154 L 236 154 Z M 236 166 L 215.656998 166 L 211.656998 162 L 236 162 Z M 236 174 L 225 174 C 224.841995 174 224.360001 174.037994 223.759995 174.102997 L 219.656998 170 L 236 170 Z M 236 182 L 231.656998 182 L 227.656998 178 L 236 178 Z M 236 186.343002 L 235.656998 186 L 236 186 Z M 242.343002 192.686996 L 240 188 L 240 186 L 243 186 C 243.552994 186 244 185.553009 244 185 L 244 183 C 244 182.446991 243.552994 182 243 182 L 240 182 L 240 178 L 243 178 C 243.552994 178 244 177.553009 244 177 L 244 175 C 244 174.446991 243.552994 174 243 174 L 240 174 L 240 170 L 243 170 C 243.552994 170 244 169.553009 244 169 L 244 167 C 244 166.446991 243.552994 166 243 166 L 240 166 L 240 162 L 243 162 C 243.552994 162 244 161.553009 244 161 L 244 159 C 244 158.446991 243.552994 158 243 158 L 240 158 L 240 154 L 243 154 C 243.552994 154 244 153.553009 244 153 L 244 151 C 244 150.446991 243.552994 150 243 150 L 240 150 L 240 146 L 243 146 C 243.552994 146 244 145.553009 244 145 L 244 143 C 244 142.446991 243.552994 142 243 142 L 240 142 L 240 138 L 243 138 C 243.552994 138 244 137.553009 244 137 L 244 135 C 244 134.446991 243.552994 134 243 134 L 240 134 L 240 130 L 243 130 C 243.552994 130 244 129.553009 244 129 L 244 127 C 244 126.447998 243.552994 126 243 126 L 240 126 L 240 122 L 243 122 C 243.552994 122 244 121.552002 244 121 L 244 119 C 244 118.447998 243.552994 118 243 118 L 240 118 L 240 114 L 243 114 C 243.552994 114 244 113.552002 244 113 L 244 111 C 244 110.447998 243.552994 110 243 110 L 240 110 L 240 106 L 243 106 C 243.552994 106 244 105.552002 244 105 L 244 103 C 244 102.447998 243.552994 102 243 102 L 240 102 L 240 98 L 243 98 C 243.552994 98 244 97.552002 244 97 L 244 95 C 244 94.447998 243.552994 94 243 94 L 240 94 L 240 90 L 243 90 C 243.552994 90 244 89.552002 244 89 L 244 87 C 244 86.447998 243.552994 86 243 86 L 240 86 L 240 82 L 243 82 C 243.552994 82 244 81.552002 244 81 L 244 79 C 244 78.447998 243.552994 78 243 78 L 240 78 L 240 74 L 243 74 C 243.552994 74 244 73.552002 244 73 L 244 71 C 244 70.447998 243.552994 70 243 70 L 240 70 L 240 68 L 242.343002 63.313004 L 246.828003 58.828995 L 248.576004 57.080002 L 247.794998 54.735001 L 243.794998 42.735001 L 243.005005 40.365005 L 240.528 40.035004 C 240.065994 39.973999 204.458008 35.272995 164.565002 33.091003 L 164.622009 33.033997 L 155.537003 32.639999 C 151.281998 32.455002 147.132004 32.313004 143.09201 32.207993 C 142.863007 32.201996 142.63501 32.195007 142.404999 32.188995 C 141.779999 32.173996 141.156006 32.158997 140.537003 32.145996 C 139.985992 32.132996 139.436996 32.121994 138.886993 32.110992 C 138.389999 32.102005 137.893997 32.091995 137.401001 32.082993 C 136.559998 32.069 135.721008 32.057007 134.882004 32.046005 C 134.561005 32.042007 134.242004 32.039001 133.921997 32.035004 C 133.208008 32.026993 132.494995 32.020996 131.78299 32.014999 C 131.48999 32.013 131.196991 32.011002 130.906006 32.009003 C 129.934998 32.003998 128.964996 32 128 32 C 127.035004 32 126.065002 32.003998 125.094002 32.009003 C 124.803001 32.011002 124.510002 32.013 124.217003 32.014999 C 123.504997 32.020996 122.792 32.026993 122.078003 32.035004 C 121.758003 32.039001 121.439003 32.042007 121.117996 32.046005 C 120.279999 32.057007 119.440002 32.069 118.598999 32.082993 C 118.107002 32.091995 117.610001 32.102005 117.113998 32.110992 C 116.563004 32.121994 116.014 32.132996 115.462997 32.145996 C 114.843002 32.158997 114.220001 32.173996 113.594002 32.188995 C 113.365997 32.195007 113.137001 32.201996 112.907997 32.207993 C 108.867996 32.313004 104.718002 32.455002 100.462997 32.639999 L 91.376999 33.033997 L 91.434006 33.091003 C 51.542007 35.272995 15.934006 39.973999 15.470993 40.035004 L 12.994995 40.365005 L 12.205002 42.735001 L 8.205002 54.735001 L 7.447998 57.005997 L 9.091995 58.746994 L 13.938995 63.878998 L 16 68 L 16 70 L 13 70 C 12.447998 70 12 70.447998 12 71 L 12 73 C 12 73.552002 12.447998 74 13 74 L 16 74 L 16 78 L 13 78 C 12.447998 78 12 78.447998 12 79 L 12 81 C 12 81.552002 12.447998 82 13 82 L 16 82 L 16 86 L 13 86 C 12.447998 86 12 86.447998 12 87 L 12 89 C 12 89.552002 12.447998 90 13 90 L 16 90 L 16 94 L 13 94 C 12.447998 94 12 94.447998 12 95 L 12 97 C 12 97.552002 12.447998 98 13 98 L 16 98 L 16 102 L 13 102 C 12.447998 102 12 102.447998 12 103 L 12 105 C 12 105.552002 12.447998 106 13 106 L 16 106 L 16 110 L 13 110 C 12.447998 110 12 110.447998 12 111 L 12 113 C 12 113.552002 12.447998 114 13 114 L 16 114 L 16 118 L 13 118 C 12.447998 118 12 118.447998 12 119 L 12 121 C 12 121.552002 12.447998 122 13 122 L 16 122 L 16 126 L 13 126 C 12.447998 126 12 126.447998 12 127 L 12 129 C 12 129.553009 12.447998 130 13 130 L 16 130 L 16 134 L 13 134 C 12.447998 134 12 134.446991 12 135 L 12 137 C 12 137.553009 12.447998 138 13 138 L 16 138 L 16 142 L 13 142 C 12.447998 142 12 142.446991 12 143 L 12 145 C 12 145.553009 12.447998 146 13 146 L 16 146 L 16 150 L 13 150 C 12.447998 150 12 150.446991 12 151 L 12 153 C 12 153.553009 12.447998 154 13 154 L 16 154 L 16 158 L 13 158 C 12.447998 158 12 158.446991 12 159 L 12 161 C 12 161.553009 12.447998 162 13 162 L 16 162 L 16 166 L 13 166 C 12.447998 166 12 166.446991 12 167 L 12 169 C 12 169.553009 12.447998 170 13 170 L 16 170 L 16 174 L 13 174 C 12.447998 174 12 174.446991 12 175 L 12 177 C 12 177.553009 12.447998 178 13 178 L 16 178 L 16 182 L 13 182 C 12.447998 182 12 182.446991 12 183 L 12 185 C 12 185.553009 12.447998 186 13 186 L 16 186 L 16 188 L 13.938995 192.121002 L 9.091995 197.253998 L 7.447998 198.994003 L 8.205002 201.264999 L 12.205002 213.264999 L 12.938995 215.466995 L 15.216003 215.921997 C 15.630005 216.005005 57.197006 224.25 100.677002 227.057007 L 102.483002 227.173996 L 103.763 225.893997 L 106.272003 223.38501 C 113.855003 223.785995 121.103996 224 127.850998 224 C 134.737 224 142.151001 223.850998 149.914001 223.570999 L 152.535004 226.192001 L 153.778992 227.436996 L 155.537003 227.360001 C 198.820999 225.479996 240.115997 220.020004 240.528 219.964996 L 243.222 219.604996 L 243.880997 216.970001 L 247.880997 200.970001 L 248.429993 198.77301 L 246.828003 197.171997 Z"/>
</svg>
