<?xml version="1.0" encoding="UTF-8"?>
<!-- Generated by Pixelmator Pro 3.7.1 -->
<svg width="256" height="256" viewBox="0 0 256 256" xmlns="http://www.w3.org/2000/svg">
    <path id="Path" fill="#ffffff" stroke="none" d="M 241.382797 210.512695 L 131.972794 206.499695 L 23.999804 208.499695 L 23.999804 174.666702 L 23.999804 167.999695 L 23.999804 40.944702 C 23.999804 40.3237 24.144793 39.710693 24.422792 39.155701 L 24.795794 38.409698 C 25.476793 37.047699 26.865801 36.1987 28.371798 36.1987 C 28.475801 36.1987 28.580797 36.201691 28.685793 36.210693 L 125.237801 43.783691 C 126.486794 43.881699 127.739799 43.929703 128.991806 43.929703 C 129.583801 43.929703 130.175797 43.919693 130.768799 43.89769 L 235.999802 39.999695 C 235.999802 39.999695 243.999802 39.999695 243.999802 55.999695 C 243.999802 69.888702 243.999802 177.199707 241.382797 210.512695 M 236.8078 219.999695 L 235.999802 219.999695 L 135.673798 214.353699 C 134.146805 214.205704 132.612808 214.13269 131.079803 214.13269 C 130.157806 214.13269 129.236801 214.158691 128.315796 214.212708 L 35.445805 219.570694 L 26.962801 220.592697 C 26.844805 220.621704 26.719805 220.639694 26.591799 220.639694 C 25.439806 220.639694 23.999804 219.200699 23.999804 211.999695 L 23.999804 211.500702 L 131.944794 209.498703 L 241.120804 213.505707 C 241.007797 214.655701 240.890793 215.689697 240.768799 216.566696 C 240.493805 218.540695 238.801804 219.999695 236.8078 219.999695 M 14.399798 155.199707 C 12.8418 153.122711 11.999804 150.59671 11.999804 147.999695 L 11.999804 43.999695 C 11.999804 41.790695 13.790805 39.999695 15.999804 39.999695 L 20.057802 39.999695 C 20.019793 40.31369 19.999804 40.628693 19.999804 40.944702 L 19.999804 162.666702 Z M 235.999802 35.999695 L 235.925797 35.999695 L 235.851807 36.002701 L 130.619797 39.900696 C 130.076797 39.9207 129.534805 39.929703 128.991806 39.929703 C 127.847794 39.929703 126.690796 39.885696 125.550797 39.7957 L 28.998796 32.222702 C 28.787798 32.206696 28.579805 32.1987 28.371798 32.1987 C 25.565798 32.1987 23.034792 33.644699 21.583803 35.999695 L 15.999804 35.999695 C 11.588794 35.999695 7.999804 39.588699 7.999804 43.999695 L 7.999804 147.999695 C 7.999804 151.439697 9.136798 154.848694 11.199801 157.599701 L 19.999804 169.332703 L 19.999804 211.999695 C 19.999804 215.125702 19.999804 224.639694 26.591799 224.639694 C 26.932802 224.639694 27.275805 224.607697 27.615801 224.542694 L 35.8008 223.556702 L 128.545807 218.205704 C 129.385803 218.1577 130.237808 218.13269 131.079803 218.13269 C 132.480804 218.13269 133.897797 218.200699 135.290802 218.334702 L 135.369797 218.342697 L 135.448807 218.346695 L 235.775803 223.993698 L 235.887802 223.999695 L 235.999802 223.999695 L 236.8078 223.999695 C 240.778793 223.999695 244.184799 221.040695 244.730804 217.117706 C 247.764801 195.324707 247.999802 88.286697 247.999802 55.999695 C 247.999802 36.227692 236.489807 35.999695 235.999802 35.999695"/>
    <path id="path1" fill="#ffffff" stroke="none" d="M 34 64 C 35.104 64 36 63.104004 36 62 C 36 60.895996 35.104 60 34 60 C 32.896 60 32 60.895996 32 62 C 32 63.104004 32.896 64 34 64"/>
    <path id="path2" fill="#ffffff" stroke="none" d="M 42 60 C 40.896 60 40 60.895996 40 62 C 40 63.104004 40.896 64 42 64 C 43.104 64 44 63.104004 44 62 C 44 60.895996 43.104 60 42 60"/>
    <path id="path3" fill="#ffffff" stroke="none" d="M 38 68 C 39.104 68 40 67.104004 40 66 C 40 64.895996 39.104 64 38 64 C 36.896 64 36 64.895996 36 66 C 36 67.104004 36.896 68 38 68"/>
    <path id="path4" fill="#ffffff" stroke="none" d="M 34 72 C 35.104 72 36 71.104004 36 70 C 36 68.895996 35.104 68 34 68 C 32.896 68 32 68.895996 32 70 C 32 71.104004 32.896 72 34 72"/>
    <path id="path5" fill="#ffffff" stroke="none" d="M 42 68 C 40.896 68 40 68.895996 40 70 C 40 71.104004 40.896 72 42 72 C 43.104 72 44 71.104004 44 70 C 44 68.895996 43.104 68 42 68"/>
    <path id="path6" fill="#ffffff" stroke="none" d="M 38 72 C 36.896 72 36 72.895996 36 74 C 36 75.104004 36.896 76 38 76 C 39.104 76 40 75.104004 40 74 C 40 72.895996 39.104 72 38 72"/>
    <path id="path7" fill="#ffffff" stroke="none" d="M 34 80 C 35.104 80 36 79.104004 36 78 C 36 76.895996 35.104 76 34 76 C 32.896 76 32 76.895996 32 78 C 32 79.104004 32.896 80 34 80"/>
    <path id="path8" fill="#ffffff" stroke="none" d="M 42 76 C 40.896 76 40 76.895996 40 78 C 40 79.104004 40.896 80 42 80 C 43.104 80 44 79.104004 44 78 C 44 76.895996 43.104 76 42 76"/>
    <path id="path9" fill="#ffffff" stroke="none" d="M 38 80 C 36.896 80 36 80.895996 36 82 C 36 83.104004 36.896 84 38 84 C 39.104 84 40 83.104004 40 82 C 40 80.895996 39.104 80 38 80"/>
    <path id="path10" fill="#ffffff" stroke="none" d="M 34 88 C 35.104 88 36 87.104004 36 86 C 36 84.895996 35.104 84 34 84 C 32.896 84 32 84.895996 32 86 C 32 87.104004 32.896 88 34 88"/>
    <path id="path11" fill="#ffffff" stroke="none" d="M 42 84 C 40.896 84 40 84.895996 40 86 C 40 87.104004 40.896 88 42 88 C 43.104 88 44 87.104004 44 86 C 44 84.895996 43.104 84 42 84"/>
    <path id="path12" fill="#ffffff" stroke="none" d="M 38 88 C 36.896 88 36 88.895996 36 90 C 36 91.104004 36.896 92 38 92 C 39.104 92 40 91.104004 40 90 C 40 88.895996 39.104 88 38 88"/>
    <path id="path13" fill="#ffffff" stroke="none" d="M 34 96 C 35.104 96 36 95.104004 36 94 C 36 92.895996 35.104 92 34 92 C 32.896 92 32 92.895996 32 94 C 32 95.104004 32.896 96 34 96"/>
    <path id="path14" fill="#ffffff" stroke="none" d="M 42 92 C 40.896 92 40 92.895996 40 94 C 40 95.104004 40.896 96 42 96 C 43.104 96 44 95.104004 44 94 C 44 92.895996 43.104 92 42 92"/>
    <path id="path15" fill="#ffffff" stroke="none" d="M 38 96 C 36.896 96 36 96.895996 36 98 C 36 99.104004 36.896 100 38 100 C 39.104 100 40 99.104004 40 98 C 40 96.895996 39.104 96 38 96"/>
    <path id="path16" fill="#ffffff" stroke="none" d="M 34 104 C 35.104 104 36 103.104004 36 102 C 36 100.895996 35.104 100 34 100 C 32.896 100 32 100.895996 32 102 C 32 103.104004 32.896 104 34 104"/>
    <path id="path17" fill="#ffffff" stroke="none" d="M 42 100 C 40.896 100 40 100.895996 40 102 C 40 103.104004 40.896 104 42 104 C 43.104 104 44 103.104004 44 102 C 44 100.895996 43.104 100 42 100"/>
    <path id="path18" fill="#ffffff" stroke="none" d="M 38 104 C 36.896 104 36 104.895996 36 106 C 36 107.104004 36.896 108 38 108 C 39.104 108 40 107.104004 40 106 C 40 104.895996 39.104 104 38 104"/>
    <path id="path19" fill="#ffffff" stroke="none" d="M 34 112 C 35.104 112 36 111.104004 36 110 C 36 108.895996 35.104 108 34 108 C 32.896 108 32 108.895996 32 110 C 32 111.104004 32.896 112 34 112"/>
    <path id="path20" fill="#ffffff" stroke="none" d="M 42 108 C 40.896 108 40 108.895996 40 110 C 40 111.104004 40.896 112 42 112 C 43.104 112 44 111.104004 44 110 C 44 108.895996 43.104 108 42 108"/>
    <path id="path21" fill="#ffffff" stroke="none" d="M 38 112 C 36.896 112 36 112.895996 36 114 C 36 115.104004 36.896 116 38 116 C 39.104 116 40 115.104004 40 114 C 40 112.895996 39.104 112 38 112"/>
    <path id="path22" fill="#ffffff" stroke="none" d="M 34 120 C 35.104 120 36 119.104004 36 118 C 36 116.895996 35.104 116 34 116 C 32.896 116 32 116.895996 32 118 C 32 119.104004 32.896 120 34 120"/>
    <path id="path23" fill="#ffffff" stroke="none" d="M 42 116 C 40.896 116 40 116.895996 40 118 C 40 119.104004 40.896 120 42 120 C 43.104 120 44 119.104004 44 118 C 44 116.895996 43.104 116 42 116"/>
    <path id="path24" fill="#ffffff" stroke="none" d="M 38 120 C 36.896 120 36 120.895996 36 122 C 36 123.104004 36.896 124 38 124 C 39.104 124 40 123.104004 40 122 C 40 120.895996 39.104 120 38 120"/>
    <path id="path25" fill="#ffffff" stroke="none" d="M 34 128 C 35.104 128 36 127.104004 36 126 C 36 124.895996 35.104 124 34 124 C 32.896 124 32 124.895996 32 126 C 32 127.104004 32.896 128 34 128"/>
    <path id="path26" fill="#ffffff" stroke="none" d="M 42 124 C 40.896 124 40 124.895996 40 126 C 40 127.104004 40.896 128 42 128 C 43.104 128 44 127.104004 44 126 C 44 124.895996 43.104 124 42 124"/>
    <path id="path27" fill="#ffffff" stroke="none" d="M 38 128 C 36.896 128 36 128.895996 36 130 C 36 131.104004 36.896 132 38 132 C 39.104 132 40 131.104004 40 130 C 40 128.895996 39.104 128 38 128"/>
    <path id="path28" fill="#ffffff" stroke="none" d="M 34 136 C 35.104 136 36 135.104004 36 134 C 36 132.895996 35.104 132 34 132 C 32.896 132 32 132.895996 32 134 C 32 135.104004 32.896 136 34 136"/>
    <path id="path29" fill="#ffffff" stroke="none" d="M 42 132 C 40.896 132 40 132.895996 40 134 C 40 135.104004 40.896 136 42 136 C 43.104 136 44 135.104004 44 134 C 44 132.895996 43.104 132 42 132"/>
    <path id="path30" fill="#ffffff" stroke="none" d="M 38 136 C 36.896 136 36 136.895996 36 138 C 36 139.104004 36.896 140 38 140 C 39.104 140 40 139.104004 40 138 C 40 136.895996 39.104 136 38 136"/>
    <path id="path31" fill="#ffffff" stroke="none" d="M 34 144 C 35.104 144 36 143.104004 36 142 C 36 140.895996 35.104 140 34 140 C 32.896 140 32 140.895996 32 142 C 32 143.104004 32.896 144 34 144"/>
    <path id="path32" fill="#ffffff" stroke="none" d="M 42 140 C 40.896 140 40 140.895996 40 142 C 40 143.104004 40.896 144 42 144 C 43.104 144 44 143.104004 44 142 C 44 140.895996 43.104 140 42 140"/>
    <path id="path33" fill="#ffffff" stroke="none" d="M 38 144 C 36.896 144 36 144.895996 36 146 C 36 147.104004 36.896 148 38 148 C 39.104 148 40 147.104004 40 146 C 40 144.895996 39.104 144 38 144"/>
    <path id="path34" fill="#ffffff" stroke="none" d="M 34 152 C 35.104 152 36 151.104004 36 150 C 36 148.895996 35.104 148 34 148 C 32.896 148 32 148.895996 32 150 C 32 151.104004 32.896 152 34 152"/>
    <path id="path35" fill="#ffffff" stroke="none" d="M 42 148 C 40.896 148 40 148.895996 40 150 C 40 151.104004 40.896 152 42 152 C 43.104 152 44 151.104004 44 150 C 44 148.895996 43.104 148 42 148"/>
    <path id="path36" fill="#ffffff" stroke="none" d="M 38 152 C 36.896 152 36 152.895996 36 154 C 36 155.104004 36.896 156 38 156 C 39.104 156 40 155.104004 40 154 C 40 152.895996 39.104 152 38 152"/>
    <path id="path37" fill="#ffffff" stroke="none" d="M 34 160 C 35.104 160 36 159.104004 36 158 C 36 156.895996 35.104 156 34 156 C 32.896 156 32 156.895996 32 158 C 32 159.104004 32.896 160 34 160"/>
    <path id="path38" fill="#ffffff" stroke="none" d="M 42 156 C 40.896 156 40 156.895996 40 158 C 40 159.104004 40.896 160 42 160 C 43.104 160 44 159.104004 44 158 C 44 156.895996 43.104 156 42 156"/>
    <path id="path39" fill="#ffffff" stroke="none" d="M 38 160 C 36.896 160 36 160.895996 36 162 C 36 163.104004 36.896 164 38 164 C 39.104 164 40 163.104004 40 162 C 40 160.895996 39.104 160 38 160"/>
    <path id="path40" fill="#ffffff" stroke="none" d="M 34 168 C 35.104 168 36 167.104004 36 166 C 36 164.895996 35.104 164 34 164 C 32.896 164 32 164.895996 32 166 C 32 167.104004 32.896 168 34 168"/>
    <path id="path41" fill="#ffffff" stroke="none" d="M 42 164 C 40.896 164 40 164.895996 40 166 C 40 167.104004 40.896 168 42 168 C 43.104 168 44 167.104004 44 166 C 44 164.895996 43.104 164 42 164"/>
    <path id="path42" fill="#ffffff" stroke="none" d="M 38 168 C 36.896 168 36 168.895996 36 170 C 36 171.104004 36.896 172 38 172 C 39.104 172 40 171.104004 40 170 C 40 168.895996 39.104 168 38 168"/>
    <path id="path43" fill="#ffffff" stroke="none" d="M 34 176 C 35.104 176 36 175.104004 36 174 C 36 172.895996 35.104 172 34 172 C 32.896 172 32 172.895996 32 174 C 32 175.104004 32.896 176 34 176"/>
    <path id="path44" fill="#ffffff" stroke="none" d="M 42 172 C 40.896 172 40 172.895996 40 174 C 40 175.104004 40.896 176 42 176 C 43.104 176 44 175.104004 44 174 C 44 172.895996 43.104 172 42 172"/>
    <path id="path45" fill="#ffffff" stroke="none" d="M 38 176 C 36.896 176 36 176.895996 36 178 C 36 179.104004 36.896 180 38 180 C 39.104 180 40 179.104004 40 178 C 40 176.895996 39.104 176 38 176"/>
    <path id="path46" fill="#ffffff" stroke="none" d="M 34 184 C 35.104 184 36 183.104004 36 182 C 36 180.895996 35.104 180 34 180 C 32.896 180 32 180.895996 32 182 C 32 183.104004 32.896 184 34 184"/>
    <path id="path47" fill="#ffffff" stroke="none" d="M 42 180 C 40.896 180 40 180.895996 40 182 C 40 183.104004 40.896 184 42 184 C 43.104 184 44 183.104004 44 182 C 44 180.895996 43.104 180 42 180"/>
    <path id="path48" fill="#ffffff" stroke="none" d="M 38 184 C 36.896 184 36 184.895996 36 186 C 36 187.104004 36.896 188 38 188 C 39.104 188 40 187.104004 40 186 C 40 184.895996 39.104 184 38 184"/>
    <path id="path49" fill="#ffffff" stroke="none" d="M 34 188 C 32.896 188 32 188.895996 32 190 C 32 191.104004 32.896 192 34 192 C 35.104 192 36 191.104004 36 190 C 36 188.895996 35.104 188 34 188"/>
    <path id="path50" fill="#ffffff" stroke="none" d="M 42 188 C 40.896 188 40 188.895996 40 190 C 40 191.104004 40.896 192 42 192 C 43.104 192 44 191.104004 44 190 C 44 188.895996 43.104 188 42 188"/>
    <path id="path51" fill="#ffffff" stroke="none" d="M 226 64 C 227.104004 64 228 63.104004 228 62 C 228 60.895996 227.104004 60 226 60 C 224.895996 60 224 60.895996 224 62 C 224 63.104004 224.895996 64 226 64"/>
    <path id="path52" fill="#ffffff" stroke="none" d="M 234 60 C 232.895996 60 232 60.895996 232 62 C 232 63.104004 232.895996 64 234 64 C 235.104004 64 236 63.104004 236 62 C 236 60.895996 235.104004 60 234 60"/>
    <path id="path53" fill="#ffffff" stroke="none" d="M 230 68 C 231.104004 68 232 67.104004 232 66 C 232 64.895996 231.104004 64 230 64 C 228.895996 64 228 64.895996 228 66 C 228 67.104004 228.895996 68 230 68"/>
    <path id="path54" fill="#ffffff" stroke="none" d="M 226 72 C 227.104004 72 228 71.104004 228 70 C 228 68.895996 227.104004 68 226 68 C 224.895996 68 224 68.895996 224 70 C 224 71.104004 224.895996 72 226 72"/>
    <path id="path55" fill="#ffffff" stroke="none" d="M 234 68 C 232.895996 68 232 68.895996 232 70 C 232 71.104004 232.895996 72 234 72 C 235.104004 72 236 71.104004 236 70 C 236 68.895996 235.104004 68 234 68"/>
    <path id="path56" fill="#ffffff" stroke="none" d="M 230 72 C 228.895996 72 228 72.895996 228 74 C 228 75.104004 228.895996 76 230 76 C 231.104004 76 232 75.104004 232 74 C 232 72.895996 231.104004 72 230 72"/>
    <path id="path57" fill="#ffffff" stroke="none" d="M 226 80 C 227.104004 80 228 79.104004 228 78 C 228 76.895996 227.104004 76 226 76 C 224.895996 76 224 76.895996 224 78 C 224 79.104004 224.895996 80 226 80"/>
    <path id="path58" fill="#ffffff" stroke="none" d="M 234 76 C 232.895996 76 232 76.895996 232 78 C 232 79.104004 232.895996 80 234 80 C 235.104004 80 236 79.104004 236 78 C 236 76.895996 235.104004 76 234 76"/>
    <path id="path59" fill="#ffffff" stroke="none" d="M 230 80 C 228.895996 80 228 80.895996 228 82 C 228 83.104004 228.895996 84 230 84 C 231.104004 84 232 83.104004 232 82 C 232 80.895996 231.104004 80 230 80"/>
    <path id="path60" fill="#ffffff" stroke="none" d="M 226 88 C 227.104004 88 228 87.104004 228 86 C 228 84.895996 227.104004 84 226 84 C 224.895996 84 224 84.895996 224 86 C 224 87.104004 224.895996 88 226 88"/>
    <path id="path61" fill="#ffffff" stroke="none" d="M 234 84 C 232.895996 84 232 84.895996 232 86 C 232 87.104004 232.895996 88 234 88 C 235.104004 88 236 87.104004 236 86 C 236 84.895996 235.104004 84 234 84"/>
    <path id="path62" fill="#ffffff" stroke="none" d="M 230 88 C 228.895996 88 228 88.895996 228 90 C 228 91.104004 228.895996 92 230 92 C 231.104004 92 232 91.104004 232 90 C 232 88.895996 231.104004 88 230 88"/>
    <path id="path63" fill="#ffffff" stroke="none" d="M 226 96 C 227.104004 96 228 95.104004 228 94 C 228 92.895996 227.104004 92 226 92 C 224.895996 92 224 92.895996 224 94 C 224 95.104004 224.895996 96 226 96"/>
    <path id="path64" fill="#ffffff" stroke="none" d="M 234 92 C 232.895996 92 232 92.895996 232 94 C 232 95.104004 232.895996 96 234 96 C 235.104004 96 236 95.104004 236 94 C 236 92.895996 235.104004 92 234 92"/>
    <path id="path65" fill="#ffffff" stroke="none" d="M 230 96 C 228.895996 96 228 96.895996 228 98 C 228 99.104004 228.895996 100 230 100 C 231.104004 100 232 99.104004 232 98 C 232 96.895996 231.104004 96 230 96"/>
    <path id="path66" fill="#ffffff" stroke="none" d="M 226 104 C 227.104004 104 228 103.104004 228 102 C 228 100.895996 227.104004 100 226 100 C 224.895996 100 224 100.895996 224 102 C 224 103.104004 224.895996 104 226 104"/>
    <path id="path67" fill="#ffffff" stroke="none" d="M 234 100 C 232.895996 100 232 100.895996 232 102 C 232 103.104004 232.895996 104 234 104 C 235.104004 104 236 103.104004 236 102 C 236 100.895996 235.104004 100 234 100"/>
    <path id="path68" fill="#ffffff" stroke="none" d="M 230 104 C 228.895996 104 228 104.895996 228 106 C 228 107.104004 228.895996 108 230 108 C 231.104004 108 232 107.104004 232 106 C 232 104.895996 231.104004 104 230 104"/>
    <path id="path69" fill="#ffffff" stroke="none" d="M 226 112 C 227.104004 112 228 111.104004 228 110 C 228 108.895996 227.104004 108 226 108 C 224.895996 108 224 108.895996 224 110 C 224 111.104004 224.895996 112 226 112"/>
    <path id="path70" fill="#ffffff" stroke="none" d="M 234 108 C 232.895996 108 232 108.895996 232 110 C 232 111.104004 232.895996 112 234 112 C 235.104004 112 236 111.104004 236 110 C 236 108.895996 235.104004 108 234 108"/>
    <path id="path71" fill="#ffffff" stroke="none" d="M 230 112 C 228.895996 112 228 112.895996 228 114 C 228 115.104004 228.895996 116 230 116 C 231.104004 116 232 115.104004 232 114 C 232 112.895996 231.104004 112 230 112"/>
    <path id="path72" fill="#ffffff" stroke="none" d="M 226 120 C 227.104004 120 228 119.104004 228 118 C 228 116.895996 227.104004 116 226 116 C 224.895996 116 224 116.895996 224 118 C 224 119.104004 224.895996 120 226 120"/>
    <path id="path73" fill="#ffffff" stroke="none" d="M 234 116 C 232.895996 116 232 116.895996 232 118 C 232 119.104004 232.895996 120 234 120 C 235.104004 120 236 119.104004 236 118 C 236 116.895996 235.104004 116 234 116"/>
    <path id="path74" fill="#ffffff" stroke="none" d="M 230 120 C 228.895996 120 228 120.895996 228 122 C 228 123.104004 228.895996 124 230 124 C 231.104004 124 232 123.104004 232 122 C 232 120.895996 231.104004 120 230 120"/>
    <path id="path75" fill="#ffffff" stroke="none" d="M 226 128 C 227.104004 128 228 127.104004 228 126 C 228 124.895996 227.104004 124 226 124 C 224.895996 124 224 124.895996 224 126 C 224 127.104004 224.895996 128 226 128"/>
    <path id="path76" fill="#ffffff" stroke="none" d="M 234 124 C 232.895996 124 232 124.895996 232 126 C 232 127.104004 232.895996 128 234 128 C 235.104004 128 236 127.104004 236 126 C 236 124.895996 235.104004 124 234 124"/>
    <path id="path77" fill="#ffffff" stroke="none" d="M 230 128 C 228.895996 128 228 128.895996 228 130 C 228 131.104004 228.895996 132 230 132 C 231.104004 132 232 131.104004 232 130 C 232 128.895996 231.104004 128 230 128"/>
    <path id="path78" fill="#ffffff" stroke="none" d="M 226 136 C 227.104004 136 228 135.104004 228 134 C 228 132.895996 227.104004 132 226 132 C 224.895996 132 224 132.895996 224 134 C 224 135.104004 224.895996 136 226 136"/>
    <path id="path79" fill="#ffffff" stroke="none" d="M 234 132 C 232.895996 132 232 132.895996 232 134 C 232 135.104004 232.895996 136 234 136 C 235.104004 136 236 135.104004 236 134 C 236 132.895996 235.104004 132 234 132"/>
    <path id="path80" fill="#ffffff" stroke="none" d="M 230 136 C 228.895996 136 228 136.895996 228 138 C 228 139.104004 228.895996 140 230 140 C 231.104004 140 232 139.104004 232 138 C 232 136.895996 231.104004 136 230 136"/>
    <path id="path81" fill="#ffffff" stroke="none" d="M 226 144 C 227.104004 144 228 143.104004 228 142 C 228 140.895996 227.104004 140 226 140 C 224.895996 140 224 140.895996 224 142 C 224 143.104004 224.895996 144 226 144"/>
    <path id="path82" fill="#ffffff" stroke="none" d="M 234 140 C 232.895996 140 232 140.895996 232 142 C 232 143.104004 232.895996 144 234 144 C 235.104004 144 236 143.104004 236 142 C 236 140.895996 235.104004 140 234 140"/>
    <path id="path83" fill="#ffffff" stroke="none" d="M 230 144 C 228.895996 144 228 144.895996 228 146 C 228 147.104004 228.895996 148 230 148 C 231.104004 148 232 147.104004 232 146 C 232 144.895996 231.104004 144 230 144"/>
    <path id="path84" fill="#ffffff" stroke="none" d="M 226 152 C 227.104004 152 228 151.104004 228 150 C 228 148.895996 227.104004 148 226 148 C 224.895996 148 224 148.895996 224 150 C 224 151.104004 224.895996 152 226 152"/>
    <path id="path85" fill="#ffffff" stroke="none" d="M 234 148 C 232.895996 148 232 148.895996 232 150 C 232 151.104004 232.895996 152 234 152 C 235.104004 152 236 151.104004 236 150 C 236 148.895996 235.104004 148 234 148"/>
    <path id="path86" fill="#ffffff" stroke="none" d="M 230 152 C 228.895996 152 228 152.895996 228 154 C 228 155.104004 228.895996 156 230 156 C 231.104004 156 232 155.104004 232 154 C 232 152.895996 231.104004 152 230 152"/>
    <path id="path87" fill="#ffffff" stroke="none" d="M 226 160 C 227.104004 160 228 159.104004 228 158 C 228 156.895996 227.104004 156 226 156 C 224.895996 156 224 156.895996 224 158 C 224 159.104004 224.895996 160 226 160"/>
    <path id="path88" fill="#ffffff" stroke="none" d="M 234 156 C 232.895996 156 232 156.895996 232 158 C 232 159.104004 232.895996 160 234 160 C 235.104004 160 236 159.104004 236 158 C 236 156.895996 235.104004 156 234 156"/>
    <path id="path89" fill="#ffffff" stroke="none" d="M 230 160 C 228.895996 160 228 160.895996 228 162 C 228 163.104004 228.895996 164 230 164 C 231.104004 164 232 163.104004 232 162 C 232 160.895996 231.104004 160 230 160"/>
    <path id="path90" fill="#ffffff" stroke="none" d="M 226 168 C 227.104004 168 228 167.104004 228 166 C 228 164.895996 227.104004 164 226 164 C 224.895996 164 224 164.895996 224 166 C 224 167.104004 224.895996 168 226 168"/>
    <path id="path91" fill="#ffffff" stroke="none" d="M 234 164 C 232.895996 164 232 164.895996 232 166 C 232 167.104004 232.895996 168 234 168 C 235.104004 168 236 167.104004 236 166 C 236 164.895996 235.104004 164 234 164"/>
    <path id="path92" fill="#ffffff" stroke="none" d="M 230 168 C 228.895996 168 228 168.895996 228 170 C 228 171.104004 228.895996 172 230 172 C 231.104004 172 232 171.104004 232 170 C 232 168.895996 231.104004 168 230 168"/>
    <path id="path93" fill="#ffffff" stroke="none" d="M 226 176 C 227.104004 176 228 175.104004 228 174 C 228 172.895996 227.104004 172 226 172 C 224.895996 172 224 172.895996 224 174 C 224 175.104004 224.895996 176 226 176"/>
    <path id="path94" fill="#ffffff" stroke="none" d="M 234 172 C 232.895996 172 232 172.895996 232 174 C 232 175.104004 232.895996 176 234 176 C 235.104004 176 236 175.104004 236 174 C 236 172.895996 235.104004 172 234 172"/>
    <path id="path95" fill="#ffffff" stroke="none" d="M 230 176 C 228.895996 176 228 176.895996 228 178 C 228 179.104004 228.895996 180 230 180 C 231.104004 180 232 179.104004 232 178 C 232 176.895996 231.104004 176 230 176"/>
    <path id="path96" fill="#ffffff" stroke="none" d="M 226 184 C 227.104004 184 228 183.104004 228 182 C 228 180.895996 227.104004 180 226 180 C 224.895996 180 224 180.895996 224 182 C 224 183.104004 224.895996 184 226 184"/>
    <path id="path97" fill="#ffffff" stroke="none" d="M 234 180 C 232.895996 180 232 180.895996 232 182 C 232 183.104004 232.895996 184 234 184 C 235.104004 184 236 183.104004 236 182 C 236 180.895996 235.104004 180 234 180"/>
    <path id="path98" fill="#ffffff" stroke="none" d="M 230 184 C 228.895996 184 228 184.895996 228 186 C 228 187.104004 228.895996 188 230 188 C 231.104004 188 232 187.104004 232 186 C 232 184.895996 231.104004 184 230 184"/>
    <path id="path99" fill="#ffffff" stroke="none" d="M 226 188 C 224.895996 188 224 188.895996 224 190 C 224 191.104004 224.895996 192 226 192 C 227.104004 192 228 191.104004 228 190 C 228 188.895996 227.104004 188 226 188"/>
    <path id="path100" fill="#ffffff" stroke="none" d="M 234 188 C 232.895996 188 232 188.895996 232 190 C 232 191.104004 232.895996 192 234 192 C 235.104004 192 236 191.104004 236 190 C 236 188.895996 235.104004 188 234 188"/>
</svg>
