<?xml version="1.0" encoding="UTF-8"?>
<!-- Generated by Pixelmator Pro 3.7.1 -->
<svg width="256" height="256" viewBox="0 0 256 256" xmlns="http://www.w3.org/2000/svg">
    <path id="Path" fill="#ffffff" stroke="none" d="M 216 228 L 214 228 L 210 228 L 46 228 L 44 228 L 44 8 L 216 8 Z M 214 240 L 214 244 L 42 244 L 42 240 L 46 236 L 46 232 L 62 232 L 62 236 L 194 236 L 194 232 L 210 232 L 210 236 Z M 216 4 L 44 4 L 40 4 L 40 8 L 40 228 L 40 232 L 42 232 L 42 234.343002 L 39.171005 237.171997 L 38 238.343002 L 38 240 L 38 244 L 38 248 L 42 248 L 214 248 L 218 248 L 218 244 L 218 240 L 218 238.343002 L 216.828003 237.171997 L 214 234.343002 L 214 232 L 216 232 L 220 232 L 220 228 L 220 8 L 220 4 Z"/>
    <path id="path1" fill="#ffffff" stroke="none" d="M 210 120 C 211.104004 120 212 119.104004 212 118 C 212 116.895996 211.104004 116 210 116 C 208.895996 116 208 116.895996 208 118 C 208 119.104004 208.895996 120 210 120"/>
    <path id="path2" fill="#ffffff" stroke="none" d="M 210 128 C 211.104004 128 212 127.104004 212 126 C 212 124.895996 211.104004 124 210 124 C 208.895996 124 208 124.895996 208 126 C 208 127.104004 208.895996 128 210 128"/>
    <path id="path3" fill="#ffffff" stroke="none" d="M 210 136 C 211.104004 136 212 135.104004 212 134 C 212 132.895996 211.104004 132 210 132 C 208.895996 132 208 132.895996 208 134 C 208 135.104004 208.895996 136 210 136"/>
    <path id="path4" fill="#ffffff" stroke="none" d="M 210 144 C 211.104004 144 212 143.104004 212 142 C 212 140.895996 211.104004 140 210 140 C 208.895996 140 208 140.895996 208 142 C 208 143.104004 208.895996 144 210 144"/>
    <path id="path5" fill="#ffffff" stroke="none" d="M 210 152 C 211.104004 152 212 151.104004 212 150 C 212 148.895996 211.104004 148 210 148 C 208.895996 148 208 148.895996 208 150 C 208 151.104004 208.895996 152 210 152"/>
    <path id="path6" fill="#ffffff" stroke="none" d="M 210 160 C 211.104004 160 212 159.104004 212 158 C 212 156.895996 211.104004 156 210 156 C 208.895996 156 208 156.895996 208 158 C 208 159.104004 208.895996 160 210 160"/>
    <path id="path7" fill="#ffffff" stroke="none" d="M 210 168 C 211.104004 168 212 167.104004 212 166 C 212 164.895996 211.104004 164 210 164 C 208.895996 164 208 164.895996 208 166 C 208 167.104004 208.895996 168 210 168"/>
    <path id="path8" fill="#ffffff" stroke="none" d="M 210 176 C 211.104004 176 212 175.104004 212 174 C 212 172.895996 211.104004 172 210 172 C 208.895996 172 208 172.895996 208 174 C 208 175.104004 208.895996 176 210 176"/>
    <path id="path9" fill="#ffffff" stroke="none" d="M 210 184 C 211.104004 184 212 183.104004 212 182 C 212 180.895996 211.104004 180 210 180 C 208.895996 180 208 180.895996 208 182 C 208 183.104004 208.895996 184 210 184"/>
    <path id="path10" fill="#ffffff" stroke="none" d="M 210 192 C 211.104004 192 212 191.104004 212 190 C 212 188.895996 211.104004 188 210 188 C 208.895996 188 208 188.895996 208 190 C 208 191.104004 208.895996 192 210 192"/>
    <path id="path11" fill="#ffffff" stroke="none" d="M 210 200 C 211.104004 200 212 199.104004 212 198 C 212 196.895996 211.104004 196 210 196 C 208.895996 196 208 196.895996 208 198 C 208 199.104004 208.895996 200 210 200"/>
    <path id="path12" fill="#ffffff" stroke="none" d="M 210 208 C 211.104004 208 212 207.104004 212 206 C 212 204.895996 211.104004 204 210 204 C 208.895996 204 208 204.895996 208 206 C 208 207.104004 208.895996 208 210 208"/>
    <path id="path13" fill="#ffffff" stroke="none" d="M 210 216 C 211.104004 216 212 215.104004 212 214 C 212 212.895996 211.104004 212 210 212 C 208.895996 212 208 212.895996 208 214 C 208 215.104004 208.895996 216 210 216"/>
    <path id="path14" fill="#ffffff" stroke="none" d="M 210 224 C 211.104004 224 212 223.104004 212 222 C 212 220.895996 211.104004 220 210 220 C 208.895996 220 208 220.895996 208 222 C 208 223.104004 208.895996 224 210 224"/>
    <path id="path15" fill="#ffffff" stroke="none" d="M 202 120 C 203.104004 120 204 119.104004 204 118 C 204 116.895996 203.104004 116 202 116 C 200.895996 116 200 116.895996 200 118 C 200 119.104004 200.895996 120 202 120"/>
    <path id="path16" fill="#ffffff" stroke="none" d="M 202 128 C 203.104004 128 204 127.104004 204 126 C 204 124.895996 203.104004 124 202 124 C 200.895996 124 200 124.895996 200 126 C 200 127.104004 200.895996 128 202 128"/>
    <path id="path17" fill="#ffffff" stroke="none" d="M 202 136 C 203.104004 136 204 135.104004 204 134 C 204 132.895996 203.104004 132 202 132 C 200.895996 132 200 132.895996 200 134 C 200 135.104004 200.895996 136 202 136"/>
    <path id="path18" fill="#ffffff" stroke="none" d="M 202 144 C 203.104004 144 204 143.104004 204 142 C 204 140.895996 203.104004 140 202 140 C 200.895996 140 200 140.895996 200 142 C 200 143.104004 200.895996 144 202 144"/>
    <path id="path19" fill="#ffffff" stroke="none" d="M 202 152 C 203.104004 152 204 151.104004 204 150 C 204 148.895996 203.104004 148 202 148 C 200.895996 148 200 148.895996 200 150 C 200 151.104004 200.895996 152 202 152"/>
    <path id="path20" fill="#ffffff" stroke="none" d="M 202 160 C 203.104004 160 204 159.104004 204 158 C 204 156.895996 203.104004 156 202 156 C 200.895996 156 200 156.895996 200 158 C 200 159.104004 200.895996 160 202 160"/>
    <path id="path21" fill="#ffffff" stroke="none" d="M 202 168 C 203.104004 168 204 167.104004 204 166 C 204 164.895996 203.104004 164 202 164 C 200.895996 164 200 164.895996 200 166 C 200 167.104004 200.895996 168 202 168"/>
    <path id="path22" fill="#ffffff" stroke="none" d="M 202 176 C 203.104004 176 204 175.104004 204 174 C 204 172.895996 203.104004 172 202 172 C 200.895996 172 200 172.895996 200 174 C 200 175.104004 200.895996 176 202 176"/>
    <path id="path23" fill="#ffffff" stroke="none" d="M 202 184 C 203.104004 184 204 183.104004 204 182 C 204 180.895996 203.104004 180 202 180 C 200.895996 180 200 180.895996 200 182 C 200 183.104004 200.895996 184 202 184"/>
    <path id="path24" fill="#ffffff" stroke="none" d="M 202 192 C 203.104004 192 204 191.104004 204 190 C 204 188.895996 203.104004 188 202 188 C 200.895996 188 200 188.895996 200 190 C 200 191.104004 200.895996 192 202 192"/>
    <path id="path25" fill="#ffffff" stroke="none" d="M 202 200 C 203.104004 200 204 199.104004 204 198 C 204 196.895996 203.104004 196 202 196 C 200.895996 196 200 196.895996 200 198 C 200 199.104004 200.895996 200 202 200"/>
    <path id="path26" fill="#ffffff" stroke="none" d="M 202 208 C 203.104004 208 204 207.104004 204 206 C 204 204.895996 203.104004 204 202 204 C 200.895996 204 200 204.895996 200 206 C 200 207.104004 200.895996 208 202 208"/>
    <path id="path27" fill="#ffffff" stroke="none" d="M 202 216 C 203.104004 216 204 215.104004 204 214 C 204 212.895996 203.104004 212 202 212 C 200.895996 212 200 212.895996 200 214 C 200 215.104004 200.895996 216 202 216"/>
    <path id="path28" fill="#ffffff" stroke="none" d="M 202 224 C 203.104004 224 204 223.104004 204 222 C 204 220.895996 203.104004 220 202 220 C 200.895996 220 200 220.895996 200 222 C 200 223.104004 200.895996 224 202 224"/>
    <path id="path29" fill="#ffffff" stroke="none" d="M 194 120 C 195.104004 120 196 119.104004 196 118 C 196 116.895996 195.104004 116 194 116 C 192.895996 116 192 116.895996 192 118 C 192 119.104004 192.895996 120 194 120"/>
    <path id="path30" fill="#ffffff" stroke="none" d="M 194 128 C 195.104004 128 196 127.104004 196 126 C 196 124.895996 195.104004 124 194 124 C 192.895996 124 192 124.895996 192 126 C 192 127.104004 192.895996 128 194 128"/>
    <path id="path31" fill="#ffffff" stroke="none" d="M 194 136 C 195.104004 136 196 135.104004 196 134 C 196 132.895996 195.104004 132 194 132 C 192.895996 132 192 132.895996 192 134 C 192 135.104004 192.895996 136 194 136"/>
    <path id="path32" fill="#ffffff" stroke="none" d="M 194 144 C 195.104004 144 196 143.104004 196 142 C 196 140.895996 195.104004 140 194 140 C 192.895996 140 192 140.895996 192 142 C 192 143.104004 192.895996 144 194 144"/>
    <path id="path33" fill="#ffffff" stroke="none" d="M 194 152 C 195.104004 152 196 151.104004 196 150 C 196 148.895996 195.104004 148 194 148 C 192.895996 148 192 148.895996 192 150 C 192 151.104004 192.895996 152 194 152"/>
    <path id="path34" fill="#ffffff" stroke="none" d="M 194 160 C 195.104004 160 196 159.104004 196 158 C 196 156.895996 195.104004 156 194 156 C 192.895996 156 192 156.895996 192 158 C 192 159.104004 192.895996 160 194 160"/>
    <path id="path35" fill="#ffffff" stroke="none" d="M 194 168 C 195.104004 168 196 167.104004 196 166 C 196 164.895996 195.104004 164 194 164 C 192.895996 164 192 164.895996 192 166 C 192 167.104004 192.895996 168 194 168"/>
    <path id="path36" fill="#ffffff" stroke="none" d="M 194 176 C 195.104004 176 196 175.104004 196 174 C 196 172.895996 195.104004 172 194 172 C 192.895996 172 192 172.895996 192 174 C 192 175.104004 192.895996 176 194 176"/>
    <path id="path37" fill="#ffffff" stroke="none" d="M 194 184 C 195.104004 184 196 183.104004 196 182 C 196 180.895996 195.104004 180 194 180 C 192.895996 180 192 180.895996 192 182 C 192 183.104004 192.895996 184 194 184"/>
    <path id="path38" fill="#ffffff" stroke="none" d="M 194 192 C 195.104004 192 196 191.104004 196 190 C 196 188.895996 195.104004 188 194 188 C 192.895996 188 192 188.895996 192 190 C 192 191.104004 192.895996 192 194 192"/>
    <path id="path39" fill="#ffffff" stroke="none" d="M 194 200 C 195.104004 200 196 199.104004 196 198 C 196 196.895996 195.104004 196 194 196 C 192.895996 196 192 196.895996 192 198 C 192 199.104004 192.895996 200 194 200"/>
    <path id="path40" fill="#ffffff" stroke="none" d="M 194 208 C 195.104004 208 196 207.104004 196 206 C 196 204.895996 195.104004 204 194 204 C 192.895996 204 192 204.895996 192 206 C 192 207.104004 192.895996 208 194 208"/>
    <path id="path41" fill="#ffffff" stroke="none" d="M 194 216 C 195.104004 216 196 215.104004 196 214 C 196 212.895996 195.104004 212 194 212 C 192.895996 212 192 212.895996 192 214 C 192 215.104004 192.895996 216 194 216"/>
    <path id="path42" fill="#ffffff" stroke="none" d="M 194 224 C 195.104004 224 196 223.104004 196 222 C 196 220.895996 195.104004 220 194 220 C 192.895996 220 192 220.895996 192 222 C 192 223.104004 192.895996 224 194 224"/>
    <path id="path43" fill="#ffffff" stroke="none" d="M 186 120 C 187.104004 120 188 119.104004 188 118 C 188 116.895996 187.104004 116 186 116 C 184.895996 116 184 116.895996 184 118 C 184 119.104004 184.895996 120 186 120"/>
    <path id="path44" fill="#ffffff" stroke="none" d="M 186 128 C 187.104004 128 188 127.104004 188 126 C 188 124.895996 187.104004 124 186 124 C 184.895996 124 184 124.895996 184 126 C 184 127.104004 184.895996 128 186 128"/>
    <path id="path45" fill="#ffffff" stroke="none" d="M 186 136 C 187.104004 136 188 135.104004 188 134 C 188 132.895996 187.104004 132 186 132 C 184.895996 132 184 132.895996 184 134 C 184 135.104004 184.895996 136 186 136"/>
    <path id="path46" fill="#ffffff" stroke="none" d="M 186 144 C 187.104004 144 188 143.104004 188 142 C 188 140.895996 187.104004 140 186 140 C 184.895996 140 184 140.895996 184 142 C 184 143.104004 184.895996 144 186 144"/>
    <path id="path47" fill="#ffffff" stroke="none" d="M 186 152 C 187.104004 152 188 151.104004 188 150 C 188 148.895996 187.104004 148 186 148 C 184.895996 148 184 148.895996 184 150 C 184 151.104004 184.895996 152 186 152"/>
    <path id="path48" fill="#ffffff" stroke="none" d="M 186 160 C 187.104004 160 188 159.104004 188 158 C 188 156.895996 187.104004 156 186 156 C 184.895996 156 184 156.895996 184 158 C 184 159.104004 184.895996 160 186 160"/>
    <path id="path49" fill="#ffffff" stroke="none" d="M 186 168 C 187.104004 168 188 167.104004 188 166 C 188 164.895996 187.104004 164 186 164 C 184.895996 164 184 164.895996 184 166 C 184 167.104004 184.895996 168 186 168"/>
    <path id="path50" fill="#ffffff" stroke="none" d="M 186 176 C 187.104004 176 188 175.104004 188 174 C 188 172.895996 187.104004 172 186 172 C 184.895996 172 184 172.895996 184 174 C 184 175.104004 184.895996 176 186 176"/>
    <path id="path51" fill="#ffffff" stroke="none" d="M 186 184 C 187.104004 184 188 183.104004 188 182 C 188 180.895996 187.104004 180 186 180 C 184.895996 180 184 180.895996 184 182 C 184 183.104004 184.895996 184 186 184"/>
    <path id="path52" fill="#ffffff" stroke="none" d="M 186 192 C 187.104004 192 188 191.104004 188 190 C 188 188.895996 187.104004 188 186 188 C 184.895996 188 184 188.895996 184 190 C 184 191.104004 184.895996 192 186 192"/>
    <path id="path53" fill="#ffffff" stroke="none" d="M 186 200 C 187.104004 200 188 199.104004 188 198 C 188 196.895996 187.104004 196 186 196 C 184.895996 196 184 196.895996 184 198 C 184 199.104004 184.895996 200 186 200"/>
    <path id="path54" fill="#ffffff" stroke="none" d="M 186 208 C 187.104004 208 188 207.104004 188 206 C 188 204.895996 187.104004 204 186 204 C 184.895996 204 184 204.895996 184 206 C 184 207.104004 184.895996 208 186 208"/>
    <path id="path55" fill="#ffffff" stroke="none" d="M 186 216 C 187.104004 216 188 215.104004 188 214 C 188 212.895996 187.104004 212 186 212 C 184.895996 212 184 212.895996 184 214 C 184 215.104004 184.895996 216 186 216"/>
    <path id="path56" fill="#ffffff" stroke="none" d="M 186 224 C 187.104004 224 188 223.104004 188 222 C 188 220.895996 187.104004 220 186 220 C 184.895996 220 184 220.895996 184 222 C 184 223.104004 184.895996 224 186 224"/>
    <path id="path57" fill="#ffffff" stroke="none" d="M 178 120 C 179.104004 120 180 119.104004 180 118 C 180 116.895996 179.104004 116 178 116 C 176.895996 116 176 116.895996 176 118 C 176 119.104004 176.895996 120 178 120"/>
    <path id="path58" fill="#ffffff" stroke="none" d="M 178 128 C 179.104004 128 180 127.104004 180 126 C 180 124.895996 179.104004 124 178 124 C 176.895996 124 176 124.895996 176 126 C 176 127.104004 176.895996 128 178 128"/>
    <path id="path59" fill="#ffffff" stroke="none" d="M 178 136 C 179.104004 136 180 135.104004 180 134 C 180 132.895996 179.104004 132 178 132 C 176.895996 132 176 132.895996 176 134 C 176 135.104004 176.895996 136 178 136"/>
    <path id="path60" fill="#ffffff" stroke="none" d="M 178 144 C 179.104004 144 180 143.104004 180 142 C 180 140.895996 179.104004 140 178 140 C 176.895996 140 176 140.895996 176 142 C 176 143.104004 176.895996 144 178 144"/>
    <path id="path61" fill="#ffffff" stroke="none" d="M 178 152 C 179.104004 152 180 151.104004 180 150 C 180 148.895996 179.104004 148 178 148 C 176.895996 148 176 148.895996 176 150 C 176 151.104004 176.895996 152 178 152"/>
    <path id="path62" fill="#ffffff" stroke="none" d="M 178 160 C 179.104004 160 180 159.104004 180 158 C 180 156.895996 179.104004 156 178 156 C 176.895996 156 176 156.895996 176 158 C 176 159.104004 176.895996 160 178 160"/>
    <path id="path63" fill="#ffffff" stroke="none" d="M 178 168 C 179.104004 168 180 167.104004 180 166 C 180 164.895996 179.104004 164 178 164 C 176.895996 164 176 164.895996 176 166 C 176 167.104004 176.895996 168 178 168"/>
    <path id="path64" fill="#ffffff" stroke="none" d="M 178 176 C 179.104004 176 180 175.104004 180 174 C 180 172.895996 179.104004 172 178 172 C 176.895996 172 176 172.895996 176 174 C 176 175.104004 176.895996 176 178 176"/>
    <path id="path65" fill="#ffffff" stroke="none" d="M 178 184 C 179.104004 184 180 183.104004 180 182 C 180 180.895996 179.104004 180 178 180 C 176.895996 180 176 180.895996 176 182 C 176 183.104004 176.895996 184 178 184"/>
    <path id="path66" fill="#ffffff" stroke="none" d="M 178 192 C 179.104004 192 180 191.104004 180 190 C 180 188.895996 179.104004 188 178 188 C 176.895996 188 176 188.895996 176 190 C 176 191.104004 176.895996 192 178 192"/>
    <path id="path67" fill="#ffffff" stroke="none" d="M 178 200 C 179.104004 200 180 199.104004 180 198 C 180 196.895996 179.104004 196 178 196 C 176.895996 196 176 196.895996 176 198 C 176 199.104004 176.895996 200 178 200"/>
    <path id="path68" fill="#ffffff" stroke="none" d="M 178 208 C 179.104004 208 180 207.104004 180 206 C 180 204.895996 179.104004 204 178 204 C 176.895996 204 176 204.895996 176 206 C 176 207.104004 176.895996 208 178 208"/>
    <path id="path69" fill="#ffffff" stroke="none" d="M 178 216 C 179.104004 216 180 215.104004 180 214 C 180 212.895996 179.104004 212 178 212 C 176.895996 212 176 212.895996 176 214 C 176 215.104004 176.895996 216 178 216"/>
    <path id="path70" fill="#ffffff" stroke="none" d="M 178 224 C 179.104004 224 180 223.104004 180 222 C 180 220.895996 179.104004 220 178 220 C 176.895996 220 176 220.895996 176 222 C 176 223.104004 176.895996 224 178 224"/>
    <path id="path71" fill="#ffffff" stroke="none" d="M 170 120 C 171.104004 120 172 119.104004 172 118 C 172 116.895996 171.104004 116 170 116 C 168.895996 116 168 116.895996 168 118 C 168 119.104004 168.895996 120 170 120"/>
    <path id="path72" fill="#ffffff" stroke="none" d="M 170 128 C 171.104004 128 172 127.104004 172 126 C 172 124.895996 171.104004 124 170 124 C 168.895996 124 168 124.895996 168 126 C 168 127.104004 168.895996 128 170 128"/>
    <path id="path73" fill="#ffffff" stroke="none" d="M 170 136 C 171.104004 136 172 135.104004 172 134 C 172 132.895996 171.104004 132 170 132 C 168.895996 132 168 132.895996 168 134 C 168 135.104004 168.895996 136 170 136"/>
    <path id="path74" fill="#ffffff" stroke="none" d="M 170 144 C 171.104004 144 172 143.104004 172 142 C 172 140.895996 171.104004 140 170 140 C 168.895996 140 168 140.895996 168 142 C 168 143.104004 168.895996 144 170 144"/>
    <path id="path75" fill="#ffffff" stroke="none" d="M 170 152 C 171.104004 152 172 151.104004 172 150 C 172 148.895996 171.104004 148 170 148 C 168.895996 148 168 148.895996 168 150 C 168 151.104004 168.895996 152 170 152"/>
    <path id="path76" fill="#ffffff" stroke="none" d="M 170 160 C 171.104004 160 172 159.104004 172 158 C 172 156.895996 171.104004 156 170 156 C 168.895996 156 168 156.895996 168 158 C 168 159.104004 168.895996 160 170 160"/>
    <path id="path77" fill="#ffffff" stroke="none" d="M 170 168 C 171.104004 168 172 167.104004 172 166 C 172 164.895996 171.104004 164 170 164 C 168.895996 164 168 164.895996 168 166 C 168 167.104004 168.895996 168 170 168"/>
    <path id="path78" fill="#ffffff" stroke="none" d="M 170 176 C 171.104004 176 172 175.104004 172 174 C 172 172.895996 171.104004 172 170 172 C 168.895996 172 168 172.895996 168 174 C 168 175.104004 168.895996 176 170 176"/>
    <path id="path79" fill="#ffffff" stroke="none" d="M 170 184 C 171.104004 184 172 183.104004 172 182 C 172 180.895996 171.104004 180 170 180 C 168.895996 180 168 180.895996 168 182 C 168 183.104004 168.895996 184 170 184"/>
    <path id="path80" fill="#ffffff" stroke="none" d="M 170 192 C 171.104004 192 172 191.104004 172 190 C 172 188.895996 171.104004 188 170 188 C 168.895996 188 168 188.895996 168 190 C 168 191.104004 168.895996 192 170 192"/>
    <path id="path81" fill="#ffffff" stroke="none" d="M 170 200 C 171.104004 200 172 199.104004 172 198 C 172 196.895996 171.104004 196 170 196 C 168.895996 196 168 196.895996 168 198 C 168 199.104004 168.895996 200 170 200"/>
    <path id="path82" fill="#ffffff" stroke="none" d="M 170 208 C 171.104004 208 172 207.104004 172 206 C 172 204.895996 171.104004 204 170 204 C 168.895996 204 168 204.895996 168 206 C 168 207.104004 168.895996 208 170 208"/>
    <path id="path83" fill="#ffffff" stroke="none" d="M 170 216 C 171.104004 216 172 215.104004 172 214 C 172 212.895996 171.104004 212 170 212 C 168.895996 212 168 212.895996 168 214 C 168 215.104004 168.895996 216 170 216"/>
    <path id="path84" fill="#ffffff" stroke="none" d="M 170 224 C 171.104004 224 172 223.104004 172 222 C 172 220.895996 171.104004 220 170 220 C 168.895996 220 168 220.895996 168 222 C 168 223.104004 168.895996 224 170 224"/>
    <path id="path85" fill="#ffffff" stroke="none" d="M 162 120 C 163.104004 120 164 119.104004 164 118 C 164 116.895996 163.104004 116 162 116 C 160.895996 116 160 116.895996 160 118 C 160 119.104004 160.895996 120 162 120"/>
    <path id="path86" fill="#ffffff" stroke="none" d="M 162 128 C 163.104004 128 164 127.104004 164 126 C 164 124.895996 163.104004 124 162 124 C 160.895996 124 160 124.895996 160 126 C 160 127.104004 160.895996 128 162 128"/>
    <path id="path87" fill="#ffffff" stroke="none" d="M 162 136 C 163.104004 136 164 135.104004 164 134 C 164 132.895996 163.104004 132 162 132 C 160.895996 132 160 132.895996 160 134 C 160 135.104004 160.895996 136 162 136"/>
    <path id="path88" fill="#ffffff" stroke="none" d="M 162 144 C 163.104004 144 164 143.104004 164 142 C 164 140.895996 163.104004 140 162 140 C 160.895996 140 160 140.895996 160 142 C 160 143.104004 160.895996 144 162 144"/>
    <path id="path89" fill="#ffffff" stroke="none" d="M 162 152 C 163.104004 152 164 151.104004 164 150 C 164 148.895996 163.104004 148 162 148 C 160.895996 148 160 148.895996 160 150 C 160 151.104004 160.895996 152 162 152"/>
    <path id="path90" fill="#ffffff" stroke="none" d="M 162 160 C 163.104004 160 164 159.104004 164 158 C 164 156.895996 163.104004 156 162 156 C 160.895996 156 160 156.895996 160 158 C 160 159.104004 160.895996 160 162 160"/>
    <path id="path91" fill="#ffffff" stroke="none" d="M 162 168 C 163.104004 168 164 167.104004 164 166 C 164 164.895996 163.104004 164 162 164 C 160.895996 164 160 164.895996 160 166 C 160 167.104004 160.895996 168 162 168"/>
    <path id="path92" fill="#ffffff" stroke="none" d="M 162 176 C 163.104004 176 164 175.104004 164 174 C 164 172.895996 163.104004 172 162 172 C 160.895996 172 160 172.895996 160 174 C 160 175.104004 160.895996 176 162 176"/>
    <path id="path93" fill="#ffffff" stroke="none" d="M 162 184 C 163.104004 184 164 183.104004 164 182 C 164 180.895996 163.104004 180 162 180 C 160.895996 180 160 180.895996 160 182 C 160 183.104004 160.895996 184 162 184"/>
    <path id="path94" fill="#ffffff" stroke="none" d="M 162 192 C 163.104004 192 164 191.104004 164 190 C 164 188.895996 163.104004 188 162 188 C 160.895996 188 160 188.895996 160 190 C 160 191.104004 160.895996 192 162 192"/>
    <path id="path95" fill="#ffffff" stroke="none" d="M 162 200 C 163.104004 200 164 199.104004 164 198 C 164 196.895996 163.104004 196 162 196 C 160.895996 196 160 196.895996 160 198 C 160 199.104004 160.895996 200 162 200"/>
    <path id="path96" fill="#ffffff" stroke="none" d="M 162 208 C 163.104004 208 164 207.104004 164 206 C 164 204.895996 163.104004 204 162 204 C 160.895996 204 160 204.895996 160 206 C 160 207.104004 160.895996 208 162 208"/>
    <path id="path97" fill="#ffffff" stroke="none" d="M 162 216 C 163.104004 216 164 215.104004 164 214 C 164 212.895996 163.104004 212 162 212 C 160.895996 212 160 212.895996 160 214 C 160 215.104004 160.895996 216 162 216"/>
    <path id="path98" fill="#ffffff" stroke="none" d="M 162 224 C 163.104004 224 164 223.104004 164 222 C 164 220.895996 163.104004 220 162 220 C 160.895996 220 160 220.895996 160 222 C 160 223.104004 160.895996 224 162 224"/>
    <path id="path99" fill="#ffffff" stroke="none" d="M 154 120 C 155.104004 120 156 119.104004 156 118 C 156 116.895996 155.104004 116 154 116 C 152.895996 116 152 116.895996 152 118 C 152 119.104004 152.895996 120 154 120"/>
    <path id="path100" fill="#ffffff" stroke="none" d="M 154 128 C 155.104004 128 156 127.104004 156 126 C 156 124.895996 155.104004 124 154 124 C 152.895996 124 152 124.895996 152 126 C 152 127.104004 152.895996 128 154 128"/>
    <path id="path101" fill="#ffffff" stroke="none" d="M 154 136 C 155.104004 136 156 135.104004 156 134 C 156 132.895996 155.104004 132 154 132 C 152.895996 132 152 132.895996 152 134 C 152 135.104004 152.895996 136 154 136"/>
    <path id="path102" fill="#ffffff" stroke="none" d="M 154 144 C 155.104004 144 156 143.104004 156 142 C 156 140.895996 155.104004 140 154 140 C 152.895996 140 152 140.895996 152 142 C 152 143.104004 152.895996 144 154 144"/>
    <path id="path103" fill="#ffffff" stroke="none" d="M 154 152 C 155.104004 152 156 151.104004 156 150 C 156 148.895996 155.104004 148 154 148 C 152.895996 148 152 148.895996 152 150 C 152 151.104004 152.895996 152 154 152"/>
    <path id="path104" fill="#ffffff" stroke="none" d="M 154 160 C 155.104004 160 156 159.104004 156 158 C 156 156.895996 155.104004 156 154 156 C 152.895996 156 152 156.895996 152 158 C 152 159.104004 152.895996 160 154 160"/>
    <path id="path105" fill="#ffffff" stroke="none" d="M 154 168 C 155.104004 168 156 167.104004 156 166 C 156 164.895996 155.104004 164 154 164 C 152.895996 164 152 164.895996 152 166 C 152 167.104004 152.895996 168 154 168"/>
    <path id="path106" fill="#ffffff" stroke="none" d="M 154 176 C 155.104004 176 156 175.104004 156 174 C 156 172.895996 155.104004 172 154 172 C 152.895996 172 152 172.895996 152 174 C 152 175.104004 152.895996 176 154 176"/>
    <path id="path107" fill="#ffffff" stroke="none" d="M 154 184 C 155.104004 184 156 183.104004 156 182 C 156 180.895996 155.104004 180 154 180 C 152.895996 180 152 180.895996 152 182 C 152 183.104004 152.895996 184 154 184"/>
    <path id="path108" fill="#ffffff" stroke="none" d="M 154 192 C 155.104004 192 156 191.104004 156 190 C 156 188.895996 155.104004 188 154 188 C 152.895996 188 152 188.895996 152 190 C 152 191.104004 152.895996 192 154 192"/>
    <path id="path109" fill="#ffffff" stroke="none" d="M 154 200 C 155.104004 200 156 199.104004 156 198 C 156 196.895996 155.104004 196 154 196 C 152.895996 196 152 196.895996 152 198 C 152 199.104004 152.895996 200 154 200"/>
    <path id="path110" fill="#ffffff" stroke="none" d="M 154 208 C 155.104004 208 156 207.104004 156 206 C 156 204.895996 155.104004 204 154 204 C 152.895996 204 152 204.895996 152 206 C 152 207.104004 152.895996 208 154 208"/>
    <path id="path111" fill="#ffffff" stroke="none" d="M 154 216 C 155.104004 216 156 215.104004 156 214 C 156 212.895996 155.104004 212 154 212 C 152.895996 212 152 212.895996 152 214 C 152 215.104004 152.895996 216 154 216"/>
    <path id="path112" fill="#ffffff" stroke="none" d="M 154 224 C 155.104004 224 156 223.104004 156 222 C 156 220.895996 155.104004 220 154 220 C 152.895996 220 152 220.895996 152 222 C 152 223.104004 152.895996 224 154 224"/>
    <path id="path113" fill="#ffffff" stroke="none" d="M 146 120 C 147.104004 120 148 119.104004 148 118 C 148 116.895996 147.104004 116 146 116 C 144.895996 116 144 116.895996 144 118 C 144 119.104004 144.895996 120 146 120"/>
    <path id="path114" fill="#ffffff" stroke="none" d="M 146 128 C 147.104004 128 148 127.104004 148 126 C 148 124.895996 147.104004 124 146 124 C 144.895996 124 144 124.895996 144 126 C 144 127.104004 144.895996 128 146 128"/>
    <path id="path115" fill="#ffffff" stroke="none" d="M 146 136 C 147.104004 136 148 135.104004 148 134 C 148 132.895996 147.104004 132 146 132 C 144.895996 132 144 132.895996 144 134 C 144 135.104004 144.895996 136 146 136"/>
    <path id="path116" fill="#ffffff" stroke="none" d="M 146 144 C 147.104004 144 148 143.104004 148 142 C 148 140.895996 147.104004 140 146 140 C 144.895996 140 144 140.895996 144 142 C 144 143.104004 144.895996 144 146 144"/>
    <path id="path117" fill="#ffffff" stroke="none" d="M 146 152 C 147.104004 152 148 151.104004 148 150 C 148 148.895996 147.104004 148 146 148 C 144.895996 148 144 148.895996 144 150 C 144 151.104004 144.895996 152 146 152"/>
    <path id="path118" fill="#ffffff" stroke="none" d="M 146 160 C 147.104004 160 148 159.104004 148 158 C 148 156.895996 147.104004 156 146 156 C 144.895996 156 144 156.895996 144 158 C 144 159.104004 144.895996 160 146 160"/>
    <path id="path119" fill="#ffffff" stroke="none" d="M 146 168 C 147.104004 168 148 167.104004 148 166 C 148 164.895996 147.104004 164 146 164 C 144.895996 164 144 164.895996 144 166 C 144 167.104004 144.895996 168 146 168"/>
    <path id="path120" fill="#ffffff" stroke="none" d="M 146 176 C 147.104004 176 148 175.104004 148 174 C 148 172.895996 147.104004 172 146 172 C 144.895996 172 144 172.895996 144 174 C 144 175.104004 144.895996 176 146 176"/>
    <path id="path121" fill="#ffffff" stroke="none" d="M 146 184 C 147.104004 184 148 183.104004 148 182 C 148 180.895996 147.104004 180 146 180 C 144.895996 180 144 180.895996 144 182 C 144 183.104004 144.895996 184 146 184"/>
    <path id="path122" fill="#ffffff" stroke="none" d="M 146 192 C 147.104004 192 148 191.104004 148 190 C 148 188.895996 147.104004 188 146 188 C 144.895996 188 144 188.895996 144 190 C 144 191.104004 144.895996 192 146 192"/>
    <path id="path123" fill="#ffffff" stroke="none" d="M 146 200 C 147.104004 200 148 199.104004 148 198 C 148 196.895996 147.104004 196 146 196 C 144.895996 196 144 196.895996 144 198 C 144 199.104004 144.895996 200 146 200"/>
    <path id="path124" fill="#ffffff" stroke="none" d="M 146 208 C 147.104004 208 148 207.104004 148 206 C 148 204.895996 147.104004 204 146 204 C 144.895996 204 144 204.895996 144 206 C 144 207.104004 144.895996 208 146 208"/>
    <path id="path125" fill="#ffffff" stroke="none" d="M 146 216 C 147.104004 216 148 215.104004 148 214 C 148 212.895996 147.104004 212 146 212 C 144.895996 212 144 212.895996 144 214 C 144 215.104004 144.895996 216 146 216"/>
    <path id="path126" fill="#ffffff" stroke="none" d="M 146 224 C 147.104004 224 148 223.104004 148 222 C 148 220.895996 147.104004 220 146 220 C 144.895996 220 144 220.895996 144 222 C 144 223.104004 144.895996 224 146 224"/>
    <path id="path127" fill="#ffffff" stroke="none" d="M 138 120 C 139.104004 120 140 119.104004 140 118 C 140 116.895996 139.104004 116 138 116 C 136.895996 116 136 116.895996 136 118 C 136 119.104004 136.895996 120 138 120"/>
    <path id="path128" fill="#ffffff" stroke="none" d="M 138 128 C 139.104004 128 140 127.104004 140 126 C 140 124.895996 139.104004 124 138 124 C 136.895996 124 136 124.895996 136 126 C 136 127.104004 136.895996 128 138 128"/>
    <path id="path129" fill="#ffffff" stroke="none" d="M 138 136 C 139.104004 136 140 135.104004 140 134 C 140 132.895996 139.104004 132 138 132 C 136.895996 132 136 132.895996 136 134 C 136 135.104004 136.895996 136 138 136"/>
    <path id="path130" fill="#ffffff" stroke="none" d="M 138 144 C 139.104004 144 140 143.104004 140 142 C 140 140.895996 139.104004 140 138 140 C 136.895996 140 136 140.895996 136 142 C 136 143.104004 136.895996 144 138 144"/>
    <path id="path131" fill="#ffffff" stroke="none" d="M 138 152 C 139.104004 152 140 151.104004 140 150 C 140 148.895996 139.104004 148 138 148 C 136.895996 148 136 148.895996 136 150 C 136 151.104004 136.895996 152 138 152"/>
    <path id="path132" fill="#ffffff" stroke="none" d="M 138 160 C 139.104004 160 140 159.104004 140 158 C 140 156.895996 139.104004 156 138 156 C 136.895996 156 136 156.895996 136 158 C 136 159.104004 136.895996 160 138 160"/>
    <path id="path133" fill="#ffffff" stroke="none" d="M 138 168 C 139.104004 168 140 167.104004 140 166 C 140 164.895996 139.104004 164 138 164 C 136.895996 164 136 164.895996 136 166 C 136 167.104004 136.895996 168 138 168"/>
    <path id="path134" fill="#ffffff" stroke="none" d="M 138 176 C 139.104004 176 140 175.104004 140 174 C 140 172.895996 139.104004 172 138 172 C 136.895996 172 136 172.895996 136 174 C 136 175.104004 136.895996 176 138 176"/>
    <path id="path135" fill="#ffffff" stroke="none" d="M 138 184 C 139.104004 184 140 183.104004 140 182 C 140 180.895996 139.104004 180 138 180 C 136.895996 180 136 180.895996 136 182 C 136 183.104004 136.895996 184 138 184"/>
    <path id="path136" fill="#ffffff" stroke="none" d="M 138 192 C 139.104004 192 140 191.104004 140 190 C 140 188.895996 139.104004 188 138 188 C 136.895996 188 136 188.895996 136 190 C 136 191.104004 136.895996 192 138 192"/>
    <path id="path137" fill="#ffffff" stroke="none" d="M 138 200 C 139.104004 200 140 199.104004 140 198 C 140 196.895996 139.104004 196 138 196 C 136.895996 196 136 196.895996 136 198 C 136 199.104004 136.895996 200 138 200"/>
    <path id="path138" fill="#ffffff" stroke="none" d="M 138 208 C 139.104004 208 140 207.104004 140 206 C 140 204.895996 139.104004 204 138 204 C 136.895996 204 136 204.895996 136 206 C 136 207.104004 136.895996 208 138 208"/>
    <path id="path139" fill="#ffffff" stroke="none" d="M 138 216 C 139.104004 216 140 215.104004 140 214 C 140 212.895996 139.104004 212 138 212 C 136.895996 212 136 212.895996 136 214 C 136 215.104004 136.895996 216 138 216"/>
    <path id="path140" fill="#ffffff" stroke="none" d="M 138 224 C 139.104004 224 140 223.104004 140 222 C 140 220.895996 139.104004 220 138 220 C 136.895996 220 136 220.895996 136 222 C 136 223.104004 136.895996 224 138 224"/>
    <path id="path141" fill="#ffffff" stroke="none" d="M 130 120 C 131.104004 120 132 119.104004 132 118 C 132 116.895996 131.104004 116 130 116 C 128.895996 116 128 116.895996 128 118 C 128 119.104004 128.895996 120 130 120"/>
    <path id="path142" fill="#ffffff" stroke="none" d="M 130 128 C 131.104004 128 132 127.104004 132 126 C 132 124.895996 131.104004 124 130 124 C 128.895996 124 128 124.895996 128 126 C 128 127.104004 128.895996 128 130 128"/>
    <path id="path143" fill="#ffffff" stroke="none" d="M 130 136 C 131.104004 136 132 135.104004 132 134 C 132 132.895996 131.104004 132 130 132 C 128.895996 132 128 132.895996 128 134 C 128 135.104004 128.895996 136 130 136"/>
    <path id="path144" fill="#ffffff" stroke="none" d="M 130 144 C 131.104004 144 132 143.104004 132 142 C 132 140.895996 131.104004 140 130 140 C 128.895996 140 128 140.895996 128 142 C 128 143.104004 128.895996 144 130 144"/>
    <path id="path145" fill="#ffffff" stroke="none" d="M 130 152 C 131.104004 152 132 151.104004 132 150 C 132 148.895996 131.104004 148 130 148 C 128.895996 148 128 148.895996 128 150 C 128 151.104004 128.895996 152 130 152"/>
    <path id="path146" fill="#ffffff" stroke="none" d="M 130 160 C 131.104004 160 132 159.104004 132 158 C 132 156.895996 131.104004 156 130 156 C 128.895996 156 128 156.895996 128 158 C 128 159.104004 128.895996 160 130 160"/>
    <path id="path147" fill="#ffffff" stroke="none" d="M 130 168 C 131.104004 168 132 167.104004 132 166 C 132 164.895996 131.104004 164 130 164 C 128.895996 164 128 164.895996 128 166 C 128 167.104004 128.895996 168 130 168"/>
    <path id="path148" fill="#ffffff" stroke="none" d="M 130 176 C 131.104004 176 132 175.104004 132 174 C 132 172.895996 131.104004 172 130 172 C 128.895996 172 128 172.895996 128 174 C 128 175.104004 128.895996 176 130 176"/>
    <path id="path149" fill="#ffffff" stroke="none" d="M 130 184 C 131.104004 184 132 183.104004 132 182 C 132 180.895996 131.104004 180 130 180 C 128.895996 180 128 180.895996 128 182 C 128 183.104004 128.895996 184 130 184"/>
    <path id="path150" fill="#ffffff" stroke="none" d="M 130 192 C 131.104004 192 132 191.104004 132 190 C 132 188.895996 131.104004 188 130 188 C 128.895996 188 128 188.895996 128 190 C 128 191.104004 128.895996 192 130 192"/>
    <path id="path151" fill="#ffffff" stroke="none" d="M 130 200 C 131.104004 200 132 199.104004 132 198 C 132 196.895996 131.104004 196 130 196 C 128.895996 196 128 196.895996 128 198 C 128 199.104004 128.895996 200 130 200"/>
    <path id="path152" fill="#ffffff" stroke="none" d="M 130 208 C 131.104004 208 132 207.104004 132 206 C 132 204.895996 131.104004 204 130 204 C 128.895996 204 128 204.895996 128 206 C 128 207.104004 128.895996 208 130 208"/>
    <path id="path153" fill="#ffffff" stroke="none" d="M 130 216 C 131.104004 216 132 215.104004 132 214 C 132 212.895996 131.104004 212 130 212 C 128.895996 212 128 212.895996 128 214 C 128 215.104004 128.895996 216 130 216"/>
    <path id="path154" fill="#ffffff" stroke="none" d="M 130 224 C 131.104004 224 132 223.104004 132 222 C 132 220.895996 131.104004 220 130 220 C 128.895996 220 128 220.895996 128 222 C 128 223.104004 128.895996 224 130 224"/>
    <path id="path155" fill="#ffffff" stroke="none" d="M 122 120 C 123.103996 120 124 119.104004 124 118 C 124 116.895996 123.103996 116 122 116 C 120.896004 116 120 116.895996 120 118 C 120 119.104004 120.896004 120 122 120"/>
    <path id="path156" fill="#ffffff" stroke="none" d="M 122 128 C 123.103996 128 124 127.104004 124 126 C 124 124.895996 123.103996 124 122 124 C 120.896004 124 120 124.895996 120 126 C 120 127.104004 120.896004 128 122 128"/>
    <path id="path157" fill="#ffffff" stroke="none" d="M 122 136 C 123.103996 136 124 135.104004 124 134 C 124 132.895996 123.103996 132 122 132 C 120.896004 132 120 132.895996 120 134 C 120 135.104004 120.896004 136 122 136"/>
    <path id="path158" fill="#ffffff" stroke="none" d="M 122 144 C 123.103996 144 124 143.104004 124 142 C 124 140.895996 123.103996 140 122 140 C 120.896004 140 120 140.895996 120 142 C 120 143.104004 120.896004 144 122 144"/>
    <path id="path159" fill="#ffffff" stroke="none" d="M 122 152 C 123.103996 152 124 151.104004 124 150 C 124 148.895996 123.103996 148 122 148 C 120.896004 148 120 148.895996 120 150 C 120 151.104004 120.896004 152 122 152"/>
    <path id="path160" fill="#ffffff" stroke="none" d="M 122 160 C 123.103996 160 124 159.104004 124 158 C 124 156.895996 123.103996 156 122 156 C 120.896004 156 120 156.895996 120 158 C 120 159.104004 120.896004 160 122 160"/>
    <path id="path161" fill="#ffffff" stroke="none" d="M 122 168 C 123.103996 168 124 167.104004 124 166 C 124 164.895996 123.103996 164 122 164 C 120.896004 164 120 164.895996 120 166 C 120 167.104004 120.896004 168 122 168"/>
    <path id="path162" fill="#ffffff" stroke="none" d="M 122 176 C 123.103996 176 124 175.104004 124 174 C 124 172.895996 123.103996 172 122 172 C 120.896004 172 120 172.895996 120 174 C 120 175.104004 120.896004 176 122 176"/>
    <path id="path163" fill="#ffffff" stroke="none" d="M 122 184 C 123.103996 184 124 183.104004 124 182 C 124 180.895996 123.103996 180 122 180 C 120.896004 180 120 180.895996 120 182 C 120 183.104004 120.896004 184 122 184"/>
    <path id="path164" fill="#ffffff" stroke="none" d="M 122 192 C 123.103996 192 124 191.104004 124 190 C 124 188.895996 123.103996 188 122 188 C 120.896004 188 120 188.895996 120 190 C 120 191.104004 120.896004 192 122 192"/>
    <path id="path165" fill="#ffffff" stroke="none" d="M 122 200 C 123.103996 200 124 199.104004 124 198 C 124 196.895996 123.103996 196 122 196 C 120.896004 196 120 196.895996 120 198 C 120 199.104004 120.896004 200 122 200"/>
    <path id="path166" fill="#ffffff" stroke="none" d="M 122 208 C 123.103996 208 124 207.104004 124 206 C 124 204.895996 123.103996 204 122 204 C 120.896004 204 120 204.895996 120 206 C 120 207.104004 120.896004 208 122 208"/>
    <path id="path167" fill="#ffffff" stroke="none" d="M 122 216 C 123.103996 216 124 215.104004 124 214 C 124 212.895996 123.103996 212 122 212 C 120.896004 212 120 212.895996 120 214 C 120 215.104004 120.896004 216 122 216"/>
    <path id="path168" fill="#ffffff" stroke="none" d="M 122 224 C 123.103996 224 124 223.104004 124 222 C 124 220.895996 123.103996 220 122 220 C 120.896004 220 120 220.895996 120 222 C 120 223.104004 120.896004 224 122 224"/>
    <path id="path169" fill="#ffffff" stroke="none" d="M 114 120 C 115.103996 120 116 119.104004 116 118 C 116 116.895996 115.103996 116 114 116 C 112.896004 116 112 116.895996 112 118 C 112 119.104004 112.896004 120 114 120"/>
    <path id="path170" fill="#ffffff" stroke="none" d="M 114 128 C 115.103996 128 116 127.104004 116 126 C 116 124.895996 115.103996 124 114 124 C 112.896004 124 112 124.895996 112 126 C 112 127.104004 112.896004 128 114 128"/>
    <path id="path171" fill="#ffffff" stroke="none" d="M 114 136 C 115.103996 136 116 135.104004 116 134 C 116 132.895996 115.103996 132 114 132 C 112.896004 132 112 132.895996 112 134 C 112 135.104004 112.896004 136 114 136"/>
    <path id="path172" fill="#ffffff" stroke="none" d="M 114 144 C 115.103996 144 116 143.104004 116 142 C 116 140.895996 115.103996 140 114 140 C 112.896004 140 112 140.895996 112 142 C 112 143.104004 112.896004 144 114 144"/>
    <path id="path173" fill="#ffffff" stroke="none" d="M 114 152 C 115.103996 152 116 151.104004 116 150 C 116 148.895996 115.103996 148 114 148 C 112.896004 148 112 148.895996 112 150 C 112 151.104004 112.896004 152 114 152"/>
    <path id="path174" fill="#ffffff" stroke="none" d="M 114 160 C 115.103996 160 116 159.104004 116 158 C 116 156.895996 115.103996 156 114 156 C 112.896004 156 112 156.895996 112 158 C 112 159.104004 112.896004 160 114 160"/>
    <path id="path175" fill="#ffffff" stroke="none" d="M 114 168 C 115.103996 168 116 167.104004 116 166 C 116 164.895996 115.103996 164 114 164 C 112.896004 164 112 164.895996 112 166 C 112 167.104004 112.896004 168 114 168"/>
    <path id="path176" fill="#ffffff" stroke="none" d="M 114 176 C 115.103996 176 116 175.104004 116 174 C 116 172.895996 115.103996 172 114 172 C 112.896004 172 112 172.895996 112 174 C 112 175.104004 112.896004 176 114 176"/>
    <path id="path177" fill="#ffffff" stroke="none" d="M 114 184 C 115.103996 184 116 183.104004 116 182 C 116 180.895996 115.103996 180 114 180 C 112.896004 180 112 180.895996 112 182 C 112 183.104004 112.896004 184 114 184"/>
    <path id="path178" fill="#ffffff" stroke="none" d="M 114 192 C 115.103996 192 116 191.104004 116 190 C 116 188.895996 115.103996 188 114 188 C 112.896004 188 112 188.895996 112 190 C 112 191.104004 112.896004 192 114 192"/>
    <path id="path179" fill="#ffffff" stroke="none" d="M 114 200 C 115.103996 200 116 199.104004 116 198 C 116 196.895996 115.103996 196 114 196 C 112.896004 196 112 196.895996 112 198 C 112 199.104004 112.896004 200 114 200"/>
    <path id="path180" fill="#ffffff" stroke="none" d="M 114 208 C 115.103996 208 116 207.104004 116 206 C 116 204.895996 115.103996 204 114 204 C 112.896004 204 112 204.895996 112 206 C 112 207.104004 112.896004 208 114 208"/>
    <path id="path181" fill="#ffffff" stroke="none" d="M 114 216 C 115.103996 216 116 215.104004 116 214 C 116 212.895996 115.103996 212 114 212 C 112.896004 212 112 212.895996 112 214 C 112 215.104004 112.896004 216 114 216"/>
    <path id="path182" fill="#ffffff" stroke="none" d="M 114 224 C 115.103996 224 116 223.104004 116 222 C 116 220.895996 115.103996 220 114 220 C 112.896004 220 112 220.895996 112 222 C 112 223.104004 112.896004 224 114 224"/>
    <path id="path183" fill="#ffffff" stroke="none" d="M 106 120 C 107.103996 120 108 119.104004 108 118 C 108 116.895996 107.103996 116 106 116 C 104.896004 116 104 116.895996 104 118 C 104 119.104004 104.896004 120 106 120"/>
    <path id="path184" fill="#ffffff" stroke="none" d="M 106 128 C 107.103996 128 108 127.104004 108 126 C 108 124.895996 107.103996 124 106 124 C 104.896004 124 104 124.895996 104 126 C 104 127.104004 104.896004 128 106 128"/>
    <path id="path185" fill="#ffffff" stroke="none" d="M 106 136 C 107.103996 136 108 135.104004 108 134 C 108 132.895996 107.103996 132 106 132 C 104.896004 132 104 132.895996 104 134 C 104 135.104004 104.896004 136 106 136"/>
    <path id="path186" fill="#ffffff" stroke="none" d="M 106 144 C 107.103996 144 108 143.104004 108 142 C 108 140.895996 107.103996 140 106 140 C 104.896004 140 104 140.895996 104 142 C 104 143.104004 104.896004 144 106 144"/>
    <path id="path187" fill="#ffffff" stroke="none" d="M 106 152 C 107.103996 152 108 151.104004 108 150 C 108 148.895996 107.103996 148 106 148 C 104.896004 148 104 148.895996 104 150 C 104 151.104004 104.896004 152 106 152"/>
    <path id="path188" fill="#ffffff" stroke="none" d="M 106 160 C 107.103996 160 108 159.104004 108 158 C 108 156.895996 107.103996 156 106 156 C 104.896004 156 104 156.895996 104 158 C 104 159.104004 104.896004 160 106 160"/>
    <path id="path189" fill="#ffffff" stroke="none" d="M 106 168 C 107.103996 168 108 167.104004 108 166 C 108 164.895996 107.103996 164 106 164 C 104.896004 164 104 164.895996 104 166 C 104 167.104004 104.896004 168 106 168"/>
    <path id="path190" fill="#ffffff" stroke="none" d="M 106 176 C 107.103996 176 108 175.104004 108 174 C 108 172.895996 107.103996 172 106 172 C 104.896004 172 104 172.895996 104 174 C 104 175.104004 104.896004 176 106 176"/>
    <path id="path191" fill="#ffffff" stroke="none" d="M 106 184 C 107.103996 184 108 183.104004 108 182 C 108 180.895996 107.103996 180 106 180 C 104.896004 180 104 180.895996 104 182 C 104 183.104004 104.896004 184 106 184"/>
    <path id="path192" fill="#ffffff" stroke="none" d="M 106 192 C 107.103996 192 108 191.104004 108 190 C 108 188.895996 107.103996 188 106 188 C 104.896004 188 104 188.895996 104 190 C 104 191.104004 104.896004 192 106 192"/>
    <path id="path193" fill="#ffffff" stroke="none" d="M 106 200 C 107.103996 200 108 199.104004 108 198 C 108 196.895996 107.103996 196 106 196 C 104.896004 196 104 196.895996 104 198 C 104 199.104004 104.896004 200 106 200"/>
    <path id="path194" fill="#ffffff" stroke="none" d="M 106 208 C 107.103996 208 108 207.104004 108 206 C 108 204.895996 107.103996 204 106 204 C 104.896004 204 104 204.895996 104 206 C 104 207.104004 104.896004 208 106 208"/>
    <path id="path195" fill="#ffffff" stroke="none" d="M 106 216 C 107.103996 216 108 215.104004 108 214 C 108 212.895996 107.103996 212 106 212 C 104.896004 212 104 212.895996 104 214 C 104 215.104004 104.896004 216 106 216"/>
    <path id="path196" fill="#ffffff" stroke="none" d="M 106 224 C 107.103996 224 108 223.104004 108 222 C 108 220.895996 107.103996 220 106 220 C 104.896004 220 104 220.895996 104 222 C 104 223.104004 104.896004 224 106 224"/>
    <path id="path197" fill="#ffffff" stroke="none" d="M 98 120 C 99.103996 120 100 119.104004 100 118 C 100 116.895996 99.103996 116 98 116 C 96.896004 116 96 116.895996 96 118 C 96 119.104004 96.896004 120 98 120"/>
    <path id="path198" fill="#ffffff" stroke="none" d="M 98 128 C 99.103996 128 100 127.104004 100 126 C 100 124.895996 99.103996 124 98 124 C 96.896004 124 96 124.895996 96 126 C 96 127.104004 96.896004 128 98 128"/>
    <path id="path199" fill="#ffffff" stroke="none" d="M 98 136 C 99.103996 136 100 135.104004 100 134 C 100 132.895996 99.103996 132 98 132 C 96.896004 132 96 132.895996 96 134 C 96 135.104004 96.896004 136 98 136"/>
    <path id="path200" fill="#ffffff" stroke="none" d="M 98 144 C 99.103996 144 100 143.104004 100 142 C 100 140.895996 99.103996 140 98 140 C 96.896004 140 96 140.895996 96 142 C 96 143.104004 96.896004 144 98 144"/>
    <path id="path201" fill="#ffffff" stroke="none" d="M 98 152 C 99.103996 152 100 151.104004 100 150 C 100 148.895996 99.103996 148 98 148 C 96.896004 148 96 148.895996 96 150 C 96 151.104004 96.896004 152 98 152"/>
    <path id="path202" fill="#ffffff" stroke="none" d="M 98 160 C 99.103996 160 100 159.104004 100 158 C 100 156.895996 99.103996 156 98 156 C 96.896004 156 96 156.895996 96 158 C 96 159.104004 96.896004 160 98 160"/>
    <path id="path203" fill="#ffffff" stroke="none" d="M 98 168 C 99.103996 168 100 167.104004 100 166 C 100 164.895996 99.103996 164 98 164 C 96.896004 164 96 164.895996 96 166 C 96 167.104004 96.896004 168 98 168"/>
    <path id="path204" fill="#ffffff" stroke="none" d="M 98 176 C 99.103996 176 100 175.104004 100 174 C 100 172.895996 99.103996 172 98 172 C 96.896004 172 96 172.895996 96 174 C 96 175.104004 96.896004 176 98 176"/>
    <path id="path205" fill="#ffffff" stroke="none" d="M 98 184 C 99.103996 184 100 183.104004 100 182 C 100 180.895996 99.103996 180 98 180 C 96.896004 180 96 180.895996 96 182 C 96 183.104004 96.896004 184 98 184"/>
    <path id="path206" fill="#ffffff" stroke="none" d="M 98 192 C 99.103996 192 100 191.104004 100 190 C 100 188.895996 99.103996 188 98 188 C 96.896004 188 96 188.895996 96 190 C 96 191.104004 96.896004 192 98 192"/>
    <path id="path207" fill="#ffffff" stroke="none" d="M 98 200 C 99.103996 200 100 199.104004 100 198 C 100 196.895996 99.103996 196 98 196 C 96.896004 196 96 196.895996 96 198 C 96 199.104004 96.896004 200 98 200"/>
    <path id="path208" fill="#ffffff" stroke="none" d="M 98 208 C 99.103996 208 100 207.104004 100 206 C 100 204.895996 99.103996 204 98 204 C 96.896004 204 96 204.895996 96 206 C 96 207.104004 96.896004 208 98 208"/>
    <path id="path209" fill="#ffffff" stroke="none" d="M 98 216 C 99.103996 216 100 215.104004 100 214 C 100 212.895996 99.103996 212 98 212 C 96.896004 212 96 212.895996 96 214 C 96 215.104004 96.896004 216 98 216"/>
    <path id="path210" fill="#ffffff" stroke="none" d="M 98 224 C 99.103996 224 100 223.104004 100 222 C 100 220.895996 99.103996 220 98 220 C 96.896004 220 96 220.895996 96 222 C 96 223.104004 96.896004 224 98 224"/>
    <path id="path211" fill="#ffffff" stroke="none" d="M 90 120 C 91.103996 120 92 119.104004 92 118 C 92 116.895996 91.103996 116 90 116 C 88.896004 116 88 116.895996 88 118 C 88 119.104004 88.896004 120 90 120"/>
    <path id="path212" fill="#ffffff" stroke="none" d="M 90 128 C 91.103996 128 92 127.104004 92 126 C 92 124.895996 91.103996 124 90 124 C 88.896004 124 88 124.895996 88 126 C 88 127.104004 88.896004 128 90 128"/>
    <path id="path213" fill="#ffffff" stroke="none" d="M 90 136 C 91.103996 136 92 135.104004 92 134 C 92 132.895996 91.103996 132 90 132 C 88.896004 132 88 132.895996 88 134 C 88 135.104004 88.896004 136 90 136"/>
    <path id="path214" fill="#ffffff" stroke="none" d="M 90 144 C 91.103996 144 92 143.104004 92 142 C 92 140.895996 91.103996 140 90 140 C 88.896004 140 88 140.895996 88 142 C 88 143.104004 88.896004 144 90 144"/>
    <path id="path215" fill="#ffffff" stroke="none" d="M 90 152 C 91.103996 152 92 151.104004 92 150 C 92 148.895996 91.103996 148 90 148 C 88.896004 148 88 148.895996 88 150 C 88 151.104004 88.896004 152 90 152"/>
    <path id="path216" fill="#ffffff" stroke="none" d="M 90 160 C 91.103996 160 92 159.104004 92 158 C 92 156.895996 91.103996 156 90 156 C 88.896004 156 88 156.895996 88 158 C 88 159.104004 88.896004 160 90 160"/>
    <path id="path217" fill="#ffffff" stroke="none" d="M 90 168 C 91.103996 168 92 167.104004 92 166 C 92 164.895996 91.103996 164 90 164 C 88.896004 164 88 164.895996 88 166 C 88 167.104004 88.896004 168 90 168"/>
    <path id="path218" fill="#ffffff" stroke="none" d="M 90 176 C 91.103996 176 92 175.104004 92 174 C 92 172.895996 91.103996 172 90 172 C 88.896004 172 88 172.895996 88 174 C 88 175.104004 88.896004 176 90 176"/>
    <path id="path219" fill="#ffffff" stroke="none" d="M 90 184 C 91.103996 184 92 183.104004 92 182 C 92 180.895996 91.103996 180 90 180 C 88.896004 180 88 180.895996 88 182 C 88 183.104004 88.896004 184 90 184"/>
    <path id="path220" fill="#ffffff" stroke="none" d="M 90 192 C 91.103996 192 92 191.104004 92 190 C 92 188.895996 91.103996 188 90 188 C 88.896004 188 88 188.895996 88 190 C 88 191.104004 88.896004 192 90 192"/>
    <path id="path221" fill="#ffffff" stroke="none" d="M 90 200 C 91.103996 200 92 199.104004 92 198 C 92 196.895996 91.103996 196 90 196 C 88.896004 196 88 196.895996 88 198 C 88 199.104004 88.896004 200 90 200"/>
    <path id="path222" fill="#ffffff" stroke="none" d="M 90 208 C 91.103996 208 92 207.104004 92 206 C 92 204.895996 91.103996 204 90 204 C 88.896004 204 88 204.895996 88 206 C 88 207.104004 88.896004 208 90 208"/>
    <path id="path223" fill="#ffffff" stroke="none" d="M 90 216 C 91.103996 216 92 215.104004 92 214 C 92 212.895996 91.103996 212 90 212 C 88.896004 212 88 212.895996 88 214 C 88 215.104004 88.896004 216 90 216"/>
    <path id="path224" fill="#ffffff" stroke="none" d="M 90 224 C 91.103996 224 92 223.104004 92 222 C 92 220.895996 91.103996 220 90 220 C 88.896004 220 88 220.895996 88 222 C 88 223.104004 88.896004 224 90 224"/>
    <path id="path225" fill="#ffffff" stroke="none" d="M 82 120 C 83.103996 120 84 119.104004 84 118 C 84 116.895996 83.103996 116 82 116 C 80.896004 116 80 116.895996 80 118 C 80 119.104004 80.896004 120 82 120"/>
    <path id="path226" fill="#ffffff" stroke="none" d="M 82 128 C 83.103996 128 84 127.104004 84 126 C 84 124.895996 83.103996 124 82 124 C 80.896004 124 80 124.895996 80 126 C 80 127.104004 80.896004 128 82 128"/>
    <path id="path227" fill="#ffffff" stroke="none" d="M 82 136 C 83.103996 136 84 135.104004 84 134 C 84 132.895996 83.103996 132 82 132 C 80.896004 132 80 132.895996 80 134 C 80 135.104004 80.896004 136 82 136"/>
    <path id="path228" fill="#ffffff" stroke="none" d="M 82 144 C 83.103996 144 84 143.104004 84 142 C 84 140.895996 83.103996 140 82 140 C 80.896004 140 80 140.895996 80 142 C 80 143.104004 80.896004 144 82 144"/>
    <path id="path229" fill="#ffffff" stroke="none" d="M 82 152 C 83.103996 152 84 151.104004 84 150 C 84 148.895996 83.103996 148 82 148 C 80.896004 148 80 148.895996 80 150 C 80 151.104004 80.896004 152 82 152"/>
    <path id="path230" fill="#ffffff" stroke="none" d="M 82 160 C 83.103996 160 84 159.104004 84 158 C 84 156.895996 83.103996 156 82 156 C 80.896004 156 80 156.895996 80 158 C 80 159.104004 80.896004 160 82 160"/>
    <path id="path231" fill="#ffffff" stroke="none" d="M 82 168 C 83.103996 168 84 167.104004 84 166 C 84 164.895996 83.103996 164 82 164 C 80.896004 164 80 164.895996 80 166 C 80 167.104004 80.896004 168 82 168"/>
    <path id="path232" fill="#ffffff" stroke="none" d="M 82 176 C 83.103996 176 84 175.104004 84 174 C 84 172.895996 83.103996 172 82 172 C 80.896004 172 80 172.895996 80 174 C 80 175.104004 80.896004 176 82 176"/>
    <path id="path233" fill="#ffffff" stroke="none" d="M 82 184 C 83.103996 184 84 183.104004 84 182 C 84 180.895996 83.103996 180 82 180 C 80.896004 180 80 180.895996 80 182 C 80 183.104004 80.896004 184 82 184"/>
    <path id="path234" fill="#ffffff" stroke="none" d="M 82 192 C 83.103996 192 84 191.104004 84 190 C 84 188.895996 83.103996 188 82 188 C 80.896004 188 80 188.895996 80 190 C 80 191.104004 80.896004 192 82 192"/>
    <path id="path235" fill="#ffffff" stroke="none" d="M 82 200 C 83.103996 200 84 199.104004 84 198 C 84 196.895996 83.103996 196 82 196 C 80.896004 196 80 196.895996 80 198 C 80 199.104004 80.896004 200 82 200"/>
    <path id="path236" fill="#ffffff" stroke="none" d="M 82 208 C 83.103996 208 84 207.104004 84 206 C 84 204.895996 83.103996 204 82 204 C 80.896004 204 80 204.895996 80 206 C 80 207.104004 80.896004 208 82 208"/>
    <path id="path237" fill="#ffffff" stroke="none" d="M 82 216 C 83.103996 216 84 215.104004 84 214 C 84 212.895996 83.103996 212 82 212 C 80.896004 212 80 212.895996 80 214 C 80 215.104004 80.896004 216 82 216"/>
    <path id="path238" fill="#ffffff" stroke="none" d="M 82 224 C 83.103996 224 84 223.104004 84 222 C 84 220.895996 83.103996 220 82 220 C 80.896004 220 80 220.895996 80 222 C 80 223.104004 80.896004 224 82 224"/>
    <path id="path239" fill="#ffffff" stroke="none" d="M 74 120 C 75.103996 120 76 119.104004 76 118 C 76 116.895996 75.103996 116 74 116 C 72.896004 116 72 116.895996 72 118 C 72 119.104004 72.896004 120 74 120"/>
    <path id="path240" fill="#ffffff" stroke="none" d="M 74 128 C 75.103996 128 76 127.104004 76 126 C 76 124.895996 75.103996 124 74 124 C 72.896004 124 72 124.895996 72 126 C 72 127.104004 72.896004 128 74 128"/>
    <path id="path241" fill="#ffffff" stroke="none" d="M 74 136 C 75.103996 136 76 135.104004 76 134 C 76 132.895996 75.103996 132 74 132 C 72.896004 132 72 132.895996 72 134 C 72 135.104004 72.896004 136 74 136"/>
    <path id="path242" fill="#ffffff" stroke="none" d="M 74 144 C 75.103996 144 76 143.104004 76 142 C 76 140.895996 75.103996 140 74 140 C 72.896004 140 72 140.895996 72 142 C 72 143.104004 72.896004 144 74 144"/>
    <path id="path243" fill="#ffffff" stroke="none" d="M 74 152 C 75.103996 152 76 151.104004 76 150 C 76 148.895996 75.103996 148 74 148 C 72.896004 148 72 148.895996 72 150 C 72 151.104004 72.896004 152 74 152"/>
    <path id="path244" fill="#ffffff" stroke="none" d="M 74 160 C 75.103996 160 76 159.104004 76 158 C 76 156.895996 75.103996 156 74 156 C 72.896004 156 72 156.895996 72 158 C 72 159.104004 72.896004 160 74 160"/>
    <path id="path245" fill="#ffffff" stroke="none" d="M 74 168 C 75.103996 168 76 167.104004 76 166 C 76 164.895996 75.103996 164 74 164 C 72.896004 164 72 164.895996 72 166 C 72 167.104004 72.896004 168 74 168"/>
    <path id="path246" fill="#ffffff" stroke="none" d="M 74 176 C 75.103996 176 76 175.104004 76 174 C 76 172.895996 75.103996 172 74 172 C 72.896004 172 72 172.895996 72 174 C 72 175.104004 72.896004 176 74 176"/>
    <path id="path247" fill="#ffffff" stroke="none" d="M 74 184 C 75.103996 184 76 183.104004 76 182 C 76 180.895996 75.103996 180 74 180 C 72.896004 180 72 180.895996 72 182 C 72 183.104004 72.896004 184 74 184"/>
    <path id="path248" fill="#ffffff" stroke="none" d="M 74 192 C 75.103996 192 76 191.104004 76 190 C 76 188.895996 75.103996 188 74 188 C 72.896004 188 72 188.895996 72 190 C 72 191.104004 72.896004 192 74 192"/>
    <path id="path249" fill="#ffffff" stroke="none" d="M 74 200 C 75.103996 200 76 199.104004 76 198 C 76 196.895996 75.103996 196 74 196 C 72.896004 196 72 196.895996 72 198 C 72 199.104004 72.896004 200 74 200"/>
    <path id="path250" fill="#ffffff" stroke="none" d="M 74 208 C 75.103996 208 76 207.104004 76 206 C 76 204.895996 75.103996 204 74 204 C 72.896004 204 72 204.895996 72 206 C 72 207.104004 72.896004 208 74 208"/>
    <path id="path251" fill="#ffffff" stroke="none" d="M 74 216 C 75.103996 216 76 215.104004 76 214 C 76 212.895996 75.103996 212 74 212 C 72.896004 212 72 212.895996 72 214 C 72 215.104004 72.896004 216 74 216"/>
    <path id="path252" fill="#ffffff" stroke="none" d="M 74 224 C 75.103996 224 76 223.104004 76 222 C 76 220.895996 75.103996 220 74 220 C 72.896004 220 72 220.895996 72 222 C 72 223.104004 72.896004 224 74 224"/>
    <path id="path253" fill="#ffffff" stroke="none" d="M 66 120 C 67.103996 120 68 119.104004 68 118 C 68 116.895996 67.103996 116 66 116 C 64.896004 116 64 116.895996 64 118 C 64 119.104004 64.896004 120 66 120"/>
    <path id="path254" fill="#ffffff" stroke="none" d="M 66 128 C 67.103996 128 68 127.104004 68 126 C 68 124.895996 67.103996 124 66 124 C 64.896004 124 64 124.895996 64 126 C 64 127.104004 64.896004 128 66 128"/>
    <path id="path255" fill="#ffffff" stroke="none" d="M 66 136 C 67.103996 136 68 135.104004 68 134 C 68 132.895996 67.103996 132 66 132 C 64.896004 132 64 132.895996 64 134 C 64 135.104004 64.896004 136 66 136"/>
    <path id="path256" fill="#ffffff" stroke="none" d="M 66 144 C 67.103996 144 68 143.104004 68 142 C 68 140.895996 67.103996 140 66 140 C 64.896004 140 64 140.895996 64 142 C 64 143.104004 64.896004 144 66 144"/>
    <path id="path257" fill="#ffffff" stroke="none" d="M 66 152 C 67.103996 152 68 151.104004 68 150 C 68 148.895996 67.103996 148 66 148 C 64.896004 148 64 148.895996 64 150 C 64 151.104004 64.896004 152 66 152"/>
    <path id="path258" fill="#ffffff" stroke="none" d="M 66 160 C 67.103996 160 68 159.104004 68 158 C 68 156.895996 67.103996 156 66 156 C 64.896004 156 64 156.895996 64 158 C 64 159.104004 64.896004 160 66 160"/>
    <path id="path259" fill="#ffffff" stroke="none" d="M 66 168 C 67.103996 168 68 167.104004 68 166 C 68 164.895996 67.103996 164 66 164 C 64.896004 164 64 164.895996 64 166 C 64 167.104004 64.896004 168 66 168"/>
    <path id="path260" fill="#ffffff" stroke="none" d="M 66 176 C 67.103996 176 68 175.104004 68 174 C 68 172.895996 67.103996 172 66 172 C 64.896004 172 64 172.895996 64 174 C 64 175.104004 64.896004 176 66 176"/>
    <path id="path261" fill="#ffffff" stroke="none" d="M 66 184 C 67.103996 184 68 183.104004 68 182 C 68 180.895996 67.103996 180 66 180 C 64.896004 180 64 180.895996 64 182 C 64 183.104004 64.896004 184 66 184"/>
    <path id="path262" fill="#ffffff" stroke="none" d="M 66 192 C 67.103996 192 68 191.104004 68 190 C 68 188.895996 67.103996 188 66 188 C 64.896004 188 64 188.895996 64 190 C 64 191.104004 64.896004 192 66 192"/>
    <path id="path263" fill="#ffffff" stroke="none" d="M 66 200 C 67.103996 200 68 199.104004 68 198 C 68 196.895996 67.103996 196 66 196 C 64.896004 196 64 196.895996 64 198 C 64 199.104004 64.896004 200 66 200"/>
    <path id="path264" fill="#ffffff" stroke="none" d="M 66 208 C 67.103996 208 68 207.104004 68 206 C 68 204.895996 67.103996 204 66 204 C 64.896004 204 64 204.895996 64 206 C 64 207.104004 64.896004 208 66 208"/>
    <path id="path265" fill="#ffffff" stroke="none" d="M 66 216 C 67.103996 216 68 215.104004 68 214 C 68 212.895996 67.103996 212 66 212 C 64.896004 212 64 212.895996 64 214 C 64 215.104004 64.896004 216 66 216"/>
    <path id="path266" fill="#ffffff" stroke="none" d="M 66 224 C 67.103996 224 68 223.104004 68 222 C 68 220.895996 67.103996 220 66 220 C 64.896004 220 64 220.895996 64 222 C 64 223.104004 64.896004 224 66 224"/>
    <path id="path267" fill="#ffffff" stroke="none" d="M 58 120 C 59.104 120 60 119.104004 60 118 C 60 116.895996 59.104 116 58 116 C 56.896 116 56 116.895996 56 118 C 56 119.104004 56.896 120 58 120"/>
    <path id="path268" fill="#ffffff" stroke="none" d="M 58 128 C 59.104 128 60 127.104004 60 126 C 60 124.895996 59.104 124 58 124 C 56.896 124 56 124.895996 56 126 C 56 127.104004 56.896 128 58 128"/>
    <path id="path269" fill="#ffffff" stroke="none" d="M 58 136 C 59.104 136 60 135.104004 60 134 C 60 132.895996 59.104 132 58 132 C 56.896 132 56 132.895996 56 134 C 56 135.104004 56.896 136 58 136"/>
    <path id="path270" fill="#ffffff" stroke="none" d="M 58 144 C 59.104 144 60 143.104004 60 142 C 60 140.895996 59.104 140 58 140 C 56.896 140 56 140.895996 56 142 C 56 143.104004 56.896 144 58 144"/>
    <path id="path271" fill="#ffffff" stroke="none" d="M 58 152 C 59.104 152 60 151.104004 60 150 C 60 148.895996 59.104 148 58 148 C 56.896 148 56 148.895996 56 150 C 56 151.104004 56.896 152 58 152"/>
    <path id="path272" fill="#ffffff" stroke="none" d="M 58 160 C 59.104 160 60 159.104004 60 158 C 60 156.895996 59.104 156 58 156 C 56.896 156 56 156.895996 56 158 C 56 159.104004 56.896 160 58 160"/>
    <path id="path273" fill="#ffffff" stroke="none" d="M 58 168 C 59.104 168 60 167.104004 60 166 C 60 164.895996 59.104 164 58 164 C 56.896 164 56 164.895996 56 166 C 56 167.104004 56.896 168 58 168"/>
    <path id="path274" fill="#ffffff" stroke="none" d="M 58 176 C 59.104 176 60 175.104004 60 174 C 60 172.895996 59.104 172 58 172 C 56.896 172 56 172.895996 56 174 C 56 175.104004 56.896 176 58 176"/>
    <path id="path275" fill="#ffffff" stroke="none" d="M 58 184 C 59.104 184 60 183.104004 60 182 C 60 180.895996 59.104 180 58 180 C 56.896 180 56 180.895996 56 182 C 56 183.104004 56.896 184 58 184"/>
    <path id="path276" fill="#ffffff" stroke="none" d="M 58 192 C 59.104 192 60 191.104004 60 190 C 60 188.895996 59.104 188 58 188 C 56.896 188 56 188.895996 56 190 C 56 191.104004 56.896 192 58 192"/>
    <path id="path277" fill="#ffffff" stroke="none" d="M 58 200 C 59.104 200 60 199.104004 60 198 C 60 196.895996 59.104 196 58 196 C 56.896 196 56 196.895996 56 198 C 56 199.104004 56.896 200 58 200"/>
    <path id="path278" fill="#ffffff" stroke="none" d="M 58 208 C 59.104 208 60 207.104004 60 206 C 60 204.895996 59.104 204 58 204 C 56.896 204 56 204.895996 56 206 C 56 207.104004 56.896 208 58 208"/>
    <path id="path279" fill="#ffffff" stroke="none" d="M 58 216 C 59.104 216 60 215.104004 60 214 C 60 212.895996 59.104 212 58 212 C 56.896 212 56 212.895996 56 214 C 56 215.104004 56.896 216 58 216"/>
    <path id="path280" fill="#ffffff" stroke="none" d="M 58 224 C 59.104 224 60 223.104004 60 222 C 60 220.895996 59.104 220 58 220 C 56.896 220 56 220.895996 56 222 C 56 223.104004 56.896 224 58 224"/>
    <path id="path281" fill="#ffffff" stroke="none" d="M 50 120 C 51.104 120 52 119.104004 52 118 C 52 116.895996 51.104 116 50 116 C 48.896 116 48 116.895996 48 118 C 48 119.104004 48.896 120 50 120"/>
    <path id="path282" fill="#ffffff" stroke="none" d="M 50 128 C 51.104 128 52 127.104004 52 126 C 52 124.895996 51.104 124 50 124 C 48.896 124 48 124.895996 48 126 C 48 127.104004 48.896 128 50 128"/>
    <path id="path283" fill="#ffffff" stroke="none" d="M 50 136 C 51.104 136 52 135.104004 52 134 C 52 132.895996 51.104 132 50 132 C 48.896 132 48 132.895996 48 134 C 48 135.104004 48.896 136 50 136"/>
    <path id="path284" fill="#ffffff" stroke="none" d="M 50 144 C 51.104 144 52 143.104004 52 142 C 52 140.895996 51.104 140 50 140 C 48.896 140 48 140.895996 48 142 C 48 143.104004 48.896 144 50 144"/>
    <path id="path285" fill="#ffffff" stroke="none" d="M 50 152 C 51.104 152 52 151.104004 52 150 C 52 148.895996 51.104 148 50 148 C 48.896 148 48 148.895996 48 150 C 48 151.104004 48.896 152 50 152"/>
    <path id="path286" fill="#ffffff" stroke="none" d="M 50 160 C 51.104 160 52 159.104004 52 158 C 52 156.895996 51.104 156 50 156 C 48.896 156 48 156.895996 48 158 C 48 159.104004 48.896 160 50 160"/>
    <path id="path287" fill="#ffffff" stroke="none" d="M 50 168 C 51.104 168 52 167.104004 52 166 C 52 164.895996 51.104 164 50 164 C 48.896 164 48 164.895996 48 166 C 48 167.104004 48.896 168 50 168"/>
    <path id="path288" fill="#ffffff" stroke="none" d="M 50 176 C 51.104 176 52 175.104004 52 174 C 52 172.895996 51.104 172 50 172 C 48.896 172 48 172.895996 48 174 C 48 175.104004 48.896 176 50 176"/>
    <path id="path289" fill="#ffffff" stroke="none" d="M 50 184 C 51.104 184 52 183.104004 52 182 C 52 180.895996 51.104 180 50 180 C 48.896 180 48 180.895996 48 182 C 48 183.104004 48.896 184 50 184"/>
    <path id="path290" fill="#ffffff" stroke="none" d="M 50 192 C 51.104 192 52 191.104004 52 190 C 52 188.895996 51.104 188 50 188 C 48.896 188 48 188.895996 48 190 C 48 191.104004 48.896 192 50 192"/>
    <path id="path291" fill="#ffffff" stroke="none" d="M 50 200 C 51.104 200 52 199.104004 52 198 C 52 196.895996 51.104 196 50 196 C 48.896 196 48 196.895996 48 198 C 48 199.104004 48.896 200 50 200"/>
    <path id="path292" fill="#ffffff" stroke="none" d="M 50 208 C 51.104 208 52 207.104004 52 206 C 52 204.895996 51.104 204 50 204 C 48.896 204 48 204.895996 48 206 C 48 207.104004 48.896 208 50 208"/>
    <path id="path293" fill="#ffffff" stroke="none" d="M 50 216 C 51.104 216 52 215.104004 52 214 C 52 212.895996 51.104 212 50 212 C 48.896 212 48 212.895996 48 214 C 48 215.104004 48.896 216 50 216"/>
    <path id="path294" fill="#ffffff" stroke="none" d="M 50 224 C 51.104 224 52 223.104004 52 222 C 52 220.895996 51.104 220 50 220 C 48.896 220 48 220.895996 48 222 C 48 223.104004 48.896 224 50 224"/>
</svg>
