<?xml version="1.0" encoding="UTF-8"?>
<!-- Generated by Pixelmator Pro 3.7.1 -->
<svg width="256" height="256" viewBox="0 0 256 256" xmlns="http://www.w3.org/2000/svg">
    <path id="Path" fill="#ffffff" stroke="none" d="M 45.9067 241.802704 L 49.918701 132.391693 L 47.919701 24.418701 L 81.752701 24.418701 L 88.418701 24.418701 L 215.474686 24.418701 C 216.095688 24.418701 216.707687 24.563705 217.263687 24.841705 L 218.009689 25.214706 C 219.371689 25.895706 220.220688 27.285706 220.220688 28.79071 C 220.220688 28.894699 220.21669 28.99971 220.208694 29.104706 L 212.635696 125.6577 C 212.537689 126.906693 212.488693 128.158691 212.488693 129.410706 C 212.488693 130.002686 212.499695 130.595703 212.521698 131.187698 L 216.418686 236.418701 C 216.418686 236.418701 216.418686 244.418701 200.418686 244.418701 C 186.530685 244.418701 79.219696 244.418701 45.9067 241.802704 M 36.418701 237.2267 L 36.418701 236.418701 L 42.065701 136.092697 C 42.2127 134.565704 42.285702 133.031693 42.285702 131.498688 C 42.285702 130.576691 42.259701 129.655701 42.206699 128.734695 L 36.848701 35.865707 L 35.826698 27.381699 C 35.7967 27.263702 35.779701 27.138702 35.779701 27.010696 C 35.779701 25.859711 37.2187 24.418701 44.418701 24.418701 L 44.918701 24.418701 L 46.919701 132.363693 L 42.912701 241.539703 C 41.763699 241.426697 40.729698 241.310699 39.852699 241.187698 C 37.877701 240.912704 36.418701 239.220703 36.418701 237.2267 M 101.219696 14.819702 C 103.2967 13.260696 105.822701 12.418701 108.418701 12.418701 L 212.418686 12.418701 C 214.627686 12.418701 216.418686 14.209702 216.418686 16.418701 L 216.418686 20.4767 C 216.105698 20.439697 215.789688 20.418701 215.474686 20.418701 L 93.752701 20.418701 Z M 220.418686 236.418701 L 220.418686 236.344696 L 220.415695 236.271698 L 216.518692 131.038696 C 216.498688 130.495697 216.488693 129.953705 216.488693 129.410706 C 216.488693 128.2677 216.533691 127.109695 216.622696 125.969696 L 224.196686 29.417709 C 224.212692 29.206711 224.220688 28.998703 224.220688 28.79071 C 224.220688 25.984711 222.774689 23.453705 220.418686 22.002701 L 220.418686 16.418701 C 220.418686 12.007706 216.829697 8.418701 212.418686 8.418701 L 108.418701 8.418701 C 104.979698 8.418701 101.570702 9.55571 98.819695 11.618698 L 87.085701 20.418701 L 44.418701 20.418701 C 41.292702 20.418701 31.779699 20.418701 31.779699 27.010696 C 31.779699 27.3517 31.811699 27.695709 31.876699 28.034698 L 32.862701 36.219711 L 38.213699 128.964691 C 38.2617 129.804688 38.285702 130.656693 38.285702 131.498688 C 38.285702 132.899689 38.2187 134.316696 38.083698 135.709686 L 38.076698 135.788696 L 38.072701 135.867706 L 32.425701 236.194702 L 32.418701 236.306702 L 32.418701 236.418701 L 32.418701 237.2267 C 32.418701 241.197693 35.377701 244.603699 39.301701 245.149704 C 61.0937 248.183701 168.13269 248.418701 200.418686 248.418701 C 220.191696 248.418701 220.418686 236.908691 220.418686 236.418701"/>
    <path id="path1" fill="#ffffff" stroke="none" d="M 192.4189 34.4189 C 192.4189 35.522903 193.314896 36.4189 194.4189 36.4189 C 195.522903 36.4189 196.4189 35.522903 196.4189 34.4189 C 196.4189 33.314896 195.522903 32.4189 194.4189 32.4189 C 193.314896 32.4189 192.4189 33.314896 192.4189 34.4189"/>
    <path id="path2" fill="#ffffff" stroke="none" d="M 196.4189 42.4189 C 196.4189 41.314896 195.522903 40.4189 194.4189 40.4189 C 193.314896 40.4189 192.4189 41.314896 192.4189 42.4189 C 192.4189 43.522903 193.314896 44.4189 194.4189 44.4189 C 195.522903 44.4189 196.4189 43.522903 196.4189 42.4189"/>
    <path id="path3" fill="#ffffff" stroke="none" d="M 188.4189 38.4189 C 188.4189 39.522903 189.314896 40.4189 190.4189 40.4189 C 191.522903 40.4189 192.4189 39.522903 192.4189 38.4189 C 192.4189 37.314896 191.522903 36.4189 190.4189 36.4189 C 189.314896 36.4189 188.4189 37.314896 188.4189 38.4189"/>
    <path id="path4" fill="#ffffff" stroke="none" d="M 184.4189 34.4189 C 184.4189 35.522903 185.314896 36.4189 186.4189 36.4189 C 187.522903 36.4189 188.4189 35.522903 188.4189 34.4189 C 188.4189 33.314896 187.522903 32.4189 186.4189 32.4189 C 185.314896 32.4189 184.4189 33.314896 184.4189 34.4189"/>
    <path id="path5" fill="#ffffff" stroke="none" d="M 188.4189 42.4189 C 188.4189 41.314896 187.522903 40.4189 186.4189 40.4189 C 185.314896 40.4189 184.4189 41.314896 184.4189 42.4189 C 184.4189 43.522903 185.314896 44.4189 186.4189 44.4189 C 187.522903 44.4189 188.4189 43.522903 188.4189 42.4189"/>
    <path id="path6" fill="#ffffff" stroke="none" d="M 184.4189 38.4189 C 184.4189 37.314896 183.522903 36.4189 182.4189 36.4189 C 181.314896 36.4189 180.4189 37.314896 180.4189 38.4189 C 180.4189 39.522903 181.314896 40.4189 182.4189 40.4189 C 183.522903 40.4189 184.4189 39.522903 184.4189 38.4189"/>
    <path id="path7" fill="#ffffff" stroke="none" d="M 176.4189 34.4189 C 176.4189 35.522903 177.314896 36.4189 178.4189 36.4189 C 179.522903 36.4189 180.4189 35.522903 180.4189 34.4189 C 180.4189 33.314896 179.522903 32.4189 178.4189 32.4189 C 177.314896 32.4189 176.4189 33.314896 176.4189 34.4189"/>
    <path id="path8" fill="#ffffff" stroke="none" d="M 180.4189 42.4189 C 180.4189 41.314896 179.522903 40.4189 178.4189 40.4189 C 177.314896 40.4189 176.4189 41.314896 176.4189 42.4189 C 176.4189 43.522903 177.314896 44.4189 178.4189 44.4189 C 179.522903 44.4189 180.4189 43.522903 180.4189 42.4189"/>
    <path id="path9" fill="#ffffff" stroke="none" d="M 176.4189 38.4189 C 176.4189 37.314896 175.522903 36.4189 174.4189 36.4189 C 173.314896 36.4189 172.4189 37.314896 172.4189 38.4189 C 172.4189 39.522903 173.314896 40.4189 174.4189 40.4189 C 175.522903 40.4189 176.4189 39.522903 176.4189 38.4189"/>
    <path id="path10" fill="#ffffff" stroke="none" d="M 168.4189 34.4189 C 168.4189 35.522903 169.314896 36.4189 170.4189 36.4189 C 171.522903 36.4189 172.4189 35.522903 172.4189 34.4189 C 172.4189 33.314896 171.522903 32.4189 170.4189 32.4189 C 169.314896 32.4189 168.4189 33.314896 168.4189 34.4189"/>
    <path id="path11" fill="#ffffff" stroke="none" d="M 172.4189 42.4189 C 172.4189 41.314896 171.522903 40.4189 170.4189 40.4189 C 169.314896 40.4189 168.4189 41.314896 168.4189 42.4189 C 168.4189 43.522903 169.314896 44.4189 170.4189 44.4189 C 171.522903 44.4189 172.4189 43.522903 172.4189 42.4189"/>
    <path id="path12" fill="#ffffff" stroke="none" d="M 168.4189 38.4189 C 168.4189 37.314896 167.522903 36.4189 166.4189 36.4189 C 165.314896 36.4189 164.4189 37.314896 164.4189 38.4189 C 164.4189 39.522903 165.314896 40.4189 166.4189 40.4189 C 167.522903 40.4189 168.4189 39.522903 168.4189 38.4189"/>
    <path id="path13" fill="#ffffff" stroke="none" d="M 160.4189 34.4189 C 160.4189 35.522903 161.314896 36.4189 162.4189 36.4189 C 163.522903 36.4189 164.4189 35.522903 164.4189 34.4189 C 164.4189 33.314896 163.522903 32.4189 162.4189 32.4189 C 161.314896 32.4189 160.4189 33.314896 160.4189 34.4189"/>
    <path id="path14" fill="#ffffff" stroke="none" d="M 164.4189 42.4189 C 164.4189 41.314896 163.522903 40.4189 162.4189 40.4189 C 161.314896 40.4189 160.4189 41.314896 160.4189 42.4189 C 160.4189 43.522903 161.314896 44.4189 162.4189 44.4189 C 163.522903 44.4189 164.4189 43.522903 164.4189 42.4189"/>
    <path id="path15" fill="#ffffff" stroke="none" d="M 160.4189 38.4189 C 160.4189 37.314896 159.522903 36.4189 158.4189 36.4189 C 157.314896 36.4189 156.4189 37.314896 156.4189 38.4189 C 156.4189 39.522903 157.314896 40.4189 158.4189 40.4189 C 159.522903 40.4189 160.4189 39.522903 160.4189 38.4189"/>
    <path id="path16" fill="#ffffff" stroke="none" d="M 152.4189 34.4189 C 152.4189 35.522903 153.314896 36.4189 154.4189 36.4189 C 155.522903 36.4189 156.4189 35.522903 156.4189 34.4189 C 156.4189 33.314896 155.522903 32.4189 154.4189 32.4189 C 153.314896 32.4189 152.4189 33.314896 152.4189 34.4189"/>
    <path id="path17" fill="#ffffff" stroke="none" d="M 156.4189 42.4189 C 156.4189 41.314896 155.522903 40.4189 154.4189 40.4189 C 153.314896 40.4189 152.4189 41.314896 152.4189 42.4189 C 152.4189 43.522903 153.314896 44.4189 154.4189 44.4189 C 155.522903 44.4189 156.4189 43.522903 156.4189 42.4189"/>
    <path id="path18" fill="#ffffff" stroke="none" d="M 152.4189 38.4189 C 152.4189 37.314896 151.522903 36.4189 150.4189 36.4189 C 149.314896 36.4189 148.4189 37.314896 148.4189 38.4189 C 148.4189 39.522903 149.314896 40.4189 150.4189 40.4189 C 151.522903 40.4189 152.4189 39.522903 152.4189 38.4189"/>
    <path id="path19" fill="#ffffff" stroke="none" d="M 144.4189 34.4189 C 144.4189 35.522903 145.314896 36.4189 146.4189 36.4189 C 147.522903 36.4189 148.4189 35.522903 148.4189 34.4189 C 148.4189 33.314896 147.522903 32.4189 146.4189 32.4189 C 145.314896 32.4189 144.4189 33.314896 144.4189 34.4189"/>
    <path id="path20" fill="#ffffff" stroke="none" d="M 148.4189 42.4189 C 148.4189 41.314896 147.522903 40.4189 146.4189 40.4189 C 145.314896 40.4189 144.4189 41.314896 144.4189 42.4189 C 144.4189 43.522903 145.314896 44.4189 146.4189 44.4189 C 147.522903 44.4189 148.4189 43.522903 148.4189 42.4189"/>
    <path id="path21" fill="#ffffff" stroke="none" d="M 144.4189 38.4189 C 144.4189 37.314896 143.522903 36.4189 142.4189 36.4189 C 141.314896 36.4189 140.4189 37.314896 140.4189 38.4189 C 140.4189 39.522903 141.314896 40.4189 142.4189 40.4189 C 143.522903 40.4189 144.4189 39.522903 144.4189 38.4189"/>
    <path id="path22" fill="#ffffff" stroke="none" d="M 136.4189 34.4189 C 136.4189 35.522903 137.314896 36.4189 138.4189 36.4189 C 139.522903 36.4189 140.4189 35.522903 140.4189 34.4189 C 140.4189 33.314896 139.522903 32.4189 138.4189 32.4189 C 137.314896 32.4189 136.4189 33.314896 136.4189 34.4189"/>
    <path id="path23" fill="#ffffff" stroke="none" d="M 140.4189 42.4189 C 140.4189 41.314896 139.522903 40.4189 138.4189 40.4189 C 137.314896 40.4189 136.4189 41.314896 136.4189 42.4189 C 136.4189 43.522903 137.314896 44.4189 138.4189 44.4189 C 139.522903 44.4189 140.4189 43.522903 140.4189 42.4189"/>
    <path id="path24" fill="#ffffff" stroke="none" d="M 136.4189 38.4189 C 136.4189 37.314896 135.522903 36.4189 134.4189 36.4189 C 133.314896 36.4189 132.4189 37.314896 132.4189 38.4189 C 132.4189 39.522903 133.314896 40.4189 134.4189 40.4189 C 135.522903 40.4189 136.4189 39.522903 136.4189 38.4189"/>
    <path id="path25" fill="#ffffff" stroke="none" d="M 128.4189 34.4189 C 128.4189 35.522903 129.314896 36.4189 130.4189 36.4189 C 131.522903 36.4189 132.4189 35.522903 132.4189 34.4189 C 132.4189 33.314896 131.522903 32.4189 130.4189 32.4189 C 129.314896 32.4189 128.4189 33.314896 128.4189 34.4189"/>
    <path id="path26" fill="#ffffff" stroke="none" d="M 132.4189 42.4189 C 132.4189 41.314896 131.522903 40.4189 130.4189 40.4189 C 129.314896 40.4189 128.4189 41.314896 128.4189 42.4189 C 128.4189 43.522903 129.314896 44.4189 130.4189 44.4189 C 131.522903 44.4189 132.4189 43.522903 132.4189 42.4189"/>
    <path id="path27" fill="#ffffff" stroke="none" d="M 128.4189 38.4189 C 128.4189 37.314896 127.523903 36.4189 126.4189 36.4189 C 125.314903 36.4189 124.4189 37.314896 124.4189 38.4189 C 124.4189 39.522903 125.314903 40.4189 126.4189 40.4189 C 127.523903 40.4189 128.4189 39.522903 128.4189 38.4189"/>
    <path id="path28" fill="#ffffff" stroke="none" d="M 120.4189 34.4189 C 120.4189 35.522903 121.314903 36.4189 122.4189 36.4189 C 123.523903 36.4189 124.4189 35.522903 124.4189 34.4189 C 124.4189 33.314896 123.523903 32.4189 122.4189 32.4189 C 121.314903 32.4189 120.4189 33.314896 120.4189 34.4189"/>
    <path id="path29" fill="#ffffff" stroke="none" d="M 124.4189 42.4189 C 124.4189 41.314896 123.523903 40.4189 122.4189 40.4189 C 121.314903 40.4189 120.4189 41.314896 120.4189 42.4189 C 120.4189 43.522903 121.314903 44.4189 122.4189 44.4189 C 123.523903 44.4189 124.4189 43.522903 124.4189 42.4189"/>
    <path id="path30" fill="#ffffff" stroke="none" d="M 120.4189 38.4189 C 120.4189 37.314896 119.523903 36.4189 118.4189 36.4189 C 117.314903 36.4189 116.4189 37.314896 116.4189 38.4189 C 116.4189 39.522903 117.314903 40.4189 118.4189 40.4189 C 119.523903 40.4189 120.4189 39.522903 120.4189 38.4189"/>
    <path id="path31" fill="#ffffff" stroke="none" d="M 112.4189 34.4189 C 112.4189 35.522903 113.314903 36.4189 114.4189 36.4189 C 115.523903 36.4189 116.4189 35.522903 116.4189 34.4189 C 116.4189 33.314896 115.523903 32.4189 114.4189 32.4189 C 113.314903 32.4189 112.4189 33.314896 112.4189 34.4189"/>
    <path id="path32" fill="#ffffff" stroke="none" d="M 116.4189 42.4189 C 116.4189 41.314896 115.523903 40.4189 114.4189 40.4189 C 113.314903 40.4189 112.4189 41.314896 112.4189 42.4189 C 112.4189 43.522903 113.314903 44.4189 114.4189 44.4189 C 115.523903 44.4189 116.4189 43.522903 116.4189 42.4189"/>
    <path id="path33" fill="#ffffff" stroke="none" d="M 112.4189 38.4189 C 112.4189 37.314896 111.523903 36.4189 110.4189 36.4189 C 109.314903 36.4189 108.4189 37.314896 108.4189 38.4189 C 108.4189 39.522903 109.314903 40.4189 110.4189 40.4189 C 111.523903 40.4189 112.4189 39.522903 112.4189 38.4189"/>
    <path id="path34" fill="#ffffff" stroke="none" d="M 104.4189 34.4189 C 104.4189 35.522903 105.314903 36.4189 106.4189 36.4189 C 107.523903 36.4189 108.4189 35.522903 108.4189 34.4189 C 108.4189 33.314896 107.523903 32.4189 106.4189 32.4189 C 105.314903 32.4189 104.4189 33.314896 104.4189 34.4189"/>
    <path id="path35" fill="#ffffff" stroke="none" d="M 108.4189 42.4189 C 108.4189 41.314896 107.523903 40.4189 106.4189 40.4189 C 105.314903 40.4189 104.4189 41.314896 104.4189 42.4189 C 104.4189 43.522903 105.314903 44.4189 106.4189 44.4189 C 107.523903 44.4189 108.4189 43.522903 108.4189 42.4189"/>
    <path id="path36" fill="#ffffff" stroke="none" d="M 104.4189 38.4189 C 104.4189 37.314896 103.523903 36.4189 102.4189 36.4189 C 101.314903 36.4189 100.4189 37.314896 100.4189 38.4189 C 100.4189 39.522903 101.314903 40.4189 102.4189 40.4189 C 103.523903 40.4189 104.4189 39.522903 104.4189 38.4189"/>
    <path id="path37" fill="#ffffff" stroke="none" d="M 96.4189 34.4189 C 96.4189 35.522903 97.314903 36.4189 98.4189 36.4189 C 99.523903 36.4189 100.4189 35.522903 100.4189 34.4189 C 100.4189 33.314896 99.523903 32.4189 98.4189 32.4189 C 97.314903 32.4189 96.4189 33.314896 96.4189 34.4189"/>
    <path id="path38" fill="#ffffff" stroke="none" d="M 100.4189 42.4189 C 100.4189 41.314896 99.523903 40.4189 98.4189 40.4189 C 97.314903 40.4189 96.4189 41.314896 96.4189 42.4189 C 96.4189 43.522903 97.314903 44.4189 98.4189 44.4189 C 99.523903 44.4189 100.4189 43.522903 100.4189 42.4189"/>
    <path id="path39" fill="#ffffff" stroke="none" d="M 96.4189 38.4189 C 96.4189 37.314896 95.523903 36.4189 94.4189 36.4189 C 93.314903 36.4189 92.4189 37.314896 92.4189 38.4189 C 92.4189 39.522903 93.314903 40.4189 94.4189 40.4189 C 95.523903 40.4189 96.4189 39.522903 96.4189 38.4189"/>
    <path id="path40" fill="#ffffff" stroke="none" d="M 88.4189 34.4189 C 88.4189 35.522903 89.314903 36.4189 90.4189 36.4189 C 91.523903 36.4189 92.4189 35.522903 92.4189 34.4189 C 92.4189 33.314896 91.523903 32.4189 90.4189 32.4189 C 89.314903 32.4189 88.4189 33.314896 88.4189 34.4189"/>
    <path id="path41" fill="#ffffff" stroke="none" d="M 92.4189 42.4189 C 92.4189 41.314896 91.523903 40.4189 90.4189 40.4189 C 89.314903 40.4189 88.4189 41.314896 88.4189 42.4189 C 88.4189 43.522903 89.314903 44.4189 90.4189 44.4189 C 91.523903 44.4189 92.4189 43.522903 92.4189 42.4189"/>
    <path id="path42" fill="#ffffff" stroke="none" d="M 88.4189 38.4189 C 88.4189 37.314896 87.523903 36.4189 86.4189 36.4189 C 85.314903 36.4189 84.4189 37.314896 84.4189 38.4189 C 84.4189 39.522903 85.314903 40.4189 86.4189 40.4189 C 87.523903 40.4189 88.4189 39.522903 88.4189 38.4189"/>
    <path id="path43" fill="#ffffff" stroke="none" d="M 80.4189 34.4189 C 80.4189 35.522903 81.314903 36.4189 82.4189 36.4189 C 83.523903 36.4189 84.4189 35.522903 84.4189 34.4189 C 84.4189 33.314896 83.523903 32.4189 82.4189 32.4189 C 81.314903 32.4189 80.4189 33.314896 80.4189 34.4189"/>
    <path id="path44" fill="#ffffff" stroke="none" d="M 84.4189 42.4189 C 84.4189 41.314896 83.523903 40.4189 82.4189 40.4189 C 81.314903 40.4189 80.4189 41.314896 80.4189 42.4189 C 80.4189 43.522903 81.314903 44.4189 82.4189 44.4189 C 83.523903 44.4189 84.4189 43.522903 84.4189 42.4189"/>
    <path id="path45" fill="#ffffff" stroke="none" d="M 80.4189 38.4189 C 80.4189 37.314896 79.523903 36.4189 78.4189 36.4189 C 77.314903 36.4189 76.4189 37.314896 76.4189 38.4189 C 76.4189 39.522903 77.314903 40.4189 78.4189 40.4189 C 79.523903 40.4189 80.4189 39.522903 80.4189 38.4189"/>
    <path id="path46" fill="#ffffff" stroke="none" d="M 72.4189 34.4189 C 72.4189 35.522903 73.314903 36.4189 74.4189 36.4189 C 75.523903 36.4189 76.4189 35.522903 76.4189 34.4189 C 76.4189 33.314896 75.523903 32.4189 74.4189 32.4189 C 73.314903 32.4189 72.4189 33.314896 72.4189 34.4189"/>
    <path id="path47" fill="#ffffff" stroke="none" d="M 76.4189 42.4189 C 76.4189 41.314896 75.523903 40.4189 74.4189 40.4189 C 73.314903 40.4189 72.4189 41.314896 72.4189 42.4189 C 72.4189 43.522903 73.314903 44.4189 74.4189 44.4189 C 75.523903 44.4189 76.4189 43.522903 76.4189 42.4189"/>
    <path id="path48" fill="#ffffff" stroke="none" d="M 72.4189 38.4189 C 72.4189 37.314896 71.523903 36.4189 70.4189 36.4189 C 69.314903 36.4189 68.4189 37.314896 68.4189 38.4189 C 68.4189 39.522903 69.314903 40.4189 70.4189 40.4189 C 71.523903 40.4189 72.4189 39.522903 72.4189 38.4189"/>
    <path id="path49" fill="#ffffff" stroke="none" d="M 68.4189 34.4189 C 68.4189 33.314896 67.523903 32.4189 66.4189 32.4189 C 65.314903 32.4189 64.4189 33.314896 64.4189 34.4189 C 64.4189 35.522903 65.314903 36.4189 66.4189 36.4189 C 67.523903 36.4189 68.4189 35.522903 68.4189 34.4189"/>
    <path id="path50" fill="#ffffff" stroke="none" d="M 68.4189 42.4189 C 68.4189 41.314896 67.523903 40.4189 66.4189 40.4189 C 65.314903 40.4189 64.4189 41.314896 64.4189 42.4189 C 64.4189 43.522903 65.314903 44.4189 66.4189 44.4189 C 67.523903 44.4189 68.4189 43.522903 68.4189 42.4189"/>
    <path id="path51" fill="#ffffff" stroke="none" d="M 192.4189 226.4189 C 192.4189 227.522903 193.314896 228.4189 194.4189 228.4189 C 195.522903 228.4189 196.4189 227.522903 196.4189 226.4189 C 196.4189 225.314896 195.522903 224.4189 194.4189 224.4189 C 193.314896 224.4189 192.4189 225.314896 192.4189 226.4189"/>
    <path id="path52" fill="#ffffff" stroke="none" d="M 196.4189 234.4189 C 196.4189 233.314896 195.522903 232.4189 194.4189 232.4189 C 193.314896 232.4189 192.4189 233.314896 192.4189 234.4189 C 192.4189 235.522903 193.314896 236.4189 194.4189 236.4189 C 195.522903 236.4189 196.4189 235.522903 196.4189 234.4189"/>
    <path id="path53" fill="#ffffff" stroke="none" d="M 188.4189 230.4189 C 188.4189 231.522903 189.314896 232.4189 190.4189 232.4189 C 191.522903 232.4189 192.4189 231.522903 192.4189 230.4189 C 192.4189 229.314896 191.522903 228.4189 190.4189 228.4189 C 189.314896 228.4189 188.4189 229.314896 188.4189 230.4189"/>
    <path id="path54" fill="#ffffff" stroke="none" d="M 184.4189 226.4189 C 184.4189 227.522903 185.314896 228.4189 186.4189 228.4189 C 187.522903 228.4189 188.4189 227.522903 188.4189 226.4189 C 188.4189 225.314896 187.522903 224.4189 186.4189 224.4189 C 185.314896 224.4189 184.4189 225.314896 184.4189 226.4189"/>
    <path id="path55" fill="#ffffff" stroke="none" d="M 188.4189 234.4189 C 188.4189 233.314896 187.522903 232.4189 186.4189 232.4189 C 185.314896 232.4189 184.4189 233.314896 184.4189 234.4189 C 184.4189 235.522903 185.314896 236.4189 186.4189 236.4189 C 187.522903 236.4189 188.4189 235.522903 188.4189 234.4189"/>
    <path id="path56" fill="#ffffff" stroke="none" d="M 184.4189 230.4189 C 184.4189 229.314896 183.522903 228.4189 182.4189 228.4189 C 181.314896 228.4189 180.4189 229.314896 180.4189 230.4189 C 180.4189 231.522903 181.314896 232.4189 182.4189 232.4189 C 183.522903 232.4189 184.4189 231.522903 184.4189 230.4189"/>
    <path id="path57" fill="#ffffff" stroke="none" d="M 176.4189 226.4189 C 176.4189 227.522903 177.314896 228.4189 178.4189 228.4189 C 179.522903 228.4189 180.4189 227.522903 180.4189 226.4189 C 180.4189 225.314896 179.522903 224.4189 178.4189 224.4189 C 177.314896 224.4189 176.4189 225.314896 176.4189 226.4189"/>
    <path id="path58" fill="#ffffff" stroke="none" d="M 180.4189 234.4189 C 180.4189 233.314896 179.522903 232.4189 178.4189 232.4189 C 177.314896 232.4189 176.4189 233.314896 176.4189 234.4189 C 176.4189 235.522903 177.314896 236.4189 178.4189 236.4189 C 179.522903 236.4189 180.4189 235.522903 180.4189 234.4189"/>
    <path id="path59" fill="#ffffff" stroke="none" d="M 176.4189 230.4189 C 176.4189 229.314896 175.522903 228.4189 174.4189 228.4189 C 173.314896 228.4189 172.4189 229.314896 172.4189 230.4189 C 172.4189 231.522903 173.314896 232.4189 174.4189 232.4189 C 175.522903 232.4189 176.4189 231.522903 176.4189 230.4189"/>
    <path id="path60" fill="#ffffff" stroke="none" d="M 168.4189 226.4189 C 168.4189 227.522903 169.314896 228.4189 170.4189 228.4189 C 171.522903 228.4189 172.4189 227.522903 172.4189 226.4189 C 172.4189 225.314896 171.522903 224.4189 170.4189 224.4189 C 169.314896 224.4189 168.4189 225.314896 168.4189 226.4189"/>
    <path id="path61" fill="#ffffff" stroke="none" d="M 172.4189 234.4189 C 172.4189 233.314896 171.522903 232.4189 170.4189 232.4189 C 169.314896 232.4189 168.4189 233.314896 168.4189 234.4189 C 168.4189 235.522903 169.314896 236.4189 170.4189 236.4189 C 171.522903 236.4189 172.4189 235.522903 172.4189 234.4189"/>
    <path id="path62" fill="#ffffff" stroke="none" d="M 168.4189 230.4189 C 168.4189 229.314896 167.522903 228.4189 166.4189 228.4189 C 165.314896 228.4189 164.4189 229.314896 164.4189 230.4189 C 164.4189 231.522903 165.314896 232.4189 166.4189 232.4189 C 167.522903 232.4189 168.4189 231.522903 168.4189 230.4189"/>
    <path id="path63" fill="#ffffff" stroke="none" d="M 160.4189 226.4189 C 160.4189 227.522903 161.314896 228.4189 162.4189 228.4189 C 163.522903 228.4189 164.4189 227.522903 164.4189 226.4189 C 164.4189 225.314896 163.522903 224.4189 162.4189 224.4189 C 161.314896 224.4189 160.4189 225.314896 160.4189 226.4189"/>
    <path id="path64" fill="#ffffff" stroke="none" d="M 164.4189 234.4189 C 164.4189 233.314896 163.522903 232.4189 162.4189 232.4189 C 161.314896 232.4189 160.4189 233.314896 160.4189 234.4189 C 160.4189 235.522903 161.314896 236.4189 162.4189 236.4189 C 163.522903 236.4189 164.4189 235.522903 164.4189 234.4189"/>
    <path id="path65" fill="#ffffff" stroke="none" d="M 160.4189 230.4189 C 160.4189 229.314896 159.522903 228.4189 158.4189 228.4189 C 157.314896 228.4189 156.4189 229.314896 156.4189 230.4189 C 156.4189 231.522903 157.314896 232.4189 158.4189 232.4189 C 159.522903 232.4189 160.4189 231.522903 160.4189 230.4189"/>
    <path id="path66" fill="#ffffff" stroke="none" d="M 152.4189 226.4189 C 152.4189 227.522903 153.314896 228.4189 154.4189 228.4189 C 155.522903 228.4189 156.4189 227.522903 156.4189 226.4189 C 156.4189 225.314896 155.522903 224.4189 154.4189 224.4189 C 153.314896 224.4189 152.4189 225.314896 152.4189 226.4189"/>
    <path id="path67" fill="#ffffff" stroke="none" d="M 156.4189 234.4189 C 156.4189 233.314896 155.522903 232.4189 154.4189 232.4189 C 153.314896 232.4189 152.4189 233.314896 152.4189 234.4189 C 152.4189 235.522903 153.314896 236.4189 154.4189 236.4189 C 155.522903 236.4189 156.4189 235.522903 156.4189 234.4189"/>
    <path id="path68" fill="#ffffff" stroke="none" d="M 152.4189 230.4189 C 152.4189 229.314896 151.522903 228.4189 150.4189 228.4189 C 149.314896 228.4189 148.4189 229.314896 148.4189 230.4189 C 148.4189 231.522903 149.314896 232.4189 150.4189 232.4189 C 151.522903 232.4189 152.4189 231.522903 152.4189 230.4189"/>
    <path id="path69" fill="#ffffff" stroke="none" d="M 144.4189 226.4189 C 144.4189 227.522903 145.314896 228.4189 146.4189 228.4189 C 147.522903 228.4189 148.4189 227.522903 148.4189 226.4189 C 148.4189 225.314896 147.522903 224.4189 146.4189 224.4189 C 145.314896 224.4189 144.4189 225.314896 144.4189 226.4189"/>
    <path id="path70" fill="#ffffff" stroke="none" d="M 148.4189 234.4189 C 148.4189 233.314896 147.522903 232.4189 146.4189 232.4189 C 145.314896 232.4189 144.4189 233.314896 144.4189 234.4189 C 144.4189 235.522903 145.314896 236.4189 146.4189 236.4189 C 147.522903 236.4189 148.4189 235.522903 148.4189 234.4189"/>
    <path id="path71" fill="#ffffff" stroke="none" d="M 144.4189 230.4189 C 144.4189 229.314896 143.522903 228.4189 142.4189 228.4189 C 141.314896 228.4189 140.4189 229.314896 140.4189 230.4189 C 140.4189 231.522903 141.314896 232.4189 142.4189 232.4189 C 143.522903 232.4189 144.4189 231.522903 144.4189 230.4189"/>
    <path id="path72" fill="#ffffff" stroke="none" d="M 136.4189 226.4189 C 136.4189 227.522903 137.314896 228.4189 138.4189 228.4189 C 139.522903 228.4189 140.4189 227.522903 140.4189 226.4189 C 140.4189 225.314896 139.522903 224.4189 138.4189 224.4189 C 137.314896 224.4189 136.4189 225.314896 136.4189 226.4189"/>
    <path id="path73" fill="#ffffff" stroke="none" d="M 140.4189 234.4189 C 140.4189 233.314896 139.522903 232.4189 138.4189 232.4189 C 137.314896 232.4189 136.4189 233.314896 136.4189 234.4189 C 136.4189 235.522903 137.314896 236.4189 138.4189 236.4189 C 139.522903 236.4189 140.4189 235.522903 140.4189 234.4189"/>
    <path id="path74" fill="#ffffff" stroke="none" d="M 136.4189 230.4189 C 136.4189 229.314896 135.522903 228.4189 134.4189 228.4189 C 133.314896 228.4189 132.4189 229.314896 132.4189 230.4189 C 132.4189 231.522903 133.314896 232.4189 134.4189 232.4189 C 135.522903 232.4189 136.4189 231.522903 136.4189 230.4189"/>
    <path id="path75" fill="#ffffff" stroke="none" d="M 128.4189 226.4189 C 128.4189 227.522903 129.314896 228.4189 130.4189 228.4189 C 131.522903 228.4189 132.4189 227.522903 132.4189 226.4189 C 132.4189 225.314896 131.522903 224.4189 130.4189 224.4189 C 129.314896 224.4189 128.4189 225.314896 128.4189 226.4189"/>
    <path id="path76" fill="#ffffff" stroke="none" d="M 132.4189 234.4189 C 132.4189 233.314896 131.522903 232.4189 130.4189 232.4189 C 129.314896 232.4189 128.4189 233.314896 128.4189 234.4189 C 128.4189 235.522903 129.314896 236.4189 130.4189 236.4189 C 131.522903 236.4189 132.4189 235.522903 132.4189 234.4189"/>
    <path id="path77" fill="#ffffff" stroke="none" d="M 128.4189 230.4189 C 128.4189 229.314896 127.523903 228.4189 126.4189 228.4189 C 125.314903 228.4189 124.4189 229.314896 124.4189 230.4189 C 124.4189 231.522903 125.314903 232.4189 126.4189 232.4189 C 127.523903 232.4189 128.4189 231.522903 128.4189 230.4189"/>
    <path id="path78" fill="#ffffff" stroke="none" d="M 120.4189 226.4189 C 120.4189 227.522903 121.314903 228.4189 122.4189 228.4189 C 123.523903 228.4189 124.4189 227.522903 124.4189 226.4189 C 124.4189 225.314896 123.523903 224.4189 122.4189 224.4189 C 121.314903 224.4189 120.4189 225.314896 120.4189 226.4189"/>
    <path id="path79" fill="#ffffff" stroke="none" d="M 124.4189 234.4189 C 124.4189 233.314896 123.523903 232.4189 122.4189 232.4189 C 121.314903 232.4189 120.4189 233.314896 120.4189 234.4189 C 120.4189 235.522903 121.314903 236.4189 122.4189 236.4189 C 123.523903 236.4189 124.4189 235.522903 124.4189 234.4189"/>
    <path id="path80" fill="#ffffff" stroke="none" d="M 120.4189 230.4189 C 120.4189 229.314896 119.523903 228.4189 118.4189 228.4189 C 117.314903 228.4189 116.4189 229.314896 116.4189 230.4189 C 116.4189 231.522903 117.314903 232.4189 118.4189 232.4189 C 119.523903 232.4189 120.4189 231.522903 120.4189 230.4189"/>
    <path id="path81" fill="#ffffff" stroke="none" d="M 112.4189 226.4189 C 112.4189 227.522903 113.314903 228.4189 114.4189 228.4189 C 115.523903 228.4189 116.4189 227.522903 116.4189 226.4189 C 116.4189 225.314896 115.523903 224.4189 114.4189 224.4189 C 113.314903 224.4189 112.4189 225.314896 112.4189 226.4189"/>
    <path id="path82" fill="#ffffff" stroke="none" d="M 116.4189 234.4189 C 116.4189 233.314896 115.523903 232.4189 114.4189 232.4189 C 113.314903 232.4189 112.4189 233.314896 112.4189 234.4189 C 112.4189 235.522903 113.314903 236.4189 114.4189 236.4189 C 115.523903 236.4189 116.4189 235.522903 116.4189 234.4189"/>
    <path id="path83" fill="#ffffff" stroke="none" d="M 112.4189 230.4189 C 112.4189 229.314896 111.523903 228.4189 110.4189 228.4189 C 109.314903 228.4189 108.4189 229.314896 108.4189 230.4189 C 108.4189 231.522903 109.314903 232.4189 110.4189 232.4189 C 111.523903 232.4189 112.4189 231.522903 112.4189 230.4189"/>
    <path id="path84" fill="#ffffff" stroke="none" d="M 104.4189 226.4189 C 104.4189 227.522903 105.314903 228.4189 106.4189 228.4189 C 107.523903 228.4189 108.4189 227.522903 108.4189 226.4189 C 108.4189 225.314896 107.523903 224.4189 106.4189 224.4189 C 105.314903 224.4189 104.4189 225.314896 104.4189 226.4189"/>
    <path id="path85" fill="#ffffff" stroke="none" d="M 108.4189 234.4189 C 108.4189 233.314896 107.523903 232.4189 106.4189 232.4189 C 105.314903 232.4189 104.4189 233.314896 104.4189 234.4189 C 104.4189 235.522903 105.314903 236.4189 106.4189 236.4189 C 107.523903 236.4189 108.4189 235.522903 108.4189 234.4189"/>
    <path id="path86" fill="#ffffff" stroke="none" d="M 104.4189 230.4189 C 104.4189 229.314896 103.523903 228.4189 102.4189 228.4189 C 101.314903 228.4189 100.4189 229.314896 100.4189 230.4189 C 100.4189 231.522903 101.314903 232.4189 102.4189 232.4189 C 103.523903 232.4189 104.4189 231.522903 104.4189 230.4189"/>
    <path id="path87" fill="#ffffff" stroke="none" d="M 96.4189 226.4189 C 96.4189 227.522903 97.314903 228.4189 98.4189 228.4189 C 99.523903 228.4189 100.4189 227.522903 100.4189 226.4189 C 100.4189 225.314896 99.523903 224.4189 98.4189 224.4189 C 97.314903 224.4189 96.4189 225.314896 96.4189 226.4189"/>
    <path id="path88" fill="#ffffff" stroke="none" d="M 100.4189 234.4189 C 100.4189 233.314896 99.523903 232.4189 98.4189 232.4189 C 97.314903 232.4189 96.4189 233.314896 96.4189 234.4189 C 96.4189 235.522903 97.314903 236.4189 98.4189 236.4189 C 99.523903 236.4189 100.4189 235.522903 100.4189 234.4189"/>
    <path id="path89" fill="#ffffff" stroke="none" d="M 96.4189 230.4189 C 96.4189 229.314896 95.523903 228.4189 94.4189 228.4189 C 93.314903 228.4189 92.4189 229.314896 92.4189 230.4189 C 92.4189 231.522903 93.314903 232.4189 94.4189 232.4189 C 95.523903 232.4189 96.4189 231.522903 96.4189 230.4189"/>
    <path id="path90" fill="#ffffff" stroke="none" d="M 88.4189 226.4189 C 88.4189 227.522903 89.314903 228.4189 90.4189 228.4189 C 91.523903 228.4189 92.4189 227.522903 92.4189 226.4189 C 92.4189 225.314896 91.523903 224.4189 90.4189 224.4189 C 89.314903 224.4189 88.4189 225.314896 88.4189 226.4189"/>
    <path id="path91" fill="#ffffff" stroke="none" d="M 92.4189 234.4189 C 92.4189 233.314896 91.523903 232.4189 90.4189 232.4189 C 89.314903 232.4189 88.4189 233.314896 88.4189 234.4189 C 88.4189 235.522903 89.314903 236.4189 90.4189 236.4189 C 91.523903 236.4189 92.4189 235.522903 92.4189 234.4189"/>
    <path id="path92" fill="#ffffff" stroke="none" d="M 88.4189 230.4189 C 88.4189 229.314896 87.523903 228.4189 86.4189 228.4189 C 85.314903 228.4189 84.4189 229.314896 84.4189 230.4189 C 84.4189 231.522903 85.314903 232.4189 86.4189 232.4189 C 87.523903 232.4189 88.4189 231.522903 88.4189 230.4189"/>
    <path id="path93" fill="#ffffff" stroke="none" d="M 80.4189 226.4189 C 80.4189 227.522903 81.314903 228.4189 82.4189 228.4189 C 83.523903 228.4189 84.4189 227.522903 84.4189 226.4189 C 84.4189 225.314896 83.523903 224.4189 82.4189 224.4189 C 81.314903 224.4189 80.4189 225.314896 80.4189 226.4189"/>
    <path id="path94" fill="#ffffff" stroke="none" d="M 84.4189 234.4189 C 84.4189 233.314896 83.523903 232.4189 82.4189 232.4189 C 81.314903 232.4189 80.4189 233.314896 80.4189 234.4189 C 80.4189 235.522903 81.314903 236.4189 82.4189 236.4189 C 83.523903 236.4189 84.4189 235.522903 84.4189 234.4189"/>
    <path id="path95" fill="#ffffff" stroke="none" d="M 80.4189 230.4189 C 80.4189 229.314896 79.523903 228.4189 78.4189 228.4189 C 77.314903 228.4189 76.4189 229.314896 76.4189 230.4189 C 76.4189 231.522903 77.314903 232.4189 78.4189 232.4189 C 79.523903 232.4189 80.4189 231.522903 80.4189 230.4189"/>
    <path id="path96" fill="#ffffff" stroke="none" d="M 72.4189 226.4189 C 72.4189 227.522903 73.314903 228.4189 74.4189 228.4189 C 75.523903 228.4189 76.4189 227.522903 76.4189 226.4189 C 76.4189 225.314896 75.523903 224.4189 74.4189 224.4189 C 73.314903 224.4189 72.4189 225.314896 72.4189 226.4189"/>
    <path id="path97" fill="#ffffff" stroke="none" d="M 76.4189 234.4189 C 76.4189 233.314896 75.523903 232.4189 74.4189 232.4189 C 73.314903 232.4189 72.4189 233.314896 72.4189 234.4189 C 72.4189 235.522903 73.314903 236.4189 74.4189 236.4189 C 75.523903 236.4189 76.4189 235.522903 76.4189 234.4189"/>
    <path id="path98" fill="#ffffff" stroke="none" d="M 72.4189 230.4189 C 72.4189 229.314896 71.523903 228.4189 70.4189 228.4189 C 69.314903 228.4189 68.4189 229.314896 68.4189 230.4189 C 68.4189 231.522903 69.314903 232.4189 70.4189 232.4189 C 71.523903 232.4189 72.4189 231.522903 72.4189 230.4189"/>
    <path id="path99" fill="#ffffff" stroke="none" d="M 68.4189 226.4189 C 68.4189 225.314896 67.523903 224.4189 66.4189 224.4189 C 65.314903 224.4189 64.4189 225.314896 64.4189 226.4189 C 64.4189 227.522903 65.314903 228.4189 66.4189 228.4189 C 67.523903 228.4189 68.4189 227.522903 68.4189 226.4189"/>
    <path id="path100" fill="#ffffff" stroke="none" d="M 68.4189 234.4189 C 68.4189 233.314896 67.523903 232.4189 66.4189 232.4189 C 65.314903 232.4189 64.4189 233.314896 64.4189 234.4189 C 64.4189 235.522903 65.314903 236.4189 66.4189 236.4189 C 67.523903 236.4189 68.4189 235.522903 68.4189 234.4189"/>
</svg>
