<?xml version="1.0" encoding="UTF-8"?>
<!-- Generated by Pixelmator Pro 3.7.1 -->
<svg width="256" height="256" viewBox="0 0 256 256" xmlns="http://www.w3.org/2000/svg">
    <path id="Path" fill="#ffffff" stroke="none" d="M 244 220 L 240 220 L 240 218.333008 L 240 214.333008 L 240 210.333008 L 240 206.333008 L 240 202.333008 L 240 198.333008 L 240 194.333008 L 240 190.333008 L 240 186.333008 L 240 182.333008 L 240 178.333008 L 240 174.333008 L 240 170.333008 L 240 166.333008 L 240 162.333008 L 240 158.333008 L 240 154.333008 L 240 150.333008 L 240 146.333008 L 240 142.333008 L 240 138.333008 L 240 134.333008 L 240 130.333008 L 240 126.333008 L 240 122.333008 L 240 118.333008 L 240 114.333008 L 240 16 L 242 16 C 243.104004 16 244 16.895996 244 18 Z M 244 228 L 244 232 L 244 238 C 244 239.104004 243.104004 240 242 240 L 240 240 L 240 224 L 244 224 Z M 236 111.51001 L 148 49.391998 L 148 53.391998 L 236 115.51001 L 236 119.51001 L 148 57.391998 L 148 61.391998 L 236 123.51001 L 236 127.51001 L 148 65.391998 L 148 69.391998 L 236 131.51001 L 236 135.51001 L 148 73.391998 L 148 77.391998 L 236 139.51001 L 236 143.51001 L 148 81.391998 L 148 85.391998 L 236 147.51001 L 236 151.51001 L 148 89.391998 L 148 93.391998 L 236 155.51001 L 236 159.509995 L 148 97.391998 L 148 101.391998 L 236 163.509995 L 236 167.509995 L 148 105.391998 L 148 109.391998 L 236 171.509995 L 236 175.509995 L 148 113.391998 L 148 117.391998 L 236 179.509995 L 236 183.509995 L 148 121.391998 L 148 125.391998 L 236 187.509995 L 236 191.51001 L 148 129.393005 L 148 133.393005 L 236 195.51001 L 236 199.51001 L 148 137.393005 L 148 141.393005 L 236 203.51001 L 236 207.51001 L 148 145.393005 L 148 149.393005 L 236 211.51001 L 236 215.51001 L 148 153.393005 L 148 157.393005 L 236 219.509995 L 236 220 L 231.027008 220 L 148 161.393005 L 148 165.393005 L 225.360992 220 L 219.694 220 L 148 169.393005 L 148 173.393005 L 214.027008 220 L 208.360992 220 L 148 177.393005 L 148 181.393005 L 202.694 220 L 197.027008 220 L 148 185.393005 L 148 189.393005 L 191.360992 220 L 185.694 220 L 148 193.393005 L 148 197.393005 L 180.027008 220 L 174.360992 220 L 148 201.393005 L 148 205.393005 L 168.694 220 L 163.027008 220 L 148 209.393005 L 148 213.393005 L 157.360992 220 L 152 220 L 151.694 220 L 148 217.393005 L 148 220 L 144 220 L 144 16 L 236 16 Z M 236 240 L 156 240 L 152 240 L 148 240 L 144 240 L 144 224 L 148 224 L 152 224 L 156 224 L 157.360992 224 L 163.027008 224 L 168.694 224 L 174.360992 224 L 180.027008 224 L 185.694 224 L 191.360992 224 L 197.027008 224 L 202.694 224 L 208.360992 224 L 214.027008 224 L 219.694 224 L 225.360992 224 L 231.027008 224 L 236 224 Z M 140 220 L 20 220 L 20 16 L 140 16 Z M 140 240 L 20 240 L 20 224 L 140 224 Z M 16 220 L 12 220 L 12 18 C 12 16.895996 12.895996 16 14 16 L 16 16 Z M 16 240 L 14 240 C 12.895996 240 12 239.104004 12 238 L 12 232 L 12 228 L 12 224 L 16 224 Z M 242 12 L 144 12 L 140 12 L 14 12 C 10.690994 12 8 14.690994 8 18 L 8 220 L 8 224 L 8 228 L 8 232 L 8 238 C 8 241.309006 10.690994 244 14 244 L 140 244 L 144 244 L 148 244 L 152 244 L 242 244 C 245.309006 244 248 241.309006 248 238 L 248 232 L 248 228 L 248 224 L 248 220 L 248 18 C 248 14.690994 245.309006 12 242 12"/>
</svg>
