<?xml version="1.0" encoding="UTF-8"?>
<!-- Generated by Pixelmator Pro 3.7.1 -->
<svg width="256" height="256" viewBox="0 0 256 256" xmlns="http://www.w3.org/2000/svg">
    <path id="Path" fill="#ffffff" stroke="none" d="M 128 232 C 123.588997 232 120 228.410995 120 224 C 120 219.589005 123.588997 216 128 216 C 132.410995 216 136 219.589005 136 224 C 136 228.410995 132.410995 232 128 232 M 128 212 C 121.373001 212 116 217.373001 116 224 C 116 230.626999 121.373001 236 128 236 C 134.626999 236 140 230.626999 140 224 C 140 217.373001 134.626999 212 128 212"/>
    <path id="path1" fill="#ffffff" stroke="none" d="M 108 80 L 148 80 L 148 128 L 108 128 Z M 104 79.843002 L 104 128.156998 C 104 130.278992 105.721001 132 107.843002 132 L 148.156998 132 C 150.279007 132 152 130.278992 152 128.156998 L 152 79.843002 C 152 77.720993 150.279007 76 148.156998 76 L 107.843002 76 C 105.721001 76 104 77.720993 104 79.843002"/>
    <path id="path2" fill="#ffffff" stroke="none" d="M 172 186 C 172 187.104004 171.104004 188 170 188 L 168 188 L 168 176 L 170 176 C 171.104004 176 172 176.895996 172 178 Z M 160 200 L 160 75.863998 C 160 72.828003 158.268005 70.192993 155.740997 68.882996 C 158.341995 66.470001 160 62.873993 160 58.856995 L 160 45.143005 C 160 41.589996 158.701004 38.367996 156.602997 36 L 164 36 L 164 200 Z M 164 240 L 157.979996 240 C 159.242004 238.326004 160 236.252991 160 234 L 160 204 L 164 204 Z M 106 240 C 102.686996 240 100 237.313004 100 234 L 100 204 L 156 204 L 156 234 C 156 237.313004 153.313004 240 150 240 Z M 92 204 L 96 204 L 96 234 C 96 236.252991 96.758003 238.326004 98.018997 240 L 92 240 Z M 92 36 L 99.397003 36 C 97.299004 38.367996 96 41.589996 96 45.143005 L 96 58.856995 C 96 62.873993 97.657997 66.470001 100.259003 68.882996 C 97.733002 70.192993 96 72.828003 96 75.863998 L 96 200 L 92 200 Z M 86 188 C 84.896004 188 84 187.104004 84 186 L 84 178 C 84 176.895996 84.896004 176 86 176 L 88 176 L 88 188 Z M 104 192 L 116 192 L 118 192 L 120 192 L 122 192 L 134 192 L 136 192 L 138 192 L 140 192 L 152 192 L 156 192 L 156 200 L 100 200 L 100 192 Z M 116 152 L 104 152 L 104 144 L 116 144 Z M 134 152 L 122 152 L 122 144 L 134 144 Z M 152 152 L 140 152 L 140 144 L 152 144 Z M 140 180 L 152 180 L 152 188 L 140 188 Z M 122 180 L 134 180 L 134 188 L 122 188 Z M 134 164 L 122 164 L 122 156 L 134 156 Z M 122 168 L 134 168 L 134 176 L 122 176 Z M 152 176 L 140 176 L 140 168 L 152 168 Z M 152 164 L 140 164 L 140 156 L 152 156 Z M 104 156 L 116 156 L 116 164 L 104 164 Z M 104 168 L 116 168 L 116 176 L 104 176 Z M 104 180 L 116 180 L 116 188 L 104 188 Z M 152.136002 72 C 154.270004 72 156 73.730011 156 75.863998 L 156 140 L 152 140 L 140 140 L 138 140 L 136 140 L 134 140 L 122 140 L 120 140 L 118 140 L 116 140 L 104 140 L 100 140 L 100 75.863998 C 100 73.730011 101.730003 72 103.863998 72 L 108 72 L 148 72 Z M 156 45.143005 L 156 58.856995 C 156 63.89801 152.410995 68 148 68 L 108 68 C 103.588997 68 100 63.89801 100 58.856995 L 100 45.143005 C 100 40.102005 103.588997 36 108 36 L 148 36 C 152.410995 36 156 40.102005 156 45.143005 M 92 16 L 164 16 L 164 32 L 148 32 L 108 32 L 92 32 Z M 170 172 L 168 172 L 168 36 L 168 32 L 168 12 L 88 12 L 88 32 L 88 36 L 88 172 L 86 172 C 82.691002 172 80 174.69101 80 178 L 80 186 C 80 189.30899 82.691002 192 86 192 L 88 192 L 88 200 L 88 204 L 88 242 C 88 243.104004 88.896004 244 90 244 L 106 244 L 150 244 L 166 244 C 167.104004 244 168 243.104004 168 242 L 168 204 L 168 200 L 168 192 L 170 192 C 173.309006 192 176 189.30899 176 186 L 176 178 C 176 174.69101 173.309006 172 170 172"/>
</svg>
