<?xml version="1.0" encoding="UTF-8"?>
<!-- Generated by Pixelmator Pro 3.7.1 -->
<svg width="256" height="256" viewBox="0 0 256 256" xmlns="http://www.w3.org/2000/svg">
    <path id="Path" fill="#ffffff" stroke="none" d="M 104 80 L 152 80 L 152 136 L 104 136 Z M 159.031006 64 L 96.968002 64 C 92.023003 64 88 68.106003 88 73.151993 L 88 244 L 88 248 L 92 248 L 164 248 L 168 248 L 168 244 L 168 73.151993 C 168 68.106003 163.977005 64 159.031006 64 M 100 140 L 156 140 L 156 76 L 100 76 Z M 159.031006 68 C 161.774994 68 164 70.307007 164 73.151993 L 164 244 L 92 244 L 92 73.151993 C 92 70.307007 94.224998 68 96.968002 68 L 159.031006 68"/>
    <path id="path1" fill="#ffffff" stroke="none" d="M 153.713898 16 L 102.285896 16 C 96.613899 16 91.999901 21.639999 91.999901 28.570999 L 91.999901 47.429001 C 91.999901 54.360001 96.613899 60 102.285896 60 L 153.713898 60 C 159.385895 60 163.999893 54.360001 163.999893 47.429001 L 163.999893 28.570999 C 163.999893 21.639999 159.385895 16 153.713898 16 M 153.713898 20 C 157.120895 20 159.999893 23.925003 159.999893 28.570999 L 159.999893 47.429001 C 159.999893 52.074997 157.120895 56 153.713898 56 L 102.285896 56 C 98.878899 56 95.999901 52.074997 95.999901 47.429001 L 95.999901 28.570999 C 95.999901 23.925003 98.878899 20 102.285896 20 L 153.713898 20"/>
    <path id="path2" fill="#ffffff" stroke="none" d="M 116 156 L 112 156 L 96 156 L 92 156 L 92 160 L 92 172 L 92 176 L 96 176 L 112 176 L 116 176 L 116 172 L 116 160 Z M 112 172 L 96 172 L 96 160 L 112 160 Z"/>
    <path id="path3" fill="#ffffff" stroke="none" d="M 140 156 L 136 156 L 120 156 L 116 156 L 116 160 L 116 172 L 116 176 L 120 176 L 136 176 L 140 176 L 140 172 L 140 160 Z M 136 172 L 120 172 L 120 160 L 136 160 Z"/>
    <path id="path4" fill="#ffffff" stroke="none" d="M 164 156 L 160 156 L 144 156 L 140 156 L 140 160 L 140 172 L 140 176 L 144 176 L 160 176 L 164 176 L 164 172 L 164 160 Z M 160 172 L 144 172 L 144 160 L 160 160 Z"/>
    <path id="path5" fill="#ffffff" stroke="none" d="M 116 172 L 112 172 L 96 172 L 92 172 L 92 176 L 92 188 L 92 192 L 96 192 L 112 192 L 116 192 L 116 188 L 116 176 Z M 112 188 L 96 188 L 96 176 L 112 176 Z"/>
    <path id="path6" fill="#ffffff" stroke="none" d="M 140 172 L 136 172 L 120 172 L 116 172 L 116 176 L 116 188 L 116 192 L 120 192 L 136 192 L 140 192 L 140 188 L 140 176 Z M 136 188 L 120 188 L 120 176 L 136 176 Z"/>
    <path id="path7" fill="#ffffff" stroke="none" d="M 164 172 L 160 172 L 144 172 L 140 172 L 140 176 L 140 188 L 140 192 L 144 192 L 160 192 L 164 192 L 164 188 L 164 176 Z M 160 188 L 144 188 L 144 176 L 160 176 Z"/>
    <path id="path8" fill="#ffffff" stroke="none" d="M 116 188 L 112 188 L 96 188 L 92 188 L 92 192 L 92 204 L 92 208 L 96 208 L 112 208 L 116 208 L 116 204 L 116 192 Z M 112 204 L 96 204 L 96 192 L 112 192 Z"/>
    <path id="path9" fill="#ffffff" stroke="none" d="M 140 188 L 136 188 L 120 188 L 116 188 L 116 192 L 116 204 L 116 208 L 120 208 L 136 208 L 140 208 L 140 204 L 140 192 Z M 136 204 L 120 204 L 120 192 L 136 192 Z"/>
    <path id="path10" fill="#ffffff" stroke="none" d="M 164 188 L 160 188 L 144 188 L 140 188 L 140 192 L 140 204 L 140 208 L 144 208 L 160 208 L 164 208 L 164 204 L 164 192 Z M 160 204 L 144 204 L 144 192 L 160 192 Z"/>
    <path id="path11" fill="#ffffff" stroke="none" d="M 116 204 L 112 204 L 96 204 L 92 204 L 92 208 L 92 220 L 92 224 L 96 224 L 112 224 L 116 224 L 116 220 L 116 208 Z M 112 220 L 96 220 L 96 208 L 112 208 Z"/>
    <path id="path12" fill="#ffffff" stroke="none" d="M 140 204 L 136 204 L 120 204 L 116 204 L 116 208 L 116 220 L 116 224 L 120 224 L 136 224 L 140 224 L 140 220 L 140 208 Z M 136 220 L 120 220 L 120 208 L 136 208 Z"/>
    <path id="path13" fill="#ffffff" stroke="none" d="M 164 204 L 160 204 L 144 204 L 140 204 L 140 208 L 140 220 L 140 224 L 144 224 L 160 224 L 164 224 L 164 220 L 164 208 Z M 160 220 L 144 220 L 144 208 L 160 208 Z"/>
    <path id="path14" fill="#ffffff" stroke="none" d="M 104 80 L 152 80 L 152 136 L 104 136 Z M 100 140 L 156 140 L 156 76 L 100 76 Z"/>
    <path id="path15" fill="#ffffff" stroke="none" d="M 184 244 L 72 244 L 72 228 L 72 224 L 72 208 L 72 204 L 72 12 L 184 12 L 184 204 L 184 208 L 184 224 L 184 228 Z M 188 204.596008 L 188 12 L 188 8 L 184 8 L 72 8 L 68 8 L 68 12 L 68 204.621002 C 65.643997 205.699005 64 208.071991 64 210.828003 L 64 221.171997 C 64 223.928009 65.643997 226.300995 68 227.378998 L 68 244 L 68 248 L 72 248 L 184 248 L 188 248 L 188 244 L 188 227.403992 C 190.354004 226.345001 192 223.981995 192 221.238007 L 192 210.761993 C 192 208.018005 190.354004 205.654999 188 204.596008"/>
</svg>
