<?xml version="1.0" encoding="UTF-8"?>
<!-- Generated by Pixelmator Pro 3.7.1 -->
<svg width="256" height="256" viewBox="0 0 256 256" xmlns="http://www.w3.org/2000/svg">
    <path id="Path" fill="#ffffff" stroke="none" d="M 75 162.673798 L 75 114.971802 L 78.210999 116.577805 L 82 118.471802 L 84.210999 119.577805 L 90.210999 122.577805 L 94 124.471802 L 94 133.999802 L 94 136.471802 L 96.210999 137.577789 L 102.210999 140.577789 L 108 143.471802 L 108 136.999802 L 108 131.471802 L 108.210999 131.577789 L 114 134.471802 L 114 134.361801 L 114.160995 134.444794 L 120.160995 137.551804 L 121 137.986801 L 121 185.673798 Z M 180 115.471802 L 181 114.971802 L 181 162.673798 L 135 185.673798 L 135 146.971802 L 135.789001 146.577789 L 141.789001 143.577789 L 144 142.471802 L 144 139.999802 L 144 136.471802 L 147.789001 134.577789 L 153.789001 131.577789 L 154 131.471802 L 154 134.471802 L 159.789001 131.577789 L 165.789001 128.577789 L 166 128.471802 L 166 128.894806 L 171.889008 125.739807 L 177.889008 122.525803 L 180 121.394806 L 180 118.999802 Z M 128 54.527802 L 126.210999 55.422806 L 66.210999 85.422806 L 64 86.527802 L 64 88.999802 L 64 166.999802 L 64 169.471802 L 66.210999 170.577789 L 126.210999 200.577805 L 128 201.471802 L 129.789001 200.577805 L 189.789001 170.577789 L 192 169.471802 L 192 166.999802 L 192 88.999802 L 192 86.527802 L 189.789001 85.422806 L 129.789001 55.422806 Z M 80 112.999802 L 74 109.999802 L 74 103.999802 L 71 102.499802 L 71 165.145798 L 125 192.145798 L 125 129.499802 L 122 127.999802 L 122 133.999802 L 116 130.892792 L 116 124.999802 L 110 121.999802 L 110 127.999802 L 104 124.999802 L 104 136.999802 L 98 133.999802 L 98 115.999802 L 92 112.999802 L 92 118.999802 L 86 115.999802 L 86 103.999802 L 80 100.999802 L 80 112.999802 M 170 122.214798 L 170 112.999802 L 164 115.999802 L 164 124.999802 L 158 127.999802 L 158 115.999802 L 152 118.999802 L 152 127.999802 L 146 130.999802 L 146 124.999802 L 140 127.999802 L 140 139.999802 L 134 142.999802 L 134 130.892792 L 131 132.445801 L 131 192.145798 L 185 165.145798 L 185 99.499802 L 182 100.999802 L 182 109.999802 L 176 112.999802 L 176 118.999802 L 170 122.214798 M 128 58.999802 L 188 88.999802 L 188 166.999802 L 128 196.999802 L 68 166.999802 L 68 88.999802 Z"/>
    <path id="path1" fill="#ffffff" stroke="none" d="M 212 44 L 208 44 L 48 44 L 44 44 L 44 48 L 44 208 L 44 212 L 48 212 L 208 212 L 212 212 L 212 208 L 212 48 Z M 208 208 L 48 208 L 48 48 L 208 48 Z"/>
</svg>
