<?xml version="1.0" encoding="UTF-8"?>
<!-- Generated by Pixelmator Pro 3.7.1 -->
<svg width="256" height="256" viewBox="0 0 256 256" xmlns="http://www.w3.org/2000/svg">
    <path id="Path" fill="#ffffff" stroke="none" d="M 172 116 L 172 124 L 172 188 L 84 188 L 84 68 L 96 68 L 124 68 L 128 68 L 128 96 L 104 96 L 104 92 L 104 88 L 104 84 L 100 84 L 100 88 L 96 88 L 96 84 L 92 84 L 92 88 L 92 92 L 92 96 L 92 100 L 92 104 L 92 108 L 92 112 L 92 116 L 92 120 L 92 124 L 92 128 L 92 132 L 92 136 L 92 140 L 92 144 L 92 148 L 92 152 L 92 156 L 92 160 L 92 164 L 92 168 L 92 172 L 92 176 L 92 180 L 96 180 L 100 180 L 104 180 L 104 176 L 104 172 L 104 168 L 104 164 L 152 164 L 152 168 L 152 172 L 152 176 L 152 180 L 156 180 L 160 180 L 164 180 L 164 176 L 164 172 L 164 168 L 164 164 L 164 160 L 164 156 L 164 152 L 164 148 L 164 144 L 164 140 L 164 136 L 164 132 L 164 128 L 164 124 L 164 120 L 164 116 L 164 112 L 172 112 Z M 156 116 L 160 116 L 160 120 L 156 120 Z M 156 124 L 160 124 L 160 128 L 156 128 Z M 156 132 L 160 132 L 160 136 L 156 136 Z M 156 140 L 160 140 L 160 144 L 156 144 Z M 156 148 L 160 148 L 160 152 L 156 152 Z M 156 156 L 160 156 L 160 160 L 156 160 Z M 104 156 L 104 152 L 104 148 L 104 144 L 104 140 L 104 136 L 104 132 L 152 132 L 152 136 L 152 140 L 152 144 L 152 148 L 152 152 L 152 156 L 152 160 L 104 160 Z M 100 152 L 96 152 L 96 148 L 100 148 Z M 100 144 L 96 144 L 96 140 L 100 140 Z M 100 136 L 96 136 L 96 132 L 100 132 Z M 100 128 L 96 128 L 96 124 L 100 124 Z M 100 120 L 96 120 L 96 116 L 100 116 Z M 100 112 L 96 112 L 96 108 L 100 108 Z M 96 92 L 100 92 L 100 96 L 96 96 Z M 100 104 L 96 104 L 96 100 L 100 100 Z M 152 116 L 152 120 L 152 124 L 152 128 L 104 128 L 104 124 L 104 120 L 104 116 L 104 112 L 104 108 L 104 104 L 104 100 L 128 100 L 128 112 L 152 112 Z M 96 156 L 100 156 L 100 160 L 96 160 Z M 100 176 L 96 176 L 96 172 L 100 172 Z M 96 164 L 100 164 L 100 168 L 96 168 Z M 160 176 L 156 176 L 156 172 L 160 172 Z M 156 164 L 160 164 L 160 168 L 156 168 Z M 132 73.656998 L 166.343002 108 L 164 108 L 160 108 L 156 108 L 152 108 L 132 108 L 132 100 L 132 96 Z M 176 112 L 128 64 L 80 64 L 80 192 L 176 192 Z"/>
    <path id="path1" fill="#ffffff" stroke="none" d="M 216 216 L 40 216 L 40 40 L 216 40 Z M 36 220 L 220 220 L 220 36 L 36 36 Z"/>
</svg>
