<?xml version="1.0" encoding="UTF-8"?>
<!-- Generated by Pixelmator Pro 3.7.1 -->
<svg width="256" height="256" viewBox="0 0 256 256" xmlns="http://www.w3.org/2000/svg">
    <path id="Path" fill="#ffffff" stroke="none" d="M 98.420403 164 C 97.108398 164 96.000397 163.109009 96.000397 162.056 L 96.000397 133.944 C 96.000397 132.890991 97.108398 132 98.420403 132 L 157.579407 132 C 158.891403 132 160.000397 132.890991 160.000397 133.944 L 160.000397 162.056 C 160.000397 163.109009 158.891403 164 157.579407 164 Z M 98.420403 120 C 97.108398 120 96.000397 119.109009 96.000397 118.054993 L 96.000397 89.945007 C 96.000397 88.890991 97.108398 88 98.420403 88 L 157.579407 88 C 158.891403 88 160.000397 88.890991 160.000397 89.945007 L 160.000397 118.054993 C 160.000397 119.109009 158.891403 120 157.579407 120 Z M 184.000397 56 L 180.000397 56 L 164.000397 56 L 160.000397 56 L 160.000397 60 L 160.000397 74.054993 C 160.000397 75.109009 158.891403 76 157.579407 76 L 98.420403 76 C 97.108398 76 96.000397 75.109009 96.000397 74.054993 L 96.000397 60 L 96.000397 56 L 92.000397 56 L 76.000397 56 L 72.000397 56 L 72.000397 60 L 72.000397 196 L 72.000397 200 L 76.000397 200 L 92.000397 200 L 96.000397 200 L 96.000397 196 L 96.000397 177.944 C 96.000397 176.890991 97.108398 176 98.420403 176 L 157.579407 176 C 158.891403 176 160.000397 176.890991 160.000397 177.944 L 160.000397 196 L 160.000397 200 L 164.000397 200 L 180.000397 200 L 184.000397 200 L 184.000397 196 L 184.000397 60 Z M 82.040398 192 L 86.120399 192 C 87.250397 192 88.1604 191.125 88.1604 190.037994 L 88.1604 186.11499 C 88.1604 185.028 87.250397 184.153992 86.120399 184.153992 L 82.040398 184.153992 C 80.909401 184.153992 80.000397 185.028 80.000397 186.11499 L 80.000397 190.037994 C 80.000397 191.125 80.909401 192 82.040398 192 M 169.879395 192 L 173.960403 192 C 175.089401 192 176.000397 191.125 176.000397 190.037994 L 176.000397 186.11499 C 176.000397 185.028 175.089401 184.153992 173.960403 184.153992 L 169.879395 184.153992 C 168.750397 184.153992 167.839401 185.028 167.839401 186.11499 L 167.839401 190.037994 C 167.839401 191.125 168.750397 192 169.879395 192 M 82.040398 180 L 86.120399 180 C 87.250397 180 88.1604 179.125 88.1604 178.037994 L 88.1604 174.11499 C 88.1604 173.028 87.250397 172.153992 86.120399 172.153992 L 82.040398 172.153992 C 80.909401 172.153992 80.000397 173.028 80.000397 174.11499 L 80.000397 178.037994 C 80.000397 179.125 80.909401 180 82.040398 180 M 169.879395 180 L 173.960403 180 C 175.089401 180 176.000397 179.125 176.000397 178.037994 L 176.000397 174.11499 C 176.000397 173.028 175.089401 172.153992 173.960403 172.153992 L 169.879395 172.153992 C 168.750397 172.153992 167.839401 173.028 167.839401 174.11499 L 167.839401 178.037994 C 167.839401 179.125 168.750397 180 169.879395 180 M 82.040398 168 L 86.120399 168 C 87.250397 168 88.1604 167.125 88.1604 166.037994 L 88.1604 162.11499 C 88.1604 161.028 87.250397 160.153992 86.120399 160.153992 L 82.040398 160.153992 C 80.909401 160.153992 80.000397 161.028 80.000397 162.11499 L 80.000397 166.037994 C 80.000397 167.125 80.909401 168 82.040398 168 M 169.879395 168 L 173.960403 168 C 175.089401 168 176.000397 167.125 176.000397 166.037994 L 176.000397 162.11499 C 176.000397 161.028 175.089401 160.153992 173.960403 160.153992 L 169.879395 160.153992 C 168.750397 160.153992 167.839401 161.028 167.839401 162.11499 L 167.839401 166.037994 C 167.839401 167.125 168.750397 168 169.879395 168 M 82.040398 156 L 86.120399 156 C 87.250397 156 88.1604 155.125 88.1604 154.037994 L 88.1604 150.11499 C 88.1604 149.028 87.250397 148.153992 86.120399 148.153992 L 82.040398 148.153992 C 80.909401 148.153992 80.000397 149.028 80.000397 150.11499 L 80.000397 154.037994 C 80.000397 155.125 80.909401 156 82.040398 156 M 169.879395 156 L 173.960403 156 C 175.089401 156 176.000397 155.125 176.000397 154.037994 L 176.000397 150.11499 C 176.000397 149.028 175.089401 148.153992 173.960403 148.153992 L 169.879395 148.153992 C 168.750397 148.153992 167.839401 149.028 167.839401 150.11499 L 167.839401 154.037994 C 167.839401 155.125 168.750397 156 169.879395 156 M 82.040398 144 L 86.120399 144 C 87.250397 144 88.1604 143.125 88.1604 142.037994 L 88.1604 138.11499 C 88.1604 137.028 87.250397 136.153992 86.120399 136.153992 L 82.040398 136.153992 C 80.909401 136.153992 80.000397 137.028 80.000397 138.11499 L 80.000397 142.037994 C 80.000397 143.125 80.909401 144 82.040398 144 M 169.879395 144 L 173.960403 144 C 175.089401 144 176.000397 143.125 176.000397 142.037994 L 176.000397 138.11499 C 176.000397 137.028 175.089401 136.153992 173.960403 136.153992 L 169.879395 136.153992 C 168.750397 136.153992 167.839401 137.028 167.839401 138.11499 L 167.839401 142.037994 C 167.839401 143.125 168.750397 144 169.879395 144 M 98.420403 168 L 157.579407 168 C 161.125397 168 164.000397 165.337997 164.000397 162.056 L 164.000397 133.944 C 164.000397 130.660995 161.125397 128 157.579407 128 L 98.420403 128 C 94.874397 128 92.000397 130.660995 92.000397 133.944 L 92.000397 162.056 C 92.000397 165.337997 94.874397 168 98.420403 168 M 82.040398 132 L 86.120399 132 C 87.250397 132 88.1604 131.125 88.1604 130.037994 L 88.1604 126.115005 C 88.1604 125.028 87.250397 124.153992 86.120399 124.153992 L 82.040398 124.153992 C 80.909401 124.153992 80.000397 125.028992 80.000397 126.115005 L 80.000397 130.037994 C 80.000397 131.125 80.909401 132 82.040398 132 M 169.879395 132 L 173.960403 132 C 175.089401 132 176.000397 131.125 176.000397 130.037994 L 176.000397 126.115005 C 176.000397 125.028 175.089401 124.153992 173.960403 124.153992 L 169.879395 124.153992 C 168.750397 124.153992 167.839401 125.028992 167.839401 126.115005 L 167.839401 130.037994 C 167.839401 131.125 168.750397 132 169.879395 132 M 82.040398 120 L 86.120399 120 C 87.250397 120 88.1604 119.125 88.1604 118.039001 L 88.1604 114.115005 C 88.1604 113.028 87.250397 112.153992 86.120399 112.153992 L 82.040398 112.153992 C 80.909401 112.153992 80.000397 113.028992 80.000397 114.115005 L 80.000397 118.039001 C 80.000397 119.125 80.909401 120 82.040398 120 M 169.879395 120 L 173.960403 120 C 175.089401 120 176.000397 119.125 176.000397 118.039001 L 176.000397 114.115005 C 176.000397 113.028 175.089401 112.153992 173.960403 112.153992 L 169.879395 112.153992 C 168.750397 112.153992 167.839401 113.028992 167.839401 114.115005 L 167.839401 118.039001 C 167.839401 119.125 168.750397 120 169.879395 120 M 82.040398 108 L 86.120399 108 C 87.250397 108 88.1604 107.125 88.1604 106.039001 L 88.1604 102.115005 C 88.1604 101.028 87.250397 100.153992 86.120399 100.153992 L 82.040398 100.153992 C 80.909401 100.153992 80.000397 101.028992 80.000397 102.115005 L 80.000397 106.039001 C 80.000397 107.125 80.909401 108 82.040398 108 M 169.879395 108 L 173.960403 108 C 175.089401 108 176.000397 107.125 176.000397 106.039001 L 176.000397 102.115005 C 176.000397 101.028 175.089401 100.153992 173.960403 100.153992 L 169.879395 100.153992 C 168.750397 100.153992 167.839401 101.028992 167.839401 102.115005 L 167.839401 106.039001 C 167.839401 107.125 168.750397 108 169.879395 108 M 82.040398 96 L 86.120399 96 C 87.250397 96 88.1604 95.125 88.1604 94.039001 L 88.1604 90.11499 C 88.1604 89.028 87.250397 88.153992 86.120399 88.153992 L 82.040398 88.153992 C 80.909401 88.153992 80.000397 89.028992 80.000397 90.11499 L 80.000397 94.039001 C 80.000397 95.125 80.909401 96 82.040398 96 M 169.879395 96 L 173.960403 96 C 175.089401 96 176.000397 95.125 176.000397 94.039001 L 176.000397 90.11499 C 176.000397 89.028 175.089401 88.153992 173.960403 88.153992 L 169.879395 88.153992 C 168.750397 88.153992 167.839401 89.028992 167.839401 90.11499 L 167.839401 94.039001 C 167.839401 95.125 168.750397 96 169.879395 96 M 98.420403 124 L 157.579407 124 C 161.125397 124 164.000397 121.337997 164.000397 118.054993 L 164.000397 89.945007 C 164.000397 86.662003 161.125397 84 157.579407 84 L 98.420403 84 C 94.874397 84 92.000397 86.662003 92.000397 89.945007 L 92.000397 118.054993 C 92.000397 121.337997 94.874397 124 98.420403 124 M 82.040398 84 L 86.120399 84 C 87.250397 84 88.1604 83.125 88.1604 82.039001 L 88.1604 78.11499 C 88.1604 77.028 87.250397 76.153992 86.120399 76.153992 L 82.040398 76.153992 C 80.909401 76.153992 80.000397 77.028992 80.000397 78.11499 L 80.000397 82.039001 C 80.000397 83.125 80.909401 84 82.040398 84 M 169.879395 84 L 173.960403 84 C 175.089401 84 176.000397 83.125 176.000397 82.039001 L 176.000397 78.11499 C 176.000397 77.028 175.089401 76.153992 173.960403 76.153992 L 169.879395 76.153992 C 168.750397 76.153992 167.839401 77.028992 167.839401 78.11499 L 167.839401 82.039001 C 167.839401 83.125 168.750397 84 169.879395 84 M 82.040398 72 L 86.120399 72 C 87.250397 72 88.1604 71.125 88.1604 70.039001 L 88.1604 66.11499 C 88.1604 65.028 87.250397 64.153992 86.120399 64.153992 L 82.040398 64.153992 C 80.909401 64.153992 80.000397 65.028992 80.000397 66.11499 L 80.000397 70.039001 C 80.000397 71.125 80.909401 72 82.040398 72 M 169.879395 72 L 173.960403 72 C 175.089401 72 176.000397 71.125 176.000397 70.039001 L 176.000397 66.11499 C 176.000397 65.028 175.089401 64.153992 173.960403 64.153992 L 169.879395 64.153992 C 168.750397 64.153992 167.839401 65.028992 167.839401 66.11499 L 167.839401 70.039001 C 167.839401 71.125 168.750397 72 169.879395 72 M 180.000397 60 L 180.000397 196 L 164.000397 196 L 164.000397 177.944 C 164.000397 174.661011 161.126404 172 157.579407 172 L 98.420403 172 C 94.874397 172 92.000397 174.661011 92.000397 177.944 L 92.000397 196 L 76.000397 196 L 76.000397 60 L 92.000397 60 L 92.000397 74.054993 C 92.000397 77.337997 94.874397 80 98.420403 80 L 157.579407 80 C 161.126404 80 164.000397 77.337997 164.000397 74.054993 L 164.000397 60 L 180.000397 60"/>
    <path id="path1" fill="#ffffff" stroke="none" d="M 244 244 L 12 244 L 12 12 L 244 12 Z M 244 8 L 12 8 L 8 8 L 8 12 L 8 244 L 8 248 L 12 248 L 244 248 L 248 248 L 248 244 L 248 12 L 248 8 Z"/>
</svg>
