<?xml version="1.0" encoding="UTF-8"?>
<!-- Generated by Pixelmator Pro 3.7.1 -->
<svg width="256" height="256" viewBox="0 0 256 256" xmlns="http://www.w3.org/2000/svg">
    <path id="Path" fill="#ffffff" stroke="none" d="M 188 224 L 192 224 L 192 236 L 188 236 Z"/>
    <path id="path1" fill="#ffffff" stroke="none" d="M 180 228 L 184 228 L 184 236 L 180 236 Z"/>
    <path id="path2" fill="#ffffff" stroke="none" d="M 172 228 L 176 228 L 176 236 L 172 236 Z"/>
    <path id="path3" fill="#ffffff" stroke="none" d="M 164 228 L 168 228 L 168 236 L 164 236 Z"/>
    <path id="path4" fill="#ffffff" stroke="none" d="M 156 228 L 160 228 L 160 236 L 156 236 Z"/>
    <path id="path5" fill="#ffffff" stroke="none" d="M 148 228 L 152 228 L 152 236 L 148 236 Z"/>
    <path id="path6" fill="#ffffff" stroke="none" d="M 140 228 L 144 228 L 144 236 L 140 236 Z"/>
    <path id="path7" fill="#ffffff" stroke="none" d="M 124 228 L 128 228 L 128 236 L 124 236 Z"/>
    <path id="path8" fill="#ffffff" stroke="none" d="M 116 228 L 120 228 L 120 236 L 116 236 Z"/>
    <path id="path9" fill="#ffffff" stroke="none" d="M 108 228 L 112 228 L 112 236 L 108 236 Z"/>
    <path id="path10" fill="#ffffff" stroke="none" d="M 100 228 L 104 228 L 104 236 L 100 236 Z"/>
    <path id="path11" fill="#ffffff" stroke="none" d="M 92 228 L 96 228 L 96 236 L 92 236 Z"/>
    <path id="path12" fill="#ffffff" stroke="none" d="M 84 228 L 88 228 L 88 236 L 84 236 Z"/>
    <path id="path13" fill="#ffffff" stroke="none" d="M 76 228 L 80 228 L 80 236 L 76 236 Z"/>
    <path id="path14" fill="#ffffff" stroke="none" d="M 68 228 L 72 228 L 72 240 L 68 240 Z"/>
    <path id="path15" fill="#ffffff" stroke="none" d="M 132 228 L 136 228 L 136 240 L 132 240 Z"/>
    <path id="path16" fill="#ffffff" stroke="none" d="M 196 144 L 60 144 L 60 36 L 196 36 Z M 52 19.468994 C 52 15.343994 55.313 12 59.398998 12 L 103.228996 12 L 103.228996 15.742004 L 103.228996 23.225998 L 103.228996 26.026993 L 105.862999 26.985001 L 119.653999 32 L 60 32 L 56 32 L 56 36 L 56 144 L 56 148 L 60 148 L 196 148 L 200 148 L 200 144 L 200 36 L 200 32 L 196 32 L 135.966995 32 L 149.757996 26.985001 L 152.391006 26.026993 L 152.391006 23.225998 L 152.391006 15.742004 L 152.391006 12 L 196.600998 12 C 200.686996 12 204 15.343994 204 19.468994 L 204 236.531006 C 204 239.417999 202.375 241.916992 200 243.160004 L 200 240 L 200 163.636993 C 200 157.220001 194.908005 152 188.647995 152 L 67.351997 152 C 61.091999 152 56 157.220001 56 163.636993 L 56 240 L 56 243.160004 C 53.625 241.916992 52 239.417999 52 236.531006 Z M 107.228996 15.742004 L 148.391006 15.742004 L 148.391006 23.225998 L 127.810997 30.709 L 107.228996 23.225998 Z M 196 240 L 196 244 L 60 244 L 60 240 L 60 163.636993 C 60 159.419006 63.292 156 67.351997 156 L 188.647995 156 C 192.709 156 196 159.419006 196 163.636993 Z M 59.398998 248 L 196.600998 248 C 202.886002 248 208 242.854996 208 236.531006 L 208 19.468994 C 208 13.145004 202.886002 8 196.600998 8 L 59.398998 8 C 53.113998 8 48 13.145004 48 19.468994 L 48 236.531006 C 48 242.854996 53.113998 248 59.398998 248"/>
</svg>
