<?xml version="1.0" encoding="UTF-8"?>
<!-- Generated by Pixelmator Pro 3.7.1 -->
<svg width="256" height="256" viewBox="0 0 256 256" xmlns="http://www.w3.org/2000/svg">
    <path id="Path" fill="#ffffff" stroke="none" d="M 232 68 L 240 76 L 232 84 Z M 224 96 C 221.791 96 220 94.209 220 92 L 220 60 C 220 57.791 221.791 56 224 56 C 226.209 56 228 57.791 228 60 L 228 68 L 228 84 L 228 92 C 228 94.209 226.209 96 224 96 M 24 84 L 16 76 L 24 68 Z M 32 56 C 34.209 56 36 57.791 36 60 L 36 92 C 36 94.209 34.209 96 32 96 C 29.791 96 28 94.209 28 92 L 28 84 L 28 68 L 28 60 C 28 57.791 29.791 56 32 56 M 240 240 L 213.656998 240 L 214.828003 238.828003 L 222.828003 230.828003 L 225.893005 227.764999 C 229.391998 226.910995 232 223.757996 232 220 C 232 215.589005 228.410995 212 224 212 L 200 212 C 195.589005 212 192 215.589005 192 220 C 192 223.757996 194.608002 226.910995 198.106995 227.764999 L 201.171997 230.828003 L 209.171997 238.828003 L 210.343002 240 L 180 240 L 180 188 L 240 188 L 240 184 L 180 184 L 180 180 L 240 180 L 240 176 L 180 176 L 180 172 L 240 172 L 240 168 L 180 168 L 180 164 L 240 164 L 240 160 L 180 160 L 180 156 L 240 156 L 240 152 L 180 152 L 180 148 L 240 148 L 240 144 L 180 144 L 176 144 L 80 144 L 76 144 L 16 144 L 16 148 L 76 148 L 76 152 L 16 152 L 16 156 L 76 156 L 76 160 L 16 160 L 16 164 L 76 164 L 76 168 L 16 168 L 16 172 L 76 172 L 76 176 L 16 176 L 16 180 L 76 180 L 76 184 L 16 184 L 16 188 L 76 188 L 76 240 L 45.656998 240 L 46.828995 238.828003 L 54.828995 230.828003 L 57.893005 227.764999 C 61.391998 226.910995 64 223.757996 64 220 C 64 215.589005 60.410995 212 56 212 L 32 212 C 27.589005 212 24 215.589005 24 220 C 24 223.757996 26.608002 226.910995 30.106995 227.764999 L 33.171005 230.828003 L 41.171005 238.828003 L 42.343002 240 L 16 240 C 13.800003 240 12 238.199997 12 236 L 12 77.656998 L 13.171005 78.828995 L 21.171005 86.828995 L 24 89.656998 L 24 92 C 24 96.410995 27.589005 100 32 100 C 36.410995 100 40 96.410995 40 92 L 40 60 C 40 55.589005 36.410995 52 32 52 C 27.589005 52 24 55.589005 24 60 L 24 62.343002 L 21.171005 65.171005 L 13.171005 73.171005 L 12 74.343002 L 12 24 C 12 17.399994 17.399994 12 24 12 L 60 12 L 60 15.931 L 64 15.931 L 64 12 L 68 12 L 68 15.931 L 72 15.931 L 72 12 L 76 12 L 76 15.931 L 80 15.931 L 80 12 L 84 12 L 84 15.931 L 88 15.931 L 88 12 L 92 12 L 92 15.931 L 96 15.931 L 96 12 L 100 12 L 100 15.931 L 104 15.931 L 104 12 L 108 12 L 108 15.931 L 112 15.931 L 112 12 L 116 12 L 116 15.931 L 120 15.931 L 120 12 L 124 12 L 124 15.931 L 128 15.931 L 128 12 L 132 12 L 132 15.931 L 136 15.931 L 136 12 L 140 12 L 140 15.931 L 144 15.931 L 144 12 L 148 12 L 148 15.931 L 152 15.931 L 152 12 L 156 12 L 156 15.931 L 160 15.931 L 160 12 L 164 12 L 164 15.931 L 168 15.931 L 168 12 L 172 12 L 172 15.931 L 176 15.931 L 176 12 L 180 12 L 180 15.931 L 184 15.931 L 184 12 L 188 12 L 188 15.931 L 192 15.931 L 192 12 L 232 12 C 238.600006 12 244 17.399994 244 24 L 244 74.343002 L 242.828003 73.171005 L 234.828003 65.171005 L 232 62.343002 L 232 60 C 232 55.589005 228.410995 52 224 52 C 219.589005 52 216 55.589005 216 60 L 216 92 C 216 96.410995 219.589005 100 224 100 C 228.410995 100 232 96.410995 232 92 L 232 89.656998 L 234.828003 86.828995 L 242.828003 78.828995 L 244 77.656998 L 244 236 C 244 238.199997 242.199997 240 240 240 M 220 228 L 212 236 L 204 228 Z M 196 220 C 196 217.791 197.791 216 200 216 L 224 216 C 226.209 216 228 217.791 228 220 C 228 222.209 226.209 224 224 224 L 220 224 L 204 224 L 200 224 C 197.791 224 196 222.209 196 220 M 160 240 L 160 236 L 160 228 C 160 210.354996 145.644989 196 128 196 C 110.355003 196 96 210.354996 96 228 L 96 236 L 96 240 L 80 240 L 80 188 L 80 184 L 80 180 L 80 176 L 80 172 L 80 168 L 80 164 L 80 160 L 80 156 L 80 152 L 80 148 L 176 148 L 176 152 L 176 156 L 176 160 L 176 164 L 176 168 L 176 172 L 176 176 L 176 180 L 176 184 L 176 188 L 176 240 Z M 100 240 L 100 236 L 100 228 C 100 212.535995 112.536003 200 128 200 C 143.463989 200 156 212.535995 156 228 L 156 236 L 156 240 Z M 52 228 L 44 236 L 36 228 Z M 28 220 C 28 217.791 29.791 216 32 216 L 56 216 C 58.209 216 60 217.791 60 220 C 60 222.209 58.209 224 56 224 L 52 224 L 36 224 L 32 224 C 29.791 224 28 222.209 28 220 M 232 8 L 192 8 L 188 8 L 184 8 L 180 8 L 176 8 L 172 8 L 168 8 L 164 8 L 160 8 L 156 8 L 152 8 L 148 8 L 144 8 L 140 8 L 136 8 L 132 8 L 128 8 L 124 8 L 120 8 L 116 8 L 112 8 L 108 8 L 104 8 L 100 8 L 96 8 L 92 8 L 88 8 L 84 8 L 80 8 L 76 8 L 72 8 L 68 8 L 64 8 L 60 8 L 24 8 C 15.177994 8 8 15.178009 8 24 L 8 236 C 8 240.410995 11.589005 244 16 244 L 96 244 L 100 244 L 156 244 L 160 244 L 240 244 C 244.410995 244 248 240.410995 248 236 L 248 24 C 248 15.178009 240.822006 8 232 8"/>
    <path id="path1" fill="#ffffff" stroke="none" d="M 16 140 L 240 140 L 240 136 L 16 136 Z"/>
    <path id="path2" fill="#ffffff" stroke="none" d="M 125.6567 168 L 127.999702 165.656998 L 130.342697 168 Z M 115.999702 172 L 139.999695 172 L 127.999702 160 Z"/>
    <path id="path3" fill="#ffffff" stroke="none" d="M 225.101593 20 C 213.562607 27.664001 178.203598 48 127.999603 48 C 77.790596 48 42.426598 27.658005 30.898598 20 Z M 230.350601 21.235001 C 231.390594 20.483002 231.999603 19.281998 231.999603 17.998001 C 231.999603 16.895004 231.105606 16 230.001602 16 L 25.997597 16 C 24.8946 16 23.999596 16.895004 23.999596 17.998001 C 23.999596 19.281998 24.608604 20.483002 25.649605 21.235001 C 33.789604 27.115997 71.562599 52 127.999603 52 C 184.437592 52 222.210602 27.115997 230.350601 21.235001"/>
    <path id="path4" fill="#ffffff" stroke="none" d="M 84 216 L 88 216 L 88 152 L 84 152 Z"/>
    <path id="path5" fill="#ffffff" stroke="none" d="M 92 216 L 96 216 L 96 152 L 92 152 Z"/>
    <path id="path6" fill="#ffffff" stroke="none" d="M 100 192 L 104 192 L 104 152 L 100 152 Z"/>
    <path id="path7" fill="#ffffff" stroke="none" d="M 108 192 L 112 192 L 112 152 L 108 152 Z"/>
    <path id="path8" fill="#ffffff" stroke="none" d="M 144 192 L 148 192 L 148 152 L 144 152 Z"/>
    <path id="path9" fill="#ffffff" stroke="none" d="M 136 192 L 140 192 L 140 176 L 136 176 Z"/>
    <path id="path10" fill="#ffffff" stroke="none" d="M 116 192 L 120 192 L 120 176 L 116 176 Z"/>
    <path id="path11" fill="#ffffff" stroke="none" d="M 126 192 L 130 192 L 130 176 L 126 176 Z"/>
    <path id="path12" fill="#ffffff" stroke="none" d="M 136 156 L 140 156 L 140 152 L 136 152 Z"/>
    <path id="path13" fill="#ffffff" stroke="none" d="M 120 152 L 116 152 L 116 156 L 120 156 Z"/>
    <path id="path14" fill="#ffffff" stroke="none" d="M 130 152 L 126 152 L 126 156 L 130 156 Z"/>
    <path id="path15" fill="#ffffff" stroke="none" d="M 152 192 L 156 192 L 156 152 L 152 152 Z"/>
    <path id="path16" fill="#ffffff" stroke="none" d="M 160 216 L 164 216 L 164 152 L 160 152 Z"/>
    <path id="path17" fill="#ffffff" stroke="none" d="M 168 216 L 172 216 L 172 152 L 168 152 Z"/>
</svg>
