<?xml version="1.0" encoding="UTF-8"?>
<!-- Generated by Pixelmator Pro 3.7.1 -->
<svg width="256" height="256" viewBox="0 0 256 256" xmlns="http://www.w3.org/2000/svg">
    <path id="Path" fill="#ffffff" stroke="none" d="M 244 196.260696 C 244 198.367706 242.371002 200.1147 240.268005 200.251709 C 226.863998 201.1297 179.432007 203.999695 132 203.999695 C 84.057999 203.999695 30.251999 201.068695 15.761002 200.224701 C 13.645996 200.1017 12 198.350708 12 196.231705 L 12 67.999695 C 12 65.790695 13.791 63.999695 16 63.999695 L 28 63.999695 L 28 163.999695 C 28 163.999695 34.373001 164.334702 44 164.810699 L 44 201.555695 C 45.322006 201.583694 46.656006 201.612701 48 201.640701 L 48 165.006699 C 60.384003 165.611694 76.776001 166.377701 92 166.983704 L 92 203.350708 C 93.337997 203.369705 94.671005 203.390701 96 203.409698 L 96 167.139709 C 101.660004 167.357697 107.084 167.546692 112 167.692688 L 112 167.999695 L 116 167.999695 L 140 167.999695 L 144 167.999695 L 144 167.692688 C 175.494003 166.759705 228 163.999695 228 163.999695 L 228 63.999695 L 240 63.999695 C 242.209 63.999695 244 65.790695 244 67.999695 Z M 32 61.873703 C 32 60.819702 32.811996 59.946701 33.863998 59.878693 C 42.662994 59.311691 80.906998 56.92569 112 56.206696 L 112 60.186691 C 86.921005 60.689697 53.195999 62.098694 32 63.056702 Z M 140 56.122696 L 140 60.113693 C 135.639999 60.040695 131.591003 59.999695 128 59.999695 C 124.407997 59.999695 120.360001 60.040695 116 60.113693 L 116 56.122696 C 120.197998 56.044693 124.231003 55.999695 128 55.999695 C 131.768997 55.999695 135.802002 56.044693 140 56.122696 M 224 61.873703 L 224 63.056702 C 202.804993 62.098694 169.07901 60.689697 144 60.186691 L 144 56.206696 C 175.093002 56.92569 213.337997 59.311691 222.136002 59.878693 C 223.188004 59.946701 224 60.819702 224 61.873703 M 144 68.186691 L 144 64.186691 C 169.089996 64.691696 202.856003 66.104691 224 67.060699 L 224 71.056702 C 202.804993 70.098694 169.07901 68.689697 144 68.186691 M 144 76.186707 L 144 72.186707 C 169.089996 72.691696 202.856003 74.104706 224 75.060699 L 224 79.056702 C 202.804993 78.098694 169.07901 76.689697 144 76.186707 M 144 159.428696 L 144 156.410706 L 144 80.186707 C 169.089996 80.691696 202.856003 82.104706 224 83.060699 L 224 159.024689 C 224 160.093689 223.160004 160.974701 222.091995 161.022705 C 200.865997 161.975708 168.350006 163.320709 144 163.809692 Z M 112 68.186691 C 86.921005 68.689697 53.195999 70.098694 32 71.056702 L 32 67.060699 C 53.145004 66.104691 86.910995 64.690689 112 64.186691 Z M 128 67.999695 C 124.407997 67.999695 120.360001 68.040695 116 68.113693 L 116 64.113693 C 120.361 64.041702 124.410004 63.999695 128 63.999695 C 131.589996 63.999695 135.639008 64.041702 140 64.1147 L 140 68.113693 C 135.639999 68.040695 131.591003 67.999695 128 67.999695 M 112 76.186707 C 86.921005 76.689697 53.195999 78.098694 32 79.056702 L 32 75.060699 C 53.145004 74.104706 86.910995 72.690704 112 72.186707 Z M 128 75.999695 C 124.407997 75.999695 120.360001 76.040695 116 76.113693 L 116 72.113693 C 120.361 72.041702 124.410004 71.999695 128 71.999695 C 131.589996 71.999695 135.639008 72.041702 140 72.1147 L 140 76.113693 C 135.639999 76.040695 131.591003 75.999695 128 75.999695 M 140 155.302704 C 136.105011 154.274689 132.076996 153.730698 128 153.730698 C 123.922997 153.730698 119.894997 154.274689 116 155.302704 L 116 80.113693 C 120.361 80.041702 124.410004 79.999695 128 79.999695 C 131.589996 79.999695 135.639008 80.041702 140 80.1147 Z M 116 163.88269 L 116 159.428696 L 116.194 159.372696 C 120.026001 158.278702 124.013 157.730698 128 157.730698 C 131.987 157.730698 135.975006 158.278702 139.806 159.372696 L 140 159.428696 L 140 163.883698 C 135.638 163.955688 131.591003 163.996704 128 163.996704 C 124.408997 163.996704 120.362 163.955688 116 163.88269 M 33.888 161.021698 C 32.891006 160.9767 32.102005 160.203705 32 159.232697 L 32 83.060699 C 53.145004 82.104706 86.910995 80.690704 112 80.186707 L 112 156.410706 L 112 159.428696 L 112 163.809692 C 87.643005 163.320709 55.113007 161.974701 33.888 161.021698 M 240 59.999695 L 227.699005 59.999695 C 226.951996 57.734695 224.886993 56.047699 222.393997 55.886703 C 212.317001 55.237701 160.412003 51.999695 128 51.999695 C 95.587997 51.999695 43.682999 55.237701 33.606995 55.886703 C 31.113007 56.047699 29.048004 57.734695 28.300003 59.999695 L 16 59.999695 C 11.589005 59.999695 8 63.588699 8 67.999695 L 8 196.231705 C 8 200.463699 11.307007 203.971695 15.528 204.217697 C 30.768997 205.105698 84.207993 207.999695 132 207.999695 C 179.501007 207.999695 227.078995 205.124695 240.529007 204.243698 C 244.718994 203.969696 248 200.462708 248 196.260696 L 248 67.999695 C 248 63.588699 244.410995 59.999695 240 59.999695"/>
    <path id="path1" fill="#ffffff" stroke="none" d="M 210 192 C 204.477997 192 200 187.522003 200 182 C 200 181.654999 200.018005 181.313004 200.052002 180.977997 C 200.119995 180.304993 200.255005 179.652008 200.449005 179.026001 C 200.645004 178.399994 200.899002 177.800003 201.207001 177.233002 C 201.822006 176.100006 202.651001 175.098999 203.639008 174.283005 C 203.886002 174.080002 204.143005 173.888 204.408997 173.708008 C 204.940994 173.348999 205.509995 173.039001 206.106995 172.785995 C 207.304001 172.278992 208.619003 172 210 172 C 211.380997 172 212.695999 172.278992 213.893005 172.785995 C 214.490005 173.039001 215.059006 173.348999 215.591003 173.708008 C 215.856995 173.888 216.113998 174.080002 216.360992 174.283005 C 217.348999 175.098999 218.177994 176.100006 218.792999 177.233002 C 219.100998 177.800003 219.354996 178.399994 219.550995 179.026001 C 219.744995 179.652008 219.880005 180.304993 219.947998 180.977997 C 219.981995 181.313004 220 181.654999 220 182 C 220 187.522003 215.522003 192 210 192 M 223.369995 177.838989 C 223.100006 176.971008 222.742996 176.125 222.307999 175.324005 C 221.445999 173.737 220.302002 172.350006 218.906998 171.197998 C 218.563004 170.914001 218.199997 170.643005 217.830002 170.393997 C 217.082001 169.888 216.281006 169.453003 215.449997 169.10199 C 213.723007 168.371002 211.889008 168 210 168 C 208.110992 168 206.276993 168.371002 204.548996 169.10199 C 203.718994 169.453003 202.917999 169.888 202.169998 170.393997 C 201.800003 170.643005 201.436996 170.914001 201.093002 171.197998 C 199.697998 172.350006 198.554001 173.737 197.692001 175.324005 C 197.257004 176.125 196.899994 176.971008 196.630005 177.838989 C 196.354004 178.72699 196.166 179.645996 196.072006 180.572998 C 196.024002 181.044998 196 181.524002 196 182 C 196 189.720001 202.279999 196 210 196 C 217.720001 196 224 189.720001 224 182 C 224 181.524002 223.975998 181.044998 223.927994 180.572998 C 223.834 179.645996 223.645996 178.72699 223.369995 177.838989"/>
</svg>
