<?xml version="1.0" encoding="UTF-8"?>
<!-- Generated by Pixelmator Pro 3.7.1 -->
<svg width="256" height="256" viewBox="0 0 256 256" xmlns="http://www.w3.org/2000/svg">
    <path id="Path" fill="#ffffff" stroke="none" d="M 80 20 L 76 20 L 76 80 L 80 80 Z"/>
    <path id="path1" fill="#ffffff" stroke="none" d="M 88 20 L 84 20 L 84 80 L 88 80 Z"/>
    <path id="path2" fill="#ffffff" stroke="none" d="M 96 20 L 92 20 L 92 80 L 96 80 Z"/>
    <path id="path3" fill="#ffffff" stroke="none" d="M 104 20 L 100 20 L 100 80 L 104 80 Z"/>
    <path id="path4" fill="#ffffff" stroke="none" d="M 112 20 L 108 20 L 108 80 L 112 80 Z"/>
    <path id="path5" fill="#ffffff" stroke="none" d="M 120 20 L 116 20 L 116 80 L 120 80 Z"/>
    <path id="path6" fill="#ffffff" stroke="none" d="M 136 80 L 140 80 L 140 20 L 136 20 Z"/>
    <path id="path7" fill="#ffffff" stroke="none" d="M 144 80 L 148 80 L 148 20 L 144 20 Z"/>
    <path id="path8" fill="#ffffff" stroke="none" d="M 152 80 L 156 80 L 156 20 L 152 20 Z"/>
    <path id="path9" fill="#ffffff" stroke="none" d="M 160 80 L 164 80 L 164 20 L 160 20 Z"/>
    <path id="path10" fill="#ffffff" stroke="none" d="M 168 80 L 172 80 L 172 20 L 168 20 Z"/>
    <path id="path11" fill="#ffffff" stroke="none" d="M 176 80 L 180 80 L 180 20 L 176 20 Z"/>
    <path id="path12" fill="#ffffff" stroke="none" d="M 132 12 L 188 12 L 188 88 L 132 88 Z M 188 204 L 184 204 L 132 204 L 132 92 L 188 92 Z M 188 244 L 132 244 L 132 227.925003 C 143.912003 227.565002 155.960999 225.630005 166.326004 222.358002 C 172.735992 220.335999 184.007996 216.039001 187.472 209.987 L 188 209.063004 Z M 131.561996 209.31601 L 128.949005 220 C 128.796997 220.455994 128.397995 220.68399 128 220.68399 C 127.601997 220.68399 127.203003 220.455994 127.051003 220 L 124.438004 209.31601 C 124.223 208.669006 124.705002 208 125.388 208 L 130.612 208 C 131.294998 208 131.776993 208.669006 131.561996 209.31601 M 124 204 L 72 204 L 68 204 L 68 92 L 124 92 Z M 124 223.932007 C 97.558998 223.119995 75.697998 214.460999 72 208 L 120.496002 208 C 120.336998 208.776001 120.357002 209.587006 120.577003 210.363007 L 123.166 220.949997 L 123.205002 221.109009 L 123.257004 221.264999 C 123.43 221.785004 123.683998 222.261002 124 222.682999 Z M 124 244 L 68 244 L 68 209.063004 L 68.528 209.987 C 71.991997 216.039001 83.263 220.335999 89.672997 222.358002 C 100.040001 225.630005 112.087997 227.565002 124 227.925003 Z M 135.503998 208 L 184 208 C 180.302002 214.460999 158.440002 223.119995 132 223.932007 L 132 222.682999 C 132.315994 222.261002 132.570007 221.785004 132.742996 221.264999 L 132.794998 221.109009 L 132.834 220.949997 L 135.423004 210.363007 C 135.643005 209.587006 135.662003 208.776001 135.503998 208 M 68 12 L 124 12 L 124 88 L 68 88 Z M 188 8 L 132 8 L 128 8 L 124 8 L 68 8 L 64 8 L 64 12 L 64 244 L 64 248 L 68 248 L 124 248 L 128 248 L 132 248 L 188 248 L 192 248 L 192 244 L 192 92 L 192 88 L 192 12 L 192 8 Z"/>
</svg>
