<?xml version="1.0" encoding="UTF-8"?>
<!-- Generated by Pixelmator Pro 3.7.1 -->
<svg width="256" height="256" viewBox="0 0 256 256" xmlns="http://www.w3.org/2000/svg">
    <path id="Path" fill="#ffffff" stroke="none" d="M 228 56 L 28 56 C 25.791 56 24 57.791 24 60 L 24 88 L 24 96 L 232 96 L 232 88 L 232 60 C 232 57.791 230.209 56 228 56 M 228 60 L 228 88 L 228 92 L 28 92 L 28 88 L 28 60 L 228 60"/>
    <path id="path1" fill="#ffffff" stroke="none" d="M 104 64 L 32 64 L 32 88 L 104 88 Z M 100 84 L 36 84 L 36 68 L 100 68 Z"/>
    <path id="path2" fill="#ffffff" stroke="none" d="M 224 64 L 152 64 L 152 88 L 224 88 Z M 220 84 L 156 84 L 156 68 L 220 68 Z"/>
    <path id="path3" fill="#ffffff" stroke="none" d="M 148 64 L 108 64 L 108 80 L 148 80 Z M 144 76 L 112 76 L 112 68 L 144 68 Z"/>
    <path id="path4" fill="#ffffff" stroke="none" d="M 168 168 L 172 168 L 172 150 L 168 150 Z"/>
    <path id="path5" fill="#ffffff" stroke="none" d="M 176 164 L 180 164 L 180 150 L 176 150 Z"/>
    <path id="path6" fill="#ffffff" stroke="none" d="M 184 164 L 188 164 L 188 150 L 184 150 Z"/>
    <path id="path7" fill="#ffffff" stroke="none" d="M 192 168 L 196 168 L 196 150 L 192 150 Z"/>
    <path id="path8" fill="#ffffff" stroke="none" d="M 74 100 C 94.953003 100 112 117.046997 112 138 C 112 145.102005 110.037003 151.751007 106.632004 157.442993 C 101.682999 153.919998 90.862999 148 74 148 C 57.137001 148 46.317001 153.919998 41.368 157.442993 C 37.963001 151.751007 36 145.102005 36 138 C 36 117.046997 53.047001 100 74 100 M 74 176 C 61.585999 176 50.543999 170.015991 43.605 160.781006 C 48.004997 157.647995 58.130001 152 74 152 C 89.877998 152 100.004997 157.653992 104.395004 160.778992 C 97.457001 170.014999 86.415001 176 74 176 M 32 138 C 32 146.067001 34.278999 153.602005 38.223 160 C 38.223 160 46 180 74 180 C 102 180 109.777 160 109.777 160 C 113.721001 153.602005 116 146.067001 116 138 C 116 114.804001 97.195999 96 74 96 C 50.804001 96 32 114.804001 32 138"/>
    <path id="path9" fill="#ffffff" stroke="none" d="M 114 168 C 112.896004 168 112 167.104004 112 166 C 112 164.895996 112.896004 164 114 164 C 115.103996 164 116 164.895996 116 166 C 116 167.104004 115.103996 168 114 168 M 112 180 C 109.791 180 108 178.209 108 176 C 108 173.791 109.791 172 112 172 C 114.209 172 116 173.791 116 176 C 116 178.209 114.209 180 112 180 M 114 160 C 110.691002 160 108 162.69101 108 166 C 108 166.983002 108.237999 167.912003 108.658997 168.731003 C 105.911003 170 104 172.779999 104 176 C 104 180.411011 107.588997 184 112 184 C 116.411003 184 120 180.411011 120 176 C 120 173.908997 119.194 172.002991 117.875999 170.575989 C 119.173996 169.475006 120 167.832001 120 166 C 120 162.69101 117.308998 160 114 160"/>
    <path id="path10" fill="#ffffff" stroke="none" d="M 210 160 L 210 121.862 C 210 107.578995 197.464005 96 182 96 C 166.535995 96 154 107.578995 154 121.862 L 154 160 L 136 160 L 136 120 L 144 120 L 144 134 C 144 135.104004 144.895996 136 146 136 L 144.069 136 L 146.070007 136 C 147.136002 136 148 135.136002 148 134.070007 L 148 116 L 136 116 L 136 96 L 182 96 L 228 96 L 228 116 L 216 116 L 216 134.070007 C 216 135.136002 216.863998 136 217.929993 136 L 217.931 136 L 218 136 C 219.104004 136 220 135.104004 220 134 L 220 120 L 228 120 L 228 160 Z M 228 168 L 210 168 L 210 164 L 228 164 Z M 228 176 L 210 176 L 210 172 L 228 172 Z M 228 184 L 226.069 184 L 226.069 182 C 226.069 181.298004 225.940994 180.626999 225.718994 180 L 228 180 Z M 218.069 184 L 218.069 182 C 218.069 180.895996 218.964996 180 220.069 180 C 221.173996 180 222.069 180.895996 222.069 182 L 222.069 184 Z M 210 184 L 210 180 L 214.419006 180 C 214.195999 180.626999 214.069 181.298004 214.069 182 L 214.069 184 Z M 198.069 184 L 198.069 181.104004 C 198.069 172.242996 190.860001 165.033997 182 165.033997 C 173.139999 165.033997 165.931 172.242996 165.931 181.104004 L 165.931 184 L 160 184 L 158 184 L 158 148 L 206 148 L 206 184 Z M 176.944 184 L 169.931 184 L 169.931 181.104004 C 169.931 174.438004 175.334 169.033997 182 169.033997 C 188.666 169.033997 194.069 174.438004 194.069 181.104004 L 194.069 184 Z M 152 192 L 152 188 L 154 188 L 160 188 Z M 149.718994 180 L 154 180 L 154 184 L 152 184 L 150.069 184 L 150.069 182 C 150.069 181.298004 149.94101 180.626999 149.718994 180 M 142.069 184 L 142.069 182 C 142.069 180.895996 142.964996 180 144.069 180 C 145.174011 180 146.069 180.895996 146.069 182 L 146.069 184 L 146 184 Z M 136 184 L 136 180 L 138.419006 180 C 138.195999 180.626999 138.069 181.298004 138.069 182 L 138.069 184 Z M 154 168 L 136 168 L 136 164 L 154 164 Z M 136 172 L 154 172 L 154 176 L 136 176 Z M 206 144 L 158 144 L 158 121.862 C 158 109.807007 168.766998 100 182 100 C 195.233002 100 206 109.807007 206 121.862 Z M 132 184 L 124 184 L 124 96 L 130 96 L 132 96 L 132 160 L 132 164 L 132 168 L 132 172 L 132 176 L 132 180 Z M 120 166 L 120 176 L 120 184 L 112 184 L 108 184 L 104 184 L 96 184 L 79.056 184 L 41.981003 184 C 43.242004 182.326004 44 180.252991 44 178 C 44 172.485992 39.514008 168 34 168 C 31.748001 168 29.673996 168.757996 28 170.020004 L 28 96 L 74 96 L 120 96 Z M 104 192 L 96 188 L 104 188 Z M 34 184 C 30.686996 184 28 181.313004 28 178 C 28 174.686996 30.686996 172 34 172 C 37.313004 172 40 174.686996 40 178 C 40 181.313004 37.313004 184 34 184 M 228 92 L 136 92 L 130 92 L 124 92 L 120 92 L 24 92 L 24 184 C 24 186.209 25.791 188 28 188 L 87.056 188 L 94.210999 191.578003 L 102.210999 195.578003 L 108 198.472 L 108 192 L 108 188 L 120 188 L 136 188 L 138 188 L 138.069 188 L 142.069 188 L 146.069 188 L 148 188 L 148 192 L 148 198.472 L 153.789001 195.578003 L 161.789001 191.578003 L 168.944 188 L 169.931 188 L 194.069 188 L 198.069 188 L 210 188 L 214.069 188 L 218.069 188 L 222.069 188 L 226.069 188 L 228 188 L 232 188 L 232 184 L 232 180 L 232 176 L 232 172 L 232 168 L 232 164 L 232 160 L 232 96 L 232 92 Z"/>
</svg>
