<?xml version="1.0" encoding="UTF-8"?>
<!-- Generated by Pixelmator Pro 3.7.1 -->
<svg width="256" height="256" viewBox="0 0 256 256" xmlns="http://www.w3.org/2000/svg">
    <path id="Path" fill="#ffffff" stroke="none" d="M 210 172 C 215.522003 172 220 176.477997 220 182 C 220 187.522003 215.522003 192 210 192 C 204.477997 192 200 187.522003 200 182 C 200 176.477997 204.477997 172 210 172 M 244 73.990997 C 244 75.067993 243.123993 76 242.050995 76 C 242.042999 76 242.033997 76 242.026001 76 L 242 76 C 240.746994 76 239.763 77.152008 240.050995 78.455994 C 240.255997 79.386002 241.153992 80 242.106995 80 L 242.110001 80 C 243.153992 80 244 80.845001 244 81.908997 L 244 81.990997 C 244 83.067993 243.123993 84 242.050995 84 C 242.042999 84 242.033997 84 242.026001 84 L 242 84 C 240.746994 84 239.763 85.152008 240.050995 86.455994 C 240.255997 87.386002 241.153992 88 242.106995 88 L 242.110001 88 C 243.153992 88 244 88.845001 244 89.908997 L 244 89.990997 C 244 91.067993 243.123993 92 242.050995 92 C 242.042999 92 242.033997 92 242.026001 92 L 242 92 C 240.746994 92 239.763 93.152008 240.050995 94.455994 C 240.255997 95.386002 241.153992 96 242.106995 96 L 242.110001 96 C 243.153992 96 244 96.845001 244 97.908997 L 244 97.990997 C 244 99.067993 243.123993 100 242.050995 100 C 242.042999 100 242.033997 100 242.026001 100 L 242 100 C 240.746994 100 239.763 101.152008 240.050995 102.455994 C 240.255997 103.386002 241.153992 104 242.106995 104 L 242.110001 104 C 243.153992 104 244 104.846008 244 105.889999 L 244 106.110001 C 244 107.153992 243.153992 108 242.110001 108 L 242 108 C 240.785004 108 239.822998 109.083008 240.027008 110.335999 C 240.186996 111.319 241.110992 112 242.106995 112 L 242.110001 112 C 243.153992 112 244 112.846008 244 113.889999 L 244 114.110001 C 244 115.153992 243.153992 116 242.110001 116 L 242 116 C 240.785004 116 239.822998 117.083008 240.027008 118.335999 C 240.186996 119.319 241.110992 120 242.106995 120 L 242.110001 120 C 243.153992 120 244 120.846008 244 121.889999 L 244 122.110001 C 244 123.153992 243.153992 124 242.110001 124 L 242 124 C 240.785004 124 239.822998 125.083008 240.027008 126.335999 C 240.186996 127.319 241.110992 128 242.106995 128 L 242.110001 128 C 243.153992 128 244 128.846008 244 129.889999 L 244 130.110001 C 244 131.153992 243.153992 132 242.110001 132 L 242 132 C 240.785004 132 239.822998 133.083008 240.027008 134.335999 C 240.186996 135.319 241.110992 136 242.106995 136 L 242.110001 136 C 243.153992 136 244 136.846008 244 137.889999 L 244 138.110001 C 244 139.153992 243.153992 140 242.110001 140 L 242 140 C 240.785004 140 239.822998 141.083008 240.027008 142.335999 C 240.186996 143.319 241.110992 144 242.106995 144 L 242.110001 144 C 243.153992 144 244 144.846008 244 145.889999 L 244 146.110001 C 244 147.153992 243.153992 148 242.110001 148 L 242 148 C 240.785004 148 239.822998 149.083008 240.027008 150.335999 C 240.186996 151.319 241.110992 152 242.106995 152 L 242.110001 152 C 243.153992 152 244 152.846008 244 153.889999 L 244 154.110001 C 244 155.153992 243.153992 156 242.110001 156 L 242 156 C 240.785004 156 239.822998 157.083008 240.027008 158.335999 C 240.186996 159.319 241.110001 160 242.106995 160 L 242.110001 160 C 243.153992 160 244 160.846008 244 161.889999 L 244 162.110001 C 244 163.153992 243.153992 164 242.110001 164 L 242 164 C 240.785004 164 239.822998 165.083008 240.027008 166.335999 C 240.186996 167.319 241.110001 168 242.106995 168 L 242.110001 168 C 243.153992 168 244 168.846008 244 169.889999 L 244 170.110001 C 244 171.153992 243.153992 172 242.110001 172 L 242 172 C 240.785004 172 239.822998 173.083008 240.027008 174.335999 C 240.186996 175.319 241.110001 176 242.106995 176 L 242.110001 176 C 243.153992 176 244 176.846008 244 177.889999 L 244 178.110001 C 244 179.153992 243.153992 180 242.110001 180 L 242 180 C 240.785004 180 239.822998 181.083008 240.027008 182.335999 C 240.186996 183.319 241.110001 184 242.106995 184 L 242.110001 184 C 243.153992 184 244 184.846008 244 185.889999 L 244 186.110001 C 244 187.153992 243.153992 188 242.110001 188 L 242 188 C 240.785004 188 239.822998 189.083008 240.027008 190.335999 C 240.186996 191.319 241.110001 192 242.106995 192 L 242.110001 192 C 243.153992 192 244 192.846008 244 193.889999 L 244 194.110001 C 244 195.153992 243.153992 196 242.110001 196 L 242.106995 196 C 241.110001 196 240.186996 196.681 240.027008 197.664001 C 239.822998 198.916992 240.785004 200 242 200 L 242.110001 200 C 243.153992 200 244 200.846008 244 201.889999 L 244 202.110001 C 244 203.153992 243.153992 204 242.110001 204 L 96 204 L 96 184 L 196.160004 184 C 197.136002 190.77301 202.960999 196 210 196 C 217.720001 196 224 189.720001 224 182 C 224 174.279999 217.720001 168 210 168 C 202.960999 168 197.136002 173.22699 196.160004 180 L 96 180 L 96 164 L 116 164 L 118 164 L 224 164 L 228 164 L 228 64 L 242 64 C 243.208008 64 244.166 65.070007 243.975998 66.313995 C 243.828003 67.28299 242.940002 67.981003 241.960999 68 C 240.729004 68.024002 239.768997 69.162994 240.048996 70.449997 C 240.251999 71.382004 241.152008 72 242.106995 72 L 242.110001 72 C 243.153992 72 244 72.845001 244 73.908997 Z M 48 204 L 48 184 L 60 184 L 62.585999 186.585999 C 63.367004 187.367004 64.632996 187.367004 65.414001 186.585999 L 68 184 L 70.585999 186.585999 C 71.367004 187.367004 72.632996 187.367004 73.414001 186.585999 L 76 184 L 78.585999 186.585999 C 79.367004 187.367004 80.632996 187.367004 81.414001 186.585999 L 84 184 L 92 184 L 92 204 Z M 36 184 L 44 184 L 44 204 L 36 204 Z M 14 204 C 12.792007 204 11.834 202.929993 12.024002 201.686005 C 12.171997 200.716995 13.059998 200.018997 14.039993 200 C 15.272003 199.975998 16.231003 198.837006 15.951004 197.550003 C 15.748001 196.617004 14.848007 196 13.893005 196 L 13.889999 196 C 12.845993 196 12 195.154999 12 194.091003 L 12 194.001007 C 12 192.931 12.869003 191.998993 13.936005 191.998993 C 13.945007 191.998993 13.955994 192 13.966003 192 L 14 192 C 15.253006 192 16.237 190.847992 15.949997 189.544006 C 15.744003 188.613998 14.845993 188 13.893005 188 L 13.889999 188 C 12.845993 188 12 187.154999 12 186.091003 L 12 186.001007 C 12 184.931 12.869003 183.998993 13.936005 183.998993 C 13.945999 183.998993 13.955994 184 13.966003 184 L 14 184 C 15.253006 184 16.237 182.847992 15.949997 181.544998 C 15.744003 180.613998 14.845001 180 13.893005 180 L 13.889999 180 C 12.845993 180 12 179.154999 12 178.091003 L 12 178.009003 C 12 176.932007 12.875 176 13.949005 176 L 13.973999 176 L 14 176 C 15.253006 176 16.237 174.847992 15.949997 173.544006 C 15.744003 172.613998 14.845001 172 13.893005 172 L 13.889999 172 C 12.845993 172 12 171.154999 12 170.091003 L 12 170.009003 C 12 168.932007 12.875 168 13.949005 168 L 13.973999 168 L 14 168 C 15.253006 168 16.237 166.847992 15.949997 165.544006 C 15.744003 164.613998 14.845001 164 13.893005 164 L 13.889999 164 C 12.845993 164 12 163.154999 12 162.091003 L 12 162.009003 C 12 160.932007 12.875 160 13.949005 160 L 13.973999 160 L 14 160 C 15.253006 160 16.237 158.847992 15.949997 157.544006 C 15.744003 156.613998 14.845001 156 13.893005 156 L 13.889999 156 C 12.845993 156 12 155.154999 12 154.091003 L 12 154.009003 C 12 152.932007 12.875 152 13.949005 152 L 13.973999 152 L 14 152 C 15.253006 152 16.237 150.847992 15.949997 149.544006 C 15.744003 148.613998 14.845001 148 13.893005 148 L 13.889999 148 C 12.845993 148 12 147.154999 12 146.091003 L 12 146.009003 C 12 144.932007 12.875 144 13.949005 144 L 13.973999 144 L 14 144 C 15.253006 144 16.237 142.847992 15.949997 141.544006 C 15.744003 140.613998 14.845001 140 13.893005 140 L 13.889999 140 C 12.845993 140 12 139.154999 12 138.091003 L 12 138.009003 C 12 136.932007 12.875 136 13.949005 136 L 13.973999 136 L 14 136 C 15.253006 136 16.237 134.847992 15.949997 133.544006 C 15.744003 132.613998 14.845001 132 13.893005 132 L 13.889999 132 C 12.845993 132 12 131.154999 12 130.091003 L 12 130.009003 C 12 128.932007 12.875 128 13.949005 128 C 13.957001 128 13.964996 128 13.973999 128 L 14 128 C 15.253006 128 16.237 126.847 15.949997 125.544006 C 15.744003 124.613998 14.845001 124 13.893005 124 L 13.889999 124 C 12.845993 124 12 123.154999 12 122.091003 L 12 122.009003 C 12 120.932007 12.875 120 13.949005 120 C 13.957001 120 13.964996 120 13.973999 120 L 14 120 C 15.253006 120 16.237 118.847 15.949997 117.544006 C 15.744003 116.613998 14.845001 116 13.893005 116 L 13.889999 116 C 12.845993 116 12 115.154999 12 114.091003 L 12 114.009003 C 12 112.932007 12.875 112 13.949005 112 C 13.957001 112 13.964996 112 13.973999 112 L 14 112 C 15.253006 112 16.237 110.847 15.949997 109.544006 C 15.744003 108.613998 14.845001 108 13.893005 108 L 13.889999 108 C 12.845993 108 12 107.154999 12 106.091003 L 12 106.009003 C 12 104.932007 12.875 104 13.949005 104 C 13.957001 104 13.964996 104 13.973999 104 L 14 104 C 15.253006 104 16.237 102.847 15.949997 101.544006 C 15.744003 100.613998 14.845001 100 13.893005 100 L 13.889999 100 C 12.845993 100 12 99.154999 12 98.091003 L 12 98.009003 C 12 96.932007 12.875 96 13.949005 96 C 13.957001 96 13.964996 96 13.973999 96 L 14 96 C 15.253006 96 16.237 94.847 15.949997 93.544006 C 15.744003 92.613998 14.845001 92 13.893005 92 L 13.889999 92 C 12.845993 92 12 91.154999 12 90.091003 L 12 90.009003 C 12 88.932007 12.875 88 13.949005 88 C 13.957001 88 13.964996 88 13.973999 88 L 14 88 C 15.253006 88 16.237 86.847 15.949997 85.544006 C 15.744003 84.613998 14.845001 84 13.893005 84 L 13.889999 84 C 12.845993 84 12 83.154999 12 82.091003 L 12 82.009003 C 12 80.932007 12.875 80 13.949005 80 C 13.957001 80 13.964996 80 13.973999 80 L 14 80 C 15.253006 80 16.237 78.847 15.949997 77.544006 C 15.744003 76.613998 14.845001 76 13.893005 76 L 13.889999 76 C 12.845993 76 12 75.154999 12 74.091003 L 12 74.02301 C 12 72.940002 12.882004 72 13.962997 72 L 13.981003 72 L 14 72 C 15.253006 72 16.237 70.847 15.949997 69.544006 C 15.744995 68.613998 14.845993 68 13.893005 68 L 13.889999 68 C 12.845993 68 12 67.153992 12 66.110001 L 12 66 C 12 64.895996 12.895996 64 14 64 L 20 64 L 20 164 L 24 164 L 24 64 L 28 64 L 28 164 L 32 164 L 44 164 L 44 180 L 36 180 L 34 180 C 32.895996 180 32 180.895996 32 182 L 32 204 Z M 92 180 L 88 180 L 80.001999 180.001999 L 77.414001 177.414001 C 76.632996 176.632996 75.367004 176.632996 74.585999 177.414001 L 72 180 L 69.414001 177.414001 C 68.632996 176.632996 67.367004 176.632996 66.585999 177.414001 L 64 180 L 61.414001 177.414001 C 60.632996 176.632996 59.367004 176.632996 58.585999 177.414001 L 56 180 L 48 180 L 48 164 L 92 164 Z M 32 58 C 32 56.895996 32.895996 56 34 56 L 116 56 L 116 160 L 32 160 L 32 64 L 32 60 Z M 222 56 C 223.104004 56 224 56.895996 224 58 L 224 64 L 224 160 L 120 160 L 120 56 Z M 248 73.908997 C 248 72.395996 247.431 71.014999 246.494995 69.968002 C 247.238998 69.132996 247.751999 68.087006 247.931 66.916992 C 248.195007 65.178009 247.692993 63.419006 246.552002 62.091003 C 245.410004 60.761993 243.751007 60 242 60 L 228 60 L 228 58 C 228 54.69101 225.309006 52 222 52 L 34 52 C 30.690994 52 28 54.69101 28 58 L 28 60 L 14 60 C 10.690994 60 8 62.69101 8 66 L 8 66.110001 C 8 67.617996 8.569 68.994995 9.505005 70.037994 C 8.531998 71.144989 8 72.550003 8 74.02301 L 8 74.091003 C 8 75.602997 8.569 76.983002 9.503006 78.029999 C 8.531998 79.134003 8 80.537003 8 82.009003 L 8 82.091003 C 8 83.602997 8.569 84.983002 9.503006 86.029999 C 8.531998 87.134003 8 88.537003 8 90.009003 L 8 90.091003 C 8 91.602997 8.569 92.983002 9.503006 94.029999 C 8.531998 95.134003 8 96.537003 8 98.009003 L 8 98.091003 C 8 99.602997 8.569 100.983002 9.503006 102.029999 C 8.531998 103.134003 8 104.537003 8 106.009003 L 8 106.091003 C 8 107.602997 8.569 108.983002 9.503006 110.029999 C 8.531998 111.134003 8 112.537003 8 114.009003 L 8 114.091003 C 8 115.602997 8.569 116.983002 9.503006 118.029999 C 8.531998 119.134003 8 120.537003 8 122.009003 L 8 122.091003 C 8 123.602997 8.569 124.983002 9.503006 126.029999 C 8.531998 127.134003 8 128.537003 8 130.009003 L 8 130.091003 C 8 131.602997 8.569 132.983002 9.503006 134.028992 C 8.531998 135.134995 8 136.537003 8 138.009003 L 8 138.091003 C 8 139.602997 8.569 140.983002 9.503006 142.028992 C 8.531998 143.13501 8 144.537003 8 146.009003 L 8 146.091003 C 8 147.602997 8.569 148.983002 9.503006 150.028992 C 8.531998 151.13501 8 152.537003 8 154.009003 L 8 154.091003 C 8 155.602997 8.569 156.983002 9.503006 158.028992 C 8.531998 159.13501 8 160.537003 8 162.009003 L 8 162.091003 C 8 163.602997 8.569 164.983002 9.503006 166.028992 C 8.531998 167.13501 8 168.537003 8 170.009003 L 8 170.091003 C 8 171.602997 8.569 172.983002 9.503006 174.028992 C 8.531998 175.13501 8 176.537003 8 178.009003 L 8 178.091003 C 8 179.60199 8.567993 180.981003 9.5 182.026001 C 8.531006 183.130997 8 184.531998 8 186.001007 L 8 186.091003 C 8 187.60199 8.567993 188.981003 9.5 190.026001 C 8.531006 191.130997 8 192.531998 8 194.001007 L 8 194.091003 C 8 195.604004 8.569 196.985001 9.505005 198.031998 C 8.761002 198.867004 8.248001 199.912994 8.070007 201.082001 C 7.804993 202.820999 8.307007 204.580994 9.447998 205.908997 C 10.589996 207.238007 12.248993 208 14 208 L 242.110001 208 C 245.356995 208 248 205.356995 248 202.110001 L 248 201.889999 C 248 200.399994 247.444 199.037994 246.528992 198 C 247.444 196.962006 248 195.600006 248 194.110001 L 248 193.889999 C 248 192.399994 247.444 191.037994 246.528992 190 C 247.444 188.962006 248 187.600006 248 186.110001 L 248 185.889999 C 248 184.399994 247.444 183.037994 246.528992 182 C 247.444 180.962006 248 179.600006 248 178.110001 L 248 177.889999 C 248 176.399994 247.444 175.037994 246.528992 174 C 247.444 172.962006 248 171.600006 248 170.110001 L 248 169.889999 C 248 168.399994 247.444 167.037994 246.528992 166 C 247.444 164.962006 248 163.600006 248 162.110001 L 248 161.889999 C 248 160.399994 247.444 159.037994 246.528992 158 C 247.444 156.962006 248 155.600006 248 154.110001 L 248 153.889999 C 248 152.399994 247.444 151.037994 246.528992 150 C 247.444 148.962006 248 147.600006 248 146.110001 L 248 145.889999 C 248 144.399994 247.444 143.037994 246.528992 142 C 247.444 140.962006 248 139.600006 248 138.110001 L 248 137.889999 C 248 136.399994 247.444 135.037994 246.528992 134 C 247.444 132.962006 248 131.600006 248 130.110001 L 248 129.889999 C 248 128.399994 247.444 127.037994 246.528992 126 C 247.444 124.962006 248 123.600006 248 122.110001 L 248 121.889999 C 248 120.399994 247.444 119.037994 246.528992 118 C 247.444 116.962006 248 115.600006 248 114.110001 L 248 113.889999 C 248 112.399994 247.444 111.037994 246.528992 110 C 247.444 108.962006 248 107.600006 248 106.110001 L 248 105.889999 C 248 104.386993 247.43399 103.014008 246.503998 101.972 C 247.434998 100.911011 248 99.516998 248 97.990997 L 248 97.908997 C 248 96.399002 247.432999 95.020996 246.501007 93.975006 C 247.43399 92.914001 248 91.518005 248 89.990997 L 248 89.908997 C 248 88.399002 247.432999 87.020996 246.501007 85.975006 C 247.43399 84.914001 248 83.518005 248 81.990997 L 248 81.908997 C 248 80.399002 247.432999 79.020996 246.501007 77.975006 C 247.43399 76.914001 248 75.518005 248 73.990997 Z"/>
    <path id="path1" fill="#ffffff" stroke="none" d="M 138 148 L 206 148 C 207.100006 148 208 147.100006 208 146 C 208 144.899994 207.100006 144 206 144 L 138 144 C 136.899994 144 136 144.899994 136 146 C 136 147.100006 136.899994 148 138 148"/>
</svg>
