<?xml version="1.0" encoding="UTF-8"?>
<!-- Generated by Pixelmator Pro 3.7.1 -->
<svg width="256" height="256" viewBox="0 0 256 256" xmlns="http://www.w3.org/2000/svg">
    <path id="Path" fill="#ffffff" stroke="none" d="M 12 220 L 12 29 C 12 26.238998 14.239 24 17 24 L 35.417999 24 L 24.847 172 L 24 172 C 19.589001 172 16 175.589005 16 180 L 16 208 C 16 212.410995 19.589001 216 24 216 L 232 216 C 236.410995 216 240 212.410995 240 208 L 240 180 C 240 175.589005 236.410995 172 232 172 L 230.875 172 L 216.779999 24 L 239 24 C 241.761993 24 244 26.238998 244 29 L 244 220 Z M 244 232 C 244 234.209 242.209 236 240 236 L 228 236 L 228 232 L 200 232 L 172 232 L 172 236 L 16 236 C 13.791 236 12 234.209 12 232 L 12 224 L 244 224 Z M 220 240 L 200 240 C 197.791 240 196 238.209 196 236 L 200 236 L 224 236 C 224 238.209 222.209 240 220 240 M 232 176 C 234.209 176 236 177.791 236 180 L 236 208 C 236 210.209 234.209 212 232 212 L 24 212 C 21.791 212 20 210.209 20 208 L 20 180 C 20 177.791 21.791 176 24 176 Z M 39.734001 19.714996 C 39.884003 17.621994 41.625999 16 43.724998 16 L 48 16 L 48 40 L 52 40 L 52 16 L 56 16 L 56 40 L 60 40 L 60 16 L 64 16 L 64 40 L 68 40 L 68 16 L 72 16 L 72 40 L 76 40 L 76 16 L 80 16 L 80 40 L 84 40 L 84 16 L 88 16 L 88 40 L 92 40 L 92 16 L 96 16 L 96 40 L 100 40 L 100 16 L 104 16 L 104 40 L 108 40 L 108 16 L 112 16 L 112 40 L 116 40 L 116 16 L 120 16 L 120 40 L 124 40 L 124 16 L 128 16 L 128 40 L 132 40 L 132 16 L 136 16 L 136 40 L 140 40 L 140 16 L 144 16 L 144 40 L 148 40 L 148 16 L 152 16 L 152 40 L 156 40 L 156 16 L 160 16 L 160 40 L 164 40 L 164 16 L 168 16 L 168 40 L 172 40 L 172 16 L 176 16 L 176 40 L 180 40 L 180 16 L 184 16 L 184 40 L 188 40 L 188 16 L 192 16 L 192 40 L 196 40 L 196 16 L 200 16 L 200 40 L 204 40 L 204 16 L 208.363007 16 C 210.425003 16 212.149002 17.567993 212.345001 19.621002 L 226.856995 172 L 28.857 172 Z M 239 20 L 216.399002 20 L 216.326996 19.242004 C 215.934006 15.113007 212.509995 12 208.363007 12 L 43.724998 12 C 39.547001 12 36.042 15.264008 35.745003 19.429993 L 35.704002 20 L 17 20 C 12.038 20 8 24.037003 8 29 L 8 220 L 8 224 L 8 232 C 8 236.410995 11.589 240 16 240 L 172 240 L 176 240 L 176 236 L 192 236 C 192 240.410995 195.589005 244 200 244 L 220 244 C 222.953003 244 225.531006 242.386993 226.917999 240 L 228 240 L 240 240 C 244.410995 240 248 236.410995 248 232 L 248 224 L 248 220 L 248 29 C 248 24.037003 243.962997 20 239 20"/>
</svg>
