<?xml version="1.0" encoding="UTF-8"?>
<!-- Generated by Pixelmator Pro 3.7.1 -->
<svg width="256" height="256" viewBox="0 0 256 256" xmlns="http://www.w3.org/2000/svg">
    <path id="Path" fill="#ffffff" stroke="none" d="M 230 56 C 229.298004 56 228.626999 56.126999 228 56.350006 L 228 28 C 228 23.589005 224.410995 20 220 20 L 36 20 C 31.589005 20 28 23.589005 28 28 L 28 72 C 28 76.410995 31.589005 80 36 80 L 220 80 C 221.487 80 222.876999 79.584 224.070999 78.875 C 224.496994 81.768997 226.988998 84 230 84 L 244 84 L 244 240 C 244 242.209 242.209 244 240 244 L 156 244 C 156 241.791 154.209 240 152 240 C 149.791 240 148 241.791 148 244 L 108 244 C 108 241.791 106.209 240 104 240 C 101.791 240 100 241.791 100 244 L 16 244 C 13.791 244 12 242.209 12 240 L 12 12 L 244 12 L 244 56 Z M 244 72 L 240 72 L 240 68 L 244 68 Z M 228 72 L 228 62 C 228 60.895996 228.895996 60 230 60 L 244 60 L 244 64 L 236 64 L 236 76 L 244 76 L 244 80 L 230 80 C 228.895996 80 228 79.104004 228 78 Z M 224 72 C 224 74.209 222.209 76 220 76 L 36 76 C 33.791 76 32 74.209 32 72 L 32 28 C 32 25.791 33.791 24 36 24 L 220 24 C 222.209 24 224 25.791 224 28 L 224 62 Z M 244 8 L 12 8 L 8 8 L 8 12 L 8 240 C 8 244.410995 11.589005 248 16 248 L 100 248 L 104 248 L 108 248 L 148 248 L 152 248 L 156 248 L 240 248 C 244.410995 248 248 244.410995 248 240 L 248 84 L 248 80 L 248 76 L 248 72 L 248 68 L 248 64 L 248 60 L 248 56 L 248 12 L 248 8 Z"/>
    <path id="path1" fill="#ffffff" stroke="none" d="M 128 104 C 141.255005 104 152 114.744995 152 128 C 152 141.255005 141.255005 152 128 152 C 114.745003 152 104 141.255005 104 128 C 104 114.744995 114.745003 104 128 104 M 128 156 C 143.438995 156 156 143.438995 156 128 C 156 112.561005 143.438995 100 128 100 C 112.560997 100 100 112.561005 100 128 C 100 143.438995 112.560997 156 128 156"/>
    <path id="path2" fill="#ffffff" stroke="none" d="M 140 224 C 140 230.626999 134.626999 236 128 236 C 121.373001 236 116 230.626999 116 224 L 116 188 C 116 181.373001 121.373001 176 128 176 C 134.626999 176 140 181.373001 140 188 Z M 128 172 C 119.178001 172 112 179.178009 112 188 L 112 224 C 112 232.821991 119.178001 240 128 240 C 136.822006 240 144 232.821991 144 224 L 144 188 C 144 179.178009 136.822006 172 128 172"/>
    <path id="path3" fill="#ffffff" stroke="none" d="M 170 132 C 173.313004 132 176 134.686996 176 138 C 176 141.313004 173.313004 144 170 144 C 166.686996 144 164 141.313004 164 138 C 164 134.686996 166.686996 132 170 132 M 170 148 C 175.514008 148 180 143.514008 180 138 C 180 132.485992 175.514008 128 170 128 C 164.485992 128 160 132.485992 160 138 C 160 143.514008 164.485992 148 170 148"/>
</svg>
