<?xml version="1.0" encoding="UTF-8"?>
<!-- Generated by Pixelmator Pro 3.7.1 -->
<svg width="256" height="256" viewBox="0 0 256 256" xmlns="http://www.w3.org/2000/svg">
    <path id="Path" fill="#ffffff" stroke="none" d="M 116 168 L 120 168 L 126 162 L 126 192 L 130 192 L 130 162 L 136 168 L 140 168 L 128 156 Z"/>
    <path id="path1" fill="#ffffff" stroke="none" d="M 88 220 L 92 220 L 92 156 L 88 156 Z"/>
    <path id="path2" fill="#ffffff" stroke="none" d="M 164 220 L 168 220 L 168 156 L 164 156 Z"/>
    <path id="path3" fill="#ffffff" stroke="none" d="M 244 44 L 188 44 L 184 44 L 72 44 L 68 44 L 12 44 L 12 36 C 12 33.791 13.791 32 16 32 L 32 32 L 32 30 C 32 28.895996 32.895996 28 34 28 C 35.104004 28 36 28.895996 36 30 L 36 32 L 72 32 L 72 30 C 72 28.895996 72.895996 28 74 28 L 182 28 C 183.104004 28 184 28.895996 184 30 L 184 32 L 212 32 L 212 36 L 216 36 L 228 36 L 232 36 L 232 32 L 240 32 C 242.209 32 244 33.791 244 36 Z M 244 84 L 240 84 L 188 84 L 188 48 L 244 48 Z M 240 236 C 240 240.417999 236.417999 244 232 244 L 180 244 L 180 190 L 180 152 L 180 148 L 176 148 L 170.917999 148 C 171.60199 146.820999 172 145.458008 172 144 L 172 120 C 172 117.794006 173.794006 116 176 116 L 240 116 Z M 156 244 C 153.791 244 152 242.209 152 240 L 151.662003 236 C 149.757004 224.649994 139.891998 216 128 216 C 116.109001 216 106.242996 224.649994 104.337997 236 L 104 240 C 104 242.209 102.209 244 100 244 L 80 244 L 80 236 L 88 236 L 88 232 L 80 232 L 80 152 L 92 152 L 164 152 L 176 152 L 176 244 Z M 24 244 C 19.582001 244 16 240.417999 16 236 L 16 116 L 80 116 C 82.205994 116 84 117.794006 84 120 L 84 144 C 84 145.458008 84.397995 146.820999 85.082993 148 L 80 148 L 76 148 L 76 152 L 76 244 Z M 184 98 C 184 99.104004 183.104004 100 182 100 L 148 100 L 148 106 C 148 107.104004 147.104004 108 146 108 L 140 108 L 140 104 L 140 100 L 145.656998 100 L 138.828003 93.171005 L 130.828003 85.171005 L 128 82.343002 L 125.170998 85.171005 L 117.170998 93.171005 L 110.343002 100 L 116 100 L 116 104 L 116 108 L 110 108 C 108.895996 108 108 107.104004 108 106 L 108 100 L 74 100 C 72.895996 100 72 99.104004 72 98 L 72 48 L 184 48 Z M 146 112 C 146.613998 112 147.207001 111.906006 147.765991 111.734009 L 147.665009 123.636002 C 145.925003 133.136002 137.703003 140 128 140 C 118.296997 140 110.074997 133.136002 108.335007 123.636002 L 108.233994 111.734009 C 108.792999 111.906006 109.386002 112 110 112 Z M 120 96 L 128 88 L 136 96 Z M 136 104 L 120 104 L 120 100 L 136 100 Z M 168 120 L 168 144 C 168 146.209 166.209 148 164 148 L 92 148 C 89.791 148 88 146.209 88 144 L 88 120 C 88 115.582001 84.417999 112 80 112 L 16 112 L 16 88 L 68 88 L 68 98 C 68 101.30899 70.690994 104 74 104 L 104 104 L 104 106 C 104 106.701996 104.126999 107.373001 104.350006 108 L 104.203003 108 L 104.337997 124 C 106.242996 135.350006 116.109001 144 128 144 C 139.891998 144 149.757004 135.350006 151.662003 124 L 151.796997 108 L 151.649994 108 C 151.873001 107.373001 152 106.701996 152 106 L 152 104 L 182 104 C 185.30899 104 188 101.30899 188 98 L 188 88 L 240 88 L 240 112 L 218 112 L 198 112 L 176 112 C 171.582001 112 168 115.582001 168 120 M 12 48 L 68 48 L 68 84 L 16 84 L 12 84 Z M 26 24 C 24.895996 24 24 23.104004 24 22 L 24 14 C 24 12.895996 24.895996 12 26 12 C 27.104004 12 28 12.895996 28 14 C 28 12.895996 28.895996 12 30 12 L 196 12 L 200 12 L 204 12 L 208 12 L 214 12 C 215.104004 12 216 12.895996 216 14 L 216 16 C 216 13.791 217.791 12 220 12 L 224 12 C 226.209 12 228 13.791 228 16 L 228 24 L 216 24 L 216 22 C 216 23.104004 215.104004 24 214 24 L 212 24 L 208 24 L 204 24 L 200 24 L 196 24 L 182 24 L 74 24 L 30 24 C 28.895996 24 28 23.104004 28 22 C 28 23.104004 27.104004 24 26 24 M 216 28 L 228 28 L 228 32 L 216 32 Z M 240 28 L 236 28 L 236 24 L 232 24 L 232 16 C 232 11.589005 228.410995 8 224 8 L 220 8 C 218.852997 8 217.761002 8.242996 216.772003 8.679993 C 215.942993 8.246002 215 8 214 8 L 208 8 L 204 8 L 200 8 L 196 8 L 30 8 C 29.298996 8 28.626007 8.121002 28 8.343002 C 27.373993 8.121002 26.701004 8 26 8 C 22.690994 8 20 10.69101 20 14 L 20 22 C 20 25.309006 22.690994 28 26 28 C 26.701004 28 27.373993 27.878998 28 27.656998 C 28.143005 27.708008 28.296005 27.733002 28.442993 27.772995 C 28.412003 27.850998 28.371002 27.921005 28.343002 28 L 26 28 L 16 28 C 11.589005 28 8 31.589005 8 36 L 8 48 L 8 84 C 8 86.955002 9.610001 89.541 12 90.925995 L 12 112 L 12 116 L 12 236 C 12 242.617004 17.382996 248 24 248 L 100 248 C 104.345001 248 107.893005 244.518005 107.998001 240.197006 L 108.309998 236.507996 C 109.992004 226.932999 118.248001 220 128 220 C 137.751999 220 146.007996 226.932999 147.690002 236.507996 L 148.001999 240.197006 C 148.106995 244.518005 151.653992 248 156 248 L 232 248 C 238.617004 248 244 242.617004 244 236 L 244 116 L 244 112 L 244 90.925995 C 246.389999 89.541 248 86.955002 248 84 L 248 48 L 248 36 C 248 31.589005 244.410995 28 240 28"/>
    <path id="path4" fill="#ffffff" stroke="none" d="M 68 232 L 60 232 L 60 216 L 68 216 Z M 44 216 L 56 216 L 56 232 L 44 232 Z M 60 212 L 56 212 L 44 212 L 40 212 L 40 216 L 40 232 L 40 236 L 44 236 L 56 236 L 60 236 L 68 236 L 72 236 L 72 232 L 72 216 L 72 212 L 68 212 Z"/>
    <path id="path5" fill="#ffffff" stroke="none" d="M 222 180 C 227.522003 180 232 184.477997 232 190 C 232 195.522003 227.522003 200 222 200 C 216.477997 200 212 195.522003 212 190 C 212 184.477997 216.477997 180 222 180 M 222 204 C 229.720001 204 236 197.720001 236 190 C 236 182.279999 229.720001 176 222 176 C 214.279999 176 208 182.279999 208 190 C 208 197.720001 214.279999 204 222 204"/>
    <path id="path6" fill="#ffffff" stroke="none" d="M 194 180 C 199.522003 180 204 184.477997 204 190 C 204 195.522003 199.522003 200 194 200 C 188.477997 200 184 195.522003 184 190 C 184 184.477997 188.477997 180 194 180 M 194 204 C 201.720001 204 208 197.720001 208 190 C 208 182.279999 201.720001 176 194 176 C 186.279999 176 180 182.279999 180 190 C 180 197.720001 186.279999 204 194 204"/>
    <path id="path7" fill="#ffffff" stroke="none" d="M 190 168 L 198 168 C 199.100006 168 200 167.100006 200 166 C 200 164.899994 199.100006 164 198 164 L 190 164 C 188.899994 164 188 164.899994 188 166 C 188 167.100006 188.899994 168 190 168"/>
    <path id="path8" fill="#ffffff" stroke="none" d="M 218 168 L 226 168 C 227.100006 168 228 167.100006 228 166 C 228 164.899994 227.100006 164 226 164 L 218 164 C 216.899994 164 216 164.899994 216 166 C 216 167.100006 216.899994 168 218 168"/>
    <path id="path9" fill="#ffffff" stroke="none" d="M 42 124 C 43.104 124 44 124.895996 44 126 C 44 127.104004 43.104 128 42 128 C 40.900002 128 40 127.100006 40 126 C 40 124.899994 40.900002 124 42 124 M 52 126 C 52 127.100006 51.099998 128 50 128 L 47.650002 128 C 47.873001 127.373001 48 126.701996 48 126 C 48 125.298004 47.873001 124.626999 47.650002 124 L 50 124 C 51.099998 124 52 124.899994 52 126 M 42 132 L 50 132 C 53.308998 132 56 129.30899 56 126 C 56 122.690994 53.308998 120 50 120 L 42 120 C 38.691002 120 36 122.690994 36 126 C 36 129.30899 38.691002 132 42 132"/>
    <path id="path10" fill="#ffffff" stroke="none" d="M 42 140 C 43.104 140 44 140.895996 44 142 C 44 143.104004 43.104 144 42 144 C 40.900002 144 40 143.100006 40 142 C 40 140.899994 40.900002 140 42 140 M 52 142 C 52 143.100006 51.099998 144 50 144 L 47.650002 144 C 47.873001 143.373001 48 142.701996 48 142 C 48 141.298004 47.873001 140.626999 47.650002 140 L 50 140 C 51.099998 140 52 140.899994 52 142 M 42 148 L 50 148 C 53.308998 148 56 145.30899 56 142 C 56 138.69101 53.308998 136 50 136 L 42 136 C 38.691002 136 36 138.69101 36 142 C 36 145.30899 38.691002 148 42 148"/>
    <path id="path11" fill="#ffffff" stroke="none" d="M 56 197.593704 L 56 187.999695 L 65.594002 187.999695 C 63.487 192.119705 60.120998 195.486694 56 197.593704 M 26.406 187.999695 L 36 187.999695 L 36 197.593704 C 31.879 195.486694 28.513 192.119705 26.406 187.999695 M 36 158.405701 L 36 167.999695 L 26.406 167.999695 C 28.513 163.8797 31.879 160.513702 36 158.405701 M 65.594002 167.999695 L 56 167.999695 L 56 158.405701 C 60.120998 160.513702 63.487 163.8797 65.594002 167.999695 M 46 171.999695 C 49.313 171.999695 52 174.686707 52 177.999695 C 52 181.31369 49.313 183.999695 46 183.999695 C 42.687 183.999695 40 181.31369 40 177.999695 C 40 174.686707 42.687 171.999695 46 171.999695 M 43.034 156.204697 C 43.439999 156.149689 43.850998 156.107697 44.264 156.0737 C 44.373001 156.066696 44.480999 156.056702 44.591 156.049698 C 45.056999 156.019699 45.526001 155.999695 46 155.999695 C 46.473999 155.999695 46.943001 156.019699 47.409 156.049698 C 47.519001 156.056702 47.626999 156.066696 47.736 156.0737 C 48.149002 156.107697 48.560001 156.149689 48.966 156.204697 C 49.013 156.210693 49.061001 156.215698 49.106998 156.222702 C 50.094002 156.3647 51.060001 156.569702 52 156.834702 L 52 170.019699 C 50.326 168.75769 48.251999 167.999695 46 167.999695 C 43.748001 167.999695 41.674 168.75769 40 170.019699 L 40 156.834702 C 40.939999 156.569702 41.905998 156.3647 42.892998 156.222702 C 42.938999 156.215698 42.987 156.210693 43.034 156.204697 M 24.223 181.107697 C 24.216 181.060699 24.211 181.012695 24.205 180.965698 C 24.149 180.559692 24.107 180.149689 24.075001 179.736694 C 24.066 179.626709 24.056999 179.518707 24.049999 179.408691 C 24.02 178.943695 24 178.473694 24 177.999695 C 24 177.526703 24.02 177.056702 24.049999 176.590698 C 24.056999 176.481689 24.066 176.372696 24.075001 176.263702 C 24.107 175.850708 24.149 175.440704 24.205 175.033691 C 24.211 174.987701 24.216 174.939697 24.223 174.8927 C 24.364 173.906708 24.569 172.940704 24.834999 171.999695 L 38.018997 171.999695 C 36.757999 173.673706 36 175.746704 36 177.999695 C 36 180.252701 36.757999 182.325699 38.018997 183.999695 L 24.834999 183.999695 C 24.569 183.059692 24.364 182.093689 24.223 181.107697 M 48.966 199.794708 C 48.560001 199.850708 48.149002 199.8927 47.736 199.925705 C 47.626999 199.933701 47.519001 199.943695 47.409 199.949707 C 46.943001 199.980698 46.473999 199.999695 46 199.999695 C 45.526001 199.999695 45.056999 199.980698 44.591 199.949707 C 44.480999 199.943695 44.373001 199.933701 44.264 199.925705 C 43.850998 199.8927 43.439999 199.850708 43.034 199.794708 C 42.987 199.788696 42.938999 199.783691 42.892998 199.777695 C 41.905998 199.635696 40.939999 199.430695 40 199.164703 L 40 185.980698 C 41.674 187.241699 43.748001 187.999695 46 187.999695 C 48.251999 187.999695 50.326 187.241699 52 185.980698 L 52 199.164703 C 51.060001 199.430695 50.094002 199.635696 49.106998 199.777695 C 49.061001 199.783691 49.013 199.788696 48.966 199.794708 M 67.949997 179.408691 C 67.943001 179.518707 67.933998 179.626709 67.925003 179.736694 C 67.892998 180.149689 67.850998 180.559692 67.794998 180.965698 C 67.789001 181.012695 67.783997 181.060699 67.777 181.107697 C 67.636002 182.093689 67.431 183.059692 67.165001 183.999695 L 53.980999 183.999695 C 55.242001 182.325699 56 180.252701 56 177.999695 C 56 175.746704 55.242001 173.673706 53.980999 171.999695 L 67.165001 171.999695 C 67.431 172.940704 67.636002 173.906708 67.777 174.8927 C 67.783997 174.939697 67.789001 174.987701 67.794998 175.033691 C 67.850998 175.440704 67.892998 175.850708 67.925003 176.263702 C 67.933998 176.372696 67.943001 176.481689 67.949997 176.590698 C 67.979996 177.056702 68 177.526703 68 177.999695 C 68 178.473694 67.979996 178.943695 67.949997 179.408691 M 71.914001 175.974701 C 71.876999 175.510696 71.830002 175.049698 71.770004 174.593689 C 71.759003 174.509705 71.75 174.426697 71.737999 174.342697 C 71.578003 173.209702 71.342003 172.1017 71.041 171.019699 C 71.029999 170.983704 71.024002 170.947693 71.014 170.910706 L 70.190002 167.999695 L 69.997002 167.999695 C 67.359001 161.693695 62.306999 156.640701 56 154.002701 L 56 153.809692 L 53.089001 152.986694 C 53.053001 152.9767 53.016998 152.969696 52.980999 152.959702 C 51.899002 152.656708 50.790001 152.422699 49.657001 152.261688 C 49.574001 152.249695 49.489998 152.240692 49.407001 152.230698 C 48.950001 152.169708 48.488998 152.121704 48.025002 152.0867 C 47.895 152.075699 47.764999 152.064697 47.633999 152.056702 C 47.093002 152.022705 46.549 151.999695 46 151.999695 C 45.451 151.999695 44.906998 152.022705 44.366001 152.056702 C 44.235001 152.064697 44.105 152.075699 43.974998 152.0867 C 43.511002 152.121704 43.049999 152.169708 42.593002 152.230698 C 42.510002 152.240692 42.425999 152.249695 42.343002 152.261688 C 41.209999 152.422699 40.100998 152.656708 39.018997 152.959702 C 38.983002 152.969696 38.946999 152.9767 38.910999 152.986694 L 36 153.809692 L 36 154.002701 C 29.693001 156.640701 24.641001 161.693695 22.002998 167.999695 L 21.810001 167.999695 L 20.986 170.910706 C 20.976002 170.947693 20.970001 170.983704 20.959 171.019699 C 20.658001 172.1017 20.422001 173.209702 20.262001 174.342697 C 20.25 174.426697 20.241001 174.509705 20.23 174.593689 C 20.169998 175.049698 20.123001 175.510696 20.085999 175.974701 C 20.076 176.104706 20.064999 176.235703 20.056999 176.3647 C 20.022999 176.906708 20 177.449707 20 177.999695 C 20 178.549698 20.022999 179.093689 20.056999 179.634705 C 20.064999 179.764709 20.076 179.895691 20.085999 180.025696 C 20.123001 180.4897 20.169998 180.949707 20.23 181.406708 C 20.241001 181.4897 20.25 181.572693 20.262001 181.656708 C 20.422001 182.789703 20.658001 183.899689 20.959 184.980698 C 20.970001 185.016693 20.976002 185.052704 20.986 185.088699 L 21.810001 187.999695 L 22.002998 187.999695 C 24.641001 194.306702 29.693001 199.359695 36 201.996704 L 36 202.190704 L 38.910999 203.013702 C 38.946999 203.023697 38.983002 203.030701 39.018997 203.039703 C 40.100998 203.342697 41.209999 203.576691 42.343002 203.738708 C 42.425999 203.749695 42.510002 203.758698 42.593002 203.769699 C 43.049999 203.829697 43.511002 203.877701 43.974998 203.912704 C 44.105 203.923706 44.235001 203.935699 44.366001 203.943695 C 44.906998 203.977692 45.451 203.999695 46 203.999695 C 46.549 203.999695 47.093002 203.977692 47.633999 203.943695 C 47.764999 203.935699 47.895 203.923706 48.025002 203.912704 C 48.488998 203.877701 48.950001 203.829697 49.407001 203.769699 C 49.489998 203.758698 49.574001 203.749695 49.657001 203.738708 C 50.790001 203.576691 51.899002 203.342697 52.980999 203.039703 C 53.016998 203.030701 53.053001 203.023697 53.089001 203.013702 L 56 202.190704 L 56 201.996704 C 62.306999 199.359695 67.359001 194.306702 69.997002 187.999695 L 70.190002 187.999695 L 71.014 185.088699 C 71.024002 185.052704 71.029999 185.016693 71.041 184.980698 C 71.342003 183.899689 71.578003 182.789703 71.737999 181.656708 C 71.75 181.572693 71.759003 181.4897 71.770004 181.406708 C 71.830002 180.949707 71.876999 180.4897 71.914001 180.025696 C 71.923996 179.895691 71.934998 179.764709 71.943001 179.634705 C 71.976997 179.093689 72 178.549698 72 177.999695 C 72 177.449707 71.976997 176.906708 71.943001 176.3647 C 71.934998 176.235703 71.923996 176.104706 71.914001 175.974701"/>
    <path id="path12" fill="#ffffff" stroke="none" d="M 198 108 C 194.686996 108 192 105.313004 192 102 C 192 98.686996 194.686996 96 198 96 C 201.313004 96 204 98.686996 204 102 C 204 105.313004 201.313004 108 198 108 M 208 102 C 208 96.485992 203.514008 92 198 92 C 192.485992 92 188 96.485992 188 102 C 188 107.514008 192.485992 112 198 112 C 203.514008 112 208 107.514008 208 102"/>
    <path id="path13" fill="#ffffff" stroke="none" d="M 218 108 C 214.686996 108 212 105.313004 212 102 C 212 98.686996 214.686996 96 218 96 C 221.313004 96 224 98.686996 224 102 C 224 105.313004 221.313004 108 218 108 M 228 102 C 228 96.485992 223.514008 92 218 92 C 212.485992 92 208 96.485992 208 102 C 208 107.514008 212.485992 112 218 112 C 223.514008 112 228 107.514008 228 102"/>
</svg>
