<?xml version="1.0" encoding="UTF-8"?>
<!-- Generated by Pixelmator Pro 3.7.1 -->
<svg width="256" height="256" viewBox="0 0 256 256" xmlns="http://www.w3.org/2000/svg">
    <path id="Path" fill="#ffffff" stroke="none" d="M 34 116 L 18 116 C 16.896 116 16 116.895996 16 118 C 16 119.104004 16.896 120 18 120 L 34 120 C 35.104 120 36 119.104004 36 118 C 36 116.895996 35.104 116 34 116"/>
    <path id="path1" fill="#ffffff" stroke="none" d="M 30 128 L 18 128 C 16.896 128 16 128.895996 16 130 C 16 131.104004 16.896 132 18 132 L 30 132 C 31.104 132 32 131.104004 32 130 C 32 128.895996 31.104 128 30 128"/>
    <path id="path2" fill="#ffffff" stroke="none" d="M 130 188 L 118 188 C 116.895996 188 116 188.895996 116 190 C 116 191.104004 116.895996 192 118 192 L 128 192 L 128 194 C 128 195.104004 128.895996 196 130 196 C 131.104004 196 132 195.104004 132 194 L 132 190 C 132 188.895996 131.104004 188 130 188"/>
    <path id="path3" fill="#ffffff" stroke="none" d="M 230 188 L 218 188 C 216.895996 188 216 188.895996 216 190 L 216 194 C 216 195.104004 216.895996 196 218 196 C 219.104004 196 220 195.104004 220 194 L 220 192 L 230 192 C 231.104004 192 232 191.104004 232 190 C 232 188.895996 231.104004 188 230 188"/>
    <path id="path4" fill="#ffffff" stroke="none" d="M 8 180 L 12 180 L 12 176 L 8 176 Z"/>
    <path id="path5" fill="#ffffff" stroke="none" d="M 8 172 L 12 172 L 12 168 L 8 168 Z"/>
    <path id="path6" fill="#ffffff" stroke="none" d="M 248 168 L 244 168 L 244 172 L 248 172 Z"/>
    <path id="path7" fill="#ffffff" stroke="none" d="M 17.242701 99.0298 L 23.3557 74.578796 C 23.745699 73.0168 25.0357 71.840805 26.627701 71.595795 L 67.999702 65.230804 L 67.999702 103.999802 L 21.1227 103.999802 C 18.5207 103.999802 16.6117 101.554794 17.242701 99.0298 M 71.999702 63.468796 C 71.999702 61.478806 73.463699 59.790802 75.4347 59.508804 L 112.139702 54.265793 C 117.205696 53.541794 122.308701 53.179794 127.412697 53.179794 C 132.903702 53.179794 138.393707 53.598801 143.834702 54.435791 L 176.608704 59.477798 C 178.559708 59.778793 179.99971 61.457794 179.99971 63.431793 L 179.99971 103.999802 L 71.999702 103.999802 Z M 183.99971 64.614792 L 229.371704 71.595795 C 230.964706 71.840805 232.253708 73.0168 232.644699 74.578796 L 238.757706 99.0298 C 239.388702 101.554794 237.479706 103.999802 234.876709 103.999802 L 183.99971 103.999802 Z M 15.3467 105.526794 C 16.849701 107.104797 18.911699 107.999802 21.1227 107.999802 L 67.999702 107.999802 L 71.999702 107.999802 L 179.99971 107.999802 L 183.99971 107.999802 L 234.876709 107.999802 C 237.087708 107.999802 239.149704 107.104797 240.654709 105.526794 C 242.6707 106.981796 243.99971 109.336807 243.99971 111.999802 L 243.99971 163.999802 L 247.99971 163.999802 L 247.99971 111.999802 C 247.99971 107.828796 245.853699 104.159805 242.613708 102.011795 C 242.945709 100.736801 242.969711 99.384796 242.637711 98.059799 L 236.525711 73.608795 C 235.742706 70.4758 233.172699 68.133804 229.980713 67.6418 L 183.441711 60.482803 C 182.428711 57.902802 180.117706 55.970795 177.216705 55.524796 L 144.443695 50.482803 C 138.825699 49.618805 133.096695 49.179794 127.412697 49.179794 C 122.131699 49.179794 116.802696 49.558792 111.5737 50.305801 L 74.868698 55.549805 C 71.755699 55.993805 69.257698 58.239792 68.361702 61.127792 L 26.019701 67.6418 C 22.8267 68.133804 20.2577 70.4758 19.474701 73.608795 L 13.3617 98.059799 C 13.0307 99.384796 13.0547 100.736801 13.3877 102.011795 C 10.1467 104.159805 7.9997 107.828796 7.9997 111.999802 L 7.9997 163.999802 L 11.9997 163.999802 L 11.9997 111.999802 C 11.9997 109.336807 13.3287 106.981796 15.3467 105.526794"/>
    <path id="path8" fill="#ffffff" stroke="none" d="M 248 176 L 244 176 L 244 180 L 248 180 Z"/>
    <path id="path9" fill="#ffffff" stroke="none" d="M 102 144 L 54 144 C 52.896 144 52 144.895996 52 146 L 52 158 C 52 159.104004 52.896 160 54 160 L 102 160 C 103.103996 160 104 159.104004 104 158 L 104 146 C 104 144.895996 103.103996 144 102 144 M 100 156 L 56 156 L 56 148 L 100 148 Z M 100 148"/>
    <path id="path10" fill="#ffffff" stroke="none" d="M 208 184 L 208 200 L 200 196 L 200 184 L 200 156 L 188 156 L 184 156 L 180 156 L 176 156 L 172 156 L 168 156 L 156 156 L 156 196 L 156 200 L 148 200 L 148 144 L 148.074005 144 C 149.104004 128.365005 162.104004 116 178 116 C 193.895996 116 206.895996 128.365005 207.925995 144 L 208 144 Z M 196 196 L 192 196 L 192 192 C 192 185.373001 185.731995 180 178 180 C 170.268005 180 164 185.373001 164 192 L 164 196 L 160 196 L 160 160 L 168 160 L 168 174.666992 L 172 174.666992 L 172 160 L 176 160 L 176 170 L 180 170 L 180 160 L 184 160 L 184 174.666992 L 188 174.666992 L 188 160 L 196 160 Z M 188 196 L 168 196 L 168 192 C 168 187.588989 172.485992 184 178 184 C 183.514008 184 188 187.588989 188 192 Z M 244 184 L 244 192 C 244 196.417999 240.417999 200 236 200 L 212 200 L 212 184 L 240 184 L 244 184 L 244 180 L 240 180 L 212 180 L 212 176 L 240 176 L 244 176 L 244 172 L 240 172 L 212 172 L 212 168 L 240 168 L 244 168 L 244 164 L 240 164 L 212 164 L 212 144 L 211.462997 140 C 208.608994 124.027008 194.576004 112 178 112 C 161.423996 112 147.390991 124.027008 144.537003 140 L 144 144 L 144 164 L 108 164 L 102 164 L 54 164 L 48 164 L 16 164 L 12 164 L 12 168 L 16 168 L 144 168 L 144 172 L 16 172 L 12 172 L 12 176 L 16 176 L 144 176 L 144 180 L 16 180 L 12 180 L 12 184 L 16 184 L 144 184 L 144 200 L 20 200 C 15.582001 200 12 196.417999 12 192 L 12 184 L 8 184 L 8 192 C 8 198.617004 13.382996 204 20 204 L 144 204 L 148 204 L 148.944 204 L 156 204 L 160 204 L 160 200 L 196 200 L 196 204 L 200 204 L 207.056 204 L 208 204 L 212 204 L 236 204 C 242.617004 204 248 198.617004 248 192 L 248 184 Z"/>
</svg>
