<?xml version="1.0" encoding="UTF-8"?>
<!-- Generated by Pixelmator Pro 3.7.1 -->
<svg width="256" height="256" viewBox="0 0 256 256" xmlns="http://www.w3.org/2000/svg">
    <path id="Path" fill="#ffffff" stroke="none" d="M 164 96 C 164 98.209 162.209 100 160 100 L 96 100 C 93.791 100 92 98.209 92 96 L 92 48 C 92 45.791 93.791 44 96 44 L 160 44 C 162.209 44 164 45.791 164 48 Z M 160 40 L 96 40 C 91.588997 40 88 43.589005 88 48 L 88 96 C 88 100.410995 91.588997 104 96 104 L 160 104 C 164.410995 104 168 100.410995 168 96 L 168 48 C 168 43.589005 164.410995 40 160 40"/>
    <path id="path1" fill="#ffffff" stroke="none" d="M 75.735397 174.003906 L 81.996399 174.003906 L 81.996399 180.264893 C 79.377403 178.791901 77.208397 176.621902 75.735397 174.003906 M 81.996399 151.734894 L 81.996399 157.995911 L 75.735397 157.995911 C 77.208397 155.377899 79.377403 153.207901 81.996399 151.734894 M 104.264397 157.995911 L 98.004402 157.995911 L 98.004402 151.734894 C 100.622398 153.207901 102.792397 155.377899 104.264397 157.995911 M 98.004402 180.264893 L 98.004402 174.003906 L 104.264397 174.003906 C 102.792397 176.621902 100.622398 178.791901 98.004402 180.264893 M 85.909401 165.999908 C 85.909401 163.739899 87.740402 161.908905 90.000397 161.908905 C 92.259399 161.908905 94.090401 163.739899 94.090401 165.999908 C 94.090401 168.259903 92.259399 170.090897 90.000397 170.090897 C 87.740402 170.090897 85.909401 168.259903 85.909401 165.999908 M 105.977402 162.491898 C 106.001404 162.601898 106.027397 162.7099 106.0494 162.819901 C 106.137398 163.270905 106.207397 163.727905 106.2584 164.190903 C 106.270401 164.297897 106.278397 164.404907 106.288399 164.511902 C 106.333397 165.002899 106.363403 165.497894 106.363403 165.999908 C 106.363403 166.501892 106.333397 166.996902 106.288399 167.486908 C 106.278397 167.59491 106.270401 167.701904 106.2584 167.809906 C 106.207397 168.272903 106.138397 168.729889 106.0494 169.179901 C 106.027397 169.289902 106.001404 169.398895 105.977402 169.507904 C 105.940399 169.675903 105.891403 169.837891 105.849403 170.003906 L 97.0214 170.003906 C 97.698402 168.820892 98.090401 167.456909 98.090401 165.999908 C 98.090401 164.542908 97.698402 163.178894 97.0214 161.995911 L 105.849403 161.995911 C 105.891403 162.161896 105.940399 162.323898 105.977402 162.491898 M 86.491402 150.023895 C 86.601402 149.998901 86.710403 149.9729 86.820396 149.950897 C 87.270401 149.861908 87.728401 149.792908 88.191399 149.740906 C 88.297401 149.729889 88.405403 149.721893 88.512398 149.711899 C 89.003403 149.666901 89.498398 149.636902 90.000397 149.636902 C 90.502403 149.636902 90.997398 149.666901 91.487396 149.711899 C 91.595398 149.721893 91.7024 149.729889 91.809402 149.740906 C 92.2724 149.792908 92.729401 149.861908 93.179398 149.950897 C 93.290398 149.9729 93.398399 149.998901 93.5084 150.022888 C 93.6754 150.059906 93.838402 150.10791 94.004402 150.149902 L 94.004402 158.978897 C 92.821404 158.30191 91.457397 157.908905 90.000397 157.908905 C 88.543396 157.908905 87.178398 158.30191 85.996399 158.978897 L 85.996399 150.149902 C 86.1614 150.10791 86.324402 150.059906 86.491402 150.023895 M 74.023399 169.509903 C 73.999397 169.399902 73.972397 169.289902 73.950401 169.178894 C 73.861397 168.728897 73.792397 168.271896 73.741402 167.809906 C 73.7304 167.701904 73.721397 167.59491 73.711403 167.486908 C 73.667397 166.995911 73.636398 166.501892 73.636398 165.999908 C 73.636398 165.497894 73.667397 165.003906 73.711403 164.512909 C 73.721397 164.404907 73.7304 164.297897 73.741402 164.190903 C 73.792397 163.728897 73.861397 163.271896 73.950401 162.820892 C 73.972397 162.7099 73.999397 162.600891 74.023399 162.489899 C 74.060402 162.322906 74.109398 162.160889 74.150398 161.995911 L 82.978401 161.995911 C 82.301399 163.178894 81.909401 164.542908 81.909401 165.999908 C 81.909401 167.456909 82.301399 168.820892 82.978401 170.003906 L 74.150398 170.003906 C 74.109398 169.838898 74.059402 169.67691 74.023399 169.509903 M 93.178398 182.049896 C 92.728401 182.137909 92.2724 182.206909 91.809402 182.258911 C 91.7024 182.270905 91.594398 182.2789 91.486397 182.28891 C 90.996399 182.332901 90.502403 182.3629 90.000397 182.3629 C 89.498398 182.3629 89.003403 182.332901 88.513397 182.28891 C 88.405403 182.2789 88.297401 182.270905 88.190399 182.258911 C 87.728401 182.206909 87.2714 182.137909 86.821404 182.049896 C 86.710403 182.026901 86.600403 182.0009 86.490402 181.976898 C 86.323402 181.940903 86.1614 181.891907 85.996399 181.849899 L 85.996399 173.021896 C 87.178398 173.697906 88.543396 174.090897 90.000397 174.090897 C 91.457397 174.090897 92.821404 173.697906 94.004402 173.021896 L 94.004402 181.849899 C 93.839401 181.891907 93.676399 181.940903 93.509399 181.976898 C 93.399399 182.0009 93.290398 182.026901 93.178398 182.049896 M 93.962402 185.96991 C 94.086403 185.944901 94.208397 185.915894 94.331398 185.889893 C 94.547401 185.842896 94.765404 185.80191 94.979401 185.746902 L 95.004402 185.715897 C 102.212402 183.884903 107.884399 178.211899 109.715401 171.003906 L 109.747398 170.979889 C 109.801399 170.764893 109.8424 170.545898 109.889397 170.328903 C 109.916397 170.206909 109.945396 170.085907 109.970398 169.962891 C 110.083397 169.391907 110.170403 168.816895 110.234398 168.236908 C 110.248398 168.108902 110.2584 167.980896 110.270401 167.851898 C 110.325401 167.235901 110.363396 166.618896 110.363396 165.999908 C 110.363396 165.38089 110.325401 164.763901 110.269402 164.148895 C 110.2584 164.019897 110.248398 163.8909 110.234398 163.762909 C 110.170403 163.183899 110.083397 162.60791 109.969398 162.036896 C 109.945396 161.91391 109.916397 161.792908 109.889397 161.670898 C 109.8424 161.453903 109.801399 161.234894 109.747398 161.020905 L 109.715401 160.995911 C 107.884399 153.787903 102.212402 148.114899 95.004402 146.283905 L 94.979401 146.252899 C 94.764397 146.197906 94.546402 146.156891 94.329399 146.109894 C 94.207397 146.083893 94.086403 146.054901 93.963402 146.029907 C 93.391403 145.916901 92.816399 145.829895 92.237404 145.7659 C 92.109398 145.751892 91.9804 145.741898 91.852402 145.730896 C 91.236397 145.673889 90.6194 145.636902 90.000397 145.636902 C 89.381401 145.636902 88.763397 145.673889 88.148399 145.730896 C 88.019402 145.741898 87.890396 145.751892 87.762398 145.7659 C 87.184402 145.829895 86.608398 145.916901 86.037399 146.029907 C 85.914398 146.054901 85.793396 146.083893 85.670403 146.109894 C 85.4534 146.156891 85.235397 146.197906 85.020401 146.252899 L 84.995399 146.283905 C 77.788399 148.115906 72.115402 153.787903 70.284401 160.995911 L 70.252403 161.020905 C 70.198402 161.234894 70.157402 161.452911 70.110397 161.6689 C 70.084396 161.791901 70.054398 161.91391 70.029404 162.037903 C 69.917397 162.608902 69.829399 163.184906 69.765404 163.762909 C 69.752403 163.8909 69.741402 164.019897 69.7304 164.148895 C 69.6744 164.763901 69.636398 165.38089 69.636398 165.999908 C 69.636398 166.618896 69.6744 167.235901 69.7304 167.851898 C 69.741402 167.980896 69.752403 168.108902 69.765404 168.236908 C 69.829399 168.815903 69.917397 169.3909 70.029404 169.961899 C 70.054398 170.085907 70.084396 170.207901 70.110397 170.330902 C 70.157402 170.546906 70.198402 170.764893 70.252403 170.979889 L 70.284401 171.003906 C 72.115402 178.211899 77.788399 183.884903 84.995399 185.715897 L 85.020401 185.746902 C 85.235397 185.80191 85.4524 185.842896 85.669403 185.889893 C 85.792397 185.915894 85.914398 185.944901 86.038399 185.96991 C 86.609398 186.082901 87.184402 186.169891 87.762398 186.233902 C 87.890396 186.247894 88.019402 186.257904 88.148399 186.269897 C 88.763397 186.325897 89.381401 186.3629 90.000397 186.3629 C 90.6194 186.3629 91.236397 186.325897 91.852402 186.269897 C 91.9804 186.257904 92.109398 186.247894 92.237404 186.233902 C 92.816399 186.169891 93.391403 186.082901 93.962402 185.96991"/>
    <path id="path2" fill="#ffffff" stroke="none" d="M 154 172 C 150.686996 172 148 169.313004 148 166 C 148 162.686996 150.686996 160 154 160 C 157.313004 160 160 162.686996 160 166 C 160 169.313004 157.313004 172 154 172 M 154 156 C 148.485992 156 144 160.485992 144 166 C 144 171.514008 148.485992 176 154 176 C 159.514008 176 164 171.514008 164 166 C 164 160.485992 159.514008 156 154 156"/>
    <path id="path3" fill="#ffffff" stroke="none" d="M 174 160 C 170.686996 160 168 157.313004 168 154 C 168 150.686996 170.686996 148 174 148 C 177.313004 148 180 150.686996 180 154 C 180 157.313004 177.313004 160 174 160 M 174 144 C 168.485992 144 164 148.485992 164 154 C 164 159.514008 168.485992 164 174 164 C 179.514008 164 184 159.514008 184 154 C 184 148.485992 179.514008 144 174 144"/>
    <path id="path4" fill="#ffffff" stroke="none" d="M 100 192 C 100 189.800003 101.800003 188 104 188 L 105.083 188 C 104.398003 189.179001 104 190.541992 104 192 C 104 193.458008 104.398003 194.820999 105.083 196 L 104 196 C 101.800003 196 100 194.199997 100 192 M 108 192 C 108 189.791 109.791 188 112 188 C 114.199997 188 116 189.800003 116 192 C 116 194.199997 114.199997 196 112 196 C 109.791 196 108 194.209 108 192 M 112 200 C 112.276001 200 112.548004 199.985992 112.817001 199.959 C 114.160004 199.821991 115.405998 199.352005 116.470001 198.632004 C 116.682999 198.488007 116.888 198.334 117.085999 198.171005 C 118.270996 197.19101 119.170998 195.878998 119.639999 194.376007 C 119.874001 193.625 120 192.826996 120 192 C 120 191.173004 119.874001 190.375 119.639999 189.623993 C 119.170998 188.121002 118.270996 186.80899 117.085999 185.82901 C 116.888 185.666 116.682999 185.511993 116.470001 185.367996 C 115.405998 184.64801 114.160004 184.178009 112.817001 184.041 C 112.548004 184.014008 112.276001 184 112 184 L 104 184 C 99.588997 184 96 187.588989 96 192 C 96 196.410995 99.588997 200 104 200 Z"/>
    <path id="path5" fill="#ffffff" stroke="none" d="M 148 196 C 145.791 196 144 194.209 144 192 C 144 189.791 145.791 188 148 188 C 150.199997 188 152 189.800003 152 192 C 152 194.199997 150.199997 196 148 196 M 136 192 C 136 189.800003 137.800003 188 140 188 L 141.082001 188 C 140.397995 189.179001 140 190.541992 140 192 C 140 193.458008 140.397995 194.820999 141.082001 196 L 140 196 C 137.800003 196 136 194.199997 136 192 M 148 184 L 140 184 C 135.589005 184 132 187.588989 132 192 C 132 196.410995 135.589005 200 140 200 L 148 200 C 152.410995 200 156 196.410995 156 192 C 156 187.588989 152.410995 184 148 184"/>
    <path id="path6" fill="#ffffff" stroke="none" d="M 118 216 L 110 216 C 108.900002 216 108 215.100006 108 214 C 108 212.899994 108.900002 212 110 212 L 118 212 C 119.099998 212 120 212.899994 120 214 C 120 215.100006 119.099998 216 118 216 M 118 208 L 110 208 C 106.691002 208 104 210.69101 104 214 C 104 217.30899 106.691002 220 110 220 L 118 220 C 121.308998 220 124 217.30899 124 214 C 124 210.69101 121.308998 208 118 208"/>
    <path id="path7" fill="#ffffff" stroke="none" d="M 142 216 L 134 216 C 132.899994 216 132 215.100006 132 214 C 132 212.899994 132.899994 212 134 212 L 142 212 C 143.100006 212 144 212.899994 144 214 C 144 215.100006 143.100006 216 142 216 M 142 208 L 134 208 C 130.690994 208 128 210.69101 128 214 C 128 217.30899 130.690994 220 134 220 L 142 220 C 145.309006 220 148 217.30899 148 214 C 148 210.69101 145.309006 208 142 208"/>
    <path id="path8" fill="#ffffff" stroke="none" d="M 148 128 L 104 128 L 104 130 L 148 130 Z"/>
    <path id="path9" fill="#ffffff" stroke="none" d="M 148 132 L 104 132 L 104 134 L 148 134 Z"/>
    <path id="path10" fill="#ffffff" stroke="none" d="M 148 136 L 104 136 L 104 138 L 148 138 Z"/>
    <path id="path11" fill="#ffffff" stroke="none" d="M 148 140 L 104 140 L 104 142 L 148 142 Z"/>
    <path id="path12" fill="#ffffff" stroke="none" d="M 188.520493 108.544907 C 188.229507 114.953903 182.948502 119.999893 176.533493 119.999893 L 79.466499 119.999893 C 73.051498 119.999893 67.7705 114.953903 67.4795 108.544907 L 63.999496 31.999908 C 63.999496 25.399902 69.399498 19.999908 75.999496 19.999908 L 118.472504 19.999908 L 137.527496 19.999908 L 179.999496 19.999908 C 186.599503 19.999908 191.999496 25.399902 191.999496 31.999908 Z M 191.999496 215.999908 C 191.999496 229.199905 181.2005 239.999908 167.999496 239.999908 L 87.999496 239.999908 C 74.7995 239.999908 63.999496 229.199905 63.999496 215.999908 L 63.999496 112.075897 C 65.804497 118.975906 72.050499 123.999893 79.466499 123.999893 L 176.533493 123.999893 C 183.949493 123.999893 190.195496 118.975906 191.999496 112.075897 Z M 87.999496 11.999908 L 105.819504 11.999908 C 108.995499 11.999908 111.927498 13.517899 113.794502 15.999908 L 75.999496 15.999908 C 75.397499 15.999908 74.805504 16.039902 74.220497 16.104904 C 77.2855 13.855896 81.710503 11.999908 87.999496 11.999908 M 150.180496 11.999908 L 167.999496 11.999908 C 174.289505 11.999908 178.714493 13.855896 181.780502 16.104904 C 181.194504 16.039902 180.602493 15.999908 179.999496 15.999908 L 142.205505 15.999908 C 144.072495 13.517899 147.004501 11.999908 150.180496 11.999908 M 195.999496 32.090897 L 195.999496 31.999908 C 195.999496 27.186905 193.8535 22.873901 190.479507 19.938904 C 189.698502 18.572906 188.528503 16.871902 186.828506 15.170898 C 183.556503 11.899902 177.634506 7.999908 167.999496 7.999908 L 150.180496 7.999908 C 144.842499 7.999908 140.044495 10.964905 137.658493 15.738907 L 137.528503 15.999908 L 118.472504 15.999908 L 118.341499 15.738907 C 115.955498 10.964905 111.156502 7.999908 105.819504 7.999908 L 87.999496 7.999908 C 78.365501 7.999908 72.443497 11.899902 69.171501 15.170898 C 67.471497 16.871902 66.301498 18.572906 65.5205 19.938904 C 62.1455 22.873901 59.999504 27.186905 59.999504 31.999908 L 59.999504 32.090897 L 60.003502 32.1819 L 60.541504 43.999908 L 59.999504 43.999908 L 59.999504 215.999908 C 59.999504 231.439896 72.560501 243.999908 87.999496 243.999908 L 167.999496 243.999908 C 183.439499 243.999908 195.999496 231.439896 195.999496 215.999908 L 195.999496 43.999908 L 195.458496 43.999908 L 195.996506 32.1819 Z"/>
</svg>
