<?xml version="1.0" encoding="UTF-8"?>
<!-- Generated by Pixelmator Pro 3.7.1 -->
<svg width="256" height="256" viewBox="0 0 256 256" xmlns="http://www.w3.org/2000/svg">
    <path id="Path" fill="#ffffff" stroke="none" d="M 68 32 L 64 32 L 64 20 L 68 20 Z"/>
    <path id="path1" fill="#ffffff" stroke="none" d="M 76 28 L 72 28 L 72 20 L 76 20 Z"/>
    <path id="path2" fill="#ffffff" stroke="none" d="M 84 28 L 80 28 L 80 20 L 84 20 Z"/>
    <path id="path3" fill="#ffffff" stroke="none" d="M 92 28 L 88 28 L 88 20 L 92 20 Z"/>
    <path id="path4" fill="#ffffff" stroke="none" d="M 100 28 L 96 28 L 96 20 L 100 20 Z"/>
    <path id="path5" fill="#ffffff" stroke="none" d="M 108 28 L 104 28 L 104 20 L 108 20 Z"/>
    <path id="path6" fill="#ffffff" stroke="none" d="M 116 28 L 112 28 L 112 20 L 116 20 Z"/>
    <path id="path7" fill="#ffffff" stroke="none" d="M 132 28 L 128 28 L 128 20 L 132 20 Z"/>
    <path id="path8" fill="#ffffff" stroke="none" d="M 140 28 L 136 28 L 136 20 L 140 20 Z"/>
    <path id="path9" fill="#ffffff" stroke="none" d="M 148 28 L 144 28 L 144 20 L 148 20 Z"/>
    <path id="path10" fill="#ffffff" stroke="none" d="M 156 28 L 152 28 L 152 20 L 156 20 Z"/>
    <path id="path11" fill="#ffffff" stroke="none" d="M 164 28 L 160 28 L 160 20 L 164 20 Z"/>
    <path id="path12" fill="#ffffff" stroke="none" d="M 172 28 L 168 28 L 168 20 L 172 20 Z"/>
    <path id="path13" fill="#ffffff" stroke="none" d="M 180 28 L 176 28 L 176 20 L 180 20 Z"/>
    <path id="path14" fill="#ffffff" stroke="none" d="M 188 28 L 184 28 L 184 16 L 188 16 Z"/>
    <path id="path15" fill="#ffffff" stroke="none" d="M 124 28 L 120 28 L 120 16 L 124 16 Z"/>
    <path id="path16" fill="#ffffff" stroke="none" d="M 60 112 L 196 112 L 196 220 L 60 220 Z M 204 236.531006 C 204 240.656006 200.686996 244 196.600998 244 L 152.770996 244 L 152.770996 240.257996 L 152.770996 232.774002 L 152.770996 229.972992 L 150.138 229.014999 L 136.345993 224 L 196 224 L 200 224 L 200 220 L 200 112 L 200 108 L 196 108 L 60 108 L 56 108 L 56 112 L 56 220 L 56 224 L 60 224 L 120.032997 224 L 106.241997 229.014999 L 103.609001 229.972992 L 103.609001 232.774002 L 103.609001 240.257996 L 103.609001 244 L 59.400002 244 C 55.313 244 52 240.656006 52 236.531006 L 52 19.468994 C 52 16.582001 53.625 14.082993 56 12.839005 L 56 16 L 56 92.363998 C 56 98.779999 61.091999 104 67.351997 104 L 188.647995 104 C 194.908005 104 200 98.779999 200 92.363998 L 200 16 L 200 12.839005 C 202.375 14.082993 204 16.582001 204 19.468994 Z M 148.770996 240.257996 L 107.609001 240.257996 L 107.609001 232.774002 L 128.188995 225.290009 L 148.770996 232.774002 Z M 60 16 L 60 12 L 196 12 L 196 16 L 196 92.363998 C 196 96.580994 192.709 100 188.647995 100 L 67.351997 100 C 63.292 100 60 96.580994 60 92.363998 Z M 196.600998 8 L 59.400002 8 C 53.113998 8 48 13.145004 48 19.468994 L 48 236.531006 C 48 242.854996 53.113998 248 59.400002 248 L 196.600998 248 C 202.886002 248 208 242.854996 208 236.531006 L 208 19.468994 C 208 13.145004 202.886002 8 196.600998 8"/>
</svg>
