<?xml version="1.0" encoding="UTF-8"?>
<!-- Generated by Pixelmator Pro 3.7.1 -->
<svg width="256" height="256" viewBox="0 0 256 256" xmlns="http://www.w3.org/2000/svg">
    <path id="Path" fill="#ffffff" stroke="none" d="M 100 192 L 104 192 L 104 152 L 100 152 Z"/>
    <path id="path1" fill="#ffffff" stroke="none" d="M 108 192 L 112 192 L 112 152 L 108 152 Z"/>
    <path id="path2" fill="#ffffff" stroke="none" d="M 116 192 L 120 192 L 120 152 L 116 152 Z"/>
    <path id="path3" fill="#ffffff" stroke="none" d="M 136 192 L 140 192 L 140 152 L 136 152 Z"/>
    <path id="path4" fill="#ffffff" stroke="none" d="M 144 192 L 148 192 L 148 152 L 144 152 Z"/>
    <path id="path5" fill="#ffffff" stroke="none" d="M 152 192 L 156 192 L 156 152 L 152 152 Z"/>
    <path id="path6" fill="#ffffff" stroke="none" d="M 84 216 L 88 216 L 88 152 L 84 152 Z"/>
    <path id="path7" fill="#ffffff" stroke="none" d="M 92 216 L 96 216 L 96 152 L 92 152 Z"/>
    <path id="path8" fill="#ffffff" stroke="none" d="M 160 216 L 164 216 L 164 152 L 160 152 Z"/>
    <path id="path9" fill="#ffffff" stroke="none" d="M 168 216 L 172 216 L 172 152 L 168 152 Z"/>
    <path id="path10" fill="#ffffff" stroke="none" d="M 123.552696 164.894501 C 123.696701 164.9655 123.848701 164.999496 123.998703 164.999496 C 124.3657 164.999496 124.718697 164.797501 124.894699 164.44751 L 125.999702 162.236511 L 125.999702 187.999496 L 129.999695 187.999496 L 129.999695 162.236511 L 131.105698 164.44751 C 131.281693 164.797501 131.633698 164.999496 132.000702 164.999496 C 132.151703 164.999496 132.303696 164.9655 132.447693 164.894501 C 132.941696 164.647491 133.141693 164.046509 132.894699 163.55249 L 128.894699 155.55249 C 128.724701 155.213501 128.362701 155.044495 127.999702 155.044495 C 127.637703 155.044495 127.274696 155.213501 127.105698 155.55249 L 123.105698 163.55249 C 122.858704 164.046509 123.058701 164.647491 123.552696 164.894501"/>
    <path id="path11" fill="#ffffff" stroke="none" d="M 244 69.868195 L 243.304001 69.171204 L 242.132004 68.000198 L 240.475006 68.000198 L 220.475998 68.000198 L 216.475998 68.000198 C 216.222 68.000198 215.975006 68.026199 215.731003 68.065201 C 197.225006 39.139206 164.813995 19.924194 128 19.924194 C 91.205002 19.924194 58.809998 39.118195 40.298004 68.018204 C 40.199005 68.012207 40.100998 68.000198 40 68.000198 L 36 68.000198 L 16 68.000198 L 14.343002 68.000198 L 13.171997 69.171204 L 12 70.343201 L 12 24.000198 C 12 17.400208 17.399994 12.000198 24 12.000198 L 60 12.000198 L 60 15.931198 L 64 15.931198 L 64 12.000198 L 68 12.000198 L 68 15.931198 L 72 15.931198 L 72 12.000198 L 76 12.000198 L 76 15.931198 L 80 15.931198 L 80 12.000198 L 84 12.000198 L 84 15.931198 L 88 15.931198 L 88 12.000198 L 92 12.000198 L 92 15.931198 L 96 15.931198 L 96 12.000198 L 100 12.000198 L 100 15.931198 L 104 15.931198 L 104 12.000198 L 108 12.000198 L 108 15.931198 L 112 15.931198 L 112 12.000198 L 116 12.000198 L 116 15.931198 L 120 15.931198 L 120 12.000198 L 124 12.000198 L 124 15.931198 L 128 15.931198 L 128 12.000198 L 132 12.000198 L 132 15.931198 L 136 15.931198 L 136 12.000198 L 140 12.000198 L 140 15.931198 L 144 15.931198 L 144 12.000198 L 148 12.000198 L 148 15.931198 L 152 15.931198 L 152 12.000198 L 156 12.000198 L 156 15.931198 L 160 15.931198 L 160 12.000198 L 164 12.000198 L 164 15.931198 L 168 15.931198 L 168 12.000198 L 172 12.000198 L 172 15.931198 L 176 15.931198 L 176 12.000198 L 180 12.000198 L 180 15.931198 L 184 15.931198 L 184 12.000198 L 188 12.000198 L 188 15.931198 L 192 15.931198 L 192 12.000198 L 232 12.000198 C 238.600006 12.000198 244 17.400208 244 24.000198 Z M 244 76.475204 L 240.475006 80.000198 L 222.302994 80.000198 C 221.022003 77.267197 219.630997 74.597198 218.126999 72.000198 L 220.475998 72.000198 L 240.475006 72.000198 L 244 75.525208 Z M 244 236.000198 C 244 238.200195 242.199997 240.000198 240 240.000198 L 220 240.000198 L 220 208.000198 C 220 203.589188 216.410995 200.000198 212 200.000198 L 199.022003 200.000198 C 202.985001 196.294205 206.654999 192.279205 210.002991 188.000214 L 240 188.000214 L 240 184.000214 L 212.983002 184.000214 C 214.027008 182.526199 215.031998 181.0242 216 179.496201 L 216 180.000214 L 240 180.000214 L 240 176.000214 L 218.117996 176.000214 C 218.880005 174.684204 219.610992 173.350204 220.317001 172.000214 L 240 172.000214 L 240 168.000214 L 222.300995 168.000214 C 222.919006 166.681213 223.511993 165.348206 224.074997 164.000214 L 240 164.000214 L 240 160.000214 L 225.645996 160.000214 C 226.134995 158.678192 226.602997 157.347198 227.039001 156.000214 L 240 156.000214 L 240 152.000214 L 228.240005 152.000214 C 228.610001 150.6772 228.958008 149.344208 229.276001 148.000214 L 240 148.000214 L 240 144.000214 L 230.139008 144.000214 C 231.404007 137.525208 232.074997 130.84021 232.074997 124.000198 C 232.074997 109.833206 229.225998 96.321198 224.076996 84.000198 L 240.475006 84.000198 L 242.132004 84.000198 L 243.304001 82.828201 L 244 82.132202 Z M 216 240.000198 L 208 240.000198 L 208 212.000198 L 183.505005 212.000198 C 187.345001 209.569199 191.015991 206.896194 194.494003 204.000198 L 212 204.000198 C 214.209 204.000198 216 205.791199 216 208.000198 Z M 204 240.000198 L 180 240.000198 L 180 216.000198 L 204 216.000198 Z M 80 144.000214 L 76 144.000214 L 76 148.000214 L 76 209.4552 C 75.751999 209.304199 75.498001 209.161194 75.251007 209.008194 L 75.046005 208.879196 C 72.970001 207.579193 70.944 206.2052 68.972 204.760193 C 68.921997 204.72319 68.871994 204.687195 68.822006 204.650192 C 66.813004 203.172195 64.858994 201.621201 62.966995 200.000198 C 57.417999 195.245193 52.399002 189.889206 48 184.044205 L 48 184.000214 L 47.966995 184.000214 C 40.878998 174.571198 35.417999 163.856201 32 152.272202 L 32 152.000214 L 31.917999 152.000214 C 29.322998 143.111206 27.925003 133.717194 27.925003 124.000198 C 27.925003 109.785202 30.910004 96.256195 36.276993 83.997192 C 37.332993 81.587204 38.479996 79.226196 39.714005 76.918198 C 39.733002 76.882202 39.751999 76.846207 39.770996 76.809204 C 40.354004 75.722198 40.960007 74.647202 41.582001 73.584198 C 41.669006 73.437195 41.755997 73.290207 41.843994 73.142197 C 42.466003 72.092194 43.102005 71.051193 43.761002 70.025208 C 61.576996 42.316193 92.681 23.924194 128 23.924194 C 163.484009 23.924194 194.712006 42.491196 212.485992 70.417206 C 213.156006 71.471207 213.807007 72.5392 214.438004 73.619202 C 214.460999 73.657196 214.483002 73.695206 214.505997 73.734207 C 215.136993 74.816193 215.748001 75.910202 216.339005 77.018204 C 216.354004 77.047195 216.369995 77.076202 216.384995 77.106201 C 217.582001 79.355194 218.697006 81.654205 219.723999 84.000198 C 225.089996 96.257202 228.074997 109.785202 228.074997 124.000198 C 228.074997 133.717194 226.677002 143.111206 224.082001 152.000214 L 224 152.000214 L 224 152.272202 C 220.582001 163.856201 215.119995 174.571198 208.033005 184.000214 L 208 184.000214 L 208 184.044205 C 203.600998 189.889206 198.582001 195.245193 193.033005 200.000198 C 191.140991 201.621201 189.186996 203.172195 187.178009 204.650192 C 187.127991 204.687195 187.078003 204.72319 187.027008 204.760193 C 185.057007 206.2052 183.031006 207.578201 180.953995 208.879196 C 180.886002 208.922195 180.81601 208.965195 180.748001 209.008194 C 180.501999 209.161194 180.248001 209.304199 180 209.4552 L 180 148.000214 L 180 144.000214 L 176 144.000214 Z M 176 240.000198 L 160 240.000198 L 160 232.000198 L 160 224.000198 C 160 207.027191 146.716003 193.105194 130 192.069199 L 130 192.000198 L 126 192.000198 L 126 192.069199 C 109.283997 193.105194 96 207.027191 96 224.000198 L 96 232.000198 L 96 240.000198 L 80 240.000198 L 80 148.000214 L 176 148.000214 Z M 156 232.000198 L 156 240.000198 L 100 240.000198 L 100 232.000198 L 100 224.000198 C 100 208.536194 112.535995 196.000198 128 196.000198 C 143.463989 196.000198 156 208.536194 156 224.000198 Z M 76 240.000198 L 52 240.000198 L 52 216.000198 L 76 216.000198 Z M 48 212.000198 L 48 240.000198 L 40 240.000198 L 40 208.000198 C 40 205.791199 41.791 204.000198 44 204.000198 L 61.505005 204.000198 C 64.983994 206.896194 68.654999 209.569199 72.494995 212.000198 Z M 12 76.000198 L 16 72.000198 L 36 72.000198 L 37.873001 72.000198 C 36.369003 74.597198 34.977997 77.267197 33.697998 80.000198 L 16 80.000198 Z M 36 208.000198 L 36 240.000198 L 16 240.000198 C 13.800003 240.000198 12 238.200195 12 236.000198 L 12 81.657196 L 13.171997 82.828201 L 14.343002 84.000198 L 16 84.000198 L 31.923004 84.000198 C 26.774002 96.321198 23.925003 109.833206 23.925003 124.000198 C 23.925003 130.84021 24.595001 137.525208 25.860992 144.000214 L 16 144.000214 L 16 148.000214 L 26.723999 148.000214 C 27.042007 149.344208 27.389999 150.6772 27.759995 152.000214 L 16 152.000214 L 16 156.000214 L 28.960999 156.000214 C 29.397003 157.347198 29.865997 158.678192 30.354004 160.000214 L 16 160.000214 L 16 164.000214 L 31.925003 164.000214 C 32.488998 165.348206 33.080994 166.681213 33.699005 168.000214 L 16 168.000214 L 16 172.000214 L 35.682999 172.000214 C 36.388 173.350204 37.119995 174.684204 37.882004 176.000214 L 16 176.000214 L 16 180.000214 L 40 180.000214 L 40 179.495209 C 40.968002 181.0242 41.973007 182.526199 43.016006 184.000214 L 16 184.000214 L 16 188.000214 L 45.996994 188.000214 C 49.345001 192.279205 53.014008 196.294205 56.977997 200.000198 L 44 200.000198 C 39.589005 200.000198 36 203.589188 36 208.000198 M 232 8.000198 L 192 8.000198 L 188 8.000198 L 184 8.000198 L 180 8.000198 L 176 8.000198 L 172 8.000198 L 168 8.000198 L 164 8.000198 L 160 8.000198 L 156 8.000198 L 152 8.000198 L 148 8.000198 L 144 8.000198 L 140 8.000198 L 136 8.000198 L 132 8.000198 L 128 8.000198 L 124 8.000198 L 120 8.000198 L 116 8.000198 L 112 8.000198 L 108 8.000198 L 104 8.000198 L 100 8.000198 L 96 8.000198 L 92 8.000198 L 88 8.000198 L 84 8.000198 L 80 8.000198 L 76 8.000198 L 72 8.000198 L 68 8.000198 L 64 8.000198 L 60 8.000198 L 24 8.000198 C 15.177994 8.000198 8 15.178207 8 24.000198 L 8 74.343201 L 8 77.657196 L 8 236.000198 C 8 240.411194 11.589005 244.000198 16 244.000198 L 36 244.000198 L 40 244.000198 L 48 244.000198 L 52 244.000198 L 96 244.000198 L 100 244.000198 L 156 244.000198 L 160 244.000198 L 204 244.000198 L 208 244.000198 L 216 244.000198 L 220 244.000198 L 240 244.000198 C 244.410995 244.000198 248 240.411194 248 236.000198 L 248 78.132202 L 248 73.868195 L 248 24.000198 C 248 15.178207 240.822006 8.000198 232 8.000198"/>
</svg>
