<?xml version="1.0" encoding="UTF-8"?>
<!-- Generated by Pixelmator Pro 3.7.1 -->
<svg width="256" height="256" viewBox="0 0 256 256" xmlns="http://www.w3.org/2000/svg">
    <path id="Path" fill="#ffffff" stroke="none" d="M 150 144 C 146.686996 144 144 141.313004 144 138 C 144 134.686996 146.686996 132 150 132 C 153.313004 132 156 134.686996 156 138 C 156 141.313004 153.313004 144 150 144 M 150 128 C 144.485992 128 140 132.485992 140 138 C 140 143.514008 144.485992 148 150 148 C 155.514008 148 160 143.514008 160 138 C 160 132.485992 155.514008 128 150 128"/>
    <path id="path1" fill="#ffffff" stroke="none" d="M 162 128 C 160.895996 128 160 128.895996 160 130 C 160 131.104004 160.895996 132 162 132 C 163.104004 132 164 131.104004 164 130 C 164 128.895996 163.104004 128 162 128"/>
    <path id="path2" fill="#ffffff" stroke="none" d="M 135.951202 95.116699 L 162.889206 92.123703 C 162.928192 92.118698 162.965195 92.116699 163.002197 92.116699 C 163.546204 92.116699 164.000198 92.558701 164.000198 93.116699 L 164.000198 99.104706 C 164.000198 99.6147 163.617203 100.042694 163.110199 100.098694 L 135.951202 103.116699 C 133.308197 103.409698 130.654205 103.556702 128.000198 103.556702 C 125.346199 103.556702 122.6912 103.409698 120.049202 103.116699 L 92.889198 100.098694 C 92.383202 100.042694 92.000198 99.6147 92.000198 99.104706 L 92.000198 93.116699 C 92.000198 92.558701 92.454201 92.116699 92.998199 92.116699 C 93.035202 92.116699 93.073204 92.118698 93.110199 92.123703 L 120.049202 95.116699 C 122.6912 95.409698 125.346199 95.556702 128.000198 95.556702 C 130.654205 95.556702 133.308197 95.409698 135.951202 95.116699 M 120.491203 91.140701 L 93.5522 88.147705 C 93.366203 88.126694 93.181198 88.116699 92.998199 88.116699 C 90.242203 88.116699 88.000198 90.360703 88.000198 93.116699 L 88.000198 99.104706 C 88.000198 101.656693 89.912201 103.792694 92.448204 104.074707 L 119.607201 107.091705 C 122.383202 107.400696 125.207199 107.556702 128.000198 107.556702 C 130.793198 107.556702 133.617203 107.400696 136.392197 107.091705 L 163.5522 104.074707 C 166.088196 103.792694 168.000198 101.656693 168.000198 99.104706 L 168.000198 93.116699 C 168.000198 90.360703 165.758194 88.116699 163.002197 88.116699 C 162.818207 88.116699 162.633194 88.126694 162.446198 88.147705 L 135.510193 91.140701 C 133.025192 91.416702 130.499207 91.556702 128.000198 91.556702 C 125.501198 91.556702 122.974197 91.416702 120.491203 91.140701"/>
    <path id="path3" fill="#ffffff" stroke="none" d="M 176.404297 21.776398 C 165.455307 20.664398 147.359299 20.000397 128.000305 20.000397 C 108.640297 20.000397 90.545296 20.664398 79.595299 21.776398 L 76.000298 22.141403 L 76.000298 20.000397 C 76.000298 17.791397 99.281296 16.000397 128.000305 16.000397 C 156.718292 16.000397 180.000305 17.791397 180.000305 20.000397 L 180.000305 22.141403 Z M 176.000305 110.000397 L 175.795303 110.000397 L 175.606293 110.081406 C 175.328293 110.200409 147.568298 122.000397 128.000305 122.000397 C 108.438293 122.000397 80.672295 110.200409 80.394295 110.081406 L 80.205299 110.000397 L 80.000298 110.000397 L 80.000298 25.755402 C 90.429298 24.696396 108.030296 24.000397 128.000305 24.000397 C 147.968292 24.000397 165.570297 24.696396 176.000305 25.755402 Z M 180.000305 28.000397 L 184.000305 28.000397 L 184.000305 20.000397 C 184.000305 15.848404 179.205307 14.976395 176.629303 14.507401 C 173.875305 14.006393 169.988297 13.561401 165.076294 13.183395 C 155.156296 12.420395 141.988297 12.000397 128.000305 12.000397 C 114.011299 12.000397 100.8433 12.420395 90.924294 13.183395 C 86.011299 13.561401 82.124298 14.006393 79.3703 14.507401 C 76.795296 14.976395 72.000298 15.848404 72.000298 20.000397 L 72.000298 28.000397 L 76.000298 28.000397 L 76.000298 110.000397 L 76.000298 112.000397 L 79.3983 114.000397 C 79.562294 114.068405 79.771294 114.153397 80.000298 114.246399 L 80.000298 172.000397 L 84.000298 172.000397 L 84.000298 115.814407 C 93.198296 119.302399 112.836296 126.000397 128.000305 126.000397 C 136.531296 126.000397 147.378296 123.947403 160.238297 119.901398 C 164.917297 118.428406 169.008301 116.9534 172.000305 115.817398 L 172.000305 172.000397 L 176.000305 172.000397 L 176.000305 114.247406 C 176.229294 114.153397 176.438293 114.068405 176.602295 114.000397 L 180.000305 112.000397 L 180.000305 110.000397 Z"/>
    <path id="path4" fill="#ffffff" stroke="none" d="M 196 160.876999 C 196 162.712997 194.751007 164.313004 192.970001 164.757996 L 184 167 L 184 112 L 180 112 L 180 168 L 180 172 L 180 187 C 180 187.553009 179.552994 188 179 188 L 177 188 C 176.447006 188 176 187.553009 176 187 L 176 178.414001 C 176 177.811996 175.507004 177.412003 174.992996 177.412003 C 174.746994 177.412003 174.496994 177.502991 174.292999 177.707001 L 169.326996 179.516998 C 168.449005 179.835999 167.522003 180 166.587997 180 L 89.412003 180 C 88.477997 180 87.551003 179.835999 86.672997 179.516998 L 81.707001 177.707001 C 81.502998 177.502991 81.252998 177.412003 81.007004 177.412003 C 80.492996 177.412003 80 177.811996 80 178.414001 L 80 187 C 80 187.553009 79.552002 188 79 188 L 77 188 C 76.447998 188 76 187.553009 76 187 L 76 172 L 76 168 L 76 112 L 72 112 L 72 167 L 63.029999 164.757996 C 61.248993 164.313004 60 162.712997 60 160.876999 L 60 16 C 60 13.791 90.445 12 128 12 C 165.556 12 196 13.791 196 16 Z M 174 244 L 152 244 L 152 216 L 172 216 L 172 212 L 152 212 L 152 208 L 172 208 L 172 204 L 152 204 L 152 200 L 148 200 L 108 200 L 104 200 L 104 204 L 84 204 L 84 208 L 104 208 L 104 212 L 84 212 L 84 216 L 104 216 L 104 244 L 82 244 C 80.896004 244 80 243.104996 80 242 L 80 191.89801 C 82.278999 191.434998 84 189.415009 84 187 L 84 182.800003 L 85.304001 183.274002 C 86.625 183.755997 88.005997 184 89.412003 184 L 166.587997 184 C 167.992996 184 169.376007 183.755997 170.695999 183.274002 L 172 182.800003 L 172 187 C 172 189.415009 173.721008 191.434998 176 191.89801 L 176 242 C 176 243.104996 175.104004 244 174 244 M 144 244 L 144 232 C 144 223.177994 136.821991 216 128 216 C 119.178001 216 112 223.177994 112 232 L 112 244 L 108 244 L 108 216 L 108 212 L 108 208 L 108 204 L 112 204 L 112 220 L 116 220 L 116 204 L 120 204 L 120 208 L 124 208 L 124 204 L 132 204 L 132 208 L 136 208 L 136 204 L 140 204 L 140 220 L 144 220 L 144 204 L 148 204 L 148 208 L 148 212 L 148 216 L 148 244 Z M 116 244 L 116 232 C 116 225.373001 121.373001 220 128 220 C 134.626999 220 140 225.373001 140 232 L 140 244 Z M 191.207001 10.481003 C 187.677994 9.990005 182.667999 9.552002 176.317993 9.179001 C 163.399002 8.419006 146.238998 8 128 8 C 109.761002 8 92.600998 8.419006 79.681999 9.179001 C 73.332001 9.552002 68.321999 9.990005 64.792999 10.481003 C 60.875 11.026001 56 11.703995 56 16 L 56 160.876999 C 56 164.554993 58.492004 167.746002 62.059998 168.638 L 72 171.123001 L 72 187 C 72 189.415009 73.721001 191.434998 76 191.89801 L 76 242 C 76 245.309006 78.691002 248 82 248 L 104 248 L 108 248 L 112 248 L 116 248 L 140 248 L 144 248 L 148 248 L 152 248 L 174 248 C 177.309006 248 180 245.309006 180 242 L 180 191.89801 C 182.279007 191.434998 184 189.415009 184 187 L 184 171.123001 L 193.940002 168.638 C 197.507996 167.746002 200 164.554993 200 160.876999 L 200 16 C 200 11.703995 195.125 11.026001 191.207001 10.481003"/>
    <path id="path5" fill="#ffffff" stroke="none" d="M 120 216 L 124 216 L 124 212 L 120 212 Z"/>
    <path id="path6" fill="#ffffff" stroke="none" d="M 132 216 L 136 216 L 136 212 L 132 212 Z"/>
    <path id="path7" fill="#ffffff" stroke="none" d="M 68 112 L 72 112 L 72 28 L 68 28 Z"/>
    <path id="path8" fill="#ffffff" stroke="none" d="M 188 28 L 184 28 L 184 112 L 188 112 Z"/>
</svg>
