<?xml version="1.0" encoding="UTF-8"?>
<!-- Generated by Pixelmator Pro 3.7.1 -->
<svg width="256" height="256" viewBox="0 0 256 256" xmlns="http://www.w3.org/2000/svg">
    <path id="Path" fill="#ffffff" stroke="none" d="M 84 112 L 80 112 L 80 76 L 84 76 Z"/>
    <path id="path1" fill="#ffffff" stroke="none" d="M 76 108 L 72 108 L 72 80 L 76 80 Z"/>
    <path id="path2" fill="#ffffff" stroke="none" d="M 68 104 L 64 104 L 64 84 L 68 84 Z"/>
    <path id="path3" fill="#ffffff" stroke="none" d="M 60 100 L 56 100 L 56 88 L 60 88 Z"/>
    <path id="path4" fill="#ffffff" stroke="none" d="M 52 96 L 48 96 L 48 92 L 52 92 Z"/>
    <path id="path5" fill="#ffffff" stroke="none" d="M 172 112 L 176 112 L 176 76 L 172 76 Z"/>
    <path id="path6" fill="#ffffff" stroke="none" d="M 180 108 L 184 108 L 184 80 L 180 80 Z"/>
    <path id="path7" fill="#ffffff" stroke="none" d="M 188 104 L 192 104 L 192 84 L 188 84 Z"/>
    <path id="path8" fill="#ffffff" stroke="none" d="M 196 100 L 200 100 L 200 88 L 196 88 Z"/>
    <path id="path9" fill="#ffffff" stroke="none" d="M 204 96 L 208 96 L 208 92 L 204 92 Z"/>
    <path id="path10" fill="#ffffff" stroke="none" d="M 168 8 L 88 8 C 83.588997 8 80 11.589005 80 16 L 80 58.261993 L 38.862 75.201996 C 29.832993 78.919006 24 87.630005 24 97.393997 L 24.328003 176.016998 L 24.328995 176.225006 L 24.352005 176.432007 C 26.483002 196.087997 38.348999 214.25 57.762001 227.570999 C 76.958 240.744995 101.903 248 128 248 C 153.197998 248 177.496002 241.179001 196.416992 228.792007 C 198.660004 227.322998 200 224.828995 200 222.119003 L 200 217.656998 L 205.656998 212 L 211.873001 212 C 214.345001 212 216.705994 210.845001 218.190002 208.910004 C 225.869003 198.901001 230.395996 187.973999 231.647995 176.432007 L 231.671005 176.225006 L 231.671997 176.016998 L 232 97.411011 C 232 87.630005 226.166 78.919006 217.138 75.201996 L 176 58.261993 L 176 16 C 176 11.589005 172.410995 8 168 8 M 168 12 C 170.209 12 172 13.791 172 16 L 172 60.94101 L 215.615005 78.899994 C 223.109009 81.985992 228 89.290009 228 97.393997 L 227.671997 176 C 226.477005 187.016998 222.018005 197.350006 215.016998 206.475998 C 214.270996 207.447998 213.098999 208 211.873001 208 L 204.828003 208 C 204.298004 208 203.789001 208.210999 203.414001 208.585999 L 196.585999 215.414001 C 196.210999 215.789001 196 216.298004 196 216.828003 L 196 222.119003 C 196 223.453995 195.343002 224.714005 194.225998 225.445007 C 176.589005 236.990997 153.399994 244 128 244 C 75.500999 244 32.455994 214.061996 28.328003 176 L 28 97.393997 C 28 89.290009 32.891006 81.985992 40.385002 78.899994 L 84 60.94101 L 84 16 C 84 13.791 85.791 12 88 12 L 168 12"/>
    <path id="path11" fill="#ffffff" stroke="none" d="M 160 160 L 156 160 L 100 160 L 96 160 L 96 164 L 96 241.057007 L 96 244.287003 L 99.158005 244.968002 C 108.498001 246.979004 118.201996 248 128 248 C 137.798004 248 147.501999 246.979004 156.843002 244.968002 L 160 244.287003 L 160 241.057007 L 160 164 Z M 156 164 L 156 241.057007 C 147.115005 242.972 137.720001 244 128 244 C 118.279999 244 108.884995 242.972 100 241.057007 L 100 164 L 156 164"/>
    <path id="path12" fill="#ffffff" stroke="none" d="M 160 160 L 156 160 L 100 160 L 96 160 L 96 164 L 96 228 L 96 232 L 100 232 L 116 232 L 120 232 L 120 228 L 120 216 C 120 211.589005 123.589005 208 128 208 C 132.410995 208 136 211.589005 136 216 L 136 228 L 136 232 L 140 232 L 156 232 L 160 232 L 160 228 L 160 164 Z M 156 164 L 156 228 L 140 228 L 140 216 C 140 209.399994 134.600006 204 128 204 C 121.400002 204 116 209.399994 116 216 L 116 228 L 100 228 L 100 164 L 156 164"/>
    <path id="path13" fill="#ffffff" stroke="none" d="M 152.307602 28 L 151.842606 28 C 149.625595 28 147.523605 28.923004 146.023605 30.516006 L 144.4216 31.317001 C 141.694595 32.681 139.999603 35.421997 139.999603 38.472 L 139.999603 128 L 115.999603 128 L 115.999603 38.472 C 115.999603 35.421997 114.305603 32.681 111.577599 31.317001 L 109.976601 30.516006 C 108.475601 28.923004 106.373604 28 104.156601 28 L 103.692596 28 C 102.382599 28 101.101601 28.322006 99.947601 28.936996 L 93.5466 30.634995 C 90.300598 31.453003 87.999603 34.675003 87.999603 38.458008 L 87.999603 127.963989 C 87.999603 128.597992 88.068604 129.229004 88.203606 129.85199 C 88.112602 131.953003 88.1446 134.039001 88.300598 136.061996 L 91.7276 180.613007 C 92.0466 184.755997 95.549599 188 99.703598 188 L 156.295593 188 C 160.450592 188 163.953598 184.755997 164.272598 180.613007 L 167.6996 136.061996 C 167.854599 134.039001 167.887604 131.953003 167.7966 129.85199 C 167.931595 129.229004 167.999603 128.597992 167.999603 127.963989 L 167.999603 38.458008 C 167.999603 34.675003 165.6996 31.453003 162.406601 30.623001 L 156.052597 28.936996 C 154.898605 28.322006 153.617599 28 152.307602 28 M 152.307602 32 C 153.117599 32 153.869598 32.246994 154.502594 32.664001 L 161.427597 34.501007 C 162.923599 34.878006 163.999603 36.533997 163.999603 38.458008 L 163.999603 127.963989 C 163.999603 128.487 163.914597 128.983002 163.771606 129.44101 C 163.887604 131.544998 163.872604 133.653 163.710602 135.755005 L 160.284607 180.307007 C 160.123596 182.391006 158.385605 184 156.295593 184 L 99.703598 184 C 97.613602 184 95.876602 182.391006 95.715599 180.307007 L 92.288597 135.755005 C 92.127602 133.653 92.112602 131.544998 92.2276 129.44101 C 92.084602 128.983002 91.999603 128.487 91.999603 127.963989 L 91.999603 38.458008 C 91.999603 36.533997 93.076599 34.878006 94.572601 34.501007 L 101.496597 32.664001 C 102.129601 32.246994 102.882599 32 103.692596 32 L 104.156601 32 C 105.513603 32 106.7146 32.679001 107.438599 33.718994 L 109.788597 34.895004 C 111.1436 35.572006 111.999603 36.957001 111.999603 38.472 L 111.999603 128 L 111.8396 128 L 111.999603 132 L 143.999603 132 L 144.160599 128 L 143.999603 128 L 143.999603 38.472 C 143.999603 36.957001 144.856598 35.572006 146.210602 34.895004 L 148.5616 33.718994 C 149.285599 32.679001 150.486603 32 151.842606 32 L 152.307602 32"/>
    <path id="path14" fill="#ffffff" stroke="none" d="M 92 196 L 88 196 L 76 196 L 72 196 L 72 200 L 72 206 C 72 209.30899 74.691002 212 78 212 L 86 212 C 89.308998 212 92 209.30899 92 206 L 92 200 Z M 88 200 L 88 206 C 88 207.104004 87.104004 208 86 208 L 78 208 C 76.895996 208 76 207.104004 76 206 L 76 200 L 88 200"/>
    <path id="path15" fill="#ffffff" stroke="none" d="M 84 208 L 80 208 L 80 200 L 84 200 Z"/>
    <path id="path16" fill="#ffffff" stroke="none" d="M 148 8 L 108 8 L 108 24 C 108 26.209 109.791 28 112 28 L 144 28 C 146.209 28 148 26.209 148 24 Z M 144 24 L 112 24 L 112 12 L 144 12 Z M 144 12"/>
    <path id="path17" fill="#ffffff" stroke="none" d="M 144 40 L 112 40 L 112 36 L 144 36 Z"/>
    <path id="path18" fill="#ffffff" stroke="none" d="M 92 40 L 84 40 L 84 36 L 92 36 Z"/>
    <path id="path19" fill="#ffffff" stroke="none" d="M 172 40 L 164 40 L 164 36 L 172 36 Z"/>
    <path id="path20" fill="#ffffff" stroke="none" d="M 124 56 L 120 56 L 120 40 L 124 40 Z"/>
    <path id="path21" fill="#ffffff" stroke="none" d="M 132 56 L 128 56 L 128 40 L 132 40 Z"/>
</svg>
