<?xml version="1.0" encoding="UTF-8"?>
<!-- Generated by Pixelmator Pro 3.7.1 -->
<svg width="256" height="256" viewBox="0 0 256 256" xmlns="http://www.w3.org/2000/svg">
    <path id="Path" fill="#ffffff" stroke="none" d="M 18 148 L 34 148 C 35.104 148 36 147.104004 36 146 C 36 144.895996 35.104 144 34 144 L 18 144 C 16.896 144 16 144.895996 16 146 C 16 147.104004 16.896 148 18 148"/>
    <path id="path1" fill="#ffffff" stroke="none" d="M 18 160 L 30 160 C 31.104 160 32 159.104004 32 158 C 32 156.895996 31.104 156 30 156 L 18 156 C 16.896 156 16 156.895996 16 158 C 16 159.104004 16.896 160 18 160"/>
    <path id="path2" fill="#ffffff" stroke="none" d="M 56 176 L 100 176 L 100 184 L 56 184 Z M 54 188 L 102 188 C 103.103996 188 104 187.104004 104 186 L 104 174 C 104 172.895996 103.103996 172 102 172 L 54 172 C 52.896 172 52 172.895996 52 174 L 52 186 C 52 187.104004 52.896 188 54 188"/>
    <path id="path3" fill="#ffffff" stroke="none" d="M 130 216 L 118 216 C 116.895996 216 116 216.895996 116 218 C 116 219.104004 116.895996 220 118 220 L 128 220 L 128 222 C 128 223.104004 128.895996 224 130 224 C 131.104004 224 132 223.104004 132 222 L 132 218 C 132 216.895996 131.104004 216 130 216"/>
    <path id="path4" fill="#ffffff" stroke="none" d="M 230 216 L 218 216 C 216.895996 216 216 216.895996 216 218 L 216 222 C 216 223.104004 216.895996 224 218 224 C 219.104004 224 220 223.104004 220 222 L 220 220 L 230 220 C 231.104004 220 232 219.104004 232 218 C 232 216.895996 231.104004 216 230 216"/>
    <path id="path5" fill="#ffffff" stroke="none" d="M 126 48 C 149.195999 48 168 66.804001 168 90 C 168 113.195999 149.195999 132 126 132 C 102.804001 132 84 113.195999 84 90 C 84 66.804001 102.804001 48 126 48 M 126 136 C 151.363998 136 172 115.363998 172 90 C 172 64.636002 151.363998 44 126 44 C 100.636002 44 80 64.636002 80 90 C 80 115.363998 100.636002 136 126 136"/>
    <path id="path6" fill="#ffffff" stroke="none" d="M 172 118 C 172 119.104004 171.104004 120 170 120 C 168.895996 120 168 119.104004 168 118 C 168 116.895996 168.895996 116 170 116 C 171.104004 116 172 116.895996 172 118 M 164 118 C 164 121.309006 166.690994 124 170 124 C 173.309006 124 176 121.309006 176 118 C 176 114.690994 173.309006 112 170 112 C 166.690994 112 164 114.690994 164 118"/>
    <path id="path7" fill="#ffffff" stroke="none" d="M 168 136 C 165.791 136 164 134.209 164 132 C 164 129.791 165.791 128 168 128 C 170.209 128 172 129.791 172 132 C 172 134.209 170.209 136 168 136 M 176 132 C 176 127.589005 172.410995 124 168 124 C 163.589005 124 160 127.589005 160 132 C 160 136.411011 163.589005 140 168 140 C 172.410995 140 176 136.411011 176 132"/>
    <path id="path8" fill="#ffffff" stroke="none" d="M 244 192 L 240 192 L 212 192 L 212 172 L 212 168 L 211.462997 168 C 208.960999 153.997009 197.867004 143.028 184 140.535004 L 184 140 L 184 132 L 236 132 C 240.399994 132 244 135.600006 244 140 Z M 244 200 L 240 200 L 212 200 L 212 196 L 240 196 L 244 196 Z M 244 208 L 240 208 L 212 208 L 212 204 L 240 204 L 244 204 Z M 244 220 C 244 224.417999 240.417999 228 236 228 L 212 228 L 212 212 L 240 212 L 244 212 Z M 200 228 L 200 224 L 200 184 L 188 184 L 184 184 L 180 184 L 176 184 L 172 184 L 168 184 L 156 184 L 156 224 L 156 228 L 148 228 L 148 172 L 148.074005 172 C 149.104004 156.365005 162.104004 144 178 144 C 193.895996 144 206.895996 156.365005 207.925995 172 L 208 172 L 208 228 Z M 164 224 L 164 220 C 164 213.373001 170.268005 208 178 208 C 185.731995 208 192 213.373001 192 220 L 192 224 Z M 172 200 L 172 188 L 176 188 L 176 196 L 180 196 L 180 188 L 184 188 L 184 200 L 188 200 L 188 188 L 196 188 L 196 220 C 196 211.178009 187.925003 204 178 204 C 168.074997 204 160 211.178009 160 220 L 160 188 L 168 188 L 168 200 Z M 20 228 C 15.582001 228 12 224.417999 12 220 L 12 212 L 16 212 L 144 212 L 144 228 Z M 12 204 L 16 204 L 144 204 L 144 208 L 16 208 L 12 208 Z M 12 196 L 16 196 L 144 196 L 144 200 L 16 200 L 12 200 Z M 12 140 C 12 135.600006 15.600006 132 20 132 L 68 132 L 68 140 L 68 144 L 72 144 L 162.041992 144 C 153.041 148.813004 146.401001 157.563004 144.537003 168 L 144 168 L 144 172 L 144 192 L 16 192 L 12 192 Z M 80 134 C 80 130.686996 82.686996 128 86 128 C 89.313004 128 92 130.686996 92 134 C 92 137.313004 89.313004 140 86 140 C 82.686996 140 80 137.313004 80 134 M 72 96 L 76 96 L 76 92 L 72 92 L 72 88 L 76 88 L 76 84 L 72 84 L 72 80 L 76 80 L 76 76 L 72 76 L 72 68 L 76 68 L 76 64 L 72 64 L 72 60 L 76 60 L 76 56 L 72 56 L 72 52 L 76 52 L 76 48 L 72 48 L 72 32 C 72 29.791 73.791 28 76 28 L 176 28 C 178.209 28 180 29.791 180 32 L 180 48 L 176 48 L 176 52 L 180 52 L 180 56 L 176 56 L 176 60 L 180 60 L 180 64 L 176 64 L 176 68 L 180 68 L 180 76 L 176 76 L 176 80 L 180 80 L 180 84 L 176 84 L 176 88 L 180 88 L 180 92 L 176 92 L 176 96 L 180 96 L 180 128 L 180 132 L 180 140 L 168 140 L 93.981003 140 C 95.242004 138.326004 96 136.252991 96 134 C 96 128.485992 91.514008 124 86 124 C 80.485992 124 76 128.485992 76 134 C 76 136.252991 76.757996 138.326004 78.018997 140 L 72 140 L 72 132 L 72 128 Z M 236 128 L 204 128 L 184 128 L 184 32 C 184 27.589005 180.410995 24 176 24 L 76 24 C 71.589005 24 68 27.589005 68 32 L 68 128 L 48 128 L 20 128 C 13.382996 128 8 133.382996 8 140 L 8 192 L 8 196 L 8 200 L 8 204 L 8 208 L 8 212 L 8 220 C 8 226.617004 13.382996 232 20 232 L 144 232 L 148 232 L 156 232 L 160 232 L 160 228 L 164 228 L 192 228 L 196 228 L 196 232 L 200 232 L 208 232 L 212 232 L 236 232 C 242.617004 232 248 226.617004 248 220 L 248 212 L 248 208 L 248 204 L 248 200 L 248 196 L 248 192 L 248 140 C 248 133.382996 242.617004 128 236 128"/>
    <path id="path9" fill="#ffffff" stroke="none" d="M 156 96 L 144 96 L 144 84 L 156 84 Z M 140 96 L 112 96 L 112 84 L 140 84 Z M 108 96 L 96 96 L 96 84 L 108 84 Z M 160 98 L 160 82 C 160 80.895996 159.104004 80 158 80 L 94 80 C 92.896004 80 92 80.895996 92 82 L 92 98 C 92 99.104004 92.896004 100 94 100 L 158 100 C 159.104004 100 160 99.104004 160 98"/>
</svg>
