<?xml version="1.0" encoding="UTF-8"?>
<!-- Generated by Pixelmator Pro 3.7.1 -->
<svg width="256" height="256" viewBox="0 0 256 256" xmlns="http://www.w3.org/2000/svg">
    <path id="Path" fill="#ffffff" stroke="none" d="M 240 208 L 180 208 L 180 220 C 180 222.209 178.209 224 176 224 L 80 224 C 77.791 224 76 222.209 76 220 L 76 208 L 16 208 C 13.791 208 12 206.209 12 204 L 12 107.649994 C 12.626007 107.873001 13.298004 108 14 108 L 70 108 C 73.309006 108 76 105.30899 76 102 L 76 84 L 112 84 L 112 124 L 144 124 L 144 84 L 180 84 L 180 102 C 180 105.30899 182.69101 108 186 108 L 242 108 C 242.701996 108 243.373001 107.873001 244 107.649994 L 244 204 C 244 206.209 242.209 208 240 208 M 70 76 C 71.104004 76 72 76.895996 72 78 L 72 80 L 72 84 L 72 102 C 72 103.104004 71.104004 104 70 104 L 14 104 C 12.895996 104 12 103.104004 12 102 L 12 79.998001 C 12.001007 77.789993 13.792007 76 16 76 Z M 124 84 L 132 84 L 132 96 L 124 96 Z M 132 104 L 132 120 L 124 120 L 124 104 L 120 104 L 120 120 L 116 120 L 116 84 L 120 84 L 120 98 C 120 99.104004 120.896004 100 122 100 L 134 100 C 135.104004 100 136 99.104004 136 98 L 136 84 L 140 84 L 140 120 L 136 120 L 136 104 Z M 76 56 L 92 56 L 92 52 L 76 52 L 76 34 L 76 32 L 78 32 L 178 32 L 180 32 L 180 34 L 180 76 L 180.350006 76 C 180.126999 76.626999 180 77.298004 180 78 L 180 80 L 144 80 L 136 80 L 120 80 L 112 80 L 76 80 L 76 78 C 76 77.298004 75.873001 76.626999 75.649994 76 L 76 76 Z M 240 76 C 242.209 76 243.998993 77.789993 244 79.998001 L 244 102 C 244 103.104004 243.104004 104 242 104 L 186 104 C 184.895996 104 184 103.104004 184 102 L 184 84 L 184 80 L 184 78 C 184 76.895996 184.895996 76 186 76 Z M 248 79.996994 L 248 78 C 248 74.690994 245.309006 72 242 72 L 240 72 L 186 72 L 184 72 L 184 34 L 184 32 L 184 28 L 180 28 L 178 28 L 78 28 L 76 28 L 72 28 L 72 32 L 72 34 L 72 72 L 70 72 L 16 72 L 14 72 C 10.690994 72 8 74.690994 8 78 L 8 79.996994 L 8 80 L 8 204 C 8 208.410995 11.587997 212 16 212 L 72 212 L 72 220 C 72 224.410995 75.589005 228 80 228 L 176 228 C 180.410995 228 184 224.410995 184 220 L 184 212 L 240 212 C 244.410995 212 248 208.410995 248 204 L 248 80 Z"/>
    <path id="path1" fill="#ffffff" stroke="none" d="M 44 88 L 48 88 L 48 96 L 44 96 Z M 56 96 L 52 96 L 52 88 L 56 88 Z M 56 100 L 60 100 L 60 96 L 60 88 L 60 84 L 56 84 L 44 84 L 40 84 L 40 88 L 40 96 L 40 100 L 44 100 Z"/>
    <path id="path2" fill="#ffffff" stroke="none" d="M 80 212 L 84 212 L 84 88 L 80 88 Z"/>
    <path id="path3" fill="#ffffff" stroke="none" d="M 104 212 L 108 212 L 108 88 L 104 88 Z"/>
    <path id="path4" fill="#ffffff" stroke="none" d="M 116 132 L 140 132 L 140 208 L 116 208 Z M 112 212 L 144 212 L 144 128 L 112 128 Z"/>
    <path id="path5" fill="#ffffff" stroke="none" d="M 148 212 L 152 212 L 152 88 L 148 88 Z"/>
    <path id="path6" fill="#ffffff" stroke="none" d="M 172 212 L 176 212 L 176 88 L 172 88 Z"/>
    <path id="path7" fill="#ffffff" stroke="none" d="M 36 132 L 72 132 L 72 136 L 36 136 Z M 26 140 C 22.691 140 20 137.30899 20 134 C 20 130.69101 22.691 128 26 128 C 29.309 128 32 130.69101 32 134 C 32 137.30899 29.309 140 26 140 M 26 124 C 20.476999 124 16 128.47699 16 134 C 16 139.522003 20.476999 144 26 144 C 29.268999 144 32.161999 142.425003 33.986 140 L 76 140 L 76 128 L 33.986 128 C 32.161999 125.574997 29.268999 124 26 124"/>
    <path id="path8" fill="#ffffff" stroke="none" d="M 36 160 L 72 160 L 72 164 L 36 164 Z M 26 168 C 22.691 168 20 165.30899 20 162 C 20 158.69101 22.691 156 26 156 C 29.309 156 32 158.69101 32 162 C 32 165.30899 29.309 168 26 168 M 26 152 C 20.476999 152 16 156.477997 16 162 C 16 167.522003 20.476999 172 26 172 C 29.268999 172 32.161999 170.425003 33.986 168 L 76 168 L 76 156 L 33.986 156 C 32.161999 153.574997 29.268999 152 26 152"/>
    <path id="path9" fill="#ffffff" stroke="none" d="M 36 188 L 72 188 L 72 192 L 36 192 Z M 26 196 C 22.691 196 20 193.30899 20 190 C 20 186.69101 22.691 184 26 184 C 29.309 184 32 186.69101 32 190 C 32 193.30899 29.309 196 26 196 M 26 180 C 20.476999 180 16 184.477997 16 190 C 16 195.522003 20.476999 200 26 200 C 29.268999 200 32.161999 198.425003 33.986 196 L 76 196 L 76 184 L 33.986 184 C 32.161999 181.574997 29.268999 180 26 180"/>
    <path id="path10" fill="#ffffff" stroke="none" d="M 230 140 C 226.690994 140 224 137.30899 224 134 C 224 130.69101 226.690994 128 230 128 C 233.309006 128 236 130.69101 236 134 C 236 137.30899 233.309006 140 230 140 M 220 136 L 184 136 L 184 132 L 220 132 Z M 230 124 C 226.731003 124 223.837997 125.574997 222.014008 128 L 180 128 L 180 140 L 222.014008 140 C 223.837997 142.425003 226.731003 144 230 144 C 235.522003 144 240 139.522003 240 134 C 240 128.47699 235.522003 124 230 124"/>
    <path id="path11" fill="#ffffff" stroke="none" d="M 230 168 C 226.690994 168 224 165.30899 224 162 C 224 158.69101 226.690994 156 230 156 C 233.309006 156 236 158.69101 236 162 C 236 165.30899 233.309006 168 230 168 M 220 164 L 184 164 L 184 160 L 220 160 Z M 230 152 C 226.731003 152 223.837997 153.574997 222.014008 156 L 180 156 L 180 168 L 222.014008 168 C 223.837997 170.425003 226.731003 172 230 172 C 235.522003 172 240 167.522003 240 162 C 240 156.477997 235.522003 152 230 152"/>
    <path id="path12" fill="#ffffff" stroke="none" d="M 230 196 C 226.690994 196 224 193.30899 224 190 C 224 186.69101 226.690994 184 230 184 C 233.309006 184 236 186.69101 236 190 C 236 193.30899 233.309006 196 230 196 M 220 192 L 184 192 L 184 188 L 220 188 Z M 230 180 C 226.731003 180 223.837997 181.574997 222.014008 184 L 180 184 L 180 196 L 222.014008 196 C 223.837997 198.425003 226.731003 200 230 200 C 235.522003 200 240 195.522003 240 190 C 240 184.477997 235.522003 180 230 180"/>
    <path id="path13" fill="#ffffff" stroke="none" d="M 72 112 L 44 112 L 44 116 L 72 116 Z"/>
    <path id="path14" fill="#ffffff" stroke="none" d="M 212 112 L 184 112 L 184 116 L 212 116 Z"/>
    <path id="path15" fill="#ffffff" stroke="none" d="M 72 120 L 44 120 L 44 124 L 72 124 Z"/>
    <path id="path16" fill="#ffffff" stroke="none" d="M 212 120 L 184 120 L 184 124 L 212 124 Z"/>
    <path id="path17" fill="#ffffff" stroke="none" d="M 162 200 C 159.794006 200 158 198.205994 158 196 C 158 193.794006 159.794006 192 162 192 C 164.205994 192 166 193.794006 166 196 C 166 198.205994 164.205994 200 162 200 M 162 108 C 164.205994 108 166 109.794006 166 112 C 166 114.205994 164.205994 116 162 116 C 159.794006 116 158 114.205994 158 112 C 158 109.794006 159.794006 108 162 108 M 162 188 C 161.307999 188 160.641006 188.097 160 188.261993 L 160 119.738007 C 160.641006 119.903 161.307999 120 162 120 C 162.692001 120 163.358994 119.903 164 119.738007 L 164 188.261993 C 163.358994 188.097 162.692001 188 162 188 M 170 112 C 170 107.582001 166.417999 104 162 104 C 157.582001 104 154 107.582001 154 112 C 154 114.024994 154.759003 115.869995 156 117.278992 L 156 190.721008 C 154.759003 192.130005 154 193.975006 154 196 C 154 200.417999 157.582001 204 162 204 C 166.417999 204 170 200.417999 170 196 C 170 193.975006 169.240997 192.130005 168 190.721008 L 168 117.278992 C 169.240997 115.869995 170 114.024994 170 112"/>
    <path id="path18" fill="#ffffff" stroke="none" d="M 94 200 C 91.793999 200 90 198.205994 90 196 C 90 193.794006 91.793999 192 94 192 C 96.206001 192 98 193.794006 98 196 C 98 198.205994 96.206001 200 94 200 M 94 108 C 96.206001 108 98 109.794006 98 112 C 98 114.205994 96.206001 116 94 116 C 91.793999 116 90 114.205994 90 112 C 90 109.794006 91.793999 108 94 108 M 94 188 C 93.307999 188 92.639999 188.097 92 188.261993 L 92 119.738007 C 92.639999 119.903 93.307999 120 94 120 C 94.692001 120 95.360001 119.903 96 119.738007 L 96 188.261993 C 95.360001 188.097 94.692001 188 94 188 M 102 112 C 102 107.582001 98.417999 104 94 104 C 89.582001 104 86 107.582001 86 112 C 86 114.024994 86.759003 115.869995 88 117.278992 L 88 190.721008 C 86.759003 192.130005 86 193.975006 86 196 C 86 200.417999 89.582001 204 94 204 C 98.417999 204 102 200.417999 102 196 C 102 193.975006 101.240997 192.130005 100 190.721008 L 100 117.278992 C 101.240997 115.869995 102 114.024994 102 112"/>
</svg>
