<?xml version="1.0" encoding="UTF-8"?>
<!-- Generated by Pixelmator Pro 3.7.1 -->
<svg width="256" height="256" viewBox="0 0 256 256" xmlns="http://www.w3.org/2000/svg">
    <path id="Path" fill="#ffffff" stroke="none" d="M 244 208 C 244 210.209 242.209 212 240 212 L 188 212 L 188 140 L 195 140 C 213.195999 140 228 125.195999 228 107 L 228 106 L 228 105 C 228 86.804001 213.195999 72 195 72 L 188 72 L 188 65.656998 L 198.828003 54.828995 L 201.656998 52 L 244 52 Z M 72 140 L 184 140 L 184 212 L 72 212 Z M 52 212 L 52 179.936996 C 52.332993 179.960999 52.662003 180 53 180 C 59.572998 180 65.162003 175.403992 68 168.507004 L 68 212 Z M 24 212 L 24 174 L 37.533005 167.233002 C 39.520004 172.921997 43.294998 177.251007 48 179.063004 L 48 212 Z M 16 212 C 13.791 212 12 210.209 12 208 L 12 52 L 54.343002 52 L 57.171005 54.828995 L 68 65.656998 L 68 72 L 61 72 C 42.804001 72 28 86.804001 28 105 L 28 106 L 28 107 C 28 120.411011 36.044998 131.971008 47.559998 137.126999 C 40.776993 140.002991 36 148.139999 36 158 C 36 159.985992 36.212006 161.893005 36.576996 163.710999 L 20 172 L 20 176 L 20 212 Z M 184 64 L 72 64 L 60 52 L 72 52 L 80 60 L 176 60 L 184 52 L 196 52 Z M 72 68 L 184 68 L 184 72 L 72 72 Z M 191 124 L 194 124 C 203.925003 124 212 115.925003 212 106 C 212 96.074997 203.925003 88 194 88 L 191 88 L 188 76 L 195 76 C 210.949997 76 224 89.050003 224 105 L 224 106 L 224 107 C 224 122.949997 210.949997 136 195 136 L 188 136 Z M 69 124 L 187 124 L 184 136 L 72 136 Z M 188 92 L 192 92 L 194 92 C 201.699997 92 208 98.300003 208 106 C 208 113.699997 201.699997 120 194 120 L 192 120 L 188 120 L 68 120 L 64 120 L 62 120 C 54.300003 120 48 113.699997 48 106 C 48 98.300003 54.300003 92 62 92 L 64 92 L 68 92 Z M 69 88 L 72 76 L 184 76 L 187 88 Z M 61 136 C 45.050003 136 32 122.949997 32 107 L 32 106 L 32 105 C 32 89.050003 45.050003 76 61 76 L 68 76 L 65 88 L 62 88 C 52.074997 88 44 96.074997 44 106 C 44 115.925003 52.074997 124 62 124 L 65 124 L 68 136 Z M 52 168 C 58.617004 168 64 162.617004 64 156 C 64 149.382996 58.617004 144 52 144 C 46.990997 144 42.692993 147.087997 40.899002 151.458008 C 42.791 144.755997 47.488998 140 53 140 C 60.179993 140 66 148.05899 66 158 C 66 167.94101 60.179993 176 53 176 C 52.662994 176 52.330994 175.964996 52 175.929993 Z M 44 156 C 44 151.582001 47.582001 148 52 148 C 56.417999 148 60 151.582001 60 156 C 60 160.417999 56.417999 164 52 164 C 47.582001 164 44 160.417999 44 156 M 43.367996 164.315002 C 44.647003 165.643997 46.229004 166.671005 48 167.300003 L 48 174.615997 C 44.964005 172.862 42.520004 169.556 41.164993 165.417999 Z M 40 158 C 40 157.606995 40.024002 157.223999 40.042007 156.837006 C 40.154999 158.453995 40.587006 159.981003 41.279007 161.360001 L 40.304993 161.847992 C 40.108994 160.606003 40 159.321991 40 158 M 68 147.492996 C 66.764999 144.492004 65.001999 141.940002 62.871994 140 L 68 140 Z M 16 44 L 240 44 C 242.209 44 244 45.791 244 48 L 205.656998 48 L 200 48 L 196 48 L 184 48 L 182.343002 48 L 181.171997 49.171005 L 174.343002 56 L 81.656998 56 L 74.828995 49.171005 L 73.656998 48 L 72 48 L 60 48 L 50.343002 48 L 12 48 C 12 45.791 13.791 44 16 44 M 240 40 L 16 40 C 11.589005 40 8 43.589005 8 48 L 8 208 C 8 212.410995 11.589005 216 16 216 L 240 216 C 244.410995 216 248 212.410995 248 208 L 248 52 L 248 48 C 248 43.589005 244.410995 40 240 40"/>
    <path id="path1" fill="#ffffff" stroke="none" d="M 80 104 L 64 104 L 64 100 L 80 100 Z M 172 104 L 84 104 L 84 100 L 172 100 Z M 192 104 L 176 104 L 176 100 L 192 100 Z M 192 112 L 176 112 L 176 108 L 192 108 Z M 84 108 L 172 108 L 172 112 L 84 112 Z M 64 108 L 80 108 L 80 112 L 64 112 Z M 60 104 L 60 108 L 60 116 L 80 116 L 84 116 L 172 116 L 176 116 L 196 116 L 196 108 L 196 104 L 196 96 L 176 96 L 172 96 L 84 96 L 80 96 L 60 96 Z"/>
    <path id="path2" fill="#ffffff" stroke="none" d="M 148 48 L 112 48 L 112 52 L 148 52 Z"/>
    <path id="path3" fill="#ffffff" stroke="none" d="M 176 48 L 152 48 L 152 52 L 176 52 Z"/>
    <path id="path4" fill="#ffffff" stroke="none" d="M 108 48 L 84 48 L 84 52 L 108 52 Z"/>
</svg>
