<?xml version="1.0" encoding="UTF-8"?>
<!-- Generated by Pixelmator Pro 3.7.1 -->
<svg width="256" height="256" viewBox="0 0 256 256" xmlns="http://www.w3.org/2000/svg">
    <path id="Path" fill="#ffffff" stroke="none" d="M 238.558502 184 L 17.441496 184 C 16.580503 184 15.816496 183.449005 15.544493 182.632004 L 13.333494 176 L 27.999495 176 L 42.5975 176 C 43.101498 176.096008 43.619503 176.151001 44.150494 176.151001 L 215.848495 176.151001 C 216.380493 176.151001 216.898499 176.096008 217.402496 176 L 231.999496 176 L 242.666504 176 L 240.455505 182.632004 C 240.183502 183.449005 239.419495 184 238.558502 184 M 96.585495 100 L 91.999496 100 L 91.999496 81.690002 C 91.999496 80.757004 92.7565 80 93.690506 80 L 96.585495 80 C 96.377502 80.585999 96.258499 81.213989 96.258499 81.871002 L 96.258499 98.128998 C 96.258499 98.786011 96.377502 99.414001 96.585495 100 M 99.999496 98.128998 L 99.999496 81.871002 C 99.999496 80.837997 100.837509 80 101.870499 80 L 154.129501 80 C 155.162491 80 155.999496 80.837997 155.999496 81.871002 L 155.999496 98.128998 C 155.999496 99.162003 155.162491 100 154.129501 100 L 147.999496 100 L 147.999496 96 L 107.999496 96 L 107.999496 100 L 101.870499 100 C 100.837509 100 99.999496 99.162003 99.999496 98.128998 M 163.999496 100 L 159.414505 100 C 159.622498 99.414001 159.741501 98.786011 159.741501 98.128998 L 159.741501 81.871002 C 159.741501 81.213989 159.622498 80.585999 159.414505 80 L 162.309494 80 C 163.2435 80 163.999496 80.757004 163.999496 81.690002 Z M 215.848495 111.848999 L 44.150494 111.848999 C 39.573498 111.848999 35.848492 115.572998 35.848492 120.151001 L 35.848492 167.848999 C 35.848492 169.362 36.262493 170.777008 36.9725 172 L 27.999495 172 L 27.999495 112 C 27.999495 107.582001 31.581495 104 35.999493 104 L 91.999496 104 L 163.999496 104 L 223.999496 104 C 228.418503 104 231.999496 107.582001 231.999496 112 L 231.999496 172 L 223.027496 172 C 223.737503 170.777008 224.150497 169.362 224.150497 167.848999 L 224.150497 120.151001 C 224.150497 115.572998 220.426498 111.848999 215.848495 111.848999 M 44.150494 172 C 41.858501 172 39.999493 170.141998 39.999493 167.848999 L 39.999493 120.151001 C 39.999493 117.858002 41.858501 116 44.150494 116 L 215.848495 116 C 218.141495 116 219.999496 117.858002 219.999496 120.151001 L 219.999496 167.848999 C 219.999496 170.141998 218.141495 172 215.848495 172 Z M 11.999495 80 C 11.999495 75.582001 15.581495 72 19.999495 72 L 235.999496 72 C 240.418503 72 243.999496 75.582001 243.999496 80 L 243.999496 172 L 235.999496 172 L 235.999496 112 C 235.999496 105.382996 230.616501 100 223.999496 100 L 167.999496 100 L 167.999496 96 L 225.999496 96 C 227.104492 96 227.999496 95.105011 227.999496 94 C 227.999496 92.894989 227.104492 92 225.999496 92 L 167.999496 92 L 167.999496 88 L 210.350494 88 C 210.127502 87.373001 209.999496 86.701996 209.999496 86 C 209.999496 85.298004 210.127502 84.626999 210.350494 84 L 167.999496 84 L 167.999496 81.690002 C 167.999496 78.553009 165.447495 76 162.309494 76 L 93.690506 76 C 90.552505 76 87.999496 78.553009 87.999496 81.690002 L 87.999496 84 L 29.999495 84 C 28.895506 84 27.999495 84.894989 27.999495 86 C 27.999495 87.105011 28.895506 88 29.999495 88 L 87.999496 88 L 87.999496 92 L 29.999495 92 C 28.895506 92 27.999495 92.894989 27.999495 94 C 27.999495 95.105011 28.895506 96 29.999495 96 L 87.999496 96 L 87.999496 100 L 35.999493 100 C 29.383497 100 23.999495 105.382996 23.999495 112 L 23.999495 172 L 11.999495 172 Z M 247.921494 172.78299 C 247.971497 172.528992 248.002502 172.268997 248.002502 172 L 247.999496 172 L 247.999496 80 C 247.999496 73.382996 242.616501 68 235.999496 68 L 19.999495 68 C 13.383497 68 7.999494 73.382996 7.999494 80 L 7.999494 172 C 7.999494 172.076996 8.018507 172.149002 8.022505 172.225006 C 8.031507 172.386993 8.043501 172.548996 8.071501 172.710999 C 8.089506 172.80899 8.116499 172.903992 8.141493 173 C 8.163496 173.087997 8.176497 173.178009 8.205503 173.264999 L 11.749495 183.897003 C 12.567503 186.350998 14.854506 188 17.441496 188 L 238.558502 188 C 241.145493 188 243.432495 186.350998 244.250504 183.897003 L 247.744507 173.415009 C 247.802505 173.261993 247.838501 173.098999 247.877502 172.938004 C 247.890503 172.88501 247.910507 172.835999 247.921494 172.78299"/>
    <path id="path1" fill="#ffffff" stroke="none" d="M 168 124 L 172 124 L 172 128 L 168 128 Z M 168 132 L 172 132 C 174.199997 132 176 130.199997 176 128 L 176 124 C 176 121.800003 174.199997 120 172 120 L 168 120 C 165.800003 120 164 121.800003 164 124 L 164 128 C 164 130.199997 165.800003 132 168 132"/>
    <path id="path2" fill="#ffffff" stroke="none" d="M 196 136 L 192 136 L 192 132 L 196 132 Z M 196 128 L 192 128 C 189.800003 128 188 129.800003 188 132 L 188 136 C 188 138.199997 189.800003 140 192 140 L 196 140 C 198.199997 140 200 138.199997 200 136 L 200 132 C 200 129.800003 198.199997 128 196 128"/>
    <path id="path3" fill="#ffffff" stroke="none" d="M 144 132 L 148 132 L 148 136 L 144 136 Z M 144 140 L 148 140 C 150.199997 140 152 138.199997 152 136 L 152 132 C 152 129.800003 150.199997 128 148 128 L 144 128 C 141.800003 128 140 129.800003 140 132 L 140 136 C 140 138.199997 141.800003 140 144 140"/>
    <path id="path4" fill="#ffffff" stroke="none" d="M 196 160 L 192 160 L 192 156 L 196 156 Z M 184 160 L 180 160 L 180 156 L 184 156 Z M 172 160 L 168 160 L 168 156 L 172 156 Z M 160 160 L 156 160 L 156 156 L 160 156 Z M 148 160 L 144 160 L 144 156 L 148 156 Z M 136 160 L 132 160 L 132 156 L 136 156 Z M 124 160 L 120 160 L 120 156 L 124 156 Z M 112 160 L 108 160 L 108 156 L 112 156 Z M 100 160 L 96 160 L 96 156 L 100 156 Z M 88 160 L 84 160 L 84 156 L 88 156 Z M 76 160 L 72 160 L 72 156 L 76 156 Z M 64 160 L 60 160 L 60 156 L 64 156 Z M 52 160 L 48 160 L 48 156 L 52 156 Z M 196 152 L 192 152 C 189.800003 152 188 153.800003 188 156 C 188 153.800003 186.199997 152 184 152 L 180 152 C 177.800003 152 176 153.800003 176 156 C 176 153.800003 174.199997 152 172 152 L 168 152 C 165.800003 152 164 153.800003 164 156 C 164 153.800003 162.199997 152 160 152 L 156 152 C 153.800003 152 152 153.800003 152 156 C 152 153.800003 150.199997 152 148 152 L 144 152 C 141.800003 152 140 153.800003 140 156 C 140 153.800003 138.199997 152 136 152 L 132 152 C 129.800003 152 128 153.800003 128 156 C 128 153.800003 126.199997 152 124 152 L 120 152 C 117.800003 152 116 153.800003 116 156 C 116 153.800003 114.199997 152 112 152 L 108 152 C 105.800003 152 104 153.800003 104 156 C 104 153.800003 102.199997 152 100 152 L 96 152 C 93.800003 152 92 153.800003 92 156 C 92 153.800003 90.199997 152 88 152 L 84 152 C 81.800003 152 80 153.800003 80 156 C 80 153.800003 78.199997 152 76 152 L 72 152 C 69.800003 152 68 153.800003 68 156 C 68 153.800003 66.199997 152 64 152 L 60 152 C 57.799999 152 56 153.800003 56 156 C 56 153.800003 54.200001 152 52 152 L 48 152 C 45.799999 152 44 153.800003 44 156 L 44 160 C 44 162.199997 45.799999 164 48 164 L 52 164 C 54.200001 164 56 162.199997 56 160 C 56 162.199997 57.799999 164 60 164 L 64 164 C 66.199997 164 68 162.199997 68 160 C 68 162.199997 69.800003 164 72 164 L 76 164 C 78.199997 164 80 162.199997 80 160 C 80 162.199997 81.800003 164 84 164 L 88 164 C 90.199997 164 92 162.199997 92 160 C 92 162.199997 93.800003 164 96 164 L 100 164 C 102.199997 164 104 162.199997 104 160 C 104 162.199997 105.800003 164 108 164 L 112 164 C 114.199997 164 116 162.199997 116 160 C 116 162.199997 117.800003 164 120 164 L 124 164 C 126.199997 164 128 162.199997 128 160 C 128 162.199997 129.800003 164 132 164 L 136 164 C 138.199997 164 140 162.199997 140 160 C 140 162.199997 141.800003 164 144 164 L 148 164 C 150.199997 164 152 162.199997 152 160 C 152 162.199997 153.800003 164 156 164 L 160 164 C 162.199997 164 164 162.199997 164 160 C 164 162.199997 165.800003 164 168 164 L 172 164 C 174.199997 164 176 162.199997 176 160 C 176 162.199997 177.800003 164 180 164 L 184 164 C 186.199997 164 188 162.199997 188 160 C 188 162.199997 189.800003 164 192 164 L 196 164 C 198.199997 164 200 162.199997 200 160 L 200 156 C 200 153.800003 198.199997 152 196 152"/>
    <path id="path5" fill="#ffffff" stroke="none" d="M 212 136 L 208 136 L 208 132 L 212 132 Z M 212 128 L 208 128 C 205.800003 128 204 129.800003 204 132 L 204 136 C 204 138.199997 205.800003 140 208 140 L 212 140 C 214.199997 140 216 138.199997 216 136 L 216 132 C 216 129.800003 214.199997 128 212 128"/>
    <path id="path6" fill="#ffffff" stroke="none" d="M 168 140 L 172 140 L 172 144 L 168 144 Z M 168 148 L 172 148 C 174.199997 148 176 146.199997 176 144 L 176 140 C 176 137.800003 174.199997 136 172 136 L 168 136 C 165.800003 136 164 137.800003 164 140 L 164 144 C 164 146.199997 165.800003 148 168 148"/>
    <path id="path7" fill="#ffffff" stroke="none" d="M 212 160 L 208 160 L 208 156 L 212 156 Z M 212 152 L 208 152 C 205.800003 152 204 153.800003 204 156 L 204 160 C 204 162.199997 205.800003 164 208 164 L 212 164 C 214.199997 164 216 162.199997 216 160 L 216 156 C 216 153.800003 214.199997 152 212 152"/>
    <path id="path8" fill="#ffffff" stroke="none" d="M 30 80 L 88 80 L 88 76 L 30 76 C 28.895 76 28 76.895004 28 78 C 28 79.104996 28.895 80 30 80"/>
    <path id="path9" fill="#ffffff" stroke="none" d="M 228 78 C 228 76.895004 227.104996 76 226 76 L 168 76 L 168 80 L 226 80 C 227.104996 80 228 79.104996 228 78"/>
    <path id="path10" fill="#ffffff" stroke="none" d="M 216 84 C 214.895004 84 214 84.895004 214 86 C 214 87.104996 214.895004 88 216 88 C 217.104996 88 218 87.104996 218 86 C 218 84.895004 217.104996 84 216 84"/>
    <path id="path11" fill="#ffffff" stroke="none" d="M 226 84 L 221.649994 84 C 221.873001 84.626999 222 85.298004 222 86 C 222 86.701996 221.873001 87.373001 221.649994 88 L 226 88 C 227.104996 88 228 87.104996 228 86 C 228 84.895004 227.104996 84 226 84"/>
</svg>
