<?xml version="1.0" encoding="UTF-8"?>
<!-- Generated by Pixelmator Pro 3.7.1 -->
<svg width="256" height="256" viewBox="0 0 256 256" xmlns="http://www.w3.org/2000/svg">
    <path id="Path" fill="#ffffff" stroke="none" d="M 212 48 L 208 48 L 48 48 L 44 48 L 44 52 L 44 112 L 44 116 L 48 116 L 208 116 L 212 116 L 212 112 L 212 52 Z M 208 112 L 48 112 L 48 52 L 208 52 Z"/>
    <path id="path1" fill="#ffffff" stroke="none" d="M 204 56 L 52 56 L 52 108 L 204 108 Z M 200 104 L 56 104 L 56 60 L 200 60 Z"/>
    <path id="path2" fill="#ffffff" stroke="none" d="M 112 124 L 108 124 L 48 124 L 44 124 L 44 128 L 44 136 L 44 140 L 48 140 L 108 140 L 112 140 L 112 136 L 112 128 Z M 108 136 L 48 136 L 48 128 L 108 128 Z"/>
    <path id="path3" fill="#ffffff" stroke="none" d="M 112 140 L 108 140 L 48 140 L 44 140 L 44 144 L 44 152 L 44 156 L 48 156 L 108 156 L 112 156 L 112 152 L 112 144 Z M 108 152 L 48 152 L 48 144 L 108 144 Z"/>
    <path id="path4" fill="#ffffff" stroke="none" d="M 112 156 L 108 156 L 48 156 L 44 156 L 44 160 L 44 168 L 44 172 L 48 172 L 108 172 L 112 172 L 112 168 L 112 160 Z M 108 168 L 48 168 L 48 160 L 108 160 Z"/>
    <path id="path5" fill="#ffffff" stroke="none" d="M 112 172 L 108 172 L 48 172 L 44 172 L 44 176 L 44 184 L 44 188 L 48 188 L 108 188 L 112 188 L 112 184 L 112 176 Z M 108 184 L 48 184 L 48 176 L 108 176 Z"/>
    <path id="path6" fill="#ffffff" stroke="none" d="M 112 188 L 108 188 L 48 188 L 44 188 L 44 192 L 44 200 L 44 204 L 48 204 L 108 204 L 112 204 L 112 200 L 112 192 Z M 108 200 L 48 200 L 48 192 L 108 192 Z"/>
    <path id="path7" fill="#ffffff" stroke="none" d="M 212 124 L 208 124 L 148 124 L 144 124 L 144 128 L 144 136 L 144 140 L 148 140 L 208 140 L 212 140 L 212 136 L 212 128 Z M 208 136 L 148 136 L 148 128 L 208 128 Z"/>
    <path id="path8" fill="#ffffff" stroke="none" d="M 212 140 L 208 140 L 148 140 L 144 140 L 144 144 L 144 152 L 144 156 L 148 156 L 208 156 L 212 156 L 212 152 L 212 144 Z M 208 152 L 148 152 L 148 144 L 208 144 Z"/>
    <path id="path9" fill="#ffffff" stroke="none" d="M 212 156 L 208 156 L 148 156 L 144 156 L 144 160 L 144 168 L 144 172 L 148 172 L 208 172 L 212 172 L 212 168 L 212 160 Z M 208 168 L 148 168 L 148 160 L 208 160 Z"/>
    <path id="path10" fill="#ffffff" stroke="none" d="M 212 172 L 208 172 L 148 172 L 144 172 L 144 176 L 144 184 L 144 188 L 148 188 L 208 188 L 212 188 L 212 184 L 212 176 Z M 208 184 L 148 184 L 148 176 L 208 176 Z"/>
    <path id="path11" fill="#ffffff" stroke="none" d="M 212 188 L 208 188 L 148 188 L 144 188 L 144 192 L 144 200 L 144 204 L 148 204 L 208 204 L 212 204 L 212 200 L 212 192 Z M 208 200 L 148 200 L 148 192 L 208 192 Z"/>
    <path id="path12" fill="#ffffff" stroke="none" d="M 228 76 C 228 78.209 226.209 80 224 80 L 212 80 L 212 84 L 224 84 L 224 240 L 32 240 L 32 84 L 44 84 L 44 80 L 32 80 C 29.791 80 28 78.209 28 76 L 28 15.960999 C 28 13.772995 29.772995 12 31.960999 12 L 224.039001 12 C 226.227005 12 228 13.772995 228 15.960999 Z M 224.039001 8 L 31.960999 8 C 27.570999 8 24 11.570999 24 15.960999 L 24 76 C 24 79.113007 25.792007 81.809998 28.393997 83.132004 L 28.393997 84 L 28.393997 240 L 28.393997 243.606003 L 32 243.606003 L 224 243.606003 L 227.606003 243.606003 L 227.606003 240 L 227.606003 84 L 227.606003 83.132004 C 230.207993 81.809998 232 79.113007 232 76 L 232 15.960999 C 232 11.570999 228.429001 8 224.039001 8"/>
</svg>
