<?xml version="1.0" encoding="UTF-8"?>
<!-- Generated by Pixelmator Pro 3.7.1 -->
<svg width="256" height="256" viewBox="0 0 256 256" xmlns="http://www.w3.org/2000/svg">
    <path id="Path" fill="#ffffff" stroke="none" d="M 220 228 C 220 230.209 218.209 232 216 232 L 152 232 C 149.791 232 148 230.209 148 228 L 148 100 L 216 100 L 220 100 Z M 120 208 L 120 176 C 128.835999 176 136 183.162994 136 192 C 136 200.837006 128.835999 208 120 208 M 88 176 L 116 176 L 116 208 L 88 208 Z M 52 180 L 84 180 L 84 204 L 52 204 Z M 144 228 L 144 240 C 144 242.209 142.209 244 140 244 L 40 244 C 37.791 244 36 242.209 36 240 L 36 212 L 46 212 C 48.606003 212 50.824005 210.326004 51.649994 208 L 84 208 L 84 212 L 88 212 L 116 212 L 120 212 C 131.028 212 140 203.028 140 192 C 140 180.972 131.028 172 120 172 L 116 172 L 88 172 L 84 172 L 84 176 L 51.649994 176 C 50.824005 173.673996 48.606003 172 46 172 L 36 172 L 36 100 L 40 100 L 144 100 Z M 36 176 L 46 176 C 47.104004 176 48 176.895996 48 178 L 48 180 L 48 204 L 48 206 C 48 207.104004 47.104004 208 46 208 L 36 208 Z M 56 76 L 72 76 L 76 76 L 180 76 L 184 76 L 200 76 L 200 96 L 148 96 L 144 96 L 56 96 Z M 196 52 L 184 52 L 180 52 L 76 52 L 72 52 L 60 52 L 56 56.363998 L 56 36 L 200 36 L 200 56.363998 Z M 76 56 L 180 56 L 180 72 L 76 72 Z M 56 62.283005 L 61.759995 56 L 72 56 L 72 72 L 56 72 Z M 200 72 L 184 72 L 184 56 L 194.240005 56 L 200 62.283005 Z M 36 92 L 36 40 C 36 37.791 37.791 36 40 36 L 52 36 L 52 60.727005 L 52 76 L 52 96 L 40 96 C 37.791 96 36 94.209 36 92 M 216 96 L 204 96 L 204 76 L 204 60.727005 L 204 36 L 216 36 C 218.209 36 220 37.791 220 40 L 220 92 C 220 94.209 218.209 96 216 96 M 40 12 L 216 12 C 218.209 12 220 13.791 220 16 L 220 33.082993 C 218.820999 32.397995 217.457993 32 216 32 L 204 32 L 200 32 L 56 32 L 52 32 L 40 32 C 38.542007 32 37.177994 32.397995 36 33.082993 L 36 16 C 36 13.791 37.791 12 40 12 M 224 16 C 224 11.589005 220.410995 8 216 8 L 40 8 C 35.589005 8 32 11.589005 32 16 L 32 36 L 33.082993 36 C 32.397995 37.177994 32 38.542007 32 40 L 32 92 C 32 93.457993 32.397995 94.822006 33.082993 96 L 32 96 L 32 100 L 32 172 L 32 176 L 32 208 L 32 212 L 32 240 C 32 244.410995 35.589005 248 40 248 L 140 248 C 144.411011 248 148 244.410995 148 240 L 148 234.917999 C 149.179001 235.602005 150.541992 236 152 236 L 216 236 C 220.410995 236 224 232.410995 224 228 L 224 100 L 224 96 L 222.917999 96 C 223.602005 94.822006 224 93.457993 224 92 L 224 40 C 224 38.542007 223.602005 37.177994 222.917999 36 L 224 36 Z"/>
</svg>
