<?xml version="1.0" encoding="UTF-8"?>
<!-- Generated by Pixelmator Pro 3.7.1 -->
<svg width="256" height="256" viewBox="0 0 256 256" xmlns="http://www.w3.org/2000/svg">
    <path id="Path" fill="#ffffff" stroke="none" d="M 244 60 L 244 216 C 244 224.837006 236.837006 232 228 232 L 200 232 L 200 216 L 244 216 L 240 188 L 240 158 L 240 141.656998 L 240 140 L 240 124 L 240 120 L 240 114 L 240 84 L 244 60 L 160 60 L 156 60 L 152 60 L 148 60 L 144 60 L 140 60 L 136 60 L 132 60 L 128 60 L 124 60 L 120 60 L 116 60 L 112 60 L 108 60 L 104 60 L 100 60 L 96 60 L 92 60 L 88 60 L 84 60 L 80 60 L 76 60 L 72 60 L 68 60 L 64 60 L 60 60 L 56 60 L 52 60 L 48 60 L 44 60 L 12 60 L 16 84 L 16 114 L 16 128 L 16 140 L 16 158 L 16 188 L 12 216 L 160 216 L 160 232 L 28 232 C 19.164001 232 12 224.837006 12 216 L 12 60 L 12 52 C 12 47.582001 15.582001 44 20 44 L 20 28 C 20 25.791 21.791 24 24 24 L 232 24 C 234.209 24 236 25.791 236 28 L 236 44 C 240.417999 44 244 47.582001 244 52 Z M 196 160 L 236 160 L 236 188 L 200 188 L 200 180 L 200 176 L 200 164 C 200 161.791 198.209 160 196 160 M 196 176 L 164 176 L 164 164 L 196 164 Z M 196 188 L 164 188 L 164 180 L 196 180 Z M 196 212 L 164 212 L 164 192 L 196 192 Z M 196 230 C 196 231.104004 195.104004 232 194 232 L 166 232 C 164.895996 232 164 231.104004 164 230 L 164 216 L 196 216 Z M 160 164 L 160 176 L 160 180 L 160 188 L 20 188 L 20 160 L 164 160 C 161.791 160 160 161.791 160 164 M 44 80 L 19.389008 80 L 16.722 64 L 44 64 Z M 236.610992 80 L 160 80 L 160 64 L 239.278 64 Z M 236.531006 192 L 239.388 212 L 200 212 L 200 192 Z M 20 136 L 20 132 L 132 132 L 132 128 L 20 128 L 20 116 L 236 116 L 236 120 L 236 124 L 236 132 L 236 136 L 236 140 L 236 145.656998 L 236 152 L 236 156 L 20 156 L 20 140 L 132 140 L 132 136 Z M 152 64 L 156 64 L 156 80 L 152 80 Z M 144 64 L 148 64 L 148 80 L 144 80 Z M 136 64 L 140 64 L 140 80 L 136 80 Z M 128 64 L 132 64 L 132 80 L 128 80 Z M 120 64 L 124 64 L 124 80 L 120 80 Z M 112 64 L 116 64 L 116 80 L 112 80 Z M 104 64 L 108 64 L 108 80 L 104 80 Z M 96 64 L 100 64 L 100 80 L 96 80 Z M 88 64 L 92 64 L 92 80 L 88 80 Z M 80 64 L 84 64 L 84 80 L 80 80 Z M 72 64 L 76 64 L 76 80 L 72 80 Z M 64 64 L 68 64 L 68 80 L 64 80 Z M 56 64 L 60 64 L 60 80 L 56 80 Z M 48 64 L 52 64 L 52 80 L 48 80 Z M 236 112 L 20 112 L 20 84 L 236 84 Z M 160 212 L 16.612 212 L 19.468994 192 L 160 192 Z M 240 40.686005 L 240 28 C 240 23.589005 236.410995 20 232 20 L 24 20 C 19.589005 20 16 23.589005 16 28 L 16 40.686005 C 11.343994 42.335999 8 46.785004 8 52 L 8 216 C 8 227.028 16.972 236 28 236 L 160 236 L 162 236 L 164 236 L 164 235.656998 C 164.626007 235.878998 165.299011 236 166 236 L 194 236 C 194.701004 236 195.373993 235.878998 196 235.656998 L 196 236 L 198 236 L 200 236 L 228 236 C 239.028 236 248 227.028 248 216 L 248 52 C 248 46.785004 244.656006 42.335999 240 40.686005"/>
    <path id="path1" fill="#ffffff" stroke="none" d="M 232 132 L 220 132 L 220 124 L 232 124 Z M 232 140 L 224 148 L 220 148 L 220 136 L 232 136 Z M 148 136 L 216 136 L 216 148 L 148 148 Z M 140 148 L 132 140 L 132 136 L 144 136 L 144 148 Z M 132 124 L 144 124 L 144 132 L 132 132 Z M 216 132 L 148 132 L 148 124 L 216 124 Z M 132 120 L 128 120 L 128 124 L 128 140 L 128 141.656998 L 129.171997 142.828003 L 137.171997 150.828003 L 138.343002 152 L 140 152 L 224 152 L 225.656998 152 L 226.828003 150.828003 L 234.828003 142.828003 L 236 141.656998 L 236 140 L 236 124 L 236 120 L 232 120 Z"/>
    <path id="path2" fill="#ffffff" stroke="none" d="M 120 40 L 28 40 L 28 32 L 120 32 Z M 124 30 C 124 28.895996 123.103996 28 122 28 L 26 28 C 24.896 28 24 28.895996 24 30 L 24 44 L 124 44 Z"/>
    <path id="path3" fill="#ffffff" stroke="none" d="M 228 40 L 136 40 L 136 32 L 228 32 Z M 232 30 C 232 28.895996 231.104004 28 230 28 L 134 28 C 132.895996 28 132 28.895996 132 30 L 132 44 L 232 44 Z"/>
</svg>
