<?xml version="1.0" encoding="UTF-8"?>
<!-- Generated by Pixelmator Pro 3.7.1 -->
<svg width="256" height="256" viewBox="0 0 256 256" xmlns="http://www.w3.org/2000/svg">
    <path id="Path" fill="#ffffff" stroke="none" d="M 244 236 C 244 240.417999 240.417999 244 236 244 L 232 244 L 232 137.153 L 232 134.225998 L 232 12 L 236 12 C 240.417999 12 244 15.582001 244 20 Z M 28 244 L 28 138.419006 C 28.279999 138.505997 28.582001 138.598999 28.889999 138.692001 C 29.009003 138.729004 29.126999 138.765991 29.25 138.803009 C 29.429001 138.856995 29.615005 138.912994 29.802994 138.971008 C 44.753006 143.492004 79.384995 152.335999 123.109001 152.962997 C 123.191002 152.963989 123.272003 152.966003 123.353996 152.968002 C 124.891998 152.988007 126.440002 153 128 153 C 129.559998 153 131.106995 152.988007 132.645996 152.968002 C 132.727997 152.966003 132.80899 152.963989 132.890991 152.962997 C 176.630005 152.335999 211.270996 143.485992 226.212997 138.966003 C 226.391998 138.912003 226.567001 138.858002 226.738007 138.807007 C 226.869995 138.766998 226.998001 138.727997 227.126007 138.686996 C 227.429001 138.596008 227.725006 138.503998 228 138.419006 L 228 244 Z M 20 244 C 15.582001 244 12 240.417999 12 236 L 12 20 C 12 15.582001 15.582001 12 20 12 L 24 12 L 24 134.225998 L 24 137.153 L 24 244 Z M 228 12 L 228 84 L 228 88 L 228 90 L 228 118 L 228 120 L 228 124 L 228 134.225998 L 227.697998 134.320999 C 216.835999 137.764999 177.544006 149 128 149 C 78.455994 149 39.164001 137.764999 28.302002 134.320999 L 28 134.225998 L 28 124 L 28 120 L 28 118 L 28 90 L 28 88 L 28 84 L 28 12 Z M 236 8 L 232 8 L 228 8 L 28 8 L 24 8 L 20 8 C 13.382996 8 8 13.382996 8 20 L 8 236 C 8 242.617004 13.382996 248 20 248 L 236 248 C 242.617004 248 248 242.617004 248 236 L 248 20 C 248 13.382996 242.617004 8 236 8"/>
    <path id="path1" fill="#ffffff" stroke="none" d="M 64 184 C 57.373001 184 52 178.626999 52 172 C 52 165.373001 57.373001 160 64 160 C 70.626999 160 76 165.373001 76 172 C 76 178.626999 70.626999 184 64 184 M 80 172 C 80 163.178009 72.821999 156 64 156 C 55.178001 156 48 163.178009 48 172 C 48 180.821991 55.178001 188 64 188 C 72.821999 188 80 180.821991 80 172"/>
    <path id="path2" fill="#ffffff" stroke="none" d="M 64 228 C 58.661999 228 54.111 224.466003 52.564999 219.623001 C 55.473 222.319 59.521 224 64 224 C 68.479004 224 72.527 222.319 75.434998 219.623001 C 73.889 224.466003 69.337997 228 64 228 M 76 204 L 76 209.5 C 76 215.274994 70.599998 220 64 220 C 57.400002 220 52 215.274994 52 209.5 L 52 204 C 52 197.399994 57.400002 192 64 192 C 70.599998 192 76 197.399994 76 204 M 48 202.5 L 48 204 L 48 209.5 L 48 216 C 48 224.822006 55.178001 232 64 232 C 72.821999 232 80 224.822006 80 216 L 80 209.5 L 80 204 L 80 202.5 C 80 194.505005 72.821999 188 64 188 C 55.178001 188 48 194.505005 48 202.5"/>
    <path id="path3" fill="#ffffff" stroke="none" d="M 44 104 L 60 104 L 60 116.761993 L 55.429001 116.544006 C 49.030998 116.240005 44 110.962997 44 104.557999 Z M 44 96 C 44 91.582001 47.582001 88 52 88 L 60 88 L 60 100 L 44 100 Z M 192 100 L 64 100 L 64 88 L 192 88 Z M 204 88 C 208.417999 88 212 91.582001 212 96 L 212 100 L 196 100 L 196 88 Z M 212 104.557999 C 212 110.962997 206.968994 116.240005 200.570007 116.544006 L 196 116.761993 L 196 104 L 212 104 Z M 142.269989 119.320007 C 137.515991 119.546997 132.757996 119.660004 128 119.660004 C 123.241997 119.660004 118.484001 119.546997 113.730003 119.320007 L 63.998001 116.951996 L 64 116.951996 L 64 104 L 192 104 L 192 116.951996 L 192.001999 116.951996 Z M 55.238998 120.540009 L 113.540001 123.315994 C 118.334999 123.544006 123.199997 123.660004 128 123.660004 C 132.800003 123.660004 137.665009 123.544006 142.459991 123.315994 L 200.761002 120.540009 C 209.307007 120.132996 216 113.113007 216 104.557999 L 216 96 C 216 89.382996 210.617004 84 204 84 L 52 84 C 45.382999 84 40 89.382996 40 96 L 40 104.557999 C 40 113.113007 46.694 120.132996 55.238998 120.540009"/>
</svg>
