<?xml version="1.0" encoding="UTF-8"?>
<!-- Generated by Pixelmator Pro 3.7.1 -->
<svg width="256" height="256" viewBox="0 0 256 256" xmlns="http://www.w3.org/2000/svg">
    <path id="Path" fill="#ffffff" stroke="none" d="M 220 236 L 220 216 L 220 212.100006 L 222.716995 157.768005 C 223.570999 140.669998 223.570999 123.330994 222.716995 106.231995 L 220 51.899994 L 220 12 C 222.209 12 224 13.791 224 16 L 224 236 Z M 220 244 L 36 244 C 33.791 244 32 242.209 32 240 L 36 240 L 40 240 L 216 240 L 220 240 L 224 240 C 224 242.209 222.209 244 220 244 M 32 16 C 32 13.791 33.791 12 36 12 L 36 51.899994 L 33.283005 106.231995 C 32.429001 123.330994 32.429001 140.669998 33.283005 157.768005 L 36 212.100006 L 36 216 L 36 236 L 32 236 Z M 192 212 L 194.722 157.567993 C 195.572998 140.53299 195.572998 123.46701 194.722 106.432007 L 192 52 L 216 52 L 216 212 Z M 40 216 L 64 216 L 68.205002 216 L 108 216 L 128 216 L 148 216 L 187.794998 216 L 192 216 L 216 216 L 216 236 L 148 236 L 128 236 L 108 236 L 40 236 Z M 191.097992 148 L 64.901993 148 C 64.860992 146.666992 64.817993 145.334991 64.787003 144 L 191.212997 144 C 191.182007 145.334991 191.139999 146.666992 191.097992 148 M 188.005005 211.800003 L 187.994995 212 L 68.005005 212 L 67.994995 211.800003 L 65.272995 157.367996 C 65.184006 155.582001 65.108994 153.791 65.039001 152 L 190.960999 152 C 190.891006 153.791 190.815994 155.582001 190.727005 157.367996 Z M 40 52 L 64 52 L 61.278 106.432007 C 60.427002 123.46701 60.427002 140.53299 61.278 157.567993 L 64 212 L 40 212 Z M 216 12 L 216 48 L 192 48 L 187.794998 48 L 188.005005 52.199997 L 190.727005 106.632004 C 191.279999 117.696991 191.462006 128.863998 191.287994 140 L 64.712006 140 C 64.537994 128.863998 64.720001 117.696991 65.272995 106.632004 L 67.994995 52.199997 L 68.205002 48 L 64 48 L 40 48 L 40 12 Z M 220 8 L 36 8 C 31.589005 8 28 11.589005 28 16 L 28 236 L 28 240 C 28 244.410995 31.589005 248 36 248 L 220 248 C 224.410995 248 228 244.410995 228 240 L 228 236 L 228 16 C 228 11.589005 224.410995 8 220 8"/>
    <path id="path1" fill="#ffffff" stroke="none" d="M 182.892593 172 L 73.107597 172 L 72.379601 164 L 183.620605 164 Z M 185.809601 160 L 183.999603 160 L 71.999603 160 L 70.189598 160 C 69.014603 160 68.091599 161.01001 68.198601 162.181 L 71.999603 204 L 71.999603 176 L 183.999603 176 L 183.999603 204 L 187.801605 162.181 C 187.9086 161.01001 186.986603 160 185.809601 160"/>
    <path id="path2" fill="#ffffff" stroke="none" d="M 90 230 C 87.791 230 86 228.209 86 226 C 86 223.791 87.791 222 90 222 C 92.209 222 94 223.791 94 226 C 94 228.209 92.209 230 90 230 M 76 230 C 73.791 230 72 228.209 72 226 C 72 223.791 73.791 222 76 222 C 78.209 222 80 223.791 80 226 C 80 228.209 78.209 230 76 230 M 90 218 C 86.989998 218 84.364998 219.673004 83 222.136002 C 81.635002 219.673004 79.010002 218 76 218 C 71.589005 218 68 221.589005 68 226 C 68 230.410995 71.589005 234 76 234 C 79.010002 234 81.635002 232.326996 83 229.863998 C 84.364998 232.326996 86.989998 234 90 234 C 94.411003 234 98 230.410995 98 226 C 98 221.589005 94.411003 218 90 218"/>
    <path id="path3" fill="#ffffff" stroke="none" d="M 108 220 C 111.313004 220 114 222.686996 114 226 C 114 229.313004 111.313004 232 108 232 C 104.686996 232 102 229.313004 102 226 C 102 222.686996 104.686996 220 108 220 M 98 226 C 98 231.514008 102.486 236 108 236 C 113.514 236 118 231.514008 118 226 C 118 220.485992 113.514 216 108 216 C 102.486 216 98 220.485992 98 226"/>
    <path id="path4" fill="#ffffff" stroke="none" d="M 128 220 C 131.313004 220 134 222.686996 134 226 C 134 229.313004 131.313004 232 128 232 C 124.686996 232 122 229.313004 122 226 C 122 222.686996 124.686996 220 128 220 M 118 226 C 118 231.514008 122.486 236 128 236 C 133.514008 236 138 231.514008 138 226 C 138 220.485992 133.514008 216 128 216 C 122.486 216 118 220.485992 118 226"/>
    <path id="path5" fill="#ffffff" stroke="none" d="M 148 220 C 151.313004 220 154 222.686996 154 226 C 154 229.313004 151.313004 232 148 232 C 144.686996 232 142 229.313004 142 226 C 142 222.686996 144.686996 220 148 220 M 138 226 C 138 231.514008 142.485992 236 148 236 C 153.514008 236 158 231.514008 158 226 C 158 220.485992 153.514008 216 148 216 C 142.485992 216 138 220.485992 138 226"/>
    <path id="path6" fill="#ffffff" stroke="none" d="M 166 222 C 168.209 222 170 223.791 170 226 C 170 228.209 168.209 230 166 230 C 163.791 230 162 228.209 162 226 C 162 223.791 163.791 222 166 222 M 180 222 C 182.209 222 184 223.791 184 226 C 184 228.209 182.209 230 180 230 C 177.791 230 176 228.209 176 226 C 176 223.791 177.791 222 180 222 M 166 234 C 169.009995 234 171.634995 232.326996 173 229.863998 C 174.365005 232.326996 176.990005 234 180 234 C 184.410995 234 188 230.410995 188 226 C 188 221.589005 184.410995 218 180 218 C 176.990005 218 174.365005 219.673004 173 222.136002 C 171.634995 219.673004 169.009995 218 166 218 C 161.589005 218 158 221.589005 158 226 C 158 230.410995 161.589005 234 166 234"/>
</svg>
