<?xml version="1.0" encoding="UTF-8"?>
<!-- Generated by Pixelmator Pro 3.7.1 -->
<svg width="256" height="256" viewBox="0 0 256 256" xmlns="http://www.w3.org/2000/svg">
    <path id="Path" fill="#ffffff" stroke="none" d="M 160.332993 76 L 148.666992 56 L 244 56 L 244 76 Z M 108 112 C 94.766998 112 84 122.766998 84 136 C 84 149.233002 94.766998 160 108 160 L 160 160 L 160 188 L 112 188 L 112 187.949005 C 111.334999 187.973999 110.670998 188 110 188 C 80.177002 188 56 163.822998 56 134 C 56 119.063004 62.065002 105.544006 71.866997 95.768005 C 72.702003 94.934998 73.572998 94.139008 74.459999 93.362 C 75.337997 92.593994 76.238998 91.852005 77.166 91.141006 C 78.083 90.436996 79.018997 89.755997 79.981003 89.110992 C 80.936996 88.470993 81.920998 87.869003 82.918999 87.289001 C 83.914001 86.710999 84.927002 86.162003 85.959999 85.647003 C 86.994003 85.132004 88.042 84.641006 89.112 84.192001 C 89.113998 84.190994 89.116997 84.190002 89.120003 84.188995 C 89.691002 83.949005 90.272003 83.725998 90.854004 83.505005 C 91.362 83.315002 91.874001 83.130997 92.389 82.953003 C 93.502998 82.569 94.633003 82.218002 95.779999 81.906006 C 96.264 81.774002 96.751999 81.649994 97.240997 81.529999 C 97.599998 81.442993 97.959999 81.360001 98.321999 81.281006 C 98.643997 81.208008 98.963997 81.132004 99.289001 81.065994 C 100.491997 80.824005 101.712997 80.634995 102.943001 80.473999 C 104.193001 80.311005 105.453995 80.184006 106.728996 80.106995 C 107.811996 80.042999 108.901001 80 110 80 C 110.670998 80 111.334999 80.026001 112 80.050995 L 112 80 L 114.666 80 L 118.666 80 L 122.666 80 L 126.666 80 L 130.666992 80 L 134.666992 80 L 138.666992 80 L 142.666992 80 L 146.666992 80 L 150.666992 80 L 154.667007 80 L 158.667007 80 L 162.667007 80 L 244 80 L 244 112 Z M 244 188 L 200 188 L 200 160 L 244 160 Z M 244 212 L 200 212 L 200 192 L 244 192 Z M 228 232 L 200 232 L 200 216 L 244 216 C 244 224.837006 236.83699 232 228 232 M 194 232 L 166 232 C 164.895004 232 164 231.104004 164 230 L 164 216 L 196 216 L 196 230 C 196 231.104004 195.104004 232 194 232 M 140.666992 56 L 144.666992 56 L 156.332993 76 L 152.332993 76 Z M 132.666992 56 L 136.666992 56 L 148.332993 76 L 144.332993 76 Z M 124.666 56 L 128.666 56 L 140.332993 76 L 136.332993 76 Z M 116.666 56 L 120.666 56 L 132.332993 76 L 128.332993 76 Z M 108.685997 56.033005 C 109.125 56.026001 109.559998 56 110 56 C 110.418999 56 110.817001 56.005005 111.191002 56.013 C 111.459999 56.003998 111.728996 56 112 56 L 112.666 56 L 124.333 76 L 120.333 76 Z M 100.979996 56.537994 C 102.237999 56.393005 103.504997 56.278992 104.779999 56.194 L 116.333 76 L 112.333 76 Z M 93.677002 57.731003 C 94.868004 57.477005 96.07 57.253006 97.280998 57.054001 L 108.333 76 L 108 76 L 108 76.033997 C 106.82 76.074005 105.653 76.162003 104.491997 76.270996 Z M 86.735001 59.544998 C 87.865997 59.190994 89.010002 58.867996 90.163002 58.563995 L 100.770996 76.751007 C 99.559998 76.945999 98.359001 77.171005 97.172997 77.440002 Z M 196 212 L 164 212 L 164 192 L 196 192 Z M 196 188 L 164 188 L 164 180 L 196 180 Z M 108 156 C 96.953995 156 88 147.04599 88 136 C 88 124.953995 96.953995 116 108 116 L 244 116 L 244 156 Z M 196 176 L 164 176 L 164 160 L 196 160 Z M 110 192 L 112 192 L 160 192 L 160 212 L 112 212 C 111.728996 212 111.459999 211.994995 111.191002 211.985992 C 110.817001 211.994995 110.418999 212 110 212 C 66.990997 212 32.000008 177.01001 32.000008 134 C 32.000008 110.231003 42.699997 88.925003 59.521004 74.606995 L 69.806999 92.240005 C 58.841003 102.798004 52 117.612 52 134 C 52 165.311996 76.941002 190.90799 108 191.966003 L 108 192 Z M 72.417999 89.860001 L 62.234001 72.401993 C 63.149002 71.690994 64.080002 71.001007 65.026001 70.330994 L 75.149002 87.684006 C 74.219002 88.384995 73.304001 89.104996 72.417999 89.860001 M 77.979004 85.679001 L 67.894997 68.393005 C 68.862999 67.768997 69.845001 67.166 70.841003 66.585007 L 80.910004 83.845993 C 79.913002 84.425995 78.938004 85.041992 77.979004 85.679001 M 83.946999 82.195007 L 73.862999 64.908997 C 74.884003 64.373001 75.916 63.856003 76.961998 63.363998 L 87.094002 80.731995 C 86.028999 81.192001 84.977997 81.673996 83.946999 82.195007 M 90.343002 79.445007 L 80.139 61.953003 C 81.213997 61.505997 82.296997 61.076996 83.394997 60.677002 L 93.696999 78.337997 C 92.563004 78.671005 91.447998 79.046005 90.343002 79.445007 M 28.000008 232 C 19.163994 232 12.000008 224.837006 12.000008 216 L 12.000008 52 C 12.000008 47.582001 15.581993 44 20.000008 44 L 20.000008 28 C 20.000008 25.791 21.790993 24 24.000008 24 L 232 24 C 234.209 24 236 25.791 236 28 L 236 44 C 240.417999 44 244 47.582001 244 52 L 146.332993 52 L 144 48 L 140 48 L 142.332993 52 L 138.332993 52 L 136 48 L 132 48 L 134.332993 52 L 130.332993 52 L 128 48 L 124 48 L 126.333 52 L 122.333 52 L 120 48 L 116 48 L 118.333 52 L 114.333 52 L 112 48 L 108 48 L 110.334999 52.003006 C 110.221001 52.003006 110.116997 52 110 52 C 108.788002 52 107.585999 52.040009 106.387001 52.091995 L 104 48 L 100 48 L 102.540001 52.354004 C 101.281998 52.468994 100.032997 52.615005 98.791 52.785995 L 96 48 L 92 48 L 95.136002 53.375 C 93.936996 53.596008 92.748001 53.843002 91.567001 54.115005 L 88 48 L 84 48 L 88.083 54.998993 C 86.938004 55.315994 85.802002 55.653992 84.678001 56.020004 L 80 48 L 76 48 L 81.351997 57.175003 C 80.259003 57.583008 79.171997 58.005005 78.100998 58.459 L 72 48 L 68 48 L 74.936996 59.891998 C 73.892998 60.388 72.864998 60.912003 71.846001 61.449997 L 64 48 L 60 48 L 68.827003 63.130997 C 67.830002 63.712997 66.848999 64.313995 65.878998 64.936005 L 56 48 L 52 48 L 63.003998 66.863998 C 62.055 67.529999 61.120003 68.210999 60.200996 68.916 L 48 48 L 44 48 L 57.472 71.093994 C 39.473999 86.147995 28.000008 108.755997 28.000008 134 C 28.000008 179.214996 64.785004 216 110 216 C 110.409996 216 110.799995 215.994995 111.169998 215.988007 C 111.445999 215.996002 111.722 216 112 216 L 160 216 L 160 232 Z M 240 40.686005 L 240 28 C 240 23.589005 236.410995 20 232 20 L 24.000008 20 C 19.588997 20 16.000008 23.589005 16.000008 28 L 16.000008 40.686005 C 11.344002 42.335999 8.000008 46.785004 8.000008 52 L 8.000008 216 C 8.000008 227.028 16.972008 236 28.000008 236 L 162 236 C 162.701004 236 163.373993 235.878998 164 235.656998 C 164.626007 235.878998 165.298996 236 166 236 L 194 236 C 194.701004 236 195.373993 235.878998 196 235.656998 C 196.625992 235.878998 197.298996 236 198 236 L 228 236 C 239.028 236 248 227.028 248 216 L 248 212 L 248 192 L 248 188 L 248 160 L 248 156 L 248 116 L 248 112 L 248 80 L 248 76 L 248 56 L 248 52 C 248 46.785004 244.655991 42.335999 240 40.686005"/>
    <path id="path1" fill="#ffffff" stroke="none" d="M 232 132 L 220 132 L 220 124 L 232 124 Z M 232 140 L 224 148 L 220 148 L 220 136 L 232 136 Z M 148 136 L 216 136 L 216 148 L 148 148 Z M 140 148 L 132 140 L 132 136 L 144 136 L 144 148 Z M 132 124 L 144 124 L 144 132 L 132 132 Z M 216 132 L 148 132 L 148 124 L 216 124 Z M 132 120 L 128 120 L 128 124 L 128 140 L 128 141.656998 L 129.171997 142.828003 L 137.171997 150.828003 L 138.343002 152 L 140 152 L 224 152 L 225.656998 152 L 226.828003 150.828003 L 234.828003 142.828003 L 236 141.656998 L 236 140 L 236 124 L 236 120 L 232 120 Z"/>
    <path id="path2" fill="#ffffff" stroke="none" d="M 120 40 L 28 40 L 28 32 L 120 32 Z M 124 30 C 124 28.895996 123.103996 28 122 28 L 26 28 C 24.896 28 24 28.895996 24 30 L 24 44 L 124 44 Z"/>
    <path id="path3" fill="#ffffff" stroke="none" d="M 228 40 L 136 40 L 136 32 L 228 32 Z M 232 30 C 232 28.895996 231.104004 28 230 28 L 134 28 C 132.895996 28 132 28.895996 132 30 L 132 44 L 232 44 Z"/>
    <path id="path4" fill="#ffffff" stroke="none" d="M 192 164 L 168 164 L 168 168 L 192 168 Z"/>
    <path id="path5" fill="#ffffff" stroke="none" d="M 168 228 L 192 228 L 192 224 L 168 224 Z"/>
</svg>
