<?xml version="1.0" encoding="UTF-8"?>
<!-- Generated by Pixelmator Pro 3.7.1 -->
<svg width="256" height="256" viewBox="0 0 256 256" xmlns="http://www.w3.org/2000/svg">
    <path id="Path" fill="#ffffff" stroke="none" d="M 208 48 L 204 48 L 204 52 L 204 64 L 204 68 L 208 68 L 228 68 L 228 239.360001 C 228 241.910995 226.425995 244 223.238007 244 L 32.761993 244 C 30.516998 244 28 241.548004 28 239.360001 L 28 68.188995 L 48 68.188995 L 52 68.188995 L 52 64.188995 L 52 52.188995 L 52 48.188995 L 48 48.188995 L 28 48.188995 L 28 16.658997 C 28 14.093002 30.128006 12.018997 32.761993 12.018997 L 51.809998 12.018997 L 56.570999 16 L 100 16 L 100 118.730011 C 100 135.690002 111.760002 148 127.961998 148 C 143.945999 148 156 135.416992 156 118.730011 L 156 16 L 200 16 L 204.190002 12.018997 L 223.238007 12.018997 C 223.371002 12.005997 223.501999 12 223.632004 12 C 226.069 12 228 14.222992 228 16.658997 L 228 48 Z M 228 64 L 208 64 L 208 52 L 228 52 Z M 28 52.188995 L 48 52.188995 L 48 64.188995 L 28 64.188995 Z M 104 16 L 104.190002 16 L 108 12.018997 L 148 12.018997 L 151.809998 16 L 152 16 L 152 118.730011 C 152 132.854004 142.085999 144 127.961998 144 C 113.598999 144 104 133.093994 104 118.730011 Z M 223.632004 8 C 223.447006 8 223.261993 8.005997 223.076996 8.018997 L 204.190002 8.018997 L 202.593994 8.018997 L 201.436005 9.119003 L 198.403 12 L 153.651001 12 L 150.854004 9.216003 L 149.709 8.018997 L 149.651001 8.018997 L 148 8.018997 L 108 8.018997 L 106.348999 8.018997 L 106.292 8.018997 L 105.147003 9.214996 L 102.348999 12 L 58.022995 12 L 54.375 8.949997 L 53.261002 8.018997 L 51.809998 8.018997 L 32.761993 8.018997 C 27.931 8.018997 24 11.895004 24 16.658997 L 24 48.188995 L 24 52.188995 L 24 64.188995 L 24 68.188995 L 24 239.360001 C 24 243.720993 28.339996 248 32.761993 248 L 223.238007 248 C 228.315002 248 232 244.365997 232 239.360001 L 232 68 L 232 64 L 232 52 L 232 48 L 232 16.658997 C 232 11.964996 228.167999 8 223.632004 8"/>
    <path id="path1" fill="#ffffff" stroke="none" d="M 120 20 L 136 20 L 136 88 L 120 88 Z M 136 92 L 140 92 L 140 88 L 140 20 L 140 16 L 136 16 L 120 16 L 116 16 L 116 20 L 116 88 L 116 92 L 120 92 Z"/>
    <path id="path2" fill="#ffffff" stroke="none" d="M 194 205.777298 C 194 209.218292 191.729996 212.000305 188.923004 212.000305 L 67.077003 212.000305 C 64.270004 212.000305 62 209.218292 62 205.777298 L 62 162.22229 C 62 158.781311 64.270004 156.000305 67.077003 156.000305 L 188.923004 156.000305 C 191.729996 156.000305 194 158.781311 194 162.22229 Z M 188.923004 152.000305 L 67.077003 152.000305 C 62.072006 152.000305 58 156.586304 58 162.22229 L 58 205.777298 C 58 211.414307 62.072006 216.000305 67.077003 216.000305 L 188.923004 216.000305 C 193.927994 216.000305 198 211.414307 198 205.777298 L 198 162.22229 C 198 156.586304 193.927994 152.000305 188.923004 152.000305"/>
    <path id="path3" fill="#ffffff" stroke="none" d="M 36 204 L 48 204 L 48 208 L 36 208 Z M 32 212 L 52 212 L 52 200 L 32 200 Z"/>
    <path id="path4" fill="#ffffff" stroke="none" d="M 208 204 L 220 204 L 220 208 L 208 208 Z M 204 212 L 224 212 L 224 200 L 204 200 Z"/>
    <path id="path5" fill="#ffffff" stroke="none" d="M 128 100 C 137.858002 100 146 107.779999 146 118 C 146 128.220001 138.220993 136 128 136 C 117.779999 136 110 127.934998 110 118 C 110 108.065002 118.141998 100 128 100 M 128 140 C 140.335999 140 150 130.335999 150 118 C 150 105.664001 140.335999 96 128 96 C 115.869003 96 106 105.869003 106 118 C 106 130.335999 115.664001 140 128 140"/>
    <path id="path6" fill="#ffffff" stroke="none" d="M 128 112 C 131.354996 112 134 114.669006 134 118 C 134 121.330994 131.354996 124 128 124 C 124.643997 124 122 121.356003 122 118 C 122 114.643997 124.643997 112 128 112 M 128 128 C 133.514008 128 138 123.514008 138 118 C 138 112.485992 133.514008 108 128 108 C 122.392998 108 118 112.393005 118 118 C 118 123.606995 122.392998 128 128 128"/>
    <path id="path7" fill="#ffffff" stroke="none" d="M 36 28 L 32 28 L 32 32 L 32 44 L 36 44 L 36 32 L 44 32 L 44 44 L 48 44 L 48 32 L 48 28 L 44 28 Z"/>
    <path id="path8" fill="#ffffff" stroke="none" d="M 212 28 L 208 28 L 208 32 L 208 44 L 212 44 L 212 32 L 220 32 L 220 44 L 224 44 L 224 32 L 224 28 L 220 28 Z"/>
</svg>
