<?xml version="1.0" encoding="UTF-8"?>
<!-- Generated by Pixelmator Pro 3.7.1 -->
<svg width="256" height="256" viewBox="0 0 256 256" xmlns="http://www.w3.org/2000/svg">
    <path id="Path" fill="#ffffff" stroke="none" d="M 244 70.563004 C 244 71.072998 243.850006 71.541 243.688004 72 L 208 72 L 208 48 L 242 48 C 243.104004 48 244 48.895996 244 50 Z M 244 98.563004 C 244 99.072998 243.850006 99.541 243.688004 100 L 208 100 L 208 76 L 243.688004 76 L 244 76 Z M 244 126.563004 C 244 127.072998 243.850006 127.541 243.688004 128 L 208 128 L 208 104 L 243.688004 104 L 244 104 Z M 244 154.563004 C 244 155.072998 243.850006 155.541 243.688004 156 L 208 156 L 208 132 L 243.688004 132 L 244 132 Z M 244 182.563004 C 244 183.072998 243.850006 183.541 243.688004 184 L 208 184 L 208 160 L 243.688004 160 L 244 160 Z M 244 210.563004 L 244 210.578003 C 243.994995 211.380997 243.276993 212 242.475006 212 L 208 212 L 208 188 L 243.688004 188 L 244 188 Z M 52 212 L 52 188 L 52 184 L 52 160 L 52 156 L 52 132 L 52 128 L 52 104 L 52 100 L 52 76 L 52 72 L 52 48 L 52 45 C 52 44.447998 52.447998 44 53 44 L 56 44 L 56 123 C 56 125.757004 58.242996 128 61 128 L 195 128 C 197.757004 128 200 125.757004 200 123 L 200 44 L 203 44 C 203.552002 44 204 44.447998 204 45 L 204 48 L 204 72 L 204 76 L 204 100 L 204 104 L 204 128 L 204 132 L 204 156 L 204 160 L 204 184 L 204 188 L 204 212 Z M 13.524994 212 C 12.723007 212 12.005005 211.380997 12 210.578003 L 12 210.563004 L 12 188 L 12.313004 188 L 48 188 L 48 212 Z M 12 160 L 12.313004 160 L 48 160 L 48 184 L 12.313004 184 C 12.149994 183.541 12 183.072998 12 182.563004 Z M 12 132 L 12.313004 132 L 48 132 L 48 156 L 12.313004 156 C 12.149994 155.541 12 155.072998 12 154.563004 Z M 12 104 L 12.313004 104 L 48 104 L 48 128 L 12.313004 128 C 12.149994 127.541 12 127.072998 12 126.563004 Z M 12 76 L 12.313004 76 L 48 76 L 48 100 L 12.313004 100 C 12.149994 99.541 12 99.072998 12 98.563004 Z M 12 50 C 12 48.895996 12.895996 48 14 48 L 48 48 L 48 72 L 12.313004 72 C 12.149994 71.541 12 71.072998 12 70.563004 Z M 196 44 L 196 123 C 196 123.552002 195.553009 124 195 124 L 61 124 C 60.447998 124 60 123.552002 60 123 L 60 44 Z M 248 50 C 248 46.690994 245.309006 44 242 44 L 207.897995 44 C 207.434998 41.721008 205.414001 40 203 40 L 200 40 L 196 40 L 60 40 L 56 40 L 53 40 C 50.585007 40 48.565002 41.721008 48.100998 44 L 14 44 C 10.690994 44 8 46.690994 8 50 L 8 70.563004 C 8 71.085007 8.061996 71.557999 8.156006 72 L 8 72 L 8 76 L 8 98.563004 C 8 99.085007 8.061996 99.557999 8.156006 100 L 8 100 L 8 104 L 8 126.563004 C 8 127.085007 8.061996 127.557999 8.156006 128 L 8 128 L 8 132 L 8 154.563004 C 8 155.085007 8.061996 155.559006 8.156006 156 L 8 156 L 8 160 L 8 182.563004 C 8 183.085007 8.061996 183.559006 8.156006 184 L 8 184 L 8 188 L 8 210.563004 C 8.018005 213.578003 10.496002 216 13.524994 216 L 48 216 L 52 216 L 204 216 L 208 216 L 242.475006 216 C 245.503998 216 247.981995 213.578003 248 210.602005 L 248 188 L 248 184 L 247.845001 184 C 247.938004 183.559006 248 183.085007 248 182.563004 L 248 160 L 248 156 L 247.845001 156 C 247.938004 155.559006 248 155.085007 248 154.563004 L 248 132 L 248 128 L 247.845001 128 C 247.938004 127.557999 248 127.085007 248 126.563004 L 248 104 L 248 100 L 247.845001 100 C 247.938004 99.557999 248 99.085007 248 98.563004 L 248 76 L 248 72 L 247.845001 72 C 247.938004 71.557999 248 71.085007 248 70.563004 Z"/>
    <path id="path1" fill="#ffffff" stroke="none" d="M 190 160 L 156 160 L 156 148 L 190 148 C 193.300003 148 196 150.699997 196 154 C 196 157.300003 193.300003 160 190 160 M 104 148 L 152 148 L 152 160 L 104 160 Z M 66 160 C 62.699997 160 60 157.300003 60 154 C 60 150.699997 62.699997 148 66 148 L 100 148 L 100 160 Z M 190 144 L 156 144 L 152 144 L 104 144 L 100 144 L 66 144 C 60.485992 144 56 148.485992 56 154 C 56 159.514008 60.485992 164 66 164 L 100 164 L 104 164 L 152 164 L 156 164 L 190 164 C 195.514008 164 200 159.514008 200 154 C 200 148.485992 195.514008 144 190 144"/>
    <path id="path2" fill="#ffffff" stroke="none" d="M 30 202 C 28.896999 202 28 201.102997 28 200 C 28 198.897003 28.896999 198 30 198 C 31.103001 198 32 198.897003 32 200 C 32 201.102997 31.103001 202 30 202 M 30 194 C 26.687 194 24 196.686996 24 200 C 24 203.313004 26.687 206 30 206 C 33.313 206 36 203.313004 36 200 C 36 196.686996 33.313 194 30 194"/>
    <path id="path3" fill="#ffffff" stroke="none" d="M 226 202 C 224.897003 202 224 201.102997 224 200 C 224 198.897003 224.897003 198 226 198 C 227.102997 198 228 198.897003 228 200 C 228 201.102997 227.102997 202 226 202 M 226 194 C 222.686996 194 220 196.686996 220 200 C 220 203.313004 222.686996 206 226 206 C 229.313004 206 232 203.313004 232 200 C 232 196.686996 229.313004 194 226 194"/>
</svg>
