<?xml version="1.0" encoding="UTF-8"?>
<!-- Generated by Pixelmator Pro 3.7.1 -->
<svg width="256" height="256" viewBox="0 0 256 256" xmlns="http://www.w3.org/2000/svg">
    <path id="Path" fill="#ffffff" stroke="none" d="M 212 224 L 204 224 L 204 44 L 180 20 L 52 20 L 48 20 L 44 20 L 44 14 C 44 12.895996 44.895996 12 46 12 L 187.171997 12 C 187.701996 12 188.210999 12.210999 188.585999 12.585999 L 211.414001 35.414001 C 211.789001 35.789001 212 36.298004 212 36.828995 Z M 52 224 L 52 24 L 180 24 L 200 44 L 200 224 Z M 212 242 C 212 243.104004 211.104004 244 210 244 L 46 244 C 44.895996 244 44 243.104004 44 242 L 44 228 L 200 228 L 204 228 L 212 228 Z M 44 76 L 48 76 L 48 224 L 44 224 Z M 44 24 L 48 24 L 48 72 L 44 72 Z M 214.242004 32.585007 L 191.414001 9.757004 C 190.281006 8.623993 188.774002 8 187.171997 8 L 46 8 C 42.690994 8 40 10.690994 40 14 L 40 242 C 40 245.309006 42.690994 248 46 248 L 210 248 C 213.309006 248 216 245.309006 216 242 L 216 36.828995 C 216 35.225998 215.376007 33.718994 214.242004 32.585007"/>
    <path id="path1" fill="#ffffff" stroke="none" d="M 176 164 L 164 164 L 164 176 L 152 176 L 152 164 L 140 164 L 140 152 L 152 152 L 152 140 L 164 140 L 164 152 L 176 152 Z M 156 188 L 84 188 C 81.791 188 80 186.209 80 184 C 80 181.791 81.791 180 84 180 L 156 180 C 158.209 180 160 181.791 160 184 C 160 186.209 158.209 188 156 188 M 140 168 L 148 168 L 148 176 L 121.889999 176 L 123.089005 174.561005 L 136 159.061996 L 136 164 L 136 168 Z M 148 144.654999 L 148 148 L 145.214005 148 Z M 80 124 L 104 124 L 104 76 C 104 71.582001 107.582001 68 112 68 L 128 68 C 132.417999 68 136 71.582001 136 76 L 136 124 L 160 124 L 120.015999 172 Z M 168 148 L 168 140 L 168 136 L 164 136 L 155.209991 136 L 163.072998 126.559998 L 168.537994 120 L 160 120 L 140 120 L 140 76 C 140 69.382996 134.617004 64 128 64 L 112 64 C 105.383003 64 100 69.382996 100 76 L 100 120 L 80 120 L 71.458 120 L 76.928001 126.561996 L 116.943001 174.561996 L 118.143005 176 L 84 176 C 79.588997 176 76 179.588989 76 184 C 76 188.410995 79.588997 192 84 192 L 156 192 C 160.410995 192 164 188.410995 164 184 C 164 182.544006 163.608994 181.178009 162.927002 180 L 164 180 L 168 180 L 168 176 L 168 168 L 176 168 L 180 168 L 180 164 L 180 152 L 180 148 L 176 148 Z"/>
</svg>
