<?xml version="1.0" encoding="UTF-8"?>
<!-- Generated by Pixelmator Pro 3.7.1 -->
<svg width="256" height="256" viewBox="0 0 256 256" xmlns="http://www.w3.org/2000/svg">
    <path id="Path" fill="#ffffff" stroke="none" d="M 242.734406 62.7612 L 229.8004 172.000198 L 222.655396 172.000198 L 235.061401 67.212204 L 235.478394 63.688202 L 235.895401 60.165207 L 232.430405 59.755203 L 241.180405 60.790207 C 242.154404 60.906204 242.849396 61.788193 242.734406 62.7612 M 228.000397 216.000198 L 225.253403 216.000198 C 225.253403 217.104202 224.357407 218.000198 223.253403 218.000198 L 215.253403 218.000198 C 214.148407 218.000198 213.253403 217.104202 213.253403 216.000198 L 29.253397 216.000198 C 29.253397 217.104202 28.358393 218.000198 27.253397 218.000198 L 19.253397 218.000198 C 18.149393 218.000198 17.253397 217.104202 17.253397 216.000198 L 14.000406 216.000198 L 20.000406 176.000198 L 232.000397 176.000198 Z M 55.361401 45.936203 L 231.538406 66.795197 L 219.082397 172.000198 L 40.436398 172.000198 Z M 38.369396 38.565201 C 38.476406 37.663208 39.242397 37.000198 40.129406 37.000198 C 40.198406 37.000198 40.269405 37.004196 40.339397 37.012207 L 232.372406 59.748199 L 231.955399 63.271194 L 189.672394 58.265198 L 190.089401 54.741196 L 186.566406 54.324203 L 186.149399 57.848206 L 55.778408 42.413208 L 56.1954 38.889206 L 52.672405 38.472198 L 36.8634 172.000198 L 22.571405 172.000198 Z M 245.506393 58.978195 C 244.552399 57.766205 243.182404 57.000198 241.651398 56.818207 L 40.810406 33.040207 C 40.584408 33.013199 40.355404 33.000198 40.129406 33.000198 C 37.205395 33.000198 34.741405 35.190201 34.397396 38.0952 L 18.544397 172.000198 L 16.555399 172.000198 L 16.044397 175.406189 L 10.044397 215.406204 L 9.355402 220.000198 L 14.000406 220.000198 L 14.784403 220.000198 C 15.884394 221.226196 17.480402 222.000198 19.253397 222.000198 L 27.253397 222.000198 C 29.026407 222.000198 30.6224 221.226196 31.721399 220.000198 L 210.7854 220.000198 C 211.883408 221.226196 213.480408 222.000198 215.253403 222.000198 L 223.253403 222.000198 C 225.026398 222.000198 226.622406 221.226196 227.721405 220.000198 L 228.000397 220.000198 L 231.620407 220.000198 L 231.980408 216.398193 L 235.980392 176.398193 L 236.420395 172.000198 L 233.829407 172.000198 L 246.706406 63.231201 C 246.887405 61.699203 246.462402 60.189194 245.506393 58.978195"/>
</svg>
