<?xml version="1.0" encoding="UTF-8"?>
<!-- Generated by Pixelmator Pro 3.7.1 -->
<svg width="256" height="256" viewBox="0 0 256 256" xmlns="http://www.w3.org/2000/svg">
    <path id="Path" fill="#ffffff" stroke="none" d="M 220 224 C 220 230.626999 214.626999 236 208 236 L 204 236 L 204 199.303009 C 208.656998 197.653 212 193.222992 212 188 L 212 52 C 212 46.776993 208.656998 42.347 204 40.697006 L 204 20 L 208 20 C 214.626999 20 220 25.373001 220 32 Z M 132 244 C 97.169998 244 67.554993 242.330002 56.570007 240 L 207.429993 240 C 196.445007 242.330002 166.830002 244 132 244 M 56 236 C 49.373001 236 44 230.626999 44 224 L 44 32 C 44 25.373001 49.373001 20 56 20 L 60 20 L 60 40.697006 C 55.341995 42.347 52 46.776993 52 52 L 52 188 C 52 193.222992 55.341995 197.653 60 199.303009 L 60 236 Z M 179.791992 116.442993 L 179.791992 96 L 184.565002 96 C 188.665009 96 192 99.588989 192 104 L 192 108 C 192 112.411011 188.665009 116 184.565002 116 L 184.384995 116 L 184.205002 116.018005 Z M 152 116 L 152 119.123001 L 148.175003 119.492004 C 144.677002 119.82901 141.123001 120 137.610001 120 L 125.092003 120 C 122.119003 120 119.108002 119.876999 116.142998 119.63501 L 108 118.971008 L 108 116 Z M 104 112 L 104 118.644989 L 80 116.686996 L 80 96 L 176 96 L 176 116.80899 L 156 118.737 L 156 112 Z M 64 108 L 64 104 C 64 99.588989 67.335007 96 71.434998 96 L 76.197006 96 L 76.197006 116.376007 L 71.740005 116.013 L 71.587006 116 L 71.434998 116 C 67.335007 116 64 112.411011 64 108 M 71.423996 120 L 115.818001 123.622009 C 118.890999 123.873001 122.011002 124 125.092003 124 L 137.610001 124 C 141.25 124 144.93399 123.822998 148.55899 123.472992 L 184.576996 120 C 190.876999 119.992996 196 114.613007 196 108 L 196 112 C 196 118.600006 190.899994 124 184.666992 124 L 148.571991 127.473999 C 144.93399 127.824997 141.281006 128 137.626999 128 L 125.086998 128 C 121.992996 128 118.900002 127.873993 115.815002 127.623001 L 71.332993 124 C 65.100006 124 60 118.600006 60 112 L 60 108 C 60 114.613007 65.123993 119.994003 71.423996 120 M 200 236 L 64 236 L 64 200 L 200 200 Z M 64 196 C 59.589005 196 56 192.410995 56 188 L 56 112 C 56 120.761993 62.783997 127.901001 71.158005 127.998993 L 115.490997 131.609009 C 118.669998 131.869003 121.899002 132 125.086998 132 L 137.626999 132 C 141.393997 132 145.205002 131.817001 148.955002 131.455994 L 184.873993 127.998993 C 193.233002 127.882004 200 120.75 200 112 L 200 108 C 200 99.178009 193.121002 92 184.666992 92 L 184.565002 92 L 71.434998 92 L 71.332993 92 C 62.878006 92 56 99.178009 56 108 L 56 52 C 56 47.589005 59.589005 44 64 44 L 200 44 C 204.410995 44 208 47.589005 208 52 L 208 188 C 208 192.410995 204.410995 196 200 196 Z M 132 12 C 166.830002 12 196.445007 13.669998 207.429993 16 L 202 16 L 200 16 L 198 16 L 198 20 L 200 20 L 200 40 L 64 40 L 64 20 L 66 20 L 66 16 L 64 16 L 62 16 L 56.570007 16 C 67.554993 13.669998 97.169998 12 132 12 M 208 12 L 207.839996 12 C 196.005997 9.604004 165.68399 8 132 8 C 98.316002 8 67.994995 9.604004 56.160004 12 L 56 12 C 44.972 12 36 20.972 36 32 L 36 224 C 36 235.028 44.972 244 56 244 L 56.160004 244 C 67.994995 246.395996 98.316002 248 132 248 C 165.68399 248 196.005997 246.395996 207.839996 244 L 208 244 C 219.028 244 228 235.028 228 224 L 228 32 C 228 20.972 219.028 12 208 12"/>
    <path id="path1" fill="#ffffff" stroke="none" d="M 162 16 L 158 16 L 158 20 L 162 20 Z"/>
    <path id="path2" fill="#ffffff" stroke="none" d="M 154 16 L 150 16 L 150 20 L 154 20 Z"/>
    <path id="path3" fill="#ffffff" stroke="none" d="M 146 16 L 142 16 L 142 20 L 146 20 Z"/>
    <path id="path4" fill="#ffffff" stroke="none" d="M 138 16 L 134 16 L 134 20 L 138 20 Z"/>
    <path id="path5" fill="#ffffff" stroke="none" d="M 194 16 L 190 16 L 190 20 L 194 20 Z"/>
    <path id="path6" fill="#ffffff" stroke="none" d="M 170 16 L 166 16 L 166 20 L 170 20 Z"/>
    <path id="path7" fill="#ffffff" stroke="none" d="M 130 16 L 126 16 L 126 20 L 130 20 Z"/>
    <path id="path8" fill="#ffffff" stroke="none" d="M 186 16 L 182 16 L 182 20 L 186 20 Z"/>
    <path id="path9" fill="#ffffff" stroke="none" d="M 178 16 L 174 16 L 174 20 L 178 20 Z"/>
    <path id="path10" fill="#ffffff" stroke="none" d="M 82 16 L 78 16 L 78 20 L 82 20 Z"/>
    <path id="path11" fill="#ffffff" stroke="none" d="M 74 16 L 70 16 L 70 20 L 74 20 Z"/>
    <path id="path12" fill="#ffffff" stroke="none" d="M 90 16 L 86 16 L 86 20 L 90 20 Z"/>
    <path id="path13" fill="#ffffff" stroke="none" d="M 98 16 L 94 16 L 94 20 L 98 20 Z"/>
    <path id="path14" fill="#ffffff" stroke="none" d="M 114 16 L 110 16 L 110 20 L 114 20 Z"/>
    <path id="path15" fill="#ffffff" stroke="none" d="M 106 16 L 102 16 L 102 20 L 106 20 Z"/>
    <path id="path16" fill="#ffffff" stroke="none" d="M 122 16 L 118 16 L 118 20 L 122 20 Z"/>
    <path id="path17" fill="#ffffff" stroke="none" d="M 152 184.571289 C 152 186.457306 150.457001 188.000305 148.570999 188.000305 L 107.429001 188.000305 C 105.542999 188.000305 104 186.457306 104 184.571289 L 104 167.428299 C 104 165.543304 105.542999 164.000305 107.429001 164.000305 L 148.570999 164.000305 C 150.457001 164.000305 152 165.543304 152 167.428299 Z M 148.570999 160.000305 L 107.429001 160.000305 C 103.333 160.000305 100 163.332306 100 167.428299 L 100 184.571289 C 100 188.668304 103.333 192.000305 107.429001 192.000305 L 148.570999 192.000305 C 152.667999 192.000305 156 188.668304 156 184.571289 L 156 167.428299 C 156 163.332306 152.667999 160.000305 148.570999 160.000305"/>
    <path id="path18" fill="#ffffff" stroke="none" d="M 188 68 C 183.589005 68 180 64.410995 180 60 C 180 55.589005 183.589005 52 188 52 C 192.410995 52 196 55.589005 196 60 C 196 64.410995 192.410995 68 188 68 M 188 48 C 181.373001 48 176 53.373001 176 60 C 176 66.626999 181.373001 72 188 72 C 194.626999 72 200 66.626999 200 60 C 200 53.373001 194.626999 48 188 48"/>
    <path id="path19" fill="#ffffff" stroke="none" d="M 177.957993 232 L 186.041992 232 C 187.119003 232 188 231.119003 188 230.041992 L 188 229.958008 C 188 228.880997 187.119003 228 186.041992 228 L 177.957993 228 C 176.880997 228 176 228.880997 176 229.958008 L 176 230.041992 C 176 231.119003 176.880997 232 177.957993 232"/>
    <path id="path20" fill="#ffffff" stroke="none" d="M 84 172 L 64 172 L 64 168 C 64 165.800003 65.800003 164 68 164 L 80 164 C 82.199997 164 84 165.800003 84 168 Z M 84 184 C 84 186.199997 82.199997 188 80 188 L 68 188 C 65.800003 188 64 186.199997 64 184 L 64 176 L 84 176 Z M 80 160 L 68 160 C 63.589001 160 60 163.588989 60 168 L 60 184 C 60 188.410995 63.589001 192 68 192 L 80 192 C 84.411003 192 88 188.410995 88 184 L 88 168 C 88 163.588989 84.411003 160 80 160"/>
    <path id="path21" fill="#ffffff" stroke="none" d="M 192 172 L 192 176 L 192 184 C 192 186.199997 190.199997 188 188 188 L 176 188 C 173.800003 188 172 186.199997 172 184 L 172 176 L 172 172 L 172 168 C 172 165.800003 173.800003 164 176 164 L 188 164 C 190.199997 164 192 165.800003 192 168 Z M 188 160 L 176 160 C 171.589005 160 168 163.588989 168 168 L 168 184 C 168 188.410995 171.589005 192 176 192 L 188 192 C 192.410995 192 196 188.410995 196 184 L 196 168 C 196 163.588989 192.410995 160 188 160"/>
</svg>
