<?xml version="1.0" encoding="UTF-8"?>
<!-- Generated by Pixelmator Pro 3.7.1 -->
<svg width="256" height="256" viewBox="0 0 256 256" xmlns="http://www.w3.org/2000/svg">
    <path id="Path" fill="#ffffff" stroke="none" d="M 232 160 C 232 164.411011 228.410995 168 224 168 L 217.656998 168 L 222.828003 162.828003 L 224 161.656998 L 224 160 L 232 160 L 232 84 L 235.192993 77.613998 C 235.298996 77.753998 235.389999 77.904999 235.477005 78.05899 C 235.507004 78.110992 235.535995 78.164001 235.563004 78.218002 C 235.630997 78.350006 235.688995 78.485001 235.742004 78.623993 C 235.781006 78.731995 235.813995 78.843002 235.845001 78.95401 C 235.873993 79.061005 235.906006 79.165009 235.927002 79.274002 C 235.970993 79.511002 236 79.751007 236 80 L 236 156 C 233.791 156 232 157.791 232 160 M 236 164 C 236 165.242004 235.811996 166.44101 235.460999 167.567993 C 234.992996 169.070999 234.238007 170.447998 233.259995 171.632996 C 232.770996 172.225998 232.225998 172.770996 231.632996 173.26001 C 230.447998 174.238007 229.070999 174.992996 227.567993 175.460999 C 226.440994 175.811996 225.242004 176 224 176 L 128 176 L 32 176 C 30.757004 176 29.559006 175.811996 28.432007 175.460999 C 26.929001 174.992996 25.552002 174.238007 24.367004 173.26001 C 23.774002 172.770996 23.229004 172.225998 22.740005 171.632996 C 21.761993 170.447998 21.007004 169.070999 20.539993 167.567993 C 20.188995 166.44101 20 165.242004 20 164 L 20 160 C 20 166.626999 25.373001 172 32 172 L 42.343002 172 L 44 172 L 72 172 L 74.472 172 L 128 172 L 181.528 172 L 184 172 L 212 172 L 213.656998 172 L 224 172 C 230.626999 172 236 166.626999 236 160 Z M 84 84 L 28 84 C 28 83.378998 27.854996 82.766998 27.578003 82.210999 L 24.472 76 L 84 76 Z M 168 76 L 168 84 L 168 152 L 168 156 L 88 156 L 88 152 L 88 84 L 88 76 Z M 220 104 L 180 104 L 176 104 L 176 108 L 176 144 L 176 156 L 173.656998 156 L 172 154.343002 L 172 88 L 228 88 L 228 156 L 224 156 L 224 144 L 224 108 L 224 104 Z M 180 156 L 180 144 L 180 108 L 220 108 L 220 144 L 220 156 Z M 180 160 L 220 160 L 212 168 L 184 168 Z M 79.578003 161.789001 L 80 160.944 L 80 160 L 84 160 L 88 160 L 168 160 L 172 160 L 176 160 L 176 160.944 L 176.421997 161.789001 L 179.528 168 L 128 168 L 76.472 168 Z M 36 160 L 76 160 L 72 168 L 44 168 Z M 76 156 L 36 156 L 36 144 L 36 108 L 76 108 L 76 144 Z M 84 154.343002 L 82.343002 156 L 80 156 L 80 144 L 80 108 L 80 104 L 76 104 L 36 104 L 32 104 L 32 108 L 32 144 L 32 156 L 28 156 L 28 88 L 84 88 Z M 20 80 C 20 79.751007 20.029999 79.511002 20.072998 79.274002 C 20.093994 79.165009 20.126007 79.059998 20.156006 78.95401 C 20.186005 78.84201 20.218994 78.731995 20.257996 78.625 C 20.311005 78.485001 20.369003 78.350006 20.436996 78.218002 C 20.462997 78.164001 20.492996 78.110992 20.522995 78.05899 C 20.610001 77.904999 20.701996 77.753998 20.807007 77.613998 L 24 84 L 24 160 L 32 160 L 32 161.656998 L 33.171005 162.828003 L 38.343002 168 L 32 168 C 27.589005 168 24 164.411011 24 160 C 24 157.791 22.209 156 20 156 Z M 231.528 76 L 228.421997 82.210999 C 228.145004 82.766998 228 83.378998 228 84 L 172 84 L 172 76 Z M 239.906998 78.845001 C 239.895996 78.770996 239.886002 78.699005 239.873001 78.625 C 239.807007 78.240997 239.714996 77.865997 239.595993 77.502991 C 239.589996 77.485992 239.583008 77.470001 239.576996 77.453003 C 238.509995 74.287994 235.520004 72 232 72 L 168 72 L 88 72 L 24 72 C 20.479004 72 17.488998 74.289001 16.421997 77.45401 C 16.417007 77.470001 16.410004 77.485992 16.404999 77.501999 C 16.285004 77.865997 16.194 78.240997 16.126999 78.625 C 16.113998 78.699005 16.104004 78.770996 16.093002 78.845001 C 16.037994 79.222992 16 79.606995 16 80 L 16 160 L 16 164 C 16 172.821991 23.177994 180 32 180 L 128 180 L 224 180 C 232.822006 180 240 172.821991 240 164 L 240 160 L 240 80 C 240 79.606995 239.962006 79.222992 239.906998 78.845001"/>
    <path id="path1" fill="#ffffff" stroke="none" d="M 96 88 L 160 88 L 160 92 L 96 92 Z M 93.836998 96 L 162.162994 96 C 163.177994 96 164 95.177994 164 94.162994 L 164 85.837006 C 164 84.822006 163.177994 84 162.162994 84 L 93.836998 84 C 92.821999 84 92 84.822006 92 85.837006 L 92 94.162994 C 92 95.177994 92.821999 96 93.836998 96"/>
    <path id="path2" fill="#ffffff" stroke="none" d="M 136 122 L 136 118 C 136 116.895996 136.895996 116 138 116 C 139.104004 116 140 116.895996 140 118 L 140 122 C 140 123.104004 139.104004 124 138 124 C 136.895996 124 136 123.104004 136 122 M 124 122 L 124 118 C 124 116.895996 124.895996 116 126 116 C 127.104004 116 128 116.895996 128 118 L 128 122 C 128 123.104004 127.104004 124 126 124 C 124.895996 124 124 123.104004 124 122 M 112 122 L 112 118 C 112 116.895996 112.895996 116 114 116 C 115.104004 116 116 116.895996 116 118 L 116 122 C 116 123.104004 115.104004 124 114 124 C 112.895996 124 112 123.104004 112 122 M 100 122 L 100 118 C 100 116.895996 100.895996 116 102 116 C 103.104004 116 104 116.895996 104 118 L 104 122 C 104 123.104004 103.104004 124 102 124 C 100.895996 124 100 123.104004 100 122 M 96 122 C 96 125.309006 98.691002 128 102 128 C 105.308998 128 108 125.309006 108 122 C 108 125.309006 110.691002 128 114 128 C 117.308998 128 120 125.309006 120 122 C 120 125.309006 122.691002 128 126 128 C 129.309006 128 132 125.309006 132 122 C 132 125.309006 134.690994 128 138 128 C 141.309006 128 144 125.309006 144 122 L 144 118 C 144 114.690994 141.309006 112 138 112 C 134.690994 112 132 114.690994 132 118 C 132 114.690994 129.309006 112 126 112 C 122.691002 112 120 114.690994 120 118 C 120 114.690994 117.308998 112 114 112 C 110.691002 112 108 114.690994 108 118 C 108 114.690994 105.308998 112 102 112 C 98.691002 112 96 114.690994 96 118 L 96 112 L 102 112 L 114 112 L 126 112 L 138 112 L 148 112 L 148 144 L 142.917999 144 C 143.602005 142.820999 144 141.458008 144 140 C 144 135.588989 140.410995 132 136 132 C 131.589005 132 128 135.588989 128 140 C 128 141.458008 128.397995 142.820999 129.082001 144 L 126.917 144 C 127.601997 142.820999 128 141.458008 128 140 C 128 135.588989 124.411003 132 120 132 C 115.589005 132 112 135.588989 112 140 C 112 141.458008 112.398003 142.820999 113.083 144 L 111.650002 144 C 111.873001 143.373001 112 142.701996 112 142 L 112 140 L 112 138 C 112 134.69101 109.308998 132 106 132 C 102.691002 132 100 134.69101 100 138 L 100 142 C 100 142.701996 100.126999 143.373001 100.349998 144 L 96 144 Z M 160 144 L 152 144 L 152 112 L 160 112 Z M 132 140 C 132 137.791 133.791 136 136 136 C 138.209 136 140 137.791 140 140 C 140 142.209 138.209 144 136 144 C 133.791 144 132 142.209 132 140 M 116 140 C 116 137.791 117.791 136 120 136 C 122.209 136 124 137.791 124 140 C 124 142.209 122.209 144 120 144 C 117.791 144 116 142.209 116 140 M 104 142 L 104 138 C 104 136.895996 104.895996 136 106 136 C 107.104004 136 108 136.895996 108 138 L 108 142 C 108 143.104004 107.104004 144 106 144 C 104.895996 144 104 143.104004 104 142 M 95.354004 148 L 160.645996 148 C 162.498001 148 164 146.498001 164 144.645996 L 164 111.354004 C 164 109.501007 162.498001 108 160.645996 108 L 95.354004 108 C 93.501999 108 92 109.501007 92 111.354004 L 92 144.645996 C 92 146.498001 93.501999 148 95.354004 148"/>
    <path id="path3" fill="#ffffff" stroke="none" d="M 56 132 C 51.582001 132 48 128.417999 48 124 C 48 119.582001 51.582001 116 56 116 C 60.417999 116 64 119.582001 64 124 C 64 128.417999 60.417999 132 56 132 M 56 112 C 49.382999 112 44 117.382996 44 124 C 44 130.617004 49.382999 136 56 136 C 62.617001 136 68 130.617004 68 124 C 68 117.382996 62.617001 112 56 112"/>
    <path id="path4" fill="#ffffff" stroke="none" d="M 200 132 C 195.582001 132 192 128.417999 192 124 C 192 119.582001 195.582001 116 200 116 C 204.417999 116 208 119.582001 208 124 C 208 128.417999 204.417999 132 200 132 M 200 112 C 193.382996 112 188 117.382996 188 124 C 188 130.617004 193.382996 136 200 136 C 206.617004 136 212 130.617004 212 124 C 212 117.382996 206.617004 112 200 112"/>
</svg>
