<?xml version="1.0" encoding="UTF-8"?>
<!-- Generated by Pixelmator Pro 3.7.1 -->
<svg width="256" height="256" viewBox="0 0 256 256" xmlns="http://www.w3.org/2000/svg">
    <path id="Path" fill="#ffffff" stroke="none" d="M 200 53.161102 L 200 180.758102 L 200 202.839096 C 200 225.571106 181.337006 244.000107 158.315002 244.000107 L 128 244.000107 L 128 240.000107 L 130 240.000107 C 131.104004 240.000107 132 239.104095 132 238.000107 C 132 236.895096 131.104004 236.000107 130 236.000107 L 106 236.000107 C 104.896004 236.000107 104 236.895096 104 238.000107 C 104 239.104095 104.896004 240.000107 106 240.000107 L 116 240.000107 L 116 244.000107 L 97.683998 244.000107 L 63.203003 244.000107 C 59.225006 244.000107 56 240.815109 56 236.8871 L 56 202.839096 L 56 180.758102 L 56 75.242096 L 56 53.161102 L 56 19.112106 C 56 15.184097 59.225006 12.000107 63.203003 12.000107 L 80 12.000107 L 80 16.000107 L 78 16.000107 C 76.896004 16.000107 76 16.895096 76 18.000107 C 76 19.104095 76.896004 20.000107 78 20.000107 L 102 20.000107 C 103.103996 20.000107 104 19.104095 104 18.000107 C 104 16.895096 103.103996 16.000107 102 16.000107 L 92 16.000107 L 92 12.000107 L 97.683998 12.000107 L 158.315002 12.000107 L 192.796997 12.000107 C 196.774994 12.000107 200 15.184097 200 19.112106 Z M 120.796997 244.000107 L 120 244.000107 L 120 240.000107 L 124 240.000107 L 124 244.000107 Z M 88 16.000107 L 84 16.000107 L 84 12.000107 L 88 12.000107 Z M 192.796997 8.000107 L 158.315002 8.000107 L 97.683998 8.000107 L 63.203003 8.000107 C 57.026001 8.000107 52 12.985107 52 19.112106 L 52 53.161102 L 52 75.242096 L 52 180.758102 L 52 202.839096 L 52 236.8871 C 52 243.015106 57.026001 248.000107 63.203003 248.000107 L 97.683998 248.000107 L 120.796997 248.000107 L 158.315002 248.000107 C 183.505997 248.000107 204 227.740097 204 202.839096 L 204 180.758102 L 204 53.161102 L 204 19.112106 C 204 12.985107 198.975006 8.000107 192.796997 8.000107"/>
    <path id="path1" fill="#ffffff" stroke="none" d="M 72 32 L 184 32 L 184 97.919998 C 184 107.889999 175.700989 116 165.5 116 L 124.431999 116 L 72 116 Z M 71.569 120 L 124.431999 120 L 165.5 120 C 177.927002 120 188 110.113998 188 97.919998 L 188 31.679993 C 188 29.647003 186.320999 28 184.25 28 L 71.75 28 C 69.679001 28 68 29.647003 68 31.679993 L 68 116.498001 C 68 118.432007 69.598 120 71.569 120"/>
    <path id="path2" fill="#ffffff" stroke="none" d="M 160 104 L 96 104 L 96 44 L 160 44 Z M 164 40 L 92 40 L 92 108 L 164 108 Z"/>
    <path id="path3" fill="#ffffff" stroke="none" d="M 116.069298 205.063507 L 104.500298 211.580505 C 104.0093 211.856506 103.464302 211.998505 102.911301 211.998505 C 102.668297 211.998505 102.422302 211.970505 102.179298 211.915497 C 101.390297 211.732498 100.742302 211.273499 100.354301 210.619507 C 99.596298 209.334503 100.0923 207.716492 101.4813 206.931503 L 113.052299 200.414505 C 113.543297 200.141495 114.101303 200.000504 114.656303 200.000504 C 114.900299 200.000504 115.142303 200.027496 115.378304 200.082504 C 116.167297 200.266495 116.8153 200.727509 117.198303 201.379501 C 117.961304 202.661499 117.465302 204.280502 116.069298 205.063507 M 116.290298 196.1875 C 115.756302 196.0625 115.207298 196.000504 114.656303 196.000504 C 113.415298 196.000504 112.188301 196.317505 111.1073 196.918503 L 99.518303 203.446503 C 97.867302 204.37851 96.699303 205.867493 96.223297 207.639496 C 95.766304 209.346497 96.0093 211.125504 96.908302 212.650497 C 97.865303 214.261505 99.414299 215.379501 101.277298 215.811493 C 101.814301 215.935501 102.362297 215.998505 102.911301 215.998505 C 104.151299 215.998505 105.379303 215.675507 106.462303 215.066498 L 118.032303 208.547501 C 119.682297 207.623505 120.8573 206.1315 121.333298 204.352509 C 121.791298 202.641495 121.543297 200.859497 120.6353 199.334503 C 119.702301 197.748505 118.155296 196.625504 116.290298 196.1875"/>
    <path id="path4" fill="#ffffff" stroke="none" d="M 142.5186 205.065399 L 130.947601 211.583405 C 130.458603 211.858398 129.911606 212.000397 129.360596 212.000397 C 129.115601 212.000397 128.869598 211.972397 128.626602 211.917404 C 127.845596 211.734406 127.180603 211.260406 126.801598 210.617401 C 126.039597 209.336395 126.534599 207.7164 127.930603 206.933395 L 139.499603 200.416397 C 139.983597 200.141403 140.540604 200.000397 141.097595 200.000397 C 141.341599 200.000397 141.584595 200.027405 141.823593 200.082397 C 142.614594 200.266403 143.261597 200.725403 143.645599 201.379395 C 144.403595 202.663391 143.9086 204.280396 142.5186 205.065399 M 147.776596 204.354401 C 148.233597 202.648407 147.990601 200.8694 147.0896 199.345398 C 146.153595 197.750397 144.604599 196.624405 142.732605 196.186401 C 142.193604 196.062408 141.646606 196.000397 141.097595 196.000397 C 139.842606 196.000397 138.607605 196.324402 137.526596 196.936401 L 125.967598 203.449402 C 124.317596 204.374405 123.1436 205.865402 122.666603 207.644409 C 122.208603 209.355408 122.456596 211.137405 123.364601 212.663391 C 124.285599 214.227402 125.874603 215.381409 127.716599 215.811401 C 128.261597 215.937408 128.810593 216.000397 129.360596 216.000397 C 130.604599 216.000397 131.833603 215.676392 132.915604 215.064392 L 144.481598 208.5504 C 146.133606 207.617401 147.301605 206.127396 147.776596 204.354401"/>
    <path id="path5" fill="#ffffff" stroke="none" d="M 147.417007 219.278305 C 146.914001 218.450302 145.813004 218.161301 144.955994 218.631302 L 144.888992 218.668304 C 144.031998 219.138306 143.744995 220.191299 144.246994 221.018295 L 155.235992 239.128296 C 155.738998 239.955292 156.841003 240.2453 157.697006 239.774292 L 157.764999 239.737305 C 158.621002 239.266296 158.908005 238.215302 158.406006 237.386292 Z"/>
    <path id="path6" fill="#ffffff" stroke="none" d="M 154.748001 215.674805 C 154.244995 214.846802 153.143005 214.556793 152.285004 215.027802 L 152.216995 215.064804 C 151.360001 215.534805 151.072006 216.587799 151.576004 217.415802 L 162.574997 235.528809 C 163.078003 236.357803 164.181 236.647797 165.037994 236.176804 L 165.104996 236.139801 C 165.962997 235.668793 166.25 234.615799 165.746994 233.787796 Z"/>
    <path id="path7" fill="#ffffff" stroke="none" d="M 162.082993 212.074203 C 161.580002 211.246201 160.477997 210.956207 159.619995 211.4272 L 159.552994 211.464203 C 158.695007 211.934204 158.408005 212.987198 158.910995 213.815201 L 169.910004 231.928192 C 170.412994 232.757202 171.516006 233.047195 172.373001 232.576202 L 172.440002 232.5392 C 173.298004 232.068207 173.585999 231.015198 173.082001 230.187195 Z"/>
    <path id="path8" fill="#ffffff" stroke="none" d="M 169.417999 208.473602 C 168.914993 207.645599 167.813004 207.355591 166.955002 207.826599 L 166.888 207.863602 C 166.029999 208.333603 165.742004 209.386597 166.246002 210.2146 L 177.244995 228.327606 C 177.748001 229.156601 178.850998 229.446594 179.707993 228.975601 L 179.774994 228.938599 C 180.632996 228.467606 180.919998 227.414597 180.416992 226.586609 Z"/>
    <path id="path9" fill="#ffffff" stroke="none" d="M 176.752899 204.873001 C 176.249893 204.044998 175.147903 203.755005 174.289902 204.225998 L 174.2229 204.263 C 173.364899 204.733002 173.077896 205.785995 173.580902 206.613998 L 184.579895 224.727005 C 185.082901 225.556 186.185898 225.845993 187.042892 225.375 L 187.109894 225.337997 C 187.967896 224.867004 188.254898 223.813995 187.751892 222.985992 Z"/>
    <path id="path10" fill="#ffffff" stroke="none" d="M 78 64.0728 C 76.896004 64.0728 76 64.968796 76 66.0728 C 76 67.177795 76.896004 68.0728 78 68.0728 C 79.103996 68.0728 80 67.177795 80 66.0728 C 80 64.968796 79.103996 64.0728 78 64.0728"/>
    <path id="path11" fill="#ffffff" stroke="none" d="M 90.235397 177 C 91.337402 175.628998 92.000397 173.891998 92.000397 172 C 92.000397 170.108002 91.337402 168.371002 90.235397 167 L 98.000397 167 C 99.100403 167 100.000397 167.899994 100.000397 169 L 100.000397 175 C 100.000397 176.100006 99.100403 177 98.000397 177 Z M 86.000397 188 L 82.000397 188 C 80.350403 188 79.000397 186.649994 79.000397 185 L 79.000397 178.235001 C 80.371399 179.337006 82.108398 180 84.000397 180 C 85.891403 180 87.629402 179.337006 89.000397 178.235001 L 89.000397 185 C 89.000397 186.649994 87.650398 188 86.000397 188 M 70.000397 177 C 68.900398 177 68.000397 176.100006 68.000397 175 L 68.000397 169 C 68.000397 167.899994 68.900398 167 70.000397 167 L 77.764397 167 C 76.663399 168.371002 76.000397 170.108002 76.000397 172 C 76.000397 173.891998 76.663399 175.628998 77.764397 177 Z M 88.000397 172 C 88.000397 174.209 86.209396 176 84.000397 176 C 81.791397 176 80.000397 174.209 80.000397 172 C 80.000397 169.791 81.791397 168 84.000397 168 C 86.209396 168 88.000397 169.791 88.000397 172 M 82.000397 156 L 86.000397 156 C 87.650398 156 89.000397 157.350006 89.000397 159 L 89.000397 165.764999 C 87.629402 164.662994 85.891403 164 84.000397 164 C 82.108398 164 80.371399 164.662994 79.000397 165.764999 L 79.000397 159 C 79.000397 157.350006 80.350403 156 82.000397 156 M 104.000397 175 L 104.000397 169 C 104.000397 165.69101 101.308403 163 98.000397 163 L 93.000397 163 L 93.000397 159 C 93.000397 155.140991 89.860397 152 86.000397 152 L 82.000397 152 C 78.140396 152 75.000397 155.140991 75.000397 159 L 75.000397 163 L 70.000397 163 C 66.691399 163 64.000397 165.69101 64.000397 169 L 64.000397 175 C 64.000397 178.30899 66.691399 181 70.000397 181 L 75.000397 181 L 75.000397 185 C 75.000397 188.859009 78.140396 192 82.000397 192 L 86.000397 192 C 89.860397 192 93.000397 188.859009 93.000397 185 L 93.000397 181 L 98.000397 181 C 101.308403 181 104.000397 178.30899 104.000397 175"/>
    <path id="path12" fill="#ffffff" stroke="none" d="M 189.904297 159.310501 C 189.891296 159.400497 189.878296 159.489502 189.863297 159.578491 C 189.806305 159.938507 189.731293 160.290497 189.636307 160.636505 C 189.623306 160.691498 189.610306 160.747498 189.594299 160.800507 C 189.472305 161.22049 189.324295 161.629501 189.150299 162.025497 C 189.145294 162.035492 189.140305 162.042511 189.136307 162.05249 C 188.979294 162.408508 188.798294 162.749496 188.601303 163.081497 C 188.5793 163.119507 188.556305 163.155502 188.534302 163.192505 C 188.068298 163.956497 187.505295 164.65451 186.8573 165.265503 C 186.844299 165.277496 186.832306 165.288498 186.819305 165.2995 C 185.935303 166.124496 184.908295 166.794495 183.770294 167.258499 C 183.769302 167.258499 183.769302 167.259491 183.768295 167.259491 C 183.188293 167.49649 182.583298 167.681503 181.9543 167.806503 C 181.901306 167.816498 181.847305 167.820496 181.795303 167.830505 C 181.531296 167.877502 181.266296 167.922501 180.997299 167.949493 C 180.669296 167.982498 180.337296 167.999496 180.000305 167.999496 C 174.477295 167.999496 170.000305 163.522491 170.000305 157.999496 C 170.000305 157.581497 170.034302 157.170502 170.084305 156.765503 C 170.098297 156.649506 170.118301 156.536499 170.136307 156.420502 C 170.185303 156.114502 170.248306 155.8125 170.324295 155.515503 C 170.349304 155.41449 170.372299 155.314499 170.401306 155.214508 C 170.628296 154.432495 170.948303 153.691498 171.348297 153.000504 C 171.386307 152.935501 171.4263 152.87149 171.466293 152.806503 C 171.653305 152.499496 171.854294 152.205505 172.072296 151.921509 C 172.099304 151.886505 172.124298 151.850494 172.151306 151.816498 C 172.667297 151.162506 173.263306 150.577499 173.925293 150.069489 C 173.951294 150.0495 173.978302 150.030502 174.005295 150.009491 C 174.335297 149.761505 174.678299 149.532501 175.0383 149.3255 L 175.039307 149.3255 C 176.045303 148.747498 177.160294 148.34549 178.347305 148.147491 C 178.410294 148.137497 178.473297 148.127502 178.537308 148.119507 C 178.5383 148.119507 178.5383 148.119507 178.539307 148.1185 C 178.724304 148.091492 178.908295 148.0625 179.096298 148.045502 C 179.394302 148.018494 179.695297 147.999496 180.000305 147.999496 C 185.522293 147.999496 190.000305 152.477509 190.000305 157.999496 C 190.000305 158.445496 189.961304 158.880493 189.904297 159.310501 M 163.096298 176.901489 C 163.671295 175.372498 164.000305 173.726501 164.000305 171.999496 C 164.000305 165.912506 160.088303 160.734497 154.650299 158.810501 C 158.539307 156.992493 163.006302 154.910492 166.903305 153.096497 C 166.3293 154.624496 166.000305 156.273499 166.000305 157.999496 C 166.000305 164.089508 169.915298 169.269501 175.354294 171.191498 C 171.103302 173.175507 166.789307 175.186493 163.096298 176.901489 M 159.917297 173.227509 C 159.903305 173.342499 159.883301 173.456497 159.865295 173.570496 C 159.816299 173.873505 159.756302 174.172501 159.680298 174.466492 C 159.655304 174.568497 159.632294 174.669495 159.602295 174.769501 C 159.378296 175.550507 159.060303 176.290497 158.662292 176.981506 C 158.630295 177.037506 158.595306 177.0905 158.562302 177.145508 C 158.375305 177.457489 158.171295 177.757507 157.951294 178.046509 C 157.9263 178.079498 157.903305 178.112503 157.879303 178.143494 C 157.363297 178.804504 156.766296 179.3965 156.103302 179.9095 C 156.097305 179.91449 156.091293 179.917511 156.085297 179.922501 C 155.750305 180.180511 155.3983 180.417511 155.030304 180.632507 C 154.257294 181.084503 153.418304 181.432495 152.529297 181.66449 L 152.528305 181.66449 C 152.473297 181.679504 152.419296 181.692505 152.364304 181.706497 C 151.605301 181.89151 150.816299 181.999496 150.000305 181.999496 C 144.477295 181.999496 140.000305 177.522491 140.000305 171.999496 C 140.000305 171.527496 140.044296 171.066498 140.1073 170.611496 C 140.112305 170.583496 140.116302 170.556503 140.1203 170.52951 L 140.1203 170.528503 C 140.177292 170.139496 140.257294 169.757507 140.3573 169.384491 L 140.363297 169.361496 C 141.284302 165.992493 143.917297 163.33551 147.274292 162.385498 C 147.284302 162.382507 147.294296 162.380493 147.303299 162.377502 C 147.576294 162.301498 147.852295 162.23349 148.134293 162.180496 C 148.215302 162.16449 148.298294 162.156494 148.379303 162.142502 C 148.597305 162.107498 148.816299 162.070496 149.040298 162.048492 C 149.355301 162.017502 149.675293 161.999496 150.000305 161.999496 C 155.522293 161.999496 160.000305 166.477509 160.000305 171.999496 C 160.000305 172.415497 159.9673 172.824493 159.917297 173.227509 M 181.429306 144.07251 C 180.959305 144.024506 180.4823 143.999496 180.000305 143.999496 C 179.544296 143.999496 179.089294 144.023499 178.633301 144.069489 C 176.667297 144.260498 174.821304 144.864502 173.1763 145.787506 C 167.186295 148.538498 150.393295 156.366501 144.845306 158.995499 C 143.682297 159.457489 142.599304 160.0755 141.613297 160.817505 L 141.544296 160.862503 C 141.5233 160.877502 141.506302 160.8965 141.486298 160.912506 C 139.813293 162.199493 138.443298 163.850494 137.490295 165.751495 C 137.478302 165.773499 137.468292 165.795502 137.458298 165.818497 C 137.244293 166.249496 137.052292 166.694489 136.883301 167.150497 C 136.860306 167.212494 136.838303 167.275497 136.815292 167.337494 C 136.668304 167.751495 136.541306 168.1745 136.433304 168.605499 C 136.410294 168.69751 136.384293 168.787506 136.363297 168.87851 C 136.269302 169.287506 136.197296 169.703491 136.140305 170.123505 C 136.126297 170.229492 136.104294 170.332489 136.0923 170.439499 C 136.035294 170.953491 136.000305 171.471497 136.000305 171.999496 C 136.000305 172.482498 136.024292 172.958496 136.072296 173.429504 C 136.743301 180.009491 141.990295 185.2565 148.570297 185.92749 C 149.041306 185.975494 149.517303 185.999496 150.000305 185.999496 C 150.437302 185.999496 150.873306 185.974503 151.307297 185.933502 C 151.499298 185.915497 151.686295 185.884491 151.877304 185.859497 C 152.050293 185.83551 152.223297 185.821503 152.396301 185.790497 L 152.498306 185.763489 C 154.070297 185.479492 155.550293 184.934509 156.894302 184.169495 C 162.828293 181.46051 177.520294 174.598511 185.380295 170.921509 C 185.554306 170.848511 185.721298 170.761505 185.893295 170.681503 C 186.050293 170.60849 186.211304 170.533508 186.360306 170.462494 L 186.423294 170.425507 C 187.379303 169.929504 188.270294 169.328491 189.082306 168.633499 C 189.189301 168.541504 189.289307 168.445496 189.393295 168.350494 C 189.668304 168.100494 189.934296 167.841492 190.188293 167.571503 C 190.320297 167.431503 190.449295 167.290497 190.575302 167.1465 C 190.795303 166.892502 191.002304 166.62851 191.2043 166.359497 C 191.316299 166.208496 191.433304 166.064499 191.539307 165.910492 C 191.818298 165.504501 192.080307 165.08551 192.316299 164.650497 C 192.383301 164.525497 192.437302 164.393494 192.502304 164.265503 C 192.671295 163.929504 192.831299 163.589508 192.973297 163.239502 C 193.045303 163.061493 193.106293 162.879501 193.171295 162.699493 C 193.285294 162.380493 193.388306 162.058502 193.479294 161.730499 C 193.531296 161.545502 193.580307 161.360504 193.624298 161.172501 C 193.706299 160.820496 193.770294 160.461502 193.825302 160.099503 C 193.849304 159.934509 193.882294 159.772491 193.900299 159.606506 C 193.961304 159.078491 194.000305 158.543503 194.000305 157.999496 C 194.000305 157.517502 193.975296 157.040497 193.927307 156.570496 C 193.257294 149.990509 188.009293 144.7435 181.429306 144.07251"/>
</svg>
