<?xml version="1.0" encoding="UTF-8"?>
<!-- Generated by Pixelmator Pro 3.7.1 -->
<svg width="256" height="256" viewBox="0 0 256 256" xmlns="http://www.w3.org/2000/svg">
    <path id="Path" fill="#ffffff" stroke="none" d="M 212 224 L 204 224 L 204 44 L 180 20 L 52 20 L 48 20 L 44 20 L 44 14 C 44 12.895996 44.895996 12 46 12 L 187.171997 12 C 187.701996 12 188.210999 12.210999 188.585999 12.585999 L 211.414001 35.414001 C 211.789001 35.789001 212 36.298004 212 36.828995 Z M 52 224 L 52 24 L 180 24 L 200 44 L 200 224 Z M 212 242 C 212 243.104004 211.104004 244 210 244 L 46 244 C 44.895996 244 44 243.104004 44 242 L 44 228 L 200 228 L 204 228 L 212 228 Z M 44 76 L 48 76 L 48 224 L 44 224 Z M 44 24 L 48 24 L 48 72 L 44 72 Z M 214.242004 32.585007 L 191.414001 9.757004 C 190.281006 8.623993 188.774002 8 187.171997 8 L 46 8 C 42.690994 8 40 10.690994 40 14 L 40 242 C 40 245.309006 42.690994 248 46 248 L 210 248 C 213.309006 248 216 245.309006 216 242 L 216 36.828995 C 216 35.225998 215.376007 33.718994 214.242004 32.585007"/>
</svg>
