<?xml version="1.0" encoding="UTF-8"?>
<!-- Generated by Pixelmator Pro 3.7.1 -->
<svg width="256" height="256" viewBox="0 0 256 256" xmlns="http://www.w3.org/2000/svg">
    <path id="Path" fill="#ffffff" stroke="none" d="M 177.433594 169.803711 C 170.892593 172.630707 157.0056 175.999695 127.999603 175.999695 C 98.993599 175.999695 85.107605 172.630707 78.566605 169.803711 C 73.447601 167.591705 72.093605 165.428711 71.961601 164.646698 L 71.984604 164.553711 L 71.997604 164.124695 C 72.079605 161.508698 73.999603 99.970703 73.999603 91.999695 C 73.999603 89.592697 74.712601 88.181702 76.011604 88.009705 L 76.013603 88.010696 L 76.306602 87.988693 L 89.037598 87.008698 C 101.945602 86.015701 115.054596 85.512695 127.999603 85.512695 C 140.945602 85.512695 154.054596 86.015701 166.961594 87.008698 L 179.693604 87.988693 L 179.846603 87.999695 L 179.999603 87.999695 C 180.081604 87.999695 181.999603 88.0457 181.999603 91.999695 C 181.999603 99.970703 183.919601 161.508698 184.001602 164.124695 L 184.015594 164.553711 L 184.038605 164.646698 C 183.907593 165.428711 182.552597 167.591705 177.433594 169.803711 M 59.999603 155.999695 L 59.999603 155.944702 L 58.441605 155.685699 C 57.006599 155.077698 55.999603 153.656708 55.999603 151.999695 C 55.999603 149.79071 57.790604 147.999695 59.999603 147.999695 C 62.208603 147.999695 63.999603 149.79071 63.999603 151.999695 C 63.999603 154.20871 62.208603 155.999695 59.999603 155.999695 M 59.999603 167.999695 L 58.8246 167.803711 C 57.192604 167.299698 55.999603 165.796692 55.999603 163.999695 C 55.999603 161.861694 57.682602 160.130707 59.793602 160.020691 L 59.999603 160.054703 L 59.999603 159.999695 C 62.208603 159.999695 63.999603 161.79071 63.999603 163.999695 C 63.999603 166.20871 62.208603 167.999695 59.999603 167.999695 M 51.999603 151.999695 C 51.999603 152.945709 52.1716 153.849701 52.474602 154.690704 L 41.206596 152.812698 C 40.988594 152.776703 40.766594 152.775696 40.546608 152.75769 L 39.342598 152.556702 C 37.413597 152.235703 35.999596 150.566711 35.999596 148.611694 C 35.999596 146.419708 37.787605 144.703705 39.898598 144.703705 C 40.112602 144.703705 40.329597 144.72171 40.548607 144.75769 L 53.790604 146.964691 C 52.6726 148.340698 51.999603 150.092697 51.999603 151.999695 M 52.496605 166.749695 L 39.342598 164.556702 C 37.413597 164.235703 35.999596 162.566711 35.999596 160.611694 C 35.999596 158.4207 37.785606 156.705704 39.8946 156.703705 L 53.766602 159.016693 C 52.667603 160.384705 51.999603 162.112701 51.999603 163.999695 C 51.999603 164.966705 52.181602 165.890701 52.496605 166.749695 M 185.999603 91.999695 C 185.999603 83.999695 179.999603 83.999695 179.999603 83.999695 L 167.2686 83.020706 C 154.198593 82.014694 141.099594 81.512695 127.999603 81.512695 C 114.900597 81.512695 101.801598 82.014694 88.731598 83.020706 L 75.999603 83.999695 C 75.999603 83.999695 69.999603 83.999695 69.999603 91.999695 C 69.999603 99.999695 67.999603 163.999695 67.999603 163.999695 C 67.999603 161.609711 66.940605 159.466705 65.273598 157.999695 C 66.940605 156.5327 67.999603 154.390701 67.999603 151.999695 C 67.999603 147.699707 64.587601 144.191711 60.329605 144.016693 L 60.330605 143.999695 L 41.206596 140.812698 C 40.773598 140.740692 40.333595 140.703705 39.898598 140.703705 L 39.898598 140.703705 C 35.542595 140.703705 31.999594 144.251709 31.999594 148.611694 C 31.999594 151.002701 33.046608 153.164703 34.737602 154.639709 C 33.064598 156.089691 31.999594 158.2267 31.999594 160.611694 C 31.999594 164.537689 34.811607 167.857697 38.684608 168.502701 L 57.836601 171.694702 C 58.378601 171.847702 58.942604 171.941711 59.524605 171.975708 L 59.999603 172.054703 L 59.999603 171.999695 C 64.141602 171.999695 67.557602 168.8367 67.959602 164.799698 C 68.161598 168.033691 72.648598 179.999695 127.999603 179.999695 C 191.999603 179.999695 187.999603 163.999695 187.999603 163.999695 C 187.999603 163.999695 185.999603 99.999695 185.999603 91.999695"/>
    <path id="path1" fill="#ffffff" stroke="none" d="M 80 96 L 176 96 L 176 152 L 80 152 Z M 76 156 L 180 156 L 180 92 L 76 92 Z"/>
    <path id="path2" fill="#ffffff" stroke="none" d="M 224 124 C 219.582001 124 216 120.417999 216 116 C 216 111.582001 219.582001 108 224 108 C 228.417999 108 232 111.582001 232 116 C 232 120.417999 228.417999 124 224 124 M 204 132 C 199.582001 132 196 128.417999 196 124 C 196 119.582001 199.582001 116 204 116 C 208.417999 116 212 119.582001 212 124 C 212 128.417999 208.417999 132 204 132 M 224 104 C 217.679993 104 212.496994 108.914993 212.044998 115.121994 C 209.914001 113.188995 207.097 112 204 112 C 197.382996 112 192 117.382996 192 124 C 192 130.617004 197.382996 136 204 136 C 210.320007 136 215.503006 131.084991 215.955002 124.878006 C 218.085999 126.811005 220.903 128 224 128 C 230.617004 128 236 122.617004 236 116 C 236 109.382996 230.617004 104 224 104"/>
    <path id="path3" fill="#ffffff" stroke="none" d="M 196 152 L 220 144 L 220 140 L 196 148 Z"/>
    <path id="path4" fill="#ffffff" stroke="none" d="M 196 160 L 220 152 L 220 148 L 196 156 Z"/>
    <path id="path5" fill="#ffffff" stroke="none" d="M 196 168 L 220 160 L 220 156 L 196 164 Z"/>
    <path id="path6" fill="#ffffff" stroke="none" d="M 34 134 L 34 126 L 26 126 C 24.896 126 24 125.104004 24 124 L 24 116 C 24 114.895996 24.896 114 26 114 L 34 114 L 34 106 C 34 104.895996 34.896 104 36 104 L 44 104 C 45.104 104 46 104.895996 46 106 L 46 114 L 54 114 C 55.104 114 56 114.895996 56 116 L 56 124 C 56 125.104004 55.104 126 54 126 L 46 126 L 46 134 C 46 135.104004 45.104 136 44 136 L 36 136 C 34.896 136 34 135.104004 34 134 M 44 140 C 47.308998 140 50 137.30899 50 134 L 50 130 L 54 130 C 57.308998 130 60 127.309006 60 124 L 60 116 C 60 112.690994 57.308998 110 54 110 L 50 110 L 50 106 C 50 102.690994 47.308998 100 44 100 L 36 100 C 32.691002 100 30 102.690994 30 106 L 30 110 L 26 110 C 22.691 110 20 112.690994 20 116 L 20 124 C 20 127.309006 22.691 130 26 130 L 30 130 L 30 134 C 30 137.30899 32.691002 140 36 140 Z"/>
    <path id="path7" fill="#ffffff" stroke="none" d="M 36 120 C 36 117.791 37.791 116 40 116 C 42.209 116 44 117.791 44 120 C 44 122.209 42.209 124 40 124 C 37.791 124 36 122.209 36 120 M 48 120 C 48 115.589005 44.410999 112 40 112 C 35.589001 112 32 115.589005 32 120 C 32 124.410995 35.589001 128 40 128 C 44.410999 128 48 124.410995 48 120"/>
    <path id="path8" fill="#ffffff" stroke="none" d="M 228 176 L 191.826996 186.85199 C 189.149994 187.653992 186.416992 188.225998 183.643005 188.563004 C 174.570007 189.664001 152.453003 192 128 192 C 103.546997 192 81.429993 189.664001 72.356995 188.563004 C 69.582993 188.225998 66.848999 187.653992 64.171997 186.85199 L 28 176 C 8 168 12 148 16 116 C 17.664001 102.690002 18.636002 94.223999 19.203003 88.875 C 19.727997 83.925995 23.518005 79.972 28.434006 79.194 C 39.089996 77.51001 55.636002 73.502991 63.677002 70.304993 C 67.531006 68.770996 71.632004 68 75.779999 68 L 180.220001 68 C 184.367996 68 188.468994 68.770996 192.322998 70.304993 C 200.363998 73.502991 216.910004 77.51001 227.565994 79.194 C 232.481995 79.972 236.270996 83.925995 236.796997 88.875 C 237.363998 94.223999 238.335999 102.690002 240 116 C 244 148 248 168 228 176 M 244.729004 121.492004 C 244.479996 119.544998 244.225006 117.548996 243.968994 115.503998 C 242.546005 104.117996 241.470993 95.015991 240.774002 88.453003 C 240.061996 81.734009 234.886993 76.302002 228.190994 75.244003 C 218.276001 73.675995 201.714005 69.735001 193.802002 66.587997 C 189.485001 64.871002 184.915009 64 180.220001 64 L 75.779999 64 C 71.084 64 66.514999 64.871002 62.197998 66.587997 C 54.285995 69.735001 37.723999 73.675995 27.809006 75.244003 C 21.113007 76.302002 15.938004 81.734009 15.225998 88.453003 C 14.529007 95.015991 13.453995 104.117996 12.031006 115.503998 C 11.774994 117.548996 11.520004 119.544998 11.270996 121.492004 C 7.582993 150.277008 4.919998 171.076004 26.514999 179.713989 L 26.679993 179.779999 L 26.850998 179.830994 L 63.022995 190.682999 C 65.904007 191.546997 68.882004 192.169998 71.875 192.533005 C 80.457993 193.576004 103.109001 196 128 196 C 152.890991 196 175.541992 193.576004 184.125 192.533005 C 187.117004 192.169998 190.096008 191.546997 192.977005 190.68399 L 229.149002 179.830994 L 229.320007 179.779999 L 229.485001 179.713989 C 251.080002 171.076004 248.416 150.277008 244.729004 121.492004"/>
</svg>
