<?xml version="1.0" encoding="UTF-8"?>
<!-- Generated by Pixelmator Pro 3.7.1 -->
<svg width="256" height="256" viewBox="0 0 256 256" xmlns="http://www.w3.org/2000/svg">
    <path id="Path" fill="#ffffff" stroke="none" d="M 192 160 L 64 160 L 64 96 L 192 96 Z M 196 92 L 60 92 L 60 164 L 196 164 Z"/>
    <path id="path1" fill="#ffffff" stroke="none" d="M 228 124 C 232.417999 124 236 127.582001 236 132 C 236 136.417999 232.417999 140 228 140 C 223.582001 140 220 136.417999 220 132 C 220 127.582001 223.582001 124 228 124 M 228 144 C 234.617004 144 240 138.617004 240 132 C 240 125.382996 234.617004 120 228 120 C 221.382996 120 216 125.382996 216 132 C 216 138.617004 221.382996 144 228 144"/>
    <path id="path2" fill="#ffffff" stroke="none" d="M 204 168 L 198.414993 168 C 197.317001 166.824005 195.744995 166.087006 194 166.087006 L 190 166.087006 C 188.255005 166.087006 186.682999 166.824005 185.584991 168 L 107.613998 168 C 106.755997 165.766998 104.563004 164.174011 102 164.174011 C 99.436996 164.174011 97.244003 165.766998 96.386002 168 L 70.414993 168 C 69.317993 166.824005 67.744995 166.087006 66 166.087006 L 62 166.087006 C 60.255005 166.087006 58.682007 166.824005 57.585007 168 L 52 168 L 52 88 L 204 88 Z M 204 84 L 52 84 C 49.791 84 48 85.712997 48 87.825989 L 48 168.174011 C 48 170.287003 49.791 172 52 172 L 60 172 C 60 170.942993 60.895996 170.087006 62 170.087006 L 66 170.087006 C 67.104004 170.087006 68 170.942993 68 172 L 100 172 L 100 170.087006 C 100 169.029999 100.896004 168.174011 102 168.174011 C 103.103996 168.174011 104 169.029999 104 170.087006 L 104 172 L 188 172 C 188 170.942993 188.895996 170.087006 190 170.087006 L 194 170.087006 C 195.104004 170.087006 196 170.942993 196 172 L 204 172 C 206.209 172 208 170.287003 208 168.174011 L 208 87.825989 C 208 85.712997 206.209 84 204 84"/>
    <path id="path3" fill="#ffffff" stroke="none" d="M 218 152 C 218 149.794006 219.794006 148 222 148 C 224.205994 148 226 149.794006 226 152 C 226 154.205994 224.205994 156 222 156 C 219.794006 156 218 154.205994 218 152 M 244 104 L 244 156 C 244 167.04599 235.046005 176 224 176 L 215.649994 176 C 215.873001 175.373001 216 174.701996 216 174 L 216 157.27301 C 217.466995 158.94101 219.608994 160 222 160 C 226.410995 160 230 156.411011 230 152 C 230 147.588989 226.410995 144 222 144 C 219.608994 144 217.466995 145.05899 216 146.72699 L 216 132 L 216 120 L 216 110.916992 C 217.179001 111.602005 218.542007 112 220 112 C 220 116.410995 223.589005 120 228 120 C 232.410995 120 236 116.410995 236 112 C 240.410995 112 244 108.410995 244 104 C 244 99.589005 240.410995 96 236 96 C 236 91.589005 232.410995 88 228 88 C 223.589005 88 220 91.589005 220 96 L 218 96 L 216 96 L 216 82 L 216 80 L 224 80 C 235.046005 80 244 88.953995 244 100 Z M 212 174 C 212 175.104004 211.104004 176 210 176 L 46 176 C 44.895996 176 44 175.104004 44 174 L 44 94 L 44 90 L 44 88 L 44 84 C 44 84 44.246002 83.998001 44.610992 83.938004 C 44.742004 83.917999 44.869995 83.893005 44.996002 83.860001 C 46.042999 83.608002 47.584 82.895996 47.929993 80.869995 C 48.014008 80.376007 48.417999 80 48.919006 80 L 52 80 L 204 80 L 207.080994 80 C 207.582001 80 207.985992 80.376007 208.070007 80.869995 C 208.414993 82.895996 209.957001 83.608002 211.003998 83.860001 C 211.130005 83.893005 211.257996 83.917999 211.389008 83.938004 C 211.753998 83.998001 212 84 212 84 L 212 88 L 212 90 L 212 94 Z M 218.774994 96.104004 C 218.856003 96.091003 218.936996 96.076996 219.018005 96.06601 C 218.936996 96.076996 218.856003 96.091003 218.774994 96.104004 M 217.832001 96.307007 C 217.889008 96.291 217.945999 96.277008 218.003006 96.263 C 217.945999 96.277008 217.889008 96.291 217.832001 96.307007 M 220 108 C 217.791 108 216 106.209 216 104 C 216 101.791 217.791 100 220 100 C 222.209 100 224 101.791 224 104 C 224 106.209 222.209 108 220 108 M 228 108 C 230.209 108 232 109.791 232 112 C 232 114.209 230.209 116 228 116 C 225.791 116 224 114.209 224 112 C 224 109.791 225.791 108 228 108 M 236 100 C 238.209 100 240 101.791 240 104 C 240 106.209 238.209 108 236 108 C 233.791 108 232 106.209 232 104 C 232 101.791 233.791 100 236 100 M 228 100 C 225.791 100 224 98.209 224 96 C 224 93.791 225.791 92 228 92 C 230.209 92 232 93.791 232 96 C 232 98.209 230.209 100 228 100 M 36 136 C 33.791 136 32 134.209 32 132 C 32 129.791 33.791 128 36 128 C 38.209 128 40 129.791 40 132 C 40 134.209 38.209 136 36 136 M 37 144 L 34.917007 144 C 35.602005 142.820999 36 141.458008 36 140 C 37.457993 140 38.822006 139.60199 40 138.917999 L 40 145.024994 C 39.162003 144.390991 38.130005 144 37 144 M 30 149 C 30 148.446991 30.447998 148 31 148 L 37 148 C 37.552002 148 38 148.446991 38 149 L 38 155 C 38 155.553009 37.552002 156 37 156 L 31 156 C 30.447998 156 30 155.553009 30 155 Z M 24 124 C 24 121.791 25.791 120 28 120 C 30.209 120 32 121.791 32 124 C 32 126.209 30.209 128 28 128 C 25.791 128 24 126.209 24 124 M 20 136 C 17.791 136 16 134.209 16 132 C 16 129.791 17.791 128 20 128 C 22.209 128 24 129.791 24 132 C 24 134.209 22.209 136 20 136 M 28 136 C 30.209 136 32 137.791 32 140 C 32 142.209 30.209 144 28 144 C 25.791 144 24 142.209 24 140 C 24 137.791 25.791 136 28 136 M 32 176 C 20.953995 176 12 167.04599 12 156 L 12 132 L 12 100 C 12 88.953995 20.953995 80 32 80 L 39.792007 80 L 40 80 L 40 94 L 40 104 L 40 116 L 40 125.083008 C 38.822006 124.397995 37.457993 124 36 124 C 36 119.589005 32.410995 116 28 116 C 23.589005 116 20 119.589005 20 124 C 15.589005 124 12 127.589005 12 132 C 12 136.411011 15.589005 140 20 140 C 20 143.779999 22.638 146.947998 26.167999 147.779999 C 26.069 148.173004 26 148.576996 26 149 L 26 155 C 26 157.757004 28.242996 160 31 160 L 37 160 C 38.130005 160 39.162003 159.609009 40 158.975006 L 40 174 C 40 174.701996 40.126999 175.373001 40.350006 176 Z M 224 76 L 213 76 C 212.656998 76 212.322998 76.035004 212 76.100998 L 212 79.981995 L 211.970993 79.97699 C 211.459 77.64801 209.442001 76 207.080994 76 L 204 76 L 52 76 L 48.919006 76 C 46.550003 76 44.528 77.660004 44.029007 79.979004 L 44.029007 79.979004 L 44 79.985992 L 44 76.110001 C 43.675995 76.042999 43.343994 76 43 76 L 32 76 C 18.766998 76 8 86.766998 8 100 L 8 156 C 8 169.233002 18.766998 180 32 180 L 224 180 C 237.233002 180 248 169.233002 248 156 L 248 100 C 248 86.766998 237.233002 76 224 76"/>
    <path id="path4" fill="#ffffff" stroke="none" d="M 28 112 C 23.582001 112 20 108.417999 20 104 C 20 99.582001 23.582001 96 28 96 C 32.417999 96 36 99.582001 36 104 C 36 108.417999 32.417999 112 28 112 M 28 92 C 21.382999 92 16 97.382996 16 104 C 16 110.617004 21.382999 116 28 116 C 34.617001 116 40 110.617004 40 104 C 40 97.382996 34.617001 92 28 92"/>
</svg>
