<?xml version="1.0" encoding="UTF-8"?>
<!-- Generated by Pixelmator Pro 3.7.1 -->
<svg width="256" height="256" viewBox="0 0 256 256" xmlns="http://www.w3.org/2000/svg">
    <path id="Path" fill="#ffffff" stroke="none" d="M 236 238 C 236 239.104004 235.104004 240 234 240 L 232 240 L 232 232 L 236 232 Z M 228 228 L 228 242 C 228 243.104004 227.104004 244 226 244 L 44.544998 244 C 31.046005 244 20.095993 233.270004 20.003998 220 L 24 220 L 24 208 L 20 208 L 20 21.667007 C 20 16.328003 24.395996 12 29.817993 12 L 226.182007 12 C 231.604004 12 236 16.328003 236 21.667007 L 236 228 Z M 226.182007 8 L 29.817993 8 C 22.199005 8 16 14.130997 16 21.667007 L 16 219.833008 C 16 235.363998 28.806 248 44.544998 248 L 226 248 C 229.309006 248 232 245.309006 232 242 L 232 244 L 234 244 C 237.309006 244 240 241.309006 240 238 L 240 232 L 240 228 L 240 21.667007 C 240 14.130997 233.800995 8 226.182007 8"/>
    <path id="path1" fill="#ffffff" stroke="none" d="M 220 59.189896 L 220 59.218903 L 159.511002 62.427902 L 153.707001 55.999893 L 103.856003 55.999893 L 97.233002 62.415894 L 40 56.002899 L 40 55.966904 L 40 32.779907 C 40 30.139908 42.130005 27.999893 44.757996 27.999893 L 215.242004 27.999893 C 217.869995 27.999893 220 30.139908 220 32.779907 Z M 220 63.999893 L 220 195.999893 L 40 195.999893 L 40 63.999893 L 40 60.027893 L 96.788002 66.391907 L 98.662003 66.601898 L 100.015999 65.288895 L 105.475998 59.999893 L 151.929993 59.999893 L 156.541992 65.107895 L 157.819 66.522903 L 159.722992 66.421906 L 220 63.223907 Z M 220 215.219894 C 220 217.858902 217.869995 219.999893 215.242004 219.999893 L 153.210999 219.999893 L 140 219.999893 L 116 219.999893 L 102.789001 219.999893 L 52 219.999893 L 40 203.999893 L 40 199.999893 L 220 199.999893 Z M 128 231.999893 L 116 223.999893 L 140 223.999893 Z M 215.242004 23.999908 L 44.757996 23.999908 C 39.929001 23.999908 36 27.938904 36 32.779907 L 36 56.002899 L 36 59.579895 L 36 195.999893 L 36 199.999893 L 36 203.999893 L 36 205.332901 L 36.800003 206.399902 L 48.800003 222.399902 L 50 223.999893 L 52 223.999893 L 108.789001 223.999893 L 113.780998 227.327896 L 125.780998 235.327896 L 128 236.807892 L 130.218994 235.327896 L 142.218994 227.327896 L 147.210999 223.999893 L 215.242004 223.999893 C 220.070999 223.999893 224 220.06189 224 215.219894 L 224 199.999893 L 224 195.999893 L 224 63.011902 L 224 59.218903 L 224 32.779907 C 224 27.938904 220.070999 23.999908 215.242004 23.999908"/>
    <path id="path2" fill="#ffffff" stroke="none" d="M 128 80 C 108.149002 80 92 96.149002 92 116 L 92 124.343002 C 89.671997 125.167999 88 127.393005 88 130 L 88 170 C 88 173.30899 90.691002 176 94 176 L 162 176 C 165.30899 176 168 173.30899 168 170 L 168 130 C 168 126.69101 165.30899 124 162 124 L 112 124 L 112 116 C 112 107.177994 119.178001 100 128 100 C 136.822006 100 144 107.177994 144 116 L 144 120 L 148 120 L 160 120 L 164 120 L 164 116 C 164 96.149002 147.850998 80 128 80 M 128 84 C 145.645004 84 160 98.354996 160 116 L 148 116 C 148 104.953995 139.046005 96 128 96 C 116.954002 96 108 104.953995 108 116 L 108 128 L 162 128 C 163.104004 128 164 128.895996 164 130 L 164 170 C 164 171.104004 163.104004 172 162 172 L 94 172 C 92.895996 172 92 171.104004 92 170 L 92 130 C 92 128.895996 92.895996 128 94 128 L 96 128 L 96 116 C 96 98.354996 110.354996 84 128 84"/>
</svg>
