<?xml version="1.0" encoding="UTF-8"?>
<!-- Generated by Pixelmator Pro 3.7.1 -->
<svg width="256" height="256" viewBox="0 0 256 256" xmlns="http://www.w3.org/2000/svg">
    <path id="Path" fill="#ffffff" stroke="none" d="M 244 78 C 244 73.589005 240.410995 70 236 70 L 236 56 C 236 53.791 234.209 52 232 52 L 24 52 C 21.791 52 20 53.791 20 56 L 20 70 C 15.589005 70 12 73.589005 12 78 L 12 54 C 12 52.895996 12.895996 52 14 52 C 15.104004 52 16 51.104004 16 50 L 16 49 C 16 48.447998 16.447998 48 17 48 L 239 48 C 239.552994 48 240 48.447998 240 49 L 240 50 C 240 51.104004 240.895996 52 242 52 C 243.104004 52 244 52.895996 244 54 Z M 216 70 L 40 70 L 40 68 L 216 68 Z M 232 70 L 220 70 L 220 64 L 36 64 L 36 70 L 24 70 L 24 56 L 232 56 Z M 240 206 C 240 208.209 238.209 210 236 210 C 236 211.104004 235.104004 212 234 212 L 230 212 C 228.895996 212 228 211.104004 228 210 L 207.722992 210 C 207.376007 210.595993 206.738007 211 206 211 L 198 211 C 197.261993 211 196.623993 210.595993 196.277008 210 L 51.723007 210 C 51.376007 210.595993 50.738007 211 50 211 L 42 211 C 41.261993 211 40.623993 210.595993 40.276993 210 L 28 210 C 28 211.104004 27.104004 212 26 212 L 22 212 C 20.895996 212 20 211.104004 20 210 C 17.791 210 16 208.209 16 206 L 16 188 L 16 184 L 16 78 C 16 75.791 17.791 74 20 74 L 24 74 L 36 74 L 40 74 L 216 74 L 220 74 L 232 74 L 236 74 C 238.209 74 240 75.791 240 78 L 240 184 L 240 188 Z M 243.955002 48.326996 C 243.625 45.886993 241.529007 44 239 44 L 17 44 C 14.470993 44 12.375 45.886993 12.044998 48.326996 C 9.692993 49.139999 8 51.376007 8 54 L 8 184 L 8 188 L 12 188 L 12 206 C 12 209.388 14.117004 212.291 17.097 213.455002 C 18.184998 214.992996 19.977005 216 22 216 L 26 216 C 27.772995 216 29.369003 215.227005 30.468994 214 L 38.697998 214 C 39.664993 214.641006 40.811005 215 42 215 L 50 215 C 51.188995 215 52.335007 214.641006 53.302002 214 L 194.697998 214 C 195.664001 214.641006 196.811005 215 198 215 L 206 215 C 207.188995 215 208.335999 214.641006 209.302002 214 L 225.531006 214 C 226.630997 215.227005 228.227005 216 230 216 L 234 216 C 236.022995 216 237.815002 214.992996 238.903 213.455002 C 241.882996 212.291 244 209.388 244 206 L 244 188 L 248 188 L 248 184 L 248 54 C 248 51.376007 246.307007 49.139999 243.955002 48.326996"/>
</svg>
