<?xml version="1.0" encoding="UTF-8"?>
<!-- Generated by Pixelmator Pro 3.7.1 -->
<svg width="256" height="256" viewBox="0 0 256 256" xmlns="http://www.w3.org/2000/svg">
    <path id="Path" fill="#ffffff" stroke="none" d="M 144 136 L 156 136 L 156 132 L 144 132 Z"/>
    <path id="path1" fill="#ffffff" stroke="none" d="M 100 136 L 112 136 L 112 132 L 100 132 Z"/>
    <path id="path2" fill="#ffffff" stroke="none" d="M 244 118 C 244 118.744995 243.587997 119.388 242.983002 119.731995 L 241.5 96 L 242 96 C 243.104004 96 244 96.895996 244 98 Z M 241.960007 140 L 232 144 L 232 136 L 241.871002 136 C 242.662994 136 243.334 135.535995 243.658005 134.876007 L 243.987 137.778992 C 244.121002 138.964005 243.175995 140 241.960007 140 M 224 136 L 228 136 L 228 140 L 224 140 Z M 220 140 L 166.856003 140 L 168 136 L 168 128 L 218 128 C 219.104004 128 220 128.895996 220 130 L 220 134 Z M 204 210.105011 C 204 211.438995 202.658997 212 201.042999 212 C 199.188995 212 196.972 211.261993 196 210.105011 C 191.007004 204.164001 185.589996 191.945007 176 177.113998 C 163.248001 157.395004 140 152 128 152 C 116 152 92.751999 157.395004 80 177.113998 C 70.410004 191.945007 64.992996 204.164001 60 210.105011 C 59.028 211.261993 56.811005 212 54.957001 212 C 53.341003 212 52 211.438995 52 210.105011 L 52 144 L 90.287003 144 L 90.669006 145.337997 C 91.354004 146.708008 92.742996 147.550003 94.237 147.550003 C 94.453995 147.550003 94.671997 147.531998 94.891998 147.496002 C 100.050003 146.640991 124 144 124 144 C 125.334999 144 126.669998 143.966003 128 144 C 129.32901 143.966003 130.664001 144 132 144 C 132 144 155.949997 146.640991 161.108002 147.496002 C 161.328003 147.531998 161.546997 147.550003 161.763 147.550003 C 163.257004 147.550003 164.645996 146.708008 165.330994 145.337997 L 165.713989 144 L 204 144 Z M 36 140 L 36 134 L 36 130 C 36 128.895996 36.895996 128 38 128 L 88 128 L 88 136 L 89.143005 140 Z M 28 136 L 32 136 L 32 140 L 28 140 Z M 14.039993 140 C 12.824005 140 11.878006 138.964005 12.013 137.778992 L 12.341995 134.876007 C 12.667007 135.535995 13.337006 136 14.128998 136 L 24 136 L 24 144 Z M 12 98 C 12 96.895996 12.895996 96 14 96 L 14.5 96 L 13.016998 119.731995 C 12.412003 119.388 12 118.744995 12 118 Z M 88 111.983002 L 44.362 108.016998 L 44.182007 108 L 44 108 C 41.794006 108 40 106.205994 40 104 L 40 100 C 40 97.794006 41.794006 96 44 96 L 88 96 Z M 168 96 L 212 96 C 214.205994 96 216 97.794006 216 100 L 216 104 C 216 106.205994 214.205994 108 212 108 L 211.817993 108 L 211.638 108.016998 L 168 111.983002 Z M 156 96 L 164 96 L 164 112 L 156 112 Z M 136 96 L 152 96 L 152 112 L 136 112 Z M 124 96 L 132 96 L 132 112 L 124 112 Z M 104 96 L 120 96 L 120 112 L 104 112 Z M 92 96 L 100 96 L 100 112 L 92 112 Z M 108 72 L 108 80 L 124 88 L 128 88 L 132 88 L 148 80 L 148 72 L 132 64 L 149.528 64 L 163.528 92 L 154 92 L 102 92 L 92.472 92 L 106.472 64 L 124 64 Z M 139.820007 78 L 140 78 L 140 74 L 139.820007 74 C 139.712997 73.365005 139.561005 72.748001 139.356995 72.151001 L 144 74.472 L 144 77.528 L 139.356995 79.848999 C 139.561005 79.251999 139.712997 78.634995 139.820007 78 M 120.263 78 L 135.735992 78 C 134.845001 81.445007 131.720001 84 128 84 C 124.279999 84 121.154999 81.445007 120.263 78 M 116.18 74 L 116 74 L 116 78 L 116.18 78 C 116.287003 78.634995 116.440002 79.251999 116.641998 79.848999 L 112 77.528 L 112 74.472 L 116.641998 72.151001 C 116.440002 72.748001 116.287003 73.365005 116.18 74 M 135.735992 74 L 120.263 74 C 121.154999 70.554993 124.279999 68 128 68 C 131.720001 68 134.845001 70.554993 135.735992 74 M 164 135.438995 L 161.686005 143.537003 C 156.580002 142.692001 132 140 132 140 C 130.730011 140 129.38501 139.964996 128 140 C 126.614998 139.964996 125.269997 140 124 140 C 124 140 99.408997 142.694 94.313995 143.537003 L 92 135.438995 L 92 116 L 102 116 L 154 116 L 164 116 Z M 19.951004 72.914001 C 22.070007 67.953003 28.712997 56 36 56 C 47.781006 56 122.603996 52.274002 128 52.005005 C 133.395996 52.274002 208.220001 56 220 56 C 227.255005 56 233.921005 67.960999 236.050003 72.917999 L 239.742004 132 L 224 132 L 224 130 L 224 128 L 224 124 L 220 124 L 218 124 L 168 124 L 168 116 L 212 112 C 216.417999 112 220 108.417999 220 104 L 220 100 C 220 95.582001 216.417999 92 212 92 L 168 92 L 152 60 L 104 60 L 88 92 L 44 92 C 39.582001 92 36 95.582001 36 100 L 36 104 C 36 108.417999 39.582001 112 44 112 L 88 116 L 88 124 L 38 124 L 36 124 L 32 124 L 32 128 L 32 130 L 32 132 L 16.257996 132 Z M 112.035004 44.395996 C 112.188004 45.932999 113.210999 47.287003 114.735001 47.794998 L 116.981003 48.542999 C 94.617004 49.636993 45.223999 52 36 52 Z M 140 44 L 128 48 L 116 44 Z M 141.175003 47.824997 C 142.688004 47.360992 143.80899 46.019989 143.970001 44.397003 L 220 52 C 210.776001 52 161.382996 49.636993 139.018997 48.542999 Z M 248 98 C 248 94.690994 245.309006 92 242 92 L 241.25 92 L 240 72 C 240 72 233.708008 56.287994 223.916992 52.722992 C 223.949005 52.550995 223.985992 52.378998 223.994995 52.199005 C 224.102005 50.070007 222.520004 48.231995 220.397995 48.019989 L 140.39801 40.019989 C 140.269989 40.007004 140.139999 40.001007 140.01001 40 C 140.007996 40 140.007004 40 140.005005 40 L 140 40 L 116 40 C 115.867004 40 115.733994 40.007004 115.602005 40.019989 L 35.602005 48.019989 C 33.481003 48.231995 31.899002 50.070007 32.005005 52.199005 C 32.014008 52.378998 32.050995 52.550995 32.082993 52.722992 C 22.292007 56.287994 16 72 16 72 L 14.75 92 L 14 92 C 10.690994 92 8 94.690994 8 98 L 8 118 C 8 119.649002 8.669006 121.145004 9.748993 122.229996 L 8.037994 137.32901 C 7.847 139.015991 8.388 140.712006 9.522003 141.981003 C 10.451004 143.022003 11.710007 143.703003 13.074005 143.923004 L 22.509003 147.712006 L 28 149.916992 L 28 144 L 32 144 L 36 144 L 48 144 L 48 210.105011 C 48 212.944 50.177002 216 54.957001 216 C 57.408005 216 61.001999 215.130005 63.061996 212.679001 C 65.970001 209.218994 68.817001 204.149994 72.421005 197.733002 C 75.485001 192.276001 78.957993 186.093002 83.358994 179.287003 C 95.246002 160.903992 117.012001 156 128 156 C 138.987 156 160.753998 160.903992 172.640991 179.287003 C 177.041992 186.093002 180.515991 192.276001 183.578995 197.733002 C 187.18399 204.149994 190.028992 209.218994 192.936996 212.679001 C 194.998001 215.130005 198.591995 216 201.042999 216 C 205.822998 216 208 212.944 208 210.105011 L 208 144 L 220 144 L 224 144 L 228 144 L 228 149.916992 L 233.490005 147.712006 L 242.925995 143.923004 C 244.289001 143.703003 245.548996 143.022003 246.479004 141.981003 C 247.612 140.712006 248.153 139.015991 247.962006 137.32901 L 246.25 122.227997 C 247.332993 121.141998 248 119.647003 248 118 Z"/>
</svg>
