<?xml version="1.0" encoding="UTF-8"?>
<!-- Generated by Pixelmator Pro 3.7.1 -->
<svg width="256" height="256" viewBox="0 0 256 256" xmlns="http://www.w3.org/2000/svg">
    <path id="Path" fill="#ffffff" stroke="none" d="M 228 100 L 224 100 L 224 104 L 224 244 L 134.147003 244 L 144.459 233.304001 C 145.994003 231.710999 146.425003 229.360992 145.557007 227.317001 C 144.699997 225.303009 142.742004 224 140.569 224 L 115.43 224 C 113.257004 224 111.300003 225.303009 110.443001 227.317001 C 109.574997 229.360992 110.005997 231.710999 111.541 233.304001 L 121.852997 244 L 32 244 L 32 104 L 32 100 L 28 100 L 24 100 L 24 68 L 28 68 L 52.473999 68 C 51.069 66.80899 49.809998 65.464005 48.710999 64 L 28 64 L 25 64 C 24.447998 64 24 63.552002 24 63 L 24 61 C 24 60.447998 24.447998 60 25 60 L 28 60 L 46.274002 60 C 45.662994 58.723999 45.171997 57.384995 44.798996 56 L 28 56 L 25 56 C 24.447998 56 24 55.552002 24 55 L 24 53 C 24 52.447998 24.447998 52 25 52 L 28 52 L 44.095001 52 C 44.037994 51.339996 44 50.673996 44 50 C 44 49.326004 44.037994 48.660004 44.095001 48 L 28 48 L 25 48 C 24.447998 48 24 47.552002 24 47 L 24 45 C 24 44.447998 24.447998 44 25 44 L 28 44 L 44.798996 44 C 45.171997 42.615005 45.662994 41.276001 46.274002 40 L 28 40 L 25 40 C 24.447998 40 24 39.552002 24 39 L 24 37 C 24 36.447998 24.447998 36 25 36 L 28 36 L 48.710999 36 C 49.809998 34.536011 51.069 33.19101 52.473999 32 L 28 32 L 26 32 C 24.895996 32 24 31.104004 24 30 L 24 16 C 24 13.791 25.791 12 28 12 L 208 12 C 210.209 12 212 13.791 212 16 L 212 24 L 230 24 C 231.104004 24 232 24.895996 232 26 L 232 30 C 232 31.104004 231.104004 32 230 32 L 228 32 L 203.524994 32 C 204.931 33.19101 206.190002 34.536011 207.289001 36 L 228 36 L 231 36 C 231.552994 36 232 36.447998 232 37 L 232 39 C 232 39.552002 231.552994 40 231 40 L 228 40 L 209.725998 40 C 210.337006 41.276001 210.828003 42.615005 211.201004 44 L 228 44 L 231 44 C 231.552994 44 232 44.447998 232 45 L 232 47 C 232 47.552002 231.552994 48 231 48 L 228 48 L 211.903992 48 C 211.962006 48.660004 212 49.326004 212 50 C 212 50.673996 211.962006 51.339996 211.903992 52 L 228 52 L 231 52 C 231.552994 52 232 52.447998 232 53 L 232 55 C 232 55.552002 231.552994 56 231 56 L 228 56 L 211.201004 56 C 210.828003 57.384995 210.337006 58.723999 209.725998 60 L 228 60 L 231 60 C 231.552994 60 232 60.447998 232 61 L 232 63 C 232 63.552002 231.552994 64 231 64 L 228 64 L 207.289001 64 C 206.190002 65.464005 204.931 66.80899 203.524994 68 L 228 68 L 231 68 C 231.552994 68 232 68.447998 232 69 L 232 100 Z M 228 244 L 228 104 L 232 104 L 232 242 C 232 243.104004 231.104004 244 230 244 Z M 126.990997 243.565994 L 114.420998 230.526993 C 113.521004 229.595001 114.158997 228 115.43 228 L 140.569 228 C 141.84201 228 142.479004 229.595001 141.57901 230.526993 L 129.01001 243.565994 C 128.730011 243.854996 128.36499 244 128 244 C 127.635002 244 127.269997 243.854996 126.990997 243.565994 M 26 244 C 24.895996 244 24 243.104004 24 242 L 24 104 L 28 104 L 28 244 Z M 236 26 C 236 22.69101 233.309006 20 230 20 L 216 20 L 216 16 C 216 11.588989 212.410995 8 208 8 L 28 8 C 23.589005 8 20 11.588989 20 16 L 20 30 C 20 31.386002 20.472 32.662994 21.264008 33.679993 C 20.477997 34.563995 20 35.72699 20 37 L 20 39 C 20 40.125 20.373993 41.164001 21.001999 42 C 20.373993 42.835999 20 43.875 20 45 L 20 47 C 20 48.125 20.373993 49.164001 21.001999 50 C 20.373993 50.835999 20 51.875 20 53 L 20 55 C 20 56.125 20.373993 57.164001 21.001999 58 C 20.373993 58.835999 20 59.875 20 61 L 20 63 C 20 63.341995 20.035004 63.677002 20.100998 64 L 20 64 L 20 68 L 20 100 L 20 104 L 20 242 L 20 244 L 20 248 L 24 248 L 26 248 L 28 248 L 32 248 L 224 248 L 228 248 L 230 248 L 232 248 L 236 248 L 236 244 L 236 242 L 236 104 L 236 100 L 236 69 C 236 67.875 235.626999 66.835999 234.998001 66 C 235.626999 65.164001 236 64.125 236 63 L 236 61 C 236 59.875 235.626999 58.835999 234.998001 58 C 235.626999 57.164001 236 56.125 236 55 L 236 53 C 236 51.875 235.626999 50.835999 234.998001 50 C 235.626999 49.164001 236 48.125 236 47 L 236 45 C 236 43.875 235.626999 42.835999 234.998001 42 C 235.626999 41.164001 236 40.125 236 39 L 236 37 C 236 35.72699 235.520996 34.563995 234.735001 33.679993 C 235.526993 32.662994 236 31.386002 236 30 Z"/>
    <path id="path1" fill="#ffffff" stroke="none" d="M 68.952103 34 L 187.048096 34 C 196.395096 34 204.000107 41.177994 204.000107 50 C 204.000107 58.822006 196.395096 66 187.048096 66 L 68.952103 66 C 59.605099 66 52.000099 58.822006 52.000099 50 C 52.000099 41.177994 59.605099 34 68.952103 34 M 68.952103 70 L 187.048096 70 C 198.61911 70 208.000107 61.046005 208.000107 50 C 208.000107 38.953995 198.61911 30 187.048096 30 L 68.952103 30 C 57.3811 30 48.000099 38.953995 48.000099 50 C 48.000099 61.046005 57.3811 70 68.952103 70"/>
    <path id="path2" fill="#ffffff" stroke="none" d="M 204 216 L 52 216 L 52 80 L 204 80 Z M 204.190002 76 L 51.810001 76 C 49.706001 76 48 77.697006 48 79.789993 L 48 216.210999 C 48 218.304001 49.706001 220 51.810001 220 L 204.190002 220 C 206.294998 220 208 218.304001 208 216.210999 L 208 79.789993 C 208 77.697006 206.294998 76 204.190002 76"/>
</svg>
