<?xml version="1.0" encoding="UTF-8"?>
<!-- Generated by Pixelmator Pro 3.7.1 -->
<svg width="256" height="256" viewBox="0 0 256 256" xmlns="http://www.w3.org/2000/svg">
    <path id="Path" fill="#ffffff" stroke="none" d="M 244 180 C 244 184.417999 240.417999 188 236 188 L 180 188 C 172 188 172 180 172 180 L 172 120.290009 C 172 117.919998 170.07901 116 167.710999 116 L 160.175995 116 L 95.824005 116 L 84.289993 116 C 81.919998 116 80 117.919998 80 120.290009 L 80 180 C 80 180 80 188 72 188 L 20 188 C 15.582001 188 12 184.417999 12 180 L 12 92 C 12 87.582001 15.582001 84 20 84 L 236 84 C 240.417999 84 244 87.582001 244 92 Z M 95.824005 172 L 160.175995 172 C 162.287994 172 164 170.287994 164 168.175995 L 164 120 L 167.710999 120 C 167.869995 120 168 120.130005 168 120.290009 L 168 176 L 84 176 L 84 120.290009 C 84 120.130005 84.130005 120 84.289993 120 L 92 120 L 92 168.175995 C 92 170.287994 93.712006 172 95.824005 172 M 96 120 L 160 120 L 160 168 L 96 168 Z M 81.145996 188 C 83.158005 185.572998 84 182.47699 84 180 L 168 180 C 168 182.47699 168.843002 185.572998 170.854004 188 Z M 236 80 L 20 80 C 13.382996 80 8 85.382996 8 92 L 8 180 C 8 186.617004 13.382996 192 20 192 L 80 192 L 172 192 L 236 192 C 242.617004 192 248 186.617004 248 180 L 248 92 C 248 85.382996 242.617004 80 236 80"/>
    <path id="path1" fill="#ffffff" stroke="none" d="M 160 106 C 160 107.104004 159.104004 108 158 108 L 98 108 C 96.895996 108 96 107.104004 96 106 L 96 94 C 96 92.895996 96.895996 92 98 92 L 158 92 C 159.104004 92 160 92.895996 160 94 Z M 158 88 L 98 88 C 94.691002 88 92 90.690994 92 94 L 92 106 C 92 109.309006 94.691002 112 98 112 L 158 112 C 161.309006 112 164 109.309006 164 106 L 164 94 C 164 90.690994 161.309006 88 158 88"/>
    <path id="path2" fill="#ffffff" stroke="none" d="M 46 142 C 50.417999 142 54 145.582001 54 150 C 54 154.417999 50.417999 158 46 158 C 41.582001 158 38 154.417999 38 150 C 38 145.582001 41.582001 142 46 142 M 46 162 C 52.626999 162 58 156.626999 58 150 C 58 143.373001 52.626999 138 46 138 C 39.373001 138 34 143.373001 34 150 C 34 156.626999 39.373001 162 46 162"/>
    <path id="path3" fill="#ffffff" stroke="none" d="M 146 156 L 138 156 C 136.895996 156 136 155.104004 136 154 C 136 152.895996 136.895996 152 138 152 L 146 152 C 147.104004 152 148 152.895996 148 154 C 148 155.104004 147.104004 156 146 156 M 146 148 L 138 148 C 134.690994 148 132 150.69101 132 154 C 132 157.30899 134.690994 160 138 160 L 146 160 C 149.309006 160 152 157.30899 152 154 C 152 150.69101 149.309006 148 146 148"/>
    <path id="path4" fill="#ffffff" stroke="none" d="M 148 138 C 148 139.104004 147.104004 140 146 140 C 144.895996 140 144 139.104004 144 138 L 144 134 C 144 132.895996 144.895996 132 146 132 C 147.104004 132 148 132.895996 148 134 Z M 136 138 C 136 139.104004 135.104004 140 134 140 C 132.895996 140 132 139.104004 132 138 L 132 134 C 132 132.895996 132.895996 132 134 132 C 135.104004 132 136 132.895996 136 134 Z M 124 138 C 124 139.104004 123.104004 140 122 140 C 120.895996 140 120 139.104004 120 138 L 120 134 C 120 132.895996 120.895996 132 122 132 C 123.104004 132 124 132.895996 124 134 Z M 112 138 C 112 139.104004 111.104004 140 110 140 C 108.895996 140 108 139.104004 108 138 L 108 134 C 108 132.895996 108.895996 132 110 132 C 111.104004 132 112 132.895996 112 134 Z M 146 128 C 142.690994 128 140 130.69101 140 134 C 140 130.69101 137.309006 128 134 128 C 130.690994 128 128 130.69101 128 134 C 128 130.69101 125.308998 128 122 128 C 118.691002 128 116 130.69101 116 134 C 116 130.69101 113.308998 128 110 128 C 106.691002 128 104 130.69101 104 134 L 104 138 C 104 141.30899 106.691002 144 110 144 C 113.308998 144 116 141.30899 116 138 C 116 141.30899 118.691002 144 122 144 C 125.308998 144 128 141.30899 128 138 C 128 141.30899 130.690994 144 134 144 C 137.309006 144 140 141.30899 140 138 C 140 141.30899 142.690994 144 146 144 C 149.309006 144 152 141.30899 152 138 L 152 134 C 152 130.69101 149.309006 128 146 128"/>
    <path id="path5" fill="#ffffff" stroke="none" d="M 120 160 C 117.791 160 116 158.209 116 156 C 116 153.791 117.791 152 120 152 C 122.209 152 124 153.791 124 156 C 124 158.209 122.209 160 120 160 M 112 158 C 112 159.104004 111.104004 160 110 160 C 108.895996 160 108 159.104004 108 158 L 108 154 C 108 152.895996 108.895996 152 110 152 C 111.104004 152 112 152.895996 112 154 Z M 120 148 C 117.907997 148 116.007004 148.813004 114.580002 150.132996 C 113.479004 148.830002 111.834999 148 110 148 C 106.691002 148 104 150.69101 104 154 L 104 158 C 104 161.30899 106.691002 164 110 164 C 111.834999 164 113.479004 163.169998 114.580002 161.867004 C 116.007004 163.186996 117.907997 164 120 164 C 124.411003 164 128 160.411011 128 156 C 128 151.588989 124.411003 148 120 148"/>
    <path id="path6" fill="#ffffff" stroke="none" d="M 68 172 L 24 172 L 24 128 L 68 128 Z M 68 124 L 24 124 C 21.791 124 20 125.791 20 128 L 20 172 C 20 174.209 21.791 176 24 176 L 68 176 C 70.209 176 72 174.209 72 172 L 72 128 C 72 125.791 70.209 124 68 124"/>
    <path id="path7" fill="#ffffff" stroke="none" d="M 210 142 C 214.417999 142 218 145.582001 218 150 C 218 154.417999 214.417999 158 210 158 C 205.582001 158 202 154.417999 202 150 C 202 145.582001 205.582001 142 210 142 M 210 162 C 216.626999 162 222 156.626999 222 150 C 222 143.373001 216.626999 138 210 138 C 203.373001 138 198 143.373001 198 150 C 198 156.626999 203.373001 162 210 162"/>
    <path id="path8" fill="#ffffff" stroke="none" d="M 232 172 L 188 172 L 188 128 L 232 128 Z M 232 124 L 188 124 C 185.791 124 184 125.791 184 128 L 184 172 C 184 174.209 185.791 176 188 176 L 232 176 C 234.209 176 236 174.209 236 172 L 236 128 C 236 125.791 234.209 124 232 124"/>
    <path id="path9" fill="#ffffff" stroke="none" d="M 86 92 L 26 92 C 24.896 92 24 92.895996 24 94 C 24 95.104004 24.896 96 26 96 L 86 96 C 87.103996 96 88 95.104004 88 94 C 88 92.895996 87.103996 92 86 92"/>
    <path id="path10" fill="#ffffff" stroke="none" d="M 86 100 L 26 100 C 24.896 100 24 100.895996 24 102 C 24 103.104004 24.896 104 26 104 L 86 104 C 87.103996 104 88 103.104004 88 102 C 88 100.895996 87.103996 100 86 100"/>
    <path id="path11" fill="#ffffff" stroke="none" d="M 86 108 L 26 108 C 24.896 108 24 108.895996 24 110 C 24 111.104004 24.896 112 26 112 L 86 112 C 87.103996 112 88 111.104004 88 110 C 88 108.895996 87.103996 108 86 108"/>
    <path id="path12" fill="#ffffff" stroke="none" d="M 170 96 L 230 96 C 231.104004 96 232 95.104004 232 94 C 232 92.895996 231.104004 92 230 92 L 170 92 C 168.895996 92 168 92.895996 168 94 C 168 95.104004 168.895996 96 170 96"/>
    <path id="path13" fill="#ffffff" stroke="none" d="M 170 104 L 230 104 C 231.104004 104 232 103.104004 232 102 C 232 100.895996 231.104004 100 230 100 L 170 100 C 168.895996 100 168 100.895996 168 102 C 168 103.104004 168.895996 104 170 104"/>
    <path id="path14" fill="#ffffff" stroke="none" d="M 232 110 C 232 108.895996 231.104004 108 230 108 L 170 108 C 168.895996 108 168 108.895996 168 110 C 168 111.104004 168.895996 112 170 112 L 230 112 C 231.104004 112 232 111.104004 232 110"/>
</svg>
