<?xml version="1.0" encoding="UTF-8"?>
<!-- Generated by Pixelmator Pro 3.7.1 -->
<svg width="256" height="256" viewBox="0 0 256 256" xmlns="http://www.w3.org/2000/svg">
    <path id="Path" fill="#ffffff" stroke="none" d="M 68 40 L 188 40 L 188 108 L 68 108 Z M 64 112 L 192 112 L 192 36 L 64 36 Z"/>
    <path id="path1" fill="#ffffff" stroke="none" d="M 226 126 C 224.895996 126 224 126.895996 224 128 C 224 129.104004 224.895996 130 226 130 C 227.104004 130 228 129.104004 228 128 C 228 126.895996 227.104004 126 226 126"/>
    <path id="path2" fill="#ffffff" stroke="none" d="M 44 172 C 39.582001 172 36 168.417999 36 164 C 36 159.582001 39.582001 156 44 156 C 48.417999 156 52 159.582001 52 164 C 52 168.417999 48.417999 172 44 172 M 44 152 C 37.382999 152 32 157.382996 32 164 C 32 170.617004 37.382999 176 44 176 C 50.617001 176 56 170.617004 56 164 C 56 157.382996 50.617001 152 44 152"/>
    <path id="path3" fill="#ffffff" stroke="none" d="M 176 220 L 80 220 L 80 148 L 176 148 Z M 180 144 L 76 144 L 76 224 L 180 224 Z"/>
    <path id="path4" fill="#ffffff" stroke="none" d="M 199 210 C 200.656998 210 202 211.343002 202 213 C 202 214.656998 200.656998 216 199 216 C 197.343002 216 196 214.656998 196 213 C 196 211.343002 197.343002 210 199 210 M 199 220 C 202.858994 220 206 216.859009 206 213 C 206 209.140991 202.858994 206 199 206 C 195.141006 206 192 209.140991 192 213 C 192 216.859009 195.141006 220 199 220"/>
    <path id="path5" fill="#ffffff" stroke="none" d="M 199 224 C 200.656998 224 202 225.343002 202 227 C 202 228.656998 200.656998 230 199 230 C 197.343002 230 196 228.656998 196 227 C 196 225.343002 197.343002 224 199 224 M 199 234 C 202.858994 234 206 230.859009 206 227 C 206 223.140991 202.858994 220 199 220 C 195.141006 220 192 223.140991 192 227 C 192 230.859009 195.141006 234 199 234"/>
    <path id="path6" fill="#ffffff" stroke="none" d="M 226 182 C 222.686996 182 220 179.313004 220 176 C 220 172.686996 222.686996 170 226 170 C 229.313004 170 232 172.686996 232 176 C 232 179.313004 229.313004 182 226 182 M 214 194 C 210.686996 194 208 191.313004 208 188 C 208 184.686996 210.686996 182 214 182 C 217.313004 182 220 184.686996 220 188 C 220 191.313004 217.313004 194 214 194 M 202 182 C 198.686996 182 196 179.313004 196 176 C 196 172.686996 198.686996 170 202 170 C 205.313004 170 208 172.686996 208 176 C 208 179.313004 205.313004 182 202 182 M 216.257004 178.257004 C 215.531006 178.088989 214.774994 178 214 178 C 213.225006 178 212.468994 178.088989 211.742996 178.257004 C 211.910995 177.531006 212 176.774994 212 176 C 212 175.225006 211.910995 174.468994 211.742996 173.742996 C 212.468994 173.911011 213.225006 174 214 174 C 214.774994 174 215.531006 173.911011 216.257004 173.742996 C 216.089005 174.468994 216 175.225006 216 176 C 216 176.774994 216.089005 177.531006 216.257004 178.257004 M 214 158 C 217.313004 158 220 160.686996 220 164 C 220 167.313004 217.313004 170 214 170 C 210.686996 170 208 167.313004 208 164 C 208 160.686996 210.686996 158 214 158 M 226 166 C 225.225006 166 224.468994 166.088989 223.742996 166.257004 C 223.910995 165.531006 224 164.774994 224 164 C 224 158.485992 219.514008 154 214 154 C 208.485992 154 204 158.485992 204 164 C 204 164.774994 204.089005 165.531006 204.257004 166.257004 C 203.531006 166.088989 202.774994 166 202 166 C 196.485992 166 192 170.485992 192 176 C 192 181.514008 196.485992 186 202 186 C 202.774994 186 203.531006 185.911011 204.257004 185.742996 C 204.089005 186.468994 204 187.225006 204 188 C 204 193.514008 208.485992 198 214 198 C 219.514008 198 224 193.514008 224 188 C 224 187.225006 223.910995 186.468994 223.742996 185.742996 C 224.468994 185.911011 225.225006 186 226 186 C 231.514008 186 236 181.514008 236 176 C 236 170.485992 231.514008 166 226 166"/>
    <path id="path7" fill="#ffffff" stroke="none" d="M 30 60 C 28.896 60 28 60.895996 28 62 C 28 63.104004 28.896 64 30 64 C 31.104 64 32 63.104004 32 62 C 32 60.895996 31.104 60 30 60"/>
    <path id="path8" fill="#ffffff" stroke="none" d="M 38 64 C 39.104 64 40 63.104004 40 62 C 40 60.895996 39.104 60 38 60 C 36.896 60 36 60.895996 36 62 C 36 63.104004 36.896 64 38 64"/>
    <path id="path9" fill="#ffffff" stroke="none" d="M 38 56 C 39.104 56 40 55.104004 40 54 C 40 52.895996 39.104 52 38 52 C 36.896 52 36 52.895996 36 54 C 36 55.104004 36.896 56 38 56"/>
    <path id="path10" fill="#ffffff" stroke="none" d="M 38 72 C 39.104 72 40 71.104004 40 70 C 40 68.895996 39.104 68 38 68 C 36.896 68 36 68.895996 36 70 C 36 71.104004 36.896 72 38 72"/>
    <path id="path11" fill="#ffffff" stroke="none" d="M 46 64 C 47.104 64 48 63.104004 48 62 C 48 60.895996 47.104 60 46 60 C 44.896 60 44 60.895996 44 62 C 44 63.104004 44.896 64 46 64"/>
    <path id="path12" fill="#ffffff" stroke="none" d="M 210 60 C 208.895996 60 208 60.895996 208 62 C 208 63.104004 208.895996 64 210 64 C 211.104004 64 212 63.104004 212 62 C 212 60.895996 211.104004 60 210 60"/>
    <path id="path13" fill="#ffffff" stroke="none" d="M 218 60 C 216.895996 60 216 60.895996 216 62 C 216 63.104004 216.895996 64 218 64 C 219.104004 64 220 63.104004 220 62 C 220 60.895996 219.104004 60 218 60"/>
    <path id="path14" fill="#ffffff" stroke="none" d="M 218 52 C 216.895996 52 216 52.895996 216 54 C 216 55.104004 216.895996 56 218 56 C 219.104004 56 220 55.104004 220 54 C 220 52.895996 219.104004 52 218 52"/>
    <path id="path15" fill="#ffffff" stroke="none" d="M 218 68 C 216.895996 68 216 68.895996 216 70 C 216 71.104004 216.895996 72 218 72 C 219.104004 72 220 71.104004 220 70 C 220 68.895996 219.104004 68 218 68"/>
    <path id="path16" fill="#ffffff" stroke="none" d="M 226 60 C 224.895996 60 224 60.895996 224 62 C 224 63.104004 224.895996 64 226 64 C 227.104004 64 228 63.104004 228 62 C 228 60.895996 227.104004 60 226 60"/>
    <path id="path17" fill="#ffffff" stroke="none" d="M 236 118 C 236 119.104004 235.104004 120 234 120 L 232 120 L 216 120 L 212 120 L 202.917999 120 C 203.602005 118.822006 204 117.457993 204 116 L 204 32 C 204 27.588989 200.410995 24 196 24 L 179.313995 24 C 179.748993 23.088989 180 22.074997 180 21 C 180 17.139999 176.859009 14 173 14 C 169.140991 14 166 17.139999 166 21 C 166 22.074997 166.251007 23.088989 166.686005 24 L 140.459 24 C 141.414001 22.936996 142 21.537994 142 20 C 142 16.69101 139.30899 14 136 14 C 135.203003 14 134.442001 14.156006 133.746002 14.438995 C 132.291 12.936005 130.252991 12 128 12 C 123.588997 12 120 15.588989 120 20 C 120 21.458008 120.398003 22.821991 121.083 24 L 89.315002 24 C 89.75 23.088989 90 22.074997 90 21 C 90 17.139999 86.860001 14 83 14 C 79.139999 14 76 17.139999 76 21 C 76 22.074997 76.25 23.088989 76.684998 24 L 60 24 C 55.589005 24 52 27.588989 52 32 L 52 116 C 52 117.457993 52.397995 118.822006 53.082993 120 L 44 120 L 40 120 L 24 120 L 22 120 C 20.895996 120 20 119.104004 20 118 L 20 28 C 20 19.164001 25.164001 12 34 12 L 128 12 L 222 12 C 230.837006 12 236 19.164001 236 28 Z M 194 151 C 194 148.238007 196.238007 146 199 146 C 201.761993 146 204 148.238007 204 151 C 204 153.761993 201.761993 156 199 156 C 196.238007 156 194 153.761993 194 151 M 236 176 L 236 229.290009 C 236 237.557007 228.837006 244.257996 220 244.257996 L 186.264008 244.257996 C 189.765991 241.320007 192 236.917999 192 232 L 192 227 L 192 213 L 192 176 L 192 156.645004 C 193.651001 158.688004 196.173996 160 199 160 C 203.962997 160 208 155.962997 208 151 C 208 146.037003 203.962997 142 199 142 C 196.173996 142 193.651001 143.311996 192 145.354996 L 192 140 C 192 138.541992 191.602005 137.179001 190.917999 136 L 212 136 L 216 136 L 232 136 C 233.539001 136 234.938004 135.416 236 134.462997 L 236 135.742004 Z M 44 181 C 34.610992 181 27 173.389008 27 164 C 27 154.610992 34.610992 147 44 147 C 53.389008 147 61 154.610992 61 164 C 61 173.389008 53.389008 181 44 181 M 57 198 C 57.552002 198 58 198.446991 58 199 L 58 205 C 58 205.553009 57.552002 206 57 206 L 48 206 L 48 215 C 48 215.553009 47.552002 216 47 216 L 41 216 C 40.447998 216 40 215.553009 40 215 L 40 206 L 31 206 C 30.447998 206 30 205.553009 30 205 L 30 199 C 30 198.446991 30.447998 198 31 198 L 40 198 L 40 189 C 40 188.446991 40.447998 188 41 188 L 47 188 C 47.552002 188 48 188.446991 48 189 L 48 198 Z M 36 244.257996 C 27.164001 244.257996 20 237.557007 20 229.290009 L 20 135.742004 L 20 134.462997 C 21.061996 135.416 22.460999 136 24 136 L 40 136 L 44 136 L 65.082993 136 C 64.397995 137.179001 64 138.541992 64 140 L 64 157.613998 C 61.291 149.14801 53.352997 143 44 143 C 32.419998 143 23 152.421005 23 164 C 23 173.877991 29.863998 182.162003 39.065994 184.390991 C 37.266998 185.14801 36 186.929001 36 189 L 36 194 L 31 194 C 28.242996 194 26 196.242996 26 199 L 26 205 C 26 207.757004 28.242996 210 31 210 L 36 210 L 36 215 C 36 217.757004 38.242996 220 41 220 L 47 220 C 49.757004 220 52 217.757004 52 215 L 52 210 L 57 210 C 59.757004 210 62 207.757004 62 205 L 62 199 C 62 196.242996 59.757004 194 57 194 L 52 194 L 52 189 C 52 186.929001 50.733002 185.14801 48.934006 184.390991 C 56.061996 182.664001 61.783997 177.311005 64 170.386002 L 64 232 C 64 236.917999 66.233994 241.320007 69.735992 244.257996 Z M 40 132 L 24 132 C 22.897003 132 22 131.102997 22 130 L 22 126 C 22 124.897003 22.897003 124 24 124 L 40 124 Z M 124 240 C 121.791 240 120 238.209 120 236 C 120 233.791 121.791 232 124 232 L 132 232 C 134.209 232 136 233.791 136 236 C 136 238.209 134.209 240 132 240 Z M 188 140 L 188 232 C 188 238.626999 182.626999 244 176 244 L 132 244 C 136.411011 244 140 240.411011 140 236 C 140 231.588989 136.411011 228 132 228 L 124 228 C 119.588997 228 116 231.588989 116 236 C 116 240.411011 119.588997 244 124 244 L 80 244 C 73.373001 244 68 238.626999 68 232 L 68 140 C 68 137.791 69.791 136 72 136 L 184 136 C 186.209 136 188 137.791 188 140 M 234 126 L 234 130 C 234 131.102997 233.102997 132 232 132 L 216 132 L 216 124 L 232 124 C 233.102997 124 234 124.897003 234 126 M 60 124 L 196 124 L 212 124 L 212 132 L 184 132 L 72 132 L 44 132 L 44 124 Z M 170 21 C 170 19.343002 171.343002 18 173 18 C 174.656998 18 176 19.343002 176 21 C 176 22.656998 174.656998 24 173 24 C 171.343002 24 170 22.656998 170 21 M 134 20 C 134 18.895996 134.895996 18 136 18 C 137.104004 18 138 18.895996 138 20 C 138 21.104004 137.104004 22 136 22 C 134.895996 22 134 21.104004 134 20 M 124 20 C 124 17.791 125.791 16 128 16 C 130.209 16 132 17.791 132 20 C 132 22.209 130.209 24 128 24 C 125.791 24 124 22.209 124 20 M 80 21 C 80 19.343002 81.343002 18 83 18 C 84.656998 18 86 19.343002 86 21 C 86 22.656998 84.656998 24 83 24 C 81.343002 24 80 22.656998 80 21 M 56 116 L 56 32 C 56 29.791 57.791 28 60 28 L 196 28 C 198.209 28 200 29.791 200 32 L 200 116 C 200 118.209 198.209 120 196 120 L 60 120 C 57.791 120 56 118.209 56 116 M 222 8 L 34 8 C 22.972 8 16 16.972 16 28 L 16 118 C 16 120.764008 15.880997 123.089996 18.427994 123.783997 C 18.154999 124.470001 18 125.216003 18 126 L 18 130 C 18 130.811996 18.162994 131.584991 18.455002 132.291 C 17.013 132.856003 16 134.186996 16 135.742004 L 16 229.290009 C 16 239.623001 24.953995 248 36 248 L 80 248 L 176 248 L 220 248 C 231.046005 248 240 239.623001 240 229.290009 L 240 135.742004 C 240 134.186996 238.985992 132.856003 237.544998 132.291 C 237.837006 131.584991 238 130.811996 238 130 L 238 126 C 238 125.216003 237.845993 124.470001 237.572006 123.783997 C 240.119003 123.089996 240 120.764008 240 118 L 240 28 C 240 16.972 233.028 8 222 8"/>
    <path id="path18" fill="#ffffff" stroke="none" d="M 24 112 L 20 112 L 20 88 L 24 88 Z"/>
    <path id="path19" fill="#ffffff" stroke="none" d="M 236 112 L 232 112 L 232 88 L 236 88 Z"/>
</svg>
