<?xml version="1.0" encoding="UTF-8"?>
<!-- Generated by Pixelmator Pro 3.7.1 -->
<svg width="256" height="256" viewBox="0 0 256 256" xmlns="http://www.w3.org/2000/svg">
    <path id="Path" fill="#ffffff" stroke="none" d="M 127.997101 167.504898 C 106.297096 167.504898 88.577103 149.849899 88.496101 128.148895 C 88.4561 117.614899 92.532097 107.683899 99.974098 100.185898 C 107.4161 92.686905 117.317101 88.534897 127.851097 88.495895 L 128.002106 88.494904 C 149.700104 88.493896 167.418106 106.148895 167.500092 127.851898 C 167.539093 138.384903 163.463104 148.315903 156.021103 155.814911 C 148.580093 163.313904 138.681107 167.464905 128.148102 167.504898 Z M 128.009094 7.999893 L 127.549103 8.0009 C 95.494102 8.120895 65.406097 20.715897 42.827103 43.465897 C 20.2481 66.214905 7.880103 96.396896 8.001098 128.450897 C 8.1211 160.423889 20.662102 190.458893 43.313103 213.020905 C 65.959099 235.576904 96.031097 247.999908 127.991096 247.999908 L 128.451096 247.998901 C 160.498093 247.878906 190.584106 235.282898 213.166092 212.533905 C 235.7491 189.781891 248.119095 159.601898 247.9991 127.548904 C 247.879105 95.577896 235.33609 65.5439 212.680099 42.978897 C 190.031097 20.421906 159.961105 7.999893 128.009094 7.999893 M 127.997101 171.504898 L 128.164093 171.504898 C 152.151093 171.41391 171.590103 151.823898 171.500092 127.836899 C 171.410095 103.902893 151.916107 84.492905 128.002106 84.494904 C 127.948097 84.494904 127.891098 84.494904 127.836098 84.495895 C 103.844101 84.585907 84.405098 104.175903 84.496101 128.16391 C 84.585098 152.096893 104.079102 171.504898 127.997101 171.504898 M 128.009094 11.999893 C 191.856094 11.999893 243.759094 63.647903 243.9991 127.564896 C 244.23909 191.629898 192.486099 243.758896 128.435104 243.998901 C 128.287094 243.999908 128.139099 243.999908 127.991096 243.999908 C 64.1241 243.999908 12.241103 192.352905 12.001098 128.435898 C 11.7601 64.369904 63.494102 12.240891 127.564102 12.0009 C 127.713097 12.0009 127.861099 11.999893 128.009094 11.999893"/>
    <path id="path1" fill="#ffffff" stroke="none" d="M 139.349594 139.261703 C 136.337601 142.296692 132.328598 143.977692 128.063599 143.992706 L 128.001602 143.992706 C 119.209602 143.992706 112.029602 136.845703 111.996597 128.059692 C 111.9636 119.234695 119.117599 112.026703 127.943604 111.993698 L 128.004593 111.992706 C 136.789597 111.992706 143.963593 119.146698 143.995605 127.939697 C 144.012604 132.205688 142.362595 136.2267 139.349594 139.261703 M 128.004593 107.992706 C 127.979599 107.992706 127.953598 107.992706 127.928604 107.993698 C 116.905602 108.034698 107.955605 117.038696 107.996597 128.074707 C 108.037598 139.079697 117.013603 147.992706 128.001602 147.992706 L 128.078598 147.992706 C 139.108597 147.951691 148.037598 138.953705 147.995605 127.924698 C 147.954605 116.913696 138.999603 107.991699 128.004593 107.992706"/>
</svg>
