<?xml version="1.0" encoding="UTF-8"?>
<!-- Generated by Pixelmator Pro 3.7.1 -->
<svg width="256" height="256" viewBox="0 0 256 256" xmlns="http://www.w3.org/2000/svg">
    <path id="Path" fill="#ffffff" stroke="none" d="M 72 28 L 184 28 L 184 108 L 72 108 Z M 184 112 L 188 112 L 188 108 L 188 28 L 188 24 L 184 24 L 72 24 L 68 24 L 68 28 L 68 108 L 68 112 L 72 112 Z"/>
    <path id="path1" fill="#ffffff" stroke="none" d="M 42 96 L 46 96 C 47.104 96 48 95.104004 48 94 C 48 92.895996 47.104 92 46 92 L 42 92 C 40.896 92 40 92.895996 40 94 C 40 95.104004 40.896 96 42 96"/>
    <path id="path2" fill="#ffffff" stroke="none" d="M 210 96 L 214 96 C 215.104004 96 216 95.104004 216 94 C 216 92.895996 215.104004 92 214 92 L 210 92 C 208.895996 92 208 92.895996 208 94 C 208 95.104004 208.895996 96 210 96"/>
    <path id="path3" fill="#ffffff" stroke="none" d="M 40 124 L 36 124 L 36 132 L 40 132 Z"/>
    <path id="path4" fill="#ffffff" stroke="none" d="M 32 124 L 28 124 L 28 132 L 32 132 Z"/>
    <path id="path5" fill="#ffffff" stroke="none" d="M 24 124 L 20 124 L 20 132 L 24 132 Z"/>
    <path id="path6" fill="#ffffff" stroke="none" d="M 48 187 C 48 187.553009 47.551998 188 47 188 L 41 188 C 40.447998 188 40 187.553009 40 187 L 40 178 L 31 178 C 30.448 178 30 177.553009 30 177 L 30 171 C 30 170.446991 30.448 170 31 170 L 40 170 L 40 161 C 40 160.446991 40.447998 160 41 160 L 47 160 C 47.551998 160 48 160.446991 48 161 L 48 170 L 57 170 C 57.552002 170 58 170.446991 58 171 L 58 177 C 58 177.553009 57.552002 178 57 178 L 48 178 Z M 52 187 L 52 182 L 57 182 C 59.757 182 62 179.757004 62 177 L 62 171 C 62 168.242996 59.757 166 57 166 L 52 166 L 52 161 C 52 158.242996 49.757 156 47 156 L 41 156 C 38.243 156 36 158.242996 36 161 L 36 166 L 31 166 C 28.243 166 26 168.242996 26 171 L 26 177 C 26 179.757004 28.243 182 31 182 L 36 182 L 36 187 C 36 189.757004 38.243 192 41 192 L 47 192 C 49.757 192 52 189.757004 52 187"/>
    <path id="path7" fill="#ffffff" stroke="none" d="M 226.193405 176.386703 C 222.986404 176.386703 220.386398 173.786697 220.386398 170.580688 C 220.386398 167.373703 222.986404 164.774689 226.193405 164.774689 C 229.400406 164.774689 232.000397 167.373703 232.000397 170.580688 C 232.000397 173.786697 229.400406 176.386703 226.193405 176.386703 M 214.000397 187.999695 C 210.793396 187.999695 208.193405 185.400696 208.193405 182.193695 C 208.193405 178.986694 210.793396 176.386703 214.000397 176.386703 C 217.207397 176.386703 219.806396 178.986694 219.806396 182.193695 C 219.806396 185.400696 217.207397 187.999695 214.000397 187.999695 M 196.000397 170.580688 C 196.000397 167.373703 198.599396 164.774689 201.806396 164.774689 C 205.013397 164.774689 207.613403 167.373703 207.613403 170.580688 C 207.613403 173.786697 205.013397 176.386703 201.806396 176.386703 C 198.599396 176.386703 196.000397 173.786697 196.000397 170.580688 M 217.026398 167.1297 C 216.620407 168.204697 216.386398 169.365692 216.386398 170.580688 C 216.386398 171.329697 216.479401 172.056702 216.638397 172.75769 C 215.797394 172.522705 214.915405 172.386703 214.000397 172.386703 C 213.085403 172.386703 212.202393 172.522705 211.361404 172.75769 C 211.520401 172.056702 211.613403 171.329697 211.613403 170.580688 C 211.613403 169.365692 211.380402 168.204697 210.973404 167.1297 C 211.927399 167.440704 212.943405 167.613708 214.000397 167.613708 C 215.056396 167.613708 216.072403 167.440704 217.026398 167.1297 M 214.000397 151.999695 C 217.207397 151.999695 219.806396 154.599701 219.806396 157.806702 C 219.806396 161.013702 217.207397 163.613708 214.000397 163.613708 C 210.793396 163.613708 208.193405 161.013702 208.193405 157.806702 C 208.193405 154.599701 210.793396 151.999695 214.000397 151.999695 M 226.193405 160.774689 C 225.137405 160.774689 224.122406 160.947693 223.168396 161.256699 C 223.574402 160.181702 223.806396 159.022705 223.806396 157.806702 C 223.806396 152.399704 219.407394 147.999695 214.000397 147.999695 C 208.592407 147.999695 204.193405 152.399704 204.193405 157.806702 C 204.193405 159.022705 204.4254 160.181702 204.832397 161.256699 C 203.878403 160.947693 202.862396 160.774689 201.806396 160.774689 C 196.399399 160.774689 192.000397 165.173706 192.000397 170.580688 C 192.000397 175.988708 196.399399 180.386703 201.806396 180.386703 C 202.721405 180.386703 203.604401 180.251709 204.445404 180.015701 C 204.286407 180.717697 204.193405 181.444702 204.193405 182.193695 C 204.193405 187.600708 208.592407 191.999695 214.000397 191.999695 C 219.407394 191.999695 223.806396 187.600708 223.806396 182.193695 C 223.806396 181.444702 223.714401 180.717697 223.554398 180.015701 C 224.395401 180.251709 225.278397 180.386703 226.193405 180.386703 C 231.600403 180.386703 236.000397 175.988708 236.000397 170.580688 C 236.000397 165.173706 231.600403 160.774689 226.193405 160.774689"/>
    <path id="path8" fill="#ffffff" stroke="none" d="M 194 214 C 194 211.791 195.791 210 198 210 C 200.209 210 202 211.791 202 214 C 202 216.209 200.209 218 198 218 C 195.791 218 194 216.209 194 214 M 202 226 C 202 228.209 200.209 230 198 230 C 195.791 230 194 228.209 194 226 C 194 223.791 195.791 222 198 222 C 200.209 222 202 223.791 202 226 M 206 214 C 206 209.589005 202.410995 206 198 206 C 193.589005 206 190 209.589005 190 214 C 190 216.390991 191.059006 218.533005 192.727005 220 C 191.059006 221.466995 190 223.609009 190 226 C 190 230.410995 193.589005 234 198 234 C 202.410995 234 206 230.410995 206 226 C 206 223.609009 204.940994 221.466995 203.272995 220 C 204.940994 218.533005 206 216.390991 206 214"/>
    <path id="path9" fill="#ffffff" stroke="none" d="M 58 230 C 55.791 230 54 228.209 54 226 C 54 223.791 55.791 222 58 222 C 60.209 222 62 223.791 62 226 C 62 228.209 60.209 230 58 230 M 58 218 C 53.589001 218 50 221.589005 50 226 C 50 230.410995 53.589001 234 58 234 C 62.410999 234 66 230.410995 66 226 C 66 221.589005 62.410999 218 58 218"/>
    <path id="path10" fill="#ffffff" stroke="none" d="M 184 232 L 72 232 L 72 148 L 184 148 Z M 72 144 L 68 144 L 68 148 L 68 232 L 68 236 L 72 236 L 184 236 L 188 236 L 188 232 L 188 148 L 188 144 L 184 144 Z"/>
    <path id="path11" fill="#ffffff" stroke="none" d="M 240 132 C 240 134.209 238.209 136 236 136 L 212 136 L 212 120 L 236 120 C 238.209 120 240 121.791 240 124 Z M 232 240 L 24 240 C 19.582001 240 16 236.417999 16 232 L 16 138.917999 C 17.177994 139.60199 18.542007 140 20 140 L 236 140 C 237.457993 140 238.820999 139.60199 240 138.917999 L 240 232 C 240 236.417999 236.417999 240 232 240 M 16 124 C 16 121.791 17.791 120 20 120 L 44 120 L 44 136 L 20 136 C 17.791 136 16 134.209 16 132 Z M 129 124 C 130.656998 124 132 125.343002 132 127 L 132 129 C 132 130.656998 130.656998 132 129 132 L 127 132 C 125.343002 132 124 130.656998 124 129 L 124 127 C 124 125.343002 125.343002 124 127 124 Z M 48 120 L 127 120 C 123.139999 120 120 123.139999 120 127 L 120 129 C 120 132.859009 123.139999 136 127 136 L 48 136 Z M 208 136 L 129 136 C 132.859009 136 136 132.859009 136 129 L 136 127 C 136 123.139999 132.859009 120 129 120 L 208 120 Z M 16 20 C 16 15.582001 19.582001 12 24 12 L 232 12 C 236.417999 12 240 15.582001 240 20 L 240 116 L 240 117.083008 C 238.820999 116.397995 237.457993 116 236 116 L 20 116 C 18.542007 116 17.177994 116.397995 16 117.083008 L 16 116 Z M 232 8 L 24 8 C 17.382996 8 12 13.382996 12 20 L 12 120 L 12 124 L 12 132 L 12 232 C 12 238.617004 17.382996 244 24 244 L 232 244 C 238.617004 244 244 238.617004 244 232 L 244 132 L 244 124 L 244 120 L 244 20 C 244 13.382996 238.617004 8 232 8"/>
</svg>
