<?xml version="1.0" encoding="UTF-8"?>
<!-- Generated by Pixelmator Pro 3.7.1 -->
<svg width="256" height="256" viewBox="0 0 256 256" xmlns="http://www.w3.org/2000/svg">
    <path id="Path" fill="#ffffff" stroke="none" d="M 228 36 L 221.811996 36 C 220.811005 36 220 36.675995 220 37.509003 L 220 38.490997 C 220 39.324005 220.811005 40 221.811996 40 L 228 40 L 228 44 L 221.811996 44 C 220.811005 44 220 44.675995 220 45.509003 L 220 46.490997 C 220 47.324005 220.811005 48 221.811996 48 L 228 48 L 228 52 L 221.811996 52 C 220.811005 52 220 52.675995 220 53.509003 L 220 54.490997 C 220 55.324005 220.811005 56 221.811996 56 L 228 56 L 228 60 L 221.811996 60 C 220.811005 60 220 60.675995 220 61.509003 L 220 62.490997 C 220 63.324005 220.811005 64 221.811996 64 L 228 64 L 228 68 L 221.811996 68 C 220.811005 68 220 68.675995 220 69.509003 L 220 70.490997 C 220 71.324005 220.811005 72 221.811996 72 L 228 72 L 228 161.678009 L 228 229.031998 L 228 244 L 213.186005 244 L 42.815002 244 L 28 244 L 28 229.031998 L 28 161.678009 L 28 72 L 34.188995 72 C 35.188995 72 36 71.324005 36 70.490997 L 36 69.509003 C 36 68.675995 35.188995 68 34.188995 68 L 28 68 L 28 64 L 34.188995 64 C 35.188995 64 36 63.324005 36 62.490997 L 36 61.509003 C 36 60.675995 35.188995 60 34.188995 60 L 28 60 L 28 56 L 34.188995 56 C 35.188995 56 36 55.324005 36 54.490997 L 36 53.509003 C 36 52.675995 35.188995 52 34.188995 52 L 28 52 L 28 48 L 34.188995 48 C 35.188995 48 36 47.324005 36 46.490997 L 36 45.509003 C 36 44.675995 35.188995 44 34.188995 44 L 28 44 L 28 40 L 34.188995 40 C 35.188995 40 36 39.324005 36 38.490997 L 36 37.509003 C 36 36.675995 35.188995 36 34.188995 36 L 28 36 L 28 26.968002 C 28 18.701004 34.632996 12 42.815002 12 L 213.186005 12 C 221.367004 12 228 18.701004 228 26.968002 Z M 213.186005 8 L 42.815002 8 C 32.440002 8 24 16.509003 24 26.968002 L 24 36 L 24 40 L 24 44 L 24 48 L 24 52 L 24 56 L 24 60 L 24 64 L 24 68 L 24 72 L 24 161.678009 L 24 229.031998 L 24 244 L 24 248 L 28 248 L 42.815002 248 L 213.186005 248 L 228 248 L 232 248 L 232 244 L 232 229.031998 L 232 161.678009 L 232 72 L 232 68 L 232 64 L 232 60 L 232 56 L 232 52 L 232 48 L 232 44 L 232 40 L 232 36 L 232 26.968002 C 232 16.509003 223.559998 8 213.186005 8"/>
    <path id="path1" fill="#ffffff" stroke="none" d="M 204 213.0811 C 204 216.9021 200.759995 220.000092 196.761993 220.000092 L 59.238007 220.000092 C 55.240997 220.000092 52 216.9021 52 213.0811 L 52 98.919098 C 52 95.098099 55.240997 92.000092 59.238007 92.000092 L 196.761993 92.000092 C 200.759995 92.000092 204 95.098099 204 98.919098 Z M 196.761993 88.000092 L 59.238007 88.000092 C 53.042007 88.000092 48 92.898102 48 98.919098 L 48 213.0811 C 48 219.102097 53.042007 224.000092 59.238007 224.000092 L 196.761993 224.000092 C 202.959 224.000092 208 219.102097 208 213.0811 L 208 98.919098 C 208 92.898102 202.959 88.000092 196.761993 88.000092"/>
    <path id="path2" fill="#ffffff" stroke="none" d="M 204.147507 28.517593 C 205.250504 29.161606 206.000504 30.344604 206.000504 31.7146 L 206.000504 76.285599 C 206.000504 77.725601 205.171494 78.959595 203.973495 79.576599 C 198.414505 71.166595 198.898499 53.495605 204.147507 28.517593 M 56.991493 27.999603 L 200.169495 27.999603 C 194.854492 53.423599 194.6595 70.497604 199.593506 79.999603 L 57.567497 79.999603 C 62.501503 70.497604 62.307503 53.423599 56.991493 27.999603 M 50.000496 76.285599 L 50.000496 31.7146 C 50.000496 29.934601 51.253502 28.450607 52.924492 28.088593 C 58.332497 53.638596 58.795494 71.608597 52.958504 79.9216 C 51.269493 79.572601 50.000496 78.077606 50.000496 76.285599 M 204.254501 23.999603 L 202.286499 23.999603 L 201.013504 23.999603 L 56.147499 23.999603 L 53.7145 23.999603 L 52.906502 23.999603 C 48.635506 23.999603 45.161507 27.460602 45.161507 31.7146 L 45.161507 76.285599 C 45.161507 80.611603 48.563499 83.999603 52.906502 83.999603 L 53.7145 83.999603 L 54.968498 83.999603 L 202.192505 83.999603 L 202.286499 83.999603 L 204.254501 83.999603 C 208.597504 83.999603 212.000504 80.611603 212.000504 76.285599 L 212.000504 31.7146 C 212.000504 27.460602 208.525497 23.999603 204.254501 23.999603"/>
</svg>
