<?xml version="1.0" encoding="UTF-8"?>
<!-- Generated by Pixelmator Pro 3.7.1 -->
<svg width="256" height="256" viewBox="0 0 256 256" xmlns="http://www.w3.org/2000/svg">
    <path id="Path" fill="#ffffff" stroke="none" d="M 244 84 C 244 86.209 242.209 88 240 88 L 240 192 C 240 194.209 238.209 196 236 196 L 128.60199 196 L 129.177002 195.822998 L 155.177002 187.822998 L 167.60199 184 L 216.173996 184 C 220.488998 184 224 180.567001 224 176.347992 L 224 99.652008 C 224 95.432999 220.488998 92 216.173996 92 L 47.826004 92 C 43.511002 92 40 95.432999 40 99.652008 L 40 176.347992 C 40 180.567001 43.511002 184 47.826004 184 L 88.397995 184 L 100.824005 187.822998 L 126.823997 195.822998 L 127.398003 196 L 20 196 C 17.791 196 16 194.209 16 192 L 16 88 C 13.791 88 12 86.209 12 84 L 12 64 C 12 61.791 13.791 60 16 60 L 240 60 C 242.209 60 244 61.791 244 64 Z M 75.397995 180 L 47.826004 180 C 45.712997 180 44 178.36499 44 176.347992 L 44 99.652008 C 44 97.634995 45.712997 96 47.826004 96 L 216.173996 96 C 218.287003 96 220 97.634995 220 99.652008 L 220 176.347992 C 220 178.36499 218.287003 180 216.173996 180 L 180.602005 180 L 154 180 L 102 180 Z M 154 184 L 128 192 L 102 184 Z M 240 56 L 16 56 C 11.589005 56 8 59.589005 8 64 L 8 84 C 8 86.955002 9.610001 89.541 12 90.925995 L 12 192 C 12 196.411011 15.589005 200 20 200 L 236 200 C 240.410995 200 244 196.411011 244 192 L 244 90.925995 C 246.389999 89.541 248 86.955002 248 84 L 248 64 C 248 59.589005 244.410995 56 240 56"/>
    <path id="path1" fill="#ffffff" stroke="none" d="M 128 72.799805 C 101.070999 72.799805 74.143005 75.199799 50 79.999802 C 74.143005 71.999802 101.070999 67.999802 128 67.999802 C 154.929001 67.999802 181.856995 71.999802 206 79.999802 C 181.856995 75.199799 154.929001 72.799805 128 72.799805 M 207.257996 76.202805 C 183.166 68.219803 155.759003 63.999802 128 63.999802 C 100.240997 63.999802 72.834 68.219803 48.741997 76.202805 C 46.736 76.867798 45.593002 78.977798 46.132004 81.020798 C 46.603996 82.804794 48.214996 84.000793 49.997002 84.000793 C 50.254997 84.000793 50.516998 83.9758 50.779999 83.923798 C 74.219002 79.262802 100.920998 76.799805 128 76.799805 C 155.078995 76.799805 181.781006 79.262802 205.220001 83.923798 C 205.481995 83.9758 205.744995 84.000793 206.002991 84.000793 C 207.785004 84.000793 209.395996 82.804794 209.867004 81.020798 C 210.406998 78.977798 209.264008 76.867798 207.257996 76.202805"/>
</svg>
