<?xml version="1.0" encoding="UTF-8"?>
<!-- Generated by Pixelmator Pro 3.7.1 -->
<svg width="256" height="256" viewBox="0 0 256 256" xmlns="http://www.w3.org/2000/svg">
    <path id="Path" fill="#ffffff" stroke="none" d="M 172 100 L 84 100 L 84 36 L 172 36 Z M 176 32 L 80 32 L 80 104 L 176 104 Z"/>
    <path id="path1" fill="#ffffff" stroke="none" d="M 60 20 L 56 20 L 56 24 L 60 24 Z"/>
    <path id="path2" fill="#ffffff" stroke="none" d="M 200 20 L 196 20 L 196 24 L 200 24 Z"/>
    <path id="path3" fill="#ffffff" stroke="none" d="M 56 116 L 60 116 L 60 112 L 56 112 Z"/>
    <path id="path4" fill="#ffffff" stroke="none" d="M 196 116 L 200 116 L 200 112 L 196 112 Z"/>
    <path id="path5" fill="#ffffff" stroke="none" d="M 84 140 L 172 140 L 172 204 L 84 204 Z M 80 208 L 176 208 L 176 136 L 80 136 Z"/>
    <path id="path6" fill="#ffffff" stroke="none" d="M 48 140 L 36 140 L 36 144 L 48 144 Z"/>
    <path id="path7" fill="#ffffff" stroke="none" d="M 60 174.111298 C 60 175.353302 59.710999 176.578308 59.154999 177.689301 L 58.276001 179.447296 C 58.106998 179.786301 57.761002 180.000305 57.382 180.000305 L 49 180.000305 C 48.864998 180.000305 48.737 180.02829 48.618999 180.077301 C 50.091999 178.473297 51 176.343292 51 174.000305 C 51 171.656311 50.091999 169.526306 48.618999 167.923309 C 48.737 167.971298 48.864998 168.000305 49 168.000305 L 57.382 168.000305 C 57.761002 168.000305 58.106998 168.214294 58.276001 168.552307 L 59.154999 170.310303 C 59.710999 171.422302 60 172.646301 60 173.888306 Z M 48 189.382294 C 48 189.7603 47.785999 190.1073 47.446999 190.276306 L 45.688999 191.155304 C 44.577999 191.711304 43.354 192.000305 42.111 192.000305 L 41.889 192.000305 C 40.646 192.000305 39.422001 191.711304 38.311001 191.155304 L 36.553001 190.276306 C 36.214001 190.1073 36 189.7603 36 189.382294 L 36 181.000305 C 36 180.865295 35.972 180.736298 35.923 180.619293 C 37.526001 182.091309 39.655998 183.000305 42 183.000305 C 44.343002 183.000305 46.473999 182.091309 48.077 180.619293 C 48.028 180.736298 48 180.865295 48 181.000305 Z M 26.618 180.000305 C 26.238998 180.000305 25.893002 179.786301 25.723999 179.447296 L 24.845001 177.689301 C 24.289001 176.578308 24 175.353302 24 174.111298 L 24 173.888306 C 24 172.646301 24.289001 171.422302 24.845001 170.310303 L 25.723999 168.552307 C 25.893002 168.214294 26.238998 168.000305 26.618 168.000305 L 35 168.000305 C 35.135002 168.000305 35.263 167.971298 35.381001 167.923309 C 33.908001 169.526306 33 171.656311 33 174.000305 C 33 176.343292 33.908001 178.473297 35.381001 180.077301 C 35.263 180.02829 35.135002 180.000305 35 180.000305 Z M 47 174.000305 C 47 176.761292 44.761002 179.000305 42 179.000305 C 39.238998 179.000305 37 176.761292 37 174.000305 C 37 171.238297 39.238998 169.000305 42 169.000305 C 44.761002 169.000305 47 171.238297 47 174.000305 M 36 158.618301 C 36 158.239304 36.214001 157.892303 36.553001 157.723297 L 38.311001 156.844299 C 39.422001 156.289307 40.646 156.000305 41.889 156.000305 L 42.111 156.000305 C 43.354 156.000305 44.577999 156.289307 45.688999 156.844299 L 47.446999 157.723297 C 47.785999 157.892303 48 158.239304 48 158.618301 L 48 167.000305 C 48 167.134308 48.028 167.262299 48.077 167.381302 C 46.473999 165.908295 44.343002 165.000305 42 165.000305 C 39.655998 165.000305 37.526001 165.908295 35.923 167.381302 C 35.972 167.263306 36 167.134308 36 167.000305 Z M 61.854 166.763306 C 61.000999 165.058289 59.287998 164.000305 57.382 164.000305 L 52 164.000305 L 52 158.618301 C 52 156.712311 50.941002 154.998291 49.236 154.145294 L 47.478001 153.266296 C 45.82 152.438293 43.965 152.000305 42.111 152.000305 L 41.889 152.000305 C 40.035 152.000305 38.18 152.438293 36.521999 153.266296 L 34.764 154.145294 C 33.058998 154.998291 32 156.712311 32 158.618301 L 32 164.000305 L 26.618 164.000305 C 24.712002 164.000305 22.999001 165.058289 22.146 166.763306 L 21.266998 168.522308 C 20.438 170.179291 20 172.035309 20 173.888306 L 20 174.111298 C 20 175.965302 20.438 177.820297 21.266998 179.478302 L 22.146 181.236298 C 22.999001 182.941299 24.712002 184.000305 26.618 184.000305 L 32 184.000305 L 32 189.382294 C 32 191.2883 33.058998 193.002304 34.764 193.854309 L 36.521999 194.733307 C 38.18 195.56131 40.035 196.000305 41.889 196.000305 L 42.111 196.000305 C 43.965 196.000305 45.82 195.56131 47.478001 194.733307 L 49.236 193.854309 C 50.941002 193.002304 52 191.2883 52 189.382294 L 52 184.000305 L 57.382 184.000305 C 59.287998 184.000305 61.000999 182.941299 61.854 181.236298 L 62.733002 179.477295 C 63.562 177.820297 64 175.965302 64 174.111298 L 64 173.888306 C 64 172.035309 63.562 170.179291 62.733002 168.521301 Z"/>
    <path id="path8" fill="#ffffff" stroke="none" d="M 226 180 C 222.686996 180 220 177.313004 220 174 C 220 170.686996 222.686996 168 226 168 C 229.313004 168 232 170.686996 232 174 C 232 177.313004 229.313004 180 226 180 M 214 192 C 210.686996 192 208 189.313004 208 186 C 208 182.686996 210.686996 180 214 180 C 217.313004 180 220 182.686996 220 186 C 220 189.313004 217.313004 192 214 192 M 196 174 C 196 170.686996 198.686996 168 202 168 C 205.313004 168 208 170.686996 208 174 C 208 177.313004 205.313004 180 202 180 C 198.686996 180 196 177.313004 196 174 M 216.270004 171.729996 C 216.100006 172.460999 216 173.218994 216 174 C 216 174.781006 216.100006 175.539001 216.270004 176.269989 C 215.539001 176.100006 214.781006 176 214 176 C 213.218994 176 212.460999 176.100006 211.729996 176.269989 C 211.899994 175.539001 212 174.781006 212 174 C 212 173.218994 211.899994 172.460999 211.729996 171.729996 C 212.460999 171.899994 213.218994 172 214 172 C 214.781006 172 215.539001 171.899994 216.270004 171.729996 M 214 156 C 217.313004 156 220 158.686996 220 162 C 220 165.313004 217.313004 168 214 168 C 210.686996 168 208 165.313004 208 162 C 208 158.686996 210.686996 156 214 156 M 226 164 C 225.218994 164 224.460999 164.100006 223.729996 164.270004 C 223.899994 163.539001 224 162.781006 224 162 C 224 156.485992 219.514008 152 214 152 C 208.485992 152 204 156.485992 204 162 C 204 162.781006 204.100006 163.539001 204.270004 164.270004 C 203.539001 164.100006 202.781006 164 202 164 C 196.485992 164 192 168.485992 192 174 C 192 179.514008 196.485992 184 202 184 C 202.781006 184 203.539001 183.899994 204.270004 183.730011 C 204.100006 184.460999 204 185.218994 204 186 C 204 191.514008 208.485992 196 214 196 C 219.514008 196 224 191.514008 224 186 C 224 185.218994 223.899994 184.460999 223.729996 183.730011 C 224.460999 183.899994 225.218994 184 226 184 C 231.514008 184 236 179.514008 236 174 C 236 168.485992 231.514008 164 226 164"/>
    <path id="path9" fill="#ffffff" stroke="none" d="M 202 144 L 212 144 L 212 140 L 202 140 C 200.895996 140 200 140.895996 200 142 C 200 143.104004 200.895996 144 202 144"/>
    <path id="path10" fill="#ffffff" stroke="none" d="M 228 142 C 228 140.895996 227.104004 140 226 140 L 216 140 L 216 144 L 226 144 C 227.104004 144 228 143.104004 228 142"/>
    <path id="path11" fill="#ffffff" stroke="none" d="M 174 234 L 176 234 L 176 230 L 174 230 Z"/>
    <path id="path12" fill="#ffffff" stroke="none" d="M 168 234 L 170 234 L 170 230 L 168 230 Z"/>
    <path id="path13" fill="#ffffff" stroke="none" d="M 78 234 L 80 234 L 80 230 L 78 230 Z"/>
    <path id="path14" fill="#ffffff" stroke="none" d="M 30 84 C 31.104 84 32 83.104004 32 82 C 32 80.895996 31.104 80 30 80 C 28.896 80 28 80.895996 28 82 C 28 83.104004 28.896 84 30 84"/>
    <path id="path15" fill="#ffffff" stroke="none" d="M 38 84 C 39.104 84 40 83.104004 40 82 C 40 80.895996 39.104 80 38 80 C 36.896 80 36 80.895996 36 82 C 36 83.104004 36.896 84 38 84"/>
    <path id="path16" fill="#ffffff" stroke="none" d="M 46 84 C 47.104 84 48 83.104004 48 82 C 48 80.895996 47.104 80 46 80 C 44.896 80 44 80.895996 44 82 C 44 83.104004 44.896 84 46 84"/>
    <path id="path17" fill="#ffffff" stroke="none" d="M 54 84 C 55.104 84 56 83.104004 56 82 C 56 80.895996 55.104 80 54 80 C 52.896 80 52 80.895996 52 82 C 52 83.104004 52.896 84 54 84"/>
    <path id="path18" fill="#ffffff" stroke="none" d="M 62 84 C 63.104 84 64 83.104004 64 82 C 64 80.895996 63.104 80 62 80 C 60.896 80 60 80.895996 60 82 C 60 83.104004 60.896 84 62 84"/>
    <path id="path19" fill="#ffffff" stroke="none" d="M 30 92 C 31.104 92 32 91.104004 32 90 C 32 88.895996 31.104 88 30 88 C 28.896 88 28 88.895996 28 90 C 28 91.104004 28.896 92 30 92"/>
    <path id="path20" fill="#ffffff" stroke="none" d="M 38 92 C 39.104 92 40 91.104004 40 90 C 40 88.895996 39.104 88 38 88 C 36.896 88 36 88.895996 36 90 C 36 91.104004 36.896 92 38 92"/>
    <path id="path21" fill="#ffffff" stroke="none" d="M 46 92 C 47.104 92 48 91.104004 48 90 C 48 88.895996 47.104 88 46 88 C 44.896 88 44 88.895996 44 90 C 44 91.104004 44.896 92 46 92"/>
    <path id="path22" fill="#ffffff" stroke="none" d="M 54 92 C 55.104 92 56 91.104004 56 90 C 56 88.895996 55.104 88 54 88 C 52.896 88 52 88.895996 52 90 C 52 91.104004 52.896 92 54 92"/>
    <path id="path23" fill="#ffffff" stroke="none" d="M 62 88 C 60.896 88 60 88.895996 60 90 C 60 91.104004 60.896 92 62 92 C 63.104 92 64 91.104004 64 90 C 64 88.895996 63.104 88 62 88"/>
    <path id="path24" fill="#ffffff" stroke="none" d="M 30 100 C 31.104 100 32 99.104004 32 98 C 32 96.895996 31.104 96 30 96 C 28.896 96 28 96.895996 28 98 C 28 99.104004 28.896 100 30 100"/>
    <path id="path25" fill="#ffffff" stroke="none" d="M 38 100 C 39.104 100 40 99.104004 40 98 C 40 96.895996 39.104 96 38 96 C 36.896 96 36 96.895996 36 98 C 36 99.104004 36.896 100 38 100"/>
    <path id="path26" fill="#ffffff" stroke="none" d="M 46 100 C 47.104 100 48 99.104004 48 98 C 48 96.895996 47.104 96 46 96 C 44.896 96 44 96.895996 44 98 C 44 99.104004 44.896 100 46 100"/>
    <path id="path27" fill="#ffffff" stroke="none" d="M 54 100 C 55.104 100 56 99.104004 56 98 C 56 96.895996 55.104 96 54 96 C 52.896 96 52 96.895996 52 98 C 52 99.104004 52.896 100 54 100"/>
    <path id="path28" fill="#ffffff" stroke="none" d="M 62 96 C 60.896 96 60 96.895996 60 98 C 60 99.104004 60.896 100 62 100 C 63.104 100 64 99.104004 64 98 C 64 96.895996 63.104 96 62 96"/>
    <path id="path29" fill="#ffffff" stroke="none" d="M 30 108 C 31.104 108 32 107.104004 32 106 C 32 104.895996 31.104 104 30 104 C 28.896 104 28 104.895996 28 106 C 28 107.104004 28.896 108 30 108"/>
    <path id="path30" fill="#ffffff" stroke="none" d="M 38 108 C 39.104 108 40 107.104004 40 106 C 40 104.895996 39.104 104 38 104 C 36.896 104 36 104.895996 36 106 C 36 107.104004 36.896 108 38 108"/>
    <path id="path31" fill="#ffffff" stroke="none" d="M 46 108 C 47.104 108 48 107.104004 48 106 C 48 104.895996 47.104 104 46 104 C 44.896 104 44 104.895996 44 106 C 44 107.104004 44.896 108 46 108"/>
    <path id="path32" fill="#ffffff" stroke="none" d="M 54 108 C 55.104 108 56 107.104004 56 106 C 56 104.895996 55.104 104 54 104 C 52.896 104 52 104.895996 52 106 C 52 107.104004 52.896 108 54 108"/>
    <path id="path33" fill="#ffffff" stroke="none" d="M 62 104 C 60.896 104 60 104.895996 60 106 C 60 107.104004 60.896 108 62 108 C 63.104 108 64 107.104004 64 106 C 64 104.895996 63.104 104 62 104"/>
    <path id="path34" fill="#ffffff" stroke="none" d="M 194 84 C 195.104004 84 196 83.104004 196 82 C 196 80.895996 195.104004 80 194 80 C 192.895996 80 192 80.895996 192 82 C 192 83.104004 192.895996 84 194 84"/>
    <path id="path35" fill="#ffffff" stroke="none" d="M 202 84 C 203.104004 84 204 83.104004 204 82 C 204 80.895996 203.104004 80 202 80 C 200.895996 80 200 80.895996 200 82 C 200 83.104004 200.895996 84 202 84"/>
    <path id="path36" fill="#ffffff" stroke="none" d="M 210 84 C 211.104004 84 212 83.104004 212 82 C 212 80.895996 211.104004 80 210 80 C 208.895996 80 208 80.895996 208 82 C 208 83.104004 208.895996 84 210 84"/>
    <path id="path37" fill="#ffffff" stroke="none" d="M 218 84 C 219.104004 84 220 83.104004 220 82 C 220 80.895996 219.104004 80 218 80 C 216.895996 80 216 80.895996 216 82 C 216 83.104004 216.895996 84 218 84"/>
    <path id="path38" fill="#ffffff" stroke="none" d="M 226 84 C 227.104004 84 228 83.104004 228 82 C 228 80.895996 227.104004 80 226 80 C 224.895996 80 224 80.895996 224 82 C 224 83.104004 224.895996 84 226 84"/>
    <path id="path39" fill="#ffffff" stroke="none" d="M 194 92 C 195.104004 92 196 91.104004 196 90 C 196 88.895996 195.104004 88 194 88 C 192.895996 88 192 88.895996 192 90 C 192 91.104004 192.895996 92 194 92"/>
    <path id="path40" fill="#ffffff" stroke="none" d="M 202 88 C 200.895996 88 200 88.895996 200 90 C 200 91.104004 200.895996 92 202 92 C 203.104004 92 204 91.104004 204 90 C 204 88.895996 203.104004 88 202 88"/>
    <path id="path41" fill="#ffffff" stroke="none" d="M 210 92 C 211.104004 92 212 91.104004 212 90 C 212 88.895996 211.104004 88 210 88 C 208.895996 88 208 88.895996 208 90 C 208 91.104004 208.895996 92 210 92"/>
    <path id="path42" fill="#ffffff" stroke="none" d="M 218 92 C 219.104004 92 220 91.104004 220 90 C 220 88.895996 219.104004 88 218 88 C 216.895996 88 216 88.895996 216 90 C 216 91.104004 216.895996 92 218 92"/>
    <path id="path43" fill="#ffffff" stroke="none" d="M 226 92 C 227.104004 92 228 91.104004 228 90 C 228 88.895996 227.104004 88 226 88 C 224.895996 88 224 88.895996 224 90 C 224 91.104004 224.895996 92 226 92"/>
    <path id="path44" fill="#ffffff" stroke="none" d="M 194 100 C 195.104004 100 196 99.104004 196 98 C 196 96.895996 195.104004 96 194 96 C 192.895996 96 192 96.895996 192 98 C 192 99.104004 192.895996 100 194 100"/>
    <path id="path45" fill="#ffffff" stroke="none" d="M 202 96 C 200.895996 96 200 96.895996 200 98 C 200 99.104004 200.895996 100 202 100 C 203.104004 100 204 99.104004 204 98 C 204 96.895996 203.104004 96 202 96"/>
    <path id="path46" fill="#ffffff" stroke="none" d="M 210 100 C 211.104004 100 212 99.104004 212 98 C 212 96.895996 211.104004 96 210 96 C 208.895996 96 208 96.895996 208 98 C 208 99.104004 208.895996 100 210 100"/>
    <path id="path47" fill="#ffffff" stroke="none" d="M 218 100 C 219.104004 100 220 99.104004 220 98 C 220 96.895996 219.104004 96 218 96 C 216.895996 96 216 96.895996 216 98 C 216 99.104004 216.895996 100 218 100"/>
    <path id="path48" fill="#ffffff" stroke="none" d="M 226 100 C 227.104004 100 228 99.104004 228 98 C 228 96.895996 227.104004 96 226 96 C 224.895996 96 224 96.895996 224 98 C 224 99.104004 224.895996 100 226 100"/>
    <path id="path49" fill="#ffffff" stroke="none" d="M 194 108 C 195.104004 108 196 107.104004 196 106 C 196 104.895996 195.104004 104 194 104 C 192.895996 104 192 104.895996 192 106 C 192 107.104004 192.895996 108 194 108"/>
    <path id="path50" fill="#ffffff" stroke="none" d="M 202 104 C 200.895996 104 200 104.895996 200 106 C 200 107.104004 200.895996 108 202 108 C 203.104004 108 204 107.104004 204 106 C 204 104.895996 203.104004 104 202 104"/>
    <path id="path51" fill="#ffffff" stroke="none" d="M 210 108 C 211.104004 108 212 107.104004 212 106 C 212 104.895996 211.104004 104 210 104 C 208.895996 104 208 104.895996 208 106 C 208 107.104004 208.895996 108 210 108"/>
    <path id="path52" fill="#ffffff" stroke="none" d="M 218 108 C 219.104004 108 220 107.104004 220 106 C 220 104.895996 219.104004 104 218 104 C 216.895996 104 216 104.895996 216 106 C 216 107.104004 216.895996 108 218 108"/>
    <path id="path53" fill="#ffffff" stroke="none" d="M 226 108 C 227.104004 108 228 107.104004 228 106 C 228 104.895996 227.104004 104 226 104 C 224.895996 104 224 104.895996 224 106 C 224 107.104004 224.895996 108 226 108"/>
    <path id="path54" fill="#ffffff" stroke="none" d="M 240 128 L 240 132 L 240 232 C 240 238.626999 234.626999 244 228 244 L 28 244 C 21.373001 244 16 238.626999 16 232 L 16 132 L 16 128 L 16 124 C 16 123.320007 16.072998 122.660004 16.182999 122.011993 C 17.143997 127.671997 22.070007 132 28 132 L 68 132 L 68 220 L 68 224 L 72 224 L 184 224 L 188 224 L 188 220 L 188 132 L 228 132 C 233.929993 132 238.854996 127.671997 239.817001 122.011993 C 239.927002 122.660004 240 123.320007 240 124 Z M 84 112 L 128 112 L 128 128 L 84 128 Z M 160 108 L 156 108 L 132 108 L 128 108 L 84 108 L 80 108 L 76 108 C 73.800003 108 72 106.199997 72 104 L 72 28 C 72 25.800003 73.800003 24 76 24 L 180 24 C 182.199997 24 184 25.800003 184 28 L 184 104 C 184 106.199997 182.199997 108 180 108 L 176 108 L 172 108 Z M 132 112 L 156 112 L 156 128 L 132 128 Z M 172 128 L 160 128 L 160 112 L 172 112 Z M 72 132 L 80 132 L 84 132 L 128 132 L 132 132 L 156 132 L 160 132 L 172 132 L 176 132 L 184 132 L 184 220 L 72 220 Z M 20 20 C 20 15.600006 23.600006 12 28 12 L 228 12 C 232.399994 12 236 15.600006 236 20 L 236 110.165009 L 236 115.074005 L 236 120 C 236 124.399994 232.399994 128 228 128 L 188 128 L 184 128 L 176 128 L 176 112 L 180 112 C 184.410995 112 188 108.410995 188 104 L 188 28 C 188 23.588989 184.410995 20 180 20 L 76 20 C 71.589005 20 68 23.588989 68 28 L 68 104 C 68 108.410995 71.589005 112 76 112 L 80 112 L 80 128 L 72 128 L 68 128 L 28 128 C 23.600006 128 20 124.399994 20 120 L 20 115.074005 L 20 110.165009 Z M 240 113.447006 L 240 20 C 240 13.382996 234.617004 8 228 8 L 28 8 C 21.382996 8 16 13.382996 16 20 L 16 113.447006 C 13.514008 116.263 12 119.955994 12 124 L 12 128 L 12 132 L 12 232 C 12 240.821991 19.177994 248 28 248 L 228 248 C 236.822006 248 244 240.821991 244 232 L 244 132 L 244 128 L 244 124 C 244 119.955994 242.485992 116.263 240 113.447006"/>
</svg>
