<?xml version="1.0" encoding="UTF-8"?>
<!-- Generated by Pixelmator Pro 3.7.1 -->
<svg width="256" height="256" viewBox="0 0 256 256" xmlns="http://www.w3.org/2000/svg">
    <path id="Path" fill="#ffffff" stroke="none" d="M 196 204 C 196 208.410995 192.410995 212 188 212 L 68 212 C 63.589005 212 60 208.410995 60 204 L 60 40 C 60 35.589005 63.589005 32 68 32 L 188 32 C 192.410995 32 196 35.589005 196 40 Z M 188 28 L 68 28 C 61.373001 28 56 33.373001 56 40 L 56 204 C 56 210.626999 61.373001 216 68 216 L 188 216 C 194.626999 216 200 210.626999 200 204 L 200 40 C 200 33.373001 194.626999 28 188 28"/>
    <path id="path1" fill="#ffffff" stroke="none" d="M 74 24 L 182 24 C 183.104004 24 184 23.104004 184 22 C 184 20.895996 183.104004 20 182 20 L 74 20 C 72.896004 20 72 20.895996 72 22 C 72 23.104004 72.896004 24 74 24"/>
    <path id="path2" fill="#ffffff" stroke="none" d="M 128.016098 148 L 88.000099 100 L 112.000099 100 L 112.000099 52 C 112.000099 47.582001 115.5811 44 120.000099 44 L 136.000107 44 C 140.418106 44 144.000107 47.582001 144.000107 52 L 144.000107 100 L 168.000107 100 Z M 148.000107 172 C 148.000107 183.046005 139.046097 192 128.000107 192 C 116.954102 192 108.000099 183.046005 108.000099 172 C 108.000099 160.95401 116.954102 152 128.000107 152 C 139.046097 152 148.000107 160.95401 148.000107 172 M 148.000107 96 L 148.000107 52 C 148.000107 45.382996 142.617096 40 136.000107 40 L 120.000099 40 C 113.383102 40 108.000099 45.382996 108.000099 52 L 108.000099 96 L 88.000099 96 L 79.4571 96 L 84.928101 102.561996 L 123.209099 148.480011 C 112.2631 150.707001 104.000099 160.406998 104.000099 172 C 104.000099 185.233002 114.766098 196 128.000107 196 C 141.233093 196 152.000107 185.233002 152.000107 172 C 152.000107 160.416 143.750107 150.722 132.817093 148.485001 L 171.073105 102.559998 L 176.538101 96 L 168.000107 96 Z"/>
    <path id="path3" fill="#ffffff" stroke="none" d="M 132 165.657196 L 138.343002 172.000198 L 132 178.343201 Z M 128 188.000198 L 144 172.000198 L 128 156.000198 Z"/>
    <path id="path4" fill="#ffffff" stroke="none" d="M 120 188 L 124 188 L 124 156 L 120 156 Z"/>
    <path id="path5" fill="#ffffff" stroke="none" d="M 208 136 L 208 160 L 208 164 L 208 184 L 208 188 L 208 192 L 212 192 C 213.458008 192 214.820999 191.602005 216 190.917999 L 216 192 L 216 240 C 216 242.209 214.209 244 212 244 L 69.656998 244 C 68.595993 244 67.578995 243.578003 66.828995 242.828003 L 41.171005 217.171997 C 40.421005 216.421997 40 215.403992 40 214.343002 L 40 176 C 40 173.791 41.791 172 44 172 L 44 160 C 41.791 160 40 158.209 40 156 L 40 16 C 40 13.791 41.791 12 44 12 L 102.343002 12 C 103.403999 12 104.420998 12.42099 105.170998 13.17099 L 106.829002 14.82901 C 107.579002 15.57901 108.596001 16 109.656998 16 L 146.343994 16 C 147.403992 16 148.421997 15.57901 149.171997 14.828003 L 150.828003 13.171997 C 151.578003 12.42099 152.596008 12 153.656998 12 L 212 12 C 214.209 12 216 13.791 216 16 L 216 132 C 216 134.209 214.209 136 212 136 Z M 216 168 L 216 184 C 216 186.209 214.209 188 212 188 L 212 184 L 212 164 C 214.209 164 216 165.791 216 168 M 220 132 L 220 16 C 220 11.588989 216.410995 8 212 8 L 153.656998 8 C 151.520004 8 149.511002 8.832001 148 10.343002 L 146.343994 12 L 109.656998 12 L 108 10.343002 C 106.488998 8.832001 104.480003 8 102.343002 8 L 44 8 C 39.589005 8 36 11.588989 36 16 L 36 156 C 36 158.955002 37.610001 161.541 40 162.927002 L 40 169.072998 C 37.610001 170.459 36 173.044998 36 176 L 36 214.343002 C 36 216.480011 36.832001 218.488998 38.343002 220 L 64 245.656998 C 65.511002 247.167999 67.520004 248 69.656998 248 L 212 248 C 216.410995 248 220 244.411011 220 240 L 220 192 C 220 190.541 219.604004 189.175995 218.917999 187.998993 C 219.602005 186.820007 220 185.457001 220 184 L 220 168 C 220 163.589005 216.410995 160 212 160 L 212 140 C 216.410995 140 220 136.411011 220 132"/>
</svg>
