<?xml version="1.0" encoding="UTF-8"?>
<!-- Generated by Pixelmator Pro 3.7.1 -->
<svg width="256" height="256" viewBox="0 0 256 256" xmlns="http://www.w3.org/2000/svg">
    <path id="Path" fill="#ffffff" stroke="none" d="M 244 52 C 244 56.417999 240.417999 60 236 60 L 232 60 L 232 228 L 228 228 L 224 228 L 224 232 L 224 240 L 224 242 C 224 243.104004 223.104004 244 222 244 L 40.544998 244 C 28.434006 244 18.376999 235.360001 16.371002 224 L 20 224 L 24 224 L 24 220 L 24 208 L 24 204 L 20 204 L 16 204 L 16 21.666992 C 16 16.328003 20.395996 12 25.817993 12 L 220 12 L 222.182007 12 L 236 12 C 240.417999 12 244 15.582001 244 20 Z M 232 238 C 232 239.104004 231.104004 240 230 240 L 228 240 L 228 232 L 232 232 Z M 16 219.832993 L 16 208 L 20 208 L 20 220 L 16.003998 220 C 16.003998 219.944 16 219.889999 16 219.832993 M 236 8 L 222.182007 8 L 220 8 L 25.817993 8 C 18.199005 8 12 14.130997 12 21.666992 L 12 204 L 12 208 L 12 219.832993 L 12 220 L 12 224 L 12.313995 224 C 14.360992 237.561996 26.240005 248 40.544998 248 L 222 248 C 224.606003 248 226.822998 246.326004 227.649994 244 L 228 244 L 230 244 C 233.309006 244 236 241.309006 236 238 L 236 232 L 236 228 L 236 64 C 242.617004 64 248 58.617004 248 52 L 248 20 C 248 13.382996 242.617004 8 236 8"/>
    <path id="path1" fill="#ffffff" stroke="none" d="M 36 64 L 36 56.003006 L 36 32.779999 C 36 30.139999 38.130001 28 40.757999 28 L 211.242004 28 C 213.869995 28 216 30.139999 216 32.779999 L 216 64 Z M 216 196 L 162.917999 196 C 163.60199 194.820999 164 193.457993 164 192 C 164 190.544006 163.609009 189.178009 162.927002 188 L 164 188 L 168 188 L 168 184 L 168 176 L 176 176 L 180 176 L 180 172 L 180 160 L 180 156 L 176 156 L 168 156 L 168 148 L 168 144 L 164 144 L 155.209991 144 L 163.072998 134.561005 L 168.537994 128 L 160 128 L 140 128 L 140 84 C 140 77.382996 134.617004 72 128 72 L 112 72 C 105.383003 72 100 77.382996 100 84 L 100 128 L 80 128 L 71.458 128 L 76.928001 134.561996 L 116.943001 182.561996 L 118.142998 184 L 84 184 C 79.589005 184 76 187.588989 76 192 C 76 193.457993 76.397995 194.820999 77.083 196 L 36 196 L 36 68 L 216 68 Z M 145.213989 156 L 148 152.654999 L 148 156 Z M 140 176 L 148 176 L 148 184 L 121.889999 184 L 123.088997 182.561005 L 136 167.061996 L 136 172 L 136 176 Z M 176 160 L 176 172 L 164 172 L 164 184 L 152 184 L 152 172 L 140 172 L 140 160 L 152 160 L 152 148 L 164 148 L 164 160 Z M 160 132 L 120.015999 180 L 80 132 L 104 132 L 104 84 C 104 79.582001 107.582001 76 112 76 L 128 76 C 132.417999 76 136 79.582001 136 84 L 136 132 Z M 80 192 C 80 189.791 81.791 188 84 188 L 156 188 C 158.209 188 160 189.791 160 192 C 160 194.209 158.209 196 156 196 L 84 196 C 81.791 196 80 194.209 80 192 M 216 215.220001 C 216 217.858994 213.869995 220 211.242004 220 L 149.210999 220 L 136 220 L 112 220 L 98.789001 220 L 48 220 L 36 204 L 36 200 L 84 200 L 156 200 L 216 200 Z M 124 232 L 112 224 L 136 224 Z M 211.242004 24 L 40.757999 24 C 35.929001 24 32 27.938004 32 32.779999 L 32 56.003006 L 32 64 L 32 68 L 32 196 L 32 200 L 32 204 L 32 205.332993 L 32.799999 206.399994 L 44.799999 222.399994 L 46 224 L 48 224 L 104.789001 224 L 109.780998 227.328003 L 121.780998 235.328003 L 124 236.807999 L 126.219002 235.328003 L 138.218994 227.328003 L 143.210999 224 L 211.242004 224 C 216.070999 224 220 220.061996 220 215.220001 L 220 200 L 220 196 L 220 68 L 220 64 L 220 32.779999 C 220 27.938004 216.070999 24 211.242004 24"/>
</svg>
