<?xml version="1.0" encoding="UTF-8"?>
<!-- Generated by Pixelmator Pro 3.7.1 -->
<svg width="256" height="256" viewBox="0 0 256 256" xmlns="http://www.w3.org/2000/svg">
    <path id="Path" fill="#ffffff" stroke="none" d="M 104 176 L 64 176 C 61.793999 176 60 174.205002 60 172 C 60 169.794006 61.793999 168 64 168 L 104 168 C 106.206001 168 108 169.794006 108 172 C 108 174.205994 106.206001 176 104 176 M 104 164 L 64 164 C 59.599998 164 56 167.600006 56 172 C 56 176.399994 59.599998 180 64 180 L 104 180 C 108.400002 180 112 176.399994 112 172 C 112 167.600006 108.400002 164 104 164"/>
    <path id="path1" fill="#ffffff" stroke="none" d="M 192 176 L 152 176 C 149.794006 176 148 174.205002 148 172 C 148 169.794006 149.794006 168 152 168 L 192 168 C 194.205994 168 196 169.794006 196 172 C 196 174.205994 194.205994 176 192 176 M 192 164 L 152 164 C 147.600006 164 144 167.600006 144 172 C 144 176.399994 147.600006 180 152 180 L 192 180 C 196.399994 180 200 176.399994 200 172 C 200 167.600006 196.399994 164 192 164"/>
    <path id="path2" fill="#ffffff" stroke="none" d="M 224 70 C 224 71.104004 223.104004 72 222 72 L 204 72 L 200 72 L 56 72 L 52 72 L 34 72 C 32.895996 72 32 71.104004 32 70 L 32 14 C 32 12.895996 32.895996 12 34 12 L 222 12 C 223.104004 12 224 12.895996 224 14 Z M 224 144 L 222 144 L 204 144 L 204 129.834991 C 208.774002 127.063004 212 121.906998 212 116 L 212 100 C 212 94.093002 208.774002 88.936996 204 86.165009 L 204 76 L 222 76 L 224 76 Z M 224 238 C 224 239.104004 223.104004 240 222 240 L 204 240 L 204 187.649994 C 206.326004 186.822998 208 184.606003 208 182 L 208 162 C 208 159.393997 206.326004 157.177002 204 156.350006 L 204 148 L 222 148 C 223.104004 148 224 148.895996 224 150 Z M 202 184 L 200 184 L 144 184 L 142 184 C 140.895996 184 140 183.104004 140 182 L 140 162 C 140 160.895996 140.895996 160 142 160 L 144 160 L 200 160 L 202 160 C 203.104004 160 204 160.895996 204 162 L 204 182 C 204 183.104004 203.104004 184 202 184 M 200 241 C 200 242.656998 198.656998 244 197 244 L 147 244 C 145.343002 244 144 242.656998 144 241 L 144 240 L 144 216 L 144 188 L 200 188 Z M 140 212 L 116 212 L 116 187.649994 C 118.327003 186.822998 120 184.606003 120 182 L 120 164 L 136 164 L 136 182 C 136 184.606003 137.674011 186.822998 140 187.649994 Z M 140 240 L 116 240 L 116 216 L 140 216 Z M 114 184 L 112 184 L 56 184 L 54 184 C 52.895996 184 52 183.104004 52 182 L 52 162 C 52 160.895996 52.895996 160 54 160 L 56 160 L 112 160 L 114 160 C 115.103996 160 116 160.895996 116 162 L 116 182 C 116 183.104004 115.103996 184 114 184 M 112 216 L 112 240 L 112 241 C 112 242.656998 110.656998 244 109 244 L 59 244 C 57.343002 244 56 242.656998 56 241 L 56 188 L 112 188 Z M 52 240 L 34 240 C 32.895996 240 32 239.104004 32 238 L 32 150 C 32 148.895996 32.895996 148 34 148 L 52 148 L 52 156.350006 C 49.673004 157.177002 48 159.393997 48 162 L 48 182 C 48 184.606003 49.673004 186.822998 52 187.649994 Z M 192 128 L 136 128 L 136 106 C 136 102.69101 138.69101 100 142 100 L 186 100 C 189.30899 100 192 102.69101 192 106 Z M 120 128 L 64 128 L 64 106 C 64 102.69101 66.690994 100 70 100 L 114 100 C 117.308998 100 120 102.69101 120 106 Z M 112 156 L 56 156 L 56 148 L 112 148 Z M 140 148 L 140 156.350006 C 138.300003 156.95401 136.95401 158.300003 136.350006 160 L 119.650002 160 C 119.045998 158.300003 117.699997 156.95401 116 156.350006 L 116 148 Z M 200 156 L 144 156 L 144 148 L 200 148 Z M 144 144 L 140 144 L 116 144 L 112 144 L 56 144 L 56 131.473999 C 57.281006 131.804993 58.617004 132 60 132 L 124 132 L 132 132 L 196 132 C 197.382996 132 198.718994 131.804993 200 131.473999 L 200 144 Z M 56 84.526001 L 56 76 L 200 76 L 200 84.526001 C 198.718994 84.195007 197.382996 84 196 84 L 60 84 C 58.617004 84 57.281006 84.195007 56 84.526001 M 56 88.703995 C 56.294006 88.598999 56.593002 88.505997 56.897003 88.423996 C 56.947998 88.410004 56.998993 88.397995 57.048996 88.384995 C 57.315994 88.315994 57.584 88.253998 57.856995 88.203995 C 57.994003 88.177994 58.134003 88.160995 58.272003 88.139999 C 58.477997 88.110001 58.681 88.076004 58.889999 88.057007 C 59.255005 88.020996 59.625 88 60 88 L 196 88 C 196.375 88 196.744003 88.020996 197.110001 88.057007 C 197.317993 88.076004 197.522003 88.110001 197.727997 88.139999 C 197.865997 88.160995 198.005997 88.177994 198.143005 88.203995 C 198.416 88.253998 198.684998 88.315994 198.951004 88.384995 C 199.001999 88.397995 199.052994 88.410004 199.102997 88.423996 C 199.406998 88.505997 199.705002 88.598999 200 88.703995 C 201.490005 89.235992 202.845001 90.052994 204 91.093002 L 204 91.093002 C 204 91.093002 204 91.093002 204.001007 91.093994 C 204.302994 91.365005 204.589996 91.651001 204.862 91.951004 C 204.869995 91.959 204.876999 91.966995 204.884995 91.975998 C 205.145996 92.264008 205.393005 92.563995 205.625 92.878006 C 205.643005 92.902008 205.660995 92.925003 205.679001 92.949005 C 205.895004 93.244995 206.097 93.550003 206.285995 93.865005 C 206.313004 93.910004 206.341995 93.955002 206.367996 94 C 206.539001 94.294006 206.695999 94.597 206.843002 94.906006 C 206.876007 94.975998 206.912003 95.044006 206.944 95.115005 C 207.074005 95.403992 207.188995 95.701004 207.296997 96.001999 C 207.330002 96.095001 207.367004 96.186005 207.397995 96.279999 C 207.492004 96.565994 207.569 96.858002 207.643005 97.153 C 207.669998 97.266006 207.703995 97.375 207.729004 97.488007 C 207.792999 97.785004 207.837006 98.087997 207.878998 98.391998 C 207.893997 98.505005 207.917999 98.615997 207.931 98.729996 C 207.975006 99.147995 208 99.570999 208 100 L 208 116 C 208 116.429001 207.975006 116.852005 207.931 117.270004 C 207.917999 117.384003 207.893997 117.494995 207.878006 117.608002 C 207.837006 117.912994 207.792999 118.214996 207.729004 118.511002 C 207.703995 118.625 207.669998 118.735001 207.641998 118.847992 C 207.569 119.141998 207.492004 119.43399 207.397995 119.720001 C 207.367004 119.813995 207.330002 119.904999 207.296005 119.998993 C 207.188004 120.298996 207.074005 120.596008 206.942993 120.884995 C 206.912003 120.955994 206.876999 121.022995 206.843994 121.093002 C 206.697006 121.403 206.540009 121.705994 206.367996 122 C 206.341995 122.044998 206.313004 122.089005 206.285995 122.134003 C 206.097992 122.449005 205.895996 122.755005 205.679001 123.050995 C 205.660995 123.074997 205.643005 123.097992 205.625 123.122009 C 205.393005 123.434998 205.145996 123.735001 204.884995 124.024002 C 204.876999 124.031998 204.869995 124.041 204.862 124.048996 C 204.589005 124.348999 204.302994 124.634995 204.001007 124.906006 C 204.001007 124.906006 204 124.906998 204 124.906998 L 204 124.906998 C 202.845001 125.946991 201.490005 126.764008 200 127.296005 C 199.705002 127.401001 199.406998 127.494003 199.102997 127.576004 C 199.052994 127.589996 199.001999 127.602005 198.951004 127.615005 C 198.684998 127.68399 198.416 127.746002 198.143005 127.796005 C 198.005997 127.821991 197.865997 127.839005 197.727997 127.860001 C 197.522003 127.889999 197.317993 127.923996 197.110001 127.942993 C 196.744003 127.979004 196.375 128 196 128 L 196 106 C 196 100.5 191.5 96 186 96 L 142 96 C 136.5 96 132 100.5 132 106 L 132 128 L 124 128 L 124 106 C 124 100.5 119.5 96 114 96 L 70 96 C 64.5 96 60 100.5 60 106 L 60 128 C 59.625 128 59.255005 127.979004 58.889999 127.942993 C 58.681 127.923996 58.477997 127.889999 58.272003 127.860001 C 58.134003 127.839005 57.994003 127.821991 57.856995 127.796005 C 57.584 127.746002 57.315994 127.68399 57.048996 127.615005 C 56.998993 127.602005 56.947998 127.589996 56.897003 127.576004 C 56.593002 127.494003 56.294006 127.401001 56 127.296005 L 56 127.296005 C 54.509995 126.764008 53.156006 125.946991 52 124.906998 C 51.697998 124.634995 51.410995 124.348999 51.136993 124.048996 C 51.130005 124.041 51.123001 124.033005 51.115005 124.024002 C 50.854004 123.735992 50.606995 123.434998 50.375 123.122009 C 50.356995 123.097992 50.339005 123.074997 50.320999 123.050995 C 50.104996 122.755005 49.903 122.449005 49.712997 122.134003 C 49.686996 122.089005 49.658997 122.044998 49.632004 122 C 49.460007 121.705994 49.302994 121.403 49.156998 121.093002 C 49.123993 121.022995 49.087997 120.955994 49.056 120.886002 C 48.925995 120.596008 48.811005 120.298996 48.703995 119.998001 C 48.669998 119.904999 48.632004 119.813995 48.602005 119.720001 C 48.507004 119.43399 48.431 119.141998 48.358002 118.847992 C 48.330002 118.735001 48.296005 118.625 48.270996 118.511002 C 48.207001 118.214996 48.162994 117.912994 48.121994 117.608002 C 48.106003 117.494995 48.082001 117.384003 48.069 117.270004 C 48.024994 116.852005 48 116.429001 48 116 L 48 100 C 48 99.570999 48.024994 99.147995 48.069 98.729996 C 48.082001 98.615997 48.106003 98.505005 48.121994 98.391998 C 48.162994 98.087997 48.207001 97.785004 48.270996 97.488007 C 48.296005 97.375 48.330002 97.266006 48.358002 97.153 C 48.431 96.858002 48.507004 96.565994 48.602005 96.279999 C 48.632004 96.186005 48.669998 96.095001 48.703995 96.001999 C 48.811005 95.701004 48.925995 95.403992 49.056 95.115005 C 49.087997 95.044006 49.123993 94.977005 49.156998 94.906998 C 49.302994 94.597 49.460007 94.294006 49.632004 94 C 49.658997 93.955002 49.686996 93.910995 49.712997 93.865997 C 49.903 93.550995 50.104996 93.244995 50.322006 92.949005 C 50.339005 92.925003 50.356995 92.902008 50.375 92.878006 C 50.606995 92.565002 50.854004 92.264008 51.115997 91.975006 C 51.123001 91.966995 51.130005 91.959 51.136993 91.951996 C 52.455994 90.501007 54.119995 89.375 56 88.703995 Z M 32 76 L 34 76 L 52 76 L 52 86.165009 C 47.225998 88.936996 44 94.093002 44 100 L 44 116 C 44 121.906998 47.225998 127.063004 52 129.834991 L 52 144 L 34 144 L 32 144 Z M 222 8 L 34 8 C 30.690994 8 28 10.69101 28 14 L 28 238 C 28 241.309006 30.690994 244 34 244 L 52.684998 244 C 53.811996 246.360992 56.214996 248 59 248 L 109 248 C 111.785004 248 114.188004 246.360992 115.315002 244 L 140.686005 244 C 141.811996 246.360992 144.214996 248 147 248 L 197 248 C 199.785004 248 202.188004 246.360992 203.313995 244 L 222 244 C 225.309006 244 228 241.309006 228 238 L 228 14 C 228 10.69101 225.309006 8 222 8"/>
</svg>
