<?xml version="1.0" encoding="UTF-8"?>
<!-- Generated by Pixelmator Pro 3.7.1 -->
<svg width="256" height="256" viewBox="0 0 256 256" xmlns="http://www.w3.org/2000/svg">
    <path id="Path" fill="#ffffff" stroke="none" d="M 208 136 L 208 188 L 212 188 C 214.209 188 216 189.791 216 192 L 216 240 C 216 242.209 214.209 244 212 244 L 69.656998 244 C 68.595993 244 67.578995 243.578003 66.828995 242.828003 L 41.171005 217.171997 C 40.421005 216.421997 40 215.403992 40 214.343002 L 40 176 C 40 173.791 41.791 172 44 172 L 44 160 C 41.791 160 40 158.209 40 156 L 40 16 C 40 13.791 41.791 12 44 12 L 102.343002 12 C 103.403999 12 104.420998 12.42099 105.170998 13.17099 L 106.829002 14.82901 C 107.579002 15.57901 108.596001 16 109.656998 16 L 146.343994 16 C 147.403992 16 148.421997 15.57901 149.171997 14.828003 L 150.828003 13.171997 C 151.578003 12.42099 152.596008 12 153.656998 12 L 212 12 C 214.209 12 216 13.791 216 16 L 216 132 C 216 134.209 214.209 136 212 136 Z M 216 164 L 216 180 C 216 182.209 214.209 184 212 184 L 212 160 C 214.209 160 216 161.791 216 164 M 220 132 L 220 16 C 220 11.588989 216.410995 8 212 8 L 153.656998 8 C 151.520004 8 149.511002 8.832001 148 10.343002 L 146.343994 12 L 109.656998 12 L 108 10.343002 C 106.488998 8.832001 104.480003 8 102.343002 8 L 44 8 C 39.589005 8 36 11.588989 36 16 L 36 156 C 36 158.955002 37.610001 161.541 40 162.927002 L 40 169.072998 C 37.610001 170.459 36 173.044998 36 176 L 36 214.343002 C 36 216.480011 36.832001 218.488998 38.343002 220 L 64 245.656998 C 65.511002 247.167999 67.520004 248 69.656998 248 L 212 248 C 216.410995 248 220 244.411011 220 240 L 220 192 C 220 189.609009 218.940994 187.466995 217.272995 186 C 218.940994 184.533005 220 182.389999 220 180 L 220 164 C 220 159.589005 216.410995 156 212 156 L 212 140 C 216.410995 140 220 136.411011 220 132"/>
    <path id="path1" fill="#ffffff" stroke="none" d="M 196 204 C 196 208.410995 192.410995 212 188 212 L 68 212 C 63.589005 212 60 208.410995 60 204 L 60 40 C 60 35.589005 63.589005 32 68 32 L 188 32 C 192.410995 32 196 35.589005 196 40 Z M 188 28 L 68 28 C 61.382996 28 56 33.382996 56 40 L 56 204 C 56 210.617004 61.382996 216 68 216 L 188 216 C 194.617004 216 200 210.617004 200 204 L 200 40 C 200 33.382996 194.617004 28 188 28"/>
    <path id="path2" fill="#ffffff" stroke="none" d="M 180 156 L 168 156 L 168 168 L 156 168 L 156 156 L 144 156 L 144 144 L 156 144 L 156 132 L 168 132 L 168 144 L 180 144 Z M 160 180 L 88 180 C 85.791 180 84 178.209 84 176 C 84 173.791 85.791 172 88 172 L 160 172 C 162.209 172 164 173.791 164 176 C 164 178.209 162.209 180 160 180 M 144 160 L 152 160 L 152 168 L 125.889999 168 L 127.089005 166.561005 L 140 151.061996 L 140 156 L 140 160 Z M 152 136.654999 L 152 140 L 149.214005 140 Z M 84 116 L 108 116 L 108 68 C 108 63.582001 111.582001 60 116 60 L 132 60 C 136.417999 60 140 63.582001 140 68 L 140 116 L 164 116 L 124.015999 164 Z M 172 140 L 172 132 L 172 128 L 168 128 L 159.209991 128 L 167.072998 118.559998 L 172.537994 112 L 164 112 L 144 112 L 144 68 C 144 61.382996 138.617004 56 132 56 L 116 56 C 109.383003 56 104 61.382996 104 68 L 104 112 L 84 112 L 75.458 112 L 80.928001 118.561996 L 120.943001 166.561996 L 122.143005 168 L 88 168 C 83.588997 168 80 171.588989 80 176 C 80 180.410995 83.588997 184 88 184 L 160 184 C 164.410995 184 168 180.410995 168 176 C 168 174.544006 167.608994 173.178009 166.927002 172 L 168 172 L 172 172 L 172 168 L 172 160 L 180 160 L 184 160 L 184 156 L 184 144 L 184 140 L 180 140 Z"/>
    <path id="path3" fill="#ffffff" stroke="none" d="M 74 24 L 182 24 C 183.104004 24 184 23.104004 184 22 C 184 20.895996 183.104004 20 182 20 L 74 20 C 72.896004 20 72 20.895996 72 22 C 72 23.104004 72.896004 24 74 24"/>
</svg>
