<?xml version="1.0" encoding="UTF-8"?>
<!-- Generated by Pixelmator Pro 3.7.1 -->
<svg width="256" height="256" viewBox="0 0 256 256" xmlns="http://www.w3.org/2000/svg">
    <path id="Path" fill="#ffffff" stroke="none" d="M 32 159.184601 L 32 72.81459 C 32 72.365601 32.394001 71.999603 32.877998 71.999603 L 223.121994 71.999603 C 223.606003 71.999603 224 72.365601 224 72.81459 L 224 159.184601 C 224 159.634598 223.606003 159.999603 223.121994 159.999603 L 32.877998 159.999603 C 32.394001 159.999603 32 159.634598 32 159.184601 M 228 159.184601 L 228 72.81459 C 228 70.155594 225.815994 67.999603 223.121994 67.999603 L 32.877998 67.999603 C 30.184 67.999603 28 70.155594 28 72.81459 L 28 159.184601 C 28 161.843597 30.184 163.999603 32.877998 163.999603 L 223.121994 163.999603 C 225.815994 163.999603 228 161.843597 228 159.184601"/>
    <path id="path1" fill="#ffffff" stroke="none" d="M 244.140594 180 L 227.999603 180 L 227.999603 200 L 223.999603 200 L 223.999603 176 L 235.999603 176 L 239.999603 176 L 239.999603 172 L 239.999603 64 C 239.999603 59.588989 236.411606 56 231.999603 56 L 23.999594 56 C 19.588598 56 15.999594 59.588989 15.999594 64 L 15.999594 172 L 15.999594 176 L 19.999594 176 L 31.999594 176 L 31.999594 200 L 27.999594 200 L 27.999594 180 L 12.1406 180 L 12.1406 61.548004 C 12.1406 56.274002 16.468603 52 21.807608 52 L 234.473602 52 C 239.812607 52 244.140594 56.274002 244.140594 61.548004 Z M 35.999592 200 L 35.999592 176 L 35.999592 172 L 31.999594 172 L 19.999594 172 L 19.999594 64 C 19.999594 61.791 21.790594 60 23.999594 60 L 231.999603 60 C 234.208603 60 235.999603 61.791 235.999603 64 L 235.999603 172 L 223.999603 172 L 219.999603 172 L 219.999603 176 L 219.999603 200 Z M 234.473602 48 L 21.807608 48 C 14.271597 48 8.1406 54.078003 8.1406 61.548004 L 8.1406 180 L 8.1406 184 L 12.1406 184 L 23.999594 184 L 23.999594 200 L 23.999594 204 L 27.999594 204 L 31.999594 204 L 223.999603 204 L 227.999603 204 L 231.999603 204 L 231.999603 200 L 231.999603 184 L 244.140594 184 L 248.140594 184 L 248.140594 180 L 248.140594 61.548004 C 248.140594 54.078003 242.009598 48 234.473602 48"/>
</svg>
