<?xml version="1.0" encoding="UTF-8"?>
<!-- Generated by Pixelmator Pro 3.7.1 -->
<svg width="256" height="256" viewBox="0 0 256 256" xmlns="http://www.w3.org/2000/svg">
    <path id="Path" fill="#ffffff" stroke="none" d="M 224 8 L 36 8 C 24.972 8 16 16.972 16 28 L 16 242 C 16 245.309006 18.690994 248 22 248 L 238 248 C 241.309006 248 244 245.309006 244 242 L 244 28 C 244 16.972 235.028 8 224 8 M 224 12 C 232.837006 12 240 19.164001 240 28 L 240 242 C 240 243.104004 239.104004 244 238 244 L 22 244 C 20.895996 244 20 243.104004 20 242 L 20 28 C 20 19.164001 27.164001 12 36 12 L 224 12"/>
    <path id="path1" fill="#ffffff" stroke="none" d="M 204 36 L 52 36 C 45.382996 36 40 41.382996 40 48 L 40 168 C 40 172.410995 43.589005 176 48 176 L 208 176 C 212.410995 176 216 172.410995 216 168 L 216 48 C 216 41.382996 210.617004 36 204 36 M 204 40 C 208.417999 40 212 43.582001 212 48 L 212 168 C 212 170.209 210.209 172 208 172 L 48 172 C 45.791 172 44 170.209 44 168 L 44 48 C 44 43.582001 47.582001 40 52 40 L 204 40"/>
    <path id="path2" fill="#ffffff" stroke="none" d="M 160.697296 204 L 95.302307 204 C 93.083305 204 91.160301 205.427002 90.517303 207.550995 C 89.874306 209.675003 90.682304 211.929993 92.529305 213.160004 L 125.226303 234.958008 C 126.0513 235.507996 127.0093 235.798004 128.000305 235.798004 C 128.990295 235.798004 129.949295 235.507996 130.7733 234.959 L 163.470306 213.160004 C 165.317307 211.929993 166.126297 209.675003 165.4823 207.550995 C 164.840302 205.427002 162.916306 204 160.697296 204 M 160.697296 208 C 161.686295 208 162.075302 209.283005 161.252304 209.832001 L 128.554306 231.630005 C 128.386307 231.742004 128.193298 231.798004 128.000305 231.798004 C 127.806305 231.798004 127.613304 231.742004 127.445305 231.630005 L 94.748306 209.832001 C 93.925301 209.283005 94.313301 208 95.302307 208 L 160.697296 208"/>
</svg>
