<?xml version="1.0" encoding="UTF-8"?>
<!-- Generated by Pixelmator Pro 3.7.1 -->
<svg width="256" height="256" viewBox="0 0 256 256" xmlns="http://www.w3.org/2000/svg">
    <path id="Path" fill="#ffffff" stroke="none" d="M 208 232 L 48 232 L 48 228 L 208 228 Z"/>
    <path id="path1" fill="#ffffff" stroke="none" d="M 196 224 L 60 224 L 60 220 L 196 220 Z"/>
    <path id="path2" fill="#ffffff" stroke="none" d="M 96 176 L 68 176 L 68 200 L 96 200 Z M 92 196 L 72 196 L 72 180 L 92 180 Z"/>
    <path id="path3" fill="#ffffff" stroke="none" d="M 188 176 L 160 176 L 160 200 L 188 200 Z M 184 196 L 164 196 L 164 180 L 184 180 Z"/>
    <path id="path4" fill="#ffffff" stroke="none" d="M 156 124 L 152 124 L 104 124 L 100 124 L 100 128 L 100 184 L 100 188 L 104 188 L 152 188 L 156 188 L 156 184 L 156 128 Z M 152 184 L 104 184 L 104 128 L 152 128 Z"/>
    <path id="path5" fill="#ffffff" stroke="none" d="M 136 124 L 132 124 L 124 124 L 120 124 L 120 128 L 120 156 L 120 160 L 124 160 L 132 160 L 136 160 L 136 156 L 136 128 Z M 132 156 L 124 156 L 124 128 L 132 128 Z"/>
    <path id="path6" fill="#ffffff" stroke="none" d="M 96 192 L 80 192 L 80 188 L 96 188 Z"/>
    <path id="path7" fill="#ffffff" stroke="none" d="M 52 32 L 44 32 C 39.589001 32 36 35.589005 36 40 L 36 156 C 36 160.410995 39.589001 164 44 164 L 52 164 C 56.410999 164 60 160.410995 60 156 L 60 40 C 60 35.589005 56.410999 32 52 32 M 52 36 C 54.200001 36 56 37.800003 56 40 L 56 156 C 56 158.199997 54.200001 160 52 160 L 44 160 C 41.799999 160 40 158.199997 40 156 L 40 40 C 40 37.800003 41.799999 36 44 36 L 52 36"/>
    <path id="path8" fill="#ffffff" stroke="none" d="M 212 32 L 204 32 C 199.589005 32 196 35.589005 196 40 L 196 156 C 196 160.410995 199.589005 164 204 164 L 212 164 C 216.410995 164 220 160.410995 220 156 L 220 40 C 220 35.589005 216.410995 32 212 32 M 212 36 C 214.199997 36 216 37.800003 216 40 L 216 156 C 216 158.199997 214.199997 160 212 160 L 204 160 C 201.800003 160 200 158.199997 200 156 L 200 40 C 200 37.800003 201.800003 36 204 36 L 212 36"/>
    <path id="path9" fill="#ffffff" stroke="none" d="M 52 160 L 48 160 L 48 36 L 52 36 Z"/>
    <path id="path10" fill="#ffffff" stroke="none" d="M 208 160 L 204 160 L 204 36 L 208 36 Z"/>
    <path id="path11" fill="#ffffff" stroke="none" d="M 82 4 L 74 4 C 71.392998 4 69.167999 5.671997 68.343002 8 L 68 8 L 62 8 C 58.691002 8 56 10.690994 56 14 L 56 122 C 56 125.30899 58.691002 128 62 128 L 68 128 L 188 128 L 194 128 C 197.30899 128 200 125.30899 200 122 L 200 14 C 200 10.690994 197.30899 8 194 8 L 188 8 L 87.656998 8 C 86.832001 5.671997 84.607002 4 82 4 M 82 8 C 83.103996 8 84 8.895996 84 10 L 84 12 L 188 12 L 194 12 C 195.104004 12 196 12.895996 196 14 L 196 122 C 196 123.104004 195.104004 124 194 124 L 188 124 L 68 124 L 62 124 C 60.896 124 60 123.104004 60 122 L 60 14 C 60 12.895996 60.896 12 62 12 L 68 12 L 72 12 L 72 10 C 72 8.895996 72.895996 8 74 8 L 82 8"/>
    <path id="path12" fill="#ffffff" stroke="none" d="M 188 60 L 68 60 L 68 56 L 188 56 Z"/>
    <path id="path13" fill="#ffffff" stroke="none" d="M 140 68 L 68 68 L 68 64 L 140 64 Z"/>
    <path id="path14" fill="#ffffff" stroke="none" d="M 192 68 L 180 68 L 180 64 L 192 64 Z"/>
    <path id="path15" fill="#ffffff" stroke="none" d="M 188 76 L 68 76 L 68 72 L 188 72 Z"/>
    <path id="path16" fill="#ffffff" stroke="none" d="M 184 56 L 180 56 L 140 56 L 136 56 L 136 60 L 136 72 L 136 76 L 140 76 L 180 76 L 184 76 L 184 72 L 184 60 Z M 180 72 L 140 72 L 140 60 L 180 60 Z"/>
    <path id="path17" fill="#ffffff" stroke="none" d="M 68 124 L 64 124 L 64 12 L 68 12 Z"/>
    <path id="path18" fill="#ffffff" stroke="none" d="M 192 124 L 188 124 L 188 12 L 192 12 Z"/>
    <path id="path19" fill="#ffffff" stroke="none" d="M 208 36 L 212 36 L 212 12 L 212 8 L 208 8 L 84 8 L 84 12 L 208 12 Z"/>
    <path id="path20" fill="#ffffff" stroke="none" d="M 48 36 L 48 12 L 70 12 L 70 8 L 48 8 L 44 8 L 44 12 L 44 36 Z"/>
    <path id="path21" fill="#ffffff" stroke="none" d="M 208 160 L 208 244 L 48 244 L 48 160 L 44 160 L 44 244 L 44 248 L 48 248 L 208 248 L 212 248 L 212 244 L 212 160 Z"/>
    <path id="path22" fill="#ffffff" stroke="none" d="M 56 160 L 56 188 L 52 228 L 48 228 L 48 160 L 44 160 L 44 228 L 44 232 L 48 232 L 52 232 L 55.619999 232 L 55.98 228.39801 L 59.98 188.39801 L 60 188.199005 L 60 188 L 60 160 Z"/>
    <path id="path23" fill="#ffffff" stroke="none" d="M 208 228 L 204 228 L 200 188 L 200 160 L 196 160 L 196 188 L 196 188.199005 L 196.020004 188.397995 L 200.020004 228.397995 L 200.380005 232 L 204 232 L 208 232 L 212 232 L 212 228 L 212 160 L 208 160 Z"/>
    <path id="path24" fill="#ffffff" stroke="none" d="M 200 216 L 56 216 L 56 212 L 200 212 Z"/>
    <path id="path25" fill="#ffffff" stroke="none" d="M 200 208 L 56 208 L 56 204 L 200 204 Z"/>
    <path id="path26" fill="#ffffff" stroke="none" d="M 80 196 L 80 180 L 96 180 L 96 176 L 80 176 L 76 176 L 76 180 L 76 196 L 76 200 L 80 200 L 96 200 L 96 196 Z"/>
    <path id="path27" fill="#ffffff" stroke="none" d="M 176 196 L 176 180 L 160 180 L 160 176 L 176 176 L 180 176 L 180 180 L 180 196 L 180 200 L 176 200 L 160 200 L 160 196 Z"/>
    <path id="path28" fill="#ffffff" stroke="none" d="M 152 160 L 104 160 L 104 156 L 152 156 Z"/>
</svg>
