<?xml version="1.0" encoding="UTF-8"?>
<!-- Generated by Pixelmator Pro 3.7.1 -->
<svg width="256" height="256" viewBox="0 0 256 256" xmlns="http://www.w3.org/2000/svg">
    <path id="Path" fill="#ffffff" stroke="none" d="M 240 232 C 240 238.600006 234.600006 244 228 244 L 152 244 L 152 240 L 160 240 L 204 240 L 220 240 L 224 240 L 224 236 L 224 16 L 228 12 C 234.600006 12 240 17.399994 240 24 Z M 108 244 L 108 236 L 108 212 C 108 200.95401 116.954002 192 128 192 C 139.04599 192 148 200.95401 148 212 L 148 236 L 148 244 Z M 28 244 C 21.399994 244 16 238.600006 16 232 L 16 24 C 16 17.399994 21.399994 12 28 12 L 32 12 L 32 236 L 32 240 L 36 240 L 52 240 L 96 240 L 104 240 L 104 244 Z M 52 12 L 52 232 L 96 232 L 96 208 C 96 190.326996 110.326996 176 128 176 C 145.673004 176 160 190.326996 160 208 L 160 232 L 204 232 L 204 16 L 220 16 L 220 236 L 204 236 L 160 236 L 152 236 L 152 212 C 152 198.766998 141.233002 188 128 188 C 114.766998 188 104 198.766998 104 212 L 104 236 L 96 236 L 52 236 L 36 236 L 36 12 Z M 92 12 L 92 56 C 92 71.990997 102.483002 85.574005 116.936996 90.253006 C 110.546005 90.565994 104.156998 91.184006 97.850006 92.113007 L 71.072998 96.268005 L 70.949005 96.287003 L 70.828003 96.313995 C 64.554001 97.692993 60 103.449005 60 110 L 60 162 C 60 169.720001 66.145004 176 73.697006 176 L 111.539993 176 C 99.947998 181.987 92 194.078995 92 208 L 92 228 L 56 228 L 56 12 Z M 104 12 L 104 39.192001 L 102.789001 40 L 104 40 L 104 52 C 104 65.233002 114.766998 76 128 76 C 141.233002 76 152 65.233002 152 52 L 152 40 L 153.210999 40 L 152 39.192001 L 152 12 L 156 16 L 160 16 L 160 56 C 160 73.673004 145.673004 88 128 88 C 110.326996 88 96 73.673004 96 56 L 96 12 Z M 116 36 L 128 28 L 140 36 Z M 108 40 L 116 40 L 140 40 L 148 40 L 148 52 C 148 63.046005 139.04599 72 128 72 C 116.954002 72 108 63.046005 108 52 Z M 128 12 L 148 12 L 148 36.526001 L 142.218994 32.671997 L 130.218994 24.671997 L 128 23.192001 L 125.780998 24.671997 L 113.780998 32.671997 L 108 36.526001 L 108 12 Z M 153.707001 95.932999 L 182.303009 100 C 187.636993 100 192 104.5 192 110 L 192 162 C 192 167.5 187.636993 172 182.303009 172 L 73.697006 172 C 68.363998 172 64 167.5 64 162 L 64 110 C 64 105.210999 67.309998 101.182999 71.686005 100.220993 L 98.432999 96.070007 C 107.755997 94.697006 117.150002 94.009995 126.544998 94.009995 C 135.619995 94.009995 144.695007 94.651001 153.707001 95.932999 M 200 16 L 200 228 L 164 228 L 164 208 C 164 194.078995 156.052002 181.987 144.460999 176 L 182.303009 176 C 189.854996 176 196 169.720001 196 162 L 196 110 C 196 102.384995 190.020996 96.171005 182.610001 96.003006 L 154.270996 91.972 C 149.102997 91.237 143.880005 90.714005 138.64801 90.391998 C 153.31601 85.841003 164 72.145004 164 56 L 164 16 Z M 228 8 L 226.343002 8 L 225.171997 9.171005 L 222.343002 12 L 220 12 L 204 12 L 200 12 L 164 12 L 160 12 L 157.656998 12 L 154.828003 9.171005 L 153.656998 8 L 152 8 L 148 8 L 128 8 L 108 8 L 104 8 L 96 8 L 92 8 L 56 8 L 52 8 L 36 8 L 32 8 L 28 8 C 19.177994 8 12 15.177994 12 24 L 12 232 C 12 240.822006 19.177994 248 28 248 L 104 248 L 108 248 L 148 248 L 152 248 L 228 248 C 236.822006 248 244 240.822006 244 232 L 244 24 C 244 15.177994 236.822006 8 228 8"/>
    <path id="path1" fill="#ffffff" stroke="none" d="M 116 224 C 114.896004 224 114 224.895996 114 226 C 114 227.104004 114.896004 228 116 228 C 117.103996 228 118 227.104004 118 226 C 118 224.895996 117.103996 224 116 224"/>
    <path id="path2" fill="#ffffff" stroke="none" d="M 124 224 C 122.896004 224 122 224.895996 122 226 C 122 227.104004 122.896004 228 124 228 C 125.103996 228 126 227.104004 126 226 C 126 224.895996 125.103996 224 124 224"/>
    <path id="path3" fill="#ffffff" stroke="none" d="M 132 224 C 130.895996 224 130 224.895996 130 226 C 130 227.104004 130.895996 228 132 228 C 133.104004 228 134 227.104004 134 226 C 134 224.895996 133.104004 224 132 224"/>
    <path id="path4" fill="#ffffff" stroke="none" d="M 140 224 C 138.895996 224 138 224.895996 138 226 C 138 227.104004 138.895996 228 140 228 C 141.104004 228 142 227.104004 142 226 C 142 224.895996 141.104004 224 140 224"/>
</svg>
