<?xml version="1.0" encoding="UTF-8"?>
<!-- Generated by Pixelmator Pro 3.7.1 -->
<svg width="256" height="256" viewBox="0 0 256 256" xmlns="http://www.w3.org/2000/svg">
    <path id="Path" fill="#ffffff" stroke="none" d="M 244 184 C 244 186.209 242.209 188 240 188 L 16 188 C 13.791 188 12 186.209 12 184 L 12 76 C 12 73.791 13.791 72 16 72 L 240 72 C 242.209 72 244 73.791 244 76 Z M 240 68 L 16 68 C 11.589005 68 8 71.588989 8 76 L 8 184 C 8 188.411011 11.589005 192 16 192 L 240 192 C 244.410995 192 248 188.411011 248 184 L 248 76 C 248 71.588989 244.410995 68 240 68"/>
    <path id="path1" fill="#ffffff" stroke="none" d="M 60 118 C 61.104 118 62 118.895996 62 120 L 62 128 C 62 129.104004 61.104 130 60 130 L 48 130 L 48 142 C 48 143.104004 47.104 144 46 144 L 38 144 C 36.896 144 36 143.104004 36 142 L 36 130 L 24 130 C 22.896 130 22 129.104004 22 128 L 22 120 C 22 118.895996 22.896 118 24 118 L 36 118 L 36 106 C 36 104.895996 36.896 104 38 104 L 46 104 C 47.104 104 48 104.895996 48 106 L 48 118 Z M 210 128 C 210 133.522003 205.522003 138 200 138 C 194.477997 138 190 133.522003 190 128 C 190 122.477005 194.477997 118 200 118 C 205.522003 118 210 122.477005 210 128 M 236 118 C 236 123.522995 231.522003 128 226 128 C 220.477997 128 216 123.522995 216 118 C 216 112.477005 220.477997 108 226 108 C 231.522003 108 236 112.477005 236 118 M 226 104 C 218.279999 104 212 110.279999 212 118 C 212 119.326004 212.197006 120.604004 212.542999 121.820007 C 210.255005 117.195007 205.5 114 200 114 C 192.279999 114 186 120.279999 186 128 C 186 135.720001 192.279999 142 200 142 C 207.720001 142 214 135.720001 214 128 C 214 126.673996 213.802994 125.395996 213.457001 124.179993 C 215.744995 128.804001 220.5 132 226 132 C 229.916 132 233.457001 130.378998 236 127.779007 L 236 179.235001 C 223.020996 177.108002 185.781998 172 128 172 C 70.218002 172 32.979 177.108002 20 179.235001 L 20 132.459 C 21.063 133.414001 22.462002 134 24 134 L 32 134 L 32 142 C 32 145.30899 34.691002 148 38 148 L 46 148 C 49.308998 148 52 145.30899 52 142 L 52 134 L 60 134 C 63.308998 134 66 131.30899 66 128 L 66 120 C 66 116.690994 63.308998 114 60 114 L 52 114 L 52 106 C 52 102.690994 49.308998 100 46 100 L 38 100 C 34.691002 100 32 102.690994 32 106 L 32 114 L 24 114 C 22.462002 114 21.063 114.585999 20 115.541 L 20 80.656998 C 34.471001 82.763 75.750999 88 128 88 C 180.248993 88 221.529007 82.763 236 80.656998 L 236 108.220993 C 233.457001 105.621002 229.916 104 226 104 M 238.009995 76.337006 C 237.910004 76.337006 237.809006 76.343994 237.705994 76.360001 C 227.444 77.916992 183.804993 84 128 84 C 72.195 84 28.555 77.916992 18.293999 76.360001 C 18.192001 76.343994 18.09 76.337006 17.990002 76.337006 C 16.909 76.337006 16 77.218002 16 78.337997 L 16 181.600998 C 16 182.725006 16.912998 183.60199 17.993 183.60199 C 18.106998 183.60199 18.223999 183.59201 18.341 183.570999 C 27.856998 181.912003 66.104004 176 128 176 C 189.895996 176 228.143005 181.912003 237.658997 183.570999 C 237.776001 183.59201 237.893005 183.60199 238.007004 183.60199 C 239.087006 183.60199 240 182.725006 240 181.600998 L 240 78.337997 C 240 77.218002 239.091995 76.337006 238.009995 76.337006"/>
    <path id="path2" fill="#ffffff" stroke="none" d="M 96 184 L 120 184 L 120 180 L 96 180 Z"/>
    <path id="path3" fill="#ffffff" stroke="none" d="M 132 184 L 156 184 L 156 180 L 132 180 Z"/>
    <path id="path4" fill="#ffffff" stroke="none" d="M 80 100 L 172 100 L 172 160 L 80 160 Z M 76 164 L 176 164 L 176 96 L 76 96 Z"/>
</svg>
