<?xml version="1.0" encoding="UTF-8"?>
<!-- Generated by Pixelmator Pro 3.7.1 -->
<svg width="256" height="256" viewBox="0 0 256 256" xmlns="http://www.w3.org/2000/svg">
    <path id="Path" fill="#ffffff" stroke="none" d="M 240 20 L 230 20 C 228.895996 20 228 20.895996 228 22 C 228 23.104004 228.895996 24 230 24 L 240 24 L 240 28 L 230 28 C 228.895996 28 228 28.895996 228 30 C 228 31.104004 228.895996 32 230 32 L 240 32 L 240 36 L 230 36 C 228.895996 36 228 36.895996 228 38 C 228 39.104004 228.895996 40 230 40 L 240 40 L 240 44 L 230 44 C 228.895996 44 228 44.895996 228 46 C 228 47.104004 228.895996 48 230 48 L 240 48 L 240 52 L 230 52 C 228.895996 52 228 52.895996 228 54 C 228 55.104004 228.895996 56 230 56 L 240 56 L 240 242 C 240 243.104004 239.104004 244 238 244 L 200 244 L 200 172 L 223.589005 172 C 224.921997 172 226 171.104996 226 170 C 226 168.895004 224.921997 168 223.589005 168 L 200 168 L 200 164 L 208 164 C 214.944 164 218 160.910995 218 153.891006 L 218 98.110001 C 218 91.087997 214.945007 88 208 88 L 200 88 L 200 12 L 238 12 C 239.104004 12 240 12.895996 240 14 Z M 184 244 L 184 190.546005 C 184 186.875 181.100998 184 177.399994 184 L 148 184 L 144 184 L 112 184 L 108 184 L 78.600006 184 C 74.899002 184 72 186.875 72 190.546005 L 72 244 L 59.757004 244 L 59.757004 172 L 196 172 L 196 244 Z M 112 188 L 144 188 L 144 212 L 112 212 Z M 76 244 L 76 190.546005 C 76 189.091003 77.115005 188 78.600006 188 L 108 188 L 108 212 L 108 216 L 112 216 L 144 216 L 148 216 L 148 212 L 148 188 L 177.399994 188 C 178.886002 188 180 189.091003 180 190.546005 L 180 244 Z M 18 244 C 16.895996 244 16 243.104004 16 242 L 16 56 L 26 56 C 27.104004 56 28 55.104004 28 54 C 28 52.895996 27.104004 52 26 52 L 16 52 L 16 48 L 26 48 C 27.104004 48 28 47.104004 28 46 C 28 44.895996 27.104004 44 26 44 L 16 44 L 16 40 L 26 40 C 27.104004 40 28 39.104004 28 38 C 28 36.895996 27.104004 36 26 36 L 16 36 L 16 32 L 26 32 C 27.104004 32 28 31.104004 28 30 C 28 28.895996 27.104004 28 26 28 L 16 28 L 16 24 L 26 24 C 27.104004 24 28 23.104004 28 22 C 28 20.895996 27.104004 20 26 20 L 16 20 L 16 14 C 16 12.895996 16.895996 12 18 12 L 56 12 L 56 88 L 48 88 C 41.054993 88 38 91.087997 38 98.110001 L 38 153.891006 C 38 160.910995 41.054993 164 48 164 L 56 164 L 56 168 L 32.410995 168 C 31.078003 168 30 168.895004 30 170 C 30 171.104996 31.078003 172 32.410995 172 L 56 172 L 56 244 Z M 196 168 L 59.757004 168 L 59.757004 164 L 196 164 Z M 59.757004 160 L 56 160 L 48 160 C 43.289993 160 42 158.686996 42 153.891006 L 42 98.110001 C 42 93.313004 43.289993 92 48 92 L 208 92 C 212.709991 92 214 93.313004 214 98.110001 L 214 153.891006 C 214 158.686996 212.709991 160 208 160 L 200 160 L 196 160 Z M 76 12 L 76 51.233994 L 76 52.578003 L 77.227997 53.042999 C 90.354996 58.007996 101.598999 61.160995 112.038002 62.751007 C 112.433998 71.223999 119.431 78 128 78 C 136.569 78 143.565002 71.223999 143.962006 62.751007 C 154.399994 61.160995 165.644989 58.009003 178.772003 53.042999 L 180 52.578003 L 180 51.233994 L 180 12 L 196 12 L 196 88 L 59.757004 88 L 59.757004 12 Z M 139.928009 63.296997 C 139.279999 69.313995 134.188004 74 128 74 C 121.811996 74 116.720001 69.313995 116.072998 63.296997 C 120.130997 63.766998 124.085999 64 128 64 C 131.914001 64 135.869003 63.766998 139.928009 63.296997 M 128 60 C 124.112999 60 120.223 59.882004 116.245003 59.578003 C 117.364998 54.112 122.202003 50 128 50 C 133.798004 50 138.63501 54.112 139.755997 59.578003 C 135.777008 59.882004 131.886993 60 128 60 M 176 12 L 176 51.233994 C 163.738007 55.873001 153.39801 58.160995 143.73999 59.209991 C 142.415009 51.716003 135.869003 46 128 46 C 120.130997 46 113.584999 51.716003 112.260002 59.209991 C 102.602005 58.160995 92.261002 55.873001 80 51.233994 L 80 12 Z M 238 8 L 18 8 C 14.690994 8 12 10.690994 12 14 L 12 20 L 12 24 L 12 28 L 12 32 L 12 36 L 12 40 L 12 44 L 12 48 L 12 52 L 12 56 L 12 242 C 12 245.309006 14.690994 248 18 248 L 72 248 L 76 248 L 180 248 L 184 248 L 238 248 C 241.309006 248 244 245.309006 244 242 L 244 56 L 244 52 L 244 48 L 244 44 L 244 40 L 244 36 L 244 32 L 244 28 L 244 24 L 244 20 L 244 14 C 244 10.690994 241.309006 8 238 8"/>
    <path id="path1" fill="#ffffff" stroke="none" d="M 34 72 C 35.103001 72 36 72.897003 36 74 C 36 75.102997 35.103001 76 34 76 C 32.896999 76 32 75.102997 32 74 C 32 72.897003 32.896999 72 34 72 M 34 80 C 37.313 80 40 77.313004 40 74 C 40 70.686996 37.313 68 34 68 C 30.687 68 28 70.686996 28 74 C 28 77.313004 30.687 80 34 80"/>
    <path id="path2" fill="#ffffff" stroke="none" d="M 222 76 C 220.897003 76 220 75.102997 220 74 C 220 72.897003 220.897003 72 222 72 C 223.102997 72 224 72.897003 224 74 C 224 75.102997 223.102997 76 222 76 M 222 68 C 218.686996 68 216 70.686996 216 74 C 216 77.313004 218.686996 80 222 80 C 225.313004 80 228 77.313004 228 74 C 228 70.686996 225.313004 68 222 68"/>
    <path id="path3" fill="#ffffff" stroke="none" d="M 34 232 C 32.896999 232 32 231.102997 32 230 C 32 228.897003 32.896999 228 34 228 C 35.103001 228 36 228.897003 36 230 C 36 231.102997 35.103001 232 34 232 M 34 224 C 30.687 224 28 226.686996 28 230 C 28 233.313004 30.687 236 34 236 C 37.313 236 40 233.313004 40 230 C 40 226.686996 37.313 224 34 224"/>
    <path id="path4" fill="#ffffff" stroke="none" d="M 222 232 C 220.897003 232 220 231.102997 220 230 C 220 228.897003 220.897003 228 222 228 C 223.102997 228 224 228.897003 224 230 C 224 231.102997 223.102997 232 222 232 M 222 224 C 218.686996 224 216 226.686996 216 230 C 216 233.313004 218.686996 236 222 236 C 225.313004 236 228 233.313004 228 230 C 228 226.686996 225.313004 224 222 224"/>
    <path id="path5" fill="#ffffff" stroke="none" d="M 88 24 L 168 24 L 168 36 L 88 36 Z M 84.5 40 L 171.5 40 C 171.776001 40 172 39.776001 172 39.5 L 172 20.5 C 172 20.223999 171.776001 20 171.5 20 L 84.5 20 C 84.223999 20 84 20.223999 84 20.5 L 84 39.5 C 84 39.776001 84.223999 40 84.5 40"/>
</svg>
