<?xml version="1.0" encoding="UTF-8"?>
<!-- Generated by Pixelmator Pro 3.7.1 -->
<svg width="256" height="256" viewBox="0 0 256 256" xmlns="http://www.w3.org/2000/svg">
    <path id="Path" fill="#ffffff" stroke="none" d="M 239 56 L 17 56 C 14.470993 56 12.375 57.886993 12.044998 60.326996 C 9.692993 61.139999 8 63.375 8 66 L 8 196 L 8 200 L 12 200 L 244 200 L 248 200 L 248 196 L 248 66 C 248 63.375 246.307007 61.139999 243.955002 60.326996 C 243.625 57.886993 241.529007 56 239 56 M 239 60 C 239.552994 60 240 60.447998 240 61 L 240 62 C 240 63.104004 240.895996 64 242 64 C 243.104004 64 244 64.895996 244 66 L 244 196 L 12 196 L 12 66 C 12 64.895996 12.895996 64 14 64 C 15.104004 64 16 63.104004 16 62 L 16 61 C 16 60.447998 16.447998 60 17 60 L 239 60"/>
    <path id="path1" fill="#ffffff" stroke="none" d="M 232 64 L 24 64 C 21.791 64 20 65.791 20 68 L 20 188 C 20 190.209 21.791 192 24 192 L 36 192 L 36 190 C 36 188.895996 36.895996 188 38 188 L 46 188 C 47.104004 188 48 188.895996 48 190 L 48 192 L 88 192 L 88 188 C 88 186.895996 88.895996 186 90 186 C 91.104004 186 92 186.895996 92 188 L 92 192 L 208 192 L 208 190 C 208 188.895996 208.895996 188 210 188 L 218 188 C 219.104004 188 220 188.895996 220 190 L 220 192 L 232 192 C 234.209 192 236 190.209 236 188 L 236 68 C 236 65.791 234.209 64 232 64 M 232 68 L 232 188 L 223.656998 188 C 222.832001 185.671997 220.606995 184 218 184 L 210 184 C 207.393005 184 205.167999 185.671997 204.343002 188 L 96 188 C 96 184.69101 93.309006 182 90 182 C 86.690994 182 84 184.69101 84 188 L 51.656998 188 C 50.832001 185.671997 48.606995 184 46 184 L 38 184 C 35.393005 184 33.167999 185.671997 32.343002 188 L 24 188 L 24 68 L 232 68"/>
    <path id="path2" fill="#ffffff" stroke="none" d="M 220 76 L 36 76 L 36 180 L 220 180 Z M 216 176 L 40 176 L 40 80 L 216 80 Z"/>
</svg>
