<?xml version="1.0" encoding="UTF-8"?>
<!-- Generated by Pixelmator Pro 3.7.1 -->
<svg width="256" height="256" viewBox="0 0 256 256" xmlns="http://www.w3.org/2000/svg">
    <path id="Path" fill="#ffffff" stroke="none" d="M 128 133.512695 C 114.901001 133.512695 101.802002 134.015701 88.731003 135.020691 L 76 135.999695 C 76 135.999695 70 135.999695 70 143.999695 C 70 151.999695 68 215.999695 68 215.999695 C 68 215.999695 64 231.999695 128 231.999695 C 192 231.999695 188 215.999695 188 215.999695 C 188 215.999695 186 151.999695 186 143.999695 C 186 135.999695 180 135.999695 180 135.999695 L 167.268997 135.020691 C 154.197998 134.015701 141.100006 133.512695 128 133.512695 M 128 137.512695 C 140.945007 137.512695 154.054993 138.015701 166.962006 139.008698 L 179.692993 139.988708 L 179.847 139.999695 L 180 139.999695 C 180.082001 139.999695 182 140.0457 182 143.999695 C 182 151.970703 183.919998 213.508698 184.001999 216.124695 L 184.015991 216.553696 L 184.039001 216.647705 C 183.906998 217.428696 182.553009 219.591705 177.43399 221.803696 C 170.893005 224.630692 157.005997 227.999695 128 227.999695 C 98.994003 227.999695 85.106995 224.630692 78.566002 221.803696 C 73.447998 219.591705 72.093002 217.428696 71.960999 216.647705 L 71.985001 216.553696 L 71.998001 216.124695 C 72.080002 213.508698 74 151.970703 74 143.999695 C 74 141.592697 74.712997 140.182709 76.011002 140.008698 L 76.013 140.010696 L 76.306999 139.988708 L 89.037994 139.008698 C 101.945999 138.015701 115.055 137.512695 128 137.512695"/>
    <path id="path1" fill="#ffffff" stroke="none" d="M 180 144 L 76 144 L 76 208 L 180 208 Z M 176 204 L 80 204 L 80 148 L 176 148 Z"/>
    <path id="path2" fill="#ffffff" stroke="none" d="M 204 164 C 197.382996 164 192 169.382996 192 176 C 192 182.617004 197.382996 188 204 188 C 210.617004 188 216 182.617004 216 176 C 216 169.382996 210.617004 164 204 164 M 204 168 C 208.417999 168 212 171.582001 212 176 C 212 180.417999 208.417999 184 204 184 C 199.582001 184 196 180.417999 196 176 C 196 171.582001 199.582001 168 204 168"/>
    <path id="path3" fill="#ffffff" stroke="none" d="M 224 156 C 217.382996 156 212 161.382996 212 168 C 212 174.617004 217.382996 180 224 180 C 230.617004 180 236 174.617004 236 168 C 236 161.382996 230.617004 156 224 156 M 224 160 C 228.417999 160 232 163.582001 232 168 C 232 172.417999 228.417999 176 224 176 C 219.582001 176 216 172.417999 216 168 C 216 163.582001 219.582001 160 224 160"/>
    <path id="path4" fill="#ffffff" stroke="none" d="M 220 196 L 196 204 L 196 200 L 220 192 Z"/>
    <path id="path5" fill="#ffffff" stroke="none" d="M 220 204 L 196 212 L 196 208 L 220 200 Z"/>
    <path id="path6" fill="#ffffff" stroke="none" d="M 220 212 L 196 220 L 196 216 L 220 208 Z"/>
    <path id="path7" fill="#ffffff" stroke="none" d="M 204 142 C 204 143.104004 203.104004 144 202 144 C 200.895996 144 200 143.104004 200 142 C 200 140.895996 200.895996 140 202 140 C 203.104004 140 204 140.895996 204 142"/>
    <path id="path8" fill="#ffffff" stroke="none" d="M 44 152 L 36 152 C 32.691002 152 30 154.69101 30 158 L 30 162 L 26 162 C 22.691 162 20 164.69101 20 168 L 20 176 C 20 179.30899 22.691 182 26 182 L 30 182 L 30 186 C 30 189.30899 32.691002 192 36 192 L 44 192 C 47.308998 192 50 189.30899 50 186 L 50 182 L 54 182 C 57.308998 182 60 179.30899 60 176 L 60 168 C 60 164.69101 57.308998 162 54 162 L 50 162 L 50 158 C 50 154.69101 47.308998 152 44 152 M 44 156 C 45.104 156 46 156.895996 46 158 L 46 166 L 54 166 C 55.104 166 56 166.895996 56 168 L 56 176 C 56 177.104004 55.104 178 54 178 L 46 178 L 46 186 C 46 187.104004 45.104 188 44 188 L 36 188 C 34.896 188 34 187.104004 34 186 L 34 178 L 26 178 C 24.896 178 24 177.104004 24 176 L 24 168 C 24 166.895996 24.896 166 26 166 L 34 166 L 34 158 C 34 156.895996 34.896 156 36 156 L 44 156"/>
    <path id="path9" fill="#ffffff" stroke="none" d="M 40 164 C 35.589001 164 32 167.588989 32 172 C 32 176.411011 35.589001 180 40 180 C 44.410999 180 48 176.411011 48 172 C 48 167.588989 44.410999 164 40 164 M 40 168 C 42.209 168 44 169.791 44 172 C 44 174.209 42.209 176 40 176 C 37.791 176 36 174.209 36 172 C 36 169.791 37.791 168 40 168"/>
    <path id="path10" fill="#ffffff" stroke="none" d="M 144 64 L 112 64 C 109.791 64 108 65.791 108 68 L 108 92 C 108 94.209 109.791 96 112 96 L 144 96 C 146.209 96 148 94.209 148 92 L 148 68 C 148 65.791 146.209 64 144 64 M 144 92 L 112 92 L 112 68 L 144 68 Z M 144 68"/>
    <path id="path11" fill="#ffffff" stroke="none" d="M 88 40 L 56 40 L 56 36 L 88 36 Z"/>
    <path id="path12" fill="#ffffff" stroke="none" d="M 200 40 L 168 40 L 168 36 L 200 36 Z"/>
    <path id="path13" fill="#ffffff" stroke="none" d="M 60 208 L 60 207.944 L 58.442001 207.686005 C 57.007 207.078003 56 205.656006 56 204 C 56 201.791 57.791 200 60 200 C 62.209 200 64 201.791 64 204 C 64 206.209 62.209 208 60 208 M 60 220 L 58.824001 219.804001 C 57.193001 219.300003 56 217.796997 56 216 C 56 213.860992 57.682999 212.130997 59.793999 212.020996 L 60 212.054993 L 60 212 C 62.209 212 64 213.791 64 216 C 64 218.209 62.209 220 60 220 M 36 212.610992 L 36 212.610992 C 36 210.421005 37.785 208.705994 39.895 208.703995 L 53.766998 211.016998 C 52.667999 212.38501 52 214.112 52 216 C 52 216.966995 52.181 217.890991 52.497002 218.75 L 39.341999 216.557007 C 37.414001 216.235001 36 214.56601 36 212.610992 M 36 200.610992 C 36 198.419998 37.787003 196.70401 39.898003 196.70401 C 40.112 196.70401 40.330002 196.722 40.549 196.757996 L 53.791 198.964996 C 52.673 200.341003 52 202.093002 52 204 C 52 204.945007 52.171001 205.850006 52.474998 206.690002 L 41.207001 204.811996 C 40.987999 204.776001 40.766998 204.774994 40.547001 204.757996 L 39.341999 204.557007 C 37.414001 204.235001 36 202.56601 36 200.610992 M 65.274002 210 C 66.941002 208.533005 68 206.390991 68 204 C 68 199.699997 64.586998 196.19101 60.330002 196.016998 L 60.331001 196 L 41.207001 192.811996 C 40.774002 192.73999 40.334 192.70401 39.899002 192.70401 L 39.898003 192.70401 C 35.542999 192.70401 32 196.251999 32 200.610992 C 32 203.002991 33.047001 205.165009 34.737 206.639999 C 33.063999 208.089996 32 210.227005 32 212.610992 C 32 216.537994 34.812 219.856995 38.684998 220.502991 L 57.835999 223.694 C 58.377998 223.847992 58.943001 223.94101 59.523998 223.975998 L 60 224.054993 L 60 224 C 64.411003 224 68 220.410995 68 216 C 68 213.609009 66.941002 211.466995 65.274002 210"/>
    <path id="path14" fill="#ffffff" stroke="none" d="M 140 8 L 116 8 C 102.300003 8 90.692001 17.811996 88.397995 31.330994 L 87.606003 36 L 92.341995 36 L 163.658005 36 L 168.393997 36 L 167.602005 31.330994 C 165.307999 17.811996 153.699005 8 140 8 M 140 12 C 151.837006 12 161.738007 20.688004 163.658005 32 L 92.341995 32 C 94.262001 20.688004 104.162994 12 116 12 L 140 12"/>
    <path id="path15" fill="#ffffff" stroke="none" d="M 168.200195 40 L 162.822205 40 L 93.1782 40 L 87.800201 40 L 89.347206 45.151001 C 93.387199 58.604004 105.992203 68 120.000198 68 L 136.000198 68 C 150.007202 68 162.612198 58.604004 166.653198 45.151001 Z M 162.822205 44 C 159.3582 55.533005 148.622208 64 136.000198 64 L 120.000198 64 C 107.378204 64 96.642204 55.533005 93.1782 44 L 162.822205 44"/>
    <path id="path16" fill="#ffffff" stroke="none" d="M 84 84 C 76 68 72 68 72 68 L 52 60 L 48 48 L 56 46.666992 L 56 33.263 C 53.683998 32.561005 52 32 52 32 L 52 24 L 96 20.307999 L 100 16.29599 L 51.693001 20.011993 L 48 20.296005 L 48 24 L 48 32 L 48 34.882996 L 50.735001 35.794998 C 50.771 35.807007 51.237 35.962006 52 36.205994 L 52 43.278 L 47.341999 44.054001 L 42.724998 44.824005 L 44.205002 49.264999 L 48.205002 61.264999 L 48.792 63.024994 L 50.514999 63.714005 L 70.514999 71.714005 L 71.229004 72 L 71.235001 72 C 72.139999 72.645004 75.238998 75.421005 80.421997 85.789001 C 86.792999 98.531006 95.592003 104.341003 100 106.591003 L 100 102.020996 C 95.792 99.494995 89.088997 94.177994 84 84"/>
    <path id="path17" fill="#ffffff" stroke="none" d="M 208.657196 44.054199 L 204.000198 43.278198 L 204.000198 36.206207 C 204.762207 35.962204 205.228195 35.806198 205.264206 35.795197 L 208.000198 34.883194 L 208.000198 32.000198 L 208.000198 24.000198 L 208.000198 20.296204 L 204.306198 20.012207 L 156.000198 16.296204 L 160.000198 20.307205 L 204.000198 24.000198 L 204.000198 32.000198 C 204.000198 32.000198 202.316193 32.561203 200.000198 33.263199 L 200.000198 46.666199 L 208.000198 48.000198 L 204.000198 60.000198 L 184.000198 68.000198 C 184.000198 68.000198 180.000198 68.000198 172.000198 84.000198 C 166.911209 94.178207 160.208206 99.495209 156.000198 102.021194 L 156.000198 106.591202 C 160.408203 104.341202 169.207199 98.531204 175.578201 85.7892 C 180.7612 75.421204 183.859207 72.645203 184.764206 72.000198 L 184.770203 72.000198 L 185.485199 71.714203 L 205.485199 63.714203 L 207.208206 63.025208 L 207.795197 61.264206 L 211.795197 49.264206 L 213.275208 44.824203 Z"/>
    <path id="path18" fill="#ffffff" stroke="none" d="M 152 116 C 152 118.209 150.209 120 148 120 L 108 120 C 105.791 120 104 118.209 104 116 L 104 60 L 100 60 L 100 116 C 100 120.410995 103.589005 124 108 124 L 148 124 C 152.410995 124 156 120.410995 156 116 L 156 60 L 152 60 Z"/>
    <path id="path19" fill="#ffffff" stroke="none" d="M 172 84 L 172 116 L 156 116 L 156 120 L 172 120 L 176 120 L 176 116 L 176 84 Z"/>
    <path id="path20" fill="#ffffff" stroke="none" d="M 100 116 L 84 116 L 84 84 L 80 84 L 80 116 L 80 120 L 84 120 L 100 120 Z"/>
    <path id="path21" fill="#ffffff" stroke="none" d="M 244.729507 173.492203 C 244.480499 171.545197 244.224503 169.549194 243.968506 167.504211 C 242.545502 156.117203 241.470505 147.016205 240.774506 140.453201 C 240.061493 133.734192 234.886505 128.3022 228.191498 127.243195 C 218.276505 125.676193 201.713501 121.735199 193.801498 118.588196 C 189.485504 116.870193 184.915497 116.000198 180.219498 116.000198 L 152.000504 116.000198 L 152.000504 120.000198 L 180.219498 120.000198 C 184.3685 120.000198 188.468506 120.771194 192.323502 122.304199 C 200.364502 125.503204 216.910507 129.510193 227.566498 131.194199 C 232.482498 131.971191 236.2715 135.926208 236.796494 140.875198 C 237.364502 146.223206 238.335495 154.689209 240.000504 168.000198 C 244.000504 200.000198 248.000504 220.000198 228.000504 228.000198 L 191.827499 238.851196 C 189.150497 239.654205 186.416504 240.225204 183.642502 240.562195 C 174.570511 241.6642 152.453506 244.000198 128.000504 244.000198 C 103.546501 244.000198 81.430504 241.6642 72.357506 240.562195 C 69.583504 240.225204 66.849495 239.654205 64.172493 238.851196 L 28.000496 228.000198 C 8.000496 220.000198 12.000496 200.000198 16.000496 168.000198 C 17.663506 154.689209 18.635506 146.223206 19.203499 140.875198 C 19.728493 135.926208 23.517494 131.971191 28.433495 131.194199 C 39.090492 129.510193 55.635506 125.503204 63.676506 122.304199 C 67.531502 120.771194 71.6325 120.000198 75.780495 120.000198 L 104.000496 120.000198 L 104.000496 116.000198 L 75.780495 116.000198 C 71.084496 116.000198 66.514503 116.870193 62.198494 118.588196 C 54.2855 121.735199 37.724495 125.676193 27.809502 127.243195 C 21.112495 128.3022 15.938499 133.734192 15.225502 140.453201 C 14.528496 147.016205 13.454506 156.117203 12.030495 167.504211 C 11.775505 169.549194 11.519493 171.545197 11.2705 173.492203 C 7.583504 202.277191 4.919502 223.076202 26.514503 231.714203 L 26.679497 231.780197 L 26.850502 231.831207 L 63.022499 242.682205 C 65.904503 243.547195 68.8825 244.170197 71.875496 244.533203 C 80.458504 245.576202 103.109505 248.000198 128.000504 248.000198 C 152.890503 248.000198 175.541504 245.576202 184.125504 244.533203 C 187.117508 244.170197 190.095505 243.547195 192.976501 242.683197 L 229.149506 231.831207 L 229.320496 231.780197 L 229.485504 231.714203 C 251.080505 223.076202 248.416504 202.277191 244.729507 173.492203"/>
</svg>
