<?xml version="1.0" encoding="UTF-8"?>
<!-- Generated by Pixelmator Pro 3.7.1 -->
<svg width="256" height="256" viewBox="0 0 256 256" xmlns="http://www.w3.org/2000/svg">
    <path id="Path" fill="#ffffff" stroke="none" d="M 244 220 L 220 220 L 220 204 L 220 200 L 220 184 L 220 180 L 220 80 L 220 76 L 220 36 L 244 36 Z M 176 204 L 216 204 L 216 220 L 176 220 Z M 40 220 L 40 196 L 40 192 L 164 192 L 168 192 L 172 192 L 172 196 L 172 200 L 172 204 L 172 220 Z M 12 220 L 12 36 L 172 36 L 172 76 L 172 80 L 172 180 L 172 184 L 172 188 L 168 188 L 164 188 L 36 188 L 36 192 L 36 220 Z M 176 56 L 216 56 L 216 76 L 176 76 Z M 216 84 L 176 84 L 176 80 L 216 80 Z M 176 88 L 216 88 L 216 92 L 176 92 Z M 176 96 L 216 96 L 216 100 L 176 100 Z M 176 104 L 216 104 L 216 108 L 176 108 Z M 176 112 L 216 112 L 216 116 L 176 116 Z M 176 120 L 216 120 L 216 124 L 176 124 Z M 176 128 L 216 128 L 216 132 L 176 132 Z M 176 136 L 216 136 L 216 140 L 176 140 Z M 176 144 L 216 144 L 216 148 L 176 148 Z M 176 152 L 216 152 L 216 156 L 176 156 Z M 216 172 L 176 172 L 176 168 L 216 168 Z M 176 160 L 216 160 L 216 164 L 176 164 Z M 176 176 L 216 176 L 216 180 L 176 180 Z M 216 200 L 176 200 L 176 196 L 176 192 L 176 188 L 176 184 L 216 184 Z M 216 52 L 176 52 L 176 36 L 216 36 Z M 244 32 L 220 32 L 216 32 L 176 32 L 172 32 L 12 32 L 8 32 L 8 36 L 8 220 L 8 224 L 12 224 L 172 224 L 176 224 L 216 224 L 220 224 L 244 224 L 248 224 L 248 220 L 248 36 L 248 32 Z"/>
</svg>
