<?xml version="1.0" encoding="UTF-8"?>
<!-- Generated by Pixelmator Pro 3.7.1 -->
<svg width="256" height="256" viewBox="0 0 256 256" xmlns="http://www.w3.org/2000/svg">
    <path id="Path" fill="#ffffff" stroke="none" d="M 52 60 L 80 60 L 80 56 L 52 56 Z"/>
    <path id="path1" fill="#ffffff" stroke="none" d="M 52 68 L 80 68 L 80 64 L 52 64 Z"/>
    <path id="path2" fill="#ffffff" stroke="none" d="M 52 76 L 80 76 L 80 72 L 52 72 Z"/>
    <path id="path3" fill="#ffffff" stroke="none" d="M 176 68 L 204 68 L 204 64 L 176 64 Z"/>
    <path id="path4" fill="#ffffff" stroke="none" d="M 176 76 L 204 76 L 204 72 L 176 72 Z"/>
    <path id="path5" fill="#ffffff" stroke="none" d="M 176 60 L 204 60 L 204 56 L 176 56 Z"/>
    <path id="path6" fill="#ffffff" stroke="none" d="M 244 56 L 208 56 L 208 60 L 244 60 L 244 64 L 208 64 L 208 68 L 244 68 L 244 72 L 208 72 L 208 76 L 244 76 L 244 80 L 12 80 L 12 76 L 48 76 L 48 72 L 12 72 L 12 68 L 48 68 L 48 64 L 12 64 L 12 60 L 48 60 L 48 56 L 12 56 L 12 54.828995 C 12 53.266006 13.266998 52 14.828995 52 L 241.171997 52 C 242.733002 52 244 53.266006 244 54.828995 Z M 244 203.936996 C 244 206.182007 242.182007 208 239.938004 208 L 16.061996 208 C 13.817993 208 12 206.182007 12 203.936996 L 12 84 L 244 84 Z M 241.171997 48 L 14.828995 48 C 11.063004 48 8 51.063004 8 54.828995 L 8 56 L 8 60 L 8 64 L 8 68 L 8 72 L 8 76 L 8 203.936996 C 8 208.384003 11.617004 212 16.061996 212 L 239.938004 212 C 244.384003 212 248 208.384003 248 203.936996 L 248 76 L 248 72 L 248 68 L 248 64 L 248 60 L 248 56 L 248 54.828995 C 248 51.063004 244.936996 48 241.171997 48"/>
    <path id="path7" fill="#ffffff" stroke="none" d="M 68 194.084991 C 68 195.143005 67.142998 196 66.084999 196 L 25.915001 196 C 24.856998 196 24 195.143005 24 194.084991 L 24 129.915009 C 24 128.856995 24.856998 128 25.915001 128 L 52 128 L 52 132 L 52 140 L 52 144 L 56 144 L 64 144 L 68 144 Z M 56 132 L 64 132 L 64 140 L 56 140 Z M 66.084999 124 L 25.915001 124 C 22.653 124 20 126.653 20 129.915009 L 20 194.084991 C 20 197.347 22.653 200 25.915001 200 L 66.084999 200 C 69.347 200 72 197.347 72 194.084991 L 72 129.915009 C 72 126.653 69.347 124 66.084999 124"/>
    <path id="path8" fill="#ffffff" stroke="none" d="M 172 108 L 84 108 L 84 92 L 172 92 Z M 80 112 L 176 112 L 176 88 L 80 88 Z"/>
    <path id="path9" fill="#ffffff" stroke="none" d="M 172 164 L 84 164 L 84 120.085999 C 84 120.039001 84.039001 120 84.085999 120 L 171.914001 120 C 171.960999 120 172 120.039001 172 120.085999 Z M 172 195.914001 C 172 195.960999 171.960999 196 171.914001 196 L 84.085999 196 C 84.039001 196 84 195.960999 84 195.914001 L 84 168 L 172 168 Z M 171.914001 116 L 84.085999 116 C 81.829002 116 80 117.828995 80 120.085999 L 80 195.914001 C 80 198.171005 81.829002 200 84.085999 200 L 171.914001 200 C 174.171005 200 176 198.171005 176 195.914001 L 176 120.085999 C 176 117.828995 174.171005 116 171.914001 116"/>
    <path id="path10" fill="#ffffff" stroke="none" d="M 188 142 L 190 142 L 190 144 L 194 144 L 198 144 L 202 144 L 202 142 L 204 142 L 204 138 L 204 134 L 204 130 L 202 130 L 202 128 L 230.084991 128 C 231.143005 128 232 128.856995 232 129.915009 L 232 194.084991 C 232 195.143005 231.143005 196 230.084991 196 L 189.914993 196 C 188.856995 196 188 195.143005 188 194.084991 Z M 188 129.915009 C 188 128.856995 188.856995 128 189.914993 128 L 190 128 L 190 130 L 188 130 Z M 192 138 L 192 134 L 194 134 L 194 132 L 198 132 L 198 134 L 200 134 L 200 138 L 198 138 L 198 140 L 194 140 L 194 138 Z M 189.914993 200 L 230.084991 200 C 233.347 200 236 197.347 236 194.084991 L 236 129.915009 C 236 126.653 233.347 124 230.084991 124 L 189.914993 124 C 186.653 124 184 126.653 184 129.915009 L 184 194.084991 C 184 197.347 186.653 200 189.914993 200"/>
    <path id="path11" fill="#ffffff" stroke="none" d="M 32 172 L 32 160 L 44 160 L 48 160 L 56 160 L 56 172 Z M 56 188 L 32 188 L 32 176 L 56 176 Z M 32 144 L 44 144 L 44 156 L 32 156 Z M 48 156 L 48 144 L 48 140 L 44 140 L 32 140 L 28 140 L 28 144 L 28 156 L 28 160 L 28 172 L 28 176 L 28 188 L 28 192 L 32 192 L 56 192 L 60 192 L 60 188 L 60 176 L 60 172 L 60 160 L 60 156 L 56 156 Z"/>
    <path id="path12" fill="#ffffff" stroke="none" d="M 224 188 L 200 188 L 200 176 L 224 176 Z M 200 160 L 208 160 L 212 160 L 224 160 L 224 172 L 200 172 Z M 212 144 L 224 144 L 224 156 L 212 156 Z M 224 192 L 228 192 L 228 188 L 228 176 L 228 172 L 228 160 L 228 156 L 228 144 L 228 140 L 224 140 L 212 140 L 208 140 L 208 144 L 208 156 L 200 156 L 196 156 L 196 160 L 196 172 L 196 176 L 196 188 L 196 192 L 200 192 Z"/>
    <path id="path13" fill="#ffffff" stroke="none" d="M 100 184 L 92 184 L 92 176 L 100 176 Z M 90 172 L 88 172 L 88 174 L 88 186 L 88 188 L 90 188 L 102 188 L 104 188 L 104 186 L 104 174 L 104 172 L 102 172 Z"/>
    <path id="path14" fill="#ffffff" stroke="none" d="M 156 176 L 164 176 L 164 184 L 156 184 Z M 166 188 L 168 188 L 168 186 L 168 174 L 168 172 L 166 172 L 154 172 L 152 172 L 152 174 L 152 186 L 152 188 L 154 188 Z"/>
    <path id="path15" fill="#ffffff" stroke="none" d="M 164 152 L 156 152 L 156 144 L 164 144 Z M 156 140 L 152 140 L 152 144 L 152 152 L 152 156 L 156 156 L 164 156 L 168 156 L 168 152 L 168 144 L 168 140 L 164 140 Z"/>
    <path id="path16" fill="#ffffff" stroke="none" d="M 100 152 L 92 152 L 92 144 L 100 144 Z M 92 140 L 88 140 L 88 144 L 88 152 L 88 156 L 92 156 L 100 156 L 104 156 L 104 152 L 104 144 L 104 140 L 100 140 Z"/>
    <path id="path17" fill="#ffffff" stroke="none" d="M 120 152 L 112 152 L 112 144 L 120 144 Z M 112 140 L 108 140 L 108 144 L 108 152 L 108 156 L 112 156 L 120 156 L 124 156 L 124 152 L 124 144 L 124 140 L 120 140 Z"/>
    <path id="path18" fill="#ffffff" stroke="none" d="M 144 152 L 136 152 L 136 144 L 144 144 Z M 136 140 L 132 140 L 132 144 L 132 152 L 132 156 L 136 156 L 144 156 L 148 156 L 148 152 L 148 144 L 148 140 L 144 140 Z"/>
    <path id="path19" fill="#ffffff" stroke="none" d="M 130 178 C 130 179.104004 129.104004 180 128 180 C 126.895996 180 126 179.104004 126 178 C 126 176.895996 126.895996 176 128 176 C 129.104004 176 130 176.895996 130 178 M 124 178 C 124 180.205994 125.793999 182 128 182 C 130.205994 182 132 180.205994 132 178 C 132 175.794006 130.205994 174 128 174 C 125.793999 174 124 175.794006 124 178"/>
    <path id="path20" fill="#ffffff" stroke="none" d="M 140 178 C 140 176.895996 140.895996 176 142 176 C 143.104004 176 144 176.895996 144 178 L 144 182 C 144 183.104004 143.104004 184 142 184 C 140.895996 184 140 183.104004 140 182 Z M 142 188 C 145.309006 188 148 185.30899 148 182 L 148 178 C 148 174.69101 145.309006 172 142 172 C 138.690994 172 136 174.69101 136 178 L 136 182 C 136 185.30899 138.690994 188 142 188"/>
    <path id="path21" fill="#ffffff" stroke="none" d="M 116 182 C 116 183.104004 115.103996 184 114 184 C 112.895996 184 112 183.104004 112 182 L 112 178 C 112 176.895996 112.895996 176 114 176 C 115.103996 176 116 176.895996 116 178 Z M 114 172 C 110.691002 172 108 174.69101 108 178 L 108 182 C 108 185.30899 110.691002 188 114 188 C 117.308998 188 120 185.30899 120 182 L 120 178 C 120 174.69101 117.308998 172 114 172"/>
</svg>
