<?xml version="1.0" encoding="UTF-8"?>
<!-- Generated by Pixelmator Pro 3.7.1 -->
<svg width="256" height="256" viewBox="0 0 256 256" xmlns="http://www.w3.org/2000/svg">
    <path id="Path" fill="#ffffff" stroke="none" d="M 82 8 L 74 8 C 71.392998 8 69.167999 9.671997 68.343002 12 L 68 12 L 62 12 C 58.691002 12 56 14.690994 56 18 L 56 126 C 56 129.30899 58.691002 132 62 132 L 68 132 L 188 132 L 194 132 C 197.30899 132 200 129.30899 200 126 L 200 18 C 200 14.690994 197.30899 12 194 12 L 188 12 L 87.656998 12 C 86.832001 9.671997 84.607002 8 82 8 M 82 12 C 83.103996 12 84 12.895996 84 14 L 84 16 L 188 16 L 194 16 C 195.104004 16 196 16.895996 196 18 L 196 126 C 196 127.104004 195.104004 128 194 128 L 188 128 L 68 128 L 62 128 C 60.896 128 60 127.104004 60 126 L 60 18 C 60 16.895996 60.896 16 62 16 L 68 16 L 72 16 L 72 14 C 72 12.895996 72.895996 12 74 12 L 82 12"/>
    <path id="path1" fill="#ffffff" stroke="none" d="M 50.8965 176 L 44.0005 176 L 40.0005 176 L 40.0005 180 L 40.0005 212 L 40.0005 216 L 44.0005 216 L 50.8965 216 C 53.710499 216 56.0005 213.710999 56.0005 210.895996 L 56.0005 181.104004 C 56.0005 178.289001 53.710499 176 50.8965 176 M 50.8965 180 C 51.505501 180 52.0005 180.494003 52.0005 181.104004 L 52.0005 210.895996 C 52.0005 211.505997 51.505501 212 50.8965 212 L 44.0005 212 L 44.0005 180 L 50.8965 180"/>
    <path id="path2" fill="#ffffff" stroke="none" d="M 114.8965 176 L 85.1035 176 C 82.289505 176 80.000504 178.289001 80.000504 181.104004 L 80.000504 210.895996 C 80.000504 213.710999 82.289505 216 85.1035 216 L 114.8965 216 C 117.710503 216 120.000504 213.710999 120.000504 210.895996 L 120.000504 181.104004 C 120.000504 178.289001 117.710503 176 114.8965 176 M 114.8965 180 C 115.505501 180 116.000504 180.494003 116.000504 181.104004 L 116.000504 210.895996 C 116.000504 211.505997 115.505501 212 114.8965 212 L 85.1035 212 C 84.494499 212 84.000504 211.505997 84.000504 210.895996 L 84.000504 181.104004 C 84.000504 180.494003 84.494499 180 85.1035 180 L 114.8965 180"/>
    <path id="path3" fill="#ffffff" stroke="none" d="M 78.8965 180 L 57.1035 180 C 54.289501 180 52.0005 182.289001 52.0005 185.104004 L 52.0005 206.895996 C 52.0005 209.710999 54.289501 212 57.1035 212 L 78.8965 212 C 81.710503 212 84.000504 209.710999 84.000504 206.895996 L 84.000504 185.104004 C 84.000504 182.289001 81.710503 180 78.8965 180 M 78.8965 184 C 79.505501 184 80.000504 184.494003 80.000504 185.104004 L 80.000504 206.895996 C 80.000504 207.505997 79.505501 208 78.8965 208 L 57.1035 208 C 56.494499 208 56.0005 207.505997 56.0005 206.895996 L 56.0005 185.104004 C 56.0005 184.494003 56.494499 184 57.1035 184 L 78.8965 184"/>
    <path id="path4" fill="#ffffff" stroke="none" d="M 188 64 L 68 64 L 68 60 L 188 60 Z"/>
    <path id="path5" fill="#ffffff" stroke="none" d="M 140 72 L 68 72 L 68 68 L 140 68 Z"/>
    <path id="path6" fill="#ffffff" stroke="none" d="M 192 72 L 180 72 L 180 68 L 192 68 Z"/>
    <path id="path7" fill="#ffffff" stroke="none" d="M 188 80 L 68 80 L 68 76 L 188 76 Z"/>
    <path id="path8" fill="#ffffff" stroke="none" d="M 184 60 L 180 60 L 140 60 L 136 60 L 136 64 L 136 76 L 136 80 L 140 80 L 180 80 L 184 80 L 184 76 L 184 64 Z M 180 76 L 140 76 L 140 64 L 180 64 Z"/>
    <path id="path9" fill="#ffffff" stroke="none" d="M 68 128 L 64 128 L 64 16 L 68 16 Z"/>
    <path id="path10" fill="#ffffff" stroke="none" d="M 192 128 L 188 128 L 188 16 L 192 16 Z"/>
    <path id="path11" fill="#ffffff" stroke="none" d="M 44 108 L 44 52 L 44 48 L 44 32 C 44 29.791 45.791 28 48 28 L 56 28 L 56 24 L 48 24 C 43.589001 24 40 27.588989 40 32 L 40 48 L 40 52 L 40 108 L 40 112 L 44 112 L 56 112 L 56 108 Z"/>
    <path id="path12" fill="#ffffff" stroke="none" d="M 208 24 L 200 24 L 200 28 L 208 28 C 210.209 28 212 29.791 212 32 L 212 48 L 212 52 L 212 108 L 200 108 L 200 112 L 212 112 L 216 112 L 216 108 L 216 52 L 216 48 L 216 32 C 216 27.589005 212.410995 24 208 24"/>
    <path id="path13" fill="#ffffff" stroke="none" d="M 212 108 L 200 108 L 200 112 L 212 112 L 212 229.240997 C 212 230.764999 210.764999 232 209.240997 232 L 150.759003 232 C 149.235001 232 148 230.764999 148 229.240997 L 148 132 L 144 132 L 144 229.240997 L 144 240 C 144 242.209 142.209 244 140 244 L 48 244 C 45.791 244 44 242.209 44 240 L 44 112 L 56 112 L 56 108 L 44 108 L 40 108 L 40 112 L 40 240 C 40 244.410995 43.589005 248 48 248 L 140 248 C 144.411011 248 148 244.410995 148 240 L 148 235.404999 C 148.843994 235.783997 149.774994 236 150.759003 236 L 209.240997 236 C 212.968002 236 216 232.968002 216 229.240997 L 216 112 L 216 108 Z"/>
    <path id="path14" fill="#ffffff" stroke="none" d="M 120.965302 176 L 116.000298 176 L 116.000298 180 L 120.965302 180 C 128.964294 180 135.448303 187.070007 135.448303 195.792999 C 135.448303 204.515991 128.964294 211.585999 120.965302 211.585999 L 116.000298 211.585999 L 116.000298 215.585999 L 120.965302 215.585999 C 131.157303 215.585999 139.448303 206.707001 139.448303 195.792999 C 139.448303 184.878998 131.157303 176 120.965302 176"/>
</svg>
