<?xml version="1.0" encoding="UTF-8"?>
<!-- Generated by Pixelmator Pro 3.7.1 -->
<svg width="256" height="256" viewBox="0 0 256 256" xmlns="http://www.w3.org/2000/svg">
    <path id="Path" fill="#ffffff" stroke="none" d="M 56 216 L 100 216 L 100 212 L 56 212 Z"/>
    <path id="path1" fill="#ffffff" stroke="none" d="M 56 208 L 100 208 L 100 204 L 56 204 Z"/>
    <path id="path2" fill="#ffffff" stroke="none" d="M 56 200 L 100 200 L 100 196 L 56 196 Z"/>
    <path id="path3" fill="#ffffff" stroke="none" d="M 56 192 L 100 192 L 100 188 L 56 188 Z"/>
    <path id="path4" fill="#ffffff" stroke="none" d="M 56 184 L 100 184 L 100 180 L 56 180 Z"/>
    <path id="path5" fill="#ffffff" stroke="none" d="M 56 176 L 100 176 L 100 172 L 56 172 Z"/>
    <path id="path6" fill="#ffffff" stroke="none" d="M 56 168 L 100 168 L 100 164 L 56 164 Z"/>
    <path id="path7" fill="#ffffff" stroke="none" d="M 56 160 L 100 160 L 100 156 L 56 156 Z"/>
    <path id="path8" fill="#ffffff" stroke="none" d="M 56 152 L 100 152 L 100 148 L 56 148 Z"/>
    <path id="path9" fill="#ffffff" stroke="none" d="M 56 144 L 100 144 L 100 140 L 56 140 Z"/>
    <path id="path10" fill="#ffffff" stroke="none" d="M 56 136 L 100 136 L 100 132 L 56 132 Z"/>
    <path id="path11" fill="#ffffff" stroke="none" d="M 56 128 L 100 128 L 100 124 L 56 124 Z"/>
    <path id="path12" fill="#ffffff" stroke="none" d="M 56 120 L 100 120 L 100 116 L 56 116 Z"/>
    <path id="path13" fill="#ffffff" stroke="none" d="M 56 112 L 100 112 L 100 108 L 56 108 Z"/>
    <path id="path14" fill="#ffffff" stroke="none" d="M 56 104 L 100 104 L 100 100 L 56 100 Z"/>
    <path id="path15" fill="#ffffff" stroke="none" d="M 56 96 L 100 96 L 100 92 L 56 92 Z"/>
    <path id="path16" fill="#ffffff" stroke="none" d="M 56 88 L 100 88 L 100 84 L 56 84 Z"/>
    <path id="path17" fill="#ffffff" stroke="none" d="M 56 80 L 100 80 L 100 76 L 56 76 Z"/>
    <path id="path18" fill="#ffffff" stroke="none" d="M 56 72 L 100 72 L 100 68 L 56 68 Z"/>
    <path id="path19" fill="#ffffff" stroke="none" d="M 56 64 L 100 64 L 100 60 L 56 60 Z"/>
    <path id="path20" fill="#ffffff" stroke="none" d="M 56 56 L 100 56 L 100 52 L 56 52 Z"/>
    <path id="path21" fill="#ffffff" stroke="none" d="M 128 200 L 118 184 L 138 184 Z M 118 180 L 110.783005 180 L 114.608002 186.119995 L 124.608002 202.119995 L 128 207.546997 L 131.391998 202.119995 L 141.391998 186.119995 L 145.216995 180 L 138 180 Z"/>
    <path id="path22" fill="#ffffff" stroke="none" d="M 232 202 C 232 203.104004 231.104004 204 230 204 L 220 204 L 220 242 C 220 243.104004 219.104004 244 218 244 L 100 244 L 100 220 L 56 220 L 56 244 L 34.033005 244 C 32.916 244 32.014999 243.084991 32.033005 241.968002 L 32.653 204 L 26 204 C 24.895996 204 24 203.104004 24 202 L 24 14 C 24 12.895996 24.895996 12 26 12 L 32 12 L 32 16 L 44 16 L 44 12 L 56 12 L 56 16 L 56 20 L 56 24 L 56 28 L 56 32 L 56 36 L 56 40 L 56 44 L 56 48 L 60 48 L 96 48 L 100 48 L 100 44 L 100 40 L 100 36 L 100 32 L 100 28 L 100 24 L 100 20 L 100 16 L 100 12 L 104 12 L 104 167 C 104 169.757004 106.242996 172 109 172 L 203 172 C 205.757004 172 208 169.757004 208 167 L 208 12 L 212 12 L 212 16 L 224 16 L 224 12 L 230 12 C 231.104004 12 232 12.895996 232 14 Z M 60 224 L 96 224 L 96 244 L 60 244 Z M 60 40 L 96 40 L 96 44 L 60 44 Z M 60 32 L 96 32 L 96 36 L 60 36 Z M 60 24 L 96 24 L 96 28 L 60 28 Z M 60 16 L 96 16 L 96 20 L 60 20 Z M 108 12 L 204 12 L 204 167 C 204 167.553009 203.552994 168 203 168 L 109 168 C 108.447998 168 108 167.553009 108 167 Z M 230 8 L 208 8 L 204 8 L 108 8 L 104 8 L 96 8 L 96 12 L 60 12 L 60 8 L 26 8 C 22.690994 8 20 10.690994 20 14 L 20 202 C 20 205.30899 22.690994 208 26 208 L 28.587006 208 L 28.033997 241.902008 C 28.007004 243.522995 28.619003 245.053009 29.755997 246.208008 C 30.893005 247.363007 32.412003 248 34.033005 248 L 56 248 L 100 248 L 218 248 C 221.309006 248 224 245.30899 224 242 L 224 208 L 230 208 C 233.309006 208 236 205.30899 236 202 L 236 14 C 236 10.690994 233.309006 8 230 8"/>
</svg>
