<?xml version="1.0" encoding="UTF-8"?>
<!-- Generated by Pixelmator Pro 3.7.1 -->
<svg width="256" height="256" viewBox="0 0 256 256" xmlns="http://www.w3.org/2000/svg">
    <path id="Path" fill="#ffffff" stroke="none" d="M 196 217.806595 L 196 221.548599 L 196 225.289597 C 196 237.763596 162 243.999603 128 243.999603 C 94 243.999603 60 237.763596 60 225.289597 L 60 221.548599 L 60 217.806595 L 60 23.225601 C 60 17.025589 65.074005 11.999588 71.333 11.999588 L 184.666992 11.999588 C 190.925995 11.999588 196 17.025589 196 23.225601 Z M 184.666992 7.999588 L 71.333 7.999588 C 62.878006 7.999588 56 14.82959 56 23.225601 L 56 217.806595 L 56 221.548599 L 56 225.289597 C 56 246.905594 115.976997 247.999603 128 247.999603 C 140.022995 247.999603 200 246.905594 200 225.289597 L 200 221.548599 L 200 217.806595 L 200 23.225601 C 200 14.82959 193.121002 7.999588 184.666992 7.999588"/>
    <path id="path1" fill="#ffffff" stroke="none" d="M 184 109.951202 L 184 112.488205 C 184 114.911194 182.014999 116.883194 179.574005 116.883194 L 179.574005 116.966202 C 162.919006 118.979202 145.811996 120.000198 128.722992 120.000198 C 111.625999 120.000198 94.032997 118.978195 76.426003 116.963196 L 76.426003 116.883194 C 73.985001 116.883194 72 114.911194 72 112.488205 L 72 109.951202 L 72 27.196198 C 72 25.433197 73.445 24.000198 75.222 24.000198 L 180.776993 24.000198 C 182.554993 24.000198 184 25.433197 184 27.196198 Z M 180.776993 20.000198 L 75.222 20.000198 C 71.233002 20.000198 68 23.222198 68 27.196198 L 68 109.951202 L 68 112.488205 C 68 117.124207 71.772003 120.883194 76.426003 120.883194 L 75.5 120.883194 C 93.238998 122.931198 110.983002 124.000198 128.722992 124.000198 C 145.983002 124.000198 163.238998 122.989197 180.5 120.883194 L 179.574005 120.883194 C 184.227997 120.883194 188 117.124207 188 112.488205 L 188 109.951202 L 188 27.196198 C 188 23.222198 184.766998 20.000198 180.776993 20.000198"/>
    <path id="path2" fill="#ffffff" stroke="none" d="M 92 36 L 164 36 L 164 96 L 92 96 Z M 88 100 L 168 100 L 168 32 L 88 32 Z"/>
    <path id="path3" fill="#ffffff" stroke="none" d="M 92 168 L 92 180 L 80 180 L 80 168 L 68 168 L 68 156 L 80 156 L 80 144 L 92 144 L 92 156 L 104 156 L 104 168 Z M 108 172 L 108 168 L 108 156 L 108 152 L 104 152 L 96 152 L 96 144 L 96 140 L 92 140 L 80 140 L 76 140 L 76 144 L 76 152 L 68 152 L 64 152 L 64 156 L 64 168 L 64 172 L 68 172 L 76 172 L 76 180 L 76 184 L 80 184 L 92 184 L 96 184 L 96 180 L 96 172 L 104 172 Z"/>
    <path id="path4" fill="#ffffff" stroke="none" d="M 86 166 C 83.791 166 82 164.209 82 162 C 82 159.791 83.791 158 86 158 C 88.209 158 90 159.791 90 162 C 90 164.209 88.209 166 86 166 M 86 154 C 81.588997 154 78 157.588989 78 162 C 78 166.411011 81.588997 170 86 170 C 90.411003 170 94 166.411011 94 162 C 94 157.588989 90.411003 154 86 154"/>
    <path id="path5" fill="#ffffff" stroke="none" d="M 150 174 C 145.582001 174 142 170.417999 142 166 C 142 161.582001 145.582001 158 150 158 C 154.417999 158 158 161.582001 158 166 C 158 170.417999 154.417999 174 150 174 M 150 154 C 143.382996 154 138 159.382996 138 166 C 138 172.617004 143.382996 178 150 178 C 156.617004 178 162 172.617004 162 166 C 162 159.382996 156.617004 154 150 154"/>
    <path id="path6" fill="#ffffff" stroke="none" d="M 172 164 C 167.582001 164 164 160.417999 164 156 C 164 151.582001 167.582001 148 172 148 C 176.417999 148 180 151.582001 180 156 C 180 160.417999 176.417999 164 172 164 M 172 144 C 165.382996 144 160 149.382996 160 156 C 160 162.617004 165.382996 168 172 168 C 178.617004 168 184 162.617004 184 156 C 184 149.382996 178.617004 144 172 144"/>
    <path id="path7" fill="#ffffff" stroke="none" d="M 116.462898 204 L 107.536903 204 C 105.591896 204 103.999901 202.649994 103.999901 201 C 103.999901 199.350006 105.591896 198 107.536903 198 L 116.462898 198 C 118.407898 198 119.999901 199.350006 119.999901 201 C 119.999901 202.649994 118.407898 204 116.462898 204 M 116.462898 194 L 107.536903 194 C 103.380898 194 99.999901 197.140991 99.999901 201 C 99.999901 204.859009 103.380898 208 107.536903 208 L 116.462898 208 C 120.618896 208 123.999901 204.859009 123.999901 201 C 123.999901 197.140991 120.618896 194 116.462898 194"/>
    <path id="path8" fill="#ffffff" stroke="none" d="M 144.462906 204 L 135.536896 204 C 133.591904 204 131.999893 202.649994 131.999893 201 C 131.999893 199.350006 133.591904 198 135.536896 198 L 144.462906 198 C 146.407898 198 147.999893 199.350006 147.999893 201 C 147.999893 202.649994 146.407898 204 144.462906 204 M 144.462906 194 L 135.536896 194 C 131.380905 194 127.999901 197.140991 127.999901 201 C 127.999901 204.859009 131.380905 208 135.536896 208 L 144.462906 208 C 148.618896 208 151.999893 204.859009 151.999893 201 C 151.999893 197.140991 148.618896 194 144.462906 194"/>
    <path id="path9" fill="#ffffff" stroke="none" d="M 78 56 C 76.896004 56 76 56.895996 76 58 C 76 59.104004 76.896004 60 78 60 C 79.103996 60 80 59.104004 80 58 C 80 56.895996 79.103996 56 78 56"/>
</svg>
