<?xml version="1.0" encoding="UTF-8"?>
<!-- Generated by Pixelmator Pro 3.7.1 -->
<svg width="256" height="256" viewBox="0 0 256 256" xmlns="http://www.w3.org/2000/svg">
    <path id="Path" fill="#ffffff" stroke="none" d="M 208 212 L 48 212 L 52 208 L 204 208 Z"/>
    <path id="path1" fill="#ffffff" stroke="none" d="M 100 188 L 100 164 C 100 159.600006 103.599998 156 108 156 L 116 156 L 116 162 C 116 165.30899 118.691002 168 122 168 L 134 168 C 137.30899 168 140 165.30899 140 162 L 140 156 L 148 156 C 152.399994 156 156 159.600006 156 164 L 156 188 C 156 192.399994 152.399994 196 148 196 L 108 196 C 103.599998 196 100 192.399994 100 188 M 136 156 L 136 162 C 136 163.104004 135.104004 164 134 164 L 122 164 C 120.895996 164 120 163.104004 120 162 L 120 156 Z M 160 188 L 160 164 C 160 157.382996 154.617004 152 148 152 L 140 152 L 136 152 L 120 152 L 116 152 L 108 152 C 101.383003 152 96 157.382996 96 164 L 96 188 C 96 194.617004 101.383003 200 108 200 L 148 200 C 154.617004 200 160 194.617004 160 188"/>
    <path id="path2" fill="#ffffff" stroke="none" d="M 180 170 C 180 164.5 184.5 160 190 160 C 195.5 160 200 164.5 200 170 L 200 182 C 200 187.5 195.5 192 190 192 C 184.5 192 180 187.5 180 182 Z M 190 152 C 194.822006 152 198.873993 155.459991 199.800003 160.018997 C 197.272003 157.537003 193.813004 156 190 156 C 186.186996 156 182.727997 157.537003 180.199997 160.020004 C 181.126007 155.459991 185.177994 152 190 152 M 190 196 C 197.720001 196 204 189.720001 204 182 L 204 170 L 204 162 C 204 154.279999 197.720001 148 190 148 C 182.279999 148 176 154.279999 176 162 L 176 170 L 176 182 C 176 189.720001 182.279999 196 190 196"/>
    <path id="path3" fill="#ffffff" stroke="none" d="M 76 174 L 56 174 L 56 170 C 56 164.5 60.5 160 66 160 C 71.5 160 76 164.5 76 170 Z M 76 182 C 76 187.5 71.5 192 66 192 C 60.5 192 56 187.5 56 182 L 56 178 L 76 178 Z M 66 152 C 70.821999 152 74.875 155.459991 75.800003 160.020004 C 73.272003 157.537003 69.814003 156 66 156 C 62.186001 156 58.728001 157.537003 56.200001 160.020004 C 57.125 155.459991 61.178001 152 66 152 M 66 148 C 58.279999 148 52 154.279999 52 162 L 52 170 L 52 182 C 52 189.720001 58.279999 196 66 196 C 73.720001 196 80 189.720001 80 182 L 80 170 L 80 162 C 80 154.279999 73.720001 148 66 148"/>
    <path id="path4" fill="#ffffff" stroke="none" d="M 84 96 L 84 100 L 80 100 C 77.793999 100 76 98.205994 76 96 Z M 76 88 L 84 88 L 84 92 L 76 92 Z M 168 92 L 88 92 L 88 88 L 168 88 Z M 180 92 L 172 92 L 172 88 L 180 88 Z M 176 100 L 172 100 L 172 96 L 180 96 C 180 98.205994 178.205994 100 176 100 M 88 96 L 168 96 L 168 100 L 88 100 Z M 80 104 L 84 104 L 88 104 L 168 104 L 172 104 L 176 104 C 180.417999 104 184 100.417999 184 96 L 184 92 L 184 86 C 184 84.895996 183.104004 84 182 84 L 172 84 L 168 84 L 88 84 L 84 84 L 74 84 C 72.895996 84 72 84.895996 72 86 L 72 92 L 72 96 C 72 100.417999 75.582001 104 80 104"/>
    <path id="path5" fill="#ffffff" stroke="none" d="M 86 124.097198 C 87.195 125.050201 88.525002 125.996201 90 126.917206 L 90 112.000198 L 86 112.000198 Z"/>
    <path id="path6" fill="#ffffff" stroke="none" d="M 126 135.948196 C 126.661003 135.960205 127.324997 135.969208 128.001999 135.969208 L 128.076996 135.969208 C 128.727997 135.969208 129.365005 135.961197 130 135.950195 L 130 112.000198 L 126 112.000198 Z"/>
    <path id="path7" fill="#ffffff" stroke="none" d="M 94 129.15329 C 95.249001 129.774292 96.582001 130.372299 98 130.937302 L 98 112.000305 L 94 112.000305 Z"/>
    <path id="path8" fill="#ffffff" stroke="none" d="M 166 126.943405 C 167.475998 126.0224 168.804993 125.074402 170 124.120407 L 170 112.000397 L 166 112.000397 Z"/>
    <path id="path9" fill="#ffffff" stroke="none" d="M 174 120.442902 C 175.574005 118.763901 176.906006 116.877899 178 114.842896 L 178 111.999893 L 174 111.999893 Z"/>
    <path id="path10" fill="#ffffff" stroke="none" d="M 102 132.365204 C 103.272003 132.769196 104.606003 133.147202 106 133.495209 L 106 112.000198 L 102 112.000198 Z"/>
    <path id="path11" fill="#ffffff" stroke="none" d="M 158 130.962891 C 159.419006 130.397903 160.751007 129.800903 162 129.178894 L 162 111.999893 L 158 111.999893 Z"/>
    <path id="path12" fill="#ffffff" stroke="none" d="M 150 133.517609 C 151.393997 133.169601 152.729004 132.79361 154 132.389603 L 154 111.999603 L 150 111.999603 Z"/>
    <path id="path13" fill="#ffffff" stroke="none" d="M 78 114.828598 C 79.094002 116.862595 80.426003 118.746597 82 120.422607 L 82 111.999603 L 78 111.999603 Z"/>
    <path id="path14" fill="#ffffff" stroke="none" d="M 142 135.052704 C 143.382004 134.859711 144.714005 134.639709 146 134.393707 L 146 111.999695 L 142 111.999695 Z"/>
    <path id="path15" fill="#ffffff" stroke="none" d="M 134 135.809601 C 135.371994 135.736603 136.705994 135.638611 138 135.517609 L 138 111.999603 L 134 111.999603 Z"/>
    <path id="path16" fill="#ffffff" stroke="none" d="M 110 134.375 C 111.286003 134.621002 112.619003 134.843002 114 135.036011 L 114 112 L 110 112 Z"/>
    <path id="path17" fill="#ffffff" stroke="none" d="M 118 135.504898 C 119.293999 135.627899 120.626999 135.727905 122 135.802902 L 122 111.999908 L 118 111.999908 Z"/>
    <path id="path18" fill="#ffffff" stroke="none" d="M 220 212 C 214.029007 212 208.574997 209.811996 204.376007 206.203995 L 216.884003 203.371002 L 216.945999 203.356995 L 217.007996 203.341003 C 225.835007 201.042999 232 193.089996 232 184 L 232 151 L 241.824997 178.020004 C 242.356003 179.179993 244 186.636993 244 188 C 244 201.255005 233.255005 212 220 212 M 191.973999 208 C 192.841003 208 193.708008 207.962997 194.572998 207.906006 C 194.391006 207.962006 194.201004 208 194 208 Z M 108 204 L 88 204 L 80 204 L 64.026001 204 C 61.350998 204 58.682999 203.701996 56.074005 203.110001 L 40 199.470001 C 33.123001 197.679993 28 191.417999 28 184 L 28 60 C 28 51.199997 35.199997 44 44 44 L 55.938004 44 L 56.061005 44.695007 L 67.190002 107.761993 C 68.419006 114.725006 71.556 121.03299 76.261002 126.002991 C 84.009995 134.188995 99.276001 143.951996 127.998001 143.970001 L 128.076996 143.970001 C 156.764008 143.970001 172.013 134.201996 179.752991 126.007996 C 184.447998 121.037003 187.578995 114.735992 188.806 107.786011 L 199.938995 44.695007 L 200.061996 44 L 212 44 C 220.800003 44 228 51.199997 228 60 L 228 136 L 228 140 L 228 184 C 228 191.417999 222.876999 197.679993 216 199.470001 L 199.927002 203.110001 C 197.317001 203.701996 194.649002 204 191.973999 204 L 176 204 L 168 204 L 148 204 L 144 204 L 112 204 Z M 62 208 C 61.798996 208 61.608994 207.962006 61.427002 207.906006 C 62.292007 207.962997 63.158997 208 64.026001 208 Z M 12 188 C 12 186.636993 13.643997 179.179993 14.175003 178.020004 L 24 151 L 24 184 C 24 193.089996 30.164993 201.042999 38.992004 203.341003 L 39.054001 203.356995 L 39.115997 203.371002 L 51.623993 206.203995 C 47.425003 209.811996 41.970993 212 36 212 C 22.744995 212 12 201.255005 12 188 M 196 44 L 184.865997 107.089996 C 183.798996 113.139999 181.061996 118.79599 176.845001 123.261002 C 169.503998 131.031998 155.174011 139.970001 128.076996 139.970001 L 128 139.970001 C 100.867996 139.953003 86.516998 131.018997 79.166 123.252991 C 74.938004 118.787003 72.197998 113.123001 71.128998 107.067001 L 60 44 Z M 245.574005 176.623993 L 232 139.294998 L 232 60 C 232 48.972 223.028 40 212 40 L 200.768005 40 L 196 40 L 60 40 L 55.231995 40 L 44 40 C 32.972 40 24 48.972 24 60 L 24 139.294998 L 10.425995 176.623993 C 9.600006 178.778992 8 186.201996 8 188 C 8 203.438995 20.561005 216 36 216 C 43.919006 216 51.070007 212.684998 56.167007 207.380997 C 56.792007 210.024002 59.167007 212 62 212 L 78 212 C 80.606003 212 82.824005 210.326004 83.649994 208 L 84.350006 208 C 85.175995 210.326004 87.393997 212 90 212 L 106 212 C 108.606003 212 110.823997 210.326004 111.650002 208 L 144.350006 208 C 145.177002 210.326004 147.393997 212 150 212 L 166 212 C 168.606003 212 170.822998 210.326004 171.649994 208 L 172.350006 208 C 173.177002 210.326004 175.393997 212 178 212 L 194 212 C 196.833008 212 199.207001 210.024002 199.833008 207.380997 C 204.929993 212.684998 212.080002 216 220 216 C 235.438995 216 248 203.438995 248 188 C 248 186.201996 246.399994 178.778992 245.574005 176.623993"/>
</svg>
