<?xml version="1.0" encoding="UTF-8"?>
<!-- Generated by Pixelmator Pro 3.7.1 -->
<svg width="256" height="256" viewBox="0 0 256 256" xmlns="http://www.w3.org/2000/svg">
    <path id="Path" fill="#ffffff" stroke="none" d="M 108 228 L 104 228 L 72 228 L 68 228 L 68 232 L 68 244 L 68 248 L 72 248 L 104 248 L 108 248 L 108 244 L 108 232 Z M 104 244 L 72 244 L 72 232 L 104 232 Z"/>
    <path id="path1" fill="#ffffff" stroke="none" d="M 152 228 L 148 228 L 108 228 L 104 228 L 104 232 L 104 244 L 104 248 L 108 248 L 148 248 L 152 248 L 152 244 L 152 232 Z M 148 244 L 108 244 L 108 232 L 148 232 Z"/>
    <path id="path2" fill="#ffffff" stroke="none" d="M 188 228 L 184 228 L 152 228 L 148 228 L 148 232 L 148 244 L 148 248 L 152 248 L 184 248 L 188 248 L 188 244 L 188 232 Z M 184 244 L 152 244 L 152 232 L 184 232 Z"/>
    <path id="path3" fill="#ffffff" stroke="none" d="M 128 10 C 123.588997 10 120 13.589005 120 18 C 120 22.410995 123.588997 26 128 26 C 132.410995 26 136 22.410995 136 18 C 136 13.589005 132.410995 10 128 10 M 128 14 C 130.209 14 132 15.791 132 18 C 132 20.209 130.209 22 128 22 C 125.791 22 124 20.209 124 18 C 124 15.791 125.791 14 128 14"/>
    <path id="path4" fill="#ffffff" stroke="none" d="M 67 12 C 63.139999 12 60 15.139999 60 19 C 60 22.860001 63.139999 26 67 26 C 70.860001 26 74 22.860001 74 19 C 74 15.139999 70.860001 12 67 12 M 67 16 C 68.656998 16 70 17.343002 70 19 C 70 20.656998 68.656998 22 67 22 C 65.343002 22 64 20.656998 64 19 C 64 17.343002 65.343002 16 67 16"/>
    <path id="path5" fill="#ffffff" stroke="none" d="M 189 12 C 185.141006 12 182 15.139999 182 19 C 182 22.860001 185.141006 26 189 26 C 192.858994 26 196 22.860001 196 19 C 196 15.139999 192.858994 12 189 12 M 189 16 C 190.656998 16 192 17.343002 192 19 C 192 20.656998 190.656998 22 189 22 C 187.343002 22 186 20.656998 186 19 C 186 17.343002 187.343002 16 189 16"/>
    <path id="path6" fill="#ffffff" stroke="none" d="M 200 24 L 56 24 C 53.791 24 52 25.791 52 28 L 52 116 C 52 118.209 53.791 120 56 120 L 200 120 C 202.209 120 204 118.209 204 116 L 204 28 C 204 25.791 202.209 24 200 24 M 200 116 L 56 116 L 56 28 L 200 28 Z M 200 28"/>
    <path id="path7" fill="#ffffff" stroke="none" d="M 198 30 L 58 30 L 58 114 L 198 114 Z M 194 110 L 62 110 L 62 34 L 194 34 Z"/>
    <path id="path8" fill="#ffffff" stroke="none" d="M 228 80 L 228 88 L 228 100 L 232 100 L 232 88 L 232 80 Z"/>
    <path id="path9" fill="#ffffff" stroke="none" d="M 224 116 L 32 116 C 25.382996 116 20 121.382996 20 128 C 20 134.617004 25.382996 140 32 140 L 224 140 C 230.617004 140 236 134.617004 236 128 C 236 121.382996 230.617004 116 224 116 M 224 120 C 228.417999 120 232 123.582001 232 128 C 232 132.417999 228.417999 136 224 136 L 32 136 C 27.582001 136 24 132.417999 24 128 C 24 123.582001 27.582001 120 32 120 L 224 120"/>
    <path id="path10" fill="#ffffff" stroke="none" d="M 44 136 L 40 136 L 40 120 L 44 120 Z"/>
    <path id="path11" fill="#ffffff" stroke="none" d="M 216 136 L 212 136 L 212 120 L 216 120 Z"/>
    <path id="path12" fill="#ffffff" stroke="none" d="M 188 136 L 184 136 L 72 136 L 68 136 L 68 140 L 68 228 L 68 232 L 72 232 L 184 232 L 188 232 L 188 228 L 188 140 Z M 184 228 L 72 228 L 72 140 L 184 140 Z"/>
    <path id="path13" fill="#ffffff" stroke="none" d="M 45 143.117203 C 34.522999 143.117203 26 151.640198 26 162.117203 C 26 172.5952 34.522999 181.117203 45 181.117203 C 55.477001 181.117203 64 172.5952 64 162.117203 C 64 151.640198 55.477001 143.117203 45 143.117203 M 45 147.117203 C 53.284 147.117203 60 153.833191 60 162.117203 C 60 170.402191 53.284 177.117203 45 177.117203 C 36.716 177.117203 30 170.402191 30 162.117203 C 30 153.833191 36.716 147.117203 45 147.117203"/>
    <path id="path14" fill="#ffffff" stroke="none" d="M 45 169.617203 C 40.858002 169.617203 37.5 166.260193 37.5 162.117203 C 37.5 157.975189 40.858002 154.617203 45 154.617203 C 49.141998 154.617203 52.5 157.975189 52.5 162.117203 C 52.5 166.260193 49.141998 169.617203 45 169.617203 M 45 152.117203 C 39.477001 152.117203 35 156.5952 35 162.117203 C 35 167.640198 39.477001 172.117203 45 172.117203 C 50.522999 172.117203 55 167.640198 55 162.117203 C 55 156.5952 50.522999 152.117203 45 152.117203"/>
    <path id="path15" fill="#ffffff" stroke="none" d="M 47.646999 179.2939 L 42.353001 179.2939 C 39.660999 179.2939 37.471001 181.483902 37.471001 184.17691 L 37.471001 188.116898 L 33.528999 188.116898 C 30.837 188.116898 28.646999 190.307892 28.646999 192.999908 L 28.646999 198.2939 C 28.646999 200.985901 30.837 203.176895 33.528999 203.176895 L 37.471001 203.176895 L 37.471001 207.116898 C 37.471001 209.809906 39.660999 211.999908 42.353001 211.999908 L 47.646999 211.999908 C 50.339001 211.999908 52.528999 209.809906 52.528999 207.116898 L 52.528999 203.176895 L 56.471001 203.176895 C 59.162998 203.176895 61.353001 200.985901 61.353001 198.2939 L 61.353001 192.999908 C 61.353001 190.307892 59.162998 188.116898 56.471001 188.116898 L 52.528999 188.116898 L 52.528999 184.17691 C 52.528999 181.483902 50.339001 179.2939 47.646999 179.2939 M 47.646999 183.2939 C 48.133999 183.2939 48.528999 183.689911 48.528999 184.17691 L 48.528999 192.116898 L 56.471001 192.116898 C 56.958 192.116898 57.353001 192.512909 57.353001 192.999908 L 57.353001 198.2939 C 57.353001 198.780899 56.958 199.176895 56.471001 199.176895 L 48.528999 199.176895 L 48.528999 207.116898 C 48.528999 207.604904 48.133999 207.999908 47.646999 207.999908 L 42.353001 207.999908 C 41.866001 207.999908 41.471001 207.604904 41.471001 207.116898 L 41.471001 199.176895 L 33.528999 199.176895 C 33.042 199.176895 32.646999 198.780899 32.646999 198.2939 L 32.646999 192.999908 C 32.646999 192.512909 33.042 192.116898 33.528999 192.116898 L 41.471001 192.116898 L 41.471001 184.17691 C 41.471001 183.689911 41.866001 183.2939 42.353001 183.2939 L 47.646999 183.2939"/>
    <path id="path16" fill="#ffffff" stroke="none" d="M 200 222 C 195.589005 222 192 225.589005 192 230 C 192 234.410995 195.589005 238 200 238 C 204.410995 238 208 234.410995 208 230 C 208 225.589005 204.410995 222 200 222 M 200 226 C 202.209 226 204 227.791 204 230 C 204 232.209 202.209 234 200 234 C 197.791 234 196 232.209 196 230 C 196 227.791 197.791 226 200 226"/>
    <path id="path17" fill="#ffffff" stroke="none" d="M 133.213898 92 L 135.999893 88.654999 L 135.999893 92 Z M 131.999893 36 L 123.999901 36 C 119.588898 36 115.999901 39.589005 115.999901 44 L 115.999901 64 L 107.999901 64 L 99.457901 64 L 104.927902 70.561996 L 122.799904 92 L 107.999901 92 L 103.999901 92 L 103.999901 96 L 103.999901 100 L 103.999901 104 L 107.999901 104 L 147.999893 104 L 151.999893 104 L 151.999893 100 L 151.999893 96 L 151.999893 92 L 155.999893 92 L 155.999893 88 L 155.999893 84 L 155.999893 80 L 151.999893 80 L 151.999893 76 L 147.999893 76 L 146.541901 76 L 151.072906 70.559998 L 156.537903 64 L 147.999893 64 L 139.999893 64 L 139.999893 44 C 139.999893 39.589005 136.410904 36 131.999893 36 M 147.999893 100 L 107.999901 100 L 107.999901 96 L 147.999893 96 Z M 147.999893 80 L 147.999893 84 L 151.999893 84 L 151.999893 88 L 147.999893 88 L 147.999893 92 L 143.999893 92 L 143.999893 88 L 139.999893 88 L 139.999893 84 L 143.999893 84 L 143.999893 80 L 147.999893 80 M 131.999893 40 C 134.208893 40 135.999893 41.791 135.999893 44 L 135.999893 68 L 147.999893 68 L 128.007904 92 L 107.999901 68 L 119.999901 68 L 119.999901 44 C 119.999901 41.791 121.790901 40 123.999901 40 L 131.999893 40"/>
    <path id="path18" fill="#ffffff" stroke="none" d="M 210 149 C 205.037003 149 201 153.037003 201 158 C 201 162.962997 205.037003 167 210 167 C 214.962997 167 219 162.962997 219 158 C 219 153.037003 214.962997 149 210 149 M 210 153 C 212.761993 153 215 155.238007 215 158 C 215 160.761993 212.761993 163 210 163 C 207.238007 163 205 160.761993 205 158 C 205 155.238007 207.238007 153 210 153"/>
    <path id="path19" fill="#ffffff" stroke="none" d="M 210 170 C 205.037003 170 201 174.037003 201 179 C 201 183.962997 205.037003 188 210 188 C 214.962997 188 219 183.962997 219 179 C 219 174.037003 214.962997 170 210 170 M 210 174 C 212.761993 174 215 176.238007 215 179 C 215 181.761993 212.761993 184 210 184 C 207.238007 184 205 181.761993 205 179 C 205 176.238007 207.238007 174 210 174"/>
    <path id="path20" fill="#ffffff" stroke="none" d="M 220.5 160 C 215.537003 160 211.5 164.037003 211.5 169 C 211.5 173.962997 215.537003 178 220.5 178 C 225.462997 178 229.5 173.962997 229.5 169 C 229.5 164.037003 225.462997 160 220.5 160 M 220.5 164 C 223.261993 164 225.5 166.238007 225.5 169 C 225.5 171.761993 223.261993 174 220.5 174 C 217.738007 174 215.5 171.761993 215.5 169 C 215.5 166.238007 217.738007 164 220.5 164"/>
    <path id="path21" fill="#ffffff" stroke="none" d="M 199.5 160 C 194.537003 160 190.5 164.037003 190.5 169 C 190.5 173.962997 194.537003 178 199.5 178 C 204.462997 178 208.5 173.962997 208.5 169 C 208.5 164.037003 204.462997 160 199.5 160 M 199.5 164 C 202.261993 164 204.5 166.238007 204.5 169 C 204.5 171.761993 202.261993 174 199.5 174 C 196.738007 174 194.5 171.761993 194.5 169 C 194.5 166.238007 196.738007 164 199.5 164"/>
    <path id="path22" fill="#ffffff" stroke="none" d="M 232 124 L 232 128 L 232 140 L 232 224 C 232 235.04599 223.046005 244 212 244 L 44 244 C 32.953995 244 24 235.04599 24 224 L 24 140 L 24 128 L 24 124 C 21.791 124 20 125.791 20 128 L 20 224 C 20 237.255005 30.744995 248 44 248 L 212 248 C 225.255005 248 236 237.255005 236 224 L 236 128 C 236 125.791 234.209 124 232 124"/>
    <path id="path23" fill="#ffffff" stroke="none" d="M 216 8 L 40 8 C 28.972 8 20 16.972 20 28 L 20 118 C 20 120.606003 21.673004 122.824005 24 123.649994 L 24 118 L 24 116 L 24 28 C 24 19.164001 31.164001 12 40 12 L 216 12 C 224.837006 12 232 19.164001 232 28 L 232 116 L 232 118 L 232 123.649994 C 234.326004 122.824005 236 120.606003 236 118 L 236 28 C 236 16.972 227.028 8 216 8"/>
</svg>
