<?xml version="1.0" encoding="UTF-8"?>
<!-- Generated by Pixelmator Pro 3.7.1 -->
<svg width="256" height="256" viewBox="0 0 256 256" xmlns="http://www.w3.org/2000/svg">
    <path id="Path" fill="#ffffff" stroke="none" d="M 12 64 L 12 52 C 12 47.582001 15.582 44 20 44 L 236 44 C 240.417999 44 244 47.582001 244 52 L 244 64 Z M 244 200 C 244 204.417999 240.417999 208 236 208 L 20 208 C 15.582 208 12 204.417999 12 200 L 12 188 L 244 188 Z M 12 68 L 244 68 L 244 184 L 12 184 Z M 236 40 L 20 40 C 13.383 40 8 45.382996 8 52 L 8 64 L 8 68 L 8 184 L 8 188 L 8 200 C 8 206.617004 13.383 212 20 212 L 236 212 C 242.617004 212 248 206.617004 248 200 L 248 188 L 248 184 L 248 68 L 248 64 L 248 52 C 248 45.382996 242.617004 40 236 40"/>
    <path id="path1" fill="#ffffff" stroke="none" d="M 48 52 L 52 52 L 52 48 L 48 48 Z"/>
    <path id="path2" fill="#ffffff" stroke="none" d="M 56 52 L 60 52 L 60 48 L 56 48 Z"/>
    <path id="path3" fill="#ffffff" stroke="none" d="M 64 52 L 68 52 L 68 48 L 64 48 Z"/>
    <path id="path4" fill="#ffffff" stroke="none" d="M 72 52 L 76 52 L 76 48 L 72 48 Z"/>
    <path id="path5" fill="#ffffff" stroke="none" d="M 80 52 L 84 52 L 84 48 L 80 48 Z"/>
    <path id="path6" fill="#ffffff" stroke="none" d="M 88 52 L 92 52 L 92 48 L 88 48 Z"/>
    <path id="path7" fill="#ffffff" stroke="none" d="M 96 52 L 100 52 L 100 48 L 96 48 Z"/>
    <path id="path8" fill="#ffffff" stroke="none" d="M 104 52 L 108 52 L 108 48 L 104 48 Z"/>
    <path id="path9" fill="#ffffff" stroke="none" d="M 112 52 L 116 52 L 116 48 L 112 48 Z"/>
    <path id="path10" fill="#ffffff" stroke="none" d="M 120 52 L 124 52 L 124 48 L 120 48 Z"/>
    <path id="path11" fill="#ffffff" stroke="none" d="M 128 52 L 132 52 L 132 48 L 128 48 Z"/>
    <path id="path12" fill="#ffffff" stroke="none" d="M 136 52 L 140 52 L 140 48 L 136 48 Z"/>
    <path id="path13" fill="#ffffff" stroke="none" d="M 144 52 L 148 52 L 148 48 L 144 48 Z"/>
    <path id="path14" fill="#ffffff" stroke="none" d="M 152 52 L 156 52 L 156 48 L 152 48 Z"/>
    <path id="path15" fill="#ffffff" stroke="none" d="M 160 52 L 164 52 L 164 48 L 160 48 Z"/>
    <path id="path16" fill="#ffffff" stroke="none" d="M 168 52 L 172 52 L 172 48 L 168 48 Z"/>
    <path id="path17" fill="#ffffff" stroke="none" d="M 176 52 L 180 52 L 180 48 L 176 48 Z"/>
    <path id="path18" fill="#ffffff" stroke="none" d="M 184 52 L 188 52 L 188 48 L 184 48 Z"/>
    <path id="path19" fill="#ffffff" stroke="none" d="M 192 52 L 196 52 L 196 48 L 192 48 Z"/>
    <path id="path20" fill="#ffffff" stroke="none" d="M 200 52 L 204 52 L 204 48 L 200 48 Z"/>
    <path id="path21" fill="#ffffff" stroke="none" d="M 208 52 L 212 52 L 212 48 L 208 48 Z"/>
    <path id="path22" fill="#ffffff" stroke="none" d="M 216 52 L 220 52 L 220 48 L 216 48 Z"/>
    <path id="path23" fill="#ffffff" stroke="none" d="M 224 52 L 228 52 L 228 48 L 224 48 Z"/>
    <path id="path24" fill="#ffffff" stroke="none" d="M 232 52 L 236 52 L 236 48 L 232 48 Z"/>
    <path id="path25" fill="#ffffff" stroke="none" d="M 48 60 L 52 60 L 52 56 L 48 56 Z"/>
    <path id="path26" fill="#ffffff" stroke="none" d="M 56 60 L 60 60 L 60 56 L 56 56 Z"/>
    <path id="path27" fill="#ffffff" stroke="none" d="M 64 60 L 68 60 L 68 56 L 64 56 Z"/>
    <path id="path28" fill="#ffffff" stroke="none" d="M 72 60 L 76 60 L 76 56 L 72 56 Z"/>
    <path id="path29" fill="#ffffff" stroke="none" d="M 80 60 L 84 60 L 84 56 L 80 56 Z"/>
    <path id="path30" fill="#ffffff" stroke="none" d="M 88 60 L 92 60 L 92 56 L 88 56 Z"/>
    <path id="path31" fill="#ffffff" stroke="none" d="M 96 60 L 100 60 L 100 56 L 96 56 Z"/>
    <path id="path32" fill="#ffffff" stroke="none" d="M 104 60 L 108 60 L 108 56 L 104 56 Z"/>
    <path id="path33" fill="#ffffff" stroke="none" d="M 112 60 L 116 60 L 116 56 L 112 56 Z"/>
    <path id="path34" fill="#ffffff" stroke="none" d="M 120 60 L 124 60 L 124 56 L 120 56 Z"/>
    <path id="path35" fill="#ffffff" stroke="none" d="M 128 60 L 132 60 L 132 56 L 128 56 Z"/>
    <path id="path36" fill="#ffffff" stroke="none" d="M 136 60 L 140 60 L 140 56 L 136 56 Z"/>
    <path id="path37" fill="#ffffff" stroke="none" d="M 144 60 L 148 60 L 148 56 L 144 56 Z"/>
    <path id="path38" fill="#ffffff" stroke="none" d="M 152 60 L 156 60 L 156 56 L 152 56 Z"/>
    <path id="path39" fill="#ffffff" stroke="none" d="M 160 60 L 164 60 L 164 56 L 160 56 Z"/>
    <path id="path40" fill="#ffffff" stroke="none" d="M 168 60 L 172 60 L 172 56 L 168 56 Z"/>
    <path id="path41" fill="#ffffff" stroke="none" d="M 176 60 L 180 60 L 180 56 L 176 56 Z"/>
    <path id="path42" fill="#ffffff" stroke="none" d="M 184 60 L 188 60 L 188 56 L 184 56 Z"/>
    <path id="path43" fill="#ffffff" stroke="none" d="M 192 60 L 196 60 L 196 56 L 192 56 Z"/>
    <path id="path44" fill="#ffffff" stroke="none" d="M 200 60 L 204 60 L 204 56 L 200 56 Z"/>
    <path id="path45" fill="#ffffff" stroke="none" d="M 208 60 L 212 60 L 212 56 L 208 56 Z"/>
    <path id="path46" fill="#ffffff" stroke="none" d="M 216 60 L 220 60 L 220 56 L 216 56 Z"/>
    <path id="path47" fill="#ffffff" stroke="none" d="M 224 60 L 228 60 L 228 56 L 224 56 Z"/>
    <path id="path48" fill="#ffffff" stroke="none" d="M 232 60 L 236 60 L 236 56 L 232 56 Z"/>
    <path id="path49" fill="#ffffff" stroke="none" d="M 24 192 L 20 192 L 20 196 L 24 196 Z"/>
    <path id="path50" fill="#ffffff" stroke="none" d="M 32 192 L 28 192 L 28 196 L 32 196 Z"/>
    <path id="path51" fill="#ffffff" stroke="none" d="M 40 192 L 36 192 L 36 196 L 40 196 Z"/>
    <path id="path52" fill="#ffffff" stroke="none" d="M 48 192 L 44 192 L 44 196 L 48 196 Z"/>
    <path id="path53" fill="#ffffff" stroke="none" d="M 56 192 L 52 192 L 52 196 L 56 196 Z"/>
    <path id="path54" fill="#ffffff" stroke="none" d="M 64 192 L 60 192 L 60 196 L 64 196 Z"/>
    <path id="path55" fill="#ffffff" stroke="none" d="M 72 192 L 68 192 L 68 196 L 72 196 Z"/>
    <path id="path56" fill="#ffffff" stroke="none" d="M 80 192 L 76 192 L 76 196 L 80 196 Z"/>
    <path id="path57" fill="#ffffff" stroke="none" d="M 88 192 L 84 192 L 84 196 L 88 196 Z"/>
    <path id="path58" fill="#ffffff" stroke="none" d="M 96 192 L 92 192 L 92 196 L 96 196 Z"/>
    <path id="path59" fill="#ffffff" stroke="none" d="M 104 192 L 100 192 L 100 196 L 104 196 Z"/>
    <path id="path60" fill="#ffffff" stroke="none" d="M 112 192 L 108 192 L 108 196 L 112 196 Z"/>
    <path id="path61" fill="#ffffff" stroke="none" d="M 120 192 L 116 192 L 116 196 L 120 196 Z"/>
    <path id="path62" fill="#ffffff" stroke="none" d="M 128 192 L 124 192 L 124 196 L 128 196 Z"/>
    <path id="path63" fill="#ffffff" stroke="none" d="M 136 192 L 132 192 L 132 196 L 136 196 Z"/>
    <path id="path64" fill="#ffffff" stroke="none" d="M 144 192 L 140 192 L 140 196 L 144 196 Z"/>
    <path id="path65" fill="#ffffff" stroke="none" d="M 152 192 L 148 192 L 148 196 L 152 196 Z"/>
    <path id="path66" fill="#ffffff" stroke="none" d="M 160 192 L 156 192 L 156 196 L 160 196 Z"/>
    <path id="path67" fill="#ffffff" stroke="none" d="M 168 192 L 164 192 L 164 196 L 168 196 Z"/>
    <path id="path68" fill="#ffffff" stroke="none" d="M 176 192 L 172 192 L 172 196 L 176 196 Z"/>
    <path id="path69" fill="#ffffff" stroke="none" d="M 184 192 L 180 192 L 180 196 L 184 196 Z"/>
    <path id="path70" fill="#ffffff" stroke="none" d="M 192 192 L 188 192 L 188 196 L 192 196 Z"/>
    <path id="path71" fill="#ffffff" stroke="none" d="M 200 192 L 196 192 L 196 196 L 200 196 Z"/>
    <path id="path72" fill="#ffffff" stroke="none" d="M 208 192 L 204 192 L 204 196 L 208 196 Z"/>
    <path id="path73" fill="#ffffff" stroke="none" d="M 24 200 L 20 200 L 20 204 L 24 204 Z"/>
    <path id="path74" fill="#ffffff" stroke="none" d="M 32 200 L 28 200 L 28 204 L 32 204 Z"/>
    <path id="path75" fill="#ffffff" stroke="none" d="M 40 200 L 36 200 L 36 204 L 40 204 Z"/>
    <path id="path76" fill="#ffffff" stroke="none" d="M 48 200 L 44 200 L 44 204 L 48 204 Z"/>
    <path id="path77" fill="#ffffff" stroke="none" d="M 56 200 L 52 200 L 52 204 L 56 204 Z"/>
    <path id="path78" fill="#ffffff" stroke="none" d="M 64 200 L 60 200 L 60 204 L 64 204 Z"/>
    <path id="path79" fill="#ffffff" stroke="none" d="M 72 200 L 68 200 L 68 204 L 72 204 Z"/>
    <path id="path80" fill="#ffffff" stroke="none" d="M 80 200 L 76 200 L 76 204 L 80 204 Z"/>
    <path id="path81" fill="#ffffff" stroke="none" d="M 88 200 L 84 200 L 84 204 L 88 204 Z"/>
    <path id="path82" fill="#ffffff" stroke="none" d="M 96 200 L 92 200 L 92 204 L 96 204 Z"/>
    <path id="path83" fill="#ffffff" stroke="none" d="M 104 200 L 100 200 L 100 204 L 104 204 Z"/>
    <path id="path84" fill="#ffffff" stroke="none" d="M 112 200 L 108 200 L 108 204 L 112 204 Z"/>
    <path id="path85" fill="#ffffff" stroke="none" d="M 120 200 L 116 200 L 116 204 L 120 204 Z"/>
    <path id="path86" fill="#ffffff" stroke="none" d="M 128 200 L 124 200 L 124 204 L 128 204 Z"/>
    <path id="path87" fill="#ffffff" stroke="none" d="M 136 200 L 132 200 L 132 204 L 136 204 Z"/>
    <path id="path88" fill="#ffffff" stroke="none" d="M 144 200 L 140 200 L 140 204 L 144 204 Z"/>
    <path id="path89" fill="#ffffff" stroke="none" d="M 152 200 L 148 200 L 148 204 L 152 204 Z"/>
    <path id="path90" fill="#ffffff" stroke="none" d="M 160 200 L 156 200 L 156 204 L 160 204 Z"/>
    <path id="path91" fill="#ffffff" stroke="none" d="M 168 200 L 164 200 L 164 204 L 168 204 Z"/>
    <path id="path92" fill="#ffffff" stroke="none" d="M 176 200 L 172 200 L 172 204 L 176 204 Z"/>
    <path id="path93" fill="#ffffff" stroke="none" d="M 184 200 L 180 200 L 180 204 L 184 204 Z"/>
    <path id="path94" fill="#ffffff" stroke="none" d="M 192 200 L 188 200 L 188 204 L 192 204 Z"/>
    <path id="path95" fill="#ffffff" stroke="none" d="M 200 200 L 196 200 L 196 204 L 200 204 Z"/>
    <path id="path96" fill="#ffffff" stroke="none" d="M 208 200 L 204 200 L 204 204 L 208 204 Z"/>
</svg>
