<?xml version="1.0" encoding="UTF-8"?>
<!-- Generated by Pixelmator Pro 3.7.1 -->
<svg width="256" height="256" viewBox="0 0 256 256" xmlns="http://www.w3.org/2000/svg">
    <path id="Path" fill="#ffffff" stroke="none" d="M 244 236 C 244 240.417999 240.417999 244 236 244 L 232 244 L 232 137.153 L 232 134.225998 L 232 120 L 232 116 L 232 92 L 232 88 L 232 12 L 236 12 C 240.417999 12 244 15.582001 244 20 Z M 228 124 L 228 134.225998 L 227.697998 134.320999 C 216.835999 137.764999 177.544006 149 128 149 C 78.455994 149 39.164001 137.764999 28.302002 134.320999 L 28 134.225998 L 28 124 L 28 120 L 40 120 L 44 120 L 60 120 L 64 120 L 192 120 L 196 120 L 212 120 L 216 120 L 228 120 Z M 228 244 L 28 244 L 28 138.419006 C 28.279999 138.505997 28.582001 138.598999 28.889999 138.692001 C 29.009003 138.729004 29.126999 138.765991 29.25 138.803009 C 29.429001 138.856995 29.615005 138.912994 29.802994 138.971008 C 44.753006 143.492004 79.384995 152.335999 123.109001 152.962997 C 123.191002 152.963989 123.272003 152.966003 123.353996 152.968002 C 124.891998 152.988007 126.440002 153 128 153 C 129.559998 153 131.106995 152.988007 132.645996 152.968002 C 132.727997 152.966003 132.80899 152.963989 132.890991 152.962997 C 176.630005 152.335999 211.270996 143.485992 226.212997 138.966003 C 226.391998 138.912003 226.567001 138.858002 226.738007 138.807007 C 226.869995 138.766998 226.998001 138.727997 227.126007 138.686996 C 227.429001 138.596008 227.725006 138.503998 228 138.419006 Z M 24 134.225998 L 24 137.153 L 24 244 L 20 244 C 15.582001 244 12 240.417999 12 236 L 12 20 C 12 15.582001 15.582001 12 20 12 L 24 12 L 24 88 L 24 92 L 24 116 L 24 120 Z M 196 106 L 212 106 L 212 116 L 196 116 Z M 64 106 L 192 106 L 192 116 L 64 116 Z M 44 106 L 60 106 L 60 116 L 44 116 Z M 60 102 L 44 102 L 44 92 L 60 92 Z M 196 92 L 212 92 L 212 102 L 196 102 Z M 192 102 L 64 102 L 64 92 L 192 92 Z M 40 92 L 40 102 L 40 106 L 40 116 L 28 116 L 28 92 Z M 216 116 L 216 106 L 216 102 L 216 92 L 228 92 L 228 116 Z M 28 84 L 28 12 L 228 12 L 228 84 L 228 88 L 216 88 L 212 88 L 196 88 L 192 88 L 64 88 L 60 88 L 44 88 L 40 88 L 28 88 Z M 236 8 L 232 8 L 228 8 L 28 8 L 24 8 L 20 8 C 13.382996 8 8 13.382996 8 20 L 8 236 C 8 242.617004 13.382996 248 20 248 L 236 248 C 242.617004 248 248 242.617004 248 236 L 248 20 C 248 13.382996 242.617004 8 236 8"/>
    <path id="path1" fill="#ffffff" stroke="none" d="M 64 184 C 57.373001 184 52 178.626999 52 172 C 52 165.373001 57.373001 160 64 160 C 70.626999 160 76 165.373001 76 172 C 76 178.626999 70.626999 184 64 184 M 80 172 C 80 163.178009 72.821999 156 64 156 C 55.178001 156 48 163.178009 48 172 C 48 180.821991 55.178001 188 64 188 C 72.821999 188 80 180.821991 80 172"/>
    <path id="path2" fill="#ffffff" stroke="none" d="M 52 204 C 52 197.399994 57.400002 192 64 192 C 70.599998 192 76 197.399994 76 204 L 76 209.5 C 76 215.274994 70.599998 220 64 220 C 57.400002 220 52 215.274994 52 209.5 Z M 64 228 C 58.661999 228 54.111 224.466003 52.564999 219.623001 C 55.473 222.319 59.521 224 64 224 C 68.479004 224 72.527 222.319 75.434998 219.623001 C 73.889 224.466003 69.337997 228 64 228 M 48 202.5 L 48 204 L 48 209.5 L 48 216 C 48 224.822006 55.178001 232 64 232 C 72.821999 232 80 224.822006 80 216 L 80 209.5 L 80 204 L 80 202.5 C 80 194.505005 72.821999 188 64 188 C 55.178001 188 48 194.505005 48 202.5"/>
</svg>
