<?xml version="1.0" encoding="UTF-8"?>
<!-- Generated by Pixelmator Pro 3.7.1 -->
<svg width="256" height="256" viewBox="0 0 256 256" xmlns="http://www.w3.org/2000/svg">
    <path id="Path" fill="#ffffff" stroke="none" d="M 228 130 L 232 130 L 232 126 L 228 126 Z"/>
    <path id="path1" fill="#ffffff" stroke="none" d="M 45.058102 185.883789 C 34.597099 185.883789 26.1161 177.403809 26.1161 166.94281 C 26.1161 156.480804 34.597099 147.999802 45.058102 147.999802 C 55.5191 147.999802 64.000099 156.480804 64.000099 166.94281 C 64.000099 177.403809 55.5191 185.883789 45.058102 185.883789 M 48.4011 193.683807 C 49.016102 193.683807 49.515099 194.1828 49.515099 194.797791 L 49.515099 204.825806 L 59.543098 204.825806 C 60.1581 204.825806 60.657101 205.324799 60.657101 205.940796 L 60.657101 212.625793 C 60.657101 213.240799 60.1581 213.739807 59.543098 213.739807 L 49.515099 213.739807 L 49.515099 223.768799 C 49.515099 224.383804 49.016102 224.882797 48.4011 224.882797 L 41.715099 224.882797 C 41.100101 224.882797 40.601101 224.383804 40.601101 223.768799 L 40.601101 213.739807 L 30.573101 213.739807 C 29.9571 213.739807 29.458099 213.240799 29.458099 212.625793 L 29.458099 205.940796 C 29.458099 205.324799 29.9571 204.825806 30.573101 204.825806 L 40.601101 204.825806 L 40.601101 194.797791 C 40.601101 194.1828 41.100101 193.683807 41.715099 193.683807 Z M 68.000099 166.94281 C 68.000099 154.291809 57.708099 143.999802 45.058102 143.999802 C 32.4081 143.999802 22.1161 154.291809 22.1161 166.94281 C 22.1161 178.580811 30.830101 188.21579 42.0751 189.683807 L 41.715099 189.683807 C 38.8951 189.683807 36.601101 191.977798 36.601101 194.797791 L 36.601101 200.825806 L 30.573101 200.825806 C 27.753099 200.825806 25.458099 203.119797 25.458099 205.940796 L 25.458099 212.625793 C 25.458099 215.445801 27.753099 217.739807 30.573101 217.739807 L 36.601101 217.739807 L 36.601101 223.768799 C 36.601101 226.587799 38.8951 228.882797 41.715099 228.882797 L 48.4011 228.882797 C 51.2211 228.882797 53.515099 226.587799 53.515099 223.768799 L 53.515099 217.739807 L 59.543098 217.739807 C 62.363102 217.739807 64.657104 215.445801 64.657104 212.625793 L 64.657104 205.940796 C 64.657104 203.119797 62.363102 200.825806 59.543098 200.825806 L 53.515099 200.825806 L 53.515099 194.797791 C 53.515099 191.977798 51.2211 189.683807 48.4011 189.683807 L 48.0411 189.683807 C 59.286098 188.21579 68.000099 178.580811 68.000099 166.94281"/>
    <path id="path2" fill="#ffffff" stroke="none" d="M 45.058102 176.413101 C 39.827099 176.413101 35.587101 172.173096 35.587101 166.942108 C 35.587101 161.71109 39.827099 157.4711 45.058102 157.4711 C 50.288101 157.4711 54.529099 161.71109 54.529099 166.942108 C 54.529099 172.173096 50.288101 176.413101 45.058102 176.413101 M 45.058102 153.4711 C 37.6301 153.4711 31.587101 159.514099 31.587101 166.942108 C 31.587101 174.370102 37.6301 180.413101 45.058102 180.413101 C 52.486099 180.413101 58.529099 174.370102 58.529099 166.942108 C 58.529099 159.514099 52.486099 153.4711 45.058102 153.4711"/>
    <path id="path3" fill="#ffffff" stroke="none" d="M 200 230 C 200 231.104004 199.104004 232 198 232 L 194 232 C 192.895996 232 192 231.104004 192 230 L 192 226 C 192 224.895996 192.895996 224 194 224 L 198 224 C 199.104004 224 200 224.895996 200 226 Z M 198 220 L 194 220 C 190.690994 220 188 222.69101 188 226 L 188 230 C 188 233.309006 190.690994 236 194 236 L 198 236 C 201.309006 236 204 233.309006 204 230 L 204 226 C 204 222.69101 201.309006 220 198 220"/>
    <path id="path4" fill="#ffffff" stroke="none" d="M 224 176 C 220.686996 176 218 173.313004 218 170 C 218 166.686996 220.686996 164 224 164 C 227.313004 164 230 166.686996 230 170 C 230 173.313004 227.313004 176 224 176 M 212 188 C 208.686996 188 206 185.313004 206 182 C 206 178.686996 208.686996 176 212 176 C 215.313004 176 218 178.686996 218 182 C 218 185.313004 215.313004 188 212 188 M 200 176 C 196.686996 176 194 173.313004 194 170 C 194 166.686996 196.686996 164 200 164 C 203.313004 164 206 166.686996 206 170 C 206 173.313004 203.313004 176 200 176 M 214.270004 172.269989 C 213.539001 172.100006 212.781006 172 212 172 C 211.218994 172 210.460999 172.100006 209.729996 172.269989 C 209.899994 171.539001 210 170.781006 210 170 C 210 169.218994 209.899994 168.460999 209.729996 167.729996 C 210.460999 167.899994 211.218994 168 212 168 C 212.781006 168 213.539001 167.899994 214.270004 167.729996 C 214.100006 168.460999 214 169.218994 214 170 C 214 170.781006 214.100006 171.539001 214.270004 172.269989 M 212 152 C 215.313004 152 218 154.686996 218 158 C 218 161.313004 215.313004 164 212 164 C 208.686996 164 206 161.313004 206 158 C 206 154.686996 208.686996 152 212 152 M 224 160 C 223.218994 160 222.460999 160.100006 221.729996 160.270004 C 221.899994 159.539001 222 158.781006 222 158 C 222 152.485992 217.514008 148 212 148 C 206.485992 148 202 152.485992 202 158 C 202 158.781006 202.100006 159.539001 202.270004 160.270004 C 201.539001 160.100006 200.781006 160 200 160 C 194.485992 160 190 164.485992 190 170 C 190 175.514008 194.485992 180 200 180 C 200.781006 180 201.539001 179.899994 202.270004 179.730011 C 202.100006 180.460999 202 181.218994 202 182 C 202 187.514008 206.485992 192 212 192 C 217.514008 192 222 187.514008 222 182 C 222 181.218994 221.899994 180.460999 221.729996 179.730011 C 222.460999 179.899994 223.218994 180 224 180 C 229.514008 180 234 175.514008 234 170 C 234 164.485992 229.514008 160 224 160"/>
    <path id="path5" fill="#ffffff" stroke="none" d="M 240 80 L 236 80 L 236 24 C 236 19.589005 232.410995 16 228 16 L 28 16 C 23.589005 16 20 19.589005 20 24 L 20 118.343002 L 18.343002 120 L 16 120 L 16 24 C 16 17.373001 21.373001 12 28 12 L 228 12 C 234.626999 12 240 17.373001 240 24 Z M 240 120 L 237.656998 120 L 236 118.343002 L 236 104 L 240 104 Z M 237.856995 133.070999 L 232 136 L 224 136 L 220 136 L 220 120 L 224 120 L 232 120 L 236 124 L 238.865005 126.865005 C 239.591995 127.591995 240 128.576996 240 129.604996 C 240 131.072998 239.171005 132.415009 237.856995 133.070999 M 236 235 C 236 239.970993 231.970993 244 227 244 L 29 244 C 24.029007 244 20 239.970993 20 235 L 20 138.472 L 22.210999 139.578003 L 23.056 140 L 24 140 L 32 140 L 36 140 L 76 140 L 76 142 L 76 222 L 76 224 L 76 228 L 76 236 L 76 240 L 80 240 L 104 240 L 108 240 L 108 236 L 108 228 L 112 228 L 112 236 L 112 240 L 116 240 L 140 240 L 144 240 L 144 236 L 144 228 L 148 228 L 148 236 L 148 240 L 152 240 L 176 240 L 180 240 L 180 236 L 180 228 L 180 224 L 180 222 L 180 142 L 180 140 L 220 140 L 224 140 L 232 140 L 232.944 140 L 233.789001 139.578003 L 236 138.472 Z M 60 116 L 60 114 L 60 38 L 60 36 L 62.061005 36 L 193.938995 36 L 196 36 L 196 38 L 196 114 L 196 116 L 193.938995 116 L 62.061005 116 Z M 174.222992 136 L 81.778 136 L 80 136 L 76 136 L 40 136 L 40 120 L 56 120 L 60 120 L 62.061005 120 L 193.938995 120 L 196 120 L 200 120 L 216 120 L 216 136 L 180 136 L 176 136 Z M 104 228 L 104 236 L 80 236 L 80 228 L 81.778 228 Z M 140 236 L 116 236 L 116 228 L 140 228 Z M 176 228 L 176 236 L 152 236 L 152 228 L 174.222992 228 Z M 174.222992 224 L 152 224 L 148 224 L 144 224 L 140 224 L 116 224 L 112 224 L 108 224 L 104 224 L 81.778 224 L 80 224 L 80 222 L 80 142 L 80 140 L 81.778 140 L 174.222992 140 L 176 140 L 176 142 L 176 222 L 176 224 Z M 124 24 C 124 21.791 125.791 20 128 20 C 130.209 20 132 21.791 132 24 C 132 26.209 130.209 28 128 28 C 125.791 28 124 26.209 124 24 M 128 32 C 132.411011 32 136 28.410995 136 24 C 136 22.541992 135.60199 21.178009 134.917999 20 L 228 20 C 230.205994 20 232 21.794006 232 24 L 232 116 L 224 116 L 220 116 L 200 116 L 200 114 L 200 38 L 200 36 L 200 32 L 196 32 L 193.938995 32 L 128 32 L 62.061005 32 L 60 32 L 56 32 L 56 36 L 56 38 L 56 114 L 56 116 L 36 116 L 32 116 L 24 116 L 24 24 C 24 21.794006 25.794006 20 28 20 L 121.083 20 C 120.398003 21.178009 120 22.541992 120 24 C 120 28.410995 123.588997 32 128 32 M 18.141998 133.070999 C 16.828995 132.415009 16 131.072998 16 129.604996 C 16 128.576996 16.408005 127.591995 17.134995 126.865005 L 20 124 L 24 120 L 32 120 L 36 120 L 36 136 L 32 136 L 24 136 Z M 228 8 L 28 8 C 19.177994 8 12 15.178009 12 24 L 12 120 L 12 124 L 14.343002 124 L 14.307007 124.037003 C 12.819 125.524002 12 127.501007 12 129.604996 C 12 132.468994 13.529007 135.042999 16 136.440002 L 16 235 C 16 242.167999 21.832001 248 29 248 L 227 248 C 234.167999 248 240 242.167999 240 235 L 240 136.440002 C 242.470993 135.042999 244 132.468994 244 129.604996 C 244 127.501007 243.181 125.524002 241.692993 124.037003 L 241.656998 124 L 244 124 L 244 120 L 244 24 C 244 15.178009 236.822006 8 228 8"/>
    <path id="path6" fill="#ffffff" stroke="none" d="M 30 64 C 28.896 64 28 64.895996 28 66 C 28 67.104004 28.896 68 30 68 C 31.104 68 32 67.104004 32 66 C 32 64.895996 31.104 64 30 64"/>
    <path id="path7" fill="#ffffff" stroke="none" d="M 38 64 C 36.896 64 36 64.895996 36 66 C 36 67.104004 36.896 68 38 68 C 39.104 68 40 67.104004 40 66 C 40 64.895996 39.104 64 38 64"/>
    <path id="path8" fill="#ffffff" stroke="none" d="M 46 64 C 44.896 64 44 64.895996 44 66 C 44 67.104004 44.896 68 46 68 C 47.104 68 48 67.104004 48 66 C 48 64.895996 47.104 64 46 64"/>
    <path id="path9" fill="#ffffff" stroke="none" d="M 38 72 C 36.896 72 36 72.895996 36 74 C 36 75.104004 36.896 76 38 76 C 39.104 76 40 75.104004 40 74 C 40 72.895996 39.104 72 38 72"/>
    <path id="path10" fill="#ffffff" stroke="none" d="M 38 56 C 36.896 56 36 56.895996 36 58 C 36 59.104004 36.896 60 38 60 C 39.104 60 40 59.104004 40 58 C 40 56.895996 39.104 56 38 56"/>
    <path id="path11" fill="#ffffff" stroke="none" d="M 210 68 C 211.104004 68 212 67.104004 212 66 C 212 64.895996 211.104004 64 210 64 C 208.895996 64 208 64.895996 208 66 C 208 67.104004 208.895996 68 210 68"/>
    <path id="path12" fill="#ffffff" stroke="none" d="M 218 68 C 219.104004 68 220 67.104004 220 66 C 220 64.895996 219.104004 64 218 64 C 216.895996 64 216 64.895996 216 66 C 216 67.104004 216.895996 68 218 68"/>
    <path id="path13" fill="#ffffff" stroke="none" d="M 226 68 C 227.104004 68 228 67.104004 228 66 C 228 64.895996 227.104004 64 226 64 C 224.895996 64 224 64.895996 224 66 C 224 67.104004 224.895996 68 226 68"/>
    <path id="path14" fill="#ffffff" stroke="none" d="M 218 76 C 219.104004 76 220 75.104004 220 74 C 220 72.895996 219.104004 72 218 72 C 216.895996 72 216 72.895996 216 74 C 216 75.104004 216.895996 76 218 76"/>
    <path id="path15" fill="#ffffff" stroke="none" d="M 218 60 C 219.104004 60 220 59.104004 220 58 C 220 56.895996 219.104004 56 218 56 C 216.895996 56 216 56.895996 216 58 C 216 59.104004 216.895996 60 218 60"/>
    <path id="path16" fill="#ffffff" stroke="none" d="M 108 104 L 100 104 L 100 96 L 108 96 Z M 100 84 L 108 84 L 108 92 L 100 92 Z M 100 72 L 108 72 L 108 80 L 100 80 Z M 100 60 L 108 60 L 108 68 L 100 68 Z M 100 48 L 108 48 L 108 56 L 100 56 Z M 112 48 L 120 48 L 120 56 L 112 56 Z M 124 48 L 132 48 L 132 56 L 124 56 Z M 136 48 L 144 48 L 144 56 L 136 56 Z M 148 48 L 156 48 L 156 56 L 148 56 Z M 156 68 L 148 68 L 148 60 L 156 60 Z M 156 80 L 148 80 L 148 72 L 156 72 Z M 156 92 L 148 92 L 148 84 L 156 84 Z M 156 104 L 148 104 L 148 96 L 156 96 Z M 144 104 L 136 104 L 136 96 L 144 96 Z M 132 104 L 124 104 L 124 96 L 132 96 Z M 132 68 L 124 68 L 124 60 L 132 60 Z M 124 72 L 132 72 L 132 80 L 124 80 Z M 124 84 L 132 84 L 132 92 L 124 92 Z M 144 92 L 136 92 L 136 84 L 144 84 Z M 144 80 L 136 80 L 136 72 L 144 72 Z M 144 68 L 136 68 L 136 60 L 144 60 Z M 112 60 L 120 60 L 120 68 L 112 68 Z M 112 72 L 120 72 L 120 80 L 112 80 Z M 112 84 L 120 84 L 120 92 L 112 92 Z M 120 104 L 112 104 L 112 96 L 120 96 Z M 108 108 L 112 108 L 120 108 L 124 108 L 132 108 L 136 108 L 144 108 L 148 108 L 156 108 L 160 108 L 160 104 L 160 96 L 160 92 L 160 84 L 160 80 L 160 72 L 160 68 L 160 60 L 160 56 L 160 48 L 160 44 L 156 44 L 148 44 L 144 44 L 136 44 L 132 44 L 124 44 L 120 44 L 112 44 L 108 44 L 100 44 L 96 44 L 96 48 L 96 56 L 96 60 L 96 68 L 96 72 L 96 80 L 96 84 L 96 92 L 96 96 L 96 104 L 96 108 L 100 108 Z"/>
</svg>
