<?xml version="1.0" encoding="UTF-8"?>
<!-- Generated by Pixelmator Pro 3.7.1 -->
<svg width="256" height="256" viewBox="0 0 256 256" xmlns="http://www.w3.org/2000/svg">
    <path id="Path" fill="#ffffff" stroke="none" d="M 186.332993 96 L 69.666 96 C 63.233002 96 58.000008 101.382996 58.000008 108 L 58.000008 112 C 58.000008 118.617004 63.233002 124 69.666 124 L 115.457001 127.623001 C 118.619003 127.873001 121.831001 128 125.000999 128 L 137.910004 128 C 141.656006 128 145.446991 127.822998 149.177994 127.473999 L 186.332993 124 C 192.766998 124 198 118.617004 198 112 L 198 108 C 198 101.382996 192.766998 96 186.332993 96 M 186.332993 100 C 190.561005 100 194 103.589005 194 108 L 194 112 C 194 116.410995 190.561005 120 186.332993 120 L 186.145996 120 L 185.960999 120.018005 L 148.804993 123.492004 C 145.197998 123.828995 141.531998 124 137.910004 124 L 125.000999 124 C 121.934998 124 118.830002 123.876999 115.772003 123.634995 L 69.982002 120.013 L 69.824997 120 L 69.666 120 C 65.439003 120 62 116.410995 62 112 L 62 108 C 62 103.589005 65.439003 100 69.666 100 L 186.332993 100"/>
    <path id="path1" fill="#ffffff" stroke="none" d="M 224 232 C 224 238.626999 218.626999 244 212 244 L 44 244 C 37.373001 244 32 238.626999 32 232 L 32 24 C 32 17.373001 37.373001 12 44 12 L 58 12 L 58 16 L 48 16 C 41.373001 16 36 21.373001 36 28 L 36 228 C 36 234.626999 41.373001 240 48 240 L 58 240 L 62 240 L 194 240 L 198 240 L 208 240 C 214.626999 240 220 234.626999 220 228 L 220 28 C 220 21.373001 214.626999 16 208 16 L 198 16 L 198 12 L 212 12 C 218.626999 12 224 17.373001 224 24 Z M 56 204 L 58 204 L 58 236 L 48 236 C 43.589005 236 40 232.410995 40 228 L 40 28 C 40 23.589005 43.589005 20 48 20 L 58 20 L 58 36 L 56 36 C 49.373001 36 44 41.373001 44 48 L 44 192 C 44 198.626999 49.373001 204 56 204 M 194 236 L 62 236 L 62 204 L 194 204 Z M 200 40 C 204.410995 40 208 43.589005 208 48 L 208 192 C 208 196.410995 204.410995 200 200 200 L 56 200 C 51.589005 200 48 196.410995 48 192 L 48 48 C 48 43.589005 51.589005 40 56 40 Z M 62 20 L 194 20 L 194 36 L 62 36 Z M 62 12 L 66 12 L 66 16 L 62 16 Z M 70 12 L 74 12 L 74 16 L 70 16 Z M 78 12 L 82 12 L 82 16 L 78 16 Z M 86 12 L 90 12 L 90 16 L 86 16 Z M 94 12 L 98 12 L 98 16 L 94 16 Z M 102 12 L 106 12 L 106 16 L 102 16 Z M 110 12 L 114 12 L 114 16 L 110 16 Z M 118 12 L 122 12 L 122 16 L 118 16 Z M 126 12 L 130 12 L 130 16 L 126 16 Z M 134 12 L 138 12 L 138 16 L 134 16 Z M 142 12 L 146 12 L 146 16 L 142 16 Z M 150 12 L 154 12 L 154 16 L 150 16 Z M 158 12 L 162 12 L 162 16 L 158 16 Z M 166 12 L 170 12 L 170 16 L 166 16 Z M 174 12 L 178 12 L 178 16 L 174 16 Z M 182 12 L 186 12 L 186 16 L 182 16 Z M 190 12 L 194 12 L 194 16 L 190 16 Z M 198 20 L 208 20 C 212.410995 20 216 23.589005 216 28 L 216 228 C 216 232.410995 212.410995 236 208 236 L 198 236 L 198 204 L 200 204 C 206.626999 204 212 198.626999 212 192 L 212 48 C 212 41.373001 206.626999 36 200 36 L 198 36 Z M 212 8 L 198 8 L 194 8 L 190 8 L 186 8 L 182 8 L 178 8 L 174 8 L 170 8 L 166 8 L 162 8 L 158 8 L 154 8 L 150 8 L 146 8 L 142 8 L 138 8 L 134 8 L 130 8 L 126 8 L 122 8 L 118 8 L 114 8 L 110 8 L 106 8 L 102 8 L 98 8 L 94 8 L 90 8 L 86 8 L 82 8 L 78 8 L 74 8 L 70 8 L 66 8 L 62 8 L 58 8 L 44 8 C 35.177994 8 28 15.177994 28 24 L 28 232 C 28 240.822006 35.177994 248 44 248 L 212 248 C 220.822006 248 228 240.822006 228 232 L 228 24 C 228 15.177994 220.822006 8 212 8"/>
    <path id="path2" fill="#ffffff" stroke="none" d="M 84 184 C 84 186.199997 82.199997 188 80 188 L 68 188 C 65.800003 188 64 186.199997 64 184 L 64 176 L 84 176 Z M 64 168 C 64 165.800003 65.800003 164 68 164 L 80 164 C 82.199997 164 84 165.800003 84 168 L 84 172 L 64 172 Z M 80 160 L 68 160 C 63.589001 160 60 163.589005 60 168 L 60 184 C 60 188.411011 63.589001 192 68 192 L 80 192 C 84.411003 192 88 188.411011 88 184 L 88 168 C 88 163.589005 84.411003 160 80 160"/>
    <path id="path3" fill="#ffffff" stroke="none" d="M 192 184 C 192 186.199997 190.199997 188 188 188 L 176 188 C 173.800003 188 172 186.199997 172 184 L 172 168 C 172 165.800003 173.800003 164 176 164 L 188 164 C 190.199997 164 192 165.800003 192 168 Z M 188 160 L 176 160 C 171.589005 160 168 163.589005 168 168 L 168 184 C 168 188.411011 171.589005 192 176 192 L 188 192 C 192.410995 192 196 188.411011 196 184 L 196 168 C 196 163.589005 192.410995 160 188 160"/>
    <path id="path4" fill="#ffffff" stroke="none" d="M 156 184 C 156 186.199997 154.199997 188 152 188 L 104 188 C 101.800003 188 100 186.199997 100 184 L 100 168 C 100 165.800003 101.800003 164 104 164 L 152 164 C 154.199997 164 156 165.800003 156 168 Z M 152 160 L 104 160 C 99.589005 160 96 163.589005 96 168 L 96 184 C 96 188.411011 99.589005 192 104 192 L 152 192 C 156.410995 192 160 188.411011 160 184 L 160 168 C 160 163.589005 156.410995 160 152 160"/>
    <path id="path5" fill="#ffffff" stroke="none" d="M 192 48 C 196.410995 48 200 51.589005 200 56 C 200 60.410995 196.410995 64 192 64 C 187.589005 64 184 60.410995 184 56 C 184 51.589005 187.589005 48 192 48 M 192 68 C 198.626999 68 204 62.626999 204 56 C 204 49.373001 198.626999 44 192 44 C 185.373001 44 180 49.373001 180 56 C 180 62.626999 185.373001 68 192 68"/>
    <path id="path6" fill="#ffffff" stroke="none" d="M 178 232 L 186 232 C 187.100006 232 188 231.100006 188 230 C 188 228.899994 187.100006 228 186 228 L 178 228 C 176.899994 228 176 228.899994 176 230 C 176 231.100006 176.899994 232 178 232"/>
    <path id="path7" fill="#ffffff" stroke="none" d="M 80 116 L 76 116 L 76 104 L 80 104 Z"/>
    <path id="path8" fill="#ffffff" stroke="none" d="M 184 116 L 180 116 L 180 104 L 184 104 Z"/>
    <path id="path9" fill="#ffffff" stroke="none" d="M 120 112 L 136 112 L 128 116 Z"/>
</svg>
