<?xml version="1.0" encoding="UTF-8"?>
<!-- Generated by Pixelmator Pro 3.7.1 -->
<svg width="256" height="256" viewBox="0 0 256 256" xmlns="http://www.w3.org/2000/svg">
    <path id="Path" fill="#ffffff" stroke="none" d="M 216 238 C 216 239.104004 215.104004 240 214 240 L 196 240 L 60 240 L 42 240 C 40.895996 240 40 239.104004 40 238 L 40 62 C 40 60.895996 40.895996 60 42 60 L 52 60 C 52 57.791 53.791 56 56 56 L 58.125 56 L 74.154007 56 L 78.628998 56 L 177.371002 56 L 181.846008 56 L 197.875 56 L 200 56 C 202.209 56 204 57.791 204 60 L 214 60 C 215.104004 60 216 60.895996 216 62 Z M 174.859009 52 L 81.141006 52 C 83.259003 49.057007 85.878998 46.304001 89.008003 43.783997 C 99.241997 35.539993 113.088997 31 128 31 C 142.911011 31 156.759003 35.539993 166.992004 43.783997 C 170.121002 46.304001 172.740997 49.057007 174.859009 52 M 128 12 C 159.960999 12 187.035004 28.783005 196.438004 52 L 179.682007 52 C 177.139999 47.897003 173.725006 44.070999 169.501999 40.669006 C 158.559998 31.854004 143.820007 27 128 27 C 112.18 27 97.440002 31.854004 86.498001 40.669006 C 82.274994 44.070999 78.860992 47.897003 76.319 52 L 59.561996 52 C 68.964996 28.783005 96.039001 12 128 12 M 214 56 L 206.927002 56 C 205.660995 53.817993 203.391006 52.300995 200.755997 52.050995 C 191.147995 25.973999 161.725006 8 128 8 C 94.275002 8 64.850998 25.973999 55.244003 52.050995 C 52.608994 52.300995 50.339005 53.817993 49.074005 56 L 42 56 C 38.690994 56 36 58.690994 36 62 L 36 238 C 36 241.309006 38.690994 244 42 244 L 62 244 L 194 244 L 214 244 C 217.309006 244 220 241.309006 220 238 L 220 62 C 220 58.690994 217.309006 56 214 56"/>
    <path id="path1" fill="#ffffff" stroke="none" d="M 128 100 C 154.509995 100 176 121.490005 176 148 C 176 174.51001 154.509995 196 128 196 C 101.489998 196 80 174.51001 80 148 C 80 121.490005 101.489998 100 128 100 M 128 200 C 156.673004 200 180 176.673004 180 148 C 180 119.326996 156.673004 96 128 96 C 99.326996 96 76 119.326996 76 148 C 76 176.673004 99.326996 200 128 200"/>
    <path id="path2" fill="#ffffff" stroke="none" d="M 58 96 C 61.308998 96 64 98.690994 64 102 C 64 105.309006 61.308998 108 58 108 C 54.691002 108 52 105.309006 52 102 C 52 98.690994 54.691002 96 58 96 M 58 112 C 63.522999 112 68 107.522995 68 102 C 68 96.477005 63.522999 92 58 92 C 52.477001 92 48 96.477005 48 102 C 48 107.522995 52.477001 112 58 112"/>
    <path id="path3" fill="#ffffff" stroke="none" d="M 58 220 C 54.691002 220 52 217.30899 52 214 C 52 210.69101 54.691002 208 58 208 C 61.308998 208 64 210.69101 64 214 C 64 217.30899 61.308998 220 58 220 M 58 204 C 52.477001 204 48 208.477997 48 214 C 48 219.522003 52.477001 224 58 224 C 63.522999 224 68 219.522003 68 214 C 68 208.477997 63.522999 204 58 204"/>
    <path id="path4" fill="#ffffff" stroke="none" d="M 198 220 C 194.690994 220 192 217.30899 192 214 C 192 210.69101 194.690994 208 198 208 C 201.309006 208 204 210.69101 204 214 C 204 217.30899 201.309006 220 198 220 M 198 204 C 192.477997 204 188 208.477997 188 214 C 188 219.522003 192.477997 224 198 224 C 203.522003 224 208 219.522003 208 214 C 208 208.477997 203.522003 204 198 204"/>
    <path id="path5" fill="#ffffff" stroke="none" d="M 128 228 C 116.435997 228 111.142998 223.821991 109.095001 221.505005 C 114.987 222.164001 121.344002 222.636993 128 222.774994 C 134.656006 222.636993 141.014008 222.164001 146.904999 221.505005 C 144.856995 223.821991 139.563995 228 128 228 M 198 200 C 198.681 200 199.345001 200.065002 200 200.160004 L 200 200 L 200 196.117996 L 200 60 L 196 60 L 196 196.123001 C 188.001007 197.014999 181.578995 203.165009 180.265991 211.033997 C 172.759003 213.169998 152.404999 218.272003 128 218.789001 C 103.595001 218.272003 83.240997 213.169998 75.734001 211.033997 C 74.421005 203.165009 68 197.014999 60 196.123001 L 60 119.882004 C 68.986 118.882996 76 111.248993 76 102 C 76 92.751007 68.986 85.117004 60 84.117996 L 60 60 L 56 60 L 56 84.117996 L 56 88 L 56 88.160004 C 56.654999 88.065002 57.319 88 58 88 C 65.720001 88 72 94.279999 72 102 C 72 109.720001 65.720001 116 58 116 C 57.319 116 56.654999 115.934998 56 115.839996 L 56 116 L 56 119.882004 L 56 196.117996 L 56 200 L 56 200.160004 C 56.654999 200.065002 57.319 200 58 200 C 64.626999 200 70.181 204.632996 71.624001 210.826996 L 71.994995 214.097 L 75.936996 215.23999 C 81.387001 216.735992 91.371002 219.165009 103.961998 220.869003 L 104.421997 221.789001 C 104.945 222.834 110.045998 232 128 232 C 145.953995 232 151.054993 222.834 151.578003 221.789001 L 152.037994 220.869003 C 164.630005 219.165009 174.613007 216.735992 180.063004 215.23999 L 184.005005 214.097 L 184.376999 210.826996 C 185.819 204.632996 191.373001 200 198 200"/>
    <path id="path6" fill="#ffffff" stroke="none" d="M 198 212 C 196.895996 212 196 212.895996 196 214 C 196 215.104004 196.895996 216 198 216 C 199.104004 216 200 215.104004 200 214 C 200 212.895996 199.104004 212 198 212"/>
</svg>
