<?xml version="1.0" encoding="UTF-8"?>
<!-- Generated by Pixelmator Pro 3.7.1 -->
<svg width="256" height="256" viewBox="0 0 256 256" xmlns="http://www.w3.org/2000/svg">
    <path id="Path" fill="#ffffff" stroke="none" d="M 72 20 L 184 20 L 184 108 L 72 108 Z M 184 112 L 188 112 L 188 108 L 188 20 L 188 16 L 184 16 L 72 16 L 68 16 L 68 20 L 68 108 L 68 112 L 72 112 Z"/>
    <path id="path1" fill="#ffffff" stroke="none" d="M 76 148 L 180 148 L 180 228 L 76 228 Z M 72 232 L 184 232 L 184 144 L 72 144 Z"/>
    <path id="path2" fill="#ffffff" stroke="none" d="M 44 20 L 40 20 L 40 24 L 44 24 Z"/>
    <path id="path3" fill="#ffffff" stroke="none" d="M 216 20 L 212 20 L 212 24 L 216 24 Z"/>
    <path id="path4" fill="#ffffff" stroke="none" d="M 44 108 L 40 108 L 40 112 L 44 112 Z"/>
    <path id="path5" fill="#ffffff" stroke="none" d="M 216 108 L 212 108 L 212 112 L 216 112 Z"/>
    <path id="path6" fill="#ffffff" stroke="none" d="M 56 228 C 53.791 228 52 226.209 52 224 C 52 221.791 53.791 220 56 220 C 58.209 220 60 221.791 60 224 C 60 226.209 58.209 228 56 228 M 56 216 C 51.589001 216 48 219.589005 48 224 C 48 228.410995 51.589001 232 56 232 C 60.410999 232 64 228.410995 64 224 C 64 219.589005 60.410999 216 56 216"/>
    <path id="path7" fill="#ffffff" stroke="none" d="M 47.860401 182.697296 C 47.860401 183.417297 47.277401 184.000305 46.558399 184.000305 L 37.442398 184.000305 C 36.722401 184.000305 36.1394 183.417297 36.1394 182.697296 L 36.1394 175.860291 L 29.302399 175.860291 C 28.583399 175.860291 28.000399 175.277298 28.000399 174.558304 L 28.000399 165.441299 C 28.000399 164.72229 28.583399 164.139297 29.302399 164.139297 L 36.1394 164.139297 L 36.1394 157.302307 C 36.1394 156.583298 36.722401 156.000305 37.442398 156.000305 L 46.558399 156.000305 C 47.277401 156.000305 47.860401 156.583298 47.860401 157.302307 L 47.860401 164.139297 L 54.697399 164.139297 C 55.4174 164.139297 56.000401 164.72229 56.000401 165.441299 L 56.000401 174.558304 C 56.000401 175.277298 55.4174 175.860291 54.697399 175.860291 L 47.860401 175.860291 Z M 51.860401 182.697296 L 51.860401 179.860291 L 54.697399 179.860291 C 57.621399 179.860291 60.000401 177.481293 60.000401 174.558304 L 60.000401 165.441299 C 60.000401 162.518311 57.621399 160.139297 54.697399 160.139297 L 51.860401 160.139297 L 51.860401 157.302307 C 51.860401 154.379303 49.482399 152.000305 46.558399 152.000305 L 37.442398 152.000305 C 34.518398 152.000305 32.1394 154.379303 32.1394 157.302307 L 32.1394 160.139297 L 29.302399 160.139297 C 26.378399 160.139297 24.000399 162.518311 24.000399 165.441299 L 24.000399 174.558304 C 24.000399 177.481293 26.378399 179.860291 29.302399 179.860291 L 32.1394 179.860291 L 32.1394 182.697296 C 32.1394 185.621307 34.518398 188.000305 37.442398 188.000305 L 46.558399 188.000305 C 49.482399 188.000305 51.860401 185.621307 51.860401 182.697296"/>
    <path id="path8" fill="#ffffff" stroke="none" d="M 196 216 C 196 213.791 197.791 212 200 212 C 202.209 212 204 213.791 204 216 C 204 218.209 202.209 220 200 220 C 197.791 220 196 218.209 196 216 M 204 228 C 204 230.209 202.209 232 200 232 C 197.791 232 196 230.209 196 228 C 196 225.791 197.791 224 200 224 C 202.209 224 204 225.791 204 228 M 208 216 C 208 211.589005 204.410995 208 200 208 C 195.589005 208 192 211.589005 192 216 C 192 218.390991 193.059006 220.533005 194.727005 222 C 193.059006 223.466995 192 225.609009 192 228 C 192 232.410995 195.589005 236 200 236 C 204.410995 236 208 232.410995 208 228 C 208 225.609009 206.940994 223.466995 205.272995 222 C 206.940994 220.533005 208 218.390991 208 216"/>
    <path id="path9" fill="#ffffff" stroke="none" d="M 222 176 C 218.690994 176 216 173.30899 216 170 C 216 166.69101 218.690994 164 222 164 C 225.309006 164 228 166.69101 228 170 C 228 173.30899 225.309006 176 222 176 M 212 186 C 208.690994 186 206 183.30899 206 180 C 206 176.69101 208.690994 174 212 174 C 215.309006 174 218 176.69101 218 180 C 218 183.30899 215.309006 186 212 186 M 202 176 C 198.690994 176 196 173.30899 196 170 C 196 166.69101 198.690994 164 202 164 C 205.309006 164 208 166.69101 208 170 C 208 173.30899 205.309006 176 202 176 M 212 154 C 215.309006 154 218 156.69101 218 160 C 218 163.30899 215.309006 166 212 166 C 208.690994 166 206 163.30899 206 160 C 206 156.69101 208.690994 154 212 154 M 222 160 C 222 154.485992 217.514008 150 212 150 C 206.485992 150 202 154.485992 202 160 C 196.485992 160 192 164.485992 192 170 C 192 175.514008 196.485992 180 202 180 C 202 185.514008 206.485992 190 212 190 C 217.514008 190 222 185.514008 222 180 C 227.514008 180 232 175.514008 232 170 C 232 164.485992 227.514008 160 222 160"/>
    <path id="path10" fill="#ffffff" stroke="none" d="M 42 132 C 43.099998 132 44 131.100006 44 130 L 44 126 C 44 124.899994 43.099998 124 42 124 C 40.900002 124 40 124.899994 40 126 L 40 130 C 40 131.100006 40.900002 132 42 132"/>
    <path id="path11" fill="#ffffff" stroke="none" d="M 34 132 C 35.099998 132 36 131.100006 36 130 L 36 126 C 36 124.899994 35.099998 124 34 124 C 32.900002 124 32 124.899994 32 126 L 32 130 C 32 131.100006 32.900002 132 34 132"/>
    <path id="path12" fill="#ffffff" stroke="none" d="M 26 132 C 27.1 132 28 131.100006 28 130 L 28 126 C 28 124.899994 27.1 124 26 124 C 24.9 124 24 124.899994 24 126 L 24 130 C 24 131.100006 24.9 132 26 132"/>
    <path id="path13" fill="#ffffff" stroke="none" d="M 221.625 244 L 34.514999 244 C 26.537994 244 20.070007 237.199997 20.070007 228.811996 L 20.070007 140 L 48 140 L 52 140 L 204 140 L 208 140 L 236 140 L 236.070007 140 L 236.070007 228.811996 C 236.070007 237.199997 229.604004 244 221.625 244 M 20 132 L 20 124.640991 C 20 122.078003 22.350998 120 25.251007 120 L 48 120 L 48 136 L 20.070007 136 L 20.070007 132 Z M 136 128 C 136 126.895996 136.895996 126 138 126 C 139.104004 126 140 126.895996 140 128 C 140 129.104004 139.104004 130 138 130 C 136.895996 130 136 129.104004 136 128 M 128 124 C 130.209 124 132 125.791 132 128 C 132 130.209 130.209 132 128 132 C 125.791 132 124 130.209 124 128 C 124 125.791 125.791 124 128 124 M 120 128 C 120 132.411011 123.588997 136 128 136 C 130.615997 136 132.936005 134.731995 134.395996 132.785004 C 135.399994 133.544006 136.645996 134 138 134 C 141.30899 134 144 131.30899 144 128 C 144 124.69101 141.30899 122 138 122 C 136.645996 122 135.399994 122.455994 134.395996 123.214996 C 132.936005 121.268005 130.617004 120.001007 128.001999 120 L 204 120 L 204 136 L 128 136 L 52 136 L 52 120 L 127.998001 120 C 123.586998 120.001007 120 123.589996 120 128 M 208 120 L 208 120 L 230.748993 120 C 233.649002 120 236 122.078003 236 124.640991 L 236 136 L 208 136 Z M 34.445007 12 L 221.554993 12 C 229.533005 12 236 18.466995 236 26.445007 L 236 117.535004 C 234.507004 116.569 232.699005 116 230.748993 116 L 25.251007 116 C 23.300995 116 21.492996 116.569 20 117.535004 L 20 26.445007 C 20 18.466995 26.466995 12 34.445007 12 M 240 132 L 240 124.640991 C 240 124.424011 239.981995 124.212006 239.964996 124 L 240 124 L 240 120 L 240 26.445007 C 240 16.274002 231.725998 8 221.554993 8 L 34.445007 8 C 24.274002 8 16 16.274002 16 26.445007 L 16 120 L 16 124 L 16.035004 124 C 16.018005 124.212006 16 124.424011 16 124.640991 L 16 136 L 16 140 L 16.070007 140 L 16.070007 228.811996 C 16.070007 239.393005 24.345001 248 34.514999 248 L 221.625 248 C 231.796005 248 240.070007 239.393005 240.070007 228.811996 L 240.070007 132 Z"/>
    <path id="path14" fill="#ffffff" stroke="none" d="M 38 72 C 39.104 72 40 71.104004 40 70 C 40 68.895996 39.104 68 38 68 C 36.896 68 36 68.895996 36 70 C 36 71.104004 36.896 72 38 72"/>
    <path id="path15" fill="#ffffff" stroke="none" d="M 42 76 C 40.896 76 40 76.895996 40 78 C 40 79.104004 40.896 80 42 80 C 43.104 80 44 79.104004 44 78 C 44 76.895996 43.104 76 42 76"/>
    <path id="path16" fill="#ffffff" stroke="none" d="M 50 80 C 51.104 80 52 79.104004 52 78 C 52 76.895996 51.104 76 50 76 C 48.896 76 48 76.895996 48 78 C 48 79.104004 48.896 80 50 80"/>
    <path id="path17" fill="#ffffff" stroke="none" d="M 34 80 C 35.104 80 36 79.104004 36 78 C 36 76.895996 35.104 76 34 76 C 32.896 76 32 76.895996 32 78 C 32 79.104004 32.896 80 34 80"/>
    <path id="path18" fill="#ffffff" stroke="none" d="M 46 72 C 47.104 72 48 71.104004 48 70 C 48 68.895996 47.104 68 46 68 C 44.896 68 44 68.895996 44 70 C 44 71.104004 44.896 72 46 72"/>
    <path id="path19" fill="#ffffff" stroke="none" d="M 38 84 C 36.896 84 36 84.895996 36 86 C 36 87.104004 36.896 88 38 88 C 39.104 88 40 87.104004 40 86 C 40 84.895996 39.104 84 38 84"/>
    <path id="path20" fill="#ffffff" stroke="none" d="M 46 84 C 44.896 84 44 84.895996 44 86 C 44 87.104004 44.896 88 46 88 C 47.104 88 48 87.104004 48 86 C 48 84.895996 47.104 84 46 84"/>
    <path id="path21" fill="#ffffff" stroke="none" d="M 210 72 C 211.104004 72 212 71.104004 212 70 C 212 68.895996 211.104004 68 210 68 C 208.895996 68 208 68.895996 208 70 C 208 71.104004 208.895996 72 210 72"/>
    <path id="path22" fill="#ffffff" stroke="none" d="M 214 76 C 212.895996 76 212 76.895996 212 78 C 212 79.104004 212.895996 80 214 80 C 215.104004 80 216 79.104004 216 78 C 216 76.895996 215.104004 76 214 76"/>
    <path id="path23" fill="#ffffff" stroke="none" d="M 222 80 C 223.104004 80 224 79.104004 224 78 C 224 76.895996 223.104004 76 222 76 C 220.895996 76 220 76.895996 220 78 C 220 79.104004 220.895996 80 222 80"/>
    <path id="path24" fill="#ffffff" stroke="none" d="M 206 80 C 207.104004 80 208 79.104004 208 78 C 208 76.895996 207.104004 76 206 76 C 204.895996 76 204 76.895996 204 78 C 204 79.104004 204.895996 80 206 80"/>
    <path id="path25" fill="#ffffff" stroke="none" d="M 218 72 C 219.104004 72 220 71.104004 220 70 C 220 68.895996 219.104004 68 218 68 C 216.895996 68 216 68.895996 216 70 C 216 71.104004 216.895996 72 218 72"/>
    <path id="path26" fill="#ffffff" stroke="none" d="M 210 84 C 208.895996 84 208 84.895996 208 86 C 208 87.104004 208.895996 88 210 88 C 211.104004 88 212 87.104004 212 86 C 212 84.895996 211.104004 84 210 84"/>
    <path id="path27" fill="#ffffff" stroke="none" d="M 218 84 C 216.895996 84 216 84.895996 216 86 C 216 87.104004 216.895996 88 218 88 C 219.104004 88 220 87.104004 220 86 C 220 84.895996 219.104004 84 218 84"/>
</svg>
