<?xml version="1.0" encoding="UTF-8"?>
<!-- Generated by Pixelmator Pro 3.7.1 -->
<svg width="256" height="256" viewBox="0 0 256 256" xmlns="http://www.w3.org/2000/svg">
    <path id="Path" fill="#ffffff" stroke="none" d="M 224 240 C 224 242.209 222.209 244 220 244 L 204 244 L 52 244 L 36 244 C 33.791 244 32 242.209 32 240 L 32 16 C 32 13.791 33.791 12 36 12 L 52 12 L 52 16 L 44 16 L 40 16 C 37.791 16 36 17.791 36 20 L 36 232 C 36 234.209 37.791 236 40 236 L 216 236 C 218.209 236 220 234.209 220 232 L 220 20 C 220 17.791 218.209 16 216 16 L 212 16 L 204 16 L 204 12 L 220 12 C 222.209 12 224 13.791 224 16 Z M 188 224 L 208 204 L 208 224 Z M 44 194.343002 L 44 200 L 44 228 L 72 228 L 77.656998 228 L 178.343002 228 L 184 228 L 212 228 L 212 200 L 212 194.343002 L 212 20 L 216 20 L 216 232 L 40 232 L 40 20 L 44 20 Z M 48 204 L 68 224 L 48 224 Z M 208 20 L 208 198.343002 L 182.343002 224 L 73.656998 224 L 48 198.343002 L 48 20 Z M 220 8 L 204 8 L 200 8 L 200 12 L 200 16 L 56 16 L 56 12 L 56 8 L 52 8 L 36 8 C 31.589005 8 28 11.589005 28 16 L 28 240 C 28 244.410995 31.589005 248 36 248 L 52 248 L 204 248 L 220 248 C 224.410995 248 228 244.410995 228 240 L 228 16 C 228 11.589005 224.410995 8 220 8"/>
</svg>
