<?xml version="1.0" encoding="UTF-8"?>
<!-- Generated by Pixelmator Pro 3.7.1 -->
<svg width="256" height="256" viewBox="0 0 256 256" xmlns="http://www.w3.org/2000/svg">
    <path id="Path" fill="#ffffff" stroke="none" d="M 244 56 L 234 56 C 232.895996 56 232 56.895996 232 58 C 232 59.104004 232.895996 60 234 60 L 244 60 L 244 64 L 234 64 C 232.895996 64 232 64.895996 232 66 C 232 67.104004 232.895996 68 234 68 L 244 68 L 244 72 L 234 72 C 232.895996 72 232 72.895996 232 74 C 232 75.104004 232.895996 76 234 76 L 244 76 L 244 80 L 234 80 C 232.895996 80 232 80.895996 232 82 C 232 83.104004 232.895996 84 234 84 L 244 84 L 244 88 L 234 88 C 232.895996 88 232 88.895996 232 90 C 232 91.104004 232.895996 92 234 92 L 244 92 L 244 212 C 244 214.209 242.209 216 240 216 L 204 216 L 204 128 L 209.777008 128 C 221.531998 128 224 120.906006 224 114.953995 L 224 65.046005 C 224 59.093994 221.531998 52 209.777008 52 L 204 52 L 204 44 L 242 44 C 243.104004 44 244 44.895996 244 46 Z M 56 216 L 56 158 L 56 128 L 200.208008 128 L 200.208008 216 Z M 16 216 C 13.791 216 12 214.209 12 212 L 12 92 L 22 92 C 23.104004 92 24 91.104004 24 90 C 24 88.895996 23.104004 88 22 88 L 12 88 L 12 84 L 22 84 C 23.104004 84 24 83.104004 24 82 C 24 80.895996 23.104004 80 22 80 L 12 80 L 12 76 L 22 76 C 23.104004 76 24 75.104004 24 74 C 24 72.895996 23.104004 72 22 72 L 12 72 L 12 68 L 22 68 C 23.104004 68 24 67.104004 24 66 C 24 64.895996 23.104004 64 22 64 L 12 64 L 12 60 L 22 60 C 23.104004 60 24 59.104004 24 58 C 24 56.895996 23.104004 56 22 56 L 12 56 L 12 46 C 12 44.895996 12.895996 44 14 44 L 52 44 L 52 52 L 46.222 52 C 34.466995 52 32 59.093994 32 65.046005 L 32 114.953995 C 32 120.906006 34.466995 128 46.222 128 L 52 128 L 52 216 Z M 209.777008 56 C 216.876999 56 220 58.764008 220 65.046005 L 220 114.953995 C 220 121.235992 216.876999 124 209.777008 124 L 46.222 124 C 39.123001 124 36 121.235992 36 114.953995 L 36 65.046005 C 36 58.764008 39.123001 56 46.222 56 Z M 200.208008 52 L 56 52 L 56 44 L 200.208008 44 Z M 242 40 L 14 40 C 10.690994 40 8 42.690994 8 46 L 8 56 L 8 60 L 8 64 L 8 68 L 8 72 L 8 76 L 8 80 L 8 84 L 8 88 L 8 92 L 8 212 C 8 216.410995 11.589005 220 16 220 L 240 220 C 244.410995 220 248 216.410995 248 212 L 248 92 L 248 88 L 248 84 L 248 80 L 248 76 L 248 72 L 248 68 L 248 64 L 248 60 L 248 56 L 248 46 C 248 42.690994 245.309006 40 242 40"/>
    <path id="path1" fill="#ffffff" stroke="none" d="M 66 152 L 100 152 L 100 164 L 66 164 C 62.700001 164 60 161.300003 60 158 C 60 154.699997 62.700001 152 66 152 M 152 164 L 104 164 L 104 152 L 152 152 Z M 190 152 C 193.300003 152 196 154.699997 196 158 C 196 161.300003 193.300003 164 190 164 L 156 164 L 156 152 Z M 66 168 L 100 168 L 104 168 L 152 168 L 156 168 L 190 168 C 195.514008 168 200 163.514008 200 158 C 200 152.485992 195.514008 148 190 148 L 156 148 L 152 148 L 104 148 L 100 148 L 66 148 C 60.486 148 56 152.485992 56 158 C 56 163.514008 60.486 168 66 168"/>
    <path id="path2" fill="#ffffff" stroke="none" d="M 30 206 C 28.896999 206 28 205.102997 28 204 C 28 202.897003 28.896999 202 30 202 C 31.103001 202 32 202.897003 32 204 C 32 205.102997 31.103001 206 30 206 M 30 198 C 26.687 198 24 200.686996 24 204 C 24 207.313004 26.687 210 30 210 C 33.313 210 36 207.313004 36 204 C 36 200.686996 33.313 198 30 198"/>
    <path id="path3" fill="#ffffff" stroke="none" d="M 226 206 C 224.897003 206 224 205.102997 224 204 C 224 202.897003 224.897003 202 226 202 C 227.102997 202 228 202.897003 228 204 C 228 205.102997 227.102997 206 226 206 M 226 198 C 222.686996 198 220 200.686996 220 204 C 220 207.313004 222.686996 210 226 210 C 229.313004 210 232 207.313004 232 204 C 232 200.686996 229.313004 198 226 198"/>
</svg>
