<?xml version="1.0" encoding="UTF-8"?>
<!-- Generated by Pixelmator Pro 3.7.1 -->
<svg width="256" height="256" viewBox="0 0 256 256" xmlns="http://www.w3.org/2000/svg">
    <path id="Path" fill="#ffffff" stroke="none" d="M 232 228 L 228 228 L 228 232 L 228 240 L 228 242 C 228 243.104004 227.104004 244 226 244 L 44.544998 244 C 32.434006 244 22.376999 235.360001 20.371002 224 L 24 224 L 28 224 L 28 220 L 28 208 L 28 204 L 24 204 L 20 204 L 20 21.667007 C 20 16.328003 24.395996 12 29.817993 12 L 226.182007 12 C 231.604004 12 236 16.328003 236 21.667007 L 236 228 Z M 236 238 C 236 239.104004 235.104004 240 234 240 L 232 240 L 232 232 L 236 232 Z M 20 219.833008 L 20 208 L 24 208 L 24 220 L 20.003998 220 C 20.003998 219.944 20 219.889999 20 219.833008 M 226.182007 8 L 29.817993 8 C 22.199005 8 16 14.130997 16 21.667007 L 16 204 L 16 208 L 16 219.833008 L 16 220 L 16 224 L 16.313995 224 C 18.360992 237.563004 30.240005 248 44.544998 248 L 226 248 C 228.606003 248 230.822998 246.326004 231.649994 244 L 232 244 L 234 244 C 237.309006 244 240 241.309006 240 238 L 240 232 L 240 228 L 240 21.667007 C 240 14.130997 233.800995 8 226.182007 8"/>
    <path id="path1" fill="#ffffff" stroke="none" d="M 40 196 L 40 58.535995 L 97.237 64.966003 L 97.934998 65.048996 L 104.655998 58.535995 L 152.820999 58.535995 L 158.669998 65.011993 L 220 61.755005 L 220 196 Z M 220 215.220001 C 220 217.859009 217.869995 220 215.242004 220 L 153.210999 220 L 140 220 L 116 220 L 102.789001 220 L 52 220 L 40 204 L 40 200 L 220 200 Z M 128 232 L 116 224 L 140 224 Z M 44.757999 28 L 215.242004 28 C 217.869995 28 220 30.139999 220 32.779999 L 220 58.216995 L 159.93399 61.404007 L 154.151001 55 L 103.451004 55 L 96.875999 61.369995 L 40 54.996994 L 40 32.779999 C 40 30.139999 42.130001 28 44.757999 28 M 215.242004 24 L 44.757999 24 C 39.929001 24 36 27.938004 36 32.779999 L 36 204 L 36 205.333008 L 36.799999 206.399994 L 48.799999 222.399994 L 50 224 L 52 224 L 108.789001 224 L 113.780998 227.328003 L 125.780998 235.328003 L 128 236.807999 L 130.218994 235.328003 L 142.218994 227.328003 L 147.210999 224 L 215.242004 224 C 220.070999 224 224 220.061996 224 215.220001 L 224 32.779999 C 224 27.938004 220.070999 24 215.242004 24"/>
    <path id="path2" fill="#ffffff" stroke="none" d="M 164 150 C 164 151.104004 163.104004 152 162 152 L 94 152 C 92.896004 152 92 151.104004 92 150 L 92 110 C 92 108.895996 92.896004 108 94 108 L 96 108 L 96 96 C 96 78.725998 110.686005 64 128 64 C 145.313995 64 159.350998 78.725998 159.350998 96 L 159.350998 96.722992 C 159.350998 97.828003 158.455002 98.722992 157.350998 98.722992 L 149.395004 98.722992 C 148.289993 98.722992 147.395004 97.828003 147.395004 96.722992 L 147.395004 96 C 147.395004 85.330994 138.694 75.928009 128 75.928009 C 115.818001 75.928009 108 87.446991 108 96 L 108 108 L 162 108 C 163.104004 108 164 108.895996 164 110 Z M 162 104 L 112 104 L 112 96 C 112 89.446991 118.233002 79.928009 128 79.928009 C 136.345001 79.928009 143.395004 87.287994 143.395004 96 L 143.395004 96.722992 C 143.395004 100.031006 146.085999 102.722992 149.395004 102.722992 L 157.350998 102.722992 C 160.658997 102.722992 163.350998 100.031006 163.350998 96.722992 L 163.350998 96 C 163.350998 86.554993 159.688004 77.582001 153.037003 70.735001 C 146.313004 63.811996 137.421005 60 128 60 C 108.486 60 92 76.485992 92 96 L 92 104.343002 C 89.671997 105.167999 88 107.393005 88 110 L 88 150 C 88 153.30899 90.691002 156 94 156 L 162 156 C 165.309006 156 168 153.30899 168 150 L 168 110 C 168 106.69101 165.309006 104 162 104"/>
</svg>
