<?xml version="1.0" encoding="UTF-8"?>
<!-- Generated by Pixelmator Pro 3.7.1 -->
<svg width="256" height="256" viewBox="0 0 256 256" xmlns="http://www.w3.org/2000/svg">
    <path id="Path" fill="#ffffff" stroke="none" d="M 36 147 C 36 147.553009 35.551998 148 35 148 L 29 148 C 28.448 148 28 147.553009 28 147 L 28 142 L 23 142 C 22.448 142 22 141.553009 22 141 L 22 135 C 22 134.446991 22.448 134 23 134 L 28 134 L 28 129 C 28 128.447998 28.448 128 29 128 L 35 128 C 35.551998 128 36 128.447998 36 129 L 36 134 L 41 134 C 41.552002 134 42 134.446991 42 135 L 42 141 C 42 141.553009 41.552002 142 41 142 L 36 142 Z M 40 147 L 40 146 L 41 146 C 43.757 146 46 143.757004 46 141 L 46 135 C 46 132.242996 43.757 130 41 130 L 40 130 L 40 129 C 40 126.242996 37.757 124 35 124 L 29 124 C 26.243 124 24 126.242996 24 129 L 24 130 L 23 130 C 20.243 130 18 132.242996 18 135 L 18 141 C 18 143.757004 20.243 146 23 146 L 24 146 L 24 147 C 24 149.757004 26.243 152 29 152 L 35 152 C 37.757 152 40 149.757004 40 147"/>
    <path id="path1" fill="#ffffff" stroke="none" d="M 192 162 L 64 162 L 64 92 L 192 92 Z M 196 88 L 60 88 L 60 166 L 196 166 Z"/>
    <path id="path2" fill="#ffffff" stroke="none" d="M 224 128 C 228.417999 128 232 131.582001 232 136 C 232 140.417999 228.417999 144 224 144 C 219.582001 144 216 140.417999 216 136 C 216 131.582001 219.582001 128 224 128 M 224 148 C 230.617004 148 236 142.617004 236 136 C 236 129.382996 230.617004 124 224 124 C 217.382996 124 212 129.382996 212 136 C 212 142.617004 217.382996 148 224 148"/>
    <path id="path3" fill="#ffffff" stroke="none" d="M 32 98 C 36.417999 98 40 101.582001 40 106 C 40 110.417999 36.417999 114 32 114 C 27.582001 114 24 110.417999 24 106 C 24 101.582001 27.582001 98 32 98 M 32 118 C 38.617001 118 44 112.617004 44 106 C 44 99.382996 38.617001 94 32 94 C 25.382999 94 20 99.382996 20 106 C 20 112.617004 25.382999 118 32 118"/>
    <path id="path4" fill="#ffffff" stroke="none" d="M 232 110 C 229.791 110 228 108.209 228 106 C 228 103.791 229.791 102 232 102 C 234.209 102 236 103.791 236 106 C 236 108.209 234.209 110 232 110 M 224 118 C 221.791 118 220 116.209 220 114 C 220 111.791 221.791 110 224 110 C 226.209 110 228 111.791 228 114 C 228 116.209 226.209 118 224 118 M 216 110 C 213.791 110 212 108.209 212 106 C 212 103.791 213.791 102 216 102 C 218.209 102 220 103.791 220 106 C 220 108.209 218.209 110 216 110 M 224 94 C 226.209 94 228 95.791 228 98 C 228 100.209 226.209 102 224 102 C 221.791 102 220 100.209 220 98 C 220 95.791 221.791 94 224 94 M 232 98 C 232 93.589005 228.410995 90 224 90 C 219.589005 90 216 93.589005 216 98 C 211.589005 98 208 101.589005 208 106 C 208 110.410995 211.589005 114 216 114 C 216 118.410995 219.589005 122 224 122 C 228.410995 122 232 118.410995 232 114 C 236.410995 114 240 110.410995 240 106 C 240 101.589005 236.410995 98 232 98"/>
    <path id="path5" fill="#ffffff" stroke="none" d="M 220 79 L 212 79 L 212 78 C 212 76.895996 212.895996 76 214 76 L 220 76 C 230.311005 76 239.100998 82.503006 242.496994 91.630997 C 242.714005 92.214005 242.371002 92.832001 241.802994 92.970001 C 238.003998 84.725998 229.673004 79 220 79 M 208 160 C 208 157.791 209.791 156 212 156 C 214.209 156 216 157.791 216 160 C 216 162.209 214.209 164 212 164 C 209.791 164 208 162.209 208 160 M 48 157.333008 L 48 162.666992 C 48 163.403 47.403 164 46.667007 164 L 41.332993 164 C 40.597 164 40 163.403 40 162.666992 L 40 157.333008 C 40 156.597 40.597 156 41.332993 156 L 46.667007 156 C 47.403 156 48 156.597 48 157.333008 M 47 90 L 41 90 L 41 88 L 47 88 Z M 240 106 L 240 156 C 240 167.028 231.028 176 220 176 L 36 176 C 24.972 176 16 167.028 16 156 L 16 103 C 16 91.972 24.972 83 36 83 L 51.442993 83 C 50.720993 83.619003 50.220001 84.475998 50.063995 85.458008 C 49.330994 84.574005 48.238007 84 47 84 L 41 84 C 38.791 84 37 85.791 37 88 L 37 90 C 37 92.209 38.791 94 41 94 L 47 94 C 48.201996 94 49.266998 93.459 50 92.621002 L 50 153.20401 C 49.084 152.462997 47.934006 152 46.667007 152 L 41.332993 152 C 38.393005 152 36 154.393005 36 157.333008 L 36 162.666992 C 36 165.606995 38.393005 168 41.332993 168 L 46.667007 168 C 47.934006 168 49.084 167.537003 50 166.79599 L 50 167.902008 C 50 170.165009 51.835007 172 54.098007 172 L 201.902008 172 C 204.164993 172 206 170.165009 206 167.902008 L 206 165.27301 C 207.466995 166.94101 209.608994 168 212 168 C 216.410995 168 220 164.411011 220 160 C 220 155.588989 216.410995 152 212 152 C 209.608994 152 207.466995 153.05899 206 154.72699 L 206 92.645996 C 206.373001 93.067993 206.834 93.410995 207.354004 93.645996 C 207.981003 95.033997 209.378006 96 211 96 L 213 96 C 214.621994 96 216.018997 95.033997 216.645996 93.645996 C 218.033997 93.018997 219 91.621994 219 90 L 219 88 C 219 86.378006 218.033997 84.981003 216.645996 84.354004 C 216.410995 83.833008 216.067993 83.373001 215.645996 83 L 220 83 C 231.028 83 240 91.972 240 103 Z M 13.503006 91.630997 C 16.899002 82.503006 25.688995 76 36 76 L 42 76 C 43.104004 76 44 76.895996 44 78 L 44 79 L 36 79 C 26.326996 79 17.996002 84.725998 14.197006 92.970001 C 13.628998 92.832001 13.285995 92.214005 13.503006 91.630997 M 64 78.365997 C 64 77.888 64.388 77.5 64.865997 77.5 L 69.134003 77.5 C 69.612 77.5 70 77.888 70 78.365997 L 70 78.5 L 74 78.5 L 74 78.365997 C 74 77.888 74.388 77.5 74.865997 77.5 L 79.134003 77.5 C 79.612 77.5 80 77.888 80 78.365997 L 80 79 L 64 79 Z M 205.934006 85.440994 C 205.774994 84.466003 205.274002 83.615997 204.557007 83 L 208.354004 83 C 207.932007 83.373001 207.589005 83.833008 207.354004 84.354004 C 206.800003 84.604004 206.317993 84.979996 205.934006 85.440994 M 54 86.098007 C 54 86.044006 54.044006 86 54.098007 86 L 201.902008 86 C 201.955994 86 202 86.044006 202 86.098007 L 202 167.902008 C 202 167.955994 201.955994 168 201.902008 168 L 54.098007 168 C 54.044006 168 54 167.955994 54 167.902008 Z M 209 90 L 209 88 L 211 88 L 211 86 L 213 86 L 213 88 L 215 88 L 215 90 L 213 90 L 213 92 L 211 92 L 211 90 Z M 246.246002 90.235992 C 242.186996 79.328995 231.639999 72 220 72 L 214 72 C 210.690994 72 208 74.690994 208 78 L 208 79 L 84 79 L 84 78.365997 C 84 75.682999 81.817001 73.5 79.134003 73.5 L 74.865997 73.5 C 73.794998 73.5 72.804993 73.848007 72 74.436005 C 71.195007 73.848007 70.205002 73.5 69.134003 73.5 L 64.865997 73.5 C 62.182999 73.5 60 75.682999 60 78.365997 L 60 79 L 48 79 L 48 78 C 48 74.690994 45.309006 72 42 72 L 36 72 C 24.360001 72 13.813004 79.328995 9.753998 90.235992 C 9.179993 91.779007 9.395996 93.505997 10.334 94.856003 C 10.951996 95.744003 11.834 96.389008 12.832993 96.727997 C 12.292999 98.727997 12 100.828995 12 103 L 12 156 C 12 169.255005 22.744995 180 36 180 L 220 180 C 233.255005 180 244 169.255005 244 156 L 244 103 C 244 100.828995 243.707001 98.727997 243.166992 96.727997 C 244.165009 96.389008 245.048004 95.744003 245.665009 94.854996 C 246.604004 93.505997 246.820007 91.779007 246.246002 90.235992"/>
</svg>
