<?xml version="1.0" encoding="UTF-8"?>
<!-- Generated by Pixelmator Pro 3.7.1 -->
<svg width="256" height="256" viewBox="0 0 256 256" xmlns="http://www.w3.org/2000/svg">
    <path id="Path" fill="#ffffff" stroke="none" d="M 242 84 L 196 84 L 196 36 L 56 36 L 56 84 L 14 84 L 14 33.041992 C 14 21.052002 26 21.052002 26 21.052002 L 116.603996 15.261002 C 119.325996 15.087006 122.051003 15 124.777 15 C 127.634003 15 130.48999 15.096008 133.343994 15.287003 C 156.449005 16.835999 220.205002 21.052002 230 21.052002 C 242 21.052002 242 33.041992 242 33.041992 Z M 101.783005 66.306 C 101.904999 66.281998 102.031998 66.259003 102.154999 66.235001 C 102.996994 66.069 103.852997 65.910004 104.725006 65.759995 C 105.065002 65.701996 105.417007 65.647995 105.761993 65.591995 C 106.451996 65.479996 107.143005 65.369003 107.850998 65.266998 C 108.363007 65.192993 108.891006 65.128006 109.414001 65.059998 C 109.992996 64.983994 110.567001 64.906006 111.156998 64.837997 C 111.802002 64.763 112.466003 64.701004 113.126007 64.634995 C 113.630005 64.584991 114.125999 64.529999 114.638 64.485992 C 115.388 64.421005 116.160004 64.369995 116.928001 64.317001 C 117.379997 64.287003 117.821999 64.248993 118.278999 64.222 C 119.140999 64.171997 120.026001 64.139999 120.910004 64.106003 C 121.300003 64.091995 121.679001 64.069 122.072998 64.057999 C 123.359001 64.020996 124.667 64 126 64 C 127.333 64 128.640991 64.020996 129.927002 64.057999 C 130.320999 64.069 130.699997 64.091995 131.089996 64.106003 C 131.973999 64.139999 132.859009 64.171997 133.721008 64.222 C 134.179001 64.248993 134.621002 64.287003 135.071991 64.317001 C 135.841003 64.369995 136.612 64.421005 137.360992 64.485992 C 137.876999 64.529999 138.376007 64.584991 138.882004 64.636002 C 139.539001 64.701004 140.199005 64.764008 140.841003 64.837006 C 141.436005 64.906006 142.014008 64.985001 142.597 65.061005 C 143.11499 65.128006 143.639008 65.192993 144.147003 65.266006 C 144.860992 65.369003 145.559998 65.481003 146.255005 65.595001 C 146.593994 65.649994 146.936996 65.701996 147.270996 65.759003 C 148.149002 65.910995 149.013 66.070999 149.860992 66.238007 C 149.977997 66.261002 150.097992 66.281998 150.212997 66.304993 C 175.179001 71.300003 187.031998 82.690994 187.182007 82.839005 L 188.350006 83.990005 L 63.656998 84 L 64.828995 82.828995 C 64.970001 82.688995 76.820999 71.300995 101.783005 66.306 M 192 80 C 192 80 170 60 126 60 C 82 60 60 80 60 80 L 60 40 L 192 40 Z M 242 217.028 C 242 217.028 210 241.028 126 241.028 C 42 241.028 14 217.028 14 217.028 L 14 88 L 58 88 L 59.656998 88 L 192.419006 88 L 193.990997 88 L 242 88 Z M 230 17.052002 C 220.201004 17.052002 153.746002 12.645996 133.610992 11.29599 C 130.68399 11.100006 127.710999 11 124.777 11 C 121.978996 11 119.142998 11.091003 116.348999 11.268997 L 25.862 17.053009 C 19.432999 17.113007 10 21.393997 10 33.041992 L 10 80 L 10 84 L 10 88 L 10 217.028 L 10 218.867996 L 11.397003 220.065002 C 12.585999 221.085007 41.492004 245.028 126 245.028 C 210.363007 245.028 243.050003 221.240997 244.399994 220.229004 L 246 219.028 L 246 217.028 L 246 88 L 246 84 L 246 80 L 246 33.041992 C 246 26.613998 241.738998 17.052002 230 17.052002"/>
    <path id="path1" fill="#ffffff" stroke="none" d="M 34 50.057602 C 29.589001 50.057602 26 53.645599 26 58.057602 C 26 62.468597 29.589001 66.057602 34 66.057602 C 38.410999 66.057602 42 62.468597 42 58.057602 C 42 53.645599 38.410999 50.057602 34 50.057602 M 34 54.057602 C 36.209 54.057602 38 55.848602 38 58.057602 C 38 60.266602 36.209 62.057602 34 62.057602 C 31.791 62.057602 30 60.266602 30 58.057602 C 30 55.848602 31.791 54.057602 34 54.057602"/>
    <path id="path2" fill="#ffffff" stroke="none" d="M 222 50.057602 C 217.589005 50.057602 214 53.645599 214 58.057602 C 214 62.468597 217.589005 66.057602 222 66.057602 C 226.410995 66.057602 230 62.468597 230 58.057602 C 230 53.645599 226.410995 50.057602 222 50.057602 M 222 54.057602 C 224.209 54.057602 226 55.848602 226 58.057602 C 226 60.266602 224.209 62.057602 222 62.057602 C 219.791 62.057602 218 60.266602 218 58.057602 C 218 55.848602 219.791 54.057602 222 54.057602"/>
    <path id="path3" fill="#ffffff" stroke="none" d="M 126 234.057602 L 110 222.057602 L 142 222.057602 Z M 110 218.057602 L 98 218.057602 L 107.599998 225.257599 L 123.599998 237.257599 L 126 239.057602 L 128.399994 237.257599 L 144.399994 225.257599 L 154 218.057602 L 142 218.057602 Z"/>
    <path id="path4" fill="#ffffff" stroke="none" d="M 220 107.844696 L 220 178.446701 C 220 178.446701 184.75 198.057693 126 198.057693 C 67.25 198.057693 32 178.446701 32 178.446701 L 32 107.844696 C 32 99.999695 39.832993 99.999695 39.832993 99.999695 L 212.166992 99.999695 C 220 99.999695 220 107.844696 220 107.844696 M 28 107.844696 L 28 178.446701 L 28 180.797699 L 30.054993 181.941711 C 31.531998 182.762695 66.891998 202.057693 126 202.057693 C 185.108002 202.057693 220.468994 182.762695 221.944 181.941711 L 224 180.797699 L 224 178.446701 L 224 107.844696 C 224 103.083694 220.848999 95.999695 212.166992 95.999695 L 39.832993 95.999695 C 35.076996 95.999695 28 99.154694 28 107.844696"/>
</svg>
