<?xml version="1.0" encoding="UTF-8"?>
<!-- Generated by Pixelmator Pro 3.7.1 -->
<svg width="256" height="256" viewBox="0 0 256 256" xmlns="http://www.w3.org/2000/svg">
    <path id="Path" fill="#ffffff" stroke="none" d="M 56 24 L 200 24 L 200 108 L 56 108 Z M 52 112 L 204 112 L 204 20 L 52 20 Z"/>
    <path id="path1" fill="#ffffff" stroke="none" d="M 188 232 L 68 232 L 68 144 L 188 144 Z M 68 140 L 64 140 L 64 144 L 64 232 L 64 236 L 68 236 L 188 236 L 192 236 L 192 232 L 192 144 L 192 140 L 188 140 Z"/>
    <path id="path2" fill="#ffffff" stroke="none" d="M 34 211 L 34 202 L 25 202 C 24.448 202 24 201.553009 24 201 L 24 195 C 24 194.446991 24.448 194 25 194 L 34 194 L 34 185 C 34 184.446991 34.448002 184 35 184 L 41 184 C 41.552002 184 42 184.446991 42 185 L 42 194 L 51 194 C 51.552002 194 52 194.446991 52 195 L 52 201 C 52 201.553009 51.552002 202 51 202 L 42 202 L 42 211 C 42 211.553009 41.552002 212 41 212 L 35 212 C 34.448002 212 34 211.553009 34 211 M 46 211 L 46 206 L 51 206 C 53.757 206 56 203.757004 56 201 L 56 195 C 56 192.242996 53.757 190 51 190 L 46 190 L 46 185 C 46 182.242996 43.757 180 41 180 L 35 180 C 32.243 180 30 182.242996 30 185 L 30 190 L 25 190 C 22.243 190 20 192.242996 20 195 L 20 201 C 20 203.757004 22.243 206 25 206 L 30 206 L 30 211 C 30 213.757004 32.243 216 35 216 L 41 216 C 43.757 216 46 213.757004 46 211"/>
    <path id="path3" fill="#ffffff" stroke="none" d="M 38 174 C 29.164 174 22 166.837006 22 158 C 22 149.162994 29.164 142 38 142 C 46.835999 142 54 149.162994 54 158 C 54 166.837006 46.835999 174 38 174 M 38 138 C 26.972 138 18 146.972 18 158 C 18 169.028 26.972 178 38 178 C 49.028 178 58 169.028 58 158 C 58 146.972 49.028 138 38 138"/>
    <path id="path4" fill="#ffffff" stroke="none" d="M 38 164 C 34.691002 164 32 161.30899 32 158 C 32 154.69101 34.691002 152 38 152 C 41.308998 152 44 154.69101 44 158 C 44 161.30899 41.308998 164 38 164 M 38 148 C 32.477001 148 28 152.477997 28 158 C 28 163.522003 32.477001 168 38 168 C 43.522999 168 48 163.522003 48 158 C 48 152.477997 43.522999 148 38 148"/>
    <path id="path5" fill="#ffffff" stroke="none" d="M 48 233 C 45.243 233 43 230.757004 43 228 C 43 225.242996 45.243 223 48 223 C 50.757 223 53 225.242996 53 228 C 53 230.757004 50.757 233 48 233 M 48 219 C 43.036999 219 39 223.037003 39 228 C 39 232.962997 43.036999 237 48 237 C 52.963001 237 57 232.962997 57 228 C 57 223.037003 52.963001 219 48 219"/>
    <path id="path6" fill="#ffffff" stroke="none" d="M 204 224 C 206.209 224 208 225.791 208 228 C 208 230.209 206.209 232 204 232 C 201.791 232 200 230.209 200 228 C 200 225.791 201.791 224 204 224 M 196 228 C 196 232.410995 199.589005 236 204 236 C 208.410995 236 212 232.410995 212 228 C 212 223.589005 208.410995 220 204 220 C 199.589005 220 196 223.589005 196 228"/>
    <path id="path7" fill="#ffffff" stroke="none" d="M 204 208 C 206.209 208 208 209.791 208 212 C 208 214.209 206.209 216 204 216 C 201.791 216 200 214.209 200 212 C 200 209.791 201.791 208 204 208 M 204 220 C 208.410995 220 212 216.410995 212 212 C 212 207.589005 208.410995 204 204 204 C 199.589005 204 196 207.589005 196 212 C 196 216.410995 199.589005 220 204 220"/>
    <path id="path8" fill="#ffffff" stroke="none" d="M 230 184 C 226.686996 184 224 181.313004 224 178 C 224 174.686996 226.686996 172 230 172 C 233.313004 172 236 174.686996 236 178 C 236 181.313004 233.313004 184 230 184 M 218 196 C 214.686996 196 212 193.313004 212 190 C 212 186.686996 214.686996 184 218 184 C 221.313004 184 224 186.686996 224 190 C 224 193.313004 221.313004 196 218 196 M 206 184 C 202.686996 184 200 181.313004 200 178 C 200 174.686996 202.686996 172 206 172 C 209.313004 172 212 174.686996 212 178 C 212 181.313004 209.313004 184 206 184 M 206 157 C 203.242996 157 201 154.757004 201 152 C 201 149.242996 203.242996 147 206 147 C 208.757004 147 211 149.242996 211 152 C 211 154.757004 208.757004 157 206 157 M 220.257004 180.257004 C 219.531006 180.088989 218.774994 180 218 180 C 217.225006 180 216.468994 180.088989 215.742996 180.257004 C 215.910995 179.531006 216 178.774994 216 178 C 216 177.225006 215.910995 176.468994 215.742996 175.742996 C 216.468994 175.911011 217.225006 176 218 176 C 218.774994 176 219.531006 175.911011 220.257004 175.742996 C 220.089005 176.468994 220 177.225006 220 178 C 220 178.774994 220.089005 179.531006 220.257004 180.257004 M 218 160 C 221.313004 160 224 162.686996 224 166 C 224 169.313004 221.313004 172 218 172 C 214.686996 172 212 169.313004 212 166 C 212 162.686996 214.686996 160 218 160 M 230 168 C 229.225006 168 228.468994 168.088989 227.742996 168.257004 C 227.910995 167.531006 228 166.774994 228 166 C 228 160.485992 223.514008 156 218 156 C 216.341003 156 214.772995 156.406006 213.395004 157.125 C 214.406006 155.669998 215 153.902008 215 152 C 215 147.037003 210.962997 143 206 143 C 201.037003 143 197 147.037003 197 152 C 197 156.962997 201.037003 161 206 161 C 207.410004 161 208.746002 160.673996 209.936005 160.093002 C 208.718994 161.748993 208 163.791992 208 166 C 208 166.774994 208.089005 167.531006 208.257004 168.257004 C 207.531006 168.088989 206.774994 168 206 168 C 200.485992 168 196 172.485992 196 178 C 196 183.514008 200.485992 188 206 188 C 206.774994 188 207.531006 187.911011 208.257004 187.742996 C 208.089005 188.468994 208 189.225006 208 190 C 208 195.514008 212.485992 200 218 200 C 223.514008 200 228 195.514008 228 190 C 228 189.225006 227.910995 188.468994 227.742996 187.742996 C 228.468994 187.911011 229.225006 188 230 188 C 235.514008 188 240 183.514008 240 178 C 240 172.485992 235.514008 168 230 168"/>
    <path id="path9" fill="#ffffff" stroke="none" d="M 224 126 L 211.738007 126 C 210.848999 122.550995 207.727005 120 204 120 L 192 120 L 188 120 L 68 120 L 64 120 L 52 120 C 48.272995 120 45.151001 122.550995 44.261993 126 L 32 126 C 23.164001 126 16 118.835999 16 110 L 16 28 C 16 19.164001 23.164001 12 32 12 L 224 12 C 232.837006 12 240 19.164001 240 28 L 240 110 C 240 118.835999 232.837006 126 224 126 M 64 132 L 52 132 C 49.794006 132 48 130.205002 48 128 C 48 125.794006 49.794006 124 52 124 L 64 124 Z M 121.083 132 L 68 132 L 68 124 L 121.083 124 C 120.398003 125.177994 120 126.542007 120 128 C 120 129.458008 120.398003 130.820999 121.083 132 M 132 128 C 132 130.209 130.209 132 128 132 C 125.791 132 124 130.209 124 128 C 124 125.791 125.791 124 128 124 C 130.209 124 132 125.791 132 128 M 188 132 L 134.917999 132 C 135.60199 130.820999 136 129.458008 136 128 C 136 126.542007 135.60199 125.177994 134.917999 124 L 188 124 Z M 204 132 L 192 132 L 192 124 L 204 124 C 206.205994 124 208 125.794006 208 128 C 208 130.205002 206.205994 132 204 132 M 240 144 L 240 178 L 240 228 C 240 236.837006 232.837006 244 224 244 L 32 244 C 23.164001 244 16 236.837006 16 228 L 16 144 C 16 137.223999 20.225006 131.459 26.173996 129.128998 C 28.018997 129.69101 29.973999 130 32 130 L 44.261993 130 C 45.151001 133.447998 48.272995 136 52 136 L 64 136 L 68 136 L 188 136 L 192 136 L 204 136 C 207.727005 136 210.848999 133.447998 211.738007 130 L 224 130 C 226.026001 130 227.981003 129.69101 229.826004 129.128998 C 235.774994 131.459 240 137.223999 240 144 M 244 110 L 244 28 C 244 16.972 235.028 8 224 8 L 32 8 C 20.972 8 12 16.972 12 28 L 12 110 C 12 117.181 15.815994 123.470993 21.514999 126.998993 C 15.813004 130.52301 12 136.817993 12 144 L 12 228 C 12 239.028 20.972 248 32 248 L 224 248 C 235.028 248 244 239.028 244 228 L 244 144 C 244 136.817993 240.186996 130.52301 234.485001 126.998993 C 240.184006 123.470993 244 117.181 244 110"/>
</svg>
