<?xml version="1.0" encoding="UTF-8"?>
<!-- Generated by Pixelmator Pro 3.7.1 -->
<svg width="256" height="256" viewBox="0 0 256 256" xmlns="http://www.w3.org/2000/svg">
    <path id="Path" fill="#ffffff" stroke="none" d="M 77.045403 29.0439 C 77.714401 28.371902 78.601402 28.001907 79.544403 28.001907 L 176.455399 27.999893 C 178.409393 28.0009 180.000397 29.607895 180.000397 31.583893 L 179.998398 100.4189 C 179.999405 101.379898 179.628403 102.280899 178.955399 102.958908 C 178.287399 103.629898 177.400406 103.999908 176.455399 103.999908 L 79.543404 103.999908 C 77.590401 103.999908 76.001396 102.391907 76.000397 100.416901 L 76.000397 31.583893 C 75.999397 30.623901 76.371399 29.721893 77.045403 29.0439 M 79.544403 107.999908 L 176.455399 107.999908 L 176.457397 107.999908 C 180.625397 107.999908 184.001404 104.604904 183.998398 100.416901 L 184.000397 31.583893 C 184.000397 27.397903 180.622406 24.001907 176.456406 23.999893 L 79.544403 24.001907 C 75.379402 24.001907 71.998398 27.397903 72.000397 31.5849 L 72.000397 100.416901 C 72.001396 104.604904 75.379402 107.999908 79.544403 107.999908"/>
    <path id="path1" fill="#ffffff" stroke="none" d="M 73.999496 20 C 75.1045 20.001007 75.999496 19.104004 75.999496 18.001007 C 75.999496 16.895996 75.1045 16 73.998497 16 C 72.8955 16.001007 71.999496 16.897003 71.999496 18 C 71.999496 19.104996 72.894501 20.001007 73.999496 20"/>
    <path id="path2" fill="#ffffff" stroke="none" d="M 73.999001 116 C 75.103996 115.998993 76 115.104004 76 114 C 76 112.895004 75.103996 112 74 112 C 72.894997 112 72 112.895996 72 114 C 72 115.104004 72.894997 116 73.999001 116"/>
    <path id="path3" fill="#ffffff" stroke="none" d="M 182 20 C 183.104996 20.001007 183.998993 19.104996 184 18 C 184 16.895996 183.104996 15.998993 182 16 C 180.895004 16.001007 180 16.895996 180 18 C 179.998993 19.104996 180.895004 20.001007 182 20"/>
    <path id="path4" fill="#ffffff" stroke="none" d="M 128.000504 20 C 129.104507 20 130.000504 19.104004 130.000504 18 C 130.000504 16.895996 129.1035 16 127.999496 16 C 126.8965 15.998993 125.999496 16.895996 126.000504 18 C 125.999496 19.104004 126.8955 20.001007 128.000504 20"/>
    <path id="path5" fill="#ffffff" stroke="none" d="M 182 112 C 180.895004 112 179.998993 112.895996 180 114.001007 C 179.998993 115.106003 180.893997 116.001007 182 116 C 183.104996 116.001007 184.001007 115.104996 184 114 C 184 112.895996 183.106003 112 182 112"/>
    <path id="path6" fill="#ffffff" stroke="none" d="M 128 152 C 125.792 152 124 150.208008 124 147.997009 C 124 145.791992 125.792 144 128 144 C 130.209 144 132 145.791992 132 148 C 131.998993 150.207001 130.207001 151.998993 128 152 M 136 148.001999 C 136 145.863007 135.167999 143.854004 133.656006 142.343994 C 132.145996 140.832001 130.136993 140 128 140 C 123.588997 140 120 143.587997 120 147.997009 C 120 152.410004 123.588997 156 128 156 C 132.410004 155.997009 135.996994 152.410004 136 148.001999"/>
    <path id="path7" fill="#ffffff" stroke="none" d="M 118.002403 234 L 118.000397 234 C 115.791397 234 114.001404 232.209 114.000397 229.998993 C 114.000397 227.791992 115.790398 226 117.998398 226 L 118.001404 226 C 120.209396 226 122.000397 227.791 122.000397 229.998993 C 122.001404 232.208008 120.210403 234 118.002403 234 M 118.001404 222 L 117.998398 222 C 113.587402 222 110.000397 225.589005 110.000397 229.998993 C 110.002403 234.412003 113.5914 238 118.000397 238 C 120.139397 238 122.148399 237.166992 123.659401 235.654999 C 125.170403 234.143997 126.001404 232.134003 126.000397 229.996994 C 126.000397 225.589005 122.4114 222 118.001404 222"/>
    <path id="path8" fill="#ffffff" stroke="none" d="M 138.002899 234 L 137.999893 234 C 135.791901 234 134.0009 232.209 133.999893 229.998993 C 133.999893 227.791992 135.789902 226 137.998901 226 L 138.0009 226 C 140.2099 226 141.999893 227.791 141.999893 229.998993 C 142.001907 232.208008 140.210907 234 138.002899 234 M 138.0009 222 L 137.998901 222 C 133.587906 222 129.999893 225.589005 129.999893 229.998993 C 130.002899 234.412003 133.590897 238 137.999893 238 C 140.139893 238 142.148895 237.166992 143.658905 235.654999 C 145.169907 234.143997 146.001907 232.134003 145.999893 229.996994 C 145.999893 225.589005 142.411896 222 138.0009 222"/>
    <path id="path9" fill="#ffffff" stroke="none" d="M 95.999496 196 C 84.974503 196 76.001503 187.027008 75.999496 175.998993 C 75.999496 164.972 84.971497 156 95.999496 156 C 107.028503 156.001007 115.999496 164.972992 115.999496 176 C 115.999496 187.027008 107.026497 196 95.999496 196 M 119.999496 176 C 119.999496 162.768005 109.233498 152.001999 95.999496 152 L 95.999496 152 C 82.766502 152 71.999496 162.765991 71.999496 175.998993 C 72.001503 189.233002 82.767502 200 95.999496 200 C 109.233498 200 119.999496 189.233002 119.999496 176"/>
    <path id="path10" fill="#ffffff" stroke="none" d="M 150 184 C 146.686996 184 144.001999 181.313004 144 178 C 144.001007 174.686996 146.686996 172.001007 150 172 C 153.315002 172 156.001007 174.686996 156 178 C 155.998001 181.313004 153.313004 183.998001 150 184 M 150 168 L 149.998993 168 L 149.998001 168 C 144.487 168.001999 140.001999 172.487 140 177.998001 C 140.001999 183.514999 144.488007 188 150 188 C 155.513 187.998001 159.998001 183.513 160 178.001999 C 160.001007 175.330002 158.960999 172.817993 157.072006 170.929001 C 155.184006 169.040009 152.671997 168 150 168"/>
    <path id="path11" fill="#ffffff" stroke="none" d="M 170 178 C 166.684998 178 164 175.313995 164 172 C 163.998001 168.686996 166.684998 166 170 166 C 173.311005 166.001007 175.996994 168.686996 176 172 C 175.996994 175.313995 173.311005 177.998001 170 178 M 170.001999 162 L 170.001007 162 L 170 162 C 167.328003 162 164.815994 163.040009 162.927994 164.929001 C 161.039001 166.817993 159.998993 169.330002 160 172.001999 C 160 177.514008 164.485992 182 170 182 C 175.509995 181.997009 179.994995 177.513 180 172.003998 C 179.994995 166.485992 175.509995 162.001999 170.001999 162"/>
    <path id="path12" fill="#ffffff" stroke="none" d="M 96 156 C 93.774002 156 87 156 87 161 L 87 167 L 81 167 C 76 167 76 173.774002 76 176 C 76 178.225998 76 185 81 185 L 87 185 L 87 191 C 87 196 93.774002 196 96 196 C 98.225998 196 105 196 105 191 L 105 185 L 111 185 C 116 185 116 178.225998 116 176 C 116 173.774002 116 167 111 167 L 105 167 L 105 161 C 105 156 98.225998 156 96 156 M 96 160 C 98.761002 160 101 160.446991 101 161 L 101 171 L 111 171 C 111.552002 171 112 173.238007 112 176 C 112 178.761993 111.552002 181 111 181 L 101 181 L 101 191 C 101 191.553009 98.761002 192 96 192 C 93.238998 192 91 191.553009 91 191 L 91 181 L 81 181 C 80.447998 181 80 178.761993 80 176 C 80 173.238007 80.447998 171 81 171 L 91 171 L 91 161 C 91 160.446991 93.238998 160 96 160"/>
    <path id="path13" fill="#ffffff" stroke="none" d="M 172 92 L 84 91.998001 L 84 36 L 172 36 Z M 176 32 L 80 32 L 80 95.996994 L 176 96 Z"/>
    <path id="path14" fill="#ffffff" stroke="none" d="M 191.998993 148 L 191.998993 152 L 188 152 L 188 156 L 191.998993 156 L 192 236.515991 C 192 240.649002 188.628998 244 184.468994 244 L 184.466995 244 L 71.536003 244 L 71.534004 244 C 67.374001 244 64 240.649002 64 236.515991 L 64 143.485992 C 64 139.354004 67.375 136 71.535004 136 L 72 136 L 128 136 L 132 136 L 172 136 L 176 136 L 184 136 L 184.468002 136 C 188.626999 136.001007 192 139.354004 191.998001 143.487 L 191.998001 144 L 188 144 L 188 148 Z M 65.928001 122.333008 C 66.582001 122.718994 67.276001 123.044006 68 123.304001 L 68 132.800003 L 68 135.389999 C 65.653 134.188995 64 131.333008 64 127.998993 C 64 125.777008 64.744003 123.781006 65.928001 122.333008 M 188 132.800003 L 188 123.304001 C 188.725006 123.044006 189.417999 122.718994 190.070999 122.333008 C 191.255997 123.781998 192.001007 125.777008 192 127.998993 C 191.998001 131.334991 190.347 134.190002 188 135.391998 Z M 176 124 L 184 124 L 184 132.800003 L 176 132.800003 Z M 132 124 L 172 124 L 172 132.800003 L 132 132.800003 Z M 72 124 L 128 124 L 128 132.800003 L 72 132.800003 Z M 64 20 C 64 15.582001 67.582001 12 72 12 L 184 12 C 188.417999 12 192 15.582001 192 20 L 192 112 C 192 116.417999 188.417999 120 184 120 L 176 120 L 172 120 L 132 120 L 128 120 L 72 120 C 67.582001 120 64 116.417999 64 112 Z M 196 20 C 196 13.382996 190.617004 8 184 8 L 72 8 C 65.383003 8 60.000008 13.382996 60.000008 20 L 60.000008 112 C 60.000008 114.966995 61.088005 117.679993 62.877998 119.777008 C 61.101997 121.927002 60.000008 124.813004 60.000008 127.998993 C 60.000008 131.102997 61.034004 133.936005 62.728004 136.067993 C 60.961998 138.139999 60.000008 140.738998 60.000008 143.485992 L 60.000008 236.515991 C 60.000008 242.847992 65.174004 248 71.534004 248 L 184.466995 248 C 190.826996 248 196 242.847992 196 236.515991 L 195.998993 156 L 196 156 L 196 152 L 195.998993 152 L 195.998993 148 L 196 148 L 196 144 L 195.998001 144 L 195.998001 143.487 C 196 140.73999 195.037003 138.139008 193.270004 136.06601 C 194.964005 133.93399 195.998001 131.104004 196 128.001007 C 196.001007 124.951996 195.011993 122.050003 193.214005 119.828003 C 193.192001 119.800995 193.167999 119.777008 193.145004 119.75 C 194.921997 117.658005 196 114.953995 196 112 Z"/>
</svg>
