<?xml version="1.0" encoding="UTF-8"?>
<!-- Generated by Pixelmator Pro 3.7.1 -->
<svg width="256" height="256" viewBox="0 0 256 256" xmlns="http://www.w3.org/2000/svg">
    <path id="Path" fill="#ffffff" stroke="none" d="M 123 212 L 133 212 C 136.313004 212 139 214.686996 139 218 C 139 221.313004 136.313004 224 133 224 L 123 224 C 119.686996 224 117 221.313004 117 218 C 117 214.686996 119.686996 212 123 212 M 133 208 L 123 208 L 80 208 L 80 136 L 176 136 L 176 208 Z M 242 216 C 242 222.626999 236.626999 228 230 228 L 224 228 L 224 224 L 200 224 L 200 228 L 133 228 C 138.514008 228 143 223.514008 143 218 C 143 215.747009 142.242004 213.673996 140.979996 212 L 176 212 L 180 212 L 180 208 L 180 136 L 180 132 L 176 132 L 80 132 L 76 132 L 76 136 L 76 208 L 76 212 L 80 212 L 115.018997 212 C 113.758003 213.673996 113 215.747009 113 218 C 113 223.514008 117.486 228 123 228 L 49.656998 228 L 46.829002 225.171997 L 44.242996 222.585999 C 42.574997 220.917999 40.358002 220 38 220 C 35.641998 220 33.425003 220.917999 31.757004 222.585999 L 29.170998 225.171997 L 26.343002 228 L 26 228 C 19.373001 228 14 222.626999 14 216 L 14 100 L 14 68 C 14 45.908997 31.908997 28 54 28 L 128 28 L 202 28 C 224.09201 28 242 45.908997 242 68 Z M 32 228 L 34.585999 225.414001 C 35.490997 224.509003 36.719002 224 38 224 C 39.280998 224 40.509003 224.509003 41.414001 225.414001 L 44 228 Z M 202 24 L 54 24 C 29.737999 24 10 43.738007 10 68 L 10 216 C 10 223.688004 15.452003 230.123001 22.691002 231.651001 L 22.343002 232 L 26 232 L 32 232 L 44 232 L 53.656998 232 L 230 232 C 238.821991 232 246 224.821991 246 216 L 246 68 C 246 43.738007 226.261993 24 202 24"/>
    <path id="path1" fill="#ffffff" stroke="none" d="M 188 124 L 68 124 L 68 52 L 188 52 Z M 68 48 L 64 48 L 64 52 L 64 124 L 64 128 L 68 128 L 188 128 L 192 128 L 192 124 L 192 52 L 192 48 L 188 48 Z"/>
    <path id="path2" fill="#ffffff" stroke="none" d="M 36 82 C 45.941002 82 54 90.059006 54 100 C 54 109.940994 45.941002 118 36 118 C 26.059 118 18 109.940994 18 100 C 18 90.059006 26.059 82 36 82 M 36 122 C 48.131001 122 58 112.130997 58 100 C 58 87.869003 48.131001 78 36 78 C 23.868999 78 14 87.869003 14 100 C 14 112.130997 23.868999 122 36 122"/>
    <path id="path3" fill="#ffffff" stroke="none" d="M 39 126 C 39.551998 126 40 126.447998 40 127 L 40 136 L 49 136 C 49.552002 136 50 136.446991 50 137 L 50 143 C 50 143.553009 49.552002 144 49 144 L 40 144 L 40 153 C 40 153.553009 39.551998 154 39 154 L 33 154 C 32.447998 154 32 153.553009 32 153 L 32 144 L 23 144 C 22.448 144 22 143.553009 22 143 L 22 137 C 22 136.446991 22.448 136 23 136 L 32 136 L 32 127 C 32 126.447998 32.447998 126 33 126 Z M 28 127 L 28 132 L 23 132 C 20.243 132 18 134.242996 18 137 L 18 143 C 18 145.757004 20.243 148 23 148 L 28 148 L 28 153 C 28 155.757004 30.243 158 33 158 L 39 158 C 41.757 158 44 155.757004 44 153 L 44 148 L 49 148 C 51.757 148 54 145.757004 54 143 L 54 137 C 54 134.242996 51.757 132 49 132 L 44 132 L 44 127 C 44 124.242996 41.757 122 39 122 L 36 122 L 33 122 C 30.243 122 28 124.242996 28 127"/>
    <path id="path4" fill="#ffffff" stroke="none" d="M 36 91 C 40.971001 91 45 95.029007 45 100 C 45 104.970993 40.971001 109 36 109 C 31.028999 109 27 104.970993 27 100 C 27 95.029007 31.028999 91 36 91 M 36 112 C 42.626999 112 48 106.626999 48 100 C 48 93.373001 42.626999 88 36 88 C 29.373001 88 24 93.373001 24 100 C 24 106.626999 29.373001 112 36 112"/>
    <path id="path5" fill="#ffffff" stroke="none" d="M 128 32 C 130.209 32 132 33.791 132 36 C 132 38.209 130.209 40 128 40 C 125.791 40 124 38.209 124 36 C 124 33.791 125.791 32 128 32 M 120 36 C 120 40.410995 123.588997 44 128 44 C 132.410995 44 136 40.410995 136 36 C 136 31.589005 132.410995 28 128 28 C 123.588997 28 120 31.589005 120 36"/>
    <path id="path6" fill="#ffffff" stroke="none" d="M 217 52 L 219 52 C 220.104004 52 221 52.895996 221 54 C 221 55.104004 220.104004 56 219 56 L 217 56 C 215.895996 56 215 55.104004 215 54 C 215 52.895996 215.895996 52 217 52 M 217 60 L 219 60 C 222.309006 60 225 57.309006 225 54 C 225 50.690994 222.309006 48 219 48 L 217 48 C 213.690994 48 211 50.690994 211 54 C 211 57.309006 213.690994 60 217 60"/>
    <path id="path7" fill="#ffffff" stroke="none" d="M 236 100 C 236 103.313004 233.313004 106 230 106 C 226.686996 106 224 103.313004 224 100 C 224 96.686996 226.686996 94 230 94 C 233.313004 94 236 96.686996 236 100 M 218 118 C 214.686996 118 212 115.313004 212 112 C 212 108.686996 214.686996 106 218 106 C 221.313004 106 224 108.686996 224 112 C 224 115.313004 221.313004 118 218 118 M 200 100 C 200 96.686996 202.686996 94 206 94 C 209.313004 94 212 96.686996 212 100 C 212 103.313004 209.313004 106 206 106 C 202.686996 106 200 103.313004 200 100 M 220.270004 97.729996 C 220.100006 98.460999 220 99.218002 220 100 C 220 100.781998 220.100006 101.539001 220.270004 102.270004 C 219.539001 102.098999 218.781006 102 218 102 C 217.218994 102 216.460999 102.098999 215.729996 102.270004 C 215.899994 101.539001 216 100.781998 216 100 C 216 99.218002 215.899994 98.460999 215.729996 97.729996 C 216.460999 97.901001 217.218994 98 218 98 C 218.781006 98 219.539001 97.901001 220.270004 97.729996 M 218 82 C 221.313004 82 224 84.686996 224 88 C 224 91.313004 221.313004 94 218 94 C 214.686996 94 212 91.313004 212 88 C 212 84.686996 214.686996 82 218 82 M 227.729996 90.270004 C 227.899994 89.539001 228 88.781998 228 88 C 228 82.485992 223.514008 78 218 78 C 212.485992 78 208 82.485992 208 88 C 208 88.781998 208.100006 89.539001 208.270004 90.270004 C 207.539001 90.098999 206.781006 90 206 90 C 200.485992 90 196 94.485992 196 100 C 196 105.514008 200.485992 110 206 110 C 206.781006 110 207.539001 109.901001 208.270004 109.729996 C 208.100006 110.460999 208 111.218002 208 112 C 208 117.514008 212.485992 122 218 122 C 223.514008 122 228 117.514008 228 112 C 228 111.218002 227.899994 110.460999 227.729996 109.729996 C 228.460999 109.901001 229.218994 110 230 110 C 235.514008 110 240 105.514008 240 100 C 240 94.485992 235.514008 90 230 90 C 229.218994 90 228.460999 90.098999 227.729996 90.270004"/>
    <path id="path8" fill="#ffffff" stroke="none" d="M 208 158 C 210.209 158 212 159.791 212 162 C 212 164.209 210.209 166 208 166 C 205.791 166 204 164.209 204 162 C 204 159.791 205.791 158 208 158 M 200 162 C 200 166.411011 203.589005 170 208 170 C 212.410995 170 216 166.411011 216 162 C 216 157.588989 212.410995 154 208 154 C 203.589005 154 200 157.588989 200 162"/>
    <path id="path9" fill="#ffffff" stroke="none" d="M 206 212 C 202.686996 212 200 209.313004 200 206 C 200 202.686996 202.686996 200 206 200 C 209.313004 200 212 202.686996 212 206 C 212 209.313004 209.313004 212 206 212 M 206 196 C 200.485992 196 196 200.485992 196 206 C 196 211.514008 200.485992 216 206 216 C 211.514008 216 216 211.514008 216 206 C 216 200.485992 211.514008 196 206 196"/>
    <path id="path10" fill="#ffffff" stroke="none" d="M 208 150 C 205.791 150 204 148.209 204 146 C 204 143.791 205.791 142 208 142 C 210.209 142 212 143.791 212 146 C 212 148.209 210.209 150 208 150 M 216 146 C 216 141.588989 212.410995 138 208 138 C 203.589005 138 200 141.588989 200 146 C 200 150.411011 203.589005 154 208 154 C 212.410995 154 216 150.411011 216 146"/>
</svg>
