<?xml version="1.0" encoding="UTF-8"?>
<!-- Generated by Pixelmator Pro 3.7.1 -->
<svg width="256" height="256" viewBox="0 0 256 256" xmlns="http://www.w3.org/2000/svg">
    <path id="Path" fill="#ffffff" stroke="none" d="M 52 43.542999 C 52 41.589005 53.547001 40 55.450001 40 L 200.550995 40 C 202.451996 40 204 41.589005 204 43.542999 L 204 160.457001 C 204 162.410004 202.451996 164 200.550995 164 L 55.450001 164 C 53.547001 164 52 162.410004 52 160.457001 Z M 55.450001 168 L 200.550995 168 C 204.664993 168 208 164.623001 208 160.457001 L 208 43.542999 C 208 39.376999 204.664993 36 200.550995 36 L 55.450001 36 C 51.334999 36 48 39.376999 48 43.542999 L 48 160.457001 C 48 164.623001 51.334999 168 55.450001 168"/>
    <path id="path1" fill="#ffffff" stroke="none" d="M 128 200 C 127.408997 200 126.819 199.742996 126.449997 199.229004 L 120.316002 190.688004 C 119.490997 189.539001 120.377998 188 121.865997 188 L 134.134003 188 C 135.621994 188 136.509995 189.539001 135.684006 190.688004 L 129.550003 199.229004 C 129.182007 199.742996 128.591003 200 128 200 M 132.798996 201.563004 L 138.932999 193.020996 C 140.173996 191.294006 140.343994 189.048996 139.376007 187.162003 C 138.375 185.212006 136.367004 184 134.134003 184 L 121.865997 184 C 119.633003 184 117.625 185.212006 116.624001 187.162003 C 115.655998 189.048996 115.826004 191.294006 117.067001 193.020996 L 123.201004 201.563004 C 124.296997 203.089005 126.091003 204 128 204 C 129.908997 204 131.703003 203.089005 132.798996 201.563004"/>
    <path id="path2" fill="#ffffff" stroke="none" d="M 244 222.222702 L 244 225.777695 C 244 233.632706 237.298996 239.999695 229.031998 239.999695 L 26.968002 239.999695 C 18.701004 239.999695 12 233.632706 12 225.777695 L 12 222.222702 L 12 215.111694 C 12 214.893707 12.028 214.683701 12.067001 214.4767 C 12.089996 214.355698 12.128998 214.2397 12.164993 214.121704 C 12.188995 214.042694 12.212006 213.962708 12.242004 213.885696 C 12.287994 213.768707 12.339996 213.655701 12.397995 213.544708 C 12.431 213.481705 12.468002 213.419708 12.503998 213.358704 C 12.574997 213.242706 12.645996 213.126709 12.729004 213.019699 C 12.738007 213.00769 12.75 212.995697 12.759995 212.984695 C 13.080002 212.581696 13.487 212.247696 13.955994 212.0047 C 13.975006 211.994705 13.992996 211.985703 14.011993 211.9767 C 14.169006 211.898697 14.332001 211.827698 14.501007 211.771698 C 14.891998 211.640701 15.304993 211.555695 15.742004 211.555695 L 17.162003 211.555695 C 19.794006 209.368698 23.197006 207.999695 26.968002 207.999695 L 39.679993 207.999695 L 216.320007 207.999695 L 229.031998 207.999695 C 232.802994 207.999695 236.205994 209.368698 238.837997 211.555695 L 240.257996 211.555695 C 240.695007 211.555695 241.108002 211.640701 241.498001 211.771698 C 241.667999 211.827698 241.830994 211.898697 241.988007 211.9767 C 242.007004 211.985703 242.024994 211.994705 242.044006 212.0047 C 242.513 212.247696 242.919998 212.581696 243.240005 212.984695 C 243.25 212.995697 243.261993 213.00769 243.270996 213.019699 C 243.354004 213.126709 243.425995 213.242706 243.494995 213.358704 C 243.531998 213.419708 243.567993 213.481705 243.602005 213.544708 C 243.658997 213.655701 243.712006 213.768707 243.757996 213.885696 C 243.787994 213.962708 243.811005 214.042694 243.835007 214.121704 C 243.871002 214.2397 243.908997 214.355698 243.932999 214.4767 C 243.972 214.683701 244 214.893707 244 215.111694 Z M 216 203.999695 L 128 203.999695 L 40 203.999695 L 40 23.999695 L 216 23.999695 Z M 12 193.154694 L 12 31.076706 C 12 22.749695 18.701004 15.999695 26.968002 15.999695 L 229.031998 15.999695 C 237.298996 15.999695 244 22.749695 244 31.076706 L 244 193.154694 L 244 208.230698 C 244 208.318695 243.985001 208.402695 243.979004 208.4897 C 242.873993 207.895691 241.606003 207.555695 240.257996 207.555695 L 240.188995 207.555695 C 236.929993 205.253693 233.022003 203.999695 229.031998 203.999695 L 220 203.999695 L 220 23.615707 C 220 21.618698 218.352997 19.999695 216.320007 19.999695 L 39.679993 19.999695 C 37.647003 19.999695 36 21.618698 36 23.615707 L 36 203.999695 L 26.968002 203.999695 C 22.977997 203.999695 19.070007 205.253693 15.809998 207.555695 L 15.742004 207.555695 C 14.393997 207.555695 13.126007 207.895691 12.020996 208.4897 C 12.014999 208.402695 12 208.318695 12 208.230698 Z M 229.031998 11.999695 L 26.968002 11.999695 C 16.509003 11.999695 8 20.557709 8 31.076706 L 8 193.154694 L 8 208.230698 C 8 209.483704 8.311996 210.659698 8.839005 211.707703 C 8.307007 212.732697 8 213.886703 8 215.111694 L 8 222.222702 L 8 225.777695 C 8 235.825699 16.509003 243.999695 26.968002 243.999695 L 229.031998 243.999695 C 239.490997 243.999695 248 235.825699 248 225.777695 L 248 222.222702 L 248 215.111694 C 248 213.886703 247.692993 212.732697 247.160995 211.707703 C 247.688004 210.659698 248 209.483704 248 208.230698 L 248 193.154694 L 248 31.076706 C 248 20.557709 239.490997 11.999695 229.031998 11.999695"/>
</svg>
