<?xml version="1.0" encoding="UTF-8"?>
<!-- Generated by Pixelmator Pro 3.7.1 -->
<svg width="256" height="256" viewBox="0 0 256 256" xmlns="http://www.w3.org/2000/svg">
    <path id="Path" fill="#ffffff" stroke="none" d="M 240 180 C 240 182.205994 238.205994 184 236 184 L 20 184 C 17.794006 184 16 182.205994 16 180 L 16 76 C 16 73.794006 17.794006 72 20 72 L 236 72 C 238.205994 72 240 73.794006 240 76 Z M 236 68 L 20 68 C 15.582001 68 12 71.582001 12 76 L 12 180 C 12 184.417999 15.582001 188 20 188 L 236 188 C 240.417999 188 244 184.417999 244 180 L 244 76 C 244 71.582001 240.417999 68 236 68"/>
    <path id="path1" fill="#ffffff" stroke="none" d="M 224 130 C 224 144.359009 212.358994 156 198 156 L 58 156 C 43.641006 156 32 144.359009 32 130 C 32 115.641006 43.641006 104 58 104 L 198 104 C 212.358994 104 224 115.641006 224 130 M 198 100 L 58 100 C 41.457993 100 28 113.458008 28 130 C 28 146.541992 41.457993 160 58 160 L 198 160 C 214.541992 160 228 146.541992 228 130 C 228 113.458008 214.541992 100 198 100"/>
    <path id="path2" fill="#ffffff" stroke="none" d="M 148 176 L 108 176 L 108 168 L 148 168 Z M 108 164 L 104 164 L 104 168 L 104 176 L 104 180 L 108 180 L 148 180 L 152 180 L 152 176 L 152 168 L 152 164 L 148 164 Z"/>
    <path id="path3" fill="#ffffff" stroke="none" d="M 69 130.430695 C 69 131.849701 67.849998 132.999695 66.431 132.999695 L 49.569 132.999695 C 48.150002 132.999695 47 131.849701 47 130.430695 L 47 129.569702 C 47 128.150696 48.150002 126.999695 49.569 126.999695 L 66.431 126.999695 C 67.849998 126.999695 69 128.150696 69 129.569702 Z M 66 123.999695 L 50 123.999695 C 46.687 123.999695 44 126.686707 44 129.999695 C 44 133.31369 46.687 135.999695 50 135.999695 L 66 135.999695 C 69.313004 135.999695 72 133.31369 72 129.999695 C 72 126.686707 69.313004 123.999695 66 123.999695"/>
    <path id="path4" fill="#ffffff" stroke="none" d="M 92 132 C 92 134.209 90.209 136 88 136 C 85.791 136 84 134.209 84 132 L 84 128 C 84 125.791 85.791 124 88 124 C 90.209 124 92 125.791 92 128 Z M 88 120 C 83.588997 120 80 123.589005 80 128 L 80 132 C 80 136.411011 83.588997 140 88 140 C 92.411003 140 96 136.411011 96 132 L 96 130 L 96 128 C 96 123.589005 92.411003 120 88 120"/>
    <path id="path5" fill="#ffffff" stroke="none" d="M 102 132 C 100.897003 132 100 131.102997 100 130 C 100 128.897003 100.897003 128 102 128 C 103.102997 128 104 128.897003 104 130 C 104 131.102997 103.102997 132 102 132 M 102 124 C 98.686996 124 96 126.686996 96 130 C 96 133.313004 98.686996 136 102 136 C 105.313004 136 108 133.313004 108 130 C 108 126.686996 105.313004 124 102 124"/>
    <path id="path6" fill="#ffffff" stroke="none" d="M 144 133 L 136 133 L 136 132 L 136 128 L 136 127 L 144 127 Z M 136 123 L 132 123 L 132 127 L 132 128 L 116 128 L 116 132 L 132 132 L 132 133 L 132 137 L 136 137 L 144 137 L 148 137 L 148 133 L 148 127 L 148 123 L 144 123 Z"/>
    <path id="path7" fill="#ffffff" stroke="none" d="M 166 133 L 158 133 L 158 127 L 166 127 Z M 170 127 L 170 123 L 166 123 L 158 123 L 154 123 L 154 127 L 154 128 L 152 128 L 152 132 L 154 132 L 154 133 L 154 137 L 158 137 L 166 137 L 170 137 L 170 133 L 170 132 L 172 132 L 172 128 L 170 128 Z"/>
    <path id="path8" fill="#ffffff" stroke="none" d="M 198 144 C 190.279999 144 184 137.720001 184 130 C 184 122.279999 190.279999 116 198 116 C 205.720001 116 212 122.279999 212 130 C 212 137.720001 205.720001 144 198 144 M 198 112 C 188.059006 112 180 120.059006 180 130 C 180 139.94101 188.059006 148 198 148 C 207.940994 148 216 139.94101 216 130 C 216 120.059006 207.940994 112 198 112"/>
    <path id="path9" fill="#ffffff" stroke="none" d="M 198 136 C 194.690994 136 192 133.30899 192 130 C 192 126.690994 194.690994 124 198 124 C 201.309006 124 204 126.690994 204 130 C 204 133.30899 201.309006 136 198 136 M 198 120 C 192.477997 120 188 124.477005 188 130 C 188 135.522003 192.477997 140 198 140 C 203.522003 140 208 135.522003 208 130 C 208 124.477005 203.522003 120 198 120"/>
</svg>
