<?xml version="1.0" encoding="UTF-8"?>
<!-- Generated by Pixelmator Pro 3.7.1 -->
<svg width="256" height="256" viewBox="0 0 256 256" xmlns="http://www.w3.org/2000/svg">
    <path id="Path" fill="#ffffff" stroke="none" d="M 236 238 C 236 239.104004 235.104004 240 234 240 L 232 240 L 232 232 L 236 232 Z M 228 228 L 228 242 C 228 243.104004 227.104004 244 226 244 L 44.544998 244 C 31.046005 244 20.095993 233.270004 20.003998 220 L 24 220 L 24 208 L 20 208 L 20 21.667007 C 20 16.328003 24.395996 12 29.817993 12 L 226.182007 12 C 231.604004 12 236 16.328003 236 21.667007 L 236 228 Z M 226.182007 8 L 29.817993 8 C 22.199005 8 16 14.130997 16 21.667007 L 16 219.833008 C 16 235.363998 28.806 248 44.544998 248 L 226 248 C 229.309006 248 232 245.309006 232 242 L 232 244 L 234 244 C 237.309006 244 240 241.309006 240 238 L 240 232 L 240 228 L 240 21.667007 C 240 14.130997 233.800995 8 226.182007 8"/>
    <path id="path1" fill="#ffffff" stroke="none" d="M 220 59.189896 L 220 59.218903 L 159.511002 62.427902 L 153.707001 55.999893 L 103.856003 55.999893 L 97.233002 62.415894 L 40 56.002899 L 40 55.966904 L 40 32.779907 C 40 30.139908 42.130005 27.999893 44.757996 27.999893 L 215.242004 27.999893 C 217.869995 27.999893 220 30.139908 220 32.779907 Z M 220 63.999893 L 220 195.999893 L 40 195.999893 L 40 63.999893 L 40 60.027893 L 96.788002 66.391907 L 98.662003 66.601898 L 100.015999 65.288895 L 105.475998 59.999893 L 151.929993 59.999893 L 156.541992 65.107895 L 157.819 66.522903 L 159.722992 66.421906 L 220 63.223907 Z M 220 215.219894 C 220 217.858902 217.869995 219.999893 215.242004 219.999893 L 153.210999 219.999893 L 140 219.999893 L 116 219.999893 L 102.789001 219.999893 L 52 219.999893 L 40 203.999893 L 40 199.999893 L 220 199.999893 Z M 128 231.999893 L 116 223.999893 L 140 223.999893 Z M 215.242004 23.999908 L 44.757996 23.999908 C 39.929001 23.999908 36 27.938904 36 32.779907 L 36 56.002899 L 36 59.579895 L 36 195.999893 L 36 199.999893 L 36 203.999893 L 36 205.332901 L 36.800003 206.399902 L 48.800003 222.399902 L 50 223.999893 L 52 223.999893 L 108.789001 223.999893 L 113.780998 227.327896 L 125.780998 235.327896 L 128 236.807892 L 130.218994 235.327896 L 142.218994 227.327896 L 147.210999 223.999893 L 215.242004 223.999893 C 220.070999 223.999893 224 220.06189 224 215.219894 L 224 199.999893 L 224 195.999893 L 224 63.011902 L 224 59.218903 L 224 32.779907 C 224 27.938904 220.070999 23.999908 215.242004 23.999908"/>
    <path id="path2" fill="#ffffff" stroke="none" d="M 172 160 L 164 160 L 164 168 L 156 168 L 156 160 L 148 160 L 148 152 L 156 152 L 156 144 L 164 144 L 164 152 L 172 152 Z M 152 144.654999 L 152 148 L 149.214005 148 Z M 124.015999 172 L 84 124 L 108 124 L 108 76 C 108 71.582001 111.582001 68 116 68 L 132 68 C 136.417999 68 140 71.582001 140 76 L 140 124 L 164 124 L 144.007996 148 L 144 148 L 144 148.01001 Z M 164 184 C 164 186.209 162.209 188 160 188 L 88 188 C 85.791 188 84 186.209 84 184 C 84 181.791 85.791 180 88 180 L 160 180 C 162.209 180 164 181.791 164 184 M 168 148 L 168 144 L 168 140 L 164 140 L 156 140 L 155.878006 140 L 167.072998 126.559998 L 172.537994 120 L 164 120 L 144 120 L 144 76 C 144 69.382996 138.617004 64 132 64 L 116 64 C 109.382996 64 104 69.382996 104 76 L 104 120 L 84 120 L 75.458 120 L 80.928001 126.561996 L 120.943001 174.561996 L 122.143005 176 L 88 176 C 83.588997 176 80 179.589005 80 184 C 80 188.410995 83.588997 192 88 192 L 160 192 C 164.410995 192 168 188.410995 168 184 C 168 179.589005 164.410995 176 160 176 L 125.889999 176 L 127.089005 174.561005 L 144 154.26001 L 144 160 L 144 164 L 148 164 L 152 164 L 152 168 L 152 172 L 156 172 L 164 172 L 168 172 L 168 168 L 168 164 L 172 164 L 176 164 L 176 160 L 176 152 L 176 148 L 172 148 Z"/>
</svg>
