<?xml version="1.0" encoding="UTF-8"?>
<!-- Generated by Pixelmator Pro 3.7.1 -->
<svg width="256" height="256" viewBox="0 0 256 256" xmlns="http://www.w3.org/2000/svg">
    <path id="Path" fill="#ffffff" stroke="none" d="M 208 224 C 208 235.046005 199.046005 244 188 244 L 68 244 C 56.953995 244 48 235.046005 48 224 L 48 32 C 48 20.953995 56.953995 12 68 12 L 188 12 C 199.046005 12 208 20.953995 208 32 Z M 188 8 L 68 8 C 54.766998 8 44 18.766998 44 32 L 44 224 C 44 237.233002 54.766998 248 68 248 L 188 248 C 201.233002 248 212 237.233002 212 224 L 212 32 C 212 18.766998 201.233002 8 188 8"/>
    <path id="path1" fill="#ffffff" stroke="none" d="M 64 36 L 192 36 L 192 72 L 64 72 Z M 192 184 L 64 184 L 64 76 L 192 76 Z M 192 208 L 64 208 L 64 188 L 192 188 Z M 192 32 L 64 32 C 61.791 32 60 33.791 60 36 L 60 72 L 60 76 L 60 184 L 60 188 L 60 208 C 60 210.209 61.791 212 64 212 L 192 212 C 194.209 212 196 210.209 196 208 L 196 188 L 196 184 L 196 76 L 196 72 L 196 36 C 196 33.791 194.209 32 192 32"/>
    <path id="path2" fill="#ffffff" stroke="none" d="M 128 236 L 116 224 L 140 224 Z M 116 220 L 106.343002 220 L 113.170998 226.828003 L 125.170998 238.828003 L 128 241.656998 L 130.828003 238.828003 L 142.828003 226.828003 L 149.656998 220 L 140 220 Z"/>
    <path id="path3" fill="#ffffff" stroke="none" d="M 106 28 L 150 28 C 151.104004 28 152 27.104004 152 26 C 152 24.895996 151.104004 24 150 24 L 106 24 C 104.896004 24 104 24.895996 104 26 C 104 27.104004 104.896004 28 106 28"/>
</svg>
