<?xml version="1.0" encoding="UTF-8"?>
<!-- Generated by Pixelmator Pro 3.7.1 -->
<svg width="256" height="256" viewBox="0 0 256 256" xmlns="http://www.w3.org/2000/svg">
    <path id="Path" fill="#ffffff" stroke="none" d="M 168 120 L 232 120 L 232 116 L 168 116 Z"/>
    <path id="path1" fill="#ffffff" stroke="none" d="M 204 140 L 196 140 L 196 136 L 204 136 Z M 188 140 L 180 140 L 180 136 L 188 136 Z M 208 136 L 208 132 L 204 132 L 196 132 L 192 132 L 188 132 L 180 132 L 176 132 L 176 136 L 176 140 L 176 144 L 178 144 L 180 144 L 188 144 L 192 144 L 196 144 L 198 144 L 204 144 L 208 144 L 208 140 Z"/>
    <path id="path2" fill="#ffffff" stroke="none" d="M 136 164 L 136 160 L 136 156.207001 L 148.789993 145.548004 L 152.757004 166.701996 C 151.399994 168.929993 149.798996 170.994995 148 172.876999 L 148 172 L 144 172 L 131.755005 172 L 132.897003 164 Z M 154.201996 141.037994 L 155.410004 159.147003 L 152.311005 142.61499 Z M 144 176.479004 C 140.115997 179.481995 135.587997 181.727997 130.606003 182.949005 L 130.242004 182.585999 L 131.184006 176 L 144 176 Z M 132 154.597992 L 132 154.597992 C 131.707001 155.041 131.388 155.462997 131.039993 155.862 C 131.009995 155.89801 130.977005 155.932999 130.945007 155.968994 C 130.600998 156.354004 130.238998 156.725998 129.848007 157.063995 L 128.348999 167.55899 L 127.713997 172 L 126 184 L 129.317001 187.317001 C 132.862 186.658997 136.242996 185.528992 139.395996 184 L 139.382004 184 C 140.983994 183.223999 142.524994 182.343002 144 181.367004 L 144 181.373993 C 145.395996 180.451004 146.731995 179.444 148 178.358002 L 148 178.348999 C 149.061996 177.438004 150.074997 176.475006 151.037994 175.462006 C 151.048996 175.451004 151.059006 175.438995 151.069 175.429001 C 152.031998 174.412994 152.942001 173.347992 153.794006 172.234009 C 156.225998 169.054001 158.190002 165.498993 159.587006 161.671997 L 159.584 161.619003 C 161.134003 157.36499 162 152.785004 162 148 C 162 143.820007 161.354004 139.790009 160.158005 136 L 157.876007 136 L 154 136 L 132.362 154.031006 C 132.248993 154.225998 132.123001 154.411011 132 154.597992"/>
    <path id="path3" fill="#ffffff" stroke="none" d="M 244 176 C 244 178.209 242.209 180 240 180 L 162.942001 180 C 165.79599 176.356995 168.166992 172.322998 169.979004 168 L 170 168 L 230 168 L 240 168 L 240 124 L 236 108 L 236 98 C 236 96.895996 235.104004 96 234 96 L 192 96 L 192 88 L 240 88 C 242.209 88 244 89.791 244 92 Z M 155.662003 182.207001 C 155.653 182.216003 155.643997 182.225006 155.634003 182.233002 C 154.960999 182.894989 154.265991 183.531998 153.556 184.153 C 153.45401 184.240997 153.352997 184.330002 153.25 184.417999 C 152.533997 185.031998 151.804001 185.630005 151.052002 186.203003 C 151.041 186.210999 151.031006 186.218994 151.020996 186.22699 C 146.126999 189.947998 140.498001 192.748993 134.389008 194.376999 C 134.365997 194.382996 134.343994 194.390991 134.320999 194.395996 C 133.589996 194.589996 132.850998 194.765991 132.105011 194.925003 C 132.044006 194.938004 131.983002 194.95401 131.921997 194.968002 C 131.223999 195.113998 130.518005 195.242004 129.80899 195.356995 C 129.699005 195.376007 129.59201 195.39801 129.481995 195.416 C 128.819 195.520004 128.149002 195.604004 127.476997 195.679993 C 127.320999 195.696991 127.167 195.722992 127.011002 195.738998 C 126.362 195.807007 125.706001 195.852997 125.049004 195.893997 C 124.871002 195.903992 124.694 195.925003 124.514999 195.934998 C 123.681999 195.977997 122.844002 196 122 196 C 121.155998 196 120.318001 195.977997 119.485001 195.934998 C 119.306 195.925003 119.128998 195.903992 118.950996 195.893997 C 118.293999 195.852997 117.638 195.807007 116.988998 195.738998 C 116.833 195.722992 116.679001 195.696991 116.523003 195.679993 C 115.850998 195.604004 115.181 195.520004 114.518005 195.416 C 114.408005 195.39801 114.300003 195.376007 114.190994 195.356995 C 113.481995 195.242004 112.776001 195.113998 112.078003 194.968002 C 112.016006 194.95401 111.955002 194.938004 111.893005 194.925003 C 111.147995 194.765991 110.410004 194.589996 109.679001 194.395996 C 109.656006 194.390991 109.632996 194.382996 109.608994 194.376999 C 101.307007 192.164001 93.888 187.787994 88 181.880005 L 88 181.878998 C 86.628998 180.502991 85.350006 179.037003 84.151993 177.503998 C 84.065002 177.391998 83.975998 177.281998 83.889999 177.169006 C 83.585999 176.77301 83.292007 176.371002 83 175.96701 C 82.919998 175.854004 82.841003 175.742996 82.761993 175.630997 C 79.177994 170.550995 76.557999 164.748001 75.160995 158.479004 C 75.136002 158.367996 75.108002 158.257996 75.084 158.145996 C 74.983002 157.675003 74.893005 157.197998 74.804993 156.721008 C 74.755005 156.449997 74.705002 156.179993 74.660004 155.906998 C 74.591995 155.497009 74.529999 155.085999 74.472 154.673996 C 74.421997 154.313004 74.376999 153.951004 74.334 153.589005 C 74.292999 153.231003 74.251007 152.875 74.218002 152.515991 C 74.175003 152.057007 74.143005 151.596008 74.113007 151.132996 C 74.095001 150.850998 74.070999 150.569 74.057999 150.285995 C 74.022003 149.528 74 148.766998 74 148 C 74 147.182007 74.020996 146.367004 74.061996 145.55899 C 74.080002 145.19101 74.117004 144.828003 74.143997 144.462997 C 74.175003 144.027008 74.199005 143.589005 74.242996 143.156006 C 74.292007 142.666 74.360992 142.182999 74.425003 141.696991 C 74.464005 141.397003 74.494995 141.095001 74.539993 140.796997 C 74.625 140.225998 74.731003 139.660995 74.837997 139.097 C 74.876007 138.891998 74.906998 138.684998 74.947998 138.479996 C 75.078003 137.833008 75.227997 137.192993 75.384003 136.556 C 75.412003 136.442001 75.434006 136.326996 75.462997 136.214005 C 75.643005 135.5 75.841995 134.794006 76.054001 134.093994 C 76.063004 134.061996 76.070999 134.028 76.080994 133.997009 C 79.647003 122.290009 87.569 112.488998 97.955994 106.462997 L 97.957001 106.462006 C 100.574005 104.944 103.345001 103.666992 106.246002 102.658997 C 106.341003 102.625 106.438004 102.593994 106.533005 102.561996 C 107.382996 102.272003 108.242996 102.005997 109.113007 101.764008 C 109.231995 101.731003 109.350998 101.695007 109.470993 101.662994 C 111.354996 101.153992 113.283997 100.759003 115.251999 100.481003 C 115.503006 100.445999 115.755005 100.416992 116.007004 100.386002 C 116.739998 100.294006 117.477997 100.220001 118.220001 100.162003 C 118.496002 100.140991 118.771004 100.115997 119.046997 100.098999 C 120.025002 100.040009 121.008003 100 122 100 C 122.992996 100 123.974998 100.040009 124.953003 100.098999 C 125.228996 100.115997 125.503998 100.140991 125.779999 100.162003 C 126.522003 100.220001 127.260002 100.294006 127.992996 100.386002 C 128.244995 100.416992 128.497009 100.445999 128.748001 100.481003 C 130.71701 100.759003 132.645996 101.153992 134.528992 101.662994 C 134.649002 101.695007 134.768005 101.731003 134.886993 101.764008 C 135.757004 102.005997 136.617004 102.272003 137.46701 102.561996 C 137.561996 102.593994 137.658997 102.625 137.755005 102.658997 C 156.522003 109.179993 170 127.011002 170 148 C 170 153.567993 169.041 158.910995 167.296997 163.884003 C 167.283997 163.921997 167.27301 163.962006 167.26001 164 L 167.257996 164 C 166.774994 165.363007 166.231003 166.695999 165.632996 168 L 165.641998 168 C 165.613007 168.061996 165.57901 168.119995 165.550995 168.182007 C 164.729004 169.953003 163.804001 171.666992 162.778992 173.313004 C 162.674011 173.483002 162.561996 173.649994 162.455002 173.819 C 162.046997 174.457001 161.626007 175.083008 161.188995 175.699005 C 161.046997 175.901001 160.904999 176.104004 160.76001 176.304001 C 159.221008 178.40799 157.516998 180.382996 155.662003 182.207001 M 160 183.627991 L 160 184 C 160 186.209 158.209 188 156 188 L 155.186005 188 C 156.886993 186.585999 158.490997 185.061005 160 183.442993 Z M 16 180 C 13.791 180 12 178.209 12 176 L 12 92 C 12 89.791 13.791 88 16 88 L 52 88 L 52 96 L 22 96 C 20.895996 96 20 96.895996 20 98 L 20 108 L 16 168 L 74.020996 168 C 75.832993 172.322998 78.205002 176.356995 81.057999 180 Z M 44 120 L 56 120 L 56 124 L 44 124 Z M 52 136 L 48 136 L 44 128 L 56 128 Z M 52 156 L 52 140 L 54.472 140 L 55.578003 137.789001 L 56 136.944 L 56 164 L 44 164 L 44 136.944 L 44.421997 137.789001 L 45.528 140 L 48 140 L 48 156 Z M 88 100 L 88 107.867004 L 87.938995 108.772003 C 76.964005 118.311005 70 132.350998 70 148 C 70 153.583008 70.897003 158.957001 72.535995 164 L 60 164 L 60 128.944 L 60 128 L 60 124 L 64 124 L 64 120 L 60 120 L 60 116 L 40 116 L 40 120 L 36 120 L 36 124 L 40 124 L 40 128 L 40 128.944 L 40 164 L 20.274994 164 L 23.990997 108.265991 L 24 108.132996 L 24 108 L 24 100 Z M 56 92 L 80 92 L 84 92 L 84 88 L 84 80 L 88.195007 80 L 91.623993 96 L 56 96 Z M 56 80 L 80 80 L 80 88 L 56 88 Z M 64 72 L 76 72 L 80 76 L 60 76 Z M 84 74.343002 L 84 64 C 84 63.384003 84.149994 62.807999 84.399002 62.287003 L 87.337997 76 L 84 76 Z M 93.457993 104.563995 C 92.962006 104.891998 92.485001 105.247009 92 105.591003 L 92 97.757004 Z M 152 97.757004 L 152 105.591003 C 151.515991 105.247009 151.037994 104.891998 150.541 104.563995 Z M 156 60 L 146.919998 102.373993 C 139.515991 98.313004 131.02301 96 122 96 C 112.977005 96 104.483994 98.313004 97.080002 102.373993 L 88 60 Z M 160 80 L 160 88 L 160 92 L 164 92 L 188 92 L 188 96 L 152.376999 96 L 155.804993 80 Z M 159.600998 62.287003 C 159.850006 62.807999 160 63.384003 160 64 L 160 74.343002 L 160 76 L 156.662003 76 Z M 164 80 L 188 80 L 188 88 L 164 88 Z M 168 72 L 180 72 L 184 76 L 164 76 Z M 216 140 C 216 137.791 217.791 136 220 136 C 222.209 136 224 137.791 224 140 C 224 142.209 222.209 144 220 144 C 217.791 144 216 142.209 216 140 M 218 148 C 219.104004 148 220 148.895996 220 150 L 220 154 C 220 155.104004 219.104004 156 218 156 C 216.895996 156 216 155.104004 216 154 L 216 150 C 216 148.895996 216.895996 148 218 148 M 206 154 L 206 150 C 206 148.895996 206.895996 148 208 148 C 209.104004 148 210 148.895996 210 150 L 210 154 C 210 155.104004 209.104004 156 208 156 C 206.895996 156 206 155.104004 206 154 M 196 154 L 196 150 C 196 148.895996 196.895996 148 198 148 C 199.104004 148 200 148.895996 200 150 L 200 154 C 200 155.104004 199.104004 156 198 156 C 196.895996 156 196 155.104004 196 154 M 186 154 L 186 150 C 186 148.895996 186.895996 148 188 148 C 189.104004 148 190 148.895996 190 150 L 190 154 C 190 155.104004 189.104004 156 188 156 C 186.895996 156 186 155.104004 186 154 M 176 154 L 176 150 C 176 148.895996 176.895996 148 178 148 C 179.104004 148 180 148.895996 180 150 L 180 154 C 180 155.104004 179.104004 156 178 156 C 176.895996 156 176 155.104004 176 154 M 178 160 C 180.085999 160 181.925003 158.929001 183 157.309998 C 184.074997 158.929001 185.914001 160 188 160 C 190.085999 160 191.925003 158.929001 193 157.309998 C 194.074997 158.929001 195.914001 160 198 160 C 200.085999 160 201.925003 158.929001 203 157.309998 C 204.074997 158.929001 205.914001 160 208 160 C 210.085999 160 211.925003 158.929001 213 157.309998 C 214.074997 158.929001 215.914001 160 218 160 C 221.309006 160 224 157.30899 224 154 L 224 150 C 224 149.014008 223.757004 148.084991 223.333008 147.264008 C 226.083008 145.996002 228 143.221008 228 140 C 228 135.589005 224.410995 132 220 132 C 215.589005 132 212 135.589005 212 140 C 212 142.091995 212.813004 143.992996 214.132996 145.419998 C 213.697998 145.787003 213.315994 146.214996 213 146.690002 C 211.925003 145.070999 210.085999 144 208 144 C 205.914001 144 204.074997 145.070999 203 146.690002 C 201.925003 145.070999 200.085999 144 198 144 C 195.914001 144 194.074997 145.070999 193 146.690002 C 191.925003 145.070999 190.085999 144 188 144 C 185.914001 144 184.074997 145.070999 183 146.690002 C 181.925003 145.070999 180.085999 144 178 144 C 176.425995 144 174.994995 144.613998 173.923004 145.610001 C 173.737 141.528 173.07901 137.571991 172 133.787003 L 172 128 L 228 128 L 228 140 L 228 164 L 172 164 L 172 162.244003 C 172.445999 160.684998 172.821991 159.096008 173.122009 157.479996 C 174.210999 159.002991 175.988998 160 178 160 M 232 100 L 232 108 L 168 108 L 168 112 L 232 112 L 232 108.492004 L 232.119003 108.970001 L 236 124.492004 L 236 164 L 232 164 L 232 126 C 232 124.895996 231.104004 124 230 124 L 170 124 C 169.380005 124 168.833008 124.287994 168.46701 124.729996 C 165.395996 118.628998 161.169006 113.212006 156.061005 108.772003 L 156 107.867004 L 156 100 Z M 240 84 L 192 84 L 192 80 C 192 77.791 190.209 76 188 76 L 188 74.343002 L 186.828003 73.17099 L 182.828003 69.17099 L 181.656998 68 L 180 68 L 168 68 L 166.343002 68 L 165.171997 69.17099 L 164 70.343002 L 164 64 C 164 59.59201 160.416992 56.005997 156.01001 56 C 156.009003 56 156.007004 56 156.005005 56 L 156 56 L 88 56 C 83.589005 56 80 59.588989 80 64 L 80 70.343002 L 78.828995 69.17099 L 77.656998 68 L 76 68 L 64 68 L 62.343002 68 L 61.171005 69.17099 L 57.171005 73.17099 L 56 74.343002 L 56 76 C 53.791 76 52 77.791 52 80 L 52 84 L 16 84 C 11.589005 84 8 87.588989 8 92 L 8 176 C 8 180.411011 11.589005 184 16 184 L 84 184 C 84 188.411011 87.589005 192 92 192 L 94.337997 192 C 102.356003 197.059998 111.837997 200 122 200 C 132.161011 200 141.643997 197.059998 149.662003 192 L 156 192 C 160.411011 192 164 188.411011 164 184 L 240 184 C 244.410995 184 248 180.411011 248 176 L 248 92 C 248 87.588989 244.410995 84 240 84"/>
    <path id="path4" fill="#ffffff" stroke="none" d="M 89.797401 141.038101 L 93.005402 143.71109 L 90.330399 165.108093 C 89.627403 163.809097 89.003403 162.46109 88.462402 161.074097 Z M 96.655403 146.753098 L 108.000397 156.207092 L 108.000397 160.000092 L 108.000397 164.000092 L 111.102402 164.000092 L 112.245399 172.000092 L 100.000397 172.000092 L 96.000397 172.000092 L 96.000397 172.884094 C 95.198402 172.046097 94.433403 171.176102 93.7164 170.266098 Z M 113.757401 182.58609 L 113.393402 182.949097 C 108.415398 181.728088 103.882401 179.493103 100.000397 176.492096 L 100.000397 176.000092 L 112.816399 176.000092 Z M 83.8414 136.000092 C 82.6474 139.7901 82.000397 143.820099 82.000397 148.000092 C 82.000397 148.603104 82.013397 149.203094 82.040398 149.801102 C 82.058403 150.202103 82.090401 150.601105 82.120399 151.000092 C 82.134399 151.189102 82.142403 151.382111 82.159401 151.571106 C 82.209404 152.131104 82.2724 152.687103 82.345398 153.240097 C 82.348404 153.264099 82.350403 153.287109 82.353401 153.309097 C 82.740402 156.203094 83.440399 158.9991 84.413399 161.664093 L 84.413399 161.673096 C 85.218399 163.878098 86.211403 165.99411 87.374397 168.000092 L 87.386398 168.000092 C 88.055397 169.151093 88.774399 170.270111 89.5504 171.3461 C 90.622398 172.830109 91.794403 174.236099 93.055397 175.559097 C 93.987404 176.537109 94.973404 177.464096 96.000397 178.345093 L 96.000397 178.358093 C 97.267403 179.444092 98.603401 180.451096 100.000397 181.3741 L 100.000397 181.370102 C 101.473396 182.3461 103.016403 183.224091 104.617401 184.000092 L 104.604401 184.000092 C 107.756401 185.529099 111.137398 186.659088 114.682404 187.317108 L 118.000397 184.000092 L 116.2854 172.000092 L 115.651398 167.559097 L 114.152397 157.064102 C 113.760399 156.726105 113.399399 156.354095 113.055397 155.969101 C 113.024399 155.933105 112.990402 155.898102 112.959404 155.862091 C 112.612404 155.463104 112.292404 155.041107 112.000397 154.598099 C 111.876404 154.411102 111.750397 154.226105 111.637398 154.031097 L 93.594398 138.995102 L 90.243401 136.203094 L 90.000397 136.000092 L 86.124397 136.000092 Z"/>
    <path id="path5" fill="#ffffff" stroke="none" d="M 95.513199 123.6465 L 95.490196 123.833496 L 95.410202 123.753494 C 95.444199 123.716507 95.479202 123.683502 95.513199 123.6465 M 100.000198 120.000504 L 144.000198 120.000504 L 145.119202 125.968506 L 136.000198 130.528503 L 136.000198 128.000504 L 132.000198 128.000504 L 112.000198 128.000504 L 108.000198 128.000504 L 108.000198 130.528503 L 99.232201 126.144501 Z M 122.000198 112.000504 C 127.873199 112.000504 133.501205 113.398499 138.522202 116.000504 L 105.477203 116.000504 C 110.498199 113.398499 116.126198 112.000504 122.000198 112.000504 M 132.000198 132.528503 L 129.406204 133.8255 C 127.129196 132.625504 124.610199 132.000504 122.000198 132.000504 C 119.390198 132.000504 116.870201 132.625504 114.5942 133.8255 L 112.000198 132.528503 L 112.000198 132.000504 L 122.000198 132.000504 L 132.000198 132.000504 Z M 94.000198 128.000504 L 94.912201 128.456497 L 103.6782 132.838501 L 108.000198 135.000504 L 112.000198 137.000504 L 114.813202 138.406494 C 116.818199 136.902496 119.301201 136.000504 122.000198 136.000504 C 124.699203 136.000504 127.182198 136.902496 129.186203 138.406494 L 132.000198 137.000504 L 136.000198 135.000504 L 145.8862 130.056503 L 150.000198 128.000504 L 153.125198 124.875504 L 153.988205 124.012497 C 153.665207 123.582504 153.323196 123.167496 152.9832 122.751495 L 152.9832 122.752502 C 152.630203 122.318497 152.264206 121.895493 151.893204 121.476501 C 151.805206 121.377502 151.718201 121.278503 151.629196 121.180496 C 151.305206 120.821503 150.975204 120.469498 150.639206 120.122498 C 150.445206 119.923492 150.248199 119.7285 150.050201 119.533493 C 149.787201 119.272507 149.5242 119.011505 149.254196 118.758499 C 148.809204 118.343506 148.355194 117.9375 147.892197 117.542496 C 147.838196 117.496506 147.787201 117.447495 147.7332 117.401505 C 146.626205 116.468506 145.465195 115.598495 144.260208 114.788498 C 144.061203 114.655502 143.859207 114.529495 143.659195 114.399506 C 143.304199 114.169495 142.944199 113.944504 142.582199 113.726501 C 142.362198 113.594498 142.144196 113.460495 141.923203 113.333496 C 141.423203 113.043503 140.916199 112.766495 140.402206 112.499496 C 140.184204 112.385498 139.964203 112.277496 139.744202 112.167496 C 139.325195 111.959503 138.903198 111.758499 138.475204 111.564499 C 138.298203 111.483505 138.122208 111.398499 137.9422 111.320496 C 137.384201 111.076508 136.816208 110.848495 136.244202 110.629501 C 136.035202 110.5495 135.825195 110.471497 135.614197 110.395493 C 135.022202 110.180496 134.426193 109.973495 133.821198 109.785507 C 133.699203 109.748505 133.576202 109.7155 133.454208 109.679504 C 132.909195 109.515503 132.3582 109.364502 131.804199 109.224503 C 131.625198 109.179504 131.447205 109.132507 131.267197 109.089493 C 130.627197 108.9375 129.980194 108.798508 129.329208 108.677505 C 129.180206 108.649506 129.030197 108.626495 128.881195 108.600494 C 128.286194 108.497498 127.688202 108.405502 127.085197 108.328506 C 126.963203 108.313507 126.842201 108.294495 126.7192 108.279495 C 126.033203 108.198502 125.342201 108.138504 124.646202 108.092499 C 124.487198 108.082504 124.326202 108.073502 124.166199 108.064499 C 123.449203 108.026505 122.727203 108.000504 122.000198 108.000504 C 121.272202 108.000504 120.551201 108.026505 119.833199 108.064499 C 119.673203 108.073502 119.513199 108.082504 119.353203 108.092499 C 118.658203 108.138504 117.967201 108.198502 117.281197 108.279495 C 117.158203 108.294495 117.037201 108.313507 116.9142 108.328506 C 116.311203 108.405502 115.713203 108.497498 115.119202 108.600494 C 114.9702 108.626495 114.820198 108.649506 114.671204 108.677505 C 114.019203 108.798508 113.373199 108.9375 112.7332 109.089493 C 112.5532 109.132507 112.374199 109.179504 112.195198 109.224503 C 111.641197 109.364502 111.091202 109.515503 110.546204 109.679504 C 110.424202 109.7155 110.300201 109.748505 110.179199 109.785507 C 109.574203 109.973495 108.978203 110.180496 108.3862 110.395493 C 108.175201 110.471497 107.965202 110.5495 107.755203 110.629501 C 107.183197 110.848495 106.616203 111.076508 106.057198 111.319504 C 105.878197 111.398499 105.701202 111.483505 105.523201 111.564499 C 105.096199 111.758499 104.674202 111.959503 104.256203 112.167496 C 104.036201 112.277496 103.815201 112.385498 103.597198 112.499496 C 103.084198 112.766495 102.577202 113.043503 102.077202 113.332504 C 101.855202 113.460495 101.637199 113.594498 101.418198 113.726501 C 101.055199 113.945496 100.696198 114.169495 100.341202 114.399506 C 100.141197 114.529495 99.938202 114.655502 99.740204 114.788498 C 98.534203 115.599503 97.371201 116.471497 96.262199 117.405502 C 96.228203 117.433502 96.197197 117.464493 96.1632 117.492493 C 95.6782 117.904495 95.2052 118.329498 94.740196 118.763504 C 94.474197 119.011505 94.217201 119.269501 93.958199 119.524506 C 93.757202 119.723495 93.555199 119.922501 93.357201 120.125504 C 93.023201 120.470505 92.695198 120.821503 92.373199 121.178497 C 92.282204 121.278503 92.193199 121.378494 92.103203 121.479507 C 91.7342 121.897507 91.369202 122.319504 91.016197 122.752502 L 91.016197 122.751495 C 90.6772 123.167496 90.335197 123.582504 90.012199 124.012497 L 90.875198 124.875504 Z"/>
    <path id="path6" fill="#ffffff" stroke="none" d="M 122 140 C 117.582001 140 114 143.582001 114 148 C 114 152.417999 117.582001 156 122 156 C 126.417999 156 130 152.417999 130 148 C 130 143.582001 126.417999 140 122 140 M 122 144 C 124.206001 144 126 145.794006 126 148 C 126 150.205994 124.206001 152 122 152 C 119.793999 152 118 150.205994 118 148 C 118 145.794006 119.793999 144 122 144"/>
</svg>
