<?xml version="1.0" encoding="UTF-8"?>
<!-- Generated by Pixelmator Pro 3.7.1 -->
<svg width="256" height="256" viewBox="0 0 256 256" xmlns="http://www.w3.org/2000/svg">
    <path id="Path" fill="#ffffff" stroke="none" d="M 66 96 L 190 96 C 191.104004 96 192 95.104004 192 94 C 192 92.895996 191.104004 92 190 92 L 66 92 C 64.896004 92 64 92.895996 64 94 C 64 95.104004 64.896004 96 66 96"/>
    <path id="path1" fill="#ffffff" stroke="none" d="M 60 228 L 196 228 L 196 224 L 60 224 Z"/>
    <path id="path2" fill="#ffffff" stroke="none" d="M 216 160 C 216 162.199997 214.199997 164 212 164 L 208 164 L 204 164 C 201.800003 164 200 162.199997 200 160 L 200 124 L 200 120 L 200 88 L 200 84 L 200 44 C 200 41.800003 201.800003 40 204 40 L 204 162 L 208 162 L 208 40 L 212 40 C 214.199997 40 216 41.800003 216 44 Z M 208 232 L 204 232 L 200 192 L 200 166.917999 C 201.179001 167.60199 202.541992 168 204 168 L 208 168 Z M 208 244.182007 L 48 244.182007 L 48 236 L 52 236 L 55.619995 236 L 200.380005 236 L 204 236 L 208 236 Z M 52 168 C 53.457993 168 54.822006 167.60199 56 166.917999 L 56 192 L 52 232 L 48 232 L 48 168 Z M 40 160 L 40 44 C 40 41.800003 41.800003 40 44 40 L 48 40 L 48 162 L 52 162 L 52 40 C 54.199997 40 56 41.800003 56 44 L 56 84 L 56 88 L 56 120 L 56 124 L 56 160 C 56 162.199997 54.199997 164 52 164 L 48 164 L 44 164 C 41.800003 164 40 162.199997 40 160 M 48 16 L 70 16 L 76 16 L 76 52 L 75.468994 52 L 76.031006 56.496002 L 79.468994 84 L 60 84 L 60 44 C 60 39.588989 56.410995 36 52 36 L 48 36 Z M 84 16 L 90 16 L 90 52 L 80 52 L 80 16 Z M 98 52 L 94 52 L 94 16 L 98 16 Z M 106 52 L 102 52 L 102 16 L 106 16 Z M 114 52 L 110 52 L 110 16 L 114 16 Z M 122 52 L 118 52 L 118 16 L 122 16 Z M 130 52 L 126 52 L 126 16 L 130 16 Z M 138 52 L 134 52 L 134 16 L 138 16 Z M 146 52 L 142 52 L 142 16 L 146 16 Z M 154 52 L 150 52 L 150 16 L 154 16 Z M 162 52 L 158 52 L 158 16 L 162 16 Z M 176 52 L 166 52 L 166 16 L 176 16 Z M 136 124 L 152 124 L 152 152 L 136 152 Z M 104 156 L 120 156 L 124 156 L 132 156 L 136 156 L 152 156 L 152 180 L 104 180 Z M 120 152 L 104 152 L 104 124 L 120 124 Z M 132 152 L 124 152 L 124 124 L 132 124 Z M 84 88 L 172 88 L 176.031006 88 L 196 88 L 196 120 L 156 120 L 152 120 L 136 120 L 132 120 L 124 120 L 120 120 L 104 120 L 100 120 L 60 120 L 60 88 L 79.968994 88 Z M 80 56 L 90 56 L 94 56 L 98 56 L 102 56 L 106 56 L 110 56 L 114 56 L 118 56 L 122 56 L 126 56 L 130 56 L 134 56 L 138 56 L 142 56 L 146 56 L 150 56 L 154 56 L 158 56 L 162 56 L 166 56 L 176 56 L 172.5 84 L 83.5 84 Z M 197.082001 164 L 196 164 L 196 192 L 196 192.199005 L 196.020004 192.397995 L 197.380005 206 L 58.619995 206 L 59.979996 192.397995 L 60 192.199005 L 60 192 L 60 164 L 58.917007 164 C 59.602005 162.820999 60 161.458008 60 160 L 60 124 L 100 124 L 100 180 L 100 184 L 104 184 L 152 184 L 156 184 L 156 180 L 156 124 L 196 124 L 196 160 C 196 161.458008 196.397995 162.820999 197.082001 164 M 57.419998 218 L 198.580002 218 L 199.979996 232 L 56.020004 232 Z M 58.220001 210 L 197.779999 210 L 198.179993 214 L 57.820007 214 Z M 208 16 L 208 36 L 204 36 C 199.589005 36 196 39.588989 196 44 L 196 84 L 176.531006 84 L 179.968994 56.496002 L 180.531006 52 L 180 52 L 180 16 Z M 212 36 L 212 16 L 212 12 L 208 12 L 180 12 L 176 12 L 84 12 L 80 12 L 76 12 L 70 12 L 48 12 L 44 12 L 44 16 L 44 36 C 39.589005 36 36 39.588989 36 44 L 36 160 C 36 164.411011 39.589005 168 44 168 L 44 232 L 44 236 L 44 244.182007 L 44 248 L 48 248 L 208 248 L 212 248 L 212 244.182007 L 212 236 L 212 232 L 212 168 C 216.410995 168 220 164.411011 220 160 L 220 44 C 220 39.588989 216.410995 36 212 36"/>
    <path id="path3" fill="#ffffff" stroke="none" d="M 92 192 L 80 192 L 80 184 L 92 184 Z M 92 200 L 80 200 L 80 196 L 92 196 Z M 72 184 L 76 184 L 76 200 L 72 200 Z M 76 180 L 68 180 L 68 204 L 76 204 L 80 204 L 96 204 L 96 200 L 96 196 L 96 192 L 96 184 L 96 180 L 80 180 Z"/>
    <path id="path4" fill="#ffffff" stroke="none" d="M 184 200 L 180 200 L 180 184 L 184 184 Z M 164 184 L 176 184 L 176 200 L 164 200 Z M 176 180 L 160 180 L 160 184 L 160 200 L 160 204 L 176 204 L 180 204 L 188 204 L 188 180 L 180 180 Z"/>
</svg>
