<?xml version="1.0" encoding="UTF-8"?>
<!-- Generated by Pixelmator Pro 3.7.1 -->
<svg width="256" height="256" viewBox="0 0 256 256" xmlns="http://www.w3.org/2000/svg">
    <path id="Path" fill="#ffffff" stroke="none" d="M 104 176 L 64 176 C 61.793999 176 60 174.205002 60 172 C 60 169.794006 61.793999 168 64 168 L 104 168 C 106.206001 168 108 169.794006 108 172 C 108 174.205994 106.206001 176 104 176 M 104 164 L 64 164 C 59.599998 164 56 167.600006 56 172 C 56 176.399994 59.599998 180 64 180 L 104 180 C 108.400002 180 112 176.399994 112 172 C 112 167.600006 108.400002 164 104 164"/>
    <path id="path1" fill="#ffffff" stroke="none" d="M 192 176 L 152 176 C 149.794006 176 148 174.205002 148 172 C 148 169.794006 149.794006 168 152 168 L 192 168 C 194.205994 168 196 169.794006 196 172 C 196 174.205994 194.205994 176 192 176 M 192 164 L 152 164 C 147.600006 164 144 167.600006 144 172 C 144 176.399994 147.600006 180 152 180 L 192 180 C 196.399994 180 200 176.399994 200 172 C 200 167.600006 196.399994 164 192 164"/>
    <path id="path2" fill="#ffffff" stroke="none" d="M 224 70 C 224 71.104004 223.104004 72 222 72 L 204 72 L 200 72 L 56 72 L 52 72 L 34 72 C 32.895996 72 32 71.104004 32 70 L 32 14 C 32 12.895996 32.895996 12 34 12 L 222 12 C 223.104004 12 224 12.895996 224 14 Z M 224 144 L 222 144 L 204 144 L 204 76 L 222 76 L 224 76 Z M 224 238 C 224 239.104004 223.104004 240 222 240 L 204 240 L 204 187.649994 C 206.326004 186.822998 208 184.606003 208 182 L 208 162 C 208 159.393997 206.326004 157.177002 204 156.350006 L 204 148 L 222 148 C 223.104004 148 224 148.895996 224 150 Z M 197 244 L 147 244 C 145.343002 244 144 242.656998 144 241 L 144 240 L 144 216 L 144 188 L 200 188 L 200 241 C 200 242.656998 198.656998 244 197 244 M 116 216 L 140 216 L 140 240 L 116 240 Z M 109 244 L 59 244 C 57.343002 244 56 242.656998 56 241 L 56 188 L 112 188 L 112 216 L 112 240 L 112 241 C 112 242.656998 110.656998 244 109 244 M 32 238 L 32 150 C 32 148.895996 32.895996 148 34 148 L 52 148 L 52 156.350006 C 49.673004 157.177002 48 159.393997 48 162 L 48 182 C 48 184.606003 49.673004 186.822998 52 187.649994 L 52 240 L 34 240 C 32.895996 240 32 239.104004 32 238 M 172 96 L 168 96 L 88 96 L 84 96 L 56 96 L 56 76 L 200 76 L 200 96 Z M 84 120 L 56 120 L 56 100 L 84 100 Z M 172 100 L 200 100 L 200 120 L 172 120 Z M 168 120 L 88 120 L 88 100 L 168 100 Z M 144 144 L 140 144 L 116 144 L 112 144 L 56 144 L 56 124 L 84 124 L 88 124 L 168 124 L 172 124 L 200 124 L 200 144 Z M 200 156 L 144 156 L 144 148 L 200 148 Z M 116 187.649994 C 118.327003 186.822998 120 184.606003 120 182 L 120 164 L 136 164 L 136 182 C 136 184.606003 137.674011 186.822998 140 187.649994 L 140 212 L 116 212 Z M 56 148 L 112 148 L 112 156 L 56 156 Z M 116 148 L 140 148 L 140 156.350006 C 138.300003 156.95401 136.95401 158.300003 136.350006 160 L 119.650002 160 C 119.045998 158.300003 117.699997 156.95401 116 156.350006 Z M 114 184 L 112 184 L 56 184 L 54 184 C 52.895996 184 52 183.104004 52 182 L 52 162 C 52 160.895996 52.895996 160 54 160 L 56 160 L 112 160 L 114 160 C 115.103996 160 116 160.895996 116 162 L 116 182 C 116 183.104004 115.103996 184 114 184 M 202 184 L 200 184 L 144 184 L 142 184 C 140.895996 184 140 183.104004 140 182 L 140 162 C 140 160.895996 140.895996 160 142 160 L 144 160 L 200 160 L 202 160 C 203.104004 160 204 160.895996 204 162 L 204 182 C 204 183.104004 203.104004 184 202 184 M 32 76 L 34 76 L 52 76 L 52 144 L 34 144 L 32 144 Z M 222 8 L 34 8 C 30.690994 8 28 10.69101 28 14 L 28 238 C 28 241.309006 30.690994 244 34 244 L 52.684998 244 C 53.811996 246.360992 56.214996 248 59 248 L 109 248 C 111.785004 248 114.188004 246.360992 115.315002 244 L 140.686005 244 C 141.811996 246.360992 144.214996 248 147 248 L 197 248 C 199.785004 248 202.188004 246.360992 203.313995 244 L 222 244 C 225.309006 244 228 241.309006 228 238 L 228 14 C 228 10.69101 225.309006 8 222 8"/>
</svg>
