<?xml version="1.0" encoding="UTF-8"?>
<!-- Generated by Pixelmator Pro 3.7.1 -->
<svg width="256" height="256" viewBox="0 0 256 256" xmlns="http://www.w3.org/2000/svg">
    <path id="Path" fill="#ffffff" stroke="none" d="M 235.133804 204 L 235.133804 170.804993 C 235.133804 167.800003 236.551804 164.981995 238.834793 163.449997 L 243.999802 159.985992 L 243.999802 204 Z M 195.999802 60.292007 C 212.262802 64.296997 228.316803 69.735992 243.999802 76.64801 L 243.999802 154.794998 L 236.623795 159.744003 C 233.1548 162.069 230.999802 166.307999 230.999802 170.804993 L 230.999802 204 L 195.999802 204 Z M 63.999798 204 L 63.999798 59.337997 C 85.110802 54.459 106.553795 52 127.999794 52 C 149.445801 52 170.889801 54.459 191.999802 59.337997 L 191.999802 204 Z M 11.999797 159.985992 L 17.164806 163.449997 C 19.447796 164.981995 20.866802 167.800003 20.866802 170.804993 L 20.866802 204 L 11.999797 204 Z M 60.208797 60.240005 L 60.208797 204 L 24.999798 204 L 24.999798 170.804993 C 24.999798 166.307999 22.844799 162.069 19.376797 159.744003 L 11.999797 154.796005 L 11.999797 76.64801 C 27.750805 69.707001 43.873806 64.248993 60.208797 60.240005 M 245.612793 72.988007 C 229.407806 65.847 212.839798 60.229996 195.999802 56.139999 L 195.999802 56 L 195.4478 56 C 173.366806 50.682999 150.819794 48 127.999794 48 C 105.180794 48 82.63279 50.682999 60.5518 56 L 60.208797 56 L 60.208797 56.087006 C 43.296795 60.182007 26.658794 65.817001 10.386806 72.988007 L 7.999797 74.039993 L 7.999797 76.64801 L 7.999797 204 L 7.999797 208 L 11.999797 208 L 243.999802 208 L 247.999802 208 L 247.999802 204 L 247.999802 76.64801 L 247.999802 74.039993 Z"/>
    <path id="path1" fill="#ffffff" stroke="none" d="M 180 183.674805 C 180 188.286804 176.432007 191.999802 172 191.999802 L 84 191.999802 C 79.568001 191.999802 76 188.286804 76 183.674805 L 76 75.446808 C 76 70.834808 79.612 67.774796 84 67.121796 C 98 65.040802 113 63.999802 128 63.999802 C 143 63.999802 158 65.040802 172 67.121796 C 176.388 67.774796 180 70.834808 180 75.446808 Z M 172.587997 63.165802 C 158.459 61.064804 143.458008 59.999802 128 59.999802 C 112.542 59.999802 97.541 61.064804 83.412003 63.165802 C 76.693001 64.163803 72 69.214798 72 75.446808 L 72 183.674805 C 72 190.470795 77.383003 195.999802 84 195.999802 L 172 195.999802 C 178.617004 195.999802 184 190.470795 184 183.674805 L 184 75.446808 C 184 69.214798 179.307999 64.163803 172.587997 63.165802"/>
</svg>
