<?xml version="1.0" encoding="UTF-8"?>
<!-- Generated by Pixelmator Pro 3.7.1 -->
<svg width="256" height="256" viewBox="0 0 256 256" xmlns="http://www.w3.org/2000/svg">
    <path id="Path" fill="#ffffff" stroke="none" d="M 200 220 C 200 233.255005 189.255005 244 176 244 L 60 244 C 57.791 244 56 242.209 56 240 L 56 16 C 56 13.791 57.791 12 60 12 L 196 12 C 198.209 12 200 13.791 200 16 Z M 196 8 L 60 8 C 55.589005 8 52 11.589005 52 16 L 52 240 C 52 244.410995 55.589005 248 60 248 L 176 248 C 191.438995 248 204 235.438995 204 220 L 204 16 C 204 11.589005 200.410995 8 196 8"/>
    <path id="path1" fill="#ffffff" stroke="none" d="M 72 32 L 184 32 L 184 116 C 184 122.617004 178.617004 128 172 128 L 72 128 Z M 72 132 L 172 132 C 180.837006 132 188 124.835999 188 116 L 188 32 C 188 29.791 186.209 28 184 28 L 72 28 C 69.791 28 68 29.791 68 32 L 68 128 C 68 130.209 69.791 132 72 132"/>
    <path id="path2" fill="#ffffff" stroke="none" d="M 168 112 L 88 112 L 88 40 L 168 40 Z M 172 36 L 84 36 L 84 116 L 172 116 Z"/>
    <path id="path3" fill="#ffffff" stroke="none" d="M 121 210 L 111 210 C 109.343002 210 108 208.656998 108 207 C 108 205.343002 109.343002 204 111 204 L 121 204 C 122.656998 204 124 205.343002 124 207 C 124 208.656998 122.656998 210 121 210 M 121 200 L 111 200 C 107.139999 200 104 203.140991 104 207 C 104 210.859009 107.139999 214 111 214 L 121 214 C 124.860001 214 128 210.859009 128 207 C 128 203.140991 124.860001 200 121 200"/>
    <path id="path4" fill="#ffffff" stroke="none" d="M 145 210 L 135 210 C 133.343002 210 132 208.656998 132 207 C 132 205.343002 133.343002 204 135 204 L 145 204 C 146.656998 204 148 205.343002 148 207 C 148 208.656998 146.656998 210 145 210 M 145 200 L 135 200 C 131.141006 200 128 203.140991 128 207 C 128 210.859009 131.141006 214 135 214 L 145 214 C 148.858994 214 152 210.859009 152 207 C 152 203.140991 148.858994 200 145 200"/>
    <path id="path5" fill="#ffffff" stroke="none" d="M 153 180 C 148.029007 180 144 175.971008 144 171 C 144 166.028992 148.029007 162 153 162 C 157.970993 162 162 166.028992 162 171 C 162 175.971008 157.970993 180 153 180 M 153 158 C 145.832001 158 140 163.832001 140 171 C 140 178.167999 145.832001 184 153 184 C 160.167999 184 166 178.167999 166 171 C 166 163.832001 160.167999 158 153 158"/>
    <path id="path6" fill="#ffffff" stroke="none" d="M 179 172 C 174.029007 172 170 167.971008 170 163 C 170 158.028992 174.029007 154 179 154 C 183.970993 154 188 158.028992 188 163 C 188 167.971008 183.970993 172 179 172 M 179 150 C 171.832001 150 166 155.832001 166 163 C 166 170.167999 171.832001 176 179 176 C 186.167999 176 192 170.167999 192 163 C 192 155.832001 186.167999 150 179 150"/>
    <path id="path7" fill="#ffffff" stroke="none" d="M 104 170 C 104 171.104004 103.103996 172 102 172 L 92 172 L 92 182 C 92 183.104004 91.104004 184 90 184 L 82 184 C 80.895996 184 80 183.104004 80 182 L 80 172 L 70 172 C 68.895996 172 68 171.104004 68 170 L 68 162 C 68 160.895996 68.895996 160 70 160 L 80 160 L 80 150 C 80 148.895996 80.895996 148 82 148 L 90 148 C 91.104004 148 92 148.895996 92 150 L 92 160 L 102 160 C 103.103996 160 104 160.895996 104 162 Z M 108 170 L 108 162 C 108 158.69101 105.308998 156 102 156 L 96 156 L 96 150 C 96 146.69101 93.308998 144 90 144 L 82 144 C 78.691002 144 76 146.69101 76 150 L 76 156 L 70 156 C 66.691002 156 64 158.69101 64 162 L 64 170 C 64 173.30899 66.691002 176 70 176 L 76 176 L 76 182 C 76 185.30899 78.691002 188 82 188 L 90 188 C 93.308998 188 96 185.30899 96 182 L 96 176 L 102 176 C 105.308998 176 108 173.30899 108 170"/>
    <path id="path8" fill="#ffffff" stroke="none" d="M 86 170 C 83.791 170 82 168.209 82 166 C 82 163.791 83.791 162 86 162 C 88.209 162 90 163.791 90 166 C 90 168.209 88.209 170 86 170 M 86 158 C 81.588997 158 78 161.588989 78 166 C 78 170.411011 81.588997 174 86 174 C 90.411003 174 94 170.411011 94 166 C 94 161.588989 90.411003 158 86 158"/>
</svg>
