<?xml version="1.0" encoding="UTF-8"?>
<!-- Generated by Pixelmator Pro 3.7.1 -->
<svg width="256" height="256" viewBox="0 0 256 256" xmlns="http://www.w3.org/2000/svg">
    <path id="Path" fill="#ffffff" stroke="none" d="M 156 172 L 148 172 L 148 176 L 156 176 Z"/>
    <path id="path1" fill="#ffffff" stroke="none" d="M 168 172 L 160 172 L 160 176 L 168 176 Z"/>
    <path id="path2" fill="#ffffff" stroke="none" d="M 180 172 L 172 172 L 172 176 L 180 176 Z"/>
    <path id="path3" fill="#ffffff" stroke="none" d="M 192 172 L 184 172 L 184 176 L 192 176 Z"/>
    <path id="path4" fill="#ffffff" stroke="none" d="M 156 180 L 148 180 L 148 184 L 156 184 Z"/>
    <path id="path5" fill="#ffffff" stroke="none" d="M 168 180 L 160 180 L 160 184 L 168 184 Z"/>
    <path id="path6" fill="#ffffff" stroke="none" d="M 180 180 L 172 180 L 172 184 L 180 184 Z"/>
    <path id="path7" fill="#ffffff" stroke="none" d="M 192 180 L 184 180 L 184 184 L 192 184 Z"/>
    <path id="path8" fill="#ffffff" stroke="none" d="M 244 64 L 24 64 L 24 52 L 242 52 C 243.104004 52 244 54.895996 244 56 Z M 244 188 C 244 189.104004 243.104004 192 242 192 L 240.382996 192 C 240.179001 188.652008 240.061005 185.123993 240.016998 181.90799 C 239.972 178.649994 237.279999 176 234.018005 176 L 226.007996 176 C 224.399002 176 222.888 176.630005 221.753006 177.772003 C 220.615005 178.917999 219.996002 180.438004 220.007996 182.053009 C 220.033997 185.729004 220.132004 189.037994 220.298996 192 L 216 192 L 48 192 L 43.701004 192 C 43.869003 189.037994 43.966003 185.729004 43.992996 182.053009 C 44.003998 180.438004 43.384003 178.917999 42.246994 177.772003 C 41.112 176.630005 39.600998 176 37.992004 176 L 29.981995 176 C 26.807007 176 24.179993 178.513 24 181.651001 L 24 68 L 244 68 Z M 236.235992 208 L 232 208 L 228.718002 208 C 228.408005 208 228.112 207.919998 227.841995 207.789001 L 226.514999 206.020004 C 225.425003 203.332001 224.115005 196.992004 224.007004 182.02301 C 223.998993 180.912003 224.895996 180 226.007996 180 L 234.018005 180 C 235.110992 180 236.001999 180.869995 236.016998 181.962997 C 236.085007 186.906006 236.427994 199.865997 238.145996 205.417007 C 238.544006 206.703003 237.584 208 236.235992 208 M 219 196 L 220.587006 196 C 220.664001 196.860001 220.751007 197.671997 220.843002 198.457993 Z M 43.156998 198.457993 C 43.248993 197.671997 43.335999 196.860001 43.414001 196 L 45 196 Z M 27.763 208 C 26.416 208 25.455994 206.703003 25.854004 205.417007 C 27.572998 199.865997 27.914993 186.906006 27.983002 181.962997 C 27.998001 180.869995 28.889008 180 29.981995 180 L 37.992004 180 C 39.104004 180 40.001007 180.912003 39.992996 182.02301 C 39.884995 196.990997 38.576004 203.330994 37.485001 206.020004 L 36.158005 207.789001 C 35.888 207.919998 35.591995 208 35.281998 208 L 32 208 Z M 14 192 C 12.895996 192 12 189.104004 12 188 L 12 56 C 12 54.895996 12.895996 52 14 52 L 20 52 L 20 192 Z M 242 48 L 14 48 C 9.421997 48 8 53.863998 8 56 L 8 188 C 8 190.136002 9.421997 196 14 196 L 23.322998 196 C 23.014008 199.455994 22.591003 202.431 22.033005 204.233002 C 21.472 206.044998 21.809006 208.037003 22.932999 209.561996 C 24.057999 211.089005 25.863998 212 27.763 212 L 35.281998 212 C 35.414001 212 35.542999 211.981995 35.673996 211.975006 C 35.783005 211.983002 35.891006 212 36 212 C 37.003006 212 37.966995 211.604996 38.710999 210.912003 C 39.397003 210.436005 39.990997 209.822998 40.427994 209.089005 C 40.608994 208.783997 40.781006 208.436996 40.947998 208.069 L 50 196 L 214 196 L 223.052002 208.069 C 223.220001 208.436996 223.391006 208.783997 223.572006 209.089005 C 224.009003 209.822998 224.602997 210.436005 225.289001 210.912003 C 226.033005 211.604996 226.996994 212 228.001007 212 C 228.108002 212 228.218002 211.983002 228.326004 211.975006 C 228.457001 211.981995 228.585999 212 228.718002 212 L 236.235992 212 C 238.136002 212 239.940994 211.089005 241.067001 209.561996 C 242.190994 208.037003 242.526993 206.044998 241.966995 204.233002 C 241.408005 202.431 240.985001 199.455994 240.677994 196 L 242 196 C 246.578003 196 248 190.136002 248 188 L 248 56 C 248 53.863998 246.578003 48 242 48"/>
</svg>
