<?xml version="1.0" encoding="UTF-8"?>
<!-- Generated by Pixelmator Pro 3.7.1 -->
<svg width="256" height="256" viewBox="0 0 256 256" xmlns="http://www.w3.org/2000/svg">
    <path id="Path" fill="#ffffff" stroke="none" d="M 34 64 C 32.896 64 32 64.895996 32 66 C 32 67.104004 32.896 68 34 68 C 35.104 68 36 67.104004 36 66 C 36 64.895996 35.104 64 34 64"/>
    <path id="path1" fill="#ffffff" stroke="none" d="M 42 64 C 40.896 64 40 64.895996 40 66 C 40 67.104004 40.896 68 42 68 C 43.104 68 44 67.104004 44 66 C 44 64.895996 43.104 64 42 64"/>
    <path id="path2" fill="#ffffff" stroke="none" d="M 50 64 C 48.896 64 48 64.895996 48 66 C 48 67.104004 48.896 68 50 68 C 51.104 68 52 67.104004 52 66 C 52 64.895996 51.104 64 50 64"/>
    <path id="path3" fill="#ffffff" stroke="none" d="M 34 72 C 32.896 72 32 72.895996 32 74 C 32 75.104004 32.896 76 34 76 C 35.104 76 36 75.104004 36 74 C 36 72.895996 35.104 72 34 72"/>
    <path id="path4" fill="#ffffff" stroke="none" d="M 42 72 C 40.896 72 40 72.895996 40 74 C 40 75.104004 40.896 76 42 76 C 43.104 76 44 75.104004 44 74 C 44 72.895996 43.104 72 42 72"/>
    <path id="path5" fill="#ffffff" stroke="none" d="M 50 72 C 48.896 72 48 72.895996 48 74 C 48 75.104004 48.896 76 50 76 C 51.104 76 52 75.104004 52 74 C 52 72.895996 51.104 72 50 72"/>
    <path id="path6" fill="#ffffff" stroke="none" d="M 206 64 C 204.895996 64 204 64.895996 204 66 C 204 67.104004 204.895996 68 206 68 C 207.104004 68 208 67.104004 208 66 C 208 64.895996 207.104004 64 206 64"/>
    <path id="path7" fill="#ffffff" stroke="none" d="M 214 64 C 212.895996 64 212 64.895996 212 66 C 212 67.104004 212.895996 68 214 68 C 215.104004 68 216 67.104004 216 66 C 216 64.895996 215.104004 64 214 64"/>
    <path id="path8" fill="#ffffff" stroke="none" d="M 222 64 C 220.895996 64 220 64.895996 220 66 C 220 67.104004 220.895996 68 222 68 C 223.104004 68 224 67.104004 224 66 C 224 64.895996 223.104004 64 222 64"/>
    <path id="path9" fill="#ffffff" stroke="none" d="M 206 72 C 204.895996 72 204 72.895996 204 74 C 204 75.104004 204.895996 76 206 76 C 207.104004 76 208 75.104004 208 74 C 208 72.895996 207.104004 72 206 72"/>
    <path id="path10" fill="#ffffff" stroke="none" d="M 214 72 C 212.895996 72 212 72.895996 212 74 C 212 75.104004 212.895996 76 214 76 C 215.104004 76 216 75.104004 216 74 C 216 72.895996 215.104004 72 214 72"/>
    <path id="path11" fill="#ffffff" stroke="none" d="M 222 72 C 220.895996 72 220 72.895996 220 74 C 220 75.104004 220.895996 76 222 76 C 223.104004 76 224 75.104004 224 74 C 224 72.895996 223.104004 72 222 72"/>
    <path id="path12" fill="#ffffff" stroke="none" d="M 192 136 L 64 136 L 64 232 C 64 234.209 65.791 236 68 236 L 188 236 C 190.209 236 192 234.209 192 232 Z M 188 232 L 68 232 L 68 140 L 188 140 Z M 188 140"/>
    <path id="path13" fill="#ffffff" stroke="none" d="M 232 8 L 24 8 C 17.382996 8 12 13.382996 12 20 L 12 118 C 12 121.30899 14.690994 124 18 124 L 238 124 C 241.309006 124 244 121.30899 244 118 L 244 20 C 244 13.382996 238.617004 8 232 8 M 232 12 C 236.417999 12 240 15.582001 240 20 L 240 118 C 240 119.104004 239.104004 120 238 120 L 18 120 C 16.895996 120 16 119.104004 16 118 L 16 20 C 16 15.582001 19.582001 12 24 12 L 232 12"/>
    <path id="path14" fill="#ffffff" stroke="none" d="M 184 24 L 180 24 L 76 24 L 72 24 L 72 28 L 72 108 L 72 112 L 76 112 L 180 112 L 184 112 L 184 108 L 184 28 Z M 180 108 L 76 108 L 76 28 L 180 28 Z"/>
    <path id="path15" fill="#ffffff" stroke="none" d="M 51 16 L 45 16 C 42.243 16 40 18.242996 40 21 L 40 27 C 40 29.757004 42.243 32 45 32 L 51 32 C 53.757 32 56 29.757004 56 27 L 56 21 C 56 18.242996 53.757 16 51 16 M 51 20 C 51.551998 20 52 20.447998 52 21 L 52 27 C 52 27.552002 51.551998 28 51 28 L 45 28 C 44.447998 28 44 27.552002 44 27 L 44 21 C 44 20.447998 44.447998 20 45 20 L 51 20"/>
    <path id="path16" fill="#ffffff" stroke="none" d="M 51 104 L 45 104 C 42.243 104 40 106.242996 40 109 L 40 115 C 40 117.757004 42.243 120 45 120 L 51 120 C 53.757 120 56 117.757004 56 115 L 56 109 C 56 106.242996 53.757 104 51 104 M 51 108 C 51.551998 108 52 108.447998 52 109 L 52 115 C 52 115.552002 51.551998 116 51 116 L 45 116 C 44.447998 116 44 115.552002 44 115 L 44 109 C 44 108.447998 44.447998 108 45 108 L 51 108"/>
    <path id="path17" fill="#ffffff" stroke="none" d="M 211 16 L 205 16 C 202.242996 16 200 18.242996 200 21 L 200 27 C 200 29.757004 202.242996 32 205 32 L 211 32 C 213.757004 32 216 29.757004 216 27 L 216 21 C 216 18.242996 213.757004 16 211 16 M 211 20 C 211.552994 20 212 20.447998 212 21 L 212 27 C 212 27.552002 211.552994 28 211 28 L 205 28 C 204.447006 28 204 27.552002 204 27 L 204 21 C 204 20.447998 204.447006 20 205 20 L 211 20"/>
    <path id="path18" fill="#ffffff" stroke="none" d="M 211 104 L 205 104 C 202.242996 104 200 106.242996 200 109 L 200 115 C 200 117.757004 202.242996 120 205 120 L 211 120 C 213.757004 120 216 117.757004 216 115 L 216 109 C 216 106.242996 213.757004 104 211 104 M 211 108 C 211.552994 108 212 108.447998 212 109 L 212 115 C 212 115.552002 211.552994 116 211 116 L 205 116 C 204.447006 116 204 115.552002 204 115 L 204 109 C 204 108.447998 204.447006 108 205 108 L 211 108"/>
    <path id="path19" fill="#ffffff" stroke="none" d="M 20 36 L 20 36 C 18.9 36 18 35.100006 18 34 L 18 22 C 18 20.899994 18.9 20 20 20 C 21.1 20 22 20.899994 22 22 L 22 34 C 22 35.100006 21.1 36 20 36"/>
    <path id="path20" fill="#ffffff" stroke="none" d="M 236 36 L 236 36 C 234.899994 36 234 35.100006 234 34 L 234 22 C 234 20.899994 234.899994 20 236 20 C 237.100006 20 238 20.899994 238 22 L 238 34 C 238 35.100006 237.100006 36 236 36"/>
    <path id="path21" fill="#ffffff" stroke="none" d="M 44 136 L 40 136 L 40 120 L 44 120 Z"/>
    <path id="path22" fill="#ffffff" stroke="none" d="M 212 136 L 208 136 L 208 120 L 212 120 Z"/>
    <path id="path23" fill="#ffffff" stroke="none" d="M 215 175.5 C 209.485992 175.5 205 179.985992 205 185.5 C 205 191.014008 209.485992 195.5 215 195.5 C 220.514008 195.5 225 191.014008 225 185.5 C 225 179.985992 220.514008 175.5 215 175.5 M 215 179.5 C 218.309006 179.5 221 182.19101 221 185.5 C 221 188.80899 218.309006 191.5 215 191.5 C 211.690994 191.5 209 188.80899 209 185.5 C 209 182.19101 211.690994 179.5 215 179.5"/>
    <path id="path24" fill="#ffffff" stroke="none" d="M 215 149.5 C 209.485992 149.5 205 153.985992 205 159.5 C 205 165.014008 209.485992 169.5 215 169.5 C 220.514008 169.5 225 165.014008 225 159.5 C 225 153.985992 220.514008 149.5 215 149.5 M 215 153.5 C 218.309006 153.5 221 156.19101 221 159.5 C 221 162.80899 218.309006 165.5 215 165.5 C 211.690994 165.5 209 162.80899 209 159.5 C 209 156.19101 211.690994 153.5 215 153.5"/>
    <path id="path25" fill="#ffffff" stroke="none" d="M 202 162.5 C 196.485992 162.5 192 166.985992 192 172.5 C 192 178.014008 196.485992 182.5 202 182.5 C 207.514008 182.5 212 178.014008 212 172.5 C 212 166.985992 207.514008 162.5 202 162.5 M 202 166.5 C 205.309006 166.5 208 169.19101 208 172.5 C 208 175.80899 205.309006 178.5 202 178.5 C 198.690994 178.5 196 175.80899 196 172.5 C 196 169.19101 198.690994 166.5 202 166.5"/>
    <path id="path26" fill="#ffffff" stroke="none" d="M 228 162.5 C 222.485992 162.5 218 166.985992 218 172.5 C 218 178.014008 222.485992 182.5 228 182.5 C 233.514008 182.5 238 178.014008 238 172.5 C 238 166.985992 233.514008 162.5 228 162.5 M 228 166.5 C 231.309006 166.5 234 169.19101 234 172.5 C 234 175.80899 231.309006 178.5 228 178.5 C 224.690994 178.5 222 175.80899 222 172.5 C 222 169.19101 224.690994 166.5 228 166.5"/>
    <path id="path27" fill="#ffffff" stroke="none" d="M 180 148 L 76 148 L 76 228 L 180 228 Z M 176 224 L 80 224 L 80 152 L 176 152 Z"/>
    <path id="path28" fill="#ffffff" stroke="none" d="M 197 206 C 193.141006 206 190 209.140991 190 213 C 190 216.859009 193.141006 220 197 220 C 200.858994 220 204 216.859009 204 213 C 204 209.140991 200.858994 206 197 206 M 197 210 C 198.656998 210 200 211.343002 200 213 C 200 214.656998 198.656998 216 197 216 C 195.343002 216 194 214.656998 194 213 C 194 211.343002 195.343002 210 197 210"/>
    <path id="path29" fill="#ffffff" stroke="none" d="M 197 218 C 193.141006 218 190 221.140991 190 225 C 190 228.859009 193.141006 232 197 232 C 200.858994 232 204 228.859009 204 225 C 204 221.140991 200.858994 218 197 218 M 197 222 C 198.656998 222 200 223.343002 200 225 C 200 226.656998 198.656998 228 197 228 C 195.343002 228 194 226.656998 194 225 C 194 223.343002 195.343002 222 197 222"/>
    <path id="path30" fill="#ffffff" stroke="none" d="M 45 157 L 39 157 C 35.691002 157 33 159.69101 33 163 L 33 167 L 29 167 C 25.691 167 23 169.69101 23 173 L 23 179 C 23 182.30899 25.691 185 29 185 L 33 185 L 33 189 C 33 192.30899 35.691002 195 39 195 L 45 195 C 48.308998 195 51 192.30899 51 189 L 51 185 L 55 185 C 58.308998 185 61 182.30899 61 179 L 61 173 C 61 169.69101 58.308998 167 55 167 L 51 167 L 51 163 C 51 159.69101 48.308998 157 45 157 M 45 161 C 46.103001 161 47 161.897003 47 163 L 47 171 L 55 171 C 56.103001 171 57 171.897003 57 173 L 57 179 C 57 180.102997 56.103001 181 55 181 L 47 181 L 47 189 C 47 190.102997 46.103001 191 45 191 L 39 191 C 37.896999 191 37 190.102997 37 189 L 37 181 L 29 181 C 27.896999 181 27 180.102997 27 179 L 27 173 C 27 171.897003 27.896999 171 29 171 L 37 171 L 37 163 C 37 161.897003 37.896999 161 39 161 L 45 161"/>
    <path id="path31" fill="#ffffff" stroke="none" d="M 132 28 L 124.008003 28 C 119.597 28 116.008003 31.589005 116.008003 36 L 116.000999 52 L 104 52 L 95.300995 52 L 100.962997 58.604004 L 123.491997 84.877991 C 119.102997 86.665009 116 90.977005 116 96 C 116 102.617004 121.383003 108 128 108 C 134.617004 108 140 102.617004 140 96 C 140 90.981003 136.903 86.671997 132.520004 84.882996 L 155.044998 58.602997 L 160.705002 52 L 152.007996 52 L 140.007004 52 L 140 35.998993 C 140 31.589005 136.410995 28 132 28 M 128 88 C 132.417999 88 136 91.582001 136 96 C 136 100.417999 132.417999 104 128 104 C 123.582001 104 120 100.417999 120 96 C 120 91.582001 123.582001 88 128 88 M 132 32 C 134.212006 32 136 33.787994 136 36 L 136.007996 56 L 152.007996 56 L 128.007996 84 L 104 56 L 120 56 L 120.008003 36 C 120.008003 33.787994 121.795998 32 124.008003 32 L 132 32"/>
    <path id="path32" fill="#ffffff" stroke="none" d="M 128 92 L 128 100 L 132 96 Z"/>
    <path id="path33" fill="#ffffff" stroke="none" d="M 126 92 L 124 92 L 124 100 L 126 100 Z"/>
    <path id="path34" fill="#ffffff" stroke="none" d="M 240 236 C 240 240.417999 236.417999 244 232 244 L 24 244 C 19.582001 244 16 240.417999 16 236 L 16 130 C 16 129.765991 16.048004 129.544998 16.121994 129.335999 C 16.764008 133.104004 20.056 136 24 136 L 232 136 C 235.944 136 239.235992 133.104004 239.878006 129.335999 C 239.951996 129.544998 240 129.765991 240 130 Z M 24 124 L 232 124 C 234.205994 124 236 125.794006 236 128 C 236 130.205994 234.205994 132 232 132 L 24 132 C 21.794006 132 20 130.205994 20 128 C 20 125.794006 21.794006 124 24 124 M 240 124.350006 C 240 124.350006 236.399994 120 232 120 L 24 120 C 19.600006 120 16 124.350006 16 124.350006 C 13.673004 125.175995 12 127.393997 12 130 L 12 236 C 12 242.617004 17.382996 248 24 248 L 232 248 C 238.617004 248 244 242.617004 244 236 L 244 130 C 244 127.393997 242.326004 125.175995 240 124.350006"/>
</svg>
