<?xml version="1.0" encoding="UTF-8"?>
<!-- Generated by Pixelmator Pro 3.7.1 -->
<svg width="256" height="256" viewBox="0 0 256 256" xmlns="http://www.w3.org/2000/svg">
    <path id="Path" fill="#ffffff" stroke="none" d="M 36.451698 151.023407 C 35.141701 151.382401 34.062698 151.67041 33.299702 151.8694 C 32.964699 151.95639 32.624699 152.000397 32.284698 152.000397 C 31.7157 152.000397 31.1507 151.877411 30.6257 151.631409 C 27.693699 150.263397 21.0177 146.080399 20.1047 137.902405 C 19.9737 136.732391 20.429701 135.570404 21.262699 134.737396 L 23.0837 132.916397 C 23.682699 132.316406 24.4517 131.924408 25.2887 131.793396 C 26.8057 131.554398 29.582701 131.135406 33.064701 130.673401 C 33.569698 137.419403 34.696701 144.236389 36.4207 150.9384 C 36.4277 150.967407 36.443699 150.9944 36.451698 151.023407 M 223.74971 160.000397 C 199.788712 171.980408 179.810699 187.945404 127.999695 187.998398 L 127.999695 188.000397 C 127.957695 188.000397 127.917702 187.999405 127.874695 187.999405 C 127.832695 187.999405 127.792702 188.000397 127.749695 188.000397 L 127.749695 187.998398 C 75.939697 187.945404 55.960701 171.980408 31.999701 160.000397 C 7.999701 148.000397 11.999701 128.000397 11.999701 128.000397 L 15.999701 100.000397 C 19.999701 72.000397 31.999701 72.000397 31.999701 72.000397 C 42.217701 70.2444 55.694698 69.202408 69.308701 68.596405 C 69.227699 68.714401 69.140701 68.826401 69.067703 68.950409 C 68.847702 69.325409 68.590698 69.7724 68.303696 70.284409 C 66.731697 70.012405 65.135696 69.858398 63.520699 69.858398 C 61.2337 69.858398 58.949699 70.139404 56.729698 70.694397 L 53.0037 71.626404 C 50.057701 72.362396 47.999699 74.998398 47.999699 78.034409 C 47.999699 80.609406 49.5187 82.934402 51.7967 84.010406 C 51.715698 84.011398 51.634701 84.020401 51.553699 84.0224 C 44.0877 81.762405 36.7337 80.562408 32.426701 80.030411 C 32.259701 80.009399 32.0947 80.000397 31.9307 80.000397 C 30.022699 80.000397 28.349699 81.361404 27.999701 83.2854 L 20.065701 119.306396 C 19.6497 121.595398 21.2617 123.759399 23.575699 124.000397 C 27.221701 124.378403 32.910702 124.857407 39.228699 124.857407 C 43.576698 124.857407 48.2127 124.608398 52.690701 123.964401 C 53.126698 123.949402 53.563698 123.941406 53.994698 123.898407 C 53.9977 123.898407 53.999699 123.898407 54.001698 123.898407 C 54.000698 123.931396 53.999699 123.965393 53.999699 124.000397 C 53.999699 124.215393 54.008698 124.419403 54.009701 124.633408 C 48.873699 124.892395 43.0117 125.416397 36.554699 126.198395 C 36.208698 126.240402 35.8867 126.339401 35.575699 126.461395 C 35.4007 126.4384 35.2257 126.416397 35.047699 126.416397 C 34.880699 126.416397 34.7117 126.426407 34.543701 126.447403 C 30.002701 127.024399 26.4077 127.568405 24.668699 127.8414 C 22.9867 128.105408 21.460699 128.882401 20.255701 130.087402 L 18.433701 131.909393 C 16.7047 133.63739 15.8657 135.984406 16.1287 138.346405 C 17.324699 149.048401 26.231699 153.995392 28.932699 155.256409 C 29.9897 155.750397 31.117701 156.000397 32.284698 156.000397 C 32.964699 156.000397 33.645699 155.912399 34.306702 155.740402 C 35.167702 155.516403 36.980701 155.037399 39.453701 154.339401 C 39.785702 154.247406 40.0867 154.102402 40.3717 153.936401 C 40.717701 153.929398 41.063702 153.882401 41.401699 153.7854 C 45.312698 152.658401 50.978699 150.94339 56.639698 148.954407 C 57.001698 150.565399 57.384701 152.108398 57.786697 153.558411 C 54.179699 154.043396 51.0597 154.625397 48.5047 155.294403 C 46.438702 155.836395 44.846699 157.381409 44.244701 159.427399 C 43.648701 161.4534 44.144699 163.589401 45.569698 165.143402 C 48.4067 168.236389 55.436699 172.6064 64.748703 175.3974 C 65.127701 175.511398 65.514702 175.566406 65.897697 175.566406 C 66.214699 175.566406 66.527702 175.519409 66.833702 175.445404 C 67.016701 175.501404 67.202698 175.546402 67.395699 175.577393 C 67.561699 175.602402 68.012703 175.661407 68.608704 175.661407 C 69.2257 175.661407 69.804703 175.577393 70.359703 175.4534 C 77.6707 178.850403 96.7677 186.000397 127.999695 186.000397 C 158.950699 186.000397 177.974701 178.9814 185.431702 175.548401 C 186.197708 175.806396 187.009705 175.954407 187.850708 175.974396 C 187.883713 175.975403 187.91571 175.975403 187.949707 175.975403 C 188.307709 175.975403 188.65271 175.915405 188.98671 175.824402 C 189.047699 175.827393 189.107712 175.843399 189.167709 175.843399 C 189.40271 175.843399 189.636703 175.823395 189.870712 175.78241 C 189.9897 175.760406 190.107712 175.734406 190.222702 175.7034 C 200.043701 172.929398 207.440704 168.404404 210.43071 165.143402 C 211.855713 163.589401 212.3517 161.4534 211.755707 159.427399 C 211.727707 159.334396 211.687698 159.247406 211.656708 159.156403 C 211.945709 159.220398 212.223709 159.283401 212.478699 159.339401 C 212.7677 159.403397 213.057709 159.433411 213.343704 159.433411 C 213.537704 159.433411 213.729706 159.415405 213.918701 159.38739 C 214.376709 159.565399 214.859711 159.680389 215.360703 159.680389 C 215.464706 159.680389 215.56871 159.6754 215.672699 159.668396 C 217.20871 159.547394 218.653702 159.009399 219.849701 158.112396 L 230.821701 149.883392 C 232.7117 148.465393 233.595703 146.060394 233.0737 143.756409 C 232.758713 142.37439 231.966705 141.183411 230.886703 140.347397 C 231.91571 140.294403 232.786713 140.243408 233.460709 140.199402 C 237.127701 139.961395 239.99971 136.893402 239.99971 133.214401 L 239.99971 124.000397 C 239.99971 121.2854 238.637711 118.885406 236.564713 117.439407 C 239.02771 113.586395 237.479706 105.7724 235.650711 101.690399 L 235.618713 101.620407 C 235.058701 100.3694 234.2547 98.584396 232.638702 97.450394 C 234.106705 95.070404 233.8237 91.679398 231.702713 86.487396 C 231.569702 86.1604 231.439713 85.830399 231.309708 85.502396 C 230.015701 82.233398 228.059708 77.293396 222.659698 77.293396 C 222.050705 77.293396 221.418701 77.36441 220.7827 77.506409 L 212.175705 79.419403 C 211.837708 79.4944 211.521713 79.623398 211.219711 79.779404 C 211.162704 79.776398 211.107712 79.766403 211.049713 79.766403 C 210.762711 79.766403 210.47171 79.797409 210.18071 79.862396 L 207.516708 80.454407 C 207.819702 79.695404 207.99971 78.882401 207.99971 78.034409 C 207.99971 74.998398 205.942703 72.362396 202.995712 71.626404 L 199.269699 70.694397 C 197.050705 70.139404 194.766708 69.858398 192.479706 69.858398 C 190.863708 69.858398 189.266708 70.012405 187.694702 70.284409 C 187.418701 69.793396 187.161713 69.343399 186.94371 68.970398 L 186.94371 68.970398 C 186.868713 68.843399 186.780701 68.728409 186.697708 68.608398 C 200.224701 69.215408 213.597702 70.25441 223.74971 72.000397 C 223.74971 72.000397 235.74971 72.000397 239.74971 100.000397 L 243.74971 128.000397 C 243.74971 128.000397 247.74971 148.000397 223.74971 160.000397 M 176.947708 74.561401 L 174.941711 75.898407 C 173.099701 77.126404 171.99971 79.180405 171.99971 81.394409 L 171.99971 84.54541 C 171.99971 88.095398 174.813705 90.992401 178.325699 91.138397 C 177.44371 91.901398 176.684708 92.638397 176.048706 93.312408 C 174.1577 95.320404 173.630707 98.156403 174.676712 100.713394 C 175.485703 102.690399 177.074707 104.127396 179.024704 104.746399 C 178.895706 104.804398 178.751709 104.861404 178.625702 104.920395 C 176.591705 105.870407 175.197708 107.687408 174.752701 109.803406 C 171.713699 91.565399 163.940704 75.479401 161.078705 70.000397 L 181.764709 70.000397 C 182.470703 70.000397 183.133713 70.381409 183.493713 70.995407 C 183.547699 71.086411 183.610703 71.195404 183.667709 71.294403 C 181.309708 72.0784 179.046707 73.161407 176.947708 74.561401 M 202.110703 80.540405 L 179.321701 87.0504 C 179.078705 87.120407 178.837708 87.152405 178.600708 87.152405 C 177.209702 87.152405 175.99971 86.024399 175.99971 84.54541 L 175.99971 81.394409 C 175.99971 80.523407 176.435699 79.710403 177.159698 79.22641 L 179.16571 77.889404 C 183.144699 75.236404 187.784698 73.858398 192.479706 73.858398 C 194.424713 73.858398 196.378708 74.094406 198.299713 74.575409 L 202.026703 75.506409 C 203.186707 75.796402 203.99971 76.838409 203.99971 78.034409 C 203.99971 79.197403 203.228699 80.220398 202.110703 80.540405 M 212.495712 98.142395 L 200.025711 99.528397 C 200.018707 99.488403 200.021713 99.449402 200.012711 99.4104 C 199.826706 98.548401 199.635712 97.701401 199.437698 96.884399 C 198.633713 93.565399 197.650711 90.243408 196.521713 86.995407 L 209.1577 84.187408 C 209.202713 84.393402 209.246704 84.599396 209.326706 84.798401 C 211.008713 89.041397 212.419708 93.480408 213.528702 97.993408 C 213.190704 98.042404 212.839706 98.092407 212.495712 98.142395 M 216.238708 116.000397 L 202.252701 116.000397 C 202.015701 111.880402 201.543701 107.764404 200.847702 103.742401 C 205.02771 103.239395 209.186707 102.663406 213.006699 102.110397 L 214.451706 101.949402 C 214.463699 102.0634 214.460709 102.177399 214.483704 102.291397 C 215.373703 106.767395 215.955704 111.375397 216.238708 116.000397 M 212.784698 136.0784 C 212.7117 136.0634 212.638702 136.0504 212.565704 136.040405 C 208.699707 135.488403 205.076706 135.0634 201.734711 134.761398 C 202.247711 130.144409 202.478699 125.506393 202.4207 120.935394 C 204.024704 120.975403 205.683701 120.998398 207.387711 120.998398 C 210.225708 120.998398 213.261703 120.9384 216.422699 120.825394 C 216.495712 125.894394 216.20871 131.0354 215.544708 136.121399 C 215.524704 136.28241 215.534698 136.44339 215.534698 136.604401 C 215.491699 136.603394 215.450699 136.603394 215.408707 136.602402 Z M 198.716705 151.6754 C 199.401703 148.995392 200.023712 146.064392 200.537704 142.878403 C 200.730713 141.832397 200.910706 140.786407 201.074707 139.7444 C 205.268707 140.202393 209.891708 140.487396 214.872711 140.5914 C 214.867706 140.620392 214.854706 140.645401 214.849701 140.673401 C 214.048706 145.287399 212.933701 149.942398 211.535706 154.509399 C 211.48671 154.671402 211.4487 154.835403 211.419708 155.000397 C 208.134705 154.2444 203.469711 153.093399 198.716705 151.6754 M 194.9487 163.107391 C 195.643707 161.429398 196.3517 159.542389 197.039703 157.442398 C 200.398712 157.875397 203.687698 158.431396 206.480713 159.164398 C 207.937698 159.546402 208.500702 161.330399 207.482712 162.440399 C 205.403702 164.707397 199.719711 168.398407 191.826706 171.0224 C 191.816711 170.979401 191.810699 170.935394 191.798706 170.893402 C 192.938705 168.322403 193.983704 165.719391 194.9487 163.107391 M 190.802704 156.774399 C 189.331711 161.256409 187.56871 165.758392 185.534698 170.169403 C 185.422699 170.413391 185.34671 170.665405 185.285706 170.919403 C 182.7117 168.881409 178.274704 164.654388 176.270706 160.288391 C 175.363708 158.312408 176.854706 156.0784 179.005707 156.0784 C 179.039703 156.0784 179.075699 156.079407 179.110703 156.080399 C 181.803711 156.17041 186.110703 156.365402 190.802704 156.774399 M 179.440704 117.920395 C 180.356705 118.213394 181.353699 118.479401 182.394699 118.7314 C 179.697708 119.789398 177.610703 121.122406 176.324707 122.690399 C 176.202713 122.837402 176.093704 122.9944 175.985703 123.150406 C 175.951706 120.282394 175.755707 117.418396 175.428711 114.585403 C 176.263702 116.144394 177.671707 117.3564 179.440704 117.920395 M 180.31871 108.544403 C 182.872711 107.352402 186.947708 105.957397 193.422699 104.540405 C 193.900711 104.496399 194.382706 104.450394 194.8797 104.401398 C 195.556702 108.226395 196.008713 112.158401 196.244705 116.103409 C 195.081711 116.164398 193.951706 116.253403 192.857712 116.370407 C 188.349701 115.928406 184.128708 115.218399 180.656708 114.110397 C 178.072708 113.2854 177.859711 109.692398 180.31871 108.544403 M 193.584702 98.209396 C 193.743713 98.861404 193.904709 99.566406 194.06871 100.317398 C 193.648712 100.404404 193.220703 100.491394 192.812698 100.580399 C 189.182709 100.911407 185.788712 101.120407 182.947708 101.120407 C 182.292709 101.120407 181.666702 101.108398 181.074707 101.085403 C 178.506699 100.985397 177.1987 97.9254 178.959702 96.056396 C 181.240707 93.636398 185.013702 90.613403 190.730713 88.470398 C 190.7547 88.561401 190.762711 88.654404 190.793701 88.7444 C 191.868713 91.832397 192.808701 95.016403 193.584702 98.209396 M 179.99971 129.539398 C 178.605713 128.538391 178.327713 126.554398 179.416702 125.227402 C 180.898712 123.421402 185.270706 121.253403 192.867706 120.389404 C 194.010712 120.498398 195.201706 120.587402 196.422699 120.667404 C 196.494705 125.177399 196.266708 129.767395 195.747711 134.336395 C 194.419708 134.274399 193.154709 134.241394 191.951706 134.230408 C 187.159698 133.161407 182.9487 131.655396 179.99971 129.539398 M 191.457703 138.22641 C 192.626709 138.479401 193.848709 138.713409 195.127701 138.927399 C 194.560699 142.5354 193.80571 146.180389 192.866699 149.787399 C 184.859711 146.963409 178.258713 143.482391 179.99971 140.000397 C 179.99971 140.000397 181.7827 138.224396 191.263702 138.224396 C 191.326706 138.224396 191.395706 138.22641 191.457703 138.22641 M 98.689697 72.000397 L 119.174698 71.998398 L 127.999695 71.997406 L 136.784698 71.998398 L 157.311707 72.000397 C 160.128708 79.1064 167.99971 100.355408 167.99971 116.000397 C 167.99971 134.748398 160.495697 150.062408 160.421707 150.211395 L 160.312698 150.290405 L 160.225708 150.651398 C 159.747696 151.543396 154.502701 160.000397 127.999695 160.000397 C 101.733696 160.000397 96.347702 151.69339 95.788704 150.677399 L 95.7827 150.621399 L 95.577698 150.211395 C 95.501701 150.059402 87.999702 134.837402 87.999702 116.000397 C 87.999702 100.377396 95.871696 79.110397 98.689697 72.000397 M 171.99971 124.000397 C 171.99971 124.193405 171.956711 143.4814 168.204712 154.735397 C 166.871704 158.735397 160.645706 163.234406 151.549698 166.771393 C 142.313705 170.36441 132.868698 172.000397 127.999695 172.000397 C 123.132698 172.000397 113.686699 170.36441 104.449699 166.771393 C 95.354698 163.234406 89.127701 158.735397 87.794701 154.735397 C 84.049698 143.500397 83.999702 124.192398 83.999702 124.000397 C 83.999702 122.6884 84.040703 121.375397 84.111702 120.064407 C 85.065697 138.123398 91.999702 152.000397 91.999702 152.000397 C 91.999702 152.000397 95.999702 164.000397 127.999695 164.000397 C 159.999695 164.000397 163.999695 152.000397 163.999695 152.000397 C 163.999695 152.000397 170.935699 138.121399 171.888702 120.060394 C 171.959702 121.372406 171.99971 122.686401 171.99971 124.000397 M 58.930698 128.478394 C 59.534698 128.468399 60.1567 128.447403 60.744698 128.447403 C 68.445702 128.447403 74.666702 129.334412 75.999702 132.000397 C 77.687698 135.375397 70.119698 139.506409 60.805698 143.151398 C 59.8507 138.304398 59.215698 133.37439 58.930698 128.478394 M 83.3657 161.95639 C 84.355698 159.798401 84.178703 157.314392 82.8927 155.309402 C 81.595703 153.286407 79.389702 152.0784 76.993698 152.0784 C 76.914703 152.0784 76.835701 152.080399 76.755699 152.083405 C 73.130699 152.204407 67.619698 152.473389 61.945698 153.0634 C 61.910698 153.067398 61.877701 153.077393 61.842701 153.082397 C 61.3517 151.367401 60.880699 149.536407 60.447701 147.572403 C 75.470703 141.915405 78.651703 138.224396 79.774704 135.360397 C 80.449699 133.642395 80.3787 131.8134 79.577698 130.211395 C 77.557701 126.171402 71.925697 124.447403 60.744698 124.447403 C 59.873699 124.447403 58.950699 124.462402 58.007698 124.484406 C 58.006699 124.320404 57.999699 124.165405 57.999699 124.000397 C 57.999699 123.684402 58.009701 123.374405 58.013699 123.061401 C 58.263699 122.979401 58.509701 122.890396 58.7537 122.797394 C 67.5047 120.583405 74.630699 116.217407 75.999702 108.000397 C 77.230698 100.615402 73.2407 95.081406 67.125702 90.956406 C 66.326698 90.031403 65.437698 89.189407 64.483696 88.423401 C 64.558701 88.212402 64.634697 87.999405 64.710701 87.791397 L 75.579697 90.8974 C 76.173698 91.066406 76.785698 91.152405 77.399704 91.152405 C 81.038704 91.152405 83.999702 88.189407 83.999702 84.54541 L 83.999702 81.394409 C 83.999702 79.180405 82.900703 77.126404 81.058701 75.898407 L 79.052704 74.561401 C 76.952698 73.161407 74.690697 72.077408 72.331703 71.294403 C 72.394699 71.186401 72.459702 71.074402 72.516701 70.97641 C 72.870697 70.374405 73.529701 70.000397 74.235703 70.000397 L 94.9217 70.000397 C 91.331703 76.873398 79.999702 100.434402 79.999702 124.000397 C 79.999702 124.000397 79.999702 144.000397 83.999702 156.000397 C 87.999702 168.000397 115.999695 176.000397 127.999695 176.000397 C 139.999695 176.000397 167.99971 168.000397 171.99971 156.000397 C 174.523712 148.430389 175.453705 137.681396 175.797699 130.774399 C 176.280701 131.555389 176.910706 132.245392 177.667709 132.789398 C 178.839706 133.629395 180.177704 134.396393 181.677704 135.096405 C 179.589706 135.587402 178.067703 136.279388 177.177704 137.166397 C 176.870712 137.470398 176.616699 137.824402 176.421707 138.210403 C 175.554703 139.945404 175.490707 141.896393 176.240707 143.704407 C 177.18071 145.969391 179.541702 148.959396 188.972702 152.612396 C 185.166702 152.323395 181.722702 152.166397 179.244705 152.083405 C 179.164703 152.080399 179.084702 152.0784 179.005707 152.0784 C 176.609711 152.0784 174.404709 153.286407 173.107712 155.309402 C 171.821701 157.314392 171.644699 159.798401 172.634705 161.95639 C 174.798706 166.671402 178.998703 170.780396 181.421707 172.895401 C 173.023712 176.349396 155.133698 182.000397 127.999695 182.000397 C 100.853699 182.000397 82.970703 176.346405 74.579697 172.895401 C 77.001701 170.779404 81.201698 166.67041 83.3657 161.95639 M 70.372704 171.1884 C 70.2267 171.299408 70.060699 171.380402 69.889702 171.448395 C 69.873703 170.922394 69.761703 170.396393 69.534698 169.900391 C 67.558701 165.588409 65.843697 161.200409 64.409698 156.842407 C 69.405701 156.385406 74.0467 156.1754 76.889702 156.080399 C 76.924698 156.079407 76.959702 156.0784 76.993698 156.0784 C 79.145699 156.0784 80.636703 158.312408 79.729698 160.288391 C 77.635696 164.850403 72.876701 169.269409 70.372704 171.1884 M 58.554699 158.277405 C 59.909698 162.450409 61.522697 166.625397 63.335701 170.730408 C 55.881699 168.130402 50.521698 164.626404 48.5177 162.440399 C 47.499699 161.330399 48.061699 159.546402 49.5187 159.164398 C 52.1567 158.472397 55.235699 157.934402 58.397697 157.511398 C 58.428699 157.769409 58.472698 158.026398 58.554699 158.277405 M 70.6847 111.071396 C 70.841698 110.657394 71.000702 110.245407 71.130699 109.819397 C 71.205704 109.572403 71.257698 109.319397 71.3237 109.070404 C 71.422699 108.693405 71.529701 108.320404 71.606697 107.935394 C 71.679703 107.573395 71.721703 107.206406 71.774704 106.840408 C 71.814697 106.558395 71.870697 106.281403 71.898697 105.995407 C 71.964699 105.335403 71.999702 104.669403 71.999702 104.000397 C 71.999702 103.682404 71.967697 103.368408 71.951698 103.052399 C 72.2687 104.414398 72.305702 105.836395 72.054703 107.342407 C 71.849701 108.571396 71.4217 109.846405 70.673698 111.102402 C 70.677704 111.0914 70.680702 111.081406 70.6847 111.071396 M 62.6717 113.255402 C 63.220699 113.621399 63.819698 113.879395 64.444702 114.046402 C 63.731701 114.928406 62.9277 115.7314 62.0457 116.444397 C 61.8797 115.824402 61.6227 115.223404 61.255699 114.671402 L 58.422699 110.422394 Z M 58.422699 97.577408 L 61.255699 93.3284 C 61.6227 92.776398 61.8797 92.1754 62.0457 91.555405 C 62.9277 92.268402 63.731701 93.071396 64.444702 93.9534 C 63.819698 94.120407 63.220699 94.378403 62.6717 94.7444 Z M 58.495701 102.335403 L 64.890701 98.072403 C 65.234703 97.843399 65.607697 97.741394 65.971703 97.741394 C 66.257698 97.741394 66.537697 97.804398 66.7957 97.917404 C 67.180702 98.854401 67.481697 99.834396 67.685699 100.849396 C 67.700699 100.918396 67.705696 100.990402 67.718697 101.059402 C 67.800697 101.499405 67.873703 101.942398 67.918701 102.395401 C 67.971703 102.922394 67.999702 103.458405 67.999702 104.000397 C 67.999702 104.542404 67.971703 105.077408 67.918701 105.605408 C 67.873703 106.057404 67.800697 106.500397 67.718697 106.940399 C 67.705696 107.009399 67.700699 107.081406 67.685699 107.150406 C 67.481697 108.165405 67.180702 109.146408 66.7957 110.082397 C 66.537697 110.195404 66.257698 110.258408 65.971703 110.258408 C 65.607697 110.258408 65.234703 110.156403 64.890701 109.927399 L 58.495701 105.664398 C 57.308701 104.872406 57.308701 103.127396 58.495701 102.335403 M 49.0597 119.718399 C 48.9907 119.705399 48.918701 119.700394 48.849701 119.686401 C 47.834702 119.4814 46.853699 119.181396 45.917698 118.795395 C 45.659698 118.209396 45.6637 117.504395 46.072701 116.890396 L 50.335701 110.496399 C 50.731701 109.902405 51.3657 109.605408 51.999699 109.605408 C 52.634701 109.605408 53.2687 109.902405 53.6637 110.496399 L 57.9277 116.890396 C 58.3367 117.504395 58.340698 118.209396 58.082699 118.795395 C 57.145699 119.181396 56.165699 119.4814 55.1507 119.686401 C 55.081699 119.700394 55.009701 119.705399 54.940701 119.718399 C 54.500698 119.8004 54.056698 119.873398 53.604698 119.919403 C 53.076698 119.971405 52.541698 120.000397 51.999699 120.000397 C 51.457699 120.000397 50.922699 119.971405 50.394699 119.919403 C 49.942699 119.873398 49.499699 119.8004 49.0597 119.718399 M 41.327702 113.255402 L 45.577702 110.422394 L 42.744701 114.671402 C 42.376701 115.223404 42.119701 115.824402 41.953701 116.444397 C 41.072701 115.7314 40.2687 114.928406 39.555698 114.046402 C 40.180698 113.879395 40.779701 113.621399 41.327702 113.255402 M 39.555698 93.9534 C 40.2687 93.071396 41.072701 92.268402 41.953701 91.555405 C 42.119701 92.1754 42.376701 92.776398 42.744701 93.3284 L 45.577702 97.577408 L 41.327702 94.7444 C 40.779701 94.378403 40.180698 94.120407 39.555698 93.9534 M 45.5037 102.335403 C 46.6917 103.127396 46.6917 104.872406 45.5037 105.664398 L 39.109699 109.927399 C 38.764702 110.156403 38.3927 110.258408 38.028702 110.258408 C 37.742699 110.258408 37.4617 110.195404 37.203701 110.082397 C 36.818699 109.146408 36.5187 108.165405 36.313702 107.150406 C 36.299702 107.081406 36.294701 107.009399 36.2817 106.940399 C 36.199699 106.500397 36.126701 106.057404 36.0807 105.605408 C 36.028702 105.077408 35.999699 104.542404 35.999699 104.000397 C 35.999699 103.458405 36.028702 102.922394 36.0807 102.395401 C 36.126701 101.942398 36.199699 101.499405 36.2817 101.059402 C 36.294701 100.990402 36.299702 100.918396 36.313702 100.849396 C 36.5187 99.834396 36.818699 98.854401 37.203701 97.917404 C 37.4617 97.804398 37.742699 97.741394 38.028702 97.741394 C 38.3927 97.741394 38.764702 97.843399 39.109699 98.072403 Z M 53.935699 105.935394 C 53.319698 105.725403 52.669701 105.605408 51.999699 105.605408 C 51.3297 105.605408 50.680698 105.725403 50.064701 105.935394 C 50.2747 105.319397 50.394699 104.669403 50.394699 104.000397 C 50.394699 103.330399 50.2747 102.679398 50.064701 102.064407 C 50.680698 102.274399 51.3297 102.394394 51.999699 102.394394 C 52.669701 102.394394 53.319698 102.274399 53.935699 102.064407 C 53.7257 102.679398 53.605698 103.330399 53.605698 104.000397 C 53.605698 104.669403 53.7257 105.319397 53.935699 105.935394 M 55.1507 88.314407 C 56.165699 88.518402 57.145699 88.818405 58.082699 89.204407 C 58.340698 89.790405 58.3367 90.495407 57.9277 91.109406 L 53.6637 97.503403 C 53.2687 98.097397 52.634701 98.394394 51.999699 98.394394 C 51.3657 98.394394 50.731701 98.097397 50.335701 97.503403 L 46.072701 91.109406 C 45.6637 90.495407 45.659698 89.790405 45.917698 89.204407 C 46.853699 88.818405 47.834702 88.518402 48.849701 88.314407 C 48.918701 88.299408 48.9907 88.294403 49.0597 88.281403 C 49.499699 88.199402 49.942699 88.126404 50.394699 88.081406 C 50.922699 88.028397 51.457699 88.000397 51.999699 88.000397 C 52.541698 88.000397 53.076698 88.028397 53.604698 88.081406 C 54.056698 88.126404 54.500698 88.199402 54.940701 88.281403 C 55.009701 88.294403 55.081699 88.299408 55.1507 88.314407 M 76.833702 77.889404 L 78.839699 79.22641 C 79.564697 79.710403 79.999702 80.523407 79.999702 81.394409 L 79.999702 84.54541 C 79.999702 86.024399 78.789703 87.152405 77.399704 87.152405 C 77.162697 87.152405 76.9207 87.120407 76.678703 87.0504 L 53.889698 80.540405 C 52.771698 80.220398 51.999699 79.197403 51.999699 78.034409 C 51.999699 76.838409 52.813698 75.796402 53.973698 75.506409 L 57.700699 74.575409 C 59.620701 74.094406 61.575699 73.858398 63.519699 73.858398 C 68.215698 73.858398 72.854698 75.236404 76.833702 77.889404 M 31.935699 84.000397 C 34.016701 84.257401 38.2607 84.858398 43.250698 85.97641 L 42.903702 86.1194 L 42.852699 86.234406 C 39.161701 88.143402 36.1437 91.162399 34.234699 94.853409 L 34.118702 94.903397 L 33.588699 96.192398 C 33.577702 96.218399 33.567699 96.243408 33.556702 96.269394 L 33.505699 96.395401 C 33.432701 96.570404 33.382702 96.752396 33.314701 96.929398 C 33.158699 97.342407 32.998699 97.754395 32.869701 98.180405 C 32.793701 98.427399 32.742699 98.679398 32.676701 98.928406 C 32.577702 99.305405 32.470699 99.679398 32.3927 100.064407 C 32.320702 100.426407 32.278702 100.794403 32.2257 101.159409 C 32.1847 101.441406 32.1297 101.718399 32.1007 102.004395 C 32.034698 102.665405 31.999701 103.330399 31.999701 104.000397 C 31.999701 104.669403 32.034698 105.335403 32.1007 105.995407 C 32.1297 106.281403 32.1847 106.558395 32.2257 106.840408 C 32.278702 107.206406 32.320702 107.573395 32.3927 107.935394 C 32.470699 108.320404 32.576698 108.693405 32.676701 109.070404 C 32.742699 109.319397 32.793701 109.572403 32.869701 109.819397 C 32.999699 110.245407 33.158699 110.657394 33.314701 111.071396 C 33.382702 111.248398 33.432701 111.429398 33.505699 111.605408 L 33.556702 111.730408 C 33.567699 111.755402 33.577702 111.781403 33.588699 111.807404 L 34.118702 113.096405 L 34.234699 113.1474 C 35.861698 116.293396 38.299702 118.942398 41.2677 120.840393 C 40.602699 120.852402 39.922699 120.857407 39.228699 120.857407 C 34.4617 120.857407 29.335699 120.576401 24.0037 120.0224 L 31.9067 84.145401 L 31.9237 84.071396 Z M 54.9837 144.665405 C 55.023701 144.862396 55.096699 145.046402 55.1637 145.233398 C 50.654701 146.815399 46.090698 148.23941 42.217701 149.380402 C 40.5807 143.004395 39.509701 136.526398 39.036701 130.122406 C 39.0327 130.058411 39.0117 130.000397 39.0047 129.937408 C 43.354698 129.436401 48.203701 128.970398 52.936699 128.696411 C 52.937698 128.711395 52.933701 128.727402 52.9347 128.742401 C 53.2397 134.040405 53.928699 139.3974 54.9837 144.665405 M 227.99971 96.000397 C 227.034698 96.000397 223.83371 96.4664 219.453705 97.117401 C 219.435699 96.996399 219.433701 96.874405 219.404709 96.754395 C 218.255707 92.038406 216.7677 87.380402 214.993713 82.890396 L 221.650711 81.411407 C 222.010712 81.331406 222.345703 81.293396 222.659698 81.293396 C 225.654709 81.293396 226.669708 84.742401 227.99971 88.000397 C 229.839706 92.506409 230.307709 96.000397 227.99971 96.000397 M 231.99971 116.000397 L 222.251709 116.000397 C 221.965714 111.041397 221.343704 106.097397 220.395706 101.289398 L 228.44371 100.395401 C 228.6297 100.374405 228.802704 100.364395 228.965714 100.364395 C 230.696701 100.364395 231.186707 101.510406 231.99971 103.326401 C 234.100708 108.013397 234.826706 116.000397 231.99971 116.000397 M 228.421707 146.683411 L 217.717712 154.711395 C 218.97171 150.412399 219.997711 146.0634 220.748703 141.750397 L 227.613708 143.123398 C 229.308701 143.461395 229.804703 145.646393 228.421707 146.683411 M 221.520706 136.627411 C 222.203705 131.292389 222.503708 125.894394 222.418701 120.558395 C 224.784698 120.431396 226.8647 120.299393 228.469711 120.196396 C 230.119705 120.090393 231.5457 120.000397 231.99971 120.000397 C 234.20871 120.000397 235.99971 121.791397 235.99971 124.000397 L 235.99971 133.214401 C 235.99971 134.79541 234.780701 136.105408 233.201706 136.208405 C 230.681702 136.371399 226.502701 136.5784 221.520706 136.627411 M 247.697708 127.346405 L 243.709702 99.434402 C 239.620712 70.814407 227.067703 68.230408 224.194702 68.018402 C 203.766708 64.543396 171.210709 63.8134 147.451706 63.8134 C 136.7547 63.8134 129.082703 63.969406 127.874695 63.996399 C 126.666695 63.969406 118.998695 63.8134 108.298698 63.8134 C 84.539703 63.8134 51.984699 64.543396 31.5557 68.018402 C 28.682699 68.230408 16.1287 70.814407 12.0397 99.434402 L 8.0527 127.346405 C 7.8617 128.398407 7.0567 133.7854 9.176701 140.676392 C 11.231701 147.353394 16.5487 156.746399 30.210699 163.5784 C 33.901699 165.422394 37.438702 167.333405 41.183701 169.355408 C 60.203701 179.627411 81.682701 191.228394 123.749695 191.961395 L 123.749695 191.998398 L 127.749695 192.000397 L 127.870697 191.999405 L 127.999695 192.000397 L 131.999695 192.000397 L 131.999695 191.961395 C 174.067703 191.228394 195.5457 179.627411 214.566711 169.355408 C 218.311707 167.333405 221.848709 165.422394 225.538712 163.5784 C 239.201706 156.746399 244.518707 147.353394 246.5737 140.676392 C 248.69371 133.7854 247.888702 128.398407 247.697708 127.346405"/>
    <path id="path1" fill="#ffffff" stroke="none" d="M 154 148 L 102 148 L 102 84 L 154 84 Z M 158 80 L 98 80 L 98 152 L 158 152 Z"/>
</svg>
