<?xml version="1.0" encoding="UTF-8"?>
<!-- Generated by Pixelmator Pro 3.7.1 -->
<svg width="256" height="256" viewBox="0 0 256 256" xmlns="http://www.w3.org/2000/svg">
    <path id="Path" fill="#ffffff" stroke="none" d="M 188 184 C 188 184 184 196 124 196 C 64 196 12 172 12 112 C 12 112 12 80 32 76 L 68 68 C 68 68 64 60 124 60 C 184 60 216 72 216 72 C 216 72 244 76 244 104 C 244 132 236 172 188 184 M 232.162994 74.13501 C 225.481003 69.839996 218.811996 68.432999 217.020996 68.11499 C 213.041992 66.690002 181.253998 56 124 56 C 103.710999 56 88.419998 56.912003 78.551003 58.710999 C 70.997002 60.087997 66.776001 61.904999 64.946999 64.580994 L 31.171997 72.085999 C 8.261993 76.709 8 110.561005 8 112 C 8 127.123993 11.212006 140.697998 17.548996 152.348999 C 23.470993 163.238007 32.134995 172.488007 43.300003 179.841003 C 63.327003 193.028992 91.232002 200 124 200 C 172.856995 200 186.619995 192.093002 190.479996 187.48999 C 228.119995 177.462006 248 148.626999 248 104 C 248 87.731003 239.388 78.779999 232.162994 74.13501"/>
    <path id="path1" fill="#ffffff" stroke="none" d="M 236 120 C 236 126.869995 232.401993 137.192993 225.869995 149.070007 C 222.779007 154.688995 218.419998 159.643997 213.264008 163.397003 C 190.520996 179.951996 163.938004 188 132 188 C 102.169998 188 71.884995 180.826996 69.166 180.166992 C 52.018005 173.880997 38.542999 162.472992 29.112 146.255997 C 22.662003 135.164001 20.393005 125.453995 20 123.600998 L 20 100.346008 C 23.727997 79.910004 56.117004 76.011993 56.442001 75.975998 L 56.518005 75.966995 L 56.593002 75.955994 L 99.416 69.533005 C 107.511993 68.636993 116.431 68.182007 125.925003 68.182007 C 136.122009 68.182007 146.710999 68.714005 156.55899 69.721008 L 195.326004 75.942993 C 206.934006 78.057999 222.520996 82.727997 230.949005 92.968002 C 235.813995 98.876999 235.994995 103.841003 236 104 Z M 196 72 L 157.080002 65.752991 C 147.712997 64.791992 136.936996 64.182007 125.925003 64.182007 C 116.857002 64.182007 107.630997 64.595001 98.897995 65.56601 L 79.686996 68.446991 C 79.080994 67.009003 77.658005 66 76 66 C 73.929993 66 72.246994 67.578003 72.041 69.593994 L 56 72 C 56 72 20 76 16 100 L 16 124 C 16 124 24 168 68 184 C 68 184 100 192 132 192 C 146.973999 192 161.945999 190.242004 176.511002 185.919006 C 177.19101 187.153 178.490005 188 180 188 C 182.209 188 184 186.209 184 184 C 184 183.777008 183.977997 183.610001 183.942001 183.471008 C 194.833008 179.520996 205.451004 174.031006 215.617004 166.630997 C 221.296997 162.496002 225.988998 157.153 229.375 150.998001 C 234.022003 142.548004 240 129.778992 240 120 L 240 104 C 240 104 240 80 196 72"/>
    <path id="path2" fill="#ffffff" stroke="none" d="M 96 88 L 156 88 L 156 160 L 96 160 Z M 92 164 L 160 164 L 160 84 L 92 84 Z"/>
    <path id="path3" fill="#ffffff" stroke="none" d="M 74 140 C 70.686996 140 68 137.313004 68 134 C 68 130.686996 70.686996 128 74 128 C 77.313004 128 80 130.686996 80 134 C 80 137.313004 77.313004 140 74 140 M 74 124 C 68.486 124 64 128.485992 64 134 C 64 139.514008 68.486 144 74 144 C 79.514 144 84 139.514008 84 134 C 84 128.485992 79.514 124 74 124"/>
    <path id="path4" fill="#ffffff" stroke="none" d="M 180 129 L 190.682007 129 C 190.382996 131.44101 189.863998 133.85199 189.130005 136.210999 L 180 135.55899 Z M 176 139.28299 L 191.893005 140.417999 C 193.770996 135.600998 194.854996 130.412994 194.975006 125 L 176 125 Z"/>
    <path id="path5" fill="#ffffff" stroke="none" d="M 188.223602 170.566406 C 191.161606 169.0224 193.953598 167.2164 196.577606 165.165405 L 200.966599 165.896393 C 197.305603 167.936401 193.226593 169.674408 188.7556 171.098389 Z M 205.403595 156.498398 C 207.597595 153.786407 209.5056 150.882401 211.115601 147.806396 L 218.462601 148.33139 C 216.6996 151.689392 214.516602 154.7854 211.9366 157.587402 Z M 222.209595 138.573395 L 215.019592 138.059402 C 215.869598 135.094391 216.447601 132.06839 216.746597 129.000397 L 223.799606 129.000397 C 223.536606 132.335403 223.0056 135.536407 222.209595 138.573395 M 223.552597 119.000397 L 216.741592 119.000397 C 216.467606 116.261398 215.968597 113.546402 215.248596 110.872406 L 221.511597 109.977402 C 222.467606 112.826401 223.150604 115.842407 223.552597 119.000397 M 151.999603 176.000397 L 103.999603 176.000397 C 91.707603 176.000397 80.901604 174.781403 71.624603 172.375397 L 75.432602 168.566406 C 81.175606 170.773407 87.4366 172.000397 93.999603 172.000397 L 161.999603 172.000397 C 189.614594 172.000397 211.999603 150.509399 211.999603 124.000397 C 211.999603 103.582397 198.720596 86.141403 179.999603 79.204407 C 178.525604 78.65741 177.013596 78.181396 175.474594 77.768402 C 177.940598 78.173401 180.317596 78.648407 182.604599 79.192398 C 188.577606 81.736404 193.899597 85.332397 198.347595 89.710403 L 204.767593 88.426407 C 205.532593 88.941406 206.276596 89.473404 206.997604 90.020401 L 200.0056 91.418396 C 203.892593 95.623398 207.025604 100.44841 209.238602 105.670395 L 219.137604 104.255402 C 219.456604 104.877396 219.766602 105.50441 220.053604 106.145401 L 209.995605 107.582397 C 211.8246 112.469406 212.864594 117.667404 212.980606 123.000397 L 223.919601 123.000397 C 223.952606 123.658401 223.965607 124.3284 223.9776 125.000397 L 212.980606 125.000397 C 212.856598 130.870392 211.646606 136.486389 209.547592 141.679398 L 221.361603 142.523407 C 221.1306 143.182404 220.887604 143.834396 220.626602 144.475403 L 208.710602 143.62439 C 206.0186 149.518402 202.148605 154.805389 197.395599 159.218399 L 208.248596 161.027405 C 208.231598 161.042389 208.2146 161.057404 208.197601 161.072403 C 207.507599 161.628403 206.790604 162.165405 206.060593 162.690399 L 195.458603 160.923401 C 191.288605 164.418396 186.528595 167.279404 181.332596 169.333405 L 184.374603 172.375397 C 175.098602 174.781403 164.291595 176.000397 151.999603 176.000397 M 31.999601 126.000397 C 31.999601 111.198395 37.316601 99.399399 47.802593 90.927399 C 55.872601 84.408401 66.8396 80.019409 80.516602 77.769409 C 71.184601 80.275406 62.954601 85.314407 56.681591 92.066406 C 47.358593 92.7444 39.999599 100.503403 39.999599 110.000397 C 39.999599 114.3284 41.529598 118.297394 44.075603 121.402405 C 44.027599 122.262405 43.999599 123.128403 43.999599 124.000397 C 43.999599 130.804398 45.483593 137.274399 48.143597 143.139404 L 47.999599 143.169403 C 50.449596 148.558411 53.909603 153.421402 58.133602 157.562408 L 58.232601 157.525391 C 58.744595 158.029404 59.268597 158.519409 59.8036 159.001404 L 59.802593 159.001404 L 49.942593 162.692398 C 49.210598 162.166397 48.493603 161.629395 47.802593 161.072403 C 37.316601 152.60141 31.999601 140.8004 31.999601 126.000397 M 45.999599 116.000397 L 51.999599 116.000397 L 51.999599 122.000397 C 51.999599 122.218399 52.013592 122.434402 52.036602 122.6474 C 49.107601 121.260406 46.739605 118.892395 45.352596 115.963394 C 45.565594 115.986404 45.781597 116.000397 45.999599 116.000397 M 51.999599 98.000397 L 51.999599 104.000397 L 45.999599 104.000397 C 45.781597 104.000397 45.565594 104.013397 45.352596 104.036407 C 46.739605 101.107407 49.107601 98.739395 52.036602 97.352402 C 52.013592 97.565399 51.999599 97.781403 51.999599 98.000397 M 69.999603 104.000397 L 63.999599 104.000397 L 63.999599 98.000397 C 63.999599 97.781403 63.986599 97.565399 63.963596 97.352402 C 66.892601 98.739395 69.260605 101.107407 70.647606 104.036407 C 70.434601 104.013397 70.218605 104.000397 69.999603 104.000397 M 63.999599 122.000397 L 63.999599 116.000397 L 69.999603 116.000397 C 70.218605 116.000397 70.434601 115.986404 70.647606 115.963394 C 69.260605 118.892395 66.892601 121.260406 63.963596 122.6474 C 63.986599 122.434402 63.999599 122.218399 63.999599 122.000397 M 55.999599 122.000397 C 55.999599 120.895401 56.895596 120.000397 57.999599 120.000397 C 59.104595 120.000397 59.999599 120.895401 59.999599 122.000397 C 59.999599 123.102402 59.102596 124.000397 57.999599 124.000397 C 56.897594 124.000397 55.999599 123.102402 55.999599 122.000397 M 71.999603 110.000397 C 71.999603 111.102402 71.1026 112.000397 69.999603 112.000397 C 68.895599 112.000397 67.999603 111.104401 67.999603 110.000397 C 67.999603 108.895401 68.895599 108.000397 69.999603 108.000397 C 71.1026 108.000397 71.999603 108.8974 71.999603 110.000397 M 59.999599 98.000397 C 59.999599 99.104401 59.104595 100.000397 57.999599 100.000397 C 56.895596 100.000397 55.999599 99.104401 55.999599 98.000397 C 55.999599 96.8974 56.897594 96.000397 57.999599 96.000397 C 59.102596 96.000397 59.999599 96.8974 59.999599 98.000397 M 51.649593 108.000397 L 51.999599 108.000397 L 55.999599 108.000397 L 55.999599 104.000397 L 55.999599 103.649399 C 56.626598 103.872406 57.297604 104.000397 57.999599 104.000397 C 58.702602 104.000397 59.372601 103.872406 59.999599 103.649399 L 59.999599 104.000397 L 59.999599 108.000397 L 63.999599 108.000397 L 64.349602 108.000397 C 64.127602 108.627396 63.999599 109.297394 63.999599 110.000397 C 63.999599 110.702408 64.127602 111.373398 64.349602 112.000397 L 63.999599 112.000397 L 59.999599 112.000397 L 59.999599 116.000397 L 59.999599 116.350403 C 59.372601 116.127396 58.702602 116.000397 57.999599 116.000397 C 57.297604 116.000397 56.626598 116.127396 55.999599 116.350403 L 55.999599 116.000397 L 55.999599 112.000397 L 51.999599 112.000397 L 51.649593 112.000397 C 51.872601 111.373398 51.999599 110.702408 51.999599 110.000397 C 51.999599 109.297394 51.872601 108.627396 51.649593 108.000397 M 43.999599 110.000397 C 43.999599 108.8974 44.897594 108.000397 45.999599 108.000397 C 47.104595 108.000397 47.999599 108.895401 47.999599 110.000397 C 47.999599 111.104401 47.104595 112.000397 45.999599 112.000397 C 44.897594 112.000397 43.999599 111.102402 43.999599 110.000397 M 59.3186 152.847397 C 57.395596 150.734406 55.680599 148.445404 54.202602 146.006409 L 61.120602 144.623398 C 61.757595 146.383392 62.6786 148.646393 63.934597 151.1194 Z M 68.012604 160.270401 L 69.444603 159.734406 C 70.2686 160.759399 71.127602 161.721405 72.012604 162.629395 C 70.633606 161.908401 69.300606 161.1194 68.012604 160.270401 M 67.244606 171.097397 C 64.289604 170.154404 61.469601 169.059402 58.833599 167.83139 C 57.307598 167.080399 55.731594 166.258392 54.145596 165.390396 L 58.989605 163.577393 C 61.932598 165.996399 65.114601 168.088409 68.504601 169.837402 Z M 177.489594 85.489395 C 180.202606 87.552399 182.674606 89.875397 184.885605 92.403397 L 192.305603 90.919403 C 192.945602 91.456406 193.564606 92.013397 194.172607 92.585403 L 186.3526 94.149399 C 189.646606 98.279404 192.259598 102.903397 194.071594 107.837402 L 204.168594 106.394409 C 204.455597 107.023407 204.724594 107.658401 204.980606 108.298401 L 194.743607 109.760406 C 196.099594 114.003403 196.870605 118.452408 196.969604 123.000397 L 207.980606 123.000397 C 207.988602 123.333405 207.999603 123.666397 207.999603 124.000397 C 207.999603 124.335403 207.981598 124.666397 207.973602 125.000397 L 196.969604 125.000397 C 196.854599 130.454407 195.794601 135.686401 193.9646 140.566406 L 204.287598 141.303406 C 203.994598 141.958405 203.684601 142.604401 203.358597 143.242401 L 193.179596 142.514404 C 190.900604 147.860397 187.654602 152.721405 183.6716 156.931396 L 190.967606 158.1474 C 190.230606 158.720398 189.471603 159.267395 188.698593 159.796402 L 181.955597 158.672394 C 180.554596 160.015411 179.083603 161.292389 177.528595 162.471405 L 175.999603 164.000397 L 177.441605 165.441406 C 172.612595 167.093399 167.415604 168.000397 161.999603 168.000397 L 93.999603 168.000397 C 88.538605 168.000397 83.298599 167.084396 78.4366 165.406403 L 79.842606 164.000397 C 76.110603 161.511398 73.153603 158.251404 70.848602 154.937408 L 64.162605 157.440399 C 63.573597 156.958405 62.996601 156.462402 62.432598 155.9534 L 69.718605 153.224396 C 65.461601 146.462402 63.842602 140.000397 63.842602 140.000397 L 52.208599 142.327393 C 49.657604 137.023407 48.168606 131.159393 48.0256 124.980408 C 50.881603 126.885406 54.309597 128.000397 57.999599 128.000397 C 67.941605 128.000397 75.999603 119.941406 75.999603 110.000397 C 75.999603 101.427399 70.001602 94.268402 61.977596 92.455399 C 70.265602 84.755402 81.5606 80.000397 93.999603 80.000397 L 161.999603 80.000397 C 167.312607 80.000397 172.500595 80.865402 177.446594 82.553406 L 175.999603 84.000397 Z M 186.567596 87.987396 L 186.315598 88.038406 C 186.152603 87.867401 185.989594 87.69841 185.825607 87.530396 C 186.0746 87.680405 186.321594 87.833405 186.567596 87.987396 M 196.278595 96.243408 C 198.090607 98.293396 199.691605 100.482407 201.071594 102.796402 L 196.608597 103.434402 C 195.613602 101.169403 194.459595 98.977402 193.154602 96.868408 Z M 206.679596 119.000397 L 200.729599 119.000397 C 200.531601 117.015396 200.213593 115.040405 199.779602 113.082397 L 205.261597 112.298401 C 205.923599 114.501404 206.397598 116.739395 206.679596 119.000397 M 204.770599 137.3284 L 199.310593 136.9384 C 199.995605 134.329407 200.471603 131.677399 200.735596 129.000397 L 206.687607 129.000397 C 206.341599 131.832397 205.701599 134.615402 204.770599 137.3284 M 193.612595 154.533401 L 191.178604 154.128403 C 192.881607 151.767395 194.376602 149.287399 195.655594 146.702393 L 199.980606 147.010406 C 198.1716 149.725403 196.042603 152.240402 193.612595 154.533401 M 199.596603 85.381409 L 199.593597 85.382401 L 199.587601 85.376404 C 199.590607 85.378403 199.593597 85.37941 199.596603 85.381409 M 210.875595 93.32341 C 213.194595 95.528397 215.216599 97.9384 216.926605 100.531403 L 211.626602 101.288406 C 210.376602 98.764404 208.927597 96.343399 207.286606 94.041397 Z M 227.174606 116.170395 C 227.052597 115.462402 226.916595 114.758408 226.767593 114.059402 C 226.759598 114.0224 226.750595 113.985397 226.743607 113.949402 C 223.119598 97.204407 211.321594 83.428406 188.398605 76.616409 C 188.373596 76.608398 188.350601 76.60141 188.327606 76.594406 C 178.382599 73.648407 166.367599 72.000397 151.999603 72.000397 L 103.999603 72.000397 C 48.771603 72.000397 27.999601 96.176407 27.999601 126.000397 C 27.999601 143.428406 35.111599 158.919403 52.030605 168.792389 C 52.030605 168.792389 52.030605 168.793396 52.031597 168.793396 C 53.631603 169.72641 55.324596 170.607391 57.103603 171.4384 L 57.104595 171.4384 C 57.105602 171.439392 57.105602 171.439392 57.106594 171.439392 C 60.527599 173.036407 64.271599 174.441406 68.376602 175.620392 C 68.377602 175.620392 68.378601 175.620392 68.379601 175.621399 C 78.183601 178.434402 89.975601 180.000397 103.999603 180.000397 L 151.999603 180.000397 C 166.023605 180.000397 177.816605 178.434402 187.620605 175.621399 C 187.620605 175.620392 187.620605 175.620392 187.621597 175.620392 C 188.849594 175.267395 190.045593 174.894409 191.210602 174.504395 C 191.254593 174.48941 191.2966 174.472397 191.340607 174.458405 C 192.466599 174.0784 193.564606 173.680389 194.632599 173.265396 C 194.674606 173.24939 194.7146 173.2314 194.7556 173.214401 C 195.826599 172.796402 196.869598 172.362396 197.882599 171.909393 C 197.902603 171.900391 197.9216 171.890411 197.942596 171.881409 C 219.221603 162.353394 227.999603 145.372406 227.999603 126.000397 C 227.999603 122.681396 227.726593 119.437393 227.193604 116.283401 C 227.1866 116.246399 227.180603 116.208405 227.174606 116.170395"/>
    <path id="path6" fill="#ffffff" stroke="none" d="M 180 115.9077 L 189.847992 114.500702 C 190.207001 115.990707 190.481995 117.492706 190.673004 118.999695 L 180 118.999695 Z M 176 122.999695 L 194.975998 122.999695 C 194.873993 118.546707 194.095993 114.193695 192.735001 110.047699 L 176 112.438705 Z"/>
    <path id="path7" fill="#ffffff" stroke="none" d="M 180 99.498993 L 182.520004 98.994995 C 183.927002 100.875 185.171005 102.852005 186.246002 104.914001 L 180 105.807007 Z M 176 110.417999 L 192.057999 108.123993 C 190.203995 103.220993 187.520004 98.645004 184.136002 94.593002 L 176 96.220001 Z"/>
    <path id="path8" fill="#ffffff" stroke="none" d="M 180 145.584 L 184.684006 145.917999 C 183.348999 148.06601 181.820007 150.098999 180.108002 152 L 180 152 Z M 176 155.653 L 178.082001 156 L 181.843994 156 C 185.695999 152.031998 188.834 147.423004 191.080994 142.36499 L 176 141.287994 Z"/>
</svg>
