<?xml version="1.0" encoding="UTF-8"?>
<!-- Generated by Pixelmator Pro 3.7.1 -->
<svg width="256" height="256" viewBox="0 0 256 256" xmlns="http://www.w3.org/2000/svg">
    <path id="Path" fill="#ffffff" stroke="none" d="M 200.184601 40 L 51.815598 40 C 47.5056 40 43.999603 43.505997 43.999603 47.815002 L 43.999603 216.184998 C 43.999603 220.494003 47.5056 224 51.815598 224 L 200.184601 224 C 204.494598 224 207.999603 220.494003 207.999603 216.184998 L 207.999603 47.815002 C 207.999603 43.505997 204.494598 40 200.184601 40 M 200.184601 44 C 202.291595 44 203.999603 45.708008 203.999603 47.815002 L 203.999603 216.184998 C 203.999603 218.292007 202.291595 220 200.184601 220 L 51.815598 220 C 49.707596 220 47.999603 218.292007 47.999603 216.184998 L 47.999603 47.815002 C 47.999603 45.708008 49.707596 44 51.815598 44 L 200.184601 44"/>
    <path id="path1" fill="#ffffff" stroke="none" d="M 182.497101 8 L 48.000107 8 C 41.383102 8 36.000107 13.382996 36.000107 20 L 36.000107 240 C 36.000107 244.410995 39.589096 248 44.000107 248 L 212.000107 248 C 216.411102 248 220.000092 244.410995 220.000092 240 L 220.000092 41.815002 C 220.000092 39.507996 219.004105 37.313004 217.268097 35.794006 L 187.765106 9.979004 C 186.307098 8.703003 184.435104 8 182.497101 8 M 182.497101 12 C 183.466095 12 184.4021 12.352005 185.131104 12.990005 L 214.634094 38.804993 C 215.502106 39.563995 216.000092 40.662003 216.000092 41.815002 L 216.000092 240 C 216.000092 242.209 214.209106 244 212.000107 244 L 44.000107 244 C 41.791107 244 40.000107 242.209 40.000107 240 L 40.000107 20 C 40.000107 15.582001 43.5811 12 48.000107 12 L 182.497101 12"/>
    <path id="path2" fill="#ffffff" stroke="none" d="M 202 228 L 50 228 C 46.690994 228 44 230.690994 44 234 C 44 237.309006 46.690994 240 50 240 L 202 240 C 205.309006 240 208 237.309006 208 234 C 208 230.690994 205.309006 228 202 228 M 202 232 C 203.104004 232 204 232.895996 204 234 C 204 235.104004 203.104004 236 202 236 L 50 236 C 48.895996 236 48 235.104004 48 234 C 48 232.895996 48.895996 232 50 232 L 202 232"/>
</svg>
