<?xml version="1.0" encoding="UTF-8"?>
<!-- Generated by Pixelmator Pro 3.7.1 -->
<svg width="256" height="256" viewBox="0 0 256 256" xmlns="http://www.w3.org/2000/svg">
    <path id="Path" fill="#ffffff" stroke="none" d="M 176 88 L 80 88 L 80 32 L 176 32 Z M 180 28 L 76 28 L 76 92 L 180 92 Z"/>
    <path id="path1" fill="#ffffff" stroke="none" d="M 120 136 C 120 131.582001 123.582001 128 128 128 C 132.417999 128 136 131.582001 136 136 C 136 140.417999 132.417999 144 128 144 C 123.582001 144 120 140.417999 120 136 M 116 148 C 113.791 148 112 146.209 112 144 C 112 141.791 113.791 140 116 140 C 118.209 140 120 141.791 120 144 C 120 146.209 118.209 148 116 148 M 112 128 C 112 125.791 113.791 124 116 124 C 118.209 124 120 125.791 120 128 C 120 130.209 118.209 132 116 132 C 113.791 132 112 130.209 112 128 M 140 124 C 142.209 124 144 125.791 144 128 C 144 130.209 142.209 132 140 132 C 137.791 132 136 130.209 136 128 C 136 125.791 137.791 124 140 124 M 144 144 C 144 146.209 142.209 148 140 148 C 137.791 148 136 146.209 136 144 C 136 141.791 137.791 140 140 140 C 142.209 140 144 141.791 144 144 M 140 152 C 144.410995 152 148 148.411011 148 144 C 148 139.588989 144.410995 136 140 136 C 144.410995 136 148 132.411011 148 128 C 148 123.589005 144.410995 120 140 120 C 136.679001 120 133.822998 122.035004 132.615005 124.923004 C 131.194 124.328995 129.634003 124 128 124 C 126.365997 124 124.806 124.328995 123.385002 124.923004 C 122.177002 122.035004 119.320999 120 116 120 C 111.588997 120 108 123.589005 108 128 C 108 132.411011 111.588997 136 116 136 C 111.588997 136 108 139.588989 108 144 C 108 148.411011 111.588997 152 116 152 C 119.320999 152 122.177002 149.964996 123.385002 147.076996 C 124.806 147.67099 126.365997 148 128 148 C 129.634003 148 131.194 147.67099 132.615005 147.076996 C 133.822998 149.964996 136.679001 152 140 152"/>
    <path id="path2" fill="#ffffff" stroke="none" d="M 150 163 C 156.065002 163 161 167.934998 161 174 C 161 180.065002 156.065002 185 150 185 C 143.934998 185 139 180.065002 139 174 C 139 167.934998 143.934998 163 150 163 M 150 188 C 157.731995 188 164 181.731995 164 174 C 164 166.268005 157.731995 160 150 160 C 142.268005 160 136 166.268005 136 174 C 136 181.731995 142.268005 188 150 188"/>
    <path id="path3" fill="#ffffff" stroke="none" d="M 106 185 C 99.934998 185 95 180.065002 95 174 C 95 167.934998 99.934998 163 106 163 C 112.065002 163 117 167.934998 117 174 C 117 180.065002 112.065002 185 106 185 M 106 160 C 98.267998 160 92 166.268005 92 174 C 92 181.731995 98.267998 188 106 188 C 113.732002 188 120 181.731995 120 174 C 120 166.268005 113.732002 160 106 160"/>
    <path id="path4" fill="#ffffff" stroke="none" d="M 95.302597 152 L 91.999603 152 L 87.999603 156 L 87.999603 159.303009 C 86.747597 159.746002 85.404602 160 83.999603 160 C 82.595604 160 81.252602 159.746002 79.999603 159.303009 L 79.999603 156 L 75.999603 152 L 72.697601 152 C 72.253601 150.747009 71.999603 149.404999 71.999603 148 C 71.999603 146.595001 72.253601 145.252991 72.697601 144 L 75.999603 144 L 79.999603 140 L 79.999603 136.696991 C 81.252602 136.253998 82.595604 136 83.999603 136 C 85.404602 136 86.747597 136.253998 87.999603 136.696991 L 87.999603 140 L 91.999603 144 L 95.302597 144 C 95.746597 145.252991 95.999603 146.595001 95.999603 148 C 95.999603 149.404999 95.746597 150.747009 95.302597 152 M 98.129601 140 L 95.302597 140 L 93.656601 140 L 91.999603 138.343002 L 91.999603 136.696991 L 91.999603 133.869995 L 89.334602 132.927002 C 87.597603 132.311996 85.802597 132 83.999603 132 C 82.196602 132 80.401604 132.311996 78.664597 132.927002 L 75.999603 133.869995 L 75.999603 136.696991 L 75.999603 138.343002 L 74.343597 140 L 72.697601 140 L 69.870598 140 L 68.926598 142.665009 C 68.3116 144.402008 67.999603 146.196991 67.999603 148 C 67.999603 149.803009 68.3116 151.597992 68.926598 153.334991 L 69.870598 156 L 72.697601 156 L 74.343597 156 L 75.999603 157.656998 L 75.999603 159.303009 L 75.999603 162.130005 L 78.664597 163.072998 C 80.401604 163.688004 82.196602 164 83.999603 164 C 85.802597 164 87.597603 163.688004 89.334602 163.072998 L 91.999603 162.130005 L 91.999603 159.303009 L 91.999603 157.656998 L 93.656601 156 L 95.302597 156 L 98.129601 156 L 99.073601 153.334991 C 99.688599 151.597992 99.999603 149.803009 99.999603 148 C 99.999603 146.196991 99.688599 144.402008 99.073601 142.665009 Z"/>
    <path id="path5" fill="#ffffff" stroke="none" d="M 168 146 C 168 149.313995 165.313995 152 162 152 C 158.686005 152 156 149.313995 156 146 C 156 142.686005 158.686005 140 162 140 C 165.313995 140 168 142.686005 168 146 M 174 140 C 170.686005 140 168 137.313995 168 134 C 168 130.686005 170.686005 128 174 128 C 177.313995 128 180 130.686005 180 134 C 180 137.313995 177.313995 140 174 140 M 180 146 C 180 142.686005 182.686005 140 186 140 C 189.313995 140 192 142.686005 192 146 C 192 149.313995 189.313995 152 186 152 C 182.686005 152 180 149.313995 180 146 M 171.729996 148.269989 C 171.901001 147.539001 172 146.781998 172 146 C 172 145.218002 171.901001 144.460999 171.729996 143.730011 C 172.460999 143.901001 173.218002 144 174 144 C 174.781998 144 175.539001 143.901001 176.270004 143.730011 C 176.098999 144.460999 176 145.218002 176 146 C 176 146.781998 176.098999 147.539001 176.270004 148.269989 C 175.539001 148.098999 174.781998 148 174 148 C 173.218002 148 172.460999 148.098999 171.729996 148.269989 M 174 152 C 177.313995 152 180 154.686005 180 158 C 180 161.313995 177.313995 164 174 164 C 170.686005 164 168 161.313995 168 158 C 168 154.686005 170.686005 152 174 152 M 200 236.166 L 181.050003 239.960999 C 180.927994 239.985001 180.807007 239.998001 180.682999 239.998001 C 180.139999 239.998001 179.570999 239.748993 178.932999 239.143005 L 158.796005 218.848999 C 159.173004 218.479004 159.485001 218.037994 159.695007 217.531006 C 160.315002 216.036011 159.972 214.31601 158.828003 213.171997 L 154.828003 209.171997 C 154.078003 208.421005 153.061005 208 152 208 L 104 208 C 102.939003 208 101.921997 208.421005 101.171997 209.171997 L 97.171997 213.171997 C 96.028 214.31601 95.684998 216.036011 96.305 217.531006 C 96.514 218.036011 96.824997 218.475006 97.198997 218.843002 L 76.757004 239.412994 C 76.377998 239.792999 75.867996 240 75.343002 240 C 75.211998 240 75.081001 239.987 74.949997 239.960999 L 56 236.166 C 48 232.161011 48 200.121002 48 200.121002 C 48 200.121002 52 152.059998 60 128.029999 C 62.788002 119.656006 68.977997 114.205994 75.858002 110.651001 L 79.461998 112.093002 L 96.502998 118.908997 L 100 136.395996 L 100 148 L 100 149.921997 L 101.500999 151.123001 L 120 165.921997 L 120 174 L 120 182.343002 L 106.343002 196 L 56 196 L 55.750999 200 L 56 200 L 108 200 L 124 184 L 124 164 L 104 148 L 104 136 L 100 116 L 80.955002 108.382004 C 81.017998 108.356995 81.082001 108.330002 81.146004 108.306 C 81.219002 108.278 81.292 108.251999 81.364998 108.225006 C 92.707001 104.002991 104 104 104 104 L 108 104 L 108 116 L 148 116 L 148 104 L 152 104 C 152 104 163.292999 104.002991 174.634995 108.225006 C 174.708008 108.251999 174.781006 108.278 174.854004 108.306 C 174.917999 108.330002 174.981995 108.356995 175.044998 108.382004 L 156 116 L 152 136 L 152 148 L 132 164 L 132 184 L 148 200 L 200 200 L 200.248993 200 L 200 196 L 149.656998 196 L 136 182.343002 L 136 174 L 136 165.921997 L 153.787994 151.692001 C 155.595993 154.291992 158.600998 156 162 156 C 162.781998 156 163.539001 155.901001 164.270004 155.729996 C 164.098999 156.460999 164 157.218002 164 158 C 164 163.514008 168.485992 168 174 168 C 179.514008 168 184 163.514008 184 158 C 184 157.218002 183.901001 156.460999 183.729996 155.729996 C 184.460999 155.901001 185.218002 156 186 156 C 191.514008 156 196 151.514008 196 146 C 196 140.485992 191.514008 136 186 136 C 185.218002 136 184.460999 136.098999 183.729996 136.270004 C 183.901001 135.539001 184 134.781998 184 134 C 184 128.485992 179.514008 124 174 124 C 168.485992 124 164 128.485992 164 134 C 164 134.781998 164.098999 135.539001 164.270004 136.270004 C 163.539001 136.098999 162.781998 136 162 136 C 159.746994 136 157.673996 136.757996 156 138.018997 L 156 136.395996 L 159.496994 118.908997 L 176.537994 112.093002 L 180.141998 110.651001 C 187.022003 114.205994 193.212006 119.656006 196 128.029999 C 204 152.059998 208 200.121002 208 200.121002 C 208 200.121002 208 232.161011 200 236.166 M 155.968994 216 L 100.025002 216 L 100 216 L 104 212 L 152 212 L 156 216 Z M 112.619003 104.619003 L 143.380997 104.619003 L 143.380997 111.380997 L 112.619003 111.380997 Z M 64 84 L 60 20 C 60 20 72 16 124 16 C 125.362999 16 126.692001 16.003006 128 16.009003 C 129.307999 16.003006 130.636993 16 132 16 C 184 16 196 20 196 20 L 192 84 C 192 84 191.983002 90.841003 176.192001 104.507996 C 164.440002 100.102005 152.867996 100 152 100 L 148 100 L 128 100 L 108 100 L 104 100 C 103.132004 100 91.559998 100.102005 79.807999 104.507996 C 64.016998 90.841003 64 84 64 84 M 211.985992 199.789001 C 211.820999 197.807007 207.854004 150.972992 199.794998 126.766998 C 196.362 116.455002 188.585999 110.126999 180.281998 106.229996 C 185.945999 101.175003 190.190994 96.442001 192.891998 92.119995 C 195.537994 87.886993 195.957001 85.257996 195.996994 84.178009 L 199.992004 20.25 L 200.18399 17.177994 L 197.264999 16.205002 C 196.75 16.033997 184.050995 12 132 12 C 130.632004 12 129.296997 12.003006 127.984001 12.009003 C 126.703003 12.003006 125.367996 12 124 12 C 71.948997 12 59.25 16.033997 58.735001 16.205002 L 55.816002 17.177994 L 56.008003 20.25 L 60.002998 84.178009 C 60.042999 85.257996 60.461998 87.886993 63.108002 92.119995 C 65.808998 96.442001 70.054001 101.175003 75.718002 106.229996 C 67.414001 110.126999 59.638 116.455002 56.205002 126.766998 C 48.146004 150.972992 44.179001 197.807007 44.014 199.789001 L 44 199.955002 L 44 200.121002 C 44 200.458008 44.012001 208.464996 45.027 217.108002 C 46.564003 230.18399 49.481003 237.376007 54.209 239.742996 L 54.689003 239.983002 L 55.214996 240.087997 L 74.165001 243.882996 C 74.552002 243.960999 74.947998 244 75.343002 244 C 76.945999 244 78.454002 243.375 79.586998 242.23999 L 101.689003 220 L 154.302994 220 L 176.093994 241.959991 L 176.134995 242.001999 L 176.177994 242.042999 C 177.544006 243.339996 179.059006 243.998001 180.682999 243.998001 C 181.067001 243.998001 181.455002 243.959 181.835007 243.882996 L 200.785004 240.087997 L 201.311005 239.983002 L 201.791 239.742996 C 206.518997 237.376007 209.436005 230.18399 210.972992 217.108002 C 211.988007 208.464996 212 200.458008 212 200.121002 L 212 199.955002 Z"/>
</svg>
