<?xml version="1.0" encoding="UTF-8"?>
<!-- Generated by Pixelmator Pro 3.7.1 -->
<svg width="256" height="256" viewBox="0 0 256 256" xmlns="http://www.w3.org/2000/svg">
    <path id="Path" fill="#ffffff" stroke="none" d="M 157.956696 180 C 157.971695 179.988998 157.984695 179.975998 157.999695 179.964996 L 157.999695 180 Z M 127.999702 244 C 112.535698 244 99.999702 242.209 99.999702 240 L 99.999702 181.070007 C 102.1287 181.953003 104.868698 182.429001 107.647705 182.817001 C 111.936699 183.416 117.315704 183.799011 123.1297 183.938004 C 123.690704 183.953003 124.255699 183.964996 124.827698 183.973999 C 125.014702 183.97699 125.200699 183.980011 125.387703 183.981995 C 126.248703 183.992996 127.118698 184 127.999702 184 C 128.881699 184 129.751694 183.992996 130.611694 183.981995 C 130.799698 183.980011 130.985703 183.97699 131.172699 183.973999 C 131.743698 183.964996 132.309708 183.953003 132.870697 183.938004 C 138.684708 183.799011 144.063705 183.416 148.3517 182.817001 C 151.130707 182.429001 153.871704 181.953003 155.999695 181.070007 L 155.999695 240 C 155.999695 242.209 143.463699 244 127.999702 244 M 97.999702 179.964996 C 98.014702 179.975998 98.027702 179.988998 98.043701 180 L 97.999702 180 Z M 99.999702 15.906998 C 99.999702 13.748993 112.535698 12 127.999702 12 C 143.463699 12 155.999695 13.748993 155.999695 15.906998 L 155.999695 176.093002 C 155.999695 178.251007 143.463699 180 127.999702 180 C 112.535698 180 99.999702 178.251007 99.999702 176.093002 Z M 159.999695 15.906998 C 159.999695 11.201996 154.245697 10.005005 148.3517 9.182999 C 142.885696 8.419998 135.6577 8 127.999702 8 C 120.341698 8 113.113701 8.419998 107.647705 9.182999 C 101.7547 10.005005 95.999702 11.201996 95.999702 15.906998 L 95.999702 176.093002 C 95.999702 176.876007 96.1717 177.554001 96.464699 178.156998 C 96.172699 178.708008 95.999702 179.330994 95.999702 180 L 95.999702 240 C 95.999702 244.730011 102.005699 245.984009 107.635704 246.787994 C 113.105698 247.570007 120.3377 248 127.999702 248 C 135.662704 248 142.894699 247.570007 148.3647 246.787994 C 153.993698 245.984009 159.999695 244.730011 159.999695 240 L 159.999695 180 C 159.999695 179.330994 159.826706 178.708008 159.534698 178.156998 C 159.827698 177.554001 159.999695 176.876007 159.999695 176.093002 Z"/>
</svg>
