<?xml version="1.0" encoding="UTF-8"?>
<!-- Generated by Pixelmator Pro 3.7.1 -->
<svg width="256" height="256" viewBox="0 0 256 256" xmlns="http://www.w3.org/2000/svg">
    <path id="Path" fill="#ffffff" stroke="none" d="M 172 92 L 84 92 C 64.117996 92 48 108.117996 48 128 C 48 147.882004 64.117996 164 84 164 L 172 164 C 191.850998 164 208 147.850998 208 128 C 208 108.149002 191.850998 92 172 92 M 172 96 C 189.645004 96 204 110.354996 204 128 C 204 145.645004 189.645004 160 172 160 L 84 160 C 66.355003 160 52 145.645004 52 128 C 52 110.354996 66.355003 96 84 96 L 172 96"/>
    <path id="path1" fill="#ffffff" stroke="none" d="M 84 152 C 70.766998 152 60 141.233002 60 128 C 60 114.766998 70.766998 104 84 104 C 97.233002 104 108 114.766998 108 128 C 108 141.233002 97.233002 152 84 152 M 84 100 C 68.536003 100 56 112.535995 56 128 C 56 143.463989 68.536003 156 84 156 C 99.463997 156 112 143.463989 112 128 C 112 112.535995 99.463997 100 84 100"/>
</svg>
