<?xml version="1.0" encoding="UTF-8"?>
<!-- Generated by Pixelmator Pro 3.7.1 -->
<svg width="256" height="256" viewBox="0 0 256 256" xmlns="http://www.w3.org/2000/svg">
    <path id="Path" fill="#ffffff" stroke="none" d="M 172 92 L 84 92 C 64.149002 92 48 108.149002 48 128 C 48 147.850998 64.149002 164 84 164 L 172 164 C 191.882004 164 208 147.882004 208 128 C 208 108.117996 191.882004 92 172 92 M 172 96 C 189.645004 96 204 110.354996 204 128 C 204 145.645004 189.645004 160 172 160 L 84 160 C 66.355003 160 52 145.645004 52 128 C 52 110.354996 66.355003 96 84 96 L 172 96"/>
    <path id="path1" fill="#ffffff" stroke="none" d="M 172 152 C 158.766998 152 148 141.233002 148 128 C 148 114.766998 158.766998 104 172 104 C 185.233002 104 196 114.766998 196 128 C 196 141.233002 185.233002 152 172 152 M 172 100 C 156.535995 100 144 112.535995 144 128 C 144 143.463989 156.535995 156 172 156 C 187.464005 156 200 143.463989 200 128 C 200 112.535995 187.464005 100 172 100"/>
    <path id="path2" fill="#ffffff" stroke="none" d="M 172 108 C 160.953995 108 152 116.953995 152 128 C 152 139.04599 160.953995 148 172 148 C 183.046005 148 192 139.04599 192 128 C 192 116.953995 183.046005 108 172 108 M 172 112 C 180.822006 112 188 119.177994 188 128 C 188 136.821991 180.822006 144 172 144 C 163.177994 144 156 136.821991 156 128 C 156 119.177994 163.177994 112 172 112"/>
</svg>
