<?xml version="1.0" encoding="UTF-8"?>
<!-- Generated by Pixelmator Pro 3.7.1 -->
<svg width="256" height="256" viewBox="0 0 256 256" xmlns="http://www.w3.org/2000/svg">
    <path id="Path" fill="#ffffff" stroke="none" d="M 242 8 L 14 8 C 10.690994 8 8 10.690994 8 14 L 8 242 C 8 245.309006 10.690994 248 14 248 L 242 248 C 245.309006 248 248 245.309006 248 242 L 248 14 C 248 10.690994 245.309006 8 242 8 M 242 12 C 243.104004 12 244 12.895996 244 14 L 244 242 C 244 243.104004 243.104004 244 242 244 L 14 244 C 12.895996 244 12 243.104004 12 242 L 12 14 C 12 12.895996 12.895996 12 14 12 L 242 12"/>
    <path id="path1" fill="#ffffff" stroke="none" d="M 240 16 L 236 16 L 20 16 L 16 16 L 16 20 L 16 236 L 16 240 L 20 240 L 236 240 L 240 240 L 240 236 L 240 20 Z M 236 236 L 20 236 L 20 20 L 236 20 Z"/>
    <path id="path2" fill="#ffffff" stroke="none" d="M 232 24 L 228 24 L 28 24 L 24 24 L 24 28 L 24 228 L 24 232 L 28 232 L 228 232 L 232 232 L 232 228 L 232 28 Z M 228 228 L 28 228 L 28 28 L 228 28 Z"/>
    <path id="path3" fill="#ffffff" stroke="none" d="M 42 32 C 36.486 32 32 36.485992 32 42 C 32 47.514008 36.486 52 42 52 C 47.514 52 52 47.514008 52 42 C 52 36.485992 47.514 32 42 32 M 42 36 C 45.313 36 48 38.686996 48 42 C 48 45.313004 45.313 48 42 48 C 38.687 48 36 45.313004 36 42 C 36 38.686996 38.687 36 42 36"/>
    <path id="path4" fill="#ffffff" stroke="none" d="M 214 32 C 208.485992 32 204 36.485992 204 42 C 204 47.514008 208.485992 52 214 52 C 219.514008 52 224 47.514008 224 42 C 224 36.485992 219.514008 32 214 32 M 214 36 C 217.313004 36 220 38.686996 220 42 C 220 45.313004 217.313004 48 214 48 C 210.686996 48 208 45.313004 208 42 C 208 38.686996 210.686996 36 214 36"/>
    <path id="path5" fill="#ffffff" stroke="none" d="M 42 204 C 36.486 204 32 208.485992 32 214 C 32 219.514008 36.486 224 42 224 C 47.514 224 52 219.514008 52 214 C 52 208.485992 47.514 204 42 204 M 42 208 C 45.313 208 48 210.686996 48 214 C 48 217.313004 45.313 220 42 220 C 38.687 220 36 217.313004 36 214 C 36 210.686996 38.687 208 42 208"/>
    <path id="path6" fill="#ffffff" stroke="none" d="M 214 204 C 208.485992 204 204 208.485992 204 214 C 204 219.514008 208.485992 224 214 224 C 219.514008 224 224 219.514008 224 214 C 224 208.485992 219.514008 204 214 204 M 214 208 C 217.313004 208 220 210.686996 220 214 C 220 217.313004 217.313004 220 214 220 C 210.686996 220 208 217.313004 208 214 C 208 210.686996 210.686996 208 214 208"/>
    <path id="path7" fill="#ffffff" stroke="none" d="M 128 100 C 112.536003 100 100 112.535995 100 128 C 100 143.464005 112.536003 156 128 156 C 143.464005 156 156 143.464005 156 128 C 156 112.535995 143.464005 100 128 100 M 128 104 C 141.233002 104 152 114.766006 152 128 C 152 141.233002 141.233002 152 128 152 C 114.765999 152 104 141.233002 104 128 C 104 114.766006 114.765999 104 128 104"/>
    <path id="path8" fill="#ffffff" stroke="none" d="M 188 60 L 68 60 C 63.582001 60 60 63.582001 60 68 L 60 192 C 60 196.417999 63.582001 200 68 200 L 188 200 C 192.417999 200 196 196.417999 196 192 L 196 68 C 196 63.582001 192.417999 60 188 60 M 188 64 C 190.205994 64 192 65.794006 192 68 L 192 192 C 192 194.205994 190.205994 196 188 196 L 68 196 C 65.793999 196 64 194.205994 64 192 L 64 68 C 64 65.794006 65.793999 64 68 64 L 188 64"/>
</svg>
