<?xml version="1.0" encoding="UTF-8"?>
<!-- Generated by Pixelmator Pro 3.7.1 -->
<svg width="256" height="256" viewBox="0 0 256 256" xmlns="http://www.w3.org/2000/svg">
    <path id="Path" fill="#ffffff" stroke="none" d="M 211.1297 244 L 144.47171 244 L 143.577698 242.210999 L 139.577698 234.210999 L 138.47171 232 L 135.99971 232 L 119.999702 232 L 117.527702 232 L 116.422699 234.210999 L 112.422699 242.210999 L 111.527702 244 L 44.870697 244 C 40.126694 244 36.424698 239.895996 36.912704 235.177002 L 47.628693 131.587997 C 47.839706 129.549011 49.557693 128 51.607697 128 C 49.557693 128 47.839706 126.450989 47.628693 124.412003 L 36.912704 20.822998 C 36.454697 16.397003 39.682693 12.511993 43.999695 12.046997 L 43.999695 12 L 44.870697 12 L 119.999702 12 L 135.99971 12 L 211.1297 12 L 211.999695 12 L 211.999695 12.046997 C 216.316696 12.511993 219.544693 16.397003 219.087708 20.822998 L 208.371704 124.412003 C 208.160706 126.450989 206.442703 128 204.3927 128 C 206.442703 128 208.160706 129.549011 208.371704 131.587997 L 219.087708 235.177002 C 219.575699 239.895996 215.873703 244 211.1297 244 M 115.999702 244 L 119.999702 236 L 135.99971 236 L 139.99971 244 Z M 212.349701 131.177002 C 212.230698 130.022003 211.872696 128.947998 211.327698 128 C 211.872696 127.052002 212.230698 125.977997 212.349701 124.822998 L 223.065704 21.235001 C 223.719696 14.919006 219.311707 9.205994 213.134705 8.167007 C 212.775696 8.059006 212.394699 8 211.999695 8 L 211.1297 8 L 135.99971 8 L 119.999702 8 L 44.870697 8 L 43.999695 8 C 43.594696 8 43.203705 8.059998 42.834702 8.171997 C 36.673706 9.223999 32.281693 14.929001 32.933701 21.235001 L 43.649704 124.822998 C 43.769699 125.977997 44.127701 127.052002 44.672699 128 C 44.127701 128.947998 43.769699 130.022003 43.649704 131.177002 L 32.933701 234.764999 C 32.584702 238.139008 33.687698 241.518005 35.958694 244.037003 C 38.230698 246.554993 41.478699 248 44.870697 248 L 109.527702 248 L 115.999702 248 L 139.99971 248 L 146.47171 248 L 211.1297 248 C 214.521698 248 217.769699 246.554993 220.040695 244.037003 C 222.312698 241.518005 223.414703 238.139008 223.065704 234.764999 Z"/>
    <path id="path1" fill="#ffffff" stroke="none" d="M 184 104 L 168 92 L 168 48 L 188 36 Z M 166.550003 44.205002 L 164 44.205002 L 92 44.205002 L 89.449997 44.205002 L 75.775002 36 L 180.225006 36 Z M 164 92 L 92 92 L 92 48 L 164 48 Z M 89.607002 95.794998 L 92 95.794998 L 164 95.794998 L 166.393005 95.794998 L 177.333008 104 L 78.667 104 Z M 68 36 L 88 48 L 88 92 L 72 104 Z M 68.007004 104.235001 L 68.227997 108 L 72 108 L 184 108 L 187.772003 108 L 187.992996 104.235001 L 191.992996 36.235001 L 192.242004 32 L 188 32 L 68 32 L 63.758003 32 L 64.007004 36.235001 Z"/>
    <path id="path2" fill="#ffffff" stroke="none" d="M 52.482201 28.660095 C 52.863201 28.2341 53.394199 28.000107 53.9762 28.000107 L 202.023193 28.000107 C 202.606186 28.000107 203.1362 28.2341 203.518188 28.660095 C 203.89119 29.077103 204.056198 29.608093 203.9832 30.154099 L 193.2332 110.336105 C 193.105194 111.285095 192.263199 112.000092 191.273193 112.000092 L 64.727203 112.000092 C 63.737202 112.000092 62.894199 111.285095 62.7672 110.336105 L 52.0172 30.154099 C 51.944199 29.608093 52.1092 29.077103 52.482201 28.660095 M 63.061199 116.000092 L 192.938187 116.000092 C 194.961197 116.000092 196.671188 114.510101 196.93219 112.517105 L 207.965195 28.517105 C 208.280197 26.123093 206.403198 24.000107 203.971191 24.000107 L 52.028198 24.000107 C 49.597198 24.000107 47.7202 26.123093 48.034199 28.517105 L 59.0672 112.517105 C 59.329201 114.510101 61.0382 116.000092 63.061199 116.000092"/>
    <path id="path3" fill="#ffffff" stroke="none" d="M 108 220 L 56 220 L 58 200 L 108 200 Z M 58 196 L 54.380001 196 L 54.02 199.60199 L 52.02 219.602005 L 51.580002 224 L 56 224 L 108 224 L 112 224 L 112 220 L 112 200 L 112 196 L 108 196 Z"/>
    <path id="path4" fill="#ffffff" stroke="none" d="M 162 172 L 162 156 L 162 152 L 162 136 L 192 136 L 196 172 Z M 158 172 L 146 172 L 146 156 L 158 156 Z M 142 172 L 130 172 L 130 156 L 142 156 Z M 126 172 L 114 172 L 114 156 L 126 156 Z M 110 172 L 98 172 L 98 156 L 110 156 Z M 94 172 L 60 172 L 64 136 L 94 136 L 94 152 L 94 156 Z M 64 124 L 104 124 L 104 132 L 98 132 L 94 132 L 64 132 Z M 110 136 L 110 152 L 98 152 L 98 136 L 104 136 L 108 136 Z M 114 136 L 126 136 L 126 152 L 114 152 Z M 130 136 L 142 136 L 142 152 L 130 152 Z M 146 136 L 148 136 L 152 136 L 158 136 L 158 152 L 146 152 Z M 152 124 L 192 124 L 192 132 L 162 132 L 158 132 L 152 132 Z M 196 135.778992 L 196 132 L 196 124 L 196 120 L 192 120 L 152 120 L 148 120 L 148 124 L 148 132 L 146 132 L 142 132 L 130 132 L 126 132 L 114 132 L 110 132 L 108 132 L 108 124 L 108 120 L 104 120 L 64 120 L 60 120 L 60 124 L 60 132 L 60 135.778992 L 56.024002 171.557999 L 55.530998 176 L 60 176 L 94 176 L 98 176 L 110 176 L 114 176 L 126 176 L 130 176 L 142 176 L 146 176 L 158 176 L 162 176 L 196 176 L 200.468994 176 L 199.975998 171.557999 Z"/>
</svg>
