<?xml version="1.0" encoding="UTF-8"?>
<!-- Generated by Pixelmator Pro 3.7.1 -->
<svg width="256" height="256" viewBox="0 0 256 256" xmlns="http://www.w3.org/2000/svg">
    <path id="Path" fill="#ffffff" stroke="none" d="M 232 180.128998 C 232 182.266998 230.209 184 228 184 L 28 184 C 25.791 184 24 182.266998 24 180.128998 L 24 67.871002 C 24 65.733002 25.791 64 28 64 L 62 64 C 60.895004 64 60 64.895004 60 66 L 60 86 C 60 87.104996 60.895004 88 62 88 L 72 88 L 76 88 L 104 88 L 108 88 L 194 88 C 195.104996 88 196 87.104996 196 86 L 196 66 C 196 64.895004 195.104996 64 194 64 L 228 64 C 230.209 64 232 65.733002 232 67.871002 Z M 108 68 L 192 68 L 192 84 L 108 84 Z M 76 68 L 104 68 L 104 84 L 76 84 Z M 64 68 L 72 68 L 72 84 L 64 84 Z M 228 60 L 28 60 C 23.589005 60 20 63.531006 20 67.871002 L 20 180.128998 C 20 184.468994 23.589005 188 28 188 L 228 188 C 232.410995 188 236 184.468994 236 180.128998 L 236 67.871002 C 236 63.531006 232.410995 60 228 60"/>
    <path id="path1" fill="#ffffff" stroke="none" d="M 60 96 L 196 96 L 196 92 L 60 92 Z"/>
    <path id="path2" fill="#ffffff" stroke="none" d="M 60 104 L 196 104 L 196 100 L 60 100 Z"/>
    <path id="path3" fill="#ffffff" stroke="none" d="M 60 112 L 196 112 L 196 108 L 60 108 Z"/>
    <path id="path4" fill="#ffffff" stroke="none" d="M 60 120 L 196 120 L 196 116 L 60 116 Z"/>
    <path id="path5" fill="#ffffff" stroke="none" d="M 60 128 L 196 128 L 196 124 L 60 124 Z"/>
    <path id="path6" fill="#ffffff" stroke="none" d="M 60 136 L 196 136 L 196 132 L 60 132 Z"/>
    <path id="path7" fill="#ffffff" stroke="none" d="M 60 144 L 196 144 L 196 140 L 60 140 Z"/>
    <path id="path8" fill="#ffffff" stroke="none" d="M 60 152 L 196 152 L 196 148 L 60 148 Z"/>
    <path id="path9" fill="#ffffff" stroke="none" d="M 60 160 L 196 160 L 196 156 L 60 156 Z"/>
</svg>
