<?xml version="1.0" encoding="UTF-8"?>
<!-- Generated by Pixelmator Pro 3.7.1 -->
<svg width="256" height="256" viewBox="0 0 256 256" xmlns="http://www.w3.org/2000/svg">
    <path id="Path" fill="#ffffff" stroke="none" d="M 196 128 C 196 130.205994 194.205994 132 192 132 L 24 132 C 21.794006 132 20 130.205994 20 128 L 20 32 C 20 29.794006 21.794006 28 24 28 L 192 28 C 194.205994 28 196 29.794006 196 32 Z M 192 24 L 24 24 C 19.582001 24 16 27.582001 16 32 L 16 128 C 16 132.417999 19.582001 136 24 136 L 192 136 C 196.417999 136 200 132.417999 200 128 L 200 52 L 200 32 C 200 27.582001 196.417999 24 192 24"/>
    <path id="path1" fill="#ffffff" stroke="none" d="M 28 36 L 188 36 L 188 124 L 28 124 Z M 24 128 L 192 128 L 192 32 L 24 32 Z"/>
    <path id="path2" fill="#ffffff" stroke="none" d="M 84 192 L 72 192 L 72 204 C 72 208.417999 68.417999 212 64 212 C 59.582001 212 56 208.417999 56 204 L 56 192 L 44 192 C 39.582001 192 36 188.417999 36 184 C 36 179.582001 39.582001 176 44 176 L 56 176 L 56 164 C 56 159.582001 59.582001 156 64 156 C 68.417999 156 72 159.582001 72 164 L 72 176 L 84 176 C 88.417999 176 92 179.582001 92 184 C 92 188.417999 88.417999 192 84 192 M 84 172 L 76 172 L 76 164 C 76 157.382996 70.616997 152 64 152 C 57.382999 152 52 157.382996 52 164 L 52 172 L 44 172 C 37.382999 172 32 177.382996 32 184 C 32 190.617004 37.382999 196 44 196 L 52 196 L 52 204 C 52 210.617004 57.382999 216 64 216 C 70.616997 216 76 210.617004 76 204 L 76 196 L 84 196 C 90.616997 196 96 190.617004 96 184 C 96 177.382996 90.616997 172 84 172"/>
    <path id="path3" fill="#ffffff" stroke="none" d="M 142 184 C 134.268005 184 128 177.731995 128 170 C 128 162.268005 134.268005 156 142 156 C 149.731995 156 156 162.268005 156 170 C 156 177.731995 149.731995 184 142 184 M 142 152 C 132.074997 152 124 160.074997 124 170 C 124 179.925003 132.074997 188 142 188 C 151.925003 188 160 179.925003 160 170 C 160 160.074997 151.925003 152 142 152"/>
    <path id="path4" fill="#ffffff" stroke="none" d="M 182 184 C 174.268005 184 168 177.731995 168 170 C 168 162.268005 174.268005 156 182 156 C 189.731995 156 196 162.268005 196 170 C 196 177.731995 189.731995 184 182 184 M 182 152 C 172.074997 152 164 160.074997 164 170 C 164 179.925003 172.074997 188 182 188 C 191.925003 188 200 179.925003 200 170 C 200 160.074997 191.925003 152 182 152"/>
    <path id="path5" fill="#ffffff" stroke="none" d="M 212 60 C 207.582001 60 204 56.417999 204 52 C 204 47.582001 207.582001 44 212 44 C 216.417999 44 220 47.582001 220 52 C 220 56.417999 216.417999 60 212 60 M 212 40 C 205.382996 40 200 45.382996 200 52 C 200 58.617004 205.382996 64 212 64 C 218.617004 64 224 58.617004 224 52 C 224 45.382996 218.617004 40 212 40"/>
    <path id="path6" fill="#ffffff" stroke="none" d="M 212 36 C 209.791 36 208 34.209 208 32 C 208 29.791 209.791 28 212 28 C 214.209 28 216 29.791 216 32 C 216 34.209 214.209 36 212 36 M 220 32 C 220 27.582001 216.417999 24 212 24 C 207.582001 24 204 27.582001 204 32 C 204 36.417999 207.582001 40 212 40 C 216.417999 40 220 36.417999 220 32"/>
    <path id="path7" fill="#ffffff" stroke="none" d="M 212 228 C 209.791 228 208 226.209 208 224 C 208 221.791 209.791 220 212 220 C 214.209 220 216 221.791 216 224 C 216 226.209 214.209 228 212 228 M 212 216 C 207.582001 216 204 219.582001 204 224 C 204 228.417999 207.582001 232 212 232 C 216.417999 232 220 228.417999 220 224 C 220 219.582001 216.417999 216 212 216"/>
    <path id="path8" fill="#ffffff" stroke="none" d="M 24 228 C 21.791 228 20 226.209 20 224 C 20 221.791 21.791 220 24 220 C 26.209 220 28 221.791 28 224 C 28 226.209 26.209 228 24 228 M 24 216 C 19.582001 216 16 219.582001 16 224 C 16 228.417999 19.582001 232 24 232 C 28.417999 232 32 228.417999 32 224 C 32 219.582001 28.417999 216 24 216"/>
    <path id="path9" fill="#ffffff" stroke="none" d="M 208 72 C 208 69.791 209.791 68 212 68 C 214.209 68 216 69.791 216 72 L 216 100 C 216 102.209 214.209 104 212 104 C 209.791 104 208 102.209 208 100 Z M 204 72 L 204 100 C 204 104.410995 207.589005 108 212 108 C 216.410995 108 220 104.410995 220 100 L 220 72 C 220 67.589005 216.410995 64 212 64 C 207.589005 64 204 67.589005 204 72"/>
    <path id="path10" fill="#ffffff" stroke="none" d="M 244 192 C 244 194.209 242.209 196 240 196 L 228 196 L 228 128 C 228 127.307007 228.097 126.639008 228.263 125.998001 C 229.154007 129.444 232.279999 132 236 132 C 239.720001 132 242.845993 129.444 243.737 125.998001 C 243.903 126.639008 244 127.307007 244 128 Z M 224 228.074005 C 224 232.451996 220.451996 236 216.074005 236 L 19.925995 236 C 15.548004 236 12 232.451996 12 228.074005 L 12 27.925995 C 12 23.548004 15.548004 20 19.925995 20 L 216.074005 20 C 220.451996 20 224 23.548004 224 27.925995 L 224 52 L 224 128 L 224 196 L 224 200 Z M 240 124 C 240 126.209 238.209 128 236 128 C 233.791 128 232 126.209 232 124 C 232 121.791 233.791 120 236 120 C 238.209 120 240 121.791 240 124 M 236.817001 116.041 C 236.546005 116.02301 236.276001 116 236 116 C 235.723999 116 235.453995 116.02301 235.182999 116.041 C 232.431 116.227997 229.934998 117.343994 228 119.080994 L 228 27.925995 C 228 21.350006 222.649994 16 216.074005 16 L 19.925995 16 C 13.350006 16 8 21.350006 8 27.925995 L 8 228.074005 C 8 234.649994 13.350006 240 19.925995 240 L 216.074005 240 C 222.649994 240 228 234.649994 228 228.074005 L 228 200 L 240 200 C 244.410995 200 248 196.410995 248 192 L 248 128 C 248 121.658997 243.052002 116.463989 236.817001 116.041"/>
</svg>
