<?xml version="1.0" encoding="UTF-8"?>
<!-- Generated by Pixelmator Pro 3.7.1 -->
<svg width="256" height="256" viewBox="0 0 256 256" xmlns="http://www.w3.org/2000/svg">
    <path id="Path" fill="#ffffff" stroke="none" d="M 232 156 L 156 156 L 156 160 L 232 160 Z"/>
    <path id="path1" fill="#ffffff" stroke="none" d="M 152 176 L 152 171.981003 C 152.063004 171.984009 152.121994 172 152.186005 172 L 235.813995 172 C 238.126007 172 240 170.126007 240 167.813995 L 240 92.186005 C 240 89.873993 238.126007 88 235.813995 88 L 152.186005 88 C 152.121994 88 152.063004 88.015991 152 88.018997 L 152 88 C 152 85.821991 150.257996 84.044006 148.080002 84.001007 C 148.052994 84 148.026001 84 147.998993 84 C 145.856995 84 144.089005 85.69101 144.003006 87.839996 L 140.156998 184 L 12 184 L 12 66 C 12 64.894989 12.895004 64 14 64 L 242 64 C 243.105011 64 244 64.894989 244 66 L 244 176 Z M 152 92.186005 C 152 92.083008 152.082993 92 152.186005 92 L 235.813995 92 C 235.916992 92 236 92.083008 236 92.186005 L 236 167.813995 C 236 167.916992 235.916992 168 235.813995 168 L 152.186005 168 C 152.082993 168 152 167.916992 152 167.813995 Z M 244 188 L 244 190 C 244 190.414001 243.873993 190.798996 243.65799 191.117996 C 243.514999 191.330994 243.330994 191.514999 243.117996 191.65799 C 242.799011 191.873993 242.414001 192 242 192 L 14 192 C 12.895004 192 12 191.104996 12 190 L 12 188 L 144 188 L 148 88 L 148 92.186005 L 148 167.813995 L 148 180 L 244 180 Z M 242 60 L 14 60 C 10.692001 60 8 62.692001 8 66 L 8 188 L 8 190 C 8 193.307999 10.692001 196 14 196 L 242 196 C 245.307999 196 248 193.307999 248 190 L 248 188 L 248 180 L 248 66 C 248 62.692001 245.307999 60 242 60"/>
    <path id="path2" fill="#ffffff" stroke="none" d="M 20 72 L 236 72 L 236 80 L 20 80 Z M 240 80 L 240 72 C 240 69.791 238.209 68 236 68 L 20 68 C 17.791 68 16 69.791 16 72 L 16 80 C 16 82.209 17.791 84 20 84 L 147.998993 84 L 236 84 C 238.209 84 240 82.209 240 80"/>
    <path id="path3" fill="#ffffff" stroke="none" d="M 24 92 L 136 92 L 136 176 L 24 176 Z M 24 180 L 136 180 C 138.209 180 140 178.209 140 176 L 140 92 C 140 89.791 138.209 88 136 88 L 24 88 C 21.791 88 20 89.791 20 92 L 20 176 C 20 178.209 21.791 180 24 180"/>
    <path id="path4" fill="#ffffff" stroke="none" d="M 120 128 L 108 128 L 108 116 L 120 116 Z M 92 116 L 104 116 L 104 128 L 92 128 Z M 76 116 L 88 116 L 88 128 L 76 128 Z M 60 116 L 72 116 L 72 128 L 60 128 Z M 44 116 L 56 116 L 56 128 L 44 128 Z M 44 100 L 56 100 L 56 112 L 44 112 Z M 72 112 L 60 112 L 60 100 L 72 100 Z M 88 112 L 76 112 L 76 100 L 88 100 Z M 104 112 L 92 112 L 92 100 L 104 100 Z M 120 112 L 108 112 L 108 100 L 120 100 Z M 120 96 L 108 96 C 107.267998 96 106.589996 96.210999 106 96.554993 C 105.410004 96.210999 104.732002 96 104 96 L 92 96 C 91.267998 96 90.589996 96.210999 90 96.554993 C 89.410004 96.210999 88.732002 96 88 96 L 76 96 C 75.267998 96 74.589996 96.210999 74 96.554993 C 73.410004 96.210999 72.732002 96 72 96 L 60 96 C 59.268002 96 58.59 96.210999 58 96.554993 C 57.41 96.210999 56.731998 96 56 96 L 44 96 C 41.791 96 40 97.791 40 100 L 40 112 C 40 112.731995 40.210999 113.410004 40.555 114 C 40.210999 114.589996 40 115.268005 40 116 L 40 128 C 40 130.209 41.791 132 44 132 L 56 132 C 56.731998 132 57.41 131.789001 58 131.445007 C 58.59 131.789001 59.268002 132 60 132 L 72 132 C 72.732002 132 73.410004 131.789001 74 131.445007 C 74.589996 131.789001 75.267998 132 76 132 L 88 132 C 88.732002 132 89.410004 131.789001 90 131.445007 C 90.589996 131.789001 91.267998 132 92 132 L 104 132 C 104.732002 132 105.410004 131.789001 106 131.445007 C 106.589996 131.789001 107.267998 132 108 132 L 120 132 C 122.209 132 124 130.209 124 128 L 124 116 C 124 115.268005 123.789001 114.589996 123.445 114 C 123.789001 113.410004 124 112.731995 124 112 L 124 100 C 124 97.791 122.209 96 120 96"/>
    <path id="path5" fill="#ffffff" stroke="none" d="M 120 164 L 100 164 L 100 152 L 120 152 Z M 120 148 L 100 148 C 97.791 148 96 149.791 96 152 L 96 164 C 96 166.209 97.791 168 100 168 L 120 168 C 122.209 168 124 166.209 124 164 L 124 152 C 124 149.791 122.209 148 120 148"/>
    <path id="path6" fill="#ffffff" stroke="none" d="M 42 160 C 40.895 160 40 159.105011 40 158 C 40 156.894989 40.895 156 42 156 C 43.105 156 44 156.894989 44 158 C 44 159.105011 43.105 160 42 160 M 42 152 C 38.692001 152 36 154.692001 36 158 C 36 161.307999 38.692001 164 42 164 C 45.307999 164 48 161.307999 48 158 C 48 154.692001 45.307999 152 42 152"/>
    <path id="path7" fill="#ffffff" stroke="none" d="M 58 160 C 56.895 160 56 159.105011 56 158 C 56 156.894989 56.895 156 58 156 C 59.105 156 60 156.894989 60 158 C 60 159.105011 59.105 160 58 160 M 58 152 C 54.692001 152 52 154.692001 52 158 C 52 161.307999 54.692001 164 58 164 C 61.307999 164 64 161.307999 64 158 C 64 154.692001 61.307999 152 58 152"/>
    <path id="path8" fill="#ffffff" stroke="none" d="M 70 160 C 68.894997 160 68 159.105011 68 158 C 68 156.894989 68.894997 156 70 156 C 71.105003 156 72 156.894989 72 158 C 72 159.105011 71.105003 160 70 160 M 70 152 C 66.692001 152 64 154.692001 64 158 C 64 161.307999 66.692001 164 70 164 C 73.307999 164 76 161.307999 76 158 C 76 154.692001 73.307999 152 70 152"/>
    <path id="path9" fill="#ffffff" stroke="none" d="M 82 160 C 80.894997 160 80 159.105011 80 158 C 80 156.894989 80.894997 156 82 156 C 83.105003 156 84 156.894989 84 158 C 84 159.105011 83.105003 160 82 160 M 82 152 C 78.692001 152 76 154.692001 76 158 C 76 161.307999 78.692001 164 82 164 C 85.307999 164 88 161.307999 88 158 C 88 154.692001 85.307999 152 82 152"/>
    <path id="path10" fill="#ffffff" stroke="none" d="M 160 100 L 228 100 L 228 108 L 160 108 Z M 160 111.783997 L 228 111.783997 C 230.089996 111.783997 231.783997 110.089996 231.783997 108 L 231.783997 100 C 231.783997 97.910004 230.089996 96.216003 228 96.216003 L 160 96.216003 C 157.910004 96.216003 156.216003 97.910004 156.216003 100 L 156.216003 108 C 156.216003 110.089996 157.910004 111.783997 160 111.783997"/>
    <path id="path11" fill="#ffffff" stroke="none" d="M 232 116 L 156 116 L 156 120 L 232 120 Z"/>
    <path id="path12" fill="#ffffff" stroke="none" d="M 232 124 L 156 124 L 156 128 L 232 128 Z"/>
    <path id="path13" fill="#ffffff" stroke="none" d="M 232 132 L 156 132 L 156 136 L 232 136 Z"/>
    <path id="path14" fill="#ffffff" stroke="none" d="M 232 140 L 156 140 L 156 144 L 232 144 Z"/>
    <path id="path15" fill="#ffffff" stroke="none" d="M 232 148 L 156 148 L 156 152 L 232 152 Z"/>
</svg>
