<?xml version="1.0" encoding="UTF-8"?>
<!-- Generated by Pixelmator Pro 3.7.1 -->
<svg width="256" height="256" viewBox="0 0 256 256" xmlns="http://www.w3.org/2000/svg">
    <path id="Path" fill="#ffffff" stroke="none" d="M 244 204 C 244 208.417999 240.417999 212 236 212 L 20 212 C 15.582001 212 12 208.417999 12 204 L 12 52 C 12 47.582001 15.582001 44 20 44 L 236 44 C 240.417999 44 244 47.582001 244 52 Z M 236 40 L 20 40 C 13.382996 40 8 45.382996 8 52 L 8 204 C 8 210.617004 13.382996 216 20 216 L 236 216 C 242.617004 216 248 210.617004 248 204 L 248 52 C 248 45.382996 242.617004 40 236 40"/>
    <path id="path1" fill="#ffffff" stroke="none" d="M 220 188 C 220 190.209 218.209 192 216 192 L 40 192 C 37.791 192 36 190.209 36 188 L 36 124 C 36 121.791 37.791 120 40 120 L 216 120 C 218.209 120 220 121.791 220 124 Z M 216 116 L 40 116 C 35.589005 116 32 119.588989 32 124 L 32 188 C 32 192.410995 35.589005 196 40 196 L 216 196 C 220.410995 196 224 192.410995 224 188 L 224 124 C 224 119.588989 220.410995 116 216 116"/>
    <path id="path2" fill="#ffffff" stroke="none" d="M 18 204 L 18 60 C 21.313999 60 24 92.235001 24 132 C 24 171.764008 21.313999 204 18 204 M 24.26 64.884995 C 23.605 61.561996 22.51 56 18 56 C 15.791 56 14 57.791 14 60 L 14 204 C 14 206.209 15.791 208 18 208 C 22.51 208 23.605 202.438004 24.26 199.11499 C 25.003 195.343994 25.666 190.003998 26.229 183.244003 C 27.371 169.537994 28 151.339005 28 132 C 28 112.661011 27.371 94.462006 26.229 80.755997 C 25.666 73.996002 25.003 68.656006 24.26 64.884995"/>
    <path id="path3" fill="#ffffff" stroke="none" d="M 238 204 C 234.686005 204 232 171.764008 232 132 C 232 92.235001 234.686005 60 238 60 Z M 238 56 C 233.490005 56 232.395004 61.561996 231.740005 64.884995 C 230.996994 68.656006 230.335007 73.996002 229.770996 80.755997 C 228.628998 94.462006 228 112.661011 228 132 C 228 151.339005 228.628998 169.537994 229.770996 183.244003 C 230.335007 190.003998 230.996994 195.343994 231.740005 199.11499 C 232.395004 202.438004 233.490005 208 238 208 C 240.209 208 242 206.209 242 204 L 242 60 C 242 57.791 240.209 56 238 56"/>
    <path id="path4" fill="#ffffff" stroke="none" d="M 164 184 L 92 184 L 92 156 L 164 156 Z M 164 152.149994 L 92 152.149994 C 89.874001 152.149994 88.150002 153.873993 88.150002 156 L 88.150002 184 C 88.150002 186.126007 89.874001 187.850006 92 187.850006 L 164 187.850006 C 166.126007 187.850006 167.850006 186.126007 167.850006 184 L 167.850006 156 C 167.850006 153.873993 166.126007 152.149994 164 152.149994"/>
    <path id="path5" fill="#ffffff" stroke="none" d="M 206 144 L 194 144 L 194 132 L 206 132 Z M 178 132 L 190 132 L 190 144 L 178 144 Z M 162 132 L 174 132 L 174 144 L 162 144 Z M 146 132 L 158 132 L 158 144 L 146 144 Z M 130 132 L 142 132 L 142 144 L 130 144 Z M 114 132 L 126 132 L 126 144 L 114 144 Z M 98 132 L 110 132 L 110 144 L 98 144 Z M 82 132 L 94 132 L 94 144 L 82 144 Z M 66 132 L 78 132 L 78 144 L 66 144 Z M 50 132 L 62 132 L 62 144 L 50 144 Z M 206 128 L 194 128 C 193.268005 128 192.589996 128.210999 192 128.554993 C 191.410004 128.210999 190.731995 128 190 128 L 178 128 C 177.268005 128 176.589996 128.210999 176 128.554993 C 175.410004 128.210999 174.731995 128 174 128 L 162 128 C 161.268005 128 160.589996 128.210999 160 128.554993 C 159.410004 128.210999 158.731995 128 158 128 L 146 128 C 145.268005 128 144.589996 128.210999 144 128.554993 C 143.410004 128.210999 142.731995 128 142 128 L 130 128 C 129.268005 128 128.589996 128.210999 128 128.554993 C 127.410004 128.210999 126.732002 128 126 128 L 114 128 C 113.267998 128 112.589996 128.210999 112 128.554993 C 111.410004 128.210999 110.732002 128 110 128 L 98 128 C 97.267998 128 96.589996 128.210999 96 128.554993 C 95.410004 128.210999 94.732002 128 94 128 L 82 128 C 81.267998 128 80.589996 128.210999 80 128.554993 C 79.410004 128.210999 78.732002 128 78 128 L 66 128 C 65.267998 128 64.589996 128.210999 64 128.554993 C 63.41 128.210999 62.731998 128 62 128 L 50 128 C 47.791 128 46 129.791 46 132 L 46 144 C 46 146.209 47.791 148 50 148 L 62 148 C 62.731998 148 63.41 147.789001 64 147.445007 C 64.589996 147.789001 65.267998 148 66 148 L 78 148 C 78.732002 148 79.410004 147.789001 80 147.445007 C 80.589996 147.789001 81.267998 148 82 148 L 94 148 C 94.732002 148 95.410004 147.789001 96 147.445007 C 96.589996 147.789001 97.267998 148 98 148 L 110 148 C 110.732002 148 111.410004 147.789001 112 147.445007 C 112.589996 147.789001 113.267998 148 114 148 L 126 148 C 126.732002 148 127.410004 147.789001 128 147.445007 C 128.589996 147.789001 129.268005 148 130 148 L 142 148 C 142.731995 148 143.410004 147.789001 144 147.445007 C 144.589996 147.789001 145.268005 148 146 148 L 158 148 C 158.731995 148 159.410004 147.789001 160 147.445007 C 160.589996 147.789001 161.268005 148 162 148 L 174 148 C 174.731995 148 175.410004 147.789001 176 147.445007 C 176.589996 147.789001 177.268005 148 178 148 L 190 148 C 190.731995 148 191.410004 147.789001 192 147.445007 C 192.589996 147.789001 193.268005 148 194 148 L 206 148 C 208.209 148 210 146.209 210 144 L 210 132 C 210 129.791 208.209 128 206 128"/>
    <path id="path6" fill="#ffffff" stroke="none" d="M 60 170 C 60 171.105011 59.105 172 58 172 C 56.895 172 56 171.105011 56 170 L 56 162 C 56 160.895004 56.895 160 58 160 C 59.105 160 60 160.895004 60 162 Z M 58 156 C 54.692001 156 52 158.692001 52 162 L 52 170 C 52 173.307999 54.692001 176 58 176 C 61.307999 176 64 173.307999 64 170 L 64 162 C 64 158.692001 61.307999 156 58 156"/>
    <path id="path7" fill="#ffffff" stroke="none" d="M 80 166 C 80 167.105011 79.105003 168 78 168 C 76.894997 168 76 167.105011 76 166 L 76 162 C 76 160.894989 76.894997 160 78 160 C 79.105003 160 80 160.894989 80 162 Z M 78 156 C 74.692001 156 72 158.692001 72 162 L 72 166 C 72 169.307999 74.692001 172 78 172 C 81.307999 172 84 169.307999 84 166 L 84 162 C 84 158.692001 81.307999 156 78 156"/>
    <path id="path8" fill="#ffffff" stroke="none" d="M 180 166 C 180 167.105011 179.104996 168 178 168 C 176.895004 168 176 167.105011 176 166 L 176 162 C 176 160.894989 176.895004 160 178 160 C 179.104996 160 180 160.894989 180 162 Z M 178 156 C 174.692001 156 172 158.692001 172 162 L 172 166 C 172 169.307999 174.692001 172 178 172 C 181.307999 172 184 169.307999 184 166 L 184 162 C 184 158.692001 181.307999 156 178 156"/>
    <path id="path9" fill="#ffffff" stroke="none" d="M 200 166 C 200 167.105011 199.104996 168 198 168 C 196.895004 168 196 167.105011 196 166 L 196 162 C 196 160.894989 196.895004 160 198 160 C 199.104996 160 200 160.894989 200 162 Z M 198 156 C 194.692001 156 192 158.692001 192 162 L 192 166 C 192 169.307999 194.692001 172 198 172 C 201.307999 172 204 169.307999 204 166 L 204 162 C 204 158.692001 201.307999 156 198 156"/>
    <path id="path10" fill="#ffffff" stroke="none" d="M 180 88 L 76 88 L 76 72 L 180 72 Z M 76 60 L 180 60 L 180 68 L 76 68 Z M 180 92 L 184 92 L 184 88 L 184 72 L 184 68 L 184 60 L 184 56 L 180 56 L 76 56 L 72 56 L 72 60 L 72 68 L 72 72 L 72 88 L 72 92 L 76 92 Z"/>
</svg>
