<?xml version="1.0" encoding="UTF-8"?>
<!-- Generated by Pixelmator Pro 3.7.1 -->
<svg width="256" height="256" viewBox="0 0 256 256" xmlns="http://www.w3.org/2000/svg">
    <path id="Path" fill="#ffffff" stroke="none" d="M 216 228 C 216 236.837006 208.837006 244 200 244 L 56 244 C 47.162994 244 40 236.837006 40 228 L 40 28 C 40 19.162994 47.162994 12 56 12 L 200 12 C 208.837006 12 216 19.162994 216 28 Z M 200 8 L 56 8 C 44.972 8 36 16.972 36 28 L 36 228 C 36 239.028 44.972 248 56 248 L 200 248 C 211.028 248 220 239.028 220 228 L 220 28 C 220 16.972 211.028 8 200 8"/>
    <path id="path1" fill="#ffffff" stroke="none" d="M 200 234 C 200 235.104996 199.104996 236 198 236 L 58 236 C 56.895004 236 56 235.104996 56 234 L 56 34 C 56 32.895004 56.895004 32 58 32 L 198 32 C 199.104996 32 200 32.895004 200 34 Z M 198 28 L 58 28 C 54.692001 28 52 30.692001 52 34 L 52 234 C 52 237.307999 54.692001 240 58 240 L 198 240 C 201.307999 240 204 237.307999 204 234 L 204 34 C 204 30.692001 201.307999 28 198 28"/>
    <path id="path2" fill="#ffffff" stroke="none" d="M 76 96 L 72 96 L 72 108 L 76 108 Z"/>
    <path id="path3" fill="#ffffff" stroke="none" d="M 104 96 L 100 96 L 100 108 L 104 108 Z"/>
    <path id="path4" fill="#ffffff" stroke="none" d="M 184 100 L 184 96 L 180 96 L 180 100 L 180 108 L 184 108 Z"/>
    <path id="path5" fill="#ffffff" stroke="none" d="M 124 104 L 124 108 L 136 108 L 160 108 L 160 104 L 136 104 Z"/>
    <path id="path6" fill="#ffffff" stroke="none" d="M 74 176 C 70.685997 176 68 173.313995 68 170 C 68 166.686005 70.685997 164 74 164 C 77.314003 164 80 166.686005 80 170 C 80 173.313995 77.314003 176 74 176 M 74 160 C 68.486 160 64 164.485992 64 170 C 64 175.514008 68.486 180 74 180 C 79.514 180 84 175.514008 84 170 C 84 164.485992 79.514 160 74 160"/>
    <path id="path7" fill="#ffffff" stroke="none" d="M 182 164 C 185.313995 164 188 166.686005 188 170 C 188 173.313995 185.313995 176 182 176 C 178.686005 176 176 173.313995 176 170 C 176 166.686005 178.686005 164 182 164 M 182 180 C 187.514008 180 192 175.514008 192 170 C 192 164.485992 187.514008 160 182 160 C 176.485992 160 172 164.485992 172 170 C 172 175.514008 176.485992 180 182 180"/>
    <path id="path8" fill="#ffffff" stroke="none" d="M 80 184 L 68 184 L 68 188 L 80 188 Z"/>
    <path id="path9" fill="#ffffff" stroke="none" d="M 156 204 L 100 204 L 100 164 L 156 164 Z M 100 160 L 96 160 L 96 164 L 96 204 L 96 208 L 100 208 L 156 208 L 160 208 L 160 204 L 160 164 L 160 160 L 156 160 Z"/>
    <path id="path10" fill="#ffffff" stroke="none" d="M 182 222 C 176.477005 222 172 217.522995 172 212 C 172 206.477005 176.477005 202 182 202 C 187.522995 202 192 206.477005 192 212 C 192 217.522995 187.522995 222 182 222 M 182 198 C 174.279999 198 168 204.279999 168 212 C 168 219.720001 174.279999 226 182 226 C 189.720001 226 196 219.720001 196 212 C 196 204.279999 189.720001 198 182 198"/>
    <path id="path11" fill="#ffffff" stroke="none" d="M 74 216 C 71.791 216 70 214.209 70 212 C 70 209.791 71.791 208 74 208 C 76.209 208 78 209.791 78 212 C 78 214.209 76.209 216 74 216 M 74 204 C 69.588997 204 66 207.589005 66 212 C 66 216.410995 69.588997 220 74 220 C 78.411003 220 82 216.410995 82 212 C 82 207.589005 78.411003 204 74 204"/>
    <path id="path12" fill="#ffffff" stroke="none" d="M 74 148 C 70.685997 148 68 145.313995 68 142 C 68 138.686005 70.685997 136 74 136 C 77.314003 136 80 138.686005 80 142 C 80 145.313995 77.314003 148 74 148 M 74 132 C 68.486 132 64 136.485992 64 142 C 64 147.514008 68.486 152 74 152 C 79.514 152 84 147.514008 84 142 C 84 136.485992 79.514 132 74 132"/>
</svg>
