<?xml version="1.0" encoding="UTF-8"?>
<!-- Generated by Pixelmator Pro 3.7.1 -->
<svg width="256" height="256" viewBox="0 0 256 256" xmlns="http://www.w3.org/2000/svg">
    <path id="Path" fill="#ffffff" stroke="none" d="M 104 71 C 104 69.343002 105.343002 68 107 68 L 153 68 C 154.656998 68 156 69.343002 156 71 L 156 77 C 156 78.656998 154.656998 80 153 80 L 107 80 C 105.343002 80 104 78.656998 104 77 Z M 107 84 L 153 84 C 156.859009 84 160 80.860001 160 77 L 160 71 C 160 67.139999 156.859009 64 153 64 L 107 64 C 103.139999 64 100 67.139999 100 71 L 100 77 C 100 80.860001 103.139999 84 107 84"/>
    <path id="path1" fill="#ffffff" stroke="none" d="M 30 72 C 32.209 72 34 73.791 34 76 C 34 78.209 32.209 80 30 80 C 27.791 80 26 78.209 26 76 C 26 73.791 27.791 72 30 72 M 22 76 C 22 80.410995 25.589001 84 30 84 C 34.410999 84 38 80.410995 38 76 C 38 71.589005 34.410999 68 30 68 C 25.589001 68 22 71.589005 22 76"/>
    <path id="path2" fill="#ffffff" stroke="none" d="M 58 156 L 62 156 C 63.104 156 64 155.104004 64 154 C 64 152.895996 63.104 152 62 152 L 58 152 C 56.896 152 56 152.895996 56 154 C 56 155.104004 56.896 156 58 156"/>
    <path id="path3" fill="#ffffff" stroke="none" d="M 70 156 L 74 156 C 75.104004 156 76 155.104004 76 154 C 76 152.895996 75.104004 152 74 152 L 70 152 C 68.896004 152 68 152.895996 68 154 C 68 155.104004 68.896004 156 70 156"/>
    <path id="path4" fill="#ffffff" stroke="none" d="M 58 164 L 66 164 C 67.104004 164 68 163.104004 68 162 C 68 160.895996 67.104004 160 66 160 L 58 160 C 56.896 160 56 160.895996 56 162 C 56 163.104004 56.896 164 58 164"/>
    <path id="path5" fill="#ffffff" stroke="none" d="M 74 164 L 82 164 C 83.104004 164 84 163.104004 84 162 C 84 160.895996 83.104004 160 82 160 L 74 160 C 72.896004 160 72 160.895996 72 162 C 72 163.104004 72.896004 164 74 164"/>
    <path id="path6" fill="#ffffff" stroke="none" d="M 90 164 L 98 164 C 99.104004 164 100 163.104004 100 162 C 100 160.895996 99.104004 160 98 160 L 90 160 C 88.896004 160 88 160.895996 88 162 C 88 163.104004 88.896004 164 90 164"/>
    <path id="path7" fill="#ffffff" stroke="none" d="M 106 164 L 114 164 C 115.104004 164 116 163.104004 116 162 C 116 160.895996 115.104004 160 114 160 L 106 160 C 104.896004 160 104 160.895996 104 162 C 104 163.104004 104.896004 164 106 164"/>
    <path id="path8" fill="#ffffff" stroke="none" d="M 122 164 L 130 164 C 131.104004 164 132 163.104004 132 162 C 132 160.895996 131.104004 160 130 160 L 122 160 C 120.896004 160 120 160.895996 120 162 C 120 163.104004 120.896004 164 122 164"/>
    <path id="path9" fill="#ffffff" stroke="none" d="M 138 164 L 146 164 C 147.104004 164 148 163.104004 148 162 C 148 160.895996 147.104004 160 146 160 L 138 160 C 136.895996 160 136 160.895996 136 162 C 136 163.104004 136.895996 164 138 164"/>
    <path id="path10" fill="#ffffff" stroke="none" d="M 154 164 L 162 164 C 163.104004 164 164 163.104004 164 162 C 164 160.895996 163.104004 160 162 160 L 154 160 C 152.895996 160 152 160.895996 152 162 C 152 163.104004 152.895996 164 154 164"/>
    <path id="path11" fill="#ffffff" stroke="none" d="M 170 164 L 178 164 C 179.104004 164 180 163.104004 180 162 C 180 160.895996 179.104004 160 178 160 L 170 160 C 168.895996 160 168 160.895996 168 162 C 168 163.104004 168.895996 164 170 164"/>
    <path id="path12" fill="#ffffff" stroke="none" d="M 194 160 L 186 160 C 184.895996 160 184 160.895996 184 162 C 184 163.104004 184.895996 164 186 164 L 194 164 C 195.104004 164 196 163.104004 196 162 C 196 160.895996 195.104004 160 194 160"/>
    <path id="path13" fill="#ffffff" stroke="none" d="M 58 172 L 66 172 C 67.104004 172 68 171.104004 68 170 C 68 168.895996 67.104004 168 66 168 L 58 168 C 56.896 168 56 168.895996 56 170 C 56 171.104004 56.896 172 58 172"/>
    <path id="path14" fill="#ffffff" stroke="none" d="M 74 172 L 82 172 C 83.104004 172 84 171.104004 84 170 C 84 168.895996 83.104004 168 82 168 L 74 168 C 72.896004 168 72 168.895996 72 170 C 72 171.104004 72.896004 172 74 172"/>
    <path id="path15" fill="#ffffff" stroke="none" d="M 90 172 L 98 172 C 99.104004 172 100 171.104004 100 170 C 100 168.895996 99.104004 168 98 168 L 90 168 C 88.896004 168 88 168.895996 88 170 C 88 171.104004 88.896004 172 90 172"/>
    <path id="path16" fill="#ffffff" stroke="none" d="M 106 172 L 114 172 C 115.104004 172 116 171.104004 116 170 C 116 168.895996 115.104004 168 114 168 L 106 168 C 104.896004 168 104 168.895996 104 170 C 104 171.104004 104.896004 172 106 172"/>
    <path id="path17" fill="#ffffff" stroke="none" d="M 122 172 L 130 172 C 131.104004 172 132 171.104004 132 170 C 132 168.895996 131.104004 168 130 168 L 122 168 C 120.896004 168 120 168.895996 120 170 C 120 171.104004 120.896004 172 122 172"/>
    <path id="path18" fill="#ffffff" stroke="none" d="M 138 172 L 146 172 C 147.104004 172 148 171.104004 148 170 C 148 168.895996 147.104004 168 146 168 L 138 168 C 136.895996 168 136 168.895996 136 170 C 136 171.104004 136.895996 172 138 172"/>
    <path id="path19" fill="#ffffff" stroke="none" d="M 154 172 L 162 172 C 163.104004 172 164 171.104004 164 170 C 164 168.895996 163.104004 168 162 168 L 154 168 C 152.895996 168 152 168.895996 152 170 C 152 171.104004 152.895996 172 154 172"/>
    <path id="path20" fill="#ffffff" stroke="none" d="M 170 172 L 178 172 C 179.104004 172 180 171.104004 180 170 C 180 168.895996 179.104004 168 178 168 L 170 168 C 168.895996 168 168 168.895996 168 170 C 168 171.104004 168.895996 172 170 172"/>
    <path id="path21" fill="#ffffff" stroke="none" d="M 194 168 L 186 168 C 184.895996 168 184 168.895996 184 170 C 184 171.104004 184.895996 172 186 172 L 194 172 C 195.104004 172 196 171.104004 196 170 C 196 168.895996 195.104004 168 194 168"/>
    <path id="path22" fill="#ffffff" stroke="none" d="M 58 180 L 66 180 C 67.104004 180 68 179.104004 68 178 C 68 176.895996 67.104004 176 66 176 L 58 176 C 56.896 176 56 176.895996 56 178 C 56 179.104004 56.896 180 58 180"/>
    <path id="path23" fill="#ffffff" stroke="none" d="M 84 178 C 84 176.895996 83.103996 176 82 176 L 74 176 C 72.895996 176 72 176.895996 72 178 C 72 179.104004 72.895996 180 74 180 L 82 180 C 83.103996 180 84 179.104004 84 178"/>
    <path id="path24" fill="#ffffff" stroke="none" d="M 100 178 C 100 176.895996 99.103996 176 98 176 L 90 176 C 88.895996 176 88 176.895996 88 178 C 88 179.104004 88.895996 180 90 180 L 98 180 C 99.103996 180 100 179.104004 100 178"/>
    <path id="path25" fill="#ffffff" stroke="none" d="M 106 180 L 114 180 C 115.104004 180 116 179.104004 116 178 C 116 176.895996 115.104004 176 114 176 L 106 176 C 104.896004 176 104 176.895996 104 178 C 104 179.104004 104.896004 180 106 180"/>
    <path id="path26" fill="#ffffff" stroke="none" d="M 132 178 C 132 176.895996 131.104004 176 130 176 L 122 176 C 120.895996 176 120 176.895996 120 178 C 120 179.104004 120.895996 180 122 180 L 130 180 C 131.104004 180 132 179.104004 132 178"/>
    <path id="path27" fill="#ffffff" stroke="none" d="M 148 178 C 148 176.895996 147.104004 176 146 176 L 138 176 C 136.895996 176 136 176.895996 136 178 C 136 179.104004 136.895996 180 138 180 L 146 180 C 147.104004 180 148 179.104004 148 178"/>
    <path id="path28" fill="#ffffff" stroke="none" d="M 154 180 L 162 180 C 163.104004 180 164 179.104004 164 178 C 164 176.895996 163.104004 176 162 176 L 154 176 C 152.895996 176 152 176.895996 152 178 C 152 179.104004 152.895996 180 154 180"/>
    <path id="path29" fill="#ffffff" stroke="none" d="M 180 178 C 180 176.895996 179.104004 176 178 176 L 170 176 C 168.895996 176 168 176.895996 168 178 C 168 179.104004 168.895996 180 170 180 L 178 180 C 179.104004 180 180 179.104004 180 178"/>
    <path id="path30" fill="#ffffff" stroke="none" d="M 194 176 L 186 176 C 184.895996 176 184 176.895996 184 178 C 184 179.104004 184.895996 180 186 180 L 194 180 C 195.104004 180 196 179.104004 196 178 C 196 176.895996 195.104004 176 194 176"/>
    <path id="path31" fill="#ffffff" stroke="none" d="M 66 192 L 58 192 C 56.896 192 56 192.895996 56 194 C 56 195.104004 56.896 196 58 196 L 66 196 C 67.103996 196 68 195.104004 68 194 C 68 192.895996 67.103996 192 66 192"/>
    <path id="path32" fill="#ffffff" stroke="none" d="M 82 192 L 74 192 C 72.895996 192 72 192.895996 72 194 C 72 195.104004 72.895996 196 74 196 L 82 196 C 83.103996 196 84 195.104004 84 194 C 84 192.895996 83.103996 192 82 192"/>
    <path id="path33" fill="#ffffff" stroke="none" d="M 98 192 L 90 192 C 88.895996 192 88 192.895996 88 194 C 88 195.104004 88.895996 196 90 196 L 98 196 C 99.103996 196 100 195.104004 100 194 C 100 192.895996 99.103996 192 98 192"/>
    <path id="path34" fill="#ffffff" stroke="none" d="M 114 192 L 106 192 C 104.895996 192 104 192.895996 104 194 C 104 195.104004 104.895996 196 106 196 L 114 196 C 115.103996 196 116 195.104004 116 194 C 116 192.895996 115.103996 192 114 192"/>
    <path id="path35" fill="#ffffff" stroke="none" d="M 130 192 L 122 192 C 120.895996 192 120 192.895996 120 194 C 120 195.104004 120.895996 196 122 196 L 130 196 C 131.104004 196 132 195.104004 132 194 C 132 192.895996 131.104004 192 130 192"/>
    <path id="path36" fill="#ffffff" stroke="none" d="M 146 192 L 138 192 C 136.895996 192 136 192.895996 136 194 C 136 195.104004 136.895996 196 138 196 L 146 196 C 147.104004 196 148 195.104004 148 194 C 148 192.895996 147.104004 192 146 192"/>
    <path id="path37" fill="#ffffff" stroke="none" d="M 162 192 L 154 192 C 152.895996 192 152 192.895996 152 194 C 152 195.104004 152.895996 196 154 196 L 162 196 C 163.104004 196 164 195.104004 164 194 C 164 192.895996 163.104004 192 162 192"/>
    <path id="path38" fill="#ffffff" stroke="none" d="M 178 192 L 170 192 C 168.895996 192 168 192.895996 168 194 C 168 195.104004 168.895996 196 170 196 L 178 196 C 179.104004 196 180 195.104004 180 194 C 180 192.895996 179.104004 192 178 192"/>
    <path id="path39" fill="#ffffff" stroke="none" d="M 194 192 L 186 192 C 184.895996 192 184 192.895996 184 194 C 184 195.104004 184.895996 196 186 196 L 194 196 C 195.104004 196 196 195.104004 196 194 C 196 192.895996 195.104004 192 194 192"/>
    <path id="path40" fill="#ffffff" stroke="none" d="M 66 184 C 64.896004 184 64 184.895996 64 186 C 64 187.104004 64.896004 188 66 188 L 74 188 C 75.104004 188 76 187.104004 76 186 C 76 184.895996 75.104004 184 74 184 Z"/>
    <path id="path41" fill="#ffffff" stroke="none" d="M 82 188 L 90 188 C 91.104004 188 92 187.104004 92 186 C 92 184.895996 91.104004 184 90 184 L 82 184 C 80.896004 184 80 184.895996 80 186 C 80 187.104004 80.896004 188 82 188"/>
    <path id="path42" fill="#ffffff" stroke="none" d="M 98 188 L 106 188 C 107.104004 188 108 187.104004 108 186 C 108 184.895996 107.104004 184 106 184 L 98 184 C 96.896004 184 96 184.895996 96 186 C 96 187.104004 96.896004 188 98 188"/>
    <path id="path43" fill="#ffffff" stroke="none" d="M 114 184 C 112.896004 184 112 184.895996 112 186 C 112 187.104004 112.896004 188 114 188 L 122 188 C 123.104004 188 124 187.104004 124 186 C 124 184.895996 123.104004 184 122 184 Z"/>
    <path id="path44" fill="#ffffff" stroke="none" d="M 130 188 L 138 188 C 139.104004 188 140 187.104004 140 186 C 140 184.895996 139.104004 184 138 184 L 130 184 C 128.895996 184 128 184.895996 128 186 C 128 187.104004 128.895996 188 130 188"/>
    <path id="path45" fill="#ffffff" stroke="none" d="M 146 188 L 154 188 C 155.104004 188 156 187.104004 156 186 C 156 184.895996 155.104004 184 154 184 L 146 184 C 144.895996 184 144 184.895996 144 186 C 144 187.104004 144.895996 188 146 188"/>
    <path id="path46" fill="#ffffff" stroke="none" d="M 162 184 C 160.895996 184 160 184.895996 160 186 C 160 187.104004 160.895996 188 162 188 L 170 188 C 171.104004 188 172 187.104004 172 186 C 172 184.895996 171.104004 184 170 184 Z"/>
    <path id="path47" fill="#ffffff" stroke="none" d="M 178 188 L 186 188 C 187.104004 188 188 187.104004 188 186 C 188 184.895996 187.104004 184 186 184 L 178 184 C 176.895996 184 176 184.895996 176 186 C 176 187.104004 176.895996 188 178 188"/>
    <path id="path48" fill="#ffffff" stroke="none" d="M 82 156 L 86 156 C 87.104004 156 88 155.104004 88 154 C 88 152.895996 87.104004 152 86 152 L 82 152 C 80.896004 152 80 152.895996 80 154 C 80 155.104004 80.896004 156 82 156"/>
    <path id="path49" fill="#ffffff" stroke="none" d="M 94 156 L 98 156 C 99.104004 156 100 155.104004 100 154 C 100 152.895996 99.104004 152 98 152 L 94 152 C 92.896004 152 92 152.895996 92 154 C 92 155.104004 92.896004 156 94 156"/>
    <path id="path50" fill="#ffffff" stroke="none" d="M 106 156 L 110 156 C 111.104004 156 112 155.104004 112 154 C 112 152.895996 111.104004 152 110 152 L 106 152 C 104.896004 152 104 152.895996 104 154 C 104 155.104004 104.896004 156 106 156"/>
    <path id="path51" fill="#ffffff" stroke="none" d="M 118 156 L 122 156 C 123.104004 156 124 155.104004 124 154 C 124 152.895996 123.104004 152 122 152 L 118 152 C 116.896004 152 116 152.895996 116 154 C 116 155.104004 116.896004 156 118 156"/>
    <path id="path52" fill="#ffffff" stroke="none" d="M 130 156 L 134 156 C 135.104004 156 136 155.104004 136 154 C 136 152.895996 135.104004 152 134 152 L 130 152 C 128.895996 152 128 152.895996 128 154 C 128 155.104004 128.895996 156 130 156"/>
    <path id="path53" fill="#ffffff" stroke="none" d="M 142 156 L 146 156 C 147.104004 156 148 155.104004 148 154 C 148 152.895996 147.104004 152 146 152 L 142 152 C 140.895996 152 140 152.895996 140 154 C 140 155.104004 140.895996 156 142 156"/>
    <path id="path54" fill="#ffffff" stroke="none" d="M 154 156 L 158 156 C 159.104004 156 160 155.104004 160 154 C 160 152.895996 159.104004 152 158 152 L 154 152 C 152.895996 152 152 152.895996 152 154 C 152 155.104004 152.895996 156 154 156"/>
    <path id="path55" fill="#ffffff" stroke="none" d="M 166 156 L 170 156 C 171.104004 156 172 155.104004 172 154 C 172 152.895996 171.104004 152 170 152 L 166 152 C 164.895996 152 164 152.895996 164 154 C 164 155.104004 164.895996 156 166 156"/>
    <path id="path56" fill="#ffffff" stroke="none" d="M 178 156 L 182 156 C 183.104004 156 184 155.104004 184 154 C 184 152.895996 183.104004 152 182 152 L 178 152 C 176.895996 152 176 152.895996 176 154 C 176 155.104004 176.895996 156 178 156"/>
    <path id="path57" fill="#ffffff" stroke="none" d="M 194 152 L 190 152 C 188.895996 152 188 152.895996 188 154 C 188 155.104004 188.895996 156 190 156 L 194 156 C 195.104004 156 196 155.104004 196 154 C 196 152.895996 195.104004 152 194 152"/>
    <path id="path58" fill="#ffffff" stroke="none" d="M 168 56 L 164 56 L 96 56 L 92 56 L 12 56 L 16 44 L 240 44 L 244 56 Z M 244 80 L 168 80 L 168 60 L 244 60 Z M 240 100 L 164.078995 100 L 167.279007 84 L 243.199997 84 Z M 96 80 L 96 60 L 164 60 L 164 80 L 160 100 L 100 100 Z M 240 120 L 232 120 L 164 120 L 96 120 L 24 120 L 16 120 L 16 104 L 96.721001 104 L 100 104 L 160 104 L 163.279007 104 L 240 104 Z M 240 140 L 200 140 L 56 140 L 16 140 L 16 124 L 24 124 L 96 124 L 164 124 L 232 124 L 240 124 Z M 204 148 L 204 196.266998 C 204 198.328003 202.209 200 200 200 L 56 200 C 53.791 200 52 198.328003 52 196.266998 L 52 148 L 56 148 L 56 144 L 200 144 L 200 148 Z M 240 208 C 240 210.209 238.209 212 236 212 L 20 212 C 17.791 212 16 210.209 16 208 L 16 144 L 52 144 C 49.791 144 48 145.791 48 148 L 48 196.266998 C 48 200.531006 51.588997 204 56 204 L 200 204 C 204.410995 204 208 200.531006 208 196.266998 L 208 148 C 208 145.791 206.209 144 204 144 L 240 144 Z M 12.800003 84 L 17.117004 84 L 20.205002 93.264999 C 20.75 94.897995 22.278 96 24 96 L 44 96 C 45.286003 96 46.492996 95.382004 47.245003 94.339005 C 47.997002 93.296005 48.200996 91.955002 47.794998 90.735001 L 45.550003 84 L 92.721001 84 L 95.920998 100 L 16 100 Z M 44 92 L 24 92 L 20 80 L 20 68 L 30 68 L 40 68 L 40 80 Z M 12 60 L 92 60 L 92 80 L 44.216003 80 L 44 79.350998 L 44 68 C 44 65.791 42.209 64 40 64 L 20 64 C 17.791 64 16 65.791 16 68 L 16 80 L 12 80 Z M 247.794998 54.735001 L 243.794998 42.735001 L 242.882996 40 L 240 40 L 16 40 L 13.117004 40 L 12.205002 42.735001 L 8.205002 54.735001 L 8 80 L 8 84 L 12 100.464996 L 12 120 L 12 124 L 12 136 L 12 140 L 12 208 C 12 212.410995 15.589005 216 20 216 L 236 216 C 240.411011 216 244 212.410995 244 208 L 244 140 L 244 136 L 244 124 L 244 120 L 244 100.464996 L 248 84 L 248 60 Z"/>
</svg>
