<?xml version="1.0" encoding="UTF-8"?>
<!-- Generated by Pixelmator Pro 3.7.1 -->
<svg width="256" height="256" viewBox="0 0 256 256" xmlns="http://www.w3.org/2000/svg">
    <path id="Path" fill="#ffffff" stroke="none" d="M 216 236 C 216 240.417999 212.417999 244 208 244 L 48 244 C 43.582001 244 40 240.417999 40 236 L 40 20 C 40 15.582001 43.582001 12 48 12 L 208 12 C 212.417999 12 216 15.582001 216 20 Z M 208 8 L 48 8 C 41.382996 8 36 13.382996 36 20 L 36 236 C 36 242.617004 41.382996 248 48 248 L 208 248 C 214.617004 248 220 242.617004 220 236 L 220 20 C 220 13.382996 214.617004 8 208 8"/>
    <path id="path1" fill="#ffffff" stroke="none" d="M 60 28 L 196 28 L 196 60 L 60 60 Z M 60 162 C 60 156.485992 64.486 152 70 152 C 75.514 152 80 156.485992 80 162 C 80 167.514008 75.514 172 70 172 C 64.486 172 60 167.514008 60 162 M 196 162 C 196 167.514008 191.514008 172 186 172 C 180.485992 172 176 167.514008 176 162 C 176 156.485992 180.485992 152 186 152 C 191.514008 152 196 156.485992 196 162 M 196 152.210999 C 193.459 149.61499 189.919998 148 186 148 C 178.268005 148 172 154.268005 172 162 C 172 169.731995 178.268005 176 186 176 C 189.919998 176 193.459 174.38501 196 171.789001 L 196 216 L 60 216 L 60 171.789001 C 62.541 174.38501 66.080002 176 70 176 C 77.732002 176 84 169.731995 84 162 C 84 154.268005 77.732002 148 70 148 C 66.080002 148 62.541 149.61499 60 152.210999 L 60 64 L 196 64 Z M 60 24 L 56 24 L 56 28 L 56 60 L 56 64 L 56 216 L 56 220 L 60 220 L 196 220 L 200 220 L 200 216 L 200 64 L 200 60 L 200 28 L 200 24 L 196 24 Z"/>
    <path id="path2" fill="#ffffff" stroke="none" d="M 188 48 L 68 48 L 68 36 L 188 36 Z M 68 32.126999 L 64.126999 32.126999 L 64.126999 36 L 64.126999 48 L 64.126999 51.873001 L 68 51.873001 L 188 51.873001 L 191.873001 51.873001 L 191.873001 48 L 191.873001 36 L 191.873001 32.126999 L 188 32.126999 Z"/>
    <path id="path3" fill="#ffffff" stroke="none" d="M 92 116 L 100 116 L 104 116 L 112 116 L 116 120 L 112 124 L 104 124 L 100 124 L 92 124 C 89.791 124 88 122.209 88 120 C 88 117.791 89.791 116 92 116 M 92 128 L 100 128 L 100 200 L 104 200 L 104 128 L 112 128 L 113.656998 128 L 114.828003 126.828003 L 118.828003 122.828003 L 121.656998 120 L 118.828003 117.171997 L 114.828003 113.171997 L 113.656998 112 L 112 112 L 104 112 L 104 84 L 100 84 L 100 112 L 92 112 C 87.588997 112 84 115.589005 84 120 C 84 124.410995 87.588997 128 92 128"/>
    <path id="path4" fill="#ffffff" stroke="none" d="M 144 92 L 152 92 L 156 92 L 164 92 C 166.209 92 168 93.791 168 96 C 168 98.209 166.209 100 164 100 L 156 100 L 152 100 L 144 100 L 140 96 Z M 141.171997 102.828003 L 142.343002 104 L 144 104 L 152 104 L 152 200 L 156 200 L 156 104 L 164 104 C 168.410995 104 172 100.410995 172 96 C 172 91.589005 168.410995 88 164 88 L 156 88 L 156 84 L 152 84 L 152 88 L 144 88 L 142.343002 88 L 141.171997 89.171997 L 137.171997 93.171997 L 134.343002 96 L 137.171997 98.828003 Z"/>
</svg>
