<?xml version="1.0" encoding="UTF-8"?>
<!-- Generated by Pixelmator Pro 3.7.1 -->
<svg width="256" height="256" viewBox="0 0 256 256" xmlns="http://www.w3.org/2000/svg">
    <path id="Path" fill="#ffffff" stroke="none" d="M 224 126 C 224 153.024002 222.619003 170.393997 221.466003 176 L 120 176 L 120 124 L 152 124 L 152 128 L 152 132 L 156 132 L 188 132 L 192 132 L 192 128 L 192 124 L 223.996994 124 C 223.998001 124.662003 224 125.326004 224 126 M 34.533997 176 C 33.380005 170.393997 32 153.024002 32 126 C 32 98.975006 33.380005 81.606003 34.533997 76 L 116 76 L 116 120 L 116 124 L 116 176 Z M 188 124 L 188 128 L 156 128 L 156 124 L 156 120 L 156 116 L 188 116 L 188 120 Z M 221.466003 76 C 222.531006 81.179001 223.789993 96.403992 223.975998 120 L 192 120 L 192 116 L 192 112 L 188 112 L 156 112 L 152 112 L 152 116 L 152 120 L 120 120 L 120 76 Z M 224 72 L 120 72 L 116 72 L 32 72 C 29.791 72 28 96.177002 28 126 C 28 155.822998 29.791 180 32 180 L 116 180 L 120 180 L 224 180 C 226.209 180 228 155.822998 228 126 C 228 125.328995 227.998001 124.664993 227.996002 124 L 228 124 L 228 120 L 227.975006 120 C 227.753998 93.001999 226.059006 72 224 72"/>
    <path id="path1" fill="#ffffff" stroke="none" d="M 84 88 L 112 88 L 112 84 L 84 84 Z"/>
    <path id="path2" fill="#ffffff" stroke="none" d="M 84 96 L 112 96 L 112 92 L 84 92 Z"/>
    <path id="path3" fill="#ffffff" stroke="none" d="M 84 104 L 112 104 L 112 100 L 84 100 Z"/>
    <path id="path4" fill="#ffffff" stroke="none" d="M 84 112 L 112 112 L 112 108 L 84 108 Z"/>
    <path id="path5" fill="#ffffff" stroke="none" d="M 84 120 L 112 120 L 112 116 L 84 116 Z"/>
    <path id="path6" fill="#ffffff" stroke="none" d="M 84 128 L 112 128 L 112 124 L 84 124 Z"/>
    <path id="path7" fill="#ffffff" stroke="none" d="M 84 136 L 112 136 L 112 132 L 84 132 Z"/>
    <path id="path8" fill="#ffffff" stroke="none" d="M 84 144 L 112 144 L 112 140 L 84 140 Z"/>
    <path id="path9" fill="#ffffff" stroke="none" d="M 84 152 L 112 152 L 112 148 L 84 148 Z"/>
    <path id="path10" fill="#ffffff" stroke="none" d="M 84 160 L 112 160 L 112 156 L 84 156 Z"/>
    <path id="path11" fill="#ffffff" stroke="none" d="M 84 168 L 112 168 L 112 164 L 84 164 Z"/>
    <path id="path12" fill="#ffffff" stroke="none" d="M 244 76 L 240 76 L 240 64 L 228 64 L 228 60 L 244 60 Z M 244 180 L 244 196 L 228 196 L 228 192 L 240 192 L 240 180 Z M 20 68 L 236 68 L 236 188 L 20 188 Z M 28 196 L 12 196 L 12 180 L 16 180 L 16 192 L 28 192 Z M 12 76 L 12 60 L 28 60 L 28 64 L 16 64 L 16 76 Z M 244 56 L 228 56 L 224 56 L 224 60 L 224 64 L 32 64 L 32 60 L 32 56 L 28 56 L 12 56 L 8 56 L 8 60 L 8 76 L 8 80 L 12 80 L 16 80 L 16 176 L 12 176 L 8 176 L 8 180 L 8 196 L 8 200 L 12 200 L 28 200 L 32 200 L 32 196 L 32 192 L 224 192 L 224 196 L 224 200 L 228 200 L 244 200 L 248 200 L 248 196 L 248 180 L 248 176 L 244 176 L 240 176 L 240 80 L 244 80 L 248 80 L 248 76 L 248 60 L 248 56 Z"/>
</svg>
