<?xml version="1.0" encoding="UTF-8"?>
<!-- Generated by Pixelmator Pro 3.7.1 -->
<svg width="256" height="256" viewBox="0 0 256 256" xmlns="http://www.w3.org/2000/svg">
    <path id="Path" fill="#ffffff" stroke="none" d="M 192.419907 198.796906 L 192.385895 199.057892 L 192.385895 199.320892 L 192.385895 201.595901 C 192.385895 202.211899 191.433899 202.928894 190.206894 202.928894 L 66.648895 202.928894 C 65.421898 202.928894 64.470901 202.211899 64.470901 201.595901 L 64.470901 199.320892 L 64.470901 199.057892 L 64.435898 198.795898 C 64.432899 198.769897 64.428902 198.742905 64.427902 198.719894 L 64.427902 77.279907 C 64.427902 76.757904 65.277901 75.999908 66.609901 75.999908 L 190.245895 75.999908 C 191.577896 75.999908 192.427902 76.757904 192.427902 77.279907 L 192.427902 198.715897 C 192.427902 198.742905 192.423904 198.770905 192.419907 198.796906 M 190.245895 71.999908 L 66.609901 71.999908 C 63.190895 71.999908 60.427895 74.359909 60.427895 77.279907 L 60.427895 198.719894 C 60.427895 198.923904 60.443901 199.123901 60.470894 199.320892 L 60.470894 201.595901 C 60.470894 204.544891 63.232903 206.928894 66.648895 206.928894 L 190.206894 206.928894 C 193.623901 206.928894 196.385895 204.544891 196.385895 201.595901 L 196.385895 199.320892 C 196.410904 199.122894 196.427902 198.923904 196.427902 198.719894 L 196.427902 77.279907 C 196.427902 74.359909 193.664902 71.999908 190.245895 71.999908"/>
    <path id="path1" fill="#ffffff" stroke="none" d="M 204 244 L 112 244 L 112 224 L 112 220 L 108 220 L 88 220 L 84 220 L 84 224 L 84 244 L 52 244 L 52 62 L 52.028 62 C 52.565994 53.093994 60.688995 17.475998 60.688995 17.475998 C 61.942001 12.276993 70.940994 12 72.843994 12 C 73.070999 12 73.197006 12.003998 73.197006 12.003998 L 102.994003 12.003998 L 106 12.003998 L 150 12.003998 L 157.846008 12.003998 L 182.802994 12.003998 C 182.802994 12.003998 182.929001 12 183.156006 12 C 185.059998 12 194.057999 12.276993 195.311005 17.475998 C 195.311005 17.475998 203.434006 53.093994 203.972 62 L 204 62 Z M 88 224 L 108 224 L 108 244 L 88 244 Z M 207.550995 58 C 205.807999 45.570999 199.509003 17.895996 199.210999 16.585999 C 197.289001 8.615997 186.436996 8 183.156006 8 C 182.968002 8 182.830994 8.001999 182.753006 8.003998 L 157.846008 8.003998 L 150 8.003998 L 106 8.003998 L 102.994003 8.003998 L 73.248001 8.003998 C 73.169998 8.001999 73.033005 8 72.843994 8 C 69.563004 8 58.710007 8.615005 56.800995 16.537994 C 56.492004 17.891006 50.192993 45.570007 48.449005 58 L 48 62 L 48 244 L 48 248 L 52 248 L 84 248 L 88 248 L 108 248 L 112 248 L 204 248 L 208 248 L 208 244 L 208 62 Z"/>
    <path id="path2" fill="#ffffff" stroke="none" d="M 80.739304 58 L 83.597298 32 L 102.994301 32 L 106.000298 32 L 150.000305 32 L 157.845306 32 L 172.402298 32 L 175.2603 58 Z M 175.986298 28 L 157.845306 28 L 150.000305 28 L 106.000298 28 L 102.994301 28 L 80.013298 28 L 76.275299 62 L 179.724304 62 Z"/>
    <path id="path3" fill="#ffffff" stroke="none" d="M 128 196 L 116 184 L 126 184 L 126 108 L 130 108 L 130 184 L 140 184 Z M 134 180 L 134 108 L 134 104 L 130 104 L 126 104 L 122 104 L 122 108 L 122 180 L 116 180 L 106.343002 180 L 113.170998 186.828003 L 125.170998 198.828003 L 128 201.656998 L 130.828003 198.828003 L 142.828003 186.828003 L 149.656998 180 L 140 180 Z"/>
</svg>
