<?xml version="1.0" encoding="UTF-8"?>
<!-- Generated by Pixelmator Pro 3.7.1 -->
<svg width="256" height="256" viewBox="0 0 256 256" xmlns="http://www.w3.org/2000/svg">
    <path id="Path" fill="#ffffff" stroke="none" d="M 244 208 L 12 208 L 12 28 L 244 28 Z M 240 228 L 16 228 L 12 212 L 244 212 Z M 244 24 L 12 24 L 8 24 L 8 28 L 8 212 L 8 212.492004 L 8.119 212.970001 L 12.119 228.970001 L 12.877 232 L 16 232 L 240 232 L 243.123001 232 L 243.880997 228.970001 L 247.880997 212.970001 L 248 212.492004 L 248 212 L 248 28 L 248 24 Z"/>
    <path id="path1" fill="#ffffff" stroke="none" d="M 28.554399 165.664001 L 61.554401 187.664001 C 61.8834 187.882996 62.269402 188 62.663403 188 L 62.664402 188 C 64.642403 188 65.419403 185.43399 63.773403 184.335999 L 30.773399 162.335999 C 29.444401 161.449997 27.663401 162.403 27.663401 164 C 27.663401 164.669006 27.9984 165.292999 28.554399 165.664001"/>
    <path id="path2" fill="#ffffff" stroke="none" d="M 28.554399 141.664001 L 97.554398 187.664001 C 97.8834 187.882996 98.269394 188 98.663399 188 C 100.642395 188 101.419395 185.43399 99.773399 184.335999 L 30.773399 138.335999 C 29.444401 137.449997 27.663401 138.403 27.663401 140 C 27.663401 140.669006 27.9984 141.292999 28.554399 141.664001"/>
    <path id="path3" fill="#ffffff" stroke="none" d="M 28.554399 149.664001 L 85.554398 187.664001 C 85.8834 187.882996 86.269402 188 86.663399 188 C 88.642403 188 89.419403 185.43399 87.773399 184.335999 L 30.773399 146.335999 C 29.444401 145.449997 27.663401 146.403 27.663401 148 C 27.663401 148.669006 27.9984 149.292999 28.554399 149.664001"/>
    <path id="path4" fill="#ffffff" stroke="none" d="M 28.554399 157.664001 L 73.554398 187.664001 C 73.8834 187.882996 74.269402 188 74.663399 188 L 74.664398 188 C 76.642403 188 77.419403 185.43399 75.773399 184.335999 L 30.773399 154.335999 C 29.444401 153.449997 27.663401 154.403 27.663401 156 C 27.663401 156.669006 27.9984 157.292999 28.554399 157.664001"/>
    <path id="path5" fill="#ffffff" stroke="none" d="M 28.554399 72.773193 L 116.890396 131.6642 C 117.809395 132.276199 119.051399 132.028198 119.663399 131.109192 C 120.276398 130.190201 120.028397 128.948196 119.109398 128.336197 L 30.773399 69.445206 C 29.444401 68.559204 27.663401 69.512207 27.663401 71.109207 L 27.663401 71.109207 C 27.663401 71.778198 27.9984 72.402206 28.554399 72.773193"/>
    <path id="path6" fill="#ffffff" stroke="none" d="M 28.554399 104.773193 L 116.890396 163.6642 C 117.809395 164.276199 119.051399 164.028198 119.663399 163.109192 C 120.276398 162.190201 120.028397 160.948196 119.109398 160.336197 L 30.773399 101.445206 C 29.444401 100.559204 27.663401 101.512207 27.663401 103.109207 L 27.663401 103.109207 C 27.663401 103.778198 27.9984 104.402206 28.554399 104.773193"/>
    <path id="path7" fill="#ffffff" stroke="none" d="M 28.554399 96.773193 L 116.890396 155.6642 C 117.809395 156.276199 119.051399 156.028198 119.663399 155.109192 C 120.276398 154.190201 120.028397 152.948196 119.109398 152.336197 L 30.773399 93.445206 C 29.444401 92.559204 27.663401 93.512207 27.663401 95.109207 L 27.663401 95.109207 C 27.663401 95.778198 27.9984 96.402206 28.554399 96.773193"/>
    <path id="path8" fill="#ffffff" stroke="none" d="M 28.554399 80.773193 L 116.890396 139.6642 C 117.809395 140.276199 119.051399 140.028198 119.663399 139.109192 C 120.276398 138.190201 120.028397 136.948196 119.109398 136.336197 L 30.773399 77.445206 C 29.444401 76.559204 27.663401 77.512207 27.663401 79.109207 L 27.663401 79.109207 C 27.663401 79.778198 27.9984 80.402206 28.554399 80.773193"/>
    <path id="path9" fill="#ffffff" stroke="none" d="M 28.554399 88.773193 L 116.890396 147.6642 C 117.809395 148.276199 119.051399 148.028198 119.663399 147.109192 C 120.276398 146.190201 120.028397 144.948196 119.109398 144.336197 L 30.773399 85.445206 C 29.444401 84.559204 27.663401 85.512207 27.663401 87.109207 L 27.663401 87.109207 C 27.663401 87.778198 27.9984 88.402206 28.554399 88.773193"/>
    <path id="path10" fill="#ffffff" stroke="none" d="M 79.554398 47.664001 L 116.890396 72.555008 C 117.809402 73.167007 119.051399 72.919006 119.663399 72 C 120.276398 71.080994 120.028397 69.839005 119.109398 69.227005 L 81.773399 44.335999 C 81.444397 44.117004 81.058403 44 80.663399 44 C 78.685402 44 77.908401 46.565994 79.554398 47.664001"/>
    <path id="path11" fill="#ffffff" stroke="none" d="M 67.554398 47.664001 L 116.890396 80.554993 C 117.809402 81.166992 119.051399 80.919006 119.663399 80 C 120.276398 79.080994 120.028397 77.839005 119.109398 77.227005 L 69.773399 44.335999 C 69.444397 44.117004 69.058403 44 68.663399 44 C 66.685402 44 65.908401 46.565994 67.554398 47.664001"/>
    <path id="path12" fill="#ffffff" stroke="none" d="M 43.554401 47.664001 L 116.890396 96.554993 C 117.809395 97.166992 119.051399 96.919006 119.663399 96 C 120.276398 95.080994 120.028397 93.839005 119.109398 93.227005 L 45.773399 44.335999 C 45.444401 44.117004 45.058399 44 44.663399 44 C 42.685398 44 41.908401 46.565994 43.554401 47.664001"/>
    <path id="path13" fill="#ffffff" stroke="none" d="M 55.554401 47.664001 L 116.890396 88.554993 C 117.809402 89.166992 119.051399 88.919006 119.663399 88 C 120.276398 87.080994 120.028397 85.839005 119.109398 85.227005 L 57.773399 44.335999 C 57.444401 44.117004 57.058399 44 56.663399 44 C 54.685398 44 53.908401 46.565994 55.554401 47.664001"/>
    <path id="path14" fill="#ffffff" stroke="none" d="M 224.890701 162.335907 L 191.890701 184.335907 C 190.243698 185.433899 191.020706 187.999908 192.999695 187.999908 C 193.394699 187.999908 193.780701 187.882904 194.109695 187.66391 L 227.109695 165.66391 C 227.665695 165.292908 227.999695 164.6689 227.999695 163.999908 C 227.999695 162.402893 226.219696 161.44989 224.890701 162.335907"/>
    <path id="path15" fill="#ffffff" stroke="none" d="M 224.890701 138.335907 L 155.890701 184.335907 C 154.243698 185.433899 155.020691 187.999908 156.999695 187.999908 C 157.394699 187.999908 157.780701 187.882904 158.109695 187.66391 L 227.109695 141.66391 C 227.665695 141.292908 227.999695 140.6689 227.999695 139.999908 C 227.999695 138.402893 226.219696 137.44989 224.890701 138.335907"/>
    <path id="path16" fill="#ffffff" stroke="none" d="M 224.890701 146.335907 L 167.890701 184.335907 C 166.243698 185.433899 167.020706 187.999908 168.999695 187.999908 C 169.394699 187.999908 169.780701 187.882904 170.109695 187.66391 L 227.109695 149.66391 C 227.665695 149.292908 227.999695 148.6689 227.999695 147.999908 C 227.999695 146.402893 226.219696 145.44989 224.890701 146.335907"/>
    <path id="path17" fill="#ffffff" stroke="none" d="M 224.890701 154.335907 L 179.890701 184.335907 C 178.243698 185.433899 179.020706 187.999908 180.999695 187.999908 C 181.394699 187.999908 181.780701 187.882904 182.109695 187.66391 L 227.109695 157.66391 C 227.665695 157.292908 227.999695 156.6689 227.999695 155.999908 C 227.999695 154.402893 226.219696 153.44989 224.890701 154.335907"/>
    <path id="path18" fill="#ffffff" stroke="none" d="M 138.773407 131.66391 L 227.109406 72.772903 C 227.665405 72.401901 228.000397 71.777893 228.000397 71.108902 L 228.000397 71.108902 C 228.000397 69.511902 226.219406 68.558899 224.890396 69.444901 L 136.554398 128.335907 C 135.635406 128.948898 135.387405 130.189911 136.000397 131.108902 C 136.612396 132.027893 137.854401 132.276901 138.773407 131.66391"/>
    <path id="path19" fill="#ffffff" stroke="none" d="M 138.773407 163.66391 L 227.109406 104.772903 C 227.665405 104.401901 228.000397 103.777893 228.000397 103.108902 L 228.000397 103.108902 C 228.000397 101.511902 226.219406 100.558899 224.890396 101.444901 L 136.554398 160.335907 C 135.635406 160.948898 135.387405 162.189911 136.000397 163.108902 C 136.612396 164.027893 137.854401 164.276901 138.773407 163.66391"/>
    <path id="path20" fill="#ffffff" stroke="none" d="M 138.773407 155.66391 L 227.109406 96.772903 C 227.665405 96.401901 228.000397 95.777893 228.000397 95.108902 L 228.000397 95.108902 C 228.000397 93.511902 226.219406 92.558899 224.890396 93.444901 L 136.554398 152.335907 C 135.635406 152.948898 135.387405 154.189911 136.000397 155.108902 C 136.612396 156.027893 137.854401 156.276901 138.773407 155.66391"/>
    <path id="path21" fill="#ffffff" stroke="none" d="M 138.773407 139.66391 L 227.109406 80.772903 C 227.665405 80.401901 228.000397 79.777893 228.000397 79.108902 L 228.000397 79.108902 C 228.000397 77.511902 226.219406 76.558899 224.890396 77.444901 L 136.554398 136.335907 C 135.635406 136.948898 135.387405 138.189911 136.000397 139.108902 C 136.612396 140.027893 137.854401 140.276901 138.773407 139.66391"/>
    <path id="path22" fill="#ffffff" stroke="none" d="M 138.773407 147.66391 L 227.109406 88.772903 C 227.665405 88.401901 228.000397 87.777893 228.000397 87.108902 L 228.000397 87.108902 C 228.000397 85.511902 226.219406 84.558899 224.890396 85.444901 L 136.554398 144.335907 C 135.635406 144.948898 135.387405 146.189911 136.000397 147.108902 C 136.612396 148.027893 137.854401 148.276901 138.773407 147.66391"/>
    <path id="path23" fill="#ffffff" stroke="none" d="M 138.773407 72.554703 L 176.109406 47.663696 C 177.755402 46.566696 176.978409 43.999695 175.000397 43.999695 C 174.605408 43.999695 174.219406 44.116699 173.890396 44.335693 L 136.554398 69.2267 C 135.635406 69.839706 135.387405 71.080704 136.000397 71.999695 C 136.612396 72.918701 137.854401 73.167694 138.773407 72.554703"/>
    <path id="path24" fill="#ffffff" stroke="none" d="M 138.773407 80.554703 L 188.109406 47.663696 C 189.755402 46.566696 188.978409 43.999695 187.000397 43.999695 C 186.605408 43.999695 186.219406 44.116699 185.890396 44.335693 L 136.554398 77.2267 C 135.635406 77.839706 135.387405 79.080704 136.000397 79.999695 C 136.612396 80.918701 137.854401 81.167694 138.773407 80.554703"/>
    <path id="path25" fill="#ffffff" stroke="none" d="M 138.773407 96.554703 L 212.109406 47.663696 C 213.755402 46.566696 212.978409 43.999695 211.000397 43.999695 C 210.605408 43.999695 210.219406 44.116699 209.890396 44.335693 L 136.554398 93.2267 C 135.635406 93.839706 135.387405 95.080704 136.000397 95.999695 C 136.612396 96.918701 137.854401 97.167694 138.773407 96.554703"/>
    <path id="path26" fill="#ffffff" stroke="none" d="M 138.773407 88.554703 L 200.109406 47.663696 C 201.755402 46.566696 200.978409 43.999695 199.000397 43.999695 C 198.605408 43.999695 198.219406 44.116699 197.890396 44.335693 L 136.554398 85.2267 C 135.635406 85.839706 135.387405 87.080704 136.000397 87.999695 C 136.612396 88.918701 137.854401 89.167694 138.773407 88.554703"/>
</svg>
