<?xml version="1.0" encoding="UTF-8"?>
<!-- Generated by Pixelmator Pro 3.7.1 -->
<svg width="256" height="256" viewBox="0 0 256 256" xmlns="http://www.w3.org/2000/svg">
    <path id="Path" fill="#ffffff" stroke="none" d="M 128 240 C 98.082001 240 69.955002 228.350006 48.802002 207.195999 C 27.649002 186.042999 16 157.916992 16 128 C 16 98.082993 27.649002 69.957001 48.802002 48.804001 C 69.955002 27.649994 98.082001 16 128 16 C 189.757004 16 240 66.242996 240 128 C 240 189.757004 189.757004 240 128 240 M 128 12 C 63.929001 12 12 63.934006 12 128 C 12 192.06601 63.929001 244 128 244 C 192.050995 244 244 192.06601 244 128 C 244 63.934006 192.050995 12 128 12"/>
    <path id="path1" fill="#ffffff" stroke="none" d="M 128.001801 160 C 110.352798 160 95.999802 145.643997 95.999802 128 C 95.999802 110.356003 110.352798 96 128.001801 96 C 145.646805 96 159.999802 110.356003 159.999802 128 C 159.999802 145.643997 145.646805 160 128.001801 160 M 128.001801 92 C 108.150803 92 91.999802 108.149994 91.999802 128 C 91.999802 147.850006 108.150803 164 128.001801 164 C 147.8508 164 163.999802 147.850006 163.999802 128 C 163.999802 108.149994 147.8508 92 128.001801 92"/>
    <path id="path2" fill="#ffffff" stroke="none" d="M 128 112 C 119.163002 112 112 119.162994 112 128 C 112 136.837006 119.163002 144 128 144 C 136.837006 144 144 136.837006 144 128 C 144 119.162994 136.837006 112 128 112 M 128 116 C 134.617004 116 140 121.382996 140 128 C 140 134.617004 134.617004 140 128 140 C 121.383003 140 116 134.617004 116 128 C 116 121.382996 121.383003 116 128 116"/>
</svg>
