<?xml version="1.0" encoding="UTF-8"?>
<!-- Generated by Pixelmator Pro 3.7.1 -->
<svg width="256" height="256" viewBox="0 0 256 256" xmlns="http://www.w3.org/2000/svg">
    <path id="Path" fill="#ffffff" stroke="none" d="M 244 168 L 44 168 L 44 88 L 244 88 Z M 32 168 L 32 152 L 32 148 L 32 108 L 32 104 L 32 88 L 40 88 L 40 168 Z M 12 108 L 28 108 L 28 148 L 12 148 Z M 244 84 L 32 84 L 28 84 L 28 88 L 28 104 L 12 104 L 8 104 L 8 108 L 8 148 L 8 152 L 12 152 L 28 152 L 28 168 L 28 172 L 32 172 L 244 172 L 248 172 L 248 168 L 248 88 L 248 84 Z"/>
</svg>
