<?xml version="1.0" encoding="UTF-8"?>
<!-- Generated by Pixelmator Pro 3.7.1 -->
<svg width="256" height="256" viewBox="0 0 256 256" xmlns="http://www.w3.org/2000/svg">
    <path id="Path" fill="#ffffff" stroke="none" d="M 244 144 L 228 144 L 228 160 L 212 160 L 212 176 L 180 176 L 180 164 L 180 160 L 180 144 L 196 144 L 196 112 L 180 112 L 180 96 L 180 92 L 180 80 L 212 80 L 212 96 L 228 96 L 228 112 L 244 112 Z M 176 212 L 160 212 L 160 228 L 144 228 L 144 244 L 112 244 L 112 228 L 96 228 L 96 212 L 80 212 L 80 180 L 92 180 L 96 180 L 112 180 L 112 196 L 144 196 L 144 180 L 160 180 L 164 180 L 176 180 Z M 44 176 L 44 160 L 28 160 L 28 144 L 12 144 L 12 112 L 28 112 L 28 96 L 44 96 L 44 80 L 76 80 L 76 92 L 76 96 L 76 112 L 60 112 L 60 144 L 76 144 L 76 160 L 76 164 L 76 176 Z M 176 92 L 164 92 L 164 80 L 176 80 Z M 180 116 L 192 116 L 192 140 L 180 140 Z M 160 112 L 144 112 L 144 96 L 160 96 Z M 140 76 L 116 76 L 116 64 L 140 64 Z M 96 96 L 112 96 L 112 112 L 96 112 Z M 80 80 L 92 80 L 92 92 L 80 92 Z M 80 164 L 92 164 L 92 176 L 80 176 Z M 76 140 L 64 140 L 64 116 L 76 116 Z M 116 180 L 140 180 L 140 192 L 116 192 Z M 176 144 L 176 160 L 160 160 L 160 176 L 144 176 L 140 176 L 116 176 L 112 176 L 96 176 L 96 160 L 80 160 L 80 144 L 80 140 L 80 116 L 80 112 L 80 96 L 92 96 L 92 112 L 92 116 L 96 116 L 112 116 L 116 116 L 116 112 L 116 96 L 116 92 L 112 92 L 96 92 L 96 80 L 112 80 L 116 80 L 140 80 L 144 80 L 160 80 L 160 92 L 144 92 L 140 92 L 140 96 L 140 112 L 140 116 L 144 116 L 160 116 L 164 116 L 164 112 L 164 96 L 176 96 L 176 112 L 176 116 L 176 140 Z M 176 176 L 164 176 L 164 164 L 176 164 Z M 80 44 L 96 44 L 96 28 L 112 28 L 112 12 L 144 12 L 144 28 L 160 28 L 160 44 L 176 44 L 176 76 L 164 76 L 160 76 L 144 76 L 144 60 L 112 60 L 112 76 L 96 76 L 92 76 L 80 76 Z M 244 108 L 232 108 L 232 96 L 232 92 L 228 92 L 216 92 L 216 80 L 216 76 L 212 76 L 180 76 L 180 44 L 180 40 L 176 40 L 164 40 L 164 28 L 164 24 L 160 24 L 148 24 L 148 12 L 148 8 L 144 8 L 112 8 L 108 8 L 108 12 L 108 24 L 96 24 L 92 24 L 92 28 L 92 40 L 80 40 L 76 40 L 76 44 L 76 76 L 44 76 L 40 76 L 40 80 L 40 92 L 28 92 L 24 92 L 24 96 L 24 108 L 12 108 L 8 108 L 8 112 L 8 144 L 8 148 L 12 148 L 24 148 L 24 160 L 24 164 L 28 164 L 40 164 L 40 176 L 40 180 L 44 180 L 76 180 L 76 212 L 76 216 L 80 216 L 92 216 L 92 228 L 92 232 L 96 232 L 108 232 L 108 244 L 108 248 L 112 248 L 144 248 L 148 248 L 148 244 L 148 232 L 160 232 L 164 232 L 164 228 L 164 216 L 176 216 L 180 216 L 180 212 L 180 180 L 212 180 L 216 180 L 216 176 L 216 164 L 228 164 L 232 164 L 232 160 L 232 148 L 244 148 L 248 148 L 248 144 L 248 112 L 248 108 Z"/>
    <path id="path1" fill="#ffffff" stroke="none" d="M 144 160 L 112 160 L 112 128 L 144 128 Z M 112 124 L 108 124 L 108 128 L 108 160 L 108 164 L 112 164 L 144 164 L 148 164 L 148 160 L 148 128 L 148 124 L 144 124 Z"/>
</svg>
