<?xml version="1.0" encoding="UTF-8"?>
<!-- Generated by Pixelmator Pro 3.7.1 -->
<svg width="256" height="256" viewBox="0 0 256 256" xmlns="http://www.w3.org/2000/svg">
    <path id="Path" fill="#ffffff" stroke="none" d="M 156 156 L 152 156 L 136 156 L 132 156 L 132 160 L 132 164 L 124 164 L 124 160 L 124 156 L 120 156 L 104 156 L 100 156 L 100 160 L 100 176 L 100 180 L 104 180 L 108 180 L 108 184 L 108 188 L 112 188 L 116 188 L 116 192 L 116 196 L 120 196 L 136 196 L 140 196 L 140 192 L 140 188 L 144 188 L 148 188 L 148 184 L 148 180 L 152 180 L 156 180 L 156 176 L 156 160 Z M 152 160 L 152 176 L 144 176 L 144 184 L 136 184 L 136 192 L 120 192 L 120 184 L 112 184 L 112 176 L 104 176 L 104 160 L 120 160 L 120 168 L 136 168 L 136 160 Z"/>
    <path id="path1" fill="#ffffff" stroke="none" d="M 140 60 L 136 60 L 120 60 L 116 60 L 116 64 L 116 68 L 112 68 L 108 68 L 108 72 L 108 76 L 104 76 L 100 76 L 100 80 L 100 96 L 100 100 L 104 100 L 120 100 L 124 100 L 124 96 L 124 92 L 132 92 L 132 96 L 132 100 L 136 100 L 152 100 L 156 100 L 156 96 L 156 80 L 156 76 L 152 76 L 148 76 L 148 72 L 148 68 L 144 68 L 140 68 L 140 64 Z M 136 64 L 136 72 L 144 72 L 144 80 L 152 80 L 152 96 L 136 96 L 136 88 L 120 88 L 120 96 L 104 96 L 104 80 L 112 80 L 112 72 L 120 72 L 120 64 Z"/>
    <path id="path2" fill="#ffffff" stroke="none" d="M 180 100 L 176 100 L 160 100 L 156 100 L 156 104 L 156 120 L 156 124 L 160 124 L 164 124 L 164 132 L 160 132 L 156 132 L 156 136 L 156 152 L 156 156 L 160 156 L 176 156 L 180 156 L 180 152 L 180 148 L 184 148 L 188 148 L 188 144 L 188 140 L 192 140 L 196 140 L 196 136 L 196 120 L 196 116 L 192 116 L 188 116 L 188 112 L 188 108 L 184 108 L 180 108 L 180 104 Z M 176 104 L 176 112 L 184 112 L 184 120 L 192 120 L 192 136 L 184 136 L 184 144 L 176 144 L 176 152 L 160 152 L 160 136 L 168 136 L 168 120 L 160 120 L 160 104 Z"/>
    <path id="path3" fill="#ffffff" stroke="none" d="M 100 100 L 96 100 L 80 100 L 76 100 L 76 104 L 76 108 L 72 108 L 68 108 L 68 112 L 68 116 L 64 116 L 60 116 L 60 120 L 60 136 L 60 140 L 64 140 L 68 140 L 68 144 L 68 148 L 72 148 L 76 148 L 76 152 L 76 156 L 80 156 L 96 156 L 100 156 L 100 152 L 100 136 L 100 132 L 96 132 L 92 132 L 92 124 L 96 124 L 100 124 L 100 120 L 100 104 Z M 96 104 L 96 120 L 88 120 L 88 136 L 96 136 L 96 152 L 80 152 L 80 144 L 72 144 L 72 136 L 64 136 L 64 120 L 72 120 L 72 112 L 80 112 L 80 104 Z"/>
    <path id="path4" fill="#ffffff" stroke="none" d="M 208 208 L 48 208 L 48 48 L 208 48 Z M 208 44 L 48 44 L 44 44 L 44 48 L 44 208 L 44 212 L 48 212 L 208 212 L 212 212 L 212 208 L 212 48 L 212 44 Z"/>
</svg>
