<?xml version="1.0" encoding="UTF-8"?>
<!-- Generated by Pixelmator Pro 3.7.1 -->
<svg width="256" height="256" viewBox="0 0 256 256" xmlns="http://www.w3.org/2000/svg">
    <path id="Path" fill="#ffffff" stroke="none" d="M 240.133804 12 L 15.866801 12 L 11.999797 12 L 11.999797 15.867004 L 11.999797 240.134003 L 11.999797 244 L 15.866801 244 L 240.133804 244 L 243.999802 244 L 243.999802 240.134003 L 243.999802 15.867004 L 243.999802 12 Z M 240.133804 240.134003 L 15.866801 240.134003 L 15.866801 15.867004 L 240.133804 15.867004 Z"/>
    <path id="path1" fill="#ffffff" stroke="none" d="M 141.610397 70.785202 C 140.752396 72.865204 141.588394 75.410202 143.567398 76.476196 C 153.937393 81.905197 160.139404 92.446198 160.139404 104.672195 C 160.139404 119.5672 149.986404 132.342194 135.911407 135.8992 L 135.911407 126.349197 L 137.7444 126.349197 C 139.747406 126.349197 141.371399 124.732193 141.371399 122.729202 C 141.371399 121.670197 141.061401 120.5802 140.505402 119.652206 C 139.592407 118.128204 138.154404 117.254196 136.545395 117.254196 L 119.408401 117.254196 C 116.531403 117.254196 114.598404 120.085205 114.598404 122.722198 C 114.598404 124.725204 116.222397 126.349197 118.225403 126.349197 L 120.111397 126.349197 L 120.111397 135.915192 C 106.0224 132.373199 95.829399 119.598206 95.829399 104.672195 C 95.829399 92.461197 102.024399 81.921204 112.386398 76.484207 C 113.423401 75.958206 114.195396 75.069199 114.559402 73.971207 C 114.923401 72.881195 114.838402 71.697205 114.312401 70.653198 C 113.554398 69.161194 112.069397 68.225204 110.429398 68.225204 C 109.788399 68.225204 109.138397 68.380203 108.543396 68.658203 C 92.836403 76.013199 83.0924 91.549194 83.0924 109.2202 C 83.0924 120.433197 87.237396 131.175201 94.746399 139.46521 C 101.4664 146.889191 110.3834 151.792206 120.1194 153.531204 C 120.1194 153.531204 120.143402 161.969208 120.166397 162.14621 L 123.723404 183.892212 C 123.932404 186.097198 125.796402 187.821198 128.054398 187.821198 C 130.312393 187.821198 132.1754 186.089203 132.384399 183.877197 L 135.887405 162.123199 C 135.919403 161.930206 135.926407 153.493195 135.926407 153.493195 C 145.655396 151.753204 154.556396 146.827209 161.268402 139.418213 C 168.778397 131.1362 172.907394 120.402206 172.907394 109.188202 C 172.907394 91.456192 163.140396 75.896194 147.418396 68.581207 C 146.884399 68.356201 146.172394 68.179199 145.586395 68.179199 C 143.907394 68.2332 142.360397 69.269196 141.610397 70.785202 M 145.5784 71.860199 C 145.678406 71.860199 145.779404 71.883194 145.880402 71.9142 C 159.930405 78.456207 169.2724 92.546204 169.2724 109.235199 C 169.2724 130.633209 153.071396 148.226196 132.299393 150.391205 L 132.299393 161.59021 L 128.765396 183.506195 C 128.765396 183.908203 128.417404 184.2332 128.038406 184.2332 C 127.652397 184.2332 127.311401 183.916199 127.311401 183.506195 L 123.723404 161.59021 L 123.723404 150.3992 C 102.921402 148.272202 86.6884 130.672211 86.6884 109.243195 C 86.6884 92.577194 96.0224 78.526199 110.082397 71.960205 C 110.553398 71.713196 110.9244 72.037201 111.056396 72.308197 C 111.249397 72.680206 111.087402 73.097198 110.708397 73.275208 C 99.301399 79.253204 92.2024 90.876205 92.2024 104.688202 C 92.2024 123.023193 105.960396 138.165192 123.7314 140.268204 L 123.7314 125.815201 C 123.7314 124.121201 122.347397 122.737198 120.653397 122.737198 L 118.2174 122.737198 C 118.2174 121.949203 118.751404 120.897202 119.408401 120.897202 L 136.552399 120.897202 C 137.225403 120.897202 137.752396 121.949203 137.752396 122.737198 L 135.346405 122.737198 C 133.691406 122.737198 132.299393 124.114197 132.299393 125.815201 L 132.299393 140.2612 C 150.048401 138.135193 163.774399 123.023193 163.774399 104.688202 C 163.774399 90.853195 156.667404 79.253204 145.260406 73.283203 C 144.913406 73.089203 144.765396 72.687195 144.913406 72.316193 C 145.044403 72.014206 145.299393 71.860199 145.5784 71.860199"/>
</svg>
