<?xml version="1.0" encoding="UTF-8"?>
<!-- Generated by Pixelmator Pro 3.7.1 -->
<svg width="256" height="256" viewBox="0 0 256 256" xmlns="http://www.w3.org/2000/svg">
    <path id="Path" fill="#ffffff" stroke="none" d="M 60.799801 121.190903 C 66.758797 127.910904 86.0588 135.213898 100.200798 136.330902 L 104.5588 181.690903 C 104.677795 184.190903 106.6838 186.10791 109.213799 186.10791 C 111.723801 186.10791 113.788795 184.102905 113.867798 181.610901 L 116.862801 132.842896 L 116.862801 123.068893 C 116.862801 120.271896 114.757797 118.077896 112.069801 118.077896 C 98.105797 117.998901 86.2668 116.723907 77.876801 114.381897 C 73.656799 113.205902 71.166801 112.009903 69.772797 111.160904 C 71.3638 110.290894 74.5858 108.906906 81.019798 107.148895 C 83.262802 106.811905 84.991798 104.8759 84.991798 102.532898 C 84.991798 99.963898 82.540802 97.878906 79.971802 97.878906 C 79.763802 97.917892 74.644798 98.925903 69.802803 100.506897 C 64.2388 102.325897 57.854801 105.082901 57.854801 110.251907 C 57.854801 110.942902 58.062801 117.257904 60.799801 121.190903 M 195.199799 121.150894 C 197.927811 117.188904 198.134811 110.873901 198.134811 110.191895 C 198.134811 105.023895 191.740799 102.2659 186.187805 100.447906 C 181.334808 98.856903 176.215805 97.858902 176.018799 97.818893 C 173.399796 97.818893 170.997803 99.864899 170.997803 102.473907 C 170.997803 104.815903 172.727798 106.752899 174.970795 107.088898 C 181.433807 108.857895 184.6548 110.240906 186.236801 111.110901 C 182.610794 113.314896 171.719803 117.919907 143.900803 118.018906 C 140.896805 118.018906 139.087799 120.558899 139.087799 123.008896 L 139.087799 132.782898 L 142.081802 181.542908 C 142.160797 184.081909 144.177795 186.048904 146.737808 186.048904 C 149.227798 186.048904 151.262802 184.091904 151.3918 181.641907 L 155.749802 136.290894 C 169.920807 135.223907 189.231812 127.920898 195.199799 121.150894 M 127.999794 63.151901 C 125.489799 63.151901 123.444801 65.137894 123.344795 67.618896 L 118.6418 131.350891 L 123.344795 188.3909 C 123.453796 190.900909 125.449799 192.8479 127.999794 192.8479 C 130.499802 192.8479 132.545807 190.870911 132.653793 188.400909 L 137.358795 131.359894 L 132.653793 67.628906 C 132.545807 65.137894 130.499802 63.151901 127.999794 63.151901 M 80.337799 101.643906 C 80.8508 101.643906 81.246803 102.0289 81.246803 102.552902 C 81.246803 103.066895 80.8508 103.471893 80.337799 103.471893 C 63.458801 108.057907 64.831802 110.922897 64.920799 111.703903 C 65.118797 113.304901 74.615799 121.655899 112.079796 121.852905 C 113.126801 121.852905 113.126801 123.087906 113.126801 123.087906 L 113.126801 132.752899 L 110.132797 181.473907 C 110.132797 181.957901 109.746796 182.382904 109.223801 182.382904 C 108.699799 182.382904 108.304802 181.986908 108.304802 181.473907 L 103.619797 132.752899 C 90.347801 132.684906 69.3778 125.232895 63.764801 118.888901 C 61.619801 115.794907 61.619801 110.270905 61.619801 110.270905 C 61.610802 105.279907 80.337799 101.643906 80.337799 101.643906 M 175.661804 101.574905 C 175.661804 101.574905 194.399811 105.211899 194.399811 110.191895 C 194.399811 110.191895 194.399811 115.715897 192.254807 118.838898 C 186.631805 125.212906 165.651794 132.66391 152.3508 132.66391 L 147.665802 181.384903 C 147.665802 181.868896 147.2798 182.2939 146.746796 182.2939 C 146.222794 182.2939 145.837799 181.907898 145.837799 181.384903 L 142.843796 132.66391 L 142.843796 122.999893 C 142.843796 122.999893 142.843796 121.763901 143.920807 121.763901 C 181.394806 121.635895 190.851807 113.245895 191.078812 111.644897 C 191.207809 110.8349 192.541809 107.967896 175.661804 103.382904 C 175.148804 103.382904 174.752808 102.997894 174.752808 102.463898 C 174.742798 101.9599 175.128799 101.574905 175.661804 101.574905 M 127.999794 66.897903 C 128.484802 66.897903 128.908798 67.282898 128.908798 67.8069 L 133.593796 131.319901 L 128.908798 188.173904 C 128.908798 188.657898 128.523804 189.082901 127.999794 189.082901 C 127.486794 189.082901 127.090797 188.696899 127.090797 188.173904 L 122.406799 131.319901 L 127.090797 67.8069 C 127.090797 67.321899 127.4758 66.897903 127.999794 66.897903"/>
    <path id="path1" fill="#ffffff" stroke="none" d="M 208.007996 208.007996 L 48.012001 208.007996 L 48.012001 48.011993 L 208.007996 48.011993 Z M 212 44 L 44 44 L 44 212 L 212 212 Z"/>
</svg>
