<?xml version="1.0" encoding="UTF-8"?>
<!-- Generated by Pixelmator Pro 3.7.1 -->
<svg width="256" height="256" viewBox="0 0 256 256" xmlns="http://www.w3.org/2000/svg">
    <path id="Path" fill="#ffffff" stroke="none" d="M 142.082001 66.921402 C 141.192993 69.075394 142.061996 71.694397 144.108002 72.811401 C 154.841003 78.424393 161.253998 89.334396 161.253998 101.974396 C 161.253998 117.390396 150.748993 130.593399 136.201996 134.269409 L 136.201996 124.3974 L 138.089996 124.3974 C 140.154999 124.3974 141.835007 122.717407 141.835007 120.651398 C 141.835007 119.565399 141.520004 118.428406 140.945999 117.460403 C 140.007004 115.888397 138.514999 114.989395 136.854004 114.989395 L 119.125 114.989395 C 116.151001 114.989395 114.144997 117.914398 114.144997 120.642395 C 114.144997 122.707397 115.824997 124.387405 117.889999 124.387405 L 119.847 124.387405 L 119.847 134.289398 C 105.269997 130.632401 94.736 117.420395 94.736 101.974396 C 94.736 89.334396 101.139999 78.444397 111.851997 72.821396 C 112.929001 72.277405 113.730003 71.348404 114.105003 70.222397 C 114.481003 69.085403 114.391998 67.870407 113.848999 66.793396 C 113.068001 65.251404 111.536003 64.282394 109.825996 64.282394 C 109.153999 64.282394 108.482002 64.441406 107.878998 64.727402 C 91.632996 72.346405 81.553001 88.415405 81.553001 106.697403 C 81.553001 118.299393 85.832001 129.40741 93.609001 137.985413 C 100.556999 145.654404 109.787003 150.743408 119.857002 152.53241 C 119.857002 152.53241 119.875999 161.248413 119.905998 161.446411 L 123.592003 183.9384 C 123.809998 186.220398 125.737 188.000397 128.069 188.000397 C 130.410995 188.000397 132.337997 186.211395 132.546005 183.928406 L 136.162994 161.426392 C 136.192001 161.228394 136.212006 152.503403 136.212006 152.503403 C 146.272003 150.704407 155.473007 145.61441 162.419998 137.946411 C 170.177994 129.378403 174.457001 118.270401 174.457001 106.678406 C 174.457001 88.336395 164.356995 72.238403 148.091003 64.678406 C 147.537003 64.441406 146.806 64.263397 146.203003 64.263397 C 144.464005 64.292404 142.852997 65.359406 142.082001 66.921402 M 146.192993 68.038406 C 146.292007 68.038406 146.401001 68.058395 146.5 68.097397 C 161.037003 74.857407 170.690994 89.433395 170.690994 106.707397 C 170.690994 128.844391 153.932007 147.038391 132.447006 149.281403 L 132.447006 160.863403 L 128.800003 183.533401 C 128.800003 183.948395 128.434998 184.284393 128.048996 184.284393 C 127.664001 184.284393 127.297997 183.958405 127.297997 183.533401 L 123.582001 160.863403 L 123.582001 149.291412 C 102.069 147.087402 85.278999 128.87439 85.278999 106.717407 C 85.278999 89.483398 94.933998 74.945404 109.471001 68.1474 C 109.955002 67.889404 110.339996 68.226395 110.477997 68.502396 C 110.676003 68.888397 110.508003 69.3134 110.123001 69.510406 C 98.322998 75.687393 90.971001 87.713394 90.971001 101.993393 C 90.971001 120.958405 105.200996 136.631409 123.582001 138.805405 L 123.582001 123.863403 C 123.582001 122.104401 122.149002 120.681396 120.390999 120.681396 L 117.871002 120.681396 C 117.871002 119.871399 118.423996 118.774399 119.096001 118.774399 L 136.824997 118.774399 C 137.516998 118.774399 138.061005 119.871399 138.061005 120.681396 L 135.570007 120.681396 C 133.850998 120.681396 132.406998 122.114395 132.406998 123.863403 L 132.406998 138.805405 C 150.759003 136.60141 164.960007 120.978394 164.960007 102.004395 C 164.960007 87.694397 157.606995 75.696396 145.807999 69.520401 C 145.442001 69.322403 145.283997 68.907394 145.442001 68.512405 C 145.619995 68.206406 145.906998 68.038406 146.192993 68.038406"/>
    <path id="path1" fill="#ffffff" stroke="none" d="M 208.007797 208.007797 L 48.002796 208.007797 L 48.002796 48.002792 L 207.997803 48.002792 Z M 211.999802 43.999802 L 43.999805 43.999802 L 43.999805 211.999802 L 211.999802 211.999802 Z"/>
</svg>
