<?xml version="1.0" encoding="UTF-8"?>
<!-- Generated by Pixelmator Pro 3.7.1 -->
<svg width="256" height="256" viewBox="0 0 256 256" xmlns="http://www.w3.org/2000/svg">
    <path id="Path" fill="#ffffff" stroke="none" d="M 148.071304 66.551804 C 147.508301 66.314804 146.786301 66.135803 146.183304 66.135803 C 144.4543 66.135803 142.843292 67.233795 142.062302 68.7948 C 141.1633 70.948807 141.993301 73.518799 144.039307 74.634796 C 144.058304 74.644806 144.078293 74.655807 144.098297 74.664795 C 154.831299 80.278793 161.244293 91.188797 161.244293 103.827805 C 161.244293 116.655807 154.059296 128.049805 142.922302 133.622803 L 142.922302 126.240799 L 144.919296 126.240799 C 146.994293 126.240799 148.664307 124.560806 148.664307 122.495804 C 148.664307 119.767807 146.668304 116.842804 143.703293 116.842804 L 112.306297 116.842804 C 109.322296 116.842804 107.316299 119.767807 107.316299 122.495804 C 107.316299 124.560806 108.9963 126.240799 111.061302 126.240799 L 112.919296 126.240799 L 112.919296 133.533813 C 101.861298 127.920807 94.726295 116.555801 94.726295 103.817795 C 94.726295 91.177795 101.139297 80.267807 111.872299 74.655807 C 111.891296 74.634796 111.921295 74.634796 111.941299 74.615799 C 113.987297 73.4888 114.8563 71.028793 113.957298 68.873795 C 113.265297 67.203796 111.644302 66.126801 109.836296 66.126801 C 109.164299 66.126801 108.4823 66.284805 107.879295 66.580795 C 91.633301 74.2108 81.552299 90.288803 81.552299 108.561798 C 81.552299 128.493805 94.321297 146.202805 112.939301 152.597809 L 112.988297 163.319794 L 116.675301 185.811798 C 116.892296 188.094803 118.819298 189.872803 121.151299 189.872803 C 123.493301 189.872803 125.421303 188.084808 125.628296 185.801804 L 127.960297 171.2948 L 130.332306 185.801804 C 130.550293 188.084808 132.476303 189.8638 134.808304 189.8638 C 137.151306 189.8638 139.078293 188.074799 139.286301 185.791809 L 142.892303 163.289795 L 142.932297 152.626801 C 161.630295 146.272797 174.447296 128.543793 174.447296 108.551804 C 174.447296 90.219803 164.347305 74.121796 148.071304 66.551804 M 127.990303 140.925812 C 128.780304 140.925812 129.5513 140.896805 130.332306 140.846802 L 130.332306 125.094803 C 130.332306 123.759796 129.255295 122.6828 127.921303 122.6828 C 126.587303 122.6828 125.5093 123.759796 125.5093 125.094803 L 125.5093 140.846802 C 126.340302 140.88681 127.160301 140.925812 127.990303 140.925812 M 146.490295 69.950806 C 161.037292 76.720795 170.691299 91.286804 170.691299 108.561798 C 170.691299 128.325806 157.331299 144.947815 139.1763 149.869812 L 139.1763 162.716797 L 135.540298 185.38681 C 135.540298 185.811798 135.214294 186.137802 134.789307 186.137802 C 134.393295 186.137802 134.0383 185.811798 134.0383 185.38681 L 130.332306 162.716797 L 130.332306 151.302795 C 129.561295 151.341797 128.780304 151.371796 127.990303 151.371796 C 127.160301 151.371796 126.340302 151.341797 125.519302 151.292801 L 125.519302 162.726807 L 121.873299 185.396805 C 121.873299 185.821808 121.547302 186.147797 121.122299 186.147797 C 120.696297 186.147797 120.3703 185.821808 120.3703 185.396805 L 116.655296 162.726807 L 116.655296 149.839813 C 98.560295 144.868805 85.268295 128.286804 85.268295 108.580795 C 85.268295 91.345795 94.924301 76.799805 109.461296 70.009796 C 109.945297 69.772797 110.350296 70.089798 110.4683 70.365799 C 110.636299 70.751801 110.4683 71.176804 110.113297 71.373795 C 98.303299 77.550797 90.961296 89.587799 90.961296 103.866806 C 90.961296 120.370804 101.762299 134.37381 116.655296 139.166809 L 116.655296 125.717804 C 116.655296 123.957794 115.222298 122.525803 113.473297 122.525803 L 111.0513 122.525803 C 111.0513 121.714798 111.605301 120.617798 112.2873 120.617798 L 143.693298 120.617798 C 144.345306 120.617798 144.8983 121.714798 144.8983 122.525803 L 142.339294 122.525803 C 140.580307 122.525803 139.147293 123.957794 139.147293 125.717804 L 139.147293 139.216797 C 154.129303 134.472809 164.969299 120.439804 164.969299 103.857803 C 164.969299 89.547806 157.617294 77.550797 145.818298 71.3638 C 145.462296 71.166794 145.303299 70.751801 145.462296 70.356796 C 145.9263 69.5858 146.490295 69.950806 146.490295 69.950806"/>
    <path id="path1" fill="#ffffff" stroke="none" d="M 208.007996 208.007996 L 48.012001 208.007996 L 48.012001 48.011993 L 208.007996 48.011993 Z M 212 44 L 44 44 L 44 212 L 212 212 Z"/>
</svg>
