<?xml version="1.0" encoding="UTF-8"?>
<!-- Generated by Pixelmator Pro 3.7.1 -->
<svg width="256" height="256" viewBox="0 0 256 256" xmlns="http://www.w3.org/2000/svg">
    <path id="Path" fill="#ffffff" stroke="none" d="M 240.133804 12 L 15.866801 12 L 11.999797 12 L 11.999797 15.867004 L 11.999797 240.134003 L 11.999797 244 L 15.866801 244 L 240.133804 244 L 243.999802 244 L 243.999802 240.134003 L 243.999802 15.867004 L 243.999802 12 Z M 240.133804 240.134003 L 15.866801 240.134003 L 15.866801 15.867004 L 240.133804 15.867004 Z"/>
    <path id="path1" fill="#ffffff" stroke="none" d="M 147.395493 68.607895 C 146.845505 68.383896 146.158493 68.205902 145.5625 68.205902 C 143.883499 68.205902 142.330505 69.257904 141.580505 70.773895 C 140.706497 72.853897 141.509506 75.335907 143.498505 76.4189 C 143.520493 76.425903 143.536499 76.441895 143.559494 76.449905 C 153.929504 81.878906 160.1315 92.4189 160.1315 104.645905 C 160.1315 117.041901 153.195496 128.06189 142.422501 133.451904 L 142.422501 126.321899 L 144.348495 126.321899 C 146.351501 126.321899 147.967499 124.705902 147.967499 122.694901 C 147.967499 120.057907 146.041504 117.227905 143.172501 117.227905 L 141.958496 117.227905 L 114.041496 117.227905 L 112.811501 117.227905 C 109.927498 117.227905 107.986496 120.057907 107.986496 122.694901 C 107.986496 124.697906 109.602501 126.321899 111.613495 126.321899 L 113.415497 126.321899 L 113.415497 133.374908 C 102.727501 127.945908 95.821495 116.963898 95.821495 104.652893 C 95.821495 92.426895 102.023499 81.885895 112.394501 76.457901 C 112.4095 76.441895 112.440498 76.441895 112.463501 76.4189 C 114.435501 75.335907 115.2705 72.945892 114.412498 70.865906 C 113.739502 69.249893 112.177498 68.212906 110.422501 68.212906 C 109.772499 68.212906 109.115501 68.367905 108.5355 68.646896 C 92.828499 76.0009 83.084503 91.536896 83.084503 109.199905 C 83.084503 128.455902 95.419495 145.593903 113.430496 151.764893 L 113.430496 161.546906 C 113.430496 161.747894 113.445496 161.940903 113.476501 162.126892 L 117.0345 183.872894 C 117.2435 186.076904 119.106499 187.80191 121.356499 187.80191 C 123.623497 187.80191 125.4785 186.068909 125.680496 183.85791 L 127.930496 169.836899 L 130.219498 183.85791 C 130.428497 186.061905 132.291504 187.785904 134.541504 187.785904 C 136.808502 187.785904 138.664505 186.053894 138.873505 183.842896 L 142.360504 162.088898 C 142.391495 161.895905 142.407501 161.701904 142.407501 161.516907 L 142.407501 151.817902 C 160.480499 145.670898 172.876495 128.541901 172.876495 109.215897 C 172.891495 91.475906 163.132507 75.915894 147.395493 68.607895 M 127.984497 140.496902 C 128.742493 140.496902 129.499496 140.465912 130.242493 140.419891 L 130.242493 125.184906 C 130.242493 123.893906 129.206497 122.857895 127.915497 122.857895 C 126.623497 122.857895 125.587502 123.893906 125.587502 125.184906 L 125.587502 140.411896 C 126.391502 140.457901 127.180496 140.496902 127.984497 140.496902 M 145.872498 71.894897 C 159.922501 78.436905 169.264496 92.526901 169.264496 109.215897 C 169.264496 128.32489 156.342499 144.386902 138.795502 149.142914 L 138.795502 161.562897 L 135.277496 183.478912 C 135.277496 183.880905 134.959503 184.205902 134.5495 184.205902 C 134.178497 184.205902 133.823502 183.888901 133.823502 183.478912 L 130.235504 161.562897 L 130.235504 150.526901 C 129.484497 150.572906 128.727493 150.596893 127.976501 150.596893 C 127.172501 150.596893 126.383499 150.565903 125.579498 150.519897 L 125.579498 161.569901 L 122.053497 183.485901 C 122.053497 183.888901 121.735497 184.213898 121.3265 184.213898 C 120.916496 184.213898 120.599503 183.896912 120.599503 183.485901 L 117.010498 161.569901 L 117.010498 149.119904 C 99.525497 144.316895 86.665497 128.285904 86.665497 109.230896 C 86.665497 92.573898 95.999496 78.513901 110.058495 71.948898 C 110.530495 71.716904 110.9245 72.025894 111.025497 72.296906 C 111.1875 72.667892 111.025497 73.085907 110.692497 73.263901 C 99.286499 79.232895 92.179497 90.864899 92.179497 104.6689 C 92.179497 120.622894 102.619499 134.154907 117.018501 138.795898 L 117.018501 125.795898 C 117.018501 124.102905 115.634499 122.717896 113.940498 122.717896 L 111.605499 122.717896 C 111.605499 121.928894 112.138496 120.877899 112.804497 120.877899 L 114.033501 120.877899 L 141.951508 120.877899 L 143.165497 120.877899 C 143.798508 120.877899 144.332504 121.928894 144.332504 122.717896 L 141.858505 122.717896 C 140.164505 122.717896 138.780502 124.102905 138.780502 125.795898 L 138.780502 138.841904 C 153.2565 134.247894 163.7435 120.691895 163.7435 104.6689 C 163.7435 90.833893 156.644501 79.232895 145.229507 73.263901 C 144.8815 73.069901 144.735504 72.667892 144.8815 72.296906 C 145.330505 71.538895 145.872498 71.894897 145.872498 71.894897"/>
</svg>
