<?xml version="1.0" encoding="UTF-8"?>
<!-- Generated by Pixelmator Pro 3.7.1 -->
<svg width="256" height="256" viewBox="0 0 256 256" xmlns="http://www.w3.org/2000/svg">
    <path id="Path" fill="#ffffff" stroke="none" d="M 36 136 L 40 136 L 48 136 L 48 144 L 48 148 L 52 148 L 60 148 L 64 148 L 64 144 L 64 136 L 72 136 L 76 136 L 76 152 L 36 152 Z M 36 92 L 76 92 L 76 96 L 72 96 L 64 96 L 60 96 L 52 96 L 48 96 L 40 96 L 36 96 Z M 64 124 L 72 124 L 72 132 L 64 132 Z M 52 124 L 60 124 L 60 132 L 52 132 Z M 52 136 L 60 136 L 60 144 L 52 144 Z M 48 108 L 40 108 L 40 100 L 48 100 Z M 60 108 L 52 108 L 52 100 L 60 100 Z M 52 112 L 60 112 L 60 120 L 52 120 Z M 72 120 L 64 120 L 64 112 L 72 112 Z M 72 108 L 64 108 L 64 100 L 72 100 Z M 40 112 L 48 112 L 48 120 L 40 120 Z M 40 124 L 48 124 L 48 132 L 40 132 Z M 36 156 L 76 156 C 78.209 156 80 154.209 80 152 L 80 92 C 80 89.791 78.209 88 76 88 L 36 88 C 33.791 88 32 89.791 32 92 L 32 152 C 32 154.209 33.791 156 36 156"/>
    <path id="path1" fill="#ffffff" stroke="none" d="M 220 96 L 216 96 L 208 96 L 204 96 L 196 96 L 192 96 L 184 96 L 180 96 L 180 92 L 220 92 Z M 220 152 L 180 152 L 180 136 L 184 136 L 192 136 L 192 144 L 192 148 L 196 148 L 204 148 L 208 148 L 208 144 L 208 136 L 216 136 L 220 136 Z M 192 108 L 184 108 L 184 100 L 192 100 Z M 204 108 L 196 108 L 196 100 L 204 100 Z M 208 124 L 216 124 L 216 132 L 208 132 Z M 196 124 L 204 124 L 204 132 L 196 132 Z M 196 136 L 204 136 L 204 144 L 196 144 Z M 204 120 L 196 120 L 196 112 L 204 112 Z M 184 112 L 192 112 L 192 120 L 184 120 Z M 184 124 L 192 124 L 192 132 L 184 132 Z M 216 120 L 208 120 L 208 112 L 216 112 Z M 216 108 L 208 108 L 208 100 L 216 100 Z M 220 88 L 180 88 C 177.791 88 176 89.791 176 92 L 176 152 C 176 154.209 177.791 156 180 156 L 220 156 C 222.209 156 224 154.209 224 152 L 224 92 C 224 89.791 222.209 88 220 88"/>
    <path id="path2" fill="#ffffff" stroke="none" d="M 244 168.420898 C 244 169.631897 243.820007 170.802902 243.485001 171.906891 C 242.927994 173.746902 241.938995 175.401901 240.636002 176.753906 C 240.375 177.023895 240.102005 177.280899 239.815994 177.525909 C 237.820999 179.240906 235.253006 180.312897 232.429001 180.412903 L 132 183.999908 L 124 183.999908 L 23.572006 180.412903 C 17.115005 180.182892 12 174.881897 12 168.420898 L 12 87.414902 C 12 87.046906 12.020996 86.684906 12.052994 86.324905 C 12.063004 86.210907 12.080994 86.098907 12.093994 85.984909 C 12.123001 85.738907 12.158005 85.494904 12.201996 85.253906 C 12.225006 85.127899 12.25 85.001907 12.278 84.876907 C 12.328003 84.645905 12.384995 84.416901 12.447998 84.190903 C 12.479996 84.073898 12.511002 83.956909 12.546997 83.841904 C 12.628998 83.579895 12.720993 83.322906 12.820007 83.068909 C 12.848007 82.998901 12.869995 82.925903 12.899002 82.855896 C 13.029999 82.537903 13.175003 82.226898 13.332001 81.921906 C 13.376999 81.833908 13.429001 81.749908 13.477005 81.662903 C 13.595001 81.446899 13.716995 81.233902 13.848007 81.026901 C 13.914993 80.919907 13.985992 80.814896 14.057999 80.7099 C 14.181 80.525909 14.309998 80.346909 14.442993 80.170898 C 14.520996 80.067902 14.600006 79.964905 14.681 79.864899 C 14.828003 79.683899 14.981003 79.508896 15.138 79.337906 C 15.212997 79.254898 15.283997 79.170898 15.360992 79.090897 C 15.593994 78.849899 15.835007 78.616898 16.085999 78.395905 C 16.147003 78.341904 16.212997 78.2939 16.274994 78.241898 C 16.473999 78.073898 16.677002 77.910904 16.886993 77.755905 C 16.990997 77.678909 17.100006 77.606903 17.207001 77.532898 C 17.384003 77.410904 17.563004 77.292908 17.748001 77.179901 C 17.865005 77.107895 17.983994 77.037903 18.104996 76.968903 C 18.294006 76.8629 18.487 76.762909 18.682007 76.665909 C 18.798996 76.607895 18.914993 76.547897 19.033997 76.493896 C 19.285995 76.378906 19.544006 76.274902 19.806 76.176895 C 19.871994 76.151901 19.934006 76.12291 20 76.099899 L 20 76.099899 L 20 156.685898 C 20 163.03891 24.953003 168.290894 31.294998 168.66391 L 83.764999 171.7509 C 83.845001 171.75589 83.925003 171.757904 84.003998 171.757904 C 86.195007 171.757904 88 169.978897 88 167.757904 L 88 72.199905 L 88 71.999908 L 92 75.999908 L 96 75.999908 L 96 79.999908 L 92 83.999908 L 92 91.999908 L 92 95.999908 L 92 99.999908 L 92 115.999893 L 92 119.999893 L 92 131.999908 L 112 131.999908 L 112 135.999908 L 92 135.999908 L 92 139.999908 L 112 139.999908 L 112 143.999908 L 92 143.999908 L 92 147.999908 L 112 147.999908 L 112 151.999908 L 92 151.999908 L 92 155.999908 L 112 155.999908 L 112 159.999908 L 92 159.999908 L 92 163.999908 L 112 163.999908 L 112 167.999908 L 112 171.999908 L 116 171.999908 L 140 171.999908 L 144 171.999908 L 144 167.999908 L 144 163.999908 L 164 163.999908 L 164 159.999908 L 144 159.999908 L 144 155.999908 L 164 155.999908 L 164 151.999908 L 144 151.999908 L 144 147.999908 L 164 147.999908 L 164 143.999908 L 144 143.999908 L 144 139.999908 L 164 139.999908 L 164 135.999908 L 144 135.999908 L 144 131.999908 L 164 131.999908 L 164 91.999908 L 164 83.999908 L 160 79.999908 L 160 75.999908 L 164 75.999908 L 168 71.999908 L 168 72.199905 L 168 167.757904 C 168 169.979889 169.804993 171.757904 171.996002 171.757904 C 172.074997 171.757904 172.154999 171.75589 172.234009 171.7509 L 224.705002 168.66391 C 231.048004 168.290894 236 163.03891 236 156.685898 L 236 76.099899 C 236.065994 76.12291 236.128998 76.151901 236.192993 76.176895 C 236.455002 76.274902 236.714005 76.378906 236.966995 76.493896 C 237.085999 76.547897 237.201004 76.607895 237.317993 76.665909 C 237.514008 76.762909 237.705994 76.8629 237.895004 76.968903 C 238.016006 77.037903 238.134995 77.107895 238.253006 77.179901 C 238.436996 77.292908 238.615997 77.410904 238.792999 77.532898 C 238.899994 77.606903 239.009003 77.678909 239.113007 77.755905 C 239.322998 77.910904 239.526001 78.073898 239.725006 78.241898 C 239.787003 78.2939 239.852997 78.341904 239.912994 78.395905 C 240.164993 78.616898 240.406006 78.849899 240.639008 79.090897 C 240.716003 79.170898 240.787003 79.254898 240.862 79.337906 C 241.018997 79.508896 241.173004 79.683899 241.319 79.864899 C 241.399994 79.964905 241.479004 80.067902 241.557007 80.170898 C 241.690002 80.346909 241.817993 80.525909 241.942001 80.7099 C 242.014008 80.814896 242.085007 80.919907 242.151993 81.026901 C 242.283005 81.233902 242.404999 81.446899 242.522995 81.662903 C 242.570999 81.749908 242.623001 81.833908 242.667999 81.921906 C 242.824997 82.226898 242.970001 82.537903 243.100998 82.855896 C 243.130005 82.925903 243.151993 82.998901 243.179993 83.068909 C 243.279007 83.322906 243.371002 83.579895 243.453003 83.841904 C 243.488007 83.956909 243.520004 84.073898 243.552002 84.190903 C 243.615005 84.416901 243.673004 84.645905 243.723007 84.876907 C 243.748993 85.001907 243.774994 85.127899 243.798004 85.253906 C 243.841995 85.494904 243.876999 85.738907 243.906006 85.984909 C 243.919998 86.098907 243.936996 86.210907 243.947006 86.324905 C 243.979004 86.684906 244 87.046906 244 87.414902 Z M 84 72.212906 L 84 167.757904 L 31.529999 164.670898 C 27.307999 164.422897 24 160.914902 24 156.685898 L 24 76.099899 C 24 75.8629 23.972 75.630905 23.932007 75.401901 Z M 100 79.999908 L 156 79.999908 L 156 83.999908 L 100 83.999908 Z M 112 115.999893 L 96 115.999893 L 96 99.999908 L 112 99.999908 Z M 116 127.999893 L 112 127.999893 L 96 127.999893 L 96 119.999893 L 112 119.999893 L 116 119.999893 L 116 115.999893 L 116 99.999908 L 116 95.999908 L 160 95.999908 L 160 127.999893 L 144 127.999893 L 140 127.999893 Z M 140 135.999908 L 140 139.999908 L 140 143.999908 L 140 147.999908 L 140 151.999908 L 140 155.999908 L 140 159.999908 L 140 163.999908 L 140 167.999908 L 116 167.999908 L 116 163.999908 L 116 159.999908 L 116 155.999908 L 116 151.999908 L 116 147.999908 L 116 143.999908 L 116 139.999908 L 116 135.999908 L 116 131.999908 L 140 131.999908 Z M 160 91.999908 L 96 91.999908 L 96 87.999908 L 160 87.999908 Z M 172 72.212906 L 232.067993 75.401901 C 232.028 75.630905 232 75.8629 232 76.099899 L 232 156.685898 C 232 160.914902 228.692001 164.422897 224.470001 164.670898 L 172 167.757904 Z M 247.931 85.985901 C 247.914993 85.809906 247.889999 85.635895 247.867996 85.461899 C 247.832993 85.175903 247.792999 84.892899 247.742996 84.610901 C 247.705002 84.394897 247.662003 84.179901 247.615005 83.965897 C 247.565002 83.742905 247.509003 83.521896 247.449997 83.300903 C 247.386993 83.060898 247.322998 82.819901 247.248993 82.5849 C 247.201996 82.435898 247.145996 82.290909 247.093994 82.143906 C 246.882996 81.539902 246.641998 80.951904 246.362 80.382904 C 246.341003 80.337906 246.322006 80.291901 246.300003 80.24791 C 246.158005 79.964905 246.003006 79.69191 245.845993 79.420898 C 245.779999 79.307907 245.716995 79.193909 245.649002 79.083908 C 245.492004 78.826904 245.328003 78.575897 245.156998 78.328903 C 245.076996 78.211899 244.992996 78.0979 244.910004 77.982895 C 244.733994 77.742905 244.557999 77.505905 244.369003 77.276901 C 244.283005 77.170898 244.190994 77.071899 244.102997 76.968903 C 243.669006 76.466904 243.210007 75.9879 242.718002 75.542908 C 242.688004 75.5159 242.660995 75.486908 242.630997 75.4599 C 242.444 75.2939 242.246994 75.139908 242.052994 74.982895 C 241.893005 74.852905 241.733002 74.720901 241.567001 74.596909 C 241.376007 74.453903 241.179001 74.318909 240.981003 74.184906 C 240.798996 74.060898 240.613998 73.939896 240.425995 73.821899 C 240.227997 73.699905 240.028 73.579895 239.824005 73.464905 C 239.621002 73.351898 239.412994 73.244904 239.203995 73.138901 C 239.003006 73.037903 238.804001 72.933899 238.598007 72.840897 C 238.345001 72.726898 238.084 72.6259 237.822998 72.523895 C 236.255005 71.910904 234.570007 71.523895 232.798996 71.434906 L 168.212006 68.005905 L 166.432007 67.910904 L 165.171997 69.170898 L 162.343002 71.999908 L 132 71.999908 L 124 71.999908 L 93.656998 71.999908 L 90.828995 69.170898 L 89.567993 67.910904 L 87.787994 68.005905 L 23.188004 71.435898 C 21.350998 71.526901 19.606003 71.942902 17.988007 72.598907 C 17.800003 72.674896 17.610001 72.745895 17.425995 72.828903 C 17.188004 72.935898 16.957993 73.054901 16.727997 73.172897 C 16.552002 73.262909 16.376007 73.351898 16.205994 73.447906 C 15.979004 73.574905 15.755997 73.707901 15.535995 73.84491 C 15.373993 73.945908 15.214996 74.050903 15.057999 74.156906 C 14.837997 74.305908 14.621002 74.454895 14.410004 74.6129 C 14.272995 74.715897 14.143005 74.824905 14.009995 74.930908 C 13.227997 75.557907 12.507996 76.253906 11.856003 77.014908 C 11.785004 77.098907 11.709 77.179901 11.639008 77.2659 C 11.442993 77.503906 11.259003 77.7509 11.076996 77.999908 C 11 78.105896 10.923996 78.2099 10.850006 78.31691 C 10.675003 78.570908 10.505997 78.827896 10.345001 79.091904 C 10.281998 79.194901 10.223007 79.300903 10.162003 79.405899 C 10.001007 79.683899 9.841995 79.962906 9.697998 80.2509 C 9.682007 80.282898 9.669006 80.31691 9.653 80.348907 C 9.365997 80.929901 9.119003 81.531906 8.904007 82.150909 C 8.852997 82.295898 8.798004 82.437897 8.751007 82.583908 C 8.675995 82.819901 8.613998 83.060898 8.550003 83.301895 C 8.490997 83.522903 8.434998 83.742905 8.384995 83.965897 C 8.337997 84.179901 8.294998 84.394897 8.257004 84.610901 C 8.207001 84.892899 8.167007 85.175903 8.132004 85.461899 C 8.110001 85.635895 8.085007 85.809906 8.070007 85.985901 C 8.026993 86.458908 8 86.934906 8 87.414902 L 8 168.420898 C 8 171.666901 8.953003 174.684906 10.600998 177.202896 C 11.149994 178.042908 11.776001 178.826904 12.470001 179.546906 C 14.899002 182.063904 18.156006 183.780899 21.830002 184.274902 C 22.354996 184.345901 22.888 184.391907 23.429001 184.410889 L 123.857002 187.996902 L 123.929001 187.999908 L 124 187.999908 L 132 187.999908 L 132.070999 187.999908 L 132.143005 187.996902 L 232.570999 184.410889 C 237.979004 184.217896 242.653 181.400909 245.399002 177.202896 C 245.673996 176.782898 245.929993 176.349899 246.164001 175.902893 C 246.867996 174.564911 247.389008 173.111908 247.690994 171.580902 C 247.895004 170.559906 248 169.502899 248 168.420898 L 248 87.414902 C 248 86.934906 247.973007 86.458908 247.931 85.985901"/>
    <path id="path3" fill="#ffffff" stroke="none" d="M 136 156 L 120 156 L 120 160 L 136 160 Z"/>
    <path id="path4" fill="#ffffff" stroke="none" d="M 128 138 C 130.205994 138 132 139.794006 132 142 C 132 144.205994 130.205994 146 128 146 C 125.793999 146 124 144.205994 124 142 C 124 139.794006 125.793999 138 128 138 M 128 150 C 132.410995 150 136 146.411011 136 142 C 136 137.588989 132.410995 134 128 134 C 123.588997 134 120 137.588989 120 142 C 120 146.411011 123.588997 150 128 150"/>
</svg>
