<?xml version="1.0" encoding="UTF-8"?>
<!-- Generated by Pixelmator Pro 3.7.1 -->
<svg width="256" height="256" viewBox="0 0 256 256" xmlns="http://www.w3.org/2000/svg">
    <path id="Path" fill="#ffffff" stroke="none" d="M 240 192 L 220 192 L 216 192 L 208 192 L 204 192 L 200 192 L 196 192 L 192 192 L 188 192 L 184 192 L 180 192 L 176 192 L 172 192 L 168 192 L 164 192 L 160 192 L 156 192 L 152 192 L 148 192 L 144 192 L 140 192 L 136 192 L 132 192 L 128 192 L 124 192 L 120 192 L 116 192 L 112 192 L 108 192 L 104 192 L 100 192 L 96 192 L 92 192 L 88 192 L 84 192 L 80 192 L 76 192 L 72 192 L 68 192 L 64 192 L 60 192 L 56 192 L 52 192 L 48 192 L 44 192 L 40 192 L 36 192 L 16 192 L 16 92 L 24 92 L 24 132 C 24 136.410995 27.589005 140 32 140 L 224 140 C 228.410995 140 232 136.410995 232 132 L 232 92 L 240 92 Z M 216 216 L 208 216 L 208 196 L 216 196 Z M 200 196 L 204 196 L 204 216 L 200 216 Z M 192 196 L 196 196 L 196 216 L 192 216 Z M 184 196 L 188 196 L 188 216 L 184 216 Z M 176 196 L 180 196 L 180 216 L 176 216 Z M 168 196 L 172 196 L 172 216 L 168 216 Z M 160 196 L 164 196 L 164 216 L 160 216 Z M 152 196 L 156 196 L 156 216 L 152 216 Z M 144 196 L 148 196 L 148 216 L 144 216 Z M 136 196 L 140 196 L 140 216 L 136 216 Z M 128 196 L 132 196 L 132 216 L 128 216 Z M 120 196 L 124 196 L 124 216 L 120 216 Z M 112 196 L 116 196 L 116 216 L 112 216 Z M 104 196 L 108 196 L 108 216 L 104 216 Z M 96 196 L 100 196 L 100 216 L 96 216 Z M 88 196 L 92 196 L 92 216 L 88 216 Z M 80 196 L 84 196 L 84 216 L 80 216 Z M 72 196 L 76 196 L 76 216 L 72 216 Z M 64 196 L 68 196 L 68 216 L 64 216 Z M 56 196 L 60 196 L 60 216 L 56 216 Z M 48 196 L 52 196 L 52 216 L 48 216 Z M 40 196 L 44 196 L 44 216 L 40 216 Z M 232 56 L 232 52 L 236.923004 52 L 237.229996 56 Z M 232 64 L 232 60 L 237.537994 60 L 237.845993 64 Z M 232 72 L 232 68 L 238.154007 68 L 238.462006 72 Z M 232 80 L 232 76 L 238.770004 76 L 239.076996 80 Z M 232 84 L 239.384995 84 L 239.692001 88 L 232 88 Z M 24 84 L 24 88 L 16.307999 88 L 16.615005 84 Z M 24 76 L 24 80 L 16.923004 80 L 17.231003 76 Z M 24 68 L 24 72 L 17.539001 72 L 17.845993 68 Z M 24 60 L 24 64 L 18.154007 64 L 18.460999 60 Z M 24 56 L 18.768997 56 L 19.076996 52 L 24 52 Z M 228 92 L 228 132 C 228 134.209 226.209 136 224 136 L 32 136 C 29.791 136 28 134.209 28 132 L 28 92 L 28 88 L 28 84 L 28 80 L 28 76 L 28 72 L 28 68 L 28 64 L 28 60 L 28 56 L 28 52 C 28 49.791 29.791 48 32 48 L 224 48 C 226.209 48 228 49.791 228 52 L 228 56 L 228 60 L 228 64 L 228 68 L 228 72 L 228 76 L 228 80 L 228 84 L 228 88 Z M 236 40 L 236.615005 48 L 230.917999 48 C 229.531006 45.613007 226.953003 44 224 44 L 32 44 C 29.046997 44 26.468002 45.613007 25.082993 48 L 19.384995 48 L 20 40 Z M 243.988007 91.692993 L 239.988007 39.692993 L 239.703995 36 L 236 36 L 20 36 L 16.296005 36 L 16.011993 39.692993 L 12.011993 91.692993 L 12 91.846008 L 12 92 L 12 192 L 12 196 L 16 196 L 36 196 L 36 216 L 36 220 L 40 220 L 216 220 L 220 220 L 220 216 L 220 196 L 240 196 L 244 196 L 244 192 L 244 92 L 244 91.846008 Z"/>
    <path id="path1" fill="#ffffff" stroke="none" d="M 28 184 L 24 184 L 24 172 L 28 172 Z M 20 168 L 20 188 L 32 188 L 32 178 L 32 168 Z"/>
    <path id="path2" fill="#ffffff" stroke="none" d="M 228 172 L 232 172 L 232 184 L 228 184 Z M 224 178 L 224 188 L 236 188 L 236 168 L 224 168 Z"/>
    <path id="path3" fill="#ffffff" stroke="none" d="M 38 180 C 36.896999 180 36 179.102997 36 178 C 36 176.897003 36.896999 176 38 176 C 39.103001 176 40 176.897003 40 178 C 40 179.102997 39.103001 180 38 180 M 38 172 C 34.687 172 32 174.686996 32 178 C 32 181.313004 34.687 184 38 184 C 41.313 184 44 181.313004 44 178 C 44 174.686996 41.313 172 38 172"/>
    <path id="path4" fill="#ffffff" stroke="none" d="M 218 180 C 216.897003 180 216 179.102997 216 178 C 216 176.897003 216.897003 176 218 176 C 219.102997 176 220 176.897003 220 178 C 220 179.102997 219.102997 180 218 180 M 218 172 C 214.686996 172 212 174.686996 212 178 C 212 181.313004 214.686996 184 218 184 C 221.313004 184 224 181.313004 224 178 C 224 174.686996 221.313004 172 218 172"/>
</svg>
