<?xml version="1.0" encoding="UTF-8"?>
<!-- Generated by Pixelmator Pro 3.7.1 -->
<svg width="256" height="256" viewBox="0 0 256 256" xmlns="http://www.w3.org/2000/svg">
    <path id="Path" fill="#ffffff" stroke="none" d="M 100 92 C 95.588997 92 92 95.589005 92 100 L 92 156 C 92 160.411011 95.588997 164 100 164 C 104.411003 164 108 160.411011 108 156 L 108 100 C 108 95.589005 104.411003 92 100 92 M 120.540001 92 C 116.035995 92 112.295998 95.567993 112.030998 100.031006 C 112.010002 100.195007 112 100.360992 112 100.528 L 112 155.459991 C 112 160.169006 115.831001 164 120.540001 164 C 121.903999 164 123.216003 163.68399 124.440002 163.059998 C 125.024002 162.76001 125.112 162.714996 138.095001 152.487 C 146.492996 145.869995 157.996002 136.80899 159.567993 135.761993 C 162.343994 133.910995 164 131.009995 164 128 C 164 124.987 162.339005 122.083008 159.557007 120.229996 C 157.984009 119.181 146.470001 110.112 138.063004 103.490005 C 125.109001 93.287994 125.022003 93.242996 124.455002 92.949997 C 123.239998 92.326996 121.889999 92 120.540001 92 M 100 96 C 102.211998 96 104 97.787994 104 100 L 104 156 C 104 158.212006 102.211998 160 100 160 C 97.788002 160 96 158.212006 96 156 L 96 100 C 96 97.787994 97.788002 96 100 96 M 120.540001 96 C 121.288002 96 121.996002 96.184006 122.620003 96.503998 C 123.356003 96.884003 154.360001 121.572006 157.339996 123.559998 C 159.003998 124.667999 160 126.335999 160 128 C 160 129.664001 159.007996 131.328003 157.352005 132.432007 C 154.372009 134.416 123.363998 159.115997 122.624001 159.496002 C 121.996002 159.81601 121.292 160 120.540001 160 C 118.031998 160 116 157.968002 116 155.459991 L 116 100.528 C 116 100.507996 116.012001 100.492004 116.015999 100.472 C 116.052002 97.996002 118.056 96 120.540001 96"/>
    <path id="path1" fill="#ffffff" stroke="none" d="M 220 36 L 36 36 L 36 220 L 220 220 Z M 216 216 L 40 216 L 40 40 L 216 40 Z"/>
</svg>
