<?xml version="1.0" encoding="UTF-8"?>
<!-- Generated by Pixelmator Pro 3.7.1 -->
<svg width="256" height="256" viewBox="0 0 256 256" xmlns="http://www.w3.org/2000/svg">
    <path id="Path" fill="#ffffff" stroke="none" d="M 212 135.924805 L 212 135.999802 L 188.570999 135.999802 L 192 151.999802 L 164 151.999802 L 184 175.999802 L 168 175.999802 L 149 151.999802 L 107 151.999802 L 88 175.999802 L 72 175.999802 L 92 151.999802 L 64 151.999802 L 67.429001 135.999802 L 48 135.999802 L 44 135.999802 L 36 135.999802 L 48.167999 95.7668 L 60 95.999802 L 52.800003 119.999802 L 70.856995 119.999802 L 76 95.999802 L 104.667 95.999802 L 92 79.999802 L 104 79.999802 L 117.333 95.999802 L 138.666992 95.999802 L 152 79.999802 L 164 79.999802 L 151.333008 95.999802 L 180 95.999802 L 185.143005 119.999802 L 203.328995 119.999802 L 196 95.7668 L 208 95.7668 L 220 135.7668 Z M 223.830994 134.616791 L 211.830994 94.617798 L 210.977005 91.7668 L 208 91.7668 L 196 91.7668 L 190.610992 91.7668 L 192.171005 96.924805 L 197.940002 115.999802 L 188.376999 115.999802 L 183.910995 95.161804 L 183.233002 91.999802 L 180 91.999802 L 159.602005 91.999802 L 167.136002 82.482803 L 172.268997 75.999802 L 164 75.999802 L 152 75.999802 L 150.126999 75.999802 L 148.927002 77.439804 L 136.792999 91.999802 L 119.207001 91.999802 L 107.072998 77.439804 L 105.874001 75.999802 L 104 75.999802 L 92 75.999802 L 83.731003 75.999802 L 88.863998 82.482803 L 96.398003 91.999802 L 76 91.999802 L 72.766998 91.999802 L 72.089005 95.161804 L 67.623993 115.999802 L 58.175995 115.999802 L 63.830994 97.149796 L 65.345001 92.104797 L 60.078995 92.000793 L 48.246994 91.767792 L 45.216995 91.707794 L 44.339005 94.608795 L 32.171005 134.841797 L 30.610992 139.999802 L 36 139.999802 L 44 139.999802 L 48 139.999802 L 62.479996 139.999802 L 60.089005 151.161804 L 59.052002 155.999802 L 64 155.999802 L 83.460007 155.999802 L 68.927002 173.439789 L 63.460007 179.999802 L 72 179.999802 L 88 179.999802 L 89.934998 179.999802 L 91.136002 178.482788 L 108.934998 155.999802 L 147.063995 155.999802 L 164.863998 178.482788 L 166.063995 179.999802 L 168 179.999802 L 184 179.999802 L 192.540009 179.999802 L 187.072998 173.439789 L 172.540009 155.999802 L 192 155.999802 L 196.947998 155.999802 L 195.910995 151.161804 L 193.520004 139.999802 L 212 139.999802 L 216 139.999802 L 216 139.846802 L 220.078995 139.7668 L 225.345001 139.661804 Z"/>
    <path id="path1" fill="#ffffff" stroke="none" d="M 168 108 L 152 108 L 152 124 L 168 124 Z M 164 120 L 156 120 L 156 112 L 164 112 Z"/>
    <path id="path2" fill="#ffffff" stroke="none" d="M 104 108 L 88 108 L 88 124 L 104 124 Z M 100 120 L 92 120 L 92 112 L 100 112 Z"/>
    <path id="path3" fill="#ffffff" stroke="none" d="M 244 244 L 12 244 L 12 12 L 244 12 Z M 244 8 L 12 8 L 8 8 L 8 12 L 8 244 L 8 248 L 12 248 L 244 248 L 248 248 L 248 244 L 248 12 L 248 8 Z"/>
</svg>
