<?xml version="1.0" encoding="UTF-8"?>
<!-- Generated by Pixelmator Pro 3.7.1 -->
<svg width="256" height="256" viewBox="0 0 256 256" xmlns="http://www.w3.org/2000/svg">
    <path id="Path" fill="#ffffff" stroke="none" d="M 120 128 L 144 128 L 144 120 L 128 120 L 128 112 L 120 112 L 120 104 L 112 104 L 112 112 L 112 120 L 120 120 Z"/>
    <path id="path1" fill="#ffffff" stroke="none" d="M 192 88 L 64 88 L 64 80 L 136 80 L 136 72 L 88 72 L 88 64 L 96 64 L 96 56 L 128 56 L 128 64 L 144 64 L 144 56 L 160 56 L 160 64 L 160 72 L 144 72 L 144 80 L 192 80 Z M 176 104 L 148 104 L 148 100 L 144 100 L 144 96 L 176 96 Z M 168 128 L 168 136 L 160 136 L 160 144 L 120 144 L 112 144 L 112 120 L 108 120 L 108 116 L 104 116 L 104 112 L 80 112 L 80 104 L 80 96 L 96 96 L 96 104 L 104 104 L 104 96 L 112 96 L 136 96 L 136 104 L 140 104 L 140 108 L 144 108 L 144 112 L 152 112 L 160 112 L 160 128 Z M 152 160 L 144 160 L 144 168 L 136 168 L 136 176 L 132 176 L 132 172 L 128 172 L 128 168 L 120 168 L 120 160 L 120 152 L 136 152 L 144 152 L 152 152 Z M 152 176 L 152 184 L 160 184 L 160 192 L 168 192 L 168 208 L 152.25 208 L 152.25 200 L 152 200 L 148 200 L 148 196 L 144 196 L 144 184 L 144 176 Z M 144 208 L 136 208 L 128 208 L 112 208 L 96 208 L 96 184 L 112 184 L 112 176 L 124 176 L 124 180 L 128 180 L 128 184 L 136 184 L 136 200 L 140 200 L 140 204 L 144 204 Z M 80 176 L 80 168 L 72 168 L 72 160 L 112 160 L 112 168 L 104 168 L 104 176 Z M 80 136 L 80 128 L 88 128 L 88 120 L 100 120 L 100 124 L 104 124 L 104 128 L 104 136 L 104 152 L 88 152 L 88 136 Z M 116 152 L 116 156 L 112 156 L 108 156 L 108 152 L 108 148 L 112 148 L 116 148 Z M 192 76 L 164 76 L 164 72 L 164 64 L 164 56 L 164 52 L 160 52 L 144 52 L 140 52 L 140 56 L 140 60 L 132 60 L 132 56 L 132 52 L 128 52 L 96 52 L 92 52 L 92 56 L 92 60 L 88 60 L 84 60 L 84 64 L 84 72 L 84 76 L 64 76 L 60 76 L 60 80 L 60 88 L 60 92 L 64 92 L 76 92 L 76 96 L 76 104 L 76 112 L 76 116 L 80 116 L 84 116 L 84 120 L 84 124 L 80 124 L 76 124 L 76 128 L 76 136 L 76 140 L 80 140 L 84 140 L 84 152 L 84 156 L 72 156 L 68 156 L 68 160 L 68 168 L 68 172 L 72 172 L 76 172 L 76 176 L 76 180 L 80 180 L 92 180 L 92 184 L 92 208 L 92 212 L 96 212 L 112 212 L 128 212 L 136 212 L 144 212 L 152.25 212 L 168 212 L 172 212 L 172 208 L 172 192 L 172 188 L 168 188 L 164 188 L 164 184 L 164 180 L 160 180 L 156 180 L 156 176 L 156 172 L 152 172 L 148 172 L 148 168 L 148 164 L 152 164 L 156 164 L 156 160 L 156 152 L 156 148 L 160 148 L 164 148 L 164 144 L 164 140 L 168 140 L 172 140 L 172 136 L 172 128 L 172 124 L 168 124 L 164 124 L 164 112 L 164 108 L 176 108 L 180 108 L 180 104 L 180 96 L 180 92 L 192 92 L 196 92 L 196 88 L 196 80 L 196 76 Z"/>
    <path id="path2" fill="#ffffff" stroke="none" d="M 244 244 L 12 244 L 12 12 L 244 12 Z M 244 8 L 12 8 L 8 8 L 8 12 L 8 244 L 8 248 L 12 248 L 244 248 L 248 248 L 248 244 L 248 12 L 248 8 Z"/>
</svg>
