<?xml version="1.0" encoding="UTF-8"?>
<!-- Generated by Pixelmator Pro 3.7.1 -->
<svg width="256" height="256" viewBox="0 0 256 256" xmlns="http://www.w3.org/2000/svg">
    <clipPath id="clipPath1">
        <path d="M -4.74074 -4.686077 L 260.740725 -4.686077 L 260.740725 260.427199 L -4.74074 260.427199 Z"/>
    </clipPath>
    <g id="Group" clip-path="url(#clipPath1)">
        <path id="Path" fill="#ffffff" stroke="none" d="M 128.211655 82.30423 L 128.200241 82.30423 L 127.787506 82.30423 C 102.606178 82.43367 82.241875 102.978912 82.370476 128.104614 C 82.499062 153.100861 102.967064 173.43692 127.996986 173.43692 L 128.211655 173.43692 C 153.39299 173.308502 173.758316 152.762222 173.628693 127.63652 C 173.501144 102.767654 153.131653 82.432648 128.223053 82.30423 Z M 128.201279 86.446625 C 150.847061 86.562607 169.365433 105.050125 169.480545 127.658279 C 169.537582 138.703964 165.269135 149.123138 157.464401 156.995743 C 149.657578 164.870438 139.260254 169.237549 128.211655 169.294525 L 127.996986 169.294525 C 105.243362 169.294525 86.635811 150.807007 86.518623 128.082855 C 86.462616 117.03717 90.730026 106.618011 98.535805 98.744354 C 106.342621 90.870697 116.738922 86.503586 127.787506 86.446625 L 128.200241 86.446625 L 128.201279 86.446625"/>
        <path id="path1" fill="#ffffff" stroke="none" d="M 235.851837 98.87381 L 198.518509 98.87381 L 198.518509 61.592255 L 235.851837 61.592255 Z M 235.851837 175.508118 C 235.851837 185.802994 227.49437 194.14888 217.185181 194.14888 C 206.876007 194.14888 198.518509 185.802994 198.518509 175.508118 C 198.518509 165.213226 206.876007 156.86734 217.185181 156.86734 C 227.49437 156.86734 235.851837 165.213226 235.851837 175.508118 M 219.259247 219.00325 L 152.888885 219.00325 L 152.888885 206.576065 L 152.888885 202.43367 L 148.740738 202.43367 L 111.407402 202.43367 L 107.259254 202.43367 L 107.259254 206.576065 L 107.259254 219.00325 L 36.740742 219.00325 L 36.740742 198.192902 C 37.424149 198.255035 38.114815 198.291275 38.814816 198.291275 C 51.395111 198.291275 61.629627 188.070953 61.629627 175.508118 C 61.629627 162.945267 51.395111 152.724945 38.814816 152.724945 C 38.114815 152.724945 37.424149 152.761185 36.740742 152.823318 L 36.740742 103.016205 L 57.48148 103.016205 L 61.629627 103.016205 L 61.629627 98.87381 L 61.629627 61.592255 L 61.629627 57.44986 L 57.48148 57.44986 L 36.740742 57.44986 L 36.740742 36.737885 L 103.980141 36.737885 C 106.697182 46.289215 115.502663 53.307465 125.925919 53.307465 C 136.349167 53.307465 145.155701 46.289215 147.870651 36.737885 L 219.259247 36.737885 L 219.259247 57.44986 L 198.518509 57.44986 L 194.370361 57.44986 L 194.370361 61.592255 L 194.370361 98.87381 L 194.370361 103.016205 L 198.518509 103.016205 L 219.259247 103.016205 L 219.259247 152.823318 C 218.575836 152.761185 217.885178 152.724945 217.185181 152.724945 C 204.604889 152.724945 194.370361 162.945267 194.370361 175.508118 C 194.370361 188.070953 204.604889 198.291275 217.185181 198.291275 C 217.885178 198.291275 218.575836 198.255035 219.259247 198.192902 Z M 148.740738 243.85762 L 111.407402 243.85762 L 111.407402 206.576065 L 148.740738 206.576065 Z M 20.148148 175.508118 C 20.148148 165.213226 28.505627 156.86734 38.814816 156.86734 C 49.124001 156.86734 57.48148 165.213226 57.48148 175.508118 C 57.48148 185.802994 49.124001 194.14888 38.814816 194.14888 C 28.505627 194.14888 20.148148 185.802994 20.148148 175.508118 M 20.148148 61.592255 L 57.48148 61.592255 L 57.48148 98.87381 L 20.148148 98.87381 Z M 125.925919 11.883514 C 136.235092 11.883514 144.59259 20.229401 144.59259 30.524292 C 144.59259 40.819183 136.235092 49.16507 125.925919 49.16507 C 115.616737 49.16507 107.259254 40.819183 107.259254 30.524292 C 107.259254 20.229401 115.616737 11.883514 125.925919 11.883514 M 235.851837 57.44986 L 223.407394 57.44986 L 223.407394 32.59549 L 148.642212 32.59549 C 148.704437 31.913025 148.740738 31.223312 148.740738 30.524292 C 148.740738 17.961456 138.506226 7.741119 125.925919 7.741119 C 113.345634 7.741119 103.111115 17.961456 103.111115 30.524292 C 103.111115 31.223312 103.147408 31.913025 103.209625 32.59549 L 32.59259 32.59549 L 32.59259 57.44986 L 20.148148 57.44986 L 16 57.44986 L 16 61.592255 L 16 98.87381 L 16 103.016205 L 20.148148 103.016205 L 32.59259 103.016205 L 32.59259 153.593811 C 23.028 156.304993 16 165.099304 16 175.508118 C 16 185.916901 23.028 194.711212 32.59259 197.422409 L 32.59259 223.145645 L 107.259254 223.145645 L 107.259254 243.85762 L 107.259254 248.000015 L 111.407402 248.000015 L 148.740738 248.000015 L 152.888885 248.000015 L 152.888885 243.85762 L 152.888885 223.145645 L 223.407394 223.145645 L 223.407394 197.422409 C 232.971985 194.711212 240 185.916901 240 175.508118 C 240 165.099304 232.971985 156.304993 223.407394 153.593811 L 223.407394 103.016205 L 235.851837 103.016205 L 240 103.016205 L 240 98.87381 L 240 61.592255 L 240 57.44986 Z"/>
    </g>
</svg>
