<?xml version="1.0" encoding="UTF-8"?>
<!-- Generated by Pixelmator Pro 3.7.1 -->
<svg width="256" height="256" viewBox="0 0 256 256" xmlns="http://www.w3.org/2000/svg">
    <path id="Path" fill="#ffffff" stroke="none" d="M 108 152 L 112 152 L 112 148 L 108 148 Z"/>
    <path id="path1" fill="#ffffff" stroke="none" d="M 120 148 L 116 148 L 116 152 L 120 152 Z"/>
    <path id="path2" fill="#ffffff" stroke="none" d="M 88 164 L 96 164 L 96 160 L 88 160 Z"/>
    <path id="path3" fill="#ffffff" stroke="none" d="M 76 164 L 80 164 L 80 160 L 76 160 Z"/>
    <path id="path4" fill="#ffffff" stroke="none" d="M 80 132 L 76 132 L 76 136 L 80 136 Z"/>
    <path id="path5" fill="#ffffff" stroke="none" d="M 92 132 L 88 132 L 88 136 L 92 136 Z"/>
    <path id="path6" fill="#ffffff" stroke="none" d="M 144 132 L 136 132 L 136 136 L 144 136 Z"/>
    <path id="path7" fill="#ffffff" stroke="none" d="M 152 132 L 148 132 L 148 136 L 152 136 Z"/>
    <path id="path8" fill="#ffffff" stroke="none" d="M 148 164 L 152 164 L 152 160 L 148 160 Z"/>
    <path id="path9" fill="#ffffff" stroke="none" d="M 140 160 L 136 160 L 136 164 L 140 164 Z"/>
    <path id="path10" fill="#ffffff" stroke="none" d="M 156 136 L 152 136 L 152 160 L 156 160 Z"/>
    <path id="path11" fill="#ffffff" stroke="none" d="M 136 128 L 92 128 L 92 132 L 136 132 Z"/>
    <path id="path12" fill="#ffffff" stroke="none" d="M 148 128 L 144 128 L 144 132 L 148 132 Z"/>
    <path id="path13" fill="#ffffff" stroke="none" d="M 88 128 L 80 128 L 80 132 L 88 132 Z"/>
    <path id="path14" fill="#ffffff" stroke="none" d="M 72 160 L 76 160 L 76 136 L 72 136 Z"/>
    <path id="path15" fill="#ffffff" stroke="none" d="M 80 168 L 88 168 L 88 164 L 80 164 Z"/>
    <path id="path16" fill="#ffffff" stroke="none" d="M 140 168 L 148 168 L 148 164 L 140 164 Z"/>
    <path id="path17" fill="#ffffff" stroke="none" d="M 208 60 L 196 60 L 196 72 L 208 72 Z"/>
    <path id="path18" fill="#ffffff" stroke="none" d="M 208 76 L 196 76 L 196 88 L 208 88 Z"/>
    <path id="path19" fill="#ffffff" stroke="none" d="M 208 92 L 196 92 L 196 104 L 208 104 Z"/>
    <path id="path20" fill="#ffffff" stroke="none" d="M 48 60 L 52 60 L 52 56 L 56 56 L 56 52 L 60 52 L 60 48 L 64 48 L 64 52 L 64 56 L 64 60 L 72 60 L 72 52 L 76 52 L 76 48 L 80 48 L 80 56 L 76 56 L 76 60 L 84 60 L 84 48 L 88 48 L 88 52 L 92 52 L 92 56 L 96 56 L 96 60 L 100 60 L 100 80 L 96 80 L 96 72 L 92 72 L 92 68 L 88 68 L 80 68 L 80 72 L 80 76 L 76 76 L 76 80 L 72 80 L 68 80 L 68 84 L 64 84 L 64 88 L 60 88 L 60 84 L 64 84 L 64 80 L 68 80 L 68 76 L 64 76 L 64 72 L 56 72 L 56 76 L 52 76 L 52 80 L 48 80 Z M 48 84 L 52 84 L 56 84 L 56 88 L 56 92 L 60 92 L 64 92 L 68 92 L 68 88 L 72 88 L 72 84 L 76 84 L 80 84 L 80 80 L 84 80 L 84 76 L 84 72 L 88 72 L 88 76 L 92 76 L 92 80 L 92 84 L 96 84 L 100 84 L 104 84 L 104 80 L 104 60 L 104 56 L 100 56 L 100 52 L 96 52 L 96 48 L 92 48 L 92 44 L 88 44 L 84 44 L 80 44 L 76 44 L 72 44 L 72 48 L 68 48 L 68 44 L 64 44 L 60 44 L 56 44 L 56 48 L 52 48 L 52 52 L 48 52 L 48 56 L 44 56 L 44 60 L 44 80 L 44 84 Z"/>
    <path id="path21" fill="#ffffff" stroke="none" d="M 208 44 L 196 44 L 196 56 L 208 56 Z"/>
    <path id="path22" fill="#ffffff" stroke="none" d="M 72 176 L 76 176 L 76 172 L 72 172 Z"/>
    <path id="path23" fill="#ffffff" stroke="none" d="M 60 160 L 56 160 L 56 164 L 60 164 Z"/>
    <path id="path24" fill="#ffffff" stroke="none" d="M 40 180 L 44 180 L 44 176 L 40 176 Z"/>
    <path id="path25" fill="#ffffff" stroke="none" d="M 32 172 L 36 172 L 36 168 L 32 168 Z"/>
    <path id="path26" fill="#ffffff" stroke="none" d="M 40 160 L 44 160 L 44 156 L 40 156 Z"/>
    <path id="path27" fill="#ffffff" stroke="none" d="M 40 140 L 36 140 L 36 144 L 40 144 Z"/>
    <path id="path28" fill="#ffffff" stroke="none" d="M 36 132 L 32 132 L 32 136 L 36 136 Z"/>
    <path id="path29" fill="#ffffff" stroke="none" d="M 44 132 L 48 132 L 48 128 L 44 128 Z"/>
    <path id="path30" fill="#ffffff" stroke="none" d="M 92 176 L 88 176 L 88 180 L 92 180 Z"/>
    <path id="path31" fill="#ffffff" stroke="none" d="M 60 188 L 64 188 L 64 184 L 60 184 Z"/>
    <path id="path32" fill="#ffffff" stroke="none" d="M 160 184 L 164 184 L 164 180 L 160 180 Z"/>
    <path id="path33" fill="#ffffff" stroke="none" d="M 180 172 L 184 172 L 184 168 L 180 168 Z"/>
    <path id="path34" fill="#ffffff" stroke="none" d="M 200 188 L 204 188 L 204 184 L 200 184 Z"/>
    <path id="path35" fill="#ffffff" stroke="none" d="M 208 176 L 212 176 L 212 172 L 208 172 Z"/>
    <path id="path36" fill="#ffffff" stroke="none" d="M 140 176 L 144 176 L 144 172 L 140 172 Z"/>
    <path id="path37" fill="#ffffff" stroke="none" d="M 16 32 L 240 32 L 240 200 L 16 200 Z M 108 212.537994 L 108 204 L 148 204 L 148 212.537994 C 141.785995 212.186996 135.005997 212 128 212 C 120.995003 212 114.212997 212.186996 108 212.537994 M 176 222 C 176 225.313004 154.509995 228 128 228 C 101.489998 228 80 225.313004 80 222 C 80 218.686996 101.489998 216 128 216 C 154.509995 216 176 218.686996 176 222 M 244 204 L 244 28 L 12 28 L 12 204 L 104 204 L 104 212.792999 C 100.231003 213.061996 96.718002 213.393997 93.563004 213.787994 C 82.439003 215.179001 76 216.968002 76 222 C 76 227.031998 82.439003 228.820999 93.563004 230.212006 C 102.788002 231.365005 115.017998 232 128 232 C 140.981003 232 153.212006 231.365005 162.436996 230.212006 C 173.561005 228.820999 180 227.031998 180 222 C 180 216.968002 173.561005 215.179001 162.436996 213.787994 C 159.281998 213.393997 155.768997 213.061996 152 212.792999 L 152 204 Z"/>
    <path id="path38" fill="#ffffff" stroke="none" d="M 232 40 L 232 160 L 228 160 L 164 160 L 164 156 L 164 132 L 164 128 L 160 128 L 160 124 L 216 124 L 220 124 L 220 120 L 220 112 L 220 108 L 220 40 Z M 232 192 L 140 192 L 140 188 L 136 188 L 136 192 L 120 192 L 120 168 L 136 168 L 136 164 L 120 164 L 120 160 L 128 160 L 128 136 L 100 136 L 100 160 L 108 160 L 108 164 L 96 164 L 96 168 L 108 168 L 108 192 L 96 192 L 96 188 L 92 188 L 92 192 L 36 192 L 36 188 L 32 188 L 32 192 L 24 192 L 24 128 L 36 128 L 36 124 L 24 124 L 24 40 L 36 40 L 36 108 L 36 112 L 36 120 L 36 124 L 40 124 L 152 124 L 152 128 L 156 128 L 156 132 L 160 132 L 160 156 L 160 164 L 164 164 L 228 164 L 232 164 Z M 116 168 L 112 168 L 112 164 L 116 164 Z M 112 172 L 116 172 L 116 176 L 112 176 Z M 116 184 L 112 184 L 112 180 L 116 180 Z M 112 144 L 112 140 L 116 140 L 116 144 L 120 144 L 120 140 L 124 140 L 124 144 L 124 148 L 124 156 L 120 156 L 108 156 L 104 156 L 104 148 L 104 144 L 104 140 L 108 140 L 108 144 Z M 112 188 L 116 188 L 116 192 L 112 192 Z M 180 108 L 40 108 L 40 40 L 180 40 Z M 216 120 L 156 120 L 152 120 L 40 120 L 40 112 L 180 112 L 184 112 L 216 112 Z M 216 108 L 184 108 L 184 40 L 216 40 Z M 216 36 L 184 36 L 180 36 L 40 36 L 36 36 L 20 36 L 20 196 L 108 196 L 120 196 L 236 196 L 236 36 L 220 36 Z"/>
</svg>
