<?xml version="1.0" encoding="UTF-8"?>
<!-- Generated by Pixelmator Pro 3.7.1 -->
<svg width="256" height="256" viewBox="0 0 256 256" xmlns="http://www.w3.org/2000/svg">
    <path id="Path" fill="#ffffff" stroke="none" d="M 244 192.773407 C 244 192.773407 243.093994 199.999405 199.455002 200.000397 L 56.544998 200.000397 C 12.906006 199.999405 12 192.773407 12 192.773407 L 12 56.817413 C 12 54.168411 14.175003 52.000412 16.832993 52.000412 L 44 52.000412 L 44 177.541397 C 44 181.102402 46.873993 184.000397 50.406006 184.000397 L 205.593994 184.000397 C 209.126007 184.000397 212 181.102402 212 177.541397 L 212 52.000412 L 239.166992 52.000412 C 241.824997 52.000412 244 54.168411 244 56.817413 Z M 208 52.000412 L 208 177.541397 C 208 178.896393 206.921005 180.000397 205.593994 180.000397 L 50.406006 180.000397 C 49.078995 180.000397 48 178.896393 48 177.541397 L 48 52.000412 Z M 239.166992 48.000412 L 212 48.000412 L 208 48.000412 L 48 48.000412 L 44 48.000412 L 16.832993 48.000412 C 11.962006 48.000412 8 51.955414 8 56.817413 L 8 192.773407 L 8 193.023407 L 8.031006 193.270401 C 8.923996 200.388397 25.246002 203.999405 56.544998 204.000397 L 199.455002 204.000397 C 230.753998 203.999405 247.076004 200.388397 247.968994 193.270401 L 248 193.023407 L 248 192.773407 L 248 56.817413 C 248 51.955414 244.037003 48.000412 239.166992 48.000412"/>
</svg>
