<?xml version="1.0" encoding="UTF-8"?>
<!-- Generated by Pixelmator Pro 3.7.1 -->
<svg width="256" height="256" viewBox="0 0 256 256" xmlns="http://www.w3.org/2000/svg">
    <path id="Path" fill="#ffffff" stroke="none" d="M 38 119.967804 L 41.452999 115.999802 L 46.044998 115.999802 C 47.125 115.999802 48 117.005798 48 118.246796 L 48 121.752792 C 48 122.993805 47.125 123.999802 46.044998 123.999802 L 41.507999 123.999802 Z M 32 125.452805 L 35.969002 121.999802 L 40 125.506805 L 40 130.0448 C 40 131.124802 38.993999 131.999802 37.752998 131.999802 L 34.247002 131.999802 C 33.006001 131.999802 32 131.124802 32 130.0448 Z M 32 114.527802 L 32 109.965805 C 32 108.879807 33.006001 107.999802 34.247002 107.999802 L 37.752998 107.999802 C 38.993999 107.999802 40 108.879807 40 109.965805 L 40 114.472794 L 35.969002 117.999802 Z M 34 119.967804 L 30.473 123.999802 L 25.966 123.999802 C 24.880001 123.999802 24 122.993805 24 121.752792 L 24 118.246796 C 24 117.005798 24.880001 115.999802 25.966 115.999802 L 30.528 115.999802 Z M 242.276001 166.612793 C 240.544006 180.887787 189.867996 187.999786 128 187.999786 C 66.132004 187.999786 15.452 180.887787 13.724001 166.612793 C 12.004 152.347809 12 140.539795 12 127.999802 C 12 116.399796 14.115999 91.167801 15.908001 82.999802 C 17.700001 74.827805 20.024 75.491791 27.647999 74.243805 C 28.409 74.117798 33.210999 73.659805 38.926998 73.1418 L 54.848 116.132797 C 53.43 116.504807 52.348999 117.635803 52 119.043793 L 52 118.246796 C 52 114.801804 49.329002 111.999802 46.044998 111.999802 L 44 111.999802 L 44 109.965805 C 44 106.675797 41.197998 103.999802 37.752998 103.999802 L 34.247002 103.999802 C 30.802 103.999802 28 106.675797 28 109.965805 L 28 111.999802 L 25.966 111.999802 C 22.675999 111.999802 20 114.801804 20 118.246796 L 20 121.752792 C 20 125.1978 22.675999 127.999802 25.966 127.999802 L 28 127.999802 L 28 130.0448 C 28 133.328796 30.802 135.999802 34.247002 135.999802 L 37.752998 135.999802 C 41.197998 135.999802 44 133.328796 44 130.0448 L 44 127.999802 L 46.044998 127.999802 C 48.526001 127.999802 50.655998 126.398804 51.549999 124.129807 C 50.632999 129.997803 47.146 141.043793 34.043999 148.508789 L 34.039001 148.51181 C 34.005001 148.530792 33.972 148.550797 33.945999 148.566803 C 32.064999 149.691803 31.440001 152.120789 32.544998 154.014801 C 33.288002 155.286804 34.626999 155.998795 36.002998 155.998795 C 36.552002 155.998795 37.105999 155.886795 37.631001 155.651794 C 37.794998 155.607788 38.078999 155.538788 38.317001 155.482788 C 40.908001 154.8638 46.975998 153.416809 52.008999 148.161804 C 56.382999 143.593796 58.964001 137.281799 59.740997 129.346802 L 65.688995 145.40979 C 65.879997 146.087799 70.658005 161.997803 97.431999 161.997803 L 156.113007 161.998795 L 156.436005 161.999802 C 160.595001 161.999802 181.651993 161.209808 187.733002 145.610809 C 189.593994 140.839798 192.699005 132.162796 196.119003 122.4048 C 196.048996 122.927795 196 123.457794 196 123.999802 C 196 126.434799 196.733002 128.698792 197.983994 130.592804 C 192.848007 135.890808 188 142.027802 188 146.329803 C 188 148.068802 188.690994 149.602798 189.947006 150.649796 C 191.022995 151.545807 192.388 151.999802 194.003006 151.999802 C 200.811996 151.999802 214.121994 142.921799 223.451004 135.148804 C 227.692993 131.612793 240.380005 120.570801 243.362 112.689804 C 243.755005 118.561798 244 124.065796 244 127.999802 C 244 140.539795 243.996002 152.347809 242.276001 166.612793 M 55.865997 119.999802 C 57.815002 150.392792 37.880001 150.977798 36.023998 151.984802 C 56.707001 140.200806 55.865997 119.999802 55.865997 119.999802 M 59.416 71.395798 L 59.32 69.959793 L 79.087997 68.691803 L 79.175995 70.087799 C 96.264 69.063797 114.351997 67.999802 128 67.999802 C 143.761002 67.999802 184.302002 70.789795 208.768997 72.646805 L 208.757996 72.678802 C 208.712997 72.810791 186.766998 135.935791 183.613007 144.024796 C 178.188004 157.944794 156.32901 157.612793 156.174011 157.6138 L 97.431999 157.606796 C 74.171997 157.606796 70.074005 144.672791 69.889 144.056793 L 43.247002 72.755798 C 49.845001 72.170792 56.631001 71.594803 59.416 71.395798 M 208.343994 86.977798 C 210.464996 87.803802 212 90.035797 212 92.700806 C 212 96.066803 209.572998 98.795792 206.578995 98.795792 C 205.826004 98.795792 205.121994 98.601807 204.473999 98.283798 C 205.860001 94.246796 207.175003 90.405792 208.343994 86.977798 M 200.727997 133.522797 C 202.748001 135.069794 205.264999 135.999802 208 135.999802 C 214.617004 135.999802 220 130.616791 220 123.999802 C 220 123.759796 219.977997 123.523804 219.964005 123.286804 C 221.227997 123.739807 222.582001 123.999802 224 123.999802 C 230.617004 123.999802 236 118.616806 236 111.999802 C 236 110.768799 235.811996 109.580795 235.466995 108.461807 C 236.455002 108.159805 237.307999 107.999802 237.996994 107.999802 C 238.643997 107.999802 239.147995 108.137802 239.490997 108.423798 C 242.192001 110.674805 233.863998 121.262802 220.889999 132.074799 C 209.565002 141.51181 198.444 147.999802 194.003006 147.999802 C 193.356003 147.999802 192.852005 147.862793 192.509003 147.575806 C 190.632004 146.012802 194.093994 140.416809 200.727997 133.522797 M 216 123.999802 C 216 128.418793 212.417999 131.999802 208 131.999802 C 203.582001 131.999802 200 128.418793 200 123.999802 C 200 119.581802 203.582001 115.999802 208 115.999802 C 212.417999 115.999802 216 119.581802 216 123.999802 M 232 111.999802 C 232 116.418793 228.417999 119.999802 224 119.999802 C 219.582001 119.999802 216 116.418793 216 111.999802 C 216 107.581802 219.582001 103.999802 224 103.999802 C 228.417999 103.999802 232 107.581802 232 111.999802 M 240.087997 83.007797 C 241.050003 87.397797 242.108002 96.726807 242.882004 106.216797 C 242.641998 105.901794 242.363998 105.610794 242.052994 105.3508 C 240.977005 104.454803 239.612 103.999802 237.996994 103.999802 C 236.742996 103.999802 235.261993 104.320801 233.630997 104.872803 C 231.442993 101.923798 227.945999 99.999802 224 99.999802 C 217.382996 99.999802 212 105.383804 212 111.999802 C 212 112.240799 212.022003 112.4758 212.035995 112.713806 C 210.772003 112.259796 209.417999 111.999802 208 111.999802 C 203.625 111.999802 199.800995 114.360794 197.703995 117.867798 C 199.522003 112.648804 201.386993 107.257797 203.169006 102.079803 C 204.266006 102.5448 205.423004 102.795792 206.578995 102.795792 C 211.772995 102.795792 216 98.2668 216 92.700806 C 216 88.365799 213.421005 84.558792 209.641998 83.171799 C 211.093002 78.911804 212.227005 75.570801 212.856003 73.713791 L 213.106003 72.979797 C 221.856003 73.656799 227.753998 74.155792 228.328003 74.251801 C 235.968002 75.499802 238.287994 74.8358 240.087997 83.007797 M 243.994995 82.151794 C 241.904999 72.661804 238.005997 71.642792 231.294998 70.658798 C 230.582001 70.553802 229.811005 70.441803 228.973007 70.303802 C 226.759995 69.933792 150.96701 63.999802 128 63.999802 C 115.031998 63.999802 98.275002 64.941803 82.917 65.856796 L 82.828003 64.443802 L 78.832001 64.699799 L 59.063999 65.967804 L 55.062 66.224792 L 55.160999 67.718796 C 46.266998 68.449799 28.693001 70.0168 26.994999 70.297806 C 26.165001 70.433792 25.394001 70.546799 24.681999 70.651794 C 17.976999 71.636795 14.080999 72.655792 12.000999 82.143799 C 10.069 90.9478 8 116.590805 8 127.999802 C 8 140.627808 8 152.55481 9.753 167.09079 C 10.847 176.126801 22.882 182.324799 47.627998 186.601807 C 68.070999 190.132797 95.862999 191.999786 128 191.999786 C 160.136002 191.999786 187.927994 190.132797 208.369995 186.601807 C 233.115005 182.324799 245.151001 176.126801 246.246994 167.093796 C 248 152.55481 248 140.627808 248 127.999802 C 248 116.610794 245.929001 90.9758 243.994995 82.151794"/>
    <path id="path1" fill="#ffffff" stroke="none" d="M 60.303699 85.766602 C 60.403702 85.248596 62.591702 82.984604 71.4627 81.362595 C 77.514702 80.256607 83.528702 80.021606 84.144699 79.999603 L 171.856705 79.999603 C 172.473694 80.021606 178.412704 80.250595 184.459702 81.348602 C 193.393692 82.971603 195.595703 85.246597 195.696701 85.766602 C 196.944702 92.216599 193.8927 97.176605 193.877701 97.1996 L 193.623703 97.591599 L 193.46669 98.030594 L 179.116699 138.082611 L 179.056702 138.1996 L 179.006699 138.440598 C 178.776703 139.179596 175.800705 147.581604 159.688705 147.889603 C 155.671692 147.965607 140.878693 147.999603 127.999702 147.999603 C 115.121704 147.999603 100.328705 147.965607 96.311699 147.889603 C 80.236702 147.582611 77.237701 139.218597 76.994698 138.445602 L 76.9757 138.343597 L 76.882698 138.082611 L 62.533699 98.030594 L 62.3927 97.617599 L 62.138699 97.225601 C 62.1077 97.176605 59.055698 92.216599 60.303699 85.766602 M 58.7677 99.379593 L 73.116699 139.43161 C 73.116699 139.43161 76.106697 151.504608 96.235703 151.888611 C 100.136703 151.962601 114.068703 151.999603 127.999702 151.999603 C 141.931702 151.999603 155.863693 151.962601 159.764694 151.888611 C 179.893692 151.504608 182.882706 139.43161 182.882706 139.43161 L 197.232697 99.379593 C 197.232697 99.379593 201.217697 93.246597 199.622696 85.006607 C 198.029694 76.766602 171.921692 75.999603 171.921692 75.999603 L 84.077698 75.999603 C 84.077698 75.999603 57.970699 76.766602 56.376701 85.006607 C 54.7827 93.246597 58.7677 99.379593 58.7677 99.379593"/>
    <path id="path2" fill="#ffffff" stroke="none" d="M 160 132 L 96 132 L 96 88 L 160 88 Z M 164 84 L 92 84 L 92 136 L 164 136 Z"/>
    <path id="path3" fill="#ffffff" stroke="none" d="M 74 108 C 75.103996 108 76 107.104004 76 106 C 76 104.895996 75.103996 104 74 104 C 72.896004 104 72 104.895996 72 106 C 72 107.104004 72.896004 108 74 108"/>
    <path id="path4" fill="#ffffff" stroke="none" d="M 36 100 C 24.972 100 16 108.972 16 120 C 16 131.028 24.972 140 36 140 C 47.028 140 56 131.028 56 120 C 56 108.972 47.028 100 36 100 M 36 104 C 44.835999 104 52 111.164001 52 120 C 52 128.835999 44.835999 136 36 136 C 27.164 136 20 128.835999 20 120 C 20 111.164001 27.164 104 36 104"/>
</svg>
