<?xml version="1.0" encoding="UTF-8"?>
<!-- Generated by Pixelmator Pro 3.7.1 -->
<svg width="256" height="256" viewBox="0 0 256 256" xmlns="http://www.w3.org/2000/svg">
    <path id="Path" fill="#ffffff" stroke="none" d="M 244 100 C 244 102.209 242.209 104 240 104 L 240 40 C 242.209 40 244 41.791 244 44 Z M 236 35.337006 L 236 136 L 236 164 L 226.959 173.455002 C 225.328995 175.084 223.119003 176 220.813995 176 L 148 176 L 144 176 L 110.598007 176 L 106.457993 176 L 77.542007 176 L 73.401993 176 L 40 176 L 36 176 L 26.785995 176 C 24.737 176 22.772003 175.186996 21.324005 173.737 L 12 164 L 12 136 L 12 35.313004 L 12 35.110001 C 12 33.472992 12.539001 31.893005 13.509003 30.57901 C 13.738007 30.255005 13.985001 29.942993 14.261993 29.656006 L 22.453995 21.17099 C 23.177994 20.42099 24.160995 20 25.184998 20 L 25.188004 20 L 123.538002 20.061005 C 94.722 29.912003 74 56.639008 74 88 C 74 101.108994 77.638 113.401001 83.955994 124 L 25.311996 124 C 24.289001 124 23.307999 124.389008 22.584 125.082001 L 16 132 L 16 160 C 16 161.959 16.813004 165.393997 18.259003 166.778 L 21.455002 169.837006 C 22.901001 171.222 24.863998 172 26.910004 172 L 36 172 L 40 172 L 74.753998 172 L 79.167007 172 L 104.830994 172 L 109.244995 172 L 144 172 L 148 172 L 221.091003 172 C 223.136993 172 225.098999 171.222 226.544998 169.837006 L 229.740005 166.778 C 231.186996 165.393997 232 163.514999 232 161.557007 L 232 132 L 226.544998 126.162994 C 225.098999 124.778 223.136993 124 221.091003 124 L 212.044998 124 C 218.362 113.401001 222 101.108994 222 88 C 222 56.671997 201.321991 29.968002 172.554001 20.091003 L 222.826996 20.122009 C 223.843994 20.123001 224.819 20.539001 225.541 21.278992 L 233.615997 29.556 L 233.656998 29.595001 C 235.156998 31.039001 236 32.998001 236 35.040009 Z M 77.998001 180 L 106 180 C 106 187.721008 99.720001 194.001999 92 194.001999 C 84.279007 194.001999 77.998001 187.721008 77.998001 180 M 92.001007 199.033997 C 102.485992 199.033997 111.035004 190.488998 111.035004 180 L 140 180 C 140 206.51001 118.503998 228 92 228 C 65.488007 228 44 206.51001 44 180 L 72.964996 180 C 72.964996 190.488998 81.505997 199.033997 92.001007 199.033997 M 144 232 L 92 232 L 40 232 L 40 180 C 40 208.673004 63.326996 232 92 232 C 120.672997 232 144 208.673004 144 180 Z M 140 240 L 44 240 C 41.791 240 40 238.209 40 236 L 144 236 C 144 238.209 142.209 240 140 240 M 172 151.895996 L 172 143.335999 C 194.322998 134.257996 210 112.902008 210 88 C 210 78.376999 207.645996 69.291 203.485001 61.229996 C 202.888 59.173004 201.791 57.328003 200.328003 55.837997 C 189.326004 39.108002 170.01001 28 148 28 C 125.989998 28 106.673996 39.108002 95.671005 55.837997 C 94.207993 57.328003 93.112 59.173004 92.514999 61.229996 C 88.354004 69.291 86 78.376999 86 88 C 86 112.902008 101.677002 134.257996 124 143.335999 L 124 151.895996 C 97.160995 142.380997 78 117.365005 78 88 C 78 51.428009 107.723999 21.610992 144.981995 20.074005 L 151.174011 20.078003 C 188.359009 21.69101 218 51.479004 218 88 C 218 117.365005 198.839005 142.380997 172 151.895996 M 148 148 C 155.001007 148 161.722992 146.860001 168 144.791 L 168 153.167999 C 161.661011 155.001007 154.951996 156 148 156 C 141.048004 156 134.338989 155.001007 128 153.167999 L 128 144.791 C 134.277008 146.860001 140.998993 148 148 148 M 128 140 L 128 104.138 L 168 104.138 L 168 140 L 168 140.56601 C 161.763 142.785995 155.024994 144 148 144 C 140.975006 144 134.237 142.785995 128 140.56601 Z M 103.563004 52.061996 C 114.210999 39.80899 130.175995 32 148 32 C 165.824005 32 181.789001 39.80899 192.436996 52.061996 C 192.031998 52.022995 191.623001 52 191.209 52 L 104.792007 52 C 104.376999 52 103.968002 52.022995 103.563004 52.061996 M 98.817993 58.369003 C 100.389999 56.904999 102.487 56 104.792007 56 L 191.209 56 C 193.513 56 195.610001 56.904999 197.182999 58.369003 C 198.106003 59.792999 198.962997 61.261993 199.753998 62.768997 C 199.908997 63.419006 200 64.095001 200 64.791992 L 200 71.208008 C 200 76.044006 196.044006 80 191.209 80 L 104.792007 80 C 99.955994 80 96 76.044006 96 71.208008 L 96 64.791992 C 96 64.095001 96.091003 63.419006 96.246002 62.768997 C 97.037003 61.261993 97.893997 59.792999 98.817993 58.369003 M 92.136993 72.977005 C 93.003006 79.194 98.339996 84 104.792007 84 L 191.209 84 C 197.660004 84 202.997009 79.194 203.863007 72.977005 C 205.244995 77.761993 206 82.796005 206 88 C 206 110.615997 192.035004 130.128998 172 138.959991 L 172 104.138 C 172 101.929001 170.209 100.138 168 100.138 L 128 100.138 C 125.791 100.138 124 101.929001 124 104.138 L 124 138.959991 C 103.964996 130.128998 90 110.615997 90 88 C 90 82.796005 90.755005 77.761993 92.136993 72.977005 M 44 148 L 36 148 L 36 136 L 44 136 Z M 36 152 L 44 152 L 44 160 L 36 160 Z M 71 152 C 71.552002 152 72 152.446991 72 153 L 72 159 C 72 159.553009 71.552002 160 71 160 L 53 160 C 52.447998 160 52 159.553009 52 159 L 52 153 C 52 152.446991 52.447998 152 53 152 Z M 68 144 L 64 144 L 62 144 L 60 144 L 56 144 L 56 136 L 60 136 L 62 136 L 64 136 L 68 136 Z M 76 128 L 76 153 C 76 150.242996 73.757004 148 71 148 L 72 148 L 72 144 L 72 136 L 72 132 L 68 132 L 64 132 L 62 132 L 60 132 L 56 132 L 52 132 L 52 136 L 52 144 L 52 148 L 53 148 C 50.242996 148 48 150.242996 48 153 L 48 152 L 48 148 L 48 132 L 32 132 L 32 148 L 32 152 L 32 164 L 48 164 L 48 159 C 48 161.757004 50.242996 164 53 164 L 71 164 C 73.757004 164 76 161.757004 76 159 L 76 168 L 74.753998 168 L 40 168 L 36 168 L 28 168 L 28 128 L 24 132 L 27.600006 168 L 26.910004 168 C 25.899002 168 24.919006 167.615997 24.220993 166.946991 L 21.059006 163.923004 C 20.615997 163.401001 20 161.326996 20 160 L 20 133.600006 L 25.328995 128 L 28 128 L 76 128 L 86.505005 128 C 99.796005 147.281006 122.398003 160 148 160 C 173.60199 160 196.203995 147.281006 209.494995 128 L 221.091003 128 C 222.069 128 223.020004 128.360001 223.712997 128.990997 L 228 133.578003 L 228 161.557007 C 228 162.428009 227.636002 163.255997 226.975006 163.889008 L 223.778992 166.946991 C 223.080002 167.615997 222.100998 168 221.091003 168 L 148 168 L 144 168 L 109.244995 168 L 102.966003 168 L 81.031006 168 L 76.399994 168 L 80 132.035995 Z M 240 36 L 240 35.337006 L 240 35.040009 C 240 31.93399 238.701004 28.899994 236.436005 26.718002 L 228.404007 18.485992 C 226.940002 16.985001 224.908005 16.123993 222.830002 16.122009 L 151.15799 16.078003 C 150.109009 16.035004 149.05899 16 148 16 C 146.992996 16 145.994003 16.035004 144.997009 16.074005 L 25.190002 16 L 25.188004 16 L 25.188004 16 L 25.184998 16 C 23.089005 16 21.044998 16.872009 19.576004 18.393997 L 11.384995 26.876999 C 11.001007 27.274002 10.636002 27.718994 10.268997 28.233002 C 8.783997 30.257004 8 32.634003 8 35.110001 L 8 35.313004 L 8 136 L 8 164 L 8 165.606003 L 9.110992 166.766998 L 18.434998 176.503998 L 18.464996 176.535004 L 18.494995 176.56601 C 20.710007 178.779999 23.654007 180 26.785995 180 L 36 180 L 36 232 L 36 236 C 36 240.410995 39.589005 244 44 244 L 140 244 C 144.411011 244 148 240.410995 148 236 L 148 232 L 148 180 L 220.813995 180 C 224.203995 180 227.391006 178.679993 229.787003 176.28299 L 229.819 176.251999 L 229.850006 176.220001 L 238.891006 166.764999 L 240 165.604004 L 240 164 L 240 136 L 240 108 C 244.410995 108 248 104.410995 248 100 L 248 44 C 248 39.589005 244.410995 36 240 36"/>
    <path id="path1" fill="#ffffff" stroke="none" d="M 28 108 L 28 104 L 52 104 L 52 100 L 28 100 L 28 96 L 52 96 L 52 92 L 28 92 L 28 88 L 52 88 L 52 84 L 28 84 L 28 80 L 52 80 L 52 76 L 28 76 L 28 72 L 52 72 L 52 68 L 28 68 L 28 64 L 52 64 L 52 60 L 28 60 L 28 56 L 52 56 L 52 52 L 28 52 L 28 48 L 52 48 L 52 44 L 28 44 L 28 40 L 52 40 L 52 36 L 28 36 L 28 32 L 56 32 L 56 116 L 28 116 L 28 112 L 52 112 L 52 108 Z M 24 116 L 24 120 L 28 120 L 56 120 L 60 120 L 60 116 L 60 32 L 60 28 L 56 28 L 28 28 L 24 28 L 24 32 L 24 36 L 16 44 L 16 48 L 24 40 L 24 44 L 16 52 L 16 56 L 24 48 L 24 52 L 16 60 L 16 64 L 24 56 L 24 60 L 16 68 L 16 72 L 24 64 L 24 68 L 16 76 L 16 80 L 24 72 L 24 76 L 16 84 L 16 88 L 24 80 L 24 84 L 16 92 L 16 96 L 24 88 L 24 92 L 16 100 L 16 104 L 24 96 L 24 100 L 16 108 L 16 112 L 24 104 L 24 108 L 16 116 L 16 120 L 24 112 Z"/>
    <path id="path2" fill="#ffffff" stroke="none" d="M 112 68 L 112 64 L 116 64 L 116 72 L 112 72 C 108.523003 72 108 71.477005 108 68 Z M 176 72 L 120 72 L 120 64 L 176 64 Z M 184 64 L 184 68 L 188 68 C 188 71.477005 187.47699 72 184 72 L 180 72 L 180 64 Z M 112 76 L 116 76 L 120 76 L 176 76 L 180 76 L 184 76 C 189.481995 76 192 73.897995 192 68 L 192 64 L 188 64 L 188 60 L 180 60 L 176 60 L 120 60 L 116 60 L 108 60 L 108 64 L 104 64 L 104 68 C 104 73.897995 106.517998 76 112 76"/>
    <path id="path3" fill="#ffffff" stroke="none" d="M 148 154 C 149.104004 154 150 153.104004 150 152 C 150 150.895996 149.104004 150 148 150 C 146.895996 150 146 150.895996 146 152 C 146 153.104004 146.895996 154 148 154"/>
</svg>
