<?xml version="1.0" encoding="UTF-8"?>
<!-- Generated by Pixelmator Pro 3.7.1 -->
<svg width="256" height="256" viewBox="0 0 256 256" xmlns="http://www.w3.org/2000/svg">
    <path id="Path" fill="#ffffff" stroke="none" d="M 144 162.429703 L 144 162.666702 L 144.098007 162.502701 C 144.063995 162.479706 144.033005 162.452698 144 162.429703"/>
    <path id="path1" fill="#ffffff" stroke="none" d="M 208.921906 160.921906 C 209.760895 161.760895 209.666901 163.137909 208.736893 163.874908 C 204.130905 167.530899 198.935898 170.470901 193.324905 172.544891 L 191.925903 168.812897 C 197.156906 166.886902 201.998901 164.151901 206.287903 160.747894 C 206.643906 160.465897 207.069901 160.328903 207.495895 160.328903 C 208.013901 160.328903 208.530899 160.530899 208.919907 160.919891 Z M 211.999893 155.999908 C 211.999893 153.790894 213.790894 151.999908 215.999893 151.999908 C 218.208893 151.999908 219.999893 153.790894 219.999893 155.999908 C 219.999893 158.208893 218.208893 159.999908 215.999893 159.999908 C 213.790894 159.999908 211.999893 158.208893 211.999893 155.999908 M 157.775894 173.596893 L 158.953903 169.756897 C 163.016907 170.995911 167.276901 171.757904 171.677902 171.948898 C 172.455902 171.983902 173.229904 171.999908 173.999893 171.999908 C 178.894897 171.999908 183.6259 171.31189 188.114899 170.045898 L 189.520905 173.794891 C 184.589905 175.2229 179.385895 175.999908 173.999893 175.999908 C 168.358902 175.999908 162.912903 175.154907 157.775894 173.596893 M 217.799896 167.999908 L 216.337906 167.999908 L 215.220901 168.942902 C 203.703903 178.651901 189.065903 183.999908 173.999893 183.999908 C 158.934906 183.999908 144.295898 178.651901 132.7789 168.942902 L 131.661896 167.999908 L 130.199905 167.999908 L 11.999903 167.999908 L 11.999903 127.999893 L 39.999905 127.999893 L 43.999905 127.999893 L 111.999901 127.999893 L 114.548897 127.999893 C 118.498901 157.443909 143.921906 179.999908 173.999893 179.999908 C 187.642899 179.999908 200.514908 175.507904 211.223907 167.008911 C 212.325897 166.132904 213.071899 164.900909 213.358902 163.542908 C 214.187897 163.833893 215.073898 163.999908 215.999893 163.999908 C 220.410904 163.999908 223.999893 160.410889 223.999893 155.999908 C 223.999893 151.588898 220.410904 147.999908 215.999893 147.999908 C 211.588898 147.999908 207.999893 151.588898 207.999893 155.999908 C 207.999893 156.118896 208.012894 156.235901 208.017899 156.354889 C 207.845901 156.339905 207.671906 156.328903 207.495895 156.328903 C 206.157898 156.328903 204.845901 156.785889 203.800903 157.614899 C 195.239899 164.408905 184.935898 167.999908 173.999893 167.999908 C 173.287903 167.999908 172.565903 167.983902 171.851898 167.952911 C 160.204895 167.444901 149.124893 162.6409 140.651901 154.424896 C 132.346909 146.370911 127.232895 135.710907 126.207901 124.344894 L 126.157898 123.693893 C 126.114899 123.120895 126.078896 122.544907 126.051895 121.966904 L 126.039894 121.642899 C 126.021896 121.203903 126.013901 120.787903 126.008896 120.370895 C 126.007896 120.131897 126.009895 119.883896 126.012901 119.635895 L 126.013901 119.545898 C 126.018898 118.954895 126.035896 118.356903 126.062897 117.769897 L 126.073898 117.523895 C 126.080894 117.369904 126.086899 117.215897 126.095901 117.062897 C 126.150894 116.161896 126.216896 115.374893 126.296898 114.657898 C 126.344894 114.2229 126.345901 113.782898 126.298897 113.348892 C 126.145897 111.863907 125.4319 110.495895 124.286896 109.493896 C 124.189896 109.402893 124.058899 109.287903 123.893898 109.166901 C 123.727898 109.044907 123.579895 108.953903 123.463898 108.887894 C 123.318901 108.795898 123.0989 108.662903 122.821899 108.536896 L 122.551895 108.414902 L 122.466896 108.389893 C 121.786896 108.130905 121.071899 107.999893 120.338898 107.999893 L 120.336899 107.999893 L 119.999901 107.999893 L 118.580894 107.999893 L 115.999901 107.999893 L 111.999901 107.999893 L 43.999905 107.999893 L 39.999905 107.999893 L 11.999903 107.999893 L 11.999903 59.999908 L 135.999908 59.999908 L 135.999908 94.111908 C 130.955902 101.491898 127.999901 110.405899 127.999901 119.999893 C 127.999901 145.363892 148.635895 165.999908 173.999893 165.999908 C 199.363907 165.999908 219.999893 145.363892 219.999893 119.999893 C 219.999893 110.405899 217.0439 101.491898 211.999893 94.111908 L 211.999893 59.999908 L 243.999893 59.999908 L 243.999893 167.999908 Z M 65.999901 179.999908 C 65.999901 184.410904 62.4109 187.999908 57.999905 187.999908 C 53.588909 187.999908 49.999905 184.410904 49.999905 179.999908 C 49.999905 175.588898 53.588909 171.999908 57.999905 171.999908 C 62.4109 171.999908 65.999901 175.588898 65.999901 179.999908 M 41.999905 179.999908 C 41.999905 184.410904 38.4109 187.999908 33.999905 187.999908 C 29.588907 187.999908 25.999903 184.410904 25.999903 179.999908 C 25.999903 175.588898 29.588907 171.999908 33.999905 171.999908 C 38.4109 171.999908 41.999905 175.588898 41.999905 179.999908 M 243.999893 187.999908 L 243.999893 191.999908 L 180.988907 195.938904 C 180.329895 195.979904 179.671906 196.040894 179.016907 196.122894 L 151.953903 199.505905 C 149.319901 199.8349 146.6689 199.999908 144.0159 199.999908 L 111.983894 199.999908 C 109.330894 199.999908 106.679901 199.8349 104.046898 199.505905 L 76.983894 196.122894 C 76.327904 196.040894 75.669899 195.979904 75.010902 195.938904 L 11.999903 191.999908 L 11.999903 187.999908 L 11.999903 171.999908 L 15.999903 171.999908 L 25.080896 171.999908 C 23.1719 174.1259 21.999903 176.924896 21.999903 179.999908 C 21.999903 186.616898 27.382898 191.999908 33.999905 191.999908 C 40.616909 191.999908 45.999905 186.616898 45.999905 179.999908 C 45.999905 176.924896 44.827908 174.1259 42.918896 171.999908 L 49.080898 171.999908 C 47.171902 174.1259 45.999905 176.924896 45.999905 179.999908 C 45.999905 186.616898 51.3829 191.999908 57.999905 191.999908 C 64.616905 191.999908 69.999901 186.616898 69.999901 179.999908 C 69.999901 176.924896 68.827904 174.1259 66.918892 171.999908 L 130.199905 171.999908 C 142.033905 181.977905 157.310898 187.999908 173.999893 187.999908 C 190.689896 187.999908 205.965897 181.977905 217.799896 171.999908 L 239.999893 171.999908 L 243.999893 171.999908 Z M 39.999905 123.999893 L 11.999903 123.999893 L 11.999903 111.999893 L 39.999905 111.999893 Z M 51.999905 115.999893 L 43.999905 115.999893 L 43.999905 111.999893 L 51.999905 111.999893 Z M 99.999901 115.999893 L 55.999905 115.999893 L 55.999905 111.999893 L 99.999901 111.999893 Z M 111.999901 115.999893 L 103.999901 115.999893 L 103.999901 111.999893 L 111.999901 111.999893 Z M 103.999901 119.999893 L 111.999901 119.999893 L 111.999901 123.999893 L 103.999901 123.999893 Z M 55.999905 119.999893 L 99.999901 119.999893 L 99.999901 123.999893 L 55.999905 123.999893 Z M 51.999905 123.999893 L 43.999905 123.999893 L 43.999905 119.999893 L 51.999905 119.999893 Z M 122.041901 121.7789 C 122.045898 121.904907 122.050896 122.030899 122.055901 122.156906 C 122.085899 122.773895 122.122894 123.387894 122.169899 123.999893 L 122.164894 123.999893 C 123.710899 144.244904 137.032898 161.343903 155.191895 168.457901 L 153.993896 172.289902 C 134.162903 164.672897 119.726898 146.091904 118.158897 123.999893 L 118.1539 123.999893 L 115.999901 123.999893 L 115.999901 111.999893 L 118.580894 111.999893 L 119.999901 111.999893 L 120.336899 111.999893 L 120.338898 111.999893 C 120.631897 111.999893 120.907898 112.063904 121.156898 112.175903 C 121.159897 112.176895 121.162895 112.176895 121.164894 112.177902 C 121.249901 112.216904 121.325897 112.268906 121.402901 112.317902 C 121.441895 112.341904 121.484901 112.359894 121.521896 112.386902 C 121.555901 112.412903 121.5839 112.444901 121.615898 112.4729 C 122.002899 112.795898 122.268898 113.254898 122.321899 113.775894 C 122.337898 113.9189 122.337898 114.065903 122.3209 114.213898 C 122.225899 115.075897 122.156898 115.945892 122.103897 116.819901 C 122.087898 117.073898 122.078896 117.329895 122.067902 117.583893 C 122.037895 118.221893 122.019897 118.8629 122.013901 119.506897 C 122.010895 119.808899 122.006897 120.108902 122.009895 120.411896 C 122.013901 120.868896 122.023895 121.324905 122.041901 121.7789 M 173.999893 77.999908 C 197.158905 77.999908 215.999893 96.840897 215.999893 119.999893 C 215.999893 143.158905 197.158905 161.999908 173.999893 161.999908 C 150.840897 161.999908 131.999908 143.158905 131.999908 119.999893 C 131.999908 96.840897 150.840897 77.999908 173.999893 77.999908 M 207.999893 59.999908 L 207.999893 89.048904 C 199.580902 79.808899 187.455902 73.999908 173.999893 73.999908 C 160.5439 73.999908 148.4189 79.808899 139.999908 89.048904 L 139.999908 59.999908 Z M 243.999893 55.999908 L 11.999903 55.999908 L 7.999903 55.999908 L 7.999903 59.999908 L 7.999903 107.999893 L 7.999903 111.999893 L 7.999903 123.999893 L 7.999903 127.999893 L 7.999903 167.999908 L 7.999903 171.999908 L 7.999903 187.999908 L 7.999903 191.999908 L 7.999903 195.757904 L 11.750895 195.991898 L 74.760902 199.930908 C 75.335899 199.966904 75.916893 200.020905 76.487892 200.091904 L 103.549896 203.474899 C 106.338898 203.822906 109.175896 203.999908 111.983894 203.999908 L 144.0159 203.999908 C 146.823898 203.999908 149.661896 203.822906 152.449905 203.474899 L 179.512894 200.091904 C 180.082901 200.020905 180.663895 199.966904 181.238907 199.930908 L 244.249893 195.991898 L 247.999893 195.757904 L 247.999893 191.999908 L 247.999893 187.999908 L 247.999893 171.999908 L 247.999893 167.999908 L 247.999893 59.999908 L 247.999893 55.999908 Z"/>
</svg>
