<?xml version="1.0" encoding="UTF-8"?>
<!-- Generated by Pixelmator Pro 3.7.1 -->
<svg width="256" height="256" viewBox="0 0 256 256" xmlns="http://www.w3.org/2000/svg">
    <path id="Path" fill="#ffffff" stroke="none" d="M 24 124 L 24 120 L 36 120 L 36 116 L 24 116 L 24 112 L 36 112 L 36 108 L 24 108 L 24 104 L 36 104 L 36 100 L 24 100 L 24 96 L 36 96 L 36 92 L 24 92 L 24 88 L 36 88 L 36 84 L 24 84 L 24 80 L 40 80 L 40 132 L 24 132 L 24 128 L 36 128 L 36 124 Z M 20 132 L 20 136 L 24 136 L 40 136 L 44 136 L 44 132 L 44 80 L 44 76 L 40 76 L 24 76 L 20 76 L 20 80 L 20 84 L 16 88 L 16 92 L 20 88 L 20 92 L 16 96 L 16 100 L 20 96 L 20 100 L 16 104 L 16 108 L 20 104 L 20 108 L 16 112 L 16 116 L 20 112 L 20 116 L 16 120 L 16 124 L 20 120 L 20 124 L 16 128 L 16 132 L 20 128 Z"/>
    <path id="path1" fill="#ffffff" stroke="none" d="M 28 152 L 28 156 L 28 160 L 32 160 L 32 156 L 32 152 Z"/>
    <path id="path2" fill="#ffffff" stroke="none" d="M 79.731903 112 L 124.267899 112 C 128.005905 112 131.999908 110.949005 131.999908 108 L 127.999901 108 L 127.999901 104 L 75.999901 104 L 75.999901 108 L 71.999901 108 C 71.999901 110.949005 75.993896 112 79.731903 112"/>
    <path id="path3" fill="#ffffff" stroke="none" d="M 186 172 L 182 172 C 180.899994 172 180 172.899994 180 174 C 180 175.100006 180.899994 176 182 176 L 186 176 C 187.100006 176 188 175.100006 188 174 C 188 172.899994 187.100006 172 186 172"/>
    <path id="path4" fill="#ffffff" stroke="none" d="M 244 132 L 244 136 C 244 136.311005 243.925995 137.436996 243.867004 137.681 C 243.296005 144.084 240.895996 149.877991 237.268005 154.397003 C 235.942001 154.55899 234.716995 155.145996 233.759995 156.102997 L 228.121994 161.73999 C 224.985992 163.244003 221.537003 164.083008 217.912994 164.083008 C 217.328003 164.083008 180 168 180 168 L 164 172 L 164 136.666992 L 164 136 L 164 132 L 164 80 L 164.003998 80 C 164.002991 79.998001 164.001007 79.996002 164 79.994003 L 164 77.916992 C 164 75.752991 165.557999 74 167.479004 74 L 168 74 L 168 76 C 168 77.839005 168.630005 79.529999 169.677002 80.882004 C 168.664001 81.653992 168 82.856003 168 84.222 L 168 96 L 168 100 L 168 151.777008 C 168 154.109009 169.902008 156 172.25 156 L 219 156 C 228.389008 156 236 148.438004 236 139.110992 L 236 100 L 236 96 L 236 84.222 C 236 83.807007 235.921005 83.412994 235.809006 83.033997 C 238.302994 81.678009 240 79.033005 240 76 L 240 74 L 240.520996 74 C 242.442001 74 244 75.752991 244 77.916992 Z M 239.416992 161.76001 L 233.759995 167.416992 C 233.494003 167.682999 233.167999 167.850998 232.826004 167.934998 C 232.815994 167.938004 232.807999 167.940002 232.798004 167.942993 C 232.649002 167.977997 232.498001 168 232.345993 168 C 232.089005 168 231.833008 167.951004 231.591995 167.854004 C 231.352005 167.757004 231.126007 167.610992 230.932007 167.416992 C 230.781006 167.266998 230.669006 167.093994 230.576996 166.914001 C 230.561996 166.886002 230.546005 166.859009 230.533005 166.830994 C 230.451004 166.651001 230.399002 166.462997 230.373001 166.270996 C 230.369995 166.247009 230.369003 166.225998 230.367004 166.201996 C 230.309998 165.625 230.492004 165.028 230.932007 164.587997 L 236.587997 158.932007 C 237.229996 158.289001 238.208008 158.186005 238.968994 158.604996 C 238.979004 158.610992 238.990005 158.617004 239.001007 158.622009 C 239.147995 158.707001 239.291 158.806 239.416992 158.932007 C 240.194 159.709 240.194 160.981995 239.416992 161.76001 M 209.218002 180 L 202.261002 180 L 172 180 L 167.299011 175.298996 L 180.696991 171.949005 C 194.923996 170.455994 216.139999 168.244995 218.057007 168.083008 C 220.949997 168.067993 223.748001 167.597 226.397995 166.742004 C 226.559998 168.065002 227.147003 169.289001 228.102997 170.244995 C 228.604004 170.747009 229.184006 171.143005 229.809006 171.434998 C 224.042999 176.80899 216.929001 180 209.218002 180 M 231.552002 142.412994 C 230.369003 146.822998 226.891998 150.304993 222.462006 151.520996 C 224.175003 150.358002 225.850006 148.979004 227.414001 147.414001 C 228.992996 145.834991 230.376999 144.145004 231.552002 142.412994 M 231.097 134.429001 C 230.069 137.807007 227.757996 141.414001 224.585999 144.585999 C 220.302994 148.869003 215.035004 151.636993 211.165009 151.636993 C 209.734009 151.636993 208.632996 151.261002 207.891998 150.520004 C 204.722 147.348999 208.475006 139.177002 213.824997 133.824997 C 218.108002 129.542999 223.376999 126.774994 227.246002 126.774994 C 228.677002 126.774994 229.778 127.151001 230.520004 127.891998 C 231.768997 129.141998 231.979004 131.52301 231.097 134.429001 M 172 100 L 232 100 L 232 124.014008 C 230.891998 123.333008 229.352997 122.774994 227.246002 122.774994 C 222.294998 122.774994 216.067993 125.925003 210.997009 130.997009 C 204.604996 137.389008 200.628998 146.567001 204.020004 152 L 172.25 152 C 172.112 152 172 151.899994 172 151.777008 Z M 172 84.222 C 172 84.100006 172.112 84 172.25 84 L 176 84 L 210.5 84 L 219 84 L 231.75 84 C 231.888 84 232 84.100006 232 84.222 L 232 96 L 172 96 Z M 172 74 L 177 74 L 179 74 L 181 74 L 183 74 L 185 74 L 187 74 L 189 74 L 191 74 L 193 74 L 195 74 L 197 74 L 199 74 L 201 74 L 203 74 L 205 74 L 207 74 L 209 74 L 211 74 L 213 74 L 215 74 L 217 74 L 219 74 L 221 74 L 223 74 L 225 74 L 227 74 L 229 74 L 231 74 L 236 74 L 236 76 C 236 78.209 234.209 80 232 80 L 231.75 80 L 219 80 L 210.5 80 L 176 80 C 173.791 80 172 78.209 172 76 Z M 155.123001 178.306 C 154.037994 179.390991 152.56601 180 151.031998 180 L 21.845001 180 C 20.479996 180 19.171997 179.458008 18.207993 178.494003 L 12 172.285995 L 12 149.143005 L 12 144 L 12 84.416 C 12 83.052002 12.542007 81.744003 13.505997 80.778992 L 18.960007 75.324997 C 19.442993 74.843002 20.097 74.571991 20.779007 74.571991 L 20.779999 74.571991 L 82.035995 74.608002 C 64.214005 82.151001 51.714005 99.462006 51.714005 119.570999 C 51.714005 128.463989 54.169998 136.803009 58.438004 144 L 22.035995 144 C 21.373001 144 20.737 144.270996 20.268005 144.752991 L 16 149.143005 L 16 170.154999 C 16 171.520004 16.526993 172.826996 17.464005 173.791992 L 19.535995 175.921997 C 20.473007 176.886993 21.744995 177.429001 23.070999 177.429001 L 148.929001 177.429001 C 150.255005 177.429001 151.526001 176.886993 152.464996 175.921997 L 154.535004 173.791992 C 155.473999 172.826996 156 171.520004 156 170.154999 L 156 149.143005 L 152.464996 145.505997 C 151.526001 144.541992 150.255005 144 148.929001 144 L 145.561996 144 C 149.830002 136.803009 152.286011 128.463989 152.286011 119.570999 C 152.286011 99.483002 139.811996 82.186996 122.017998 74.632996 L 152.372009 74.651001 C 153.049011 74.651001 153.697998 74.917999 154.179993 75.395004 L 158.570999 79.740997 L 158.570999 79.714005 L 159.636993 80.778992 C 159.77301 80.916 159.880997 81.072998 160 81.222992 L 160 132.75 L 160 136 L 160 136.666992 L 160 172 C 160 172.287994 160.037003 172.570999 160.097992 172.848999 C 160.117004 172.940002 160.152008 173.024994 160.179001 173.115005 C 160.188004 173.149002 160.203003 173.182007 160.213989 173.214996 Z M 121.429001 160.414001 L 121.429001 156.520996 L 121.429001 154.709 C 134.352997 147.988007 143.143005 134.774994 143.143005 119.570999 C 143.143005 116.143997 142.69101 112.820007 141.850998 109.647003 C 141.938995 109.069 142 108.481003 142 107.878998 C 142 103.804001 139.882004 100.221008 136.694 98.153 C 129.388 87.067993 116.583 79.714005 102 79.714005 C 87.417007 79.714005 74.613007 87.067993 67.306 98.153 C 64.117996 100.221008 62 103.804993 62 107.878998 C 62 108.481003 62.061005 109.069 62.149002 109.647003 C 61.307999 112.820007 60.856995 116.143997 60.856995 119.570999 C 60.856995 133.742996 68.498001 146.178009 80 153.244995 L 80 155.416992 L 80 159.17099 C 65.537994 151.561005 55.714005 136.682007 55.714005 119.570999 C 55.714005 95.356003 75.389999 75.615997 100.044998 74.619995 L 104.052002 74.622009 C 128.662003 75.666992 148.286011 95.388 148.286011 119.570999 C 148.286011 137.675995 137.28299 153.27301 121.429001 160.414001 M 84 160 L 84 155.416992 C 85.332993 156.046997 86.705994 156.606003 88.113998 157.096008 C 88.246002 157.140991 88.380005 157.182007 88.511993 157.225998 C 89.061996 157.410004 89.615005 157.587006 90.175003 157.748993 C 90.382996 157.809998 90.593002 157.863998 90.802994 157.921997 C 91.292999 158.056 91.785995 158.18399 92.283005 158.300003 C 92.529007 158.358002 92.776001 158.412003 93.024002 158.466003 C 93.494995 158.567001 93.968994 158.660004 94.445007 158.746002 C 94.710007 158.794006 94.975006 158.841003 95.240997 158.884003 C 95.716003 158.959991 96.194 159.024002 96.673996 159.084991 C 96.938995 159.117996 97.205002 159.154999 97.472 159.18399 C 97.983994 159.237 98.501007 159.277008 99.020004 159.313004 C 99.255005 159.32901 99.488998 159.352997 99.725998 159.36499 C 100.479004 159.404999 101.235992 159.429001 102 159.429001 C 102.694 159.429001 103.382996 159.410995 104.067993 159.377991 C 104.416 159.360992 104.759995 159.32901 105.104996 159.304001 C 105.434006 159.279999 105.764999 159.263 106.091003 159.231003 C 106.561005 159.186996 107.024994 159.125 107.490005 159.063995 C 107.684006 159.040009 107.880005 159.020996 108.072998 158.992996 C 108.615997 158.915009 109.153 158.820999 109.688004 158.723999 C 109.796997 158.703003 109.906006 158.686996 110.014008 158.666992 C 110.604004 158.554001 111.188995 158.425995 111.770004 158.287994 C 111.817993 158.277008 111.867004 158.268005 111.914993 158.255997 C 112.533997 158.106995 113.145996 157.944 113.753006 157.770004 C 113.761993 157.766998 113.770996 157.764999 113.779999 157.761993 C 114.529007 157.544998 115.270004 157.313004 116 157.057999 L 116 160 L 116 162.459991 C 114.776001 162.837006 113.531006 163.166992 112.266998 163.445999 C 112.091995 163.485001 111.919006 163.527008 111.744995 163.563004 C 111.322998 163.652008 110.897003 163.729004 110.472 163.806 C 110.179001 163.858002 109.886002 163.910995 109.591003 163.959 C 109.216003 164.020004 108.839005 164.074005 108.460999 164.126007 C 108.097 164.175003 107.731003 164.220001 107.365005 164.261002 C 107.031998 164.298996 106.697998 164.335999 106.363007 164.365997 C 105.914001 164.406998 105.460999 164.438004 105.007996 164.466995 C 104.740997 164.483002 104.473999 164.505005 104.205002 164.518005 C 103.473999 164.550995 102.740005 164.570999 102 164.570999 C 101.201996 164.570999 100.408997 164.552002 99.621002 164.513 C 98.990997 164.481995 98.367004 164.429993 97.744995 164.373993 C 97.587006 164.360001 97.427994 164.354004 97.270996 164.339996 C 96.557007 164.268997 95.848999 164.179001 95.143997 164.076996 C 95.082993 164.067993 95.020004 164.063004 94.957993 164.054001 C 94.255997 163.949005 93.561005 163.826004 92.869995 163.69101 C 92.807007 163.679993 92.742996 163.67099 92.679993 163.658005 C 89.669998 163.061005 86.766998 162.178009 84 161.041 Z M 114.488998 153.337006 C 114.238998 153.423996 113.985001 153.503998 113.731995 153.584991 C 113.416 153.686996 113.098999 153.789001 112.779999 153.882996 C 112.511002 153.962006 112.238998 154.033005 111.966995 154.106003 C 111.664001 154.188004 111.360001 154.270996 111.054001 154.347 C 110.753006 154.419998 110.447998 154.483002 110.143997 154.550003 C 109.863007 154.610001 109.582993 154.675003 109.300995 154.729004 C 108.964005 154.794006 108.623993 154.848999 108.283005 154.904999 C 108.026993 154.946991 107.772003 154.994003 107.516006 155.031006 C 107.143997 155.084991 106.768997 155.126007 106.393005 155.169006 C 106.162003 155.195007 105.932007 155.227997 105.701004 155.25 C 105.281998 155.290009 104.858994 155.31601 104.436005 155.343002 C 104.244003 155.354996 104.052002 155.373993 103.858994 155.382996 C 103.242996 155.412003 102.623993 155.429001 102 155.429001 C 101.328995 155.429001 100.662003 155.408005 99.996994 155.375 C 99.688995 155.359009 99.386002 155.330002 99.080002 155.307999 C 98.735992 155.281006 98.391998 155.257996 98.048996 155.223999 C 97.660004 155.18399 97.274994 155.132996 96.889999 155.080994 C 96.641006 155.048004 96.393005 155.016998 96.145004 154.979004 C 95.718994 154.912994 95.294998 154.839005 94.873993 154.76001 C 94.675003 154.722 94.477005 154.684998 94.278 154.643997 C 93.832001 154.553009 93.389008 154.45401 92.949005 154.347 C 92.781998 154.307007 92.615005 154.264008 92.447998 154.221008 C 91.990005 154.104004 91.535004 153.979996 91.085007 153.846008 C 90.947006 153.804993 90.809998 153.76001 90.671997 153.716995 C 90.197998 153.570007 89.727005 153.419998 89.261002 153.255997 C 89.210007 153.237 89.160995 153.216995 89.110001 153.199005 C 87.339005 152.563995 85.632996 151.798996 84 150.921997 L 84 132.570999 C 84 130.362 85.791 128.570999 88 128.570999 L 112 128.570999 C 114.209 128.570999 116 130.362 116 132.570999 L 116 152.774994 C 115.806 152.852997 115.610001 152.925995 115.414001 152.998993 C 115.106003 153.113998 114.798996 153.229996 114.488998 153.337006 M 65.074005 115.716003 C 67.195007 118.018997 70.223999 119.472992 73.593994 119.472992 L 130.406006 119.472992 C 133.776001 119.472992 136.806 118.018997 138.925995 115.716003 C 139.067993 116.981995 139.143005 118.268997 139.143005 119.570999 C 139.143005 133.041 131.404999 144.794998 120 150.921997 L 120 132.570999 C 120 128.160004 116.411003 124.570999 112 124.570999 L 88 124.570999 C 83.589005 124.570999 80 128.160004 80 132.570999 L 80 148.438995 C 70.822998 141.903992 64.856995 131.399002 64.856995 119.570999 C 64.856995 118.268997 64.932007 116.981995 65.074005 115.716003 M 73.798004 96.285995 C 80.613998 88.600998 90.723007 83.714005 102 83.714005 C 113.276993 83.714005 123.386002 88.600998 130.201996 96.285995 Z M 73.593994 100.285995 L 130.406006 100.285995 C 134.583008 100.285995 138 103.703003 138 107.878998 C 138 112.056 134.583008 115.472992 130.406006 115.472992 L 73.593994 115.472992 C 69.417007 115.472992 66 112.056 66 107.878998 C 66 103.703003 69.417007 100.285995 73.593994 100.285995 M 57.065994 148 L 61.082001 148 C 65.940002 154.619995 72.436005 160.020996 80 163.623001 L 80 163.722992 L 80 164 L 80.675003 164 L 82.479996 164.740997 C 87.813004 166.932007 93.429001 168.186005 99.210007 168.492004 C 99.283005 168.496002 99.354004 168.503998 99.425995 168.507996 C 100.279999 168.550003 101.139008 168.570999 102 168.570999 C 102.796005 168.570999 103.589996 168.548996 104.382004 168.513 C 104.647995 168.5 104.912003 168.479004 105.177002 168.464005 C 105.699997 168.432007 106.222 168.395004 106.742996 168.347 C 107.056 168.317993 107.367996 168.283997 107.679993 168.25 C 108.147003 168.197998 108.613998 168.140991 109.080002 168.076004 C 109.408005 168.031006 109.735992 167.984009 110.063004 167.93399 C 110.513 167.862 110.960007 167.781006 111.408005 167.699005 C 111.731995 167.639008 112.057999 167.582001 112.380005 167.515991 C 112.867996 167.416 113.352997 167.302002 113.837006 167.188004 C 114.106003 167.123993 114.376999 167.067993 114.643997 167.001007 C 115.362 166.817993 116.075996 166.619003 116.787003 166.406006 C 117.064003 166.322998 117.336998 166.229004 117.612999 166.141998 C 117.985001 166.022003 118.359001 165.910004 118.728996 165.783005 L 121.429001 164.854996 L 121.429001 164.764008 C 130.09201 161.214005 137.518005 155.359009 142.917999 148 L 148.929001 148 C 149.175003 148 149.412003 148.104004 149.597 148.294998 L 152 150.766998 L 152 170.154999 C 152 170.477997 151.878998 170.785995 151.667999 171.003998 L 149.597 173.134003 C 149.412003 173.324005 149.175003 173.429001 148.929001 173.429001 L 56.25 173.429001 L 60 152 Z M 52 148 L 56 148 L 56 173.429001 L 52 173.429001 Z M 40 168 L 48 168 L 48 173.429001 L 40 173.429001 Z M 48 164 L 40 164 L 40 156 L 44 156 L 44 152 L 40 152 L 40 148 L 48 148 Z M 23.75 173.429001 L 23.070999 173.429001 C 22.824997 173.429001 22.587997 173.324005 22.403 173.134003 L 20.332993 171.003998 C 20.121002 170.785995 20 170.477997 20 170.154999 L 20 152 L 20 150.766998 L 22.690002 148 L 22.947006 148 L 20 152 Z M 24 148 L 36 148 L 36 173.429001 L 24 173.429001 Z M 248 135.975998 L 248 77.916992 C 248 73.550995 244.645996 70 240.520996 70 L 240 70 L 236 70 L 172 70 L 168 70 L 167.479004 70 C 164.046997 70 161.154999 72.462006 160.278992 75.803009 L 156.992996 72.550995 C 155.755997 71.326996 154.11499 70.652008 152.375 70.651001 L 104.039001 70.622009 C 103.362 70.595001 102.684006 70.570999 102 70.570999 C 101.348999 70.570999 100.703003 70.595001 100.057999 70.619995 L 20.783005 70.571991 L 20.779999 70.571991 L 20.779007 70.571991 C 19.022995 70.571991 17.373993 71.255005 16.132004 72.497009 L 10.677994 77.951004 C 8.951004 79.678009 8 81.973999 8 84.416 L 8 144 L 8 149.143005 L 8 172.285995 C 8 173.347 8.421005 174.363998 9.171005 175.113998 L 15.378998 181.321991 C 17.106003 183.048996 19.401993 184 21.845001 184 L 151.031998 184 C 153.645996 184 156.104004 182.981995 157.950989 181.134003 L 162.713989 176.371002 L 169.171997 182.828003 C 169.921997 183.578003 170.938995 184 172 184 L 202.261002 184 L 209.218002 184 C 219.492996 184 228.839005 179.018997 235.781998 170.916 C 236.065994 170.716995 236.337997 170.494995 236.587997 170.244995 L 242.244995 164.587997 C 243.376999 163.455994 244 161.949997 244 160.346008 C 244 159.587006 243.856003 158.852997 243.589996 158.166992 C 246.268997 151.824997 247.845001 144.662003 247.979004 137.061996 C 247.985001 136.929993 248 136.796997 248 136.666992 L 248 136.138 C 248.001999 136.09201 248.003006 136.04599 248.003006 136 C 248.003006 135.990997 248 135.983002 248 135.975998"/>
    <path id="path5" fill="#ffffff" stroke="none" d="M 218 140 C 216.895996 140 216 140.895996 216 142 C 216 143.104004 216.895996 144 218 144 C 219.104004 144 220 143.104004 220 142 C 220 140.895996 219.104004 140 218 140"/>
    <path id="path6" fill="#ffffff" stroke="none" d="M 214 144 C 212.895996 144 212 144.895996 212 146 C 212 147.104004 212.895996 148 214 148 C 215.104004 148 216 147.104004 216 146 C 216 144.895996 215.104004 144 214 144"/>
    <path id="path7" fill="#ffffff" stroke="none" d="M 222 136 C 220.895996 136 220 136.895996 220 138 C 220 139.104004 220.895996 140 222 140 C 223.104004 140 224 139.104004 224 138 C 224 136.895996 223.104004 136 222 136"/>
    <path id="path8" fill="#ffffff" stroke="none" d="M 226 132 C 224.895996 132 224 132.895996 224 134 C 224 135.104004 224.895996 136 226 136 C 227.104004 136 228 135.104004 228 134 C 228 132.895996 227.104004 132 226 132"/>
    <path id="path9" fill="#ffffff" stroke="none" d="M 180 76 L 176 76 L 176 72 L 180 72 Z"/>
    <path id="path10" fill="#ffffff" stroke="none" d="M 188 76 L 184 76 L 184 72 L 188 72 Z"/>
    <path id="path11" fill="#ffffff" stroke="none" d="M 196 76 L 192 76 L 192 72 L 196 72 Z"/>
    <path id="path12" fill="#ffffff" stroke="none" d="M 204 76 L 200 76 L 200 72 L 204 72 Z"/>
    <path id="path13" fill="#ffffff" stroke="none" d="M 212 76 L 208 76 L 208 72 L 212 72 Z"/>
    <path id="path14" fill="#ffffff" stroke="none" d="M 220 76 L 216 76 L 216 72 L 220 72 Z"/>
    <path id="path15" fill="#ffffff" stroke="none" d="M 228 76 L 224 76 L 224 72 L 228 72 Z"/>
</svg>
