<?xml version="1.0" encoding="UTF-8"?>
<!-- Generated by Pixelmator Pro 3.7.1 -->
<svg width="256" height="256" viewBox="0 0 256 256" xmlns="http://www.w3.org/2000/svg">
    <path id="Path" fill="#ffffff" stroke="none" d="M 132 112 L 224 112 L 224 144 L 132 144 Z M 224 152 L 184 152 L 184 148 L 224 148 Z M 132 148 L 172 148 L 172 152 L 132 152 Z M 132 108 L 128 108 L 128 112 L 128 144 L 128 148 L 128 152 L 128 156 L 132 156 L 224 156 L 228 156 L 228 152 L 228 148 L 228 144 L 228 112 L 228 108 L 224 108 Z"/>
    <path id="path1" fill="#ffffff" stroke="none" d="M 208 136 L 148 136 L 148 120 L 208 120 Z M 148 116 L 144 116 L 144 120 L 144 136 L 144 140 L 148 140 L 208 140 L 212 140 L 212 136 L 212 120 L 212 116 L 208 116 Z"/>
    <path id="path2" fill="#ffffff" stroke="none" d="M 200 130 L 156 130 L 156 126 L 200 126 Z M 204 122 L 152 122 L 152 134 L 204 134 Z"/>
    <path id="path3" fill="#ffffff" stroke="none" d="M 24 100 L 28 100 L 28 84 L 24 84 Z"/>
    <path id="path4" fill="#ffffff" stroke="none" d="M 32 100 L 36 100 L 36 84 L 32 84 Z"/>
    <path id="path5" fill="#ffffff" stroke="none" d="M 40 100 L 44 100 L 44 84 L 40 84 Z"/>
    <path id="path6" fill="#ffffff" stroke="none" d="M 48 100 L 52 100 L 52 84 L 48 84 Z"/>
    <path id="path7" fill="#ffffff" stroke="none" d="M 56 100 L 60 100 L 60 84 L 56 84 Z"/>
    <path id="path8" fill="#ffffff" stroke="none" d="M 64 100 L 68 100 L 68 84 L 64 84 Z"/>
    <path id="path9" fill="#ffffff" stroke="none" d="M 72 100 L 76 100 L 76 84 L 72 84 Z"/>
    <path id="path10" fill="#ffffff" stroke="none" d="M 80 100 L 84 100 L 84 84 L 80 84 Z"/>
    <path id="path11" fill="#ffffff" stroke="none" d="M 88 100 L 92 100 L 92 84 L 88 84 Z"/>
    <path id="path12" fill="#ffffff" stroke="none" d="M 96 100 L 100 100 L 100 84 L 96 84 Z"/>
    <path id="path13" fill="#ffffff" stroke="none" d="M 104 100 L 108 100 L 108 84 L 104 84 Z"/>
    <path id="path14" fill="#ffffff" stroke="none" d="M 112 100 L 116 100 L 116 84 L 112 84 Z"/>
    <path id="path15" fill="#ffffff" stroke="none" d="M 120 100 L 124 100 L 124 84 L 120 84 Z"/>
    <path id="path16" fill="#ffffff" stroke="none" d="M 132 84 L 128 84 L 128 100 L 132 100 Z"/>
    <path id="path17" fill="#ffffff" stroke="none" d="M 140 84 L 136 84 L 136 100 L 140 100 Z"/>
    <path id="path18" fill="#ffffff" stroke="none" d="M 148 84 L 144 84 L 144 100 L 148 100 Z"/>
    <path id="path19" fill="#ffffff" stroke="none" d="M 156 84 L 152 84 L 152 100 L 156 100 Z"/>
    <path id="path20" fill="#ffffff" stroke="none" d="M 164 84 L 160 84 L 160 100 L 164 100 Z"/>
    <path id="path21" fill="#ffffff" stroke="none" d="M 172 84 L 168 84 L 168 100 L 172 100 Z"/>
    <path id="path22" fill="#ffffff" stroke="none" d="M 180 100 L 180 84 L 178 84 L 176 84 L 176 100 L 178 100 Z"/>
    <path id="path23" fill="#ffffff" stroke="none" d="M 188 100 L 188 84 L 186 84 L 184 84 L 184 100 L 186 100 Z"/>
    <path id="path24" fill="#ffffff" stroke="none" d="M 196 100 L 196 84 L 194 84 L 192 84 L 192 100 L 194 100 Z"/>
    <path id="path25" fill="#ffffff" stroke="none" d="M 204 100 L 204 84 L 202 84 L 200 84 L 200 100 L 202 100 Z"/>
    <path id="path26" fill="#ffffff" stroke="none" d="M 212 100 L 212 84 L 210 84 L 208 84 L 208 100 L 210 100 Z"/>
    <path id="path27" fill="#ffffff" stroke="none" d="M 220 100 L 220 84 L 218 84 L 216 84 L 216 100 L 218 100 Z"/>
    <path id="path28" fill="#ffffff" stroke="none" d="M 224 84 L 224 100 L 226 100 L 228 100 L 228 84 L 226 84 Z"/>
    <path id="path29" fill="#ffffff" stroke="none" d="M 244 168 C 244 169.686996 242.938995 171.128998 241.455002 171.714996 L 240 167.350998 L 240 84 C 242.199997 84 244 85.800003 244 88 Z M 16 180 L 17.332993 176 L 20 168 L 236 168 L 238.666992 176 L 240 180 Z M 14.544998 171.714996 C 13.061005 171.128998 12 169.686996 12 168 L 12 88 C 12 85.800003 13.800003 84 16 84 L 16 167.350998 Z M 20 84 L 20 80 L 236 80 L 236 84 L 236 164 L 20 164 Z M 244 81.083008 L 244 80 L 244 76 L 240 76 L 16 76 L 12 76 L 12 80 L 12 81.083008 C 9.613007 82.468002 8 85.046997 8 88 L 8 168 C 8 170.953003 9.613007 173.531006 12 174.917999 L 12 179.350998 L 12 180 L 12 184 L 16 184 L 240 184 L 244 184 L 244 180 L 244 179.350998 L 244 174.917999 C 246.386993 173.531006 248 170.953003 248 168 L 248 88 C 248 85.046997 246.386993 82.468002 244 81.083008"/>
</svg>
