<?xml version="1.0" encoding="UTF-8"?>
<!-- Generated by Pixelmator Pro 3.7.1 -->
<svg width="256" height="256" viewBox="0 0 256 256" xmlns="http://www.w3.org/2000/svg">
    <path id="Path" fill="#ffffff" stroke="none" d="M 58 176 C 54.687 176 52 173.313004 52 170 C 52 166.686996 54.687 164 58 164 C 61.313 164 64 166.686996 64 170 C 64 173.313004 61.313 176 58 176 M 58 160 C 52.486 160 48 164.485992 48 170 C 48 175.514008 52.486 180 58 180 C 63.514 180 68 175.514008 68 170 C 68 164.485992 63.514 160 58 160"/>
    <path id="path1" fill="#ffffff" stroke="none" d="M 34 176 C 30.687 176 28 173.313004 28 170 C 28 166.686996 30.687 164 34 164 C 37.313 164 40 166.686996 40 170 C 40 173.313004 37.313 176 34 176 M 34 160 C 28.486 160 24 164.485992 24 170 C 24 175.514008 28.486 180 34 180 C 39.514 180 44 175.514008 44 170 C 44 164.485992 39.514 160 34 160"/>
    <path id="path2" fill="#ffffff" stroke="none" d="M 222 166 C 222 168.209 220.209 170 218 170 C 215.791 170 214 168.209 214 166 C 214 163.791 215.791 162 218 162 C 220.209 162 222 163.791 222 166 M 232 154 C 232 156.209 230.209 158 228 158 C 225.791 158 224 156.209 224 154 C 224 151.791 225.791 150 228 150 C 230.209 150 232 151.791 232 154 M 230 140 C 230 137.791 231.791 136 234 136 C 236.209 136 238 137.791 238 140 C 238 142.209 236.209 144 234 144 C 231.791 144 230 142.209 230 140 M 244 124 L 244 128 L 243.884003 128 C 243.638 132.341995 242.972 136.569 241.966003 140.666 C 241.983994 140.445007 242 140.225006 242 140 C 242 135.589005 238.410995 132 234 132 C 229.589005 132 226 135.589005 226 140 C 226 142.410995 227.076004 144.570999 228.770004 146.039001 C 228.516006 146.014999 228.259995 146 228 146 C 223.589005 146 220 149.589005 220 154 C 220 155.854004 220.639008 157.557007 221.701004 158.914001 C 220.593002 158.333008 219.335007 158 218 158 C 213.589005 158 210 161.588989 210 166 C 210 170.411011 213.589005 174 218 174 C 222.410995 174 226 170.411011 226 166 C 226 164.145996 225.360992 162.442993 224.298996 161.085999 C 225.406998 161.666992 226.664993 162 228 162 C 232.410995 162 236 158.411011 236 154 C 236 151.588989 234.923996 149.429001 233.229996 147.960999 C 233.483994 147.985001 233.740005 148 234 148 C 237.227005 148 240.005997 146.076004 241.270004 143.319 C 237.261002 157.246002 229.044998 169.408997 218.078003 178.322998 C 217.716003 178.617996 217.281006 178.759003 216.848999 178.759003 C 216.229004 178.759003 215.613998 178.470001 215.222 177.929993 L 213.604004 175.70401 L 213.460999 175.821991 C 202.393005 184.964996 188.378998 190 174 190 C 160.593002 190 147.826996 185.785004 137.084991 177.811996 L 137.042999 177.779999 L 135.613007 179.979004 C 135.229004 180.571991 134.584991 180.890991 133.932007 180.890991 C 133.520996 180.890991 133.104004 180.764999 132.747009 180.501007 C 132.520996 180.334991 132.296997 180.167999 132.072998 180 L 65.985992 180 C 64.162003 182.425003 61.268997 184 58 184 C 54.731003 184 51.837997 182.425003 50.014008 180 L 41.985992 180 C 40.162003 182.425003 37.268997 184 34 184 C 30.731003 184 27.837997 182.425003 26.014008 180 L 16 180 C 13.791 180 12 178.209 12 176 L 12 132 L 16 132 L 40 132 L 44 132 L 112 132 L 114.542999 132 C 116.762001 148.622009 125.806999 163.492996 139.746002 173.222 L 139.972992 173.380005 L 138.277008 176.205002 C 148.257996 183.613007 160.615005 188 174 188 C 188.507996 188 201.813004 182.850998 212.186996 174.279999 L 201.526001 158.290009 C 211.561005 150.218994 218 137.850998 218 124 C 218 115.931 215.807007 108.369003 212 101.860001 L 212 64 L 224 64 C 235.046005 64 244 72.95401 244 84 Z M 12 72 C 12 67.582001 15.582001 64 20 64 L 132 64 L 136 64 L 136 101.860001 C 132.192993 108.369003 130 115.931 130 124 C 130 138.639999 137.192993 151.623993 148.223999 159.626999 L 146.166 163.057007 C 133.536011 154.026001 126 139.453003 126 124 C 126 121.535004 126.191002 119.048996 126.569 116.613007 L 127.285004 112 L 122.616997 112 L 120 112 L 118.581001 112 L 116 112 L 112 112 L 44 112 L 40 112 L 16 112 L 12 112 Z M 134 124 C 134 101.908997 151.90799 84 174 84 C 196.091995 84 214 101.908997 214 124 C 214 146.091995 196.091995 164 174 164 C 151.90799 164 134 146.091995 134 124 M 169.889999 167.802002 C 170.352997 167.845001 170.817993 167.878998 171.285004 167.90799 C 170.817993 167.878998 170.352997 167.845001 169.889999 167.802002 M 167.811996 167.557007 C 168.255005 167.619003 168.697998 167.677002 169.145004 167.72699 C 168.697998 167.677002 168.255005 167.619003 167.811996 167.557007 M 165.321991 167.136993 C 165.914001 167.255997 166.509995 167.360992 167.110001 167.457001 C 166.509995 167.360992 165.914001 167.255997 165.321991 167.136993 M 163.328995 166.684998 C 163.740997 166.787994 164.156006 166.880997 164.570999 166.972992 C 164.156006 166.880997 163.740997 166.787994 163.328995 166.684998 M 161.475006 166.174011 C 161.781006 166.264999 162.089996 166.35199 162.399002 166.436996 C 162.089996 166.35199 161.781006 166.264999 161.475006 166.174011 M 159.701004 165.60199 C 159.957001 165.690002 160.212997 165.778992 160.471008 165.863007 C 160.212997 165.778992 159.957001 165.690002 159.701004 165.60199 M 158.569 165.199997 L 158.613007 165.218002 Z M 155.408997 163.865997 C 155.520996 163.919006 155.634003 163.968002 155.744995 164.018997 C 155.634003 163.968002 155.520996 163.919006 155.408997 163.865997 M 153.790009 163.063004 C 153.910004 163.126999 154.031006 163.188004 154.152008 163.25 C 154.031006 163.188004 153.910004 163.126999 153.790009 163.063004 M 152.363007 162.290009 C 152.412994 162.317001 152.460999 162.347 152.511002 162.375 C 152.460999 162.347 152.412994 162.317001 152.363007 162.290009 M 195.432007 162.406998 C 195.522995 162.356003 195.612 162.303009 195.703003 162.251007 C 195.612 162.303009 195.522995 162.356003 195.432007 162.406998 M 193.690994 163.330002 C 193.846008 163.251999 193.998993 163.173004 194.152008 163.093994 C 193.998993 163.173004 193.846008 163.251999 193.690994 163.330002 M 191.903 164.178009 C 192.091995 164.093994 192.278992 164.01001 192.466995 163.923004 C 192.278992 164.01001 192.091995 164.093994 191.903 164.178009 M 190.080994 164.942993 C 190.287994 164.862 190.494995 164.78299 190.699997 164.699005 C 190.494995 164.78299 190.287994 164.860992 190.080994 164.942993 M 188.283997 165.606003 C 188.479996 165.539001 188.679993 165.47699 188.875 165.406006 C 188.679993 165.47699 188.479996 165.539001 188.283997 165.606003 M 185.194 166.553009 C 185.527008 166.464996 185.854996 166.36499 186.184998 166.270996 C 185.854996 166.36499 185.527008 166.464996 185.194 166.553009 M 183.19101 167.027008 C 183.550995 166.949997 183.906998 166.863998 184.264008 166.778992 C 183.906998 166.863998 183.550995 166.949997 183.19101 167.027008 M 181.141998 167.411011 C 181.522003 167.348999 181.902008 167.279999 182.278992 167.208008 C 181.902008 167.279999 181.522995 167.348999 181.141998 167.411011 M 179.033005 167.703003 C 179.442993 167.656006 179.850998 167.605011 180.257004 167.548004 C 179.850998 167.605011 179.442993 167.656006 179.033005 167.703003 M 176.811996 167.899994 C 177.276001 167.871002 177.740005 167.838989 178.199997 167.794998 C 177.740005 167.838989 177.276001 167.871002 176.811996 167.899994 M 174 168 C 173.309998 168 172.623001 167.979004 171.940002 167.946991 C 172.623993 167.979004 173.309998 168 174 168 C 174.709 168 175.412994 167.979004 176.113998 167.945999 C 175.412994 167.979004 174.709 168 174 168 M 144.679001 173.309998 L 145.464996 172 L 147.528 168.561996 L 149.419998 165.40799 L 149.507996 165.261002 C 156.911011 169.682007 165.296005 172 174 172 C 183.419998 172 192.684998 169.177002 200.514008 163.981003 L 206.791 173.397003 C 197.294006 180.257004 185.781998 184 174 184 C 163.104004 184 152.678009 180.919006 143.632004 175.056 Z M 116 116 L 118.581001 116 L 120 116 L 122.616997 116 C 122.211998 118.608002 122 121.279999 122 124 C 122 141.548004 130.746002 157.082001 144.097992 166.502991 L 142.035004 169.94101 C 128.549011 160.529999 119.386002 145.347 118.153999 128 L 116 128 Z M 104 124 L 112 124 L 112 128 L 104 128 Z M 56 124 L 100 124 L 100 128 L 56 128 Z M 44 124 L 52 124 L 52 128 L 44 128 Z M 40 128 L 16 128 L 16 116 L 40 116 Z M 52 120 L 44 120 L 44 116 L 52 116 Z M 100 120 L 56 120 L 56 116 L 100 116 Z M 104 116 L 112 116 L 112 120 L 104 120 Z M 208 64 L 208 96.104004 C 199.923996 86.278 187.682007 80 174 80 C 160.317993 80 148.075989 86.278 140 96.104004 L 140 64 Z M 224 60 L 136 60 L 132 60 L 20 60 C 13.382996 60 8 65.382996 8 72 L 8 112 L 8 116 L 12 116 L 12 128 L 8 128 L 8 132 L 8 176 C 8 180.411011 11.589005 184 16 184 L 24.212006 184 C 26.813004 186.563004 30.281006 188 34 188 C 37.718994 188 41.188004 186.563004 43.787994 184 L 48.212006 184 C 50.813004 186.563004 54.281006 188 58 188 C 61.718994 188 65.188004 186.563004 67.787994 184 L 130.787003 184 C 131.731003 184.584 132.809998 184.890991 133.932007 184.890991 C 135.459 184.890991 136.895996 184.319 137.988998 183.315002 C 148.705002 190.317993 161.070999 194 174 194 C 188 194 201.677994 189.514999 212.925995 181.300995 C 214.007004 182.229004 215.399002 182.759003 216.848999 182.759003 C 218.212997 182.759003 219.544998 182.285995 220.602005 181.428009 C 235.777008 169.09201 245.468994 151.244003 247.565002 132 L 248 132 L 248 128 L 248 84 C 248 70.766998 237.233002 60 224 60"/>
    <path id="path3" fill="#ffffff" stroke="none" d="M 236 128 C 233.791 128 232 126.209 232 124 C 232 121.791 233.791 120 236 120 C 238.209 120 240 121.791 240 124 C 240 126.209 238.209 128 236 128 M 236 116 C 231.589005 116 228 119.589005 228 124 C 228 128.411011 231.589005 132 236 132 C 240.410995 132 244 128.411011 244 124 C 244 119.589005 240.410995 116 236 116"/>
    <path id="path4" fill="#ffffff" stroke="none" d="M 152 175.46579 C 158.179993 178.114807 164.921005 179.698792 172 179.948792 L 172 175.948792 C 164.871002 175.67981 158.113998 173.966797 152 171.107803 Z"/>
    <path id="path5" fill="#ffffff" stroke="none" d="M 196 171.107391 C 189.886002 173.9664 183.128998 175.679398 176 175.949402 L 176 179.949402 C 183.078995 179.699402 189.820007 178.115402 196 175.465393 Z"/>
</svg>
