<?xml version="1.0" encoding="UTF-8"?>
<!-- Generated by Pixelmator Pro 3.7.1 -->
<svg width="256" height="256" viewBox="0 0 256 256" xmlns="http://www.w3.org/2000/svg">
    <path id="Path" fill="#ffffff" stroke="none" d="M 176 92 L 184 92 L 184 96 L 176 96 Z M 72 92 L 80 92 L 80 96 L 72 96 Z M 72 84 L 80 84 L 80 88 L 72 88 Z M 172 96 L 84 96 L 84 92 L 172 92 Z M 172 88 L 84 88 L 84 84 L 172 84 Z M 184 88 L 176 88 L 176 84 L 184 84 Z M 188 92 L 188 88 L 188 80 L 68 80 L 68 88 L 68 92 L 68 100 L 188 100 Z"/>
    <path id="path1" fill="#ffffff" stroke="none" d="M 186.551804 204 L 165.4478 204 C 164.762802 204 163.999802 203.179001 163.999802 202 C 163.999802 200.820999 164.762802 200 165.4478 200 L 186.551804 200 C 187.236801 200 187.999802 200.820999 187.999802 202 C 187.999802 203.179001 187.236801 204 186.551804 204 M 186.551804 196 L 165.4478 196 C 162.444794 196 159.999802 198.69101 159.999802 202 C 159.999802 205.30899 162.444794 208 165.4478 208 L 186.551804 208 C 189.555801 208 191.999802 205.30899 191.999802 202 C 191.999802 198.69101 189.555801 196 186.551804 196"/>
    <path id="path2" fill="#ffffff" stroke="none" d="M 128 32 C 183.139999 32 228 58.018997 228 90 C 228 121.981003 183.139999 148 128 148 C 72.860001 148 28 121.981003 28 90 C 28 58.018997 72.860001 32 128 32 M 244 217.278 C 244 218.445999 243.574005 219.513 242.873001 220.335007 L 242.873001 220.335999 C 242.774002 220.451004 242.669998 220.561996 242.561005 220.667007 L 225.56601 238.740005 C 225.505005 238.806 225.429993 238.854004 225.36499 238.914001 L 228.31601 197.604004 C 228.777008 191.145996 227.973999 184.759003 225.925995 178.617004 L 223.552002 171.496002 C 221.803009 166.248001 218.306 161.667999 213.703003 158.600998 C 210.178009 156.25 206.072998 155.007004 201.811996 155.007004 L 191.100006 155.018997 C 188.966003 155.020996 186.809998 155.165009 184.690002 155.446991 L 132.089996 162.447006 C 129.393997 162.807007 126.609001 162.807007 123.910004 162.447006 L 71.311005 155.446991 C 69.190002 155.165009 67.033997 155.020996 64.900002 155.018997 L 54.165001 155.007004 C 49.926003 155.007004 45.821999 156.25 42.296997 158.600998 C 37.694 161.669006 34.195999 166.248001 32.446999 171.496002 L 30.072998 178.617004 C 28.026001 184.757996 27.222 191.145996 27.682999 197.604004 L 30.612999 238.623001 L 13.481003 220.705002 C 13.357002 220.587997 13.237999 220.466003 13.126999 220.335007 L 13.126999 220.335007 C 12.426003 219.513 12 218.445999 12 217.278 L 12 217.091995 L 12 217.091003 L 12 30.306 L 12 28 C 12 20.210999 16.261002 16 24 16 L 32 16 L 32 24 C 32 28.410995 35.588997 32 40 32 L 91.070999 32 C 77.850998 34.970001 65.686996 39.531006 55.315002 45.546997 C 35.122002 57.259003 24 73.046005 24 90 C 24 106.95401 35.122002 122.740997 55.315002 134.453003 C 74.824997 145.768997 100.638 152 128 152 C 155.362 152 181.175003 145.768997 200.684998 134.453003 C 220.878998 122.740997 232 106.95401 232 90 C 232 73.046005 220.878998 57.259003 200.684998 45.546997 C 190.313004 39.531006 178.147995 34.970001 164.929001 32 L 216 32 C 220.411011 32 224 28.410995 224 24 L 224 16 L 232 16 C 239.738998 16 244 20.210999 244 28 Z M 96.472 162.830994 L 123.383003 166.412003 C 126.431 166.819 129.572998 166.819 132.617004 166.412003 L 159.528 162.830994 L 156.557007 180.656998 C 156.235001 182.585999 154.565994 184 152.610992 184 L 103.389 184 C 101.432999 184 99.764999 182.585999 99.443001 180.656998 Z M 224.326996 197.317993 L 221.277008 240 L 34.722 240 L 31.672997 197.317993 C 31.25 191.388 31.987999 185.520996 33.867996 179.882996 L 36.241997 172.761002 C 37.710999 168.354004 40.649002 164.507004 44.515999 161.929001 C 47.382004 160.018005 50.725998 159.007004 54.184998 159.007004 L 64.895996 159.018997 C 66.854996 159.020996 68.834999 159.153 70.781998 159.412003 L 92.324997 162.279007 L 95.498001 181.315002 C 96.142998 185.188004 99.461998 188 103.389 188 L 152.610992 188 C 156.537994 188 159.856995 185.188004 160.502991 181.315002 L 163.675995 162.279007 L 185.216995 159.412003 C 187.164001 159.153 189.145996 159.020996 191.104004 159.018997 L 201.834991 159.007004 C 204.638 159.007004 207.30899 159.623993 209.559998 160.792007 C 214.330002 163.266998 218.048004 167.628998 219.759003 172.761002 L 222.132004 179.882996 C 224.011993 185.522003 224.75 191.389008 224.326996 197.317993 M 36 16 L 42 16 L 42 22 C 42 23.104004 42.896004 24 44 24 L 46 24 L 46 16 L 50 16 L 50 24 L 54 24 L 54 16 L 58 16 L 58 24 L 62 24 L 62 16 L 66 16 L 66 24 L 70 24 L 70 16 L 74 16 L 74 24 L 78 24 L 78 16 L 82 16 L 82 24 L 86 24 L 86 16 L 90 16 L 90 24 L 94 24 L 94 16 L 98 16 L 98 24 L 102 24 L 102 16 L 106 16 L 106 24 L 110 24 L 110 16 L 114 16 L 114 24 L 118 24 L 118 16 L 122 16 L 122 24 L 126 24 L 126 16 L 130 16 L 130 24 L 134 24 L 134 16 L 138 16 L 138 24 L 142 24 L 142 16 L 146 16 L 146 24 L 150 24 L 150 16 L 154 16 L 154 24 L 158 24 L 158 16 L 162 16 L 162 24 L 166 24 L 166 16 L 170 16 L 170 24 L 174 24 L 174 16 L 178 16 L 178 24 L 182 24 L 182 16 L 186 16 L 186 24 L 190 24 L 190 16 L 194 16 L 194 24 L 198 24 L 198 16 L 202 16 L 202 24 L 206 24 L 206 16 L 210 16 L 210 24 L 212 24 C 213.104004 24 214 23.104004 214 22 L 214 16 L 220 16 L 220 24 C 220 26.209 218.209 28 216 28 L 40 28 C 37.791 28 36 26.209 36 24 Z M 232 12 L 224 12 L 220 12 L 214 12 L 210 12 L 206 12 L 202 12 L 198 12 L 194 12 L 190 12 L 186 12 L 182 12 L 178 12 L 174 12 L 170 12 L 166 12 L 162 12 L 158 12 L 154 12 L 150 12 L 146 12 L 142 12 L 138 12 L 134 12 L 130 12 L 126 12 L 122 12 L 118 12 L 114 12 L 110 12 L 106 12 L 102 12 L 98 12 L 94 12 L 90 12 L 86 12 L 82 12 L 78 12 L 74 12 L 70 12 L 66 12 L 62 12 L 58 12 L 54 12 L 50 12 L 46 12 L 42 12 L 36 12 L 32 12 L 24 12 C 13.981003 12 8 17.981003 8 28 L 8 30.306 L 8 217.091003 L 8 217.281006 C 8 219.348007 8.739998 221.354004 10.083 222.931 C 10.258003 223.136002 10.448997 223.337997 10.652 223.533997 L 27.858002 241.528 C 29.359001 243.100006 31.467003 244 33.639999 244 L 222.182007 244 L 222.652008 244 C 224.850006 244 226.973999 243.082001 228.479004 241.479996 L 245.419998 223.466003 C 245.593002 223.294998 245.759003 223.115005 245.916 222.932007 C 247.26001 221.354004 248 219.347 248 217.278 L 248 28 C 248 17.981003 242.018997 12 232 12"/>
    <path id="path3" fill="#ffffff" stroke="none" d="M 186.3125 212.079102 L 70.272499 212.079102 C 64.769501 212.079102 60.292503 207.593109 60.292503 202.079102 C 60.292503 196.564102 64.769501 192.079102 70.272499 192.079102 L 186.3125 192.079102 C 191.815506 192.079102 196.292496 196.564102 196.292496 202.079102 C 196.292496 207.593109 191.815506 212.079102 186.3125 212.079102 M 186.3125 188.079102 L 70.272499 188.079102 C 62.563499 188.079102 56.292496 194.3591 56.292496 202.079102 C 56.292496 209.799103 62.563499 216.079102 70.272499 216.079102 L 186.3125 216.079102 C 194.0215 216.079102 200.292496 209.799103 200.292496 202.079102 C 200.292496 194.3591 194.0215 188.079102 186.3125 188.079102"/>
    <path id="path4" fill="#ffffff" stroke="none" d="M 90.5522 204 L 69.448196 204 C 68.763199 204 68.000198 203.179001 68.000198 202 C 68.000198 200.820999 68.763199 200 69.448196 200 L 90.5522 200 C 91.237198 200 92.000198 200.820999 92.000198 202 C 92.000198 203.179001 91.237198 204 90.5522 204 M 90.5522 196 L 69.448196 196 C 66.444199 196 64.000198 198.69101 64.000198 202 C 64.000198 205.30899 66.444199 208 69.448196 208 L 90.5522 208 C 93.556198 208 96.000198 205.30899 96.000198 202 C 96.000198 198.69101 93.556198 196 90.5522 196"/>
    <path id="path5" fill="#ffffff" stroke="none" d="M 132 208 L 136 208 L 136 200 L 132 200 Z"/>
    <path id="path6" fill="#ffffff" stroke="none" d="M 126 208 L 130 208 L 130 200 L 126 200 Z"/>
    <path id="path7" fill="#ffffff" stroke="none" d="M 120 208 L 124 208 L 124 200 L 120 200 Z"/>
    <path id="path8" fill="#ffffff" stroke="none" d="M 128 44 C 176.522995 44 216 64.636002 216 90 C 216 115.363998 176.522995 136 128 136 C 79.477005 136 40 115.363998 40 90 C 40 64.636002 79.477005 44 128 44 M 63.950996 126.057007 C 81.152 135.048004 103.898003 140 128 140 C 152.102005 140 174.847992 135.048004 192.049011 126.057007 C 210.072998 116.63501 220 103.830002 220 90 C 220 76.169998 210.072998 63.365005 192.049011 53.942993 C 174.847992 44.951996 152.102005 40 128 40 C 103.898003 40 81.152 44.951996 63.950996 53.942993 C 45.926003 63.365005 36 76.169998 36 90 C 36 103.830002 45.926003 116.63501 63.950996 126.057007"/>
    <path id="path9" fill="#ffffff" stroke="none" d="M 60 84.791504 C 60 79.956497 63.956001 75.999496 68.792 75.999496 L 187.209 75.999496 C 192.044006 75.999496 196 79.956497 196 84.791504 L 196 95.208496 C 196 100.043503 192.044006 103.999496 187.209 103.999496 L 68.792 103.999496 C 63.956001 103.999496 60 100.043503 60 95.208496 Z M 136 115.999496 L 120 115.999496 L 128 107.999496 Z M 68.792 107.999496 L 122.343002 107.999496 L 117.171005 113.171494 L 110.343002 119.999496 L 120 119.999496 L 136 119.999496 L 145.656998 119.999496 L 138.828003 113.171494 L 133.656998 107.999496 L 187.209 107.999496 C 194.261993 107.999496 200 102.261505 200 95.208496 L 200 84.791504 C 200 77.738495 194.261993 71.999496 187.209 71.999496 L 68.792 71.999496 C 61.737999 71.999496 56 77.738495 56 84.791504 L 56 95.208496 C 56 102.261505 61.737999 107.999496 68.792 107.999496"/>
</svg>
