<?xml version="1.0" encoding="UTF-8"?>
<!-- Generated by Pixelmator Pro 3.7.1 -->
<svg width="256" height="256" viewBox="0 0 256 256" xmlns="http://www.w3.org/2000/svg">
    <path id="Path" fill="#ffffff" stroke="none" d="M 174 180.148407 L 170 180.148407 C 168.899994 180.148407 168 181.047394 168 182.148407 C 168 183.248398 168.899994 184.148407 170 184.148407 L 174 184.148407 C 175.100006 184.148407 176 183.248398 176 182.148407 C 176 181.047394 175.100006 180.148407 174 180.148407"/>
    <path id="path1" fill="#ffffff" stroke="none" d="M 210 144 C 208.895996 144 208 144.895996 208 146 C 208 147.104004 208.895996 148 210 148 C 211.104004 148 212 147.104004 212 146 C 212 144.895996 211.104004 144 210 144"/>
    <path id="path2" fill="#ffffff" stroke="none" d="M 214 140 C 212.895996 140 212 140.895996 212 142 C 212 143.104004 212.895996 144 214 144 C 215.104004 144 216 143.104004 216 142 C 216 140.895996 215.104004 140 214 140"/>
    <path id="path3" fill="#ffffff" stroke="none" d="M 218 136 C 216.895996 136 216 136.895996 216 138 C 216 139.104004 216.895996 140 218 140 C 219.104004 140 220 139.104004 220 138 C 220 136.895996 219.104004 136 218 136"/>
    <path id="path4" fill="#ffffff" stroke="none" d="M 222 132 C 220.895996 132 220 132.895996 220 134 C 220 135.104004 220.895996 136 222 136 C 223.104004 136 224 135.104004 224 134 C 224 132.895996 223.104004 132 222 132"/>
    <path id="path5" fill="#ffffff" stroke="none" d="M 44.598099 91.252396 C 53.545101 86.575394 65.509102 84.000397 78.286102 84.000397 C 91.062103 84.000397 103.0261 86.575394 111.973099 91.252396 C 119.979095 95.437393 124.571098 100.917404 124.571098 106.2854 C 124.571098 111.654404 119.979095 117.133408 111.973099 121.318405 C 103.0261 125.995407 91.062103 128.571411 78.286102 128.571411 C 65.509102 128.571411 53.545101 125.995407 44.598099 121.318405 C 36.592102 117.133408 32.000099 111.654404 32.000099 106.2854 C 32.000099 100.917404 36.592102 95.437393 44.598099 91.252396 M 78.286102 132.571411 C 106.0131 132.571411 128.571106 120.779404 128.571106 106.2854 C 128.571106 91.792404 106.0131 80.000397 78.286102 80.000397 C 50.558102 80.000397 28.000101 91.792404 28.000101 106.2854 C 28.000101 120.779404 50.558102 132.571411 78.286102 132.571411"/>
    <path id="path6" fill="#ffffff" stroke="none" d="M 111.743698 173.713898 L 99.6847 173.713898 C 97.967697 173.713898 96.571701 172.175903 96.571701 170.284897 C 96.571701 168.395905 97.967697 166.85791 99.6847 166.85791 L 111.743698 166.85791 C 113.460701 166.85791 114.856697 168.395905 114.856697 170.284897 C 114.856697 172.175903 113.460701 173.713898 111.743698 173.713898 M 61.371696 176.044891 C 62.973698 174.6819 63.999699 172.60791 63.999699 170.284897 C 63.999699 168.013901 63.015697 165.980896 61.472698 164.615906 L 95.097702 164.615906 C 93.555702 165.980896 92.571701 168.013901 92.571701 170.284897 C 92.571701 172.60791 93.597702 174.6819 95.200699 176.044891 Z M 56.8867 173.713898 L 44.827698 173.713898 C 43.110695 173.713898 41.714699 172.175903 41.714699 170.284897 C 41.714699 168.395905 43.110695 166.85791 44.827698 166.85791 L 56.8867 166.85791 C 58.603699 166.85791 59.999699 168.395905 59.999699 170.284897 C 59.999699 172.175903 58.603699 173.713898 56.8867 173.713898 M 111.607697 160.615906 L 45.298698 160.615906 C 39.9487 160.615906 35.595695 164.974899 35.595695 170.330902 C 35.595695 175.687897 39.9487 180.044891 45.298698 180.044891 L 111.607697 180.044891 C 116.957703 180.044891 121.3097 175.687897 121.3097 170.330902 C 121.3097 164.974899 116.957703 160.615906 111.607697 160.615906"/>
    <path id="path7" fill="#ffffff" stroke="none" d="M 73.713997 173.713989 L 76 173.713989 L 76 169.143005 L 73.713997 169.143005 Z"/>
    <path id="path8" fill="#ffffff" stroke="none" d="M 80.570999 173.713989 L 82.857002 173.713989 L 82.857002 169.143005 L 80.570999 169.143005 Z"/>
    <path id="path9" fill="#ffffff" stroke="none" d="M 77.142998 173.713989 L 79.429001 173.713989 L 79.429001 169.143005 L 77.142998 169.143005 Z"/>
    <path id="path10" fill="#ffffff" stroke="none" d="M 73.714401 121.142593 L 82.857399 121.142593 L 78.2854 116.571594 Z"/>
    <path id="path11" fill="#ffffff" stroke="none" d="M 244 136 L 244 138.177002 C 244 138.595001 243.934998 138.992004 243.841003 139.376999 C 243.115005 147.393997 239.934006 154.60199 235.149994 160.071991 C 234.218002 160.354996 233.363998 160.863998 232.656006 161.571991 L 228.104996 166.128998 C 223.557007 168.992996 218.298004 170.628998 212.695007 170.628998 C 211.992996 170.628998 167.199997 175.265991 167.199997 175.265991 L 148 180 L 148 179.015991 L 148 138.177002 L 148 133.541 L 148 70.856995 L 148 68.636002 C 148 66.075989 149.869003 64 152.174011 64 L 156 64 L 156 68 C 156 69.675995 156.520996 71.231995 157.404999 72.518997 C 154.235001 73.834 152 76.955994 152 80.593002 L 152 156.444 C 152 161.264008 155.925003 165.186005 160.75 165.186005 L 213 165.186005 C 225.682999 165.186005 236 154.884003 236 142.222992 L 236 80.593002 C 236 78.033005 234.886993 75.735001 233.126007 74.134995 C 234.880997 72.666 236 70.462006 236 68 L 236 64 L 239.826004 64 C 242.130997 64 244 66.075989 244 68.636002 Z M 240.445007 160.979996 C 240.272003 160.852997 240.093002 160.734009 239.908005 160.626999 C 240.337006 160.05899 240.751999 159.475998 241.149994 158.880005 C 240.929001 159.587997 240.690994 160.287003 240.445007 160.979996 M 238.835007 167.751999 L 236.005005 170.584991 L 231.619003 174.977005 C 231.326996 175.268997 230.966003 175.451004 230.587997 175.522995 C 230.460999 175.548004 230.333008 175.561005 230.205002 175.561005 C 229.692001 175.561005 229.179993 175.365005 228.791 174.977005 L 228.270996 174.455994 C 227.492996 173.677002 227.492996 172.402008 228.270996 171.623993 L 230.537003 169.354004 L 230.537994 169.354004 L 235.485992 164.399002 C 236.098999 163.785995 237.014999 163.662994 237.757996 164.015991 C 237.779999 164.024994 237.802002 164.039001 237.824005 164.050003 C 238 164.141998 238.167999 164.251999 238.315002 164.399002 L 238.835007 164.919998 C 239.612 165.697998 239.612 166.972992 238.835007 167.751999 M 202.261002 192 L 193.912994 192 L 156 192 L 148.096008 184.096008 L 148.958008 183.884003 L 167.889008 179.216003 C 185.065002 177.438004 210.729996 174.798996 212.828995 174.628998 C 216.630005 174.613007 220.287994 173.934998 223.721008 172.705002 C 223.628998 174.352005 224.188004 176.027008 225.440994 177.281998 L 225.960999 177.803009 C 226.897995 178.740997 228.095001 179.324005 229.389999 179.498993 C 222.096008 187.287994 212.623001 192 202.261002 192 M 156 92 L 156 80.593002 C 156 77.975006 158.126999 75.852005 160.75 75.852005 L 162.485992 75.852005 C 162.97699 75.945999 163.481995 76 164 76 L 228 76 C 228.108002 76 228.214005 75.988007 228.322006 75.984009 C 230.427002 76.470001 232 78.343994 232 80.593002 L 232 92 Z M 228.727005 135.619003 C 227.511002 139.623001 224.774002 143.89801 221.020004 147.656998 C 215.949997 152.733002 209.714996 156.014008 205.134003 156.014008 C 203.440002 156.014008 202.136993 155.567993 201.259995 154.688995 C 197.507004 150.932007 201.949005 141.246002 208.283005 134.903992 C 213.352997 129.828003 219.589005 126.548004 224.169006 126.548004 C 225.862 126.548004 227.166 126.994003 228.042999 127.871994 C 229.522003 129.352997 229.770996 132.177002 228.727005 135.619003 M 224.169006 122.548004 C 218.494995 122.548004 211.322998 126.199997 205.453003 132.078003 C 198.720001 138.819 192.089996 151.167999 198.429993 157.516998 C 199.567001 158.654999 201.653992 160.014008 205.134003 160.014008 C 210.807999 160.014008 217.979004 156.362 223.850998 150.483002 C 227.576996 146.751999 230.421997 142.51001 232 138.378998 L 232 142.222992 C 232 152.695007 223.492996 161.186005 213 161.186005 L 160.75 161.186005 C 158.126999 161.186005 156 159.061996 156 156.444 L 156 96 L 232 96 L 232 126.516998 C 231.675003 125.988007 231.313995 125.485992 230.873001 125.044998 C 229.735992 123.906006 227.649002 122.548004 224.169006 122.548004 M 160 64 L 164.692993 64 L 164.692993 68.740997 L 167.061996 68.740997 L 167.061996 64 L 169.429001 64 L 169.429001 68.740997 L 171.79599 68.740997 L 171.79599 64 L 174.162994 64 L 174.162994 68.740997 L 176.529999 68.740997 L 176.529999 64 L 178.89801 64 L 178.89801 68.740997 L 181.265991 68.740997 L 181.265991 64 L 183.632996 64 L 183.632996 68.740997 L 186 68.740997 L 186 64 L 188.367004 64 L 188.367004 68.740997 L 190.734009 68.740997 L 190.734009 64 L 193.102005 64 L 193.102005 68.740997 L 195.470001 68.740997 L 195.470001 64 L 197.837006 64 L 197.837006 68.740997 L 200.203995 68.740997 L 200.203995 64 L 202.570999 64 L 202.570999 68.740997 L 204.938004 68.740997 L 204.938004 64 L 207.307007 64 L 207.307007 68.740997 L 209.673996 68.740997 L 209.673996 64 L 212.041 64 L 212.041 68.740997 L 214.408005 68.740997 L 214.408005 64 L 216.774994 64 L 216.774994 68.740997 L 219.143005 68.740997 L 219.143005 64 L 221.509995 64 L 221.509995 68.740997 L 223.878006 68.740997 L 223.878006 64 L 226.244995 64 L 226.244995 68.740997 L 228.612 68.740997 L 228.612 64 L 232 64 L 232 68 C 232 70.041 230.466995 71.705994 228.492004 71.949997 C 228.085007 71.891998 227.673004 71.85199 227.25 71.85199 L 213 71.85199 L 203.5 71.85199 L 162.979004 71.85199 C 161.268005 71.39801 160 69.854004 160 68 Z M 78.285995 77.143005 C 107.091995 77.143005 131.429001 90.488998 131.429001 106.285995 C 131.429001 122.083008 107.091995 135.429001 78.285995 135.429001 C 49.479004 135.429001 25.143005 122.083008 25.143005 106.285995 C 25.143005 90.488998 49.479004 77.143005 78.285995 77.143005 M 144 133.541 L 144 138.177002 L 144 179.015991 C 144 179.68399 143.757996 180.292999 143.358002 180.763 C 143.303009 180.828995 143.242996 180.893005 143.181 180.953003 L 134.429993 190.300003 L 136.036011 167.804001 C 136.304001 164.057007 135.837997 160.350998 134.649002 156.787994 L 133.292999 152.718994 C 132.264999 149.630997 130.205994 146.936005 127.497002 145.128998 C 125.411003 143.738007 122.984001 143.003998 120.462997 143.003998 L 114.341995 143.011002 C 113.104004 143.011993 111.852997 143.095001 110.623993 143.259003 L 80.565002 147.259003 C 79.069 147.459991 77.503006 147.459991 76.005005 147.259003 L 45.947998 143.259003 C 44.718002 143.095001 43.466995 143.011993 42.229004 143.011002 L 36.093994 143.003998 C 33.587006 143.003998 31.160004 143.738007 29.074997 145.128998 C 26.365997 146.936005 24.307007 149.630997 23.276993 152.718994 L 21.921005 156.787994 C 20.733002 160.35199 20.266998 164.057999 20.533997 167.804001 L 22.175003 190.777008 L 12.843002 180.975006 C 12.772003 180.906998 12.705002 180.837997 12.641998 180.763 C 12.242996 180.292999 12 179.68399 12 179.015991 L 12 178.910004 L 12 178.908997 L 12 72.175003 L 12 70.856995 C 12 66.406006 14.423996 64 18.828003 64 L 20.285995 64 L 20.285995 68 C 20.285995 72.410995 23.875 76 28.285995 76 L 55.117996 76 C 35.123993 81.166 21.143005 92.792999 21.143005 106.285995 C 21.143005 124.561005 46.776993 139.429001 78.285995 139.429001 C 109.794006 139.429001 135.429001 124.561005 135.429001 106.285995 C 135.429001 92.792999 121.446999 81.166 101.453003 76 L 128.286011 76 C 132.696991 76 136.286011 72.410995 136.286011 68 L 136.286011 64 L 137.171997 64 C 141.575989 64 144 66.406006 144 70.856995 Z M 64.828003 150.919998 L 75.520996 152.257004 C 76.434998 152.371002 77.365005 152.429001 78.285995 152.429001 C 79.205994 152.429001 80.136002 152.371002 81.050003 152.257004 L 91.744003 150.919998 L 90.897003 156 L 65.673996 156 Z M 132.902008 167.580002 L 131.156998 192 L 25.414001 192 L 23.669006 167.580002 C 23.431 164.248001 23.845993 160.951004 24.903 157.783005 L 26.259003 153.712997 C 27.067993 151.283997 28.688004 149.165009 30.817993 147.744003 C 32.386002 146.699005 34.214005 146.145996 36.104996 146.145996 L 42.225998 146.153 C 43.324997 146.153992 44.438004 146.229004 45.533005 146.373993 L 60.343002 148.345001 L 61.966995 158.089996 C 62.151001 159.192001 63.104004 160 64.222 160 L 92.350006 160 C 93.466995 160 94.419998 159.192001 94.604004 158.089996 L 96.227997 148.345001 L 111.037994 146.373993 C 112.134003 146.229004 113.246994 146.153992 114.345993 146.153 L 120.476997 146.145996 C 122.010002 146.145996 123.468002 146.481995 124.694 147.119003 C 127.321999 148.481003 129.369003 150.88501 130.311996 153.712997 L 131.669006 157.783005 C 132.725006 160.951004 133.139999 164.248001 132.902008 167.580002 M 24.285995 64 L 29.143005 64 L 29.143005 66.643005 C 29.143005 67.708008 30.005997 68.570999 31.070999 68.570999 L 31.429001 68.570999 L 31.429001 64 L 33.714005 64 L 33.714005 68.570999 L 36 68.570999 L 36 64 L 38.285995 64 L 38.285995 68.570999 L 40.570999 68.570999 L 40.570999 64 L 42.856995 64 L 42.856995 68.570999 L 45.143005 68.570999 L 45.143005 64 L 47.429001 64 L 47.429001 68.570999 L 49.714005 68.570999 L 49.714005 64 L 52 64 L 52 68.570999 L 54.285995 68.570999 L 54.285995 64 L 56.570999 64 L 56.570999 68.570999 L 58.856995 68.570999 L 58.856995 64 L 61.143005 64 L 61.143005 68.570999 L 63.429001 68.570999 L 63.429001 64 L 65.714005 64 L 65.714005 68.570999 L 68 68.570999 L 68 64 L 70.285995 64 L 70.285995 68.570999 L 72.570999 68.570999 L 72.570999 64 L 74.856995 64 L 74.856995 68.570999 L 77.143005 68.570999 L 77.143005 64 L 79.429001 64 L 79.429001 68.570999 L 81.714005 68.570999 L 81.714005 64 L 84 64 L 84 68.570999 L 86.285995 68.570999 L 86.285995 64 L 88.570999 64 L 88.570999 68.570999 L 90.856995 68.570999 L 90.856995 64 L 93.143005 64 L 93.143005 68.570999 L 95.429001 68.570999 L 95.429001 64 L 97.714005 64 L 97.714005 68.570999 L 100 68.570999 L 100 64 L 102.285995 64 L 102.285995 68.570999 L 104.570999 68.570999 L 104.570999 64 L 106.856995 64 L 106.856995 68.570999 L 109.143005 68.570999 L 109.143005 64 L 111.429001 64 L 111.429001 68.570999 L 113.714005 68.570999 L 113.714005 64 L 116 64 L 116 68.570999 L 118.286003 68.570999 L 118.286003 64 L 120.570999 64 L 120.570999 68.570999 L 122.857002 68.570999 L 122.857002 64 L 125.142998 64 L 125.142998 68.570999 L 125.5 68.570999 C 126.565002 68.570999 127.429001 67.708008 127.429001 66.643005 L 127.429001 64 L 132.286011 64 L 132.286011 68 C 132.286011 70.209 130.494995 72 128.286011 72 L 28.285995 72 C 26.076996 72 24.285995 70.209 24.285995 68 Z M 239.826004 60 L 236 60 L 232 60 L 230.244995 60 L 226.244995 60 L 225.509995 60 L 221.509995 60 L 220.774994 60 L 216.774994 60 L 216.041 60 L 212.041 60 L 211.307007 60 L 207.307007 60 L 206.570999 60 L 202.570999 60 L 201.837006 60 L 197.837006 60 L 197.102005 60 L 193.102005 60 L 192.367004 60 L 188.367004 60 L 187.632996 60 L 183.632996 60 L 182.897995 60 L 178.89801 60 L 178.162994 60 L 174.162994 60 L 173.429001 60 L 169.429001 60 L 168.692993 60 L 164.692993 60 L 160 60 L 156 60 L 152.174011 60 C 149.468002 60 147.071991 61.402008 145.583008 63.549011 C 143.692993 61.294006 140.787994 60 137.171997 60 L 136.286011 60 L 132.286011 60 L 129.143005 60 L 125.142998 60 L 124.570999 60 L 120.570999 60 L 120 60 L 116 60 L 115.429001 60 L 111.429001 60 L 110.856995 60 L 106.856995 60 L 106.285995 60 L 102.285995 60 L 101.714005 60 L 97.714005 60 L 97.143005 60 L 93.143005 60 L 92.570999 60 L 88.570999 60 L 88 60 L 84 60 L 83.429001 60 L 79.429001 60 L 78.856995 60 L 74.856995 60 L 74.285995 60 L 70.285995 60 L 69.714005 60 L 65.714005 60 L 65.143005 60 L 61.143005 60 L 60.570999 60 L 56.570999 60 L 56 60 L 52 60 L 51.429001 60 L 47.429001 60 L 46.856995 60 L 42.856995 60 L 42.285995 60 L 38.285995 60 L 37.714005 60 L 33.714005 60 L 33.143005 60 L 29.143005 60 L 24.285995 60 L 20.285995 60 L 18.828003 60 C 12.25 60 8 64.261993 8 70.856995 L 8 72.175003 L 8 178.908997 L 8 179.018005 C 8 180.602997 8.565002 182.143005 9.591995 183.352005 C 9.720001 183.501999 9.856995 183.649002 10.001999 183.791992 L 19.770996 194.052002 C 20.949005 195.290009 22.604004 196 24.313004 196 L 131.585999 196 L 131.854004 196 C 133.580994 196 135.25 195.276001 136.432007 194.014008 L 144.554993 185.337997 L 145.171997 186.828003 L 153.171997 194.828003 L 154.343002 196 L 156 196 L 193.912994 196 L 202.261002 196 C 217.354996 196 230.759995 186.996002 239.095001 173.151001 L 241.664993 170.578003 C 243.203995 169.037003 243.707993 166.863007 243.218994 164.888 C 246.272003 157.38501 248 148.936996 248 140 L 248 138.177002 L 248 136 L 248 68.636002 C 248 63.873993 244.332993 60 239.826004 60"/>
    <path id="path12" fill="#ffffff" stroke="none" d="M 44 108 L 52 108 L 52 112 L 44 112 Z M 44 100 L 52 100 L 52 104 L 44 104 Z M 100 104 L 56 104 L 56 100 L 100 100 Z M 112 104 L 104 104 L 104 100 L 112 100 Z M 112 112 L 104 112 L 104 108 L 112 108 Z M 56 108 L 100 108 L 100 112 L 56 112 Z M 52 116 L 56 116 L 100 116 L 104 116 L 112 116 L 116 116 L 116 112 L 116 108 L 116 104 L 116 100 L 116 96 L 104 96 L 100 96 L 56 96 L 52 96 L 40 96 L 40 100 L 40 104 L 40 108 L 40 112 L 40 116 L 44 116 Z"/>
</svg>
