<?xml version="1.0" encoding="UTF-8"?>
<!-- Generated by Pixelmator Pro 3.7.1 -->
<svg width="256" height="256" viewBox="0 0 256 256" xmlns="http://www.w3.org/2000/svg">
    <path id="Path" fill="#ffffff" stroke="none" d="M 186 76 C 184.895004 76 184 75.104996 184 74 C 184 72.895004 184.895004 72 186 72 C 187.104996 72 188 72.895004 188 74 C 188 75.104996 187.104996 76 186 76 M 192 74 C 192 70.692001 189.307999 68 186 68 C 182.692001 68 180 70.692001 180 74 C 180 77.307999 182.692001 80 186 80 C 189.307999 80 192 77.307999 192 74"/>
    <path id="path1" fill="#ffffff" stroke="none" d="M 191.990997 120 L 199.990997 120 L 199.990997 124 L 191.990997 124 Z M 178 116 C 179.104996 116 180 116.895004 180 118 C 180 119.104996 179.104996 120 178 120 C 176.895004 120 176 119.104996 176 118 C 176 116.895004 176.895004 116 178 116 M 174 112 C 172.895004 112 172 111.104996 172 110 C 172 108.895004 172.895004 108 174 108 C 175.104996 108 176 108.895004 176 110 C 176 111.104996 175.104996 112 174 112 M 187.990997 116 L 187.990997 120 L 187.990997 124 L 183.990997 124 L 178 124 L 171.990997 124 L 171.684998 124 L 170 124 L 170 114.459 C 170.686996 115.076004 171.514008 115.535004 172.429001 115.783997 C 172.154999 116.470993 172 117.216995 172 118 C 172 121.307999 174.692001 124 178 124 C 181.307999 124 184 121.307999 184 118 C 184 115.235992 182.119003 112.908997 179.570999 112.216003 C 179.845001 111.529007 180 110.783005 180 110 C 180 106.692001 177.307999 104 174 104 C 172.462997 104 171.063004 104.585999 170 105.541 L 170 104 L 170 100 L 166 100 L 148 100 L 148 96 L 152 96 L 156 96 L 156 92 L 172 92 L 176 92 L 176 98.733994 L 176 102.733994 L 180 102.733994 L 188 102.733994 L 192 102.733994 L 199.990997 102.733994 L 199.990997 116 L 191.990997 116 Z M 166 124 L 146 124 L 146 104 L 148 104 L 166 104 Z M 144 92 L 136 92 L 132 92 L 124 92 L 124 80 L 128 80 L 136 80 L 140 80 L 148 80 L 152 80 L 152 88 L 152 92 L 148 92 Z M 144 100 L 142 100 L 136 100 L 136 96 L 144 96 Z M 140 118 C 140 119.104996 139.104996 120 138 120 C 136.895004 120 136 119.104996 136 118 C 136 116.895004 136.895004 116 138 116 C 139.104996 116 140 116.895004 140 118 M 142 113.541 C 140.936996 112.585999 139.537003 112 138 112 C 134.692001 112 132 114.692001 132 118 C 132 121.307999 134.692001 124 138 124 C 139.537003 124 140.936996 123.414001 142 122.459 L 142 124 L 138 124 L 120 124 L 120 120 L 124 120 L 128 120 L 128 116 L 128 104 L 128 100 L 124 100 L 115.650002 100 C 115.873001 99.373001 116 98.701996 116 98 C 116 94.692001 113.307999 92 110 92 C 106.692001 92 104 94.692001 104 98 C 104 100.606003 105.672997 102.824005 108 103.649994 L 108 104 L 108 116 L 103.650002 116 C 103.873001 115.373001 104 114.701996 104 114 C 104 110.692001 101.307999 108 98 108 C 94.692001 108 92 110.692001 92 114 C 92 114.701996 92.126999 115.373001 92.349998 116 L 72 116 L 72 112 L 88 112 L 92 112 L 92 108 L 92 100 L 92 96 L 88 96 L 72 96 L 72 92 L 84 92 L 88 92 L 96 92 L 100 92 L 100 88 L 100 85.147003 C 102.125999 86.914001 104.925003 88 108 88 C 114.616997 88 120 83.016006 120 76.889008 C 120 76.460999 119.966003 76.037994 119.914001 75.617996 C 120.565002 75.860992 121.265999 76 122 76 C 122.702003 76 123.373001 75.873001 124 75.649994 L 124 76 L 122 76 L 120 76 L 120 76.889008 L 120 80 L 120 92 L 120 96 L 124 96 L 132 96 L 132 100 L 132 104 L 136 104 L 142 104 Z M 116 116 L 112 116 L 112 104 L 124 104 L 124 116 L 120 116 Z M 108 98 C 108 96.895004 108.894997 96 110 96 C 111.105003 96 112 96.895004 112 98 C 112 99.104996 111.105003 100 110 100 C 108.894997 100 108 99.104996 108 98 M 96 114 C 96 112.895004 96.894997 112 98 112 C 99.105003 112 100 112.895004 100 114 C 100 115.104996 99.105003 116 98 116 C 96.894997 116 96 115.104996 96 114 M 116 124 L 95.990997 124 L 64.275002 124 L 63.991001 124 L 59.991001 124 L 59.991001 120 L 108 120 L 112 120 L 116 120 Z M 56 92 L 56 80 L 60 80 L 64 80 L 64 88 L 64 92 L 60 92 Z M 56 104 L 48 104 L 48 100 L 56 100 Z M 54 112 C 52.895 112 52 111.104996 52 110 C 52 108.895004 52.895 108 54 108 C 55.105 108 56 108.895004 56 110 C 56 111.104996 55.105 112 54 112 M 55.991001 118.087006 C 55.945 119.149994 55.075001 120 54 120 C 52.895 120 52 119.104996 52 118 C 52 116.895004 52.895 116 54 116 C 55.075001 116 55.945 116.850006 55.991001 117.912994 Z M 55.991001 124 L 54 124 L 51.991001 124 L 43.991001 124 L 43.991001 120 L 44 120 L 44 116 L 43.991001 116 L 43.991001 64 L 44 64 L 44 68 L 44 72 L 48 72 L 56 72 L 56 76 L 52 76 L 52 80 L 52 92 L 52 96 L 48 96 L 44 96 L 44 100 L 44 104 L 44 108 L 48 108 L 48.349998 108 C 48.126999 108.626999 48 109.298004 48 110 C 48 111.537003 48.585999 112.936996 49.541 114 C 48.585999 115.063004 48 116.462997 48 118 C 48 121.307999 50.692001 124 54 124 C 54.699001 124 55.367001 123.873993 55.991001 123.653 Z M 55.650002 64 L 55.991001 64 L 56 64 L 56 66 L 56 68 L 55.650002 68 C 55.873001 67.373001 56 66.701996 56 66 C 56 65.298004 55.873001 64.626999 55.650002 64 M 52 66 C 52 67.104996 51.105 68 50 68 C 48.895 68 48 67.104996 48 66 C 48 64.895004 48.895 64 50 64 C 51.105 64 52 64.895004 52 66 M 48 60 L 44 60 L 43.991001 60 L 43.991001 56 L 55.991001 56 L 55.991001 60 Z M 64 76 L 60 76 L 60 72 L 60 68 L 64 68 L 64 72 Z M 68 96 L 68 100 L 68 108 L 68 112 L 60 112 L 60 108 L 60 104 L 60 100 L 60 96 L 64 96 Z M 68 68 L 68 64 L 85.082001 64 C 84.398003 65.177994 84 66.542007 84 68 Z M 72 100 L 88 100 L 88 108 L 72 108 Z M 68 88 L 68 80 L 68 76 L 68 72 L 84 72 L 84 76 L 84 80 L 84 84 L 84 88 Z M 92 72 C 89.791 72 88 70.209 88 68 C 88 65.791 89.791 64 92 64 C 94.209 64 96 65.791 96 68 C 96 70.209 94.209 72 92 72 M 96 88 L 88 88 L 88 84 L 96 84 Z M 88 76 L 96 76 L 96 80 L 88 80 Z M 114 60 L 102 60 L 98 60 L 60 60 L 59.991001 60 L 59.991001 56 L 116 56 L 116 60 Z M 116 76.889008 C 116 80.809998 112.411003 84 108 84 C 103.588997 84 100 80.809998 100 76.889008 C 100 75.156998 100.720001 73.487 102 72.194 L 102 64 L 114 64 L 114 72.194 C 115.279999 73.487 116 75.156998 116 76.889008 M 39.991001 60 L 36 60 L 35.991001 60 L 35.991001 48 L 92.694 48 C 98.288002 51.473999 109.635002 52 115.990997 52 C 122.347 52 133.694 51.473007 139.289001 48 L 199.990997 48 L 199.990997 56 L 191.990997 56 L 191.990997 52 L 188 52 L 184 52 L 127.990997 52 L 123.990997 52 L 120 52 L 116 52 L 115.990997 52 L 59.991001 52 L 55.991001 52 L 39.991001 52 Z M 39.991001 116 L 36 116 L 35.991001 116 L 35.991001 64 L 36 64 L 39.991001 64 Z M 39.991001 124 L 35.991001 124 L 35.991001 120 L 36 120 L 39.991001 120 Z M 199.990997 61.826004 C 199.973007 61.186996 199.854004 60.574005 199.649994 60 L 199.990997 60 Z M 192 62 C 192 60.895004 192.895004 60 194 60 C 195.104996 60 196 60.895004 196 62 C 196 63.104996 195.104996 64 194 64 C 192.895004 64 192 63.104996 192 62 M 127.990997 56 L 184 56 L 184 60 L 127.990997 60 Z M 124 70 C 124 71.104996 123.105003 72 122 72 C 120.894997 72 120 71.104996 120 70 C 120 68.895004 120.894997 68 122 68 C 123.105003 68 124 68.895004 124 70 M 136 76 L 128 76 L 128 72 L 136 72 Z M 148 76 L 140 76 L 140 72 L 148 72 Z M 172 72 L 172 88 L 156 88 L 156 80 L 156 76 L 156 72 Z M 188 98.733994 L 180 98.733994 L 180 92 L 188 92 Z M 180 84 L 188 84 L 188 88 L 180 88 Z M 199.990997 88 L 192 88 L 192 84 L 192 80 L 188 80 L 186 80 L 180 80 L 176 80 L 176 72 L 176 68 L 172 68 L 156 68 L 152 68 L 148 68 L 140 68 L 136 68 L 128 68 L 127.650002 68 C 126.823997 65.673004 124.606003 64 122 64 C 120.462997 64 119.063004 64.585999 118 65.541 L 118 64 L 120 64 L 120 60 L 120 56 L 123.990997 56 L 123.990997 60 L 123.990997 64 L 127.990997 64 L 184 64 L 188 64 L 188 62 L 188 60 L 188.350006 60 C 188.126999 60.626999 188 61.298004 188 62 C 188 65.307999 190.692001 68 194 68 C 197.25 68 199.897995 65.401001 199.990997 62.173996 Z M 199.990997 98.733994 L 192 98.733994 L 192 92 L 199.990997 92 Z M 203.990997 124 L 203.990997 120 L 203.990997 102.733994 L 204 102.733994 L 204 98.733994 L 204 92 L 204 88 L 203.990997 88 L 203.990997 56 L 203.990997 48 C 203.990997 45.794006 202.197006 44 199.990997 44 L 139.203003 44 C 138.477005 44 137.843002 44.158997 137.416 44.447998 C 132.544998 47.744003 119.786003 48 115.990997 48 C 112.196999 48 99.436996 47.744003 94.567001 44.447998 C 94.139999 44.158997 93.504997 44 92.779999 44 L 35.991001 44 C 33.785999 44 31.990999 45.794006 31.990999 48 L 31.990999 124 C 31.990999 126.205994 33.785999 128 35.991001 128 L 39.991001 128 L 51.991001 128 L 55.991001 128 L 59.991001 128 L 63.991001 128 L 64.275002 128 L 95.990997 128 L 116 128 L 120 128 L 142 128 L 146 128 L 166 128 L 170 128 L 171.684998 128 L 171.990997 128 L 183.990997 128 L 191.990997 128 L 199.990997 128 C 202.197006 128 203.990997 126.205994 203.990997 124"/>
    <path id="path2" fill="#ffffff" stroke="none" d="M 171.991196 132 L 139.252197 137.037003 C 137.3022 137.337006 135.377197 137.748001 133.472198 138.263 C 129.985199 139.205002 125.347198 139.830994 120.185204 139.970001 L 119.991203 140 L 119.833199 139.97699 C 119.225204 139.990997 118.612198 140 117.991203 140 C 111.613205 140 105.8722 139.259003 101.856201 138.076004 C 99.1772 137.287994 96.462204 136.639008 93.698204 136.244003 L 63.991199 132 L 35.991199 132 C 31.5732 132 27.991199 128.417999 27.991199 124 L 27.991199 48 C 27.991199 43.582001 31.5732 40 35.991199 40 L 92.780205 40 C 94.202202 40 95.631203 40.338989 96.809204 41.136002 C 99.256203 42.791992 106.918205 44 115.991203 44 C 125.064201 44 132.726196 42.791992 135.173203 41.136002 C 136.351196 40.338989 137.780197 40 139.202194 40 L 199.991196 40 C 204.409195 40 207.991196 43.582001 207.991196 48 L 207.991196 124 C 207.991196 128.417999 204.409195 132 199.991196 132 Z M 211.991196 124 L 211.991196 48 C 211.991196 41.382996 206.6082 36 199.991196 36 L 139.202194 36 C 136.862198 36 134.694199 36.630005 132.932205 37.822998 C 131.806198 38.582001 125.682205 40 115.991203 40 C 106.300201 40 100.176201 38.582001 99.050201 37.822998 C 97.2882 36.630005 95.120201 36 92.780205 36 L 35.991199 36 C 29.374195 36 23.991199 41.382996 23.991199 48 L 23.991199 124 C 23.991199 130.617004 29.374195 136 35.991199 136 L 63.707203 136 L 93.132202 140.20401 C 95.467201 140.537003 97.951202 141.096008 100.726204 141.914001 C 105.295204 143.259003 111.4272 144 117.991203 144 C 118.529198 144 119.062202 143.994003 119.591202 143.983002 L 120.013199 144.044006 L 120.547203 143.960999 C 125.823204 143.803009 130.648209 143.169006 134.515198 142.123993 C 136.293198 141.643997 138.091202 141.261993 139.860199 140.98999 L 172.297195 136 L 199.991196 136 C 206.6082 136 211.991196 130.617004 211.991196 124"/>
    <path id="path3" fill="#ffffff" stroke="none" d="M 84 180 L 32 180 L 32 168 L 84 168 Z M 32 164 L 28 164 L 28 168 L 28 180 L 28 184 L 32 184 L 84 184 L 88 184 L 88 180 L 88 168 L 88 164 L 84 164 Z"/>
    <path id="path4" fill="#ffffff" stroke="none" d="M 244 212 C 244 214.209 242.209 216 240 216 L 174.938004 216 C 203.884995 202.431 223.990997 173.026001 223.990997 139 L 223.990997 36 L 224 36 L 228 36 L 240 36 C 242.209 36 244 37.791 244 40 Z M 138.990997 220 L 23.990997 220 C 21.781998 220 19.990997 218.209 19.990997 216 L 19.990997 36 C 19.990997 33.791 21.781998 32 23.990997 32 L 95.078995 32 C 97.240005 32 99.401993 32.473999 101.266006 33.567001 C 103.705002 34.996994 109.380005 36 115.990997 36 C 122.602997 36 128.278 34.996994 130.716003 33.567001 C 132.580002 32.473999 134.742004 32 136.903 32 L 219.990997 32 L 219.990997 139 C 219.990997 183.735001 183.725998 220 138.990997 220 M 15.990997 95 L 13.826004 95 C 12.817001 95 12 94.182999 12 93.174011 L 12 86.825989 C 12 85.817001 12.817001 85 13.826004 85 L 15.990997 85 Z M 247.746994 38 C 246.856995 34.552994 243.720993 32 240 32 L 228 32 L 224 32 L 223.990997 32 L 223.990997 28 L 219.990997 28 L 136.903 28 C 133.893005 28 131.054001 28.731995 128.692993 30.117004 C 127.402 30.873993 122.954002 32 115.990997 32 C 109.028 32 104.580002 30.873993 103.289993 30.117004 C 100.927994 28.731995 98.089005 28 95.078995 28 L 23.990997 28 C 19.580002 28 15.990997 31.589005 15.990997 36 L 15.990997 81 L 13.826004 81 C 10.613007 81 8 83.613007 8 86.825989 L 8 93.174011 C 8 96.386993 10.613007 99 13.826004 99 L 15.990997 99 L 15.990997 216 C 15.990997 220.410995 19.580002 224 23.990997 224 L 138.990997 224 C 147.968002 224 156.619003 222.591003 164.747009 220 L 240 220 C 244.410995 220 248 216.410995 248 212 L 248 40 Z"/>
</svg>
