<?xml version="1.0" encoding="UTF-8"?>
<!-- Generated by Pixelmator Pro 3.7.1 -->
<svg width="256" height="256" viewBox="0 0 256 256" xmlns="http://www.w3.org/2000/svg">
    <path id="Path" fill="#ffffff" stroke="none" d="M 244 220 C 244 224.417999 192.065002 228 128 228 C 63.934998 228 12 224.417999 12 220 L 12 52 C 12 49.791 13.791 48 16 48 L 64 48 L 64 152 L 64 156 L 64 186 L 64 192 L 64 196 L 68 196 L 76 196 L 188 196 L 192 196 L 192 192 L 192 156 L 192 152 L 192 48 L 240 48 C 242.209 48 244 49.791 244 52 Z M 68 41.690994 L 68 30.309006 C 68 29.033997 69.033997 28 70.309006 28 L 185.69101 28 C 186.966003 28 188 29.033997 188 30.309006 L 188 41.690994 C 188 42.966003 186.966003 44 185.69101 44 L 70.309006 44 C 69.033997 44 68 42.966003 68 41.690994 M 188 72 L 68 72 L 68 48 L 70.309006 48 L 185.69101 48 L 188 48 Z M 68 76 L 188 76 L 188 152 L 68 152 Z M 68 161.516998 C 71.076004 163.130997 76.093994 164.352005 83.552002 165.410995 C 78.740997 167.994003 76.296997 170.772003 76.296997 173.714005 C 76.296997 176.576996 78.052994 180.783005 93.235992 184.242996 C 103.026993 186.473999 115.373001 187.703003 128 187.703003 C 140.626999 187.703003 152.972992 186.473999 162.764008 184.242996 C 177.946991 180.783005 179.703003 176.576996 179.703003 173.714005 C 179.703003 170.772003 177.259003 167.994003 172.447998 165.410995 C 179.906006 164.352005 184.923996 163.130997 188 161.516998 L 188 192 L 68 192 Z M 163.091003 161.561996 C 157.070007 159.595001 144.505005 156.296997 128 156.296997 C 111.494995 156.296997 98.929993 159.595001 92.908997 161.561996 C 92.186996 161.798004 91.490997 162.035995 90.815002 162.276001 C 76.923996 160.811005 68 158.544998 68 156 L 188 156 C 188 158.544998 179.075989 160.811005 165.184998 162.276001 C 164.509003 162.035995 163.813004 161.798004 163.091003 161.561996 M 100.962006 163.140991 C 108.662994 161.285995 117.970001 160 128 160 C 138.029999 160 147.337006 161.285995 155.037994 163.140991 C 146.911011 163.688995 137.730011 164 128 164 C 118.269997 164 109.089005 163.688995 100.962006 163.140991 M 90.671997 166.283005 C 101.315994 167.395004 114.317001 168 128 168 C 141.682999 168 154.68399 167.395004 165.328003 166.283997 C 171.998001 168.843002 176 171.673004 176 173.714005 C 176 178.447998 154.51001 184 128 184 C 101.490005 184 80 178.447998 80 173.714005 C 80 171.673004 84.001999 168.843002 90.671997 166.283005 M 240 44 L 191.556 44 C 191.839005 43.283997 192 42.505997 192 41.690994 L 192 30.309006 C 192 26.830002 189.169998 24 185.69101 24 L 70.309006 24 C 66.830002 24 64 26.830002 64 30.309006 L 64 41.690994 C 64 42.505997 64.160995 43.283997 64.444 44 L 16 44 C 11.589005 44 8 47.589005 8 52 L 8 220 C 8 224.649994 13.647995 225.949005 20.472 227.061996 C 26.436005 228.033997 34.923996 228.903992 45.699997 229.647003 C 67.699005 231.164001 96.925995 232 128 232 C 159.074005 232 188.300995 231.164001 210.300003 229.647003 C 221.076004 228.903992 229.563995 228.033997 235.528 227.061996 C 242.352005 225.949005 248 224.649994 248 220 L 248 52 C 248 47.589005 244.410995 44 240 44"/>
    <path id="path1" fill="#ffffff" stroke="none" d="M 172 60 L 172 64 L 84 64 L 84 60 L 88 60 L 92 60 L 92 56 L 164 56 L 164 60 L 168 60 Z M 168 52 L 88 52 L 88 56 L 80 56 L 80 68 L 176 68 L 176 56 L 168 56 Z"/>
    <path id="path2" fill="#ffffff" stroke="none" d="M 30 152 C 35.522999 152 40 156.47699 40 162 C 40 167.52301 35.522999 172 30 172 C 24.477001 172 20 167.52301 20 162 C 20 156.47699 24.477001 152 30 152 M 30 176 C 37.720001 176 44 169.720001 44 162 C 44 154.279999 37.720001 148 30 148 C 22.280001 148 16 154.279999 16 162 C 16 169.720001 22.280001 176 30 176"/>
    <path id="path3" fill="#ffffff" stroke="none" d="M 50 196 C 44.477001 196 40 191.52301 40 186 C 40 180.47699 44.477001 176 50 176 C 55.522999 176 60 180.47699 60 186 C 60 191.52301 55.522999 196 50 196 M 50 172 C 42.279999 172 36 178.279999 36 186 C 36 193.720001 42.279999 200 50 200 C 57.720001 200 64 193.720001 64 186 C 64 178.279999 57.720001 172 50 172"/>
    <path id="path4" fill="#ffffff" stroke="none" d="M 76 200 C 80.417999 200 84 203.582001 84 208 C 84 212.417999 80.417999 216 76 216 C 71.582001 216 68 212.417999 68 208 C 68 203.582001 71.582001 200 76 200 M 64 208 C 64 214.617004 69.383003 220 76 220 C 82.616997 220 88 214.617004 88 208 C 88 201.382996 82.616997 196 76 196 C 69.383003 196 64 201.382996 64 208"/>
    <path id="path5" fill="#ffffff" stroke="none" d="M 30 216 L 26 216 C 24.9 216 24 215.100006 24 214 C 24 212.899994 24.9 212 26 212 L 30 212 C 31.1 212 32 212.899994 32 214 C 32 215.100006 31.1 216 30 216 M 26 204 L 30 204 C 31.1 204 32 204.899994 32 206 C 32 207.100006 31.1 208 30 208 L 26 208 C 24.9 208 24 207.100006 24 206 C 24 204.899994 24.9 204 26 204 M 30 200 L 26 200 C 22.691999 200 20 202.692001 20 206 C 20 207.537003 20.586 208.936996 21.541 210 C 20.586 211.063004 20 212.462997 20 214 C 20 217.307999 22.691999 220 26 220 L 30 220 C 33.307999 220 36 217.307999 36 214 C 36 212.462997 35.414001 211.063004 34.459 210 C 35.414001 208.936996 36 207.537003 36 206 C 36 202.692001 33.307999 200 30 200"/>
    <path id="path6" fill="#ffffff" stroke="none" d="M 208 196 C 205.791 196 204 194.209 204 192 C 204 189.791 205.791 188 208 188 C 210.209 188 212 189.791 212 192 C 212 194.209 210.209 196 208 196 M 208 184 C 203.589005 184 200 187.588989 200 192 C 200 196.410995 203.589005 200 208 200 C 212.410995 200 216 196.410995 216 192 C 216 187.588989 212.410995 184 208 184"/>
    <path id="path7" fill="#ffffff" stroke="none" d="M 224 188 C 221.791 188 220 186.209 220 184 C 220 181.791 221.791 180 224 180 C 226.209 180 228 181.791 228 184 C 228 186.209 226.209 188 224 188 M 224 176 C 219.589005 176 216 179.588989 216 184 C 216 188.411011 219.589005 192 224 192 C 228.410995 192 232 188.411011 232 184 C 232 179.588989 228.410995 176 224 176"/>
    <path id="path8" fill="#ffffff" stroke="none" d="M 208 168 C 210.209 168 212 169.791 212 172 C 212 174.209 210.209 176 208 176 C 205.791 176 204 174.209 204 172 C 204 169.791 205.791 168 208 168 M 208 180 C 212.410995 180 216 176.411011 216 172 C 216 167.588989 212.410995 164 208 164 C 203.589005 164 200 167.588989 200 172 C 200 176.411011 203.589005 180 208 180"/>
    <path id="path9" fill="#ffffff" stroke="none" d="M 220 152 L 220 140 C 220 137.791 221.791 136 224 136 C 226.209 136 228 137.791 228 140 L 228 152 C 228 154.209 226.209 156 224 156 C 221.791 156 220 154.209 220 152 M 228 164 C 228 166.209 226.209 168 224 168 C 221.791 168 220 166.209 220 164 C 220 161.791 221.791 160 224 160 C 226.209 160 228 161.791 228 164 M 224 132 C 219.589005 132 216 135.589005 216 140 L 216 152 C 216 154.389999 217.059006 156.53299 218.725998 158 C 217.059006 159.46701 216 161.610001 216 164 C 216 168.410995 219.589005 172 224 172 C 228.410995 172 232 168.410995 232 164 C 232 161.610001 230.940994 159.46701 229.274002 158 C 230.940994 156.53299 232 154.389999 232 152 L 232 140 C 232 135.589005 228.410995 132 224 132"/>
</svg>
