<?xml version="1.0" encoding="UTF-8"?>
<!-- Generated by Pixelmator Pro 3.7.1 -->
<svg width="256" height="256" viewBox="0 0 256 256" xmlns="http://www.w3.org/2000/svg">
    <path id="Path" fill="#ffffff" stroke="none" d="M 244 196 C 244 200.417999 240.417999 204 236 204 L 20 204 C 15.582001 204 12 200.417999 12 196 L 12 76 L 64 76 C 66.205994 76 68 77.794006 68 80 L 68 130 L 68 152 C 68 158.617004 73.382996 164 80 164 L 200 164 C 206.617004 164 212 158.617004 212 152 L 212 80 C 212 77.794006 213.794006 76 216 76 L 244 76 Z M 12 68 C 12 59.164001 19.164001 52 28 52 L 48 52 L 48 68 L 52 68 L 52 52 L 56 52 L 56 68 L 60 68 L 60 52 L 64 52 L 64 68 L 68 68 L 68 52 L 72 52 L 72 68 L 76 68 L 76 52 L 80 52 L 80 68 L 84 68 L 84 52 L 172 52 L 172 68 L 176 68 L 176 52 L 180 52 L 180 68 L 184 68 L 184 52 L 188 52 L 188 68 L 192 68 L 192 52 L 196 52 L 196 68 L 200 68 L 200 52 L 204 52 L 204 68 L 208 68 L 208 52 L 228 52 C 236.837006 52 244 59.164001 244 68 L 244 72 L 216 72 C 211.582001 72 208 75.582001 208 80 L 208 152 C 208 156.417999 204.417999 160 200 160 L 80 160 C 75.582001 160 72 156.417999 72 152 L 72 80 C 72 75.582001 68.417999 72 64 72 L 12 72 Z M 228 48 L 208 48 L 72 48 L 28 48 C 16.972 48 8 56.972 8 68 L 8 72 L 8 76 L 8 196 C 8 202.617004 13.382996 208 20 208 L 236 208 C 242.617004 208 248 202.617004 248 196 L 248 76 L 248 72 L 248 68 C 248 56.972 239.028 48 228 48"/>
    <path id="path1" fill="#ffffff" stroke="none" d="M 80 88 L 81.487 88 C 82.240997 91.964005 82.883003 98.166 83.329002 103.272003 C 83.834999 109.083008 83.834999 114.916992 83.329002 120.727005 C 82.883003 125.834 82.240997 132.035995 81.487 136 L 80 136 Z M 194.434998 88 C 194.325989 88.647995 194.22699 89.306 194.128998 89.960999 C 193.636993 93.240005 193.151001 97.600998 192.686996 102.925003 C 192.161011 108.947006 192.161011 115.052994 192.686996 121.074997 C 193.151001 126.399002 193.636993 130.761002 194.128998 134.039001 C 194.22699 134.694 194.325989 135.352005 194.434998 136 L 85.566002 136 C 85.673996 135.352005 85.773003 134.694 85.872002 134.039001 C 86.362999 130.761002 86.848999 126.399002 87.313004 121.074997 C 87.838997 115.052994 87.838997 108.947006 87.313004 102.925003 C 86.848999 97.600998 86.362999 93.240005 85.872002 89.960999 C 85.773003 89.306 85.673996 88.647995 85.566002 88 Z M 200 88 L 200 136 L 198.514008 136 C 197.759003 132.035995 197.117004 125.834 196.671997 120.727005 C 196.164001 114.916992 196.164001 109.083008 196.671997 103.272003 C 197.117004 98.166 197.759003 91.964005 198.514008 88 Z M 80 140 L 200 140 C 202.209 140 204 138.209 204 136 L 204 88 C 204 85.791 202.209 84 200 84 L 80 84 C 77.791 84 76 85.791 76 88 L 76 136 C 76 138.209 77.791 140 80 140"/>
    <path id="path2" fill="#ffffff" stroke="none" d="M 42 152 C 29.868999 152 20 142.130997 20 130 C 20 117.869003 29.868999 108 42 108 C 54.131001 108 64 117.869003 64 130 C 64 142.130997 54.131001 152 42 152 M 42 104 C 27.640999 104 16 115.640991 16 130 C 16 144.359009 27.640999 156 42 156 C 56.359001 156 68 144.359009 68 130 C 68 115.640991 56.359001 104 42 104"/>
    <path id="path3" fill="#ffffff" stroke="none" d="M 42 140 C 36.486 140 32 135.514008 32 130 C 32 124.485992 36.486 120 42 120 C 47.514 120 52 124.485992 52 130 C 52 135.514008 47.514 140 42 140 M 42 116 C 34.268002 116 28 122.268005 28 130 C 28 137.731995 34.268002 144 42 144 C 49.731998 144 56 137.731995 56 130 C 56 122.268005 49.731998 116 42 116"/>
    <path id="path4" fill="#ffffff" stroke="none" d="M 56 184 L 54.917 184 L 52 184 L 52 176 L 54.917 176 L 56 176 C 58.200001 176 60 177.800003 60 180 C 60 182.199997 58.200001 184 56 184 M 40 184 C 37.799999 184 36 182.199997 36 180 C 36 177.800003 37.799999 176 40 176 L 48 176 L 48 184 Z M 28 180 C 28 177.800003 29.799999 176 32 176 L 33.083 176 C 32.398003 177.179001 32 178.541992 32 180 C 32 181.458008 32.398003 182.820999 33.083 184 L 32 184 C 29.799999 184 28 182.199997 28 180 M 56 172 L 48 172 L 40 172 L 32 172 C 27.589001 172 24 175.588989 24 180 C 24 184.411011 27.589001 188 32 188 L 40 188 L 48 188 L 56 188 C 60.410999 188 64 184.411011 64 180 C 64 175.588989 60.410999 172 56 172"/>
    <path id="path5" fill="#ffffff" stroke="none" d="M 94 132 L 186 132 C 187.104004 132 188 131.104004 188 130 C 188 128.895996 187.104004 128 186 128 L 94 128 C 92.896004 128 92 128.895996 92 130 C 92 131.104004 92.896004 132 94 132"/>
</svg>
