<?xml version="1.0" encoding="UTF-8"?>
<!-- Generated by Pixelmator Pro 3.7.1 -->
<svg width="256" height="256" viewBox="0 0 256 256" xmlns="http://www.w3.org/2000/svg">
    <path id="Path" fill="#ffffff" stroke="none" d="M 236.675797 188.799805 C 236.293793 190.661804 234.656799 191.999802 232.756805 191.999802 L 56.999805 191.999802 C 56.999805 176.583801 60.867802 164.719803 60.915806 164.573792 C 61.408802 162.92981 72.999802 124.116806 72.999802 107.999802 C 72.999802 95.955795 66.694794 75.923798 62.850803 64.828796 C 110.692795 66.599808 205.503799 70.680801 230.073807 71.742798 C 233.643799 71.897797 236.673798 74.394806 237.505798 77.868805 C 239.8228 87.538803 243.999802 107.769806 243.999802 127.999802 C 243.999802 150.993805 238.604797 179.383789 236.675797 188.799805 M 11.999805 183.999802 L 11.999805 78.428802 C 11.999805 73.820801 14.613804 69.5728 18.786793 67.618805 C 22.770802 65.753799 28.508793 63.999802 35.999805 63.999802 L 35.999805 67.999802 C 35.999805 69.104797 36.895802 69.999802 37.999805 69.999802 C 39.104801 69.999802 39.999805 69.104797 39.999805 67.999802 L 39.999805 64.067795 C 44.107807 64.168808 50.517796 64.380798 58.551807 64.671799 L 58.692799 65.075806 C 61.791798 73.965805 68.999802 95.943802 68.999802 107.999802 C 68.999802 123.388794 57.212803 162.99881 57.101795 163.367798 C 57.060795 163.491791 52.999805 175.910797 52.999805 191.999802 L 19.999805 191.999802 C 15.581806 191.999802 11.999805 188.417801 11.999805 183.999802 M 241.395798 76.936798 C 240.1548 71.756805 235.569794 67.976807 230.246796 67.746796 C 200.337799 66.452805 50.406803 59.999802 35.999805 59.999802 C 29.116795 59.999802 22.754795 61.344803 17.090794 63.996796 C 11.568806 66.581802 7.999805 72.247803 7.999805 78.428802 L 7.999805 183.999802 C 7.999805 190.616791 13.383793 195.999802 19.999805 195.999802 L 232.756805 195.999802 C 236.537796 195.999802 239.834793 193.309799 240.594803 189.602798 C 242.821793 178.733795 247.999802 150.974792 247.999802 127.999802 C 247.999802 107.5448 243.862793 87.226807 241.395798 76.936798"/>
    <path id="path1" fill="#ffffff" stroke="none" d="M 172 148.316406 L 83.603996 152.000397 L 80.577003 121.725403 C 80.208 118.028397 80.208 114.278397 80.577003 110.581406 L 83.600998 80.307404 L 83.601997 80.307404 L 83.603996 80.307404 L 172 83.990402 Z M 172.166 79.993408 L 83.771004 76.31041 C 83.714996 76.308395 83.657997 76.307404 83.601997 76.307404 C 81.557999 76.307404 79.830002 77.857407 79.625 79.909409 L 76.597 110.183395 C 76.199997 114.153397 76.199997 118.153397 76.597 122.124405 L 79.625 152.398407 C 79.830002 154.450409 81.557999 156.000397 83.601997 156.000397 C 83.657997 156.000397 83.713997 155.99939 83.771004 155.996399 L 172.166 152.3134 C 174.309006 152.223389 176 150.461395 176 148.316406 L 176 83.990402 C 176 81.846405 174.309006 80.083405 172.166 79.993408"/>
    <path id="path2" fill="#ffffff" stroke="none" d="M 164 144 L 92 144 L 92 92 L 164 92 Z M 168 88 L 88 88 L 88 148 L 168 148 Z"/>
    <path id="path3" fill="#ffffff" stroke="none" d="M 226 124 C 222.686996 124 220 119.522995 220 114 C 220 108.477005 222.686996 104 226 104 C 229.313004 104 232 108.477005 232 114 C 232 119.522995 229.313004 124 226 124 M 210 132 C 206.686996 132 204 127.522995 204 122 C 204 116.477005 206.686996 112 210 112 C 213.313004 112 216 116.477005 216 122 C 216 127.522995 213.313004 132 210 132 M 194 140 C 190.686996 140 188 135.522003 188 130 C 188 124.477005 190.686996 120 194 120 C 197.313004 120 200 124.477005 200 130 C 200 135.522003 197.313004 140 194 140 M 184 106 C 184 100.477005 186.686996 96 190 96 C 193.313004 96 196 100.477005 196 106 C 196 111.522995 193.313004 116 190 116 C 186.686996 116 184 111.522995 184 106 M 203.264999 111.496994 C 201.748993 113.389999 200.673996 115.940994 200.231003 118.906006 C 199.218002 117.806 198.037003 116.985992 196.735001 116.503006 C 198.251007 114.610001 199.326004 112.059006 199.768997 109.093994 C 200.781998 110.194 201.962997 111.014008 203.264999 111.496994 M 206 88 C 209.313004 88 212 92.477005 212 98 C 212 103.522995 209.313004 108 206 108 C 202.686996 108 200 103.522995 200 98 C 200 92.477005 202.686996 88 206 88 M 219.264999 103.496994 C 217.748993 105.389999 216.673996 107.940994 216.231003 110.906006 C 215.218002 109.806 214.037003 108.985992 212.735001 108.503006 C 214.251007 106.610001 215.326004 104.059006 215.768997 101.093994 C 216.781998 102.194 217.962997 103.014008 219.264999 103.496994 M 222 80 C 225.313004 80 228 84.477005 228 90 C 228 95.522995 225.313004 100 222 100 C 218.686996 100 216 95.522995 216 90 C 216 84.477005 218.686996 80 222 80 M 228.735001 100.503006 C 230.757996 97.977997 232 94.276001 232 90 C 232 82.018997 227.701004 76 222 76 C 217.063995 76 213.186005 80.514999 212.231003 86.906006 C 210.544006 85.076004 208.399002 84 206 84 C 201.063995 84 197.186005 88.514999 196.231003 94.906006 C 194.544006 93.076004 192.399002 92 190 92 C 184.298996 92 180 98.018997 180 106 C 180 112.641006 182.981003 117.910004 187.264999 119.496994 C 185.242004 122.022003 184 125.723999 184 130 C 184 137.981003 188.298996 144 194 144 C 198.936005 144 202.813995 139.484009 203.768997 133.093994 C 205.455994 134.923996 207.600998 136 210 136 C 214.936005 136 218.813995 131.484009 219.768997 125.093994 C 221.455994 126.923996 223.600998 128 226 128 C 231.701004 128 236 121.981003 236 114 C 236 107.358994 233.018997 102.089996 228.735001 100.503006"/>
    <path id="path4" fill="#ffffff" stroke="none" d="M 186 88 C 187.104004 88 188 87.104004 188 86 C 188 84.895996 187.104004 84 186 84 C 184.895996 84 184 84.895996 184 86 C 184 87.104004 184.895996 88 186 88"/>
    <path id="path5" fill="#ffffff" stroke="none" d="M 38 144 C 31.117001 144 25.138 137.557999 22.110001 128.096008 C 25.767 132.889008 31.52 136 38 136 C 44.48 136 50.233002 132.889008 53.889999 128.096008 C 50.862 137.557999 44.882999 144 38 144 M 54 116 C 54 124.835999 46.835999 132 38 132 C 29.164 132 22 124.835999 22 116 C 22 107.164001 29.164 100 38 100 C 46.835999 100 54 107.164001 54 116 M 38 84 C 46.305 84 53.292 93.376999 55.368999 106.123001 C 51.922001 100.085999 45.435001 96 38 96 C 30.565001 96 24.077999 100.085999 20.631001 106.123001 C 22.708 93.376999 29.695 84 38 84 M 38 80 C 25.664 80 16 94.934998 16 114 C 16 133.065002 25.664 148 38 148 C 50.335999 148 60 133.065002 60 114 C 60 94.934998 50.335999 80 38 80"/>
    <path id="path6" fill="#ffffff" stroke="none" d="M 163.066406 178.328094 C 161.382401 180.0121 159.433395 180.98111 158.002396 180.98111 C 157.401398 180.98111 156.891403 180.810089 156.531403 180.450104 C 155.312393 179.230103 156.261398 176.305099 158.652405 173.914093 C 160.336395 172.230103 162.2854 171.2621 163.7164 171.2621 C 164.318405 171.2621 164.8284 171.432098 165.1884 171.793091 C 166.407394 173.0121 165.457397 175.937103 163.066406 178.328094 M 147.066406 178.328094 C 145.382401 180.0121 143.433395 180.98111 142.002396 180.98111 C 141.401398 180.98111 140.891403 180.810089 140.531403 180.450104 C 139.312393 179.230103 140.261398 176.305099 142.652405 173.914093 C 144.336395 172.230103 146.2854 171.2621 147.7164 171.2621 C 148.318405 171.2621 148.8284 171.432098 149.1884 171.793091 C 150.407394 173.0121 149.457397 175.937103 147.066406 178.328094 M 163.7164 167.2621 L 163.7164 167.2621 C 161.130402 167.2621 158.254395 168.65509 155.824402 171.08609 C 154.978394 171.931091 154.276398 172.817108 153.706406 173.717102 C 153.820404 171.89209 153.274399 170.223099 152.016403 168.965103 C 150.918396 167.866089 149.391403 167.2621 147.7164 167.2621 C 145.130402 167.2621 142.254395 168.65509 139.824402 171.08609 C 135.677399 175.232101 134.7854 180.360107 137.7034 183.278107 C 138.8004 184.376099 140.3284 184.98111 142.002396 184.98111 C 144.587402 184.98111 147.464401 183.587097 149.895401 181.157104 C 150.740402 180.311096 151.443405 179.42511 152.012405 178.525101 C 151.898407 180.349091 152.444397 182.019104 153.7034 183.278107 C 154.8004 184.376099 156.3284 184.98111 158.002396 184.98111 C 160.587402 184.98111 163.464401 183.587097 165.895401 181.157104 C 170.042404 177.010101 170.934402 171.882111 168.016403 168.965103 C 166.918396 167.866089 165.391403 167.2621 163.7164 167.2621"/>
    <path id="path7" fill="#ffffff" stroke="none" d="M 48 116.012207 C 46.016998 116.139206 44.200001 117.259201 43.194 118.997192 C 42.667 119.907196 41.907001 120.667206 40.997002 121.194199 C 39.258999 122.200195 38.139999 124.017197 38.012001 126.000198 L 37.987999 126.000198 C 37.860001 124.017197 36.741001 122.200195 35.002998 121.194199 C 34.093002 120.667206 33.333 119.907196 32.806 118.997192 C 31.799999 117.259201 29.983 116.139206 28 116.012207 L 28 115.988205 C 29.982 115.861206 31.799 114.742203 32.806 113.003204 C 33.333 112.093201 34.093002 111.333206 35.002998 110.806198 C 36.741001 109.800201 37.860001 107.9832 37.987999 106.000198 L 38.012001 106.000198 C 38.139999 107.9832 39.258999 109.800201 40.997002 110.806198 C 41.907001 111.333206 42.667 112.093201 43.194 113.003204 C 44.200001 114.741196 46.016998 115.860199 48 115.988205 Z M 46.655998 110.999207 C 45.778999 109.484207 44.515999 108.221207 43.000999 107.344193 C 42.383999 106.987198 42 106.333206 42 105.619202 L 42 104.000198 C 42 102.895203 41.104 102.000198 40 102.000198 L 36 102.000198 C 34.896 102.000198 34 102.895203 34 104.000198 L 34 105.619202 C 34 106.333206 33.616001 106.987198 32.999001 107.344193 C 31.483999 108.221207 30.221001 109.484207 29.344 110.999207 C 28.987 111.616196 28.336 112.000198 27.622999 112.000198 L 26.188999 112.000198 C 24.895 112.000198 24 112.895203 24 114.000198 L 24 118.000198 C 24 119.104202 24.896 120.000198 26 120.000198 L 27.620001 120.000198 C 28.333 120.000198 28.987 120.384201 29.344 121.001205 C 30.221001 122.516205 31.483999 123.779205 32.999001 124.656204 C 33.616001 125.013199 34 125.667206 34 126.380203 L 34 128.000198 C 34 129.104202 34.896 130.000198 36 130.000198 L 40 130.000198 C 41.104 130.000198 42 129.104202 42 128.000198 L 42 126.380203 C 42 125.667206 42.383999 125.013199 43.000999 124.656204 C 44.515999 123.779205 45.778999 122.516205 46.655998 121.001205 C 47.013 120.384201 47.667 120.000198 48.380001 120.000198 L 50 120.000198 C 51.104 120.000198 52 119.104202 52 118.000198 L 52 114.000198 C 52 112.895203 51.104 112.000198 50 112.000198 L 48.380001 112.000198 C 47.667 112.000198 47.013 111.616196 46.655998 110.999207"/>
</svg>
