<?xml version="1.0" encoding="UTF-8"?>
<!-- Generated by Pixelmator Pro 3.7.1 -->
<svg width="256" height="256" viewBox="0 0 256 256" xmlns="http://www.w3.org/2000/svg">
    <path id="Path" fill="#ffffff" stroke="none" d="M 72 48 L 184 48 L 184 44 L 72 44 Z"/>
    <path id="path1" fill="#ffffff" stroke="none" d="M 72 56 L 184 56 L 184 52 L 72 52 Z"/>
    <path id="path2" fill="#ffffff" stroke="none" d="M 216 187.21579 C 216 187.648804 215.582993 187.999802 215.070999 187.999802 L 40.929001 187.999802 C 40.417007 187.999802 40 187.648804 40 187.21579 L 40 87.137802 C 40 78.790802 47.048996 71.999802 55.714005 71.999802 L 200.285995 71.999802 C 208.949997 71.999802 216 78.790802 216 87.137802 Z M 200.285995 67.999802 L 55.714005 67.999802 C 44.826004 67.999802 36 76.568802 36 87.137802 L 36 187.21579 C 36 189.857803 38.207001 191.999802 40.929001 191.999802 L 215.070999 191.999802 C 217.792999 191.999802 220 189.857803 220 187.21579 L 220 87.137802 C 220 76.5858 211.156006 67.999802 200.285995 67.999802"/>
    <path id="path3" fill="#ffffff" stroke="none" d="M 161.752899 224 L 94.246902 224 C 89.698898 224 85.999901 220.410995 85.999901 216 C 85.999901 211.589005 89.698898 208 94.246902 208 L 161.752899 208 C 166.300903 208 169.999893 211.589005 169.999893 216 C 169.999893 220.410995 166.300903 224 161.752899 224 M 161.752899 204 L 94.246902 204 C 87.510902 204 81.999901 209.399994 81.999901 216 C 81.999901 222.600006 87.510902 228 94.246902 228 L 161.752899 228 C 168.488907 228 173.999893 222.600006 173.999893 216 C 173.999893 209.399994 168.488907 204 161.752899 204"/>
    <path id="path4" fill="#ffffff" stroke="none" d="M 244 52 L 244 56 L 244 64 L 244 111.647003 C 244 111.647003 244 116 236.516998 116 C 236.205002 116 235.880005 115.992004 235.541992 115.977005 C 227.083008 115.583008 228.291992 111.252991 228.291992 111.252991 L 228.291992 87.352997 C 227.893997 59.072998 196.436996 58.903 195.681 58.903 L 195.666992 58.903 L 60.332993 58.903 L 60.319 58.903 C 59.559006 58.903 28.106003 59.074005 27.707993 87.352997 L 27.707993 111.252991 C 27.707993 111.252991 28.917007 115.583008 20.457993 115.977005 C 20.119995 115.992004 19.796005 116 19.483002 116 C 12.001007 116 12 111.647003 12 111.647003 L 12 64 L 12 56 L 12 52 L 12 25.447006 C 12 20.229004 16.328003 16 21.667007 16 L 234.333008 16 C 239.671997 16 244 20.229004 244 25.447006 Z M 244 235.910995 C 244 238.169006 241.835999 240 239.166992 240 L 16.832993 240 C 14.164001 240 12 238.169006 12 235.910995 L 12 118.197998 C 13.744003 119.265991 16.162994 120 19.483002 120 C 19.854996 120 20.240997 119.990997 20.645004 119.972 C 25.345001 119.752991 28.636002 118.388 30.425995 115.912994 C 31.660995 114.205002 31.908997 112.311996 31.707993 110.889999 L 31.707993 87.382004 C 31.856995 77.334991 36.501007 70.199997 45.509995 66.175995 C 52.751007 62.940002 60.244995 62.903 60.319 62.903 L 195.666992 62.903 C 195.763 62.903 203.251999 62.942001 210.488998 66.175003 C 219.498993 70.199997 224.143005 77.334 224.291992 87.382004 L 224.291992 110.889999 C 224.091003 112.311996 224.339005 114.205002 225.574005 115.912994 C 227.363007 118.388 230.654007 119.752991 235.354996 119.972 C 235.759003 119.990997 236.145996 120 236.516998 120 C 239.576004 120 242.072998 119.386002 244 118.194 Z M 234.333008 12 L 21.667007 12 C 14.130997 12 8 18.031998 8 25.447006 L 8 52 L 8 56 L 8 111.647003 L 8 235.910995 C 8 240.371002 11.962006 244 16.832993 244 L 239.166992 244 C 244.037003 244 248 240.371002 248 235.910995 L 248 111.645996 L 248 56 L 248 52 L 248 25.447006 C 248 18.031998 241.869003 12 234.333008 12"/>
</svg>
