<?xml version="1.0" encoding="UTF-8"?>
<!-- Generated by Pixelmator Pro 3.7.1 -->
<svg width="256" height="256" viewBox="0 0 256 256" xmlns="http://www.w3.org/2000/svg">
    <path id="Path" fill="#ffffff" stroke="none" d="M 236 229.996796 C 236 237.698807 229.699005 243.999802 221.996994 243.999802 L 34.003006 243.999802 C 26.300995 243.999802 20 237.698807 20 229.996796 L 20 16.667801 C 20 14.1008 22.100998 11.999802 24.667999 11.999802 L 203.326004 11.999802 C 221.296997 11.999802 236 26.703796 236 44.673798 Z M 203.326004 7.999802 L 24.667999 7.999802 C 19.888 7.999802 16 11.888794 16 16.667801 L 16 229.996796 C 16 239.923798 24.076004 247.999802 34.003006 247.999802 L 221.996994 247.999802 C 231.923996 247.999802 240 239.923798 240 229.996796 L 240 44.673798 C 240 24.451797 223.548004 7.999802 203.326004 7.999802"/>
    <path id="path1" fill="#ffffff" stroke="none" d="M 220 128 C 220 131.36499 213.388 136 208.587997 136 L 200 136 L 196 136 L 196 140 L 196 232 L 36 232 L 36 228 L 41.690994 228 C 45.169998 228 48 225.169998 48 221.69101 L 48 210.30899 C 48 206.830002 45.169998 204 41.690994 204 L 36 204 L 36 56 L 41.690994 56 C 45.169998 56 48 53.169998 48 49.69101 L 48 38.30899 C 48 34.830002 45.169998 32 41.690994 32 L 36 32 L 36 28 L 40 28 L 204 28 C 214.018997 28 220 33.981003 220 44 Z M 30.309006 224 C 29.033997 224 28 222.966003 28 221.69101 L 28 210.30899 C 28 209.033997 29.033997 208 30.309006 208 L 32 208 L 36 208 L 41.690994 208 C 42.966003 208 44 209.033997 44 210.30899 L 44 221.69101 C 44 222.966003 42.966003 224 41.690994 224 L 36 224 L 32 224 Z M 30.309006 52 C 29.033997 52 28 50.966003 28 49.69101 L 28 38.30899 C 28 37.033997 29.033997 36 30.309006 36 L 32 36 L 36 36 L 41.690994 36 C 42.966003 36 44 37.033997 44 38.30899 L 44 49.69101 C 44 50.966003 42.966003 52 41.690994 52 L 36 52 L 32 52 Z M 204 24 L 40 24 L 32 24 L 32 32 L 30.309006 32 C 26.830002 32 24 34.830002 24 38.30899 L 24 49.69101 C 24 53.169998 26.830002 56 30.309006 56 L 32 56 L 32 204 L 30.309006 204 C 26.830002 204 24 206.830002 24 210.30899 L 24 221.69101 C 24 225.169998 26.830002 228 30.309006 228 L 32 228 L 32 236 L 200 236 L 200 140 L 208.587997 140 C 214.865005 140 224 134.276001 224 128 L 224 44 C 224 31.640991 216 24 204 24"/>
</svg>
