<?xml version="1.0" encoding="UTF-8"?>
<!-- Generated by Pixelmator Pro 3.7.1 -->
<svg width="256" height="256" viewBox="0 0 256 256" xmlns="http://www.w3.org/2000/svg">
    <path id="Path" fill="#ffffff" stroke="none" d="M 132 132 L 204 132 L 204 156 L 132 156 Z M 132 124 L 204 124 L 204 128 L 132 128 Z M 208 132 L 208 128 L 208 120 L 128 120 L 128 128 L 128 132 L 128 160 L 208 160 Z"/>
    <path id="path1" fill="#ffffff" stroke="none" d="M 28 180 L 48 180 L 48 176 L 28 176 Z"/>
    <path id="path2" fill="#ffffff" stroke="none" d="M 104 180 L 124 180 L 124 176 L 104 176 Z"/>
    <path id="path3" fill="#ffffff" stroke="none" d="M 128 180 L 148 180 L 148 176 L 128 176 Z"/>
    <path id="path4" fill="#ffffff" stroke="none" d="M 200 180 L 220 180 L 220 176 L 200 176 Z"/>
    <path id="path5" fill="#ffffff" stroke="none" d="M 244 184 L 196 184 L 196 176 L 196 172 L 192 172 L 156 172 L 152 172 L 152 176 L 152 184 L 12 184 L 12 175.632004 L 15.406998 170.097 L 16.697006 168 L 239.304001 168 L 240.593994 170.097 L 244 175.632004 Z M 156 176 L 192 176 L 192 184 L 156 184 Z M 12 72 L 44 92 L 44 116 L 12 168 Z M 212 116 L 212 92 L 244 72 L 244 168 Z M 124 112 L 48 112 L 48 96 L 124 96 Z M 128 108 L 132 108 L 136 108 L 200 108 L 204 108 L 208 108 L 208 112 L 128 112 Z M 132 104 L 128 104 L 128 96 L 132 96 Z M 200 104 L 136 104 L 136 96 L 200 96 Z M 204 96 L 208 96 L 208 104 L 204 104 Z M 46.119995 88.608002 L 19.546997 72 L 236.453003 72 L 209.880005 88.608002 L 208 89.78299 L 208 92 L 128 92 L 124 92 L 48 92 L 48 89.78299 Z M 48 117.132004 L 48 116 L 124 116 L 128 116 L 208 116 L 208 117.132004 L 208.593994 118.096008 L 236.841995 164 L 19.158005 164 L 47.406998 118.096008 Z M 244 68 L 242.852997 68 L 13.147003 68 L 12 68 L 8 68 L 8 72 L 8 168 L 8 182.132004 L 8 184 L 8 188 L 12 188 L 152 188 L 156 188 L 192 188 L 196 188 L 244 188 L 248 188 L 248 184 L 248 182.132004 L 248 168 L 248 72 L 248 68 Z"/>
    <path id="path6" fill="#ffffff" stroke="none" d="M 52 76 L 48 76 L 48 80 L 52 80 Z"/>
    <path id="path7" fill="#ffffff" stroke="none" d="M 60 76 L 56 76 L 56 80 L 60 80 Z"/>
    <path id="path8" fill="#ffffff" stroke="none" d="M 68 76 L 64 76 L 64 80 L 68 80 Z"/>
    <path id="path9" fill="#ffffff" stroke="none" d="M 76 76 L 72 76 L 72 80 L 76 80 Z"/>
    <path id="path10" fill="#ffffff" stroke="none" d="M 84 76 L 80 76 L 80 80 L 84 80 Z"/>
    <path id="path11" fill="#ffffff" stroke="none" d="M 92 76 L 88 76 L 88 80 L 92 80 Z"/>
    <path id="path12" fill="#ffffff" stroke="none" d="M 100 76 L 96 76 L 96 80 L 100 80 Z"/>
    <path id="path13" fill="#ffffff" stroke="none" d="M 108 76 L 104 76 L 104 80 L 108 80 Z"/>
    <path id="path14" fill="#ffffff" stroke="none" d="M 116 76 L 112 76 L 112 80 L 116 80 Z"/>
    <path id="path15" fill="#ffffff" stroke="none" d="M 124 76 L 120 76 L 120 80 L 124 80 Z"/>
    <path id="path16" fill="#ffffff" stroke="none" d="M 132 76 L 128 76 L 128 80 L 132 80 Z"/>
    <path id="path17" fill="#ffffff" stroke="none" d="M 140 76 L 136 76 L 136 80 L 140 80 Z"/>
    <path id="path18" fill="#ffffff" stroke="none" d="M 148 76 L 144 76 L 144 80 L 148 80 Z"/>
    <path id="path19" fill="#ffffff" stroke="none" d="M 156 76 L 152 76 L 152 80 L 156 80 Z"/>
    <path id="path20" fill="#ffffff" stroke="none" d="M 164 76 L 160 76 L 160 80 L 164 80 Z"/>
    <path id="path21" fill="#ffffff" stroke="none" d="M 172 76 L 168 76 L 168 80 L 172 80 Z"/>
    <path id="path22" fill="#ffffff" stroke="none" d="M 180 76 L 176 76 L 176 80 L 180 80 Z"/>
    <path id="path23" fill="#ffffff" stroke="none" d="M 188 76 L 184 76 L 184 80 L 188 80 Z"/>
    <path id="path24" fill="#ffffff" stroke="none" d="M 196 76 L 192 76 L 192 80 L 196 80 Z"/>
    <path id="path25" fill="#ffffff" stroke="none" d="M 204 76 L 200 76 L 200 80 L 204 80 Z"/>
    <path id="path26" fill="#ffffff" stroke="none" d="M 52 84 L 48 84 L 48 88 L 52 88 Z"/>
    <path id="path27" fill="#ffffff" stroke="none" d="M 60 84 L 56 84 L 56 88 L 60 88 Z"/>
    <path id="path28" fill="#ffffff" stroke="none" d="M 68 84 L 64 84 L 64 88 L 68 88 Z"/>
    <path id="path29" fill="#ffffff" stroke="none" d="M 76 84 L 72 84 L 72 88 L 76 88 Z"/>
    <path id="path30" fill="#ffffff" stroke="none" d="M 84 84 L 80 84 L 80 88 L 84 88 Z"/>
    <path id="path31" fill="#ffffff" stroke="none" d="M 92 84 L 88 84 L 88 88 L 92 88 Z"/>
    <path id="path32" fill="#ffffff" stroke="none" d="M 100 84 L 96 84 L 96 88 L 100 88 Z"/>
    <path id="path33" fill="#ffffff" stroke="none" d="M 108 84 L 104 84 L 104 88 L 108 88 Z"/>
    <path id="path34" fill="#ffffff" stroke="none" d="M 116 84 L 112 84 L 112 88 L 116 88 Z"/>
    <path id="path35" fill="#ffffff" stroke="none" d="M 124 84 L 120 84 L 120 88 L 124 88 Z"/>
    <path id="path36" fill="#ffffff" stroke="none" d="M 132 84 L 128 84 L 128 88 L 132 88 Z"/>
    <path id="path37" fill="#ffffff" stroke="none" d="M 140 84 L 136 84 L 136 88 L 140 88 Z"/>
    <path id="path38" fill="#ffffff" stroke="none" d="M 148 84 L 144 84 L 144 88 L 148 88 Z"/>
    <path id="path39" fill="#ffffff" stroke="none" d="M 156 84 L 152 84 L 152 88 L 156 88 Z"/>
    <path id="path40" fill="#ffffff" stroke="none" d="M 164 84 L 160 84 L 160 88 L 164 88 Z"/>
    <path id="path41" fill="#ffffff" stroke="none" d="M 172 84 L 168 84 L 168 88 L 172 88 Z"/>
    <path id="path42" fill="#ffffff" stroke="none" d="M 180 84 L 176 84 L 176 88 L 180 88 Z"/>
    <path id="path43" fill="#ffffff" stroke="none" d="M 188 84 L 184 84 L 184 88 L 188 88 Z"/>
    <path id="path44" fill="#ffffff" stroke="none" d="M 196 84 L 192 84 L 192 88 L 196 88 Z"/>
    <path id="path45" fill="#ffffff" stroke="none" d="M 204 84 L 200 84 L 200 88 L 204 88 Z"/>
</svg>
