<?xml version="1.0" encoding="UTF-8"?>
<!-- Generated by Pixelmator Pro 3.7.1 -->
<svg width="256" height="256" viewBox="0 0 256 256" xmlns="http://www.w3.org/2000/svg">
    <path id="Path" fill="#ffffff" stroke="none" d="M 244 88 L 240 88 L 16 88 L 12 88 L 12 55.800003 C 12 53.695007 13.669006 52 15.742004 52 L 16 52 L 16 55.110992 L 16 76.889008 C 16 80.809998 19.408997 84 23.600006 84 L 232.399994 84 C 236.591003 84 240 80.809998 240 76.889008 L 240 55.110992 L 240 52 L 240.257996 52 C 242.330994 52 244 53.695007 244 55.800003 Z M 244 95.044998 C 244 95.572998 243.600998 96 243.106995 96 L 240 96 L 16 96 L 12.893005 96 C 12.399994 96 12 95.572998 12 95.044998 L 12 92.953995 C 12 92.427002 12.399994 92 12.893005 92 L 16 92 L 240 92 L 243.106995 92 C 243.600998 92 244 92.427002 244 92.953995 Z M 244 103.044998 C 244 103.572998 243.600998 104 243.106995 104 L 240 104 L 16 104 L 12.893005 104 C 12.399994 104 12 103.572998 12 103.044998 L 12 100.953995 C 12 100.427002 12.399994 100 12.893005 100 L 16 100 L 240 100 L 243.106995 100 C 243.600998 100 244 100.427002 244 100.953995 Z M 244 200.199997 C 244 202.304993 242.330994 204 240.257996 204 L 15.742004 204 C 13.669006 204 12 202.304993 12 200.199997 L 12 108 L 16 108 L 240 108 L 244 108 Z M 23.600006 52 L 232.399994 52 L 236 52 L 236 55.110992 L 236 76.889008 C 236 78.606995 234.389008 80 232.399994 80 L 23.600006 80 C 21.612 80 20 78.606995 20 76.889008 L 20 55.110992 L 20 52 Z M 240.257996 48 L 240 48 L 236 48 L 232.399994 48 L 23.600006 48 L 20 48 L 16 48 L 15.742004 48 C 11.473007 48 8 51.498993 8 55.800003 L 8 88 L 8 92 L 8.091003 92 C 8.031006 92.309006 8 92.628006 8 92.953995 L 8 95.044998 L 8 100.953995 L 8 103.044998 C 8 103.371994 8.031006 103.690994 8.091003 104 L 8 104 L 8 108 L 8 200.199997 C 8 204.501007 11.473007 208 15.742004 208 L 240.257996 208 C 244.526993 208 248 204.501007 248 200.199997 L 248 108 L 248 104 L 247.908997 104 C 247.968994 103.690994 248 103.371994 248 103.044998 L 248 100.953995 L 248 95.044998 L 248 92.953995 C 248 92.628006 247.968994 92.309006 247.908997 92 L 248 92 L 248 88 L 248 55.800003 C 248 51.498993 244.526993 48 240.257996 48"/>
</svg>
