<?xml version="1.0" encoding="UTF-8"?>
<!-- Generated by Pixelmator Pro 3.7.1 -->
<svg width="256" height="256" viewBox="0 0 256 256" xmlns="http://www.w3.org/2000/svg">
    <path id="Path" fill="#ffffff" stroke="none" d="M 63.279202 120 L 96.721199 120 L 99.121201 132 L 60.8792 132 Z M 103.043198 131.216003 L 100.643196 119.216003 C 100.269203 117.345993 98.627197 116 96.721199 116 L 63.279202 116 C 61.3722 116 59.731201 117.345993 59.357201 119.216003 L 56.957199 131.216003 C 56.4622 133.69101 58.355202 136 60.8792 136 L 99.121201 136 C 101.645203 136 103.5382 133.69101 103.043198 131.216003"/>
    <path id="path1" fill="#ffffff" stroke="none" d="M 244 146 C 244 147.105011 243.104996 148 242 148 L 198 148 C 196.895004 148 196 147.105011 196 146 L 196 122 C 196 120.895004 196.895004 120 198 120 L 242 120 C 243.104996 120 244 120.895004 244 122 Z M 198 152 L 216 152 L 216 158 C 216 159.104996 215.104996 160 214 160 L 162 160 C 160.894989 160 160 159.104996 160 158 L 160 118 C 160 116.895004 160.894989 116 162 116 L 198 116 C 194.692001 116 192 118.692001 192 122 L 192 146 C 192 149.307999 194.692001 152 198 152 M 223.733994 163.75 C 223.878006 166.053009 222.048996 168 219.742004 168 L 142.313995 168 C 148.460999 157.401001 152 145.110001 152 132 C 152 122.072006 149.972992 112.610992 146.320999 104 L 196 104 L 200 104 L 212 104 L 216.242004 104 C 218.354004 104 220.102997 105.641998 220.233994 107.75 L 220.75 116 L 219.649994 116 C 218.824005 113.673004 216.606003 112 214 112 L 162 112 C 158.692001 112 156 114.692001 156 118 L 156 158 C 156 161.307999 158.692001 164 162 164 L 214 164 C 217.307999 164 220 161.307999 220 158 L 220 152 L 223 152 Z M 80 200 C 42.505005 200 12 169.494995 12 132 C 12 101.462997 32.235001 75.567001 60 67.005997 C 60 67.005997 60 67.005997 60 67.005997 C 60.738998 66.778 61.487 66.571991 62.235992 66.369003 C 62.826004 66.212006 63.419006 66.059998 64.014008 65.916 C 69.143997 64.675003 74.494003 64 80 64 C 89.981003 64 99.455994 66.179001 108.003006 70.057999 C 108.917007 70.472992 109.820007 70.90799 110.712006 71.360001 C 110.731995 71.371002 110.751999 71.380997 110.772995 71.391998 C 111.641006 71.833008 112.498001 72.292999 113.343994 72.769989 C 113.404007 72.804993 113.464005 72.839996 113.524994 72.875 C 114.339996 73.337997 115.145996 73.81601 115.940002 74.311996 C 116.015999 74.359009 116.091003 74.410004 116.167999 74.458008 C 116.959999 74.957001 117.744003 75.468994 118.514 76 C 120.502998 77.372009 122.410004 78.850998 124.237999 80.421997 C 125.248001 81.289001 126.231003 82.182999 127.188004 83.106995 C 130.020996 85.841995 132.617996 88.81601 134.945007 92.002991 C 135.893005 93.300995 136.794006 94.634003 137.649002 95.998993 C 144.197998 106.447998 148 118.785004 148 132 C 148 145.214996 144.197998 157.552002 137.649002 168.001007 C 136.794006 169.365997 135.893005 170.699005 134.945007 171.997009 C 122.567001 188.953995 102.554001 200 80 200 M 146.209 76 L 150 76 C 150.932999 76 151.813004 75.779999 152.60199 75.39801 C 152.220001 76.186996 152 77.067001 152 78 L 152 80.722992 C 150.424011 78.774994 148.455002 77.156998 146.209 76 M 188 72.350006 C 187.373001 72.126999 186.701996 72 186 72 L 158 72 C 157.067001 72 156.186996 72.220001 155.39801 72.60199 C 155.779999 71.813004 156 70.932999 156 70 L 156 66 C 156 65.55899 155.934998 65.136002 155.84201 64.722992 C 169.121002 65.557007 181.992996 66.899002 188 67.567001 Z M 186 92 L 158 92 C 156.894989 92 156 91.104996 156 90 L 156 78 C 156 76.894989 156.894989 76 158 76 L 186 76 C 187.104996 76 188 76.894989 188 78 L 188 90 C 188 91.104996 187.104996 92 186 92 M 112 70 L 112 67.528 L 112 66 C 112 65.625 112.110001 65.278 112.289993 64.97699 C 112.459 64.695007 112.695999 64.460999 112.975998 64.290009 C 113.001007 64.274994 113.026993 64.263 113.052002 64.248993 C 113.162994 64.188004 113.281006 64.139999 113.403 64.100998 C 113.442001 64.088989 113.479996 64.074997 113.520004 64.065002 C 113.673996 64.026001 113.832993 64 114 64 L 150 64 C 150.126999 64 150.25 64.014999 150.369995 64.037003 C 150.440002 64.050995 150.507004 64.072998 150.574005 64.093994 C 150.617004 64.106995 150.658997 64.117004 150.699997 64.132996 C 150.790009 64.166992 150.876007 64.208008 150.958008 64.255005 C 150.970001 64.261002 150.981995 64.266998 150.992996 64.274002 C 151.084991 64.328003 151.173004 64.388 151.255997 64.455002 C 151.705994 64.821991 152 65.373993 152 66 L 152 70 C 152 71.105011 151.105011 72 150 72 L 119.739998 72 L 114 72 C 112.895004 72 112 71.105011 112 70 M 107.201996 65.359009 C 107.488998 65.335999 107.774994 65.313995 108.063004 65.291992 C 108.046005 65.425995 108.033997 65.561996 108.026993 65.699997 C 107.753006 65.584 107.477005 65.472 107.201996 65.359009 M 125.184998 76 L 129.791 76 C 128.86499 76.47699 127.994003 77.044998 127.168999 77.667999 C 126.516998 77.10199 125.857002 76.542999 125.184998 76 M 130.165009 80.419006 C 132.403 78.902008 135.09201 78 138 78 C 145.731995 78 152 84.268005 152 92 L 139.82901 92 C 137.014999 87.807999 133.772003 83.927002 130.165009 80.419006 M 142.324005 96 L 152 96 L 156 96 L 156 95.649994 C 156.626999 95.873001 157.298004 96 158 96 L 186 96 C 186.701996 96 187.373001 95.873001 188 95.649994 L 188 96 L 188 100 L 144.477997 100 C 143.800995 98.641998 143.083008 97.307999 142.324005 96 M 136 56 C 161.050003 56 183.102005 57.778 196 60.472992 L 196 100 L 192 100 L 192 90 L 192 78 L 192 64 C 192 64 159.011993 60 136 60 C 123.842003 60 108.903 61.115997 97.511993 62.169998 C 91.904007 60.757996 86.039993 60 80 60 C 79.386002 60 78.779999 60.031006 78.169006 60.04599 C 91.285995 57.59201 112.298996 56 136 56 M 208 66 L 208 100 L 200 100 L 200 61.419998 C 205.100998 62.792999 208 64.348999 208 66 M 242 116 L 224.757996 116 L 224.227005 107.501007 C 223.964005 103.294998 220.457001 100 216.242004 100 L 212 100 L 212 66 C 212 60.513 205.119995 57.419006 187.462006 54.96701 C 173.686005 53.054001 155.410004 52 136 52 C 116.589996 52 98.313995 53.054001 84.537994 54.96701 C 71.029007 56.843002 63.834 59.096008 61.195999 62.507004 C 30.587006 70.799011 8 98.804993 8 132 C 8 171.701004 40.298996 204 80 204 C 104.910004 204 126.901001 191.281006 139.833008 172 L 219.742004 172 C 221.942001 172 224.067001 171.080994 225.572998 169.477997 C 227.078995 167.875 227.863998 165.695999 227.727005 163.501007 L 227.007996 152 L 242 152 C 245.307999 152 248 149.307999 248 146 L 248 122 C 248 118.692001 245.307999 116 242 116"/>
    <path id="path2" fill="#ffffff" stroke="none" d="M 176 136 L 172 144 L 168 152 L 172 152 L 176 144 L 180 136 L 184 128 L 180 128 Z"/>
    <path id="path3" fill="#ffffff" stroke="none" d="M 88 168 L 88 148 L 108 148 C 108.589005 148 109.162003 147.932007 109.714996 147.809998 L 121.668999 155.779999 C 119.030998 160.38501 115.654999 164.511993 111.697998 168 Z M 38.331001 155.779999 L 48 149.333008 L 48 164 C 48 166.394989 49.063 168.541992 50.736 170.009003 C 45.722 166.139999 41.494999 161.303009 38.331001 155.779999 M 45.347 144.434998 L 35.830002 150.779999 C 34.783001 148.326996 33.945 145.764999 33.314999 143.123001 L 44 136 L 44 140 C 44 141.639999 44.497002 143.165009 45.347 144.434998 M 60 88.382004 L 60 100 L 56 100 C 51.589001 100 48 103.588989 48 108 L 48 120.647003 L 44.973999 128.68399 L 32.279999 137.147003 C 32.098 135.455002 32 133.738998 32 132 C 32 112.669006 43.493 95.981003 60 88.382004 M 80 100 L 76 100 L 76 84.179993 C 77.32 84.070007 78.652 84 80 84 Z M 115.738998 100 L 99.171997 100 L 103.656998 95.514999 L 111.138 95.514999 C 112.767998 96.90799 114.307999 98.403992 115.738998 100 M 105.737 91.514999 L 102 91.514999 L 93.514999 100 C 91.343002 97.82901 90 94.828003 90 91.514999 C 90 89.292999 90.620003 87.225006 91.674004 85.442993 C 96.726997 86.709991 101.459 88.785004 105.737 91.514999 M 84 96 L 84 92 L 84 84.179993 C 85.208 84.279999 86.405998 84.416992 87.587997 84.606003 C 86.574997 86.696991 86 89.037994 86 91.514999 C 86 94.56601 86.862 97.479004 88.446999 100 L 84 100 Z M 64 86.751999 C 66.573997 85.838989 69.247002 85.143005 72 84.679001 L 72 100 L 64 100 Z M 88 172 L 106.492996 172 C 101.012001 175.643005 94.741997 178.18399 88 179.320999 Z M 84 144 L 76 144 L 72 144 L 56 144 L 52 144 C 49.791 144 48 142.209 48 140 L 48 132 L 52 121.375 L 52.112999 121.074005 L 54.554001 114.591003 C 55.140999 113.031998 56.632 112 58.298 112 L 101.701996 112 C 102.119003 112 102.524002 112.065002 102.906998 112.186005 C 103.291 112.307007 103.652 112.484009 103.979004 112.710999 C 104.306 112.936996 104.598999 113.212006 104.848 113.528 C 105.096001 113.843994 105.298996 114.201004 105.445999 114.591003 L 107.999001 121.372009 L 109.319 124.880005 L 112 132 L 112 133.333008 L 112 140 C 112 140.248001 111.970001 140.487 111.927002 140.722 C 111.914001 140.79599 111.895004 140.867004 111.877998 140.938995 C 111.837997 141.102997 111.788002 141.263 111.729004 141.417999 C 111.701004 141.48999 111.677002 141.561996 111.645004 141.630997 C 111.554001 141.834991 111.449997 142.033005 111.326996 142.216995 C 110.610001 143.291 109.389 144 108 144 L 104 144 L 88 144 Z M 80 180 C 78.652 180 77.32 179.929993 76 179.820007 L 76 176 L 76 172 L 76 168 L 76 164 L 76 148 L 84 148 L 84 164 L 84 168 L 84 172 L 84 176 L 84 179.820007 C 82.68 179.929993 81.348 180 80 180 M 52 164 L 52 148 L 72 148 L 72 168 L 56 168 C 53.791 168 52 166.209 52 164 M 56 172 L 72 172 L 72 179.320999 C 64.496002 178.056 57.580002 175.048996 51.681999 170.723999 C 52.929001 171.528 54.409 172 56 172 M 126.684998 143.123001 C 126.055 145.764999 125.216995 148.326996 124.169998 150.779999 L 114.653 144.434998 C 115.502998 143.165009 116 141.639999 116 140 L 116 136 Z M 127.720001 137.147003 L 115.026001 128.68399 L 109.188995 113.181 C 108.023003 110.082001 105.014 108 101.701996 108 L 58.298 108 C 55.810001 108 53.493 109.175995 52 111.074997 L 52 108 C 52 105.791 53.791 104 56 104 L 60 104 L 72 104 L 76 104 L 118.949997 104 C 124.637001 111.888 128 121.556 128 132 C 128 133.738998 127.902 135.455002 127.720001 137.147003 M 131.252991 140.744995 C 131.735001 137.901001 132 134.981995 132 132 C 132 107.528992 115.091995 87.018005 92.323997 81.481995 C 92.306999 81.477997 92.290001 81.473999 92.273003 81.470001 C 88.335999 80.516998 84.229004 80 80 80 C 51.280998 80 28 103.281006 28 132 C 28 134.981995 28.264999 137.901001 28.747002 140.744995 C 28.747002 140.746002 28.747002 140.747009 28.747002 140.747009 C 29.634998 145.988007 31.306999 150.959 33.639 155.541992 C 33.646 155.557007 33.653999 155.571991 33.661999 155.587006 C 41.181 170.32901 55.516998 181.007004 72.524002 183.457001 C 73.127998 183.544006 73.734001 183.622009 74.345001 183.688995 C 74.625 183.718994 74.905998 183.744003 75.188004 183.770004 C 75.733002 183.820007 76.279999 183.860992 76.830002 183.895004 C 77.085999 183.910004 77.341003 183.927002 77.598 183.938995 C 78.393997 183.975998 79.194 184 80 184 C 80.806 184 81.606003 183.975998 82.402 183.938995 C 82.658997 183.927002 82.914001 183.910004 83.169998 183.895004 C 83.720001 183.860992 84.266998 183.820007 84.811996 183.770004 C 85.094002 183.744003 85.375 183.718994 85.654999 183.688995 C 86.265999 183.622009 86.872002 183.544006 87.475998 183.457001 C 98.18 181.915009 107.826004 177.11499 115.382996 170.09201 C 115.419998 170.057007 115.455002 170.022003 115.492004 169.988007 C 116.181 169.343994 116.849998 168.679993 117.502998 168 L 117.502998 168 C 121.022003 164.334991 124.007004 160.156998 126.337997 155.587006 C 126.346001 155.571991 126.354004 155.557007 126.361 155.541992 C 128.692993 150.959 130.365005 145.988007 131.252991 140.747009 C 131.252991 140.747009 131.252991 140.746002 131.252991 140.744995"/>
</svg>
