<?xml version="1.0" encoding="UTF-8"?>
<!-- Generated by Pixelmator Pro 3.7.1 -->
<svg width="256" height="256" viewBox="0 0 256 256" xmlns="http://www.w3.org/2000/svg">
    <path id="Path" fill="#ffffff" stroke="none" d="M 196.292999 202.079102 C 196.292999 207.593109 191.815002 212.079102 186.313004 212.079102 L 70.271996 212.079102 C 64.770004 212.079102 60.292999 207.593109 60.292999 202.079102 C 60.292999 196.564102 64.770004 192.079102 70.271996 192.079102 L 186.313004 192.079102 C 191.815002 192.079102 196.292999 196.564102 196.292999 202.079102 M 56.292999 202.079102 C 56.292999 209.799103 62.563995 216.079102 70.271996 216.079102 L 186.313004 216.079102 C 194.022003 216.079102 200.292999 209.799103 200.292999 202.079102 C 200.292999 194.3591 194.022003 188.079102 186.313004 188.079102 L 70.271996 188.079102 C 62.563995 188.079102 56.292999 194.3591 56.292999 202.079102"/>
    <path id="path1" fill="#ffffff" stroke="none" d="M 92 202 C 92 203.179001 91.237 204 90.552002 204 L 69.447998 204 C 68.763 204 68 203.179001 68 202 C 68 200.820999 68.763 200 69.447998 200 L 90.552002 200 C 91.237 200 92 200.820999 92 202 M 64 202 C 64 205.30899 66.444 208 69.447998 208 L 90.552002 208 C 93.556 208 96 205.30899 96 202 C 96 198.69101 93.556 196 90.552002 196 L 69.447998 196 C 66.444 196 64 198.69101 64 202"/>
    <path id="path2" fill="#ffffff" stroke="none" d="M 165.448196 200 L 186.5522 200 C 187.236206 200 188.000198 200.820999 188.000198 202 C 188.000198 203.179001 187.236206 204 186.5522 204 L 165.448196 204 C 164.762207 204 164.000198 203.179001 164.000198 202 C 164.000198 200.820999 164.762207 200 165.448196 200 M 165.448196 208 L 186.5522 208 C 189.555206 208 192.000198 205.30899 192.000198 202 C 192.000198 198.69101 189.555206 196 186.5522 196 L 165.448196 196 C 162.444199 196 160.000198 198.69101 160.000198 202 C 160.000198 205.30899 162.444199 208 165.448196 208"/>
    <path id="path3" fill="#ffffff" stroke="none" d="M 244 217.278305 C 244 218.446304 243.574005 219.512299 242.873001 220.335297 L 242.873001 220.336304 C 242.774002 220.451294 242.669998 220.561295 242.561005 220.667297 L 225.565994 238.740295 C 225.505005 238.805298 225.429993 238.853302 225.365005 238.914307 L 228.315994 197.603302 C 228.777008 191.146301 227.973999 184.758301 225.925995 178.61731 L 223.552002 171.496307 C 221.802994 166.248291 218.306 161.668304 213.703003 158.600296 C 210.178009 156.250305 206.072998 155.007294 201.811996 155.007294 L 191.100006 155.018311 C 188.966003 155.020294 186.809998 155.165298 184.690002 155.447296 L 132.089996 162.447296 C 129.393997 162.806305 126.609001 162.806305 123.910004 162.447296 L 71.311005 155.447296 C 69.190002 155.165298 67.033997 155.020294 64.899994 155.018311 L 54.164993 155.007294 C 49.925995 155.007294 45.822006 156.250305 42.296997 158.600296 C 37.694 161.669296 34.195999 166.248291 32.447006 171.496307 L 30.072998 178.61731 C 28.026001 184.757294 27.222 191.145294 27.682999 197.603302 L 30.613007 238.623291 L 13.481003 220.705292 C 13.356995 220.588303 13.238007 220.466309 13.126999 220.335297 L 13.126999 220.335297 C 12.425995 219.512299 12 218.446304 12 217.278305 L 12 217.091309 L 12 217.091309 L 12 30.305298 L 12 28.000305 C 12 20.211304 16.261002 16.000305 24 16.000305 L 32 16.000305 L 32 24.000305 C 32 28.411301 35.589005 32.000305 40 32.000305 L 91.070999 32.000305 C 86.397003 33.0513 81.858002 34.304306 77.481003 35.750305 L 48 35.750305 C 37 35.750305 28 44.750305 28 55.750305 L 28 56.000305 L 28 60.000305 L 28 64.000305 L 28 68.000305 L 28 72.000305 L 28 72.761307 C 25.365997 78.282303 24 84.069305 24 90.000305 C 24 95.930298 25.365997 101.7173 28 107.238297 L 28 108.250305 C 28 117.017303 33.718002 124.514297 41.608002 127.196304 C 42.117004 127.369308 43.748993 127.826294 46.274002 128.470306 C 49.050995 130.560303 52.057007 132.563293 55.315002 134.453308 C 74.824997 145.768295 100.638 152.000305 128 152.000305 C 155.362 152.000305 181.175003 145.768295 200.684998 134.453308 C 203.942001 132.563293 206.947998 130.560303 209.725998 128.470306 C 212.251999 127.826294 213.884003 127.369308 214.391998 127.196304 C 222.281998 124.514297 228 117.017303 228 108.250305 L 228 107.2323 C 230.632996 101.713303 232 95.928299 232 90.000305 C 232 84.071304 230.632996 78.287308 228 72.768311 L 228 72.000305 L 228 68.000305 L 228 64.000305 L 228 60.000305 L 228 56.000305 L 228 55.750305 C 228 44.750305 219 35.750305 208 35.750305 L 178.518997 35.750305 C 174.143005 34.304306 169.602997 33.0513 164.929001 32.000305 L 216 32.000305 C 220.410995 32.000305 224 28.411301 224 24.000305 L 224 16.000305 L 232 16.000305 C 239.738998 16.000305 244 20.211304 244 28.000305 Z M 96.472 162.831299 L 123.383003 166.412292 C 126.431 166.819305 129.572998 166.819305 132.617004 166.412292 L 159.528 162.831299 L 156.557007 180.657303 C 156.235001 182.586304 154.56601 184.000305 152.610992 184.000305 L 103.389008 184.000305 C 101.432999 184.000305 99.764999 182.586304 99.442993 180.657303 Z M 92.324997 162.279297 L 95.498001 181.315308 C 96.143005 185.188293 99.462006 188.000305 103.389008 188.000305 L 152.610992 188.000305 C 156.537994 188.000305 159.856995 185.188293 160.502991 181.315308 L 163.675995 162.279297 L 185.216995 159.412292 C 187.164001 159.15329 189.145996 159.020294 191.104004 159.018311 L 201.834991 159.007294 C 204.638 159.007294 207.30899 159.624298 209.559998 160.792297 C 214.330002 163.266296 218.048004 167.629303 219.759003 172.7603 L 222.132004 179.882294 C 224.011993 185.522308 224.75 191.388306 224.326996 197.318298 L 221.277008 240.000305 L 34.722 240.000305 L 31.673004 197.318298 C 31.25 191.387299 31.988007 185.521301 33.867996 179.882294 L 36.242004 172.7603 C 37.710999 168.353302 40.649002 164.507294 44.516006 161.928299 C 47.382004 160.017303 50.725998 159.007294 54.184998 159.007294 L 64.895996 159.018311 C 66.854996 159.020294 68.835007 159.15329 70.781998 159.412292 Z M 92.677002 35.750305 C 103.667007 33.334305 115.567001 32.000305 128 32.000305 C 140.432999 32.000305 152.332001 33.334305 163.322998 35.750305 Z M 198.320007 131.171295 C 180.240005 141.560303 155.401001 148.000305 128 148.000305 C 100.598007 148.000305 75.759995 141.560303 57.679001 131.170288 C 75.085007 135.02829 103.518997 140.250305 128 140.250305 C 152.481003 140.250305 180.914001 135.02829 198.320007 131.171295 M 224 108.250305 C 224 115.102295 219.621002 121.194305 213.104004 123.409302 C 209.906998 124.496307 163.975998 136.250305 128 136.250305 C 92.024994 136.250305 46.093002 124.496307 42.895996 123.409302 C 36.378998 121.194305 32 115.102295 32 108.250305 L 32 100.617294 C 34.875 103.340302 39.093994 106.250305 44 106.250305 C 52.186996 106.250305 71.722 110.346298 87.104996 118.039307 C 103.886002 126.428299 120.066002 130.250305 128 130.250305 C 135.93399 130.250305 152.113998 126.428299 168.894989 118.039307 C 184.278 110.346298 203.813004 106.250305 212 106.250305 C 216.906006 106.250305 221.125 103.340302 224 100.617294 L 224 106.249298 Z M 224 56.000305 L 220 56.000305 L 220 60.000305 L 224 60.000305 L 224 64.000305 L 220 64.000305 L 220 68.000305 L 224 68.000305 L 224 72.000305 L 220 72.000305 L 220 76.000305 L 224 76.000305 L 224 93.308304 C 220.535004 97.476303 215.718002 102.250305 212 102.250305 C 203.416992 102.250305 183.041 106.493301 167.105011 114.461304 C 151.626999 122.200302 135.71701 126.250305 128 126.250305 C 120.282997 126.250305 104.373001 122.200302 88.895004 114.461304 C 72.959 106.493301 52.582993 102.250305 44 102.250305 C 40.291 102.250305 35.468994 97.470306 32 93.300308 L 32 76.000305 L 36 76.000305 L 36 72.000305 L 32 72.000305 L 32 68.000305 L 36 68.000305 L 36 64.000305 L 32 64.000305 L 32 60.000305 L 36 60.000305 L 36 56.000305 L 32 56.000305 L 32 55.750305 C 32 46.927307 39.177994 39.750305 48 39.750305 L 208 39.750305 C 216.822006 39.750305 224 46.927307 224 55.750305 Z M 42 16.000305 L 42 22.000305 C 42 23.104309 42.895996 24.000305 44 24.000305 L 46 24.000305 L 46 16.000305 L 50 16.000305 L 50 24.000305 L 54 24.000305 L 54 16.000305 L 58 16.000305 L 58 24.000305 L 62 24.000305 L 62 16.000305 L 66 16.000305 L 66 24.000305 L 70 24.000305 L 70 16.000305 L 74 16.000305 L 74 24.000305 L 78 24.000305 L 78 16.000305 L 82 16.000305 L 82 24.000305 L 86 24.000305 L 86 16.000305 L 90 16.000305 L 90 24.000305 L 94 24.000305 L 94 16.000305 L 98 16.000305 L 98 24.000305 L 102 24.000305 L 102 16.000305 L 106 16.000305 L 106 24.000305 L 110 24.000305 L 110 16.000305 L 114 16.000305 L 114 24.000305 L 118 24.000305 L 118 16.000305 L 122 16.000305 L 122 24.000305 L 126 24.000305 L 126 16.000305 L 130 16.000305 L 130 24.000305 L 134 24.000305 L 134 16.000305 L 138 16.000305 L 138 24.000305 L 142 24.000305 L 142 16.000305 L 146 16.000305 L 146 24.000305 L 150 24.000305 L 150 16.000305 L 154 16.000305 L 154 24.000305 L 158 24.000305 L 158 16.000305 L 162 16.000305 L 162 24.000305 L 166 24.000305 L 166 16.000305 L 170 16.000305 L 170 24.000305 L 174 24.000305 L 174 16.000305 L 178 16.000305 L 178 24.000305 L 182 24.000305 L 182 16.000305 L 186 16.000305 L 186 24.000305 L 190 24.000305 L 190 16.000305 L 194 16.000305 L 194 24.000305 L 198 24.000305 L 198 16.000305 L 202 16.000305 L 202 24.000305 L 206 24.000305 L 206 16.000305 L 210 16.000305 L 210 24.000305 L 212 24.000305 C 213.104004 24.000305 214 23.104309 214 22.000305 L 214 16.000305 L 220 16.000305 L 220 24.000305 C 220 26.209305 218.209 28.000305 216 28.000305 L 40 28.000305 C 37.791 28.000305 36 26.209305 36 24.000305 L 36 16.000305 Z M 232 12.000305 L 224 12.000305 L 220 12.000305 L 214 12.000305 L 210 12.000305 L 206 12.000305 L 202 12.000305 L 198 12.000305 L 194 12.000305 L 190 12.000305 L 186 12.000305 L 182 12.000305 L 178 12.000305 L 174 12.000305 L 170 12.000305 L 166 12.000305 L 162 12.000305 L 158 12.000305 L 154 12.000305 L 150 12.000305 L 146 12.000305 L 142 12.000305 L 138 12.000305 L 134 12.000305 L 130 12.000305 L 126 12.000305 L 122 12.000305 L 118 12.000305 L 114 12.000305 L 110 12.000305 L 106 12.000305 L 102 12.000305 L 98 12.000305 L 94 12.000305 L 90 12.000305 L 86 12.000305 L 82 12.000305 L 78 12.000305 L 74 12.000305 L 70 12.000305 L 66 12.000305 L 62 12.000305 L 58 12.000305 L 54 12.000305 L 50 12.000305 L 46 12.000305 L 42 12.000305 L 36 12.000305 L 32 12.000305 L 24 12.000305 C 13.981003 12.000305 8 17.981308 8 28.000305 L 8 30.305298 L 8 217.091309 L 8 217.281296 C 8 219.347305 8.740005 221.354309 10.082993 222.930298 C 10.257996 223.1353 10.449005 223.338303 10.651993 223.534302 L 27.858002 241.528305 C 29.358994 243.099304 31.466995 244.000305 33.639999 244.000305 L 222.182007 244.000305 L 222.652008 244.000305 C 224.850006 244.000305 226.973999 243.082306 228.479004 241.480301 L 245.419998 223.465302 C 245.593002 223.295303 245.759003 223.115295 245.916 222.931305 C 247.259995 221.354309 248 219.346298 248 217.278305 L 248 28.000305 C 248 17.981308 242.018997 12.000305 232 12.000305"/>
    <path id="path4" fill="#ffffff" stroke="none" d="M 124 200 L 120 200 L 120 208 L 124 208 Z"/>
    <path id="path5" fill="#ffffff" stroke="none" d="M 136 200 L 132 200 L 132 208 L 136 208 Z"/>
    <path id="path6" fill="#ffffff" stroke="none" d="M 130 200 L 126 200 L 126 208 L 130 208 Z"/>
    <path id="path7" fill="#ffffff" stroke="none" d="M 212 72.25 C 212 74.207001 208.524002 78.541 205.408997 81.203003 L 205.285995 81.307999 L 205.173996 81.419998 C 204.953003 81.639999 190.919998 95.434998 170.109009 105.596008 C 169.947998 105.147003 169.727005 104.714005 169.395996 104.328003 C 165.412003 99.673004 156.477005 92.25 140 92.25 L 128 92.25 L 116 92.25 C 99.523003 92.25 90.586998 99.673004 86.603996 104.328003 C 86.274002 104.714005 86.051003 105.147003 85.889999 105.596008 C 65.080002 95.434998 51.046997 81.639999 50.828995 81.421005 L 50.714005 81.307999 L 50.591003 81.203003 C 47.473999 78.552002 44 74.223007 44 72.25 L 44 52.25 C 44 47.839005 47.589005 44.25 52 44.25 L 204 44.25 C 208.410995 44.25 212 47.839005 212 52.25 Z M 89.643997 106.928009 C 93.056999 102.940002 101.018997 96.25 116 96.25 L 128 96.25 L 140 96.25 C 154.979996 96.25 162.942993 102.940002 166.380005 106.945007 C 165.093994 107.708008 163.747009 108.404999 162.363998 109.048004 C 157.619003 110.970001 152.613007 112.638 147.399002 113.880005 C 138.406006 115.820007 130.498001 116.178009 128.468994 116.238007 C 128.334991 116.238998 128.203003 116.248001 128.069 116.248001 C 128.046997 116.248993 128.014999 116.25 128 116.25 C 127.986 116.25 127.953003 116.248993 127.93 116.248001 C 127.795998 116.248001 127.664001 116.238998 127.529999 116.238007 C 125.486 116.177002 117.512001 115.81601 108.471001 113.847 C 103.415001 112.634995 98.554001 111.026001 93.939003 109.171997 C 92.457001 108.492004 91.016998 107.746002 89.643997 106.928009 M 204 40.25 L 52 40.25 C 45.399994 40.25 40 45.649994 40 52.25 L 40 72.25 C 40 77.447006 48 84.25 48 84.25 C 48 84.25 66.389008 102.628998 92.939003 113.122009 C 97.666 115.212006 102.718002 116.694 107.475998 117.738007 C 113.752998 119.238998 120.328003 120.151001 127.098 120.227997 C 127.674004 120.247009 128 120.25 128 120.25 C 128 120.25 128.325989 120.247009 128.902008 120.227997 C 135.671997 120.151001 142.246002 119.238998 148.522995 117.738007 C 153.281998 116.694 158.334 115.212006 163.061996 113.122009 C 189.610992 102.628998 208 84.25 208 84.25 C 208 84.25 216 77.447006 216 72.25 L 216 52.25 C 216 45.649994 210.600006 40.25 204 40.25"/>
    <path id="path8" fill="#ffffff" stroke="none" d="M 200 68.25 C 200 74.867004 194.617004 80.25 188 80.25 L 68 80.25 C 61.382996 80.25 56 74.867004 56 68.25 L 56 64.25 C 56 57.632996 61.382996 52.25 68 52.25 L 188 52.25 C 194.617004 52.25 200 57.632996 200 64.25 Z M 188 48.25 L 68 48.25 C 59.199997 48.25 52 55.449997 52 64.25 L 52 68.25 C 52 77.050003 59.199997 84.25 68 84.25 L 188 84.25 C 196.800003 84.25 204 77.050003 204 68.25 L 204 64.25 C 204 55.449997 196.800003 48.25 188 48.25"/>
    <path id="path9" fill="#ffffff" stroke="none" d="M 176 71.898407 L 176 68.000397 L 183.597 68.000397 C 182.412994 70.530396 178.835999 71.517395 176 71.898407 M 72.375 68.000397 L 80 68.000397 L 80 71.906403 C 77.973 71.631393 76.193001 71.114395 74.824997 70.377396 C 73.444 69.633392 72.739998 68.806396 72.375 68.000397 M 76 60.134399 L 80 60.134399 L 80 63.999405 L 76 63.999405 Z M 168 60.134399 L 172 60.134399 L 172 63.999405 L 168 63.999405 Z M 92 68.000397 L 164 68.000397 L 164 72.135406 L 92 72.135406 Z M 92 60.134399 L 164 60.134399 L 164 63.999405 L 92 63.999405 Z M 88 64.000397 L 84 64.000397 L 84 60.135406 L 88 60.135406 Z M 84 68.000397 L 88 68.000397 L 88 72.135406 L 84 72.135406 Z M 172 72.134399 L 168 72.134399 L 168 67.999405 L 172 67.999405 Z M 180 64.000397 L 176 64.000397 L 176 60.135406 L 180 60.135406 Z M 184 56.134399 L 72 56.134399 L 72 60.000397 L 68 60.000397 L 68 66.134399 C 68 73.507401 75.987999 76.134399 83.463997 76.134399 L 172.535995 76.134399 C 180.011993 76.134399 188 73.507401 188 66.134399 L 188 60.000397 L 184 60.000397 Z"/>
</svg>
