<?xml version="1.0" encoding="UTF-8"?>
<!-- Generated by Pixelmator Pro 3.7.1 -->
<svg width="256" height="256" viewBox="0 0 256 256" xmlns="http://www.w3.org/2000/svg">
    <path id="Path" fill="#ffffff" stroke="none" d="M 128 244 C 63.929001 244 12 192.06601 12 128 C 12 63.934006 63.929001 12 128 12 C 192.050995 12 244 63.934006 244 128 C 244 192.06601 192.050995 244 128 244 M 212.847992 43.147003 C 190.181 20.481995 160.048004 8 128 8 C 95.945 8 65.808998 20.481995 43.144997 43.147003 C 20.481003 65.811005 8 95.945999 8 128 C 8 160.054001 20.481003 190.188995 43.144997 212.852997 C 65.808998 235.518005 95.945 248 128 248 C 160.048004 248 190.181 235.518005 212.847992 212.852997 C 235.515991 190.186996 248 160.052002 248 128 C 248 95.947998 235.515991 65.813004 212.847992 43.147003"/>
    <path id="path1" fill="#ffffff" stroke="none" d="M 128 167.504898 C 106.216995 167.504898 88.494995 149.782898 88.494995 127.999893 C 88.494995 106.216904 106.216995 88.494904 128 88.494904 C 149.779999 88.494904 167.5 106.216904 167.5 127.999893 C 167.5 149.782898 149.779999 167.504898 128 167.504898 M 128 84.494904 C 104.007004 84.494904 84.494995 104.011902 84.494995 127.999893 C 84.494995 151.9879 104.007004 171.504898 128 171.504898 C 151.988007 171.504898 171.5 151.9879 171.5 127.999893 C 171.5 104.011902 151.988007 84.494904 128 84.494904"/>
    <path id="path2" fill="#ffffff" stroke="none" d="M 128.002304 137.775604 C 122.6063 137.775604 118.216301 133.390594 118.216301 127.999603 C 118.216301 122.604599 122.6063 118.2146 128.002304 118.2146 C 133.393295 118.2146 137.779297 122.604599 137.779297 127.999603 C 137.779297 133.390594 133.393295 137.775604 128.002304 137.775604 M 128.002304 114.2146 C 120.406303 114.2146 114.216301 120.395599 114.216301 127.999603 C 114.216301 135.599609 120.406303 141.775604 128.002304 141.775604 C 135.602295 141.775604 141.779297 135.599609 141.779297 127.999603 C 141.779297 120.395599 135.602295 114.2146 128.002304 114.2146"/>
</svg>
