<?xml version="1.0" encoding="UTF-8"?>
<!-- Generated by Pixelmator Pro 3.7.1 -->
<svg width="256" height="256" viewBox="0 0 256 256" xmlns="http://www.w3.org/2000/svg">
    <path id="Path" fill="#ffffff" stroke="none" d="M 232 204 C 224 224 216 224 216 224 L 183.278 225.487 C 183.082001 215.953003 185.597 201.078003 189.622009 183.723999 L 211.248993 174.110992 C 214.138 172.826996 216 169.962997 216 166.800995 L 216 148 C 216 141.373001 210.626999 136 204 136 L 202.376999 136 C 212.735992 100.686996 224.701996 65.210999 231.145004 46.559998 C 250.878998 93.221008 239.623993 184.938995 232 204 M 24 204 C 16.376007 184.938995 5.121002 93.221008 24.854996 46.559998 C 31.298004 65.210999 43.264008 100.686996 53.623001 136 L 52 136 C 45.373001 136 40 141.373001 40 148 L 40 166.800995 C 40 169.962997 41.862 172.826996 44.751007 174.110992 L 71 185.777008 L 71 186.143005 C 70.968994 186.007004 70.940994 185.873993 70.910004 185.738007 L 66.378006 183.723999 C 70.403 201.078003 72.917999 215.953003 72.722 225.487 L 40 224 C 40 224 32 224 24 204 M 120 20.042007 L 120 20 L 136 20 L 136 20.042007 C 139.042999 20.087006 142.020996 20.182999 144.932007 20.324997 C 159.48999 21.033997 172.389008 22.876999 183.421997 25.167999 C 185.899002 25.682999 188.270996 26.220993 190.557999 26.772003 C 192.346008 27.203995 194.084991 27.641998 195.752991 28.087997 C 196.703995 28.341995 197.634995 28.597 198.546997 28.854004 C 201.281006 29.623001 203.839005 30.401993 206.212997 31.171997 C 210.822998 32.666 214.735001 34.123001 217.925995 35.410004 L 217.559006 36.335007 L 218.037994 36.533997 C 218.677002 39.653 219 42.835007 219 46 C 219 81.841003 178.178009 111 128 111 C 77.822006 111 37 81.841003 37 46 C 37 42.664993 37.360001 39.307999 38.069 36.022003 L 38.212997 35.354004 C 41.931 33.858002 46.613007 32.139008 52.222 30.399002 C 53.054001 30.141998 53.906006 29.884003 54.778 29.625 C 58.266006 28.593994 62.072006 27.567993 66.184006 26.591003 C 67.210999 26.347 68.257996 26.104996 69.324005 25.867996 C 81.048004 23.257996 95.054001 21.104004 111.068001 20.324997 C 113.978996 20.182999 116.958 20.087006 120 20.042007 M 184 181.845001 L 184 140 L 196 140 L 204 140 C 208.410995 140 212 143.589005 212 148 L 212 166.800995 C 212 168.380005 211.067001 169.813995 209.625 170.455994 Z M 72 181.845001 L 46.375 170.455994 C 44.932999 169.813995 44 168.380005 44 166.800995 L 44 148 C 44 143.589005 47.589005 140 52 140 L 60 140 L 72 140 Z M 128 228 L 76.720993 225.669006 C 76.923996 216.569 74.712997 202.742996 71.098999 186.589996 L 71.682999 186.785004 C 71.897003 186.856995 93.496994 193.949997 126.717003 193.949997 C 144.617004 193.949997 162.515991 191.890991 180 187.876999 L 180 188 L 180.585999 187.73999 C 181.886002 187.438004 183.188995 187.152008 184.484009 186.828003 L 184.869003 186.731995 C 181.274002 202.824005 179.076004 216.597 179.278992 225.669006 Z M 228.677994 41.460999 C 222.643005 58.824005 209.458008 97.541992 198.225998 136 L 196 136 L 180 136 L 180 183.906998 C 128.877991 195.740997 88.113998 187.196991 76 184.035004 L 76 136 L 60 136 L 57.774002 136 C 46.542007 97.541992 33.356995 58.824005 27.322006 41.460999 C 27.322006 41.460999 27.322006 41.460999 27.322006 41.460999 C 27.451996 41.270996 27.600998 41.095993 27.746002 40.917007 C 27.854996 40.783997 27.962006 40.649994 28.080002 40.524002 C 28.216003 40.376999 28.360001 40.237 28.507004 40.100006 C 28.673996 39.945999 28.848007 39.800003 29.028 39.660004 C 29.151001 39.563004 29.272003 39.464005 29.401001 39.375 C 29.727997 39.151001 30.065994 38.942001 30.427002 38.768005 C 31.311005 38.341003 32.440994 37.813995 33.791 37.218002 C 33.272995 40.177002 33 43.128006 33 46 C 33 64.623001 43.014008 82.061996 61.197006 95.106003 C 79.080002 107.934998 102.804001 115 128 115 C 153.195007 115 176.919998 107.934998 194.803009 95.106003 C 212.985992 82.061996 223 64.621994 223 46 C 223 43.130005 222.727005 40.177994 222.209 37.216995 C 223.559006 37.813995 224.688995 38.341003 225.572006 38.768005 C 225.934006 38.942001 226.270996 39.151001 226.598999 39.375 C 226.729004 39.464005 226.850006 39.563995 226.973007 39.660995 C 227.151993 39.800003 227.326004 39.945999 227.492004 40.100006 C 227.639999 40.237 227.783997 40.376999 227.921005 40.524994 C 228.037003 40.649994 228.145004 40.783005 228.253006 40.916 C 228.397995 41.095001 228.548004 41.270996 228.677994 41.460999 M 233.046997 41.078003 L 233.119003 40.867996 L 232.056 39.313995 C 231.740997 38.843994 231.395996 38.397003 231.020996 37.977997 C 231.009003 37.964996 230.996994 37.953995 230.985992 37.940994 C 230.649002 37.567993 230.294006 37.214005 229.914993 36.886993 C 229.906006 36.878998 229.897995 36.871002 229.889999 36.863007 C 229.531998 36.556 229.154999 36.274002 228.764008 36.011002 C 228.684998 35.957001 228.604004 35.906006 228.524002 35.854004 C 228.134003 35.604996 227.733002 35.369995 227.315002 35.167007 L 227.313004 35.167007 C 222.714005 32.942993 211.705002 28.104004 195.304993 23.847 C 194.153992 23.548004 192.968994 23.253998 191.766998 22.962006 C 177.835999 19.582993 160.403992 16.733002 140 16.128998 L 140 16.042007 L 136 16 L 120 16 L 116 16 L 116 16.128998 C 95.311996 16.742004 77.669998 19.660995 63.645004 23.102005 C 62.643997 23.348007 61.660004 23.595993 60.695007 23.847 C 44.294998 28.104004 33.285995 32.942993 28.686996 35.167007 C 28.686996 35.167007 28.686005 35.167007 28.686005 35.167007 C 28.266998 35.369003 27.867004 35.604996 27.475998 35.854004 C 27.395004 35.906006 27.315002 35.957001 27.235992 36.011002 C 26.845001 36.274002 26.468002 36.556 26.110992 36.862 C 26.102005 36.871002 26.093002 36.878998 26.084 36.888 C 25.705994 37.214996 25.350998 37.567993 25.014999 37.940002 C 25.003006 37.953003 24.990997 37.964996 24.979004 37.979004 C 24.604004 38.397003 24.259995 38.843994 23.945007 39.313004 L 22.880997 40.867996 L 22.951996 41.074005 C 16.057007 55.246002 8.311005 82.617996 10.061005 132.936996 C 10.940994 158.233002 15.005997 192.285995 20.285995 205.485001 C 28.664993 226.434006 37.792007 227.940994 39.867996 227.998001 L 72.634003 229.487 L 76.539001 229.665009 L 127.818001 231.996002 L 128 232.003998 L 128.182007 231.996002 L 179.460999 229.665009 L 183.365997 229.487 L 216.132004 227.998001 C 218.208008 227.940994 227.335007 226.434006 235.714005 205.485001 C 240.994003 192.285995 245.059998 158.233002 245.938995 132.936996 C 246.908997 105.054993 245.447006 66.557007 233.046997 41.078003"/>
    <path id="path1" fill="#ffffff" stroke="none" d="M 128 36 C 172.813995 36 197.136002 43.684998 205.063004 46.755005 C 206.916992 47.472992 208.428009 48.854996 209.31601 50.632996 L 210.794006 53.587997 C 211.899994 55.800995 211.962006 58.417999 210.856003 60.630997 C 204.235001 73.890991 169.658997 84 128 84 C 86.341003 84 51.764999 73.890991 45.143997 60.630997 C 44.039001 58.417999 44.099998 55.800995 45.206001 53.587997 L 46.683998 50.632996 C 47.571999 48.854996 49.083 47.472992 50.935997 46.755005 C 58.863998 43.684998 83.184998 36 128 36 M 43.106003 48.843994 L 41.627998 51.798996 C 39.946999 55.160995 39.924004 59.130997 41.565002 62.417999 C 49.085999 77.479996 84.628998 88 128 88 C 171.371002 88 206.914001 77.479996 214.436005 62.417999 C 216.075989 59.130997 216.053009 55.160995 214.372009 51.798996 L 212.894989 48.843994 C 211.557007 46.167999 209.287994 44.102005 206.507996 43.024994 C 197.947998 39.710007 173.162003 32 128 32 C 82.837997 32 58.052002 39.710007 49.491997 43.024994 C 46.711998 44.102005 44.444 46.167999 43.106003 48.843994"/>
    <path id="path2" fill="#ffffff" stroke="none" d="M 68 64 L 56 64 L 56 60 L 68 60 Z M 56 52 L 68 52 L 68 56 L 56 56 Z M 184 56 L 72 56 L 72 52 L 184 52 Z M 200 56 L 188 56 L 188 52 L 200 52 Z M 200 64 L 188 64 L 188 60 L 200 60 Z M 72 60 L 184 60 L 184 64 L 72 64 Z M 56 68 L 68 68 L 72 68 L 184 68 L 188 68 L 200 68 C 202.209 68 204 66.209 204 64 L 204 60 L 204 56 L 204 52 C 204 49.791 202.209 48 200 48 L 188 48 L 184 48 L 72 48 L 68 48 L 56 48 C 53.791 48 52 49.791 52 52 L 52 56 L 52 60 L 52 64 C 52 66.209 53.791 68 56 68"/>
    <path id="path3" fill="#ffffff" stroke="none" d="M 124 76 L 132 76 L 128 72 Z"/>
    <path id="path4" fill="#ffffff" stroke="none" d="M 200 148 C 198.895996 148 198 148.895996 198 150 C 198 151.104004 198.895996 152 200 152 C 201.104004 152 202 151.104004 202 150 C 202 148.895996 201.104004 148 200 148"/>
    <path id="path5" fill="#ffffff" stroke="none" d="M 48 162 C 48 163.104004 48.896 164 50 164 L 62 164 C 63.104 164 64 163.104004 64 162 C 64 160.895996 63.104 160 62 160 L 50 160 C 48.896 160 48 160.895996 48 162"/>
    <path id="path6" fill="#ffffff" stroke="none" d="M 194 156 C 192.895996 156 192 156.895996 192 158 C 192 159.104004 192.895996 160 194 160 C 195.104004 160 196 159.104004 196 158 C 196 156.895996 195.104004 156 194 156"/>
    <path id="path7" fill="#ffffff" stroke="none" d="M 206 156 C 204.895996 156 204 156.895996 204 158 C 204 159.104004 204.895996 160 206 160 C 207.104004 160 208 159.104004 208 158 C 208 156.895996 207.104004 156 206 156"/>
</svg>
