<?xml version="1.0" encoding="UTF-8"?>
<!-- Generated by Pixelmator Pro 3.7.1 -->
<svg width="256" height="256" viewBox="0 0 256 256" xmlns="http://www.w3.org/2000/svg">
    <path id="Path" fill="#ffffff" stroke="none" d="M 194 44 C 192.895996 44 192 44.895996 192 46 C 192 47.104004 192.895996 48 194 48 C 195.104004 48 196 47.104004 196 46 C 196 44.895996 195.104004 44 194 44"/>
    <path id="path1" fill="#ffffff" stroke="none" d="M 186 44 C 184.895996 44 184 44.895996 184 46 C 184 47.104004 184.895996 48 186 48 C 187.104004 48 188 47.104004 188 46 C 188 44.895996 187.104004 44 186 44"/>
    <path id="path2" fill="#ffffff" stroke="none" d="M 178 44 C 176.895996 44 176 44.895996 176 46 C 176 47.104004 176.895996 48 178 48 C 179.104004 48 180 47.104004 180 46 C 180 44.895996 179.104004 44 178 44"/>
    <path id="path3" fill="#ffffff" stroke="none" d="M 170 44 C 168.895996 44 168 44.895996 168 46 C 168 47.104004 168.895996 48 170 48 C 171.104004 48 172 47.104004 172 46 C 172 44.895996 171.104004 44 170 44"/>
    <path id="path4" fill="#ffffff" stroke="none" d="M 234.076202 223.623993 C 230.816193 228.281006 223.305206 230.742996 212.356201 230.742996 C 206.387207 230.742996 199.347198 230.007996 191.4142 228.569 C 191.786194 227.789001 192.000198 226.919998 192.000198 226 C 192.000198 222.690994 189.308197 220 186.000198 220 L 178.000198 220 C 174.691208 220 172.000198 222.690994 172.000198 226 C 172.000198 226.701996 172.127197 227.373001 172.349197 228 L 135.936203 228 L 120.063202 228 L 68.474197 228 L 68.085205 228 L 67.704208 228.074997 C 58.680202 229.846008 50.735195 230.742996 44.0872 230.742996 C 33.093197 230.742996 25.506193 228.270996 22.145201 223.595001 C 18.4662 218.475998 20.646208 211.807999 20.661207 211.763 L 20.691206 211.677002 L 20.717207 211.589996 L 35.141201 163.453003 C 35.420193 162.519989 36.017193 161.729004 36.822201 161.223999 C 38.5312 160.151001 39.870205 160.014999 40.070202 160 L 44.000195 160 L 48.000195 160 L 48.000195 156 L 48.000195 148 L 120.063202 148 L 135.936203 148 L 208.000198 148 L 208.000198 156 L 208.000198 160 L 211.992203 160 L 212.000198 160 L 215.930206 160 C 216.130203 160.014999 217.469193 160.151001 219.178207 161.223999 C 219.982193 161.729004 220.5802 162.519989 220.859207 163.453003 L 235.283203 211.589996 L 235.316193 211.701004 L 235.356201 211.811005 C 235.380203 211.876007 237.648193 218.520996 234.076202 223.623993 M 178.000198 228 C 176.900208 228 176.000198 227.100006 176.000198 226 C 176.000198 224.899994 176.900208 224 178.000198 224 L 186.000198 224 C 187.099197 224 188.000198 224.899994 188.000198 226 C 188.000198 227.100006 187.099197 228 186.000198 228 Z M 120.000206 46 L 120.000206 108 L 48.000195 108 L 48.000195 104 L 48.000195 40 L 122.019203 40 C 120.758202 41.673996 120.000206 43.747986 120.000206 46 M 121.079201 128 L 48.000195 128 L 48.000195 112 L 120.000206 112 L 120.000206 122 L 120.000206 124 C 120.000206 125.459 120.397202 126.821991 121.079201 128 M 196.000198 136 L 140.000198 136 L 140.000198 132 L 196.000198 132 Z M 140.000198 124 L 196.000198 124 L 196.000198 128 L 140.000198 128 Z M 196.000198 120 L 140.000198 120 L 136.000198 120 L 136.000198 124 L 136.000198 128 L 132.000198 128 L 130.000198 128 C 126.686203 128 124.000206 125.313004 124.000206 122 L 124.000206 112 L 124.000206 108 L 124.000206 46 C 124.000206 42.686996 126.686203 40 130.000198 40 L 196.000198 40 C 202.627197 40 208.000198 45.372986 208.000198 52 L 208.000198 108 L 208.000198 112 L 208.000198 122 C 208.000198 125.313004 205.313202 128 202.000198 128 L 200.000198 128 L 200.000198 124 L 200.000198 120 Z M 36.000195 140 L 36.000195 48 L 36.000195 44 C 36.000195 34.026993 49.923199 29.028 63.884197 26.520996 C 68.217209 27.113998 75.173203 28.829987 77.171204 30.828995 L 78.343201 32 L 80.000198 32 L 116.000206 32 L 124.000206 32 L 132.000198 32 L 140.000198 32 L 176.000198 32 L 177.657196 32 L 178.828201 30.828995 C 180.827194 28.829987 187.781204 27.11499 192.116196 26.520996 C 206.077194 29.028 220.000198 34.028 220.000198 44 L 220.000198 76 L 218.000198 76 C 214.691193 76 212.000198 78.690994 212.000198 82 L 212.000198 52 L 212.000198 48 C 212.000198 41.372986 206.627197 36 200.000198 36 L 196.000198 36 L 130.000198 36 L 48.000195 36 C 45.791195 36 44.000195 37.791 44.000195 40 L 44.000195 104 L 44.000195 108 L 44.000195 128 C 44.000195 130.209 45.791195 132 48.000195 132 L 128.000198 132 L 130.000198 132 L 132.000198 132 L 136.000198 132 L 136.000198 136 L 136.000198 140 L 140.000198 140 L 196.000198 140 L 200.000198 140 L 200.000198 136 L 200.000198 132 L 202.000198 132 L 208.000198 132 C 210.209198 132 212.000198 130.209 212.000198 128 L 212.000198 122 L 212.000198 112 L 212.000198 108 L 212.000198 94 C 212.000198 97.30899 214.691193 100 218.000198 100 L 220.000198 100 L 220.000198 140 L 220.000198 152 C 220.000198 154.209 218.209198 156 216.000198 156 L 212.000198 156 L 212.000198 144 L 135.936203 144 L 120.063202 144 L 44.000195 144 L 44.000195 156 L 40.000195 156 C 37.791195 156 36.000195 154.209 36.000195 152 Z M 164.000198 24 C 164.000198 24 171.670197 24.000992 181.331207 25.014999 C 179.189194 25.796997 177.221207 26.778992 176.000198 28 L 140.000198 28 L 132.000198 28 L 124.000206 28 L 116.000206 28 L 80.000198 28 C 78.779205 26.778992 76.810196 25.796997 74.669205 25.014999 C 84.3302 24.000992 92.000198 24 92.000198 24 Z M 224.000198 86 C 224.000198 87.103989 223.104202 88 222.000198 88 L 221.000198 88 C 220.447205 88 220.000198 88.447998 220.000198 89 L 220.000198 91 C 220.000198 91.551987 220.447205 92 221.000198 92 L 222.000198 92 C 223.104202 92 224.000198 92.894989 224.000198 94 C 224.000198 95.103989 223.104202 96 222.000198 96 L 220.000198 96 L 218.000198 96 C 216.895203 96 216.000198 95.103989 216.000198 94 L 216.000198 82 C 216.000198 81.585999 216.126205 81.200989 216.342194 80.881989 C 216.485199 80.668991 216.669205 80.484985 216.882202 80.341995 C 217.201202 80.125992 217.586197 80 218.000198 80 L 220.000198 80 L 220.000198 84 L 222.000198 84 C 223.104202 84 224.000198 84.894989 224.000198 86 M 239.114197 210.44101 L 224.690201 162.304993 C 224.147202 160.490997 222.977203 158.921997 221.389206 157.895004 C 222.989197 156.432007 224.000198 154.334 224.000198 152 L 224.000198 140 L 224.000198 99.649994 C 226.326202 98.82399 228.000198 96.606003 228.000198 94 C 228.000198 92.464996 227.420197 91.061996 226.469193 90 C 227.420197 88.936996 228.000198 87.534988 228.000198 86 C 228.000198 83.39299 226.328201 81.167999 224.000198 80.342987 L 224.000198 80 L 224.000198 76 L 224.000198 44 C 224.000198 33.482986 213.471207 26.269989 192.703201 22.561996 C 178.517197 20.028992 164.586197 20 164.000198 20 L 92.000198 20 C 91.4142 20 77.4832 20.028992 63.297192 22.561996 C 42.530193 26.269989 32.000195 33.482986 32.000195 44 L 32.000195 48 L 32.000195 140 L 32.000195 152 C 32.000195 154.334 33.011196 156.432007 34.611202 157.895004 C 33.022198 158.921997 31.853193 160.490997 31.309202 162.304993 L 16.886198 210.44101 C 16.886198 210.44101 8.382199 234.742996 44.0872 234.742996 C 50.626202 234.742996 58.646206 233.929001 68.474197 232 L 120.063202 232 L 135.936203 232 L 178.000198 232 L 186.000198 232 L 188.000198 232 C 197.824203 233.927994 205.838196 234.742996 212.356201 234.742996 C 247.966202 234.742996 239.114197 210.44101 239.114197 210.44101"/>
    <path id="path5" fill="#ffffff" stroke="none" d="M 60.108898 202 C 59.477901 203.578003 56.2799 204.856995 52.9659 204.856995 C 49.651901 204.856995 47.477901 203.578003 48.108898 202 C 48.739899 200.421997 51.937901 199.143005 55.2519 199.143005 C 58.565899 199.143005 60.739899 200.421997 60.108898 202 M 44.680901 200.570999 C 42.470898 200.570999 41.447899 198.652008 42.394897 196.285995 C 43.3409 193.919006 45.899899 192 48.108898 192 C 50.317898 192 51.3409 193.919006 50.394901 196.285995 C 49.447899 198.652008 46.8899 200.570999 44.680901 200.570999 M 45.822899 207.714005 C 44.8769 210.080994 42.317898 212 40.108898 212 C 37.899899 212 36.8769 210.080994 37.822899 207.714005 C 38.769897 205.347992 41.328899 203.429001 43.537899 203.429001 C 45.746899 203.429001 46.769901 205.347992 45.822899 207.714005 M 32.9659 204.856995 C 29.651899 204.856995 27.4779 203.578003 28.1089 202 C 28.739901 200.421997 31.937901 199.143005 35.2519 199.143005 C 38.565899 199.143005 40.739899 200.421997 40.108898 202 C 39.477898 203.578003 36.2799 204.856995 32.9659 204.856995 M 35.999901 182 C 35.999901 178.686996 41.372898 176 47.999901 176 C 54.627899 176 59.999901 178.686996 59.999901 182 C 59.999901 185.313004 54.627899 188 47.999901 188 C 41.372898 188 35.999901 185.313004 35.999901 182 M 55.2519 195.143005 C 55.0779 195.143005 54.902901 195.145996 54.727901 195.149994 C 54.825901 193.792999 54.566898 192.492996 53.9589 191.360001 C 60.017899 189.975998 63.999901 186.458008 63.999901 182 C 63.999901 176.205994 57.270901 172 47.999901 172 C 38.728901 172 31.999901 176.205994 31.999901 182 C 31.999901 186.233002 35.5909 189.617996 41.1409 191.13501 C 40.088898 192.179993 39.228901 193.431 38.680901 194.800003 C 38.589901 195.027008 38.5089 195.255005 38.437901 195.481995 C 37.462898 195.259003 36.393898 195.143005 35.2519 195.143005 C 30.9179 195.143005 25.8799 196.804001 24.394899 200.514999 C 23.717901 202.205994 23.9149 204.039001 24.933901 205.544998 C 26.3589 207.649002 29.2869 208.856995 32.9659 208.856995 C 33.1399 208.856995 33.314899 208.854004 33.489899 208.850006 C 33.3759 210.436005 33.748898 211.944 34.596901 213.196991 C 35.802898 214.979004 37.811897 216 40.108898 216 C 43.932899 216 47.985901 213.076004 49.5369 209.199997 C 49.627899 208.972992 49.7089 208.744995 49.780899 208.518005 C 50.754898 208.740997 51.823898 208.856995 52.9659 208.856995 C 57.3009 208.856995 62.338902 207.195999 63.822899 203.485001 C 64.499901 201.794006 64.302902 199.960999 63.283901 198.455002 C 61.858898 196.350998 58.930901 195.143005 55.2519 195.143005"/>
    <path id="path6" fill="#ffffff" stroke="none" d="M 211.992203 164 C 213.7332 164 215.3452 165.14801 215.846207 166.899994 L 218.043198 174.593002 L 220.241196 182.283997 L 220.241196 182.285004 L 227.933197 209.208008 C 228.538193 211.322998 227.3022 213.548004 225.186203 214.152008 C 224.822205 214.257004 224.456207 214.306 224.0952 214.306 C 222.353195 214.306 220.741196 213.156998 220.241196 211.404999 L 218.044205 203.714005 C 218.043198 203.714005 218.043198 203.714005 218.043198 203.712997 L 210.351196 176.791 C 210.351196 176.790009 210.351196 176.790009 210.350204 176.790009 L 208.153198 169.098999 C 207.549194 166.983002 208.785202 164.757996 210.900208 164.153 C 211.264206 164.050003 211.631195 164 211.992203 164 M 72.000198 208 L 80.000198 160 L 200.000198 160 L 208.000198 208 Z M 204.808197 164.520996 L 203.945206 159.343002 L 203.388199 156 L 200.000198 156 L 80.000198 156 L 76.611206 156 L 76.055206 159.343002 L 68.055206 207.343002 L 67.278198 212 L 72.000198 212 L 208.000198 212 L 212.721207 212 L 211.945206 207.343002 L 207.781204 182.354996 L 214.197205 204.813004 L 216.395203 212.503998 C 217.371201 215.919998 220.537201 218.306 224.0952 218.306 C 224.834198 218.306 225.571198 218.203003 226.285202 217.998993 C 230.526199 216.787003 232.991196 212.350998 231.779205 208.108002 L 224.087204 181.186996 L 221.889206 173.494003 L 219.691193 165.802002 C 218.716202 162.386002 215.550201 160 211.992203 160 C 211.252197 160 210.515198 160.104004 209.8022 160.307999 C 207.5242 160.958008 205.767197 162.541992 204.808197 164.520996"/>
</svg>
