<?xml version="1.0" encoding="UTF-8"?>
<!-- Generated by Pixelmator Pro 3.7.1 -->
<svg width="256" height="256" viewBox="0 0 256 256" xmlns="http://www.w3.org/2000/svg">
    <path id="Path" fill="#ffffff" stroke="none" d="M 210 207.971695 L 209.936005 207.971695 C 209.630005 210.634705 208.018997 212.992706 205.587006 214.210693 C 191.069 221.483704 144.769989 243.999695 128 243.999695 C 111.230003 243.999695 64.931 221.483704 50.412994 214.210693 C 47.981003 212.992706 46.369995 210.634705 46.063995 207.971695 L 46 207.971695 L 46 207.054703 L 46 186.908691 L 47.472 186.955688 C 48.910995 186.998703 50.330994 187.265701 51.692001 187.746704 L 57.959 189.95871 C 56.151001 190.153702 54.475998 190.9487 53.171005 192.251709 L 50.343002 195.080704 C 48.832001 196.591705 48 198.600708 48 200.737701 L 48 202.838699 C 48 205.519699 49.332001 208.007706 51.563004 209.494705 L 62.671997 216.901703 C 63.660995 217.560699 64.811996 217.909698 66 217.909698 C 67.244003 217.909698 68.438995 217.530701 69.457001 216.813705 C 71.466995 215.396698 72.417007 212.840698 71.820999 210.453705 L 68.199997 195.968704 C 67.932007 194.896698 67.453003 193.924698 66.819 193.085693 L 97.538002 203.926697 C 96.247002 204.011703 94.084 204.409698 92.417 204.972702 C 89.305 206.023697 87.621002 209.421692 88.664001 212.549698 L 92.055 222.723694 C 92.454002 225.648697 94.968002 227.908707 98 227.908707 C 99.621002 227.908707 101.091003 227.260696 102.170998 226.212708 C 103.254997 233.9897 109.93 239.999695 118 239.999695 L 138 239.999695 C 146.070007 239.999695 152.744995 233.9897 153.828003 226.212708 C 154.908997 227.260696 156.378998 227.908707 158 227.908707 C 161.031998 227.908707 163.546997 225.648697 163.945007 222.723694 L 167.335999 212.549698 C 168.378998 209.421692 166.694 206.023697 163.582001 204.972702 C 161.929001 204.413696 159.785004 204.0177 158.490005 203.928696 L 189.190994 193.092697 C 188.561005 193.930695 188.083008 194.900696 187.815994 195.968704 L 184.195007 210.453705 C 183.597992 212.840698 184.548996 215.396698 186.559998 216.813705 C 187.576004 217.530701 188.770996 217.909698 190.016006 217.909698 C 191.203995 217.909698 192.354996 217.560699 193.343994 216.901703 L 204.453003 209.494705 C 206.684006 208.007706 208.016006 205.519699 208.016006 202.838699 L 208.016006 200.737701 C 208.016006 198.600708 207.184006 196.591705 205.673004 195.080704 L 202.843994 192.251709 C 201.542999 190.950699 199.871002 190.156708 198.067001 189.959702 L 204.098007 187.831696 C 205.598999 187.301697 207.166 187.033691 208.755997 187.033691 L 210 187.033691 L 210 207.054703 Z M 67.906998 212.452698 C 67.783997 212.883698 67.533997 213.274704 67.151993 213.543701 C 66.807007 213.786697 66.404007 213.908691 66 213.908691 C 65.759995 213.908691 65.524002 213.850708 65.296005 213.763702 C 66.279007 213.546692 67.169006 213.087708 67.906998 212.452698 M 58 207.909698 C 58 208.300705 58.041 208.683701 58.113007 209.054703 L 55.998993 207.645691 C 56.639999 207.811707 57.307999 207.909698 58 207.909698 M 54 199.908691 C 54 197.700699 55.791 195.908691 58 195.908691 C 60.209 195.908691 62 197.700699 62 199.908691 C 62 202.117706 60.209 203.909698 58 203.909698 C 55.791 203.909698 54 202.117706 54 199.908691 M 64 209.908691 C 62.895996 209.908691 62 209.013702 62 207.909698 C 62 206.804703 62.895996 205.908691 64 205.908691 C 65.104004 205.908691 66 206.804703 66 207.909698 C 66 209.013702 65.104004 209.908691 64 209.908691 M 100 209.908691 L 100 221.909698 C 100 223.008698 99.099998 223.909698 98 223.909698 C 96.900002 223.909698 96 223.008698 96 221.909698 L 92.458 211.284698 C 92.112 210.245697 92.660004 209.112701 93.696999 208.762695 C 95.223 208.246704 97.325996 207.909698 98 207.909698 C 99.099998 207.909698 100 208.808701 100 209.908691 M 150 223.999695 C 150 230.599701 144.600006 235.999695 138 235.999695 L 118 235.999695 C 111.400002 235.999695 106 230.599701 106 223.999695 C 106 219.599701 109.599998 215.999695 114 215.999695 L 142 215.999695 C 146.399994 215.999695 150 219.599701 150 223.999695 M 152 209.908691 L 152 217.380707 C 149.848999 214.141693 146.171997 211.999695 142 211.999695 L 114 211.999695 C 109.829002 211.999695 106.151001 214.141693 104 217.380707 L 104 209.908691 C 104 208.183701 103.264 206.630707 102.094002 205.534698 L 112.828003 209.3237 C 116.043999 210.457703 119.403 211.033691 122.811996 211.033691 L 133.220001 211.033691 C 136.627991 211.033691 139.987 210.457703 143.20401 209.3237 L 153.886002 205.553696 C 152.727997 206.647705 152 208.193695 152 209.908691 M 158 207.909698 C 158.675003 207.909698 160.776001 208.246704 162.303009 208.762695 C 163.339996 209.112701 163.888 210.245697 163.541 211.284698 L 160 221.909698 C 160 223.008698 159.100006 223.909698 158 223.909698 C 156.899994 223.909698 156 223.008698 156 221.909698 L 156 209.908691 C 156 208.808701 156.899994 207.909698 158 207.909698 M 190.367996 202.253693 C 191.373001 205.524704 194.419998 207.909698 198.016006 207.909698 C 198.708008 207.909698 199.376007 207.811707 200.016998 207.645691 L 191.125 213.5737 C 190.789001 213.796692 190.402008 213.908691 190.016006 213.908691 C 189.612 213.908691 189.209 213.786697 188.863007 213.543701 C 188.188004 213.068695 187.875 212.225708 188.074997 211.423706 Z M 198.016006 195.908691 C 200.225006 195.908691 202.016006 197.700699 202.016006 199.908691 C 202.016006 202.117706 200.225006 203.909698 198.016006 203.909698 C 195.807007 203.909698 194.016006 202.117706 194.016006 199.908691 C 194.016006 197.700699 195.807007 195.908691 198.016006 195.908691 M 210 63.999695 L 210 183.033691 L 208.755997 183.033691 C 206.710999 183.033691 204.695999 183.377701 202.766006 184.058701 L 141.872009 205.550705 C 139.087006 206.534698 136.175995 207.033691 133.220001 207.033691 L 122.811996 207.033691 C 119.855003 207.033691 116.944 206.534698 114.158997 205.549698 L 53.024002 183.973694 C 51.270996 183.356689 49.445007 183.014709 47.595993 182.957703 L 46 182.9077 L 46 63.999695 Z M 46 20.006699 C 46 15.602692 49.600006 11.999695 54 11.999695 L 202 11.999695 C 206.399994 11.999695 210 15.602692 210 20.006699 L 210 59.999695 L 46 59.999695 Z M 202 7.999695 L 54 7.999695 C 47.382996 7.999695 42 13.385696 42 20.006699 L 42 207.054703 L 42 207.971695 L 42 211.971695 L 43.057007 211.971695 C 44.169006 214.464691 46.112 216.530701 48.621994 217.786697 C 66.755005 226.870697 110.789001 247.999695 128 247.999695 C 145.212006 247.999695 189.244995 226.870697 207.378006 217.786697 C 209.889008 216.530701 211.830994 214.464691 212.942993 211.971695 L 214 211.971695 L 214 207.971695 L 214 207.054703 L 214 20.006699 C 214 13.385696 208.617004 7.999695 202 7.999695"/>
    <path id="path1" fill="#ffffff" stroke="none" d="M 189.174805 45.634796 C 187.285797 47.137802 184.670807 47.999802 181.999802 47.999802 L 179.999802 47.999802 L 179.999802 43.999802 L 190.727798 43.999802 C 190.244797 44.677795 189.692795 45.222794 189.174805 45.634796 M 79.999794 43.999802 L 175.999802 43.999802 L 175.999802 47.999802 L 79.999794 47.999802 Z M 73.999794 47.999802 C 71.328796 47.999802 68.714798 47.137802 66.825798 45.634796 C 66.3078 45.222794 65.754799 44.677795 65.272797 43.999802 L 75.999794 43.999802 L 75.999794 47.999802 Z M 67.999794 35.999802 L 75.999794 35.999802 L 75.999794 39.999802 L 67.999794 39.999802 Z M 175.999802 39.999802 L 79.999794 39.999802 L 79.999794 35.999802 L 175.999802 35.999802 Z M 187.999802 39.999802 L 179.999802 39.999802 L 179.999802 35.999802 L 187.999802 35.999802 Z M 191.999802 31.999802 L 179.999802 31.999802 L 175.999802 31.999802 L 79.999794 31.999802 L 75.999794 31.999802 L 63.999798 31.999802 L 63.999798 35.999802 L 59.999798 35.999802 L 59.999798 39.999802 C 59.999798 47.372803 66.892799 51.999802 73.999794 51.999802 L 75.999794 51.999802 L 79.999794 51.999802 L 175.999802 51.999802 L 179.999802 51.999802 L 181.999802 51.999802 C 189.107803 51.999802 195.999802 47.372803 195.999802 39.999802 L 195.999802 35.999802 L 191.999802 35.999802 Z"/>
    <path id="path2" fill="#ffffff" stroke="none" d="M 128 72 C 163.290009 72 192 100.709991 192 136 C 192 171.290009 163.290009 200 128 200 C 92.709999 200 64 171.290009 64 136 C 64 100.709991 92.709999 72 128 72 M 128 204 C 165.494995 204 196 173.494995 196 136 C 196 98.505005 165.494995 68 128 68 C 90.505005 68 60 98.505005 60 136 C 60 173.494995 90.505005 204 128 204"/>
    <path id="path3" fill="#ffffff" stroke="none" d="M 128 84 C 156.673004 84 180 107.326996 180 136 C 180 164.673004 156.673004 188 128 188 C 99.326996 188 76 164.673004 76 136 C 76 107.326996 99.326996 84 128 84 M 128 192 C 158.927994 192 184 166.928009 184 136 C 184 105.072006 158.927994 80 128 80 C 97.071999 80 72 105.072006 72 136 C 72 166.928009 97.071999 192 128 192"/>
    <path id="path4" fill="#ffffff" stroke="none" d="M 94.108902 163.998993 C 94.108902 163.998993 94.109901 163.998993 94.109901 164 L 117.055901 164 C 116.388901 165.179001 115.999901 166.541992 115.999901 168 L 115.999901 174 C 115.999901 174.701996 116.1259 175.373001 116.343903 176 L 110.604897 176 C 109.993896 176 109.357903 175.847 108.7659 175.557999 C 103.171898 172.824997 98.107903 168.835999 94.105904 164.001999 C 94.106903 164 94.107903 163.998993 94.108902 163.998993 M 156.114899 164 C 157.941895 164 158.716904 166.446991 157.255905 167.600006 L 149.651901 173.600006 C 147.677902 175.15799 145.276901 176 142.809906 176 L 121.900902 176 C 120.850899 176 119.999901 175.104004 119.999901 174 L 119.999901 168 C 119.999901 165.791 121.701897 164 123.801903 164 Z M 161.895905 164.001999 C 161.841904 164.067001 161.782898 164.127991 161.729904 164.192993 C 161.708893 164.128998 161.700897 164.063004 161.678894 164 L 161.889893 164 L 161.882904 163.984009 C 161.886902 163.988007 161.891891 163.994995 161.895905 164.001999 M 107.009903 179.152008 C 108.130898 179.699005 109.357903 180 110.604897 180 L 121.900902 180 L 142.809906 180 L 145.394897 180 C 146.642899 180 147.868896 179.699005 148.989899 179.152008 C 155.189896 176.123001 160.642899 171.798004 164.995895 166.529999 C 167.142899 163.932999 165.260895 160 161.889893 160 L 156.114899 160 L 123.801903 160 L 94.109901 160 C 90.738899 160 88.857903 163.932999 91.004898 166.529999 C 95.357903 171.798004 100.809898 176.123001 107.009903 179.152008"/>
    <path id="path5" fill="#ffffff" stroke="none" d="M 84 217.909195 C 84 219.009201 83.099998 219.909195 82 219.909195 C 80.900002 219.909195 80 219.009201 80 217.909195 L 76.458 207.285202 C 76.112 206.246201 76.660004 205.112198 77.696999 204.763199 C 79.223 204.247192 81.325996 203.909195 82 203.909195 C 83.099998 203.909195 84 204.808197 84 205.909195 Z M 82 199.909195 C 80.825996 199.909195 78.302002 200.336197 76.417 200.972198 C 73.305 202.023193 71.621002 205.422195 72.664001 208.550201 L 76.055 218.723206 C 76.454002 221.648193 78.968002 223.909195 82 223.909195 C 85.308998 223.909195 88 221.218201 88 217.909195 L 88 205.909195 C 88 202.600204 85.308998 199.909195 82 199.909195"/>
    <path id="path6" fill="#ffffff" stroke="none" d="M 179.541 207.285202 L 176 217.909195 C 176 219.009201 175.100006 219.909195 174 219.909195 C 172.899994 219.909195 172 219.009201 172 217.909195 L 172 205.909195 C 172 204.808197 172.899994 203.909195 174 203.909195 C 174.675003 203.909195 176.776001 204.247192 178.302994 204.763199 C 179.339996 205.112198 179.888 206.246201 179.541 207.285202 M 179.582001 200.973206 C 177.697006 200.336197 175.175003 199.909195 174 199.909195 C 170.690994 199.909195 168 202.600204 168 205.909195 L 168 217.909195 C 168 221.218201 170.690994 223.909195 174 223.909195 C 177.031998 223.909195 179.546997 221.648193 179.945007 218.723206 L 183.335999 208.550201 C 184.378998 205.422195 182.694 202.023193 179.582001 200.973206"/>
    <path id="path7" fill="#ffffff" stroke="none" d="M 116 223.908997 L 140 223.908997 L 140 227.908997 L 116 227.908997 Z M 112 231.908997 L 144 231.908997 L 144 219.908997 L 112 219.908997 Z"/>
</svg>
