<?xml version="1.0" encoding="UTF-8"?>
<!-- Generated by Pixelmator Pro 3.7.1 -->
<svg width="256" height="256" viewBox="0 0 256 256" xmlns="http://www.w3.org/2000/svg">
    <path id="Path" fill="#ffffff" stroke="none" d="M 240 236 C 240 238.199997 238.199997 240 236 240 L 137.475006 243.649002 C 135.811005 243.710999 134.145996 243.753998 132.480011 243.783005 L 140.811996 225.197998 L 141.792999 223.01001 C 188.276001 216.320007 224 176.334991 224 128 C 224 108.442993 218.145996 90.255997 208.104004 75.084 L 209.085999 72.893997 L 235.649994 13.636002 L 236.367004 12.037003 C 238.393997 12.227005 240 13.925995 240 16 Z M 20 240 C 17.800003 240 16 238.199997 16 236 L 16 16 C 16 13.925995 17.606003 12.227005 19.632996 12.037003 L 20.350006 13.636002 L 46.914001 72.893997 L 47.895996 75.084 C 37.852997 90.255997 32 108.442993 32 128 C 32 176.334991 67.723999 216.320007 114.207001 223.01001 L 115.188004 225.197998 L 123.518997 243.783005 C 121.853996 243.753998 120.189003 243.710999 118.525002 243.649002 Z M 193.449005 97.998993 L 193.449005 97.998993 C 182.070007 73.218002 157.054001 56 128 56 C 98.945999 56 73.929993 73.218002 62.550995 97.998993 L 52.477997 75.526993 C 67.804993 53.535004 92.477005 38.518005 120.694 36.289993 C 120.902 36.274002 121.109001 36.259003 121.317001 36.244003 C 121.875999 36.203995 122.436996 36.167007 122.999001 36.136993 C 123.411003 36.115997 123.824997 36.100006 124.238998 36.082993 C 124.641998 36.067001 125.042999 36.048004 125.446999 36.037003 C 126.295998 36.014999 127.146004 36 128 36 C 128.854004 36 129.70401 36.014999 130.553009 36.037003 C 130.957001 36.048004 131.358002 36.067001 131.761002 36.082993 C 132.175003 36.100006 132.588989 36.115997 133.001007 36.136993 C 133.563004 36.167007 134.123001 36.203995 134.682999 36.244003 C 134.890991 36.259003 135.098999 36.274002 135.306 36.289993 C 163.52301 38.518005 188.194 53.535004 203.522003 75.526993 Z M 152.791 198.475998 L 154.347992 195.003998 C 181.074005 184.484009 200 158.460999 200 128 C 200 119.234009 198.429993 110.834991 195.561005 103.065994 L 197.098999 99.634995 L 206.127991 79.494003 C 214.908997 93.587006 220 110.207001 220 128 C 220 173.360001 187.001007 211.153 143.748993 218.645996 Z M 56 128 C 56 158.460999 74.925995 184.484009 101.651993 195.003998 L 103.209 198.475998 L 112.250999 218.645996 C 69 211.153 36 173.360001 36 128 C 36 110.207001 41.089996 93.587006 49.873001 79.494003 L 58.901001 99.634995 L 60.438995 103.065994 C 57.570999 110.834991 56 119.234009 56 128 M 149.140991 196.839996 L 139.057999 219.333008 C 138.528992 219.395996 138.001007 219.460999 137.470001 219.515991 L 137.121002 219.548996 C 136.975006 219.563004 136.825989 219.574005 136.679001 219.587997 C 135.251999 219.721008 133.821991 219.824005 132.399002 219.893005 C 132.367996 219.895004 132.337997 219.895004 132.307007 219.895996 C 130.860992 219.964005 129.421997 220 128 220 C 126.578003 220 125.139 219.964005 123.693001 219.895996 C 123.663002 219.895004 123.630997 219.895004 123.600998 219.893005 C 122.177002 219.824005 120.748001 219.721008 119.320999 219.587997 C 119.174004 219.574005 119.026001 219.563004 118.878998 219.548996 L 118.529999 219.515991 C 117.999001 219.460999 117.471001 219.395996 116.942001 219.333008 L 106.858994 196.839996 C 107.759003 197.115997 108.667999 197.372009 109.582993 197.613007 C 110.029007 197.729996 110.479004 197.837006 110.927002 197.945007 C 111.522003 198.091003 112.120003 198.229004 112.721001 198.360001 C 113.164001 198.455994 113.607002 198.550995 114.054001 198.638 C 114.808998 198.787003 115.569 198.919998 116.333 199.044998 C 116.612999 199.091003 116.889 199.145996 117.169998 199.186996 C 118.194 199.343002 119.225998 199.470001 120.264 199.580994 C 120.612 199.617996 120.962997 199.647003 121.313004 199.679993 C 122.096001 199.751999 122.882004 199.811996 123.670998 199.859009 C 124.009003 199.878998 124.346001 199.899994 124.684998 199.916 C 125.783997 199.966995 126.888 200 128 200 C 129.112 200 130.216003 199.966995 131.315002 199.916 C 131.653992 199.899994 131.990997 199.878998 132.32901 199.859009 C 133.117996 199.811996 133.903992 199.751999 134.686996 199.679993 C 135.037003 199.647003 135.388 199.617996 135.735992 199.580994 C 136.77301 199.470001 137.807007 199.343002 138.830002 199.186996 C 139.110001 199.145996 139.386993 199.091003 139.666992 199.044998 C 140.431 198.919998 141.19101 198.787003 141.945999 198.638 C 142.393005 198.550995 142.835999 198.455994 143.278 198.360001 C 143.880005 198.229004 144.477997 198.091003 145.072998 197.945007 C 145.520996 197.837006 145.971008 197.729996 146.416 197.613007 C 147.330994 197.372009 148.23999 197.115997 149.140991 196.839996 M 189.123993 98.233002 C 189.234009 98.457001 189.341003 98.682999 189.449005 98.908997 C 193.643997 107.733994 196 117.596008 196 128 C 196 159.588989 174.347992 186.212997 145.106003 193.817001 C 144.950989 193.858002 144.794006 193.895004 144.638 193.93399 C 143.803009 194.145004 142.960999 194.337997 142.113007 194.518005 C 141.848999 194.572998 141.584991 194.628998 141.319 194.682007 C 140.449005 194.854996 139.572998 195.013 138.69101 195.152008 C 138.544998 195.175995 138.399002 195.203995 138.252991 195.227005 C 137.246002 195.378998 136.231003 195.505997 135.210999 195.613998 C 134.936005 195.643997 134.65799 195.665009 134.382004 195.69101 C 133.604004 195.764008 132.820007 195.824005 132.033997 195.869995 C 131.730011 195.888 131.428009 195.906998 131.123001 195.921005 C 130.087997 195.968002 129.048004 196 128 196 C 126.953003 196 125.913002 195.968002 124.875999 195.921005 C 124.571999 195.906998 124.268997 195.888 123.966003 195.869995 C 123.179001 195.824005 122.396004 195.764008 121.617996 195.69101 C 121.341003 195.665009 121.064003 195.643997 120.789001 195.613998 C 119.768997 195.505997 118.753998 195.378998 117.748001 195.227005 C 117.600998 195.203995 117.455002 195.175995 117.308998 195.152008 C 116.427002 195.013 115.551003 194.854996 114.681 194.682007 C 114.416 194.628998 114.151001 194.572998 113.886002 194.518005 C 113.040001 194.337997 112.197998 194.145004 111.362 193.93399 C 111.207001 193.895004 111.048996 193.858002 110.893997 193.817001 C 81.651993 186.212997 60 159.588989 60 128 C 60 117.596008 62.356003 107.733994 66.550995 98.908997 C 66.658997 98.682999 66.766006 98.457001 66.876007 98.233002 C 77.934998 75.617004 101.175003 60 128 60 C 154.824997 60 178.065002 75.617004 189.123993 98.233002 M 128 243.824005 L 127.920998 243.824005 L 118.837997 223.561996 C 120.335999 223.70401 121.844002 223.813995 123.361 223.886993 C 123.502998 223.893997 123.646004 223.895996 123.788002 223.902008 C 124.404999 223.929993 125.023003 223.955002 125.643997 223.970001 C 126.427002 223.988998 127.211998 224 128 224 C 128.787994 224 129.572998 223.988998 130.356003 223.970001 C 130.97699 223.955002 131.595001 223.929993 132.212006 223.902008 C 132.354004 223.895996 132.497009 223.893997 132.639008 223.886993 C 134.156006 223.813995 135.662994 223.70401 137.162003 223.561996 L 128.07901 243.824005 Z M 232 12 L 205.436996 71.257996 C 205.436996 71.257996 205.436005 71.257996 205.436005 71.257004 C 203.257996 68.291 200.915009 65.455002 198.419006 62.761993 C 198.401001 62.742996 198.384003 62.725006 198.367004 62.705994 C 197.759003 62.050995 197.141998 61.404007 196.515991 60.766006 C 196.501007 60.751007 196.485992 60.735992 196.472 60.722 C 193.919998 58.125 191.222 55.671997 188.389999 53.378006 C 188.328995 53.328995 188.268997 53.279999 188.208008 53.231003 C 187.563004 52.710999 186.912003 52.199997 186.252991 51.695999 C 186.186996 51.645996 186.123001 51.595993 186.057007 51.546005 C 183.891998 49.899002 181.656006 48.341003 179.352005 46.880005 C 179.30899 46.852997 179.265991 46.826004 179.222992 46.798996 C 178.527008 46.358994 177.824997 45.929001 177.117996 45.507004 C 176.987 45.429001 176.856003 45.352997 176.727005 45.274994 C 176.085999 44.897003 175.440002 44.526001 174.790009 44.162994 C 174.649002 44.084 174.509003 44.005005 174.367004 43.927002 C 173.669006 43.541 172.966003 43.162994 172.257004 42.794006 C 172.182007 42.755005 172.106995 42.714996 172.03299 42.675995 C 170.43399 41.848999 168.807999 41.065002 167.156998 40.326996 C 167.02301 40.268005 166.889008 40.210007 166.755005 40.151001 C 166.087997 39.856003 165.417999 39.569 164.742996 39.289001 C 164.533997 39.201996 164.322998 39.117004 164.113007 39.031998 C 163.498001 38.781998 162.878998 38.537994 162.257996 38.300003 C 162.033997 38.214996 161.811996 38.128998 161.587006 38.044998 C 160.929001 37.800003 160.268005 37.561996 159.602997 37.330002 C 159.431 37.270004 159.26001 37.207993 159.087006 37.147995 C 157.403 36.572998 155.699005 36.042007 153.975006 35.559006 C 153.755005 35.496994 153.53299 35.440002 153.311996 35.380005 C 152.681 35.207993 152.04599 35.039993 151.40799 34.880005 C 151.126999 34.809998 150.845001 34.740997 150.561996 34.673004 C 149.971008 34.531006 149.376999 34.393997 148.781998 34.263 C 148.48999 34.197998 148.196991 34.132996 147.903992 34.072006 C 147.278 33.938995 146.649994 33.815002 146.019989 33.695999 C 145.768997 33.647995 145.518997 33.598007 145.268005 33.552002 C 143.511002 33.233002 141.737 32.960999 139.947998 32.738998 C 139.669998 32.705002 139.390991 32.675995 139.110992 32.643997 C 138.492996 32.572006 137.873993 32.505005 137.251999 32.445999 C 136.924011 32.414001 136.596008 32.386002 136.266998 32.358002 C 135.679001 32.307999 135.091003 32.263 134.5 32.223999 C 134.166992 32.201996 133.834 32.179001 133.498993 32.160004 C 132.877991 32.125 132.255005 32.098999 131.630005 32.074997 C 131.337006 32.063995 131.044006 32.050003 130.75 32.042007 C 129.835999 32.016006 128.919998 32 128 32 C 127.080002 32 126.164001 32.016006 125.25 32.042007 C 124.956001 32.050003 124.663002 32.063995 124.370003 32.074997 C 123.745003 32.098999 123.122002 32.125 122.5 32.160004 C 122.167 32.179001 121.833 32.201996 121.5 32.223999 C 120.910004 32.263 120.320999 32.307999 119.733002 32.358002 C 119.404999 32.386002 119.075996 32.414001 118.748001 32.445999 C 118.125999 32.505005 117.507004 32.572006 116.888 32.643997 C 116.609001 32.675995 116.330002 32.705002 116.052002 32.738998 C 114.263 32.960999 112.489998 33.233002 110.731995 33.552002 C 110.481003 33.598007 110.231003 33.647995 109.979996 33.695999 C 109.350006 33.815002 108.720993 33.938995 108.095993 34.072006 C 107.802002 34.132996 107.509995 34.197998 107.218002 34.263 C 106.623001 34.393997 106.029007 34.531006 105.438004 34.673004 C 105.156006 34.740997 104.873001 34.809998 104.591003 34.880005 C 103.953995 35.039993 103.319 35.207993 102.686996 35.380005 C 102.466995 35.440002 102.244995 35.496994 102.024994 35.559006 C 100.300995 36.042007 98.597 36.572998 96.912994 37.147995 C 96.740005 37.207993 96.570007 37.270004 96.397003 37.330002 C 95.733002 37.561996 95.070999 37.800003 94.412994 38.044998 C 94.188004 38.128998 93.966003 38.214996 93.742004 38.300003 C 93.121002 38.537994 92.501999 38.781998 91.886993 39.031998 C 91.677002 39.117004 91.466003 39.201996 91.257004 39.289001 C 90.582001 39.569 89.912003 39.856003 89.244995 40.151001 C 89.110992 40.210007 88.975998 40.268005 88.841995 40.326996 C 87.192001 41.065002 85.565994 41.848999 83.966995 42.675995 C 83.891998 42.714996 83.817993 42.755005 83.742996 42.794006 C 83.033997 43.162994 82.330994 43.541 81.632996 43.927002 C 81.490997 44.005005 81.350998 44.084 81.210007 44.162994 C 80.559998 44.526001 79.914993 44.897003 79.272995 45.274994 C 79.143005 45.352997 79.011993 45.429001 78.882004 45.507004 C 78.175003 45.929001 77.473007 46.358994 76.776993 46.798996 C 76.733994 46.826004 76.690994 46.852997 76.647995 46.880005 C 74.343994 48.341003 72.108002 49.899002 69.942993 51.546005 C 69.876999 51.595993 69.813004 51.645996 69.746994 51.695999 C 69.087997 52.199997 68.436996 52.710999 67.792007 53.231003 C 67.731003 53.279999 67.671005 53.328995 67.610001 53.378006 C 64.779007 55.671997 62.080002 58.125 59.528 60.722 C 59.514008 60.735992 59.498993 60.751007 59.483994 60.766006 C 58.858002 61.404007 58.242004 62.050995 57.632996 62.705994 C 57.615997 62.725006 57.598999 62.742996 57.580994 62.761993 C 55.085007 65.455002 52.742004 68.291 50.563995 71.257004 C 50.563995 71.257996 50.563995 71.257996 50.563995 71.257996 L 24 12 Z M 236 8 L 20 8 C 15.589005 8 12 11.589005 12 16 L 12 236 C 12 240.382004 15.542007 243.953003 19.912994 244 L 118.376999 247.645996 C 121.568001 247.764999 124.806 247.824005 128 247.824005 C 131.192993 247.824005 134.432007 247.764999 137.623001 247.645996 L 236.087006 244 C 240.457993 243.953003 244 240.382004 244 236 L 244 16 C 244 11.589005 240.410995 8 236 8"/>
    <path id="path1" fill="#ffffff" stroke="none" d="M 36 88 L 32 88 L 32 92 L 36 92 Z"/>
    <path id="path2" fill="#ffffff" stroke="none" d="M 36 168 L 32 168 L 32 172 L 36 172 Z"/>
    <path id="path3" fill="#ffffff" stroke="none" d="M 28 108 L 24 108 L 24 112 L 28 112 Z"/>
    <path id="path4" fill="#ffffff" stroke="none" d="M 24 128 L 20 128 L 20 132 L 24 132 Z"/>
    <path id="path5" fill="#ffffff" stroke="none" d="M 24 152 L 28 152 L 28 148 L 24 148 Z"/>
    <path id="path6" fill="#ffffff" stroke="none" d="M 224 88 L 220 88 L 220 92 L 224 92 Z"/>
    <path id="path7" fill="#ffffff" stroke="none" d="M 224 168 L 220 168 L 220 172 L 224 172 Z"/>
    <path id="path8" fill="#ffffff" stroke="none" d="M 232 108 L 228 108 L 228 112 L 232 112 Z"/>
    <path id="path9" fill="#ffffff" stroke="none" d="M 232 132 L 236 132 L 236 128 L 232 128 Z"/>
    <path id="path10" fill="#ffffff" stroke="none" d="M 232 148 L 228 148 L 228 152 L 232 152 Z"/>
    <path id="path11" fill="#ffffff" stroke="none" d="M 43.77 232 C 37.143002 232 31.77 226.626999 31.77 220 C 31.77 213.373001 37.143002 208 43.77 208 C 50.396999 208 55.77 213.373001 55.77 220 C 55.77 226.626999 50.396999 232 43.77 232 M 26.914 203.143997 C 28.882999 201.175003 31.579 200.22699 34.542 200.22699 C 38.040001 200.225998 41.907001 201.561996 45.400002 204.083008 C 44.863998 204.028 44.32 204 43.77 204 C 34.946999 204 27.77 211.178009 27.77 220 C 27.77 220.554993 27.799 221.102997 27.854 221.643005 C 23.190001 215.186996 22.618 207.438995 26.914 203.143997 M 51.170002 203.742996 C 46.393002 198.966003 40.332001 196.227005 34.542999 196.227005 L 34.542 196.227005 C 30.375999 196.227005 26.76 197.640991 24.085001 200.315002 C 20.798 203.60199 19.397001 208.51001 20.24 213.778992 C 21.02 218.652008 23.603001 223.488998 27.513 227.399994 C 29.082001 228.968994 30.790001 230.313004 32.580002 231.416 C 35.467999 234.246994 39.416 236 43.77 236 C 52.591999 236 59.77 228.822006 59.77 220 C 59.77 215.220001 54.648998 208 54.648998 208 C 53.647999 206.5 52.493 205.065002 51.170002 203.742996"/>
    <path id="path12" fill="#ffffff" stroke="none" d="M 228.1465 221.642609 C 228.201508 221.1026 228.230499 220.554596 228.230499 219.999603 C 228.230499 211.177597 221.052505 203.999603 212.230499 203.999603 C 211.679504 203.999603 211.135498 204.028595 210.599503 204.082596 C 214.093506 201.5616 217.959503 200.225601 221.458496 200.226593 C 224.420502 200.226593 227.117493 201.174591 229.085495 203.1436 C 233.382507 207.439606 232.809494 215.1866 228.1465 221.642609 M 212.230499 231.999603 C 205.602493 231.999603 200.230499 226.626602 200.230499 219.999603 C 200.230499 213.372604 205.602493 207.999603 212.230499 207.999603 C 218.857498 207.999603 224.230499 213.372604 224.230499 219.999603 C 224.230499 226.626602 218.857498 231.999603 212.230499 231.999603 M 221.458496 196.226593 L 221.457504 196.226593 C 215.667496 196.226593 209.607498 198.965607 204.830505 203.743591 C 203.507507 205.065598 202.351501 206.499603 201.350494 207.999603 C 201.350494 207.999603 196.230499 215.219604 196.230499 219.999603 C 196.230499 228.822601 203.407501 235.999603 212.230499 235.999603 C 216.583496 235.999603 220.532501 234.246597 223.419495 231.415604 C 225.210495 230.313599 226.917496 228.968597 228.486496 227.400604 C 232.397507 223.489594 234.980499 218.652603 235.759506 213.779602 C 236.6035 208.509598 235.201492 203.601593 231.915497 200.315598 C 229.240494 197.640594 225.624496 196.226593 221.458496 196.226593"/>
</svg>
