<?xml version="1.0" encoding="UTF-8"?>
<!-- Generated by Pixelmator Pro 3.7.1 -->
<svg width="256" height="256" viewBox="0 0 256 256" xmlns="http://www.w3.org/2000/svg">
    <path id="Path" fill="#ffffff" stroke="none" d="M 32 84 L 28 84 L 28 96 L 32 96 Z"/>
    <path id="path1" fill="#ffffff" stroke="none" d="M 40 84 L 36 84 L 36 96 L 40 96 Z"/>
    <path id="path2" fill="#ffffff" stroke="none" d="M 48 84 L 44 84 L 44 96 L 48 96 Z"/>
    <path id="path3" fill="#ffffff" stroke="none" d="M 56 84 L 52 84 L 52 96 L 56 96 Z"/>
    <path id="path4" fill="#ffffff" stroke="none" d="M 64 84 L 60 84 L 60 96 L 64 96 Z"/>
    <path id="path5" fill="#ffffff" stroke="none" d="M 72 84 L 68 84 L 68 96 L 72 96 Z"/>
    <path id="path6" fill="#ffffff" stroke="none" d="M 80 84 L 76 84 L 76 96 L 80 96 Z"/>
    <path id="path7" fill="#ffffff" stroke="none" d="M 88 84 L 84 84 L 84 96 L 88 96 Z"/>
    <path id="path8" fill="#ffffff" stroke="none" d="M 92 96 L 96 96 L 96 84 L 92 84 Z"/>
    <path id="path9" fill="#ffffff" stroke="none" d="M 32 100 L 28 100 L 28 112 L 32 112 Z"/>
    <path id="path10" fill="#ffffff" stroke="none" d="M 40 100 L 36 100 L 36 112 L 40 112 Z"/>
    <path id="path11" fill="#ffffff" stroke="none" d="M 48 100 L 44 100 L 44 112 L 48 112 Z"/>
    <path id="path12" fill="#ffffff" stroke="none" d="M 56 100 L 52 100 L 52 112 L 56 112 Z"/>
    <path id="path13" fill="#ffffff" stroke="none" d="M 64 100 L 60 100 L 60 112 L 64 112 Z"/>
    <path id="path14" fill="#ffffff" stroke="none" d="M 72 100 L 68 100 L 68 112 L 72 112 Z"/>
    <path id="path15" fill="#ffffff" stroke="none" d="M 80 100 L 76 100 L 76 112 L 80 112 Z"/>
    <path id="path16" fill="#ffffff" stroke="none" d="M 88 100 L 84 100 L 84 112 L 88 112 Z"/>
    <path id="path17" fill="#ffffff" stroke="none" d="M 92 112 L 96 112 L 96 100 L 92 100 Z"/>
    <path id="path18" fill="#ffffff" stroke="none" d="M 32 120 L 92 120 L 92 124 L 32 124 Z M 28 128 L 96 128 L 96 116 L 28 116 Z"/>
    <path id="path19" fill="#ffffff" stroke="none" d="M 244 168 C 244 170.199997 242.199997 172 240 172 C 237.800003 172 236 170.199997 236 168 L 236 88 C 236 85.800003 237.800003 84 240 84 C 242.199997 84 244 85.800003 244 88 Z M 240 180 L 232 180 L 232 168 C 232 172.411011 235.589005 176 240 176 Z M 220 168 L 220 140 L 220 136 L 220 116 L 220 112 L 220 100 L 220 96 L 220 92 L 220 88 L 228 84 L 228 180 Z M 168 180 L 108.807999 180 L 114.141006 172 L 168 172 L 168 180 L 172 144 L 200 144 L 204 180 L 204 172 L 217.858994 172 L 223.192001 180 L 204 180 Z M 104 84 L 112 88 L 112 168 L 104 180 Z M 156 108 L 156 100 L 156 96 L 156 88 L 216 88 L 216 96 L 216 100 L 216 108 Z M 216 136 L 204 136 L 204 132 L 168 132 L 168 136 L 156 136 L 156 112 L 216 112 Z M 200 140 L 172 140 L 172 136 L 200 136 Z M 116 88 L 152 88 L 152 92 L 152 96 L 152 100 L 152 112 L 152 116 L 152 136 L 152 140 L 156 140 L 168 140 L 168 144 L 168 168 L 116 168 Z M 216 168 L 204 168 L 204 144 L 204 140 L 216 140 Z M 16 180 L 16 176 C 20.410995 176 24 172.411011 24 168 L 24 88 C 24 83.588989 20.410995 80 16 80 L 16 76 L 240 76 L 240 80 C 235.589005 80 232 83.588989 232 88 L 232 84 L 232 77.528 L 226.210999 80.421997 L 219.056 84 L 112.944 84 L 105.789001 80.421997 L 100 77.528 L 100 84 L 100 180 Z M 12 168 L 12 88 C 12 85.800003 13.800003 84 16 84 C 18.199997 84 20 85.800003 20 88 L 20 168 C 20 170.199997 18.199997 172 16 172 C 13.800003 172 12 170.199997 12 168 M 244 81.083008 L 244 76 L 244 72 L 240 72 L 16 72 L 12 72 L 12 76 L 12 81.083008 C 9.613007 82.468002 8 85.046997 8 88 L 8 168 C 8 170.953003 9.613007 173.531006 12 174.917999 L 12 180 L 12 184 L 16 184 L 100 184 L 106.141006 184 L 225.858994 184 L 232 184 L 240 184 L 244 184 L 244 180 L 244 174.917999 C 246.386993 173.531006 248 170.953003 248 168 L 248 88 C 248 85.046997 246.386993 82.468002 244 81.083008"/>
</svg>
