<?xml version="1.0" encoding="UTF-8"?>
<!-- Generated by Pixelmator Pro 3.7.1 -->
<svg width="256" height="256" viewBox="0 0 256 256" xmlns="http://www.w3.org/2000/svg">
    <path id="Path" fill="#ffffff" stroke="none" d="M 243.399399 212 C 243.399399 216.417999 191.464401 220 127.399399 220 C 63.334396 220 11.3994 216.417999 11.3994 212 L 11.3994 44 C 11.3994 41.791 13.1904 40 15.3994 40 L 63.399399 40 L 63.399399 144 L 63.399399 148 L 63.399399 178 L 63.399399 184 L 63.399399 188 L 67.399399 188 L 75.399399 188 L 187.399399 188 L 191.399399 188 L 191.399399 184 L 191.399399 148 L 191.399399 144 L 191.399399 40 L 239.399399 40 C 241.608398 40 243.399399 41.791 243.399399 44 Z M 67.399399 68 L 187.399399 68 L 187.399399 144 L 67.399399 144 Z M 67.399399 153.516998 C 70.475403 155.130997 75.493393 156.352005 82.951401 157.410995 C 78.140396 159.994003 75.696396 162.772003 75.696396 165.714005 C 75.696396 168.576996 77.452393 172.783005 92.635391 176.242996 C 102.426392 178.473999 114.7724 179.703003 127.399399 179.703003 C 140.026398 179.703003 152.372406 178.473999 162.163406 176.242996 C 177.346405 172.783005 179.102402 168.576996 179.102402 165.714005 C 179.102402 162.772003 176.658401 159.994003 171.847397 157.410995 C 179.305405 156.352005 184.323395 155.130997 187.399399 153.516998 L 187.399399 184 L 67.399399 184 Z M 162.490402 153.561996 C 156.469406 151.595001 143.904404 148.296997 127.399399 148.296997 C 110.894394 148.296997 98.329391 151.595001 92.308395 153.561996 C 91.586395 153.798004 90.890396 154.035995 90.214401 154.276001 C 76.323395 152.811005 67.399399 150.544998 67.399399 148 L 187.399399 148 C 187.399399 150.544998 178.475403 152.811005 164.584396 154.276001 C 163.908401 154.035995 163.212402 153.798004 162.490402 153.561996 M 100.361404 155.140991 C 108.062393 153.285995 117.370399 152 127.399399 152 C 137.428406 152 146.736404 153.285995 154.437408 155.140991 C 146.31041 155.688995 137.12941 156 127.399399 156 C 117.669395 156 108.488403 155.688995 100.361404 155.140991 M 90.071396 158.283997 C 100.715393 159.395004 113.7164 160 127.399399 160 C 141.082397 160 154.083405 159.395004 164.727402 158.283997 C 171.3974 160.843002 175.399399 163.673004 175.399399 165.714005 C 175.399399 170.447998 153.909409 176 127.399399 176 C 100.889404 176 79.399399 170.447998 79.399399 165.714005 C 79.399399 163.673004 83.401398 160.843002 90.071396 158.283997 M 187.399399 64 L 67.399399 64 L 67.399399 40 L 187.399399 40 Z M 239.399399 36 L 15.3994 36 C 10.988404 36 7.3994 39.589005 7.3994 44 L 7.3994 212 C 7.3994 216.649994 13.047395 217.949005 19.871401 219.061996 C 25.835405 220.033997 34.323395 220.903992 45.099396 221.647003 C 67.098404 223.164001 96.325394 224 127.399399 224 C 158.472397 224 187.700394 223.164001 209.699402 221.647003 C 220.475403 220.903992 228.963394 220.033997 234.927399 219.061996 C 241.751404 217.949005 247.399399 216.649994 247.399399 212 L 247.399399 44 C 247.399399 39.589005 243.810394 36 239.399399 36"/>
    <path id="path1" fill="#ffffff" stroke="none" d="M 171.399399 56 L 83.399399 56 L 83.399399 52 L 87.399399 52 L 91.399399 52 L 91.399399 48 L 163.399399 48 L 163.399399 52 L 167.399399 52 L 171.399399 52 Z M 175.399399 48 L 167.399399 48 L 167.399399 44 L 87.399399 44 L 87.399399 48 L 79.399399 48 L 79.399399 60 L 175.399399 60 Z"/>
    <path id="path2" fill="#ffffff" stroke="none" d="M 29.399401 144 C 34.922401 144 39.399399 148.47699 39.399399 154 C 39.399399 159.52301 34.922401 164 29.399401 164 C 23.8764 164 19.399401 159.52301 19.399401 154 C 19.399401 148.47699 23.8764 144 29.399401 144 M 29.399401 168 C 37.1194 168 43.399399 161.720001 43.399399 154 C 43.399399 146.279999 37.1194 140 29.399401 140 C 21.679399 140 15.3994 146.279999 15.3994 154 C 15.3994 161.720001 21.679399 168 29.399401 168"/>
    <path id="path3" fill="#ffffff" stroke="none" d="M 49.399399 188 C 43.8764 188 39.399399 183.52301 39.399399 178 C 39.399399 172.47699 43.8764 168 49.399399 168 C 54.922401 168 59.399399 172.47699 59.399399 178 C 59.399399 183.52301 54.922401 188 49.399399 188 M 49.399399 164 C 41.679401 164 35.399399 170.279999 35.399399 178 C 35.399399 185.720001 41.679401 192 49.399399 192 C 57.1194 192 63.399399 185.720001 63.399399 178 C 63.399399 170.279999 57.1194 164 49.399399 164"/>
    <path id="path4" fill="#ffffff" stroke="none" d="M 75.399399 192 C 79.817398 192 83.399399 195.582001 83.399399 200 C 83.399399 204.417999 79.817398 208 75.399399 208 C 70.9814 208 67.399399 204.417999 67.399399 200 C 67.399399 195.582001 70.9814 192 75.399399 192 M 63.399399 200 C 63.399399 206.617004 68.782402 212 75.399399 212 C 82.016403 212 87.399399 206.617004 87.399399 200 C 87.399399 193.382996 82.016403 188 75.399399 188 C 68.782402 188 63.399399 193.382996 63.399399 200"/>
    <path id="path5" fill="#ffffff" stroke="none" d="M 29.399401 208 L 25.399401 208 C 24.2994 208 23.399401 207.100006 23.399401 206 C 23.399401 204.899994 24.2994 204 25.399401 204 L 29.399401 204 C 30.499399 204 31.399401 204.899994 31.399401 206 C 31.399401 207.100006 30.499399 208 29.399401 208 M 25.399401 196 L 29.399401 196 C 30.499399 196 31.399401 196.899994 31.399401 198 C 31.399401 199.100006 30.499399 200 29.399401 200 L 25.399401 200 C 24.2994 200 23.399401 199.100006 23.399401 198 C 23.399401 196.899994 24.2994 196 25.399401 196 M 29.399401 192 L 25.399401 192 C 22.0914 192 19.399401 194.692001 19.399401 198 C 19.399401 199.537003 19.985401 200.936996 20.940401 202 C 19.985401 203.063004 19.399401 204.462997 19.399401 206 C 19.399401 209.307999 22.0914 212 25.399401 212 L 29.399401 212 C 32.707401 212 35.399399 209.307999 35.399399 206 C 35.399399 204.462997 34.8134 203.063004 33.858398 202 C 34.8134 200.936996 35.399399 199.537003 35.399399 198 C 35.399399 194.692001 32.707401 192 29.399401 192"/>
    <path id="path6" fill="#ffffff" stroke="none" d="M 207.399399 188 C 205.190399 188 203.399399 186.209 203.399399 184 C 203.399399 181.791 205.190399 180 207.399399 180 C 209.608398 180 211.399399 181.791 211.399399 184 C 211.399399 186.209 209.608398 188 207.399399 188 M 207.399399 176 C 202.988403 176 199.399399 179.588989 199.399399 184 C 199.399399 188.411011 202.988403 192 207.399399 192 C 211.810394 192 215.399399 188.411011 215.399399 184 C 215.399399 179.588989 211.810394 176 207.399399 176"/>
    <path id="path7" fill="#ffffff" stroke="none" d="M 223.399399 180 C 221.190399 180 219.399399 178.209 219.399399 176 C 219.399399 173.791 221.190399 172 223.399399 172 C 225.608398 172 227.399399 173.791 227.399399 176 C 227.399399 178.209 225.608398 180 223.399399 180 M 223.399399 168 C 218.988403 168 215.399399 171.588989 215.399399 176 C 215.399399 180.411011 218.988403 184 223.399399 184 C 227.810394 184 231.399399 180.411011 231.399399 176 C 231.399399 171.588989 227.810394 168 223.399399 168"/>
    <path id="path8" fill="#ffffff" stroke="none" d="M 207.399399 160 C 209.608398 160 211.399399 161.791 211.399399 164 C 211.399399 166.209 209.608398 168 207.399399 168 C 205.190399 168 203.399399 166.209 203.399399 164 C 203.399399 161.791 205.190399 160 207.399399 160 M 207.399399 172 C 211.810394 172 215.399399 168.411011 215.399399 164 C 215.399399 159.588989 211.810394 156 207.399399 156 C 202.988403 156 199.399399 159.588989 199.399399 164 C 199.399399 168.411011 202.988403 172 207.399399 172"/>
    <path id="path9" fill="#ffffff" stroke="none" d="M 219.399399 144 L 219.399399 132 C 219.399399 129.791 221.190399 128 223.399399 128 C 225.608398 128 227.399399 129.791 227.399399 132 L 227.399399 144 C 227.399399 146.209 225.608398 148 223.399399 148 C 221.190399 148 219.399399 146.209 219.399399 144 M 227.399399 156 C 227.399399 158.209 225.608398 160 223.399399 160 C 221.190399 160 219.399399 158.209 219.399399 156 C 219.399399 153.791 221.190399 152 223.399399 152 C 225.608398 152 227.399399 153.791 227.399399 156 M 223.399399 124 C 218.988403 124 215.399399 127.589005 215.399399 132 L 215.399399 144 C 215.399399 146.389999 216.458405 148.53299 218.125397 150 C 216.458405 151.46701 215.399399 153.610001 215.399399 156 C 215.399399 160.410995 218.988403 164 223.399399 164 C 227.810394 164 231.399399 160.410995 231.399399 156 C 231.399399 153.610001 230.340393 151.46701 228.673401 150 C 230.340393 148.53299 231.399399 146.389999 231.399399 144 L 231.399399 132 C 231.399399 127.589005 227.810394 124 223.399399 124"/>
</svg>
