<?xml version="1.0" encoding="UTF-8"?>
<!-- Generated by Pixelmator Pro 3.7.1 -->
<svg width="256" height="256" viewBox="0 0 256 256" xmlns="http://www.w3.org/2000/svg">
    <path id="Path" fill="#ffffff" stroke="none" d="M 125.537003 80.810104 C 125.290001 80.532104 125.016998 80.264099 124.731003 80.000107 L 125.942001 80.000107 Z M 134.222 90.348099 C 135.182007 96.228104 129.313995 99.171097 129.313995 99.171097 L 123.656998 93.515106 L 128.046997 84.735107 C 130.479004 86.156097 132.582001 88.071106 134.222 90.348099 M 129.651993 118.222092 C 129.207001 118.295105 128.779999 118.328094 128.369003 118.328094 C 123.344002 118.328094 120.828003 113.314102 120.828003 113.314102 L 126.485001 107.657104 L 135.264999 112.047104 C 133.843994 114.479095 131.929001 116.582092 129.651993 118.222092 M 110.057999 124.000092 L 110.462997 123.190094 C 110.709999 123.468094 110.984001 123.736099 111.268997 124.000092 Z M 101.778 113.6521 C 100.818001 107.772095 106.685997 104.828094 106.685997 104.828094 L 112.343002 110.485092 L 107.953003 119.265106 C 105.520996 117.844101 103.417999 115.929092 101.778 113.6521 M 106.348 85.778107 C 106.792999 85.705093 107.220001 85.672104 107.630997 85.672104 C 112.655998 85.672104 115.171997 90.686096 115.171997 90.686096 L 109.514999 96.343094 L 100.735001 91.953094 C 102.155998 89.521103 104.070999 87.418106 106.348 85.778107 M 116 92.000107 L 112.894997 82.685104 C 114.528 82.253098 116.233002 82.000107 118 82.000107 C 119.099998 82.000107 120.171997 82.113098 121.223999 82.284103 C 126.070999 85.763107 124 92.000107 124 92.000107 Z M 98 102.000107 C 98 100.900101 98.112999 99.828094 98.283997 98.776093 C 100.159996 96.162094 102.837997 95.560104 104.906998 95.560104 C 106.676003 95.560104 108 96.000107 108 96.000107 L 108 104.000107 L 98.684998 107.105103 C 98.252998 105.472107 98 103.767105 98 102.000107 M 120 112.000107 L 123.105003 121.315094 C 121.472 121.747101 119.766998 122.000092 118 122.000092 C 116.900002 122.000092 115.828003 121.8871 114.776001 121.716095 C 109.929001 118.237091 112 112.000107 112 112.000107 Z M 128 100.000107 L 137.315002 96.895096 C 137.746994 98.528107 138 100.233093 138 102.000107 C 138 103.100098 137.886993 104.172104 137.716003 105.224106 C 135.839996 107.837097 133.162003 108.439102 131.093002 108.439102 C 129.324005 108.439102 128 108.000107 128 108.000107 Z M 144 76.000107 L 88 76.000107 L 88 80.000107 L 107.783997 80.000107 L 108.348 81.694107 C 108.112999 81.679092 107.874001 81.672104 107.630997 81.672104 C 106.996002 81.672104 106.347 81.725098 105.704002 81.830093 L 104.774002 81.982101 L 104.010002 82.532104 C 103.371002 82.992096 102.764999 83.486099 102.18 84.000107 L 88 84.000107 L 88 88.000107 L 98.550003 88.000107 C 98.100998 88.6241 97.672997 89.265106 97.280998 89.935104 L 96.074997 92.000107 L 88 92.000107 L 88 96.000107 L 95.391998 96.000107 C 95.274002 96.149094 95.147003 96.287094 95.034996 96.4431 L 94.487999 97.2061 L 94.336998 98.131104 C 94.231003 98.780106 94.155998 99.397095 94.099998 100.000107 L 88 100.000107 L 88 104.000107 L 94.099998 104.000107 C 94.217003 105.327103 94.443001 106.6651 94.789001 108.000107 L 88 108.000107 L 88 112.000107 L 95.843002 112.000107 L 95.907997 112.247101 L 96.649002 112.000107 L 97.685997 112.000107 C 97.665001 112.735092 97.698997 113.496094 97.830002 114.296097 L 97.982002 115.226105 L 98.531998 115.990097 C 98.534996 115.993103 98.538002 115.996094 98.540001 116.000092 L 88 116.000092 L 88 120.000092 L 102.191002 120.000092 C 103.346001 121.015106 104.587997 121.932098 105.934998 122.719101 L 108.127998 124.000092 L 88 124.000092 L 88 128.000092 L 144 128.000092 L 144 124.000092 L 128.216003 124.000092 L 127.652 122.306091 C 127.887001 122.321106 128.126007 122.328094 128.369003 122.328094 C 129.003998 122.328094 129.653 122.275101 130.296005 122.170105 L 131.225998 122.018097 L 131.990005 121.468094 C 132.628998 121.008102 133.235001 120.514099 133.820999 120.000092 L 144 120.000092 L 144 116.000092 L 137.449997 116.000092 C 137.899002 115.376099 138.326996 114.735092 138.718994 114.065094 L 139.925003 112.000107 L 144 112.000107 L 144 108.000107 L 140.608002 108.000107 C 140.725998 107.851105 140.852997 107.713104 140.964996 107.556107 L 141.511993 106.794098 L 141.662994 105.868103 C 141.768997 105.220093 141.843994 104.602097 141.899994 104.000107 L 144 104.000107 L 144 100.000107 L 141.899994 100.000107 C 141.783005 98.673096 141.557007 97.335098 141.210999 96.000107 L 144 96.000107 L 144 92.000107 L 140.156998 92.000107 L 140.091995 91.753098 L 139.350998 92.000107 L 138.313995 92.000107 C 138.335007 91.265106 138.300995 90.503098 138.169998 89.703094 L 138.018005 88.774094 L 137.468002 88.010101 C 137.464996 88.006104 137.462006 88.003098 137.460007 88.000107 L 144 88.000107 L 144 84.000107 L 133.809006 84.000107 C 132.654007 82.985107 131.412003 82.0681 130.065002 81.281097 L 127.872002 80.000107 L 144 80.000107 Z"/>
    <path id="path1" fill="#ffffff" stroke="none" d="M 144 132 L 120 132 L 112 132 L 88 132 L 88 136 L 112 136 L 112 140 C 112 142.209 113.791 144 116 144 C 118.209 144 120 142.209 120 140 L 120 136 L 144 136 Z"/>
    <path id="path2" fill="#ffffff" stroke="none" d="M 148 20 L 68 20 L 68 24 L 148 24 Z"/>
    <path id="path3" fill="#ffffff" stroke="none" d="M 148 28 L 68 28 L 68 32 L 148 32 Z"/>
    <path id="path4" fill="#ffffff" stroke="none" d="M 68 48 L 148 48 L 148 44 L 68 44 Z"/>
    <path id="path5" fill="#ffffff" stroke="none" d="M 148 52 L 68 52 L 68 56 L 148 56 Z"/>
    <path id="path6" fill="#ffffff" stroke="none" d="M 148 60 L 68 60 L 68 64 L 148 64 Z"/>
    <path id="path7" fill="#ffffff" stroke="none" d="M 148 68 L 68 68 L 68 72 L 148 72 Z"/>
    <path id="path8" fill="#ffffff" stroke="none" d="M 96 40 C 96 37.791 94.209 36 92 36 L 67 36 C 65.343002 36 64 37.343002 64 39 L 64 44 L 68 44 L 68 40 Z"/>
    <path id="path9" fill="#ffffff" stroke="none" d="M 76 152 L 92 152 L 92 176 L 76 176 Z M 72 152 L 72 176 L 72 180 L 76 180 L 92 180 L 96 180 L 96 176 L 96 152 L 96 148 L 92 148 L 76 148 L 72 148 Z"/>
    <path id="path10" fill="#ffffff" stroke="none" d="M 128 176 L 112 176 L 112 156 L 128 156 Z M 108 152 L 108 156 L 108 176 L 108 180 L 112 180 L 128 180 L 132 180 L 132 176 L 132 156 L 132 152 L 128 152 L 112 152 Z"/>
    <path id="path11" fill="#ffffff" stroke="none" d="M 60 152 L 52 152 L 52 144 L 60 144 Z M 56 180 L 52 180 L 52 172 L 56 172 Z M 56 164 L 52 164 L 52 160 L 56 160 Z M 52 140 L 48 140 L 48 144 L 48 152 L 48 156 L 48 160 L 48 164 L 48 168 L 48 172 L 48 180 L 48 184 L 52 184 L 56 184 L 60 184 L 60 180 L 60 172 L 60 168 L 60 164 L 60 160 L 60 156 L 64 156 L 64 152 L 64 144 L 64 140 L 60 140 Z"/>
    <path id="path12" fill="#ffffff" stroke="none" d="M 64 120 L 52 120 L 52 108 L 64 108 Z M 52 104 L 48 104 L 48 108 L 48 120 L 48 124 L 52 124 L 64 124 L 68 124 L 68 120 L 68 108 L 68 104 L 64 104 Z"/>
    <path id="path13" fill="#ffffff" stroke="none" d="M 72 92 L 80 92 L 80 100 L 72 100 Z M 80 104 L 84 104 L 84 100 L 84 92 L 84 88 L 80 88 L 72 88 L 68 88 L 68 92 L 68 100 L 68 104 L 72 104 Z"/>
    <path id="path14" fill="#ffffff" stroke="none" d="M 164 184 C 164 186.209 162.209 188 160 188 L 148 188 C 145.791 188 144 186.209 144 184 L 144 172 C 144 169.791 145.791 168 148 168 L 160 168 C 162.209 168 164 169.791 164 172 Z M 168 172 C 168 167.589005 164.410995 164 160 164 L 148 164 C 143.589005 164 140 167.589005 140 172 L 140 184 C 140 188.411011 143.589005 192 148 192 L 160 192 C 164.410995 192 168 188.411011 168 184 Z"/>
    <path id="path15" fill="#ffffff" stroke="none" d="M 184 144 L 164 144 L 164 132 L 184 132 Z M 164 128 L 160 128 L 160 132 L 160 144 L 160 148 L 164 148 L 184 148 L 188 148 L 188 144 L 188 132 L 188 128 L 184 128 Z"/>
    <path id="path16" fill="#ffffff" stroke="none" d="M 220 160 L 228 160 L 228 168 L 220 168 Z M 228 172 L 232 172 L 232 168 L 232 160 L 232 156 L 228 156 L 220 156 L 216 156 L 216 160 L 216 168 L 216 172 L 220 172 Z"/>
    <path id="path17" fill="#ffffff" stroke="none" d="M 212 100 L 204 100 L 204 92 L 212 92 Z M 204 88 L 200 88 L 200 92 L 200 100 L 200 104 L 204 104 L 212 104 L 216 104 L 216 100 L 216 92 L 216 88 L 212 88 Z"/>
    <path id="path18" fill="#ffffff" stroke="none" d="M 144 208 L 124 208 L 124 200 L 128 200 L 144 200 Z M 104 196 L 104 188 L 124 188 L 124 196 L 120 196 Z M 96 208 L 88 208 L 88 204 L 96 204 Z M 76 188 L 96 188 L 96 196 L 76 196 Z M 128 196 L 128 188 L 128 184 L 124 184 L 104 184 L 100 184 L 96 184 L 76 184 L 72 184 L 72 188 L 72 196 L 72 200 L 76 200 L 84 200 L 84 204 L 84 208 L 84 212 L 88 212 L 96 212 L 100 212 L 100 208 L 100 204 L 100 200 L 104 200 L 120 200 L 120 208 L 120 212 L 124 212 L 144 212 L 148 212 L 148 208 L 148 200 L 148 196 L 144 196 Z"/>
    <path id="path19" fill="#ffffff" stroke="none" d="M 210 212 C 213.313995 212 216 209.313995 216 206 C 216 202.686005 213.313995 200 210 200 C 206.686005 200 204 202.686005 204 206 C 204 209.313995 206.686005 212 210 212"/>
    <path id="path20" fill="#ffffff" stroke="none" d="M 210 228 C 213.313995 228 216 225.313995 216 222 C 216 218.686005 213.313995 216 210 216 C 206.686005 216 204 218.686005 204 222 C 204 225.313995 206.686005 228 210 228"/>
    <path id="path21" fill="#ffffff" stroke="none" d="M 216 238 C 216 234.686005 213.313995 232 210 232 C 206.686005 232 204 234.686005 204 238 C 204 241.313995 206.686005 244 210 244 C 213.313995 244 216 241.313995 216 238"/>
    <path id="path22" fill="#ffffff" stroke="none" d="M 62 98 C 64.206001 98 66 96.205994 66 94 C 66 91.794006 64.206001 90 62 90 C 59.793999 90 58 91.794006 58 94 C 58 96.205994 59.793999 98 62 98"/>
    <path id="path23" fill="#ffffff" stroke="none" d="M 178 234 C 175.794006 234 174 235.794006 174 238 C 174 240.205994 175.794006 242 178 242 C 180.205994 242 182 240.205994 182 238 C 182 235.794006 180.205994 234 178 234"/>
    <path id="path24" fill="#ffffff" stroke="none" d="M 177 64 L 179 64 C 179.552002 64 180 63.552002 180 63 L 180 61 C 180 60.447998 179.552002 60 179 60 L 177 60 C 176.447998 60 176 60.447998 176 61 L 176 63 C 176 63.552002 176.447998 64 177 64"/>
    <path id="path25" fill="#ffffff" stroke="none" d="M 185 64 L 187 64 C 187.552002 64 188 63.552002 188 63 L 188 61 C 188 60.447998 187.552002 60 187 60 L 185 60 C 184.447998 60 184 60.447998 184 61 L 184 63 C 184 63.552002 184.447998 64 185 64"/>
    <path id="path26" fill="#ffffff" stroke="none" d="M 193 64 L 195 64 C 195.552002 64 196 63.552002 196 63 L 196 61 C 196 60.447998 195.552002 60 195 60 L 193 60 C 192.447998 60 192 60.447998 192 61 L 192 63 C 192 63.552002 192.447998 64 193 64"/>
    <path id="path27" fill="#ffffff" stroke="none" d="M 201 64 L 203 64 C 203.552002 64 204 63.552002 204 63 L 204 61 C 204 60.447998 203.552002 60 203 60 L 201 60 C 200.447998 60 200 60.447998 200 61 L 200 63 C 200 63.552002 200.447998 64 201 64"/>
    <path id="path28" fill="#ffffff" stroke="none" d="M 209 64 L 211 64 C 211.552002 64 212 63.552002 212 63 L 212 61 C 212 60.447998 211.552002 60 211 60 L 209 60 C 208.447998 60 208 60.447998 208 61 L 208 63 C 208 63.552002 208.447998 64 209 64"/>
    <path id="path29" fill="#ffffff" stroke="none" d="M 217 64 L 219 64 C 219.552002 64 220 63.552002 220 63 L 220 61 C 220 60.447998 219.552002 60 219 60 L 217 60 C 216.447998 60 216 60.447998 216 61 L 216 63 C 216 63.552002 216.447998 64 217 64"/>
    <path id="path30" fill="#ffffff" stroke="none" d="M 225 64 L 227 64 C 227.552002 64 228 63.552002 228 63 L 228 61 C 228 60.447998 227.552002 60 227 60 L 225 60 C 224.447998 60 224 60.447998 224 61 L 224 63 C 224 63.552002 224.447998 64 225 64"/>
    <path id="path31" fill="#ffffff" stroke="none" d="M 184 218 C 184 221.300003 181.300003 224 178 224 C 174.699997 224 172 221.300003 172 218 L 172 210 C 172 206.699997 174.699997 204 178 204 C 181.300003 204 184 206.699997 184 210 Z M 178 200 C 172.485992 200 168 204.485992 168 210 L 168 218 C 168 223.514008 172.485992 228 178 228 C 183.514008 228 188 223.514008 188 218 L 188 210 C 188 204.485992 183.514008 200 178 200"/>
    <path id="path32" fill="#ffffff" stroke="none" d="M 184 108 L 164 108 L 164 88 L 184 88 Z M 164 84 L 160 84 L 160 88 L 160 108 L 160 112 L 164 112 L 184 112 L 188 112 L 188 108 L 188 88 L 188 84 L 184 84 Z"/>
    <path id="path33" fill="#ffffff" stroke="none" d="M 132 240 L 164 240 L 164 236 L 132 236 Z"/>
    <path id="path34" fill="#ffffff" stroke="none" d="M 62 24 C 63.105 24 64 23.104996 64 22 C 64 20.895004 63.105 20 62 20 C 60.895 20 60 20.895004 60 22 C 60 23.104996 60.895 24 62 24"/>
    <path id="path35" fill="#ffffff" stroke="none" d="M 76 130 C 76 128.894989 75.105003 128 74 128 C 72.894997 128 72 128.894989 72 130 C 72 131.105011 72.894997 132 74 132 C 75.105003 132 76 131.105011 76 130"/>
    <path id="path36" fill="#ffffff" stroke="none" d="M 48 234 C 48 235.104996 48.895 236 50 236 C 51.105 236 52 235.104996 52 234 C 52 232.895004 51.105 232 50 232 C 48.895 232 48 232.895004 48 234"/>
    <path id="path37" fill="#ffffff" stroke="none" d="M 52 96 L 48 96 C 47.997002 96 47.994999 96 47.994999 96 Z M 48 100 L 52 100 C 54.209 100 56 98.209 56 96 C 56 93.791 54.209 92 52 92 L 48 92 C 45.791 92 44 93.791 44 96 C 44 98.209 45.791 100 48 100"/>
    <path id="path38" fill="#ffffff" stroke="none" d="M 192 34 C 192 30.686005 194.686005 28 198 28 C 201.313995 28 204 30.686005 204 34 C 204 37.313995 201.313995 40 198 40 C 194.686005 40 192 37.313995 192 34 M 166 40 C 162.686005 40 160 37.313995 160 34 C 160 30.686005 162.686005 28 166 28 C 169.313995 28 172 30.686005 172 34 C 172 37.313995 169.313995 40 166 40 M 188 34 C 188 37.300003 185.300003 40 182 40 C 178.699997 40 176 37.300003 176 34 L 176 26 C 176 22.699997 178.699997 20 182 20 C 185.300003 20 188 22.699997 188 26 Z M 162 44 C 165.313995 44 168 46.686005 168 50 C 168 53.313995 165.313995 56 162 56 C 158.686005 56 156 53.313995 156 50 C 156 46.686005 158.686005 44 162 44 M 162 76 C 158.686005 76 156 73.313995 156 70 C 156 66.686005 158.686005 64 162 64 C 165.313995 64 168 66.686005 168 70 C 168 73.313995 165.313995 76 162 76 M 232 68 L 172 68 L 172 56 L 232 56 Z M 232 210 L 232 218 C 232 221.300003 229.300003 224 226 224 C 222.699997 224 220 221.300003 220 218 L 220 210 C 220 206.699997 222.699997 204 226 204 C 229.300003 204 232 206.699997 232 210 M 204 112 L 212 112 L 212 120 L 204 120 Z M 202 124 C 205.300003 124 208 126.699997 208 130 L 208 138 C 208 141.300003 205.300003 144 202 144 C 198.699997 144 196 141.300003 196 138 L 196 130 C 196 126.699997 198.699997 124 202 124 M 228 120 L 224 120 L 220 120 L 216 120 L 216 112 L 216 108 L 212 108 L 204 108 L 200 108 L 200 112 L 200 120 L 200 120.201996 C 195.440994 121.130997 192 125.17099 192 130 L 192 138 C 192 143.514008 196.485992 148 202 148 C 207.514008 148 212 143.514008 212 138 L 212 130 C 212 127.747009 211.242004 125.674011 209.981003 124 L 212 124 L 216 124 L 216 132 L 216 136 L 220 136 L 224 136 L 224 140 L 224 144 L 228 144 L 236 144 L 236 210 C 236 204.485992 231.514008 200 226 200 C 220.485992 200 216 204.485992 216 210 L 216 218 C 216 223.514008 220.485992 228 226 228 C 231.514008 228 236 223.514008 236 218 L 236 232 L 228 232 L 228 244 L 210 244 L 124 244 L 124 232 L 152 232 L 152 216 L 124 216 L 124 228 L 120 228 L 76 228 L 76 212 L 76 208 L 72 208 L 64 208 L 60 208 L 60 212 L 60 228 L 56 228 L 56 220 L 56 216 L 52 216 L 52 196 L 52 192 L 48 192 L 28 192 L 28 172 L 36 172 L 40 172 L 40 168 L 40 160 L 40 156 L 36 156 L 28 156 L 28 144 L 40 144 L 44 144 L 44 140 L 44 108 L 44 104 L 44 96 L 44 92 L 40 92 L 28 92 L 28 88 L 56 88 L 56 16 L 68 16 L 148 16 L 182 16 L 236 16 L 236 52 L 232 52 L 172 52 L 171.798004 52 C 171.929993 51.354004 172 50.684998 172 50 C 172 47.455002 171.035995 45.136002 169.464005 43.369003 C 171.285995 42.692993 172.854996 41.503998 174 39.975006 C 175.824997 42.412003 178.727005 44 182 44 C 185.272995 44 188.175003 42.412003 190 39.975006 C 191.824997 42.412003 194.727005 44 198 44 C 203.514008 44 208 39.514008 208 34 C 208 28.485992 203.514008 24 198 24 C 195.746994 24 193.673996 24.757996 192 26.018997 L 192 26 C 192 20.485992 187.514008 16 182 16 C 176.485992 16 172 20.485992 172 26 L 172 26.018997 C 170.326004 24.757996 168.253006 24 166 24 C 160.485992 24 156 28.485992 156 34 C 156 36.544998 156.964005 38.863998 158.535995 40.630997 C 157.619003 40.970993 156.768005 41.440002 156 42.018997 L 156 39 C 156 37.343002 154.656998 36 153 36 L 124 36 C 121.791 36 104 37.791 104 40 L 148 40 L 148 44 L 154.018997 44 C 152.757996 45.673996 152 47.746994 152 50 C 152 55.514008 156.485992 60 162 60 C 164.253006 60 166.326004 59.242004 168 57.981003 L 168 62.018997 C 166.326004 60.757996 164.253006 60 162 60 C 156.485992 60 152 64.485992 152 70 C 152 75.514008 156.485992 80 162 80 C 166.828995 80 170.869003 76.55899 171.798004 72 L 172 72 L 232 72 L 236 72 L 236 88 L 236 112 L 236 120 Z M 228 136 L 228 132 L 228 124 L 236 124 L 236 140 L 228 140 Z M 224 132 L 220 132 L 220 124 L 224 124 Z M 72 228 L 64 228 L 64 212 L 72 212 Z M 60 244 L 60 232 L 64 232 L 72 232 L 76 232 L 120 232 L 120 244 Z M 44 244 L 44 240 C 44 235.582001 40.417999 232 36 232 L 50 232 L 52 232 L 56 232 L 56 244 Z M 28 232 L 28 220 L 32 220 L 32 228 L 32 232 Z M 48 216 L 36 216 L 32 216 L 28 216 L 28 196 L 48 196 Z M 36 220 L 48 220 L 52 220 L 52 228 L 36 228 Z M 20 196 L 24 196 L 24 216 L 20 216 Z M 28 160 L 36 160 L 36 168 L 28 168 Z M 20 140 L 20 108 L 24 108 L 28 108 L 40 108 L 40 140 Z M 28 96 L 40 96 L 40 104 L 28 104 Z M 236 12 L 148 12 L 68 12 L 56 12 L 52 12 L 52 16 L 52 84 L 28 84 L 24 84 L 24 88 L 24 92 L 24 96 L 24 104 L 20 104 L 16 104 L 16 108 L 16 140 L 16 144 L 20 144 L 24 144 L 24 156 L 20 156 L 20 160 L 20 168 L 20 172 L 24 172 L 24 192 L 20 192 L 16 192 L 16 196 L 16 216 L 16 220 L 20 220 L 24 220 L 24 232 L 24 236 L 28 236 L 36 236 C 38.205994 236 40 237.794006 40 240 L 40 244 L 40 248 L 44 248 L 56 248 L 60 248 L 120 248 L 124 248 L 228 248 L 232 248 L 232 244 L 232 236 L 236 236 L 240 236 L 240 232 L 240 144 L 240 140 L 240 124 L 240 120 L 240 112 L 240 88 L 240 16 L 240 12 Z"/>
    <path id="path39" fill="#ffffff" stroke="none" d="M 222 236 C 223.104996 236 224 235.104996 224 234 C 224 232.895004 223.104996 232 222 232 C 220.895004 232 220 232.895004 220 234 C 220 235.104996 220.895004 236 222 236"/>
    <path id="path40" fill="#ffffff" stroke="none" d="M 208 80 C 207.996994 80 207.994995 80 207.994995 80 L 212 80 Z M 212 76 L 208 76 C 205.791 76 204 77.791 204 80 C 204 82.209 205.791 84 208 84 L 212 84 C 214.209 84 216 82.209 216 80 C 216 77.791 214.209 76 212 76"/>
    <path id="path41" fill="#ffffff" stroke="none" d="M 230 24 C 231.104996 24 232 23.104996 232 22 C 232 20.895004 231.104996 20 230 20 C 228.895004 20 228 20.895004 228 22 C 228 23.104996 228.895004 24 230 24"/>
    <path id="path42" fill="#ffffff" stroke="none" d="M 198 172 C 199.104996 172 200 171.105011 200 170 C 200 168.894989 199.104996 168 198 168 C 196.895004 168 196 168.894989 196 170 C 196 171.105011 196.895004 172 198 172"/>
    <path id="path43" fill="#ffffff" stroke="none" d="M 158 24 C 159.104996 24 160 23.104996 160 22 C 160 20.895004 159.104996 20 158 20 C 156.895004 20 156 20.895004 156 22 C 156 23.104996 156.895004 24 158 24"/>
    <path id="path44" fill="#ffffff" stroke="none" d="M 114 208 C 112.894997 208 112 208.895004 112 210 C 112 211.104996 112.894997 212 114 212 C 115.105003 212 116 211.104996 116 210 C 116 208.895004 115.105003 208 114 208"/>
    <path id="path45" fill="#ffffff" stroke="none" d="M 154 116 C 155.104996 116 156 115.104996 156 114 C 156 112.895004 155.104996 112 154 112 C 152.895004 112 152 112.895004 152 114 C 152 115.104996 152.895004 116 154 116"/>
</svg>
