<?xml version="1.0" encoding="UTF-8"?>
<!-- Generated by Pixelmator Pro 3.7.1 -->
<svg width="256" height="256" viewBox="0 0 256 256" xmlns="http://www.w3.org/2000/svg">
    <path id="Path" fill="#ffffff" stroke="none" d="M 126 88 L 134 88 L 134 96 L 126 96 Z M 126 100 L 134 100 C 136.209 100 138 98.209 138 96 L 138 88 C 138 85.791 136.209 84 134 84 L 126 84 C 123.791 84 122 85.791 122 88 L 122 96 C 122 98.209 123.791 100 126 100"/>
    <path id="path1" fill="#ffffff" stroke="none" d="M 182 88 L 190 88 L 190 96 L 182 96 Z M 182 100 L 190 100 C 192.209 100 194 98.209 194 96 L 194 88 C 194 85.791 192.209 84 190 84 L 182 84 C 179.791 84 178 85.791 178 88 L 178 96 C 178 98.209 179.791 100 182 100"/>
    <path id="path2" fill="#ffffff" stroke="none" d="M 192 140 L 64 140 L 64 116 L 192 116 Z M 195.029007 112 L 60.971001 112 C 60.435001 112 60 112.447998 60 113 L 60 143 C 60 143.552002 60.435001 144 60.971001 144 L 195.029007 144 C 195.565002 144 196 143.552002 196 143 L 196 113 C 196 112.447998 195.565002 112 195.029007 112"/>
    <path id="path3" fill="#ffffff" stroke="none" d="M 244 181.982498 C 244 183.096497 243.097 183.999496 241.983002 183.999496 L 162.001007 183.999496 C 164.076996 182.667511 166.084 181.22049 168 179.643494 L 168 179.999496 L 237.981995 179.999496 C 239.095993 179.999496 240 179.096497 240 177.981506 L 240 78.018509 C 240 76.903503 239.095993 75.999496 237.981995 75.999496 L 166.277008 75.999496 C 164.390991 74.555496 162.434998 73.217499 160.408997 71.999496 L 241.983002 71.999496 C 243.097 71.999496 244 72.903503 244 74.017502 Z M 84.203003 168.999496 L 85.410004 168.999496 C 96.005005 180.065491 111.160995 186.999496 128 186.999496 C 144.838989 186.999496 159.994995 180.065491 170.589996 168.999496 L 171.796997 168.999496 C 161.162994 181.245499 145.492004 188.999496 128 188.999496 C 110.507996 188.999496 94.837006 181.245499 84.203003 168.999496 M 14.016998 183.999496 C 12.903 183.999496 12 183.096497 12 181.982498 L 12 149.656494 L 14.828003 146.828491 L 20 141.656494 L 20 177.981506 C 20 179.096497 20.904007 179.999496 22.018005 179.999496 L 88 179.999496 L 88 179.640503 C 89.917007 181.218506 91.923996 182.666504 94 183.999496 Z M 12 74.017502 C 12 72.903503 12.903 71.999496 14.016998 71.999496 L 95.591003 71.999496 C 93.565002 73.217499 91.608994 74.555496 89.723007 75.999496 L 22.018005 75.999496 C 20.904007 75.999496 20 76.903503 20 78.018509 L 20 114.343506 L 14.828003 109.171509 L 12 106.343506 Z M 162 95.999496 L 154 95.999496 L 154 87.999496 L 162 87.999496 Z M 98 87.999496 L 106 87.999496 L 106 95.999496 L 98 95.999496 Z M 78 95.999496 L 70 95.999496 L 70 87.999496 L 78 87.999496 Z M 20 135.999496 L 12 143.999496 L 12 111.999496 L 20 119.999496 L 24 123.999496 L 28 127.999496 L 24 131.999496 Z M 26 171.999496 C 26 169.790497 27.791 167.999496 30 167.999496 C 32.209 167.999496 34 169.790497 34 171.999496 C 34 174.209503 32.209 175.999496 30 175.999496 C 27.791 175.999496 26 174.209503 26 171.999496 M 34 83.999496 C 34 86.209503 32.209 87.999496 30 87.999496 C 27.791 87.999496 26 86.209503 26 83.999496 C 26 81.790497 27.791 79.999496 30 79.999496 C 32.209 79.999496 34 81.790497 34 83.999496 M 78 163.999496 L 70 163.999496 L 70 155.999496 L 78 155.999496 Z M 162 163.999496 L 154 163.999496 L 154 155.999496 L 162 155.999496 Z M 230 91.999496 C 232.389999 91.999496 234.533005 90.940506 236 89.273499 L 236 166.726501 C 234.533005 165.058502 232.389999 163.999496 230 163.999496 C 225.589005 163.999496 222 167.588501 222 171.999496 C 222 173.457489 222.397995 174.821503 223.082001 175.999496 L 172.035004 175.999496 C 173.229004 174.831497 174.394989 173.629501 175.501999 172.35849 C 176.307999 171.471497 176.800003 170.293503 176.800003 168.999496 C 176.800003 166.238495 174.563995 163.999496 171.802002 163.999496 L 171.796997 163.999496 L 170.589996 163.999496 C 169.22699 163.999496 167.921997 164.556488 166.979004 165.541504 C 166.863007 165.662506 166.73999 165.774506 166.623001 165.894501 C 166.863007 165.309509 167 164.671509 167 163.999496 L 167 155.999496 C 167 153.238495 164.761002 150.999496 162 150.999496 L 154 150.999496 C 151.238998 150.999496 149 153.238495 149 155.999496 L 149 163.999496 C 149 166.761505 151.238998 168.999496 154 168.999496 L 162 168.999496 C 162.583008 168.999496 163.13501 168.880493 163.654999 168.69751 C 153.942993 177.191498 141.195007 181.999496 128 181.999496 C 113.244003 181.999496 99.037003 176.001495 89.020996 165.541504 C 88.078003 164.556488 86.772995 163.999496 85.410004 163.999496 L 84.203003 163.999496 C 83.785004 163.999496 83.378006 164.0625 82.983994 164.161499 C 82.985001 164.106506 83 164.055496 83 163.999496 L 83 155.999496 C 83 153.238495 80.761002 150.999496 78 150.999496 L 70 150.999496 C 67.238998 150.999496 65 153.238495 65 155.999496 L 65 163.999496 C 65 166.761505 67.238998 168.999496 70 168.999496 L 78 168.999496 C 78.421005 168.999496 78.824005 168.932495 79.214996 168.834503 C 79.173996 170.07251 79.585007 171.307495 80.427994 172.278503 C 81.556 173.577499 82.746002 174.806503 83.964996 175.999496 L 36.917999 175.999496 C 37.602005 174.821503 38 173.457489 38 171.999496 C 38 167.588501 34.410995 163.999496 30 163.999496 C 27.610001 163.999496 25.466995 165.058502 24 166.726501 L 24 137.656494 L 30.828003 130.828491 L 33.656998 127.999496 L 30.828003 125.171494 L 24 118.343506 L 24 89.273499 C 25.466995 90.940506 27.610001 91.999496 30 91.999496 C 34.410995 91.999496 38 88.411499 38 83.999496 C 38 82.542496 37.602005 81.178497 36.917999 79.999496 L 84.985992 79.999496 C 83.395996 81.487503 81.871002 83.059509 80.427994 84.721497 C 80.406998 84.745499 80.391998 84.7715 80.371994 84.795502 C 79.707001 84.301498 78.891998 83.999496 78 83.999496 L 70 83.999496 C 67.791 83.999496 66 85.790497 66 87.999496 L 66 95.999496 C 66 98.209503 67.791 99.999496 70 99.999496 L 78 99.999496 C 80.209 99.999496 82 98.209503 82 95.999496 L 82 92.480499 C 82.673996 92.811508 83.421997 92.999496 84.203003 92.999496 L 85.410004 92.999496 C 86.772995 92.999496 88.078003 92.442505 89.020996 91.458496 C 90.645996 89.760498 92.391998 88.194504 94.223007 86.738495 C 94.089005 87.137497 94 87.556503 94 87.999496 L 94 95.999496 C 94 98.209503 95.791 99.999496 98 99.999496 L 106 99.999496 C 108.209 99.999496 110 98.209503 110 95.999496 L 110 87.999496 C 110 85.790497 108.209 83.999496 106 83.999496 L 98 83.999496 C 97.996994 83.999496 97.994995 84.000504 97.992004 84.000504 C 106.761002 78.207504 117.230003 74.999496 128 74.999496 C 138.768997 74.999496 149.238007 78.207504 158.007004 83.999496 L 154 83.999496 C 151.791 83.999496 150 85.790497 150 87.999496 L 150 95.999496 C 150 98.209503 151.791 99.999496 154 99.999496 L 162 99.999496 C 164.209 99.999496 166 98.209503 166 95.999496 L 166 90.488495 C 166.325989 90.811508 166.661011 91.125504 166.979004 91.458496 C 167.921997 92.442505 169.22699 92.999496 170.589996 92.999496 L 171.796997 92.999496 C 173.755997 92.999496 175.533997 91.856506 176.346008 90.074509 C 177.158997 88.292496 176.856003 86.2005 175.571991 84.721497 C 174.128998 83.059509 172.604004 81.487503 171.014008 79.999496 L 223.082001 79.999496 C 222.397995 81.178497 222 82.542496 222 83.999496 C 222 88.411499 225.589005 91.999496 230 91.999496 M 234 83.999496 C 234 86.209503 232.209 87.999496 230 87.999496 C 227.791 87.999496 226 86.209503 226 83.999496 C 226 81.790497 227.791 79.999496 230 79.999496 C 232.209 79.999496 234 81.790497 234 83.999496 M 226 171.999496 C 226 169.790497 227.791 167.999496 230 167.999496 C 232.209 167.999496 234 169.790497 234 171.999496 C 234 174.209503 232.209 175.999496 230 175.999496 C 227.791 175.999496 226 174.209503 226 171.999496 M 171.796997 87.999496 L 170.589996 87.999496 C 159.994995 76.934509 144.838989 69.999496 128 69.999496 C 111.160995 69.999496 96.005005 76.934509 85.410004 87.999496 L 84.203003 87.999496 C 94.837006 75.754501 110.507996 67.999496 128 67.999496 C 145.492004 67.999496 161.162994 75.754501 171.796997 87.999496 M 241.983002 67.999496 L 152.52301 67.999496 C 144.846008 64.749496 136.526001 62.999496 128 62.999496 C 119.473999 62.999496 111.154007 64.749496 103.477005 67.999496 L 14.016998 67.999496 C 10.699005 67.999496 8 70.699509 8 74.017502 L 8 102.343506 L 8 111.999496 L 8 143.999496 L 8 153.656494 L 8 181.982498 C 8 185.300507 10.699005 187.999496 14.016998 187.999496 L 101.220993 187.999496 C 109.509995 191.899506 118.632004 193.999496 128 193.999496 C 137.367004 193.999496 146.488998 191.898499 154.777008 187.999496 L 241.983002 187.999496 C 245.300995 187.999496 248 185.300507 248 181.982498 L 248 74.017502 C 248 70.699509 245.300995 67.999496 241.983002 67.999496"/>
    <path id="path4" fill="#ffffff" stroke="none" d="M 106 164 L 98 164 L 98 156 L 106 156 Z M 106 151 L 98 151 C 95.238998 151 93 153.238998 93 156 L 93 164 C 93 166.761002 95.238998 169 98 169 L 106 169 C 108.761002 169 111 166.761002 111 164 L 111 156 C 111 153.238998 108.761002 151 106 151"/>
    <path id="path5" fill="#ffffff" stroke="none" d="M 134 164 L 126 164 L 126 156 L 134 156 Z M 134 151 L 126 151 C 123.238998 151 121 153.238998 121 156 L 121 164 C 121 166.761002 123.238998 169 126 169 L 134 169 C 136.761002 169 139 166.761002 139 164 L 139 156 C 139 153.238998 136.761002 151 134 151"/>
    <path id="path6" fill="#ffffff" stroke="none" d="M 190 164 L 182 164 L 182 156 L 190 156 Z M 190 151 L 182 151 C 179.238998 151 177 153.238998 177 156 L 177 164 C 177 166.761002 179.238998 169 182 169 L 190 169 C 192.761002 169 195 166.761002 195 164 L 195 156 C 195 153.238998 192.761002 151 190 151"/>
</svg>
