<?xml version="1.0" encoding="UTF-8"?>
<!-- Generated by Pixelmator Pro 3.7.1 -->
<svg width="256" height="256" viewBox="0 0 256 256" xmlns="http://www.w3.org/2000/svg">
    <path id="Path" fill="#ffffff" stroke="none" d="M 244 68 L 227.005997 68 L 224 68 L 222.998001 68 L 219 132 C 219 155.804993 208.578003 178.807999 190.391998 195.18399 C 189.550003 195.061005 188.763 195 188 195 C 180.007996 195 173.106003 200.582001 171.404999 208.341995 C 164.640991 211.865005 157.419998 214.546997 149.951996 216.339996 C 149.557007 212.852997 146.59201 210.132996 143.001999 210.132996 C 142.712006 210.132996 142.419006 210.149994 142.130997 210.186996 L 130.729004 211.612 C 129.826996 211.725006 128.908997 211.781998 128 211.781998 C 127.091003 211.781998 126.172997 211.725006 125.271004 211.612 L 113.867996 210.186996 C 113.580994 210.149994 113.287994 210.132996 112.998001 210.132996 C 112.626007 210.132996 112.251007 210.162003 111.880997 210.222 C 108.759995 210.720993 106.356003 213.380997 106.039001 216.554001 C 98.591003 214.835999 91.397003 212.233994 84.675995 208.787003 C 83.147003 200.768005 76.214005 195 68 195 C 67.048996 195 66.091003 195.080994 65.145996 195.242004 C 46.992004 178.694 37 156.253998 36.998001 131.938004 L 33.001999 68 L 32 68 L 28.994003 68 L 12 68 L 12 32 C 12 27.600006 15.600006 24 20 24 L 56.891006 24 L 67.175003 61.710999 C 68.477005 66.483994 72.837997 69.817001 77.781006 69.817001 C 78.440994 69.817001 79.106003 69.757004 79.755005 69.639008 L 110.858002 63.983994 C 114.449997 63.330994 118.121002 63 121.771004 63 L 134.229004 63 C 137.878998 63 141.550003 63.330994 145.141998 63.983994 L 176.244003 69.639008 C 176.893997 69.757004 177.557999 69.817001 178.218994 69.817001 C 183.162003 69.817001 187.522995 66.483994 188.824997 61.710999 L 199.110001 24 L 236 24 C 240.399994 24 244 27.600006 244 32 Z M 199 216 C 199 220.417999 195.417999 224 191 224 C 186.582001 224 183 220.417999 183 216 C 183 211.582001 186.582001 208 191 208 C 195.417999 208 199 211.582001 199 216 M 244 184 L 217.839996 184 L 217.264008 185.007996 C 212.692993 193.003998 205.725006 203.291 200.389008 208.548004 C 198.188004 205.781998 194.800995 204 191 204 C 184.382996 204 179 209.382996 179 216 C 179 222.617004 184.382996 228 191 228 C 197.617004 228 203 222.617004 203 216 C 203 214.639999 202.761993 213.335999 202.343002 212.115997 C 209.414001 205.748001 217.084 193.259003 220.153 188 L 244 188 L 244 220 C 244 224.399994 240.399994 228 236 228 L 180.252991 231.716995 C 177.417999 231.904999 174.578003 232 171.738007 232 L 140.975006 232 C 142.029999 231.462997 142.985992 230.940002 143.778992 230.487 C 144.197998 230.246994 144.679993 230.007004 145.292999 229.729004 C 148.152008 228.440002 150 225.578003 150 222.438004 L 150 220.429993 C 158.261002 218.524994 166.244003 215.589005 173.688995 211.660995 L 174.968002 210.985001 L 175.237 209.565994 C 176.397003 203.442993 181.764999 199 188 199 C 188.678009 199 189.397003 199.065994 190.199005 199.201996 L 191.622009 199.445007 L 192.699005 198.485992 C 202.156006 190.061996 209.602997 180.098999 214.830994 168.873001 C 220.242996 157.255997 222.990997 144.872009 222.998001 132.126007 L 226.755997 72 L 244 72 Z M 136.561996 229.673004 C 135.63501 230.082993 134.660004 230.479004 133.679001 230.822998 C 133.02301 231.052994 132.36499 231.259995 131.714996 231.434998 C 130.414001 231.783005 129.145996 232 128 232 C 125.996002 232 123.612 231.335999 121.344002 230.462997 C 120.695 230.212997 120.056999 229.945999 119.438004 229.673004 C 118.512001 229.263 117.630997 228.837997 116.836998 228.434998 C 115.776993 227.895996 114.871002 227.395004 114.207993 227.016006 C 113.606003 226.671997 112.981995 226.367996 112.350998 226.082993 C 111.820999 225.845001 111.358002 225.496002 110.985992 225.070007 C 110.490005 224.503006 110.156998 223.796997 110.042999 223.026993 C 110.014999 222.834 110 222.638 110 222.438004 L 110 221.449997 L 110 217.378006 L 110 217.268005 C 110 215.770996 111.035995 214.406998 112.513 214.171997 C 112.662994 214.147003 112.815002 214.136993 112.968994 214.134995 C 112.979004 214.134995 112.988007 214.132996 112.998001 214.132996 C 113.121994 214.132996 113.246002 214.141006 113.371994 214.156006 L 124.775002 215.580994 C 125.841003 215.714996 126.926003 215.781998 128 215.781998 C 129.074005 215.781998 130.158997 215.714996 131.225006 215.580994 L 142.627991 214.156006 C 142.753998 214.141006 142.878998 214.132996 143.001999 214.132996 C 144.654999 214.132996 146 215.479004 146 217.132996 L 146 217.192993 L 146 221.270996 L 146 222.438004 C 146 222.638 145.985001 222.834 145.957001 223.026993 C 145.843994 223.796997 145.51001 224.503006 145.014008 225.070007 C 144.641998 225.496002 144.179001 225.845001 143.649002 226.082993 C 143.018005 226.367996 142.393997 226.671997 141.791992 227.016006 C 141.294998 227.300003 140.661011 227.653 139.928009 228.039001 C 138.949997 228.554001 137.798004 229.126007 136.561996 229.673004 M 57 216 C 57 211.582001 60.582001 208 65 208 C 69.417999 208 73 211.582001 73 216 C 73 220.417999 69.417999 224 65 224 C 60.582001 224 57 220.417999 57 216 M 84.261993 232 C 81.421005 232 78.582001 231.904999 75.748001 231.716995 L 20 228 C 15.600006 228 12 224.399994 12 220 L 12 188 L 35.847 188 C 38.916 193.259003 46.585999 205.748001 53.658005 212.115997 C 53.238007 213.335999 53 214.639999 53 216 C 53 222.617004 58.382996 228 65 228 C 71.617004 228 77 222.617004 77 216 C 77 209.382996 71.617004 204 65 204 C 61.199005 204 57.811996 205.781998 55.610992 208.548004 C 50.274994 203.291 43.307007 193.003998 38.735992 185.007996 L 38.160004 184 L 12 184 L 12 72 L 29.244003 72 L 33 132.063004 C 33.009003 144.901001 35.705002 157.294998 41.013 168.901001 C 46.158997 180.154999 53.5 190.128998 62.832001 198.542999 L 63.951996 199.552994 L 65.431 199.257004 C 66.279999 199.085999 67.143997 199 68 199 C 74.408997 199 79.798004 203.595001 80.815002 209.925003 L 81.054993 211.414001 L 82.393997 212.110001 C 89.796005 215.960007 97.755005 218.819 106 220.643005 L 106 222.438004 C 106 225.578003 107.848007 228.440002 110.707001 229.729004 C 111.320007 230.007004 111.802002 230.246994 112.220993 230.487 C 113.014008 230.940002 113.968994 231.462997 115.024994 232 Z M 194.964005 24 L 184.966003 60.658005 C 184.136993 63.695999 181.362 65.817001 178.218994 65.817001 C 177.798004 65.817001 177.375 65.779007 176.959991 65.703995 L 145.856003 60.048004 C 142.028992 59.352997 138.117004 59 134.229004 59 L 121.771004 59 C 117.883003 59 113.970993 59.352997 110.143997 60.048004 L 79.039993 65.703995 C 78.625 65.779007 78.201996 65.817001 77.781006 65.817001 C 74.636993 65.817001 71.863007 63.695999 71.033997 60.658005 L 61.035995 24 Z M 236 20 L 20 20 C 13.382996 20 8 25.382996 8 32 L 8 220 C 8 226.567993 13.304001 231.919998 19.854004 231.998993 L 75.481003 235.707993 C 78.391998 235.901001 81.345993 236 84.261993 236 L 171.738007 236 C 174.653992 236 177.608002 235.901001 180.518997 235.707993 L 236.145996 231.998993 C 242.695999 231.919998 248 226.567993 248 220 L 248 32 C 248 25.382996 242.617004 20 236 20"/>
    <path id="path1" fill="#ffffff" stroke="none" d="M 98 44 L 158 44 C 159.104004 44 160 43.104004 160 42 C 160 40.895996 159.104004 40 158 40 L 98 40 C 96.896004 40 96 40.895996 96 42 C 96 43.104004 96.896004 44 98 44"/>
    <path id="path2" fill="#ffffff" stroke="none" d="M 193 117.351593 C 193 124.335602 192.705994 131.405609 192.126999 138.36261 L 189.240005 172.999603 L 188.871994 175.582596 C 188.041 181.498596 180.063995 187.874603 166.988998 193.075592 C 154.699005 197.963593 139.759995 200.999603 128 200.999603 C 116.240997 200.999603 101.301003 197.963593 89.012001 193.075592 C 75.935997 187.874603 67.959999 181.498596 67.127998 175.582596 L 66.886002 173.861603 L 66.794998 173.416595 L 63.873993 138.36261 C 63.294006 131.401611 63 124.331604 63 117.351593 L 63 91.999603 C 63 88.225601 65.382004 84.8246 68.928001 83.537598 C 70.532997 82.954605 102.333 74.999603 128 74.999603 C 153.306 74.999603 185.067001 82.838593 186.960999 83.497604 C 190.572998 84.7556 193 88.1716 193 91.999603 Z M 188.276001 79.720596 C 186.248001 79.013596 154.303009 70.999603 128 70.999603 C 102.885002 70.999603 70.480003 78.718597 67.561996 79.777603 C 62.440994 81.637604 59 86.549606 59 91.999603 L 59 117.351593 C 59 124.445602 59.298996 131.626602 59.888 138.694611 L 63.080002 176.999603 L 63.322006 176.999603 C 66.830002 193.036591 104.512001 204.999603 128 204.999603 C 151.488007 204.999603 189.169998 193.036591 192.679001 176.999603 L 192.919998 176.999603 L 196.110992 138.694611 C 196.701004 131.628601 197 124.447601 197 117.351593 L 197 91.999603 C 197 86.471603 193.494003 81.536606 188.276001 79.720596"/>
    <path id="path3" fill="#ffffff" stroke="none" d="M 76 36 L 88 36 L 88 32 L 168 32 L 168 36 L 180 36 L 180 48 C 180 50.209 178.209 52 176 52 L 168 52 L 88 52 L 80 52 C 77.791 52 76 50.209 76 48 Z M 80 56 L 88 56 L 168 56 L 176 56 C 180.411011 56 184 52.410995 184 48 L 184 36 L 184 32 L 180 32 L 172 32 L 172 28 L 168 28 L 88 28 L 84 28 L 84 32 L 76 32 L 72 32 L 72 36 L 72 48 C 72 52.410995 75.588997 56 80 56"/>
    <path id="path4" fill="#ffffff" stroke="none" d="M 128 144 C 126.655998 144 125.327003 143.992004 124.004997 143.980011 L 124.000999 143.980011 C 124.023003 136.770996 135.964996 130.682007 152.365997 128.688995 C 152.367996 128.690002 152.369003 128.690002 152.371002 128.690002 C 154.324997 128.806 156.223999 128.936005 158.061996 129.078003 C 158.078995 129.07901 158.097992 129.080002 158.115997 129.082001 C 160.533005 129.270004 162.841995 129.479004 165.028992 129.708008 L 165.231003 129.729004 C 167.347992 129.951996 169.346008 130.194 171.216003 130.453003 C 171.356003 130.472992 171.497009 130.492004 171.636002 130.513 C 172.037994 130.569 172.436996 130.626007 172.826004 130.684998 C 172.921005 130.699005 173.013 130.713989 173.106995 130.727997 C 173.821991 130.835999 174.514008 130.947998 175.18399 131.061996 C 175.350998 131.089996 175.518997 131.117004 175.682999 131.145996 C 175.988007 131.199005 176.287003 131.253998 176.583008 131.307999 C 176.785004 131.345001 176.983002 131.382004 177.181 131.419998 C 177.455994 131.472992 177.731995 131.524002 177.998001 131.578003 C 178.248993 131.628998 178.490005 131.679993 178.731995 131.729996 C 179.097992 131.807999 179.453995 131.886002 179.800995 131.964996 C 180.024994 132.015991 180.251007 132.067001 180.468002 132.119003 C 180.669006 132.167999 180.863998 132.216003 181.05899 132.264999 C 181.281998 132.320999 181.5 132.377991 181.714996 132.436005 C 181.878998 132.479004 182.046005 132.522003 182.203003 132.567001 C 182.544998 132.662994 182.873001 132.759003 183.186005 132.856003 C 183.309998 132.895996 183.423004 132.934998 183.541992 132.972992 C 183.757004 133.042999 183.966003 133.113007 184.166 133.18399 C 184.285004 133.22699 184.402008 133.268997 184.515991 133.311996 C 184.725006 133.389008 184.923004 133.468002 185.113007 133.546997 C 185.19101 133.57901 185.274002 133.610001 185.348999 133.643005 C 185.597992 133.751007 185.830002 133.859009 186.044998 133.970001 C 186.112 134.003998 186.171997 134.039001 186.235992 134.072998 C 186.390991 134.156006 186.535004 134.238998 186.669998 134.324005 C 186.729996 134.360992 186.791 134.399002 186.847992 134.436996 C 186.996002 134.537003 187.130997 134.638 187.251007 134.738007 C 187.270996 134.755997 187.298004 134.77301 187.317001 134.791 C 187.451004 134.90799 187.561996 135.027008 187.656006 135.145996 C 187.68399 135.181 187.703995 135.214996 187.729004 135.248993 C 187.791992 135.339996 187.843994 135.432007 187.884995 135.52301 C 187.899994 135.55899 187.917999 135.595001 187.929993 135.630997 C 187.972 135.752991 188 135.876007 188 136 C 188 140.417999 161.136993 144 128 144 M 68 136 C 68 131.582001 94.862999 128 128 128 C 130.938995 128 133.826996 128.028992 136.654007 128.084 C 134.287003 128.899002 132.104004 129.817001 130.167007 130.845001 C 121.816002 135.274002 120.027 140.395996 120.002998 143.927002 C 90.649002 143.404999 68 140.057007 68 136 M 185.160995 129.287994 C 185.046005 129.248001 184.932999 129.208008 184.815002 129.169006 C 181.876007 128.195999 177.932007 127.378998 172.820999 126.641998 C 172.389999 126.578995 171.953003 126.516998 171.507996 126.457001 C 171.319 126.431 171.145996 126.403992 170.955002 126.378006 C 170.819 126.360001 170.675995 126.343002 170.539001 126.324997 C 170.369003 126.302994 170.194 126.281998 170.022003 126.259995 C 169.218994 126.156998 168.397995 126.057999 167.561996 125.960999 C 167.429001 125.945999 167.298996 125.931 167.166 125.916 C 166.660995 125.858994 166.149994 125.802994 165.634003 125.748993 C 165.593994 125.744003 165.553009 125.740005 165.513 125.735992 C 154.834991 124.612 141.763 124 128 124 C 111.802002 124 96.546997 124.845001 85.044998 126.378006 C 69.703995 128.423996 64 131.031006 64 136 C 64 140.968994 69.703995 143.575989 85.044998 145.622009 C 94.627998 146.899002 106.820999 147.696991 119.988998 147.928009 L 119.988998 147.945007 L 123.912003 147.979004 C 125.267998 147.992004 126.628998 148 128 148 C 144.197006 148 159.453003 147.154999 170.955002 145.622009 C 171.914001 145.494003 172.834991 145.363998 173.720001 145.231003 C 179.910995 144.303009 184.304993 143.244003 187.229996 141.906998 C 190.574005 140.377991 192 138.484009 192 136 C 192 133.05899 189.977005 130.947998 185.160995 129.287994"/>
    <path id="path5" fill="#ffffff" stroke="none" d="M 130.209 188 C 129.531006 188 128.806 188.382996 128.335999 188.988998 L 124.904999 193.410995 C 123.982002 194.600998 124.460999 196 125.791 196 C 126.469002 196 127.194 195.617004 127.664001 195.011002 L 131.095001 190.588989 C 132.018005 189.399002 131.539001 188 130.209 188"/>
    <path id="path6" fill="#ffffff" stroke="none" d="M 138.209 188 C 137.531006 188 136.807007 188.382996 136.335999 188.988998 L 132.904999 193.410995 C 131.981995 194.600998 132.460999 196 133.791 196 C 134.468994 196 135.192993 195.617004 135.664001 195.011002 L 139.095001 190.588989 C 140.018005 189.399002 139.539001 188 138.209 188"/>
    <path id="path7" fill="#ffffff" stroke="none" d="M 122.209 188 C 121.530998 188 120.806 188.382996 120.335999 188.988998 L 116.904999 193.410995 C 115.982002 194.600998 116.460999 196 117.791 196 C 118.469002 196 119.194 195.617004 119.664001 195.011002 L 123.095001 190.588989 C 124.017998 189.399002 123.539001 188 122.209 188"/>
    <path id="path8" fill="#ffffff" stroke="none" d="M 140 220.876999 L 133.820999 222.421997 C 131.919006 222.897995 129.960999 223.139008 128 223.139008 C 126.040001 223.139008 124.081001 222.897995 122.179001 222.421997 L 116 220.876999 L 116 220.531006 L 124.030998 221.535004 C 125.343002 221.699005 126.678001 221.781998 128 221.781998 C 129.322006 221.781998 130.656998 221.699005 131.968994 221.535004 L 140 220.531006 Z M 144 222.438995 L 144 217.132996 C 144 216.574005 143.544998 216.132996 143.001999 216.132996 C 142.960007 216.132996 142.917999 216.134995 142.876007 216.140991 L 131.472992 217.565002 C 130.320007 217.709991 129.160004 217.781998 128 217.781998 C 126.839996 217.781998 125.68 217.709991 124.527 217.565002 L 113.124001 216.140991 C 113.082001 216.134995 113.040001 216.132996 112.998001 216.132996 C 112.455002 216.132996 112 216.574005 112 217.132996 L 112 222.438995 C 112 223.356003 112.625 224.156006 113.514999 224.378998 L 121.209 226.302994 C 123.438004 226.858994 125.719002 227.139008 128 227.139008 C 130.281006 227.139008 132.561996 226.858994 134.791 226.302994 L 142.485001 224.378998 C 143.375 224.156006 144 223.356003 144 222.438995"/>
</svg>
