<?xml version="1.0" encoding="UTF-8"?>
<!-- Generated by Pixelmator Pro 3.7.1 -->
<svg width="256" height="256" viewBox="0 0 256 256" xmlns="http://www.w3.org/2000/svg">
    <path id="Path" fill="#ffffff" stroke="none" d="M 150 182 C 148.895996 182 148 182.895996 148 184 C 148 185.104004 148.895996 186 150 186 C 151.104004 186 152 185.104004 152 184 C 152 182.895996 151.104004 182 150 182"/>
    <path id="path1" fill="#ffffff" stroke="none" d="M 23.7939 202.136703 L 21.1709 199.514709 C 20.415899 198.758698 19.999901 197.7547 19.999901 196.686707 L 19.999901 165.6577 L 20.131901 165.524704 Z M 243.999893 63.337708 L 243.999893 163.999695 L 243.999893 199.999695 L 234.635895 209.3647 C 232.947906 211.051697 230.658905 211.999695 228.272903 211.999695 L 27.3139 211.999695 C 25.1919 211.999695 23.1569 211.1577 21.6569 209.6577 L 11.9999 199.999695 L 11.9999 163.999695 L 11.9999 155.999695 L 11.9999 63.313705 C 11.9999 61.191696 12.842899 59.1577 14.342899 57.656708 L 19.999901 51.99971 L 19.999901 55.99971 L 19.999901 59.99971 L 19.999901 65.99971 L 15.9999 67.99971 L 15.9999 71.99971 L 19.999901 69.99971 L 19.999901 73.99971 L 15.9999 75.999695 L 15.9999 79.999695 L 19.999901 77.999695 L 19.999901 81.999695 L 15.9999 83.999695 L 15.9999 87.999695 L 19.999901 85.999695 L 19.999901 89.999695 L 15.9999 91.999695 L 15.9999 95.999695 L 19.999901 93.999695 L 19.999901 97.999695 L 15.9999 99.999695 L 15.9999 103.999695 L 19.999901 101.999695 L 19.999901 105.999695 L 15.9999 107.999695 L 15.9999 111.999695 L 19.999901 109.999695 L 19.999901 113.999695 L 15.9999 115.999695 L 15.9999 119.999695 L 19.999901 117.999695 L 19.999901 121.999695 L 15.9999 123.999695 L 15.9999 127.999695 L 19.999901 125.999695 L 19.999901 129.999695 L 15.9999 131.999695 L 15.9999 135.999695 L 19.999901 133.999695 L 19.999901 137.999695 L 15.9999 139.999695 L 15.9999 143.999695 L 19.999901 141.999695 L 19.999901 143.999695 L 19.999901 147.999695 L 19.999901 154.999695 C 19.999901 156.378693 20.5609 157.628693 21.4659 158.533691 L 15.9999 163.999695 L 15.9999 196.686707 C 15.9999 198.807709 16.842899 200.842697 18.342899 202.342697 L 21.6569 205.6577 C 23.1569 207.1577 25.1919 207.999695 27.3139 207.999695 L 228.686905 207.999695 C 230.807907 207.999695 232.842896 207.1577 234.342896 205.6577 L 237.656906 202.342697 C 239.156906 200.842697 239.999893 198.807709 239.999893 196.686707 L 239.999893 163.999695 L 234.533905 158.533691 C 235.439896 157.628693 235.999893 156.378693 235.999893 154.999695 L 235.999893 147.320709 C 238.537903 143.835693 239.999893 139.5737 239.999893 135.052704 L 239.999893 90.842697 C 239.999893 86.266693 238.503906 82.0457 235.999893 78.603699 L 235.999893 52.082703 L 239.999893 56.041702 L 239.999893 55.99971 L 241.656906 57.656708 C 243.156906 59.1577 243.999893 61.191696 243.999893 63.313705 Z M 27.999899 159.999695 L 27.999899 203.999695 L 23.999901 163.999695 Z M 74.999901 195.999695 L 52.999901 195.999695 C 52.447899 195.999695 51.999901 195.552704 51.999901 194.999695 L 51.999901 188.999695 C 51.999901 188.447693 52.447899 187.999695 52.999901 187.999695 L 74.999901 187.999695 C 75.551903 187.999695 75.999901 188.447693 75.999901 188.999695 L 75.999901 194.999695 C 75.999901 195.552704 75.551903 195.999695 74.999901 195.999695 M 43.999901 199.999695 L 47.999901 199.999695 L 47.999901 195.999695 L 47.999901 194.999695 C 47.999901 197.756699 50.242901 199.999695 52.999901 199.999695 L 74.999901 199.999695 C 75.341904 199.999695 75.676903 199.964691 75.999901 199.898697 L 75.999901 203.999695 L 31.999901 203.999695 L 31.999901 199.999695 L 35.999901 199.999695 Z M 43.999901 195.999695 L 35.999901 195.999695 L 35.999901 183.999695 L 43.999901 183.999695 Z M 35.999901 167.999695 L 43.999901 167.999695 L 43.999901 171.999695 L 35.999901 171.999695 Z M 43.999901 179.999695 L 35.999901 179.999695 L 35.999901 175.999695 L 43.999901 175.999695 Z M 59.999901 175.999695 L 55.999901 175.999695 L 55.999901 167.999695 L 59.999901 167.999695 Z M 71.999901 175.999695 L 63.999901 175.999695 L 63.999901 167.999695 L 71.999901 167.999695 Z M 55.999901 163.999695 L 51.999901 163.999695 L 51.999901 167.999695 L 51.999901 175.999695 L 51.999901 179.999695 L 55.999901 179.999695 L 71.999901 179.999695 L 75.999901 179.999695 L 75.999901 184.1017 C 75.676903 184.034698 75.341904 183.999695 74.999901 183.999695 L 52.999901 183.999695 C 50.242901 183.999695 47.999901 186.242706 47.999901 188.999695 L 47.999901 167.999695 L 47.999901 163.999695 L 43.999901 163.999695 L 35.999901 163.999695 L 31.999901 163.999695 L 31.999901 159.999695 L 75.999901 159.999695 L 75.999901 163.999695 L 71.999901 163.999695 Z M 83.999901 163.999695 L 79.999901 203.999695 L 79.999901 194.999695 L 79.999901 188.999695 L 79.999901 159.999695 L 80.039902 159.999695 Z M 23.999901 147.999695 L 55.999901 147.999695 L 59.999901 147.999695 L 59.999901 143.999695 L 59.999901 59.99971 L 59.999901 55.99971 L 55.999901 55.99971 L 23.999901 55.99971 L 23.999901 51.99971 C 23.999901 49.798706 25.777901 48.015701 27.9769 48.002701 L 127.401901 47.99971 C 114.401901 52.343704 102.992897 60.033707 94.239899 69.99971 L 84.799904 69.99971 C 73.330902 69.99971 63.999901 79.349701 63.999901 90.842697 L 63.999901 135.052704 C 63.999901 143.978699 69.682899 151.911713 78.1409 154.793701 C 78.672905 154.974701 80.213898 155.4077 82.5289 155.999695 L 81.707901 155.999695 L 75.999901 155.999695 L 31.999901 155.999695 L 26.342899 155.999695 L 25.6569 155.999695 L 24.999901 155.999695 C 24.447901 155.999695 23.999901 155.552704 23.999901 154.999695 Z M 23.999901 139.999695 L 51.999901 139.999695 L 51.999901 135.999695 L 23.999901 135.999695 L 23.999901 131.999695 L 51.999901 131.999695 L 51.999901 127.999695 L 23.999901 127.999695 L 23.999901 123.999695 L 51.999901 123.999695 L 51.999901 119.999695 L 23.999901 119.999695 L 23.999901 115.999695 L 51.999901 115.999695 L 51.999901 111.999695 L 23.999901 111.999695 L 23.999901 107.999695 L 51.999901 107.999695 L 51.999901 103.999695 L 23.999901 103.999695 L 23.999901 99.999695 L 51.999901 99.999695 L 51.999901 95.999695 L 23.999901 95.999695 L 23.999901 91.999695 L 51.999901 91.999695 L 51.999901 87.999695 L 23.999901 87.999695 L 23.999901 83.999695 L 51.999901 83.999695 L 51.999901 79.999695 L 23.999901 79.999695 L 23.999901 75.999695 L 51.999901 75.999695 L 51.999901 71.99971 L 23.999901 71.99971 L 23.999901 67.99971 L 51.999901 67.99971 L 51.999901 63.99971 L 23.999901 63.99971 L 23.999901 59.99971 L 55.999901 59.99971 L 55.999901 143.999695 L 23.999901 143.999695 Z M 204.382904 69.99971 L 192.501892 69.99971 C 181.469894 61.251709 167.368896 55.99971 151.999893 55.99971 C 136.630905 55.99971 122.530899 61.251709 111.497902 69.99971 L 99.616898 69.99971 C 112.744896 56.460709 131.351898 47.99971 151.999893 47.99971 C 172.647903 47.99971 191.255905 56.460709 204.382904 69.99971 M 228.939896 48.122696 C 230.692902 48.546707 231.999893 50.115707 231.999893 51.99971 L 231.999893 74.4487 C 228.465897 71.671707 224.027893 69.99971 219.199905 69.99971 L 209.759903 69.99971 C 201.013901 60.041702 189.614899 52.354706 176.626892 48.009705 Z M 118.402901 69.99971 C 127.996902 63.700699 139.553909 59.99971 151.999893 59.99971 C 164.445892 59.99971 176.003906 63.700699 185.596893 69.99971 Z M 221.470901 155.999695 C 223.785904 155.4077 225.326904 154.974701 225.858902 154.793701 C 228.126892 154.021698 230.187897 152.874695 231.999893 151.453705 L 231.999893 154.999695 C 231.999893 155.552704 231.552902 155.999695 230.999893 155.999695 L 228.686905 155.999695 Z M 86.841904 161.185699 L 85.6689 159.999695 L 89.475899 159.999695 C 97.145897 170.79071 107.677902 179.502701 119.999901 185.097702 L 119.999901 185.190704 L 122.479897 186.20871 C 130.5439 189.521698 139.03891 191.417694 147.783905 191.880707 C 147.893906 191.886703 147.999908 191.898697 148.108902 191.904694 C 149.400909 191.966705 150.697906 191.999695 151.999893 191.999695 C 153.203903 191.999695 154.4039 191.965698 155.602905 191.910706 C 156.003906 191.8927 156.401901 191.861694 156.801895 191.8367 C 157.591904 191.788696 158.381897 191.733704 159.167892 191.660706 C 159.643906 191.616699 160.115906 191.566711 160.588898 191.514709 C 161.294907 191.436707 161.999893 191.349701 162.702896 191.251709 C 163.198898 191.183701 163.693893 191.113708 164.187897 191.035706 C 164.868896 190.928711 165.547897 190.806702 166.225906 190.680695 C 166.714905 190.589691 167.204895 190.5047 167.690903 190.405701 C 168.423904 190.2547 169.152893 190.08371 169.881897 189.911697 C 170.292892 189.814697 170.707901 189.729706 171.115906 189.625702 C 172.201904 189.3517 173.282898 189.049698 174.356903 188.727692 C 174.770905 188.603699 175.175903 188.463699 175.585907 188.33371 C 176.157898 188.15271 176.731903 187.979706 177.300903 187.783691 L 179.999893 186.855698 L 179.999893 186.773697 C 194.041901 181.33371 206.036896 171.940704 214.523895 159.999695 L 228.686905 159.999695 C 229.754898 159.999695 230.758896 160.41571 231.514893 161.171692 L 235.999893 165.6577 L 235.999893 196.686707 C 235.999893 197.7547 235.583893 198.758698 234.827896 199.514709 L 231.514893 202.827698 C 230.758896 203.583694 229.754898 203.999695 228.686905 203.999695 L 84.019905 203.999695 L 87.979897 164.398712 L 88.1679 162.524704 Z M 113.469902 162.393707 C 115.604897 162.741699 117.785896 163.077698 119.999901 163.397705 L 119.999901 167.026703 C 117.711899 165.624695 115.534897 164.072693 113.469902 162.393707 M 175.999893 175.475708 L 175.999893 179.999695 L 175.999893 183.999695 L 175.999893 184.000702 L 175.998901 184.001709 C 173.392899 184.897705 170.712906 185.643707 167.979904 186.247711 C 167.703903 186.308701 167.4319 186.374695 167.155899 186.432709 C 166.501892 186.570709 165.841904 186.689697 165.1819 186.808701 C 164.723892 186.890701 164.266907 186.973694 163.805893 187.047699 C 163.224899 187.141693 162.639893 187.225708 162.053894 187.305695 C 161.484894 187.38269 160.914902 187.452698 160.342896 187.5177 C 159.824905 187.575699 159.307907 187.633698 158.786896 187.680695 C 158.087906 187.74469 157.384903 187.792694 156.680893 187.8367 C 156.263901 187.863708 155.849899 187.896698 155.430893 187.91571 C 154.292892 187.967697 153.149902 187.999695 151.999893 187.999695 C 150.758896 187.999695 149.523911 187.969696 148.297897 187.908691 C 147.509903 187.86969 146.729904 187.798706 145.947906 187.735703 C 145.514908 187.699707 145.074905 187.681702 144.643906 187.638702 C 143.739899 187.549698 142.846909 187.428711 141.952896 187.306702 C 141.650909 187.265701 141.34491 187.2397 141.0439 187.194702 C 139.917908 187.02771 138.802902 186.830704 137.694901 186.613708 C 137.631897 186.6017 137.565903 186.592697 137.502899 186.579697 C 132.819901 185.649704 128.302902 184.276703 123.999901 182.508698 L 123.999901 179.999695 L 123.999901 173.760712 C 126.071899 174.738708 128.207901 175.609711 130.397903 176.36969 C 130.605896 176.442703 130.815903 176.505707 131.024902 176.575699 C 131.877899 176.862701 132.734909 177.135712 133.603897 177.387695 C 133.928909 177.481689 134.256897 177.567703 134.583908 177.6577 C 135.345901 177.865692 136.110901 178.06369 136.884903 178.24469 C 137.267899 178.334702 137.652908 178.418701 138.03891 178.502701 C 138.770905 178.659698 139.506897 178.805695 140.246902 178.93869 C 140.658905 179.012695 141.070908 179.085693 141.485901 179.153702 C 142.2229 179.270691 142.964905 179.370697 143.710907 179.464691 C 144.126907 179.5177 144.540909 179.574707 144.958908 179.618698 C 145.753906 179.702698 146.554901 179.763702 147.35791 179.820709 C 147.726898 179.845703 148.091904 179.881699 148.461899 179.901703 C 149.633896 179.962708 150.812897 179.999695 151.999893 179.999695 C 153.078903 179.999695 154.149902 179.972702 155.215897 179.9207 C 155.754898 179.895691 156.286896 179.845703 156.821899 179.806702 C 157.336899 179.769699 157.854904 179.741699 158.365906 179.693695 C 159.093903 179.622711 159.812897 179.528702 160.532898 179.434692 C 160.836899 179.395691 161.144897 179.365692 161.446899 179.322693 C 162.291901 179.200699 163.126892 179.055695 163.960907 178.90271 C 164.127899 178.871704 164.298904 178.847702 164.465897 178.815704 C 165.385895 178.639709 166.295898 178.439697 167.200897 178.225708 C 167.273895 178.207703 167.349899 178.193695 167.422897 178.17569 C 168.384903 177.945709 169.336899 177.691711 170.279892 177.418701 C 170.295898 177.414703 170.310898 177.410706 170.324905 177.4077 C 172.257904 176.848694 174.148895 176.201691 175.999893 175.475708 M 173.647903 172.077698 C 173.1539 172.263702 172.659897 172.449707 172.162903 172.620697 C 171.757904 172.760712 171.348892 172.890701 170.939896 173.021698 C 170.428894 173.186707 169.917892 173.352692 169.4039 173.502701 C 168.968903 173.630707 168.527893 173.745697 168.089905 173.865692 C 167.599899 173.996704 167.109894 174.131699 166.616898 174.250702 C 166.131897 174.368698 165.6409 174.472702 165.149902 174.578705 C 164.694901 174.677704 164.241898 174.781708 163.785904 174.86969 C 163.244904 174.974701 162.698898 175.062698 162.1539 175.15271 C 161.736893 175.22171 161.321899 175.296692 160.9039 175.357697 C 160.307907 175.444702 159.703903 175.510712 159.101898 175.579712 C 158.725906 175.622711 158.350906 175.674698 157.973892 175.710693 C 157.299896 175.775696 156.619904 175.818695 155.939896 175.861694 C 155.626892 175.880707 155.314896 175.910706 155.001892 175.926697 C 154.006897 175.973694 153.006897 175.999695 151.999893 175.999695 C 150.915909 175.999695 149.837906 175.967697 148.764908 175.912689 C 148.272903 175.887695 147.786896 175.841705 147.297897 175.804703 C 146.736908 175.763702 146.175903 175.724701 145.617905 175.668701 C 144.993896 175.604706 144.376907 175.521698 143.758896 175.439697 C 143.352905 175.385712 142.945908 175.334702 142.541901 175.272705 C 141.856903 175.167694 141.17691 175.046692 140.498901 174.918701 C 140.174896 174.858704 139.849899 174.796692 139.525909 174.730698 C 138.809906 174.58371 138.098907 174.424698 137.392899 174.253693 C 137.114899 174.186707 136.839905 174.115692 136.563904 174.044708 C 135.831909 173.855698 135.103897 173.658691 134.383896 173.444702 C 134.147903 173.374695 133.91391 173.297699 133.678909 173.224701 C 132.92691 172.990692 132.17691 172.751709 131.438904 172.490692 C 131.321899 172.449707 131.206909 172.40271 131.091904 172.360703 C 128.647903 171.479706 126.281898 170.444702 123.999901 169.275696 L 123.999901 167.999695 L 123.999901 163.9487 C 133.275909 165.163696 142.951904 165.999695 151.999893 165.999695 C 159.753906 165.999695 167.969894 165.385712 175.999893 164.445709 L 175.999893 167.999695 L 175.999893 171.1427 C 175.224899 171.470703 174.439896 171.781708 173.647903 172.077698 M 179.999893 169.275696 L 179.999893 163.9487 C 183.599899 163.477692 187.136902 162.9487 190.555893 162.388702 C 187.310898 165.02771 183.774902 167.340698 179.999893 169.275696 M 197.980896 161.095703 C 202.628906 160.238708 206.922897 159.359711 210.688904 158.535706 C 202.989899 169.054703 192.384903 177.421692 179.999893 182.508698 L 179.999893 179.999695 L 179.999893 175.475708 L 179.999893 173.760712 C 186.746902 170.574707 192.817902 166.263702 197.980896 161.095703 M 106.030899 161.097702 C 110.148903 165.216705 114.842903 168.792694 119.999901 171.684692 L 119.999901 173.760712 L 119.999901 179.999695 L 119.999901 180.705704 C 109.3349 175.551697 100.180901 167.896698 93.325897 158.538696 C 97.090897 159.362701 101.383896 160.240692 106.030899 161.097702 M 235.933899 136.511703 C 235.919907 136.666702 235.895905 136.819702 235.876892 136.973694 C 235.839905 137.297699 235.800903 137.620697 235.744904 137.939697 C 235.713898 138.116699 235.673904 138.291702 235.636902 138.467712 C 235.575897 138.758698 235.513901 139.047699 235.438904 139.331696 C 235.3909 139.511703 235.336899 139.687698 235.283905 139.8647 C 235.200897 140.141693 235.1129 140.416702 235.0159 140.687698 C 234.954895 140.859711 234.8909 141.029694 234.823898 141.1987 C 234.716904 141.469696 234.602905 141.737701 234.480896 142.001709 C 234.408905 142.159698 234.336899 142.318695 234.259903 142.473694 C 234.124893 142.746704 233.980896 143.013702 233.830902 143.278702 C 233.753906 143.41571 233.679901 143.554703 233.598892 143.689697 C 233.424896 143.979706 233.2379 144.260712 233.047897 144.538696 C 232.978897 144.639709 232.914902 144.742706 232.843903 144.841705 C 232.575897 145.214691 232.295898 145.577698 231.999893 145.927704 C 230.0439 148.236694 227.482895 150.014709 224.568893 151.00769 C 224.054901 151.182709 222.160904 151.707703 219.2379 152.435699 C 217.733902 152.810699 215.948898 153.240692 213.935898 153.703705 C 210.651901 154.4617 206.754898 155.309692 202.423904 156.1707 L 202.423904 156.169708 C 200.364899 156.578705 198.216904 156.990692 195.984894 157.394699 C 190.965897 158.303711 185.560898 159.176697 179.999893 159.914703 C 178.673904 160.091705 177.342896 160.261703 176.001892 160.4207 C 167.978897 161.373703 159.753906 161.999695 151.999893 161.999695 C 142.950897 161.999695 133.262909 161.145691 123.999901 159.914703 C 122.655899 159.737701 121.322899 159.550705 119.999901 159.357697 C 115.856903 158.752701 111.832901 158.085693 108.030899 157.397705 C 105.795898 156.991699 103.644897 156.580704 101.582901 156.171692 C 97.249901 155.311707 93.350899 154.4617 90.064903 153.704712 C 88.050903 153.240692 86.2659 152.810699 84.760902 152.435699 C 81.837898 151.707703 79.944901 151.182709 79.430901 151.00769 C 72.802902 148.748703 67.999901 142.435699 67.999901 135.052704 L 67.999901 124.736694 C 68.2939 125.179703 73.907898 133.367706 81.439903 133.367706 C 88.315903 133.367706 104.725899 136.818695 117.647896 143.2957 C 131.743896 150.361694 145.335907 153.578705 151.999893 153.578705 C 158.663895 153.578705 172.255905 150.361694 186.351898 143.2957 C 199.272903 136.818695 215.683899 133.367706 222.559906 133.367706 C 230.091904 133.367706 235.704895 125.179703 235.999893 124.736694 L 235.999893 135.052704 C 235.999893 135.543701 235.975906 136.030701 235.933899 136.511703 M 235.999893 99.999695 L 235.999893 103.999695 L 231.999893 103.999695 L 231.999893 107.999695 L 235.999893 107.999695 L 235.999893 117.999695 C 234.269897 120.6017 227.3349 129.999695 222.559906 129.999695 C 215.350906 129.999695 198.233902 133.5737 184.848892 140.2827 C 171.846893 146.800705 158.481903 150.210693 151.999893 150.210693 C 145.517899 150.210693 132.152908 146.800705 119.150902 140.2827 C 105.7659 133.5737 88.649902 129.999695 81.439903 129.999695 C 76.678902 129.999695 69.735901 120.602707 67.999901 117.999695 L 67.999901 107.999695 L 71.999901 107.999695 L 71.999901 103.999695 L 67.999901 103.999695 L 67.999901 99.999695 L 71.999901 99.999695 L 71.999901 95.999695 L 67.999901 95.999695 L 67.999901 91.999695 L 71.999901 91.999695 L 71.999901 87.999695 L 68.259903 87.999695 C 69.619904 80.080704 76.526901 73.99971 84.799904 73.99971 L 90.954903 73.99971 L 96.0159 73.99971 L 106.9179 73.99971 L 112.9739 73.99971 L 191.025894 73.99971 L 197.081894 73.99971 L 207.983902 73.99971 L 213.044907 73.99971 L 219.199905 73.99971 C 224.316895 73.99971 228.911896 76.330704 231.999893 79.977707 C 232.245895 80.268707 232.474899 80.574707 232.701904 80.881699 C 232.777893 80.985703 232.857895 81.085693 232.932907 81.190704 C 233.126892 81.467697 233.307907 81.7547 233.484894 82.042694 C 233.577896 82.193695 233.672897 82.342697 233.760895 82.495697 C 233.915894 82.764694 234.059906 83.040695 234.199905 83.318695 C 234.294907 83.507706 234.387894 83.6987 234.475906 83.891693 C 234.595901 84.152695 234.707901 84.416702 234.814896 84.683701 C 234.9039 84.911697 234.986893 85.141693 235.066895 85.373703 C 235.1539 85.623703 235.238907 85.873703 235.313904 86.128693 C 235.392899 86.397705 235.458893 86.6707 235.523895 86.945694 C 235.579895 87.176697 235.639893 87.4077 235.685898 87.641693 C 235.707901 87.759705 235.719894 87.881699 235.739899 87.999695 L 231.999893 87.999695 L 231.999893 91.999695 L 235.999893 91.999695 L 235.999893 95.999695 L 231.999893 95.999695 L 231.999893 99.999695 Z M 244.484894 54.827698 L 242.827896 53.171707 L 235.999893 46.342697 L 235.999893 46.454697 L 235.980896 46.436707 C 234.475906 44.946701 232.478897 44.12471 230.358902 44.123703 L 229.348892 44.122696 C 228.908905 44.047699 228.460907 43.99971 227.999893 43.99971 L 27.999899 43.99971 C 27.9839 43.99971 27.968901 44.002701 27.953899 44.002701 L 25.6609 44.000702 L 25.659901 44.000702 L 25.6579 44.000702 L 25.655899 44.000702 C 23.5189 44.000702 21.509899 44.832703 19.998899 46.344696 L 11.514899 54.828705 C 9.2479 57.094696 7.9999 60.108704 7.9999 63.313705 L 7.9999 155.999695 L 7.9999 163.999695 L 7.9999 199.999695 L 7.9999 201.6577 L 9.170899 202.827698 L 18.828899 212.485703 C 21.0949 214.751709 24.107901 215.999695 27.3139 215.999695 L 228.272903 215.999695 C 231.743896 215.999695 235.008896 214.647705 237.464905 212.192703 L 246.827896 202.827698 L 247.999893 201.6577 L 247.999893 199.999695 L 247.999893 163.999695 L 247.999893 63.337708 C 247.999893 60.108704 246.751892 57.094696 244.484894 54.827698"/>
    <path id="path2" fill="#ffffff" stroke="none" d="M 222.559601 104.736801 C 222.559601 106.384796 219.640594 110.033798 217.023605 112.275803 L 216.919601 112.3638 L 216.825607 112.458801 C 216.640594 112.643799 204.8526 124.260803 187.371597 132.81781 C 187.236603 132.440796 187.049606 132.074799 186.772598 131.749802 C 183.426605 127.829803 175.920593 121.578796 162.080597 121.578796 L 151.999603 121.578796 L 141.919601 121.578796 C 128.07959 121.578796 120.573601 127.829803 117.2276 131.749802 C 116.9506 132.074799 116.763603 132.440796 116.627602 132.81781 C 99.147598 124.260803 87.359604 112.644806 87.175598 112.4608 L 87.080597 112.3638 L 86.976608 112.275803 C 84.357605 110.043793 81.439606 106.398804 81.439606 104.736801 L 81.439606 87.894806 C 81.439606 84.179794 84.454605 81.157806 88.160599 81.157806 L 215.8396 81.157806 C 219.544601 81.157806 222.559601 84.179794 222.559601 87.894806 Z M 152.000595 141.156799 C 151.049591 141.1418 133.028595 140.730804 120.7556 133.797791 C 123.787598 130.494797 130.26059 125.578796 141.919601 125.578796 L 151.999603 125.578796 L 162.080597 125.578796 C 173.739594 125.578796 180.212601 130.494797 183.244598 133.797791 C 170.966599 140.733795 152.9366 141.1418 152.000595 141.156799 M 215.8396 77.789795 L 88.160599 77.789795 C 82.616608 77.789795 78.080597 82.336807 78.080597 87.894806 L 78.080597 104.736801 C 78.080597 109.112793 84.799606 114.841797 84.799606 114.841797 C 84.799606 114.841797 100.246597 130.318802 122.5476 139.1548 C 126.5186 140.914795 130.762604 142.163788 134.76059 143.042801 C 140.032593 144.306793 145.553604 145.073792 151.239594 145.138794 C 151.725601 145.1548 151.999603 145.157806 151.999603 145.157806 C 151.999603 145.157806 152.274597 145.1548 152.76059 145.138794 C 158.446594 145.073792 163.966599 144.306793 169.239594 143.042801 C 173.236603 142.163788 177.481598 140.914795 181.453598 139.153809 C 203.753601 130.318802 219.200607 114.841797 219.200607 114.841797 C 219.200607 114.841797 225.919601 109.112793 225.919601 104.736801 L 225.919601 87.894806 C 225.919601 82.336807 221.383606 77.789795 215.8396 77.789795"/>
    <path id="path3" fill="#ffffff" stroke="none" d="M 209.120102 102.682098 C 209.120102 107.517105 205.164093 111.474106 200.328094 111.474106 L 103.671104 111.474106 C 98.836105 111.474106 94.880104 107.517105 94.880104 102.682098 L 94.880104 96.686096 C 94.880104 91.851105 98.836105 87.894104 103.671104 87.894104 L 200.328094 87.894104 C 205.164093 87.894104 209.120102 91.851105 209.120102 96.686096 Z M 200.328094 83.894104 L 103.671104 83.894104 C 96.618103 83.894104 90.880104 89.633102 90.880104 96.686096 L 90.880104 102.682098 C 90.880104 109.735107 96.618103 115.474106 103.671104 115.474106 L 200.328094 115.474106 C 207.382095 115.474106 213.120102 109.735107 213.120102 102.682098 L 213.120102 96.686096 C 213.120102 89.633102 207.382095 83.894104 200.328094 83.894104"/>
    <path id="path4" fill="#ffffff" stroke="none" d="M 189.410202 103.017593 L 188.000198 103.017593 L 188.000198 96.156601 L 192.000198 96.156601 L 192.000198 100.119598 L 196.000198 100.119598 C 195.990204 101.135605 195.742203 103.017593 189.410202 103.017593 M 108.000198 100.119598 L 112.000198 100.119598 L 112.000198 96.156601 L 116.000198 96.156601 L 116.000198 103.017593 L 114.590202 103.017593 C 108.258202 103.017593 108.010201 101.135605 108.000198 100.119598 M 184.000198 103.017593 L 120.000198 103.017593 L 120.000198 96.156601 L 184.000198 96.156601 Z M 196.000198 92.156601 L 108.000198 92.156601 L 108.000198 96.119598 L 104.000198 96.119598 L 104.000198 99.999603 C 104.000198 105.478607 108.812202 107.017593 114.590202 107.017593 L 189.410202 107.017593 C 195.187195 107.017593 200.000198 105.478607 200.000198 99.999603 L 200.000198 96.119598 L 196.000198 96.119598 Z"/>
</svg>
