<?xml version="1.0" encoding="UTF-8"?>
<!-- Generated by Pixelmator Pro 3.7.1 -->
<svg width="256" height="256" viewBox="0 0 256 256" xmlns="http://www.w3.org/2000/svg">
    <path id="Path" fill="#ffffff" stroke="none" d="M 184 90 C 184 88.895004 184.895004 88 186 88 C 187.104996 88 188 88.895004 188 90 C 188 91.104996 187.104996 92 186 92 C 184.895004 92 184 91.104996 184 90 M 182 80 C 183.104996 80 184 80.895004 184 82 C 184 83.104996 183.104996 84 182 84 C 180.895004 84 180 83.104996 180 82 C 180 80.895004 180.895004 80 182 80 M 192 90 C 192 87.235992 190.119003 84.908997 187.570999 84.216003 C 187.845001 83.529007 188 82.783005 188 82 C 188 78.692001 185.307999 76 182 76 C 178.692001 76 176 78.692001 176 82 C 176 84.764008 177.880997 87.091003 180.429001 87.783997 C 180.154999 88.470993 180 89.216995 180 90 C 180 93.307999 182.692001 96 186 96 C 189.307999 96 192 93.307999 192 90"/>
    <path id="path1" fill="#ffffff" stroke="none" d="M 191.990997 120 L 199.990997 120 L 199.990997 124 L 191.990997 124 Z M 188 114 C 188 112.895004 188.895004 112 190 112 C 191.104996 112 192 112.895004 192 114 C 192 115.104996 191.104996 116 190 116 C 188.895004 116 188 115.104996 188 114 M 124 70 C 124 68.895004 124.894997 68 126 68 C 127.105003 68 128 68.895004 128 70 C 128 71.104996 127.105003 72 126 72 C 124.894997 72 124 71.104996 124 70 M 163.990997 84 L 155.990997 84 L 155.990997 80 L 163.990997 80 Z M 167.990997 88 L 171.990997 88 L 171.990997 92 L 167.990997 92 Z M 147.990997 88 L 151.990997 88 L 151.990997 92 L 147.990997 92 Z M 183.990997 124 L 171.990997 124 L 171.684998 124 L 168 124 L 168 120 L 179.990997 120 L 183.990997 120 L 183.990997 116 L 183.990997 108 L 183.990997 104 L 179.990997 104 L 168 104 L 168 100 L 164 100 L 148 100 L 147.649994 100 C 147.873001 99.373001 148 98.701996 148 98 C 148 97.298004 147.873001 96.626999 147.649994 96 L 147.990997 96 L 151.990997 96 L 155.990997 96 L 155.990997 92 L 155.990997 88 L 163.990997 88 L 163.990997 92 L 163.990997 96 L 167.990997 96 L 171.990997 96 L 175.990997 96 L 175.990997 92 L 175.990997 88 L 175.990997 84 L 171.990997 84 L 167.990997 84 L 167.990997 80 L 167.990997 76 L 163.990997 76 L 155.990997 76 L 151.990997 76 L 151.990997 80 L 151.990997 84 L 147.990997 84 L 143.990997 84 L 140 84 L 140 80 L 140 76 L 136 76 L 132 76 L 128 76 L 128 80 L 128 84 L 127.990997 84 L 123.990997 84 L 123.990997 75.647003 C 124.620003 75.871002 125.294998 76 126 76 C 129.307999 76 132 73.307999 132 70 C 132 66.692001 129.307999 64 126 64 C 123.393997 64 121.176003 65.673004 120.349998 68 L 119.990997 68 L 100 68 C 100 66.542007 99.601997 65.177994 98.917999 64 L 116 64 L 120 64 L 120 60 L 120 56 L 127.990997 56 L 127.990997 60 L 127.990997 64 L 131.990997 64 L 172.350006 64 C 172.126999 64.626999 172 65.298004 172 66 C 172 69.307999 174.692001 72 178 72 C 181.307999 72 184 69.307999 184 66 C 184 65.298004 183.873001 64.626999 183.649994 64 L 188 64 L 188 68 L 188 76 L 188 80 L 192 80 L 199.990997 80 L 199.990997 116 L 195.649994 116 C 195.873001 115.373001 196 114.701996 196 114 C 196 110.692001 193.307999 108 190 108 C 186.692001 108 184 110.692001 184 114 C 184 116.602997 185.669006 118.817993 187.990997 119.647003 L 187.990997 120 L 187.990997 124 Z M 168 108 L 179.990997 108 L 179.990997 116 L 168 116 Z M 148 124 L 148 120 L 148 116 L 148 108 L 148 104 L 163.990997 104 L 163.990997 108 L 163.990997 116 L 163.990997 120 L 164 120 L 164 124 Z M 116 124 L 116 120 L 116 116 L 116 112 L 116 104 L 116 100 L 112 100 L 96 100 L 96 96 L 99.990997 96 L 119.990997 96 L 119.990997 100 L 119.990997 104 L 123.990997 104 L 124 104 L 124 108 L 124 116 L 124 120 L 128 120 L 144 120 L 144 124 Z M 43.991001 124 L 43.991001 112 L 44 112 L 44 108 L 43.991001 108 L 43.991001 92 L 47.991001 92 L 47.991001 96 L 47.991001 100 L 47.991001 104 L 47.991001 108 L 47.991001 112 L 47.991001 116 L 51.991001 116 L 51.991001 120 L 51.991001 124 Z M 59.991001 56 L 116 56 L 116 60 L 59.991001 60 Z M 51.991001 108 L 55.991001 108 L 55.991001 112 L 51.991001 112 Z M 47.991001 84 L 55.991001 84 L 55.991001 88 L 47.991001 88 Z M 76 98 L 70.462997 98 C 69.364998 99.225006 67.775002 100 66 100 C 62.686001 100 60 97.313995 60 94 C 60 90.686005 62.686001 88 66 88 C 67.775002 88 69.364998 88.774994 70.462997 90 L 76 90 Z M 55.991001 100 L 51.991001 100 L 51.991001 96 L 55.991001 96 Z M 55.991001 80 L 47.991001 80 L 47.991001 76 L 55.991001 76 Z M 58 72 C 56.895 72 56 71.104996 56 70 C 56 68.895004 56.895 68 58 68 C 59.105 68 60 68.895004 60 70 C 60 71.104996 59.105 72 58 72 M 50 68 C 48.895 68 48 67.104996 48 66 C 48 64.895004 48.895 64 50 64 C 51.105 64 52 64.895004 52 66 C 52 67.104996 51.105 68 50 68 M 72 112 L 59.991001 112 L 59.991001 108 L 59.991001 104 L 59.991001 101.973999 C 61.666 103.240005 63.743999 104 66 104 C 68.170998 104 70.272003 103.285995 71.988998 102 L 72 102 L 72 104 Z M 70 72 C 68.894997 72 68 71.104996 68 70 C 68 68.895004 68.894997 68 70 68 C 71.105003 68 72 68.895004 72 70 C 72 71.104996 71.105003 72 70 72 M 88 92 L 92 92 L 92 96 L 88 96 Z M 83.990997 80 L 75.990997 80 L 75.990997 76 L 83.990997 76 Z M 95.990997 88 L 92 88 L 88 88 L 87.990997 88 L 87.990997 84 L 95.990997 84 Z M 95.990997 80 L 87.990997 80 L 87.990997 76 L 95.990997 76 Z M 43.991001 60 L 43.991001 56 L 55.991001 56 L 55.991001 60 L 55.991001 64 L 58 64 L 59.991001 64 L 70 64 L 85.082001 64 C 84.398003 65.177994 84 66.542007 84 68 C 84 69.457993 84.398003 70.822006 85.082001 72 L 83.990997 72 L 75.990997 72 L 75.650002 72 C 75.873001 71.373001 76 70.701996 76 70 C 76 66.692001 73.307999 64 70 64 C 66.692001 64 64 66.692001 64 70 C 64 73.307999 66.692001 76 70 76 C 70.698997 76 71.366997 75.873993 71.990997 75.653 L 71.990997 76 L 71.990997 80 L 71.990997 84 L 75.990997 84 L 83.990997 84 L 83.990997 88 L 83.990997 92 L 84 92 L 84 96 L 84 100 L 80 100 L 80 98 L 80 90 L 80 86 L 76 86 L 71.988998 86 C 70.272003 84.714005 68.170998 84 66 84 C 63.743999 84 61.666 84.759995 59.991001 86.026001 L 59.991001 84 L 59.991001 80 L 59.991001 76 L 59.991001 75.653 C 62.321999 74.828995 64 72.610001 64 70 C 64 66.692001 61.307999 64 58 64 C 57.216999 64 56.471001 64.154999 55.784 64.429001 C 55.091 61.880997 52.764 60 50 60 C 46.692001 60 44 62.692001 44 66 C 44 69.307999 46.692001 72 50 72 C 50.783001 72 51.528999 71.845001 52.216 71.570999 C 52.255001 71.716003 52.299999 71.858994 52.349998 72 L 50 72 L 47.991001 72 L 43.991001 72 L 43.991001 64 L 44 64 L 44 60 Z M 112 120 L 55.991001 120 L 55.991001 116 L 59.991001 116 L 72 116 L 76 116 L 112 116 Z M 112 112 L 76 112 L 76 104 L 112 104 Z M 119.990997 92 L 99.990997 92 L 99.990997 88 L 99.990997 84 L 99.990997 80 L 99.990997 76 L 99.990997 72 L 119.990997 72 Z M 135.990997 88 L 135.990997 92 L 131.990997 92 L 127.990997 92 L 127.990997 88 L 128 88 L 132 88 Z M 136 84 L 135.990997 84 L 132 84 L 132 80 L 136 80 Z M 143.990997 92 L 139.990997 92 L 139.990997 88 L 140 88 L 143.990997 88 Z M 142 100 C 140.895004 100 140 99.104996 140 98 C 140 96.895004 140.895004 96 142 96 C 143.104996 96 144 96.895004 144 98 C 144 99.104996 143.104996 100 142 100 M 142 104 L 135.990997 104 L 135.990997 100 L 135.990997 96 L 136.350006 96 C 136.126999 96.626999 136 97.298004 136 98 C 136 101.307999 138.692001 104 142 104 C 142.701996 104 143.373001 103.873001 144 103.649994 L 144 104 Z M 128 108 L 144 108 L 144 116 L 128 116 Z M 123.990997 96 L 127.990997 96 L 131.990997 96 L 131.990997 100 L 123.990997 100 Z M 96 68 L 95.990997 68 L 95.990997 68.087006 C 95.944 70.255005 94.179001 72 92 72 C 89.791 72 88 70.209 88 68 C 88 65.791 89.791 64 92 64 C 94.209 64 96 65.791 96 68 M 35.991001 124 L 35.991001 48 L 92.694 48 C 98.288002 51.473999 109.635002 52 115.990997 52 C 122.347 52 133.694 51.473007 139.289001 48 L 199.990997 48 L 199.990997 56 L 192 56 L 192 52 L 191.990997 52 L 188 52 L 131.990997 52 L 127.990997 52 L 120 52 L 116 52 L 115.990997 52 L 59.991001 52 L 55.991001 52 L 39.991001 52 L 39.991001 60 L 36 60 L 36 64 L 39.991001 64 L 39.991001 108 L 36 108 L 36 112 L 39.991001 112 L 39.991001 124 Z M 192 68 L 199.990997 68 L 199.990997 76 L 192 76 Z M 192 60 L 199.990997 60 L 199.990997 64 L 192 64 Z M 131.990997 56 L 187.990997 56 L 187.990997 60 L 131.990997 60 Z M 180 66 C 180 67.104996 179.104996 68 178 68 C 176.895004 68 176 67.104996 176 66 C 176 64.895004 176.895004 64 178 64 C 179.104996 64 180 64.895004 180 66 M 203.990997 124 L 203.990997 120 L 203.990997 80 L 204 80 L 204 76 L 204 68 L 204 64 L 203.990997 64 L 203.990997 56 L 203.990997 48 C 203.990997 45.794006 202.197006 44 199.990997 44 L 139.203003 44 C 138.477005 44 137.843002 44.158997 137.416 44.447998 C 132.544998 47.744003 119.786003 48 115.990997 48 C 112.196999 48 99.436996 47.744003 94.567001 44.447998 C 94.139999 44.158997 93.504997 44 92.779999 44 L 35.991001 44 C 33.785999 44 31.990999 45.794006 31.990999 48 L 31.990999 124 C 31.990999 126.205994 33.785999 128 35.991001 128 L 39.991001 128 L 51.991001 128 L 55.991001 128 L 63.991001 128 L 64.275002 128 L 95.990997 128 L 144 128 L 148 128 L 164 128 L 168 128 L 171.684998 128 L 171.990997 128 L 183.990997 128 L 191.990997 128 L 199.990997 128 C 202.197006 128 203.990997 126.205994 203.990997 124"/>
    <path id="path2" fill="#ffffff" stroke="none" d="M 171.991196 132 L 139.252197 137.037003 C 137.3022 137.337006 135.377197 137.748001 133.472198 138.263 C 129.985199 139.205002 125.347198 139.830994 120.185204 139.970001 L 119.991203 140 L 119.833199 139.97699 C 119.225204 139.990997 118.612198 140 117.991203 140 C 111.613205 140 105.8722 139.259003 101.856201 138.076004 C 99.1772 137.287994 96.462204 136.639008 93.698204 136.244003 L 63.991199 132 L 35.991199 132 C 31.5732 132 27.991199 128.417999 27.991199 124 L 27.991199 48 C 27.991199 43.582001 31.5732 40 35.991199 40 L 92.780205 40 C 94.202202 40 95.631203 40.338989 96.809204 41.136002 C 99.256203 42.791992 106.918205 44 115.991203 44 C 125.064201 44 132.726196 42.791992 135.173203 41.136002 C 136.351196 40.338989 137.780197 40 139.202194 40 L 199.991196 40 C 204.409195 40 207.991196 43.582001 207.991196 48 L 207.991196 124 C 207.991196 128.417999 204.409195 132 199.991196 132 Z M 211.991196 124 L 211.991196 48 C 211.991196 41.382996 206.6082 36 199.991196 36 L 139.202194 36 C 136.862198 36 134.694199 36.630005 132.932205 37.822998 C 131.806198 38.582001 125.682205 40 115.991203 40 C 106.300201 40 100.176201 38.582001 99.050201 37.822998 C 97.2882 36.630005 95.120201 36 92.780205 36 L 35.991199 36 C 29.374195 36 23.991199 41.382996 23.991199 48 L 23.991199 124 C 23.991199 130.617004 29.374195 136 35.991199 136 L 63.707203 136 L 93.132202 140.20401 C 95.467201 140.537003 97.951202 141.096008 100.726204 141.914001 C 105.295204 143.259003 111.4272 144 117.991203 144 C 118.529198 144 119.062202 143.994003 119.591202 143.983002 L 120.013199 144.044006 L 120.547203 143.960999 C 125.823204 143.803009 130.648209 143.169006 134.515198 142.123993 C 136.293198 141.643997 138.091202 141.261993 139.860199 140.98999 L 172.297195 136 L 199.991196 136 C 206.6082 136 211.991196 130.617004 211.991196 124"/>
    <path id="path3" fill="#ffffff" stroke="none" d="M 84 180 L 32 180 L 32 168 L 84 168 Z M 32 164 L 28 164 L 28 168 L 28 180 L 28 184 L 32 184 L 84 184 L 88 184 L 88 180 L 88 168 L 88 164 L 84 164 Z"/>
    <path id="path4" fill="#ffffff" stroke="none" d="M 92 180 L 120 180 L 120 176 L 92 176 Z"/>
    <path id="path5" fill="#ffffff" stroke="none" d="M 244 206 L 244 208 L 244 212 C 244 214.209 242.209 216 240 216 L 174.938004 216 C 203.884995 202.431 223.990997 173.026001 223.990997 139 L 223.990997 36 L 240 36 C 242.209 36 244 37.791 244 40 Z M 23.990997 220 C 21.781998 220 19.990997 218.209 19.990997 216 L 19.990997 36 C 19.990997 33.791 21.781998 32 23.990997 32 L 95.078995 32 C 97.240005 32 99.401993 32.473999 101.266006 33.567001 C 103.705002 34.996994 109.380005 36 115.990997 36 C 122.602997 36 128.278 34.996994 130.716003 33.567001 C 132.580002 32.473999 134.742004 32 136.903 32 L 219.990997 32 L 219.990997 139 C 219.990997 183.735001 183.725998 220 138.990997 220 Z M 13.826004 95 C 12.817001 95 12 94.182999 12 93.174011 L 12 86.825989 C 12 85.817001 12.817001 85 13.826004 85 L 15.990997 85 L 15.990997 95 Z M 247.746994 38 C 246.856995 34.552994 243.720993 32 240 32 L 223.990997 32 L 223.990997 28 L 219.990997 28 L 136.903 28 C 133.893005 28 131.054001 28.731995 128.692993 30.117004 C 127.402 30.873993 122.954002 32 115.990997 32 C 109.028 32 104.580002 30.873993 103.289993 30.117004 C 100.927994 28.731995 98.089005 28 95.078995 28 L 23.990997 28 C 19.580002 28 15.990997 31.589005 15.990997 36 L 15.990997 81 L 13.826004 81 C 10.613007 81 8 83.613007 8 86.825989 L 8 93.174011 C 8 96.386993 10.613007 99 13.826004 99 L 15.990997 99 L 15.990997 216 C 15.990997 220.410995 19.580002 224 23.990997 224 L 138.990997 224 C 147.968002 224 156.619003 222.591003 164.747009 220 L 240 220 C 244.410995 220 248 216.410995 248 212 L 248 208 L 248 205.815002 L 248 40 Z"/>
</svg>
