<?xml version="1.0" encoding="UTF-8"?>
<!-- Generated by Pixelmator Pro 3.7.1 -->
<svg width="256" height="256" viewBox="0 0 256 256" xmlns="http://www.w3.org/2000/svg">
    <path id="Path" fill="#ffffff" stroke="none" d="M 196 48 L 181.643997 48 C 181.078995 48 180.529007 47.910995 180 47.753998 L 180 24 L 191.959 24 C 194.190994 24 196 25.809006 196 28.041 Z M 196 224 C 196 228.175995 189.194 231.977005 178.057007 234.826996 C 178.718994 234.656006 179.367004 234.481995 180 234.306 L 180 199.779007 C 182.470001 197.253006 184 193.804001 184 190 C 184 186.195999 182.470001 182.746994 180 180.220993 L 180 52 L 196 52 Z M 176 235.332001 C 176.628998 235.184998 177.240005 235.033005 177.841995 234.880005 C 177.238007 235.033005 176.628998 235.184998 176 235.332001 M 80 235.332001 L 80 205.869003 C 84.249001 209.677994 89.858002 212 96 212 C 109.234001 212 120 201.233994 120 188 C 120 174.765991 109.234001 164 96 164 C 89.858002 164 84.249001 166.321991 80 170.130997 L 80 50.561005 C 80.352997 50.270004 80.68 49.942001 80.974998 49.582001 C 84.666 45.072006 98.477997 41.487 116.214996 40.367004 C 117.342003 46.968994 123.077003 52 130 52 C 136.820007 52 142.494995 47.121002 143.740005 40.664001 C 159.552002 42.035995 171.613007 45.414001 175.024994 49.582001 C 175.320007 49.942001 175.647003 50.270004 176 50.561005 L 176 177.369995 C 174.177994 176.501007 172.149002 176 170 176 C 167.561996 176 165.270004 176.628998 163.270996 177.729004 C 163.737 176.576004 164 175.319 164 174 C 164 168.485992 159.514008 164 154 164 C 148.485992 164 144 168.485992 144 174 C 144 179.514008 148.485992 184 154 184 C 155.319 184 156.576004 183.737 157.729004 183.270996 C 156.628998 185.270004 156 187.561996 156 190 C 156 197.720001 162.279999 204 170 204 C 172.149002 204 174.177994 203.498993 176 202.630005 L 176 235.332001 C 163.701004 238.216995 146.735992 240 128 240 C 109.264 240 92.299004 238.216995 80 235.332001 M 78.157997 234.880005 C 78.760002 235.033005 79.371002 235.184998 80 235.332001 C 79.371002 235.184998 78.762001 235.033005 78.157997 234.880005 M 60 224 L 60 52 L 76 52 L 76 174.752991 C 73.474998 178.552994 72 183.106995 72 188 C 72 192.893005 73.474998 197.447006 76 201.246994 L 76 234.306 C 76.633003 234.481995 77.280998 234.656006 77.943001 234.826996 C 66.806 231.977005 60 228.175995 60 224 M 60 28.041 C 60 25.809006 61.809006 24 64.041 24 L 76 24 L 76 47.753998 C 75.471001 47.910995 74.920998 48 74.356003 48 L 60 48 Z M 88 176 C 88 178.209 86.209 180 84 180 L 77.675003 180 C 79.691002 175.389999 83.389999 171.69101 88 169.675003 Z M 77.675003 196 L 84 196 C 86.209 196 88 197.791 88 200 L 88 206.324997 C 83.389999 204.309006 79.691002 200.610001 77.675003 196 M 114.324997 196 C 112.308998 200.610001 108.610001 204.309006 104 206.324997 L 104 200 C 104 197.791 105.791 196 108 196 Z M 114.324997 180 L 108 180 C 105.791 180 104 178.209 104 176 L 104 169.675003 C 108.610001 171.69101 112.308998 175.389999 114.324997 180 M 97.449997 168.072998 C 98.311996 168.151001 99.164001 168.291992 100 168.509003 L 100 176 C 100 180.410995 103.588997 184 108 184 L 115.490997 184 C 115.708 184.835999 115.848999 185.688004 115.927002 186.550003 C 115.960999 187.031006 116 187.509995 116 188 C 116 188.490005 115.960999 188.968994 115.927002 189.449997 C 115.848999 190.311996 115.708 191.164001 115.490997 192 L 108 192 C 103.588997 192 100 195.589005 100 200 L 100 207.490997 C 99.164001 207.707993 98.310997 207.848999 97.448997 207.927002 C 96.969002 207.960999 96.488998 208 96 208 C 95.511002 208 95.030998 207.960999 94.551003 207.927002 C 93.689003 207.848999 92.835999 207.707993 92 207.490997 L 92 200 C 92 195.589005 88.411003 192 84 192 L 76.509003 192 C 76.292 191.164001 76.151001 190.311005 76.072998 189.449005 C 76.039001 188.968994 76 188.488998 76 188 C 76 187.511002 76.039001 187.031006 76.072998 186.550995 C 76.151001 185.688995 76.292 184.835999 76.509003 184 L 84 184 C 88.411003 184 92 180.410995 92 176 L 92 168.509003 C 92.835999 168.291992 93.688004 168.151001 94.550003 168.072998 C 95.030998 168.039001 95.510002 168 96 168 C 96.489998 168 96.969002 168.039001 97.449997 168.072998 M 130 28 C 135.514008 28 140 32.485992 140 38 C 140 43.514008 135.514008 48 130 48 C 124.486 48 120 43.514008 120 38 C 120 32.485992 124.486 28 130 28 M 80.961998 24 C 85.410004 19.436005 104.778 16 128 16 C 151.222 16 170.589996 19.436005 175.037994 24 L 176 24 L 176 45.044998 C 173.171997 42.910995 168.834991 41.115005 162.910995 39.634003 C 157.459991 38.270996 150.979996 37.270004 143.932999 36.666 C 143.259995 29.559998 137.281998 24 130 24 C 122.820999 24 116.913002 29.406006 116.102997 36.367004 C 107.490997 36.902008 99.566002 38.014999 93.088997 39.634003 C 87.165001 41.115005 82.828003 42.910995 80 45.044998 L 80 24 Z M 154 180 C 150.686005 180 148 177.313995 148 174 C 148 170.686005 150.686005 168 154 168 C 157.313995 168 160 170.686005 160 174 C 160 177.313995 157.313995 180 154 180 M 170 200 C 164.477005 200 160 195.522995 160 190 C 160 184.477005 164.477005 180 170 180 C 175.522995 180 180 184.477005 180 190 C 180 195.522995 175.522995 200 170 200 M 191.959 20 L 176.479004 20 C 173.209991 17.653992 167.425995 15.755997 159.238007 14.346008 C 150.451996 12.833008 139.358002 12 128 12 C 116.641998 12 105.547997 12.833008 96.762001 14.346008 C 88.573997 15.755997 82.790001 17.653992 79.521004 20 L 64.041 20 C 59.606995 20 56 23.606995 56 28.041 L 56 224 C 56 230.591003 63.524002 235.565994 79.000999 239.207001 C 92.136002 242.298004 109.537003 244 128 244 C 146.462997 244 163.863998 242.298004 176.998993 239.207001 C 192.475998 235.565994 200 230.591003 200 224 L 200 28.041 C 200 23.606995 196.393005 20 191.959 20"/>
    <path id="path1" fill="#ffffff" stroke="none" d="M 168 148 L 88 148 L 88 80 L 168 80 Z M 172 76 L 84 76 L 84 152 L 172 152 Z"/>
    <path id="path2" fill="#ffffff" stroke="none" d="M 142 208 C 136.477005 208 132 203.522995 132 198 C 132 192.477005 136.477005 188 142 188 C 147.522995 188 152 192.477005 152 198 C 152 203.522995 147.522995 208 142 208 M 142 184 C 134.279999 184 128 190.279999 128 198 C 128 205.720001 134.279999 212 142 212 C 149.720001 212 156 205.720001 156 198 C 156 190.279999 149.720001 184 142 184"/>
    <path id="path3" fill="#ffffff" stroke="none" d="M 134 180 C 130.686005 180 128 177.313995 128 174 C 128 170.686005 130.686005 168 134 168 C 137.313995 168 140 170.686005 140 174 C 140 177.313995 137.313995 180 134 180 M 134 164 C 128.485992 164 124 168.485992 124 174 C 124 179.514008 128.485992 184 134 184 C 139.514008 184 144 179.514008 144 174 C 144 168.485992 139.514008 164 134 164"/>
    <path id="path4" fill="#ffffff" stroke="none" d="M 94 188 C 94 189.105011 94.894997 190 96 190 C 97.105003 190 98 189.105011 98 188 C 98 186.894989 97.105003 186 96 186 C 94.894997 186 94 186.894989 94 188"/>
</svg>
