<?xml version="1.0" encoding="UTF-8"?>
<!-- Generated by Pixelmator Pro 3.7.1 -->
<svg width="256" height="256" viewBox="0 0 256 256" xmlns="http://www.w3.org/2000/svg">
    <path id="Path" fill="#ffffff" stroke="none" d="M 244 216 L 243.845001 216 C 242.057999 228.707001 223.417999 238.854996 200 239.903 L 200 240 L 191.022995 240 L 194.678009 210.765991 C 194.854004 209.343994 194.412994 207.912003 193.464996 206.839005 C 193.197998 206.537003 192.895996 206.274994 192.571991 206.048996 L 227.132996 60.128998 C 227.708008 58.776993 228 57.389999 228 56 C 228 47.330994 217.520996 40.315994 196.852997 35.149002 C 178.412003 30.539001 153.959991 28 128 28 C 102.039993 28 77.587997 30.539001 59.147003 35.149002 C 38.479004 40.315994 28 47.330994 28 56 C 28 57.389999 28.292007 58.776993 28.867004 60.128998 L 63.427002 206.046997 C 63.102997 206.272003 62.802002 206.535995 62.535995 206.837997 C 61.585999 207.912994 61.145004 209.345001 61.322998 210.766998 L 64.977005 240 L 56 240 L 56 239.903 C 32.582001 238.854996 13.942001 228.707001 12.154999 216 L 12 216 L 12 28 C 12 21.373001 17.373001 16 24 16 L 232 16 C 238.626999 16 244 21.373001 244 28 Z M 188.662003 205.203003 L 143.781006 208.007996 C 133.328003 208.658997 122.672997 208.658997 112.218002 208.007996 L 67.337006 205.203003 L 32.673004 58.841995 C 32.233002 57.910004 32 56.962006 32 56 C 32 42.744995 74.979996 32 128 32 C 181.020004 32 224 42.744995 224 56 C 224 56.962006 223.766998 57.910004 223.326996 58.841995 Z M 65.292007 210.270996 C 65.255005 209.981003 65.341995 209.703003 65.533997 209.485001 C 65.727005 209.266998 65.983994 209.136993 66.345993 209.147995 L 111.968994 212 C 122.598 212.664001 133.404999 212.664001 144.031006 212 L 189.718994 209.145996 C 190.007996 209.145996 190.272995 209.266998 190.466003 209.485001 C 190.658005 209.703003 190.744995 209.981995 190.709 210.270996 L 186.992004 240 L 69.007996 240 Z M 232 12 L 24 12 C 15.177994 12 8 19.177994 8 28 L 8 216 L 8 220 L 9.018997 220 C 11.089996 226.085999 16.309006 231.615997 24.052002 235.835999 C 31.692993 240.001007 41.501007 242.729004 52 243.645996 L 52 244 L 56 244 L 200 244 L 204 244 L 204 243.645996 C 214.498001 242.729004 224.307007 240.001007 231.947998 235.835999 C 239.690994 231.615997 244.910004 226.085999 246.981003 220 L 248 220 L 248 216 L 248 28 C 248 19.177994 240.822006 12 232 12"/>
    <path id="path1" fill="#ffffff" stroke="none" d="M 196.247101 129.132797 L 142.296097 132.186798 C 132.839096 132.721802 123.160103 132.721802 113.704102 132.186798 L 59.753098 129.132797 L 43.563095 57.179794 C 45.753098 55.542801 51.755096 52.118805 66.442108 48.836807 C 83.285103 45.0728 105.146103 42.999802 128.000092 42.999802 C 150.854095 42.999802 172.716095 45.0728 189.559097 48.836807 C 204.245102 52.118805 210.246094 55.541794 212.435104 57.178802 Z M 190.430099 44.9328 C 173.310104 41.106796 151.139099 38.999802 128.000092 38.999802 C 104.861099 38.999802 82.689102 41.106796 65.570099 44.9328 C 46.741104 49.140808 41.060104 53.701797 39.493103 55.466797 L 39.078094 56.010803 L 39.312103 56.508804 L 56.513107 132.955811 L 113.478104 136.17981 C 118.287102 136.451797 123.172104 136.589798 128.000092 136.589798 C 132.828094 136.589798 137.714096 136.451797 142.521103 136.17981 L 199.486099 132.955811 L 216.687103 56.507797 L 216.942093 55.956802 L 216.508102 55.466797 C 214.940094 53.701797 209.2621 49.1418 190.430099 44.9328"/>
    <path id="path2" fill="#ffffff" stroke="none" d="M 197.190399 74.826706 L 196.926407 75.999695 L 191.043396 102.147705 C 190.398407 103.255707 189.005402 103.999695 187.426407 103.999695 L 172.536407 103.999695 C 184.360397 103.999695 192.000397 98.5047 192.000397 89.999695 L 192.000397 83.999695 L 192.000397 79.999695 L 188.000397 79.999695 L 188.000397 75.999695 L 184.000397 75.999695 L 72.000397 75.999695 L 68.000397 75.999695 L 68.000397 79.999695 L 64.000397 79.999695 L 64.000397 83.999695 L 64.000397 89.999695 C 64.000397 98.5047 71.640396 103.999695 83.463402 103.999695 L 68.573395 103.999695 C 66.9944 103.999695 65.601395 103.255707 64.956406 102.147705 L 58.809402 74.826706 C 58.335403 72.721695 59.615402 70.623703 61.7034 70.076706 C 63.992401 69.478699 66.854401 68.812698 68.8414 68.457703 C 84.919395 65.582703 105.928398 63.999695 128.000397 63.999695 C 150.071396 63.999695 171.081406 65.582703 187.158401 68.457703 C 189.145401 68.812698 192.007401 69.478699 194.295395 70.076706 C 196.383408 70.623703 197.664398 72.721695 197.190399 74.826706 M 128.000397 111.999695 C 112.519402 111.999695 99.6064 108.564697 96.641396 103.999695 L 159.358398 103.999695 C 156.393402 108.564697 143.4814 111.999695 128.000397 111.999695 M 76.000397 91.999695 L 76.000397 95.999695 C 76.000397 97.104706 76.895401 97.999695 78.000397 97.999695 C 79.104401 97.999695 80.000397 97.104706 80.000397 95.999695 L 80.000397 91.999695 L 84.000397 91.999695 L 84.000397 95.999695 C 84.000397 97.104706 84.895401 97.999695 86.000397 97.999695 C 87.104401 97.999695 88.000397 97.104706 88.000397 95.999695 L 88.000397 91.999695 L 94.628403 91.999695 L 95.544395 94.747696 C 95.816399 95.564697 96.580399 96.115692 97.441399 96.115692 L 158.558395 96.115692 C 158.989395 96.115692 159.395401 95.977692 159.727402 95.737701 C 160.060394 95.497696 160.319397 95.156693 160.456406 94.747696 L 161.372406 91.999695 L 168.000397 91.999695 L 168.000397 95.999695 C 168.000397 97.104706 168.895401 97.999695 170.000397 97.999695 C 171.104401 97.999695 172.000397 97.104706 172.000397 95.999695 L 172.000397 91.999695 L 176.000397 91.999695 L 176.000397 95.999695 C 176.000397 97.104706 176.895401 97.999695 178.000397 97.999695 C 179.104401 97.999695 180.000397 97.104706 180.000397 95.999695 L 180.000397 91.999695 L 187.761398 91.999695 C 186.434402 97.844696 179.287399 99.999695 172.536407 99.999695 L 83.463402 99.999695 C 76.712402 99.999695 69.565399 97.844696 68.238403 91.999695 Z M 160.000397 91.999695 L 96.000397 91.999695 L 96.000397 87.999695 L 160.000397 87.999695 Z M 188.000397 83.999695 L 188.000397 87.999695 L 180.000397 87.999695 L 180.000397 83.999695 C 180.000397 82.895706 179.104401 81.999695 178.000397 81.999695 C 176.895401 81.999695 176.000397 82.895706 176.000397 83.999695 L 176.000397 87.999695 L 172.000397 87.999695 L 172.000397 83.999695 C 172.000397 82.895706 171.104401 81.999695 170.000397 81.999695 C 168.895401 81.999695 168.000397 82.895706 168.000397 83.999695 L 168.000397 87.999695 L 162.705399 87.999695 L 163.122406 86.747696 C 163.554398 85.452698 162.589401 84.115692 161.225403 84.115692 L 94.774399 84.115692 C 93.409401 84.115692 92.445396 85.452698 92.877396 86.747696 L 93.294395 87.999695 L 88.000397 87.999695 L 88.000397 83.999695 C 88.000397 82.895706 87.104401 81.999695 86.000397 81.999695 C 84.895401 81.999695 84.000397 82.895706 84.000397 83.999695 L 84.000397 87.999695 L 80.000397 87.999695 L 80.000397 83.999695 C 80.000397 82.895706 79.104401 81.999695 78.000397 81.999695 C 76.895401 81.999695 76.000397 82.895706 76.000397 83.999695 L 76.000397 87.999695 L 68.000397 87.999695 L 68.000397 83.999695 L 72.000397 83.999695 L 72.000397 79.999695 L 184.000397 79.999695 L 184.000397 83.999695 Z M 128.000397 59.999695 C 105.699402 59.999695 84.440399 61.604706 68.137405 64.519699 C 65.824402 64.933701 62.774399 65.662704 60.691406 66.207703 C 56.496399 67.304703 53.955399 71.4767 54.906403 75.704697 L 61.053406 103.025696 L 61.189392 103.626694 L 61.499405 104.159698 C 62.878403 106.528702 65.588394 107.999695 68.573395 107.999695 L 94.818398 107.999695 C 100.971397 113.8647 116.089401 115.999695 128.000397 115.999695 C 139.9104 115.999695 155.028397 113.8647 161.181396 107.999695 L 187.426407 107.999695 C 190.411407 107.999695 193.122406 106.528702 194.501404 104.159698 L 194.810394 103.626694 L 194.946396 103.025696 L 200.829407 76.877701 L 201.092407 75.703705 C 202.044403 71.4767 199.503403 67.304703 195.307404 66.207703 C 193.225403 65.662704 190.1754 64.933701 187.862396 64.519699 C 171.559402 61.604706 150.3004 59.999695 128.000397 59.999695"/>
    <path id="path3" fill="#ffffff" stroke="none" d="M 26.840799 194.151398 C 25.483801 193.520401 24.171801 192.879395 22.907801 192.226395 C 21.580799 191.542389 19.9998 192.490402 19.9998 193.984406 L 19.9998 194.010406 C 19.9998 194.753403 20.4048 195.435394 21.0648 195.776398 C 22.385799 196.459396 23.7558 197.127396 25.167801 197.781403 C 26.4858 198.392395 27.9998 197.432404 27.9998 195.979401 L 27.9998 195.954407 C 27.9998 195.178406 27.5438 194.478394 26.840799 194.151398"/>
    <path id="path4" fill="#ffffff" stroke="none" d="M 26.840799 178.151398 C 25.483801 177.520401 24.171801 176.879395 22.907801 176.22641 C 21.580799 175.542389 19.9998 176.490402 19.9998 177.984406 L 19.9998 178.010406 C 19.9998 178.753403 20.4048 179.435394 21.0648 179.776398 C 22.385799 180.459396 23.7558 181.127411 25.167801 181.781403 C 26.4858 182.392395 27.9998 181.432404 27.9998 179.979401 L 27.9998 179.954407 C 27.9998 179.178406 27.5438 178.478394 26.840799 178.151398"/>
    <path id="path5" fill="#ffffff" stroke="none" d="M 26.840799 162.151398 C 25.483801 161.520401 24.171801 160.879395 22.907801 160.22641 C 21.580799 159.542389 19.9998 160.490402 19.9998 161.984406 L 19.9998 162.010406 C 19.9998 162.753403 20.4048 163.435394 21.0648 163.776398 C 22.385799 164.459396 23.7558 165.127411 25.167801 165.781403 C 26.4858 166.392395 27.9998 165.432404 27.9998 163.979401 L 27.9998 163.954407 C 27.9998 163.178406 27.5438 162.478394 26.840799 162.151398"/>
    <path id="path6" fill="#ffffff" stroke="none" d="M 26.840799 146.151398 C 25.483801 145.520401 24.171801 144.879395 22.907801 144.22641 C 21.580799 143.542389 19.9998 144.490402 19.9998 145.984406 L 19.9998 146.010406 C 19.9998 146.753403 20.4048 147.435394 21.0648 147.776398 C 22.385799 148.459396 23.7558 149.127411 25.167801 149.781403 C 26.4858 150.392395 27.9998 149.432404 27.9998 147.979401 L 27.9998 147.954407 C 27.9998 147.178406 27.5438 146.478394 26.840799 146.151398"/>
    <path id="path7" fill="#ffffff" stroke="none" d="M 33.265099 153.208008 C 34.5961 153.718002 35.959099 154.214996 37.349098 154.700989 C 38.642101 155.153992 40.000099 154.197998 40.000099 152.828003 L 40.000099 152.804001 C 40.000099 151.960999 39.461102 151.212997 38.6661 150.93399 C 37.397099 150.488007 36.1451 150.031998 34.920101 149.563004 L 34.7061 149.481003 C 33.4021 148.979004 32.000099 149.932007 32.000099 151.330002 L 32.000099 151.354004 C 32.000099 152.174011 32.4991 152.914001 33.265099 153.208008"/>
    <path id="path8" fill="#ffffff" stroke="none" d="M 33.265099 201.208008 C 34.5961 201.718002 35.959099 202.214996 37.349098 202.701004 C 38.642101 203.153992 40.000099 202.197998 40.000099 200.828003 L 40.000099 200.804001 C 40.000099 199.960999 39.461102 199.212997 38.6661 198.934006 C 37.397099 198.488007 36.1451 198.031998 34.920101 197.563004 L 34.7061 197.481003 C 33.4021 196.979004 32.000099 197.932007 32.000099 199.330002 L 32.000099 199.354004 C 32.000099 200.173996 32.4991 200.914001 33.265099 201.208008"/>
    <path id="path9" fill="#ffffff" stroke="none" d="M 33.265099 185.208008 C 34.5961 185.718002 35.959099 186.214996 37.349098 186.700989 C 38.642101 187.153992 40.000099 186.197998 40.000099 184.828003 L 40.000099 184.804001 C 40.000099 183.960999 39.461102 183.212997 38.6661 182.93399 C 37.397099 182.488007 36.1451 182.031998 34.920101 181.563004 L 34.7061 181.481003 C 33.4021 180.979004 32.000099 181.932007 32.000099 183.330002 L 32.000099 183.354004 C 32.000099 184.174011 32.4991 184.914001 33.265099 185.208008"/>
    <path id="path10" fill="#ffffff" stroke="none" d="M 33.265099 169.208008 C 34.5961 169.718002 35.959099 170.214996 37.349098 170.700989 C 38.642101 171.153992 40.000099 170.197998 40.000099 168.828003 L 40.000099 168.804001 C 40.000099 167.960999 39.461102 167.212997 38.6661 166.93399 C 37.397099 166.488007 36.1451 166.031998 34.920101 165.563004 L 34.7061 165.481003 C 33.4021 164.979004 32.000099 165.932007 32.000099 167.330002 L 32.000099 167.354004 C 32.000099 168.174011 32.4991 168.914001 33.265099 169.208008"/>
    <path id="path11" fill="#ffffff" stroke="none" d="M 45.410599 205.308594 C 46.751598 205.708603 48.115601 206.097595 49.497601 206.476593 C 50.757599 206.821594 51.999599 205.863602 51.999599 204.557602 L 51.999599 204.550598 C 51.999599 203.656601 51.396599 202.875595 50.534599 202.638596 C 49.195599 202.271606 47.871601 201.8936 46.566601 201.504608 C 45.286598 201.123596 43.999599 202.068604 43.999599 203.403595 C 43.999599 204.281601 44.569599 205.058594 45.410599 205.308594"/>
    <path id="path12" fill="#ffffff" stroke="none" d="M 45.410599 189.308594 C 46.751598 189.708603 48.115601 190.097595 49.497601 190.476593 C 50.757599 190.821594 51.999599 189.863602 51.999599 188.557602 L 51.999599 188.550598 C 51.999599 187.656601 51.396599 186.87561 50.534599 186.638611 C 49.195599 186.271606 47.871601 185.8936 46.566601 185.504608 C 45.286598 185.123596 43.999599 186.068604 43.999599 187.403595 C 43.999599 188.281601 44.569599 189.058594 45.410599 189.308594"/>
    <path id="path13" fill="#ffffff" stroke="none" d="M 45.410599 173.308594 C 46.751598 173.708603 48.115601 174.097595 49.497601 174.476593 C 50.757599 174.821594 51.999599 173.863602 51.999599 172.557602 L 51.999599 172.550598 C 51.999599 171.656601 51.396599 170.87561 50.534599 170.638611 C 49.195599 170.271606 47.871601 169.8936 46.566601 169.504608 C 45.286598 169.123596 43.999599 170.068604 43.999599 171.403595 C 43.999599 172.281601 44.569599 173.058594 45.410599 173.308594"/>
    <path id="path14" fill="#ffffff" stroke="none" d="M 233.091797 192.226593 C 231.827805 192.878601 230.5168 193.520599 229.158798 194.151596 C 228.456802 194.478607 227.999802 195.178604 227.999802 195.954605 L 227.999802 195.979599 C 227.999802 197.432602 229.514801 198.392609 230.831802 197.781601 C 232.243805 197.126602 233.612793 196.458603 234.935806 195.776596 C 235.594803 195.435608 235.999802 194.752594 235.999802 194.010605 L 235.999802 193.984604 C 235.999802 192.490601 234.4198 191.541595 233.091797 192.226593"/>
    <path id="path15" fill="#ffffff" stroke="none" d="M 233.091797 176.226593 C 231.827805 176.878601 230.5168 177.520599 229.158798 178.151611 C 228.456802 178.478607 227.999802 179.178589 227.999802 179.95459 L 227.999802 179.979599 C 227.999802 181.432602 229.514801 182.392609 230.831802 181.781601 C 232.243805 181.126602 233.612793 180.458603 234.935806 179.776611 C 235.594803 179.435608 235.999802 178.752594 235.999802 178.01059 L 235.999802 177.984589 C 235.999802 176.490601 234.4198 175.541595 233.091797 176.226593"/>
    <path id="path16" fill="#ffffff" stroke="none" d="M 233.091797 160.226593 C 231.827805 160.878601 230.5168 161.520599 229.158798 162.151611 C 228.456802 162.478607 227.999802 163.178589 227.999802 163.95459 L 227.999802 163.979599 C 227.999802 165.432602 229.514801 166.392609 230.831802 165.781601 C 232.243805 165.126602 233.612793 164.458603 234.935806 163.776611 C 235.594803 163.435608 235.999802 162.752594 235.999802 162.01059 L 235.999802 161.984589 C 235.999802 160.490601 234.4198 159.541595 233.091797 160.226593"/>
    <path id="path17" fill="#ffffff" stroke="none" d="M 233.091797 144.226593 C 231.827805 144.878601 230.5168 145.520599 229.158798 146.151611 C 228.456802 146.478607 227.999802 147.178589 227.999802 147.95459 L 227.999802 147.979599 C 227.999802 149.432602 229.514801 150.392609 230.831802 149.781601 C 232.243805 149.126602 233.612793 148.458603 234.935806 147.776611 C 235.594803 147.435608 235.999802 146.752594 235.999802 146.01059 L 235.999802 145.984589 C 235.999802 144.490601 234.4198 143.541595 233.091797 144.226593"/>
    <path id="path18" fill="#ffffff" stroke="none" d="M 221.2939 149.4814 L 221.079895 149.5634 C 219.854904 150.03241 218.603897 150.488403 217.333893 150.933411 C 216.537903 151.212402 215.999893 151.960403 215.999893 152.803406 L 215.999893 152.8284 C 215.999893 154.198395 217.356903 155.154388 218.649902 154.701401 C 220.040894 154.214401 221.4039 153.717407 222.733902 153.208405 C 223.5009 152.914398 223.999893 152.173401 223.999893 151.353394 L 223.999893 151.330399 C 223.999893 149.931396 222.598907 148.978394 221.2939 149.4814"/>
    <path id="path19" fill="#ffffff" stroke="none" d="M 221.2939 197.4814 L 221.079895 197.5634 C 219.854904 198.032394 218.603897 198.488403 217.333893 198.933395 C 216.537903 199.212402 215.999893 199.960403 215.999893 200.803406 L 215.999893 200.8284 C 215.999893 202.198395 217.356903 203.154404 218.649902 202.701401 C 220.040894 202.214401 221.4039 201.717407 222.733902 201.208405 C 223.5009 200.914398 223.999893 200.173401 223.999893 199.353394 L 223.999893 199.330399 C 223.999893 197.931396 222.598907 196.978394 221.2939 197.4814"/>
    <path id="path20" fill="#ffffff" stroke="none" d="M 221.2939 181.4814 L 221.079895 181.5634 C 219.854904 182.03241 218.603897 182.488403 217.333893 182.933411 C 216.537903 183.212402 215.999893 183.960403 215.999893 184.803406 L 215.999893 184.8284 C 215.999893 186.198395 217.356903 187.154388 218.649902 186.701401 C 220.040894 186.214401 221.4039 185.717407 222.733902 185.208405 C 223.5009 184.914398 223.999893 184.173401 223.999893 183.353394 L 223.999893 183.330399 C 223.999893 181.931396 222.598907 180.978394 221.2939 181.4814"/>
    <path id="path21" fill="#ffffff" stroke="none" d="M 221.2939 165.4814 L 221.079895 165.5634 C 219.854904 166.03241 218.603897 166.488403 217.333893 166.933411 C 216.537903 167.212402 215.999893 167.960403 215.999893 168.803406 L 215.999893 168.8284 C 215.999893 170.198395 217.356903 171.154388 218.649902 170.701401 C 220.040894 170.214401 221.4039 169.717407 222.733902 169.208405 C 223.5009 168.914398 223.999893 168.173401 223.999893 167.353394 L 223.999893 167.330399 C 223.999893 165.931396 222.598907 164.978394 221.2939 165.4814"/>
    <path id="path22" fill="#ffffff" stroke="none" d="M 209.433594 201.504898 C 208.127594 201.893906 206.804596 202.271896 205.465607 202.638901 C 204.603607 202.8759 203.999603 203.655899 203.999603 204.550903 L 203.999603 204.557892 C 203.999603 205.8629 205.242599 206.820892 206.501602 206.476898 C 207.884598 206.0979 209.247604 205.708893 210.5896 205.308899 C 211.430603 205.058899 211.999603 204.280899 211.999603 203.402893 C 211.999603 202.067902 210.712601 201.123901 209.433594 201.504898"/>
    <path id="path23" fill="#ffffff" stroke="none" d="M 209.433594 185.504898 C 208.127594 185.89389 206.804596 186.271896 205.465607 186.638901 C 204.603607 186.8759 203.999603 187.655899 203.999603 188.550903 L 203.999603 188.557892 C 203.999603 189.8629 205.242599 190.820892 206.501602 190.476898 C 207.884598 190.0979 209.247604 189.708893 210.5896 189.308899 C 211.430603 189.058899 211.999603 188.280899 211.999603 187.402893 C 211.999603 186.067902 210.712601 185.123901 209.433594 185.504898"/>
    <path id="path24" fill="#ffffff" stroke="none" d="M 209.433594 169.504898 C 208.127594 169.89389 206.804596 170.271896 205.465607 170.638901 C 204.603607 170.8759 203.999603 171.655899 203.999603 172.550903 L 203.999603 172.557892 C 203.999603 173.8629 205.242599 174.820892 206.501602 174.476898 C 207.884598 174.0979 209.247604 173.708893 210.5896 173.308899 C 211.430603 173.058899 211.999603 172.280899 211.999603 171.402893 C 211.999603 170.067902 210.712601 169.123901 209.433594 169.504898"/>
    <path id="path25" fill="#ffffff" stroke="none" d="M 187.412094 174.941406 L 184.321106 190.392395 C 184.135101 191.327393 183.313095 192.000397 182.360107 192.000397 L 148.000107 192.000397 L 148.000107 184.000397 L 148.000107 181.639404 C 148.000107 180.686401 148.673096 179.865402 149.607101 179.678406 L 185.058105 172.587402 C 185.1931 172.561401 185.327103 172.548401 185.458099 172.548401 C 186.682098 172.547394 187.664093 173.677399 187.412094 174.941406 M 144.000107 192.000397 L 112.000099 192.000397 L 112.000099 183.200409 L 120.155098 181.569397 C 122.745102 181.0504 125.372101 180.792389 128.000107 180.792389 C 130.628098 180.792389 133.256104 181.0504 135.845093 181.569397 L 144.000107 183.200409 Z M 108.000099 184.000397 L 108.000099 192.000397 L 73.640099 192.000397 C 72.686104 192.000397 71.865105 191.327393 71.6791 190.392395 L 68.588104 174.941406 C 68.335098 173.677399 69.3181 172.548401 70.542099 172.548401 C 70.673103 172.548401 70.807098 172.561401 70.942101 172.587402 L 106.392105 179.678406 C 107.327103 179.865402 108.000099 180.686401 108.000099 181.639404 Z M 185.458099 168.548401 L 185.458099 168.548401 C 185.062103 168.548401 184.664093 168.587402 184.273102 168.666397 L 148.823105 175.755402 C 146.867096 176.1474 145.305099 177.486389 144.532104 179.227402 L 136.629105 177.646393 C 133.794098 177.080399 130.891098 176.792389 128.000107 176.792389 C 125.1091 176.792389 122.205101 177.080399 119.371101 177.646393 L 111.468102 179.227402 C 110.695099 177.486389 109.133102 176.1474 107.177101 175.755402 L 71.726105 168.666397 C 71.336105 168.587402 70.937103 168.548401 70.542099 168.548401 C 68.743103 168.548401 67.053101 169.349396 65.907104 170.748398 C 64.765099 172.141403 64.312103 173.95639 64.6661 175.72641 L 67.756104 191.176392 C 68.315102 193.971405 70.789101 196.000397 73.640099 196.000397 L 108.000099 196.000397 L 112.000099 196.000397 L 144.000107 196.000397 L 148.000107 196.000397 L 182.360107 196.000397 C 185.211105 196.000397 187.684097 193.971405 188.244095 191.176392 L 191.334106 175.72641 C 191.687103 173.95639 191.235107 172.141403 190.093094 170.748398 C 188.946106 169.349396 187.258102 168.548401 185.458099 168.548401"/>
    <path id="path26" fill="#ffffff" stroke="none" d="M 128 184 C 126.896004 184 126 184.895996 126 186 C 126 187.104004 126.896004 188 128 188 C 129.104004 188 130 187.104004 130 186 C 130 184.895996 129.104004 184 128 184"/>
</svg>
