<?xml version="1.0" encoding="UTF-8"?>
<!-- Generated by Pixelmator Pro 3.7.1 -->
<svg width="256" height="256" viewBox="0 0 256 256" xmlns="http://www.w3.org/2000/svg">
    <path id="Path" fill="#ffffff" stroke="none" d="M 244 140 L 216 140 L 216 24 L 236 24 C 240.399994 24 244 27.600006 244 32 Z M 244 220 C 244 224.399994 240.399994 228 236 228 L 211.279999 229.64801 C 213.386993 226.740997 214.882996 223.352997 215.565994 220 L 216 220 L 216 216 L 216 199.673996 L 216 144 L 244 144 Z M 180.252991 231.71701 C 177.417999 231.904999 174.578003 232 171.738007 232 L 84.261993 232 C 81.421005 232 78.582001 231.904999 75.748001 231.71701 L 50.313995 230.020996 L 49.507996 229.166 C 46.212997 225.669006 44 220.377991 44 216 L 44 204.286011 L 70.028 208.003998 C 67.195999 208.024994 63.740997 209.802002 60.770996 212.770996 C 55.869995 217.674011 54.595993 223.248001 57.673996 226.325989 C 58.753998 227.404999 60.261002 228 61.917999 228 C 64.759995 228 68.240005 226.216003 71.229004 223.229004 C 76.130005 218.325989 77.404007 212.751999 74.326004 209.674011 C 73.641998 208.988998 72.772995 208.526001 71.815994 208.26001 L 84 210 L 128 212 L 172 210 L 212 204.286011 L 212 216 C 212 220.377991 209.785995 225.669006 206.492004 229.166 L 205.686996 230.020996 Z M 12 220 L 12 144 L 40 144 L 40 199.673996 L 40 216 L 40 220 L 40.432999 220 C 41.117996 223.352997 42.613007 226.740997 44.720001 229.64801 L 20 228 C 15.600006 228 12 224.399994 12 220 M 12 32 C 12 27.600006 15.600006 24 20 24 L 40 24 L 40 140 L 12 140 Z M 61.035995 24 L 194.964005 24 L 184.966003 60.65799 C 184.136993 63.695999 181.362 65.817001 178.218994 65.817001 C 177.798004 65.817001 177.375 65.778992 176.959991 65.70401 L 145.856003 60.048004 C 142.028992 59.352997 138.117004 59 134.229004 59 L 121.771004 59 C 117.883003 59 113.970993 59.352997 110.143997 60.048004 L 79.039993 65.70401 C 78.625 65.778992 78.201996 65.817001 77.781006 65.817001 C 74.636993 65.817001 71.863007 63.695999 71.033997 60.65799 Z M 71.498001 212.502991 C 72.822998 213.828003 71.436005 217.363007 68.399994 220.399002 C 66.145004 222.653992 63.613998 224 61.917999 224 C 61.330994 224 60.843994 223.838989 60.501999 223.497009 C 59.177002 222.171997 60.563995 218.636993 63.600006 215.600998 C 65.854996 213.346008 68.386002 212 70.082001 212 C 70.669006 212 71.156006 212.161011 71.498001 212.502991 M 212 200.244995 L 171.625 206.013 L 128 207.996002 L 84.375 206.013 L 44 200.244995 L 44 24 L 56.891006 24 L 67.175003 61.710999 C 68.477005 66.484009 72.837997 69.817001 77.781006 69.817001 C 78.440994 69.817001 79.106003 69.757004 79.755005 69.639008 L 110.858002 63.984009 C 114.449997 63.330994 118.121002 63 121.771004 63 L 134.229004 63 C 137.878998 63 141.550003 63.330994 145.141998 63.984009 L 176.244003 69.639008 C 176.893997 69.757004 177.557999 69.817001 178.218994 69.817001 C 183.162003 69.817001 187.522995 66.484009 188.824997 61.710999 L 199.110001 24 L 212 24 Z M 236 20 L 20 20 C 13.382996 20 8 25.382996 8 32 L 8 220 C 8 226.567993 13.304001 231.919998 19.854004 231.998993 L 75.481003 235.708008 C 78.391998 235.901001 81.345993 236 84.261993 236 L 171.738007 236 C 174.653992 236 177.608002 235.901001 180.518997 235.708008 L 236.145996 231.998993 C 242.695999 231.919998 248 226.567993 248 220 L 248 32 C 248 25.382996 242.617004 20 236 20"/>
    <path id="path1" fill="#ffffff" stroke="none" d="M 98 44 L 158 44 C 159.104004 44 160 43.104004 160 42 C 160 40.895996 159.104004 40 158 40 L 98 40 C 96.896004 40 96 40.895996 96 42 C 96 43.104004 96.896004 44 98 44"/>
    <path id="path2" fill="#ffffff" stroke="none" d="M 193 117.351593 C 193 124.335602 192.705994 131.405609 192.126999 138.36261 L 189.240005 172.999603 L 188.871994 175.582596 C 188.041 181.498596 180.063995 187.874603 166.988998 193.075592 C 154.699005 197.963593 139.759995 200.999603 128 200.999603 C 116.240997 200.999603 101.301003 197.963593 89.012001 193.075592 C 75.935997 187.874603 67.959999 181.498596 67.127998 175.582596 L 66.886002 173.861603 L 66.794998 173.416595 L 63.873993 138.36261 C 63.294006 131.401611 63 124.331604 63 117.351593 L 63 91.999603 C 63 88.225601 65.382004 84.8246 68.928001 83.537598 C 70.532997 82.954605 102.333 74.999603 128 74.999603 C 153.306 74.999603 185.067001 82.838593 186.960999 83.497604 C 190.572998 84.7556 193 88.1716 193 91.999603 Z M 188.276001 79.720596 C 186.248001 79.013596 154.303009 70.999603 128 70.999603 C 102.885002 70.999603 70.480003 78.718597 67.561996 79.777603 C 62.440994 81.637604 59 86.549606 59 91.999603 L 59 117.351593 C 59 124.445602 59.298996 131.626602 59.888 138.694611 L 63.080002 176.999603 L 63.322006 176.999603 C 66.830002 193.036591 104.512001 204.999603 128 204.999603 C 151.488007 204.999603 189.169998 193.036591 192.679001 176.999603 L 192.919998 176.999603 L 196.110992 138.694611 C 196.701004 131.628601 197 124.447601 197 117.351593 L 197 91.999603 C 197 86.471603 193.494003 81.536606 188.276001 79.720596"/>
    <path id="path3" fill="#ffffff" stroke="none" d="M 76 36 L 88 36 L 88 32 L 168 32 L 168 36 L 180 36 L 180 48 C 180 50.209 178.209 52 176 52 L 168 52 L 88 52 L 80 52 C 77.791 52 76 50.209 76 48 Z M 80 56 L 88 56 L 168 56 L 176 56 C 180.411011 56 184 52.410995 184 48 L 184 36 L 184 32 L 180 32 L 172 32 L 172 28 L 168 28 L 88 28 L 84 28 L 84 32 L 76 32 L 72 32 L 72 36 L 72 48 C 72 52.410995 75.588997 56 80 56"/>
    <path id="path4" fill="#ffffff" stroke="none" d="M 128 144 C 126.655998 144 125.327003 143.992004 124.004997 143.980011 L 124.000999 143.980011 C 124.023003 136.770996 135.964996 130.682007 152.365997 128.688995 C 152.367996 128.690002 152.369003 128.690002 152.371002 128.690002 C 154.324997 128.806 156.223999 128.936005 158.061996 129.078003 C 158.078995 129.07901 158.097992 129.080002 158.115997 129.082001 C 160.533005 129.270004 162.841995 129.479004 165.028992 129.708008 L 165.231003 129.729004 C 167.347992 129.951996 169.346008 130.194 171.216003 130.453003 C 171.356003 130.472992 171.497009 130.492004 171.636002 130.513 C 172.037994 130.569 172.436996 130.626007 172.826004 130.684998 C 172.921005 130.699005 173.013 130.713989 173.106995 130.727997 C 173.821991 130.835999 174.514008 130.947998 175.18399 131.061996 C 175.350998 131.089996 175.518997 131.117004 175.682999 131.145996 C 175.988007 131.199005 176.287003 131.253998 176.583008 131.307999 C 176.785004 131.345001 176.983002 131.382004 177.181 131.419998 C 177.455994 131.472992 177.731995 131.524002 177.998001 131.578003 C 178.248993 131.628998 178.490005 131.679993 178.731995 131.729996 C 179.097992 131.807999 179.453995 131.886002 179.800995 131.964996 C 180.024994 132.015991 180.251007 132.067001 180.468002 132.119003 C 180.669006 132.167999 180.863998 132.216003 181.05899 132.264999 C 181.281998 132.320999 181.5 132.377991 181.714996 132.436005 C 181.878998 132.479004 182.046005 132.522003 182.203003 132.567001 C 182.544998 132.662994 182.873001 132.759003 183.186005 132.856003 C 183.309998 132.895996 183.423004 132.934998 183.541992 132.972992 C 183.757004 133.042999 183.966003 133.113007 184.166 133.18399 C 184.285004 133.22699 184.402008 133.268997 184.515991 133.311996 C 184.725006 133.389008 184.923004 133.468002 185.113007 133.546997 C 185.19101 133.57901 185.274002 133.610001 185.348999 133.643005 C 185.597992 133.751007 185.830002 133.859009 186.044998 133.970001 C 186.112 134.003998 186.171997 134.039001 186.235992 134.072998 C 186.390991 134.156006 186.535004 134.238998 186.669998 134.324005 C 186.729996 134.360992 186.791 134.399002 186.847992 134.436996 C 186.996002 134.537003 187.130997 134.638 187.251007 134.738007 C 187.270996 134.755997 187.298004 134.77301 187.317001 134.791 C 187.451004 134.90799 187.561996 135.027008 187.656006 135.145996 C 187.68399 135.181 187.703995 135.214996 187.729004 135.248993 C 187.791992 135.339996 187.843994 135.432007 187.884995 135.52301 C 187.899994 135.55899 187.917999 135.595001 187.929993 135.630997 C 187.972 135.752991 188 135.876007 188 136 C 188 140.417999 161.136993 144 128 144 M 68 136 C 68 131.582001 94.862999 128 128 128 C 130.938995 128 133.826996 128.028992 136.654007 128.084 C 134.287003 128.899002 132.104004 129.817001 130.167007 130.845001 C 121.816002 135.274002 120.027 140.395996 120.002998 143.927002 C 90.649002 143.404999 68 140.057007 68 136 M 185.160995 129.287994 C 185.046005 129.248001 184.932999 129.208008 184.815002 129.169006 C 181.876007 128.195999 177.932007 127.378998 172.820999 126.641998 C 172.389999 126.578995 171.953003 126.516998 171.507996 126.457001 C 171.319 126.431 171.145996 126.403992 170.955002 126.378006 C 170.819 126.360001 170.675995 126.343002 170.539001 126.324997 C 170.369003 126.302994 170.194 126.281998 170.022003 126.259995 C 169.218994 126.156998 168.397995 126.057999 167.561996 125.960999 C 167.429001 125.945999 167.298996 125.931 167.166 125.916 C 166.660995 125.858994 166.149994 125.802994 165.634003 125.748993 C 165.593994 125.744003 165.553009 125.740005 165.513 125.735992 C 154.834991 124.612 141.763 124 128 124 C 111.802002 124 96.546997 124.845001 85.044998 126.378006 C 69.703995 128.423996 64 131.031006 64 136 C 64 140.968994 69.703995 143.575989 85.044998 145.622009 C 94.627998 146.899002 106.820999 147.696991 119.988998 147.928009 L 119.988998 147.945007 L 123.912003 147.979004 C 125.267998 147.992004 126.628998 148 128 148 C 144.197006 148 159.453003 147.154999 170.955002 145.622009 C 171.914001 145.494003 172.834991 145.363998 173.720001 145.231003 C 179.910995 144.303009 184.304993 143.244003 187.229996 141.906998 C 190.574005 140.377991 192 138.484009 192 136 C 192 133.05899 189.977005 130.947998 185.160995 129.287994"/>
    <path id="path5" fill="#ffffff" stroke="none" d="M 130.209 188 C 129.531006 188 128.806 188.382996 128.335999 188.988998 L 124.904999 193.410995 C 123.982002 194.600998 124.460999 196 125.791 196 C 126.469002 196 127.194 195.617004 127.664001 195.011002 L 131.095001 190.588989 C 132.018005 189.399002 131.539001 188 130.209 188"/>
    <path id="path6" fill="#ffffff" stroke="none" d="M 138.209 188 C 137.531006 188 136.807007 188.382996 136.335999 188.988998 L 132.904999 193.410995 C 131.981995 194.600998 132.460999 196 133.791 196 C 134.468994 196 135.192993 195.617004 135.664001 195.011002 L 139.095001 190.588989 C 140.018005 189.399002 139.539001 188 138.209 188"/>
    <path id="path7" fill="#ffffff" stroke="none" d="M 122.209 188 C 121.530998 188 120.806 188.382996 120.335999 188.988998 L 116.904999 193.410995 C 115.982002 194.600998 116.460999 196 117.791 196 C 118.469002 196 119.194 195.617004 119.664001 195.011002 L 123.095001 190.588989 C 124.017998 189.399002 123.539001 188 122.209 188"/>
    <path id="path8" fill="#ffffff" stroke="none" d="M 144 222.234406 C 144 223.243408 143.248993 224.093399 142.248001 224.218399 L 130.108002 225.736404 C 129.408005 225.824402 128.703995 225.867401 128 225.867401 C 127.295998 225.867401 126.591995 225.824402 125.891998 225.736404 L 113.751999 224.218399 C 112.750999 224.093399 112 223.243408 112 222.234406 L 112 218.265396 C 112 217.148407 112.910004 216.265396 113.997002 216.265396 C 114.079002 216.265396 114.163002 216.270401 114.248001 216.281403 L 126.015999 217.752396 C 126.673996 217.834396 127.336998 217.875397 128 217.875397 C 128.662994 217.875397 129.324997 217.834396 129.983994 217.752396 L 141.751999 216.281403 C 141.837006 216.270401 141.921005 216.265396 142.003998 216.265396 C 143.089996 216.265396 144 217.1474 144 218.265396 Z M 142.003998 212.265396 L 142.003006 212.265396 C 141.753998 212.265396 141.503006 212.281403 141.255997 212.311401 L 129.488007 213.783401 C 128.996994 213.844391 128.496002 213.875397 128 213.875397 C 127.503998 213.875397 127.002998 213.844391 126.512001 213.783401 L 114.744003 212.311401 C 114.497002 212.281403 114.245003 212.265396 113.997002 212.265396 C 110.690002 212.265396 108 214.957397 108 218.265396 L 108 222.234406 C 108 225.254395 110.259995 227.8134 113.255997 228.1884 L 125.395996 229.705399 C 126.255997 229.8134 127.132996 229.867401 128 229.867401 C 128.867996 229.867401 129.744003 229.8134 130.604004 229.705399 L 142.744003 228.1884 C 145.740005 227.8134 148 225.254395 148 222.234406 L 148 218.265396 C 148 214.957397 145.311005 212.265396 142.003998 212.265396"/>
    <path id="path9" fill="#ffffff" stroke="none" d="M 192.399399 220.399399 C 190.144394 222.654404 187.614395 224.000397 185.918396 224.000397 C 185.331406 224.000397 184.843399 223.838409 184.503403 223.497406 C 183.176407 222.171402 184.564407 218.636398 187.600403 215.600403 C 189.855408 213.345398 192.385406 212.000397 194.082397 212.000397 C 194.669403 212.000397 195.156403 212.161407 195.497406 212.503403 C 196.823395 213.8284 195.435394 217.363403 192.399399 220.399399 M 198.326401 209.673401 C 197.246399 208.594391 195.739395 208.000397 194.082397 208.000397 C 191.240402 208.000397 187.759399 209.784393 184.771393 212.771393 C 179.8694 217.673401 178.595398 223.248398 181.673401 226.326401 C 182.753403 227.405396 184.260406 228.000397 185.918396 228.000397 C 188.759399 228.000397 192.240402 226.215393 195.228394 223.228394 C 200.130402 218.326401 201.404404 212.752396 198.326401 209.673401"/>
</svg>
