<?xml version="1.0" encoding="UTF-8"?>
<!-- Generated by Pixelmator Pro 3.7.1 -->
<svg width="256" height="256" viewBox="0 0 256 256" xmlns="http://www.w3.org/2000/svg">
    <path id="Path" fill="#ffffff" stroke="none" d="M 221.480499 176 L 176.000504 176 L 176.000504 172 L 216.000504 172 C 231.439499 172 244.000504 159.438995 244.000504 144 C 244.000504 128.561005 231.439499 116 216.000504 116 L 176.000504 116 L 176.000504 104 L 180.000504 92 L 180.000504 80.056 C 180.884506 80.09201 181.769501 80.147003 182.652496 80.221008 L 228.000504 84 C 234.599503 84 240.000504 89.399994 240.000504 96 L 245.361496 149.612 C 246.774506 163.73999 235.679504 176 221.480499 176 M 88.000504 172 L 172.000504 172 L 172.000504 176 L 88.000504 176 Z M 38.519501 176 C 24.320496 176 13.226502 163.73999 14.638505 149.612 L 20.000504 96 C 20.000504 89.399994 25.399506 84 32.000504 84 L 77.347504 80.221008 C 78.230499 80.147003 79.114502 80.09201 80.000504 80.056 L 80.000504 92 L 84.000504 104 L 84.000504 116 L 44.000504 116 C 28.560501 116 16.000504 128.561005 16.000504 144 C 16.000504 159.438995 28.560501 172 44.000504 172 L 84.000504 172 L 84.000504 176 Z M 164.000504 104 L 96.000496 104 L 96.000496 96 L 164.000504 96 Z M 88.000504 116 L 88.000504 108 L 92.000504 108 L 168.000504 108 L 172.000504 108 L 172.000504 116 Z M 84.000504 168 L 44.000504 168 C 30.7995 168 20.000504 157.199997 20.000504 144 C 20.000504 130.800003 30.7995 120 44.000504 120 L 84.000504 120 Z M 172.000504 168 L 88.000504 168 L 88.000504 120 L 172.000504 120 Z M 176.000504 120 L 216.000504 120 C 229.2005 120 240.000504 130.800003 240.000504 144 C 240.000504 157.199997 229.2005 168 216.000504 168 L 193.5905 168 L 176.000504 168 L 176.000504 144.972992 Z M 176.000504 80 L 176.000504 92 L 172.000504 104 L 168.000504 104 L 168.000504 96 C 168.000504 93.791 166.209503 92 164.000504 92 L 96.000496 92 C 93.791496 92 92.000504 93.791 92.000504 96 L 92.000504 104 L 88.000504 104 L 84.000504 92 L 84.000504 80 Z M 249.341507 149.214005 L 243.999496 95.786011 C 243.884506 87.121002 236.848495 80.096008 228.177505 80.001007 L 182.984497 76.235001 C 181.114502 76.07901 179.213501 76 177.337494 76 L 82.662506 76 C 80.785492 76 78.885498 76.07901 77.014496 76.235001 L 31.821503 80.001007 C 23.151505 80.096008 16.115494 87.121002 16.001495 95.786011 L 10.658494 149.214005 C 9.873506 157.070007 12.460496 164.93399 17.758499 170.787994 C 23.057495 176.643005 30.624496 180 38.519501 180 L 221.480499 180 C 229.376495 180 236.943497 176.643005 242.241501 170.787994 C 247.539505 164.93399 250.126495 157.070007 249.341507 149.214005"/>
    <path id="path1" fill="#ffffff" stroke="none" d="M 218.251007 105.414093 C 217.143997 106.522095 215.865005 107.163101 214.938004 107.163101 C 214.557007 107.163101 214.235001 107.056107 214.009003 106.829102 C 213.227997 106.047104 213.860001 104.148102 215.423004 102.586105 C 216.531006 101.477097 217.809006 100.837097 218.735992 100.837097 C 219.117004 100.837097 219.438004 100.944107 219.664993 101.171097 C 220.445999 101.953094 219.813004 103.852097 218.251007 105.414093 M 206.251007 105.414093 C 205.143997 106.522095 203.865005 107.163101 202.938004 107.163101 C 202.557007 107.163101 202.235001 107.056107 202.009003 106.829102 C 201.227997 106.047104 201.860001 104.148102 203.423004 102.586105 C 204.531006 101.477097 205.809006 100.837097 206.735992 100.837097 C 207.117004 100.837097 207.438004 100.944107 207.664993 101.171097 C 208.445999 101.953094 207.813004 103.852097 206.251007 105.414093 M 218.735992 96.837097 L 218.735992 96.837097 C 216.688995 96.837097 214.449997 97.901093 212.595001 99.757095 C 212.309006 100.043106 212.042999 100.341095 211.794006 100.644104 C 211.563995 99.775101 211.134995 98.9841 210.494003 98.343094 C 209.522003 97.372101 208.188004 96.837097 206.735992 96.837097 C 204.688995 96.837097 202.449997 97.901093 200.595001 99.757095 C 199.391006 100.960098 198.509003 102.336105 198.042007 103.735107 C 197.292999 105.981094 197.718994 108.195099 199.180008 109.657104 C 200.151001 110.628098 201.485001 111.163101 202.938004 111.163101 C 204.985001 111.163101 207.223999 110.099106 209.080002 108.243103 C 209.365997 107.9561 209.630997 107.659103 209.880005 107.355103 C 210.110001 108.225098 210.539001 109.016098 211.179993 109.657104 C 212.151001 110.628098 213.485001 111.163101 214.938004 111.163101 C 216.985001 111.163101 219.223999 110.099106 221.080002 108.243103 C 222.283005 107.039093 223.164993 105.664093 223.632004 104.265106 C 224.380997 102.018097 223.955002 99.805099 222.494003 98.343094 C 221.522003 97.372101 220.188004 96.837097 218.735992 96.837097"/>
    <path id="path2" fill="#ffffff" stroke="none" d="M 40.75 130.140594 L 40.75 130.832611 L 40.75 136.749603 L 34.833 136.749603 L 34.140999 136.749603 C 35.683998 133.9776 37.978001 131.683594 40.75 130.140594 M 63.859001 136.749603 L 63.167 136.749603 L 57.25 136.749603 L 57.25 130.832611 L 57.25 130.140594 C 60.021999 131.683594 62.316002 133.9776 63.859001 136.749603 M 57.25 159.859589 L 57.25 159.166595 L 57.25 153.249603 L 63.167 153.249603 L 63.859001 153.249603 C 62.316002 156.022598 60.021999 158.316589 57.25 159.859589 M 44.75 130.832611 L 53.25 130.832611 L 53.25 140.749603 L 63.167 140.749603 L 63.167 149.249603 L 53.25 149.249603 L 53.25 159.166595 L 44.75 159.166595 L 44.75 149.249603 L 34.833 149.249603 L 34.833 140.749603 L 44.75 140.749603 Z M 34.140999 153.249603 L 34.833 153.249603 L 40.75 153.249603 L 40.75 159.166595 L 40.75 159.859589 C 37.978001 158.316589 35.683998 156.022598 34.140999 153.249603 M 28 144.999603 C 28 156.578598 37.419998 165.999603 49 165.999603 C 60.580002 165.999603 70 156.578598 70 144.999603 C 70 133.420593 60.580002 123.999603 49 123.999603 C 37.419998 123.999603 28 133.420593 28 144.999603"/>
    <path id="path3" fill="#ffffff" stroke="none" d="M 185.436493 139.537109 C 188.438507 139.537109 190.873505 141.9711 190.873505 144.973099 C 190.873505 147.975098 188.438507 150.409103 185.436493 150.409103 C 182.433502 150.409103 179.999496 147.975098 179.999496 144.973099 C 179.999496 141.9711 182.433502 139.537109 185.436493 139.537109 M 193.5905 150.409103 C 197.343506 150.409103 200.385498 153.451111 200.385498 157.205109 C 200.385498 160.958099 197.343506 164.000092 193.5905 164.000092 C 189.837494 164.000092 186.794495 160.958099 186.794495 157.205109 C 186.794495 153.451111 189.837494 150.409103 193.5905 150.409103 M 194.835495 145.805099 C 195.415497 146.227097 196.043503 146.58609 196.711502 146.86911 C 196.081497 146.679108 195.426498 146.544098 194.753494 146.472107 C 194.789505 146.252106 194.816498 146.029099 194.835495 145.805099 M 198.185501 147.354095 C 198.177505 147.379089 198.170502 147.4021 198.164505 147.427094 C 198.018494 147.358093 197.871506 147.293091 197.722504 147.23111 C 197.875504 147.276093 198.029495 147.317108 198.185501 147.354095 M 200.385498 132.741089 C 203.388504 132.741089 205.822495 135.17511 205.822495 138.178101 C 205.822495 141.180099 203.388504 143.614105 200.385498 143.614105 C 197.383499 143.614105 194.9505 141.180099 194.9505 138.178101 C 194.9505 135.17511 197.383499 132.741089 200.385498 132.741089 M 208.540497 143.614105 C 212.293503 143.614105 215.335495 146.656097 215.335495 150.409103 C 215.335495 154.162109 212.293503 157.205109 208.540497 157.205109 C 204.787506 157.205109 201.745499 154.162109 201.745499 150.409103 C 201.745499 146.656097 204.787506 143.614105 208.540497 143.614105 M 209.786499 139.010101 C 210.365494 139.432098 210.994507 139.7901 211.662506 140.074097 C 211.031494 139.883102 210.376495 139.748108 209.703506 139.676102 C 209.738495 139.457092 209.766495 139.2341 209.786499 139.010101 M 213.134506 140.559097 C 213.127502 140.583099 213.121506 140.607101 213.114502 140.631104 C 212.968506 140.562103 212.821503 140.498108 212.672501 140.435089 C 212.8255 140.480103 212.979492 140.522095 213.134506 140.559097 M 215.335495 125.946106 C 218.337494 125.946106 220.772491 128.380096 220.772491 131.382111 C 220.772491 134.385101 218.337494 136.8181 215.335495 136.8181 C 212.333496 136.8181 209.899506 134.385101 209.899506 131.382111 C 209.899506 128.380096 212.333496 125.946106 215.335495 125.946106 M 223.490494 136.8181 C 227.2435 136.8181 230.286499 139.861099 230.286499 143.614105 C 230.286499 147.367096 227.2435 150.409103 223.490494 150.409103 C 219.737503 150.409103 216.695496 147.367096 216.695496 143.614105 C 216.695496 139.861099 219.737503 136.8181 223.490494 136.8181 M 183.235504 154.150101 C 182.949493 155.11911 182.794495 156.144104 182.794495 157.205109 C 182.794495 163.157104 187.638504 168.000092 193.5905 168.000092 C 198.508499 168.000092 202.669495 164.6931 203.966507 160.187103 C 205.356506 160.840103 206.906494 161.205109 208.540497 161.205109 C 213.458496 161.205109 217.619492 157.898102 218.916504 153.391098 C 220.306503 154.045105 221.856491 154.409103 223.490494 154.409103 C 229.443497 154.409103 234.286499 149.566101 234.286499 143.614105 C 234.286499 138.054108 230.061493 133.463104 224.653503 132.881104 C 224.731491 132.39209 224.772491 131.891098 224.772491 131.382111 C 224.772491 126.179108 220.539505 121.946106 215.335495 121.946106 C 210.413498 121.946106 206.358505 125.735107 205.935501 130.55011 C 204.377502 129.413101 202.458496 128.741104 200.385498 128.741104 C 195.462494 128.741104 191.4095 132.53009 190.986496 137.3461 C 189.427505 136.209106 187.508499 135.537109 185.436493 135.537109 C 180.233505 135.537109 175.999496 139.769104 175.999496 144.973099 C 175.999496 149.419098 179.089493 153.156097 183.235504 154.150101"/>
</svg>
