<?xml version="1.0" encoding="UTF-8"?>
<!-- Generated by Pixelmator Pro 3.7.1 -->
<svg width="256" height="256" viewBox="0 0 256 256" xmlns="http://www.w3.org/2000/svg">
    <path id="Path" fill="#ffffff" stroke="none" d="M 150 186 C 151.104996 186 152 185.105011 152 184 C 152 182.894989 151.104996 182 150 182 C 148.895004 182 148 182.894989 148 184 C 148 185.105011 148.895004 186 150 186"/>
    <path id="path1" fill="#ffffff" stroke="none" d="M 61.466702 192 L 46.533699 192 C 42.930702 192 39.999702 189.307999 39.999702 186 C 39.999702 182.692001 42.930702 180 46.533699 180 L 61.466702 180 C 65.068703 180 67.999702 182.692001 67.999702 186 C 67.999702 189.307999 65.068703 192 61.466702 192 M 61.466702 176 L 46.533699 176 C 40.7257 176 35.999702 180.485992 35.999702 186 C 35.999702 191.514008 40.7257 196 46.533699 196 L 61.466702 196 C 67.274696 196 71.999702 191.514008 71.999702 186 C 71.999702 180.485992 67.274696 176 61.466702 176"/>
    <path id="path2" fill="#ffffff" stroke="none" d="M 68 168 L 64 168 L 64 156 L 68 156 Z M 56 156 L 60 156 L 60 168 L 56 168 Z M 48 156 L 52 156 L 52 168 L 48 168 Z M 40 156 L 44 156 L 44 168 L 40 168 Z M 64 152 L 60 152 L 48 152 L 44 152 L 40 152 L 36 152 L 36 156 L 36 168 L 36 172 L 40 172 L 44 172 L 48 172 L 60 172 L 64 172 L 68 172 L 72 172 L 72 168 L 72 156 L 72 152 L 68 152 Z"/>
    <path id="path3" fill="#ffffff" stroke="none" d="M 244 202.343109 C 244 203.404099 243.578995 204.421097 242.828003 205.171097 L 240.585999 207.414093 C 240.210999 207.789093 239.701996 208.000092 239.171997 208.000092 L 232 208.000092 L 228 208.000092 L 84 208.000092 L 84 166.5961 C 99.363007 187.418091 123.825996 200.000092 150 200.000092 C 178.834 200.000092 205.589005 184.733093 220.391998 160.000092 L 236 160.000092 L 242.472 160.000092 L 239.578003 154.21109 L 235.578003 146.21109 L 234.472 144.000092 L 232 144.000092 L 221.992004 144.000092 L 220 144.000092 L 219.272003 144.000092 C 222.320007 135.906097 224 127.147095 224 118.000092 C 224 89.21109 207.464005 64.228088 183.402008 52.000092 L 228 52.000092 L 230.343002 52.000092 C 231.404007 52.000092 232.421005 52.421097 233.171997 53.171097 L 242.828003 62.828094 C 243.578995 63.578094 244 64.5961 244 65.657089 Z M 32 156.000092 L 32 148.000092 L 71.990997 148.000092 L 72.009003 148.266098 L 75.990997 208.000092 L 32 208.000092 Z M 24 208.000092 L 20.307999 160.000092 L 28 160.000092 L 28 208.000092 Z M 28 156.000092 L 20 156.000092 L 24 148.000092 L 28 148.000092 Z M 15.414001 207.414093 L 13.171997 205.171097 C 12.421005 204.421097 12 203.404099 12 202.343109 L 12 136.000092 L 24 132.000092 L 44 132.000092 L 46 132.000092 C 47.104996 132.000092 48 131.104095 48 130.000092 L 48 124.000092 L 48 120.000092 L 48 116.000092 L 48 112.000092 L 48 108.000092 L 48 104.000092 L 48 100.000092 L 48 96.000092 L 48 92.000092 L 48 88.000092 L 48 84.000092 L 48 80.000092 L 48 76.000092 L 48 72.000092 L 48 66.000092 C 48 64.895096 47.104996 64.000092 46 64.000092 L 44 64.000092 L 24 64.000092 L 12 68.000092 L 12 65.657089 C 12 64.5961 12.421005 63.578094 13.171997 62.828094 L 22.828003 53.171097 C 23.578995 52.421097 24.595993 52.000092 25.656998 52.000092 L 28 52.000092 L 116.598 52.000092 C 92.535995 64.228088 76 89.21109 76 118.000092 C 76 127.147095 77.679993 135.906097 80.727997 144.000092 L 80 144.000092 L 78.007996 144.000092 L 76 144.000092 L 71.723999 144.000092 L 28 144.000092 L 24 144.000092 C 22.485001 144.000092 21.100006 144.85611 20.421997 146.21109 L 16.421997 154.21109 C 16.100006 154.857101 15.966995 155.565094 16.013 156.2621 C 16.013 156.2771 16.011002 156.292099 16.011993 156.307098 L 19.988007 208.000092 L 16.828003 208.000092 C 16.298004 208.000092 15.789001 207.789093 15.414001 207.414093 M 12 128.000092 L 24 124.000092 L 44 124.000092 L 44 128.000092 L 24 128.000092 L 12 132.000092 Z M 12 120.000092 L 24 116.000092 L 44 116.000092 L 44 120.000092 L 24 120.000092 L 12 124.000092 Z M 12 112.000092 L 24 108.000092 L 44 108.000092 L 44 112.000092 L 24 112.000092 L 12 116.000092 Z M 12 104.000092 L 24 100.000092 L 44 100.000092 L 44 104.000092 L 24 104.000092 L 12 108.000092 Z M 12 96.000092 L 24 92.000092 L 44 92.000092 L 44 96.000092 L 24 96.000092 L 12 100.000092 Z M 12 88.000092 L 24 84.000092 L 44 84.000092 L 44 88.000092 L 24 88.000092 L 12 92.000092 Z M 12 80.000092 L 24 76.000092 L 44 76.000092 L 44 80.000092 L 24 80.000092 L 12 84.000092 Z M 12 72.000092 L 24 68.000092 L 44 68.000092 L 44 72.000092 L 24 72.000092 L 12 76.000092 Z M 124 176.000092 L 124 174.264099 C 131.912994 177.936096 140.718002 180.000092 150 180.000092 C 159.281998 180.000092 168.087006 177.936096 176 174.264099 L 176 176.000092 L 176 178.654099 L 176 182.955109 C 173.388 184.005096 170.709 184.906097 167.971008 185.6371 C 167.81601 185.678101 167.662003 185.722107 167.507004 185.7621 C 166.872009 185.927094 166.233002 186.079102 165.59201 186.227112 C 165.268997 186.301102 164.945007 186.371094 164.619995 186.441101 C 164.037994 186.566101 163.455002 186.689102 162.869003 186.799103 C 162.367996 186.89209 161.863007 186.974091 161.359009 187.057098 C 160.679001 187.169098 159.996002 187.272095 159.311005 187.365097 C 159.266998 187.371094 159.222 187.376099 159.178009 187.382111 C 158.546997 187.465103 157.916 187.546097 157.279999 187.613098 C 156.945007 187.648102 156.609009 187.67511 156.27301 187.7061 C 155.914001 187.738098 155.553009 187.761108 155.192993 187.788101 C 154.820999 187.815094 154.450989 187.848099 154.078003 187.86911 C 153.772003 187.8871 153.46701 187.906097 153.161011 187.920105 C 152.113007 187.967102 151.059998 188.000092 150 188.000092 C 148.940002 188.000092 147.886993 187.967102 146.838989 187.920105 C 146.53299 187.906097 146.227997 187.8871 145.921997 187.86911 C 145.549011 187.848099 145.179001 187.815094 144.807007 187.788101 C 144.446991 187.761108 144.085999 187.738098 143.72699 187.7061 C 143.390991 187.67511 143.054993 187.648102 142.720001 187.613098 C 142.084 187.546097 141.453003 187.465103 140.821991 187.382111 C 140.778 187.376099 140.733002 187.371094 140.688995 187.365097 C 140.003998 187.272095 139.321991 187.169098 138.641998 187.057098 C 138.136993 186.974091 137.632004 186.89209 137.130997 186.799103 C 136.544998 186.689102 135.962006 186.566101 135.380005 186.441101 C 135.054993 186.371094 134.731003 186.301102 134.40799 186.227112 C 133.766998 186.079102 133.127991 185.927094 132.492996 185.7621 C 132.337997 185.722107 132.18399 185.678101 132.028992 185.6371 C 129.291 184.906097 126.612 184.005096 124 182.955109 L 124 178.654099 Z M 176 169.855103 L 174.317001 170.636108 C 166.644989 174.195099 158.463989 176.000092 150 176.000092 C 141.536011 176.000092 133.355011 174.195099 125.683998 170.636108 L 124 169.855103 L 124 144.000092 C 124 141.791107 125.791 140.000092 128 140.000092 L 172 140.000092 C 174.209 140.000092 176 141.791107 176 144.000092 Z M 88.039001 116.457092 C 88.225998 118.078094 89.384003 119.469101 91.029999 119.880096 C 91.703003 120.049103 108.013 124.000092 152 124.000092 C 193.934998 124.000092 207.410995 120.3591 209.095001 119.848099 C 210.619995 119.416092 211.764008 118.098099 211.962006 116.488098 C 211.973999 116.992096 212 117.493103 212 118.000092 C 212 141.308105 199.063995 161.640106 180 172.227112 L 180 167.9991 L 180 144.000092 C 180 139.589096 176.411011 136.000092 172 136.000092 L 128 136.000092 C 123.588997 136.000092 120 139.589096 120 144.000092 L 120 167.9991 L 120 172.227112 C 100.936005 161.640106 88 141.308105 88 118.000092 C 88 117.482101 88.026001 116.972092 88.039001 116.457092 M 148 88.000092 C 115.440002 88.000092 100.048996 90.1931 94.001007 91.414093 C 103.973007 70.494095 125.322998 56.000092 150 56.000092 C 174.721008 56.000092 196.102005 70.548096 206.050995 91.528091 C 199.645996 90.385101 182.182999 88.000092 148 88.000092 M 208 112.000092 L 208 108.000092 L 208 104.000092 L 208 100.000092 C 208.442001 100.000092 208.865005 99.916092 209.264999 99.782104 C 210.785004 104.720093 211.699005 109.919098 211.931 115.293091 C 211.597 113.422104 209.972 112.000092 208.005005 112.000092 Z M 92 100.000092 L 92 104.000092 L 92 108.000092 L 92 112.000092 C 90.039993 112.000092 88.389999 113.423096 88.067993 115.339096 C 88.296005 109.950104 89.210007 104.736099 90.735001 99.785095 C 91.134995 99.918091 91.557999 100.000092 92 100.000092 M 203.053009 112.000092 L 96.947006 112.000092 C 96.425003 112.000092 96 111.701096 96 111.333099 L 96 108.000092 L 204 108.000092 L 204 111.333099 C 204 111.701096 203.574997 112.000092 203.053009 112.000092 M 204 100.666092 L 204 104.000092 L 96 104.000092 L 96 100.666092 C 96 100.299103 96.425003 100.000092 96.947006 100.000092 L 203.053009 100.000092 C 203.574997 100.000092 204 100.299103 204 100.666092 M 92.052994 95.983093 C 92.914993 95.714096 105.591003 92.000092 148 92.000092 C 190.585999 92.000092 206.94101 95.747101 207.949005 95.987091 C 207.949997 95.992096 207.951996 95.996094 207.953995 96.000092 L 206 96.000092 L 94 96.000092 L 92.046005 96.000092 C 92.048996 95.994095 92.050995 95.989105 92.052994 95.983093 M 152 120.000092 C 108 120.000092 92 116.000092 92 116.000092 L 94 116.000092 L 206 116.000092 L 208 116.000092 C 208 116.000092 196 120.000092 152 120.000092 M 217.621994 148.000092 L 220 148.000092 L 221.992004 148.000092 L 232 148.000092 L 236 156.000092 L 218.087006 156.000092 C 204.727997 179.843109 179.220001 196.000092 150 196.000092 C 120.779999 196.000092 95.272003 179.843109 81.912994 156.000092 L 80 156.000092 L 80 208.000092 L 76 148.000092 L 78.007996 148.000092 L 80 148.000092 L 82.378006 148.000092 C 82.378998 148.000092 82.378998 148.001099 82.378998 148.001099 C 83.451996 150.411102 84.649994 152.751099 85.964996 155.016098 C 85.981003 155.044098 85.996994 155.072098 86.013 155.100098 C 87.742996 158.072098 89.673004 160.911102 91.785995 163.602097 C 91.863007 163.701111 91.940002 163.799103 92.018005 163.898102 C 92.526993 164.539093 93.042999 165.173096 93.572006 165.797089 C 93.574005 165.80011 93.576996 165.802094 93.578995 165.805099 C 94.697998 167.1241 95.860992 168.403107 97.069 169.641098 C 97.082993 169.656097 97.097 169.671097 97.112 169.686096 C 97.632004 170.218109 98.164001 170.739105 98.699997 171.256104 C 98.888 171.437103 99.076996 171.617096 99.266998 171.796097 C 99.789993 172.2901 100.315994 172.78009 100.854004 173.259094 C 100.973007 173.365097 101.095993 173.468109 101.216003 173.57309 C 102.227005 174.462097 103.263 175.321106 104.320999 176.154099 C 104.589996 176.365097 104.854996 176.580109 105.126999 176.787109 C 105.619003 177.164093 106.117996 177.532104 106.619995 177.896103 C 106.964005 178.146103 107.311005 178.39209 107.658997 178.636108 C 108.143005 178.975098 108.625 179.314102 109.117004 179.641098 C 109.617996 179.975098 110.128998 180.296097 110.639008 180.618103 C 111.315994 181.045105 111.998993 181.46109 112.690002 181.866104 C 113.167999 182.146103 113.645996 182.42511 114.130005 182.695099 C 114.572998 182.941101 115.018997 183.182098 115.468002 183.420105 C 115.994995 183.700104 116.528 183.9711 117.063004 184.239105 C 117.466003 184.439102 117.864998 184.645111 118.271004 184.838104 C 118.842003 185.111099 119.420998 185.36911 120 185.627106 L 120 185.69809 L 122.513 186.704102 C 122.622002 186.748108 122.733002 186.784103 122.842003 186.827103 C 123.218002 186.976105 123.597 187.120102 123.975998 187.263092 C 124.366997 187.410095 124.759003 187.555099 125.153 187.696106 C 125.875999 187.954102 126.605003 188.200104 127.337997 188.437103 C 127.629997 188.531097 127.918999 188.632111 128.212997 188.723099 C 128.445007 188.794098 128.679001 188.8591 128.912003 188.929108 C 129.160004 189.002106 129.40799 189.071106 129.656006 189.14209 C 130.182999 189.293091 130.709 189.445099 131.240997 189.584106 C 131.535004 189.661102 131.832001 189.73111 132.126999 189.805099 C 132.390991 189.871094 132.654999 189.937103 132.919998 190.000092 C 133.449005 190.125092 133.980011 190.243103 134.513 190.357101 C 134.863998 190.432098 135.214996 190.506104 135.567001 190.576111 C 135.591003 190.5811 135.613998 190.587097 135.638 190.591095 C 135.786011 190.621094 135.932007 190.65509 136.080002 190.683105 C 136.830994 190.827103 137.587006 190.953094 138.346008 191.074097 C 138.507996 191.100098 138.667999 191.132111 138.830994 191.157104 C 138.962997 191.177094 139.097 191.1931 139.230011 191.213104 C 139.522003 191.255096 139.815002 191.289093 140.106995 191.328094 C 140.774002 191.418091 141.442993 191.504089 142.115997 191.575104 C 142.306 191.595093 142.496002 191.617096 142.686996 191.636108 C 142.964996 191.663101 143.244995 191.683105 143.52301 191.708099 C 144.210999 191.76709 144.901001 191.816101 145.593994 191.857101 C 145.837997 191.872101 146.07901 191.895111 146.322998 191.907104 C 146.472992 191.914093 146.623001 191.917099 146.774002 191.924103 C 147.843994 191.970093 148.917999 192.000092 150 192.000092 C 151.082001 192.000092 152.156006 191.970093 153.225998 191.924103 C 153.376999 191.917099 153.527008 191.914093 153.677002 191.907104 C 153.92099 191.895111 154.162003 191.872101 154.406006 191.857101 C 155.098999 191.816101 155.789001 191.76709 156.47699 191.708099 C 156.755005 191.683105 157.035004 191.663101 157.313004 191.636108 C 157.503998 191.617096 157.694 191.595093 157.884003 191.575104 C 158.557007 191.504089 159.225998 191.418091 159.893005 191.328094 C 160.184998 191.289093 160.477997 191.255096 160.769989 191.213104 C 160.903 191.1931 161.037003 191.177094 161.169006 191.157104 C 161.332001 191.132111 161.492004 191.100098 161.653992 191.074097 C 162.412994 190.953094 163.169006 190.827103 163.919998 190.684097 C 164.067993 190.65509 164.214996 190.620102 164.363007 190.591095 C 164.386993 190.58609 164.410004 190.5811 164.432999 190.576111 C 164.785004 190.506104 165.136002 190.432098 165.487 190.357101 C 166.019989 190.243103 166.550995 190.125092 167.080002 190.000092 C 167.345001 189.937103 167.609009 189.871094 167.873001 189.805099 C 168.167999 189.73111 168.464996 189.661102 168.759003 189.584106 C 169.291 189.445099 169.817001 189.293091 170.343994 189.14209 C 170.59201 189.071106 170.839996 189.002106 171.087997 188.929108 C 171.320999 188.8591 171.554993 188.794098 171.787003 188.723099 C 172.080994 188.632111 172.369995 188.531097 172.662003 188.437103 C 173.394989 188.200104 174.123993 187.954102 174.847 187.696106 C 175.240997 187.555099 175.632996 187.410095 176.024002 187.263092 C 176.403 187.120102 176.781998 186.976105 177.15799 186.827103 C 177.266998 186.784103 177.377991 186.748108 177.487 186.704102 L 180 185.69809 L 180 185.627106 C 180.578995 185.36911 181.158005 185.111099 181.729004 184.838104 C 182.134995 184.645111 182.533997 184.439102 182.936996 184.239105 C 183.472 183.9711 184.005005 183.700104 184.531998 183.420105 C 184.981003 183.182098 185.427002 182.941101 185.869995 182.695099 C 186.354004 182.42511 186.832001 182.146103 187.309998 181.866104 C 188.001007 181.46109 188.68399 181.045105 189.360992 180.618103 C 189.871002 180.296097 190.382004 179.975098 190.882996 179.641098 C 191.375 179.314102 191.856995 178.975098 192.341003 178.636108 C 192.688995 178.39209 193.035995 178.146103 193.380005 177.896103 C 193.882004 177.532104 194.380997 177.164093 194.873001 176.787109 C 195.145004 176.580109 195.410004 176.365097 195.679001 176.154099 C 196.737 175.321106 197.772995 174.462097 198.783997 173.57309 C 198.903992 173.468109 199.027008 173.365097 199.145996 173.259094 C 199.68399 172.78009 200.209991 172.2901 200.733002 171.796097 C 200.923004 171.617096 201.112 171.437103 201.300003 171.256104 C 201.835999 170.739105 202.367996 170.218109 202.888 169.686096 C 202.903 169.671097 202.916992 169.656097 202.931 169.641098 C 204.139008 168.403107 205.302002 167.1241 206.421005 165.805099 C 206.423004 165.802094 206.425995 165.80011 206.428009 165.797089 C 206.957001 165.173096 207.472992 164.539093 207.981995 163.898102 C 208.059998 163.799103 208.136993 163.701111 208.214005 163.602097 C 210.326996 160.911102 212.257004 158.072098 213.987 155.100098 C 214.003006 155.072098 214.018997 155.044098 214.035004 155.016098 C 215.350006 152.751099 216.548004 150.411102 217.621002 148.001099 C 217.621002 148.001099 217.621002 148.000092 217.621994 148.000092 M 220 118.000092 C 220 127.441101 218.119995 136.440094 214.731003 144.658096 L 213.968002 146.372101 C 207.022995 161.965103 194.809998 174.147095 180 181.203094 L 180 176.764099 C 201.350006 165.821106 216 143.594101 216 118.000092 C 216 109.9431 214.542999 102.2211 211.888 95.077103 C 211.806 94.731094 211.669998 94.407104 211.501999 94.099091 C 201.904999 69.490097 177.963989 52.000092 150 52.000092 C 122.050003 52.000092 98.119995 69.472092 88.513 94.061096 C 88.345993 94.360092 88.222 94.680099 88.136002 95.015091 C 85.466003 102.177094 84 109.919098 84 118.000092 C 84 143.594101 98.649994 165.821106 120 176.764099 L 120 181.203094 C 105.190002 174.147095 92.977005 161.965103 86.031998 146.372101 L 85.268005 144.657104 C 81.880005 136.439102 80 127.441101 80 118.000092 C 80 79.340103 111.339996 48.000092 150 48.000092 C 188.660004 48.000092 220 79.340103 220 118.000092 M 245.656998 60.000092 L 236 50.343094 C 234.488998 48.832092 232.479996 48.000092 230.343002 48.000092 L 228 48.000092 L 173.949997 48.000092 C 166.432007 45.421097 158.380997 44.000092 150 44.000092 C 141.619003 44.000092 133.567993 45.421097 126.050003 48.000092 L 28 48.000092 L 25.656998 48.000092 C 23.520004 48.000092 21.511002 48.832092 20 50.343094 L 10.343002 60.000092 C 8.832001 61.511093 8 63.520096 8 65.657089 L 8 202.343109 C 8 204.480103 8.832001 206.489105 10.343002 208.000092 L 12.585999 210.242096 C 13.718994 211.376099 15.225998 212.000092 16.828003 212.000092 L 24 212.000092 L 28 212.000092 L 228 212.000092 L 232 212.000092 L 239.171997 212.000092 C 240.774002 212.000092 242.281006 211.376099 243.414001 210.243103 L 245.656998 208.000092 C 247.167999 206.489105 248 204.480103 248 202.343109 L 248 65.657089 C 248 63.520096 247.167999 61.511093 245.656998 60.000092"/>
</svg>
