<?xml version="1.0" encoding="UTF-8"?>
<!-- Generated by Pixelmator Pro 3.7.1 -->
<svg width="256" height="256" viewBox="0 0 256 256" xmlns="http://www.w3.org/2000/svg">
    <path id="Path" fill="#ffffff" stroke="none" d="M 220 28 L 216 28 L 216 32 L 220 32 L 220 36 L 216 36 L 216 40 L 220 40 L 220 44 L 216 44 L 216 48 L 220 48 L 220 52 L 216 52 L 216 56 L 220 56 L 220 60 L 216 60 L 216 64 L 220 64 L 220 68 L 216 68 L 216 72 L 220 72 L 220 76 L 216 76 L 216 80 L 220 80 L 220 84 L 216 84 L 216 240 C 216 242.209 214.209 244 212 244 L 44 244 C 41.791 244 40 242.209 40 240 L 40 84 L 36 84 L 36 80 L 40 80 L 40 76 L 36 76 L 36 72 L 40 72 L 40 68 L 36 68 L 36 64 L 40 64 L 40 60 L 36 60 L 36 56 L 40 56 L 40 52 L 36 52 L 36 48 L 40 48 L 40 44 L 36 44 L 36 40 L 40 40 L 40 36 L 36 36 L 36 32 L 40 32 L 40 28 L 36 28 L 36 24 L 40 24 L 40 16 C 40 13.791 41.791 12 44 12 L 48 12 L 48 135.26001 C 48 140.07901 51.800003 144 56.470993 144 L 199.528992 144 C 204.199997 144 208 140.07901 208 135.26001 L 208 12 L 212 12 C 214.209 12 216 13.791 216 16 L 216 24 L 220 24 Z M 204 12 L 204 135.26001 C 204 137.880997 202.001999 140 199.528992 140 L 56.470993 140 C 53.998993 140 52 137.880997 52 135.26001 L 52 12 Z M 220 20 L 220 16 C 220 11.589005 216.410995 8 212 8 L 208 8 L 204 8 L 52 8 L 48 8 L 44 8 C 39.589005 8 36 11.589005 36 16 L 36 20 L 32 20 L 32 24 L 32 28 L 32 32 L 32 36 L 32 40 L 32 44 L 32 48 L 32 52 L 32 56 L 32 60 L 32 64 L 32 68 L 32 72 L 32 76 L 32 80 L 32 84 L 32 88 L 36 88 L 36 240 C 36 244.410995 39.589005 248 44 248 L 212 248 C 216.410995 248 220 244.410995 220 240 L 220 88 L 224 88 L 224 84 L 224 80 L 224 76 L 224 72 L 224 68 L 224 64 L 224 60 L 224 56 L 224 52 L 224 48 L 224 44 L 224 40 L 224 36 L 224 32 L 224 28 L 224 24 L 224 20 Z"/>
</svg>
