<?xml version="1.0" encoding="UTF-8"?>
<!-- Generated by Pixelmator Pro 3.7.1 -->
<svg width="256" height="256" viewBox="0 0 256 256" xmlns="http://www.w3.org/2000/svg">
    <path id="Path" fill="#ffffff" stroke="none" d="M 128 244 C 63.929001 244 12 192.065002 12 128 C 12 63.934006 63.929001 12 128 12 C 192.050995 12 244 63.934006 244 128 C 244 192.065002 192.050995 244 128 244 M 212.847992 43.145996 C 190.181 20.481995 160.048004 8 128 8 C 95.945 8 65.808998 20.481995 43.144997 43.147003 C 20.481003 65.811005 8 95.945999 8 128 C 8 160.054001 20.481003 190.188004 43.144997 212.854004 C 65.808998 235.518005 95.945 248 128 248 C 160.048004 248 190.181 235.518005 212.847992 212.854004 C 235.515991 190.186996 248 160.052002 248 128 C 248 95.947998 235.515991 65.813004 212.847992 43.145996"/>
    <path id="path1" fill="#ffffff" stroke="none" d="M 128.002396 137.775391 C 122.6064 137.775391 118.2164 133.390396 118.2164 128.000397 C 118.2164 122.604401 122.6064 118.214401 128.002396 118.214401 C 133.393402 118.214401 137.779404 122.604401 137.779404 128.000397 C 137.779404 133.390396 133.393402 137.775391 128.002396 137.775391 M 128.002396 114.214401 C 120.406403 114.214401 114.2164 120.395401 114.2164 128.000397 C 114.2164 135.599396 120.406403 141.775391 128.002396 141.775391 C 135.602402 141.775391 141.779404 135.599396 141.779404 128.000397 C 141.779404 120.395401 135.602402 114.214401 128.002396 114.214401"/>
    <path id="path2" fill="#ffffff" stroke="none" d="M 128.003403 174 C 102.639397 174 82.000404 153.348999 82.000404 128 C 82.000404 102.651001 102.639397 82 128.003403 82 C 153.340393 82 174.000397 102.651001 174.000397 128 C 174.000397 153.348999 153.340393 174 128.003403 174 M 128.003403 78 C 100.431396 78 78.000404 100.429993 78.000404 128 C 78.000404 155.570007 100.431396 178 128.003403 178 C 155.571396 178 178.000397 155.570007 178.000397 128 C 178.000397 100.429993 155.571396 78 128.003403 78"/>
</svg>
