<?xml version="1.0" encoding="UTF-8"?>
<!-- Generated by Pixelmator Pro 3.7.1 -->
<svg width="256" height="256" viewBox="0 0 256 256" xmlns="http://www.w3.org/2000/svg">
    <path id="Path" fill="#ffffff" stroke="none" d="M 235.647507 80 C 233.537506 80 231.589493 80.636993 230.000504 81.703003 L 230.000504 60.222992 C 236.801498 61.360001 242.000504 67.367996 242.000504 74.643005 L 242.000504 80 Z M 242.000504 173.356995 C 242.000504 180.632004 236.801498 186.640991 230.000504 187.777008 L 230.000504 162.296997 C 231.589493 163.363007 233.537506 164 235.647507 164 L 242.000504 164 Z M 226.000504 197 C 226.000504 197.553009 225.552505 198 225.000504 198 L 31.000496 198 C 30.447502 198 30.000496 197.553009 30.000496 197 L 30.000496 154.52301 L 30.000496 144 L 30.000496 140 L 30.000496 136 L 30.000496 134 L 30.000496 88.891006 L 30.000496 59 C 30.000496 58.447998 30.447502 58 31.000496 58 L 38.000496 58 L 38.000496 170 C 38.000496 176.617004 43.383492 182 50.000496 182 L 204.327499 182 C 211.866501 182 218.000504 175.865997 218.000504 168.326996 L 218.000504 58 L 225.000504 58 C 225.552505 58 226.000504 58.447998 226.000504 59 L 226.000504 88.916992 L 226.000504 155.084 Z M 14.000497 173.356995 L 14.000497 164 L 20.353493 164 C 22.462502 164 24.4105 163.322998 26.000496 162.190002 L 26.000496 187.777008 C 19.198494 186.640991 14.000497 180.632004 14.000497 173.356995 M 26.000496 144 L 26.000496 154.52301 C 26.000496 157.548004 23.471504 160 20.353493 160 L 14.000497 160 L 14.000497 152 L 24.000496 152 L 24.000496 148 L 14.000497 148 L 14.000497 144 Z M 14.000497 132 L 14.000497 128 L 24.000496 128 L 24.000496 124 L 14.000497 124 L 14.000497 120 L 24.000496 120 L 24.000496 116 L 14.000497 116 L 14.000497 112 L 24.000496 112 L 24.000496 108 L 14.000497 108 L 14.000497 104 L 24.000496 104 L 24.000496 100 L 14.000497 100 L 14.000497 96 L 24.000496 96 L 24.000496 92 L 14.000497 92 L 14.000497 84 L 20.353493 84 C 23.471504 84 26.000496 86.188995 26.000496 88.891006 L 26.000496 132 Z M 14.000497 74.643005 C 14.000497 67.367996 19.198494 61.360001 26.000496 60.222992 L 26.000496 81.697998 C 24.4105 80.634995 22.462502 80 20.353493 80 L 14.000497 80 Z M 214.000504 58 L 214.000504 168.326996 C 214.000504 173.669998 209.669495 178 204.327499 178 L 50.000496 178 C 45.581505 178 42.000496 174.417999 42.000496 170 L 42.000496 58 Z M 242.000504 92 L 232.000504 92 L 232.000504 96 L 242.000504 96 L 242.000504 100 L 232.000504 100 L 232.000504 104 L 242.000504 104 L 242.000504 108 L 232.000504 108 L 232.000504 112 L 242.000504 112 L 242.000504 116 L 232.000504 116 L 232.000504 120 L 242.000504 120 L 242.000504 124 L 232.000504 124 L 232.000504 128 L 242.000504 128 L 242.000504 132 L 232.000504 132 L 232.000504 136 L 242.000504 136 L 242.000504 140 L 232.000504 140 L 232.000504 144 L 242.000504 144 L 242.000504 148 L 232.000504 148 L 232.000504 152 L 242.000504 152 L 242.000504 160 L 235.647507 160 C 232.528503 160 230.000504 157.799011 230.000504 155.084 L 230.000504 88.916992 C 230.000504 86.201004 232.528503 84 235.647507 84 L 242.000504 84 Z M 229.047501 56.089005 C 228.138504 54.828995 226.668503 54 225.000504 54 L 218.000504 54 L 214.000504 54 L 42.000496 54 L 38.000496 54 L 31.000496 54 C 29.331505 54 27.860497 54.828995 26.952492 56.089005 C 17.490501 56.809006 10.000497 64.835999 10.000497 74.643005 L 10.000497 80 L 10.000497 84 L 10.000497 134 L 10.000497 136 L 14.000497 136 L 26.000496 136 L 26.000496 140 L 14.000497 140 L 10.000497 140 L 10.000497 144 L 10.000497 160 L 10.000497 164 L 10.000497 173.356995 C 10.000497 182.834 16.991493 190.662994 26.000496 191.82901 L 26.000496 197 C 26.000496 199.757004 28.243492 202 31.000496 202 L 225.000504 202 C 227.7565 202 230.000504 199.757004 230.000504 197 L 230.000504 191.82901 C 239.008499 190.662994 246.000504 182.834 246.000504 173.356995 L 246.000504 164 L 246.000504 160 L 246.000504 84 L 246.000504 80 L 246.000504 74.643005 C 246.000504 64.835999 238.509506 56.809006 229.047501 56.089005"/>
</svg>
