<?xml version="1.0" encoding="UTF-8"?>
<!-- Generated by Pixelmator Pro 3.7.1 -->
<svg width="256" height="256" viewBox="0 0 256 256" xmlns="http://www.w3.org/2000/svg">
    <path id="Path" fill="#ffffff" stroke="none" d="M 244 76 L 244 80 L 244 100 L 240 100 L 240 80 L 16 80 L 16 100 L 12 100 L 12 80 L 12 76 L 12 64 L 244 64 Z M 244 192 L 12 192 L 12 104 L 16 104 L 20 104 L 20 100 L 20 84 L 236 84 L 236 100 L 236 104 L 240 104 L 244 104 Z M 244 60 L 12 60 L 8 60 L 8 64 L 8 76 L 8 80 L 8 100 L 8 104 L 8 192 L 8 196 L 12 196 L 244 196 L 248 196 L 248 192 L 248 104 L 248 100 L 248 80 L 248 76 L 248 64 L 248 60 Z"/>
    <path id="path1" fill="#ffffff" stroke="none" d="M 172 160.170303 C 172 162.285309 170.285004 164.000305 168.169998 164.000305 L 87.830002 164.000305 C 85.714996 164.000305 84 162.285309 84 160.170303 L 84 107.8293 C 84 105.714294 85.714996 104.000305 87.830002 104.000305 L 168.169998 104.000305 C 170.285004 104.000305 172 105.714294 172 107.8293 Z M 168.169998 100.000305 L 87.830002 100.000305 C 83.512001 100.000305 80 103.512299 80 107.8293 L 80 160.170303 C 80 164.487305 83.512001 168.000305 87.830002 168.000305 L 168.169998 168.000305 C 172.488007 168.000305 176 164.487305 176 160.170303 L 176 107.8293 C 176 103.512299 172.488007 100.000305 168.169998 100.000305"/>
    <path id="path2" fill="#ffffff" stroke="none" d="M 224 164 L 186 164 C 184.895004 164 184 163.105011 184 162 L 184 152 C 195.046005 152 204 143.04599 204 132 C 204 120.953995 195.046005 112 184 112 L 184 106 C 184 104.895004 184.895004 104 186 104 L 224 104 C 230.626999 104 236 117.431 236 134 C 236 150.569 230.626999 164 224 164 M 184 140 C 188.410995 140 192 136.410995 192 132 C 192 127.589005 188.410995 124 184 124 L 184 116 C 192.837006 116 200 123.162994 200 132 C 200 140.837006 192.837006 148 184 148 Z M 184 128 C 186.209 128 188 129.791 188 132 C 188 134.209 186.209 136 184 136 Z M 224 100 L 186 100 C 182.692001 100 180 102.692001 180 106 L 180 124 L 180 128 L 180 136 L 180 140 L 180 162 C 180 165.307999 182.692001 168 186 168 L 224 168 C 226.867996 168 232.266006 166.531998 236.199005 156.699005 C 238.649994 150.570999 240 142.51001 240 134 C 240 117.104004 234.503998 100 224 100"/>
    <path id="path3" fill="#ffffff" stroke="none" d="M 72 112 C 60.972 112 52 120.972 52 132 C 52 143.028 60.972 152 72 152 L 72 162 C 72 163.104996 71.105003 164 70 164 L 40.232002 164 C 32.629002 155.507004 28 144.296005 28 132 C 28 121.546997 31.352001 111.882004 37.023998 104 L 70 104 C 71.105003 104 72 104.895004 72 106 Z M 72 124 C 67.588997 124 64 127.589005 64 132 C 64 136.410995 67.588997 140 72 140 L 72 148 C 63.163002 148 56 140.837006 56 132 C 56 123.162994 63.163002 116 72 116 Z M 72 136 C 69.791 136 68 134.209 68 132 C 68 129.791 69.791 128 72 128 Z M 32 164 C 25.373001 164 20 150.569 20 134 C 20 117.431 25.373001 104 32 104 L 32.200001 104 C 26.832001 112.367004 24 121.985992 24 132 C 24 143.649994 27.903999 154.880005 35.035999 164 Z M 72 100.350006 L 72 100 L 70 100 L 37.023998 100 L 34.974998 100 L 32 100 C 29.132 100 23.734001 101.468002 19.800999 111.300995 C 17.349998 117.429001 16 125.490005 16 134 C 16 150.895996 21.495998 168 32 168 L 38.444 168 L 40.232002 168 L 70 168 L 72 168 L 72 167.649994 C 74.327003 166.824005 76 164.606003 76 162 L 76 152 L 76 148 L 76 140 L 76 136 L 76 128 L 76 124 L 76 116 L 76 112 L 76 106 C 76 103.393997 74.327003 101.175995 72 100.350006"/>
</svg>
