<?xml version="1.0" encoding="UTF-8"?>
<!-- Generated by Pixelmator Pro 3.7.1 -->
<svg width="256" height="256" viewBox="0 0 256 256" xmlns="http://www.w3.org/2000/svg">
    <path id="Path" fill="#ffffff" stroke="none" d="M 196 104.5 L 192 104.5 L 192 95.5 L 196 95.5 Z M 107 95.5 L 112 95.5 L 112 104.5 L 107 104.5 Z M 188 104.5 L 116 104.5 L 116 95.5 L 188 95.5 Z M 200 91.5 L 103 91.5 L 103 108.5 L 200 108.5 Z"/>
    <path id="path1" fill="#ffffff" stroke="none" d="M 150 182 C 148.895996 182 148 182.895996 148 184 C 148 185.104004 148.895996 186 150 186 C 151.104004 186 152 185.104004 152 184 C 152 182.895996 151.104004 182 150 182"/>
    <path id="path2" fill="#ffffff" stroke="none" d="M 23.7939 202.136703 L 21.1709 199.514709 C 20.415899 198.758698 19.999901 197.7547 19.999901 196.686707 L 19.999901 165.6577 L 20.131901 165.524704 Z M 243.999893 63.337708 L 243.999893 163.999695 L 243.999893 199.999695 L 234.635895 209.3647 C 232.947906 211.051697 230.658905 211.999695 228.272903 211.999695 L 27.3139 211.999695 C 25.1919 211.999695 23.1569 211.1577 21.6569 209.6577 L 11.9999 199.999695 L 11.9999 163.999695 L 11.9999 155.999695 L 11.9999 63.313705 C 11.9999 61.191696 12.842899 59.1577 14.342899 57.656708 L 19.999901 51.99971 L 19.999901 55.99971 L 19.999901 59.99971 L 19.999901 65.99971 L 15.9999 67.99971 L 15.9999 71.99971 L 19.999901 69.99971 L 19.999901 73.99971 L 15.9999 75.999695 L 15.9999 79.999695 L 19.999901 77.999695 L 19.999901 81.999695 L 15.9999 83.999695 L 15.9999 87.999695 L 19.999901 85.999695 L 19.999901 89.999695 L 15.9999 91.999695 L 15.9999 95.999695 L 19.999901 93.999695 L 19.999901 97.999695 L 15.9999 99.999695 L 15.9999 103.999695 L 19.999901 101.999695 L 19.999901 105.999695 L 15.9999 107.999695 L 15.9999 111.999695 L 19.999901 109.999695 L 19.999901 113.999695 L 15.9999 115.999695 L 15.9999 119.999695 L 19.999901 117.999695 L 19.999901 121.999695 L 15.9999 123.999695 L 15.9999 127.999695 L 19.999901 125.999695 L 19.999901 129.999695 L 15.9999 131.999695 L 15.9999 135.999695 L 19.999901 133.999695 L 19.999901 137.999695 L 15.9999 139.999695 L 15.9999 143.999695 L 19.999901 141.999695 L 19.999901 143.999695 L 19.999901 147.999695 L 19.999901 154.999695 C 19.999901 156.378693 20.5609 157.628693 21.4659 158.533691 L 15.9999 163.999695 L 15.9999 196.686707 C 15.9999 198.807709 16.842899 200.842697 18.342899 202.342697 L 21.6569 205.6577 C 23.1569 207.1577 25.1919 207.999695 27.3139 207.999695 L 228.686905 207.999695 C 230.807907 207.999695 232.842896 207.1577 234.342896 205.6577 L 237.656906 202.342697 C 239.156906 200.842697 239.999893 198.807709 239.999893 196.686707 L 239.999893 163.999695 L 234.533905 158.533691 C 235.439896 157.628693 235.999893 156.378693 235.999893 154.999695 L 235.999893 52.082703 L 239.999893 56.041702 L 239.999893 55.99971 L 241.656906 57.656708 C 243.156906 59.1577 243.999893 61.191696 243.999893 63.313705 Z M 27.999899 159.999695 L 27.999899 203.999695 L 23.999901 163.999695 Z M 74.999901 195.999695 L 52.999901 195.999695 C 52.447899 195.999695 51.999901 195.552704 51.999901 194.999695 L 51.999901 188.999695 C 51.999901 188.447693 52.447899 187.999695 52.999901 187.999695 L 74.999901 187.999695 C 75.551903 187.999695 75.999901 188.447693 75.999901 188.999695 L 75.999901 194.999695 C 75.999901 195.552704 75.551903 195.999695 74.999901 195.999695 M 43.999901 199.999695 L 47.999901 199.999695 L 47.999901 195.999695 L 47.999901 194.999695 C 47.999901 197.756699 50.242901 199.999695 52.999901 199.999695 L 74.999901 199.999695 C 75.341904 199.999695 75.676903 199.964691 75.999901 199.898697 L 75.999901 203.999695 L 31.999901 203.999695 L 31.999901 199.999695 L 35.999901 199.999695 Z M 43.999901 195.999695 L 35.999901 195.999695 L 35.999901 183.999695 L 43.999901 183.999695 Z M 35.999901 167.999695 L 43.999901 167.999695 L 43.999901 171.999695 L 35.999901 171.999695 Z M 43.999901 179.999695 L 35.999901 179.999695 L 35.999901 175.999695 L 43.999901 175.999695 Z M 59.999901 175.999695 L 55.999901 175.999695 L 55.999901 167.999695 L 59.999901 167.999695 Z M 71.999901 175.999695 L 63.999901 175.999695 L 63.999901 167.999695 L 71.999901 167.999695 Z M 55.999901 163.999695 L 51.999901 163.999695 L 51.999901 167.999695 L 51.999901 175.999695 L 51.999901 179.999695 L 55.999901 179.999695 L 71.999901 179.999695 L 75.999901 179.999695 L 75.999901 184.1017 C 75.676903 184.034698 75.341904 183.999695 74.999901 183.999695 L 52.999901 183.999695 C 50.242901 183.999695 47.999901 186.242706 47.999901 188.999695 L 47.999901 167.999695 L 47.999901 163.999695 L 43.999901 163.999695 L 35.999901 163.999695 L 31.999901 163.999695 L 31.999901 159.999695 L 75.999901 159.999695 L 75.999901 163.999695 L 71.999901 163.999695 Z M 83.999901 163.999695 L 79.999901 203.999695 L 79.999901 194.999695 L 79.999901 188.999695 L 79.999901 159.999695 L 80.039902 159.999695 Z M 23.999901 147.999695 L 55.999901 147.999695 L 59.999901 147.999695 L 59.999901 143.999695 L 59.999901 59.99971 L 59.999901 55.99971 L 55.999901 55.99971 L 23.999901 55.99971 L 23.999901 51.99971 C 23.999901 49.798706 25.777901 48.015701 27.9769 48.002701 L 127.401901 47.99971 C 97.534897 57.978699 75.999901 85.577698 75.999901 117.999695 C 75.999901 131.884705 79.954903 144.884705 86.815903 155.999695 L 81.707901 155.999695 L 75.999901 155.999695 L 31.999901 155.999695 L 26.342899 155.999695 L 25.6569 155.999695 L 24.999901 155.999695 C 24.447901 155.999695 23.999901 155.552704 23.999901 154.999695 Z M 23.999901 139.999695 L 51.999901 139.999695 L 51.999901 135.999695 L 23.999901 135.999695 L 23.999901 131.999695 L 51.999901 131.999695 L 51.999901 127.999695 L 23.999901 127.999695 L 23.999901 123.999695 L 51.999901 123.999695 L 51.999901 119.999695 L 23.999901 119.999695 L 23.999901 115.999695 L 51.999901 115.999695 L 51.999901 111.999695 L 23.999901 111.999695 L 23.999901 107.999695 L 51.999901 107.999695 L 51.999901 103.999695 L 23.999901 103.999695 L 23.999901 99.999695 L 51.999901 99.999695 L 51.999901 95.999695 L 23.999901 95.999695 L 23.999901 91.999695 L 51.999901 91.999695 L 51.999901 87.999695 L 23.999901 87.999695 L 23.999901 83.999695 L 51.999901 83.999695 L 51.999901 79.999695 L 23.999901 79.999695 L 23.999901 75.999695 L 51.999901 75.999695 L 51.999901 71.99971 L 23.999901 71.99971 L 23.999901 67.99971 L 51.999901 67.99971 L 51.999901 63.99971 L 23.999901 63.99971 L 23.999901 59.99971 L 55.999901 59.99971 L 55.999901 143.999695 L 23.999901 143.999695 Z M 223.999893 117.999695 C 223.999893 147.003693 205.855896 171.887695 179.999893 182.508698 L 179.999893 179.999695 L 179.999893 175.475708 L 179.999893 173.760712 C 201.312897 163.6987 215.999893 142.512695 215.999893 117.999695 C 215.999893 83.758698 187.345901 55.99971 151.999893 55.99971 C 116.6539 55.99971 87.999901 83.758698 87.999901 117.999695 C 87.999901 140.944702 100.8759 160.962708 119.999901 171.684692 L 119.999901 173.760712 L 119.999901 179.999695 L 119.999901 180.705704 C 96.296898 169.249695 79.999901 145.481705 79.999901 117.999695 C 79.999901 79.339706 112.234901 47.99971 151.999893 47.99971 C 191.764893 47.99971 223.999893 79.339706 223.999893 117.999695 M 175.999893 175.475708 L 175.999893 179.999695 L 175.999893 183.999695 L 175.999893 184.000702 L 175.998901 184.001709 C 173.392899 184.897705 170.712906 185.643707 167.979904 186.247711 C 167.703903 186.308701 167.4319 186.374695 167.155899 186.432709 C 166.501892 186.570709 165.841904 186.689697 165.1819 186.808701 C 164.723892 186.890701 164.266907 186.973694 163.805893 187.047699 C 163.224899 187.141693 162.639893 187.225708 162.053894 187.305695 C 161.484894 187.38269 160.914902 187.452698 160.342896 187.5177 C 159.824905 187.575699 159.307907 187.633698 158.786896 187.680695 C 158.087906 187.74469 157.384903 187.792694 156.680893 187.8367 C 156.263901 187.863708 155.849899 187.896698 155.430893 187.91571 C 154.292892 187.967697 153.149902 187.999695 151.999893 187.999695 C 150.758896 187.999695 149.523911 187.969696 148.297897 187.908691 C 147.509903 187.86969 146.729904 187.798706 145.947906 187.735703 C 145.514908 187.699707 145.074905 187.681702 144.643906 187.638702 C 143.739899 187.549698 142.846909 187.428711 141.952896 187.306702 C 141.650909 187.265701 141.34491 187.2397 141.0439 187.194702 C 139.917908 187.02771 138.802902 186.830704 137.694901 186.613708 C 137.631897 186.6017 137.565903 186.592697 137.502899 186.579697 C 132.819901 185.649704 128.302902 184.276703 123.999901 182.508698 L 123.999901 179.999695 L 123.999901 173.760712 C 126.071899 174.738708 128.207901 175.609711 130.397903 176.36969 C 130.605896 176.442703 130.815903 176.505707 131.024902 176.575699 C 131.877899 176.862701 132.734909 177.135712 133.603897 177.387695 C 133.928909 177.481689 134.256897 177.567703 134.583908 177.6577 C 135.345901 177.865692 136.110901 178.06369 136.884903 178.24469 C 137.267899 178.334702 137.652908 178.418701 138.03891 178.502701 C 138.770905 178.659698 139.506897 178.805695 140.246902 178.93869 C 140.658905 179.012695 141.070908 179.085693 141.485901 179.153702 C 142.2229 179.270691 142.964905 179.370697 143.710907 179.464691 C 144.126907 179.5177 144.540909 179.574707 144.958908 179.618698 C 145.753906 179.702698 146.554901 179.763702 147.35791 179.820709 C 147.726898 179.845703 148.091904 179.881699 148.461899 179.901703 C 149.633896 179.962708 150.812897 179.999695 151.999893 179.999695 C 153.078903 179.999695 154.149902 179.972702 155.215897 179.9207 C 155.754898 179.895691 156.286896 179.845703 156.821899 179.806702 C 157.336899 179.769699 157.854904 179.741699 158.365906 179.693695 C 159.093903 179.622711 159.812897 179.528702 160.532898 179.434692 C 160.836899 179.395691 161.144897 179.365692 161.446899 179.322693 C 162.291901 179.200699 163.126892 179.055695 163.960907 178.90271 C 164.127899 178.871704 164.298904 178.847702 164.465897 178.815704 C 165.385895 178.639709 166.295898 178.439697 167.200897 178.225708 C 167.273895 178.207703 167.349899 178.193695 167.422897 178.17569 C 168.384903 177.945709 169.336899 177.691711 170.279892 177.418701 C 170.295898 177.414703 170.310898 177.410706 170.324905 177.4077 C 172.257904 176.848694 174.148895 176.201691 175.999893 175.475708 M 173.647903 172.077698 C 173.1539 172.263702 172.659897 172.449707 172.162903 172.620697 C 171.757904 172.760712 171.348892 172.890701 170.939896 173.021698 C 170.428894 173.186707 169.917892 173.352692 169.4039 173.502701 C 168.968903 173.630707 168.527893 173.745697 168.089905 173.865692 C 167.599899 173.996704 167.109894 174.131699 166.616898 174.250702 C 166.131897 174.368698 165.6409 174.472702 165.149902 174.578705 C 164.694901 174.677704 164.241898 174.781708 163.785904 174.86969 C 163.244904 174.974701 162.698898 175.062698 162.1539 175.15271 C 161.736893 175.22171 161.321899 175.296692 160.9039 175.357697 C 160.307907 175.444702 159.703903 175.510712 159.101898 175.579712 C 158.725906 175.622711 158.350906 175.674698 157.973892 175.710693 C 157.299896 175.775696 156.619904 175.818695 155.939896 175.861694 C 155.626892 175.880707 155.314896 175.910706 155.001892 175.926697 C 154.006897 175.973694 153.006897 175.999695 151.999893 175.999695 C 150.915909 175.999695 149.837906 175.967697 148.764908 175.912689 C 148.272903 175.887695 147.786896 175.841705 147.297897 175.804703 C 146.736908 175.763702 146.175903 175.724701 145.617905 175.668701 C 144.993896 175.604706 144.376907 175.521698 143.758896 175.439697 C 143.352905 175.385712 142.945908 175.334702 142.541901 175.272705 C 141.856903 175.167694 141.17691 175.046692 140.498901 174.918701 C 140.174896 174.858704 139.849899 174.796692 139.525909 174.730698 C 138.809906 174.58371 138.098907 174.424698 137.392899 174.253693 C 137.114899 174.186707 136.839905 174.115692 136.563904 174.044708 C 135.831909 173.855698 135.103897 173.658691 134.383896 173.444702 C 134.147903 173.374695 133.91391 173.297699 133.678909 173.224701 C 132.92691 172.990692 132.17691 172.751709 131.438904 172.490692 C 131.321899 172.449707 131.206909 172.40271 131.091904 172.360703 C 128.647903 171.479706 126.281898 170.444702 123.999901 169.275696 L 123.999901 167.999695 L 123.999901 135.999695 C 123.999901 133.79071 125.790901 131.999695 127.999901 131.999695 L 171.999893 131.999695 C 174.208893 131.999695 175.999893 133.79071 175.999893 135.999695 L 175.999893 167.999695 L 175.999893 171.1427 C 175.224899 171.470703 174.439896 171.781708 173.647903 172.077698 M 104.791901 115.624695 L 199.208893 115.624695 C 204.538895 115.624695 209.113907 112.344696 211.032898 107.6987 C 211.655899 111.044693 211.999893 114.482697 211.999893 117.999695 C 211.999893 140.209702 199.012894 159.533691 179.999893 169.275696 L 179.999893 135.999695 C 179.999893 131.588715 176.410904 127.999695 171.999893 127.999695 L 127.999901 127.999695 C 123.588898 127.999695 119.999901 131.588715 119.999901 135.999695 L 119.999901 167.026703 C 103.190903 156.737701 91.999901 138.613708 91.999901 117.999695 C 91.999901 114.482697 92.343903 111.044693 92.966896 107.6987 C 94.885902 112.344696 99.460899 115.624695 104.791901 115.624695 M 103.370903 84.0867 C 114.2799 69.510696 132.007904 59.99971 151.999893 59.99971 C 171.991898 59.99971 189.720901 69.510696 200.629898 84.0867 C 200.161896 84.033707 199.689896 83.999695 199.208893 83.999695 L 104.791901 83.999695 C 104.310898 83.999695 103.837898 84.033707 103.370903 84.0867 M 104.791901 87.999695 L 199.208893 87.999695 C 200.973892 87.999695 202.618896 88.531693 203.999893 89.436707 C 203.999893 89.436707 206.879898 94.403702 207.999893 97.213699 L 207.999893 102.832703 C 207.999893 107.667694 204.0439 111.624695 199.208893 111.624695 L 104.791901 111.624695 C 99.955902 111.624695 95.999901 107.667694 95.999901 102.832703 L 95.999901 97.213699 C 97.119896 94.403702 99.999901 89.436707 99.999901 89.436707 C 101.380898 88.531693 103.025902 87.999695 104.791901 87.999695 M 86.841904 161.185699 L 85.6689 159.999695 L 89.475899 159.999695 C 97.145897 170.79071 107.677902 179.502701 119.999901 185.097702 L 119.999901 185.190704 L 122.479897 186.20871 C 130.5439 189.521698 139.03891 191.417694 147.783905 191.880707 C 147.893906 191.886703 147.999908 191.898697 148.108902 191.904694 C 149.400909 191.966705 150.697906 191.999695 151.999893 191.999695 C 153.203903 191.999695 154.4039 191.965698 155.602905 191.910706 C 156.003906 191.8927 156.401901 191.861694 156.801895 191.8367 C 157.591904 191.788696 158.381897 191.733704 159.167892 191.660706 C 159.643906 191.616699 160.115906 191.566711 160.588898 191.514709 C 161.294907 191.436707 161.999893 191.349701 162.702896 191.251709 C 163.198898 191.183701 163.693893 191.113708 164.187897 191.035706 C 164.868896 190.928711 165.547897 190.806702 166.225906 190.680695 C 166.714905 190.589691 167.204895 190.5047 167.690903 190.405701 C 168.423904 190.2547 169.152893 190.08371 169.881897 189.911697 C 170.292892 189.814697 170.707901 189.729706 171.115906 189.625702 C 172.201904 189.3517 173.282898 189.049698 174.356903 188.727692 C 174.770905 188.603699 175.175903 188.463699 175.585907 188.33371 C 176.157898 188.15271 176.731903 187.979706 177.300903 187.783691 L 179.999893 186.855698 L 179.999893 186.773697 C 194.041901 181.33371 206.036896 171.940704 214.523895 159.999695 L 228.686905 159.999695 C 229.754898 159.999695 230.758896 160.41571 231.514893 161.171692 L 235.999893 165.6577 L 235.999893 196.686707 C 235.999893 197.7547 235.583893 198.758698 234.827896 199.514709 L 231.514893 202.827698 C 230.758896 203.583694 229.754898 203.999695 228.686905 203.999695 L 84.019905 203.999695 L 87.979897 164.398712 L 88.1679 162.524704 Z M 228.939896 48.122696 C 230.692902 48.546707 231.999893 50.115707 231.999893 51.99971 L 231.999893 154.999695 C 231.999893 155.552704 231.552902 155.999695 230.999893 155.999695 L 228.686905 155.999695 L 217.184906 155.999695 C 224.044907 144.884705 227.999893 131.884705 227.999893 117.999695 C 227.999893 85.588699 206.478897 57.996704 176.626892 48.009705 Z M 244.484894 54.827698 L 242.827896 53.171707 L 235.999893 46.342697 L 235.999893 46.454697 L 235.980896 46.436707 C 234.475906 44.946701 232.478897 44.12471 230.358902 44.123703 L 229.348892 44.122696 C 228.908905 44.047699 228.460907 43.99971 227.999893 43.99971 L 27.999899 43.99971 C 27.9839 43.99971 27.968901 44.002701 27.953899 44.002701 L 25.6609 44.000702 L 25.659901 44.000702 L 25.6579 44.000702 L 25.655899 44.000702 C 23.5189 44.000702 21.509899 44.832703 19.998899 46.344696 L 11.514899 54.828705 C 9.2479 57.094696 7.9999 60.108704 7.9999 63.313705 L 7.9999 155.999695 L 7.9999 163.999695 L 7.9999 199.999695 L 7.9999 201.6577 L 9.170899 202.827698 L 18.828899 212.485703 C 21.0949 214.751709 24.107901 215.999695 27.3139 215.999695 L 228.272903 215.999695 C 231.743896 215.999695 235.008896 214.647705 237.464905 212.192703 L 246.827896 202.827698 L 247.999893 201.6577 L 247.999893 199.999695 L 247.999893 163.999695 L 247.999893 63.337708 C 247.999893 60.108704 246.751892 57.094696 244.484894 54.827698"/>
</svg>
