<?xml version="1.0" encoding="UTF-8"?>
<!-- Generated by Pixelmator Pro 3.7.1 -->
<svg width="256" height="256" viewBox="0 0 256 256" xmlns="http://www.w3.org/2000/svg">
    <path id="Path" fill="#ffffff" stroke="none" d="M 244 92 L 140 92 L 140 52 L 236 52 C 240.417999 52 244 55.582001 244 60 Z M 244 196 C 244 200.417999 240.417999 204 236 204 L 140 204 L 140 96 L 244 96 Z M 136 72 L 132 72 L 128 72 L 128 68 L 124 68 L 60 68 L 56 68 L 56 72 L 52 72 L 48 72 L 48 52 L 136 52 Z M 136 92 L 128 92 C 132.411011 92 136 88.410995 136 84 Z M 136 204 L 48 204 L 48 96 L 136 96 Z M 44 92 L 12 92 L 12 60 C 12 55.582001 15.582001 52 20 52 L 44 52 Z M 44 204 L 20 204 C 15.582001 204 12 200.417999 12 196 L 12 96 L 44 96 Z M 132 76 L 132 84 C 132 86.209 130.209 88 128 88 L 56 88 C 53.791 88 52 86.209 52 84 L 52 76 L 60 76 L 60 72 L 124 72 L 124 76 Z M 48 84 C 48 88.410995 51.589005 92 56 92 L 48 92 Z M 236 48 L 20 48 C 13.382996 48 8 53.382996 8 60 L 8 92 L 8 196 C 8 202.617004 13.382996 208 20 208 L 236 208 C 242.617004 208 248 202.617004 248 196 L 248 92 L 248 60 C 248 53.382996 242.617004 48 236 48"/>
    <path id="path1" fill="#ffffff" stroke="none" d="M 26 184 C 29.309 184 32 186.69101 32 190 C 32 193.30899 29.309 196 26 196 C 22.691 196 20 193.30899 20 190 C 20 186.69101 22.691 184 26 184 M 26 200 C 31.514 200 36 195.514008 36 190 C 36 184.485992 31.514 180 26 180 C 20.486 180 16 184.485992 16 190 C 16 195.514008 20.486 200 26 200"/>
    <path id="path2" fill="#ffffff" stroke="none" d="M 154 184 C 157.309006 184 160 186.69101 160 190 C 160 193.30899 157.309006 196 154 196 C 150.690994 196 148 193.30899 148 190 C 148 186.69101 150.690994 184 154 184 M 154 200 C 159.514008 200 164 195.514008 164 190 C 164 184.485992 159.514008 180 154 180 C 148.485992 180 144 184.485992 144 190 C 144 195.514008 148.485992 200 154 200"/>
    <path id="path3" fill="#ffffff" stroke="none" d="M 178 184 C 181.309006 184 184 186.69101 184 190 C 184 193.30899 181.309006 196 178 196 C 174.690994 196 172 193.30899 172 190 C 172 186.69101 174.690994 184 178 184 M 178 200 C 183.514008 200 188 195.514008 188 190 C 188 184.485992 183.514008 180 178 180 C 172.485992 180 168 184.485992 168 190 C 168 195.514008 172.485992 200 178 200"/>
    <path id="path4" fill="#ffffff" stroke="none" d="M 38 200 C 39.104 200 40 199.104004 40 198 C 40 196.895996 39.104 196 38 196 C 36.896 196 36 196.895996 36 198 C 36 199.104004 36.896 200 38 200"/>
</svg>
