<?xml version="1.0" encoding="UTF-8"?>
<!-- Generated by Pixelmator Pro 3.7.1 -->
<svg width="256" height="256" viewBox="0 0 256 256" xmlns="http://www.w3.org/2000/svg">
    <path id="Path" fill="#ffffff" stroke="none" d="M 52 52 C 52 49.800003 53.799999 48 56 48 L 104 48 C 106.199997 48 108 49.800003 108 52 C 108 54.199997 106.199997 56 104 56 L 56 56 C 53.799999 56 52 54.199997 52 52 M 104 60 C 108.410995 60 112 56.410995 112 52 C 112 47.589005 108.410995 44 104 44 L 56 44 C 51.589001 44 48 47.589005 48 52 C 48 56.410995 51.589001 60 56 60 Z"/>
    <path id="path1" fill="#ffffff" stroke="none" d="M 64 128 L 56 128 C 51.589001 128 48 131.588989 48 136 C 48 140.411011 51.589001 144 56 144 L 64 144 C 68.411003 144 72 140.411011 72 136 C 72 131.588989 68.411003 128 64 128 M 64 132 C 66.199997 132 68 133.800003 68 136 C 68 138.199997 66.199997 140 64 140 L 56 140 C 53.799999 140 52 138.199997 52 136 C 52 133.800003 53.799999 132 56 132 Z"/>
    <path id="path2" fill="#ffffff" stroke="none" d="M 219.807495 236 L 36.192493 236 C 24.135504 236 15.486501 224.376999 18.951498 212.828003 L 36.337498 161.700989 C 37.352497 158.317001 40.467503 156 44.000492 156 L 64.000496 156 L 64.000496 160 L 72.876503 160 L 72.119499 163.029999 L 66.704506 184.688004 C 64.065498 179.544998 57.663502 176 50.000492 176 C 39.906498 176 32.000492 182.149994 32.000492 190 C 32.000492 194.757004 34.9025 198.889008 39.436497 201.406998 C 37.446507 202.619003 35.827503 204.520004 35.089497 206.735001 L 34.6675 208 L 33.550495 208 C 29.626501 208 25.702505 210.895996 24.422506 214.735001 C 23.647497 217.061996 23.949499 219.432999 25.252508 221.240997 C 26.250494 222.626007 27.740499 223.544006 29.463507 223.869003 C 29.104498 225.817001 29.494497 227.727005 30.585501 229.240997 C 31.849508 230.994003 33.9025 232 36.217503 232 C 40.141499 232 44.065495 229.104996 45.345493 225.264999 L 45.767506 224 L 46.884495 224 C 50.808506 224 54.732502 221.104996 56.012501 217.264999 C 56.787495 214.938004 56.485493 212.567001 55.182499 210.759003 C 54.184498 209.373993 52.694492 208.455994 50.9715 208.130997 C 51.238499 206.682007 51.091496 205.253998 50.548496 203.994003 C 55.441502 203.884995 59.785496 202.328003 62.916492 199.839996 L 56.119495 227.029999 L 54.876499 232 L 60.000492 232 L 196.000504 232 L 201.123505 232 L 199.880493 227.029999 L 193.083496 199.839996 C 196.214493 202.328003 200.558502 203.884995 205.451508 203.994003 C 204.908493 205.253998 204.761505 206.682007 205.028503 208.130997 C 203.305496 208.455994 201.815506 209.373993 200.817505 210.759003 C 199.514496 212.567001 199.212494 214.938004 199.987503 217.264999 C 201.267502 221.104996 205.191498 224 209.115494 224 L 210.232498 224 L 210.654495 225.264999 C 211.934494 229.104996 215.858505 232 219.782501 232 C 222.097504 232 224.150497 230.994003 225.414505 229.240997 C 226.505493 227.727005 226.895493 225.817001 226.536499 223.869003 C 228.259506 223.544006 229.749496 222.626007 230.747498 221.240997 C 232.050507 219.432999 232.352493 217.061996 231.577499 214.735001 C 230.297501 210.895004 226.373505 208 222.449493 208 L 221.332504 208 L 220.910507 206.735001 C 220.172501 204.520004 218.553497 202.619003 216.563507 201.406998 C 221.097504 198.889008 224.000504 194.757004 224.000504 190 C 224.000504 182.149994 216.093506 176 206.000504 176 C 198.336502 176 191.934494 179.544998 189.295502 184.688004 L 183.880508 163.029999 L 183.123505 160 L 192.000504 160 L 192.000504 156 L 212.000504 156 C 215.532501 156 218.647507 158.317001 219.662506 161.700989 L 237.048492 212.828003 C 240.513504 224.376999 231.864502 236 219.807495 236 M 36.000492 132 C 36.000492 134.953003 37.612492 137.531998 40.000492 138.917999 L 40.000492 140 C 40.000492 144.411011 43.633503 148 48.099506 148 L 64.000496 148 L 64.000496 152 L 44.000492 152 C 41.907505 152 39.929493 152.533997 38.200504 153.484009 C 36.842503 152.053009 36.000492 150.128998 36.000492 148 Z M 192.000504 148 L 203.900497 148 C 205.487503 148 206.9655 147.540009 208.216507 146.757004 C 208.087494 147.151001 208.000504 147.563004 208.000504 148 C 208.000504 150.209 209.790497 152 212.000504 152 C 214.209503 152 216.000504 150.209 216.000504 148 C 216.000504 145.791 214.209503 144 212.000504 144 C 211.569504 144 211.162506 144.085999 210.773499 144.212006 C 211.546494 142.987 212.000504 141.54599 212.000504 140 C 216.411499 140 220.000504 136.411011 220.000504 132 L 220.000504 148 C 220.000504 150.128998 219.157501 152.053009 217.7995 153.484009 C 216.070496 152.533997 214.092499 152 212.000504 152 L 192.000504 152 Z M 196.000504 56 L 204.000504 56 L 204.000504 64 L 196.000504 64 Z M 178.000504 48 C 178.000504 46.895004 178.895508 46 180.000504 46 C 181.104507 46 182.000504 46.895004 182.000504 48 C 182.000504 49.104996 181.104507 50 180.000504 50 C 178.895508 50 178.000504 49.104996 178.000504 48 M 170.000504 48 C 170.000504 46.895004 170.895508 46 172.000504 46 C 173.104507 46 174.000504 46.895004 174.000504 48 C 174.000504 49.104996 173.104507 50 172.000504 50 C 170.895508 50 170.000504 49.104996 170.000504 48 M 162.000504 48 C 162.000504 46.895004 162.895508 46 164.000504 46 C 165.104507 46 166.000504 46.895004 166.000504 48 C 166.000504 49.104996 165.104507 50 164.000504 50 C 162.895508 50 162.000504 49.104996 162.000504 48 M 154.000504 48 C 154.000504 46.895004 154.895493 46 156.000504 46 C 157.104507 46 158.000504 46.895004 158.000504 48 C 158.000504 49.104996 157.104507 50 156.000504 50 C 154.895493 50 154.000504 49.104996 154.000504 48 M 146.000504 48 C 146.000504 46.895004 146.895493 46 148.000504 46 C 149.104492 46 150.000504 46.895004 150.000504 48 C 150.000504 49.104996 149.104492 50 148.000504 50 C 146.895493 50 146.000504 49.104996 146.000504 48 M 138.000504 48 C 138.000504 46.895004 138.895493 46 140.000504 46 C 141.104492 46 142.000504 46.895004 142.000504 48 C 142.000504 49.104996 141.104492 50 140.000504 50 C 138.895493 50 138.000504 49.104996 138.000504 48 M 140.000504 53.889008 C 141.544495 53.889008 142.948502 53.285995 144.000504 52.309998 C 145.051498 53.285995 146.455505 53.889008 148.000504 53.889008 C 149.544495 53.889008 150.948502 53.285995 152.000504 52.309998 C 153.051498 53.285995 154.455505 53.889008 156.000504 53.889008 C 157.544495 53.889008 158.948502 53.285995 160.000504 52.309998 C 161.051498 53.285995 162.455505 53.889008 164.000504 53.889008 C 165.544495 53.889008 166.948502 53.285995 168.000504 52.309998 C 169.051498 53.285995 170.455505 53.889008 172.000504 53.889008 C 173.544495 53.889008 174.948502 53.285995 176.000504 52.309998 C 177.051498 53.285995 178.455505 53.889008 180.000504 53.889008 C 183.247498 53.889008 185.888504 51.246994 185.888504 48 C 185.888504 46.455002 185.286499 45.052002 184.309494 44 L 192.333496 44 C 197.494507 44 201.864502 47.354996 203.403503 52 L 196.000504 52 L 192.000504 52 L 192.000504 56 L 192.000504 64 L 192.000504 68 L 196.000504 68 L 204.000504 68 L 204.000504 80 L 204.000504 130.166992 C 204.000504 133.388 201.388504 136 198.166504 136 L 121.833504 136 C 118.611504 136 116.000504 133.388 116.000504 130.166992 L 116.000504 49.832993 C 116.000504 46.612 118.611504 44 121.833504 44 L 135.690506 44 C 134.713501 45.052002 134.111496 46.455002 134.111496 48 C 134.111496 51.246994 136.752502 53.889008 140.000504 53.889008 M 207.888504 73.149994 L 207.888504 68 L 208.000504 68 L 208.000504 73.082001 C 207.962494 73.104004 207.926498 73.128006 207.888504 73.149994 M 212.000504 146 C 213.104507 146 214.000504 146.894989 214.000504 148 C 214.000504 149.105011 213.104507 150 212.000504 150 C 210.895508 150 210.000504 149.105011 210.000504 148 C 210.000504 146.894989 210.895508 146 212.000504 146 M 208.000504 132 L 208.000504 80 C 208.000504 77.800003 209.7995 76 212.000504 76 C 214.2005 76 216.000504 77.800003 216.000504 80 L 216.000504 132 C 216.000504 134.199997 214.2005 136 212.000504 136 C 209.7995 136 208.000504 134.199997 208.000504 132 M 40.000492 132 L 40.000492 80 C 40.000492 77.800003 41.799503 76 44.000492 76 C 46.200504 76 48.000492 77.800003 48.000492 80 L 48.000492 132 C 48.000492 134.199997 46.200504 136 44.000492 136 C 41.799503 136 40.000492 134.199997 40.000492 132 M 48.099506 144 C 45.835499 144 44.000492 142.209 44.000492 140 C 48.411503 140 52.000492 136.411011 52.000492 132 L 52.000492 80 C 52.000492 75.589005 48.411503 72 44.000492 72 L 44.000492 42.669006 C 44.000492 40.460007 45.835499 38.669006 48.099506 38.669006 L 195.7005 38.669006 C 202.4935 38.669006 208.000504 44.041 208.000504 50.669006 L 208.000504 52 L 207.434494 52 C 205.779495 45.188995 199.645493 40.110992 192.333496 40.110992 L 121.833504 40.110992 C 116.472504 40.110992 112.111504 44.472 112.111504 49.832993 L 112.111504 130.166992 C 112.111504 135.528 116.472504 139.889008 121.833504 139.889008 L 198.166504 139.889008 C 201.068497 139.889008 203.669495 138.605011 205.452499 136.582001 C 206.120499 137.533997 206.990494 138.332001 208.000504 138.917999 L 208.000504 140 C 208.000504 142.209 206.164505 144 203.900497 144 Z M 180.000504 164 L 196.000504 228 L 60.000492 228 L 76.000496 164 Z M 68.000496 148 L 188.000504 148 L 188.000504 156 L 68.000496 156 Z M 36.000492 190 C 36.000492 184.477005 42.268497 180 50.000492 180 C 57.731495 180 64.000496 184.477005 64.000496 190 C 64.000496 195.522995 57.731495 200 50.000492 200 C 42.268497 200 36.000492 195.522995 36.000492 190 M 43.550495 218 C 43.919498 216.895004 44.515491 215.104996 44.884495 214 C 45.252506 212.895004 46.446507 212 47.550495 212 L 49.550495 212 C 51.760502 212 52.953495 213.791 52.217503 216 C 51.481495 218.209 49.093494 220 46.884495 220 L 44.884495 220 C 43.779499 220 43.182499 219.104996 43.550495 218 M 39.550495 212 C 38.446507 212 37.849506 211.104996 38.217503 210 C 38.371494 209.539001 38.782505 208.304001 38.884495 208 C 39.620502 205.791 42.008503 204 44.217503 204 C 46.426502 204 47.620502 205.791 46.884495 208 C 46.782505 208.304001 46.371494 209.539001 46.217503 210 C 45.849506 211.104996 44.655506 212 43.550495 212 Z M 32.884495 220 L 30.884497 220 C 28.675497 220 27.481497 218.209 28.217505 216 C 28.953497 213.791 31.341497 212 33.550495 212 L 35.550495 212 C 36.655506 212 37.252506 212.895004 36.884495 214 C 36.515491 215.104996 35.919498 216.895004 35.550495 218 C 35.182499 219.104996 33.988499 220 32.884495 220 M 33.550495 224 C 33.6525 223.695999 34.064503 222.460999 34.217503 222 C 34.585499 220.895004 35.779499 220 36.884495 220 L 40.884495 220 C 41.988499 220 42.585499 220.895004 42.217503 222 C 42.064503 222.460999 41.6525 223.695999 41.550495 224 C 40.814503 226.209 38.426502 228 36.217503 228 C 34.008503 228 32.814503 226.209 33.550495 224 M 206.000504 200 C 198.268494 200 192.000504 195.522995 192.000504 190 C 192.000504 184.477005 198.268494 180 206.000504 180 C 213.731506 180 220.000504 184.477005 220.000504 190 C 220.000504 195.522995 213.731506 200 206.000504 200 M 211.115494 220 L 209.115494 220 C 206.906494 220 204.518494 218.209 203.782501 216 C 203.046494 213.791 204.239502 212 206.449493 212 L 208.449493 212 C 209.553497 212 210.747498 212.895004 211.115494 214 C 211.484497 215.104996 212.080505 216.895004 212.449493 218 C 212.817505 219.104996 212.220505 220 211.115494 220 M 216.449493 212 L 212.449493 212 C 211.344498 212 210.150497 211.104996 209.782501 210 C 209.628494 209.539001 209.217499 208.304001 209.115494 208 C 208.379501 205.791 209.573502 204 211.782501 204 C 213.991501 204 216.379501 205.791 217.115494 208 C 217.217499 208.304001 217.628494 209.539001 217.782501 210 C 218.150497 211.104996 217.553497 212 216.449493 212 M 220.449493 212 L 222.449493 212 C 224.658493 212 227.046494 213.791 227.782501 216 C 228.518494 218.209 227.324493 220 225.115494 220 L 223.115494 220 C 222.011505 220 220.817505 219.104996 220.449493 218 C 220.080505 216.895004 219.484497 215.104996 219.115494 214 C 218.747498 212.895004 219.344498 212 220.449493 212 M 219.115494 220 C 220.220505 220 221.414505 220.895004 221.782501 222 C 221.936493 222.460999 222.347504 223.695999 222.449493 224 C 223.185501 226.209 221.991501 228 219.782501 228 C 217.573502 228 215.185501 226.209 214.449493 224 C 214.347504 223.695999 213.936493 222.460999 213.782501 222 C 213.414505 220.895004 214.011505 220 215.115494 220 Z M 36.000492 42 C 36.000492 39.160004 37.653492 37.492004 39.896503 36.130997 C 42.337498 34.651001 45.062504 33.703003 47.871494 33.192001 C 59.454502 31.085999 87.253502 28 128.000504 28 C 168.746506 28 196.545502 31.085999 208.128494 33.192001 C 210.9375 33.703003 213.662506 34.651001 216.1035 36.130997 C 218.346497 37.492004 220.000504 39.160004 220.000504 42 L 220.000504 80 C 220.000504 75.589005 216.411499 72 212.000504 72 L 212.000504 64 L 212.000504 56 L 212.000504 50.669006 C 212.000504 41.845993 204.6875 34.669006 195.7005 34.669006 L 48.099506 34.669006 C 43.633503 34.669006 40.000492 38.257996 40.000492 42.669006 L 40.000492 73.082001 C 37.612492 74.468002 36.000492 77.046997 36.000492 80 Z M 126.000504 16 C 160.003494 16 189.391495 21.050003 203.347504 28.376007 C 197.441498 27.520996 175.6035 25.403 176.887497 25.492004 C 163.848495 22.076004 146.744492 20 128.000504 20 C 108.912506 20 91.534508 22.156006 78.409508 25.684006 C 60.342503 27.018005 49.991505 28.740997 47.156498 29.255997 C 47.1115 29.264999 47.069492 29.278 47.024494 29.285995 C 60.219501 21.470993 90.606499 16 126.000504 16 M 240.879501 211.678009 L 240.858505 211.609009 L 240.835495 211.540009 L 223.470505 160.475006 C 222.944504 158.761002 222.064499 157.244995 220.934494 155.979004 C 222.836502 153.860001 224.000504 151.067001 224.000504 148 L 224.000504 42 C 224.000504 36.242004 219.617493 33.584 218.177505 32.710999 C 216.481506 31.682007 214.619507 30.869995 212.643494 30.233002 C 208.390503 25.623993 200.1035 21.714996 187.802505 18.567993 C 171.244507 14.332993 149.296494 12 126.000504 12 C 102.703506 12 80.755501 14.332993 64.197502 18.567993 C 49.490498 22.330994 40.509495 27.179993 37.327503 33.018005 C 37.327503 33.016998 37.327503 33.016998 37.328495 33.016998 C 35.577503 34.126999 32.000492 36.792999 32.000492 42 L 32.000492 148 C 32.000492 151.067001 33.176502 153.847 35.078495 155.964996 C 33.941502 157.234009 33.057499 158.755005 32.529499 160.475006 L 15.164495 211.540009 L 15.1415 211.609009 L 15.120503 211.678009 C 13.101506 218.406006 14.349507 225.496994 18.542501 231.132004 C 22.735495 236.768005 29.168493 240 36.192493 240 L 219.807495 240 C 226.831497 240 233.264496 236.768005 237.457504 231.132004 C 241.650497 225.496994 242.898499 218.406006 240.879501 211.678009"/>
</svg>
