<?xml version="1.0" encoding="UTF-8"?>
<!-- Generated by Pixelmator Pro 3.7.1 -->
<svg width="256" height="256" viewBox="0 0 256 256" xmlns="http://www.w3.org/2000/svg">
    <path id="Path" fill="#ffffff" stroke="none" d="M 199.442398 202 L 56.557407 202 C 12.906404 202 12.000399 194.772995 12.000399 194.772995 L 12.000399 193.082001 L 12.792406 192.755005 C 12.968401 192.682999 17.225405 190.962006 27.398394 188.671997 C 31.315401 187.791 34.094395 185.895996 35.657398 183.041 C 37.898396 178.946991 36.729404 174.488007 36.481403 173.660995 C 36.050404 170.356003 26.502398 98.684998 24.172396 83.52301 C 21.754396 67.783997 13.354403 67.024994 12.074404 67.001007 C 12.811403 59.727005 19.016405 54 26.500399 54 L 30.997393 54 L 39.447407 151.462997 L 39.496403 151.813004 C 39.637409 152.541 43.103397 169.651001 56.122395 171.800003 L 59.115406 172.302002 C 71.237396 174.350998 96.312401 178.587997 124.292397 178.966995 L 127.709396 179 L 131.2854 178.981995 L 131.286407 178.972992 C 159.446396 178.630005 184.694397 174.362 196.891403 172.300995 L 199.875397 171.800003 C 212.896408 169.651001 216.363403 152.541 216.504395 151.811996 L 225.003403 54 L 229.500397 54 C 236.983398 54 243.1884 59.727005 243.9254 67.001007 C 242.736404 67.018005 234.259399 67.699005 231.827393 83.52301 C 229.497406 98.682999 219.950394 170.354996 219.518402 173.660995 C 219.270401 174.488007 218.101395 178.945999 220.342407 183.041 C 221.906403 185.895996 224.684402 187.791 228.601395 188.671997 C 238.774399 190.962006 243.032394 192.682999 243.205399 192.752991 L 244.000397 193.082001 L 244.000397 194.772995 C 244.000397 194.772995 243.093399 202 199.442398 202 M 12.000399 70.197006 L 12.021395 70.197006 C 12.303392 70.197006 18.961397 70.354004 21.060396 84.015991 C 23.332399 98.800003 33.317402 173.632996 33.4184 174.386993 L 33.457401 174.559998 C 33.469395 174.597992 34.660404 178.42099 32.841404 181.600006 C 31.7204 183.55899 29.659395 184.888 26.715395 185.550995 C 17.735399 187.571991 13.258394 189.158997 12.000399 189.639008 Z M 220.580399 54 L 212.167404 151.028992 C 211.973404 151.953995 208.899399 165.865997 199.153397 167.475998 C 198.268402 167.621002 197.262405 167.791 196.143402 167.979996 C 183.526398 170.112 157.271393 174.548004 128.298401 174.609009 L 128.172409 174.610001 L 127.701401 174.609009 C 98.728401 174.548004 72.473396 170.112 59.856403 167.979996 C 58.7374 167.791 57.732395 167.621002 56.846409 167.475998 C 47.117405 165.867996 44.027409 151.953003 43.833408 151.028992 L 35.420399 54 Z M 244.000397 189.639008 C 242.738403 189.160004 238.225403 187.563995 229.284393 185.550995 C 226.347397 184.889999 224.289398 183.563995 223.166397 181.613007 C 221.347397 178.453003 222.530396 174.597 222.542404 174.559998 L 222.581406 174.386993 C 222.681396 173.632996 232.668396 98.800003 234.939407 84.015991 C 237.039398 70.354004 243.697403 70.197006 243.900406 70.192993 L 244.000397 70.203003 Z M 229.500397 50 L 26.500399 50 C 16.298403 50 8.000399 58.278 8.000399 68.453995 L 8.000399 194.772995 L 8.000399 195.022995 L 8.031404 195.270996 C 8.923403 202.390991 25.250399 206 56.557407 206 L 199.442398 206 C 230.750397 206 247.076401 202.390991 247.968399 195.270996 L 248.000397 195.022995 L 248.000397 194.772995 L 248.000397 68.453995 C 248.000397 58.278 239.701401 50 229.500397 50"/>
    <path id="path1" fill="#ffffff" stroke="none" d="M 52 72 L 204 72 L 204 152 L 52 152 Z M 49 156 L 207 156 C 207.552994 156 208 155.553009 208 155 L 208 69 C 208 68.447998 207.552994 68 207 68 L 49 68 C 48.448002 68 48 68.447998 48 69 L 48 155 C 48 155.553009 48.448002 156 49 156"/>
    <path id="path2" fill="#ffffff" stroke="none" d="M 68 196 L 72 196 L 72 184 L 68 184 Z"/>
    <path id="path3" fill="#ffffff" stroke="none" d="M 92 196 L 96 196 L 96 184 L 92 184 Z"/>
    <path id="path4" fill="#ffffff" stroke="none" d="M 116 196 L 120 196 L 120 184 L 116 184 Z"/>
    <path id="path5" fill="#ffffff" stroke="none" d="M 136 196 L 140 196 L 140 184 L 136 184 Z"/>
    <path id="path6" fill="#ffffff" stroke="none" d="M 156 196 L 160 196 L 160 184 L 156 184 Z"/>
    <path id="path7" fill="#ffffff" stroke="none" d="M 180 196 L 184 196 L 184 184 L 180 184 Z"/>
</svg>
