<?xml version="1.0" encoding="UTF-8"?>
<!-- Generated by Pixelmator Pro 3.7.1 -->
<svg width="256" height="256" viewBox="0 0 256 256" xmlns="http://www.w3.org/2000/svg">
    <path id="Path" fill="#ffffff" stroke="none" d="M 108 220 L 148 220 L 148 212 L 108 212 Z"/>
    <path id="path1" fill="#ffffff" stroke="none" d="M 108 208 L 148 208 L 148 200 L 108 200 Z"/>
    <path id="path2" fill="#ffffff" stroke="none" d="M 108 196 L 148 196 L 148 188 L 108 188 Z"/>
    <path id="path3" fill="#ffffff" stroke="none" d="M 82 212 C 76.476997 212 72 205.731995 72 198 C 72 190.268005 76.476997 184 82 184 C 87.523003 184 92 190.268005 92 198 C 92 205.731995 87.523003 212 82 212 M 80 178 C 80 176.895004 80.894997 176 82 176 C 83.105003 176 84 176.895004 84 178 C 84 179.104996 83.105003 180 82 180 C 80.894997 180 80 179.104996 80 178 M 87.07 181.195007 C 87.655998 180.268005 88 179.175003 88 178 C 88 174.692001 85.307999 172 82 172 C 78.692001 172 76 174.692001 76 178 C 76 179.175003 76.344002 180.268005 76.93 181.195007 C 71.660004 183.757004 68 190.220001 68 198 C 68 208.093002 74.150002 216 82 216 C 89.849998 216 96 208.093002 96 198 C 96 190.220001 92.339996 183.757004 87.07 181.195007"/>
    <path id="path4" fill="#ffffff" stroke="none" d="M 82 204 C 78.692001 204 76 201.307999 76 198 C 76 194.692001 78.692001 192 82 192 C 85.307999 192 88 194.692001 88 198 C 88 201.307999 85.307999 204 82 204 M 82 188 C 76.476997 188 72 192.477005 72 198 C 72 203.522995 76.476997 208 82 208 C 87.523003 208 92 203.522995 92 198 C 92 192.477005 87.523003 188 82 188"/>
    <path id="path5" fill="#ffffff" stroke="none" d="M 174 212 C 168.477005 212 164 205.731995 164 198 C 164 190.268005 168.477005 184 174 184 C 179.522995 184 184 190.268005 184 198 C 184 205.731995 179.522995 212 174 212 M 174 180 C 166.149994 180 160 187.906998 160 198 C 160 208.093002 166.149994 216 174 216 C 181.850006 216 188 208.093002 188 198 C 188 187.906998 181.850006 180 174 180"/>
    <path id="path6" fill="#ffffff" stroke="none" d="M 174 204 C 170.692001 204 168 201.307999 168 198 C 168 194.692001 170.692001 192 174 192 C 177.307999 192 180 194.692001 180 198 C 180 201.307999 177.307999 204 174 204 M 174 188 C 168.477005 188 164 192.477005 164 198 C 164 203.522995 168.477005 208 174 208 C 179.522995 208 184 203.522995 184 198 C 184 192.477005 179.522995 188 174 188"/>
    <path id="path7" fill="#ffffff" stroke="none" d="M 244 113.226898 C 244 114.304901 243.156998 115.1539 242.134003 115.216904 C 241.785004 115.161896 241.449005 115.114899 241.139999 115.071899 C 238.847 114.752899 235.492004 114.446899 231.169006 114.160904 C 222.824997 113.609894 210.697998 113.1259 196.100006 112.760895 C 196.067001 112.759903 196.033005 112.758896 196 112.758896 L 196 112.758896 L 196 92.773895 C 236.358994 93.784897 241.651993 95.221893 242.121994 95.382904 C 242.541 95.525894 242.977005 95.595901 243.410004 95.5979 C 243.794006 95.729904 244 95.863892 244 95.999893 Z M 244 194.772888 L 244 211.999908 C 244 212.337891 242.781006 212.665894 240.494995 212.978897 C 240.311005 212.983902 240.126999 212.991898 239.945007 213.016907 C 233.481003 213.901901 217.875 214.690887 196 215.238892 L 196 195.240906 L 196 195.240906 C 196.033005 195.240906 196.067001 195.239899 196.100006 195.238892 C 210.697998 194.874908 222.824997 194.389893 231.169006 193.838898 C 235.492004 193.552887 238.847 193.246887 241.139999 192.928894 C 241.449005 192.885895 241.785004 192.838898 242.134003 192.782898 C 243.156998 192.845901 244 193.695892 244 194.772888 M 241.322006 218.677887 L 224 235.999908 L 200 235.999908 L 196 231.999908 L 196 219.240906 L 196 219.240906 C 196.033005 219.240906 196.067001 219.239899 196.100006 219.238892 C 210.697998 218.874908 222.824997 218.389893 231.169006 217.838898 C 235.244003 217.569901 238.445999 217.281891 240.722 216.982895 C 241.520004 217.055908 241.938995 218.060898 241.322006 218.677887 M 148 231.999908 L 148 223.999908 L 108 223.999908 L 108 231.999908 L 64 231.999908 L 64 219.240906 C 64 218.507904 63.789993 217.828888 63.445007 217.236908 C 63.794998 216.632904 64 215.950897 64 215.240906 L 64 195.240906 C 64 194.507904 63.789993 193.828888 63.445007 193.236908 C 63.794998 192.632904 64 191.950897 64 191.240906 L 64 171.240906 C 64 169.636902 63.052002 168.253906 61.682999 167.616898 C 63.048004 166.980896 64 165.605896 64 163.999908 L 64 143.999908 C 64 142.39389 63.048004 141.01889 61.682999 140.382904 C 63.052002 139.745895 64 138.3629 64 136.758896 L 64 136.539902 L 104 169.873901 L 104 171.999908 C 104 174.208893 105.791 175.999908 108 175.999908 L 108 183.999908 L 148 183.999908 L 148 175.999908 C 150.209 175.999908 152 174.208893 152 171.999908 L 152 169.873901 L 192 136.539902 L 192 136.758896 C 192 138.3629 192.947998 139.745895 194.317001 140.382904 C 192.951996 141.01889 192 142.39389 192 143.999908 L 192 163.999908 C 192 165.605896 192.951996 166.980896 194.317001 167.616898 C 192.947998 168.253906 192 169.636902 192 171.240906 L 192 191.240906 C 192 191.950897 192.205002 192.632904 192.554993 193.236908 C 192.209991 193.828888 192 194.507904 192 195.240906 L 192 215.240906 C 192 215.950897 192.205002 216.632904 192.554993 217.236908 C 192.209991 217.828888 192 218.507904 192 219.240906 L 192 231.999908 Z M 56 235.999908 L 32 235.999908 L 14.677994 218.677887 C 14.061005 218.060898 14.479996 217.055908 15.278 216.982895 C 17.554001 217.281891 20.755997 217.569901 24.830994 217.838898 C 33.175003 218.389893 45.302002 218.874908 59.899994 219.238892 C 59.932999 219.239899 59.966995 219.240906 60 219.240906 L 60 219.240906 L 60 231.999908 Z M 14.860001 192.928894 C 17.153 193.246887 20.507996 193.552887 24.830994 193.838898 C 33.175003 194.389893 45.302002 194.874908 59.899994 195.238892 C 59.932999 195.239899 59.966995 195.240906 60 195.240906 L 60 195.240906 L 60 215.238892 C 38.125 214.690887 22.518997 213.901901 16.054993 213.016907 C 15.871994 212.991898 15.688004 212.983902 15.505005 212.978897 C 13.218994 212.665894 12 212.337891 12 211.999908 L 12 194.772888 C 12 193.695892 12.843002 192.845901 13.865997 192.782898 C 14.214996 192.838898 14.550995 192.885895 14.860001 192.928894 M 12 113.226898 L 12 95.999893 C 12 94.666901 30.919006 93.485901 60 92.758896 L 60 112.758896 L 60 112.758896 C 59.966995 112.758896 59.932999 112.759903 59.899994 112.760895 C 45.302002 113.1259 33.175003 113.609894 24.830994 114.160904 C 20.507996 114.446899 17.153 114.752899 14.860001 115.071899 C 14.550995 115.114899 14.214996 115.161896 13.865997 115.216904 C 12.843002 115.1539 12 114.303894 12 113.226898 M 24 23.999908 L 42.882004 23.999908 C 37.738998 28.676895 33.057999 33.772903 28.916 39.212906 C 28.315002 40.0009 28.044006 40.965897 28.110992 41.917908 C 27.181 42.154907 26.354004 42.7099 25.800003 43.514908 C 21.145004 50.282898 17.298996 57.522903 14.369003 65.034897 C 14.069 65.802902 14.024002 66.630905 14.209 67.409897 C 13.565994 67.884903 13.061996 68.545898 12.794998 69.3349 C 12.518997 70.146896 12.255005 70.962906 12 71.781906 L 12 35.999908 C 12 29.37291 17.373001 23.999908 24 23.999908 M 55.492996 20.821899 C 75.240005 20.305908 99.925995 19.999908 126.712997 19.999908 C 154.438995 19.999908 179.912994 20.327896 199.988998 20.876907 C 201.768005 20.924896 203.472992 21.571899 204.856995 22.691895 C 211.832001 28.331909 218.056 34.723907 223.378998 41.729904 C 203.477005 40.74791 172.401001 40.127899 137.863998 40.017899 C 137.856995 40.017899 137.850006 40.017899 137.843002 40.017899 C 135.403992 40.009903 132.949005 40.004898 130.477997 40.001907 C 129.227997 40.0009 127.973 39.999908 126.712997 39.999908 C 125.487999 39.999908 124.267998 40.0009 123.052002 40.001907 C 122.891998 40.001907 122.733002 40.002899 122.572998 40.002899 C 112.847 40.013901 103.423996 40.065903 94.440002 40.1539 C 94.438004 40.1539 94.436005 40.1539 94.432999 40.1539 C 93.306 40.164902 92.186005 40.175903 91.072998 40.187897 C 90.983994 40.188904 90.895004 40.189896 90.806 40.190903 C 89.789001 40.202896 88.776993 40.213898 87.772003 40.225906 C 87.565002 40.228897 87.358994 40.230896 87.151993 40.233902 C 86.311996 40.243896 85.475006 40.254898 84.645004 40.264908 C 84.235992 40.270905 83.830002 40.275909 83.421997 40.281906 C 82.781998 40.290909 82.141998 40.298904 81.505997 40.307907 C 80.966003 40.315903 80.429993 40.323898 79.893005 40.331909 C 79.417007 40.338898 78.942001 40.345901 78.468994 40.352905 C 77.781006 40.363907 77.098007 40.374908 76.417007 40.385895 C 76.126007 40.3909 75.834 40.394897 75.544006 40.399902 C 74.705002 40.413895 73.869995 40.427902 73.039993 40.442902 C 72.921997 40.444901 72.802994 40.446899 72.684998 40.448898 C 56.889008 40.727905 42.960999 41.129898 32.100998 41.631897 C 37.425995 34.639908 43.649994 28.260895 50.621002 22.632904 C 52.007004 21.513901 53.712997 20.867905 55.492996 20.821899 M 232 23.999908 C 238.626999 23.999908 244 29.37291 244 35.999908 L 244 73.7939 C 243.589005 72.370895 243.154999 70.954895 242.682007 69.550903 C 242.414993 68.758896 241.908997 68.094894 241.263 67.616898 C 241.453003 66.8349 241.410995 66.0009 241.110992 65.225906 C 238.186996 57.686905 234.341995 50.419907 229.682999 43.627899 C 229.128998 42.820908 228.300995 42.264908 227.367996 42.027908 C 227.438004 41.072906 227.169006 40.105896 226.567993 39.314896 C 222.406006 33.836899 217.697006 28.705902 212.520996 23.999908 Z M 196 68.773895 C 196.296997 68.780899 196.596008 68.788895 196.890991 68.795898 C 197.567001 68.813904 198.238007 68.830902 198.903 68.848907 C 199.406998 68.861893 199.908997 68.8759 200.406998 68.888901 C 201.123993 68.908905 201.833008 68.928894 202.535995 68.949905 C 202.983002 68.962906 203.429993 68.975906 203.871002 68.988907 C 204.584 69.009903 205.287003 69.031906 205.984009 69.053894 C 206.416992 69.066895 206.850006 69.080902 207.277008 69.093903 C 207.932007 69.114899 208.574997 69.136902 209.216003 69.158905 C 209.68399 69.173904 210.153992 69.189896 210.615005 69.205902 C 211.147995 69.224899 211.669998 69.243896 212.192993 69.262894 C 212.751999 69.282898 213.313004 69.303894 213.860001 69.323898 C 214.201004 69.336899 214.531998 69.349899 214.869003 69.363907 C 215.589005 69.391907 216.309006 69.419907 217.007004 69.447906 C 217.067993 69.450897 217.126007 69.453903 217.186996 69.455902 C 225.643997 69.8069 232.414993 70.2099 236.994995 70.6539 C 237.125 70.665894 237.253006 70.671906 237.382004 70.671906 C 237.382004 70.671906 237.382996 70.671906 237.382996 70.671906 C 237.916 70.723907 238.419998 70.775894 238.891998 70.828903 C 241.125 77.454895 242.662003 84.356903 243.432007 91.465897 C 242.621002 91.279892 241.820007 91.165894 241.139999 91.071899 C 238.847 90.752899 235.492004 90.446899 231.169006 90.160904 C 222.824997 89.609894 210.697998 89.1259 196.100006 88.760895 C 196.067001 88.759903 196.033005 88.758896 196 88.758896 Z M 196 163.999908 L 196 143.999908 L 242 143.999908 C 243.104996 143.999908 244 144.895905 244 145.999908 L 244 161.999908 C 244 163.104889 243.104996 163.999908 242 163.999908 Z M 60 143.999908 L 60 163.999908 L 14 163.999908 C 12.895004 163.999908 12 163.104889 12 161.999908 L 12 145.999908 C 12 144.895905 12.895004 143.999908 14 143.999908 Z M 16.582001 70.620895 C 17.061996 70.575897 17.570999 70.531906 18.095001 70.4879 C 18.205994 70.4879 18.317001 70.483902 18.427994 70.473907 C 22.091003 70.1689 26.781998 69.884903 32.309998 69.626907 C 39.998001 69.271896 49.352997 68.961899 60 68.7099 L 60 88.7099 C 35.876007 89.279892 18.320999 90.150894 12 91.162903 C 12.787994 84.085892 14.341995 77.215897 16.582001 70.620895 M 64 68.616898 L 64 68.7099 C 64 68.678894 63.990997 68.647903 63.990997 68.616898 C 63.994003 68.616898 63.996994 68.616898 64 68.616898 M 128 45.999908 C 147.882004 45.999908 164 49.581894 164 53.999893 C 164 58.417908 147.882004 61.999893 128 61.999893 C 108.117996 61.999893 92 58.417908 92 53.999893 C 92 49.581894 108.117996 45.999908 128 45.999908 M 226.384995 45.8909 C 230.833008 52.3759 234.531998 59.329895 237.373993 66.654907 C 229.738007 65.934906 216.514999 65.313904 198.789001 64.843903 C 198.751007 64.842896 198.712997 64.841904 198.675003 64.840897 C 197.821991 64.818893 196.973999 64.795898 196.100006 64.773895 C 196.067993 64.773895 196.035995 64.772903 196.003998 64.772903 C 183.011993 64.447906 167.985992 64.211899 151.695999 64.091904 C 152.600998 63.924896 153.481003 63.748901 154.324005 63.561905 C 160.195007 62.256897 168 59.845901 168 53.999893 C 168 48.1539 160.195007 45.742905 154.324005 44.437897 C 153.785004 44.318909 153.208008 44.210907 152.643997 44.099899 C 181.015991 44.318909 206.324005 44.893906 223.184998 45.729904 C 223.238998 45.731903 223.291992 45.732895 223.346008 45.733902 C 224.389999 45.784897 225.410995 45.837906 226.384995 45.8909 M 29.095001 45.781906 C 30.070999 45.731903 31.089005 45.683899 32.126999 45.634903 C 32.179001 45.634903 32.231003 45.633896 32.283997 45.631897 C 49.608994 44.826904 75.203995 44.277908 103.449005 44.080902 C 102.852005 44.197906 102.244995 44.311905 101.675995 44.437897 C 95.804993 45.742905 88 48.1539 88 53.999893 C 88 59.845901 95.804993 62.256897 101.675995 63.561905 C 102.490997 63.742905 103.341995 63.911896 104.214005 64.073898 C 88.033997 64.180893 73.048004 64.401901 59.983994 64.710907 C 59.957993 64.710907 59.932007 64.710907 59.906006 64.710907 C 41.186996 65.1539 26.820007 65.760895 18.100998 66.473907 C 20.949997 59.174896 24.649994 52.244904 29.095001 45.781906 M 12 119.999893 C 12 119.724899 12.815002 119.457901 14.343002 119.198898 C 14.559006 119.184906 14.776001 119.179901 14.988998 119.143906 C 20.498001 118.207901 36.901993 117.338898 60 116.760895 L 60 136.758896 C 36.891998 137.336899 20.199997 138.200897 14.317993 139.200897 C 14.205994 139.21991 14.093994 139.228897 13.983002 139.228897 C 12.906998 139.228897 12 138.345901 12 137.226898 Z M 12 187.999908 L 12 170.772903 C 12 169.6539 12.906998 168.770905 13.983002 168.770905 C 14.093994 168.770905 14.205994 168.779907 14.317993 168.799896 C 20.199997 169.798889 36.891998 170.662903 60 171.240906 L 60 191.238892 C 36.901993 190.660889 20.498001 189.791901 14.988998 188.855896 C 14.774994 188.819901 14.559006 188.814896 14.343002 188.801895 C 12.815002 188.542908 12 188.274902 12 187.999908 M 64 131.332901 L 64 116.758896 C 64 116.048904 63.794998 115.366898 63.445007 114.762894 C 63.789993 114.170898 64 113.491898 64 112.758896 L 64 92.758896 C 64 92.038895 63.791 91.3479 63.432007 90.7379 C 63.785004 90.141907 64 89.452896 64 88.7099 L 64 68.711899 L 192 68.770905 L 192 68.677902 C 192.002991 68.677902 192.005997 68.677902 192.009995 68.678894 C 192.009003 68.7099 192 68.740906 192 68.772903 L 192 88.771896 C 192 89.501892 192.209 90.178894 192.550995 90.768906 C 192.203995 91.371902 192 92.050903 192 92.758896 L 192 112.758896 C 192 113.491898 192.209991 114.170898 192.554993 114.762894 C 192.205002 115.366898 192 116.048904 192 116.758896 L 192 131.332901 L 148 167.999908 L 148 171.999908 L 108 171.999908 L 108 167.999908 Z M 244 187.999908 C 244 188.274902 243.184998 188.542908 241.656998 188.801895 C 241.440994 188.814896 241.223999 188.819901 241.011002 188.855896 C 235.501999 189.791901 219.097992 190.660889 196 191.238892 L 196 171.240906 C 219.108002 170.662903 235.800003 169.798889 241.682007 168.799896 C 241.794006 168.779907 241.906006 168.770905 242.016998 168.770905 C 243.093002 168.770905 244 169.6539 244 170.772903 Z M 244 119.999893 L 244 137.226898 C 244 138.345901 243.093002 139.228897 242.016998 139.228897 C 241.906006 139.228897 241.794006 139.21991 241.682007 139.200897 C 235.800003 138.200897 219.108002 137.336899 196 136.758896 L 196 116.760895 C 219.097992 117.338898 235.501999 118.207901 241.011002 119.143906 C 241.225006 119.179901 241.440994 119.184906 241.656998 119.198898 C 243.184998 119.457901 244 119.724899 244 119.999893 M 232 19.999908 L 207.875 19.999908 C 207.705994 19.861908 207.541992 19.718903 207.373001 19.580902 C 205.306 17.909897 202.722 16.949905 200.097992 16.877899 C 179.069 16.303909 153.692993 15.999908 126.712997 15.999908 C 100.684998 15.999908 76.020996 16.284897 55.389008 16.822906 C 52.763 16.891907 50.177994 17.849899 48.108002 19.519897 C 47.914001 19.677902 47.725998 19.841904 47.531998 19.999908 L 24 19.999908 C 15.177994 19.999908 8 27.177902 8 35.999908 L 8 91.999893 L 8 95.999893 L 8 113.226898 C 8 114.636902 8.490997 115.932907 9.304993 116.957901 C 8.522995 117.654907 8 118.620895 8 119.999893 L 8 137.226898 C 8 138.960907 8.740997 140.519897 9.916 141.616898 C 8.740997 142.712891 8 144.269897 8 145.999908 L 8 161.999908 C 8 163.729889 8.740997 165.286896 9.916 166.382904 C 8.740997 167.479889 8 169.039902 8 170.772903 L 8 187.999908 C 8 189.378906 8.522995 190.344894 9.304993 191.041901 C 8.490997 192.066895 8 193.3629 8 194.772888 L 8 211.999908 C 8 214.14389 9.251999 215.300903 10.806 215.971893 C 10.792999 216.0009 10.776001 216.025909 10.764008 216.055908 C 9.987 217.930908 10.412994 220.069901 11.848999 221.50589 L 29.171997 238.828903 C 29.921997 239.578903 30.938995 239.999908 32 239.999908 L 56 239.999908 C 57.061005 239.999908 58.078003 239.578903 58.828003 238.828903 L 61.656998 235.999908 L 108 235.999908 L 108 239.999908 L 148 239.999908 L 148 235.999908 L 194.343002 235.999908 L 197.171997 238.828903 C 197.921997 239.578903 198.938995 239.999908 200 239.999908 L 224 239.999908 C 225.061005 239.999908 226.078003 239.578903 226.828003 238.828903 L 244.151001 221.50589 C 245.587006 220.069901 246.013 217.930908 245.235992 216.055908 C 245.223999 216.025909 245.207001 216.0009 245.194 215.971893 C 246.748001 215.300903 248 214.14389 248 211.999908 L 248 194.772888 C 248 193.3629 247.509003 192.066895 246.695007 191.041901 C 247.477005 190.344894 248 189.378906 248 187.999908 L 248 170.772903 C 248 169.039902 247.259003 167.479889 246.084 166.382904 C 247.259003 165.286896 248 163.729889 248 161.999908 L 248 145.999908 C 248 144.269897 247.259003 142.712891 246.084 141.616898 C 247.259003 140.519897 248 138.960907 248 137.226898 L 248 119.999893 C 248 118.620895 247.477005 117.654907 246.695007 116.957901 C 247.509003 115.932907 248 114.636902 248 113.226898 L 248 95.999893 L 248 91.999893 L 248 35.999908 C 248 27.177902 240.822006 19.999908 232 19.999908"/>
    <path id="path8" fill="#ffffff" stroke="none" d="M 72 96 L 184 96 L 184 104 L 72 104 Z M 72 84 L 184 84 L 184 92 L 72 92 Z M 188 108 L 188 104 L 188 96 L 188 92 L 188 84 L 188 80 L 184 80 L 72 80 L 68 80 L 68 84 L 68 92 L 68 96 L 68 104 L 68 108 L 72 108 L 184 108 Z"/>
</svg>
