<?xml version="1.0" encoding="UTF-8"?>
<!-- Generated by Pixelmator Pro 3.7.1 -->
<svg width="256" height="256" viewBox="0 0 256 256" xmlns="http://www.w3.org/2000/svg">
    <path id="Path" fill="#ffffff" stroke="none" d="M 240 196 L 236 200 L 20 200 L 16 196 L 12.552002 120.151001 L 15.692001 128 L 20 128 L 12 108 L 244 108 L 236 128 L 240.307999 128 L 243.447998 120.151001 Z M 240 56 L 243.692001 104 L 12.307999 104 L 16 56 Z M 247.988007 107.692993 L 247.723999 104.264008 L 247.725006 104 L 247.703995 104 L 243.988007 55.692993 L 243.703995 52 L 240 52 L 16 52 L 12.296005 52 L 12.011993 55.692993 L 8.011993 107.692993 L 7.992996 107.936996 L 8.003998 108.182007 L 12.003998 196.182007 L 12.074997 197.731003 L 13.171997 198.828003 L 17.171997 202.828003 L 18.343002 204 L 20 204 L 236 204 L 237.656998 204 L 238.828003 202.828003 L 242.828003 198.828003 L 243.925003 197.731003 L 243.996002 196.182007 L 247.996002 108.182007 L 248.007004 107.936996 Z"/>
    <path id="path1" fill="#ffffff" stroke="none" d="M 36.5 64 L 160 64 L 160 76 L 36.5 76 Z M 208 64 L 208 76 L 203.649994 76 C 203.873001 75.373001 204 74.701996 204 74 C 204 70.692001 201.307999 68 198 68 C 194.692001 68 192 70.692001 192 74 C 192 74.701996 192.126999 75.373001 192.350006 76 L 179.649994 76 C 179.873001 75.373001 180 74.701996 180 74 C 180 70.692001 177.307999 68 174 68 C 170.692001 68 168 70.692001 168 74 C 168 74.701996 168.126999 75.373001 168.350006 76 L 164 76 L 164 64 Z M 223.5 76 L 212 76 L 212 64 L 223.5 64 Z M 196 74 C 196 72.895004 196.895004 72 198 72 C 199.104996 72 200 72.895004 200 74 C 200 75.104996 199.104996 76 198 76 C 196.895004 76 196 75.104996 196 74 M 172 74 C 172 72.895004 172.895004 72 174 72 C 175.104996 72 176 72.895004 176 74 C 176 75.104996 175.104996 76 174 76 C 172.895004 76 172 75.104996 172 74 M 160 80 L 164 80 L 208 80 L 212 80 L 223.5 80 L 227.5 80 L 227.5 76 L 227.5 64 L 227.5 60 L 223.5 60 L 212 60 L 208 60 L 164 60 L 160 60 L 36.5 60 L 32.5 60 L 32.5 64 L 32.5 76 L 32.5 80 L 36.5 80 Z"/>
    <path id="path2" fill="#ffffff" stroke="none" d="M 237.600006 124 L 18.400003 124 L 19.999994 128 L 236 128 Z"/>
    <path id="path3" fill="#ffffff" stroke="none" d="M 224 92 L 232 92 L 232 88 L 224 88 Z"/>
    <path id="path4" fill="#ffffff" stroke="none" d="M 232 144 L 224 144 L 224 136 L 232 136 Z M 232 154 L 224 154 L 224 146 L 232 146 Z M 232 164 L 224 164 L 224 156 L 232 156 Z M 232 184 L 224 184 L 224 166 L 232 166 Z M 222 144 L 214 144 L 214 136 L 222 136 Z M 222 154 L 214 154 L 214 146 L 222 146 Z M 222 164 L 214 164 L 214 156 L 222 156 Z M 222 174 L 214 174 L 214 166 L 222 166 Z M 222 184 L 214 184 L 214 176 L 222 176 Z M 212 144 L 204 144 L 204 136 L 212 136 Z M 212 154 L 204 154 L 204 146 L 212 146 Z M 212 164 L 204 164 L 204 156 L 212 156 Z M 212 174 L 204 174 L 204 166 L 212 166 Z M 212 184 L 204 184 L 204 176 L 212 176 Z M 202 144 L 194 144 L 194 136 L 202 136 Z M 202 154 L 194 154 L 194 146 L 202 146 Z M 202 164 L 194 164 L 194 156 L 202 156 Z M 202 174 L 194 174 L 194 166 L 202 166 Z M 202 184 L 194 184 L 194 176 L 202 176 Z M 226 132 L 222 132 L 216 132 L 212 132 L 206 132 L 202 132 L 194 132 L 190 132 L 190 136 L 190 144 L 190 148 L 190 154 L 190 158 L 190 164 L 190 168 L 190 174 L 190 178 L 190 184 L 190 188 L 194 188 L 200 188 L 204 188 L 210 188 L 214 188 L 220 188 L 224 188 L 232 188 L 236 188 L 236 184 L 236 166 L 236 162 L 236 156 L 236 152 L 236 146 L 236 142 L 236 136 L 236 132 L 232 132 Z"/>
    <path id="path5" fill="#ffffff" stroke="none" d="M 182 154 L 170 154 L 170 146 L 182 146 Z M 182 164 L 174 164 L 166 164 L 166 156 L 174 156 L 182 156 Z M 182 174 L 164 174 L 164 166 L 182 166 Z M 162 174 L 154 174 L 154 166 L 162 166 Z M 162 184 L 154 184 L 154 176 L 162 176 Z M 146 156 L 154 156 L 154 164 L 146 164 Z M 152 174 L 144 174 L 144 166 L 152 166 Z M 152 184 L 68 184 L 68 176 L 152 176 Z M 64 166 L 72 166 L 72 174 L 64 174 Z M 66 184 L 56 184 L 56 176 L 66 176 Z M 54 166 L 62 166 L 62 174 L 54 174 Z M 54 184 L 44 184 L 44 176 L 54 176 Z M 36 156 L 44 156 L 44 164 L 36 164 Z M 42 174 L 32 174 L 28 174 L 24 174 L 24 166 L 28 166 L 32 166 L 42 166 Z M 24 156 L 34 156 L 34 164 L 24 164 Z M 24 146 L 32 146 L 32 154 L 24 154 Z M 24 136 L 40 136 L 40 144 L 24 144 Z M 42 154 L 34 154 L 34 146 L 42 146 Z M 44 146 L 52 146 L 52 154 L 44 154 Z M 52 174 L 44 174 L 44 166 L 52 166 Z M 46 156 L 54 156 L 54 164 L 46 164 Z M 42 136 L 58 136 L 58 144 L 42 144 Z M 64 164 L 56 164 L 56 156 L 64 156 Z M 62 154 L 54 154 L 54 146 L 62 146 Z M 60 136 L 76 136 L 76 144 L 60 144 Z M 82 154 L 74 154 L 74 146 L 82 146 Z M 78 136 L 94 136 L 94 144 L 78 144 Z M 102 154 L 94 154 L 94 146 L 102 146 Z M 96 136 L 112 136 L 112 144 L 96 144 Z M 104 146 L 112 146 L 112 154 L 104 154 Z M 104 166 L 112 166 L 112 174 L 104 174 Z M 96 156 L 104 156 L 104 164 L 96 164 Z M 94 166 L 102 166 L 102 174 L 94 174 Z M 84 146 L 92 146 L 92 154 L 84 154 Z M 86 156 L 94 156 L 94 164 L 86 164 Z M 84 166 L 92 166 L 92 174 L 84 174 Z M 76 156 L 84 156 L 84 164 L 76 164 Z M 74 166 L 82 166 L 82 174 L 74 174 Z M 64 146 L 72 146 L 72 154 L 64 154 Z M 66 156 L 74 156 L 74 164 L 66 164 Z M 114 164 L 106 164 L 106 156 L 114 156 Z M 114 146 L 122 146 L 122 154 L 114 154 Z M 122 174 L 114 174 L 114 166 L 122 166 Z M 124 164 L 116 164 L 116 156 L 124 156 Z M 124 146 L 132 146 L 132 154 L 124 154 Z M 132 174 L 124 174 L 124 166 L 132 166 Z M 134 164 L 126 164 L 126 156 L 134 156 Z M 134 146 L 142 146 L 142 154 L 134 154 Z M 142 174 L 134 174 L 134 166 L 142 166 Z M 144 164 L 136 164 L 136 156 L 144 156 Z M 144 146 L 152 146 L 152 154 L 144 154 Z M 154 146 L 162 146 L 162 154 L 154 154 Z M 164 164 L 156 164 L 156 156 L 164 156 Z M 164 146 L 168 146 L 168 154 L 164 154 Z M 172 142 L 168 142 L 166 142 L 162 142 L 156 142 L 152 142 L 146 142 L 142 142 L 136 142 L 132 142 L 126 142 L 122 142 L 116 142 L 116 136 L 116 132 L 112 132 L 98 132 L 94 132 L 80 132 L 76 132 L 62 132 L 58 132 L 44 132 L 40 132 L 24 132 L 20 132 L 20 136 L 20 144 L 20 148 L 20 154 L 20 158 L 20 164 L 20 168 L 20 174 L 20 178 L 24 178 L 28 178 L 32 178 L 40 178 L 40 184 L 40 188 L 44 188 L 52 188 L 56 188 L 64 188 L 68 188 L 150 188 L 154 188 L 162 188 L 166 188 L 166 184 L 166 178 L 182 178 L 186 178 L 186 174 L 186 166 L 186 162 L 186 156 L 186 152 L 186 146 L 186 142 L 182 142 Z"/>
</svg>
