<?xml version="1.0" encoding="UTF-8"?>
<!-- Generated by Pixelmator Pro 3.7.1 -->
<svg width="256" height="256" viewBox="0 0 256 256" xmlns="http://www.w3.org/2000/svg">
    <path id="Path" fill="#ffffff" stroke="none" d="M 212 172.017609 C 212 172.639603 211.710007 173.226593 211.210999 173.599609 C 209.264008 175.058594 208 177.379608 208 179.999603 C 208 182.620605 209.264008 184.941589 211.210999 186.399597 C 211.710007 186.77359 212 187.360596 212 187.982605 L 212 221.999603 C 212 223.104599 211.104004 223.999603 210 223.999603 L 46 223.999603 C 44.895996 223.999603 44 223.104599 44 221.999603 L 44 29.999588 C 44 28.895599 44.895996 27.999588 46 27.999588 L 88 27.999588 L 168 27.999588 L 210 27.999588 C 211.104004 27.999588 212 28.895599 212 29.999588 Z M 212 241.999603 C 212 243.104599 211.104004 243.999603 210 243.999603 L 46 243.999603 C 44.895996 243.999603 44 243.104599 44 241.999603 L 44 229.999603 C 44 228.895599 44.895996 227.999603 46 227.999603 L 210 227.999603 C 211.104004 227.999603 212 228.895599 212 229.999603 Z M 100 15.999588 L 156 15.999588 C 160.410995 15.999588 164 19.588593 164 23.999588 L 92 23.999588 C 92 19.588593 95.588997 15.999588 100 15.999588 M 213.608002 176.802597 C 215.104996 175.68161 216 173.892609 216 172.017609 L 216 29.999588 C 216 26.691589 213.309006 23.999588 210 23.999588 L 168 23.999588 C 168 17.372589 162.626999 11.999588 156 11.999588 L 100 11.999588 C 93.373001 11.999588 88 17.372589 88 23.999588 L 46 23.999588 C 42.690994 23.999588 40 26.691589 40 29.999588 L 40 221.999603 C 40 223.537598 40.585999 224.937592 41.541 225.999603 C 40.585999 227.062592 40 228.462601 40 229.999603 L 40 241.999603 C 40 245.308594 42.690994 247.999603 46 247.999603 L 210 247.999603 C 213.309006 247.999603 216 245.308594 216 241.999603 L 216 229.999603 C 216 228.462601 215.414001 227.062592 214.459 225.999603 C 215.414001 224.937592 216 223.537598 216 221.999603 L 216 187.982605 C 216 186.107605 215.104996 184.318604 213.608002 183.197601 C 212.585999 182.432602 212 181.267609 212 179.999603 C 212 178.732605 212.585999 177.567596 213.608002 176.802597"/>
</svg>
