<?xml version="1.0" encoding="UTF-8"?>
<!-- Generated by Pixelmator Pro 3.7.1 -->
<svg width="256" height="256" viewBox="0 0 256 256" xmlns="http://www.w3.org/2000/svg">
    <path id="Path" fill="#ffffff" stroke="none" d="M 188 240 C 188 242.209 186.209 244 184 244 L 140 244 C 137.791 244 136 242.209 136 240 L 136 236 L 136 232 L 136 208 L 136 204 L 136 188 L 136 68 L 136 52 L 136 48 L 136 20 L 136 16 C 136 13.791 137.791 12 140 12 L 184 12 C 186.209 12 188 13.791 188 16 Z M 129 232 L 127 232 L 124 232 L 124 208 L 132 208 L 132 232 Z M 120 240 C 120 242.209 118.209 244 116 244 L 72 244 C 69.791 244 68 242.209 68 240 L 68 16 C 68 13.791 69.791 12 72 12 L 116 12 C 118.209 12 120 13.791 120 16 L 120 20 L 120 48 L 120 52 L 120 68 L 120 188 L 120 204 L 120 208 L 120 232 L 120 236 Z M 132 61.082993 C 130.820999 60.397995 129.458008 60 128 60 C 126.542 60 125.178001 60.397995 124 61.082993 L 124 52 L 132 52 Z M 124 194.917999 C 125.178001 195.602005 126.542 196 128 196 C 129.458008 196 130.820999 195.602005 132 194.917999 L 132 204 L 124 204 Z M 132 188 C 132 190.209 130.209 192 128 192 C 125.791 192 124 190.209 124 188 L 124 68 C 124 65.791 125.791 64 128 64 C 130.209 64 132 65.791 132 68 Z M 132 48 L 124 48 L 124 20 L 132 20 Z M 184 8 L 140 8 C 135.589005 8 132 11.589005 132 16 L 124 16 C 124 11.589005 120.411003 8 116 8 L 72 8 C 67.588997 8 64 11.589005 64 16 L 64 240 C 64 244.410995 67.588997 248 72 248 L 116 248 C 120.411003 248 124 244.410995 124 240 L 124 236 L 126 236 L 126 238 C 126 239.104004 126.895996 240 128 240 C 129.104004 240 130 239.104004 130 238 L 130 236 L 132 236 L 132 240 C 132 244.410995 135.589005 248 140 248 L 184 248 C 188.410995 248 192 244.410995 192 240 L 192 16 C 192 11.589005 188.410995 8 184 8"/>
    <path id="path1" fill="#ffffff" stroke="none" d="M 72 170.076202 L 116 214.076202 L 116 208.419189 L 72 164.419189 Z"/>
    <path id="path2" fill="#ffffff" stroke="none" d="M 72 192.703094 L 103.295998 224.000107 L 108.953003 224.000107 L 72 187.047089 Z"/>
    <path id="path3" fill="#ffffff" stroke="none" d="M 72 158.762695 L 116 202.762695 L 116 197.105698 L 72 153.105698 Z"/>
    <path id="path4" fill="#ffffff" stroke="none" d="M 72 147.448196 L 116 191.448196 L 116 185.792206 L 72 141.792206 Z"/>
    <path id="path5" fill="#ffffff" stroke="none" d="M 72 136.134796 L 116 180.134796 L 116 174.478806 L 72 130.47879 Z"/>
    <path id="path6" fill="#ffffff" stroke="none" d="M 72 204.017609 L 91.983002 223.999603 L 97.639999 223.999603 L 72 198.360596 Z"/>
    <path id="path7" fill="#ffffff" stroke="none" d="M 72 181.389603 L 114.610001 223.999603 L 116 223.999603 L 116 219.733597 L 72 175.733597 Z"/>
    <path id="path8" fill="#ffffff" stroke="none" d="M 72 124.821304 L 116 168.821289 L 116 163.164307 L 72 119.164307 Z"/>
    <path id="path9" fill="#ffffff" stroke="none" d="M 116 21.743195 L 116 20.000198 L 114.257004 20.000198 Z"/>
    <path id="path10" fill="#ffffff" stroke="none" d="M 72 224 L 75.012001 224 L 72 220.988007 Z"/>
    <path id="path11" fill="#ffffff" stroke="none" d="M 72 215.3311 L 80.668999 224.000092 L 86.326004 224.000092 L 72 209.674103 Z"/>
    <path id="path12" fill="#ffffff" stroke="none" d="M 72 79.566406 L 116 123.566406 L 116 117.909393 L 72 73.909393 Z"/>
    <path id="path13" fill="#ffffff" stroke="none" d="M 72 20 L 72 22.998001 L 116 66.998001 L 116 61.341003 L 74.658997 20 Z"/>
    <path id="path14" fill="#ffffff" stroke="none" d="M 80.315903 20 L 115.999901 55.68399 L 115.999901 50.027008 L 85.9729 20 Z"/>
    <path id="path15" fill="#ffffff" stroke="none" d="M 102.943398 20 L 116.000397 33.057007 L 116.000397 27.399994 L 108.600403 20 Z"/>
    <path id="path16" fill="#ffffff" stroke="none" d="M 91.629402 20 L 116.000397 44.371002 L 116.000397 38.714005 L 97.2864 20 Z"/>
    <path id="path17" fill="#ffffff" stroke="none" d="M 72 34.311493 L 116 78.311493 L 116 72.654495 L 72 28.654495 Z"/>
    <path id="path18" fill="#ffffff" stroke="none" d="M 72 56.938995 L 116 100.938995 L 116 95.281998 L 72 51.281998 Z"/>
    <path id="path19" fill="#ffffff" stroke="none" d="M 72 90.879898 L 116 134.879898 L 116 129.223907 L 72 85.2229 Z"/>
    <path id="path20" fill="#ffffff" stroke="none" d="M 72 45.625504 L 116 89.625504 L 116 83.968506 L 72 39.968506 Z"/>
    <path id="path21" fill="#ffffff" stroke="none" d="M 72 102.193802 L 116 146.193802 L 116 140.536804 L 72 96.536804 Z"/>
    <path id="path22" fill="#ffffff" stroke="none" d="M 72 68.252899 L 116 112.252899 L 116 106.595901 L 72 62.595901 Z"/>
    <path id="path23" fill="#ffffff" stroke="none" d="M 72 113.507797 L 116 157.507797 L 116 151.8508 L 72 107.8508 Z"/>
    <path id="path24" fill="#ffffff" stroke="none" d="M 140 170.076202 L 184 214.076202 L 184 208.419189 L 140 164.419189 Z"/>
    <path id="path25" fill="#ffffff" stroke="none" d="M 140 158.762695 L 184 202.762695 L 184 197.105698 L 140 153.105698 Z"/>
    <path id="path26" fill="#ffffff" stroke="none" d="M 140 147.448196 L 184 191.448196 L 184 185.792206 L 140 141.792206 Z"/>
    <path id="path27" fill="#ffffff" stroke="none" d="M 140 124.821304 L 184 168.821289 L 184 163.164307 L 140 119.164307 Z"/>
    <path id="path28" fill="#ffffff" stroke="none" d="M 140 136.134796 L 184 180.134796 L 184 174.478806 L 140 130.47879 Z"/>
    <path id="path29" fill="#ffffff" stroke="none" d="M 151.936493 199.366196 C 151.969498 199.574203 151.999496 199.783203 151.999496 200.000198 C 151.999496 200.245209 151.969498 200.4832 151.927505 200.716202 C 151.918503 200.764191 151.912506 200.814209 151.901505 200.861206 C 151.856506 201.065201 151.792496 201.2612 151.718506 201.451202 C 151.686493 201.531204 151.652496 201.6082 151.616501 201.685196 C 151.558502 201.807205 151.492493 201.924194 151.423492 202.0392 C 151.335495 202.184204 151.240494 202.325195 151.134506 202.458191 C 151.100494 202.501205 151.065506 202.542206 151.030502 202.584198 C 150.8535 202.7892 150.658493 202.979202 150.443497 203.146194 C 149.765503 203.674194 148.9245 204.000198 147.999496 204.000198 C 145.790497 204.000198 143.999496 202.209198 143.999496 200.000198 C 143.999496 199.075195 144.326492 198.234192 144.8535 197.556198 C 145.020493 197.343201 145.210495 197.147202 145.415497 196.9702 C 145.457504 196.934204 145.499496 196.8992 145.542496 196.865204 C 145.6745 196.760193 145.815506 196.6642 145.959503 196.576202 C 146.076492 196.508209 146.192505 196.441193 146.314499 196.384201 C 146.391495 196.347198 146.468506 196.313202 146.547501 196.281204 C 146.739502 196.207199 146.934494 196.143204 147.138504 196.098206 C 147.185501 196.088196 147.235504 196.081207 147.283493 196.072205 C 147.516495 196.030197 147.754501 196.000198 147.999496 196.000198 C 148.216507 196.000198 148.425507 196.030197 148.633499 196.063202 C 148.804504 196.0952 148.972504 196.135193 149.137497 196.183197 C 150.425507 196.568207 151.431503 197.574203 151.816498 198.862198 C 151.865494 199.027191 151.904495 199.195206 151.936493 199.366196 M 151.999496 216.000198 C 151.999496 216.006195 151.998505 216.010193 151.998505 216.015198 C 151.992493 217.546204 151.119507 218.8582 149.851501 219.525208 C 149.6465 219.634201 149.428497 219.7202 149.206497 219.795197 C 149.114502 219.824203 149.023499 219.8582 148.928497 219.881195 C 148.842499 219.902191 148.754501 219.917206 148.666504 219.932205 C 148.449493 219.9702 148.2285 220.000198 147.999496 220.000198 C 147.723495 220.000198 147.454498 219.971191 147.193497 219.919205 C 146.672501 219.812195 146.189499 219.604202 145.763504 219.316193 C 145.550507 219.173203 145.352493 219.010193 145.171494 218.828201 C 144.809494 218.467194 144.516495 218.035202 144.314499 217.556198 C 144.112503 217.078201 143.999496 216.553192 143.999496 216.000198 C 143.999496 215.77121 144.030502 215.551208 144.067505 215.333191 C 144.082504 215.245209 144.097504 215.157196 144.119507 215.072205 C 144.142502 214.975204 144.176498 214.885193 144.206497 214.791199 C 144.280502 214.569199 144.366501 214.353195 144.473495 214.1492 C 145.141495 212.882202 146.454498 212.008209 147.984497 212.002197 C 147.990494 212.002197 147.994507 212.000198 147.999496 212.000198 C 150.208496 212.000198 151.999496 213.791199 151.999496 216.000198 M 139.999496 181.389191 L 151.360504 192.750198 C 150.336502 192.273193 149.201508 192.000198 147.999496 192.000198 C 147.087494 192.000198 146.213501 192.161194 145.3965 192.443207 L 139.999496 187.047211 L 139.999496 192.703201 L 142.010498 194.715195 C 141.078506 195.769196 140.417496 197.068207 140.145493 198.506195 L 139.999496 198.360199 L 139.999496 204.017197 L 144.702499 208.7202 C 143.456497 209.286194 142.383499 210.163208 141.577499 211.251205 L 139.999496 209.674194 L 139.999496 215.331207 L 140.032501 215.363205 C 140.015503 215.574203 139.999496 215.785202 139.999496 216.000198 C 139.999496 220.411194 143.588501 224.000198 147.999496 224.000198 C 148.214493 224.000198 148.425507 223.984192 148.636505 223.968201 L 148.668503 224.000198 L 154.326508 224.000198 L 152.748505 222.423203 C 153.836502 221.616196 154.713501 220.544205 155.280502 219.298203 L 159.982498 224.000198 L 165.639496 224.000198 L 155.770493 214.131195 C 155.070496 211.2202 152.779495 208.929199 149.869507 208.229202 L 149.494507 207.854202 C 150.931503 207.582199 152.230499 206.922195 153.285507 205.989197 L 171.296494 224.000198 L 176.953506 224.000198 L 155.556503 202.603195 C 155.838501 201.786194 155.999496 200.912201 155.999496 200.000198 C 155.999496 198.799194 155.726501 197.663208 155.249496 196.639191 L 182.610504 224.000198 L 183.999496 224.000198 L 183.999496 219.7332 L 139.999496 175.7332 Z"/>
    <path id="path30" fill="#ffffff" stroke="none" d="M 140 224 L 143.011993 224 L 140 220.988007 Z"/>
    <path id="path31" fill="#ffffff" stroke="none" d="M 140 113.507797 L 184 157.507797 L 184 151.8508 L 140 107.8508 Z"/>
    <path id="path32" fill="#ffffff" stroke="none" d="M 140 34.311493 L 184 78.311493 L 184 72.654495 L 140 28.654495 Z"/>
    <path id="path33" fill="#ffffff" stroke="none" d="M 159.629898 20 L 183.999908 44.371002 L 183.999908 38.714005 L 165.285904 20 Z"/>
    <path id="path34" fill="#ffffff" stroke="none" d="M 148.315399 20 L 184.000397 55.68399 L 184.000397 50.027008 L 153.972397 20 Z"/>
    <path id="path35" fill="#ffffff" stroke="none" d="M 170.943405 20 L 184.000397 33.057007 L 184.000397 27.399994 L 176.599396 20 Z"/>
    <path id="path36" fill="#ffffff" stroke="none" d="M 140 20 L 140 22.998001 L 184 66.998001 L 184 61.341003 L 142.658997 20 Z"/>
    <path id="path37" fill="#ffffff" stroke="none" d="M 184 21.743195 L 184 20.000198 L 182.257004 20.000198 Z"/>
    <path id="path38" fill="#ffffff" stroke="none" d="M 140 45.625504 L 184 89.625504 L 184 83.968506 L 140 39.968506 Z"/>
    <path id="path39" fill="#ffffff" stroke="none" d="M 140 79.566406 L 184 123.566406 L 184 117.909393 L 140 73.909393 Z"/>
    <path id="path40" fill="#ffffff" stroke="none" d="M 140 102.193802 L 184 146.193802 L 184 140.536804 L 140 96.536804 Z"/>
    <path id="path41" fill="#ffffff" stroke="none" d="M 140 90.879898 L 184 134.879898 L 184 129.223907 L 140 85.2229 Z"/>
    <path id="path42" fill="#ffffff" stroke="none" d="M 140 68.252899 L 184 112.252899 L 184 106.595901 L 140 62.595901 Z"/>
    <path id="path43" fill="#ffffff" stroke="none" d="M 140 56.938995 L 184 100.938995 L 184 95.281998 L 140 51.281998 Z"/>
</svg>
