<?xml version="1.0" encoding="UTF-8"?>
<!-- Generated by Pixelmator Pro 3.7.1 -->
<svg width="256" height="256" viewBox="0 0 256 256" xmlns="http://www.w3.org/2000/svg">
    <path id="Path" fill="#ffffff" stroke="none" d="M 128 156 C 112.560997 156 100 143.438995 100 128 C 100 112.561005 112.560997 100 128 100 C 143.438995 100 156 112.561005 156 128 C 156 143.438995 143.438995 156 128 156 M 248 8 L 244 8 L 12 8 L 8 8 L 8 12 L 8 240 C 8 244.411011 11.588997 248 16 248 L 100 248 L 104 248 L 104 244 L 104 248 L 108 248 L 148 248 L 152 248 L 152 244 L 152 248 L 156 248 L 240 248 C 244.411011 248 248 244.411011 248 240 L 248 12 Z M 128 160 C 145.673004 160 160 145.673004 160 128 C 160 110.326996 145.673004 96 128 96 C 110.326996 96 96 110.326996 96 128 C 96 145.673004 110.326996 160 128 160 M 244 12 L 244 240 C 244 242.209 242.209 244 240 244 L 156 244 C 156 241.791 154.209 240 152 240 C 149.791 240 148 241.791 148 244 L 108 244 C 108 241.791 106.209 240 104 240 C 101.791 240 100 241.791 100 244 L 16 244 C 13.791 244 12 242.209 12 240 L 12 12 L 244 12"/>
    <path id="path1" fill="#ffffff" stroke="none" d="M 228 20 L 28 20 C 23.589005 20 20 23.589005 20 28 L 20 72 C 20 76.410995 23.589005 80 28 80 L 228 80 C 232.410995 80 236 76.410995 236 72 L 236 28 C 236 23.589005 232.410995 20 228 20 M 228 24 C 230.209 24 232 25.791 232 28 L 232 72 C 232 74.209 230.209 76 228 76 L 28 76 C 25.791 76 24 74.209 24 72 L 24 28 C 24 25.791 25.791 24 28 24 L 228 24"/>
    <path id="path2" fill="#ffffff" stroke="none" d="M 128 172 C 119.178001 172 112 179.178009 112 188 L 112 224 C 112 232.821991 119.178001 240 128 240 C 136.822006 240 144 232.821991 144 224 L 144 188 C 144 179.178009 136.822006 172 128 172 M 128 176 C 134.626999 176 140 181.373001 140 188 L 140 224 C 140 230.626999 134.626999 236 128 236 C 121.373001 236 116 230.626999 116 224 L 116 188 C 116 181.373001 121.373001 176 128 176"/>
    <path id="path3" fill="#ffffff" stroke="none" d="M 170 128 C 164.485992 128 160 132.485992 160 138 C 160 143.514008 164.485992 148 170 148 C 175.514008 148 180 143.514008 180 138 C 180 132.485992 175.514008 128 170 128 M 170 132 C 173.313004 132 176 134.686996 176 138 C 176 141.313004 173.313004 144 170 144 C 166.686996 144 164 141.313004 164 138 C 164 134.686996 166.686996 132 170 132"/>
    <path id="path4" fill="#ffffff" stroke="none" d="M 128 104 C 114.745003 104 104 114.744995 104 128 C 104 141.255005 114.745003 152 128 152 C 141.255005 152 152 141.255005 152 128 C 152 114.744995 141.255005 104 128 104 M 128 108 C 139.028 108 148 116.972 148 128 C 148 139.028 139.028 148 128 148 C 116.972 148 108 139.028 108 128 C 108 116.972 116.972 108 128 108"/>
</svg>
