<?xml version="1.0" encoding="UTF-8"?>
<!-- Generated by Pixelmator Pro 3.7.1 -->
<svg width="256" height="256" viewBox="0 0 256 256" xmlns="http://www.w3.org/2000/svg">
    <path id="Path" fill="#ffffff" stroke="none" d="M 82 124 C 76.486 124 72 119.514008 72 114 C 72 108.485992 76.486 104 82 104 C 87.514 104 92 108.485992 92 114 C 92 119.514008 87.514 124 82 124 M 82 100 C 74.272003 100 68 106.266998 68 114 C 68 121.733002 74.272003 128 82 128 C 89.727997 128 96 121.733002 96 114 C 96 106.266998 89.727997 100 82 100"/>
    <path id="path1" fill="#ffffff" stroke="none" d="M 174 124 C 168.485992 124 164 119.514008 164 114 C 164 108.485992 168.485992 104 174 104 C 179.514008 104 184 108.485992 184 114 C 184 119.514008 179.514008 124 174 124 M 174 100 C 166.272003 100 160 106.266998 160 114 C 160 121.731995 166.272003 128 174 128 C 181.727997 128 188 121.731995 188 114 C 188 106.266998 181.727997 100 174 100"/>
    <path id="path2" fill="#ffffff" stroke="none" d="M 244 191.52951 C 244 196.205505 240.151001 200.000504 235.406998 200.000504 L 209.630005 200.000504 L 208.087997 200.000504 L 207.914001 199.173492 L 203.763 179.510498 C 203.531006 175.782501 200.666992 172.000504 195.542999 172.000504 L 60.444 172.000504 C 55.328003 172.000504 52.468994 175.782501 52.237 179.510498 L 48.085999 199.173492 L 47.912003 200.000504 L 46.369995 200.000504 L 20.593002 200.000504 C 15.848999 200.000504 12 196.205505 12 191.52951 L 12 64.470505 C 12 59.794495 15.848999 56.000488 20.593002 56.000488 L 235.406998 56.000488 C 240.151001 56.000488 244 59.794495 244 64.470505 Z M 184 200.000504 L 72 200.000504 L 52 200.000504 L 56.222 180.000488 C 56.222 180.000488 56.222 176.000488 60.444 176.000488 L 128 176.000488 L 195.542999 176.000488 C 199.778 176.000488 199.778 180.000488 199.778 180.000488 L 204 200.000504 Z M 235.406998 52.000488 L 20.593002 52.000488 C 13.649002 52.000488 8 57.594498 8 64.470505 L 8 191.52951 C 8 198.405502 13.649002 204.000504 20.593002 204.000504 L 46.369995 204.000504 L 47.067001 204.000504 L 52 204.000504 L 204 204.000504 L 208.932999 204.000504 L 209.630005 204.000504 L 235.406998 204.000504 C 242.350998 204.000504 248 198.405502 248 191.52951 L 248 64.470505 C 248 57.594498 242.350998 52.000488 235.406998 52.000488"/>
    <path id="path3" fill="#ffffff" stroke="none" d="M 232 147.199997 C 232 152.057999 228.117004 156 223.333008 156 L 32.667007 156 C 27.882996 156 24 152.057999 24 147.199997 L 24 76.800003 L 32.667007 68 L 223.333008 68 L 232 76.800003 Z M 226.182999 65.192993 L 225.007996 64 L 223.333008 64 L 32.667007 64 L 30.992004 64 L 29.817001 65.192993 L 21.149994 73.992996 L 20 75.160995 L 20 76.800003 L 20 147.199997 C 20 154.257996 25.682007 160 32.667007 160 L 223.333008 160 C 230.317993 160 236 154.257996 236 147.199997 L 236 76.800003 L 236 75.160995 L 234.850006 73.992996 Z"/>
    <path id="path4" fill="#ffffff" stroke="none" d="M 72 196 C 69.788002 196 68 194.212006 68 192 C 68 189.787994 69.788002 188 72 188 C 74.211998 188 76 189.787994 76 192 C 76 194.212006 74.211998 196 72 196 M 80 192 C 80 187.588989 76.411003 184 72 184 C 67.588997 184 64 187.588989 64 192 C 64 196.410995 67.588997 200 72 200 C 76.411003 200 80 196.410995 80 192"/>
    <path id="path5" fill="#ffffff" stroke="none" d="M 92 192 C 89.788002 192 88 190.212006 88 188 C 88 185.787994 89.788002 184 92 184 C 94.211998 184 96 185.787994 96 188 C 96 190.212006 94.211998 192 92 192 M 92 180 C 87.588997 180 84 183.588989 84 188 C 84 192.410995 87.588997 196 92 196 C 96.411003 196 100 192.410995 100 188 C 100 183.588989 96.411003 180 92 180"/>
    <path id="path6" fill="#ffffff" stroke="none" d="M 128 180 C 130.212006 180 132 181.787994 132 184 C 132 186.212006 130.212006 188 128 188 C 125.788002 188 124 186.212006 124 184 C 124 181.787994 125.788002 180 128 180 M 120 184 C 120 188.411011 123.588997 192 128 192 C 132.410995 192 136 188.411011 136 184 C 136 179.588989 132.410995 176 128 176 C 123.588997 176 120 179.588989 120 184"/>
    <path id="path7" fill="#ffffff" stroke="none" d="M 164 192 C 161.787994 192 160 190.212006 160 188 C 160 185.787994 161.787994 184 164 184 C 166.212006 184 168 185.787994 168 188 C 168 190.212006 166.212006 192 164 192 M 164 180 C 159.589005 180 156 183.588989 156 188 C 156 192.410995 159.589005 196 164 196 C 168.410995 196 172 192.410995 172 188 C 172 183.588989 168.410995 180 164 180"/>
    <path id="path8" fill="#ffffff" stroke="none" d="M 184 196 C 181.787994 196 180 194.212006 180 192 C 180 189.787994 181.787994 188 184 188 C 186.212006 188 188 189.787994 188 192 C 188 194.212006 186.212006 196 184 196 M 192 192 C 192 187.588989 188.410995 184 184 184 C 179.589005 184 176 187.588989 176 192 C 176 196.410995 179.589005 200 184 200 C 188.410995 200 192 196.410995 192 192"/>
    <path id="path9" fill="#ffffff" stroke="none" d="M 192 114 C 192 123.899994 183.899994 132 174 132 L 82 132 C 72.099998 132 64 123.899994 64 114 L 64 114 C 64 104.100006 72.099998 96 82 96 L 174 96 C 183.899994 96 192 104.100006 192 114 Z M 174 92 L 82 92 C 69.869003 92 60 101.869003 60 114 C 60 126.130997 69.869003 136 82 136 L 174 136 C 186.130997 136 196 126.130997 196 114 C 196 101.869003 186.130997 92 174 92"/>
    <path id="path10" fill="#ffffff" stroke="none" d="M 156.000107 120.666595 C 156.000107 122.509598 154.5811 123.999603 152.000107 123.999603 L 112.709099 123.999603 C 114.6521 120.815598 115.6511 117.463593 115.6511 113.999603 C 115.6511 110.536606 114.6521 107.184601 112.709099 103.999603 L 152.000107 103.999603 C 154.5811 103.999603 156.000107 105.489594 156.000107 107.333603 Z M 104.667099 123.999603 C 102.086098 123.999603 100.000099 122.509598 100.000099 120.666595 L 100.000099 107.333603 C 100.000099 105.489594 102.086098 103.999603 104.667099 103.999603 L 108.298103 103.999603 C 110.650101 107.044601 112.000099 110.424606 112.000099 113.999603 C 112.000099 117.575607 110.650101 120.955597 108.298103 123.999603 Z M 152.000107 100.348602 L 110.092102 100.348602 L 108.298103 100.348602 L 104.667099 100.348602 L 104.000099 100.348602 C 100.4701 100.348602 96.348099 102.177597 96.348099 107.333603 L 96.348099 120.666595 C 96.348099 125.822601 100.4701 127.651596 104.000099 127.651596 L 104.667099 127.651596 L 108.298103 127.651596 L 110.092102 127.651596 L 152.000107 127.651596 C 156.434097 127.651596 159.651093 124.713593 159.651093 120.666595 L 159.651093 107.333603 C 159.651093 103.285599 156.434097 100.348602 152.000107 100.348602"/>
</svg>
