<?xml version="1.0" encoding="UTF-8"?>
<!-- Generated by Pixelmator Pro 3.7.1 -->
<svg width="256" height="256" viewBox="0 0 256 256" xmlns="http://www.w3.org/2000/svg">
    <path id="Path" fill="#ffffff" stroke="none" d="M 244 212 L 12 212 L 12 117 C 12 114.238998 14.238998 112 17 112 L 239 112 C 241.761993 112 244 114.238998 244 117 Z M 244 109.522003 C 242.567993 108.561996 240.848999 108 239 108 L 17 108 C 15.151001 108 13.431 108.561996 12 109.522003 L 12 72 L 244 72 Z M 12 44 L 244 44 L 244 68 L 12 68 Z M 244 40 L 12 40 L 8 40 L 8 44 L 8 68 L 8 72 L 8 117 L 8 212 L 8 216 L 12 216 L 244 216 L 248 216 L 248 212 L 248 117 L 248 72 L 248 68 L 248 44 L 248 40 Z"/>
    <path id="path1" fill="#ffffff" stroke="none" d="M 232 200 L 202.320999 200 L 202.320999 188 L 232 188 Z M 182.561005 188 L 198.082001 188 L 198.082001 200 L 182.561005 200 Z M 162.800995 188 L 178.322006 188 L 178.322006 200 L 162.800995 200 Z M 143.041 188 L 158.561005 188 L 158.561005 200 L 143.041 200 Z M 123.279999 188 L 138.800995 188 L 138.800995 200 L 123.279999 200 Z M 103.521004 188 L 119.041 188 L 119.041 200 L 103.521004 200 Z M 83.760002 188 L 99.279999 188 L 99.279999 200 L 83.760002 200 Z M 64 188 L 79.521004 188 L 79.521004 200 L 64 200 Z M 44.240002 188 L 59.761002 188 L 59.761002 200 L 44.240002 200 Z M 24.24 188 L 40 188 L 40 200 L 24.24 200 Z M 20 128 L 36 128 L 36 140 L 20 140 Z M 40 128 L 56 128 L 56 140 L 40 140 Z M 60 128 L 76 128 L 76 140 L 60 140 Z M 80 128 L 96 128 L 96 140 L 80 140 Z M 100 128 L 116 128 L 116 140 L 100 140 Z M 120 128 L 136 128 L 136 140 L 120 140 Z M 140 128 L 156 128 L 156 140 L 140 140 Z M 160 128 L 176 128 L 176 140 L 160 140 Z M 180 128 L 196 128 L 196 140 L 180 140 Z M 200 128 L 216 128 L 216 140 L 200 140 Z M 216 168 L 232 168 L 232 180 L 216 180 Z M 196 168 L 212 168 L 212 180 L 196 180 Z M 176 168 L 192 168 L 192 180 L 176 180 Z M 156 168 L 172 168 L 172 180 L 156 180 Z M 136 168 L 152 168 L 152 180 L 136 180 Z M 116 168 L 132 168 L 132 180 L 116 180 Z M 96 168 L 112 168 L 112 180 L 96 180 Z M 76 168 L 92 168 L 92 180 L 76 180 Z M 56 168 L 72 168 L 72 180 L 56 180 Z M 48 160 L 32 160 L 32 148 L 48 148 Z M 68 160 L 52 160 L 52 148 L 68 148 Z M 88 160 L 72 160 L 72 148 L 88 148 Z M 108 160 L 92 160 L 92 148 L 108 148 Z M 128 160 L 112 160 L 112 148 L 128 148 Z M 148 160 L 132 160 L 132 148 L 148 148 Z M 168 160 L 152 160 L 152 148 L 168 148 Z M 188 160 L 172 160 L 172 148 L 188 148 Z M 208 160 L 192 160 L 192 148 L 208 148 Z M 36 168 L 52 168 L 52 180 L 36 180 Z M 228 160 L 212 160 L 212 148 L 228 148 Z M 232 160 L 232 148 L 232 144 L 228 144 L 220 144 L 220 140 L 220 128 L 220 124 L 216 124 L 200 124 L 196 124 L 180 124 L 176 124 L 160 124 L 156 124 L 140 124 L 136 124 L 120 124 L 116 124 L 100 124 L 96 124 L 80 124 L 76 124 L 60 124 L 56 124 L 40 124 L 36 124 L 20 124 L 16 124 L 16 128 L 16 140 L 16 144 L 20 144 L 28 144 L 28 148 L 28 160 L 28 164 L 32 164 L 32 168 L 32 180 L 32 184 L 24.24 184 L 20.24 184 L 20.24 188 L 20.24 200 L 20.24 204 L 24.24 204 L 40 204 L 40.240002 204 L 44 204 L 44.240002 204 L 59.759998 204 L 60 204 L 63.759998 204 L 64 204 L 79.521004 204 L 79.760002 204 L 83.521004 204 L 83.760002 204 L 99.279999 204 L 99.521004 204 L 103.279999 204 L 103.521004 204 L 119.041 204 L 119.279999 204 L 123.041 204 L 123.279999 204 L 138.800995 204 L 139.041 204 L 142.800995 204 L 143.041 204 L 158.561005 204 L 158.800995 204 L 162.561005 204 L 162.800995 204 L 178.320999 204 L 178.561005 204 L 182.320999 204 L 182.561005 204 L 198.080994 204 L 198.320999 204 L 202.080994 204 L 202.320999 204 L 232 204 L 236 204 L 236 200 L 236 188 L 236 184 L 236 180 L 236 168 L 236 164 L 232 164 Z"/>
</svg>
