<?xml version="1.0" encoding="UTF-8"?>
<!-- Generated by Pixelmator Pro 3.7.1 -->
<svg width="256" height="256" viewBox="0 0 256 256" xmlns="http://www.w3.org/2000/svg">
    <path id="Path" fill="#ffffff" stroke="none" d="M 244 112 L 188 112 L 12 112 L 12 108 L 180 108 L 180 104 L 12 104 L 12 86 C 12 84.895996 12.895996 84 14 84 L 16 84 L 16 88 L 20 88 L 20 84 L 24 84 L 24 88 L 28 88 L 28 84 L 32 84 L 32 88 L 36 88 L 36 84 L 40 84 L 40 88 L 44 88 L 44 84 L 48 84 L 48 88 L 52 88 L 52 84 L 56 84 L 56 88 L 60 88 L 60 84 L 64 84 L 64 88 L 68 88 L 68 84 L 72 84 L 72 88 L 76 88 L 76 84 L 80 84 L 80 88 L 84 88 L 84 84 L 88 84 L 88 88 L 92 88 L 92 84 L 96 84 L 96 88 L 100 88 L 100 84 L 104 84 L 104 88 L 108 88 L 108 84 L 112 84 L 112 88 L 116 88 L 116 84 L 120 84 L 120 88 L 124 88 L 124 84 L 128 84 L 128 88 L 132 88 L 132 84 L 136 84 L 136 88 L 140 88 L 140 84 L 144 84 L 144 88 L 148 88 L 148 84 L 152 84 L 152 88 L 156 88 L 156 84 L 160 84 L 160 88 L 164 88 L 164 84 L 168 84 L 168 88 L 172 88 L 172 84 L 176 84 L 176 88 L 180 88 L 180 84 L 184 84 L 184 88 L 188 88 L 188 84 L 192 84 L 192 88 L 196 88 L 196 84 L 200 84 L 200 88 L 204 88 L 204 84 L 208 84 L 208 88 L 212 88 L 212 84 L 216 84 L 216 88 L 220 88 L 220 84 L 224 84 L 224 88 L 228 88 L 228 84 L 232 84 L 232 88 L 236 88 L 236 84 L 240 84 L 240 88 L 244 88 Z M 244 120 L 240 120 L 240 124 L 244 124 L 244 128 L 240 128 L 240 132 L 244 132 L 244 136 L 240 136 L 240 140 L 244 140 L 244 144 L 240 144 L 240 148 L 244 148 L 244 152 L 240 152 L 240 156 L 244 156 L 244 160 L 240 160 L 240 164 L 244 164 L 244 170 C 244 171.104004 243.104004 172 242 172 L 188 172 L 188 164 L 192 164 L 192 160 L 188 160 L 188 156 L 192 156 L 192 152 L 188 152 L 188 148 L 192 148 L 192 144 L 188 144 L 188 140 L 192 140 L 192 136 L 188 136 L 188 132 L 192 132 L 192 128 L 188 128 L 188 124 L 192 124 L 192 120 L 188 120 L 188 116 L 244 116 Z M 176 172 L 176 168 L 176 159.925003 L 176 155.925003 L 176 135.925003 L 176 131.925003 L 176 124 L 176 120 L 172 120 L 160 120 L 156 120 L 148 120 L 144 120 L 136 120 L 132 120 L 124 120 L 120 120 L 112 120 L 108 120 L 100 120 L 96 120 L 88 120 L 84 120 L 76 120 L 72 120 L 64 120 L 60 120 L 52 120 L 48 120 L 40 120 L 36 120 L 36 124 L 36 132 L 36 136 L 36 144 L 36 148 L 36 155.925003 L 36 156 L 36 159.925003 L 36 160 L 36 168.074997 L 36 172 L 14 172 C 12.895996 172 12 171.104004 12 170 L 12 164 L 32 164 L 32 160 L 12 160 L 12 156 L 32 156 L 32 152 L 12 152 L 12 148 L 32 148 L 32 144 L 12 144 L 12 140 L 32 140 L 32 136 L 12 136 L 12 132 L 32 132 L 32 128 L 12 128 L 12 124 L 32 124 L 32 120 L 12 120 L 12 116 L 184 116 L 184 120 L 180 120 L 180 124 L 184 124 L 184 128 L 180 128 L 180 132 L 184 132 L 184 136 L 180 136 L 180 140 L 184 140 L 184 144 L 180 144 L 180 148 L 184 148 L 184 152 L 180 152 L 180 156 L 184 156 L 184 160 L 180 160 L 180 164 L 184 164 L 184 172 Z M 40 160 L 48 160 L 48 168 L 48 168.074997 L 40 168.074997 Z M 60 132 L 52 132 L 52 124 L 60 124 Z M 64 144 L 56 144 L 56 136 L 64 136 Z M 52 160 L 52 159.925003 L 60 159.925003 L 60 168 L 52 168 Z M 40 147.850998 L 56 147.850998 L 56 155.925003 L 40 155.925003 Z M 68 155.925003 L 60 155.925003 L 60 147.925003 L 68 147.925003 Z M 72 132 L 64 132 L 64 124 L 72 124 Z M 72 167.925003 L 64 167.925003 L 64 159.850998 L 72 159.850998 Z M 76 144 L 68 144 L 68 136 L 76 136 Z M 80 155.925003 L 72 155.925003 L 72 147.925003 L 80 147.925003 Z M 84 132 L 76 132 L 76 124 L 84 124 Z M 88 144 L 80 144 L 80 136 L 88 136 Z M 84 167.850998 L 76 167.850998 L 76 159.776001 L 84 159.776001 Z M 92 155.925003 L 84 155.925003 L 84 147.925003 L 92 147.925003 Z M 96 132 L 88 132 L 88 124 L 96 124 Z M 100 144 L 92 144 L 92 136 L 100 136 Z M 104 155.925003 L 96 155.925003 L 96 147.925003 L 104 147.925003 Z M 108 132 L 100 132 L 100 124 L 108 124 Z M 112 144 L 104 144 L 104 136 L 112 136 Z M 116 155.925003 L 108 155.925003 L 108 147.925003 L 116 147.925003 Z M 120 132 L 112 132 L 112 124 L 120 124 Z M 124 144 L 116 144 L 116 136 L 124 136 Z M 128 155.925003 L 120 155.925003 L 120 147.925003 L 128 147.925003 Z M 132 132 L 124 132 L 124 124 L 132 124 Z M 136 144 L 128 144 L 128 136 L 136 136 Z M 136 168.074997 L 128 168.074997 L 128 160 L 136 160 Z M 88 159.925003 L 124 159.925003 L 124 168 L 88 168 Z M 140 155.925003 L 132 155.925003 L 132 147.925003 L 140 147.925003 Z M 144 132 L 136 132 L 136 124 L 144 124 Z M 148 144 L 140 144 L 140 136 L 148 136 Z M 148 168 L 140 168 L 140 159.925003 L 148 159.925003 Z M 152 155.925003 L 144 155.925003 L 144 147.925003 L 152 147.925003 Z M 156 132 L 148 132 L 148 124 L 156 124 Z M 160 143.925003 L 152 143.925003 L 152 135.925003 L 160 135.925003 Z M 160 168 L 152 168 L 152 159.925003 L 160 159.925003 Z M 164 147.925003 L 164 135.925003 L 172 135.925003 L 172 155.925003 L 164 155.925003 L 156 155.925003 L 156 147.925003 Z M 172 132 L 160 132 L 160 124 L 172 124 Z M 172 168 L 164 168 L 164 159.925003 L 172 159.925003 Z M 40 124 L 48 124 L 48 132 L 40 132 Z M 48 136 L 52 136 L 52 144 L 40 144 L 40 136 Z M 244 84 L 244 80 L 240 80 L 236 80 L 232 80 L 228 80 L 224 80 L 220 80 L 216 80 L 212 80 L 208 80 L 204 80 L 200 80 L 196 80 L 192 80 L 188 80 L 184 80 L 180 80 L 176 80 L 172 80 L 168 80 L 164 80 L 160 80 L 156 80 L 152 80 L 148 80 L 144 80 L 140 80 L 136 80 L 132 80 L 128 80 L 124 80 L 120 80 L 116 80 L 112 80 L 108 80 L 104 80 L 100 80 L 96 80 L 92 80 L 88 80 L 84 80 L 80 80 L 76 80 L 72 80 L 68 80 L 64 80 L 60 80 L 56 80 L 52 80 L 48 80 L 44 80 L 40 80 L 36 80 L 32 80 L 28 80 L 24 80 L 20 80 L 16 80 L 14 80 C 10.690994 80 8 82.690994 8 86 L 8 170 C 8 173.30899 10.690994 176 14 176 L 242 176 C 245.309006 176 248 173.30899 248 170 L 248 88 L 248 84 Z"/>
    <path id="path1" fill="#ffffff" stroke="none" d="M 192 108 L 240 108 L 240 104 L 192 104 Z"/>
    <path id="path2" fill="#ffffff" stroke="none" d="M 184 108 L 188 108 L 188 104 L 184 104 Z"/>
    <path id="path3" fill="#ffffff" stroke="none" d="M 192 152 L 240 152 L 240 148 L 192 148 Z"/>
    <path id="path4" fill="#ffffff" stroke="none" d="M 192 160 L 240 160 L 240 156 L 192 156 Z"/>
</svg>
