<?xml version="1.0" encoding="UTF-8"?>
<!-- Generated by Pixelmator Pro 3.7.1 -->
<svg width="256" height="256" viewBox="0 0 256 256" xmlns="http://www.w3.org/2000/svg">
    <path id="Path" fill="#ffffff" stroke="none" d="M 244 200 L 12 200 L 12 109 C 12 106.238998 14.238998 104 17 104 L 239 104 C 241.761993 104 244 106.238998 244 109 Z M 244 56 L 244 101.522003 C 242.567993 100.561996 240.848999 100 239 100 L 17 100 C 15.151001 100 13.431 100.561996 12 101.522003 L 12 56 Z M 244 52 L 12 52 L 8 52 L 8 56 L 8 109 L 8 200 L 8 204 L 12 204 L 244 204 L 248 204 L 248 200 L 248 109 L 248 56 L 248 52 Z"/>
    <path id="path1" fill="#ffffff" stroke="none" d="M 232 164 L 216 164 L 216 152 L 232 152 Z M 232 184 L 202.320999 184 L 202.320999 172 L 232 172 Z M 196 152 L 212 152 L 212 164 L 196 164 Z M 198.080994 184 L 182.559998 184 L 182.559998 172 L 198.080994 172 Z M 176 152 L 192 152 L 192 164 L 176 164 Z M 178.320999 184 L 162.800003 184 L 162.800003 172 L 178.320999 172 Z M 156 152 L 172 152 L 172 164 L 156 164 Z M 158.561005 184 L 143.041 184 L 143.041 172 L 158.561005 172 Z M 136 152 L 152 152 L 152 164 L 136 164 Z M 138.800995 184 L 123.279999 184 L 123.279999 172 L 138.800995 172 Z M 116 152 L 132 152 L 132 164 L 116 164 Z M 119.041 184 L 103.521004 184 L 103.521004 172 L 119.041 172 Z M 96 152 L 112 152 L 112 164 L 96 164 Z M 99.279999 184 L 83.760002 184 L 83.760002 172 L 99.279999 172 Z M 76 152 L 92 152 L 92 164 L 76 164 Z M 79.521004 184 L 64 184 L 64 172 L 79.521004 172 Z M 56 152 L 72 152 L 72 164 L 56 164 Z M 59.759998 184 L 44.238998 184 L 44.238998 172 L 59.759998 172 Z M 36 152 L 52 152 L 52 164 L 36 164 Z M 40 184 L 24.24 184 L 24.24 172 L 40 172 Z M 20 112 L 36 112 L 36 124 L 20 124 Z M 48 144 L 32 144 L 32 132 L 48 132 Z M 40 112 L 56 112 L 56 124 L 40 124 Z M 68 144 L 52 144 L 52 132 L 68 132 Z M 60 112 L 76 112 L 76 124 L 60 124 Z M 88 144 L 72 144 L 72 132 L 88 132 Z M 80 112 L 96 112 L 96 124 L 80 124 Z M 108 144 L 92 144 L 92 132 L 108 132 Z M 100 112 L 116 112 L 116 124 L 100 124 Z M 128 144 L 112 144 L 112 132 L 128 132 Z M 120 112 L 136 112 L 136 124 L 120 124 Z M 148 144 L 132 144 L 132 132 L 148 132 Z M 140 112 L 156 112 L 156 124 L 140 124 Z M 168 144 L 152 144 L 152 132 L 168 132 Z M 160 112 L 176 112 L 176 124 L 160 124 Z M 188 144 L 172 144 L 172 132 L 188 132 Z M 180 112 L 196 112 L 196 124 L 180 124 Z M 208 144 L 192 144 L 192 132 L 208 132 Z M 200 112 L 216 112 L 216 124 L 200 124 Z M 228 144 L 212 144 L 212 132 L 228 132 Z M 232 144 L 232 132 L 232 128 L 228 128 L 220 128 L 220 124 L 220 112 L 220 108 L 216 108 L 200 108 L 196 108 L 180 108 L 176 108 L 160 108 L 156 108 L 140 108 L 136 108 L 120 108 L 116 108 L 100 108 L 96 108 L 80 108 L 76 108 L 60 108 L 56 108 L 40 108 L 36 108 L 20 108 L 16 108 L 16 112 L 16 124 L 16 128 L 20 128 L 28 128 L 28 132 L 28 144 L 28 148 L 32 148 L 32 152 L 32 164 L 32 168 L 24.24 168 L 20.24 168 L 20.24 172 L 20.24 184 L 20.24 188 L 24.24 188 L 40 188 L 40.240002 188 L 44 188 L 44.240002 188 L 59.759998 188 L 60 188 L 63.759998 188 L 64 188 L 79.521004 188 L 79.760002 188 L 83.521004 188 L 83.760002 188 L 99.279999 188 L 99.521004 188 L 103.279999 188 L 103.521004 188 L 119.041 188 L 119.279999 188 L 123.041 188 L 123.279999 188 L 138.800995 188 L 139.041 188 L 142.800995 188 L 143.041 188 L 158.561005 188 L 158.800995 188 L 162.561005 188 L 162.800995 188 L 178.320999 188 L 178.561005 188 L 182.320999 188 L 182.561005 188 L 198.080994 188 L 198.320999 188 L 202.080994 188 L 202.320999 188 L 232 188 L 236 188 L 236 184 L 236 172 L 236 168 L 236 164 L 236 152 L 236 148 L 232 148 Z"/>
</svg>
