<?xml version="1.0" encoding="UTF-8"?>
<!-- Generated by Pixelmator Pro 3.7.1 -->
<svg width="256" height="256" viewBox="0 0 256 256" xmlns="http://www.w3.org/2000/svg">
    <path id="Path" fill="#ffffff" stroke="none" d="M 240 54.539993 C 240 55.231995 239.662994 55.910004 239.054001 56.238007 C 238.427002 56.574997 238 57.238007 238 58 C 238 58.761993 238.427002 59.425003 239.054001 59.761993 C 239.662994 60.089996 240 60.768005 240 61.460007 L 240 62.539993 C 240 63.231995 239.662994 63.910004 239.054001 64.238007 C 238.427002 64.574997 238 65.238007 238 66 C 238 66.761993 238.427002 67.425003 239.054001 67.761993 C 239.662994 68.089996 240 68.768005 240 69.460007 L 240 70.539993 C 240 71.231995 239.662994 71.910004 239.054001 72.238007 C 238.427002 72.574997 238 73.238007 238 74 C 238 74.761993 238.427002 75.425003 239.054001 75.761993 C 239.662994 76.089996 240 76.768005 240 77.460007 L 240 78.539993 C 240 79.231995 239.662994 79.910004 239.054001 80.238007 C 238.427002 80.574997 238 81.238007 238 82 C 238 82.761993 238.427002 83.425003 239.054001 83.761993 C 239.662994 84.089996 240 84.768005 240 85.460007 L 240 86.539993 C 240 87.231995 239.662994 87.910004 239.054001 88.238007 C 238.427002 88.574997 238 89.238007 238 90 C 238 90.761993 238.427002 91.425003 239.054001 91.761993 C 239.662994 92.089996 240 92.768005 240 93.459991 L 240 94.539993 C 240 95.231995 239.662994 95.910004 239.054001 96.238007 C 238.427002 96.574997 238 97.238007 238 98 C 238 98.761993 238.427002 99.425003 239.054001 99.761993 C 239.662994 100.089996 240 100.768005 240 101.459991 L 240 212 C 240 216.399994 236.399994 220 232 220 L 24 220 C 19.600006 220 16 216.399994 16 212 L 16 101.459991 C 16 100.768005 16.337006 100.089996 16.945999 99.761993 C 17.574005 99.425003 18 98.761993 18 98 C 18 97.238007 17.574005 96.574997 16.947006 96.238007 C 16.337006 95.910004 16 95.231995 16 94.539993 L 16 93.459991 C 16 92.768005 16.337006 92.089996 16.945999 91.761993 C 17.574005 91.425003 18 90.761993 18 90 C 18 89.238007 17.574005 88.574997 16.947006 88.238007 C 16.337006 87.910004 16 87.231995 16 86.539993 L 16 85.460007 C 16 84.768005 16.337006 84.089996 16.945999 83.761993 C 17.574005 83.425003 18 82.761993 18 82 C 18 81.238007 17.574005 80.574997 16.947006 80.238007 C 16.337006 79.910004 16 79.231995 16 78.539993 L 16 77.460007 C 16 76.768005 16.337006 76.089996 16.945999 75.761993 C 17.574005 75.425003 18 74.761993 18 74 C 18 73.238007 17.574005 72.574997 16.947006 72.238007 C 16.337006 71.910004 16 71.231995 16 70.539993 L 16 69.460007 C 16 68.768005 16.337006 68.089996 16.945999 67.761993 C 17.574005 67.425003 18 66.761993 18 66 C 18 65.238007 17.574005 64.574997 16.947006 64.238007 C 16.337006 63.910004 16 63.231995 16 62.539993 L 16 61.460007 C 16 60.768005 16.337006 60.089996 16.945999 59.761993 C 17.574005 59.425003 18 58.761993 18 58 C 18 57.238007 17.574005 56.574997 16.947006 56.238007 C 16.337006 55.910004 16 55.231995 16 54.539993 L 16 44 C 16 39.600006 19.600006 36 24 36 L 232 36 C 236.399994 36 240 39.600006 240 44 Z M 244 44 C 244 37.382996 238.617004 32 232 32 L 24 32 C 17.382996 32 12 37.382996 12 44 L 12 54.539993 C 12 55.811996 12.388 57.014999 13.076996 58 C 12.388 58.985001 12 60.188004 12 61.460007 L 12 62.539993 C 12 63.811996 12.388 65.014999 13.076996 66 C 12.388 66.985001 12 68.188004 12 69.460007 L 12 70.539993 C 12 71.811996 12.388 73.014999 13.076996 74 C 12.388 74.985001 12 76.188004 12 77.460007 L 12 78.539993 C 12 79.811996 12.388 81.014999 13.076996 82 C 12.388 82.985001 12 84.188004 12 85.460007 L 12 86.539993 C 12 87.811996 12.388 89.014999 13.076996 90 C 12.388 90.985001 12 92.188004 12 93.459991 L 12 94.539993 C 12 95.811996 12.388 97.014999 13.076996 98 C 12.388 98.985001 12 100.188004 12 101.459991 L 12 212 C 12 218.617004 17.382996 224 24 224 L 232 224 C 238.617004 224 244 218.617004 244 212 L 244 101.459991 C 244 100.188004 243.610992 98.985001 242.923004 98 C 243.610992 97.014999 244 95.811996 244 94.539993 L 244 93.459991 C 244 92.188004 243.610992 90.985001 242.923004 90 C 243.610992 89.014999 244 87.811996 244 86.539993 L 244 85.460007 C 244 84.188004 243.610992 82.985001 242.923004 82 C 243.610992 81.014999 244 79.811996 244 78.539993 L 244 77.460007 C 244 76.188004 243.610992 74.985001 242.923004 74 C 243.610992 73.014999 244 71.811996 244 70.539993 L 244 69.460007 C 244 68.188004 243.610992 66.985001 242.923004 66 C 243.610992 65.014999 244 63.811996 244 62.539993 L 244 61.460007 C 244 60.188004 243.610992 58.985001 242.923004 58 C 243.610992 57.014999 244 55.811996 244 54.539993 Z"/>
    <path id="path1" fill="#ffffff" stroke="none" d="M 57.263699 204 L 33.999699 204 C 30.686701 204 27.999701 201.313004 27.999701 198 L 27.999701 174.423996 C 27.999701 171.996002 29.981701 170.416 32.033699 170.416 C 33.0797 170.416 34.144699 170.826996 34.972698 171.748001 L 59.493698 198.992996 C 61.231701 200.923996 59.861698 204 57.263699 204 M 37.946701 169.071991 C 36.404701 167.359009 34.304699 166.416 32.033699 166.416 C 27.603701 166.416 23.999701 170.007996 23.999701 174.423996 L 23.999701 198 C 23.999701 203.514008 28.485701 208 33.999699 208 L 57.263699 208 C 60.067699 208 62.5177 206.408997 63.658699 203.847992 C 64.798698 201.287003 64.342697 198.401001 62.466702 196.317001 Z"/>
    <path id="path2" fill="#ffffff" stroke="none" d="M 228.269501 198 C 228.269501 201.313004 225.583496 204 222.269501 204 L 199.005493 204 C 196.408493 204 195.038498 200.923996 196.776505 198.992996 L 221.296494 171.748001 C 222.124496 170.826996 223.190506 170.416 224.236496 170.416 C 226.288498 170.416 228.269501 171.996002 228.269501 174.423996 Z M 224.236496 166.416 L 224.236496 166.416 C 221.964493 166.416 219.865494 167.359009 218.323502 169.071991 L 193.802505 196.317001 C 191.927505 198.401001 191.470505 201.287003 192.611496 203.847992 C 193.751495 206.408997 196.202499 208 199.005493 208 L 222.269501 208 C 227.7845 208 232.269501 203.514008 232.269501 198 L 232.269501 174.423996 C 232.269501 170.007996 228.665497 166.416 224.236496 166.416"/>
    <path id="path3" fill="#ffffff" stroke="none" d="M 218 48 L 228 48 L 230 48 C 231.104004 48 232 47.104004 232 46 C 232 44.895996 231.104004 44 230 44 L 228 44 L 218 44 C 216.895996 44 216 44.895996 216 46 C 216 47.104004 216.895996 48 218 48"/>
    <path id="path4" fill="#ffffff" stroke="none" d="M 218 56 L 228 56 L 230 56 C 231.104004 56 232 55.104004 232 54 C 232 52.895996 231.104004 52 230 52 L 228 52 L 218 52 C 216.895996 52 216 52.895996 216 54 C 216 55.104004 216.895996 56 218 56"/>
    <path id="path5" fill="#ffffff" stroke="none" d="M 218 64 L 228 64 L 230 64 C 231.104004 64 232 63.104004 232 62 C 232 60.895996 231.104004 60 230 60 L 228 60 L 218 60 C 216.895996 60 216 60.895996 216 62 C 216 63.104004 216.895996 64 218 64"/>
    <path id="path6" fill="#ffffff" stroke="none" d="M 40.019001 134.370102 C 40.015999 134.246094 40 134.125092 40 134.000092 L 40 84.000107 C 40 66.400101 54.399998 52.000092 72 52.000092 L 72 60.000092 L 72 64.000092 C 60.972 64.000092 52 72.972107 52 84.000107 L 52 133.686096 C 52.006001 133.809097 52.010998 133.932098 52.014999 134.055099 L 52.015999 134.103104 L 52.016998 134.153107 C 52.341999 152.154099 60.264999 169.087097 74.326996 181.832092 C 88.678001 194.838104 107.738998 202.000092 128 202.000092 C 148.261002 202.000092 167.322006 194.838104 181.673004 181.832092 C 195.735001 169.087097 203.658005 152.154099 203.983002 134.153107 L 203.983994 134.103104 L 203.985001 134.055099 C 203.987991 133.931091 203.992996 133.808105 204 133.685089 L 204 84.000107 C 204 72.972107 195.028 64.000092 184 64.000092 L 184 60.000092 L 184 52.000092 C 201.599991 52.000092 216 66.400101 216 84.000107 L 216 134.000092 C 216 134.125092 215.983994 134.246094 215.981003 134.370102 C 215.186005 178.473099 176.102997 214.000092 128 214.000092 C 79.895996 214.000092 40.813999 178.473099 40.019001 134.370102 M 56.014 133.965103 L 56.013 133.949097 C 56.009998 133.828094 56.006001 133.708099 56 133.588104 L 56 84.000107 C 56 75.178101 63.178001 68.000092 72 68.000092 L 76 68.000092 L 76 64.000092 L 180 64.000092 L 180 68.000092 L 184 68.000092 C 192.821991 68.000092 200 75.178101 200 84.000107 L 200 133.587097 C 199.994003 133.710098 199.988998 133.839111 199.985001 133.995102 L 199.983994 134.062103 L 199.983002 134.0811 C 199.679993 150.967102 192.222992 166.872101 178.985992 178.868103 C 165.373001 191.205109 147.266006 198.000092 128 198.000092 C 108.733994 198.000092 90.625999 191.205109 77.014 178.868103 C 63.778 166.872101 56.320999 150.967102 56.015999 134.0811 L 56.014999 134.031097 L 56.014999 134.03009 Z M 180 60.000092 L 76 60.000092 L 76 52.000092 L 180 52.000092 Z M 219.979004 134.503098 C 219.992004 134.314102 220 134.158096 220 134.000092 L 220 84.000107 C 220 64.149094 203.850998 48.000092 184 48.000092 L 180 48.000092 L 76 48.000092 L 72 48.000092 C 52.148998 48.000092 36 64.149094 36 84.000107 L 36 134.000092 C 36 134.1651 36.007999 134.328094 36.019001 134.490097 L 36.02 134.476105 C 36.424999 156.90509 46.213001 177.945099 63.582001 193.687103 C 80.881996 209.365097 103.759003 218.000092 128 218.000092 C 152.240997 218.000092 175.117996 209.365097 192.416992 193.687103 C 209.770004 177.960098 219.557999 156.9431 219.979004 134.503098"/>
    <path id="path7" fill="#ffffff" stroke="none" d="M 126 212 L 130 212 L 130 204 L 126 204 Z"/>
    <path id="path8" fill="#ffffff" stroke="none" d="M 26 48 L 28 48 L 38 48 C 39.104 48 40 47.104004 40 46 C 40 44.895996 39.104 44 38 44 L 28 44 L 26 44 C 24.896 44 24 44.895996 24 46 C 24 47.104004 24.896 48 26 48"/>
    <path id="path9" fill="#ffffff" stroke="none" d="M 26 56 L 28 56 L 38 56 C 39.104 56 40 55.104004 40 54 C 40 52.895996 39.104 52 38 52 L 28 52 L 26 52 C 24.896 52 24 52.895996 24 54 C 24 55.104004 24.896 56 26 56"/>
    <path id="path10" fill="#ffffff" stroke="none" d="M 26 64 L 28 64 L 38 64 C 39.104 64 40 63.104004 40 62 C 40 60.895996 39.104 60 38 60 L 28 60 L 26 60 C 24.896 60 24 60.895996 24 62 C 24 63.104004 24.896 64 26 64"/>
    <path id="path11" fill="#ffffff" stroke="none" d="M 26 72 L 28 72 L 30 72 C 31.104 72 32 71.104004 32 70 C 32 68.895996 31.104 68 30 68 L 28 68 L 26 68 C 24.896 68 24 68.895996 24 70 C 24 71.104004 24.896 72 26 72"/>
    <path id="path12" fill="#ffffff" stroke="none" d="M 26 80 L 28 80 L 30 80 C 31.104 80 32 79.104004 32 78 C 32 76.895996 31.104 76 30 76 L 28 76 L 26 76 C 24.896 76 24 76.895996 24 78 C 24 79.104004 24.896 80 26 80"/>
    <path id="path13" fill="#ffffff" stroke="none" d="M 26 88 L 28 88 L 30 88 C 31.104 88 32 87.104004 32 86 C 32 84.895996 31.104 84 30 84 L 28 84 L 26 84 C 24.896 84 24 84.895996 24 86 C 24 87.104004 24.896 88 26 88"/>
    <path id="path14" fill="#ffffff" stroke="none" d="M 26 112 L 28 112 L 30 112 C 31.104 112 32 111.104004 32 110 C 32 108.895996 31.104 108 30 108 L 28 108 L 26 108 C 24.896 108 24 108.895996 24 110 C 24 111.104004 24.896 112 26 112"/>
    <path id="path15" fill="#ffffff" stroke="none" d="M 26 120 L 28 120 L 30 120 C 31.104 120 32 119.104004 32 118 C 32 116.895996 31.104 116 30 116 L 28 116 L 26 116 C 24.896 116 24 116.895996 24 118 C 24 119.104004 24.896 120 26 120"/>
    <path id="path16" fill="#ffffff" stroke="none" d="M 26 128 L 28 128 L 30 128 C 31.104 128 32 127.104004 32 126 C 32 124.895996 31.104 124 30 124 L 28 124 L 26 124 C 24.896 124 24 124.895996 24 126 C 24 127.104004 24.896 128 26 128"/>
    <path id="path17" fill="#ffffff" stroke="none" d="M 230 68 L 228 68 L 226 68 C 224.895996 68 224 68.895996 224 70 C 224 71.104004 224.895996 72 226 72 L 228 72 L 230 72 C 231.104004 72 232 71.104004 232 70 C 232 68.895996 231.104004 68 230 68"/>
    <path id="path18" fill="#ffffff" stroke="none" d="M 230 76 L 228 76 L 226 76 C 224.895996 76 224 76.895996 224 78 C 224 79.104004 224.895996 80 226 80 L 228 80 L 230 80 C 231.104004 80 232 79.104004 232 78 C 232 76.895996 231.104004 76 230 76"/>
    <path id="path19" fill="#ffffff" stroke="none" d="M 230 84 L 228 84 L 226 84 C 224.895996 84 224 84.895996 224 86 C 224 87.104004 224.895996 88 226 88 L 228 88 L 230 88 C 231.104004 88 232 87.104004 232 86 C 232 84.895996 231.104004 84 230 84"/>
    <path id="path20" fill="#ffffff" stroke="none" d="M 230 108 L 228 108 L 226 108 C 224.895996 108 224 108.895996 224 110 C 224 111.104004 224.895996 112 226 112 L 228 112 L 230 112 C 231.104004 112 232 111.104004 232 110 C 232 108.895996 231.104004 108 230 108"/>
    <path id="path21" fill="#ffffff" stroke="none" d="M 230 116 L 228 116 L 226 116 C 224.895996 116 224 116.895996 224 118 C 224 119.104004 224.895996 120 226 120 L 228 120 L 230 120 C 231.104004 120 232 119.104004 232 118 C 232 116.895996 231.104004 116 230 116"/>
    <path id="path22" fill="#ffffff" stroke="none" d="M 230 124 L 228 124 L 226 124 C 224.895996 124 224 124.895996 224 126 C 224 127.104004 224.895996 128 226 128 L 228 128 L 230 128 C 231.104004 128 232 127.104004 232 126 C 232 124.895996 231.104004 124 230 124"/>
</svg>
