<?xml version="1.0" encoding="UTF-8"?>
<!-- Generated by Pixelmator Pro 3.7.1 -->
<svg width="256" height="256" viewBox="0 0 256 256" xmlns="http://www.w3.org/2000/svg">
    <path id="Path" fill="#ffffff" stroke="none" d="M 216 100 L 216 240 C 216 242.209 214.209 244 212 244 L 153.656998 244 C 152.596008 244 151.578003 243.578003 150.828003 242.828003 L 149.171997 241.171997 C 148.421997 240.421997 147.403992 240 146.343002 240 L 109.656998 240 C 108.596001 240 107.578003 240.421997 106.828003 241.171997 L 105.170998 242.828003 C 104.420998 243.578003 103.403999 244 102.343002 244 L 44 244 C 41.791 244 40 242.209 40 240 L 40 124 C 40 121.791 41.791 120 44 120 L 48 120 L 48 96 L 48 92 L 48 68 L 44 68 C 41.791 68 40 66.209 40 64 L 40 16 C 40 13.791 41.791 12 44 12 L 186.343002 12 C 187.403992 12 188.421997 12.42099 189.171997 13.17099 L 214.828003 38.828995 C 215.578003 39.578995 216 40.596008 216 41.656998 L 216 80 C 216 82.209 214.209 84 212 84 L 212 96 C 214.209 96 216 97.791 216 100 M 40 88 L 40 72 C 40 71.653992 40.057999 71.322998 40.141006 71.003006 C 41.285995 71.636993 42.600998 72 44 72 L 44 92 C 41.791 92 40 90.209 40 88 M 220 80 L 220 41.656998 C 220 39.520004 219.167999 37.511002 217.656998 36 L 192 10.343002 C 190.488998 8.832001 188.479996 8 186.343002 8 L 44 8 C 39.589005 8 36 11.588989 36 16 L 36 64 C 36 65.458008 36.397995 66.820999 37.082001 67.998993 C 36.395996 69.175995 36 70.541992 36 72 L 36 88 C 36 92.410995 39.589005 96 44 96 L 44 116 C 39.589005 116 36 119.589005 36 124 L 36 240 C 36 244.410995 39.589005 248 44 248 L 102.343002 248 C 104.480003 248 106.488998 247.167999 108 245.656006 L 109.656998 244 L 146.343002 244 L 148 245.656998 C 149.511002 247.167999 151.519989 248 153.656998 248 L 212 248 C 216.410995 248 220 244.410995 220 240 L 220 100 C 220 97.044998 218.389999 94.459 216 93.074005 L 216 86.925995 C 218.389999 85.541 220 82.955002 220 80"/>
    <path id="path1" fill="#ffffff" stroke="none" d="M 196 216 C 196 220.410995 192.410995 224 188 224 L 68 224 C 63.589005 224 60 220.410995 60 216 L 60 52 C 60 47.589005 63.589005 44 68 44 L 188 44 C 192.410995 44 196 47.589005 196 52 Z M 188 40 L 68 40 C 61.373001 40 56 45.373001 56 52 L 56 216 C 56 222.626999 61.373001 228 68 228 L 188 228 C 194.626999 228 200 222.626999 200 216 L 200 52 C 200 45.373001 194.626999 40 188 40"/>
    <path id="path2" fill="#ffffff" stroke="none" d="M 182 232 L 74 232 C 72.896004 232 72 232.895996 72 234 C 72 235.104004 72.896004 236 74 236 L 182 236 C 183.104004 236 184 235.104004 184 234 C 184 232.895996 183.104004 232 182 232"/>
</svg>
