<?xml version="1.0" encoding="UTF-8"?>
<!-- Generated by Pixelmator Pro 3.7.1 -->
<svg width="256" height="256" viewBox="0 0 256 256" xmlns="http://www.w3.org/2000/svg">
    <path id="Path" fill="#ffffff" stroke="none" d="M 244 29.464401 C 244 30.641403 243.520996 31.805405 242.582001 32.516403 C 241.072998 33.661407 240 36.580399 240 40.000397 C 240 42.857407 240.748993 45.364395 241.876007 46.779404 C 242.444 47.4944 242.444 48.506393 241.876007 49.219406 C 240.748993 50.635406 240 53.142395 240 56.000397 C 240 58.857407 240.748993 61.364395 241.876007 62.779404 C 242.444 63.4944 242.444 64.506393 241.876007 65.219406 C 240.748993 66.635406 240 69.142395 240 72.000397 C 240 74.857407 240.748993 77.364395 241.876007 78.779404 C 242.444 79.4944 242.444 80.506393 241.876007 81.219406 C 240.748993 82.635406 240 85.142395 240 88.000397 C 240 90.857407 240.748993 93.364395 241.876007 94.779404 C 242.444 95.4944 242.444 96.506393 241.876007 97.219391 C 240.748993 98.635391 240 101.142395 240 104.000397 C 240 106.857391 240.748993 109.364395 241.876007 110.779404 C 242.444 111.4944 242.444 112.506393 241.876007 113.219391 C 240.748993 114.635391 240 117.142395 240 120.000397 C 240 123.420395 241.072998 126.339401 242.582001 127.483398 C 243.520996 128.194397 244 129.358398 244 130.536407 L 244 219.177399 C 244 222.525406 242.606003 225.715408 240.147995 227.989395 C 233.839005 233.824402 219.972992 244.000397 200 244.000397 L 188 244.000397 L 188 212.492401 C 210.072998 204.691406 225.350998 195.842407 226.014999 195.455399 L 238.800003 188.000397 L 224 188.000397 L 192 188.000397 L 192 76.000397 L 224 72.000397 L 192 72.000397 L 188 72.000397 L 68 72.000397 L 64 72.000397 L 32 72.000397 L 64 76.000397 L 64 188.000397 L 32 188.000397 L 17.201004 188.000397 L 29.985001 195.455399 C 30.649002 195.842407 45.927002 204.691406 68 212.492401 L 68 244.000397 L 56 244.000397 C 36.026993 244.000397 22.160995 233.824402 15.850998 227.989395 C 13.393005 225.715408 12 222.525406 12 219.177399 L 12 130.536407 C 12 129.358398 12.479004 128.194397 13.417007 127.483398 C 14.927002 126.339401 16 123.420395 16 120.000397 C 16 117.142395 15.251007 114.635391 14.123993 113.219391 C 13.556 112.506393 13.556 111.4944 14.123993 110.779404 C 15.251007 109.364395 16 106.857391 16 104.000397 C 16 101.142395 15.251007 98.635391 14.123993 97.219391 C 13.556 96.506393 13.556 95.4944 14.123993 94.779404 C 15.251007 93.364395 16 90.857407 16 88.000397 C 16 85.142395 15.251007 82.635406 14.123993 81.219406 C 13.556 80.506393 13.556 79.4944 14.123993 78.779404 C 15.251007 77.364395 16 74.857407 16 72.000397 C 16 69.142395 15.251007 66.635406 14.123993 65.219406 C 13.556 64.506393 13.556 63.4944 14.123993 62.779404 C 15.251007 61.364395 16 58.857407 16 56.000397 C 16 53.142395 15.251007 50.635406 14.123993 49.219406 C 13.556 48.506393 13.556 47.4944 14.123993 46.779404 C 15.251007 45.364395 16 42.857407 16 40.000397 C 16 36.580399 14.927002 33.661407 13.417007 32.516403 C 12.479004 31.805405 12 30.641403 12 29.464401 L 12 24.000397 C 12 17.400406 17.399994 12.000397 24 12.000397 L 64 12.000397 L 64 24.000397 L 64 28.000397 L 64 32.000397 L 64 36.000397 L 64 40.000397 L 64 44.000397 L 64 48.000397 L 64 52.000397 L 64 56.000397 L 64 60.000397 L 68 60.000397 L 188 60.000397 L 192 60.000397 L 192 56.000397 L 192 52.000397 L 192 48.000397 L 192 44.000397 L 192 40.000397 L 192 36.000397 L 192 32.000397 L 192 28.000397 L 192 24.000397 L 192 12.000397 L 232 12.000397 C 238.600006 12.000397 244 17.400406 244 24.000397 Z M 68 76.000397 L 188 76.000397 L 188 184.000397 L 68 184.000397 Z M 188 188.000397 L 188 192.000397 C 188 192.000397 180 200.000397 128 200.000397 C 76 200.000397 68 192.000397 68 192.000397 L 68 188.000397 Z M 184 209.646408 L 184 244.000397 L 152 244.000397 L 152 217.885406 C 144.152008 219.205399 136.075989 220.000397 128 220.000397 C 119.922997 220.000397 111.848007 219.205399 104 217.885406 L 104 244.000397 L 72 244.000397 L 72 209.646408 C 48.584 201.671402 32 192.000397 32 192.000397 L 64 192.000397 C 64 192.000397 68 204.000397 128 204.000397 C 188 204.000397 192 192.000397 192 192.000397 C 192 192.000397 192.06601 192.088394 192.205002 192.245407 C 192.173996 192.163406 192.134003 192.082397 192.110992 192.000397 L 224 192.000397 C 224 192.000397 207.416 201.671402 184 209.646408 M 148 244.000397 L 108 244.000397 L 108 222.547394 C 114.916 223.512405 121.625 224.000397 128 224.000397 C 134.375 224.000397 141.084 223.512405 148 222.547394 Z M 68 52.000397 L 188 52.000397 L 188 56.000397 L 68 56.000397 Z M 68 44.000397 L 188 44.000397 L 188 48.000397 L 68 48.000397 Z M 68 36.000397 L 188 36.000397 L 188 40.000397 L 68 40.000397 Z M 68 28.000397 L 188 28.000397 L 188 32.000397 L 68 32.000397 Z M 68 12.000397 L 188 12.000397 L 188 24.000397 L 68 24.000397 Z M 248 29.464401 L 248 24.000397 C 248 15.177399 240.822006 8.000397 232 8.000397 L 192 8.000397 L 188 8.000397 L 68 8.000397 L 64 8.000397 L 24 8.000397 C 15.177994 8.000397 8 15.177399 8 24.000397 L 8 29.464401 C 8 31.933395 9.108994 34.254395 10.970001 35.680405 C 11.300995 36.028397 12 37.560394 12 40.000397 C 12 42.220398 11.399002 43.781403 10.994995 44.288406 C 9.255005 46.473404 9.255005 49.526398 10.994995 51.712402 C 11.399002 52.218399 12 53.779404 12 56.000397 C 12 58.220398 11.399002 59.781403 10.994995 60.288406 C 9.255005 62.473404 9.255005 65.526398 10.994995 67.712402 C 11.399002 68.218399 12 69.779404 12 72.000397 C 12 74.220398 11.399002 75.781403 10.994995 76.288406 C 9.255005 78.473404 9.255005 81.526398 10.994995 83.712402 C 11.399002 84.218399 12 85.779404 12 88.000397 C 12 90.220398 11.399002 91.781403 10.994995 92.288406 C 9.255005 94.473404 9.255005 97.526398 10.994995 99.712402 C 11.399002 100.218399 12 101.779404 12 104.000397 C 12 106.220398 11.399002 107.781403 10.994995 108.288391 C 9.255005 110.473404 9.255005 113.526398 10.994995 115.712402 C 11.399002 116.218399 12 117.779404 12 120.000397 C 12 122.439392 11.300995 123.971405 10.970001 124.319397 C 9.108994 125.746399 8 128.067398 8 130.536407 L 8 219.177399 C 8 223.626404 9.871994 227.908401 13.134995 230.9254 C 20.031006 237.302399 34.768997 248.000397 56 248.000397 L 68 248.000397 L 72 248.000397 L 104 248.000397 L 108 248.000397 L 148 248.000397 L 152 248.000397 L 184 248.000397 L 188 248.000397 L 200 248.000397 C 221.231003 248.000397 235.968994 237.302399 242.863998 230.9254 C 246.128006 227.908401 248 223.626404 248 219.177399 L 248 130.536407 C 248 128.067398 246.891006 125.746399 245.029999 124.319397 C 244.699005 123.971405 244 122.439392 244 120.000397 C 244 117.779404 244.600998 116.218399 245.005005 115.712402 C 246.744995 113.526398 246.744995 110.473404 245.005005 108.288391 C 244.600998 107.781403 244 106.220398 244 104.000397 C 244 101.779404 244.600998 100.218399 245.005005 99.712402 C 246.744995 97.526398 246.744995 94.473404 245.005005 92.288406 C 244.600998 91.781403 244 90.220398 244 88.000397 C 244 85.779404 244.600998 84.218399 245.005005 83.712402 C 246.744995 81.526398 246.744995 78.473404 245.005005 76.288406 C 244.600998 75.781403 244 74.220398 244 72.000397 C 244 69.779404 244.600998 68.218399 245.005005 67.712402 C 246.744995 65.526398 246.744995 62.473404 245.005005 60.288406 C 244.600998 59.781403 244 58.220398 244 56.000397 C 244 53.779404 244.600998 52.218399 245.005005 51.712402 C 246.744995 49.526398 246.744995 46.473404 245.005005 44.288406 C 244.600998 43.781403 244 42.220398 244 40.000397 C 244 37.560394 244.699005 36.028397 245.029999 35.680405 C 246.891006 34.254395 248 31.933395 248 29.464401"/>
    <path id="path1" fill="#ffffff" stroke="none" d="M 42 212 C 47.522999 212 52 216.477997 52 222 C 52 227.522003 47.522999 232 42 232 C 36.477001 232 32 227.522003 32 222 C 32 216.477997 36.477001 212 42 212 M 42 236 C 49.720001 236 56 229.720001 56 222 C 56 214.279999 49.720001 208 42 208 C 34.279999 208 28 214.279999 28 222 C 28 229.720001 34.279999 236 42 236"/>
    <path id="path2" fill="#ffffff" stroke="none" d="M 126 230 C 126 231.104004 126.896004 232 128 232 C 129.104004 232 130 231.104004 130 230 C 130 228.895996 129.104004 228 128 228 C 126.896004 228 126 228.895996 126 230"/>
</svg>
