<?xml version="1.0" encoding="UTF-8"?>
<!-- Generated by Pixelmator Pro 3.7.1 -->
<svg width="256" height="256" viewBox="0 0 256 256" xmlns="http://www.w3.org/2000/svg">
    <path id="Path" fill="#ffffff" stroke="none" d="M 244 168 L 240 168 L 216 168 L 216 172 L 240 172 L 244 172 L 244 176 L 240 176 L 216 176 L 216 180 L 240 180 L 244 180 L 244 184 L 240 184 L 216 184 L 216 188 L 240 188 L 244 188 L 244 192 L 240 192 L 216 192 L 216 196 L 240 196 L 244 196 L 244 200 L 240 200 L 216 200 L 216 204 L 240 204 L 244 204 L 244 208 L 240 208 L 216 208 L 216 212 L 240 212 L 244 212 L 244 216 L 12 216 L 12 212 L 16 212 L 40 212 L 40 208 L 16 208 L 12 208 L 12 204 L 16 204 L 40 204 L 40 200 L 16 200 L 12 200 L 12 196 L 16 196 L 40 196 L 40 192 L 16 192 L 12 192 L 12 188.134003 L 12 188 L 16 188 L 40 188 L 40 184 L 16 184 L 12 184 L 12 180 L 16 180 L 40 180 L 40 176 L 16 176 L 12 176 L 12 172 L 16 172 L 40 172 L 40 168 L 16 168 L 12 168 L 12 44 L 52 44 L 68 40 L 68 112 C 68 116.410995 71.589005 120 76 120 L 180 120 C 184.410995 120 188 116.410995 188 112 L 188 40 L 204 44 L 244 44 Z M 184 40 L 184 112 C 184 114.209 182.209 116 180 116 L 76 116 C 73.791 116 72 114.209 72 112 L 72 40 Z M 244 40 L 204.492004 40 L 188.970001 36.119003 L 188.492004 36 L 188 36 L 184 36 L 72 36 L 68 36 L 67.507996 36 L 67.029999 36.119003 L 51.507996 40 L 12 40 L 8 40 L 8 44 L 8 168 L 8 172 L 8 176 L 8 180 L 8 184 L 8 188 L 8 188.134003 L 8 192 L 8 196 L 8 200 L 8 204 L 8 208 L 8 212 L 8 216 L 8 220 L 12 220 L 244 220 L 248 220 L 248 216 L 248 212 L 248 208 L 248 204 L 248 200 L 248 196 L 248 192 L 248 188 L 248 184 L 248 180 L 248 176 L 248 172 L 248 168 L 248 44 L 248 40 Z"/>
    <path id="path1" fill="#ffffff" stroke="none" d="M 132 212 L 208 212 L 208 208 L 132 208 Z"/>
    <path id="path2" fill="#ffffff" stroke="none" d="M 132 204 L 208 204 L 208 200 L 132 200 Z"/>
    <path id="path3" fill="#ffffff" stroke="none" d="M 132 196 L 208 196 L 208 192 L 132 192 Z"/>
    <path id="path4" fill="#ffffff" stroke="none" d="M 132 188 L 208 188 L 208 184 L 132 184 Z"/>
    <path id="path5" fill="#ffffff" stroke="none" d="M 132 180 L 208 180 L 208 176 L 132 176 Z"/>
    <path id="path6" fill="#ffffff" stroke="none" d="M 132 172 L 208 172 L 208 168 L 132 168 Z"/>
    <path id="path7" fill="#ffffff" stroke="none" d="M 48 212 L 124 212 L 124 208 L 48 208 Z"/>
    <path id="path8" fill="#ffffff" stroke="none" d="M 48 204 L 124 204 L 124 200 L 48 200 Z"/>
    <path id="path9" fill="#ffffff" stroke="none" d="M 48 196 L 124 196 L 124 192 L 48 192 Z"/>
    <path id="path10" fill="#ffffff" stroke="none" d="M 48 188 L 124 188 L 124 184 L 48 184 Z"/>
    <path id="path11" fill="#ffffff" stroke="none" d="M 48 180 L 124 180 L 124 176 L 48 176 Z"/>
    <path id="path12" fill="#ffffff" stroke="none" d="M 48 172 L 124 172 L 124 168 L 48 168 Z"/>
</svg>
