<?xml version="1.0" encoding="UTF-8"?>
<!-- Generated by Pixelmator Pro 3.7.1 -->
<svg width="256" height="256" viewBox="0 0 256 256" xmlns="http://www.w3.org/2000/svg">
    <path id="Path" fill="#ffffff" stroke="none" d="M 240 179.160202 C 240 186.739197 229.117004 193.481201 221.936005 194.318207 C 189.428009 198.107208 158.52301 200.000198 127.721001 200.000198 C 96.903 200.000198 66.186996 198.105194 34.063995 194.318207 C 26.873001 193.471191 16 186.739197 16 179.160202 L 16 116.000198 L 16 61.684204 C 16 57.894196 23.225998 56.000198 26.839005 56.000198 L 229.160995 56.000198 C 232.774002 56.000198 240 57.894196 240 61.684204 Z M 229.160995 52.000198 L 26.839005 52.000198 C 22.190002 52.000198 12 54.438202 12 61.684204 L 12 179.160202 C 12 189.28421 24.791 197.253204 33.595993 198.291199 C 66.182999 202.133194 96.970993 204.000198 127.721001 204.000198 C 158.470001 204.000198 189.438995 202.133194 222.397995 198.292206 C 231.205994 197.264191 244 189.3022 244 179.160202 L 244 61.684204 C 244 54.438202 233.809998 52.000198 229.160995 52.000198"/>
    <path id="path1" fill="#ffffff" stroke="none" d="M 183.982407 174.257797 C 179.382401 174.887802 168.264404 175.486801 151.982407 175.790802 L 151.982407 171.71579 C 167.912399 171.309799 180.000397 170.470795 180.000397 169.195801 L 180.000397 75.737808 C 180.000397 73.667801 178.353394 71.999802 176.308395 71.999802 L 79.691399 71.999802 C 77.6464 71.999802 76.000397 73.667801 76.000397 75.737808 L 76.000397 169.195801 C 76.000397 170.469803 88.070396 171.308807 103.982399 171.714798 L 103.982399 175.790802 C 87.701401 175.486801 76.583397 174.887802 71.982399 174.257797 L 71.982399 63.999802 L 183.982407 63.999802 Z M 104.084396 167.71579 C 89.290398 167.338806 82.787399 166.727798 80.000397 166.326797 L 80.000397 75.999802 L 176.000397 75.999802 L 176.000397 166.326797 C 173.210403 166.72879 166.700394 167.339798 151.880402 167.716797 L 147.982407 167.816803 L 147.982407 171.71579 L 147.982407 175.858795 C 147.7444 175.861801 147.500397 175.864807 147.259399 175.867798 C 141.0914 175.953796 134.5224 175.999802 127.982399 175.999802 C 121.443398 175.999802 114.873398 175.953796 108.705399 175.867798 C 108.465401 175.864807 108.221397 175.861801 107.982399 175.858795 L 107.982399 171.714798 L 107.982399 167.815796 Z M 184.255402 59.999802 L 71.710396 59.999802 C 69.645401 59.999802 67.982399 61.685806 67.982399 63.778809 L 67.982399 177.164795 C 67.982399 178.537811 83.819397 179.411804 103.982399 179.786804 L 103.982399 179.7948 C 106.863396 179.846802 109.846397 179.885803 112.864403 179.917801 C 113.3554 179.922791 113.845398 179.928802 114.339401 179.933807 C 115.107399 179.940796 115.870399 179.9478 116.643402 179.953796 C 118.169395 179.966797 119.706398 179.976807 121.248398 179.983795 C 121.541397 179.984802 121.832397 179.986801 122.126404 179.987793 C 124.073402 179.995789 126.027397 179.999802 127.982399 179.999802 C 129.937408 179.999802 131.892395 179.995789 133.838394 179.987793 C 134.132401 179.986801 134.423401 179.984802 134.7164 179.983795 C 136.258408 179.976807 137.795395 179.966797 139.321396 179.953796 C 140.094406 179.9478 140.858398 179.940796 141.626404 179.933807 C 142.1194 179.928802 142.609406 179.922791 143.099396 179.917801 C 146.118408 179.885803 149.101395 179.846802 151.982407 179.7948 L 151.982407 179.786804 C 172.145401 179.411804 187.982407 178.537811 187.982407 177.164795 L 187.982407 63.778809 C 187.982407 61.685806 186.320404 59.999802 184.255402 59.999802"/>
    <path id="path2" fill="#ffffff" stroke="none" d="M 167.981995 160 L 87.982002 160 L 87.982002 84 L 167.981995 84 Z M 171.981995 80 L 83.982002 80 L 83.982002 164 L 171.981995 164 Z"/>
    <path id="path3" fill="#ffffff" stroke="none" d="M 34.7178 88 L 26.6688 88 C 24.473799 88 22.6938 86.209 22.6938 84 C 22.6938 81.791 24.473799 80 26.6688 80 L 34.7178 80 C 36.913799 80 38.693802 81.791 38.693802 84 C 38.693802 86.209 36.913799 88 34.7178 88 M 34.7178 76 L 26.6688 76 C 22.271799 76 18.6938 79.589005 18.6938 84 C 18.6938 88.410995 22.271799 92 26.6688 92 L 34.7178 92 C 39.115799 92 42.693798 88.410995 42.693798 84 C 42.693798 79.589005 39.115799 76 34.7178 76"/>
    <path id="path4" fill="#ffffff" stroke="none" d="M 56.024399 88 L 55.975399 88 C 53.7794 88 52.000401 86.209 52.000401 84 C 52.000401 81.791 53.7794 80 55.975399 80 L 56.024399 80 C 58.220402 80 60.000401 81.791 60.000401 84 C 60.000401 86.209 58.220402 88 56.024399 88 M 56.024399 76 L 55.975399 76 C 51.5774 76 48.000401 79.589005 48.000401 84 C 48.000401 88.410995 51.5774 92 55.975399 92 C 60.422401 92 64.000397 88.410995 64.000397 84 C 64.000397 79.589005 60.422401 76 56.024399 76"/>
    <path id="path5" fill="#ffffff" stroke="none" d="M 224 112 C 218.477997 112 214 107.522995 214 102 C 214 96.477005 218.477997 92 224 92 C 229.522003 92 234 96.477005 234 102 C 234 107.522995 229.522003 112 224 112 M 204 128 C 198.477997 128 194 123.522995 194 118 C 194 112.477005 198.477997 108 204 108 C 209.522003 108 214 112.477005 214 118 C 214 123.522995 209.522003 128 204 128 M 224 88 C 216.279999 88 210 94.279999 210 102 C 210 103.248993 210.179993 104.453003 210.488007 105.604996 C 208.546997 104.585007 206.341995 104 204 104 C 196.279999 104 190 110.279999 190 118 C 190 125.720001 196.279999 132 204 132 C 211.720001 132 218 125.720001 218 118 C 218 116.751007 217.820007 115.546997 217.511993 114.395004 C 219.453003 115.414993 221.658005 116 224 116 C 231.720001 116 238 109.720001 238 102 C 238 94.279999 231.720001 88 224 88"/>
    <path id="path6" fill="#ffffff" stroke="none" d="M 40 96 C 51.045998 96 60 104.953995 60 116 C 60 127.046005 51.045998 136 40 136 C 28.954 136 20 127.046005 20 116 C 20 104.953995 28.954 96 40 96 M 40 140 C 53.233002 140 64 129.233002 64 116 C 64 102.766998 53.233002 92 40 92 C 26.767 92 16 102.766998 16 116 C 16 129.233002 26.767 140 40 140"/>
    <path id="path7" fill="#ffffff" stroke="none" d="M 40 104 C 46.626999 104 52 109.373001 52 116 C 52 122.626999 46.626999 128 40 128 C 33.373001 128 28 122.626999 28 116 C 28 109.373001 33.373001 104 40 104 M 40 132 C 48.821999 132 56 124.822006 56 116 C 56 107.177994 48.821999 100 40 100 C 31.178001 100 24 107.177994 24 116 C 24 124.822006 31.178001 132 40 132"/>
    <path id="path8" fill="#ffffff" stroke="none" d="M 226 68 C 229.313004 68 232 70.686996 232 74 C 232 77.313004 229.313004 80 226 80 C 222.686996 80 220 77.313004 220 74 C 220 70.686996 222.686996 68 226 68 M 226 84 C 231.514008 84 236 79.514008 236 74 C 236 68.485992 231.514008 64 226 64 C 220.485992 64 216 68.485992 216 74 C 216 79.514008 220.485992 84 226 84"/>
    <path id="path9" fill="#ffffff" stroke="none" d="M 30 152 C 28.896 152 28 152.895996 28 154 C 28 155.104004 28.896 156 30 156 C 31.104 156 32 155.104004 32 154 C 32 152.895996 31.104 152 30 152"/>
    <path id="path10" fill="#ffffff" stroke="none" d="M 36 152 C 34.896 152 34 152.895996 34 154 C 34 155.104004 34.896 156 36 156 C 37.104 156 38 155.104004 38 154 C 38 152.895996 37.104 152 36 152"/>
    <path id="path11" fill="#ffffff" stroke="none" d="M 42 152 C 40.896 152 40 152.895996 40 154 C 40 155.104004 40.896 156 42 156 C 43.104 156 44 155.104004 44 154 C 44 152.895996 43.104 152 42 152"/>
    <path id="path12" fill="#ffffff" stroke="none" d="M 48 152 C 46.896 152 46 152.895996 46 154 C 46 155.104004 46.896 156 48 156 C 49.104 156 50 155.104004 50 154 C 50 152.895996 49.104 152 48 152"/>
    <path id="path13" fill="#ffffff" stroke="none" d="M 54 152 C 52.896 152 52 152.895996 52 154 C 52 155.104004 52.896 156 54 156 C 55.104 156 56 155.104004 56 154 C 56 152.895996 55.104 152 54 152"/>
    <path id="path14" fill="#ffffff" stroke="none" d="M 30 158 C 28.896 158 28 158.895996 28 160 C 28 161.104004 28.896 162 30 162 C 31.104 162 32 161.104004 32 160 C 32 158.895996 31.104 158 30 158"/>
    <path id="path15" fill="#ffffff" stroke="none" d="M 36 158 C 34.896 158 34 158.895996 34 160 C 34 161.104004 34.896 162 36 162 C 37.104 162 38 161.104004 38 160 C 38 158.895996 37.104 158 36 158"/>
    <path id="path16" fill="#ffffff" stroke="none" d="M 42 158 C 40.896 158 40 158.895996 40 160 C 40 161.104004 40.896 162 42 162 C 43.104 162 44 161.104004 44 160 C 44 158.895996 43.104 158 42 158"/>
    <path id="path17" fill="#ffffff" stroke="none" d="M 48 158 C 46.896 158 46 158.895996 46 160 C 46 161.104004 46.896 162 48 162 C 49.104 162 50 161.104004 50 160 C 50 158.895996 49.104 158 48 158"/>
    <path id="path18" fill="#ffffff" stroke="none" d="M 54 158 C 52.896 158 52 158.895996 52 160 C 52 161.104004 52.896 162 54 162 C 55.104 162 56 161.104004 56 160 C 56 158.895996 55.104 158 54 158"/>
    <path id="path19" fill="#ffffff" stroke="none" d="M 30 164 C 28.896 164 28 164.895996 28 166 C 28 167.104004 28.896 168 30 168 C 31.104 168 32 167.104004 32 166 C 32 164.895996 31.104 164 30 164"/>
    <path id="path20" fill="#ffffff" stroke="none" d="M 36 164 C 34.896 164 34 164.895996 34 166 C 34 167.104004 34.896 168 36 168 C 37.104 168 38 167.104004 38 166 C 38 164.895996 37.104 164 36 164"/>
    <path id="path21" fill="#ffffff" stroke="none" d="M 42 164 C 40.896 164 40 164.895996 40 166 C 40 167.104004 40.896 168 42 168 C 43.104 168 44 167.104004 44 166 C 44 164.895996 43.104 164 42 164"/>
    <path id="path22" fill="#ffffff" stroke="none" d="M 48 164 C 46.896 164 46 164.895996 46 166 C 46 167.104004 46.896 168 48 168 C 49.104 168 50 167.104004 50 166 C 50 164.895996 49.104 164 48 164"/>
    <path id="path23" fill="#ffffff" stroke="none" d="M 54 164 C 52.896 164 52 164.895996 52 166 C 52 167.104004 52.896 168 54 168 C 55.104 168 56 167.104004 56 166 C 56 164.895996 55.104 164 54 164"/>
    <path id="path24" fill="#ffffff" stroke="none" d="M 30 170 C 28.896 170 28 170.895996 28 172 C 28 173.104004 28.896 174 30 174 C 31.104 174 32 173.104004 32 172 C 32 170.895996 31.104 170 30 170"/>
    <path id="path25" fill="#ffffff" stroke="none" d="M 36 170 C 34.896 170 34 170.895996 34 172 C 34 173.104004 34.896 174 36 174 C 37.104 174 38 173.104004 38 172 C 38 170.895996 37.104 170 36 170"/>
    <path id="path26" fill="#ffffff" stroke="none" d="M 42 170 C 40.896 170 40 170.895996 40 172 C 40 173.104004 40.896 174 42 174 C 43.104 174 44 173.104004 44 172 C 44 170.895996 43.104 170 42 170"/>
    <path id="path27" fill="#ffffff" stroke="none" d="M 48 170 C 46.896 170 46 170.895996 46 172 C 46 173.104004 46.896 174 48 174 C 49.104 174 50 173.104004 50 172 C 50 170.895996 49.104 170 48 170"/>
    <path id="path28" fill="#ffffff" stroke="none" d="M 54 170 C 52.896 170 52 170.895996 52 172 C 52 173.104004 52.896 174 54 174 C 55.104 174 56 173.104004 56 172 C 56 170.895996 55.104 170 54 170"/>
    <path id="path29" fill="#ffffff" stroke="none" d="M 198 152 C 196.895996 152 196 152.895996 196 154 C 196 155.104004 196.895996 156 198 156 C 199.104004 156 200 155.104004 200 154 C 200 152.895996 199.104004 152 198 152"/>
    <path id="path30" fill="#ffffff" stroke="none" d="M 214 152 C 212.895996 152 212 152.895996 212 154 C 212 155.104004 212.895996 156 214 156 C 215.104004 156 216 155.104004 216 154 C 216 152.895996 215.104004 152 214 152"/>
    <path id="path31" fill="#ffffff" stroke="none" d="M 230 152 C 228.895996 152 228 152.895996 228 154 C 228 155.104004 228.895996 156 230 156 C 231.104004 156 232 155.104004 232 154 C 232 152.895996 231.104004 152 230 152"/>
    <path id="path32" fill="#ffffff" stroke="none" d="M 198 164 C 196.895996 164 196 164.895996 196 166 C 196 167.104004 196.895996 168 198 168 C 199.104004 168 200 167.104004 200 166 C 200 164.895996 199.104004 164 198 164"/>
    <path id="path33" fill="#ffffff" stroke="none" d="M 214 164 C 212.895996 164 212 164.895996 212 166 C 212 167.104004 212.895996 168 214 168 C 215.104004 168 216 167.104004 216 166 C 216 164.895996 215.104004 164 214 164"/>
    <path id="path34" fill="#ffffff" stroke="none" d="M 230 164 C 228.895996 164 228 164.895996 228 166 C 228 167.104004 228.895996 168 230 168 C 231.104004 168 232 167.104004 232 166 C 232 164.895996 231.104004 164 230 164"/>
    <path id="path35" fill="#ffffff" stroke="none" d="M 198 176 C 196.895996 176 196 176.895996 196 178 C 196 179.104004 196.895996 180 198 180 C 199.104004 180 200 179.104004 200 178 C 200 176.895996 199.104004 176 198 176"/>
    <path id="path36" fill="#ffffff" stroke="none" d="M 214 176 C 212.895996 176 212 176.895996 212 178 C 212 179.104004 212.895996 180 214 180 C 215.104004 180 216 179.104004 216 178 C 216 176.895996 215.104004 176 214 176"/>
    <path id="path37" fill="#ffffff" stroke="none" d="M 230 176 C 228.895996 176 228 176.895996 228 178 C 228 179.104004 228.895996 180 230 180 C 231.104004 180 232 179.104004 232 178 C 232 176.895996 231.104004 176 230 176"/>
</svg>
