<?xml version="1.0" encoding="UTF-8"?>
<!-- Generated by Pixelmator Pro 3.7.1 -->
<svg width="256" height="256" viewBox="0 0 256 256" xmlns="http://www.w3.org/2000/svg">
    <path id="Path" fill="#ffffff" stroke="none" d="M 172 144 C 172 146.209 170.209 148 168 148 L 88 148 C 85.791 148 84 146.209 84 144 L 84 92 C 84 89.791 85.791 88 88 88 L 168 88 C 170.209 88 172 89.791 172 92 Z M 168 84 L 88 84 C 83.588997 84 80 87.589005 80 92 L 80 144 C 80 148.411011 83.588997 152 88 152 L 168 152 C 172.410995 152 176 148.411011 176 144 L 176 92 C 176 87.589005 172.410995 84 168 84"/>
    <path id="path1" fill="#ffffff" stroke="none" d="M 188 216 L 68 216 L 60 212 L 68 188 L 76 188 L 84 188 L 84 192.882004 C 76.882004 194.205994 72 196.893005 72 200 C 72 204.417999 81.849998 208 94 208 C 106.150002 208 116 204.417999 116 200 C 116 198.94101 115.418999 197.93399 114.391998 197.01001 C 115.365997 197.632004 116.57 198 117.894997 198 C 118.365997 198 118.837997 197.951996 119.296997 197.858002 L 120.848 197.541992 C 121.872002 199.027008 123.728996 200 125.895004 200 C 126.365997 200 126.837997 199.951996 127.296997 199.858002 L 135.502991 198.18399 C 135.800003 198.123001 136.082001 198.037994 136.356003 197.942001 C 136.125 198.593002 136 199.279999 136 200 C 136 204.636002 141.046997 208 148 208 C 152.320007 208 155.904999 206.701004 158 204.604996 C 160.095001 206.701004 163.679993 208 168 208 C 174.953003 208 180 204.636002 180 200 C 180 199.86499 179.996002 199.731003 179.987 199.598999 C 184.800995 198.576004 188 195.690002 188 192 C 188 190.511993 187.475006 189.156998 186.537003 188 L 188 188 L 196 212 Z M 196 233.858994 L 188 240 L 188 220 L 196 216 Z M 184 240 L 72 240 L 72 220 L 184 220 Z M 68 240 L 60 237.117004 L 60 216 L 68 220 Z M 64 176 L 72 184 L 68 184 L 65.116997 184 L 64 184 Z M 184 184 L 192 176 L 192 184 L 190.882996 184 L 188 184 Z M 168 192 C 168 189.791 171.582001 188 176 188 C 180.417999 188 184 189.791 184 192 C 184 194.209 180.417999 196 176 196 C 171.582001 196 168 194.209 168 192 M 168 196 C 172.417999 196 176 197.791 176 200 C 176 202.209 172.417999 204 168 204 C 163.582001 204 160 202.209 160 200 C 160 197.791 163.582001 196 168 196 M 148 192 C 148 189.791 151.582001 188 156 188 C 160.417999 188 164 189.791 164 192 C 164 194.209 160.417999 196 156 196 C 151.582001 196 148 194.209 148 192 M 148 196 C 152.417999 196 156 197.791 156 200 C 156 202.209 152.417999 204 148 204 C 143.582001 204 140 202.209 140 200 C 140 197.791 143.582001 196 148 196 M 125.296997 193.735001 L 133.502991 192.061005 C 133.703995 192.020004 133.906998 192 134.104996 192 C 135.113007 192 136 192.5 136 193.162994 C 136 193.662994 135.477997 194.106003 134.703003 194.264999 L 126.498001 195.938995 C 126.294998 195.979996 126.093002 196 125.895004 196 C 124.886002 196 124 195.5 124 194.837006 C 124 194.337006 124.522003 193.893997 125.296997 193.735001 M 117.296997 191.735001 L 125.501999 190.061005 C 125.705002 190.020004 125.906998 190 126.104996 190 C 127.113998 190 128 190.5 128 191.162994 C 128 191.662994 127.477997 192.106003 126.703003 192.264999 L 118.498001 193.938995 C 118.294998 193.979996 118.093002 194 117.894997 194 C 116.886002 194 116 193.5 116 192.837006 C 116 192.337006 116.522003 191.893997 117.296997 191.735001 M 90 196 C 88.896004 196 88 195.104004 88 194 L 88 192.304001 L 88 190.630997 C 89.82 191.498993 91.848999 192 94 192 C 96.151001 192 98.18 191.498993 100 190.630997 L 100 192.304001 L 100 194 C 100 195.104004 99.103996 196 98 196 L 94 196 Z M 101.981003 184 C 101.078003 185.197998 99.912003 186.188004 98.571999 186.882996 C 98.521004 186.908997 98.468002 186.932999 98.417 186.958008 C 98.151001 187.089996 97.879997 187.209991 97.602997 187.317001 C 97.508003 187.354004 97.412003 187.389008 97.315002 187.423004 C 97.071999 187.51001 96.823997 187.584991 96.571999 187.652008 C 96.458 187.682999 96.344002 187.714996 96.227997 187.740997 C 95.974998 187.798996 95.716003 187.843994 95.456001 187.882004 C 95.346001 187.89801 95.237 187.919998 95.125 187.932999 C 94.755997 187.975006 94.380997 188 94 188 C 93.619003 188 93.244003 187.975006 92.875 187.932999 C 92.763 187.919998 92.653999 187.89801 92.543999 187.882004 C 92.283997 187.843994 92.025002 187.798996 91.772003 187.740997 C 91.655998 187.714996 91.542 187.682999 91.428001 187.652008 C 91.176003 187.584991 90.928001 187.51001 90.684998 187.423004 C 90.587997 187.389008 90.491997 187.354004 90.397003 187.317001 C 90.120003 187.209991 89.848999 187.089996 89.583 186.958008 C 89.531998 186.932999 89.478996 186.908997 89.428001 186.882996 C 88.087997 186.188004 86.921997 185.197998 86.018997 184 C 84.758003 182.326004 84 180.252991 84 178 C 84 172.485992 88.486 168 94 168 C 99.514 168 104 172.485992 104 178 C 104 180.252991 103.241997 182.326004 101.981003 184 M 84.700996 196.80899 C 85.709999 198.705002 87.706001 200 90 200 L 98 200 C 100.293999 200 102.290001 198.705002 103.299004 196.80899 C 107.976997 197.686996 110.845001 199.085999 111.786003 200 C 110.329002 201.415009 104.282997 204 94 204 C 83.717003 204 77.670998 201.415009 76.213997 200 C 77.154999 199.085999 80.023003 197.686996 84.700996 196.80899 M 113.489998 196.294006 C 111.377998 194.82901 108.052002 193.636002 104 192.882004 L 104 188 L 115.846001 188 C 113.525002 188.722992 112 190.589996 112 192.837006 C 112 194.181 112.561996 195.38501 113.489998 196.294006 M 134.104996 188 C 133.634003 188 133.162003 188.048004 132.703003 188.141998 L 131.152008 188.458008 C 131.041992 188.298004 130.917999 188.147003 130.789001 188 L 134.104996 188 L 145.462997 188 C 144.524994 189.156998 144 190.511993 144 192 C 144 192.13501 144.003998 192.268997 144.013 192.401001 C 142.466995 192.729996 141.089996 193.252991 139.929001 193.931 C 139.970001 193.679993 140 193.425003 140 193.162994 C 140 190.268005 137.410995 188 134.104996 188 M 64 164 L 94 164 L 176.350006 164 C 176.126999 164.626999 176 165.298004 176 166 C 176 169.30899 178.690994 172 182 172 L 186 172 C 189.309006 172 192 169.30899 192 166 C 192 165.298004 191.873001 164.626999 191.649994 164 L 192 164 L 192 166 L 192 170.343002 L 178.343002 184 L 106.635002 184 C 107.500999 182.179993 108 180.149994 108 178 C 108 170.268005 101.732002 164 94 164 C 86.267998 164 80 170.268005 80 178 C 80 180.149994 80.499001 182.179993 81.364998 184 L 77.656998 184 L 64 170.343002 Z M 188 166 C 188 167.104004 187.104004 168 186 168 L 182 168 C 180.895996 168 180 167.104004 180 166 C 180 164.895996 180.895996 164 182 164 L 186 164 C 187.104004 164 188 164.895996 188 166 M 68 68 L 188 68 L 192 160 L 186 160 L 182 160 L 64 160 Z M 68 28 L 72 24 L 184 24 L 188 28 L 188 64 L 68 64 Z M 68 20 L 72 16 L 184 16 L 188 20 L 188 22.343002 L 186.828003 21.171005 L 185.656998 20 L 184 20 L 72 20 L 70.343002 20 L 69.170998 21.171005 L 68 22.343002 Z M 196 200 L 196 172 L 196 164 L 196 160 L 196 159.912994 L 195.996002 159.826004 L 192 67.912994 L 192 64 L 192 28 L 192 26.343002 L 192 20 L 192 18.343002 L 190.828003 17.171005 L 186.828003 13.171005 L 185.656998 12 L 184 12 L 72 12 L 70.343002 12 L 69.170998 13.171005 L 65.170998 17.171005 L 64 18.343002 L 64 20 L 64 26.343002 L 64 28 L 64 64 L 64 67.912994 L 60.003998 159.826004 L 60 159.912994 L 60 160 L 60 164 L 60 172 L 60 200 L 56 212 L 56 240 L 68 244 L 188 244 L 200 236 L 200 212 Z"/>
</svg>
