<?xml version="1.0" encoding="UTF-8"?>
<!-- Generated by Pixelmator Pro 3.7.1 -->
<svg width="256" height="256" viewBox="0 0 256 256" xmlns="http://www.w3.org/2000/svg">
    <path id="Path" fill="#ffffff" stroke="none" d="M 68 92 L 188 92 L 188 160 L 68 160 Z M 64 164 L 192 164 L 192 88 L 64 88 Z"/>
    <path id="path1" fill="#ffffff" stroke="none" d="M 38 120 C 32.477001 120 28 115.522995 28 110 C 28 104.477005 32.477001 100 38 100 C 43.522999 100 48 104.477005 48 110 C 48 115.522995 43.522999 120 38 120 M 52 110 C 52 102.268005 45.731998 96 38 96 C 30.268 96 24 102.268005 24 110 C 24 117.731995 30.268 124 38 124 C 45.731998 124 52 117.731995 52 110"/>
    <path id="path2" fill="#ffffff" stroke="none" d="M 54 164 L 46 164 C 44.896 164 44 163.104004 44 162 C 44 160.895996 44.896 160 46 160 L 54 160 C 55.104 160 56 160.895996 56 162 C 56 163.104004 55.104 164 54 164 M 48 148 L 52 148 C 53.653999 148 55 149.346008 55 151 C 55 152.653992 53.653999 154 52 154 L 48 154 C 46.346001 154 45 152.653992 45 151 C 45 149.346008 46.346001 148 48 148 M 56.345001 156.479004 C 57.959999 155.194 59 153.218002 59 151 C 59 147.140991 55.860001 144 52 144 L 48 144 C 44.139999 144 41 147.140991 41 151 C 41 153.218002 42.040001 155.194 43.654999 156.479004 C 41.508999 157.393005 40 159.52301 40 162 C 40 165.30899 42.691002 168 46 168 L 54 168 C 57.308998 168 60 165.30899 60 162 C 60 159.52301 58.491001 157.393005 56.345001 156.479004"/>
    <path id="path3" fill="#ffffff" stroke="none" d="M 210 164 L 202 164 C 200.895996 164 200 163.104004 200 162 C 200 160.895996 200.895996 160 202 160 L 210 160 C 211.104004 160 212 160.895996 212 162 C 212 163.104004 211.104004 164 210 164 M 204 148 L 208 148 C 209.654007 148 211 149.346008 211 151 C 211 152.653992 209.654007 154 208 154 L 204 154 C 202.345993 154 201 152.653992 201 151 C 201 149.346008 202.345993 148 204 148 M 212.345993 156.479004 C 213.960007 155.194 215 153.218002 215 151 C 215 147.140991 211.858994 144 208 144 L 204 144 C 200.141006 144 197 147.140991 197 151 C 197 153.218002 198.039993 155.194 199.654007 156.479004 C 197.509003 157.393005 196 159.52301 196 162 C 196 165.30899 198.690994 168 202 168 L 210 168 C 213.309006 168 216 165.30899 216 162 C 216 159.52301 214.490997 157.393005 212.345993 156.479004"/>
    <path id="path4" fill="#ffffff" stroke="none" d="M 230 119 C 227.242996 119 225 116.757004 225 114 C 225 111.242996 227.242996 109 230 109 C 232.757004 109 235 111.242996 235 114 C 235 116.757004 232.757004 119 230 119 M 218 131 C 215.242996 131 213 128.757004 213 126 C 213 123.242996 215.242996 121 218 121 C 220.757004 121 223 123.242996 223 126 C 223 128.757004 220.757004 131 218 131 M 206 119 C 203.242996 119 201 116.757004 201 114 C 201 111.242996 203.242996 109 206 109 C 208.757004 109 211 111.242996 211 114 C 211 116.757004 208.757004 119 206 119 M 221.902008 110.097 C 221.330002 111.279999 221 112.600998 221 114 C 221 115.399002 221.330002 116.720001 221.902008 117.903 C 220.720993 117.330002 219.399002 117 218 117 C 216.600998 117 215.279007 117.330002 214.097992 117.903 C 214.669998 116.720001 215 115.399002 215 114 C 215 112.600998 214.669998 111.279999 214.097992 110.097 C 215.279999 110.669006 216.600998 111 218 111 C 219.399002 111 220.720001 110.669998 221.902008 110.097 M 218 97 C 220.757004 97 223 99.242996 223 102 C 223 104.757004 220.757004 107 218 107 C 215.242996 107 213 104.757004 213 102 C 213 99.242996 215.242996 97 218 97 M 230 105 C 228.600998 105 227.279007 105.330002 226.098007 105.903 C 226.669998 104.720001 227 103.399002 227 102 C 227 97.037003 222.962997 93 218 93 C 213.037003 93 209 97.037003 209 102 C 209 103.399002 209.330002 104.720001 209.902008 105.903 C 208.721008 105.330002 207.399002 105 206 105 C 201.037003 105 197 109.037003 197 114 C 197 118.962006 201.037003 123 206 123 C 207.399002 123 208.720001 122.669998 209.902008 122.097 C 209.330002 123.279999 209 124.600998 209 126 C 209 130.962997 213.037003 135 218 135 C 222.962997 135 227 130.962997 227 126 C 227 124.600998 226.669998 123.279999 226.098007 122.097 C 227.279999 122.669006 228.600998 123 230 123 C 234.962997 123 239 118.962006 239 114 C 239 109.037003 234.962997 105 230 105"/>
    <path id="path5" fill="#ffffff" stroke="none" d="M 240 88 C 240 88 240 80 232 80 L 212 80 C 212 77.791 213.791 76 216 76 L 228 76 C 236.837006 76 240 80.477005 240 86 Z M 240 96 L 240 164 C 240 170.617004 234.617004 176 228 176 L 28 176 C 21.382996 176 16 170.617004 16 164 L 16 96 L 16 93.656998 L 18.828995 90.828995 L 20.042007 89.761993 L 20 88.046997 C 20.009003 87.692993 20.143997 86.569 20.656006 85.639999 C 21.102997 84.828995 21.848999 84 24 84 L 232 84 C 234.151001 84 234.897003 84.828995 235.345001 85.639999 C 235.856003 86.569 235.990997 87.692993 236 88 L 235.959 89.615997 L 237.171997 90.828995 L 240 93.656998 Z M 16 86 C 16 80.477005 19.164001 76 28 76 L 40 76 C 42.209 76 44 77.791 44 80 L 24 80 C 16 80 16 88 16 88 Z M 52 76 L 58.343002 76 C 59.404007 76 60.421005 76.421005 61.171005 77.171005 L 64 80 L 48 80 C 48 77.791 49.791 76 52 76 M 194.828003 77.171005 C 195.578003 76.421005 196.596008 76 197.656998 76 L 204 76 C 206.209 76 208 77.791 208 80 L 192 80 Z M 228 72 L 216 72 C 213.608994 72 211.466995 73.059006 210 74.725998 C 208.533005 73.059006 206.390991 72 204 72 L 197.656998 72 C 195.520004 72 193.511002 72.832001 192 74.343002 L 189.171997 77.171005 C 188.410995 77.932007 188.001007 78.953995 188.001007 80 L 67.998993 80 C 67.998993 78.953995 67.589005 77.932007 66.828995 77.171005 L 64 74.343002 C 62.488998 72.832001 60.479996 72 58.343002 72 L 52 72 C 49.610001 72 47.466995 73.059006 46 74.725998 C 44.533005 73.059006 42.389999 72 40 72 L 28 72 C 13.154007 72 12 82.716003 12 86 L 12 92 L 12 96 L 12 164 C 12 172.837006 19.164001 180 28 180 L 228 180 C 236.837006 180 244 172.837006 244 164 L 244 96 L 244 92 L 244 86 C 244 82.716003 242.845993 72 228 72"/>
</svg>
