<?xml version="1.0" encoding="UTF-8"?>
<!-- Generated by Pixelmator Pro 3.7.1 -->
<svg width="256" height="256" viewBox="0 0 256 256" xmlns="http://www.w3.org/2000/svg">
    <path id="Path" fill="#ffffff" stroke="none" d="M 240.257797 56 L 239.999802 56 L 239.999802 180 L 15.999804 180 L 15.999804 56 L 15.741794 56 C 11.999804 56 11.999804 52 11.999804 48 C 11.999804 44 11.999804 36 15.741794 28 L 240.257797 28 C 243.999802 36 243.999802 44 243.999802 48 C 243.999802 52 243.999802 56 240.257797 56 M 237.450806 228 L 18.5488 228 C 17.410799 228 16.441805 227.401993 15.999804 226.542999 L 15.999804 184 L 239.999802 184 L 239.999802 226.542999 C 239.558807 227.401993 238.588806 228 237.450806 228 M 243.880798 26.304993 L 242.802795 24 L 240.257797 24 L 15.741794 24 L 13.196795 24 L 12.118793 26.304993 C 7.999804 35.110992 7.999804 43.815994 7.999804 48 C 7.999804 50.266006 7.999804 52.608994 8.648807 54.690994 C 9.272799 56.690994 10.435794 58.186996 11.999804 59.072006 L 11.999804 226.542999 L 11.999804 227.511002 L 12.442798 228.371994 C 13.592807 230.608994 15.931796 232 18.5488 232 L 237.450806 232 C 240.067795 232 242.406799 230.608994 243.5578 228.371994 L 243.999802 227.511002 L 243.999802 226.542999 L 243.999802 59.072006 C 245.564804 58.186996 246.726807 56.690994 247.3508 54.690994 C 247.999802 52.608994 247.999802 50.266006 247.999802 48 C 247.999802 43.815994 247.999802 35.110992 243.880798 26.304993"/>
    <path id="path1" fill="#ffffff" stroke="none" d="M 143.682602 198.198196 L 129.043594 215.517197 C 128.772598 215.839203 128.386597 216.000198 127.999603 216.000198 C 127.613602 216.000198 127.2276 215.839203 126.955597 215.517197 L 112.317596 198.198196 C 111.579597 197.325195 112.209602 196.000198 113.361603 196.000198 L 142.637604 196.000198 C 143.790604 196.000198 144.419601 197.325195 143.682602 198.198196 M 142.637604 192.000198 L 113.361603 192.000198 C 111.280602 192.000198 109.370598 193.217194 108.497597 195.098206 C 107.614601 197.001205 107.9086 199.1772 109.262604 200.780197 L 123.900597 218.099197 C 124.9216 219.30719 126.415596 220.000198 127.999603 220.000198 C 129.584595 220.000198 131.078598 219.30719 132.099594 218.099197 L 146.737595 200.780197 C 148.091599 199.1772 148.384598 197.001205 147.502594 195.098206 C 146.628601 193.217194 144.719604 192.000198 142.637604 192.000198"/>
    <path id="path2" fill="#ffffff" stroke="none" d="M 220 164.333008 C 220 166.358002 218.283997 168 216.167007 168 L 39.832993 168 C 37.716003 168 36 166.358002 36 164.333008 L 36 83.666 C 36 81.641998 37.716003 80 39.832993 80 L 216.167007 80 C 218.283997 80 220 81.641998 220 83.666 Z M 216.167007 76 L 39.832993 76 C 35.514008 76 32 79.438995 32 83.666 L 32 164.333008 C 32 168.561005 35.514008 172 39.832993 172 L 216.167007 172 C 220.485992 172 224 168.561005 224 164.333008 L 224 83.666 C 224 79.438995 220.485992 76 216.167007 76"/>
    <path id="path3" fill="#ffffff" stroke="none" d="M 32 36 L 224 36 L 224 32 L 32 32 Z"/>
    <path id="path4" fill="#ffffff" stroke="none" d="M 32 44 L 224 44 L 224 40 L 32 40 Z"/>
    <path id="path5" fill="#ffffff" stroke="none" d="M 32 52 L 224 52 L 224 48 L 32 48 Z"/>
    <path id="path6" fill="#ffffff" stroke="none" d="M 220 56 L 36 56 L 36 60 L 220 60 Z"/>
    <path id="path7" fill="#ffffff" stroke="none" d="M 36 68 L 220 68 L 220 64 L 36 64 Z"/>
    <path id="path8" fill="#ffffff" stroke="none" d="M 228 220 L 156 220 L 156 196 L 228 196 Z M 156 192 L 152 192 L 152 196 L 152 220 L 152 224 L 156 224 L 228 224 L 232 224 L 232 220 L 232 196 L 232 192 L 228 192 Z"/>
    <path id="path9" fill="#ffffff" stroke="none" d="M 100 220 L 28 220 L 28 196 L 100 196 Z M 28 192 L 24 192 L 24 196 L 24 220 L 24 224 L 28 224 L 100 224 L 104 224 L 104 220 L 104 196 L 104 192 L 100 192 Z"/>
</svg>
