<?xml version="1.0" encoding="UTF-8"?>
<!-- Generated by Pixelmator Pro 3.7.1 -->
<svg width="256" height="256" viewBox="0 0 256 256" xmlns="http://www.w3.org/2000/svg">
    <path id="Path" fill="#ffffff" stroke="none" d="M 236 48 L 20 48 C 13.382996 48 8 53.386002 8 60.007004 L 8 195.992996 C 8 202.613007 13.382004 208 19.996994 208 L 20.207001 207.998001 L 236.207001 204.270996 C 242.710007 204.158005 248 198.772995 248 192.264999 L 248 60.007004 C 248 53.386002 242.617004 48 236 48 M 236 52 C 240.417999 52 244 55.585007 244 60.007004 L 244 192.264999 C 244 196.634003 240.501999 200.195999 236.138 200.270996 L 20.138 203.998993 C 20.091003 204 20.044006 204 19.996994 204 C 15.589996 204 12 200.421997 12 195.992996 L 12 60.007004 C 12 55.585007 15.582001 52 20 52 Z"/>
</svg>
