<?xml version="1.0" encoding="UTF-8"?>
<!-- Generated by Pixelmator Pro 3.7.1 -->
<svg width="256" height="256" viewBox="0 0 256 256" xmlns="http://www.w3.org/2000/svg">
    <path id="Path" fill="#ffffff" stroke="none" d="M 198 122 C 198 118.686005 200.686005 116 204 116 C 207.313995 116 210 118.686005 210 122 C 210 125.313004 207.313995 128 204 128 C 200.686005 128 198 125.313004 198 122 M 78.124001 168 L 81.875999 168 C 83.049004 168 84 168.895004 84 170 C 84 171.104004 83.049004 172 81.875999 172 L 78.124001 172 C 76.950996 172 76 171.104004 76 170 C 76 168.895004 76.950996 168 78.124001 168 M 72 166 C 72 169.313004 69.313995 172 66 172 C 62.686005 172 60 169.313004 60 166 Z M 78.124001 164 C 77.375999 164 76.663002 164.139008 76 164.380005 L 76 164 Z M 86 165.576996 C 84.911003 164.602005 83.464996 164 81.875999 164 L 90.124001 164 C 88.535004 164 87.088997 164.602005 86 165.576996 M 93.875999 168 C 95.049004 168 96 168.895004 96 170 C 96 171.104004 95.049004 172 93.875999 172 L 90.124001 172 C 88.950996 172 88 171.104004 88 170 C 88 168.895004 88.950996 168 90.124001 168 Z M 196 128 L 196 160 L 60 160 L 60 84 L 196 84 L 196 116 L 196.020004 116 C 194.757996 117.673996 194 119.748001 194 122 C 194 124.251999 194.757996 126.326004 196.020004 128 Z M 200 166 C 200 169.313004 197.313004 172 194 172 C 190.686996 172 188 169.313004 188 166 Z M 184 166 C 184 169.313004 181.313995 172 178 172 C 174.686996 172 172 169.313004 172 166 Z M 162.123001 168 L 165.876999 168 C 167.050003 168 168 168.895996 168 170.001007 C 168 171.104004 167.050003 172 165.876999 172 L 162.123001 172 C 160.953003 172 160 171.104004 160 170.001007 C 160 168.895996 160.953003 168 162.123001 168 M 156 170.001007 C 156 171.104004 155.050003 172 153.876999 172 L 150.123001 172 C 148.953003 172 148 171.104004 148 170.001007 C 148 168.895996 148.953003 168 150.123001 168 L 153.876999 168 C 155.050003 168 156 168.895996 156 170.001007 M 153.876999 164 L 162.123001 164 C 160.533997 164 159.089996 164.602005 158 165.576996 C 156.910004 164.602005 155.466003 164 153.876999 164 M 168 164.380005 C 167.337006 164.139008 166.623993 164 165.876999 164 L 168 164 Z M 212 108 C 212 104.686005 214.686005 102 218 102 C 221.313995 102 224 104.686005 224 108 C 224 111.313995 221.313995 114 218 114 C 214.686005 114 212 111.313995 212 108 M 224 136 C 224 139.311996 221.313995 142 218 142 C 214.686005 142 212 139.311996 212 136 C 212 132.688004 214.686005 130 218 130 C 221.313995 130 224 132.688004 224 136 M 218 126 C 215.714005 126 213.610001 126.779999 211.925003 128.076004 C 213.220993 126.389008 214 124.285995 214 122 C 214 119.714005 213.220993 117.610992 211.925003 115.923996 C 213.610001 117.220001 215.714005 118 218 118 C 220.285995 118 222.389999 117.220001 224.074997 115.923996 C 222.778992 117.610992 222 119.714005 222 122 C 222 124.285995 222.778992 126.389008 224.074997 128.076004 C 222.389999 126.779999 220.285995 126 218 126 M 238 122 C 238 125.313004 235.313995 128 232 128 C 228.686005 128 226 125.313004 226 122 C 226 118.686005 228.686005 116 232 116 C 235.313995 116 238 118.686005 238 122 M 228 168 L 212 168 C 205.901001 168 200 176.009995 200 176.009995 L 56 176.009995 L 56 176 L 55.992996 176 C 55.912994 175.893005 50.056 168 44 168 L 28 168 C 28 168 -3.466003 129.856995 28 84 L 44 84 C 44 84 49.414001 82.585999 56 76 L 200 76 C 206.585999 82.585999 212 84 212 84 L 228 84 C 236.621002 96.563004 240.511993 108.544998 241.626007 119.324997 C 240.451996 115.108002 236.587006 112 232 112 C 229.714005 112 227.610001 112.779999 225.925003 114.076004 C 227.221008 112.389008 228 110.285995 228 108 C 228 102.485992 223.514008 98 218 98 C 212.485992 98 208 102.485992 208 108 C 208 110.285995 208.779007 112.389008 210.074997 114.076004 C 208.389999 112.779999 206.285995 112 204 112 C 202.578003 112 201.227005 112.302994 200 112.841003 L 200 92.041 L 200.283997 92 L 200 92 L 200 84 L 200 80 L 196 80 L 60 80 L 56 80 L 56 84 L 56 120.529999 L 56 160 L 56 162 L 56 164 L 56 166 C 56 171.514008 60.485992 176 66 176 C 68.695999 176 71.141998 174.923004 72.942001 173.182999 C 74.026001 174.871002 75.941002 176 78.124001 176 L 81.875999 176 C 83.464996 176 84.911003 175.397995 86 174.423004 C 87.088997 175.397995 88.535004 176 90.124001 176 L 93.875999 176 C 97.252998 176 100 173.30899 100 170 C 100 166.69101 97.252998 164 93.875999 164 L 150.123001 164 C 146.747009 164 144 166.692001 144 170.001007 C 144 173.30899 146.747009 176 150.123001 176 L 153.876999 176 C 155.466003 176 156.910004 175.397995 158 174.423004 C 159.089996 175.397995 160.533997 176 162.123001 176 L 165.876999 176 C 168.059998 176 169.975006 174.872009 171.059006 173.182999 C 172.858994 174.923004 175.304993 176 178 176 C 181.272995 176 184.175003 174.412003 186 171.975006 C 187.824997 174.412003 190.727005 176 194 176 C 199.514008 176 204 171.514008 204 166 L 204 162 L 200 162 L 200 160 L 200 131.158997 C 201.227005 131.696991 202.578003 132 204 132 C 206.285995 132 208.389999 131.221008 210.074997 129.925003 C 208.779007 131.610001 208 133.713989 208 136 C 208 141.514008 212.485992 146 218 146 C 223.514008 146 228 141.514008 228 136 C 228 133.713989 227.221008 131.610001 225.925003 129.925003 C 227.610001 131.221008 229.714005 132 232 132 C 237.095001 132 241.304001 128.167999 241.915009 123.235992 C 243.080994 149.709991 228 168 228 168 M 38.320999 176 C 36.481995 176 33.901993 174 31.781006 172 L 44 172 C 46.091003 172 48.748993 174.061005 50.688004 176 L 40 176 Z M 38.320999 76 L 40 76 L 50.016006 76 C 46.820007 78.554001 44.306 79.645996 43.356995 80 L 31.781006 80 C 33.901993 78 36.481995 76 38.320999 76 M 217.679001 76 C 219.518005 76 222.097992 78 224.218994 80 L 212.636993 80 C 211.720001 79.658005 209.199005 78.569 205.983994 76 L 216 76 Z M 232.804993 84 L 231.194 81.585999 L 229.834991 80 C 226.727997 76.507996 221.897995 72 217.679001 72 L 216 72 L 201.656998 72 L 200 72 L 56 72 L 54.343002 72 L 40 72 L 38.320999 72 C 36.375 72 32.292999 73.080994 26.162003 80 L 24.806 81.585999 L 23.195007 84 C 7.658005 108.041 8.645996 129.90799 12.326996 144.194 C 15.285004 155.677002 20.317993 164.044998 23.041 168 L 24.923004 170.556 C 24.923004 170.557007 24.923996 170.557007 24.925003 170.557999 L 26.162003 172 C 32.292999 178.919006 36.375 180 38.320999 180 L 40 180 L 53.972 180 L 53.979004 180.009995 L 56 180.009995 L 200 180.009995 L 202.020996 180.009995 L 203.220993 178.382996 C 204.766006 176.304993 208.951004 172 212 172 L 228 172 L 229.886002 172 L 231.085999 170.544998 C 231.429993 170.127991 239.565002 160.140991 243.673996 144.194 C 247.354004 129.90799 248.343002 108.041 232.804993 84"/>
    <path id="path1" fill="#ffffff" stroke="none" d="M 36.0005 160 C 31.581499 160 28.0005 156.417999 28.0005 152 C 28.0005 147.582001 31.581499 144 36.0005 144 C 40.418499 144 44.0005 147.582001 44.0005 152 C 44.0005 156.417999 40.418499 160 36.0005 160 M 36.0005 140 C 29.383499 140 24.0005 145.382996 24.0005 152 C 24.0005 158.617004 29.383499 164 36.0005 164 C 42.6175 164 48.0005 158.617004 48.0005 152 C 48.0005 145.382996 42.6175 140 36.0005 140"/>
    <path id="path2" fill="#ffffff" stroke="none" d="M 50.416 125.410202 L 50.416 125.599197 L 44.396999 125.599197 L 41.438999 122.538193 C 39.381001 120.477203 41.438999 118.631195 41.438999 118.631195 L 44.396999 115.568207 L 50.416 115.568207 L 50.416 115.650192 C 51.313 116.046204 52 118.073196 52 120.530197 C 52 122.989197 51.313 125.014206 50.416 125.410202 M 41.015999 134.416199 L 40.931999 134.416199 C 40.536999 135.313202 38.509998 136.000198 36.051998 136.000198 C 33.592999 136.000198 31.566999 135.313202 31.172001 134.416199 L 30.983 134.416199 L 30.983 128.39621 L 34.044998 125.440201 C 34.731998 124.754196 35.395 124.525208 35.973999 124.525208 C 37.131001 124.525208 37.952999 125.440201 37.952999 125.440201 L 41.015999 128.39621 Z M 20 120.530197 C 20 118.073196 20.686001 116.046204 21.584 115.650192 L 21.584 115.568207 L 27.603001 115.568207 L 30.559 118.631195 C 30.559 118.631195 32.618 120.477203 30.559 122.538193 L 27.603001 125.599197 L 21.584 125.599197 L 21.584 125.410202 C 20.686001 125.014206 20 122.989197 20 120.530197 M 36.645 119.426193 C 36.583 119.749207 36.536999 120.083206 36.527 120.440201 C 36.526001 120.479202 36.528999 120.525192 36.528 120.565201 C 36.345001 120.549194 36.166 120.525192 35.973999 120.525192 C 35.815998 120.525192 35.646999 120.532196 35.471001 120.546204 C 35.470001 120.512207 35.473 120.473206 35.472 120.440201 C 35.461998 120.088196 35.417 119.758194 35.355999 119.440201 C 35.572998 119.461197 35.783001 119.475204 35.973999 119.475204 C 36.207001 119.475204 36.425999 119.450195 36.645 119.426193 M 30.983 105.584198 L 31.172001 105.584198 C 31.566999 104.686203 33.592999 104.000198 36.051998 104.000198 C 38.509998 104.000198 40.536999 104.686203 40.931999 105.584198 L 41.015999 105.584198 L 41.015999 111.604202 L 37.952999 114.560196 C 37.952999 114.560196 37.131001 115.475204 35.973999 115.475204 C 35.395 115.475204 34.731998 115.246201 34.044998 114.560196 L 30.983 111.604202 Z M 50.416 111.568207 L 45.015999 111.568207 L 45.015999 105.584198 C 45.015999 104.474197 44.563999 103.471207 43.834999 102.746201 C 41.800999 100.294205 37.833 100.000198 36.051998 100.000198 C 34.375 100.000198 30.759001 100.2612 28.644001 102.339203 C 27.638 103.065201 26.983 104.248199 26.983 105.584198 L 26.983 111.568207 L 21.584 111.568207 C 20.479 111.568207 19.479 112.016205 18.755001 112.740204 C 16.295002 114.771194 16 118.747192 16 120.530197 C 16 122.207199 16.261002 125.825195 18.339001 127.939194 C 19.066 128.94519 20.249001 129.599197 21.584 129.599197 L 26.983 129.599197 L 26.983 134.416199 C 26.983 135.752197 27.638 136.935196 28.644001 137.662201 C 30.759001 139.739197 34.375 140.000198 36.051998 140.000198 C 37.833 140.000198 41.800999 139.706207 43.834999 137.254196 C 44.563999 136.529205 45.015999 135.525208 45.015999 134.416199 L 45.015999 129.599197 L 50.416 129.599197 C 51.751999 129.599197 52.935001 128.944199 53.660999 127.938202 C 55.738998 125.824203 56 122.207199 56 120.530197 C 56 118.748199 55.705002 114.773193 53.245998 112.741196 C 52.521999 112.016205 51.521 111.568207 50.416 111.568207"/>
    <path id="path3" fill="#ffffff" stroke="none" d="M 188 152 L 152 152 L 148 152 L 108 152 L 104 152 L 68 152 L 68 92 L 117.083 92 L 124 92 L 132 92 L 138.917999 92 L 188 92 Z M 132 88 L 124 88 L 64 88 L 64 156 L 104 156 L 108 156 L 148 156 L 152 156 L 192 156 L 192 88 Z"/>
    <path id="path4" fill="#ffffff" stroke="none" d="M 140 92 C 131.177994 92 124 99.177994 124 108 C 124 116.822006 131.177994 124 140 124 C 148.822006 124 156 116.822006 156 108 C 156 99.177994 148.822006 92 140 92 M 140 96 C 146.626999 96 152 101.373001 152 108 C 152 114.626999 146.626999 120 140 120 C 133.373001 120 128 114.626999 128 108 C 128 101.373001 133.373001 96 140 96"/>
    <path id="path5" fill="#ffffff" stroke="none" d="M 132 120 L 128 120 L 123.636002 120 L 121.979004 120 L 120.807999 121.171005 L 116 125.979004 L 111.192001 121.171005 L 110.020996 120 L 108.363998 120 L 104 120 L 100 120 L 100 124 L 100 128.363998 L 100 130.020996 L 101.170998 131.192001 L 105.979004 136 L 101.170998 140.807999 L 100 141.979004 L 100 143.636993 L 100 148 L 100 152 L 104 152 L 108.363998 152 L 110.020996 152 L 111.192001 150.828003 L 116 146.020996 L 120.807999 150.828003 L 121.979004 152 L 123.636002 152 L 128 152 L 132 152 L 132 148 L 132 143.636993 L 132 141.979004 L 130.828003 140.807999 L 126.020996 136 L 130.828003 131.192001 L 132 130.020996 L 132 128.363998 L 132 124 Z M 128 124 L 128 128.363998 L 120.363998 136 L 128 143.636993 L 128 148 L 123.636002 148 L 116 140.363007 L 108.363998 148 L 104 148 L 104 143.636993 L 111.636002 136 L 104 128.363998 L 104 124 L 108.363998 124 L 116 131.636993 L 123.636002 124 Z"/>
    <path id="path6" fill="#ffffff" stroke="none" d="M 104 120 L 116 96 L 128 120 Z M 119.578003 94.210999 L 116.472 88 L 115.528 88 L 112.421997 94.210999 L 100.421997 118.210999 L 97.528 124 L 104 124 L 128 124 L 134.472992 124 L 131.578003 118.210999 Z"/>
    <path id="path7" fill="#ffffff" stroke="none" d="M 140 148 L 128 136 L 140 124 L 152 136 Z M 154.828003 133.171997 L 142.828003 121.171005 L 141.656998 120 L 138.343002 120 L 137.171997 121.171005 L 125.170998 133.171997 L 122.343002 136 L 125.170998 138.828003 L 137.171997 150.828003 L 140 153.656998 L 142.828003 150.828003 L 154.828003 138.828003 L 157.656998 136 Z"/>
</svg>
