<?xml version="1.0" encoding="UTF-8"?>
<!-- Generated by Pixelmator Pro 3.7.1 -->
<svg width="256" height="256" viewBox="0 0 256 256" xmlns="http://www.w3.org/2000/svg">
    <path id="Path" fill="#ffffff" stroke="none" d="M 239.904297 240.876999 L 227.507294 225.380005 C 224.263306 221.324997 219.425293 219 214.2323 219 L 41.767307 219 C 36.575306 219 31.736301 221.324997 28.492298 225.380005 L 16.095295 240.876999 L 14.028293 243.460999 C 12.822299 242.772003 12.000293 241.488007 12.000293 240 L 12.000293 16 C 12.000293 13.791 13.791293 12 16.000294 12 L 220.000305 12 L 224.000305 12 L 224.000305 128 C 224.000305 128.001999 224.001297 144 244.000305 144 L 244.000305 240 C 244.000305 241.488007 243.177307 242.772003 241.971298 243.460999 Z M 20.000294 244 L 32.397297 228.503998 C 34.674305 225.656998 38.122303 224 41.767307 224 L 214.2323 224 C 217.878296 224 221.326294 225.656998 223.602295 228.503998 L 236.000305 244 Z M 228.000305 22 C 228.000305 18.686996 230.686295 16 234.000305 16 C 237.313293 16 240.000305 18.686996 240.000305 22 C 240.000305 25.313995 237.313293 28 234.000305 28 C 230.686295 28 228.000305 25.313995 228.000305 22 M 228.000305 74 C 228.000305 70.686996 230.686295 68 234.000305 68 C 237.313293 68 240.000305 70.686996 240.000305 74 C 240.000305 77.313995 237.313293 80 234.000305 80 C 230.686295 80 228.000305 77.313995 228.000305 74 M 228.000305 81.981003 C 229.674301 83.242004 231.747299 84 234.000305 84 C 239.513306 84 244.000305 79.513992 244.000305 74 C 244.000305 68.485992 239.513306 64 234.000305 64 C 231.747299 64 229.674301 64.757996 228.000305 66.018997 L 228.000305 29.981003 C 229.674301 31.242004 231.747299 32 234.000305 32 C 239.513306 32 244.000305 27.513992 244.000305 22 C 244.000305 16.485992 239.513306 12 234.000305 12 C 231.747299 12 229.674301 12.757996 228.000305 14.018997 L 228.000305 12 L 234.000305 12 L 240.000305 12 C 242.209305 12 244.000305 13.791 244.000305 16 L 244.000305 22 L 244.000305 74 L 244.000305 140 C 237.322296 140 232.630295 138.026001 230.054306 134.134003 C 228.080307 131.14801 228.000305 127.997009 228.000305 127.964996 Z M 240.000305 8 L 228.000305 8 L 224.000305 8 L 220.000305 8 L 16.000294 8 C 11.589297 8 8.000293 11.589005 8.000293 16 L 8.000293 240 C 8.000293 242.746002 9.391299 245.173004 11.506305 246.613007 L 9.596301 249 L 20.000294 249 L 236.000305 249 L 246.403305 249 L 244.494293 246.613007 C 246.608307 245.173004 248.000305 242.746002 248.000305 240 L 248.000305 144 L 248.000305 140 L 248.000305 16 C 248.000305 11.589005 244.411301 8 240.000305 8"/>
</svg>
