<?xml version="1.0" encoding="UTF-8"?>
<!-- Generated by Pixelmator Pro 3.7.1 -->
<svg width="256" height="256" viewBox="0 0 256 256" xmlns="http://www.w3.org/2000/svg">
    <path id="Path" fill="#ffffff" stroke="none" d="M 200 116 L 188 116 L 188 131.27301 C 186.985001 131.936996 183.087997 133.699005 169.447998 134.81601 C 159.576996 135.623993 146.406998 136 128 136 C 109.593002 136 96.422997 135.623993 86.552002 134.81601 C 72.912003 133.699005 69.014999 131.936996 68 131.27301 L 68 116 L 56 116 L 56 80 L 56.052002 80 C 56.876007 51.511002 75.200996 27.287003 100.945999 17.123993 L 102.148003 23.138 C 103.639 30.591003 110.237 36 117.837997 36 L 138.162003 36 C 145.763 36 152.360992 30.591003 153.852005 23.138 L 155.054001 17.123993 C 180.798996 27.287003 199.123993 51.511002 199.947998 80 L 200 80 Z M 200 176 C 200 213.554993 167.764999 244 128 244 C 129.278 244 130.546997 243.990997 131.807999 243.975006 C 130.546997 243.990997 129.278 244 128 244 C 126.722 244 125.453003 243.990997 124.192001 243.975006 C 125.453003 243.990997 126.722 244 128 244 C 88.235001 244 56 213.554993 56 176 L 56 120 L 64 120 L 64 132 C 64 138.626999 92.653999 140 128 140 C 163.346008 140 192 138.626999 192 132 L 192 120 L 200 120 Z M 200 226 C 200 233.983002 155.028992 242.694 157.247009 242.446991 C 177.287003 234.494995 192.994003 218.630997 200 199 Z M 56 226 L 56 199 C 63.005997 218.630997 78.712997 234.494995 98.752998 242.446991 C 100.971001 242.694 56 233.983002 56 226 M 149.436005 24.084991 C 147.740997 28.772003 143.272995 32 138.162003 32 L 117.837997 32 C 112.726997 32 108.259003 28.772003 106.564003 24.084991 C 106.464996 23.811996 106.374001 23.533997 106.292 23.252991 C 106.292 23.252991 106.292 23.252991 106.292 23.252991 C 106.372002 23.536011 106.464996 23.811996 106.564003 24.084991 C 106.463997 23.811005 106.371002 23.53299 106.291 23.248993 C 106.291 23.25 106.292 23.251007 106.292 23.252991 C 113.142998 21.147003 120.431999 20 128 20 C 135.567993 20 142.856995 21.147003 149.708008 23.252991 C 149.708008 23.251999 149.708008 23.251007 149.709 23.25 C 149.628998 23.533997 149.535995 23.811005 149.436005 24.084991 C 149.535004 23.811996 149.627991 23.536011 149.708008 23.252991 C 149.708008 23.252991 149.708008 23.252991 149.708008 23.252991 C 149.626007 23.533997 149.535004 23.811996 149.436005 24.084991 M 151.25 15.751007 L 150.533997 19.32901 C 143.235992 17.123993 135.65799 16 128 16 C 120.342003 16 112.764 17.123993 105.466003 19.32901 L 104.75 15.751007 C 108.160004 14.619003 111.686996 13.737 115.304001 13.106003 C 115.678001 13.041992 116.051003 12.973999 116.427002 12.915009 C 117.029999 12.819 117.636002 12.735992 118.244003 12.654999 C 118.766998 12.585999 119.291 12.522003 119.818001 12.463989 C 120.341003 12.406006 120.864998 12.350998 121.391998 12.304001 C 122.060997 12.244003 122.734001 12.197998 123.408997 12.156998 C 123.823997 12.130997 124.237 12.100006 124.653999 12.080994 C 125.763 12.031006 126.877998 12 128 12 C 129.122009 12 130.237 12.031006 131.346008 12.080994 C 131.763 12.100006 132.175995 12.130997 132.591003 12.156998 C 133.265991 12.197998 133.938995 12.244003 134.608002 12.304001 C 135.13501 12.350998 135.658997 12.406006 136.182007 12.463989 C 136.709 12.522003 137.233002 12.585999 137.755997 12.654999 C 138.363998 12.735992 138.970001 12.819 139.572998 12.915009 C 139.949005 12.973999 140.321991 13.041992 140.695999 13.106003 C 144.313004 13.737 147.839996 14.619003 151.25 15.751007 M 203.731003 76 C 202.261002 58.130997 194.266998 41.544998 180.968002 28.945999 C 173.643005 22.007004 165.110992 16.682999 155.852997 13.132996 L 155.865997 13.067993 L 153.953995 12.432999 C 149.748993 10.947998 145.403992 9.833008 140.959 9.091003 C 140.662003 9.041 140.365997 8.98999 140.067993 8.942993 C 139.372009 8.834991 138.673996 8.737 137.972992 8.64801 C 137.484009 8.584991 136.994003 8.528992 136.503998 8.475006 C 135.924011 8.412994 135.345001 8.350998 134.761993 8.300995 C 134.093002 8.242996 133.423004 8.199997 132.751999 8.160004 C 132.30899 8.132996 131.867004 8.098999 131.423004 8.080002 C 130.283997 8.029999 129.143005 8 128 8 C 126.857002 8 125.716003 8.029999 124.577003 8.080002 C 124.133003 8.098999 123.691002 8.132996 123.248001 8.160004 C 122.577003 8.199997 121.906998 8.242996 121.237999 8.300995 C 120.654999 8.350998 120.075996 8.412994 119.496002 8.475006 C 119.005997 8.528992 118.515999 8.584991 118.027 8.64801 C 117.325996 8.737 116.627998 8.834991 115.931999 8.942993 C 115.634003 8.98999 115.337997 9.041 115.041 9.091003 C 110.596001 9.833008 106.250999 10.947998 102.045998 12.432999 L 100.134003 13.067993 L 100.147003 13.132996 C 90.889 16.682999 82.357002 22.007004 75.031998 28.945999 C 61.733002 41.544998 53.738998 58.130997 52.268997 76 L 52 76 L 52 80 L 52 226 C 52 233.019989 60.115005 238.608002 76.117996 242.609009 C 90.025002 246.085007 108.450996 248 128 248 C 147.548996 248 165.975006 246.085007 179.882004 242.609009 C 195.884995 238.608002 204 233.019989 204 226 L 204 80 L 204 76 Z"/>
    <path id="path1" fill="#ffffff" stroke="none" d="M 176 112 C 176 120.822006 168.822006 128 160 128 L 96 128 C 87.178001 128 80 120.822006 80 112 L 80 68 C 80 56.972 88.972 48 100 48 L 128 48 L 156 48 C 167.028 48 176 56.972 176 68 Z M 156 44 L 128 44 L 100 44 C 86.800003 44 76 54.800003 76 68 L 76 112 C 76 123 85 132 96 132 L 160 132 C 171 132 180 123 180 112 L 180 68 C 180 54.800003 169.199997 44 156 44"/>
    <path id="path2" fill="#ffffff" stroke="none" d="M 96 56 L 160 56 L 160 120 L 96 120 Z M 92 124 L 164 124 L 164 52 L 92 52 Z"/>
    <path id="path3" fill="#ffffff" stroke="none" d="M 80 180 C 75.582001 180 72 176.417999 72 172 C 72 167.582001 75.582001 164 80 164 C 84.417999 164 88 167.582001 88 172 C 88 176.417999 84.417999 180 80 180 M 80 160 C 73.373001 160 68 165.373001 68 172 C 68 178.626999 73.373001 184 80 184 C 86.626999 184 92 178.626999 92 172 C 92 165.373001 86.626999 160 80 160"/>
    <path id="path4" fill="#ffffff" stroke="none" d="M 104 148 C 108.417999 148 112 151.582001 112 156 C 112 160.417999 108.417999 164 104 164 C 99.582001 164 96 160.417999 96 156 C 96 151.582001 99.582001 148 104 148 M 104 168 C 110.626999 168 116 162.626999 116 156 C 116 149.373001 110.626999 144 104 144 C 97.373001 144 92 149.373001 92 156 C 92 162.626999 97.373001 168 104 168"/>
    <path id="path5" fill="#ffffff" stroke="none" d="M 104 200 C 99.582001 200 96 196.417999 96 192 C 96 187.582001 99.582001 184 104 184 C 108.417999 184 112 187.582001 112 192 C 112 196.417999 108.417999 200 104 200 M 104 180 C 97.373001 180 92 185.373001 92 192 C 92 198.626999 97.373001 204 104 204 C 110.626999 204 116 198.626999 116 192 C 116 185.373001 110.626999 180 104 180"/>
    <path id="path6" fill="#ffffff" stroke="none" d="M 128 188 C 123.582001 188 120 184.417999 120 180 C 120 175.582001 123.582001 172 128 172 C 132.417999 172 136 175.582001 136 180 C 136 184.417999 132.417999 188 128 188 M 128 168 C 121.373001 168 116 173.373001 116 180 C 116 186.626999 121.373001 192 128 192 C 134.626999 192 140 186.626999 140 180 C 140 173.373001 134.626999 168 128 168"/>
    <path id="path7" fill="#ffffff" stroke="none" d="M 176 184 C 169.373001 184 164 178.626999 164 172 C 164 165.373001 169.373001 160 176 160 C 182.626999 160 188 165.373001 188 172 C 188 178.626999 182.626999 184 176 184 M 176 156 C 167.162994 156 160 163.162994 160 172 C 160 180.837006 167.162994 188 176 188 C 184.837006 188 192 180.837006 192 172 C 192 163.162994 184.837006 156 176 156"/>
</svg>
