<?xml version="1.0" encoding="UTF-8"?>
<!-- Generated by Pixelmator Pro 3.7.1 -->
<svg width="256" height="256" viewBox="0 0 256 256" xmlns="http://www.w3.org/2000/svg">
    <path id="Path" fill="#ffffff" stroke="none" d="M 128 196 L 223.524994 196 L 237.88501 196 L 240 196 L 240 222 L 128 222 Z M 16 222 C 14.843002 222 13.801003 210.451996 13.070999 192 L 124 192 L 124 196 L 124 222 Z M 16 34 L 240 34 C 242.209 34 244 76.084991 244 128 C 244 150.817001 243.653 171.720001 243.078003 188 L 12.920998 188 C 12.346001 171.721008 12 150.811005 12 128 C 12 76.084991 13.791 34 16 34 M 244 222 L 244 196 L 244 193.985001 C 245.328003 193.419998 246.919006 192.402008 247.003998 190.149002 C 247.645996 172.958008 248 150.886993 248 128 C 248 102.837006 247.583008 79.17099 246.824997 61.362 C 246.45401 52.651993 246.020996 45.796997 245.537003 40.985992 C 245.278 38.412994 245.011993 36.485992 244.722992 35.095001 C 243.662994 30 240.906006 30 240 30 L 16 30 C 12.336998 30 11.540001 33.835007 11.278 35.095001 C 10.987999 36.485992 10.722 38.412994 10.462997 40.985992 C 9.978996 45.796997 9.545998 52.651993 9.175003 61.362 C 8.417 79.17099 8 102.837006 8 128 C 8 153.162994 8.417 176.82901 9.175003 194.638 C 9.545998 203.347992 9.978996 210.203003 10.462997 215.014008 C 10.722 217.587006 10.987999 219.514008 11.278 220.903992 C 12.336998 226 15.094002 226 16 226 L 124 226 L 128 226 L 240 226 L 244 226 Z"/>
</svg>
