<?xml version="1.0" encoding="UTF-8"?>
<!-- Generated by Pixelmator Pro 3.7.1 -->
<svg width="256" height="256" viewBox="0 0 256 256" xmlns="http://www.w3.org/2000/svg">
    <path id="Path" fill="#ffffff" stroke="none" d="M 196 128 L 196 32.475006 L 196 18.11499 L 196 16 L 222 16 L 222 128 Z M 222 240 C 222 241.156998 210.451996 242.199005 192 242.929993 L 192 132 L 196 132 L 222 132 Z M 34 240 L 34 16 C 34 13.791 76.084999 12 128 12 C 150.817001 12 171.720001 12.347 188 12.921997 L 188 243.07901 C 171.721008 243.653992 150.811005 244 128 244 C 76.084999 244 34 242.209 34 240 M 222 12 L 196 12 L 193.985001 12 C 193.419998 10.67099 192.401993 9.080994 190.149002 8.997009 C 172.958008 8.354004 150.886993 8 128 8 C 102.836998 8 79.170998 8.416992 61.362 9.175003 C 52.651993 9.54599 45.796997 9.979004 40.985992 10.462997 C 38.412994 10.722 36.485992 10.988007 35.095001 11.278 C 30 12.337006 30 15.093994 30 16 L 30 240 C 30 243.662994 33.835007 244.459991 35.095001 244.722992 C 36.485992 245.011993 38.412994 245.278 40.985992 245.537003 C 45.796997 246.020996 52.651993 246.45401 61.362 246.824997 C 79.170998 247.583008 102.836998 248 128 248 C 153.162994 248 176.828995 247.583008 194.638 246.824997 C 203.348007 246.45401 210.203003 246.020996 215.014008 245.537003 C 217.587006 245.278 219.514008 245.011993 220.903992 244.722992 C 226 243.662994 226 240.906006 226 240 L 226 132 L 226 128 L 226 16 L 226 12 Z"/>
</svg>
