<?xml version="1.0" encoding="UTF-8"?>
<!-- Generated by Pixelmator Pro 3.7.1 -->
<svg width="256" height="256" viewBox="0 0 256 256" xmlns="http://www.w3.org/2000/svg">
    <path id="Path" fill="#ffffff" stroke="none" d="M 231.924805 8 C 234.175797 8 235.999802 9.791 235.999802 12 L 235.999802 216 C 235.999802 218.209 234.175797 220 231.924805 220 L 24.074795 220 C 21.824795 220 19.999798 218.209 19.999798 216 L 19.999798 12 C 19.999798 9.791 21.824795 8 24.074795 8 Z M 228.611801 244 L 27.388805 244 C 25.432796 244 23.764797 242.585999 23.442806 240.656998 L 23.333797 240 L 232.666794 240 L 232.556793 240.656998 C 232.235794 242.585999 230.566803 244 228.611801 244 M 233.999802 232 L 233.332794 236 L 22.666805 236 L 21.999798 232 Z M 235.470795 223.177002 L 234.666794 228 L 21.333797 228 L 20.528805 223.177002 C 21.601803 223.697998 22.8018 224 24.074795 224 L 231.924805 224 C 233.196793 224 234.398804 223.697998 235.470795 223.177002 M 15.999797 12 L 15.999797 216 L 19.496807 241.315002 C 20.142803 245.188004 23.461803 248 27.388805 248 L 228.611801 248 C 232.537796 248 235.857803 245.188004 236.502808 241.315002 L 239.999802 216 L 239.999802 12 C 239.999802 7.589005 236.376801 4 231.924805 4 L 24.074795 4 C 19.622799 4 15.999797 7.589005 15.999797 12"/>
</svg>
