<?xml version="1.0" encoding="UTF-8"?>
<!-- Generated by Pixelmator Pro 3.7.1 -->
<svg width="256" height="256" viewBox="0 0 256 256" xmlns="http://www.w3.org/2000/svg">
    <path id="Path" fill="#ffffff" stroke="none" d="M 48 94.666504 C 48.736 94.666504 49.333 94.069504 49.333 93.333496 C 49.333 92.596497 48.736 91.999496 48 91.999496 C 47.264 91.999496 46.667 92.596497 46.667 93.333496 C 46.667 94.069504 47.264 94.666504 48 94.666504"/>
    <path id="path1" fill="#ffffff" stroke="none" d="M 50.6665 97.333496 C 51.4035 97.333496 51.9995 96.736496 51.9995 96.000504 C 51.9995 95.263504 51.4035 94.666504 50.6665 94.666504 C 49.9305 94.666504 49.3335 95.263504 49.3335 96.000504 C 49.3335 96.736496 49.9305 97.333496 50.6665 97.333496"/>
    <path id="path2" fill="#ffffff" stroke="none" d="M 45.3335 97.333496 C 46.0695 97.333496 46.6665 96.736496 46.6665 96.000504 C 46.6665 95.263504 46.0695 94.666504 45.3335 94.666504 C 44.5965 94.666504 44.0005 95.263504 44.0005 96.000504 C 44.0005 96.736496 44.5965 97.333496 45.3335 97.333496"/>
    <path id="path3" fill="#ffffff" stroke="none" d="M 48 97.333496 C 47.264 97.333496 46.667 97.930496 46.667 98.666504 C 46.667 99.402496 47.264 100.000504 48 100.000504 C 48.736 100.000504 49.333 99.402496 49.333 98.666504 C 49.333 97.930496 48.736 97.333496 48 97.333496"/>
    <path id="path4" fill="#ffffff" stroke="none" d="M 36.0005 159.995102 C 31.581499 159.995102 28.0005 156.413101 28.0005 151.995102 C 28.0005 147.577103 31.581499 143.995102 36.0005 143.995102 C 40.418499 143.995102 44.0005 147.577103 44.0005 151.995102 C 44.0005 156.413101 40.418499 159.995102 36.0005 159.995102 M 48.0005 151.995102 C 48.0005 145.378098 42.6175 139.995102 36.0005 139.995102 C 29.383499 139.995102 24.0005 145.378098 24.0005 151.995102 C 24.0005 158.612091 29.383499 163.995102 36.0005 163.995102 C 42.6175 163.995102 48.0005 158.612091 48.0005 151.995102"/>
    <path id="path5" fill="#ffffff" stroke="none" d="M 50.416 125.405304 L 50.416 125.594299 L 44.396999 125.594299 L 41.438999 122.533295 C 39.381001 120.472305 41.438999 118.626297 41.438999 118.626297 L 44.396999 115.563293 L 50.416 115.563293 L 50.416 115.645294 C 51.313 116.041306 52 118.068298 52 120.525299 C 52 122.984299 51.313 125.009293 50.416 125.405304 M 41.015999 134.411301 L 40.931999 134.411301 C 40.536999 135.308289 38.509998 135.9953 36.051998 135.9953 C 33.592999 135.9953 31.566999 135.308289 31.172001 134.411301 L 30.983 134.411301 L 30.983 128.391296 L 34.044998 125.435303 C 34.731998 124.748306 35.395 124.520294 35.973999 124.520294 C 37.131001 124.520294 37.952999 125.435303 37.952999 125.435303 L 41.015999 128.391296 Z M 27.603001 125.594299 L 21.584 125.594299 L 21.584 125.405304 C 20.686001 125.009293 20 122.984299 20 120.525299 C 20 118.068298 20.686001 116.041306 21.584 115.645294 L 21.584 115.563293 L 27.603001 115.563293 L 30.559 118.626297 C 30.559 118.626297 32.618 120.472305 30.559 122.533295 Z M 36.528 120.560303 C 36.345001 120.544296 36.166 120.520294 35.973999 120.520294 C 35.815998 120.520294 35.646999 120.527298 35.471001 120.541306 C 35.470001 120.507294 35.473 120.468307 35.472 120.435303 C 35.461998 120.083298 35.417 119.753296 35.355999 119.435303 C 35.572998 119.456299 35.783001 119.470306 35.973999 119.470306 C 36.207001 119.470306 36.425999 119.445297 36.645 119.421295 C 36.583 119.743301 36.536999 120.078293 36.527 120.435303 C 36.526001 120.474304 36.528999 120.519302 36.528 120.560303 M 30.983 105.5793 L 31.172001 105.5793 C 31.566999 104.681305 33.592999 103.9953 36.051998 103.9953 C 38.509998 103.9953 40.536999 104.681305 40.931999 105.5793 L 41.015999 105.5793 L 41.015999 111.599304 L 37.952999 114.555298 C 37.952999 114.555298 37.131001 115.470306 35.973999 115.470306 C 35.395 115.470306 34.731998 115.241302 34.044998 114.555298 L 30.983 111.599304 Z M 50.416 111.563293 L 45.015999 111.563293 L 45.015999 105.5793 C 45.015999 104.469299 44.563999 103.466293 43.834999 102.741302 C 41.800999 100.289307 37.833 99.9953 36.051998 99.9953 C 34.375 99.9953 30.759001 100.256302 28.644001 102.333298 C 27.638 103.060303 26.983 104.243301 26.983 105.5793 L 26.983 111.563293 L 21.584 111.563293 C 20.479 111.563293 19.479 112.0103 18.755001 112.735306 C 16.295002 114.766296 16 118.742294 16 120.525299 C 16 122.202301 16.261002 125.820297 18.339001 127.934296 C 19.066 128.940308 20.249001 129.594299 21.584 129.594299 L 26.983 129.594299 L 26.983 134.411301 C 26.983 135.747299 27.638 136.930298 28.644001 137.656311 C 30.759001 139.734299 34.375 139.9953 36.051998 139.9953 C 37.833 139.9953 41.800999 139.701294 43.834999 137.249298 C 44.563999 136.524292 45.015999 135.520294 45.015999 134.411301 L 45.015999 129.594299 L 50.416 129.594299 C 51.751999 129.594299 52.935001 128.939301 53.660999 127.933304 C 55.738998 125.819305 56 122.202301 56 120.525299 C 56 118.743301 55.705002 114.768295 53.245998 112.736298 C 52.521999 112.011307 51.521 111.563293 50.416 111.563293"/>
    <path id="path6" fill="#ffffff" stroke="none" d="M 188 91.995102 L 188 92.005096 L 188 151.995102 L 188 152.005096 L 68 152.005096 L 68 151.995102 L 68 92.005096 L 68 91.995102 Z M 64 155.995102 L 192 155.995102 L 192 87.995102 L 64 87.995102 Z"/>
    <path id="path7" fill="#ffffff" stroke="none" d="M 228 167.995102 L 212 167.995102 C 210.102005 167.995102 208.222 168.772095 206.533005 169.842102 C 208.016006 168.1371 208.419006 165.789093 207.522995 163.704102 C 206.557999 161.454102 204.302002 160.000092 201.777008 160.000092 L 200 160.000092 L 200 131.154099 C 201.227005 131.692108 202.578003 131.995102 204 131.995102 C 206.285995 131.995102 208.389999 131.216095 210.074997 129.920105 C 208.778992 131.605103 208 133.709106 208 135.995102 C 208 141.509094 212.485992 145.995102 218 145.995102 C 223.514008 145.995102 228 141.509094 228 135.995102 C 228 133.709106 227.220993 131.605103 225.925003 129.920105 C 227.610001 131.216095 229.714005 131.995102 232 131.995102 C 237.095001 131.995102 241.304001 128.163101 241.914993 123.231094 C 243.080994 149.705109 228 167.995102 228 167.995102 M 40 175.995102 L 38.320999 175.995102 C 36.481995 175.995102 33.901993 173.995102 31.781006 171.995102 L 44 171.995102 C 46.091003 171.995102 48.748993 174.056091 50.688004 175.995102 Z M 198 121.995102 C 198 118.681107 200.686005 115.995102 204 115.995102 C 207.313995 115.995102 210 118.681107 210 121.995102 C 210 125.308105 207.313995 127.995102 204 127.995102 C 200.686005 127.995102 198 125.308105 198 121.995102 M 196.020004 115.995102 C 194.757996 117.669098 194 119.743103 194 121.995102 C 194 124.247101 194.757996 126.321106 196.020004 127.995102 L 196 127.995102 L 196 159.995102 L 60 159.995102 L 60 83.995102 L 196 83.995102 L 196 115.995102 Z M 203.397995 167.364105 L 196 174.778107 C 195.18399 175.566101 194.087006 176.000092 192.912994 176.000092 L 190 176.000092 C 193.30899 176.000092 196 173.308105 196 170.000092 C 196 166.691101 193.30899 164.000092 190 164.000092 L 201.777008 164.000092 C 202.701004 164.000092 203.514008 164.503098 203.847992 165.282104 C 204.156006 166.001099 203.983994 166.799103 203.397995 167.364105 M 86 164.000092 L 102 164.000092 L 154 164.000092 C 150.69101 164.000092 148 166.691101 148 170.000092 C 148 173.308105 150.69101 176.000092 154 176.000092 L 102 176.000092 L 86 176.000092 L 63.087006 176.000092 C 61.912994 176.000092 60.817001 175.566101 60 174.778107 L 52.602005 167.364105 C 52.016006 166.799103 51.843002 166.001099 52.151993 165.282104 C 52.485992 164.503098 53.298996 164.000092 54.223007 164.000092 Z M 154 172.000092 C 152.899994 172.000092 152 171.099091 152 170.000092 C 152 168.900101 152.899994 168.000092 154 168.000092 L 166 168.000092 C 167.100006 168.000092 168 168.900101 168 170.000092 C 168 171.099091 167.100006 172.000092 166 172.000092 Z M 172 170.000092 C 172 173.308105 174.69101 176.000092 178 176.000092 L 166 176.000092 C 169.30899 176.000092 172 173.308105 172 170.000092 C 172 166.691101 169.30899 164.000092 166 164.000092 L 178 164.000092 C 174.69101 164.000092 172 166.691101 172 170.000092 M 190 168.000092 C 191.100006 168.000092 192 168.900101 192 170.000092 C 192 171.099091 191.100006 172.000092 190 172.000092 L 178 172.000092 C 176.899994 172.000092 176 171.099091 176 170.000092 C 176 168.900101 176.899994 168.000092 178 168.000092 Z M 212 107.995102 C 212 104.681107 214.686005 101.995102 218 101.995102 C 221.313995 101.995102 224 104.681107 224 107.995102 C 224 111.309097 221.313995 113.995102 218 113.995102 C 214.686005 113.995102 212 111.309097 212 107.995102 M 224 135.995102 C 224 139.308105 221.313995 141.995102 218 141.995102 C 214.686005 141.995102 212 139.308105 212 135.995102 C 212 132.682098 214.686005 129.995102 218 129.995102 C 221.313995 129.995102 224 132.682098 224 135.995102 M 224.074997 128.071106 C 222.389999 126.774094 220.285995 125.995102 218 125.995102 C 215.714005 125.995102 213.610001 126.774094 211.925003 128.071106 C 213.220993 126.384094 214 124.281097 214 121.995102 C 214 119.709106 213.220993 117.606094 211.925003 115.919098 C 213.610001 117.215103 215.714005 117.995102 218 117.995102 C 220.285995 117.995102 222.389999 117.215103 224.074997 115.919098 C 222.779007 117.606094 222 119.709106 222 121.995102 C 222 124.281097 222.779007 126.384094 224.074997 128.071106 M 238 121.995102 C 238 125.308105 235.313995 127.995102 232 127.995102 C 228.686005 127.995102 226 125.308105 226 121.995102 C 226 118.681107 228.686005 115.995102 232 115.995102 C 235.313995 115.995102 238 118.681107 238 121.995102 M 28 167.995102 C 28 167.995102 -3.466003 129.852097 28 83.995102 L 44 83.995102 C 44 83.995102 49.414001 82.5811 56 75.995102 L 200 75.995102 C 206.585999 82.5811 212 83.995102 212 83.995102 L 228 83.995102 C 236.621002 96.558105 240.511993 108.5401 241.626007 119.320099 C 240.451996 115.102097 236.587006 111.995102 232 111.995102 C 229.714005 111.995102 227.610001 112.774094 225.925003 114.071106 C 227.220993 112.384094 228 110.281097 228 107.995102 C 228 102.481094 223.514008 97.995102 218 97.995102 C 212.485992 97.995102 208 102.481094 208 107.995102 C 208 110.281097 208.778992 112.384094 210.074997 114.071106 C 208.389999 112.774094 206.285995 111.995102 204 111.995102 C 202.578003 111.995102 201.227005 112.298096 200 112.836105 L 200 92.036102 L 200.283997 91.995102 L 200 91.995102 L 200 83.995102 L 200 79.995102 L 196 79.995102 L 60 79.995102 L 56 79.995102 L 56 83.995102 L 56 120.525101 L 56 159.995102 L 56 160.000092 L 54.223007 160.000092 C 51.697998 160.000092 49.442993 161.454102 48.477005 163.704102 C 47.582001 165.788101 47.983994 168.135101 49.464996 169.840103 C 47.776993 168.771103 45.897995 167.995102 44 167.995102 Z M 38.320999 75.995102 L 40 75.995102 L 50.016006 75.995102 C 46.820007 78.549103 44.306 79.641098 43.356995 79.995102 L 31.781006 79.995102 C 33.901993 77.995102 36.481995 75.995102 38.320999 75.995102 M 216 75.995102 L 217.679001 75.995102 C 219.518005 75.995102 222.098007 77.995102 224.218994 79.995102 L 212.636993 79.995102 C 211.720001 79.653091 209.199005 78.564102 205.983994 75.995102 Z M 232.804993 83.995102 L 231.194 81.5811 L 229.835007 79.995102 C 226.727997 76.503098 221.897995 71.995102 217.679001 71.995102 L 216 71.995102 L 201.656998 71.995102 L 200 71.995102 L 56 71.995102 L 54.343002 71.995102 L 40 71.995102 L 38.320999 71.995102 C 36.375 71.995102 32.292999 73.076096 26.162003 79.995102 L 24.806 81.5811 L 23.195007 83.995102 C 7.658005 108.036102 8.645996 129.9021 12.326996 144.189102 C 15.285004 155.672089 20.317993 164.0401 23.041 167.995102 L 24.923004 170.551102 C 24.923004 170.552094 24.923996 170.552094 24.925003 170.553101 L 26.162003 171.995102 C 32.292999 178.914093 36.375 179.995102 38.320999 179.995102 L 40 179.995102 L 53.972 179.995102 L 53.979004 180.005096 L 56 180.005096 L 200 180.005096 L 202.020996 180.005096 L 203.221008 178.378098 C 204.766006 176.30011 208.951004 171.995102 212 171.995102 L 228 171.995102 L 229.886002 171.995102 L 231.085999 170.5401 C 231.429993 170.123108 239.565002 160.135101 243.673996 144.189102 C 247.354004 129.9021 248.343002 108.036102 232.804993 83.995102"/>
    <path id="path8" fill="#ffffff" stroke="none" d="M 86 168 C 87.103996 168 88 168.895996 88 170 C 88 171.104004 87.103996 172 86 172 C 84.896004 172 84 171.104004 84 170 C 84 168.895996 84.896004 168 86 168 M 80 170 C 80 173.30899 82.691002 176 86 176 C 89.308998 176 92 173.30899 92 170 C 92 166.69101 89.308998 164 86 164 C 82.691002 164 80 166.69101 80 170"/>
    <path id="path9" fill="#ffffff" stroke="none" d="M 102 168 C 103.103996 168 104 168.895996 104 170 C 104 171.104004 103.103996 172 102 172 C 100.896004 172 100 171.104004 100 170 C 100 168.895996 100.896004 168 102 168 M 96 170 C 96 173.30899 98.691002 176 102 176 C 105.308998 176 108 173.30899 108 170 C 108 166.69101 105.308998 164 102 164 C 98.691002 164 96 166.69101 96 170"/>
</svg>
