<?xml version="1.0" encoding="UTF-8"?>
<!-- Generated by Pixelmator Pro 3.7.1 -->
<svg width="256" height="256" viewBox="0 0 256 256" xmlns="http://www.w3.org/2000/svg">
    <path id="Path" fill="#ffffff" stroke="none" d="M 244 224 L 128 224 C 127.999001 224 112 224.001007 112 244 L 16 244 C 13.791 244 12 242.209 12 240 L 12 16 C 12 13.791 13.791 12 16 12 L 240 12 C 242.209 12 244 13.791 244 16 L 244 220 Z M 240 234 C 240 237.313004 237.313004 240 234 240 C 230.686996 240 228 237.313004 228 234 C 228 230.686996 230.686996 228 234 228 C 237.313004 228 240 230.686996 240 234 M 188 234 C 188 237.313004 185.313004 240 182 240 C 178.686996 240 176 237.313004 176 234 C 176 230.686996 178.686996 228 182 228 C 185.313004 228 188 230.686996 188 234 M 244 234 L 244 240 C 244 242.209 242.209 244 240 244 L 234 244 L 182 244 L 116 244 C 116 237.321991 117.973999 232.630005 121.865997 230.054993 C 124.851997 228.080002 128.002991 228 128.035004 228 L 174.019989 228 C 172.757996 229.673996 172 231.746994 172 234 C 172 239.514008 176.485992 244 182 244 C 187.514008 244 192 239.514008 192 234 C 192 231.746994 191.242004 229.673996 189.979996 228 L 226.020004 228 C 224.757996 229.673996 224 231.746994 224 234 C 224 239.514008 228.485992 244 234 244 C 239.514008 244 244 239.514008 244 234 C 244 231.746994 243.242004 229.673996 241.979996 228 L 244 228 Z M 240 8 L 16 8 C 11.589005 8 8 11.589005 8 16 L 8 240 C 8 244.410995 11.589005 248 16 248 L 112 248 L 116 248 L 240 248 C 244.410995 248 248 244.410995 248 240 L 248 228 L 248 224 L 248 220 L 248 16 C 248 11.589005 244.410995 8 240 8"/>
</svg>
