<?xml version="1.0" encoding="UTF-8"?>
<!-- Generated by Pixelmator Pro 3.7.1 -->
<svg width="256" height="256" viewBox="0 0 256 256" xmlns="http://www.w3.org/2000/svg">
    <path id="Path" fill="#ffffff" stroke="none" d="M 216 216 L 41.985992 216 L 40 216 L 38.481003 213.975998 C 38.464005 213.994995 38.445007 214.011993 38.427002 214.029999 C 24.570999 196.283005 19.647003 178.645004 18.660004 164 L 22 164 C 23.100006 164 24 163.100006 24 162 C 24 160.899994 23.100006 160 22 160 L 18.483994 160 C 18.181 145.686996 21.473007 134.757996 23.110001 130.255005 C 30.186996 145.438995 40 152 40 152 L 216 152 C 216 152 225.266998 144.270996 232.283005 128.824005 C 236.268997 140.25 237.923996 150.665009 238.035995 160.003998 C 238.024002 160.003998 238.013 160 238 160 L 234 160 C 232.899994 160 232 160.899994 232 162 C 232 163.100006 232.899994 164 234 164 L 237.990997 164 C 236.811996 197.490997 216 216 216 216 M 34 216 C 30.690994 216 28 213.30899 28 210 C 28 208.962006 28.278 207.992996 28.744995 207.141998 C 30.556 210.057999 32.582993 212.992996 34.845993 215.932999 C 34.569 215.972992 34.287994 216 34 216 M 21.639008 113.015991 C 22.957993 112.372009 24.432999 112 26 112 C 31.522995 112 36 116.47699 36 122 C 36 126.730011 32.707001 130.669006 28.292999 131.705994 C 25.229004 126.001999 23.005997 119.757996 21.639008 113.015991 M 31.246994 53.363998 C 35.438004 46.304001 39.677994 41.819 41.557999 40 L 214.669006 40 C 216.472 41.438004 220.712997 45.186005 224.902008 51.567001 C 232.266998 62.783005 236 76.386993 236 92 C 236 111.578003 229.884003 125.992004 224.753006 134.636002 C 220.561996 141.695007 216.320999 146.181 214.442001 148 L 41.332001 148 C 39.528 146.561996 35.287003 142.813995 31.098007 136.432999 C 30.848007 136.052002 30.612 135.661011 30.369995 135.274002 C 35.977005 133.428009 40 128.145996 40 122 C 40 114.279999 33.720001 108 26 108 C 24.253998 108 22.542007 108.32901 20.934006 108.955002 C 20.319 104.807007 20 100.488998 20 96 C 20 76.421997 26.115997 62.007996 31.246994 53.363998 M 235.766998 126.654999 L 234.819 124 L 234.291992 124 C 237.585999 115.339996 240 104.678009 240 92 C 240 52 216 36 216 36 L 40 36 C 40 36 16 56 16 96 C 16 107.667999 18.048004 117.279999 20.940994 125.061996 L 20.358002 126.345001 C 20.141006 126.824005 15.020004 138.272003 14.501999 155.378998 C 14.126999 167.747009 16.212997 185.053009 26.529007 203.393997 C 24.966003 205.156006 24 207.458008 24 210 C 24 215.522003 28.477005 220 34 220 L 216 220 L 217.520996 220 L 218.656998 218.988998 C 219.052002 218.639008 228.395996 210.222992 235.169998 194.591003 C 241.386993 180.242996 246.537003 156.811996 235.766998 126.654999"/>
    <path id="path1" fill="#ffffff" stroke="none" d="M 204 140 L 52 140 L 52 136 L 204 136 Z M 52 48 L 204 48 L 204 132 L 52 132 Z M 208 136 L 208 132 L 208 48 L 208 44 L 204 44 L 52 44 L 48 44 L 48 48 L 48 132 L 48 136 L 48 144 L 208 144 Z"/>
    <path id="path2" fill="#ffffff" stroke="none" d="M 34 72 C 35.104 72 36 71.104004 36 70 C 36 68.895996 35.104 68 34 68 C 32.896 68 32 68.895996 32 70 C 32 71.104004 32.896 72 34 72"/>
    <path id="path3" fill="#ffffff" stroke="none" d="M 38 76 C 39.104 76 40 75.104004 40 74 C 40 72.895996 39.104 72 38 72 C 36.896 72 36 72.895996 36 74 C 36 75.104004 36.896 76 38 76"/>
    <path id="path4" fill="#ffffff" stroke="none" d="M 30 76 C 31.104 76 32 75.104004 32 74 C 32 72.895996 31.104 72 30 72 C 28.896 72 28 72.895996 28 74 C 28 75.104004 28.896 76 30 76"/>
    <path id="path5" fill="#ffffff" stroke="none" d="M 34 76 C 32.896 76 32 76.895996 32 78 C 32 79.104004 32.896 80 34 80 C 35.104 80 36 79.104004 36 78 C 36 76.895996 35.104 76 34 76"/>
    <path id="path6" fill="#ffffff" stroke="none" d="M 30 64 L 34 64 C 35.099998 64 36 63.100006 36 62 C 36 60.899994 35.099998 60 34 60 L 30 60 C 28.9 60 28 60.899994 28 62 C 28 63.100006 28.9 64 30 64"/>
    <path id="path7" fill="#ffffff" stroke="none" d="M 222 72 C 223.104004 72 224 71.104004 224 70 C 224 68.895996 223.104004 68 222 68 C 220.895996 68 220 68.895996 220 70 C 220 71.104004 220.895996 72 222 72"/>
    <path id="path8" fill="#ffffff" stroke="none" d="M 218 76 C 219.104004 76 220 75.104004 220 74 C 220 72.895996 219.104004 72 218 72 C 216.895996 72 216 72.895996 216 74 C 216 75.104004 216.895996 76 218 76"/>
    <path id="path9" fill="#ffffff" stroke="none" d="M 226 72 C 224.895996 72 224 72.895996 224 74 C 224 75.104004 224.895996 76 226 76 C 227.104004 76 228 75.104004 228 74 C 228 72.895996 227.104004 72 226 72"/>
    <path id="path10" fill="#ffffff" stroke="none" d="M 222 76 C 220.895996 76 220 76.895996 220 78 C 220 79.104004 220.895996 80 222 80 C 223.104004 80 224 79.104004 224 78 C 224 76.895996 223.104004 76 222 76"/>
    <path id="path11" fill="#ffffff" stroke="none" d="M 222 64 L 226 64 C 227.100006 64 228 63.100006 228 62 C 228 60.899994 227.100006 60 226 60 L 222 60 C 220.899994 60 220 60.899994 220 62 C 220 63.100006 220.899994 64 222 64"/>
    <path id="path12" fill="#ffffff" stroke="none" d="M 74.629402 207.267609 C 74.793404 206.830597 74.899399 206.364594 74.899399 205.869598 L 74.899399 197.676605 C 75.113403 197.711609 75.329399 197.742599 75.5494 197.742599 L 83.8284 197.742599 C 84.132401 197.742599 84.427399 197.703598 84.712402 197.638596 C 82.391403 201.767609 78.873398 205.133606 74.629402 207.267609 M 43.288399 197.638596 C 43.573399 197.703598 43.867401 197.742599 44.171398 197.742599 L 52.450397 197.742599 C 52.670399 197.742599 52.885399 197.711609 53.0994 197.676605 L 53.0994 205.869598 C 53.0994 206.358597 53.191399 206.8246 53.351398 207.256592 C 49.117401 205.122604 45.6064 201.760605 43.288399 197.638596 M 53.351398 164.8246 C 53.191399 165.257599 53.0994 165.723602 53.0994 166.212601 L 53.0994 174.493591 C 53.0994 175.045593 53.2164 175.584595 53.4314 176.081604 C 53.1124 176.00061 52.7854 175.945602 52.450397 175.945602 L 44.171398 175.945602 C 43.486401 175.945602 42.852398 176.132599 42.289398 176.4366 C 44.523399 171.406601 48.4534 167.292603 53.351398 164.8246 M 71.482399 189.532593 C 68.650398 186.698608 71.482399 184.157593 71.482399 184.157593 L 75.5494 179.945602 L 83.8284 179.945602 L 83.8284 180.058594 C 85.062401 180.6026 86.006401 183.390594 86.006401 186.770599 C 86.006401 190.151611 85.062401 192.938599 83.8284 193.482605 L 83.8284 193.742599 L 75.5494 193.742599 Z M 57.0994 197.588593 L 61.312401 193.52359 C 62.255402 192.579605 63.1674 192.264603 63.963398 192.264603 C 65.556396 192.264603 66.686401 193.52359 66.686401 193.52359 L 70.899399 197.588593 L 70.899399 205.869598 L 70.783401 205.869598 C 70.239403 207.103607 67.4524 208.047607 64.071404 208.047607 C 60.690399 208.047607 57.9034 207.103607 57.359398 205.869598 L 57.0994 205.869598 Z M 67.372398 182.956604 C 66.797401 183.894592 66.267403 185.152603 66.225403 186.687592 C 66.210403 187.269592 66.2724 187.970596 66.479401 188.734589 C 65.743401 188.460602 64.908401 188.264603 63.964401 188.264603 C 63.2864 188.264603 62.444401 188.368591 61.5284 188.702606 C 61.728401 187.951599 61.788399 187.261597 61.7724 186.687592 C 61.7314 185.169601 61.212399 183.9216 60.6464 182.988602 C 61.900398 183.637604 63.073399 183.817596 63.963398 183.817596 C 65.316399 183.817596 66.459396 183.430603 67.372398 182.956604 M 70.899399 174.493591 L 66.686401 178.558594 C 66.686401 178.558594 65.556396 179.817596 63.963398 179.817596 C 63.1674 179.817596 62.255402 179.502594 61.312401 178.558594 L 57.0994 174.493591 L 57.0994 166.212601 L 57.359398 166.212601 C 57.9034 164.978607 60.690399 164.034607 64.071404 164.034607 C 67.4524 164.034607 70.239403 164.978607 70.783401 166.212601 L 70.899399 166.212601 Z M 41.993397 186.770599 C 41.993397 183.390594 42.936398 180.6026 44.171398 180.058594 L 44.171398 179.945602 L 52.450397 179.945602 L 56.516399 184.157593 C 56.516399 184.157593 59.3484 186.698608 56.516399 189.532593 L 52.450397 193.742599 L 44.171398 193.742599 L 44.171398 193.482605 C 42.936398 192.938599 41.993397 190.151611 41.993397 186.770599 M 85.711403 176.4366 C 85.148399 176.133606 84.513397 175.945602 83.8284 175.945602 L 75.5494 175.945602 C 75.213402 175.945602 74.886398 176.00061 74.566399 176.082611 C 74.781403 175.585602 74.899399 175.045593 74.899399 174.493591 L 74.899399 166.212601 C 74.899399 165.71759 74.793404 165.251602 74.629402 164.814606 C 79.537399 167.281601 83.474403 171.399597 85.711403 176.4366 M 64.000397 158.166595 C 48.630398 158.166595 36.1264 170.670593 36.1264 186.040604 C 36.1264 201.410599 48.630398 213.913605 64.000397 213.913605 C 79.3694 213.913605 91.873398 201.410599 91.873398 186.040604 C 91.873398 170.670593 79.3694 158.166595 64.000397 158.166595"/>
    <path id="path13" fill="#ffffff" stroke="none" d="M 200.169907 208.339798 C 201.922897 206.390808 202.999893 203.821808 202.999893 200.999802 C 202.999893 199.541809 202.708893 198.151794 202.190903 196.877808 C 203.646896 197.589798 205.273895 197.999802 206.999893 197.999802 C 209.511902 197.999802 211.821899 197.144806 213.676895 195.721802 C 211.067902 201.539795 206.190903 206.127808 200.169907 208.339798 M 170.323898 195.721802 C 172.177902 197.144806 174.4879 197.999802 176.999893 197.999802 C 178.725906 197.999802 180.353897 197.589798 181.808899 196.877808 C 181.290894 198.151794 180.999893 199.541809 180.999893 200.999802 C 180.999893 203.820801 182.076904 206.390808 183.829895 208.339798 C 177.810898 206.126801 172.932907 201.539795 170.323898 195.721802 M 183.713898 163.787811 C 182.0289 165.720795 180.999893 168.239807 180.999893 170.999802 C 180.999893 173.902802 182.138901 176.538803 183.982895 178.506805 C 182.081894 176.941803 179.648895 175.999802 176.999893 175.999802 C 173.985901 175.999802 171.252899 177.219803 169.263901 179.190796 C 171.409897 172.080811 176.803894 166.368805 183.713898 163.787811 M 199.999893 186.999802 C 199.999893 183.133804 203.133896 179.999802 206.999893 179.999802 C 210.865906 179.999802 213.999893 183.133804 213.999893 186.999802 C 213.999893 190.865799 210.865906 193.999802 206.999893 193.999802 C 203.133896 193.999802 199.999893 190.865799 199.999893 186.999802 M 176.999893 193.999802 C 173.133896 193.999802 169.999893 190.865799 169.999893 186.999802 C 169.999893 183.133804 173.133896 179.999802 176.999893 179.999802 C 180.865906 179.999802 183.999893 183.133804 183.999893 186.999802 C 183.999893 190.865799 180.865906 193.999802 176.999893 193.999802 M 184.999893 170.999802 C 184.999893 167.133789 188.133896 163.999802 191.999893 163.999802 C 195.865906 163.999802 198.999893 167.133789 198.999893 170.999802 C 198.999893 174.865799 195.865906 177.999802 191.999893 177.999802 C 188.133896 177.999802 184.999893 174.865799 184.999893 170.999802 M 191.999893 189.999802 C 190.273895 189.999802 188.646896 190.40979 187.190903 191.121796 C 187.708893 189.847809 187.999893 188.457794 187.999893 186.999802 C 187.999893 184.096802 186.860901 181.4608 185.017899 179.492798 C 186.917908 181.058807 189.351898 181.999802 191.999893 181.999802 C 194.648895 181.999802 197.081894 181.058807 198.982895 179.492798 C 197.138901 181.4608 195.999893 184.096802 195.999893 186.999802 C 195.999893 188.457794 196.290894 189.847809 196.808899 191.121796 C 195.353897 190.40979 193.725906 189.999802 191.999893 189.999802 M 191.999893 193.999802 C 195.865906 193.999802 198.999893 197.133804 198.999893 200.999802 C 198.999893 204.865799 195.865906 207.999802 191.999893 207.999802 C 188.133896 207.999802 184.999893 204.865799 184.999893 200.999802 C 184.999893 197.133804 188.133896 193.999802 191.999893 193.999802 M 214.735901 179.190796 C 212.746902 177.220795 210.013901 175.999802 206.999893 175.999802 C 204.351898 175.999802 201.917892 176.941803 200.017899 178.506805 C 201.860901 176.538803 202.999893 173.902802 202.999893 170.999802 C 202.999893 168.239807 201.970901 165.720795 200.284897 163.786804 C 207.195908 166.367798 212.589905 172.080811 214.735901 179.190796 M 191.999893 158.166809 C 176.630905 158.166809 164.1259 170.670807 164.1259 186.040802 C 164.1259 201.409805 176.630905 213.913803 191.999893 213.913803 C 207.368896 213.913803 219.873901 201.409805 219.873901 186.040802 C 219.873901 170.670807 207.368896 158.166809 191.999893 158.166809"/>
    <path id="path14" fill="#ffffff" stroke="none" d="M 108 204 C 103.582001 204 100 200.417999 100 196 C 100 191.582001 103.582001 188 108 188 C 112.417999 188 116 191.582001 116 196 C 116 200.417999 112.417999 204 108 204 M 108 184 C 101.383003 184 96 189.382996 96 196 C 96 202.617004 101.383003 208 108 208 C 114.616997 208 120 202.617004 120 196 C 120 189.382996 114.616997 184 108 184"/>
    <path id="path15" fill="#ffffff" stroke="none" d="M 130 208 L 126 208 C 124.900002 208 124 208.899994 124 210 C 124 211.100006 124.900002 212 126 212 L 130 212 C 131.100006 212 132 211.100006 132 210 C 132 208.899994 131.100006 208 130 208"/>
    <path id="path16" fill="#ffffff" stroke="none" d="M 140.261703 194 C 141.151703 190.552002 144.273697 188 147.999695 188 C 151.7267 188 154.848694 190.552002 155.738693 194 Z M 147.999695 204 C 144.273697 204 141.151703 201.447998 140.261703 198 L 155.738693 198 C 154.848694 201.447998 151.7267 204 147.999695 204 M 147.999695 184 C 142.530701 184 137.755707 187.701004 136.388702 193.001007 C 136.131699 193.660995 135.999695 194.363007 135.999695 195.071991 L 135.999695 196.928009 C 135.999695 197.636993 136.131699 198.339005 136.388702 198.998993 C 137.755707 204.298996 142.530701 208 147.999695 208 C 153.469696 208 158.243698 204.298996 159.611694 198.998993 C 159.867706 198.339005 159.999695 197.636993 159.999695 196.928009 L 159.999695 195.071991 C 159.999695 194.363007 159.867706 193.660995 159.611694 193.001007 C 158.243698 187.701004 153.469696 184 147.999695 184"/>
</svg>
