<?xml version="1.0" encoding="UTF-8"?>
<!-- Generated by Pixelmator Pro 3.7.1 -->
<svg width="256" height="256" viewBox="0 0 256 256" xmlns="http://www.w3.org/2000/svg">
    <path id="Path" fill="#ffffff" stroke="none" d="M 240 200 L 116 200 L 116 56 L 240 56 Z M 96 56 L 112 56 L 112 200 L 96 200 Z M 16 56 L 92 56 L 92 200 L 16 200 Z M 240 52 L 116 52 L 112 52 L 96 52 L 92 52 L 16 52 L 12 52 L 12 56 L 12 200 L 12 204 L 16 204 L 92 204 L 96 204 L 112 204 L 116 204 L 240 204 L 244 204 L 244 200 L 244 56 L 244 52 Z"/>
</svg>
