<?xml version="1.0" encoding="UTF-8"?>
<!-- Generated by Pixelmator Pro 3.7.1 -->
<svg width="256" height="256" viewBox="0 0 256 256" xmlns="http://www.w3.org/2000/svg">
    <path id="Path" fill="#ffffff" stroke="none" d="M 128 8 C 98.076996 8 69.946999 19.778 48.790001 41.166 C 27.644997 62.541 16 90.955994 16 121.175995 L 16 198.509995 C 16 208.884995 24.852997 214.423004 26.824997 215.526993 C 57.287003 238.587006 86.625999 248 128 248 C 169.479996 248 198.863007 238.539001 229.419006 215.343002 L 229.546997 215.244995 L 229.666992 215.138 C 231.393005 213.595001 240 205.537994 240 198.509995 L 240 121.175995 C 240 90.955994 228.354004 62.541 207.209991 41.166 C 186.054001 19.778 157.923004 8 128 8 M 128 12 C 187.643005 12 236 60.884003 236 121.175995 L 236 198.509995 C 236 204.104996 227 212.156998 227 212.156998 C 196.912994 234.996994 168.522003 244 128 244 C 87.481995 244 59.083 234.996994 29 212.156998 C 29 212.156998 20 207.606995 20 198.509995 L 20 121.175995 C 20 60.884003 68.356995 12 128 12"/>
    <path id="path1" fill="#ffffff" stroke="none" d="M 128 16 C 70.653999 16 24 62.653992 24 120 C 24 177.345993 70.653999 224 128 224 C 185.346008 224 232 177.345993 232 120 C 232 62.653992 185.346008 16 128 16 M 128 20 C 183.227997 20 228 64.772995 228 120 C 228 175.227997 183.227997 220 128 220 C 72.772995 220 28 175.227997 28 120 C 28 64.772995 72.772995 20 128 20"/>
    <path id="path2" fill="#ffffff" stroke="none" d="M 128 26 C 76.167999 26 34 68.167999 34 120 C 34 171.832001 76.167999 214 128 214 C 179.832001 214 222 171.832001 222 120 C 222 68.167999 179.832001 26 128 26 M 128 30 C 177.707001 30 218 70.292999 218 120 C 218 169.707001 177.707001 210 128 210 C 78.292999 210 38 169.707001 38 120 C 38 70.292999 78.292999 30 128 30"/>
    <path id="path3" fill="#ffffff" stroke="none" d="M 128 80 C 105.944 80 88 97.944 88 120 C 88 142.056 105.944 160 128 160 C 150.056 160 168 142.056 168 120 C 168 97.944 150.056 80 128 80 M 128 84 C 147.880997 84 164 100.113998 164 120 C 164 139.880997 147.880997 156 128 156 C 108.119003 156 92 139.880997 92 120 C 92 100.113998 108.119003 84 128 84"/>
    <path id="path4" fill="#ffffff" stroke="none" d="M 152 91.120605 L 147.216003 92.077606 L 115.214996 98.4776 L 112 99.120605 L 112 102.399597 L 112 124.188599 C 111.212006 124.063599 110.408997 123.999603 109.599998 123.999603 C 102.100998 123.999603 96 129.382599 96 135.999603 C 96 142.617599 102.100998 147.999603 109.599998 147.999603 C 117.098999 147.999603 123.199997 142.617599 123.199997 135.999603 L 123.199997 111.439606 L 140.800003 107.919601 L 140.800003 117.788605 C 140.011993 117.663605 139.209 117.599594 138.399994 117.599594 C 130.901001 117.599594 124.800003 122.983597 124.800003 129.599609 C 124.800003 136.216599 130.901001 141.599609 138.399994 141.599609 C 145.899002 141.599609 152 136.216599 152 129.599609 L 152 95.999603 Z M 148 95.999603 L 148 129.599609 C 148 134.0186 143.701996 137.599609 138.399994 137.599609 C 133.097992 137.599609 128.800003 134.0186 128.800003 129.599609 C 128.800003 125.181595 133.097992 121.599594 138.399994 121.599594 C 140.862 121.599594 143.100998 122.378601 144.800003 123.648605 L 144.800003 103.039597 L 119.199997 108.160599 L 119.199997 135.999603 C 119.199997 140.417603 114.902 143.999603 109.599998 143.999603 C 104.298004 143.999603 100 140.417603 100 135.999603 C 100 131.581604 104.298004 127.999603 109.599998 127.999603 C 112.061996 127.999603 114.300995 128.779602 116 130.048599 L 116 102.399597 L 148 95.999603"/>
</svg>
