<?xml version="1.0" encoding="UTF-8"?>
<!-- Generated by Pixelmator Pro 3.7.1 -->
<svg width="256" height="256" viewBox="0 0 256 256" xmlns="http://www.w3.org/2000/svg">
    <path id="Path" fill="#ffffff" stroke="none" d="M 200 36 C 197.791 36 196 34.209 196 32 C 196 29.791 197.791 28 200 28 C 202.209 28 204 29.791 204 32 C 204 34.209 202.209 36 200 36 M 200 24 C 195.589005 24 192 27.589005 192 32 C 192 36.410995 195.589005 40 200 40 C 204.410995 40 208 36.410995 208 32 C 208 27.589005 204.410995 24 200 24"/>
    <path id="path1" fill="#ffffff" stroke="none" d="M 200 148 C 197.791 148 196 146.209 196 144 C 196 141.791 197.791 140 200 140 C 202.209 140 204 141.791 204 144 C 204 146.209 202.209 148 200 148 M 192.751999 147.36499 C 192.804001 147.475998 192.854996 147.587006 192.910995 147.695007 C 192.856003 147.585999 192.802994 147.47699 192.751999 147.36499 M 71.154999 205.365997 L 68 199.056 L 68 44 L 142.834991 44 L 184 70.195999 L 184 224 L 72 224 L 72 208.944 C 72 207.709 71.707993 206.472 71.154999 205.365997 M 200 158.677002 L 200 222.343002 L 186.343002 236 L 67.339996 236 C 67.319 235.979004 67.287003 235.938004 67.261002 235.867996 C 65.319 230.572998 60.074005 227.214996 56 225.322998 L 55.992996 158.979996 C 55.994003 158.979996 56.011993 158.951004 56.069 158.929993 C 59.682999 157.584991 62.337006 155.654999 64 153.175995 L 64 199.056 C 64 199.677002 64.145004 200.289001 64.421997 200.845001 L 67.578003 207.154999 C 67.854996 207.710999 68 208.322998 68 208.944 L 68 224 C 68 226.209 69.791 228 72 228 L 184 228 C 186.209 228 188 226.209 188 224 L 188 70.195999 C 188 68.828003 187.302002 67.554993 186.147003 66.820999 L 144.981995 40.625 C 144.341003 40.21701 143.596008 40 142.834991 40 L 68 40 C 65.791 40 64 41.791 64 44 L 64 138.936005 C 63.876007 138.701996 63.757004 138.485992 63.651993 138.306 L 56 115.350998 L 56 45.656998 L 69.656998 32 L 146.936996 32 L 173.093002 46.945999 C 174.300003 47.636002 175.671997 48 177.063004 48 L 186.076996 48 L 200 65.403 L 200 122.891998 L 189.257004 140.798004 C 188.171005 142.606995 187.839996 144.722992 188.322998 146.753998 C 189.761002 152.794006 195.457001 156.567001 200 158.677002 M 56 240 C 53.791 240 52 238.209 52 236 C 52 233.791 53.791 232 56 232 C 58.209 232 60 233.791 60 236 C 60 238.209 58.209 240 56 240 M 52 148 C 52 145.791 53.791 144 56 144 C 58.209 144 60 145.791 60 148 C 60 150.209 58.209 152 56 152 C 53.791 152 52 150.209 52 148 M 192.248001 145.940002 C 192.238007 145.902008 192.223999 145.865997 192.214996 145.828003 C 192.212006 145.81601 192.212997 145.804001 192.210007 145.791992 C 192.220993 145.84201 192.235001 145.890991 192.248001 145.940002 M 192.509003 146.781006 C 192.488998 146.729004 192.470001 146.678009 192.451004 146.625 C 192.470001 146.678009 192.488998 146.729004 192.509003 146.781006 M 204 236 C 204 238.209 202.209 240 200 240 C 197.791 240 196 238.209 196 236 C 196 233.791 197.791 232 200 232 C 202.209 232 204 233.791 204 236 M 52 32 C 52 29.791 53.791 28 56 28 C 58.209 28 60 29.791 60 32 C 60 34.209 58.209 36 56 36 C 53.791 36 52 34.209 52 32 M 200 136 C 198.638 136 197.354996 136.343994 196.231995 136.945999 L 203.429993 124.949997 C 203.802994 124.328003 204 123.617004 204 122.891998 L 204 65.403 C 204 64.494995 203.690002 63.613998 203.123001 62.903992 L 189.201004 45.501007 C 188.440994 44.552002 187.292999 44 186.076996 44 L 177.063004 44 C 176.365997 44 175.682007 43.817993 175.078003 43.472992 L 148.921997 28.527008 C 148.317993 28.182007 147.634003 28 146.936996 28 L 69.656998 28 C 68.595993 28 67.578995 28.42099 66.828995 29.17099 L 64 32 C 64 27.588989 60.410995 24 56 24 C 51.589005 24 48 27.588989 48 32 C 48 36.411011 51.589005 40 56 40 L 53.171005 42.82901 C 52.421005 43.57901 52 44.596008 52 45.656998 L 52 115.350998 C 52 115.781006 52.069 116.208008 52.205002 116.615997 L 59.856995 139.570007 C 59.944 139.832001 60.054993 140.078003 60.194 140.31601 C 60.362 140.604004 60.619995 141.076004 60.889008 141.682007 C 59.535004 140.632004 57.841995 140 56 140 C 51.589005 140 48 143.588989 48 148 C 48 151.630005 50.432999 154.697998 53.751007 155.673004 C 52.682999 156.412003 52 157.612 52 158.953003 L 52 225.322998 C 52 226.544006 52.559998 227.665009 53.477005 228.414001 C 50.300003 229.473999 48 232.471008 48 236 C 48 240.411011 51.589005 244 56 244 C 59.776001 244 62.942001 241.367004 63.776993 237.843002 C 64.483994 239.139008 65.796997 240 67.304993 240 L 186.343002 240 C 187.404007 240 188.421997 239.578003 189.171997 238.828003 L 192 236 C 192 240.411011 195.589005 244 200 244 C 204.410995 244 208 240.411011 208 236 C 208 231.588989 204.410995 228 200 228 L 202.828003 225.171997 C 203.578003 224.421997 204 223.403992 204 222.343002 L 204 158.677002 C 204 157.110992 203.087997 155.701996 201.669006 155.042999 C 199.046997 153.824005 194.916992 151.438995 193.020004 147.897003 C 194.391006 150.34201 197.003998 152 200 152 C 204.410995 152 208 148.411011 208 144 C 208 139.588989 204.410995 136 200 136"/>
    <path id="path2" fill="#ffffff" stroke="none" d="M 108 132 L 108 84 C 108 79.582001 111.582001 76 116 76 L 132 76 C 136.417999 76 140 79.582001 140 84 L 140 132 L 164 132 L 144.007996 156 L 144 156 L 144 156.01001 L 124.015999 180 L 84 132 Z M 152 156 L 149.214005 156 L 152 152.654999 Z M 156 152 L 164 152 L 164 160 L 172 160 L 172 168 L 164 168 L 164 176 L 156 176 L 156 168 L 148 168 L 148 160 L 156 160 Z M 164 192 C 164 194.209 162.209 196 160 196 L 88 196 C 85.791 196 84 194.209 84 192 C 84 189.791 85.791 188 88 188 L 160 188 C 162.209 188 164 189.791 164 192 M 120.943001 182.561996 L 122.142998 184 L 88 184 C 83.589005 184 80 187.589005 80 192 C 80 196.411011 83.589005 200 88 200 L 160 200 C 164.410995 200 168 196.411011 168 192 C 168 187.589005 164.410995 184 160 184 L 125.889999 184 L 127.089005 182.561005 L 144 162.26001 L 144 168 L 144 172 L 148 172 L 152 172 L 152 176 L 152 180 L 156 180 L 164 180 L 168 180 L 168 176 L 168 172 L 172 172 L 176 172 L 176 168 L 176 160 L 176 156 L 172 156 L 168 156 L 168 152 L 168 148 L 164 148 L 156 148 L 155.877991 148 L 167.072998 134.561005 L 172.537994 128 L 164 128 L 144 128 L 144 84 C 144 77.382996 138.617004 72 132 72 L 116 72 C 109.383003 72 104 77.382996 104 84 L 104 128 L 84 128 L 75.458 128 L 80.928001 134.561996 Z"/>
    <path id="path3" fill="#ffffff" stroke="none" d="M 196 20 L 196 12 L 204 12 C 206.209 12 208 13.791 208 16 L 208 20 Z M 208 32 L 208 144 L 208 236 L 208 240 C 208 242.209 206.209 244 204 244 L 200 244 L 56 244 L 52 244 C 49.791 244 48 242.209 48 240 L 48 236 L 48 148 L 48 32 L 48 24 L 56 24 L 68 24 L 72.216003 24 L 79.783997 24 L 84 24 L 192 24 L 196 24 L 200 24 L 208 24 Z M 48 16 C 48 13.791 49.791 12 52 12 L 64 12 L 66.667007 20 L 48 20 Z M 70.883003 20 L 68.216003 12 L 83.783997 12 L 81.116997 20 Z M 92 12 L 188 12 L 192 12 L 192 20 L 85.333 20 L 88 12 Z M 204 8 L 196 8 L 192 8 L 188 8 L 92 8 L 88 8 L 85.116997 8 L 66.882996 8 L 64 8 L 52 8 C 47.589005 8 44 11.589005 44 16 L 44 20 L 44 24 L 44 240 C 44 244.410995 47.589005 248 52 248 L 204 248 C 208.410995 248 212 244.410995 212 240 L 212 24 L 212 20 L 212 16 C 212 11.589005 208.410995 8 204 8"/>
</svg>
