<?xml version="1.0" encoding="UTF-8"?>
<!-- Generated by Pixelmator Pro 3.7.1 -->
<svg width="256" height="256" viewBox="0 0 256 256" xmlns="http://www.w3.org/2000/svg">
    <path id="Path" fill="#ffffff" stroke="none" opacity="0.899994" d="M 244 68 L 12 68 L 12 38 L 244 38 Z M 244 76 L 124 76 L 124 72 L 244 72 Z M 244 218 L 12 218 L 12 192 L 244 192 L 244 188 L 124 188 L 124 184 L 244 184 L 244 180 L 124 180 L 124 176 L 244 176 L 244 172 L 124 172 L 124 168 L 244 168 L 244 164 L 124 164 L 124 160 L 244 160 L 244 156 L 124 156 L 124 152 L 244 152 L 244 148 L 124 148 L 124 144 L 244 144 L 244 140 L 124 140 L 124 136 L 244 136 L 244 132 L 124 132 L 124 128 L 244 128 L 244 124 L 124 124 L 124 120 L 244 120 L 244 116 L 124 116 L 124 112 L 244 112 L 244 108 L 124 108 L 124 104 L 244 104 L 244 100 L 124 100 L 124 96 L 244 96 L 244 92 L 124 92 L 124 88 L 244 88 L 244 84 L 124 84 L 124 80 L 244 80 Z M 12 184 L 120 184 L 120 188 L 12 188 Z M 12 176 L 120 176 L 120 180 L 12 180 Z M 12 168 L 120 168 L 120 172 L 12 172 Z M 12 160 L 120 160 L 120 164 L 12 164 Z M 12 152 L 120 152 L 120 156 L 12 156 Z M 12 144 L 120 144 L 120 148 L 12 148 Z M 12 136 L 120 136 L 120 140 L 12 140 Z M 12 128 L 120 128 L 120 132 L 12 132 Z M 12 120 L 120 120 L 120 124 L 12 124 Z M 12 112 L 120 112 L 120 116 L 12 116 Z M 12 104 L 120 104 L 120 108 L 12 108 Z M 12 96 L 120 96 L 120 100 L 12 100 Z M 12 88 L 120 88 L 120 92 L 12 92 Z M 12 80 L 120 80 L 120 84 L 12 84 Z M 12 72 L 120 72 L 120 76 L 12 76 Z M 244 34 L 12 34 L 8 34 L 8 38 L 8 218 L 8 222 L 12 222 L 244 222 L 248 222 L 248 218 L 248 38 L 248 34 Z"/>
</svg>
