<?xml version="1.0" encoding="UTF-8"?>
<!-- Generated by Pixelmator Pro 3.7.1 -->
<svg width="256" height="256" viewBox="0 0 256 256" xmlns="http://www.w3.org/2000/svg">
    <path id="Path" fill="#ffffff" stroke="none" d="M 202 32 L 203 32 C 203.552994 32 204 32.447998 204 33 L 204 39 C 204 39.552002 203.552994 40 203 40 L 202 40 C 200.895996 40 200 40.895996 200 42 L 200 46 C 200 47.104004 200.895996 48 202 48 L 203 48 C 203.552994 48 204 48.447998 204 49 L 204 208 L 200 208 L 197.100006 208 C 196.492004 208 196 208.492004 196 209.100006 L 196 209.104004 C 196 210.975006 195.343994 212.787003 194.145996 214.225006 L 177.199005 234.561005 C 176.438995 235.473007 175.313004 236 174.126007 236 L 52 236 L 52 49 C 52 48.447998 52.447998 48 53 48 L 54 48 C 55.104004 48 56 47.104004 56 46 L 56 42 C 56 40.895996 55.104004 40 54 40 L 53 40 C 52.447998 40 52 39.552002 52 39 L 52 33 C 52 32.447998 52.447998 32 53 32 L 54 32 C 55.104004 32 56 31.104004 56 30 L 56 26 C 56 24.895996 55.104004 24 54 24 L 53 24 C 52.447998 24 52 23.552002 52 23 L 52 16 C 52 13.791 53.791 12 56 12 L 152.027008 12 C 155.677002 14.425003 161.462997 16 168 16 C 174.537003 16 180.322998 14.425003 183.972992 12 L 200 12 C 202.209 12 204 13.791 204 16 L 204 23 C 204 23.552002 203.552994 24 203 24 L 202 24 C 200.895996 24 200 24.895996 200 26 L 200 30 C 200 31.104004 200.895996 32 202 32 M 204 216 L 204 217.104004 C 204 218.975006 203.343994 220.787003 202.145996 222.225006 L 185.199005 242.561005 C 184.438995 243.473007 183.313004 244 182.126999 244 L 56 244 C 53.791 244 52 242.209 52 240 L 178.126007 240 C 179.313004 240 180.438995 239.473007 181.199005 238.561005 L 198.145996 218.225006 C 199.343994 216.787003 200 214.975006 200 213.104004 L 200 213.100006 C 200 212.492004 200.492004 212 201.100006 212 L 204 212 Z M 208 23 L 208 16 C 208 11.589005 204.410995 8 200 8 L 183.972992 8 L 182.764999 8 L 181.759003 8.667999 C 178.619003 10.753998 173.475998 12 168 12 C 162.524002 12 157.380997 10.753998 154.240997 8.667999 L 153.235001 8 L 152.027008 8 L 56 8 C 51.589005 8 48 11.589005 48 16 L 48 23 C 48 25.414993 49.720993 27.434998 52 27.899002 L 52 28.100998 C 49.720993 28.565002 48 30.585007 48 33 L 48 39 C 48 41.414993 49.720993 43.434998 52 43.899002 L 52 44.100998 C 49.720993 44.565002 48 46.585007 48 49 L 48 238 L 48 240 C 48 244.410995 51.589005 248 56 248 L 182.126999 248 C 184.507996 248 186.748001 246.951004 188.272003 245.121002 L 205.218994 224.785995 C 207.013 222.634003 208 219.904999 208 217.104004 L 208 216 L 208 49 C 208 46.585007 206.279007 44.565002 204 44.100998 L 204 43.899002 C 206.279007 43.434998 208 41.414993 208 39 L 208 33 C 208 30.585007 206.279007 28.565002 204 28.100998 L 204 27.899002 C 206.279007 27.434998 208 25.414993 208 23"/>
    <path id="path1" fill="#ffffff" stroke="none" d="M 152 180 L 128 156 L 152 132 L 176 156 Z M 128 100 C 128 86.744995 138.744995 76 152 76 C 165.255005 76 176 86.744995 176 100 C 176 113.255005 165.255005 124 152 124 C 138.744995 124 128 113.255005 128 100 M 154.828003 129.171997 L 153.606995 127.951004 C 168.300995 127.113998 180 114.899002 180 100 C 180 84.561005 167.438995 72 152 72 C 136.561005 72 124 84.561005 124 100 C 124 114.899002 135.699005 127.113998 150.393005 127.951004 L 149.171997 129.171997 L 125.170998 153.171997 L 122.343002 156 L 125.170998 158.828003 L 149.171997 182.828003 L 152 185.656998 L 154.828003 182.828003 L 178.828003 158.828003 L 181.656998 156 L 178.828003 153.171997 Z"/>
    <path id="path2" fill="#ffffff" stroke="none" d="M 128 180 L 119.273003 180 L 104 164.727997 L 88.727997 180 L 80 180 L 80 171.272003 L 95.272995 156 L 80 140.727997 L 80 132 L 88.727997 132 L 104 147.272003 L 119.273003 132 L 128 132 L 128 140.727997 L 112.727997 156 L 128 171.272003 Z M 117.615997 128 L 116.444 129.171997 L 104 141.615997 L 91.556 129.171997 L 90.384003 128 Z M 104 76 L 128 124 L 80 124 Z M 118.384003 156 L 130.828003 143.556 L 132 142.384003 L 132 140.727997 L 132 132 L 132 128 L 134.473007 128 L 131.578003 122.210999 L 107.578003 74.210999 L 104 67.056 L 100.421997 74.210999 L 76.421997 122.210999 L 73.528 128 L 76 128 L 76 132 L 76 140.727997 L 76 142.384003 L 77.171005 143.556 L 89.615997 156 L 77.171005 168.444 L 76 169.615997 L 76 171.272003 L 76 180 L 76 184 L 80 184 L 88.727997 184 L 90.384003 184 L 91.556 182.828003 L 104 170.384003 L 116.444 182.828003 L 117.615997 184 L 119.273003 184 L 128 184 L 132 184 L 132 180 L 132 171.272003 L 132 169.615997 L 130.828003 168.444 Z"/>
</svg>
