<?xml version="1.0" encoding="UTF-8"?>
<!-- Generated by Pixelmator Pro 3.7.1 -->
<svg width="256" height="256" viewBox="0 0 256 256" xmlns="http://www.w3.org/2000/svg">
    <path id="Path" fill="#ffffff" stroke="none" d="M 106 108.944305 L 121.528 140.000305 L 90.472 140.000305 Z M 106 100.000305 L 84 144.000305 L 128 144.000305 Z"/>
    <path id="path1" fill="#ffffff" stroke="none" d="M 150 186.342804 L 133.656998 169.999802 L 150 153.656799 L 166.343002 169.999802 Z M 128 169.999802 L 150 191.999802 L 172 169.999802 L 150 147.999802 Z"/>
    <path id="path2" fill="#ffffff" stroke="none" d="M 150 104 C 159.925003 104 168 112.074997 168 122 C 168 131.925003 159.925003 140 150 140 C 140.074997 140 132 131.925003 132 122 C 132 112.074997 140.074997 104 150 104 M 150 144 C 162.149994 144 172 134.149994 172 122 C 172 109.850006 162.149994 100 150 100 C 137.850006 100 128 109.850006 128 122 C 128 134.149994 137.850006 144 150 144"/>
    <path id="path3" fill="#ffffff" stroke="none" d="M 88 188 L 88 185.656998 L 100.829002 172.828003 L 103.656998 170 L 100.829002 167.171997 L 88 154.343002 L 88 152 L 90.343002 152 L 103.170998 164.828003 L 106 167.656998 L 108.829002 164.828003 L 121.656998 152 L 124 152 L 124 154.343002 L 111.170998 167.171997 L 108.343002 170 L 111.170998 172.828003 L 124 185.656998 L 124 188 L 121.656998 188 L 108.829002 175.171997 L 106 172.343002 L 103.170998 175.171997 L 90.343002 188 Z M 106 178 L 120 192 L 128 192 L 128 184 L 114 170 L 128 156 L 128 148 L 120 148 L 106 162 L 92 148 L 84 148 L 84 156 L 98 170 L 84 184 L 84 192 L 92 192 Z"/>
    <path id="path4" fill="#ffffff" stroke="none" d="M 208 20 L 200 20 L 196 20 L 192 20 L 188 20 L 92 20 L 84 20 L 68 20 L 60 20 L 48 20 L 48 14.666992 C 48 13.194 49.791 12 52 12 L 60 12 L 64 12 L 88 12 L 92 12 L 188 12 L 192 12 L 196 12 L 200 12 L 204 12 C 206.209 12 208 13.194 208 14.666992 Z M 208 32 L 208 58 L 208 144 L 208 236 L 208 240 C 208 242.209 206.209 244 204 244 L 200 244 L 56 244 L 52 244 C 49.791 244 48 242.209 48 240 L 48 236 L 48 148 L 48 32 L 48 24 L 56 24 L 60 24 L 68 24 L 84 24 L 92 24 L 188 24 L 192 24 L 196 24 L 200 24 L 208 24 Z M 204 8 L 200 8 L 196 8 L 192 8 L 188 8 L 92 8 L 88 8 L 64 8 L 60 8 L 52 8 C 47.514008 8 44 10.927994 44 14.666992 L 44 20 L 44 24 L 44 240 C 44 244.410995 47.589005 248 52 248 L 204 248 C 208.410995 248 212 244.410995 212 240 L 212 24 L 212 20 L 212 14.666992 C 212 10.927994 208.485992 8 204 8"/>
    <path id="path5" fill="#ffffff" stroke="none" d="M 203.929703 59.145493 C 203.917694 59.244507 203.899704 59.3405 203.884705 59.438507 C 203.843704 59.724503 203.792694 60.005493 203.727707 60.283493 C 203.705704 60.374496 203.682693 60.464493 203.658707 60.554504 C 203.579697 60.849503 203.490707 61.138504 203.386703 61.422501 C 203.365707 61.480499 203.344696 61.540497 203.322693 61.598495 C 202.6427 63.356506 201.482697 64.870499 199.999695 65.986496 C 199.215698 66.576508 198.344696 67.051498 197.406708 67.392502 C 197.322693 67.422501 197.240707 67.455505 197.156708 67.483505 C 196.996704 67.536499 196.834702 67.582504 196.672699 67.627502 C 196.5327 67.666504 196.391693 67.703506 196.247696 67.736496 C 196.109695 67.768494 195.970703 67.798492 195.829697 67.8255 C 195.645706 67.859497 195.457703 67.886505 195.270706 67.910507 C 195.158707 67.9245 195.046707 67.942505 194.933701 67.952499 C 194.625702 67.981506 194.315704 67.999496 193.999695 67.999496 C 188.477707 67.999496 183.999695 63.522507 183.999695 57.999496 C 183.999695 57.625504 184.024704 57.2565 184.064697 56.892502 C 184.076706 56.779495 184.099701 56.670502 184.115707 56.559494 C 184.152695 56.307495 184.192703 56.057495 184.246704 55.8125 C 184.274704 55.691498 184.307693 55.573502 184.339706 55.454498 C 184.401703 55.219498 184.468704 54.988495 184.546707 54.760498 C 184.584702 54.650497 184.624695 54.542496 184.665695 54.434494 C 184.757706 54.195496 184.857697 53.962494 184.965698 53.733505 C 185.007706 53.6465 185.047699 53.559494 185.090698 53.473495 C 185.224701 53.211502 185.369705 52.957504 185.525696 52.708496 C 185.553696 52.663498 185.579697 52.616501 185.608704 52.572495 C 187.153702 50.188507 189.683701 48.511505 192.623703 48.105499 C 192.667694 48.099503 192.7117 48.091507 192.756699 48.085495 C 193.164703 48.0345 193.577698 47.999496 193.999695 47.999496 C 199.522705 47.999496 203.999695 52.477493 203.999695 57.999496 C 203.999695 58.388504 203.972702 58.769501 203.929703 59.145493 M 192.247696 145.940491 C 192.238693 145.902496 192.223694 145.866501 192.214706 145.828491 C 192.2117 145.816498 192.212708 145.803497 192.209702 145.791504 C 192.220703 145.841492 192.235703 145.890503 192.247696 145.940491 M 199.999695 122.892502 L 189.256699 140.797501 C 188.1707 142.607498 187.839706 144.722504 188.3237 146.75351 C 189.760696 152.793503 195.456696 156.567505 199.999695 158.676498 L 199.999695 189.452515 C 197.065704 186.1185 192.780701 183.999496 187.999695 183.999496 L 187.999695 70.629501 C 189.821701 71.499496 191.850693 71.999496 193.999695 71.999496 C 196.149704 71.999496 198.178696 71.499496 199.999695 70.629501 Z M 199.999695 139.999496 C 202.208694 139.999496 203.999695 141.791504 203.999695 143.999496 C 203.999695 146.208496 202.208694 147.999496 199.999695 147.999496 C 197.790695 147.999496 195.999695 146.208496 195.999695 143.999496 C 195.999695 141.791504 197.790695 139.999496 199.999695 139.999496 M 187.999695 211.999512 L 187.999695 187.999512 C 194.626694 187.999512 199.999695 193.373505 199.999695 199.999512 C 199.999695 206.626495 194.626694 211.999512 187.999695 211.999512 M 199.999695 222.342499 L 186.342697 235.999512 L 67.339706 235.999512 C 67.319702 235.979492 67.286697 235.9375 67.261703 235.8685 C 65.319702 230.573486 60.074703 227.214508 55.999706 225.323486 L 55.992702 158.980499 C 55.993694 158.980499 56.0117 158.951508 56.069698 158.929504 C 59.682705 157.584503 62.337704 155.655502 63.999706 153.175507 L 63.999706 199.055511 C 63.999706 199.366486 64.035706 199.6745 64.106705 199.974487 C 64.177704 200.275513 64.283707 200.566498 64.422699 200.844513 L 67.577698 207.155487 C 67.855698 207.71051 67.99971 208.323486 67.99971 208.944489 L 67.99971 223.999512 C 67.99971 226.208496 69.790695 227.999512 71.99971 227.999512 L 183.999695 227.999512 C 186.208694 227.999512 187.999695 226.208496 187.999695 223.999512 L 187.999695 215.999512 C 192.780701 215.999512 197.065704 213.8815 199.999695 210.547485 Z M 203.999695 235.999512 C 203.999695 238.208496 202.208694 239.999512 199.999695 239.999512 C 197.790695 239.999512 195.999695 238.208496 195.999695 235.999512 C 195.999695 233.791504 197.790695 231.999512 199.999695 231.999512 C 202.208694 231.999512 203.999695 233.791504 203.999695 235.999512 M 55.999706 239.999512 C 53.790691 239.999512 51.999706 238.208496 51.999706 235.999512 C 51.999706 233.791504 53.790691 231.999512 55.999706 231.999512 C 58.208706 231.999512 59.999706 233.791504 59.999706 235.999512 C 59.999706 238.208496 58.208706 239.999512 55.999706 239.999512 M 51.999706 147.999496 C 51.999706 145.791504 53.790691 143.999496 55.999706 143.999496 C 58.208706 143.999496 59.999706 145.791504 59.999706 147.999496 C 59.999706 150.208496 58.208706 151.999496 55.999706 151.999496 C 53.790691 151.999496 51.999706 150.208496 51.999706 147.999496 M 55.999706 115.351501 L 55.999706 45.656494 L 56.111706 45.545502 C 56.697704 50.076492 59.815701 53.813507 63.999706 55.2995 L 63.999706 138.935501 C 63.876705 138.702499 63.757702 138.486511 63.651699 138.305511 Z M 51.999706 31.999496 C 51.999706 29.791504 53.790691 27.999496 55.999706 27.999496 C 58.208706 27.999496 59.999706 29.791504 59.999706 31.999496 C 59.999706 34.208496 58.208706 35.999496 55.999706 35.999496 C 53.790691 35.999496 51.999706 34.208496 51.999706 31.999496 M 65.110703 36.546494 C 66.007706 36.198502 66.979706 35.999496 67.99971 35.999496 C 70.959702 35.999496 73.536697 37.611496 74.9207 39.999496 L 67.99971 39.999496 C 65.790695 39.999496 63.999706 41.791504 63.999706 43.999496 L 63.999706 50.920502 C 61.611706 49.537506 59.999706 46.959503 59.999706 43.999496 C 59.999706 42.979492 60.198696 42.007492 60.546703 41.110504 Z M 71.155701 205.366486 L 67.99971 199.055511 L 67.99971 43.999496 L 142.834702 43.999496 L 183.999695 70.195496 L 183.999695 223.999512 L 71.99971 223.999512 L 71.99971 208.944489 C 71.99971 207.708496 71.707703 206.471497 71.155701 205.366486 M 69.656708 31.999496 L 146.937698 31.999496 L 173.092697 46.945496 C 174.299698 47.635498 175.671707 47.999496 177.062698 47.999496 L 184.220703 47.999496 C 181.619705 50.543503 179.999695 54.083496 179.999695 57.999496 C 179.999695 60.024506 180.441696 61.944504 181.217697 63.683502 L 144.982697 40.625504 C 144.340698 40.216492 143.595703 39.999496 142.834702 39.999496 L 79.299706 39.999496 C 77.813705 35.815506 74.075699 32.697495 69.5457 32.111496 Z M 193.999695 43.999496 C 192.136703 43.999496 190.361694 44.373505 188.734695 45.036499 C 188.006699 44.384506 187.070694 43.999496 186.076706 43.999496 L 177.062698 43.999496 C 176.366699 43.999496 175.681702 43.818497 175.077698 43.473495 L 148.921707 28.526505 C 148.318695 28.181503 147.633698 27.999496 146.937698 27.999496 L 69.656708 27.999496 C 68.59671 27.999496 67.578705 28.421494 66.828705 29.171494 L 63.999706 31.999496 C 63.999706 27.588501 60.410702 23.999496 55.999706 23.999496 C 51.588696 23.999496 47.999706 27.588501 47.999706 31.999496 C 47.999706 36.411499 51.588696 39.999496 55.999706 39.999496 L 53.171703 42.828506 C 52.421703 43.578506 51.999706 44.596497 51.999706 45.656494 L 51.999706 115.351501 C 51.999706 115.780502 52.069698 116.208496 52.204693 116.615494 L 59.856701 139.570496 C 59.944698 139.832489 60.054699 140.078491 60.194698 140.316498 C 60.362698 140.6035 60.619701 141.076508 60.888699 141.681503 C 59.534695 140.6315 57.841702 139.999496 55.999706 139.999496 C 51.588696 139.999496 47.999706 143.588501 47.999706 147.999496 C 47.999706 151.629501 50.432705 154.698502 53.751705 155.672501 C 52.682705 156.412506 51.999706 157.612503 51.999706 158.953491 L 51.999706 225.323486 C 51.999706 226.543488 52.559704 227.665497 53.476696 228.41449 C 50.299694 229.473511 47.999706 232.47049 47.999706 235.999512 C 47.999706 240.411499 51.588696 243.999512 55.999706 243.999512 C 59.776699 243.999512 62.941692 241.367493 63.777706 237.842499 C 64.483704 239.138489 65.796707 239.999512 67.304703 239.999512 L 186.342697 239.999512 C 187.404694 239.999512 188.421707 239.578491 189.171707 238.828491 L 191.999695 235.999512 C 191.999695 240.411499 195.588699 243.999512 199.999695 243.999512 C 204.410706 243.999512 207.999695 240.411499 207.999695 235.999512 C 207.999695 231.588501 204.410706 227.999512 199.999695 227.999512 L 202.827698 225.171509 C 203.577698 224.421509 203.999695 223.40451 203.999695 222.342499 L 203.999695 158.676498 C 203.999695 157.111511 203.087708 155.702499 201.668701 155.042511 C 199.046707 153.824493 194.916702 151.439499 193.019699 147.897491 C 194.390701 150.341492 197.003693 151.999496 199.999695 151.999496 C 204.410706 151.999496 207.999695 148.411499 207.999695 143.999496 C 207.999695 139.588501 204.410706 135.999496 199.999695 135.999496 C 198.637695 135.999496 197.355698 136.343506 196.232697 136.946503 L 203.429703 124.9505 C 203.802704 124.328491 203.999695 123.617493 203.999695 122.892502 L 203.999695 67.779495 C 206.470703 65.253494 207.999695 61.803497 207.999695 57.999496 C 207.999695 50.280502 201.719696 43.999496 193.999695 43.999496"/>
    <path id="path6" fill="#ffffff" stroke="none" d="M 200 36 C 197.791 36 196 34.209 196 32 C 196 29.791 197.791 28 200 28 C 202.209 28 204 29.791 204 32 C 204 34.209 202.209 36 200 36 M 200 24 C 195.589005 24 192 27.589005 192 32 C 192 36.410995 195.589005 40 200 40 C 204.410995 40 208 36.410995 208 32 C 208 27.589005 204.410995 24 200 24"/>
</svg>
