<?xml version="1.0" encoding="UTF-8"?>
<!-- Generated by Pixelmator Pro 3.7.1 -->
<svg width="256" height="256" viewBox="0 0 256 256" xmlns="http://www.w3.org/2000/svg">
    <path id="Path" fill="#ffffff" stroke="none" d="M 210 48 L 206 48 L 206 72 L 210 72 L 210 244 L 66 244 L 46 220 L 46 72 L 50 72 L 50 48 L 46 48 L 46 28 C 46 19.164001 82.712997 12 128 12 C 173.287003 12 210 19.164001 210 28 Z M 186.748993 12.759995 C 171.016998 9.690002 150.152008 8 128 8 C 105.848 8 84.983002 9.690002 69.251007 12.759995 C 50.658997 16.388 42 21.229996 42 28 L 42 48 L 42 52 L 46 52 L 46 68 L 42 68 L 42 72 L 42 220 L 42 221.447998 L 42.927002 222.561005 L 62.927002 246.561005 L 64.126007 248 L 66 248 L 210 248 L 214 248 L 214 244 L 214 72 L 214 68 L 210 68 L 210 52 L 214 52 L 214 48 L 214 28 C 214 21.229996 205.341003 16.388 186.748993 12.759995"/>
    <path id="path1" fill="#ffffff" stroke="none" d="M 194 64 L 194 212 L 66 212 L 66 64 L 66 44 C 66 37.373001 94.653999 32 130 32 C 165.347 32 194 37.373001 194 44 Z M 139.600006 216.800003 L 126 227 L 112.400002 216.800003 L 111.333 216 L 140.666992 216 Z M 142 224 L 126 236 L 110 224 L 110 220 L 126 232 L 142 220 Z M 175.992004 31.583008 C 163.667999 29.272003 147.334991 28 130 28 C 112.665001 28 96.332001 29.272003 84.008003 31.583008 C 68.788002 34.436996 62 38.266998 62 44 L 62 64 L 62 212 L 62 216 L 66 216 L 106 216 L 106 220 L 106 224 L 106 226 L 107.599998 227.199997 L 123.599998 239.199997 L 126 241 L 128.399994 239.199997 L 144.399994 227.199997 L 146 226 L 146 224 L 146 220 L 146 216 L 194 216 L 198 216 L 198 212 L 198 64 L 198 44 C 198 38.266998 191.212997 34.436996 175.992004 31.583008"/>
</svg>
