<?xml version="1.0" encoding="UTF-8"?>
<!-- Generated by Pixelmator Pro 3.7.1 -->
<svg width="256" height="256" viewBox="0 0 256 256" xmlns="http://www.w3.org/2000/svg">
    <path id="Path" fill="#ffffff" stroke="none" d="M 56 12 L 200 12 L 200 136 L 56 136 Z M 200 236 L 196 236 L 196 224 L 196 220 L 192 220 L 64 220 L 60 220 L 60 224 L 60 236 L 56 236 L 56 140 L 200 140 Z M 192 244 L 64 244 L 64 240 L 64 236 L 64 224 L 192 224 L 192 236 L 192 240 Z M 200 8 L 56 8 L 52 8 L 52 12 L 52 136 L 52 140 L 52 236 L 52 240 L 56 240 L 60 240 L 60 244 L 60 248 L 64 248 L 192 248 L 196 248 L 196 244 L 196 240 L 200 240 L 204 240 L 204 236 L 204 140 L 204 136 L 204 12 L 204 8 Z"/>
</svg>
