<?xml version="1.0" encoding="UTF-8"?>
<!-- Generated by Pixelmator Pro 3.7.1 -->
<svg width="256" height="256" viewBox="0 0 256 256" xmlns="http://www.w3.org/2000/svg">
    <path id="Path" fill="#ffffff" stroke="none" d="M 36 140 C 40.417999 140 44 143.582001 44 148 C 44 152.417999 40.417999 156 36 156 C 31.582001 156 28 152.417999 28 148 C 28 143.582001 31.582001 140 36 140 M 36 160 C 42.617001 160 48 154.617004 48 148 C 48 141.382996 42.617001 136 36 136 C 29.382999 136 24 141.382996 24 148 C 24 154.617004 29.382999 160 36 160"/>
    <path id="path1" fill="#ffffff" stroke="none" d="M 244 60 L 240 60 L 240 64 L 244 64 L 244 68 L 240 68 L 240 72 L 244 72 L 244 76 L 240 76 L 240 80 L 244 80 L 244 84 L 240 84 L 240 88 L 244 88 L 244 92 L 240 92 L 240 96 L 244 96 L 244 100 L 240 100 L 240 104 L 244 104 L 244 108 L 240 108 L 240 112 L 244 112 L 244 116 L 240 116 L 240 120 L 244 120 L 244 124 L 240 124 L 240 128 L 244 128 L 244 132 L 240 132 L 240 136 L 244 136 L 244 140 L 240 140 L 240 144 L 244 144 L 244 148 L 240 148 L 240 152 L 244 152 L 244 156 L 240 156 L 240 160 L 244 160 L 244 164 L 240 164 L 240 168 L 244 168 L 244 172 L 240 172 L 240 176 L 244 176 L 244 180 L 240 180 L 240 184 L 244 184 L 244 188 L 240 188 L 240 192 L 244 192 L 244 196 L 240 196 L 240 200 L 244 200 L 244 202 C 244 203.104004 243.104004 204 242 204 L 240 204 L 238 204 C 236.895996 204 236 203.104004 236 202 L 236 54 C 236 52.895996 236.895996 52 238 52 L 240 52 L 240 56 L 244 56 Z M 196 184 C 196 175.162994 203.162994 168 212 168 C 220.837006 168 228 175.162994 228 184 C 228 192.837006 220.837006 200 212 200 C 203.162994 200 196 192.837006 196 184 M 240 210 C 240 211.104004 239.104004 212 238 212 L 182 212 C 180.895996 212 180 211.104004 180 210 L 180 208 L 180 204 L 180 183.399002 C 183.893997 179.742996 187.401001 175.686005 190.457001 171.285004 L 194.166 174.994995 C 192.791992 177.705002 192 180.759003 192 184 C 192 195.028 200.972 204 212 204 C 223.028 204 232 195.028 232 184 C 232 172.972 223.028 164 212 164 C 205.679993 164 200.044006 166.955002 196.376007 171.548004 L 192.699997 167.872009 C 192.699997 167.873001 192.699005 167.873001 192.699005 167.873993 C 199.859009 156.281006 204 142.626999 204 128 C 204 106.147995 194.764999 86.464996 180 72.600998 L 180 52 L 180 48 L 180 46 C 180 44.895996 180.895996 44 182 44 L 238 44 C 239.104004 44 240 44.895996 240 46 L 240 48 L 238 48 C 234.690994 48 232 50.690994 232 54 L 232 184 L 232 202 C 232 205.309006 234.690994 208 238 208 L 240 208 Z M 128 204 L 80 204 L 80 186.915009 C 93.087997 197.591003 109.792999 204 128 204 C 146.207001 204 162.912003 197.591003 176 186.915009 L 176 204 Z M 44 200 C 35.164001 200 28 192.837006 28 184 C 28 175.162994 35.164001 168 44 168 C 52.835999 168 60 175.162994 60 184 C 60 192.837006 52.835999 200 44 200 M 76 208 L 76 210 C 76 211.104004 75.104004 212 74 212 L 46 212 L 46 210 L 46 204 L 46 203.897995 C 56.091995 202.891998 64 194.352997 64 184 C 64 172.972 55.028 164 44 164 C 32.972 164 24 172.972 24 184 C 24 194.352997 31.908005 202.891998 42 203.897995 L 42 204 L 42 210 L 42 212 L 18 212 C 16.895996 212 16 211.104004 16 210 L 16 208 L 18 208 C 21.309006 208 24 205.309006 24 202 L 24 184 L 24 148 L 24 54 C 24 50.690994 21.309006 48 18 48 L 16 48 L 16 46 C 16 44.895996 16.895996 44 18 44 L 74 44 C 75.104004 44 76 44.895996 76 46 L 76 48 L 76 52 L 76 72.600998 C 61.235001 86.464996 52 106.147995 52 128 C 52 149.85199 61.235001 169.535004 76 183.399002 L 76 204 Z M 12 202 L 12 200 L 16 200 L 16 196 L 12 196 L 12 192 L 16 192 L 16 188 L 12 188 L 12 184 L 16 184 L 16 180 L 12 180 L 12 176 L 16 176 L 16 172 L 12 172 L 12 168 L 16 168 L 16 164 L 12 164 L 12 160 L 16 160 L 16 156 L 12 156 L 12 152 L 16 152 L 16 148 L 12 148 L 12 144 L 16 144 L 16 140 L 12 140 L 12 136 L 16 136 L 16 132 L 12 132 L 12 128 L 16 128 L 16 124 L 12 124 L 12 120 L 16 120 L 16 116 L 12 116 L 12 112 L 16 112 L 16 108 L 12 108 L 12 104 L 16 104 L 16 100 L 12 100 L 12 96 L 16 96 L 16 92 L 12 92 L 12 88 L 16 88 L 16 84 L 12 84 L 12 80 L 16 80 L 16 76 L 12 76 L 12 72 L 16 72 L 16 68 L 12 68 L 12 64 L 16 64 L 16 60 L 12 60 L 12 56 L 16 56 L 16 52 L 18 52 C 19.104004 52 20 52.895996 20 54 L 20 202 C 20 203.104004 19.104004 204 18 204 L 16 204 L 14 204 C 12.895996 204 12 203.104004 12 202 M 128 52 L 176 52 L 176 69.085007 C 162.912003 58.408997 146.207001 52 128 52 C 109.792999 52 93.087997 58.408997 80 69.085007 L 80 52 Z M 128 200 C 88.298996 200 56 167.700989 56 128 C 56 88.298996 88.298996 56 128 56 C 167.700989 56 200 88.298996 200 128 C 200 167.700989 167.700989 200 128 200 M 244 52 L 244 48 L 244 46 C 244 42.690994 241.309006 40 238 40 L 182 40 C 178.69101 40 176 42.690994 176 46 L 176 48 L 80 48 L 80 46 C 80 42.690994 77.309006 40 74 40 L 18 40 C 14.690994 40 12 42.690994 12 46 L 12 48 L 12 52 L 8 52 L 8 56 L 8 60 L 8 64 L 8 68 L 8 72 L 8 76 L 8 80 L 8 84 L 8 88 L 8 92 L 8 96 L 8 100 L 8 104 L 8 108 L 8 112 L 8 116 L 8 120 L 8 124 L 8 128 L 8 132 L 8 136 L 8 140 L 8 144 L 8 148 L 8 152 L 8 156 L 8 160 L 8 164 L 8 168 L 8 172 L 8 176 L 8 180 L 8 184 L 8 188 L 8 192 L 8 196 L 8 200 L 8 202 C 8 204.606003 9.673004 206.822998 12 207.649994 L 12 210 C 12 213.309006 14.690994 216 18 216 L 74 216 C 77.309006 216 80 213.309006 80 210 L 80 208 L 176 208 L 176 210 C 176 213.309006 178.69101 216 182 216 L 238 216 C 241.309006 216 244 213.309006 244 210 L 244 207.649994 C 246.326004 206.822998 248 204.606003 248 202 L 248 200 L 248 196 L 248 192 L 248 188 L 248 184 L 248 180 L 248 176 L 248 172 L 248 168 L 248 164 L 248 160 L 248 156 L 248 152 L 248 148 L 248 144 L 248 140 L 248 136 L 248 132 L 248 128 L 248 124 L 248 120 L 248 116 L 248 112 L 248 108 L 248 104 L 248 100 L 248 96 L 248 92 L 248 88 L 248 84 L 248 80 L 248 76 L 248 72 L 248 68 L 248 64 L 248 60 L 248 56 L 248 52 Z"/>
</svg>
