<?xml version="1.0" encoding="UTF-8"?>
<!-- Generated by Pixelmator Pro 3.7.1 -->
<svg width="256" height="256" viewBox="0 0 256 256" xmlns="http://www.w3.org/2000/svg">
    <path id="Path" fill="#ffffff" stroke="none" d="M 196 236 L 180 236 L 180 212 L 180 208 L 176 208 L 64 208 L 64 12 L 196 12 Z M 176 244 L 64 244 L 64 240 L 64 236 L 64 228 L 64 212 L 176 212 Z M 196 8 L 64 8 L 60 8 L 60 12 L 60 208 L 60 212 L 60 236 L 60 240 L 60 244 L 60 248 L 64 248 L 176 248 L 180 248 L 180 244 L 180 240 L 196 240 L 200 240 L 200 236 L 200 12 L 200 8 Z"/>
</svg>
