<?xml version="1.0" encoding="UTF-8"?>
<!-- Generated by Pixelmator Pro 3.7.1 -->
<svg width="256" height="256" viewBox="0 0 256 256" xmlns="http://www.w3.org/2000/svg">
    <path id="Path" fill="#ffffff" stroke="none" d="M 234.400406 232 L 108.000397 232 L 108.000397 224 L 236.000397 224 Z M 108.000397 244 L 108.000397 236 L 233.599396 236 L 234.000397 234 L 232.000397 244 Z M 24.000406 244 L 22.000406 234 L 22.4004 236 L 104.000404 236 L 104.000404 244 Z M 20.000406 224 L 104.000404 224 L 104.000404 232 L 21.600397 232 Z M 20.000406 12 L 104.000404 12 L 104.000404 220 L 20.000406 220 Z M 108.000397 12 L 236.000397 12 L 236.000397 220 L 108.000397 220 Z M 240.000397 224.395996 L 240.000397 220 L 240.000397 12 L 240.000397 8 L 236.000397 8 L 108.000397 8 L 104.000404 8 L 20.000406 8 L 16.000406 8 L 16.000406 12 L 16.000406 220 L 16.000406 224.395996 L 16.000406 224.395996 L 16.077402 224.783997 L 20.077402 244.783997 L 20.720407 248 L 24.000406 248 L 104.000404 248 L 108.000397 248 L 232.000397 248 L 235.279404 248 L 235.921402 244.783997 L 239.921402 224.783997 L 239.962402 224.582001 Z"/>
</svg>
