<?xml version="1.0" encoding="UTF-8"?>
<!-- Generated by Pixelmator Pro 3.7.1 -->
<svg width="256" height="256" viewBox="0 0 256 256" xmlns="http://www.w3.org/2000/svg">
    <path id="Path" fill="#ffffff" stroke="none" d="M 244 227.924805 C 244 230.175797 242.209 231.999802 240 231.999802 L 204.199005 231.999802 L 204 231.980804 L 204 231.999802 L 164 231.999802 L 244 239.999802 L 12 239.999802 L 92 231.999802 L 51.800995 231.999802 L 48 231.999802 L 36 231.999802 C 33.791 231.999802 32 230.175797 32 227.924805 L 32 20.074799 C 32 17.824799 33.791 15.999802 36 15.999802 L 240 15.999802 C 242.209 15.999802 244 17.824799 244 20.074799 Z M 24 230.666794 L 24 17.333801 L 28.824005 16.528809 C 28.300995 17.601807 28 18.801804 28 20.074799 L 28 227.924805 C 28 229.196808 28.300995 230.398804 28.824005 231.470795 Z M 20 229.999802 L 16 229.332794 L 16 18.666809 L 20 17.999802 Z M 12 228.666794 L 11.341995 228.556793 C 9.414001 228.235794 8 226.566803 8 224.611801 L 8 23.388809 C 8 21.4328 9.414001 19.764801 11.341995 19.44281 L 12 19.333801 Z M 248 227.924805 L 248 20.074799 C 248 15.622803 244.410995 11.999802 240 11.999802 L 36 11.999802 L 10.684998 15.496811 C 6.811996 16.142807 4 19.461807 4 23.388809 L 4 224.611801 C 4 228.537796 6.811996 231.857803 10.684998 232.502808 L 25.839005 234.595795 L 11.602005 236.019806 C 9.481003 236.232803 7.899002 238.070801 8.005005 240.198807 C 8.110992 242.327805 9.867996 243.999802 12 243.999802 L 244 243.999802 C 246.132004 243.999802 247.889008 242.327805 247.994995 240.198807 C 248.102005 238.070801 246.520004 236.232803 244.397995 236.019806 L 241.873001 235.767792 C 245.382004 234.912796 248 231.7258 248 227.924805"/>
</svg>
