<?xml version="1.0" encoding="UTF-8"?>
<!-- Generated by Pixelmator Pro 3.7.1 -->
<svg width="256" height="256" viewBox="0 0 256 256" xmlns="http://www.w3.org/2000/svg">
    <path id="Path" fill="#ffffff" stroke="none" d="M 168 104 L 88 104 L 88 44 L 168 44 Z M 88 40 L 84 40 L 84 44 L 84 104 L 84 108 L 88 108 L 168 108 L 172 108 L 172 104 L 172 44 L 172 40 L 168 40 Z"/>
    <path id="path1" fill="#ffffff" stroke="none" d="M 90 36 C 91.103996 36 92 35.104004 92 34 C 92 32.895996 91.103996 32 90 32 C 88.896004 32 88 32.895996 88 34 C 88 35.104004 88.896004 36 90 36"/>
    <path id="path2" fill="#ffffff" stroke="none" d="M 166 36 C 167.104004 36 168 35.104004 168 34 C 168 32.895996 167.104004 32 166 32 C 164.895996 32 164 32.895996 164 34 C 164 35.104004 164.895996 36 166 36"/>
    <path id="path3" fill="#ffffff" stroke="none" d="M 98 112 C 96.896004 112 96 112.895996 96 114 C 96 115.104004 96.896004 116 98 116 C 99.103996 116 100 115.104004 100 114 C 100 112.895996 99.103996 112 98 112"/>
    <path id="path4" fill="#ffffff" stroke="none" d="M 106 112 C 104.896004 112 104 112.895996 104 114 C 104 115.104004 104.896004 116 106 116 C 107.103996 116 108 115.104004 108 114 C 108 112.895996 107.103996 112 106 112"/>
    <path id="path5" fill="#ffffff" stroke="none" d="M 150 112 C 148.895996 112 148 112.895996 148 114 C 148 115.104004 148.895996 116 150 116 C 151.104004 116 152 115.104004 152 114 C 152 112.895996 151.104004 112 150 112"/>
    <path id="path6" fill="#ffffff" stroke="none" d="M 158 112 C 156.895996 112 156 112.895996 156 114 C 156 115.104004 156.895996 116 158 116 C 159.104004 116 160 115.104004 160 114 C 160 112.895996 159.104004 112 158 112"/>
    <path id="path7" fill="#ffffff" stroke="none" d="M 204 130.713898 C 204 133.633911 201.634003 135.999908 198.714005 135.999908 L 196.179993 135.999908 C 195.457001 135.273895 194.671997 134.613892 193.852005 133.999908 L 198.623993 133.999908 C 200.479996 133.999908 202 132.480896 202 130.623901 L 202 113.376907 C 202 111.519897 200.479996 109.999893 198.623993 109.999893 L 167.376007 109.999893 C 165.520004 109.999893 164 111.519897 164 113.376907 L 164 125.082901 C 162.820999 124.398895 161.458008 123.999893 160 123.999893 L 96 123.999893 C 94.542 123.999893 93.178001 124.398895 92 125.082901 L 92 113.376907 C 92 111.519897 90.480003 109.999893 88.624001 109.999893 L 57.376007 109.999893 C 55.520004 109.999893 54 111.519897 54 113.376907 L 54 130.623901 C 54 132.480896 55.520004 133.999908 57.376007 133.999908 L 62.149002 133.999908 C 61.328003 134.613892 60.542007 135.273895 59.820007 135.999908 L 57.285995 135.999908 C 54.367004 135.999908 52 133.633911 52 130.713898 L 52 113.285904 C 52 110.366898 54.367004 107.999893 57.285995 107.999893 L 79.999001 107.999893 C 72.466003 97.971893 68 85.507904 68 71.999893 C 68 38.8629 94.862999 11.999908 128 11.999908 C 161.136993 11.999908 188 38.8629 188 71.999893 C 188 85.507904 183.533997 97.971893 176.001007 107.999893 L 198.714005 107.999893 C 201.634003 107.999893 204 110.366898 204 113.285904 Z M 199.979996 186.816895 L 198.496994 218.198898 C 196.449005 214.506897 192.514008 211.999908 188 211.999908 C 185.324005 211.999908 182.858994 212.8909 180.862 214.376907 L 176.397995 209.912903 C 179.977997 202.699905 182 194.582901 182 185.999908 C 182 174.35791 178.291992 163.567902 172 154.740906 L 172 133.999908 L 183.731995 133.999908 C 191.667999 135.137909 197.936005 141.911896 198.324005 150.139893 L 199.979996 185.183899 C 200.005997 185.725891 200.005997 186.274902 199.979996 186.816895 M 188 231.999908 C 183.589005 231.999908 180 228.410904 180 223.999908 C 180 219.588898 183.589005 215.999908 188 215.999908 C 192.410995 215.999908 196 219.588898 196 223.999908 C 196 228.410904 192.410995 231.999908 188 231.999908 M 181.977005 238.162903 L 144 239.5289 L 144 237.579895 C 156.843002 233.587906 167.639008 224.916901 174.403992 213.574905 L 178.083008 217.253906 C 176.770996 219.177902 176 221.499908 176 223.999908 C 176 230.616898 181.382996 235.999908 188 235.999908 C 188.628998 235.999908 189.240997 235.936905 189.845001 235.842896 C 187.505997 237.220901 184.828003 238.060898 181.977005 238.162903 M 133.845001 239.894897 C 131.906006 239.964905 129.938995 239.999908 128 239.999908 C 126.060997 239.999908 124.094002 239.964905 122.155998 239.894897 L 116 239.673904 L 116 238.639908 C 119.862 239.519897 123.875 239.999908 128 239.999908 C 132.125 239.999908 136.138 239.519897 140 238.639908 L 140 239.673904 Z M 88 129.331909 L 73.880005 129.839905 C 73.237 129.8629 72.602997 129.919891 71.977005 129.999908 L 58 129.999908 L 58 113.999893 L 88 113.999893 Z M 96 135.999908 C 94.206001 135.999908 92.705002 134.810898 92.197998 133.182892 C 92.143997 133.007904 92.099998 132.827911 92.065002 132.646896 C 92.030998 132.434906 92 132.221893 92 131.999908 C 92 131.720901 92.028999 131.448898 92.083 131.18689 C 92.089996 131.152893 92.105003 131.124908 92.112999 131.092896 C 92.167 130.8629 92.232002 130.637909 92.323997 130.425903 C 92.327003 130.416901 92.333 130.409897 92.336998 130.401901 C 92.544998 129.927902 92.839996 129.5009 93.205002 129.144897 C 93.926003 128.437897 94.911003 127.999893 96 127.999893 Z M 104 135.999908 L 100 135.999908 L 100 127.999893 L 104 127.999893 Z M 148 135.999908 L 108 135.999908 L 108 127.999893 L 148 127.999893 Z M 156 135.999908 L 152 135.999908 L 152 127.999893 L 156 127.999893 Z M 163.662994 130.401901 C 163.666992 130.409897 163.673004 130.416901 163.675995 130.425903 C 163.768005 130.637909 163.834 130.8629 163.888 131.092896 C 163.895004 131.124908 163.908997 131.152893 163.916 131.18689 C 163.971008 131.448898 164 131.720901 164 131.999908 C 164 132.221893 163.970001 132.434906 163.934998 132.646896 C 163.899994 132.827911 163.856003 133.007904 163.802002 133.182892 C 163.294998 134.810898 161.794998 135.999908 160 135.999908 L 160 127.999893 C 161.089005 127.999893 162.074005 128.437897 162.794998 129.144897 C 163.160004 129.5009 163.455002 129.928894 163.662994 130.401901 M 182.119995 129.839905 L 168 129.331909 L 168 113.999893 L 198 113.999893 L 198 129.999908 L 184.022995 129.999908 C 183.395996 129.919891 182.763 129.8629 182.119995 129.839905 M 156.246002 139.999908 L 160 139.999908 C 163.720001 139.999908 166.845001 137.443909 167.735992 133.999908 L 168 133.999908 L 168 149.769897 C 164.570007 145.9879 160.613007 142.691895 156.246002 139.999908 M 88.263 133.999908 C 89.154999 137.443909 92.279999 139.999908 96 139.999908 L 99.749001 139.999908 C 95.383003 142.691895 91.429001 145.984894 88 149.766907 L 88 133.999908 Z M 128 235.999908 C 100.43 235.999908 78 213.569901 78 185.999908 C 78 165.377899 90.551003 147.634903 108.414001 139.999908 L 147.585999 139.999908 C 165.449005 147.634903 178 165.377899 178 185.999908 C 178 213.569901 155.570007 235.999908 128 235.999908 M 70.016006 237.501907 L 70.016006 235.999908 L 68.016006 235.999908 L 68.016006 236.7939 C 67.373993 236.516907 66.755005 236.195908 66.154999 235.842896 C 66.757996 235.936905 67.371002 235.999908 68 235.999908 C 74.617004 235.999908 80 230.616898 80 223.999908 C 80 217.382904 74.617004 211.999908 68 211.999908 C 63.487 211.999908 59.550995 214.506897 57.501999 218.198898 L 56.020004 186.816895 C 55.994003 186.274902 55.994003 185.725891 56.020004 185.183899 L 57.675995 150.139893 C 58.063995 141.911896 64.332001 135.137909 72.268005 133.999908 L 84 133.999908 L 84 154.731903 C 77.707001 163.560898 74 174.355896 74 185.999908 C 74 210.206894 90.012001 230.743896 112 237.579895 L 112 239.5289 L 74.022995 238.162903 C 72.639008 238.1129 71.300995 237.873901 70.016006 237.501907 M 60 223.999908 C 60 219.588898 63.589005 215.999908 68 215.999908 C 72.410995 215.999908 76 219.588898 76 223.999908 C 76 228.410904 72.410995 231.999908 68 231.999908 C 63.589005 231.999908 60 228.410904 60 223.999908 M 198.714005 103.999893 L 183.440994 103.999893 C 189.061005 94.312897 192 83.386902 192 71.999893 C 192 36.710907 163.290009 7.999908 128 7.999908 C 92.709999 7.999908 64 36.710907 64 71.999893 C 64 83.386902 66.938995 94.312897 72.559006 103.999893 L 57.285995 103.999893 C 52.166 103.999893 48 108.165894 48 113.285904 L 48 130.713898 C 48 135.647903 51.869995 139.683899 56.731995 139.971893 C 54.955994 142.9039 53.852997 146.298889 53.679993 149.950897 L 52.024002 184.994904 C 51.992004 185.66391 51.992004 186.3349 52.024002 187.004898 L 53.679993 222.048904 C 54.199005 233.024902 62.979996 241.768906 73.880005 242.159897 L 122.012001 243.892899 C 124.007004 243.963898 126.002998 243.999908 128 243.999908 C 129.996002 243.999908 131.992996 243.963898 133.988007 243.892899 L 182.119995 242.159897 C 193.020004 241.768906 201.800995 233.024902 202.320007 222.048904 L 203.977005 187.004898 C 204.007996 186.3349 204.007996 185.66391 203.977005 184.994904 L 202.320007 149.950897 C 202.147003 146.298889 201.044006 142.9039 199.268005 139.971893 C 204.130005 139.682892 208 135.647903 208 130.713898 L 208 113.285904 C 208 108.165894 203.834 103.999893 198.714005 103.999893"/>
</svg>
