<?xml version="1.0" encoding="UTF-8"?>
<!-- Generated by Pixelmator Pro 3.7.1 -->
<svg width="256" height="256" viewBox="0 0 256 256" xmlns="http://www.w3.org/2000/svg">
    <path id="Path" fill="#ffffff" stroke="none" d="M 236 36 L 236 220 C 236 224.417999 232.417999 228 228 228 L 28 228 C 23.582001 228 20 224.417999 20 220 L 20 36 L 20 20 C 20 18.399002 20.475006 16.910995 21.285004 15.660004 C 21.291 15.652008 21.294998 15.645004 21.300003 15.636993 C 21.406998 15.472992 21.522003 15.315994 21.639999 15.160995 C 21.671997 15.117996 21.703003 15.074005 21.735992 15.033005 C 21.843002 14.897995 21.957001 14.768997 22.072006 14.641998 C 22.123993 14.584 22.173004 14.527008 22.225998 14.472 C 22.334 14.358002 22.447006 14.25 22.561996 14.143997 C 22.630005 14.080994 22.697998 14.018005 22.768005 13.957001 C 22.878006 13.862 22.990997 13.770996 23.104996 13.682007 C 23.188004 13.617004 23.270996 13.554993 23.356003 13.494003 C 23.468002 13.415009 23.580002 13.337997 23.695007 13.264008 C 23.792007 13.201996 23.891006 13.143005 23.990997 13.084 C 24.102005 13.020004 24.212997 12.957001 24.328003 12.897003 C 24.438004 12.839996 24.552002 12.787003 24.666 12.735001 C 24.776001 12.684006 24.886993 12.632996 25 12.587006 C 25.125 12.535995 25.251999 12.492004 25.378998 12.447998 C 25.488007 12.410004 25.597 12.371002 25.707993 12.337006 C 25.848007 12.294998 25.990997 12.261993 26.134995 12.227997 C 26.238007 12.203003 26.341003 12.173996 26.445999 12.153992 C 26.610992 12.121002 26.779999 12.098999 26.949005 12.076996 C 27.037003 12.065002 27.123001 12.048004 27.210999 12.040009 C 27.470993 12.014999 27.733994 12 28 12 L 228 12 C 228.266998 12 228.529007 12.014999 228.789001 12.040009 C 228.876999 12.048004 228.962997 12.065002 229.050995 12.076996 C 229.220001 12.098999 229.389008 12.121002 229.554001 12.153992 C 229.658997 12.173996 229.761993 12.203003 229.865005 12.227997 C 230.009003 12.261993 230.151993 12.294998 230.291992 12.337006 C 230.403 12.371002 230.511993 12.410004 230.621002 12.447998 C 230.748001 12.492004 230.875 12.535995 230.998993 12.587006 C 231.113007 12.632996 231.223999 12.684006 231.334 12.735001 C 231.447998 12.787003 231.561996 12.839996 231.671997 12.897003 C 231.785995 12.957001 231.897995 13.020004 232.009003 13.084 C 232.108994 13.143005 232.207993 13.201996 232.304993 13.264008 C 232.419998 13.337997 232.531998 13.415009 232.643997 13.494003 C 232.729004 13.554993 232.811996 13.617004 232.895004 13.682007 C 233.009995 13.770996 233.121994 13.862 233.231995 13.957001 C 233.302002 14.018005 233.369995 14.080994 233.436996 14.143997 C 233.552994 14.25 233.664993 14.358002 233.772995 14.472 C 233.826004 14.527008 233.876999 14.584 233.927994 14.641998 C 234.042999 14.768997 234.156998 14.897995 234.264008 15.033005 C 234.296997 15.074005 234.326996 15.117996 234.358994 15.160995 C 234.477997 15.315994 234.593994 15.472992 234.699997 15.636993 L 234.714996 15.660004 C 235.524002 16.910995 236 18.399002 236 20 Z M 228 236 L 53.315002 236 C 53.75 235.089005 54 234.074005 54 233 C 54 232.660004 53.968994 232.326996 53.921005 232 L 228 232 C 231.042999 232 233.815994 230.852997 235.934998 228.979004 C 235.449997 232.934998 232.085999 236 228 236 M 24.322998 235.100006 C 22.035004 233.910004 20.391998 231.649002 20.065994 228.979004 C 21.261002 230.035995 22.669998 230.852005 24.214005 231.369995 C 24.087006 231.895996 24 232.436996 24 233 C 24 233.731003 24.113998 234.436996 24.322998 235.100006 M 28 233 C 28 232.647995 28.072006 232.313995 28.184998 232 L 39.815002 232 C 39.927994 232.313995 40 232.647995 40 233 C 40 234.649994 38.649994 236 37 236 L 31 236 C 29.350006 236 28 234.649994 28 233 M 50 233 C 50 234.656998 48.656998 236 47 236 C 45.343002 236 44 234.656998 44 233 C 44 232.647003 44.072006 232.313995 44.184006 232 L 49.815994 232 C 49.927994 232.313995 50 232.647003 50 233 M 228 244 L 28 244 C 23.914001 244 20.548996 240.934998 20.065994 236.979004 C 22.184006 238.852997 24.957001 240 28 240 L 31 240 L 37 240 L 228 240 C 231.042999 240 233.815994 238.852997 235.934998 236.979004 C 235.449997 240.934998 232.085999 244 228 244 M 228 8 L 28 8 C 21.382996 8 16 13.382996 16 20 L 16 28 L 16 36 L 16 220 L 16 228 L 16 236 C 16 242.617004 21.382996 248 28 248 L 228 248 C 234.617004 248 240 242.617004 240 236 L 240 228 L 240 220 L 240 36 L 240 28 L 240 20 C 240 13.382996 234.617004 8 228 8"/>
</svg>
