<?xml version="1.0" encoding="UTF-8"?>
<!-- Generated by Pixelmator Pro 3.7.1 -->
<svg width="256" height="256" viewBox="0 0 256 256" xmlns="http://www.w3.org/2000/svg">
    <path id="Path" fill="#ffffff" stroke="none" d="M 240 244 L 220 236 L 220.429001 228 L 232 228 L 236 228 L 236 224 L 236 12 L 240 12 Z M 216.636993 224 L 39.363007 224 L 35.356995 224 L 24 224 L 24 12 L 28.005997 12 L 227.994003 12 L 232 12 L 232 224 L 220.643005 224 Z M 16 244 L 16 12 L 20 12 L 20 224 L 20 228 L 24 228 L 35.570999 228 L 36 236 Z M 240 8 L 236 8 L 232 8 L 228.209 8 L 27.792007 8 L 24 8 L 20 8 L 16 8 L 12 8 L 12 12 L 12 244 L 12 249.908005 L 17.485001 247.714005 L 37.485001 239.714005 L 40.147003 238.649002 L 39.994003 235.785995 L 39.576996 228 L 216.423004 228 L 216.005997 235.785995 L 215.852997 238.649002 L 218.514999 239.714005 L 238.514999 247.714005 L 244 249.908005 L 244 244 L 244 12 L 244 8 Z"/>
</svg>
