<?xml version="1.0" encoding="UTF-8"?>
<!-- Generated by Pixelmator Pro 3.7.1 -->
<svg width="256" height="256" viewBox="0 0 256 256" xmlns="http://www.w3.org/2000/svg">
    <path id="Path" fill="#ffffff" stroke="none" d="M 218 170 C 226.822006 170 234 177.178009 234 186 C 234 194.821991 226.822006 202 218 202 C 209.177994 202 202 194.821991 202 186 C 202 177.178009 209.177994 170 218 170 M 243.927994 129.522003 L 241.399994 182.593002 C 240.608002 199.216003 227.209 212.457001 210.578995 213.050995 L 152 215.143005 L 152 208.488007 C 170.449005 202.977005 186.248001 191.287994 196.998001 175.826996 L 199.524994 178.354004 C 198.546997 180.712006 198 183.291992 198 186 C 198 197.028 206.972 206 218 206 C 229.028 206 238 197.028 238 186 C 238 174.972 229.028 166 218 166 C 211.166992 166 205.130005 169.447998 201.520996 174.69101 L 199.246994 172.419006 C 207.315994 159.52301 212 144.302002 212 128 C 212 108.44101 205.261993 90.438004 194.011002 76.145996 L 190.240997 42.222992 L 210.578995 42.949005 C 227.209 43.542999 240.608002 56.785004 241.399994 73.406998 L 243.927994 126.477997 C 243.975998 127.492004 243.975998 128.507996 243.927994 129.522003 M 137.136993 215.673996 C 134.093002 215.781998 131.04599 215.837006 128 215.837006 C 124.954002 215.837006 121.907997 215.781998 118.862999 215.673996 L 108 215.285995 L 108 209.574997 C 114.414001 211.147003 121.108002 212 128 212 C 134.891998 212 141.585999 211.147003 148 209.574997 L 148 215.285995 Z M 40 212.386002 L 40 205.897995 C 50.091995 204.891998 58 196.352997 58 186 C 58 174.972 49.028 166 38 166 C 26.972 166 18 174.972 18 186 C 18 196.352997 25.908005 204.891998 36 205.897995 L 36 211.274994 C 23.983002 207.074005 15.233994 195.925003 14.600006 182.593002 L 12.072006 129.522003 C 12.024002 128.507996 12.024002 127.492004 12.072006 126.477997 L 14.600006 73.406998 C 15.391006 56.785004 28.791 43.542999 45.421005 42.949005 L 65.759003 42.222992 L 61.990005 76.144989 C 50.738007 90.436996 44 108.44101 44 128 C 44 165.979004 69.343002 198.13501 104 208.488007 L 104 215.143005 L 45.421005 213.050995 C 43.569 212.984009 41.759003 212.752991 40 212.386002 M 38 202 C 29.177994 202 22 194.821991 22 186 C 22 177.178009 29.177994 170 38 170 C 46.822006 170 54 177.178009 54 186 C 54 194.821991 46.822006 202 38 202 M 118.862999 40.326004 C 121.907997 40.218002 124.954002 40.162994 128 40.162994 C 131.04599 40.162994 134.093002 40.218002 137.136993 40.326004 L 186.199997 42.07901 L 189.384995 70.744995 C 174.041992 54.306 152.207001 44 128 44 C 103.792 44 81.957001 54.307007 66.613998 70.746002 L 69.798996 42.07901 Z M 128 208 C 83.888 208 48 172.112 48 128 C 48 83.888 83.888 48 128 48 C 172.112 48 208 83.888 208 128 C 208 172.112 172.112 208 128 208 M 247.923004 126.287994 L 245.395996 73.216003 C 244.964996 64.171997 241.181 55.686996 234.740005 49.321991 C 228.300995 42.958008 219.770996 39.274994 210.722 38.951996 L 137.278992 36.328995 C 134.200989 36.218994 131.07901 36.162994 128 36.162994 C 124.919998 36.162994 121.797997 36.218994 118.720001 36.328995 L 45.278 38.951996 C 36.229996 39.274994 27.699997 42.958008 21.259003 49.321991 C 14.819 55.686996 11.035004 64.171997 10.604004 73.216003 L 8.076996 126.287994 C 8.022995 127.423996 8.022995 128.576004 8.076996 129.712006 L 10.604004 182.78299 C 11.035004 191.828003 14.819 200.313004 21.259003 206.678009 C 27.699997 213.041992 36.229996 216.725006 45.278 217.048004 L 118.720001 219.671005 C 121.797997 219.781006 124.919998 219.837006 128 219.837006 C 131.080002 219.837006 134.201996 219.781006 137.278992 219.671005 L 210.722 217.048004 C 219.770996 216.725006 228.300995 213.041992 234.740005 206.678009 C 241.181 200.313004 244.964996 191.828003 245.395996 182.78299 L 247.923004 129.712006 C 247.977997 128.576004 247.977997 127.423996 247.923004 126.287994"/>
</svg>
