<?xml version="1.0" encoding="UTF-8"?>
<!-- Generated by Pixelmator Pro 3.7.1 -->
<svg width="256" height="256" viewBox="0 0 256 256" xmlns="http://www.w3.org/2000/svg">
    <path id="Path" fill="#ffffff" stroke="none" d="M 184 236 L 180 236 L 76 236 L 72 236 L 72 240 L 72 244 L 72 248 L 76 248 L 180 248 L 184 248 L 184 244 L 184 240 Z M 180 244 L 76 244 L 76 240 L 180 240 Z"/>
    <path id="path1" fill="#ffffff" stroke="none" d="M 204 8 L 200 8 L 56 8 L 52 8 L 52 12 L 52 236 L 52 240 L 56 240 L 200 240 L 204 240 L 204 236 L 204 12 Z M 200 236 L 56 236 L 56 12 L 200 12 Z"/>
    <path id="path2" fill="#ffffff" stroke="none" d="M 204 136 L 200 136 L 56 136 L 52 136 L 52 140 L 52 156 L 52 160 L 56 160 L 200 160 L 204 160 L 204 156 L 204 140 Z M 200 156 L 56 156 L 56 140 L 200 140 Z"/>
</svg>
