<?xml version="1.0" encoding="UTF-8"?>
<!-- Generated by Pixelmator Pro 3.7.1 -->
<svg width="256" height="256" viewBox="0 0 256 256" xmlns="http://www.w3.org/2000/svg">
    <path id="Path" fill="#ffffff" stroke="none" d="M 222.578094 172.343689 C 218.646103 175.04071 212.8181 178.22171 205.901093 179.463699 C 208.748093 176.935699 214.091095 173.436707 222.578094 172.343689 M 56.000095 179.999695 C 44.000095 167.999695 28.000097 167.999695 28.000097 167.999695 C 28.000097 167.999695 12.000097 151.999695 12.000097 123.999695 C 12.000097 95.999695 32.000095 83.999695 32.000095 83.999695 C 45.616093 83.999695 53.439091 78.205704 55.467106 76.479706 C 55.831104 76.169693 56.288105 75.999695 56.766102 75.999695 L 60.000095 75.999695 L 196.000107 75.999695 L 199.1931 75.999695 C 199.711105 75.999695 200.207092 76.210693 200.5811 76.568695 C 207.586105 83.276703 214.524094 84.639694 219.008102 84.639694 C 222.080093 84.639694 224.000107 83.999695 224.000107 83.999695 C 224.000107 83.999695 244.000107 99.999695 244.000107 127.999695 C 244.000107 155.999695 228.000107 167.999695 228.000107 167.999695 C 208.000107 167.999695 200.000107 179.999695 200.000107 179.999695 Z M 34.113102 172.808701 C 38.180103 173.678711 43.712101 175.486694 48.931095 179.233704 C 42.912098 177.944702 37.786091 175.240692 34.113102 172.808701 M 47.344105 76.847702 C 45.266102 77.805695 42.638096 78.720703 39.458103 79.317703 C 41.615101 78.362701 44.249104 77.468704 47.344105 76.847702 M 219.198105 80.635696 C 219.133102 80.635696 219.074097 80.639694 219.008102 80.639694 C 215.920105 80.639694 211.531097 79.850708 206.797104 76.526703 C 212.202103 77.358704 216.344101 79.056702 219.198105 80.635696 M 248.000107 127.999695 C 248.000107 99.359695 228.670105 82.664703 226.642105 80.993698 C 225.245102 79.687698 216.322098 71.999695 200.000107 71.999695 L 199.1931 71.999695 L 196.000107 71.999695 L 60.000095 71.999695 L 56.766102 71.999695 L 56.000095 71.999695 C 40.278095 71.999695 31.442099 79.115707 29.563101 80.807693 C 26.568106 82.745697 8.000097 95.893707 8.000097 123.999695 C 8.000097 146.791702 17.951101 162.018707 22.711096 167.999695 L 22.3431 167.999695 L 25.171103 170.827698 L 26.3431 171.999695 L 26.441107 171.999695 C 29.987097 175.111694 40.581104 183.318695 54.302097 183.95871 L 54.343098 183.999695 L 56.000095 183.999695 L 200.000107 183.999695 L 202.141098 183.999695 L 202.190094 183.92569 C 217.635101 182.995697 229.015106 172.575699 230.639099 171.013702 C 232.793106 169.293701 248.000107 156.158691 248.000107 127.999695"/>
    <path id="path1" fill="#ffffff" stroke="none" d="M 40 146 C 36.687 146 34 143.313004 34 140 C 34 136.686996 36.687 134 40 134 C 43.313 134 46 136.686996 46 140 C 46 143.313004 43.313 146 40 146 M 38 164 C 34.687 164 32 161.313004 32 158 C 32 154.686996 34.687 152 38 152 C 41.313 152 44 154.686996 44 158 C 44 161.313004 41.313 164 38 164 M 50 140 C 50 134.485992 45.514 130 40 130 C 34.486 130 30 134.485992 30 140 C 30 143.612 31.931999 146.77301 34.810001 148.531006 C 30.857 149.867004 28 153.602997 28 158 C 28 163.514008 32.486 168 38 168 C 43.514 168 48 163.514008 48 158 C 48 154.388 46.068001 151.22699 43.189999 149.468994 C 47.143002 148.132996 50 144.397003 50 140"/>
    <path id="path2" fill="#ffffff" stroke="none" d="M 222 140 C 222 143.313004 219.313004 146 216 146 C 212.686996 146 210 143.313004 210 140 C 210 136.686996 212.686996 134 216 134 C 219.313004 134 222 136.686996 222 140 M 206 140 C 206 145.514008 210.485992 150 216 150 C 221.514008 150 226 145.514008 226 140 C 226 134.485992 221.514008 130 216 130 C 210.485992 130 206 134.485992 206 140"/>
    <path id="path3" fill="#ffffff" stroke="none" d="M 46.2617 115.633301 L 46.050701 116.055298 L 40.050701 116.055298 L 36.757702 112.762299 C 36.366699 112.372299 36.366699 111.739304 36.757702 111.348297 L 40.050701 108.055298 L 46.050701 108.055298 L 46.2617 108.478302 C 47.387699 110.730301 47.387699 113.381302 46.2617 115.633301 M 38.050701 124.000305 L 37.6287 124.211304 C 36.502701 124.774307 35.276699 125.055298 34.050701 125.055298 C 32.824699 125.055298 31.5987 124.774307 30.4727 124.211304 L 30.050699 124.000305 L 30.050699 118.000305 L 33.3437 114.707306 C 33.5387 114.511307 33.794701 114.414307 34.050701 114.414307 C 34.306702 114.414307 34.562698 114.511307 34.757702 114.707306 L 38.050701 118.000305 Z M 28.050699 116.055298 L 22.050699 116.055298 L 21.839699 115.633301 C 20.713699 113.381302 20.713699 110.730301 21.839699 108.478302 L 22.050699 108.055298 L 28.050699 108.055298 L 31.3437 111.348297 C 31.7337 111.739304 31.7337 112.372299 31.3437 112.762299 Z M 30.050699 100.000305 L 30.4727 99.789307 C 31.5987 99.225296 32.824699 98.944305 34.050701 98.944305 C 35.276699 98.944305 36.502701 99.225296 37.6287 99.789307 L 38.050701 100.000305 L 38.050701 106.000305 L 34.757702 109.293304 C 34.562698 109.488297 34.306702 109.586304 34.050701 109.586304 C 33.794701 109.586304 33.5387 109.488297 33.3437 109.293304 L 30.050699 106.000305 Z M 49.6287 106.267303 L 48.522701 104.055298 L 46.050701 104.055298 L 42.050701 104.055298 L 42.050701 100.000305 L 42.050701 97.528305 L 39.839699 96.422302 L 39.416698 96.211304 C 37.759701 95.382294 35.904701 94.944305 34.050701 94.944305 C 32.197701 94.944305 30.3417 95.382294 28.683701 96.211304 L 28.2617 96.422302 L 26.050699 97.528305 L 26.050699 100.000305 L 26.050699 104.055298 L 22.050699 104.055298 L 19.578699 104.055298 L 18.4727 106.267303 L 18.2617 106.689301 C 16.581699 110.050293 16.581699 114.062302 18.2617 117.422302 L 18.4727 117.844299 L 19.578699 120.055298 L 22.050699 120.055298 L 26.050699 120.055298 L 26.050699 124.000305 L 26.050699 126.472305 L 28.2617 127.577301 L 28.683701 127.789307 C 30.3417 128.61731 32.197701 129.055298 34.050701 129.055298 C 35.903702 129.055298 37.759701 128.61731 39.417702 127.789307 L 39.839699 127.577301 L 42.050701 126.472305 L 42.050701 124.000305 L 42.050701 120.055298 L 46.050701 120.055298 L 48.522701 120.055298 L 49.6287 117.844299 L 49.839699 117.422302 C 51.519699 114.062302 51.519699 110.050293 49.839699 106.689301 Z"/>
    <path id="path4" fill="#ffffff" stroke="none" d="M 200 170 C 200 172.205994 198.205994 174 196 174 L 60 174 C 57.794006 174 56 172.205994 56 170 L 56 86 C 56 83.794006 57.794006 82 60 82 L 196 82 C 198.205994 82 200 83.794006 200 86 Z M 212.5 107 C 215.261993 107 217.5 109.238998 217.5 112 C 217.5 114.761002 215.261993 117 212.5 117 C 209.738007 117 207.5 114.761002 207.5 112 C 207.5 109.238998 209.738007 107 212.5 107 M 222 97.5 C 224.761993 97.5 227 99.738998 227 102.5 C 227 105.261002 224.761993 107.5 222 107.5 C 219.238007 107.5 217 105.261002 217 102.5 C 217 99.738998 219.238007 97.5 222 97.5 M 231.5 107 C 234.261993 107 236.5 109.238998 236.5 112 C 236.5 114.761002 234.261993 117 231.5 117 C 228.738007 117 226.5 114.761002 226.5 112 C 226.5 109.238998 228.738007 107 231.5 107 M 221.485001 111.485001 C 221.656006 111.494995 221.826996 111.5 222 111.5 C 222.173004 111.5 222.343994 111.494995 222.514999 111.485001 C 222.505005 111.656006 222.5 111.826996 222.5 112 C 222.5 112.173004 222.505005 112.343994 222.514999 112.514999 C 222.343994 112.505005 222.173004 112.5 222 112.5 C 221.826996 112.5 221.656006 112.505005 221.485001 112.514999 C 221.494995 112.343994 221.5 112.173004 221.5 112 C 221.5 111.826996 221.494995 111.656006 221.485001 111.485001 M 222 126.5 C 219.238007 126.5 217 124.261002 217 121.5 C 217 118.738998 219.238007 116.5 222 116.5 C 224.761993 116.5 227 118.738998 227 121.5 C 227 124.261002 224.761993 126.5 222 126.5 M 204 158 L 204 114.932007 C 205.220001 118.457001 208.563995 121 212.5 121 C 212.673004 121 212.843994 120.994995 213.014999 120.985001 C 213.005005 121.156006 213 121.326996 213 121.5 C 213 126.462006 217.037003 130.5 222 130.5 C 226.962997 130.5 231 126.462006 231 121.5 C 231 121.326996 230.994995 121.156006 230.985001 120.985001 C 231.156006 120.994995 231.326996 121 231.5 121 C 236.462997 121 240.5 116.962006 240.5 112 C 240.5 107.037003 236.462997 103 231.5 103 C 231.326996 103 231.156006 103.005005 230.985001 103.014999 C 230.994995 102.843994 231 102.673004 231 102.5 C 231 97.537003 226.962997 93.5 222 93.5 C 217.037003 93.5 213 97.537003 213 102.5 C 213 102.673004 213.005005 102.843994 213.014999 103.014999 C 212.843994 103.005005 212.673004 103 212.5 103 C 208.563995 103 205.220001 105.542999 204 109.067993 L 204 86 C 204 81.600006 200.399994 78 196 78 L 60 78 C 55.600006 78 52 81.600006 52 86 L 52 170 C 52 174.399994 55.600006 178 60 178 L 196 178 C 200.399994 178 204 174.399994 204 170 Z"/>
    <path id="path5" fill="#ffffff" stroke="none" d="M 64 92 L 192 92 L 192 160 L 64 160 Z M 60 164 L 196 164 L 196 88 L 60 88 Z"/>
    <path id="path6" fill="#ffffff" stroke="none" d="M 212 154 C 214.209 154 216 155.791 216 158 C 216 160.209 214.209 162 212 162 C 209.791 162 208 160.209 208 158 C 208 155.791 209.791 154 212 154 M 224 154 C 226.209 154 228 155.791 228 158 C 228 160.209 226.209 162 224 162 C 221.791 162 220 160.209 220 158 C 220 155.791 221.791 154 224 154 M 212 166 C 214.391006 166 216.533005 164.94101 218 163.27301 C 219.466995 164.94101 221.608994 166 224 166 C 228.410995 166 232 162.411011 232 158 C 232 153.588989 228.410995 150 224 150 C 221.608994 150 219.466995 151.05899 218 152.72699 C 216.533005 151.05899 214.391006 150 212 150 C 207.589005 150 204 153.588989 204 158 C 204 162.411011 207.589005 166 212 166"/>
    <path id="path7" fill="#ffffff" stroke="none" d="M 210 96 C 211.104004 96 212 95.104004 212 94 C 212 92.895996 211.104004 92 210 92 C 208.895996 92 208 92.895996 208 94 C 208 95.104004 208.895996 96 210 96"/>
</svg>
