<?xml version="1.0" encoding="UTF-8"?>
<!-- Generated by Pixelmator Pro 3.7.1 -->
<svg width="256" height="256" viewBox="0 0 256 256" xmlns="http://www.w3.org/2000/svg">
    <path id="Path" fill="#ffffff" stroke="none" d="M 244 220 L 244 224 L 128 224 C 127.999001 224 112 224.001007 112 244 L 100 244 L 16 244 C 13.791 244 12 242.209 12 240 L 12 16 C 12 13.791 13.791 12 16 12 L 240 12 C 242.209 12 244 13.791 244 16 L 244 216 Z M 240 234 C 240 237.313004 237.313004 240 234 240 C 230.686996 240 228 237.313004 228 234 C 228 230.686996 230.686996 228 234 228 C 237.313004 228 240 230.686996 240 234 M 188 234 C 188 237.313004 185.313004 240 182 240 C 178.686996 240 176 237.313004 176 234 C 176 230.686996 178.686996 228 182 228 C 185.313004 228 188 230.686996 188 234 M 244 234 L 244 236 L 244 240 C 244 242.209 242.209 244 240 244 L 234 244 L 182 244 L 116 244 C 116 237.322006 117.973999 232.630005 121.865997 230.054993 C 124.851997 228.080002 128.002991 228 128.035004 228 L 174.019989 228 C 172.757996 229.673996 172 231.746994 172 234 C 172 239.514008 176.485992 244 182 244 C 187.514008 244 192 239.514008 192 234 C 192 231.746994 191.242004 229.673996 189.979996 228 L 226.020004 228 C 224.757996 229.673996 224 231.746994 224 234 C 224 239.514008 228.485992 244 234 244 C 239.514008 244 244 239.514008 244 234 C 244 231.746994 243.242004 229.673996 241.979996 228 L 244 228 Z M 240 8 L 16 8 C 11.589005 8 8 11.589005 8 16 L 8 240 C 8 244.410995 11.589005 248 16 248 L 100 248 L 112 248 L 116 248 L 240 248 C 244.410995 248 248 244.410995 248 240 L 248 228 L 248 224 L 248 220 L 248 216 L 248 16 C 248 11.589005 244.410995 8 240 8"/>
    <path id="path1" fill="#ffffff" stroke="none" d="M 176 152 L 168 152 L 168 160 L 160 160 L 160 152 L 152 152 L 152 144 L 160 144 L 160 136 L 168 136 L 168 144 L 176 144 Z M 156 136.654999 L 156 140 L 153.214005 140 Z M 128.015991 164 L 88 116 L 112 116 L 112 68 C 112 63.582001 115.582001 60 120 60 L 136 60 C 140.417999 60 144 63.582001 144 68 L 144 116 L 168 116 L 148.007996 140 L 148 140 L 148 140.01001 Z M 168 176 C 168 178.209 166.209 180 164 180 L 92 180 C 89.791 180 88 178.209 88 176 C 88 173.791 89.791 172 92 172 L 164 172 C 166.209 172 168 173.791 168 176 M 172 140 L 172 136 L 172 132 L 168 132 L 160 132 L 159.878006 132 L 171.072998 118.559998 L 176.537994 112 L 168 112 L 148 112 L 148 68 C 148 61.382996 142.617004 56 136 56 L 120 56 C 113.382996 56 108 61.382996 108 68 L 108 112 L 88 112 L 79.458 112 L 84.928001 118.561996 L 124.943001 166.561996 L 126.143005 168 L 92 168 C 87.588997 168 84 171.589005 84 176 C 84 180.410995 87.588997 184 92 184 L 164 184 C 168.410995 184 172 180.410995 172 176 C 172 171.589005 168.410995 168 164 168 L 129.889999 168 L 131.089996 166.561005 L 148 146.26001 L 148 152 L 148 156 L 152 156 L 156 156 L 156 160 L 156 164 L 160 164 L 168 164 L 172 164 L 172 160 L 172 156 L 176 156 L 180 156 L 180 152 L 180 144 L 180 140 L 176 140 Z"/>
</svg>
