<?xml version="1.0" encoding="UTF-8"?>
<!-- Generated by Pixelmator Pro 3.7.1 -->
<svg width="256" height="256" viewBox="0 0 256 256" xmlns="http://www.w3.org/2000/svg">
    <path id="Path" fill="#ffffff" stroke="none" d="M 244 224 C 244 224.266998 243.985001 224.528992 243.960007 224.789001 C 243.951004 224.876999 243.934998 224.962997 243.923004 225.050995 C 243.901001 225.220001 243.878998 225.389008 243.847 225.554001 C 243.824997 225.658997 243.796997 225.761993 243.772003 225.865005 C 243.738007 226.009003 243.705002 226.152008 243.662994 226.291992 C 243.630005 226.403 243.589996 226.511993 243.552002 226.621002 C 243.507996 226.748001 243.464005 226.875 243.412994 226.998993 C 243.367004 227.113007 243.315994 227.223999 243.266006 227.334 C 243.212997 227.447998 243.160004 227.561996 243.102997 227.671997 C 243.042999 227.785995 242.979996 227.897995 242.916 228.009003 C 242.856995 228.109009 242.798004 228.208008 242.735001 228.304993 C 242.662003 228.419998 242.585999 228.531998 242.505997 228.643997 C 242.445007 228.729004 242.382996 228.811996 242.317993 228.895004 C 242.229004 229.009995 242.138 229.121994 242.042999 229.231995 C 241.981995 229.302002 241.919006 229.369995 241.854996 229.436996 C 241.748993 229.552994 241.641998 229.665009 241.528 229.772995 C 241.473007 229.826004 241.414993 229.876999 241.358002 229.927994 C 241.231003 230.042999 241.102997 230.156998 240.968002 230.264008 C 240.925995 230.296997 240.882004 230.326996 240.839005 230.359009 C 240.684998 230.477997 240.526993 230.593994 240.363007 230.699997 L 240.339996 230.714996 C 239.089005 231.524002 237.602005 232 236 232 L 220 232 L 204.199005 232 L 164 232 L 244 240 L 12 240 L 92 232 L 51.800995 232 L 36 232 C 31.582001 232 28 228.417999 28 224 L 28 24 C 28 19.582001 31.582001 16 36 16 L 220 16 L 236 16 C 237.602005 16 239.089005 16.475006 240.339996 17.285004 C 240.348007 17.291 240.354996 17.294998 240.363007 17.300003 C 240.526993 17.406998 240.684998 17.522003 240.839005 17.639999 C 240.882004 17.671997 240.925995 17.703003 240.968002 17.735992 C 241.102997 17.843002 241.231003 17.957001 241.358002 18.072006 C 241.414993 18.123993 241.473007 18.173004 241.528 18.225998 C 241.641998 18.334 241.748993 18.447006 241.854996 18.561996 C 241.919006 18.630005 241.981995 18.697998 242.042999 18.768005 C 242.138 18.878006 242.229004 18.990997 242.317993 19.104996 C 242.382996 19.188004 242.445007 19.270996 242.505997 19.356003 C 242.585999 19.468002 242.662003 19.580002 242.735001 19.695007 C 242.798004 19.792007 242.856995 19.891006 242.916 19.990997 C 242.979996 20.102005 243.042999 20.212997 243.102997 20.328003 C 243.160004 20.438004 243.212997 20.552002 243.266006 20.666 C 243.315994 20.776001 243.367004 20.886993 243.412994 21 C 243.464005 21.125 243.507996 21.251999 243.552002 21.378998 C 243.589996 21.488007 243.630005 21.597 243.662994 21.707993 C 243.705002 21.848007 243.738007 21.990997 243.772003 22.134995 C 243.796997 22.238007 243.824997 22.341003 243.847 22.445999 C 243.878998 22.610992 243.901001 22.779999 243.923004 22.949005 C 243.934998 23.037003 243.951004 23.123001 243.960007 23.210999 C 243.985001 23.470993 244 23.733994 244 24 Z M 12 224 L 12 24 C 12 19.914001 15.065002 16.548996 19.020996 16.065994 C 17.147995 18.184006 16 20.957001 16 24 L 16 27 L 16 33 L 16 224 C 16 227.042999 17.147995 229.815994 19.020996 231.934998 C 15.065002 231.449997 12 228.085999 12 224 M 20 49.315002 C 20.910995 49.75 21.925003 50 23 50 C 23.339996 50 23.673004 49.968994 24 49.921005 L 24 224 C 24 227.042999 25.147995 229.815994 27.020996 231.934998 C 23.065002 231.449997 20 228.085999 20 224 Z M 24 35.815002 C 23.686005 35.927994 23.352005 36 23 36 C 21.350006 36 20 34.649994 20 33 L 20 27 C 20 25.350006 21.350006 24 23 24 C 23.352005 24 23.686005 24.072006 24 24.184998 Z M 24 45.815994 C 23.686005 45.927994 23.352997 46 23 46 C 21.343002 46 20 44.656998 20 43 C 20 41.343002 21.343002 40 23 40 C 23.352997 40 23.686005 40.072006 24 40.184006 Z M 27.020996 16.065994 C 25.964005 17.261002 25.149002 18.669998 24.630005 20.214005 C 24.104004 20.087006 23.563995 20 23 20 C 22.268997 20 21.563004 20.113998 20.899994 20.322998 C 22.089996 18.035004 24.350998 16.391998 27.020996 16.065994 M 248 224 L 248 24 C 248 17.382996 242.617004 12 236 12 L 228 12 L 220 12 L 36 12 L 28 12 L 20 12 C 13.382996 12 8 17.382996 8 24 L 8 224 C 8 229.453003 11.660004 234.061005 16.649994 235.514999 L 11.602005 236.020004 C 9.481003 236.231995 7.899002 238.070007 8.005005 240.199005 C 8.110992 242.328003 9.867996 244 12 244 L 244 244 C 246.132004 244 247.889008 242.328003 247.994995 240.199005 C 248.102005 238.070007 246.520004 236.231995 244.397995 236.020004 L 239.350006 235.514999 C 244.339996 234.061005 248 229.453003 248 224"/>
</svg>
