<?xml version="1.0" encoding="UTF-8"?>
<!-- Generated by Pixelmator Pro 3.7.1 -->
<svg width="256" height="256" viewBox="0 0 256 256" xmlns="http://www.w3.org/2000/svg">
    <path id="Path" fill="#ffffff" stroke="none" d="M 202 32 L 203 32 C 203.552994 32 204 32.447998 204 33 L 204 39 C 204 39.552002 203.552994 40 203 40 L 202 40 C 200.895996 40 200 40.895996 200 42 L 200 46 C 200 47.104004 200.895996 48 202 48 L 203 48 C 203.552994 48 204 48.447998 204 49 L 204 208 L 200 208 L 197.100006 208 C 196.492004 208 196 208.492004 196 209.100006 L 196 209.104004 C 196 210.975006 195.343994 212.787003 194.145996 214.225006 L 177.199005 234.561005 C 176.438995 235.473007 175.313004 236 174.126007 236 L 52 236 L 52 49 C 52 48.447998 52.447998 48 53 48 L 54 48 C 55.104004 48 56 47.104004 56 46 L 56 42 C 56 40.895996 55.104004 40 54 40 L 53 40 C 52.447998 40 52 39.552002 52 39 L 52 33 C 52 32.447998 52.447998 32 53 32 L 54 32 C 55.104004 32 56 31.104004 56 30 L 56 26 C 56 24.895996 55.104004 24 54 24 L 53 24 C 52.447998 24 52 23.552002 52 23 L 52 16 C 52 13.791 53.791 12 56 12 L 152.027008 12 C 155.677002 14.425003 161.462997 16 168 16 C 174.537003 16 180.322998 14.425003 183.972992 12 L 200 12 C 202.209 12 204 13.791 204 16 L 204 23 C 204 23.552002 203.552994 24 203 24 L 202 24 C 200.895996 24 200 24.895996 200 26 L 200 30 C 200 31.104004 200.895996 32 202 32 M 204 216 L 204 217.104004 C 204 218.975006 203.343994 220.787003 202.145996 222.225006 L 185.199005 242.561005 C 184.438995 243.473007 183.313004 244 182.126999 244 L 56 244 C 53.791 244 52 242.209 52 240 L 178.126007 240 C 179.313004 240 180.438995 239.473007 181.199005 238.561005 L 198.145996 218.225006 C 199.343994 216.787003 200 214.975006 200 213.104004 L 200 213.100006 C 200 212.492004 200.492004 212 201.100006 212 L 204 212 Z M 208 23 L 208 16 C 208 11.589005 204.410995 8 200 8 L 183.972992 8 L 182.764999 8 L 181.759003 8.667999 C 178.619003 10.753998 173.475998 12 168 12 C 162.524002 12 157.380997 10.753998 154.240997 8.667999 L 153.235001 8 L 152.027008 8 L 56 8 C 51.589005 8 48 11.589005 48 16 L 48 23 C 48 25.414993 49.720993 27.434998 52 27.899002 L 52 28.100998 C 49.720993 28.565002 48 30.585007 48 33 L 48 39 C 48 41.414993 49.720993 43.434998 52 43.899002 L 52 44.100998 C 49.720993 44.565002 48 46.585007 48 49 L 48 238 L 48 240 C 48 244.410995 51.589005 248 56 248 L 182.126999 248 C 184.507996 248 186.748001 246.951004 188.272003 245.121002 L 205.218994 224.785995 C 207.013 222.634003 208 219.904999 208 217.104004 L 208 216 L 208 49 C 208 46.585007 206.279007 44.565002 204 44.100998 L 204 43.899002 C 206.279007 43.434998 208 41.414993 208 39 L 208 33 C 208 30.585007 206.279007 28.565002 204 28.100998 L 204 27.899002 C 206.279007 27.434998 208 25.414993 208 23"/>
    <path id="path1" fill="#ffffff" stroke="none" d="M 78 168 C 74.691002 168 72 165.30899 72 162 C 72 158.69101 74.691002 156 78 156 C 81.308998 156 84 158.69101 84 162 C 84 165.30899 81.308998 168 78 168 M 78 152 C 72.476997 152 68 156.477997 68 162 C 68 167.522003 72.476997 172 78 172 C 83.523003 172 88 167.522003 88 162 C 88 156.477997 83.523003 152 78 152"/>
    <path id="path2" fill="#ffffff" stroke="none" d="M 68 142 C 68 140.897003 68.897003 140 70 140 C 71.102997 140 72 140.897003 72 142 C 72 143.102997 71.102997 144 70 144 C 68.897003 144 68 143.102997 68 142 M 76 142 C 76 138.686996 73.313004 136 70 136 C 66.686996 136 64 138.686996 64 142 C 64 145.313004 66.686996 148 70 148 C 73.313004 148 76 145.313004 76 142"/>
    <path id="path3" fill="#ffffff" stroke="none" d="M 196 180 L 160 180 L 160 176 L 160 166.949997 L 160 163.738007 C 162.447998 161.544998 164.669998 159.104004 166.626007 156.455002 C 166.653 156.419006 166.677994 156.382004 166.705002 156.346008 C 167.149994 155.738998 167.582001 155.122009 167.998993 154.494995 C 168.084 154.367004 168.164001 154.235001 168.248001 154.106003 C 168.600006 153.56601 168.944 153.020996 169.274002 152.464996 C 169.384003 152.281006 169.488007 152.093994 169.595001 151.908997 C 169.888 151.401001 170.175003 150.889999 170.449005 150.371002 C 170.567993 150.145996 170.682007 149.919998 170.796997 149.694 C 171.046005 149.205002 171.289001 148.712006 171.520996 148.212997 C 171.639999 147.959 171.753998 147.703003 171.867996 147.446991 C 172.082001 146.966995 172.289001 146.481995 172.487 145.994003 C 172.600006 145.716995 172.709991 145.438004 172.817001 145.158997 C 173 144.68399 173.175003 144.203003 173.343002 143.721008 C 173.445999 143.423004 173.548004 143.125 173.645996 142.824997 C 173.800995 142.350998 173.945007 141.872009 174.084991 141.390991 C 174.177002 141.078003 174.268005 140.765991 174.352997 140.449997 C 174.481003 139.972 174.598999 139.488007 174.712997 139.003998 C 174.789001 138.681 174.867004 138.359009 174.936996 138.033997 C 175.041 137.544998 175.132004 137.050995 175.221008 136.557007 C 175.279999 136.229996 175.343994 135.906006 175.395996 135.578003 C 175.477997 135.067993 175.541992 134.553009 175.606003 134.037994 C 175.645996 133.720001 175.694 133.404999 175.729004 133.084991 C 175.787994 132.520004 175.828003 131.947998 175.867996 131.376999 C 175.886993 131.104004 175.916 130.834 175.931 130.559998 C 175.975006 129.712006 176 128.858002 176 128 C 176 127.141998 175.975006 126.289001 175.931 125.44101 C 175.916 125.166 175.886993 124.895996 175.867996 124.623001 C 175.828003 124.050995 175.787994 123.479996 175.729004 122.915009 C 175.694 122.595001 175.645996 122.279999 175.606003 121.962006 C 175.541992 121.446991 175.477997 120.932007 175.395996 120.421005 C 175.343994 120.093002 175.279999 119.770004 175.221008 119.442993 C 175.132004 118.949005 175.041 118.455002 174.936996 117.966003 C 174.867004 117.640991 174.789001 117.319 174.712997 116.997009 C 174.598999 116.511993 174.481003 116.028 174.352997 115.550003 C 174.268005 115.234009 174.177002 114.921997 174.084991 114.609009 C 173.945007 114.127991 173.800995 113.649002 173.645996 113.175003 C 173.548004 112.875 173.445999 112.576996 173.343002 112.278992 C 173.175003 111.79599 173 111.317001 172.817001 110.841003 C 172.709991 110.561005 172.600006 110.28299 172.487 110.005997 C 172.289001 109.516998 172.082001 109.033997 171.867996 108.553009 C 171.753998 108.296997 171.639999 108.041 171.520996 107.787003 C 171.289001 107.287994 171.046005 106.794998 170.796997 106.306 C 170.682007 106.080002 170.567993 105.854004 170.449005 105.628998 C 170.175003 105.110001 169.888 104.598999 169.595001 104.091003 C 169.488007 103.906006 169.384003 103.718994 169.274002 103.535004 C 168.944 102.979004 168.600006 102.43399 168.248001 101.893005 C 168.164001 101.764999 168.084 101.632996 167.998993 101.505005 C 167.582001 100.876999 167.149994 100.261002 166.705002 99.653992 C 166.677994 99.617996 166.653 99.580994 166.626007 99.544006 C 164.669998 96.895996 162.447998 94.455994 160 92.261002 L 160 89.050003 L 160 80 L 160 76 L 196 76 Z M 128 176 L 100 176 L 100 166.949997 C 101.922997 168.337006 103.952003 169.583008 106.071999 170.677002 C 106.176003 170.729996 106.278999 170.78299 106.383003 170.835999 C 106.851997 171.074005 107.323997 171.306 107.802002 171.528 C 107.912003 171.57901 108.023003 171.627991 108.133003 171.678009 C 109.550003 172.324997 111.002998 172.903992 112.489998 173.414001 C 112.746002 173.501999 113.000999 173.591003 113.259003 173.675003 C 113.632004 173.79599 114.008003 173.910004 114.386002 174.020996 C 114.707001 174.117004 115.028999 174.208008 115.351997 174.296997 C 115.697998 174.391998 116.043999 174.485992 116.392998 174.572998 C 116.813004 174.678009 117.237999 174.772003 117.663002 174.867004 C 117.928001 174.925003 118.191002 174.98999 118.458 175.044006 C 119.130997 175.182007 119.810997 175.300995 120.495003 175.408997 C 120.747002 175.449005 121.001999 175.480011 121.255997 175.516998 C 121.738998 175.584991 122.223999 175.64801 122.711998 175.701996 C 122.981003 175.731995 123.251999 175.759003 123.522003 175.783997 C 124.026001 175.830994 124.532997 175.869003 125.041 175.899002 C 125.279999 175.914001 125.517998 175.932007 125.758003 175.942993 C 126.500999 175.977997 127.248001 176 128 176 C 128.751999 176 129.498001 175.977997 130.242004 175.942993 C 130.481995 175.932007 130.721008 175.914001 130.959 175.899002 C 131.468002 175.869003 131.973999 175.830994 132.477997 175.783997 C 132.748001 175.759003 133.018997 175.731995 133.287994 175.701996 C 133.774994 175.64801 134.261002 175.584991 134.744003 175.516998 C 134.998001 175.480011 135.252991 175.449005 135.505005 175.408997 C 136.188004 175.300995 136.869003 175.182007 137.541992 175.044006 C 137.809998 174.98999 138.071991 174.925003 138.337006 174.867004 C 138.761993 174.772003 139.186996 174.678009 139.606995 174.572998 C 139.955994 174.485992 140.302002 174.391998 140.647995 174.296997 C 140.972 174.208008 141.292999 174.117004 141.613998 174.020996 C 141.990997 173.910004 142.367004 173.79599 142.740997 173.675003 C 142.998993 173.591003 143.253998 173.501999 143.511002 173.414001 C 144.997009 172.903992 146.449005 172.324997 147.867004 171.678009 C 147.977005 171.627991 148.087997 171.57901 148.197998 171.528 C 148.675995 171.306 149.147995 171.074005 149.617004 170.835999 C 149.721008 170.78299 149.824005 170.729996 149.928009 170.677002 C 152.048996 169.583008 154.076996 168.337006 156 166.949997 L 156 176 Z M 60 180 L 60 76 L 96 76 L 96 80 L 96 89.050003 L 96 92.261002 C 93.552002 94.455994 91.330002 96.895996 89.374001 99.544006 C 89.347 99.580994 89.321999 99.617996 89.294998 99.653992 C 88.849998 100.261002 88.417999 100.876999 88.000999 101.505005 C 87.916 101.632996 87.835999 101.764999 87.751999 101.893005 C 87.400002 102.43399 87.056 102.979004 86.724998 103.535004 C 86.615997 103.718994 86.512001 103.906006 86.404999 104.091003 C 86.112 104.598999 85.824997 105.110001 85.550003 105.628998 C 85.431999 105.852997 85.319 106.080002 85.204002 106.304993 C 84.954002 106.794998 84.710999 107.289001 84.477997 107.787994 C 84.360001 108.041 84.246002 108.29599 84.132004 108.550995 C 83.917999 109.031998 83.710999 109.516998 83.513 110.005997 C 83.400002 110.28299 83.291 110.561005 83.182999 110.841003 C 83 111.317001 82.824997 111.79599 82.656998 112.278992 C 82.554001 112.576996 82.452003 112.875 82.353996 113.175003 C 82.198997 113.649002 82.055 114.127991 81.915001 114.609009 C 81.823997 114.921997 81.732002 115.234009 81.647003 115.550003 C 81.518997 116.028 81.401001 116.511993 81.288002 116.997009 C 81.210999 117.319 81.133003 117.640991 81.063004 117.966003 C 80.959 118.455002 80.869003 118.949005 80.778999 119.442993 C 80.720001 119.770004 80.655998 120.093002 80.603996 120.421005 C 80.522003 120.932007 80.458 121.446991 80.392998 121.962006 C 80.352997 122.279999 80.306 122.595001 80.272003 122.915009 C 80.211998 123.479996 80.171997 124.050995 80.132004 124.623001 C 80.112999 124.895996 80.084 125.166 80.07 125.44101 C 80.025002 126.289001 80 127.141998 80 128 C 80 128.858002 80.025002 129.712006 80.07 130.559998 C 80.084 130.834 80.112999 131.104004 80.132004 131.376999 C 80.171997 131.947998 80.211998 132.520004 80.272003 133.084991 C 80.306 133.404999 80.352997 133.720001 80.392998 134.037994 C 80.458 134.553009 80.522003 135.067993 80.603996 135.578003 C 80.655998 135.906006 80.720001 136.229996 80.778999 136.557007 C 80.869003 137.050995 80.959 137.544998 81.063004 138.033997 C 81.133003 138.359009 81.210999 138.681 81.288002 139.003998 C 81.401001 139.488007 81.518997 139.972 81.647003 140.449997 C 81.732002 140.765991 81.823997 141.078003 81.915001 141.390991 C 82.055 141.872009 82.198997 142.350998 82.353996 142.824997 C 82.452003 143.125 82.554001 143.423004 82.656998 143.721008 C 82.824997 144.203003 83 144.68399 83.182999 145.158997 C 83.291 145.438004 83.400002 145.716995 83.513 145.994003 C 83.710999 146.483002 83.917999 146.968002 84.132004 147.447998 C 84.246002 147.703995 84.360001 147.959 84.477997 148.212006 C 84.710999 148.710999 84.954002 149.205002 85.204002 149.694 C 85.319 149.919998 85.431999 150.145996 85.550003 150.371002 C 85.824997 150.889999 86.112 151.401001 86.404999 151.908997 C 86.512001 152.093994 86.615997 152.281006 86.724998 152.464996 C 87.056 153.020996 87.400002 153.56601 87.751999 154.106003 C 87.835999 154.235001 87.916 154.367004 88.000999 154.494995 C 88.417999 155.122009 88.849998 155.738998 89.294998 156.346008 C 89.321999 156.382004 89.347 156.419006 89.374001 156.455002 C 91.330002 159.104004 93.552002 161.544998 96 163.738007 L 96 166.949997 L 96 176 L 96 180 Z M 128 80 L 156 80 L 156 89.050003 C 154.076996 87.662994 152.048996 86.416992 149.928009 85.322998 C 149.824005 85.269989 149.721008 85.21701 149.617004 85.164001 C 149.147995 84.925995 148.675995 84.694 148.197998 84.472 C 148.087997 84.419998 147.977005 84.372009 147.867004 84.321991 C 146.449005 83.675003 144.997009 83.095001 143.511002 82.585999 C 143.253998 82.498993 142.998993 82.408997 142.740997 82.324997 C 142.367004 82.205002 141.990997 82.089996 141.613998 81.979004 C 141.292999 81.882996 140.972 81.791992 140.647995 81.70401 C 140.302002 81.609009 139.955994 81.514008 139.606995 81.427002 C 139.186996 81.321991 138.761993 81.22699 138.337006 81.132996 C 138.071991 81.074997 137.809998 81.01001 137.541992 80.955994 C 136.869003 80.819 136.188004 80.699005 135.505005 80.591003 C 135.252991 80.550995 134.998001 80.518997 134.744003 80.483002 C 134.261002 80.415009 133.774994 80.35199 133.287994 80.298004 C 133.018997 80.268005 132.748001 80.240997 132.477997 80.216003 C 131.973999 80.169006 131.468002 80.130997 130.959 80.100006 C 130.721008 80.084991 130.481995 80.067993 130.242004 80.057007 C 129.498001 80.022003 128.751999 80 128 80 C 127.248001 80 126.500999 80.022003 125.758003 80.057007 C 125.517998 80.067993 125.279999 80.084991 125.041 80.100006 C 124.532997 80.130997 124.026001 80.169006 123.522003 80.216003 C 123.251999 80.240997 122.981003 80.268005 122.711998 80.298004 C 122.223999 80.35199 121.738998 80.415009 121.255997 80.483002 C 121.001999 80.518997 120.747002 80.550995 120.495003 80.591003 C 119.810997 80.699005 119.130997 80.819 118.458 80.955994 C 118.191002 81.01001 117.928001 81.074997 117.663002 81.132996 C 117.237999 81.22699 116.813004 81.321991 116.392998 81.427002 C 116.043999 81.514008 115.697998 81.609009 115.351997 81.70401 C 115.028999 81.791992 114.707001 81.882996 114.386002 81.979004 C 114.008003 82.089996 113.632004 82.205002 113.259003 82.324997 C 113.000999 82.408997 112.746002 82.498993 112.489998 82.585999 C 111.002998 83.095001 109.550003 83.675003 108.133003 84.321991 C 108.023003 84.372009 107.912003 84.419998 107.802002 84.472 C 107.323997 84.694 106.851997 84.925995 106.383003 85.164001 C 106.278999 85.21701 106.176003 85.269989 106.071999 85.322998 C 103.952003 86.416992 101.922997 87.662994 100 89.050003 L 100 80 Z M 157.330002 160.76001 L 156.334 161.652008 C 155.841995 162.067993 155.337997 162.471008 154.826996 162.86499 L 153.660995 163.705994 C 149.544998 166.673004 145.024002 168.869003 140.261002 170.255997 C 140.026001 170.322998 139.792999 170.391998 139.557999 170.455002 C 139.210999 170.550003 138.862 170.640991 138.514008 170.72699 C 138.184998 170.807007 137.852997 170.882004 137.520996 170.955002 C 137.231003 171.020004 136.942993 171.085999 136.652008 171.145004 C 136.041 171.266998 135.427002 171.377991 134.807007 171.473999 C 134.625 171.501999 134.44101 171.52301 134.259995 171.548996 C 133.772003 171.617996 133.283005 171.682999 132.791 171.735001 C 132.559998 171.761002 132.326996 171.781998 132.096008 171.804001 C 131.623993 171.847 131.151001 171.882996 130.675995 171.911011 C 130.464996 171.923996 130.253998 171.938004 130.042999 171.947998 C 129.36499 171.979004 128.684998 172 128 172 C 127.315002 172 126.635002 171.979004 125.957001 171.947998 C 125.746002 171.938004 125.535004 171.923996 125.323997 171.911011 C 124.848999 171.882996 124.375 171.847 123.904999 171.804001 C 123.671997 171.781998 123.440002 171.761002 123.209 171.735001 C 122.717003 171.682999 122.227997 171.617996 121.740997 171.548996 C 121.558998 171.52301 121.375 171.501999 121.193001 171.473999 C 120.572998 171.377991 119.958 171.266998 119.348 171.145004 C 119.056999 171.085999 118.767998 171.020004 118.478996 170.955002 C 118.147003 170.882004 117.815002 170.807007 117.486 170.72699 C 117.137001 170.640991 116.789001 170.550003 116.442001 170.455002 C 116.207001 170.391998 115.973999 170.322998 115.738998 170.255997 C 110.974998 168.869003 106.455002 166.673004 102.338997 163.705994 L 101.172997 162.86499 C 100.662003 162.471008 100.158997 162.067993 99.666 161.652008 L 98.669998 160.76001 C 89.347 152.403 84 140.462997 84 128 C 84 115.537003 89.347 103.596008 98.669998 95.23999 L 99.665001 94.347992 C 100.157997 93.932007 100.662003 93.528992 101.172997 93.13501 L 102.338997 92.294006 C 106.455002 89.326996 110.974998 87.130997 115.738998 85.744003 C 115.973999 85.677002 116.207001 85.608002 116.442001 85.544006 C 116.789001 85.449997 117.137001 85.360001 117.486 85.274002 C 117.815002 85.192993 118.147003 85.117996 118.478996 85.044998 C 118.767998 84.980011 119.056999 84.914001 119.348 84.855011 C 119.958 84.733002 120.572998 84.622009 121.193001 84.526001 C 121.375 84.498001 121.558998 84.47699 121.740997 84.450989 C 122.227997 84.380997 122.717003 84.317993 123.209 84.264008 C 123.440002 84.238998 123.671997 84.218002 123.904999 84.195999 C 124.375 84.153 124.848999 84.117004 125.323997 84.087997 C 125.535004 84.075989 125.746002 84.061996 125.957001 84.052002 C 126.635002 84.020996 127.315002 84 128 84 C 128.684998 84 129.36499 84.020996 130.042999 84.052002 C 130.253998 84.061996 130.464996 84.075989 130.675995 84.087997 C 131.151001 84.117004 131.623993 84.153 132.096008 84.195999 C 132.326996 84.218002 132.559998 84.238998 132.791 84.264008 C 133.283005 84.317993 133.772003 84.380997 134.259995 84.450989 C 134.44101 84.47699 134.625 84.498001 134.807007 84.526001 C 135.427002 84.622009 136.041 84.733002 136.652008 84.855011 C 136.942993 84.914001 137.231003 84.980011 137.520996 85.044998 C 137.852997 85.117996 138.184998 85.192993 138.514008 85.274002 C 138.862 85.360001 139.210999 85.449997 139.557999 85.544006 C 139.792999 85.608002 140.026001 85.677002 140.261002 85.744003 C 145.024002 87.130997 149.544998 89.326996 153.660995 92.294006 L 154.826996 93.13501 C 155.339005 93.528992 155.841995 93.932007 156.334991 94.347992 L 157.330002 95.23999 C 166.653 103.596008 172 115.537003 172 128 C 172 140.462997 166.653 152.403 157.330002 160.76001 M 160 72 L 156 72 L 156 76 L 128 76 L 100 76 L 100 72 L 96 72 L 60 72 L 56 72 L 56 76 L 56 180 L 56 184 L 60 184 L 96 184 L 100 184 L 100 180 L 128 180 L 156 180 L 156 184 L 160 184 L 196 184 L 200 184 L 200 180 L 200 76 L 200 72 L 196 72 Z"/>
    <path id="path4" fill="#ffffff" stroke="none" d="M 178 156 C 181.309006 156 184 158.69101 184 162 C 184 165.30899 181.309006 168 178 168 C 174.690994 168 172 165.30899 172 162 C 172 158.69101 174.690994 156 178 156 M 168 162 C 168 167.522003 172.477997 172 178 172 C 183.522003 172 188 167.522003 188 162 C 188 156.477997 183.522003 152 178 152 C 172.477997 152 168 156.477997 168 162"/>
</svg>
