<?xml version="1.0" encoding="UTF-8"?>
<!-- Generated by Pixelmator Pro 3.7.1 -->
<svg width="256" height="256" viewBox="0 0 256 256" xmlns="http://www.w3.org/2000/svg">
    <path id="Path" fill="#ffffff" stroke="none" d="M 244 132.288101 C 244 135.029099 243.649002 137.750092 242.955002 140.401093 C 241.291 146.758102 237.639999 158.360107 232 164.000092 L 231.145996 164.853088 C 230.421005 165.579102 229.447998 165.9991 228.421997 166.023102 C 223.945007 166.131104 211.276001 166.724091 208 170.000092 C 204 174.000092 200 180.000092 196 180.000092 L 60 180.000092 C 56 180.000092 53.059998 172.529099 48 170.000092 C 41.615997 166.808105 31.410004 166.163101 27.548004 166.033096 C 26.535995 165.9991 25.580002 165.580109 24.863998 164.864105 L 24 164.000092 C 18.360001 158.360107 14.709 146.758102 13.044998 140.401093 C 12.350998 137.750092 12 135.029099 12 132.288101 L 12 120.000107 C 12 100.000107 28 88.000107 28 88.000107 C 44 88.000107 48 84.000107 52 80.000107 C 56 76.000107 60 76.000107 60 76.000107 L 196 76.000107 C 196 76.000107 200 76.000107 204 80.000107 C 208 84.000107 212 88.000107 228 88.000107 C 228 88.000107 244 100.000107 244 120.000107 Z M 216 177.000092 C 211.324005 178.559097 207.268997 179.505096 204.044006 180.085098 C 205.406998 178.809097 206.707001 177.351105 207.988998 175.907104 C 208.095001 175.789093 208.192993 175.681091 208.298004 175.564102 C 211.735001 174.983093 216.690002 173.6241 221.097 170.4561 C 223.076996 170.2621 225.356003 170.116089 227.929993 170.041107 C 225.406998 172.424103 221.576004 175.14209 216 177.000092 M 28.085999 170.057098 C 29.656998 170.125092 32.298004 170.294098 35.223999 170.685089 C 40.091003 174.069092 45.559998 175.299103 48.893005 175.74411 C 49.570999 176.453094 50.240997 177.237091 50.901993 178.014099 C 51.531006 178.754089 52.184006 179.518097 52.875 180.246094 C 49.520004 179.685089 45.130005 178.710098 40 177.000092 C 34.436005 175.145096 30.608994 172.435089 28.085999 170.057098 M 50.324997 76.111099 C 49.940002 76.441101 49.556 76.788101 49.171005 77.171097 C 45.834 80.509094 42.906998 83.431107 31.570999 83.925095 C 37.591003 79.452103 44.712997 77.225098 50.324997 76.111099 M 224.429001 83.925095 C 213.093002 83.431107 210.166 80.509094 206.828003 77.171097 C 206.444 76.788101 206.059998 76.441101 205.675003 76.111099 C 211.287003 77.225098 218.408997 79.452103 224.429001 83.925095 M 230.399994 84.800095 L 229.333008 84.000107 L 229.197998 84.000107 C 216.421997 72.146103 196.847 72.000107 196 72.000107 L 194.757996 72.000107 L 60 72.000107 C 59.153 72.000107 39.578003 72.146103 26.802002 84.000107 L 26.667007 84.000107 L 25.600006 84.800095 C 24.880997 85.339096 8 98.250107 8 120.000107 L 8 132.288101 C 8 135.365097 8.395996 138.436096 9.175003 141.4151 C 11.345993 149.7061 15.188995 160.8461 21.171005 166.828094 L 22.035995 167.692108 C 22.113007 167.770096 22.197006 167.839096 22.276993 167.912109 C 24.192001 170.710098 29.171005 176.553101 39.050995 179.8461 C 51.371994 183.953094 59.653 184.000092 60 184.000092 L 196 184.000092 C 196.347 184.000092 204.628998 183.953094 216.947998 179.8461 C 226.833008 176.552094 231.811996 170.7061 233.725006 167.909088 C 233.807999 167.833099 233.895004 167.7621 233.975006 167.682098 L 234.828003 166.828094 C 240.811005 160.8461 244.654007 149.7061 246.824997 141.4151 C 247.604004 138.436096 248 135.365097 248 132.288101 L 248 120.000107 C 248 98.250107 231.119003 85.339096 230.399994 84.800095"/>
    <path id="path1" fill="#ffffff" stroke="none" d="M 196 160 L 60 160 L 60 84 L 196 84 Z M 60 80 L 56 80 L 56 84 L 56 160 L 56 164 L 60 164 L 196 164 L 200 164 L 200 160 L 200 84 L 200 80 L 196 80 Z"/>
    <path id="path2" fill="#ffffff" stroke="none" d="M 224 160 C 221.791 160 220 159.104004 220 158 C 220 156.895996 221.791 156 224 156 C 226.209 156 228 156.895996 228 158 C 228 159.104004 226.209 160 224 160 M 212 160 C 209.791 160 208 159.104004 208 158 C 208 156.895996 209.791 156 212 156 C 214.209 156 216 156.895996 216 158 C 216 159.104004 214.209 160 212 160 M 224 152 C 221.535995 152 219.432007 152.712997 218 153.903 C 216.567993 152.712997 214.464005 152 212 152 C 207.363998 152 204 154.52301 204 158 C 204 161.47699 207.363998 164 212 164 C 214.464005 164 216.567993 163.287003 218 162.097 C 219.432007 163.287003 221.535995 164 224 164 C 228.636002 164 232 161.47699 232 158 C 232 154.52301 228.636002 152 224 152"/>
    <path id="path3" fill="#ffffff" stroke="none" d="M 38 162 C 33.582001 162 30 160.209 30 158 C 30 155.791 33.582001 154 38 154 C 42.417999 154 46 155.791 46 158 C 46 160.209 42.417999 162 38 162 M 38 150 C 31.047001 150 26 153.363998 26 158 C 26 162.636002 31.047001 166 38 166 C 44.952999 166 50 162.636002 50 158 C 50 153.363998 44.952999 150 38 150"/>
    <path id="path4" fill="#ffffff" stroke="none" d="M 38 139 C 38 137.346008 39.346001 136 41 136 C 42.653999 136 44 137.346008 44 139 C 44 140.653992 42.653999 142 41 142 C 39.346001 142 38 140.653992 38 139 M 48 139 C 48 135.140991 44.860001 132 41 132 C 37.139999 132 34 135.140991 34 139 C 34 142.859009 37.139999 146 41 146 C 44.860001 146 48 142.859009 48 139"/>
    <path id="path5" fill="#ffffff" stroke="none" d="M 212 139 C 212 137.346008 213.345993 136 215 136 C 216.654007 136 218 137.346008 218 139 C 218 140.653992 216.654007 142 215 142 C 213.345993 142 212 140.653992 212 139 M 222 139 C 222 135.140991 218.858994 132 215 132 C 211.141006 132 208 135.140991 208 139 C 208 142.859009 211.141006 146 215 146 C 218.858994 146 222 142.859009 222 139"/>
    <path id="path6" fill="#ffffff" stroke="none" d="M 231.5 106 C 234.261993 106 236.5 108.238998 236.5 111 C 236.5 113.761002 234.261993 116 231.5 116 C 228.738007 116 226.5 113.761002 226.5 111 C 226.5 108.238998 228.738007 106 231.5 106 M 222 125.5 C 219.238007 125.5 217 123.261002 217 120.5 C 217 117.738998 219.238007 115.5 222 115.5 C 224.761993 115.5 227 117.738998 227 120.5 C 227 123.261002 224.761993 125.5 222 125.5 M 212.5 116 C 209.738007 116 207.5 113.761002 207.5 111 C 207.5 108.238998 209.738007 106 212.5 106 C 215.261993 106 217.5 108.238998 217.5 111 C 217.5 113.761002 215.261993 116 212.5 116 M 206 97 C 206 95.343002 207.343002 94 209 94 C 210.656998 94 212 95.343002 212 97 C 212 98.656998 210.656998 100 209 100 C 207.343002 100 206 98.656998 206 97 M 222.514999 111.514999 C 222.343994 111.505005 222.173004 111.5 222 111.5 C 221.826996 111.5 221.656006 111.505005 221.485001 111.514999 C 221.494995 111.343994 221.5 111.173004 221.5 111 C 221.5 110.826996 221.494995 110.656006 221.485001 110.485001 C 221.656006 110.494995 221.826996 110.5 222 110.5 C 222.173004 110.5 222.343994 110.494995 222.514999 110.485001 C 222.505005 110.656006 222.5 110.826996 222.5 111 C 222.5 111.173004 222.505005 111.343994 222.514999 111.514999 M 222 96.5 C 224.761993 96.5 227 98.738998 227 101.5 C 227 104.261002 224.761993 106.5 222 106.5 C 219.238007 106.5 217 104.261002 217 101.5 C 217 98.738998 219.238007 96.5 222 96.5 M 231 101.5 C 231 96.537003 226.962997 92.5 222 92.5 C 219.559006 92.5 217.345001 93.479996 215.722 95.063995 C 214.878998 92.143997 212.188004 90 209 90 C 205.141006 90 202 93.139999 202 97 C 202 100.231003 204.203995 102.951004 207.186005 103.753006 C 204.955994 105.393005 203.5 108.026001 203.5 111 C 203.5 115.962006 207.537003 120 212.5 120 C 212.673004 120 212.843994 119.994995 213.014999 119.985001 C 213.005005 120.156006 213 120.326996 213 120.5 C 213 125.462006 217.037003 129.5 222 129.5 C 226.962997 129.5 231 125.462006 231 120.5 C 231 120.326996 230.994995 120.156006 230.985001 119.985001 C 231.156006 119.994995 231.326996 120 231.5 120 C 236.462997 120 240.5 115.962006 240.5 111 C 240.5 106.037003 236.462997 102 231.5 102 C 231.326996 102 231.156006 102.005005 230.985001 102.014999 C 230.994995 101.843994 231 101.673004 231 101.5"/>
    <path id="path7" fill="#ffffff" stroke="none" d="M 46.210899 114.577606 L 45.999901 114.999603 L 41.711899 114.999603 L 40.8279 114.115601 L 37.656898 110.944595 L 40.8279 107.772598 L 41.600899 106.999603 L 45.999901 106.999603 L 46.210899 107.422592 C 47.336899 109.674606 47.336899 112.325607 46.210899 114.577606 M 37.5779 123.155594 C 36.4519 123.718597 35.225899 123.999603 33.999901 123.999603 C 32.773899 123.999603 31.547899 123.718597 30.4219 123.155594 L 29.999899 122.944595 L 29.999899 118.656601 L 30.8279 117.828598 L 33.999901 114.656601 L 37.170898 117.828598 L 37.999901 118.656601 L 37.999901 122.944595 Z M 21.788898 114.577606 C 20.662899 112.325607 20.662899 109.674606 21.788898 107.422592 L 21.999899 106.999603 L 26.398899 106.999603 L 27.170898 107.772598 L 30.342899 110.944595 L 27.170898 114.115601 L 26.2869 114.999603 L 21.999899 114.999603 Z M 30.4219 98.732605 C 31.547899 98.169601 32.773899 97.888596 33.999901 97.888596 C 35.225899 97.888596 36.4519 98.169601 37.5779 98.732605 L 37.999901 98.944595 L 37.999901 103.343597 L 37.170898 104.1716 L 33.999901 107.343597 L 30.8279 104.1716 L 29.999899 103.343597 L 29.999899 98.944595 Z M 49.5779 105.210602 L 48.471901 102.999603 L 45.999901 102.999603 L 41.999901 102.999603 L 41.999901 98.944595 L 41.999901 96.472595 L 39.788898 95.366592 L 39.366901 95.155594 C 37.7089 94.326599 35.852901 93.888596 33.999901 93.888596 C 32.1469 93.888596 30.290899 94.326599 28.6329 95.155594 L 28.210899 95.366592 L 25.999899 96.472595 L 25.999899 98.944595 L 25.999899 102.999603 L 21.999899 102.999603 L 19.527899 102.999603 L 18.4219 105.210602 L 18.210899 105.633606 C 16.530899 108.993607 16.530899 113.006607 18.210899 116.366592 L 18.4219 116.788605 L 19.527899 118.999603 L 21.999899 118.999603 L 25.999899 118.999603 L 25.999899 122.944595 L 25.999899 125.416595 L 28.210899 126.521606 L 28.6329 126.732605 C 30.290899 127.5616 32.1469 127.999603 33.999901 127.999603 C 35.852901 127.999603 37.7089 127.5616 39.366901 126.732605 L 39.788898 126.521606 L 41.999901 125.416595 L 41.999901 122.944595 L 41.999901 118.999603 L 45.999901 118.999603 L 48.471901 118.999603 L 49.5779 116.788605 L 49.788898 116.366592 C 51.468899 113.006607 51.468899 108.993607 49.788898 105.633606 Z"/>
</svg>
