<?xml version="1.0" encoding="UTF-8"?>
<!-- Generated by Pixelmator Pro 3.7.1 -->
<svg width="256" height="256" viewBox="0 0 256 256" xmlns="http://www.w3.org/2000/svg">
    <path id="Path" fill="#ffffff" stroke="none" d="M 236 200 L 166.369995 200 C 165.869003 200 165.447998 199.638 165.380005 199.141998 C 165.345001 198.882996 165.307999 198.610001 165.270996 198.343994 C 165.270996 198.339005 165.270996 198.333008 165.269989 198.328003 C 160.873993 166.195999 147.445999 84.684998 143.074997 58.311996 C 142.875 57.097 143.813004 56 145.044006 56 L 232 56 C 240 56 240 64 240 64 C 240 64 244 184 244 192 C 244 200 236 200 236 200 M 160.315002 200 L 136 200 L 20 200 C 12 200 12 188 12 188 L 12 60 C 12 56 16 56 16 56 L 20 56 L 136 56 L 136.942001 56 C 137.919998 56 138.753998 56.705002 138.915009 57.669998 C 138.981995 58.078003 139.054001 58.514008 139.128998 58.962997 C 139.128998 58.964996 139.128998 58.966003 139.128998 58.966995 C 140.093994 64.789001 141.585999 73.81601 143.360992 84.636002 C 143.436996 85.105011 143.515991 85.580994 143.593994 86.057007 C 143.636993 86.324005 143.681 86.587997 143.725006 86.856995 C 143.77301 87.152008 143.821991 87.453003 143.871002 87.751007 C 143.949005 88.229004 144.028 88.705994 144.106995 89.188995 C 146.843994 105.90799 150.139999 126.205994 153.192001 145.440002 C 153.235992 145.718994 153.279999 145.997009 153.324005 146.276001 C 153.42099 146.884995 153.516998 147.494003 153.613007 148.100998 C 153.649002 148.328003 153.684998 148.554001 153.721008 148.781006 C 153.820007 149.406006 153.919006 150.031006 154.016998 150.653 C 154.087997 151.102005 154.15799 151.548004 154.229004 151.994995 C 154.287003 152.365997 154.346008 152.738998 154.403992 153.109009 C 154.485992 153.627991 154.567001 154.143997 154.64801 154.660004 C 154.701996 155.001007 154.755997 155.343002 154.80899 155.682999 C 154.903 156.281998 154.997009 156.877991 155.089996 157.473999 C 155.125 157.697998 155.161011 157.923996 155.195999 158.147995 C 155.296997 158.796997 155.39801 159.442001 155.498993 160.085999 C 155.527008 160.265991 155.554993 160.446991 155.583008 160.626007 C 155.953003 162.990005 156.313995 165.315002 156.666 167.591003 C 156.682999 167.697998 156.699005 167.806 156.716003 167.912994 C 156.828003 168.636002 156.938004 169.352997 157.048004 170.06601 C 157.057007 170.123001 157.06601 170.179993 157.074997 170.237 C 157.192001 170.997009 157.307007 171.751007 157.421997 172.498001 C 157.424011 172.511002 157.425995 172.52301 157.428009 172.535995 C 158.958008 182.513 160.268997 191.34201 161.200989 198.100998 C 161.205002 198.132996 161.209991 198.166 161.213989 198.197998 C 161.246002 198.429001 161.276001 198.647995 161.306 198.873993 C 161.386002 199.472992 160.919998 200 160.315002 200 M 244 63.925995 C 243.966995 59.102997 240.759003 52 232 52 L 145.044006 52 C 143.528992 52 142.088989 52.570999 140.988998 53.582001 C 139.916 52.598999 138.498001 52 136.942001 52 L 136 52 L 20 52 L 16 52 C 12.121994 52 8 54.804001 8 60 L 8 188 C 8 193.533997 10.507996 204 20 204 L 136 204 L 160.315002 204 C 161.425995 204 162.492996 203.627991 163.360001 202.964005 C 164.205002 203.606003 165.244995 204 166.369995 204 L 236 204 C 240.824005 204 248 200.804001 248 192 C 248 184.054993 244.190002 69.626007 244 63.925995"/>
</svg>
