<?xml version="1.0" encoding="UTF-8"?>
<!-- Generated by Pixelmator Pro 3.7.1 -->
<svg width="256" height="256" viewBox="0 0 256 256" xmlns="http://www.w3.org/2000/svg">
    <path id="Path" fill="#ffffff" stroke="none" d="M 156 88 L 151.216003 88.078003 L 111.214996 96.078003 L 108 96.720993 L 108 100 L 108 128.445007 C 106.701996 128.152008 105.358002 128 104 128 C 95.178001 128 88 134.279999 88 142 C 88 149.720001 95.178001 156 104 156 C 112.821999 156 120 149.720001 120 142 L 120 110.479004 L 144 105.679001 L 144 120.445007 C 142.701996 120.152008 141.358002 120 140 120 C 131.177994 120 124 126.279999 124 134 C 124 141.720001 131.177994 148 140 148 C 148.822006 148 156 141.720001 156 134 L 156 92 L 156 87.121002 Z M 152 92 L 152 134 C 152 139.522003 146.626999 144 140 144 C 133.373001 144 128 139.522003 128 134 C 128 128.477005 133.373001 124 140 124 C 143.078003 124 145.876007 124.973999 148 126.561996 L 148 100.800003 L 116 107.199997 L 116 142 C 116 147.522003 110.626999 152 104 152 C 97.373001 152 92 147.522003 92 142 C 92 136.477997 97.373001 132 104 132 C 107.078003 132 109.875999 132.973999 112 134.561996 L 112 100 L 152 92"/>
    <path id="path1" fill="#ffffff" stroke="none" d="M 198 121.995102 C 198 118.681107 200.686005 115.995102 204 115.995102 C 207.313995 115.995102 210 118.681107 210 121.995102 C 210 125.308105 207.313995 127.995102 204 127.995102 C 200.686005 127.995102 198 125.308105 198 121.995102 M 78.124001 167.995102 L 81.875999 167.995102 C 83.049004 167.995102 84 168.890106 84 169.995102 C 84 171.099091 83.049004 171.995102 81.875999 171.995102 L 78.124001 171.995102 C 76.950996 171.995102 76 171.099091 76 169.995102 C 76 168.890106 76.950996 167.995102 78.124001 167.995102 M 72 165.995102 C 72 169.308105 69.313995 171.995102 66 171.995102 C 62.686005 171.995102 60 169.308105 60 165.995102 Z M 78.124001 163.995102 C 77.375999 163.995102 76.663002 164.134094 76 164.375092 L 76 163.995102 Z M 86 165.572098 C 84.911003 164.597107 83.464996 163.995102 81.875999 163.995102 L 90.124001 163.995102 C 88.535004 163.995102 87.088997 164.597107 86 165.572098 M 93.875999 167.995102 C 95.049004 167.995102 96 168.890106 96 169.995102 C 96 171.099091 95.049004 171.995102 93.875999 171.995102 L 90.124001 171.995102 C 88.950996 171.995102 88 171.099091 88 169.995102 C 88 168.890106 88.950996 167.995102 90.124001 167.995102 Z M 196 127.995102 L 196 159.995102 L 60 159.995102 L 60 83.995102 L 196 83.995102 L 196 115.995102 L 196.020004 115.995102 C 194.757996 117.669098 194 119.743103 194 121.995102 C 194 124.247101 194.757996 126.321106 196.020004 127.995102 Z M 200 165.995102 C 200 169.308105 197.313004 171.995102 194 171.995102 C 190.686996 171.995102 188 169.308105 188 165.995102 Z M 184 165.995102 C 184 169.308105 181.313995 171.995102 178 171.995102 C 174.686996 171.995102 172 169.308105 172 165.995102 Z M 162.123001 167.995102 L 165.876999 167.995102 C 167.050003 167.995102 168 168.891098 168 169.996094 C 168 171.099091 167.050003 171.995102 165.876999 171.995102 L 162.123001 171.995102 C 160.953003 171.995102 160 171.099091 160 169.996094 C 160 168.891098 160.953003 167.995102 162.123001 167.995102 M 156 169.996094 C 156 171.099091 155.050003 171.995102 153.876999 171.995102 L 150.123001 171.995102 C 148.953003 171.995102 148 171.099091 148 169.996094 C 148 168.891098 148.953003 167.995102 150.123001 167.995102 L 153.876999 167.995102 C 155.050003 167.995102 156 168.891098 156 169.996094 M 153.876999 163.995102 L 162.123001 163.995102 C 160.533997 163.995102 159.089996 164.597107 158 165.572098 C 156.910004 164.597107 155.466003 163.995102 153.876999 163.995102 M 168 164.375092 C 167.337006 164.134094 166.623993 163.995102 165.876999 163.995102 L 168 163.995102 Z M 212 107.995102 C 212 104.681107 214.686005 101.995102 218 101.995102 C 221.313995 101.995102 224 104.681107 224 107.995102 C 224 111.309097 221.313995 113.995102 218 113.995102 C 214.686005 113.995102 212 111.309097 212 107.995102 M 224 135.995102 C 224 139.307098 221.313995 141.995102 218 141.995102 C 214.686005 141.995102 212 139.307098 212 135.995102 C 212 132.682098 214.686005 129.995102 218 129.995102 C 221.313995 129.995102 224 132.682098 224 135.995102 M 218 125.995102 C 215.714005 125.995102 213.610001 126.775101 211.925003 128.071106 C 213.220993 126.384094 214 124.281097 214 121.995102 C 214 119.709106 213.220993 117.606094 211.925003 115.919098 C 213.610001 117.215103 215.714005 117.995102 218 117.995102 C 220.285995 117.995102 222.389999 117.215103 224.074997 115.919098 C 222.778992 117.606094 222 119.709106 222 121.995102 C 222 124.281097 222.778992 126.384094 224.074997 128.071106 C 222.389999 126.775101 220.285995 125.995102 218 125.995102 M 238 121.995102 C 238 125.308105 235.313995 127.995102 232 127.995102 C 228.686005 127.995102 226 125.308105 226 121.995102 C 226 118.681107 228.686005 115.995102 232 115.995102 C 235.313995 115.995102 238 118.681107 238 121.995102 M 228 167.995102 L 212 167.995102 C 205.901001 167.995102 200 176.005096 200 176.005096 L 56 176.005096 L 56 175.995102 L 55.992996 175.995102 C 55.912994 175.8871 50.056 167.995102 44 167.995102 L 28 167.995102 C 28 167.995102 -3.466003 129.852097 28 83.995102 L 44 83.995102 C 44 83.995102 49.414001 82.5811 56 75.995102 L 200 75.995102 C 206.585999 82.5811 212 83.995102 212 83.995102 L 228 83.995102 C 236.621002 96.558105 240.511993 108.5401 241.626007 119.320099 C 240.451996 115.103104 236.587006 111.995102 232 111.995102 C 229.714005 111.995102 227.610001 112.775101 225.925003 114.071106 C 227.221008 112.384094 228 110.281097 228 107.995102 C 228 102.481094 223.514008 97.995102 218 97.995102 C 212.485992 97.995102 208 102.481094 208 107.995102 C 208 110.281097 208.779007 112.384094 210.074997 114.071106 C 208.389999 112.775101 206.285995 111.995102 204 111.995102 C 202.578003 111.995102 201.227005 112.298096 200 112.836105 L 200 92.036102 L 200.283997 91.995102 L 200 91.995102 L 200 83.995102 L 200 79.995102 L 196 79.995102 L 60 79.995102 L 56 79.995102 L 56 83.995102 L 56 120.525101 L 56 159.995102 L 56 161.995102 L 56 163.995102 L 56 165.995102 C 56 171.509094 60.485992 175.995102 66 175.995102 C 68.695999 175.995102 71.141998 174.918091 72.942001 173.178101 C 74.026001 174.866089 75.941002 175.995102 78.124001 175.995102 L 81.875999 175.995102 C 83.464996 175.995102 84.911003 175.393097 86 174.418091 C 87.088997 175.393097 88.535004 175.995102 90.124001 175.995102 L 93.875999 175.995102 C 97.252998 175.995102 100 173.304108 100 169.995102 C 100 166.686096 97.252998 163.995102 93.875999 163.995102 L 150.123001 163.995102 C 146.747009 163.995102 144 166.687103 144 169.996094 C 144 173.304108 146.747009 175.995102 150.123001 175.995102 L 153.876999 175.995102 C 155.466003 175.995102 156.910004 175.393097 158 174.418091 C 159.089996 175.393097 160.533997 175.995102 162.123001 175.995102 L 165.876999 175.995102 C 168.059998 175.995102 169.975006 174.867096 171.059006 173.178101 C 172.858994 174.918091 175.304993 175.995102 178 175.995102 C 181.272995 175.995102 184.175003 174.407104 186 171.970093 C 187.824997 174.407104 190.727997 175.995102 194 175.995102 C 199.514008 175.995102 204 171.509094 204 165.995102 L 204 161.995102 L 200 161.995102 L 200 159.995102 L 200 131.154099 C 201.227005 131.692108 202.578003 131.995102 204 131.995102 C 206.285995 131.995102 208.389999 131.216095 210.074997 129.920105 C 208.779007 131.605103 208 133.709106 208 135.995102 C 208 141.509094 212.485992 145.995102 218 145.995102 C 223.514008 145.995102 228 141.509094 228 135.995102 C 228 133.709106 227.221008 131.605103 225.925003 129.920105 C 227.610001 131.216095 229.714005 131.995102 232 131.995102 C 237.095001 131.995102 241.304001 128.163101 241.915009 123.231094 C 243.080994 149.705109 228 167.995102 228 167.995102 M 38.320999 175.995102 C 36.481995 175.995102 33.901993 173.995102 31.781006 171.995102 L 44 171.995102 C 46.091003 171.995102 48.748993 174.056091 50.688004 175.995102 L 40 175.995102 Z M 38.320999 75.995102 L 40 75.995102 L 50.016006 75.995102 C 46.820007 78.549103 44.306 79.641098 43.356995 79.995102 L 31.781006 79.995102 C 33.901993 77.995102 36.481995 75.995102 38.320999 75.995102 M 217.679001 75.995102 C 219.518005 75.995102 222.097992 77.995102 224.218994 79.995102 L 212.636993 79.995102 C 211.720001 79.653107 209.199005 78.564102 205.983994 75.995102 L 216 75.995102 Z M 232.804993 83.995102 L 231.194 81.5811 L 229.834991 79.995102 C 226.727997 76.503098 221.897995 71.995102 217.679001 71.995102 L 216 71.995102 L 201.656998 71.995102 L 200 71.995102 L 56 71.995102 L 54.343002 71.995102 L 40 71.995102 L 38.320999 71.995102 C 36.375 71.995102 32.292999 73.076096 26.162003 79.995102 L 24.806 81.5811 L 23.195007 83.995102 C 7.658005 108.036102 8.645996 129.9021 12.326996 144.189102 C 15.285004 155.672089 20.317993 164.0401 23.041 167.995102 L 24.923004 170.551102 C 24.923004 170.552094 24.923996 170.552094 24.925003 170.553101 L 26.162003 171.995102 C 32.292999 178.914093 36.375 179.995102 38.320999 179.995102 L 40 179.995102 L 53.972 179.995102 L 53.979004 180.005096 L 56 180.005096 L 200 180.005096 L 202.020996 180.005096 L 203.220993 178.378098 C 204.766006 176.30011 208.951996 171.995102 212 171.995102 L 228 171.995102 L 229.886002 171.995102 L 231.085999 170.5401 C 231.429993 170.123108 239.565002 160.136108 243.673996 144.189102 C 247.354004 129.9021 248.343002 108.036102 232.804993 83.995102"/>
    <path id="path2" fill="#ffffff" stroke="none" d="M 36.0005 159.995102 C 31.581499 159.995102 28.0005 156.413101 28.0005 151.995102 C 28.0005 147.577103 31.581499 143.995102 36.0005 143.995102 C 40.418499 143.995102 44.0005 147.577103 44.0005 151.995102 C 44.0005 156.413101 40.418499 159.995102 36.0005 159.995102 M 36.0005 139.995102 C 29.383499 139.995102 24.0005 145.378098 24.0005 151.995102 C 24.0005 158.612091 29.383499 163.995102 36.0005 163.995102 C 42.6175 163.995102 48.0005 158.612091 48.0005 151.995102 C 48.0005 145.378098 42.6175 139.995102 36.0005 139.995102"/>
    <path id="path3" fill="#ffffff" stroke="none" d="M 50.416 125.405304 L 50.416 125.594299 L 44.396999 125.594299 L 41.438999 122.533295 C 39.381001 120.472305 41.438999 118.626297 41.438999 118.626297 L 44.396999 115.563293 L 50.416 115.563293 L 50.416 115.645294 C 51.313 116.041306 52 118.068298 52 120.525299 C 52 122.984299 51.313 125.009293 50.416 125.405304 M 41.015999 134.411301 L 40.931999 134.411301 C 40.536999 135.308289 38.509998 135.9953 36.051998 135.9953 C 33.592999 135.9953 31.566999 135.308289 31.172001 134.411301 L 30.983 134.411301 L 30.983 128.391296 L 34.044998 125.435303 C 34.731998 124.748306 35.395 124.520294 35.973999 124.520294 C 37.131001 124.520294 37.952999 125.435303 37.952999 125.435303 L 41.015999 128.391296 Z M 20 120.525299 C 20 118.068298 20.686001 116.041306 21.584 115.645294 L 21.584 115.563293 L 27.603001 115.563293 L 30.559 118.626297 C 30.559 118.626297 32.618 120.472305 30.559 122.533295 L 27.603001 125.594299 L 21.584 125.594299 L 21.584 125.405304 C 20.686001 125.009293 20 122.984299 20 120.525299 M 36.646 119.421295 C 36.583 119.743301 36.536999 120.078293 36.527 120.435303 C 36.526001 120.474304 36.528999 120.520294 36.528 120.560303 C 36.345001 120.544296 36.166 120.520294 35.973999 120.520294 C 35.815998 120.520294 35.646999 120.527298 35.471001 120.541306 C 35.470001 120.507294 35.473 120.468307 35.472 120.435303 C 35.461998 120.083298 35.417 119.753296 35.355999 119.435303 C 35.572998 119.456299 35.783001 119.470306 35.973999 119.470306 C 36.207001 119.470306 36.425999 119.445297 36.646 119.421295 M 30.983 105.5793 L 31.172001 105.5793 C 31.566999 104.681305 33.592999 103.9953 36.051998 103.9953 C 38.509998 103.9953 40.536999 104.681305 40.931999 105.5793 L 41.015999 105.5793 L 41.015999 111.599304 L 37.952999 114.555298 C 37.952999 114.555298 37.131001 115.470306 35.973999 115.470306 C 35.395 115.470306 34.731998 115.241302 34.044998 114.555298 L 30.983 111.599304 Z M 50.416 111.563293 L 45.015999 111.563293 L 45.015999 105.5793 C 45.015999 104.469299 44.563999 103.466293 43.834999 102.741302 C 41.800999 100.289307 37.833 99.9953 36.051998 99.9953 C 34.375 99.9953 30.759001 100.256302 28.644001 102.333298 C 27.638 103.060303 26.983 104.243301 26.983 105.5793 L 26.983 111.563293 L 21.584 111.563293 C 20.479 111.563293 19.479 112.011307 18.755001 112.735306 C 16.295002 114.766296 16 118.742294 16 120.525299 C 16 122.202301 16.261002 125.820297 18.339001 127.934296 C 19.066 128.940308 20.249001 129.594299 21.584 129.594299 L 26.983 129.594299 L 26.983 134.411301 C 26.983 135.747299 27.638 136.930298 28.644001 137.656311 C 30.759001 139.734299 34.375 139.9953 36.051998 139.9953 C 37.833 139.9953 41.800999 139.701294 43.834999 137.249298 C 44.563999 136.524292 45.015999 135.520294 45.015999 134.411301 L 45.015999 129.594299 L 50.416 129.594299 C 51.751999 129.594299 52.935001 128.939301 53.660999 127.933304 C 55.738998 125.819305 56 122.202301 56 120.525299 C 56 118.743301 55.705002 114.768295 53.245998 112.736298 C 52.521999 112.011307 51.521 111.563293 50.416 111.563293"/>
    <path id="path4" fill="#ffffff" stroke="none" d="M 188 92.004898 L 188 151.994904 L 188 152.004898 L 68 152.004898 L 68 151.994904 L 68 92.004898 L 68 91.994904 L 117.083 91.994904 C 117.081001 91.997894 117.080002 92.001907 117.078003 92.004898 L 123.902 92.004898 C 123.935997 92.003906 123.967003 91.994904 124 91.994904 L 132 91.994904 C 132.033005 91.994904 132.063995 92.003906 132.097992 92.004898 L 138.923004 92.004898 C 138.921005 92.001907 138.919998 91.997894 138.917999 91.994904 L 188 91.994904 Z M 132 87.994904 L 124 87.994904 L 64 87.994904 L 64 155.994904 L 104 155.994904 L 108 155.994904 L 148 155.994904 L 152 155.994904 L 192 155.994904 L 192 87.994904 Z"/>
</svg>
