<?xml version="1.0" encoding="UTF-8"?>
<!-- Generated by Pixelmator Pro 3.7.1 -->
<svg width="256" height="256" viewBox="0 0 256 256" xmlns="http://www.w3.org/2000/svg">
    <path id="Path" fill="#ffffff" stroke="none" d="M 36.216301 240 L 36.000301 240 L 39.852299 228 L 40.216301 228 L 240.00029 228 L 240.1483 228 L 244.00029 240 Z M 34.750301 231.75 L 33.434299 235.695999 L 32.000301 240 L 28.000299 240 L 23.7833 240 L 12.0003 240 L 16.000299 228 L 24.000299 228 L 32.000301 228 L 36.000301 228 Z M 16.000299 104 L 24.000299 104 L 24.000299 224 L 16.000299 224 Z M 16.000299 20 L 26.000299 18 L 24.000299 18.399994 L 24.000299 100 L 16.000299 100 Z M 28.000299 104 L 35.310299 104 L 36.000301 104 L 36.000301 224 L 32.000301 224 L 29.1173 224 L 28.000299 224 Z M 28.000299 17.600006 L 36.000301 16 L 36.000301 100 L 35.310299 100 L 28.000299 100 Z M 40.000301 104 L 240.00029 104 L 240.00029 224 L 41.549301 224 L 40.000301 224 Z M 40.000301 16 L 240.00029 16 L 240.00029 100 L 40.000301 100 Z M 247.795288 238.735001 L 244.00029 227.350998 L 244.00029 104 L 244.00029 100 L 244.00029 16 L 244.00029 12 L 240.00029 12 L 35.603298 12 L 35.310299 12 L 34.900299 12 L 34.499298 12.082993 L 15.2053 16.080002 L 12.0003 16.720993 L 12.0003 16.744003 L 12.0003 20 L 12.0003 100 L 12.0003 104 L 12.0003 227.350998 L 8.2053 238.735001 L 6.450299 244 L 12.0003 244 L 22.4503 244 L 28.000299 244 L 32.000301 244 L 34.883301 244 L 244.00029 244 L 249.549286 244 Z"/>
</svg>
