<?xml version="1.0" encoding="UTF-8"?>
<!-- Generated by Pixelmator Pro 3.7.1 -->
<svg width="256" height="256" viewBox="0 0 256 256" xmlns="http://www.w3.org/2000/svg">
    <path id="Path" fill="#ffffff" stroke="none" d="M 236 198.509796 C 236 204.105804 227 212.156799 227 212.156799 C 196.912994 234.996796 168.522003 243.999802 128 243.999802 C 87.481995 243.999802 59.082993 234.996796 29 212.156799 C 29 212.156799 20 207.607803 20 198.509796 L 20 121.176804 C 20 60.883789 68.356995 11.999802 128 11.999802 C 187.643005 11.999802 236 60.883789 236 121.176804 Z M 207.209991 41.165802 C 186.054001 19.778793 157.923004 7.999802 128 7.999802 C 98.076996 7.999802 69.947006 19.778793 48.789993 41.165802 C 27.645004 62.540802 16 90.955795 16 121.176804 L 16 198.509796 C 16 208.884796 24.852997 214.422806 26.824997 215.527802 C 57.287003 238.586792 86.626007 247.999802 128 247.999802 C 169.480011 247.999802 198.863007 238.538803 229.419006 215.342804 L 229.546997 215.244797 L 229.666992 215.137802 C 231.393005 213.593796 240 205.537796 240 198.509796 L 240 121.176804 C 240 90.955795 228.354004 62.540802 207.209991 41.165802"/>
    <path id="path1" fill="#ffffff" stroke="none" d="M 128 220 C 72.772003 220 28 175.227997 28 120 C 28 64.772995 72.772003 20 128 20 C 183.227997 20 228 64.772995 228 120 C 228 175.227997 183.227997 220 128 220 M 128 16 C 70.653999 16 24 62.654007 24 120 C 24 177.346008 70.653999 224 128 224 C 185.346008 224 232 177.346008 232 120 C 232 62.654007 185.346008 16 128 16"/>
    <path id="path2" fill="#ffffff" stroke="none" d="M 128 210 C 78.292999 210 38 169.707001 38 120 C 38 70.292999 78.292999 30 128 30 C 177.707001 30 218 70.292999 218 120 C 218 169.707001 177.707001 210 128 210 M 128 26 C 76.167999 26 34 68.167999 34 120 C 34 171.832001 76.167999 214 128 214 C 179.832001 214 222 171.832001 222 120 C 222 68.167999 179.832001 26 128 26"/>
    <path id="path3" fill="#ffffff" stroke="none" d="M 152 146.825195 L 152 144.000198 L 152 96.000198 L 152 93.173203 C 159.362 99.764206 164 109.338196 164 120.000198 C 164 130.65921 159.362 140.2332 152 146.825195 M 105.382004 148.000198 L 108 148.000198 L 116 148.000198 L 120 148.000198 L 120 144.000198 L 136 144.000198 L 136 148.000198 L 140 148.000198 L 148 148.000198 L 150.617004 148.000198 C 144.436005 153.000198 136.569 156.000198 128 156.000198 C 119.431 156.000198 111.563995 153.000198 105.382004 148.000198 M 92 120.000198 C 92 109.338196 96.637001 99.764206 104 93.173203 L 104 96.000198 L 104 144.000198 L 104 146.825195 C 96.637001 140.2332 92 130.65921 92 120.000198 M 116 140.000198 L 116 144.000198 L 108 144.000198 L 108 96.000198 L 116 96.000198 L 116 100.000198 L 140 100.000198 L 140 96.000198 L 148 96.000198 L 148 144.000198 L 140 144.000198 L 140 140.000198 Z M 150.619003 92.000198 L 148 92.000198 L 140 92.000198 L 136 92.000198 L 136 96.000198 L 120 96.000198 L 120 92.000198 L 116 92.000198 L 108 92.000198 L 105.380997 92.000198 C 111.563004 87.000198 119.43 84.000198 128 84.000198 C 136.570007 84.000198 144.438004 87.000198 150.619003 92.000198 M 128 80.000198 C 105.944 80.000198 88 97.944199 88 120.000198 C 88 142.055206 105.944 160.000198 128 160.000198 C 150.056 160.000198 168 142.055206 168 120.000198 C 168 97.944199 150.056 80.000198 128 80.000198"/>
    <path id="path4" fill="#ffffff" stroke="none" d="M 136 132 L 120 132 L 120 126 L 136 126 Z M 140 122 L 116 122 L 116 136 L 140 136 Z"/>
    <path id="path5" fill="#ffffff" stroke="none" d="M 136 114 L 120 114 L 120 108 L 136 108 Z M 140 104 L 116 104 L 116 118 L 140 118 Z"/>
</svg>
