<?xml version="1.0" encoding="UTF-8"?>
<!-- Generated by Pixelmator Pro 3.7.1 -->
<svg width="256" height="256" viewBox="0 0 256 256" xmlns="http://www.w3.org/2000/svg">
    <path id="Path" fill="#ffffff" stroke="none" d="M 244 186 C 244 187.104004 243.104004 188 242 188 L 236 188 L 236 184 L 236 164 L 236 160 L 236 152 L 236 148 L 236 140 L 236 136 L 236 128 L 236 124 L 236 116 L 236 112 L 232 112 L 224 112 L 220 112 L 212 112 L 208 112 L 200 112 L 196 112 L 188 112 L 184 112 L 184 116 L 184 124 L 180 124 L 180 116 L 180 112 L 176 112 L 168 112 L 164 112 L 156 112 L 152 112 L 144 112 L 140 112 L 136 112 L 128 112 L 124 112 L 120 112 L 104 112 L 100 112 L 84 112 L 80 112 L 64 112 L 60 112 L 44 112 L 40 112 L 24 112 L 20 112 L 20 116 L 20 124 L 20 128 L 20 136 L 20 140 L 20 148 L 20 152 L 20 172 L 20 176 L 20 184 L 20 188 L 14 188 C 12.895996 188 12 187.104004 12 186 L 12 70 C 12 68.895996 12.895996 68 14 68 L 16.345001 68 C 16.194 68.432007 16.072998 68.878998 16.022003 69.354004 L 15.998993 69.576996 L 16 69.800995 L 16.190002 104.022003 L 16.212006 108 L 20.190002 108 L 152 108 L 156 108 L 212 108 L 216 108 L 235.809998 108 L 239.787003 108 L 239.809998 104.022003 L 240 69.800995 L 240.001007 69.576996 L 239.977997 69.354004 C 239.927002 68.878998 239.807007 68.432007 239.654999 68 L 242 68 C 243.104004 68 244 68.895996 244 70 Z M 160 188 L 160 184 L 160 176 L 172 176 L 176 176 L 176 172 L 176 164 L 184 164 L 184 172 L 184 176 L 184 184 L 184 188 Z M 32 176 L 36 176 L 48 176 L 48 184 L 24 184 L 24 176 Z M 40 124 L 36 124 L 24 124 L 24 116 L 40 116 Z M 60 124 L 52 124 L 48 124 L 44 124 L 44 116 L 60 116 Z M 80 124 L 76 124 L 72 124 L 64 124 L 64 116 L 80 116 Z M 100 124 L 96 124 L 88 124 L 84 124 L 84 116 L 100 116 Z M 120 124 L 112 124 L 108 124 L 104 124 L 104 116 L 120 116 Z M 136 124 L 132 124 L 128 124 L 128 116 L 136 116 Z M 152 124 L 148 124 L 144 124 L 144 116 L 152 116 Z M 164 124 L 160 124 L 156 124 L 156 116 L 164 116 Z M 176 124 L 172 124 L 168 124 L 168 116 L 176 116 Z M 184 136 L 180 136 L 176 136 L 172 136 L 172 128 L 176 128 L 180 128 L 184 128 Z M 196 136 L 188 136 L 188 128 L 196 128 Z M 196 124 L 188 124 L 188 116 L 196 116 Z M 208 124 L 200 124 L 200 116 L 208 116 Z M 220 124 L 212 124 L 212 116 L 220 116 Z M 188 164 L 196 164 L 196 172 L 188 172 Z M 168 160 L 168 152 L 176 152 L 180 152 L 184 152 L 184 160 L 176 160 L 172 160 Z M 160 164 L 164 164 L 168 164 L 172 164 L 172 172 L 160 172 Z M 148 172 L 148 164 L 152 164 L 156 164 L 156 172 Z M 56 152 L 56 160 L 52 160 L 48 160 L 48 152 Z M 48 140 L 52 140 L 56 140 L 56 148 L 48 148 Z M 60 136 L 56 136 L 52 136 L 52 128 L 60 128 Z M 72 136 L 68 136 L 64 136 L 64 128 L 72 128 Z M 84 136 L 80 136 L 76 136 L 76 128 L 80 128 L 84 128 Z M 96 136 L 92 136 L 88 136 L 88 128 L 96 128 Z M 108 136 L 104 136 L 100 136 L 100 128 L 104 128 L 108 128 Z M 120 136 L 116 136 L 112 136 L 112 128 L 120 128 Z M 132 136 L 128 136 L 124 136 L 124 128 L 128 128 L 132 128 Z M 144 136 L 140 136 L 136 136 L 136 128 L 140 128 L 144 128 Z M 156 136 L 152 136 L 148 136 L 148 128 L 152 128 L 156 128 Z M 168 136 L 164 136 L 160 136 L 160 128 L 164 128 L 168 128 Z M 156 148 L 156 140 L 160 140 L 164 140 L 164 148 Z M 144 152 L 152 152 L 152 160 L 148 160 L 144 160 Z M 124 164 L 128 164 L 132 164 L 132 172 L 124 172 Z M 112 164 L 116 164 L 120 164 L 120 172 L 112 172 Z M 100 164 L 104 164 L 108 164 L 108 172 L 100 172 Z M 88 164 L 92 164 L 96 164 L 96 172 L 88 172 Z M 76 164 L 80 164 L 84 164 L 84 172 L 76 172 Z M 64 164 L 68 164 L 72 164 L 72 172 L 64 172 Z M 80 148 L 72 148 L 72 140 L 76 140 L 80 140 Z M 92 148 L 84 148 L 84 140 L 88 140 L 92 140 Z M 104 148 L 96 148 L 96 140 L 100 140 L 104 140 Z M 116 148 L 108 148 L 108 140 L 112 140 L 116 140 Z M 128 148 L 120 148 L 120 140 L 124 140 L 128 140 Z M 120 152 L 128 152 L 128 160 L 124 160 L 120 160 Z M 108 152 L 116 152 L 116 160 L 112 160 L 108 160 Z M 96 152 L 104 152 L 104 160 L 100 160 L 96 160 Z M 84 152 L 92 152 L 92 160 L 88 160 L 84 160 Z M 72 152 L 80 152 L 80 160 L 76 160 L 72 160 Z M 140 160 L 136 160 L 132 160 L 132 152 L 140 152 Z M 140 148 L 132 148 L 132 140 L 136 140 L 140 140 Z M 152 148 L 144 148 L 144 140 L 148 140 L 152 140 Z M 60 140 L 64 140 L 68 140 L 68 148 L 60 148 Z M 60 152 L 68 152 L 68 160 L 64 160 L 60 160 Z M 52 164 L 56 164 L 60 164 L 60 172 L 52 172 Z M 144 172 L 136 172 L 136 164 L 140 164 L 144 164 Z M 164 160 L 160 160 L 156 160 L 156 152 L 164 152 Z M 176 148 L 168 148 L 168 140 L 172 140 L 176 140 Z M 184 148 L 180 148 L 180 140 L 184 140 Z M 196 148 L 188 148 L 188 140 L 196 140 Z M 208 148 L 200 148 L 200 140 L 208 140 Z M 200 164 L 208 164 L 208 172 L 200 172 Z M 208 160 L 200 160 L 200 152 L 208 152 Z M 188 152 L 196 152 L 196 160 L 188 160 Z M 220 172 L 212 172 L 212 164 L 220 164 Z M 220 160 L 212 160 L 212 152 L 220 152 Z M 220 148 L 212 148 L 212 140 L 220 140 Z M 220 136 L 212 136 L 212 128 L 220 128 Z M 200 128 L 208 128 L 208 136 L 200 136 Z M 40 128 L 44 128 L 48 128 L 48 136 L 44 136 L 40 136 Z M 36 152 L 44 152 L 44 160 L 36 160 Z M 36 164 L 44 164 L 48 164 L 48 172 L 36 172 Z M 60 184 L 52 184 L 52 176 L 60 176 Z M 72 184 L 64 184 L 64 176 L 72 176 Z M 156 184 L 76 184 L 76 176 L 84 176 L 88 176 L 96 176 L 100 176 L 108 176 L 112 176 L 120 176 L 124 176 L 132 176 L 136 176 L 144 176 L 148 176 L 156 176 Z M 196 184 L 188 184 L 188 176 L 196 176 Z M 208 184 L 200 184 L 200 176 L 208 176 Z M 220 184 L 212 184 L 212 176 L 220 176 Z M 232 184 L 224 184 L 224 176 L 224 172 L 224 164 L 232 164 Z M 232 160 L 224 160 L 224 152 L 232 152 Z M 232 148 L 224 148 L 224 140 L 232 140 Z M 232 136 L 224 136 L 224 128 L 232 128 Z M 232 124 L 224 124 L 224 116 L 232 116 Z M 24 128 L 36 128 L 36 136 L 24 136 Z M 24 140 L 36 140 L 40 140 L 44 140 L 44 148 L 36 148 L 32 148 L 24 148 Z M 24 152 L 32 152 L 32 160 L 32 164 L 32 172 L 24 172 Z M 152 68 L 152 104 L 20.190002 104 L 20 69.778992 C 20.108002 68.765991 20.932999 68 21.914001 68 Z M 212 104 L 156 104 L 156 68 L 212 68 Z M 234.087006 68 C 235.067001 68 235.891998 68.765991 236 69.778992 L 235.809998 104 L 216 104 L 216 68 Z M 242 64 L 234.087006 64 L 216 64 L 212 64 L 156 64 L 152 64 L 21.914001 64 L 14 64 C 10.690994 64 8 66.69101 8 70 L 8 186 C 8 189.30899 10.690994 192 14 192 L 242 192 C 245.309006 192 248 189.30899 248 186 L 248 70 C 248 66.69101 245.309006 64 242 64"/>
    <path id="path1" fill="#ffffff" stroke="none" d="M 28 88 L 44 88 L 44 96 L 28 96 Z M 48 88 L 80 88 L 80 96 L 48 96 Z M 44 100 L 48 100 L 80 100 L 84 100 L 84 96 L 84 88 L 84 84 L 80 84 L 48 84 L 44 84 L 28 84 L 24 84 L 24 88 L 24 96 L 24 100 L 28 100 Z"/>
    <path id="path2" fill="#ffffff" stroke="none" d="M 204 96 L 164 96 L 164 92 L 204 92 Z M 208 88 L 160 88 L 160 100 L 208 100 Z"/>
    <path id="path3" fill="#ffffff" stroke="none" d="M 208 80 L 160 80 L 160 84 L 208 84 Z"/>
    <path id="path4" fill="#ffffff" stroke="none" d="M 208 72 L 160 72 L 160 76 L 208 76 Z"/>
</svg>
