<?xml version="1.0" encoding="UTF-8"?>
<!-- Generated by Pixelmator Pro 3.7.1 -->
<svg width="256" height="256" viewBox="0 0 256 256" xmlns="http://www.w3.org/2000/svg">
    <path id="Path" fill="#ffffff" stroke="none" d="M 220 188 L 216 188 L 216 192 L 220 192 L 220 200 L 216 200 L 216 204 L 220 204 L 220 212 L 216 212 L 216 216 L 220 216 L 220 240 C 220 242.209 218.209 244 216 244 L 212 244 L 212 224 L 212 220 L 208 220 L 196 220 L 188 220 L 184 220 L 180 220 L 176 220 L 172 220 L 168 220 L 164 220 L 160 220 L 156 220 L 152 220 L 148 220 L 144 220 L 140 220 L 136 220 L 132 220 L 128 220 L 120 220 L 116 220 L 112 220 L 108 220 L 104 220 L 100 220 L 96 220 L 92 220 L 88 220 L 84 220 L 80 220 L 76 220 L 72 220 L 68 220 L 60 220 L 48 220 L 44 220 L 44 224 L 44 244 L 40 244 C 37.791 244 36 242.209 36 240 L 36 216 L 40 216 L 40 212 L 36 212 L 36 204 L 40 204 L 40 200 L 36 200 L 36 192 L 40 192 L 40 188 L 36 188 L 36 32 C 36 20.953995 44.953995 12 56 12 L 200 12 C 211.046005 12 220 20.953995 220 32 Z M 68 236 L 64 236 L 64 224 L 68 224 Z M 76 236 L 72 236 L 72 224 L 76 224 Z M 84 236 L 80 236 L 80 224 L 84 224 Z M 92 236 L 88 236 L 88 224 L 92 224 Z M 100 236 L 96 236 L 96 224 L 100 224 Z M 108 236 L 104 236 L 104 224 L 108 224 Z M 116 236 L 112 236 L 112 224 L 116 224 Z M 128 236 L 120 236 L 120 224 L 128 224 Z M 136 236 L 132 236 L 132 224 L 136 224 Z M 144 236 L 140 236 L 140 224 L 144 224 Z M 152 236 L 148 236 L 148 224 L 152 224 Z M 160 236 L 156 236 L 156 224 L 160 224 Z M 168 236 L 164 236 L 164 224 L 168 224 Z M 176 236 L 172 236 L 172 224 L 176 224 Z M 184 236 L 180 236 L 180 224 L 184 224 Z M 188 224 L 192 224 L 192 236 L 188 236 Z M 48 244 L 48 224 L 60 224 L 60 236 C 60 238.209 61.791 240 64 240 L 192 240 C 194.209 240 196 238.209 196 236 L 196 224 L 208 224 L 208 244 Z M 200 8 L 56 8 C 42.766998 8 32 18.766998 32 32 L 32 188 L 32 192 L 32 200 L 32 204 L 32 212 L 32 216 L 32 240 C 32 244.410995 35.589005 248 40 248 L 44 248 L 48 248 L 208 248 L 212 248 L 216 248 C 220.410995 248 224 244.410995 224 240 L 224 216 L 224 212 L 224 204 L 224 200 L 224 192 L 224 188 L 224 32 C 224 18.766998 213.233002 8 200 8"/>
    <path id="path1" fill="#ffffff" stroke="none" d="M 208 80 L 208 168 C 208 170.209 206.209 172 204 172 L 52 172 C 49.791 172 48 170.209 48 168 L 48 80 L 48 60 C 48 57.791 49.791 56 52 56 L 80 56 C 82.209 56 84 57.791 84 60 L 84 76 C 84 78.209 85.791 80 88 80 L 168 80 C 170.209 80 172 78.209 172 76 L 172 60 C 172 57.791 173.791 56 176 56 L 204 56 C 206.209 56 208 57.791 208 60 Z M 204 52 L 176 52 C 171.589005 52 168 55.589005 168 60 L 168 76 L 88 76 L 88 60 C 88 55.589005 84.411003 52 80 52 L 52 52 C 47.589005 52 44 55.589005 44 60 L 44 80 L 44 168 C 44 172.411011 47.589005 176 52 176 L 204 176 C 208.410995 176 212 172.411011 212 168 L 212 80 L 212 60 C 212 55.589005 208.410995 52 204 52"/>
    <path id="path2" fill="#ffffff" stroke="none" d="M 160 32 L 160 36 L 96 36 L 96 32 L 96 28 L 160 28 Z M 160 44 L 96 44 L 96 40 L 160 40 Z M 160 52 L 96 52 L 96 48 L 160 48 Z M 160 60 L 96 60 L 96 56 L 160 56 Z M 160 68 L 96 68 L 96 64 L 160 64 Z M 164 60 L 164 32 L 164 24 L 92 24 L 92 32 L 92 60 L 92 72 L 164 72 Z"/>
    <path id="path3" fill="#ffffff" stroke="none" d="M 44 192 L 212 192 L 212 188 L 44 188 Z"/>
    <path id="path4" fill="#ffffff" stroke="none" d="M 44 204 L 212 204 L 212 200 L 44 200 Z"/>
    <path id="path5" fill="#ffffff" stroke="none" d="M 44 216 L 212 216 L 212 212 L 44 212 Z"/>
</svg>
