<?xml version="1.0" encoding="UTF-8"?>
<!-- Generated by Pixelmator Pro 3.7.1 -->
<svg width="256" height="256" viewBox="0 0 256 256" xmlns="http://www.w3.org/2000/svg">
    <path id="Path" fill="#ffffff" stroke="none" d="M 180 124 L 188 124 L 188 128 L 180 128 Z M 176 132 L 188 132 L 188 136 L 176 136 Z M 180 144 L 188 144 L 188 148 L 180 148 Z M 172 152 L 188 152 L 188 156 L 172 156 Z M 164 160 L 176 160 L 176 164 L 164 164 Z M 160 152 L 168 152 L 168 156 L 160 156 Z M 156 144 L 164 144 L 164 148 L 156 148 Z M 152 160 L 160 160 L 160 164 L 152 164 Z M 160 136 L 152 136 L 152 132 L 160 132 Z M 164 128 L 156 128 L 156 124 L 164 124 Z M 176 148 L 168 148 L 168 144 L 176 144 Z M 168 124 L 176 124 L 176 128 L 168 128 Z M 172 136 L 164 136 L 164 132 L 172 132 Z M 148 152 L 156 152 L 156 156 L 148 156 Z M 144 144 L 152 144 L 152 148 L 144 148 Z M 140 160 L 148 160 L 148 164 L 140 164 Z M 136 152 L 144 152 L 144 156 L 136 156 Z M 80 168 L 140 168 L 140 172 L 80 172 Z M 88 136 L 80 136 L 80 132 L 88 132 Z M 92 128 L 80 128 L 80 124 L 92 124 Z M 100 136 L 92 136 L 92 132 L 100 132 Z M 108 128 L 96 128 L 96 124 L 108 124 Z M 112 136 L 104 136 L 104 132 L 112 132 Z M 104 160 L 112 160 L 112 164 L 104 164 Z M 100 152 L 108 152 L 108 156 L 100 156 Z M 96 144 L 104 144 L 104 148 L 96 148 Z M 92 160 L 100 160 L 100 164 L 92 164 Z M 88 152 L 96 152 L 96 156 L 88 156 Z M 88 164 L 80 164 L 80 160 L 88 160 Z M 84 144 L 92 144 L 92 148 L 84 148 Z M 116 148 L 108 148 L 108 144 L 116 144 Z M 120 156 L 112 156 L 112 152 L 120 152 Z M 124 136 L 116 136 L 116 132 L 124 132 Z M 124 164 L 116 164 L 116 160 L 124 160 Z M 128 148 L 120 148 L 120 144 L 128 144 Z M 132 156 L 124 156 L 124 152 L 132 152 Z M 136 136 L 128 136 L 128 132 L 136 132 Z M 136 164 L 128 164 L 128 160 L 136 160 Z M 132 144 L 140 144 L 140 148 L 132 148 Z M 148 136 L 140 136 L 140 132 L 148 132 Z M 144 128 L 132 128 L 132 124 L 144 124 Z M 76 152 L 84 152 L 84 156 L 76 156 Z M 72 144 L 80 144 L 80 148 L 72 148 Z M 68 160 L 76 160 L 76 164 L 68 164 Z M 68 168 L 76 168 L 76 172 L 68 172 Z M 64 152 L 72 152 L 72 156 L 64 156 Z M 76 136 L 68 136 L 68 132 L 76 132 Z M 64 124 L 76 124 L 76 128 L 64 128 Z M 60 144 L 68 144 L 68 148 L 60 148 Z M 56 160 L 64 160 L 64 164 L 56 164 Z M 56 168 L 64 168 L 64 172 L 56 172 Z M 52 152 L 60 152 L 60 156 L 52 156 Z M 48 144 L 56 144 L 56 148 L 48 148 Z M 40 160 L 52 160 L 52 164 L 40 164 Z M 40 136 L 32 136 L 32 132 L 40 132 Z M 44 128 L 32 128 L 32 124 L 44 124 Z M 48 156 L 40 156 L 40 152 L 48 152 Z M 52 136 L 44 136 L 44 132 L 52 132 Z M 64 136 L 56 136 L 56 132 L 64 132 Z M 60 128 L 48 128 L 48 124 L 60 124 Z M 32 144 L 44 144 L 44 148 L 32 148 Z M 36 164 L 32 164 L 32 160 L 36 160 Z M 28 152 L 36 152 L 36 156 L 28 156 Z M 244 186 C 244 187.104004 243.104004 188 242 188 L 14 188 C 12.896 188 12 187.104004 12 186 L 12 70 C 12 68.895996 12.896 68 14 68 L 16.280001 68 C 16.163 68.354004 16.075001 68.722 16.028999 69.104004 L 15.999 69.354004 L 16 69.606003 L 16.115 88 L 16 88 L 16 92 L 16 100 L 16 104 L 16 112 L 16 116 L 20 116 L 196 116 L 196 120 L 196 124 L 196 128 L 192 128 L 192 124 L 192 120 L 188 120 L 180 120 L 176 120 L 168 120 L 164 120 L 156 120 L 152 120 L 152 124 L 152 128 L 148 128 L 148 124 L 148 120 L 144 120 L 132 120 L 128 120 L 128 124 L 128 128 L 124 128 L 116 128 L 112 128 L 112 124 L 112 120 L 108 120 L 96 120 L 92 120 L 80 120 L 76 120 L 64 120 L 60 120 L 48 120 L 44 120 L 32 120 L 28 120 L 28 124 L 28 128 L 28 132 L 28 136 L 28 140 L 28 144 L 28 148 L 24 148 L 24 152 L 24 156 L 24 160 L 28 160 L 28 168 L 52 168 L 52 172 L 52 176 L 56 176 L 64 176 L 68 176 L 76 176 L 80 176 L 140 176 L 144 176 L 144 172 L 144 168 L 148 168 L 152 168 L 160 168 L 164 168 L 176 168 L 180 168 L 180 164 L 180 160 L 188 160 L 192 160 L 192 156 L 192 152 L 192 148 L 192 144 L 192 140 L 196.009995 140 C 193.492996 143.345001 192 147.501999 192 152 C 192 163.028 200.972 172 212 172 C 223.028 172 232 163.028 232 152 C 232 140.972 223.028 132 212 132 C 211.720001 132 211.442993 132.014999 211.169998 132.042999 C 208.632996 132.14801 206.209 132.701996 204 133.669998 L 204 132 L 204 128 L 224 128 L 228 128 L 228 124 L 228 120 L 228 116 L 236 116 L 240 116 L 240 112 L 240 104 L 240 100 L 239.809998 100 L 240 69.606003 L 240.001999 69.354004 L 239.972 69.104004 C 239.925995 68.722 239.837997 68.354004 239.720993 68 L 242 68 C 243.104004 68 244 68.895996 244 70 Z M 152 68 L 152 100 L 76 100 L 76 92 L 76 88 L 72 88 L 56 88 L 52 88 L 20.115 88 L 20 69.582001 C 20.108 68.681 20.933001 68 21.914 68 Z M 212 68 L 212 100 L 208 100 L 208 88 L 160 88 L 160 100 L 156 100 L 156 68 Z M 204 100 L 164 100 L 164 92 L 204 92 Z M 52 100 L 20.190001 100 L 20.139999 92 L 52 92 Z M 72 100 L 56 100 L 56 92 L 72 92 Z M 20 112 L 20 104 L 20.190001 104 L 52 104 L 56 104 L 72 104 L 76 104 L 152 104 L 156 104 L 160 104 L 208 104 L 212 104 L 216 104 L 235.809998 104 L 236 104 L 236 112 Z M 200 120 L 224 120 L 224 124 L 200 124 Z M 200 136 L 192 136 L 192 132 L 200 132 Z M 204.459 142.671997 C 203.802994 143.203003 203.203003 143.803009 202.671997 144.459 C 201.835999 144.162003 200.936996 144 200 144 C 199.307999 144 198.639008 144.097992 197.998001 144.264008 C 199.455002 141.632004 201.632004 139.455002 204.264008 137.998001 C 204.098007 138.639008 204 139.307999 204 140 C 204 140.936996 204.162003 141.835999 204.459 142.671997 M 204.264008 166.001999 C 201.632004 164.544998 199.455002 162.367996 197.998001 159.735992 C 198.639008 159.902008 199.307999 160 200 160 C 200.936996 160 201.835999 159.837997 202.671997 159.541 C 203.203003 160.196991 203.802994 160.796997 204.459 161.328003 C 204.162003 162.164001 204 163.063004 204 164 C 204 164.692001 204.098007 165.360992 204.264008 166.001999 M 216 140 C 216 142.209 214.209 144 212 144 C 216.417999 144 220 147.582001 220 152 C 220 149.791 221.791 148 224 148 C 226.209 148 228 149.791 228 152 C 228 154.209 226.209 156 224 156 C 221.791 156 220 154.209 220 152 C 220 156.417999 216.417999 160 212 160 C 214.209 160 216 161.791 216 164 C 216 166.209 214.209 168 212 168 C 209.791 168 208 166.209 208 164 C 208 161.791 209.791 160 212 160 C 207.582001 160 204 156.417999 204 152 C 204 154.209 202.209 156 200 156 C 197.791 156 196 154.209 196 152 C 196 149.791 197.791 148 200 148 C 202.209 148 204 149.791 204 152 C 204 147.582001 207.582001 144 212 144 C 209.791 144 208 142.209 208 140 C 208 137.791 209.791 136 212 136 C 214.209 136 216 137.791 216 140 M 219.735992 137.998001 C 222.367996 139.455002 224.544998 141.632004 226.001999 144.264008 C 225.360992 144.097992 224.692001 144 224 144 C 223.063004 144 222.164001 144.162003 221.328003 144.459 C 220.796997 143.803009 220.197006 143.203003 219.541 142.671997 C 219.837997 141.835999 220 140.936996 220 140 C 220 139.307999 219.901993 138.639008 219.735992 137.998001 M 219.541 161.328003 C 220.197006 160.796997 220.796997 160.196991 221.328003 159.541 C 222.164001 159.837997 223.063004 160 224 160 C 224.692001 160 225.360992 159.902008 226.001999 159.735992 C 224.544998 162.367996 222.367996 164.544998 219.735992 166.001999 C 219.901993 165.360992 220 164.692001 220 164 C 220 163.063004 219.837997 162.164001 219.541 161.328003 M 234.087006 68 C 235.067001 68 235.891998 68.681 236 69.582001 L 235.809998 100 L 216 100 L 216 68 Z M 242 64 L 234.087006 64 L 216 64 L 212 64 L 156 64 L 152 64 L 21.914 64 L 14 64 C 10.691 64 8 66.690994 8 70 L 8 186 C 8 189.30899 10.691 192 14 192 L 242 192 C 245.309006 192 248 189.30899 248 186 L 248 70 C 248 66.690994 245.309006 64 242 64"/>
    <path id="path1" fill="#ffffff" stroke="none" d="M 208 80 L 160 80 L 160 84 L 208 84 Z"/>
    <path id="path2" fill="#ffffff" stroke="none" d="M 208 72 L 160 72 L 160 76 L 208 76 Z"/>
</svg>
