<?xml version="1.0" encoding="UTF-8"?>
<!-- Generated by Pixelmator Pro 3.7.1 -->
<svg width="256" height="256" viewBox="0 0 256 256" xmlns="http://www.w3.org/2000/svg">
    <path id="Path" fill="#ffffff" stroke="none" d="M 90 200 C 91.102997 200 92 200.897003 92 202 C 92 203.102997 91.102997 204 90 204 C 88.897003 204 88 203.102997 88 202 C 88 200.897003 88.897003 200 90 200 M 90 208 C 93.313004 208 96 205.313004 96 202 C 96 198.686996 93.313004 196 90 196 C 86.686996 196 84 198.686996 84 202 C 84 205.313004 86.686996 208 90 208"/>
    <path id="path1" fill="#ffffff" stroke="none" d="M 114 200 C 115.102997 200 116 200.897003 116 202 C 116 203.102997 115.102997 204 114 204 C 112.897003 204 112 203.102997 112 202 C 112 200.897003 112.897003 200 114 200 M 114 208 C 117.313004 208 120 205.313004 120 202 C 120 198.686996 117.313004 196 114 196 C 110.686996 196 108 198.686996 108 202 C 108 205.313004 110.686996 208 114 208"/>
    <path id="path2" fill="#ffffff" stroke="none" d="M 138 200 C 139.102997 200 140 200.897003 140 202 C 140 203.102997 139.102997 204 138 204 C 136.897003 204 136 203.102997 136 202 C 136 200.897003 136.897003 200 138 200 M 138 208 C 141.313004 208 144 205.313004 144 202 C 144 198.686996 141.313004 196 138 196 C 134.686996 196 132 198.686996 132 202 C 132 205.313004 134.686996 208 138 208"/>
    <path id="path3" fill="#ffffff" stroke="none" d="M 162 200 C 163.102997 200 164 200.897003 164 202 C 164 203.102997 163.102997 204 162 204 C 160.897003 204 160 203.102997 160 202 C 160 200.897003 160.897003 200 162 200 M 162 208 C 165.313004 208 168 205.313004 168 202 C 168 198.686996 165.313004 196 162 196 C 158.686996 196 156 198.686996 156 202 C 156 205.313004 158.686996 208 162 208"/>
    <path id="path4" fill="#ffffff" stroke="none" d="M 190 72 L 66 72 C 62.691002 72 60 74.690994 60 78 L 60 176 L 24 176 L 24 56 L 228 56 L 228 176 L 196 176 L 196 78 C 196 74.690994 193.309006 72 190 72 M 192 176 L 64 176 L 64 78 C 64 76.895996 64.896004 76 66 76 L 190 76 C 191.104004 76 192 76.895996 192 78 Z M 240 152 L 238 152 C 234.69101 152 232 154.69101 232 158 L 232 55.938995 C 232 53.764008 230.235992 52 228.061996 52 L 23.938995 52 C 21.764008 52 20 53.764008 20 55.938995 L 20 176.061005 C 20 178.235992 21.764008 180 23.938995 180 L 60 180 L 64 180 L 192 180 L 196 180 L 228.061996 180 C 230.235992 180 232 178.235992 232 176.061005 L 232 178 C 232 181.30899 234.69101 184 238 184 L 240 184 L 240 204 C 240 209.223007 236.656998 213.653 232 215.302994 L 232 214 L 232 210 L 228 210 L 200 210 L 200 189.080002 C 200 186.278992 197.720993 184 194.919998 184 L 185.080002 184 C 182.279007 184 180 186.278992 180 189.080002 L 180 214.919998 C 180 215.291 180.044998 215.651001 180.121002 216 L 79.878998 216 C 79.955002 215.651001 80 215.291 80 214.919998 L 80 189.080002 C 80 186.278992 77.721001 184 74.919998 184 L 65.080002 184 C 62.278999 184 60 186.278992 60 189.080002 L 60 211.102005 C 57.824997 209.149002 54.990005 208 52 208 C 47.738007 208 43.759995 210.296997 41.617996 213.994995 L 41.460007 214.266998 L 41.302994 213.994995 C 39.160995 210.296997 35.182999 208 30.921005 208 C 26.658997 208 22.681 210.296997 20.539001 213.994995 L 19.819 215.235992 C 15.255997 213.537994 12 209.154999 12 204 L 12 48 C 12 45.791 13.791 44 16 44 L 72 44 L 76 44 L 176 44 L 180 44 L 236 44 C 238.209 44 240 45.791 240 48 Z M 240 180 L 238 180 C 236.895996 180 236 179.104004 236 178 L 236 158 C 236 156.895996 236.895996 156 238 156 L 240 156 Z M 200 216 L 200 214.919998 L 200 214 L 228 214 L 228 216 Z M 185.080002 216 C 184.483002 216 184 215.516998 184 214.919998 L 184 189.080002 C 184 188.483002 184.483002 188 185.080002 188 L 194.919998 188 C 195.516998 188 196 188.483002 196 189.080002 L 196 210 L 196 214 L 196 214.919998 C 196 215.516998 195.516998 216 194.919998 216 Z M 65.080002 216 C 64.483002 216 64 215.516998 64 214.919998 L 64 189.080002 C 64 188.483002 64.483002 188 65.080002 188 L 74.919998 188 C 75.516998 188 76 188.483002 76 189.080002 L 76 214.919998 C 76 215.516998 75.516998 216 74.919998 216 Z M 45.078995 216 C 46.462997 213.610992 49.041 212 52 212 C 54.959 212 57.537003 213.610992 58.921005 216 Z M 24 216 C 25.384003 213.610992 27.960999 212 30.921005 212 C 33.880005 212 36.457993 213.610992 37.841995 216 Z M 236 40 L 179.649994 40 C 178.822998 37.673004 176.606003 36 174 36 L 78 36 C 75.393997 36 73.176003 37.673004 72.349998 40 L 16 40 C 11.589005 40 8 43.589005 8 48 L 8 204 C 8 212.822006 15.177994 220 24 220 L 37.841995 220 L 38.139008 220 L 44.781998 220 L 45.078995 220 L 58.921005 220 L 65.080002 220 L 65.861 220 L 74.919998 220 L 185.080002 220 L 194.919998 220 L 196 220 L 200 220 L 228 220 L 232 220 L 232 219.473999 C 238.889999 217.690002 244 211.438995 244 204 L 244 48 C 244 43.589005 240.410995 40 236 40"/>
</svg>
