<?xml version="1.0" encoding="UTF-8"?>
<!-- Generated by Pixelmator Pro 3.7.1 -->
<svg width="256" height="256" viewBox="0 0 256 256" xmlns="http://www.w3.org/2000/svg">
    <path id="Path" fill="#ffffff" stroke="none" d="M 128 64 C 124.611 64 121.459999 64.477997 118.68 64.899994 L 118.479004 64.931 L 112.620003 65.819 L 111.763 71.682999 L 110.815002 78.164993 C 108.813004 78.860992 106.852997 79.677994 104.944 80.613007 L 99.620003 76.656006 L 94.856003 73.115005 L 90.085999 76.647995 C 84.915001 80.479004 80.389 85.005997 76.634995 90.104004 L 73.125999 94.869995 L 76.655998 99.619995 L 80.615997 104.947998 C 79.678001 106.862 78.862 108.819 78.168999 110.815002 L 71.683998 111.761993 L 65.819 112.619003 L 64.931 118.479004 L 64.900002 118.679993 C 64.477997 121.459991 64 124.610992 64 128 C 64 131.389999 64.477997 134.540009 64.900002 137.320007 L 64.931 137.520996 L 65.819 143.380997 L 71.683998 144.237 L 78.167999 145.184998 C 78.862 147.186996 79.678001 149.145996 80.612999 151.056 L 76.655998 156.380005 L 73.122002 161.136002 L 76.640999 165.903 C 80.427002 171.03299 84.953995 175.559998 90.094002 179.356995 L 94.862 182.880005 L 99.620003 179.343994 L 104.947998 175.38501 C 106.860001 176.320999 108.818001 177.139008 110.815002 177.834 L 111.763 184.317001 L 112.620003 190.181 L 118.479004 191.069 L 118.679001 191.100006 C 121.459 191.520996 124.610001 192 128 192 C 131.389999 192 134.541 191.520996 137.320999 191.100006 L 137.520996 191.069 L 143.380005 190.181 L 144.237 184.317001 L 145.184998 177.834991 C 147.186996 177.139999 149.147003 176.321991 151.056 175.386993 L 156.380005 179.343994 L 161.143997 182.88501 L 165.912994 179.35199 C 171.084991 175.520996 175.610992 170.994003 179.365005 165.895996 L 182.873993 161.130005 L 179.343994 156.380005 L 175.384995 151.052002 C 176.320999 149.139008 177.138 147.181 177.830002 145.184998 L 184.31601 144.237 L 190.181 143.380997 L 191.069 137.520996 L 191.100006 137.320999 C 191.520996 134.541 192 131.389999 192 128 C 192 124.610001 191.520996 121.459 191.100006 118.679001 L 191.069 118.479004 L 190.181 112.619003 L 184.31601 111.761993 L 177.830994 110.815002 C 177.138 108.813004 176.321991 106.854004 175.386993 104.944 L 179.343994 99.619995 L 182.878998 94.863998 L 179.359009 90.097 C 175.572998 84.966995 171.046005 80.440002 165.904999 76.643005 L 161.138 73.119995 L 156.380005 76.656006 L 151.052994 80.615005 C 149.139999 79.677994 147.182007 78.860992 145.186005 78.166 L 144.237 71.682999 L 143.380005 65.819 L 137.520996 64.931 L 137.320007 64.899994 C 134.539993 64.477997 131.389999 64 128 64 M 128 72 C 130.856003 72 133.589005 72.425995 136.320999 72.839996 L 138.013 84.410004 C 142.951996 85.552002 147.533005 87.511993 151.686996 90.110001 L 161.152008 83.076996 C 165.653992 86.403 169.608002 90.356995 172.923004 94.847992 L 165.889999 104.311996 C 168.498993 108.466995 170.447998 113.05899 171.578995 117.987 L 183.160004 119.678009 C 183.574005 122.410995 184 125.143997 184 128 C 184 130.856003 183.574005 133.588989 183.160004 136.320999 L 171.578995 138.013 C 170.447998 142.951996 168.488007 147.53299 165.889999 151.688004 L 172.923004 161.152008 C 169.608002 165.653992 165.643997 169.597 161.152008 172.923004 L 151.688004 165.889999 C 147.533005 168.498993 142.940002 170.447998 138.013 171.591003 L 136.320999 183.160004 C 133.589005 183.574005 130.854996 184 128 184 C 125.143997 184 122.411003 183.574005 119.678001 183.160004 L 117.987 171.591003 C 113.048004 170.447998 108.466995 168.488007 104.311996 165.889999 L 94.848 172.923004 C 90.346001 169.597 86.391998 165.643997 83.076996 161.152008 L 90.110001 151.688004 C 87.500999 147.53299 85.552002 142.940002 84.421005 138.013 L 72.839996 136.320999 C 72.425995 133.588989 72 130.855011 72 128 C 72 125.143997 72.425995 122.410995 72.839996 119.678009 L 84.421005 117.987 C 85.552002 113.048004 87.512001 108.466995 90.110001 104.311996 L 83.076996 94.847992 C 86.391998 90.346008 90.356995 86.403 94.848 83.076996 L 104.311996 90.110001 C 108.466995 87.501007 113.058998 85.552002 117.987 84.410004 L 119.678001 72.839996 C 122.411003 72.425995 125.143997 72 128 72"/>
    <path id="path1" fill="#ffffff" stroke="none" d="M 128 96 C 110.354996 96 96 110.354996 96 128 C 96 145.645004 110.354996 160 128 160 C 145.645004 160 160 145.645004 160 128 C 160 110.354996 145.645004 96 128 96 M 128 104.169998 C 141.154007 104.169998 151.830002 114.846008 151.830002 128 C 151.830002 141.153992 141.154007 151.830002 128 151.830002 C 114.846001 151.830002 104.169998 141.153992 104.169998 128 C 104.169998 114.846008 114.846001 104.169998 128 104.169998"/>
    <path id="path2" fill="#ffffff" stroke="none" d="M 220 36 L 36 36 L 36 220 L 220 220 Z M 216 216 L 40 216 L 40 40 L 216 40 Z"/>
</svg>
