<?xml version="1.0" encoding="UTF-8"?>
<!-- Generated by Pixelmator Pro 3.7.1 -->
<svg width="256" height="256" viewBox="0 0 256 256" xmlns="http://www.w3.org/2000/svg">
    <path id="Path" fill="#ffffff" stroke="none" d="M 235.568497 95.995804 C 235.566498 93.811798 233.816498 92.037796 231.641495 92.000793 C 231.617493 91.999802 231.592499 91.999802 231.567505 91.999802 C 231.526505 91.999802 231.484497 92.000793 231.442505 92.001801 C 231.351501 92.004807 231.261505 92.010803 231.171494 92.018799 L 139.219498 100.014801 C 138.244507 100.099792 137.392502 100.539795 136.750504 101.183807 L 135.566498 99.999802 L 111.566498 99.999802 L 111.566498 107.999802 L 108.547493 107.999802 C 110.526497 103.622803 111.566498 98.824799 111.566498 93.999802 C 111.566498 89.070801 110.509499 84.320801 108.553497 79.999802 L 223.566498 79.999802 L 227.566498 71.999802 L 239.566498 75.999802 L 243.566498 79.999802 Z M 227.566498 99.999802 L 139.566498 103.999802 L 231.566498 95.999802 Z M 100.324493 131.999802 L 92.184494 131.999802 C 95.59549 128.438797 98.7995 125.931793 101.133499 124.757797 C 100.297501 125.317795 99.566498 126.291794 99.566498 127.999802 C 99.566498 129.109802 99.879501 130.5298 100.324493 131.999802 M 114.4105 115.999802 L 117.094498 115.999802 L 109.094498 131.999802 L 104.528503 131.999802 C 103.962494 130.373795 103.566498 128.892792 103.566498 127.999802 C 103.566498 127.979797 103.566498 127.961792 103.56749 127.944794 C 105.966492 126.418793 107.987495 124.1008 109.4245 121.227798 L 109.5065 121.064804 C 111.323494 119.752792 113.232498 118.034805 114.4105 115.999802 M 120.569496 138.194794 C 119.940498 139.326797 118.801498 140.084808 117.514496 140.227798 L 86.6465 143.657806 C 85.309494 143.805801 84.175491 144.610809 83.566498 145.745789 L 83.566498 143.999802 L 83.566498 139.999802 L 83.566498 136.468796 L 80.0625 136.030792 L 48.062504 132.030792 L 47.566502 131.968796 L 47.566502 119.999802 L 45.5425 116.627792 L 58.689503 122.261795 C 64.293503 126.0168 70.811493 127.999802 77.566498 127.999802 C 89.363495 127.999802 100.197495 121.926804 106.39949 111.999802 L 111.566498 111.999802 C 111.566498 115.999802 103.566498 119.999802 103.566498 119.999802 C 95.566498 119.999802 83.566498 135.999802 83.566498 135.999802 L 110.330498 135.999802 C 111.087494 135.999802 111.780495 135.571808 112.119499 134.894806 L 122.119499 114.894806 C 122.7845 113.564804 121.817497 111.999802 120.330498 111.999802 L 115.566498 111.999802 L 115.566498 107.999802 L 115.566498 103.999802 L 133.9095 103.999802 L 136.737503 106.828796 L 137.546494 107.636795 Z M 76.586502 192.859802 C 76.500504 193.457794 76.599503 194.066803 76.869492 194.606796 L 76.972504 194.811798 C 77.28949 195.445801 77.846497 195.895798 78.476501 196.220795 C 79.2155 196.6008 79.690491 197.429794 79.537491 198.341797 C 79.372498 199.324799 78.44249 199.999802 77.444504 199.999802 L 71.566498 199.999802 L 69.566498 199.999802 L 37.872501 199.999802 C 36.655506 199.999802 35.720493 198.921799 35.892506 197.716797 L 42.401493 152.153809 L 44.008503 151.9758 L 80.008499 147.9758 L 83.046494 147.637787 Z M 43.566502 143.999802 L 47.566502 135.999802 L 79.566498 139.999802 L 79.566498 143.999802 L 43.566502 147.999802 Z M 27.566502 111.999802 L 19.566502 95.999802 L 19.566502 87.999802 L 23.566502 87.999802 L 43.566502 111.999802 Z M 15.566501 111.999802 L 11.566501 103.999802 L 19.094501 103.999802 L 23.094501 111.999802 Z M 15.566501 93.999802 L 15.566501 95.999802 L 15.566501 96.943802 L 15.988498 97.788803 L 17.094501 99.999802 L 13.166507 99.999802 Z M 24.709507 71.999802 L 63.716496 71.999802 C 56.418507 76.603806 51.566502 84.732803 51.566502 93.999802 C 51.566502 94.673798 51.600498 95.338806 51.650501 95.999802 L 35.439503 95.999802 L 26.6395 85.438797 L 25.439503 83.999802 L 23.566502 83.999802 L 19.566502 83.999802 Z M 31.566502 55.999802 L 99.566498 55.999802 L 103.566498 67.999802 L 26.423496 67.999802 Z M 55.566502 93.999802 C 55.566502 81.868805 65.435501 71.999802 77.566498 71.999802 C 89.697495 71.999802 99.566498 81.868805 99.566498 93.999802 C 99.566498 106.130798 89.697495 115.999802 77.566498 115.999802 C 65.435501 115.999802 55.566502 106.130798 55.566502 93.999802 M 107.566498 93.999802 C 107.566498 99.052795 106.310501 103.817795 104.094498 107.999802 C 99.056503 117.507797 89.055496 123.999802 77.566498 123.999802 C 71.280502 123.999802 65.443497 122.052795 60.617496 118.735794 L 50.925495 114.581802 L 46.6395 109.438797 L 38.773502 99.999802 L 52.270496 99.999802 C 54.979496 111.464798 65.273499 119.999802 77.566498 119.999802 C 91.925491 119.999802 103.566498 108.359802 103.566498 93.999802 C 103.566498 84.732803 98.714493 76.603806 91.416504 71.999802 L 97.904495 71.999802 C 103.837494 77.477798 107.566498 85.305801 107.566498 93.999802 M 246.394501 77.171799 L 242.394501 73.171799 L 241.727493 72.503799 L 240.831497 72.204803 L 228.831497 68.204803 L 225.540497 67.107803 L 223.988495 70.2108 L 221.094498 75.999802 L 106.405502 75.999802 C 105.530502 74.605804 104.558502 73.269806 103.482498 72.009796 L 103.776489 71.994797 L 109.022499 71.718796 L 107.361496 66.734802 L 103.361496 54.734802 L 102.449493 51.999802 L 99.566498 51.999802 L 31.566502 51.999802 L 28.443501 51.999802 L 8.877505 99.999802 L 7.9995 99.999802 L 7.9995 104.943802 L 7.9995 105.788803 L 11.988498 113.788803 L 13.094501 115.999802 L 15.566501 115.999802 L 25.094501 115.999802 L 27.566502 115.999802 L 40.501499 115.999802 L 43.566502 121.107803 L 43.566502 135.055801 L 39.988499 142.2108 L 39.566502 143.055801 L 39.566502 143.71579 L 31.932499 197.151794 C 31.686497 198.873795 32.199497 200.616806 33.339497 201.930801 C 34.480503 203.245804 36.132496 203.999802 37.872501 203.999802 L 69.566498 203.999802 L 71.566498 203.999802 L 77.444504 203.999802 C 80.456497 203.999802 82.995499 201.898804 83.482498 199.004807 C 83.897491 196.535797 82.758499 194.105804 80.629501 192.842804 L 87.087494 147.632797 L 117.955498 144.203796 C 120.525497 143.917801 122.809494 142.397797 124.065498 140.137787 L 141.9785 107.894806 L 227.748505 103.995804 L 229.297501 103.925797 L 230.394501 102.828796 L 233.223495 99.999802 L 235.566498 99.999802 L 238.038498 99.999802 L 239.144501 97.788803 L 247.144501 81.788803 L 247.999496 79.999802 Z"/>
</svg>
