<?xml version="1.0" encoding="UTF-8"?>
<!-- Generated by Pixelmator Pro 3.7.1 -->
<svg width="256" height="256" viewBox="0 0 256 256" xmlns="http://www.w3.org/2000/svg">
    <path id="Path" fill="#ffffff" stroke="none" d="M 12 40 L 244 40 L 244 208 L 12 208 Z M 244 216 L 12 216 L 12 212 L 244 212 Z M 244 36 L 12 36 L 8 36 L 8 40 L 8 208 L 8 212 L 8 216 L 8 220 L 12 220 L 244 220 L 248 220 L 248 216 L 248 212 L 248 208 L 248 40 L 248 36 Z"/>
    <path id="path1" fill="#ffffff" stroke="none" d="M 22 52 C 23.105 52 24 51.104996 24 50 C 24 48.895004 23.105 48 22 48 C 20.895 48 20 48.895004 20 50 C 20 51.104996 20.895 52 22 52"/>
    <path id="path2" fill="#ffffff" stroke="none" d="M 30 52 C 31.105 52 32 51.104996 32 50 C 32 48.895004 31.105 48 30 48 C 28.895 48 28 48.895004 28 50 C 28 51.104996 28.895 52 30 52"/>
    <path id="path3" fill="#ffffff" stroke="none" d="M 38 52 C 39.105 52 40 51.104996 40 50 C 40 48.895004 39.105 48 38 48 C 36.895 48 36 48.895004 36 50 C 36 51.104996 36.895 52 38 52"/>
    <path id="path4" fill="#ffffff" stroke="none" d="M 46 52 C 47.105 52 48 51.104996 48 50 C 48 48.895004 47.105 48 46 48 C 44.895 48 44 48.895004 44 50 C 44 51.104996 44.895 52 46 52"/>
    <path id="path5" fill="#ffffff" stroke="none" d="M 54 52 C 55.105 52 56 51.104996 56 50 C 56 48.895004 55.105 48 54 48 C 52.895 48 52 48.895004 52 50 C 52 51.104996 52.895 52 54 52"/>
    <path id="path6" fill="#ffffff" stroke="none" d="M 62 52 C 63.105 52 64 51.104996 64 50 C 64 48.895004 63.105 48 62 48 C 60.895 48 60 48.895004 60 50 C 60 51.104996 60.895 52 62 52"/>
    <path id="path7" fill="#ffffff" stroke="none" d="M 70 52 C 71.105003 52 72 51.104996 72 50 C 72 48.895004 71.105003 48 70 48 C 68.894997 48 68 48.895004 68 50 C 68 51.104996 68.894997 52 70 52"/>
    <path id="path8" fill="#ffffff" stroke="none" d="M 78 52 C 79.105003 52 80 51.104996 80 50 C 80 48.895004 79.105003 48 78 48 C 76.894997 48 76 48.895004 76 50 C 76 51.104996 76.894997 52 78 52"/>
    <path id="path9" fill="#ffffff" stroke="none" d="M 86 52 C 87.105003 52 88 51.104996 88 50 C 88 48.895004 87.105003 48 86 48 C 84.894997 48 84 48.895004 84 50 C 84 51.104996 84.894997 52 86 52"/>
    <path id="path10" fill="#ffffff" stroke="none" d="M 94 52 C 95.105003 52 96 51.104996 96 50 C 96 48.895004 95.105003 48 94 48 C 92.894997 48 92 48.895004 92 50 C 92 51.104996 92.894997 52 94 52"/>
    <path id="path11" fill="#ffffff" stroke="none" d="M 102 52 C 103.105003 52 104 51.104996 104 50 C 104 48.895004 103.105003 48 102 48 C 100.894997 48 100 48.895004 100 50 C 100 51.104996 100.894997 52 102 52"/>
    <path id="path12" fill="#ffffff" stroke="none" d="M 110 52 C 111.105003 52 112 51.104996 112 50 C 112 48.895004 111.105003 48 110 48 C 108.894997 48 108 48.895004 108 50 C 108 51.104996 108.894997 52 110 52"/>
    <path id="path13" fill="#ffffff" stroke="none" d="M 118 52 C 119.105003 52 120 51.104996 120 50 C 120 48.895004 119.105003 48 118 48 C 116.894997 48 116 48.895004 116 50 C 116 51.104996 116.894997 52 118 52"/>
    <path id="path14" fill="#ffffff" stroke="none" d="M 26 56 C 27.105 56 28 55.104996 28 54 C 28 52.895004 27.105 52 26 52 C 24.895 52 24 52.895004 24 54 C 24 55.104996 24.895 56 26 56"/>
    <path id="path15" fill="#ffffff" stroke="none" d="M 34 56 C 35.105 56 36 55.104996 36 54 C 36 52.895004 35.105 52 34 52 C 32.895 52 32 52.895004 32 54 C 32 55.104996 32.895 56 34 56"/>
    <path id="path16" fill="#ffffff" stroke="none" d="M 42 56 C 43.105 56 44 55.104996 44 54 C 44 52.895004 43.105 52 42 52 C 40.895 52 40 52.895004 40 54 C 40 55.104996 40.895 56 42 56"/>
    <path id="path17" fill="#ffffff" stroke="none" d="M 50 56 C 51.105 56 52 55.104996 52 54 C 52 52.895004 51.105 52 50 52 C 48.895 52 48 52.895004 48 54 C 48 55.104996 48.895 56 50 56"/>
    <path id="path18" fill="#ffffff" stroke="none" d="M 58 56 C 59.105 56 60 55.104996 60 54 C 60 52.895004 59.105 52 58 52 C 56.895 52 56 52.895004 56 54 C 56 55.104996 56.895 56 58 56"/>
    <path id="path19" fill="#ffffff" stroke="none" d="M 66 56 C 67.105003 56 68 55.104996 68 54 C 68 52.895004 67.105003 52 66 52 C 64.894997 52 64 52.895004 64 54 C 64 55.104996 64.894997 56 66 56"/>
    <path id="path20" fill="#ffffff" stroke="none" d="M 74 56 C 75.105003 56 76 55.104996 76 54 C 76 52.895004 75.105003 52 74 52 C 72.894997 52 72 52.895004 72 54 C 72 55.104996 72.894997 56 74 56"/>
    <path id="path21" fill="#ffffff" stroke="none" d="M 82 56 C 83.105003 56 84 55.104996 84 54 C 84 52.895004 83.105003 52 82 52 C 80.894997 52 80 52.895004 80 54 C 80 55.104996 80.894997 56 82 56"/>
    <path id="path22" fill="#ffffff" stroke="none" d="M 90 56 C 91.105003 56 92 55.104996 92 54 C 92 52.895004 91.105003 52 90 52 C 88.894997 52 88 52.895004 88 54 C 88 55.104996 88.894997 56 90 56"/>
    <path id="path23" fill="#ffffff" stroke="none" d="M 98 56 C 99.105003 56 100 55.104996 100 54 C 100 52.895004 99.105003 52 98 52 C 96.894997 52 96 52.895004 96 54 C 96 55.104996 96.894997 56 98 56"/>
    <path id="path24" fill="#ffffff" stroke="none" d="M 106 56 C 107.105003 56 108 55.104996 108 54 C 108 52.895004 107.105003 52 106 52 C 104.894997 52 104 52.895004 104 54 C 104 55.104996 104.894997 56 106 56"/>
    <path id="path25" fill="#ffffff" stroke="none" d="M 114 56 C 115.105003 56 116 55.104996 116 54 C 116 52.895004 115.105003 52 114 52 C 112.894997 52 112 52.895004 112 54 C 112 55.104996 112.894997 56 114 56"/>
    <path id="path26" fill="#ffffff" stroke="none" d="M 122 52 C 120.894997 52 120 52.895004 120 54 C 120 55.104996 120.894997 56 122 56 C 123.105003 56 124 55.104996 124 54 C 124 52.895004 123.105003 52 122 52"/>
    <path id="path27" fill="#ffffff" stroke="none" d="M 22 60 C 23.105 60 24 59.104996 24 58 C 24 56.895004 23.105 56 22 56 C 20.895 56 20 56.895004 20 58 C 20 59.104996 20.895 60 22 60"/>
    <path id="path28" fill="#ffffff" stroke="none" d="M 30 56 C 28.895 56 28 56.895004 28 58 C 28 59.104996 28.895 60 30 60 C 31.105 60 32 59.104996 32 58 C 32 56.895004 31.105 56 30 56"/>
    <path id="path29" fill="#ffffff" stroke="none" d="M 38 56 C 36.895 56 36 56.895004 36 58 C 36 59.104996 36.895 60 38 60 C 39.105 60 40 59.104996 40 58 C 40 56.895004 39.105 56 38 56"/>
    <path id="path30" fill="#ffffff" stroke="none" d="M 46 56 C 44.895 56 44 56.895004 44 58 C 44 59.104996 44.895 60 46 60 C 47.105 60 48 59.104996 48 58 C 48 56.895004 47.105 56 46 56"/>
    <path id="path31" fill="#ffffff" stroke="none" d="M 54 56 C 52.895 56 52 56.895004 52 58 C 52 59.104996 52.895 60 54 60 C 55.105 60 56 59.104996 56 58 C 56 56.895004 55.105 56 54 56"/>
    <path id="path32" fill="#ffffff" stroke="none" d="M 62 56 C 60.895 56 60 56.895004 60 58 C 60 59.104996 60.895 60 62 60 C 63.105 60 64 59.104996 64 58 C 64 56.895004 63.105 56 62 56"/>
    <path id="path33" fill="#ffffff" stroke="none" d="M 70 56 C 68.894997 56 68 56.895004 68 58 C 68 59.104996 68.894997 60 70 60 C 71.105003 60 72 59.104996 72 58 C 72 56.895004 71.105003 56 70 56"/>
    <path id="path34" fill="#ffffff" stroke="none" d="M 78 56 C 76.894997 56 76 56.895004 76 58 C 76 59.104996 76.894997 60 78 60 C 79.105003 60 80 59.104996 80 58 C 80 56.895004 79.105003 56 78 56"/>
    <path id="path35" fill="#ffffff" stroke="none" d="M 86 56 C 84.894997 56 84 56.895004 84 58 C 84 59.104996 84.894997 60 86 60 C 87.105003 60 88 59.104996 88 58 C 88 56.895004 87.105003 56 86 56"/>
    <path id="path36" fill="#ffffff" stroke="none" d="M 94 56 C 92.894997 56 92 56.895004 92 58 C 92 59.104996 92.894997 60 94 60 C 95.105003 60 96 59.104996 96 58 C 96 56.895004 95.105003 56 94 56"/>
    <path id="path37" fill="#ffffff" stroke="none" d="M 102 56 C 100.894997 56 100 56.895004 100 58 C 100 59.104996 100.894997 60 102 60 C 103.105003 60 104 59.104996 104 58 C 104 56.895004 103.105003 56 102 56"/>
    <path id="path38" fill="#ffffff" stroke="none" d="M 110 56 C 108.894997 56 108 56.895004 108 58 C 108 59.104996 108.894997 60 110 60 C 111.105003 60 112 59.104996 112 58 C 112 56.895004 111.105003 56 110 56"/>
    <path id="path39" fill="#ffffff" stroke="none" d="M 118 56 C 116.894997 56 116 56.895004 116 58 C 116 59.104996 116.894997 60 118 60 C 119.105003 60 120 59.104996 120 58 C 120 56.895004 119.105003 56 118 56"/>
    <path id="path40" fill="#ffffff" stroke="none" d="M 26 60 C 24.895 60 24 60.895004 24 62 C 24 63.104996 24.895 64 26 64 C 27.105 64 28 63.104996 28 62 C 28 60.895004 27.105 60 26 60"/>
    <path id="path41" fill="#ffffff" stroke="none" d="M 34 60 C 32.895 60 32 60.895004 32 62 C 32 63.104996 32.895 64 34 64 C 35.105 64 36 63.104996 36 62 C 36 60.895004 35.105 60 34 60"/>
    <path id="path42" fill="#ffffff" stroke="none" d="M 42 60 C 40.895 60 40 60.895004 40 62 C 40 63.104996 40.895 64 42 64 C 43.105 64 44 63.104996 44 62 C 44 60.895004 43.105 60 42 60"/>
    <path id="path43" fill="#ffffff" stroke="none" d="M 50 60 C 48.895 60 48 60.895004 48 62 C 48 63.104996 48.895 64 50 64 C 51.105 64 52 63.104996 52 62 C 52 60.895004 51.105 60 50 60"/>
    <path id="path44" fill="#ffffff" stroke="none" d="M 58 60 C 56.895 60 56 60.895004 56 62 C 56 63.104996 56.895 64 58 64 C 59.105 64 60 63.104996 60 62 C 60 60.895004 59.105 60 58 60"/>
    <path id="path45" fill="#ffffff" stroke="none" d="M 66 60 C 64.894997 60 64 60.895004 64 62 C 64 63.104996 64.894997 64 66 64 C 67.105003 64 68 63.104996 68 62 C 68 60.895004 67.105003 60 66 60"/>
    <path id="path46" fill="#ffffff" stroke="none" d="M 74 60 C 72.894997 60 72 60.895004 72 62 C 72 63.104996 72.894997 64 74 64 C 75.105003 64 76 63.104996 76 62 C 76 60.895004 75.105003 60 74 60"/>
    <path id="path47" fill="#ffffff" stroke="none" d="M 82 60 C 80.894997 60 80 60.895004 80 62 C 80 63.104996 80.894997 64 82 64 C 83.105003 64 84 63.104996 84 62 C 84 60.895004 83.105003 60 82 60"/>
    <path id="path48" fill="#ffffff" stroke="none" d="M 90 60 C 88.894997 60 88 60.895004 88 62 C 88 63.104996 88.894997 64 90 64 C 91.105003 64 92 63.104996 92 62 C 92 60.895004 91.105003 60 90 60"/>
    <path id="path49" fill="#ffffff" stroke="none" d="M 98 60 C 96.894997 60 96 60.895004 96 62 C 96 63.104996 96.894997 64 98 64 C 99.105003 64 100 63.104996 100 62 C 100 60.895004 99.105003 60 98 60"/>
    <path id="path50" fill="#ffffff" stroke="none" d="M 106 60 C 104.894997 60 104 60.895004 104 62 C 104 63.104996 104.894997 64 106 64 C 107.105003 64 108 63.104996 108 62 C 108 60.895004 107.105003 60 106 60"/>
    <path id="path51" fill="#ffffff" stroke="none" d="M 114 64 C 115.105003 64 116 63.104996 116 62 C 116 60.895004 115.105003 60 114 60 C 112.894997 60 112 60.895004 112 62 C 112 63.104996 112.894997 64 114 64"/>
    <path id="path52" fill="#ffffff" stroke="none" d="M 122 60 C 120.894997 60 120 60.895004 120 62 C 120 63.104996 120.894997 64 122 64 C 123.105003 64 124 63.104996 124 62 C 124 60.895004 123.105003 60 122 60"/>
    <path id="path53" fill="#ffffff" stroke="none" d="M 22 68 C 23.105 68 24 67.104996 24 66 C 24 64.895004 23.105 64 22 64 C 20.895 64 20 64.895004 20 66 C 20 67.104996 20.895 68 22 68"/>
    <path id="path54" fill="#ffffff" stroke="none" d="M 30 68 C 31.105 68 32 67.104996 32 66 C 32 64.895004 31.105 64 30 64 C 28.895 64 28 64.895004 28 66 C 28 67.104996 28.895 68 30 68"/>
    <path id="path55" fill="#ffffff" stroke="none" d="M 38 68 C 39.105 68 40 67.104996 40 66 C 40 64.895004 39.105 64 38 64 C 36.895 64 36 64.895004 36 66 C 36 67.104996 36.895 68 38 68"/>
    <path id="path56" fill="#ffffff" stroke="none" d="M 46 68 C 47.105 68 48 67.104996 48 66 C 48 64.895004 47.105 64 46 64 C 44.895 64 44 64.895004 44 66 C 44 67.104996 44.895 68 46 68"/>
    <path id="path57" fill="#ffffff" stroke="none" d="M 54 68 C 55.105 68 56 67.104996 56 66 C 56 64.895004 55.105 64 54 64 C 52.895 64 52 64.895004 52 66 C 52 67.104996 52.895 68 54 68"/>
    <path id="path58" fill="#ffffff" stroke="none" d="M 62 68 C 63.105 68 64 67.104996 64 66 C 64 64.895004 63.105 64 62 64 C 60.895 64 60 64.895004 60 66 C 60 67.104996 60.895 68 62 68"/>
    <path id="path59" fill="#ffffff" stroke="none" d="M 70 68 C 71.105003 68 72 67.104996 72 66 C 72 64.895004 71.105003 64 70 64 C 68.894997 64 68 64.895004 68 66 C 68 67.104996 68.894997 68 70 68"/>
    <path id="path60" fill="#ffffff" stroke="none" d="M 78 68 C 79.105003 68 80 67.104996 80 66 C 80 64.895004 79.105003 64 78 64 C 76.894997 64 76 64.895004 76 66 C 76 67.104996 76.894997 68 78 68"/>
    <path id="path61" fill="#ffffff" stroke="none" d="M 86 68 C 87.105003 68 88 67.104996 88 66 C 88 64.895004 87.105003 64 86 64 C 84.894997 64 84 64.895004 84 66 C 84 67.104996 84.894997 68 86 68"/>
    <path id="path62" fill="#ffffff" stroke="none" d="M 94 68 C 95.105003 68 96 67.104996 96 66 C 96 64.895004 95.105003 64 94 64 C 92.894997 64 92 64.895004 92 66 C 92 67.104996 92.894997 68 94 68"/>
    <path id="path63" fill="#ffffff" stroke="none" d="M 102 68 C 103.105003 68 104 67.104996 104 66 C 104 64.895004 103.105003 64 102 64 C 100.894997 64 100 64.895004 100 66 C 100 67.104996 100.894997 68 102 68"/>
    <path id="path64" fill="#ffffff" stroke="none" d="M 110 68 C 111.105003 68 112 67.104996 112 66 C 112 64.895004 111.105003 64 110 64 C 108.894997 64 108 64.895004 108 66 C 108 67.104996 108.894997 68 110 68"/>
    <path id="path65" fill="#ffffff" stroke="none" d="M 118 64 C 116.894997 64 116 64.895004 116 66 C 116 67.104996 116.894997 68 118 68 C 119.105003 68 120 67.104996 120 66 C 120 64.895004 119.105003 64 118 64"/>
    <path id="path66" fill="#ffffff" stroke="none" d="M 26 68 C 24.895 68 24 68.895004 24 70 C 24 71.104996 24.895 72 26 72 C 27.105 72 28 71.104996 28 70 C 28 68.895004 27.105 68 26 68"/>
    <path id="path67" fill="#ffffff" stroke="none" d="M 34 68 C 32.895 68 32 68.895004 32 70 C 32 71.104996 32.895 72 34 72 C 35.105 72 36 71.104996 36 70 C 36 68.895004 35.105 68 34 68"/>
    <path id="path68" fill="#ffffff" stroke="none" d="M 42 68 C 40.895 68 40 68.895004 40 70 C 40 71.104996 40.895 72 42 72 C 43.105 72 44 71.104996 44 70 C 44 68.895004 43.105 68 42 68"/>
    <path id="path69" fill="#ffffff" stroke="none" d="M 50 68 C 48.895 68 48 68.895004 48 70 C 48 71.104996 48.895 72 50 72 C 51.105 72 52 71.104996 52 70 C 52 68.895004 51.105 68 50 68"/>
    <path id="path70" fill="#ffffff" stroke="none" d="M 58 68 C 56.895 68 56 68.895004 56 70 C 56 71.104996 56.895 72 58 72 C 59.105 72 60 71.104996 60 70 C 60 68.895004 59.105 68 58 68"/>
    <path id="path71" fill="#ffffff" stroke="none" d="M 66 68 C 64.894997 68 64 68.895004 64 70 C 64 71.104996 64.894997 72 66 72 C 67.105003 72 68 71.104996 68 70 C 68 68.895004 67.105003 68 66 68"/>
    <path id="path72" fill="#ffffff" stroke="none" d="M 74 68 C 72.894997 68 72 68.895004 72 70 C 72 71.104996 72.894997 72 74 72 C 75.105003 72 76 71.104996 76 70 C 76 68.895004 75.105003 68 74 68"/>
    <path id="path73" fill="#ffffff" stroke="none" d="M 82 68 C 80.894997 68 80 68.895004 80 70 C 80 71.104996 80.894997 72 82 72 C 83.105003 72 84 71.104996 84 70 C 84 68.895004 83.105003 68 82 68"/>
    <path id="path74" fill="#ffffff" stroke="none" d="M 90 68 C 88.894997 68 88 68.895004 88 70 C 88 71.104996 88.894997 72 90 72 C 91.105003 72 92 71.104996 92 70 C 92 68.895004 91.105003 68 90 68"/>
    <path id="path75" fill="#ffffff" stroke="none" d="M 98 68 C 96.894997 68 96 68.895004 96 70 C 96 71.104996 96.894997 72 98 72 C 99.105003 72 100 71.104996 100 70 C 100 68.895004 99.105003 68 98 68"/>
    <path id="path76" fill="#ffffff" stroke="none" d="M 106 68 C 104.894997 68 104 68.895004 104 70 C 104 71.104996 104.894997 72 106 72 C 107.105003 72 108 71.104996 108 70 C 108 68.895004 107.105003 68 106 68"/>
    <path id="path77" fill="#ffffff" stroke="none" d="M 114 68 C 112.894997 68 112 68.895004 112 70 C 112 71.104996 112.894997 72 114 72 C 115.105003 72 116 71.104996 116 70 C 116 68.895004 115.105003 68 114 68"/>
    <path id="path78" fill="#ffffff" stroke="none" d="M 122 68 C 120.894997 68 120 68.895004 120 70 C 120 71.104996 120.894997 72 122 72 C 123.105003 72 124 71.104996 124 70 C 124 68.895004 123.105003 68 122 68"/>
    <path id="path79" fill="#ffffff" stroke="none" d="M 22 76 C 23.105 76 24 75.104996 24 74 C 24 72.895004 23.105 72 22 72 C 20.895 72 20 72.895004 20 74 C 20 75.104996 20.895 76 22 76"/>
    <path id="path80" fill="#ffffff" stroke="none" d="M 30 76 C 31.105 76 32 75.104996 32 74 C 32 72.895004 31.105 72 30 72 C 28.895 72 28 72.895004 28 74 C 28 75.104996 28.895 76 30 76"/>
    <path id="path81" fill="#ffffff" stroke="none" d="M 38 76 C 39.105 76 40 75.104996 40 74 C 40 72.895004 39.105 72 38 72 C 36.895 72 36 72.895004 36 74 C 36 75.104996 36.895 76 38 76"/>
    <path id="path82" fill="#ffffff" stroke="none" d="M 46 76 C 47.105 76 48 75.104996 48 74 C 48 72.895004 47.105 72 46 72 C 44.895 72 44 72.895004 44 74 C 44 75.104996 44.895 76 46 76"/>
    <path id="path83" fill="#ffffff" stroke="none" d="M 54 76 C 55.105 76 56 75.104996 56 74 C 56 72.895004 55.105 72 54 72 C 52.895 72 52 72.895004 52 74 C 52 75.104996 52.895 76 54 76"/>
    <path id="path84" fill="#ffffff" stroke="none" d="M 62 76 C 63.105 76 64 75.104996 64 74 C 64 72.895004 63.105 72 62 72 C 60.895 72 60 72.895004 60 74 C 60 75.104996 60.895 76 62 76"/>
    <path id="path85" fill="#ffffff" stroke="none" d="M 70 76 C 71.105003 76 72 75.104996 72 74 C 72 72.895004 71.105003 72 70 72 C 68.894997 72 68 72.895004 68 74 C 68 75.104996 68.894997 76 70 76"/>
    <path id="path86" fill="#ffffff" stroke="none" d="M 78 76 C 79.105003 76 80 75.104996 80 74 C 80 72.895004 79.105003 72 78 72 C 76.894997 72 76 72.895004 76 74 C 76 75.104996 76.894997 76 78 76"/>
    <path id="path87" fill="#ffffff" stroke="none" d="M 86 76 C 87.105003 76 88 75.104996 88 74 C 88 72.895004 87.105003 72 86 72 C 84.894997 72 84 72.895004 84 74 C 84 75.104996 84.894997 76 86 76"/>
    <path id="path88" fill="#ffffff" stroke="none" d="M 94 76 C 95.105003 76 96 75.104996 96 74 C 96 72.895004 95.105003 72 94 72 C 92.894997 72 92 72.895004 92 74 C 92 75.104996 92.894997 76 94 76"/>
    <path id="path89" fill="#ffffff" stroke="none" d="M 102 76 C 103.105003 76 104 75.104996 104 74 C 104 72.895004 103.105003 72 102 72 C 100.894997 72 100 72.895004 100 74 C 100 75.104996 100.894997 76 102 76"/>
    <path id="path90" fill="#ffffff" stroke="none" d="M 110 76 C 111.105003 76 112 75.104996 112 74 C 112 72.895004 111.105003 72 110 72 C 108.894997 72 108 72.895004 108 74 C 108 75.104996 108.894997 76 110 76"/>
    <path id="path91" fill="#ffffff" stroke="none" d="M 118 76 C 119.105003 76 120 75.104996 120 74 C 120 72.895004 119.105003 72 118 72 C 116.894997 72 116 72.895004 116 74 C 116 75.104996 116.894997 76 118 76"/>
    <path id="path92" fill="#ffffff" stroke="none" d="M 26 76 C 24.895 76 24 76.895004 24 78 C 24 79.104996 24.895 80 26 80 C 27.105 80 28 79.104996 28 78 C 28 76.895004 27.105 76 26 76"/>
    <path id="path93" fill="#ffffff" stroke="none" d="M 34 80 C 35.105 80 36 79.104996 36 78 C 36 76.895004 35.105 76 34 76 C 32.895 76 32 76.895004 32 78 C 32 79.104996 32.895 80 34 80"/>
    <path id="path94" fill="#ffffff" stroke="none" d="M 42 80 C 43.105 80 44 79.104996 44 78 C 44 76.895004 43.105 76 42 76 C 40.895 76 40 76.895004 40 78 C 40 79.104996 40.895 80 42 80"/>
    <path id="path95" fill="#ffffff" stroke="none" d="M 50 80 C 51.105 80 52 79.104996 52 78 C 52 76.895004 51.105 76 50 76 C 48.895 76 48 76.895004 48 78 C 48 79.104996 48.895 80 50 80"/>
    <path id="path96" fill="#ffffff" stroke="none" d="M 58 80 C 59.105 80 60 79.104996 60 78 C 60 76.895004 59.105 76 58 76 C 56.895 76 56 76.895004 56 78 C 56 79.104996 56.895 80 58 80"/>
    <path id="path97" fill="#ffffff" stroke="none" d="M 66 80 C 67.105003 80 68 79.104996 68 78 C 68 76.895004 67.105003 76 66 76 C 64.894997 76 64 76.895004 64 78 C 64 79.104996 64.894997 80 66 80"/>
    <path id="path98" fill="#ffffff" stroke="none" d="M 74 80 C 75.105003 80 76 79.104996 76 78 C 76 76.895004 75.105003 76 74 76 C 72.894997 76 72 76.895004 72 78 C 72 79.104996 72.894997 80 74 80"/>
    <path id="path99" fill="#ffffff" stroke="none" d="M 82 80 C 83.105003 80 84 79.104996 84 78 C 84 76.895004 83.105003 76 82 76 C 80.894997 76 80 76.895004 80 78 C 80 79.104996 80.894997 80 82 80"/>
    <path id="path100" fill="#ffffff" stroke="none" d="M 90 80 C 91.105003 80 92 79.104996 92 78 C 92 76.895004 91.105003 76 90 76 C 88.894997 76 88 76.895004 88 78 C 88 79.104996 88.894997 80 90 80"/>
    <path id="path101" fill="#ffffff" stroke="none" d="M 98 80 C 99.105003 80 100 79.104996 100 78 C 100 76.895004 99.105003 76 98 76 C 96.894997 76 96 76.895004 96 78 C 96 79.104996 96.894997 80 98 80"/>
    <path id="path102" fill="#ffffff" stroke="none" d="M 106 80 C 107.105003 80 108 79.104996 108 78 C 108 76.895004 107.105003 76 106 76 C 104.894997 76 104 76.895004 104 78 C 104 79.104996 104.894997 80 106 80"/>
    <path id="path103" fill="#ffffff" stroke="none" d="M 114 80 C 115.105003 80 116 79.104996 116 78 C 116 76.895004 115.105003 76 114 76 C 112.894997 76 112 76.895004 112 78 C 112 79.104996 112.894997 80 114 80"/>
    <path id="path104" fill="#ffffff" stroke="none" d="M 122 76 C 120.894997 76 120 76.895004 120 78 C 120 79.104996 120.894997 80 122 80 C 123.105003 80 124 79.104996 124 78 C 124 76.895004 123.105003 76 122 76"/>
    <path id="path105" fill="#ffffff" stroke="none" d="M 22 80 C 20.895 80 20 80.895004 20 82 C 20 83.104996 20.895 84 22 84 C 23.105 84 24 83.104996 24 82 C 24 80.895004 23.105 80 22 80"/>
    <path id="path106" fill="#ffffff" stroke="none" d="M 30 80 C 28.895 80 28 80.895004 28 82 C 28 83.104996 28.895 84 30 84 C 31.105 84 32 83.104996 32 82 C 32 80.895004 31.105 80 30 80"/>
    <path id="path107" fill="#ffffff" stroke="none" d="M 38 80 C 36.895 80 36 80.895004 36 82 C 36 83.104996 36.895 84 38 84 C 39.105 84 40 83.104996 40 82 C 40 80.895004 39.105 80 38 80"/>
    <path id="path108" fill="#ffffff" stroke="none" d="M 46 80 C 44.895 80 44 80.895004 44 82 C 44 83.104996 44.895 84 46 84 C 47.105 84 48 83.104996 48 82 C 48 80.895004 47.105 80 46 80"/>
    <path id="path109" fill="#ffffff" stroke="none" d="M 54 80 C 52.895 80 52 80.895004 52 82 C 52 83.104996 52.895 84 54 84 C 55.105 84 56 83.104996 56 82 C 56 80.895004 55.105 80 54 80"/>
    <path id="path110" fill="#ffffff" stroke="none" d="M 62 80 C 60.895 80 60 80.895004 60 82 C 60 83.104996 60.895 84 62 84 C 63.105 84 64 83.104996 64 82 C 64 80.895004 63.105 80 62 80"/>
    <path id="path111" fill="#ffffff" stroke="none" d="M 70 80 C 68.894997 80 68 80.895004 68 82 C 68 83.104996 68.894997 84 70 84 C 71.105003 84 72 83.104996 72 82 C 72 80.895004 71.105003 80 70 80"/>
    <path id="path112" fill="#ffffff" stroke="none" d="M 78 80 C 76.894997 80 76 80.895004 76 82 C 76 83.104996 76.894997 84 78 84 C 79.105003 84 80 83.104996 80 82 C 80 80.895004 79.105003 80 78 80"/>
    <path id="path113" fill="#ffffff" stroke="none" d="M 86 80 C 84.894997 80 84 80.895004 84 82 C 84 83.104996 84.894997 84 86 84 C 87.105003 84 88 83.104996 88 82 C 88 80.895004 87.105003 80 86 80"/>
    <path id="path114" fill="#ffffff" stroke="none" d="M 94 80 C 92.894997 80 92 80.895004 92 82 C 92 83.104996 92.894997 84 94 84 C 95.105003 84 96 83.104996 96 82 C 96 80.895004 95.105003 80 94 80"/>
    <path id="path115" fill="#ffffff" stroke="none" d="M 102 80 C 100.894997 80 100 80.895004 100 82 C 100 83.104996 100.894997 84 102 84 C 103.105003 84 104 83.104996 104 82 C 104 80.895004 103.105003 80 102 80"/>
    <path id="path116" fill="#ffffff" stroke="none" d="M 110 80 C 108.894997 80 108 80.895004 108 82 C 108 83.104996 108.894997 84 110 84 C 111.105003 84 112 83.104996 112 82 C 112 80.895004 111.105003 80 110 80"/>
    <path id="path117" fill="#ffffff" stroke="none" d="M 118 80 C 116.894997 80 116 80.895004 116 82 C 116 83.104996 116.894997 84 118 84 C 119.105003 84 120 83.104996 120 82 C 120 80.895004 119.105003 80 118 80"/>
    <path id="path118" fill="#ffffff" stroke="none" d="M 26 84 C 24.895 84 24 84.895004 24 86 C 24 87.104996 24.895 88 26 88 C 27.105 88 28 87.104996 28 86 C 28 84.895004 27.105 84 26 84"/>
    <path id="path119" fill="#ffffff" stroke="none" d="M 34 84 C 32.895 84 32 84.895004 32 86 C 32 87.104996 32.895 88 34 88 C 35.105 88 36 87.104996 36 86 C 36 84.895004 35.105 84 34 84"/>
    <path id="path120" fill="#ffffff" stroke="none" d="M 42 84 C 40.895 84 40 84.895004 40 86 C 40 87.104996 40.895 88 42 88 C 43.105 88 44 87.104996 44 86 C 44 84.895004 43.105 84 42 84"/>
    <path id="path121" fill="#ffffff" stroke="none" d="M 50 84 C 48.895 84 48 84.895004 48 86 C 48 87.104996 48.895 88 50 88 C 51.105 88 52 87.104996 52 86 C 52 84.895004 51.105 84 50 84"/>
    <path id="path122" fill="#ffffff" stroke="none" d="M 58 84 C 56.895 84 56 84.895004 56 86 C 56 87.104996 56.895 88 58 88 C 59.105 88 60 87.104996 60 86 C 60 84.895004 59.105 84 58 84"/>
    <path id="path123" fill="#ffffff" stroke="none" d="M 66 84 C 64.894997 84 64 84.895004 64 86 C 64 87.104996 64.894997 88 66 88 C 67.105003 88 68 87.104996 68 86 C 68 84.895004 67.105003 84 66 84"/>
    <path id="path124" fill="#ffffff" stroke="none" d="M 74 84 C 72.894997 84 72 84.895004 72 86 C 72 87.104996 72.894997 88 74 88 C 75.105003 88 76 87.104996 76 86 C 76 84.895004 75.105003 84 74 84"/>
    <path id="path125" fill="#ffffff" stroke="none" d="M 82 84 C 80.894997 84 80 84.895004 80 86 C 80 87.104996 80.894997 88 82 88 C 83.105003 88 84 87.104996 84 86 C 84 84.895004 83.105003 84 82 84"/>
    <path id="path126" fill="#ffffff" stroke="none" d="M 90 84 C 88.894997 84 88 84.895004 88 86 C 88 87.104996 88.894997 88 90 88 C 91.105003 88 92 87.104996 92 86 C 92 84.895004 91.105003 84 90 84"/>
    <path id="path127" fill="#ffffff" stroke="none" d="M 98 84 C 96.894997 84 96 84.895004 96 86 C 96 87.104996 96.894997 88 98 88 C 99.105003 88 100 87.104996 100 86 C 100 84.895004 99.105003 84 98 84"/>
    <path id="path128" fill="#ffffff" stroke="none" d="M 106 84 C 104.894997 84 104 84.895004 104 86 C 104 87.104996 104.894997 88 106 88 C 107.105003 88 108 87.104996 108 86 C 108 84.895004 107.105003 84 106 84"/>
    <path id="path129" fill="#ffffff" stroke="none" d="M 114 84 C 112.894997 84 112 84.895004 112 86 C 112 87.104996 112.894997 88 114 88 C 115.105003 88 116 87.104996 116 86 C 116 84.895004 115.105003 84 114 84"/>
    <path id="path130" fill="#ffffff" stroke="none" d="M 122 84 C 120.894997 84 120 84.895004 120 86 C 120 87.104996 120.894997 88 122 88 C 123.105003 88 124 87.104996 124 86 C 124 84.895004 123.105003 84 122 84"/>
    <path id="path131" fill="#ffffff" stroke="none" d="M 134 84 C 132.895004 84 132 84.895004 132 86 C 132 87.104996 132.895004 88 134 88 C 135.104996 88 136 87.104996 136 86 C 136 84.895004 135.104996 84 134 84"/>
    <path id="path132" fill="#ffffff" stroke="none" d="M 142 84 C 140.895004 84 140 84.895004 140 86 C 140 87.104996 140.895004 88 142 88 C 143.104996 88 144 87.104996 144 86 C 144 84.895004 143.104996 84 142 84"/>
    <path id="path133" fill="#ffffff" stroke="none" d="M 150 84 C 148.895004 84 148 84.895004 148 86 C 148 87.104996 148.895004 88 150 88 C 151.104996 88 152 87.104996 152 86 C 152 84.895004 151.104996 84 150 84"/>
    <path id="path134" fill="#ffffff" stroke="none" d="M 158 84 C 156.895004 84 156 84.895004 156 86 C 156 87.104996 156.895004 88 158 88 C 159.104996 88 160 87.104996 160 86 C 160 84.895004 159.104996 84 158 84"/>
    <path id="path135" fill="#ffffff" stroke="none" d="M 166 84 C 164.895004 84 164 84.895004 164 86 C 164 87.104996 164.895004 88 166 88 C 167.104996 88 168 87.104996 168 86 C 168 84.895004 167.104996 84 166 84"/>
    <path id="path136" fill="#ffffff" stroke="none" d="M 174 84 C 172.895004 84 172 84.895004 172 86 C 172 87.104996 172.895004 88 174 88 C 175.104996 88 176 87.104996 176 86 C 176 84.895004 175.104996 84 174 84"/>
    <path id="path137" fill="#ffffff" stroke="none" d="M 182 84 C 180.895004 84 180 84.895004 180 86 C 180 87.104996 180.895004 88 182 88 C 183.104996 88 184 87.104996 184 86 C 184 84.895004 183.104996 84 182 84"/>
    <path id="path138" fill="#ffffff" stroke="none" d="M 190 84 C 188.895004 84 188 84.895004 188 86 C 188 87.104996 188.895004 88 190 88 C 191.104996 88 192 87.104996 192 86 C 192 84.895004 191.104996 84 190 84"/>
    <path id="path139" fill="#ffffff" stroke="none" d="M 198 84 C 196.895004 84 196 84.895004 196 86 C 196 87.104996 196.895004 88 198 88 C 199.104996 88 200 87.104996 200 86 C 200 84.895004 199.104996 84 198 84"/>
    <path id="path140" fill="#ffffff" stroke="none" d="M 206 84 C 204.895004 84 204 84.895004 204 86 C 204 87.104996 204.895004 88 206 88 C 207.104996 88 208 87.104996 208 86 C 208 84.895004 207.104996 84 206 84"/>
    <path id="path141" fill="#ffffff" stroke="none" d="M 214 84 C 212.895004 84 212 84.895004 212 86 C 212 87.104996 212.895004 88 214 88 C 215.104996 88 216 87.104996 216 86 C 216 84.895004 215.104996 84 214 84"/>
    <path id="path142" fill="#ffffff" stroke="none" d="M 222 84 C 220.895004 84 220 84.895004 220 86 C 220 87.104996 220.895004 88 222 88 C 223.104996 88 224 87.104996 224 86 C 224 84.895004 223.104996 84 222 84"/>
    <path id="path143" fill="#ffffff" stroke="none" d="M 230 84 C 228.895004 84 228 84.895004 228 86 C 228 87.104996 228.895004 88 230 88 C 231.104996 88 232 87.104996 232 86 C 232 84.895004 231.104996 84 230 84"/>
    <path id="path144" fill="#ffffff" stroke="none" d="M 138 80 C 136.895004 80 136 80.895004 136 82 C 136 83.104996 136.895004 84 138 84 C 139.104996 84 140 83.104996 140 82 C 140 80.895004 139.104996 80 138 80"/>
    <path id="path145" fill="#ffffff" stroke="none" d="M 146 80 C 144.895004 80 144 80.895004 144 82 C 144 83.104996 144.895004 84 146 84 C 147.104996 84 148 83.104996 148 82 C 148 80.895004 147.104996 80 146 80"/>
    <path id="path146" fill="#ffffff" stroke="none" d="M 154 80 C 152.895004 80 152 80.895004 152 82 C 152 83.104996 152.895004 84 154 84 C 155.104996 84 156 83.104996 156 82 C 156 80.895004 155.104996 80 154 80"/>
    <path id="path147" fill="#ffffff" stroke="none" d="M 162 80 C 160.895004 80 160 80.895004 160 82 C 160 83.104996 160.895004 84 162 84 C 163.104996 84 164 83.104996 164 82 C 164 80.895004 163.104996 80 162 80"/>
    <path id="path148" fill="#ffffff" stroke="none" d="M 170 80 C 168.895004 80 168 80.895004 168 82 C 168 83.104996 168.895004 84 170 84 C 171.104996 84 172 83.104996 172 82 C 172 80.895004 171.104996 80 170 80"/>
    <path id="path149" fill="#ffffff" stroke="none" d="M 178 80 C 176.895004 80 176 80.895004 176 82 C 176 83.104996 176.895004 84 178 84 C 179.104996 84 180 83.104996 180 82 C 180 80.895004 179.104996 80 178 80"/>
    <path id="path150" fill="#ffffff" stroke="none" d="M 186 80 C 184.895004 80 184 80.895004 184 82 C 184 83.104996 184.895004 84 186 84 C 187.104996 84 188 83.104996 188 82 C 188 80.895004 187.104996 80 186 80"/>
    <path id="path151" fill="#ffffff" stroke="none" d="M 194 80 C 192.895004 80 192 80.895004 192 82 C 192 83.104996 192.895004 84 194 84 C 195.104996 84 196 83.104996 196 82 C 196 80.895004 195.104996 80 194 80"/>
    <path id="path152" fill="#ffffff" stroke="none" d="M 202 80 C 200.895004 80 200 80.895004 200 82 C 200 83.104996 200.895004 84 202 84 C 203.104996 84 204 83.104996 204 82 C 204 80.895004 203.104996 80 202 80"/>
    <path id="path153" fill="#ffffff" stroke="none" d="M 210 80 C 208.895004 80 208 80.895004 208 82 C 208 83.104996 208.895004 84 210 84 C 211.104996 84 212 83.104996 212 82 C 212 80.895004 211.104996 80 210 80"/>
    <path id="path154" fill="#ffffff" stroke="none" d="M 218 80 C 216.895004 80 216 80.895004 216 82 C 216 83.104996 216.895004 84 218 84 C 219.104996 84 220 83.104996 220 82 C 220 80.895004 219.104996 80 218 80"/>
    <path id="path155" fill="#ffffff" stroke="none" d="M 226 80 C 224.895004 80 224 80.895004 224 82 C 224 83.104996 224.895004 84 226 84 C 227.104996 84 228 83.104996 228 82 C 228 80.895004 227.104996 80 226 80"/>
    <path id="path156" fill="#ffffff" stroke="none" d="M 234 80 C 232.895004 80 232 80.895004 232 82 C 232 83.104996 232.895004 84 234 84 C 235.104996 84 236 83.104996 236 82 C 236 80.895004 235.104996 80 234 80"/>
    <path id="path157" fill="#ffffff" stroke="none" d="M 134 80 C 135.104996 80 136 79.104996 136 78 C 136 76.895004 135.104996 76 134 76 C 132.895004 76 132 76.895004 132 78 C 132 79.104996 132.895004 80 134 80"/>
    <path id="path158" fill="#ffffff" stroke="none" d="M 142 80 C 143.104996 80 144 79.104996 144 78 C 144 76.895004 143.104996 76 142 76 C 140.895004 76 140 76.895004 140 78 C 140 79.104996 140.895004 80 142 80"/>
    <path id="path159" fill="#ffffff" stroke="none" d="M 150 80 C 151.104996 80 152 79.104996 152 78 C 152 76.895004 151.104996 76 150 76 C 148.895004 76 148 76.895004 148 78 C 148 79.104996 148.895004 80 150 80"/>
    <path id="path160" fill="#ffffff" stroke="none" d="M 158 80 C 159.104996 80 160 79.104996 160 78 C 160 76.895004 159.104996 76 158 76 C 156.895004 76 156 76.895004 156 78 C 156 79.104996 156.895004 80 158 80"/>
    <path id="path161" fill="#ffffff" stroke="none" d="M 166 80 C 167.104996 80 168 79.104996 168 78 C 168 76.895004 167.104996 76 166 76 C 164.895004 76 164 76.895004 164 78 C 164 79.104996 164.895004 80 166 80"/>
    <path id="path162" fill="#ffffff" stroke="none" d="M 174 80 C 175.104996 80 176 79.104996 176 78 C 176 76.895004 175.104996 76 174 76 C 172.895004 76 172 76.895004 172 78 C 172 79.104996 172.895004 80 174 80"/>
    <path id="path163" fill="#ffffff" stroke="none" d="M 182 80 C 183.104996 80 184 79.104996 184 78 C 184 76.895004 183.104996 76 182 76 C 180.895004 76 180 76.895004 180 78 C 180 79.104996 180.895004 80 182 80"/>
    <path id="path164" fill="#ffffff" stroke="none" d="M 190 80 C 191.104996 80 192 79.104996 192 78 C 192 76.895004 191.104996 76 190 76 C 188.895004 76 188 76.895004 188 78 C 188 79.104996 188.895004 80 190 80"/>
    <path id="path165" fill="#ffffff" stroke="none" d="M 198 80 C 199.104996 80 200 79.104996 200 78 C 200 76.895004 199.104996 76 198 76 C 196.895004 76 196 76.895004 196 78 C 196 79.104996 196.895004 80 198 80"/>
    <path id="path166" fill="#ffffff" stroke="none" d="M 206 80 C 207.104996 80 208 79.104996 208 78 C 208 76.895004 207.104996 76 206 76 C 204.895004 76 204 76.895004 204 78 C 204 79.104996 204.895004 80 206 80"/>
    <path id="path167" fill="#ffffff" stroke="none" d="M 214 80 C 215.104996 80 216 79.104996 216 78 C 216 76.895004 215.104996 76 214 76 C 212.895004 76 212 76.895004 212 78 C 212 79.104996 212.895004 80 214 80"/>
    <path id="path168" fill="#ffffff" stroke="none" d="M 222 80 C 223.104996 80 224 79.104996 224 78 C 224 76.895004 223.104996 76 222 76 C 220.895004 76 220 76.895004 220 78 C 220 79.104996 220.895004 80 222 80"/>
    <path id="path169" fill="#ffffff" stroke="none" d="M 230 80 C 231.104996 80 232 79.104996 232 78 C 232 76.895004 231.104996 76 230 76 C 228.895004 76 228 76.895004 228 78 C 228 79.104996 228.895004 80 230 80"/>
    <path id="path170" fill="#ffffff" stroke="none" d="M 138 76 C 139.104996 76 140 75.104996 140 74 C 140 72.895004 139.104996 72 138 72 C 136.895004 72 136 72.895004 136 74 C 136 75.104996 136.895004 76 138 76"/>
    <path id="path171" fill="#ffffff" stroke="none" d="M 146 76 C 147.104996 76 148 75.104996 148 74 C 148 72.895004 147.104996 72 146 72 C 144.895004 72 144 72.895004 144 74 C 144 75.104996 144.895004 76 146 76"/>
    <path id="path172" fill="#ffffff" stroke="none" d="M 154 76 C 155.104996 76 156 75.104996 156 74 C 156 72.895004 155.104996 72 154 72 C 152.895004 72 152 72.895004 152 74 C 152 75.104996 152.895004 76 154 76"/>
    <path id="path173" fill="#ffffff" stroke="none" d="M 162 76 C 163.104996 76 164 75.104996 164 74 C 164 72.895004 163.104996 72 162 72 C 160.895004 72 160 72.895004 160 74 C 160 75.104996 160.895004 76 162 76"/>
    <path id="path174" fill="#ffffff" stroke="none" d="M 170 76 C 171.104996 76 172 75.104996 172 74 C 172 72.895004 171.104996 72 170 72 C 168.895004 72 168 72.895004 168 74 C 168 75.104996 168.895004 76 170 76"/>
    <path id="path175" fill="#ffffff" stroke="none" d="M 178 76 C 179.104996 76 180 75.104996 180 74 C 180 72.895004 179.104996 72 178 72 C 176.895004 72 176 72.895004 176 74 C 176 75.104996 176.895004 76 178 76"/>
    <path id="path176" fill="#ffffff" stroke="none" d="M 186 76 C 187.104996 76 188 75.104996 188 74 C 188 72.895004 187.104996 72 186 72 C 184.895004 72 184 72.895004 184 74 C 184 75.104996 184.895004 76 186 76"/>
    <path id="path177" fill="#ffffff" stroke="none" d="M 194 76 C 195.104996 76 196 75.104996 196 74 C 196 72.895004 195.104996 72 194 72 C 192.895004 72 192 72.895004 192 74 C 192 75.104996 192.895004 76 194 76"/>
    <path id="path178" fill="#ffffff" stroke="none" d="M 202 76 C 203.104996 76 204 75.104996 204 74 C 204 72.895004 203.104996 72 202 72 C 200.895004 72 200 72.895004 200 74 C 200 75.104996 200.895004 76 202 76"/>
    <path id="path179" fill="#ffffff" stroke="none" d="M 210 76 C 211.104996 76 212 75.104996 212 74 C 212 72.895004 211.104996 72 210 72 C 208.895004 72 208 72.895004 208 74 C 208 75.104996 208.895004 76 210 76"/>
    <path id="path180" fill="#ffffff" stroke="none" d="M 218 76 C 219.104996 76 220 75.104996 220 74 C 220 72.895004 219.104996 72 218 72 C 216.895004 72 216 72.895004 216 74 C 216 75.104996 216.895004 76 218 76"/>
    <path id="path181" fill="#ffffff" stroke="none" d="M 226 76 C 227.104996 76 228 75.104996 228 74 C 228 72.895004 227.104996 72 226 72 C 224.895004 72 224 72.895004 224 74 C 224 75.104996 224.895004 76 226 76"/>
    <path id="path182" fill="#ffffff" stroke="none" d="M 234 72 C 232.895004 72 232 72.895004 232 74 C 232 75.104996 232.895004 76 234 76 C 235.104996 76 236 75.104996 236 74 C 236 72.895004 235.104996 72 234 72"/>
    <path id="path183" fill="#ffffff" stroke="none" d="M 134 72 C 135.104996 72 136 71.104996 136 70 C 136 68.895004 135.104996 68 134 68 C 132.895004 68 132 68.895004 132 70 C 132 71.104996 132.895004 72 134 72"/>
    <path id="path184" fill="#ffffff" stroke="none" d="M 142 68 C 140.895004 68 140 68.895004 140 70 C 140 71.104996 140.895004 72 142 72 C 143.104996 72 144 71.104996 144 70 C 144 68.895004 143.104996 68 142 68"/>
    <path id="path185" fill="#ffffff" stroke="none" d="M 150 68 C 148.895004 68 148 68.895004 148 70 C 148 71.104996 148.895004 72 150 72 C 151.104996 72 152 71.104996 152 70 C 152 68.895004 151.104996 68 150 68"/>
    <path id="path186" fill="#ffffff" stroke="none" d="M 158 68 C 156.895004 68 156 68.895004 156 70 C 156 71.104996 156.895004 72 158 72 C 159.104996 72 160 71.104996 160 70 C 160 68.895004 159.104996 68 158 68"/>
    <path id="path187" fill="#ffffff" stroke="none" d="M 166 68 C 164.895004 68 164 68.895004 164 70 C 164 71.104996 164.895004 72 166 72 C 167.104996 72 168 71.104996 168 70 C 168 68.895004 167.104996 68 166 68"/>
    <path id="path188" fill="#ffffff" stroke="none" d="M 174 68 C 172.895004 68 172 68.895004 172 70 C 172 71.104996 172.895004 72 174 72 C 175.104996 72 176 71.104996 176 70 C 176 68.895004 175.104996 68 174 68"/>
    <path id="path189" fill="#ffffff" stroke="none" d="M 182 68 C 180.895004 68 180 68.895004 180 70 C 180 71.104996 180.895004 72 182 72 C 183.104996 72 184 71.104996 184 70 C 184 68.895004 183.104996 68 182 68"/>
    <path id="path190" fill="#ffffff" stroke="none" d="M 190 68 C 188.895004 68 188 68.895004 188 70 C 188 71.104996 188.895004 72 190 72 C 191.104996 72 192 71.104996 192 70 C 192 68.895004 191.104996 68 190 68"/>
    <path id="path191" fill="#ffffff" stroke="none" d="M 198 68 C 196.895004 68 196 68.895004 196 70 C 196 71.104996 196.895004 72 198 72 C 199.104996 72 200 71.104996 200 70 C 200 68.895004 199.104996 68 198 68"/>
    <path id="path192" fill="#ffffff" stroke="none" d="M 206 68 C 204.895004 68 204 68.895004 204 70 C 204 71.104996 204.895004 72 206 72 C 207.104996 72 208 71.104996 208 70 C 208 68.895004 207.104996 68 206 68"/>
    <path id="path193" fill="#ffffff" stroke="none" d="M 214 68 C 212.895004 68 212 68.895004 212 70 C 212 71.104996 212.895004 72 214 72 C 215.104996 72 216 71.104996 216 70 C 216 68.895004 215.104996 68 214 68"/>
    <path id="path194" fill="#ffffff" stroke="none" d="M 222 68 C 220.895004 68 220 68.895004 220 70 C 220 71.104996 220.895004 72 222 72 C 223.104996 72 224 71.104996 224 70 C 224 68.895004 223.104996 68 222 68"/>
    <path id="path195" fill="#ffffff" stroke="none" d="M 230 68 C 228.895004 68 228 68.895004 228 70 C 228 71.104996 228.895004 72 230 72 C 231.104996 72 232 71.104996 232 70 C 232 68.895004 231.104996 68 230 68"/>
    <path id="path196" fill="#ffffff" stroke="none" d="M 138 68 C 139.104996 68 140 67.104996 140 66 C 140 64.895004 139.104996 64 138 64 C 136.895004 64 136 64.895004 136 66 C 136 67.104996 136.895004 68 138 68"/>
    <path id="path197" fill="#ffffff" stroke="none" d="M 146 68 C 147.104996 68 148 67.104996 148 66 C 148 64.895004 147.104996 64 146 64 C 144.895004 64 144 64.895004 144 66 C 144 67.104996 144.895004 68 146 68"/>
    <path id="path198" fill="#ffffff" stroke="none" d="M 154 68 C 155.104996 68 156 67.104996 156 66 C 156 64.895004 155.104996 64 154 64 C 152.895004 64 152 64.895004 152 66 C 152 67.104996 152.895004 68 154 68"/>
    <path id="path199" fill="#ffffff" stroke="none" d="M 162 68 C 163.104996 68 164 67.104996 164 66 C 164 64.895004 163.104996 64 162 64 C 160.895004 64 160 64.895004 160 66 C 160 67.104996 160.895004 68 162 68"/>
    <path id="path200" fill="#ffffff" stroke="none" d="M 170 68 C 171.104996 68 172 67.104996 172 66 C 172 64.895004 171.104996 64 170 64 C 168.895004 64 168 64.895004 168 66 C 168 67.104996 168.895004 68 170 68"/>
    <path id="path201" fill="#ffffff" stroke="none" d="M 178 68 C 179.104996 68 180 67.104996 180 66 C 180 64.895004 179.104996 64 178 64 C 176.895004 64 176 64.895004 176 66 C 176 67.104996 176.895004 68 178 68"/>
    <path id="path202" fill="#ffffff" stroke="none" d="M 186 68 C 187.104996 68 188 67.104996 188 66 C 188 64.895004 187.104996 64 186 64 C 184.895004 64 184 64.895004 184 66 C 184 67.104996 184.895004 68 186 68"/>
    <path id="path203" fill="#ffffff" stroke="none" d="M 194 68 C 195.104996 68 196 67.104996 196 66 C 196 64.895004 195.104996 64 194 64 C 192.895004 64 192 64.895004 192 66 C 192 67.104996 192.895004 68 194 68"/>
    <path id="path204" fill="#ffffff" stroke="none" d="M 202 68 C 203.104996 68 204 67.104996 204 66 C 204 64.895004 203.104996 64 202 64 C 200.895004 64 200 64.895004 200 66 C 200 67.104996 200.895004 68 202 68"/>
    <path id="path205" fill="#ffffff" stroke="none" d="M 210 68 C 211.104996 68 212 67.104996 212 66 C 212 64.895004 211.104996 64 210 64 C 208.895004 64 208 64.895004 208 66 C 208 67.104996 208.895004 68 210 68"/>
    <path id="path206" fill="#ffffff" stroke="none" d="M 218 68 C 219.104996 68 220 67.104996 220 66 C 220 64.895004 219.104996 64 218 64 C 216.895004 64 216 64.895004 216 66 C 216 67.104996 216.895004 68 218 68"/>
    <path id="path207" fill="#ffffff" stroke="none" d="M 226 68 C 227.104996 68 228 67.104996 228 66 C 228 64.895004 227.104996 64 226 64 C 224.895004 64 224 64.895004 224 66 C 224 67.104996 224.895004 68 226 68"/>
    <path id="path208" fill="#ffffff" stroke="none" d="M 234 64 C 232.895004 64 232 64.895004 232 66 C 232 67.104996 232.895004 68 234 68 C 235.104996 68 236 67.104996 236 66 C 236 64.895004 235.104996 64 234 64"/>
    <path id="path209" fill="#ffffff" stroke="none" d="M 134 64 C 135.104996 64 136 63.104996 136 62 C 136 60.895004 135.104996 60 134 60 C 132.895004 60 132 60.895004 132 62 C 132 63.104996 132.895004 64 134 64"/>
    <path id="path210" fill="#ffffff" stroke="none" d="M 142 60 C 140.895004 60 140 60.895004 140 62 C 140 63.104996 140.895004 64 142 64 C 143.104996 64 144 63.104996 144 62 C 144 60.895004 143.104996 60 142 60"/>
    <path id="path211" fill="#ffffff" stroke="none" d="M 150 60 C 148.895004 60 148 60.895004 148 62 C 148 63.104996 148.895004 64 150 64 C 151.104996 64 152 63.104996 152 62 C 152 60.895004 151.104996 60 150 60"/>
    <path id="path212" fill="#ffffff" stroke="none" d="M 158 60 C 156.895004 60 156 60.895004 156 62 C 156 63.104996 156.895004 64 158 64 C 159.104996 64 160 63.104996 160 62 C 160 60.895004 159.104996 60 158 60"/>
    <path id="path213" fill="#ffffff" stroke="none" d="M 166 60 C 164.895004 60 164 60.895004 164 62 C 164 63.104996 164.895004 64 166 64 C 167.104996 64 168 63.104996 168 62 C 168 60.895004 167.104996 60 166 60"/>
    <path id="path214" fill="#ffffff" stroke="none" d="M 174 60 C 172.895004 60 172 60.895004 172 62 C 172 63.104996 172.895004 64 174 64 C 175.104996 64 176 63.104996 176 62 C 176 60.895004 175.104996 60 174 60"/>
    <path id="path215" fill="#ffffff" stroke="none" d="M 182 60 C 180.895004 60 180 60.895004 180 62 C 180 63.104996 180.895004 64 182 64 C 183.104996 64 184 63.104996 184 62 C 184 60.895004 183.104996 60 182 60"/>
    <path id="path216" fill="#ffffff" stroke="none" d="M 190 60 C 188.895004 60 188 60.895004 188 62 C 188 63.104996 188.895004 64 190 64 C 191.104996 64 192 63.104996 192 62 C 192 60.895004 191.104996 60 190 60"/>
    <path id="path217" fill="#ffffff" stroke="none" d="M 198 60 C 196.895004 60 196 60.895004 196 62 C 196 63.104996 196.895004 64 198 64 C 199.104996 64 200 63.104996 200 62 C 200 60.895004 199.104996 60 198 60"/>
    <path id="path218" fill="#ffffff" stroke="none" d="M 206 60 C 204.895004 60 204 60.895004 204 62 C 204 63.104996 204.895004 64 206 64 C 207.104996 64 208 63.104996 208 62 C 208 60.895004 207.104996 60 206 60"/>
    <path id="path219" fill="#ffffff" stroke="none" d="M 214 60 C 212.895004 60 212 60.895004 212 62 C 212 63.104996 212.895004 64 214 64 C 215.104996 64 216 63.104996 216 62 C 216 60.895004 215.104996 60 214 60"/>
    <path id="path220" fill="#ffffff" stroke="none" d="M 222 60 C 220.895004 60 220 60.895004 220 62 C 220 63.104996 220.895004 64 222 64 C 223.104996 64 224 63.104996 224 62 C 224 60.895004 223.104996 60 222 60"/>
    <path id="path221" fill="#ffffff" stroke="none" d="M 230 60 C 228.895004 60 228 60.895004 228 62 C 228 63.104996 228.895004 64 230 64 C 231.104996 64 232 63.104996 232 62 C 232 60.895004 231.104996 60 230 60"/>
    <path id="path222" fill="#ffffff" stroke="none" d="M 138 56 C 136.895004 56 136 56.895004 136 58 C 136 59.104996 136.895004 60 138 60 C 139.104996 60 140 59.104996 140 58 C 140 56.895004 139.104996 56 138 56"/>
    <path id="path223" fill="#ffffff" stroke="none" d="M 146 56 C 144.895004 56 144 56.895004 144 58 C 144 59.104996 144.895004 60 146 60 C 147.104996 60 148 59.104996 148 58 C 148 56.895004 147.104996 56 146 56"/>
    <path id="path224" fill="#ffffff" stroke="none" d="M 154 56 C 152.895004 56 152 56.895004 152 58 C 152 59.104996 152.895004 60 154 60 C 155.104996 60 156 59.104996 156 58 C 156 56.895004 155.104996 56 154 56"/>
    <path id="path225" fill="#ffffff" stroke="none" d="M 162 56 C 160.895004 56 160 56.895004 160 58 C 160 59.104996 160.895004 60 162 60 C 163.104996 60 164 59.104996 164 58 C 164 56.895004 163.104996 56 162 56"/>
    <path id="path226" fill="#ffffff" stroke="none" d="M 170 56 C 168.895004 56 168 56.895004 168 58 C 168 59.104996 168.895004 60 170 60 C 171.104996 60 172 59.104996 172 58 C 172 56.895004 171.104996 56 170 56"/>
    <path id="path227" fill="#ffffff" stroke="none" d="M 178 56 C 176.895004 56 176 56.895004 176 58 C 176 59.104996 176.895004 60 178 60 C 179.104996 60 180 59.104996 180 58 C 180 56.895004 179.104996 56 178 56"/>
    <path id="path228" fill="#ffffff" stroke="none" d="M 186 56 C 184.895004 56 184 56.895004 184 58 C 184 59.104996 184.895004 60 186 60 C 187.104996 60 188 59.104996 188 58 C 188 56.895004 187.104996 56 186 56"/>
    <path id="path229" fill="#ffffff" stroke="none" d="M 194 56 C 192.895004 56 192 56.895004 192 58 C 192 59.104996 192.895004 60 194 60 C 195.104996 60 196 59.104996 196 58 C 196 56.895004 195.104996 56 194 56"/>
    <path id="path230" fill="#ffffff" stroke="none" d="M 202 56 C 200.895004 56 200 56.895004 200 58 C 200 59.104996 200.895004 60 202 60 C 203.104996 60 204 59.104996 204 58 C 204 56.895004 203.104996 56 202 56"/>
    <path id="path231" fill="#ffffff" stroke="none" d="M 210 56 C 208.895004 56 208 56.895004 208 58 C 208 59.104996 208.895004 60 210 60 C 211.104996 60 212 59.104996 212 58 C 212 56.895004 211.104996 56 210 56"/>
    <path id="path232" fill="#ffffff" stroke="none" d="M 218 56 C 216.895004 56 216 56.895004 216 58 C 216 59.104996 216.895004 60 218 60 C 219.104996 60 220 59.104996 220 58 C 220 56.895004 219.104996 56 218 56"/>
    <path id="path233" fill="#ffffff" stroke="none" d="M 226 60 C 227.104996 60 228 59.104996 228 58 C 228 56.895004 227.104996 56 226 56 C 224.895004 56 224 56.895004 224 58 C 224 59.104996 224.895004 60 226 60"/>
    <path id="path234" fill="#ffffff" stroke="none" d="M 234 56 C 232.895004 56 232 56.895004 232 58 C 232 59.104996 232.895004 60 234 60 C 235.104996 60 236 59.104996 236 58 C 236 56.895004 235.104996 56 234 56"/>
    <path id="path235" fill="#ffffff" stroke="none" d="M 134 56 C 135.104996 56 136 55.104996 136 54 C 136 52.895004 135.104996 52 134 52 C 132.895004 52 132 52.895004 132 54 C 132 55.104996 132.895004 56 134 56"/>
    <path id="path236" fill="#ffffff" stroke="none" d="M 142 56 C 143.104996 56 144 55.104996 144 54 C 144 52.895004 143.104996 52 142 52 C 140.895004 52 140 52.895004 140 54 C 140 55.104996 140.895004 56 142 56"/>
    <path id="path237" fill="#ffffff" stroke="none" d="M 150 56 C 151.104996 56 152 55.104996 152 54 C 152 52.895004 151.104996 52 150 52 C 148.895004 52 148 52.895004 148 54 C 148 55.104996 148.895004 56 150 56"/>
    <path id="path238" fill="#ffffff" stroke="none" d="M 158 56 C 159.104996 56 160 55.104996 160 54 C 160 52.895004 159.104996 52 158 52 C 156.895004 52 156 52.895004 156 54 C 156 55.104996 156.895004 56 158 56"/>
    <path id="path239" fill="#ffffff" stroke="none" d="M 166 56 C 167.104996 56 168 55.104996 168 54 C 168 52.895004 167.104996 52 166 52 C 164.895004 52 164 52.895004 164 54 C 164 55.104996 164.895004 56 166 56"/>
    <path id="path240" fill="#ffffff" stroke="none" d="M 174 56 C 175.104996 56 176 55.104996 176 54 C 176 52.895004 175.104996 52 174 52 C 172.895004 52 172 52.895004 172 54 C 172 55.104996 172.895004 56 174 56"/>
    <path id="path241" fill="#ffffff" stroke="none" d="M 182 56 C 183.104996 56 184 55.104996 184 54 C 184 52.895004 183.104996 52 182 52 C 180.895004 52 180 52.895004 180 54 C 180 55.104996 180.895004 56 182 56"/>
    <path id="path242" fill="#ffffff" stroke="none" d="M 190 56 C 191.104996 56 192 55.104996 192 54 C 192 52.895004 191.104996 52 190 52 C 188.895004 52 188 52.895004 188 54 C 188 55.104996 188.895004 56 190 56"/>
    <path id="path243" fill="#ffffff" stroke="none" d="M 198 56 C 199.104996 56 200 55.104996 200 54 C 200 52.895004 199.104996 52 198 52 C 196.895004 52 196 52.895004 196 54 C 196 55.104996 196.895004 56 198 56"/>
    <path id="path244" fill="#ffffff" stroke="none" d="M 206 56 C 207.104996 56 208 55.104996 208 54 C 208 52.895004 207.104996 52 206 52 C 204.895004 52 204 52.895004 204 54 C 204 55.104996 204.895004 56 206 56"/>
    <path id="path245" fill="#ffffff" stroke="none" d="M 214 56 C 215.104996 56 216 55.104996 216 54 C 216 52.895004 215.104996 52 214 52 C 212.895004 52 212 52.895004 212 54 C 212 55.104996 212.895004 56 214 56"/>
    <path id="path246" fill="#ffffff" stroke="none" d="M 222 56 C 223.104996 56 224 55.104996 224 54 C 224 52.895004 223.104996 52 222 52 C 220.895004 52 220 52.895004 220 54 C 220 55.104996 220.895004 56 222 56"/>
    <path id="path247" fill="#ffffff" stroke="none" d="M 230 56 C 231.104996 56 232 55.104996 232 54 C 232 52.895004 231.104996 52 230 52 C 228.895004 52 228 52.895004 228 54 C 228 55.104996 228.895004 56 230 56"/>
    <path id="path248" fill="#ffffff" stroke="none" d="M 138 52 C 139.104996 52 140 51.104996 140 50 C 140 48.895004 139.104996 48 138 48 C 136.895004 48 136 48.895004 136 50 C 136 51.104996 136.895004 52 138 52"/>
    <path id="path249" fill="#ffffff" stroke="none" d="M 146 52 C 147.104996 52 148 51.104996 148 50 C 148 48.895004 147.104996 48 146 48 C 144.895004 48 144 48.895004 144 50 C 144 51.104996 144.895004 52 146 52"/>
    <path id="path250" fill="#ffffff" stroke="none" d="M 154 52 C 155.104996 52 156 51.104996 156 50 C 156 48.895004 155.104996 48 154 48 C 152.895004 48 152 48.895004 152 50 C 152 51.104996 152.895004 52 154 52"/>
    <path id="path251" fill="#ffffff" stroke="none" d="M 162 52 C 163.104996 52 164 51.104996 164 50 C 164 48.895004 163.104996 48 162 48 C 160.895004 48 160 48.895004 160 50 C 160 51.104996 160.895004 52 162 52"/>
    <path id="path252" fill="#ffffff" stroke="none" d="M 170 52 C 171.104996 52 172 51.104996 172 50 C 172 48.895004 171.104996 48 170 48 C 168.895004 48 168 48.895004 168 50 C 168 51.104996 168.895004 52 170 52"/>
    <path id="path253" fill="#ffffff" stroke="none" d="M 178 52 C 179.104996 52 180 51.104996 180 50 C 180 48.895004 179.104996 48 178 48 C 176.895004 48 176 48.895004 176 50 C 176 51.104996 176.895004 52 178 52"/>
    <path id="path254" fill="#ffffff" stroke="none" d="M 186 52 C 187.104996 52 188 51.104996 188 50 C 188 48.895004 187.104996 48 186 48 C 184.895004 48 184 48.895004 184 50 C 184 51.104996 184.895004 52 186 52"/>
    <path id="path255" fill="#ffffff" stroke="none" d="M 194 52 C 195.104996 52 196 51.104996 196 50 C 196 48.895004 195.104996 48 194 48 C 192.895004 48 192 48.895004 192 50 C 192 51.104996 192.895004 52 194 52"/>
    <path id="path256" fill="#ffffff" stroke="none" d="M 202 52 C 203.104996 52 204 51.104996 204 50 C 204 48.895004 203.104996 48 202 48 C 200.895004 48 200 48.895004 200 50 C 200 51.104996 200.895004 52 202 52"/>
    <path id="path257" fill="#ffffff" stroke="none" d="M 210 52 C 211.104996 52 212 51.104996 212 50 C 212 48.895004 211.104996 48 210 48 C 208.895004 48 208 48.895004 208 50 C 208 51.104996 208.895004 52 210 52"/>
    <path id="path258" fill="#ffffff" stroke="none" d="M 218 52 C 219.104996 52 220 51.104996 220 50 C 220 48.895004 219.104996 48 218 48 C 216.895004 48 216 48.895004 216 50 C 216 51.104996 216.895004 52 218 52"/>
    <path id="path259" fill="#ffffff" stroke="none" d="M 226 52 C 227.104996 52 228 51.104996 228 50 C 228 48.895004 227.104996 48 226 48 C 224.895004 48 224 48.895004 224 50 C 224 51.104996 224.895004 52 226 52"/>
    <path id="path260" fill="#ffffff" stroke="none" d="M 234 48 C 232.895004 48 232 48.895004 232 50 C 232 51.104996 232.895004 52 234 52 C 235.104996 52 236 51.104996 236 50 C 236 48.895004 235.104996 48 234 48"/>
</svg>
