<?xml version="1.0" encoding="UTF-8"?>
<!-- Generated by Pixelmator Pro 3.7.1 -->
<svg width="256" height="256" viewBox="0 0 256 256" xmlns="http://www.w3.org/2000/svg">
    <path id="Path" fill="#ffffff" stroke="none" d="M 240 120 C 240 131.04599 231.046005 140 220 140 C 208.953995 140 200 131.04599 200 120 C 200 108.953995 208.953995 100 220 100 C 231.046005 100 240 108.953995 240 120 M 52 162 C 52 165.313004 49.313004 168 46 168 C 42.686996 168 40 165.313004 40 162 C 40 158.686996 42.686996 156 46 156 C 49.313004 156 52 158.686996 52 162 M 46 152 C 42.686996 152 40 149.313004 40 146 C 40 142.686996 42.686996 140 46 140 C 49.313004 140 52 142.686996 52 146 C 52 149.313004 49.313004 152 46 152 M 48 120 C 48 128.835999 40.835999 138 32 138 C 23.164001 138 16 128.835999 16 120 C 16 111.164001 23.164001 102 32 102 C 40.835999 102 48 111.164001 48 120 M 40 94 C 40 90.686996 42.686996 88 46 88 C 49.313004 88 52 90.686996 52 94 C 52 97.313004 49.313004 100 46 100 C 42.686996 100 40 97.313004 40 94 M 199.93399 190.246002 C 199.93399 190.246002 189.270996 192 177.423004 192 C 171.5 192 165.278992 191.561996 159.947998 190.246002 C 144.393997 186.406998 128.843002 186.302002 128 186.299011 C 127.156998 186.302002 111.606995 186.406998 96.052002 190.246002 C 90.720001 191.561996 84.501007 192 78.576996 192 C 66.729996 192 56.065994 190.246002 56.065994 190.246002 C 12.354996 179.459 11.781998 129.376999 12.026001 120.542999 C 12.162003 125.641998 14.179993 130.847992 17.643005 134.908997 C 21.542007 139.481003 26.641006 142 32 142 C 33.792007 142 35.552994 141.712006 37.251999 141.166 C 36.457001 142.600998 36 144.247009 36 146 C 36 149.27301 37.587006 152.175003 40.024994 154 C 37.587006 155.824997 36 158.727005 36 162 C 36 167.514008 40.485992 172 46 172 C 51.514008 172 56 167.514008 56 162 C 56 158.727005 54.412994 155.824997 51.975006 154 C 54.412994 152.175003 56 149.27301 56 146 C 56 140.485992 51.514008 136 46 136 C 45.772003 136 45.548996 136.020004 45.324997 136.033997 C 45.677002 135.673004 46.022995 135.300995 46.356995 134.908997 C 49.942993 130.70401 52 125.270004 52 120 C 52 114.729996 49.942993 109.296005 46.356995 105.091003 C 46.022995 104.699005 45.677002 104.328003 45.324997 103.966003 C 45.548996 103.981003 45.772003 104 46 104 C 51.514008 104 56 99.514008 56 94 C 56 88.485992 51.514008 84 46 84 C 40.485992 84 36 88.485992 36 94 C 36 95.753006 36.457001 97.399002 37.251999 98.833008 C 35.552994 98.287994 33.792007 98 32 98 C 26.641006 98 21.542007 100.518005 17.643005 105.091003 C 14.968994 108.225998 13.147995 112.044998 12.393997 115.968994 C 17.789993 67.56601 56.408997 60 72.061005 60 C 88.054993 60 116.044998 63.946991 116.044998 63.946991 L 127.959 63.946991 L 128.041 63.946991 L 139.955002 63.946991 C 139.955002 63.946991 167.945007 60 183.938995 60 C 199.509995 60 237.809998 67.487 243.520004 115.216003 C 241.296005 104.266998 231.595993 96 220 96 C 206.766998 96 196 106.766998 196 120 C 196 133.233002 206.766998 144 220 144 C 232.970993 144 243.563004 133.656006 243.979996 120.785004 C 244.205002 130.257996 243.257996 179.554993 199.93399 190.246002 M 64.281006 195.286011 L 60.326996 195.945007 C 60.108994 195.981003 59.889008 196 59.669006 196 L 50 196 C 48.895996 196 48 195.104004 48 194 L 48 191.908997 C 48 191.908997 48 191.908997 48 191.90799 C 50.285004 192.77301 52.649002 193.522003 55.108002 194.128998 L 55.261002 194.166992 L 55.417007 194.192001 C 55.669006 194.234009 59.149002 194.800003 64.285004 195.287003 C 64.283997 195.287003 64.281998 195.287003 64.281006 195.286011 M 247.908997 118.932999 C 246.074997 95.391998 236.906998 77.945999 220.656006 67.039001 C 205.395996 56.796005 188.694 56 183.938995 56 C 168.52301 56 142.817001 59.509995 139.677002 59.946991 L 128.041 59.946991 L 127.959 59.946991 L 116.323997 59.946991 C 113.182999 59.509995 87.477005 56 72.061005 56 C 67.304993 56 50.604004 56.796005 35.343002 67.039001 C 19.093002 77.945999 9.925003 95.391998 8.093994 118.891998 C 8.048004 119.567001 7.100998 134.664001 12.255997 151.458008 C 18.270996 171.052002 30.132996 184.70401 46.787003 191.429001 C 45.843994 191.052002 44.910004 190.662003 44 190.238007 L 44 194 C 44 197.30899 46.690994 200 50 200 L 59.669006 200 C 60.108002 200 60.550995 199.962997 60.983994 199.890991 L 84.658005 195.945007 L 85.735001 195.765991 C 85.733994 195.765991 85.733002 195.765991 85.731995 195.766998 C 89.953995 195.481003 93.735001 194.938004 97.009995 194.128998 C 112.135002 190.397003 127.373001 190.302002 128.014008 190.299011 C 128.626999 190.302002 143.86499 190.397003 158.988998 194.128998 C 164.019989 195.371002 170.222 196 177.423004 196 C 189.459991 196 200.134995 194.266998 200.583008 194.192001 L 200.738998 194.166992 L 200.893005 194.128998 C 221.951004 188.932999 236.768997 174.178009 243.744003 151.458008 C 248.899002 134.664001 247.951996 119.567001 247.908997 118.932999"/>
    <path id="path1" fill="#ffffff" stroke="none" d="M 122 72 L 134 72 C 135.100006 72 136 71.100006 136 70 C 136 68.899994 135.100006 68 134 68 L 122 68 C 120.900002 68 120 68.899994 120 70 C 120 71.100006 120.900002 72 122 72"/>
    <path id="path2" fill="#ffffff" stroke="none" d="M 192 172 L 64 172 L 64 84 L 192 84 Z M 192 80 L 64 80 C 61.791 80 60 81.791 60 84 L 60 172 C 60 174.209 61.791 176 64 176 L 192 176 C 194.209 176 196 174.209 196 172 L 196 120 L 196 84 C 196 81.791 194.209 80 192 80"/>
    <path id="path3" fill="#ffffff" stroke="none" d="M 40 120 C 40 124.410995 36.410999 128 32 128 C 27.589001 128 24 124.410995 24 120 C 24 115.589005 27.589001 112 32 112 C 36.410999 112 40 115.589005 40 120 M 20 120 C 20 126.626999 25.373001 132 32 132 C 38.626999 132 44 126.626999 44 120 C 44 113.373001 38.626999 108 32 108 C 25.373001 108 20 113.373001 20 120"/>
    <path id="path4" fill="#ffffff" stroke="none" d="M 211.532196 121.414093 L 208.779205 124.166107 C 207.786194 121.483093 207.786194 118.517105 208.779205 115.833099 L 211.532196 118.586105 C 212.311203 119.366104 212.311203 120.634094 211.532196 121.414093 M 214.360199 115.757095 L 209.658203 111.055099 C 209.262207 110.659103 208.750198 110.468094 208.241196 110.468094 C 207.588196 110.468094 206.939194 110.784103 206.5522 111.389099 C 203.195206 116.623093 203.195206 123.376099 206.5522 128.611099 C 206.939194 129.216095 207.588196 129.532104 208.241196 129.532104 C 208.750198 129.532104 209.262207 129.341095 209.658203 128.945099 L 214.360199 124.243103 C 216.703201 121.899094 216.703201 118.101105 214.360199 115.757095"/>
    <path id="path5" fill="#ffffff" stroke="none" d="M 220.017593 131.982391 C 218.582596 131.982391 217.173599 131.728394 215.850601 131.238403 L 218.603607 128.485397 C 219.113602 127.975403 219.707596 127.899399 220.017593 127.899399 C 220.327606 127.899399 220.9216 127.975403 221.431595 128.485397 L 224.184601 131.238403 C 222.860596 131.728394 221.452606 131.982391 220.017593 131.982391 M 224.259598 125.656403 C 223.087601 124.485397 221.552597 123.899399 220.017593 123.899399 C 218.481598 123.899399 216.946594 124.485397 215.774597 125.656403 L 211.072601 130.359406 C 210.168594 131.26239 210.329605 132.776398 211.406601 133.465393 C 214.023605 135.143402 217.020599 135.982391 220.017593 135.982391 C 223.014603 135.982391 226.011597 135.143402 228.628601 133.465393 C 229.704605 132.776398 229.866592 131.26239 228.962601 130.359406 Z"/>
    <path id="path6" fill="#ffffff" stroke="none" d="M 220.017593 108.017105 C 221.452606 108.017105 222.860596 108.271103 224.184601 108.7621 L 221.431595 111.515106 C 220.9216 112.024094 220.327606 112.100098 220.017593 112.100098 C 219.707596 112.100098 219.113602 112.024094 218.603607 111.515106 L 215.850601 108.7621 C 217.173599 108.271103 218.582596 108.017105 220.017593 108.017105 M 215.774597 114.343094 C 216.946594 115.515106 218.481598 116.100098 220.017593 116.100098 C 221.552597 116.100098 223.087601 115.515106 224.259598 114.343094 L 228.962601 109.641098 C 229.866592 108.737106 229.704605 107.224106 228.628601 106.534103 C 226.011597 104.856094 223.014603 104.017105 220.017593 104.017105 C 217.020599 104.017105 214.023605 104.856094 211.406601 106.534103 C 210.329605 107.224106 210.168594 108.737106 211.072601 109.641098 Z"/>
    <path id="path7" fill="#ffffff" stroke="none" d="M 231.254898 124.166504 L 228.502899 121.414505 C 227.7229 120.634506 227.7229 119.365494 228.502899 118.585495 L 231.254898 115.833496 C 232.248901 118.516495 232.248901 121.483505 231.254898 124.166504 M 231.792892 110.467499 C 231.283905 110.467499 230.772903 110.6595 230.376907 111.054504 L 225.673904 115.757492 C 223.330902 118.100494 223.330902 121.899506 225.673904 124.242493 L 230.376907 128.945496 C 230.772903 129.3405 231.283905 129.532501 231.792892 129.532501 C 232.446899 129.532501 233.094894 129.2155 233.482895 128.611511 C 236.838898 123.376495 236.838898 116.623505 233.482895 111.388504 C 233.094894 110.783493 232.446899 110.467499 231.792892 110.467499"/>
</svg>
