<?xml version="1.0" encoding="UTF-8"?>
<!-- Generated by Pixelmator Pro 3.7.1 -->
<svg width="256" height="256" viewBox="0 0 256 256" xmlns="http://www.w3.org/2000/svg">
    <path id="Path" fill="#ffffff" stroke="none" d="M 188.470703 86.723602 C 194.527695 97.081604 197.999695 109.134598 197.999695 121.999603 C 197.999695 160.548599 166.839706 191.820602 128.332703 191.998596 C 128.223694 191.999603 128.115707 191.999603 128.005707 191.999603 C 89.946701 191.999603 58.506695 161.036606 58.006695 122.941605 C 57.831692 109.698593 61.337696 97.287598 67.563705 86.663605 C 70.451706 81.735596 71.999702 76.138596 71.999702 70.426605 L 71.999702 47.999603 C 71.999702 43.581604 75.581703 39.999603 79.999702 39.999603 L 175.999695 39.999603 C 180.417694 39.999603 183.999695 43.581604 183.999695 47.999603 L 183.999695 70.424606 C 183.999695 76.160599 185.574707 81.771606 188.470703 86.723602 M 218.510696 226.210602 C 215.869705 227.2146 213.070694 227.702606 210.2547 227.702606 C 209.437698 227.702606 208.617706 227.661606 207.800705 227.579605 L 131.999695 219.999603 L 123.999702 219.999603 L 48.199703 227.579605 C 47.381695 227.661606 46.562695 227.702606 45.744701 227.702606 C 42.929699 227.702606 40.129696 227.2146 37.489697 226.210602 C 28.133694 222.654602 11.999707 212.402603 11.999707 183.999603 L 12.506696 177.922607 L 12.8177 177.851593 C 21.756695 175.798599 28.028698 166.055603 31.460705 148.892609 C 33.970699 136.343597 33.999706 124.121597 33.999706 123.999603 C 33.999706 123.837601 33.953701 107.567596 29.940701 91.514603 C 26.253704 76.767593 15.971707 74.433594 12.908704 74.069595 L 12.717694 74.047607 L 11.999707 63.999603 C 11.999707 63.999603 15.999707 31.999603 51.999706 31.999603 C 80.847702 31.999603 109.675705 35.999603 119.999702 35.999603 L 79.999702 35.999603 C 73.383705 35.999603 67.999702 41.383606 67.999702 47.999603 L 67.999702 70.426605 C 67.999702 75.386597 66.655701 80.302597 64.112701 84.641602 C 57.323696 96.226593 53.828701 109.488602 54.006695 122.994598 C 54.535702 163.249603 87.731705 195.999603 128.005707 195.999603 L 128.3517 195.998596 C 148.043701 195.907593 166.542694 188.16861 180.441696 174.209595 C 194.343704 160.246613 201.999695 141.70459 201.999695 121.999603 C 201.999695 108.874603 198.515701 95.9776 191.923706 84.704605 C 189.356705 80.314606 187.999695 75.376602 187.999695 70.424606 L 187.999695 47.999603 C 187.999695 41.383606 182.616699 35.999603 175.999695 35.999603 L 135.999695 35.999603 C 146.324707 35.999603 175.152695 31.999603 203.999695 31.999603 C 239.999695 31.999603 243.999695 63.999603 243.999695 63.999603 L 243.283707 74.039597 L 243.103699 74.059601 C 241.841705 74.195602 239.308701 74.663605 236.507706 76.263596 C 232.9767 78.281601 228.296707 82.565598 226.060699 91.514603 C 222.046707 107.566605 221.999695 123.837601 221.999695 123.999603 C 221.999695 124.121597 222.029694 136.340607 224.538696 148.892609 C 227.971695 166.055603 234.243698 175.798599 243.182709 177.851593 L 243.492706 177.922607 L 243.999695 183.999603 C 243.999695 212.402603 227.866699 222.654602 218.510696 226.210602 M 13.008695 78.117599 C 16.141705 78.631607 23.204693 81.063599 26.059704 92.485596 C 29.950695 108.048599 29.999706 123.842606 29.999706 123.999603 C 29.999706 136.353607 26.902706 169.111603 12.859708 173.690613 L 15.999707 135.999603 L 15.999707 119.999603 Z M 243.140701 173.690613 C 229.097702 169.11261 225.999695 136.353607 225.999695 123.999603 C 225.999695 123.842606 226.047699 108.052597 229.939697 92.485596 C 232.826706 80.9366 239.876694 78.576599 242.991699 78.1026 L 239.999695 119.999603 L 239.999695 135.999603 Z M 243.999695 135.833603 L 243.999695 120.142593 L 247.990707 64.285599 L 248.0177 63.8936 L 247.968704 63.503601 C 247.923706 63.137604 246.779694 54.4366 240.7957 45.733597 C 235.234695 37.6436 224.335709 27.999603 203.999695 27.999603 C 185.777695 27.999603 167.442703 29.591599 154.055695 30.753601 C 146.030701 31.4496 139.691696 31.999603 135.999695 31.999603 L 119.999702 31.999603 C 116.308701 31.999603 109.969704 31.4496 101.944702 30.753601 C 88.557701 29.591599 70.222702 27.999603 51.999706 27.999603 C 31.6647 27.999603 20.765697 37.6436 15.203702 45.733597 C 9.2207 54.4366 8.076703 63.137604 8.030698 63.503601 L 7.982693 63.8936 L 8.010694 64.285599 L 11.999707 120.142593 L 11.999707 135.833603 L 8.0137 183.667603 L 7.999707 183.833603 L 7.999707 183.999603 C 7.999707 197.386597 11.398694 208.458603 18.102703 216.9086 C 23.934704 224.259598 31.091702 228.057602 36.067699 229.950607 C 39.127697 231.113602 42.382702 231.702606 45.744701 231.702606 C 46.689693 231.702606 47.6497 231.655609 48.596706 231.560608 L 124.199699 223.999603 L 131.800705 223.999603 L 207.403702 231.560608 C 208.349701 231.655609 209.309708 231.702606 210.2547 231.702606 C 213.616699 231.702606 216.872696 231.113602 219.931702 229.950607 C 224.908707 228.057602 232.065704 224.259598 237.897705 216.9086 C 244.600708 208.458603 247.999695 197.386597 247.999695 183.999603 L 247.999695 183.833603 L 247.986694 183.667603 Z"/>
    <path id="path1" fill="#ffffff" stroke="none" d="M 128 184 C 94.862999 184 68 157.136993 68 124 C 68 90.863007 94.862999 64 128 64 C 161.136993 64 188 90.863007 188 124 C 188 157.136993 161.136993 184 128 184 M 128 60 C 92.709999 60 64 88.709991 64 124 C 64 159.290009 92.709999 188 128 188 C 163.290009 188 192 159.290009 192 124 C 192 88.709991 163.290009 60 128 60"/>
    <path id="path2" fill="#ffffff" stroke="none" d="M 48 208 C 36.972 208 28 199.028 28 188 C 28 176.972 36.972 168 48 168 C 59.028 168 68 176.972 68 188 C 68 199.028 59.028 208 48 208 M 48 164 C 34.766998 164 24 174.766998 24 188 C 24 201.233002 34.766998 212 48 212 C 61.233002 212 72 201.233002 72 188 C 72 174.766998 61.233002 164 48 164"/>
    <path id="path3" fill="#ffffff" stroke="none" d="M 208 208 C 196.972 208 188 199.028 188 188 C 188 176.972 196.972 168 208 168 C 219.028 168 228 176.972 228 188 C 228 199.028 219.028 208 208 208 M 208 164 C 194.766998 164 184 174.766998 184 188 C 184 201.233002 194.766998 212 208 212 C 221.233002 212 232 201.233002 232 188 C 232 174.766998 221.233002 164 208 164"/>
    <path id="path4" fill="#ffffff" stroke="none" d="M 62 208 C 60.896 208 60 208.895996 60 210 L 60 214 L 60 218 C 60 219.104004 60.896 220 62 220 C 63.104 220 64 219.104004 64 218 L 64 214 L 64 210 C 64 208.895996 63.104 208 62 208"/>
    <path id="path5" fill="#ffffff" stroke="none" d="M 194 208 C 192.895996 208 192 208.895996 192 210 L 192 214 L 192 218 C 192 219.104004 192.895996 220 194 220 C 195.104004 220 196 219.104004 196 218 L 196 214 L 196 210 C 196 208.895996 195.104004 208 194 208"/>
</svg>
