<?xml version="1.0" encoding="UTF-8"?>
<!-- Generated by Pixelmator Pro 3.7.1 -->
<svg width="256" height="256" viewBox="0 0 256 256" xmlns="http://www.w3.org/2000/svg">
    <path id="Path" fill="#ffffff" stroke="none" d="M 236 72 L 236 52 L 232 52 L 232 72 L 228 72 L 228 52 L 224 52 L 224 72 L 220 72 L 220 52 L 216 52 L 216 72 L 212 72 L 212 52 L 208 52 L 208 72 L 204 72 L 204 52 L 200 52 L 200 72 L 196 72 L 196 52 L 192 52 L 192 72 L 188 72 L 188 52 L 184 52 L 184 72 L 180 72 L 180 52 L 176 52 L 176 72 L 172 72 L 172 52 L 168 52 L 168 72 L 164 72 L 164 52 L 160 52 L 160 72 L 156 72 L 156 52 L 152 52 L 152 72 L 148 72 L 148 52 L 144 52 L 144 72 L 140 72 L 140 52 L 136 52 L 136 72 L 132 72 L 132 52 L 128 52 L 128 72 L 124 72 L 124 52 L 120 52 L 120 72 L 116 72 L 116 52 L 112 52 L 112 72 L 108 72 L 108 52 L 104 52 L 104 72 L 100 72 L 100 52 L 96 52 L 96 72 L 92 72 L 92 52 L 88 52 L 88 72 L 84 72 L 84 52 L 80 52 L 80 72 L 76 72 L 76 52 L 72 52 L 72 72 L 68 72 L 68 52 L 64 52 L 64 72 L 60 72 L 60 52 L 56 52 L 56 72 L 52 72 L 52 52 L 48 52 L 48 72 L 44 72 L 44 52 L 40 52 L 40 72 L 36 72 L 36 52 L 32 52 L 32 72 L 28 72 L 28 52 L 24 52 L 24 72 L 20 72 L 20 52 L 16 52 L 16 72 L 12 72 L 12 50 C 12 48.895996 12.895996 48 14 48 L 242 48 C 243.104004 48 244 48.895996 244 50 L 244 72 Z M 244 200 C 244 204.417999 240.417999 208 236 208 L 20 208 C 15.582001 208 12 204.417999 12 200 L 12 183.654999 L 46.384995 198.832001 L 46.427994 198.850998 L 46.470993 198.867996 C 47.371994 199.240997 68.886993 208 98.962997 208 C 116.609001 208 133.54599 204.957001 149.304001 198.955994 C 152.412003 198 213.615997 179.311005 244 179.311005 Z M 40 191.641998 L 12 179.28299 L 12 176 L 12 168 L 12 76 L 40 76 Z M 148 195.171997 C 130.664001 201.794006 113.778999 204 98.962997 204 C 69.335999 204 48 195.171997 48 195.171997 L 44 193.406998 L 44 76 L 148 76 Z M 152 76 L 244 76 L 244 168 L 244 172 L 244 175.311005 C 216.796997 175.311005 166.477997 189.661011 152 193.964996 Z M 242 44 L 14 44 C 10.690994 44 8 46.690994 8 50 L 8 72 L 8 76 L 8 168 L 8 176 L 8 179.28299 L 8 181.889999 L 8 200 C 8 206.617004 13.382996 212 20 212 L 236 212 C 242.617004 212 248 206.617004 248 200 L 248 179.311005 L 248 175.311005 L 248 172 L 248 168 L 248 76 L 248 72 L 248 50 C 248 46.690994 245.309006 44 242 44"/>
    <path id="path1" fill="#ffffff" stroke="none" d="M 62 180 L 86.957001 182.77301 C 94.296005 183.588989 101.703995 183.588989 109.042999 182.77301 L 134 180 C 135.104004 180 136 179.104004 136 178 C 136 176.895996 135.104004 176 134 176 L 109.042999 178.77301 C 101.703995 179.588989 94.296005 179.588989 86.957001 178.77301 L 62 176 C 60.896 176 60 176.895996 60 178 C 60 179.104004 60.896 180 62 180"/>
    <path id="path2" fill="#ffffff" stroke="none" d="M 192.585907 198.242203 L 198.241898 192.586197 C 199.020905 191.80719 199.020905 190.535202 198.241898 189.758209 C 197.464905 188.979202 196.191895 188.979202 195.413895 189.758209 L 189.757904 195.4142 C 188.979904 196.1922 188.979904 197.465195 189.757904 198.242203 C 190.534897 199.020203 191.807907 199.020203 192.585907 198.242203"/>
    <path id="path3" fill="#ffffff" stroke="none" d="M 207.412094 198.242203 L 213.0681 192.586197 C 213.847107 191.80719 213.847107 190.535202 213.0681 189.758209 C 212.291107 188.979202 211.017105 188.979202 210.240097 189.758209 L 204.583099 195.4142 C 203.806107 196.1922 203.806107 197.465195 204.583099 198.242203 C 205.361099 199.020203 206.634094 199.020203 207.412094 198.242203"/>
</svg>
