<?xml version="1.0" encoding="UTF-8"?>
<!-- Generated by Pixelmator Pro 3.7.1 -->
<svg width="256" height="256" viewBox="0 0 256 256" xmlns="http://www.w3.org/2000/svg">
    <path id="Path" fill="#ffffff" stroke="none" d="M 239.889603 219.119095 C 238.841599 230.028107 230.028595 238.842102 219.119598 239.890106 C 218.347595 239.964096 217.583603 240.000107 216.827606 240.000107 C 212.079605 240.000107 207.672607 238.564102 203.999603 236.114105 L 203.999603 236.000107 L 203.829605 236.000107 C 201.951599 234.723099 200.266602 233.183105 198.837601 231.425095 C 197.327606 229.565094 194.395599 228.000092 191.999603 228.000092 L 63.999599 228.000092 C 61.604595 228.000092 58.672604 229.565094 57.161602 231.425095 C 55.733593 233.183105 54.048595 234.723099 52.170605 236.000107 L 51.999599 236.000107 L 51.999599 236.114105 C 48.327602 238.564102 43.919598 240.000107 39.172604 240.000107 C 38.416592 240.000107 37.651592 239.964096 36.880596 239.890106 C 25.972593 238.842102 17.158598 230.028107 16.110594 219.119095 C 15.324597 210.937103 18.799604 203.5271 24.575605 198.838104 C 26.434599 197.328094 27.999601 194.395096 27.999601 192.000092 L 27.999601 64.000092 C 27.999601 61.604095 26.434599 58.672089 24.575605 57.162094 C 18.799604 52.472092 15.324597 45.062088 16.110594 36.880096 C 17.158598 25.972092 25.972593 17.159088 36.880596 16.110092 C 37.651592 16.036102 38.4156 16.000092 39.172604 16.000092 C 46.435604 16.000092 52.914593 19.345093 57.161602 24.575089 C 58.672604 26.434097 61.604595 28.000092 63.999599 28.000092 L 191.999603 28.000092 C 194.395599 28.000092 197.327606 26.434097 198.837601 24.575089 C 203.085602 19.344101 209.563599 16.000092 216.827606 16.000092 C 217.582596 16.000092 218.348602 16.036102 219.119598 16.110092 C 230.028595 17.159088 238.841599 25.972092 239.889603 36.880096 C 240.675598 45.062088 237.200607 52.472092 231.424606 57.162094 C 229.565598 58.672089 227.999603 61.604095 227.999603 64.000092 L 227.999603 192.000092 C 227.999603 194.395096 229.565598 197.328094 231.424606 198.838104 C 237.200607 203.5271 240.675598 210.937103 239.889603 219.119095 M 216.827606 244.000107 L 216.828598 244.000107 Z M 39.170605 244.000107 L 39.171597 244.000107 Z M 233.946594 195.733093 C 232.946594 194.921097 231.999603 193.106094 231.999603 192.000092 L 231.999603 64.000092 C 231.999603 62.893097 232.946594 61.079102 233.946594 60.26709 C 241.037598 54.509094 244.747604 45.623093 243.870605 36.498093 C 242.633606 23.615097 232.384598 13.367096 219.501602 12.129089 C 218.613602 12.043091 217.713593 12.000092 216.827606 12.000092 C 208.609604 12.000092 200.920593 15.664093 195.732605 22.054092 C 194.920593 23.054092 193.106598 24.000092 191.999603 24.000092 L 63.999599 24.000092 C 62.893597 24.000092 61.079601 23.054092 60.266598 22.054092 C 55.078594 15.664093 47.389599 12.000092 39.172604 12.000092 C 38.286602 12.000092 37.386593 12.043091 36.497601 12.129089 C 23.615599 13.367096 13.366605 23.615097 12.128598 36.497101 C 11.251599 45.623093 14.961606 54.509094 22.053602 60.26709 C 23.054594 61.079102 23.999601 62.893097 23.999601 64.000092 L 23.999601 192.000092 C 23.999601 193.106094 23.054594 194.921097 22.053602 195.733093 C 14.961606 201.491104 11.251599 210.377106 12.128598 219.502106 C 12.7496 225.969101 15.643598 231.769104 19.999601 236.102097 L 19.999601 237.367096 C 19.999601 239.200104 20.808607 240.900101 22.218596 242.031097 C 26.357603 245.351105 31.2946 247.371094 36.497601 247.871094 C 37.386593 247.957092 38.285595 248.000107 39.171597 248.000107 C 44.058605 248.000107 48.852596 246.685104 53.034603 244.197098 C 54.863598 243.1091 55.999599 241.126099 55.999599 239.019104 L 55.999599 238.161102 C 57.554592 236.931107 58.987606 235.522095 60.266598 233.946106 C 61.079601 232.946106 62.893597 232.000092 63.999599 232.000092 L 191.999603 232.000092 C 193.106598 232.000092 194.920593 232.946106 195.733597 233.946106 C 197.012604 235.522095 198.445602 236.931107 199.999603 238.161102 L 199.999603 239.019104 C 199.999603 241.126099 201.136597 243.1091 202.965607 244.197098 C 207.147598 246.685104 211.941605 248.000107 216.827606 248.000107 C 217.713593 248.000107 218.613602 247.957092 219.501602 247.871094 C 224.704605 247.371094 229.642593 245.351105 233.781601 242.031097 C 235.191605 240.900101 235.999603 239.200104 235.999603 237.367096 L 235.999603 236.102097 C 240.355606 231.770096 243.249603 225.969101 243.870605 219.502106 C 244.747604 210.377106 241.037598 201.491104 233.946594 195.733093"/>
    <path id="path1" fill="#ffffff" stroke="none" d="M 220 212 C 220 216.410995 216.410995 220 212 220 L 44 220 C 39.589005 220 36 216.410995 36 212 L 36 44 C 36 39.589005 39.589005 36 44 36 L 212 36 C 216.410995 36 220 39.589005 220 44 Z M 212 32 L 44 32 C 37.399994 32 32 37.399994 32 44 L 32 212 C 32 218.600006 37.399994 224 44 224 L 212 224 C 218.600006 224 224 218.600006 224 212 L 224 44 C 224 37.399994 218.600006 32 212 32"/>
</svg>
