<?xml version="1.0" encoding="UTF-8"?>
<!-- Generated by Pixelmator Pro 3.7.1 -->
<svg width="256" height="256" viewBox="0 0 256 256" xmlns="http://www.w3.org/2000/svg">
    <path id="Path" fill="#ffffff" stroke="none" d="M 244 56 L 12 56 L 12 39.600006 C 12 37.612 13.791 36 16 36 L 240 36 C 242.209 36 244 37.612 244 39.600006 Z M 244 92 L 191.473999 92 C 189.690002 85.110001 183.438995 80 176 80 L 84 80 C 76.561005 80 70.309998 85.110001 68.526001 92 L 12 92 L 12 60 L 244 60 Z M 244 128 L 192 128 L 192 96 L 244 96 Z M 244 164 L 192 164 L 192 132 L 244 132 Z M 244 205.082001 C 242.820999 204.397995 241.457993 204 240 204 L 192 204 L 192 168 L 244 168 Z M 244 212.399994 L 244 216 C 244 218.209 242.209 220 240 220 L 228 220 L 224 220 L 208 220 L 204 220 L 192 220 L 192 208 L 240 208 C 242.209 208 244 209.791 244 212 Z M 224 226 C 224 227.104004 223.104004 228 222 228 L 210 228 C 208.895996 228 208 227.104004 208 226 L 208 224 L 224 224 Z M 72 224 L 188 224 C 188 224 156 228 128 228 C 100 228 72 224 72 224 M 52 220 L 48 220 L 32 220 L 28 220 L 16 220 C 13.791 220 12 218.209 12 216 L 12 212.399994 L 12 212 C 12 209.791 13.791 208 16 208 L 68 208 L 68 220 Z M 48 226 C 48 227.104004 47.104004 228 46 228 L 34 228 C 32.895996 228 32 227.104004 32 226 L 32 224 L 48 224 Z M 12 168 L 68 168 L 68 204 L 16 204 C 14.542007 204 13.177994 204.397995 12 205.082001 Z M 12 132 L 68 132 L 68 164 L 12 164 Z M 188 220 L 72 220 L 72 208 L 188 208 Z M 188 128 L 188 132 L 188 164 L 188 168 L 188 204 L 72 204 L 72 168 L 72 164 L 72 132 L 72 128 L 72 96 C 72 94.597 72.257004 93.253998 72.703995 92 L 72.705002 92 C 73.112 90.856995 73.688004 89.796005 74.403 88.841003 C 74.425003 88.811005 74.447006 88.781006 74.470001 88.751007 C 74.636002 88.533005 74.809006 88.320007 74.988998 88.113998 C 75.018005 88.080994 75.048996 88.048996 75.078003 88.016998 C 75.602005 87.432007 76.181 86.899994 76.809006 86.427002 C 76.908005 86.352005 77.005005 86.274994 77.106003 86.203995 C 77.264999 86.091003 77.427994 85.985001 77.593002 85.880005 C 77.729004 85.792999 77.867996 85.709 78.007996 85.626999 C 78.160004 85.539001 78.311996 85.451004 78.466995 85.369003 C 78.654999 85.270996 78.847 85.181 79.041 85.091995 C 79.160995 85.037003 79.276993 84.977005 79.399002 84.925003 C 79.710007 84.794006 80.029007 84.679001 80.352997 84.574997 C 80.466003 84.537994 80.582001 84.509003 80.695999 84.475998 C 80.932007 84.408005 81.169006 84.345001 81.410004 84.291992 C 81.537003 84.263 81.664001 84.238007 81.792007 84.214005 C 82.039001 84.166992 82.289001 84.130005 82.541 84.098999 C 82.656006 84.084 82.770996 84.067001 82.888 84.057007 C 83.253998 84.022003 83.625 84 84 84 L 176 84 C 176.375 84 176.744995 84.022003 177.112 84.057007 C 177.229004 84.067001 177.343994 84.084 177.459 84.098999 C 177.710999 84.130005 177.960999 84.166992 178.208008 84.214005 C 178.335999 84.238007 178.463989 84.263 178.589996 84.291992 C 178.830994 84.345001 179.067993 84.408005 179.304001 84.475998 C 179.417999 84.509003 179.533997 84.537994 179.645996 84.574997 C 179.971008 84.679001 180.289001 84.794006 180.600998 84.925003 C 180.722992 84.977005 180.839996 85.037003 180.959991 85.091995 C 181.152008 85.181 181.345001 85.270996 181.533005 85.369003 C 181.688004 85.451004 181.839996 85.539001 181.992004 85.626999 C 182.132996 85.709 182.270996 85.792999 182.406998 85.880005 C 182.571991 85.985001 182.734009 86.091003 182.893997 86.203995 C 182.994995 86.274994 183.093002 86.352005 183.19101 86.427002 C 183.819 86.899994 184.397995 87.432007 184.921997 88.016998 C 184.951004 88.048996 184.981995 88.080994 185.011002 88.113998 C 185.19101 88.320007 185.363007 88.533005 185.529999 88.751007 C 185.553009 88.781006 185.574997 88.811005 185.597992 88.841003 C 186.311996 89.796005 186.888 90.856995 187.296005 92 C 187.742996 93.253998 188 94.597 188 96 Z M 12 96 L 68 96 L 68 128 L 12 128 Z M 240 32 L 16 32 C 11.589005 32 8 35.408997 8 39.600006 L 8 56 L 8 60 L 8 92 L 8 96 L 8 128 L 8 132 L 8 164 L 8 168 L 8 212 L 8 212.399994 L 8 216 C 8 220.410995 11.589005 224 16 224 L 28 224 L 28 226 C 28 229.309006 30.690994 232 34 232 L 46 232 C 49.309006 232 52 229.309006 52 226 L 52 224 L 68 224 L 68.016998 224 C 68.016998 225.973999 69.451996 227.677002 71.434998 227.960007 C 71.716995 228 100.039001 232 128 232 C 155.369003 232 186.888 228.167007 188.438004 227.977005 C 190.44101 227.757996 192.002991 226.061005 192.002991 224 L 204 224 L 204 226 C 204 229.309006 206.69101 232 210 232 L 222 232 C 225.309006 232 228 229.309006 228 226 L 228 224 L 240 224 C 244.410995 224 248 220.410995 248 216 L 248 212.399994 L 248 212 L 248 168 L 248 164 L 248 132 L 248 128 L 248 96 L 248 92 L 248 60 L 248 56 L 248 39.600006 C 248 35.408997 244.410995 32 240 32"/>
</svg>
