<?xml version="1.0" encoding="UTF-8"?>
<!-- Generated by Pixelmator Pro 3.7.1 -->
<svg width="256" height="256" viewBox="0 0 256 256" xmlns="http://www.w3.org/2000/svg">
    <path id="Path" fill="#ffffff" stroke="none" d="M 244 220 C 244 222.209 242.209 224 240 224 L 237.089996 224.311996 C 235.363998 224.496994 233.636002 224.656006 231.908997 224.832001 C 231.522995 226.636002 229.914993 228 228 228 L 220 228 C 218.641006 228 217.438004 227.311005 216.714005 226.266998 C 207.531006 227.063995 198.339996 227.723999 189.143997 228.274002 C 208.072998 213.988007 220 193.177002 220 170 C 220 126.921997 178.811005 92 128 92 C 77.190002 92 36 126.921997 36 170 C 36 193.177002 47.927002 213.988007 66.856003 228.274002 C 57.660004 227.723999 48.468994 227.063995 39.287003 226.266998 C 38.563004 227.311005 37.358994 228 36 228 L 28 228 C 26.085007 228 24.477005 226.636002 24.089996 224.832001 C 22.363998 224.656006 20.636002 224.496994 18.910004 224.311996 L 16 224 C 13.791 224 12 222.209 12 220 L 12 28 C 12 25.791 13.791 24 16 24 L 240 24 C 242.209 24 244 25.791 244 28 Z M 172.984009 229.125 C 172.712006 229.136993 172.440002 229.149994 172.166992 229.162003 C 168.787003 229.309006 165.406006 229.434998 162.024994 229.546997 C 161.55899 229.563004 161.093002 229.578003 160.626007 229.593002 C 157.169006 229.703003 153.712006 229.798996 150.255005 229.873993 C 150.195007 229.875 150.136002 229.876007 150.075989 229.878006 C 142.718994 230.035995 135.359009 230.115997 128 230.115997 C 120.640999 230.115997 113.281998 230.035995 105.923996 229.878006 C 105.863998 229.876007 105.804993 229.875 105.744995 229.873993 C 102.287994 229.798996 98.830994 229.703003 95.375 229.593002 C 94.908005 229.578003 94.440994 229.563004 93.973999 229.546997 C 90.593002 229.434998 87.212997 229.309006 83.832993 229.162003 C 83.559998 229.149994 83.287994 229.136993 83.014999 229.125 C 80.158997 228.998993 77.304001 228.856003 74.449005 228.705994 C 64.080994 222.002991 55.490005 213.326004 49.563004 203.561005 C 43.216995 193.106003 40 181.815002 40 170 C 40 129.195999 79.477005 96 128 96 C 176.52301 96 216 129.195999 216 170 C 216 181.815002 212.783005 193.106003 206.436996 203.561005 C 200.509995 213.326004 191.919006 222.002991 181.552002 228.705994 C 178.695999 228.856003 175.841003 228.998993 172.984009 229.125 M 240 20 L 16 20 C 11.589005 20 8 23.589005 8 28 L 8 220 C 8 224.328003 11.453995 227.863998 15.75 227.996002 L 18.483994 228.289001 C 19.475998 228.395996 20.468002 228.492996 21.460999 228.591003 C 22.929001 230.667999 25.350006 232 28 232 L 36 232 C 37.740997 232 39.410995 231.429001 40.774994 230.408997 C 51.533997 231.324997 62.352997 232.070999 73.190994 232.649002 C 73.203003 232.656006 73.214996 232.665009 73.227005 232.671997 C 91.470993 233.649002 109.735992 234.138 128 234.138 C 146.264999 234.138 164.528 233.649002 182.772995 232.671997 C 182.785004 232.665009 182.796997 232.656006 182.80899 232.649002 C 193.647003 232.070999 204.466995 231.324997 215.225006 230.408997 C 216.589005 231.429001 218.259995 232 220 232 L 228 232 C 230.649002 232 233.070999 230.667999 234.539001 228.591003 C 235.531006 228.492996 236.524002 228.395996 237.516006 228.289001 L 240.248993 227.996002 C 244.546005 227.863998 248 224.328003 248 220 L 248 28 C 248 23.589005 244.410995 20 240 20"/>
    <path id="path1" fill="#ffffff" stroke="none" d="M 96 68 C 94.896004 68 94 68.895996 94 70 C 94 71.104004 94.896004 72 96 72 C 97.103996 72 98 71.104004 98 70 C 98 68.895996 97.103996 68 96 68"/>
    <path id="path2" fill="#ffffff" stroke="none" d="M 112 68 C 110.896004 68 110 68.895996 110 70 C 110 71.104004 110.896004 72 112 72 C 113.103996 72 114 71.104004 114 70 C 114 68.895996 113.103996 68 112 68"/>
    <path id="path3" fill="#ffffff" stroke="none" d="M 128 68 C 126.896004 68 126 68.895996 126 70 C 126 71.104004 126.896004 72 128 72 C 129.104004 72 130 71.104004 130 70 C 130 68.895996 129.104004 68 128 68"/>
    <path id="path4" fill="#ffffff" stroke="none" d="M 144 68 C 142.895996 68 142 68.895996 142 70 C 142 71.104004 142.895996 72 144 72 C 145.104004 72 146 71.104004 146 70 C 146 68.895996 145.104004 68 144 68"/>
    <path id="path5" fill="#ffffff" stroke="none" d="M 160 68 C 158.895996 68 158 68.895996 158 70 C 158 71.104004 158.895996 72 160 72 C 161.104004 72 162 71.104004 162 70 C 162 68.895996 161.104004 68 160 68"/>
    <path id="path6" fill="#ffffff" stroke="none" d="M 96 56 C 94.896004 56 94 56.895996 94 58 C 94 59.104004 94.896004 60 96 60 C 97.103996 60 98 59.104004 98 58 C 98 56.895996 97.103996 56 96 56"/>
    <path id="path7" fill="#ffffff" stroke="none" d="M 112 56 C 110.896004 56 110 56.895996 110 58 C 110 59.104004 110.896004 60 112 60 C 113.103996 60 114 59.104004 114 58 C 114 56.895996 113.103996 56 112 56"/>
    <path id="path8" fill="#ffffff" stroke="none" d="M 128 56 C 126.896004 56 126 56.895996 126 58 C 126 59.104004 126.896004 60 128 60 C 129.104004 60 130 59.104004 130 58 C 130 56.895996 129.104004 56 128 56"/>
    <path id="path9" fill="#ffffff" stroke="none" d="M 144 56 C 142.895996 56 142 56.895996 142 58 C 142 59.104004 142.895996 60 144 60 C 145.104004 60 146 59.104004 146 58 C 146 56.895996 145.104004 56 144 56"/>
    <path id="path10" fill="#ffffff" stroke="none" d="M 160 56 C 158.895996 56 158 56.895996 158 58 C 158 59.104004 158.895996 60 160 60 C 161.104004 60 162 59.104004 162 58 C 162 56.895996 161.104004 56 160 56"/>
    <path id="path11" fill="#ffffff" stroke="none" d="M 96 44 C 94.896004 44 94 44.895996 94 46 C 94 47.104004 94.896004 48 96 48 C 97.103996 48 98 47.104004 98 46 C 98 44.895996 97.103996 44 96 44"/>
    <path id="path12" fill="#ffffff" stroke="none" d="M 112 44 C 110.896004 44 110 44.895996 110 46 C 110 47.104004 110.896004 48 112 48 C 113.103996 48 114 47.104004 114 46 C 114 44.895996 113.103996 44 112 44"/>
    <path id="path13" fill="#ffffff" stroke="none" d="M 128 44 C 126.896004 44 126 44.895996 126 46 C 126 47.104004 126.896004 48 128 48 C 129.104004 48 130 47.104004 130 46 C 130 44.895996 129.104004 44 128 44"/>
    <path id="path14" fill="#ffffff" stroke="none" d="M 144 44 C 142.895996 44 142 44.895996 142 46 C 142 47.104004 142.895996 48 144 48 C 145.104004 48 146 47.104004 146 46 C 146 44.895996 145.104004 44 144 44"/>
    <path id="path15" fill="#ffffff" stroke="none" d="M 160 44 C 158.895996 44 158 44.895996 158 46 C 158 47.104004 158.895996 48 160 48 C 161.104004 48 162 47.104004 162 46 C 162 44.895996 161.104004 44 160 44"/>
</svg>
