<?xml version="1.0" encoding="UTF-8"?>
<!-- Generated by Pixelmator Pro 3.7.1 -->
<svg width="256" height="256" viewBox="0 0 256 256" xmlns="http://www.w3.org/2000/svg">
    <path id="Path" fill="#ffffff" stroke="none" d="M 204 116 L 196 116 L 196 120 L 204 120 Z"/>
    <path id="path1" fill="#ffffff" stroke="none" d="M 216 116 L 208 116 L 208 120 L 216 120 Z"/>
    <path id="path2" fill="#ffffff" stroke="none" d="M 220 128 L 228 128 L 228 136 L 220 136 Z M 228 148 L 220 148 L 220 140 L 228 140 Z M 228 160 L 220 160 L 220 152 L 228 152 Z M 228 172 L 220 172 L 220 164 L 228 164 Z M 216 172 L 208 172 L 208 164 L 216 164 Z M 204 172 L 196 172 L 196 164 L 204 164 Z M 192 172 L 188 172 L 188 164 L 192 164 Z M 184 172 L 180 172 L 180 164 L 184 164 Z M 176 172 L 160 172 L 160 164 L 164 164 L 176 164 Z M 156 172 L 152 172 L 148 172 L 148 164 L 152 164 L 156 164 Z M 152 184 L 64 184 L 64 176 L 72 176 L 76 176 L 84 176 L 88 176 L 96 176 L 100 176 L 108 176 L 112 176 L 120 176 L 124 176 L 132 176 L 136 176 L 144 176 L 148 176 L 152 176 Z M 52 172 L 52 164 L 56 164 L 60 164 L 60 172 Z M 48 172 L 36 172 L 36 164 L 40 164 L 44 164 L 48 164 Z M 32 172 L 24 172 L 24 164 L 28 164 L 32 164 Z M 24 152 L 28 152 L 28 160 L 24 160 Z M 24 140 L 32 140 L 36 140 L 36 148 L 32 148 L 28 148 L 24 148 Z M 24 128 L 32 128 L 32 136 L 24 136 Z M 24 120 L 36 120 L 36 124 L 32 124 L 24 124 Z M 40 120 L 52 120 L 52 124 L 48 124 L 44 124 L 40 124 Z M 56 120 L 68 120 L 68 124 L 60 124 L 56 124 Z M 72 120 L 84 120 L 84 124 L 80 124 L 72 124 Z M 88 120 L 100 120 L 100 124 L 96 124 L 92 124 L 88 124 Z M 104 136 L 100 136 L 96 136 L 96 128 L 100 128 L 104 128 Z M 108 128 L 116 128 L 116 136 L 112 136 L 108 136 Z M 120 128 L 128 128 L 128 136 L 124 136 L 120 136 Z M 132 128 L 140 128 L 140 136 L 136 136 L 132 136 Z M 144 128 L 152 128 L 152 136 L 148 136 L 144 136 Z M 156 128 L 164 128 L 164 136 L 160 136 L 156 136 Z M 168 128 L 176 128 L 176 136 L 168 136 Z M 180 128 L 192 128 L 192 136 L 188 136 L 184 136 L 180 136 Z M 196 128 L 204 128 L 204 136 L 196 136 Z M 196 152 L 204 152 L 204 160 L 196 160 Z M 180 152 L 184 152 L 188 152 L 192 152 L 192 160 L 188 160 L 184 160 L 180 160 Z M 184 148 L 180 148 L 180 140 L 184 140 Z M 192 148 L 188 148 L 188 140 L 192 140 Z M 204 148 L 196 148 L 196 140 L 204 140 Z M 164 152 L 164 148 L 164 140 L 168 140 L 176 140 L 176 148 L 176 152 L 176 160 L 164 160 Z M 152 152 L 156 152 L 160 152 L 160 160 L 156 160 L 152 160 Z M 140 160 L 140 152 L 144 152 L 148 152 L 148 160 L 144 160 Z M 124 164 L 128 164 L 132 164 L 132 172 L 124 172 Z M 112 164 L 116 164 L 120 164 L 120 172 L 112 172 Z M 100 164 L 104 164 L 108 164 L 108 172 L 100 172 Z M 88 164 L 92 164 L 96 164 L 96 172 L 88 172 Z M 76 164 L 80 164 L 84 164 L 84 172 L 76 172 Z M 64 164 L 68 164 L 72 164 L 72 172 L 64 172 Z M 56 152 L 60 152 L 64 152 L 64 160 L 60 160 L 56 160 Z M 44 152 L 48 152 L 52 152 L 52 160 L 48 160 L 44 160 Z M 40 140 L 44 140 L 48 140 L 48 148 L 44 148 L 40 148 Z M 56 136 L 52 136 L 48 136 L 48 128 L 52 128 L 56 128 Z M 68 136 L 64 136 L 60 136 L 60 128 L 68 128 Z M 80 136 L 76 136 L 72 136 L 72 128 L 80 128 Z M 92 136 L 88 136 L 84 136 L 84 128 L 88 128 L 92 128 Z M 96 148 L 92 148 L 88 148 L 88 140 L 92 140 L 96 140 Z M 108 148 L 104 148 L 100 148 L 100 140 L 104 140 L 108 140 Z M 120 148 L 116 148 L 112 148 L 112 140 L 116 140 L 120 140 Z M 132 148 L 128 148 L 124 148 L 124 140 L 128 140 L 132 140 Z M 116 152 L 120 152 L 124 152 L 124 160 L 120 160 L 116 160 Z M 104 152 L 108 152 L 112 152 L 112 160 L 108 160 L 104 160 Z M 92 152 L 96 152 L 100 152 L 100 160 L 96 160 L 92 160 Z M 80 152 L 84 152 L 88 152 L 88 160 L 84 160 L 80 160 Z M 68 152 L 72 152 L 76 152 L 76 160 L 72 160 L 68 160 Z M 84 148 L 80 148 L 76 148 L 76 140 L 80 140 L 84 140 Z M 64 140 L 68 140 L 72 140 L 72 148 L 68 148 L 64 148 Z M 52 140 L 56 140 L 60 140 L 60 148 L 56 148 L 52 148 Z M 136 160 L 132 160 L 128 160 L 128 152 L 132 152 L 136 152 Z M 144 148 L 140 148 L 136 148 L 136 140 L 140 140 L 144 140 Z M 156 148 L 152 148 L 148 148 L 148 140 L 152 140 L 156 140 Z M 36 128 L 40 128 L 44 128 L 44 136 L 40 136 L 36 136 Z M 32 152 L 36 152 L 40 152 L 40 160 L 36 160 L 32 160 Z M 144 172 L 136 172 L 136 164 L 140 164 L 144 164 Z M 216 160 L 208 160 L 208 152 L 216 152 Z M 216 148 L 208 148 L 208 140 L 216 140 Z M 208 128 L 216 128 L 216 136 L 208 136 Z M 220 124 L 216 124 L 208 124 L 204 124 L 196 124 L 192 124 L 180 124 L 176 124 L 168 124 L 164 124 L 156 124 L 152 124 L 144 124 L 140 124 L 132 124 L 128 124 L 120 124 L 116 124 L 108 124 L 104 124 L 104 120 L 104 116 L 100 116 L 88 116 L 84 116 L 72 116 L 68 116 L 56 116 L 52 116 L 40 116 L 36 116 L 24 116 L 20 116 L 20 120 L 20 124 L 20 128 L 20 136 L 20 140 L 20 148 L 20 152 L 20 160 L 20 164 L 20 172 L 20 176 L 24 176 L 32 176 L 36 176 L 48 176 L 52 176 L 60 176 L 60 184 L 60 188 L 64 188 L 152 188 L 156 188 L 156 184 L 156 176 L 160 176 L 176 176 L 180 176 L 184 176 L 188 176 L 192 176 L 196 176 L 204 176 L 208 176 L 216 176 L 220 176 L 228 176 L 232 176 L 232 172 L 232 164 L 232 160 L 232 152 L 232 148 L 232 140 L 232 136 L 232 128 L 232 124 L 228 124 Z"/>
    <path id="path3" fill="#ffffff" stroke="none" d="M 28 84 L 32 84 L 32 68 L 28 68 Z"/>
    <path id="path4" fill="#ffffff" stroke="none" d="M 36 84 L 40 84 L 40 68 L 36 68 Z"/>
    <path id="path5" fill="#ffffff" stroke="none" d="M 44 84 L 48 84 L 48 68 L 44 68 Z"/>
    <path id="path6" fill="#ffffff" stroke="none" d="M 52 84 L 56 84 L 56 68 L 52 68 Z"/>
    <path id="path7" fill="#ffffff" stroke="none" d="M 136 72 L 136 68 L 132 68 L 132 72 L 132 84 L 136 84 Z"/>
    <path id="path8" fill="#ffffff" stroke="none" d="M 144 72 L 144 68 L 140 68 L 140 72 L 140 84 L 144 84 Z"/>
    <path id="path9" fill="#ffffff" stroke="none" d="M 152 72 L 152 68 L 148 68 L 148 72 L 148 84 L 152 84 Z"/>
    <path id="path10" fill="#ffffff" stroke="none" d="M 160 72 L 160 68 L 156 68 L 156 72 L 156 84 L 160 84 Z"/>
    <path id="path11" fill="#ffffff" stroke="none" d="M 168 68 L 164 68 L 164 84 L 168 84 Z"/>
    <path id="path12" fill="#ffffff" stroke="none" d="M 184 68 L 180 68 L 180 84 L 184 84 Z"/>
    <path id="path13" fill="#ffffff" stroke="none" d="M 192 68 L 188 68 L 188 84 L 192 84 Z"/>
    <path id="path14" fill="#ffffff" stroke="none" d="M 200 68 L 196 68 L 196 84 L 200 84 Z"/>
    <path id="path15" fill="#ffffff" stroke="none" d="M 208 68 L 204 68 L 204 84 L 208 84 Z"/>
    <path id="path16" fill="#ffffff" stroke="none" d="M 216 68 L 212 68 L 212 84 L 216 84 Z"/>
    <path id="path17" fill="#ffffff" stroke="none" d="M 224 68 L 220 68 L 220 84 L 224 84 Z"/>
    <path id="path18" fill="#ffffff" stroke="none" d="M 60 72 L 60 84 L 64 84 L 64 72 L 64 68 L 60 68 Z"/>
    <path id="path19" fill="#ffffff" stroke="none" d="M 68 72 L 68 84 L 72 84 L 72 72 L 72 68 L 68 68 Z"/>
    <path id="path20" fill="#ffffff" stroke="none" d="M 76 72 L 76 84 L 80 84 L 80 72 L 80 68 L 76 68 Z"/>
    <path id="path21" fill="#ffffff" stroke="none" d="M 84 72 L 84 84 L 88 84 L 88 72 L 88 68 L 84 68 Z"/>
    <path id="path22" fill="#ffffff" stroke="none" d="M 92 72 L 92 84 L 96 84 L 96 72 L 96 68 L 92 68 Z"/>
    <path id="path23" fill="#ffffff" stroke="none" d="M 100 72 L 100 84 L 104 84 L 104 72 L 104 68 L 100 68 Z"/>
    <path id="path24" fill="#ffffff" stroke="none" d="M 108 72 L 108 84 L 112 84 L 112 72 L 112 68 L 108 68 Z"/>
    <path id="path25" fill="#ffffff" stroke="none" d="M 116 72 L 116 84 L 120 84 L 120 72 L 120 68 L 116 68 Z"/>
    <path id="path26" fill="#ffffff" stroke="none" d="M 244 196 L 12 196 L 12 64 L 20 64 L 20 108 L 20 112 L 24 112 L 124 112 L 124 116 L 124 120 L 128 120 L 172 120 L 176 120 L 176 116 L 176 112 L 232 112 L 236 112 L 236 108 L 236 64 L 244 64 Z M 172 116 L 128 116 L 128 112 L 172 112 Z M 24 60 L 28 60 L 28 64 L 32 64 L 32 60 L 36 60 L 36 64 L 40 64 L 40 60 L 44 60 L 44 64 L 48 64 L 48 60 L 52 60 L 52 64 L 56 64 L 56 60 L 60 60 L 60 64 L 64 64 L 64 60 L 68 60 L 68 64 L 72 64 L 72 60 L 76 60 L 76 64 L 80 64 L 80 60 L 84 60 L 84 64 L 88 64 L 88 60 L 92 60 L 92 64 L 96 64 L 96 60 L 100 60 L 100 64 L 104 64 L 104 60 L 108 60 L 108 64 L 112 64 L 112 60 L 116 60 L 116 64 L 120 64 L 120 60 L 124 60 L 124 64 L 128 64 L 128 60 L 132 60 L 132 64 L 136 64 L 136 60 L 140 60 L 140 64 L 144 64 L 144 60 L 148 60 L 148 64 L 152 64 L 152 60 L 156 60 L 156 64 L 160 64 L 160 60 L 164 60 L 164 64 L 168 64 L 168 60 L 172 60 L 172 64 L 176 64 L 176 60 L 180 60 L 180 64 L 184 64 L 184 60 L 188 60 L 188 64 L 192 64 L 192 60 L 196 60 L 196 64 L 200 64 L 200 60 L 204 60 L 204 64 L 208 64 L 208 60 L 212 60 L 212 64 L 216 64 L 216 60 L 220 60 L 220 64 L 224 64 L 224 60 L 232 60 L 232 108 L 176 108 L 176 84 L 176 68 L 172 68 L 172 84 L 172 108 L 128 108 L 128 84 L 128 72 L 128 68 L 124 68 L 124 72 L 124 84 L 124 108 L 24 108 Z M 244 60 L 236 60 L 236 56 L 232 56 L 24 56 L 20 56 L 20 60 L 12 60 L 8 60 L 8 64 L 8 196 L 8 200 L 12 200 L 244 200 L 248 200 L 248 196 L 248 64 L 248 60 Z"/>
</svg>
