<?xml version="1.0" encoding="UTF-8"?>
<!-- Generated by Pixelmator Pro 3.7.1 -->
<svg width="256" height="256" viewBox="0 0 256 256" xmlns="http://www.w3.org/2000/svg">
    <path id="Path" fill="#ffffff" stroke="none" d="M 228 36 L 236 36 L 236 40 L 228 40 Z M 244 238.727997 C 244 241.643005 241.643997 244 238.727997 244 L 224 244 L 224 161.867004 C 224 156.425995 219.445007 152 213.845993 152 L 66.153999 152 C 60.555 152 56 156.425995 56 161.867004 L 56 244 L 33.091 244 L 12 217.636993 L 12 17.272003 C 12 14.356995 14.357 12 17.271999 12 L 32 12 L 32 122.199997 C 32 127.604004 36.222 132 41.411999 132 L 214.587997 132 C 219.778 132 224 127.604004 224 122.199997 L 224 44 L 240 44 L 240 32 L 224 32 L 224 12 L 238.727997 12 C 241.643997 12 244 14.356995 244 17.272003 Z M 192 244 L 192 171.272003 C 192 164.950989 187.927002 160 182.727997 160 L 77.272003 160 C 72.072998 160 68 164.950989 68 171.272003 L 68 244 L 60 244 L 60 161.867004 C 60 158.622009 62.750999 156 66.153999 156 L 213.845993 156 C 217.248993 156 220 158.622009 220 161.867004 L 220 244 Z M 72 244 L 72 171.272003 C 72 167.251007 74.357002 164 77.272003 164 L 182.727997 164 C 185.643997 164 188 167.251007 188 171.272003 L 188 244 Z M 220 12 L 220 122.199997 C 220 125.406998 217.580994 128 214.587997 128 L 41.411999 128 C 38.418999 128 36 125.406998 36 122.199997 L 36 12 Z M 238.727997 8 L 224 8 L 220 8 L 36 8 L 32 8 L 17.271999 8 C 12.16 8 8 12.160004 8 17.272003 L 8 217.636993 L 8 219.039001 L 8.876 220.134995 L 29.968 246.498993 L 31.167999 248 L 33.091 248 L 56 248 L 60 248 L 68 248 L 72 248 L 188 248 L 192 248 L 220 248 L 224 248 L 238.727997 248 C 243.839996 248 248 243.839996 248 238.727997 L 248 17.272003 C 248 12.160004 243.839996 8 238.727997 8"/>
    <path id="path1" fill="#ffffff" stroke="none" d="M 88 176 L 116 176 L 116 232 L 88 232 Z M 84 236 L 120 236 L 120 172 L 84 172 Z"/>
</svg>
