<?xml version="1.0" encoding="UTF-8"?>
<!-- Generated by Pixelmator Pro 3.7.1 -->
<svg width="256" height="256" viewBox="0 0 256 256" xmlns="http://www.w3.org/2000/svg">
    <g id="Group">
        <path id="Path" fill="#ffffff" stroke="none" d="M 36 128 L 32 128 L 24 128 L 24 124 L 36 124 Z M 39.999996 124 L 51.999996 124 L 51.999996 128 L 48 128 L 44 128 L 39.999996 128 Z M 56 124 L 68 124 L 68 128 L 59.999996 128 L 56 128 Z M 71.999992 124 L 83.999992 124 L 83.999992 128 L 80 128 L 71.999992 128 Z M 88 124 L 100 124 L 100 128 L 95.999992 128 L 92 128 L 88 128 Z M 104 140 L 100 140 L 95.999992 140 L 95.999992 132 L 100 132 L 104 132 Z M 107.999992 132 L 116 132 L 116 140 L 111.999992 140 L 107.999992 140 Z M 119.999992 132 L 128 132 L 128 140 L 123.999992 140 L 119.999992 140 Z M 132 132 L 140 132 L 140 140 L 135.999985 140 L 132 140 Z M 144 132 L 152 132 L 152 140 L 147.999985 140 L 144 140 Z M 156 132 L 164 132 L 164 140 L 159.999985 140 L 156 140 Z M 168 132 L 176 132 L 176 140 L 168 140 Z M 180 132 L 192 132 L 192 140 L 188 140 L 183.999985 140 L 180 140 Z M 195.999985 132 L 203.999985 132 L 203.999985 140 L 195.999985 140 Z M 207.999985 132 L 215.999985 132 L 215.999985 140 L 207.999985 140 Z M 219.999985 132 L 227.999985 132 L 227.999985 140 L 219.999985 140 Z M 227.999985 152 L 219.999985 152 L 219.999985 144 L 227.999985 144 Z M 227.999985 164 L 219.999985 164 L 219.999985 156 L 227.999985 156 Z M 227.999985 176 L 219.999985 176 L 219.999985 168 L 227.999985 168 Z M 215.999985 176 L 207.999985 176 L 207.999985 168 L 215.999985 168 Z M 203.999985 176 L 195.999985 176 L 195.999985 168 L 203.999985 168 Z M 192 176 L 188 176 L 188 168 L 192 168 Z M 183.999985 176 L 180 176 L 180 168 L 183.999985 168 Z M 176 176 L 159.999985 176 L 159.999985 168 L 164 168 L 176 168 Z M 156 176 L 152 176 L 147.999985 176 L 147.999985 168 L 152 168 L 156 168 Z M 152 188 L 63.999996 188 L 63.999996 180 L 71.999992 180 L 76 180 L 83.999992 180 L 88 180 L 95.999992 180 L 100 180 L 107.999992 180 L 111.999992 180 L 119.999992 180 L 123.999992 180 L 132 180 L 135.999985 180 L 144 180 L 147.999985 180 L 152 180 Z M 51.999996 176 L 51.999996 168 L 56 168 L 59.999996 168 L 59.999996 176 Z M 48 176 L 36 176 L 36 168 L 39.999996 168 L 44 168 L 48 168 Z M 32 176 L 24 176 L 24 168 L 28 168 L 32 168 Z M 24 156 L 28 156 L 28 164 L 24 164 Z M 24 144 L 32 144 L 36 144 L 36 152 L 32 152 L 28 152 L 24 152 Z M 44 140 L 39.999996 140 L 36 140 L 36 132 L 39.999996 132 L 44 132 Z M 56 140 L 51.999996 140 L 48 140 L 48 132 L 51.999996 132 L 56 132 Z M 68 140 L 63.999996 140 L 59.999996 140 L 59.999996 132 L 68 132 Z M 80 140 L 76 140 L 71.999992 140 L 71.999992 132 L 80 132 Z M 92 140 L 88 140 L 83.999992 140 L 83.999992 132 L 88 132 L 92 132 Z M 95.999992 152 L 92 152 L 88 152 L 88 144 L 92 144 L 95.999992 144 Z M 107.999992 152 L 104 152 L 100 152 L 100 144 L 104 144 L 107.999992 144 Z M 119.999992 152 L 116 152 L 111.999992 152 L 111.999992 144 L 116 144 L 119.999992 144 Z M 132 152 L 128 152 L 123.999992 152 L 123.999992 144 L 128 144 L 132 144 Z M 144 152 L 140 152 L 135.999985 152 L 135.999985 144 L 140 144 L 144 144 Z M 156 152 L 152 152 L 147.999985 152 L 147.999985 144 L 152 144 L 156 144 Z M 152 156 L 156 156 L 159.999985 156 L 159.999985 164 L 156 164 L 152 164 Z M 140 164 L 140 156 L 144 156 L 147.999985 156 L 147.999985 164 L 144 164 Z M 123.999992 168 L 128 168 L 132 168 L 132 176 L 123.999992 176 Z M 111.999992 168 L 116 168 L 119.999992 168 L 119.999992 176 L 111.999992 176 Z M 100 168 L 104 168 L 107.999992 168 L 107.999992 176 L 100 176 Z M 88 168 L 92 168 L 95.999992 168 L 95.999992 176 L 88 176 Z M 76 168 L 80 168 L 83.999992 168 L 83.999992 176 L 76 176 Z M 63.999996 168 L 68 168 L 71.999992 168 L 71.999992 176 L 63.999996 176 Z M 56 156 L 59.999996 156 L 63.999996 156 L 63.999996 164 L 59.999996 164 L 56 164 Z M 44 156 L 48 156 L 51.999996 156 L 51.999996 164 L 48 164 L 44 164 Z M 59.999996 152 L 56 152 L 51.999996 152 L 51.999996 144 L 56 144 L 59.999996 144 Z M 71.999992 152 L 68 152 L 63.999996 152 L 63.999996 144 L 68 144 L 71.999992 144 Z M 83.999992 152 L 80 152 L 76 152 L 76 144 L 80 144 L 83.999992 144 Z M 68 156 L 71.999992 156 L 76 156 L 76 164 L 71.999992 164 L 68 164 Z M 88 164 L 83.999992 164 L 80 164 L 80 156 L 83.999992 156 L 88 156 Z M 100 164 L 95.999992 164 L 92 164 L 92 156 L 95.999992 156 L 100 156 Z M 111.999992 164 L 107.999992 164 L 104 164 L 104 156 L 107.999992 156 L 111.999992 156 Z M 123.999992 164 L 119.999992 164 L 116 164 L 116 156 L 119.999992 156 L 123.999992 156 Z M 135.999985 164 L 132 164 L 128 164 L 128 156 L 132 156 L 135.999985 156 Z M 39.999996 144 L 44 144 L 48 144 L 48 152 L 44 152 L 39.999996 152 Z M 32 156 L 36 156 L 39.999996 156 L 39.999996 164 L 36 164 L 32 164 Z M 144 176 L 135.999985 176 L 135.999985 168 L 140 168 L 144 168 Z M 176 152 L 176 156 L 176 164 L 164 164 L 164 156 L 164 152 L 164 144 L 168 144 L 176 144 Z M 183.999985 152 L 180 152 L 180 144 L 183.999985 144 Z M 192 152 L 188 152 L 188 144 L 192 144 Z M 203.999985 152 L 195.999985 152 L 195.999985 144 L 203.999985 144 Z M 195.999985 156 L 203.999985 156 L 203.999985 164 L 195.999985 164 Z M 180 156 L 183.999985 156 L 188 156 L 192 156 L 192 164 L 188 164 L 183.999985 164 L 180 164 Z M 215.999985 164 L 207.999985 164 L 207.999985 156 L 215.999985 156 Z M 215.999985 152 L 207.999985 152 L 207.999985 144 L 215.999985 144 Z M 24 132 L 32 132 L 32 140 L 24 140 Z M 20 120 L 20 124 L 20 128 L 20 132 L 20 140 L 20 144 L 20 152 L 20 156 L 20 164 L 20 168 L 20 176 L 20 180 L 24 180 L 32 180 L 36 180 L 48 180 L 51.999996 180 L 59.999996 180 L 59.999996 188 L 59.999996 192 L 63.999996 192 L 152 192 L 156 192 L 156 188 L 156 180 L 159.999985 180 L 176 180 L 180 180 L 183.999985 180 L 188 180 L 192 180 L 195.999985 180 L 203.999985 180 L 207.999985 180 L 215.999985 180 L 219.999985 180 L 227.999985 180 L 231.999985 180 L 231.999985 176 L 231.999985 168 L 231.999985 164 L 231.999985 156 L 231.999985 152 L 231.999985 144 L 231.999985 140 L 231.999985 132 L 231.999985 128 L 227.999985 128 L 219.999985 128 L 215.999985 128 L 207.999985 128 L 203.999985 128 L 195.999985 128 L 192 128 L 180 128 L 176 128 L 168 128 L 164 128 L 156 128 L 152 128 L 144 128 L 140 128 L 132 128 L 128 128 L 119.999992 128 L 116 128 L 107.999992 128 L 104 128 L 104 124 L 104 120 L 100 120 L 88 120 L 83.999992 120 L 71.999992 120 L 68 120 L 56 120 L 51.999996 120 L 39.999996 120 L 36 120 L 24 120 Z"/>
        <path id="path1" fill="#ffffff" stroke="none" d="M 244 196 L 12 196 L 12 60 L 20 60 L 20 112 L 20 116 L 24 116 L 244 116 Z M 244 112 L 24 112 L 24 60 L 244 60 Z M 244 56 L 24 56 L 20 56 L 12 56 L 8 56 L 8 60 L 8 196 L 8 200 L 12 200 L 244 200 L 248 200 L 248 196 L 248 116 L 248 112 L 248 60 L 248 56 Z"/>
        <path id="path2" fill="#ffffff" stroke="none" d="M 156 64 L 152 64 L 152 68 L 156 68 Z"/>
        <path id="path3" fill="#ffffff" stroke="none" d="M 148 64 L 144 64 L 144 68 L 148 68 Z"/>
        <path id="path4" fill="#ffffff" stroke="none" d="M 140 64 L 135.999985 64 L 135.999985 68 L 140 68 Z"/>
        <path id="path5" fill="#ffffff" stroke="none" d="M 132 64 L 128 64 L 128 68 L 132 68 Z"/>
        <path id="path6" fill="#ffffff" stroke="none" d="M 123.999992 64 L 120 64 L 120 68 L 123.999992 68 Z"/>
        <path id="path7" fill="#ffffff" stroke="none" d="M 116 64 L 111.999992 64 L 111.999992 68 L 116 68 Z"/>
        <path id="path8" fill="#ffffff" stroke="none" d="M 108 64 L 104 64 L 104 68 L 108 68 Z"/>
        <path id="path9" fill="#ffffff" stroke="none" d="M 100 64 L 96 64 L 96 68 L 100 68 Z"/>
        <path id="path10" fill="#ffffff" stroke="none" d="M 92 64 L 88 64 L 88 68 L 92 68 Z"/>
        <path id="path11" fill="#ffffff" stroke="none" d="M 84 64 L 80 64 L 80 68 L 84 68 Z"/>
        <path id="path12" fill="#ffffff" stroke="none" d="M 76 64 L 72 64 L 72 68 L 76 68 Z"/>
        <path id="path13" fill="#ffffff" stroke="none" d="M 68 64 L 63.999996 64 L 63.999996 68 L 68 68 Z"/>
        <path id="path14" fill="#ffffff" stroke="none" d="M 59.999996 64 L 56 64 L 56 68 L 59.999996 68 Z"/>
        <path id="path15" fill="#ffffff" stroke="none" d="M 51.999996 64 L 48 64 L 48 68 L 51.999996 68 Z"/>
        <path id="path16" fill="#ffffff" stroke="none" d="M 44 64 L 39.999996 64 L 39.999996 68 L 44 68 Z"/>
        <path id="path17" fill="#ffffff" stroke="none" d="M 36 64 L 32 64 L 32 68 L 36 68 Z"/>
        <path id="path18" fill="#ffffff" stroke="none" d="M 156 72 L 152 72 L 152 76 L 156 76 Z"/>
        <path id="path19" fill="#ffffff" stroke="none" d="M 148 72 L 144 72 L 144 76 L 148 76 Z"/>
        <path id="path20" fill="#ffffff" stroke="none" d="M 140 72 L 135.999985 72 L 135.999985 76 L 140 76 Z"/>
        <path id="path21" fill="#ffffff" stroke="none" d="M 132 72 L 128 72 L 128 76 L 132 76 Z"/>
        <path id="path22" fill="#ffffff" stroke="none" d="M 123.999992 72 L 120 72 L 120 76 L 123.999992 76 Z"/>
        <path id="path23" fill="#ffffff" stroke="none" d="M 116 72 L 111.999992 72 L 111.999992 76 L 116 76 Z"/>
        <path id="path24" fill="#ffffff" stroke="none" d="M 108 72 L 104 72 L 104 76 L 108 76 Z"/>
        <path id="path25" fill="#ffffff" stroke="none" d="M 100 72 L 96 72 L 96 76 L 100 76 Z"/>
        <path id="path26" fill="#ffffff" stroke="none" d="M 92 72 L 88 72 L 88 76 L 92 76 Z"/>
        <path id="path27" fill="#ffffff" stroke="none" d="M 84 72 L 80 72 L 80 76 L 84 76 Z"/>
        <path id="path28" fill="#ffffff" stroke="none" d="M 76 72 L 72 72 L 72 76 L 76 76 Z"/>
        <path id="path29" fill="#ffffff" stroke="none" d="M 68 72 L 63.999996 72 L 63.999996 76 L 68 76 Z"/>
        <path id="path30" fill="#ffffff" stroke="none" d="M 59.999996 72 L 56 72 L 56 76 L 59.999996 76 Z"/>
        <path id="path31" fill="#ffffff" stroke="none" d="M 51.999996 72 L 48 72 L 48 76 L 51.999996 76 Z"/>
        <path id="path32" fill="#ffffff" stroke="none" d="M 44 72 L 39.999996 72 L 39.999996 76 L 44 76 Z"/>
        <path id="path33" fill="#ffffff" stroke="none" d="M 36 72 L 32 72 L 32 76 L 36 76 Z"/>
        <path id="path34" fill="#ffffff" stroke="none" d="M 100 80 L 96 80 L 96 84 L 100 84 Z"/>
        <path id="path35" fill="#ffffff" stroke="none" d="M 92 80 L 88 80 L 88 84 L 92 84 Z"/>
        <path id="path36" fill="#ffffff" stroke="none" d="M 84 80 L 80 80 L 80 84 L 84 84 Z"/>
        <path id="path37" fill="#ffffff" stroke="none" d="M 76 80 L 72 80 L 72 84 L 76 84 Z"/>
        <path id="path38" fill="#ffffff" stroke="none" d="M 68 80 L 63.999996 80 L 63.999996 84 L 68 84 Z"/>
        <path id="path39" fill="#ffffff" stroke="none" d="M 59.999996 80 L 56 80 L 56 84 L 59.999996 84 Z"/>
        <path id="path40" fill="#ffffff" stroke="none" d="M 51.999996 80 L 48 80 L 48 84 L 51.999996 84 Z"/>
        <path id="path41" fill="#ffffff" stroke="none" d="M 44 80 L 39.999996 80 L 39.999996 84 L 44 84 Z"/>
        <path id="path42" fill="#ffffff" stroke="none" d="M 36 80 L 32 80 L 32 84 L 36 84 Z"/>
        <path id="path43" fill="#ffffff" stroke="none" d="M 100 88 L 96 88 L 96 92 L 100 92 Z"/>
        <path id="path44" fill="#ffffff" stroke="none" d="M 92 88 L 88 88 L 88 92 L 92 92 Z"/>
        <path id="path45" fill="#ffffff" stroke="none" d="M 84 88 L 80 88 L 80 92 L 84 92 Z"/>
        <path id="path46" fill="#ffffff" stroke="none" d="M 76 88 L 72 88 L 72 92 L 76 92 Z"/>
        <path id="path47" fill="#ffffff" stroke="none" d="M 68 88 L 63.999996 88 L 63.999996 92 L 68 92 Z"/>
        <path id="path48" fill="#ffffff" stroke="none" d="M 59.999996 88 L 56 88 L 56 92 L 59.999996 92 Z"/>
        <path id="path49" fill="#ffffff" stroke="none" d="M 51.999996 88 L 48 88 L 48 92 L 51.999996 92 Z"/>
        <path id="path50" fill="#ffffff" stroke="none" d="M 44 88 L 39.999996 88 L 39.999996 92 L 44 92 Z"/>
        <path id="path51" fill="#ffffff" stroke="none" d="M 36 88 L 32 88 L 32 92 L 36 92 Z"/>
        <path id="path52" fill="#ffffff" stroke="none" d="M 100 96 L 96 96 L 96 100 L 100 100 Z"/>
        <path id="path53" fill="#ffffff" stroke="none" d="M 92 96 L 88 96 L 88 100 L 92 100 Z"/>
        <path id="path54" fill="#ffffff" stroke="none" d="M 84 96 L 80 96 L 80 100 L 84 100 Z"/>
        <path id="path55" fill="#ffffff" stroke="none" d="M 76 96 L 72 96 L 72 100 L 76 100 Z"/>
        <path id="path56" fill="#ffffff" stroke="none" d="M 68 96 L 63.999996 96 L 63.999996 100 L 68 100 Z"/>
        <path id="path57" fill="#ffffff" stroke="none" d="M 59.999996 96 L 56 96 L 56 100 L 59.999996 100 Z"/>
        <path id="path58" fill="#ffffff" stroke="none" d="M 51.999996 96 L 48 96 L 48 100 L 51.999996 100 Z"/>
        <path id="path59" fill="#ffffff" stroke="none" d="M 44 96 L 39.999996 96 L 39.999996 100 L 44 100 Z"/>
        <path id="path60" fill="#ffffff" stroke="none" d="M 36 96 L 32 96 L 32 100 L 36 100 Z"/>
        <path id="path61" fill="#ffffff" stroke="none" d="M 100 104 L 96 104 L 96 108 L 100 108 Z"/>
        <path id="path62" fill="#ffffff" stroke="none" d="M 92 104 L 88 104 L 88 108 L 92 108 Z"/>
        <path id="path63" fill="#ffffff" stroke="none" d="M 84 104 L 80 104 L 80 108 L 84 108 Z"/>
        <path id="path64" fill="#ffffff" stroke="none" d="M 76 104 L 72 104 L 72 108 L 76 108 Z"/>
        <path id="path65" fill="#ffffff" stroke="none" d="M 68 104 L 63.999996 104 L 63.999996 108 L 68 108 Z"/>
        <path id="path66" fill="#ffffff" stroke="none" d="M 59.999996 104 L 56 104 L 56 108 L 59.999996 108 Z"/>
        <path id="path67" fill="#ffffff" stroke="none" d="M 51.999996 104 L 48 104 L 48 108 L 51.999996 108 Z"/>
        <path id="path68" fill="#ffffff" stroke="none" d="M 44 104 L 39.999996 104 L 39.999996 108 L 44 108 Z"/>
        <path id="path69" fill="#ffffff" stroke="none" d="M 36 104 L 32 104 L 32 108 L 36 108 Z"/>
        <path id="path70" fill="#ffffff" stroke="none" d="M 107.999992 88 L 152 88 L 152 96 L 107.999992 96 Z M 227.999985 96 L 156 96 L 156 88 L 227.999985 88 Z M 107.999992 100 L 152 100 L 152 104 L 156 104 L 156 100 L 227.999985 100 L 231.999985 100 L 231.999985 96 L 231.999985 88 L 231.999985 84 L 227.999985 84 L 227.999985 64 L 224 64 L 224 84 L 219.999985 84 L 219.999985 64 L 215.999985 64 L 215.999985 84 L 212 84 L 212 64 L 207.999985 64 L 207.999985 84 L 203.999985 84 L 203.999985 64 L 200 64 L 200 84 L 195.999985 84 L 195.999985 64 L 192 64 L 192 84 L 188 84 L 188 64 L 183.999985 64 L 183.999985 84 L 180 84 L 180 64 L 176 64 L 176 84 L 171.999985 84 L 171.999985 64 L 168 64 L 168 84 L 164 84 L 164 64 L 159.999985 64 L 159.999985 84 L 156 84 L 156 80 L 152 80 L 152 84 L 147.999985 84 L 147.999985 80 L 144 80 L 144 84 L 140 84 L 140 80 L 135.999985 80 L 135.999985 84 L 132 84 L 132 80 L 128 80 L 128 84 L 123.999992 84 L 123.999992 80 L 119.999992 80 L 119.999992 84 L 116 84 L 116 80 L 111.999992 80 L 111.999992 84 L 107.999992 84 L 107.999992 80 L 104 80 L 104 84 L 104 88 L 104 96 L 104 100 L 104 104 L 107.999992 104 Z"/>
        <path id="path71" fill="#ffffff" stroke="none" d="M 108 108 L 152 108 L 152 104 L 108 104 Z"/>
    </g>
</svg>
