<?xml version="1.0" encoding="UTF-8"?>
<!-- Generated by Pixelmator Pro 3.7.1 -->
<svg width="256" height="256" viewBox="0 0 256 256" xmlns="http://www.w3.org/2000/svg">
    <path id="Path" fill="#ffffff" stroke="none" d="M 36 128 L 32 128 L 24 128 L 24 124 L 36 124 Z M 40 124 L 52 124 L 52 128 L 48 128 L 44 128 L 40 128 Z M 56 124 L 68 124 L 68 128 L 60 128 L 56 128 Z M 72 124 L 84 124 L 84 128 L 80 128 L 72 128 Z M 88 124 L 100 124 L 100 128 L 96 128 L 92 128 L 88 128 Z M 104 140 L 100 140 L 96 140 L 96 132 L 100 132 L 104 132 Z M 108 132 L 116 132 L 116 140 L 112 140 L 108 140 Z M 120 132 L 128 132 L 128 140 L 124 140 L 120 140 Z M 132 132 L 140 132 L 140 140 L 136 140 L 132 140 Z M 144 132 L 152 132 L 152 140 L 148 140 L 144 140 Z M 156 132 L 164 132 L 164 140 L 160 140 L 156 140 Z M 168 132 L 176 132 L 176 140 L 168 140 Z M 180 132 L 192 132 L 192 140 L 188 140 L 184 140 L 180 140 Z M 196 132 L 204 132 L 204 140 L 196 140 Z M 208 132 L 216 132 L 216 140 L 208 140 Z M 220 132 L 228 132 L 228 140 L 220 140 Z M 228 152 L 220 152 L 220 144 L 228 144 Z M 228 164 L 220 164 L 220 156 L 228 156 Z M 228 176 L 220 176 L 220 168 L 228 168 Z M 216 176 L 208 176 L 208 168 L 216 168 Z M 204 176 L 196 176 L 196 168 L 204 168 Z M 192 176 L 188 176 L 188 168 L 192 168 Z M 184 176 L 180 176 L 180 168 L 184 168 Z M 176 176 L 160 176 L 160 168 L 164 168 L 176 168 Z M 156 176 L 152 176 L 148 176 L 148 168 L 152 168 L 156 168 Z M 152 188 L 64 188 L 64 180 L 72 180 L 76 180 L 84 180 L 88 180 L 96 180 L 100 180 L 108 180 L 112 180 L 120 180 L 124 180 L 132 180 L 136 180 L 144 180 L 148 180 L 152 180 Z M 52 176 L 52 168 L 56 168 L 60 168 L 60 176 Z M 48 176 L 36 176 L 36 168 L 40 168 L 44 168 L 48 168 Z M 32 176 L 24 176 L 24 168 L 28 168 L 32 168 Z M 24 156 L 28 156 L 28 164 L 24 164 Z M 24 144 L 32 144 L 36 144 L 36 152 L 32 152 L 28 152 L 24 152 Z M 44 140 L 40 140 L 36 140 L 36 132 L 40 132 L 44 132 Z M 56 140 L 52 140 L 48 140 L 48 132 L 52 132 L 56 132 Z M 68 140 L 64 140 L 60 140 L 60 132 L 68 132 Z M 80 140 L 76 140 L 72 140 L 72 132 L 80 132 Z M 92 140 L 88 140 L 84 140 L 84 132 L 88 132 L 92 132 Z M 96 152 L 92 152 L 88 152 L 88 144 L 92 144 L 96 144 Z M 108 152 L 104 152 L 100 152 L 100 144 L 104 144 L 108 144 Z M 120 152 L 116 152 L 112 152 L 112 144 L 116 144 L 120 144 Z M 132 152 L 128 152 L 124 152 L 124 144 L 128 144 L 132 144 Z M 144 152 L 140 152 L 136 152 L 136 144 L 140 144 L 144 144 Z M 156 152 L 152 152 L 148 152 L 148 144 L 152 144 L 156 144 Z M 152 156 L 156 156 L 160 156 L 160 164 L 156 164 L 152 164 Z M 140 164 L 140 156 L 144 156 L 148 156 L 148 164 L 144 164 Z M 124 168 L 128 168 L 132 168 L 132 176 L 124 176 Z M 112 168 L 116 168 L 120 168 L 120 176 L 112 176 Z M 100 168 L 104 168 L 108 168 L 108 176 L 100 176 Z M 88 168 L 92 168 L 96 168 L 96 176 L 88 176 Z M 76 168 L 80 168 L 84 168 L 84 176 L 76 176 Z M 64 168 L 68 168 L 72 168 L 72 176 L 64 176 Z M 56 156 L 60 156 L 64 156 L 64 164 L 60 164 L 56 164 Z M 44 156 L 48 156 L 52 156 L 52 164 L 48 164 L 44 164 Z M 60 152 L 56 152 L 52 152 L 52 144 L 56 144 L 60 144 Z M 72 152 L 68 152 L 64 152 L 64 144 L 68 144 L 72 144 Z M 84 152 L 80 152 L 76 152 L 76 144 L 80 144 L 84 144 Z M 68 156 L 72 156 L 76 156 L 76 164 L 72 164 L 68 164 Z M 88 164 L 84 164 L 80 164 L 80 156 L 84 156 L 88 156 Z M 100 164 L 96 164 L 92 164 L 92 156 L 96 156 L 100 156 Z M 112 164 L 108 164 L 104 164 L 104 156 L 108 156 L 112 156 Z M 124 164 L 120 164 L 116 164 L 116 156 L 120 156 L 124 156 Z M 136 164 L 132 164 L 128 164 L 128 156 L 132 156 L 136 156 Z M 40 144 L 44 144 L 48 144 L 48 152 L 44 152 L 40 152 Z M 32 156 L 36 156 L 40 156 L 40 164 L 36 164 L 32 164 Z M 144 176 L 136 176 L 136 168 L 140 168 L 144 168 Z M 176 152 L 176 156 L 176 164 L 164 164 L 164 156 L 164 152 L 164 144 L 168 144 L 176 144 Z M 184 152 L 180 152 L 180 144 L 184 144 Z M 192 152 L 188 152 L 188 144 L 192 144 Z M 204 152 L 196 152 L 196 144 L 204 144 Z M 196 156 L 204 156 L 204 164 L 196 164 Z M 180 156 L 184 156 L 188 156 L 192 156 L 192 164 L 188 164 L 184 164 L 180 164 Z M 216 164 L 208 164 L 208 156 L 216 156 Z M 216 152 L 208 152 L 208 144 L 216 144 Z M 24 132 L 32 132 L 32 140 L 24 140 Z M 20 120 L 20 124 L 20 128 L 20 132 L 20 140 L 20 144 L 20 152 L 20 156 L 20 164 L 20 168 L 20 176 L 20 180 L 24 180 L 32 180 L 36 180 L 48 180 L 52 180 L 60 180 L 60 188 L 60 192 L 64 192 L 152 192 L 156 192 L 156 188 L 156 180 L 160 180 L 176 180 L 180 180 L 184 180 L 188 180 L 192 180 L 196 180 L 204 180 L 208 180 L 216 180 L 220 180 L 228 180 L 232 180 L 232 176 L 232 168 L 232 164 L 232 156 L 232 152 L 232 144 L 232 140 L 232 132 L 232 128 L 228 128 L 220 128 L 216 128 L 208 128 L 204 128 L 196 128 L 192 128 L 180 128 L 176 128 L 168 128 L 164 128 L 156 128 L 152 128 L 144 128 L 140 128 L 132 128 L 128 128 L 120 128 L 116 128 L 108 128 L 104 128 L 104 124 L 104 120 L 100 120 L 88 120 L 84 120 L 72 120 L 68 120 L 56 120 L 52 120 L 40 120 L 36 120 L 24 120 Z"/>
    <path id="path1" fill="#ffffff" stroke="none" d="M 244 196 L 12 196 L 12 60 L 20 60 L 20 112 L 20 116 L 24 116 L 244 116 Z M 244 112 L 24 112 L 24 60 L 244 60 Z M 244 56 L 24 56 L 20 56 L 12 56 L 8 56 L 8 60 L 8 196 L 8 200 L 12 200 L 244 200 L 248 200 L 248 196 L 248 116 L 248 112 L 248 60 L 248 56 Z"/>
    <path id="path2" fill="#ffffff" stroke="none" d="M 156 64 L 152 64 L 152 68 L 156 68 Z"/>
    <path id="path3" fill="#ffffff" stroke="none" d="M 148 64 L 144 64 L 144 68 L 148 68 Z"/>
    <path id="path4" fill="#ffffff" stroke="none" d="M 140 64 L 136 64 L 136 68 L 140 68 Z"/>
    <path id="path5" fill="#ffffff" stroke="none" d="M 132 64 L 128 64 L 128 68 L 132 68 Z"/>
    <path id="path6" fill="#ffffff" stroke="none" d="M 124 64 L 120 64 L 120 68 L 124 68 Z"/>
    <path id="path7" fill="#ffffff" stroke="none" d="M 116 64 L 112 64 L 112 68 L 116 68 Z"/>
    <path id="path8" fill="#ffffff" stroke="none" d="M 108 64 L 104 64 L 104 68 L 108 68 Z"/>
    <path id="path9" fill="#ffffff" stroke="none" d="M 100 64 L 96 64 L 96 68 L 100 68 Z"/>
    <path id="path10" fill="#ffffff" stroke="none" d="M 92 64 L 88 64 L 88 68 L 92 68 Z"/>
    <path id="path11" fill="#ffffff" stroke="none" d="M 84 64 L 80 64 L 80 68 L 84 68 Z"/>
    <path id="path12" fill="#ffffff" stroke="none" d="M 76 64 L 72 64 L 72 68 L 76 68 Z"/>
    <path id="path13" fill="#ffffff" stroke="none" d="M 68 64 L 64 64 L 64 68 L 68 68 Z"/>
    <path id="path14" fill="#ffffff" stroke="none" d="M 60 64 L 56 64 L 56 68 L 60 68 Z"/>
    <path id="path15" fill="#ffffff" stroke="none" d="M 52 64 L 48 64 L 48 68 L 52 68 Z"/>
    <path id="path16" fill="#ffffff" stroke="none" d="M 44 64 L 40 64 L 40 68 L 44 68 Z"/>
    <path id="path17" fill="#ffffff" stroke="none" d="M 36 64 L 32 64 L 32 68 L 36 68 Z"/>
    <path id="path18" fill="#ffffff" stroke="none" d="M 156 72 L 152 72 L 152 76 L 156 76 Z"/>
    <path id="path19" fill="#ffffff" stroke="none" d="M 148 72 L 144 72 L 144 76 L 148 76 Z"/>
    <path id="path20" fill="#ffffff" stroke="none" d="M 140 72 L 136 72 L 136 76 L 140 76 Z"/>
    <path id="path21" fill="#ffffff" stroke="none" d="M 132 72 L 128 72 L 128 76 L 132 76 Z"/>
    <path id="path22" fill="#ffffff" stroke="none" d="M 124 72 L 120 72 L 120 76 L 124 76 Z"/>
    <path id="path23" fill="#ffffff" stroke="none" d="M 116 72 L 112 72 L 112 76 L 116 76 Z"/>
    <path id="path24" fill="#ffffff" stroke="none" d="M 108 72 L 104 72 L 104 76 L 108 76 Z"/>
    <path id="path25" fill="#ffffff" stroke="none" d="M 100 72 L 96 72 L 96 76 L 100 76 Z"/>
    <path id="path26" fill="#ffffff" stroke="none" d="M 92 72 L 88 72 L 88 76 L 92 76 Z"/>
    <path id="path27" fill="#ffffff" stroke="none" d="M 84 72 L 80 72 L 80 76 L 84 76 Z"/>
    <path id="path28" fill="#ffffff" stroke="none" d="M 76 72 L 72 72 L 72 76 L 76 76 Z"/>
    <path id="path29" fill="#ffffff" stroke="none" d="M 68 72 L 64 72 L 64 76 L 68 76 Z"/>
    <path id="path30" fill="#ffffff" stroke="none" d="M 60 72 L 56 72 L 56 76 L 60 76 Z"/>
    <path id="path31" fill="#ffffff" stroke="none" d="M 52 72 L 48 72 L 48 76 L 52 76 Z"/>
    <path id="path32" fill="#ffffff" stroke="none" d="M 44 72 L 40 72 L 40 76 L 44 76 Z"/>
    <path id="path33" fill="#ffffff" stroke="none" d="M 36 72 L 32 72 L 32 76 L 36 76 Z"/>
    <path id="path34" fill="#ffffff" stroke="none" d="M 100 80 L 96 80 L 96 84 L 100 84 Z"/>
    <path id="path35" fill="#ffffff" stroke="none" d="M 92 80 L 88 80 L 88 84 L 92 84 Z"/>
    <path id="path36" fill="#ffffff" stroke="none" d="M 84 80 L 80 80 L 80 84 L 84 84 Z"/>
    <path id="path37" fill="#ffffff" stroke="none" d="M 76 80 L 72 80 L 72 84 L 76 84 Z"/>
    <path id="path38" fill="#ffffff" stroke="none" d="M 68 80 L 64 80 L 64 84 L 68 84 Z"/>
    <path id="path39" fill="#ffffff" stroke="none" d="M 60 80 L 56 80 L 56 84 L 60 84 Z"/>
    <path id="path40" fill="#ffffff" stroke="none" d="M 52 80 L 48 80 L 48 84 L 52 84 Z"/>
    <path id="path41" fill="#ffffff" stroke="none" d="M 44 80 L 40 80 L 40 84 L 44 84 Z"/>
    <path id="path42" fill="#ffffff" stroke="none" d="M 36 80 L 32 80 L 32 84 L 36 84 Z"/>
    <path id="path43" fill="#ffffff" stroke="none" d="M 100 88 L 96 88 L 96 92 L 100 92 Z"/>
    <path id="path44" fill="#ffffff" stroke="none" d="M 92 88 L 88 88 L 88 92 L 92 92 Z"/>
    <path id="path45" fill="#ffffff" stroke="none" d="M 84 88 L 80 88 L 80 92 L 84 92 Z"/>
    <path id="path46" fill="#ffffff" stroke="none" d="M 76 88 L 72 88 L 72 92 L 76 92 Z"/>
    <path id="path47" fill="#ffffff" stroke="none" d="M 68 88 L 64 88 L 64 92 L 68 92 Z"/>
    <path id="path48" fill="#ffffff" stroke="none" d="M 60 88 L 56 88 L 56 92 L 60 92 Z"/>
    <path id="path49" fill="#ffffff" stroke="none" d="M 52 88 L 48 88 L 48 92 L 52 92 Z"/>
    <path id="path50" fill="#ffffff" stroke="none" d="M 44 88 L 40 88 L 40 92 L 44 92 Z"/>
    <path id="path51" fill="#ffffff" stroke="none" d="M 36 88 L 32 88 L 32 92 L 36 92 Z"/>
    <path id="path52" fill="#ffffff" stroke="none" d="M 100 96 L 96 96 L 96 100 L 100 100 Z"/>
    <path id="path53" fill="#ffffff" stroke="none" d="M 92 96 L 88 96 L 88 100 L 92 100 Z"/>
    <path id="path54" fill="#ffffff" stroke="none" d="M 84 96 L 80 96 L 80 100 L 84 100 Z"/>
    <path id="path55" fill="#ffffff" stroke="none" d="M 76 96 L 72 96 L 72 100 L 76 100 Z"/>
    <path id="path56" fill="#ffffff" stroke="none" d="M 68 96 L 64 96 L 64 100 L 68 100 Z"/>
    <path id="path57" fill="#ffffff" stroke="none" d="M 60 96 L 56 96 L 56 100 L 60 100 Z"/>
    <path id="path58" fill="#ffffff" stroke="none" d="M 52 96 L 48 96 L 48 100 L 52 100 Z"/>
    <path id="path59" fill="#ffffff" stroke="none" d="M 44 96 L 40 96 L 40 100 L 44 100 Z"/>
    <path id="path60" fill="#ffffff" stroke="none" d="M 36 96 L 32 96 L 32 100 L 36 100 Z"/>
    <path id="path61" fill="#ffffff" stroke="none" d="M 100 104 L 96 104 L 96 108 L 100 108 Z"/>
    <path id="path62" fill="#ffffff" stroke="none" d="M 92 104 L 88 104 L 88 108 L 92 108 Z"/>
    <path id="path63" fill="#ffffff" stroke="none" d="M 84 104 L 80 104 L 80 108 L 84 108 Z"/>
    <path id="path64" fill="#ffffff" stroke="none" d="M 76 104 L 72 104 L 72 108 L 76 108 Z"/>
    <path id="path65" fill="#ffffff" stroke="none" d="M 68 104 L 64 104 L 64 108 L 68 108 Z"/>
    <path id="path66" fill="#ffffff" stroke="none" d="M 60 104 L 56 104 L 56 108 L 60 108 Z"/>
    <path id="path67" fill="#ffffff" stroke="none" d="M 52 104 L 48 104 L 48 108 L 52 108 Z"/>
    <path id="path68" fill="#ffffff" stroke="none" d="M 44 104 L 40 104 L 40 108 L 44 108 Z"/>
    <path id="path69" fill="#ffffff" stroke="none" d="M 36 104 L 32 104 L 32 108 L 36 108 Z"/>
    <path id="path70" fill="#ffffff" stroke="none" d="M 108 88 L 152 88 L 152 96 L 108 96 Z M 228 96 L 156 96 L 156 88 L 228 88 Z M 108 100 L 152 100 L 152 104 L 156 104 L 156 100 L 228 100 L 232 100 L 232 96 L 232 88 L 232 84 L 228 84 L 228 64 L 224 64 L 224 84 L 220 84 L 220 64 L 216 64 L 216 84 L 212 84 L 212 64 L 208 64 L 208 84 L 204 84 L 204 64 L 200 64 L 200 84 L 196 84 L 196 64 L 192 64 L 192 84 L 188 84 L 188 64 L 184 64 L 184 84 L 180 84 L 180 64 L 176 64 L 176 84 L 172 84 L 172 64 L 168 64 L 168 84 L 164 84 L 164 64 L 160 64 L 160 84 L 156 84 L 156 80 L 152 80 L 152 84 L 148 84 L 148 80 L 144 80 L 144 84 L 140 84 L 140 80 L 136 80 L 136 84 L 132 84 L 132 80 L 128 80 L 128 84 L 124 84 L 124 80 L 120 80 L 120 84 L 116 84 L 116 80 L 112 80 L 112 84 L 108 84 L 108 80 L 104 80 L 104 84 L 104 88 L 104 96 L 104 100 L 104 104 L 108 104 Z"/>
    <path id="path71" fill="#ffffff" stroke="none" d="M 108 108 L 152 108 L 152 104 L 108 104 Z"/>
</svg>
