<?xml version="1.0" encoding="UTF-8"?>
<!-- Generated by Pixelmator Pro 3.7.1 -->
<svg width="256" height="256" viewBox="0 0 256 256" xmlns="http://www.w3.org/2000/svg">
    <path id="Path" fill="#ffffff" stroke="none" d="M 244 208 L 172 208 L 172 204 L 168 204 L 168 208 L 160 208 L 160 204 L 156 204 L 156 208 L 148 208 L 148 204 L 144 204 L 144 208 L 136 208 L 136 204 L 132 204 L 132 208 L 124 208 L 124 204 L 120 204 L 120 208 L 112 208 L 112 204 L 108 204 L 108 208 L 100 208 L 100 204 L 96 204 L 96 208 L 88 208 L 88 204 L 84 204 L 84 208 L 40 208 L 12 208 L 12 48 L 48 48 L 48 52 L 48 72 L 48 76 L 52 76 L 204 76 L 208 76 L 208 72 L 208 52 L 208 48 L 244 48 Z M 204 72 L 52 72 L 52 52 L 204 52 Z M 244 44 L 208 44 L 204 44 L 204 48 L 52 48 L 52 44 L 48 44 L 12 44 L 8 44 L 8 48 L 8 208 L 8 212 L 12 212 L 40 212 L 84 212 L 88 212 L 96 212 L 100 212 L 108 212 L 112 212 L 120 212 L 124 212 L 132 212 L 136 212 L 144 212 L 148 212 L 156 212 L 160 212 L 168 212 L 172 212 L 244 212 L 248 212 L 248 208 L 248 48 L 248 44 Z"/>
    <path id="path1" fill="#ffffff" stroke="none" d="M 40 100 L 220 100 L 220 176 L 40 176 Z M 36 180 L 224 180 L 224 96 L 36 96 Z"/>
</svg>
