<?xml version="1.0" encoding="UTF-8"?>
<!-- Generated by Pixelmator Pro 3.7.1 -->
<svg width="256" height="256" viewBox="0 0 256 256" xmlns="http://www.w3.org/2000/svg">
    <path id="Path" fill="#ffffff" stroke="none" d="M 236 180 L 228 180 L 228 60 L 236 60 Z M 208 184 L 208 200 L 64 200 L 64 184 L 48 184 L 48 40 L 60 40 L 60 52 L 60 56 L 60 136 L 60 140 L 64 140 L 208 140 L 212 140 L 212 136 L 212 56 L 212 52 L 212 40 L 224 40 L 224 56 L 224 60 L 224 184 Z M 220 196 L 212 196 L 212 188 L 220 188 Z M 208 216 L 64 216 L 64 204 L 208 204 Z M 64 56 L 208 56 L 208 136 L 64 136 Z M 208 52 L 64 52 L 64 40 L 208 40 Z M 44 132 L 32 132 L 32 116 L 16 116 L 16 68 L 32 68 L 32 116 L 44 116 Z M 228 56 L 228 40 L 228 36 L 224 36 L 208 36 L 48 36 L 44 36 L 44 40 L 44 112 L 36 112 L 36 68 L 36 64 L 32 64 L 16 64 L 12 64 L 12 68 L 12 116 L 12 120 L 16 120 L 28 120 L 28 132 L 28 136 L 32 136 L 44 136 L 44 184 L 44 188 L 48 188 L 60 188 L 60 216 L 60 220 L 64 220 L 208 220 L 212 220 L 212 216 L 212 200 L 224 200 L 224 188 L 228 188 L 228 184 L 240 184 L 240 56 Z"/>
    <path id="path1" fill="#ffffff" stroke="none" d="M 128 104 L 112 104 L 112 120 L 96 120 L 96 104 L 80 104 L 80 72 L 96 72 L 96 88 L 112 88 L 112 72 L 128 72 Z M 112 68 L 108 68 L 108 72 L 108 84 L 100 84 L 100 72 L 100 68 L 96 68 L 80 68 L 76 68 L 76 72 L 76 104 L 76 108 L 80 108 L 92 108 L 92 120 L 92 124 L 96 124 L 112 124 L 116 124 L 116 120 L 116 108 L 128 108 L 132 108 L 132 104 L 132 72 L 132 68 L 128 68 Z"/>
    <path id="path2" fill="#ffffff" stroke="none" d="M 192 104 L 176 104 L 176 120 L 160 120 L 160 104 L 144 104 L 144 72 L 160 72 L 160 88 L 176 88 L 176 72 L 192 72 Z M 176 68 L 172 68 L 172 72 L 172 84 L 164 84 L 164 72 L 164 68 L 160 68 L 144 68 L 140 68 L 140 72 L 140 104 L 140 108 L 144 108 L 156 108 L 156 120 L 156 124 L 160 124 L 176 124 L 180 124 L 180 120 L 180 108 L 192 108 L 196 108 L 196 104 L 196 72 L 196 68 L 192 68 Z"/>
    <path id="path3" fill="#ffffff" stroke="none" d="M 176 168 L 160 168 L 160 184 L 112 184 L 112 168 L 96 168 L 96 152 L 176 152 Z M 96 148 L 92 148 L 92 152 L 92 168 L 92 172 L 96 172 L 108 172 L 108 184 L 108 188 L 112 188 L 160 188 L 164 188 L 164 184 L 164 172 L 176 172 L 180 172 L 180 168 L 180 152 L 180 148 L 176 148 Z"/>
</svg>
