<?xml version="1.0" encoding="UTF-8"?>
<!-- Generated by Pixelmator Pro 3.7.1 -->
<svg width="256" height="256" viewBox="0 0 256 256" xmlns="http://www.w3.org/2000/svg">
    <path id="Path" fill="#ffffff" stroke="none" d="M 240 128 L 224 128 L 224 144 L 208 144 L 208 208 L 196 208 L 196 32 L 208 32 L 208 128 L 224 128 L 224 80 L 240 80 Z M 192 224 L 180 224 L 176 224 L 128 224 L 80 224 L 32 224 L 28 224 L 16 224 L 16 212 L 192 212 Z M 176 240 L 128 240 L 128 228 L 176 228 Z M 80 240 L 32 240 L 32 228 L 80 228 Z M 16 204 L 16 32 L 28 32 L 32 32 L 192 32 L 192 208 L 16 208 Z M 32 16 L 192 16 L 192 28 L 32 28 Z M 240 76 L 224 76 L 220 76 L 220 80 L 220 124 L 212 124 L 212 32 L 212 28 L 208 28 L 196 28 L 196 16 L 196 12 L 192 12 L 32 12 L 28 12 L 28 16 L 28 28 L 16 28 L 12 28 L 12 32 L 12 204 L 12 208 L 12 224 L 12 228 L 16 228 L 28 228 L 28 240 L 28 244 L 32 244 L 80 244 L 84 244 L 84 240 L 84 228 L 124 228 L 124 240 L 124 244 L 128 244 L 176 244 L 180 244 L 180 240 L 180 228 L 192 228 L 196 228 L 196 224 L 196 212 L 208 212 L 212 212 L 212 208 L 212 148 L 224 148 L 228 148 L 228 144 L 228 132 L 240 132 L 244 132 L 244 128 L 244 80 L 244 76 Z"/>
    <path id="path1" fill="#ffffff" stroke="none" d="M 176 68 L 32 68 L 32 48 L 176 48 Z M 176 144 L 32 144 L 32 72 L 176 72 Z M 32 44 L 28 44 L 28 48 L 28 68 L 28 72 L 28 144 L 28 148 L 32 148 L 176 148 L 180 148 L 180 144 L 180 72 L 180 68 L 180 48 L 180 44 L 176 44 Z"/>
    <path id="path2" fill="#ffffff" stroke="none" d="M 128 80 L 144 80 L 144 128 L 128 128 Z M 144 132 L 148 132 L 148 128 L 148 80 L 148 76 L 144 76 L 128 76 L 124 76 L 124 80 L 124 128 L 124 132 L 128 132 Z"/>
    <path id="path3" fill="#ffffff" stroke="none" d="M 64 80 L 80 80 L 80 128 L 64 128 Z M 80 132 L 84 132 L 84 128 L 84 80 L 84 76 L 80 76 L 64 76 L 60 76 L 60 80 L 60 128 L 60 132 L 64 132 Z"/>
    <path id="path4" fill="#ffffff" stroke="none" d="M 144 176 L 128 176 L 128 192 L 80 192 L 80 176 L 64 176 L 64 160 L 80 160 L 80 176 L 128 176 L 128 160 L 144 160 Z M 128 156 L 124 156 L 124 160 L 124 172 L 84 172 L 84 160 L 84 156 L 80 156 L 64 156 L 60 156 L 60 160 L 60 176 L 60 180 L 64 180 L 76 180 L 76 192 L 76 196 L 80 196 L 128 196 L 132 196 L 132 192 L 132 180 L 144 180 L 148 180 L 148 176 L 148 160 L 148 156 L 144 156 Z"/>
</svg>
