<?xml version="1.0" encoding="UTF-8"?>
<!-- Generated by Pixelmator Pro 3.7.1 -->
<svg width="256" height="256" viewBox="0 0 256 256" xmlns="http://www.w3.org/2000/svg">
    <path id="Path" fill="#ffffff" stroke="none" d="M 243.577301 97.083206 L 240.960297 102.311203 C 240.405304 103.422195 240.115295 104.646194 240.115295 105.888199 L 240.115295 114.343201 C 240.115295 114.922195 239.979294 115.4832 239.743301 116.000198 L 236.111298 116.000198 L 208.000305 116.000198 L 204.680298 116.000198 L 204.068298 119.263199 L 192.068298 183.263199 L 191.831299 184.529205 L 164.037292 188.000198 L 128.00029 188.000198 L 91.963303 188.000198 L 66.474304 184.8172 L 62.828308 181.171204 C 60.548294 178.892197 60.009308 173.647202 60.000305 171.989197 C 60.000305 171.308197 59.949295 154.9552 55.577301 146.211197 C 50.530304 136.116211 40.427307 136.000198 40.000305 136.000198 L 16.000303 136.000198 L 12.491302 136.000198 C 12.195296 135.237198 12.080306 134.406204 12.184295 133.573212 L 15.584304 106.403198 C 15.780303 104.836197 15.507293 103.246201 14.800307 101.833206 L 12.422301 97.083206 C 12.069304 96.377197 11.933303 95.582199 12.031295 94.798203 L 15.884307 64.000198 L 20.000303 64.000198 L 20.000303 68.000198 C 20.000303 70.209198 21.791304 72.000198 24.000303 72.000198 L 24.000303 64.000198 L 128.00029 64.000198 L 232.000305 64.000198 L 232.000305 72.000198 C 234.209305 72.000198 236.000305 70.209198 236.000305 68.000198 L 236.000305 64.000198 L 240.115295 64.000198 L 243.969299 94.798203 C 244.067307 95.582199 243.931305 96.377197 243.577301 97.083206 M 235.678299 175.921204 C 235.884293 175.3172 236.000305 174.672195 236.000305 174.000198 L 236.000305 170.000198 C 236.000305 168.46521 235.420303 167.062195 234.468292 166.000198 C 235.420303 164.937195 236.000305 163.535202 236.000305 162.000198 L 236.000305 158.000198 C 236.000305 156.931198 235.719299 155.926208 235.227295 155.056198 C 236.893295 153.989197 238.000305 152.121201 238.000305 150.000198 L 238.000305 146.000198 C 238.000305 144.46521 237.420303 143.062195 236.468292 142.000198 C 237.068298 141.331207 237.496307 140.517197 237.748306 139.630203 L 240.115295 168.000198 C 240.115295 168.000198 240.114304 172.117188 235.678299 175.921204 M 200.041306 162.444199 C 200.143295 163.8022 200.673294 165.043198 201.531296 166.000198 C 200.5793 167.062195 200.000305 168.46521 200.000305 170.000198 L 200.000305 174.000198 C 200.000305 177.308197 202.691299 180.000198 206.000305 180.000198 L 214.000305 180.000198 C 215.535294 180.000198 216.937302 179.420197 218.000305 178.468201 C 219.062302 179.420197 220.464294 180.000198 222.000305 180.000198 L 228.103302 180.000198 L 196.030304 184.005188 L 196.000305 184.000198 Z M 202.142303 151.243195 C 202.270294 151.847198 202.477295 152.421204 202.7733 152.943207 C 202.361298 153.207199 201.984299 153.52121 201.6483 153.874207 Z M 214.000305 130.000198 C 211.514297 130.000198 209.500305 128.657196 209.500305 127.000198 C 209.500305 125.343201 211.514297 124.000198 214.000305 124.000198 C 216.485306 124.000198 218.500305 125.343201 218.500305 127.000198 C 218.500305 128.657196 216.485306 130.000198 214.000305 130.000198 M 216.000305 140.000198 L 208.000305 140.000198 C 206.895294 140.000198 206.000305 139.104202 206.000305 138.000198 L 206.000305 134.000198 C 206.000305 132.895203 206.895294 132.000198 208.000305 132.000198 L 216.000305 132.000198 C 217.104294 132.000198 218.000305 132.895203 218.000305 134.000198 L 218.000305 138.000198 C 218.000305 139.104202 217.104294 140.000198 216.000305 140.000198 M 208.000305 152.000198 C 206.895294 152.000198 206.000305 151.104202 206.000305 150.000198 L 206.000305 146.000198 C 206.000305 144.895203 206.895294 144.000198 208.000305 144.000198 L 216.000305 144.000198 C 217.104294 144.000198 218.000305 144.895203 218.000305 146.000198 L 218.000305 150.000198 C 218.000305 151.104202 217.104294 152.000198 216.000305 152.000198 Z M 214.000305 164.000198 L 206.000305 164.000198 C 204.895294 164.000198 204.000305 163.104202 204.000305 162.000198 L 204.000305 158.000198 C 204.000305 156.895203 204.895294 156.000198 206.000305 156.000198 L 214.000305 156.000198 C 215.104294 156.000198 216.000305 156.895203 216.000305 158.000198 L 216.000305 162.000198 C 216.000305 163.104202 215.104294 164.000198 214.000305 164.000198 M 204.000305 170.000198 C 204.000305 168.895203 204.895294 168.000198 206.000305 168.000198 L 214.000305 168.000198 C 215.104294 168.000198 216.000305 168.895203 216.000305 170.000198 L 216.000305 174.000198 C 216.000305 175.104202 215.104294 176.000198 214.000305 176.000198 L 206.000305 176.000198 C 204.895294 176.000198 204.000305 175.104202 204.000305 174.000198 Z M 224.000305 127.000198 C 224.000305 125.343201 226.014297 124.000198 228.500305 124.000198 C 230.985306 124.000198 233.000305 125.343201 233.000305 127.000198 C 233.000305 128.657196 230.985306 130.000198 228.500305 130.000198 C 226.014297 130.000198 224.000305 128.657196 224.000305 127.000198 M 234.000305 138.000198 C 234.000305 139.104202 233.104294 140.000198 232.000305 140.000198 L 224.000305 140.000198 C 222.895294 140.000198 222.000305 139.104202 222.000305 138.000198 L 222.000305 134.000198 C 222.000305 132.895203 222.895294 132.000198 224.000305 132.000198 L 232.000305 132.000198 C 233.104294 132.000198 234.000305 132.895203 234.000305 134.000198 Z M 222.000305 168.000198 L 230.000305 168.000198 C 231.104294 168.000198 232.000305 168.895203 232.000305 170.000198 L 232.000305 174.000198 C 232.000305 175.104202 231.104294 176.000198 230.000305 176.000198 L 222.000305 176.000198 C 220.895294 176.000198 220.000305 175.104202 220.000305 174.000198 L 220.000305 170.000198 C 220.000305 168.895203 220.895294 168.000198 222.000305 168.000198 M 222.000305 150.000198 L 222.000305 146.000198 C 222.000305 144.895203 222.895294 144.000198 224.000305 144.000198 L 232.000305 144.000198 C 233.104294 144.000198 234.000305 144.895203 234.000305 146.000198 L 234.000305 150.000198 C 234.000305 151.104202 233.104294 152.000198 232.000305 152.000198 L 224.000305 152.000198 C 222.895294 152.000198 222.000305 151.104202 222.000305 150.000198 M 230.000305 156.000198 C 231.104294 156.000198 232.000305 156.895203 232.000305 158.000198 L 232.000305 162.000198 C 232.000305 163.104202 231.104294 164.000198 230.000305 164.000198 L 222.000305 164.000198 C 220.895294 164.000198 220.000305 163.104202 220.000305 162.000198 L 220.000305 158.000198 C 220.000305 156.895203 220.895294 156.000198 222.000305 156.000198 Z M 236.4953 124.600204 C 235.3293 121.893204 232.236298 120.000198 228.500305 120.000198 C 225.397293 120.000198 222.7323 121.3022 221.250305 123.295197 C 219.767303 121.3022 217.102295 120.000198 214.000305 120.000198 C 211.391296 120.000198 209.096298 120.925201 207.549301 122.403198 L 208.000305 120.000198 L 214.000305 120.000198 L 228.500305 120.000198 L 236.111298 120.000198 Z M 237.003296 130.6922 C 236.797302 130.381195 236.563293 130.09021 236.304306 129.824203 C 236.527298 129.39621 236.700302 128.94519 236.818298 128.475189 Z M 16.866301 165.80719 C 18.802305 172.171204 23.828306 177.198196 30.193296 179.134201 C 30.994307 179.679199 31.960295 180.000198 33.000305 180.000198 L 39.000305 180.000198 C 40.040298 180.000198 41.006302 179.679199 41.807297 179.134201 C 48.171295 177.198196 53.198303 172.171204 55.133301 165.80719 C 55.351303 165.487198 55.521301 165.137207 55.660294 164.770203 C 55.999298 168.911194 56.000305 172.000198 56.000305 172.000198 C 56.000305 172.000198 56.000305 180.000198 60.000305 184.000198 L 28.000303 180.000198 C 16.000303 176.000198 16.000303 168.000198 16.000303 168.000198 L 16.000303 163.000198 C 16.000303 164.040192 16.320295 165.006195 16.866301 165.80719 M 30.193296 140.866211 C 23.828306 142.8022 18.801298 147.828201 16.866301 154.193207 C 16.320295 154.994202 16.000303 155.960205 16.000303 157.000198 L 16.000303 140.000198 L 33.000305 140.000198 C 31.960295 140.000198 30.994307 140.32019 30.193296 140.866211 M 41.807297 140.866211 C 41.006302 140.32019 40.040298 140.000198 39.000305 140.000198 L 40.000305 140.000198 C 40.000305 140.000198 48.000305 140.000198 52.000305 148.000198 C 52.022308 148.044189 52.042297 148.092194 52.064301 148.137207 C 49.536301 144.723206 45.964294 142.130203 41.807297 140.866211 M 43.955307 167.9552 C 44.108307 167.969208 44.258301 168.000198 44.414307 168.000198 L 49.8423 168.000198 C 48.438293 170.422195 46.422302 172.439209 44.000305 173.842194 L 44.000305 168.4142 C 44.000305 168.258209 43.969299 168.1082 43.955307 167.9552 M 28.045301 152.045197 C 27.891294 152.031204 27.741301 152.000198 27.586302 152.000198 L 22.158293 152.000198 C 23.561293 149.577209 25.577299 147.561203 28.000303 146.158203 L 28.000303 151.586197 C 28.000303 151.742203 28.031294 151.891205 28.045301 152.045197 M 35.541306 159.541199 C 35.694305 159.555206 35.844299 159.586197 36.000305 159.586197 C 36.156296 159.586197 36.305298 159.555206 36.459305 159.541199 C 36.445297 159.694199 36.414307 159.844208 36.414307 160.000198 C 36.414307 160.156204 36.445297 160.305206 36.459305 160.459198 C 36.305298 160.44519 36.156296 160.4142 36.000305 160.4142 C 35.844299 160.4142 35.694305 160.44519 35.541306 160.459198 C 35.555298 160.305206 35.586304 160.156204 35.586304 160.000198 C 35.586304 159.844208 35.555298 159.694199 35.541306 159.541199 M 20.482298 163.834198 C 20.178297 162.604202 20.000303 161.324188 20.000303 160.000198 C 20.000303 158.676208 20.178297 157.39621 20.482298 156.165192 C 20.635298 156.07019 20.806303 156.000198 21.000303 156.000198 L 27.586302 156.000198 C 27.851301 156.000198 28.105299 156.105194 28.293303 156.293198 L 31.293303 159.293198 C 31.683302 159.683197 31.683302 160.316193 31.293303 160.707199 L 28.293303 163.707199 C 28.105299 163.894196 27.851301 164.000198 27.586302 164.000198 L 21.000303 164.000198 C 20.806303 164.000198 20.635298 163.930206 20.482298 163.834198 M 51.518295 163.834198 C 51.364304 163.930206 51.194305 164.000198 51.000305 164.000198 L 44.414307 164.000198 C 44.149307 164.000198 43.894302 163.894196 43.707306 163.707199 L 40.707306 160.707199 C 40.316299 160.316193 40.316299 159.683197 40.707306 159.293198 L 43.707306 156.293198 C 43.894302 156.105194 44.149307 156.000198 44.414307 156.000198 L 51.000305 156.000198 C 51.194305 156.000198 51.364304 156.07019 51.518295 156.165192 C 51.821304 157.39621 52.000305 158.676208 52.000305 160.000198 C 52.000305 161.324188 51.821304 162.604202 51.518295 163.834198 M 49.8423 152.000198 L 44.414307 152.000198 C 44.258301 152.000198 44.108307 152.031204 43.955307 152.045197 C 43.969299 151.891205 44.000305 151.742203 44.000305 151.586197 L 44.000305 146.158203 C 46.422302 147.561203 48.438293 149.577209 49.8423 152.000198 M 36.000305 144.000198 C 37.324295 144.000198 38.604294 144.178192 39.834305 144.482208 C 39.930298 144.635193 40.000305 144.806198 40.000305 145.000198 L 40.000305 151.586197 C 40.000305 151.851196 39.894302 152.105194 39.707306 152.293198 L 36.707306 155.293198 C 36.512299 155.48819 36.256302 155.586197 36.000305 155.586197 C 35.744308 155.586197 35.488297 155.48819 35.293304 155.293198 L 32.293304 152.293198 C 32.105301 152.105194 32.000305 151.851196 32.000305 151.586197 L 32.000305 145.000198 C 32.000305 144.806198 32.069305 144.635193 32.165298 144.482208 C 33.396301 144.178192 34.675308 144.000198 36.000305 144.000198 M 22.158293 168.000198 L 27.586302 168.000198 C 27.741301 168.000198 27.891294 167.969208 28.045301 167.9552 C 28.030302 168.1082 28.000303 168.258209 28.000303 168.4142 L 28.000303 173.842194 C 25.577299 172.439209 23.561293 170.422195 22.158293 168.000198 M 36.000305 176.000198 C 34.675308 176.000198 33.396301 175.821198 32.165298 175.518188 C 32.069305 175.365204 32.000305 175.194199 32.000305 175.000198 L 32.000305 168.4142 C 32.000305 168.1492 32.105301 167.894196 32.293304 167.707199 L 35.293304 164.707199 C 35.488297 164.512207 35.744308 164.4142 36.000305 164.4142 C 36.256302 164.4142 36.512299 164.512207 36.707306 164.707199 L 39.707306 167.707199 C 39.894302 167.894196 40.000305 168.1492 40.000305 168.4142 L 40.000305 175.000198 C 40.000305 175.194199 39.930298 175.365204 39.834305 175.518188 C 38.604294 175.821198 37.324295 176.000198 36.000305 176.000198 M 247.938293 94.301193 L 244.084305 63.503204 L 243.646301 60.000198 L 240.115295 60.000198 L 128.00029 60.000198 L 15.884307 60.000198 L 12.354293 60.000198 L 11.915298 63.503204 L 8.062301 94.301193 C 7.865294 95.875198 8.136306 97.456207 8.846297 98.873199 L 11.223296 103.624207 C 11.5773 104.332199 11.713302 105.121201 11.615294 105.907196 L 8.215301 133.077209 C 7.867293 135.85321 8.804305 138.581207 10.784301 140.559204 L 11.884307 141.658203 L 11.884307 168.000198 C 11.884307 168.444199 12.052306 178.940201 26.633299 183.795197 L 27.008299 183.920197 L 27.401304 183.969208 L 91.4673 191.969208 L 91.714294 192.000198 L 91.963303 192.000198 L 128.00029 192.000198 L 164.037292 192.000198 L 164.286301 192.000198 L 164.532303 191.969208 L 196.525299 187.974197 L 196.525299 187.974197 L 228.598297 183.969208 L 228.991302 183.920197 L 229.366302 183.795197 C 232.100296 182.885193 234.328293 181.776199 236.142303 180.572205 C 236.444305 180.372192 236.735306 180.169189 237.015305 179.963196 C 238.8983 178.582199 240.277298 177.103195 241.293304 175.672195 C 244.056305 171.785202 244.115295 168.254196 244.115295 168.000198 L 244.115295 167.833191 L 244.101303 167.667206 L 240.925293 129.596191 L 240.251297 121.518204 L 241.769302 120.001205 C 243.282303 118.490204 244.115295 116.481201 244.115295 114.343201 L 244.115295 105.888199 C 244.115295 105.271194 244.261307 104.653198 244.537292 104.101196 L 247.154297 98.873199 C 247.864304 97.456207 248.1353 95.875198 247.938293 94.301193"/>
    <path id="path1" fill="#ffffff" stroke="none" d="M 92 116 L 40 116 L 40 72 L 92 72 Z M 92 68 L 40 68 C 37.791 68 36 69.791 36 72 L 36 116 C 36 118.209 37.791 120 40 120 L 92 120 C 94.209 120 96 118.209 96 116 L 96 72 C 96 69.791 94.209 68 92 68"/>
    <path id="path2" fill="#ffffff" stroke="none" d="M 48 80 L 84 80 L 84 108 L 48 108 Z M 84 112 L 88 112 L 88 108 L 88 80 L 88 76 L 84 76 L 48 76 L 44 76 L 44 80 L 44 108 L 44 112 L 48 112 Z"/>
</svg>
