<?xml version="1.0" encoding="UTF-8"?>
<!-- Generated by Pixelmator Pro 3.7.1 -->
<svg width="256" height="256" viewBox="0 0 256 256" xmlns="http://www.w3.org/2000/svg">
    <path id="Path" fill="#ffffff" stroke="none" d="M 244 32 L 244 227.056 C 244 227.677002 243.854996 228.289001 243.578003 228.845001 L 237.104996 241.789001 C 236.427994 243.143997 235.042999 244 233.527008 244 L 22.472 244 C 20.957001 244 19.572006 243.143997 18.895004 241.789001 L 12.421997 228.845001 C 12.145004 228.289001 12 227.677002 12 227.056 L 12 32 L 12 23.548996 C 12 21.518997 13.518997 19.811996 15.533997 19.576004 C 29.632996 17.921997 83.257996 12 128 12 C 172.740997 12 226.367004 17.921997 240.466003 19.576004 C 242.481003 19.811996 244 21.518997 244 23.548996 Z M 240.932007 15.602997 C 225.722992 13.819 172.630005 8 128 8 C 83.369995 8 30.276993 13.819 15.067993 15.602997 C 11.039001 16.076004 8 19.490997 8 23.548996 L 8 32 L 8 227.056 C 8 228.291 8.292007 229.528 8.845001 230.634003 L 15.317001 243.578003 C 16.681 246.306 19.421997 248 22.472 248 L 233.527008 248 C 236.576996 248 239.319 246.306 240.684006 243.578003 L 247.154999 230.634003 C 247.707993 229.528 248 228.291 248 227.056 L 248 32 L 248 23.548996 C 248 19.490997 244.960999 16.076004 240.932007 15.602997"/>
    <path id="path1" fill="#ffffff" stroke="none" d="M 232 152 C 232 154.209 230.209 156 228 156 L 28 156 C 25.791 156 24 154.209 24 152 L 24 48 C 24 45.791 25.791 44 28 44 L 228 44 C 230.209 44 232 45.791 232 48 Z M 228 40 L 28 40 C 23.589005 40 20 43.588989 20 48 L 20 152 C 20 156.411011 23.589005 160 28 160 L 228 160 C 232.410995 160 236 156.411011 236 152 L 236 48 C 236 43.588989 232.410995 40 228 40"/>
    <path id="path2" fill="#ffffff" stroke="none" d="M 128 224 L 104 200 L 152 200 Z M 104 196 L 94.343002 196 L 101.170998 202.828003 L 125.170998 226.828003 L 128 229.656998 L 130.828003 226.828003 L 154.828003 202.828003 L 161.656998 196 L 152 196 Z"/>
</svg>
