<?xml version="1.0" encoding="UTF-8"?>
<!-- Generated by Pixelmator Pro 3.7.1 -->
<svg width="256" height="256" viewBox="0 0 256 256" xmlns="http://www.w3.org/2000/svg">
    <path id="Path" fill="#ffffff" stroke="none" d="M 181 165 L 75 165 L 75 79 L 181 79 Z M 185 75 L 71 75 L 71 169 L 185 169 Z"/>
    <path id="path1" fill="#ffffff" stroke="none" d="M 244 36 L 236 36 L 232 36 L 220 36 L 36 36 L 24 36 L 20 36 L 12 36 L 12 24 C 12 19.582001 63.934998 16 128 16 C 192.065002 16 244 19.582001 244 24 Z M 224 44 L 224 204 C 224 206.209 222.209 208 220 208 L 36 208 C 33.791 208 32 206.209 32 204 L 32 44 C 32 41.791 33.791 40 36 40 L 220 40 C 222.209 40 224 41.791 224 44 M 232 214 C 232 215.104996 231.104996 216 230 216 L 204 216 L 204 224 L 196 224 L 192 224 L 184 224 L 180 224 L 172 224 L 168 224 L 160 224 L 156 224 L 148 224 L 144 224 L 136 224 L 132 224 L 124 224 L 120 224 L 112 224 L 108 224 L 100 224 L 96 224 L 88 224 L 84 224 L 76 224 L 72 224 L 64 224 L 60 224 L 52 224 L 52 216 L 26 216 C 24.895004 216 24 215.104996 24 214 L 24 40 L 29.082001 40 C 28.397995 41.177994 28 42.541992 28 44 L 28 204 C 28 208.410995 31.589005 212 36 212 L 220 212 C 224.410995 212 228 208.410995 228 204 L 228 44 C 228 42.541992 227.602005 41.177994 226.917999 40 L 232 40 Z M 192 236 L 64 236 L 64 228 L 72 228 L 72 232 L 76 232 L 76 228 L 84 228 L 84 232 L 88 232 L 88 228 L 96 228 L 96 232 L 100 232 L 100 228 L 108 228 L 108 232 L 112 232 L 112 228 L 120 228 L 120 232 L 124 232 L 124 228 L 132 228 L 132 232 L 136 232 L 136 228 L 144 228 L 144 232 L 148 232 L 148 228 L 156 228 L 156 232 L 160 232 L 160 228 L 168 228 L 168 232 L 172 232 L 172 228 L 180 228 L 180 232 L 184 232 L 184 228 L 192 228 Z M 235.528 16.938004 C 229.563995 15.966003 221.076004 15.096008 210.300003 14.352997 C 188.300995 12.835999 159.074005 12 128 12 C 96.925995 12 67.699005 12.835999 45.699997 14.352997 C 34.923996 15.096008 26.436005 15.966003 20.472 16.938004 C 13.647995 18.050995 8 19.350006 8 24 L 8 36 L 8 40 L 12 40 L 20 40 L 20 214 C 20 217.307999 22.692001 220 26 220 L 48 220 L 48 224 L 48 228 L 52 228 L 60 228 L 60 236 L 60 240 L 64 240 L 192 240 L 196 240 L 196 236 L 196 228 L 204 228 L 208 228 L 208 224 L 208 220 L 230 220 C 233.307999 220 236 217.307999 236 214 L 236 40 L 244 40 L 248 40 L 248 36 L 248 24 C 248 19.350006 242.352005 18.050995 235.528 16.938004"/>
</svg>
