<?xml version="1.0" encoding="UTF-8"?>
<!-- Generated by Pixelmator Pro 3.7.1 -->
<svg width="256" height="256" viewBox="0 0 256 256" xmlns="http://www.w3.org/2000/svg">
    <path id="Path" fill="#ffffff" stroke="none" d="M 184 92 C 184 87.582001 187.582001 84 192 84 C 196.417999 84 200 87.582001 200 92 C 200 96.417999 196.417999 100 192 100 C 187.582001 100 184 96.417999 184 92 M 204 92 C 204 85.382996 198.617004 80 192 80 C 185.382996 80 180 85.382996 180 92 C 180 98.617004 185.382996 104 192 104 C 198.617004 104 204 98.617004 204 92"/>
    <path id="path1" fill="#ffffff" stroke="none" d="M 216 72 C 220.417999 72 224 75.582001 224 80 C 224 84.417999 220.417999 88 216 88 C 211.582001 88 208 84.417999 208 80 C 208 75.582001 211.582001 72 216 72 M 216 92 C 222.617004 92 228 86.617004 228 80 C 228 73.382996 222.617004 68 216 68 C 209.382996 68 204 73.382996 204 80 C 204 86.617004 209.382996 92 216 92"/>
    <path id="path2" fill="#ffffff" stroke="none" d="M 196 124 C 191.582001 124 188 120.417999 188 116 C 188 111.582001 191.582001 108 196 108 C 200.417999 108 204 111.582001 204 116 C 204 120.417999 200.417999 124 196 124 M 196 104 C 189.382996 104 184 109.382996 184 116 C 184 122.617004 189.382996 128 196 128 C 202.617004 128 208 122.617004 208 116 C 208 109.382996 202.617004 104 196 104"/>
    <path id="path3" fill="#ffffff" stroke="none" d="M 220 112 C 215.582001 112 212 108.417999 212 104 C 212 99.582001 215.582001 96 220 96 C 224.417999 96 228 99.582001 228 104 C 228 108.417999 224.417999 112 220 112 M 220 92 C 213.382996 92 208 97.382996 208 104 C 208 110.617004 213.382996 116 220 116 C 226.617004 116 232 110.617004 232 104 C 232 97.382996 226.617004 92 220 92"/>
    <path id="path4" fill="#ffffff" stroke="none" d="M 48 124 C 34.744999 124 24 113.255005 24 100 C 24 86.744995 34.744999 76 48 76 C 61.255001 76 72 86.744995 72 100 C 72 113.255005 61.255001 124 48 124 M 48 72 C 32.561001 72 20 84.561005 20 100 C 20 115.438995 32.561001 128 48 128 C 63.438999 128 76 115.438995 76 100 C 76 84.561005 63.438999 72 48 72"/>
    <path id="path5" fill="#ffffff" stroke="none" d="M 69.161499 94 L 56.0005 94 C 54.8955 94 54.0005 93.104996 54.0005 92 L 54.0005 78.839005 C 52.091499 78.296005 50.080502 78 48.0005 78 C 45.919498 78 43.908501 78.296005 42.0005 78.839005 L 42.0005 92 C 42.0005 93.104996 41.1045 94 40.0005 94 L 26.838499 94 C 26.296499 95.908997 26.000502 97.919998 26.000502 100 C 26.000502 102.080002 26.296499 104.091003 26.838499 106 L 40.0005 106 C 41.1045 106 42.0005 106.895004 42.0005 108 L 42.0005 121.160995 C 43.908501 121.703995 45.919498 122 48.0005 122 C 50.080502 122 52.091499 121.703995 54.0005 121.160995 L 54.0005 108 C 54.0005 106.895004 54.8955 106 56.0005 106 L 69.161499 106 C 69.703499 104.091003 70.000504 102.080002 70.000504 100 C 70.000504 97.919998 69.703499 95.908997 69.161499 94"/>
    <path id="path6" fill="#ffffff" stroke="none" d="M 238.432602 166.566193 C 238.012604 167.850189 236.963593 168.822205 235.657593 169.167206 C 219.466599 173.440201 161.544601 188.000198 123.999603 188.000198 C 86.803604 188.000198 35.320599 173.709198 20.286604 169.288208 C 19.040602 168.922211 18.035597 167.981201 17.6266 166.748199 C 12.0016 149.790192 11.999601 116.000198 11.999601 116.000198 C 11.999601 72.000198 23.999601 68.000198 23.999601 68.000198 C 23.999601 68.000198 63.999599 60.000198 71.999603 60.000198 C 74.131607 60.000198 75.681595 60.576202 76.828598 61.409195 C 76.320602 62.093201 75.999603 62.938202 75.999603 64.000198 L 75.999603 65.046204 C 75.262604 66.046204 74.896606 67.276199 75.027603 68.523193 L 82.192596 136.596191 C 82.305603 137.665192 82.774597 138.655197 83.498596 139.4422 L 84.013596 144.337189 C 84.134598 145.963196 85.257599 151.101196 94.211609 155.577209 C 102.807602 159.87619 121.856606 160.000198 123.999603 160.000198 L 118.472603 160.000198 L 111.999603 160.000198 L 102.472595 160.000198 L 95.999603 160.000198 L 83.999603 160.000198 C 79.588608 160.000198 75.999603 163.589203 75.999603 168.000198 C 75.999603 172.411194 79.588608 176.000198 83.999603 176.000198 L 89.527603 176.000198 L 95.999603 176.000198 L 105.527603 176.000198 L 111.999603 176.000198 L 121.527603 176.000198 L 127.999603 176.000198 L 137.527603 176.000198 L 143.999603 176.000198 L 153.527603 176.000198 L 159.999603 176.000198 L 171.999603 176.000198 C 176.411606 176.000198 179.999603 172.411194 179.999603 168.000198 C 179.999603 163.589203 176.411606 160.000198 171.999603 160.000198 L 166.472595 160.000198 L 159.999603 160.000198 L 150.472595 160.000198 L 143.999603 160.000198 L 134.472595 160.000198 L 131.999603 160.000198 C 134.1436 160.000198 153.192596 159.87619 161.788605 155.577209 C 170.742599 151.101196 171.865601 145.963196 171.986603 144.337189 L 172.501602 139.4422 C 173.224594 138.655197 173.694595 137.665192 173.806595 136.596191 L 180.954605 68.697189 C 180.985596 68.469193 181.002594 68.236191 181.002594 68.000198 C 181.002594 66.880203 180.621597 65.857193 179.999603 65.023193 L 179.999603 64.000198 C 179.999603 62.938202 179.679596 62.093201 179.1716 61.409195 C 180.318604 60.576202 181.868607 60.000198 183.999603 60.000198 C 191.999603 60.000198 231.999603 68.000198 231.999603 68.000198 C 231.999603 68.000198 243.999603 72.000198 243.999603 116.000198 C 243.999603 116.000198 243.998596 149.549194 238.432602 166.566193 M 171.999603 92.000198 L 171.999603 76.000198 L 173.999603 76.000198 L 175.157593 76.000198 L 173.473602 92.000198 Z M 87.999603 76.000198 L 167.999603 76.000198 L 167.999603 92.000198 L 87.999603 92.000198 Z M 82.526596 92.000198 L 80.842606 76.000198 L 81.999603 76.000198 L 83.999603 76.000198 L 83.999603 92.000198 Z M 162.666595 140.000198 C 153.999603 144.000198 132.333603 144.000198 132.333603 144.000198 L 123.666603 144.000198 C 123.666603 144.000198 101.999603 144.000198 93.333603 140.000198 C 90.379608 138.6362 88.448608 137.277191 87.165604 136.072205 L 82.947601 96.000198 L 86.4496 96.000198 L 169.550598 96.000198 L 173.052597 96.000198 L 168.834595 136.072205 C 167.550598 137.277191 165.620605 138.6362 162.666595 140.000198 M 123.999603 156.000198 C 123.999603 156.000198 103.999603 156.000198 95.999603 152.000198 C 87.999603 148.000198 87.999603 144.000198 87.999603 144.000198 L 87.870605 142.770203 C 88.905609 143.389191 90.026596 143.981201 91.237595 144.540192 C 100.6306 148.875198 121.336601 149.000198 123.666603 149.000198 L 132.333603 149.000198 C 134.663605 149.000198 155.369598 148.875198 164.761597 144.540192 C 165.973602 143.981201 167.094604 143.389191 168.129593 142.770203 L 167.999603 144.000198 C 167.999603 144.000198 167.999603 148.000198 159.999603 152.000198 C 151.999603 156.000198 131.999603 156.000198 131.999603 156.000198 Z M 115.999603 164.000198 L 127.999603 164.000198 L 123.999603 172.000198 L 111.999603 172.000198 Z M 91.999603 172.000198 L 83.999603 172.000198 C 81.790604 172.000198 79.999603 170.209198 79.999603 168.000198 C 79.999603 165.791199 81.790604 164.000198 83.999603 164.000198 L 95.999603 164.000198 Z M 99.999603 164.000198 L 111.999603 164.000198 L 107.999603 172.000198 L 95.999603 172.000198 Z M 139.999603 172.000198 L 127.999603 172.000198 L 131.999603 164.000198 L 143.999603 164.000198 Z M 163.999603 164.000198 L 171.999603 164.000198 C 174.209595 164.000198 175.999603 165.791199 175.999603 168.000198 C 175.999603 170.209198 174.209595 172.000198 171.999603 172.000198 L 159.999603 172.000198 Z M 155.999603 172.000198 L 143.999603 172.000198 L 147.999603 164.000198 L 159.999603 164.000198 Z M 79.999603 64.000198 C 79.999603 63.655197 80.525604 63.319199 81.512604 63.000198 C 81.695602 62.941193 81.897598 62.882202 82.112595 62.824203 C 82.182602 62.805191 82.260605 62.786194 82.334595 62.767197 C 82.487595 62.728195 82.6436 62.688202 82.809601 62.650192 C 82.902603 62.628189 83.000595 62.607193 83.097595 62.58519 C 83.260605 62.549194 83.429596 62.514191 83.604599 62.478195 C 83.711609 62.457199 83.819595 62.435196 83.930603 62.4142 C 84.116608 62.378189 84.310608 62.342194 84.509598 62.30719 C 84.618607 62.287201 84.725601 62.268204 84.837601 62.249191 C 85.081604 62.207199 85.335602 62.166199 85.595596 62.125198 C 85.674606 62.11319 85.749603 62.100189 85.829605 62.088196 C 86.173599 62.035202 86.530609 61.984192 86.900604 61.933197 C 86.998596 61.919189 87.1026 61.906189 87.201599 61.893204 C 87.482605 61.855194 87.766602 61.818192 88.0616 61.781189 C 88.203598 61.763199 88.351608 61.746201 88.496597 61.728195 C 88.763596 61.696198 89.0336 61.6642 89.3116 61.633194 C 89.470596 61.615204 89.631607 61.597198 89.794601 61.579193 C 90.0746 61.548203 90.361603 61.518204 90.652603 61.48819 C 90.815598 61.471191 90.9776 61.454193 91.1436 61.438202 C 91.472595 61.405197 91.809601 61.373199 92.151596 61.341202 C 92.286606 61.328201 92.418594 61.315201 92.555603 61.303192 C 93.039597 61.259201 93.5336 61.215195 94.039597 61.173203 C 94.1026 61.168198 94.167603 61.163193 94.230606 61.158203 C 94.673599 61.121201 95.123596 61.08519 95.582596 61.050201 C 95.766602 61.036194 95.954605 61.023193 96.140594 61.009201 C 96.491608 60.9832 96.844604 60.957199 97.204605 60.93219 C 97.413605 60.918198 97.625595 60.903198 97.837601 60.889191 C 98.193604 60.865204 98.552597 60.841202 98.916595 60.818192 C 99.1306 60.805191 99.344604 60.791199 99.5616 60.778198 C 99.939606 60.755203 100.323608 60.732193 100.709595 60.71019 C 100.916595 60.698196 101.121597 60.686203 101.331604 60.674194 C 101.858597 60.644196 102.394608 60.616196 102.937607 60.588196 C 103.002609 60.58519 103.065598 60.581192 103.1306 60.578201 C 103.748596 60.547195 104.375595 60.517197 105.010605 60.48819 C 105.193604 60.479202 105.381607 60.472198 105.565598 60.464203 C 106.016602 60.444199 106.469604 60.424194 106.929596 60.405197 C 107.175598 60.395203 107.424606 60.3862 107.672607 60.37619 C 108.083603 60.360199 108.497604 60.344193 108.914597 60.329193 C 109.173599 60.32019 109.434601 60.311203 109.695602 60.3022 C 110.129608 60.287201 110.567604 60.272202 111.007599 60.259201 C 111.250603 60.25119 111.4916 60.243195 111.736603 60.236191 C 112.235603 60.221191 112.740601 60.207199 113.248604 60.193192 C 113.442604 60.188202 113.634605 60.18219 113.829605 60.1772 C 114.524605 60.159195 115.224602 60.143204 115.932602 60.127197 C 116.100601 60.124191 116.271599 60.121201 116.439606 60.117203 C 116.987602 60.106201 117.538605 60.0952 118.093605 60.08519 C 118.357605 60.081192 118.624603 60.077194 118.889603 60.073196 C 119.355598 60.065201 119.823601 60.058197 120.293602 60.0522 C 120.585602 60.048203 120.878601 60.044189 121.1716 60.041199 C 121.633598 60.035202 122.097603 60.030197 122.564606 60.026199 C 122.850601 60.023193 123.136604 60.021194 123.423599 60.018204 C 123.932602 60.014191 124.443604 60.0112 124.955605 60.009201 C 125.207603 60.007202 125.457603 60.006195 125.709602 60.005203 C 126.468605 60.002197 127.231606 60.000198 127.999603 60.000198 C 128.7686 60.000198 129.530594 60.002197 130.290604 60.005203 C 130.542603 60.006195 130.792603 60.007202 131.044601 60.009201 C 131.556595 60.0112 132.067596 60.014191 132.575592 60.018204 C 132.863602 60.021194 133.149597 60.023193 133.435593 60.026199 C 133.901596 60.030197 134.366592 60.035202 134.828598 60.041199 C 135.121597 60.044189 135.414597 60.048203 135.705597 60.0522 C 136.176605 60.058197 136.6436 60.065201 137.110596 60.073196 C 137.375595 60.077194 137.642593 60.081192 137.906601 60.08519 C 138.461594 60.0952 139.012604 60.106201 139.560593 60.117203 C 139.728592 60.121201 139.899597 60.124191 140.067596 60.127197 C 140.774597 60.143204 141.475601 60.159195 142.169601 60.1772 C 142.365601 60.18219 142.557602 60.188202 142.751602 60.193192 C 143.258591 60.207199 143.764603 60.221191 144.263596 60.236191 C 144.508591 60.243195 144.749603 60.25119 144.991592 60.259201 C 145.432602 60.272202 145.869598 60.287201 146.303604 60.3022 C 146.565598 60.311203 146.826599 60.32019 147.085602 60.329193 C 147.502594 60.344193 147.916595 60.360199 148.327591 60.37619 C 148.575592 60.3862 148.8246 60.395203 149.070602 60.405197 C 149.529602 60.424194 149.983597 60.444199 150.434601 60.464203 C 150.618591 60.472198 150.806595 60.479202 150.989594 60.48819 C 151.624603 60.517197 152.251602 60.547195 152.868591 60.578201 C 152.934601 60.581192 152.997604 60.58519 153.062592 60.588196 C 153.605591 60.616196 154.140594 60.644196 154.668594 60.674194 C 154.878601 60.686203 155.083603 60.698196 155.290604 60.71019 C 155.676605 60.732193 156.060593 60.755203 156.437592 60.778198 C 156.654602 60.791199 156.869598 60.805191 157.083603 60.818192 C 157.447601 60.841202 157.806595 60.865204 158.162598 60.889191 C 158.374603 60.903198 158.586594 60.918198 158.795593 60.93219 C 159.155594 60.957199 159.508591 60.9832 159.859604 61.009201 C 160.045593 61.023193 160.233597 61.036194 160.417603 61.050201 C 160.876602 61.08519 161.326599 61.121201 161.769592 61.158203 C 161.831604 61.163193 161.897598 61.168198 161.960602 61.173203 C 162.466599 61.215195 162.960602 61.259201 163.444595 61.303192 C 163.581604 61.315201 163.713593 61.328201 163.848602 61.341202 C 164.189606 61.373199 164.527603 61.405197 164.856598 61.438202 C 165.022598 61.454193 165.184601 61.471191 165.347595 61.48819 C 165.638596 61.518204 165.924591 61.548203 166.205597 61.579193 C 166.368591 61.597198 166.529602 61.615204 166.688599 61.633194 C 166.966599 61.6642 167.236603 61.696198 167.503601 61.728195 C 167.648605 61.746201 167.7966 61.763199 167.938599 61.781189 C 168.233597 61.818192 168.517593 61.855194 168.797592 61.893204 C 168.897598 61.906189 169.001602 61.919189 169.098602 61.933197 C 169.469604 61.984192 169.826599 62.035202 170.170593 62.088196 C 170.250595 62.100189 170.3246 62.11319 170.404602 62.125198 C 170.664597 62.166199 170.918594 62.207199 171.161591 62.249191 C 171.274597 62.268204 171.381592 62.287201 171.490601 62.30719 C 171.688599 62.342194 171.883591 62.378189 172.069595 62.4142 C 172.180603 62.435196 172.288605 62.457199 172.395599 62.478195 C 172.570602 62.514191 172.738602 62.549194 172.902603 62.58519 C 172.999603 62.607193 173.097595 62.628189 173.190598 62.650192 C 173.356598 62.688202 173.512604 62.728195 173.665604 62.767197 C 173.739594 62.786194 173.817596 62.805191 173.887604 62.824203 C 174.1026 62.882202 174.304596 62.941193 174.487595 63.000198 C 175.474594 63.319199 175.999603 63.655197 175.999603 64.000198 L 175.999603 70.000198 C 175.999603 70.402191 175.878601 70.7742 175.674606 71.088196 L 175.674606 71.088196 C 175.588593 71.2202 175.486603 71.340195 175.372604 71.448196 C 175.355606 71.464203 175.336594 71.477203 175.319595 71.492203 C 175.225601 71.575195 175.124603 71.6492 175.015594 71.714203 C 174.978607 71.736191 174.940598 71.756195 174.902603 71.775192 C 174.803604 71.826202 174.6996 71.867203 174.591599 71.901199 C 174.549606 71.9142 174.508606 71.929199 174.465607 71.940201 C 174.315598 71.976196 174.160599 72.000198 173.999603 72.000198 L 169.550598 72.000198 L 86.4496 72.000198 L 81.999603 72.000198 C 81.8396 72.000198 81.684601 71.976196 81.534607 71.940201 C 81.491608 71.929199 81.450607 71.9142 81.4086 71.901199 C 81.300598 71.867203 81.196609 71.826202 81.097595 71.775192 C 81.058609 71.756195 81.021606 71.736191 80.984604 71.714203 C 80.875595 71.6492 80.774597 71.575195 80.680603 71.492203 C 80.663605 71.477203 80.644608 71.464203 80.627609 71.448196 C 80.513596 71.340195 80.411606 71.2202 80.3246 71.088196 L 80.3246 71.088196 C 80.121597 70.7742 79.999603 70.402191 79.999603 70.000198 Z M 233.264603 64.2052 L 233.028595 64.12619 L 232.784607 64.077194 C 228.650604 63.25119 192.160599 56.000198 183.999603 56.000198 C 180.260605 56.000198 177.531601 57.298203 175.6306 59.161194 C 175.627594 59.160202 175.624603 59.160202 175.621597 59.159195 C 175.400604 59.087204 175.181595 59.023193 174.965607 58.964203 C 174.8936 58.944199 174.8246 58.926193 174.753601 58.908203 C 174.604599 58.869202 174.458603 58.832199 174.314606 58.798203 C 174.240601 58.780197 174.168594 58.763199 174.095596 58.747192 C 173.951599 58.714203 173.812592 58.684189 173.676605 58.655197 C 173.617599 58.643204 173.560593 58.631195 173.504593 58.619202 C 173.327591 58.583191 173.157593 58.549194 173.001602 58.518204 C 172.360596 58.392197 171.654602 58.269196 170.884598 58.150192 C 170.114594 58.031189 169.280594 57.916199 168.384598 57.805191 C 166.592606 57.582199 164.551605 57.375198 162.273605 57.185196 C 153.100601 56.421204 140.928604 56.000198 127.999603 56.000198 C 115.071602 56.000198 102.899597 56.421204 93.726608 57.185196 C 90.309601 57.4702 87.425598 57.793198 85.115601 58.150192 C 84.345596 58.269196 83.639603 58.392197 82.998596 58.518204 C 82.842606 58.549194 82.672607 58.583191 82.495605 58.619202 C 82.439606 58.631195 82.381607 58.643204 82.323608 58.655197 C 82.187607 58.684189 82.048599 58.714203 81.903595 58.747192 C 81.831604 58.763199 81.759598 58.780197 81.685608 58.798203 C 81.541595 58.832199 81.395599 58.869202 81.246597 58.908203 C 81.175598 58.926193 81.106598 58.944199 81.034607 58.964203 C 80.817596 59.023193 80.599609 59.087204 80.378601 59.159195 C 80.375595 59.160202 80.372604 59.160202 80.369598 59.161194 C 78.468597 57.298203 75.739609 56.000198 71.999603 56.000198 C 63.839596 56.000198 27.349607 63.25119 23.215605 64.077194 L 22.971601 64.12619 L 22.735594 64.2052 C 20.274595 65.025192 7.999601 71.377197 7.999601 116.000198 C 8.000593 117.406204 8.067595 150.6362 13.830595 168.007202 C 14.647596 170.472198 16.639601 172.385193 19.158598 173.12619 C 34.217602 177.554199 86.2836 192.000198 123.999603 192.000198 C 161.873596 192.000198 219.820602 177.484192 236.678604 173.035202 C 239.314606 172.339203 241.391602 170.3862 242.234604 167.810211 C 247.932602 150.387207 247.999603 117.396194 247.999603 116.000198 C 247.999603 71.377197 235.725601 65.025192 233.264603 64.2052"/>
</svg>
