<?xml version="1.0" encoding="UTF-8"?>
<!-- Generated by Pixelmator Pro 3.7.1 -->
<svg width="256" height="256" viewBox="0 0 256 256" xmlns="http://www.w3.org/2000/svg">
    <path id="Path" fill="#ffffff" stroke="none" d="M 160.199203 160 L 160.000198 160 L 100.000198 160 L 99.800201 160 L 99.602203 160.019989 L 61.403202 163.839996 C 58.3232 164.147003 56.000202 166.713989 56.000202 169.809998 L 56.000202 170.190002 C 56.000202 173.285004 58.3232 175.852997 61.403202 176.160004 L 99.601204 179.979996 L 99.800201 180 L 100.000198 180 L 160.000198 180 L 160.199203 180 L 160.398193 179.979996 L 198.596207 176.160004 C 201.678207 175.852997 204.000198 173.285004 204.000198 170.190002 L 204.000198 169.809998 C 204.000198 166.713989 201.6772 164.147003 198.596207 163.839996 L 160.398193 160.019989 Z M 160.000198 164 L 198.199203 167.820007 C 199.221207 167.921997 200.000198 168.781998 200.000198 169.809998 L 200.000198 170.190002 C 200.000198 171.218002 199.221207 172.078003 198.199203 172.179993 L 160.000198 176 L 100.000198 176 L 61.801197 172.179993 C 60.778202 172.078003 60.000202 171.218002 60.000202 170.190002 L 60.000202 169.809998 C 60.000202 168.781998 60.778202 167.921997 61.801197 167.820007 L 100.000198 164 L 160.000198 164"/>
    <path id="path1" fill="#ffffff" stroke="none" d="M 124 162 L 108 162 C 103.589005 162 100 165.588989 100 170 C 100 174.411011 103.589005 178 108 178 L 124 178 C 128.410995 178 132 174.411011 132 170 C 132 165.588989 128.410995 162 124 162 M 124 166 C 126.209 166 128 167.791 128 170 C 128 172.209 126.209 174 124 174 L 108 174 C 105.791 174 104 172.209 104 170 C 104 167.791 105.791 166 108 166 L 124 166"/>
    <path id="path2" fill="#ffffff" stroke="none" d="M 184 80 L 180 80 L 72 80 L 68 80 L 68 84 L 68 152 C 68 154.209 69.791 156 72 156 L 180 156 C 182.209 156 184 154.209 184 152 L 184 84 Z M 180 152 L 72 152 L 72 84 L 180 84 Z M 180 84"/>
    <path id="path3" fill="#ffffff" stroke="none" d="M 164 88 L 88 88 L 88 148 L 164 148 Z M 160 144 L 92 144 L 92 92 L 160 92 Z"/>
    <path id="path4" fill="#ffffff" stroke="none" d="M 192 76 C 187.589005 76 184 79.589005 184 84 C 184 88.410995 187.589005 92 192 92 C 196.410995 92 200 88.410995 200 84 C 200 79.589005 196.410995 76 192 76 M 192 80 C 194.209 80 196 81.791 196 84 C 196 86.209 194.209 88 192 88 C 189.791 88 188 86.209 188 84 C 188 81.791 189.791 80 192 80"/>
    <path id="path5" fill="#ffffff" stroke="none" d="M 194.805695 102.661102 L 194.805695 102.661102 C 193.4487 102.661102 192.122696 102.934097 190.868698 103.4711 C 188.413696 104.523102 186.515701 106.469101 185.523697 108.949097 C 184.5327 111.429092 184.564697 114.147095 185.617706 116.602097 C 187.195694 120.285095 190.804703 122.664093 194.811707 122.664093 C 196.168701 122.664093 197.493698 122.391098 198.747696 121.854095 C 203.815704 119.682098 206.171707 113.792099 203.999695 108.723099 C 202.421707 105.041107 198.812698 102.661102 194.805695 102.661102 M 194.805695 106.661102 C 197.133698 106.661102 199.348694 108.024094 200.3237 110.299103 C 201.628693 113.345093 200.217697 116.872101 197.171707 118.178101 C 196.401703 118.508102 195.599701 118.664093 194.811707 118.664093 C 192.483704 118.664093 190.268707 117.302094 189.293701 115.026093 C 187.988693 111.980103 189.399704 108.453094 192.445694 107.148102 C 193.215698 106.8181 194.0177 106.661102 194.805695 106.661102"/>
    <path id="path6" fill="#ffffff" stroke="none" d="M 213.188507 94.7827 L 213.188507 94.7827 C 211.831497 94.7827 210.505493 95.055695 209.251495 95.592697 C 204.184494 97.764694 201.828506 103.655701 204.000504 108.723694 C 205.578506 112.406708 209.1875 114.785706 213.194504 114.785706 C 214.551498 114.785706 215.876495 114.513702 217.130493 113.975708 C 222.199493 111.803696 224.554504 105.913696 222.382507 100.844696 C 220.804504 97.162704 217.195496 94.7827 213.188507 94.7827 M 213.188507 98.7827 C 215.516495 98.7827 217.731506 100.145706 218.706497 102.4207 C 220.011505 105.466705 218.600494 108.993698 215.554504 110.299698 C 214.7845 110.6297 213.982498 110.785706 213.194504 110.785706 C 210.866501 110.785706 208.651505 109.423706 207.676498 107.147705 C 206.371506 104.1017 207.782501 100.574707 210.828506 99.269699 C 211.598495 98.939697 212.400497 98.7827 213.188507 98.7827"/>
    <path id="path7" fill="#ffffff" stroke="none" d="M 197.832001 121.213898 L 197.832001 121.213898 C 196.475006 121.213898 195.149002 121.486893 193.895004 122.023895 C 188.826996 124.195908 186.472 130.086899 188.643997 135.1539 C 190.222 138.837891 193.830994 141.216904 197.837997 141.216904 C 199.195007 141.216904 200.520004 140.943909 201.774002 140.406891 C 206.841995 138.234894 209.197998 132.34491 207.026001 127.275894 C 205.447998 123.593903 201.839005 121.213898 197.832001 121.213898 M 197.832001 125.213898 C 200.160004 125.213898 202.375 126.576904 203.350006 128.851898 C 204.654999 131.897903 203.244003 135.424896 200.197998 136.730896 C 199.427994 137.060898 198.626007 137.216904 197.837997 137.216904 C 195.509995 137.216904 193.294998 135.854889 192.320007 133.578903 C 191.014999 130.532898 192.425995 127.005905 195.472 125.700897 C 196.242004 125.370895 197.044006 125.213898 197.832001 125.213898"/>
    <path id="path8" fill="#ffffff" stroke="none" d="M 216.214798 113.335403 L 216.214798 113.335403 C 214.857803 113.335403 213.531799 113.608398 212.277802 114.145401 C 207.209793 116.317398 204.854797 122.208405 207.026794 127.276398 C 208.604797 130.959412 212.213806 133.338409 216.220795 133.338409 C 217.577805 133.338409 218.902802 133.066406 220.156799 132.528412 C 222.611801 131.47641 224.510803 129.531403 225.502808 127.051407 C 226.493805 124.570404 226.461807 121.853394 225.408798 119.3974 C 223.830795 115.715393 220.221802 113.335403 216.214798 113.335403 M 216.214798 117.335403 C 218.542801 117.335403 220.757797 118.698395 221.732803 120.973404 C 223.037796 124.019394 221.626801 127.546402 218.580795 128.852402 C 217.810806 129.182404 217.008804 129.338409 216.220795 129.338409 C 213.892807 129.338409 211.677795 127.976395 210.702805 125.700394 C 209.397797 122.654404 210.808807 119.127396 213.854797 117.822403 C 214.624802 117.492401 215.426804 117.335403 216.214798 117.335403"/>
    <path id="path9" fill="#ffffff" stroke="none" d="M 240 148 L 235.649994 148 C 235.873001 147.373001 236 146.701996 236 146 C 236 142.69101 233.309006 140 230 140 L 222 140 C 220.462006 140 219.061996 140.587006 217.998001 141.541992 C 216.932007 140.580002 215.518997 140 213.977997 140 L 213.977005 140 C 213.766006 140 213.552994 140.011993 213.343002 140.03299 L 205.388 140.880005 C 203.645004 141.065002 202.158997 141.987 201.195007 143.300003 C 200.235992 142.665009 199.106995 142.281006 197.903992 142.281006 C 197.472992 142.281006 197.040009 142.32901 196.617996 142.421997 L 188.804993 144.140991 C 185.572998 144.850998 183.522003 148.057999 184.233002 151.289001 C 184.281006 151.505997 184.359009 151.708008 184.429993 151.915009 L 183.751007 152 L 68.283997 152 L 40.565994 148.040009 L 40.283997 148 L 40 148 L 16 148 L 16 80 C 16 73.373001 21.373001 68 28 68 L 107.537003 64.817993 C 114.355003 64.54599 121.178001 64.408997 128 64.408997 C 134.821991 64.408997 141.645996 64.54599 148.463989 64.817993 L 228 68 C 234.626999 68 240 73.373001 240 80 Z M 220 146 C 220 144.899994 220.899994 144 222 144 L 230 144 C 231.100006 144 232 144.899994 232 146 C 232 147.100006 231.100006 148 230 148 L 222 148 C 220.899994 148 220 147.100006 220 146 M 205.811005 144.856995 L 213.766006 144.011993 C 213.837006 144.003998 213.906998 144 213.977997 144 C 214.983994 144 215.856995 144.765991 215.966995 145.787994 C 216.083008 146.882996 215.283005 147.872009 214.188995 147.988998 L 206.234009 148.834991 C 206.162994 148.843002 206.093002 148.847 206.022003 148.847 C 205.015991 148.847 204.143005 148.080994 204.033005 147.057999 C 203.916992 145.963989 204.716995 144.973999 205.811005 144.856995 M 189.664001 148.046997 L 197.477005 146.328003 C 197.619995 146.296997 197.764008 146.281006 197.903992 146.281006 C 198.821991 146.281006 199.654999 146.92099 199.860001 147.85199 C 200.097 148.927002 199.410004 149.998993 198.335999 150.235001 L 190.522995 151.953003 C 190.380005 151.984009 190.235992 152 190.096008 152 C 189.178009 152 188.345001 151.360992 188.139999 150.429993 C 187.903992 149.355011 188.589996 148.28299 189.664001 148.046997 M 240 180 C 240 186.626999 234.626999 192 228 192 L 28 192 C 21.373001 192 16 186.626999 16 180 L 16 152 L 20 152 L 40 152 L 43.143005 152 L 70.143005 155.600006 L 182 155.600006 L 186.876999 155.031006 C 187.820007 155.636993 188.923996 156 190.096008 156 C 190.527008 156 190.959991 155.953003 191.382004 155.860001 L 199.195007 154.141998 C 199.871002 153.992996 200.487 153.723999 201.044006 153.377991 L 205.768997 152.826996 C 205.854004 152.830994 205.936996 152.847 206.022003 152.847 C 206.233002 152.847 206.446991 152.834991 206.656998 152.811996 L 214.296005 152 L 216 152 L 222 152 L 230 152 L 236 152 L 240 152 Z M 228.085999 64 L 148.623993 60.821991 C 141.78299 60.548004 134.845001 60.408997 128 60.408997 C 121.154999 60.408997 114.217003 60.548004 107.376007 60.821991 L 27.914001 64 C 19.130997 64.04599 12 71.205994 12 80 L 12 148 L 12 152 L 12 156 L 12 160 L 12 180 C 12 188.821991 19.177994 196 28 196 L 228 196 C 236.822006 196 244 188.821991 244 180 L 244 160 L 244 156 L 244 152 L 244 148 L 244 80 C 244 71.205994 236.869003 64.04599 228.085999 64"/>
    <path id="path10" fill="#ffffff" stroke="none" d="M 50 104 C 37.868999 104 28 113.869003 28 126 C 28 138.130997 37.868999 148 50 148 C 62.131001 148 72 138.130997 72 126 C 72 113.869003 62.131001 104 50 104 M 50 108 C 59.941002 108 68 116.059006 68 126 C 68 135.94101 59.941002 144 50 144 C 40.058998 144 32 135.94101 32 126 C 32 116.059006 40.058998 108 50 108"/>
    <path id="path11" fill="#ffffff" stroke="none" d="M 58 110 L 54 110 L 46 110 L 42 110 L 42 114 L 42 118 L 38 118 L 34 118 L 34 122 L 34 130 L 34 134 L 38 134 L 42 134 L 42 138 L 42 142 L 46 142 L 54 142 L 58 142 L 58 138 L 58 134 L 62 134 L 66 134 L 66 130 L 66 122 L 66 118 L 62 118 L 58 118 L 58 114 Z M 54 114 L 54 120 C 54 121.104004 54.896 122 56 122 L 62 122 L 62 130 L 56 130 C 54.896 130 54 130.895996 54 132 L 54 138 L 46 138 L 46 132 C 46 130.895996 45.104 130 44 130 L 38 130 L 38 122 L 44 122 C 45.104 122 46 121.104004 46 120 L 46 114 L 54 114"/>
</svg>
