<?xml version="1.0" encoding="UTF-8"?>
<!-- Generated by Pixelmator Pro 3.7.1 -->
<svg width="256" height="256" viewBox="0 0 256 256" xmlns="http://www.w3.org/2000/svg">
    <path id="Path" fill="#ffffff" stroke="none" d="M 244 120 L 244 132 L 244 133.428009 C 244 133.428009 212.218994 144 165.610992 144 C 155.097992 144 143.826996 143.455002 132 142.136002 L 130.673004 96.464005 C 137.484009 96.647995 148.886002 96.886993 161.931 96.886993 C 194.205002 96.886993 236.494003 95.421005 244 88 Z M 129.904999 75.929993 C 132.022003 75.869995 132.541992 75.839996 135.588989 75.839996 C 186.291 75.839996 224.858994 83.515991 238.569 86.669998 C 232.623001 89.113998 214.858002 92.886993 161.931 92.886993 C 148.828003 92.886993 137.299011 92.641006 130.52301 92.458008 Z M 128 50 C 128 51.105011 127.105003 52 126 52 L 125.005997 52 L 42 52 C 40.895004 52 40 51.105011 40 50 L 40 43.404999 L 40 42 C 40 41.786011 40.011993 41.574997 40.033997 41.367004 C 40.039993 41.311996 40.052002 41.257996 40.059006 41.20401 C 40.078995 41.050003 40.100998 40.897003 40.132996 40.747009 C 40.143997 40.695999 40.160004 40.645996 40.171997 40.595001 C 40.209 40.442993 40.246994 40.292999 40.294998 40.147003 C 40.309006 40.105011 40.326004 40.065002 40.339996 40.02301 C 40.393997 39.867996 40.451996 39.716003 40.518997 39.567001 C 40.531006 39.537994 40.546005 39.511002 40.559006 39.483002 C 40.632996 39.322998 40.712997 39.166 40.800995 39.014008 C 40.809998 38.998001 40.820999 38.981995 40.830002 38.964996 C 40.925995 38.803009 41.028 38.645996 41.136993 38.494995 C 41.143005 38.487 41.147995 38.481003 41.153 38.473999 C 41.270004 38.313995 41.393005 38.161011 41.524994 38.014008 C 41.524994 38.013 41.526001 38.011993 41.526993 38.011002 C 41.662003 37.860001 41.804001 37.716003 41.953003 37.580002 L 41.953003 37.57901 C 43.020996 36.60199 44.438004 36 46 36 L 46.901001 36 L 124 36 C 124.139999 36 124.273003 36.027008 124.408997 36.041 C 126.422997 36.248993 128 37.931 128 40 Z M 28 132 C 28 132 29.503006 119.610992 31.975998 103.425995 C 31.983994 103.421005 31.992004 103.415009 32 103.410995 L 32 103.266998 C 34.268005 88.434998 37.348007 70.449005 40.830994 55.884003 C 41.210007 55.959 41.600006 56 42 56 L 125.155998 56 L 128 132 Z M 128 148 L 28 148 L 28 136 L 128 136 Z M 128 199.209991 C 128 217.319 113.319 232 95.210007 232 L 44.395004 232 C 35.339996 232 28 224.660004 28 215.605011 L 28 152 L 128 152 Z M 24.029007 131.518997 L 24 183.048996 C 16.684998 174.503998 12 161.380997 12 146.654999 C 12 129.740997 18.182007 114.942993 27.427994 106.764008 C 25.324005 120.901001 24.048996 131.358002 24.029007 131.518997 M 52 29.067001 C 52 29.067001 72.481003 24 101.151993 24 C 108.320007 24 116 24.317001 124 25.108002 L 124.258003 32.013 C 124.171997 32.01001 124.086998 32 124 32 L 48.966995 32 C 49.973999 30.427002 50.987 29.402008 52 29.067001 M 247.947006 87.367996 C 247.936005 87.296997 247.914993 87.229996 247.899994 87.160004 C 247.871002 87.027008 247.841995 86.893997 247.800003 86.764999 C 247.774002 86.684998 247.740005 86.609009 247.710007 86.531998 C 247.664001 86.417999 247.617996 86.304993 247.563004 86.195007 C 247.524002 86.117996 247.479996 86.044998 247.436005 85.971008 C 247.375 85.869003 247.311996 85.768005 247.242996 85.671005 C 247.192001 85.600006 247.138 85.533005 247.082993 85.464996 C 247.007996 85.373993 246.929001 85.285995 246.845993 85.201996 C 246.785004 85.139008 246.722 85.078003 246.656998 85.020004 C 246.567993 84.94101 246.475006 84.867996 246.380005 84.796997 C 246.309006 84.744003 246.238007 84.69101 246.162994 84.643005 C 246.061996 84.578003 245.955002 84.520996 245.847 84.464005 C 245.768997 84.423004 245.692993 84.380005 245.612 84.345001 C 245.587006 84.334 245.565994 84.319 245.541 84.30899 C 245.485992 84.285995 245.427002 84.277008 245.371002 84.257004 C 245.264999 84.218002 245.162994 84.171005 245.052002 84.140991 C 244.587997 84.014008 233.472992 81.009003 214.352005 77.968994 C 196.759003 75.173004 168.813995 71.839996 135.588989 71.839996 C 132.421997 71.839996 131.93399 71.871002 129.755005 71.931 L 129.126007 55.112 C 130.846008 54.056 132 52.162994 132 50 L 132 40 C 132 37.175003 130.524994 34.694 128.307999 33.269989 L 127.997002 24.959 L 127.866997 21.472 L 124.393997 21.127991 C 116.832001 20.378998 109.013 20 101.154007 20 L 101.151993 20 C 72.324997 20 51.895004 24.972992 51.039001 25.184998 L 50.891006 25.221008 L 50.746994 25.268997 C 48.748001 25.928009 46.628998 27.575989 44.289993 32.156998 C 39.589005 32.972 36 37.070007 36 42 L 36 50 C 36 51.367004 36.464005 52.623993 37.237 53.634003 C 35.475006 60.867004 33.593002 69.928009 31.561996 81.31601 C 30.362 88.048996 29.266006 94.766006 28.302994 101.001007 C 24.529999 103.552002 21.072006 107.041 18.080002 111.402008 C 11.580002 120.873001 8 133.393005 8 146.654999 C 8 163.929993 14.225998 179.608002 24 188.800995 L 24 215.605011 C 24 226.850998 33.149002 236 44.395004 236 L 95.210007 236 C 115.496002 236 132 219.496002 132 199.209991 L 132 146.165009 C 143.075989 147.382004 154.360001 148 165.610992 148 C 190.001999 148 210.302002 145.085999 223.037994 142.641998 C 236.908005 139.979996 244.927994 137.334991 245.263 137.222992 C 246.897003 136.679001 248 135.149994 248 133.428009 L 248 132 L 248 88 C 248 87.785995 247.979996 87.574997 247.947006 87.367996"/>
</svg>
