<?xml version="1.0" encoding="UTF-8"?>
<!-- Generated by Pixelmator Pro 3.7.1 -->
<svg width="256" height="256" viewBox="0 0 256 256" xmlns="http://www.w3.org/2000/svg">
    <path id="Path" fill="#ffffff" stroke="none" d="M 80 88 L 176 88 L 176 160 L 80 160 Z M 80 164 L 176 164 C 178.209 164 180 162.209 180 160 L 180 88 C 180 85.791 178.209 84 176 84 L 80 84 C 77.791 84 76 85.791 76 88 L 76 160 C 76 162.209 77.791 164 80 164"/>
    <path id="path1" fill="#ffffff" stroke="none" d="M 198 116 C 201.313004 116 204 118.686996 204 122 C 204 125.313004 201.313004 128 198 128 C 194.686996 128 192 125.313004 192 122 C 192 118.686996 194.686996 116 198 116 M 210 104 C 213.313004 104 216 106.686996 216 110 C 216 113.313004 213.313004 116 210 116 C 206.686996 116 204 113.313004 204 110 C 204 106.686996 206.686996 104 210 104 M 222 116 C 225.313004 116 228 118.686996 228 122 C 228 125.313004 225.313004 128 222 128 C 218.686996 128 216 125.313004 216 122 C 216 118.686996 218.686996 116 222 116 M 207.742996 119.742996 C 208.468994 119.910995 209.225006 120 210 120 C 210.774994 120 211.531006 119.910995 212.257004 119.742996 C 212.089005 120.468994 212 121.223999 212 122 C 212 122.776001 212.089005 123.531006 212.257004 124.257004 C 211.531006 124.089005 210.774994 124 210 124 C 209.225006 124 208.468994 124.089005 207.742996 124.257004 C 207.910995 123.531006 208 122.776001 208 122 C 208 121.223999 207.910995 120.468994 207.742996 119.742996 M 210 140 C 206.686996 140 204 137.313004 204 134 C 204 130.686996 206.686996 128 210 128 C 213.313004 128 216 130.686996 216 134 C 216 137.313004 213.313004 140 210 140 M 198 132 C 198.774994 132 199.531006 131.911011 200.257004 131.742996 C 200.089005 132.468994 200 133.225006 200 134 C 200 139.514008 204.485992 144 210 144 C 215.514008 144 220 139.514008 220 134 C 220 133.225006 219.910995 132.468994 219.742996 131.742996 C 220.468994 131.911011 221.225006 132 222 132 C 227.514008 132 232 127.514008 232 122 C 232 116.485992 227.514008 112 222 112 C 221.225006 112 220.468994 112.089005 219.742996 112.257004 C 219.910995 111.531006 220 110.776001 220 110 C 220 104.485992 215.514008 100 210 100 C 204.485992 100 200 104.485992 200 110 C 200 110.776001 200.089005 111.531006 200.257004 112.257004 C 199.531006 112.089005 198.774994 112 198 112 C 192.485992 112 188 116.485992 188 122 C 188 127.514008 192.485992 132 198 132"/>
    <path id="path2" fill="#ffffff" stroke="none" d="M 126 78 C 126 79.104004 126.896004 80 128 80 C 129.104004 80 130 79.104004 130 78 L 130 60.014008 C 129.335007 60.007996 128.675995 60 128 60 C 127.323997 60 126.665001 60.007996 126 60.014008 Z"/>
    <path id="path3" fill="#ffffff" stroke="none" d="M 63.900398 123.8853 C 63.562401 125.229294 62.338402 126.150299 60.999401 126.150299 C 60.554401 126.150299 60.097401 126.049301 59.658401 125.8293 L 55.5774 123.789307 C 54.103401 123.052307 54.103401 120.948303 55.5774 120.211304 L 59.658401 118.171295 C 60.097401 117.951294 60.554401 117.850296 60.999401 117.850296 C 62.338402 117.850296 63.562401 118.770294 63.900398 120.114304 C 63.964401 120.734299 64.000397 121.363297 64.000397 122.000305 C 64.000397 122.636307 63.964401 123.265305 63.900398 123.8853 M 46.000401 104.000305 C 46.663399 104.000305 47.317398 104.041306 47.962399 104.111298 C 49.707401 104.598297 50.698399 106.603302 49.829399 108.3423 L 47.789398 112.422302 C 47.420399 113.159302 46.7104 113.528305 46.000401 113.528305 C 45.290398 113.528305 44.579399 113.159302 44.211399 112.422302 L 42.171398 108.3423 C 41.301399 106.603302 42.2924 104.598297 44.037399 104.111298 C 44.6824 104.041306 45.336399 104.000305 46.000401 104.000305 M 31.001402 117.850296 C 31.445398 117.850296 31.902401 117.951294 32.3414 118.171295 L 36.422398 120.211304 C 37.8964 120.948303 37.8964 123.052307 36.422398 123.789307 L 32.3414 125.8293 C 31.902401 126.049301 31.445398 126.150299 31.001402 126.150299 C 29.661402 126.150299 28.438398 125.229294 28.099401 123.8853 C 28.035398 123.265305 28.000399 122.636307 28.000399 122.000305 C 28.000399 121.363297 28.035398 120.734299 28.099401 120.114304 C 28.438398 118.770294 29.661402 117.850296 31.001402 117.850296 M 53.406399 133.869293 L 51.366398 129.789307 C 50.343399 127.743301 48.287399 126.472305 46.000401 126.472305 C 43.713398 126.472305 41.656399 127.743301 40.6334 129.789307 L 38.593399 133.869293 C 37.927399 135.201294 37.715401 136.665298 37.937401 138.077301 C 34.476398 136.337311 31.659399 133.519302 29.9214 130.057297 C 30.274401 130.112305 30.632399 130.149292 31.001402 130.149292 C 32.0914 130.149292 33.144398 129.899292 34.130398 129.407303 L 38.211399 127.366302 C 40.256401 126.343307 41.527401 124.287292 41.527401 122.000305 C 41.527401 119.713303 40.256401 117.656296 38.211399 116.633301 L 34.130398 114.593307 C 33.144398 114.100296 32.0914 113.850296 31.001402 113.850296 C 30.632399 113.850296 30.274401 113.887299 29.9214 113.942307 C 31.659399 110.480301 34.476398 107.6633 37.937401 105.923294 C 37.715401 107.335297 37.927399 108.799301 38.593399 110.130295 L 40.6334 114.211304 C 41.656399 116.257294 43.713398 117.528305 46.000401 117.528305 C 48.287399 117.528305 50.343399 116.257294 51.366398 114.211304 L 53.406399 110.130295 C 54.072399 108.799301 54.284401 107.335297 54.062401 105.923294 C 57.524399 107.6633 60.340401 110.480301 62.079399 113.942307 C 61.726398 113.887299 61.367401 113.850296 60.999401 113.850296 C 59.908401 113.850296 58.8554 114.100296 57.8694 114.593307 L 53.789398 116.633301 C 51.743401 117.656296 50.472401 119.713303 50.472401 122.000305 C 50.472401 124.287292 51.743401 126.343307 53.789398 127.366302 L 57.8694 129.407303 C 58.8554 129.899292 59.908401 130.149292 60.999401 130.149292 C 61.367401 130.149292 61.726398 130.112305 62.079399 130.057297 C 60.340401 133.519302 57.524399 136.337311 54.062401 138.077301 C 54.284401 136.665298 54.072399 135.201294 53.406399 133.869293 M 46.000401 140.000305 C 45.336399 140.000305 44.6824 139.958298 44.037399 139.888306 C 42.2924 139.402298 41.301399 137.396301 42.171398 135.658295 L 44.211399 131.578308 C 44.579399 130.841309 45.290398 130.471298 46.000401 130.471298 C 46.7104 130.471298 47.420399 130.841309 47.789398 131.578308 L 49.829399 135.658295 C 50.698399 137.396301 49.707401 139.402298 47.962399 139.888306 C 47.317398 139.958298 46.663399 140.000305 46.000401 140.000305 M 128.000397 196.000305 C 60.000401 196.000305 12.000399 192.000305 12.000399 148.000305 C 12.000399 106.381302 44.2034 75.514297 68.000397 68.908295 L 68.000397 120.854294 C 68.000397 120.3423 67.941399 119.843307 67.836403 119.362305 C 66.628403 109.3013 58.607399 101.310303 48.531399 100.150299 C 48.080399 100.060303 47.6194 100.000305 47.1464 100.000305 L 44.854401 100.000305 C 44.380398 100.000305 43.920399 100.060303 43.468399 100.150299 C 33.393398 101.310303 25.3724 109.3013 24.163401 119.362305 C 24.058401 119.843307 24.000399 120.3423 24.000399 120.854294 L 24.000399 123.146301 C 24.000399 123.658295 24.058401 124.156296 24.163401 124.637299 C 25.3724 134.698303 33.393398 142.689301 43.468399 143.849304 C 43.920399 143.939301 44.380398 144.000305 44.854401 144.000305 L 47.1464 144.000305 C 47.6194 144.000305 48.080399 143.939301 48.531399 143.849304 C 58.607399 142.689301 66.628403 134.698303 67.836403 124.637299 C 67.941399 124.156296 68.000397 123.658295 68.000397 123.146301 L 68.000397 176.000305 C 68.000397 180.411301 71.588402 184.000305 76.000397 184.000305 L 180.000397 184.000305 C 184.411407 184.000305 188.000397 180.411301 188.000397 176.000305 L 188.000397 122.000305 L 188.000397 68.908295 C 211.796402 75.514297 244.000412 106.381302 244.000412 148.000305 C 244.000412 192.000305 196.000412 196.000305 128.000397 196.000305 M 36.000401 72.859299 C 36.000401 72.310303 36.218399 71.775299 36.620399 71.402298 C 43.245399 65.261307 52.2164 64.215302 55.081398 64.036301 C 55.123398 64.034302 55.164398 64.032303 55.206398 64.032303 C 55.735401 64.032303 56.241402 64.241302 56.6194 64.619308 L 58.038399 66.0383 C 59.003399 67.003296 58.739399 67.389297 57.518398 68.000305 L 56.546398 68.546295 L 56.933399 68.933304 C 50.808399 71.950302 44.586399 76.173294 38.7174 81.435303 L 37.596397 79.192307 L 37.447399 79.276306 C 37.3004 79.349304 37.148399 79.383301 37.000401 79.383301 C 36.475399 79.383301 36.000401 78.961304 36.000401 78.382309 Z M 72.000397 68.000305 C 72.000397 68.000305 80.367401 64.658295 96.000397 62.295303 L 96.000397 78.000305 C 96.000397 79.104309 96.895401 80.000305 98.000397 80.000305 C 99.104401 80.000305 100.000397 79.104309 100.000397 78.000305 L 100.000397 61.741302 C 103.669403 61.266296 107.655403 60.851303 112.000397 60.548294 L 112.000397 78.000305 C 112.000397 79.104309 112.895401 80.000305 114.000397 80.000305 C 115.104401 80.000305 116.000397 79.104309 116.000397 78.000305 L 116.000397 60.308304 C 119.778397 60.113297 123.774399 60.000305 128.000397 60.000305 C 132.225403 60.000305 136.221405 60.113297 140.000397 60.308304 L 140.000397 78.000305 C 140.000397 79.104309 140.895401 80.000305 142.000397 80.000305 C 143.104401 80.000305 144.000397 79.104309 144.000397 78.000305 L 144.000397 60.548294 C 148.344406 60.851303 152.331406 61.266296 156.000397 61.741302 L 156.000397 78.000305 C 156.000397 79.104309 156.895401 80.000305 158.000397 80.000305 C 159.104401 80.000305 160.000397 79.104309 160.000397 78.000305 L 160.000397 62.295303 C 175.632401 64.658295 184.000397 68.000305 184.000397 68.000305 L 184.000397 176.000305 C 184.000397 178.209305 182.209396 180.000305 180.000397 180.000305 L 76.000397 180.000305 C 73.791397 180.000305 72.000397 178.209305 72.000397 176.000305 Z M 197.962402 66.0383 L 199.380402 64.619308 C 199.757401 64.241302 200.263412 64.032303 200.794403 64.032303 C 200.835403 64.032303 200.877411 64.034302 200.919403 64.036301 C 203.783401 64.215302 212.75441 65.261307 219.37941 71.402298 C 219.781403 71.775299 220.000412 72.310303 220.000412 72.859299 L 220.000412 78.382309 C 220.000412 78.961304 219.524399 79.383301 219.000412 79.383301 C 218.85141 79.383301 218.699402 79.349304 218.552399 79.276306 L 218.403412 79.192307 L 217.28241 81.434296 C 211.414413 76.173294 205.191406 71.950302 199.067413 68.933304 L 199.454407 68.546295 L 198.4814 68.000305 C 197.260406 67.389297 196.997406 67.003296 197.962402 66.0383 M 220.325409 84.294296 L 220.986404 82.971298 C 222.757401 82.201309 224.000412 80.434296 224.000412 78.382309 L 224.000412 72.859299 C 224.000412 71.189301 223.306412 69.589294 222.098404 68.469299 C 214.666412 61.578308 204.984406 60.281296 201.167404 60.044296 C 201.042404 60.036301 200.918411 60.032303 200.794403 60.032303 C 199.192413 60.032303 197.686401 60.657303 196.552399 61.790298 L 195.133408 63.209305 C 194.109406 64.233307 193.533401 65.327301 193.404404 66.473297 C 190.576401 65.417297 187.799408 64.626297 185.129395 64.1483 C 182.187408 63.036301 162.210403 56.000305 128.000397 56.000305 C 93.789398 56.000305 73.812401 63.036301 70.871399 64.1483 C 68.200401 64.626297 65.423401 65.417297 62.595402 66.473297 C 62.4664 65.327301 61.8904 64.233307 60.866402 63.209305 L 59.447399 61.790298 C 58.3144 60.657303 56.8074 60.032303 55.206398 60.032303 C 55.082401 60.032303 54.958401 60.036301 54.833401 60.044296 C 51.0154 60.281296 41.3344 61.578308 33.901398 68.468307 C 32.692398 69.589294 32.000401 71.189301 32.000401 72.859299 L 32.000401 78.382309 C 32.000401 80.434296 33.242397 82.201309 35.013401 82.971298 L 35.6744 84.294296 C 20.243399 99.4263 8.000399 121.812302 8.000399 148.000305 C 8.000399 170.2883 19.544401 184.783295 43.291401 192.312302 C 63.479401 198.714294 90.671402 200.000305 128.000397 200.000305 C 165.329407 200.000305 192.520401 198.714294 212.709412 192.312302 C 236.456406 184.783295 248.000412 170.2883 248.000412 148.000305 C 248.000412 121.812302 235.755402 99.4263 220.325409 84.294296"/>
</svg>
