<?xml version="1.0" encoding="UTF-8"?>
<!-- Generated by Pixelmator Pro 3.7.1 -->
<svg width="256" height="256" viewBox="0 0 256 256" xmlns="http://www.w3.org/2000/svg">
    <path id="Path" fill="#ffffff" stroke="none" d="M 236 192 L 228 192 L 228 56 L 236 56 Z M 20 56 L 28 56 L 28 192 L 20 192 Z M 36 180 L 40 180 L 64 180 L 68 180 L 76 180 L 80 180 L 88 180 L 92 180 L 180 180 L 184 180 L 192 180 L 196 180 L 216 180 L 220 180 L 224 188 L 32 188 Z M 32 104.944 L 32.422001 105.789001 C 33.099998 107.143997 34.485001 108 36 108 L 36 176 C 34.485001 176 33.099998 176.856003 32.422001 178.210999 L 32 179.056 Z M 220 104 L 216 104 L 200 104 L 196 104 L 188 104 L 184 104 L 176 104 L 172 104 L 164 104 L 160 104 L 152 104 L 148 104 L 40 104 L 36 104 L 32 96 L 224 96 Z M 220 108 C 221.514999 108 222.899994 107.143997 223.578003 105.789001 L 224 104.944 L 224 179.056 L 223.578003 178.210999 C 222.899994 176.856003 221.514999 176 220 176 Z M 196 168 L 200 168 L 204 168 L 204 164 L 204 156 L 208 156 L 208 152 L 208 144 L 208 140 L 204 140 L 204 132 L 208 132 L 208 128 L 208 120 L 208 116 L 204 116 L 200 116 L 200 108 L 216 108 L 216 176 L 196 176 Z M 184 168 L 188 168 L 192 168 L 192 176 L 184 176 Z M 92 168 L 96 168 L 104 168 L 108 168 L 116 168 L 120 168 L 128 168 L 132 168 L 140 168 L 144 168 L 152 168 L 156 168 L 164 168 L 168 168 L 176 168 L 180 168 L 180 176 L 92 176 Z M 80 168 L 84 168 L 88 168 L 88 176 L 80 176 Z M 68 168 L 72 168 L 76 168 L 76 176 L 68 176 Z M 148 116 L 144 116 L 136 116 L 132 116 L 124 116 L 120 116 L 112 116 L 108 116 L 100 116 L 96 116 L 88 116 L 84 116 L 76 116 L 72 116 L 64 116 L 60 116 L 52 116 L 48 116 L 48 120 L 48 128 L 48 132 L 52 132 L 56 132 L 56 140 L 56 144 L 60 144 L 60 152 L 60 156 L 64 156 L 68 156 L 68 164 L 64 164 L 64 168 L 64 176 L 40 176 L 40 108 L 148 108 Z M 160 116 L 156 116 L 152 116 L 152 108 L 160 108 Z M 172 116 L 168 116 L 164 116 L 164 108 L 172 108 Z M 184 116 L 180 116 L 176 116 L 176 108 L 184 108 Z M 196 116 L 192 116 L 188 116 L 188 108 L 196 108 Z M 196 128 L 196 120 L 200 120 L 204 120 L 204 128 L 200 128 Z M 200 140 L 196 140 L 192 140 L 184 140 L 184 132 L 192 132 L 196 132 L 200 132 Z M 196 152 L 196 144 L 200 144 L 204 144 L 204 152 L 200 152 Z M 192 156 L 196 156 L 200 156 L 200 164 L 196 164 L 192 164 Z M 180 156 L 184 156 L 188 156 L 188 164 L 184 164 L 180 164 Z M 168 156 L 172 156 L 176 156 L 176 164 L 168 164 Z M 156 156 L 160 156 L 164 156 L 164 164 L 156 164 Z M 144 156 L 148 156 L 152 156 L 152 164 L 144 164 Z M 132 156 L 136 156 L 140 156 L 140 164 L 132 164 Z M 120 156 L 124 156 L 128 156 L 128 164 L 120 164 Z M 108 156 L 112 156 L 116 156 L 116 164 L 108 164 Z M 96 156 L 100 156 L 104 156 L 104 164 L 96 164 Z M 84 156 L 88 156 L 92 156 L 92 164 L 88 164 L 84 164 Z M 72 156 L 76 156 L 80 156 L 80 164 L 76 164 L 72 164 Z M 64 144 L 68 144 L 72 144 L 72 152 L 68 152 L 64 152 Z M 60 132 L 64 132 L 68 132 L 68 140 L 64 140 L 60 140 Z M 60 128 L 56 128 L 52 128 L 52 120 L 60 120 Z M 72 128 L 68 128 L 64 128 L 64 120 L 72 120 Z M 84 128 L 80 128 L 76 128 L 76 120 L 84 120 Z M 96 128 L 92 128 L 88 128 L 88 120 L 96 120 Z M 108 128 L 104 128 L 100 128 L 100 120 L 108 120 Z M 120 128 L 116 128 L 112 128 L 112 120 L 120 120 Z M 132 128 L 128 128 L 124 128 L 124 120 L 132 120 Z M 144 128 L 140 128 L 136 128 L 136 120 L 144 120 Z M 156 128 L 152 128 L 148 128 L 148 120 L 152 120 L 156 120 Z M 168 128 L 164 128 L 160 128 L 160 120 L 164 120 L 168 120 Z M 172 144 L 176 144 L 180 144 L 180 152 L 176 152 L 172 152 Z M 160 144 L 164 144 L 168 144 L 168 152 L 164 152 L 160 152 Z M 148 144 L 152 144 L 156 144 L 156 152 L 152 152 L 148 152 Z M 136 144 L 140 144 L 144 144 L 144 152 L 140 152 L 136 152 Z M 124 144 L 128 144 L 132 144 L 132 152 L 128 152 L 124 152 Z M 112 144 L 116 144 L 120 144 L 120 152 L 116 152 L 112 152 Z M 100 144 L 104 144 L 108 144 L 108 152 L 104 152 L 100 152 Z M 88 144 L 92 144 L 96 144 L 96 152 L 92 152 L 88 152 Z M 76 144 L 80 144 L 84 144 L 84 152 L 80 152 L 76 152 Z M 92 140 L 88 140 L 84 140 L 84 132 L 88 132 L 92 132 Z M 104 140 L 100 140 L 96 140 L 96 132 L 100 132 L 104 132 Z M 116 140 L 112 140 L 108 140 L 108 132 L 112 132 L 116 132 Z M 128 140 L 124 140 L 120 140 L 120 132 L 124 132 L 128 132 Z M 140 140 L 136 140 L 132 140 L 132 132 L 136 132 L 140 132 Z M 152 140 L 148 140 L 144 140 L 144 132 L 148 132 L 152 132 Z M 164 140 L 160 140 L 156 140 L 156 132 L 160 132 L 164 132 Z M 176 140 L 172 140 L 168 140 L 168 132 L 172 132 L 176 132 Z M 72 132 L 76 132 L 80 132 L 80 140 L 76 140 L 72 140 Z M 192 152 L 188 152 L 184 152 L 184 144 L 192 144 Z M 180 128 L 176 128 L 172 128 L 172 120 L 176 120 L 180 120 Z M 192 128 L 184 128 L 184 120 L 188 120 L 192 120 Z M 40 56 L 40 64 L 44 64 L 44 56 L 48 56 L 48 64 L 52 64 L 52 56 L 56 56 L 56 64 L 60 64 L 60 56 L 64 56 L 64 64 L 68 64 L 68 56 L 72 56 L 72 64 L 76 64 L 76 56 L 80 56 L 80 64 L 84 64 L 84 56 L 88 56 L 88 64 L 92 64 L 92 56 L 96 56 L 96 64 L 100 64 L 100 56 L 104 56 L 104 64 L 108 64 L 108 56 L 112 56 L 112 64 L 116 64 L 116 56 L 120 56 L 120 64 L 124 64 L 124 56 L 128 56 L 128 64 L 132 64 L 132 56 L 136 56 L 136 64 L 140 64 L 140 56 L 144 56 L 144 64 L 148 64 L 148 56 L 152 56 L 152 64 L 156 64 L 156 56 L 160 56 L 160 64 L 164 64 L 164 56 L 168 56 L 168 64 L 172 64 L 172 56 L 176 56 L 176 64 L 180 64 L 180 56 L 184 56 L 184 64 L 188 64 L 188 56 L 192 56 L 192 64 L 196 64 L 196 56 L 200 56 L 200 64 L 204 64 L 204 56 L 208 56 L 208 64 L 212 64 L 212 56 L 216 56 L 216 64 L 220 64 L 220 56 L 224 56 L 224 92 L 32 92 L 32 56 Z M 236 52 L 20 52 L 16 52 L 16 56 L 16 192 L 16 196 L 20 196 L 236 196 L 240 196 L 240 192 L 240 56 L 240 52 Z"/>
    <path id="path1" fill="#ffffff" stroke="none" d="M 148 76 L 152 72 L 208 72 L 212 76 L 212 84 L 148 84 Z M 212 88 L 216 88 L 216 84 L 216 76 L 216 74.343002 L 214.828003 73.171997 L 210.828003 69.171997 L 209.656998 68 L 208 68 L 152 68 L 150.343002 68 L 149.171997 69.171997 L 145.171997 73.171997 L 144 74.343002 L 144 76 L 144 84 L 144 88 L 148 88 Z"/>
</svg>
