<?xml version="1.0" encoding="UTF-8"?>
<!-- Generated by Pixelmator Pro 3.7.1 -->
<svg width="256" height="256" viewBox="0 0 256 256" xmlns="http://www.w3.org/2000/svg">
    <path id="Path" fill="#ffffff" stroke="none" d="M 244 204 L 12 204 L 12 52 L 20 52 L 20 104 L 20 108 L 24 108 L 236 108 L 240 108 L 240 104 L 240 52 L 244 52 Z M 236 104 L 24 104 L 24 52 L 236 52 Z M 244 48 L 240 48 L 236 48 L 24 48 L 20 48 L 12 48 L 8 48 L 8 52 L 8 204 L 8 208 L 12 208 L 244 208 L 248 208 L 248 204 L 248 52 L 248 48 Z"/>
    <path id="path1" fill="#ffffff" stroke="none" d="M 36 188 C 36 190.209 34.209 192 32 192 C 29.791 192 28 190.209 28 188 L 28 172 C 28 169.791 29.791 168 32 168 C 34.209 168 36 169.791 36 172 Z M 32 164 C 27.589001 164 24 167.589005 24 172 L 24 188 C 24 192.410995 27.589001 196 32 196 C 36.410999 196 40 192.410995 40 188 L 40 172 C 40 167.589005 36.410999 164 32 164"/>
    <path id="path2" fill="#ffffff" stroke="none" d="M 228 188 C 228 190.209 226.209 192 224 192 C 221.791 192 220 190.209 220 188 L 220 172 C 220 169.791 221.791 168 224 168 C 226.209 168 228 169.791 228 172 Z M 224 164 C 219.589005 164 216 167.589005 216 172 L 216 188 C 216 192.410995 219.589005 196 224 196 C 228.410995 196 232 192.410995 232 188 L 232 172 C 232 167.589005 228.410995 164 224 164"/>
    <path id="path3" fill="#ffffff" stroke="none" d="M 115.199997 116 L 140.800003 116 L 144 112 L 112 112 Z"/>
    <path id="path4" fill="#ffffff" stroke="none" d="M 121.599998 124 L 134.399994 124 L 137.600006 120 L 118.400002 120 Z"/>
    <path id="path5" fill="#ffffff" stroke="none" d="M 128 132 L 131.199997 128 L 124.800003 128 Z"/>
</svg>
