<?xml version="1.0" encoding="UTF-8"?>
<!-- Generated by Pixelmator Pro 3.7.1 -->
<svg width="256" height="256" viewBox="0 0 256 256" xmlns="http://www.w3.org/2000/svg">
    <path id="Path" fill="#ffffff" stroke="none" d="M 244 206 C 244 207.104004 243.104004 208 242 208 L 14 208 C 12.895996 208 12 207.104004 12 206 L 12 50 C 12 48.895996 12.895996 48 14 48 L 242 48 C 243.104004 48 244 48.895996 244 50 Z M 242 44 L 14 44 C 10.690994 44 8 46.690994 8 50 L 8 206 C 8 209.30899 10.690994 212 14 212 L 242 212 C 245.309006 212 248 209.30899 248 206 L 248 50 C 248 46.690994 245.309006 44 242 44"/>
    <path id="path1" fill="#ffffff" stroke="none" d="M 236 200 L 20 200 L 20 160 L 236 160 Z M 236 156 L 20 156 C 17.791 156 16 157.791 16 160 L 16 200 C 16 202.209 17.791 204 20 204 L 236 204 C 238.209 204 240 202.209 240 200 L 240 160 C 240 157.791 238.209 156 236 156"/>
    <path id="path2" fill="#ffffff" stroke="none" d="M 24 144 L 232 144 L 232 148 L 24 148 Z M 24 56 L 232 56 L 232 124 L 24 124 Z M 232 140 L 24 140 L 24 128 L 232 128 Z M 236 144 L 236 124 L 236 52 L 20 52 L 20 124 L 20 144 L 20 152 L 236 152 Z"/>
</svg>
