<?xml version="1.0" encoding="UTF-8"?>
<!-- Generated by Pixelmator Pro 3.7.1 -->
<svg width="256" height="256" viewBox="0 0 256 256" xmlns="http://www.w3.org/2000/svg">
    <path id="Path" fill="#ffffff" stroke="none" d="M 244 218 C 244 219.104004 243.104004 220 242 220 L 212 220 L 212 144 C 212 137.382996 206.617004 132 200 132 L 140 132 L 140 124 L 236 124 L 240 124 L 240 120 L 240 48 L 240 44 L 236 44 L 20 44 L 16 44 L 16 48 L 16 120 L 16 124 L 20 124 L 116 124 L 116 132 L 56 132 C 49.382996 132 44 137.382996 44 144 L 44 220 L 14 220 C 12.895996 220 12 219.104004 12 218 L 12 38 C 12 36.895996 12.895996 36 14 36 L 242 36 C 243.104004 36 244 36.895996 244 38 Z M 120 124 L 136 124 L 136 132 L 120 132 Z M 180 120 L 176 120 L 176 48 L 180 48 Z M 188 120 L 184 120 L 184 48 L 188 48 Z M 196 120 L 192 120 L 192 48 L 196 48 Z M 204 120 L 200 120 L 200 48 L 204 48 Z M 212 120 L 208 120 L 208 48 L 212 48 Z M 220 120 L 216 120 L 216 48 L 220 48 Z M 228 120 L 224 120 L 224 48 L 228 48 Z M 232 48 L 236 48 L 236 120 L 232 120 Z M 84 48 L 172 48 L 172 120 L 140 120 L 136 120 L 120 120 L 116 120 L 84 120 Z M 76 48 L 80 48 L 80 120 L 76 120 Z M 68 48 L 72 48 L 72 120 L 68 120 Z M 60 48 L 64 48 L 64 120 L 60 120 Z M 52 48 L 56 48 L 56 120 L 52 120 Z M 44 48 L 48 48 L 48 120 L 44 120 Z M 36 48 L 40 48 L 40 120 L 36 120 Z M 28 48 L 32 48 L 32 120 L 28 120 Z M 24 120 L 20 120 L 20 48 L 24 48 Z M 48 220 L 48 144 C 48 139.582001 51.582001 136 56 136 L 116 136 L 120 136 L 136 136 L 140 136 L 200 136 C 204.417999 136 208 139.582001 208 144 L 208 220 Z M 242 32 L 14 32 C 10.690994 32 8 34.690994 8 38 L 8 218 C 8 221.30899 10.690994 224 14 224 L 44 224 L 48 224 L 208 224 L 212 224 L 242 224 C 245.309006 224 248 221.30899 248 218 L 248 38 C 248 34.690994 245.309006 32 242 32"/>
    <path id="path1" fill="#ffffff" stroke="none" d="M 76 207 C 76 207.553009 75.552002 208 75 208 L 69 208 C 68.447998 208 68 207.553009 68 207 L 68 201 C 68 200.446991 68.447998 200 69 200 L 75 200 C 75.552002 200 76 200.446991 76 201 Z M 75 196 L 69 196 C 66.242996 196 64 198.242996 64 201 L 64 207 C 64 209.757004 66.242996 212 69 212 L 75 212 C 77.757004 212 80 209.757004 80 207 L 80 201 C 80 198.242996 77.757004 196 75 196"/>
    <path id="path2" fill="#ffffff" stroke="none" d="M 188 182.4189 C 188 183.291901 187.292007 183.999908 186.419006 183.999908 L 169.580994 183.999908 C 168.708008 183.999908 168 183.291901 168 182.4189 L 168 177.580902 C 168 176.707901 168.708008 175.999908 169.580994 175.999908 L 173 175.999908 L 179 175.999908 L 186.419006 175.999908 C 187.292007 175.999908 188 176.707901 188 177.580902 Z M 164 182.999908 C 164 183.552902 163.552994 183.999908 163 183.999908 L 157 183.999908 C 156.447006 183.999908 156 183.552902 156 182.999908 L 156 176.999908 C 156 176.446899 156.447006 175.999908 157 175.999908 L 161 175.999908 L 163 175.999908 C 163.552994 175.999908 164 176.446899 164 176.999908 L 164 177.580902 L 164 182.4189 Z M 151 183.999908 L 147 183.999908 L 145 183.999908 C 144.446991 183.999908 144 183.552902 144 182.999908 L 144 176.999908 C 144 176.446899 144.446991 175.999908 145 175.999908 L 149 175.999908 L 151 175.999908 C 151.553009 175.999908 152 176.446899 152 176.999908 L 152 182.999908 C 152 183.552902 151.553009 183.999908 151 183.999908 M 148 194.999908 C 148 195.552902 147.553009 195.999908 147 195.999908 L 141 195.999908 C 140.446991 195.999908 140 195.552902 140 194.999908 L 140 188.999908 C 140 188.446899 140.446991 187.999908 141 187.999908 L 145 187.999908 L 147 187.999908 C 147.553009 187.999908 148 188.446899 148 188.999908 Z M 135 195.999908 L 130.419006 195.999908 L 129 195.999908 C 128.447998 195.999908 128 195.552902 128 194.999908 L 128 188.999908 C 128 188.446899 128.447998 187.999908 129 187.999908 L 133 187.999908 L 135 187.999908 C 135.553009 187.999908 136 188.446899 136 188.999908 L 136 194.999908 C 136 195.552902 135.553009 195.999908 135 195.999908 M 132 206.4189 C 132 207.291901 131.291992 207.999908 130.419006 207.999908 L 113.581001 207.999908 C 112.708 207.999908 112 207.291901 112 206.4189 L 112 201.580902 C 112 200.707901 112.708 199.999908 113.581001 199.999908 L 117 199.999908 L 123 199.999908 L 129 199.999908 L 130.419006 199.999908 C 131.291992 199.999908 132 200.707901 132 201.580902 Z M 104 194.999908 L 104 188.999908 C 104 188.446899 104.447998 187.999908 105 187.999908 L 109 187.999908 L 111 187.999908 C 111.552002 187.999908 112 188.446899 112 188.999908 L 112 194.999908 C 112 195.552902 111.552002 195.999908 111 195.999908 L 105 195.999908 C 104.447998 195.999908 104 195.552902 104 194.999908 M 99 195.999908 L 93 195.999908 C 92.447998 195.999908 92 195.552902 92 194.999908 L 92 188.999908 C 92 188.446899 92.447998 187.999908 93 187.999908 L 97 187.999908 L 99 187.999908 C 99.552002 187.999908 100 188.446899 100 188.999908 L 100 194.999908 C 100 195.552902 99.552002 195.999908 99 195.999908 M 84 182.999908 L 84 176.999908 C 84 176.446899 84.447998 175.999908 85 175.999908 L 89 175.999908 L 91 175.999908 C 91.552002 175.999908 92 176.446899 92 176.999908 L 92 182.999908 C 92 183.552902 91.552002 183.999908 91 183.999908 L 85 183.999908 C 84.447998 183.999908 84 183.552902 84 182.999908 M 76 170.999908 L 76 164.999908 C 76 164.446899 76.447998 163.999908 77 163.999908 L 81 163.999908 L 83 163.999908 C 83.552002 163.999908 84 164.446899 84 164.999908 L 84 170.999908 C 84 171.552902 83.552002 171.999908 83 171.999908 L 77 171.999908 C 76.447998 171.999908 76 171.552902 76 170.999908 M 68 158.999908 L 68 152.999908 C 68 152.446899 68.447998 151.999908 69 151.999908 L 75 151.999908 C 75.552002 151.999908 76 152.446899 76 152.999908 L 76 158.999908 C 76 159.552902 75.552002 159.999908 75 159.999908 L 69 159.999908 C 68.447998 159.999908 68 159.552902 68 158.999908 M 81 151.999908 L 87 151.999908 C 87.552002 151.999908 88 152.446899 88 152.999908 L 88 158.999908 C 88 159.552902 87.552002 159.999908 87 159.999908 L 83 159.999908 L 81 159.999908 C 80.447998 159.999908 80 159.552902 80 158.999908 L 80 152.999908 C 80 152.446899 80.447998 151.999908 81 151.999908 M 93 151.999908 L 99 151.999908 C 99.552002 151.999908 100 152.446899 100 152.999908 L 100 158.999908 C 100 159.552902 99.552002 159.999908 99 159.999908 L 95 159.999908 L 93 159.999908 C 92.447998 159.999908 92 159.552902 92 158.999908 L 92 152.999908 C 92 152.446899 92.447998 151.999908 93 151.999908 M 105 151.999908 L 111 151.999908 C 111.552002 151.999908 112 152.446899 112 152.999908 L 112 158.999908 C 112 159.552902 111.552002 159.999908 111 159.999908 L 107 159.999908 L 105 159.999908 C 104.447998 159.999908 104 159.552902 104 158.999908 L 104 152.999908 C 104 152.446899 104.447998 151.999908 105 151.999908 M 117 151.999908 L 123 151.999908 C 123.552002 151.999908 124 152.446899 124 152.999908 L 124 158.999908 C 124 159.552902 123.552002 159.999908 123 159.999908 L 119 159.999908 L 117 159.999908 C 116.447998 159.999908 116 159.552902 116 158.999908 L 116 152.999908 C 116 152.446899 116.447998 151.999908 117 151.999908 M 129 151.999908 L 135 151.999908 C 135.553009 151.999908 136 152.446899 136 152.999908 L 136 158.999908 C 136 159.552902 135.553009 159.999908 135 159.999908 L 131 159.999908 L 129 159.999908 C 128.447998 159.999908 128 159.552902 128 158.999908 L 128 152.999908 C 128 152.446899 128.447998 151.999908 129 151.999908 M 141 151.999908 L 147 151.999908 C 147.553009 151.999908 148 152.446899 148 152.999908 L 148 158.999908 C 148 159.552902 147.553009 159.999908 147 159.999908 L 143 159.999908 L 141 159.999908 C 140.446991 159.999908 140 159.552902 140 158.999908 L 140 152.999908 C 140 152.446899 140.446991 151.999908 141 151.999908 M 153 151.999908 L 159 151.999908 C 159.552994 151.999908 160 152.446899 160 152.999908 L 160 158.999908 C 160 159.552902 159.552994 159.999908 159 159.999908 L 155 159.999908 L 153 159.999908 C 152.446991 159.999908 152 159.552902 152 158.999908 L 152 152.999908 C 152 152.446899 152.446991 151.999908 153 151.999908 M 165 151.999908 L 171 151.999908 C 171.552994 151.999908 172 152.446899 172 152.999908 L 172 158.999908 C 172 159.552902 171.552994 159.999908 171 159.999908 L 167 159.999908 L 165 159.999908 C 164.447006 159.999908 164 159.552902 164 158.999908 L 164 152.999908 C 164 152.446899 164.447006 151.999908 165 151.999908 M 160 170.999908 L 160 164.999908 C 160 164.446899 160.447006 163.999908 161 163.999908 L 165 163.999908 L 167 163.999908 C 167.552994 163.999908 168 164.446899 168 164.999908 L 168 170.999908 C 168 171.552902 167.552994 171.999908 167 171.999908 L 163 171.999908 L 161 171.999908 C 160.447006 171.999908 160 171.552902 160 170.999908 M 148 170.999908 L 148 164.999908 C 148 164.446899 148.446991 163.999908 149 163.999908 L 153 163.999908 L 155 163.999908 C 155.553009 163.999908 156 164.446899 156 164.999908 L 156 170.999908 C 156 171.552902 155.553009 171.999908 155 171.999908 L 151 171.999908 L 149 171.999908 C 148.446991 171.999908 148 171.552902 148 170.999908 M 132 182.999908 L 132 176.999908 C 132 176.446899 132.446991 175.999908 133 175.999908 L 137 175.999908 L 139 175.999908 C 139.553009 175.999908 140 176.446899 140 176.999908 L 140 182.999908 C 140 183.552902 139.553009 183.999908 139 183.999908 L 135 183.999908 L 133 183.999908 C 132.446991 183.999908 132 183.552902 132 182.999908 M 116 194.999908 L 116 188.999908 C 116 188.446899 116.447998 187.999908 117 187.999908 L 121 187.999908 L 123 187.999908 C 123.552002 187.999908 124 188.446899 124 188.999908 L 124 194.999908 C 124 195.552902 123.552002 195.999908 123 195.999908 L 117 195.999908 C 116.447998 195.999908 116 195.552902 116 194.999908 M 108 182.999908 L 108 176.999908 C 108 176.446899 108.447998 175.999908 109 175.999908 L 113 175.999908 L 115 175.999908 C 115.552002 175.999908 116 176.446899 116 176.999908 L 116 182.999908 C 116 183.552902 115.552002 183.999908 115 183.999908 L 111 183.999908 L 109 183.999908 C 108.447998 183.999908 108 183.552902 108 182.999908 M 96 182.999908 L 96 176.999908 C 96 176.446899 96.447998 175.999908 97 175.999908 L 101 175.999908 L 103 175.999908 C 103.552002 175.999908 104 176.446899 104 176.999908 L 104 182.999908 C 104 183.552902 103.552002 183.999908 103 183.999908 L 99 183.999908 L 97 183.999908 C 96.447998 183.999908 96 183.552902 96 182.999908 M 108 164.999908 L 108 170.999908 C 108 171.552902 107.552002 171.999908 107 171.999908 L 103 171.999908 L 101 171.999908 C 100.447998 171.999908 100 171.552902 100 170.999908 L 100 164.999908 C 100 164.446899 100.447998 163.999908 101 163.999908 L 105 163.999908 L 107 163.999908 C 107.552002 163.999908 108 164.446899 108 164.999908 M 120 164.999908 L 120 170.999908 C 120 171.552902 119.552002 171.999908 119 171.999908 L 115 171.999908 L 113 171.999908 C 112.447998 171.999908 112 171.552902 112 170.999908 L 112 164.999908 C 112 164.446899 112.447998 163.999908 113 163.999908 L 117 163.999908 L 119 163.999908 C 119.552002 163.999908 120 164.446899 120 164.999908 M 132 164.999908 L 132 170.999908 C 132 171.552902 131.553009 171.999908 131 171.999908 L 127 171.999908 L 125 171.999908 C 124.447998 171.999908 124 171.552902 124 170.999908 L 124 164.999908 C 124 164.446899 124.447998 163.999908 125 163.999908 L 129 163.999908 L 131 163.999908 C 131.553009 163.999908 132 164.446899 132 164.999908 M 120 182.999908 L 120 176.999908 C 120 176.446899 120.447998 175.999908 121 175.999908 L 125 175.999908 L 127 175.999908 C 127.552002 175.999908 128 176.446899 128 176.999908 L 128 182.999908 C 128 183.552902 127.552002 183.999908 127 183.999908 L 123 183.999908 L 121 183.999908 C 120.447998 183.999908 120 183.552902 120 182.999908 M 144 164.999908 L 144 170.999908 C 144 171.552902 143.553009 171.999908 143 171.999908 L 139 171.999908 L 137 171.999908 C 136.446991 171.999908 136 171.552902 136 170.999908 L 136 164.999908 C 136 164.446899 136.446991 163.999908 137 163.999908 L 141 163.999908 L 143 163.999908 C 143.553009 163.999908 144 164.446899 144 164.999908 M 88 170.999908 L 88 164.999908 C 88 164.446899 88.447998 163.999908 89 163.999908 L 93 163.999908 L 95 163.999908 C 95.552002 163.999908 96 164.446899 96 164.999908 L 96 170.999908 C 96 171.552902 95.552002 171.999908 95 171.999908 L 91 171.999908 L 89 171.999908 C 88.447998 171.999908 88 171.552902 88 170.999908 M 180 164.999908 L 180 170.999908 C 180 171.552902 179.552994 171.999908 179 171.999908 L 173 171.999908 C 172.447006 171.999908 172 171.552902 172 170.999908 L 172 164.999908 C 172 164.446899 172.447006 163.999908 173 163.999908 L 179 163.999908 C 179.552994 163.999908 180 164.446899 180 164.999908 M 186.419006 171.999908 L 183.897995 171.999908 C 183.964996 171.67691 184 171.342896 184 170.999908 L 184 164.999908 C 184 162.242889 181.757004 159.999908 179 159.999908 L 175.897995 159.999908 C 175.964996 159.67691 176 159.342896 176 158.999908 L 176 152.999908 C 176 150.242905 173.757004 147.999908 171 147.999908 L 165 147.999908 C 163.869995 147.999908 162.837997 148.3909 162 149.024902 C 161.162003 148.3909 160.130005 147.999908 159 147.999908 L 153 147.999908 C 151.869995 147.999908 150.837997 148.3909 150 149.024902 C 149.162003 148.3909 148.130005 147.999908 147 147.999908 L 141 147.999908 C 139.869995 147.999908 138.837997 148.3909 138 149.024902 C 137.162003 148.3909 136.130005 147.999908 135 147.999908 L 129 147.999908 C 127.869995 147.999908 126.837997 148.3909 126 149.024902 C 125.162003 148.3909 124.130005 147.999908 123 147.999908 L 117 147.999908 C 115.870003 147.999908 114.837997 148.3909 114 149.024902 C 113.162003 148.3909 112.129997 147.999908 111 147.999908 L 105 147.999908 C 103.870003 147.999908 102.837997 148.3909 102 149.024902 C 101.162003 148.3909 100.129997 147.999908 99 147.999908 L 93 147.999908 C 91.870003 147.999908 90.837997 148.3909 90 149.024902 C 89.162003 148.3909 88.129997 147.999908 87 147.999908 L 81 147.999908 C 79.870003 147.999908 78.837997 148.3909 78 149.024902 C 77.162003 148.3909 76.129997 147.999908 75 147.999908 L 69 147.999908 C 66.242996 147.999908 64 150.242905 64 152.999908 L 64 158.999908 C 64 161.756897 66.242996 163.999908 69 163.999908 L 72.100998 163.999908 C 72.035004 164.322906 72 164.656891 72 164.999908 L 72 170.999908 C 72 173.756897 74.242996 175.999908 77 175.999908 L 80.100998 175.999908 C 80.035004 176.322906 80 176.656891 80 176.999908 L 80 182.999908 C 80 185.756897 82.242996 187.999908 85 187.999908 L 88.100998 187.999908 C 88.035004 188.322906 88 188.656891 88 188.999908 L 88 194.999908 C 88 197.756897 90.242996 199.999908 93 199.999908 L 99 199.999908 C 100.129997 199.999908 101.162003 199.608902 102 198.974899 C 102.837997 199.608902 103.870003 199.999908 105 199.999908 L 108.231003 199.999908 C 108.083 200.501892 108 201.030899 108 201.580902 L 108 206.4189 C 108 209.495895 110.503998 211.999908 113.581001 211.999908 L 130.419006 211.999908 C 133.496002 211.999908 136 209.495895 136 206.4189 L 136 201.580902 C 136 201.004898 135.912003 200.447906 135.748993 199.923904 C 136.587006 199.796906 137.352005 199.464905 138 198.974899 C 138.837997 199.608902 139.869995 199.999908 141 199.999908 L 147 199.999908 C 149.757004 199.999908 152 197.756897 152 194.999908 L 152 188.999908 C 152 188.624908 151.951004 188.262909 151.873001 187.911896 C 152.664001 187.771896 153.384003 187.440903 154 186.974899 C 154.837997 187.608902 155.869995 187.999908 157 187.999908 L 163 187.999908 C 164.210999 187.999908 165.309006 187.549896 166.175003 186.829895 C 167.119003 187.560898 168.298004 187.999908 169.580994 187.999908 L 186.419006 187.999908 C 189.496002 187.999908 192 185.495911 192 182.4189 L 192 177.580902 C 192 174.503906 189.496002 171.999908 186.419006 171.999908"/>
</svg>
