<?xml version="1.0" encoding="UTF-8"?>
<!-- Generated by Pixelmator Pro 3.7.1 -->
<svg width="256" height="256" viewBox="0 0 256 256" xmlns="http://www.w3.org/2000/svg">
    <path id="Path" fill="#ffffff" stroke="none" d="M 220 36 L 36 36 L 36 220 L 220 220 Z M 216 216 L 40 216 L 40 40 L 216 40 Z"/>
    <path id="path1" fill="#ffffff" stroke="none" d="M 123.127899 52 C 122.002899 52 120.915901 52.251999 119.895897 52.75 L 82.932899 70.770004 C 80.433899 71.988007 78.880898 74.472992 78.880898 77.253006 C 78.880898 80.033005 80.433899 82.518005 82.932899 83.735992 L 119.895897 101.755997 C 120.915901 102.253998 122.002899 102.505997 123.127899 102.505997 C 127.159897 102.505997 130.439896 99.261993 130.439896 95.272995 L 130.439896 89.449997 C 138.301895 90.140991 145.809906 92.858002 152.272903 97.367004 C 159.3349 102.294006 164.820908 109.134003 168.139908 117.149002 C 175.155899 134.07901 171.315903 153.395996 158.356903 166.362 C 149.818893 174.904999 138.5009 179.610001 126.4879 179.610001 C 120.5289 179.610001 114.692902 178.442993 109.142899 176.143997 C 92.2099 169.132996 79.999901 152.757996 79.999901 134.428009 L 79.999901 128.222 C 79.999901 124.92099 77.314903 122.235001 74.013901 122.235001 L 61.601898 122.235001 C 58.299896 122.235001 55.614899 124.92099 55.614899 128.222 L 55.614899 134.428009 C 55.614899 162.656006 73.733902 187.873001 99.812897 198.671997 C 108.337898 202.207001 117.316902 204 126.5009 204 C 145.009903 204 162.445908 196.755997 175.599899 183.604004 C 195.560898 163.643005 201.474899 133.895996 190.666901 107.819 C 185.506897 95.354004 176.942902 84.744003 165.902908 77.134003 C 155.412903 69.903992 143.189896 65.729004 130.439896 65.001999 L 130.439896 59.231995 C 130.439896 55.244995 127.159897 52 123.127899 52 M 123.127899 56 C 124.865898 56 126.440903 57.360992 126.440903 59.231995 L 126.440903 66.944 C 126.440903 68.024994 127.3069 68.886002 128.386902 68.916992 C 154.189896 69.677002 177.046906 85.375 186.971909 109.350006 C 197.155899 133.924011 191.57991 161.966003 172.771896 180.774002 C 160.201904 193.343994 143.521896 200 126.5009 200 C 118.0439 200 109.502899 198.360001 101.342903 194.975998 C 76.7649 184.798996 59.614899 161.028992 59.614899 134.428009 L 59.614899 128.222 C 59.614899 127.125 60.503899 126.235001 61.601898 126.235001 L 74.013901 126.235001 C 75.110901 126.235001 75.999901 127.125 75.999901 128.222 L 75.999901 134.428009 C 75.999901 154.380997 89.177902 172.205994 107.610901 179.838989 C 113.733902 182.376007 120.1409 183.610001 126.4879 183.610001 C 139.251907 183.610001 151.7659 178.615997 161.186905 169.190002 C 175.290894 155.076996 179.475906 134.052002 171.8349 115.619003 C 164.465897 97.817001 147.593903 86.102005 128.478897 85.31601 C 128.451904 85.313995 128.425903 85.313995 128.398895 85.313995 C 127.318901 85.313995 126.440903 86.221008 126.440903 87.311005 L 126.440903 88.358002 L 126.440903 95.272995 C 126.440903 97.145004 124.865898 98.505997 123.127899 98.505997 C 122.637901 98.505997 122.133904 98.397003 121.648903 98.160995 L 84.685898 80.141006 C 82.2799 78.966995 82.2799 75.539001 84.685898 74.365005 L 121.648903 56.345001 C 122.133904 56.108002 122.636902 56 123.127899 56"/>
</svg>
