<?xml version="1.0" encoding="UTF-8"?>
<!-- Generated by Pixelmator Pro 3.7.1 -->
<svg width="256" height="256" viewBox="0 0 256 256" xmlns="http://www.w3.org/2000/svg">
    <path id="Path" fill="#ffffff" stroke="none" d="M 240 194 C 240 195.104996 239.104996 196 238 196 L 18 196 C 16.895004 196 16 195.104996 16 194 L 16 166 C 16 164.895004 16.895004 164 18 164 L 20 164 L 236 164 L 238 164 C 239.104996 164 240 164.895004 240 166 Z M 224 160 L 32 160 L 32 76 L 224 76 Z M 36 60 L 220 60 C 228.837006 60 236 67.162994 236 76 L 236 160 L 228 160 L 228 72 L 28 72 L 28 160 L 20 160 L 20 76 C 20 67.162994 27.162994 60 36 60 M 240 160.350006 L 240 76 C 240 64.972 231.028 56 220 56 L 36 56 C 24.972 56 16 64.972 16 76 L 16 160.350006 C 13.673004 161.175995 12 163.393997 12 166 L 12 194 C 12 197.307999 14.692001 200 18 200 L 238 200 C 241.307999 200 244 197.307999 244 194 L 244 166 C 244 163.393997 242.326996 161.175995 240 160.350006"/>
</svg>
