<?xml version="1.0" encoding="UTF-8"?>
<!-- Generated by Pixelmator Pro 3.7.1 -->
<svg width="256" height="256" viewBox="0 0 256 256" xmlns="http://www.w3.org/2000/svg">
    <path id="Path" fill="#ffffff" stroke="none" d="M 240 188 L 216 188 L 216 64 L 240 64 Z M 212 188 L 44 188 L 44 64 L 212 64 Z M 40 188 L 16 188 L 16 64 L 40 64 Z M 12 192 L 244 192 L 244 60 L 12 60 Z"/>
    <path id="path1" fill="#ffffff" stroke="none" d="M 32 104 L 24 104 L 24 96 L 32 96 Z M 24 84 L 32 84 L 32 92 L 24 92 Z M 32 108 L 36 108 L 36 104 L 36 96 L 36 92 L 36 84 L 36 80 L 32 80 L 24 80 L 20 80 L 20 84 L 20 92 L 20 96 L 20 104 L 20 108 L 24 108 Z"/>
    <path id="path2" fill="#ffffff" stroke="none" d="M 24 120 L 32 120 L 32 128 L 24 128 Z M 32 132 L 36 132 L 36 128 L 36 120 L 36 116 L 32 116 L 24 116 L 20 116 L 20 120 L 20 128 L 20 132 L 24 132 Z"/>
    <path id="path3" fill="#ffffff" stroke="none" d="M 232 104 L 224 104 L 224 96 L 232 96 Z M 224 84 L 232 84 L 232 92 L 224 92 Z M 232 108 L 236 108 L 236 104 L 236 96 L 236 92 L 236 84 L 236 80 L 232 80 L 224 80 L 220 80 L 220 84 L 220 92 L 220 96 L 220 104 L 220 108 L 224 108 Z"/>
    <path id="path4" fill="#ffffff" stroke="none" d="M 224 120 L 232 120 L 232 128 L 224 128 Z M 232 132 L 236 132 L 236 128 L 236 120 L 236 116 L 232 116 L 224 116 L 220 116 L 220 120 L 220 128 L 220 132 L 224 132 Z"/>
    <path id="path5" fill="#ffffff" stroke="none" d="M 56 76 C 56 73.794006 57.793999 72 60 72 L 196 72 C 198.205994 72 200 73.794006 200 76 L 200 176 C 200 178.205994 198.205994 180 196 180 L 60 180 C 57.793999 180 56 178.205994 56 176 Z M 60 184 L 196 184 C 200.417999 184 204 180.417999 204 176 L 204 76 C 204 71.582001 200.417999 68 196 68 L 60 68 C 55.582001 68 52 71.582001 52 76 L 52 176 C 52 180.417999 55.582001 184 60 184"/>
    <path id="path6" fill="#ffffff" stroke="none" d="M 191.950806 80 L 188.048798 115.115997 L 188.024796 115.337006 L 187.999802 115.557007 L 187.999802 115.778 L 187.999802 116 L 187.999802 172 L 67.999802 172 L 67.999802 116 L 67.999802 115.778 L 67.999802 115.557007 L 67.9758 115.337006 L 67.950798 115.117004 L 64.048798 80 Z M 63.999805 115.778 L 63.999805 116 L 63.999805 172 C 63.999805 174.205994 65.7948 176 67.999802 176 L 187.999802 176 C 190.205795 176 191.999802 174.205994 191.999802 172 L 191.999802 116 L 191.999802 115.778 L 192.024796 115.557999 L 195.995804 79.815994 C 195.899796 77.695999 194.143799 76 191.999802 76 L 63.999805 76 C 61.855801 76 60.100796 77.695999 60.003796 79.815994 L 63.975803 115.557999 Z"/>
    <path id="path7" fill="#ffffff" stroke="none" d="M 72 89.965195 C 72 88.880203 72.879997 88.000198 73.964996 88.000198 L 182.035004 88.000198 C 183.119995 88.000198 184 88.880203 184 89.965195 L 184 98.035202 C 184 99.120193 183.119995 100.000198 182.035004 100.000198 L 73.964996 100.000198 C 72.879997 100.000198 72 99.120193 72 98.035202 Z M 73.964996 103.930206 L 182.035004 103.930206 C 185.286011 103.930206 187.929993 101.285202 187.929993 98.035202 L 187.929993 89.965195 C 187.929993 86.714203 185.286011 84.069199 182.035004 84.069199 L 73.964996 84.069199 C 70.713997 84.069199 68.07 86.714203 68.07 89.965195 L 68.07 98.035202 C 68.07 101.285202 70.713997 103.930206 73.964996 103.930206"/>
    <path id="path8" fill="#ffffff" stroke="none" d="M 160 124 L 96 124 L 96 112 L 160 112 Z M 96 108 L 92 108 L 92 112 L 92 124 L 92 128 L 96 128 L 160 128 L 164 128 L 164 124 L 164 112 L 164 108 L 160 108 Z"/>
    <path id="path9" fill="#ffffff" stroke="none" d="M 152 156 L 140 156 L 140 136 L 152 136 Z M 136 156 L 104 156 L 104 136 L 136 136 Z M 140 132 L 136 132 L 104 132 L 100 132 L 100 136 L 100 156 L 100 160 L 104 160 L 136 160 L 140 160 L 152 160 L 156 160 L 156 156 L 156 136 L 156 132 L 152 132 Z"/>
</svg>
