<?xml version="1.0" encoding="UTF-8"?>
<!-- Generated by Pixelmator Pro 3.7.1 -->
<svg width="256" height="256" viewBox="0 0 256 256" xmlns="http://www.w3.org/2000/svg">
    <path id="Path" fill="#ffffff" stroke="none" d="M 244 52 L 180 52 L 180 36 L 240 36 C 242.209 36 244 37.791 244 40 Z M 244 60 L 180 60 L 180 56 L 244 56 Z M 244 68 L 180 68 L 180 64 L 244 64 Z M 244 76 L 180 76 L 180 72 L 244 72 Z M 244 84 L 180 84 L 180 80 L 244 80 Z M 244 92 L 180 92 L 180 88 L 244 88 Z M 244 100 L 180 100 L 180 96 L 244 96 Z M 244 108 L 180 108 L 180 104 L 244 104 Z M 244 116 L 180 116 L 180 112 L 244 112 Z M 244 124 L 180 124 L 180 120 L 244 120 Z M 244 216 C 244 218.209 242.209 220 240 220 L 180 220 L 180 188 L 204 188 L 208 188 L 208 184 L 208 164 L 208 160 L 204 160 L 180 160 L 180 128 L 244 128 Z M 176 184 L 164 184 L 164 164 L 176 164 L 180 164 L 204 164 L 204 184 L 180 184 Z M 176 220 L 80 220 L 80 188 L 88 188 L 92 188 L 92 184 L 92 164 L 92 160 L 88 160 L 80 160 L 80 36 L 176 36 L 176 160 L 164 160 L 160 160 L 160 164 L 160 184 L 160 188 L 164 188 L 176 188 Z M 76 184 L 48 184 L 48 164 L 76 164 L 80 164 L 88 164 L 88 184 L 80 184 Z M 76 220 L 16 220 C 13.791 220 12 218.209 12 216 L 12 128 L 76 128 L 76 160 L 48 160 L 44 160 L 44 164 L 44 184 L 44 188 L 48 188 L 76 188 Z M 12 120 L 76 120 L 76 124 L 12 124 Z M 12 112 L 76 112 L 76 116 L 12 116 Z M 12 104 L 76 104 L 76 108 L 12 108 Z M 12 96 L 76 96 L 76 100 L 12 100 Z M 12 88 L 76 88 L 76 92 L 12 92 Z M 12 80 L 76 80 L 76 84 L 12 84 Z M 12 72 L 76 72 L 76 76 L 12 76 Z M 12 64 L 76 64 L 76 68 L 12 68 Z M 12 56 L 76 56 L 76 60 L 12 60 Z M 12 40 C 12 37.791 13.791 36 16 36 L 76 36 L 76 52 L 12 52 Z M 240 32 L 180 32 L 176 32 L 80 32 L 76 32 L 16 32 C 11.589005 32 8 35.589005 8 40 L 8 216 C 8 220.410995 11.589005 224 16 224 L 76 224 L 80 224 L 176 224 L 180 224 L 240 224 C 244.410995 224 248 220.410995 248 216 L 248 40 C 248 35.589005 244.410995 32 240 32"/>
</svg>
