<?xml version="1.0" encoding="UTF-8"?>
<!-- Generated by Pixelmator Pro 3.7.1 -->
<svg width="256" height="256" viewBox="0 0 256 256" xmlns="http://www.w3.org/2000/svg">
    <path id="Path" fill="#ffffff" stroke="none" d="M 232 104 C 232 101.791 233.791 100 236 100 C 238.209 100 240 101.791 240 104 C 240 106.209 238.209 108 236 108 C 233.791 108 232 106.209 232 104 M 230 106 C 232.209 106 234 107.791 234 110 C 234 112.209 232.209 114 230 114 C 227.791 114 226 112.209 226 110 C 226 107.791 227.791 106 230 106 M 226 98 C 226 95.791 227.791 94 230 94 C 232.209 94 234 95.791 234 98 C 234 100.209 232.209 102 230 102 C 227.791 102 226 100.209 226 98 M 228 104 C 228 106.209 226.209 108 224 108 C 221.791 108 220 106.209 220 104 C 220 101.791 221.791 100 224 100 C 226.209 100 228 101.791 228 104 M 220.897003 172 L 35.102997 172 C 24.414001 172 15.613998 163.595001 15.123993 152.916992 L 12.725998 100.695007 C 12.386993 92.904999 17.673004 86.235992 24.912994 84.471008 C 23.199005 85.264999 22 86.990005 22 89 L 22 90 L 21 90 C 18.242996 90 16 92.242996 16 95 L 16 97 C 16 99.757004 18.242996 102 21 102 L 22 102 L 22 103 C 22 105.757004 24.242996 108 27 108 L 29 108 C 31.757004 108 34 105.757004 34 103 L 34 102 L 35 102 C 37.757004 102 40 99.757004 40 97 L 40 95 C 40 92.242996 37.757004 90 35 90 L 34 90 L 34 89 C 34 86.242996 31.757004 84 29 84 L 36.350006 84 C 36.126999 84.626999 36 85.298004 36 86 C 36 89.307999 38.692001 92 42 92 L 46 92 C 49.307999 92 52 89.307999 52 86 C 52 85.298004 51.873001 84.626999 51.649994 84 L 208.350006 84 C 208.126999 84.626999 208 85.298004 208 86 C 208 89.307999 210.692001 92 214 92 L 218 92 C 221.307999 92 224 89.307999 224 86 C 224 85.298004 223.873001 84.626999 223.649994 84 L 227.289001 84 C 236.391006 84 243.656998 91.583008 243.274002 100.673996 C 242.25 98.447998 240.231003 96.770004 237.791 96.209 C 236.973999 92.658997 233.794998 90 230 90 C 226.205002 90 223.026001 92.658997 222.209 96.209 C 218.658997 97.026001 216 100.205002 216 104 C 216 107.794998 218.658997 110.973999 222.209 111.791 C 223.026001 115.341003 226.205002 118 230 118 C 233.794998 118 236.973999 115.341003 237.791 111.791 C 239.990005 111.285004 241.845001 109.871994 242.940002 107.968002 L 240.876007 152.916992 C 240.386002 163.595001 231.585999 172 220.897003 172 M 32 94 L 35 94 C 35.552002 94 36 94.447998 36 95 L 36 97 C 36 97.552002 35.552002 98 35 98 L 32 98 C 30.895004 98 30 98.895004 30 100 L 30 103 C 30 103.552002 29.552002 104 29 104 L 27 104 C 26.447998 104 26 103.552002 26 103 L 26 100 C 26 98.895004 25.104996 98 24 98 L 21 98 C 20.447998 98 20 97.552002 20 97 L 20 95 C 20 94.447998 20.447998 94 21 94 L 24 94 C 25.104996 94 26 93.104996 26 92 L 26 89 C 26 88.447998 26.447998 88 27 88 L 29 88 C 29.552002 88 30 88.447998 30 89 L 30 92 C 30 93.104996 30.895004 94 32 94 M 46 84 C 47.104996 84 48 84.895004 48 86 C 48 87.104996 47.104996 88 46 88 L 42 88 C 40.895004 88 40 87.104996 40 86 C 40 84.895004 40.895004 84 42 84 Z M 218 84 C 219.104996 84 220 84.895004 220 86 C 220 87.104996 219.104996 88 218 88 L 214 88 C 212.895004 88 212 87.104996 212 86 C 212 84.895004 212.895004 84 214 84 Z M 241.735001 86.167999 C 237.927002 82.190994 232.796005 80 227.289001 80 L 218 80 L 214 80 L 46 80 L 42 80 L 28.710999 80 C 23.203995 80 18.072998 82.190994 14.264999 86.167999 C 10.455994 90.145996 8.490005 95.367004 8.729996 100.869003 L 11.128006 153.100998 C 11.718002 165.94101 22.248993 176 35.102997 176 L 220.897003 176 C 233.751007 176 244.281998 165.94101 244.871994 153.100998 L 247.270004 100.878006 C 247.509995 95.367004 245.544006 90.145996 241.735001 86.167999"/>
    <path id="path1" fill="#ffffff" stroke="none" d="M 184 156 L 72 156 L 72 100 L 184 100 Z M 188 96 L 68 96 L 68 160 L 188 160 Z"/>
    <path id="path2" fill="#ffffff" stroke="none" d="M 220 140 L 200 140 L 200 120 L 220 120 Z M 212 150 C 212 151.105011 211.104996 152 210 152 L 202 152 C 200.895004 152 200 151.105011 200 150 C 200 148.894989 200.895004 148 202 148 L 210 148 C 211.104996 148 212 148.894989 212 150 M 192 164 L 64 164 L 64 92 L 192 92 Z M 56 140 L 36 140 L 36 120 L 56 120 Z M 56 150 C 56 151.105011 55.105 152 54 152 L 46 152 C 44.895 152 44 151.105011 44 150 C 44 148.894989 44.895 148 46 148 L 54 148 C 55.105 148 56 148.894989 56 150 M 220.768997 116 L 199.231003 116 C 197.449005 116 196 117.449005 196 119.231003 L 196 102 L 196 89 C 196 88.447998 195.552002 88 195 88 L 61 88 C 60.448002 88 60 88.447998 60 89 L 60 102 L 60 119.231003 C 60 117.449005 58.550999 116 56.769001 116 L 35.230999 116 C 33.449001 116 32 117.449005 32 119.231003 L 32 140.768997 C 32 142.550995 33.449001 144 35.230999 144 L 46 144 C 42.692001 144 40 146.692001 40 150 C 40 153.307999 42.692001 156 46 156 L 54 156 C 57.307999 156 60 153.307999 60 150 C 60 146.692001 57.307999 144 54 144 L 56.769001 144 C 58.550999 144 60 142.550995 60 140.768997 L 60 150 L 60 167 C 60 167.552002 60.448002 168 61 168 L 195 168 C 195.552002 168 196 167.552002 196 167 L 196 150 L 196 140.768997 C 196 142.550995 197.449005 144 199.231003 144 L 202 144 C 198.692001 144 196 146.692001 196 150 C 196 153.307999 198.692001 156 202 156 L 210 156 C 213.307999 156 216 153.307999 216 150 C 216 146.692001 213.307999 144 210 144 L 220.768997 144 C 222.550995 144 224 142.550995 224 140.768997 L 224 119.231003 C 224 117.449005 222.550995 116 220.768997 116"/>
    <path id="path3" fill="#ffffff" stroke="none" d="M 206 96 C 209.307999 96 212 98.692001 212 102 C 212 105.307999 209.307999 108 206 108 C 202.692001 108 200 105.307999 200 102 C 200 98.692001 202.692001 96 206 96 M 206 112 C 211.522995 112 216 107.522995 216 102 C 216 96.477005 211.522995 92 206 92 C 200.477005 92 196 96.477005 196 102 C 196 107.522995 200.477005 112 206 112"/>
    <path id="path4" fill="#ffffff" stroke="none" d="M 50 108 C 46.692001 108 44 105.307999 44 102 C 44 98.692001 46.692001 96 50 96 C 53.307999 96 56 98.692001 56 102 C 56 105.307999 53.307999 108 50 108 M 50 92 C 44.477001 92 40 96.477005 40 102 C 40 107.522995 44.477001 112 50 112 C 55.522999 112 60 107.522995 60 102 C 60 96.477005 55.522999 92 50 92"/>
</svg>
