<?xml version="1.0" encoding="UTF-8"?>
<!-- Generated by Pixelmator Pro 3.7.1 -->
<svg width="256" height="256" viewBox="0 0 256 256" xmlns="http://www.w3.org/2000/svg">
    <path id="Path" fill="#ffffff" stroke="none" d="M 240 82 L 222 82 L 222 64 L 240 64 Z M 240 102 L 222 102 L 222 86 L 240 86 Z M 240 122 L 222 122 L 222 106 L 240 106 Z M 240 142 L 222 142 L 222 126 L 240 126 Z M 240 162 L 222 162 L 222 146 L 240 146 Z M 240 182 L 222 182 L 222 166 L 240 166 Z M 240 202 L 222 202 L 222 186 L 240 186 Z M 240 224 L 222 224 L 222 206 L 240 206 Z M 206.287994 142 L 217.222 140.377991 L 218 140.263 L 218 142 Z M 218 162 L 202 162 L 202 146 L 218 146 Z M 218 182 L 202 182 L 202 166 L 218 166 Z M 218 202 L 202 202 L 202 186 L 218 186 Z M 218 224 L 202 224 L 202 206 L 218 206 Z M 198 162 L 182 162 L 182 146 L 198 146 Z M 198 182 L 182 182 L 182 166 L 198 166 Z M 198 202 L 182 202 L 182 186 L 198 186 Z M 198 224 L 182 224 L 182 206 L 198 206 Z M 162 162 L 162 148.567993 L 178 146.195007 L 178 162 Z M 178 182 L 162 182 L 162 166 L 178 166 Z M 178 202 L 162 202 L 162 186 L 178 186 Z M 178 224 L 162 224 L 162 206 L 178 206 Z M 142 162 L 142 151.533997 L 158 149.161011 L 158 162 Z M 158 182 L 142 182 L 142 166 L 158 166 Z M 158 202 L 142 202 L 142 186 L 158 186 Z M 158 224 L 142 224 L 142 206 L 158 206 Z M 122 162 L 122 154.5 L 138 152.126999 L 138 162 Z M 138 182 L 122 182 L 122 166 L 138 166 Z M 138 202 L 122 202 L 122 186 L 138 186 Z M 138 224 L 122 224 L 122 206 L 138 206 Z M 102 162 L 102 157.466003 L 118 155.093002 L 118 162 Z M 118 182 L 102 182 L 102 166 L 118 166 Z M 118 202 L 102 202 L 102 186 L 118 186 Z M 118 224 L 102 224 L 102 206 L 118 206 Z M 98 202 L 82 202 L 82 186 L 98 186 Z M 98 224 L 82 224 L 82 206 L 98 206 Z M 71.424004 162 L 78 161.024994 L 78 162 Z M 78 182 L 60 182 L 60 166 L 78 166 Z M 78 202 L 60 202 L 60 186 L 78 186 Z M 78 224 L 60 224 L 60 206 L 78 206 Z M 82 162 L 82 160.432007 L 98 158.05899 L 98 162 Z M 82 166 L 98 166 L 98 168 L 82 168 Z M 82 172 L 98 172 L 98 176 L 82 176 Z M 82 180 L 98 180 L 98 182 L 82 182 Z M 30.669001 164 L 16 65.082001 L 27.870001 63.320999 L 32.563999 94.975006 C 33.141998 98.867004 36.541 101.802002 40.473 101.802002 C 40.865002 101.802002 41.262001 101.772995 41.651001 101.714996 L 45.608002 101.128006 C 47.722 100.815002 49.587002 99.697006 50.860001 97.981003 C 52.132999 96.264999 52.660999 94.154999 52.348 92.041 L 47.653999 60.388 L 51.611 59.800995 L 56.305 91.455002 C 56.882 95.347 60.282001 98.281998 64.212997 98.281998 C 64.606003 98.281998 65.001999 98.251999 65.391998 98.195007 L 69.348 97.608002 C 71.461998 97.294006 73.327003 96.177002 74.599998 94.460007 C 75.873001 92.744003 76.402 90.634995 76.087997 88.520996 L 71.393997 56.867004 L 75.350998 56.279999 L 80.044998 87.934006 C 80.622002 91.826004 84.022003 94.761002 87.954002 94.761002 C 88.346001 94.761002 88.742996 94.731995 89.132004 94.673996 L 93.088997 94.087006 C 97.452003 93.440002 100.475998 89.363998 99.829002 85 L 95.135002 53.345993 L 170.311996 42.197998 L 175.007004 73.852005 C 175.584 77.744003 178.983994 80.679001 182.914993 80.679001 C 183.307007 80.679001 183.703995 80.649002 184.093994 80.591003 L 188.050003 80.005005 C 192.414001 79.358002 195.436996 75.281006 194.789993 70.917999 L 190.095993 39.264008 L 201.966003 37.503998 L 205.671997 62.490997 L 205.895996 64 L 211.783005 103.703003 L 212.123993 106 L 214.839005 124.309006 L 215.089996 126 L 216.634995 136.421997 L 155.417007 145.5 L 152.046997 146 L 60 159.649994 L 57.881001 159.964996 Z M 35.196999 58.190994 L 35.196999 58.190994 L 39.153999 57.604004 C 41.339001 57.279999 43.373001 58.789001 43.696999 60.973999 L 48.390999 92.628006 C 48.431999 92.901001 48.444 93.171997 48.429001 93.438004 C 48.327999 95.294998 46.932999 96.888 45.021 97.171997 L 41.064999 97.757996 C 40.866001 97.787994 40.667999 97.802002 40.473 97.802002 C 40.432999 97.802002 40.395 97.792999 40.355 97.792007 C 40.249001 97.787994 40.145 97.774994 40.040001 97.763 C 39.893002 97.746994 39.748001 97.727997 39.605999 97.695999 C 39.501999 97.671997 39.402 97.641998 39.299999 97.610992 C 39.164001 97.569 39.030998 97.520996 38.900002 97.464996 C 38.803001 97.423004 38.709 97.378006 38.616001 97.328003 C 38.490002 97.261993 38.370998 97.188995 38.254002 97.110001 C 38.167 97.052002 38.081001 96.992996 37.999001 96.927994 C 37.887001 96.839005 37.784 96.742004 37.681 96.641998 C 37.608002 96.570007 37.534 96.5 37.466 96.421997 C 37.368 96.309998 37.282001 96.188004 37.196999 96.063995 C 37.140999 95.983994 37.082001 95.908005 37.032001 95.822998 C 36.946999 95.679001 36.880001 95.524994 36.813999 95.369995 C 36.780998 95.292999 36.740002 95.220993 36.710999 95.141006 C 36.625999 94.901001 36.560001 94.649994 36.521 94.389008 L 31.827 62.735001 C 31.503 60.548996 33.012001 58.514999 35.196999 58.190994 M 58.937 54.671005 L 62.894001 54.084 C 65.079002 53.759995 67.112999 55.268005 67.438004 57.453995 L 72.132004 89.108002 C 72.456001 91.292999 70.946999 93.326996 68.762001 93.651001 L 64.805 94.238007 C 64.606003 94.266998 64.407997 94.281998 64.212997 94.281998 C 64.172997 94.281998 64.135002 94.272003 64.096001 94.270996 C 63.988998 94.268005 63.886002 94.253998 63.780998 94.242004 C 63.633999 94.225998 63.488998 94.207001 63.346001 94.175003 C 63.242001 94.151993 63.141998 94.121994 63.041 94.089996 C 62.903999 94.048004 62.771 94.001007 62.640999 93.944 C 62.543999 93.901993 62.449001 93.856995 62.355999 93.807999 C 62.230999 93.740997 62.111 93.667999 61.993999 93.589996 C 61.907001 93.531006 61.821999 93.473007 61.740002 93.406998 C 61.626999 93.319 61.523998 93.220993 61.422001 93.121002 C 61.348 93.048996 61.273998 92.979004 61.206001 92.901993 C 61.108002 92.789001 61.022999 92.667007 60.937 92.544006 C 60.882 92.462997 60.821999 92.386993 60.771999 92.302002 C 60.688 92.158997 60.620998 92.005005 60.555 91.850006 C 60.521 91.772995 60.48 91.699997 60.452 91.619995 C 60.367001 91.380005 60.299999 91.130005 60.261002 90.867996 L 55.567001 59.214005 C 55.243 57.029007 56.751999 54.994995 58.937 54.671005 M 82.678001 51.149994 L 86.317001 50.610001 L 85.573997 50.720001 L 86.634003 50.563004 C 88.82 50.238998 90.853996 51.748001 91.178001 53.932999 L 95.872002 85.587006 C 95.953003 86.132996 95.918999 86.669998 95.789001 87.173004 C 95.658997 87.675995 95.432999 88.145996 95.127998 88.557007 C 94.822998 88.968002 94.440002 89.320999 93.996002 89.591003 C 93.774002 89.725998 93.537003 89.841003 93.288002 89.932007 C 93.038002 90.022995 92.775002 90.089996 92.501999 90.130005 L 88.544998 90.716995 C 88.346001 90.746994 88.149002 90.761002 87.954002 90.761002 C 87.914001 90.761002 87.875999 90.751999 87.835999 90.75 C 87.728996 90.746994 87.625999 90.733002 87.521004 90.722 C 87.374001 90.705994 87.228996 90.686005 87.086998 90.654007 C 86.983002 90.630997 86.882004 90.600998 86.780998 90.570007 C 86.644997 90.526993 86.512001 90.479996 86.380997 90.423996 C 86.283997 90.382004 86.190002 90.337006 86.096001 90.287003 C 85.971001 90.220993 85.851997 90.147995 85.734001 90.069 C 85.647003 90.009995 85.561996 89.951996 85.480003 89.886993 C 85.367996 89.798004 85.264 89.701004 85.162003 89.600006 C 85.088997 89.528 85.014999 89.459 84.946999 89.380997 C 84.848999 89.268997 84.763 89.147003 84.678001 89.022995 C 84.622002 88.942993 84.561996 88.865997 84.512001 88.781998 C 84.428001 88.638 84.361 88.483994 84.294998 88.328995 C 84.262001 88.251999 84.221001 88.179993 84.192001 88.100006 C 84.107002 87.858994 84.041 87.608994 84.001999 87.347 L 79.307999 55.692993 C 78.984001 53.507996 80.491997 51.473999 82.678001 51.149994 M 177.639008 37.067001 L 179.516006 36.789001 L 178.557007 36.931 L 181.595993 36.481003 C 183.781006 36.156998 185.815002 37.664993 186.139008 39.850998 L 190.832993 71.503998 C 190.914993 72.050995 190.880997 72.587997 190.751007 73.091003 C 190.621002 73.593994 190.393997 74.063004 190.089996 74.473999 C 189.785004 74.884995 189.401001 75.238007 188.957993 75.509003 C 188.514008 75.779007 188.009995 75.966995 187.464005 76.048004 L 183.507004 76.634995 C 183.307999 76.664001 183.110001 76.679001 182.914993 76.679001 C 182.875 76.679001 182.837997 76.669006 182.798004 76.667999 C 182.690994 76.664993 182.587006 76.651001 182.481995 76.639008 C 182.335007 76.623001 182.190994 76.604004 182.048996 76.572006 C 181.944 76.548996 181.843002 76.518005 181.742004 76.487 C 181.606003 76.445007 181.473007 76.397995 181.343002 76.341003 C 181.244995 76.298996 181.151001 76.253998 181.057007 76.203995 C 180.932007 76.138 180.813004 76.065002 180.695999 75.987 C 180.608994 75.927994 180.524002 75.869995 180.440994 75.804001 C 180.328995 75.716003 180.225998 75.617996 180.123993 75.518005 C 180.050003 75.445999 179.975998 75.376007 179.908005 75.298996 C 179.809998 75.186005 179.725006 75.063995 179.639008 74.940002 C 179.582993 74.860001 179.524002 74.783997 179.473999 74.699005 C 179.389999 74.556 179.322998 74.401993 179.255997 74.246994 C 179.223007 74.169006 179.182007 74.097 179.154007 74.016998 C 179.067993 73.776993 179.001999 73.526001 178.962997 73.264999 L 174.268997 41.610992 C 173.945007 39.425995 175.453995 37.391006 177.639008 37.067001 M 218 64 L 218 82 L 212.608994 82 L 209.938995 64 Z M 218 106 L 218 118.354996 L 216.167999 106 Z M 213.201996 86 L 218 86 L 218 102 L 215.574997 102 Z M 240 60 L 209.345993 60 L 205.923004 36.917007 L 205.335999 32.960007 L 201.378998 33.546997 L 188.432007 35.466995 C 186.949997 33.615997 184.677002 32.436996 182.188004 32.436996 C 181.794998 32.436996 181.399002 32.466003 181.009003 32.524002 L 177.052002 33.110992 C 174.130997 33.544006 171.817001 35.518005 170.796005 38.082001 L 93.470001 49.548996 C 91.988998 47.697998 89.714996 46.518997 87.225998 46.518997 C 86.834 46.518997 86.436996 46.548996 86.047997 46.606003 L 82.091003 47.192993 C 79.976997 47.507004 78.112 48.625 76.838997 50.341003 C 76.417 50.910004 76.084999 51.524002 75.830002 52.164993 L 69.730003 53.070007 C 68.248001 51.218994 65.974998 50.039993 63.486 50.039993 C 63.092999 50.039993 62.696999 50.069 62.306999 50.126999 L 58.349998 50.714005 C 55.429001 51.147003 53.115002 53.121002 52.094002 55.684998 L 45.990002 56.591003 C 44.507999 54.740005 42.235001 53.561005 39.744999 53.561005 C 39.353001 53.561005 38.956001 53.589996 38.567001 53.647995 L 34.610001 54.233994 C 32.495998 54.548004 30.631001 55.666 29.358 57.382004 C 28.936001 57.951004 28.604 58.565994 28.35 59.207001 L 15.413 61.125 L 11.456 61.712006 L 12.043 65.669006 L 26.712999 164.587006 L 27.299 168.542999 L 31.256001 167.957001 L 56 164.287003 L 56 224 L 56 228 L 60 228 L 240 228 L 244 228 L 244 224 L 244 64 L 244 60 Z"/>
    <path id="path1" fill="#ffffff" stroke="none" d="M 69.130402 109.771393 C 69.428398 109.727402 69.725403 109.705399 70.018402 109.705399 C 72.942398 109.705399 75.503403 111.846405 75.945396 114.826401 C 76.431396 118.104401 74.168404 121.155396 70.890404 121.641403 C 70.5924 121.685394 70.295403 121.707397 70.003403 121.707397 C 67.0784 121.707397 64.517403 119.566406 64.075401 116.586395 C 63.589401 113.308395 65.852402 110.257401 69.130402 109.771393 M 70.003403 125.707397 C 70.493401 125.707397 70.989403 125.670395 71.477402 125.598404 C 74.1194 125.206406 76.451401 123.809402 78.042397 121.663406 C 79.6334 119.518402 80.294403 116.881393 79.902397 114.239395 C 79.180397 109.374405 74.931396 105.705399 70.018402 105.705399 C 69.527397 105.705399 69.031403 105.742401 68.543404 105.814407 C 63.089401 106.623398 59.309399 111.719406 60.118401 117.173401 C 60.840401 122.038406 65.089401 125.707397 70.003403 125.707397"/>
    <path id="path2" fill="#ffffff" stroke="none" d="M 92.870796 106.250702 C 93.1688 106.206696 93.465797 106.184692 93.758797 106.184692 C 96.6828 106.184692 99.243797 108.325699 99.685799 111.305695 C 100.171799 114.583694 97.908798 117.634705 94.630798 118.120697 C 94.332802 118.164703 94.035797 118.186707 93.743797 118.186707 C 90.818802 118.186707 88.257797 116.0457 87.815804 113.065704 C 87.329803 109.787704 89.592796 106.736694 92.870796 106.250702 M 96.691803 125.968704 C 99.616798 125.968704 102.177803 128.109711 102.619797 131.089691 C 103.105797 134.366699 100.842796 137.418701 97.564796 137.904694 C 97.2668 137.9487 96.969803 137.970703 96.677803 137.970703 C 93.7528 137.970703 91.191803 135.828705 90.749802 132.849701 C 90.263802 129.571701 92.526802 126.520706 95.804802 126.034698 C 96.102798 125.9897 96.399803 125.968704 96.691803 125.968704 M 93.743797 122.186707 C 94.233803 122.186707 94.729797 122.149704 95.217796 122.077698 C 92.575798 122.469696 90.243797 123.866699 88.652802 126.011703 C 87.061798 128.1577 86.400803 130.793701 86.792801 133.436707 C 87.514801 138.301697 91.763802 141.970703 96.677803 141.970703 C 97.167801 141.970703 97.663803 141.933701 98.151802 141.861694 C 103.605797 141.052704 107.385803 135.956696 106.576797 130.502701 C 105.854797 125.637695 101.605797 121.968704 96.692802 121.968704 C 96.201797 121.968704 95.705803 122.005707 95.217796 122.077698 C 97.859802 121.685699 100.191803 120.288696 101.782799 118.1427 C 103.373802 115.997696 104.034798 113.360703 103.642799 110.718704 C 102.920799 105.853699 98.671799 102.184708 93.758797 102.184708 C 93.267799 102.184708 92.771797 102.221695 92.283798 102.293701 C 89.6418 102.685699 87.310799 104.082703 85.718803 106.228699 C 84.1278 108.373703 83.466797 111.010696 83.858803 113.652695 C 84.580803 118.5177 88.829803 122.186707 93.743797 122.186707"/>
    <path id="path3" fill="#ffffff" stroke="none" d="M 116.611099 102.730103 C 116.909103 102.686096 117.2061 102.664093 117.4991 102.664093 C 120.423103 102.664093 122.9841 104.805099 123.426102 107.785095 C 123.912102 111.063095 121.649101 114.114105 118.371101 114.600098 C 118.073097 114.644104 117.7761 114.666107 117.4841 114.666107 C 114.559097 114.666107 111.9981 112.525101 111.556099 109.545105 C 111.070099 106.267105 113.333099 103.216095 116.611099 102.730103 M 109.459099 102.708099 C 107.868103 104.853104 107.2071 107.490097 107.599098 110.132095 C 108.321098 114.997101 112.570099 118.666107 117.4841 118.666107 C 117.974098 118.666107 118.4701 118.629105 118.958099 118.557098 C 124.412102 117.748093 128.192093 112.653107 127.383102 107.198105 C 126.661102 102.333099 122.412102 98.664093 117.4991 98.664093 L 117.4991 98.664093 C 117.008102 98.664093 116.5121 98.701096 116.024101 98.773102 C 113.382103 99.1651 111.051102 100.562103 109.459099 102.708099"/>
    <path id="path4" fill="#ffffff" stroke="none" d="M 147.166702 104.264496 C 147.652695 107.542496 145.389694 110.593506 142.111694 111.079498 C 141.813705 111.123505 141.516693 111.145493 141.223694 111.145493 C 138.299698 111.145493 135.738693 109.004501 135.296707 106.024506 C 134.810699 102.746506 137.0737 99.695496 140.3517 99.209503 C 140.649704 99.165497 140.946701 99.143494 141.238693 99.143494 C 144.163696 99.143494 146.724701 101.2845 147.166702 104.264496 M 139.764694 95.252502 C 134.310699 96.061493 130.530701 101.157501 131.339706 106.611496 C 132.061707 111.476501 136.310699 115.145493 141.223694 115.145493 C 141.714706 115.145493 142.210693 115.108505 142.6987 115.036499 C 145.340698 114.644501 147.671707 113.247498 149.263702 111.101501 C 150.854706 108.956497 151.515701 106.319504 151.123703 103.677505 C 150.401703 98.8125 146.152695 95.143494 141.2397 95.143494 C 140.748703 95.143494 140.252701 95.180496 139.764694 95.252502"/>
    <path id="path5" fill="#ffffff" stroke="none" d="M 113.677299 82.946503 C 113.975304 82.902496 114.272301 82.880493 114.5653 82.880493 C 117.489304 82.880493 120.050301 85.0215 120.492302 88.001495 C 120.978302 91.279495 118.715302 94.330505 115.437302 94.816498 C 115.139297 94.860504 114.8423 94.882507 114.550301 94.882507 C 111.625298 94.882507 109.064301 92.741501 108.622299 89.761505 C 108.136299 86.483505 110.3993 83.432495 113.677299 82.946503 M 106.525299 82.9245 C 104.934303 85.069504 104.2733 87.706497 104.665298 90.348495 C 105.387299 95.213501 109.636299 98.882507 114.550301 98.882507 C 115.040298 98.882507 115.536301 98.845505 116.0243 98.773499 C 118.666298 98.3815 120.998299 96.984497 122.589302 94.838501 C 124.180298 92.693497 124.841301 90.056503 124.449303 87.414505 C 123.727303 82.5495 119.478302 78.880493 114.5653 78.880493 C 114.074303 78.880493 113.5783 78.917496 113.090302 78.989502 C 110.448303 79.3815 108.117302 80.778503 106.525299 82.9245"/>
    <path id="path6" fill="#ffffff" stroke="none" d="M 144.232895 84.480804 C 144.718903 87.758804 142.455902 90.809799 139.177902 91.295807 C 138.879898 91.339798 138.582901 91.361801 138.289902 91.361801 C 135.365906 91.361801 132.804901 89.220795 132.3629 86.240799 C 131.876907 82.962799 134.139893 79.911804 137.417892 79.425797 C 137.715897 79.381805 138.012894 79.359802 138.304901 79.359802 C 141.229904 79.359802 143.790894 81.500793 144.232895 84.480804 M 136.830902 75.468796 C 131.376907 76.277802 127.596901 81.373795 128.405899 86.827805 C 129.127899 91.692795 133.376907 95.361801 138.289902 95.361801 C 138.780899 95.361801 139.276901 95.324799 139.764893 95.252808 C 145.218903 94.443802 148.998901 89.348801 148.189896 83.893799 C 147.467896 79.028793 143.218903 75.359802 138.305893 75.359802 C 137.814896 75.359802 137.318893 75.396805 136.830902 75.468796"/>
    <path id="path7" fill="#ffffff" stroke="none" d="M 167.973297 80.960205 C 168.459305 84.238205 166.196304 87.2892 162.918304 87.775208 C 162.6203 87.819199 162.323303 87.841202 162.030304 87.841202 C 159.106308 87.841202 156.545303 85.700195 156.103302 82.7202 C 155.617294 79.4422 157.880295 76.391205 161.158295 75.905197 C 161.456299 75.861206 161.753296 75.839203 162.045303 75.839203 C 164.970306 75.839203 167.531296 77.980194 167.973297 80.960205 M 164.979294 95.623199 C 167.904297 95.623199 170.465302 97.764206 170.907303 100.744202 C 171.393295 104.021194 169.130295 107.073196 165.852295 107.559204 C 165.554306 107.603195 165.257294 107.625198 164.964294 107.625198 C 162.040298 107.625198 159.479294 105.4832 159.037308 102.504196 C 158.5513 99.226196 160.814301 96.175201 164.0923 95.689194 C 164.390305 95.644196 164.687302 95.623199 164.979294 95.623199 M 160.571304 71.948196 C 155.117294 72.757202 151.337296 77.853195 152.146301 83.307205 C 152.868301 88.172195 157.117294 91.841202 162.030304 91.841202 C 162.521301 91.841202 163.017303 91.804199 163.504303 91.732193 C 158.050293 92.541199 154.271301 97.637207 155.080307 103.091202 C 155.8013 107.956207 160.0513 111.625198 164.964294 111.625198 C 165.455307 111.625198 165.951294 111.588196 166.439301 111.516205 C 171.893295 110.707199 175.672302 105.611206 174.864304 100.157196 C 174.142303 95.292206 169.893295 91.623199 164.979294 91.623199 C 164.489304 91.623199 163.993301 91.660202 163.505295 91.732193 C 168.959305 90.923203 172.739304 85.827194 171.930298 80.373199 C 171.208298 75.508194 166.959305 71.839203 162.046295 71.839203 C 161.555298 71.839203 161.059296 71.876205 160.571304 71.948196"/>
    <path id="path8" fill="#ffffff" stroke="none" d="M 110.7435 63.162796 C 111.041496 63.118805 111.338501 63.096802 111.6315 63.096802 C 114.555504 63.096802 117.116501 65.237793 117.558502 68.217804 C 118.044502 71.495804 115.781502 74.546799 112.503502 75.032806 C 112.205498 75.076797 111.908501 75.098801 111.616501 75.098801 C 108.691498 75.098801 106.130501 72.957794 105.688499 69.977798 C 105.202499 66.699799 107.4655 63.648804 110.7435 63.162796 M 111.616501 79.098801 C 112.106499 79.098801 112.602501 79.061798 113.0905 78.989807 C 118.544502 78.180801 122.324501 73.0858 121.515503 67.630798 C 120.793503 62.765793 116.544502 59.096802 111.6315 59.096802 C 111.140503 59.096802 110.644501 59.133804 110.156502 59.205795 C 107.514503 59.597794 105.183502 60.994797 103.591499 63.140793 C 102.000504 65.285797 101.3395 67.922806 101.731499 70.564804 C 102.453499 75.429794 106.702499 79.098801 111.616501 79.098801"/>
    <path id="path9" fill="#ffffff" stroke="none" d="M 134.483795 59.642197 C 134.781799 59.598206 135.078796 59.576202 135.371796 59.576202 C 138.295807 59.576202 140.856796 61.717194 141.298798 64.697205 C 141.784805 67.975204 139.521805 71.026199 136.243805 71.512207 C 135.945801 71.556198 135.648804 71.578201 135.356796 71.578201 C 132.431793 71.578201 129.870804 69.437195 129.428802 66.457199 C 128.942795 63.179199 131.205795 60.128204 134.483795 59.642197 M 135.356796 75.578201 C 135.846802 75.578201 136.342804 75.541199 136.830795 75.469193 C 142.284805 74.660202 146.064804 69.565201 145.255798 64.110199 C 144.533798 59.245193 140.284805 55.576202 135.371796 55.576202 C 134.880798 55.576202 134.384796 55.613205 133.896805 55.685196 C 128.442795 56.494202 124.662804 61.590195 125.471802 67.044205 C 126.193802 71.909195 130.442795 75.578201 135.356796 75.578201"/>
    <path id="path10" fill="#ffffff" stroke="none" d="M 158.224197 56.121597 C 158.522202 56.077606 158.819199 56.055603 159.112198 56.055603 C 162.036194 56.055603 164.597198 58.196594 165.0392 61.176605 C 165.525208 64.454605 163.262207 67.5056 159.984207 67.991592 C 159.686203 68.035599 159.389206 68.057602 159.097198 68.057602 C 156.172195 68.057602 153.611206 65.916595 153.169205 62.9366 C 152.683197 59.6586 154.946198 56.607605 158.224197 56.121597 M 159.097198 72.057602 C 159.587204 72.057602 160.083206 72.020599 160.571198 71.948593 C 166.025208 71.139603 169.805206 66.044601 168.996201 60.5896 C 168.2742 55.724594 164.025208 52.055603 159.112198 52.055603 C 158.621201 52.055603 158.125198 52.092606 157.637207 52.164597 C 154.995193 52.556595 152.6642 53.953598 151.072205 56.099594 C 149.481201 58.244598 148.820206 60.881607 149.212204 63.523605 C 149.934204 68.388596 154.183197 72.057602 159.097198 72.057602"/>
    <path id="path11" fill="#ffffff" stroke="none" d="M 187.832306 92.168304 C 188.130295 92.124298 188.427307 92.102295 188.720306 92.102295 C 191.644302 92.102295 194.205307 94.243301 194.647293 97.223297 C 195.133301 100.501297 192.8703 103.552307 189.5923 104.0383 C 189.294296 104.082306 188.997299 104.104294 188.705307 104.104294 C 185.780304 104.104294 183.219299 101.963303 182.777298 98.983307 C 182.291306 95.705307 184.554306 92.654297 187.832306 92.168304 M 188.705307 108.104294 C 189.195297 108.104294 189.691299 108.067307 190.179306 107.9953 C 195.633301 107.186295 199.4133 102.091293 198.604294 96.636307 C 197.882294 91.771301 193.633301 88.102295 188.720306 88.102295 C 188.229294 88.102295 187.733307 88.139297 187.2453 88.211304 C 181.791306 89.020294 178.011307 94.116302 178.820297 99.570297 C 179.542297 104.435303 183.791306 108.104294 188.705307 108.104294"/>
    <path id="path12" fill="#ffffff" stroke="none" d="M 50.084202 144.945892 C 49.786201 144.989899 49.489201 145.011902 49.196201 145.011902 C 46.272202 145.011902 43.711201 142.870911 43.269199 139.8909 C 42.783199 136.6129 45.0462 133.56189 48.3242 133.075897 C 48.6222 133.031891 48.919201 133.009903 49.211201 133.009903 C 52.1362 133.009903 54.697201 135.150909 55.139198 138.13089 C 55.625198 141.408905 53.362202 144.4599 50.084202 144.945892 M 46.263199 125.227905 C 43.3382 125.227905 40.777199 123.086899 40.335201 120.106903 C 39.849201 116.829895 42.112202 113.777908 45.390202 113.291901 C 45.688202 113.247894 45.985199 113.225906 46.277199 113.225906 C 49.202202 113.225906 51.763199 115.367905 52.2052 118.346893 C 52.6912 121.624908 50.4282 124.675903 47.1502 125.161896 C 46.8522 125.206894 46.555199 125.227905 46.263199 125.227905 M 59.096199 137.5439 C 58.374199 132.678894 54.125198 129.009903 49.2122 129.009903 C 48.721199 129.009903 48.225201 129.046906 47.737202 129.118896 C 50.3792 128.726898 52.711201 127.329895 54.3022 125.184906 C 55.8932 123.038895 56.554199 120.402908 56.162201 117.759903 C 55.440201 112.894897 51.1912 109.225906 46.278198 109.225906 C 45.787201 109.225906 45.291199 109.262909 44.8032 109.3349 C 42.161201 109.726898 39.829201 111.124908 38.238201 113.269897 C 36.647202 115.414902 35.986202 118.051895 36.378201 120.693893 C 37.100201 125.558899 41.349201 129.227905 46.263199 129.227905 C 46.753201 129.227905 47.249199 129.190903 47.736198 129.118896 C 45.0952 129.510895 42.763199 130.907898 41.172199 133.053894 C 39.5812 135.198898 38.9202 137.835907 39.312199 140.477905 C 40.034199 145.342896 44.283199 149.011902 49.196201 149.011902 C 49.687199 149.011902 50.183201 148.974899 50.6712 148.902893 C 56.125198 148.093903 59.905201 142.997894 59.096199 137.5439"/>
    <path id="path13" fill="#ffffff" stroke="none" d="M 72.064301 129.555099 C 72.362297 129.511108 72.659302 129.489105 72.952301 129.489105 C 75.876297 129.489105 78.437302 131.630096 78.879303 134.610107 C 79.365303 137.888092 77.102303 140.939102 73.824303 141.42511 C 73.526299 141.469101 73.229301 141.491089 72.937302 141.491089 C 70.012299 141.491089 67.451302 139.350098 67.0093 136.370102 C 66.5233 133.092102 68.786301 130.041107 72.064301 129.555099 M 63.052299 136.957092 C 63.7743 141.822098 68.0233 145.491089 72.937302 145.491089 C 73.427299 145.491089 73.923302 145.454102 74.411301 145.382111 C 79.865303 144.57309 83.645302 139.477097 82.836304 134.023102 C 82.114304 129.158096 77.865303 125.489105 72.952301 125.489105 C 72.461304 125.489105 71.965302 125.526108 71.477303 125.598099 C 66.0233 126.407104 62.243301 131.503098 63.052299 136.957092"/>
    <path id="path14" fill="#ffffff" stroke="none" d="M 121.305298 134.384003 C 121.007301 134.428009 120.710297 134.449997 120.417297 134.449997 C 117.493301 134.449997 114.932297 132.30899 114.490303 129.32901 C 114.004303 126.050995 116.267303 123 119.545303 122.514008 C 119.8433 122.470001 120.140297 122.447998 120.432297 122.447998 C 123.3573 122.447998 125.918297 124.589005 126.360298 127.569 C 126.846298 130.847 124.583298 133.89801 121.305298 134.384003 M 120.433304 118.447998 L 120.432297 118.447998 C 119.942299 118.447998 119.446297 118.485001 118.958298 118.557007 C 116.316299 118.949005 113.984299 120.345993 112.393303 122.492004 C 110.802299 124.636993 110.141304 127.274002 110.533302 129.916 C 111.255302 134.781006 115.504303 138.449997 120.417297 138.449997 C 120.908302 138.449997 121.404297 138.412994 121.892303 138.341003 C 127.346298 137.531998 131.126297 132.436005 130.317307 126.981995 C 129.595306 122.117004 125.346298 118.447998 120.433304 118.447998"/>
    <path id="path15" fill="#ffffff" stroke="none" d="M 143.2854 118.993195 C 143.583405 118.949203 143.880402 118.9272 144.173401 118.9272 C 147.097397 118.9272 149.658401 121.068207 150.100403 124.048203 C 150.586395 127.326202 148.323395 130.377197 145.045395 130.86319 C 144.747406 130.907196 144.450394 130.929199 144.158401 130.929199 C 141.233398 130.929199 138.672394 128.788208 138.230408 125.808197 C 137.7444 122.530197 140.007401 119.479202 143.2854 118.993195 M 134.273407 126.395203 C 134.995407 131.260193 139.2444 134.929199 144.158401 134.929199 C 144.648407 134.929199 145.144394 134.892197 145.632401 134.82019 C 151.086395 134.0112 154.866394 128.916199 154.057404 123.461197 C 153.335403 118.596207 149.086395 114.9272 144.173401 114.9272 L 144.173401 114.9272 C 143.682404 114.9272 143.186401 114.964203 142.698395 115.036194 C 137.2444 115.8452 133.464401 120.941193 134.273407 126.395203"/>
    <path id="path16" fill="#ffffff" stroke="none" d="M 167.025803 115.472504 C 167.323807 115.428497 167.620804 115.406494 167.913803 115.406494 C 170.837799 115.406494 173.398804 117.547501 173.840805 120.527496 C 174.326797 123.805496 172.063797 126.856506 168.785797 127.342499 C 168.487793 127.386505 168.190796 127.408493 167.898804 127.408493 C 164.973801 127.408493 162.412796 125.267502 161.970795 122.287506 C 161.484802 119.009506 163.747803 115.958496 167.025803 115.472504 M 158.013794 122.874496 C 158.735794 127.739502 162.984802 131.408508 167.898804 131.408508 C 168.388794 131.408508 168.884796 131.37149 169.372803 131.2995 C 174.826797 130.490509 178.606796 125.395508 177.797806 119.940506 C 177.075806 115.0755 172.826797 111.406494 167.913803 111.406494 C 167.422806 111.406494 166.926804 111.443497 166.438797 111.515503 C 160.984802 112.324493 157.204803 117.420502 158.013794 122.874496"/>
    <path id="path17" fill="#ffffff" stroke="none" d="M 197.581406 117.006805 C 198.067398 120.284805 195.804398 123.3358 192.526398 123.821793 C 192.228394 123.865799 191.931396 123.887802 191.638397 123.887802 C 188.714401 123.887802 186.153397 121.746796 185.711395 118.7668 C 185.225403 115.4888 187.488403 112.437805 190.766403 111.951797 C 191.064407 111.907806 191.361404 111.885803 191.653397 111.885803 C 194.5784 111.885803 197.139404 114.026794 197.581406 117.006805 M 190.179398 107.994797 C 187.537399 108.386795 185.205399 109.783798 183.614395 111.929794 C 182.023407 114.074799 181.362396 116.711807 181.754395 119.353806 C 182.476395 124.218796 186.725403 127.887802 191.638397 127.887802 C 192.129395 127.887802 192.625397 127.8508 193.113403 127.778793 C 198.567398 126.969803 202.347397 121.874802 201.538406 116.4198 C 200.816406 111.554794 196.567398 107.885803 191.654404 107.885803 C 191.163406 107.885803 190.667404 107.922806 190.179398 107.994797"/>
</svg>
