<?xml version="1.0" encoding="UTF-8"?>
<!-- Generated by Pixelmator Pro 3.7.1 -->
<svg width="256" height="256" viewBox="0 0 256 256" xmlns="http://www.w3.org/2000/svg">
    <path id="Path" fill="#ffffff" stroke="none" d="M 244 196 L 224 196 L 224 92 L 224 88 L 220 88 L 68 88 L 64 88 L 36 88 L 32 88 L 32 92 L 32 196 L 12 196 L 12 60 C 12 57.791 13.791 56 16 56 L 240 56 C 242.209 56 244 57.791 244 60 Z M 68 92 L 220 92 L 220 196 L 68 196 Z M 36 92 L 64 92 L 64 196 L 36 196 Z M 240 52 L 16 52 C 11.589005 52 8 55.589005 8 60 L 8 196 L 8 200 L 12 200 L 32 200 L 36 200 L 64 200 L 68 200 L 220 200 L 224 200 L 244 200 L 248 200 L 248 196 L 248 60 C 248 55.589005 244.410995 52 240 52"/>
</svg>
