<?xml version="1.0" encoding="UTF-8"?>
<!-- Generated by Pixelmator Pro 3.7.1 -->
<svg width="256" height="256" viewBox="0 0 256 256" xmlns="http://www.w3.org/2000/svg">
    <path id="Path" fill="#ffffff" stroke="none" d="M 240 211 C 240 215.971008 235.970993 220 231 220 L 25 220 C 20.029007 220 16 215.971008 16 211 L 16 41 C 16 36.029007 20.029007 32 25 32 L 231 32 C 235.970993 32 240 36.029007 240 41 Z M 231 28 L 25 28 C 17.832001 28 12 33.832001 12 41 L 12 211 C 12 218.167999 17.832001 224 25 224 L 231 224 C 238.167999 224 244 218.167999 244 211 L 244 41 C 244 33.832001 238.167999 28 231 28"/>
    <path id="path1" fill="#ffffff" stroke="none" d="M 216 136 L 40 136 L 40 64 L 216 64 Z M 40 60 L 36 60 L 36 64 L 36 136 L 36 140 L 40 140 L 216 140 L 220 140 L 220 136 L 220 64 L 220 60 L 216 60 Z"/>
    <path id="path2" fill="#ffffff" stroke="none" d="M 192 112 L 64 112 L 64 88 L 192 88 Z M 196 84 L 60 84 L 60 116 L 196 116 Z"/>
    <path id="path3" fill="#ffffff" stroke="none" d="M 172 196 L 84 196 L 84 172 L 172 172 Z M 84 168 L 80 168 L 80 172 L 80 196 L 80 200 L 84 200 L 172 200 L 176 200 L 176 196 L 176 172 L 176 168 L 172 168 Z"/>
    <path id="path4" fill="#ffffff" stroke="none" d="M 216 200 L 184 200 L 184 168 L 216 168 Z M 184 164 L 180 164 L 180 168 L 180 200 L 180 204 L 184 204 L 216 204 L 220 204 L 220 200 L 220 168 L 220 164 L 216 164 Z"/>
    <path id="path5" fill="#ffffff" stroke="none" d="M 58 156 C 58 154.897003 57.103001 154 56 154 C 54.896999 154 54 154.897003 54 156 C 54 157.102997 54.896999 158 56 158 C 57.103001 158 58 157.102997 58 156"/>
    <path id="path6" fill="#ffffff" stroke="none" d="M 212 172 L 188 172 L 188 196 L 212 196 Z M 208 192 L 192 192 L 192 176 L 208 176 Z"/>
    <path id="path7" fill="#ffffff" stroke="none" d="M 72 188 L 40 188 L 40 168 L 72 168 Z M 40 164 L 36 164 L 36 168 L 36 188 L 36 192 L 40 192 L 72 192 L 76 192 L 76 188 L 76 168 L 76 164 L 72 164 Z"/>
    <path id="path8" fill="#ffffff" stroke="none" d="M 80 96 L 176 96 L 176 104 L 80 104 Z M 176 108 L 180 108 L 180 104 L 180 96 L 180 92 L 176 92 L 80 92 L 76 92 L 76 96 L 76 104 L 76 108 L 80 108 Z"/>
    <path id="path9" fill="#ffffff" stroke="none" d="M 40 184 L 36 184 L 36 204 L 40 204 Z"/>
    <path id="path10" fill="#ffffff" stroke="none" d="M 76 184 L 72 184 L 72 204 L 76 204 Z"/>
</svg>
