<?xml version="1.0" encoding="UTF-8"?>
<!-- Generated by Pixelmator Pro 3.7.1 -->
<svg width="256" height="256" viewBox="0 0 256 256" xmlns="http://www.w3.org/2000/svg">
    <path id="Path" fill="#ffffff" stroke="none" d="M 128.005493 140 C 121.385498 140 115.999504 134.619003 115.999504 128.005997 C 115.999504 121.386002 121.385498 116 128.005493 116 C 134.619507 116 139.999496 121.386002 139.999496 128.005997 C 139.999496 134.619003 134.619507 140 128.005493 140 M 128.005493 112 C 119.1875 112 111.999496 119.175995 111.999496 128.005005 C 111.999496 136.82901 119.1875 144 128.005493 144 C 136.828506 144 143.999496 136.82901 143.999496 128.005005 C 143.999496 119.175995 136.828506 112 128.005493 112"/>
    <path id="path1" fill="#ffffff" stroke="none" d="M 128 244 C 63.929001 244 12 192.06601 12 128 C 12 63.934006 63.929001 12 128 12 C 192.050995 12 244 63.934006 244 128 C 244 192.06601 192.050995 244 128 244 M 212.847992 43.147003 C 190.181 20.481995 160.048004 8 128 8 C 95.945 8 65.808998 20.481995 43.144997 43.147003 C 20.481003 65.811005 8 95.945999 8 128 C 8 160.054001 20.481003 190.188995 43.144997 212.852997 C 65.808998 235.518005 95.945 248 128 248 C 160.048004 248 190.181 235.518005 212.847992 212.852997 C 235.515991 190.186996 248 160.052002 248 128 C 248 95.947998 235.515991 65.813004 212.847992 43.147003"/>
    <path id="path2" fill="#ffffff" stroke="none" d="M 128.002502 168 C 105.945503 168 87.999504 150.056 87.999504 128 C 87.999504 105.944 105.945503 88 128.002502 88 C 150.057495 88 167.999496 105.944 167.999496 128 C 167.999496 150.056 150.057495 168 128.002502 168 M 128.002502 84 C 103.735497 84 83.999504 103.738998 83.999504 128 C 83.999504 152.261002 103.735497 172 128.002502 172 C 152.264496 172 171.999496 152.261002 171.999496 128 C 171.999496 103.738998 152.264496 84 128.002502 84"/>
</svg>
