<?xml version="1.0" encoding="UTF-8"?>
<!-- Generated by Pixelmator Pro 3.7.1 -->
<svg width="256" height="256" viewBox="0 0 256 256" xmlns="http://www.w3.org/2000/svg">
    <path id="Path" fill="#ffffff" stroke="none" d="M 56 120 L 200 120 L 200 124 L 56 124 Z M 52 128 L 204 128 L 204 116 L 52 116 Z"/>
    <path id="path1" fill="#ffffff" stroke="none" d="M 196 76 L 60 76 L 60 52.438995 L 67.207993 20 L 188.791 20 L 196 52.438995 Z M 200 52 L 192 16 L 64 16 L 56 52 L 56 80 L 200 80 Z"/>
    <path id="path2" fill="#ffffff" stroke="none" d="M 220 28 L 216 28 L 208 28 L 208 20 L 220 20 Z M 220 40 L 216 40 L 208 40 L 208 32 L 216 32 L 220 32 Z M 220 52 L 216 52 L 208 52 L 208 44 L 216 44 L 220 44 Z M 220 64 L 216 64 L 208 64 L 208 56 L 216 56 L 220 56 Z M 220 76 L 216 76 L 208 76 L 208 68 L 216 68 L 220 68 Z M 220 240 L 216 244 L 40 244 L 36 240 L 36 80 L 40 80 L 48 80 L 48 84 L 48 88 L 52 88 L 204 88 L 208 88 L 208 84 L 208 80 L 216 80 L 220 80 Z M 40 40 L 36 40 L 36 32 L 40 32 L 48 32 L 48 40 Z M 40 52 L 36 52 L 36 44 L 40 44 L 48 44 L 48 52 Z M 48 68 L 48 76 L 40 76 L 36 76 L 36 68 L 40 68 Z M 40 64 L 36 64 L 36 56 L 40 56 L 48 56 L 48 64 Z M 48 20 L 48 28 L 40 28 L 36 28 L 36 20 Z M 216 12 L 220 16 L 204 16 L 204 84 L 52 84 L 52 16 L 36 16 L 40 12 Z M 222.828003 13.171005 L 218.828003 9.171997 L 217.656998 8 L 216 8 L 40 8 L 38.343002 8 L 37.171005 9.171005 L 33.171005 13.171005 L 32 14.343002 L 32 16 L 32 20 L 32 28 L 32 32 L 32 40 L 32 44 L 32 52 L 32 56 L 32 64 L 32 68 L 32 76 L 32 80 L 32 240 L 32 241.656998 L 33.171997 242.828003 L 37.171997 246.828003 L 38.343002 248 L 40 248 L 216 248 L 217.656998 248 L 218.828003 246.828003 L 222.828003 242.828003 L 224 241.656998 L 224 240 L 224 80 L 224 76 L 224 68 L 224 64 L 224 56 L 224 52 L 224 44 L 224 40 L 224 32 L 224 28 L 224 20 L 224 16 L 224 14.343002 Z"/>
</svg>
