<?xml version="1.0" encoding="UTF-8"?>
<!-- Generated by Pixelmator Pro 3.7.1 -->
<svg width="256" height="256" viewBox="0 0 256 256" xmlns="http://www.w3.org/2000/svg">
    <path id="Path" fill="#ffffff" stroke="none" d="M 156 8 L 108 8 C 61.681999 8 24 45.682007 24 92 L 24 216 L 24 228 C 24 234.681 31.081001 238.511002 35.301003 240.199005 C 41.429001 242.649994 49.489998 244 58 244 C 70.605003 244 81.983002 241.009003 87.692001 236.194 C 87.874001 236.041 88.014999 236 88.069 236 L 99.977997 236 C 100.151001 236 100.376999 236.100006 100.597 236.272995 C 106.624001 241.039001 118.656998 244 132 244 C 145.343002 244 157.376007 241.039001 163.403 236.272995 C 163.623001 236.100006 163.848999 236 164.022003 236 L 175.931 236 C 175.985001 236 176.126007 236.041 176.307999 236.194 C 182.018005 241.009003 193.395004 244 206 244 C 222.895996 244 240 238.503998 240 228 L 240 216 L 240 92 C 240 45.682007 202.317001 8 156 8 M 34 208 C 35.103996 208 36 207.104004 36 206 L 36 148 L 32 148 L 32 206 C 32 207.104004 32.896004 208 34 208 M 156 12 C 200.182999 12 236 47.817001 236 92 L 236 216 L 236 228 C 236 234.626999 222.567993 240 206 240 C 194.027008 240 183.697006 237.192993 178.886993 233.136993 C 178.052002 232.432999 177.022003 232 175.931 232 L 164.022003 232 C 162.888 232 161.811996 232.432007 160.921997 233.136002 C 155.791 237.192993 144.770996 240 132 240 C 119.227997 240 108.209 237.192993 103.078003 233.136002 C 102.186996 232.432007 101.112999 232 99.977997 232 L 88.069 232 C 86.977997 232 85.947998 232.432999 85.113998 233.136993 C 80.303001 237.192993 69.973 240 58 240 C 41.431999 240 28 234.626999 28 228 L 28 216 L 28 92 C 28 47.817001 63.817001 12 108 12 L 156 12"/>
    <path id="path1" fill="#ffffff" stroke="none" d="M 138.001999 99.892105 C 130.279007 99.892105 123.997002 106.174103 123.997002 113.896103 C 123.997002 121.615097 130.279007 127.894104 138.001999 127.894104 C 145.720993 127.894104 152 121.615097 152 113.896103 C 152 106.174103 145.720993 99.892105 138.001999 99.892105 M 138.001999 103.892105 C 143.518005 103.892105 148 108.377106 148 113.896103 C 148 119.412094 143.518005 123.894104 138.001999 123.894104 C 132.488998 123.894104 127.997002 119.412094 127.997002 113.896103 C 127.997002 108.377106 132.488998 103.892105 138.001999 103.892105"/>
    <path id="path2" fill="#ffffff" stroke="none" d="M 220 152 L 52 152 C 47.589005 152 44 155.588989 44 160 L 44 206 C 44 212.458008 52.716995 216.600006 73.145996 219.850006 C 89.968002 222.526001 112.291 224 136 224 C 159.709991 224 182.031006 222.526001 198.854004 219.850006 C 219.283005 216.600006 228 212.458008 228 206 L 228 160 C 228 155.588989 224.410995 152 220 152 M 220 156 C 222.209 156 224 157.791 224 160 L 224 206 C 224 213.731995 184.600998 220 136 220 C 87.399002 220 48 213.731995 48 206 L 48 160 C 48 157.791 49.791 156 52 156 L 220 156"/>
    <path id="path3" fill="#ffffff" stroke="none" d="M 28 84 L 28 88 L 36 88 L 36 144 L 28 144 L 28 148 L 40 148 L 40 84 Z"/>
    <path id="path4" fill="#ffffff" stroke="none" d="M 82 24 C 78.686996 24 76 26.686996 76 30 C 76 33.313004 78.686996 36 82 36 C 85.313004 36 88 33.313004 88 30 C 88 26.686996 85.313004 24 82 24 M 82 28 C 83.102997 28 84 28.897003 84 30 C 84 31.102997 83.102997 32 82 32 C 80.897003 32 80 31.102997 80 30 C 80 28.897003 80.897003 28 82 28"/>
    <path id="path5" fill="#ffffff" stroke="none" d="M 182 20 C 178.686996 20 176 22.686996 176 26 C 176 29.313004 178.686996 32 182 32 C 185.313004 32 188 29.313004 188 26 C 188 22.686996 185.313004 20 182 20 M 182 24 C 183.102997 24 184 24.897003 184 26 C 184 27.102997 183.102997 28 182 28 C 180.897003 28 180 27.102997 180 26 C 180 24.897003 180.897003 24 182 24"/>
    <path id="path6" fill="#ffffff" stroke="none" d="M 58 40 C 54.687 40 52 42.686996 52 46 C 52 49.313004 54.687 52 58 52 C 61.313 52 64 49.313004 64 46 C 64 42.686996 61.313 40 58 40 M 58 44 C 59.103001 44 60 44.897003 60 46 C 60 47.102997 59.103001 48 58 48 C 56.896999 48 56 47.102997 56 46 C 56 44.897003 56.896999 44 58 44"/>
    <path id="path7" fill="#ffffff" stroke="none" d="M 62.958 156 C 55.990002 143.576004 52 129.257996 52 114 C 52 66.502991 90.499001 28 138 28 C 185.485992 28 224 66.502991 224 114 C 224 129.257996 220.008987 143.576004 213.038986 156 L 217.577988 156 C 224.22699 143.45401 228 129.160004 228 114 C 228 64.373993 187.625992 24 138 24 C 88.374001 24 48 64.373993 48 114 C 48 129.160004 51.772999 143.45401 58.422001 156 Z"/>
    <path id="path8" fill="#ffffff" stroke="none" d="M 109.746597 114 C 109.746597 98.421005 122.420601 85.746994 137.999603 85.746994 C 153.577606 85.746994 166.249603 98.421005 166.249603 114 C 166.249603 129.57901 153.577606 142.253998 137.999603 142.253998 C 122.420601 142.253998 109.746597 129.57901 109.746597 114 M 170.249603 114 C 170.249603 96.216003 155.784592 81.747009 137.999603 81.747009 C 120.212601 81.747009 105.746597 96.216003 105.746597 114 C 105.746597 131.783997 120.212601 146.253998 137.999603 146.253998 C 155.784592 146.253998 170.249603 131.783997 170.249603 114"/>
</svg>
