<?xml version="1.0" encoding="UTF-8"?>
<!-- Generated by Pixelmator Pro 3.7.1 -->
<svg width="256" height="256" viewBox="0 0 256 256" xmlns="http://www.w3.org/2000/svg">
    <path id="Path" fill="#ffffff" stroke="none" d="M 228 44 L 232 44 L 232 48 L 228 48 Z M 240 240 C 240 242.209 238.209 244 236 244 L 224 244 L 224 172 C 224 167.582001 220.417999 164 216 164 L 84 164 C 79.582001 164 76 167.582001 76 172 L 76 244 L 28 244 L 12 228 L 12 20 C 12 17.791 13.791 16 16 16 L 36 16 L 36 21.082993 C 33.612999 22.468002 32 25.046997 32 28 L 32 144 C 32 148.411011 35.589001 152 40 152 L 216 152 C 220.410995 152 224 148.411011 224 144 L 224 85.656998 L 224 76 L 224 52 L 228 52 L 232 52 L 236 52 L 236 48 L 236 44 L 236 40 L 232 40 L 228 40 L 224 40 L 224 28 C 224 27.723999 223.985992 27.451996 223.959 27.182999 C 223.822006 25.839996 223.352005 24.593994 222.632004 23.529999 C 222.488007 23.317001 222.334 23.112 222.171005 22.914001 C 221.565002 22.181 220.826996 21.563004 220 21.082993 L 220 16 L 236 16 C 238.209 16 240 17.791 240 20 Z M 184 244 L 184 168 L 216 168 C 218.205994 168 220 169.794006 220 172 L 220 224 L 220 240 L 220 244 Z M 80 244 L 80 240 L 80 224 L 80 172 C 80 169.794006 81.793999 168 84 168 L 180 168 L 180 244 Z M 220 28 L 220 76 L 168 24 L 216 24 C 218.209 24 220 25.791 220 28 M 40 24 L 162.343002 24 L 165.171997 26.828995 L 217.171997 78.828995 L 220 81.656998 L 220 144 C 220 146.209 218.209 148 216 148 L 40 148 C 37.791 148 36 146.209 36 144 L 36 28 C 36 25.791 37.791 24 40 24 M 216 16 L 216 20 L 168 20 L 158.343002 20 L 40 20 L 40 16 Z M 236 12 L 16 12 C 11.589 12 8 15.589005 8 20 L 8 228 L 8 229.656998 L 9.171 230.828003 L 25.171 246.828003 L 26.343 248 L 28 248 L 236 248 C 240.410995 248 244 244.410995 244 240 L 244 20 C 244 15.589005 240.410995 12 236 12"/>
    <path id="path1" fill="#ffffff" stroke="none" d="M 108 176 L 132 176 L 132 232 L 108 232 Z M 104 236 L 136 236 L 136 172 L 104 172 Z"/>
    <path id="path2" fill="#ffffff" stroke="none" d="M 40 212 L 28 200 L 36 200 L 36 184 L 44 184 L 44 200 L 52 200 Z M 48 196 L 48 184 L 48 180 L 44 180 L 36 180 L 32 180 L 32 184 L 32 196 L 28 196 L 18.343 196 L 25.171 202.828003 L 37.171001 214.828003 L 40 217.656998 L 42.828999 214.828003 L 54.829002 202.828003 L 61.656998 196 L 52 196 Z"/>
</svg>
