<?xml version="1.0" encoding="UTF-8"?>
<!-- Generated by Pixelmator Pro 3.7.1 -->
<svg width="256" height="256" viewBox="0 0 256 256" xmlns="http://www.w3.org/2000/svg">
    <path id="Path" fill="#ffffff" stroke="none" d="M 30 65.875 C 30 65.391998 30.392 65 30.875 65 L 70.584 65 C 71.235001 65 71.658005 65.684998 71.367004 66.266006 L 68.742004 71.516006 C 68.594002 71.811996 68.291 72 67.959 72 L 30.875 72 C 30.392 72 30 71.608002 30 71.125 Z M 76.632996 69.735001 L 78.567001 65.865005 C 78.833 65.335007 79.375 65 79.966995 65 C 81.130997 65 81.888 66.225006 81.367004 67.264999 L 79.432999 71.134995 C 79.167 71.664993 78.625 72 78.033005 72 C 76.869003 72 76.112 70.774994 76.632996 69.735001 M 83.632996 69.735001 L 85.567001 65.865005 C 85.833 65.335007 86.375 65 86.966995 65 C 88.130997 65 88.888 66.225006 88.367004 67.264999 L 86.432999 71.134995 C 86.167 71.664993 85.625 72 85.033005 72 C 83.869003 72 83.112 70.774994 83.632996 69.735001 M 90.632996 69.735001 L 92.567001 65.865005 C 92.833 65.335007 93.375 65 93.966995 65 C 95.130997 65 95.888 66.225006 95.366997 67.264999 L 93.432999 71.134995 C 93.167 71.664993 92.625 72 92.033005 72 C 90.869003 72 90.112 70.774994 90.632996 69.735001 M 97.633003 69.735001 L 99.567001 65.865005 C 99.833 65.335007 100.375 65 100.967003 65 C 102.130997 65 102.888 66.225006 102.366997 67.264999 L 100.432999 71.134995 C 100.167 71.664993 99.625 72 99.032997 72 C 97.869003 72 97.112 70.774994 97.633003 69.735001 M 104.633003 69.735001 L 106.567001 65.865005 C 106.833 65.335007 107.375 65 107.967003 65 C 109.130997 65 109.888 66.225006 109.366997 67.264999 L 107.432999 71.134995 C 107.167 71.664993 106.625 72 106.032997 72 C 104.869003 72 104.112 70.774994 104.633003 69.735001 M 111.633003 69.735001 L 113.567001 65.865005 C 113.833 65.335007 114.375 65 114.967003 65 C 116.130997 65 116.888 66.225006 116.366997 67.264999 L 114.432999 71.134995 C 114.167 71.664993 113.625 72 113.032997 72 C 111.869003 72 111.112 70.774994 111.633003 69.735001 M 118.633003 69.735001 L 120.567001 65.865005 C 120.833 65.335007 121.375 65 121.967003 65 C 123.130997 65 123.888 66.225006 123.366997 67.264999 L 121.432999 71.134995 C 121.167 71.664993 120.625 72 120.032997 72 C 118.869003 72 118.112 70.774994 118.633003 69.735001 M 125.633003 69.735001 L 127.567001 65.865005 C 127.833 65.335007 128.375 65 128.96701 65 C 130.130997 65 130.888 66.225006 130.367004 67.264999 L 128.432999 71.134995 C 128.166992 71.664993 127.625 72 127.032997 72 C 125.869003 72 125.112 70.774994 125.633003 69.735001 M 132.632996 69.735001 L 134.567001 65.865005 C 134.832001 65.335007 135.375 65 135.968002 65 C 137.130997 65 137.888 66.225006 137.367004 67.264999 L 135.432999 71.134995 C 135.167999 71.664993 134.625 72 134.031998 72 C 132.869003 72 132.112 70.774994 132.632996 69.735001 M 30.875 76 L 67.959 76 C 69.817001 76 71.487999 74.966995 72.319 73.304993 L 72.808998 72.328003 C 72.938004 72.682999 73.094002 73.029999 73.298004 73.360001 C 74.32 75.013 76.089996 76 78.033005 76 C 79.337997 76 80.563004 75.552994 81.533005 74.768005 C 82.507004 75.557007 83.729996 76 85.033005 76 C 86.337997 76 87.563004 75.552994 88.533005 74.768005 C 89.507004 75.557007 90.729996 76 92.033005 76 C 93.337997 76 94.563004 75.552994 95.532997 74.768005 C 96.507004 75.557007 97.730003 76 99.032997 76 C 100.337997 76 101.563004 75.552994 102.532997 74.768005 C 103.507004 75.557007 104.730003 76 106.032997 76 C 107.337997 76 108.563004 75.552994 109.532997 74.768005 C 110.507004 75.557007 111.730003 76 113.032997 76 C 114.337997 76 115.563004 75.552994 116.532997 74.768005 C 117.507004 75.557007 118.730003 76 120.032997 76 C 121.337997 76 122.563004 75.552994 123.532997 74.768005 C 124.507004 75.557007 125.730003 76 127.032997 76 C 128.337997 76 129.563004 75.552994 130.53299 74.768005 C 131.507004 75.557007 132.730011 76 134.031998 76 C 136.153992 76 138.061996 74.820999 139.011002 72.923996 L 140.945007 69.054001 C 141.813995 67.315994 141.722992 65.292007 140.700989 63.639999 C 139.679993 61.987 137.910004 61 135.968002 61 C 134.661011 61 133.436996 61.447006 132.46701 62.231995 C 131.492996 61.442993 130.269989 61 128.96701 61 C 127.662003 61 126.436996 61.447006 125.467003 62.231995 C 124.492996 61.442993 123.269997 61 121.967003 61 C 120.662003 61 119.436996 61.447006 118.467003 62.231995 C 117.492996 61.442993 116.269997 61 114.967003 61 C 113.662003 61 112.436996 61.447006 111.467003 62.231995 C 110.492996 61.442993 109.269997 61 107.967003 61 C 106.662003 61 105.436996 61.447006 104.467003 62.231995 C 103.492996 61.442993 102.269997 61 100.967003 61 C 99.662003 61 98.436996 61.447006 97.467003 62.231995 C 96.492996 61.442993 95.269997 61 93.966995 61 C 92.662003 61 91.436996 61.447006 90.466995 62.231995 C 89.492996 61.442993 88.270004 61 86.966995 61 C 85.662003 61 84.436996 61.447006 83.466995 62.231995 C 82.492996 61.442993 81.270004 61 79.966995 61 C 77.893997 61 76.029999 62.132004 75.061005 63.955002 C 74.966003 63.735992 74.859001 63.520004 74.731003 63.311996 C 73.835999 61.863998 72.285995 61 70.584 61 L 30.875 61 C 28.187 61 26 63.186996 26 65.875 L 26 71.125 C 26 73.813004 28.187 76 30.875 76"/>
    <path id="path1" fill="#ffffff" stroke="none" d="M 194.5 142 C 200.298996 142 205 146.701004 205 152.5 C 205 158.298996 200.298996 163 194.5 163 C 188.701004 163 184 158.298996 184 152.5 C 184 146.701004 188.701004 142 194.5 142 M 194.5 167 C 202.494995 167 209 160.494995 209 152.5 C 209 144.505005 202.494995 138 194.5 138 C 186.505005 138 180 144.505005 180 152.5 C 180 160.494995 186.505005 167 194.5 167"/>
    <path id="path2" fill="#ffffff" stroke="none" d="M 67.799797 188.275391 L 40.117802 135.043396 L 211.999802 48.000412 L 239.999802 96.000397 Z M 218.999802 177.000397 C 218.999802 182.798401 214.298798 187.500397 208.499802 187.500397 L 117.499802 187.500397 L 113.999802 191.000397 L 71.1838 191.000397 L 218.999802 111.791397 Z M 50.068798 197.623398 C 49.552799 197.879395 49.004799 198.000397 48.463799 198.000397 C 47.1768 198.000397 45.935799 197.312408 45.289799 196.111404 L 19.923801 148.9254 C 18.971802 147.156403 19.678802 144.95639 21.486801 144.058411 L 36.562801 136.876404 L 36.569801 136.888397 L 64.134804 189.8974 Z M 26.499802 191.000397 C 20.700802 191.000397 15.999801 186.298401 15.999801 180.500397 L 15.999801 149.928406 C 16.115803 150.230408 16.244801 150.529404 16.400803 150.819397 L 38.000801 191.000397 Z M 26.499802 58.000412 L 183.399796 58.000412 L 38.310799 131.474396 L 34.7038 133.3004 L 34.739799 133.370392 L 34.681801 133.340393 L 19.7668 140.448395 L 19.737801 140.462402 L 19.709801 140.475403 C 17.9758 141.336395 16.6768 142.7854 15.999801 144.576401 L 15.999801 68.500397 C 15.999801 62.701401 20.700802 58.000412 26.499802 58.000412 M 245.5448 97.567398 L 243.454803 93.984406 L 215.454803 45.984406 L 213.555801 42.728409 L 210.193802 44.431412 L 191.297806 54.000412 L 26.499802 54.000412 C 18.504803 54.000412 11.999801 60.504395 11.999801 68.500397 L 11.999801 180.500397 C 11.999801 188.495392 18.504803 195.000397 26.499802 195.000397 L 40.151798 195.000397 L 41.7668 198.005402 C 43.091801 200.469391 45.657799 202.000397 48.463799 202.000397 C 49.629799 202.000397 50.798801 201.725403 51.845798 201.20639 L 51.920799 201.169403 L 51.993801 201.129395 L 63.153801 195.000397 L 113.999802 195.000397 L 115.656799 195.000397 L 116.828796 193.8284 L 119.156799 191.500397 L 208.499802 191.500397 C 216.494812 191.500397 222.999802 184.995392 222.999802 177.000397 L 222.999802 109.648407 L 241.889801 99.525406 Z"/>
    <path id="path3" fill="#ffffff" stroke="none" d="M 105.629402 158.644501 L 85.470398 121.802505 L 178.711395 73.3685 L 198.557404 110.321503 Z M 80.000397 120.137497 L 104.000397 163.999496 L 204.000397 111.999496 L 180.3694 67.999496 Z"/>
    <path id="path4" fill="#ffffff" stroke="none" d="M 210.110397 83.222702 L 221.768402 77.160706 C 222.097397 76.9897 222.449402 76.908707 222.796402 76.908707 C 223.601395 76.908707 224.380402 77.346695 224.777405 78.110703 L 230.970398 90.020706 C 231.539398 91.113693 231.113403 92.460693 230.020401 93.029694 L 218.362396 99.091705 C 218.034393 99.262695 217.681396 99.343704 217.335403 99.343704 C 216.529404 99.343704 215.751404 98.905701 215.353394 98.141693 L 209.1604 86.231705 C 208.5914 85.138702 209.017395 83.790695 210.110397 83.222702 M 201.844406 83.547699 C 201.255402 83.854706 200.624405 83.999695 200.003403 83.999695 C 198.557404 83.999695 197.163406 83.214706 196.450394 81.844696 C 195.431396 79.884705 196.193405 77.469696 198.153397 76.450699 C 198.743393 76.143707 199.374405 75.998703 199.996399 75.998703 C 201.440399 75.997696 202.835403 76.783707 203.548401 78.153702 C 204.567398 80.113693 203.804398 82.528702 201.844406 83.547699 M 207.988403 79.853699 C 207.968399 78.654694 207.686401 77.442703 207.096405 76.307693 C 205.714401 73.649704 202.993393 71.998703 199.996399 71.998703 C 198.719406 71.998703 197.444397 72.310699 196.308395 72.901703 C 192.394394 74.936707 190.866394 79.776703 192.901398 83.689697 C 194.284393 86.348694 197.005402 87.999695 200.003403 87.999695 C 201.278397 87.999695 202.553406 87.687698 203.690399 87.096695 C 204.162399 86.8517 204.596405 86.563705 204.997406 86.243698 C 205.105392 86.874695 205.307404 87.492706 205.611404 88.076706 L 211.804398 99.986694 C 212.881393 102.057693 215.001404 103.343704 217.335403 103.343704 C 218.330399 103.343704 219.323395 103.100693 220.208405 102.640701 L 231.866394 96.577698 C 233.342407 95.810699 234.431396 94.513702 234.932404 92.926697 C 235.434402 91.338699 235.287399 89.651703 234.519394 88.174698 L 228.326401 76.264694 C 227.249405 74.194702 225.131393 72.908707 222.796402 72.908707 C 221.8004 72.908707 220.807404 73.151703 219.923401 73.611694 L 208.265396 79.673706 C 208.166397 79.725693 208.084396 79.797699 207.988403 79.853699"/>
    <path id="path5" fill="#ffffff" stroke="none" d="M 94.022003 165.031189 L 82.363998 171.093201 C 82.034996 171.264191 81.683998 171.3452 81.336998 171.3452 C 80.530998 171.3452 79.752998 170.907196 79.355003 170.143204 L 73.162003 158.2332 C 72.594002 157.139191 73.018997 155.793198 74.112 155.224197 L 85.769997 149.162201 C 86.098999 148.991196 86.450996 148.910202 86.797997 148.910202 C 87.603996 148.910202 88.380997 149.347198 88.778999 150.112198 L 94.972 162.022202 C 95.541 163.115204 95.114998 164.463196 94.022003 165.031189 M 65.846001 155.550201 C 65.257004 155.856201 64.625999 156.002197 64.003998 156.002197 C 62.560001 156.002197 61.165001 155.217194 60.452 153.846191 C 59.432999 151.8862 60.195 149.4702 62.154999 148.452209 C 62.744999 148.145203 63.375999 148.000198 63.998001 148.000198 C 65.442001 148.000198 66.836998 148.785202 67.550003 150.155197 C 68.569 152.115204 67.806 154.530197 65.846001 155.550201 M 92.328003 148.266205 C 91.250999 146.196198 89.132004 144.910202 86.797997 144.910202 C 85.803001 144.910202 84.809998 145.153198 83.925003 145.61319 L 72.266998 151.676208 C 72.171997 151.724197 72.084999 151.781189 71.995003 151.835205 C 71.971001 150.621201 71.675003 149.419189 71.098999 148.309204 C 69.716003 145.651199 66.995003 144.000198 63.998001 144.000198 C 62.721001 144.000198 61.445999 144.312195 60.309998 144.903198 C 56.396999 146.938202 54.868 151.778198 56.903 155.691193 C 58.285999 158.350189 61.006001 160.002197 64.003998 160.002197 C 65.279999 160.002197 66.556 159.689209 67.692001 159.098206 C 68.160004 158.855194 68.597 158.569199 69.000999 158.248199 C 69.106003 158.871201 69.306 159.48819 69.612999 160.078201 L 75.806999 171.98819 C 76.883003 174.059204 79.001999 175.3452 81.336998 175.3452 C 82.332001 175.3452 83.324997 175.102203 84.209 174.642197 L 95.867996 168.5802 C 98.916 166.995209 100.106003 163.224197 98.521004 160.1772 Z"/>
</svg>
