<?xml version="1.0" encoding="UTF-8"?>
<!-- Generated by Pixelmator Pro 3.7.1 -->
<svg width="256" height="256" viewBox="0 0 256 256" xmlns="http://www.w3.org/2000/svg">
    <path id="Path" fill="#ffffff" stroke="none" d="M 232 196 L 128 196 L 124 200 L 73.048004 200 L 73.822006 199.604004 L 244 112.536011 L 244 184 C 244 190.626999 238.626999 196 232 196 M 50.934998 207.569 C 50.345993 207.860992 49.718994 208 49.102005 208 C 47.630997 208 46.212006 207.214005 45.475006 205.841995 L 16.483994 151.915009 C 15.397003 149.893005 16.205002 147.377991 18.270996 146.354004 L 36.367004 137.731003 L 36.470993 137.925003 L 68.470993 197.925003 L 68.475998 197.936005 Z M 24 200 C 17.373001 200 12 194.626999 12 188 L 12 150.033005 C 12.003998 151.334991 12.324005 152.625 12.960999 153.809998 L 37.792007 200 Z M 24 48 L 199.460999 48 L 38.143997 132.5 L 36.643005 133.285995 L 36.595993 133.19101 L 16.550995 142.742004 L 16.522003 142.755997 L 16.494003 142.770004 C 14.511993 143.752991 13.050995 145.451996 12.380997 147.554993 C 12.136993 148.319 12.013 149.100998 12 149.878998 L 12 60 C 12 53.373001 17.373001 48 24 48 M 232 48 C 232.621002 48 233.227005 48.061996 233.822006 48.153 C 238.673996 48.893997 242.563004 52.531006 243.671997 57.253006 C 243.697006 57.363007 243.733002 57.470001 243.755997 57.582001 C 243.783005 57.714996 243.794998 57.852997 243.817993 57.988007 C 243.929001 58.643997 244 59.313004 244 60 L 244 108.042999 L 72 196.042999 L 40 136.042999 L 208 48.042999 L 231.979004 48 Z M 247.279007 55.246994 C 247.123001 54.746994 246.942993 54.255997 246.740005 53.778 C 244.309006 48.037003 238.617004 44 232 44 L 231.994995 44 L 231.979004 44 L 24 44 C 15.177994 44 8 51.177994 8 60 L 8 188 C 8 196.821991 15.177994 204 24 204 L 39.942993 204 L 41.951004 207.735992 C 43.365005 210.365997 46.104996 212 49.102005 212 C 50.345993 212 51.595001 211.707001 52.712997 211.152008 L 52.787994 211.11499 L 52.860992 211.074997 L 65.742996 204 L 124 204 L 125.656998 204 L 126.829002 202.828003 L 129.656998 200 L 232 200 C 240.822006 200 248 192.821991 248 184 L 248 110.48999 L 248 108.042999 L 248 60 C 248 58.345993 247.748001 56.75 247.279007 55.246994"/>
    <path id="path1" fill="#ffffff" stroke="none" d="M 28 57 C 28 56.447998 28.448 56 29 56 L 74.382004 56 C 75.125 56 75.609001 56.781998 75.276001 57.447006 L 72.276001 63.447006 C 72.106995 63.785995 71.761002 64 71.382004 64 L 29 64 C 28.448 64 28 63.552002 28 63 Z M 81.293999 61.410995 L 83.505997 56.988998 C 83.808998 56.382996 84.428001 56 85.104996 56 C 86.436005 56 87.300003 57.399002 86.706001 58.589005 L 84.494995 63.011002 C 84.191002 63.617004 83.571999 64 82.895004 64 C 81.563995 64 80.699997 62.600998 81.293999 61.410995 M 89.293999 61.410995 L 91.505997 56.988998 C 91.808998 56.382996 92.428001 56 93.105003 56 C 94.435997 56 95.300003 57.399002 94.706001 58.589005 L 92.495003 63.011002 C 92.191002 63.617004 91.571999 64 90.895004 64 C 89.563995 64 88.699997 62.600998 89.293999 61.410995 M 97.293999 61.410995 L 99.505997 56.988998 C 99.808998 56.382996 100.428001 56 101.105003 56 C 102.435997 56 103.300003 57.399002 102.706001 58.589005 L 100.495003 63.011002 C 100.191002 63.617004 99.571999 64 98.894997 64 C 97.564003 64 96.699997 62.600998 97.293999 61.410995 M 105.293999 61.410995 L 107.505997 56.988998 C 107.808998 56.382996 108.428001 56 109.105003 56 C 110.435997 56 111.300003 57.399002 110.706001 58.589005 L 108.495003 63.011002 C 108.191002 63.617004 107.571999 64 106.894997 64 C 105.564003 64 104.699997 62.600998 105.293999 61.410995 M 113.293999 61.410995 L 115.505997 56.988998 C 115.808998 56.382996 116.428001 56 117.105003 56 C 118.435997 56 119.300003 57.399002 118.706001 58.589005 L 116.495003 63.011002 C 116.191002 63.617004 115.571999 64 114.894997 64 C 113.564003 64 112.699997 62.600998 113.293999 61.410995 M 121.293999 61.410995 L 123.505997 56.988998 C 123.808998 56.382996 124.428001 56 125.105003 56 C 126.435997 56 127.300003 57.399002 126.706001 58.589005 L 124.495003 63.011002 C 124.191002 63.617004 123.571999 64 122.894997 64 C 121.564003 64 120.699997 62.600998 121.293999 61.410995 M 129.294998 61.410995 L 131.505997 56.988998 C 131.80899 56.382996 132.428009 56 133.105011 56 C 134.436005 56 135.300995 57.399002 134.705002 58.589005 L 132.494003 63.011002 C 132.19101 63.617004 131.571991 64 130.894989 64 C 129.563995 64 128.699997 62.600998 129.294998 61.410995 M 137.294998 61.410995 L 139.505997 56.988998 C 139.80899 56.382996 140.428009 56 141.105011 56 C 142.436005 56 143.300995 57.399002 142.705002 58.589005 L 140.494003 63.011002 C 140.19101 63.617004 139.571991 64 138.894989 64 C 137.563995 64 136.699005 62.600998 137.294998 61.410995 M 145.294998 61.410995 L 147.505997 56.988998 C 147.80899 56.382996 148.428009 56 149.105011 56 C 150.436005 56 151.300995 57.399002 150.705002 58.589005 L 148.494003 63.011002 C 148.19101 63.617004 147.571991 64 146.894989 64 C 145.563995 64 144.699005 62.600998 145.294998 61.410995 M 29 68 L 71.382004 68 C 73.287994 68 75.001999 66.940994 75.854004 65.235992 L 77.128998 62.686005 C 77.203003 63.578995 77.477997 64.458008 77.970001 65.253998 C 79.033005 66.973999 80.874001 68 82.895004 68 C 84.419998 68 85.837997 67.414001 86.895996 66.401001 C 87.957001 67.419006 89.375 68 90.895004 68 C 92.419998 68 93.837997 67.414001 94.896004 66.401001 C 95.957001 67.419006 97.375 68 98.894997 68 C 100.419998 68 101.837997 67.414001 102.896004 66.401001 C 103.957001 67.419006 105.375 68 106.894997 68 C 108.419998 68 109.837997 67.414001 110.896004 66.401001 C 111.957001 67.419006 113.375 68 114.894997 68 C 116.419998 68 117.837997 67.414001 118.894997 66.401001 C 119.957001 67.419006 121.375 68 122.894997 68 C 124.419998 68 125.837997 67.414001 126.894997 66.401001 C 127.957001 67.419006 129.375 68 130.894989 68 C 132.419998 68 133.838989 67.414001 134.895996 66.401001 C 135.957001 67.419006 137.375 68 138.894989 68 C 140.419998 68 141.838989 67.414001 142.895996 66.401001 C 143.957001 67.419006 145.375 68 146.894989 68 C 149.10199 68 151.084991 66.774002 152.071991 64.800003 L 154.28299 60.378006 C 155.188004 58.570007 155.093002 56.464005 154.029999 54.746002 C 152.968002 53.026001 151.126999 52 149.105011 52 C 147.580002 52 146.161011 52.585999 145.104004 53.598999 C 144.042999 52.580994 142.625 52 141.105011 52 C 139.580002 52 138.161011 52.585999 137.104004 53.598999 C 136.042999 52.580994 134.625 52 133.105011 52 C 131.580002 52 130.161011 52.585999 129.104004 53.598999 C 128.042999 52.580994 126.625 52 125.105003 52 C 123.580002 52 122.162003 52.585999 121.105003 53.598999 C 120.042999 52.580994 118.625 52 117.105003 52 C 115.580002 52 114.162003 52.585999 113.105003 53.598999 C 112.042999 52.580994 110.625 52 109.105003 52 C 107.580002 52 106.162003 52.585999 105.105003 53.598999 C 104.042999 52.580994 102.625 52 101.105003 52 C 99.580002 52 98.162003 52.585999 97.105003 53.598999 C 96.042999 52.580994 94.625 52 93.105003 52 C 91.580002 52 90.162003 52.585999 89.104996 53.598999 C 88.042999 52.580994 86.625 52 85.104996 52 C 82.899002 52 80.915001 53.225998 79.928001 55.199997 L 79.337997 56.378998 C 79.25 55.679993 79.020996 54.996002 78.634995 54.371002 C 77.718002 52.886993 76.126999 52 74.382004 52 L 29 52 C 26.243 52 24 54.242996 24 57 L 24 63 C 24 65.757004 26.243 68 29 68"/>
    <path id="path2" fill="#ffffff" stroke="none" d="M 216 168 C 209.373001 168 204 162.626999 204 156 C 204 149.373001 209.373001 144 216 144 C 222.626999 144 228 149.373001 228 156 C 228 162.626999 222.626999 168 216 168 M 216 140 C 207.177994 140 200 147.178009 200 156 C 200 164.821991 207.177994 172 216 172 C 224.822006 172 232 164.821991 232 156 C 232 147.178009 224.822006 140 216 140"/>
</svg>
