<?xml version="1.0" encoding="UTF-8"?>
<!-- Generated by Pixelmator Pro 3.7.1 -->
<svg width="256" height="256" viewBox="0 0 256 256" xmlns="http://www.w3.org/2000/svg">
    <path id="Path" fill="#ffffff" stroke="none" d="M 36 120 L 40 120 L 40 128 L 36 128 Z M 52 128 L 44 128 L 44 120 L 52 120 Z M 64 128 L 56 128 L 56 120 L 64 120 Z M 84 128 L 68 128 L 68 120 L 84 120 Z M 220 128 L 88 128 L 88 120 L 220 120 Z M 44 132 L 52 132 L 56 132 L 64 132 L 68 132 L 84 132 L 88 132 L 224 132 L 224 116 L 88 116 L 84 116 L 68 116 L 64 116 L 56 116 L 52 116 L 44 116 L 40 116 L 32 116 L 32 132 L 40 132 Z"/>
    <path id="path1" fill="#ffffff" stroke="none" d="M 244 140 L 240 204 L 232.007996 204 L 235.992004 140.25 L 236.257996 136 L 236 136 L 236 52 L 244 52 Z M 28 204 L 27.75 200 L 228.25 200 L 228 204 Z M 12 140 L 12 52 L 20 52 L 20 136 L 19.742004 136 L 20.007996 140.25 L 23.992004 204 L 16 204 Z M 231.75 144 L 24.25 144 L 24 140 L 232 140 Z M 188 188 L 180 188 L 180 184 L 188 184 Z M 188 180 L 180 180 L 180 176 L 188 176 Z M 180 160 L 188 160 L 188 164 L 180 164 Z M 188 172 L 180 172 L 180 168 L 188 168 Z M 176 188 L 168 188 L 168 184 L 176 184 Z M 176 180 L 168 180 L 168 176 L 176 176 Z M 168 160 L 176 160 L 176 164 L 168 164 Z M 176 172 L 168 172 L 168 168 L 176 168 Z M 164 188 L 156 188 L 156 184 L 164 184 Z M 164 180 L 156 180 L 156 176 L 164 176 Z M 156 160 L 164 160 L 164 164 L 156 164 Z M 164 172 L 156 172 L 156 168 L 164 168 Z M 152 188 L 144 188 L 144 184 L 152 184 Z M 152 180 L 144 180 L 144 176 L 152 176 Z M 144 160 L 152 160 L 152 164 L 144 164 Z M 152 172 L 144 172 L 144 168 L 152 168 Z M 140 188 L 132 188 L 132 184 L 140 184 Z M 140 180 L 132 180 L 132 176 L 140 176 Z M 132 160 L 140 160 L 140 164 L 132 164 Z M 140 172 L 132 172 L 132 168 L 140 168 Z M 130 192 L 132 192 L 140 192 L 144 192 L 152 192 L 156 192 L 164 192 L 168 192 L 176 192 L 180 192 L 188 192 L 192 192 L 192 188 L 192 184 L 192 180 L 192 176 L 192 172 L 192 168 L 192 164 L 192 160 L 192 156 L 188 156 L 180 156 L 176 156 L 168 156 L 164 156 L 156 156 L 152 156 L 144 156 L 140 156 L 132 156 L 130 156 L 130 148 L 231.5 148 L 228.5 196 L 130 196 Z M 68 160 L 76 160 L 76 164 L 68 164 Z M 68 168 L 76 168 L 76 172 L 68 172 Z M 76 188 L 68 188 L 68 184 L 76 184 Z M 68 176 L 76 176 L 76 180 L 68 180 Z M 80 160 L 88 160 L 88 164 L 80 164 Z M 80 168 L 88 168 L 88 172 L 80 172 Z M 88 188 L 80 188 L 80 184 L 88 184 Z M 80 176 L 88 176 L 88 180 L 80 180 Z M 92 160 L 100 160 L 100 164 L 92 164 Z M 92 168 L 100 168 L 100 172 L 92 172 Z M 100 188 L 92 188 L 92 184 L 100 184 Z M 92 176 L 100 176 L 100 180 L 92 180 Z M 104 160 L 112 160 L 112 164 L 104 164 Z M 104 168 L 112 168 L 112 172 L 104 172 Z M 112 188 L 104 188 L 104 184 L 112 184 Z M 104 176 L 112 176 L 112 180 L 104 180 Z M 116 160 L 124 160 L 124 164 L 116 164 Z M 116 168 L 124 168 L 124 172 L 116 172 Z M 124 188 L 116 188 L 116 184 L 124 184 Z M 116 176 L 124 176 L 124 180 L 116 180 Z M 24.5 148 L 126 148 L 126 156 L 124 156 L 116 156 L 112 156 L 104 156 L 100 156 L 92 156 L 88 156 L 80 156 L 76 156 L 68 156 L 64 156 L 64 160 L 64 164 L 64 168 L 64 172 L 64 176 L 64 180 L 64 184 L 64 188 L 64 192 L 68 192 L 76 192 L 80 192 L 88 192 L 92 192 L 100 192 L 104 192 L 112 192 L 116 192 L 124 192 L 126 192 L 126 196 L 27.5 196 Z M 40 52 L 40 56 L 40 64 L 44 64 L 44 56 L 44 52 L 48 52 L 48 56 L 48 64 L 52 64 L 52 56 L 52 52 L 56 52 L 56 56 L 56 64 L 60 64 L 60 56 L 60 52 L 64 52 L 64 56 L 64 64 L 68 64 L 68 56 L 68 52 L 72 52 L 72 56 L 72 64 L 76 64 L 76 56 L 76 52 L 80 52 L 80 56 L 80 64 L 84 64 L 84 56 L 84 52 L 88 52 L 88 56 L 88 64 L 92 64 L 92 56 L 92 52 L 96 52 L 96 56 L 96 64 L 100 64 L 100 56 L 100 52 L 104 52 L 104 56 L 104 64 L 108 64 L 108 56 L 108 52 L 112 52 L 112 56 L 112 64 L 116 64 L 116 56 L 116 52 L 120 52 L 120 56 L 120 64 L 124 64 L 124 56 L 124 52 L 128 52 L 128 56 L 128 64 L 132 64 L 132 56 L 132 52 L 136 52 L 136 56 L 136 64 L 140 64 L 140 56 L 140 52 L 144 52 L 144 56 L 144 64 L 148 64 L 148 56 L 148 52 L 152 52 L 152 56 L 152 64 L 156 64 L 156 56 L 156 52 L 160 52 L 160 56 L 160 64 L 164 64 L 164 56 L 164 52 L 168 52 L 168 56 L 168 64 L 172 64 L 172 56 L 172 52 L 176 52 L 176 56 L 176 64 L 180 64 L 180 56 L 180 52 L 184 52 L 184 56 L 184 64 L 188 64 L 188 56 L 188 52 L 192 52 L 192 56 L 192 64 L 196 64 L 196 56 L 196 52 L 200 52 L 200 56 L 200 64 L 204 64 L 204 56 L 204 52 L 208 52 L 208 56 L 208 64 L 212 64 L 212 56 L 212 52 L 216 52 L 216 56 L 216 64 L 220 64 L 220 56 L 220 52 L 232 52 L 232 136 L 24 136 L 24 52 Z M 244 48 L 236 48 L 232 48 L 24 48 L 20 48 L 12 48 L 8 48 L 8 52 L 8 140 L 8 140.125 L 8.007996 140.25 L 12.007996 204.25 L 12.242004 208 L 16 208 L 24.242004 208 L 28 208 L 228 208 L 231.757996 208 L 240 208 L 243.757996 208 L 243.992004 204.25 L 247.992004 140.25 L 248 140.125 L 248 140 L 248 52 L 248 48 Z"/>
    <path id="path2" fill="#ffffff" stroke="none" d="M 48 180 C 43.582001 180 40 176.417999 40 172 C 40 167.582001 43.582001 164 48 164 C 52.417999 164 56 167.582001 56 172 C 56 176.417999 52.417999 180 48 180 M 48 160 C 41.382999 160 36 165.382996 36 172 C 36 178.617004 41.382999 184 48 184 C 54.617001 184 60 178.617004 60 172 C 60 165.382996 54.617001 160 48 160"/>
    <path id="path3" fill="#ffffff" stroke="none" d="M 208 180 C 203.582001 180 200 176.417999 200 172 C 200 167.582001 203.582001 164 208 164 C 212.417999 164 216 167.582001 216 172 C 216 176.417999 212.417999 180 208 180 M 208 160 C 201.382996 160 196 165.382996 196 172 C 196 178.617004 201.382996 184 208 184 C 214.617004 184 220 178.617004 220 172 C 220 165.382996 214.617004 160 208 160"/>
</svg>
