<?xml version="1.0" encoding="UTF-8"?>
<!-- Generated by Pixelmator Pro 3.7.1 -->
<svg width="256" height="256" viewBox="0 0 256 256" xmlns="http://www.w3.org/2000/svg">
    <path id="Path" fill="#ffffff" stroke="none" d="M 235.813995 204 L 216 204 L 212 204 L 144 204 L 140 204 L 128 204 L 115.814003 204 L 111.814003 204 L 43.813999 204 L 39.813999 204 L 20.185993 204 C 17.905003 204 16.086994 202.096008 16.190006 199.817993 L 20.000004 116 C 23.237995 57.714005 50.069004 25.641006 60.172001 15.537994 C 62.431995 13.278 65.485008 12 68.681007 12 L 128 12 L 187.319 12 C 190.514999 12 193.568008 13.278 195.828003 15.537994 C 205.931 25.641006 232.761993 57.714005 236 116 L 239.809998 199.817993 C 239.912994 202.096008 238.093994 204 235.813995 204 M 212 244 C 196 240 144 240 144 240 L 144 208 L 212 208 Z M 111.814003 240 C 111.814003 240 59.813999 240 43.813999 244 L 43.813999 208 L 111.814003 208 Z M 239.996002 115.817993 C 236.716003 56.783997 209.994003 24.046005 198.656998 12.709 C 195.619003 9.671997 191.593002 8 187.319 8 L 128 8 L 68.681007 8 C 64.407005 8 60.379993 9.671997 57.343006 12.709 C 46.006001 24.046005 19.284 56.783997 16.006001 115.778 L 12.194005 199.636993 C 12.095006 201.807999 12.899999 203.955002 14.401998 205.527008 C 15.903996 207.098999 18.011997 208 20.185993 208 L 39.813999 208 L 39.813999 244 L 39.813999 249.123001 L 44.784 247.880997 C 60.125004 244.044998 111.299004 244 111.814003 244 L 115.814003 244 L 115.814003 240 L 115.814003 208 L 128 208 L 140 208 L 140 240 L 140 244 L 144 244 C 144.514999 244 195.688995 244.044998 211.029999 247.880997 L 216 249.123001 L 216 244 L 216 208 L 235.813995 208 C 237.988007 208 240.095993 207.098999 241.598007 205.527008 C 243.100006 203.955002 243.904007 201.807999 243.806 199.636993 Z"/>
    <path id="path1" fill="#ffffff" stroke="none" d="M 232 100 L 196 68 L 188 24 L 192 72 Z"/>
    <path id="path2" fill="#ffffff" stroke="none" d="M 67.814102 24 L 59.814098 68 L 23.8141 100 L 63.814098 72 Z"/>
    <path id="path3" fill="#ffffff" stroke="none" d="M 128 188 L 40.227997 188 L 43.890999 122.082001 L 84 92 L 84 116 L 84 120 L 88 120 L 168 120 L 172 120 L 172 116 L 172 92 L 212.109009 122.082001 L 215.772003 188 Z M 168 116 L 88 116 L 88 84 L 168 84 Z M 172 87 L 172 84 L 172 80 L 168 80 L 88 80 L 84 80 L 84 84 L 84 87 L 40 120 L 36 192 L 128 192 L 220 192 L 216 120 Z"/>
    <path id="path4" fill="#ffffff" stroke="none" d="M 200 180 L 56 180 L 56 132 L 200 132 Z M 56 128 L 52 128 L 52 132 L 52 180 L 52 184 L 56 184 L 200 184 L 204 184 L 204 180 L 204 132 L 204 128 L 200 128 Z"/>
    <path id="path5" fill="#ffffff" stroke="none" d="M 128 58 L 159.306 58 L 236 116 C 235.92099 114.571991 235.81601 113.171997 235.709 111.776001 L 160.694 54 L 128 54 L 95.306 54 L 20.291 111.776001 C 20.183998 113.171997 20.079002 114.571991 20 116 L 96.694 58 Z"/>
    <path id="path6" fill="#ffffff" stroke="none" d="M 54 40 C 55.105 40 56 40.895004 56 42 C 56 43.104996 55.105 44 54 44 C 52.895 44 52 43.104996 52 42 C 52 40.895004 52.895 40 54 40 M 54 48 C 57.307999 48 60 45.307999 60 42 C 60 38.692001 57.307999 36 54 36 C 50.692001 36 48 38.692001 48 42 C 48 45.307999 50.692001 48 54 48"/>
    <path id="path7" fill="#ffffff" stroke="none" d="M 202 40 C 203.104996 40 204 40.895004 204 42 C 204 43.104996 203.104996 44 202 44 C 200.895004 44 200 43.104996 200 42 C 200 40.895004 200.895004 40 202 40 M 202 48 C 205.307999 48 208 45.307999 208 42 C 208 38.692001 205.307999 36 202 36 C 198.692001 36 196 38.692001 196 42 C 196 45.307999 198.692001 48 202 48"/>
    <path id="path8" fill="#ffffff" stroke="none" d="M 210 56 C 213.313995 56 216 58.686005 216 62 C 216 65.313995 213.313995 68 210 68 C 206.686005 68 204 65.313995 204 62 C 204 58.686005 206.686005 56 210 56 M 200 62 C 200 67.514008 204.485992 72 210 72 C 215.514008 72 220 67.514008 220 62 C 220 56.485992 215.514008 52 210 52 C 204.485992 52 200 56.485992 200 62"/>
    <path id="path9" fill="#ffffff" stroke="none" d="M 40 60 L 42 60 C 43.105 60 44 59.104996 44 58 L 44 56 L 48 56 L 48 58 C 48 59.104996 48.895 60 50 60 L 52 60 L 52 64 L 50 64 C 48.895 64 48 64.895004 48 66 L 48 68 L 44 68 L 44 66 C 44 64.895004 43.105 64 42 64 L 40 64 Z M 40 72 L 44 72 L 48 72 L 52 72 L 52 68 L 56 68 L 56 64 L 56 60 L 56 56 L 52 56 L 52 52 L 48 52 L 44 52 L 40 52 L 40 56 L 36 56 L 36 60 L 36 64 L 36 68 L 40 68 Z"/>
</svg>
