<?xml version="1.0" encoding="UTF-8"?>
<!-- Generated by Pixelmator Pro 3.7.1 -->
<svg width="256" height="256" viewBox="0 0 256 256" xmlns="http://www.w3.org/2000/svg">
    <path id="Path" fill="#ffffff" stroke="none" d="M 213.951202 227.942398 C 213.297195 227.980408 212.646194 228.000397 212.000198 228.000397 C 204.496201 228.000397 197.598206 225.416397 192.143204 221.0914 C 187.950195 217.768402 182.730194 216.007401 177.378204 216.007401 L 176.754196 216.007401 C 172.478195 216.007401 168.309204 217.194397 164.598206 219.314392 C 155.202194 224.683395 142.273193 228.000397 128.000198 228.000397 C 113.726204 228.000397 100.797203 224.683395 91.401199 219.314392 C 87.690201 217.194397 83.52121 216.007401 79.246201 216.007401 L 78.622208 216.007401 C 73.270203 216.007401 68.050201 217.768402 63.856197 221.0914 C 58.401196 225.416397 51.504192 228.000397 44.000195 228.000397 C 43.354198 228.000397 42.703197 227.980408 42.049206 227.942398 C 29.890196 227.220398 19.461195 219.541397 14.724195 208.882401 C 15.876203 210.487396 17.158201 212.011398 18.577208 213.430405 C 24.837202 219.686401 33.088192 223.417404 41.811199 223.934402 C 42.539196 223.978394 43.275204 224.000397 44.000195 224.000397 C 52.200191 224.000397 59.926205 221.312408 66.341202 216.22641 C 69.7742 213.505402 74.1362 212.007401 78.622208 212.007401 L 79.246201 212.007401 C 80.672195 212.007401 82.105209 212.178406 83.520203 212.496399 C 83.882202 212.577393 84.242203 212.664398 84.599197 212.764404 C 84.800201 212.821396 84.998199 212.886398 85.198196 212.949402 C 85.485199 213.040405 85.77121 213.134399 86.055199 213.238403 C 86.255203 213.310394 86.453201 213.385406 86.651199 213.463409 C 86.954201 213.585403 87.255203 213.714401 87.555199 213.849396 C 87.7202 213.923401 87.8862 213.995392 88.049202 214.074402 C 88.509201 214.296402 88.965202 214.529404 89.4132 214.786407 C 89.4142 214.787399 89.416199 214.787399 89.417206 214.788391 C 90.0672 215.159393 90.729202 215.519409 91.404205 215.870392 C 94.104202 217.271393 97.001205 218.504395 100.055199 219.556396 C 105.4002 221.400406 111.226204 222.697403 117.323204 223.396393 C 118.194199 223.496399 119.070206 223.584396 119.952202 223.659393 C 121.715202 223.809402 123.4972 223.911407 125.294205 223.962402 C 126.1922 223.987396 127.0952 224.000397 128.000198 224.000397 C 128.905197 224.000397 129.807205 223.987396 130.706192 223.962402 C 142.387192 223.631409 153.447205 221.166397 162.534195 216.889404 C 163.931198 216.2314 165.283203 215.530396 166.583206 214.788391 C 167.033203 214.531403 167.490204 214.296402 167.951202 214.074402 C 168.114197 213.995392 168.280197 213.924408 168.444199 213.850403 C 168.744202 213.714401 169.046204 213.585403 169.349197 213.463409 C 169.547195 213.385406 169.745193 213.310394 169.944199 213.238403 C 170.228195 213.134399 170.514206 213.040405 170.8022 212.949402 C 171.001205 212.886398 171.200195 212.821396 171.400208 212.764404 C 171.758194 212.664398 172.118195 212.577393 172.479202 212.496399 C 173.894196 212.178406 175.328201 212.007401 176.754196 212.007401 L 177.378204 212.007401 C 181.864197 212.007401 186.225204 213.505402 189.659195 216.22641 C 196.074203 221.312408 203.800201 224.000397 212.000198 224.000397 C 212.724197 224.000397 213.461197 223.978394 214.188202 223.934402 C 222.911194 223.417404 231.163193 219.686401 237.423203 213.430405 C 238.842194 212.011398 240.124207 210.487396 241.275192 208.882401 C 236.538193 219.541397 226.109207 227.220398 213.951202 227.942398 M 116.697205 184.000397 C 118.347206 179.342407 122.777199 176.000397 128.000198 176.000397 C 133.222198 176.000397 137.653198 179.342407 139.303192 184.000397 Z M 170.238205 208.935394 C 170.060196 208.987396 169.8862 209.046402 169.709198 209.100403 C 169.301193 209.22641 168.895203 209.362396 168.494202 209.509399 C 168.298203 209.582397 168.102203 209.656403 167.908203 209.733398 C 167.5112 209.890396 167.119202 210.059402 166.729202 210.236404 C 166.559204 210.314392 166.388199 210.387405 166.218201 210.469406 C 165.670197 210.733398 165.129196 211.011398 164.598206 211.314392 C 163.018204 212.217407 161.331207 213.056396 159.562195 213.837402 C 159.091202 214.045395 158.612198 214.248398 158.128204 214.446396 C 155.703201 215.443405 153.131195 216.329407 150.421204 217.077393 C 149.667206 217.2854 148.902191 217.483398 148.128204 217.671402 C 146.5802 218.046402 144.995193 218.379395 143.375198 218.668396 C 141.756195 218.956406 140.101196 219.200409 138.419205 219.3974 C 135.053192 219.793396 131.568192 220.000397 128.000198 220.000397 C 124.431206 220.000397 120.947205 219.793396 117.5812 219.3974 C 115.898201 219.200409 114.244202 218.956406 112.625206 218.668396 C 111.005203 218.379395 109.419205 218.046402 107.871201 217.671402 C 107.097206 217.483398 106.333206 217.2854 105.579201 217.077393 C 102.869202 216.329407 100.297203 215.443405 97.871201 214.446396 C 97.388199 214.248398 96.909203 214.045395 96.437202 213.837402 C 94.668205 213.056396 92.981201 212.217407 91.401199 211.314392 C 90.871201 211.011398 90.329201 210.733398 89.782204 210.469406 C 89.613205 210.387405 89.4412 210.314392 89.270203 210.236404 C 88.881203 210.059402 88.489204 209.890396 88.092201 209.733398 C 87.897202 209.656403 87.702202 209.582397 87.506203 209.509399 C 87.104202 209.362396 86.699203 209.22641 86.291199 209.100403 C 86.114204 209.046402 85.939209 208.986404 85.762207 208.936401 C 85.179199 208.769409 84.593201 208.6194 84.000198 208.496399 L 84.000198 188.000397 L 112.000206 188.000397 L 116.000206 188.000397 L 140.000198 188.000397 L 144.000198 188.000397 L 172.000198 188.000397 L 172.000198 208.497406 C 171.407196 208.6194 170.821198 208.769409 170.238205 208.935394 M 20.989195 165.806396 C 22.875196 163.8564 24.000196 161.296387 24.000196 158.584396 L 24.000196 153.662399 C 24.000196 150.852402 22.839201 148.202393 20.894194 146.173401 C 15.387204 140.431396 12.000196 132.642395 12.000196 124.059402 C 12.000196 115.474396 15.389203 107.683395 20.898207 101.940399 C 22.8412 99.915405 24.000196 97.270401 24.000196 94.465393 L 24.000196 89.532394 C 24.000196 86.827393 22.885206 84.269394 21.002195 82.325394 C 14.856198 75.977402 11.314206 67.097397 12.111203 57.399399 C 13.236203 43.708405 23.149199 32.797394 36.000195 29.274399 L 36.000195 128.118408 C 36.000195 134.735397 41.383205 140.118408 48.000195 140.118408 L 112.557205 140.118408 C 114.381203 146.948395 120.603203 152.000397 128.000198 152.000397 C 135.396194 152.000397 141.619202 146.948395 143.443192 140.118408 L 208.000198 140.118408 C 214.617203 140.118408 220.000198 134.735397 220.000198 128.118408 L 220.000198 29.274399 C 232.850204 32.797394 242.764206 43.708405 243.888199 57.399399 C 244.685196 67.097397 241.144196 75.977402 234.999207 82.324402 C 233.116196 84.269394 232.000198 86.8284 232.000198 89.534393 L 232.000198 94.456406 C 232.000198 97.265396 233.161194 99.916397 235.105194 101.944397 C 240.613205 107.687408 244.000198 115.476395 244.000198 124.059402 C 244.000198 132.644409 240.611206 140.435394 235.101196 146.178406 C 233.159195 148.2034 232.000198 150.847397 232.000198 153.653397 L 232.000198 158.586395 C 232.000198 161.296387 233.124207 163.855408 235.010193 165.805389 C 240.990204 171.988403 244.500198 180.570404 243.9422 189.969391 C 243.901199 190.652405 243.831192 191.3284 243.747192 192.000397 L 243.738205 192.000397 C 243.739197 192.012405 243.740204 192.025406 243.742203 192.037399 C 241.8452 207.081406 229.269196 219.033401 213.951202 219.942398 C 213.297195 219.980408 212.646194 220.000397 212.000198 220.000397 C 204.496201 220.000397 197.598206 217.416397 192.143204 213.0914 C 187.950195 209.768402 182.730194 208.007401 177.378204 208.007401 L 176.754196 208.007401 C 176.502197 208.007401 176.251205 208.025406 176.000198 208.033401 L 176.000198 188.000397 L 176.000198 184.000397 L 172.000198 184.000397 L 143.473206 184.000397 C 141.690201 177.110397 135.439194 172.000397 128.000198 172.000397 C 120.561203 172.000397 114.309204 177.110397 112.526199 184.000397 L 84.000198 184.000397 L 80.000198 184.000397 L 80.000198 188.000397 L 80.000198 208.033401 C 79.748199 208.025406 79.498199 208.007401 79.246201 208.007401 L 78.622208 208.007401 C 73.270203 208.007401 68.050201 209.768402 63.856197 213.0914 C 58.401196 217.416397 51.504192 220.000397 44.000195 220.000397 C 43.354198 220.000397 42.703197 219.980408 42.049206 219.942398 C 26.730207 219.033401 14.156201 207.081406 12.258206 192.038406 C 12.260205 192.025406 12.260205 192.012405 12.262204 192.000397 L 12.253201 192.000397 C 12.169202 191.3284 12.098203 190.652405 12.058194 189.969391 C 11.499204 180.570404 15.010205 171.988403 20.989195 165.806396 M 139.259201 140.118408 C 137.577194 144.713409 133.178192 148.000397 128.000198 148.000397 C 122.822205 148.000397 118.423203 144.713409 116.741203 140.118408 Z M 116.000206 136.000397 C 116.000206 129.373398 121.3722 124.000397 128.000198 124.000397 C 134.627197 124.000397 140.000198 129.373398 140.000198 136.000397 Z M 216.000198 28.437393 L 216.000198 128.118408 C 216.000198 132.537399 212.418198 136.118408 208.000198 136.118408 L 144.000198 136.118408 L 144.000198 136.000397 C 144.000198 127.177399 136.822205 120.000397 128.000198 120.000397 C 119.1782 120.000397 112.000206 127.177399 112.000206 136.000397 L 112.000206 136.118408 L 48.000195 136.118408 C 43.581203 136.118408 40.000195 132.537399 40.000195 128.118408 L 40.000195 28.437393 C 40.536205 28.358398 41.077206 28.291397 41.620205 28.235397 C 41.630199 28.234406 41.639202 28.233398 41.649197 28.232391 C 42.1992 28.177399 42.753201 28.135391 43.3092 28.108398 C 44.711193 28.040405 46.092205 28.000397 47.447201 28.000397 C 48.514202 28.000397 49.564205 28.028397 50.597195 28.084396 C 56.761196 28.416397 62.272198 29.838394 66.573196 33.6064 C 68.356201 35.169403 70.593201 36.118393 72.964203 36.118393 L 78.272202 36.118393 C 82.730209 36.118393 87.145203 35.153397 91.155205 33.205399 C 100.570206 28.630402 113.601204 28.118393 128.000198 28.118393 C 142.398193 28.118393 155.430206 28.630402 164.8452 33.205399 C 168.855194 35.153397 173.269196 36.118393 177.727203 36.118393 L 183.036194 36.118393 C 185.407196 36.118393 187.643204 35.169403 189.4272 33.6064 C 193.732193 29.833405 199.253204 28.412399 205.426193 28.083405 C 206.451202 28.028397 207.493195 28.000397 208.553207 28.000397 C 209.908203 28.000397 211.290207 28.040405 212.690201 28.108398 C 213.247192 28.135391 213.801193 28.177399 214.350204 28.232391 C 214.360199 28.233398 214.370193 28.234406 214.379196 28.235397 C 214.923203 28.291397 215.463196 28.358398 216.000198 28.437393 M 237.885193 163.024399 C 236.670197 161.767395 236.000198 160.191406 236.000198 158.586395 L 236.000198 153.653397 C 236.000198 151.955399 236.706192 150.284393 237.988205 148.947388 C 244.444199 142.217407 248.000198 133.379395 248.000198 124.059402 C 248.000198 114.741409 244.446198 105.904404 237.992203 99.1754 C 236.708206 97.836395 236.000198 96.159393 236.000198 94.456406 L 236.000198 89.534393 C 236.000198 87.926392 236.665207 86.354401 237.873199 85.1064 C 245.081192 77.661392 248.727203 67.442398 247.875198 57.071396 C 246.599197 41.543396 235.097198 28.825394 220.000198 25.1474 L 220.000198 24.985397 L 216.627197 24.486404 C 215.397202 24.303391 214.150208 24.174393 212.885193 24.112396 C 211.321198 24.037399 209.904205 24.000397 208.553207 24.000397 C 202.443207 24.000397 193.541199 24.683395 186.792206 30.593399 C 185.673203 31.573395 184.339203 32.113403 183.036194 32.113403 L 177.727203 32.113403 C 173.824203 32.113403 169.973206 31.245392 166.593201 29.603394 C 156.160202 24.538391 142.385193 24.118393 128.000198 24.118393 C 113.615204 24.118393 99.839203 24.538391 89.408203 29.603394 C 86.026199 31.245392 82.176208 32.113403 78.272202 32.113403 L 72.964203 32.113403 C 71.661209 32.113403 70.327209 31.573395 69.208206 30.593399 C 62.926205 25.092392 54.779202 24.120392 48.755199 24.012405 C 48.700191 24.011398 48.642193 24.009399 48.588192 24.008392 C 48.198193 24.003403 47.817196 24.000397 47.447201 24.000397 C 46.095196 24.000397 44.678204 24.037399 43.1152 24.112396 C 41.849194 24.174393 40.6022 24.303391 39.372204 24.486404 L 36.000195 24.985397 L 36.000195 25.1474 C 20.903196 28.825394 9.400205 41.544403 8.124204 57.071396 C 7.272199 67.443405 10.919202 77.662399 18.128202 85.107391 C 19.335203 86.354401 20.000196 87.9254 20.000196 89.532394 L 20.000196 94.465393 C 20.000196 96.163391 19.294203 97.834396 18.012205 99.171402 C 11.555203 105.900406 8.000196 114.739395 8.000196 124.059402 C 8.000196 133.377396 11.554196 142.213409 18.0072 148.94339 C 19.292204 150.283401 20.000196 151.959396 20.000196 153.662399 L 20.000196 158.584396 C 20.000196 160.190399 19.330198 161.767395 18.114195 163.025391 C 11.028195 170.352402 7.459196 180.004395 8.065198 190.207397 C 8.102201 190.838409 8.162198 191.467407 8.233197 192.094406 C 8.009198 194.143402 7.946195 196.197403 8.065198 198.207397 C 8.583203 206.9254 12.316205 215.173401 18.577208 221.430405 C 24.837202 227.686401 33.088192 231.417404 41.811199 231.934402 C 42.538204 231.978394 43.274197 232.000397 44.000195 232.000397 C 52.200191 232.000397 59.925198 229.312408 66.341202 224.226395 C 69.7742 221.505402 74.1362 220.007401 78.622208 220.007401 L 79.246201 220.007401 C 82.716202 220.007401 86.2332 220.968399 89.417206 222.788391 C 99.814201 228.728394 113.516205 232.000397 128.000198 232.000397 C 142.4832 232.000397 156.186203 228.728394 166.583206 222.788391 C 169.766205 220.968399 173.283203 220.007401 176.754196 220.007401 L 177.378204 220.007401 C 181.864197 220.007401 186.225204 221.505402 189.659195 224.226395 C 196.074203 229.312408 203.800201 232.000397 212.000198 232.000397 C 212.724197 232.000397 213.461197 231.978394 214.188202 231.934402 C 222.911194 231.417404 231.163193 227.686401 237.423203 221.430405 C 243.683197 215.173401 247.417206 206.9254 247.934204 198.207397 C 248.055206 196.197403 247.991196 194.143402 247.766205 192.094406 C 247.838196 191.467407 247.897202 190.838409 247.934204 190.207397 C 248.541199 180.004395 244.972198 170.35141 237.885193 163.024399"/>
    <path id="path1" fill="#ffffff" stroke="none" d="M 128 60 C 94.916 60 68 86.916 68 120 C 68 125.541 68.770996 130.902008 70.182999 136 L 74.332001 136 C 72.821999 130.929001 72 125.561996 72 120 C 72 89.072006 97.071999 64 128 64 C 158.927994 64 184 89.072006 184 120 C 184 125.561996 183.178009 130.929001 181.667999 136 L 185.81601 136 C 187.229004 130.902008 188 125.541 188 120 C 188 86.916 161.084 60 128 60"/>
    <path id="path2" fill="#ffffff" stroke="none" d="M 128 48 C 88.298996 48 56 80.298996 56 120 C 56 125.5 56.640999 130.850998 57.814003 136 L 61.911003 136 C 60.672997 130.867004 60 125.513 60 120 C 60 82.445007 90.445 52 128 52 C 165.556 52 196 82.445007 196 120 C 196 125.513 195.326996 130.867004 194.088989 136 L 198.186005 136 C 199.359009 130.850998 200 125.5 200 120 C 200 80.298996 167.701004 48 128 48"/>
    <path id="path3" fill="#ffffff" stroke="none" d="M 128 72 C 101.533005 72 80 93.533005 80 120 C 80 125.609009 80.975998 130.992004 82.751999 136 L 87.014 136 C 85.074997 131.039001 84 125.647003 84 120 C 84 95.699005 103.698997 76 128 76 C 152.300995 76 172 95.699005 172 120 C 172 125.647003 170.925003 131.039001 168.985992 136 L 173.248001 136 C 175.022995 130.992004 176 125.609009 176 120 C 176 93.533005 154.466995 72 128 72"/>
    <path id="path4" fill="#ffffff" stroke="none" d="M 128 84 C 108.149002 84 92 100.149002 92 120 C 92 125.744995 93.360001 131.177002 95.764 136 L 100.292 136 C 97.567001 131.291992 96 125.830994 96 120 C 96 102.326996 110.326996 88 128 88 C 145.673004 88 160 102.326996 160 120 C 160 125.830994 158.432999 131.291992 155.708008 136 L 160.235992 136 C 162.639999 131.177002 164 125.744995 164 120 C 164 100.149002 147.850998 84 128 84"/>
    <path id="path5" fill="#ffffff" stroke="none" d="M 88 208 L 168 208 L 168 204 L 88 204 Z"/>
    <path id="path6" fill="#ffffff" stroke="none" d="M 46 172 C 53.731998 172 60 178.268005 60 186 C 60 193.731995 53.731998 200 46 200 C 38.268002 200 32 193.731995 32 186 C 32 178.268005 38.268002 172 46 172 M 46 204 C 55.924999 204 64 195.925003 64 186 C 64 176.074997 55.924999 168 46 168 C 36.075001 168 28 176.074997 28 186 C 28 195.925003 36.075001 204 46 204"/>
</svg>
