<?xml version="1.0" encoding="UTF-8"?>
<!-- Generated by Pixelmator Pro 3.7.1 -->
<svg width="256" height="256" viewBox="0 0 256 256" xmlns="http://www.w3.org/2000/svg">
    <path id="Path" fill="#ffffff" stroke="none" d="M 244 108 L 212 108 L 212 56 L 244 76 Z M 244 212 L 12 212 L 12 112 L 44 112 L 48 112 L 48 64 L 48 56 L 56 56 L 88 56 L 92 56 L 164 56 L 168 56 L 200 56 L 208 56 L 208 64 L 208 112 L 212 112 L 244 112 Z M 12 76 L 44 56 L 44 108 L 12 108 Z M 92 44 L 164 44 L 164 52 L 92 52 Z M 246.119995 72.608002 L 214.119995 52.608002 L 213.147003 52 L 212 52 L 168 52 L 168 44 L 168 40 L 164 40 L 92 40 L 88 40 L 88 44 L 88 52 L 44 52 L 42.852997 52 L 41.880005 52.608002 L 9.880005 72.608002 L 8 73.783005 L 8 76 L 8 212 L 8 216 L 12 216 L 244 216 L 248 216 L 248 212 L 248 76 L 248 73.783005 Z"/>
    <path id="path1" fill="#ffffff" stroke="none" d="M 120 196 L 32 196 L 32 136 L 120 136 Z M 32 132 L 28 132 L 28 136 L 28 196 L 28 200 L 32 200 L 120 200 L 124 200 L 124 196 L 124 136 L 124 132 L 120 132 Z"/>
    <path id="path2" fill="#ffffff" stroke="none" d="M 224 196 L 136 196 L 136 136 L 224 136 Z M 132 132 L 132 136 L 132 196 L 132 200 L 136 200 L 224 200 L 228 200 L 228 196 L 228 136 L 228 132 L 224 132 L 136 132 Z"/>
    <path id="path3" fill="#ffffff" stroke="none" d="M 76 64 L 180 64 L 180 112 L 76 112 Z M 180 116 L 184 116 L 184 112 L 184 64 L 184 60 L 180 60 L 76 60 L 72 60 L 72 64 L 72 112 L 72 116 L 76 116 Z"/>
    <path id="path4" fill="#ffffff" stroke="none" d="M 56 60 C 58.209 60 60 61.791 60 64 C 60 66.209 58.209 68 56 68 C 53.791 68 52 66.209 52 64 C 52 61.791 53.791 60 56 60 M 56 72 C 60.410999 72 64 68.410995 64 64 C 64 59.589005 60.410999 56 56 56 C 51.589001 56 48 59.589005 48 64 C 48 68.410995 51.589001 72 56 72"/>
    <path id="path5" fill="#ffffff" stroke="none" d="M 44 116 C 46.209 116 48 117.791 48 120 C 48 122.209 46.209 124 44 124 C 41.791 124 40 122.209 40 120 C 40 117.791 41.791 116 44 116 M 36 120 C 36 124.410995 39.589001 128 44 128 C 48.410999 128 52 124.410995 52 120 C 52 115.589005 48.410999 112 44 112 C 39.589001 112 36 115.589005 36 120"/>
    <path id="path6" fill="#ffffff" stroke="none" d="M 200 60 C 202.209 60 204 61.791 204 64 C 204 66.209 202.209 68 200 68 C 197.791 68 196 66.209 196 64 C 196 61.791 197.791 60 200 60 M 192 64 C 192 68.410995 195.589005 72 200 72 C 204.410995 72 208 68.410995 208 64 C 208 59.589005 204.410995 56 200 56 C 195.589005 56 192 59.589005 192 64"/>
    <path id="path7" fill="#ffffff" stroke="none" d="M 212 116 C 214.209 116 216 117.791 216 120 C 216 122.209 214.209 124 212 124 C 209.791 124 208 122.209 208 120 C 208 117.791 209.791 116 212 116 M 204 120 C 204 124.410995 207.589005 128 212 128 C 216.410995 128 220 124.410995 220 120 C 220 115.589005 216.410995 112 212 112 C 207.589005 112 204 115.589005 204 120"/>
</svg>
