<?xml version="1.0" encoding="UTF-8"?>
<!-- Generated by Pixelmator Pro 3.7.1 -->
<svg width="256" height="256" viewBox="0 0 256 256" xmlns="http://www.w3.org/2000/svg">
    <path id="Path" fill="#ffffff" stroke="none" d="M 240 104 C 237.791 104 236 101.313004 236 98 C 236 94.686996 237.791 92 240 92 C 242.209 92 244 94.686996 244 98 C 244 101.313004 242.209 104 240 104 M 240 120 C 237.791 120 236 117.313004 236 114 C 236 110.686996 237.791 108 240 108 C 242.209 108 244 110.686996 244 114 C 244 117.313004 242.209 120 240 120 M 240 136 C 237.791 136 236 133.313004 236 130 C 236 126.686996 237.791 124 240 124 C 242.209 124 244 126.686996 244 130 C 244 133.313004 242.209 136 240 136 M 240 152 C 237.791 152 236 149.313004 236 146 C 236 142.686996 237.791 140 240 140 C 242.209 140 244 142.686996 244 146 C 244 149.313004 242.209 152 240 152 M 240 156 C 242.209 156 244 158.686996 244 162 C 244 165.313004 242.209 168 240 168 C 237.791 168 236 165.313004 236 162 C 236 158.686996 237.791 156 240 156 M 227.895004 176 C 226.195999 176 224.539001 176.425003 223.102005 177.229004 C 219.998001 178.963989 215.100998 180 210 180 C 204.899002 180 200.001999 178.963989 196.897995 177.229004 C 195.460999 176.425003 193.807007 176 192.113007 176 L 183.886993 176 C 182.192993 176 180.539001 176.425003 179.102005 177.229004 C 175.998001 178.963989 171.100998 180 166 180 C 160.899002 180 156.001999 178.963989 152.89801 177.229004 C 151.460999 176.425003 149.807007 176 148.113007 176 L 140.492004 176 C 138.800003 176 137.145996 176.425003 135.708008 177.229004 C 132.604004 178.963989 127.707001 180 122.606003 180 C 117.482002 180 112.735001 179.005997 109.584 177.272003 C 109.076996 176.994003 108.546005 176.759003 108 176.570007 C 107.875 176.526001 107.796997 176.507004 107.738998 176.496002 C 107.848007 176.47699 108 176.378998 108 176 L 108 44 L 232 44 C 238.600006 44 244 49.399994 244 56 L 244 89.307999 C 242.828995 88.477997 241.468994 88 240 88 C 235.514008 88 232 92.393005 232 98 C 232 101.311996 233.231003 104.190002 235.158997 106 C 233.231003 107.809998 232 110.688004 232 114 C 232 117.311996 233.231003 120.190002 235.158997 122 C 233.231003 123.809998 232 126.688004 232 130 C 232 133.311996 233.231003 136.190002 235.158997 138 C 233.231003 139.809998 232 142.688004 232 146 C 232 149.311996 233.231003 152.190002 235.158997 154 C 233.231003 155.809998 232 158.688004 232 162 C 232 167.606995 235.514008 172 240 172 C 241.468994 172 242.828995 171.522003 244 170.692001 L 244 176 Z M 244 192 C 244 198.600006 238.600006 204 232 204 L 217.653992 204 C 215.192993 204 212.757996 203.582001 210.403992 202.860001 C 204.632004 201.091003 196.723999 200 188 200 C 178.694 200 170.317001 201.240997 164.471008 203.222992 C 162.955002 203.735992 161.408997 204.156998 159.82901 204.406998 L 142.436996 207.162994 C 137.641998 207.721008 132.820007 208 128 208 C 123.179001 208 118.359001 207.721008 113.561996 207.162994 L 96.171005 204.406998 C 94.589996 204.156998 93.044998 203.735992 91.529007 203.222992 C 85.682999 201.240997 77.306 200 68 200 C 59.276001 200 51.367996 201.091003 45.595993 202.860001 C 43.242996 203.582001 40.807007 204 38.345001 204 L 24 204 C 17.399994 204 12 198.600006 12 192 L 12 180 L 105.143997 180 C 105.283997 180.065002 105.431 180.119995 105.589005 180.149994 C 106.434998 180.313004 107.253006 180.606003 108.014008 181.024994 C 111.311005 182.837997 116.346001 184 122 184 C 127.709999 184 132.790009 182.815002 136.084 180.971008 C 137.244995 180.320007 138.549011 180 139.878998 180 L 148.121002 180 C 149.450989 180 150.755005 180.320007 151.916 180.971008 C 155.209991 182.815002 160.289001 184 166 184 C 171.710999 184 176.790009 182.815002 180.084 180.971008 C 181.244995 180.320007 182.548996 180 183.878998 180 L 192.121002 180 C 193.451004 180 194.755005 180.320007 195.916 180.971008 C 199.209991 182.815002 204.289001 184 210 184 C 215.707001 184 220.783005 182.81601 224.078003 180.975006 C 225.242996 180.321991 226.559006 180 227.895004 180 L 244 180 Z M 12 56 C 12 49.399994 17.399994 44 24 44 L 104 44 L 104 176 L 12 176 Z M 232 40 L 24 40 C 15.177994 40 8 47.178009 8 56 L 8 192 C 8 200.821991 15.177994 208 24 208 L 38.345001 208 C 41.087006 208 43.921005 207.557999 46.768997 206.684998 C 52.417007 204.953003 59.957001 204 68 204 C 76.490997 204 84.598999 205.097992 90.246002 207.011993 C 92.134995 207.652008 93.869003 208.093002 95.544998 208.358002 L 112.935997 211.113998 L 113.017998 211.126999 L 113.099998 211.136993 C 118.027 211.709991 123.040001 212 128 212 C 132.959991 212 137.972992 211.709991 142.899002 211.136993 L 142.981995 211.126999 L 143.063004 211.113998 L 160.455002 208.358002 C 162.130997 208.093002 163.86499 207.652008 165.755005 207.011993 C 171.401001 205.097992 179.509995 204 188 204 C 196.042999 204 203.583008 204.953003 209.231003 206.684998 C 212.078995 207.557999 214.912994 208 217.653992 208 L 232 208 C 240.822006 208 248 200.821991 248 192 L 248 56 C 248 47.178009 240.822006 40 232 40"/>
    <path id="path1" fill="#ffffff" stroke="none" d="M 38 196 C 32.477001 196 28 194.209 28 192 C 28 189.791 32.477001 188 38 188 C 43.522999 188 48 189.791 48 192 C 48 194.209 43.522999 196 38 196 M 38 184 C 29.625999 184 24 187.214996 24 192 C 24 196.785004 29.625999 200 38 200 C 46.374001 200 52 196.785004 52 192 C 52 187.214996 46.374001 184 38 184"/>
    <path id="path2" fill="#ffffff" stroke="none" d="M 194 160 C 188.729004 160 184.067993 157.078003 181.641006 152.772003 C 181.378006 152.306 180.901001 152 180.365005 152 L 179.634995 152 C 179.098999 152 178.621994 152.306 178.358994 152.772003 C 175.932007 157.078003 171.270996 160 166 160 C 160.067001 160 154.997009 157.485992 152.959 152.822998 C 152.735992 152.313995 152.216003 152 151.660004 152 L 151.634995 152 C 151.098999 152 150.622009 152.306 150.359009 152.772003 C 147.932007 157.078003 143.270996 160 138 160 C 129.792999 160 123.236 152.938004 124.071999 144.561005 C 124.686996 138.406006 129.429001 133.268997 135.522003 132.214005 C 136.359009 132.069 137.186996 132 138 132 C 143.270996 132 147.932999 134.921997 150.359009 139.229004 C 150.622009 139.694 151.098999 140 151.634003 140 L 152.871002 140 C 153.371002 140 153.824005 139.733002 154.093994 139.313004 C 156.777008 135.119003 161.255005 132 166 132 C 171.270996 132 175.932007 134.921997 178.358994 139.227997 C 178.621994 139.694 179.098999 140 179.634995 140 L 180.365997 140 C 180.901001 140 181.378006 139.694 181.641006 139.229004 C 184.067993 134.921997 188.729004 132 194 132 C 194.811996 132 195.641998 132.069 196.477997 132.214005 C 202.570999 133.268997 207.313004 138.406006 207.927994 144.561005 C 208.764999 152.938004 202.207001 160 194 160 M 197.158997 128.27301 C 196.113007 128.091995 195.050003 128 194 128 C 188.544006 128 183.421005 130.462006 180 134.584991 C 176.578995 130.462006 171.455994 128 166 128 C 160.979996 128 155.928009 130.619995 152.315002 134.97699 C 148.899002 130.617996 143.626999 128 138 128 C 136.949997 128 135.886993 128.091995 134.841003 128.27301 C 126.954002 129.638 120.889999 136.171997 120.092003 144.162994 C 119.584999 149.242996 121.247002 154.313995 124.652 158.075989 C 128.059998 161.841003 132.925003 164 138 164 C 143.196991 164 148.093002 161.765991 151.502991 157.988998 C 154.712997 161.811005 159.869003 164 166 164 C 171.455994 164 176.578995 161.537994 180 157.415009 C 183.421005 161.537994 188.544006 164 194 164 C 199.074997 164 203.940002 161.841003 207.347992 158.075989 C 210.753006 154.313995 212.415009 149.242996 211.908005 144.162994 C 211.110001 136.171997 205.046005 129.638 197.158997 128.27301"/>
    <path id="path3" fill="#ffffff" stroke="none" d="M 166 60 C 171.522003 60 176 64.477005 176 70 C 176 75.522995 171.522003 80 166 80 C 160.477997 80 156 75.522995 156 70 C 156 64.477005 160.477997 60 166 60 M 166 84 C 173.720001 84 180 77.720001 180 70 C 180 62.279999 173.720001 56 166 56 C 158.279999 56 152 62.279999 152 70 C 152 77.720001 158.279999 84 166 84"/>
    <path id="path4" fill="#ffffff" stroke="none" d="M 166 196 C 158.268005 196 152 193.477005 152 190.363007 C 152 189.975006 152.100006 189.596008 152.287003 189.230011 C 152.714005 188.399002 153.403 188 154.115005 188 C 154.429001 188 154.748001 188.078003 155.050003 188.231003 C 157.612 189.528992 161.561005 190.363007 166 190.363007 C 170.438995 190.363007 174.388 189.528992 176.949997 188.231003 C 177.251999 188.078003 177.570999 188 177.884995 188 C 178.597 188 179.287003 188.399002 179.712997 189.230011 C 179.899994 189.596008 180 189.975006 180 190.363007 C 180 193.477005 173.731995 196 166 196 M 177.884995 184 C 176.945999 184 175.998001 184.229004 175.143005 184.662994 C 173.041 185.727997 169.623001 186.363007 166 186.363007 C 162.376999 186.363007 158.959 185.727997 156.856995 184.662994 C 156.001999 184.229004 155.054001 184 154.115005 184 C 151.835999 184 149.822006 185.272003 148.729004 187.403 C 148.244995 188.345001 148 189.341003 148 190.363007 C 148 196.984009 157.330994 200 166 200 C 174.669006 200 184 196.984009 184 190.363007 C 184 189.341003 183.755005 188.345001 183.270996 187.403 C 182.177994 185.272003 180.164001 184 177.884995 184"/>
</svg>
