<?xml version="1.0" encoding="UTF-8"?>
<!-- Generated by Pixelmator Pro 3.7.1 -->
<svg width="256" height="256" viewBox="0 0 256 256" xmlns="http://www.w3.org/2000/svg">
    <path id="Path" fill="#ffffff" stroke="none" d="M 228 144 C 228 152.821991 220.822006 160 212 160 L 44 160 C 35.177994 160 28 152.821991 28 144 L 28 52 L 228 52 Z M 228 48 L 28 48 C 25.791 48 24 49.791 24 52 L 24 144 C 24 155.04599 32.953995 164 44 164 L 212 164 C 223.046005 164 232 155.04599 232 144 L 232 52 C 232 49.791 230.209 48 228 48"/>
    <path id="path1" fill="#ffffff" stroke="none" d="M 216 204 L 50 204 L 40 204 L 40 180 L 216 180 Z M 216 176 L 40 176 C 37.791 176 36 177.791 36 180 L 36 208 L 220 208 L 220 180 C 220 177.791 218.209 176 216 176"/>
    <path id="path2" fill="#ffffff" stroke="none" d="M 52 200 L 52 196 L 48 196 L 48 200 L 44 200 L 50 204 L 56 200 Z"/>
    <path id="path3" fill="#ffffff" stroke="none" d="M 240 208 L 228 208 L 228 180 C 228 173.382996 222.617004 168 216 168 L 40 168 C 33.382996 168 28 173.382996 28 180 L 28 208 L 16 208 L 16 50.475998 C 16 48.712997 16.384995 46.979996 17.132996 45.384003 C 20.710007 37.744995 32.919006 16 56 16 C 84 16 72 24 92 24 C 112 24 108 16 128 16 C 148 16 144 24 164 24 C 184 24 172 16 200 16 C 223.080994 16 235.289993 37.744995 238.867004 45.384003 C 239.613998 46.979996 240 48.712997 240 50.475998 Z M 224 240 L 32 240 L 32 212 L 32 208 L 32 180 C 32 175.582001 35.582001 172 40 172 L 216 172 C 220.417999 172 224 175.582001 224 180 L 224 208 L 224 212 Z M 242.490005 43.688004 C 240.593994 39.638 236.393997 31.824005 229.578003 25 C 220.959991 16.373993 211.009003 12 200 12 C 184.794006 12 180.296997 14.255005 175.998001 17.203995 C 173.720001 18.766006 171.92099 20 164 20 C 154.944 20 151.627991 18.341995 147.789001 16.421997 C 143.643997 14.350006 138.944 12 128 12 C 117.056 12 112.357002 14.350006 108.210999 16.421997 C 104.371994 18.341995 101.056 20 92 20 C 84.078995 20 82.279999 18.766006 80.001999 17.203995 C 75.703003 14.255005 71.205994 12 56 12 C 44.990997 12 35.039993 16.373993 26.421997 25 C 19.606003 31.824005 15.406998 39.638 13.509995 43.688004 C 12.507996 45.828003 12 48.112 12 50.475998 L 12 208 L 12 212 L 16 212 L 28 212 L 28 240 L 28 244 L 32 244 L 224 244 L 228 244 L 228 240 L 228 212 L 240 212 L 244 212 L 244 208 L 244 50.475998 C 244 48.112 243.492004 45.828003 242.490005 43.688004"/>
</svg>
