<?xml version="1.0" encoding="UTF-8"?>
<!-- Generated by Pixelmator Pro 3.7.1 -->
<svg width="256" height="256" viewBox="0 0 256 256" xmlns="http://www.w3.org/2000/svg">
    <path id="Path" fill="#ffffff" stroke="none" d="M 184 8 L 72 8 C 58.765999 8 48 18.766006 48 32 L 48 224 C 48 237.233994 58.765999 248 72 248 L 174 248 C 192.748001 248 208 232.748001 208 214 L 208 32 C 208 18.766006 197.233994 8 184 8 M 184 12 C 195.046005 12 204 20.953995 204 32 L 204 214 C 204 230.569 190.569 244 174 244 L 72 244 C 60.954002 244 52 235.046005 52 224 L 52 32 C 52 20.953995 60.954002 12 72 12 Z"/>
    <path id="path1" fill="#ffffff" stroke="none" d="M 153.090897 172.936005 C 144.869904 172.936005 138.1819 179.623993 138.1819 187.845001 C 138.1819 196.065994 144.869904 202.753998 153.090897 202.753998 C 161.311905 202.753998 167.999893 196.065994 167.999893 187.845001 C 167.999893 179.623993 161.311905 172.936005 153.090897 172.936005 M 153.090897 176.936005 C 159.115906 176.936005 163.999893 181.820007 163.999893 187.845001 C 163.999893 193.869995 159.115906 198.753998 153.090897 198.753998 C 147.065903 198.753998 142.1819 193.869995 142.1819 187.845001 C 142.1819 181.820007 147.065903 176.936005 153.090897 176.936005"/>
    <path id="path2" fill="#ffffff" stroke="none" d="M 173.272705 147.845093 C 165.151703 147.845093 158.5457 154.452103 158.5457 162.572098 C 158.5457 170.6931 165.151703 177.30011 173.272705 177.30011 C 181.393707 177.30011 187.999695 170.6931 187.999695 162.572098 C 187.999695 154.452103 181.393707 147.845093 173.272705 147.845093 M 173.272705 151.845093 C 179.197693 151.845093 183.999695 156.648102 183.999695 162.572098 C 183.999695 168.497101 179.197693 173.30011 173.272705 173.30011 C 167.348694 173.30011 162.5457 168.497101 162.5457 162.572098 C 162.5457 156.648102 167.348694 151.845093 173.272705 151.845093"/>
    <path id="path3" fill="#ffffff" stroke="none" d="M 112 144 L 108 144 L 92 144 L 88 144 L 88 148 L 88 160 L 76 160 L 72 160 L 72 164 L 72 180 L 72 184 L 76 184 L 88 184 L 88 196 L 88 200 L 92 200 L 108 200 L 112 200 L 112 196 L 112 184 L 124 184 L 128 184 L 128 180 L 128 164 L 128 160 L 124 160 L 112 160 L 112 148 Z M 108 148 L 108 164 L 124 164 L 124 180 L 108 180 L 108 196 L 92 196 L 92 180 L 76 180 L 76 164 L 92 164 L 92 148 Z"/>
    <path id="path4" fill="#ffffff" stroke="none" d="M 180 28 L 76 28 C 71.588997 28 68 31.589005 68 36 L 68 124 C 68 128.411011 71.588997 132 76 132 L 180 132 C 184.410995 132 188 128.411011 188 124 L 188 36 C 188 31.589005 184.410995 28 180 28 M 180 32 C 182.209 32 184 33.791 184 36 L 184 124 C 184 126.209 182.209 128 180 128 L 76 128 C 73.791 128 72 126.209 72 124 L 72 36 C 72 33.791 73.791 32 76 32 Z"/>
</svg>
