<?xml version="1.0" encoding="UTF-8"?>
<!-- Generated by Pixelmator Pro 3.7.1 -->
<svg width="256" height="256" viewBox="0 0 256 256" xmlns="http://www.w3.org/2000/svg">
    <path id="Path" fill="#ffffff" stroke="none" d="M 72 72 L 116 72 C 116 78.626999 121.373001 84 128 84 C 134.626999 84 140 78.626999 140 72 L 184 72 L 184 184 L 72 184 Z M 184 188 L 188 188 L 188 184 L 188 72 L 188 68 L 184 68 L 140 68 L 136 68 L 136 72 C 136 76.410995 132.410995 80 128 80 C 123.589005 80 120 76.410995 120 72 L 120 68 L 116 68 L 72 68 L 68 68 L 68 72 L 68 184 L 68 188 L 72 188 Z"/>
    <path id="path1" fill="#ffffff" stroke="none" d="M 120 150 L 108 150 L 108 164 L 96 164 L 96 150 L 84 150 L 84 138 L 96 138 L 96 124 L 108 124 L 108 138 L 120 138 Z M 112 134 L 112 124 L 112 120 L 108 120 L 96 120 L 92 120 L 92 124 L 92 134 L 84 134 L 80 134 L 80 138 L 80 150 L 80 154 L 84 154 L 92 154 L 92 164 L 92 168 L 96 168 L 108 168 L 112 168 L 112 164 L 112 154 L 120 154 L 124 154 L 124 150 L 124 138 L 124 134 L 120 134 Z"/>
    <path id="path2" fill="#ffffff" stroke="none" d="M 162 144 C 156.477005 144 152 139.52301 152 134 C 152 128.47699 156.477005 124 162 124 C 167.522995 124 172 128.47699 172 134 C 172 139.52301 167.522995 144 162 144 M 146 164 C 140.477005 164 136 159.52301 136 154 C 136 148.47699 140.477005 144 146 144 C 151.522995 144 156 148.47699 156 154 C 156 159.52301 151.522995 164 146 164 M 162 120 C 154.279999 120 148 126.279999 148 134 C 148 136.341003 148.585007 138.54599 149.604996 140.488007 C 148.453003 140.179993 147.248001 140 146 140 C 138.279999 140 132 146.279999 132 154 C 132 161.720001 138.279999 168 146 168 C 153.720001 168 160 161.720001 160 154 C 160 151.658997 159.414993 149.45401 158.395004 147.511993 C 159.546997 147.820007 160.751999 148 162 148 C 169.720001 148 176 141.720001 176 134 C 176 126.279999 169.720001 120 162 120"/>
    <path id="path3" fill="#ffffff" stroke="none" d="M 208 208 L 48 208 L 48 48 L 208 48 Z M 208 44 L 48 44 L 44 44 L 44 48 L 44 208 L 44 212 L 48 212 L 208 212 L 212 212 L 212 208 L 212 48 L 212 44 Z"/>
</svg>
