<?xml version="1.0" encoding="UTF-8"?>
<!-- Generated by Pixelmator Pro 3.7.1 -->
<svg width="256" height="256" viewBox="0 0 256 256" xmlns="http://www.w3.org/2000/svg">
    <path id="Path" fill="#ffffff" stroke="none" d="M 244 216 L 16 216 L 16 64 L 33.451996 64 C 30.117996 66.934998 28 71.220001 28 76 L 28 176 C 28 184.821991 35.177994 192 44 192 L 216 192 C 224.822006 192 232 184.821991 232 176 L 232 76 C 232 71.220001 229.882004 66.934998 226.548004 64 L 244 64 Z M 236 244 L 228 244 L 228 224 L 236 224 Z M 224 224 L 224 244 L 216 244 L 216 220 L 224 220 Z M 208 244 L 200 244 L 200 220 L 208 220 Z M 192 244 L 184 244 L 184 220 L 192 220 Z M 176 244 L 168 244 L 168 220 L 176 220 Z M 160 244 L 152 244 L 152 220 L 160 220 Z M 144 244 L 136 244 L 136 220 L 144 220 Z M 128 244 L 120 244 L 120 220 L 128 220 Z M 112 244 L 104 244 L 104 220 L 112 220 Z M 96 244 L 88 244 L 88 220 L 96 220 Z M 80 244 L 72 244 L 72 220 L 80 220 Z M 64 244 L 56 244 L 56 220 L 64 220 Z M 48 244 L 40 244 L 40 220 L 48 220 Z M 32 244 L 24 244 L 24 224 L 32 224 Z M 216 60 L 44 60 C 43.917007 60 43.835999 60.011002 43.753998 60.013 L 57.108002 52 L 202.893005 52 L 216.246002 60.013 C 216.162994 60.011002 216.083008 60 216 60 M 44 64 L 216 64 C 222.626999 64 228 69.373001 228 76 L 228 176 C 228 182.626999 222.626999 188 216 188 L 44 188 C 37.373001 188 32 182.626999 32 176 L 32 76 C 32 69.373001 37.373001 64 44 64 M 16 40 L 36 40 L 56 28 L 204 28 L 224 40 L 244 40 L 244 60 L 224 60 L 204 48 L 56 48 L 36 60 L 16 60 Z M 16 12 L 244 12 L 244 36 L 240 36 L 236 36 L 225.108002 36 L 206.057999 24.570007 L 205.106995 24 L 204 24 L 56 24 L 54.891998 24 L 53.942001 24.570007 L 34.891998 36 L 24 36 L 20 36 L 16 36 Z M 244 8 L 16 8 L 12 8 L 12 12 L 12 60 L 12 64 L 12 216 L 12 220 L 16 220 L 20 220 L 20 224 L 20 244 L 20 248 L 24 248 L 32 248 L 36 248 L 40 248 L 48 248 L 52 248 L 56 248 L 64 248 L 68 248 L 72 248 L 80 248 L 84 248 L 88 248 L 96 248 L 100 248 L 104 248 L 112 248 L 116 248 L 120 248 L 128 248 L 132 248 L 136 248 L 144 248 L 148 248 L 152 248 L 160 248 L 164 248 L 168 248 L 176 248 L 180 248 L 184 248 L 192 248 L 196 248 L 200 248 L 208 248 L 212 248 L 216 248 L 224 248 L 228 248 L 236 248 L 240 248 L 240 244 L 240 224 L 240 220 L 244 220 L 248 220 L 248 216 L 248 64 L 248 60 L 248 12 L 248 8 Z"/>
    <path id="path1" fill="#ffffff" stroke="none" d="M 70 36 L 186 36 C 187.104004 36 188 35.104004 188 34 C 188 32.895996 187.104004 32 186 32 L 70 32 C 68.896004 32 68 32.895996 68 34 C 68 35.104004 68.896004 36 70 36"/>
    <path id="path2" fill="#ffffff" stroke="none" d="M 70 44 L 186 44 C 187.104004 44 188 43.104004 188 42 C 188 40.895996 187.104004 40 186 40 L 70 40 C 68.896004 40 68 40.895996 68 42 C 68 43.104004 68.896004 44 70 44"/>
</svg>
