<?xml version="1.0" encoding="UTF-8"?>
<!-- Generated by Pixelmator Pro 3.7.1 -->
<svg width="256" height="256" viewBox="0 0 256 256" xmlns="http://www.w3.org/2000/svg">
    <path id="Path" fill="#ffffff" stroke="none" d="M 196 144 L 190 144 C 188.895996 144 188 144.895996 188 146 C 188 147.104004 188.895996 148 190 148 L 196 148 L 196 152 L 190 152 C 188.895996 152 188 152.895996 188 154 C 188 155.104004 188.895996 156 190 156 L 196 156 L 196 160 L 190 160 C 188.895996 160 188 160.895996 188 162 C 188 163.104004 188.895996 164 190 164 L 196 164 L 196 168 L 190 168 C 188.895996 168 188 168.895996 188 170 C 188 171.104004 188.895996 172 190 172 L 196 172 L 196 176 L 190 176 C 188.895996 176 188 176.895996 188 178 C 188 179.104004 188.895996 180 190 180 L 196 180 L 196 184 L 190 184 C 188.895996 184 188 184.895996 188 186 C 188 187.104004 188.895996 188 190 188 L 196 188 L 196 192 L 190 192 C 188.895996 192 188 192.895996 188 194 C 188 195.104004 188.895996 196 190 196 L 196 196 L 196 200 L 190 200 C 188.895996 200 188 200.895996 188 202 C 188 203.104004 188.895996 204 190 204 L 196 204 L 196 208 L 188 208 C 185.791 208 184 209.791 184 212 L 184 232 L 72 232 L 72 212 C 72 209.791 70.209 208 68 208 L 60 208 L 60 204 L 66 204 C 67.104004 204 68 203.104004 68 202 C 68 200.895996 67.104004 200 66 200 L 60 200 L 60 196 L 66 196 C 67.104004 196 68 195.104004 68 194 C 68 192.895996 67.104004 192 66 192 L 60 192 L 60 188 L 66 188 C 67.104004 188 68 187.104004 68 186 C 68 184.895996 67.104004 184 66 184 L 60 184 L 60 180 L 66 180 C 67.104004 180 68 179.104004 68 178 C 68 176.895996 67.104004 176 66 176 L 60 176 L 60 172 L 66 172 C 67.104004 172 68 171.104004 68 170 C 68 168.895996 67.104004 168 66 168 L 60 168 L 60 164 L 66 164 C 67.104004 164 68 163.104004 68 162 C 68 160.895996 67.104004 160 66 160 L 60 160 L 60 156 L 66 156 C 67.104004 156 68 155.104004 68 154 C 68 152.895996 67.104004 152 66 152 L 60 152 L 60 148 L 66 148 C 67.104004 148 68 147.104004 68 146 C 68 144.895996 67.104004 144 66 144 L 60 144 L 60 16 C 60 13.791 61.791 12 64 12 L 192 12 C 194.209 12 196 13.791 196 16 Z M 196 224 C 196 235.04599 187.046005 244 176 244 L 168 244 L 168 236 L 184 236 C 186.209 236 188 234.209 188 232 L 188 212 L 196 212 Z M 160 236 L 164 236 L 164 244 L 160 244 Z M 152 236 L 156 236 L 156 244 L 152 244 Z M 144 236 L 148 236 L 148 244 L 144 244 Z M 136 236 L 140 236 L 140 244 L 136 244 Z M 128 236 L 132 236 L 132 244 L 128 244 Z M 120 236 L 124 236 L 124 244 L 120 244 Z M 112 236 L 116 236 L 116 244 L 112 244 Z M 104 236 L 108 236 L 108 244 L 104 244 Z M 96 236 L 100 236 L 100 244 L 96 244 Z M 80 244 C 68.954002 244 60 235.04599 60 224 L 60 212 L 68 212 L 68 232 C 68 234.209 69.791 236 72 236 L 92 236 L 92 244 Z M 192 8 L 64 8 C 59.589005 8 56 11.589005 56 16 L 56 224 C 56 237.233002 66.766998 248 80 248 L 176 248 C 189.233002 248 200 237.233002 200 224 L 200 16 C 200 11.589005 196.410995 8 192 8"/>
    <path id="path1" fill="#ffffff" stroke="none" d="M 184 132 C 184 134.209 182.209 136 180 136 L 76 136 C 73.791 136 72 134.209 72 132 L 72 28 C 72 25.791 73.791 24 76 24 L 180 24 C 182.209 24 184 25.791 184 28 Z M 180 20 L 76 20 C 71.588997 20 68 23.588989 68 28 L 68 132 C 68 136.411011 71.588997 140 76 140 L 180 140 C 184.410995 140 188 136.411011 188 132 L 188 28 C 188 23.588989 184.410995 20 180 20"/>
    <path id="path2" fill="#ffffff" stroke="none" d="M 172 124 L 84 124 L 84 36 L 172 36 Z M 84 32 L 80 32 L 80 36 L 80 124 L 80 128 L 84 128 L 172 128 L 176 128 L 176 124 L 176 36 L 176 32 L 172 32 Z"/>
    <path id="path3" fill="#ffffff" stroke="none" d="M 150 200 C 144.477997 200 140 195.522003 140 190 C 140 184.477997 144.477997 180 150 180 C 155.522003 180 160 184.477997 160 190 C 160 195.522003 155.522003 200 150 200 M 150 176 C 142.279999 176 136 182.279999 136 190 C 136 197.720001 142.279999 204 150 204 C 157.720001 204 164 197.720001 164 190 C 164 182.279999 157.720001 176 150 176"/>
    <path id="path4" fill="#ffffff" stroke="none" d="M 174 184 C 168.477997 184 164 179.522003 164 174 C 164 168.477997 168.477997 164 174 164 C 179.522003 164 184 168.477997 184 174 C 184 179.522003 179.522003 184 174 184 M 174 160 C 166.279999 160 160 166.279999 160 174 C 160 181.720001 166.279999 188 174 188 C 181.720001 188 188 181.720001 188 174 C 188 166.279999 181.720001 160 174 160"/>
    <path id="path5" fill="#ffffff" stroke="none" d="M 166 152 C 167.104004 152 168 151.104004 168 150 C 168 148.895996 167.104004 148 166 148 L 154 148 C 152.895996 148 152 148.895996 152 150 C 152 151.104004 152.895996 152 154 152 Z"/>
    <path id="path6" fill="#ffffff" stroke="none" d="M 144 150 C 144 148.895996 143.104004 148 142 148 L 130 148 C 128.895996 148 128 148.895996 128 150 C 128 151.104004 128.895996 152 130 152 L 142 152 C 143.104004 152 144 151.104004 144 150"/>
    <path id="path7" fill="#ffffff" stroke="none" d="M 112 190 C 108.686996 190 106 187.313004 106 184 C 106 180.686996 108.686996 178 112 178 C 115.313004 178 118 180.686996 118 184 C 118 187.313004 115.313004 190 112 190 M 98 204 C 94.686996 204 92 201.313004 92 198 C 92 194.686996 94.686996 192 98 192 C 101.313004 192 104 194.686996 104 198 C 104 201.313004 101.313004 204 98 204 M 84 190 C 80.686996 190 78 187.313004 78 184 C 78 180.686996 80.686996 178 84 178 C 87.313004 178 90 180.686996 90 184 C 90 187.313004 87.313004 190 84 190 M 104.076004 177.925003 C 102.779999 179.610001 102 181.713989 102 184 C 102 186.286011 102.779999 188.389999 104.076004 190.074997 C 102.389 188.778992 100.286003 188 98 188 C 95.714005 188 93.611 188.778992 91.923996 190.074997 C 93.220001 188.389999 94 186.286011 94 184 C 94 181.713989 93.220001 179.610001 91.923996 177.925003 C 93.611 179.221008 95.714005 180 98 180 C 100.286003 180 102.389 179.221008 104.076004 177.925003 M 98 164 C 101.313004 164 104 166.686996 104 170 C 104 173.313004 101.313004 176 98 176 C 94.686996 176 92 173.313004 92 170 C 92 166.686996 94.686996 164 98 164 M 112 174 C 109.713997 174 107.611 174.778992 105.923996 176.074997 C 107.220001 174.389999 108 172.285995 108 170 C 108 164.485992 103.514 160 98 160 C 92.486 160 88 164.485992 88 170 C 88 172.285995 88.779999 174.389999 90.076004 176.074997 C 88.389 174.778992 86.285995 174 84 174 C 78.486 174 74 178.485992 74 184 C 74 189.514008 78.486 194 84 194 C 86.285995 194 88.389 193.221008 90.076004 191.925003 C 88.779999 193.610001 88 195.714005 88 198 C 88 203.514008 92.486 208 98 208 C 103.514 208 108 203.514008 108 198 C 108 195.714005 107.220001 193.610001 105.923996 191.925003 C 107.611 193.221008 109.713997 194 112 194 C 117.514 194 122 189.514008 122 184 C 122 178.485992 117.514 174 112 174"/>
</svg>
