<?xml version="1.0" encoding="UTF-8"?>
<!-- Generated by Pixelmator Pro 3.7.1 -->
<svg width="256" height="256" viewBox="0 0 256 256" xmlns="http://www.w3.org/2000/svg">
    <path id="Path" fill="#ffffff" stroke="none" d="M 200 120 C 200 124.417999 196.417999 128 192 128 L 180 128 L 76 128 L 64 128 C 59.582001 128 56 124.417999 56 120 L 56 20 C 56 15.582001 59.582001 12 64 12 L 192 12 C 196.417999 12 200 15.582001 200 20 Z M 176 134 L 176 136 L 176 138 L 176 140 L 80 140 L 80 138 L 80 136 L 80 134 L 80 132 L 176 132 Z M 182 144 C 183.104004 144 184 144.895996 184 146 L 184 200 C 184 219.882004 167.882004 236 148 236 L 108 236 C 88.117996 236 72 219.882004 72 200 L 72 146 C 72 144.895996 72.896004 144 74 144 L 76 144 L 180 144 Z M 192 152 L 192 200 C 192 224.300995 172.300995 244 148 244 L 108 244 C 83.698997 244 64 224.300995 64 200 L 64 152 C 64 149.005005 65.649002 146.397003 68.085999 145.026001 C 68.033997 145.343994 68 145.667999 68 146 L 68 200 C 68 222.056 85.944 240 108 240 L 148 240 C 170.056 240 188 222.056 188 200 L 188 146 C 188 145.667999 187.966003 145.343994 187.914001 145.026001 C 190.350998 146.397003 192 149.005005 192 152 M 192 8 L 64 8 C 57.382996 8 52 13.382996 52 20 L 52 120 C 52 126.617004 57.382996 132 64 132 L 76 132 L 76 134 L 76 136 L 76 138 L 76 140 L 74 140 L 72 140 C 65.382996 140 60 145.382996 60 152 L 60 200 C 60 226.46701 81.532997 248 108 248 L 148 248 C 174.466995 248 196 226.46701 196 200 L 196 152 C 196 145.382996 190.617004 140 184 140 L 182 140 L 180 140 L 180 138 L 180 136 L 180 134 L 180 132 L 192 132 C 198.617004 132 204 126.617004 204 120 L 204 20 C 204 13.382996 198.617004 8 192 8"/>
    <path id="path1" fill="#ffffff" stroke="none" d="M 188 108 C 188 110.209 186.209 112 184 112 L 72 112 C 69.791 112 68 110.209 68 108 L 68 28 C 68 25.791 69.791 24 72 24 L 184 24 C 186.209 24 188 25.791 188 28 Z M 184 20 L 72 20 C 67.588997 20 64 23.588989 64 28 L 64 108 C 64 112.410995 67.588997 116 72 116 L 184 116 C 188.410995 116 192 112.410995 192 108 L 192 28 C 192 23.588989 188.410995 20 184 20"/>
    <path id="path2" fill="#ffffff" stroke="none" d="M 164 104 L 88 104 L 88 32 L 164 32 Z M 88 28 L 84 28 L 84 32 L 84 104 L 84 108 L 88 108 L 164 108 L 168 108 L 168 104 L 168 32 L 168 28 L 164 28 Z"/>
    <path id="path3" fill="#ffffff" stroke="none" d="M 104 192 L 104 188 L 108 188 Z M 84 188 L 88 188 L 88 192 Z M 88 168 L 88 172 L 84 172 Z M 100 184 L 100 192 C 100 194.209 98.209 196 96 196 C 93.791 196 92 194.209 92 192 L 92 184 L 84 184 C 81.791 184 80 182.209 80 180 C 80 177.791 81.791 176 84 176 L 92 176 L 92 168 C 92 165.791 93.791 164 96 164 C 98.209 164 100 165.791 100 168 L 100 176 L 108 176 C 110.209 176 112 177.791 112 180 C 112 182.209 110.209 184 108 184 Z M 108 172 L 104 172 L 104 168 Z M 104 162.343002 C 102.488998 160.832001 100.480003 160 98.343002 160 L 93.656998 160 C 91.520004 160 89.511002 160.832001 88 162.343002 L 78.343002 172 C 76.832001 173.511002 76 175.520004 76 177.656998 L 76 182.343002 C 76 184.480011 76.832001 186.488998 78.343002 188 L 88 197.656998 C 89.511002 199.167999 91.520004 200 93.656998 200 L 98.343002 200 C 100.480003 200 102.488998 199.167999 104 197.656998 L 113.656998 188 C 115.167999 186.488998 116 184.480011 116 182.343002 L 116 177.656998 C 116 175.520004 115.167999 173.511002 113.656998 172 Z"/>
    <path id="path4" fill="#ffffff" stroke="none" d="M 140 196 C 135.582001 196 132 192.417999 132 188 C 132 183.582001 135.582001 180 140 180 C 144.417999 180 148 183.582001 148 188 C 148 192.417999 144.417999 196 140 196 M 140 176 C 133.382996 176 128 181.382996 128 188 C 128 194.617004 133.382996 200 140 200 C 146.617004 200 152 194.617004 152 188 C 152 181.382996 146.617004 176 140 176"/>
    <path id="path5" fill="#ffffff" stroke="none" d="M 164 184 C 159.582001 184 156 180.417999 156 176 C 156 171.582001 159.582001 168 164 168 C 168.417999 168 172 171.582001 172 176 C 172 180.417999 168.417999 184 164 184 M 164 164 C 157.382996 164 152 169.382996 152 176 C 152 182.617004 157.382996 188 164 188 C 170.617004 188 176 182.617004 176 176 C 176 169.382996 170.617004 164 164 164"/>
    <path id="path6" fill="#ffffff" stroke="none" d="M 150 156 L 162 156 C 163.104004 156 164 155.104004 164 154 C 164 152.895996 163.104004 152 162 152 L 150 152 C 148.895996 152 148 152.895996 148 154 C 148 155.104004 148.895996 156 150 156"/>
    <path id="path7" fill="#ffffff" stroke="none" d="M 130 156 L 142 156 C 143.104004 156 144 155.104004 144 154 C 144 152.895996 143.104004 152 142 152 L 130 152 C 128.895996 152 128 152.895996 128 154 C 128 155.104004 128.895996 156 130 156"/>
</svg>
