<?xml version="1.0" encoding="UTF-8"?>
<!-- Generated by Pixelmator Pro 3.7.1 -->
<svg width="256" height="256" viewBox="0 0 256 256" xmlns="http://www.w3.org/2000/svg">
    <path id="Path" fill="#ffffff" stroke="none" d="M 224 96 L 224 212 L 220 212 L 216 212 L 206.147995 212 L 205.852005 212 L 198.147995 212 L 197.852005 212 L 190.147995 212 L 189.852005 212 L 182.147995 212 L 181.852005 212 L 174.147995 212 L 173.852005 212 L 166.147995 212 L 165.852005 212 L 158.14801 212 L 157.85199 212 L 150.14801 212 L 149.85199 212 L 142.14801 212 L 141.85199 212 L 134.14801 212 L 133.85199 212 L 126.148003 212 L 125.851997 212 L 118.148003 212 L 117.851997 212 L 110.148003 212 L 109.851997 212 L 102.148003 212 L 101.851997 212 L 94.147995 212 L 93.852005 212 L 86.147995 212 L 85.852005 212 L 78.147995 212 L 77.852005 212 L 70.147995 212 L 69.852005 212 L 62.147995 212 L 61.852005 212 L 54.147995 212 L 53.852005 212 L 46.147995 212 L 45.852005 212 L 40 212 L 36 212 L 32 212 L 32 96 L 32 20 C 32 15.582001 74.981003 12 128 12 C 181.018997 12 224 15.582001 224 20 Z M 216 238 C 216 239.104996 215.104996 240 214 240 L 42 240 C 40.895004 240 40 239.104996 40 238 L 40 216 L 44 216 L 44 234.147995 C 44 235.171005 44.828995 236 45.852005 236 L 46.147995 236 C 47.171005 236 48 235.171005 48 234.147995 L 48 216 L 52 216 L 52 234.147995 C 52 235.171005 52.828995 236 53.852005 236 L 54.147995 236 C 55.171005 236 56 235.171005 56 234.147995 L 56 216 L 60 216 L 60 234.147995 C 60 235.171005 60.828995 236 61.852005 236 L 62.147995 236 C 63.171005 236 64 235.171005 64 234.147995 L 64 216 L 68 216 L 68 234.147995 C 68 235.171005 68.828995 236 69.852005 236 L 70.147995 236 C 71.171005 236 72 235.171005 72 234.147995 L 72 216 L 76 216 L 76 234.147995 C 76 235.171005 76.828995 236 77.852005 236 L 78.147995 236 C 79.171005 236 80 235.171005 80 234.147995 L 80 216 L 84 216 L 84 234.147995 C 84 235.171005 84.828995 236 85.852005 236 L 86.147995 236 C 87.171005 236 88 235.171005 88 234.147995 L 88 216 L 92 216 L 92 234.147995 C 92 235.171005 92.828995 236 93.852005 236 L 94.147995 236 C 95.171005 236 96 235.171005 96 234.147995 L 96 216 L 100 216 L 100 234.147995 C 100 235.171005 100.829002 236 101.851997 236 L 102.148003 236 C 103.170998 236 104 235.171005 104 234.147995 L 104 216 L 108 216 L 108 234.147995 C 108 235.171005 108.829002 236 109.851997 236 L 110.148003 236 C 111.170998 236 112 235.171005 112 234.147995 L 112 216 L 116 216 L 116 234.147995 C 116 235.171005 116.829002 236 117.851997 236 L 118.148003 236 C 119.170998 236 120 235.171005 120 234.147995 L 120 216 L 124 216 L 124 234.147995 C 124 235.171005 124.829002 236 125.851997 236 L 126.148003 236 C 127.170998 236 128 235.171005 128 234.147995 L 128 216 L 132 216 L 132 234.147995 C 132 235.171005 132.82901 236 133.85199 236 L 134.14801 236 C 135.17099 236 136 235.171005 136 234.147995 L 136 216 L 140 216 L 140 234.147995 C 140 235.171005 140.82901 236 141.85199 236 L 142.14801 236 C 143.17099 236 144 235.171005 144 234.147995 L 144 216 L 148 216 L 148 234.147995 C 148 235.171005 148.82901 236 149.85199 236 L 150.14801 236 C 151.17099 236 152 235.171005 152 234.147995 L 152 216 L 156 216 L 156 234.147995 C 156 235.171005 156.82901 236 157.85199 236 L 158.14801 236 C 159.17099 236 160 235.171005 160 234.147995 L 160 216 L 164 216 L 164 234.147995 C 164 235.171005 164.828995 236 165.852005 236 L 166.147995 236 C 167.171005 236 168 235.171005 168 234.147995 L 168 216 L 172 216 L 172 234.147995 C 172 235.171005 172.828995 236 173.852005 236 L 174.147995 236 C 175.171005 236 176 235.171005 176 234.147995 L 176 216 L 180 216 L 180 234.147995 C 180 235.171005 180.828995 236 181.852005 236 L 182.147995 236 C 183.171005 236 184 235.171005 184 234.147995 L 184 216 L 188 216 L 188 234.147995 C 188 235.171005 188.828995 236 189.852005 236 L 190.147995 236 C 191.171005 236 192 235.171005 192 234.147995 L 192 216 L 196 216 L 196 234.147995 C 196 235.171005 196.828995 236 197.852005 236 L 198.147995 236 C 199.171005 236 200 235.171005 200 234.147995 L 200 216 L 204 216 L 204 234.147995 C 204 235.171005 204.828995 236 205.852005 236 L 206.147995 236 C 207.171005 236 208 235.171005 208 234.147995 L 208 216 L 216 216 Z M 217.229004 12.960999 C 212.248993 11.980011 205.177994 11.104004 196.214005 10.356995 C 177.975998 8.837006 153.75 8 128 8 C 102.25 8 78.024002 8.837006 59.785995 10.356995 C 50.822006 11.104004 43.751007 11.980011 38.770996 12.960999 C 33.320999 14.035004 28 15.462997 28 20 L 28 212 L 28 216 L 32 216 L 36 216 L 36 238 C 36 241.307999 38.692001 244 42 244 L 214 244 C 217.307999 244 220 241.307999 220 238 L 220 216 L 224 216 L 228 216 L 228 212 L 228 20 C 228 15.462997 222.679001 14.035004 217.229004 12.960999"/>
    <path id="path1" fill="#ffffff" stroke="none" d="M 132 34.843597 C 106.223999 34.843597 81.969002 35.891602 63.703003 37.793594 C 57.556 38.434601 52.316002 39.152603 48 39.9366 L 48 43.999603 C 64.375 40.924606 95.852005 38.843597 132 38.843597 C 162.932007 38.843597 190.442993 40.367599 208 42.734604 L 208 38.701599 C 205.606003 38.385605 203.050995 38.080597 200.296997 37.793594 C 182.031006 35.891602 157.776001 34.843597 132 34.843597"/>
    <path id="path2" fill="#ffffff" stroke="none" d="M 132 22.843597 C 106.223999 22.843597 81.969002 23.891602 63.703003 25.793594 C 57.556 26.434601 52.316002 27.152603 48 27.9366 L 48 31.999603 C 64.375 28.924606 95.852005 26.843597 132 26.843597 C 162.932007 26.843597 190.442993 28.367599 208 30.734604 L 208 26.701599 C 205.606003 26.385605 203.050995 26.080597 200.296997 25.793594 C 182.031006 23.891602 157.776001 22.843597 132 22.843597"/>
    <path id="path3" fill="#ffffff" stroke="none" d="M 40 92 C 42.209 92 44 93.791 44 96 C 44 98.209 42.209 100 40 100 C 37.791 100 36 98.209 36 96 C 36 93.791 37.791 92 40 92 M 40 104 C 44.410999 104 48 100.410995 48 96 C 48 91.589005 44.410999 88 40 88 C 35.589001 88 32 91.589005 32 96 C 32 100.410995 35.589001 104 40 104"/>
    <path id="path4" fill="#ffffff" stroke="none" d="M 216 100 C 213.791 100 212 98.209 212 96 C 212 93.791 213.791 92 216 92 C 218.209 92 220 93.791 220 96 C 220 98.209 218.209 100 216 100 M 216 88 C 211.589005 88 208 91.589005 208 96 C 208 100.410995 211.589005 104 216 104 C 220.410995 104 224 100.410995 224 96 C 224 91.589005 220.410995 88 216 88"/>
    <path id="path5" fill="#ffffff" stroke="none" d="M 52 56 L 80 56 L 204 56 L 204 164 L 204 188 L 52 188 Z M 51.797001 192 L 204.203003 192 C 206.300003 192 208 190.300003 208 188.203003 L 208 164 L 208 96 L 208 55.796997 L 208 55.748993 C 208 53.677994 206.322006 52 204.251007 52 L 204.203003 52 L 80 52 L 51.797001 52 C 49.700001 52 48 53.699997 48 55.796997 L 48 96 L 48 188.203003 C 48 190.300003 49.700001 192 51.797001 192"/>
</svg>
