<?xml version="1.0" encoding="UTF-8"?>
<!-- Generated by Pixelmator Pro 3.7.1 -->
<svg width="256" height="256" viewBox="0 0 256 256" xmlns="http://www.w3.org/2000/svg">
    <path id="Path" fill="#ffffff" stroke="none" d="M 204 216 C 204 231.464005 191.464005 244 176 244 L 80 244 C 64.535995 244 52 231.464005 52 216 L 52 146.440002 C 52 142.559998 52.667007 138.718994 53.862 135.027008 C 60.742004 113.783997 55.694 89.582001 53.188995 80.106995 C 52.397003 77.112 52 74.031998 52 70.934006 L 52 32.268005 C 52 21.074005 61.074997 12 72.268005 12 L 183.731995 12 C 194.925995 12 204 21.074005 204 32.268005 L 204 70.934006 C 204 74.031998 203.602997 77.112 202.811005 80.106995 C 200.306 89.582001 195.257996 113.783997 202.138 135.027008 C 203.332993 138.718994 204 142.559998 204 146.440002 Z M 52 112 C 52 107.483002 52.639999 103.283997 53.729004 99.682999 C 54.485001 106.906998 54.673996 115.169006 53.460007 123.419006 C 52.533005 120.024002 52 116.141998 52 112 M 205 112 C 205 117.035004 204.210999 121.686005 202.884003 125.541992 C 201.145996 115.748001 201.498001 105.811996 202.522995 97.492996 C 204.065994 101.52301 205 106.531006 205 112 M 203.669998 129.341003 L 204.177994 130.356995 C 206.572006 125.609009 208 119.22699 208 112 C 208 103.938995 206.227005 96.925995 203.313004 92.067001 C 204.095001 87.412003 205.007996 83.535995 205.710999 80.873993 C 206.565994 77.639999 207 74.296005 207 70.934006 L 207 32.268005 C 207 19.438004 196.561996 9 183.731995 9 L 72.268005 9 C 59.438004 9 49 19.438004 49 32.268005 L 49 70.934006 C 49 74.296005 49.434006 77.639999 50.289001 80.873993 C 51.061996 83.798996 52.087997 88.186996 52.914001 93.468002 C 50.464996 98.231995 49 104.681 49 112 C 49 118.714996 50.244003 124.681 52.337997 129.303009 C 51.957001 130.916 51.520996 132.518997 51.007996 134.102997 C 49.675995 138.21701 49 142.367996 49 146.440002 L 49 216 C 49 233.093002 62.906998 247 80 247 L 176 247 C 193.093002 247 207 233.093002 207 216 L 207 146.440002 C 207 142.367996 206.324005 138.21701 204.992004 134.102997 C 204.483002 132.531006 204.050003 130.940002 203.669998 129.341003"/>
    <path id="path1" fill="#ffffff" stroke="none" d="M 72 44 C 72 39.582001 75.582001 36 80 36 L 176 36 C 180.417999 36 184 39.582001 184 44 L 184 108 C 184 119.04599 175.04599 128 164 128 L 92 128 C 80.954002 128 72 119.04599 72 108 Z M 92 131 L 164 131 C 176.682007 131 187 120.682007 187 108 L 187 44 C 187 37.934998 182.065002 33 176 33 L 80 33 C 73.934998 33 69 37.934998 69 44 L 69 108 C 69 120.682007 79.318001 131 92 131"/>
    <path id="path2" fill="#ffffff" stroke="none" d="M 92 48 L 164 48 L 164 116 L 92 116 Z M 164 119 L 167 119 L 167 116 L 167 48 L 167 45 L 164 45 L 92 45 L 89 45 L 89 48 L 89 116 L 89 119 L 92 119 Z"/>
    <path id="path3" fill="#ffffff" stroke="none" d="M 156 158 C 156 163.52301 151.522995 168 146 168 C 140.477005 168 136 163.52301 136 158 C 136 152.47699 140.477005 148 146 148 C 151.522995 148 156 152.47699 156 158 M 133 158 C 133 165.167999 138.832001 171 146 171 C 153.167999 171 159 165.167999 159 158 C 159 150.832001 153.167999 145 146 145 C 138.832001 145 133 150.832001 133 158"/>
    <path id="path4" fill="#ffffff" stroke="none" d="M 188 154 C 188 159.52301 183.522995 164 178 164 C 172.477005 164 168 159.52301 168 154 C 168 148.47699 172.477005 144 178 144 C 183.522995 144 188 148.47699 188 154 M 165 154 C 165 161.167999 170.832001 167 178 167 C 185.167999 167 191 161.167999 191 154 C 191 146.832001 185.167999 141 178 141 C 170.832001 141 165 146.832001 165 154"/>
    <path id="path5" fill="#ffffff" stroke="none" d="M 117.9226 166.768204 C 117.904602 166.861206 117.871597 166.947205 117.846603 167.038208 C 117.806602 167.188202 117.766602 167.337189 117.709602 167.479202 C 117.664597 167.591202 117.606598 167.69519 117.552597 167.8022 C 117.497597 167.90921 117.444603 168.017197 117.3806 168.119202 C 117.305603 168.23819 117.220596 168.348206 117.133598 168.459198 C 117.0746 168.532196 117.0186 168.606201 116.954597 168.675201 C 116.846603 168.794189 116.731598 168.903198 116.610603 169.008209 C 116.557602 169.054199 116.504601 169.098206 116.4496 169.141205 C 116.307602 169.252197 116.159599 169.352203 116.003601 169.443207 C 115.9636 169.466202 115.9216 169.48819 115.8806 169.510193 C 115.704597 169.604202 115.524597 169.687195 115.334602 169.755203 C 115.3106 169.763199 115.285599 169.769196 115.261597 169.777191 C 115.052597 169.847198 114.8396 169.903198 114.6166 169.938202 C 114.6166 169.938202 114.6166 169.938202 114.6166 169.938202 C 114.414597 169.969208 114.211601 170.000198 113.999603 170.000198 L 111.538597 170.000198 L 105.999603 170.000198 C 103.790604 170.000198 101.999603 168.209198 101.999603 166.000198 C 101.999603 163.791199 103.790604 162.000198 105.999603 162.000198 L 111.538597 162.000198 L 113.999603 162.000198 C 114.211601 162.000198 114.414597 162.030197 114.6166 162.062195 C 114.6166 162.062195 114.6166 162.062195 114.6166 162.062195 C 114.8396 162.097198 115.052597 162.153198 115.261597 162.222198 C 115.285599 162.230194 115.3106 162.237198 115.334602 162.245209 C 115.524597 162.313202 115.704597 162.395203 115.8806 162.490204 C 115.9216 162.512207 115.9636 162.533203 116.003601 162.55719 C 116.159599 162.648193 116.307602 162.748199 116.4496 162.859192 C 116.504601 162.902191 116.557602 162.946198 116.609596 162.991211 C 116.731598 163.097198 116.846603 163.206207 116.954597 163.325195 C 117.0186 163.394196 117.0746 163.467194 117.133598 163.541199 C 117.220596 163.651199 117.305603 163.7612 117.3806 163.881195 C 117.444603 163.9832 117.497597 164.09021 117.552597 164.198196 C 117.606598 164.305206 117.664597 164.408203 117.709602 164.520203 C 117.766602 164.663208 117.806602 164.812195 117.846603 164.962189 C 117.871597 165.053192 117.904602 165.139191 117.9226 165.232208 C 117.971603 165.480194 117.999603 165.736206 117.999603 166.000198 C 117.999603 166.263199 117.971603 166.519196 117.9226 166.768204 M 101.999603 182.107208 L 101.999603 178.000198 C 101.999603 173.589203 98.411598 170.000198 93.999603 170.000198 C 89.5886 170.000198 85.999603 173.589203 85.999603 178.000198 L 85.999603 182.107208 C 82.490601 180.360199 79.639603 177.509201 77.8936 174.000198 L 81.999603 174.000198 C 86.411598 174.000198 89.999603 170.411194 89.999603 166.000198 C 89.999603 161.589203 86.411598 158.000198 81.999603 158.000198 L 77.8936 158.000198 C 79.639603 154.491211 82.490601 151.640198 85.999603 149.893204 L 85.999603 154.000198 C 85.999603 158.411194 89.5886 162.000198 93.999603 162.000198 C 98.411598 162.000198 101.999603 158.411194 101.999603 154.000198 L 101.999603 149.893204 C 105.508598 151.640198 108.360603 154.491211 110.106598 158.000198 L 105.999603 158.000198 C 101.5886 158.000198 97.999603 161.589203 97.999603 166.000198 C 97.999603 170.411194 101.5886 174.000198 105.999603 174.000198 L 110.106598 174.000198 C 108.360603 177.509201 105.508598 180.360199 101.999603 182.107208 M 97.999603 183.538208 L 97.999603 186.000198 C 97.999603 186.211212 97.969604 186.4142 97.937599 186.617203 C 97.937599 186.617203 97.937599 186.617203 97.937599 186.617203 C 97.902603 186.839203 97.847603 187.0522 97.777603 187.2612 C 97.7696 187.285202 97.763603 187.310211 97.754601 187.334198 C 97.687599 187.5242 97.604599 187.7052 97.509598 187.880203 C 97.487602 187.922211 97.466599 187.963196 97.443604 188.003204 C 97.351601 188.160202 97.251602 188.308197 97.140602 188.450195 C 97.098602 188.505203 97.053604 188.55719 97.008598 188.610199 C 96.903603 188.731201 96.794601 188.847198 96.675598 188.9552 C 96.605598 189.018204 96.5326 189.075195 96.458603 189.133209 C 96.348602 189.2202 96.238602 189.305206 96.118599 189.381195 C 96.017601 189.44519 95.909599 189.497192 95.802597 189.5522 C 95.695602 189.607208 95.591599 189.665192 95.479599 189.710205 C 95.337601 189.767212 95.188599 189.806198 95.038597 189.846191 C 94.947601 189.871201 94.861603 189.904205 94.767601 189.922211 C 94.5196 189.971191 94.263603 190.000198 93.999603 190.000198 C 93.736603 190.000198 93.480598 189.971191 93.231598 189.922211 C 93.138603 189.904205 93.051598 189.871201 92.961601 189.846191 C 92.8116 189.806198 92.662598 189.767212 92.520599 189.710205 C 92.4086 189.665192 92.304604 189.607208 92.197601 189.5522 C 92.090599 189.497192 91.982597 189.44519 91.881599 189.381195 C 91.761604 189.305206 91.651604 189.2202 91.541603 189.133209 C 91.467598 189.075195 91.3936 189.018204 91.3246 188.9552 C 91.205605 188.847198 91.096603 188.731201 90.9916 188.610199 C 90.945602 188.55719 90.901604 188.505203 90.859604 188.450195 C 90.748604 188.308197 90.647598 188.160202 90.556602 188.003204 C 90.5336 187.963196 90.511604 187.922211 90.489601 187.880203 C 90.395599 187.7052 90.312599 187.5242 90.245598 187.334198 C 90.236603 187.310211 90.230598 187.285202 90.222603 187.2612 C 90.152603 187.0522 90.096603 186.839203 90.062599 186.617203 C 90.062599 186.617203 90.062599 186.617203 90.062599 186.617203 C 90.030602 186.4142 89.999603 186.211212 89.999603 186.000198 L 89.999603 183.538208 L 89.999603 178.000198 C 89.999603 175.791199 91.790604 174.000198 93.999603 174.000198 C 96.209602 174.000198 97.999603 175.791199 97.999603 178.000198 Z M 73.999603 170.000198 C 73.788605 170.000198 73.585602 169.969208 73.383598 169.938202 C 73.383598 169.938202 73.382599 169.938202 73.382599 169.938202 C 73.160599 169.903198 72.947601 169.847198 72.738602 169.777191 C 72.7146 169.769196 72.689598 169.763199 72.665604 169.755203 C 72.475601 169.687195 72.295601 169.604202 72.119598 169.510193 C 72.077599 169.48819 72.036598 169.466202 71.996605 169.443207 C 71.8396 169.352203 71.692604 169.252197 71.550598 169.141205 C 71.495605 169.098206 71.442604 169.054199 71.389603 169.008209 C 71.2686 168.903198 71.152603 168.794189 71.044601 168.675201 C 70.981598 168.606201 70.924599 168.532196 70.8666 168.459198 C 70.779602 168.348206 70.694603 168.23819 70.619598 168.119202 C 70.554604 168.017197 70.502602 167.90921 70.447601 167.8022 C 70.392601 167.69519 70.334602 167.591202 70.290604 167.479202 C 70.232605 167.337189 70.193604 167.188202 70.153603 167.038208 C 70.128601 166.947205 70.095604 166.861206 70.077599 166.768204 C 70.028603 166.519196 69.999603 166.263199 69.999603 166.000198 C 69.999603 165.736206 70.028603 165.480194 70.077599 165.232208 C 70.095604 165.139191 70.128601 165.053192 70.153603 164.962189 C 70.193604 164.812195 70.232605 164.663208 70.290604 164.520203 C 70.334602 164.408203 70.392601 164.305206 70.447601 164.198196 C 70.502602 164.09021 70.554604 163.9832 70.619598 163.881195 C 70.694603 163.7612 70.779602 163.651199 70.8666 163.541199 C 70.924599 163.467194 70.981598 163.394196 71.044601 163.325195 C 71.152603 163.206207 71.2686 163.097198 71.389603 162.991211 C 71.442604 162.946198 71.495605 162.902191 71.549599 162.859192 C 71.692604 162.748199 71.8396 162.648193 71.996605 162.55719 C 72.036598 162.533203 72.077599 162.512207 72.119598 162.490204 C 72.294601 162.395203 72.475601 162.313202 72.665604 162.245209 C 72.689598 162.237198 72.7146 162.230194 72.738602 162.222198 C 72.947601 162.153198 73.160599 162.097198 73.382599 162.062195 C 73.382599 162.062195 73.383598 162.062195 73.383598 162.062195 C 73.585602 162.030197 73.788605 162.000198 73.999603 162.000198 L 76.461601 162.000198 L 81.999603 162.000198 C 84.209602 162.000198 85.999603 163.791199 85.999603 166.000198 C 85.999603 168.209198 84.209602 170.000198 81.999603 170.000198 L 76.461601 170.000198 Z M 89.999603 148.461212 L 89.999603 146.000198 C 89.999603 145.7892 90.030602 145.585205 90.062599 145.383209 C 90.062599 145.383209 90.062599 145.383209 90.062599 145.383209 C 90.096603 145.160202 90.152603 144.947205 90.222603 144.73819 C 90.230598 144.714203 90.236603 144.690201 90.245598 144.666199 C 90.312599 144.475204 90.395599 144.295197 90.490601 144.119202 C 90.511604 144.078201 90.5336 144.037201 90.556602 143.996201 C 90.647598 143.84021 90.748604 143.6922 90.859604 143.550201 C 90.901604 143.495209 90.945602 143.4422 90.9916 143.390198 C 91.096603 143.268204 91.205605 143.153198 91.3246 143.045197 C 91.3936 142.982208 91.467598 142.925201 91.540604 142.867203 C 91.651604 142.780197 91.761604 142.694199 91.881599 142.619202 C 91.982597 142.555206 92.090599 142.502197 92.197601 142.447205 C 92.304604 142.393204 92.4086 142.335205 92.520599 142.290192 C 92.662598 142.2332 92.812599 142.194199 92.962601 142.153198 C 93.052597 142.129211 93.138603 142.0952 93.231598 142.077209 C 93.480598 142.028198 93.736603 142.000198 93.999603 142.000198 C 94.263603 142.000198 94.5196 142.028198 94.7686 142.077209 C 94.860603 142.0952 94.947601 142.129211 95.037598 142.153198 C 95.187599 142.194199 95.337601 142.2332 95.479599 142.290192 C 95.591599 142.335205 95.695602 142.393204 95.801598 142.447205 C 95.909599 142.502197 96.017601 142.555206 96.118599 142.619202 C 96.238602 142.694199 96.348602 142.780197 96.458603 142.867203 C 96.5326 142.925201 96.605598 142.982208 96.674599 143.045197 C 96.794601 143.153198 96.903603 143.268204 97.008598 143.390198 C 97.053604 143.4422 97.098602 143.495209 97.140602 143.550201 C 97.251602 143.6922 97.351601 143.84021 97.443604 143.996201 C 97.466599 144.037201 97.487602 144.078201 97.509598 144.119202 C 97.604599 144.295197 97.687599 144.475204 97.754601 144.666199 C 97.763603 144.690201 97.7696 144.714203 97.777603 144.73819 C 97.847603 144.947205 97.902603 145.160202 97.937599 145.383209 C 97.937599 145.383209 97.937599 145.383209 97.937599 145.383209 C 97.969604 145.585205 97.999603 145.7892 97.999603 146.000198 L 97.999603 148.461212 L 97.999603 154.000198 C 97.999603 156.209198 96.209602 158.000198 93.999603 158.000198 C 91.790604 158.000198 89.999603 156.209198 89.999603 154.000198 Z M 113.999603 158.000198 L 113.4076 158.000198 C 111.275597 152.847198 107.153603 148.724197 101.999603 146.592194 L 101.999603 146.000198 C 101.999603 141.589203 98.411598 138.000198 93.999603 138.000198 C 89.5886 138.000198 85.999603 141.589203 85.999603 146.000198 L 85.999603 146.592194 C 80.846603 148.724197 76.723602 152.847198 74.591599 158.000198 L 73.999603 158.000198 C 69.5886 158.000198 65.999603 161.589203 65.999603 166.000198 C 65.999603 170.411194 69.5886 174.000198 73.999603 174.000198 L 74.591599 174.000198 C 76.723602 179.153198 80.846603 183.276199 85.999603 185.408203 L 85.999603 186.000198 C 85.999603 190.411194 89.5886 194.000198 93.999603 194.000198 C 98.411598 194.000198 101.999603 190.411194 101.999603 186.000198 L 101.999603 185.408203 C 107.153603 183.276199 111.275597 179.153198 113.4076 174.000198 L 113.999603 174.000198 C 118.411598 174.000198 121.999603 170.411194 121.999603 166.000198 C 121.999603 161.589203 118.411598 158.000198 113.999603 158.000198"/>
    <path id="path6" fill="#ffffff" stroke="none" d="M 188.600204 188.485703 L 168.520203 191.354706 C 168.329193 191.381699 168.139206 191.394699 167.952194 191.394699 C 165.806198 191.394699 164.000198 189.650696 164.000198 187.434692 C 164.000198 185.463699 165.449203 183.792694 167.400192 183.514709 L 187.480194 180.645691 C 187.671204 180.618698 187.861206 180.605698 188.048203 180.605698 C 190.194199 180.604706 192.000198 182.348694 192.000198 184.565704 C 192.000198 186.536697 190.551193 188.206696 188.600204 188.485703 M 156.000198 191.999695 L 136.000198 191.999695 C 133.800201 191.999695 132.000198 190.199707 132.000198 187.999695 C 132.000198 185.799698 133.800201 183.999695 136.000198 183.999695 L 156.000198 183.999695 C 158.200195 183.999695 160.000198 185.799698 160.000198 187.999695 C 160.000198 190.199707 158.200195 191.999695 156.000198 191.999695 M 188.048203 177.605698 L 188.048203 177.605698 C 187.718201 177.605698 187.384201 177.628693 187.056198 177.67569 L 166.975204 180.544708 C 164.735199 180.8647 162.864197 182.25769 161.840195 184.150696 C 160.586197 182.2547 158.438202 180.999695 156.000198 180.999695 L 136.000198 180.999695 C 132.140198 180.999695 129.000198 184.140701 129.000198 187.999695 C 129.000198 191.859711 132.140198 194.999695 136.000198 194.999695 L 156.000198 194.999695 C 158.668198 194.999695 160.991196 193.497696 162.172195 191.2957 C 163.420197 193.162704 165.545197 194.394699 167.952194 194.394699 C 168.282196 194.394699 168.615204 194.370697 168.944199 194.324707 L 189.0242 191.455704 C 192.431198 190.968689 195.000198 188.006699 195.000198 184.565704 C 195.000198 180.727692 191.881195 177.605698 188.048203 177.605698"/>
    <path id="path7" fill="#ffffff" stroke="none" d="M 180.998093 213.177704 L 172.576096 230.022705 C 171.970093 231.234695 170.731094 231.999695 169.376099 231.999695 C 166.716095 231.999695 164.986099 229.200699 166.176102 226.822693 L 174.598099 209.977692 C 175.204102 208.765701 176.4431 207.999695 177.798096 207.999695 C 180.458099 207.999695 182.187103 210.798706 180.998093 213.177704 M 158.782104 230.022705 C 158.176102 231.234695 156.937103 231.999695 155.582092 231.999695 C 152.923096 231.999695 151.1931 229.200699 152.382095 226.822693 L 160.805099 209.977692 C 161.411102 208.765701 162.649094 207.999695 164.005096 207.999695 C 166.664093 207.999695 168.394104 210.798706 167.205093 213.177704 Z M 144.989105 230.022705 C 144.383102 231.234695 143.144104 231.999695 141.789093 231.999695 C 139.129105 231.999695 137.399094 229.200699 138.589096 226.822693 L 147.011093 209.977692 C 147.617096 208.765701 148.856094 207.999695 150.211105 207.999695 L 150.211105 207.999695 C 152.871094 207.999695 154.600098 210.798706 153.411102 213.177704 Z M 136.000092 215.999695 C 133.791092 215.999695 132.000092 214.208694 132.000092 211.999695 C 132.000092 209.790695 133.791092 207.999695 136.000092 207.999695 C 138.209091 207.999695 140.000092 209.790695 140.000092 211.999695 C 140.000092 214.208694 138.209091 215.999695 136.000092 215.999695 M 177.798096 204.999695 C 175.2901 204.999695 173.036102 206.393707 171.9151 208.635696 L 170.5811 211.302704 C 170.535095 210.196701 170.207092 209.102692 169.600098 208.119705 C 168.393097 206.166702 166.301102 204.999695 164.005096 204.999695 C 161.497101 204.999695 159.243103 206.393707 158.121094 208.635696 L 156.788101 211.302704 C 156.742096 210.196701 156.414093 209.102692 155.806107 208.119705 C 154.599106 206.166702 152.507095 204.999695 150.211105 204.999695 C 147.704102 204.999695 145.449097 206.393707 144.328094 208.635696 L 142.967102 211.356705 C 142.641098 207.797699 139.643097 204.999695 136.000092 204.999695 C 132.140091 204.999695 129.000092 208.140701 129.000092 211.999695 C 129.000092 215.859695 132.140091 218.999695 136.000092 218.999695 C 137.347092 218.999695 138.603104 218.610703 139.672104 217.9487 L 135.905106 225.480698 C 134.878098 227.534698 134.986099 229.926697 136.1931 231.880707 C 137.401093 233.833694 139.492096 234.999695 141.789093 234.999695 C 144.296097 234.999695 146.551102 233.606705 147.672104 231.363708 L 149.005096 228.696701 C 149.052094 229.803696 149.379105 230.897705 149.987106 231.880707 C 151.194092 233.833694 153.286102 234.999695 155.582092 234.999695 C 158.090103 234.999695 160.344101 233.606705 161.465103 231.363708 L 162.799103 228.696701 C 162.845093 229.803696 163.173096 230.897705 163.780106 231.880707 C 164.988098 233.833694 167.079102 234.999695 169.376099 234.999695 C 171.883102 234.999695 174.138107 233.606705 175.259094 231.363708 L 183.681107 214.519699 C 184.708099 212.465698 184.601105 210.072693 183.393097 208.119705 C 182.186096 206.166702 180.094101 204.999695 177.798096 204.999695"/>
</svg>
