<?xml version="1.0" encoding="UTF-8"?>
<!-- Generated by Pixelmator Pro 3.7.1 -->
<svg width="256" height="256" viewBox="0 0 256 256" xmlns="http://www.w3.org/2000/svg">
    <path id="Path" fill="#ffffff" stroke="none" d="M 138.844696 173.453094 L 130.699707 181.31311 C 129.924698 182.061096 128.923706 182.435089 127.9217 182.435089 C 126.917702 182.435089 125.913704 182.059097 125.137703 181.307098 L 117.009705 173.430099 C 116.576698 173.011108 116.618698 172.317108 117.078697 171.929108 C 119.978699 169.48111 123.7687 168.000092 127.915703 168.000092 C 132.075699 168.000092 135.874695 169.491089 138.778702 171.952103 C 139.237701 172.342102 139.278702 173.035095 138.844696 173.453094 M 127.915703 164.000092 C 122.987701 164.000092 118.221703 165.730103 114.498703 168.872101 C 113.411697 169.7901 112.759705 171.130096 112.710701 172.547089 C 112.662704 173.954102 113.214699 175.322098 114.2257 176.303101 L 122.354698 184.181091 C 123.854698 185.635101 125.832703 186.435089 127.9217 186.435089 C 130.005707 186.435089 131.978699 185.639099 133.477707 184.191101 L 141.621704 176.3311 C 142.635696 175.353104 143.190704 173.986099 143.144699 172.579102 C 143.098694 171.161102 142.449707 169.820099 141.3647 168.900101 C 137.635696 165.740097 132.859695 164.000092 127.915703 164.000092"/>
    <path id="path1" fill="#ffffff" stroke="none" d="M 161.497101 151.591797 L 151.301102 161.431793 C 145.3181 155.609802 137.045105 151.999802 127.9161 151.999802 C 118.812096 151.999802 110.558098 155.588806 104.579102 161.382797 L 94.403099 151.522797 C 93.565102 150.709808 93.611099 149.388794 94.486099 148.612793 C 103.303101 140.782806 115.044098 135.999802 127.9161 135.999802 C 140.825104 135.999802 152.5961 140.812805 161.420105 148.681793 C 162.293106 149.459808 162.338104 150.7798 161.497101 151.591797 M 164.082108 145.695801 C 154.178101 136.8638 141.334106 131.999802 127.9161 131.999802 C 114.538101 131.999802 101.722099 136.837799 91.830101 145.620789 C 90.578102 146.733795 89.839104 148.3228 89.803101 149.983795 C 89.767097 151.632797 90.4291 153.240799 91.620102 154.394806 L 101.795097 164.255798 L 104.579102 166.952789 L 107.362099 164.255798 C 112.855103 158.931793 120.155098 155.999802 127.9161 155.999802 C 135.698105 155.999802 143.013107 158.946808 148.5121 164.297791 L 151.2901 167.001801 L 154.079102 164.309799 L 164.274094 154.469803 C 165.468094 153.318802 166.134094 151.711792 166.101105 150.062805 C 166.0681 148.402802 165.332108 146.810791 164.082108 145.695801"/>
    <path id="path2" fill="#ffffff" stroke="none" d="M 206.734406 107.933105 L 198.073395 116.292099 C 180.124405 98.826096 155.3004 88.000107 127.916397 88.000107 C 100.6054 88.000107 75.840401 98.766098 57.903408 116.149094 L 49.259396 107.772095 C 47.569408 106.135101 47.609402 103.498093 49.358395 101.925095 C 69.991402 83.363098 97.610397 72.000107 127.916397 72.000107 C 158.308395 72.000107 185.996399 83.430099 206.648407 102.084106 C 208.394394 103.662094 208.427399 106.299103 206.734406 107.933105 M 209.329407 99.116104 C 187.116394 79.051102 158.2034 68.000107 127.916397 68.000107 C 97.719398 68.000107 68.869392 78.992096 46.6824 98.951096 C 45.031399 100.436096 44.060406 102.547104 44.020397 104.741104 C 43.979397 106.941101 44.874401 109.093094 46.475399 110.645096 L 55.119396 119.022095 L 57.903408 121.720093 L 60.687405 119.022095 C 78.667397 101.597107 102.543396 92.000107 127.916397 92.000107 C 153.361404 92.000107 177.286407 101.645096 195.283401 119.159103 L 198.061401 121.862106 L 200.850403 119.170105 L 209.512405 110.811096 C 211.117401 109.263107 212.016403 107.112106 211.980392 104.912094 C 211.944397 102.718094 210.977402 100.605103 209.329407 99.116104"/>
    <path id="path3" fill="#ffffff" stroke="none" d="M 183.329102 130.5215 L 174.686096 138.862503 C 162.7211 127.218506 146.173096 120.000504 127.9161 120.000504 C 109.709099 120.000504 93.199104 127.177505 81.241104 138.76651 L 72.616104 130.408508 C 70.948105 128.791504 70.983101 126.077499 72.733101 124.550507 C 87.367104 111.781494 106.7211 104.000504 127.9161 104.000504 C 149.173096 104.000504 168.575104 111.828506 183.223099 124.664505 C 185.002106 126.222504 185.030106 128.879501 183.329102 130.5215 M 185.8591 121.655502 C 169.923096 107.690506 149.345093 100.000504 127.9161 100.000504 C 106.550102 100.000504 86.018105 107.648499 70.103104 121.536499 C 68.440102 122.988495 67.453102 125.091507 67.395103 127.308502 C 67.336105 129.545502 68.225105 131.722504 69.8321 133.280502 L 78.4571 141.638489 L 81.241104 144.336502 L 84.024101 141.638489 C 95.7621 130.264496 111.350105 124.000504 127.9161 124.000504 C 144.528107 124.000504 160.147095 130.296509 171.896103 141.729492 L 174.675095 144.432495 L 177.464096 141.741501 L 186.106094 133.400497 C 187.731094 131.832489 188.633102 129.657501 188.579102 127.433502 C 188.526093 125.229507 187.535095 123.124496 185.8591 121.655502"/>
</svg>
