<?xml version="1.0" encoding="UTF-8"?>
<!-- Generated by Pixelmator Pro 3.7.1 -->
<svg width="256" height="256" viewBox="0 0 256 256" xmlns="http://www.w3.org/2000/svg">
    <path id="Path" fill="#ffffff" stroke="none" d="M 16 28 L 16 16 C 16 13.791 66.143997 12 128 12 C 189.856003 12 240 13.791 240 16 L 240 28 Z M 240 184 L 16 184 L 16 32 L 240 32 Z M 240 204 L 228 204 L 228 200 L 228 196 L 224 196 L 32 196 L 28 196 L 28 200 L 28 204 L 16 204 L 16 188 L 240 188 Z M 224 212 L 32 212 L 32 208 L 32 204 L 32 200 L 224 200 L 224 204 L 224 208 Z M 87.337997 216 L 160.662003 216 C 154.488998 223.061996 140.401001 228 124 228 C 107.598999 228 93.511002 223.061996 87.337997 216 M 157.651001 232.875 C 148.462006 237.470001 136.511002 240 124 240 C 111.488998 240 99.538002 237.470001 90.348999 232.875 C 81.905998 228.654007 76.087997 222.731995 73.509995 216 L 82.366997 216 C 84.660004 219.716003 88.568001 223.041 93.927002 225.720001 C 102.027 229.770004 112.707001 232 124 232 C 135.292999 232 145.973999 229.770004 154.072998 225.720001 C 159.432007 223.041 163.339996 219.716003 165.632996 216 L 174.490005 216 C 171.912003 222.731995 166.093994 228.654007 157.651001 232.875 M 238.412003 11.253006 C 236.802994 10.972 234.552994 10.712006 231.535004 10.457001 C 225.830002 9.975006 217.688995 9.544006 207.339005 9.173996 C 186.139008 8.416992 157.962006 8 128 8 C 98.038002 8 69.861 8.416992 48.660999 9.173996 C 38.311001 9.544006 30.17 9.975006 24.465 10.457001 C 21.447001 10.712006 19.197001 10.972 17.587999 11.253006 C 16.059999 11.520004 12 12.229004 12 16 L 12 28 L 12 32 L 12 184 L 12 188 L 12 204 L 12 208 L 16 208 L 28 208 L 28 212 L 28 216 L 32 216 L 69.257996 216 C 71.891998 224.261002 78.600998 231.473007 88.559998 236.453003 C 98.293999 241.320007 110.879997 244 124 244 C 137.119995 244 149.705994 241.320007 159.440002 236.453003 C 169.399002 231.473007 176.108002 224.261002 178.742004 216 L 224 216 L 228 216 L 228 212 L 228 208 L 240 208 L 244 208 L 244 204 L 244 188 L 244 184 L 244 32 L 244 28 L 244 16 C 244 12.229004 239.940002 11.520004 238.412003 11.253006"/>
    <path id="path1" fill="#ffffff" stroke="none" d="M 132 60 L 132 84 L 120 84 L 120 48 L 136 56 Z M 168 76 L 160 72 L 204 72 L 180 76 L 192 84 L 180 84 L 168 84 L 140 84 L 140 68 L 152 64 L 152 76 Z M 100 76 L 100 64 L 112 68 L 112 84 L 84 84 L 72 84 L 60 84 L 72 76 L 48 72 L 92 72 L 84 76 Z M 100 168 L 100 100 L 84 88 L 112 88 L 112 148 L 120 140 L 120 88 L 132 88 L 132 148 L 140 140 L 140 88 L 168 88 L 152 100 L 152 144 L 120 168 L 120 156 Z M 36 44 C 37.561996 42.438004 76.293999 40 126 40 C 175.705994 40 214.438004 42.438004 216 44 C 217.561996 45.561996 220 72.654007 220 108 C 220 143.346008 217.561996 170.438004 216 172 C 214.438004 173.561996 175.705994 176 126 176 C 122.626999 176 119.308998 175.988007 116.044998 175.966003 L 122.400002 171.199997 L 154.399994 147.199997 L 156 146 L 156 144 L 156 102 L 170.399994 91.199997 L 174.666992 88 L 192 88 L 205.210999 88 L 194.218994 80.671997 L 190.634995 78.283005 L 204.65799 75.945999 L 204 68 L 160 68 L 156 68 L 156 64 L 156 58.449997 L 150.735001 60.205002 L 138.735001 64.205002 L 136 65.117004 L 136 61.656998 L 138.828003 58.828003 L 142.753006 54.904007 L 137.789001 52.421997 L 121.789001 44.421997 L 116 41.528 L 116 48 L 116 65.117004 L 113.264999 64.205002 L 101.264999 60.205002 L 96 58.449997 L 96 64 L 96 68 L 92 68 L 48 68 L 47.342003 75.945999 L 61.364998 78.283005 L 57.780998 80.671997 L 46.789001 88 L 60 88 L 77.333 88 L 81.599998 91.199997 L 96 102 L 96 168 L 96 175.065002 L 102.057999 171.429993 L 116 163.065002 L 116 168 L 116 175.966003 C 71.191002 175.67099 37.456001 173.455994 36 172 C 34.438004 170.438004 32 143.346008 32 108 C 32 72.654007 34.438004 45.561996 36 44 M 33.171997 174.828003 C 34.402 176.05899 35.565002 177.221008 62.746002 178.580994 C 81.046997 179.496002 103.510002 180 126 180 C 148.490005 180 170.953003 179.496002 189.253998 178.580994 C 216.434998 177.221008 217.597992 176.05899 218.828003 174.828003 C 219.884003 173.77301 221.196991 172.459991 222.575989 152.950989 C 223.494003 139.957001 224 123.992996 224 108 C 224 92.007004 223.494003 76.042999 222.575989 63.048996 C 221.196991 43.540009 219.884003 42.227005 218.828003 41.171997 C 217.597992 39.940994 216.434998 38.778992 189.253998 37.419006 C 170.953995 36.503998 148.490005 36 126 36 C 103.510002 36 81.046005 36.503998 62.746002 37.419006 C 35.565002 38.778992 34.402 39.940994 33.171997 41.171997 C 32.115997 42.227005 30.803001 43.540009 29.424004 63.048996 C 28.505997 76.042999 28 92.007004 28 108 C 28 123.992996 28.505997 139.957001 29.424004 152.950989 C 30.803001 172.459991 32.115997 173.77301 33.171997 174.828003"/>
</svg>
