<?xml version="1.0" encoding="UTF-8"?>
<!-- Generated by Pixelmator Pro 3.7.1 -->
<svg width="256" height="256" viewBox="0 0 256 256" xmlns="http://www.w3.org/2000/svg">
    <path id="Path" fill="#ffffff" stroke="none" d="M 244 238.727097 C 244 241.643097 241.643005 244.000107 238.727005 244.000107 L 224 244.000107 L 224 161.867096 C 224 156.426086 219.445007 152.000092 213.846008 152.000092 L 66.154007 152.000092 C 60.554993 152.000092 56 156.426086 56 161.867096 L 56 244.000107 L 33.091003 244.000107 L 12 217.636108 L 12 17.272095 C 12 14.357101 14.356995 12.000092 17.272995 12.000092 L 36 12.000092 L 36 133.600098 C 36 139.334106 40.117004 144.000092 45.177002 144.000092 L 210.824005 144.000092 C 215.882996 144.000092 220 139.334106 220 133.600098 L 220 12.000092 L 238.727005 12.000092 C 241.643005 12.000092 244 14.357101 244 17.272095 Z M 190 244.000107 L 190 171.272095 C 190 164.951096 185.927002 160.000092 180.727005 160.000092 L 75.272995 160.000092 C 70.072998 160.000092 66 164.951096 66 171.272095 L 66 244.000107 L 60 244.000107 L 60 161.867096 C 60 158.622101 62.751007 156.000092 66.154007 156.000092 L 213.846008 156.000092 C 217.248993 156.000092 220 158.622101 220 161.867096 L 220 244.000107 Z M 70 244.000107 L 70 171.272095 C 70 167.251099 72.356995 164.000092 75.272995 164.000092 L 180.727005 164.000092 C 183.643005 164.000092 186 167.251099 186 171.272095 L 186 244.000107 Z M 102.057999 139.430099 L 116 131.065094 L 116 136.000092 C 116 137.515106 116.856003 138.900085 118.210999 139.578094 C 118.777 139.861099 119.389 140.000092 119.999001 140.000092 L 100.001007 140.000092 C 100.714005 140.000092 101.425003 139.809097 102.057999 139.430099 M 132 28.000092 L 132 52.000092 L 120 52.000092 L 120 16.000092 L 136 24.000092 Z M 168 44.000092 L 160 40.000092 L 204 40.000092 L 180 44.000092 L 192 52.000092 L 168 52.000092 L 140 52.000092 L 140 36.000092 L 152 32.000092 L 152 44.000092 Z M 100 44.000092 L 100 32.000092 L 112 36.000092 L 112 52.000092 L 84 52.000092 L 60 52.000092 L 72 44.000092 L 48 40.000092 L 92 40.000092 L 84 44.000092 Z M 84 56.000092 L 112 56.000092 L 112 116.000107 L 120 108.000092 L 120 56.000092 L 132 56.000092 L 132 116.000107 L 140 108.000092 L 140 56.000092 L 168 56.000092 L 152 68.000092 L 152 112.000107 L 120 136.000092 L 120 124.000107 L 100 136.000092 L 100 68.000092 Z M 120 12.000092 L 216 12.000092 L 216 133.600098 C 216 137.139099 213.686005 140.000092 210.824005 140.000092 L 120 140.000092 C 120.849998 140.000092 121.694 139.729095 122.400002 139.200104 L 154.399994 115.200104 C 155.406998 114.444107 156 113.259094 156 112.000107 L 156 70.000092 L 170.399994 59.200104 C 171.427002 58.430099 171.998001 57.235092 171.998001 56.000092 L 192 56.000092 C 193.763 56.000092 195.317993 54.8461 195.828003 53.159103 C 196.339005 51.472092 195.684998 49.649094 194.218994 48.672104 L 190.634995 46.283096 L 204.658005 43.945099 C 206.710999 43.603104 208.158005 41.744095 207.985992 39.67009 C 207.815002 37.5961 206.080994 36.000092 204 36.000092 L 160 36.000092 C 158.144989 36.000092 156.53299 37.275101 156.106995 39.0811 C 156.039001 39.369095 156.003998 39.658096 156 39.945099 L 156 32.000092 C 156 30.714096 155.382004 29.507095 154.338989 28.755096 C 153.649002 28.258102 152.82901 28.000092 152 28.000092 C 151.574997 28.000092 151.14801 28.067093 150.735001 28.205093 L 138.735001 32.205093 C 137.10199 32.750092 136 34.278091 136 36.000092 L 136 29.657089 L 138.828003 26.828094 C 139.738007 25.919098 140.153992 24.628098 139.947998 23.3591 C 139.742004 22.090103 138.938995 20.997101 137.789001 20.422104 L 121.789001 12.422104 C 121.223999 12.140091 120.612 12.000092 120 12.000092 C 119.268997 12.000092 118.539001 12.200104 117.897003 12.597092 C 116.718002 13.326096 116 14.61409 116 16.000092 L 116 36.000092 C 116 34.278091 114.897995 32.750092 113.264999 32.205093 L 101.264999 28.205093 C 100.852005 28.067093 100.425003 28.000092 100 28.000092 C 99.171005 28.000092 98.350998 28.258102 97.660995 28.755096 C 96.617996 29.507095 96 30.714096 96 32.000092 L 96 39.857101 C 95.925003 37.714096 94.166 36.000092 92.005005 36.000092 L 92 36.000092 L 48 36.000092 C 45.919006 36.000092 44.184998 37.5961 44.014008 39.67009 C 43.841995 41.744095 45.289001 43.603104 47.341995 43.945099 L 61.365005 46.283096 L 57.781006 48.672104 C 56.315002 49.649094 55.660995 51.472092 56.171997 53.159103 C 56.682007 54.8461 58.237 56.000092 60 56.000092 L 80.001999 56.000092 C 80.001999 57.235092 80.572998 58.430099 81.600006 59.200104 L 96 70.000092 L 96 136.000092 C 96 137.441101 96.774994 138.771088 98.029007 139.481094 C 98.641006 139.827087 99.320007 140.000092 99.998993 140.000092 L 45.177002 140.000092 C 42.313995 140.000092 40 137.139099 40 133.600098 L 40 12.000092 Z M 238.727005 8.000092 L 220 8.000092 L 216 8.000092 L 40 8.000092 L 36 8.000092 L 17.272995 8.000092 C 12.160004 8.000092 8 12.160095 8 17.272095 L 8 217.636108 L 8 219.039093 L 8.876999 220.135101 L 29.968002 246.4991 L 31.167999 248.000107 L 33.091003 248.000107 L 56 248.000107 L 60 248.000107 L 66 248.000107 L 70 248.000107 L 186 248.000107 L 190 248.000107 L 220 248.000107 L 224 248.000107 L 238.727005 248.000107 C 243.839996 248.000107 248 243.840103 248 238.727097 L 248 17.272095 C 248 12.160095 243.839996 8.000092 238.727005 8.000092"/>
    <path id="path1" fill="#ffffff" stroke="none" d="M 236 40 L 228 40 L 228 32 L 236 32 Z M 228 28 L 224 28 L 224 32 L 224 40 L 224 44 L 228 44 L 236 44 L 240 44 L 240 40 L 240 32 L 240 28 L 236 28 Z"/>
    <path id="path2" fill="#ffffff" stroke="none" d="M 83.901001 175.911011 L 112.098 175.911011 L 112.098 232.089005 L 83.901001 232.089005 Z M 80 236 L 116 236 L 116 172 L 80 172 Z"/>
</svg>
