<?xml version="1.0" encoding="UTF-8"?>
<!-- Generated by Pixelmator Pro 3.7.1 -->
<svg width="256" height="256" viewBox="0 0 256 256" xmlns="http://www.w3.org/2000/svg">
    <path id="Path" fill="#ffffff" stroke="none" d="M 226 196 L 155.123001 196 L 151.880997 183.029999 L 151.123001 180 L 148 180 L 108 180 L 104.876999 180 L 104.119003 183.029999 L 100.876999 196 L 30 196 C 20.059006 196 12 187.94101 12 178 L 12 112 L 14 112 L 32 112 L 32 162 C 32 169.720001 38.279999 176 46 176 L 210 176 C 217.039001 176 222.865005 170.77301 223.839996 164 L 242 164 L 244 164 L 244 178 C 244 187.94101 235.940994 196 226 196 M 105 196 L 108 184 L 148 184 L 151 196 Z M 36 112 L 105.516998 112 L 153.082001 162.735992 L 154.266998 164 L 156 164 L 204 164 L 219.798996 164 C 218.871994 168.563995 214.837997 172 210 172 L 46 172 C 40.477005 172 36 167.52301 36 162 Z M 116 100 L 132 100 L 132 112 L 116 112 Z M 220 144 L 193.656998 144 L 142.828003 93.171997 L 141.656998 92 L 140 92 L 96 92 L 36.201004 92 C 37.128006 87.436005 41.162003 84 46 84 L 210 84 C 215.522995 84 220 88.47699 220 94 Z M 14 96 L 32 96 L 36 96 L 96 96 L 112 96 L 112 100 L 112 112 L 112 113.067001 L 107.25 108 L 36 108 L 32 108 L 14 108 Z M 220 160 L 214 160 L 204 160 L 202 160 L 190 160 L 156 160 L 114.75 116 L 116 116 L 132 116 L 136 116 L 136 112 L 136 100 L 136 96 L 140 96 L 192 148 L 202 148 L 214 148 L 220 148 L 224 148 L 242 148 L 242 160 L 224 160 Z M 30 60 L 100.876999 60 L 104.119003 72.970001 L 104.876999 76 L 108 76 L 148 76 L 151.123001 76 L 151.880997 72.970001 L 155.123001 60 L 226 60 C 235.940994 60 244 68.05899 244 78 L 244 144 L 242 144 L 224 144 L 224 94 C 224 86.279999 217.720001 80 210 80 L 46 80 C 38.960999 80 33.134995 85.22699 32.160004 92 L 14 92 L 12 92 L 12 78 C 12 68.05899 20.059006 60 30 60 M 151 60 L 148 72 L 108 72 L 105 60 Z M 226 56 L 156.123001 56 L 152 56 L 104 56 L 99.876999 56 L 30 56 C 17.869003 56 8 65.869003 8 78 L 8 96 L 8 100 L 10 100 L 10 104 L 8 104 L 8 108 L 8 178 C 8 190.130997 17.869003 200 30 200 L 99.876999 200 L 104 200 L 152 200 L 156.123001 200 L 226 200 C 238.130997 200 248 190.130997 248 178 L 248 160 L 248 156 L 246 156 L 246 152 L 248 152 L 248 148 L 248 78 C 248 65.869003 238.130997 56 226 56"/>
    <path id="path1" fill="#ffffff" stroke="none" d="M 144 136 C 139.582001 136 136 132.417999 136 128 C 136 123.582001 139.582001 120 144 120 C 148.417999 120 152 123.582001 152 128 C 152 132.417999 148.417999 136 144 136 M 156 128 C 156 121.382996 150.617004 116 144 116 C 137.382996 116 132 121.382996 132 128 C 132 134.617004 137.382996 140 144 140 C 150.617004 140 156 134.617004 156 128"/>
    <path id="path2" fill="#ffffff" stroke="none" d="M 164 152 C 159.582001 152 156 148.417999 156 144 C 156 139.582001 159.582001 136 164 136 C 168.417999 136 172 139.582001 172 144 C 172 148.417999 168.417999 152 164 152 M 164 132 C 157.382996 132 152 137.382996 152 144 C 152 150.617004 157.382996 156 164 156 C 170.617004 156 176 150.617004 176 144 C 176 137.382996 170.617004 132 164 132"/>
    <path id="path3" fill="#ffffff" stroke="none" d="M 191.4142 155.4142 C 191.023193 155.805206 190.512207 156.000198 190.000198 156.000198 C 189.488205 156.000198 188.976196 155.805206 188.586197 155.4142 C 187.805206 154.633209 187.805206 153.367203 188.586197 152.586197 C 188.976196 152.19519 189.488205 152.000198 190.000198 152.000198 C 190.512207 152.000198 191.023193 152.19519 191.4142 152.586197 C 192.195206 153.367203 192.195206 154.633209 191.4142 155.4142 M 196.000198 154.000198 C 196.000198 152.397202 195.376205 150.890198 194.242203 149.757202 C 193.109207 148.624207 191.602203 148.000198 190.000198 148.000198 C 188.397202 148.000198 186.890198 148.624207 185.757202 149.757202 C 184.624207 150.890198 184.000198 152.397202 184.000198 154.000198 C 184.000198 155.602203 184.624207 157.109192 185.757202 158.242203 C 186.890198 159.37619 188.397202 160.000198 190.000198 160.000198 C 191.602203 160.000198 193.109207 159.37619 194.242203 158.242203 C 195.376205 157.109192 196.000198 155.602203 196.000198 154.000198"/>
    <path id="path4" fill="#ffffff" stroke="none" d="M 203.4142 155.4142 C 203.023193 155.805206 202.512207 156.000198 202.000198 156.000198 C 201.488205 156.000198 200.976196 155.805206 200.586197 155.4142 C 199.805206 154.633209 199.805206 153.367203 200.586197 152.586197 C 200.976196 152.19519 201.488205 152.000198 202.000198 152.000198 C 202.512207 152.000198 203.023193 152.19519 203.4142 152.586197 C 204.195206 153.367203 204.195206 154.633209 203.4142 155.4142 M 208.000198 154.000198 C 208.000198 152.397202 207.376205 150.890198 206.242203 149.757202 C 205.109207 148.624207 203.602203 148.000198 202.000198 148.000198 C 200.397202 148.000198 198.890198 148.624207 197.757202 149.757202 C 196.624207 150.890198 196.000198 152.397202 196.000198 154.000198 C 196.000198 155.602203 196.624207 157.109192 197.757202 158.242203 C 198.890198 159.37619 200.397202 160.000198 202.000198 160.000198 C 203.602203 160.000198 205.109207 159.37619 206.242203 158.242203 C 207.376205 157.109192 208.000198 155.602203 208.000198 154.000198"/>
    <path id="path5" fill="#ffffff" stroke="none" d="M 215.4142 155.4142 C 215.023193 155.805206 214.512207 156.000198 214.000198 156.000198 C 213.488205 156.000198 212.976196 155.805206 212.586197 155.4142 C 211.805206 154.633209 211.805206 153.367203 212.586197 152.586197 C 212.976196 152.19519 213.488205 152.000198 214.000198 152.000198 C 214.512207 152.000198 215.023193 152.19519 215.4142 152.586197 C 216.195206 153.367203 216.195206 154.633209 215.4142 155.4142 M 220.000198 154.000198 C 220.000198 152.397202 219.376205 150.890198 218.242203 149.757202 C 217.109207 148.624207 215.602203 148.000198 214.000198 148.000198 C 212.397202 148.000198 210.890198 148.624207 209.757202 149.757202 C 208.624207 150.890198 208.000198 152.397202 208.000198 154.000198 C 208.000198 155.602203 208.624207 157.109192 209.757202 158.242203 C 210.890198 159.37619 212.397202 160.000198 214.000198 160.000198 C 215.602203 160.000198 217.109207 159.37619 218.242203 158.242203 C 219.376205 157.109192 220.000198 155.602203 220.000198 154.000198"/>
</svg>
