<?xml version="1.0" encoding="UTF-8"?>
<!-- Generated by Pixelmator Pro 3.7.1 -->
<svg width="256" height="256" viewBox="0 0 256 256" xmlns="http://www.w3.org/2000/svg">
    <path id="Path" fill="#ffffff" stroke="none" d="M 212.306198 234 C 205.698196 234 197.547195 233.171005 187.525192 231.205002 L 135.937195 231.205002 L 120.063202 231.205002 L 68.474197 231.205002 C 58.449203 233.171997 50.303192 234 43.694199 234 C 8.443193 234 16.885195 210.442001 16.885195 210.442001 L 31.309206 162.304993 C 31.863207 160.458008 33.062195 158.860992 34.695206 157.835999 C 37.620193 156 40.000198 156 40.000198 156 L 44.000198 156 L 44.000198 144 L 120.063202 144 L 135.937195 144 L 212.000198 144 L 212.000198 156 L 216.000198 156 C 216.000198 156 218.380203 156 221.304199 157.835999 C 222.937195 158.860992 224.137207 160.458008 224.691193 162.304993 L 239.114197 210.442001 C 239.114197 210.442001 247.565201 234 212.306198 234 M 36.000198 140 L 36.000198 48 L 36.000198 44 C 36.000198 34.936996 47.500198 29.979996 60.078201 27.270004 C 60.404205 28.936005 61.764191 30.251007 63.504196 30.468994 C 65.574203 30.729996 68.342194 31.276001 70.888199 32 L 48.000198 32 C 43.589203 32 40.000198 35.589005 40.000198 40 L 40.000198 104 L 40.000198 108 L 40.000198 128 C 40.000198 132.411011 43.589203 136 48.000198 136 L 128.000198 136 L 132.000198 136 L 136.000198 136 C 136.000198 138.209 137.791199 140 140.000198 140 L 135.937195 140 L 120.063202 140 L 44.000198 140 L 40.000198 140 L 40.000198 144 L 40.000198 152 C 39.611191 152 38.113205 152.056 36.076202 152.759003 C 36.028198 152.513 36.000198 152.26001 36.000198 152 Z M 116.000198 24 L 124.000198 24 L 132.000198 24 L 140.000198 24 L 148.000198 24 C 145.791199 24 144.000198 25.791 144.000198 28 L 144.000198 32 L 140.000198 32 L 132.000198 32 L 124.000198 32 L 116.000198 32 L 80.000198 32 C 76.000198 28 64.001205 26.5 64.001205 26.5 L 79.293198 24.587997 C 86.666199 24.001007 92.000198 24 92.000198 24 Z M 176.706207 24.587997 L 191.999207 26.5 C 191.999207 26.5 191.999207 26.5 191.999207 26.5 C 191.998199 26.5 180.000198 28 176.000198 32 L 168.000198 32 L 168.000198 28 C 168.000198 25.791 166.209198 24 164.000198 24 C 164.000198 24 169.334198 24.001007 176.706207 24.587997 M 164.000198 32 L 148.000198 32 L 148.000198 28 L 164.000198 28 Z M 44.000198 114.917999 C 45.178192 115.60199 46.542191 116 48.000198 116 L 116.000198 116 L 116.000198 124 C 116.000198 127.074997 117.172195 129.873993 119.0812 132 L 48.000198 132 C 45.791199 132 44.000198 130.209 44.000198 128 Z M 136.000198 132 L 132.000198 132 L 128.000198 132 C 123.582199 132 120.000198 128.417999 120.000198 124 L 120.000198 112 L 48.000198 112 C 45.791199 112 44.000198 110.209 44.000198 108 L 44.000198 104 L 44.000198 100 L 44.000198 40 C 44.000198 37.791 45.791199 36 48.000198 36 L 80.000198 36 L 116.000198 36 L 124.000198 36 L 132.000198 36 L 140.000198 36 L 148.000198 36 L 164.000198 36 L 176.000198 36 L 200.000198 36 C 206.627197 36 212.000198 41.373001 212.000198 48 L 212.000198 108 L 212.000198 112 L 212.000198 128 C 212.000198 130.209 210.209198 132 208.000198 132 L 196.000198 132 L 196.000198 136 L 140.000198 136 L 140.000198 132 Z M 220.000198 44 L 220.000198 140 L 220.000198 152 C 220.000198 152.261002 219.967194 152.511993 219.918198 152.757996 C 217.884201 152.056 216.389206 152 216.000198 152 L 216.000198 144 L 216.000198 140 L 212.000198 140 L 196.000198 140 C 198.209198 140 200.000198 138.209 200.000198 136 L 208.000198 136 C 212.411194 136 216.000198 132.411011 216.000198 128 L 216.000198 112 L 216.000198 108 L 216.000198 48 C 216.000198 39.177994 208.822205 32 200.000198 32 L 185.112198 32 C 187.658203 31.276001 190.4272 30.729996 192.498199 30.468994 C 194.236206 30.248993 195.5952 28.934006 195.921204 27.270004 C 208.499207 29.979996 220.000198 34.936005 220.000198 44 M 242.925201 209.222992 L 228.522202 161.156998 C 227.702194 158.42099 225.944199 156.082001 223.568207 154.542999 C 223.840195 153.742996 224.000198 152.890991 224.000198 152 L 224.000198 140 L 224.000198 44 C 224.000198 33.483002 213.4702 26.270996 192.703201 22.561996 C 187.181198 21.576004 181.702194 20.970993 177.029205 20.598007 L 172.496201 20.031006 C 172.331207 20.009995 172.166199 20 172.000198 20 L 164.000198 20 L 140.000198 20 L 132.000198 20 L 124.000198 20 L 116.000198 20 L 92.000198 20 L 84.000198 20 C 83.834198 20 83.668198 20.009995 83.504196 20.031006 L 78.971191 20.598007 C 74.298203 20.970993 68.819199 21.576004 63.297195 22.561996 C 42.530197 26.270996 32.000198 33.483002 32.000198 44 L 32.000198 48 L 32.000198 140 L 32.000198 152 C 32.000198 152.891998 32.154205 153.747009 32.425201 154.548004 C 30.053194 156.087006 28.296206 158.424011 27.477205 161.156998 L 13.075197 209.222992 C 12.655199 210.477997 9.874193 219.669006 15.427202 227.557999 C 20.304201 234.487 29.814196 238 43.694199 238 C 50.846191 238 59.312195 237.059998 68.861191 235.205002 L 120.063202 235.205002 L 135.937195 235.205002 L 187.139206 235.205002 C 196.688202 237.059998 205.154205 238 212.306198 238 C 226.190201 238 235.702194 234.485992 240.578201 227.557007 C 246.128204 219.669006 243.3452 210.479996 242.925201 209.222992"/>
    <path id="path1" fill="#ffffff" stroke="none" d="M 200 148 L 56 148 L 56 152 L 200 152 Z"/>
    <path id="path2" fill="#ffffff" stroke="none" d="M 44 216 L 40.109001 216 L 36 216 C 30.582001 216 27.018999 212.358002 26.958 207.403 C 28.507999 208.339005 30.574001 208.856995 32.966 208.856995 C 33.139999 208.856995 33.314999 208.854004 33.489998 208.848999 C 33.375999 210.434998 33.748001 211.944 34.597 213.196991 C 35.803001 214.977997 37.812 216 40.109001 216 C 43.932999 216 47.987 213.076996 49.536999 209.199997 C 49.627998 208.972992 49.709 208.744995 49.780998 208.518005 C 50.755001 208.740997 51.824001 208.856995 52.966 208.856995 C 54.418999 208.856995 55.949001 208.666 57.400002 208.278 C 54.380001 212.778992 49.092999 216 44 216 M 44.68 200.570999 C 42.471001 200.570999 41.447998 198.653 42.395 196.285995 C 43.341 193.919006 45.900002 192 48.109001 192 C 50.318001 192 51.341 193.919006 50.395 196.285995 C 49.447998 198.653 46.889999 200.570999 44.68 200.570999 M 37.822998 207.714005 C 38.77 205.347 41.327999 203.429001 43.537998 203.429001 C 45.747002 203.429001 46.77 205.347 45.822998 207.714005 C 44.876999 210.080994 42.318001 212 40.109001 212 C 37.900002 212 36.876999 210.080994 37.822998 207.714005 M 28.109001 202 C 28.74 200.421997 31.938 199.143005 35.251999 199.143005 C 38.566002 199.143005 40.740002 200.421997 40.109001 202 C 39.478001 203.578003 36.279999 204.856995 32.966 204.856995 C 29.652 204.856995 27.478001 203.578003 28.109001 202 M 36 182 C 36 178.686005 41.373001 176 48 176 C 54.626999 176 60 178.686005 60 182 C 60 185.313995 54.626999 188 48 188 C 41.373001 188 36 185.313995 36 182 M 41.140999 191.13501 C 40.089001 192.179993 39.229 193.431 38.681 194.800003 C 38.59 195.027008 38.508999 195.255005 38.437 195.481995 C 37.463001 195.259003 36.394001 195.143005 35.251999 195.143005 C 33.417 195.143005 31.459 195.444 29.695 196.069 L 32.781998 185.261002 C 34.121002 187.942993 37.110001 190.033005 41.140999 191.13501 M 59.887001 202.395004 C 58.925999 203.785004 55.998001 204.856995 52.966 204.856995 C 49.652 204.856995 47.478001 203.578003 48.109001 202 C 48.739998 200.421997 51.938 199.143005 55.251999 199.143005 C 58.056999 199.143005 60.039001 200.061005 60.200001 201.300003 Z M 52 160 L 60 160 C 66.599998 160 70.457001 165.399994 68.570999 172 L 61.499001 196.755005 C 59.924999 195.721008 57.771999 195.143005 55.251999 195.143005 C 55.077999 195.143005 54.903 195.145996 54.728001 195.151001 C 54.826 193.792999 54.567001 192.492996 53.959 191.360992 C 60.017998 189.975006 64 186.458008 64 182 C 64 176.205994 57.271 172 48 172 C 42.820999 172 38.438999 173.313995 35.576 175.483002 L 36.570999 172 C 38.457001 165.399994 45.400002 160 52 160 M 64.192001 201.889008 L 72.417999 173.098999 C 73.690002 168.647003 73.004997 164.218994 70.539001 160.949005 C 68.166 157.804001 64.324997 156 60 156 L 52 156 C 43.578999 156 35.112999 162.544998 32.724998 170.901001 L 23.582001 202.901001 C 22.309999 207.352997 22.995001 211.781006 25.461 215.050995 C 27.834 218.195999 31.674999 220 36 220 L 44 220 C 52.420998 220 60.887001 213.455002 63.275002 205.098999 L 63.604 203.946991 C 63.68 203.794998 63.759003 203.645004 63.822998 203.485992 C 64.031998 202.962006 64.148003 202.425995 64.192001 201.889008"/>
    <path id="path3" fill="#ffffff" stroke="none" d="M 225.186096 214.152603 C 224.822098 214.256592 224.4561 214.305603 224.094101 214.305603 C 222.354095 214.305603 220.742096 213.156601 220.241104 211.405609 L 218.043106 203.713593 C 218.043106 203.713593 218.043106 203.713593 218.043106 203.713593 L 210.351105 176.790604 C 210.351105 176.790604 210.351105 176.790604 210.351105 176.789612 L 208.153091 169.098602 C 207.549103 166.982605 208.785095 164.757599 210.901093 164.153595 C 211.264099 164.049591 211.631104 163.999603 211.992096 163.999603 C 213.733093 163.999603 215.345093 165.14859 215.845093 166.900604 L 218.043106 174.59259 L 220.241104 182.284607 C 220.241104 182.284607 220.241104 182.284607 220.241104 182.284607 L 227.933105 209.207596 C 228.538101 211.322601 227.301102 213.548599 225.186096 214.152603 M 72.000092 207.999603 L 80.000092 159.999603 L 200.000092 159.999603 L 208.000092 207.999603 Z M 224.087097 181.185608 L 221.889099 173.493591 L 219.692093 165.801605 C 218.716095 162.385605 215.550095 159.999603 211.992096 159.999603 C 211.252106 159.999603 210.515106 160.103607 209.802094 160.307602 C 207.525101 160.957611 205.768097 162.541595 204.809097 164.521606 L 203.945099 159.34259 L 203.388092 155.999603 L 200.000092 155.999603 L 80.000092 155.999603 L 76.611099 155.999603 L 76.054092 159.34259 L 68.054092 207.342606 L 67.278091 211.999603 L 72.000092 211.999603 L 208.000092 211.999603 L 212.722107 211.999603 L 211.945099 207.342606 L 207.781097 182.354599 L 214.197098 204.8116 L 216.395096 212.504608 C 217.371094 215.920593 220.537094 218.305603 224.094101 218.305603 C 224.834106 218.305603 225.571106 218.202606 226.285095 217.998596 C 230.526093 216.786591 232.991104 212.350601 231.779099 208.108597 Z"/>
    <path id="path4" fill="#ffffff" stroke="none" d="M 186 224 L 182 224 L 178 224 C 176.899994 224 176 224.899994 176 226 C 176 227.100006 176.899994 228 178 228 L 182 228 L 186 228 C 187.100006 228 188 227.100006 188 226 C 188 224.899994 187.100006 224 186 224"/>
    <path id="path5" fill="#ffffff" stroke="none" d="M 78 224 L 74 224 L 70 224 C 68.900002 224 68 224.899994 68 226 C 68 227.100006 68.900002 228 70 228 L 74 228 L 78 228 C 79.099998 228 80 227.100006 80 226 C 80 224.899994 79.099998 224 78 224"/>
    <path id="path6" fill="#ffffff" stroke="none" d="M 48 42 L 48 106 C 48 107.105011 48.895 108 50 108 L 52 108 L 52 40 L 50 40 C 48.895 40 48 40.895004 48 42"/>
    <path id="path7" fill="#ffffff" stroke="none" d="M 128 122 L 128 46 C 128 44.897003 128.897003 44 130 44 L 170 44 L 178 44 L 186 44 L 194 44 L 196 44 C 200.411011 44 204 47.588989 204 52 L 204 122 C 204 123.102997 203.102997 124 202 124 L 130 124 C 128.897003 124 128 123.102997 128 122 M 208 122 L 208 52 C 208 45.373001 202.626999 40 196 40 L 130 40 C 126.685997 40 124 42.686005 124 46 L 124 122 C 124 125.313995 126.685997 128 130 128 L 202 128 C 205.313995 128 208 125.313995 208 122"/>
    <path id="path8" fill="#ffffff" stroke="none" d="M 192 46 C 192 47.104996 192.895004 48 194 48 C 195.104996 48 196 47.104996 196 46 C 196 44.895004 195.104996 44 194 44 C 192.895004 44 192 44.895004 192 46"/>
    <path id="path9" fill="#ffffff" stroke="none" d="M 184 46 C 184 47.104996 184.895004 48 186 48 C 187.104996 48 188 47.104996 188 46 C 188 44.895004 187.104996 44 186 44 C 184.895004 44 184 44.895004 184 46"/>
    <path id="path10" fill="#ffffff" stroke="none" d="M 176 46 C 176 47.104996 176.895004 48 178 48 C 179.104996 48 180 47.104996 180 46 C 180 44.895004 179.104996 44 178 44 C 176.895004 44 176 44.895004 176 46"/>
    <path id="path11" fill="#ffffff" stroke="none" d="M 168 46 C 168 47.104996 168.895004 48 170 48 C 171.104996 48 172 47.104996 172 46 C 172 44.895004 171.104996 44 170 44 C 168.895004 44 168 44.895004 168 46"/>
</svg>
