<?xml version="1.0" encoding="UTF-8"?>
<!-- Generated by Pixelmator Pro 3.7.1 -->
<svg width="256" height="256" viewBox="0 0 256 256" xmlns="http://www.w3.org/2000/svg">
    <path id="Path" fill="#ffffff" stroke="none" d="M 220 200 C 220 206.600006 214.600006 212 208 212 L 48 212 C 41.399994 212 36 206.600006 36 200 L 36 180 L 44 180 L 48 180 L 191.679993 180 L 200 180 C 208.822006 180 216 172.821991 216 164 L 216 48 C 216 30.354996 201.645004 16 184 16 L 175.252991 16 L 48 16 L 44 16 L 36 16 C 36 13.800003 37.800003 12 40 12 L 192 12 C 207.399994 12 220 24.600006 220 40 Z M 184 244 L 72 244 L 72 216 L 184 216 Z M 44 28 L 42 28 C 38.692001 28 36 30.692001 36 34 L 36 20 L 44 20 Z M 42 168 L 44 168 L 44 176 L 36 176 L 36 162 C 36 165.307999 38.692001 168 42 168 M 54 152 C 55.104996 152 56 152.895004 56 154 L 56 162 C 56 163.104996 55.104996 164 54 164 L 42 164 C 40.895004 164 40 163.104996 40 162 L 40 154 C 40 152.895004 40.895004 152 42 152 Z M 42 108 L 44 108 L 44 148 L 42 148 C 38.692001 148 36 150.692001 36 154 L 36 102 C 36 105.307999 38.692001 108 42 108 M 54 92 C 55.104996 92 56 92.894989 56 94 L 56 102 C 56 103.105011 55.104996 104 54 104 L 42 104 C 40.895004 104 40 103.105011 40 102 L 40 94 C 40 92.894989 40.895004 92 42 92 Z M 40 42 L 40 34 C 40 32.895004 40.895004 32 42 32 L 54 32 C 55.104996 32 56 32.895004 56 34 L 56 42 C 56 43.104996 55.104996 44 54 44 L 42 44 C 40.895004 44 40 43.104996 40 42 M 42 48 L 44 48 L 44 88 L 42 88 C 38.692001 88 36 90.692001 36 94 L 36 42 C 36 45.307999 38.692001 48 42 48 M 204 48.746994 L 204 163.679993 C 204 170.455994 198.455994 176 191.679993 176 L 48 176 L 48 168 L 54 168 C 57.307999 168 60 165.307999 60 162 L 60 154 C 60 150.692001 57.307999 148 54 148 L 48 148 L 48 108 L 54 108 C 57.307999 108 60 105.307999 60 102 L 60 94 C 60 90.692001 57.307999 88 54 88 L 48 88 L 48 48 L 54 48 C 57.307999 48 60 45.307999 60 42 L 60 34 C 60 30.692001 57.307999 28 54 28 L 48 28 L 48 20 L 175.252991 20 C 191.063995 20 204 32.936005 204 48.746994 M 193.820007 21.792999 C 204.412994 25.792999 212 36.050995 212 48 L 212 164 C 212 169.669998 208.011002 174.442993 202.703003 175.679001 C 205.949997 172.694 208 168.427002 208 163.679993 L 208 48.746994 C 208 37.580002 202.378006 27.705994 193.820007 21.792999 M 192 8 L 40 8 C 35.589005 8 32 11.589005 32 16 L 32 20 L 32 176 L 32 180 L 32 200 C 32 208.821991 39.177994 216 48 216 L 68 216 L 68 244 L 68 248 L 72 248 L 184 248 L 188 248 L 188 244 L 188 216 L 208 216 C 216.822006 216 224 208.821991 224 200 L 224 40 C 224 22.354996 209.645004 8 192 8"/>
    <path id="path1" fill="#ffffff" stroke="none" d="M 192 196 C 192 198.209 190.209 200 188 200 L 68 200 C 65.791 200 64 198.209 64 196 L 64 192 C 64 189.791 65.791 188 68 188 L 188 188 C 190.209 188 192 189.791 192 192 Z M 188 184 L 68 184 C 63.589005 184 60 187.588989 60 192 L 60 196 C 60 200.410995 63.589005 204 68 204 L 188 204 C 192.410995 204 196 200.410995 196 196 L 196 192 C 196 187.588989 192.410995 184 188 184"/>
</svg>
