<?xml version="1.0" encoding="UTF-8"?>
<!-- Generated by Pixelmator Pro 3.7.1 -->
<svg width="256" height="256" viewBox="0 0 256 256" xmlns="http://www.w3.org/2000/svg">
    <path id="Path" fill="#ffffff" stroke="none" d="M 120 8 C 74.854996 8 46.867996 11.578003 43.727997 12 L 12 12 L 8 12 L 8 16 L 8 240 L 8 244 L 12 244 L 43.727997 244 C 46.867996 244.421997 74.854996 248 120 248 C 167.554993 248 243.449005 244.033997 244.209991 243.994003 L 248 243.794998 L 248 240 L 248 16 L 248 12.205002 L 244.209991 12.005005 C 243.449005 11.964996 167.554993 8 120 8 M 120 12 C 168 12 244 16 244 16 L 244 240 C 244 240 168 244 120 244 C 72 244 44 240 44 240 L 12 240 L 12 16 L 44 16 C 44 16 72 12 120 12"/>
    <path id="path1" fill="#ffffff" stroke="none" d="M 52 59.654297 L 26 59.654297 C 24.896 59.654297 24 60.550293 24 61.654297 C 24 62.758301 24.896 63.654297 26 63.654297 L 52 63.654297 C 52 63.654297 70.75 63.654297 86.464996 60.0233 C 87.367996 59.814301 88 59.000305 88 58.073303 L 88 58.001297 C 88 56.7733 86.910995 55.833298 85.696999 56.025299 C 79.403999 57.016296 61.744999 59.654297 52 59.654297"/>
    <path id="path2" fill="#ffffff" stroke="none" d="M 52 72 L 26 72 C 24.896 72 24 72.895996 24 74 C 24 75.104004 24.896 76 26 76 L 52 76 C 52 76 70.75 76 86.464996 72.369003 C 87.367996 72.160004 88 71.345993 88 70.419006 L 88 70.347 C 88 69.119003 86.910995 68.179001 85.696999 68.371002 C 79.403999 69.362 61.744999 72 52 72"/>
    <path id="path3" fill="#ffffff" stroke="none" d="M 52 84 L 26 84 C 24.896 84 24 84.895996 24 86 C 24 87.104004 24.896 88 26 88 L 52 88 C 52 88 70.75 88 86.464996 84.369003 C 87.367996 84.160004 88 83.345993 88 82.419006 L 88 82.347 C 88 81.119003 86.910995 80.179001 85.696999 80.371002 C 79.403999 81.362 61.744999 84 52 84"/>
    <path id="path4" fill="#ffffff" stroke="none" d="M 52 96 L 26 96 C 24.896 96 24 96.895996 24 98 C 24 99.104004 24.896 100 26 100 L 52 100 C 52 100 70.75 100 86.464996 96.369003 C 87.367996 96.160004 88 95.345993 88 94.419006 L 88 94.347 C 88 93.119003 86.910995 92.179001 85.696999 92.371002 C 79.403999 93.362 61.744999 96 52 96"/>
    <path id="path5" fill="#ffffff" stroke="none" d="M 52 108 L 26 108 C 24.896 108 24 108.895996 24 110 C 24 111.104004 24.896 112 26 112 L 52 112 C 52 112 70.75 112 86.464996 108.369003 C 87.367996 108.160004 88 107.345993 88 106.419006 L 88 106.347 C 88 105.119003 86.910995 104.179001 85.696999 104.371002 C 79.403999 105.362 61.744999 108 52 108"/>
    <path id="path6" fill="#ffffff" stroke="none" d="M 52 120 L 26 120 C 24.896 120 24 120.895996 24 122 C 24 123.104004 24.896 124 26 124 L 52 124 C 52 124 70.75 124 86.464996 120.369003 C 87.367996 120.160004 88 119.345993 88 118.419006 L 88 118.347 C 88 117.119003 86.910995 116.179001 85.696999 116.371002 C 79.403999 117.362 61.744999 120 52 120"/>
    <path id="path7" fill="#ffffff" stroke="none" d="M 52 132 L 26 132 C 24.896 132 24 132.895996 24 134 C 24 135.104004 24.896 136 26 136 L 52 136 C 52 136 70.75 136 86.464996 132.369003 C 87.367996 132.160004 88 131.346008 88 130.419006 L 88 130.347992 C 88 129.119003 86.910995 128.179001 85.696999 128.371002 C 79.403999 129.362 61.744999 132 52 132"/>
    <path id="path8" fill="#ffffff" stroke="none" d="M 52 144 L 26 144 C 24.896 144 24 144.895996 24 146 C 24 147.104004 24.896 148 26 148 L 52 148 C 52 148 70.75 148 86.464996 144.369003 C 87.367996 144.160004 88 143.346008 88 142.419006 L 88 142.347992 C 88 141.119003 86.910995 140.179993 85.696999 140.369995 C 79.403999 141.362 61.744999 144 52 144"/>
    <path id="path9" fill="#ffffff" stroke="none" d="M 52 156 L 26 156 C 24.896 156 24 156.895996 24 158 C 24 159.104004 24.896 160 26 160 L 52 160 C 52 160 70.75 160 86.464996 156.369003 C 87.367996 156.160004 88 155.346008 88 154.419006 L 88 154.347992 C 88 153.119003 86.910995 152.179993 85.696999 152.369995 C 79.403999 153.362 61.744999 156 52 156"/>
    <path id="path10" fill="#ffffff" stroke="none" d="M 52 168 L 26 168 C 24.896 168 24 168.895996 24 170 C 24 171.104004 24.896 172 26 172 L 52 172 C 52 172 70.75 172 86.464996 168.369003 C 87.367996 168.160004 88 167.346008 88 166.419006 L 88 166.347992 C 88 165.119003 86.910995 164.179993 85.696999 164.369995 C 79.403999 165.362 61.744999 168 52 168"/>
    <path id="path11" fill="#ffffff" stroke="none" d="M 52 180 L 26 180 C 24.896 180 24 180.895996 24 182 C 24 183.104004 24.896 184 26 184 L 52 184 C 52 184 70.75 184 86.464996 180.369003 C 87.367996 180.160004 88 179.346008 88 178.419006 L 88 178.347992 C 88 177.119003 86.910995 176.179993 85.696999 176.369995 C 79.403999 177.362 61.744999 180 52 180"/>
    <path id="path12" fill="#ffffff" stroke="none" d="M 52 192 L 26 192 C 24.896 192 24 192.895996 24 194 C 24 195.104004 24.896 196 26 196 L 52 196 C 52 196 70.75 196 86.464996 192.369003 C 87.367996 192.160004 88 191.346008 88 190.419006 L 88 190.347992 C 88 189.119003 86.910995 188.179993 85.696999 188.369995 C 79.403999 189.362 61.744999 192 52 192"/>
</svg>
